<?xml version="1.0" encoding="utf-8"?>
<!DOCTYPE svg PUBLIC "-//W3C//DTD SVG 1.1//EN" "http://www.w3.org/Graphics/SVG/1.1/DTD/svg11.dtd">
<!-- Generator: PTC Arbortext IsoDraw 7.3 -->
<svg id="Standard_x0020_layer" width="100%" height="100%" viewBox="0 0 31.114 71.683"
 xmlns="http://www.w3.org/2000/svg" xmlns:xlink="http://www.w3.org/1999/xlink"
 fill-rule="evenodd" clip-rule="evenodd" stroke="#000000" stroke-linecap="round" fill="none" xml:space="preserve">
 <g>
  <path stroke-width="0.13" stroke-linejoin="round" stroke-miterlimit="10" d="M6.094 24.509C6.094 23.708 5.344 23.06 4.421 23.06C3.499 23.06 2.75 23.708 2.75 24.509C2.75 25.307 3.499 25.957 4.421 25.957C5.344 25.957 6.094 25.307 6.094 24.509z"/>
  <path stroke-width="0.13" stroke-linejoin="round" stroke-miterlimit="10" d="M6.806 25.044C6.806 23.934 5.767 23.036 4.487 23.036C3.206 23.036 2.168 23.934 2.168 25.044C2.168 26.152 3.206 27.051 4.487 27.051C5.767 27.051 6.806 26.152 6.806 25.044z"/>
  <path stroke-width="0.13" stroke-linejoin="round" stroke-miterlimit="10" d="M11.474 11.755L11.483 11.63L11.47 11.505L11.433 11.384L11.375 11.269L11.298 11.163L11.201 11.07L11.09 10.99L10.965 10.928L10.83 10.881L10.689 10.855L10.545 10.849L10.401 10.862L10.262 10.894L10.13 10.945L10.009 11.012L9.9 11.096L9.811 11.194L9.739 11.303L9.688 11.419L9.657 11.542L9.651 11.667L9.667 11.791L9.705 11.913L9.766 12.026L9.846 12.131L9.943 12.223L10.057 12.301L10.185 12.365"/>
  <path stroke-width="0.13" stroke-linejoin="round" stroke-miterlimit="10" d="M18 12.21L18.053 12.092L18.085 11.968L18.094 11.842L18.079 11.714L18.042 11.593L17.984 11.477L17.903 11.369L17.804 11.275L17.69 11.196L17.564 11.134L17.425 11.089L17.283 11.064L17.135 11.06L16.99 11.074L16.85 11.109L16.718 11.163L16.596 11.236L16.489 11.323L16.4 11.423L16.33 11.535L16.283 11.654L16.257 11.779L16.257 11.907"/>
 </g>
 <g>
  <path stroke-width="0.3" stroke-linejoin="round" stroke-miterlimit="10" d="M11.019 10.243L11.343 10.313L11.653 10.425L11.936 10.579L12.189 10.769L12.403 10.99L12.576 11.24L12.701 11.509L12.775 11.791L12.795 12.08L12.769 12.371"/>
  <path stroke-width="0.3" stroke-linejoin="round" stroke-miterlimit="10" d="M11.019 10.243L10.262 0.45"/>
 </g>
 <g>
  <path stroke-width="0.3" stroke-linejoin="round" stroke-miterlimit="10" d="M10.253 0.45L7.442 0.15"/>
  <path stroke-width="0.3" stroke-linejoin="round" stroke-miterlimit="10" d="M7.45 0.15L1.99 11.381"/>
  <path stroke-width="0.3" stroke-linejoin="round" stroke-miterlimit="10" d="M1.98 11.381L0.916 17.452"/>
  <path stroke-width="0.3" stroke-linejoin="round" stroke-miterlimit="10" d="M0.925 17.452L1.151 19.045"/>
 </g>
 <g>
  <path stroke-width="0.3" stroke-linejoin="round" stroke-miterlimit="10" d="M9.798 20.411L9.871 19.346"/>
  <path stroke-width="0.3" stroke-linejoin="round" stroke-miterlimit="10" d="M9.881 19.346L11.929 12.664"/>
 </g>
 <path stroke-width="0.3" stroke-linejoin="round" stroke-miterlimit="10" d="M19.028 13.002L20.047 13.047"/>
 <path stroke-width="0.3" stroke-linejoin="round" stroke-miterlimit="10" d="M11.929 12.664L19.028 12.993"/>
 <g>
  <path stroke-width="0.3" stroke-linejoin="round" stroke-miterlimit="10" d="M19.138 12.901L19.138 11.153"/>
  <path stroke-width="0.3" stroke-linejoin="round" stroke-miterlimit="10" d="M19.138 11.153L13.977 0.833"/>
  <path stroke-width="0.3" stroke-linejoin="round" stroke-miterlimit="10" d="M13.977 0.833L11.391 0.678"/>
  <path stroke-width="0.3" stroke-linejoin="round" stroke-miterlimit="10" d="M11.391 0.678L10.409 1.205"/>
 </g>
 <g>
  <path stroke-width="0.13" stroke-linejoin="round" stroke-miterlimit="10" d="M11.619 0.751L12.457 11.227"/>
  <path stroke-width="0.13" stroke-linejoin="round" stroke-miterlimit="10" d="M13.977 0.833L15.041 11.08"/>
  <path stroke-width="0.13" stroke-linejoin="round" stroke-miterlimit="10" d="M15.041 11.071L13.067 11.071"/>
  <path stroke-width="0.13" stroke-linejoin="round" stroke-miterlimit="10" d="M8.361 0.223L8.971 10.243"/>
  <path stroke-width="0.13" stroke-linejoin="round" stroke-miterlimit="10" d="M8.971 10.243L10.409 10.243"/>
  <path stroke-width="0.13" stroke-linejoin="round" stroke-miterlimit="10" d="M12.457 2.043L13.439 2.043"/>
  <path stroke-width="0.13" stroke-linejoin="round" stroke-miterlimit="10" d="M13.448 2.043L13.448 2.798"/>
  <path stroke-width="0.13" stroke-linejoin="round" stroke-miterlimit="10" d="M8.971 4.173L9.044 4.855"/>
  <path stroke-width="0.13" stroke-linejoin="round" stroke-miterlimit="10" d="M9.044 4.855L10.026 4.855"/>
  <path stroke-width="0.13" stroke-linejoin="round" stroke-miterlimit="10" d="M8.743 1.588L8.816 2.27"/>
  <path stroke-width="0.13" stroke-linejoin="round" stroke-miterlimit="10" d="M8.816 2.27L9.798 2.27"/>
  <path stroke-width="0.13" stroke-linejoin="round" stroke-miterlimit="10" d="M9.117 6.748L9.189 7.432"/>
  <path stroke-width="0.13" stroke-linejoin="round" stroke-miterlimit="10" d="M9.198 7.432L10.182 7.432"/>
  <path stroke-width="0.13" stroke-linejoin="round" stroke-miterlimit="10" d="M9.343 9.105L9.416 9.788"/>
  <path stroke-width="0.13" stroke-linejoin="round" stroke-miterlimit="10" d="M9.426 9.788L10.409 9.788"/>
  <path stroke-width="0.13" stroke-linejoin="round" stroke-miterlimit="10" d="M12.839 3.863L13.821 3.863"/>
  <path stroke-width="0.13" stroke-linejoin="round" stroke-miterlimit="10" d="M13.821 3.863L13.821 4.618"/>
  <path stroke-width="0.13" stroke-linejoin="round" stroke-miterlimit="10" d="M13.14 6.139L14.122 6.139"/>
  <path stroke-width="0.13" stroke-linejoin="round" stroke-miterlimit="10" d="M14.131 6.139L14.131 6.894"/>
  <path stroke-width="0.13" stroke-linejoin="round" stroke-miterlimit="10" d="M13.367 8.568L14.349 8.568"/>
  <path stroke-width="0.13" stroke-linejoin="round" stroke-miterlimit="10" d="M14.359 8.568L14.359 9.324"/>
 </g>
 <g>
  <path stroke-width="0.3" stroke-linejoin="round" stroke-miterlimit="10" d="M20.047 13.047L20.388 14.137L20.724 15.132L21.033 16.076L21.295 17.01L21.489 17.98L21.6 18.908L21.643 19.722L21.637 20.457L21.603 21.155L21.565 21.85L21.539 22.475L21.515 22.978L21.475 23.425L21.396 23.887L21.262 24.431L21.048 25.024L20.78 25.585L20.496 26.115L20.239 26.615L20.047 27.088L19.931 27.489L19.859 27.811L19.814 28.097L19.78 28.397L19.743 28.757L19.699 29.118L19.664 29.425L19.641 29.734L19.64 30.1L19.667 30.579L19.789 31.417L20.018 32.609L20.277 33.847L20.49 34.817L20.582 35.209"/>
  <path stroke-width="0.3" stroke-linejoin="round" stroke-miterlimit="10" d="M0.925 21.402L0.92 21.12L0.911 20.861L0.904 20.617L0.906 20.371L0.925 20.112L0.939 19.852L0.943 19.614L0.962 19.399L1.022 19.21L1.151 19.048L1.34 18.946L1.359 18.946"/>
  <path stroke-width="0.3" stroke-linejoin="round" stroke-miterlimit="10" d="M11.547 25.78L11.551 25.955L11.544 26.998L11.519 27.905L11.475 28.457L11.438 28.719L11.409 28.919L11.368 29.079L11.295 29.221L11.173 29.367L10.954 29.507L10.659 29.614L10.359 29.689L10.127 29.733L10.035 29.751"/>
 </g>
 <path stroke-width="0.13" stroke-linejoin="round" stroke-miterlimit="10" d="M1.362 18.936L1.569 18.905L1.847 18.917L2.185 18.946L2.596 18.966L3.221 18.977L4.105 19.004L5.107 19.062L6.092 19.17L6.921 19.346L7.541 19.548L8.028 19.75L8.439 19.978L8.836 20.263L9.275 20.637L9.734 21.103L10.146 21.625L10.502 22.155L10.795 22.649L11.021 23.065L11.178 23.364L11.282 23.579L11.355 23.774L11.413 24.013L11.477 24.356L11.529 25L11.548 25.774"/>
 <path stroke-width="0.13" stroke-linejoin="round" stroke-miterlimit="10" d="M10.026 29.75L10.115 29.39L10.202 29.091L10.282 28.798L10.352 28.454L10.407 28.004L10.464 27.431L10.522 26.763L10.535 26.027L10.461 25.245L10.255 24.437L9.878 23.609L9.365 22.791L8.791 22.047L8.228 21.435L7.75 21.021L7.397 20.792L7.118 20.669L6.849 20.606L6.524 20.562L6.081 20.489L5.278 20.394L4.126 20.312L2.927 20.245L1.984 20.202L1.601 20.184"/>
 <path stroke-width="0.3" stroke-linejoin="round" stroke-miterlimit="10" d="M6.541 22.541L6.456 22.403L6.399 22.277L6.336 22.157L6.242 22.044L6.084 21.934L5.44 21.817L4.182 21.696L2.719 21.596L1.471 21.541L0.961 21.55"/>
 <path stroke-width="0.3" stroke-linejoin="round" stroke-miterlimit="10" d="M0.952 21.548L0.842 21.55L0.697 21.6L0.596 21.647L0.521 21.707L0.456 21.798L0.386 21.929L0.308 22.611L0.235 24.027L0.179 25.707L0.15 27.187L0.159 28.001L0.178 28.268L0.188 28.449L0.211 28.594L0.27 28.759L0.386 28.989L1.114 29.824L2.633 31.408L4.394 33.206L5.851 34.679L6.461 35.289"/>
 <path stroke-width="0.13" stroke-linejoin="round" stroke-miterlimit="10" d="M7.059 34.418L7.067 34.451L7.126 34.89L7.133 35.301L7.11 35.646L7.081 35.881L7.064 35.972"/>
 <path stroke-width="0.13" stroke-linejoin="round" stroke-miterlimit="10" d="M6.45 32.561L6.552 32.762L6.796 33.399L6.958 33.969L7.059 34.423"/>
 <path stroke-width="0.13" stroke-linejoin="round" stroke-miterlimit="10" d="M0.697 21.858L0.708 23.059L0.713 24.277L0.719 25.388L0.736 26.268L0.774 26.791L0.811 27.039L0.836 27.211L0.871 27.35L0.944 27.498L1.076 27.701L1.577 28.117L2.554 28.803L3.745 29.643L4.884 30.527L5.706 31.344L6.203 32.075L6.458 32.567"/>
 <path stroke-width="0.3" stroke-linejoin="round" stroke-miterlimit="10" d="M11.702 25.798L11.875 25.786L12.044 25.763L12.199 25.743L12.339 25.751L12.461 25.798L12.544 25.879L12.589 25.969L12.615 26.082L12.641 26.225L12.688 26.405L13 27.62L13.698 30.393L14.586 33.933L15.465 37.445L15.811 38.838"/>
 <path stroke-width="0.13" stroke-linejoin="round" stroke-miterlimit="10" d="M15.816 38.841L16.14 40.137L16.403 41.21"/>
 <g>
  <path stroke-width="0.13" stroke-linejoin="round" stroke-miterlimit="10" d="M1.907 17.297L9.426 18.509"/>
  <path stroke-width="0.13" stroke-linejoin="round" stroke-miterlimit="10" d="M9.881 19.8L13.375 21.393"/>
  <path stroke-width="0.13" stroke-linejoin="round" stroke-miterlimit="10" d="M13.367 21.393L17.617 42.036"/>
 </g>
 <g>
  <path stroke-width="0.13" stroke-linejoin="round" stroke-miterlimit="10" d="M13.522 22.686L9.798 20.792"/>
  <path stroke-width="0.13" stroke-linejoin="round" stroke-miterlimit="10" d="M9.798 20.792L9.798 20.265"/>
 </g>
 <path stroke-width="0.3" stroke-linejoin="round" stroke-miterlimit="10" d="M9.58 30.013L11.327 34.31"/>
 <path stroke-width="0.13" stroke-linejoin="round" stroke-miterlimit="10" d="M11.319 34.31L11.474 34.682"/>
 <path stroke-width="0.3" stroke-linejoin="round" stroke-miterlimit="10" d="M6.541 22.541L9.58 30.022"/>
 <g>
  <path stroke-width="0.3" stroke-linejoin="round" stroke-miterlimit="10" d="M11.474 34.682L10.945 40.07"/>
  <path stroke-width="0.3" stroke-linejoin="round" stroke-miterlimit="10" d="M11.474 34.228L15.797 38.86"/>
 </g>
 <g>
  <path stroke-width="0.13" stroke-linejoin="round" stroke-miterlimit="10" d="M16.407 41.209L17.234 44.276"/>
  <path stroke-width="0.13" stroke-linejoin="round" stroke-miterlimit="10" d="M17.234 44.267L16.525 45.149"/>
 </g>
 <path stroke-width="0.3" stroke-linejoin="round" stroke-miterlimit="10" d="M16.525 45.158L11.291 38.951"/>
 <g>
  <path stroke-width="0.13" stroke-linejoin="round" stroke-miterlimit="10" d="M16.972 43.911L11.474 37.43"/>
  <path stroke-width="0.13" stroke-linejoin="round" stroke-miterlimit="10" d="M17.617 42.045L22.996 66.457"/>
 </g>
 <path stroke-width="0.3" stroke-linejoin="round" stroke-miterlimit="10" d="M7.086 35.884L6.847 37.213L6.639 38.305L6.437 39.387L6.222 40.679L5.971 42.409L5.692 44.57L5.346 47.46L4.977 50.755L4.631 54.127L4.357 57.25L4.195 59.798L4.107 62.226L4.065 64.334L4.083 66.105L4.182 67.527L4.373 68.582L4.589 69.347L4.788 69.941L5.028 70.408L5.373 70.796L5.881 71.155L6.658 71.424L7.652 71.534L8.692 71.519L9.608 71.412L10.228 71.243L10.592 71.061L10.859 70.87L11.051 70.647L11.189 70.364L11.294 70.001L11.297 69.548L11.157 69.016L10.935 68.408L10.693 67.73L10.496 66.986L10.349 66.296L10.224 65.7L10.118 65.076L10.032 64.302L9.962 63.259L10 60.841L10.172 56.362L10.414 50.932L10.666 45.667L10.862 41.676L10.945 40.073"/>
 <path stroke-width="0.13" stroke-linejoin="round" stroke-miterlimit="10" d="M7.296 36.194L7.019 38.994L6.743 41.581L6.482 44.027L6.245 46.409L6.04 48.801L5.876 51.277L5.753 54.216L5.698 56.905L5.689 59.292L5.698 61.337L5.698 62.987L5.674 64.311L5.639 65.421L5.615 66.337L5.626 67.085L5.698 67.689L5.793 68.177L5.876 68.569L5.985 68.885L6.152 69.147L6.408 69.376L6.82 69.524L7.351 69.563L7.879 69.537L8.287 69.489L8.451 69.462"/>
 <g>
  <path stroke-width="0.3" stroke-linejoin="round" stroke-miterlimit="10" d="M20.585 35.21L21.416 38.456L22.228 41.491L22.998 44.366L23.71 47.131L24.341 49.832L24.87 52.521L25.367 55.695L25.734 58.64L25.975 61.195L26.099 63.201L26.112 64.498L26.07 65.256L26.01 65.813L25.919 66.268L25.78 66.713L25.58 67.248L25.318 67.862L25.018 68.457L24.698 68.993L24.376 69.432L24.071 69.733L23.794 69.906L23.533 70.001L23.286 70.046L23.053 70.066L22.829 70.087L22.621 70.114L22.437 70.129L22.277 70.131L22.14 70.117L22.032 70.087L21.951 70.052L21.896 70.016L21.853 69.971L21.814 69.909L21.765 69.822L21.346 67.938L20.367 63.359L19.114 57.442L17.87 51.534L16.914 46.988L16.532 45.158"/>
  <path stroke-width="0.3" stroke-linejoin="round" stroke-miterlimit="10" d="M6.458 35.283L7.032 35.875"/>
  <path stroke-width="0.3" stroke-linejoin="round" stroke-miterlimit="10" d="M10.135 29.722L9.798 29.859"/>
 </g>
 <text transform="matrix(0 -1 1 0 30.41 71.614)" stroke="none" fill="#000000" font-family="'Helvetica'" font-size="2.121">116 952</text>
</svg>
