<?xml version="1.0" encoding="utf-8"?>
<!DOCTYPE svg PUBLIC "-//W3C//DTD SVG 1.1//EN" "http://www.w3.org/Graphics/SVG/1.1/DTD/svg11.dtd">
<!-- Generator: PTC Arbortext IsoDraw 7.3 -->
<svg id="Standard_x0020_layer" width="100%" height="100%" viewBox="0 0 75.003 75.004"
 xmlns="http://www.w3.org/2000/svg" xmlns:xlink="http://www.w3.org/1999/xlink"
 fill-rule="evenodd" clip-rule="evenodd" stroke="#000000" stroke-linecap="round" fill="none" xml:space="preserve">
 <g>
  <path stroke="#FFFFFF" stroke-width="0.004" d="M75.001 75.001L75.001 0.002L0.002 0.002L0.002 75.001L75.001 75.001z"/>
 </g>
 <path stroke="none" fill="#CCCCCC" d="M42.456 58.246L42.155 58.246 42.133 58.198C42.133 58.198 41.887 58.045 41.78 58.045 41.673 58.045 41.719 58.228 41.642 58.244 41.564 58.259 41.457 58.244 41.35 58.228 41.243 58.213 41.226 58.045 41.088 58.045 40.951 58.045 40.796 58.06 40.673 58.121 40.551 58.182 40.414 58.244 40.262 58.244L40.313 59.679 42.539 59.679 42.54 59.634 42.456 58.246z"/>
 <g>
  <path stroke-width="0.25" stroke-linejoin="round" d="M6.735 55.225L6.775 54.695C7.288 54.695 7.923 54.695 8.656 54.695L8.656 55.143"/>
  <path stroke-width="0.25" stroke-linejoin="round" d="M10.564 55.225L10.593 54.695C11.108 54.695 11.742 54.695 12.474 54.695L12.474 55.143"/>
  <path stroke-width="0.25" stroke-linejoin="round" d="M16.294 55.143L16.294 54.695C15.561 54.695 14.926 54.695 14.413 54.695L14.393 55.225L12.464 55.225"/>
  <path stroke-width="0.25" stroke-linejoin="round" d="M20.114 55.143L20.114 54.695C19.379 54.695 18.745 54.695 18.231 54.695L18.222 55.225L16.306 55.225"/>
  <path stroke-width="0.25" stroke-linejoin="round" d="M23.932 55.143L23.932 54.695C23.199 54.695 22.565 54.695 22.05 54.695L22.05 55.225L20.115 55.225"/>
 </g>
 <path stroke-width="0.25" stroke-linejoin="round" d="M43.246 55.223C43.636 55.215 44.133 55.161 44.133 55.49C44.133 55.843 44.587 61.752 44.587 62.545C44.587 63.338 44.305 68.543 44.305 68.938C44.305 69.335 44.188 69.542 43.893 69.542L5.027 69.519C4.661 69.519 4.573 69.159 4.573 68.85C4.573 68.543 4.397 62.81 4.397 62.015C4.397 61.222 4.618 56.415 4.661 55.975C4.705 55.533 4.926 55.225 5.235 55.225C5.272 55.225 5.81 55.225 6.735 55.225"/>
 <path stroke-width="0.25" stroke-linejoin="round" d="M39.365 55.225C39.814 55.225 41.112 55.225 41.395 55.225"/>
 <path stroke-width="0.25" stroke-linejoin="round" d="M8.596 55.225C9.032 55.225 10.067 55.225 10.564 55.225"/>
 <path stroke-width="0.25" stroke-linejoin="round" d="M4.794 55.225C4.794 55.225 4.839 54.387 4.839 53.725C4.839 53.064 5.147 48.39 5.19 48.081C5.235 47.773 5.5 47.685 5.676 47.685C5.852 47.685 37.293 47.685 37.293 47.685"/>
 <path stroke-width="0.25" stroke-linejoin="round" d="M37.118 47.86C37.603 47.595 39.101 47.11 39.984 47.11C40.865 47.11 40.822 47.11 41.087 47.11C41.35 47.11 41.527 47.198 41.527 47.728C41.527 48.258 41.527 49.316 41.439 49.536"/>
 <path stroke-width="0.25" stroke-linejoin="round" d="M41.527 47.685L43.158 47.685C43.468 47.685 43.776 47.86 43.776 48.213C43.776 48.566 44.085 53.372 44.085 53.857C44.085 54.343 43.996 55.137 43.996 55.137"/>
 <path stroke-width="0.13" stroke-linejoin="round" d="M5.368 53.902L43.688 53.902"/>
 <path stroke-width="0.13" stroke-linejoin="round" d="M5.102 56.856L43.731 56.856"/>
 <path stroke-width="0.13" stroke-linejoin="round" d="M4.661 61.84L43.688 61.84"/>
 <path stroke-width="0.13" stroke-linejoin="round" d="M4.926 62.545L44.128 62.545"/>
 <path stroke-width="0.13" stroke-linejoin="round" d="M41.174 48.918C40.734 48.918 40.027 48.963 39.719 49.095C39.411 49.228 37.206 49.978 37.206 49.978"/>
 <path stroke-width="0.13" stroke-linejoin="round" d="M37.558 50.021C37.558 50.021 40.024 50.021 40.686 50.021C41.347 50.021 41.392 49.756 41.392 49.756"/>
 <path stroke-width="0.13" stroke-linejoin="round" d="M36.985 48.081L36.985 49.889"/>
 <g>
  <g>
   <path stroke-width="0.25" stroke-linejoin="round" d="M8.102 63.603L5.403 63.603"/>
   <path stroke-width="0.13" stroke-linejoin="round" d="M5.376 63.735L5.435 65.566L8.167 65.566L8.167 63.692"/>
   <path stroke-width="0.25" stroke-linejoin="round" d="M6.209 63.682L6.209 64.507L7.469 64.507L7.469 63.661"/>
   <path stroke-width="0.13" stroke-linejoin="round" d="M6.209 64.507L5.435 65.566"/>
   <path stroke-width="0.13" stroke-linejoin="round" d="M7.469 64.507L8.167 65.566"/>
  </g>
  <g>
   <path stroke-width="0.25" stroke-linejoin="round" d="M12.022 63.603L9.321 63.603"/>
   <path stroke-width="0.13" stroke-linejoin="round" d="M9.295 63.735L9.349 65.566L12.08 65.566L12.087 63.692"/>
   <path stroke-width="0.25" stroke-linejoin="round" d="M10.114 63.682L10.114 64.507L11.375 64.507L11.375 63.661"/>
   <path stroke-width="0.13" stroke-linejoin="round" d="M10.114 64.507L9.349 65.566"/>
   <path stroke-width="0.13" stroke-linejoin="round" d="M11.375 64.507L12.08 65.566"/>
  </g>
  <g>
   <path stroke-width="0.25" stroke-linejoin="round" d="M15.941 63.603L13.242 63.603"/>
   <path stroke-width="0.13" stroke-linejoin="round" d="M13.214 63.735L13.262 65.566L15.993 65.566L16.007 63.692"/>
   <path stroke-width="0.25" stroke-linejoin="round" d="M14.019 63.682L14.019 64.507L15.278 64.507L15.278 63.661"/>
   <path stroke-width="0.13" stroke-linejoin="round" d="M14.019 64.507L13.262 65.566"/>
   <path stroke-width="0.13" stroke-linejoin="round" d="M15.278 64.507L15.993 65.566"/>
  </g>
  <g>
   <path stroke-width="0.25" stroke-linejoin="round" d="M19.861 63.603L17.161 63.603"/>
   <path stroke-width="0.13" stroke-linejoin="round" d="M17.135 63.735L17.175 65.566L19.907 65.566L19.926 63.692"/>
   <path stroke-width="0.25" stroke-linejoin="round" d="M17.923 63.682L17.923 64.507L19.184 64.507L19.184 63.661"/>
   <path stroke-width="0.13" stroke-linejoin="round" d="M17.923 64.507L17.175 65.566"/>
   <path stroke-width="0.13" stroke-linejoin="round" d="M19.184 64.507L19.907 65.566"/>
  </g>
  <g>
   <path stroke-width="0.25" stroke-linejoin="round" d="M23.78 63.603L21.082 63.603"/>
   <path stroke-width="0.13" stroke-linejoin="round" d="M21.054 63.735L21.088 65.566L23.821 65.566L23.847 63.692"/>
   <path stroke-width="0.25" stroke-linejoin="round" d="M21.827 63.682L21.827 64.507L23.088 64.507L23.088 63.661"/>
   <path stroke-width="0.13" stroke-linejoin="round" d="M21.827 64.507L21.088 65.566"/>
   <path stroke-width="0.13" stroke-linejoin="round" d="M23.088 64.507L23.821 65.566"/>
  </g>
  <g>
   <path stroke-width="0.25" stroke-linejoin="round" d="M27.701 63.603L25.001 63.603"/>
   <path stroke-width="0.13" stroke-linejoin="round" d="M24.975 63.735L25.001 65.566L27.733 65.566L27.766 63.692"/>
   <path stroke-width="0.25" stroke-linejoin="round" d="M25.733 63.682L25.733 64.507L26.992 64.507L26.992 63.661"/>
   <path stroke-width="0.13" stroke-linejoin="round" d="M25.733 64.507L25.001 65.566"/>
   <path stroke-width="0.13" stroke-linejoin="round" d="M26.992 64.507L27.733 65.566"/>
  </g>
  <g>
   <path stroke-width="0.25" stroke-linejoin="round" d="M31.62 63.603L28.92 63.603"/>
   <path stroke-width="0.13" stroke-linejoin="round" d="M28.893 63.735L28.914 65.566L31.646 65.566L31.686 63.692"/>
   <path stroke-width="0.25" stroke-linejoin="round" d="M29.637 63.682L29.637 64.507L30.896 64.507L30.896 63.661"/>
   <path stroke-width="0.13" stroke-linejoin="round" d="M29.637 64.507L28.914 65.566"/>
   <path stroke-width="0.13" stroke-linejoin="round" d="M30.896 64.507L31.646 65.566"/>
  </g>
  <g>
   <path stroke-width="0.25" stroke-linejoin="round" d="M35.539 63.603L32.841 63.603"/>
   <path stroke-width="0.13" stroke-linejoin="round" d="M32.814 63.735L32.826 65.566L35.56 65.566L35.606 63.692"/>
   <path stroke-width="0.25" stroke-linejoin="round" d="M33.542 63.682L33.542 64.507L34.801 64.507L34.801 63.661"/>
   <path stroke-width="0.13" stroke-linejoin="round" d="M33.542 64.507L32.826 65.566"/>
   <path stroke-width="0.13" stroke-linejoin="round" d="M34.801 64.507L35.56 65.566"/>
  </g>
  <g>
   <path stroke-width="0.25" stroke-linejoin="round" d="M39.46 63.603L36.761 63.603"/>
   <path stroke-width="0.13" stroke-linejoin="round" d="M36.734 63.735L36.74 65.566L39.472 65.566L39.526 63.692"/>
   <path stroke-width="0.25" stroke-linejoin="round" d="M37.447 63.682L37.447 64.507L38.707 64.507L38.707 63.661"/>
   <path stroke-width="0.13" stroke-linejoin="round" d="M37.447 64.507L36.74 65.566"/>
   <path stroke-width="0.13" stroke-linejoin="round" d="M38.707 64.507L39.472 65.566"/>
  </g>
  <g>
   <path stroke-width="0.25" stroke-linejoin="round" d="M43.38 63.603L40.68 63.603"/>
   <path stroke-width="0.13" stroke-linejoin="round" d="M40.654 63.735L40.654 65.566L43.386 65.566L43.445 63.692"/>
   <path stroke-width="0.25" stroke-linejoin="round" d="M41.35 63.682L41.35 64.507L42.61 64.507L42.61 63.661"/>
   <path stroke-width="0.13" stroke-linejoin="round" d="M41.35 64.507L40.654 65.566"/>
   <path stroke-width="0.13" stroke-linejoin="round" d="M42.61 64.507L43.386 65.566"/>
  </g>
 </g>
 <g>
  <g>
   <path stroke-width="0.25" stroke-linejoin="round" d="M8.182 66.579L5.498 66.579"/>
   <path stroke-width="0.13" stroke-linejoin="round" d="M5.471 66.712L5.53 68.543L8.249 68.543L8.249 66.668"/>
   <path stroke-width="0.25" stroke-linejoin="round" d="M6.301 66.658L6.301 67.483L7.554 67.483L7.554 66.638"/>
   <path stroke-width="0.13" stroke-linejoin="round" d="M6.301 67.483L5.53 68.543"/>
   <path stroke-width="0.13" stroke-linejoin="round" d="M7.554 67.483L8.249 68.543"/>
  </g>
  <g>
   <path stroke-width="0.25" stroke-linejoin="round" d="M12.083 66.579L9.397 66.579"/>
   <path stroke-width="0.13" stroke-linejoin="round" d="M9.371 66.712L9.423 68.543L12.143 68.543L12.15 66.668"/>
   <path stroke-width="0.25" stroke-linejoin="round" d="M10.185 66.658L10.185 67.483L11.439 67.483L11.439 66.638"/>
   <path stroke-width="0.13" stroke-linejoin="round" d="M10.185 67.483L9.423 68.543"/>
   <path stroke-width="0.13" stroke-linejoin="round" d="M11.439 67.483L12.143 68.543"/>
  </g>
  <g>
   <path stroke-width="0.25" stroke-linejoin="round" d="M15.984 66.579L13.298 66.579"/>
   <path stroke-width="0.13" stroke-linejoin="round" d="M13.271 66.712L13.317 68.543L16.036 68.543L16.048 66.668"/>
   <path stroke-width="0.25" stroke-linejoin="round" d="M14.07 66.658L14.07 67.483L15.324 67.483L15.324 66.638"/>
   <path stroke-width="0.13" stroke-linejoin="round" d="M14.07 67.483L13.317 68.543"/>
   <path stroke-width="0.13" stroke-linejoin="round" d="M15.324 67.483L16.036 68.543"/>
  </g>
  <g>
   <path stroke-width="0.25" stroke-linejoin="round" d="M19.884 66.579L17.198 66.579"/>
   <path stroke-width="0.13" stroke-linejoin="round" d="M17.17 66.712L17.21 68.543L19.929 68.543L19.949 66.668"/>
   <path stroke-width="0.25" stroke-linejoin="round" d="M17.955 66.658L17.955 67.483L19.21 67.483L19.21 66.638"/>
   <path stroke-width="0.13" stroke-linejoin="round" d="M17.955 67.483L17.21 68.543"/>
   <path stroke-width="0.13" stroke-linejoin="round" d="M19.21 67.483L19.929 68.543"/>
  </g>
  <g>
   <path stroke-width="0.25" stroke-linejoin="round" d="M23.783 66.579L21.099 66.579"/>
   <path stroke-width="0.13" stroke-linejoin="round" d="M21.071 66.712L21.105 68.543L23.824 68.543L23.85 66.668"/>
   <path stroke-width="0.25" stroke-linejoin="round" d="M21.841 66.658L21.841 67.483L23.094 67.483L23.094 66.638"/>
   <path stroke-width="0.13" stroke-linejoin="round" d="M21.841 67.483L21.105 68.543"/>
   <path stroke-width="0.13" stroke-linejoin="round" d="M23.094 67.483L23.824 68.543"/>
  </g>
  <g>
   <path stroke-width="0.25" stroke-linejoin="round" d="M27.684 66.579L24.998 66.579"/>
   <path stroke-width="0.13" stroke-linejoin="round" d="M24.972 66.712L24.998 68.543L27.716 68.543L27.75 66.668"/>
   <path stroke-width="0.25" stroke-linejoin="round" d="M25.725 66.658L25.725 67.483L26.98 67.483L26.98 66.638"/>
   <path stroke-width="0.13" stroke-linejoin="round" d="M25.725 67.483L24.998 68.543"/>
   <path stroke-width="0.13" stroke-linejoin="round" d="M26.98 67.483L27.716 68.543"/>
  </g>
  <g>
   <path stroke-width="0.25" stroke-linejoin="round" d="M31.583 66.579L28.897 66.579"/>
   <path stroke-width="0.13" stroke-linejoin="round" d="M28.871 66.712L28.89 68.543L31.609 68.543L31.649 66.668"/>
   <path stroke-width="0.25" stroke-linejoin="round" d="M29.611 66.658L29.611 67.483L30.864 67.483L30.864 66.638"/>
   <path stroke-width="0.13" stroke-linejoin="round" d="M29.611 67.483L28.89 68.543"/>
   <path stroke-width="0.13" stroke-linejoin="round" d="M30.864 67.483L31.609 68.543"/>
  </g>
  <g>
   <path stroke-width="0.25" stroke-linejoin="round" d="M35.484 66.579L32.798 66.579"/>
   <path stroke-width="0.13" stroke-linejoin="round" d="M32.771 66.712L32.784 68.543L35.503 68.543L35.549 66.668"/>
   <path stroke-width="0.25" stroke-linejoin="round" d="M33.496 66.658L33.496 67.483L34.75 67.483L34.75 66.638"/>
   <path stroke-width="0.13" stroke-linejoin="round" d="M33.496 67.483L32.784 68.543"/>
   <path stroke-width="0.13" stroke-linejoin="round" d="M34.75 67.483L35.503 68.543"/>
  </g>
  <g>
   <path stroke-width="0.25" stroke-linejoin="round" d="M39.384 66.579L36.698 66.579"/>
   <path stroke-width="0.13" stroke-linejoin="round" d="M36.671 66.712L36.679 68.543L39.398 68.543L39.451 66.668"/>
   <path stroke-width="0.25" stroke-linejoin="round" d="M37.381 66.658L37.381 67.483L38.634 67.483L38.634 66.638"/>
   <path stroke-width="0.13" stroke-linejoin="round" d="M37.381 67.483L36.679 68.543"/>
   <path stroke-width="0.13" stroke-linejoin="round" d="M38.634 67.483L39.398 68.543"/>
  </g>
  <g>
   <path stroke-width="0.25" stroke-linejoin="round" d="M43.284 66.579L40.598 66.579"/>
   <path stroke-width="0.13" stroke-linejoin="round" d="M40.572 66.712L40.572 68.543L43.29 68.543L43.35 66.668"/>
   <path stroke-width="0.25" stroke-linejoin="round" d="M41.265 66.658L41.265 67.483L42.52 67.483L42.52 66.638"/>
   <path stroke-width="0.13" stroke-linejoin="round" d="M41.265 67.483L40.572 68.543"/>
   <path stroke-width="0.13" stroke-linejoin="round" d="M42.52 67.483L43.29 68.543"/>
  </g>
 </g>
 <path stroke-width="0.25" stroke-linejoin="round" d="M5.652 58.246L5.565 59.634"/>
 <g>
  <path stroke-width="0.25" stroke-linejoin="round" d="M7.794 59.679L5.323 59.679"/>
  <path stroke-width="0.25" stroke-linejoin="round" d="M11.682 59.679L9.211 59.679"/>
  <path stroke-width="0.25" stroke-linejoin="round" d="M15.568 59.679L13.099 59.679"/>
  <path stroke-width="0.25" stroke-linejoin="round" d="M19.457 59.679L16.986 59.679"/>
  <path stroke-width="0.25" stroke-linejoin="round" d="M23.344 59.679L20.875 59.679"/>
  <path stroke-width="0.25" stroke-linejoin="round" d="M27.233 59.679L24.762 59.679"/>
  <path stroke-width="0.25" stroke-linejoin="round" d="M31.12 59.679L28.649 59.679"/>
  <path stroke-width="0.25" stroke-linejoin="round" d="M35.008 59.679L32.537 59.679"/>
  <path stroke-width="0.25" stroke-linejoin="round" d="M38.896 59.679L36.424 59.679"/>
  <path stroke-width="0.25" stroke-linejoin="round" d="M40.313 59.679L42.783 59.679"/>
 </g>
 <g>
  <path stroke-width="0.13" stroke-linejoin="round" d="M5.28 59.546L5.434 57.098"/>
  <path stroke-width="0.131" stroke-linejoin="round" d="M9.297 57.101L9.172 59.561"/>
  <path stroke-width="0.131" stroke-linejoin="round" d="M13.16 57.103L13.064 59.576"/>
  <path stroke-width="0.131" stroke-linejoin="round" d="M17.024 57.106L16.957 59.591"/>
  <path stroke-width="0.201" stroke-linejoin="round" d="M20.887 57.109L20.85 59.604"/>
  <path stroke-width="0.201" stroke-linejoin="round" d="M24.75 57.112L24.742 59.619"/>
  <path stroke-width="0.21" stroke-linejoin="round" d="M28.614 57.113L28.635 59.634"/>
  <path stroke-width="0.224" stroke-linejoin="round" d="M32.476 57.116L32.527 59.649"/>
  <path stroke-width="0.237" stroke-linejoin="round" d="M36.34 57.118L36.42 59.664"/>
  <path stroke-width="0.25" stroke-linejoin="round" d="M40.204 57.121L40.313 59.679"/>
 </g>
 <path stroke-width="0.201" stroke-linejoin="round" d="M42.456 58.246L42.54 59.634"/>
 <g>
  <path stroke-width="0.25" stroke-linejoin="round" d="M7.793 58.246L5.652 58.246"/>
  <path stroke-width="0.201" stroke-linejoin="round" d="M11.644 58.246L11.304 58.246"/>
  <path stroke-width="0.201" stroke-linejoin="round" d="M15.496 58.246L15.169 58.246"/>
  <path stroke-width="0.201" stroke-linejoin="round" d="M19.347 58.246L19.021 58.246"/>
  <path stroke-width="0.201" stroke-linejoin="round" d="M23.199 58.246L22.928 58.246"/>
  <path stroke-width="0.201" stroke-linejoin="round" d="M27.05 58.246L26.714 58.246"/>
  <path stroke-width="0.201" stroke-linejoin="round" d="M30.9 58.246L30.588 58.246"/>
  <path stroke-width="0.201" stroke-linejoin="round" d="M34.753 58.246L34.46 58.246"/>
  <path stroke-width="0.201" stroke-linejoin="round" d="M38.603 58.246L38.296 58.246"/>
  <path stroke-width="0.201" stroke-linejoin="round" d="M42.155 58.246L42.456 58.246"/>
 </g>
 <g>
  <path stroke-width="0.25" stroke-linejoin="round" d="M7.903 57.121L7.794 59.679"/>
  <path stroke-width="0.25" stroke-linejoin="round" d="M11.766 57.118L11.686 59.664"/>
  <path stroke-width="0.25" stroke-linejoin="round" d="M15.63 57.116L15.579 59.649"/>
  <path stroke-width="0.25" stroke-linejoin="round" d="M19.492 57.113L19.472 59.634"/>
  <path stroke-width="0.201" stroke-linejoin="round" d="M23.356 57.112L23.364 59.619"/>
  <path stroke-width="0.201" stroke-linejoin="round" d="M27.219 57.109L27.257 59.604"/>
  <path stroke-width="0.131" stroke-linejoin="round" d="M31.082 57.106L31.149 59.591"/>
  <path stroke-width="0.131" stroke-linejoin="round" d="M34.947 57.103L35.042 59.576"/>
  <path stroke-width="0.131" stroke-linejoin="round" d="M38.81 57.101L38.935 59.561"/>
  <path stroke-width="0.131" stroke-linejoin="round" d="M42.828 59.546L42.673 57.098"/>
 </g>
 <g>
  <path stroke-width="0.201" stroke-linejoin="round" d="M9.503 58.246L9.426 59.585"/>
  <path stroke-width="0.201" stroke-linejoin="round" d="M13.353 58.246L13.301 59.585"/>
  <path stroke-width="0.201" stroke-linejoin="round" d="M17.205 58.246L17.175 59.585"/>
 </g>
 <g>
  <path stroke-width="0.201" stroke-linejoin="round" d="M38.603 58.246L38.679 59.585"/>
  <path stroke-width="0.201" stroke-linejoin="round" d="M34.753 58.246L34.805 59.585"/>
  <path stroke-width="0.201" stroke-linejoin="round" d="M30.9 58.246L30.931 59.585"/>
 </g>
 <g>
  <path stroke-width="0.25" stroke-linejoin="round" d="M43.246 55.225L43.207 54.695C42.692 54.695 42.058 54.695 41.326 54.695L41.326 55.143"/>
  <path stroke-width="0.25" stroke-linejoin="round" d="M39.365 55.225L39.337 54.695C38.822 54.695 38.188 54.695 37.454 54.695L37.454 55.143"/>
  <path stroke-width="0.25" stroke-linejoin="round" d="M33.585 55.143L33.585 54.695C34.317 54.695 34.951 54.695 35.466 54.695L35.484 55.225L37.418 55.225"/>
  <path stroke-width="0.25" stroke-linejoin="round" d="M29.713 55.143L29.713 54.695C30.446 54.695 31.08 54.695 31.596 54.695L31.603 55.225L33.584 55.225"/>
  <path stroke-width="0.25" stroke-linejoin="round" d="M25.844 55.143L25.844 54.695C26.576 54.695 27.21 54.695 27.725 54.695L27.722 55.225L29.693 55.225"/>
 </g>
 <path stroke-width="0.25" stroke-linejoin="round" d="M23.943 55.225L25.827 55.225"/>
 <path stroke-width="0.25" stroke-linejoin="round" d="M9.675 15.096C13.201 24.033 18.14 30.618 21.434 35.204C24.727 39.79 28.725 45.787 34.368 45.787C40.014 45.787 46.363 44.377 49.539 40.261C52.713 36.146 52.713 27.797 51.537 23.21C50.362 18.623 48.597 14.861 48.597 14.861"/>
 <path stroke-width="0.25" stroke-linejoin="round" d="M44.246 51.198C47.304 50.491 50.009 48.493 52.831 46.61C55.652 44.729 55.652 44.612 58.005 43.906C60.356 43.201 62.709 41.673 65.177 40.143C67.647 38.615 69.528 35.909 70.939 34.264"/>
 <path stroke-width="0.25" stroke-linejoin="round" d="M51.067 20.388C54.006 19.565 59.887 19.565 64.825 21.446"/>
 <path stroke-width="0.25" stroke-linejoin="round" d="M50.713 14.391C50.125 16.39 50.478 19.8 50.478 19.8"/>
 <path stroke-width="0.131" stroke-linejoin="round" d="M37.308 45.317C35.545 45.67 33.545 45.2 32.369 43.436C31.193 41.673 25.079 31.676 24.49 29.443C23.902 27.208 24.961 24.033 27.548 22.623C30.135 21.211 36.838 17.565 39.777 17.213C42.718 16.861 44.481 18.153 46.011 20.506C47.539 22.858 51.536 32.97 51.773 33.911C52.008 34.851 50.243 39.555 46.246 42.024C42.247 44.494 37.308 45.317 37.308 45.317z"/>
 <path stroke-width="0.25" stroke-linejoin="round" d="M41.253 45.125C41.887 46.17 42.341 47.531 42.341 47.531"/>
 <path stroke-width="0.25" stroke-linejoin="round" d="M39.347 45.533C39.845 46.261 40.118 47.031 40.118 47.031"/>
 <path stroke-width="0.25" stroke-linejoin="round" d="M38.71 45.625L39.801 46.941"/>
 <path stroke-width="0.25" stroke-linejoin="round" d="M36.078 45.942C36.759 46.941 37.439 47.531 37.439 47.531"/>
 <path stroke-width="0.25" stroke-linejoin="round" d="M33.036 45.851C33.582 46.941 34.036 47.576 34.036 47.576"/>
 <path stroke-width="0.25" stroke-linejoin="round" d="M35.579 45.851C35.942 46.624 36.668 47.485 36.668 47.485"/>
 <path stroke-width="0.25" stroke-linejoin="round" d="M31.585 45.398C32.128 46.261 33.173 47.213 33.536 47.531"/>
 <path stroke-width="0.25" stroke-linejoin="round" d="M30.268 44.899C30.632 46.215 30.995 47.531 30.995 47.531"/>
 <path stroke-width="0.25" stroke-linejoin="round" d="M27.454 42.765C27.635 44.445 28.089 46.941 28.317 47.576"/>
 <path stroke-width="0.25" stroke-linejoin="round" d="M27.862 45.851L27.727 47.531"/>
 <path stroke-width="0.25" stroke-linejoin="round" d="M26.047 41.448C25.684 43.628 25.411 45.533 25.503 47.576"/>
 <path stroke-width="0.25" stroke-linejoin="round" d="M25.184 40.359C23.914 41.811 23.141 43.128 22.643 45.034C22.143 46.941 21.826 47.485 21.826 47.485"/>
 <path stroke-width="0.25" stroke-linejoin="round" d="M25.548 44.899C25.094 46.079 24.821 47.576 24.821 47.576"/>
 <path stroke-width="0.25" stroke-linejoin="round" d="M23.46 38.317C22.37 39.996 21.009 42.085 20.419 43.854C19.829 45.625 19.375 47.167 19.147 47.576"/>
 <path stroke-width="0.25" stroke-linejoin="round" d="M22.734 37.363C21.417 39.225 20.146 41.676 19.239 44.127C18.33 46.578 17.649 47.576 17.649 47.576"/>
 <path stroke-width="0.25" stroke-linejoin="round" d="M20.146 44.353C19.239 45.216 18.693 45.942 18.239 46.578"/>
 <path stroke-width="0.25" stroke-linejoin="round" d="M21.417 35.411C20.51 36.865 19.556 37.863 18.739 39.634C17.922 41.404 16.878 44.171 16.242 45.353C15.608 46.533 14.836 47.621 14.836 47.621"/>
 <path stroke-width="0.25" stroke-linejoin="round" d="M19.646 37.817C18.195 38.18 15.561 40.133 14.744 41.676C13.928 43.219 12.974 46.804 12.249 47.667"/>
 <path stroke-width="0.25" stroke-linejoin="round" d="M18.013 41.313C16.879 42.085 16.198 43.128 15.743 44.716C15.289 46.305 14.744 47.395 14.744 47.395"/>
 <g>
  <path stroke-width="0.25" stroke-linejoin="round" d="M40.351 58.244C40.505 58.244 40.551 58.182 40.673 58.121C40.796 58.06 40.951 58.045 41.088 58.045C41.226 58.045 41.243 58.213 41.35 58.228C41.457 58.244 41.564 58.259 41.642 58.244C41.719 58.228 41.673 58.045 41.78 58.045C41.887 58.045 42.133 58.198 42.133 58.198"/>
  <path stroke-width="0.25" stroke-linejoin="round" d="M36.496 58.244C36.649 58.244 36.695 58.182 36.817 58.121C36.941 58.06 37.094 58.045 37.232 58.045C37.371 58.045 37.387 58.213 37.493 58.228C37.601 58.244 37.709 58.259 37.786 58.244C37.862 58.228 37.817 58.045 37.923 58.045C38.031 58.045 38.277 58.198 38.277 58.198"/>
  <path stroke-width="0.25" stroke-linejoin="round" d="M32.64 58.244C32.793 58.244 32.84 58.182 32.963 58.121C33.085 58.06 33.238 58.045 33.377 58.045C33.515 58.045 33.53 58.213 33.637 58.228C33.746 58.244 33.853 58.259 33.929 58.244C34.006 58.228 33.96 58.045 34.067 58.045C34.176 58.045 34.421 58.198 34.421 58.198"/>
  <path stroke-width="0.25" stroke-linejoin="round" d="M28.783 58.244C28.937 58.244 28.984 58.182 29.106 58.121C29.228 58.06 29.382 58.045 29.521 58.045C29.66 58.045 29.675 58.213 29.782 58.228C29.89 58.244 29.996 58.259 30.074 58.244C30.15 58.228 30.105 58.045 30.211 58.045C30.32 58.045 30.565 58.198 30.565 58.198"/>
  <path stroke-width="0.25" stroke-linejoin="round" d="M24.928 58.244C25.082 58.244 25.128 58.182 25.251 58.121C25.373 58.06 25.527 58.045 25.664 58.045C25.803 58.045 25.818 58.213 25.925 58.228C26.033 58.244 26.14 58.259 26.217 58.244C26.295 58.228 26.248 58.045 26.356 58.045C26.463 58.045 26.71 58.198 26.71 58.198"/>
  <path stroke-width="0.25" stroke-linejoin="round" d="M21.071 58.244C21.225 58.244 21.271 58.182 21.394 58.121C21.518 58.06 21.67 58.045 21.809 58.045C21.948 58.045 21.963 58.213 22.07 58.228C22.178 58.244 22.285 58.259 22.361 58.244C22.439 58.228 22.393 58.045 22.501 58.045C22.608 58.045 22.853 58.198 22.853 58.198"/>
  <path stroke-width="0.25" stroke-linejoin="round" d="M17.216 58.244C17.37 58.244 17.416 58.182 17.539 58.121C17.661 58.06 17.815 58.045 17.952 58.045C18.091 58.045 18.106 58.213 18.214 58.228C18.321 58.244 18.429 58.259 18.506 58.244C18.582 58.228 18.536 58.045 18.644 58.045C18.751 58.045 18.998 58.198 18.998 58.198"/>
  <path stroke-width="0.25" stroke-linejoin="round" d="M13.359 58.244C13.513 58.244 13.56 58.182 13.682 58.121C13.806 58.06 13.958 58.045 14.098 58.045C14.236 58.045 14.25 58.213 14.359 58.228C14.465 58.244 14.573 58.259 14.65 58.244C14.727 58.228 14.681 58.045 14.788 58.045C14.896 58.045 15.141 58.198 15.141 58.198"/>
  <path stroke-width="0.25" stroke-linejoin="round" d="M9.505 58.244C9.657 58.244 9.704 58.182 9.827 58.121C9.949 58.06 10.102 58.045 10.242 58.045C10.38 58.045 10.394 58.213 10.503 58.228C10.609 58.244 10.718 58.259 10.794 58.244C10.871 58.228 10.824 58.045 10.932 58.045C11.039 58.045 11.285 58.198 11.285 58.198"/>
 </g>
 <g>
  <path stroke-width="0.131" stroke-linejoin="round" d="M41.18 58.198C41.243 58.366 41.226 58.536 41.457 58.567"/>
  <path stroke-width="0.131" stroke-linejoin="round" d="M37.325 58.198C37.387 58.366 37.371 58.536 37.601 58.567"/>
  <path stroke-width="0.131" stroke-linejoin="round" d="M33.469 58.198C33.53 58.366 33.515 58.536 33.746 58.567"/>
  <path stroke-width="0.131" stroke-linejoin="round" d="M29.612 58.198C29.675 58.366 29.658 58.536 29.89 58.567"/>
  <path stroke-width="0.131" stroke-linejoin="round" d="M25.757 58.198C25.818 58.366 25.803 58.536 26.033 58.567"/>
  <path stroke-width="0.131" stroke-linejoin="round" d="M21.902 58.198C21.963 58.366 21.948 58.536 22.178 58.567"/>
  <path stroke-width="0.131" stroke-linejoin="round" d="M18.045 58.198C18.106 58.366 18.091 58.536 18.321 58.567"/>
  <path stroke-width="0.131" stroke-linejoin="round" d="M14.189 58.198C14.25 58.366 14.236 58.536 14.465 58.567"/>
  <path stroke-width="0.131" stroke-linejoin="round" d="M10.333 58.198C10.394 58.366 10.38 58.536 10.609 58.567"/>
 </g>
 <g>
  <path stroke-width="0.131" stroke-linejoin="round" d="M40.673 58.366C40.75 58.813 40.966 59.35 41.197 59.518"/>
  <path stroke-width="0.131" stroke-linejoin="round" d="M36.843 58.36C36.914 58.807 37.121 59.347 37.348 59.518"/>
  <path stroke-width="0.131" stroke-linejoin="round" d="M33.012 58.354C33.076 58.801 33.277 59.344 33.502 59.518"/>
  <path stroke-width="0.131" stroke-linejoin="round" d="M29.181 58.347C29.239 58.795 29.431 59.341 29.653 59.518"/>
  <path stroke-width="0.131" stroke-linejoin="round" d="M25.35 58.341C25.402 58.79 25.586 59.338 25.806 59.518"/>
  <path stroke-width="0.131" stroke-linejoin="round" d="M21.518 58.335C21.564 58.784 21.742 59.335 21.958 59.518"/>
  <path stroke-width="0.131" stroke-linejoin="round" d="M17.687 58.329C17.727 58.779 17.896 59.332 18.111 59.518"/>
  <path stroke-width="0.131" stroke-linejoin="round" d="M13.855 58.323C13.888 58.774 14.051 59.329 14.265 59.518"/>
  <path stroke-width="0.131" stroke-linejoin="round" d="M10.025 58.317C10.051 58.768 10.207 59.326 10.416 59.518"/>
 </g>
 <g>
  <path stroke-width="0.131" stroke-linejoin="round" d="M42.057 58.49C42.04 58.996 41.871 59.411 41.795 59.549"/>
  <path stroke-width="0.131" stroke-linejoin="round" d="M38.209 58.49C38.188 58.996 38.015 59.409 37.936 59.546"/>
  <path stroke-width="0.131" stroke-linejoin="round" d="M34.362 58.49C34.335 58.996 34.158 59.406 34.079 59.543"/>
  <path stroke-width="0.131" stroke-linejoin="round" d="M30.513 58.49C30.483 58.996 30.3 59.405 30.219 59.539"/>
  <path stroke-width="0.131" stroke-linejoin="round" d="M26.667 58.49C26.629 58.996 26.443 59.402 26.361 59.536"/>
  <path stroke-width="0.131" stroke-linejoin="round" d="M22.818 58.49C22.777 58.994 22.586 59.399 22.503 59.533"/>
  <path stroke-width="0.131" stroke-linejoin="round" d="M18.972 58.49C18.923 58.994 18.73 59.398 18.643 59.53"/>
  <path stroke-width="0.131" stroke-linejoin="round" d="M15.125 58.49C15.071 58.993 14.871 59.395 14.785 59.527"/>
  <path stroke-width="0.131" stroke-linejoin="round" d="M11.276 58.49C11.218 58.993 11.015 59.393 10.926 59.524"/>
 </g>
 <g>
  <g>
   <g>
    <path stroke="#FFFFFF" stroke-width="1.411" stroke-linejoin="round" d="M44.404 54.902L57.768 40.189"/>
    <path stroke="#FFFFFF" stroke-width="1.058" stroke-linejoin="round" d="M46.136 55.133L41.406 58.174L43.981 53.176L46.136 55.133z"/>
   </g>
   <g>
    <path stroke="#FFFFFF" stroke-width="1.411" stroke-linejoin="round" d="M44.404 54.902L57.768 40.189"/>
    <path stroke="#FFFFFF" stroke-width="1.058" stroke-linejoin="round" d="M46.136 55.133L41.406 58.174L43.981 53.176L46.136 55.133z"/>
   </g>
  </g>
  <g>
   <path stroke-width="0.501" stroke-linejoin="round" d="M44.404 54.902L57.768 40.189"/>
   <path stroke="none" fill="#000000" d="M46.136 55.133L41.406 58.174 43.981 53.176 46.136 55.133z"/>
  </g>
 </g>
 <g>
  <text transform="matrix(0 -1 1 0 67.652 69.525)" stroke="none" fill="#000000" font-family="'Arial'" font-size="2.117">131 713</text>
 </g>
</svg>
