<?xml version="1.0" encoding="utf-8"?>
<!DOCTYPE svg PUBLIC "-//W3C//DTD SVG 1.1//EN" "http://www.w3.org/Graphics/SVG/1.1/DTD/svg11.dtd">
<!-- Generator: PTC Arbortext IsoDraw 7.3 -->
<svg id="Standard_x0020_layer" width="100%" height="100%" viewBox="0 0 37.921 15.486"
 xmlns="http://www.w3.org/2000/svg" xmlns:xlink="http://www.w3.org/1999/xlink"
 fill-rule="evenodd" clip-rule="evenodd" stroke="#000000" stroke-linecap="round" fill="none" xml:space="preserve">
 <text transform="matrix(0 -1 1 0 37.216 15.486)" stroke="none" fill="#000000" font-family="'Helvetica'" font-size="1.058">142 007</text>
 <g>
  <path stroke-width="0.13" stroke-linejoin="round" stroke-miterlimit="10" d="M31.265 0.902L32.307 3.927"/>
  <g>
   <path stroke-width="0.13" stroke-linejoin="round" stroke-miterlimit="10" d="M32.307 3.927L32.375 4.128L33.274 3.819L32.073 0.334L31.175 0.643L31.266 0.907"/>
   <path stroke-width="0.13" stroke-linejoin="round" stroke-miterlimit="10" d="M31.254 0.914L23.983 3.418"/>
  </g>
  <g>
   <path stroke-width="0.13" stroke-linejoin="round" stroke-miterlimit="10" d="M23.983 3.418L25.021 6.435"/>
   <path stroke-width="0.13" stroke-linejoin="round" stroke-miterlimit="10" d="M32.292 3.931L31.254 0.914"/>
  </g>
  <path stroke-width="0.13" stroke-linejoin="round" stroke-miterlimit="10" d="M25.021 6.435L25.024 6.443L32.295 3.94L32.293 3.932"/>
  <path stroke-width="0.13" stroke-linejoin="round" stroke-miterlimit="10" d="M24.98 6.426L23.937 3.402"/>
  <g>
   <path stroke-width="0.13" stroke-linejoin="round" stroke-miterlimit="10" d="M23.94 3.408L23.838 3.113L22.94 3.423L24.14 6.908L25.039 6.599L24.981 6.432"/>
   <path stroke-width="0.13" stroke-linejoin="round" stroke-miterlimit="10" d="M32.515 1.558L36.831 0.072"/>
   <path stroke-width="0.13" stroke-linejoin="round" stroke-miterlimit="10" d="M32.871 2.523L37.06 1.08"/>
   <path stroke-width="0.13" stroke-linejoin="round" stroke-miterlimit="10" d="M37.06 1.08L37.317 1.822"/>
   <path stroke-width="0.13" stroke-linejoin="round" stroke-miterlimit="10" d="M37.314 1.815L37.57 0.843"/>
   <path stroke-width="0.13" stroke-linejoin="round" stroke-miterlimit="10" d="M37.581 0.821C37.6 0.714 37.591 0.604 37.554 0.501C37.451 0.201 37.145 0.02 36.832 0.074"/>
   <path stroke-width="0.13" stroke-linejoin="round" stroke-miterlimit="10" d="M23.458 4.692L8.368 9.887"/>
   <path stroke-width="0.13" stroke-linejoin="round" stroke-miterlimit="10" d="M23.724 5.641L8.743 10.798"/>
  </g>
  <path stroke-width="0.13" stroke-linejoin="round" stroke-miterlimit="10" d="M7.482 9.75L8.147 11.679"/>
  <path stroke-width="0.13" stroke-linejoin="round" stroke-miterlimit="10" d="M8.144 11.673L8.352 12.274L9.128 12.006L8.085 8.977L7.309 9.244L7.48 9.743"/>
  <path stroke-width="0.13" stroke-linejoin="round" stroke-miterlimit="10" d="M8.151 11.693L8.162 11.689L7.498 9.76L7.477 9.768"/>
  <path stroke-width="0.13" stroke-linejoin="round" stroke-miterlimit="10" d="M7.474 9.769L0.065 12.32L0.729 14.25L8.153 11.692"/>
 </g>
</svg>
