<?xml version="1.0" encoding="utf-8"?>
<!DOCTYPE svg PUBLIC "-//W3C//DTD SVG 1.1//EN" "http://www.w3.org/Graphics/SVG/1.1/DTD/svg11.dtd">
<!-- Generator: PTC Arbortext IsoDraw 7.3 M070 -->
<svg id="Standard_x0020_layer" width="100%" height="100%" viewBox="0 0 23.65 17.923"
 xmlns="http://www.w3.org/2000/svg" xmlns:xlink="http://www.w3.org/1999/xlink"
 xmlns:itedo="http://www.itedo.com/svgfilter/1.0" xmlns:extra="http://www.itedo.com/svgfilter/1.0/extra"
 xmlns:_DEFAULT_DTD_="http://www.itedo.com/svgfilter/1.0/DTD/_DEFAULT_DTD_"
 fill-rule="evenodd" clip-rule="evenodd" stroke="#000000" stroke-linecap="round" fill="none" xml:space="preserve">
 <g>
  <text transform="matrix(0 -1 1 0 22.945 17.923)" stroke="none" fill="#000000" font-family="'Helvetica'" font-size="1.058">142 053</text>
  <g>
   <g>
    <path stroke-width="0.13" stroke-linejoin="round" stroke-miterlimit="10" d="M8.374 7.99L14.006 7.227"/>
    <path stroke-width="0.13" stroke-linejoin="round" stroke-miterlimit="10" d="M17.725 9.201L21.112 11"/>
   </g>
   <g>
    <path stroke-width="0.13" stroke-linejoin="round" stroke-miterlimit="10" d="M14.006 7.227L17.725 9.201"/>
    <path stroke-width="0.13" stroke-linejoin="round" stroke-miterlimit="10" d="M21.112 10.996L13.083 12.087"/>
    <path stroke-width="0.13" stroke-linejoin="round" stroke-miterlimit="10" d="M9.73 10.369L12.31 12.147"/>
    <path stroke-width="0.13" stroke-linejoin="round" stroke-miterlimit="10" d="M13.131 12.147L12.417 12.255"/>
    <path stroke-width="0.13" stroke-linejoin="round" stroke-miterlimit="10" d="M12.423 12.255L12.423 17.721"/>
   </g>
   <g>
    <path stroke-width="0.13" stroke-linejoin="round" stroke-miterlimit="10" d="M12.423 17.725L21.117 16.466"/>
    <path stroke-width="0.13" stroke-linejoin="round" stroke-miterlimit="10" d="M21.112 16.466L21.112 11"/>
    <path stroke-width="0.13" stroke-linejoin="round" stroke-miterlimit="10" d="M12.423 17.725L7.389 13.406"/>
    <path stroke-width="0.13" stroke-linejoin="round" stroke-miterlimit="10" d="M7.389 13.406L7.389 10.914"/>
    <path stroke-width="0.13" stroke-linejoin="round" stroke-miterlimit="10" d="M14.063 7.064L18.657 0.065"/>
   </g>
   <path stroke-width="0.13" stroke-linejoin="round" stroke-miterlimit="10" d="M17.803 9.077L22.608 1.379"/>
   <g>
    <path stroke-width="0.13" stroke-linejoin="round" stroke-miterlimit="10" d="M18.652 0.065L22.646 1.486"/>
    <path stroke-width="0.13" stroke-linejoin="round" stroke-miterlimit="10" d="M22.646 1.486L23.192 1.867"/>
    <path stroke-width="0.13" stroke-linejoin="round" stroke-miterlimit="10" d="M23.192 1.867L18.545 9.468"/>
    <path stroke-width="0.13" stroke-linejoin="round" stroke-miterlimit="10" d="M12.808 12.795L20.753 11.718"/>
   </g>
   <g>
    <path stroke-width="0.13" stroke-linejoin="round" stroke-miterlimit="10" d="M20.753 11.714L20.753 15.852"/>
    <path stroke-width="0.13" stroke-linejoin="round" stroke-miterlimit="10" d="M20.753 15.858L12.878 16.995"/>
   </g>
   <path stroke-width="0.13" stroke-linejoin="round" stroke-miterlimit="10" d="M12.872 16.995L12.872 12.736"/>
   <path stroke-width="0.13" stroke-linejoin="round" stroke-miterlimit="10" d="M20.753 15.858L15.634 12.615"/>
   <g>
    <path stroke-width="0.13" stroke-linejoin="round" stroke-miterlimit="10" d="M9.695 10.297L2.998 2.89"/>
    <path stroke-width="0.13" stroke-linejoin="round" stroke-miterlimit="10" d="M2.998 2.89L0.597 1.237"/>
    <path stroke-width="0.13" stroke-linejoin="round" stroke-miterlimit="10" d="M0.597 1.237L0.065 1.778"/>
   </g>
   <g>
    <path stroke-width="0.13" stroke-linejoin="round" stroke-miterlimit="10" d="M0.065 1.778L2.581 3.512"/>
    <path stroke-width="0.13" stroke-linejoin="round" stroke-miterlimit="10" d="M2.585 3.512L3.061 2.95"/>
    <path stroke-width="0.13" stroke-linejoin="round" stroke-miterlimit="10" d="M2.585 3.512L9.635 11.314"/>
   </g>
   <path stroke-width="0.13" stroke-linejoin="round" stroke-miterlimit="10" d="M1.022 2.491L0.808 3.539"/>
   <g>
    <path stroke-width="0.13" stroke-linejoin="round" stroke-miterlimit="10" d="M0.808 3.539L1.306 3.882"/>
    <path stroke-width="0.13" stroke-linejoin="round" stroke-miterlimit="10" d="M1.306 3.882L1.524 2.822"/>
   </g>
   <g>
    <path stroke-width="0.13" stroke-linejoin="round" stroke-miterlimit="10" d="M0.808 3.539L8.227 11.753"/>
    <path stroke-width="0.13" stroke-linejoin="round" stroke-miterlimit="10" d="M8.227 11.753L8.57 12.048"/>
   </g>
   <g>
    <path stroke-width="0.13" stroke-linejoin="round" stroke-miterlimit="10" d="M8.57 12.048L8.57 10.576"/>
    <path stroke-width="0.13" stroke-linejoin="round" stroke-miterlimit="10" d="M1.524 2.822L8.583 10.541"/>
    <path stroke-width="0.13" stroke-linejoin="round" stroke-miterlimit="10" d="M8.583 10.545L9.662 11.288"/>
   </g>
   <path stroke-width="0.13" stroke-linejoin="round" stroke-miterlimit="10" d="M8.374 7.99L7.721 8.042"/>
   <path stroke-width="0.13" stroke-linejoin="round" stroke-miterlimit="10" d="M9.635 10.297L9.635 11.255"/>
   <path stroke-width="0.13" stroke-linejoin="round" stroke-miterlimit="10" d="M0.065 1.778L0.962 2.77"/>
   <path stroke-width="0.13" stroke-linejoin="round" stroke-miterlimit="10" d="M14.083 7.051L13.993 7.184"/>
  </g>
 </g>
</svg>
