<?xml version="1.0" encoding="utf-8"?>
<!DOCTYPE svg PUBLIC "-//W3C//DTD SVG 1.1//EN" "http://www.w3.org/Graphics/SVG/1.1/DTD/svg11.dtd">
<!-- Generator: PTC Arbortext IsoDraw 7.3 M070 -->
<svg id="Standard_x0020_layer" width="100%" height="100%" viewBox="0 0 34.85 8.154"
 xmlns="http://www.w3.org/2000/svg" xmlns:xlink="http://www.w3.org/1999/xlink"
 fill-rule="evenodd" clip-rule="evenodd" stroke="#000000" stroke-linecap="round" fill="none" xml:space="preserve">
 <g>
  <g>
   <g>
    <path stroke="none" fill="#CCCCCC" d="M31.865 1.847L32.277 1.823 32.526 3.395 32.204 3.407"/>
    <path stroke-width="0.13" d="M31.865 1.847L32.277 1.823L32.526 3.395L32.204 3.407"/>
   </g>
   <g>
    <path stroke="none" fill="#CCCCCC" d="M26.269 0.994L30.692 0.09C30.692 0.09 31.772 0.112 31.789 0.112 31.806 0.112 32.712 0.207 32.828 0.216 32.944 0.224 33.606 0.458 33.606 0.458L34.276 0.755 34.679 1.219 34.719 1.698 34.756 2.33 34.134 2.922 33.433 3.243C33.433 3.243 32.396 3.434 32.396 3.399 32.396 3.365 31.87 1.855 32.015 1.837 32.158 1.817 32.539 1.641 32.539 1.641L32.329 1.531 31.923 1.447 31.583 1.447 31.367 1.478 30.969 1.644 31.565 1.835 32.158 1.817 32.396 3.399 28.814 4.108 28.83 3.52"/>
   </g>
   <path stroke-width="0.13" stroke-linejoin="round" stroke-miterlimit="10" d="M7.849 4.833L7.357 4.318"/>
   <path stroke-width="0.13" stroke-linejoin="round" stroke-miterlimit="10" d="M7.674 3.911C7.674 3.911 10.256 3.398 14.281 2.562"/>
   <path stroke-width="0.13" stroke-linejoin="round" stroke-miterlimit="10" d="M15.755 2.974C20.131 2.144 30.692 0.09 30.692 0.09"/>
   <path stroke-width="0.13" stroke-linejoin="round" stroke-miterlimit="10" d="M9.066 6.068L9.46 6.474"/>
   <path stroke-width="0.13" stroke-linejoin="round" stroke-miterlimit="10" d="M10.429 6.62C10.681 6.562 13.525 5.963 16.911 5.248"/>
   <path stroke-width="0.13" stroke-linejoin="round" stroke-miterlimit="10" d="M18.353 5.698C23.521 4.61 33.649 2.546 33.649 2.546"/>
   <path stroke-width="0.13" stroke-linejoin="round" stroke-miterlimit="10" d="M8.739 6.317L9.358 6.929"/>
   <path stroke-width="0.13" stroke-linejoin="round" stroke-miterlimit="10" d="M10.378 7.174C10.624 7.123 13.537 6.517 16.981 5.801"/>
   <path stroke-width="0.13" stroke-linejoin="round" stroke-miterlimit="10" d="M18.554 6.225C23.657 5.163 33.581 3.149 33.581 3.149"/>
   <path stroke-width="0.13" stroke-linejoin="round" stroke-miterlimit="10" d="M7.762 5.379L7.373 5.008"/>
   <path stroke-width="0.13" stroke-linejoin="round" stroke-miterlimit="10" d="M7.334 4.844L7.334 4.185"/>
   <path stroke-width="0.13" stroke-linejoin="round" stroke-miterlimit="10" d="M32.709 1.316L32.686 1.286L32.618 1.229L32.53 1.177L32.423 1.132L32.301 1.094L32.167 1.064L32.024 1.044L31.875 1.034L31.722 1.034L31.574 1.044L31.429 1.064L31.295 1.092L31.172 1.129L31.065 1.175L30.975 1.225L30.907 1.282L30.859 1.343L30.844 1.383"/>
   <path stroke-width="0.13" stroke-linejoin="round" stroke-miterlimit="10" d="M30.844 1.381L30.835 1.407L30.835 1.471L30.858 1.534L30.903 1.595L30.972 1.652L31.059 1.704L31.166 1.749L31.288 1.786L31.422 1.815L31.565 1.835L31.714 1.846L31.865 1.847L32.015 1.837L32.158 1.817L32.293 1.789L32.417 1.75L32.524 1.706L32.613 1.655L32.682 1.597L32.729 1.538L32.755 1.475L32.755 1.411L32.731 1.347L32.707 1.318"/>
   <path stroke-width="0.13" stroke-linejoin="round" stroke-miterlimit="10" d="M30.969 1.644L31.027 1.601L31.097 1.564L31.178 1.531L31.269 1.502L31.367 1.478L31.474 1.459L31.583 1.447L31.696 1.441L31.811 1.441L31.923 1.447L32.033 1.459L32.139 1.478L32.237 1.502L32.329 1.531L32.409 1.564L32.481 1.601L32.539 1.641"/>
   <path stroke-width="0.13" stroke-linejoin="round" stroke-miterlimit="10" d="M34.756 1.5L34.728 1.306L34.637 1.114L34.485 0.93L34.276 0.755L34.011 0.595L33.697 0.451L33.338 0.327L32.944 0.224L32.52 0.146L32.075 0.092L31.615 0.065L31.152 0.065L30.692 0.09"/>
   <path stroke-width="0.13" stroke-linejoin="round" stroke-miterlimit="10" d="M33.649 2.546L33.97 2.403L34.243 2.246L34.46 2.072L34.621 1.89L34.719 1.698L34.756 1.503"/>
   <path stroke-width="0.13" stroke-linejoin="round" stroke-miterlimit="10" d="M33.581 3.149L34.134 2.922L34.533 2.642L34.756 2.33L34.786 2.004"/>
   <path stroke-width="0.13" stroke-linejoin="round" stroke-miterlimit="10" d="M34.784 2.004L34.74 1.431"/>
   <path stroke-width="0.13" stroke-linejoin="round" stroke-miterlimit="10" d="M7.897 4.825L7.995 4.81L8.082 4.788L8.164 4.772L8.253 4.767L8.356 4.788L8.477 4.841L8.605 4.921L8.727 5.02L8.833 5.133L8.91 5.248L8.948 5.365L8.955 5.48L8.948 5.591L8.939 5.694L8.946 5.783L8.97 5.865L8.999 5.939L9.026 6.001L9.048 6.043L9.058 6.059"/>
   <path stroke-width="0.13" stroke-linejoin="round" stroke-miterlimit="10" d="M7.767 5.376L7.857 5.368L7.939 5.357L8.018 5.349L8.095 5.347L8.173 5.357L8.247 5.373L8.313 5.392L8.371 5.416L8.422 5.453L8.468 5.504L8.496 5.57L8.503 5.644L8.5 5.727L8.503 5.815L8.522 5.91L8.567 6.014L8.628 6.125L8.689 6.225L8.74 6.301L8.763 6.334"/>
   <path stroke-width="0.13" stroke-linejoin="round" stroke-miterlimit="10" d="M8.243 4.77L9.359 4.511L10.512 4.235L11.614 3.972L12.577 3.746L13.313 3.586L13.733 3.517L13.98 3.503L14.173 3.496L14.33 3.507L14.465 3.541L14.599 3.609L14.724 3.713L14.823 3.838L14.896 3.972L14.943 4.104L14.967 4.217L14.974 4.309L14.97 4.384L14.948 4.45L14.907 4.516L14.837 4.586L14.484 4.698L13.666 4.9L12.576 5.153L11.399 5.418L10.323 5.657L9.541 5.828L9.239 5.892"/>
   <path stroke-width="0.13" stroke-linejoin="round" stroke-miterlimit="10" d="M8.141 5.455C8.141 5.455 4.543 6.16 3.9 6.29"/>
   <path stroke-width="0.13" stroke-linejoin="round" stroke-miterlimit="10" d="M8.763 6.453C8.763 6.453 5.137 7.267 4.264 7.44"/>
   <g>
    <path stroke-width="0.13" d="M4.275 7.429C4.413 7.391 4.453 7.097 4.365 6.774C4.277 6.45 4.094 6.216 3.958 6.253C3.898 6.269 3.855 6.336 3.835 6.431"/>
    <path stroke-width="0.13" d="M4.067 7.32C4.142 7.41 4.216 7.445 4.275 7.429"/>
   </g>
   <g>
    <path stroke-width="0.13" d="M0.401 8.086C0.505 8.06 0.537 7.839 0.473 7.594C0.41 7.347 0.274 7.171 0.17 7.198C0.066 7.224 0.034 7.445 0.098 7.69C0.161 7.937 0.297 8.114 0.401 8.086"/>
   </g>
   <line stroke-width="0.13" x1="0.401" y1="8.086" x2="4.232" y2="7.285"/>
   <line stroke-width="0.13" x1="0.17" y1="7.198" x2="4.001" y2="6.397"/>
   <path stroke-width="0.13" d="M7.719 3.91C7.309 4.019 7.309 4.208 7.357 4.318"/>
   <path stroke-width="0.13" d="M9.343 6.349C9.641 6.649 9.939 6.665 10.428 6.586"/>
   <path stroke-width="0.13" d="M9.358 6.929C9.657 7.227 9.955 7.243 10.442 7.165"/>
   <path stroke-width="0.13" d="M7.334 4.844C7.334 4.929 7.346 4.974 7.373 5.008"/>
   <path stroke-width="0.13" d="M16.911 5.248C17.37 5.112 17.611 5.836 18.353 5.698"/>
   <path stroke-width="0.13" d="M14.281 2.562C14.739 2.424 15.012 3.112 15.755 2.974"/>
   <path stroke-width="0.13" d="M16.981 5.801C17.44 5.663 17.812 6.362 18.554 6.225"/>
   <g>
    <path stroke-width="0.13" d="M0.358 8.025C0.438 8.005 0.463 7.833 0.414 7.644C0.365 7.455 0.26 7.317 0.18 7.339C0.158 7.344 0.14 7.362 0.127 7.386"/>
    <path stroke-width="0.13" d="M0.277 8C0.307 8.023 0.335 8.032 0.358 8.025"/>
   </g>
  </g>
  <text transform="matrix(0 -1 1 0 33.746 8.112)" stroke="none" fill="#000000" font-family="'Arial'" font-size="1.058">143 307</text>
 </g>
</svg>
