<?xml version="1.0" encoding="utf-8"?>
<!DOCTYPE svg PUBLIC "-//W3C//DTD SVG 1.1//EN" "http://www.w3.org/Graphics/SVG/1.1/DTD/svg11.dtd">
<!-- Generator: PTC Arbortext IsoDraw 7.3 -->
<svg id="Standard_x0020_layer" width="100%" height="100%" viewBox="0 0 34.667 12.455"
 xmlns="http://www.w3.org/2000/svg" xmlns:xlink="http://www.w3.org/1999/xlink"
 fill-rule="evenodd" clip-rule="evenodd" stroke="#000000" stroke-linecap="round" fill="none" xml:space="preserve">
 <g>
  <g>
   <g>
    <path stroke-width="0.13" stroke-linejoin="round" stroke-miterlimit="10" d="M11.239 9.247C10.871 9.247 10.573 9.592 10.573 10.015C10.573 10.438 10.871 10.782 11.239 10.782C11.605 10.782 11.903 10.438 11.903 10.015C11.903 9.592 11.605 9.247 11.239 9.247z"/>
    <path stroke-width="0.13" stroke-linejoin="round" stroke-miterlimit="10" d="M11.484 8.92C10.975 8.92 10.563 9.397 10.563 9.984C10.563 10.571 10.975 11.048 11.484 11.048C11.993 11.048 12.404 10.571 12.404 9.984C12.404 9.397 11.993 8.92 11.484 8.92z"/>
    <path stroke-width="0.13" stroke-linejoin="round" stroke-miterlimit="10" d="M5.387 6.78L5.331 6.775L5.274 6.782L5.217 6.799L5.166 6.825L5.117 6.86L5.073 6.905L5.038 6.955L5.009 7.012L4.987 7.075L4.976 7.139L4.972 7.206L4.979 7.272L4.993 7.336L5.017 7.397L5.048 7.451L5.086 7.501L5.131 7.543L5.181 7.575L5.235 7.599L5.291 7.612L5.347 7.615L5.405 7.609L5.461 7.591L5.512 7.562L5.561 7.527L5.602 7.482L5.639 7.429L5.668 7.371"/>
    <path stroke-width="0.13" stroke-linejoin="round" stroke-miterlimit="10" d="M5.596 3.786L5.543 3.762L5.485 3.746L5.427 3.742L5.37 3.75L5.314 3.766L5.261 3.794L5.211 3.831L5.168 3.875L5.131 3.927L5.104 3.987L5.083 4.049L5.072 4.115L5.07 4.182L5.076 4.248L5.092 4.314L5.117 4.375L5.15 4.429L5.19 4.479L5.235 4.519L5.286 4.551L5.341 4.573L5.4 4.586L5.458 4.586"/>
   </g>
   <g>
    <path stroke-width="0.13" stroke-linejoin="round" stroke-miterlimit="10" d="M4.695 6.988L4.727 6.839L4.778 6.698L4.849 6.567L4.936 6.451L5.038 6.352L5.152 6.274L5.275 6.216L5.405 6.182L5.538 6.174L5.671 6.185"/>
    <path stroke-width="0.13" stroke-linejoin="round" stroke-miterlimit="10" d="M4.695 6.988L0.203 7.334"/>
   </g>
   <g>
    <path stroke-width="0.13" stroke-linejoin="round" stroke-miterlimit="10" d="M0.203 7.339L0.065 8.63"/>
    <path stroke-width="0.13" stroke-linejoin="round" stroke-miterlimit="10" d="M0.065 8.625L5.216 11.131"/>
    <path stroke-width="0.13" stroke-linejoin="round" stroke-miterlimit="10" d="M5.216 11.134L8.002 11.622"/>
    <path stroke-width="0.13" stroke-linejoin="round" stroke-miterlimit="10" d="M8.002 11.618L8.733 11.515"/>
   </g>
   <g>
    <path stroke-width="0.13" stroke-linejoin="round" stroke-miterlimit="10" d="M9.359 7.548L8.869 7.514"/>
    <path stroke-width="0.13" stroke-linejoin="round" stroke-miterlimit="10" d="M8.869 7.511L5.806 6.57"/>
   </g>
   <path stroke-width="0.13" stroke-linejoin="round" stroke-miterlimit="10" d="M5.96 3.314L5.98 2.847"/>
   <path stroke-width="0.13" stroke-linejoin="round" stroke-miterlimit="10" d="M5.806 6.57L5.955 3.314"/>
   <g>
    <path stroke-width="0.13" stroke-linejoin="round" stroke-miterlimit="10" d="M5.913 3.265L5.113 3.265"/>
    <path stroke-width="0.13" stroke-linejoin="round" stroke-miterlimit="10" d="M5.113 3.265L0.378 5.631"/>
    <path stroke-width="0.13" stroke-linejoin="round" stroke-miterlimit="10" d="M0.378 5.631L0.307 6.817"/>
    <path stroke-width="0.13" stroke-linejoin="round" stroke-miterlimit="10" d="M0.307 6.817L0.549 7.269"/>
   </g>
   <g>
    <path stroke-width="0.13" stroke-linejoin="round" stroke-miterlimit="10" d="M0.341 6.713L5.145 6.328"/>
    <path stroke-width="0.13" stroke-linejoin="round" stroke-miterlimit="10" d="M0.378 5.631L5.078 5.142"/>
    <path stroke-width="0.13" stroke-linejoin="round" stroke-miterlimit="10" d="M5.075 5.142L5.075 6.049"/>
    <path stroke-width="0.13" stroke-linejoin="round" stroke-miterlimit="10" d="M0.098 8.208L4.695 7.927"/>
    <path stroke-width="0.13" stroke-linejoin="round" stroke-miterlimit="10" d="M4.695 7.927L4.695 7.269"/>
    <path stroke-width="0.13" stroke-linejoin="round" stroke-miterlimit="10" d="M0.933 6.328L0.933 5.878"/>
    <path stroke-width="0.13" stroke-linejoin="round" stroke-miterlimit="10" d="M0.933 5.873L1.28 5.873"/>
    <path stroke-width="0.13" stroke-linejoin="round" stroke-miterlimit="10" d="M1.91 7.927L2.224 7.894"/>
    <path stroke-width="0.13" stroke-linejoin="round" stroke-miterlimit="10" d="M2.224 7.894L2.224 7.443"/>
    <path stroke-width="0.13" stroke-linejoin="round" stroke-miterlimit="10" d="M0.725 8.032L1.038 7.998"/>
    <path stroke-width="0.13" stroke-linejoin="round" stroke-miterlimit="10" d="M1.038 7.998L1.038 7.548"/>
    <path stroke-width="0.13" stroke-linejoin="round" stroke-miterlimit="10" d="M3.092 7.86L3.405 7.828"/>
    <path stroke-width="0.13" stroke-linejoin="round" stroke-miterlimit="10" d="M3.405 7.823L3.405 7.373"/>
    <path stroke-width="0.13" stroke-linejoin="round" stroke-miterlimit="10" d="M4.173 7.756L4.485 7.724"/>
    <path stroke-width="0.13" stroke-linejoin="round" stroke-miterlimit="10" d="M4.485 7.719L4.485 7.269"/>
    <path stroke-width="0.13" stroke-linejoin="round" stroke-miterlimit="10" d="M1.768 6.153L1.768 5.703"/>
    <path stroke-width="0.13" stroke-linejoin="round" stroke-miterlimit="10" d="M1.768 5.703L2.115 5.703"/>
    <path stroke-width="0.13" stroke-linejoin="round" stroke-miterlimit="10" d="M2.812 6.016L2.812 5.564"/>
    <path stroke-width="0.13" stroke-linejoin="round" stroke-miterlimit="10" d="M2.812 5.561L3.158 5.561"/>
    <path stroke-width="0.13" stroke-linejoin="round" stroke-miterlimit="10" d="M3.927 5.911L3.927 5.461"/>
    <path stroke-width="0.13" stroke-linejoin="round" stroke-miterlimit="10" d="M3.927 5.456L4.274 5.456"/>
   </g>
   <g>
    <path stroke-width="0.13" stroke-linejoin="round" stroke-miterlimit="10" d="M5.98 2.847L6.48 2.69L6.937 2.536L7.371 2.395L7.799 2.274L8.243 2.185L8.669 2.133L9.042 2.115L9.381 2.117L9.699 2.133L10.019 2.15L10.305 2.162L10.537 2.173L10.742 2.193L10.954 2.228L11.202 2.29L11.474 2.387L11.733 2.511L11.975 2.641L12.205 2.759L12.422 2.847L12.605 2.9L12.753 2.934L12.884 2.953L13.022 2.968L13.188 2.987L13.352 3.007L13.493 3.023L13.634 3.032L13.803 3.033L14.023 3.02L14.407 2.966L14.955 2.859L15.522 2.741L15.967 2.644L16.146 2.601"/>
    <path stroke-width="0.13" stroke-linejoin="round" stroke-miterlimit="10" d="M9.814 11.618L9.683 11.621L9.566 11.625L9.454 11.628L9.34 11.627L9.221 11.618L9.102 11.612L8.993 11.611L8.894 11.602L8.808 11.573L8.734 11.515L8.686 11.428L8.686 11.419"/>
    <path stroke-width="0.13" stroke-linejoin="round" stroke-miterlimit="10" d="M11.821 6.746L11.903 6.745L12.38 6.746L12.797 6.759L13.05 6.778L13.169 6.796L13.262 6.81L13.335 6.828L13.4 6.86L13.468 6.918L13.532 7.019L13.58 7.153L13.615 7.291L13.634 7.397L13.644 7.44"/>
   </g>
   <path stroke-width="0.13" stroke-linejoin="round" stroke-miterlimit="10" d="M8.682 11.419L8.669 11.323L8.673 11.195L8.686 11.041L8.696 10.852L8.701 10.564L8.712 10.16L8.74 9.699L8.789 9.247L8.871 8.868L8.964 8.583L9.055 8.361L9.16 8.172L9.291 7.99L9.462 7.788L9.676 7.578L9.916 7.389L10.159 7.225L10.385 7.091L10.577 6.987L10.712 6.916L10.811 6.868L10.901 6.833L11.01 6.807L11.167 6.778L11.464 6.753L11.818 6.746"/>
   <path stroke-width="0.13" stroke-linejoin="round" stroke-miterlimit="10" d="M13.643 7.443L13.477 7.403L13.34 7.362L13.205 7.325L13.048 7.293L12.842 7.269L12.579 7.243L12.272 7.216L11.936 7.211L11.576 7.245L11.205 7.339L10.826 7.512L10.451 7.746L10.108 8.009L9.829 8.268L9.638 8.487L9.534 8.65L9.477 8.778L9.448 8.901L9.428 9.05L9.394 9.253L9.352 9.621L9.313 10.15L9.282 10.701L9.262 11.132L9.255 11.308"/>
   <path stroke-width="0.13" stroke-linejoin="round" stroke-miterlimit="10" d="M10.336 9.042L10.272 9.08L10.214 9.108L10.16 9.135L10.108 9.179L10.057 9.252L10.003 9.547L9.948 10.125L9.903 10.794L9.877 11.368L9.881 11.602"/>
   <path stroke-width="0.13" stroke-linejoin="round" stroke-miterlimit="10" d="M9.881 11.606L9.881 11.657L9.903 11.724L9.926 11.769L9.954 11.804L9.994 11.833L10.055 11.865L10.368 11.901L11.016 11.936L11.788 11.961L12.468 11.974L12.84 11.971L12.962 11.961L13.045 11.957L13.112 11.945L13.188 11.919L13.294 11.865L13.676 11.532L14.403 10.835L15.227 10.028L15.903 9.359L16.182 9.08"/>
   <path stroke-width="0.13" stroke-linejoin="round" stroke-miterlimit="10" d="M15.785 8.804L15.8 8.801L16.001 8.775L16.19 8.771L16.347 8.781L16.455 8.794L16.498 8.803"/>
   <path stroke-width="0.13" stroke-linejoin="round" stroke-miterlimit="10" d="M14.932 9.085L15.025 9.037L15.317 8.925L15.577 8.85L15.787 8.804"/>
   <path stroke-width="0.13" stroke-linejoin="round" stroke-miterlimit="10" d="M10.022 11.723L10.573 11.718L11.132 11.715L11.641 11.714L12.045 11.705L12.285 11.688L12.4 11.67L12.478 11.66L12.541 11.644L12.609 11.609L12.702 11.548L12.894 11.32L13.208 10.871L13.593 10.326L14 9.803L14.374 9.425L14.71 9.196L14.935 9.08"/>
   <path stroke-width="0.13" stroke-linejoin="round" stroke-miterlimit="10" d="M11.83 6.676L11.824 6.594L11.814 6.519L11.804 6.447L11.807 6.383L11.83 6.326L11.867 6.288L11.909 6.267L11.961 6.256L12.025 6.245L12.108 6.222L12.666 6.08L13.938 5.759L15.561 5.352L17.172 4.948L17.811 4.79"/>
   <path stroke-width="0.13" stroke-linejoin="round" stroke-miterlimit="10" d="M17.814 4.788L18.408 4.639L18.899 4.519"/>
   <g>
    <path stroke-width="0.13" stroke-linejoin="round" stroke-miterlimit="10" d="M7.931 11.167L8.486 7.719"/>
    <path stroke-width="0.13" stroke-linejoin="round" stroke-miterlimit="10" d="M9.079 7.511L9.81 5.907"/>
    <path stroke-width="0.13" stroke-linejoin="round" stroke-miterlimit="10" d="M9.81 5.911L19.278 3.961"/>
   </g>
   <g>
    <path stroke-width="0.13" stroke-linejoin="round" stroke-miterlimit="10" d="M10.403 5.841L9.534 7.548"/>
    <path stroke-width="0.13" stroke-linejoin="round" stroke-miterlimit="10" d="M9.534 7.548L9.291 7.548"/>
   </g>
   <path stroke-width="0.13" stroke-linejoin="round" stroke-miterlimit="10" d="M13.763 7.647L15.734 6.846"/>
   <path stroke-width="0.13" stroke-linejoin="round" stroke-miterlimit="10" d="M15.734 6.851L15.906 6.78"/>
   <path stroke-width="0.13" stroke-linejoin="round" stroke-miterlimit="10" d="M10.336 9.042L13.768 7.647"/>
   <g>
    <path stroke-width="0.13" stroke-linejoin="round" stroke-miterlimit="10" d="M15.906 6.78L18.376 7.022"/>
    <path stroke-width="0.13" stroke-linejoin="round" stroke-miterlimit="10" d="M15.696 6.78L17.821 4.796"/>
   </g>
   <g>
    <path stroke-width="0.13" stroke-linejoin="round" stroke-miterlimit="10" d="M18.899 4.517L20.306 4.137"/>
    <path stroke-width="0.13" stroke-linejoin="round" stroke-miterlimit="10" d="M20.301 4.137L20.707 4.463"/>
   </g>
   <path stroke-width="0.13" stroke-linejoin="round" stroke-miterlimit="10" d="M20.71 4.463L17.864 6.863"/>
   <g>
    <path stroke-width="0.13" stroke-linejoin="round" stroke-miterlimit="10" d="M20.138 4.258L17.166 6.78"/>
    <path stroke-width="0.13" stroke-linejoin="round" stroke-miterlimit="10" d="M19.283 3.961L30.481 1.494"/>
   </g>
   <path stroke-width="0.13" stroke-linejoin="round" stroke-miterlimit="10" d="M16.457 8.791L17.067 8.901L17.568 8.997L18.064 9.089L18.657 9.189L19.449 9.304L20.44 9.432L21.766 9.59L23.277 9.759L24.824 9.917L26.257 10.044L27.426 10.118L28.541 10.159L29.507 10.178L30.32 10.169L30.972 10.125L31.455 10.037L31.806 9.938L32.079 9.846L32.292 9.736L32.472 9.577L32.636 9.345L32.759 8.989L32.81 8.532L32.802 8.055L32.753 7.636L32.676 7.351L32.593 7.184L32.505 7.062L32.402 6.974L32.274 6.91L32.106 6.862L31.899 6.86L31.653 6.926L31.376 7.027L31.065 7.137L30.722 7.229L30.407 7.296L30.134 7.352L29.847 7.402L29.492 7.44L29.013 7.472L27.905 7.456L25.85 7.376L23.359 7.266L20.943 7.15L19.112 7.059L18.378 7.022"/>
   <path stroke-width="0.13" stroke-linejoin="round" stroke-miterlimit="10" d="M16.599 8.695L17.882 8.823L19.07 8.949L20.192 9.069L21.285 9.179L22.382 9.272L23.516 9.348L24.865 9.403L26.099 9.429L27.195 9.433L28.132 9.429L28.89 9.429L29.496 9.439L30.004 9.457L30.425 9.468L30.768 9.461L31.047 9.429L31.269 9.385L31.449 9.346L31.594 9.297L31.714 9.221L31.82 9.103L31.888 8.914L31.905 8.67L31.893 8.428L31.871 8.242L31.859 8.166"/>
   <g>
    <path stroke-width="0.13" stroke-linejoin="round" stroke-miterlimit="10" d="M16.147 2.601L17.635 2.22L19.028 1.847L20.347 1.492L21.615 1.167L22.855 0.877L24.088 0.635L25.544 0.407L26.894 0.239L28.067 0.128L28.986 0.071L29.582 0.065L29.929 0.085L30.185 0.112L30.393 0.154L30.599 0.217L30.844 0.309L31.126 0.429L31.397 0.567L31.643 0.714L31.844 0.862L31.984 1L32.063 1.129L32.106 1.248L32.127 1.361L32.136 1.468L32.146 1.571L32.158 1.665L32.164 1.75L32.165 1.825L32.159 1.887L32.146 1.937L32.13 1.974L32.112 1.999L32.093 2.017L32.064 2.036L32.024 2.059L31.16 2.251L29.059 2.7L26.346 3.274L23.635 3.846L21.55 4.285L20.71 4.459"/>
    <path stroke-width="0.13" stroke-linejoin="round" stroke-miterlimit="10" d="M16.181 9.08L16.452 8.817"/>
    <path stroke-width="0.13" stroke-linejoin="round" stroke-miterlimit="10" d="M13.63 7.394L13.692 7.548"/>
   </g>
  </g>
  <text transform="matrix(0 -1 1 0 33.962 12.455)" stroke="none" fill="#000000" font-family="'Helvetica'" font-size="1.058">143 315</text>
 </g>
</svg>
