<?xml version="1.0" encoding="utf-8"?>
<!DOCTYPE svg PUBLIC "-//W3C//DTD SVG 1.1//EN" "http://www.w3.org/Graphics/SVG/1.1/DTD/svg11.dtd">
<!-- Generator: PTC Arbortext IsoDraw 7.3 -->
<svg id="Standard_x0020_layer" width="100%" height="100%" viewBox="0 0 75 71.891"
 xmlns="http://www.w3.org/2000/svg" xmlns:xlink="http://www.w3.org/1999/xlink"
 fill-rule="evenodd" clip-rule="evenodd" stroke="#000000" stroke-linecap="round" fill="none" xml:space="preserve">
 <path stroke="none" fill="#FFFFFF" d="M75 71.891L0 71.891 0 0 75 0 75 71.891z"/>
 <text transform="matrix(0 -1 1 0 73.188 69.938)" stroke="none" fill="#000000" font-family="'Arial'" font-size="2.081">144 484</text>
 <path stroke-width="0.349" stroke-linejoin="round" d="M57.518 33.542C57.518 33.542 72.481 35.482 73.159 35.659C73.834 35.835 73.688 36.277 73.688 36.658C73.688 37.042 73.569 37.57 73.159 37.688C72.746 37.805 71.013 38.335 71.013 38.335C71.013 38.335 70.777 42.656 70.777 43.392C70.777 44.127 70.777 44.802 70.188 45.36C69.6 45.92 67.602 46.831 67.602 46.831C67.602 46.831 67.719 47.741 67.661 49.006C67.602 50.271 66.897 52.122 66.897 52.122C66.897 52.122 66.337 59.502 66.25 60.118C66.162 60.737 65.75 61.088 65.545 61.176C65.338 61.265 52.99 63.853 52.99 63.853C52.874 64.852 52.874 64.852 52.874 64.852C50.433 65.411 50.433 65.411 50.433 65.411C49.051 64.647 49.051 64.647 49.051 64.647C35.116 67.674 35.116 67.674 35.116 67.674C35.116 68.085 35.116 68.085 35.116 68.085C34.529 69.29 34.529 69.29 34.529 69.29C33.618 69.527 33.618 69.527 33.618 69.527C33.618 70.114 33.618 70.114 33.618 70.114C32.735 70.349 32.735 70.349 32.735 70.349C22.064 62.442 22.064 62.442 22.064 62.442C22.064 62.442 21.594 62.03 21.477 61.853C21.359 61.676 20.182 59.442 20.182 59.442C20.182 59.442 20.1 56.582 19.995 52.945C19.856 48.034 19.856 48.034 19.856 48.034C19.721 43.223 19.594 38.579 19.594 37.953C19.594 36.6 20.711 36.042 21.506 35.954C22.3 35.865 34.411 35.159 34.881 35.159C35.353 35.159 36.527 35.424 36.527 35.424C41.878 35.1 41.878 35.1 41.878 35.1C41.878 35.1 42.085 34.659 42.526 34.631C42.966 34.601 56.018 33.591 56.018 33.591C56.841 33.539 57.518 33.542 57.518 33.542L57.518 33.542z"/>
 <path stroke-width="0.131" stroke-linejoin="round" d="M36.527 35.424C36.527 35.424 23.623 36.305 22.329 36.365C21.036 36.423 20.623 37.718 20.623 38.54C20.623 39.363 20.977 59.737 20.977 59.737C22.388 62 22.388 62 22.388 62C22.388 62 22.652 61.648 22.858 61.472C23.064 61.295 23.71 61.148 24.064 61.088"/>
 <line stroke-width="0.131" stroke-linejoin="round" x1="22.623" y1="61.795" x2="30.678" y2="67.703"/>
 <path stroke-width="0.131" stroke-linejoin="round" d="M59.429 36.395C54.049 35.6 54.049 35.6 54.049 35.6C54.049 35.6 54.049 34.984 53.725 34.659C53.402 34.337 52.491 34.366 52.109 34.396C51.726 34.424 41.878 35.1 41.878 35.1"/>
 <path stroke-width="0.25" stroke-linejoin="round" d="M54.049 35.6C23.417 37.865 23.417 37.865 23.417 37.865C23.417 37.865 23.239 37.893 23.239 38.04C23.239 38.188 23.181 38.835 23.181 38.835C23.181 38.835 23.652 38.951 23.652 39.128C23.652 39.304 24.21 61.235 24.21 61.235C29.972 65.176 29.972 65.176 29.972 65.176"/>
 <line stroke-width="0.131" stroke-linejoin="round" x1="26.062" y1="62.411" x2="25.916" y2="57.914"/>
 <path stroke-width="0.131" stroke-linejoin="round" d="M28.003 63.853C27.885 59.295 27.885 59.295 27.885 59.295C26.885 58.354 26.885 58.354 26.885 58.354C26.679 53.152 26.679 53.152 26.679 53.152C27.768 51.857 27.768 51.857 27.768 51.857C27.768 51.857 27.679 39.451 27.679 39.276C27.679 39.098 27.914 38.893 28.326 38.863C28.737 38.835 35.999 38.218 35.999 38.218"/>
 <path stroke-width="0.131" stroke-linejoin="round" d="M56.753 36.042C56.753 36.042 25.416 38.365 25.239 38.393C25.062 38.423 25.004 38.658 25.004 38.658C25.004 39.423 25.004 39.423 25.004 39.423C25.15 39.54 25.15 39.54 25.15 39.54C26.062 39.834 26.062 39.834 26.062 39.834C26.474 39.834 26.474 39.834 26.474 39.834"/>
 <line stroke-width="0.131" stroke-linejoin="round" x1="25.562" y1="39.716" x2="25.885" y2="52.798"/>
 <path stroke-width="0.131" stroke-linejoin="round" d="M25.533 50.947C24.652 51.887 24.652 51.887 24.652 51.887C24.652 51.887 24.504 52.182 24.504 52.387C24.504 52.593 24.621 57.061 24.621 57.061C24.681 57.209 24.681 57.209 24.681 57.209C25.768 58.06 25.768 58.06 25.768 58.06"/>
 <path stroke-width="0.131" stroke-linejoin="round" d="M26.914 51.594C26.033 52.533 26.033 52.533 26.033 52.533C26.033 52.533 25.885 52.829 25.885 53.033C25.885 53.24 26.004 57.709 26.004 57.709C26.062 57.856 26.062 57.856 26.062 57.856C27.149 58.707 27.149 58.707 27.149 58.707"/>
 <path stroke-width="0.131" stroke-linejoin="round" d="M28.562 52.27C27.562 53.357 27.562 53.357 27.562 53.357C27.562 53.357 27.414 53.652 27.414 53.857C27.414 54.063 27.532 58.531 27.532 58.531C27.591 58.679 27.591 58.679 27.591 58.679C28.678 59.53 28.678 59.53 28.678 59.53"/>
 <line stroke-width="0.131" stroke-linejoin="round" x1="28.562" y1="52.27" x2="26.914" y2="51.594"/>
 <line stroke-width="0.131" stroke-linejoin="round" x1="28.562" y1="52.27" x2="28.591" y2="59.502"/>
 <line stroke-width="0.131" stroke-linejoin="round" x1="25.268" y1="37.865" x2="26.385" y2="38.246"/>
 <line stroke-width="0.131" stroke-linejoin="round" x1="28.737" y1="37.6" x2="29.855" y2="37.981"/>
 <line stroke-width="0.131" stroke-linejoin="round" x1="32.383" y1="37.393" x2="33.5" y2="37.777"/>
 <line stroke-width="0.131" stroke-linejoin="round" x1="35.823" y1="37.1" x2="36.939" y2="37.482"/>
 <line stroke-width="0.131" stroke-linejoin="round" x1="39.35" y1="36.747" x2="40.468" y2="37.13"/>
 <line stroke-width="0.131" stroke-linejoin="round" x1="42.731" y1="36.57" x2="43.847" y2="36.953"/>
 <line stroke-width="0.131" stroke-linejoin="round" x1="45.729" y1="36.335" x2="46.847" y2="36.718"/>
 <line stroke-width="0.131" stroke-linejoin="round" x1="48.786" y1="36.159" x2="49.904" y2="36.542"/>
 <line stroke-width="0.131" stroke-linejoin="round" x1="51.463" y1="35.895" x2="52.579" y2="36.277"/>
 <g>
  <path stroke-width="0.131" stroke-linejoin="round" d="M32.5 43.597C49.61 41.628 49.61 41.628 49.61 41.628C49.61 41.628 49.64 39.834 49.668 39.393C49.683 39.173 49.625 39.011 49.511 38.905"/>
  <path stroke-width="0.25" stroke-linejoin="round" d="M49.511 38.905C49.398 38.798 49.228 38.746 49.023 38.746C48.61 38.746 34.146 40.186 33.793 40.216C33.442 40.246 32.53 40.834 32.5 41.686C32.472 42.539 32.5 43.597 32.5 43.597"/>
 </g>
 <polyline stroke-width="0.131" stroke-linejoin="round" points="32.588 42.979 34.411 42.744 35.529 42.304 47.67 41.098 47.758 39.128"/>
 <line stroke-width="0.131" stroke-linejoin="round" x1="47.67" y1="41.098" x2="49.61" y2="41.628"/>
 <line stroke-width="0.131" stroke-linejoin="round" x1="34.411" y1="42.744" x2="34.47" y2="40.393"/>
 <line stroke-width="0.131" stroke-linejoin="round" x1="35.529" y1="42.216" x2="35.616" y2="40.304"/>
 <g>
  <polyline stroke-width="0.131" stroke-linejoin="round" points="36.469 49.124 38.85 48.771 39.027 45.137"/>
  <polyline stroke-width="0.25" stroke-linejoin="round" points="39.027 45.137 36.646 45.378 36.469 49.124"/>
 </g>
 <polyline stroke-width="0.131" stroke-linejoin="round" points="38.262 45.332 38.145 48.43 36.587 48.654"/>
 <g>
  <polyline stroke-width="0.131" stroke-linejoin="round" points="34.881 44.243 34.353 68.527 32.883 68.849 32.235 67.909"/>
  <polyline stroke-width="0.25" stroke-linejoin="round" points="32.235 67.909 32.707 44.537 34.881 44.243"/>
 </g>
 <polyline stroke-width="0.131" stroke-linejoin="round" points="33.883 44.478 33.383 67.879 34.353 68.527"/>
 <line stroke-width="0.131" stroke-linejoin="round" x1="33.383" y1="67.879" x2="32.47" y2="68.027"/>
 <line stroke-width="0.25" stroke-linejoin="round" x1="35.793" y1="50.314" x2="44.878" y2="48.816"/>
 <path stroke-width="0.131" stroke-linejoin="round" d="M48.448 42.862C48.448 42.862 47.39 44.317 47.082 46.523C46.774 48.726 46.729 52.872 46.729 53.18C46.729 53.49 46.817 53.755 47.082 53.843C47.347 53.93 48.228 54.283 48.67 54.415C49.11 54.548 49.64 54.591 49.64 54.591C49.64 54.591 54.094 53.975 55.283 53.665C56.475 53.357 57.886 52.255 58.679 51.329C59.473 50.402 60.222 49.124 61.369 48.771C62.515 48.418 66.441 47.14 67.676 46.655"/>
 <path stroke-width="0.131" stroke-linejoin="round" d="M71.07 38.231C71.07 38.231 68.911 38.938 68.028 38.805"/>
 <path stroke-width="0.131" stroke-linejoin="round" d="M47.832 48.639C47.832 48.639 49.155 49.344 50.081 49.432C51.006 49.521 51.756 49.389 51.756 49.389"/>
 <path stroke-width="0.131" stroke-linejoin="round" d="M49.198 43.435C49.42 44.052 49.948 44.935 50.963 45.597"/>
 <g>
  <path stroke-width="0.131" stroke-linejoin="round" d="M54.42 50.387C55.463 50.856 56.884 49.956 57.595 48.375C58.305 46.796 58.036 45.137 56.993 44.667"/>
  <path stroke-width="0.25" stroke-linejoin="round" d="M56.993 44.667C55.951 44.198 54.529 45.098 53.819 46.677C53.109 48.258 53.378 49.917 54.42 50.387"/>
 </g>
 <path stroke-width="0.25" stroke-linejoin="round" d="M55.99 44.737C56.646 44.99 56.646 44.99 56.646 44.99C57.704 45.465 58.066 46.954 57.454 48.313C56.843 49.671 55.49 50.389 54.432 49.912C53.939 49.719 53.939 49.719 53.939 49.719"/>
 <path stroke-width="0.131" stroke-linejoin="round" d="M56.057 48.78C56.183 48.799 56.337 48.787 56.518 48.726C57.246 48.484 57.246 47.625 57.246 47.47C57.246 47.316 57.246 45.926 57.246 45.75C57.246 45.573 57.115 45.265 56.805 45.067"/>
 <path stroke-width="0.25" stroke-linejoin="round" d="M55.02 45.287C55.283 45.353 55.527 45.618 55.527 46.213C55.527 46.808 55.527 47.779 55.527 48.109C55.527 48.357 55.676 48.718 56.057 48.78"/>
 <path stroke-width="0.131" stroke-linejoin="round" d="M67.808 37.085C68.469 37.262 69.703 37.085 70.585 36.908C71.468 36.732 73.099 36.247 73.099 36.247"/>
 <line stroke-width="0.131" stroke-linejoin="round" x1="56.371" y1="35.719" x2="57.783" y2="35.277"/>
 <path stroke-width="0.25" stroke-linejoin="round" d="M59.223 36.247C59.164 35.277 59.164 35.277 59.164 35.277C58.871 35.131 58.871 35.131 58.871 35.131C58.871 34.954 58.871 34.954 58.871 34.954C58.871 34.954 58.929 34.454 59.223 34.249C59.518 34.042 59.753 34.101 59.959 34.101C60.164 34.101 61.545 34.396 61.811 34.454C62.075 34.512 62.28 34.719 62.28 35.042C62.28 35.365 62.28 36.072 62.28 36.072"/>
 <line stroke-width="0.131" stroke-linejoin="round" x1="59.018" y1="35.159" x2="61.252" y2="35.542"/>
 <path stroke-width="0.131" stroke-linejoin="round" d="M65.984 36.365C66.015 36.189 66.132 36.012 66.308 35.954C66.484 35.895 67.926 35.454 67.926 35.454"/>
 <path stroke="none" fill="#000000" d="M53.067 63.719C53.067 63.683 53.039 63.654 53.003 63.654 52.966 63.654 52.938 63.683 52.938 63.719 52.938 63.756 52.966 63.784 53.003 63.784 53.039 63.784 53.067 63.756 53.067 63.719 53.067 63.719 53.067 63.719 53.067 63.719L53.067 63.719z"/>
 <path stroke-width="0.131" stroke-linejoin="round" d="M51.081 64.736C52.482 64.397 52.482 64.397 52.482 64.397C52.482 64.397 52.595 62.543 52.595 62.34C52.595 62.137 52.551 61.661 52.551 61.661C51.624 57.569 51.624 57.569 51.624 57.569C52.097 57.523 52.097 57.523 52.097 57.523"/>
 <polyline stroke-width="0.131" stroke-linejoin="round" points="49.18 64.602 49.566 57.929 50.154 57.84"/>
 <path stroke-width="0.25" stroke-linejoin="round" d="M52.097 57.523C52.097 57.523 52.979 61.277 53.048 61.548C53.115 61.82 53.093 62.137 53.093 62.34C53.093 62.543 53.003 63.719 53.003 63.719"/>
 <path stroke-width="0.25" stroke-linejoin="round" d="M50.154 57.84C50.154 57.84 50.99 61.639 51.034 61.956C51.081 62.271 51.081 62.543 51.081 62.543C51.081 64.736 51.081 64.736 51.081 64.736"/>
 <path stroke-width="0.131" stroke-linejoin="round" d="M49.61 57.929C49.61 57.929 50.448 61.729 50.493 62.045C50.537 62.362 50.537 62.634 50.537 62.634C50.493 65.234 50.493 65.234 50.493 65.234"/>
 <polyline stroke-width="0.131" stroke-linejoin="round" points="51.624 57.658 51.42 63.606 52.438 64.284"/>
 <path stroke="none" fill="#FFFFFF" d="M12.516 47.145C12.516 47.145 16.541 45.402 18.103 44.802 19.664 44.201 23.51 43.24 23.51 43.24 23.51 49.487 23.51 49.487 23.51 49.487 23.51 49.487 21.468 50.268 20.146 50.57 18.824 50.869 14.319 51.53 13.237 51.89 12.156 52.252 12.516 47.145 12.516 47.145L12.516 47.145z"/>
 <path stroke-width="0.349" stroke-linejoin="round" d="M23.556 43.912C22.695 44.076 20.606 44.479 20.085 44.621C19.425 44.802 12.455 47.805 10.534 48.286C9.458 48.555 4.671 49.88 0.667 50.993"/>
 <path stroke-width="0.349" stroke-linejoin="round" d="M23.75 48.768C23.75 48.768 22.548 49.427 21.707 49.668C20.867 49.908 14.558 51.11 12.215 51.71C10.833 52.066 5.051 53.802 0.549 55.165"/>
 <path stroke-width="0.131" stroke-linejoin="round" d="M23.576 44.689C23.003 44.853 21.862 45.213 20.996 45.677C19.792 46.323 11.148 50.674 11.237 51.115C11.324 51.557 21.291 49.734 21.291 49.734"/>
 <path stroke="none" fill="#FFFFFF" d="M62.487 22.67C62.487 22.67 62.148 27.844 61.957 29.835 61.768 31.829 60.868 36.238 60.868 36.238 58.935 36.396 58.935 36.396 58.935 36.396 56.128 35.762 56.128 35.762 56.128 35.762 56.128 35.762 56.38 32.758 56.7 31.112 57.018 29.469 58.386 23.939 58.56 22.571 58.734 21.202 62.487 22.67 62.487 22.67L62.487 22.67z"/>
 <path stroke-width="0.349" stroke-linejoin="round" d="M60.439 36.24C60.698 35.051 61.173 32.844 61.271 32.247C61.408 31.419 62.008 22.463 62.439 20.064C62.847 17.786 65.37 2.123 65.626 0.537"/>
 <path stroke-width="0.349" stroke-linejoin="round" d="M56.579 35.795C56.579 35.795 56.573 34.222 56.74 33.167C56.905 32.11 58.607 24.312 59.121 21.385C59.567 18.852 61.664 4.41 62.222 0.559"/>
 <path stroke-width="0.131" stroke-linejoin="round" d="M59.786 36.31C59.901 35.563 60.082 34.204 60.087 33.125C60.093 31.55 60.357 20.315 59.984 20.332C59.609 20.349 56.862 32.654 56.862 32.654"/>
 <path stroke="#FFFFFF" stroke-width="2.822" stroke-linecap="butt" d="M27.268 37.777C27.268 32.86 26.15 20.379 24.681 16.292"/>
 <path stroke-width="0.131" stroke-linejoin="round" d="M23.678 16.611C25.114 20.606 26.21 33.064 26.21 37.777"/>
 <path stroke-width="0.131" stroke-linejoin="round" d="M28.326 37.777C28.326 32.829 27.21 20.219 25.684 15.974"/>
 <path stroke="#FFFFFF" stroke-width="2.822" stroke-linecap="butt" d="M31.03 37.665C31.03 32.75 29.914 20.268 28.443 16.182"/>
 <path stroke-width="0.131" stroke-linejoin="round" d="M27.44 16.501C28.878 20.495 29.972 32.954 29.972 37.665"/>
 <path stroke-width="0.131" stroke-linejoin="round" d="M32.088 37.665C32.088 32.718 30.972 20.109 29.446 15.864"/>
 <path stroke="#FFFFFF" stroke-width="2.822" stroke-linecap="butt" d="M34.441 37.5C34.441 32.585 33.323 20.103 31.853 16.016"/>
 <path stroke-width="0.131" stroke-linejoin="round" d="M30.85 16.335C32.287 20.33 33.383 32.789 33.383 37.5"/>
 <path stroke-width="0.131" stroke-linejoin="round" d="M35.499 37.5C35.499 32.552 34.383 19.943 32.856 15.698"/>
 <path stroke="#FFFFFF" stroke-width="2.822" stroke-linecap="butt" d="M37.969 37.168C37.969 32.253 36.851 19.771 35.381 15.686"/>
 <path stroke-width="0.131" stroke-linejoin="round" d="M34.378 16.004C35.816 19.998 36.911 32.457 36.911 37.168"/>
 <path stroke-width="0.131" stroke-linejoin="round" d="M39.027 37.168C39.027 32.22 37.911 19.611 36.384 15.367"/>
 <path stroke="#FFFFFF" stroke-width="2.822" stroke-linecap="butt" d="M41.496 37.003C41.496 32.088 40.378 19.606 38.909 15.519"/>
 <path stroke-width="0.131" stroke-linejoin="round" d="M37.906 15.837C39.344 19.833 40.438 32.292 40.438 37.003"/>
 <path stroke-width="0.131" stroke-linejoin="round" d="M42.554 37.003C42.554 32.055 41.439 19.446 39.911 15.201"/>
 <path stroke="#FFFFFF" stroke-width="2.822" stroke-linecap="butt" d="M44.906 36.783C44.906 31.867 43.789 19.385 42.32 15.298"/>
 <path stroke-width="0.131" stroke-linejoin="round" d="M41.317 15.617C42.753 19.612 43.848 32.07 43.848 36.783"/>
 <path stroke-width="0.131" stroke-linejoin="round" d="M45.965 36.783C45.965 31.835 44.848 19.225 43.323 14.98"/>
 <path stroke="#FFFFFF" stroke-width="2.822" stroke-linecap="butt" d="M47.905 36.506C47.905 31.591 46.787 19.109 45.319 15.022"/>
 <path stroke-width="0.131" stroke-linejoin="round" d="M44.316 15.34C45.753 19.335 46.847 31.795 46.847 36.506"/>
 <path stroke-width="0.131" stroke-linejoin="round" d="M48.963 36.506C48.963 31.559 47.847 18.949 46.32 14.705"/>
 <path stroke="#FFFFFF" stroke-width="2.822" stroke-linecap="butt" d="M50.609 36.396C50.609 31.481 49.493 18.998 48.023 14.912"/>
 <path stroke-width="0.131" stroke-linejoin="round" d="M47.02 15.23C48.457 19.225 49.551 31.684 49.551 36.396"/>
 <path stroke-width="0.131" stroke-linejoin="round" d="M51.668 36.396C51.668 31.448 50.551 18.838 49.026 14.593"/>
 <path stroke="#FFFFFF" stroke-width="2.822" stroke-linecap="butt" d="M53.314 35.954C53.314 31.039 52.198 18.557 50.728 14.471"/>
 <path stroke-width="0.131" stroke-linejoin="round" d="M49.725 14.788C51.161 18.783 52.256 31.242 52.256 35.954"/>
 <path stroke-width="0.131" stroke-linejoin="round" d="M54.372 35.954C54.372 31.007 53.256 18.397 51.729 14.151"/>
 <path stroke="#FFFFFF" stroke-width="2.822" stroke-linecap="butt" d="M30.089 38.718C30.089 33.484 28.972 20.196 27.503 15.846"/>
 <path stroke-width="0.131" stroke-linejoin="round" d="M26.501 16.184C27.937 20.437 29.032 33.701 29.032 38.718"/>
 <path stroke-width="0.131" stroke-linejoin="round" d="M31.149 38.718C31.149 33.45 30.033 20.025 28.506 15.506"/>
 <path stroke="#FFFFFF" stroke-width="2.822" stroke-linecap="butt" d="M33.853 38.6C33.853 33.366 32.735 20.079 31.265 15.727"/>
 <path stroke-width="0.131" stroke-linejoin="round" d="M30.263 16.067C31.701 20.321 32.795 33.584 32.795 38.6"/>
 <path stroke-width="0.131" stroke-linejoin="round" d="M34.911 38.6C34.911 33.332 33.795 19.908 32.268 15.388"/>
 <path stroke="#FFFFFF" stroke-width="2.822" stroke-linecap="butt" d="M37.262 38.423C37.262 33.191 36.146 19.902 34.676 15.551"/>
 <path stroke-width="0.131" stroke-linejoin="round" d="M33.673 15.89C35.11 20.143 36.204 33.406 36.204 38.423"/>
 <path stroke-width="0.131" stroke-linejoin="round" d="M38.322 38.423C38.322 33.155 37.206 19.731 35.679 15.212"/>
 <path stroke="#FFFFFF" stroke-width="2.822" stroke-linecap="butt" d="M40.79 38.07C40.79 32.838 39.673 19.55 38.204 15.198"/>
 <path stroke-width="0.131" stroke-linejoin="round" d="M37.201 15.538C38.637 19.791 39.732 33.054 39.732 38.07"/>
 <path stroke-width="0.131" stroke-linejoin="round" d="M41.848 38.07C41.848 32.802 40.732 19.379 39.207 14.859"/>
 <path stroke="#FFFFFF" stroke-width="2.822" stroke-linecap="butt" d="M44.319 37.893C44.319 32.661 43.201 19.373 41.731 15.022"/>
 <path stroke-width="0.131" stroke-linejoin="round" d="M40.728 15.361C42.165 19.614 43.261 32.878 43.261 37.893"/>
 <path stroke-width="0.131" stroke-linejoin="round" d="M45.377 37.893C45.377 32.627 44.261 19.202 42.734 14.683"/>
 <path stroke="#FFFFFF" stroke-width="2.822" stroke-linecap="butt" d="M47.728 37.658C47.728 32.426 46.612 19.138 45.142 14.787"/>
 <path stroke-width="0.131" stroke-linejoin="round" d="M44.139 15.125C45.576 19.379 46.67 32.643 46.67 37.658"/>
 <path stroke-width="0.131" stroke-linejoin="round" d="M48.787 37.658C48.787 32.392 47.671 18.968 46.145 14.448"/>
 <path stroke="#FFFFFF" stroke-width="2.822" stroke-linecap="butt" d="M50.728 37.365C50.728 32.131 49.61 18.844 48.14 14.493"/>
 <path stroke-width="0.131" stroke-linejoin="round" d="M47.137 14.832C48.575 19.085 49.668 32.348 49.668 37.365"/>
 <path stroke-width="0.131" stroke-linejoin="round" d="M51.786 37.365C51.786 32.097 50.67 18.673 49.143 14.154"/>
 <path stroke="#FFFFFF" stroke-width="2.822" stroke-linecap="butt" d="M53.432 37.247C53.432 32.015 52.314 18.727 50.844 14.375"/>
 <path stroke-width="0.131" stroke-linejoin="round" d="M49.843 14.714C51.28 18.968 52.374 32.231 52.374 37.247"/>
 <path stroke-width="0.131" stroke-linejoin="round" d="M54.49 37.247C54.49 31.98 53.375 18.556 51.847 14.037"/>
 <path stroke="#FFFFFF" stroke-width="2.822" stroke-linecap="butt" d="M56.137 36.777C56.137 31.544 55.02 18.256 53.549 13.904"/>
 <path stroke-width="0.131" stroke-linejoin="round" d="M52.546 14.243C53.984 18.498 55.079 31.76 55.079 36.777"/>
 <path stroke-width="0.131" stroke-linejoin="round" d="M57.195 36.777C57.195 31.51 56.079 18.085 54.552 13.567"/>
 <path stroke="#FFFFFF" stroke-width="2.822" stroke-linecap="butt" d="M31.559 39.188C31.559 33.536 30.443 19.184 28.972 14.484"/>
 <path stroke-width="0.131" stroke-linejoin="round" d="M27.969 14.85C29.408 19.445 30.501 33.77 30.501 39.188"/>
 <path stroke-width="0.131" stroke-linejoin="round" d="M32.615 38.57C32.54 32.512 31.449 18.832 29.975 14.118"/>
 <path stroke="#FFFFFF" stroke-width="2.822" stroke-linecap="butt" d="M35.323 39.06C35.323 33.408 34.206 19.057 32.735 14.358"/>
 <path stroke-width="0.131" stroke-linejoin="round" d="M31.733 14.724C33.107 19.118 34.168 32.418 34.259 38.307"/>
 <path stroke-width="0.131" stroke-linejoin="round" d="M36.369 37.954C36.246 31.678 35.173 18.582 33.738 13.992"/>
 <path stroke="#FFFFFF" stroke-width="2.822" stroke-linecap="butt" d="M38.732 38.869C38.732 33.218 37.615 18.867 36.146 14.167"/>
 <path stroke-width="0.131" stroke-linejoin="round" d="M35.143 14.532C36.491 18.846 37.539 31.731 37.662 37.776"/>
 <path stroke-width="0.131" stroke-linejoin="round" d="M39.777 37.658C39.645 31.344 38.576 18.367 37.149 13.801"/>
 <path stroke="#FFFFFF" stroke-width="2.822" stroke-linecap="butt" d="M42.261 38.488C42.261 32.837 41.143 18.486 39.673 13.787"/>
 <path stroke-width="0.131" stroke-linejoin="round" d="M38.67 14.151C40.03 18.5 41.084 31.561 41.192 37.542"/>
 <path stroke-width="0.131" stroke-linejoin="round" d="M43.307 37.423C43.189 31.164 42.115 18.021 40.676 13.42"/>
 <path stroke="#FFFFFF" stroke-width="2.822" stroke-linecap="butt" d="M45.789 38.298C45.789 32.646 44.671 18.295 43.201 13.596"/>
 <path stroke-width="0.131" stroke-linejoin="round" d="M42.198 13.961C43.552 18.291 44.603 31.26 44.719 37.274"/>
 <path stroke-width="0.131" stroke-linejoin="round" d="M46.832 37.1C46.701 30.789 45.633 17.798 44.204 13.23"/>
 <path stroke="#FFFFFF" stroke-width="2.822" stroke-linecap="butt" d="M49.198 38.045C49.198 32.393 48.082 18.041 46.612 13.342"/>
 <path stroke-width="0.131" stroke-linejoin="round" d="M45.609 13.708C46.963 18.035 48.012 30.992 48.13 37.012"/>
 <path stroke-width="0.131" stroke-linejoin="round" d="M50.244 36.895C50.118 30.602 49.046 17.556 47.615 12.975"/>
 <path stroke="#FFFFFF" stroke-width="2.822" stroke-linecap="butt" d="M52.198 37.726C52.198 32.075 51.079 17.724 49.61 13.025"/>
 <path stroke-width="0.131" stroke-linejoin="round" d="M48.607 13.39C49.965 17.73 51.017 30.754 51.13 36.749"/>
 <path stroke-width="0.131" stroke-linejoin="round" d="M53.243 36.628C53.121 30.355 52.049 17.251 50.612 12.659"/>
 <path stroke="#FFFFFF" stroke-width="2.822" stroke-linecap="butt" d="M54.902 37.6C54.902 31.948 53.784 17.597 52.314 12.897"/>
 <path stroke-width="0.131" stroke-linejoin="round" d="M51.311 13.262C52.664 17.583 53.712 30.512 53.832 36.542"/>
 <path stroke-width="0.131" stroke-linejoin="round" d="M55.945 36.365C55.811 30.042 54.743 17.091 53.317 12.532"/>
 <path stroke="#FFFFFF" stroke-width="2.822" stroke-linecap="butt" d="M57.606 37.091C57.606 31.44 56.49 17.088 55.02 12.39"/>
 <path stroke-width="0.131" stroke-linejoin="round" d="M54.017 12.755C55.393 17.157 56.456 30.49 56.542 36.365"/>
 <path stroke-width="0.131" stroke-linejoin="round" d="M58.658 36.247C58.561 30.082 57.478 16.678 56.021 12.023"/>
 <path stroke-width="0.25" stroke-linejoin="round" d="M31.707 68.998C30.149 66.409 30.149 66.409 30.149 66.409C30.149 66.409 30.413 42.509 30.443 41.421C30.472 40.334 31.089 39.246 32.412 39.011C33.735 38.776 34.058 38.776 34.441 38.658C34.823 38.54 35.234 38.423 35.704 38.365C36.176 38.305 63.075 36.159 63.838 36.159C64.603 36.159 65.073 36.335 65.221 36.482"/>
 <path stroke-width="0.131" stroke-linejoin="round" d="M31.853 69.203C32.588 69.555 32.588 69.555 32.588 69.555C31.443 67.409 31.443 67.409 31.443 67.409C31.443 67.409 31.853 43.156 31.853 41.804C31.853 40.451 32.912 39.658 34.118 39.511C35.323 39.363 47.787 38.158 48.435 38.128C49.081 38.1 49.61 38.188 49.875 38.453"/>
 <path stroke-width="0.131" stroke-linejoin="round" d="M50.213 42.642C50.786 42.862 51.316 43.17 51.668 42.642C52.021 42.112 53.387 40.039 54.667 38.85C55.945 37.658 56.606 37.13 57.091 37.042C57.578 36.953 63.75 36.689 64.191 36.689C64.632 36.689 66 36.645 66.176 36.6"/>
 <path stroke-width="0.25" stroke-linejoin="round" d="M47.228 37.54C47.228 37.54 48.551 37.865 49.11 38.012C49.668 38.158 50.256 38.628 50.256 39.363C50.256 40.098 50.256 41.656 50.256 41.951C50.256 42.244 49.963 42.451 49.581 42.451C49.198 42.451 35.764 44.185 35.764 44.185C35.057 67.703 35.057 67.703 35.057 67.703"/>
</svg>
