<?xml version="1.0" encoding="utf-8"?>
<!DOCTYPE svg PUBLIC "-//W3C//DTD SVG 1.1//EN" "http://www.w3.org/Graphics/SVG/1.1/DTD/svg11.dtd">
<!-- Generator: PTC Arbortext IsoDraw 7.3 -->
<svg id="Standard_x0020_layer" width="100%" height="100%" viewBox="0 0 75 86.406"
 xmlns="http://www.w3.org/2000/svg" xmlns:xlink="http://www.w3.org/1999/xlink"
 fill-rule="evenodd" clip-rule="evenodd" stroke="#000000" stroke-linecap="round" fill="none" xml:space="preserve">
 <path stroke="none" fill="#FFFFFF" d="M75 86.406L0 86.406 0 0 75 0 75 86.406z"/>
 <text transform="matrix(0 -1 1 0 73.188 84.453)" stroke="none" fill="#000000" font-family="'Arial'" font-size="2.081">144 476</text>
 <path stroke-width="0.131" stroke-linejoin="round" d="M27.899 78.775C27.821 78.948 27.832 79.198 27.855 79.433C27.896 79.835 28.539 82.368 28.9 83.212C29.262 84.057 30.509 84.941 31.03 85.022"/>
 <path stroke-width="0.25" stroke-linejoin="round" d="M32.719 84.338C31.875 83.736 31.231 82.569 30.951 81.403C30.669 80.237 30.588 79.715 30.428 79.192C30.266 78.671 29.946 78.429 29.504 78.429C29.06 78.429 28.618 78.51 28.216 78.549C28.05 78.566 27.954 78.652 27.899 78.775"/>
 <path stroke-width="0.131" stroke-linejoin="round" d="M29.102 78.629C29.303 79.594 29.745 81.644 30.789 81.686"/>
 <path stroke-width="0.131" stroke-linejoin="round" d="M36.78 84.498C36.337 84.659 34.85 84.138 33.926 80.84C33 77.545 32.84 76.418 32.357 74.691C31.875 72.962 25.966 51.536 25.966 51.536"/>
 <path stroke-width="0.25" stroke-linejoin="round" d="M17.484 52.259C17.484 52.259 22.428 51.898 23.916 51.777C25.402 51.655 26.89 50.932 27.815 50.369C28.739 49.807 29.141 49.405 29.141 49.405"/>
 <path stroke-width="0.131" stroke-linejoin="round" d="M27.332 50.811C27.332 50.811 34.328 76.62 34.527 77.384C34.728 78.147 35.332 79.112 36.176 78.549C37.542 83.493 37.542 83.493 37.542 83.493C37.905 83.775 37.905 83.775 37.905 83.775"/>
 <line stroke-width="0.131" stroke-linejoin="round" x1="36.176" y1="78.549" x2="35.412" y2="78.549"/>
 <path stroke-width="0.131" stroke-linejoin="round" d="M28.539 50.048C28.539 50.048 30.065 51.335 30.347 51.536C30.629 51.737 30.669 52.057 30.669 52.057"/>
 <path stroke-width="0.131" stroke-linejoin="round" d="M13.397 44.99C13.359 44.926 13.4 44.831 13.583 44.701C13.986 44.42 15.272 43.414 15.272 43.414"/>
 <path stroke-width="0.25" stroke-linejoin="round" d="M27.894 40.801C27.894 40.801 24.76 43.536 24.397 43.777C24.036 44.018 23.553 44.299 23.071 44.34C22.588 44.38 14.026 45.103 13.744 45.103C13.593 45.103 13.441 45.067 13.397 44.99"/>
 <path stroke-width="0.131" stroke-linejoin="round" d="M30.306 52.139C30.306 52.139 33 51.978 33.362 51.978C33.723 51.978 34.006 51.938 34.006 51.576C34.006 51.213 31.594 41.485 31.594 41.485C31.594 41.485 30.708 40.762 29.986 40.682C29.262 40.6 27.894 40.801 27.894 40.801"/>
 <line stroke-width="0.25" stroke-linejoin="round" x1="15.071" y1="42.612" x2="15.634" y2="44.822"/>
 <path stroke-width="0.25" stroke-linejoin="round" d="M19.975 39.234C19.975 39.234 23.152 39.033 23.594 39.033C24.036 39.033 24.196 39.435 24.196 39.435C25.202 43.012 25.202 43.012 25.202 43.012"/>
 <path stroke-width="0.131" stroke-linejoin="round" d="M23.594 39.033C23.312 39.194 23.152 39.676 23.271 40.359C23.393 41.042 24.076 43.737 24.076 43.737"/>
 <line stroke-width="0.131" stroke-linejoin="round" x1="38.508" y1="57.725" x2="56.677" y2="43.012"/>
 <line stroke-width="0.131" stroke-linejoin="round" x1="45.823" y1="50.92" x2="46.95" y2="50.811"/>
 <path stroke-width="0.131" stroke-linejoin="round" d="M29.986 32.5C34.768 52.018 34.768 52.018 34.768 52.018C33.643 53.424 33.643 53.424 33.643 53.424C33.322 53.264 33.322 53.264 33.322 53.264C33.121 52.539 33.121 52.539 33.121 52.539C30.99 52.621 30.99 52.621 30.99 52.621C32.197 57.162 32.197 57.162 32.197 57.162C38.588 57.847 38.588 57.847 38.588 57.847C38.588 57.847 40.317 57.686 40.838 57.686C41.362 57.686 42.406 57.805 42.648 58.207"/>
 <path stroke-width="0.349" stroke-linejoin="round" d="M50.942 18.96C50.93 18.934 50.93 18.934 50.93 18.934C50.93 18.934 52.539 17.486 52.981 17.045C53.423 16.603 52.941 15.759 52.618 15.477C52.296 15.195 51.854 15.035 51.654 15.074C51.453 15.115 50.93 15.115 50.487 14.874C50.045 14.632 44.859 11.215 44.859 11.215C44.499 11.135 44.499 11.135 44.499 11.135C44.499 11.135 43.734 10.211 42.127 10.17C40.518 10.131 37.744 10.451 36.057 10.692C34.368 10.935 31.675 12.099 30.347 12.784C29.021 13.467 27.896 14.632 28.217 15.919C28.217 15.919 25.725 16.803 24.077 17.888C22.428 18.974 22.228 19.658 22.349 20.702C22.349 20.702 19.333 21.748 17.966 22.713C16.6 23.678 16.359 24.763 16.559 25.527C16.76 26.291 19.936 39.316 19.936 39.316C19.936 39.316 15.955 39.597 15.433 39.637C14.912 39.677 14.63 40.32 14.791 41.125C14.952 41.929 15.071 42.612 15.071 42.612C15.071 42.612 12.98 44.34 12.257 44.944C11.535 45.546 11.292 45.787 11.413 47.033C11.535 48.28 12.58 51.576 12.66 51.978C12.74 52.38 13.746 52.581 14.227 52.581C14.71 52.581 17.484 52.259 17.484 52.259C20.618 63.676 20.618 63.676 20.618 63.676C20.458 63.837 20.458 63.837 20.458 63.837C21.021 66.328 21.021 66.328 21.021 66.328C21.745 67.816 21.745 67.816 21.745 67.816C21.745 67.816 24.881 79.555 25.323 81.403C25.765 83.253 26.769 85.263 28.137 85.183C29.504 85.102 30.388 85.061 31.03 85.022C31.673 84.981 32.639 84.459 32.639 84.459C32.639 84.459 33.04 84.7 33.603 84.7C34.167 84.7 36.055 84.659 36.539 84.579C37.021 84.5 37.905 83.775 37.905 83.775C37.905 83.775 46.99 83.132 47.514 83.091C48.036 83.052 48.398 82.569 48.639 82.409C48.881 82.248 49.362 81.483 49.362 81.483C48.719 79.072 48.719 79.072 48.719 79.072C49.966 78.188 49.966 78.188 49.966 78.188C50.448 78.027 50.448 78.027 50.448 78.027C55.353 74.087 55.353 74.087 55.353 74.087C55.795 73.323 55.795 73.323 55.795 73.323C56.317 73.284 56.317 73.284 56.317 73.284C57.683 72.158 57.683 72.158 57.683 72.158C57.683 72.158 60.698 71.956 61.06 71.956C61.423 71.956 61.825 71.676 62.106 71.394C62.387 71.112 62.829 70.51 62.829 70.51C62.588 69.384 62.588 69.384 62.588 69.384C62.588 69.384 64.036 69.424 64.518 69.384C65 69.343 65.602 68.5 65.602 68.5C65.924 67.736 65.924 67.736 65.924 67.736C65.924 67.736 60.256 44.661 60.015 43.817C59.774 42.972 59.371 42.692 58.89 42.731C58.406 42.771 53.811 42.722 53.811 42.722"/>
 <path stroke-width="0.349" stroke-linejoin="round" d="M53.966 41.665C53.966 41.665 56.502 39.411 56.805 39.104C57.109 38.798 57.634 37.598 57.491 36.915C57.348 36.231 56.978 34.908 56.978 34.908C56.978 34.908 57.843 32.887 57.253 31.596C56.661 30.304 55.753 29.173 55.753 29.173C54.823 25.542 54.823 25.542 54.823 25.542C54.823 25.542 54.698 23.12 54.582 22.596C54.468 22.071 53.914 22.03 53.914 22.03C52.682 17.603 52.682 17.603 52.682 17.603"/>
 <path stroke-width="0.131" stroke-linejoin="round" d="M32.374 52.741C32.374 52.741 31.306 53.018 31.489 53.75C31.577 54.107 32.344 56.857 32.344 56.857C35.752 55.85 35.752 55.85 35.752 55.85C35.752 55.85 36.993 55.463 37.401 55.179C37.557 55.07 40.152 53.177 43.152 50.642C43.152 50.642 44.591 49.615 44.121 47.707C44.798 49.963 44.798 49.963 44.798 49.963"/>
 <path stroke="none" fill="#000000" d="M34.585 51.368C34.585 51.332 34.555 51.304 34.52 51.304 34.484 51.304 34.454 51.332 34.454 51.368 34.454 51.405 34.484 51.435 34.52 51.435 34.555 51.435 34.585 51.405 34.585 51.368 34.585 51.368 34.585 51.368 34.585 51.368L34.585 51.368z"/>
 <path stroke-width="0.131" stroke-linejoin="round" d="M49.454 45.311C48.389 46.213 47.213 47.207 46.027 48.21"/>
 <path stroke-width="0.131" stroke-linejoin="round" d="M53.853 41.593C53.853 41.593 53.228 42.119 52.225 42.969"/>
 <path stroke-width="0.131" stroke-linejoin="round" d="M43.152 50.642C43.152 50.642 44.591 49.615 44.121 47.707C44.798 49.963 44.798 49.963 44.798 49.963"/>
 <path stroke-width="0.131" stroke-linejoin="round" d="M49.561 45.658C49.561 45.658 50.795 44.371 50.326 42.465C51.003 44.72 51.003 44.72 51.003 44.72"/>
 <polyline stroke-width="0.131" stroke-linejoin="round" points="45.237 46.732 45.914 48.988 44.28 50.448 43.152 50.642"/>
 <polyline stroke-width="0.131" stroke-linejoin="round" points="51.408 41.411 52.085 43.667 50.485 45.204 49.561 45.658"/>
 <path stroke-width="0.131" stroke-linejoin="round" d="M32.237 52.783C33.057 52.662 33.057 52.662 33.057 52.662C33.057 52.662 33.25 53.75 33.811 53.75C34.371 53.75 35.219 53.468 35.223 52.944C35.229 52.418 35.042 51.853 35.042 51.853C35.042 51.853 34.414 50.264 34.03 48.206C33.643 46.146 33.201 44.468 33.201 44.468C32.442 40.268 32.442 40.268 32.442 40.268C31.815 34.539 31.815 34.539 31.815 34.539C31.306 32.5 31.306 32.5 31.306 32.5C29.986 32.5 29.986 32.5 29.986 32.5"/>
 <polyline stroke-width="0.131" stroke-linejoin="round" points="45.295 43.218 48.719 40.634 47.756 36.962"/>
 <polyline stroke-width="0.131" stroke-linejoin="round" points="45.984 38.253 46.591 40.917 45.046 42.048"/>
 <line stroke-width="0.131" stroke-linejoin="round" x1="46.591" y1="40.917" x2="48.719" y2="40.634"/>
 <polyline stroke-width="0.131" stroke-linejoin="round" points="44.642 40.351 44.808 40.311 45.481 39.384 45.411 38.819"/>
 <polyline stroke-width="0.131" stroke-linejoin="round" points="42.729 36.113 47.493 32.683 46.125 27.315"/>
 <polyline stroke-width="0.25" stroke-linejoin="round" points="47.756 36.962 44.253 39.545 45.295 43.218"/>
 <polyline stroke-width="0.25" stroke-linejoin="round" points="46.125 27.315 41.435 30.786 42.729 36.113"/>
 <path stroke-width="0.131" stroke-linejoin="round" d="M42.52 34.944C45.298 32.886 45.298 32.886 45.298 32.886C45.298 32.886 44.993 31.553 45.012 30.949C45.03 30.343 44.82 28.446 44.82 28.446"/>
 <line stroke-width="0.131" stroke-linejoin="round" x1="45.298" y1="32.886" x2="47.305" y2="32.845"/>
 <line stroke-width="0.25" stroke-linejoin="round" x1="53.845" y1="21.949" x2="54.902" y2="25.783"/>
 <path stroke-width="0.25" stroke-linejoin="round" d="M50.884 18.972C50.914 18.946 50.93 18.934 50.93 18.934"/>
 <path stroke-width="0.25" stroke-linejoin="round" d="M31.835 31.596C31.835 31.596 32.317 32.078 33.121 32.078C33.924 32.078 35.009 31.917 35.853 31.274C36.67 30.652 50 19.699 50.884 18.972"/>
 <path stroke-width="0.25" stroke-linejoin="round" d="M24.557 26.731C25.361 26.007 27.371 24.521 28.82 25.445C30.266 26.37 33.523 28.661 33.764 28.742C34.005 28.821 34.165 29.022 34.366 29.022"/>
 <line stroke-width="0.25" stroke-linejoin="round" x1="34.005" y1="28.701" x2="38.548" y2="25.164"/>
 <path stroke-width="0.25" stroke-linejoin="round" d="M33.04 20.58C33.723 20.46 33.924 20.701 34.246 20.823C34.567 20.943 38.95 24.079 39.231 24.199C39.512 24.32 39.954 24.44 39.954 24.44"/>
 <line stroke-width="0.25" stroke-linejoin="round" x1="39.673" y1="24.097" x2="44.216" y2="20.46"/>
 <path stroke-width="0.25" stroke-linejoin="round" d="M38.709 15.878C39.392 15.757 39.593 15.999 39.914 16.118C40.235 16.239 44.618 19.376 44.899 19.495C45.18 19.617 45.622 19.736 45.622 19.736"/>
 <line stroke-width="0.25" stroke-linejoin="round" x1="45.341" y1="19.515" x2="49.884" y2="15.878"/>
 <path stroke-width="0.25" stroke-linejoin="round" d="M45.299 12.663C46.545 13.493 49.533 15.618 49.762 15.718C50.045 15.837 50.487 15.958 50.487 15.958"/>
 <path stroke-width="0.25" stroke-linejoin="round" d="M32.557 20.3C32.88 20.501 32.96 21.024 33.081 21.385C33.201 21.746 34.326 26.169 34.326 26.169"/>
 <polyline stroke-width="0.25" stroke-linejoin="round" points="34.286 25.565 35.25 25.525 35.694 27.213"/>
 <path stroke-width="0.25" stroke-linejoin="round" d="M38.307 15.557C38.628 15.756 38.709 16.28 38.829 16.641C38.95 17.004 40.075 21.425 40.075 21.425"/>
 <polyline stroke-width="0.25" stroke-linejoin="round" points="40.034 20.823 41 20.782 41.442 22.471"/>
 <path stroke-width="0.25" stroke-linejoin="round" d="M44.134 10.933C44.457 11.134 44.537 11.657 44.658 12.019C44.779 12.381 45.904 16.803 45.904 16.803"/>
 <polyline stroke-width="0.25" stroke-linejoin="round" points="45.703 16.199 46.667 16.158 47.109 17.847"/>
 <path stroke-width="0.25" stroke-linejoin="round" d="M17.925 23.998C18.085 24.481 18.649 24.521 19.131 24.561C19.614 24.6 23.673 24.32 24.638 24.239C25.603 24.158 28.175 23.315 29.06 22.832C29.945 22.35 31.352 20.902 31.352 20.902"/>
 <path stroke-width="0.25" stroke-linejoin="round" d="M23.594 19.254C23.754 19.736 24.317 19.777 24.8 19.818C25.282 19.858 29.341 19.576 30.306 19.495C31.271 19.416 33.844 18.571 34.728 18.088C35.612 17.606 37.02 16.158 37.02 16.158"/>
 <path stroke-width="0.25" stroke-linejoin="round" d="M29.422 14.551C29.582 15.034 30.146 15.073 30.628 15.114C31.111 15.153 35.17 14.872 36.136 14.792C37.1 14.711 39.673 13.868 40.557 13.385C41.442 12.903 42.848 11.455 42.848 11.455"/>
 <polyline stroke-width="0.131" stroke-linejoin="round" points="20.742 63.668 21.065 63.345 28.472 62.875 30.266 69.224 22.769 69.754 21.623 67.608"/>
 <polyline stroke-width="0.131" stroke-linejoin="round" points="21.006 66.432 28.443 65.756 30.236 69.137"/>
 <polyline stroke-width="0.131" stroke-linejoin="round" points="28.443 65.756 27.856 63.316 28.503 62.933"/>
 <line stroke-width="0.131" stroke-linejoin="round" x1="27.856" y1="63.316" x2="20.536" y2="63.786"/>
 <path stroke-width="0.25" stroke-linejoin="round" d="M43.878 53.468C43.878 53.468 45.201 53.408 45.877 53.38C46.552 53.35 47.317 53.878 47.259 54.438C47.2 54.996 47.052 55.936 47.052 55.936C43.759 58.701 43.759 58.701 43.759 58.701C48.786 79.162 48.786 79.162 48.786 79.162"/>
 <path stroke-width="0.25" stroke-linejoin="round" d="M49.683 48.691C49.683 48.691 51.094 48.646 51.668 48.646C52.241 48.646 52.947 49.219 53.036 49.616C53.124 50.014 52.771 51.292 52.771 51.292C50.081 53.408 50.081 53.408 50.081 53.408C47.215 53.585 47.215 53.585 47.215 53.585"/>
 <polyline stroke-width="0.25" stroke-linejoin="round" points="52.771 49.088 55.902 48.691 56.518 48.381"/>
 <polyline stroke-width="0.25" stroke-linejoin="round" points="59.253 45.823 57.048 47.676 62.868 70.387"/>
 <path stroke-width="0.131" stroke-linejoin="round" d="M45.936 51.732C45.936 51.732 47.523 51.645 48.14 51.645C48.758 51.645 49.243 52.173 49.331 52.527C49.42 52.88 50.213 53.232 50.213 53.232"/>
 <path stroke-width="0.131" stroke-linejoin="round" d="M45.406 52.262C45.406 52.262 45.451 52.835 45.804 53.145"/>
 <path stroke-width="0.131" stroke-linejoin="round" d="M51.624 47.015C51.624 47.015 53.212 46.926 53.829 46.926C54.447 46.926 54.932 47.456 55.02 47.808C55.107 48.161 55.902 48.514 55.902 48.514"/>
 <path stroke-width="0.131" stroke-linejoin="round" d="M51.094 47.543C51.094 47.543 51.139 48.116 51.491 48.426"/>
 <line stroke-width="0.131" stroke-linejoin="round" x1="52.814" y1="51.645" x2="57.841" y2="71.974"/>
 <line stroke-width="0.131" stroke-linejoin="round" x1="50.609" y1="53.32" x2="55.725" y2="73.472"/>
 <line stroke-width="0.131" stroke-linejoin="round" x1="44.878" y1="57.951" x2="49.816" y2="78.103"/>
 <path stroke-width="0.131" stroke-linejoin="round" d="M39.168 17.003C39.168 17.003 43.585 20.102 43.981 20.3C44.377 20.496 44.673 20.496 44.673 20.496"/>
 <path stroke-width="0.131" stroke-linejoin="round" d="M33.432 21.65C33.432 21.65 37.85 24.75 38.246 24.948C38.64 25.146 38.938 25.146 38.938 25.146"/>
 <path stroke="none" fill="#FFFFFF" d="M20.414 16.981C23.861 15.541 23.861 15.541 23.861 15.541 26.626 23.347 26.626 23.347 26.626 23.347 22.8 24.028 22.8 24.028 22.8 24.028 22.8 24.028 21.853 20.96 20.414 16.981L20.414 16.981z"/>
 <path stroke-width="0.25" stroke-linejoin="round" d="M12.602 0.742C16.138 6.794 21.039 16.178 23.17 24.024"/>
 <path stroke-width="0.25" stroke-linejoin="round" d="M26.315 23.501C24.346 16.079 19.963 7.23 16.356 0.852"/>
 <path stroke="none" fill="#FFFFFF" d="M26.332 12.234C29.78 10.794 29.78 10.794 29.78 10.794 32.545 18.6 32.545 18.6 32.545 18.6 28.719 19.282 28.719 19.282 28.719 19.282 28.719 19.282 27.771 16.213 26.332 12.234L26.332 12.234z"/>
 <path stroke-width="0.25" stroke-linejoin="round" d="M21.059 0.515C24.114 6.179 27.434 13.192 29.088 19.277"/>
 <path stroke-width="0.25" stroke-linejoin="round" d="M32.234 18.754C30.682 12.907 27.634 6.176 24.646 0.465"/>
 <path stroke="none" fill="#FFFFFF" d="M32.42 7.485C35.868 6.044 35.868 6.044 35.868 6.044 38.634 13.85 38.634 13.85 38.634 13.85 34.807 14.532 34.807 14.532 34.807 14.532 34.807 14.532 33.86 11.464 32.42 7.485L32.42 7.485z"/>
 <path stroke-width="0.25" stroke-linejoin="round" d="M29.542 0.4C31.812 5.001 33.953 10.018 35.177 14.526"/>
 <path stroke-width="0.25" stroke-linejoin="round" d="M38.323 14.003C37.18 9.701 35.228 4.918 33.085 0.415"/>
 <path stroke="#FFFFFF" stroke-width="1.058" stroke-linejoin="round" fill="#FFFFFF" d="M16.545 16.932L12.263 12.65 10.451 14.464 14.733 18.745 12.919 20.559 20.327 22.544 18.341 15.135 16.545 16.932z"/>
 <path stroke="none" fill="#000000" d="M16.545 16.932L12.263 12.65 10.451 14.464 14.733 18.745 12.919 20.559 20.327 22.544 18.341 15.135 16.545 16.932z"/>
</svg>
