<?xml version="1.0" encoding="utf-8"?>
<!DOCTYPE svg PUBLIC "-//W3C//DTD SVG 1.1//EN" "http://www.w3.org/Graphics/SVG/1.1/DTD/svg11.dtd">
<!-- Generator: PTC Arbortext IsoDraw 7.3 M070 -->
<svg id="Standard_x0020_layer" width="100%" height="100%" viewBox="0 0 72.272 56.896"
 xmlns="http://www.w3.org/2000/svg" xmlns:xlink="http://www.w3.org/1999/xlink"
 xmlns:itedo="http://www.itedo.com/svgfilter/1.0" xmlns:extra="http://www.itedo.com/svgfilter/1.0/extra"
 xmlns:_DEFAULT_DTD_="http://www.itedo.com/svgfilter/1.0/DTD/_DEFAULT_DTD_"
 fill-rule="evenodd" clip-rule="evenodd" stroke="#000000" stroke-linecap="round" fill="none" xml:space="preserve">
 <line stroke-width="0.13" x1="62.046" y1="6.495" x2="62.046" y2="1.966"/>
 <path stroke-width="0.13" d="M70.555 3.556C69.759 2.823 65.29 2.027 65.29 2.027L62.475 1.782C62.475 1.782 62.046 1.782 62.046 1.966"/>
 <path stroke-width="0.13" d="M70.493 1.782L70.555 3.556C70.555 3.556 71.35 3.923 71.718 4.168C72.084 4.413 72.207 4.658 72.207 5.209C72.207 5.761 71.902 6.128 71.596 6.189C71.29 6.25 70.983 6.373 70.921 6.373C70.861 6.373 70.983 8.454 70.983 8.454L70.861 8.759C70.861 8.759 71.045 9.005 71.045 9.188"/>
 <path stroke-width="0.13" d="M62.051 6.665C62.051 6.665 65.85 6.581 66.388 6.541C66.924 6.5 67.213 6.541 67.462 6.83C67.709 7.118 68.495 7.987 68.495 8.028C68.495 8.069 68.495 8.4 68.165 8.524C67.834 8.647 67.751 8.483 67.751 8.483L66.843 7.078L62.381 7.036C62.381 7.036 61.926 7.036 62.051 6.665z"/>
 <path stroke-width="0.13" d="M62.381 7.036C62.505 7.036 67.173 7.698 67.173 7.698"/>
 <path stroke-width="0.13" d="M67.504 8.069C67.834 8.853 68.289 9.308 68.578 9.06C68.867 8.813 68.99 8.483 68.99 8.483"/>
 <path stroke-width="0.13" d="M68.495 8.028C68.99 7.822 70.459 8.211 70.861 8.759"/>
 <line stroke-width="0.13" x1="68.99" y1="3.484" x2="69.072" y2="7.78"/>
 <line stroke-width="0.13" x1="69.611" y1="7.903" x2="69.561" y2="3.064"/>
 <path stroke-width="0.13" d="M69.9 5.011C70.477 5.259 70.938 6.123 70.921 6.373"/>
 <path stroke-width="0.13" d="M70.105 4.846C71.263 5.343 72.186 5.674 72.034 5.855"/>
 <line stroke-width="0.13" x1="62.463" y1="2.326" x2="62.463" y2="6.416"/>
 <path stroke-width="0.13" d="M62.463 2.326C63.042 2.326 67.213 2.782 68.99 3.484"/>
 <path stroke-width="0.13" d="M71.045 9.188C71.045 9.188 71.305 15.263 71.209 16.211C71.115 17.16 70.641 18.202 69.03 19.812C67.418 21.425 64.765 22.846 64.007 23.225C63.249 23.605 55.103 23.429 55.103 23.429"/>
 <path stroke-width="0.13" d="M55.103 23.429C54.603 23.131 53.307 22.431 54.204 22.182C55.103 21.934 56.1 21.036 56.1 21.036"/>
 <path stroke-width="0.13" d="M64.007 23.225C64.206 26.222 62.012 31.411 61.412 32.308C60.814 33.207 59.317 33.606 58.819 33.706C58.32 33.805 55.426 33.805 54.829 33.606C54.229 33.406 51.935 32.109 51.436 27.021"/>
 <path stroke-width="0.13" d="M59.118 23.928C58.619 27.42 57.323 33.307 54.829 33.606"/>
 <path stroke-width="0.3" d="M54.09 23.742C53.496 23.742 51.973 24.547 51.466 24.843C50.957 25.138 49.35 26.112 49.35 26.112C49.35 26.112 46.125 27.803 44.177 27.634"/>
 <path stroke-width="0.13" d="M49.35 26.112L50.051 26.089C50.051 26.089 50.018 25.986 50.329 25.917C50.64 25.847 50.917 25.882 50.951 25.951C50.985 26.021 51.954 25.951 51.954 25.951C51.954 25.951 51.954 25.675 52.265 25.606C52.578 25.536 52.578 25.536 52.578 25.536"/>
 <path stroke-width="0.13" d="M46.215 27.519C46.247 27.51 48.219 27.265 48.841 27.196C49.463 27.128 50.087 27.092 50.087 27.092C50.087 27.092 50.155 27.474 50.295 27.542C50.432 27.611 50.536 27.681 50.64 27.577C50.743 27.474 50.779 27.37 50.779 27.37C50.779 27.37 51.021 27.405 51.09 27.128C51.158 26.85 51.158 26.85 51.158 26.85L52.024 26.678C52.024 26.678 52.439 26.954 52.784 26.92C53.131 26.885 53.338 26.885 53.338 26.885"/>
 <line stroke-width="0.13" x1="50.951" y1="25.951" x2="51.158" y2="26.85"/>
 <path stroke-width="0.13" d="M50.051 26.089C50.259 26.089 50.259 26.367 50.295 26.609C50.329 26.85 50.536 27.466 50.779 27.37"/>
 <line stroke-width="0.13" x1="50.087" y1="27.092" x2="50.432" y2="27.062"/>
 <path stroke-width="0.13" d="M50.091 21.913C50.091 21.913 49.99 23.952 49.99 24.259C49.99 24.564 49.683 25.175 48.969 25.125C48.256 25.074 48.204 25.074 48.204 25.074"/>
 <line stroke-width="0.13" x1="44.381" y1="25.125" x2="47.033" y2="21.251"/>
 <path stroke-width="0.13" d="M47.033 21.251C46.625 21.506 46.319 21.608 46.165 21.506C46.012 21.403 45.911 21.097 45.911 21.097"/>
 <line stroke-width="0.13" x1="45.911" y1="21.097" x2="17.867" y2="21.097"/>
 <line stroke-width="0.13" x1="56.1" y1="21.036" x2="55.567" y2="21.016"/>
 <line stroke-width="0.13" x1="55.567" y1="21.016" x2="55.441" y2="21.143"/>
 <line stroke-width="0.13" x1="55.441" y1="21.143" x2="50.594" y2="20.922"/>
 <path stroke-width="0.13" d="M50.594 20.922C50.134 20.542 48.112 20.121 47.033 21.251"/>
 <path stroke-width="0.13" d="M45.572 25.611L48.232 21.681C48.232 21.681 50.482 21.998 50.594 20.922"/>
 <path stroke-width="0.13" d="M51.529 20.964C51.21 21.492 50.618 21.701 50.091 21.913C49.564 22.126 48.359 22.379 48.17 22.632C47.979 22.885 47.093 24.533 47.029 24.533C46.966 24.533 46.459 25.103 46.268 24.661"/>
 <path stroke-width="0.13" d="M45.572 25.611C45.317 26.117 44.685 26.371 44.43 25.864"/>
 <line stroke-width="0.13" x1="42.34" y1="23.329" x2="42.402" y2="25.167"/>
 <line stroke-width="0.13" x1="43.417" y1="21.871" x2="43.481" y2="25.167"/>
 <line stroke-width="0.13" x1="45.064" y1="23.71" x2="45" y2="21.998"/>
 <path stroke-width="0.13" d="M45 21.998C44.747 22.126 43.67 22.253 43.67 21.936"/>
 <path stroke-width="0.3" d="M50.179 23.091C51.073 22.484 51.786 22.056 52.286 22.019C52.786 21.984 52.786 21.628 52.786 21.628C52.786 21.628 52.536 21.306 53.107 21.306C53.679 21.306 53.965 21.306 53.965 21.306"/>
 <line stroke-width="0.13" x1="51.215" y1="25.983" x2="51.076" y2="25.073"/>
 <line stroke-width="0.13" x1="52.154" y1="22.038" x2="51.061" y2="21.449"/>
 <line stroke-width="0.13" x1="50.966" y1="22.579" x2="50.93" y2="21.533"/>
 <path stroke-width="0.13" d="M51.743 24.687C51.777 25.041 51.851 25.461 51.96 25.899"/>
 <path stroke-width="0.13" d="M52.228 26.791C52.661 28.012 53.338 29.089 54.143 28.911C55.429 28.626 56.32 25.054 56.427 23.556"/>
 <path stroke-width="0.13" d="M53.499 23.873C53.822 24.056 53.857 24.163 53.715 24.448C53.572 24.734 53.786 25.984 53.786 26.018C53.786 26.054 54.036 26.484 54.536 26.341"/>
 <line stroke-width="0.3" x1="44.177" y1="27.634" x2="36.524" y2="27.634"/>
 <line stroke-width="0.13" x1="35.938" y1="27.634" x2="34.534" y2="27.634"/>
 <line stroke-width="0.3" x1="33.953" y1="27.634" x2="23.966" y2="27.634"/>
 <line stroke-width="0.3" x1="23.966" y1="27.634" x2="22.16" y2="27.634"/>
 <path stroke-width="0.13" d="M43.664 21.097C43.664 21.097 42.595 23.405 42.037 23.545C41.481 23.684 35.533 23.731 35.533 23.731"/>
 <line stroke-width="0.3" x1="42.223" y1="25.451" x2="27.282" y2="25.625"/>
 <path stroke-width="0.13" d="M35.625 25.496C36.555 25.403 38.414 25.172 39.621 24.661C40.829 24.149 40.645 23.638 40.645 23.638"/>
 <path stroke-width="0.13" d="M56.1 21.036C58.384 19.571 59.677 18.852 59.822 16.333C59.966 13.817 59.822 9.717 59.822 9.717"/>
 <path stroke-width="0.13" d="M62.118 6.958C62.051 7.99 61.116 9.07 60.253 9.141"/>
 <line stroke-width="0.13" x1="60.253" y1="9.141" x2="16.492" y2="9.141"/>
 <line stroke-width="0.13" x1="59.875" y1="14.757" x2="46.616" y2="14.757"/>
 <line stroke-width="0.13" x1="31.06" y1="14.757" x2="15.294" y2="14.757"/>
 <line stroke-width="0.13" x1="62.118" y1="6.958" x2="27.059" y2="6.958"/>
 <line stroke-width="0.13" x1="62.046" y1="4.23" x2="28.928" y2="4.23"/>
 <path stroke-width="0.13" d="M69.346 10.263C69.346 10.263 65.043 9.547 64.378 9.547C63.712 9.547 63.353 9.701 63.301 10.212C63.25 10.724 63.456 12.774 63.404 12.723"/>
 <path stroke-width="0.13" d="M63.404 12.723C63.506 13.131 63.762 13.285 64.581 13.388C65.402 13.49 68.986 13.952 69.141 13.9C69.295 13.849 70.114 13.9 70.114 12.928"/>
 <path stroke-width="0.13" d="M68.424 10.367C68.424 10.367 69.602 10.314 69.653 11.237C69.703 12.159 69.551 13.029 69.498 13.234C69.447 13.439 68.837 13.897 68.325 13.84"/>
 <g>
  <path stroke-width="0.13" d="M65.069 13.029C65.76 13.003 66.299 12.365 66.271 11.6C66.242 10.836 65.659 10.239 64.966 10.263C64.275 10.289 63.735 10.929 63.765 11.692C63.792 12.457 64.376 13.055 65.069 13.029"/>
 </g>
 <g>
  <path stroke-width="0.13" d="M68.04 13.439C68.731 13.413 69.269 12.774 69.242 12.009C69.213 11.246 68.629 10.647 67.936 10.673C67.245 10.699 66.706 11.339 66.734 12.102C66.763 12.867 67.346 13.464 68.04 13.439"/>
 </g>
 <line stroke-width="0.13" x1="14.067" y1="6.98" x2="43.636" y2="6.958"/>
 <line stroke-width="0.13" x1="14.067" y1="4.176" x2="41.765" y2="4.23"/>
 <path stroke-width="0.13" d="M1.369 5.908C1.369 5.908 0.215 6.155 0.132 4.753C0.05 3.351 -0.033 3.764 0.38 3.516C0.792 3.269 2.359 2.774 2.936 2.692C3.512 2.609 4.089 2.444 4.089 2.444C4.089 2.444 12.087 1.538 12.747 1.62C13.407 1.702 13.49 1.867 13.82 4.671"/>
 <path stroke-width="0.13" d="M13.82 4.671L13.82 6.403C13.82 6.403 13.82 6.814 13.324 6.814C12.83 6.814 8.542 7.309 7.801 7.392C7.669 7.407 7.509 7.424 7.328 7.443"/>
 <path stroke-width="0.13" d="M6.198 7.589C5.493 7.692 4.687 7.839 3.924 8.051C2.44 8.464 1.698 8.794 1.698 8.794"/>
 <path stroke-width="0.13" d="M0.462 5.083C1.286 4.424 3.843 3.929 3.843 3.929"/>
 <path stroke-width="0.13" d="M1.369 5.908C1.946 5.331 2.852 4.424 3.266 4.424"/>
 <line stroke-width="0.13" x1="4.293" y1="7.955" x2="4.089" y2="2.444"/>
 <path stroke-width="0.13" d="M5.492 7.969C5.822 8.875 5.987 9.452 6.645 8.794C7.306 8.134 7.469 7.429 8.285 7.336"/>
 <path stroke-width="0.13" d="M1.369 5.908L1.534 8.545L1.698 8.794L1.534 9.124C1.534 9.124 1.616 10.938 1.616 11.845C1.616 12.752 1.863 16.461 2.275 17.864C2.687 19.265 4.089 22.564 4.501 23.059C4.915 23.553 7.471 23.966 8.212 23.966C8.955 23.966 15.304 23.718 16.129 23.8C16.952 23.882 17.448 23.635 17.859 22.975C18.272 22.317 17.867 21.097 17.867 21.097"/>
 <path stroke-width="0.13" d="M15.294 14.757C14.31 15.117 13.047 16.53 13.567 18.388C14.087 20.248 16.17 22.85 16.541 23.073"/>
 <path stroke-width="0.13" d="M13.538 6.783C13.635 6.735 14.162 6.863 14.236 7.682C14.31 8.499 16.17 8.723 16.69 8.797"/>
 <path stroke-width="0.13" d="M16.492 8.769C16.492 8.769 16.318 15.935 16.466 17.272C16.615 18.611 17.036 20.535 17.867 21.097"/>
 <path stroke-width="0.13" d="M6.572 8.266C6.298 8.305 6.102 8.07 6.102 8.07C6.102 8.07 5.868 7.876 6.453 7.29C7.04 6.703 7.743 6.157 7.743 6.157C7.743 6.157 8.173 6.078 8.681 6.04C9.189 6.001 10.634 6.078 10.712 6.078C10.791 6.078 13.253 6.274 13.253 6.274L13.291 6.548C13.291 6.548 9.893 6.509 9.15 6.548C8.407 6.586 8.095 6.586 7.783 6.937C7.469 7.29 6.689 8.15 6.572 8.266z"/>
 <line stroke-width="0.13" x1="6.206" y1="7.113" x2="4.586" y2="7.383"/>
 <line stroke-width="0.13" x1="4.586" y1="7.383" x2="4.383" y2="2.625"/>
 <line stroke-width="0.13" x1="4.383" y1="2.625" x2="12.853" y2="1.883"/>
 <path stroke-width="0.13" d="M12.853 1.883C13.022 2.118 13.426 4.211 13.291 5.561"/>
 <path stroke-width="0.13" d="M4.283 10.712C4.283 10.372 5.011 10.034 5.737 9.936C6.464 9.839 10.973 9.451 11.651 9.451C12.33 9.451 12.669 9.743 12.669 10.131C12.669 10.519 12.669 12.846 12.669 12.99C12.669 13.137 12.185 13.475 11.554 13.475C10.925 13.475 6.562 13.912 5.785 14.105C5.011 14.3 4.525 14.349 4.429 13.669"/>
 <path stroke-width="0.13" d="M4.913 10.663C4.913 10.663 9.471 10.034 10.489 9.936C11.506 9.839 12.378 9.647 12.525 10.372"/>
 <path stroke-width="0.13" d="M4.913 10.663C4.671 10.712 4.525 11.148 4.573 11.585C4.623 12.022 4.767 13.475 4.767 13.475C4.767 13.475 4.953 14.217 5.969 14.067"/>
 <g>
  <path stroke-width="0.13" d="M6.876 13.669C7.631 13.519 8.112 12.746 7.953 11.942C7.791 11.138 7.049 10.609 6.294 10.76C5.541 10.912 5.059 11.686 5.219 12.489C5.379 13.291 6.121 13.82 6.876 13.669"/>
 </g>
 <g>
  <path stroke-width="0.13" d="M10.996 13.137C11.752 12.986 12.234 12.211 12.073 11.409C11.913 10.605 11.17 10.076 10.416 10.227C9.66 10.378 9.179 11.151 9.339 11.955C9.5 12.759 10.243 13.288 10.996 13.137"/>
 </g>
 <line stroke-width="0.13" x1="46.22" y1="12.682" x2="31.653" y2="12.682"/>
 <line stroke-width="0.13" x1="31.06" y1="13.077" x2="31.06" y2="15.846"/>
 <line stroke-width="0.13" x1="31.719" y1="16.242" x2="46.09" y2="16.242"/>
 <line stroke-width="0.13" x1="46.616" y1="15.714" x2="46.616" y2="13.077"/>
 <path stroke-width="0.13" d="M46.616 13.077C46.616 12.682 46.22 12.682 46.22 12.682"/>
 <path stroke-width="0.13" d="M46.616 15.714C46.616 15.913 46.616 16.242 46.09 16.242"/>
 <path stroke-width="0.13" d="M31.719 16.242C31.126 16.307 31.06 15.846 31.06 15.846"/>
 <path stroke-width="0.13" d="M31.06 13.077C31.126 12.551 31.653 12.682 31.653 12.682"/>
 <line stroke-width="0.13" x1="39.578" y1="12.682" x2="39.578" y2="9.987"/>
 <line stroke-width="0.13" x1="39.578" y1="9.987" x2="49.215" y2="9.987"/>
 <path stroke-width="0.13" d="M49.215 9.987C49.753 10.012 49.704 10.698 49.704 10.992C49.704 11.285 49.704 12.608 49.704 12.608"/>
 <line stroke-width="0.13" x1="49.704" y1="12.608" x2="47.109" y2="12.608"/>
 <line stroke-width="0.13" x1="38.683" y1="9.473" x2="49.215" y2="9.473"/>
 <path stroke-width="0.13" d="M49.215 9.473C49.997 9.669 50.39 9.865 50.341 10.992C50.292 12.118 50.39 14.321 50.39 14.321"/>
 <line stroke-width="0.13" x1="37.84" y1="12.682" x2="37.84" y2="9.987"/>
 <line stroke-width="0.13" x1="37.84" y1="9.987" x2="28.202" y2="9.987"/>
 <path stroke-width="0.13" d="M28.202 9.987C27.664 10.012 27.713 10.698 27.713 10.992C27.713 11.285 27.713 12.608 27.713 12.608"/>
 <line stroke-width="0.13" x1="27.713" y1="12.608" x2="30.309" y2="12.608"/>
 <line stroke-width="0.13" x1="38.732" y1="9.473" x2="28.202" y2="9.473"/>
 <path stroke-width="0.13" d="M28.202 9.473C27.42 9.669 27.027 9.865 27.077 10.992C27.126 12.118 27.027 14.321 27.027 14.321"/>
 <path stroke-width="0.13" d="M14.192 6.98C14.343 7.426 14.433 8.003 15.798 8.003"/>
 <line stroke-width="0.13" x1="15.798" y1="8.003" x2="60.439" y2="8.003"/>
 <path stroke-width="0.13" d="M60.439 8.003C61.075 7.921 61.85 7.665 61.948 6.958"/>
 <line stroke-width="0.13" x1="61.908" y1="1.604" x2="14.067" y2="1.604"/>
 <line stroke-width="0.13" x1="62.046" y1="1.966" x2="62.046" y2="0.822"/>
 <line stroke-width="0.13" x1="14.067" y1="4.176" x2="14.067" y2="0.065"/>
 <path stroke-width="0.13" d="M35.533 23.731L29.027 23.725C29.027 23.725 28.205 23.521 28.103 22.853C28.001 22.187 27.897 21.519 27.897 21.519"/>
 <path stroke-width="0.13" d="M35.625 25.496C35.338 25.471 34.106 25.111 33.695 24.907C33.286 24.701 33.234 24.495 33.234 24.495C33.234 24.495 30.207 24.239 29.489 24.137C28.769 24.033 28.414 24.192 28.199 23.135"/>
 <path stroke-width="0.13" d="M25.896 27.634C26.306 28.036 26.82 28.396 27.385 28.446C27.949 28.498 33.542 28.754 33.542 28.754"/>
 <path stroke-width="0.3" d="M33.963 27.449L33.93 28.006C33.93 28.006 33.975 28.228 34.174 28.272C34.375 28.317 36.368 28.262 36.368 28.262C36.368 28.262 36.5 28.295 36.524 28.083C36.545 27.871 36.512 27.437 36.512 27.437L36.09 27.426C36.09 27.426 35.988 27.626 35.856 27.693C35.722 27.76 34.787 27.771 34.676 27.75C34.564 27.727 34.509 27.582 34.454 27.504C34.398 27.426 34.209 27.437 33.963 27.449z"/>
 <line stroke-width="0.13" x1="34.423" y1="28.288" x2="34.426" y2="30.777"/>
 <line stroke-width="0.13" x1="34.426" y1="30.777" x2="35.895" y2="30.731"/>
 <line stroke-width="0.13" x1="35.895" y1="30.731" x2="35.896" y2="28.272"/>
 <path stroke-width="0.3" d="M34.423 28.288C34.423 28.288 33.579 28.239 33.668 28.684C33.758 29.129 33.668 30.286 33.668 30.286"/>
 <path stroke-width="0.3" d="M36.368 28.262C36.606 28.239 36.563 28.862 36.563 29.085C36.563 29.307 36.563 30.286 36.563 30.286L36.918 30.286L37.319 33.536"/>
 <path stroke-width="0.13" d="M36.555 28.596L37.051 28.596C37.051 28.596 37.14 29.396 38.121 29.486C39.1 29.574 40.835 29.975 41.503 29.841C42.171 29.707 42.927 29.263 42.927 29.263"/>
 <path stroke-width="0.13" d="M36.829 28.64C36.829 28.64 37.008 30.599 37.853 30.599C38.698 30.599 43.106 30.643 43.106 30.643"/>
 <path stroke-width="0.13" d="M52.018 29.949C51.832 29.975 48.804 30.019 48.804 30.019C48.804 30.019 48.314 30.065 48.27 29.753C48.225 29.44 48.225 29.44 48.225 29.44L47.78 29.486L47.78 29.841C47.78 29.841 47.825 30.019 47.424 30.019C47.024 30.019 46.088 30.065 46.088 30.065C46.088 30.065 45.956 30.599 45.332 30.599C44.709 30.599 44.353 30.643 44.353 30.643"/>
 <line stroke-width="0.13" x1="48.225" y1="29.44" x2="48.216" y2="27.269"/>
 <path stroke-width="0.13" d="M23.368 21.097C23.513 21.617 23.66 21.836 23.986 21.8C24.315 21.763 24.496 21.291 24.496 21.291C24.496 21.291 24.606 21 24.678 21.327C24.751 21.655 24.859 26.239 24.859 26.239C24.859 26.239 24.896 26.603 25.26 26.603C25.623 26.603 26.024 26.493 26.024 26.021C26.024 25.548 26.388 21.217 26.388 21.217C26.388 21.217 26.57 21 26.643 21.291C26.716 21.582 26.971 21.763 27.335 21.727C27.698 21.69 27.879 21.338 27.879 21.217"/>
 <line stroke-width="0.13" x1="27.225" y1="21.836" x2="27.262" y2="26.457"/>
 <line stroke-width="0.13" x1="27.262" y1="26.457" x2="26.352" y2="26.567"/>
 <line stroke-width="0.13" x1="26.352" y1="26.567" x2="26.352" y2="27.44"/>
 <line stroke-width="0.13" x1="24.096" y1="27.44" x2="24.132" y2="26.858"/>
 <path stroke-width="0.13" d="M24.132 26.858C23.841 26.785 23.55 26.53 23.55 26.202C23.55 25.875 23.478 21.8 23.478 21.8"/>
 <path stroke-width="0.13" d="M21.839 21.097C21.839 21.097 21.913 22.891 21.876 23.036C21.839 23.182 21.513 23.51 21.513 23.765C21.513 24.019 21.477 24.347 21.477 24.347C21.477 24.347 20.966 24.274 20.966 24.565C20.966 24.856 21.004 25.111 21.257 25.074C21.513 25.038 21.513 25.038 21.513 25.038C21.513 25.038 21.513 25.548 21.585 25.62C21.658 25.693 22.094 25.693 22.094 25.693C22.094 25.693 22.823 25.657 22.859 25.657C22.896 25.657 23.545 25.774 23.544 25.696"/>
 <line stroke-width="0.13" x1="23.149" y1="21.097" x2="23.259" y2="25.583"/>
 <line stroke-width="0.13" x1="23.208" y1="23.509" x2="22.059" y2="23.547"/>
 <path stroke-width="0.13" d="M22.059 23.547C21.913 23.873 21.803 24.928 21.876 25.184C21.949 25.439 21.913 25.439 21.949 25.439"/>
 <path stroke-width="0.13" d="M21.112 25.111C21.112 25.111 20.385 25.984 20.603 26.567C20.821 27.149 22.277 27.475 22.968 27.475C23.66 27.475 24.096 27.44 24.096 27.44"/>
 <path stroke-width="0.13" d="M23.123 25.693C23.187 26.094 22.786 26.493 22.385 26.493C21.986 26.493 21.949 26.53 21.949 26.53"/>
 <path stroke-width="0.3" d="M22.16 27.634C21.477 27.66 19.518 26.841 18.562 26.294C17.606 25.748 14.009 24.428 13.646 24.428C13.282 24.428 13.282 24.472 13.282 24.428"/>
 <path stroke-width="0.3" d="M20.974 24.742C19.838 24.291 17.727 23.486 17.439 23.478"/>
 <path stroke-width="0.13" d="M14.752 24.748L14.739 25.155C14.739 25.155 15.148 25.155 15.148 25.519C15.148 25.885 15.102 26.339 14.967 26.339C14.83 26.339 15.33 26.248 15.33 26.521C15.33 26.795 15.74 26.704 15.74 26.658C15.74 26.612 19.414 26.728 19.414 26.728"/>
 <path stroke-width="0.13" d="M26.126 27.844C26.126 27.844 20.567 28.161 19.928 28.07C19.292 27.978 16.149 27.751 15.74 27.568C15.33 27.387 15.285 27.341 15.102 27.524C14.92 27.705 14.739 28.024 14.329 27.705C13.919 27.387 13.919 27.387 13.919 27.387C13.919 27.387 13.782 27.387 13.782 27.478C13.782 27.568 13.827 28.205 13.874 28.251"/>
 <path stroke-width="0.13" d="M14.772 27.815C14.647 29.571 14.602 32.667 14.009 33.624C13.419 34.579 13.419 34.579 13.419 34.579C13.419 34.579 11.233 35.171 9.73 34.99C8.227 34.807 7.955 34.899 7.317 33.761C6.679 32.622 5.23 26.524 5.419 23.495"/>
 <path stroke-width="0.13" d="M12.307 24.054C12.307 25.818 12.739 31.774 12.935 32.674C13.131 33.576 13.195 34.643 13.419 34.579"/>
 <path stroke-width="0.13" d="M13.054 23.826C13.053 24.838 13.013 27.815 13.326 28.952C13.641 30.088 13.836 30.245 14.15 27.777"/>
 <path stroke-width="0.13" d="M14.6 30.609C14.6 30.609 17.538 30.611 17.538 30.571C17.538 30.533 17.925 30.493 17.925 29.795C17.925 29.097 17.969 27.875 17.969 27.875"/>
 <line stroke-width="0.13" x1="17.963" y1="26.687" x2="17.945" y2="25.989"/>
 <path stroke-width="0.13" d="M17.928 29.524C17.928 29.524 20.836 29.368 21.341 29.251C21.847 29.135 23.158 28.324 23.202 27.978"/>
 <line stroke-width="0.13" x1="15.518" y1="30.608" x2="15.557" y2="31.115"/>
 <line stroke-width="0.13" x1="15.557" y1="31.115" x2="25.301" y2="30.768"/>
 <path stroke-width="0.13" d="M14.3 32.844C14.32 33.484 14.666 34.579 14.839 34.954C15.012 35.329 15.041 35.445 15.416 35.417C15.791 35.387 17.435 35.359 17.753 35.329C18.071 35.301 18.271 35.098 18.359 34.781C18.446 34.465 18.734 33.167 18.734 33.167L18.849 33.167C18.849 33.167 19.167 34.465 19.253 34.811C19.339 35.156 19.396 35.329 19.771 35.301C20.146 35.271 22.05 35.271 22.282 35.243C22.513 35.215 22.8 34.435 22.917 34.09C23.032 33.743 22.972 30.873 22.972 30.873"/>
 <path stroke-width="0.13" d="M32.874 30.686C32.676 31.376 30.968 32.164 30.047 32.098C29.126 32.033 27.846 31.376 27.32 31.015C26.794 30.652 24.954 30.785 24.954 30.785"/>
 <path stroke-width="0.13" d="M46.28 30.056C46.133 31.361 46.127 34.298 45.1 34.634"/>
 <path stroke-width="0.13" d="M43.033 34.701C43.033 34.701 42.067 34.701 41.951 34.661C41.835 34.624 41.487 34.043 41.448 33.85C41.409 33.656 41.409 33.656 41.409 33.656C41.409 33.656 41.216 34.237 41.061 34.508C40.908 34.777 40.482 34.817 40.328 34.817C40.173 34.817 38.201 34.817 38.201 34.817C38.201 34.817 37.481 35 37.319 33.536"/>
 <line stroke-width="0.3" x1="37.319" y1="33.536" x2="37.506" y2="35.938"/>
 <line stroke-width="0.3" x1="37.506" y1="35.938" x2="38.898" y2="35.899"/>
 <path stroke-width="0.13" d="M45.944 25.132C45.944 25.228 45.968 25.251 45.968 25.251C45.968 25.251 46.158 25.132 46.207 25.396C46.255 25.658 46.279 25.946 46.231 26.042C46.182 26.138 45.823 26.161 45.823 26.161C45.823 26.161 45.633 26.496 45.417 26.664C45.201 26.832 44.674 26.951 44.363 26.783C44.052 26.617 44.052 26.617 44.052 26.617C44.052 26.617 43.981 26.807 43.957 26.807C43.932 26.807 43.718 26.856 43.454 26.856C43.191 26.856 43.143 26.449 43.143 26.449C43.143 26.449 43.167 26.449 42.856 26.4C42.545 26.353 42.451 26.567 42.402 25.167"/>
 <line stroke-width="0.13" x1="33.668" y1="30.286" x2="34.189" y2="36.081"/>
 <line stroke-width="0.13" x1="36.563" y1="30.286" x2="37.073" y2="36.009"/>
 <line stroke-width="0.13" x1="34.426" y1="30.777" x2="34.838" y2="35.719"/>
 <line stroke-width="0.13" x1="34.838" y1="35.719" x2="36.423" y2="35.719"/>
 <line stroke-width="0.13" x1="36.423" y1="35.719" x2="35.895" y2="30.731"/>
 <line stroke-width="0.3" x1="33.668" y1="30.286" x2="32.965" y2="30.315"/>
 <line stroke-width="0.3" x1="32.965" y1="30.315" x2="33.325" y2="36.152"/>
 <line stroke-width="0.3" x1="33.325" y1="36.152" x2="32.604" y2="36.152"/>
 <line stroke-width="0.3" x1="32.604" y1="36.152" x2="32.389" y2="37.665"/>
 <line stroke-width="0.3" x1="38.898" y1="35.899" x2="40.892" y2="37.378"/>
 <line stroke-width="0.13" x1="40.892" y1="37.378" x2="33.542" y2="37.594"/>
 <line stroke-width="0.13" x1="33.542" y1="37.594" x2="33.542" y2="38.53"/>
 <line stroke-width="0.13" x1="33.542" y1="37.594" x2="32.604" y2="36.152"/>
 <line stroke-width="0.3" x1="39.81" y1="37.409" x2="40.243" y2="38.674"/>
 <line stroke-width="0.13" x1="39.271" y1="36.176" x2="32.801" y2="36.454"/>
 <path stroke-width="0.3" d="M30.175 36.478L31.371 36.445C31.371 36.445 31.599 36.801 31.696 37.222C31.792 37.642 31.89 40.747 31.858 41.654C31.824 42.558 31.696 43.238 31.631 43.368C31.565 43.496 31.307 43.594 31.016 43.594C30.725 43.594 30.239 43.594 30.239 43.594C30.239 43.594 29.884 42.914 29.82 42.398C29.754 41.88 29.69 38.223 29.754 37.674C29.82 37.125 30.013 36.509 30.175 36.478z"/>
 <path stroke-width="0.13" d="M30.094 36.536C30.207 37.35 30.402 42.624 30.304 43.368"/>
 <path stroke-width="0.3" d="M31.832 42.097C32.128 42.435 32.578 42.435 32.718 42.435"/>
 <path stroke-width="0.3" d="M31.856 40.445C32.017 40.415 32.185 40.415 32.185 40.415C32.185 40.415 32.213 40.584 32.381 40.612C32.549 40.64 32.634 40.667 32.634 40.667C32.634 40.667 32.578 41.313 32.578 41.481C32.578 41.649 32.661 42.265 32.718 42.435C32.774 42.603 33.531 44.706 33.531 44.706C33.531 44.706 33.671 44.817 34.008 44.845C34.344 44.874 34.401 44.734 34.401 44.734L34.429 44.005L35.073 43.976C35.073 43.976 35.326 44.145 35.381 44.145C35.439 44.145 35.914 44.201 35.97 44.173C36.027 44.145 36.307 43.92 36.307 43.92L36.643 43.893"/>
 <path stroke-width="0.13" d="M33.475 42.293C33.25 42.323 33.195 42.631 33.222 43.079C33.25 43.527 33.279 43.808 33.503 43.78"/>
 <path stroke-width="0.13" d="M33.536 40.207C33.557 40.554 33.649 42.054 33.7 42.35C33.756 42.686 33.868 45.07 33.531 44.706"/>
 <path stroke-width="0.13" d="M34.162 40.53C34.356 41.101 34.43 41.975 34.457 42.21C34.484 42.463 34.429 44.005 34.429 44.005"/>
 <g>
  <path stroke-width="0.13" d="M35.527 43.136C35.527 42.963 35.387 42.822 35.213 42.822C35.04 42.822 34.901 42.963 34.901 43.136C34.901 43.308 35.04 43.448 35.213 43.448C35.387 43.448 35.527 43.308 35.527 43.136"/>
 </g>
 <path stroke-width="0.13" d="M31.835 39.603C31.989 39.545 32.1 39.573 32.128 39.545C32.156 39.518 32.045 39.04 32.128 38.984C32.213 38.929 33.027 38.844 33.027 38.844"/>
 <path stroke-width="0.13" d="M32.389 37.665L32.1 37.667"/>
 <path stroke-width="0.3" d="M32.1 37.667C31.932 38.2 31.849 38.593 31.989 38.789C32.128 38.984 32.128 38.984 32.128 38.984"/>
 <line stroke-width="0.3" x1="32.389" y1="37.665" x2="32.578" y2="37.61"/>
 <line stroke-width="0.13" x1="32.578" y1="37.61" x2="32.746" y2="38.088"/>
 <line stroke-width="0.13" x1="32.746" y1="38.088" x2="32.718" y2="38.761"/>
 <line stroke-width="0.13" x1="31.806" y1="38.759" x2="31.989" y2="38.789"/>
 <line stroke-width="0.13" x1="33.167" y1="40.079" x2="33.475" y2="42.293"/>
 <path stroke-width="0.13" d="M32.634 40.667C32.634 40.667 32.801 40.106 32.801 39.939"/>
 <path stroke-width="0.13" d="M32.185 40.415C32.326 40.134 32.326 39.798 32.326 39.798"/>
 <line stroke-width="0.13" x1="33.054" y1="39.966" x2="38.573" y2="42.792"/>
 <line stroke-width="0.13" x1="33.56" y1="39.237" x2="38.755" y2="41.674"/>
 <line stroke-width="0.13" x1="38.755" y1="41.674" x2="40.951" y2="41.567"/>
 <line stroke-width="0.13" x1="40.951" y1="41.567" x2="41.853" y2="39.116"/>
 <g>
  <path stroke-width="0.13" d="M33.027 38.844C33.027 38.844 33.279 38.792 33.423 38.829C33.567 38.865 41.637 38.649 41.637 38.649"/>
  <path stroke-width="0.3" d="M41.637 38.649C41.637 38.649 41.996 38.612 42.213 38.756C42.429 38.901 42.645 39.116 42.573 39.368C42.5 39.621 41.744 41.999 41.744 41.999"/>
 </g>
 <line stroke-width="0.13" x1="34.231" y1="39.552" x2="41.753" y2="39.386"/>
 <line stroke-width="0.13" x1="41.6" y1="39.548" x2="34.567" y2="39.71"/>
 <line stroke-width="0.13" x1="41.49" y1="40.101" x2="35.545" y2="40.168"/>
 <line stroke-width="0.13" x1="39.371" y1="41.645" x2="37.781" y2="40.305"/>
 <line stroke-width="0.13" x1="38.143" y1="41.387" x2="37.133" y2="40.378"/>
 <line stroke-width="0.13" x1="37.133" y1="40.378" x2="36.521" y2="40.378"/>
 <line stroke-width="0.13" x1="37.154" y1="42.064" x2="35.584" y2="42.034"/>
 <path stroke-width="0.13" d="M35.584 42.034C35.512 41.783 35.405 41.457 35.405 41.168"/>
 <path stroke-width="0.13" d="M34.731 40.825C34.719 41.134 34.792 42.143 34.792 42.143C34.792 42.143 34.765 42.076 34.612 42.143"/>
 <line stroke-width="0.13" x1="34.463" y1="42.359" x2="37.442" y2="42.212"/>
 <line stroke-width="0.13" x1="37.887" y1="42.439" x2="38.755" y2="43.692"/>
 <g>
  <path stroke-width="0.13" d="M36.593 38.287C36.593 38.149 36.479 38.036 36.341 38.036C36.201 38.036 36.088 38.149 36.088 38.287C36.088 38.427 36.201 38.54 36.341 38.54C36.479 38.54 36.593 38.427 36.593 38.287"/>
 </g>
 <g>
  <path stroke-width="0.13" d="M39.006 38.252C39.006 38.112 38.893 38 38.755 38C38.615 38 38.502 38.112 38.502 38.252C38.502 38.392 38.615 38.505 38.755 38.505C38.893 38.505 39.006 38.392 39.006 38.252"/>
 </g>
 <g>
  <path stroke-width="0.13" d="M39.222 40.845C39.222 40.707 39.109 40.594 38.97 40.594C38.831 40.594 38.719 40.707 38.719 40.845C38.719 40.985 38.831 41.097 38.97 41.097C39.109 41.097 39.222 40.985 39.222 40.845"/>
 </g>
 <path stroke-width="0.13" d="M39.259 40.127C39.295 40.305 39.411 41.362 39.371 41.645"/>
 <path stroke-width="0.13" d="M39.798 40.121C39.871 40.701 39.969 41.615 39.911 41.618"/>
 <line stroke-width="0.3" x1="40.7" y1="40.11" x2="41.06" y2="41.268"/>
 <path stroke-width="0.13" d="M38.466 37.448L38.466 37.747C38.466 37.747 38.786 37.679 38.932 38.073"/>
 <path stroke-width="0.13" d="M37.884 37.534C37.884 37.534 37.911 37.551 37.948 37.582C38 37.625 38.072 37.695 38.109 37.783C38.122 37.816 38.133 37.853 38.133 37.892C38.133 38.058 38.116 38.377 38.106 38.57L38.106 38.57L38.097 38.732"/>
 <path stroke-width="0.13" d="M38.057 37.46C38.125 37.517 38.212 37.606 38.259 37.719C38.281 37.771 38.295 37.829 38.295 37.892C38.295 38.06 38.28 38.383 38.268 38.579L38.259 38.741"/>
 <path stroke-width="0.13" d="M37.008 37.491C37.079 37.563 37.131 37.633 37.171 37.698C37.292 37.902 37.295 38.087 37.295 38.252C37.295 38.393 37.31 38.567 37.32 38.667L37.32 38.667L37.329 38.75"/>
 <path stroke-width="0.13" d="M36.82 37.563C36.911 37.642 36.972 37.718 37.017 37.792C37.118 37.96 37.115 38.115 37.115 38.252C37.115 38.399 37.131 38.581 37.142 38.686L37.151 38.77"/>
 <path stroke-width="0.13" d="M38.466 37.747C38.466 37.747 38.393 37.75 38.273 37.753"/>
 <path stroke-width="0.13" d="M38.1 37.759C37.862 37.768 37.54 37.777 37.218 37.787"/>
 <path stroke-width="0.13" d="M37.018 37.795C36.476 37.811 35.988 37.828 35.972 37.828C35.938 37.828 35.814 37.951 35.814 38.161C35.814 38.372 35.814 38.793 35.814 38.793"/>
 <path stroke-width="0.13" d="M34.865 37.598C35.04 37.792 35.164 38.478 35.146 38.723"/>
 <path stroke-width="0.13" d="M35.304 37.542C35.515 37.828 35.63 38.432 35.6 38.798"/>
 <path stroke-width="0.3" d="M40.277 36.921C40.287 36.689 40.369 36.171 40.668 36.171C40.969 36.171 41.621 36.171 41.649 36.171C41.676 36.171 42.03 36.09 42.139 36.47C42.247 36.851 42.82 39.764 42.71 41.832"/>
 <path stroke-width="0.13" d="M40.561 36.389C40.597 36.509 40.654 36.756 40.709 37.043"/>
 <path stroke-width="0.13" d="M40.807 37.618C40.871 38.023 40.911 38.411 40.887 38.594"/>
 <line stroke-width="0.3" x1="36.819" y1="43.887" x2="47.143" y2="43.554"/>
 <line stroke-width="0.3" x1="36.851" y1="45.28" x2="47.176" y2="44.883"/>
 <line stroke-width="0.3" x1="40.735" y1="45.124" x2="40.868" y2="47.871"/>
 <line stroke-width="0.3" x1="40.868" y1="47.871" x2="41.615" y2="47.817"/>
 <line stroke-width="0.3" x1="41.795" y1="47.508" x2="41.781" y2="45.082"/>
 <line stroke-width="0.3" x1="40.822" y1="46.908" x2="39.637" y2="45.168"/>
 <line stroke-width="0.13" x1="40.765" y1="45.713" x2="40.271" y2="45.143"/>
 <line stroke-width="0.13" x1="39.442" y1="43.807" x2="38.844" y2="42.99"/>
 <path stroke-width="0.3" d="M36.819 43.887C36.585 44.052 36.487 45.295 36.851 45.28"/>
 <path stroke-width="0.3" d="M47.176 44.883C47.408 44.85 47.575 43.853 47.143 43.554"/>
 <g>
  <path stroke-width="0.13" d="M41.618 47.14C41.618 47 41.506 46.887 41.366 46.887C41.226 46.887 41.113 47 41.113 47.14C41.113 47.27 41.212 47.377 41.338 47.392"/>
  <path stroke-width="0.13" d="M41.606 47.216C41.615 47.191 41.619 47.164 41.618 47.14"/>
 </g>
 <line stroke-width="0.13" x1="41.231" y1="47.226" x2="41.615" y2="47.817"/>
 <line stroke-width="0.13" x1="41.5" y1="47.052" x2="41.902" y2="47.671"/>
 <g>
  <path stroke-width="0.3" d="M41.731 49.298C42.024 49.659 42.573 49.7 42.959 49.389C43.344 49.076 43.418 48.53 43.125 48.168"/>
  <path stroke-width="0.13" d="M43.125 48.168C42.947 47.948 42.67 47.847 42.393 47.874"/>
  <path stroke-width="0.13" d="M41.759 48.218C41.49 48.546 41.487 48.993 41.731 49.298"/>
  <path stroke="none" fill="#000000" d="M43.009 48.264C42.887 48.112 42.722 47.948 42.537 47.933L42.555 47.808C42.814 47.828 43.072 47.863 43.243 48.075L43.009 48.264z"/>
  <path stroke="none" fill="#000000" d="M41.624 48.673C41.594 48.895 41.722 49.048 41.847 49.204L41.615 49.392C41.469 49.213 41.463 48.92 41.497 48.664L41.624 48.673z"/>
 </g>
 <g>
  <path stroke-width="0.3" d="M42.893 47.904C42.6 47.542 42.051 47.5 41.665 47.813C41.28 48.125 41.207 48.67 41.499 49.031"/>
 </g>
 <line stroke-width="0.3" x1="41.499" y1="49.031" x2="41.731" y2="49.298"/>
 <line stroke-width="0.3" x1="42.893" y1="47.904" x2="43.125" y2="48.168"/>
 <g>
  <path stroke-width="0.13" d="M39.759 43.792L39.189 42.973C39.189 42.973 38.634 42.972 38.573 42.792C38.514 42.61 38.332 42.247 38.618 42.118C38.904 41.987 39.267 41.987 39.267 41.987L39.63 41.909C39.63 41.909 39.655 41.728 39.914 41.728C40.174 41.728 40.226 41.857 40.226 41.857C40.226 41.857 40.771 41.884 40.771 41.857C40.771 41.832 40.719 41.676 41.005 41.651C41.289 41.625 41.42 41.651 41.42 41.651C41.42 41.651 41.524 41.728 41.549 41.857C41.575 41.987 41.744 41.999 41.744 41.999C41.744 41.999 41.912 41.909 41.912 42.014C41.912 42.118 42.847 41.962 42.847 41.962L43.158 42.222"/>
  <path stroke-width="0.3" d="M43.158 42.222L43.106 42.973L39.811 43.13"/>
  <path stroke-width="0.13" d="M39.811 43.13C39.811 43.13 39.473 42.921 39.448 42.921C39.421 42.921 39.189 42.973 39.189 42.973"/>
 </g>
 <path stroke-width="0.13" d="M38.543 42.707C38.591 42.533 38.774 42.35 39.085 42.35C39.396 42.35 39.369 42.35 39.396 42.35"/>
 <line stroke-width="0.13" x1="39.421" y1="42.039" x2="39.811" y2="42.298"/>
 <line stroke-width="0.13" x1="39.811" y1="42.298" x2="39.811" y2="42.921"/>
 <line stroke-width="0.13" x1="39.811" y1="42.298" x2="43.158" y2="42.222"/>
 <path stroke-width="0.13" d="M40.81 42.61C40.628 42.454 40.576 42.429 40.42 42.61C40.265 42.792 40.472 43.051 40.628 42.973"/>
 <path stroke-width="0.13" d="M42.482 42.468C42.301 42.311 42.25 42.286 42.094 42.468C41.939 42.649 42.146 42.908 42.301 42.831"/>
 <path stroke-width="0.3" d="M42.847 41.962C42.847 41.962 43.118 41.987 43.145 41.987C43.17 41.987 43.222 41.884 43.222 41.884C43.222 41.884 43.792 41.78 43.767 41.78C43.741 41.78 43.612 41.728 44.182 41.676C44.753 41.625 45.012 41.625 45.012 41.625C45.012 41.625 45.09 41.546 45.142 41.625C45.194 41.703 45.609 41.651 45.609 41.651C45.609 41.651 45.557 41.521 45.843 41.521C46.128 41.521 46.88 41.494 46.88 41.494L47.061 41.625L47.347 41.598L47.476 41.703L47.581 41.546L47.892 41.546L48.1 41.703L48.411 41.676C48.411 41.676 48.567 41.857 48.593 41.676"/>
 <path stroke-width="0.3" d="M48.593 41.676L49.941 41.676"/>
 <path stroke-width="0.3" d="M43.145 42.715L43.274 42.74C43.274 42.74 43.301 42.869 43.326 42.869C43.351 42.869 43.792 42.844 43.792 42.844C43.792 42.844 43.844 42.921 43.948 42.921C44.052 42.921 45.039 42.948 45.039 42.921C45.039 42.896 45.142 42.817 45.142 42.817L45.582 42.844C45.582 42.844 45.609 42.973 45.765 42.973C45.92 42.973 46.853 43 46.932 42.973C47.009 42.948 47.009 42.921 47.061 42.869C47.113 42.817 47.32 42.817 47.32 42.817L47.476 42.662L47.606 42.869L47.969 42.869L48.125 42.715C48.125 42.715 48.488 42.662 48.463 42.689C48.436 42.715 48.54 42.585 48.54 42.585L48.618 42.74C48.618 42.74 49.707 42.689 49.915 42.689"/>
 <path stroke-width="0.13" d="M49.941 41.676C50.097 41.962 50.097 42.61 49.915 42.689"/>
 <path stroke-width="0.13" d="M48.593 41.676C48.593 42.014 48.618 42.35 48.54 42.585"/>
 <line stroke-width="0.13" x1="48.1" y1="41.703" x2="48.152" y2="42.481"/>
 <line stroke-width="0.13" x1="48.152" y1="42.481" x2="48.125" y2="42.715"/>
 <path stroke-width="0.13" d="M47.476 41.703C47.503 41.936 47.503 42.585 47.476 42.662"/>
 <path stroke-width="0.13" d="M47.061 41.625C47.218 42.066 47.061 42.715 47.061 42.869"/>
 <path stroke-width="0.13" d="M45.609 41.651C45.713 41.987 45.661 42.74 45.582 42.844"/>
 <path stroke-width="0.13" d="M45.194 41.728C45.246 42.118 45.246 42.715 45.142 42.817"/>
 <path stroke-width="0.13" d="M43.767 41.78C43.896 42.118 43.975 42.637 43.792 42.844"/>
 <path stroke-width="0.3" d="M49.941 41.676C49.941 41.676 50.719 41.231 50.844 41.18C50.969 41.131 51.146 41.055 51.345 41.131C51.546 41.206 52.323 41.506 52.348 41.582C52.374 41.656 52.374 41.656 52.374 41.656L52.374 42.533C52.374 42.533 51.521 42.984 51.345 43.034C51.17 43.085 50.92 43.06 50.82 43.009C50.719 42.96 49.963 42.868 49.915 42.689"/>
 <path stroke-width="0.3" d="M52.417 42.429C54.895 42.311 58.033 42.808 60.273 43.987C61.197 44.475 61.966 45.076 62.454 45.807C62.686 46.158 62.84 46.609 62.923 47.122C63.13 48.399 62.906 50.048 62.32 51.585C61.735 53.112 60.79 54.536 59.523 55.362C58.996 55.704 58.414 55.942 57.78 56.039"/>
 <path stroke-width="0.3" d="M52.383 41.715C54.976 41.591 58.262 42.119 60.606 43.354C61.646 43.902 62.502 44.588 63.049 45.411C63.334 45.837 63.527 46.383 63.63 47.009C63.853 48.39 63.625 50.176 62.988 51.84C62.35 53.512 61.301 55.057 59.914 55.962C59.302 56.359 58.625 56.634 57.887 56.746"/>
 <line stroke-width="0.3" x1="42.618" y1="42.927" x2="42.618" y2="43.7"/>
 <text transform="matrix(0 -1 1 0 68.153 56.402)" stroke="none" fill="#000000" font-family="'Helvetica'" font-size="2.117">149 546</text>
 <line stroke-width="0.13" x1="43.033" y1="34.701" x2="45.1" y2="34.634"/>
 <line stroke-width="0.13" x1="43.106" y1="30.643" x2="44.353" y2="30.643"/>
</svg>
