<svg xmlns="http://www.w3.org/2000/svg" id="Standard_x0020_layer" clip-rule="evenodd" fill="none" fill-rule="evenodd" stroke="#000000" stroke-linecap="round" viewBox="-0.073658 0 75 63.906" width="100%" height="100%" xmlns:xml="http://www.w3.org/XML/1998/namespace" xml:space="preserve">
 <path fill="#ffffff" stroke="none" d="M 75 63.906 L 0 63.906 L 0 0 L 75 0 L 75 63.906 Z" />
 <polygon stroke="#abaaaa" stroke-linecap="butt" stroke-width="0.348" points="65.609,32.249 65.591,33.215 65.543,34.177 65.463,35.131 65.353,36.072 65.21,37.006 65.039,37.927 64.834,38.84 64.602,39.74 64.343,40.631 64.054,41.506 63.738,42.371 63.395,43.219 63.024,44.058 62.628,44.878 62.207,45.685 61.761,46.475 61.289,47.252 60.795,48.009 60.277,48.75 59.735,49.475 59.171,50.182 58.585,50.866 57.981,51.533 57.351,52.18 56.704,52.811 56.037,53.415 55.348,54 54.646,54.564 53.92,55.106 53.18,55.624 52.423,56.118 51.646,56.591 50.856,57.036 50.049,57.459 49.229,57.853 48.39,58.223 47.542,58.567 46.676,58.883 45.801,59.171 44.911,59.432 44.011,59.662 43.098,59.868 42.176,60.039 41.243,60.182 40.301,60.292 39.348,60.374 38.386,60.424 37.418,60.439 36.448,60.424 35.49,60.374 34.536,60.292 33.593,60.182 32.658,60.039 31.736,59.868 30.824,59.662 29.923,59.432 29.036,59.171 28.158,58.883 27.294,58.567 26.443,58.223 25.609,57.853 24.789,57.459 23.978,57.036 23.187,56.591 22.416,56.118 21.658,55.624 20.914,55.106 20.193,54.564 19.486,54 18.8,53.415 18.131,52.811 17.483,52.18 16.856,51.533 16.248,50.866 15.666,50.182 15.102,49.475 14.561,48.75 14.041,48.009 13.545,47.252 13.076,46.475 12.631,45.685 12.208,44.878 11.814,44.058 11.444,43.219 11.099,42.371 10.785,41.506 10.496,40.631 10.236,39.74 10,38.84 9.8,37.927 9.628,37.006 9.484,36.072 9.371,35.131 9.291,34.177 9.243,33.215 9.228,32.249 9.243,31.277 9.291,30.318 9.371,29.365 9.484,28.422 9.628,27.487 9.8,26.565 10,25.652 10.236,24.751 10.496,23.865 10.785,22.986 11.099,22.123 11.444,21.272 11.814,20.437 12.208,19.617 12.631,18.809 13.076,18.018 13.545,17.245 14.041,16.486 14.561,15.743 15.102,15.022 15.666,14.314 16.248,13.63 16.856,12.96 17.483,12.311 18.131,11.686 18.8,11.077 19.486,10.496 20.193,9.932 20.914,9.39 21.658,8.869 22.416,8.375 23.187,7.905 23.978,7.459 24.789,7.038 25.609,6.642 26.443,6.272 27.294,5.929 28.158,5.613 29.036,5.325 29.923,5.065 30.824,4.83 31.736,4.628 32.658,4.456 33.593,4.314 34.536,4.2 35.49,4.12 36.448,4.072 37.418,4.057 38.386,4.072 39.348,4.12 40.301,4.2 41.243,4.314 42.176,4.456 43.098,4.628 44.011,4.83 44.911,5.065 45.801,5.325 46.676,5.613 47.542,5.929 48.39,6.272 49.229,6.642 50.049,7.038 50.856,7.459 51.646,7.905 52.423,8.375 53.18,8.869 53.92,9.39 54.646,9.932 55.348,10.496 56.037,11.077 56.704,11.686 57.351,12.311 57.981,12.96 58.585,13.63 59.171,14.314 59.735,15.022 60.277,15.743 60.795,16.486 61.289,17.245 61.761,18.018 62.207,18.809 62.628,19.617 63.024,20.437 63.395,21.272 63.738,22.123 64.054,22.986 64.343,23.865 64.602,24.751 64.834,25.652 65.039,26.565 65.21,27.487 65.353,28.422 65.463,29.365 65.543,30.318 65.591,31.277 65.609,32.249" />
 <polygon stroke="#abaaaa" stroke-linecap="butt" stroke-width="0.132" points="60.728,32.249 60.71,33.207 60.652,34.159 60.557,35.1 60.424,36.027 60.256,36.947 60.051,37.847 59.813,38.74 59.539,39.616 59.234,40.476 58.898,41.32 58.527,42.151 58.125,42.96 57.697,43.75 57.234,44.527 56.747,45.281 56.231,46.014 55.686,46.728 55.118,47.417 54.521,48.087 53.902,48.731 53.258,49.35 52.588,49.948 51.899,50.515 51.185,51.06 50.453,51.576 49.698,52.064 48.921,52.526 48.131,52.957 47.322,53.356 46.49,53.726 45.648,54.064 44.787,54.371 43.911,54.642 43.018,54.88 42.118,55.085 41.198,55.253 40.271,55.386 39.331,55.481 38.378,55.539 37.418,55.557 36.456,55.539 35.508,55.481 34.567,55.386 33.636,55.253 32.72,55.085 31.815,54.88 30.926,54.642 30.05,54.371 29.19,54.064 28.344,53.726 27.516,53.356 26.707,52.957 25.913,52.526 25.14,52.064 24.385,51.576 23.653,51.06 22.939,50.515 22.246,49.948 21.58,49.35 20.936,48.731 20.314,48.087 19.719,47.417 19.149,46.728 18.606,46.014 18.091,45.281 17.6,44.527 17.141,43.75 16.71,42.96 16.31,42.151 15.941,41.32 15.6,40.476 15.297,39.616 15.025,38.74 14.788,37.847 14.583,36.947 14.413,36.027 14.282,35.1 14.186,34.159 14.128,33.207 14.109,32.249 14.128,31.285 14.186,30.336 14.282,29.396 14.413,28.466 14.583,27.55 14.788,26.646 15.025,25.756 15.297,24.879 15.6,24.019 15.941,23.173 16.31,22.346 16.71,21.536 17.141,20.742 17.6,19.969 18.091,19.214 18.606,18.483 19.149,17.768 19.719,17.076 20.314,16.41 20.936,15.765 21.58,15.143 22.246,14.55 22.939,13.977 23.653,13.435 24.385,12.919 25.14,12.429 25.913,11.971 26.707,11.538 27.516,11.14 28.344,10.769 29.19,10.432 30.05,10.125 30.926,9.855 31.815,9.617 32.72,9.412 33.636,9.243 34.567,9.111 35.508,9.016 36.456,8.958 37.418,8.939 38.378,8.958 39.331,9.016 40.271,9.111 41.198,9.243 42.118,9.412 43.018,9.617 43.911,9.855 44.787,10.125 45.648,10.432 46.49,10.769 47.322,11.14 48.131,11.538 48.921,11.971 49.698,12.429 50.453,12.919 51.185,13.435 51.899,13.977 52.588,14.55 53.258,15.143 53.902,15.765 54.521,16.41 55.118,17.076 55.686,17.768 56.231,18.483 56.747,19.214 57.234,19.969 57.697,20.742 58.125,21.536 58.527,22.346 58.898,23.173 59.234,24.019 59.539,24.879 59.813,25.756 60.051,26.646 60.256,27.55 60.424,28.466 60.557,29.396 60.652,30.336 60.71,31.285 60.728,32.249" />
 <polygon stroke="#abaaaa" stroke-linecap="butt" stroke-width="0.132" points="59.475,32.249 59.454,33.229 59.387,34.2 59.286,35.159 59.139,36.107 58.953,37.042 58.728,37.96 58.466,38.862 58.164,39.749 57.832,40.619 57.462,41.469 57.055,42.301 56.615,43.113 56.146,43.905 55.642,44.673 55.11,45.42 54.546,46.146 53.954,46.841 53.335,47.515 52.686,48.164 52.012,48.783 51.317,49.375 50.591,49.939 49.844,50.475 49.076,50.976 48.284,51.445 47.472,51.884 46.64,52.29 45.79,52.661 44.918,52.993 44.033,53.295 43.131,53.557 42.213,53.781 41.279,53.969 40.331,54.115 39.371,54.218 38.401,54.283 37.418,54.304 36.438,54.283 35.463,54.218 34.503,54.115 33.56,53.969 32.625,53.781 31.707,53.557 30.801,53.295 29.916,52.993 29.047,52.661 28.198,52.29 27.362,51.884 26.553,51.445 25.759,50.976 24.989,50.475 24.242,49.939 23.521,49.375 22.821,48.783 22.147,48.164 21.5,47.515 20.881,46.841 20.288,46.146 19.728,45.42 19.193,44.673 18.69,43.905 18.219,43.113 17.78,42.301 17.376,41.469 17.007,40.619 16.67,39.749 16.37,38.862 16.109,37.96 15.882,37.042 15.698,36.107 15.553,35.159 15.446,34.2 15.384,33.229 15.362,32.249 15.384,31.266 15.446,30.292 15.553,29.333 15.698,28.388 15.882,27.454 16.109,26.536 16.37,25.631 16.67,24.745 17.007,23.876 17.376,23.027 17.78,22.192 18.219,21.382 18.69,20.591 19.193,19.818 19.728,19.071 20.288,18.35 20.881,17.65 21.5,16.978 22.147,16.329 22.821,15.71 23.521,15.117 24.242,14.557 24.989,14.022 25.759,13.521 26.553,13.048 27.362,12.612 28.198,12.205 29.047,11.836 29.916,11.499 30.801,11.198 31.707,10.939 32.625,10.711 33.56,10.528 34.503,10.381 35.463,10.275 36.438,10.214 37.418,10.192 38.401,10.214 39.371,10.275 40.331,10.381 41.279,10.528 42.213,10.711 43.131,10.939 44.033,11.198 44.918,11.499 45.79,11.836 46.64,12.205 47.472,12.612 48.284,13.048 49.076,13.521 49.844,14.022 50.591,14.557 51.317,15.117 52.012,15.71 52.686,16.329 53.335,16.978 53.954,17.65 54.546,18.35 55.11,19.071 55.642,19.818 56.146,20.591 56.615,21.382 57.055,22.192 57.462,23.027 57.832,23.876 58.164,24.745 58.466,25.631 58.728,26.536 58.953,27.454 59.139,28.388 59.286,29.333 59.387,30.292 59.454,31.266 59.475,32.249" />
 <polygon stroke="#abaaaa" stroke-linecap="butt" stroke-width="0.249" points="54.542,32.249 54.518,33.219 54.436,34.177 54.304,35.119 54.121,36.042 53.892,36.951 53.612,37.837 53.286,38.701 52.917,39.542 52.503,40.359 52.049,41.151 51.554,41.917 51.021,42.652 50.453,43.359 49.844,44.033 49.204,44.673 48.53,45.281 47.823,45.853 47.087,46.384 46.322,46.878 45.53,47.332 44.713,47.746 43.871,48.115 43.008,48.442 42.121,48.72 41.213,48.951 40.29,49.134 39.348,49.265 38.39,49.347 37.418,49.372 36.445,49.347 35.49,49.265 34.548,49.134 33.621,48.951 32.716,48.72 31.83,48.442 30.966,48.115 30.125,47.746 29.303,47.332 28.513,46.878 27.748,46.384 27.012,45.853 26.309,45.281 25.635,44.673 24.993,44.033 24.385,43.359 23.815,42.652 23.28,41.917 22.786,41.151 22.332,40.359 21.917,39.542 21.551,38.701 21.225,37.837 20.946,36.951 20.713,36.042 20.533,35.119 20.402,34.177 20.321,33.219 20.292,32.249 20.321,31.274 20.402,30.318 20.533,29.376 20.713,28.451 20.946,27.545 21.225,26.66 21.551,25.795 21.917,24.954 22.332,24.132 22.786,23.341 23.28,22.576 23.815,21.841 24.385,21.138 24.993,20.463 25.635,19.823 26.309,19.214 27.012,18.643 27.748,18.109 28.513,17.614 29.303,17.161 30.125,16.75 30.966,16.381 31.83,16.054 32.716,15.775 33.621,15.545 34.548,15.362 35.49,15.23 36.445,15.15 37.418,15.121 38.39,15.15 39.348,15.23 40.29,15.362 41.213,15.545 42.121,15.775 43.008,16.054 43.871,16.381 44.713,16.75 45.53,17.161 46.322,17.614 47.087,18.109 47.823,18.643 48.53,19.214 49.204,19.823 49.844,20.463 50.453,21.138 51.021,21.841 51.554,22.576 52.049,23.341 52.503,24.132 52.917,24.954 53.286,25.795 53.612,26.66 53.892,27.545 54.121,28.451 54.304,29.376 54.436,30.318 54.518,31.274 54.542,32.249" />
 <polygon stroke="#abaaaa" stroke-linecap="butt" stroke-width="0.132" points="53.601,32.249 53.573,33.234 53.484,34.204 53.338,35.155 53.14,36.09 52.892,37.002 52.588,37.896 52.235,38.759 51.837,39.601 51.39,40.414 50.902,41.198 50.368,41.953 49.793,42.674 49.182,43.359 48.53,44.011 47.844,44.622 47.124,45.198 46.369,45.731 45.585,46.219 44.773,46.665 43.93,47.064 43.066,47.417 42.173,47.72 41.261,47.969 40.326,48.17 39.375,48.314 38.405,48.402 37.418,48.43 36.433,48.402 35.463,48.314 34.508,48.17 33.573,47.969 32.661,47.72 31.771,47.417 30.905,47.064 30.065,46.665 29.248,46.219 28.466,45.731 27.714,45.198 26.992,44.622 26.304,44.011 25.652,43.359 25.042,42.674 24.466,41.953 23.936,41.198 23.445,40.414 22.998,39.601 22.599,38.759 22.246,37.896 21.946,37.002 21.693,36.09 21.496,35.155 21.353,34.204 21.265,33.234 21.236,32.249 21.265,31.263 21.353,30.292 21.496,29.336 21.693,28.402 21.946,27.49 22.246,26.602 22.599,25.734 22.998,24.894 23.445,24.077 23.936,23.295 24.466,22.544 25.042,21.823 25.652,21.134 26.304,20.486 26.992,19.87 27.714,19.295 28.466,18.765 29.248,18.274 30.065,17.83 30.905,17.428 31.771,17.076 32.661,16.775 33.573,16.522 34.508,16.326 35.463,16.182 36.433,16.094 37.418,16.065 38.405,16.094 39.375,16.182 40.326,16.326 41.261,16.522 42.173,16.775 43.066,17.076 43.93,17.428 44.773,17.83 45.585,18.274 46.369,18.765 47.124,19.295 47.844,19.87 48.53,20.486 49.182,21.134 49.793,21.823 50.368,22.544 50.902,23.295 51.39,24.077 51.837,24.894 52.235,25.734 52.588,26.602 52.892,27.49 53.14,28.402 53.338,29.336 53.484,30.292 53.573,31.263 53.601,32.249" />
 <polygon stroke="#abaaaa" stroke-linecap="butt" stroke-width="0.132" points="52.25,32.249 52.218,33.222 52.125,34.182 51.972,35.119 51.759,36.039 51.493,36.936 51.173,37.807 50.801,38.649 50.375,39.466 49.906,40.253 49.387,41.008 48.826,41.725 48.222,42.406 47.578,43.051 46.896,43.655 46.179,44.216 45.424,44.735 44.637,45.204 43.82,45.63 42.978,46.003 42.106,46.322 41.21,46.588 40.29,46.801 39.353,46.956 38.393,47.046 37.418,47.079 36.445,47.046 35.485,46.956 34.545,46.801 33.625,46.588 32.731,46.322 31.859,46.003 31.013,45.63 30.198,45.204 29.414,44.735 28.66,44.216 27.942,43.655 27.257,43.051 26.615,42.406 26.012,41.725 25.448,41.008 24.931,40.253 24.458,39.466 24.038,38.649 23.664,37.807 23.341,36.936 23.079,36.039 22.865,35.119 22.711,34.182 22.62,33.222 22.588,32.249 22.62,31.274 22.711,30.315 22.865,29.373 23.079,28.454 23.341,27.561 23.664,26.689 24.038,25.844 24.458,25.027 24.931,24.242 25.448,23.489 26.012,22.771 26.615,22.085 27.257,21.445 27.942,20.841 28.66,20.277 29.414,19.76 30.198,19.288 31.013,18.867 31.859,18.493 32.731,18.17 33.625,17.908 34.545,17.695 35.485,17.542 36.445,17.449 37.418,17.417 38.393,17.449 39.353,17.542 40.29,17.695 41.21,17.908 42.106,18.17 42.978,18.493 43.82,18.867 44.637,19.288 45.424,19.76 46.179,20.277 46.896,20.841 47.578,21.445 48.222,22.085 48.826,22.771 49.387,23.489 49.906,24.242 50.375,25.027 50.801,25.844 51.173,26.689 51.493,27.561 51.759,28.454 51.972,29.373 52.125,30.315 52.218,31.274 52.25,32.249" />
 <polygon stroke="#abaaaa" stroke-linecap="butt" stroke-width="0.132" points="48.734,32.249 48.688,33.277 48.551,34.28 48.332,35.255 48.029,36.195 47.643,37.1 47.189,37.96 46.665,38.774 46.073,39.539 45.42,40.25 44.71,40.902 43.945,41.494 43.128,42.018 42.268,42.476 41.366,42.857 40.426,43.161 39.451,43.381 38.448,43.517 37.418,43.564 36.39,43.517 35.383,43.381 34.408,43.161 33.468,42.857 32.567,42.476 31.707,42.018 30.893,41.494 30.128,40.902 29.417,40.25 28.762,39.539 28.172,38.774 27.644,37.96 27.19,37.1 26.809,36.195 26.506,35.255 26.283,34.28 26.146,33.277 26.103,32.249 26.146,31.219 26.283,30.211 26.506,29.237 26.809,28.3 27.19,27.396 27.644,26.536 28.172,25.722 28.762,24.957 29.417,24.246 30.128,23.591 30.893,23.001 31.707,22.478 32.567,22.019 33.468,21.638 34.408,21.335 35.383,21.111 36.39,20.977 37.418,20.932 38.448,20.977 39.451,21.111 40.426,21.335 41.366,21.638 42.268,22.019 43.128,22.478 43.945,23.001 44.71,23.591 45.42,24.246 46.073,24.957 46.665,25.722 47.189,26.536 47.643,27.396 48.029,28.3 48.332,29.237 48.551,30.211 48.688,31.219 48.734,32.249" />
 <polygon stroke="#abaaaa" stroke-linecap="butt" stroke-width="0.132" points="44.795,32.249 44.725,33.247 44.53,34.207 44.213,35.119 43.787,35.969 43.256,36.753 42.634,37.463 41.923,38.085 41.14,38.616 40.29,39.045 39.378,39.359 38.418,39.554 37.418,39.624 36.415,39.554 35.457,39.359 34.548,39.045 33.695,38.616 32.911,38.085 32.204,37.463 31.577,36.753 31.05,35.969 30.623,35.119 30.307,34.207 30.109,33.247 30.044,32.249 30.109,31.248 30.307,30.286 30.623,29.376 31.05,28.524 31.577,27.739 32.204,27.033 32.911,26.411 33.695,25.879 34.548,25.452 35.457,25.137 36.415,24.939 37.418,24.873 38.418,24.939 39.378,25.137 40.29,25.452 41.14,25.879 41.923,26.411 42.634,27.033 43.256,27.739 43.787,28.524 44.213,29.376 44.53,30.286 44.725,31.248 44.795,32.249" />
 <polygon stroke="#abaaaa" stroke-linecap="butt" stroke-width="0.132" points="43.956,32.249 43.868,33.307 43.622,34.314 43.228,35.25 42.692,36.107 42.04,36.869 41.279,37.521 40.421,38.057 39.484,38.451 38.478,38.701 37.418,38.784 36.356,38.701 35.353,38.451 34.412,38.057 33.56,37.521 32.798,36.869 32.142,36.107 31.611,35.25 31.216,34.314 30.966,33.307 30.882,32.249 30.966,31.187 31.216,30.182 31.611,29.242 32.142,28.388 32.798,27.626 33.56,26.971 34.412,26.44 35.353,26.045 36.356,25.795 37.418,25.711 38.478,25.795 39.484,26.045 40.421,26.44 41.279,26.971 42.04,27.626 42.692,28.388 43.228,29.242 43.622,30.182 43.868,31.187 43.956,32.249" />
 <polygon stroke="#abaaaa" stroke-linecap="butt" stroke-width="0.132" points="43.213,32.249 43.118,33.289 42.85,34.27 42.421,35.17 41.85,35.979 41.151,36.679 40.341,37.25 39.441,37.679 38.459,37.947 37.418,38.042 36.375,37.947 35.398,37.679 34.493,37.25 33.683,36.679 32.987,35.979 32.417,35.17 31.989,34.27 31.718,33.289 31.626,32.249 31.718,31.204 31.989,30.227 32.417,29.323 32.987,28.513 33.683,27.817 34.493,27.245 35.398,26.818 36.375,26.547 37.418,26.454 38.459,26.547 39.441,26.818 40.341,27.245 41.151,27.817 41.85,28.513 42.421,29.323 42.85,30.227 43.118,31.204 43.213,32.249" />
 <path stroke="#abaaaa" stroke-linecap="butt" stroke-width="0.132" d="M 39.323 28.044 L 38.817 28.733 L 39.539 29.908 L 38.511 29.153 L 38.155 29.637 L 39.411 30.556 L 40.03 29.713 L 39.909 29.513 L 40.396 28.853 L 40.619 28.905 L 40.953 28.454 L 39.323 28.044 Z" />
 <path stroke="#abaaaa" stroke-linecap="butt" stroke-width="0.132" d="M 39.697 29.158 L 39.386 28.638 L 39.386 28.618 L 39.401 28.615 L 39.993 28.754 L 39.697 29.158 Z" />
 <path stroke="#abaaaa" stroke-linecap="butt" stroke-width="0.132" d="M 36.984 32.859 L 36.671 32.34 L 36.668 32.322 L 36.686 32.317 L 37.277 32.457 L 36.984 32.859 Z" />
 <polygon stroke="#abaaaa" stroke-linecap="butt" stroke-width="0.132" points="35.277,33.45 35.024,34.021 35.112,34.435 35.38,34.713 35.383,34.716 35.39,34.719 35.393,34.723 35.127,34.783 34.889,34.984 34.679,35.24 34.5,35.438 34.398,35.468 34.332,35.43 34.284,35.387 34.28,35.302 34.372,35.142 34.518,35.012 34.633,35.009 34.713,35.057 35.097,34.53 34.972,34.475 34.661,34.481 34.265,34.796 34.146,34.962 34.042,35.1 33.999,35.164 33.848,35.46 33.848,35.746 34.024,35.979 34.295,36.072 34.558,35.979 34.793,35.746 34.944,35.554 35.1,35.415 35.24,35.408 35.31,35.503 35.302,35.613 35.232,35.734 35.127,35.851 35.002,35.921 34.862,35.889 34.49,36.401 34.665,36.478 34.972,36.438 35.371,36.079 35.408,36.027 35.496,35.911 35.598,35.768 35.734,35.54 35.807,35.2 35.64,34.851 35.947,34.889 36.28,34.771 36.628,34.43 36.796,34.146 36.869,33.896 36.874,33.691 36.984,33.866 37.313,33.417 37.195,33.215 37.679,32.551 37.906,32.606 38.488,31.812 37.722,31.248 38.927,31.219 39.345,30.652 38.09,29.728 37.764,30.172 38.514,30.721 37.368,30.713 36.914,31.329 37.936,32.079 36.609,31.746 36.104,32.435 36.649,33.329 36.305,33.793 36.378,33.878 36.408,34.017 36.328,34.207 36.152,34.357 35.951,34.368 35.716,34.252 35.543,34.054 35.503,33.844 35.57,33.665 35.701,33.548 35.859,33.505 36.002,33.548 36.368,33.051 36.06,32.944 35.683,33.057 35.277,33.45" />
 <polygon stroke="#abaaaa" stroke-linecap="butt" stroke-width="0.132" points="36.36,19.152 36.277,19.625 35.892,20.024 35.292,20.262 34.643,20.262 34.137,20.035 33.886,19.625 33.969,19.152 34.353,18.754 34.959,18.515 35.603,18.515 36.107,18.745 36.36,19.152" />
 <polygon stroke="#abaaaa" stroke-linecap="butt" stroke-width="0.132" points="28.864,22.277 29.073,22.708 29,23.254 28.652,23.803 28.129,24.184 27.586,24.294 27.143,24.111 26.931,23.678 27.007,23.134 27.356,22.583 27.879,22.207 28.422,22.094 28.864,22.277" />
 <polygon stroke="#abaaaa" stroke-linecap="butt" stroke-width="0.132" points="24.638,29.208 25.059,29.431 25.32,29.923 25.364,30.568 25.161,31.182 24.789,31.593 24.324,31.707 23.899,31.478 23.638,30.992 23.599,30.344 23.8,29.728 24.17,29.323 24.638,29.208" />
 <polygon stroke="#abaaaa" stroke-linecap="butt" stroke-width="0.132" points="25.291,37.301 25.766,37.235 26.265,37.478 26.678,37.975 26.876,38.591 26.818,39.14 26.506,39.506 26.03,39.573 25.532,39.331 25.117,38.832 24.92,38.218 24.983,37.667 25.291,37.301" />
 <polygon stroke="#abaaaa" stroke-linecap="butt" stroke-width="0.132" points="30.579,43.462 30.923,43.131 31.469,43.033 32.094,43.195 32.618,43.575 32.893,44.054 32.856,44.534 32.512,44.868 31.966,44.963 31.339,44.801 30.817,44.424 30.542,43.942 30.579,43.462" />
 <polygon stroke="#abaaaa" stroke-linecap="butt" stroke-width="0.132" points="38.478,45.341 38.561,44.868 38.947,44.472 39.546,44.234 40.195,44.234 40.697,44.462 40.95,44.871 40.865,45.344 40.481,45.74 39.88,45.978 39.231,45.978 38.729,45.75 38.478,45.341" />
 <polygon stroke="#abaaaa" stroke-linecap="butt" stroke-width="0.132" points="45.969,42.219 45.762,41.787 45.838,41.238 46.186,40.692 46.707,40.313 47.249,40.203 47.695,40.381 47.904,40.814 47.826,41.363 47.482,41.908 46.959,42.289 46.417,42.399 45.969,42.219" />
 <polygon stroke="#abaaaa" stroke-linecap="butt" stroke-width="0.132" points="50.2,35.287 49.774,35.06 49.515,34.573 49.475,33.929 49.673,33.31 50.045,32.904 50.515,32.79 50.936,33.018 51.195,33.505 51.24,34.149 51.039,34.764 50.664,35.174 50.2,35.287" />
 <polygon stroke="#abaaaa" stroke-linecap="butt" stroke-width="0.132" points="49.545,27.195 49.069,27.26 48.57,27.018 48.159,26.521 47.959,25.905 48.021,25.356 48.332,24.986 48.808,24.923 49.302,25.166 49.716,25.664 49.917,26.278 49.856,26.829 49.545,27.195" />
 <polygon stroke="#abaaaa" stroke-linecap="butt" stroke-width="0.132" points="44.259,21.03 43.911,21.364 43.369,21.46 42.74,21.301 42.216,20.922 41.945,20.437 41.978,19.957 42.326,19.629 42.871,19.53 43.499,19.69 44.021,20.071 44.292,20.551 44.259,21.03" />
 <polygon stroke="#abaaaa" stroke-linecap="butt" stroke-width="0.132" points="40.301,23.356 40.11,24.053 39.616,24.547 38.92,24.737 38.225,24.547 37.726,24.053 37.539,23.356 37.726,22.661 38.225,22.163 38.92,21.975 39.616,22.163 40.11,22.661 40.301,23.356" />
 <polygon stroke="#abaaaa" stroke-linecap="butt" stroke-width="0.132" points="39.386,23.356 39.323,23.591 39.155,23.76 38.92,23.826 38.682,23.76 38.518,23.591 38.451,23.356 38.518,23.118 38.682,22.954 38.92,22.888 39.155,22.954 39.323,23.118 39.386,23.356" />
 <path stroke="#abaaaa" stroke-linecap="butt" stroke-width="0.132" d="M 39.418 24.202 L 38.433 24.213 L 37.936 23.364 L 38.423 22.507 L 39.404 22.5 L 39.905 23.35 L 39.418 24.202 Z" />
 <polygon stroke="#abaaaa" stroke-linecap="butt" stroke-width="0.132" points="34.523,23.361 34.783,24.033 34.673,24.727 34.219,25.286 33.545,25.547 32.853,25.437 32.292,24.983 32.031,24.309 32.142,23.617 32.595,23.056 33.27,22.797 33.962,22.905 34.523,23.361" />
 <polygon stroke="#abaaaa" stroke-linecap="butt" stroke-width="0.132" points="33.786,23.894 33.875,24.126 33.834,24.359 33.683,24.55 33.453,24.638 33.219,24.602 33.029,24.448 32.941,24.217 32.981,23.983 33.131,23.792 33.362,23.704 33.595,23.745 33.786,23.894" />
 <path stroke="#abaaaa" stroke-linecap="butt" stroke-width="0.132" d="M 34.31 24.565 L 33.518 25.15 L 32.615 24.756 L 32.505 23.777 L 33.295 23.196 L 34.2 23.588 L 34.31 24.565 Z" />
 <polygon stroke="#abaaaa" stroke-linecap="butt" stroke-width="0.132" points="29.853,26.759 30.457,27.155 30.775,27.777 30.739,28.498 30.344,29.103 29.722,29.42 29,29.385 28.396,28.989 28.077,28.367 28.114,27.644 28.51,27.041 29.132,26.722 29.853,26.759" />
 <polygon stroke="#abaaaa" stroke-linecap="butt" stroke-width="0.132" points="29.571,27.626 29.777,27.762 29.882,27.971 29.871,28.216 29.736,28.422 29.527,28.527 29.282,28.516 29.077,28.381 28.971,28.172 28.981,27.926 29.114,27.722 29.326,27.615 29.571,27.626" />
 <path stroke="#abaaaa" stroke-linecap="butt" stroke-width="0.132" d="M 30.388 27.858 L 30.091 28.798 L 29.128 29.01 L 28.466 28.282 L 28.762 27.344 L 29.722 27.132 L 30.388 27.858 Z" />
 <polygon stroke="#abaaaa" stroke-linecap="butt" stroke-width="0.132" points="28.074,32.256 28.792,32.219 29.417,32.537 29.809,33.142 29.846,33.859 29.527,34.485 28.926,34.881 28.205,34.914 27.579,34.6 27.184,33.994 27.15,33.274 27.466,32.648 28.074,32.256" />
 <polygon stroke="#abaaaa" stroke-linecap="butt" stroke-width="0.132" points="28.352,33.124 28.597,33.109 28.809,33.219 28.942,33.423 28.955,33.665 28.846,33.878 28.64,34.009 28.399,34.024 28.187,33.914 28.054,33.713 28.041,33.468 28.15,33.256 28.352,33.124" />
 <path stroke="#abaaaa" stroke-linecap="butt" stroke-width="0.132" d="M 29.149 32.831 L 29.461 33.765 L 28.809 34.5 L 27.847 34.302 L 27.535 33.368 L 28.187 32.633 L 29.149 32.831 Z" />
 <polygon stroke="#abaaaa" stroke-linecap="butt" stroke-width="0.132" points="29.861,37.749 30.42,37.295 31.112,37.185 31.786,37.441 32.24,38.002 32.35,38.694 32.094,39.368 31.53,39.822 30.841,39.932 30.164,39.674 29.713,39.11 29.603,38.423 29.861,37.749" />
 <polygon stroke="#abaaaa" stroke-linecap="butt" stroke-width="0.132" points="30.6,38.283 30.791,38.13 31.024,38.093 31.251,38.18 31.405,38.371 31.443,38.606 31.355,38.832 31.164,38.987 30.929,39.023 30.702,38.936 30.548,38.744 30.513,38.511 30.6,38.283" />
 <path stroke="#abaaaa" stroke-linecap="butt" stroke-width="0.132" d="M 31.073 37.581 L 31.875 38.152 L 31.78 39.13 L 30.882 39.536 L 30.08 38.965 L 30.175 37.987 L 31.073 37.581 Z" />
 <polygon stroke="#abaaaa" stroke-linecap="butt" stroke-width="0.132" points="34.536,41.14 34.723,40.444 35.219,39.945 35.917,39.759 36.613,39.945 37.107,40.441 37.298,41.14 37.107,41.835 36.613,42.329 35.917,42.521 35.219,42.329 34.723,41.835 34.536,41.14" />
 <polygon stroke="#abaaaa" stroke-linecap="butt" stroke-width="0.132" points="35.448,41.14 35.511,40.902 35.679,40.734 35.917,40.67 36.152,40.734 36.32,40.902 36.383,41.14 36.32,41.375 36.152,41.542 35.917,41.604 35.679,41.542 35.511,41.375 35.448,41.14" />
 <path stroke="#abaaaa" stroke-linecap="butt" stroke-width="0.132" d="M 35.415 40.29 L 36.401 40.283 L 36.899 41.128 L 36.415 41.985 L 35.43 41.996 L 34.932 41.146 L 35.415 40.29 Z" />
 <polygon stroke="#abaaaa" stroke-linecap="butt" stroke-width="0.132" points="40.313,41.136 40.055,40.459 40.165,39.771 40.619,39.207 41.293,38.95 41.981,39.06 42.545,39.514 42.802,40.188 42.692,40.88 42.241,41.439 41.564,41.697 40.875,41.587 40.313,41.136" />
 <polygon stroke="#abaaaa" stroke-linecap="butt" stroke-width="0.132" points="41.051,40.597 40.963,40.371 41,40.137 41.155,39.945 41.381,39.857 41.615,39.895 41.807,40.048 41.895,40.276 41.857,40.509 41.704,40.701 41.476,40.789 41.243,40.752 41.051,40.597" />
 <path stroke="#abaaaa" stroke-linecap="butt" stroke-width="0.132" d="M 40.529 39.932 L 41.32 39.345 L 42.219 39.737 L 42.329 40.715 L 41.539 41.301 L 40.637 40.908 L 40.529 39.932 Z" />
 <polygon stroke="#abaaaa" stroke-linecap="butt" stroke-width="0.132" points="44.984,37.737 44.381,37.343 44.063,36.716 44.098,35.999 44.49,35.393 45.116,35.076 45.838,35.112 46.442,35.503 46.758,36.13 46.725,36.851 46.329,37.456 45.707,37.771 44.984,37.737" />
 <polygon stroke="#abaaaa" stroke-linecap="butt" stroke-width="0.132" points="45.267,36.869 45.061,36.734 44.951,36.521 44.966,36.28 45.098,36.075 45.31,35.966 45.552,35.979 45.762,36.112 45.868,36.323 45.856,36.57 45.72,36.771 45.509,36.881 45.267,36.869" />
 <path stroke="#abaaaa" stroke-linecap="butt" stroke-width="0.132" d="M 44.451 36.636 L 44.746 35.698 L 45.707 35.485 L 46.369 36.21 L 46.076 37.148 L 45.113 37.36 L 44.451 36.636 Z" />
 <polygon stroke="#abaaaa" stroke-linecap="butt" stroke-width="0.132" points="46.765,32.24 46.043,32.277 45.42,31.958 45.026,31.355 44.988,30.634 45.307,30.01 45.911,29.614 46.633,29.579 47.256,29.896 47.651,30.501 47.688,31.222 47.368,31.846 46.765,32.24" />
 <polygon stroke="#abaaaa" stroke-linecap="butt" stroke-width="0.132" points="46.482,31.373 46.237,31.384 46.029,31.277 45.893,31.073 45.883,30.827 45.988,30.618 46.194,30.483 46.439,30.472 46.652,30.579 46.783,30.783 46.793,31.028 46.688,31.24 46.482,31.373" />
 <path stroke="#abaaaa" stroke-linecap="butt" stroke-width="0.132" d="M 45.685 31.666 L 45.374 30.731 L 46.024 29.995 L 46.991 30.19 L 47.302 31.123 L 46.652 31.859 L 45.685 31.666 Z" />
 <polygon stroke="#abaaaa" stroke-linecap="butt" stroke-width="0.132" points="44.978,26.748 44.414,27.202 43.722,27.312 43.048,27.051 42.594,26.492 42.487,25.8 42.743,25.126 43.304,24.672 43.996,24.565 44.67,24.821 45.125,25.382 45.234,26.074 44.978,26.748" />
 <polygon stroke="#abaaaa" stroke-linecap="butt" stroke-width="0.132" points="44.237,26.213 44.048,26.367 43.813,26.403 43.585,26.315 43.432,26.125 43.396,25.89 43.479,25.664 43.67,25.51 43.905,25.474 44.136,25.557 44.289,25.748 44.326,25.983 44.237,26.213" />
 <path stroke="#abaaaa" stroke-linecap="butt" stroke-width="0.132" d="M 43.765 26.917 L 42.963 26.344 L 43.058 25.364 L 43.956 24.957 L 44.755 25.528 L 44.658 26.51 L 43.765 26.917 Z" />
 <polyline stroke="#abaaaa" stroke-linecap="butt" stroke-width="0.132" points="39.176,4.203 39.401,6.006 39.927,6.035 40.313,4.203" />
 <polyline stroke="#abaaaa" stroke-linecap="butt" stroke-width="0.132" points="31.859,4.702 32.542,6.387 33.057,6.28 32.954,4.408" />
 <polyline stroke="#abaaaa" stroke-linecap="butt" stroke-width="0.132" points="24.92,7.078 26.015,8.528 26.487,8.294 25.902,6.514" />
 <polyline stroke="#abaaaa" stroke-linecap="butt" stroke-width="0.132" points="18.83,11.173 20.262,12.289 20.658,11.938 19.632,10.371" />
 <polyline stroke="#abaaaa" stroke-linecap="butt" stroke-width="0.132" points="14.01,16.702 15.685,17.41 15.974,16.969 14.579,15.721" />
 <polyline stroke="#abaaaa" stroke-linecap="butt" stroke-width="0.132" points="10.785,23.291 12.583,23.539 12.75,23.042 11.077,22.196" />
 <polyline stroke="#abaaaa" stroke-linecap="butt" stroke-width="0.132" points="9.371,30.486 11.176,30.263 11.205,29.739 9.375,29.355" />
 <polyline stroke="#abaaaa" stroke-linecap="butt" stroke-width="0.132" points="9.872,37.807 11.557,37.125 11.451,36.606 9.58,36.713" />
 <polyline stroke="#abaaaa" stroke-linecap="butt" stroke-width="0.132" points="12.25,44.746 13.699,43.652 13.465,43.179 11.686,43.765" />
 <polyline stroke="#abaaaa" stroke-linecap="butt" stroke-width="0.132" points="16.344,50.834 17.46,49.402 17.109,49.006 15.541,50.031" />
 <polyline stroke="#abaaaa" stroke-linecap="butt" stroke-width="0.132" points="21.873,55.656 22.58,53.982 22.14,53.694 20.888,55.088" />
 <polyline stroke="#abaaaa" stroke-linecap="butt" stroke-width="0.132" points="28.461,58.883 28.71,57.081 28.213,56.917 27.362,58.585" />
 <polyline stroke="#abaaaa" stroke-linecap="butt" stroke-width="0.132" points="35.658,60.292 35.435,58.49 34.911,58.457 34.526,60.292" />
 <polyline stroke="#abaaaa" stroke-linecap="butt" stroke-width="0.132" points="42.978,59.79 42.293,58.109 41.777,58.216 41.884,60.084" />
 <polyline stroke="#abaaaa" stroke-linecap="butt" stroke-width="0.132" points="49.917,57.414 48.823,55.963 48.35,56.201 48.936,57.981" />
 <polyline stroke="#abaaaa" stroke-linecap="butt" stroke-width="0.132" points="56.005,53.323 54.573,52.207 54.176,52.554 55.203,54.125" />
 <polyline stroke="#abaaaa" stroke-linecap="butt" stroke-width="0.132" points="60.828,47.793 59.154,47.087 58.865,47.527 60.259,48.776" />
 <polyline stroke="#abaaaa" stroke-linecap="butt" stroke-width="0.132" points="64.054,41.206 62.252,40.953 62.087,41.454 63.756,42.301" />
 <polyline stroke="#abaaaa" stroke-linecap="butt" stroke-width="0.132" points="65.463,34.006 63.661,34.229 63.628,34.756 65.463,35.142" />
 <polyline stroke="#abaaaa" stroke-linecap="butt" stroke-width="0.132" points="64.962,26.689 63.28,27.37 63.387,27.887 65.254,27.783" />
 <polyline stroke="#abaaaa" stroke-linecap="butt" stroke-width="0.132" points="62.585,19.75 61.134,20.844 61.372,21.312 63.152,20.731" />
 <polyline stroke="#abaaaa" stroke-linecap="butt" stroke-width="0.132" points="58.494,13.66 57.378,15.095 57.725,15.487 59.292,14.461" />
 <polyline stroke="#abaaaa" stroke-linecap="butt" stroke-width="0.132" points="52.965,8.839 52.258,10.513 52.698,10.803 53.947,9.407" />
 <polyline stroke="#abaaaa" stroke-linecap="butt" stroke-width="0.132" points="46.377,5.613 46.124,7.411 46.625,7.58 47.472,5.907" />
 <text font-family="'Arial'" font-size="2.14" fill="#1f1a17" stroke="none" transform="matrix(0 -1 1 0 73.186 61.956)">150 511</text>
 <path stroke="#1f1a17" stroke-dasharray="2,2" stroke-linecap="butt" stroke-width="0.348" d="M 56.11 53.027 L 55.429 53.832 L 54.726 54.606 L 53.993 55.348 L 53.24 56.063 L 52.46 56.74 L 51.658 57.384 L 50.834 57.993 L 49.984 58.567 L 49.119 59.106 L 48.229 59.604 L 47.325 60.066 L 46.399 60.487 L 45.457 60.871 L 44.502 61.209 L 43.527 61.509 L 42.539 61.761 L 41.536 61.973 L 40.518 62.139 L 39.488 62.256 L 38.448 62.329 L 37.396 62.354 L 36.345 62.329 L 35.305 62.256 L 34.277 62.139 L 33.259 61.973 L 32.256 61.761 L 31.266 61.509 L 30.292 61.209 L 29.336 60.871 L 28.391 60.487 L 27.469 60.066 L 26.565 59.604 L 25.675 59.106 L 24.811 58.567 L 23.96 57.993 L 23.137 57.384 L 22.335 56.74 L 21.554 56.06 L 20.8 55.348 L 20.068 54.606 L 19.361 53.832 L 19.327 53.792" />
 <line stroke="#1f1a17" stroke-linecap="butt" stroke-width="0.348" x1="19.327" y1="53.792" x2="18.684" y2="53.027" />
 <path stroke="#1f1a17" stroke-dasharray="2,2" stroke-linecap="butt" stroke-width="0.348" d="M 19.105 10.897 L 19.815 10.099 L 20.551 9.33 L 21.312 8.595 L 22.1 7.892 L 22.91 7.224 L 23.745 6.594 L 24.602 6.001 L 25.481 5.445 L 26.378 4.926 L 27.297 4.448 L 28.239 4.014 L 29.193 3.617 L 30.167 3.266 L 31.157 2.955 L 32.164 2.692 L 33.185 2.476 L 34.219 2.302 L 35.265 2.178 L 36.328 2.105 L 37.396 2.08 L 38.448 2.105 L 39.484 2.174 L 40.514 2.295 L 41.527 2.46 L 42.531 2.669 L 43.517 2.922 L 44.49 3.218 L 45.447 3.56 L 46.387 3.94 L 47.31 4.357 L 48.215 4.819 L 49.101 5.317 L 49.969 5.855 L 50.814 6.426 L 51.639 7.035 L 52.441 7.679 L 53.22 8.352 L 53.975 9.064 L 54.707 9.807 L 54.737 9.837" />
 <line stroke="#1f1a17" stroke-linecap="butt" stroke-width="0.348" x1="54.737" y1="9.837" x2="55.411" y2="10.576" />
 <polygon stroke="#1f1a17" stroke-linecap="butt" stroke-width="0.348" points="65.391,32.267 65.371,33.229 65.325,34.185 65.243,35.131 65.134,36.067 64.99,36.997 64.819,37.914 64.617,38.822 64.391,39.716 64.131,40.601 63.844,41.469 63.53,42.329 63.189,43.176 62.823,44.008 62.427,44.823 62.011,45.625 61.567,46.409 61.098,47.182 60.607,47.936 60.094,48.673 59.557,49.39 58.996,50.094 58.414,50.774 57.814,51.438 57.191,52.082 56.546,52.704 55.884,53.308 55.203,53.892 54.503,54.451 53.784,54.99 53.048,55.506 52.295,55.996 51.526,56.466 50.738,56.908 49.939,57.326 49.124,57.722 48.292,58.088 47.45,58.429 46.593,58.743 45.72,59.03 44.838,59.289 43.945,59.52 43.036,59.722 42.121,59.893 41.195,60.036 40.261,60.146 39.313,60.226 38.36,60.274 37.396,60.289 36.433,60.274 35.481,60.226 34.536,60.146 33.6,60.036 32.673,59.893 31.757,59.722 30.85,59.52 29.955,59.289 29.073,59.03 28.202,58.743 27.344,58.429 26.503,58.088 25.67,57.722 24.855,57.326 24.056,56.908 23.268,56.466 22.5,55.996 21.748,55.506 21.013,54.99 20.292,54.451 19.591,53.892 18.911,53.308 18.248,52.704 17.603,52.082 16.981,51.438 16.381,50.774 15.798,50.094 15.237,49.39 14.699,48.673 14.186,47.936 13.695,47.182 13.227,46.409 12.784,45.625 12.367,44.823 11.971,44.008 11.605,43.176 11.265,42.329 10.949,41.469 10.663,40.601 10.407,39.716 10.176,38.822 9.975,37.914 9.803,36.997 9.66,36.067 9.551,35.131 9.47,34.185 9.423,33.229 9.407,32.267 9.423,31.303 9.47,30.347 9.551,29.399 9.66,28.461 9.803,27.535 9.975,26.62 10.176,25.711 10.407,24.818 10.663,23.931 10.949,23.059 11.265,22.202 11.605,21.356 11.971,20.525 12.367,19.708 12.784,18.907 13.227,18.12 13.695,17.35 14.186,16.597 14.699,15.861 15.237,15.143 15.798,14.439 16.381,13.759 16.981,13.096 17.603,12.451 18.248,11.824 18.911,11.224 19.591,10.641 20.292,10.082 21.013,9.542 21.748,9.026 22.5,8.535 23.268,8.067 24.056,7.625 24.855,7.206 25.67,6.812 26.503,6.445 27.344,6.105 28.202,5.79 29.073,5.5 29.955,5.243 30.85,5.012 31.757,4.812 32.673,4.639 33.6,4.496 34.536,4.387 35.481,4.307 36.433,4.259 37.396,4.24 38.36,4.259 39.313,4.307 40.261,4.387 41.195,4.496 42.121,4.639 43.036,4.812 43.945,5.012 44.838,5.243 45.72,5.5 46.593,5.79 47.45,6.105 48.292,6.445 49.124,6.812 49.939,7.206 50.738,7.625 51.526,8.067 52.295,8.535 53.048,9.026 53.784,9.542 54.503,10.082 55.203,10.641 55.884,11.224 56.546,11.824 57.191,12.451 57.814,13.096 58.414,13.759 58.996,14.439 59.557,15.143 60.094,15.861 60.607,16.597 61.098,17.35 61.567,18.12 62.011,18.907 62.427,19.708 62.823,20.525 63.189,21.356 63.53,22.202 63.844,23.059 64.131,23.931 64.391,24.818 64.617,25.711 64.819,26.62 64.99,27.535 65.134,28.461 65.243,29.399 65.325,30.347 65.371,31.303 65.391,32.267" />
<style /></svg>