<?xml version="1.0" encoding="utf-8"?>
<!DOCTYPE svg PUBLIC "-//W3C//DTD SVG 1.1//EN" "http://www.w3.org/Graphics/SVG/1.1/DTD/svg11.dtd">
<!-- Generator: PTC Arbortext IsoDraw 7.3 -->
<svg width="100%" height="100%" viewBox="0 0 75.016 48.72"
 xmlns="http://www.w3.org/2000/svg" xmlns:xlink="http://www.w3.org/1999/xlink"
 fill-rule="evenodd" clip-rule="evenodd" stroke="#000000" stroke-linecap="round" fill="none" xml:space="preserve">
 <g id="Frame_x0020_75">
  <polygon stroke="#FFFFFF" stroke-width="0.016" points="0.008 0.008 75.007 0.008 75.007 48.713 0.008 48.713 0.008 0.008"/>
 </g>
 <g id="Standard_x0020_layer">
  <g>
   <path stroke-width="0.13" stroke-linejoin="round" d="M13.34 13.442C12.935 14.515 13.531 15.734 14.672 16.167C15.811 16.599 17.065 16.079 17.472 15.007"/>
   <path stroke-width="0.22" stroke-linejoin="round" d="M17.472 15.007C17.879 13.936 17.283 12.717 16.141 12.285C15.002 11.852 13.746 12.371 13.34 13.442"/>
  </g>
  <g>
   <path stroke-width="0.13" stroke-linejoin="round" d="M18.353 38.906C17.946 39.979 18.542 41.198 19.682 41.631C20.824 42.064 22.077 41.545 22.484 40.472"/>
   <path stroke-width="0.22" stroke-linejoin="round" d="M22.484 40.472C22.89 39.401 22.295 38.18 21.153 37.749C20.013 37.317 18.759 37.835 18.353 38.906"/>
  </g>
  <g>
   <path stroke-width="0.22" stroke-linejoin="round" d="M17.219 41.877C16.812 42.948 17.408 44.167 18.548 44.6C19.69 45.033 20.943 44.514 21.35 43.442"/>
  </g>
  <g>
   <path stroke-width="0.13" stroke-linejoin="round" d="M19.468 39.329C19.28 39.822 19.553 40.384 20.079 40.582C20.603 40.783 21.181 40.543 21.368 40.051C21.463 39.804 21.44 39.54 21.33 39.314"/>
   <path stroke-width="0.13" stroke-linejoin="round" d="M19.986 38.802C19.734 38.906 19.554 39.1 19.468 39.329"/>
  </g>
  <g>
   <path stroke-width="0.13" stroke-linejoin="round" d="M38.195 36.957C37.789 38.03 38.384 39.25 39.524 39.682C40.665 40.113 41.92 39.595 42.326 38.524"/>
   <path stroke-width="0.22" stroke-linejoin="round" d="M42.326 38.524C42.732 37.451 42.137 36.231 40.996 35.799C39.854 35.368 38.6 35.886 38.195 36.957"/>
  </g>
  <g>
   <path stroke-width="0.22" stroke-linejoin="round" d="M36.981 41.06C37.145 41.801 37.692 42.383 38.39 42.652C39.531 43.084 40.786 42.564 41.192 41.493"/>
  </g>
  <g>
   <path stroke-width="0.13" stroke-linejoin="round" d="M39.31 37.38C39.122 37.872 39.396 38.435 39.92 38.634C40.445 38.834 41.024 38.594 41.21 38.101C41.304 37.856 41.283 37.591 41.173 37.365"/>
   <path stroke-width="0.13" stroke-linejoin="round" d="M39.829 36.853C39.576 36.957 39.396 37.151 39.31 37.38"/>
  </g>
  <g>
   <path stroke-width="0.13" stroke-linejoin="round" d="M57.176 31.144C56.77 32.216 57.365 33.436 58.506 33.868C59.648 34.301 60.902 33.783 61.307 32.71"/>
   <path stroke-width="0.22" stroke-linejoin="round" d="M61.307 32.71C61.713 31.638 61.118 30.419 59.978 29.986C58.837 29.554 57.582 30.073 57.176 31.144"/>
  </g>
  <g>
   <path stroke-width="0.22" stroke-linejoin="round" d="M55.948 35.18C56.091 35.948 56.649 36.56 57.371 36.838C58.512 37.271 59.767 36.752 60.173 35.679"/>
  </g>
  <g>
   <path stroke-width="0.13" stroke-linejoin="round" d="M58.292 31.567C58.103 32.06 58.378 32.621 58.902 32.82C59.427 33.021 60.005 32.781 60.192 32.289C60.286 32.042 60.265 31.778 60.154 31.551"/>
   <path stroke-width="0.13" stroke-linejoin="round" d="M58.81 31.041C58.557 31.144 58.378 31.338 58.292 31.567"/>
  </g>
  <g>
   <path stroke-width="0.13" stroke-linejoin="round" d="M52.128 5.812C51.722 6.884 52.317 8.103 53.459 8.535C54.6 8.968 55.853 8.449 56.259 7.378"/>
   <path stroke-width="0.22" stroke-linejoin="round" d="M56.259 7.378C56.665 6.306 56.07 5.086 54.929 4.653C53.789 4.222 52.534 4.74 52.128 5.812"/>
  </g>
  <g>
   <path stroke-width="0.13" stroke-linejoin="round" d="M53.243 6.234C53.055 6.727 53.329 7.288 53.854 7.487C54.38 7.687 54.957 7.448 55.145 6.955C55.237 6.71 55.216 6.445 55.106 6.219"/>
   <path stroke-width="0.13" stroke-linejoin="round" d="M53.762 5.708C53.509 5.812 53.331 6.004 53.243 6.234"/>
  </g>
  <g>
   <path stroke-width="0.13" stroke-linejoin="round" d="M32.406 7.807C32 8.88 32.595 10.099 33.737 10.532C34.878 10.964 36.131 10.445 36.537 9.372"/>
   <path stroke-width="0.22" stroke-linejoin="round" d="M36.537 9.372C36.944 8.301 36.348 7.081 35.207 6.65C34.067 6.216 32.813 6.735 32.406 7.807"/>
  </g>
  <g>
   <path stroke-width="0.13" stroke-linejoin="round" d="M32.277 10.195C32.546 10.679 32.978 11.029 33.469 11.214C34.609 11.647 35.863 11.128 36.27 10.055"/>
  </g>
  <g>
   <path stroke-width="0.13" stroke-linejoin="round" d="M33.521 8.23C33.334 8.723 33.607 9.284 34.133 9.484C34.658 9.682 35.234 9.445 35.423 8.952C35.515 8.705 35.494 8.441 35.384 8.214"/>
   <path stroke-width="0.13" stroke-linejoin="round" d="M34.039 7.703C33.787 7.807 33.609 8 33.521 8.23"/>
  </g>
  <g>
   <path stroke-width="0.13" stroke-linejoin="round" d="M16.92 16.198C17.045 16.035 17.143 15.859 17.204 15.691"/>
  </g>
  <g>
   <path stroke-width="0.13" stroke-linejoin="round" d="M14.457 13.865C14.269 14.358 14.542 14.919 15.067 15.118C15.593 15.317 16.17 15.08 16.356 14.586C16.451 14.339 16.429 14.076 16.318 13.849"/>
   <path stroke-width="0.13" stroke-linejoin="round" d="M14.974 13.339C14.723 13.442 14.542 13.635 14.457 13.865"/>
  </g>
  <g>
   <path stroke-width="0.22" stroke-linejoin="round" d="M12.18 16.486C11.913 17.19 12.08 17.96 12.557 18.536"/>
  </g>
  <line stroke-width="0.22" stroke-linejoin="round" x1="12.557" y1="18.533" x2="17.219" y2="41.877"/>
  <line stroke-width="0.22" stroke-linejoin="round" x1="12.18" y1="16.486" x2="13.34" y2="13.442"/>
  <line stroke-width="0.22" stroke-linejoin="round" x1="17.204" y1="15.691" x2="17.472" y2="15.007"/>
  <line stroke-width="0.22" stroke-linejoin="round" x1="36.27" y1="10.055" x2="36.537" y2="9.372"/>
  <g>
   <path stroke-width="0.13" stroke-linejoin="round" d="M54.127 10.829C53.939 11.321 54.213 11.884 54.737 12.083C55.262 12.282 55.84 12.044 56.027 11.551C56.215 11.057 55.941 10.496 55.415 10.297C54.892 10.098 54.314 10.336 54.127 10.829"/>
  </g>
  <line stroke-width="0.22" stroke-linejoin="round" x1="61.307" y1="32.71" x2="60.173" y2="35.679"/>
  <line stroke-width="0.22" stroke-linejoin="round" x1="42.326" y1="38.524" x2="41.192" y2="41.493"/>
  <line stroke-width="0.22" stroke-linejoin="round" x1="38.195" y1="36.957" x2="38.04" y2="37.42"/>
  <g>
   <path stroke-width="0.13" stroke-linejoin="round" d="M19.001 35.128C18.859 35.491 19.059 35.911 19.446 36.061C19.835 36.213 20.265 36.039 20.407 35.674C20.548 35.31 20.349 34.892 19.96 34.74C19.573 34.59 19.143 34.762 19.001 35.128"/>
  </g>
  <g>
   <path stroke-width="0.13" stroke-linejoin="round" d="M18.469 33.075C18.327 33.439 18.527 33.857 18.914 34.009C19.303 34.159 19.733 33.987 19.875 33.621C20.016 33.258 19.818 32.84 19.429 32.688C19.041 32.536 18.611 32.71 18.469 33.075"/>
  </g>
  <line stroke-width="0.13" stroke-linejoin="round" x1="18.353" y1="38.906" x2="17.219" y2="41.877"/>
  <line stroke-width="0.22" stroke-linejoin="round" x1="22.484" y1="40.472" x2="21.35" y2="43.442"/>
  <path stroke-width="0.22" stroke-miterlimit="2" d="M61.222 31.109L56.384 6.761"/>
  <path stroke-width="0.13" stroke-miterlimit="2" d="M59.878 28.464L59.878 28.463z"/>
  <path stroke-width="0.13" stroke-miterlimit="2" d="M17.527 35.25C17.931 36.515 19.195 37.298 20.507 37.1L58.305 29.553C59.594 29.233 60.459 28.022 60.345 26.699"/>
  <path stroke-width="0.13" stroke-miterlimit="2" d="M18.288 39.051L17.347 34.347"/>
  <path stroke-width="0.13" stroke-miterlimit="2" d="M55.82 8.061C55.82 8.061 55.947 8.785 55.999 9.082"/>
  <path stroke-width="0.13" stroke-miterlimit="2" d="M50.393 16.992L22.763 22.51"/>
  <path stroke-width="0.13" stroke-miterlimit="2" d="M22.763 22.51L23.254 24.978"/>
  <path stroke-width="0.13" stroke-miterlimit="2" d="M23.254 24.978L50.886 19.46"/>
  <path stroke-width="0.13" stroke-miterlimit="2" d="M50.886 19.46L50.393 16.992"/>
  <path stroke-width="0.13" stroke-miterlimit="2" d="M45.399 20.556L45.774 22.437"/>
  <path stroke-width="0.13" stroke-miterlimit="2" d="M50.115 19.606L50.49 21.486"/>
  <path stroke-width="0.13" stroke-miterlimit="2" d="M40.225 21.588L40.6 23.469"/>
  <path stroke-width="0.13" stroke-miterlimit="2" d="M35.051 22.621L35.427 24.501"/>
  <path stroke-width="0.13" stroke-miterlimit="2" d="M29.879 23.655L30.254 25.535"/>
  <path stroke-width="0.13" stroke-miterlimit="2" d="M25.071 24.742L25.411 26.449"/>
  <path stroke-width="0.13" stroke-miterlimit="2" d="M44.906 18.088L44.53 16.208"/>
  <path stroke-width="0.13" stroke-miterlimit="2" d="M49.622 17.138L49.247 15.257"/>
  <path stroke-width="0.13" stroke-miterlimit="2" d="M39.732 19.121L39.356 17.242"/>
  <path stroke-width="0.13" stroke-miterlimit="2" d="M34.56 20.155L34.183 18.274"/>
  <path stroke-width="0.13" stroke-miterlimit="2" d="M29.385 21.187L29.01 19.307"/>
  <path stroke-width="0.13" stroke-miterlimit="2" d="M24.544 22.1L24.167 20.221"/>
  <path stroke-width="0.13" stroke-miterlimit="2" d="M51.753 23.809L24.123 29.326L23.629 26.858L51.262 21.341L51.753 23.809z"/>
  <path stroke-width="0.13" stroke-miterlimit="2" d="M46.267 24.903L46.643 26.783"/>
  <path stroke-width="0.13" stroke-miterlimit="2" d="M50.984 23.954L51.359 25.833"/>
  <path stroke-width="0.13" stroke-miterlimit="2" d="M41.094 25.937L41.469 27.817"/>
  <path stroke-width="0.13" stroke-miterlimit="2" d="M35.92 26.969L36.295 28.85"/>
  <path stroke-width="0.13" stroke-miterlimit="2" d="M30.746 28.003L31.121 29.882"/>
  <path stroke-width="0.13" stroke-miterlimit="2" d="M26.032 29.086L26.408 30.966"/>
  <path stroke-width="0.13" stroke-miterlimit="2" d="M17.527 35.25L13.627 15.71"/>
  <path stroke-width="0.22" stroke-miterlimit="2" d="M31.975 9.005C31.983 8.92 31.996 8.839 32.015 8.756C32.033 8.686 32.052 8.618 32.076 8.55L32.406 7.807"/>
  <path stroke-width="0.13" stroke-miterlimit="2" d="M52.914 9.009C52.838 8.974 52.764 8.935 52.692 8.891C52.457 8.753 52.253 8.567 52.088 8.349"/>
  <path stroke-width="0.13" stroke-miterlimit="2" d="M55.57 8.573C55.482 8.653 55.389 8.727 55.289 8.794"/>
  <path stroke-width="0.13" stroke-miterlimit="2" d="M54.707 9.082L54.707 9.082z"/>
  <path stroke-width="0.13" stroke-miterlimit="2" d="M55.57 8.573C55.57 8.573 55.603 8.734 55.637 8.906"/>
  <path stroke-width="0.13" stroke-miterlimit="2" d="M55.718 9.31L55.718 9.31z"/>
  <path stroke-width="0.13" stroke-miterlimit="2" d="M42.545 9.718L42.325 10.298"/>
  <path stroke-width="0.13" stroke-miterlimit="2" d="M55.82 8.061L55.57 8.573"/>
  <path stroke-width="0.13" stroke-miterlimit="2" d="M52.308 7.769L52.088 8.349"/>
  <path stroke-width="0.13" stroke-miterlimit="2" d="M32.491 9.63L32.273 10.211"/>
  <path stroke-width="0.13" stroke-miterlimit="2" d="M56.871 32.776C56.607 33.476 56.106 34.814 56.067 34.969"/>
  <path stroke-width="0.13" stroke-miterlimit="2" d="M37.933 38.594C37.682 39.259 37.159 40.636 37.091 40.808"/>
  <path stroke-width="0.13" stroke-miterlimit="2" d="M13.627 15.71L12.557 18.533"/>
  <path stroke-width="0.13" stroke-miterlimit="2" d="M50.046 15.077L22.51 20.527"/>
  <path stroke-width="0.13" stroke-miterlimit="2" d="M51.948 25.844L24.8 31.256"/>
  <path stroke-width="0.13" stroke-miterlimit="2" d="M53.973 23.484L52.61 16.644"/>
  <path stroke-width="0.13" stroke-miterlimit="2" d="M22.152 29.94L20.815 23.242"/>
  <path stroke-width="0.13" stroke-miterlimit="2" d="M20.823 23.285C20.782 23.181 20.75 23.074 20.728 22.964C20.675 22.701 20.681 22.431 20.742 22.17C20.807 21.894 20.928 21.635 21.097 21.408C21.268 21.178 21.481 20.983 21.725 20.83C21.981 20.673 22.263 20.561 22.559 20.501C22.653 20.483 22.75 20.469 22.846 20.461"/>
  <path stroke-width="0.13" stroke-miterlimit="2" d="M24.986 31.219C24.902 31.245 24.815 31.266 24.73 31.283C24.434 31.343 24.131 31.349 23.833 31.3C23.55 31.254 23.278 31.155 23.033 31.009C22.789 30.864 22.579 30.67 22.413 30.44C22.254 30.224 22.146 29.975 22.094 29.713C22.079 29.643 22.07 29.574 22.065 29.504"/>
  <path stroke-width="0.13" stroke-miterlimit="2" d="M53.932 23.356C53.984 23.618 53.978 23.89 53.917 24.149C53.851 24.425 53.731 24.684 53.563 24.911C53.392 25.141 53.179 25.338 52.935 25.489C52.679 25.647 52.396 25.759 52.101 25.818C52.017 25.835 51.93 25.847 51.844 25.856"/>
  <path stroke-width="0.13" stroke-miterlimit="2" d="M49.777 15.131C49.837 15.115 49.896 15.101 49.957 15.089C50.252 15.029 50.554 15.025 50.853 15.073C51.134 15.118 51.406 15.217 51.654 15.365C51.896 15.509 52.107 15.702 52.274 15.932C52.43 16.149 52.539 16.396 52.591 16.66"/>
  <path stroke-width="0.13" stroke-miterlimit="2" d="M28.333 21.396L27.958 19.515"/>
  <path stroke-width="0.13" stroke-miterlimit="2" d="M23.492 22.309L23.117 20.428"/>
  <path stroke-width="0.13" stroke-miterlimit="2" d="M44.323 20.768L44.698 22.649"/>
  <path stroke-width="0.13" stroke-miterlimit="2" d="M49.04 19.818L49.415 21.699"/>
  <path stroke-width="0.13" stroke-miterlimit="2" d="M39.149 21.801L39.526 23.682"/>
  <path stroke-width="0.13" stroke-miterlimit="2" d="M33.976 22.835L34.353 24.714"/>
  <path stroke-width="0.13" stroke-miterlimit="2" d="M28.803 23.867L29.178 25.748"/>
  <path stroke-width="0.13" stroke-miterlimit="2" d="M24.013 25.045L24.336 26.661"/>
  <path stroke-width="0.13" stroke-miterlimit="2" d="M43.831 18.301L43.456 16.42"/>
  <path stroke-width="0.13" stroke-miterlimit="2" d="M48.548 17.35L48.173 15.471"/>
  <path stroke-width="0.13" stroke-miterlimit="2" d="M38.658 19.335L38.281 17.454"/>
  <path stroke-width="0.13" stroke-miterlimit="2" d="M33.484 20.367L33.109 18.486"/>
  <path stroke-width="0.13" stroke-miterlimit="2" d="M45.192 25.117L45.567 26.996"/>
  <path stroke-width="0.13" stroke-miterlimit="2" d="M49.908 24.166L50.283 26.045"/>
  <path stroke-width="0.13" stroke-miterlimit="2" d="M40.018 26.149L40.393 28.03"/>
  <path stroke-width="0.13" stroke-miterlimit="2" d="M34.844 27.182L35.22 29.062"/>
  <path stroke-width="0.13" stroke-miterlimit="2" d="M29.672 28.216L30.047 30.096"/>
  <path stroke-width="0.13" stroke-miterlimit="2" d="M24.957 29.298L25.332 31.179"/>
  <path stroke-width="0.13" stroke-miterlimit="2" d="M24.597 28.708L25.277 28.573"/>
  <path stroke-width="0.13" stroke-miterlimit="2" d="M24.359 27.515L25.039 27.379"/>
  <path stroke-width="0.13" stroke-miterlimit="2" d="M23.696 24.199L24.378 24.064"/>
  <path stroke-width="0.13" stroke-miterlimit="2" d="M23.463 23.033L24.144 22.896"/>
  <path stroke-width="0.13" stroke-miterlimit="2" d="M25.867 28.455L26.547 28.32"/>
  <path stroke-width="0.13" stroke-miterlimit="2" d="M25.628 27.262L26.309 27.126"/>
  <path stroke-width="0.13" stroke-miterlimit="2" d="M24.966 23.946L25.646 23.811"/>
  <path stroke-width="0.13" stroke-miterlimit="2" d="M24.733 22.778L25.414 22.643"/>
  <path stroke-width="0.13" stroke-miterlimit="2" d="M27.17 28.195L27.85 28.059"/>
  <path stroke-width="0.13" stroke-miterlimit="2" d="M26.931 27.001L27.612 26.865"/>
  <path stroke-width="0.13" stroke-miterlimit="2" d="M26.269 23.686L26.951 23.55"/>
  <path stroke-width="0.13" stroke-miterlimit="2" d="M26.036 22.518L26.718 22.382"/>
  <path stroke-width="0.13" stroke-miterlimit="2" d="M28.4 27.949L29.082 27.814"/>
  <path stroke-width="0.13" stroke-miterlimit="2" d="M28.163 26.756L28.844 26.62"/>
  <path stroke-width="0.13" stroke-miterlimit="2" d="M27.501 23.44L28.181 23.304"/>
  <path stroke-width="0.13" stroke-miterlimit="2" d="M27.268 22.272L27.949 22.138"/>
  <path stroke-width="0.13" stroke-miterlimit="2" d="M29.469 27.736L30.15 27.6"/>
  <path stroke-width="0.13" stroke-miterlimit="2" d="M29.231 26.542L29.913 26.407"/>
  <path stroke-width="0.13" stroke-miterlimit="2" d="M28.57 23.227L29.251 23.091"/>
  <path stroke-width="0.13" stroke-miterlimit="2" d="M28.336 22.059L29.018 21.923"/>
  <path stroke-width="0.13" stroke-miterlimit="2" d="M30.574 27.515L31.254 27.379"/>
  <path stroke-width="0.13" stroke-miterlimit="2" d="M30.335 26.321L31.016 26.185"/>
  <path stroke-width="0.13" stroke-miterlimit="2" d="M29.673 23.007L30.355 22.87"/>
  <path stroke-width="0.13" stroke-miterlimit="2" d="M29.44 21.839L30.121 21.704"/>
  <path stroke-width="0.13" stroke-miterlimit="2" d="M31.742 27.283L32.423 27.146"/>
  <path stroke-width="0.13" stroke-miterlimit="2" d="M31.503 26.088L32.183 25.952"/>
  <path stroke-width="0.13" stroke-miterlimit="2" d="M30.841 22.774L31.521 22.638"/>
  <path stroke-width="0.13" stroke-miterlimit="2" d="M30.608 21.606L31.289 21.471"/>
  <path stroke-width="0.13" stroke-miterlimit="2" d="M32.823 27.067L33.503 26.931"/>
  <path stroke-width="0.13" stroke-miterlimit="2" d="M32.585 25.873L33.265 25.736"/>
  <path stroke-width="0.13" stroke-miterlimit="2" d="M31.923 22.557L32.603 22.422"/>
  <path stroke-width="0.13" stroke-miterlimit="2" d="M31.69 21.39L32.371 21.254"/>
  <path stroke-width="0.13" stroke-miterlimit="2" d="M33.981 26.835L34.661 26.699"/>
  <path stroke-width="0.13" stroke-miterlimit="2" d="M33.743 25.641L34.423 25.506"/>
  <path stroke-width="0.13" stroke-miterlimit="2" d="M33.081 22.327L33.762 22.19"/>
  <path stroke-width="0.13" stroke-miterlimit="2" d="M32.847 21.158L33.529 21.022"/>
  <path stroke-width="0.13" stroke-miterlimit="2" d="M35.06 26.62L35.74 26.484"/>
  <path stroke-width="0.13" stroke-miterlimit="2" d="M34.822 25.426L35.502 25.291"/>
  <path stroke-width="0.13" stroke-miterlimit="2" d="M34.158 22.111L34.84 21.975"/>
  <path stroke-width="0.13" stroke-miterlimit="2" d="M33.926 20.943L34.606 20.807"/>
  <path stroke-width="0.13" stroke-miterlimit="2" d="M36.326 26.367L37.008 26.231"/>
  <path stroke-width="0.13" stroke-miterlimit="2" d="M36.088 25.173L36.77 25.038"/>
  <path stroke-width="0.13" stroke-miterlimit="2" d="M35.426 21.858L36.107 21.722"/>
  <path stroke-width="0.13" stroke-miterlimit="2" d="M35.194 20.69L35.875 20.554"/>
  <path stroke-width="0.13" stroke-miterlimit="2" d="M37.537 26.125L38.219 25.989"/>
  <path stroke-width="0.13" stroke-miterlimit="2" d="M37.299 24.931L37.981 24.795"/>
  <path stroke-width="0.13" stroke-miterlimit="2" d="M36.637 21.615L37.319 21.48"/>
  <path stroke-width="0.13" stroke-miterlimit="2" d="M36.405 20.449L37.085 20.312"/>
  <path stroke-width="0.13" stroke-miterlimit="2" d="M38.633 25.907L39.314 25.771"/>
  <path stroke-width="0.13" stroke-miterlimit="2" d="M38.395 24.713L39.076 24.576"/>
  <path stroke-width="0.13" stroke-miterlimit="2" d="M37.732 21.397L38.414 21.262"/>
  <path stroke-width="0.13" stroke-miterlimit="2" d="M37.5 20.23L38.18 20.094"/>
  <path stroke-width="0.13" stroke-miterlimit="2" d="M39.768 25.679L40.448 25.544"/>
  <path stroke-width="0.13" stroke-miterlimit="2" d="M39.53 24.486L40.21 24.35"/>
  <path stroke-width="0.13" stroke-miterlimit="2" d="M38.868 21.17L39.548 21.035"/>
  <path stroke-width="0.13" stroke-miterlimit="2" d="M38.634 20.004L39.316 19.867"/>
  <path stroke-width="0.13" stroke-miterlimit="2" d="M40.915 25.451L41.597 25.315"/>
  <path stroke-width="0.13" stroke-miterlimit="2" d="M40.677 24.257L41.359 24.12"/>
  <path stroke-width="0.13" stroke-miterlimit="2" d="M40.015 20.942L40.697 20.806"/>
  <path stroke-width="0.13" stroke-miterlimit="2" d="M39.783 19.774L40.463 19.638"/>
  <path stroke-width="0.13" stroke-miterlimit="2" d="M42.06 25.222L42.741 25.085"/>
  <path stroke-width="0.13" stroke-miterlimit="2" d="M41.822 24.028L42.503 23.893"/>
  <path stroke-width="0.13" stroke-miterlimit="2" d="M41.159 20.713L41.841 20.576"/>
  <path stroke-width="0.13" stroke-miterlimit="2" d="M40.926 19.545L41.607 19.41"/>
  <path stroke-width="0.13" stroke-miterlimit="2" d="M43.351 24.963L44.031 24.829"/>
  <path stroke-width="0.13" stroke-miterlimit="2" d="M43.112 23.771L43.793 23.635"/>
  <path stroke-width="0.13" stroke-miterlimit="2" d="M42.451 20.454L43.131 20.32"/>
  <path stroke-width="0.13" stroke-miterlimit="2" d="M42.218 19.288L42.899 19.152"/>
  <path stroke-width="0.13" stroke-miterlimit="2" d="M44.411 24.753L45.091 24.617"/>
  <path stroke-width="0.13" stroke-miterlimit="2" d="M44.173 23.559L44.853 23.423"/>
  <path stroke-width="0.13" stroke-miterlimit="2" d="M43.511 20.243L44.192 20.108"/>
  <path stroke-width="0.13" stroke-miterlimit="2" d="M43.277 19.077L43.959 18.94"/>
  <path stroke-width="0.13" stroke-miterlimit="2" d="M45.737 24.487L46.417 24.352"/>
  <path stroke-width="0.13" stroke-miterlimit="2" d="M45.499 23.295L46.179 23.158"/>
  <path stroke-width="0.13" stroke-miterlimit="2" d="M44.837 19.978L45.518 19.843"/>
  <path stroke-width="0.13" stroke-miterlimit="2" d="M44.603 18.812L45.284 18.675"/>
  <path stroke-width="0.13" stroke-miterlimit="2" d="M46.973 24.24L47.655 24.105"/>
  <path stroke-width="0.13" stroke-miterlimit="2" d="M46.735 23.047L47.417 22.911"/>
  <path stroke-width="0.13" stroke-miterlimit="2" d="M46.073 19.731L46.755 19.596"/>
  <path stroke-width="0.13" stroke-miterlimit="2" d="M45.841 18.565L46.521 18.428"/>
  <path stroke-width="0.13" stroke-miterlimit="2" d="M48.198 23.996L48.88 23.861"/>
  <path stroke-width="0.13" stroke-miterlimit="2" d="M47.96 22.803L48.642 22.667"/>
  <path stroke-width="0.13" stroke-miterlimit="2" d="M47.298 19.487L47.978 19.352"/>
  <path stroke-width="0.13" stroke-miterlimit="2" d="M47.064 18.32L47.746 18.184"/>
  <path stroke-width="0.13" stroke-miterlimit="2" d="M49.46 23.745L50.142 23.609"/>
  <path stroke-width="0.13" stroke-miterlimit="2" d="M49.222 22.55L49.904 22.414"/>
  <path stroke-width="0.13" stroke-miterlimit="2" d="M48.561 19.234L49.241 19.1"/>
  <path stroke-width="0.13" stroke-miterlimit="2" d="M48.328 18.068L49.009 17.931"/>
  <path stroke-width="0.13" stroke-miterlimit="2" d="M50.564 23.524L51.246 23.388"/>
  <path stroke-width="0.13" stroke-miterlimit="2" d="M50.326 22.33L51.008 22.195"/>
  <path stroke-width="0.13" stroke-miterlimit="2" d="M49.664 19.015L50.345 18.879"/>
  <path stroke-width="0.13" stroke-miterlimit="2" d="M49.432 17.847L50.112 17.711"/>
  <path stroke="none" fill="#000000" d="M17.576 23.39C17.57 23.341 17.57 23.294 17.576 23.25 17.58 23.204 17.594 23.164 17.614 23.129 17.635 23.092 17.664 23.062 17.699 23.039 17.734 23.015 17.778 22.998 17.829 22.987 17.92 22.975 17.993 22.986 18.053 23.021 18.111 23.056 18.157 23.103 18.187 23.164 18.216 23.225 18.236 23.289 18.246 23.358 18.263 23.46 18.266 23.55 18.26 23.626 18.254 23.701 18.239 23.765 18.214 23.815 18.192 23.864 18.163 23.903 18.128 23.932 18.092 23.96 18.053 23.981 18.009 23.992 18.009 23.992 17.99 23.996 17.977 23.998 17.925 24.006 17.876 24.004 17.829 23.99 17.783 23.978 17.743 23.954 17.71 23.917 17.678 23.882 17.657 23.835 17.646 23.777L17.768 23.76C17.797 23.862 17.861 23.908 17.961 23.896 18.001 23.89 18.035 23.871 18.062 23.841 18.091 23.812 18.111 23.768 18.126 23.71 18.14 23.652 18.146 23.582 18.143 23.498 18.117 23.538 18.085 23.571 18.047 23.596L18.025 23.487C18.053 23.466 18.073 23.437 18.083 23.402 18.094 23.367 18.097 23.329 18.091 23.286 18.091 23.286 18.086 23.265 18.082 23.245 18.065 23.187 18.036 23.144 17.996 23.12 17.955 23.096 17.911 23.086 17.861 23.094 17.803 23.106 17.76 23.132 17.73 23.176 17.701 23.219 17.69 23.271 17.699 23.329 17.722 23.481 17.794 23.548 17.917 23.533L17.922 23.53 17.925 23.53C17.963 23.524 17.998 23.51 18.025 23.487L18.047 23.596C18.007 23.621 17.966 23.638 17.922 23.646 17.87 23.652 17.82 23.646 17.771 23.629 17.722 23.611 17.679 23.582 17.644 23.542 17.609 23.501 17.586 23.449 17.576 23.39L17.576 23.39z"/>
  <path stroke="none" fill="#000000" d="M18.375 23.446C18.368 23.382 18.365 23.327 18.364 23.278 18.364 23.231 18.37 23.176 18.385 23.117 18.4 23.056 18.429 23.003 18.474 22.955 18.518 22.908 18.579 22.876 18.661 22.861 18.707 22.853 18.754 22.858 18.801 22.871 18.849 22.888 18.888 22.913 18.922 22.949 18.954 22.984 18.975 23.027 18.983 23.079L18.862 23.097C18.849 23.05 18.824 23.015 18.792 22.995 18.757 22.974 18.716 22.966 18.669 22.974 18.629 22.978 18.596 22.998 18.565 23.027 18.535 23.059 18.513 23.103 18.5 23.163 18.486 23.222 18.484 23.295 18.495 23.382L18.548 23.463C18.539 23.501 18.536 23.544 18.544 23.591 18.55 23.632 18.567 23.667 18.591 23.695 18.617 23.722 18.646 23.742 18.681 23.751 18.714 23.763 18.75 23.765 18.786 23.76 18.83 23.754 18.87 23.728 18.903 23.687 18.937 23.644 18.949 23.588 18.94 23.518 18.928 23.443 18.902 23.391 18.858 23.361 18.815 23.332 18.766 23.321 18.713 23.329 18.67 23.335 18.634 23.35 18.606 23.373 18.579 23.396 18.559 23.426 18.548 23.463L18.495 23.382C18.51 23.338 18.535 23.303 18.571 23.272 18.606 23.242 18.653 23.224 18.71 23.214 18.768 23.208 18.824 23.216 18.876 23.236 18.928 23.257 18.971 23.291 19.004 23.335 19.039 23.379 19.06 23.428 19.068 23.487 19.077 23.544 19.073 23.6 19.054 23.655 19.036 23.711 19.007 23.759 18.964 23.798 18.922 23.836 18.87 23.861 18.811 23.87 18.754 23.876 18.704 23.875 18.655 23.861 18.606 23.849 18.564 23.826 18.525 23.794 18.487 23.76 18.457 23.719 18.431 23.667 18.407 23.614 18.388 23.554 18.379 23.486L18.376 23.468 18.375 23.446 18.375 23.446z"/>
  <path stroke="none" fill="#000000" d="M53.42 16.929C53.421 16.803 53.439 16.681 53.472 16.562 53.505 16.443 53.542 16.338 53.582 16.251 53.622 16.164 53.661 16.089 53.698 16.03L53.158 16.109 53.14 15.99 53.819 15.89 53.835 15.996C53.792 16.071 53.758 16.132 53.732 16.184 53.707 16.234 53.682 16.292 53.658 16.359 53.633 16.428 53.612 16.507 53.594 16.599 53.576 16.69 53.563 16.795 53.554 16.91L53.42 16.929z"/>
  <path stroke="none" fill="#000000" d="M54.566 16.524C54.567 16.513 54.564 16.498 54.561 16.478 54.551 16.408 54.523 16.364 54.473 16.346 54.424 16.327 54.362 16.324 54.289 16.335L54.252 16.341 54.237 16.237C54.258 16.236 54.273 16.234 54.283 16.234 54.35 16.224 54.398 16.202 54.429 16.169 54.459 16.135 54.47 16.096 54.465 16.05 54.459 16.015 54.447 15.989 54.426 15.965 54.408 15.943 54.383 15.928 54.353 15.919 54.323 15.91 54.292 15.909 54.256 15.913 54.219 15.919 54.185 15.933 54.161 15.955 54.134 15.978 54.116 16.007 54.106 16.041 54.097 16.074 54.094 16.111 54.1 16.15L53.981 16.169C53.972 16.109 53.975 16.054 53.991 16.003 54.008 15.951 54.036 15.907 54.079 15.869 54.122 15.833 54.179 15.811 54.25 15.801 54.31 15.791 54.365 15.794 54.414 15.811 54.465 15.827 54.503 15.85 54.533 15.884 54.563 15.916 54.581 15.952 54.587 15.993 54.606 16.117 54.573 16.199 54.491 16.237 54.552 16.242 54.6 16.268 54.633 16.315 54.665 16.362 54.686 16.417 54.697 16.48 54.701 16.518 54.695 16.562 54.676 16.609 54.655 16.657 54.621 16.699 54.573 16.737 54.524 16.775 54.462 16.8 54.386 16.812 54.29 16.823 54.21 16.809 54.146 16.772 54.082 16.736 54.036 16.655 54.009 16.532L54.137 16.513C54.146 16.568 54.164 16.611 54.189 16.641 54.216 16.673 54.247 16.693 54.286 16.701 54.317 16.704 54.344 16.704 54.369 16.704 54.426 16.693 54.472 16.672 54.509 16.638 54.548 16.603 54.567 16.565 54.566 16.524z"/>
  <path stroke="none" fill="#000000" d="M18.292 26.182C18.295 26.056 18.314 25.932 18.346 25.814 18.379 25.695 18.414 25.591 18.455 25.504 18.496 25.416 18.536 25.341 18.573 25.283L18.032 25.362 18.013 25.242 18.693 25.141 18.708 25.25C18.666 25.324 18.632 25.385 18.606 25.435 18.579 25.486 18.554 25.545 18.53 25.612 18.507 25.679 18.486 25.76 18.468 25.852 18.449 25.943 18.437 26.047 18.428 26.163L18.292 26.182z"/>
  <path stroke="none" fill="#000000" d="M18.916 26.085C18.903 25.975 18.917 25.885 18.957 25.817 18.996 25.748 19.059 25.681 19.146 25.614 19.234 25.547 19.292 25.496 19.324 25.464 19.353 25.431 19.364 25.385 19.355 25.323 19.347 25.265 19.323 25.222 19.283 25.195 19.245 25.167 19.196 25.158 19.138 25.164 19.006 25.184 18.949 25.274 18.971 25.434L18.847 25.454C18.838 25.39 18.841 25.329 18.856 25.274 18.871 25.216 18.902 25.169 18.948 25.129 18.993 25.088 19.056 25.062 19.134 25.051 19.187 25.044 19.239 25.047 19.288 25.06 19.338 25.074 19.381 25.103 19.417 25.143 19.454 25.184 19.477 25.239 19.486 25.307 19.495 25.388 19.481 25.454 19.445 25.507 19.408 25.559 19.352 25.612 19.272 25.67 19.195 25.727 19.137 25.772 19.102 25.809 19.065 25.844 19.045 25.89 19.039 25.951L19.571 25.871 19.588 25.986 18.916 26.085z"/>
  <path stroke="none" fill="#000000" d="M53.997 18.783L54.356 18.094 54.459 18.079 54.554 18.716 54.698 18.695 54.713 18.8 54.57 18.821 54.604 19.059 54.481 19.077 54.447 18.839 54.43 18.734 54.365 18.285 54.113 18.78 54.43 18.734 54.447 18.839 54.015 18.903 53.997 18.783 53.997 18.783z"/>
  <path stroke="none" fill="#000000" d="M54.759 18.394C54.753 18.344 54.752 18.297 54.758 18.254 54.764 18.208 54.777 18.169 54.798 18.132 54.817 18.097 54.845 18.068 54.881 18.042 54.917 18.018 54.96 18.001 55.012 17.992 55.101 17.978 55.176 17.989 55.235 18.024 55.295 18.059 55.34 18.108 55.369 18.169 55.399 18.228 55.42 18.294 55.429 18.362 55.445 18.464 55.45 18.553 55.442 18.629 55.435 18.705 55.42 18.768 55.398 18.818 55.374 18.87 55.344 18.908 55.31 18.937 55.274 18.966 55.235 18.986 55.192 18.996 55.192 18.996 55.173 19.001 55.159 19.003 55.109 19.01 55.058 19.007 55.012 18.995 54.966 18.983 54.926 18.957 54.893 18.922 54.86 18.885 54.838 18.839 54.829 18.783L54.951 18.763C54.979 18.867 55.043 18.911 55.143 18.899 55.183 18.893 55.218 18.876 55.246 18.846 55.274 18.815 55.295 18.771 55.308 18.714 55.323 18.657 55.328 18.585 55.325 18.501 55.299 18.542 55.268 18.574 55.228 18.6L55.207 18.492C55.235 18.469 55.255 18.44 55.265 18.407 55.277 18.371 55.28 18.332 55.274 18.289 55.274 18.289 55.27 18.271 55.265 18.25 55.247 18.19 55.219 18.149 55.179 18.125 55.137 18.1 55.093 18.091 55.043 18.099 54.985 18.109 54.942 18.138 54.912 18.181 54.884 18.225 54.872 18.274 54.881 18.333 54.905 18.484 54.976 18.553 55.098 18.538L55.104 18.535 55.106 18.533C55.146 18.527 55.18 18.513 55.207 18.492L55.228 18.6C55.191 18.626 55.149 18.643 55.104 18.65 55.052 18.657 55.002 18.652 54.953 18.634 54.904 18.615 54.862 18.586 54.826 18.545 54.792 18.504 54.77 18.454 54.759 18.394L54.759 18.394z"/>
  <path stroke="none" fill="#000000" d="M18.576 28.036L18.934 27.346 19.038 27.33 19.132 27.969 19.275 27.946 19.292 28.053 19.147 28.074 19.182 28.312 19.06 28.329 19.025 28.092 19.01 27.986 18.943 27.536 18.693 28.033 19.01 27.986 19.025 28.092 18.594 28.157 18.576 28.036 18.576 28.036z"/>
  <path stroke="none" fill="#000000" d="M19.951 27.451C19.958 27.493 19.957 27.53 19.948 27.559 19.939 27.588 19.928 27.611 19.914 27.625 19.9 27.64 19.882 27.657 19.858 27.675 19.92 27.69 19.966 27.719 19.998 27.759 20.028 27.8 20.047 27.843 20.054 27.888 20.062 27.934 20.059 27.975 20.047 28.018 20.036 28.059 20.016 28.096 19.99 28.129 19.963 28.161 19.931 28.19 19.894 28.21 19.856 28.233 19.815 28.246 19.771 28.253 19.728 28.26 19.687 28.259 19.643 28.251 19.599 28.242 19.557 28.228 19.518 28.207 19.469 28.179 19.437 28.146 19.42 28.109 19.402 28.071 19.39 28.032 19.384 27.99 19.367 27.878 19.411 27.789 19.513 27.727L19.547 27.632C19.583 27.655 19.626 27.663 19.673 27.655 19.727 27.647 19.766 27.626 19.794 27.593 19.821 27.557 19.83 27.518 19.824 27.471 19.818 27.434 19.8 27.402 19.768 27.376 19.734 27.352 19.687 27.344 19.621 27.355 19.562 27.362 19.522 27.385 19.501 27.42 19.481 27.454 19.474 27.492 19.48 27.53 19.486 27.576 19.509 27.609 19.547 27.632L19.513 27.727 19.583 27.803C19.556 27.826 19.536 27.852 19.524 27.882 19.513 27.913 19.51 27.943 19.515 27.975 19.519 28.004 19.53 28.033 19.547 28.062 19.564 28.089 19.589 28.111 19.623 28.126 19.658 28.143 19.701 28.146 19.754 28.138 19.885 28.118 19.94 28.047 19.923 27.923 19.914 27.859 19.888 27.815 19.844 27.789 19.801 27.762 19.751 27.753 19.692 27.762L19.692 27.762C19.647 27.768 19.611 27.782 19.583 27.803L19.513 27.727C19.42 27.705 19.367 27.649 19.353 27.554 19.347 27.515 19.35 27.474 19.362 27.429 19.375 27.385 19.402 27.347 19.442 27.31 19.483 27.275 19.539 27.253 19.611 27.242 19.679 27.231 19.739 27.236 19.789 27.254 19.838 27.271 19.876 27.298 19.902 27.335 19.929 27.37 19.946 27.408 19.951 27.451L19.951 27.451z"/>
  <path stroke="none" fill="#000000" d="M54.545 21.329C54.533 21.217 54.546 21.128 54.585 21.059 54.625 20.992 54.689 20.923 54.776 20.856 54.863 20.789 54.921 20.739 54.953 20.707 54.982 20.675 54.993 20.628 54.984 20.565 54.975 20.507 54.951 20.466 54.914 20.437 54.875 20.411 54.826 20.4 54.768 20.408 54.636 20.428 54.579 20.518 54.6 20.678L54.478 20.696C54.468 20.632 54.47 20.573 54.485 20.516 54.5 20.46 54.53 20.411 54.576 20.371 54.622 20.332 54.685 20.306 54.762 20.294 54.816 20.286 54.868 20.289 54.917 20.303 54.968 20.318 55.009 20.346 55.046 20.387 55.082 20.428 55.106 20.483 55.116 20.55 55.124 20.631 55.109 20.696 55.073 20.75 55.037 20.801 54.981 20.856 54.902 20.913 54.823 20.969 54.767 21.015 54.731 21.051 54.695 21.086 54.673 21.134 54.667 21.193L55.2 21.114 55.216 21.23 54.545 21.329z"/>
  <path stroke="none" fill="#000000" d="M55.295 20.966L55.423 20.946C55.453 21.053 55.531 21.097 55.658 21.079 55.71 21.071 55.753 21.045 55.787 21.003 55.822 20.96 55.837 20.907 55.832 20.844 55.82 20.765 55.79 20.71 55.743 20.678 55.698 20.644 55.643 20.634 55.582 20.643 55.542 20.647 55.506 20.661 55.475 20.682 55.442 20.704 55.42 20.728 55.409 20.76L55.301 20.768 55.296 20.231 55.807 20.157 55.826 20.277 55.408 20.338 55.406 20.615C55.423 20.594 55.445 20.576 55.478 20.559 55.511 20.544 55.546 20.533 55.585 20.527 55.628 20.521 55.67 20.522 55.712 20.532 55.753 20.541 55.79 20.556 55.825 20.579 55.859 20.602 55.887 20.629 55.911 20.664 55.935 20.699 55.95 20.739 55.956 20.782 55.966 20.847 55.963 20.908 55.947 20.963 55.932 21.018 55.901 21.065 55.853 21.105 55.807 21.144 55.744 21.172 55.665 21.187 55.618 21.195 55.573 21.195 55.531 21.187 55.49 21.179 55.451 21.167 55.42 21.146 55.387 21.126 55.359 21.1 55.338 21.071 55.317 21.039 55.302 21.004 55.295 20.966z"/>
  <path stroke="none" fill="#000000" d="M19.123 30.582C19.111 30.469 19.126 30.379 19.164 30.312 19.204 30.243 19.268 30.175 19.355 30.109 19.442 30.042 19.501 29.992 19.532 29.96 19.562 29.928 19.573 29.879 19.562 29.818 19.554 29.76 19.53 29.718 19.492 29.69 19.452 29.663 19.405 29.652 19.347 29.66 19.213 29.679 19.158 29.769 19.178 29.931L19.056 29.949C19.047 29.885 19.05 29.824 19.065 29.768 19.079 29.713 19.109 29.664 19.155 29.623 19.202 29.583 19.263 29.557 19.341 29.547 19.394 29.539 19.446 29.542 19.495 29.556 19.545 29.57 19.588 29.597 19.626 29.638 19.661 29.681 19.684 29.736 19.695 29.803 19.702 29.884 19.689 29.949 19.652 30.001 19.617 30.053 19.559 30.108 19.481 30.166 19.402 30.222 19.344 30.268 19.309 30.303 19.274 30.338 19.253 30.387 19.246 30.446L19.778 30.367 19.795 30.481 19.123 30.582z"/>
  <path stroke="none" fill="#000000" d="M19.844 30.105L20.204 29.414 20.306 29.399 20.4 30.036 20.545 30.015 20.561 30.121 20.417 30.143 20.452 30.381 20.329 30.399 20.294 30.161 20.278 30.056 20.211 29.606 19.961 30.102 20.278 30.056 20.294 30.161 19.862 30.225 19.844 30.105 19.844 30.105z"/>
  <path stroke="none" fill="#000000" d="M55.371 23.468L55.268 22.772 55.039 22.806 55.024 22.708C55.04 22.704 55.064 22.699 55.097 22.69 55.13 22.681 55.158 22.67 55.179 22.655 55.203 22.641 55.22 22.62 55.235 22.591 55.252 22.564 55.259 22.527 55.261 22.481L55.357 22.466 55.503 23.448 55.371 23.468z"/>
  <polyline stroke-width="0.13" stroke-miterlimit="2" points="52.088 8.349 42.325 10.298 36.777 9.41"/>
  <line stroke-width="0.13" stroke-miterlimit="2" x1="21.588" y1="14.599" x2="21.716" y2="15.239"/>
  <line stroke-width="0.13" stroke-miterlimit="2" x1="26.335" y1="13.678" x2="26.457" y2="14.291"/>
  <line stroke-width="0.13" stroke-miterlimit="2" x1="31.202" y1="11.112" x2="31.631" y2="13.259"/>
  <line stroke-width="0.13" stroke-miterlimit="2" x1="36.43" y1="10.352" x2="36.804" y2="12.226"/>
  <line stroke-width="0.13" stroke-miterlimit="2" x1="46.575" y1="9.641" x2="46.697" y2="10.25"/>
  <line stroke-width="0.13" stroke-miterlimit="2" x1="41.829" y1="10.452" x2="41.978" y2="11.192"/>
  <line stroke-width="0.13" stroke-miterlimit="2" x1="27.443" y1="12.734" x2="27.222" y2="13.314"/>
  <line stroke-width="0.13" stroke-miterlimit="2" x1="22.664" y1="14.39" x2="22.791" y2="15.023"/>
  <line stroke-width="0.13" stroke-miterlimit="2" x1="27.403" y1="13.429" x2="27.533" y2="14.076"/>
  <line stroke-width="0.13" stroke-miterlimit="2" x1="32.206" y1="10.541" x2="32.706" y2="13.044"/>
  <line stroke-width="0.13" stroke-miterlimit="2" x1="37.42" y1="9.711" x2="37.88" y2="12.01"/>
  <line stroke-width="0.13" stroke-miterlimit="2" x1="47.649" y1="9.426" x2="47.771" y2="10.035"/>
  <line stroke-width="0.13" stroke-miterlimit="2" x1="42.93" y1="10.362" x2="43.052" y2="10.977"/>
  <polyline stroke-width="0.13" stroke-miterlimit="2" points="52.308 7.769 42.545 9.718 36.884 8.823"/>
  <polyline stroke-width="0.22" stroke-miterlimit="2" points="51.972 7.016 42.527 8.901 36.72 7.974"/>
  <path stroke-width="0.22" stroke-miterlimit="2" d="M52.128 5.812L51.744 6.802"/>
  <path stroke-width="0.22" stroke-miterlimit="2" d="M14.385 19.512C14.272 18.189 15.137 16.98 16.425 16.658L54.223 9.111C55.536 8.913 56.799 9.698 57.203 10.962"/>
  <polyline stroke-width="0.13" stroke-miterlimit="2" points="17.667 15.223 27.222 13.314 32.273 10.211"/>
  <polyline stroke-width="0.13" stroke-miterlimit="2" points="17.89 14.641 27.443 12.734 32.491 9.63"/>
  <polyline stroke-width="0.22" stroke-miterlimit="2" points="17.698 13.859 27.143 11.974 32.204 8.864"/>
  <line stroke-width="0.22" stroke-miterlimit="2" x1="14.579" y1="16.376" x2="14.785" y2="17.407"/>
  <line stroke-width="0.13" stroke-miterlimit="2" x1="26.693" y1="36.186" x2="26.893" y2="37.188"/>
  <line stroke-width="0.13" stroke-miterlimit="2" x1="26.963" y1="37.536" x2="26.972" y2="37.578"/>
  <line stroke-width="0.13" stroke-miterlimit="2" x1="31.434" y1="35.24" x2="31.635" y2="36.241"/>
  <line stroke-width="0.13" stroke-miterlimit="2" x1="31.704" y1="36.59" x2="31.71" y2="36.618"/>
  <line stroke-width="0.13" stroke-miterlimit="2" x1="36.609" y1="34.207" x2="37.155" y2="36.941"/>
  <line stroke-width="0.13" stroke-miterlimit="2" x1="41.781" y1="33.173" x2="42.359" y2="36.06"/>
  <line stroke-width="0.13" stroke-miterlimit="2" x1="51.673" y1="31.199" x2="51.871" y2="32.182"/>
  <line stroke-width="0.13" stroke-miterlimit="2" x1="51.944" y1="32.548" x2="51.953" y2="32.595"/>
  <line stroke-width="0.13" stroke-miterlimit="2" x1="46.956" y1="32.14" x2="47.152" y2="33.125"/>
  <line stroke-width="0.13" stroke-miterlimit="2" x1="32.098" y1="37.585" x2="31.219" y2="39.911"/>
  <line stroke-width="0.13" stroke-miterlimit="2" x1="47.468" y1="34.554" x2="46.612" y2="36.817"/>
  <polyline stroke-width="0.22" stroke-miterlimit="2" points="22.291 41.901 31.134 40.134 37 41.063"/>
  <polyline stroke-width="0.22" stroke-miterlimit="2" points="55.963 35.177 55.963 35.177 46.518 37.064 42.216 39.707"/>
  <line stroke-width="0.13" stroke-miterlimit="2" x1="27.768" y1="35.972" x2="27.968" y2="36.973"/>
  <line stroke-width="0.13" stroke-miterlimit="2" x1="32.509" y1="35.024" x2="32.753" y2="36.244"/>
  <line stroke-width="0.13" stroke-miterlimit="2" x1="37.683" y1="33.991" x2="38.159" y2="36.378"/>
  <line stroke-width="0.13" stroke-miterlimit="2" x1="42.86" y1="32.979" x2="43.353" y2="35.448"/>
  <line stroke-width="0.13" stroke-miterlimit="2" x1="52.749" y1="30.984" x2="52.945" y2="31.969"/>
  <line stroke-width="0.13" stroke-miterlimit="2" x1="48.03" y1="31.925" x2="48.226" y2="32.911"/>
  <line stroke-width="0.13" stroke-miterlimit="2" x1="48.299" y1="33.276" x2="48.307" y2="33.307"/>
  <polyline stroke-width="0.22" stroke-miterlimit="2" points="22.489 38.427 32.186 36.493 38.04 37.42"/>
  <polyline stroke-width="0.13" stroke-miterlimit="2" points="22.911 39.161 32.203 37.31 38.069 38.238"/>
  <polyline stroke-width="0.22" stroke-miterlimit="2" points="57.052 31.528 47.289 33.478 42.268 36.561"/>
  <polyline stroke-width="0.13" stroke-miterlimit="2" points="57.031 32.353 47.587 34.238 42.749 37.21"/>
  <line stroke-width="0.13" stroke-miterlimit="2" x1="59.677" y1="29.14" x2="59.78" y2="29.66"/>
  <line stroke-width="0.13" stroke-miterlimit="2" x1="60.121" y1="29.684" x2="59.95" y2="28.821"/>
  <line stroke-width="0.22" stroke-miterlimit="2" x1="18.868" y1="37.859" x2="18.678" y2="36.905"/>
 </g>
 <g id="Picture_x0020_#">
  <text transform="matrix(0 -1 1 0 73.822 47.7)" stroke="none" fill="#000000" font-family="'Helvetica'" font-size="2.117">162 289</text>
 </g>
</svg>
