<?xml version="1.0" encoding="utf-8"?>
<!DOCTYPE svg PUBLIC "-//W3C//DTD SVG 1.1//EN" "http://www.w3.org/Graphics/SVG/1.1/DTD/svg11.dtd">
<!-- Generator: PTC Arbortext IsoDraw 7.3 -->
<svg width="100%" height="100%" viewBox="0 0 75.006 51.972"
 xmlns="http://www.w3.org/2000/svg" xmlns:xlink="http://www.w3.org/1999/xlink"
 fill-rule="evenodd" clip-rule="evenodd" stroke="#000000" stroke-linecap="round" fill="none" xml:space="preserve">
 <g id="Standard_x0020_layer">
  <path stroke="#1A171B" stroke-width="0.131" stroke-linejoin="round" stroke-miterlimit="3" d="M56.295 20.67C56.317 20.51 56.136 20.385 55.988 20.428C55.779 20.49 55.619 20.681 55.579 20.894C55.548 21.051 55.652 21.602 55.902 21.376"/>
  <path stroke="#1A171B" stroke-width="0.131" stroke-linejoin="round" stroke-miterlimit="3" d="M55.542 21.176L57.792 22.428"/>
  <path stroke="#1A171B" stroke-width="0.076" stroke-linejoin="round" stroke-miterlimit="3" d="M55.634 21.135L57.718 22.289"/>
  <path stroke="#1A171B" stroke-width="0.076" stroke-linejoin="round" stroke-miterlimit="3" d="M55.706 20.823L57.698 21.926"/>
  <path stroke="#1A171B" stroke-width="0.076" stroke-linejoin="round" stroke-miterlimit="3" d="M55.651 21.001L57.67 22.12"/>
  <path stroke="#1A171B" stroke-width="0.076" stroke-linejoin="round" stroke-miterlimit="3" d="M55.817 20.743L57.868 21.881"/>
  <path stroke="#1A171B" stroke-width="0.131" stroke-linejoin="round" stroke-miterlimit="3" d="M55.963 20.484L58.201 21.743"/>
  <path stroke="#1A171B" stroke-width="0.076" stroke-linejoin="round" stroke-miterlimit="3" d="M55.918 20.62L57.994 21.769"/>
  <path stroke="#1A171B" stroke-width="0.131" stroke-linejoin="round" stroke-miterlimit="3" d="M57.792 22.428C58.106 22.522 58.326 22.077 58.182 21.827C58.017 21.541 57.304 22.219 57.792 22.428C57.747 22.41 57.704 22.39 57.661 22.371C57.729 22.364 57.787 22.387 57.835 22.437C57.79 22.414 57.746 22.391 57.701 22.37C57.768 22.411 57.972 22.405 57.71 22.407C57.779 22.381 57.85 22.439 57.911 22.46C57.851 22.44 57.793 22.42 57.737 22.399C57.786 22.408 57.834 22.425 57.878 22.449C57.829 22.431 57.779 22.414 57.728 22.399C57.781 22.428 57.872 22.544 57.939 22.469C57.875 22.542 57.801 22.4 57.74 22.4C57.761 22.4 57.892 22.431 57.889 22.454C57.899 22.393 57.762 22.402 57.731 22.397C57.811 22.408 57.862 22.518 57.951 22.472C57.875 22.51 57.796 22.446 57.741 22.405C57.764 22.417 57.869 22.5 57.893 22.454C57.887 22.471 57.746 22.411 57.731 22.399C57.798 22.434 57.871 22.504 57.954 22.474C57.881 22.501 57.798 22.446 57.741 22.405C57.768 22.419 57.866 22.496 57.896 22.455C57.868 22.481 57.756 22.417 57.731 22.399C57.776 22.423 57.89 22.516 57.942 22.469C57.893 22.513 57.792 22.4 57.74 22.402C57.756 22.402 57.884 22.475 57.89 22.454C57.895 22.44 57.75 22.399 57.731 22.397C57.795 22.405 57.878 22.506 57.953 22.472C57.917 22.489 57.773 22.426 57.741 22.405C57.753 22.41 57.887 22.466 57.892 22.454C57.896 22.442 57.731 22.399 57.731 22.399C57.75 22.411 57.771 22.42 57.792 22.428C58.256 22.568 57.552 22.326 57.792 22.428z"/>
  <path stroke="#1A171B" stroke-width="0.131" stroke-linejoin="round" stroke-miterlimit="3" d="M38.578 8.298C39.963 9.5 41.398 10.643 42.835 11.779C44.24 12.891 45.628 14.028 47.115 15.029C50.039 17.003 53.055 18.849 56.21 20.434"/>
  <path stroke="#1A171B" stroke-width="0.131" stroke-linejoin="round" stroke-miterlimit="3" d="M38.762 10.058C41.371 12.199 44.005 14.316 46.795 16.216C48.161 17.146 49.59 17.981 51.027 18.797C52.558 19.667 54.079 20.559 55.615 21.422"/>
  <path stroke="#1A171B" stroke-width="0.131" stroke-linejoin="round" stroke-miterlimit="3" d="M59.365 28.564C58.158 30.041 56.947 31.516 55.743 32.996C54.618 34.381 53.484 35.77 52.578 37.31C51.652 38.884 50.854 40.527 50.006 42.142C49.109 43.847 48.179 45.534 47.317 47.258"/>
  <path stroke="#1A171B" stroke-width="0.131" stroke-linejoin="round" stroke-miterlimit="3" d="M58.09 32.417C58.92 32.878 59.767 31.367 58.935 30.903C58.103 30.439 57.259 31.951 58.09 32.417z"/>
  <path stroke="#1A171B" stroke-width="0.131" stroke-linejoin="round" stroke-miterlimit="3" d="M62.345 32.31C63.347 35.039 63.71 37.999 63.399 40.889C63.24 42.38 62.878 43.844 62.396 45.262C61.936 46.619 61.695 48.121 62.121 49.518"/>
  <path stroke="#1A171B" stroke-width="0.131" stroke-linejoin="round" stroke-miterlimit="3" d="M68.212 28.797C68.599 29.524 68.355 30.496 67.7 30.984C67.31 31.274 66.84 31.431 66.457 31.731C66.081 32.026 65.792 32.432 65.641 32.887C65.302 33.914 65.719 34.966 65.879 35.982C66.058 37.119 66.064 38.277 65.977 39.423C65.816 41.557 65.265 43.671 64.287 45.581C63.845 46.445 63.283 47.296 63.204 48.289C63.158 48.863 63.311 49.534 63.003 50.058C62.383 51.112 61.036 49.743 60.646 49.171C59.887 48.064 60.021 46.667 60.329 45.43C60.686 43.997 61.225 42.612 61.484 41.155C61.759 39.618 61.771 38.036 61.576 36.488"/>
  <path stroke="#1A171B" stroke-width="0.131" stroke-linejoin="round" stroke-miterlimit="3" d="M61.097 32.886C61.512 33.927 61.816 35.011 62.002 36.116"/>
  <path stroke="#1A171B" stroke-width="0.131" stroke-linejoin="round" stroke-miterlimit="3" d="M62.981 38.225C62.768 37.362 62.298 36.594 61.844 35.838C61.341 35.008 60.856 34.164 60.363 33.326"/>
  <path stroke="#1A171B" stroke-width="0.131" stroke-linejoin="round" stroke-miterlimit="3" d="M62.889 38.424C62.68 37.54 62.219 36.746 61.759 35.973C61.249 35.118 60.747 34.258 60.243 33.399"/>
  <path stroke="#1A171B" stroke-width="0.131" stroke-linejoin="round" stroke-miterlimit="3" d="M59.889 33.612C60.466 34.597 61.045 35.582 61.624 36.567C61.88 37.003 62.149 37.444 62.286 37.936C62.329 38.087 62.365 38.277 62.529 38.345C62.664 38.404 62.917 38.481 62.984 38.286"/>
  <path stroke="#1A171B" stroke-width="0.131" stroke-linejoin="round" stroke-miterlimit="3" d="M62.182 37.61C62.341 39.786 62.043 41.994 61.32 44.051C60.965 45.058 60.573 46.084 60.554 47.165C60.546 47.679 60.561 48.203 60.728 48.692C60.868 49.1 61.292 49.281 61.606 49.53C61.206 48.222 61.311 46.789 61.789 45.514C62.313 44.112 62.674 42.651 62.853 41.164C63.204 38.24 62.872 35.232 61.878 32.459"/>
  <path stroke="#1A171B" stroke-width="0.131" stroke-linejoin="round" stroke-miterlimit="3" d="M61.308 34.936C61.17 34.305 60.993 33.683 60.783 33.075"/>
  <path stroke="#1A171B" stroke-width="0.131" stroke-linejoin="round" stroke-miterlimit="3" d="M66.831 24.628C65.542 24.073 64.015 24.963 63.53 26.202C63.067 27.387 63.502 28.986 64.73 29.515C66.019 30.071 67.545 29.178 68.03 27.939C68.493 26.754 68.06 25.155 66.831 24.628z"/>
  <path stroke="#1A171B" stroke-width="0.131" stroke-linejoin="round" stroke-miterlimit="3" d="M66.626 25.105C64.451 24.17 62.753 28.109 64.941 29.041C67.108 29.966 68.798 26.039 66.626 25.105z"/>
  <path stroke="#1A171B" stroke-width="0.131" stroke-linejoin="round" stroke-miterlimit="3" d="M66.6 24.469C65.361 23.934 63.889 24.742 63.357 25.91C62.848 27.027 63.14 28.559 64.236 29.219"/>
  <path stroke="#1A171B" stroke-width="0.131" stroke-linejoin="round" stroke-miterlimit="3" d="M67.096 24.763C66.944 24.643 66.778 24.545 66.602 24.469"/>
  <path stroke="#1A171B" stroke-width="0.131" stroke-linejoin="round" stroke-miterlimit="3" d="M59.365 28.564C59.661 28.271 59.819 27.855 59.826 27.442C59.829 27.239 59.804 27.033 59.859 26.835C59.917 26.629 60.045 26.454 60.125 26.26C60.234 25.99 60.24 25.617 60.536 25.469C60.896 25.289 61.164 25.686 61.45 25.829"/>
  <path stroke="#1A171B" stroke-width="0.131" stroke-linejoin="round" stroke-miterlimit="3" d="M59.567 27.843C59.683 27.493 59.567 27.12 59.654 26.768C59.732 26.449 59.942 26.189 60.063 25.888C60.143 25.687 60.21 25.376 60.476 25.359C60.79 25.338 61.003 25.609 61.259 25.739"/>
  <path stroke="#1A171B" stroke-width="0.131" stroke-linejoin="round" stroke-miterlimit="3" d="M57.762 26.888C57.908 26.452 57.753 26.021 57.951 25.6"/>
  <path stroke="#1A171B" stroke-width="0.131" stroke-linejoin="round" stroke-miterlimit="3" d="M57.762 26.888L59.576 27.847"/>
  <path stroke="#1A171B" stroke-width="0.131" stroke-linejoin="round" stroke-miterlimit="3" d="M61.45 25.829C61.881 26.045 62.365 25.811 62.734 25.573C63.14 25.312 63.576 25.077 63.905 24.716C64.194 24.397 64.332 23.963 64.335 23.536C64.338 23.289 64.316 23.042 64.262 22.8C64.209 22.571 64.055 22.309 64.209 22.085C64.421 21.778 64.847 21.96 65.132 21.795C65.492 21.582 65.394 21.102 65.441 20.754C65.563 19.884 65.993 19.019 66.737 18.521C67.201 18.213 68.099 17.783 67.762 17.082C67.602 16.754 67.215 16.565 67.147 16.187C67.069 15.739 67.453 15.407 67.7 15.089C68.072 14.609 68.308 13.778 69.007 13.686C69.409 13.632 69.739 13.865 70.01 14.134C70.384 14.509 70.727 14.916 71.088 15.303C71.813 16.077 72.635 16.746 73.382 17.495C73.694 17.806 74.075 18.149 74.123 18.614C74.174 19.108 73.811 19.524 73.495 19.858C72.792 20.606 72.117 21.388 71.537 22.239C70.918 23.15 70.436 24.143 69.99 25.149C69.234 26.852 68.557 28.695 67.173 30.004C65.751 31.349 63.801 31.725 62.058 32.47C60.238 33.25 58.756 34.582 57.436 36.03C55.948 37.662 54.573 39.399 53.243 41.161C52.576 42.045 51.915 42.932 51.32 43.863C50.75 44.753 50.27 45.704 49.609 46.531C49.076 47.198 48.305 47.975 47.371 47.871C46.53 47.776 45.914 46.988 45.787 46.189C45.643 45.28 46.201 44.493 46.685 43.78C47.274 42.908 47.734 41.957 48.201 41.015C49.146 39.106 50.066 37.179 51.207 35.378C52.32 33.625 53.648 32.024 54.926 30.391C55.588 29.545 56.235 28.689 56.887 27.835C57.161 27.475 57.435 27.1 57.56 26.661C57.691 26.198 57.671 25.698 57.878 25.256"/>
  <path stroke="#1A171B" stroke-width="0.131" stroke-linejoin="round" stroke-miterlimit="3" d="M61.255 25.736C62.012 26.114 62.79 25.455 63.299 24.952C63.874 24.385 64.292 23.626 64.052 22.806C63.973 22.535 63.847 22.161 64.102 21.94C64.385 21.693 64.816 21.774 65.084 21.486C65.596 20.937 65.322 20.05 65.686 19.422C66.055 18.783 66.745 18.422 67.233 17.888C67.478 17.623 67.698 17.251 67.501 16.893C67.343 16.603 67.013 16.44 66.923 16.106C66.745 15.442 67.537 14.977 67.896 14.548C68.26 14.112 68.704 13.324 69.388 13.65"/>
  <path stroke="#1A171B" stroke-width="0.131" stroke-linejoin="round" stroke-miterlimit="3" d="M65.138 21.599L65.332 21.693"/>
  <path stroke="#1A171B" stroke-width="0.131" stroke-linejoin="round" stroke-miterlimit="3" d="M64.138 22.123L63.942 22.027"/>
  <path stroke="#1A171B" stroke-width="0.131" stroke-linejoin="round" stroke-miterlimit="3" d="M58.161 26.591L59.637 27.335"/>
  <path stroke="#1A171B" stroke-width="0.131" stroke-linejoin="round" stroke-miterlimit="3" d="M58.161 26.591L57.493 23.425"/>
  <path stroke="#1A171B" stroke-width="0.131" stroke-linejoin="round" stroke-miterlimit="3" d="M57.823 23.121C57.643 23.086 57.475 23.242 57.493 23.425"/>
  <path stroke="#1A171B" stroke-width="0.131" stroke-linejoin="round" stroke-miterlimit="3" d="M57.823 23.121C58.42 23.414 59.115 23.528 59.622 23.984C60.125 24.435 60.036 25.167 60.121 25.774"/>
  <path stroke="#1A171B" stroke-width="0.131" stroke-linejoin="round" stroke-miterlimit="3" d="M57.654 23.242C57.968 23.396 58.277 23.559 58.594 23.704C58.895 23.844 59.222 23.932 59.494 24.129C59.728 24.295 59.789 24.599 59.813 24.867C59.85 25.274 59.921 25.676 59.978 26.082"/>
  <path stroke="#1A171B" stroke-width="0.131" stroke-linejoin="round" stroke-miterlimit="3" d="M63.549 24.794C63.621 24.242 63.524 23.664 63.25 23.178C63.003 22.736 62.573 22.446 62.216 22.103C61.463 21.382 61.42 20.28 61.084 19.355C60.893 18.832 60.618 18.341 60.271 17.908C59.899 17.446 59.42 17.071 59.115 16.556C58.509 15.534 59.011 14.326 59.417 13.333"/>
  <path stroke="#1A171B" stroke-width="0.131" stroke-linejoin="round" stroke-miterlimit="3" d="M62.045 25.777C62.1 25.647 62.148 25.515 62.185 25.379"/>
  <path stroke="#1A171B" stroke-width="0.25" stroke-linejoin="round" stroke-miterlimit="3" d="M57.197 12.759C57.704 12.891 58.213 13.022 58.72 13.153C58.963 13.215 59.219 13.239 59.448 13.348C59.679 13.457 59.875 13.621 60.093 13.753C60.319 13.89 60.738 13.868 60.853 14.151C60.993 14.496 60.429 14.693 60.597 15.028C60.677 15.191 60.868 15.237 61.026 15.287C61.289 15.368 61.527 15.512 61.771 15.637C62.267 15.897 62.753 16.175 63.246 16.44C64.281 16.996 65.331 17.527 66.375 18.07"/>
  <path stroke="#1A171B" stroke-width="0.131" stroke-linejoin="round" stroke-miterlimit="3" d="M63.755 20.929C62.939 19.722 62.125 18.516 61.31 17.309C62.219 17.798 63.131 18.286 64.037 18.777C64.29 18.916 64.614 19.161 64.456 19.486C64.222 19.968 63.991 20.451 63.755 20.929z"/>
  <path stroke="#1A171B" stroke-width="0.131" stroke-linejoin="round" stroke-miterlimit="3" d="M61.496 17.583C62.283 18.006 63.042 18.48 63.854 18.853C64.09 18.961 64.439 19.187 64.257 19.489C64.016 19.89 63.84 20.327 63.633 20.748"/>
  <path stroke="#1A171B" stroke-width="0.131" stroke-linejoin="round" stroke-miterlimit="3" d="M64.421 19.152L64.658 19.103"/>
  <path stroke="#1A171B" stroke-width="0.131" stroke-linejoin="round" stroke-miterlimit="3" d="M64.23 10.361L65.649 11.074"/>
  <path stroke="#1A171B" stroke-width="0.131" stroke-linejoin="round" stroke-miterlimit="3" d="M69.304 12.391C68.834 11.958 68.188 11.771 67.561 11.885"/>
  <path stroke="#1A171B" stroke-width="0.131" stroke-linejoin="round" stroke-miterlimit="3" d="M65.649 11.074C66.256 11.41 66.897 11.682 67.561 11.885"/>
  <path stroke="#1A171B" stroke-width="0.131" stroke-linejoin="round" stroke-miterlimit="3" d="M64.23 10.361C63.798 10.16 63.317 10.122 62.848 10.073C62.256 10.009 61.667 9.9 61.072 9.88C60.597 9.862 60.106 9.929 59.689 10.166C59.283 10.397 59.015 10.791 58.74 11.154"/>
  <path stroke="#1A171B" stroke-width="0.131" stroke-linejoin="round" stroke-miterlimit="3" d="M64.543 10.518C63.895 10.284 63.174 10.195 62.5 10.372C61.853 10.542 61.377 11.057 60.987 11.573"/>
  <path stroke="#1A171B" stroke-width="0.131" stroke-linejoin="round" stroke-miterlimit="3" d="M61.972 12.762C61.665 12.701 61.36 12.631 61.051 12.576C60.731 12.519 60.399 12.512 60.091 12.397C59.844 12.304 59.692 12.079 59.521 11.894C59.286 11.641 59.021 11.419 58.768 11.182C58.768 11.182 58.768 11.182 60.823 11.544C61.036 11.582 61.156 11.778 61.283 11.931C61.512 12.208 61.743 12.484 61.972 12.762C62.116 12.609 62.198 12.374 62.417 12.31C62.649 12.243 62.765 12.516 62.884 12.657C63.296 13.144 63.811 13.525 64.29 13.942C65.387 14.894 66.444 15.891 67.519 16.867"/>
  <path stroke="#1A171B" stroke-width="0.131" stroke-linejoin="round" stroke-miterlimit="3" d="M69.987 21.213C68.843 20.721 67.95 22.794 69.097 23.283C70.242 23.78 71.135 21.704 69.987 21.213z"/>
  <path stroke="#1A171B" stroke-width="0.131" stroke-linejoin="round" stroke-miterlimit="3" d="M73.206 18.248C72.519 17.954 71.984 19.195 72.671 19.489C73.358 19.783 73.89 18.545 73.206 18.248z"/>
  <path stroke="#1A171B" stroke-width="0.131" stroke-linejoin="round" stroke-miterlimit="3" d="M69.305 14.525C68.618 14.23 68.085 15.473 68.772 15.768C69.459 16.065 69.992 14.821 69.305 14.525z"/>
  <path stroke="#1A171B" stroke-width="0.131" stroke-linejoin="round" stroke-miterlimit="3" d="M60.337 24.599C60.75 24.329 61.173 24.071 61.579 23.789"/>
  <path stroke="#1A171B" stroke-width="0.131" stroke-linejoin="round" stroke-miterlimit="3" d="M60.189 24.472C60.624 24.189 61.107 23.931 61.506 23.599"/>
  <path stroke="#1A171B" stroke-width="0.131" stroke-linejoin="round" stroke-miterlimit="3" d="M64.772 17.231C65.045 17.009 65.466 16.871 65.649 16.568"/>
  <path stroke="#1A171B" stroke-width="0.131" stroke-linejoin="round" stroke-miterlimit="3" d="M64.582 17.132C64.87 16.899 65.313 16.757 65.486 16.417"/>
  <path stroke="#1A171B" stroke-width="0.131" stroke-linejoin="round" stroke-miterlimit="3" d="M61.384 12.644L65.777 16.684"/>
  <path stroke="#1A171B" stroke-width="0.131" stroke-linejoin="round" stroke-miterlimit="3" d="M66.974 17.198C66.695 17.504 66.091 17.981 66.521 18.416"/>
  <path stroke="#1A171B" stroke-width="0.131" stroke-linejoin="round" stroke-miterlimit="3" d="M67.561 17.001C67.305 17.283 66.593 17.807 66.73 18.245"/>
  <path stroke="#1A171B" stroke-width="0.131" stroke-linejoin="round" stroke-miterlimit="3" d="M66.542 14.685C66.858 14.198 67.176 13.711 67.492 13.226C67.159 13.069 66.706 13.023 66.531 12.651C66.341 12.25 65.884 12.106 65.492 11.98C64.984 11.814 64.503 11.573 64.045 11.298C63.865 11.192 63.649 11.057 63.432 11.14C63.228 11.218 63.125 11.426 62.966 11.563C64.158 12.603 65.35 13.644 66.542 14.685z"/>
  <path stroke="#1A171B" stroke-width="0.131" stroke-linejoin="round" stroke-miterlimit="3" d="M66.418 14.576C66.695 14.148 66.974 13.721 67.254 13.292C66.981 13.166 66.629 13.196 66.409 12.967C66.292 12.843 66.257 12.669 66.158 12.534C66.046 12.384 65.865 12.326 65.695 12.274C64.882 12.019 64.161 11.551 63.392 11.195"/>
  <path stroke="#1A171B" stroke-width="0.131" stroke-linejoin="round" stroke-miterlimit="3" d="M66.227 12.506L66.466 12.439"/>
  <path stroke="#1A171B" stroke-width="0.131" stroke-linejoin="round" stroke-miterlimit="3" d="M66.234 12.813L66.474 12.746"/>
  <path stroke="#1A171B" stroke-width="0.131" stroke-linejoin="round" stroke-miterlimit="3" d="M67.492 13.226L67.254 13.292"/>
  <path stroke="#1A171B" stroke-width="0.131" stroke-linejoin="round" stroke-miterlimit="3" d="M67.268 17.323L65.777 16.684"/>
  <path stroke="#1A171B" stroke-width="0.131" stroke-linejoin="round" stroke-miterlimit="3" d="M65.777 16.684C65.59 16.89 65.239 17.163 65.183 17.446"/>
  <path stroke="#1A171B" stroke-width="0.131" stroke-linejoin="round" stroke-miterlimit="3" d="M66.106 16.826C65.915 17.036 65.552 17.315 65.489 17.606"/>
  <path stroke="#1A171B" stroke-width="0.131" stroke-linejoin="round" stroke-miterlimit="3" d="M69.304 12.391C70.359 13.391 71.415 14.391 72.471 15.391C72.965 15.862 73.451 16.338 73.956 16.798C74.135 16.963 74.353 17.163 74.328 17.431C74.302 17.719 74.087 17.934 73.929 18.16"/>
  <path stroke="#1A171B" stroke-width="0.131" stroke-linejoin="round" stroke-miterlimit="3" d="M61.567 21.993C61.405 22.24 61.142 22.478 61.177 22.801C61.216 23.164 61.451 23.457 61.578 23.789"/>
  <path stroke="#1A171B" stroke-width="0.131" stroke-linejoin="round" stroke-miterlimit="3" d="M59.834 24.163L60.414 24.667"/>
  <path stroke="#1A171B" stroke-width="0.131" stroke-linejoin="round" stroke-miterlimit="3" d="M61.375 22.283C61.085 21.995 60.725 21.786 60.451 21.48C60.137 21.126 60.011 20.658 59.887 20.213C59.631 19.283 59.192 18.402 58.588 17.649C58.034 16.96 57.307 16.396 56.932 15.579C56.725 15.125 56.606 14.609 56.707 14.114C56.801 13.64 57.039 13.212 57.197 12.759"/>
  <path stroke="#1A171B" stroke-width="0.131" stroke-linejoin="round" stroke-miterlimit="3" d="M62.704 25.361C62.872 24.123 62.451 22.878 61.567 21.993"/>
  <path stroke="#1A171B" stroke-width="0.131" stroke-linejoin="round" stroke-miterlimit="3" d="M61.963 24.798C62.301 24.44 62.07 23.829 61.578 23.789"/>
  <path stroke="#1A171B" stroke-width="0.131" stroke-linejoin="round" stroke-miterlimit="3" d="M60.414 24.667C60.256 25.158 60.78 25.614 61.244 25.388"/>
  <path stroke="#1A171B" stroke-width="0.131" stroke-linejoin="round" stroke-miterlimit="3" d="M61.963 24.798L62.284 25.635"/>
  <path stroke="#1A171B" stroke-width="0.131" stroke-linejoin="round" stroke-miterlimit="3" d="M61.244 25.388L61.762 25.838"/>
  <path stroke="#1A171B" stroke-width="0.131" stroke-linejoin="round" stroke-miterlimit="3" d="M28.675 11.05C27.631 13.019 26.609 15.003 25.513 16.943C24.434 18.853 23.231 20.687 21.96 22.474C19.277 26.245 16.596 30.018 13.893 33.777"/>
  <path stroke="#1A171B" stroke-width="0.131" stroke-linejoin="round" stroke-miterlimit="3" d="M30.018 11.839C29.01 13.833 28.082 15.871 26.969 17.812C25.85 19.763 24.635 21.66 23.341 23.498C20.673 27.291 17.943 31.039 15.208 34.783C15.182 34.82 15.153 34.859 15.127 34.896"/>
  <path stroke="#1A171B" stroke-width="0.131" stroke-linejoin="round" stroke-miterlimit="3" d="M32.238 3.672L32.502 3.121"/>
  <path stroke="#1A171B" stroke-width="0.131" stroke-linejoin="round" stroke-miterlimit="3" d="M31.926 3.36L32.189 2.81"/>
  <path stroke="#1A171B" stroke-width="0.131" stroke-linejoin="round" stroke-miterlimit="3" d="M32.421 8.461L34.585 3.73"/>
  <path stroke="#1A171B" stroke-width="0.131" stroke-linejoin="round" stroke-miterlimit="3" d="M31.426 7.384L33.591 2.653"/>
  <path stroke="#1A171B" stroke-width="0.131" stroke-linejoin="round" stroke-miterlimit="3" d="M29.022 10.917C28.902 10.903 28.745 10.945 28.675 11.05"/>
  <path stroke="#1A171B" stroke-width="0.131" stroke-linejoin="round" stroke-miterlimit="3" d="M29.946 11.48C29.887 11.189 29.295 10.862 29.022 10.917"/>
  <path stroke="#1A171B" stroke-width="0.131" stroke-linejoin="round" stroke-miterlimit="3" d="M30.018 11.839C30.1 11.717 30.006 11.586 29.946 11.48"/>
  <path stroke="#1A171B" stroke-width="0.131" stroke-linejoin="round" stroke-miterlimit="3" d="M30.082 11.144C30.073 10.849 29.734 10.67 29.486 10.829"/>
  <path stroke="#1A171B" stroke-width="0.131" stroke-linejoin="round" stroke-miterlimit="3" d="M30.213 10.868C30.204 10.557 29.83 10.381 29.586 10.574"/>
  <path stroke="#1A171B" stroke-width="0.131" stroke-linejoin="round" stroke-miterlimit="3" d="M30.321 10.628C30.312 10.333 29.975 10.157 29.725 10.313"/>
  <path stroke="#1A171B" stroke-width="0.131" stroke-linejoin="round" stroke-miterlimit="3" d="M30.89 9.048L32.421 8.461"/>
  <path stroke="#1A171B" stroke-width="0.131" stroke-linejoin="round" stroke-miterlimit="3" d="M29.99 11.412L30.734 9.672"/>
  <path stroke="#1A171B" stroke-width="0.131" stroke-linejoin="round" stroke-miterlimit="3" d="M31.426 7.384L32.421 8.461"/>
  <path stroke="#1A171B" stroke-width="0.131" stroke-linejoin="round" stroke-miterlimit="3" d="M30.088 10.641L30.219 10.367"/>
  <path stroke="#1A171B" stroke-width="0.131" stroke-linejoin="round" stroke-miterlimit="3" d="M29.574 10.558L29.705 10.282"/>
  <path stroke="#1A171B" stroke-width="0.131" stroke-linejoin="round" stroke-miterlimit="3" d="M29.989 8.903L30.528 7.719"/>
  <path stroke="#1A171B" stroke-width="0.131" stroke-linejoin="round" stroke-miterlimit="3" d="M29.059 10.942L29.989 8.903"/>
  <path stroke="#1A171B" stroke-width="0.131" stroke-linejoin="round" stroke-miterlimit="3" d="M28.675 11.05L28.652 11.086"/>
  <path stroke="#1A171B" stroke-width="0.131" stroke-linejoin="round" stroke-miterlimit="3" d="M29.31 10.954L29.417 10.714"/>
  <path stroke="#1A171B" stroke-width="0.131" stroke-linejoin="round" stroke-miterlimit="3" d="M30.422 7.647L31.353 5.623"/>
  <path stroke="#1A171B" stroke-width="0.131" stroke-linejoin="round" stroke-miterlimit="3" d="M30.109 7.336L30.731 5.936"/>
  <path stroke="#1A171B" stroke-width="0.131" stroke-linejoin="round" stroke-miterlimit="3" d="M29.356 8.236L31.519 3.504"/>
  <path stroke="#1A171B" stroke-width="0.131" stroke-linejoin="round" stroke-miterlimit="3" d="M30.109 7.336L30.422 7.647"/>
  <path stroke="#1A171B" stroke-width="0.131" stroke-linejoin="round" stroke-miterlimit="3" d="M30.873 9.055C30.858 9.131 30.849 9.205 30.844 9.276"/>
  <path stroke="#1A171B" stroke-width="0.131" stroke-linejoin="round" stroke-miterlimit="3" d="M30.986 8.702C30.936 8.808 30.897 8.931 30.873 9.055"/>
  <path stroke="#1A171B" stroke-width="0.131" stroke-linejoin="round" stroke-miterlimit="3" d="M30.53 9.06C30.62 8.925 30.736 8.808 30.826 8.676"/>
  <path stroke="#1A171B" stroke-width="0.131" stroke-linejoin="round" stroke-miterlimit="3" d="M30.833 8.651C30.756 8.818 30.693 9.028 30.658 9.212"/>
  <path stroke="#1A171B" stroke-width="0.131" stroke-linejoin="round" stroke-miterlimit="3" d="M30.413 8.933C30.506 8.837 30.586 8.737 30.646 8.618"/>
  <path stroke="#1A171B" stroke-width="0.131" stroke-linejoin="round" stroke-miterlimit="3" d="M29.356 8.236L31.426 7.384"/>
  <path stroke="#1A171B" stroke-width="0.131" stroke-linejoin="round" stroke-miterlimit="3" d="M29.812 10.51L29.945 10.234"/>
  <path stroke="#1A171B" stroke-width="0.131" stroke-linejoin="round" stroke-miterlimit="3" d="M30.542 9.647L30.567 9.612"/>
  <path stroke="#1A171B" stroke-width="0.131" stroke-linejoin="round" stroke-miterlimit="3" d="M30.051 9.528L30.076 9.493"/>
  <path stroke="#1A171B" stroke-width="0.131" stroke-linejoin="round" stroke-miterlimit="3" d="M30.231 9.492L30.254 9.455"/>
  <path stroke="#1A171B" stroke-width="0.131" stroke-linejoin="round" stroke-miterlimit="3" d="M30.667 9.874C30.658 9.58 30.321 9.401 30.071 9.558"/>
  <path stroke="#1A171B" stroke-width="0.131" stroke-linejoin="round" stroke-miterlimit="3" d="M29.356 8.236L29.992 8.917"/>
  <path stroke="#1A171B" stroke-width="0.131" stroke-linejoin="round" stroke-miterlimit="3" d="M30.789 9.692C30.841 9.573 30.876 9.429 30.888 9.295"/>
  <path stroke="#1A171B" stroke-width="0.131" stroke-linejoin="round" stroke-miterlimit="3" d="M30.573 9.044C30.446 9.166 30.341 9.307 30.265 9.468"/>
  <path stroke="#1A171B" stroke-width="0.131" stroke-linejoin="round" stroke-miterlimit="3" d="M30.417 8.935C30.275 9.099 30.158 9.282 30.067 9.478"/>
  <path stroke="#1A171B" stroke-width="0.131" stroke-linejoin="round" stroke-miterlimit="3" d="M30.603 9.66C30.657 9.538 30.693 9.391 30.707 9.256"/>
  <path stroke="#1A171B" stroke-width="0.131" stroke-linejoin="round" stroke-miterlimit="3" d="M31.009 8.712L31.547 7.516"/>
  <path stroke="#1A171B" stroke-width="0.131" stroke-linejoin="round" stroke-miterlimit="3" d="M30.841 8.653L31.426 7.384"/>
  <path stroke="#1A171B" stroke-width="0.131" stroke-linejoin="round" stroke-miterlimit="3" d="M30.649 8.63L31.224 7.456"/>
  <path stroke="#1A171B" stroke-width="0.131" stroke-linejoin="round" stroke-miterlimit="3" d="M31.414 5.456L32.238 3.672"/>
  <path stroke="#1A171B" stroke-width="0.131" stroke-linejoin="round" stroke-miterlimit="3" d="M31.573 5.256C31.719 5.033 31.871 4.841 31.986 4.596"/>
  <path stroke="#1A171B" stroke-width="0.131" stroke-linejoin="round" stroke-miterlimit="3" d="M32.07 5.011C31.957 5.107 31.867 5.222 31.809 5.36"/>
  <path stroke="#1A171B" stroke-width="0.131" stroke-linejoin="round" stroke-miterlimit="3" d="M31.26 5.411C31.408 5.189 31.559 4.998 31.673 4.751"/>
  <path stroke="#1A171B" stroke-width="0.131" stroke-linejoin="round" stroke-miterlimit="3" d="M31.583 5.272C31.463 5.373 31.382 5.49 31.327 5.637"/>
  <path stroke="#1A171B" stroke-width="0.131" stroke-linejoin="round" stroke-miterlimit="3" d="M31.294 5.636L31.832 5.371"/>
  <path stroke="#1A171B" stroke-width="0.131" stroke-linejoin="round" stroke-miterlimit="3" d="M30.468 6.019L30.946 5.767"/>
  <path stroke="#1A171B" stroke-width="0.131" stroke-linejoin="round" stroke-miterlimit="3" d="M30.699 5.669C30.588 5.759 30.504 5.868 30.449 6"/>
  <path stroke="#1A171B" stroke-width="0.131" stroke-linejoin="round" stroke-miterlimit="3" d="M31.184 5.405C31.071 5.501 30.983 5.618 30.923 5.756"/>
  <path stroke="#1A171B" stroke-width="0.131" stroke-linejoin="round" stroke-miterlimit="3" d="M30.687 5.652C30.835 5.431 30.986 5.237 31.1 4.992"/>
  <path stroke="#1A171B" stroke-width="0.131" stroke-linejoin="round" stroke-miterlimit="3" d="M30.731 5.936L31.042 6.246"/>
  <path stroke="#1A171B" stroke-width="0.131" stroke-linejoin="round" stroke-miterlimit="3" d="M32.048 5.008C32.198 4.783 32.351 4.586 32.468 4.339"/>
  <path stroke="#1A171B" stroke-width="0.131" stroke-linejoin="round" stroke-miterlimit="3" d="M31.926 3.36L32.238 3.672"/>
  <path stroke="#1A171B" stroke-width="0.131" stroke-linejoin="round" stroke-miterlimit="3" d="M31.519 3.504L31.926 3.36"/>
  <path stroke="#1A171B" stroke-width="0.131" stroke-linejoin="round" stroke-miterlimit="3" d="M33.591 2.653L34.585 3.73"/>
  <path stroke="#1A171B" stroke-width="0.131" stroke-linejoin="round" stroke-miterlimit="3" d="M32.189 2.81C32.32 2.94 32.506 3.137 32.71 3.032C32.996 2.887 33.296 2.778 33.591 2.653"/>
  <path stroke="#1A171B" stroke-width="0.131" stroke-linejoin="round" stroke-miterlimit="3" d="M38.036 46.404C37.944 46.805 38.052 47.231 38.478 47.389"/>
  <path stroke="#1A171B" stroke-width="0.131" stroke-linejoin="round" stroke-miterlimit="3" d="M38.478 44.073L38.036 46.386"/>
  <path stroke="#1A171B" stroke-width="0.131" stroke-linejoin="round" stroke-miterlimit="3" d="M28.85 39.59C31.908 40.89 35.162 41.67 38.478 41.895"/>
  <path stroke="#1A171B" stroke-width="0.131" stroke-linejoin="round" stroke-miterlimit="3" d="M25.707 39.225C23.739 37.984 21.559 37.116 19.277 36.665"/>
  <path stroke="#1A171B" stroke-width="0.131" stroke-linejoin="round" stroke-miterlimit="3" d="M25.172 38.295L20.922 34.975"/>
  <path stroke="#1A171B" stroke-width="0.131" stroke-linejoin="round" stroke-miterlimit="3" d="M19.001 41.186C18.51 42.174 20.356 43.104 20.853 42.118C21.353 41.13 19.498 40.198 19.001 41.186z"/>
  <path stroke="#1A171B" stroke-width="0.131" stroke-linejoin="round" stroke-miterlimit="3" d="M18.199 40.145C17.138 42.252 21.155 44.226 22.143 42.046C23.079 39.984 19.231 38.097 18.199 40.145z"/>
  <path stroke="#1A171B" stroke-width="0.131" stroke-linejoin="round" stroke-miterlimit="3" d="M13.827 40.52C16.379 42.21 19.12 43.6 21.993 44.658"/>
  <path stroke="#1A171B" stroke-width="0.131" stroke-linejoin="round" stroke-miterlimit="3" d="M28.329 42.375C25.094 40.517 21.727 38.902 18.251 37.543"/>
  <path stroke="#1A171B" stroke-width="0.131" stroke-linejoin="round" stroke-miterlimit="3" d="M17.769 39.929C17.128 41.209 18.507 42.371 19.561 42.82C20.498 43.218 21.989 43.427 22.541 42.329C23.182 41.048 21.804 39.886 20.748 39.438C19.812 39.039 18.323 38.832 17.769 39.929z"/>
  <path stroke="#1A171B" stroke-width="0.131" stroke-linejoin="round" stroke-miterlimit="3" d="M18.251 37.543C17.327 37.97 16.5 38.582 15.82 39.338"/>
  <path stroke="#1A171B" stroke-width="0.131" stroke-linejoin="round" stroke-miterlimit="3" d="M16.373 36.615C15.707 36.136 15.038 35.658 14.236 35.439C13.423 35.215 12.567 35.127 11.8 34.753C11.48 34.597 10.468 34.043 10.364 34.722C10.301 35.139 10.537 35.539 10.627 35.932"/>
  <path stroke="#1A171B" stroke-width="0.131" stroke-linejoin="round" stroke-miterlimit="3" d="M11.878 35.429C12.827 35.957 13.893 36.24 14.978 36.252"/>
  <path stroke="#1A171B" stroke-width="0.131" stroke-linejoin="round" stroke-miterlimit="3" d="M15.105 38.826C15.224 38.472 15.304 38.103 15.465 37.765C15.598 37.493 15.8 37.216 15.753 36.896C15.714 36.627 15.416 36.545 15.217 36.42C14.965 36.262 15.031 35.926 15.07 35.682"/>
  <path stroke="#1A171B" stroke-width="0.131" stroke-linejoin="round" stroke-miterlimit="3" d="M15.778 36.825C15.364 37.402 14.949 37.978 14.535 38.555C14.365 38.793 14.285 39.081 14.207 39.359C14.096 39.75 13.954 40.133 13.827 40.52"/>
  <path stroke="#1A171B" stroke-width="0.131" stroke-linejoin="round" stroke-miterlimit="3" d="M15.82 39.338L16.353 37.747"/>
  <path stroke="#1A171B" stroke-width="0.131" stroke-linejoin="round" stroke-miterlimit="3" d="M11.878 35.429C12.595 36.621 13.448 37.723 14.42 38.716"/>
  <path stroke="#1A171B" stroke-width="0.131" stroke-linejoin="round" stroke-miterlimit="3" d="M10.627 35.932C11.378 37.658 12.467 39.218 13.827 40.52"/>
  <path stroke="#1A171B" stroke-width="0.131" stroke-linejoin="round" stroke-miterlimit="3" d="M13.827 40.52C14.18 40.051 14.564 39.603 14.884 39.109C14.931 39.039 14.99 38.744 15.128 38.841C15.358 39.008 15.589 39.173 15.82 39.338"/>
  <path stroke="#1A171B" stroke-width="0.131" stroke-linejoin="round" stroke-miterlimit="3" d="M16.123 37.584L16.943 35.317"/>
  <path stroke="#1A171B" stroke-width="0.131" stroke-linejoin="round" stroke-miterlimit="3" d="M19.071 37.023C19.33 36.572 19.591 36.121 19.85 35.67C19.85 35.67 19.85 35.67 22.442 37.584"/>
  <path stroke="#1A171B" stroke-width="0.131" stroke-linejoin="round" stroke-miterlimit="3" d="M19.071 37.023C18.859 36.871 18.611 36.773 18.422 36.588C18.213 36.384 18.393 36.091 18.449 35.863"/>
  <path stroke="#1A171B" stroke-width="0.131" stroke-linejoin="round" stroke-miterlimit="3" d="M19.071 37.023C18.149 36.975 17.245 37.283 16.545 37.884"/>
  <path stroke="#1A171B" stroke-width="0.131" stroke-linejoin="round" stroke-miterlimit="3" d="M18.1 36.07C17.306 36.368 16.618 36.895 16.123 37.582"/>
  <path stroke="#1A171B" stroke-width="0.131" stroke-linejoin="round" stroke-miterlimit="3" d="M16.123 37.584L16.544 37.884"/>
  <path stroke="#1A171B" stroke-width="0.131" stroke-linejoin="round" stroke-miterlimit="3" d="M18.251 37.543L18.419 37.048"/>
  <path stroke="#1A171B" stroke-width="0.131" stroke-linejoin="round" stroke-miterlimit="3" d="M21.346 45.256L21.611 44.515"/>
  <path stroke="#1A171B" stroke-width="0.131" stroke-linejoin="round" stroke-miterlimit="3" d="M21.346 45.256C22.077 45.298 22.804 45.134 23.448 44.784"/>
  <path stroke="#1A171B" stroke-width="0.131" stroke-linejoin="round" stroke-miterlimit="3" d="M27.414 51.384C25.864 48.921 23.792 46.829 21.346 45.256"/>
  <path stroke="#1A171B" stroke-width="0.131" stroke-linejoin="round" stroke-miterlimit="3" d="M30.413 51.384C28.879 48.399 26.553 45.898 23.687 44.154"/>
  <path stroke="#1A171B" stroke-width="0.131" stroke-linejoin="round" stroke-miterlimit="3" d="M29.833 51.384C28.304 48.673 26.106 46.402 23.448 44.784"/>
  <path stroke="#1A171B" stroke-width="0.131" stroke-linejoin="round" stroke-miterlimit="3" d="M32.335 50.89C31.077 47.996 29.423 45.813 27.024 43.764"/>
  <path stroke="#1A171B" stroke-width="0.131" stroke-linejoin="round" stroke-miterlimit="3" d="M27.057 43.734C31.271 45.506 33.491 45.923 38.039 46.377"/>
  <path stroke="#1A171B" stroke-width="0.131" stroke-linejoin="round" stroke-miterlimit="3" d="M28.329 42.375C31.483 43.804 34.862 44.67 38.314 44.936"/>
  <path stroke="#1A171B" stroke-width="0.131" stroke-linejoin="round" stroke-miterlimit="3" d="M25.707 39.225L26.056 38.145"/>
  <path stroke="#1A171B" stroke-width="0.25" stroke-linejoin="round" stroke-miterlimit="3" d="M24.103 44.426C24.265 44.11 24.426 43.795 24.588 43.479C24.664 43.331 24.739 43.182 24.815 43.033C24.862 42.942 24.954 43.06 25.006 43.078C25.713 43.301 26.42 43.526 27.126 43.75"/>
  <path stroke="#1A171B" stroke-width="0.131" stroke-linejoin="round" stroke-miterlimit="3" d="M23.687 44.154L23.448 44.784"/>
  <path stroke="#1A171B" stroke-width="0.131" stroke-linejoin="round" stroke-miterlimit="3" d="M21.993 44.658C22.277 44.609 22.565 44.593 22.841 44.512C23.137 44.424 23.405 44.273 23.687 44.154"/>
  <path stroke="#1A171B" stroke-width="0.131" stroke-linejoin="round" stroke-miterlimit="3" d="M28.85 39.59C28.219 39.244 27.571 38.932 26.94 38.582C26.686 38.442 26.442 38.271 26.158 38.195C25.836 38.107 25.518 38.24 25.204 38.296"/>
  <path stroke="#1A171B" stroke-width="0.131" stroke-linejoin="round" stroke-miterlimit="3" d="M33.359 51.258L33.442 51.384"/>
  <path stroke="#1A171B" stroke-width="0.131" stroke-linejoin="round" stroke-miterlimit="3" d="M33.432 51.384C33.232 50.95 32.762 50.859 32.329 50.875"/>
  <path stroke="#1A171B" stroke-width="0.131" stroke-linejoin="round" stroke-miterlimit="3" d="M32.331 50.89L32.561 51.384"/>
  <path stroke="#1A171B" stroke-width="0.25" stroke-linejoin="round" stroke-miterlimit="3" d="M25.839 38.816L25.172 38.29"/>
  <path stroke="#1A171B" stroke-width="0.254" stroke-linejoin="round" stroke-miterlimit="3" d="M28.097 10.365L16.565 3.424"/>
  <path stroke="#1A171B" stroke-width="0.254" stroke-linejoin="round" stroke-miterlimit="3" d="M12.782 33.926L1.585 26.719"/>
  <path stroke="#1A171B" stroke-width="0.131" stroke-linejoin="round" stroke-miterlimit="3" d="M16.382 9.385L19.344 4.969"/>
  <path stroke="#1A171B" stroke-width="0.131" stroke-linejoin="round" stroke-miterlimit="3" d="M7.102 22.789L3.515 28.135"/>
  <path stroke="none" fill="#FFFFFF" d="M14.007 33.359C14.353 33.594 14.72 33.801 15.035 34.076 15.239 34.255 15.506 34.579 15.81 34.411 16.1 34.25 16.181 33.904 16.352 33.643 16.58 33.292 16.861 32.981 17.112 32.646 16.728 32.567 16.341 32.496 15.958 32.405 15.599 32.317 15.236 32.088 14.856 32.213 14.579 32.302 14.512 32.618 14.355 32.829 14.268 32.945 14.128 33.034 14.102 33.188 14.096 33.222 14.087 33.427 14.007 33.359 14.074 33.404 14.141 33.448 14.207 33.493 14.141 33.448 14.074 33.405 14.007 33.359 14.057 33.392 14.103 33.424 14.151 33.457 14.103 33.424 14.057 33.392 14.007 33.359 14.054 33.39 14.099 33.421 14.146 33.453 14.099 33.421 14.054 33.39 14.007 33.359 14.06 33.395 14.112 33.429 14.163 33.465 14.112 33.429 14.06 33.395 14.007 33.359 14.057 33.392 14.103 33.424 14.151 33.457 14.103 33.424 14.057 33.392 14.007 33.359 14.055 33.392 14.102 33.423 14.15 33.456 14.102 33.423 14.055 33.392 14.007 33.359 14.06 33.395 14.111 33.429 14.162 33.463 14.111 33.429 14.06 33.395 14.007 33.359 14.06 33.395 14.111 33.429 14.162 33.463 14.111 33.429 14.06 33.395 14.007 33.359 14.06 33.395 14.111 33.429 14.162 33.463 14.111 33.429 14.06 33.395 14.007 33.359 14.06 33.395 14.111 33.429 14.162 33.463 14.111 33.429 14.06 33.395 14.007 33.359 14.06 33.395 14.111 33.429 14.162 33.463 14.111 33.429 14.06 33.395 14.007 33.359 14.06 33.395 14.111 33.429 14.162 33.463 14.111 33.429 14.06 33.395 14.007 33.359 14.06 33.395 14.111 33.429 14.162 33.463 14.111 33.429 14.06 33.395 14.007 33.359 14.353 33.594 14.007 33.359 14.007 33.359z"/>
  <path stroke="#1A171B" stroke-width="0.131" stroke-linejoin="round" stroke-miterlimit="3" d="M20.922 34.975C18.599 32.726 15.356 31.698 12.163 32.195"/>
  <path stroke="#1A171B" stroke-width="0.25" stroke-linejoin="round" stroke-miterlimit="3" d="M12.163 32.195L18.1 36.07"/>
  <path stroke="#1A171B" stroke-width="0.131" stroke-linejoin="round" stroke-miterlimit="3" d="M18.449 35.863C16.827 34.417 14.99 33.234 13.003 32.353"/>
  <path stroke="none" fill="#FFFFFF" d="M12.887 34.927C13.525 35.091 14.166 35.256 14.806 35.42 14.806 35.42 14.806 35.42 12.198 39.073 11.955 38.659 11.714 38.246 11.473 37.832 11.25 37.451 11.435 36.99 11.676 36.668 11.952 36.301 12.211 35.92 12.458 35.531 12.614 35.29 12.813 34.905 13.163 34.999 13.07 34.975 12.978 34.951 12.887 34.927 12.978 34.951 13.07 34.975 13.163 34.999 13.07 34.975 12.978 34.951 12.887 34.927 12.978 34.951 13.07 34.975 13.163 34.999 13.07 34.975 12.978 34.951 12.887 34.927 12.978 34.951 13.07 34.975 13.163 34.999 13.07 34.975 12.978 34.951 12.887 34.927 12.978 34.951 13.07 34.975 13.163 34.999 13.07 34.975 12.978 34.951 12.887 34.927 12.978 34.951 13.07 34.975 13.163 34.999 13.07 34.975 12.978 34.951 12.887 34.927 12.978 34.951 13.07 34.975 13.163 34.999 13.07 34.975 12.978 34.951 12.887 34.927 12.955 34.945 13.118 34.987 13.163 34.999 13.07 34.975 12.978 34.951 12.887 34.927 12.955 34.945 13.118 34.987 13.163 34.999 13.07 34.975 12.978 34.951 12.887 34.927 12.955 34.945 13.118 34.987 13.163 34.999 13.07 34.975 12.978 34.951 12.887 34.927 12.955 34.945 13.118 34.987 13.163 34.999 13.07 34.975 12.978 34.951 12.887 34.927 12.955 34.945 13.118 34.987 13.163 34.999 13.07 34.975 12.978 34.951 12.887 34.927 12.955 34.945 13.118 34.987 13.163 34.999 13.07 34.975 12.978 34.951 12.887 34.927 12.955 34.945 13.118 34.987 13.163 34.999 13.07 34.975 12.978 34.951 12.887 34.927 13.525 35.091 12.887 34.927 12.887 34.927z"/>
  <path stroke="#1A171B" stroke-width="0.25" stroke-linejoin="round" stroke-miterlimit="3" d="M13.893 33.777C11.753 36.75 9.647 39.75 7.397 42.643C5.211 45.454 2.87 48.142 0.378 50.685"/>
  <path stroke="#1A171B" stroke-width="0.25" stroke-linejoin="round" stroke-miterlimit="3" d="M15.127 34.896C10.993 40.555 6.895 46.228 2.133 51.384"/>
  <path stroke="#1A171B" stroke-width="0.3" stroke-linejoin="round" stroke-miterlimit="3" d="M38.478 0.584L38.478 51.384"/>
  <path stroke="#1A171B" stroke-width="0.201" stroke-linejoin="round" stroke-miterlimit="3" d="M61.301 17.236L63.755 20.929"/>
  <path stroke="#1A171B" stroke-width="0.201" stroke-linejoin="round" stroke-miterlimit="3" d="M63.526 11.08L62.966 11.563"/>
  <path stroke="#1A171B" stroke-width="0.201" stroke-linejoin="round" stroke-miterlimit="3" d="M62.966 11.563L66.593 14.59"/>
  <path stroke="#1A171B" stroke-width="0.201" stroke-linejoin="round" stroke-miterlimit="3" d="M16.373 36.615L16.123 37.582"/>
  <path stroke="#1A171B" stroke-width="0.201" stroke-linejoin="round" stroke-miterlimit="3" d="M16.123 37.584C16.259 37.679 16.373 37.869 16.564 37.834C16.756 37.798 16.858 37.616 17.001 37.506C17.356 37.234 17.789 37.064 18.234 37.029C18.576 37.003 19.015 37.179 19.277 36.868C19.568 36.523 19.649 36.064 19.85 35.67"/>
  <path stroke="none" fill="#000000" d="M5.44 11.554C5.44 10.426 6.262 10.313 6.637 10.313 7.237 10.313 7.721 10.702 7.721 11.348 7.721 11.968 7.312 12.23 6.794 12.505 6.794 12.505 6.794 12.505 6.434 12.702 5.961 12.962 5.859 13.234 5.839 13.367 5.839 13.367 5.839 13.367 7.721 13.367 7.721 13.367 7.721 13.367 7.721 13.775 7.721 13.775 7.721 13.775 5.351 13.775 5.376 13.057 5.7 12.673 6.163 12.401 6.163 12.401 6.163 12.401 6.621 12.135 6.992 11.923 7.256 11.781 7.256 11.327 7.256 11.051 7.08 10.702 6.573 10.702 5.918 10.702 5.887 11.313 5.873 11.554 5.44 11.554 5.44 11.554 5.44 11.554z"/>
  <path stroke="none" fill="#000000" d="M8.686 11.76C8.833 11.647 9.044 11.544 9.355 11.544 9.916 11.544 10.493 11.939 10.493 12.653 10.493 13.037 10.32 13.869 9.237 13.869 8.784 13.869 8.202 13.686 8.118 12.913 8.118 12.913 8.118 12.913 8.567 12.913 8.612 13.317 8.912 13.494 9.301 13.494 9.75 13.494 10.029 13.135 10.029 12.702 10.029 12.205 9.691 11.933 9.262 11.933 9.01 11.933 8.784 12.051 8.621 12.263 8.621 12.263 8.621 12.263 8.246 12.243 8.246 12.243 8.246 12.243 8.507 10.387 8.507 10.387 8.507 10.387 10.301 10.387 10.301 10.387 10.301 10.387 10.301 10.811 10.301 10.811 10.301 10.811 8.833 10.811 8.686 11.76 8.686 11.76 8.686 11.76z"/>
  <path stroke="none" fill="#000000" d="M12.388 11.199C12.388 11.199 12.388 11.199 12.798 11.199 12.798 11.199 12.798 11.199 12.798 11.564 12.798 11.564 12.798 11.564 12.807 11.564 12.901 11.426 13.122 11.125 13.586 11.125 14.048 11.125 14.196 11.407 14.271 11.544 14.487 11.304 14.66 11.125 15.058 11.125 15.335 11.125 15.856 11.269 15.856 11.993 15.856 11.993 15.856 11.993 15.856 13.775 15.856 13.775 15.856 13.775 15.423 13.775 15.423 13.775 15.423 13.775 15.423 12.111 15.423 11.756 15.314 11.515 14.945 11.515 14.58 11.515 14.339 11.859 14.339 12.205 14.339 12.205 14.339 12.205 14.339 13.775 14.339 13.775 14.339 13.775 13.906 13.775 13.906 13.775 13.906 13.775 13.906 11.993 13.906 11.775 13.823 11.515 13.502 11.515 13.256 11.515 12.823 11.673 12.823 12.371 12.823 12.371 12.823 12.371 12.823 13.775 12.823 13.775 12.823 13.775 12.388 13.775 12.388 11.199 12.388 11.199 12.388 11.199z"/>
  <path stroke="none" fill="#000000" d="M16.492 11.199C16.492 11.199 16.492 11.199 16.9 11.199 16.9 11.199 16.9 11.199 16.9 11.564L16.911 11.564C17.004 11.426 17.225 11.125 17.689 11.125 18.152 11.125 18.298 11.407 18.373 11.544 18.589 11.304 18.763 11.125 19.161 11.125 19.437 11.125 19.958 11.269 19.958 11.993 19.958 11.993 19.958 11.993 19.958 13.775 19.958 13.775 19.958 13.775 19.525 13.775 19.525 13.775 19.525 13.775 19.525 12.111 19.525 11.756 19.417 11.515 19.047 11.515 18.684 11.515 18.442 11.859 18.442 12.205 18.442 12.205 18.442 12.205 18.442 13.775 18.442 13.775 18.442 13.775 18.009 13.775 18.009 13.775 18.009 13.775 18.009 11.993 18.009 11.775 17.925 11.515 17.605 11.515 17.359 11.515 16.925 11.673 16.925 12.371 16.925 12.371 16.925 12.371 16.925 13.775 16.925 13.775 16.925 13.775 16.492 13.775 16.492 11.199 16.492 11.199 16.492 11.199z"/>
  <path stroke="none" fill="#000000" d="M5.923 20.301L6.455 20.301 6.455 20.652 5.533 20.652 5.533 16.129 6.455 16.129 6.455 16.48 5.923 16.48 5.923 20.301z"/>
  <path stroke="none" fill="#000000" d="M8.361 19.686C8.361 19.686 8.361 19.686 7.897 19.686 7.897 19.686 7.897 19.686 7.897 17.228 7.897 17.228 7.897 17.228 7.089 17.228 7.089 17.228 7.089 17.228 7.089 16.882 7.65 16.844 7.883 16.789 8.021 16.224 8.021 16.224 8.021 16.224 8.361 16.224 8.361 19.686 8.361 19.686 8.361 19.686z"/>
  <path stroke="none" fill="#000000" d="M11.029 16.149L11.029 16.641 11.029 17.109 11.029 19.686 11.464 19.686 11.464 17.109 11.029 17.109 11.029 16.641 11.464 16.641 11.464 16.149 11.029 16.149z"/>
  <path stroke="none" fill="#000000" d="M14.211 19.686C14.211 19.686 14.211 19.686 13.778 19.686 13.778 19.686 13.778 19.686 13.778 18.1 13.778 17.652 13.65 17.425 13.227 17.425 12.98 17.425 12.547 17.582 12.547 18.283 12.547 18.283 12.547 18.283 12.547 19.686 12.547 19.686 12.547 19.686 12.114 19.686 12.114 19.686 12.114 19.686 12.114 17.109 12.114 17.109 12.114 17.109 12.522 17.109 12.522 17.109 12.522 17.109 12.522 17.474L12.532 17.474C12.625 17.336 12.867 17.036 13.31 17.036 13.708 17.036 14.211 17.199 14.211 17.932 14.211 19.686 14.211 19.686 14.211 19.686z"/>
  <path stroke="none" fill="#000000" d="M15.471 19.686L15.471 19.164 14.96 19.164 14.96 19.686 15.471 19.686z"/>
  <path stroke="none" fill="#000000" d="M16.571 16.48L16.039 16.48 16.039 16.129 16.96 16.129 16.96 20.652 16.039 20.652 16.039 20.301 16.571 20.301 16.571 16.48z"/>
  <path stroke="#1A171B" stroke-width="0.3" stroke-linejoin="round" stroke-miterlimit="3" d="M49.173 47.066C48.506 47.539 47.546 48.09 46.746 47.591C46.015 47.134 45.549 46.21 45.725 45.353C45.926 44.372 46.627 43.527 47.136 42.692C47.713 41.741 48.207 40.737 48.728 39.756C50.753 35.954 53.21 32.402 55.904 29.045C56.665 28.096 57.459 27.251 57.695 26.013C57.813 25.4 57.756 24.824 57.639 24.216C57.582 23.925 57.365 23.225 57.773 23.068C58.21 22.899 58.652 23.315 58.976 23.542C59.325 23.786 59.768 24.219 60.212 24.234C60.454 24.242 60.643 24.094 60.831 23.96C61.003 23.835 61.295 23.753 61.381 23.539C61.469 23.327 61.298 23.14 61.201 22.969C61.034 22.678 61.212 22.443 61.402 22.222C59.917 21.603 59.771 19.809 59.134 18.539C58.713 17.699 57.929 17.135 57.387 16.385C56.829 15.614 56.57 14.628 56.701 13.682C56.749 13.352 56.847 12.962 57.154 12.778C57.584 12.521 58.094 12.784 58.493 12.974C58.96 13.196 59.453 13.362 59.932 13.554C60.286 13.698 60.646 13.881 60.715 14.295C60.773 14.646 60.737 14.939 61.002 15.217C61.24 15.467 61.573 15.605 61.884 15.74C62.625 16.062 63.249 16.673 64.03 16.893C64.373 16.992 64.887 17.013 65.165 16.742C65.408 16.506 65.188 16.149 65.021 15.941C64.739 15.592 64.375 15.303 64.042 15.006C63.628 14.641 63.228 14.262 62.82 13.891C62.137 13.268 61.401 12.804 60.53 12.493C59.973 12.294 59.195 12.029 58.957 11.428C58.682 10.724 59.356 10.188 59.945 9.997C60.737 9.742 61.622 9.787 62.432 9.913C63.487 10.08 64.456 10.461 65.415 10.917C65.867 11.132 66.319 11.348 66.793 11.51C67.313 11.691 67.864 11.737 68.388 11.896C69.352 12.186 70.097 12.974 70.774 13.679C71.51 14.446 72.227 15.253 73.051 15.929C73.409 16.222 73.867 16.5 74.102 16.911C74.326 17.3 74.18 17.774 74.162 18.195C74.144 18.664 74.114 19.079 73.855 19.486C73.596 19.893 73.246 20.228 72.903 20.557C72.195 21.234 71.596 21.986 71.117 22.841C70.597 23.769 70.243 24.782 69.81 25.75C69.388 26.69 68.777 27.574 68.504 28.574C68.379 29.041 68.412 29.507 68.338 29.978C68.263 30.478 67.998 30.852 67.579 31.128C66.867 31.597 66.075 31.899 65.713 32.741C65.305 33.698 65.57 34.874 65.73 35.857C66.078 38.02 66.102 40.265 65.534 42.393C64.995 44.412 63.6 46.103 63.36 48.204C63.284 48.862 63.356 49.881 62.594 50.18C61.792 50.496 60.905 49.822 60.49 49.189C59.326 47.409 60.389 44.976 60.947 43.173C61.588 41.097 62.182 38.85 61.47 36.71C61.304 36.212 61.073 35.737 60.845 35.265C60.645 34.844 60.524 34.353 60.22 33.991C59.765 33.448 59.176 34.03 58.856 34.414C58.356 35.015 57.893 35.645 57.39 36.243C56.667 37.103 55.936 37.957 55.22 38.822C54.073 40.209 52.987 41.639 51.938 43.1C51.429 43.808 50.908 44.511 50.426 45.235C49.993 45.884 49.673 46.712 49.017 47.176C49.069 47.14 49.121 47.103 49.173 47.066C49.173 47.066 49.173 47.066 48.999 47.189C48.999 47.189 48.999 47.189 49.173 47.066C49.076 47.134 48.981 47.203 48.884 47.271C48.979 47.203 49.076 47.134 49.173 47.066C49.084 47.13 48.994 47.192 48.905 47.256C48.994 47.192 49.084 47.13 49.173 47.066C49.082 47.13 48.993 47.194 48.902 47.258C48.993 47.194 49.082 47.13 49.173 47.066C49.076 47.134 48.981 47.203 48.884 47.271C48.979 47.203 49.076 47.134 49.173 47.066C49.069 47.14 48.963 47.215 48.859 47.289C48.965 47.215 49.069 47.14 49.173 47.066C49.173 47.066 49.173 47.066 48.841 47.302C48.841 47.302 48.841 47.302 49.173 47.066C49.064 47.143 48.957 47.219 48.85 47.295C48.957 47.219 49.064 47.143 49.173 47.066C49.075 47.136 48.975 47.207 48.875 47.277C48.975 47.207 49.075 47.136 49.173 47.066C49.067 47.142 48.96 47.216 48.853 47.292C48.96 47.216 49.067 47.142 49.173 47.066C49.069 47.14 48.963 47.215 48.859 47.289C48.963 47.215 49.069 47.14 49.173 47.066C49.07 47.14 48.966 47.213 48.862 47.287C48.966 47.213 49.07 47.14 49.173 47.066C49.073 47.137 48.957 47.219 48.863 47.286C48.966 47.213 49.07 47.139 49.173 47.066C48.473 47.564 49.173 47.066 49.173 47.066z"/>
  <path stroke="#1A171B" stroke-width="0.3" stroke-linejoin="round" stroke-miterlimit="3" d="M60.298 33.293C60.615 33.79 60.932 34.287 61.249 34.784C61.094 34.185 60.941 33.585 60.786 32.985C60.624 33.088 60.46 33.192 60.298 33.293C60.298 33.293 60.298 33.293 60.436 33.511C60.436 33.511 60.436 33.511 60.298 33.293C60.298 33.293 60.298 33.293 60.436 33.511C60.436 33.511 60.436 33.511 60.298 33.293C60.298 33.293 60.298 33.293 60.436 33.511C60.436 33.511 60.436 33.511 60.298 33.293C60.298 33.293 60.298 33.293 60.436 33.511C60.436 33.511 60.436 33.511 60.298 33.293C60.298 33.293 60.298 33.293 60.436 33.511C60.436 33.511 60.436 33.511 60.298 33.293C60.298 33.293 60.298 33.293 60.436 33.511C60.436 33.511 60.436 33.511 60.298 33.293C60.298 33.293 60.298 33.293 60.436 33.511C60.436 33.511 60.436 33.511 60.298 33.293C60.34 33.359 60.401 33.454 60.436 33.511C60.436 33.511 60.436 33.511 60.298 33.293C60.34 33.359 60.401 33.454 60.436 33.511C60.436 33.511 60.436 33.511 60.298 33.293C60.34 33.359 60.401 33.454 60.436 33.511C60.436 33.511 60.436 33.511 60.298 33.293C60.34 33.359 60.401 33.454 60.436 33.511C60.436 33.511 60.436 33.511 60.298 33.293C60.34 33.359 60.401 33.454 60.436 33.511C60.436 33.511 60.436 33.511 60.298 33.293C60.34 33.359 60.401 33.454 60.436 33.511C60.436 33.511 60.436 33.511 60.298 33.293C60.34 33.359 60.401 33.454 60.436 33.511C60.436 33.511 60.436 33.511 60.298 33.293C60.615 33.79 60.298 33.293 60.298 33.293z"/>
  <path stroke="#1A171B" stroke-width="0.3" stroke-linejoin="round" stroke-miterlimit="3" d="M38.692 10.019C42.079 12.817 45.564 15.519 49.31 17.829C51.243 19.019 53.255 20.074 55.207 21.234C55.395 21.344 55.613 21.37 55.819 21.431C56.039 21.498 56.234 21.621 56.435 21.731C56.865 21.963 57.25 22.297 57.731 22.42C58.057 22.503 58.45 22.173 58.363 21.832C58.271 21.464 57.829 21.428 57.529 21.329C56.723 21.067 56.136 20.417 55.415 20.001C54.595 19.527 53.737 19.12 52.93 18.62C51.209 17.553 49.503 16.46 47.802 15.362C46.173 14.31 44.591 13.183 43.09 11.954C42.323 11.326 41.573 10.679 40.816 10.038C40.448 9.73 40.076 9.426 39.718 9.105C39.375 8.8 39.057 8.454 38.64 8.246"/>
  <path stroke="#1A171B" stroke-width="0.3" stroke-linejoin="round" stroke-miterlimit="3" d="M27.411 51.38C26.437 49.887 25.335 48.472 24.047 47.24C23.399 46.621 22.71 46.039 21.94 45.579C21.745 45.463 21.385 45.456 21.376 45.159C21.367 44.899 21.551 44.567 21.335 44.35C21.074 44.085 20.617 44.026 20.278 43.908C19.829 43.752 19.396 43.536 18.963 43.338C18.112 42.95 17.266 42.551 16.435 42.119C15.65 41.713 14.849 41.308 14.15 40.761C13.435 40.2 12.894 39.469 12.33 38.765C10.707 40.875 9.131 43.023 7.459 45.094C5.766 47.194 3.968 49.206 2.181 51.225"/>
  <path stroke="#1A171B" stroke-width="0.3" stroke-linejoin="round" stroke-miterlimit="3" d="M0.383 50.582C1.927 48.905 3.476 47.231 4.971 45.509C6.437 43.82 7.809 42.051 9.135 40.253C9.798 39.354 10.465 38.459 11.096 37.536C11.198 37.387 11.377 37.231 11.317 37.03C11.256 36.834 11.105 36.689 10.993 36.523C10.707 36.1 10.585 35.597 10.432 35.115C10.367 34.908 10.231 34.468 10.561 34.417C10.776 34.384 10.964 34.515 11.163 34.57C11.444 34.649 11.73 34.709 12.016 34.77C12.368 34.845 12.806 35.115 13.124 34.814C13.278 34.67 13.368 34.475 13.483 34.302C13.653 34.046 13.837 33.802 14.021 33.555C14.048 33.52 14.074 33.484 14.102 33.447C13.477 33.018 12.852 32.591 12.227 32.162C12.644 31.919 13.148 31.89 13.619 31.931C14.071 31.972 14.561 32.292 14.997 32.015C15.35 31.789 15.49 31.373 15.721 31.045C16.053 30.576 16.411 30.129 16.751 29.669C18.106 27.821 19.495 26.001 20.821 24.132C21.478 23.207 22.106 22.26 22.751 21.327C23.373 20.431 24.045 19.567 24.594 18.621C24.85 18.182 25.067 17.722 25.315 17.278C25.585 16.797 25.897 16.343 26.179 15.868C26.746 14.913 27.21 13.9 27.647 12.878C27.843 12.425 28.012 11.949 28.312 11.551C28.626 11.13 29.085 10.843 29.385 10.41C29.652 10.025 29.964 9.577 29.925 9.085C29.89 8.644 29.439 8.359 29.443 7.908C29.448 7.471 29.812 7.168 30.022 6.822C30.327 6.318 30.524 5.762 30.728 5.214C30.908 4.726 31.032 4.209 31.303 3.761C31.434 3.548 31.661 3.43 31.861 3.297C32.055 3.169 32.082 2.919 32.164 2.721C32.292 2.818 32.384 2.987 32.56 3.007C32.758 3.029 32.908 2.878 33.064 2.785C33.482 2.535 33.953 2.903 34.173 3.25C34.685 4.057 34.033 4.968 33.649 5.674C33.408 6.115 33.201 6.578 33.046 7.057C32.92 7.453 32.845 7.895 32.575 8.227C32.283 8.585 31.833 8.59 31.443 8.771C31.016 8.968 30.902 9.396 30.74 9.797C30.57 10.214 30.26 10.561 30.1 10.984C29.908 11.499 29.966 12.073 29.794 12.593C29.451 13.631 28.803 14.577 28.283 15.529C27.211 17.486 26.074 19.403 24.838 21.263C22.306 25.064 19.454 28.64 16.928 32.445C17.838 32.804 18.725 33.228 19.538 33.773C20.407 34.353 21.17 35.07 21.987 35.718C22.804 36.365 23.664 36.959 24.434 37.664C24.751 37.954 25.144 38.182 25.588 38.162C26.085 38.142 26.501 38.335 26.893 38.625C28.39 39.729 30.245 40.139 32.005 40.628C34.087 41.206 36.204 41.781 38.381 41.798"/>
  <path stroke="#1A171B" stroke-width="0.3" stroke-linejoin="round" stroke-miterlimit="3" d="M15.515 34.32C15.917 34.618 16.513 34.761 16.768 35.228C17.021 35.691 16.603 36.18 16.464 36.607C16.109 36.365 15.795 36.055 15.404 35.865C15.189 35.759 14.887 35.84 14.701 35.661C14.445 35.417 14.846 35.094 15.002 34.938C15.169 34.77 15.391 34.231 15.701 34.459C15.638 34.412 15.577 34.366 15.515 34.32C15.564 34.356 15.612 34.393 15.66 34.429C15.612 34.393 15.564 34.356 15.515 34.32C15.573 34.363 15.631 34.406 15.689 34.45C15.63 34.406 15.57 34.362 15.512 34.32C15.551 34.347 15.589 34.375 15.627 34.404C15.589 34.375 15.55 34.347 15.51 34.319C15.567 34.36 15.625 34.402 15.682 34.445C15.625 34.402 15.57 34.362 15.515 34.32C15.571 34.363 15.628 34.405 15.686 34.448C15.628 34.405 15.571 34.363 15.515 34.32C15.515 34.32 15.515 34.32 15.682 34.445C15.682 34.445 15.682 34.445 15.515 34.32C15.573 34.365 15.634 34.408 15.692 34.453C15.634 34.408 15.573 34.365 15.515 34.32C15.57 34.362 15.625 34.404 15.682 34.445C15.625 34.404 15.57 34.362 15.515 34.32C15.571 34.362 15.628 34.405 15.686 34.447C15.628 34.405 15.571 34.362 15.515 34.32C15.571 34.362 15.628 34.405 15.686 34.448C15.628 34.405 15.571 34.362 15.515 34.32C15.571 34.362 15.628 34.405 15.686 34.448C15.628 34.405 15.571 34.362 15.515 34.32C15.571 34.362 15.628 34.405 15.686 34.448C15.628 34.405 15.571 34.362 15.515 34.32C15.571 34.362 15.628 34.405 15.686 34.448C15.628 34.405 15.571 34.362 15.515 34.32C15.903 34.607 15.515 34.32 15.515 34.32z"/>
  <path stroke="#1A171B" stroke-width="0.3" stroke-linejoin="round" stroke-miterlimit="3" d="M33.526 51.405C33.256 51.107 32.896 50.889 32.503 50.804C32.148 50.728 32.078 50.317 31.969 50.033C31.637 49.164 31.059 48.424 30.548 47.656C29.585 46.207 28.602 44.661 27.051 43.776C29.172 44.643 31.387 45.287 33.649 45.658C34.823 45.85 35.987 46.118 37.177 46.188C37.439 46.204 37.89 46.139 37.951 46.494C37.999 46.773 37.966 47.226 38.329 47.295"/>
 </g>
 <g id="A4_x0020_half_x0020_frame">
  <path stroke="#FFFFFF" stroke-width="0.006" d="M75.003 0.003L75.003 51.969L0.003 51.969L0.003 0.003L75.003 0.003z"/>
 </g>
 <g id="Picture_x0020_#">
  <text transform="matrix(0 -1 1 0 73.817 50.957)" stroke="none" fill="#000000" font-family="'Arial'" font-size="2.117">162 040</text>
 </g>
</svg>
