<?xml version="1.0" encoding="utf-8"?>
<!DOCTYPE svg PUBLIC "-//W3C//DTD SVG 1.1//EN" "http://www.w3.org/Graphics/SVG/1.1/DTD/svg11.dtd">
<!-- Generator: PTC Arbortext IsoDraw 7.3 -->
<svg width="100%" height="100%" viewBox="0 0 75.016 44.039"
 xmlns="http://www.w3.org/2000/svg" xmlns:xlink="http://www.w3.org/1999/xlink"
 fill-rule="evenodd" clip-rule="evenodd" stroke="#000000" stroke-linecap="round" fill="none" xml:space="preserve">
 <g id="Frame_x0020_75">
  <polygon stroke="#FFFFFF" stroke-width="0.016" points="0.008 0.008 75.007 0.008 75.007 44.03 0.008 44.03 0.008 0.008"/>
 </g>
 <g id="Standard_x0020_layer">
  <g>
   <path stroke-width="0.22" d="M49.182 28.056C48.966 27.986 48.691 28.234 48.569 28.609C48.456 28.955 48.512 29.291 48.692 29.396"/>
  </g>
  <g>
   <path stroke-width="0.22" d="M47.401 27.704C47.249 27.655 47.057 27.827 46.972 28.089C46.886 28.353 46.939 28.606 47.091 28.655C47.095 28.657 47.101 28.658 47.106 28.658"/>
   <path stroke-width="0.22" d="M47.441 27.724C47.427 27.714 47.414 27.708 47.401 27.704"/>
  </g>
  <path stroke-width="0.22" d="M70.358 36.948C63.021 32.606 56.508 30.515 49.179 28.056"/>
  <path stroke-width="0.22" d="M70.292 38.603C63.447 34.735 56.25 31.553 48.676 29.393"/>
  <g>
   <path stroke-width="0.13" d="M42.356 25.306C42.195 25.257 42.009 25.352 41.841 25.545"/>
   <path stroke-width="0.13" d="M41.436 26.402C41.325 26.926 41.435 27.35 41.686 27.432"/>
   <path stroke-width="0.22" d="M41.686 27.432C41.981 27.524 42.368 27.123 42.552 26.536C42.737 25.949 42.649 25.399 42.356 25.306"/>
  </g>
  <g>
   <path stroke-width="0.22" d="M41.049 24.861C40.756 24.768 40.368 25.17 40.183 25.757C39.999 26.344 40.087 26.894 40.381 26.986"/>
   <path stroke-width="0.13" d="M40.381 26.986C40.399 26.992 40.42 26.996 40.438 26.998"/>
  </g>
  <path stroke-width="0.22" stroke-linejoin="round" stroke-miterlimit="2" d="M40.353 26.971L41.679 27.42"/>
  <path stroke-width="0.22" stroke-linejoin="round" stroke-miterlimit="2" d="M41.049 24.861L42.356 25.306"/>
  <g>
   <path stroke-width="0.13" d="M42.219 25.716C42.037 25.661 41.804 25.91 41.695 26.271C41.585 26.632 41.643 26.969 41.823 27.022C41.914 27.05 42.018 27.001 42.112 26.902"/>
   <path stroke-width="0.13" d="M42.392 25.978C42.366 25.83 42.301 25.742 42.219 25.716"/>
  </g>
  <g>
   <path stroke-width="0.13" d="M37.103 23.562C36.95 23.513 36.768 23.6 36.604 23.782"/>
   <path stroke-width="0.13" d="M36.215 24.535C36.06 25.1 36.158 25.599 36.435 25.687"/>
   <path stroke-width="0.22" d="M36.435 25.687C36.543 25.722 36.664 25.689 36.781 25.605"/>
   <path stroke-width="0.22" d="M37.344 23.839C37.292 23.684 37.206 23.593 37.103 23.562"/>
  </g>
  <g>
   <path stroke-width="0.22" d="M35.798 23.115C35.503 23.022 35.116 23.425 34.932 24.012C34.746 24.599 34.835 25.149 35.128 25.242"/>
   <path stroke-width="0.13" d="M35.128 25.242C35.149 25.248 35.168 25.251 35.185 25.254"/>
  </g>
  <path stroke-width="0.22" stroke-linejoin="round" stroke-miterlimit="2" d="M35.101 25.225L36.427 25.675"/>
  <path stroke-width="0.22" stroke-linejoin="round" stroke-miterlimit="2" d="M35.798 23.115L37.103 23.562"/>
  <g>
   <path stroke-width="0.13" d="M37.03 23.734C36.784 23.661 36.469 24.001 36.323 24.493C36.179 24.986 36.262 25.443 36.508 25.515"/>
   <path stroke-width="0.22" d="M37.048 23.739C37.042 23.737 37.036 23.736 37.03 23.734"/>
  </g>
  <path stroke-width="0.22" stroke-linejoin="round" stroke-miterlimit="2" d="M40.659 24.955L37.03 23.734"/>
  <path stroke-width="0.22" stroke-linejoin="round" stroke-miterlimit="2" d="M40.14 26.716L36.508 25.515"/>
  <path stroke-width="0.22" d="M17.236 17.838C14.326 16.58 11.579 15.083 8.862 13.4"/>
  <path stroke-width="0.22" d="M17.91 16.644C14.973 15.412 12.211 13.919 9.432 12.316"/>
  <path stroke-width="0.22" stroke-linejoin="round" stroke-miterlimit="2" d="M17.199 17.815C21.609 19.562 28.268 22.175 34.835 24.644"/>
  <path stroke-width="0.22" stroke-linejoin="round" stroke-miterlimit="2" d="M17.718 16.565C22.117 18.277 28.615 20.896 35.219 23.39"/>
  <path stroke-width="0.13" stroke-linejoin="round" stroke-miterlimit="2" d="M3.914 8.965L3.504 8.714"/>
  <path stroke-width="0.22" stroke-linejoin="round" stroke-miterlimit="2" d="M3.985 8.627L3.576 8.375"/>
  <path stroke-width="0.22" stroke-linejoin="round" stroke-miterlimit="2" d="M5.846 12.211L2.387 10.01"/>
  <path stroke-width="0.13" stroke-linejoin="round" stroke-miterlimit="2" d="M5.823 10.932C5.128 10.49 3.015 9.147 2.826 9.026"/>
  <path stroke-width="0.13" stroke-linejoin="round" stroke-miterlimit="2" d="M8.544 12.98C8.493 12.897 8.486 12.791 8.525 12.701C8.573 12.589 8.682 12.518 8.803 12.516"/>
  <path stroke-width="0.13" stroke-linejoin="round" stroke-miterlimit="2" d="M8.339 12.855C8.288 12.772 8.281 12.664 8.32 12.576C8.371 12.455 8.496 12.38 8.627 12.391"/>
  <path stroke-width="0.13" stroke-linejoin="round" stroke-miterlimit="2" d="M8.164 12.743C8.115 12.66 8.106 12.553 8.146 12.464C8.194 12.352 8.304 12.279 8.423 12.278"/>
  <path stroke-width="0.22" stroke-linejoin="round" stroke-miterlimit="2" d="M8.743 13.131L7.506 12.3"/>
  <path stroke-width="0.13" stroke-linejoin="round" stroke-miterlimit="2" d="M8.323 12.651L8.118 12.525"/>
  <path stroke-width="0.13" stroke-linejoin="round" stroke-miterlimit="2" d="M8.628 12.375L8.423 12.25"/>
  <path stroke-width="0.22" stroke-linejoin="round" stroke-miterlimit="2" d="M7.644 11.46L7.099 11.101"/>
  <path stroke-width="0.22" stroke-linejoin="round" stroke-miterlimit="2" d="M9.069 12.368L7.644 11.46"/>
  <path stroke-width="0.13" stroke-linejoin="round" stroke-miterlimit="2" d="M8.971 12.524L8.798 12.412"/>
  <path stroke-width="0.13" stroke-linejoin="round" stroke-miterlimit="2" d="M6.82 10.814L5.336 9.877"/>
  <path stroke-width="0.22" stroke-linejoin="round" stroke-miterlimit="2" d="M6.892 10.475L5.881 9.816"/>
  <path stroke-width="0.22" stroke-linejoin="round" stroke-miterlimit="2" d="M7.775 10.746L4.317 8.548"/>
  <path stroke-width="0.22" stroke-linejoin="round" stroke-miterlimit="2" d="M6.892 10.475L6.82 10.814"/>
  <path stroke-width="0.22" stroke-linejoin="round" stroke-miterlimit="2" d="M7.125 11.939C7.168 11.983 7.206 12.028 7.24 12.073"/>
  <path stroke-width="0.22" stroke-linejoin="round" stroke-miterlimit="2" d="M6.899 11.755C6.977 11.804 7.056 11.868 7.125 11.939"/>
  <path stroke-width="0.13" stroke-linejoin="round" stroke-miterlimit="2" d="M7.354 11.795C7.256 11.753 7.113 11.721 7.004 11.673L6.993 11.667"/>
  <path stroke-width="0.13" stroke-linejoin="round" stroke-miterlimit="2" d="M6.977 11.656C7.1 11.733 7.232 11.845 7.334 11.952"/>
  <path stroke-width="0.13" stroke-linejoin="round" stroke-miterlimit="2" d="M7.376 11.662C7.315 11.647 7.246 11.628 7.184 11.602C7.152 11.589 7.113 11.568 7.088 11.553"/>
  <path stroke-width="0.13" stroke-linejoin="round" stroke-miterlimit="2" d="M8.449 12.446L8.244 12.32"/>
  <path stroke-width="0.13" stroke-linejoin="round" stroke-miterlimit="2" d="M7.871 11.9L7.839 11.885"/>
  <path stroke-width="0.13" stroke-linejoin="round" stroke-miterlimit="2" d="M7.737 11.952L7.705 11.939"/>
  <path stroke-width="0.13" stroke-linejoin="round" stroke-miterlimit="2" d="M7.612 12.391C7.562 12.31 7.554 12.202 7.593 12.114C7.641 12.003 7.751 11.929 7.871 11.929"/>
  <path stroke-width="0.22" stroke-linejoin="round" stroke-miterlimit="2" d="M7.506 12.3C7.424 12.253 7.304 12.156 7.24 12.073"/>
  <path stroke-width="0.13" stroke-linejoin="round" stroke-miterlimit="2" d="M7.318 11.803C7.394 11.817 7.477 11.84 7.549 11.871C7.602 11.894 7.657 11.923 7.703 11.952"/>
  <path stroke-width="0.13" stroke-linejoin="round" stroke-miterlimit="2" d="M7.375 11.663C7.431 11.679 7.512 11.708 7.572 11.734C7.663 11.774 7.759 11.823 7.839 11.872"/>
  <path stroke-width="0.13" stroke-linejoin="round" stroke-miterlimit="2" d="M7.564 12.224C7.476 12.166 7.384 12.037 7.334 11.952"/>
  <path stroke-width="0.22" stroke-linejoin="round" stroke-miterlimit="2" d="M6.899 11.755L6.31 11.391"/>
  <path stroke-width="0.13" stroke-linejoin="round" stroke-miterlimit="2" d="M6.974 11.66C6.974 11.66 6.514 11.372 6.36 11.275"/>
  <path stroke-width="0.13" stroke-linejoin="round" stroke-miterlimit="2" d="M7.091 11.561C7.091 11.561 6.786 11.369 6.53 11.215"/>
  <path stroke-width="0.13" stroke-linejoin="round" stroke-miterlimit="2" d="M5.224 9.791L3.914 8.965"/>
  <path stroke-width="0.13" stroke-linejoin="round" stroke-miterlimit="2" d="M5.033 9.727C4.969 9.701 4.876 9.679 4.804 9.647C4.694 9.599 4.573 9.528 4.477 9.468"/>
  <path stroke-width="0.13" stroke-linejoin="round" stroke-miterlimit="2" d="M4.599 9.778C4.665 9.787 4.735 9.803 4.799 9.83C4.841 9.849 4.884 9.874 4.921 9.897"/>
  <path stroke-width="0.13" stroke-linejoin="round" stroke-miterlimit="2" d="M5.306 9.696C5.243 9.669 5.149 9.647 5.078 9.617C4.966 9.568 4.846 9.497 4.75 9.438"/>
  <path stroke-width="0.13" stroke-linejoin="round" stroke-miterlimit="2" d="M5.033 9.743C5.096 9.75 5.163 9.766 5.224 9.791C5.27 9.811 5.32 9.845 5.36 9.874"/>
  <path stroke-width="0.13" stroke-linejoin="round" stroke-miterlimit="2" d="M5.381 9.859L4.91 9.916"/>
  <path stroke-width="0.13" stroke-linejoin="round" stroke-miterlimit="2" d="M6.091 9.759L5.666 9.798"/>
  <path stroke-width="0.13" stroke-linejoin="round" stroke-miterlimit="2" d="M5.788 9.625C5.851 9.632 5.919 9.647 5.98 9.673C6.019 9.691 6.06 9.714 6.094 9.737"/>
  <path stroke-width="0.13" stroke-linejoin="round" stroke-miterlimit="2" d="M5.355 9.66C5.421 9.669 5.492 9.685 5.554 9.712C5.596 9.73 5.641 9.756 5.676 9.779"/>
  <path stroke-width="0.13" stroke-linejoin="round" stroke-miterlimit="2" d="M5.788 9.609C5.726 9.582 5.631 9.56 5.56 9.529C5.448 9.48 5.328 9.41 5.232 9.35"/>
  <path stroke-width="0.22" stroke-linejoin="round" stroke-miterlimit="2" d="M5.881 9.816L5.807 10.156"/>
  <path stroke-width="0.13" stroke-linejoin="round" stroke-miterlimit="2" d="M4.612 9.768C4.548 9.74 4.453 9.718 4.379 9.686C4.267 9.637 4.145 9.566 4.048 9.505"/>
  <path stroke-width="0.22" stroke-linejoin="round" stroke-miterlimit="2" d="M3.985 8.627L3.914 8.965"/>
  <path stroke-width="0.22" stroke-linejoin="round" stroke-miterlimit="2" d="M4.317 8.548L3.985 8.627"/>
  <path stroke-width="0.22" stroke-linejoin="round" stroke-miterlimit="2" d="M2.583 8.871L2.387 10.01"/>
  <path stroke-width="0.22" stroke-linejoin="round" stroke-miterlimit="2" d="M3.576 8.375L3.504 8.714L2.583 8.871"/>
  <g>
   <path stroke-width="0.22" d="M9.464 12.329C9.291 12.236 9.021 12.401 8.859 12.701C8.704 12.989 8.705 13.294 8.862 13.4"/>
   <path stroke-width="0.13" d="M9.502 12.355C9.49 12.345 9.477 12.336 9.464 12.329"/>
  </g>
  <path stroke="none" fill="#000000" id="AUTOID_41648" d="M45.319 31.579L40.286 31.05 44.38 34.024 45.319 31.579 45.319 31.579z"/>
  <path stroke-width="0.22" stroke-linejoin="round" stroke-miterlimit="2" d="M7.775 10.746L7.716 11.198"/>
  <path stroke-width="0.22" stroke-linejoin="round" stroke-miterlimit="2" d="M6.857 12.003L5.846 12.211"/>
  <path stroke-width="0.13" stroke-linejoin="round" stroke-miterlimit="2" d="M6.041 11.071L5.889 11.942"/>
  <path stroke-width="0.13" stroke-linejoin="round" stroke-miterlimit="2" d="M7.448 10.811L6.041 11.071"/>
  <path stroke-width="0.22" stroke-linejoin="round" stroke-miterlimit="2" d="M48.835 28.167L47.405 27.713"/>
  <path stroke-width="0.13" stroke-linejoin="round" stroke-miterlimit="2" d="M48.505 28.289C48.179 28.181 47.459 27.943 47.408 27.926"/>
  <path stroke-width="0.13" stroke-linejoin="round" stroke-miterlimit="2" d="M48.362 28.634C48.097 28.545 47.326 28.292 47.24 28.263"/>
  <path stroke-width="0.13" stroke-linejoin="round" stroke-miterlimit="2" d="M48.423 28.443C48.134 28.347 47.383 28.1 47.31 28.076"/>
  <path stroke-width="0.13" stroke-linejoin="round" stroke-miterlimit="2" d="M48.334 28.817C48.07 28.73 47.311 28.48 47.219 28.449"/>
  <path stroke-width="0.22" stroke-linejoin="round" stroke-miterlimit="2" d="M48.509 29.125L47.063 28.643"/>
  <line stroke-width="0.5" stroke-linecap="butt" stroke-linejoin="round" x1="43.929" y1="32.429" x2="51.24" y2="35.128"/>
 </g>
 <g id="Picture_x0020_#">
  <text transform="matrix(0 -1 1 0 73.822 43.018)" stroke="none" fill="#000000" font-family="'Helvetica'" font-size="2.117">162 285</text>
 </g>
</svg>
