<?xml version="1.0" encoding="utf-8"?>
<!DOCTYPE svg PUBLIC "-//W3C//DTD SVG 1.1//EN" "http://www.w3.org/Graphics/SVG/1.1/DTD/svg11.dtd">
<!-- Generator: PTC Arbortext IsoDraw 7.3 -->
<svg id="Standard_x0020_layer" width="100%" height="100%" viewBox="0 0 75.25 126.65"
 xmlns="http://www.w3.org/2000/svg" xmlns:xlink="http://www.w3.org/1999/xlink"
 fill-rule="evenodd" clip-rule="evenodd" stroke="#000000" stroke-linecap="round" fill="none" xml:space="preserve">
 <g>
  <path stroke-width="0.25" stroke-linecap="butt" d="M75.125 126.525L75.125 0.125L0.125 0.125L0.125 126.525L75.125 126.525z"/>
  <path stroke-width="0.208" stroke-linejoin="round" d="M21.746 94.548C21.083 93.355 20.705 91.98 20.705 90.519C20.705 85.935 24.422 82.218 29.007 82.218L44.445 82.218C49.03 82.218 52.746 85.935 52.746 90.519C52.746 92.012 52.353 93.412 51.664 94.621L43.954 107.974C42.53 110.492 39.826 112.191 36.725 112.191C33.634 112.191 30.937 110.501 29.509 107.995L21.746 94.548z"/>
  <path stroke-width="0.208" stroke-linejoin="round" d="M46.06 109.632C44.131 112.76 40.673 114.846 36.725 114.846C32.899 114.846 29.53 112.885 27.571 109.912L19.114 95.239C18.431 93.81 18.048 92.209 18.048 90.519C18.048 84.468 22.954 79.561 29.007 79.561L44.445 79.561C50.496 79.561 55.402 84.468 55.402 90.519C55.402 92.466 54.895 94.296 54.005 95.881L46.06 109.632z"/>
  <path stroke-width="0.349" stroke-linejoin="round" d="M47.112 109.519C45.112 113.201 41.212 115.701 36.725 115.701C32.396 115.701 28.611 113.373 26.554 109.9L18.794 96.459C17.777 94.713 17.195 92.685 17.195 90.519C17.195 83.995 22.483 78.706 29.007 78.706L44.445 78.706C50.969 78.706 56.258 83.995 56.258 90.519C56.258 92.54 55.75 94.444 54.854 96.106L47.112 109.519z"/>
  <path stroke-width="0.208" stroke-linejoin="round" d="M37.951 107.683C37.951 107.683 37.951 107.918 37.951 108.213C37.951 108.507 37.776 108.566 37.423 108.566L36.03 108.566C35.676 108.566 35.5 108.507 35.5 108.213C35.5 107.918 35.5 107.683 35.5 107.683"/>
  <path stroke-width="0.349" stroke-linejoin="round" d="M30.094 78.674L30.094 72.76L28.271 72.76L28.271 78.704"/>
  <g>
   <path stroke-width="0.25" stroke-linejoin="round" d="M42.006 100.123L40.832 102.158L39.875 102.158L39.875 104.652C39.875 106.391 38.466 107.802 36.725 107.802C34.987 107.802 33.576 106.391 33.576 104.652L33.576 102.158L32.619 102.158L31.446 100.123"/>
   <path stroke-width="0.208" stroke-linejoin="round" d="M40.832 102.158L40.832 98.57L36.725 98.57L32.619 98.57L32.619 102.158"/>
   <path stroke-width="0.25" stroke-linejoin="round" d="M39.572 103.355L39.572 96.62L33.88 96.62L33.88 103.355"/>
   <path stroke-width="0.25" stroke-linejoin="round" d="M39.856 103.397L38.421 103.397C38.421 103.397 38.362 102.632 37.776 102.632L35.676 102.632C35.088 102.632 35.03 103.397 35.03 103.397L33.595 103.397"/>
   <path stroke-width="0.208" stroke-linejoin="round" d="M39.539 99.54L36.725 99.54L33.912 99.54"/>
   <path stroke-width="0.208" stroke-linejoin="round" d="M39.539 100.923L36.725 100.923L33.912 100.923"/>
   <path stroke-width="0.208" stroke-linejoin="round" d="M39.539 102.245L36.725 102.245L33.912 102.245"/>
  </g>
  <path stroke-width="0.25" stroke-linejoin="round" d="M47.118 87.561C47.118 87.561 47.323 87.442 47.578 87.296C47.832 87.149 47.97 87.272 48.148 87.578L48.844 88.784C49.02 89.09 49.057 89.272 48.802 89.418C48.548 89.566 48.344 89.683 48.344 89.683"/>
  <g>
   <path stroke-width="0.25" stroke-linejoin="round" d="M38.542 87.831L40.892 87.828L41.371 88.658L43.53 87.409C45.037 86.54 46.963 87.057 47.834 88.563C48.704 90.069 48.186 91.995 46.68 92.865L44.521 94.112L44.999 94.941L43.823 96.974"/>
   <path stroke-width="0.208" stroke-linejoin="round" d="M40.892 87.828L37.786 89.621L39.84 93.179L41.893 96.734L44.999 94.941"/>
   <path stroke-width="0.25" stroke-linejoin="round" d="M42.56 88.322L36.725 91.691L39.572 96.62L45.405 93.251"/>
   <path stroke-width="0.25" stroke-linejoin="round" d="M42.453 88.055L43.17 89.296C43.17 89.296 42.537 89.73 42.832 90.239L43.881 92.057C44.174 92.566 44.866 92.234 44.866 92.234L45.584 93.477"/>
   <path stroke-width="0.208" stroke-linejoin="round" d="M39.273 90.257L40.679 92.694L42.085 95.129"/>
   <path stroke-width="0.208" stroke-linejoin="round" d="M40.469 89.566L41.875 92.003L43.283 94.438"/>
   <path stroke-width="0.208" stroke-linejoin="round" d="M41.615 88.905L43.021 91.34L44.427 93.778"/>
  </g>
  <path stroke-width="0.25" stroke-linejoin="round" d="M25.108 89.683C25.108 89.683 24.905 89.566 24.649 89.418C24.394 89.272 24.432 89.09 24.609 88.784L25.304 87.578C25.481 87.272 25.62 87.149 25.875 87.296C26.129 87.442 26.333 87.561 26.333 87.561"/>
  <g>
   <path stroke-width="0.25" stroke-linejoin="round" d="M29.629 96.974L28.454 94.941L28.931 94.112L26.771 92.865C25.265 91.995 24.748 90.069 25.618 88.563C26.489 87.057 28.414 86.54 29.922 87.409L32.082 88.658L32.561 87.828L34.908 87.831"/>
   <path stroke-width="0.208" stroke-linejoin="round" d="M28.454 94.941L31.559 96.734L33.612 93.179L35.665 89.621L32.561 87.828"/>
   <path stroke-width="0.25" stroke-linejoin="round" d="M28.047 93.251L33.88 96.62L36.725 91.691L30.893 88.322"/>
   <path stroke-width="0.25" stroke-linejoin="round" d="M27.868 93.477L28.585 92.234C28.585 92.234 29.277 92.566 29.571 92.057L30.62 90.239C30.914 89.73 30.282 89.296 30.282 89.296L30.998 88.055"/>
   <path stroke-width="0.208" stroke-linejoin="round" d="M31.367 95.129L32.773 92.694L34.179 90.257"/>
   <path stroke-width="0.208" stroke-linejoin="round" d="M30.17 94.438L31.576 92.003L32.982 89.566"/>
   <path stroke-width="0.208" stroke-linejoin="round" d="M29.024 93.778L30.431 91.34L31.838 88.905"/>
  </g>
  <path stroke-width="0.25" stroke-linejoin="round" d="M38.542 87.831L38.542 86.311L34.908 86.311L34.908 87.831"/>
  <path stroke-width="0.25" stroke-linejoin="round" d="M29.629 96.974L28.314 97.734L30.131 100.882L31.446 100.121"/>
  <path stroke-width="0.25" stroke-linejoin="round" d="M42.006 100.123L43.32 100.882L45.137 97.734L43.823 96.974"/>
  <path stroke-width="0.208" stroke-linejoin="round" d="M34.908 87.831C34.908 87.831 35.079 88.516 36.725 88.516C38.372 88.516 38.542 87.831 38.542 87.831L34.908 87.831z"/>
  <path stroke-width="0.208" stroke-linejoin="round" d="M31.446 100.121C31.446 100.121 31.955 99.631 31.132 98.206C30.309 96.78 29.629 96.974 29.629 96.974L31.446 100.121z"/>
  <path stroke-width="0.208" stroke-linejoin="round" d="M43.823 96.974C43.823 96.974 43.143 96.78 42.32 98.206C41.496 99.632 42.006 100.123 42.006 100.123L43.823 96.974z"/>
  <path stroke-width="0.349" stroke-linejoin="round" d="M43.378 78.674L43.378 72.76L45.201 72.76L45.201 78.704"/>
  <path stroke-width="0.349" stroke-linejoin="round" d="M42.012 78.674C42.012 78.674 42.012 70.203 42.012 68.792C42.012 67.379 41.29 66.909 40.317 66.909L33.155 66.909C32.182 66.909 31.46 67.379 31.46 68.792C31.46 70.203 31.46 78.674 31.46 78.674"/>
  <path stroke-width="0.349" stroke-linejoin="round" d="M47.112 44.063C45.112 47.746 41.212 50.244 36.725 50.244C32.396 50.244 28.611 47.915 26.554 44.442L18.794 31.001C17.777 29.257 17.195 27.228 17.195 25.062C17.195 18.539 22.483 13.25 29.007 13.25L44.445 13.25C50.969 13.25 56.258 18.539 56.258 25.062C56.258 27.083 55.75 28.986 54.854 30.649L47.112 44.063z"/>
  <path stroke-width="0.25" stroke-linejoin="round" d="M39.874 72.971L33.578 72.971L33.578 70.227L39.874 70.227L39.874 72.971z"/>
  <path stroke-width="0.201" stroke-linejoin="round" d="M42.03 70.227L39.874 70.227"/>
  <path stroke-width="0.201" stroke-linejoin="round" d="M42.03 72.971L39.874 72.971"/>
  <path stroke-width="0.201" stroke-linejoin="round" d="M33.578 70.227L31.422 70.227"/>
  <path stroke-width="0.201" stroke-linejoin="round" d="M33.578 72.971L31.422 72.971"/>
  <path stroke="#FFFFFF" stroke-width="0.501" stroke-linejoin="round" d="M45.613 89.634L64.118 71.129"/>
  <path stroke="#FFFFFF" stroke-width="0.501" stroke-linejoin="round" d="M27.818 89.634L9.314 71.129"/>
  <path stroke="#FFFFFF" stroke-width="0.501" stroke-linejoin="round" d="M36.725 105.471L36.725 119.537"/>
  <path stroke-width="0.131" stroke-linejoin="round" d="M45.613 89.634L64.118 71.129"/>
  <path stroke-width="0.131" stroke-linejoin="round" d="M27.818 89.634L9.314 71.129"/>
  <path stroke-width="0.131" stroke-linejoin="round" d="M36.725 105.471L36.725 119.537"/>
  <path stroke-width="0.25" d="M30.312 25.067C30.312 25.745 29.762 26.295 29.082 26.295C28.403 26.295 27.853 25.745 27.853 25.067C27.853 24.388 28.403 23.838 29.082 23.838C29.762 23.838 30.312 24.388 30.312 25.067z"/>
  <path stroke-width="0.25" d="M32.368 25.067C32.368 26.882 30.897 28.353 29.082 28.353C27.268 28.353 25.797 26.882 25.797 25.067C25.797 23.251 27.268 21.78 29.082 21.78C30.897 21.78 32.368 23.251 32.368 25.067z"/>
  <path stroke-width="0.25" d="M45.64 25.067C45.64 25.745 45.09 26.295 44.411 26.295C43.731 26.295 43.182 25.745 43.182 25.067C43.182 24.388 43.731 23.838 44.411 23.838C45.09 23.838 45.64 24.388 45.64 25.067z"/>
  <path stroke-width="0.25" d="M47.697 25.067C47.697 26.882 46.225 28.353 44.411 28.353C42.595 28.353 41.125 26.882 41.125 25.067C41.125 23.251 42.595 21.78 44.411 21.78C46.225 21.78 47.697 23.251 47.697 25.067z"/>
  <path stroke-width="0.25" d="M37.975 38.341C37.975 39.021 37.426 39.57 36.746 39.57C36.067 39.57 35.518 39.021 35.518 38.341C35.518 37.662 36.067 37.112 36.746 37.112C37.426 37.112 37.975 37.662 37.975 38.341z"/>
  <path stroke-width="0.25" d="M40.033 38.341C40.033 40.156 38.561 41.628 36.746 41.628C34.932 41.628 33.46 40.156 33.46 38.341C33.46 36.527 34.932 35.055 36.746 35.055C38.561 35.055 40.033 36.527 40.033 38.341z"/>
  <path stroke-width="0.25" d="M41.426 41.128C40.475 42.72 38.735 43.786 36.746 43.786C34.762 43.786 33.026 42.725 32.073 41.14L24.568 28.111C23.981 27.242 23.638 26.193 23.638 25.067C23.638 22.059 26.074 19.621 29.082 19.621L44.411 19.621C47.418 19.621 49.856 22.059 49.856 25.067C49.856 26.054 49.593 26.981 49.133 27.78L41.426 41.128z"/>
  <path stroke-width="0.25" d="M22.731 28.589C22.152 27.545 21.821 26.344 21.821 25.067C21.821 21.056 25.071 17.806 29.083 17.806L44.411 17.804C48.421 17.804 51.673 21.056 51.673 25.065C51.673 26.367 51.331 27.586 50.731 28.643L43.082 41.895C41.838 44.109 39.466 45.603 36.746 45.603C34.015 45.603 31.638 44.097 30.399 41.871L22.731 28.589z"/>
  <path stroke-width="0.25" stroke-linejoin="round" d="M40.298 8.574C40.298 8.85 40.075 9.074 39.798 9.074L33.625 9.074C33.35 9.074 33.125 8.85 33.125 8.574L33.125 6.87C33.125 6.594 33.35 6.37 33.625 6.37L39.798 6.37C40.075 6.37 40.298 6.594 40.298 6.87L40.298 8.574z"/>
  <path stroke-width="0.349" stroke-linejoin="round" d="M47.036 13.46C47.036 13.46 47.036 9.332 47.036 7.921C47.036 6.862 46.63 6.333 46.017 6.134L40.993 4.408C40.789 4.341 40.561 4.312 40.317 4.312L33.155 4.312C32.911 4.312 32.685 4.341 32.479 4.408L27.455 6.134C26.843 6.331 26.437 6.862 26.437 7.921C26.437 9.332 26.437 13.46 26.437 13.46"/>
  <path stroke-width="0.25" d="M51.305 27.603L55.965 27.603"/>
  <path stroke-width="0.25" d="M44.68 47.151L42.329 43.07"/>
  <path stroke-width="0.349" stroke-linejoin="round" d="M48.411 41.826C48.795 41.692 49.915 40.454 50.356 39.691L52.451 36.063C52.893 35.299 53.402 33.71 53.328 33.31"/>
  <path stroke-width="0.25" d="M49.57 30.786L53.43 33.015"/>
  <path stroke-width="0.25" d="M44.325 39.874L48.185 42.101"/>
  <path stroke-width="0.25" d="M46.427 41.03L51.612 32.048"/>
  <path stroke-width="0.25" d="M44.798 40.088L49.982 31.108"/>
  <path stroke="#FFFFFF" stroke-width="0.501" stroke-linejoin="round" d="M45.613 24.175L64.118 5.669"/>
  <path stroke="#FFFFFF" stroke-width="0.501" stroke-linejoin="round" d="M27.818 24.175L9.314 5.669"/>
  <path stroke="#FFFFFF" stroke-width="0.501" stroke-linejoin="round" d="M36.725 40.012L36.725 54.078"/>
  <path stroke-width="0.131" stroke-linejoin="round" d="M45.613 24.175L64.118 5.669"/>
  <path stroke-width="0.131" stroke-linejoin="round" d="M27.818 24.175L9.314 5.669"/>
  <path stroke-width="0.131" stroke-linejoin="round" d="M36.725 40.012L36.725 54.078"/>
  <text x="6.378" y="71.406" stroke="none" fill="#000000" font-family="'Helvetica'" font-size="4.939">1</text>
  <text x="64.727" y="70.468" stroke="none" fill="#000000" font-family="'Helvetica'" font-size="4.939">2</text>
  <text x="35.454" y="58.725" stroke="none" fill="#000000" font-family="'Helvetica'" font-size="4.939">3</text>
  <text x="63.81" y="5.977" stroke="none" fill="#000000" font-family="'Helvetica'" font-size="4.939">1</text>
  <text x="6.078" y="5.115" stroke="none" fill="#000000" font-family="'Helvetica'" font-size="4.939">2</text>
  <text x="35.454" y="123.813" stroke="none" fill="#000000" font-family="'Helvetica'" font-size="4.939">3</text>
 </g>
</svg>
