<?xml version="1.0" encoding="utf-8"?>
<!DOCTYPE svg PUBLIC "-//W3C//DTD SVG 1.1//EN" "http://www.w3.org/Graphics/SVG/1.1/DTD/svg11.dtd">
<!-- Generator: PTC Arbortext IsoDraw 7.3 -->
<svg width="100%" height="100%" viewBox="0 0 75 75.433"
 xmlns="http://www.w3.org/2000/svg" xmlns:xlink="http://www.w3.org/1999/xlink"
 fill-rule="evenodd" clip-rule="evenodd" stroke="#000000" stroke-linecap="round" fill="none" xml:space="preserve">
 <g id="Frame">
  <path stroke="none" fill="#FFFFFF" d="M75 75.433L75 0.433 0 0.433 0 75.433 75 75.433z"/>
 </g>
 <g id="Colour">
 </g>
 <g id="Standard_x0020_layer">
  <path stroke-width="0.13" stroke-linejoin="round" d="M5.676 36.972C5.772 37.688 7.634 38.978 9.88 38.356C12.124 37.735 13.605 36.399 14.272 34.774"/>
  <path stroke-width="0.25" stroke-linejoin="round" d="M5.097 31.794C5.133 31.868 5.152 31.91 5.152 31.91C5.152 31.91 5.533 32.77 5.533 33.581C5.533 34.393 5.581 36.256 5.676 36.972"/>
  <path stroke-width="0.349" stroke-linejoin="round" d="M12.788 46.813C11.967 46.435 10.98 46.328 9.784 46.426C7.492 46.618 6.198 48.289 6.198 49.006C6.198 49.722 6.198 50.82 6.198 51.776C6.198 52.731 5.343 53.112 4.961 52.444C4.578 51.774 2.812 47.335 2.669 46.953C2.525 46.57 2.383 45.996 2.383 45.234C2.383 44.469 1.665 28.757 1.714 27.85C1.762 26.943 2.621 26.753 2.956 27.326C3.256 27.839 4.79 31.131 5.097 31.794"/>
  <path stroke-width="0.25" stroke-linejoin="round" d="M14.654 48.576C14.153 47.731 13.541 47.158 12.788 46.813"/>
  <path stroke-width="0.349" stroke-linejoin="round" d="M12.699 20.356C12.364 20.126 12.054 20.05 11.789 20.21C11.311 20.496 11.217 20.496 11.121 21.164C11.025 21.833 10.214 25.844 10.022 28.329"/>
  <path stroke-width="0.25" stroke-linejoin="round" d="M17.798 55.551C17.882 55.451 17.937 55.32 17.949 55.165C17.998 54.545 16.469 51.058 16.039 47.334C15.609 43.609 15.467 36.59 17.089 29.951C17.089 29.951 17.806 28.089 17.234 26.896C16.661 25.701 14.224 21.929 13.557 21.164C13.259 20.824 12.971 20.542 12.699 20.356"/>
  <path stroke-width="0.349" stroke-linejoin="round" d="M12.84 47C12.84 47 16.469 54.783 16.803 55.405C17.054 55.869 17.547 55.851 17.798 55.551"/>
  <path stroke-width="0.349" stroke-linejoin="round" d="M9.993 28.515C9.227 30.053 7.408 31.307 5.343 31.766"/>
  <path stroke-width="0.25" stroke-linejoin="round" d="M10.356 27.326C10.31 27.734 10.183 28.134 9.993 28.515"/>
  <path stroke-width="0.13" stroke-linejoin="round" d="M6.631 46.713C6.823 46.713 7.253 46.523 7.682 46.14C8.112 45.759 11.551 44.564 14.272 46.475"/>
  <path stroke-width="0.25" stroke-linejoin="round" d="M13.986 37.162C12.887 39.026 9.449 39.741 8.016 39.454C6.585 39.168 5.772 39.168 5.82 40.076C5.868 40.982 6.011 45.615 6.107 46.14C6.203 46.665 6.44 46.713 6.631 46.713"/>
  <path stroke-width="0.13" stroke-linejoin="round" d="M10.548 27.373L14.416 34.488"/>
  <path stroke-width="0.13" stroke-linejoin="round" d="M14.416 34.918L14.13 37.02"/>
  <path stroke-width="0.13" stroke-linejoin="round" d="M16.422 28.089C14.512 33.676 14.224 38.118 14.368 43.131C14.512 48.146 15.897 52.874 16.946 55.356"/>
  <path stroke-width="0.13" stroke-linejoin="round" d="M1.905 27.946C1.905 27.946 3.863 32.1 4.054 32.579C4.245 33.055 4.245 33.246 4.245 33.676C4.245 34.106 5.104 52.301 5.104 52.301"/>
  <path stroke-width="0.13" stroke-linejoin="round" d="M14.224 46.093L10.929 39.359"/>
  <path stroke-width="0.13" stroke-linejoin="round" d="M11.551 20.736C11.932 20.64 12.458 20.926 12.936 21.594C13.413 22.263 16.182 26.847 16.277 27.326"/>
  <path stroke-width="0.25" stroke-linejoin="round" d="M27.603 18.48C28.1 18.428 28.408 18.396 28.408 18.396"/>
  <path stroke-width="0.349" stroke-linejoin="round" d="M12.744 20.21C12.744 19.876 12.887 19.684 13.365 19.589C13.843 19.493 19.382 18.92 19.763 18.92C20.146 18.92 20.099 19.303 20.385 19.254C20.614 19.216 25.617 18.689 27.603 18.48"/>
  <path stroke-width="0.25" stroke-linejoin="round" d="M59.729 14.323C60.131 14.271 60.354 14.24 60.354 14.24"/>
  <path stroke-width="0.349" stroke-linejoin="round" d="M27.692 18.3C27.882 18.013 28.025 17.917 28.312 17.917C28.599 17.917 35.475 16.914 35.905 16.914C36.335 16.914 36.478 17.297 36.908 17.297C37.295 17.297 56.045 14.813 59.729 14.323"/>
  <path stroke-width="0.349" stroke-linejoin="round" d="M59.924 14.192C59.972 13.907 60.069 13.811 60.354 13.763C60.642 13.715 62.027 13.429 62.313 13.381C62.6 13.333 64.605 14.574 64.605 14.574C64.605 14.574 69.237 19.684 69.572 20.114C69.906 20.544 69.811 21.021 69.811 21.021C69.811 21.021 69.524 24.317 69.524 24.699C69.524 25.08 69.475 25.463 69.141 25.557C68.808 25.653 68.665 25.559 68.329 25.653C67.995 25.75 67.852 25.51 67.852 25.51L66.897 24.268"/>
  <path stroke-width="0.25" stroke-linejoin="round" d="M65.277 24.379L53.908 26.132L52.905 24.795"/>
  <path stroke-width="0.349" stroke-linejoin="round" d="M66.682 24.163L65.277 24.379"/>
  <path stroke-width="0.25" stroke-linejoin="round" d="M68.597 23.887L66.682 24.163"/>
  <path stroke-width="0.25" stroke-linejoin="round" d="M54.154 24.442L49.515 25.175L49.42 26.847L31.846 29.091L31.082 27.515"/>
  <path stroke-width="0.25" stroke-linejoin="round" d="M32.228 27.277C32.228 27.277 27.022 27.803 26.783 27.803C26.545 27.803 26.689 29.713 26.449 29.713C26.21 29.713 20.336 30.573 20.336 30.573L19.908 29.856"/>
  <path stroke-width="0.13" stroke-linejoin="round" d="M13.317 19.923C13.938 20.4 14.368 20.783 14.606 21.307C14.846 21.833 17.759 27.134 17.759 27.134"/>
  <path stroke-width="0.13" stroke-linejoin="round" d="M17.759 27.707L17.663 33.008"/>
  <path stroke-width="0.13" stroke-linejoin="round" d="M18.092 27.324C18.092 27.324 43.212 24.317 47.89 23.838C52.57 23.361 69.381 20.591 69.381 20.591"/>
  <path stroke-width="0.25" stroke-linejoin="round" d="M16.803 31.861C16.803 31.861 17.28 32.911 17.472 33.151C17.663 33.39 18.57 33.39 18.617 33.198C18.666 33.008 18.713 31.861 19.047 31.384C19.382 30.907 19.62 31.05 19.62 30.667C19.62 30.286 19.669 29.664 19.669 29.664L20.135 29.625"/>
  <path stroke-width="0.25" stroke-linejoin="round" d="M17.376 33.39C17.614 36.78 17.71 46.378 17.71 47.048C17.71 47.716 17.806 48.002 17.949 48.337C18.092 48.67 18.856 50.246 18.951 50.676C19.047 51.106 19.096 51.871 19.239 52.061"/>
  <path stroke-width="0.13" stroke-linejoin="round" d="M16.707 32.338C16.707 32.338 17.042 47 17.042 47.429C17.042 47.859 17.089 48.24 17.185 48.576C17.28 48.909 17.996 50.485 17.996 50.485"/>
  <path stroke-width="0.13" stroke-linejoin="round" d="M18.617 50.485C18.283 50.581 17.949 50.628 17.949 50.868C17.949 51.106 17.949 54.783 17.949 54.783"/>
  <path stroke-width="0.25" stroke-linejoin="round" d="M66.566 40.661C66.343 40.375 66.18 40.17 66.18 40.17"/>
  <path stroke-width="0.349" stroke-linejoin="round" d="M47.552 51.329C54.429 50.279 66.18 48.624 66.897 48.527C67.614 48.432 67.709 48.049 67.757 47.621C67.805 47.191 68.09 44.707 68.09 44.277C68.09 43.847 67.947 43.753 67.947 43.753C67.947 43.753 68.09 42.75 67.852 42.368C67.694 42.113 67.009 41.228 66.566 40.661"/>
  <path stroke-width="0.349" stroke-linejoin="round" d="M17.902 55.548C18.045 55.786 18.14 55.881 18.522 55.881C18.792 55.881 29.718 54.137 38.54 52.741"/>
  <path stroke-width="0.25" stroke-linejoin="round" d="M65.912 42.701L66.341 36.828L68.233 36.59L68.521 36.255C68.521 36.255 68.664 34.344 68.664 33.914C68.664 33.485 68.329 33.151 68.329 33.151C68.329 33.151 65.656 29.951 65.465 29.76C65.274 29.57 64.509 29.617 64.509 29.617"/>
  <path stroke-width="0.131" stroke-linejoin="round" d="M33.371 51.554L33.371 52.457"/>
  <path stroke-width="0.25" stroke-linejoin="round" d="M28.153 45.843L28.153 44.996L29.907 44.74"/>
  <path stroke-width="0.131" stroke-linejoin="round" d="M29.907 44.74L29.907 45.588L28.153 45.843"/>
  <path stroke-width="0.25" stroke-linejoin="round" d="M28.08 47.531L28.08 46.685L29.833 46.429"/>
  <path stroke-width="0.131" stroke-linejoin="round" d="M29.833 46.429L29.833 47.277L28.08 47.531"/>
  <path stroke-width="0.501" stroke-linejoin="round" d="M38.914 42.558C39.582 43.417 40.823 46.091 41.445 46.618C42.064 47.143 42.637 47.381 43.115 47.429C43.115 47.429 44.405 47.094 44.692 47.573C44.978 48.049 46.076 49.673 46.936 50.868C47.795 52.061 49.753 52.634 50.994 52.587C52.237 52.539 53.192 52.969 53.813 53.829C54.433 54.688 59.542 61.947 59.924 62.52C60.307 63.093 60.21 64.048 59.972 64.382L67.183 74.554"/>
  <path stroke-width="0.501" stroke-linejoin="round" d="M37.337 46.616C37.719 47.429 38.579 48.24 38.579 48.527C38.579 48.814 38.53 48.957 38.865 49.53C39.2 50.103 39.485 50.581 39.485 50.581C39.485 50.581 38.579 50.82 38.53 51.393C38.482 51.966 38.435 52.204 38.722 52.729C39.009 53.255 39.485 54.018 39.485 54.018"/>
  <path stroke-width="0.13" stroke-linejoin="round" d="M59.972 64.382C59.637 64.763 59.256 64.859 58.636 65.003C58.015 65.146 47.603 66.626 46.554 66.769C45.503 66.912 44.548 66.674 44.023 66.195"/>
  <path stroke-width="0.25" stroke-linejoin="round" d="M39.915 47.429C39.725 47.762 38.817 48.002 38.817 48.337"/>
  <path stroke-width="0.501" stroke-linejoin="round" d="M37.337 42.939C38.006 43.99 38.292 44.85 39.009 45.758C39.725 46.664 40.106 47.094 39.915 47.429"/>
  <path stroke-width="0.501" stroke-linejoin="round" d="M37.767 44.755C38.53 45.758 39.343 46.57 39.773 47.286"/>
  <path stroke-width="0.25" stroke-linejoin="round" d="M39.485 50.581C39.485 50.581 40.823 52.442 40.871 52.729"/>
  <path stroke-width="0.501" stroke-linejoin="round" d="M39.478 54.005C39.134 54.183 38.85 54.322 38.53 54.496C38.006 54.783 37.767 55.451 38.054 56.167C38.34 56.884 38.244 57.743 38.054 58.173C37.862 58.603 37.957 59.081 38.244 59.606C38.53 60.131 43.02 67.772 43.496 68.536C43.975 69.299 44.595 69.108 44.595 69.108L47.747 74.506"/>
  <path stroke-width="0.25" stroke-linejoin="round" d="M41.204 52.347C41.204 52.634 41.014 53.158 40.25 53.588C39.95 53.758 39.701 53.89 39.478 54.005"/>
  <path stroke-width="0.13" stroke-linejoin="round" d="M38.435 54.64C38.244 54.926 38.292 55.5 38.579 55.976C38.865 56.454 43.64 64.191 44.165 65.051C44.691 65.909 45.932 65.957 46.936 65.814C47.939 65.671 57.823 64.287 58.874 64.048C59.924 63.808 60.164 63.426 60.164 63.093"/>
  <path stroke-width="0.13" stroke-linejoin="round" d="M38.292 56.646L48.75 74.506"/>
  <path stroke-width="0.13" stroke-linejoin="round" d="M38.292 58.03L44.643 68.966"/>
  <path stroke-width="0.13" stroke-linejoin="round" d="M39.009 48.432L41.158 52.109"/>
  <path stroke-width="0.13" stroke-linejoin="round" d="M38.673 51.536L39.868 53.685"/>
  <path stroke-width="0.25" stroke-linejoin="round" d="M43.02 47.476L39.246 48.002"/>
  <path stroke-width="0.25" stroke-linejoin="round" d="M48.415 62.52C48.415 61.42 49.762 60.514 51.424 60.514C53.085 60.514 54.432 61.326 54.432 62.52"/>
  <path stroke-width="0.131" stroke-linejoin="round" d="M54.432 62.52C54.432 63.442 53.085 64.191 51.424 64.191C49.762 64.191 48.415 63.442 48.415 62.52"/>
  <path stroke-width="0.25" stroke-linejoin="round" d="M43.496 55.07C43.496 53.97 44.844 53.064 46.506 53.064C48.167 53.064 49.514 53.875 49.514 55.07"/>
  <path stroke-width="0.131" stroke-linejoin="round" d="M49.514 55.07C49.514 55.993 48.167 56.74 46.506 56.74C44.844 56.74 43.496 55.993 43.496 55.07"/>
  <path stroke-width="0.349" stroke-linejoin="round" d="M65.385 25.666C65.671 26.032 65.906 26.5 66.049 27.094"/>
  <path stroke-width="0.25" stroke-linejoin="round" d="M64.001 24.661C64.489 24.844 64.987 25.157 65.385 25.666"/>
  <path stroke-width="0.349" stroke-linejoin="round" d="M65.302 25.468L65.302 24.527"/>
  <path stroke-width="0.13" stroke-linejoin="round" d="M63.015 26.006L63.777 27.216C63.777 27.216 64.225 28.158 64.18 28.963"/>
  <path stroke-width="0.25" stroke-linejoin="round" d="M66.602 32.908L66.602 32.28L63.957 29.097L63.329 29.143L62.612 27.618L61.582 26.23L29.804 30.576L29.804 30.981"/>
  <path stroke-width="0.25" stroke-linejoin="round" d="M29.939 30.981L26.766 31.457"/>
  <path stroke-width="0.25" stroke-linejoin="round" d="M20.123 30.397C19.585 30.801 18.824 32.146 18.913 33.536C19.003 34.924 19.227 41.244 19.227 42.274C19.227 43.305 19.405 43.978 19.675 44.337C19.675 44.337 19.855 45.098 20.257 45.502C20.257 45.502 20.6 46.252 21.286 46.832"/>
  <path stroke-width="0.349" stroke-linejoin="round" d="M67.114 31.603L67.173 30.801C67.254 28.606 66.555 27.484 65.436 26.634C64.314 25.782 62.926 25.871 62.926 25.871L62.926 27.26L63.463 27.844L63.463 28.606L63.195 28.65"/>
  <path stroke-width="0.349" stroke-linejoin="round" d="M66.475 40.387L66.733 36.85"/>
  <path stroke-width="0.349" stroke-linejoin="round" d="M23.112 46.101C23.112 46.101 25.457 50.387 25.725 51.015C25.995 51.643 26.533 52.628 27.474 52.987C28.414 53.345 29.356 53.524 31.149 53.212C31.149 53.212 31.53 53.21 31.53 52.831C31.53 52.45 31.53 51.822 31.53 51.822L33.371 51.554"/>
  <path stroke-width="0.349" stroke-linejoin="round" d="M32.851 51.732L33.299 52.494L34.152 52.764L38.229 52.136"/>
  <path stroke-width="0.201" stroke-linejoin="round" d="M31.283 28.364L26.719 28.908"/>
  <path stroke-width="0.201" stroke-linejoin="round" d="M21.827 30.429C21.067 30.9 19.798 32.314 19.763 34.56C19.727 36.805 19.908 43.219 19.943 43.979C19.98 44.74 19.992 45.176 20.257 45.502"/>
  <path stroke-width="0.201" stroke-linejoin="round" d="M20.269 30.756C19.87 31.19 19.256 32.784 19.292 34.414C19.327 36.045 19.533 42.265 19.568 43.171C19.605 44.078 19.786 44.621 19.786 44.621"/>
  <path stroke-width="0.25" stroke-linejoin="round" d="M27.914 32.24C27.914 32.24 31.248 37.965 31.356 38.146C31.464 38.328 31.428 39.052 31.428 39.052"/>
  <path stroke-width="0.13" stroke-linejoin="round" d="M28.059 32.168L29.98 31.879"/>
  <path stroke-width="0.13" stroke-linejoin="round" d="M29.804 30.576L30.704 32.386L31.138 33.871L33.384 37.676"/>
  <path stroke-width="0.13" stroke-linejoin="round" d="M29.907 32.82L33.348 38.725"/>
  <path stroke-width="0.13" stroke-linejoin="round" d="M33.457 37.856L33.393 38.762L31.504 39.1"/>
  <path stroke-width="0.13" stroke-linejoin="round" d="M33.603 37.783L34.255 37.929L36.465 37.603"/>
  <path stroke-width="0.13" stroke-linejoin="round" d="M36.429 37.421L43.783 36.298"/>
  <path stroke-width="0.13" stroke-linejoin="round" d="M36.646 38.037L44 36.914"/>
  <path stroke-width="0.25" stroke-linejoin="round" d="M24.545 38.689L25.341 39.886L25.306 43.545L26.211 45.103L26.864 45.212L27.262 45.103"/>
  <path stroke-width="0.13" stroke-linejoin="round" d="M27.298 45.212L27.262 47.674L26.864 47.712L26.175 47.603L25.385 45.899"/>
  <path stroke-width="0.25" stroke-linejoin="round" d="M25.379 49.451L25.341 45.79L25.993 45.755"/>
  <path stroke-width="0.13" stroke-linejoin="round" d="M24.435 38.871L24.545 47.82L25.269 49.27"/>
  <path stroke-width="0.13" stroke-linejoin="round" d="M26.103 45.863L27.117 47.567"/>
  <path stroke-width="0.13" stroke-linejoin="round" d="M26.103 47.712C26.103 47.712 26.103 50.32 26.103 50.863C26.103 51.406 26.248 51.95 26.464 52.24"/>
  <path stroke-width="0.13" stroke-linejoin="round" d="M26.792 47.893C26.792 47.893 26.827 51.081 26.864 51.588C26.899 52.095 27.298 51.951 27.298 52.277C27.298 52.603 27.48 52.929 27.878 53.109"/>
  <path stroke-width="0.13" stroke-linejoin="round" d="M26.175 44.886C26.175 44.886 26.103 42.023 26.138 40.936C26.175 39.85 27.48 38.509 29.291 38.436"/>
  <path stroke-width="0.13" stroke-linejoin="round" d="M29.399 39.051C28.385 39.197 26.864 39.994 26.792 41.406C26.719 42.82 26.864 45.212 26.864 45.212"/>
  <path stroke-width="0.13" stroke-linejoin="round" d="M29.58 38.654L30.957 38.399L31.356 38.146"/>
  <path stroke-width="0.13" stroke-linejoin="round" d="M30.993 38.509L31.03 39.886L34.109 39.451L34.255 37.929"/>
  <path stroke-width="0.13" stroke-linejoin="round" d="M33.393 38.762L34 39.341"/>
  <path stroke-width="0.13" stroke-linejoin="round" d="M31.393 39.161L31.067 39.777"/>
  <path stroke-width="0.13" stroke-linejoin="round" d="M29.907 32.64L29.907 32.06"/>
  <path stroke-width="0.13" stroke-linejoin="round" d="M29.69 32.82L28.493 33.002"/>
  <path stroke-width="0.13" stroke-linejoin="round" d="M25.051 39.56L25.125 47.639"/>
  <g>
   <path stroke-width="0.25" stroke-linejoin="round" d="M24.992 32.344L25.643 34.337C25.643 34.337 25.492 34.554 25.208 34.627C24.085 34.917 22.998 36.149 22.963 37.271C22.925 38.395 22.998 41.003 23.035 41.292C23.071 41.582 22.998 41.582 22.782 41.438C22.564 41.292 22.237 41.003 22.129 41.112"/>
   <path stroke-width="0.25" stroke-linejoin="round" d="M22.492 41.365L22.492 42.09C22.492 42.09 22.853 42.814 22.963 43.067C23.071 43.322 23.071 43.43 23.071 43.612C23.071 43.792 23.089 47.054 23.089 47.054C23.089 47.054 23.301 47.595 23.746 47.744"/>
   <path stroke-width="0.13" stroke-linejoin="round" d="M26.548 31.836C26.548 31.836 26.295 31.873 25.137 32.018C23.977 32.162 21.114 32.996 21.079 35.46C21.042 37.923 21.15 45.06 21.187 45.676C21.224 46.292 21.405 46.835 21.513 47.017"/>
   <path stroke-width="0.201" stroke-linejoin="round" d="M26.635 33.188L26.693 33.069L26.693 32.597L26.766 31.655L26.187 30.823C26.187 30.823 24.992 30.894 23.687 31.111C22.382 31.329 20.426 32.814 20.463 34.771C20.498 36.728 20.679 44.445 20.789 45.314C20.897 46.183 21.658 47.344 21.658 47.344C21.658 47.344 22.454 48.43 23.722 48.865C23.722 48.865 24.341 49.131 24.638 49.131"/>
   <path stroke-width="0.201" stroke-linejoin="round" d="M25.751 33.213L25.821 33.378"/>
   <path stroke-width="0.201" stroke-linejoin="round" d="M25.969 33.069L25.318 33.177"/>
   <path stroke-width="0.13" stroke-linejoin="round" d="M26.15 33.301L26.15 33.104"/>
   <path stroke-width="0.13" stroke-linejoin="round" d="M21.948 41.329C21.948 41.329 21.948 41.837 21.948 42.162C21.948 42.488 22.576 43.395 22.792 43.43"/>
  </g>
  <path stroke-width="0.25" stroke-linejoin="round" d="M43.457 35.646L43.965 36.298L44.146 36.841L43.892 42.639L41.174 43.037L41.066 45.609"/>
  <path stroke-width="0.25" stroke-linejoin="round" d="M43.783 47.131L43.835 45.247L41.682 43.182"/>
  <path stroke-width="0.131" stroke-linejoin="round" d="M44.834 36.841L44.472 47.131"/>
  <path stroke-width="0.25" stroke-linejoin="round" d="M44.326 36.914L44.834 36.841"/>
  <path stroke-width="0.25" stroke-linejoin="round" d="M46.429 42.82L45.304 42.965L45.072 47.892"/>
  <path stroke-width="0.131" stroke-linejoin="round" d="M46.465 42.965L46.206 49.015L45.844 49.051"/>
  <path stroke-width="0.13" stroke-linejoin="round" d="M43.603 35.537L57.405 33.581"/>
  <path stroke-width="0.13" stroke-linejoin="round" d="M44.036 36.118L57.334 34.234"/>
  <path stroke-width="0.13" stroke-linejoin="round" d="M57.659 33.762L59.868 33.509L60.377 33.146"/>
  <path stroke-width="0.25" stroke-linejoin="round" d="M57.006 27.856L57.369 28.545L57.768 30.067L60.377 33.146L60.377 33.689L59.978 34.27L59.725 34.305"/>
  <path stroke-width="0.131" stroke-linejoin="round" d="M59.072 27.422L59.435 28.111L59.832 29.632L62.405 32.893L62.405 33.436"/>
  <path stroke-width="0.25" stroke-linejoin="round" d="M57.659 29.161L59.109 29.125L59.689 30.428"/>
  <path stroke-width="0.25" stroke-linejoin="round" d="M59.615 30.538L58.384 30.719"/>
  <path stroke-width="0.131" stroke-linejoin="round" d="M63.094 33.073L65.051 32.747"/>
  <path stroke-width="0.131" stroke-linejoin="round" d="M60.159 29.704L62.405 29.379"/>
  <path stroke-width="0.131" stroke-linejoin="round" d="M59.543 28.146L61.789 27.821"/>
  <path stroke-width="0.131" stroke-linejoin="round" d="M31.283 33.871L57.659 30.067"/>
  <path stroke-width="0.131" stroke-linejoin="round" d="M30.704 32.386L57.369 28.545"/>
  <path stroke-width="0.131" stroke-linejoin="round" d="M65.268 32.53L66.5 32.35"/>
  <path stroke-width="0.131" stroke-linejoin="round" d="M62.912 33.073L62.478 32.893"/>
  <path stroke-width="0.25" stroke-linejoin="round" d="M63.819 33.725L62.912 33.906L62.152 33.689L59.689 30.489"/>
  <path stroke-width="0.131" stroke-linejoin="round" d="M67.694 42.639L66.064 42.856"/>
  <path stroke-width="0.25" stroke-linejoin="round" d="M68.057 44.125C68.057 44.487 67.331 45.682 67.114 45.899C66.897 46.116 65.811 46.116 65.811 46.116C65.811 46.116 65.846 46.661 65.521 46.732C65.194 46.805 64.469 46.951 64.469 46.951C64.469 46.951 64.507 47.277 64.108 47.421C63.71 47.567 62.079 47.674 62.079 47.674L61.39 47.384L60.811 46.515"/>
  <path stroke-width="0.25" stroke-linejoin="round" d="M58.926 46.515L59.398 47.167L59.362 47.747L58.999 48.109L56.826 48.472L56.645 48.255L46.5 49.74"/>
  <path stroke-width="0.131" stroke-linejoin="round" d="M63.021 33.328L63.021 33.725"/>
  <path stroke-width="0.13" stroke-linejoin="round" d="M59.905 33.654L59.868 34.088"/>
  <path stroke-width="0.25" stroke-linejoin="round" d="M67.804 34.921L66.716 35.085L66.644 35.52"/>
  <path stroke-width="0.13" stroke-linejoin="round" d="M66.7 35.585L67.787 35.421L67.859 34.987"/>
  <path stroke-width="0.25" stroke-linejoin="round" d="M67.203 44.023L66.117 44.167L66.043 44.603"/>
  <path stroke-width="0.13" stroke-linejoin="round" d="M66.1 44.667L67.188 44.523L67.26 44.088"/>
  <path stroke-width="0.131" stroke-linejoin="round" d="M66.644 33.146L66.644 33.654L68.129 33.509"/>
  <path stroke-width="0.131" stroke-linejoin="round" d="M66.789 33.073L67.84 32.966"/>
  <path stroke-width="0.131" stroke-linejoin="round" d="M61.969 47.457L61.969 46.987"/>
  <path stroke-width="0.131" stroke-linejoin="round" d="M59.398 47.167L59.036 47.457L59 48"/>
  <path stroke-width="0.131" stroke-linejoin="round" d="M58.673 47.457L59.036 47.457"/>
  <path stroke-width="0.131" stroke-linejoin="round" d="M62.823 46.758L62.042 46.878"/>
  <path stroke-width="0.131" stroke-linejoin="round" d="M61.39 47.313L61.39 46.805L61.826 46.914"/>
  <path stroke-width="0.131" stroke-linejoin="round" d="M61.354 46.661L61.1 46.298"/>
  <g>
   <path stroke-width="0.13" stroke-linejoin="round" d="M28.745 40.817L27.649 40.984L27.661 41.298"/>
   <path stroke-width="0.25" stroke-linejoin="round" d="M28.239 41.298L28.565 41.841L28.82 42.747L28.821 43.979"/>
   <path stroke-width="0.25" stroke-linejoin="round" d="M27.66 42.929L27.661 41.298L28.376 41.174L28.746 40.828L28.8 39.667L30.559 39.341"/>
   <path stroke-width="0.25" stroke-linejoin="round" d="M30.16 39.523L30.196 40.356L30.631 40.863L31.344 40.738"/>
   <path stroke-width="0.13" stroke-linejoin="round" d="M30.704 39.414L30.667 40.438L30.522 40.682"/>
   <path stroke-width="0.13" stroke-linejoin="round" d="M30.739 40.546L31.718 40.393L31.727 42.24L30.775 42.396"/>
   <path stroke-width="0.13" stroke-linejoin="round" d="M30.667 41.625L31.428 41.515L31.727 42.24"/>
   <path stroke-width="0.13" stroke-linejoin="round" d="M28.964 44.015L30.631 43.725L30.631 42.421L30.522 41.697L30.378 41.479"/>
   <path stroke-width="0.13" stroke-linejoin="round" d="M29.522 41.453L30.631 43.725"/>
   <path stroke-width="0.25" stroke-linejoin="round" d="M28.928 39.993L30.123 39.813"/>
   <path stroke-width="0.25" stroke-linejoin="round" d="M30.667 40.972C30.704 41.118 30.594 41.154 30.414 41.225C30.233 41.298 28.493 41.53 28.493 41.53"/>
   <path stroke-width="0.13" stroke-linejoin="round" d="M28.792 42.737L27.841 42.893"/>
   <path stroke-width="0.13" stroke-linejoin="round" d="M27.733 42.121L28.492 42.012"/>
   <path stroke-width="0.13" stroke-linejoin="round" d="M31.718 40.393L31.344 40.738"/>
  </g>
  <g>
   <path stroke-width="0.13" stroke-linejoin="round" d="M40.04 39.222L38.945 39.39L38.956 39.704"/>
   <path stroke-width="0.25" stroke-linejoin="round" d="M39.534 39.704L39.86 40.247L40.115 41.154L40.116 42.386"/>
   <path stroke-width="0.25" stroke-linejoin="round" d="M38.954 41.335L38.956 39.704L39.67 39.581L40.042 39.234L40.095 38.073L41.853 37.747"/>
   <path stroke-width="0.25" stroke-linejoin="round" d="M41.454 37.929L41.491 38.762L41.926 39.27L42.64 39.145"/>
   <path stroke-width="0.13" stroke-linejoin="round" d="M41.999 37.82L41.963 38.844L41.817 39.088"/>
   <path stroke-width="0.13" stroke-linejoin="round" d="M42.034 38.951L43.012 38.798L43.021 40.646L42.07 40.801"/>
   <path stroke-width="0.13" stroke-linejoin="round" d="M41.962 40.03L42.722 39.921L43.021 40.646"/>
   <path stroke-width="0.13" stroke-linejoin="round" d="M40.259 42.421L41.926 42.131L41.926 40.828L41.817 40.103L41.673 39.886"/>
   <path stroke-width="0.13" stroke-linejoin="round" d="M40.819 39.859L41.926 42.131"/>
   <path stroke-width="0.25" stroke-linejoin="round" d="M40.223 38.399L41.418 38.219"/>
   <path stroke-width="0.25" stroke-linejoin="round" d="M41.963 39.378C41.999 39.524 41.89 39.56 41.709 39.631C41.527 39.704 39.789 39.936 39.789 39.936"/>
   <path stroke-width="0.13" stroke-linejoin="round" d="M40.088 41.143L39.137 41.298"/>
   <path stroke-width="0.13" stroke-linejoin="round" d="M39.027 40.527L39.787 40.418"/>
   <path stroke-width="0.13" stroke-linejoin="round" d="M43.012 38.798L42.64 39.145"/>
  </g>
  <g>
   <path stroke-width="0.13" stroke-linejoin="round" d="M34.389 39.984L33.292 40.151L33.304 40.466"/>
   <path stroke-width="0.25" stroke-linejoin="round" d="M33.883 40.466L34.209 41.009L34.463 41.914L34.465 43.146"/>
   <path stroke-width="0.25" stroke-linejoin="round" d="M33.302 42.095L33.304 40.466L34.018 40.341L34.39 39.994L34.444 38.835L36.201 38.509"/>
   <path stroke-width="0.25" stroke-linejoin="round" d="M35.802 38.689L35.84 39.524L36.274 40.03L36.987 39.905"/>
   <path stroke-width="0.13" stroke-linejoin="round" d="M36.347 38.582L36.31 39.604L36.165 39.85"/>
   <path stroke-width="0.13" stroke-linejoin="round" d="M36.383 39.713L37.36 39.56L37.369 41.406L36.418 41.563"/>
   <path stroke-width="0.13" stroke-linejoin="round" d="M36.31 40.792L37.07 40.682L37.369 41.406"/>
   <path stroke-width="0.13" stroke-linejoin="round" d="M34.607 43.182L36.274 42.893L36.274 41.588L36.165 40.863L36.021 40.646"/>
   <path stroke-width="0.13" stroke-linejoin="round" d="M35.167 40.619L36.274 42.893"/>
   <path stroke-width="0.25" stroke-linejoin="round" d="M34.572 39.161L35.767 38.979"/>
   <path stroke-width="0.25" stroke-linejoin="round" d="M36.31 40.139C36.347 40.284 36.237 40.32 36.057 40.393C35.875 40.466 34.137 40.698 34.137 40.698"/>
   <path stroke-width="0.13" stroke-linejoin="round" d="M34.435 41.904L33.484 42.06"/>
   <path stroke-width="0.13" stroke-linejoin="round" d="M33.375 41.289L34.136 41.179"/>
   <path stroke-width="0.13" stroke-linejoin="round" d="M37.36 39.56L36.987 39.905"/>
  </g>
  <g>
   <path stroke-width="0.13" stroke-linejoin="round" d="M28.681 49.548L27.586 49.715L27.597 50.03"/>
   <path stroke-width="0.25" stroke-linejoin="round" d="M28.175 50.03L28.501 50.573L28.756 51.478L28.759 52.71"/>
   <path stroke-width="0.25" stroke-linejoin="round" d="M27.597 51.659L27.597 50.03L28.312 49.906L28.684 49.558L28.736 48.399L30.495 48.073"/>
   <path stroke-width="0.25" stroke-linejoin="round" d="M30.097 48.255L30.132 49.088L30.568 49.594L31.28 49.469"/>
   <path stroke-width="0.13" stroke-linejoin="round" d="M30.64 48.146L30.603 49.168L30.458 49.414"/>
   <path stroke-width="0.13" stroke-linejoin="round" d="M30.675 49.277L31.653 49.124L31.663 50.972L30.713 51.127"/>
   <path stroke-width="0.13" stroke-linejoin="round" d="M30.603 50.356L31.364 50.247L31.663 50.972"/>
   <path stroke-width="0.13" stroke-linejoin="round" d="M28.9 52.746L30.568 52.457L30.568 51.152L30.458 50.427L30.314 50.21"/>
   <path stroke-width="0.13" stroke-linejoin="round" d="M29.46 50.183L30.568 52.457"/>
   <path stroke-width="0.25" stroke-linejoin="round" d="M28.864 48.725L30.059 48.545"/>
   <path stroke-width="0.25" stroke-linejoin="round" d="M30.603 49.704C30.64 49.848 30.53 49.884 30.35 49.957C30.169 50.03 28.429 50.262 28.429 50.262"/>
   <path stroke-width="0.13" stroke-linejoin="round" d="M28.728 51.469L27.777 51.624"/>
   <path stroke-width="0.13" stroke-linejoin="round" d="M27.669 50.853L28.429 50.743"/>
   <path stroke-width="0.13" stroke-linejoin="round" d="M31.653 49.124L31.28 49.469"/>
  </g>
  <g>
   <path stroke-width="0.13" stroke-linejoin="round" d="M34.325 48.715L33.229 48.881L33.24 49.197"/>
   <path stroke-width="0.25" stroke-linejoin="round" d="M33.819 49.197L34.145 49.74L34.399 50.646L34.401 51.878"/>
   <path stroke-width="0.25" stroke-linejoin="round" d="M33.24 50.826L33.24 49.197L33.954 49.073L34.326 48.725L34.38 47.566L36.137 47.24"/>
   <path stroke-width="0.25" stroke-linejoin="round" d="M35.738 47.421L35.776 48.255L36.21 48.762L36.923 48.637"/>
   <path stroke-width="0.13" stroke-linejoin="round" d="M36.283 47.313L36.246 48.335L36.101 48.581"/>
   <path stroke-width="0.13" stroke-linejoin="round" d="M36.319 48.445L37.296 48.29L37.305 50.139L36.354 50.293"/>
   <path stroke-width="0.13" stroke-linejoin="round" d="M36.246 49.523L37.006 49.414L37.305 50.139"/>
   <path stroke-width="0.13" stroke-linejoin="round" d="M34.543 51.914L36.21 51.624L36.21 50.32L36.101 49.594L35.957 49.378"/>
   <path stroke-width="0.13" stroke-linejoin="round" d="M35.103 49.35L36.21 51.624"/>
   <path stroke-width="0.25" stroke-linejoin="round" d="M34.508 47.893L35.704 47.712"/>
   <path stroke-width="0.25" stroke-linejoin="round" d="M36.246 48.871C36.283 49.015 36.173 49.051 35.993 49.124C35.811 49.197 34.073 49.429 34.073 49.429"/>
   <path stroke-width="0.13" stroke-linejoin="round" d="M34.371 50.636L33.42 50.79"/>
   <path stroke-width="0.13" stroke-linejoin="round" d="M33.311 50.02L34.073 49.911"/>
   <path stroke-width="0.13" stroke-linejoin="round" d="M37.296 48.29L36.923 48.637"/>
  </g>
  <g>
   <path stroke-width="0.13" stroke-linejoin="round" d="M31.489 44.801L30.394 44.969L30.405 45.284"/>
   <path stroke-width="0.25" stroke-linejoin="round" d="M30.984 45.283L31.31 45.828L31.565 46.734L31.567 47.965"/>
   <path stroke-width="0.25" stroke-linejoin="round" d="M30.405 46.914L30.405 45.284L31.12 45.161L31.492 44.813L31.545 43.654L33.304 43.328"/>
   <path stroke-width="0.25" stroke-linejoin="round" d="M32.905 43.509L32.941 44.341L33.375 44.848L34.088 44.723"/>
   <path stroke-width="0.13" stroke-linejoin="round" d="M33.448 43.399L33.411 44.423L33.267 44.668"/>
   <path stroke-width="0.13" stroke-linejoin="round" d="M33.484 44.531L34.463 44.378L34.472 46.225L33.521 46.381"/>
   <path stroke-width="0.13" stroke-linejoin="round" d="M33.411 45.609L34.173 45.502L34.472 46.225"/>
   <path stroke-width="0.13" stroke-linejoin="round" d="M31.708 48L33.375 47.712L33.375 46.406L33.267 45.682L33.121 45.465"/>
   <path stroke-width="0.13" stroke-linejoin="round" d="M32.268 45.439L33.375 47.712"/>
   <path stroke-width="0.25" stroke-linejoin="round" d="M31.673 43.979L32.868 43.798"/>
   <path stroke-width="0.25" stroke-linejoin="round" d="M33.411 44.957C33.448 45.103 33.34 45.14 33.158 45.212C32.978 45.283 31.237 45.517 31.237 45.517"/>
   <path stroke-width="0.13" stroke-linejoin="round" d="M31.536 46.722L30.585 46.878"/>
   <path stroke-width="0.13" stroke-linejoin="round" d="M30.477 46.106L31.237 45.999"/>
   <path stroke-width="0.13" stroke-linejoin="round" d="M34.463 44.378L34.088 44.723"/>
  </g>
  <g>
   <path stroke-width="0.13" stroke-linejoin="round" d="M37.133 43.969L36.037 44.137L36.048 44.451"/>
   <path stroke-width="0.25" stroke-linejoin="round" d="M36.628 44.451L36.954 44.994L37.207 45.901L37.21 47.131"/>
   <path stroke-width="0.25" stroke-linejoin="round" d="M36.048 46.081L36.048 44.451L36.762 44.328L37.134 43.979L37.189 42.82L38.947 42.494"/>
   <path stroke-width="0.13" stroke-linejoin="round" d="M39.652 43.616L40.106 43.545L40.11 44.487"/>
   <path stroke-width="0.25" stroke-linejoin="round" d="M37.982 44.527C37.459 44.606 36.881 44.683 36.881 44.683"/>
   <path stroke-width="0.13" stroke-linejoin="round" d="M37.179 45.89L36.228 46.045"/>
   <path stroke-width="0.13" stroke-linejoin="round" d="M36.119 45.274L36.881 45.165"/>
  </g>
  <path stroke-width="0.13" stroke-linejoin="round" d="M43.673 45.247L41.283 45.609"/>
  <g>
   <g>
    <path stroke-width="0.131" stroke-linejoin="round" d="M47.334 37.359L47.246 38.851"/>
    <path stroke-width="0.25" stroke-linejoin="round" d="M49.143 37.107L47.334 37.359"/>
    <path stroke-width="0.25" stroke-linejoin="round" d="M49.265 35.71L47.515 35.947L47.447 36.854"/>
    <path stroke-width="0.25" stroke-linejoin="round" d="M47.531 36.502L47.801 36.787L47.777 37.125"/>
    <path stroke-width="0.131" stroke-linejoin="round" d="M47.548 36.854L47.716 36.838"/>
    <path stroke-width="0.131" stroke-linejoin="round" d="M49.298 35.795L49.215 36.569L48.878 36.636L48.828 36.99"/>
    <path stroke-width="0.131" stroke-linejoin="round" d="M48.878 36.636L48.372 36.182"/>
    <path stroke-width="0.131" stroke-linejoin="round" d="M48.777 37.073L48.271 36.619"/>
    <path stroke-width="0.131" stroke-linejoin="round" d="M49.215 36.518L48.576 35.996"/>
    <path stroke-width="0.25" stroke-linejoin="round" d="M47.564 36.148C47.7 36.232 47.75 36.182 47.902 36.182C48.054 36.182 48.356 36.164 48.524 36.064C48.692 35.963 48.625 35.862 48.625 35.862"/>
    <path stroke-width="0.131" stroke-linejoin="round" d="M49.148 37.128L49.061 38.588"/>
    <path stroke-width="0.131" stroke-linejoin="round" d="M49.057 38.604L47.271 38.853"/>
    <path stroke-width="0.25" stroke-linejoin="round" d="M48.39 37.292L48.341 37.938L47.564 38.051L47.618 37.409"/>
    <path stroke-width="0.131" stroke-linejoin="round" d="M47.564 38.051L47.313 38.723"/>
    <path stroke-width="0.131" stroke-linejoin="round" d="M48.341 37.938L48.978 38.505"/>
   </g>
   <g>
    <path stroke-width="0.131" stroke-linejoin="round" d="M49.764 37.024L49.67 38.515"/>
    <path stroke-width="0.25" stroke-linejoin="round" d="M51.567 36.774L49.764 37.024"/>
    <path stroke-width="0.25" stroke-linejoin="round" d="M51.694 35.381L49.951 35.615L49.88 36.521"/>
    <path stroke-width="0.25" stroke-linejoin="round" d="M49.966 36.168L50.231 36.454L50.206 36.79"/>
    <path stroke-width="0.131" stroke-linejoin="round" d="M49.979 36.521L50.148 36.505"/>
    <path stroke-width="0.131" stroke-linejoin="round" d="M51.726 35.465L51.64 36.237L51.304 36.304L51.253 36.656"/>
    <path stroke-width="0.131" stroke-linejoin="round" d="M51.304 36.304L50.804 35.85"/>
    <path stroke-width="0.131" stroke-linejoin="round" d="M51.201 36.74L50.701 36.287"/>
    <path stroke-width="0.131" stroke-linejoin="round" d="M51.64 36.186L51.006 35.665"/>
    <path stroke-width="0.25" stroke-linejoin="round" d="M50 35.816C50.134 35.901 50.183 35.85 50.335 35.85C50.487 35.85 50.786 35.834 50.956 35.732C51.124 35.631 51.057 35.53 51.057 35.53"/>
    <path stroke-width="0.131" stroke-linejoin="round" d="M51.57 36.795L51.478 38.253"/>
    <path stroke-width="0.131" stroke-linejoin="round" d="M51.473 38.268L49.697 38.515"/>
    <path stroke-width="0.25" stroke-linejoin="round" d="M50.816 36.959L50.765 37.603L49.991 37.715L50.048 37.076"/>
    <path stroke-width="0.131" stroke-linejoin="round" d="M49.991 37.715L49.737 38.387"/>
    <path stroke-width="0.131" stroke-linejoin="round" d="M50.765 37.603L51.396 38.168"/>
   </g>
   <g>
    <path stroke-width="0.131" stroke-linejoin="round" d="M52.195 36.689L52.095 38.176"/>
    <path stroke-width="0.25" stroke-linejoin="round" d="M53.988 36.442L52.195 36.689"/>
    <path stroke-width="0.25" stroke-linejoin="round" d="M54.121 35.051L52.387 35.283L52.313 36.189"/>
    <path stroke-width="0.25" stroke-linejoin="round" d="M52.399 35.835L52.664 36.121L52.636 36.457"/>
    <path stroke-width="0.131" stroke-linejoin="round" d="M52.412 36.189L52.579 36.171"/>
    <path stroke-width="0.131" stroke-linejoin="round" d="M54.155 35.134L54.064 35.905L53.731 35.972L53.677 36.323"/>
    <path stroke-width="0.131" stroke-linejoin="round" d="M53.731 35.972L53.234 35.518"/>
    <path stroke-width="0.131" stroke-linejoin="round" d="M53.627 36.408L53.131 35.954"/>
    <path stroke-width="0.131" stroke-linejoin="round" d="M54.064 35.854L53.436 35.335"/>
    <path stroke-width="0.25" stroke-linejoin="round" d="M52.435 35.484C52.567 35.569 52.618 35.518 52.768 35.518C52.917 35.518 53.218 35.502 53.386 35.402C53.554 35.301 53.487 35.2 53.487 35.2"/>
    <path stroke-width="0.131" stroke-linejoin="round" d="M53.993 36.462L53.896 37.917"/>
    <path stroke-width="0.131" stroke-linejoin="round" d="M53.89 37.932L52.121 38.179"/>
    <path stroke-width="0.25" stroke-linejoin="round" d="M53.241 36.625L53.189 37.268L52.417 37.378L52.476 36.741"/>
    <path stroke-width="0.131" stroke-linejoin="round" d="M52.417 37.378L52.162 38.048"/>
    <path stroke-width="0.131" stroke-linejoin="round" d="M53.189 37.268L53.814 37.832"/>
   </g>
   <g>
    <path stroke-width="0.131" stroke-linejoin="round" d="M54.625 36.356L54.521 37.84"/>
    <path stroke-width="0.25" stroke-linejoin="round" d="M56.412 36.109L54.625 36.356"/>
    <path stroke-width="0.25" stroke-linejoin="round" d="M56.551 34.719L54.823 34.951L54.744 35.854"/>
    <path stroke-width="0.25" stroke-linejoin="round" d="M54.832 35.503L55.094 35.789L55.066 36.122"/>
    <path stroke-width="0.131" stroke-linejoin="round" d="M54.844 35.854L55.011 35.838"/>
    <path stroke-width="0.131" stroke-linejoin="round" d="M56.584 34.804L56.49 35.573L56.158 35.64L56.103 35.99"/>
    <path stroke-width="0.131" stroke-linejoin="round" d="M56.158 35.64L55.665 35.186"/>
    <path stroke-width="0.131" stroke-linejoin="round" d="M56.051 36.073L55.561 35.621"/>
    <path stroke-width="0.131" stroke-linejoin="round" d="M56.49 35.523L55.868 35.003"/>
    <path stroke-width="0.25" stroke-linejoin="round" d="M54.871 35.152C55.002 35.235 55.052 35.185 55.201 35.185C55.35 35.186 55.649 35.17 55.817 35.07C55.984 34.969 55.918 34.869 55.918 34.869"/>
    <path stroke-width="0.131" stroke-linejoin="round" d="M56.417 36.128L56.313 37.581"/>
    <path stroke-width="0.131" stroke-linejoin="round" d="M56.307 37.597L54.545 37.841"/>
    <path stroke-width="0.25" stroke-linejoin="round" d="M55.667 36.292L55.612 36.932L54.844 37.042L54.905 36.406"/>
    <path stroke-width="0.131" stroke-linejoin="round" d="M54.844 37.042L54.588 37.712"/>
    <path stroke-width="0.131" stroke-linejoin="round" d="M55.612 36.932L56.231 37.496"/>
   </g>
   <g>
    <path stroke-width="0.131" stroke-linejoin="round" d="M57.057 36.021L56.945 37.502"/>
    <path stroke-width="0.25" stroke-linejoin="round" d="M58.835 35.774L57.057 36.021"/>
    <path stroke-width="0.25" stroke-linejoin="round" d="M58.979 34.39L57.259 34.619L57.176 35.521"/>
    <path stroke-width="0.25" stroke-linejoin="round" d="M57.267 35.17L57.524 35.456L57.496 35.789"/>
    <path stroke-width="0.131" stroke-linejoin="round" d="M57.276 35.521L57.442 35.506"/>
    <path stroke-width="0.131" stroke-linejoin="round" d="M59.011 34.472L58.914 35.24L58.584 35.307L58.527 35.658"/>
    <path stroke-width="0.131" stroke-linejoin="round" d="M58.584 35.307L58.097 34.856"/>
    <path stroke-width="0.131" stroke-linejoin="round" d="M58.476 35.74L57.99 35.289"/>
    <path stroke-width="0.131" stroke-linejoin="round" d="M58.915 35.191L58.298 34.671"/>
    <path stroke-width="0.25" stroke-linejoin="round" d="M57.304 34.82C57.435 34.905 57.487 34.853 57.634 34.854C57.783 34.854 58.081 34.838 58.247 34.738C58.414 34.639 58.35 34.539 58.35 34.539"/>
    <path stroke-width="0.131" stroke-linejoin="round" d="M58.838 35.795L58.728 37.244"/>
    <path stroke-width="0.131" stroke-linejoin="round" d="M58.722 37.259L56.97 37.503"/>
    <path stroke-width="0.25" stroke-linejoin="round" d="M58.094 35.957L58.033 36.597L57.271 36.707L57.335 36.073"/>
    <path stroke-width="0.131" stroke-linejoin="round" d="M57.271 36.707L57.012 37.375"/>
    <path stroke-width="0.131" stroke-linejoin="round" d="M58.033 36.597L58.649 37.161"/>
   </g>
   <g>
    <path stroke-width="0.131" stroke-linejoin="round" d="M59.487 35.686L59.369 37.164"/>
    <path stroke-width="0.25" stroke-linejoin="round" d="M61.259 35.442L59.487 35.686"/>
    <path stroke-width="0.25" stroke-linejoin="round" d="M59.695 34.384L59.61 35.188"/>
    <path stroke-width="0.25" stroke-linejoin="round" d="M59.701 34.838L59.956 35.122L59.924 35.456"/>
    <path stroke-width="0.131" stroke-linejoin="round" d="M59.709 35.189L59.874 35.171"/>
    <path stroke-width="0.131" stroke-linejoin="round" d="M61.222 34.116L61.341 34.909L61.011 34.975L60.953 35.325"/>
    <path stroke-width="0.131" stroke-linejoin="round" d="M61.011 34.975L60.529 34.524"/>
    <path stroke-width="0.131" stroke-linejoin="round" d="M60.902 35.408L60.42 34.957"/>
    <path stroke-width="0.131" stroke-linejoin="round" d="M61.341 34.859L60.729 34.341"/>
    <path stroke-width="0.25" stroke-linejoin="round" d="M59.74 34.488C59.871 34.573 59.92 34.523 60.069 34.523C60.216 34.523 60.512 34.508 60.679 34.408C60.844 34.307 60.781 34.207 60.781 34.207C60.781 34.207 60.692 33.911 60.457 33.616"/>
    <path stroke-width="0.131" stroke-linejoin="round" d="M61.262 35.463L61.146 36.908"/>
    <path stroke-width="0.131" stroke-linejoin="round" d="M61.14 36.923L59.395 37.165"/>
    <path stroke-width="0.25" stroke-linejoin="round" d="M60.52 35.624L60.457 36.262L59.698 36.371L59.764 35.738"/>
    <path stroke-width="0.131" stroke-linejoin="round" d="M59.698 36.371L59.436 37.037"/>
    <path stroke-width="0.131" stroke-linejoin="round" d="M60.457 36.262L61.067 36.825"/>
   </g>
   <g>
    <path stroke-width="0.131" stroke-linejoin="round" d="M61.918 35.353L61.795 36.826"/>
    <path stroke-width="0.25" stroke-linejoin="round" d="M63.682 35.109L61.918 35.353"/>
    <path stroke-width="0.25" stroke-linejoin="round" d="M59.31 30.765L61.838 33.939L62.042 34.854"/>
    <path stroke-width="0.25" stroke-linejoin="round" d="M62.134 34.506L62.387 34.789L62.354 35.121"/>
    <path stroke-width="0.131" stroke-linejoin="round" d="M62.14 34.856L62.304 34.838"/>
    <path stroke-width="0.131" stroke-linejoin="round" d="M63.868 33.813L63.765 34.578L63.436 34.643L63.378 34.991"/>
    <path stroke-width="0.131" stroke-linejoin="round" d="M63.436 34.643L62.959 34.192"/>
    <path stroke-width="0.131" stroke-linejoin="round" d="M63.326 35.075L62.85 34.625"/>
    <path stroke-width="0.131" stroke-linejoin="round" d="M63.767 34.527L63.159 34.009"/>
    <path stroke-width="0.25" stroke-linejoin="round" d="M63.213 33.877C63.213 33.877 63.276 33.976 63.109 34.076C62.942 34.176 62.649 34.192 62.502 34.191C62.354 34.191 62.304 34.24 62.176 34.156L61.472 33.484"/>
    <path stroke-width="0.131" stroke-linejoin="round" d="M63.685 35.13L63.563 36.573"/>
    <path stroke-width="0.131" stroke-linejoin="round" d="M63.557 36.588L61.82 36.829"/>
    <path stroke-width="0.25" stroke-linejoin="round" d="M62.945 35.289L62.881 35.927L62.125 36.036L62.194 35.404"/>
    <path stroke-width="0.131" stroke-linejoin="round" d="M62.125 36.036L61.862 36.701"/>
    <path stroke-width="0.131" stroke-linejoin="round" d="M62.881 35.927L63.484 36.488"/>
   </g>
   <g>
    <path stroke-width="0.131" stroke-linejoin="round" d="M64.349 35.018L64.218 36.49"/>
    <path stroke-width="0.25" stroke-linejoin="round" d="M66.105 34.776L64.349 35.018"/>
    <path stroke-width="0.25" stroke-linejoin="round" d="M66.266 33.399L64.569 33.625L64.475 34.521"/>
    <path stroke-width="0.25" stroke-linejoin="round" d="M64.567 34.173L64.819 34.456L64.784 34.787"/>
    <path stroke-width="0.131" stroke-linejoin="round" d="M64.572 34.521L64.736 34.506"/>
    <path stroke-width="0.131" stroke-linejoin="round" d="M66.296 33.481L66.191 34.246L65.862 34.31L65.802 34.658"/>
    <path stroke-width="0.131" stroke-linejoin="round" d="M65.862 34.31L65.391 33.86"/>
    <path stroke-width="0.131" stroke-linejoin="round" d="M65.751 34.741L65.278 34.292"/>
    <path stroke-width="0.131" stroke-linejoin="round" d="M66.191 34.195L65.59 33.679"/>
    <path stroke-width="0.25" stroke-linejoin="round" d="M64.611 33.825C64.739 33.908 64.789 33.859 64.935 33.859C65.081 33.859 65.373 33.844 65.54 33.744C65.706 33.646 65.644 33.545 65.644 33.545"/>
    <path stroke-width="0.131" stroke-linejoin="round" d="M66.108 34.795L65.98 36.237"/>
    <path stroke-width="0.131" stroke-linejoin="round" d="M65.974 36.252L64.243 36.49"/>
    <path stroke-width="0.25" stroke-linejoin="round" d="M65.37 34.956L65.305 35.593L64.552 35.7L64.623 35.07"/>
    <path stroke-width="0.131" stroke-linejoin="round" d="M64.552 35.7L64.287 36.362"/>
    <path stroke-width="0.131" stroke-linejoin="round" d="M65.305 35.593L65.902 36.152"/>
   </g>
  </g>
  <path stroke-width="0.131" stroke-linejoin="round" d="M47.069 44.311L46.982 45.79"/>
  <path stroke-width="0.25" stroke-linejoin="round" d="M48.86 44.046L47.069 44.311"/>
  <path stroke-width="0.25" stroke-linejoin="round" d="M48.981 42.662L47.247 42.911L47.18 43.813"/>
  <path stroke-width="0.25" stroke-linejoin="round" d="M47.264 43.46L47.53 43.743L47.506 44.076"/>
  <path stroke-width="0.131" stroke-linejoin="round" d="M47.28 43.811L47.448 43.793"/>
  <path stroke-width="0.131" stroke-linejoin="round" d="M49.014 42.746L48.93 43.512L48.597 43.582L48.548 43.932"/>
  <path stroke-width="0.131" stroke-linejoin="round" d="M48.597 43.582L48.097 43.137"/>
  <path stroke-width="0.131" stroke-linejoin="round" d="M48.497 44.017L47.997 43.572"/>
  <path stroke-width="0.131" stroke-linejoin="round" d="M48.93 43.463L48.298 42.953"/>
  <path stroke-width="0.25" stroke-linejoin="round" d="M47.298 43.11C47.43 43.194 47.481 43.143 47.631 43.142C47.78 43.14 48.082 43.121 48.247 43.018C48.414 42.917 48.347 42.819 48.347 42.819"/>
  <path stroke-width="0.131" stroke-linejoin="round" d="M48.865 44.067L48.78 45.515"/>
  <path stroke-width="0.131" stroke-linejoin="round" d="M48.774 45.53L47.008 45.792"/>
  <path stroke-width="0.25" stroke-linejoin="round" d="M48.115 44.237L48.067 44.877L47.298 44.993L47.35 44.36"/>
  <path stroke-width="0.131" stroke-linejoin="round" d="M47.298 44.993L47.048 45.664"/>
  <path stroke-width="0.131" stroke-linejoin="round" d="M48.067 44.877L48.698 45.432"/>
  <g>
   <path stroke-width="0.131" stroke-linejoin="round" d="M49.472 43.96L49.383 45.435"/>
   <path stroke-width="0.25" stroke-linejoin="round" d="M51.255 43.695L49.472 43.96"/>
   <path stroke-width="0.25" stroke-linejoin="round" d="M51.378 42.314L49.652 42.563L49.585 43.46"/>
   <path stroke-width="0.25" stroke-linejoin="round" d="M49.667 43.11L49.932 43.392L49.908 43.725"/>
   <path stroke-width="0.131" stroke-linejoin="round" d="M49.683 43.46L49.85 43.442"/>
   <path stroke-width="0.131" stroke-linejoin="round" d="M51.411 42.398L51.326 43.164L50.994 43.232L50.944 43.582"/>
   <path stroke-width="0.131" stroke-linejoin="round" d="M50.994 43.232L50.497 42.789"/>
   <path stroke-width="0.131" stroke-linejoin="round" d="M50.893 43.667L50.398 43.22"/>
   <path stroke-width="0.131" stroke-linejoin="round" d="M51.326 43.115L50.697 42.603"/>
   <path stroke-width="0.25" stroke-linejoin="round" d="M49.701 42.762C49.835 42.844 49.884 42.792 50.033 42.792C50.182 42.79 50.481 42.771 50.646 42.67C50.813 42.569 50.746 42.47 50.746 42.47"/>
   <path stroke-width="0.131" stroke-linejoin="round" d="M51.259 43.716L51.171 45.161"/>
   <path stroke-width="0.131" stroke-linejoin="round" d="M51.165 45.176L49.408 45.436"/>
   <path stroke-width="0.25" stroke-linejoin="round" d="M50.512 43.887L50.463 44.524L49.698 44.64L49.752 44.009"/>
   <path stroke-width="0.131" stroke-linejoin="round" d="M49.698 44.64L49.448 45.308"/>
   <path stroke-width="0.131" stroke-linejoin="round" d="M50.463 44.524L51.09 45.079"/>
  </g>
  <g>
   <path stroke-width="0.131" stroke-linejoin="round" d="M51.875 43.607L51.783 45.081"/>
   <path stroke-width="0.25" stroke-linejoin="round" d="M53.649 43.344L51.875 43.607"/>
   <path stroke-width="0.25" stroke-linejoin="round" d="M53.774 41.966L52.057 42.213L51.987 43.109"/>
   <path stroke-width="0.25" stroke-linejoin="round" d="M52.072 42.759L52.335 43.04L52.308 43.372"/>
   <path stroke-width="0.131" stroke-linejoin="round" d="M52.087 43.109L52.252 43.091"/>
   <path stroke-width="0.131" stroke-linejoin="round" d="M53.807 42.049L53.722 42.814L53.39 42.883L53.341 43.231"/>
   <path stroke-width="0.131" stroke-linejoin="round" d="M53.39 42.883L52.898 42.439"/>
   <path stroke-width="0.131" stroke-linejoin="round" d="M53.289 43.314L52.798 42.871"/>
   <path stroke-width="0.131" stroke-linejoin="round" d="M53.722 42.764L53.097 42.253"/>
   <path stroke-width="0.25" stroke-linejoin="round" d="M52.106 42.411C52.237 42.493 52.287 42.444 52.436 42.442C52.585 42.441 52.881 42.421 53.048 42.32C53.213 42.219 53.148 42.121 53.148 42.121"/>
   <path stroke-width="0.131" stroke-linejoin="round" d="M53.654 43.365L53.564 44.807"/>
   <path stroke-width="0.131" stroke-linejoin="round" d="M53.558 44.823L51.807 45.082"/>
   <path stroke-width="0.25" stroke-linejoin="round" d="M52.911 43.534L52.86 44.17L52.098 44.287L52.154 43.656"/>
   <path stroke-width="0.131" stroke-linejoin="round" d="M52.098 44.287L51.847 44.954"/>
   <path stroke-width="0.131" stroke-linejoin="round" d="M52.86 44.17L53.482 44.725"/>
  </g>
  <g>
   <path stroke-width="0.131" stroke-linejoin="round" d="M54.277 43.255L54.183 44.725"/>
   <path stroke-width="0.25" stroke-linejoin="round" d="M56.045 42.993L54.277 43.255"/>
   <path stroke-width="0.25" stroke-linejoin="round" d="M56.171 41.618L54.463 41.862L54.392 42.758"/>
   <path stroke-width="0.25" stroke-linejoin="round" d="M54.475 42.409L54.737 42.689L54.71 43.021"/>
   <path stroke-width="0.131" stroke-linejoin="round" d="M54.49 42.758L54.655 42.74"/>
   <path stroke-width="0.131" stroke-linejoin="round" d="M56.204 41.701L56.118 42.463L55.789 42.531L55.737 42.881"/>
   <path stroke-width="0.131" stroke-linejoin="round" d="M55.789 42.531L55.298 42.088"/>
   <path stroke-width="0.131" stroke-linejoin="round" d="M55.686 42.963L55.198 42.521"/>
   <path stroke-width="0.131" stroke-linejoin="round" d="M56.118 42.414L55.496 41.905"/>
   <path stroke-width="0.25" stroke-linejoin="round" d="M54.511 42.061C54.642 42.143 54.692 42.093 54.84 42.091C54.987 42.091 55.283 42.073 55.448 41.97C55.612 41.871 55.548 41.771 55.548 41.771"/>
   <path stroke-width="0.131" stroke-linejoin="round" d="M56.048 43.015L55.956 44.453"/>
   <path stroke-width="0.131" stroke-linejoin="round" d="M55.95 44.468L54.209 44.725"/>
   <path stroke-width="0.25" stroke-linejoin="round" d="M55.308 43.182L55.258 43.817L54.5 43.933L54.554 43.304"/>
   <path stroke-width="0.131" stroke-linejoin="round" d="M54.5 43.933L54.249 44.598"/>
   <path stroke-width="0.131" stroke-linejoin="round" d="M55.258 43.817L55.875 44.371"/>
  </g>
  <g>
   <path stroke-width="0.131" stroke-linejoin="round" d="M56.68 42.902L56.585 44.369"/>
   <path stroke-width="0.25" stroke-linejoin="round" d="M58.439 42.643L56.68 42.902"/>
   <path stroke-width="0.25" stroke-linejoin="round" d="M58.569 41.271L56.868 41.514L56.795 42.406"/>
   <path stroke-width="0.25" stroke-linejoin="round" d="M56.881 42.058L57.139 42.338L57.113 42.668"/>
   <path stroke-width="0.131" stroke-linejoin="round" d="M56.893 42.406L57.057 42.389"/>
   <path stroke-width="0.131" stroke-linejoin="round" d="M58.601 41.353L58.514 42.113L58.185 42.182L58.134 42.53"/>
   <path stroke-width="0.131" stroke-linejoin="round" d="M58.185 42.182L57.7 41.74"/>
   <path stroke-width="0.131" stroke-linejoin="round" d="M58.084 42.612L57.597 42.17"/>
   <path stroke-width="0.131" stroke-linejoin="round" d="M58.514 42.064L57.896 41.557"/>
   <path stroke-width="0.25" stroke-linejoin="round" d="M56.915 41.712C57.045 41.793 57.095 41.743 57.243 41.743C57.39 41.741 57.683 41.722 57.847 41.621C58.012 41.521 57.948 41.423 57.948 41.423"/>
   <path stroke-width="0.131" stroke-linejoin="round" d="M58.444 42.664L58.348 44.1"/>
   <path stroke-width="0.131" stroke-linejoin="round" d="M58.343 44.115L56.609 44.371"/>
   <path stroke-width="0.25" stroke-linejoin="round" d="M57.707 42.831L57.655 43.465L56.901 43.579L56.957 42.951"/>
   <path stroke-width="0.131" stroke-linejoin="round" d="M56.901 43.579L56.649 44.243"/>
   <path stroke-width="0.131" stroke-linejoin="round" d="M57.655 43.465L58.268 44.017"/>
  </g>
  <g>
   <path stroke-width="0.131" stroke-linejoin="round" d="M59.084 42.551L58.984 44.014"/>
   <path stroke-width="0.25" stroke-linejoin="round" d="M60.835 42.292L59.084 42.551"/>
   <path stroke-width="0.25" stroke-linejoin="round" d="M60.966 40.921L59.274 41.164L59.2 42.055"/>
   <path stroke-width="0.25" stroke-linejoin="round" d="M59.283 41.709L59.542 41.987L59.515 42.317"/>
   <path stroke-width="0.131" stroke-linejoin="round" d="M59.296 42.054L59.46 42.036"/>
   <path stroke-width="0.131" stroke-linejoin="round" d="M60.999 41.003L60.908 41.764L60.582 41.832L60.53 42.179"/>
   <path stroke-width="0.131" stroke-linejoin="round" d="M60.582 41.832L60.1 41.39"/>
   <path stroke-width="0.131" stroke-linejoin="round" d="M60.481 42.262L59.997 41.82"/>
   <path stroke-width="0.131" stroke-linejoin="round" d="M60.909 41.715L60.296 41.207"/>
   <path stroke-width="0.25" stroke-linejoin="round" d="M59.32 41.362C59.45 41.444 59.499 41.393 59.646 41.392C59.79 41.392 60.084 41.374 60.247 41.273C60.411 41.173 60.347 41.075 60.347 41.075"/>
   <path stroke-width="0.131" stroke-linejoin="round" d="M60.838 42.313L60.74 43.746"/>
   <path stroke-width="0.131" stroke-linejoin="round" d="M60.734 43.759L59.009 44.015"/>
   <path stroke-width="0.25" stroke-linejoin="round" d="M60.106 42.478L60.052 43.11L59.301 43.225L59.359 42.598"/>
   <path stroke-width="0.131" stroke-linejoin="round" d="M59.301 43.225L59.049 43.887"/>
   <path stroke-width="0.131" stroke-linejoin="round" d="M60.052 43.11L60.661 43.662"/>
  </g>
  <g>
   <path stroke-width="0.131" stroke-linejoin="round" d="M61.487 42.198L61.386 43.658"/>
   <path stroke-width="0.25" stroke-linejoin="round" d="M63.229 41.941L61.487 42.198"/>
   <path stroke-width="0.25" stroke-linejoin="round" d="M63.363 40.573L61.679 40.814L61.603 41.704"/>
   <path stroke-width="0.25" stroke-linejoin="round" d="M61.689 41.357L61.944 41.637L61.915 41.966"/>
   <path stroke-width="0.131" stroke-linejoin="round" d="M61.701 41.704L61.862 41.686"/>
   <path stroke-width="0.131" stroke-linejoin="round" d="M63.396 40.655L63.304 41.414L62.979 41.481L62.927 41.828"/>
   <path stroke-width="0.131" stroke-linejoin="round" d="M62.979 41.481L62.5 41.04"/>
   <path stroke-width="0.131" stroke-linejoin="round" d="M62.878 41.911L62.399 41.469"/>
   <path stroke-width="0.131" stroke-linejoin="round" d="M63.304 41.365L62.698 40.857"/>
   <path stroke-width="0.25" stroke-linejoin="round" d="M61.725 41.012C61.853 41.093 61.902 41.043 62.048 41.042C62.194 41.042 62.484 41.024 62.649 40.923C62.811 40.823 62.747 40.725 62.747 40.725"/>
   <path stroke-width="0.131" stroke-linejoin="round" d="M63.232 41.962L63.133 43.392"/>
   <path stroke-width="0.131" stroke-linejoin="round" d="M63.127 43.406L61.411 43.659"/>
   <path stroke-width="0.25" stroke-linejoin="round" d="M62.503 42.127L62.45 42.759L61.701 42.872L61.761 42.246"/>
   <path stroke-width="0.131" stroke-linejoin="round" d="M61.701 42.872L61.451 43.533"/>
   <path stroke-width="0.131" stroke-linejoin="round" d="M62.45 42.759L63.054 43.31"/>
  </g>
  <g>
   <path stroke-width="0.131" stroke-linejoin="round" d="M63.89 41.845L63.786 43.302"/>
   <path stroke-width="0.25" stroke-linejoin="round" d="M65.625 41.59L63.89 41.845"/>
   <path stroke-width="0.25" stroke-linejoin="round" d="M65.76 40.225L64.084 40.463L64.007 41.353"/>
   <path stroke-width="0.25" stroke-linejoin="round" d="M64.093 41.006L64.346 41.284L64.317 41.613"/>
   <path stroke-width="0.131" stroke-linejoin="round" d="M64.103 41.353L64.265 41.335"/>
   <path stroke-width="0.131" stroke-linejoin="round" d="M65.792 40.307L65.7 41.064L65.376 41.131L65.323 41.476"/>
   <path stroke-width="0.131" stroke-linejoin="round" d="M65.376 41.131L64.902 40.689"/>
   <path stroke-width="0.131" stroke-linejoin="round" d="M65.275 41.558L64.798 41.118"/>
   <path stroke-width="0.131" stroke-linejoin="round" d="M65.7 41.015L65.097 40.508"/>
   <path stroke-width="0.25" stroke-linejoin="round" d="M64.129 40.661C64.257 40.743 64.307 40.694 64.45 40.692C64.596 40.692 64.885 40.674 65.049 40.573C65.209 40.475 65.147 40.377 65.147 40.377"/>
   <path stroke-width="0.131" stroke-linejoin="round" d="M65.628 41.61L65.525 43.036"/>
   <path stroke-width="0.131" stroke-linejoin="round" d="M65.519 43.051L63.81 43.304"/>
   <path stroke-width="0.25" stroke-linejoin="round" d="M64.902 41.776L64.846 42.405L64.102 42.518L64.162 41.893"/>
   <path stroke-width="0.131" stroke-linejoin="round" d="M64.102 42.518L63.85 43.176"/>
   <path stroke-width="0.131" stroke-linejoin="round" d="M64.846 42.405L65.445 42.954"/>
  </g>
  <path stroke-width="0.201" stroke-linejoin="round" d="M53.255 25.443L49.491 25.914"/>
  <path stroke-width="0.13" stroke-linejoin="round" d="M32.029 28.972L32.206 27.501"/>
  <path stroke-width="0.13" stroke-linejoin="round" d="M54.02 25.914L54.195 24.445"/>
  <path stroke-width="0.13" stroke-linejoin="round" d="M68.57 25.503L68.688 23.916"/>
  <path stroke-width="0.13" stroke-linejoin="round" d="M68.042 25.62L68.159 24.033"/>
  <g>
   <g>
    <path stroke-width="0.131" stroke-linejoin="round" d="M48.804 42.137L48.304 41.691"/>
    <path stroke-width="0.131" stroke-linejoin="round" d="M47.072 42.456L48.804 42.2"/>
    <path stroke-width="0.131" stroke-linejoin="round" d="M47.185 39.777L47.1 41.256"/>
    <path stroke-width="0.25" stroke-linejoin="round" d="M48.978 39.512L47.185 39.777"/>
    <path stroke-width="0.131" stroke-linejoin="round" d="M48.982 39.533L48.898 40.981"/>
    <path stroke-width="0.131" stroke-linejoin="round" d="M48.892 40.996L47.125 41.258"/>
    <path stroke-width="0.25" stroke-linejoin="round" d="M48.231 39.704L48.185 40.341L47.415 40.46L47.468 39.826"/>
    <path stroke-width="0.131" stroke-linejoin="round" d="M47.415 40.46L47.165 41.128"/>
    <path stroke-width="0.131" stroke-linejoin="round" d="M48.185 40.341L48.814 40.898"/>
    <path stroke-width="0.353" stroke-linejoin="round" d="M48.393 41.088L47.494 41.22L47.487 41.618L47.121 41.692L47.084 42.353"/>
    <path stroke-width="0.25" stroke-linejoin="round" d="M48.753 41.445L48.423 41.49L48.186 41.268"/>
    <path stroke-width="0.131" stroke-linejoin="round" d="M48.841 41.475L48.804 42.137"/>
    <path stroke-width="0.25" stroke-linejoin="round" d="M48.436 41.598C48.436 41.598 48.479 41.731 48.393 41.746C48.304 41.761 47.524 41.893 47.524 41.893C47.524 41.893 47.363 41.893 47.304 41.789"/>
    <path stroke-width="0.131" stroke-linejoin="round" d="M48.289 41.451C48.201 41.466 47.421 41.598 47.421 41.598"/>
    <path stroke-width="0.131" stroke-linejoin="round" d="M48.523 41.143L48.503 41.511"/>
   </g>
   <g>
    <path stroke-width="0.131" stroke-linejoin="round" d="M51.198 41.779L50.703 41.334"/>
    <path stroke-width="0.131" stroke-linejoin="round" d="M49.469 42.097L51.198 41.841"/>
    <path stroke-width="0.131" stroke-linejoin="round" d="M49.598 39.42L49.505 40.899"/>
    <path stroke-width="0.25" stroke-linejoin="round" d="M51.387 39.155L49.598 39.42"/>
    <path stroke-width="0.131" stroke-linejoin="round" d="M51.392 39.176L51.298 40.622"/>
    <path stroke-width="0.131" stroke-linejoin="round" d="M51.293 40.639L49.53 40.899"/>
    <path stroke-width="0.25" stroke-linejoin="round" d="M50.643 39.345L50.591 39.984L49.823 40.103L49.88 39.469"/>
    <path stroke-width="0.131" stroke-linejoin="round" d="M49.823 40.103L49.57 40.771"/>
    <path stroke-width="0.131" stroke-linejoin="round" d="M50.591 39.984L51.216 40.54"/>
    <path stroke-width="0.353" stroke-linejoin="round" d="M50.795 40.731L49.898 40.863L49.889 41.259L49.521 41.334L49.481 41.994"/>
    <path stroke-width="0.25" stroke-linejoin="round" d="M51.152 41.088L50.822 41.133L50.588 40.911"/>
    <path stroke-width="0.131" stroke-linejoin="round" d="M51.24 41.118L51.198 41.779"/>
    <path stroke-width="0.25" stroke-linejoin="round" d="M50.835 41.24C50.835 41.24 50.878 41.372 50.79 41.387C50.703 41.402 49.924 41.534 49.924 41.534C49.924 41.534 49.764 41.534 49.706 41.432"/>
    <path stroke-width="0.131" stroke-linejoin="round" d="M50.689 41.094C50.601 41.109 49.823 41.24 49.823 41.24"/>
    <path stroke-width="0.131" stroke-linejoin="round" d="M50.923 40.786L50.901 41.152"/>
   </g>
   <g>
    <path stroke-width="0.131" stroke-linejoin="round" d="M53.594 41.421L53.101 40.976"/>
    <path stroke-width="0.131" stroke-linejoin="round" d="M51.868 41.74L53.594 41.484"/>
    <path stroke-width="0.131" stroke-linejoin="round" d="M52.012 39.064L51.909 40.542"/>
    <path stroke-width="0.25" stroke-linejoin="round" d="M53.798 38.799L52.012 39.064"/>
    <path stroke-width="0.131" stroke-linejoin="round" d="M53.801 38.82L53.701 40.267"/>
    <path stroke-width="0.131" stroke-linejoin="round" d="M53.695 40.281L51.936 40.542"/>
    <path stroke-width="0.25" stroke-linejoin="round" d="M53.054 38.99L53 39.628L52.232 39.746L52.292 39.112"/>
    <path stroke-width="0.131" stroke-linejoin="round" d="M52.232 39.746L51.976 40.414"/>
    <path stroke-width="0.131" stroke-linejoin="round" d="M53 39.628L53.619 40.183"/>
    <path stroke-width="0.353" stroke-linejoin="round" d="M53.2 40.375L52.302 40.506L52.292 40.902L51.926 40.976L51.881 41.637"/>
    <path stroke-width="0.25" stroke-linejoin="round" d="M53.551 40.731L53.222 40.776L52.99 40.554"/>
    <path stroke-width="0.131" stroke-linejoin="round" d="M53.639 40.761L53.594 41.421"/>
    <path stroke-width="0.25" stroke-linejoin="round" d="M53.234 40.884C53.234 40.884 53.277 41.015 53.189 41.03C53.101 41.045 52.325 41.177 52.325 41.177C52.325 41.177 52.164 41.176 52.107 41.073"/>
    <path stroke-width="0.131" stroke-linejoin="round" d="M53.091 40.737C53.003 40.752 52.226 40.884 52.226 40.884"/>
    <path stroke-width="0.131" stroke-linejoin="round" d="M53.326 40.429L53.301 40.795"/>
   </g>
   <g>
    <path stroke-width="0.131" stroke-linejoin="round" d="M55.99 41.064L55.502 40.619"/>
    <path stroke-width="0.131" stroke-linejoin="round" d="M54.265 41.383L55.99 41.128"/>
    <path stroke-width="0.131" stroke-linejoin="round" d="M54.426 38.707L54.316 40.183"/>
    <path stroke-width="0.25" stroke-linejoin="round" d="M56.21 38.442L54.426 38.707"/>
    <path stroke-width="0.131" stroke-linejoin="round" d="M56.213 38.463L56.103 39.909"/>
    <path stroke-width="0.131" stroke-linejoin="round" d="M56.097 39.924L54.341 40.185"/>
    <path stroke-width="0.25" stroke-linejoin="round" d="M55.466 38.633L55.408 39.271L54.642 39.389L54.704 38.756"/>
    <path stroke-width="0.131" stroke-linejoin="round" d="M54.642 39.389L54.383 40.057"/>
    <path stroke-width="0.131" stroke-linejoin="round" d="M55.408 39.271L56.023 39.828"/>
    <path stroke-width="0.353" stroke-linejoin="round" d="M55.603 40.018L54.707 40.149L54.695 40.545L54.328 40.619L54.28 41.28"/>
    <path stroke-width="0.25" stroke-linejoin="round" d="M55.951 40.374L55.624 40.418L55.393 40.198"/>
    <path stroke-width="0.131" stroke-linejoin="round" d="M56.039 40.404L55.99 41.064"/>
    <path stroke-width="0.25" stroke-linejoin="round" d="M55.636 40.527C55.636 40.527 55.676 40.658 55.588 40.673C55.502 40.688 54.725 40.82 54.725 40.82C54.725 40.82 54.566 40.82 54.509 40.716"/>
    <path stroke-width="0.131" stroke-linejoin="round" d="M55.491 40.38C55.404 40.395 54.628 40.526 54.628 40.526"/>
    <path stroke-width="0.131" stroke-linejoin="round" d="M55.728 40.072L55.701 40.439"/>
   </g>
   <g>
    <path stroke-width="0.131" stroke-linejoin="round" d="M58.387 40.707L57.902 40.262"/>
    <path stroke-width="0.131" stroke-linejoin="round" d="M56.664 41.024L58.384 40.771"/>
    <path stroke-width="0.131" stroke-linejoin="round" d="M56.84 38.35L56.72 39.826"/>
    <path stroke-width="0.25" stroke-linejoin="round" d="M58.619 38.087L56.84 38.35"/>
    <path stroke-width="0.131" stroke-linejoin="round" d="M58.624 38.107L58.506 39.552"/>
    <path stroke-width="0.131" stroke-linejoin="round" d="M58.5 39.567L56.746 39.828"/>
    <path stroke-width="0.25" stroke-linejoin="round" d="M57.877 38.277L57.814 38.914L57.051 39.031L57.118 38.399"/>
    <path stroke-width="0.131" stroke-linejoin="round" d="M57.051 39.031L56.789 39.7"/>
    <path stroke-width="0.131" stroke-linejoin="round" d="M57.814 38.914L58.426 39.47"/>
    <path stroke-width="0.353" stroke-linejoin="round" d="M58.005 39.661L57.112 39.792L57.097 40.189L56.731 40.262L56.679 40.923"/>
    <path stroke-width="0.25" stroke-linejoin="round" d="M58.353 40.017L58.024 40.061L57.795 39.841"/>
    <path stroke-width="0.131" stroke-linejoin="round" d="M58.439 40.046L58.387 40.707"/>
    <path stroke-width="0.25" stroke-linejoin="round" d="M58.036 40.17C58.036 40.17 58.076 40.301 57.988 40.317C57.901 40.332 57.127 40.463 57.127 40.463C57.127 40.463 56.966 40.462 56.911 40.359"/>
    <path stroke-width="0.131" stroke-linejoin="round" d="M57.893 40.023C57.805 40.037 57.031 40.168 57.031 40.168"/>
    <path stroke-width="0.131" stroke-linejoin="round" d="M58.131 39.715L58.103 40.082"/>
   </g>
   <g>
    <path stroke-width="0.131" stroke-linejoin="round" d="M60.781 40.35L60.302 39.905"/>
    <path stroke-width="0.131" stroke-linejoin="round" d="M59.064 40.667L60.78 40.414"/>
    <path stroke-width="0.131" stroke-linejoin="round" d="M59.253 37.993L59.127 39.469"/>
    <path stroke-width="0.25" stroke-linejoin="round" d="M61.03 37.729L59.253 37.993"/>
    <path stroke-width="0.131" stroke-linejoin="round" d="M61.033 37.75L60.908 39.195"/>
    <path stroke-width="0.131" stroke-linejoin="round" d="M60.902 39.212L59.152 39.47"/>
    <path stroke-width="0.25" stroke-linejoin="round" d="M60.289 37.92L60.222 38.557L59.46 38.674L59.53 38.042"/>
    <path stroke-width="0.131" stroke-linejoin="round" d="M59.46 38.674L59.195 39.343"/>
    <path stroke-width="0.131" stroke-linejoin="round" d="M60.222 38.557L60.829 39.113"/>
    <path stroke-width="0.353" stroke-linejoin="round" d="M60.408 39.304L59.517 39.435L59.499 39.831L59.134 39.905L59.079 40.564"/>
    <path stroke-width="0.25" stroke-linejoin="round" d="M60.753 39.659L60.424 39.704L60.198 39.484"/>
    <path stroke-width="0.131" stroke-linejoin="round" d="M60.838 39.689L60.781 40.35"/>
    <path stroke-width="0.25" stroke-linejoin="round" d="M60.435 39.813C60.435 39.813 60.475 39.945 60.387 39.959C60.301 39.973 59.527 40.106 59.527 40.106C59.527 40.106 59.368 40.104 59.313 40.003"/>
    <path stroke-width="0.131" stroke-linejoin="round" d="M60.295 39.665C60.207 39.679 59.433 39.811 59.433 39.811"/>
    <path stroke-width="0.131" stroke-linejoin="round" d="M60.533 39.357L60.503 39.725"/>
   </g>
   <g>
    <path stroke-width="0.131" stroke-linejoin="round" d="M63.179 39.993L62.701 39.548"/>
    <path stroke-width="0.131" stroke-linejoin="round" d="M61.462 40.31L63.176 40.057"/>
    <path stroke-width="0.131" stroke-linejoin="round" d="M61.667 37.637L61.533 39.112"/>
    <path stroke-width="0.25" stroke-linejoin="round" d="M63.442 37.374L61.667 37.637"/>
    <path stroke-width="0.131" stroke-linejoin="round" d="M63.445 37.395L63.31 38.84"/>
    <path stroke-width="0.131" stroke-linejoin="round" d="M63.304 38.854L61.557 39.113"/>
    <path stroke-width="0.25" stroke-linejoin="round" d="M62.7 37.563L62.631 38.201L61.869 38.317L61.944 37.686"/>
    <path stroke-width="0.131" stroke-linejoin="round" d="M61.869 38.317L61.6 38.985"/>
    <path stroke-width="0.131" stroke-linejoin="round" d="M62.631 38.201L63.232 38.756"/>
    <path stroke-width="0.353" stroke-linejoin="round" d="M62.811 38.947L61.921 39.078L61.902 39.473L61.536 39.546L61.478 40.207"/>
    <path stroke-width="0.25" stroke-linejoin="round" d="M63.152 39.304L62.826 39.347L62.601 39.127"/>
    <path stroke-width="0.131" stroke-linejoin="round" d="M63.237 39.332L63.179 39.993"/>
    <path stroke-width="0.25" stroke-linejoin="round" d="M62.835 39.456C62.835 39.456 62.875 39.588 62.787 39.603C62.7 39.616 61.929 39.747 61.929 39.747C61.929 39.747 61.77 39.747 61.716 39.645"/>
    <path stroke-width="0.131" stroke-linejoin="round" d="M62.695 39.308C62.609 39.323 61.837 39.454 61.837 39.454"/>
    <path stroke-width="0.131" stroke-linejoin="round" d="M62.936 39L62.904 39.368"/>
   </g>
   <g>
    <path stroke-width="0.131" stroke-linejoin="round" d="M65.575 39.636L65.102 39.191"/>
    <path stroke-width="0.131" stroke-linejoin="round" d="M63.86 39.951L65.572 39.698"/>
    <path stroke-width="0.131" stroke-linejoin="round" d="M64.081 37.28L63.938 38.755"/>
    <path stroke-width="0.25" stroke-linejoin="round" d="M65.852 37.018L64.081 37.28"/>
    <path stroke-width="0.131" stroke-linejoin="round" d="M65.855 37.037L65.713 38.482"/>
    <path stroke-width="0.131" stroke-linejoin="round" d="M65.707 38.497L63.963 38.756"/>
    <path stroke-width="0.25" stroke-linejoin="round" d="M65.111 37.207L65.04 37.844L64.28 37.96L64.356 37.329"/>
    <path stroke-width="0.131" stroke-linejoin="round" d="M64.28 37.96L64.007 38.628"/>
    <path stroke-width="0.131" stroke-linejoin="round" d="M65.04 37.844L65.635 38.399"/>
    <path stroke-width="0.353" stroke-linejoin="round" d="M65.215 38.59L64.326 38.72L64.304 39.116L63.941 39.189L63.878 39.85"/>
    <path stroke-width="0.25" stroke-linejoin="round" d="M65.552 38.945L65.227 38.99L65.004 38.77"/>
    <path stroke-width="0.131" stroke-linejoin="round" d="M65.638 38.975L65.575 39.636"/>
    <path stroke-width="0.25" stroke-linejoin="round" d="M65.236 39.098C65.236 39.098 65.275 39.231 65.186 39.244C65.099 39.259 64.329 39.39 64.329 39.39C64.329 39.39 64.171 39.39 64.117 39.287"/>
    <path stroke-width="0.131" stroke-linejoin="round" d="M65.097 38.951C65.01 38.966 64.239 39.097 64.239 39.097"/>
    <path stroke-width="0.131" stroke-linejoin="round" d="M65.34 38.645L65.304 39.011"/>
   </g>
  </g>
  <g>
   <g>
    <path stroke-width="0.131" stroke-linejoin="round" d="M48.598 48.746L48.103 48.304"/>
    <path stroke-width="0.131" stroke-linejoin="round" d="M46.884 49.054L48.598 48.81"/>
    <path stroke-width="0.131" stroke-linejoin="round" d="M46.997 46.404L46.912 47.866"/>
    <path stroke-width="0.25" stroke-linejoin="round" d="M48.771 46.115L46.997 46.404"/>
    <path stroke-width="0.131" stroke-linejoin="round" d="M48.776 46.134L48.692 47.603"/>
    <path stroke-width="0.131" stroke-linejoin="round" d="M48.686 47.618L46.938 47.868"/>
    <path stroke-width="0.25" stroke-linejoin="round" d="M48.033 46.335L47.985 46.966L47.225 47.079L47.277 46.453"/>
    <path stroke-width="0.131" stroke-linejoin="round" d="M47.225 47.079L46.976 47.74"/>
    <path stroke-width="0.131" stroke-linejoin="round" d="M47.985 46.968L48.609 47.521"/>
    <path stroke-width="0.353" stroke-linejoin="round" d="M48.194 47.707L47.302 47.835L47.296 48.226L46.932 48.298L46.896 48.953"/>
    <path stroke-width="0.25" stroke-linejoin="round" d="M48.548 48.063L48.22 48.104L47.987 47.884"/>
    <path stroke-width="0.131" stroke-linejoin="round" d="M48.636 48.093L48.598 48.746"/>
    <path stroke-width="0.25" stroke-linejoin="round" d="M48.235 48.213C48.235 48.213 48.279 48.343 48.192 48.359C48.104 48.371 47.334 48.499 47.334 48.499C47.334 48.499 47.173 48.497 47.115 48.396"/>
    <path stroke-width="0.131" stroke-linejoin="round" d="M48.09 48.066C48.003 48.081 47.231 48.207 47.231 48.207"/>
    <path stroke-width="0.131" stroke-linejoin="round" d="M48.32 47.762L48.299 48.125"/>
   </g>
   <g>
    <path stroke-width="0.131" stroke-linejoin="round" d="M50.972 48.399L50.481 47.956"/>
    <path stroke-width="0.131" stroke-linejoin="round" d="M49.259 48.707L50.972 48.46"/>
    <path stroke-width="0.131" stroke-linejoin="round" d="M49.386 46.057L49.293 47.52"/>
    <path stroke-width="0.25" stroke-linejoin="round" d="M51.156 45.771L49.386 46.057"/>
    <path stroke-width="0.131" stroke-linejoin="round" d="M51.161 45.792L51.07 47.256"/>
    <path stroke-width="0.131" stroke-linejoin="round" d="M51.066 47.27L49.32 47.521"/>
    <path stroke-width="0.25" stroke-linejoin="round" d="M50.418 45.987L50.369 46.619L49.609 46.732L49.664 46.106"/>
    <path stroke-width="0.131" stroke-linejoin="round" d="M49.609 46.732L49.359 47.393"/>
    <path stroke-width="0.131" stroke-linejoin="round" d="M50.369 46.619L50.99 47.173"/>
    <path stroke-width="0.353" stroke-linejoin="round" d="M50.573 47.359L49.685 47.487L49.676 47.88L49.313 47.951L49.274 48.604"/>
    <path stroke-width="0.25" stroke-linejoin="round" d="M50.926 47.713L50.598 47.756L50.368 47.536"/>
    <path stroke-width="0.131" stroke-linejoin="round" d="M51.012 47.743L50.972 48.399"/>
    <path stroke-width="0.25" stroke-linejoin="round" d="M50.612 47.865C50.612 47.865 50.655 47.996 50.567 48.009C50.481 48.024 49.71 48.151 49.71 48.151C49.71 48.151 49.551 48.151 49.493 48.048"/>
    <path stroke-width="0.131" stroke-linejoin="round" d="M50.468 47.719C50.38 47.732 49.61 47.859 49.61 47.859"/>
    <path stroke-width="0.131" stroke-linejoin="round" d="M50.7 47.414L50.676 47.777"/>
   </g>
   <g>
    <path stroke-width="0.131" stroke-linejoin="round" d="M53.344 48.052L52.856 47.61"/>
    <path stroke-width="0.131" stroke-linejoin="round" d="M51.634 48.36L53.344 48.115"/>
    <path stroke-width="0.131" stroke-linejoin="round" d="M51.776 45.712L51.676 47.173"/>
    <path stroke-width="0.25" stroke-linejoin="round" d="M53.543 45.432L51.776 45.712"/>
    <path stroke-width="0.131" stroke-linejoin="round" d="M53.548 45.453L53.45 46.909"/>
    <path stroke-width="0.131" stroke-linejoin="round" d="M53.442 46.924L51.701 47.176"/>
    <path stroke-width="0.25" stroke-linejoin="round" d="M52.807 45.643L52.753 46.274L51.994 46.387L52.054 45.762"/>
    <path stroke-width="0.131" stroke-linejoin="round" d="M51.994 46.387L51.741 47.048"/>
    <path stroke-width="0.131" stroke-linejoin="round" d="M52.753 46.274L53.368 46.829"/>
    <path stroke-width="0.353" stroke-linejoin="round" d="M52.951 47.015L52.064 47.142L52.054 47.534L51.691 47.606L51.649 48.259"/>
    <path stroke-width="0.25" stroke-linejoin="round" d="M53.301 47.369L52.975 47.411L52.746 47.192"/>
    <path stroke-width="0.131" stroke-linejoin="round" d="M53.387 47.399L53.344 48.052"/>
    <path stroke-width="0.25" stroke-linejoin="round" d="M52.987 47.52C52.987 47.52 53.03 47.649 52.944 47.664C52.856 47.679 52.088 47.805 52.088 47.805C52.088 47.805 51.929 47.804 51.871 47.703"/>
    <path stroke-width="0.131" stroke-linejoin="round" d="M52.844 47.372C52.758 47.387 51.99 47.515 51.99 47.515"/>
    <path stroke-width="0.131" stroke-linejoin="round" d="M53.078 47.069L53.054 47.432"/>
   </g>
   <g>
    <path stroke-width="0.131" stroke-linejoin="round" d="M55.716 47.707L55.232 47.265"/>
    <path stroke-width="0.131" stroke-linejoin="round" d="M54.009 48.015L55.716 47.771"/>
    <path stroke-width="0.131" stroke-linejoin="round" d="M54.165 45.368L54.057 46.829"/>
    <path stroke-width="0.25" stroke-linejoin="round" d="M55.93 45.093L54.165 45.368"/>
    <path stroke-width="0.131" stroke-linejoin="round" d="M55.935 45.113L55.828 46.566"/>
    <path stroke-width="0.131" stroke-linejoin="round" d="M55.822 46.581L54.082 46.829"/>
    <path stroke-width="0.25" stroke-linejoin="round" d="M55.194 45.298L55.137 45.93L54.381 46.042L54.442 45.417"/>
    <path stroke-width="0.131" stroke-linejoin="round" d="M54.381 46.042L54.124 46.704"/>
    <path stroke-width="0.131" stroke-linejoin="round" d="M55.137 45.93L55.747 46.484"/>
    <path stroke-width="0.353" stroke-linejoin="round" d="M55.331 46.67L54.445 46.796L54.432 47.189L54.07 47.259L54.024 47.914"/>
    <path stroke-width="0.25" stroke-linejoin="round" d="M55.677 47.024L55.351 47.067L55.125 46.847"/>
    <path stroke-width="0.131" stroke-linejoin="round" d="M55.764 47.054L55.716 47.707"/>
    <path stroke-width="0.25" stroke-linejoin="round" d="M55.363 47.174C55.363 47.174 55.405 47.305 55.319 47.32C55.232 47.334 54.465 47.46 54.465 47.46C54.465 47.46 54.305 47.46 54.25 47.356"/>
    <path stroke-width="0.131" stroke-linejoin="round" d="M55.222 47.027C55.136 47.042 54.368 47.17 54.368 47.17"/>
    <path stroke-width="0.131" stroke-linejoin="round" d="M55.457 46.725L55.43 47.088"/>
   </g>
   <g>
    <path stroke-width="0.131" stroke-linejoin="round" d="M58.088 47.363L57.609 46.92"/>
    <path stroke-width="0.131" stroke-linejoin="round" d="M56.384 47.67L58.088 47.426"/>
    <path stroke-width="0.131" stroke-linejoin="round" d="M56.555 45.023L56.439 46.484"/>
    <path stroke-width="0.25" stroke-linejoin="round" d="M58.317 44.753L56.555 45.023"/>
    <path stroke-width="0.131" stroke-linejoin="round" d="M58.32 44.774L58.207 46.22"/>
    <path stroke-width="0.131" stroke-linejoin="round" d="M58.201 46.235L56.463 46.485"/>
    <path stroke-width="0.25" stroke-linejoin="round" d="M57.582 44.954L57.521 45.585L56.765 45.698L56.831 45.072"/>
    <path stroke-width="0.131" stroke-linejoin="round" d="M56.765 45.698L56.506 46.359"/>
    <path stroke-width="0.131" stroke-linejoin="round" d="M57.521 45.585L58.127 46.139"/>
    <path stroke-width="0.353" stroke-linejoin="round" d="M57.71 46.326L56.826 46.451L56.811 46.844L56.45 46.914L56.399 47.569"/>
    <path stroke-width="0.25" stroke-linejoin="round" d="M58.054 46.679L57.728 46.722L57.503 46.502"/>
    <path stroke-width="0.131" stroke-linejoin="round" d="M58.14 46.709L58.088 47.363"/>
    <path stroke-width="0.25" stroke-linejoin="round" d="M57.74 46.829C57.74 46.829 57.781 46.96 57.695 46.975C57.607 46.988 56.841 47.115 56.841 47.115C56.841 47.115 56.682 47.113 56.628 47.012"/>
    <path stroke-width="0.131" stroke-linejoin="round" d="M57.6 46.683C57.514 46.698 56.746 46.825 56.746 46.825"/>
    <path stroke-width="0.131" stroke-linejoin="round" d="M57.835 46.38L57.807 46.743"/>
   </g>
   <g>
    <path stroke-width="0.131" stroke-linejoin="round" d="M60.134 46.625L59.984 46.576"/>
    <path stroke-width="0.131" stroke-linejoin="round" d="M58.945 44.677L58.82 46.139"/>
    <path stroke-width="0.25" stroke-linejoin="round" d="M60.704 44.414L58.945 44.677"/>
    <path stroke-width="0.131" stroke-linejoin="round" d="M60.707 44.435L60.585 45.875"/>
    <path stroke-width="0.131" stroke-linejoin="round" d="M60.579 45.892L58.845 46.14"/>
    <path stroke-width="0.25" stroke-linejoin="round" d="M59.969 44.609L59.905 45.241L59.151 45.353L59.219 44.728"/>
    <path stroke-width="0.131" stroke-linejoin="round" d="M59.151 45.353L58.887 46.014"/>
    <path stroke-width="0.131" stroke-linejoin="round" d="M59.905 45.241L60.506 45.793"/>
    <path stroke-width="0.353" stroke-linejoin="round" d="M60.09 45.981L59.207 46.106L59.189 46.499L58.829 46.57L58.774 47.222"/>
    <path stroke-width="0.25" stroke-linejoin="round" d="M60.43 46.335L60.106 46.378L59.881 46.158"/>
    <path stroke-width="0.131" stroke-linejoin="round" d="M60.515 46.365L60.134 46.625"/>
    <path stroke-width="0.25" stroke-linejoin="round" d="M60.116 46.484C60.116 46.484 60.156 46.615 60.07 46.63C59.984 46.643 59.219 46.77 59.219 46.77C59.219 46.77 59.06 46.768 59.006 46.667"/>
    <path stroke-width="0.131" stroke-linejoin="round" d="M59.976 46.338C59.89 46.353 59.125 46.479 59.125 46.479"/>
    <path stroke-width="0.131" stroke-linejoin="round" d="M60.213 46.034L60.182 46.398"/>
   </g>
   <g>
    <path stroke-width="0.131" stroke-linejoin="round" d="M62.834 46.67L62.362 46.228"/>
    <path stroke-width="0.131" stroke-linejoin="round" d="M61.335 44.331L61.203 45.79"/>
    <path stroke-width="0.25" stroke-linejoin="round" d="M63.091 44.073L61.335 44.331"/>
    <path stroke-width="0.131" stroke-linejoin="round" d="M63.094 44.094L62.965 45.529"/>
    <path stroke-width="0.131" stroke-linejoin="round" d="M62.957 45.543L61.228 45.792"/>
    <path stroke-width="0.25" stroke-linejoin="round" d="M62.357 44.262L62.29 44.893L61.537 45.006L61.609 44.38"/>
    <path stroke-width="0.131" stroke-linejoin="round" d="M61.537 45.006L61.271 45.665"/>
    <path stroke-width="0.131" stroke-linejoin="round" d="M62.29 44.893L62.887 45.447"/>
    <path stroke-width="0.353" stroke-linejoin="round" d="M62.469 45.633L61.588 45.758L61.569 46.151L61.09 46.258L60.575 46.582L60.28 46.61"/>
    <path stroke-width="0.25" stroke-linejoin="round" d="M62.807 45.987L62.484 46.029L62.262 45.808"/>
    <path stroke-width="0.131" stroke-linejoin="round" d="M62.893 46.017L62.834 46.67"/>
    <path stroke-width="0.25" stroke-linejoin="round" d="M62.493 46.137C62.493 46.137 62.533 46.267 62.447 46.28C62.359 46.295 61.597 46.421 61.597 46.421C61.597 46.421 61.439 46.42 61.384 46.319"/>
    <path stroke-width="0.131" stroke-linejoin="round" d="M62.356 45.99C62.27 46.005 61.506 46.131 61.506 46.131"/>
    <path stroke-width="0.131" stroke-linejoin="round" d="M62.594 45.686L62.561 46.049"/>
   </g>
   <g>
    <path stroke-width="0.131" stroke-linejoin="round" d="M65.204 46.329L64.737 45.886"/>
    <path stroke-width="0.131" stroke-linejoin="round" d="M63.509 46.631L65.203 46.39"/>
    <path stroke-width="0.131" stroke-linejoin="round" d="M63.728 43.987L63.585 45.447"/>
    <path stroke-width="0.25" stroke-linejoin="round" d="M65.48 43.737L63.728 43.987"/>
    <path stroke-width="0.131" stroke-linejoin="round" d="M65.483 43.758L65.343 45.188"/>
    <path stroke-width="0.131" stroke-linejoin="round" d="M65.337 45.203L63.609 45.448"/>
    <path stroke-width="0.25" stroke-linejoin="round" d="M64.746 43.92L64.676 44.551L63.923 44.661L64 44.037"/>
    <path stroke-width="0.131" stroke-linejoin="round" d="M63.923 44.661L63.652 45.322"/>
    <path stroke-width="0.131" stroke-linejoin="round" d="M64.676 44.551L65.266 45.106"/>
    <path stroke-width="0.353" stroke-linejoin="round" d="M64.849 45.29L63.969 45.414L63.948 45.807L63.587 45.878L63.526 46.53"/>
    <path stroke-width="0.25" stroke-linejoin="round" d="M65.183 45.646L64.861 45.688L64.641 45.468"/>
    <path stroke-width="0.131" stroke-linejoin="round" d="M65.268 45.676L65.204 46.329"/>
    <path stroke-width="0.25" stroke-linejoin="round" d="M64.87 45.795C64.87 45.795 64.908 45.924 64.82 45.939C64.734 45.954 63.972 46.079 63.972 46.079C63.972 46.079 63.816 46.078 63.762 45.975"/>
    <path stroke-width="0.131" stroke-linejoin="round" d="M64.733 45.649C64.647 45.662 63.884 45.787 63.884 45.787"/>
    <path stroke-width="0.131" stroke-linejoin="round" d="M64.972 45.345L64.936 45.707"/>
   </g>
  </g>
  <path stroke-width="0.131" stroke-linejoin="round" d="M61.162 33.999L58.692 30.824"/>
  <path stroke-width="0.13" stroke-linejoin="round" d="M60.07 34.22L60.722 34.146"/>
  <path stroke-width="0.25" stroke-linejoin="round" d="M27.48 33.073C26.899 33.11 26.428 33.292 25.993 33.401C25.993 33.401 25.579 33.536 25.429 33.636"/>
  <path stroke-width="0.13" stroke-linejoin="round" d="M26.783 31.905L27.48 33.073"/>
  <g>
   <text x="37.317" y="10.583" stroke="none" fill="#000000" font-family="'Arial'" font-size="8.818">588 192</text>
  </g>
  <path stroke-width="0.25" stroke-linejoin="round" d="M19.239 52.061C19.519 52.267 19.696 52.384 19.725 52.649C19.754 52.912 19.843 53.941 19.843 53.941"/>
  <path stroke-width="0.131" stroke-linejoin="round" d="M25.629 51.485L21.033 52.203"/>
  <path stroke-width="0.131" stroke-linejoin="round" d="M21.428 52.765L25.952 52.043"/>
  <path stroke-width="0.131" stroke-linejoin="round" d="M20.018 54.058L21.399 53.853"/>
  <path stroke-width="0.131" stroke-linejoin="round" d="M21.414 53.746L21.37 52.912"/>
  <path stroke-width="0.131" stroke-linejoin="round" d="M21.253 52.765L19.079 50.915"/>
  <path stroke-width="0.131" stroke-linejoin="round" d="M26.804 53.56L28.243 53.383"/>
  <path stroke-width="0.25" stroke-linejoin="round" d="M26.775 52.853L26.804 53.56"/>
  <line stroke-width="0.13" x1="44.347" y1="55.057" x2="49.231" y2="11.573"/>
 </g>
</svg>
