<?xml version="1.0" encoding="utf-8"?>
<!DOCTYPE svg PUBLIC "-//W3C//DTD SVG 1.1//EN" "http://www.w3.org/Graphics/SVG/1.1/DTD/svg11.dtd">
<!-- Generator: PTC Arbortext IsoDraw 7.3 -->
<svg width="100%" height="100%" viewBox="0 0 75 58.976"
 xmlns="http://www.w3.org/2000/svg" xmlns:xlink="http://www.w3.org/1999/xlink"
 fill-rule="evenodd" clip-rule="evenodd" stroke="#000000" stroke-linecap="round" fill="none" xml:space="preserve">
 <g id="Frame">
  <path stroke="none" fill="#FFFFFF" d="M75 58.976L0 58.976 0 0 75 0 75 58.976z"/>
 </g>
 <g id="Colour">
 </g>
 <g id="Standard_x0020_layer">
  <g>
   <path stroke-width="0.349" stroke-linejoin="round" d="M24.126 27.134C24.126 27.134 31.669 26.504 32.198 26.504C32.728 26.504 32.904 26.033 32.728 25.21"/>
   <path stroke-width="0.349" stroke-linejoin="round" d="M32.316 22.211C32.316 22.211 32.256 20.69 32.081 20.573C31.903 20.455 24.481 21.155 24.481 21.155"/>
   <path stroke-width="0.201" stroke-linejoin="round" d="M31.669 20.919C31.903 21.036 31.846 21.388 31.846 21.977C31.846 22.565 32.112 26.387 32.287 26.504"/>
   <path stroke-width="0.25" stroke-linejoin="round" d="M43.268 21.009C43.372 20.893 43.56 20.859 43.78 20.859C44.075 20.859 44.996 20.8 44.996 21.036C44.996 21.271 45.207 24.343 45.368 24.681"/>
   <path stroke-width="0.349" stroke-linejoin="round" d="M43.252 22.975C43.252 22.446 43.134 21.388 43.192 21.153C43.207 21.094 43.232 21.047 43.268 21.009"/>
   <path stroke-width="0.25" stroke-linejoin="round" d="M37.112 22.277C37.17 22.108 37.283 21.977 37.49 21.977C38.078 21.977 40.253 21.8 40.723 21.859C41.194 21.917 41.076 23.152 41.076 23.152C41.076 23.152 41.546 23.094 41.781 23.506C42.017 23.917 42.429 24.152 42.841 24.035C43.252 23.917 43.252 23.506 43.252 22.975"/>
   <path stroke-width="0.349" stroke-linejoin="round" d="M37.058 22.846C37.048 22.687 37.048 22.46 37.112 22.277"/>
   <path stroke-width="0.25" stroke-linejoin="round" d="M32.021 23.035C32.963 22.623 34.549 22.446 35.137 22.917C35.725 23.388 36.079 23.681 36.548 23.681C37.02 23.681 37.079 23.035 37.079 23.035C37.079 23.035 37.066 22.957 37.058 22.846"/>
   <path stroke-width="0.349" stroke-linejoin="round" d="M32.771 25.071C33.643 25.03 35.387 24.943 36.079 24.858C37.02 24.739 37.607 24.623 38.313 24.623C39.018 24.623 40.959 24.379 41.429 24.556C41.899 24.733 42.781 24.681 43.31 24.681C43.84 24.681 44.722 24.798 45.192 24.798C45.662 24.798 45.603 24.269 45.603 24.269C45.603 24.269 45.427 20.036 45.134 19.742C44.84 19.449 44.075 19.507 43.664 19.625C43.252 19.742 43.31 20.8 43.31 20.8"/>
   <path stroke-width="0.25" stroke-linejoin="round" d="M32.256 25.092C32.256 25.092 32.457 25.085 32.771 25.071"/>
   <path stroke-width="0.349" stroke-linejoin="round" d="M32.338 22.416C32.71 22.182 33.256 22.016 34.051 22.05C35.109 22.094 35.637 22.359 36.079 22.623C36.52 22.888 36.96 22.931 36.96 22.931"/>
   <path stroke-width="0.25" stroke-linejoin="round" d="M32.021 22.667C32.109 22.579 32.215 22.493 32.338 22.416"/>
   <path stroke-width="0.349" stroke-linejoin="round" d="M37.093 22.094C37.093 22.094 37.005 20.859 37.578 20.859C38.152 20.859 40.488 20.815 40.753 20.815C41.018 20.815 41.106 21.079 41.149 21.521C41.194 21.961 41.194 22.8 41.281 22.8C41.371 22.8 42.119 22.711 42.429 22.844C42.737 22.975 43.134 23.021 43.134 23.021"/>
   <path stroke-width="0.201" stroke-linejoin="round" d="M29.086 22.667C28.873 22.739 28.853 22.402 28.809 22.05C28.765 21.698 28.714 21.213 29.199 21.213C29.684 21.213 30.126 21.167 30.346 21.167C30.567 21.167 30.786 21.257 30.786 21.565C30.786 21.873 30.798 22.196 30.798 22.417C30.798 22.638 30.489 22.725 30.445 22.46C30.4 22.196 30.567 21.432 30.346 21.432C30.126 21.432 29.463 21.432 29.288 21.432C29.111 21.432 29.068 21.653 29.068 21.653C29.068 21.653 29.219 22.623 29.086 22.667z"/>
   <path stroke-width="0.13" stroke-linejoin="round" d="M28.443 21.801L24.539 22.129"/>
   <path stroke-width="0.13" stroke-linejoin="round" d="M30.167 21.783L29.37 21.846"/>
   <path stroke-width="0.13" stroke-linejoin="round" d="M31.492 21.565L31.091 21.596"/>
   <path stroke-width="0.201" stroke-linejoin="round" d="M24.539 23.393C24.539 23.393 26.73 23.329 26.774 23.594C26.818 23.858 26.995 25.358 26.907 25.71C26.818 26.062 26.774 26.15 26.332 26.15C25.893 26.15 24.274 26.347 24.274 26.347"/>
   <path stroke-width="0.201" stroke-linejoin="round" d="M24.582 23.835L26.422 23.725L26.597 25.71L24.495 25.818"/>
   <path stroke-width="0.25" stroke-linejoin="round" d="M1.683 32.677C4.24 34.265 6.71 34.265 8.739 34.97C10.766 35.676 18.527 36.646 21.439 32.412C24.349 28.179 25.231 23.506 24.085 19.978C22.937 16.449 23.82 11.688 20.733 6.924C17.646 2.162 17.117 1.457 17.117 1.457"/>
   <path stroke-width="0.25" stroke-linejoin="round" d="M32.463 1.722C31.846 6.66 29.728 16.89 28.318 20.594"/>
   <path stroke-width="0.201" stroke-linejoin="round" d="M8.503 34.676C5.445 33.383 3.447 31.266 2.153 29.032C0.86 26.798 5.564 25.856 8.621 24.092C11.678 22.329 14.5 18.919 15.794 16.449C17.088 13.98 18.028 13.628 18.852 14.333C18.852 14.333 22.614 17.038 23.789 19.271"/>
   <path stroke-width="0.13" stroke-linejoin="round" d="M20.968 2.692C24.849 3.397 28.289 2.956 30.376 2.338"/>
   <path stroke-width="0.13" stroke-linejoin="round" d="M3.329 9.159C5.211 7.865 8.855 4.69 10.15 3.75"/>
   <path stroke-width="0.25" stroke-linejoin="round" d="M51.247 39.615C51.6 40.204 52.189 40.145 52.718 39.969C53.207 39.805 54.238 39.444 54.345 36.146C54.365 35.558 54.012 35.558 54.012 35.558"/>
   <path stroke-width="0.13" stroke-linejoin="round" d="M51.924 36.969C51.924 36.969 52.365 36.969 53.042 36.969C53.718 36.969 54.335 36.704 54.335 36"/>
   <path stroke-width="0.25" stroke-linejoin="round" d="M50.954 30.678C51.247 30.503 51.6 30.385 52.07 30.385C52.509 30.385 54.104 31.045 54.329 34.441C54.329 35.454 53.585 36.116 52.835 36.116C52.085 36.116 51.954 36.116 51.954 36.116L51.924 36.137L51.924 36.902"/>
   <path stroke-width="0.25" stroke-linejoin="round" d="M49.661 7.453C50.073 7.278 50.659 7.16 51.012 7.453C51.365 7.748 51.895 8.923 51.895 11.335C51.895 13.744 50.837 14.568 50.365 14.568C49.896 14.568 49.601 14.34 49.601 14.34"/>
   <path stroke-width="0.25" stroke-linejoin="round" d="M37.02 25.033C36.902 25.975 36.96 35.5 36.96 35.853C36.96 36.206 37.079 36.381 37.43 36.381C37.783 36.381 48.426 36.381 48.896 36.381C49.366 36.381 49.661 36.264 49.661 35.793C49.661 35.793 49.719 33.383 49.719 32.618C49.719 31.855 49.307 28.797 49.307 27.562C49.307 26.327 49.484 23.858 49.249 23.858C49.014 23.858 45.838 23.858 45.838 23.858"/>
   <path stroke-width="0.13" stroke-linejoin="round" d="M37.43 33.09L42.447 33.09"/>
   <path stroke-width="0.13" stroke-linejoin="round" d="M43.442 32.972L49.484 32.972"/>
   <path stroke-width="0.201" stroke-linejoin="round" d="M42.848 24.858L42.972 36.265"/>
   <path stroke-width="0.131" stroke-linejoin="round" d="M37.49 25.327L42.369 25.327"/>
   <path stroke-width="0.131" stroke-linejoin="round" d="M43.369 25.327L49.073 25.327"/>
   <path stroke-width="0.131" stroke-linejoin="round" d="M42.487 30.207L37.43 30.207"/>
   <path stroke-width="0.131" stroke-linejoin="round" d="M49.191 30.266L43.192 30.266"/>
   <path stroke-width="0.25" stroke-linejoin="round" d="M35.197 25.152C35.197 25.152 34.902 35.265 34.844 36.206C34.784 37.146 34.902 38.792 34.902 38.792L35.609 49.17L50.659 49.14C50.659 49.14 50.896 47.493 51.012 46.319C51.131 45.143 51.247 39.087 51.247 38.204C51.247 37.323 51.365 35.969 51.247 35.146C51.131 34.323 50.307 25.621 49.954 22.917C49.601 20.213 49.719 16.097 49.542 12.686C49.366 9.276 49.719 4.161 49.719 3.573C49.719 2.985 49.954 2.692 49.837 1.633"/>
   <path stroke-width="0.25" stroke-linejoin="round" d="M51.247 44.966C51.954 46.142 52.365 48.14 52.307 50.668C52.247 53.198 52.189 55.197 52.247 57.078"/>
   <path stroke-width="0.25" stroke-linejoin="round" d="M35.079 44.201C34.234 44.694 33.491 45.905 33.609 48.14C33.726 50.375 34.079 54.902 34.021 57.255"/>
   <path stroke-width="0.131" stroke-linejoin="round" d="M39.018 45.966L47.191 45.966"/>
   <path stroke-width="0.201" stroke-linejoin="round" d="M47.191 48.993C47.191 48.993 47.603 38.499 47.603 36.557"/>
   <path stroke-width="0.201" stroke-linejoin="round" d="M38.49 36.616C38.49 37.439 38.49 38.381 38.49 38.381L39.018 48.993"/>
   <path stroke-width="0.25" stroke-linejoin="round" d="M37.048 1.544C37.048 1.544 37.209 12.393 37.209 16.097C37.209 19.8 37.137 21.036 37.137 21.036"/>
   <path stroke-width="0.25" stroke-linejoin="round" d="M49.719 3.573L37.225 3.573"/>
   <path stroke-width="0.25" stroke-linejoin="round" d="M48.866 19.713L48.866 16.626C48.866 16.626 48.866 16.097 48.338 16.097C47.808 16.097 42.694 16.097 42.694 16.097L42.694 16.89L37.665 16.89L37.665 20.507"/>
   <path stroke-width="0.25" stroke-linejoin="round" d="M43.427 19.8L42.517 19.8L42.517 21.742L41.149 21.742"/>
   <path stroke-width="0.25" stroke-linejoin="round" d="M48.893 23.89C48.893 23.89 48.954 20.507 48.954 20.242C48.954 19.978 48.514 19.8 48.514 19.8L45.238 19.8"/>
   <path stroke-width="0.13" stroke-linejoin="round" d="M43.223 20.859L42.604 20.859"/>
   <path stroke-width="0.13" stroke-linejoin="round" d="M48.779 20.859L45.405 20.859"/>
   <path stroke-width="0.13" stroke-linejoin="round" d="M48.603 17.684L42.869 17.684"/>
   <path stroke-width="0.25" stroke-linejoin="round" d="M42.694 16.89L42.694 19.625"/>
   <path stroke-width="0.25" stroke-linejoin="round" d="M42.517 21.742L42.517 22.623"/>
   <path stroke-width="0.13" stroke-linejoin="round" d="M42.517 18.39L37.843 18.39"/>
   <path stroke-width="0.25" stroke-linejoin="round" d="M42.694 16.097L42.694 5.248"/>
   <path stroke-width="0.13" stroke-linejoin="round" d="M37.49 4.897L49.396 4.897"/>
   <path stroke-width="0.25" stroke-linejoin="round" d="M49.512 7.541L37.402 7.541"/>
   <path stroke-width="0.131" stroke-linejoin="round" d="M49.512 7.012L37.402 7.012"/>
   <path stroke-width="0.131" stroke-linejoin="round" d="M42.604 9.041L37.314 9.041"/>
   <path stroke-width="0.25" stroke-linejoin="round" d="M42.604 9.57L37.314 9.57"/>
   <path stroke-width="0.25" stroke-linejoin="round" d="M50.042 49.262L48.015 50.585L38.195 50.581L36.167 49.258"/>
   <path stroke-width="0.13" stroke-linejoin="round" d="M51.512 50.845C50.984 51.904 50.454 52.698 47.808 52.698L38.195 52.698C35.549 52.698 35.021 51.904 34.49 50.845"/>
   <path stroke-width="0.25" stroke-linejoin="round" d="M52.395 48.728L52.923 48.728C52.923 48.728 53.63 52.344 53.63 56.93"/>
   <path stroke-width="0.25" stroke-linejoin="round" d="M35.197 22.006C35.549 18.39 35.021 1.457 35.021 1.457"/>
   <path stroke-width="0.25" stroke-linejoin="round" d="M35.113 13.715C35.113 13.715 33.966 13.715 33.526 13.715C33.085 13.715 32.996 11.599 32.996 10.452C32.996 9.305 33.085 7.19 33.526 7.19C33.966 7.19 35.029 7.19 35.029 7.19"/>
  </g>
 </g>
</svg>
