<?xml version="1.0" encoding="utf-8"?>
<!DOCTYPE svg PUBLIC "-//W3C//DTD SVG 1.1//EN" "http://www.w3.org/Graphics/SVG/1.1/DTD/svg11.dtd">
<!-- Generator: PTC Arbortext IsoDraw 7.3 -->
<svg width="100%" height="100%" viewBox="0 0 75 86.439"
 xmlns="http://www.w3.org/2000/svg" xmlns:xlink="http://www.w3.org/1999/xlink"
 fill-rule="evenodd" clip-rule="evenodd" stroke="#000000" stroke-linecap="round" fill="none" xml:space="preserve">
 <g id="Frame">
  <path stroke="none" fill="#FFFFFF" d="M75 86.439L0 86.439 0 0 75 0 75 86.439z"/>
 </g>
 <g id="Colour">
 </g>
 <g id="Standard_x0020_layer">
  <path stroke-width="0.3" d="M22.929 30.102C22.929 30.102 13.368 30.452 13.349 30.452C13.332 30.452 11.205 30.489 11.057 28.03C10.909 25.571 11.538 2.564 11.538 2.601C11.538 2.637 11.205 1.343 13.349 1.343C15.496 1.343 23.966 1.825 23.966 1.825C23.966 1.825 25.111 1.75 25.111 4.783C25.111 7.817 24.003 24.423 24.003 24.423L23.855 27.826"/>
  <path stroke-width="0.13" d="M11.352 27.641C11.538 28.714 11.574 29.047 12.943 29.047C14.311 29.047 21.783 28.789 21.783 28.789"/>
  <path stroke-width="0.13" d="M21.303 28.012L12.647 28.196C12.647 28.196 12.055 27.789 11.981 26.532C11.907 25.274 12.13 9.628 12.13 9.628C12.13 9.628 12.5 4.71 12.537 4.339C12.573 3.969 12.721 3.562 13.646 3.6C14.57 3.637 23.521 4.006 23.596 4.043C23.67 4.081 24.225 3.859 24.225 4.783C24.225 5.708 23.966 13.032 23.928 13.032C23.891 13.032 23.411 25.608 23.411 25.608"/>
  <path stroke-width="0.13" d="M13.868 3.637C13.092 3.637 13.164 4.229 13.128 4.562C13.092 4.894 12.943 11.035 12.943 11.035L16.826 11.146C16.826 11.146 20.378 11.625 20.266 15.399"/>
  <path stroke-width="0.13" d="M20.266 15.399C20.155 17.175 18.788 19.542 16.088 19.652C13.387 19.763 12.98 19.69 12.98 19.69L12.833 27.975"/>
  <line stroke-width="0.13" x1="13.349" y1="9.428" x2="13.541" y2="3.992"/>
  <line stroke-width="0.13" x1="13.541" y1="3.992" x2="23.528" y2="4.416"/>
  <line stroke-width="0.13" x1="23.528" y1="4.416" x2="23.336" y2="9.85"/>
  <line stroke-width="0.13" x1="13.349" y1="9.428" x2="23.336" y2="9.85"/>
  <line stroke-width="0.13" x1="13.926" y1="5.49" x2="13.83" y2="8.602"/>
  <line stroke-width="0.13" x1="14.195" y1="8.698" x2="22.53" y2="8.948"/>
  <line stroke-width="0.13" x1="22.722" y1="8.756" x2="22.836" y2="5.894"/>
  <line stroke-width="0.13" x1="22.606" y1="5.682" x2="14.137" y2="5.53"/>
  <path stroke-width="0.13" d="M16.942 10.291C17.268 10.157 17.364 10.445 17.652 10.33"/>
  <line stroke-width="0.13" x1="19.227" y1="11.617" x2="19.821" y2="11.617"/>
  <line stroke-width="0.13" x1="22.068" y1="13.576" x2="22.702" y2="13.615"/>
  <g>
   <path stroke-width="0.13" d="M17.295 12.169C17.295 11.993 17.152 11.85 16.977 11.85C16.8 11.85 16.658 11.993 16.658 12.169C16.658 12.345 16.8 12.487 16.977 12.487C17.152 12.487 17.295 12.345 17.295 12.169"/>
  </g>
  <g>
   <path stroke-width="0.13" d="M16.399 14.952C16.399 14.747 16.233 14.582 16.027 14.582C15.896 14.582 15.779 14.65 15.714 14.756"/>
   <path stroke-width="0.13" d="M16.378 15.073C16.391 15.032 16.399 14.99 16.399 14.952"/>
  </g>
  <g>
   <path stroke-width="0.13" d="M15.489 15.346C15.448 15.41 15.429 15.48 15.43 15.548C15.43 15.759 15.602 15.931 15.813 15.931C15.948 15.931 16.068 15.859 16.138 15.752"/>
  </g>
  <line stroke-width="0.13" x1="15.489" y1="15.346" x2="15.714" y2="14.756"/>
  <line stroke-width="0.13" x1="16.138" y1="15.752" x2="16.408" y2="15.07"/>
  <g>
   <path stroke-width="0.13" d="M14.6 17.393C14.595 17.429 14.592 17.466 14.593 17.498C14.593 17.853 14.881 18.143 15.237 18.143C15.522 18.143 15.766 17.954 15.85 17.692"/>
  </g>
  <g>
   <path stroke-width="0.13" d="M17.62 12.169C17.62 11.814 17.332 11.525 16.977 11.525C16.69 11.525 16.448 11.711 16.362 11.974"/>
   <path stroke-width="0.13" d="M17.591 12.359C17.611 12.294 17.621 12.228 17.62 12.169"/>
  </g>
  <line stroke-width="0.13" x1="17.623" y1="12.336" x2="15.845" y2="17.74"/>
  <line stroke-width="0.13" x1="16.375" y1="11.932" x2="14.608" y2="17.382"/>
  <g>
   <path stroke-width="0.13" d="M19.428 15.288C19.428 13.981 18.704 12.843 17.617 12.244"/>
   <path stroke-width="0.13" d="M16.414 11.855C16.257 11.835 16.102 11.824 15.965 11.826C14.053 11.826 12.503 13.375 12.503 15.288C12.503 17.201 14.053 18.751 15.965 18.751C17.878 18.751 19.428 17.201 19.428 15.288"/>
  </g>
  <line stroke-width="0.13" x1="17.179" y1="10.55" x2="17.347" y2="11.086"/>
  <line stroke-width="0.13" x1="17.347" y1="11.086" x2="17.565" y2="10.534"/>
  <line stroke-width="0.13" x1="19.39" y1="11.855" x2="19.474" y2="12.375"/>
  <line stroke-width="0.13" x1="19.474" y1="12.375" x2="19.707" y2="11.872"/>
  <line stroke-width="0.13" x1="20.478" y1="16.812" x2="20.495" y2="16.359"/>
  <line stroke-width="0.13" x1="20.495" y1="16.359" x2="20.646" y2="16.359"/>
  <line stroke-width="0.13" x1="20.527" y1="14.032" x2="20.527" y2="14.435"/>
  <line stroke-width="0.13" x1="20.527" y1="14.435" x2="20.678" y2="14.435"/>
  <line stroke-width="0.13" x1="20.913" y1="14.067" x2="20.913" y2="14.451"/>
  <line stroke-width="0.13" x1="21.315" y1="14.083" x2="21.315" y2="14.4"/>
  <line stroke-width="0.13" x1="21.315" y1="14.4" x2="21.533" y2="14.368"/>
  <line stroke-width="0.13" x1="21.867" y1="14.468" x2="21.9" y2="14.199"/>
  <line stroke-width="0.13" x1="21.9" y1="14.199" x2="22.269" y2="14.199"/>
  <line stroke-width="0.13" x1="22.269" y1="14.199" x2="22.269" y2="14.417"/>
  <line stroke-width="0.13" x1="22.437" y1="14.032" x2="22.571" y2="14.417"/>
  <line stroke-width="0.13" x1="22.571" y1="14.417" x2="22.638" y2="14.15"/>
  <line stroke-width="0.13" x1="19.054" y1="18.754" x2="20.025" y2="18.638"/>
  <line stroke-width="0.13" x1="20.728" y1="18.469" x2="20.243" y2="18.653"/>
  <line stroke-width="0.13" x1="20.243" y1="18.653" x2="20.678" y2="18.821"/>
  <line stroke-width="0.13" x1="20.678" y1="18.821" x2="20.728" y2="18.469"/>
  <line stroke-width="0.13" x1="17.163" y1="20.161" x2="16.961" y2="20.562"/>
  <line stroke-width="0.13" x1="17.163" y1="20.161" x2="17.314" y2="20.513"/>
  <line stroke-width="0.13" x1="14.282" y1="20.277" x2="14.048" y2="20.612"/>
  <line stroke-width="0.13" x1="14.215" y1="20.411" x2="14.367" y2="20.83"/>
  <path stroke-width="0.13" d="M16.777 19.867C17.103 19.733 17.199 20.021 17.487 19.905"/>
  <line stroke-width="0.13" x1="14.106" y1="20.004" x2="14.702" y2="20.004"/>
  <line stroke-width="0.13" x1="13.881" y1="10.382" x2="13.897" y2="10.768"/>
  <line stroke-width="0.13" x1="13.897" y1="10.768" x2="14.064" y2="10.785"/>
  <line stroke-width="0.13" x1="14.064" y1="10.785" x2="14.099" y2="10.534"/>
  <line stroke-width="0.13" x1="14.367" y1="10.416" x2="14.382" y2="10.852"/>
  <line stroke-width="0.13" x1="14.367" y1="10.416" x2="14.551" y2="10.5"/>
  <line stroke-width="0.13" x1="14.685" y1="10.5" x2="14.702" y2="10.667"/>
  <line stroke-width="0.13" x1="14.685" y1="10.5" x2="14.836" y2="10.534"/>
  <line stroke-width="0.13" x1="14.685" y1="10.5" x2="14.836" y2="10.534"/>
  <line stroke-width="0.13" x1="15.041" y1="11.806" x2="12.446" y2="11.842"/>
  <line stroke-width="0.13" x1="15.46" y1="18.812" x2="12.374" y2="18.794"/>
  <g>
   <path stroke-width="0.13" d="M14.638 24.606C14.638 24.234 14.336 23.934 13.964 23.934C13.593 23.934 13.291 24.234 13.291 24.606C13.291 24.978 13.593 25.28 13.964 25.28C14.336 25.28 14.638 24.978 14.638 24.606"/>
  </g>
  <g>
   <path stroke-width="0.13" d="M14.301 24.606C14.301 24.42 14.15 24.271 13.964 24.271C13.778 24.271 13.628 24.42 13.628 24.606C13.628 24.792 13.778 24.943 13.964 24.943C14.15 24.943 14.301 24.792 14.301 24.606"/>
  </g>
  <line stroke-width="0.13" x1="13.291" y1="24.606" x2="13.345" y2="22.978"/>
  <line stroke-width="0.13" x1="13.345" y1="22.978" x2="14.513" y2="22.978"/>
  <line stroke-width="0.13" x1="14.513" y1="22.978" x2="14.55" y2="24.076"/>
  <g>
   <path stroke-width="0.13" d="M14.567 27.246C14.567 26.875 14.266 26.573 13.894 26.573C13.522 26.573 13.221 26.875 13.221 27.246C13.221 27.618 13.522 27.92 13.894 27.92C14.266 27.92 14.567 27.618 14.567 27.246"/>
  </g>
  <g>
   <path stroke-width="0.13" d="M14.23 27.246C14.23 27.06 14.08 26.91 13.894 26.91C13.708 26.91 13.557 27.06 13.557 27.246C13.557 27.432 13.708 27.582 13.894 27.582C14.08 27.582 14.23 27.432 14.23 27.246"/>
  </g>
  <line stroke-width="0.13" x1="13.221" y1="27.246" x2="13.274" y2="25.617"/>
  <line stroke-width="0.13" x1="13.274" y1="25.617" x2="14.442" y2="25.617"/>
  <line stroke-width="0.13" x1="14.442" y1="25.617" x2="14.478" y2="26.714"/>
  <line stroke-width="0.13" x1="21.086" y1="24.589" x2="19.775" y2="24.625"/>
  <line stroke-width="0.13" x1="19.775" y1="24.625" x2="19.722" y2="27.14"/>
  <line stroke-width="0.13" x1="19.722" y1="27.14" x2="20.873" y2="27.105"/>
  <line stroke-width="0.13" x1="20.981" y1="27.388" x2="14.744" y2="27.548"/>
  <line stroke-width="0.13" x1="15.489" y1="27.423" x2="15.489" y2="24.696"/>
  <line stroke-width="0.13" x1="15.294" y1="24.661" x2="14.833" y2="24.678"/>
  <line stroke-width="0.13" x1="15.56" y1="22.163" x2="15.56" y2="24.411"/>
  <line stroke-width="0.13" x1="15.56" y1="24.411" x2="20.501" y2="24.411"/>
  <line stroke-width="0.13" x1="20.501" y1="24.411" x2="20.501" y2="22.126"/>
  <line stroke-width="0.13" x1="20.609" y1="22.126" x2="15.56" y2="22.126"/>
  <line stroke-width="0.13" x1="21.37" y1="24.111" x2="21.37" y2="22.73"/>
  <line stroke-width="0.13" x1="21.37" y1="22.73" x2="22.539" y2="22.73"/>
  <line stroke-width="0.13" x1="22.539" y1="22.73" x2="22.539" y2="23.934"/>
  <g>
   <path stroke-width="0.13" d="M22.628 24.466C22.628 24.094 22.327 23.792 21.954 23.792C21.582 23.792 21.282 24.094 21.282 24.466C21.282 24.67 21.373 24.853 21.516 24.977"/>
   <path stroke-width="0.13" d="M22.623 24.542C22.626 24.515 22.629 24.489 22.628 24.466"/>
  </g>
  <path stroke-width="0.13" d="M21.37 24.766C21.37 24.376 21.6 24.004 21.83 24.004C22.06 24.004 22.274 23.881 22.451 24.234C22.628 24.589 23.195 25.422 23.336 25.74C23.478 26.059 23.638 26.166 23.513 26.484C23.39 26.803 23.353 26.698 23.336 26.963C23.318 27.228 23.265 27.211 23.3 27.442C23.336 27.672 23.318 27.618 23.443 27.972C23.567 28.327 23.62 28.399 23.532 28.664C23.495 28.769 23.432 28.861 23.356 28.934"/>
  <path stroke-width="0.13" d="M22.753 29.138C22.556 29.137 22.329 29.071 22.202 28.716C22.025 28.221 21.458 26.644 21.458 26.644C21.458 26.644 21.388 26.344 21.512 26.166C21.635 25.989 21.795 25.227 21.37 24.766"/>
  <path stroke-width="0.13" d="M23.248 27.53C23 27.158 22.946 27.282 22.664 27.228C22.379 27.175 22.184 27.3 22.06 27.513"/>
  <path stroke-width="0.13" d="M23.371 25.829C23 25.492 23.053 25.545 22.681 25.617C22.309 25.687 21.989 25.847 21.937 26.184"/>
  <g>
   <path stroke-width="0.13" d="M23.239 26.254C23.239 26.053 23.077 25.89 22.876 25.89C22.675 25.89 22.513 26.053 22.513 26.254C22.513 26.455 22.675 26.617 22.876 26.617C23.077 26.617 23.239 26.455 23.239 26.254"/>
  </g>
  <path stroke-width="0.13" d="M23.539 28.417C23.233 28.149 22.411 28.062 22.3 28.908"/>
  <path stroke-width="0.13" d="M23.224 28.574C23.679 29.762 24.202 31.661 24.025 33.103"/>
  <path stroke-width="0.13" d="M22.629 28.801C23.053 29.911 23.638 31.699 23.472 33.045"/>
  <line stroke-width="0.13" x1="21.521" y1="25.603" x2="21.25" y2="25.603"/>
  <line stroke-width="0.13" x1="21.25" y1="25.603" x2="21.25" y2="26.573"/>
  <path stroke-width="0.13" d="M21.475 26.754C21.216 26.934 21.036 27.001 21.16 27.373C21.283 27.745 22.083 29.243 22.083 29.243C22.083 29.243 22.263 29.718 22.873 29.673"/>
  <path stroke-width="0.13" d="M23.437 27.824C23.684 27.868 23.853 27.96 23.989 28.23C24.123 28.501 24.146 28.612 24.405 28.894C24.664 29.176 24.812 29.166 24.981 29.266C25.149 29.367 25.228 29.425 25.228 29.571C25.228 29.597 25.228 29.629 25.227 29.664"/>
  <path stroke-width="0.13" d="M25.036 30.202C24.856 30.326 24.574 30.439 24.564 30.292C24.551 30.146 23.954 29.887 23.876 29.841C23.797 29.797 23.638 29.684 23.65 29.684"/>
  <path stroke-width="0.13" d="M25.013 29.335C24.631 29.548 24.472 30.033 24.564 30.292"/>
  <path stroke="none" fill="#FFFFFF" d="M16.838 24.615L19.312 24.615 19.312 23.557 16.838 23.557z"/>
  <text x="16.838" y="24.263" stroke="none" fill="#000000" font-family="'Helvetica'" font-size="0.685" font-weight="bold">587 423</text>
  <g>
   <path stroke-width="0.13" stroke-linecap="butt" fill="#000000" d="M18.876 22.515L18.876 22.87 18.608 22.515 18.285 22.515 18.285 23.004 18.082 22.515 17.896 22.515 17.891 22.684 17.99 22.908 17.803 22.908 17.891 22.684 17.896 22.515 17.71 22.515 17.553 22.907 17.321 22.907 17.312 22.931 17.303 22.954 17.292 22.974 17.278 22.989 17.263 23.003 17.245 23.012 17.225 23.018 17.202 23.022 17.175 23.024 17.146 23.021 17.118 23.015 17.094 23.003 17.073 22.986 17.054 22.966 17.041 22.943 17.03 22.916 17.022 22.885 17.021 22.853 17.022 22.812 17.028 22.774 17.038 22.742 17.051 22.714 17.068 22.692 17.089 22.675 17.114 22.661 17.141 22.653 17.173 22.652 17.199 22.652 17.224 22.657 17.245 22.664 17.263 22.673 17.278 22.687 17.292 22.701 17.303 22.719 17.312 22.742 17.318 22.765 17.582 22.765 17.582 22.756 17.576 22.704 17.559 22.658 17.532 22.617 17.493 22.58 17.446 22.55 17.391 22.525 17.327 22.507 17.256 22.495 17.178 22.492 17.096 22.495 17.024 22.507 16.96 22.527 16.908 22.556 16.864 22.591 16.827 22.637 16.8 22.692 16.783 22.754 16.771 22.827 16.759 22.815 16.743 22.803 16.728 22.791 16.71 22.78 16.693 22.771 16.675 22.763 16.658 22.757 16.641 22.754 16.626 22.751 16.527 22.742 16.382 22.74 16.362 22.739 16.344 22.736 16.329 22.733 16.315 22.727 16.304 22.719 16.295 22.711 16.289 22.702 16.285 22.692 16.283 22.679 16.286 22.667 16.289 22.655 16.295 22.644 16.304 22.635 16.317 22.629 16.33 22.623 16.347 22.618 16.365 22.617 16.387 22.615 16.41 22.617 16.431 22.62 16.448 22.626 16.463 22.632 16.474 22.643 16.483 22.657 16.489 22.673 16.492 22.69 16.492 22.713 16.771 22.713 16.771 22.704 16.766 22.661 16.753 22.623 16.728 22.589 16.696 22.561 16.653 22.536 16.603 22.518 16.545 22.504 16.478 22.496 16.402 22.493 16.318 22.496 16.245 22.504 16.182 22.518 16.129 22.536 16.085 22.561 16.051 22.591 16.027 22.626 16.013 22.667 16.007 22.713 16.012 22.753 16.021 22.788 16.039 22.818 16.064 22.846 16.094 22.867 16.132 22.885 16.176 22.899 16.228 22.907 16.286 22.911 16.393 22.914 16.419 22.914 16.44 22.917 16.458 22.922 16.474 22.926 16.486 22.934 16.495 22.943 16.503 22.952 16.507 22.963 16.509 22.977 16.507 22.989 16.501 23 16.493 23.01 16.483 23.021 16.471 23.028 16.455 23.036 16.44 23.042 16.423 23.045 16.407 23.047 16.378 23.045 16.353 23.042 16.33 23.036 16.312 23.028 16.297 23.018 16.285 23.006 16.275 22.992 16.271 22.975 16.268 22.957 15.98 22.957 15.98 22.963 15.986 23.007 16.001 23.047 16.027 23.083 16.062 23.114 16.109 23.138 16.164 23.158 16.228 23.172 16.303 23.181 16.385 23.184 16.464 23.181 16.535 23.175 16.596 23.164 16.649 23.149 16.693 23.129 16.731 23.103 16.76 23.074 16.785 23.039 16.8 22.998 16.829 23.041 16.859 23.077 16.893 23.108 16.929 23.132 16.971 23.152 17.016 23.167 17.068 23.178 17.126 23.184 17.19 23.185 17.231 23.184 17.268 23.182 17.303 23.178 17.333 23.172 17.364 23.164 17.39 23.153 17.417 23.14 17.445 23.125 17.472 23.106 17.446 23.172 17.692 23.172 17.736 23.07 18.059 23.07 18.102 23.172 18.524 23.172 18.524 22.782 18.823 23.172 19.12 23.172 19.12 22.515 18.876 22.515z"/>
   <path stroke-width="0.13" stroke-linecap="butt" fill="#000000" d="M20.004 22.515L19.817 22.515 19.815 22.69 19.913 22.907 19.728 22.908 19.815 22.69 19.817 22.515 19.626 22.515 19.428 23.004 19.428 22.515 19.175 22.515 19.175 23.172 19.62 23.172 19.66 23.073 19.977 23.073 20.022 23.172 20.271 23.172 20.004 22.515z"/>
  </g>
  <line stroke-width="0.3" x1="46.965" y1="52.536" x2="45.719" y2="48.167"/>
  <line stroke-width="0.3" x1="45.719" y1="48.167" x2="45.107" y2="48.286"/>
  <line stroke-width="0.3" x1="45.107" y1="48.286" x2="45.069" y2="48.082"/>
  <line stroke-width="0.3" x1="45.069" y1="48.082" x2="45.651" y2="47.969"/>
  <line stroke-width="0.3" x1="45.651" y1="47.969" x2="44.088" y2="39.933"/>
  <line stroke-width="0.3" x1="44.088" y1="39.933" x2="44.845" y2="39.786"/>
  <line stroke-width="0.3" x1="44.472" y1="39.89" x2="44.152" y2="37.927"/>
  <path stroke-width="0.3" d="M44.152 37.927C43.616 37.972 43.398 37.469 43.713 37.378C44.027 37.286 44.399 37.185 44.399 37.185"/>
  <line stroke-width="0.3" x1="47.656" y1="52.402" x2="47.174" y2="47.884"/>
  <line stroke-width="0.3" x1="47.174" y1="47.884" x2="47.786" y2="47.765"/>
  <line stroke-width="0.3" x1="47.786" y1="47.765" x2="47.746" y2="47.561"/>
  <line stroke-width="0.3" x1="47.746" y1="47.561" x2="47.164" y2="47.676"/>
  <line stroke-width="0.3" x1="47.164" y1="47.676" x2="45.603" y2="39.64"/>
  <line stroke-width="0.3" x1="45.603" y1="39.64" x2="44.845" y2="39.786"/>
  <line stroke-width="0.3" x1="45.229" y1="39.743" x2="44.792" y2="37.802"/>
  <path stroke-width="0.3" d="M44.792 37.802C45.304 37.643 45.32 37.097 44.993 37.13C44.667 37.162 44.283 37.207 44.283 37.207"/>
  <path stroke-width="0.3" d="M24.025 33.1C23.62 37.183 23.271 41.506 24.332 44.42C24.768 45.616 25.443 46.57 26.472 47.146C27.687 47.828 28.873 48.359 29.92 48.829C31.4 49.493 32.609 50.043 33.264 50.701C33.582 51.021 33.78 51.366 33.841 51.755C33.991 52.701 33.481 56.354 33.009 59.67C32.709 61.787 32.424 63.765 32.357 64.778"/>
  <path stroke-width="0.3" d="M23.472 33.045C23.059 37.218 22.727 41.634 23.811 44.61C24.295 45.941 25.057 46.99 26.199 47.631C27.431 48.322 28.632 48.86 29.693 49.335C31.097 49.965 32.25 50.47 32.871 51.094C33.098 51.322 33.249 51.564 33.292 51.841C33.439 52.768 32.92 56.344 32.46 59.591C32.164 61.664 31.891 63.606 31.812 64.67"/>
  <path stroke-width="0.3" d="M24.78 30.178C26.056 30.977 27.402 31.384 28.774 31.464C30.135 31.545 31.524 31.3 32.899 30.795L34.317 30.245C35.728 29.686 37.024 29.163 38.21 29.114C38.685 29.094 39.14 29.152 39.576 29.324C40.899 29.844 42.094 30.353 42.781 31.012C43.034 31.254 43.215 31.515 43.283 31.811C43.469 32.594 43.698 34.741 43.832 36.085L43.832 36.085L43.944 37.24"/>
  <path stroke-width="0.3" d="M25.143 29.6C26.317 30.333 27.553 30.708 28.814 30.783C30.085 30.856 31.381 30.626 32.662 30.153L32.658 30.155L34.067 29.609C35.554 29.019 36.929 28.483 38.182 28.431C38.753 28.408 39.301 28.481 39.826 28.689C41.244 29.245 42.517 29.812 43.253 30.518C43.61 30.861 43.85 31.236 43.948 31.655C44.137 32.454 44.375 34.646 44.512 36.018L44.624 37.174"/>
  <path stroke-width="0.3" d="M50.283 73.368C50.828 73.269 51.49 73.162 52.159 73.055"/>
  <path stroke-width="0.3" d="M53.293 72.868C54.277 72.703 55.136 72.543 55.484 72.409C56.329 72.087 56.972 71.525 56.771 70.359"/>
  <path stroke-width="0.3" d="M56.771 70.359C57.896 70.078 57.896 69.396 57.936 68.832C57.976 68.269 57.575 65.376 57.575 65.376L58.258 65.337C58.258 65.337 57.976 59.509 57.896 58.866C57.816 58.223 57.133 55.853 57.133 55.853L55.807 55.893L55.807 56.655C55.807 56.655 56.209 56.576 56.209 56.615C56.209 56.655 56.329 57.54 56.329 57.54C56.329 57.54 56.048 56.655 55.365 56.496"/>
  <path stroke-width="0.3" d="M55.365 56.496C55.243 55.289 55.204 53.119 55.124 52.718C55.042 52.316 54.28 51.552 53.676 51.633C53.073 51.713 52.27 51.793 52.149 52.034C52.029 52.276 51.868 52.396 51.667 52.195C51.466 51.994 50.783 51.793 50.381 51.834C49.979 51.874 49.417 52.356 49.256 52.557C49.095 52.758 48.935 52.918 48.573 52.637C48.212 52.356 47.728 52.356 47.408 52.436C47.085 52.517 45.92 52.838 45.92 53.682C45.92 54.527 46 55.009 46 54.969C46 54.927 45.237 54.807 45.237 56.134C45.237 57.46 45.317 57.942 45.277 57.902C45.237 57.862 44.192 58.505 44.232 59.79C44.273 61.076 44.273 61.076 44.273 61.076C44.273 61.076 43.79 60.996 43.79 61.116C43.79 61.237 43.63 63.286 43.71 63.207C43.79 63.127 44.273 64.212 44.273 65.015C44.273 65.819 44.273 66.019 44.273 66.019C44.273 66.019 44.756 66.18 44.756 66.221C44.756 66.26 45.719 71.203 45.719 71.203"/>
  <path stroke-width="0.13" d="M56.972 69.798C57.534 69.155 57.454 68.953 57.334 68.269C57.213 67.587 56.61 64.051 56.49 63.487C56.368 62.926 56.088 60.875 54.198 61.036C52.31 61.198 46.201 62.524 46.121 62.564C46.04 62.603 44.112 62.683 44.756 66.221"/>
  <path stroke-width="0.13" d="M56.49 64.01C56.008 63.286 55.686 63.006 54.118 63.167C52.551 63.326 46.804 64.653 46.442 64.733C46.082 64.813 44.755 65.215 44.956 66.864"/>
  <path stroke-width="0.13" d="M55.365 56.496C54.359 56.255 53.475 56.456 53.234 56.456C52.993 56.456 45.799 57.54 45.277 57.902"/>
  <line stroke-width="0.13" x1="44.273" y1="61.076" x2="44.634" y2="64.251"/>
  <line stroke-width="0.13" x1="57.575" y1="65.376" x2="57.293" y2="63.246"/>
  <line stroke-width="0.13" x1="57.293" y1="63.246" x2="57.856" y2="63.167"/>
  <line stroke-width="0.13" x1="56.329" y1="57.54" x2="56.57" y2="58.063"/>
  <line stroke-width="0.13" x1="57.133" y1="55.853" x2="57.173" y2="57.982"/>
  <g>
   <path stroke-width="0.13" d="M53.479 64.825C53.56 65.292 54.087 65.59 54.656 65.492C55.225 65.394 55.622 64.936 55.542 64.469C55.462 64.003 54.935 63.704 54.365 63.802C53.795 63.901 53.399 64.358 53.479 64.825"/>
  </g>
  <g>
   <path stroke-width="0.13" d="M54.012 67.1C54.094 67.566 54.619 67.865 55.189 67.768C55.759 67.668 56.155 67.212 56.076 66.745C55.994 66.278 55.468 65.98 54.899 66.078C54.329 66.176 53.932 66.634 54.012 67.1"/>
  </g>
  <g>
   <path stroke-width="0.13" d="M54.618 69.269C54.698 69.736 55.225 70.034 55.793 69.936C56.363 69.837 56.759 69.381 56.679 68.914C56.6 68.447 56.073 68.149 55.503 68.246C54.933 68.344 54.536 68.802 54.618 69.269"/>
  </g>
  <g>
   <path stroke-width="0.13" d="M50.741 65.376C50.822 65.843 51.348 66.141 51.918 66.043C52.487 65.944 52.884 65.486 52.804 65.021C52.723 64.554 52.197 64.256 51.628 64.353C51.057 64.451 50.661 64.909 50.741 65.376"/>
  </g>
  <g>
   <path stroke-width="0.13" d="M47.576 66.016C47.658 66.483 48.185 66.781 48.753 66.683C49.323 66.584 49.719 66.126 49.64 65.661C49.558 65.194 49.033 64.896 48.463 64.993C47.893 65.091 47.496 65.549 47.576 66.016"/>
  </g>
  <g>
   <path stroke-width="0.13" d="M48.182 68.185C48.262 68.652 48.789 68.95 49.359 68.852C49.927 68.754 50.325 68.296 50.243 67.829C50.164 67.362 49.637 67.064 49.067 67.162C48.497 67.26 48.101 67.718 48.182 68.185"/>
  </g>
  <g>
   <path stroke-width="0.13" d="M51.24 67.652C51.32 68.117 51.847 68.417 52.417 68.319C52.985 68.221 53.381 67.763 53.301 67.296C53.222 66.829 52.695 66.531 52.125 66.629C51.555 66.727 51.158 67.185 51.24 67.652"/>
  </g>
  <g>
   <path stroke-width="0.13" d="M51.737 69.855C51.784 70.132 51.988 70.349 52.268 70.46"/>
   <path stroke-width="0.13" d="M53.374 70.346C53.698 70.135 53.85 69.808 53.799 69.501C53.719 69.034 53.192 68.736 52.622 68.834C52.054 68.932 51.656 69.39 51.737 69.855"/>
  </g>
  <g>
   <path stroke-width="0.13" d="M48.609 70.353C48.661 70.667 48.917 70.903 49.255 70.998"/>
   <path stroke-width="0.13" d="M50.353 70.763C50.607 70.552 50.716 70.266 50.67 69.998C50.59 69.531 50.064 69.233 49.493 69.331C48.924 69.43 48.527 69.888 48.609 70.353"/>
  </g>
  <g>
   <path stroke-width="0.13" d="M45.515 69.039C45.564 69.325 45.783 69.549 46.079 69.656"/>
   <path stroke-width="0.13" d="M47.183 69.507C47.487 69.295 47.625 68.98 47.576 68.683C47.496 68.216 46.969 67.918 46.401 68.016C45.831 68.114 45.435 68.572 45.515 69.039"/>
  </g>
  <g>
   <path stroke-width="0.13" d="M45.942 71.206C45.96 71.311 46 71.406 46.054 71.486"/>
   <path stroke-width="0.13" d="M47.128 71.873C47.692 71.771 48.084 71.314 48.003 70.852C47.942 70.495 47.619 70.236 47.209 70.177"/>
   <path stroke-width="0.13" d="M46.097 70.611C45.956 70.801 45.908 71.012 45.942 71.206"/>
  </g>
  <path stroke-width="0.13" d="M52.139 69.299C52.652 72.368 51.71 75.578 51.161 77.087C50.575 78.7 50.343 83.251 50.637 85.379"/>
  <path stroke-width="0.13" d="M53.24 69.162C53.792 72.456 52.759 75.832 52.17 77.453C51.619 78.968 51.424 83.236 51.7 85.231"/>
  <path stroke-width="0.13" d="M49.127 69.847C49.64 72.918 48.698 76.126 48.149 77.635C47.563 79.25 47.331 83.799 47.625 85.927"/>
  <path stroke-width="0.13" d="M50.228 69.71C50.78 73.006 49.747 76.382 49.158 78.001C48.607 79.516 48.412 83.784 48.688 85.781"/>
  <path stroke-width="0.13" d="M45.951 68.506C46.466 71.575 45.523 74.784 44.975 76.293C44.387 77.906 44.155 82.456 44.448 84.584"/>
  <path stroke-width="0.13" d="M47.052 68.367C47.604 71.664 46.573 75.04 45.984 76.659C45.432 78.174 45.237 82.441 45.512 84.438"/>
  <path stroke-width="0.13" d="M45.719 71.203C45.808 71.688 45.889 72.055 45.963 72.328"/>
  <path stroke-width="0.3" d="M46.89 73.421C47.365 73.626 48.098 73.775 49.148 73.596"/>
  <path stroke-width="0.13" d="M53.439 51.558C53.176 49.523 52.497 48.316 51.819 47.034C51.14 45.753 50.235 43 50.649 39.682"/>
  <path stroke-width="0.13" d="M52.149 52.034C51.909 50.183 51.354 48.773 50.737 47.606C49.991 46.198 48.979 43.176 49.435 39.53"/>
  <path stroke-width="0.13" d="M48.389 52.313C48.539 51.182 50.387 47.789 50.536 47.298C50.543 47.279 50.549 47.259 50.557 47.243"/>
  <path stroke-width="0.13" d="M51.287 45.81C51.304 45.701 51.317 45.582 51.329 45.451C51.479 43.755 51.932 41.417 52.61 40.436C53.289 39.457 53.78 39.155 53.968 39.079"/>
  <path stroke-width="0.13" d="M49.518 52.463C49.612 51.761 50.456 50.118 51.008 48.988C51.078 48.844 51.145 48.707 51.207 48.579"/>
  <path stroke-width="0.13" d="M51.975 47.329C51.993 47.299 52.012 47.27 52.03 47.237C52.198 46.942 52.383 46.463 52.463 45.551C52.597 44.045 52.945 41.956 53.548 41.085C53.968 40.478 54.256 40.212 54.417 40.125"/>
  <path stroke-width="0.13" d="M50.99 51.784C51.125 51.149 51.378 50.405 51.622 49.677"/>
  <path stroke-width="0.13" d="M52.195 47.75C52.423 46.618 52.723 44.997 53.289 43.642C53.854 42.283 54.006 40.776 55.438 40.512"/>
  <g>
   <line stroke-width="0.3" x1="28.838" y1="79.388" x2="29.163" y2="79.462"/>
   <line stroke-width="0.3" x1="29.163" y1="79.462" x2="30.513" y2="75.283"/>
   <line stroke-width="0.3" x1="30.513" y1="75.283" x2="31.1" y2="75.418"/>
   <line stroke-width="0.3" x1="31.1" y1="75.418" x2="31.146" y2="75.222"/>
   <line stroke-width="0.3" x1="31.146" y1="75.222" x2="30.586" y2="75.093"/>
   <line stroke-width="0.3" x1="30.586" y1="75.093" x2="32.368" y2="67.379"/>
   <line stroke-width="0.3" x1="32.368" y1="67.379" x2="31.641" y2="67.21"/>
   <line stroke-width="0.3" x1="31.998" y1="67.322" x2="32.375" y2="65.436"/>
   <path stroke-width="0.3" d="M32.375 65.436C32.89 65.496 33.118 65.019 32.817 64.921C32.517 64.822 32.159 64.709 32.159 64.709"/>
   <line stroke-width="0.3" x1="28.821" y1="79.385" x2="28.498" y2="79.31"/>
   <line stroke-width="0.3" x1="28.498" y1="79.31" x2="29.117" y2="74.959"/>
   <line stroke-width="0.3" x1="29.117" y1="74.959" x2="28.53" y2="74.825"/>
   <line stroke-width="0.3" x1="28.53" y1="74.825" x2="28.574" y2="74.629"/>
   <line stroke-width="0.3" x1="28.574" y1="74.629" x2="29.134" y2="74.757"/>
   <line stroke-width="0.3" x1="29.134" y1="74.757" x2="30.914" y2="67.043"/>
   <line stroke-width="0.3" x1="30.914" y1="67.043" x2="31.641" y2="67.21"/>
   <line stroke-width="0.3" x1="31.271" y1="67.155" x2="31.76" y2="65.295"/>
   <path stroke-width="0.3" d="M31.76 65.295C31.269 65.123 31.274 64.593 31.588 64.637C31.902 64.68 32.271 64.736 32.271 64.736"/>
   <line stroke-width="0.5" x1="28.821" y1="79.385" x2="28.638" y2="80.179"/>
  </g>
 </g>
</svg>
