<?xml version="1.0" encoding="utf-8"?>
<!DOCTYPE svg PUBLIC "-//W3C//DTD SVG 1.1//EN" "http://www.w3.org/Graphics/SVG/1.1/DTD/svg11.dtd">
<!-- Generator: PTC Arbortext IsoDraw 7.3 -->
<svg id="Standard_x0020_layer" width="100%" height="100%" viewBox="0 0 75 80.09"
 xmlns="http://www.w3.org/2000/svg" xmlns:xlink="http://www.w3.org/1999/xlink"
 fill-rule="evenodd" clip-rule="evenodd" stroke="#000000" stroke-linecap="round" fill="none" xml:space="preserve">
 <g>
  <path stroke-width="0.201" d="M15.182 52.255L13.374 52.255L13.374 52.841"/>
  <path stroke-width="0.201" d="M12.237 53.999C12.237 53.999 12.237 54.551 12.237 54.689C12.237 54.826 12.391 54.887 12.468 54.887C12.544 54.887 13 54.887 13.138 54.887C13.323 54.887 13.352 54.673 13.352 54.673L13.352 53.707"/>
  <path stroke-width="0.25" d="M15.098 57.478L14.128 57.478L14.128 58.594C14.128 58.594 14.362 58.654 14.362 58.801C14.362 58.948 14.509 59.125 14.775 59.125L15.422 59.125C15.686 59.125 15.833 58.948 15.833 58.801C15.833 58.654 16.068 58.594 16.068 58.594L16.068 57.478L15.098 57.478z"/>
  <path stroke-width="0.25" d="M14.275 58.625C14.275 58.625 14.509 58.39 15.098 58.39C15.686 58.39 15.922 58.625 15.922 58.625"/>
  <path stroke-width="0.25" d="M13.952 61.947L13.952 60.74C13.952 60.124 14.451 59.624 15.069 59.624C15.686 59.624 16.185 60.124 16.185 60.74L16.185 61.947L13.952 61.947z"/>
  <path stroke-width="0.25" d="M13.864 61.447L13.364 61.447L13.364 62.094L11.894 62.094C11.894 62.094 11.894 63.975 11.894 64.652C11.894 65.326 12.364 65.709 13.246 65.709L18.39 65.709"/>
  <path stroke-width="0.201" d="M12.541 62.182L12.541 65.563"/>
  <path stroke-width="0.201" d="M13.364 62.094L13.364 65.65"/>
  <path stroke-width="0.201" d="M16.821 62.094L13.364 62.094"/>
  <path stroke-width="0.25" d="M16.321 61.447L16.821 61.447L16.821 62.094L18.292 62.094"/>
  <path stroke-width="0.201" d="M17.644 62.182L17.644 65.563"/>
  <path stroke-width="0.201" d="M16.821 62.094L16.821 65.65"/>
  <path stroke-width="0.201" d="M16.821 62.71L15.092 62.71L13.364 62.71"/>
  <path stroke-width="0.201" d="M16.821 63.445L15.092 63.445L13.364 63.445"/>
  <path stroke-width="0.25" d="M17.585 63.975L15.092 63.975L12.599 63.975"/>
  <path stroke-width="0.25" d="M10.708 69.129C11.432 69.432 12.282 69.606 13.262 69.606"/>
  <path stroke-width="0.349" d="M26.3 69.128C28.286 68.293 29.298 66.49 29.298 64.677C29.298 62.512 29.298 60.536 29.298 58.56C29.298 56.375 26.852 53.948 24.782 53.948C24.782 53.948 24.782 52.505 24.782 51.664C24.782 50.823 24.082 50.094 22.792 50.094L14.214 50.094C12.925 50.094 12.226 50.823 12.226 51.664C12.226 52.505 12.226 53.948 12.226 53.948C10.156 53.948 7.708 56.375 7.708 58.56C7.708 60.536 7.708 62.512 7.708 64.677C7.708 66.49 8.721 68.296 10.708 69.129"/>
  <path stroke-width="0.25" d="M23.745 69.606C24.725 69.606 25.577 69.432 26.3 69.128"/>
  <path stroke-width="0.25" d="M18.504 53.625L23.634 53.625L23.634 52.841L21.783 52.841C21.783 52.841 21.783 52.112 21.783 51.719C21.783 51.328 21.504 51.158 21.167 51.158L15.84 51.158C15.503 51.158 15.224 51.328 15.224 51.719C15.224 52.112 15.224 52.841 15.224 52.841L13.374 52.841L13.374 53.625L18.504 53.625z"/>
  <path stroke-width="0.201" d="M21.826 52.255L23.634 52.255L23.634 52.841"/>
  <path stroke-width="0.25" d="M24.143 68.501C26.495 68.501 28.053 66.65 28.053 65.091C28.053 63.71 28.053 58.722 28.053 58.722C28.053 56.652 25.905 55.042 24.004 55.042L18.504 55.042L13.005 55.042C11.102 55.042 8.955 56.652 8.955 58.722C8.955 58.722 8.955 63.71 8.955 65.091C8.955 66.65 10.512 68.501 12.864 68.501L24.143 68.501z"/>
  <path stroke-width="0.201" d="M24.769 53.999C24.769 53.999 24.769 54.551 24.769 54.689C24.769 54.826 24.617 54.887 24.539 54.887C24.463 54.887 24.007 54.887 23.868 54.887C23.684 54.887 23.655 54.673 23.655 54.673L23.655 53.707"/>
  <path stroke-width="0.349" d="M26.312 69.156L26.312 69.597L20.734 69.597C20.734 69.597 20.756 70.061 20.138 70.061C19.521 70.061 18.504 70.061 18.504 70.061C18.504 70.061 17.486 70.061 16.87 70.061C16.251 70.061 16.274 69.597 16.274 69.597L10.695 69.597L10.695 69.156"/>
  <path stroke-width="0.25" d="M20.734 69.597L18.504 69.597L16.274 69.597"/>
  <path stroke-width="0.25" d="M21.91 57.478L22.879 57.478L22.879 58.594C22.879 58.594 22.644 58.654 22.644 58.801C22.644 58.948 22.498 59.125 22.233 59.125L21.585 59.125C21.321 59.125 21.175 58.948 21.175 58.801C21.175 58.654 20.939 58.594 20.939 58.594L20.939 57.478L21.91 57.478z"/>
  <path stroke-width="0.25" d="M22.733 58.625C22.733 58.625 22.498 58.39 21.91 58.39C21.321 58.39 21.085 58.625 21.085 58.625"/>
  <path stroke-width="0.25" d="M23.056 61.947L23.056 60.74C23.056 60.124 22.556 59.624 21.939 59.624C21.321 59.624 20.821 60.124 20.821 60.74L20.821 61.947L23.056 61.947z"/>
  <path stroke-width="0.25" d="M23.143 61.447L23.643 61.447L23.643 62.094L25.114 62.094C25.114 62.094 25.114 63.975 25.114 64.652C25.114 65.326 24.643 65.709 23.762 65.709L18.617 65.709"/>
  <path stroke-width="0.201" d="M24.466 62.182L24.466 65.563"/>
  <path stroke-width="0.201" d="M23.643 62.094L23.643 65.65"/>
  <path stroke-width="0.201" d="M20.185 62.094L23.643 62.094"/>
  <path stroke-width="0.25" d="M20.686 61.447L20.185 61.447L20.185 62.094L18.716 62.094"/>
  <path stroke-width="0.201" d="M19.362 62.182L19.362 65.563"/>
  <path stroke-width="0.201" d="M20.185 62.094L20.185 65.65"/>
  <path stroke-width="0.201" d="M20.185 62.71L21.914 62.71L23.643 62.71"/>
  <path stroke-width="0.201" d="M20.185 63.445L21.914 63.445L23.643 63.445"/>
  <path stroke-width="0.25" d="M19.422 63.975L21.914 63.975L24.408 63.975"/>
 </g>
 <g>
  <path stroke-width="0.25" d="M51.889 70.055C51.174 70.055 50.531 69.894 49.965 69.623"/>
  <path stroke-width="0.201" d="M54.447 50.889L52.753 50.889L52.753 52.423"/>
  <path stroke-width="0.25" d="M54.968 60.768C54.968 61.206 54.612 61.561 54.173 61.561C53.735 61.561 53.381 61.206 53.381 60.768C53.381 60.329 53.735 59.973 54.173 59.973C54.612 59.973 54.968 60.329 54.968 60.768z"/>
  <path stroke-width="0.201" d="M56.423 60.768C56.423 62.009 55.417 63.017 54.173 63.017C52.932 63.017 51.926 62.009 51.926 60.768C51.926 59.526 52.932 58.518 54.173 58.518C55.417 58.518 56.423 59.526 56.423 60.768z"/>
  <path stroke-width="0.201" d="M49.941 63.722C49.941 63.722 49.941 64.825 49.941 65.221C49.941 65.618 49.941 66.06 50.381 66.323C50.823 66.588 50.954 66.677 51.439 67.03C51.926 67.382 51.881 67.823 51.439 68.177C50.999 68.528 49.941 69.543 49.941 69.543"/>
  <path stroke-width="0.25" d="M63.884 53.664C63.639 53.625 63.387 53.604 63.134 53.604L57.628 53.604L52.125 53.604C51.869 53.604 51.619 53.625 51.375 53.664"/>
  <path stroke-width="0.25" d="M63.369 70.055C64.084 70.055 64.727 69.894 65.293 69.623"/>
  <path stroke-width="0.25" d="M57.628 53.131L62.503 53.131L62.503 52.423L60.811 52.423L60.811 50.89L57.628 50.89L54.447 50.89L54.447 52.423L52.753 52.423L52.753 53.131L57.628 53.131z"/>
  <path stroke-width="0.201" d="M60.811 50.889L62.503 50.889L62.503 52.423"/>
  <path stroke-width="0.25" d="M61.704 65.442L61.704 67.295L62.584 67.295L62.584 65.442C62.584 65.442 62.759 65.442 63.597 65.442C64.436 65.442 65.317 64.868 65.317 63.722C65.317 62.576 65.317 58.74 65.317 57.725C65.317 56.71 64.567 55.74 63.156 55.74L52.101 55.74C50.691 55.74 49.941 56.71 49.941 57.725C49.941 58.74 49.941 62.576 49.941 63.722C49.941 64.868 50.823 65.442 51.661 65.442C52.499 65.442 52.674 65.442 52.674 65.442L52.674 67.295L53.554 67.295L53.554 65.442L61.704 65.442z"/>
  <path stroke-width="0.25" d="M63.069 64.296C63.686 64.296 64.171 63.942 64.171 63.414L64.171 57.857C64.171 57.329 63.686 56.975 63.069 56.975L52.189 56.975C51.573 56.975 51.088 57.329 51.088 57.857L51.088 63.414C51.088 63.942 51.573 64.296 52.189 64.296L63.069 64.296z"/>
  <path stroke-width="0.25" d="M60.29 60.768C60.29 61.206 60.646 61.561 61.084 61.561C61.521 61.561 61.878 61.206 61.878 60.768C61.878 60.329 61.521 59.973 61.084 59.973C60.646 59.973 60.29 60.329 60.29 60.768z"/>
  <path stroke-width="0.201" d="M58.835 60.768C58.835 62.009 59.841 63.017 61.084 63.017C62.326 63.017 63.332 62.009 63.332 60.768C63.332 59.526 62.326 58.518 61.084 58.518C59.841 58.518 58.835 59.526 58.835 60.768z"/>
  <path stroke-width="0.201" d="M65.317 63.722C65.317 63.722 65.317 64.825 65.317 65.221C65.317 65.618 65.317 66.06 64.876 66.323C64.436 66.588 64.302 66.677 63.817 67.03C63.332 67.382 63.377 67.823 63.817 68.177C64.259 68.528 65.317 69.543 65.317 69.543"/>
  <path stroke-width="0.349" d="M57.628 70.689C60.009 70.689 59.981 70.072 59.981 70.072L65.293 70.072L65.293 69.623C67.167 68.728 68.21 66.618 68.21 65.016C68.21 62.932 68.21 61.357 68.21 58.682C68.21 56.252 66.298 54.049 63.884 53.664C63.884 53.664 63.884 52.149 63.884 51.243C63.884 50.338 63.134 49.591 62.072 49.591L53.186 49.591C52.124 49.591 51.375 50.338 51.375 51.243C51.375 52.149 51.375 53.664 51.375 53.664C48.96 54.049 47.048 56.252 47.048 58.682C47.048 61.357 47.048 62.932 47.048 65.016C47.048 66.618 48.091 68.728 49.965 69.623L49.965 70.072L55.277 70.072C55.277 70.072 55.247 70.689 57.628 70.689z"/>
  <path stroke-width="0.25" d="M59.981 70.072L57.628 70.072L55.277 70.072"/>
  <path stroke-width="0.25" d="M61.084 70.028L61.084 67.376L54.173 67.376L54.173 70.028"/>
  <path stroke-width="0.25" d="M60.996 68.837L57.628 68.837L54.262 68.837"/>
 </g>
 <g>
  <text x="26.312" y="78.615" stroke="none" fill="#000000" font-family="'Arial'" font-size="4.939">1</text>
 </g>
 <g>
  <text x="8.144" y="78.615" stroke="none" fill="#000000" font-family="'Arial'" font-size="4.939">2</text>
 </g>
 <g>
  <text x="65.469" y="78.615" stroke="none" fill="#000000" font-family="'Arial'" font-size="4.939">2</text>
 </g>
 <g>
  <text x="47.301" y="78.615" stroke="none" fill="#000000" font-family="'Arial'" font-size="4.939">1</text>
 </g>
 <path stroke="#FFFFFF" stroke-width="0.501" d="M15.069 60.786L9.73 73.852"/>
 <path stroke="#FFFFFF" stroke-width="0.501" d="M21.939 60.786L27.277 73.852"/>
 <path stroke="#FFFFFF" stroke-width="0.501" d="M54.164 60.786L48.826 73.852"/>
 <path stroke="#FFFFFF" stroke-width="0.501" d="M61.033 60.786L66.371 73.852"/>
 <path stroke-width="0.131" d="M15.069 60.786L9.73 73.852"/>
 <path stroke-width="0.131" d="M21.939 60.786L27.277 73.852"/>
 <path stroke-width="0.131" d="M54.164 60.786L48.826 73.852"/>
 <path stroke-width="0.131" d="M61.033 60.786L66.371 73.852"/>
 <g>
  <path stroke-width="0.25" d="M54.968 13.73C54.968 14.169 54.612 14.525 54.173 14.525C53.735 14.525 53.381 14.169 53.381 13.73C53.381 13.292 53.735 12.938 54.173 12.938C54.612 12.938 54.968 13.292 54.968 13.73z"/>
  <path stroke-width="0.201" d="M56.826 13.73C56.826 15.195 55.639 16.382 54.173 16.382C52.71 16.382 51.523 15.195 51.523 13.73C51.523 12.266 52.71 11.08 54.173 11.08C55.639 11.08 56.826 12.266 56.826 13.73z"/>
  <path stroke-width="0.25" d="M63.593 18.734C64.43 18.734 65.311 18.161 65.311 17.015C65.311 15.868 65.311 11.452 65.311 10.439C65.311 9.425 64.563 8.454 63.152 8.454L51.911 8.454C50.5 8.454 49.75 9.425 49.75 10.439C49.75 11.452 49.75 15.868 49.75 17.015C49.75 18.161 50.631 18.734 51.469 18.734C52.307 18.734 62.755 18.734 63.593 18.734z"/>
  <path stroke-width="0.25" d="M63.064 17.588C63.68 17.588 64.165 17.236 64.165 16.707L64.165 10.57C64.165 10.041 63.68 9.689 63.064 9.689L51.999 9.689C51.381 9.689 50.896 10.041 50.896 10.57L50.896 16.707C50.896 17.236 51.381 17.588 51.999 17.588L63.064 17.588z"/>
  <path stroke-width="0.25" d="M60.29 13.73C60.29 14.169 60.646 14.525 61.084 14.525C61.521 14.525 61.878 14.169 61.878 13.73C61.878 13.292 61.521 12.938 61.084 12.938C60.646 12.938 60.29 13.292 60.29 13.73z"/>
  <path stroke-width="0.201" d="M58.432 13.73C58.432 15.195 59.619 16.382 61.084 16.382C62.548 16.382 63.735 15.195 63.735 13.73C63.735 12.266 62.548 11.08 61.084 11.08C59.619 11.08 58.432 12.266 58.432 13.73z"/>
  <path stroke-width="0.349" d="M50.746 6.77C48.637 7.405 47.048 9.429 47.048 11.644C47.048 14.32 47.048 15.894 47.048 17.981C47.048 19.582 48.091 22.047 49.965 22.942C50.531 23.213 51.174 23.373 51.889 23.373L63.369 23.373C64.084 23.373 64.727 23.213 65.293 22.942C67.167 22.047 68.21 19.582 68.21 17.981C68.21 15.894 68.21 14.32 68.21 11.644C68.21 9.429 66.618 7.402 64.507 6.769"/>
  <path stroke-width="0.201" d="M50.698 7.676C49.075 8.43 47.914 10.105 47.914 11.916C47.914 14.374 47.914 15.818 47.914 17.734C47.914 19.202 48.874 21.466 50.594 22.288C51.113 22.536 51.704 22.684 52.359 22.684L62.899 22.684C63.554 22.684 64.144 22.536 64.665 22.288C66.385 21.466 67.343 19.202 67.343 17.734C67.343 15.818 67.343 14.374 67.343 11.916C67.343 10.095 66.17 8.41 64.531 7.663"/>
  <path stroke-width="0.201" d="M49.75 10.439L49.75 8.294"/>
  <path stroke-width="0.201" d="M65.311 17.015L65.311 18.349C65.311 19.76 64.364 20.862 63.262 20.862L51.799 20.862C50.698 20.862 49.75 19.76 49.75 18.349L49.75 17.015"/>
  <path stroke-width="0.201" d="M65.311 10.439L65.311 8.294"/>
  <path stroke-width="0.25" d="M50.741 6.77C50.741 7.817 50.741 8.647 50.741 8.647"/>
  <path stroke-width="0.349" d="M64.516 6.769C64.516 5.19 64.516 3.12 64.516 2.694C64.516 1.988 64.031 1.548 63.591 1.548C63.149 1.548 62.503 1.548 62.503 1.548L62.503 3.18L60.811 3.18L60.811 1.645L57.628 1.645L54.447 1.645L54.447 3.18L52.753 3.18L52.753 1.548C52.753 1.548 52.109 1.548 51.667 1.548C51.226 1.548 50.741 1.988 50.741 2.694C50.741 3.12 50.741 5.19 50.741 6.77"/>
  <path stroke-width="0.25" d="M64.516 8.647C64.516 8.647 64.516 7.815 64.516 6.769"/>
  <path stroke-width="0.25" d="M52.753 3.18L52.753 8.428"/>
  <path stroke-width="0.25" d="M54.447 3.18L54.447 7.105"/>
  <path stroke-width="0.25" d="M60.811 3.18L60.811 7.105"/>
  <path stroke-width="0.25" d="M62.503 3.18L62.503 8.428"/>
  <path stroke-width="0.25" d="M54.447 4.9L52.753 4.9"/>
  <path stroke-width="0.25" d="M53.6 4.987L53.6 8.428"/>
  <path stroke-width="0.25" d="M62.503 4.9L60.811 4.9"/>
  <path stroke-width="0.25" d="M54.447 6.442L53.652 6.442"/>
  <path stroke-width="0.25" d="M61.59 6.442L60.811 6.442"/>
  <path stroke-width="0.25" d="M61.658 4.987L61.658 8.428"/>
  <path stroke-width="0.25" d="M53.695 7.237L61.59 7.237"/>
  <path stroke-width="0.201" d="M54.49 5.694L60.752 5.694"/>
 </g>
 <g>
  <path stroke-width="0.201" d="M12.16 7.426C10.218 8.007 8.756 9.871 8.756 11.91C8.756 14.372 8.756 15.821 8.756 17.74C8.756 19.213 9.717 21.483 11.439 22.306C11.961 22.556 12.554 22.702 13.211 22.702L23.931 22.702C24.588 22.702 25.181 22.556 25.702 22.306C27.426 21.483 28.387 19.213 28.387 17.74C28.387 15.821 28.387 14.372 28.387 11.91C28.387 9.871 26.923 8.006 24.98 7.424"/>
  <path stroke-width="0.201" d="M24.405 7.293C24.179 7.258 23.949 7.238 23.714 7.238L18.492 7.238L13.428 7.238C13.194 7.238 12.962 7.258 12.737 7.293"/>
  <path stroke-width="0.201" d="M12.737 7.293C12.538 7.325 12.345 7.37 12.156 7.426"/>
  <path stroke-width="0.201" d="M25.036 7.442C24.83 7.378 24.62 7.328 24.405 7.293"/>
  <path stroke-width="0.25" d="M16.801 14.798L16.221 14.798C15.987 15.21 15.545 15.487 15.038 15.487C14.532 15.487 14.09 15.21 13.858 14.798L13.275 14.798"/>
  <path stroke-width="0.349" d="M11.612 6.77C9.503 7.405 7.913 9.429 7.913 11.644C7.913 14.32 7.913 15.894 7.913 17.981C7.913 19.582 8.955 22.047 10.83 22.942C11.397 23.213 12.039 23.373 12.753 23.373L24.39 23.373C25.103 23.373 25.748 23.213 26.315 22.942C28.187 22.047 29.231 19.582 29.231 17.981C29.231 15.894 29.231 14.32 29.231 11.644C29.231 9.429 27.64 7.402 25.528 6.769"/>
  <path stroke-width="0.201" d="M10.615 11.599C10.615 10.189 11.561 9.086 12.664 9.086L24.283 9.086C25.385 9.086 26.332 10.189 26.332 11.599L26.332 18.349C26.332 19.76 25.385 20.862 24.283 20.862L12.664 20.862C11.561 20.862 10.615 19.76 10.615 18.349L10.615 11.599z"/>
  <path stroke-width="0.349" d="M25.538 6.769C25.538 5.19 25.538 3.12 25.538 2.694C25.538 1.988 25.053 1.548 24.611 1.548C24.17 1.548 23.524 1.548 23.524 1.548L23.524 3.18L21.832 3.18L21.832 1.645L18.493 1.645L15.31 1.645L15.31 3.18L13.618 3.18L13.618 1.548C13.618 1.548 12.974 1.548 12.532 1.548C12.092 1.548 11.606 1.988 11.606 2.694C11.606 3.12 11.606 5.19 11.606 6.77"/>
  <path stroke-width="0.25" d="M13.618 3.18L13.618 6.528"/>
  <path stroke-width="0.25" d="M15.31 3.18L15.31 6.442"/>
  <path stroke-width="0.25" d="M21.832 3.18L21.832 6.442"/>
  <path stroke-width="0.25" d="M23.524 3.18L23.524 6.528"/>
  <path stroke-width="0.25" d="M15.31 4.9L13.618 4.9"/>
  <path stroke-width="0.25" d="M14.464 4.987L14.464 6.528"/>
  <path stroke-width="0.25" d="M23.524 4.9L21.832 4.9"/>
  <path stroke-width="0.25" d="M22.678 4.987L22.678 6.528"/>
  <path stroke-width="0.201" d="M15.355 5.694L21.772 5.694"/>
  <path stroke-width="0.201" d="M15.355 3.18L21.772 3.18"/>
  <path stroke-width="0.25" d="M24.905 6.628C24.66 6.589 24.408 6.567 24.155 6.567L18.493 6.567L12.989 6.567C12.734 6.567 12.484 6.589 12.239 6.628"/>
  <path stroke-width="0.25" d="M12.239 6.628C12.023 6.661 11.813 6.711 11.606 6.772"/>
  <path stroke-width="0.25" d="M25.589 6.788C25.367 6.719 25.138 6.665 24.905 6.628"/>
  <path stroke-width="0.25" d="M11.787 15.625L13.282 15.625L13.282 13.73C13.282 12.76 14.07 11.974 15.038 11.974C16.009 11.974 16.795 12.76 16.795 13.73"/>
  <path stroke-width="0.25" d="M13.282 19.574L13.282 15.625L16.795 15.625L16.795 19.574"/>
  <path stroke-width="0.25" d="M12.66 15.689L12.66 19.574"/>
  <path stroke-width="0.25" d="M17.417 15.689L17.417 19.574"/>
  <path stroke-width="0.25" d="M13.308 16.143L16.707 16.143"/>
  <path stroke-width="0.25" d="M13.308 17.048L16.707 17.048"/>
  <path stroke-width="0.25" d="M12.693 17.704L17.355 17.704"/>
  <path stroke-width="0.25" d="M16.067 11.448L14.01 11.448L14.01 10.266L16.067 10.266L16.067 11.448z"/>
  <path stroke-width="0.25" d="M14.345 12.032L14.345 11.513"/>
  <path stroke-width="0.25" d="M15.734 12.032L15.734 11.513"/>
  <path stroke-width="0.25" d="M20.146 14.798L20.727 14.798C20.96 15.21 21.402 15.487 21.908 15.487C22.414 15.487 22.856 15.21 23.089 14.798L23.672 14.798"/>
  <path stroke-width="0.25" d="M25.187 15.625L25.187 18.698C25.187 19.227 24.701 19.579 24.083 19.579L18.396 19.579L12.864 19.579C12.246 19.579 11.76 19.227 11.76 18.698L11.76 15.625"/>
  <path stroke-width="0.25" d="M25.161 15.625L23.664 15.625L23.664 13.73C23.664 12.76 22.878 11.974 21.908 11.974C20.939 11.974 20.152 12.76 20.152 13.73"/>
  <path stroke-width="0.25" d="M20.152 13.73L20.152 15.625L18.396 15.625L16.795 15.625L16.795 13.73"/>
  <path stroke-width="0.25" d="M23.664 19.574L23.664 15.625L20.152 15.625L20.152 19.574"/>
  <path stroke-width="0.25" d="M24.286 15.689L24.286 19.574"/>
  <path stroke-width="0.25" d="M19.53 15.689L19.53 19.574"/>
  <path stroke-width="0.25" d="M23.638 16.143L20.24 16.143"/>
  <path stroke-width="0.25" d="M23.638 17.048L20.24 17.048"/>
  <path stroke-width="0.25" d="M24.254 17.704L19.593 17.704"/>
  <path stroke-width="0.25" d="M20.881 11.448L22.937 11.448L22.937 10.266L20.881 10.266L20.881 11.448z"/>
  <path stroke-width="0.25" d="M22.603 12.032L22.603 11.513"/>
  <path stroke-width="0.25" d="M21.213 12.032L21.213 11.513"/>
 </g>
 <g>
  <text x="26.312" y="31.559" stroke="none" fill="#000000" font-family="'Arial'" font-size="4.939">2</text>
 </g>
 <g>
  <text x="8.144" y="31.559" stroke="none" fill="#000000" font-family="'Arial'" font-size="4.939">1</text>
 </g>
 <g>
  <text x="65.469" y="31.559" stroke="none" fill="#000000" font-family="'Arial'" font-size="4.939">1</text>
 </g>
 <g>
  <text x="47.301" y="31.559" stroke="none" fill="#000000" font-family="'Arial'" font-size="4.939">2</text>
 </g>
 <path stroke="#FFFFFF" stroke-width="0.501" d="M15.069 13.73L9.73 26.798"/>
 <path stroke="#FFFFFF" stroke-width="0.501" d="M21.939 13.73L27.277 26.798"/>
 <path stroke="#FFFFFF" stroke-width="0.501" d="M54.164 13.73L48.826 26.798"/>
 <path stroke="#FFFFFF" stroke-width="0.501" d="M61.033 13.73L66.371 26.798"/>
 <path stroke-width="0.131" d="M15.069 13.73L9.73 26.798"/>
 <path stroke-width="0.131" d="M21.939 13.73L27.277 26.798"/>
 <path stroke-width="0.131" d="M54.164 13.73L48.826 26.798"/>
 <path stroke-width="0.131" d="M61.033 13.73L66.371 26.798"/>
</svg>
