<?xml version="1.0" encoding="utf-8"?>
<!DOCTYPE svg PUBLIC "-//W3C//DTD SVG 1.1//EN" "http://www.w3.org/Graphics/SVG/1.1/DTD/svg11.dtd">
<!-- Generator: PTC Arbortext IsoDraw 7.3 -->
<svg width="100%" height="100%" viewBox="0 0 75.23 50.923"
 xmlns="http://www.w3.org/2000/svg" xmlns:xlink="http://www.w3.org/1999/xlink"
 fill-rule="evenodd" clip-rule="evenodd" stroke="#000000" stroke-linecap="round" fill="none" xml:space="preserve">
 <g id="Frame">
  <path stroke="none" fill="#FFFFFF" d="M75.23 50.89L0.23 50.89 0.23 0 75.23 0 75.23 50.89z"/>
 </g>
 <g id="Colour">
 </g>
 <g id="Standard_x0020_layer">
  <g>
   <g>
    <path stroke="none" fill="#CCCCCC" d="M38.441 10.509C38.371 10.298 38.256 10.105 38.093 9.92 37.74 9.524 37.079 8.818 35.402 8.951 33.726 9.083 28.568 9.656 27.245 9.877 25.922 10.096 24.82 11.156 24.335 12.478 24.335 12.478 22.707 17.623 22.483 18.298 22.306 18.829 22.669 19.658 22.835 19.887 23.012 20.129 23.254 20.371 23.574 20.559 23.893 20.746 24.289 20.879 24.775 20.9 25.745 20.945 31.655 20.504 33.109 20.371 34.564 20.239 36.372 19.004 36.857 17.638 37.343 16.271 38.402 11.904 38.49 11.332 38.536 11.023 38.521 10.753 38.441 10.509z"/>
    <path stroke="none" fill="#CCCCCC" d="M28.551 14.551C28.274 14.791 27.932 14.887 27.658 14.829L27.661 14.804C27.655 14.532 27.798 14.221 28.068 13.99 28.332 13.762 28.652 13.664 28.92 13.705L28.957 13.718C28.969 13.996 28.826 14.314 28.551 14.551z"/>
    <path stroke="none" fill="#CCCCCC" d="M33.424 14.083C33.14 14.314 32.798 14.4 32.526 14.333L32.527 14.31C32.529 14.037 32.682 13.731 32.959 13.509 33.229 13.288 33.554 13.201 33.82 13.25L33.856 13.26C33.862 13.539 33.707 13.855 33.424 14.083z"/>
   </g>
   <path stroke-width="0.501" stroke-linejoin="round" d="M38.384 12.311C38.561 12.268 39.106 12.301 39.988 12.301C40.871 12.301 42.811 12.125 44.662 12.038C46.515 11.948 46.426 11.067 47.573 10.935L74.296 9.083"/>
   <path stroke-width="0.501" stroke-linejoin="round" d="M37.64 15.563C39.581 15.474 44.091 15.461 44.927 15.432C46.207 15.388 46.78 15.874 47.97 15.874C49.161 15.874 74.385 14.506 74.385 14.506"/>
   <path stroke-width="0.349" stroke-linejoin="round" d="M38.441 10.509C38.371 10.298 38.256 10.105 38.093 9.92C37.74 9.524 37.079 8.818 35.402 8.951C33.726 9.083 28.568 9.656 27.245 9.877C25.922 10.096 24.82 11.156 24.335 12.478C24.335 12.478 22.707 17.623 22.483 18.298C22.306 18.829 22.669 19.658 22.835 19.887C23.012 20.129 23.254 20.371 23.574 20.559"/>
   <path stroke-width="0.25" stroke-linejoin="round" d="M23.574 20.559C23.893 20.746 24.289 20.879 24.775 20.9C25.745 20.945 31.655 20.504 33.109 20.371C34.564 20.239 36.372 19.004 36.857 17.638C37.343 16.271 38.402 11.904 38.49 11.332C38.536 11.023 38.521 10.753 38.441 10.509"/>
   <path stroke-width="0.13" stroke-linejoin="round" d="M36.725 9.127C37.475 9.435 37.783 9.877 37.607 10.978C37.43 12.082 36.197 16.05 35.887 16.931C35.579 17.814 34.476 19.092 32.493 19.314C30.507 19.533 24.554 19.887 23.804 19.931C23.056 19.975 22.571 19.446 22.483 18.96"/>
   <path stroke-width="0.25" stroke-linejoin="round" d="M23.789 21.135C23.961 21.352 24.158 21.562 24.158 21.562"/>
   <path stroke-width="0.349" stroke-linejoin="round" d="M23.541 20.725C23.541 20.801 23.658 20.969 23.789 21.135"/>
   <path stroke-width="0.25" stroke-linejoin="round" d="M24.769 22.658C25.158 22.887 25.661 23.035 26.274 23.018C27.861 22.974 32.316 22.533 34.079 22.312C35.844 22.091 37.828 20.504 38.402 18.829C38.975 17.152 39.415 15.653 39.415 15.653"/>
   <path stroke-width="0.349" stroke-linejoin="round" d="M23.76 21.297C23.815 21.731 24.152 22.295 24.769 22.658"/>
   <path stroke-width="0.25" stroke-linejoin="round" d="M38.49 10.627C39.283 10.67 39.901 11.288 40.033 12.169"/>
   <path stroke-width="0.349" stroke-linejoin="round" d="M26.629 23.868C25.521 23.812 25.128 23.289 24.864 22.797"/>
   <path stroke-width="0.25" stroke-linejoin="round" d="M40.429 15.609C40.429 15.609 39.548 18.696 39.106 20.018C38.665 21.341 37.122 22.797 34.829 23.062C32.536 23.327 28.832 23.722 27.245 23.856C27.018 23.875 26.812 23.878 26.629 23.868"/>
   <path stroke-width="0.13" stroke-linejoin="round" d="M24.379 21.695C24.864 21.914 25.304 21.914 25.878 21.914C26.451 21.914 31.963 21.518 33.594 21.297C35.226 21.077 37.122 19.71 37.564 18.298C38.005 16.888 38.43 15.638 38.43 15.638"/>
   <path stroke-width="0.13" stroke-linejoin="round" d="M38.578 10.978C38.843 11.243 38.843 11.728 38.798 12.214"/>
   <path stroke-width="0.25" stroke-linejoin="round" d="M47.442 22.489C47.308 23.193 46.25 27.074 45.942 28.221C45.634 29.367 44.31 30.25 43.252 30.513"/>
   <path stroke-width="0.349" stroke-linejoin="round" d="M42.369 15.609C42.369 15.609 46.515 20.371 46.911 20.856C47.308 21.341 47.573 21.783 47.442 22.489"/>
   <path stroke-width="0.349" stroke-linejoin="round" d="M26.628 23.987C26.628 23.987 32.625 30.338 33.066 30.734C33.506 31.132 33.859 31.175 33.859 31.175"/>
   <path stroke-width="0.25" stroke-linejoin="round" d="M48.457 22.934C49.341 23.943 50.57 25.336 50.792 25.53C51.146 25.839 50.969 26.149 50.969 26.149L50.837 26.809"/>
   <path stroke-width="0.349" stroke-linejoin="round" d="M47.53 21.87C47.53 21.87 47.932 22.335 48.457 22.934"/>
   <path stroke-width="0.349" stroke-linejoin="round" d="M48.5 22.841C48.808 22.224 49.514 21.474 50.351 21.518C51.189 21.562 51.189 21.65 51.497 21.958C51.807 22.268 52.424 22.753 52.292 23.37C52.159 23.987 51.365 27.295 51.365 27.295C51.365 27.295 52.115 27.957 51.85 28.971C51.587 29.984 51.146 31.661 51.146 31.661"/>
   <path stroke-width="0.13" stroke-linejoin="round" d="M50.881 21.87C50.881 21.87 50.131 22.445 49.823 22.929"/>
   <path stroke-width="0.13" stroke-linejoin="round" d="M49.734 23.193L49.557 24.032"/>
   <path stroke-width="0.13" stroke-linejoin="round" d="M49.469 23.018L48.676 22.974"/>
   <path stroke-width="0.13" stroke-linejoin="round" d="M39.106 12.39C39.945 12.567 40.121 12.919 39.415 13.537C38.71 14.153 38.225 14.506 37.828 14.682"/>
   <path stroke-width="0.13" stroke-linejoin="round" d="M44.442 12.038C43.561 12.082 43.869 15.388 44.795 15.432"/>
   <path stroke-width="0.13" stroke-linejoin="round" d="M47.353 15.785C46.075 15.477 46.56 13.933 46.56 13.933C45.765 13.096 46.207 11.923 46.78 11.526C46.78 11.526 46.735 11.199 47 11.112"/>
   <path stroke-width="0.13" stroke-linejoin="round" d="M46.56 13.933L74.296 12.214"/>
   <path stroke-width="0.13" stroke-linejoin="round" d="M46.78 11.526L74.253 9.656"/>
   <path stroke-width="0.13" stroke-linejoin="round" d="M40.914 15.742C40.914 15.742 39.901 19.314 39.503 20.681C39.106 22.047 37.52 23.193 36.02 23.414C34.521 23.635 28.655 24.076 27.861 24.12C27.068 24.164 26.803 23.987 26.803 23.987"/>
   <path stroke-width="0.25" stroke-linejoin="round" d="M34.344 31.132C31.963 31.307 27.376 33.6 24.379 35.718C21.379 37.834 18.117 40.832 16.176 42.155C14.236 43.478 13.442 45.155 12.031 46.301C10.619 47.448 6.121 50.71 6.121 50.71"/>
   <path stroke-width="0.25" stroke-linejoin="round" d="M44.045 30.425C45.634 29.896 49.073 29.984 51.807 32.101C54.54 34.219 55.951 40.92 53.042 43.832C50.131 46.741 47.22 49.652 46.25 50.622"/>
   <path stroke-width="0.201" stroke-linejoin="round" d="M34.697 31.044C37.695 30.603 43.692 30.513 43.692 30.513"/>
   <path stroke-width="0.13" stroke-linejoin="round" d="M41.664 30.954C39.018 32.542 35.137 35.805 34.344 36.863C33.551 37.923 31.963 39.509 33.375 42.243C34.786 44.978 36.725 48.947 38.048 49.74C39.371 50.533 41.576 51.415 43.869 49.829C46.162 48.24 52.072 43.478 53.042 42.155C54.012 40.832 53.746 37.57 51.101 34.923C48.456 32.277 43.429 30.073 42.018 30.778"/>
   <path stroke-width="0.25" stroke-linejoin="round" d="M53.57 43.478C55.423 45.506 57.186 49.475 57.011 50.798"/>
   <path stroke-width="0.13" stroke-linejoin="round" d="M52.512 44.89C52.689 45.683 55.863 47.271 56.481 48.417"/>
   <path stroke-width="0.25" stroke-linejoin="round" d="M51.895 25.928C54.365 27.692 57.362 30.69 57.981 32.365C58.597 34.042 58.421 37.304 54.893 38.628"/>
   <path stroke-width="0.13" stroke-linejoin="round" d="M51.631 26.545C53.658 28.486 54.981 30.073 55.6 30.778C56.216 31.484 57.451 31.748 57.981 32.365"/>
   <path stroke-width="0.25" stroke-linejoin="round" d="M0.125 6.702C3.299 5.203 8.15 3.79 10.268 3.35C12.384 2.908 13.353 3.35 16.617 3.702C19.881 4.056 21.468 3.879 26.672 3.968C31.875 4.056 34.167 3.702 36.637 4.144C39.106 4.585 43.164 7.054 47.838 10.67"/>
   <path stroke-width="0.25" stroke-linejoin="round" d="M55.07 15.698C57.274 18.344 58.156 19.754 57.362 21.429C56.57 23.106 55.776 24.782 51.984 25.574"/>
   <path stroke-width="0.25" stroke-linejoin="round" d="M24.379 22.576C21.468 22.664 18.292 22.047 16.705 22.047C15.118 22.047 13.884 22.489 13.089 23.37C12.295 24.253 7.621 28.045 0.566 31.925"/>
   <path stroke-width="0.25" stroke-linejoin="round" d="M31.699 31.484C30.199 30.778 29.405 30.338 29.405 30.338C29.405 30.338 25.26 31.484 20.585 30.338C15.912 29.19 12.649 27.515 11.413 27.338C10.179 27.163 9.737 28.221 8.15 29.19C6.562 30.161 3.036 32.189 0.39 33.424"/>
   <path stroke-width="0.25" stroke-linejoin="round" d="M0.302 47.536C4.976 45.948 9.827 42.597 11.06 41.715C12.295 40.832 12.561 40.039 13.002 40.392C13.442 40.744 14.676 41.539 15.912 42.155"/>
   <path stroke-width="0.25" stroke-linejoin="round" d="M7.886 43.832C10.884 43.743 14.147 43.743 14.147 43.743"/>
   <path stroke-width="0.13" stroke-linejoin="round" d="M28.896 13.066C29.23 13.452 29.082 14.128 28.565 14.573C28.05 15.019 27.359 15.067 27.025 14.679C26.692 14.291 26.839 13.617 27.356 13.172C27.873 12.725 28.562 12.679 28.896 13.066z"/>
   <path stroke-width="0.25" stroke-linejoin="round" d="M27.661 14.804C27.655 14.532 27.798 14.221 28.068 13.99C28.332 13.762 28.652 13.664 28.92 13.705"/>
   <path stroke-width="0.25" stroke-linejoin="round" d="M28.815 13.345C29.082 13.654 28.964 14.195 28.551 14.551C28.138 14.907 27.586 14.945 27.32 14.635"/>
   <path stroke-width="0.13" stroke-linejoin="round" d="M27.32 14.635C27.051 14.326 27.17 13.785 27.583 13.429C27.996 13.073 28.548 13.035 28.815 13.345"/>
   <path stroke-width="0.13" stroke-linejoin="round" d="M33.816 12.611C34.137 13.007 33.969 13.678 33.439 14.106C32.908 14.537 32.218 14.561 31.896 14.164C31.574 13.766 31.742 13.096 32.273 12.667C32.802 12.239 33.493 12.212 33.816 12.611z"/>
   <path stroke-width="0.25" stroke-linejoin="round" d="M32.527 14.31C32.529 14.037 32.682 13.731 32.959 13.509C33.229 13.288 33.554 13.201 33.82 13.25"/>
   <path stroke-width="0.25" stroke-linejoin="round" d="M33.725 12.887C33.984 13.205 33.848 13.74 33.424 14.083C33 14.428 32.448 14.448 32.191 14.13"/>
   <path stroke-width="0.13" stroke-linejoin="round" d="M32.191 14.13C31.932 13.811 32.069 13.275 32.493 12.932C32.917 12.589 33.469 12.568 33.725 12.887"/>
   <path stroke-width="0.13" stroke-linejoin="round" d="M50.896 26.928L51.365 27.295"/>
   <path stroke="#FFFFFF" stroke-width="0.353" stroke-linecap="butt" fill="#000000" d="M62.046 9.589C61.871 8.368 61.804 7.182 61.828 6.057L64.358 5.692 60.805 1.679 55.725 6.934 58.335 6.559C58.313 7.685 58.38 8.871 58.554 10.092 59.442 16.263 62.662 20.905 65.748 20.463L69.239 19.96C66.153 20.403 62.933 15.76 62.046 9.589z"/>
  </g>
 </g>
</svg>
