<?xml version="1.0" encoding="utf-8"?>
<!DOCTYPE svg PUBLIC "-//W3C//DTD SVG 1.1//EN" "http://www.w3.org/Graphics/SVG/1.1/DTD/svg11.dtd">
<!-- Generator: PTC Arbortext IsoDraw 7.3 -->
<svg width="100%" height="100%" viewBox="0 0 75 49.365"
 xmlns="http://www.w3.org/2000/svg" xmlns:xlink="http://www.w3.org/1999/xlink"
 fill-rule="evenodd" clip-rule="evenodd" stroke="#000000" stroke-linecap="round" fill="none" xml:space="preserve">
 <g id="Frame">
  <path stroke="none" fill="#FFFFFF" d="M75 49.365L0 49.365 0 0 75 0 75 49.365z"/>
 </g>
 <g id="Colour">
 </g>
 <g id="Standard_x0020_layer">
  <path stroke-width="0.131" stroke-linejoin="round" d="M0.695 49.115L68.76 49.115"/>
  <path stroke-width="0.25" stroke-linejoin="round" d="M10.228 42.38L10.228 42.204C10.228 41.274 9.474 40.52 8.544 40.52C7.613 40.52 6.86 41.274 6.86 42.204L6.86 42.39"/>
  <path stroke-width="0.25" stroke-linejoin="round" d="M6.19 42.38L6.19 42.204C6.19 40.904 7.243 39.85 8.544 39.85C9.845 39.85 10.899 40.904 10.899 42.204L10.899 42.38"/>
  <path stroke-width="0.25" stroke-linejoin="round" d="M13.778 49.048C13.778 49.048 12.137 43.002 12.08 42.798C12.022 42.6 11.91 42.42 11.535 42.42L5.551 42.42C5.177 42.42 5.065 42.6 5.009 42.798C4.95 43.002 3.31 49.048 3.31 49.048L13.778 49.048z"/>
  <g>
   <text x="5.876" y="47.22" stroke="none" fill="#000000" font-family="'Arial'" font-size="2.117">70 W</text>
  </g>
  <path stroke-width="0.25" stroke-linejoin="round" d="M12.682 44.789L31.41 42.468L31.469 42.966L12.801 45.289"/>
  <path stroke-width="0.25" stroke-linejoin="round" d="M66.216 38.665L44.228 41.35L44.168 40.85L64.656 38.343C65.805 38.162 67.498 38.072 68.778 38.499"/>
  <path stroke-width="0.201" stroke-linejoin="round" d="M44.109 41.115L31.498 42.731"/>
  <path stroke-width="0.131" stroke-linejoin="round" d="M32.409 42.203C32.35 41.82 32.762 41.38 32.673 41.027C32.585 40.673 32.262 40.027 32.645 39.674"/>
  <path stroke-width="0.131" stroke-linejoin="round" d="M33.232 41.1C33.1 41.218 33.115 41.32 33.13 41.527C33.145 41.732 33.085 41.939 33.085 41.939"/>
  <path stroke-width="0.131" stroke-linejoin="round" d="M34.746 40.262C34.628 40.439 34.526 40.585 34.6 40.777C34.673 40.968 34.703 41.335 34.585 41.542"/>
  <path stroke-width="0.131" stroke-linejoin="round" d="M36.906 39.512C36.746 39.762 36.658 40.057 36.761 40.322C36.862 40.585 36.893 40.747 36.819 40.954C36.746 41.158 36.789 41.365 36.789 41.365"/>
  <path stroke-width="0.131" stroke-linejoin="round" d="M34.055 38.587C33.893 38.881 33.777 39.337 33.85 39.6C33.923 39.865 34.07 40.057 34.027 40.322C33.981 40.585 33.762 40.689 33.79 41.042C33.82 41.395 33.908 41.6 33.82 41.82"/>
  <path stroke-width="0.131" stroke-linejoin="round" d="M35.936 37.838C35.835 38.057 35.673 38.514 35.731 38.807C35.789 39.101 35.966 39.337 35.966 39.6C35.966 39.865 35.688 40.174 35.688 40.497C35.688 40.822 35.789 41.13 35.701 41.365"/>
  <path stroke-width="0.131" stroke-linejoin="round" d="M38.332 38.234C38.244 38.424 38.201 38.837 38.244 39.014C38.289 39.189 38.392 39.454 38.274 39.734C38.156 40.012 38.054 40.057 38.142 40.454C38.229 40.85 38.244 40.968 38.171 41.204"/>
  <path stroke-width="0.131" stroke-linejoin="round" d="M39.655 36.381C39.655 36.676 39.362 37.161 39.362 37.441C39.362 37.719 39.67 37.984 39.67 38.439C39.67 38.896 39.392 39.042 39.392 39.337C39.392 39.631 39.539 39.719 39.539 39.909C39.539 40.1 39.45 40.131 39.45 40.292C39.45 40.454 39.539 40.673 39.582 40.792"/>
  <path stroke-width="0.131" stroke-linejoin="round" d="M41.213 37.293C41.023 37.426 40.95 37.764 40.95 38.042C40.95 38.323 41.082 38.454 41.037 38.689C40.993 38.924 40.86 39.174 40.92 39.381C40.978 39.587 41.009 39.704 40.935 39.895C40.862 40.085 41.009 40.247 40.993 40.439"/>
  <path stroke-width="0.131" stroke-linejoin="round" d="M41.86 38.924C41.713 39.042 41.743 39.249 41.801 39.409C41.86 39.572 41.832 39.719 41.787 39.881C41.743 40.042 41.743 40.1 41.801 40.232"/>
  <path stroke-width="0.131" stroke-linejoin="round" d="M42.963 37.206C42.86 37.396 42.905 37.646 42.963 37.823C43.021 37.999 43.125 38.234 43.021 38.454C42.92 38.674 42.771 38.865 42.86 39.072C42.948 39.277 43.008 39.439 42.933 39.572C42.86 39.704 42.743 39.895 42.771 40.042C42.801 40.189 42.713 40.424 42.713 40.424"/>
  <path stroke-width="0.131" stroke-linejoin="round" d="M67.033 37.435C67.361 37.39 67.426 37.167 67.426 37.167"/>
  <path stroke-width="0.25" stroke-linejoin="round" d="M66.534 36.258C66.474 36.344 66.436 36.457 66.436 36.587C66.436 36.927 66.641 37.472 67 37.439C67.01 37.438 67.022 37.436 67.033 37.435"/>
  <path stroke-width="0.131" stroke-linejoin="round" d="M66.948 36.127C66.79 36.052 66.631 36.116 66.534 36.258"/>
  <path stroke-width="0.131" stroke-linejoin="round" d="M66.709 36.927C66.506 36.536 66.932 36.383 67.034 36.451C67.034 36.451 66.983 36.57 67.016 36.671C67.051 36.774 67.153 36.758 67.153 36.758"/>
  <path stroke-width="0.131" stroke-linejoin="round" d="M67.084 37.49C67.17 37.762 67.409 38.052 67.698 38.24"/>
  <path stroke-width="0.25" stroke-linejoin="round" d="M66.506 36.195C66.42 35.768 66.284 35.189 66.778 34.643C67.272 34.098 67.868 33.673 68.106 33.604"/>
  <path stroke-width="0.131" stroke-linejoin="round" d="M67.426 34.286C67.664 34.014 68.141 33.57 68.618 33.536"/>
  <path stroke-width="0.131" stroke-linejoin="round" d="M68.346 33.86C68.584 33.74 68.909 33.621 69.283 33.673"/>
  <path stroke-width="0.131" stroke-linejoin="round" d="M68.653 33.911C69.01 33.895 69.352 33.843 69.606 33.911"/>
  <path stroke-width="0.131" stroke-linejoin="round" d="M68.754 33.979C69.078 33.979 69.539 34.048 69.743 34.167"/>
  <path stroke-width="0.131" stroke-linejoin="round" d="M68.977 34.082C69.197 34.201 69.301 34.27 69.504 34.27"/>
  <path stroke-width="0.25" stroke-linejoin="round" d="M69.487 34.405C69.727 34.576 70.221 35.53 70.237 36.332C70.254 37.131 70.033 38.018 69.811 38.307"/>
  <path stroke-width="0.131" stroke-linejoin="round" d="M67.834 35.207C67.766 35.018 67.868 34.848 68.073 35.104C68.278 35.359 68.67 35.752 68.908 35.701C69.147 35.649 69.078 35.104 68.703 34.713"/>
  <path stroke-width="0.131" stroke-linejoin="round" d="M68.891 34.661C69.112 34.832 69.266 35.173 69.283 35.393"/>
  <path stroke-width="0.131" stroke-linejoin="round" d="M69.504 34.643C69.59 34.848 69.522 35.462 69.317 35.564C69.317 35.564 69.504 35.479 69.658 35.496C69.811 35.514 69.778 35.633 69.862 35.633"/>
  <path stroke-width="0.131" stroke-linejoin="round" d="M68.856 35.718C68.67 35.768 68.448 35.82 68.346 35.802C68.243 35.786 68.278 36.042 68.09 36.076"/>
  <path stroke-width="0.131" stroke-linejoin="round" d="M69.283 35.734C69.487 35.939 69.76 36.058 69.879 36.127C69.998 36.195 69.93 36.468 69.606 36.536"/>
  <path stroke-width="0.131" stroke-linejoin="round" d="M69.727 35.923C69.811 35.837 70.033 35.837 70.135 36.332"/>
  <path stroke-width="0.131" stroke-linejoin="round" d="M69.164 36.262C69.028 36.076 68.703 36.161 68.551 36.536C68.397 36.911 68.379 37.951 68.635 38.07"/>
  <path stroke-width="0.131" stroke-linejoin="round" d="M68.653 37.78C68.772 37.506 69.147 37.149 69.436 37.218C69.727 37.286 69.981 37.302 69.981 37.012C69.981 36.723 69.981 36.502 69.879 36.637C69.778 36.774 69.691 36.893 69.487 36.893C69.283 36.893 69.147 36.671 68.926 36.723C68.703 36.774 68.533 37.218 68.67 37.542"/>
  <path stroke-width="0.131" stroke-linejoin="round" d="M68.891 36.792L68.891 37.353"/>
  <path stroke-width="0.131" stroke-linejoin="round" d="M69.164 36.843L69.164 37.149"/>
  <path stroke-width="0.131" stroke-linejoin="round" d="M69.436 36.945L69.436 37.131"/>
  <path stroke-width="0.131" stroke-linejoin="round" d="M69.691 36.877L69.691 37.167"/>
  <path stroke-width="0.131" stroke-linejoin="round" d="M69.028 37.814C69.061 37.661 69.453 37.286 69.674 37.439"/>
  <path stroke-width="0.131" stroke-linejoin="round" d="M69.795 37.661C69.897 37.796 69.947 37.899 69.947 38.036"/>
  <path stroke-width="0.25" stroke-linejoin="round" d="M67.102 37.593C67.153 37.847 66.897 38.206 66.897 38.206"/>
  <path stroke-width="0.25" stroke-linejoin="round" d="M68.534 39.621C68.516 39.45 68.5 38.921 68.5 38.921"/>
  <path stroke-width="0.25" stroke-linejoin="round" d="M68.602 38.905C68.737 38.887 68.873 38.716 68.873 38.597C68.873 38.478 68.84 38.24 69.096 38.206C69.352 38.171 69.352 38.087 69.606 38.341C69.862 38.597 70.102 38.871 70.102 39.125C70.102 39.381 70.016 39.518 69.795 39.655C69.572 39.79 69.487 39.909 69.487 39.909"/>
  <path stroke-width="0.131" stroke-linejoin="round" d="M67.243 41.299C67.215 41.24 67.189 41.186 67.17 41.137C66.983 40.676 66.829 39.944 66.829 39.944"/>
  <path stroke-width="0.25" stroke-linejoin="round" d="M68.346 39.841C68.362 39.706 68.822 39.399 68.959 39.5C69.096 39.603 69.471 39.841 69.471 40.081C69.471 40.319 69.248 40.814 69.215 41.24C69.18 41.665 68.737 42.518 68.346 42.518C67.995 42.518 67.483 41.784 67.243 41.299"/>
  <path stroke-width="0.25" stroke-linejoin="round" d="M68.319 39.819C68.287 39.719 68.256 39.6 68.227 39.45C68.106 38.837 67.51 38.462 67.135 38.462C66.59 38.462 65.79 38.837 65.346 39.331C64.903 39.825 64.579 40.387 64.188 40.865C63.795 41.341 63.625 41.341 63.319 41.444C63.012 41.545 62.534 41.545 62.331 42.024C62.125 42.5 61.956 42.978 61.494 43.335C61.034 43.694 60.796 44.051 60.506 44.238C60.218 44.426 60.234 44.595 59.945 44.75C59.655 44.902 59.432 44.868 59.28 45.107C59.127 45.345 58.837 45.636 58.581 45.789C58.326 45.942 57.933 46.146 57.712 46.386C57.712 46.386 57.338 46.487 57.183 46.555C57.03 46.625 56.877 46.692 56.877 46.914C56.877 47.136 56.979 47.442 56.996 47.545C57.014 47.646 57.234 47.545 57.218 47.715C57.201 47.886 57.133 48.021 57.286 48.43C57.439 48.84 57.593 48.89 58.002 48.993C58.411 49.095 58.752 49.079 58.802 48.959C58.853 48.84 58.853 48.38 58.667 48.311C58.478 48.243 58.171 48.158 58.274 47.817C58.274 47.817 59.093 47.323 59.603 47.015C60.115 46.71 60.234 46.386 60.609 46.283C60.984 46.182 61.274 45.857 61.649 45.601C62.024 45.345 62.96 44.631 63.301 44.408C63.643 44.188 63.813 44.067 63.898 44.289C63.984 44.511 64.204 44.851 64.614 45.277C65.022 45.704 65.245 45.756 65.177 45.908C65.108 46.061 64.903 46.216 64.546 46.487C64.188 46.761 63.659 47.305 63.659 47.305C63.659 47.305 63.472 47.561 63.25 47.715C63.029 47.868 62.706 48.106 62.909 48.329C63.115 48.549 63.25 48.67 63.301 48.737C63.353 48.805 63.488 48.737 63.575 48.874C63.659 49.011 63.728 48.993 64.034 49.027C64.34 49.06 65.108 48.993 65.296 48.959C65.483 48.924 65.483 48.481 65.209 48.499C64.938 48.515 64.682 48.481 64.631 48.329C64.579 48.174 64.733 47.97 65.006 47.765C65.278 47.561 66.131 47.015 66.301 46.795C66.471 46.573 66.795 46.216 66.54 45.618C66.284 45.023 65.551 44 65.516 43.523C65.483 43.045 65.909 42.738 66.063 42.5C66.215 42.262 67.203 41.307 67.203 41.307"/>
  <path stroke-width="0.131" stroke-linejoin="round" d="M68.567 41.204C68.448 41.069 68.481 40.813 68.5 40.49C68.512 40.244 68.418 40.127 68.319 39.819"/>
  <path stroke-width="0.25" stroke-linejoin="round" d="M67.909 38.743L68.534 38.865"/>
  <path stroke-width="0.25" stroke-linejoin="round" d="M69.983 39.581C70.257 40.206 70.21 40.587 70.165 40.982C70.12 41.38 69.936 41.546 70.043 41.868C70.15 42.188 70.317 42.645 70.227 42.935C70.135 43.223 70.028 44.002 70.028 44.002L69.533 43.933C69.545 43.85 69.647 43.104 69.75 42.783C69.783 42.659 69.649 42.262 69.591 42.094L69.569 42.026C69.451 41.673 69.537 41.405 69.599 41.207L69.668 40.926C69.712 40.554 69.742 40.287 69.534 39.804"/>
  <path stroke-width="0.131" stroke-linejoin="round" d="M0.695 19.625L74.155 19.625"/>
  <path stroke-width="0.25" stroke-linejoin="round" d="M19.361 15.864L19.361 15.766C19.361 15.252 18.943 14.833 18.428 14.833C17.913 14.833 17.495 15.252 17.495 15.766L17.495 15.869"/>
  <path stroke-width="0.25" stroke-linejoin="round" d="M17.123 15.864L17.123 15.766C17.123 15.047 17.707 14.462 18.428 14.462C19.147 14.462 19.731 15.047 19.731 15.766L19.731 15.864"/>
  <path stroke-width="0.25" stroke-linejoin="round" d="M21.327 19.556C21.327 19.556 20.417 16.208 20.385 16.096C20.355 15.986 20.292 15.887 20.085 15.887L16.771 15.887C16.564 15.887 16.501 15.986 16.469 16.096C16.437 16.208 15.529 19.556 15.529 19.556L21.327 19.556z"/>
  <g>
   <text x="16.318" y="18.843" stroke="none" fill="#000000" font-family="'Arial'" font-size="2.117">1 W</text>
  </g>
  <path stroke-width="0.25" stroke-linejoin="round" d="M20.725 17.007L37.048 13.534L37.149 14.025L20.885 17.495"/>
  <path stroke-width="0.25" stroke-linejoin="round" d="M69.477 7.267L39.929 13.436L39.829 12.945L67.896 7.078C69.025 6.801 71.54 6.403 71.834 7.035"/>
  <path stroke-width="0.201" stroke-linejoin="round" d="M39.792 13.212L37.158 13.789"/>
  <path stroke-width="0.25" stroke-linejoin="round" d="M69.805 6.735C70.025 6.458 70.144 5.96 69.944 5.581C69.745 5.203 69.466 4.269 69.864 3.214C70.263 2.16 71.197 1.962 71.635 1.962C72.073 1.962 72.81 2.28 73.009 2.718"/>
  <path stroke-width="0.25" stroke-linejoin="round" d="M72.631 2.857C72.868 2.857 73.207 3.036 73.227 3.214"/>
  <path stroke-width="0.131" stroke-linejoin="round" d="M72.073 2.836C71.814 2.876 71.537 3.154 71.715 3.474"/>
  <path stroke-width="0.131" stroke-linejoin="round" d="M72.272 3.732C72.451 3.951 72.471 4.508 72.471 4.508L71.795 4.508"/>
  <path stroke-width="0.25" stroke-linejoin="round" d="M73.128 3.434C73.266 3.772 73.307 4.15 73.326 4.349"/>
  <path stroke-width="0.131" stroke-linejoin="round" d="M73.009 4.628L73.465 4.687"/>
  <path stroke-width="0.25" stroke-linejoin="round" d="M73.067 4.825C73.067 5.025 73.246 5.165 73.367 5.323C73.486 5.482 73.426 5.721 73.246 5.661C73.067 5.602 73.067 5.602 73.067 5.602C73.067 5.602 72.989 5.78 72.968 5.96C72.948 6.139 72.929 6.338 72.79 6.418C72.65 6.498 72.57 6.657 72.49 6.836C72.412 7.014 72.292 7.134 72.093 7.134"/>
  <path stroke-width="0.131" stroke-linejoin="round" d="M72.929 6.238C72.73 6.278 72.352 6.259 72.352 6.259"/>
  <path stroke-width="0.131" stroke-linejoin="round" d="M72.57 5.403L73.067 5.602"/>
  <path stroke-width="0.131" stroke-linejoin="round" d="M72.292 4.767C72.253 4.926 71.953 5.004 71.795 4.985"/>
  <path stroke-width="0.131" stroke-linejoin="round" d="M72.233 4.687C72.233 4.742 72.188 4.786 72.132 4.786C72.078 4.786 72.034 4.742 72.034 4.687C72.034 4.631 72.078 4.588 72.132 4.588C72.188 4.588 72.233 4.631 72.233 4.687z"/>
  <path stroke-width="0.131" stroke-linejoin="round" d="M70.7 4.389C70.62 4.169 70.441 4.049 70.242 4.049C70.043 4.049 69.944 4.408 69.984 4.706C70.025 5.004 70.361 5.9 70.74 5.602"/>
  <path stroke-width="0.131" stroke-linejoin="round" d="M70.144 4.368C70.343 4.389 70.402 4.588 70.462 4.647C70.522 4.706 70.302 4.827 70.421 4.905C70.542 4.985 70.542 4.985 70.542 4.985"/>
  <path stroke-width="0.131" stroke-linejoin="round" d="M72.79 2.698C72.551 2.479 72.093 1.98 71.536 2.557"/>
  <path stroke-width="0.131" stroke-linejoin="round" d="M72.73 3.633C72.59 3.234 72.432 2.976 72.432 2.976"/>
  <path stroke-width="0.131" stroke-linejoin="round" d="M72.292 2.757C72.073 2.538 71.736 2.539 71.555 2.718C71.376 2.897 71.356 3.593 71.734 3.951"/>
  <path stroke-width="0.131" stroke-linejoin="round" d="M70.084 5.682L71.019 6.517"/>
  <path stroke-width="0.25" stroke-linejoin="round" d="M71.834 7.035C72.034 7.113 72.192 7.234 72.192 7.471C72.192 7.711 72.212 8.009 72.212 8.227C72.212 8.446 72.272 8.506 72.013 8.625C71.754 8.746 71.237 9.023 71.237 9.023C71.237 9.023 71.316 9.083 71.177 9.323C71.039 9.561 70.799 9.999 70.542 10.436C70.283 10.875 69.805 11.611 69.706 12.007C69.606 12.406 69.587 12.545 69.626 12.923C69.665 13.301 69.686 13.917 69.686 14.336C69.686 14.753 69.965 15.231 69.965 15.669C69.965 16.106 69.546 17.359 69.427 17.798C69.308 18.236 69.129 18.335 69.328 18.594C69.527 18.852 69.844 18.972 70.123 19.03C70.402 19.091 70.62 19.091 70.62 19.25C70.62 19.41 70.6 19.568 70.421 19.568C70.242 19.568 69.367 19.568 69.108 19.568C68.85 19.568 68.751 19.449 68.671 19.449C68.591 19.449 68.591 19.564 68.492 19.564C68.393 19.564 67.596 19.564 67.596 19.564C67.596 19.564 67.557 19.449 67.596 19.091C67.637 18.733 67.936 18.295 67.954 17.996C67.974 17.699 68.293 16.545 68.412 16.205C68.531 15.868 68.512 15.47 68.274 14.853C68.034 14.237 67.896 13.878 67.896 13.878C67.896 13.878 67.099 14.496 66.9 15.073C66.701 15.649 66.621 16.146 66.403 16.464C66.185 16.783 65.766 16.961 65.686 17.181C65.608 17.399 65.109 18.097 65.051 18.275C64.99 18.454 64.971 18.733 65.209 18.832C65.448 18.931 65.945 18.951 66.105 19.05C66.263 19.15 66.284 19.568 66.064 19.568C65.846 19.568 64.95 19.568 64.772 19.568C64.593 19.568 64.373 19.469 64.254 19.449C64.135 19.429 64.114 19.524 63.956 19.524C63.796 19.524 63.081 19.524 63.081 19.524C63.081 19.524 62.96 19.131 63.159 18.693C63.359 18.256 63.24 18.275 63.518 17.739C63.796 17.201 64.215 16.265 64.552 15.788C64.891 15.31 65.09 14.794 65.209 14.396C65.328 13.997 65.528 13.441 65.608 13.022C65.686 12.605 66.025 12.028 66.403 11.669C66.781 11.311 66.98 10.794 67.159 10.477C67.337 10.157 67.637 8.646 68.313 8.029C68.989 7.413 69.983 6.855 70.661 7.551"/>
  <path stroke-width="0.131" stroke-linejoin="round" d="M70.144 7.929C70.263 8.467 70.004 9.422 69.786 10.019"/>
  <path stroke-width="0.131" stroke-linejoin="round" d="M70.123 8.826C70.123 8.826 70.302 8.368 70.462 8.348C70.62 8.327 71.177 9.064 71.177 9.064"/>
  <path stroke-width="0.131" stroke-linejoin="round" d="M68.572 8.846C68.453 9.481 68.153 11.412 68.849 11.669C69.546 11.929 70.144 10.894 70.561 10.237"/>
  <path stroke-width="0.131" stroke-linejoin="round" d="M71.177 7.193C71.177 7.333 71.218 7.453 71.436 7.352C71.656 7.253 71.734 7.174 71.734 7.174"/>
  <path stroke-width="0.25" stroke-linejoin="round" d="M70.075 7.165C70.632 7.144 71.099 7.153 71.099 7.153C70.939 7.274 70.78 7.413 70.78 7.671C70.78 7.929 70.7 8.307 70.7 8.307"/>
  <path stroke-width="0.25" stroke-linejoin="round" d="M72.055 8.753C72.096 9.494 71.932 10.381 72.075 10.669C72.219 10.958 72.179 11.412 72.158 11.679C72.132 11.999 72.034 12.092 72.198 12.586C72.364 13.082 72.385 13.185 72.385 13.185C72.385 13.185 72.013 13.452 71.972 13.307C71.93 13.163 71.602 12.628 71.704 11.926C71.808 11.226 71.787 11.102 71.704 10.855C71.621 10.608 71.621 10.134 71.643 9.701C71.662 9.268 71.662 8.938 71.662 8.938"/>
 </g>
</svg>
