<?xml version="1.0" encoding="utf-8"?>
<!DOCTYPE svg PUBLIC "-//W3C//DTD SVG 1.1//EN" "http://www.w3.org/Graphics/SVG/1.1/DTD/svg11.dtd">
<!-- Generator: PTC Arbortext IsoDraw 7.3 -->
<svg width="100%" height="100%" viewBox="0 0 75 87.203"
 xmlns="http://www.w3.org/2000/svg" xmlns:xlink="http://www.w3.org/1999/xlink"
 fill-rule="evenodd" clip-rule="evenodd" stroke="#000000" stroke-linecap="round" fill="none" xml:space="preserve">
 <g id="Frame">
  <path stroke="none" fill="#FFFFFF" d="M75 87.203L0 87.203 0 0 75 0 75 87.203z"/>
 </g>
 <g id="Colour">
 </g>
 <g id="Standard_x0020_layer">
  <g>
   <text x="17.614" y="73.751" stroke="none" fill="#000000" font-family="'Helvetica'" font-size="4.232">L2</text>
   <text x="20.109" y="52.929" stroke="none" fill="#000000" font-family="'Helvetica'" font-size="4.232">L1</text>
   <text x="3.968" y="53.024" stroke="none" fill="#000000" font-family="'Helvetica'" font-size="4.232">+24V</text>
   <g>
    <path stroke-width="0.13" d="M30.937 68.376C30.937 66.888 29.73 65.682 28.242 65.682C26.754 65.682 25.548 66.888 25.548 68.376C25.548 69.12 25.85 69.793 26.336 70.281"/>
    <path stroke-width="0.13" d="M30.115 70.311C30.661 69.784 30.936 69.081 30.937 68.376"/>
   </g>
   <polygon stroke-width="0.3" points="26.336 70.281 30.114 70.281 30.114 73.37 26.336 73.37 26.336 70.281"/>
   <line stroke-width="0.3" x1="26.783" y1="73.388" x2="27.109" y2="73.849"/>
   <line stroke-width="0.3" x1="27.109" y1="73.849" x2="29.492" y2="73.849"/>
   <line stroke-width="0.3" x1="29.492" y1="73.849" x2="29.818" y2="73.388"/>
   <line stroke-width="0.13" x1="27.542" y1="70.165" x2="27.027" y2="68.161"/>
   <path stroke-width="0.13" d="M27.027 68.161C27.434 68.566 28.219 68.459 28.355 68.188"/>
   <line stroke-width="0.13" x1="29.167" y1="70.165" x2="29.681" y2="68.161"/>
   <path stroke-width="0.13" d="M29.681 68.161C29.275 68.566 28.489 68.459 28.355 68.188"/>
   <line stroke-width="0.3" x1="27.597" y1="73.826" x2="27.597" y2="74.715"/>
   <line stroke-width="0.3" x1="27.597" y1="74.715" x2="10.746" y2="74.715"/>
   <line stroke-width="0.3" x1="29.003" y1="73.826" x2="29.003" y2="74.715"/>
   <line stroke-width="0.3" x1="29.003" y1="74.715" x2="46.518" y2="74.715"/>
   <g>
    <path stroke-width="0.13" d="M30.978 47.729C30.978 46.241 29.771 45.036 28.283 45.036C26.795 45.036 25.589 46.241 25.589 47.729C25.589 48.473 25.89 49.148 26.379 49.634"/>
    <path stroke-width="0.13" d="M30.157 49.665C30.702 49.137 30.978 48.435 30.978 47.729"/>
   </g>
   <polygon stroke-width="0.3" points="26.379 49.634 30.157 49.634 30.157 52.723 26.379 52.723 26.379 49.634"/>
   <line stroke-width="0.3" x1="26.824" y1="52.743" x2="27.149" y2="53.204"/>
   <line stroke-width="0.3" x1="27.149" y1="53.204" x2="29.533" y2="53.204"/>
   <line stroke-width="0.3" x1="29.533" y1="53.204" x2="29.859" y2="52.743"/>
   <line stroke-width="0.13" x1="27.583" y1="49.52" x2="27.068" y2="47.515"/>
   <path stroke-width="0.13" d="M27.068 47.515C27.475 47.92 28.26 47.813 28.396 47.542"/>
   <line stroke-width="0.13" x1="29.208" y1="49.52" x2="29.724" y2="47.515"/>
   <path stroke-width="0.13" d="M29.724 47.515C29.317 47.92 28.532 47.813 28.396 47.542"/>
   <line stroke-width="0.3" x1="27.64" y1="53.18" x2="27.64" y2="54.069"/>
   <line stroke-width="0.2" x1="27.64" y1="54.069" x2="4.06" y2="54.069"/>
   <line stroke-width="0.3" x1="29.044" y1="53.18" x2="29.044" y2="54.069"/>
   <line stroke-width="0.2" x1="29.044" y1="54.069" x2="59.112" y2="54.069"/>
   <line stroke-width="0.2" x1="10.746" y1="74.715" x2="10.746" y2="54.109"/>
   <polygon stroke-width="0.2" points="46.558 74.207 50.662 74.207 50.662 75.185 46.558 75.185 46.558 74.207"/>
   <path stroke-width="0.2" d="M50.662 74.697C51.101 75.064 51.32 75.284 51.64 75.284C51.959 75.284 55.127 75.125 55.146 75.144C55.167 75.165 55.326 75.144 55.286 75.444C55.246 75.742 55.246 75.861 55.127 75.861C55.006 75.861 51.121 76.1 51.021 76.022C50.923 75.941 51.002 75.284 50.662 75.185"/>
   <line stroke-width="0.2" x1="51.28" y1="75.125" x2="51.28" y2="73.769"/>
   <line stroke-width="0.2" x1="51.28" y1="73.769" x2="51.679" y2="73.371"/>
   <line stroke-width="0.2" x1="51.679" y1="73.371" x2="52.795" y2="73.371"/>
   <line stroke-width="0.2" x1="52.198" y1="73.65" x2="52.198" y2="74.865"/>
   <line stroke-width="0.2" x1="54.828" y1="75.125" x2="54.828" y2="73.769"/>
   <line stroke-width="0.2" x1="54.828" y1="73.769" x2="54.429" y2="73.371"/>
   <line stroke-width="0.2" x1="54.429" y1="73.371" x2="52.795" y2="73.371"/>
   <line stroke-width="0.2" x1="53.911" y1="73.65" x2="53.911" y2="74.865"/>
   <line stroke-width="0.2" x1="54.765" y1="76.4" x2="54.765" y2="77.489"/>
   <line stroke-width="0.2" x1="54.765" y1="77.489" x2="54.365" y2="77.888"/>
   <line stroke-width="0.2" x1="54.365" y1="77.888" x2="53.25" y2="77.888"/>
   <line stroke-width="0.2" x1="53.847" y1="77.608" x2="53.847" y2="76.394"/>
   <line stroke-width="0.2" x1="51.218" y1="76.4" x2="51.218" y2="77.489"/>
   <line stroke-width="0.2" x1="51.218" y1="77.489" x2="51.615" y2="77.888"/>
   <line stroke-width="0.2" x1="51.615" y1="77.888" x2="53.25" y2="77.888"/>
   <line stroke-width="0.2" x1="52.134" y1="77.608" x2="52.134" y2="76.394"/>
   <polygon stroke-width="0.2" points="49.249 76.001 74.194 76.001 74.194 76.4 49.249 76.4 49.249 76.001"/>
   <line stroke-width="0.2" x1="52.152" y1="77.888" x2="52.152" y2="78.668"/>
   <line stroke-width="0.2" x1="52.152" y1="78.668" x2="52.441" y2="78.834"/>
   <line stroke-width="0.2" x1="52.441" y1="78.834" x2="53.921" y2="78.834"/>
   <line stroke-width="0.2" x1="53.921" y1="78.834" x2="54.159" y2="78.676"/>
   <line stroke-width="0.2" x1="54.159" y1="78.676" x2="54.159" y2="77.906"/>
   <line stroke-width="0.2" x1="52.243" y1="78.129" x2="53.185" y2="78.025"/>
   <line stroke-width="0.2" x1="52.25" y1="78.421" x2="54.064" y2="78.215"/>
   <line stroke-width="0.2" x1="53.027" y1="78.611" x2="54.073" y2="78.477"/>
   <polygon stroke-width="0.2" points="60.63 73.858 64.734 73.858 64.734 74.834 60.63 74.834 60.63 73.858"/>
   <path stroke-width="0.2" d="M64.734 74.346C65.173 74.715 65.391 74.933 65.71 74.933C66.03 74.933 69.197 74.774 69.218 74.793C69.237 74.813 69.397 74.793 69.356 75.093C69.317 75.391 69.317 75.512 69.197 75.512C69.078 75.512 65.192 75.751 65.093 75.671C64.993 75.59 65.073 74.933 64.734 74.834"/>
   <line stroke-width="0.2" x1="65.411" y1="73.987" x2="65.411" y2="72.632"/>
   <line stroke-width="0.2" x1="65.411" y1="72.632" x2="65.81" y2="72.233"/>
   <line stroke-width="0.2" x1="65.81" y1="72.233" x2="66.926" y2="72.233"/>
   <line stroke-width="0.2" x1="66.328" y1="72.513" x2="66.328" y2="73.728"/>
   <line stroke-width="0.2" x1="68.957" y1="73.987" x2="68.957" y2="72.632"/>
   <line stroke-width="0.2" x1="68.957" y1="72.632" x2="68.56" y2="72.233"/>
   <line stroke-width="0.2" x1="68.56" y1="72.233" x2="66.926" y2="72.233"/>
   <line stroke-width="0.2" x1="68.042" y1="72.513" x2="68.042" y2="73.728"/>
   <line stroke-width="0.2" x1="68.819" y1="76.391" x2="68.819" y2="77.481"/>
   <line stroke-width="0.2" x1="68.819" y1="77.481" x2="68.42" y2="77.879"/>
   <line stroke-width="0.2" x1="68.42" y1="77.879" x2="67.304" y2="77.879"/>
   <line stroke-width="0.2" x1="67.902" y1="77.6" x2="67.902" y2="76.385"/>
   <line stroke-width="0.2" x1="65.272" y1="76.391" x2="65.272" y2="77.481"/>
   <line stroke-width="0.2" x1="65.272" y1="77.481" x2="65.671" y2="77.879"/>
   <line stroke-width="0.2" x1="65.671" y1="77.879" x2="67.304" y2="77.879"/>
   <line stroke-width="0.2" x1="66.188" y1="77.6" x2="66.188" y2="76.385"/>
   <line stroke-width="0.2" x1="66.206" y1="77.879" x2="66.206" y2="78.659"/>
   <line stroke-width="0.2" x1="66.206" y1="78.659" x2="66.495" y2="78.826"/>
   <line stroke-width="0.2" x1="66.495" y1="78.826" x2="67.977" y2="78.826"/>
   <line stroke-width="0.2" x1="67.977" y1="78.826" x2="68.213" y2="78.668"/>
   <line stroke-width="0.2" x1="68.213" y1="78.668" x2="68.213" y2="77.9"/>
   <line stroke-width="0.2" x1="66.296" y1="78.12" x2="67.239" y2="78.018"/>
   <line stroke-width="0.2" x1="66.305" y1="78.415" x2="68.118" y2="78.209"/>
   <line stroke-width="0.2" x1="67.081" y1="78.605" x2="68.126" y2="78.469"/>
   <line stroke-width="0.2" x1="68.957" y1="73.987" x2="65.411" y2="73.987"/>
   <line stroke-width="0.2" x1="66.352" y1="74.001" x2="66.352" y2="74.921"/>
   <line stroke-width="0.2" x1="66.307" y1="75.557" x2="66.307" y2="75.891"/>
   <line stroke-width="0.2" x1="68.102" y1="73.974" x2="68.102" y2="74.826"/>
   <line stroke-width="0.2" x1="68.114" y1="75.566" x2="68.114" y2="75.972"/>
   <line stroke-width="0.2" x1="71.817" y1="76.381" x2="71.817" y2="79.724"/>
   <line stroke-width="0.5" x1="71.817" y1="79.724" x2="70.087" y2="79.724"/>
   <line stroke-width="0.5" x1="71.856" y1="80.391" x2="70.795" y2="80.391"/>
   <line stroke-width="0.5" x1="71.896" y1="81.061" x2="71.424" y2="81.061"/>
   <line stroke-width="0.5" x1="71.817" y1="79.724" x2="73.548" y2="79.724"/>
   <line stroke-width="0.5" x1="71.778" y1="80.391" x2="72.84" y2="80.391"/>
   <line stroke-width="0.5" x1="71.739" y1="81.061" x2="72.21" y2="81.061"/>
   <line stroke-width="0.2" x1="59.112" y1="54.069" x2="59.112" y2="74.334"/>
   <line stroke-width="0.2" x1="59.112" y1="74.334" x2="60.63" y2="74.334"/>
   <path stroke-width="0.3" d="M14.867 31.216C14.867 31.216 5.304 31.567 5.286 31.567C5.267 31.567 3.141 31.603 2.993 29.143C2.846 26.684 3.475 3.677 3.475 3.714C3.475 3.751 3.141 2.458 5.286 2.458C7.432 2.458 15.901 2.939 15.901 2.939C15.901 2.939 17.048 2.865 17.048 5.897C17.048 8.931 15.939 25.538 15.939 25.538L15.791 28.94"/>
   <path stroke-width="0.13" d="M3.29 28.756C3.475 29.829 3.511 30.161 4.879 30.161C6.248 30.161 13.72 29.902 13.72 29.902"/>
   <path stroke-width="0.13" d="M13.239 29.126L4.583 29.31C4.583 29.31 3.992 28.903 3.918 27.646C3.843 26.388 4.065 10.743 4.065 10.743C4.065 10.743 4.435 5.823 4.472 5.453C4.509 5.083 4.658 4.676 5.583 4.714C6.506 4.751 15.458 5.121 15.532 5.158C15.605 5.195 16.161 4.972 16.161 5.897C16.161 6.822 15.901 14.146 15.865 14.146C15.827 14.146 15.346 26.722 15.346 26.722"/>
   <path stroke-width="0.13" d="M5.804 4.751C5.027 4.751 5.102 5.343 5.065 5.676C5.027 6.009 4.879 12.148 4.879 12.148L8.763 12.259C8.763 12.259 12.314 12.74 12.204 16.513"/>
   <path stroke-width="0.13" d="M12.204 16.513C12.092 18.288 10.724 20.655 8.023 20.766C5.323 20.878 4.916 20.803 4.916 20.803L4.769 29.088"/>
   <line stroke-width="0.13" x1="5.286" y1="10.541" x2="5.479" y2="5.107"/>
   <line stroke-width="0.13" x1="5.479" y1="5.107" x2="15.464" y2="5.53"/>
   <line stroke-width="0.13" x1="15.464" y1="5.53" x2="15.272" y2="10.964"/>
   <line stroke-width="0.13" x1="5.286" y1="10.541" x2="15.272" y2="10.964"/>
   <line stroke-width="0.13" x1="5.862" y1="6.605" x2="5.767" y2="9.715"/>
   <line stroke-width="0.13" x1="6.131" y1="9.811" x2="14.465" y2="10.061"/>
   <line stroke-width="0.13" x1="14.657" y1="9.869" x2="14.774" y2="7.008"/>
   <line stroke-width="0.13" x1="14.542" y1="6.796" x2="6.073" y2="6.644"/>
   <path stroke-width="0.13" d="M8.878 11.406C9.204 11.272 9.3 11.56 9.589 11.445"/>
   <line stroke-width="0.13" x1="11.163" y1="12.73" x2="11.759" y2="12.73"/>
   <line stroke-width="0.13" x1="14.005" y1="14.689" x2="14.638" y2="14.728"/>
   <g>
    <path stroke-width="0.13" d="M9.231 13.282C9.231 13.108 9.089 12.964 8.913 12.964C8.737 12.964 8.595 13.108 8.595 13.282C8.595 13.458 8.737 13.6 8.913 13.6C9.089 13.6 9.231 13.458 9.231 13.282"/>
   </g>
   <g>
    <path stroke-width="0.13" d="M8.335 16.065C8.335 15.862 8.169 15.695 7.964 15.695C7.831 15.695 7.716 15.765 7.65 15.869"/>
    <path stroke-width="0.13" d="M8.314 16.187C8.329 16.146 8.335 16.105 8.335 16.065"/>
   </g>
   <g>
    <path stroke-width="0.13" d="M7.424 16.46C7.384 16.524 7.367 16.594 7.367 16.663C7.367 16.873 7.538 17.045 7.75 17.045C7.886 17.045 8.005 16.974 8.073 16.864"/>
   </g>
   <line stroke-width="0.13" x1="7.424" y1="16.46" x2="7.65" y2="15.869"/>
   <line stroke-width="0.13" x1="8.073" y1="16.864" x2="8.343" y2="16.184"/>
   <g>
    <path stroke-width="0.13" d="M6.538 18.507C6.532 18.544 6.528 18.579 6.528 18.611C6.528 18.968 6.817 19.256 7.173 19.256C7.459 19.256 7.703 19.068 7.786 18.804"/>
   </g>
   <g>
    <path stroke-width="0.13" d="M9.557 13.282C9.557 12.928 9.269 12.638 8.913 12.638C8.627 12.638 8.384 12.826 8.3 13.089"/>
    <path stroke-width="0.13" d="M9.528 13.474C9.548 13.409 9.557 13.343 9.557 13.282"/>
   </g>
   <line stroke-width="0.13" x1="9.56" y1="13.449" x2="7.782" y2="18.855"/>
   <line stroke-width="0.13" x1="8.311" y1="13.045" x2="6.544" y2="18.495"/>
   <g>
    <path stroke-width="0.13" d="M11.365 16.402C11.365 15.095 10.64 13.957 9.553 13.359"/>
    <path stroke-width="0.13" d="M8.35 12.968C8.194 12.948 8.038 12.939 7.902 12.939C5.99 12.939 4.439 14.49 4.439 16.402C4.439 18.315 5.99 19.864 7.902 19.864C9.814 19.864 11.365 18.315 11.365 16.402"/>
   </g>
   <line stroke-width="0.13" x1="9.115" y1="11.663" x2="9.284" y2="12.199"/>
   <line stroke-width="0.13" x1="9.284" y1="12.199" x2="9.5" y2="11.647"/>
   <line stroke-width="0.13" x1="11.326" y1="12.97" x2="11.41" y2="13.489"/>
   <line stroke-width="0.13" x1="11.41" y1="13.489" x2="11.644" y2="12.987"/>
   <line stroke-width="0.13" x1="12.414" y1="17.925" x2="12.43" y2="17.474"/>
   <line stroke-width="0.13" x1="12.43" y1="17.474" x2="12.582" y2="17.474"/>
   <line stroke-width="0.13" x1="12.464" y1="15.147" x2="12.464" y2="15.548"/>
   <line stroke-width="0.13" x1="12.464" y1="15.548" x2="12.615" y2="15.548"/>
   <line stroke-width="0.13" x1="12.849" y1="15.179" x2="12.849" y2="15.566"/>
   <line stroke-width="0.13" x1="13.252" y1="15.196" x2="13.252" y2="15.515"/>
   <line stroke-width="0.13" x1="13.252" y1="15.515" x2="13.468" y2="15.481"/>
   <line stroke-width="0.13" x1="13.804" y1="15.582" x2="13.837" y2="15.314"/>
   <line stroke-width="0.13" x1="13.837" y1="15.314" x2="14.205" y2="15.314"/>
   <line stroke-width="0.13" x1="14.205" y1="15.314" x2="14.205" y2="15.532"/>
   <line stroke-width="0.13" x1="14.374" y1="15.147" x2="14.507" y2="15.532"/>
   <line stroke-width="0.13" x1="14.507" y1="15.532" x2="14.574" y2="15.263"/>
   <line stroke-width="0.13" x1="10.99" y1="19.868" x2="11.962" y2="19.751"/>
   <line stroke-width="0.13" x1="12.666" y1="19.583" x2="12.179" y2="19.768"/>
   <line stroke-width="0.13" x1="12.179" y1="19.768" x2="12.615" y2="19.936"/>
   <line stroke-width="0.13" x1="12.615" y1="19.936" x2="12.666" y2="19.583"/>
   <line stroke-width="0.13" x1="9.099" y1="21.274" x2="8.897" y2="21.676"/>
   <line stroke-width="0.13" x1="9.099" y1="21.274" x2="9.25" y2="21.626"/>
   <line stroke-width="0.13" x1="6.219" y1="21.391" x2="5.985" y2="21.727"/>
   <line stroke-width="0.13" x1="6.152" y1="21.525" x2="6.302" y2="21.945"/>
   <path stroke-width="0.13" d="M8.714 20.981C9.039 20.847 9.135 21.135 9.423 21.019"/>
   <line stroke-width="0.13" x1="6.043" y1="21.117" x2="6.637" y2="21.117"/>
   <line stroke-width="0.13" x1="5.817" y1="11.496" x2="5.833" y2="11.881"/>
   <line stroke-width="0.13" x1="5.833" y1="11.881" x2="6.001" y2="11.899"/>
   <line stroke-width="0.13" x1="6.001" y1="11.899" x2="6.035" y2="11.647"/>
   <line stroke-width="0.13" x1="6.302" y1="11.529" x2="6.32" y2="11.965"/>
   <line stroke-width="0.13" x1="6.302" y1="11.529" x2="6.487" y2="11.614"/>
   <line stroke-width="0.13" x1="6.621" y1="11.614" x2="6.637" y2="11.781"/>
   <line stroke-width="0.13" x1="6.621" y1="11.614" x2="6.772" y2="11.647"/>
   <line stroke-width="0.13" x1="6.621" y1="11.614" x2="6.772" y2="11.647"/>
   <line stroke-width="0.13" x1="6.979" y1="12.919" x2="4.383" y2="12.955"/>
   <line stroke-width="0.13" x1="7.395" y1="19.925" x2="4.31" y2="19.908"/>
   <g>
    <path stroke-width="0.13" d="M6.575 25.721C6.575 25.349 6.274 25.047 5.902 25.047C5.53 25.047 5.227 25.349 5.227 25.721C5.227 26.092 5.53 26.394 5.902 26.394C6.274 26.394 6.575 26.092 6.575 25.721"/>
   </g>
   <g>
    <path stroke-width="0.13" d="M6.237 25.721C6.237 25.535 6.086 25.385 5.902 25.385C5.716 25.385 5.564 25.535 5.564 25.721C5.564 25.907 5.716 26.057 5.902 26.057C6.086 26.057 6.237 25.907 6.237 25.721"/>
   </g>
   <line stroke-width="0.13" x1="5.227" y1="25.721" x2="5.282" y2="24.091"/>
   <line stroke-width="0.13" x1="5.282" y1="24.091" x2="6.45" y2="24.091"/>
   <line stroke-width="0.13" x1="6.45" y1="24.091" x2="6.485" y2="25.19"/>
   <g>
    <path stroke-width="0.13" d="M6.503 28.361C6.503 27.989 6.203 27.687 5.83 27.687C5.458 27.687 5.157 27.989 5.157 28.361C5.157 28.733 5.458 29.033 5.83 29.033C6.203 29.033 6.503 28.733 6.503 28.361"/>
   </g>
   <g>
    <path stroke-width="0.13" d="M6.166 28.361C6.166 28.175 6.017 28.024 5.83 28.024C5.644 28.024 5.493 28.175 5.493 28.361C5.493 28.547 5.644 28.696 5.83 28.696C6.017 28.696 6.166 28.547 6.166 28.361"/>
   </g>
   <line stroke-width="0.13" x1="5.157" y1="28.361" x2="5.211" y2="26.731"/>
   <line stroke-width="0.13" x1="5.211" y1="26.731" x2="6.379" y2="26.731"/>
   <line stroke-width="0.13" x1="6.379" y1="26.731" x2="6.415" y2="27.829"/>
   <line stroke-width="0.13" x1="13.022" y1="25.704" x2="11.711" y2="25.739"/>
   <line stroke-width="0.13" x1="11.711" y1="25.739" x2="11.659" y2="28.254"/>
   <line stroke-width="0.13" x1="11.659" y1="28.254" x2="12.811" y2="28.219"/>
   <line stroke-width="0.13" x1="12.916" y1="28.503" x2="6.681" y2="28.661"/>
   <line stroke-width="0.13" x1="7.424" y1="28.538" x2="7.424" y2="25.809"/>
   <line stroke-width="0.13" x1="7.23" y1="25.774" x2="6.769" y2="25.792"/>
   <line stroke-width="0.13" x1="7.496" y1="23.275" x2="7.496" y2="25.525"/>
   <line stroke-width="0.13" x1="7.496" y1="25.525" x2="12.439" y2="25.525"/>
   <line stroke-width="0.13" x1="12.439" y1="25.525" x2="12.439" y2="23.24"/>
   <line stroke-width="0.13" x1="12.544" y1="23.24" x2="7.496" y2="23.24"/>
   <line stroke-width="0.13" x1="13.307" y1="25.225" x2="13.307" y2="23.843"/>
   <line stroke-width="0.13" x1="13.307" y1="23.843" x2="14.475" y2="23.843"/>
   <line stroke-width="0.13" x1="14.475" y1="23.843" x2="14.475" y2="25.047"/>
   <g>
    <path stroke-width="0.13" d="M14.564 25.579C14.564 25.207 14.262 24.905 13.891 24.905C13.519 24.905 13.217 25.207 13.217 25.579C13.217 25.783 13.308 25.966 13.454 26.091"/>
    <path stroke-width="0.13" d="M14.56 25.655C14.564 25.629 14.564 25.603 14.564 25.579"/>
   </g>
   <path stroke-width="0.13" d="M13.307 25.881C13.307 25.49 13.537 25.118 13.766 25.118C13.997 25.118 14.21 24.995 14.387 25.349C14.564 25.704 15.131 26.536 15.272 26.855C15.414 27.173 15.573 27.28 15.449 27.599C15.326 27.917 15.291 27.812 15.272 28.077C15.255 28.343 15.201 28.324 15.237 28.556C15.272 28.786 15.256 28.733 15.38 29.086C15.503 29.442 15.557 29.512 15.468 29.777C15.432 29.884 15.369 29.975 15.292 30.047"/>
   <path stroke-width="0.13" d="M14.689 30.253C14.493 30.251 14.266 30.185 14.138 29.83C13.961 29.335 13.394 27.759 13.394 27.759C13.394 27.759 13.323 27.457 13.448 27.28C13.573 27.103 13.731 26.341 13.307 25.881"/>
   <path stroke-width="0.13" d="M15.185 28.643C14.936 28.271 14.882 28.396 14.599 28.343C14.317 28.289 14.121 28.414 13.997 28.626"/>
   <path stroke-width="0.13" d="M15.308 26.943C14.936 26.606 14.99 26.66 14.618 26.731C14.246 26.801 13.926 26.96 13.874 27.297"/>
   <g>
    <path stroke-width="0.13" d="M15.176 27.368C15.176 27.167 15.012 27.004 14.813 27.004C14.612 27.004 14.448 27.167 14.448 27.368C14.448 27.57 14.612 27.731 14.813 27.731C15.012 27.731 15.176 27.57 15.176 27.368"/>
   </g>
   <path stroke-width="0.13" d="M15.475 29.532C15.169 29.263 14.348 29.176 14.237 30.022"/>
   <path stroke-width="0.3" d="M15.16 29.687C15.615 30.876 16.138 32.774 15.961 34.216"/>
   <path stroke-width="0.3" d="M14.564 29.916C14.99 31.024 15.493 32.793 15.329 34.139"/>
   <line stroke-width="0.13" x1="13.457" y1="26.718" x2="13.186" y2="26.718"/>
   <line stroke-width="0.13" x1="13.186" y1="26.718" x2="13.186" y2="27.687"/>
   <path stroke-width="0.13" d="M13.412 27.867C13.153 28.047 12.971 28.115 13.096 28.486C13.22 28.859 14.021 30.358 14.021 30.358C14.021 30.358 14.201 30.832 14.808 30.786"/>
   <path stroke-width="0.13" d="M15.372 28.937C15.621 28.983 15.789 29.074 15.925 29.344C16.059 29.614 16.082 29.727 16.341 30.009C16.6 30.291 16.748 30.278 16.917 30.381C17.085 30.481 17.164 30.539 17.164 30.684C17.164 30.71 17.164 30.742 17.163 30.778"/>
   <path stroke-width="0.13" d="M16.972 31.315C16.792 31.44 16.51 31.553 16.5 31.405C16.489 31.26 15.891 31.001 15.813 30.955C15.734 30.911 15.576 30.798 15.586 30.798"/>
   <path stroke-width="0.13" d="M16.951 30.449C16.568 30.663 16.41 31.146 16.5 31.405"/>
   <path stroke-width="0.3" d="M16.78 31.234C17.204 31.379 17.725 31.801 18.161 32.223C18.583 32.634 18.931 33.04 18.987 33.206C19.071 33.518 19.089 34.423 19.047 34.738"/>
   <path stroke-width="0.3" d="M16.963 30.698C17.449 30.864 18.056 31.332 18.556 31.815C19.065 32.31 19.455 32.822 19.524 33.023L19.524 33.023C19.528 33.034 19.532 33.046 19.535 33.057L19.535 33.057C19.632 33.418 19.658 34.453 19.609 34.814"/>
   <path stroke="none" fill="#FFFFFF" d="M8.774 25.73L11.25 25.73 11.25 24.672 8.774 24.672z"/>
   <text x="8.774" y="25.376" stroke="none" fill="#000000" font-family="'Helvetica'" font-size="0.685" font-weight="bold">587 423</text>
   <g>
    <path stroke-width="0.13" stroke-linecap="butt" fill="#000000" d="M10.813 23.629L10.813 23.983 10.544 23.629 10.221 23.629 10.221 24.117 10.019 23.629 9.833 23.629 9.827 23.798 9.928 24.021 9.74 24.021 9.827 23.798 9.833 23.629 9.647 23.629 9.49 24.021 9.256 24.021 9.25 24.045 9.24 24.068 9.228 24.088 9.214 24.103 9.199 24.115 9.18 24.126 9.16 24.132 9.137 24.137 9.112 24.138 9.083 24.135 9.055 24.129 9.031 24.117 9.009 24.1 8.992 24.08 8.977 24.056 8.967 24.03 8.96 24 8.958 23.966 8.96 23.925 8.964 23.888 8.974 23.856 8.987 23.829 9.005 23.806 9.025 23.788 9.051 23.775 9.079 23.768 9.111 23.765 9.137 23.766 9.16 23.771 9.18 23.777 9.199 23.788 9.215 23.8 9.228 23.815 9.24 23.833 9.247 23.855 9.253 23.879 9.519 23.879 9.519 23.87 9.512 23.818 9.496 23.771 9.468 23.731 9.43 23.695 9.384 23.664 9.327 23.638 9.263 23.62 9.192 23.609 9.115 23.606 9.032 23.609 8.96 23.621 8.897 23.641 8.843 23.669 8.8 23.705 8.765 23.751 8.737 23.804 8.718 23.868 8.708 23.942 8.695 23.928 8.679 23.916 8.663 23.905 8.647 23.894 8.63 23.885 8.612 23.878 8.596 23.871 8.579 23.867 8.563 23.865 8.464 23.856 8.319 23.855 8.298 23.853 8.281 23.85 8.266 23.847 8.252 23.841 8.24 23.833 8.231 23.826 8.226 23.817 8.221 23.806 8.221 23.794 8.221 23.78 8.226 23.768 8.231 23.759 8.242 23.75 8.253 23.742 8.266 23.736 8.282 23.733 8.301 23.731 8.323 23.73 8.346 23.731 8.367 23.734 8.384 23.739 8.399 23.746 8.41 23.757 8.419 23.771 8.425 23.786 8.429 23.804 8.429 23.826 8.708 23.826 8.708 23.818 8.704 23.774 8.689 23.736 8.664 23.704 8.632 23.675 8.59 23.65 8.539 23.632 8.48 23.618 8.413 23.611 8.339 23.608 8.256 23.611 8.182 23.618 8.118 23.632 8.066 23.65 8.022 23.675 7.987 23.704 7.964 23.739 7.95 23.78 7.945 23.826 7.948 23.867 7.958 23.902 7.976 23.932 8 23.96 8.031 23.981 8.069 23.998 8.114 24.013 8.164 24.021 8.221 24.024 8.33 24.027 8.355 24.028 8.377 24.032 8.394 24.036 8.41 24.041 8.423 24.047 8.432 24.056 8.439 24.067 8.444 24.077 8.445 24.091 8.442 24.103 8.438 24.114 8.429 24.125 8.419 24.135 8.407 24.143 8.393 24.15 8.377 24.155 8.359 24.158 8.343 24.161 8.314 24.158 8.288 24.155 8.266 24.149 8.247 24.143 8.233 24.132 8.221 24.12 8.211 24.106 8.207 24.088 8.205 24.071 7.916 24.071 7.916 24.077 7.921 24.121 7.937 24.161 7.964 24.198 8 24.228 8.045 24.253 8.101 24.271 8.164 24.286 8.239 24.295 8.321 24.297 8.4 24.295 8.471 24.289 8.532 24.278 8.586 24.263 8.631 24.242 8.667 24.217 8.698 24.187 8.721 24.152 8.737 24.111 8.765 24.155 8.795 24.19 8.829 24.222 8.865 24.246 8.907 24.266 8.954 24.28 9.005 24.292 9.063 24.297 9.127 24.3 9.169 24.298 9.205 24.297 9.24 24.292 9.271 24.286 9.3 24.278 9.327 24.268 9.355 24.254 9.381 24.239 9.409 24.219 9.382 24.286 9.628 24.286 9.673 24.184 9.996 24.184 10.038 24.285 10.46 24.285 10.46 23.896 10.759 24.286 11.057 24.286 11.057 23.629 10.813 23.629z"/>
    <path stroke-width="0.13" stroke-linecap="butt" fill="#000000" d="M11.941 23.629L11.753 23.629 11.752 23.804 11.849 24.021 11.663 24.021 11.752 23.804 11.753 23.629 11.563 23.629 11.365 24.118 11.365 23.629 11.111 23.629 11.111 24.286 11.556 24.286 11.596 24.187 11.913 24.187 11.958 24.286 12.208 24.286 11.941 23.629z"/>
   </g>
   <path stroke-width="0.3" d="M15.957 34.134C15.983 36.664 15.226 38.395 13.926 39.838C13.609 40.191 13.288 40.67 12.931 41.198C12.189 42.298 11.303 43.6 10.048 44.5C9.493 44.898 8.868 45.219 8.153 45.414C6.086 45.976 4.508 46.694 3.496 47.792C3.077 48.249 2.758 48.77 2.544 49.372C1.79 51.5 1.104 65.98 3.575 71.4C4.504 73.442 5.833 75.903 7.581 78.302"/>
   <path stroke-width="0.3" d="M15.314 34.142C15.336 36.475 14.647 38.076 13.448 39.406C13.114 39.78 12.772 40.281 12.397 40.838C11.693 41.881 10.862 43.124 9.673 43.978C9.179 44.332 8.621 44.618 7.984 44.792C5.777 45.395 4.102 46.183 3.023 47.357C2.546 47.877 2.181 48.47 1.938 49.158C1.167 51.332 0.465 66.128 2.988 71.668C3.93 73.731 5.27 76.215 7.033 78.64"/>
   <line stroke-width="0.3" x1="25.303" y1="70.073" x2="23.35" y2="71.257"/>
   <line stroke-width="0.3" x1="25.126" y1="68.829" x2="21.69" y2="68.771"/>
   <line stroke-width="0.3" x1="25.007" y1="67.822" x2="23.646" y2="67.349"/>
   <line stroke-width="0.3" x1="25.541" y1="66.105" x2="22.757" y2="64.09"/>
   <line stroke-width="0.3" x1="26.667" y1="65.334" x2="25.481" y2="64.031"/>
   <line stroke-width="0.3" x1="31.405" y1="70.073" x2="33.359" y2="71.257"/>
   <line stroke-width="0.3" x1="31.582" y1="68.829" x2="35.018" y2="68.771"/>
   <line stroke-width="0.3" x1="31.701" y1="67.822" x2="33.064" y2="67.349"/>
   <line stroke-width="0.3" x1="31.167" y1="66.105" x2="33.951" y2="64.09"/>
   <line stroke-width="0.3" x1="30.042" y1="65.334" x2="31.227" y2="64.031"/>
   <line stroke-width="0.3" x1="28.207" y1="65.039" x2="28.207" y2="61.307"/>
   <line stroke-width="0.13" x1="26.777" y1="47.808" x2="26.236" y2="47.941"/>
   <line stroke-width="0.13" x1="26.91" y1="47.106" x2="26.396" y2="46.725"/>
   <line stroke-width="0.13" x1="27.657" y1="46.68" x2="27.393" y2="46.051"/>
   <line stroke-width="0.13" x1="30.015" y1="47.808" x2="30.556" y2="47.941"/>
   <line stroke-width="0.13" x1="29.882" y1="47.106" x2="30.396" y2="46.725"/>
   <line stroke-width="0.13" x1="29.135" y1="46.68" x2="29.399" y2="46.051"/>
   <line stroke-width="0.13" x1="28.375" y1="46.667" x2="28.375" y2="45.845"/>
   <path stroke-width="0.3" d="M19.626 34.914C19.542 35.692 19.489 36.756 19.725 37.628C19.823 37.987 19.969 38.332 20.187 38.646C20.498 39.095 20.951 39.481 21.602 39.758C23.202 40.436 25.637 40.466 27.571 39.723C28.382 39.411 29.108 38.963 29.638 38.362C30.135 37.796 31.062 37.283 32.139 36.954C33.192 36.631 34.387 36.479 35.441 36.609C35.985 36.676 36.493 36.817 36.926 37.045C37.381 37.281 37.758 37.612 38.021 38.048C38.279 38.478 38.427 39.012 38.42 39.667C38.414 40.286 38.265 41.018 37.936 41.875"/>
   <path stroke-width="0.3" d="M19.047 34.738C18.955 35.585 18.862 36.841 19.121 37.793C19.236 38.218 19.414 38.628 19.672 39.003C20.042 39.539 20.58 40.005 21.356 40.334C23.083 41.067 25.708 41.109 27.795 40.307C28.705 39.959 29.513 39.45 30.108 38.776C30.545 38.277 31.373 37.843 32.322 37.551C33.292 37.255 34.393 37.112 35.363 37.231C35.831 37.287 36.265 37.405 36.637 37.6C36.988 37.783 37.281 38.034 37.484 38.371C37.689 38.713 37.799 39.14 37.795 39.659C37.787 40.218 37.649 40.877 37.35 41.651"/>
   <line stroke-width="0.3" x1="36.018" y1="73.998" x2="36.274" y2="74.111"/>
   <line stroke-width="0.3" x1="36.274" y1="74.111" x2="38.061" y2="70.875"/>
   <line stroke-width="0.3" x1="38.061" y1="70.875" x2="38.524" y2="71.081"/>
   <line stroke-width="0.3" x1="38.524" y1="71.081" x2="38.594" y2="70.927"/>
   <line stroke-width="0.3" x1="38.594" y1="70.927" x2="38.152" y2="70.73"/>
   <line stroke-width="0.3" x1="38.152" y1="70.73" x2="40.862" y2="64.641"/>
   <line stroke-width="0.3" x1="40.862" y1="64.641" x2="40.289" y2="64.387"/>
   <line stroke-width="0.3" x1="40.567" y1="64.536" x2="41.18" y2="63.039"/>
   <path stroke-width="0.3" d="M41.18 63.039C41.597 63.171 41.862 62.814 41.628 62.683C41.396 62.554 41.119 62.404 41.119 62.404"/>
   <line stroke-width="0.3" x1="36.005" y1="73.992" x2="35.75" y2="73.879"/>
   <line stroke-width="0.3" x1="35.75" y1="73.879" x2="36.959" y2="70.384"/>
   <line stroke-width="0.3" x1="36.959" y1="70.384" x2="36.494" y2="70.177"/>
   <line stroke-width="0.3" x1="36.494" y1="70.177" x2="36.564" y2="70.022"/>
   <line stroke-width="0.3" x1="36.564" y1="70.022" x2="37.005" y2="70.219"/>
   <line stroke-width="0.3" x1="37.005" y1="70.219" x2="39.716" y2="64.131"/>
   <line stroke-width="0.3" x1="39.716" y1="64.131" x2="40.289" y2="64.387"/>
   <line stroke-width="0.3" x1="39.993" y1="64.281" x2="40.695" y2="62.823"/>
   <path stroke-width="0.3" d="M40.695 62.823C40.317 62.601 40.405 62.165 40.658 62.252C40.911 62.338 41.207 62.442 41.207 62.442"/>
   <line stroke-width="0.5" x1="36.005" y1="73.992" x2="35.725" y2="74.618"/>
   <path stroke-width="0.3" d="M41.531 62.584L41.908 61.715L41.908 61.716C42.529 60.307 43.293 58.558 43.53 56.856C43.637 56.097 43.639 55.347 43.485 54.637C43.478 54.598 43.469 54.561 43.46 54.523"/>
   <path stroke-width="0.3" d="M43.048 53.433C42.741 52.862 42.295 52.332 41.67 51.865C40.337 50.871 39.039 50.219 37.953 49.676C37.085 49.243 36.359 48.886 35.878 48.46C35.701 48.302 35.56 48.137 35.466 47.951C35.337 47.692 35.302 47.396 35.371 47.037C35.662 45.518 36.54 44.218 37.164 43.284C37.512 42.762 37.844 42.165 37.936 41.875"/>
   <path stroke-width="0.3" d="M40.884 62.301L41.262 61.432C41.859 60.076 42.603 58.396 42.831 56.758C42.924 56.084 42.93 55.417 42.795 54.786C42.781 54.726 42.768 54.667 42.753 54.609"/>
   <path stroke-width="0.3" d="M42.296 53.548C42.043 53.146 41.7 52.77 41.247 52.432C39.953 51.466 38.692 50.837 37.637 50.308C36.704 49.843 35.926 49.448 35.409 48.99C35.159 48.768 34.966 48.53 34.834 48.268C34.64 47.883 34.575 47.442 34.677 46.905C34.988 45.283 35.911 43.887 36.576 42.893C36.875 42.442 37.25 41.951 37.329 41.703"/>
   <g>
    <line stroke-width="0.3" x1="51.256" y1="78.492" x2="51.125" y2="78.245"/>
    <line stroke-width="0.3" x1="51.125" y1="78.245" x2="47.722" y2="79.695"/>
    <line stroke-width="0.3" x1="47.722" y1="79.695" x2="47.484" y2="79.248"/>
    <line stroke-width="0.3" x1="47.484" y1="79.248" x2="47.335" y2="79.326"/>
    <line stroke-width="0.3" x1="47.335" y1="79.326" x2="47.561" y2="79.754"/>
    <line stroke-width="0.3" x1="47.561" y1="79.754" x2="41.677" y2="82.882"/>
    <line stroke-width="0.3" x1="41.677" y1="82.882" x2="41.972" y2="83.436"/>
    <line stroke-width="0.3" x1="41.847" y1="83.147" x2="40.441" y2="83.95"/>
    <path stroke-width="0.3" d="M40.441 83.95C40.194 83.588 39.765 83.707 39.868 83.953C39.972 84.2 40.097 84.487 40.097 84.487"/>
    <line stroke-width="0.3" x1="51.262" y1="78.506" x2="51.393" y2="78.751"/>
    <line stroke-width="0.3" x1="51.393" y1="78.751" x2="48.289" y2="80.762"/>
    <line stroke-width="0.3" x1="48.289" y1="80.762" x2="48.527" y2="81.209"/>
    <line stroke-width="0.3" x1="48.527" y1="81.209" x2="48.378" y2="81.289"/>
    <line stroke-width="0.3" x1="48.378" y1="81.289" x2="48.152" y2="80.861"/>
    <line stroke-width="0.3" x1="48.152" y1="80.861" x2="42.267" y2="83.99"/>
    <line stroke-width="0.3" x1="42.267" y1="83.99" x2="41.972" y2="83.436"/>
    <line stroke-width="0.3" x1="42.14" y1="83.703" x2="40.689" y2="84.42"/>
    <path stroke-width="0.3" d="M40.689 84.42C40.851 84.825 40.512 85.114 40.366 84.891C40.22 84.668 40.051 84.403 40.051 84.403"/>
    <line stroke-width="0.5" x1="51.262" y1="78.506" x2="51.868" y2="78.183"/>
   </g>
   <path stroke-width="0.3" d="M40.176 84.713C36.069 86.34 23.528 86.138 14.964 83.429C11.23 82.248 8.195 80.682 6.939 78.521"/>
   <path stroke-width="0.3" d="M39.929 84.091C35.896 85.688 23.579 85.451 15.166 82.79C11.621 81.67 8.774 80.353 7.581 78.302"/>
  </g>
 </g>
</svg>
