<?xml version="1.0" encoding="utf-8"?>
<!DOCTYPE svg PUBLIC "-//W3C//DTD SVG 1.1//EN" "http://www.w3.org/Graphics/SVG/1.1/DTD/svg11.dtd">
<!-- Generator: PTC Arbortext IsoDraw 7.3 -->
<svg id="Standard_x0020_layer" width="100%" height="100%" viewBox="0 0 75 28.667"
 xmlns="http://www.w3.org/2000/svg" xmlns:xlink="http://www.w3.org/1999/xlink"
 fill-rule="evenodd" clip-rule="evenodd" stroke="#000000" stroke-linecap="round" fill="none" xml:space="preserve">
 <g>
  <g>
   <path stroke-width="0.349" stroke-linejoin="round" stroke-miterlimit="10" d="M5.485 3.642C4.971 3.79 4.543 3.956 4.062 4.197C3.633 4.413 3.272 4.806 2.94 5.144C2.256 5.847 1.891 6.751 1.565 7.658"/>
   <path stroke-width="0.349" stroke-linejoin="round" stroke-miterlimit="10" d="M1.463 16.286C1.741 16.876 2.04 17.333 2.491 17.806C2.891 18.225 3.49 18.407 4.028 18.55"/>
   <path stroke-width="0.349" stroke-linejoin="round" stroke-miterlimit="10" d="M25.414 23.129C26.004 23.269 26.525 23.216 27.117 23.111"/>
  </g>
  <path stroke-width="0.131" stroke-linejoin="round" stroke-miterlimit="10" d="M22.353 19.707C22.571 20.429 22.815 21.262 23.359 21.821C23.957 22.44 24.559 22.926 25.413 23.132"/>
  <path stroke-width="0.25" stroke-linejoin="round" stroke-miterlimit="10" d="M23.408 20.109C23.736 21.045 24.243 21.893 25.228 22.24"/>
  <path stroke-width="0.131" stroke-linejoin="round" stroke-miterlimit="10" d="M25.227 22.234C25.807 22.439 26.332 22.371 26.914 22.21"/>
  <path stroke-width="0.349" stroke-linejoin="round" stroke-miterlimit="10" d="M30.439 22.26C31.536 21.05 32.177 19.635 32.226 17.989"/>
  <path stroke-width="0.131" stroke-linejoin="round" stroke-miterlimit="10" d="M29.824 21.765C31.025 20.783 31.536 19.48 31.536 17.943"/>
  <path stroke-width="0.25" stroke-linejoin="round" stroke-miterlimit="10" d="M28.594 6.836C27.667 6.687 26.682 6.814 25.902 7.379C25.025 8.012 24.492 8.755 24.013 9.714"/>
  <path stroke-width="0.131" stroke-linejoin="round" stroke-miterlimit="10" d="M31.442 9.362C30.859 8.217 29.977 7.027 28.597 6.844"/>
  <path stroke-width="0.349" stroke-linejoin="round" stroke-miterlimit="10" d="M32.337 9.215C31.905 8.317 31.408 7.315 30.541 6.746C30.32 6.602 30.079 6.383 29.833 6.285C29.554 6.176 29.275 6.065 28.996 5.955C28.539 5.775 27.963 5.812 27.484 5.833"/>
  <path stroke-width="0.131" stroke-linejoin="round" stroke-miterlimit="10" d="M27.486 5.835C26.457 5.884 25.422 6.407 24.66 7.084C23.852 7.802 23.361 8.711 22.902 9.669"/>
  <path stroke-width="0.349" stroke-linejoin="round" stroke-miterlimit="10" d="M17.728 4.846C17.298 4.974 16.923 5.094 16.528 5.304"/>
  <path stroke-width="0.201" stroke-linejoin="round" stroke-miterlimit="10" d="M16.525 5.299C15.01 6.083 14.223 7.551 13.711 9.106"/>
  <path stroke-width="0.349" stroke-linejoin="round" stroke-miterlimit="10" d="M14.348 20.216C14.619 20.542 14.89 20.859 15.24 21.108C15.609 21.37 16.012 21.518 16.431 21.673"/>
  <path stroke-width="0.201" stroke-linejoin="round" stroke-miterlimit="10" d="M13.412 18.05C13.592 18.76 13.798 19.67 14.339 20.21"/>
  <path stroke-width="0.131" stroke-linejoin="round" stroke-miterlimit="10" d="M28.074 11.221C27.719 11.887 27.379 12.544 27.181 13.276C26.969 14.057 26.849 14.818 26.809 15.627C26.737 17.088 27.076 18.678 27.826 19.942C27.925 20.111 28.027 20.282 28.129 20.452"/>
  <g>
   <path stroke-width="0.349" stroke-linejoin="round" stroke-miterlimit="10" d="M39.969 10.365C40.594 11.6 41.134 12.964 41.124 14.378C41.118 15.101 41.112 15.811 40.984 16.525C40.856 17.243 40.616 17.916 40.374 18.6"/>
   <path stroke-width="0.349" stroke-linejoin="round" stroke-miterlimit="10" d="M27.673 5.754L17.728 4.846"/>
   <path stroke-width="0.349" stroke-linejoin="round" stroke-miterlimit="10" d="M16.727 5.152L5.485 3.642"/>
   <path stroke-width="0.349" stroke-linejoin="round" stroke-miterlimit="10" d="M1.571 7.652L1.463 16.286"/>
  </g>
  <g>
   <path stroke-width="0.131" stroke-linejoin="round" stroke-miterlimit="10" d="M1.463 16.286L11.153 17.435"/>
   <path stroke-width="0.131" stroke-linejoin="round" stroke-miterlimit="10" d="M2.719 7.759L11.901 8.615"/>
  </g>
  <g>
   <path stroke-width="0.201" stroke-linejoin="round" stroke-miterlimit="10" d="M13.72 9.108L13.17 9.509"/>
   <path stroke-width="0.201" stroke-linejoin="round" stroke-miterlimit="10" d="M13.17 9.509L12.917 12.223"/>
   <path stroke-width="0.201" stroke-linejoin="round" stroke-miterlimit="10" d="M12.917 12.223L13.625 12.824"/>
  </g>
  <path stroke-width="0.25" stroke-linejoin="round" stroke-miterlimit="10" d="M16.727 13.159L24.571 13.987"/>
  <path stroke-width="0.131" stroke-linejoin="round" stroke-miterlimit="10" d="M24.585 13.974L24.611 13.974"/>
  <path stroke-width="0.201" stroke-linejoin="round" stroke-miterlimit="10" d="M13.612 12.824L16.727 13.144"/>
  <path stroke-width="0.25" stroke-linejoin="round" stroke-miterlimit="10" d="M24.611 13.987L24.464 16.794"/>
  <path stroke-width="0.131" stroke-linejoin="round" stroke-miterlimit="10" d="M24.464 16.794L13.118 15.484"/>
  <g>
   <path stroke-width="0.201" stroke-linejoin="round" stroke-miterlimit="10" d="M13.118 15.484L13.17 17.341"/>
   <path stroke-width="0.201" stroke-linejoin="round" stroke-miterlimit="10" d="M13.17 17.341L14.173 18.397"/>
  </g>
  <path stroke-width="0.25" stroke-linejoin="round" stroke-miterlimit="10" d="M22.14 19.574L28.1 20.455"/>
  <g>
   <path stroke-width="0.131" stroke-linejoin="round" stroke-miterlimit="10" d="M28.1 20.455L28.126 20.455"/>
   <path stroke-width="0.131" stroke-linejoin="round" stroke-miterlimit="10" d="M14.173 18.397L22.14 19.574"/>
   <path stroke-width="0.131" stroke-linejoin="round" stroke-miterlimit="10" d="M28.074 11.221L13.72 9.763"/>
  </g>
  <path stroke-width="0.25" stroke-linejoin="round" stroke-miterlimit="10" d="M22.847 10.098L29.329 10.779"/>
  <path stroke-width="0.131" stroke-linejoin="round" stroke-miterlimit="10" d="M13.919 9.163L22.847 10.098"/>
  <g>
   <path stroke-width="0.25" stroke-linejoin="round" stroke-miterlimit="10" d="M29.329 10.766L29.275 14.028"/>
   <path stroke-width="0.25" stroke-linejoin="round" stroke-miterlimit="10" d="M29.275 14.028L29.222 20.256"/>
   <path stroke-width="0.25" stroke-linejoin="round" stroke-miterlimit="10" d="M29.222 20.256L28.114 20.455"/>
  </g>
  <path stroke-width="0.131" stroke-linejoin="round" stroke-miterlimit="10" d="M29.329 10.766L28.074 11.221"/>
  <g>
   <path stroke-width="0.349" stroke-linejoin="round" stroke-miterlimit="10" d="M39.969 10.365L39.768 9.91"/>
   <path stroke-width="0.349" stroke-linejoin="round" stroke-miterlimit="10" d="M39.768 9.91L32.337 9.202"/>
  </g>
  <g>
   <path stroke-width="0.131" stroke-linejoin="round" stroke-miterlimit="10" d="M31.442 9.362L31.641 9.711"/>
   <path stroke-width="0.131" stroke-linejoin="round" stroke-miterlimit="10" d="M31.641 9.711L39.06 10.419"/>
   <path stroke-width="0.131" stroke-linejoin="round" stroke-miterlimit="10" d="M39.06 10.419L39.112 19"/>
  </g>
  <g>
   <path stroke-width="0.349" stroke-linejoin="round" stroke-miterlimit="10" d="M39.112 19L40.369 18.599"/>
   <path stroke-width="0.349" stroke-linejoin="round" stroke-miterlimit="10" d="M39.112 19L31.588 17.943"/>
   <path stroke-width="0.349" stroke-linejoin="round" stroke-miterlimit="10" d="M27.125 23.115L27.178 22.26"/>
   <path stroke-width="0.349" stroke-linejoin="round" stroke-miterlimit="10" d="M30.439 22.26L29.838 22.714"/>
  </g>
  <path stroke-width="0.131" stroke-linejoin="round" stroke-miterlimit="10" d="M29.824 22.714L29.824 21.765"/>
  <path stroke-width="0.349" stroke-linejoin="round" stroke-miterlimit="10" d="M29.824 22.714L27.364 22.46"/>
  <path stroke-width="0.201" stroke-linejoin="round" stroke-miterlimit="10" d="M26.817 22.207L25.561 21.899"/>
  <g>
   <path stroke-width="0.349" stroke-linejoin="round" stroke-miterlimit="10" d="M16.432 21.658L25.667 23.169"/>
   <path stroke-width="0.349" stroke-linejoin="round" stroke-miterlimit="10" d="M4.03 18.545L14.268 20.349"/>
  </g>
  <g>
   <path stroke-width="0.25" stroke-linejoin="round" stroke-miterlimit="10" d="M17.033 13.532L17.033 15.284"/>
   <path stroke-width="0.25" stroke-linejoin="round" stroke-miterlimit="10" d="M17.033 15.284L24.263 15.884"/>
  </g>
  <path stroke-width="0.349" stroke-linejoin="round" stroke-miterlimit="10" d="M37.255 12.678L37.362 15.939"/>
  <path stroke-width="0.131" stroke-linejoin="round" stroke-miterlimit="10" d="M37.362 15.939L29.583 15.083"/>
  <path stroke-width="0.349" stroke-linejoin="round" stroke-miterlimit="10" d="M37.255 12.678L29.731 11.968"/>
  <g>
   <path stroke-width="0.25" stroke-linejoin="round" stroke-miterlimit="10" d="M37.456 15.137L29.971 14.227"/>
   <path stroke-width="0.25" stroke-linejoin="round" stroke-miterlimit="10" d="M29.984 14.227L29.984 12.076"/>
  </g>
  <path stroke-width="0.131" stroke-linejoin="round" stroke-miterlimit="10" d="M29.824 21.765L27.297 21.512"/>
  <path stroke-width="0.25" stroke-linejoin="round" stroke-miterlimit="10" d="M57.383 14.882C58.42 14.528 58.799 13.166 58.396 12.215C57.936 11.134 56.886 10.553 55.783 11.102"/>
  <path stroke-width="0.131" stroke-linejoin="round" stroke-miterlimit="10" d="M55.78 11.101C54.972 11.692 54.713 12.752 55.103 13.675C55.496 14.599 56.384 15.153 57.38 14.878"/>
  <path stroke-width="0.25" stroke-linejoin="round" stroke-miterlimit="10" d="M55.045 18.986C56.082 18.631 56.46 17.268 56.057 16.318C55.595 15.234 54.548 14.66 53.445 15.205"/>
  <path stroke-width="0.131" stroke-linejoin="round" stroke-miterlimit="10" d="M53.454 15.217C52.648 15.808 52.386 16.867 52.779 17.791C53.171 18.716 54.058 19.271 55.054 18.995"/>
  <path stroke-width="0.25" stroke-linejoin="round" stroke-miterlimit="10" d="M59.414 19.653C60.451 19.297 60.832 17.937 60.426 16.986C59.968 15.906 58.917 15.323 57.814 15.872"/>
  <path stroke-width="0.131" stroke-linejoin="round" stroke-miterlimit="10" d="M57.811 15.871C57.005 16.463 56.743 17.522 57.136 18.446C57.529 19.37 58.417 19.925 59.411 19.649"/>
  <path stroke-width="0.25" stroke-linejoin="round" stroke-miterlimit="10" d="M59.307 25.027C60.345 24.673 60.723 23.309 60.32 22.359C59.859 21.275 58.811 20.701 57.709 21.245"/>
  <path stroke-width="0.131" stroke-linejoin="round" stroke-miterlimit="10" d="M57.718 21.257C56.911 21.85 56.651 22.908 57.042 23.832C57.435 24.757 58.323 25.312 59.317 25.036"/>
  <path stroke-width="0.25" stroke-linejoin="round" stroke-miterlimit="10" d="M54.737 24.318C55.774 23.961 56.154 22.603 55.75 21.652C55.289 20.57 54.24 19.989 53.137 20.538"/>
  <path stroke-width="0.131" stroke-linejoin="round" stroke-miterlimit="10" d="M53.146 20.55C52.34 21.14 52.079 22.201 52.47 23.123C52.863 24.048 53.752 24.603 54.746 24.327"/>
  <path stroke-width="0.349" stroke-linejoin="round" stroke-miterlimit="10" d="M58.987 25.908C59.347 26.024 59.911 25.963 60.228 25.751"/>
  <g>
   <path stroke-width="0.131" stroke-linejoin="round" stroke-miterlimit="10" d="M60.229 25.762C61.121 25.295 61.411 24.378 61.411 23.429"/>
   <path stroke-width="0.131" stroke-linejoin="round" stroke-miterlimit="10" d="M58.773 25.856L58.987 25.908"/>
  </g>
  <g>
   <path stroke-width="0.349" stroke-linejoin="round" stroke-miterlimit="10" d="M71.108 22.914C72.206 22.649 72.757 21.861 72.938 20.78"/>
   <path stroke-width="0.349" stroke-linejoin="round" stroke-miterlimit="10" d="M72.579 11.996C72.343 10.914 71.911 9.814 70.993 9.121C70.561 8.794 70.051 8.435 69.498 8.349C68.893 8.256 68.4 8.268 67.802 8.396"/>
  </g>
  <path stroke-width="0.131" stroke-linejoin="round" stroke-miterlimit="10" d="M58.212 9.871C59.109 10.044 60.03 10.441 60.579 11.22C61.189 12.086 61.487 12.928 61.557 13.986"/>
  <path stroke-width="0.349" stroke-linejoin="round" stroke-miterlimit="10" d="M67.808 8.4L54.764 9.617"/>
  <path stroke-width="0.131" stroke-linejoin="round" stroke-miterlimit="10" d="M58.212 9.871L54.764 9.617"/>
  <path stroke-width="0.349" stroke-linejoin="round" stroke-miterlimit="10" d="M59.106 25.936L52.878 24.986"/>
  <path stroke-width="0.131" stroke-linejoin="round" stroke-miterlimit="10" d="M61.567 13.974L61.42 23.422"/>
  <g>
   <path stroke-width="0.349" stroke-linejoin="round" stroke-miterlimit="10" d="M51.81 13.627L51.81 22.568"/>
   <path stroke-width="0.349" stroke-linejoin="round" stroke-miterlimit="10" d="M54.764 9.617C53.89 9.961 53.232 10.394 52.671 11.159C52.13 11.897 51.944 12.742 51.825 13.631"/>
   <path stroke-width="0.349" stroke-linejoin="round" stroke-miterlimit="10" d="M52.878 25C52.079 24.405 51.728 23.556 51.814 22.568"/>
   <path stroke-width="0.349" stroke-linejoin="round" stroke-miterlimit="10" d="M71.108 22.914L60.137 25.856"/>
   <path stroke-width="0.349" stroke-linejoin="round" stroke-miterlimit="10" d="M72.939 20.777L72.579 11.996"/>
  </g>
  <g>
   <path stroke-width="0.25" stroke-linejoin="round" stroke-miterlimit="10" d="M64.412 18.704L67.206 18.759"/>
   <path stroke-width="0.25" stroke-linejoin="round" stroke-miterlimit="10" d="M67.192 18.759L70.841 17.783"/>
  </g>
  <g>
   <path stroke-width="0.131" stroke-linejoin="round" stroke-miterlimit="10" d="M64.412 17.128L67.206 17.181"/>
   <path stroke-width="0.131" stroke-linejoin="round" stroke-miterlimit="10" d="M67.192 17.181L70.841 16.205"/>
  </g>
  <g>
   <path stroke-width="0.25" stroke-linejoin="round" stroke-miterlimit="10" d="M70.855 17.769L70.855 16.193"/>
   <path stroke-width="0.25" stroke-linejoin="round" stroke-miterlimit="10" d="M70.855 16.193L68.983 16.152"/>
  </g>
  <path stroke-width="0.131" stroke-linejoin="round" stroke-miterlimit="10" d="M68.971 16.166L64.293 16.981"/>
 </g>
</svg>
