<?xml version="1.0" encoding="utf-8"?>
<!DOCTYPE svg PUBLIC "-//W3C//DTD SVG 1.1//EN" "http://www.w3.org/Graphics/SVG/1.1/DTD/svg11.dtd">
<!-- Generator: PTC Arbortext IsoDraw 7.3 -->
<svg id="Standard_x0020_layer" width="100%" height="100%" viewBox="0 0 75 74.117"
 xmlns="http://www.w3.org/2000/svg" xmlns:xlink="http://www.w3.org/1999/xlink"
 fill-rule="evenodd" clip-rule="evenodd" stroke="#000000" stroke-linecap="round" fill="none" xml:space="preserve">
 <g>
  <path stroke-width="0.25" stroke-linejoin="round" d="M24.803 23.655C24.803 26.298 22.661 28.44 20.018 28.44C17.376 28.44 15.234 26.298 15.234 23.655C15.234 21.013 17.376 18.871 20.018 18.871C22.661 18.871 24.803 21.013 24.803 23.655z"/>
  <path stroke-width="0.25" stroke-linejoin="round" d="M24.803 51.429C24.803 54.07 22.661 56.213 20.018 56.213C17.376 56.213 15.234 54.07 15.234 51.429C15.234 48.786 17.376 46.643 20.018 46.643C22.661 46.643 24.803 48.786 24.803 51.429z"/>
  <path stroke-width="0.25" stroke-linejoin="round" d="M24.803 37.542C24.803 40.185 22.661 42.326 20.018 42.326C17.376 42.326 15.234 40.185 15.234 37.542C15.234 34.901 17.376 32.759 20.018 32.759C22.661 32.759 24.803 34.901 24.803 37.542z"/>
  <path stroke-width="0.13" stroke-linejoin="round" d="M25.96 37.542C25.96 40.825 23.3 43.484 20.018 43.484C16.736 43.484 14.076 40.825 14.076 37.542C14.076 34.261 16.736 31.6 20.018 31.6C23.3 31.6 25.96 34.261 25.96 37.542z"/>
  <path stroke-width="0.13" stroke-linejoin="round" d="M25.96 51.429C25.96 54.71 23.3 57.371 20.018 57.371C16.736 57.371 14.076 54.71 14.076 51.429C14.076 48.146 16.736 45.487 20.018 45.487C23.3 45.487 25.96 48.146 25.96 51.429z"/>
  <path stroke-width="0.25" stroke-linejoin="round" d="M5.485 24.507L5.485 49.533"/>
  <path stroke-width="0.25" stroke-linejoin="round" d="M8.691 32.179L8.691 41.75"/>
  <path stroke-width="0.25" stroke-linejoin="round" d="M5.543 32.149L12.582 32.149"/>
  <path stroke-width="0.25" stroke-linejoin="round" d="M5.543 41.899L12.582 41.899"/>
  <path stroke-width="0.25" stroke-linejoin="round" d="M44.375 23.655C44.375 26.298 46.517 28.44 49.159 28.44C51.801 28.44 53.944 26.298 53.944 23.655C53.944 21.013 51.801 18.871 49.159 18.871C46.517 18.871 44.375 21.013 44.375 23.655z"/>
  <path stroke-width="0.25" stroke-linejoin="round" d="M44.375 51.429C44.375 54.07 46.517 56.213 49.159 56.213C51.801 56.213 53.944 54.07 53.944 51.429C53.944 48.786 51.801 46.643 49.159 46.643C46.517 46.643 44.375 48.786 44.375 51.429z"/>
  <path stroke-width="0.13" stroke-linejoin="round" d="M25.96 23.655C25.96 26.937 23.3 29.597 20.018 29.597C16.736 29.597 14.076 26.937 14.076 23.655C14.076 20.373 16.736 17.713 20.018 17.713C23.3 17.713 25.96 20.373 25.96 23.655z"/>
  <path stroke-width="0.13" stroke-linejoin="round" d="M43.218 23.655C43.218 26.937 45.878 29.597 49.159 29.597C52.442 29.597 55.101 26.937 55.101 23.655C55.101 20.373 52.442 17.713 49.159 17.713C45.878 17.713 43.218 20.373 43.218 23.655z"/>
  <path stroke-width="0.25" stroke-linejoin="round" d="M44.375 37.542C44.375 40.185 46.517 42.326 49.159 42.326C51.801 42.326 53.944 40.185 53.944 37.542C53.944 34.901 51.801 32.759 49.159 32.759C46.517 32.759 44.375 34.901 44.375 37.542z"/>
  <path stroke-width="0.13" stroke-linejoin="round" d="M43.218 37.542C43.218 40.825 45.878 43.484 49.159 43.484C52.442 43.484 55.101 40.825 55.101 37.542C55.101 34.261 52.442 31.6 49.159 31.6C45.878 31.6 43.218 34.261 43.218 37.542z"/>
  <path stroke-width="0.13" stroke-linejoin="round" d="M43.218 51.429C43.218 54.71 45.878 57.371 49.159 57.371C52.442 57.371 55.101 54.71 55.101 51.429C55.101 48.146 52.442 45.487 49.159 45.487C45.878 45.487 43.218 48.146 43.218 51.429z"/>
  <path stroke-width="0.25" stroke-linejoin="round" d="M29.803 23.655C29.803 26.298 31.946 28.44 34.588 28.44C37.231 28.44 39.372 26.298 39.372 23.655C39.372 21.013 37.231 18.871 34.588 18.871C31.946 18.871 29.803 21.013 29.803 23.655z"/>
  <path stroke-width="0.25" stroke-linejoin="round" d="M29.803 51.429C29.803 54.07 31.946 56.213 34.588 56.213C37.231 56.213 39.372 54.07 39.372 51.429C39.372 48.786 37.231 46.643 34.588 46.643C31.946 46.643 29.803 48.786 29.803 51.429z"/>
  <path stroke-width="0.13" stroke-linejoin="round" d="M28.646 23.655C28.646 26.937 31.306 29.597 34.588 29.597C37.871 29.597 40.53 26.937 40.53 23.655C40.53 20.373 37.871 17.713 34.588 17.713C31.306 17.713 28.646 20.373 28.646 23.655z"/>
  <path stroke-width="0.25" stroke-linejoin="round" d="M29.803 37.542C29.803 40.185 31.946 42.326 34.588 42.326C37.231 42.326 39.372 40.185 39.372 37.542C39.372 34.901 37.231 32.759 34.588 32.759C31.946 32.759 29.803 34.901 29.803 37.542z"/>
  <path stroke-width="0.13" stroke-linejoin="round" d="M28.646 37.542C28.646 40.825 31.306 43.484 34.588 43.484C37.871 43.484 40.53 40.825 40.53 37.542C40.53 34.261 37.871 31.6 34.588 31.6C31.306 31.6 28.646 34.261 28.646 37.542z"/>
  <path stroke-width="0.13" stroke-linejoin="round" d="M28.646 51.429C28.646 54.71 31.306 57.371 34.588 57.371C37.871 57.371 40.53 54.71 40.53 51.429C40.53 48.146 37.871 45.487 34.588 45.487C31.306 45.487 28.646 48.146 28.646 51.429z"/>
  <path stroke-width="0.349" stroke-linejoin="round" d="M56.573 24.457L56.573 23.655C56.573 23.207 56.533 22.768 56.457 22.343"/>
  <path stroke-width="0.25" stroke-linejoin="round" d="M12.65 24.463L12.65 57.436C12.65 58.49 13.212 59.543 14.31 59.543L54.868 59.543C55.965 59.543 56.527 58.49 56.527 57.436L56.527 24.457"/>
  <path stroke-width="0.349" stroke-linejoin="round" d="M12.725 22.317C12.646 22.751 12.605 23.199 12.605 23.655L12.605 24.463"/>
  <path stroke-width="0.25" stroke-linejoin="round" d="M56.411 22.343C55.79 18.899 52.78 16.289 49.159 16.289L20.018 16.289C16.407 16.289 13.401 18.887 12.772 22.317"/>
  <path stroke-width="0.349" stroke-linejoin="round" d="M56.491 22.312C56.491 22.312 62.726 22.312 62.99 22.312C63.253 22.312 63.21 22.047 63.21 22.047L63.21 20.51C63.21 20.51 63.253 20.248 62.99 20.248C62.726 20.248 59.564 20.248 59.564 20.248C58.133 15.871 54.015 12.71 49.159 12.71C46.362 12.71 43.814 13.766 41.878 15.493C39.944 13.759 37.392 12.71 34.588 12.71C31.792 12.71 29.24 13.76 27.306 15.489C25.371 13.759 22.818 12.71 20.018 12.71C15.163 12.71 11.045 15.871 9.612 20.248C9.612 20.248 6.45 20.248 6.187 20.248C5.924 20.248 5.968 20.51 5.968 20.51L5.968 22.047C5.968 22.047 5.924 22.312 6.187 22.312C6.45 22.312 12.686 22.312 12.686 22.312"/>
  <path stroke-width="0.25" stroke-linejoin="round" d="M63.692 24.507L63.692 49.533"/>
  <path stroke-width="0.25" stroke-linejoin="round" d="M60.487 32.179L60.487 41.75"/>
  <path stroke-width="0.25" stroke-linejoin="round" d="M63.634 32.149L56.595 32.149"/>
  <path stroke-width="0.25" stroke-linejoin="round" d="M63.634 41.899L56.595 41.899"/>
  <path stroke-width="0.349" stroke-linejoin="round" d="M56.624 24.463C56.624 24.463 65.799 24.463 66.152 24.463C66.503 24.463 66.546 24.727 66.546 24.989L66.546 49.051C66.546 49.314 66.503 49.578 66.152 49.578C65.799 49.578 56.573 49.578 56.573 49.578L56.575 51.246C56.575 51.246 62.726 51.246 62.99 51.246C63.253 51.246 63.21 51.509 63.21 51.509L63.21 53.046C63.21 53.046 63.253 53.31 62.99 53.31C62.726 53.31 60.268 53.31 60.268 53.31C60.048 53.31 59.917 53.398 59.917 53.704C59.917 54.012 59.917 59.061 59.917 60.29C59.917 61.521 59.213 62.485 57.722 62.485L11.457 62.485C9.964 62.485 9.26 61.521 9.26 60.29C9.26 59.061 9.26 54.012 9.26 53.704C9.26 53.398 9.13 53.31 8.91 53.31C8.91 53.31 6.45 53.31 6.187 53.31C5.924 53.31 5.968 53.046 5.968 53.046L5.968 51.509C5.968 51.509 5.924 51.246 6.187 51.246C6.45 51.246 12.602 51.246 12.602 51.246L12.605 49.578C12.605 49.578 3.378 49.578 3.027 49.578C2.674 49.578 2.632 49.314 2.632 49.051L2.632 24.989C2.632 24.727 2.674 24.463 3.027 24.463C3.378 24.463 12.554 24.463 12.554 24.463"/>
 </g>
 <g>
  <text x="47.997" y="72.362" stroke="none" fill="#000000" font-family="'Arial'" font-size="4.924">9</text>
 </g>
 <g>
  <text x="33.406" y="72.362" stroke="none" fill="#000000" font-family="'Arial'" font-size="4.924">8</text>
 </g>
 <g>
  <text x="18.798" y="72.362" stroke="none" fill="#000000" font-family="'Arial'" font-size="4.924">7</text>
 </g>
 <g>
  <text x="3.487" y="67.049" stroke="none" fill="#000000" font-family="'Arial'" font-size="4.924">4</text>
 </g>
 <g>
  <text x="62.991" y="67.049" stroke="none" fill="#000000" font-family="'Arial'" font-size="4.924">6</text>
 </g>
 <g>
  <text x="70.4" y="39.179" stroke="none" fill="#000000" font-family="'Arial'" font-size="4.924">5</text>
 </g>
 <g>
  <text x="47.997" y="6.051" stroke="none" fill="#000000" font-family="'Arial'" font-size="4.924">3</text>
 </g>
 <g>
  <text x="33.406" y="6.051" stroke="none" fill="#000000" font-family="'Arial'" font-size="4.924">2</text>
 </g>
 <g>
  <text x="18.798" y="6.051" stroke="none" fill="#000000" font-family="'Arial'" font-size="4.924">1</text>
 </g>
 <g>
  <path stroke="#FFFFFF" stroke-width="0.501" d="M34.588 51.429L34.588 67.632"/>
  <path stroke="#FFFFFF" stroke-width="0.501" d="M20.018 51.429L20.018 67.632"/>
  <path stroke="#FFFFFF" stroke-width="0.501" d="M49.159 51.429L49.159 67.632"/>
  <path stroke="#FFFFFF" stroke-width="0.501" d="M20.018 37.542L5.793 62.792"/>
  <path stroke="#FFFFFF" stroke-width="0.501" d="M50.576 39.92L63.78 62.792"/>
  <path stroke="#FFFFFF" stroke-width="0.501" d="M34.588 7.45L34.588 23.655"/>
  <path stroke="#FFFFFF" stroke-width="0.501" d="M20.018 7.45L20.018 23.655"/>
  <path stroke="#FFFFFF" stroke-width="0.501" d="M49.159 7.45L49.159 23.655"/>
  <path stroke="#FFFFFF" stroke-width="0.501" d="M34.588 37.542L68.908 37.542"/>
 </g>
 <g>
  <path stroke-width="0.131" d="M34.588 51.429L34.588 67.632"/>
  <path stroke-width="0.131" d="M20.018 51.429L20.018 67.632"/>
  <path stroke-width="0.131" d="M49.159 51.429L49.159 67.632"/>
  <path stroke-width="0.131" d="M20.018 37.542L5.793 62.792"/>
  <path stroke-width="0.131" d="M50.576 39.92L63.78 62.792"/>
  <path stroke-width="0.131" d="M34.588 7.45L34.588 23.655"/>
  <path stroke-width="0.131" d="M20.018 7.45L20.018 23.655"/>
  <path stroke-width="0.131" d="M49.159 7.45L49.159 23.655"/>
  <path stroke-width="0.131" d="M34.588 37.542L68.908 37.542"/>
 </g>
</svg>
