<?xml version="1.0" encoding="utf-8"?>
<!DOCTYPE svg PUBLIC "-//W3C//DTD SVG 1.1//EN" "http://www.w3.org/Graphics/SVG/1.1/DTD/svg11.dtd">
<!-- Generator: PTC Arbortext IsoDraw 7.3 -->
<svg id="Standard_x0020_layer" width="100%" height="100%" viewBox="0 0 75 45.837"
 xmlns="http://www.w3.org/2000/svg" xmlns:xlink="http://www.w3.org/1999/xlink"
 fill-rule="evenodd" clip-rule="evenodd" stroke="#000000" stroke-linecap="round" fill="none" xml:space="preserve">
 <g>
  <path stroke-width="0.349" stroke-linejoin="round" d="M14.817 36.628L2.446 36.628C2.169 36.628 1.946 36.405 1.946 36.128L1.946 18.042C1.946 17.766 2.169 17.542 2.446 17.542L14.849 17.542"/>
  <path stroke-width="0.349" stroke-linejoin="round" d="M30.271 36.628L18.146 36.628"/>
  <path stroke-width="0.25" stroke-linejoin="round" d="M42.764 36.628L30.271 36.628"/>
  <path stroke-width="0.349" stroke-linejoin="round" d="M57.762 36.628L42.764 36.628"/>
  <path stroke-width="0.349" stroke-linejoin="round" d="M60.996 17.542L72.588 17.542C72.864 17.542 73.088 17.766 73.088 18.042L73.088 36.128C73.088 36.405 72.864 36.628 72.588 36.628L60.996 36.628"/>
  <path stroke-width="0.349" stroke-linejoin="round" d="M42.829 17.542L57.762 17.542"/>
  <path stroke-width="0.25" stroke-linejoin="round" d="M30.233 17.542L42.829 17.542"/>
  <path stroke-width="0.349" stroke-linejoin="round" d="M18.099 17.542L30.233 17.542"/>
  <path stroke-width="0.25" stroke-linejoin="round" d="M18.057 31.024L11.736 31.024C11.458 31.024 11.236 30.8 11.236 30.524L11.236 23.728C11.236 23.452 11.458 23.228 11.736 23.228L18.057 23.228"/>
  <path stroke-width="0.25" stroke-linejoin="round" d="M14.821 29.393L12.853 29.393C12.693 29.393 12.564 29.263 12.564 29.102L12.564 25.15C12.564 24.989 12.693 24.859 12.853 24.859L14.821 24.859"/>
  <path stroke-width="0.349" stroke-linejoin="round" d="M14.893 17.539L14.893 14.699C14.893 14.561 15.005 14.449 15.144 14.449L17.812 14.449C17.949 14.449 18.062 14.561 18.062 14.699L18.062 17.542"/>
  <path stroke-width="0.25" stroke-linejoin="round" d="M14.893 36.688L14.893 17.539"/>
  <path stroke-width="0.349" stroke-linejoin="round" d="M18.062 36.658L18.062 39.558C18.062 39.697 17.949 39.808 17.812 39.808L15.144 39.808C15.005 39.808 14.893 39.697 14.893 39.558L14.893 36.688"/>
  <path stroke-width="0.25" stroke-linejoin="round" d="M18.062 17.542L18.062 36.658"/>
  <path stroke-width="0.349" stroke-linejoin="round" d="M42.764 36.688L42.764 41.343C42.764 41.481 42.652 41.593 42.515 41.593L30.521 41.593C30.382 41.593 30.271 41.481 30.271 41.343L30.271 36.688"/>
  <path stroke-width="0.349" stroke-linejoin="round" d="M30.271 17.477L30.271 12.836C30.271 12.698 30.382 12.586 30.521 12.586L42.515 12.586C42.652 12.586 42.764 12.698 42.764 12.836L42.764 17.492"/>
  <path stroke-width="0.25" stroke-linejoin="round" d="M57.801 31.024L64.123 31.024C64.399 31.024 64.623 30.8 64.623 30.524L64.623 23.728C64.623 23.452 64.399 23.228 64.123 23.228L57.801 23.228"/>
  <path stroke-width="0.25" stroke-linejoin="round" d="M61.036 29.393L63.003 29.393C63.164 29.393 63.295 29.263 63.295 29.102L63.295 25.15C63.295 24.989 63.164 24.859 63.003 24.859L61.036 24.859"/>
  <path stroke-width="0.25" stroke-linejoin="round" d="M57.795 17.542L57.795 24.704"/>
  <path stroke-width="0.349" stroke-linejoin="round" d="M60.965 17.542L60.965 14.699C60.965 14.561 60.853 14.449 60.715 14.449L58.045 14.449C57.908 14.449 57.795 14.561 57.795 14.699L57.795 17.542"/>
  <path stroke-width="0.25" stroke-linejoin="round" d="M60.965 36.628L60.965 17.542"/>
  <path stroke-width="0.349" stroke-linejoin="round" d="M57.795 36.628L57.795 39.558C57.795 39.697 57.908 39.808 58.045 39.808L60.715 39.808C60.853 39.808 60.965 39.697 60.965 39.558L60.965 36.628"/>
  <path stroke-width="0.25" stroke-linejoin="round" d="M57.795 29.594L57.795 36.628"/>
  <path stroke-width="0.25" stroke-linejoin="round" d="M28.873 27.126C28.873 29.143 27.239 30.777 25.222 30.777C23.205 30.777 21.571 29.143 21.571 27.126C21.571 25.109 23.205 23.475 25.222 23.475C27.239 23.475 28.873 25.109 28.873 27.126z"/>
  <path stroke-width="0.25" stroke-linejoin="round" d="M53.927 27.126C53.927 29.143 52.292 30.777 50.276 30.777C48.259 30.777 46.625 29.143 46.625 27.126C46.625 25.109 48.259 23.475 50.276 23.475C52.292 23.475 53.927 25.109 53.927 27.126z"/>
  <path stroke-width="0.13" stroke-linejoin="round" d="M30.643 27.126C30.643 30.12 28.216 32.546 25.222 32.546C22.228 32.546 19.8 30.12 19.8 27.126C19.8 24.132 22.228 21.705 25.222 21.705C28.216 21.705 30.643 24.132 30.643 27.126z"/>
  <path stroke-width="0.25" stroke-linejoin="round" d="M41.401 27.126C41.401 29.143 39.765 30.777 37.749 30.777C35.732 30.777 34.097 29.143 34.097 27.126C34.097 25.109 35.732 23.475 37.749 23.475C39.765 23.475 41.401 25.109 41.401 27.126z"/>
  <path stroke-width="0.13" stroke-linejoin="round" d="M43.17 27.126C43.17 30.12 40.743 32.546 37.749 32.546C34.755 32.546 32.328 30.12 32.328 27.126C32.328 24.132 34.755 21.705 37.749 21.705C40.743 21.705 43.17 24.132 43.17 27.126z"/>
  <path stroke-width="0.13" stroke-linejoin="round" d="M55.697 27.126C55.697 30.12 53.27 32.546 50.276 32.546C47.283 32.546 44.856 30.12 44.856 27.126C44.856 24.132 47.283 21.705 50.276 21.705C53.27 21.705 55.697 24.132 55.697 27.126z"/>
  <path stroke-width="0.25" stroke-linejoin="round" d="M18.114 35.012L50.276 35.012C54.631 35.012 58.161 31.481 58.161 27.126C58.161 22.771 54.631 19.242 50.276 19.242L18.114 19.242"/>
  <path stroke-width="0.13" stroke-linejoin="round" d="M30.339 14.147L42.746 14.147"/>
  <path stroke-width="0.13" stroke-linejoin="round" d="M30.339 40.011L42.746 40.011"/>
 </g>
 <g>
  <text x="12.865" y="7.158" stroke="none" fill="#000000" font-family="'Arial'" font-size="4.924">3</text>
 </g>
 <g>
  <text x="36.618" y="7.158" stroke="none" fill="#000000" font-family="'Arial'" font-size="4.924">2</text>
 </g>
 <g>
  <text x="60.372" y="7.158" stroke="none" fill="#000000" font-family="'Arial'" font-size="4.924">1</text>
 </g>
 <path stroke="#FFFFFF" stroke-width="0.501" d="M37.786 8.086L37.749 27.126"/>
 <path stroke-width="0.131" d="M37.786 8.086L37.749 27.126"/>
 <path stroke="#FFFFFF" stroke-width="0.501" d="M14.375 8.055L25.222 27.126"/>
 <path stroke-width="0.131" d="M14.375 8.055L25.222 27.126"/>
 <path stroke="#FFFFFF" stroke-width="0.501" d="M61.295 8.055L50.276 27.126"/>
 <path stroke-width="0.131" d="M61.295 8.055L50.276 27.126"/>
</svg>
