<?xml version="1.0" encoding="utf-8"?>
<!DOCTYPE svg PUBLIC "-//W3C//DTD SVG 1.1//EN" "http://www.w3.org/Graphics/SVG/1.1/DTD/svg11.dtd">
<!-- Generator: PTC Arbortext IsoDraw 7.3 -->
<svg id="Standard_x0020_layer" width="100%" height="100%" viewBox="0 0 150 82.457"
 xmlns="http://www.w3.org/2000/svg" xmlns:xlink="http://www.w3.org/1999/xlink"
 fill-rule="evenodd" clip-rule="evenodd" stroke="#000000" stroke-linecap="round" fill="none" xml:space="preserve">
 <g>
 </g>
 <g>
  <path stroke-width="0.201" stroke-linejoin="round" d="M81.799 52.228L81.799 56.808"/>
  <path stroke-width="0.201" stroke-linejoin="round" d="M80.944 52.228L80.944 56.808"/>
  <path stroke-width="0.201" stroke-linejoin="round" d="M57.042 52.228L57.042 56.811"/>
  <path stroke-width="0.201" stroke-linejoin="round" d="M56.188 52.228L56.188 56.811"/>
  <path stroke-width="0.131" stroke-linejoin="round" d="M56.246 54.457L56.985 54.457"/>
  <path stroke-width="0.201" stroke-linejoin="round" d="M56.981 53.292C56.845 53.174 56.612 53.164 56.612 53.164C56.612 53.164 56.378 53.174 56.243 53.292"/>
  <path stroke-width="0.131" stroke-linejoin="round" d="M81.001 54.457L81.74 54.457"/>
  <path stroke-width="0.201" stroke-linejoin="round" d="M81.736 53.292C81.6 53.174 81.367 53.164 81.367 53.164C81.367 53.164 81.135 53.174 80.998 53.292"/>
  <path stroke-width="0.201" stroke-linejoin="round" d="M81.799 30.774L81.799 26.193"/>
  <path stroke-width="0.201" stroke-linejoin="round" d="M80.944 30.774L80.944 26.193"/>
  <path stroke-width="0.201" stroke-linejoin="round" d="M57.042 30.774L57.042 26.17"/>
  <path stroke-width="0.201" stroke-linejoin="round" d="M56.188 30.774L56.188 26.17"/>
  <path stroke-width="0.201" stroke-linejoin="round" d="M105.263 33.009C105.263 33.904 104.537 34.63 103.641 34.63C102.748 34.63 102.022 33.904 102.022 33.009C102.022 32.113 102.748 31.388 103.641 31.388C104.537 31.388 105.263 32.113 105.263 33.009z"/>
  <path stroke-width="0.13" stroke-linejoin="round" d="M105.84 33.009C105.84 34.222 104.855 35.207 103.641 35.207C102.429 35.207 101.444 34.222 101.444 33.009C101.444 31.795 102.429 30.811 103.641 30.811C104.855 30.811 105.84 31.795 105.84 33.009z"/>
  <path stroke-width="0.201" stroke-linejoin="round" d="M100.313 33.009C100.313 33.904 99.587 34.63 98.694 34.63C97.799 34.63 97.072 33.904 97.072 33.009C97.072 32.113 97.799 31.388 98.694 31.388C99.587 31.388 100.313 32.113 100.313 33.009z"/>
  <path stroke-width="0.13" stroke-linejoin="round" d="M100.891 33.009C100.891 34.222 99.908 35.207 98.694 35.207C97.478 35.207 96.495 34.222 96.495 33.009C96.495 31.795 97.478 30.811 98.694 30.811C99.908 30.811 100.891 31.795 100.891 33.009z"/>
  <path stroke-width="0.201" stroke-linejoin="round" d="M95.364 33.009C95.364 33.904 94.638 34.63 93.743 34.63C92.849 34.63 92.123 33.904 92.123 33.009C92.123 32.113 92.849 31.388 93.743 31.388C94.638 31.388 95.364 32.113 95.364 33.009z"/>
  <path stroke-width="0.13" stroke-linejoin="round" d="M95.941 33.009C95.941 34.222 94.957 35.207 93.743 35.207C92.53 35.207 91.546 34.222 91.546 33.009C91.546 31.795 92.53 30.811 93.743 30.811C94.957 30.811 95.941 31.795 95.941 33.009z"/>
  <path stroke-width="0.201" stroke-linejoin="round" d="M90.415 33.009C90.415 33.904 89.688 34.63 88.795 34.63C87.9 34.63 87.174 33.904 87.174 33.009C87.174 32.113 87.9 31.388 88.795 31.388C89.688 31.388 90.415 32.113 90.415 33.009z"/>
  <path stroke-width="0.13" stroke-linejoin="round" d="M90.992 33.009C90.992 34.222 90.009 35.207 88.795 35.207C87.581 35.207 86.596 34.222 86.596 33.009C86.596 31.795 87.581 30.811 88.795 30.811C90.009 30.811 90.992 31.795 90.992 33.009z"/>
  <path stroke-width="0.201" stroke-linejoin="round" d="M85.465 33.009C85.465 33.904 84.739 34.63 83.844 34.63C82.95 34.63 82.224 33.904 82.224 33.009C82.224 32.113 82.95 31.388 83.844 31.388C84.739 31.388 85.465 32.113 85.465 33.009z"/>
  <path stroke-width="0.13" stroke-linejoin="round" d="M86.043 33.009C86.043 34.222 85.058 35.207 83.844 35.207C82.632 35.207 81.649 34.222 81.649 33.009C81.649 31.795 82.632 30.811 83.844 30.811C85.058 30.811 86.043 31.795 86.043 33.009z"/>
  <path stroke-width="0.201" stroke-linejoin="round" d="M80.516 33.009C80.516 33.904 79.79 34.63 78.897 34.63C78.001 34.63 77.275 33.904 77.275 33.009C77.275 32.113 78.001 31.388 78.897 31.388C79.79 31.388 80.516 32.113 80.516 33.009z"/>
  <path stroke-width="0.13" stroke-linejoin="round" d="M81.094 33.009C81.094 34.222 80.111 35.207 78.897 35.207C77.683 35.207 76.698 34.222 76.698 33.009C76.698 31.795 77.683 30.811 78.897 30.811C80.111 30.811 81.094 31.795 81.094 33.009z"/>
  <path stroke-width="0.201" stroke-linejoin="round" d="M75.567 33.009C75.567 33.904 74.841 34.63 73.947 34.63C73.052 34.63 72.326 33.904 72.326 33.009C72.326 32.113 73.052 31.388 73.947 31.388C74.841 31.388 75.567 32.113 75.567 33.009z"/>
  <path stroke-width="0.13" stroke-linejoin="round" d="M76.144 33.009C76.144 34.222 75.161 35.207 73.947 35.207C72.733 35.207 71.748 34.222 71.748 33.009C71.748 31.795 72.733 30.811 73.947 30.811C75.161 30.811 76.144 31.795 76.144 33.009z"/>
  <path stroke-width="0.201" stroke-linejoin="round" d="M70.618 33.009C70.618 33.904 69.893 34.63 68.998 34.63C68.103 34.63 67.378 33.904 67.378 33.009C67.378 32.113 68.103 31.388 68.998 31.388C69.893 31.388 70.618 32.113 70.618 33.009z"/>
  <path stroke-width="0.13" stroke-linejoin="round" d="M71.195 33.009C71.195 34.222 70.212 35.207 68.998 35.207C67.784 35.207 66.799 34.222 66.799 33.009C66.799 31.795 67.784 30.811 68.998 30.811C70.212 30.811 71.195 31.795 71.195 33.009z"/>
  <path stroke-width="0.201" stroke-linejoin="round" d="M65.668 33.009C65.668 33.904 64.942 34.63 64.049 34.63C63.154 34.63 62.427 33.904 62.427 33.009C62.427 32.113 63.154 31.388 64.049 31.388C64.942 31.388 65.668 32.113 65.668 33.009z"/>
  <path stroke-width="0.13" stroke-linejoin="round" d="M66.246 33.009C66.246 34.222 65.263 35.207 64.049 35.207C62.835 35.207 61.85 34.222 61.85 33.009C61.85 31.795 62.835 30.811 64.049 30.811C65.263 30.811 66.246 31.795 66.246 33.009z"/>
  <path stroke-width="0.201" stroke-linejoin="round" d="M60.719 33.009C60.719 33.904 59.993 34.63 59.1 34.63C58.204 34.63 57.478 33.904 57.478 33.009C57.478 32.113 58.204 31.388 59.1 31.388C59.993 31.388 60.719 32.113 60.719 33.009z"/>
  <path stroke-width="0.13" stroke-linejoin="round" d="M61.298 33.009C61.298 34.222 60.313 35.207 59.1 35.207C57.886 35.207 56.902 34.222 56.902 33.009C56.902 31.795 57.886 30.811 59.1 30.811C60.313 30.811 61.298 31.795 61.298 33.009z"/>
  <path stroke-width="0.201" stroke-linejoin="round" d="M55.771 33.009C55.771 33.904 55.045 34.63 54.151 34.63C53.256 34.63 52.53 33.904 52.53 33.009C52.53 32.113 53.256 31.388 54.151 31.388C55.045 31.388 55.771 32.113 55.771 33.009z"/>
  <path stroke-width="0.13" stroke-linejoin="round" d="M56.347 33.009C56.347 34.222 55.363 35.207 54.151 35.207C52.936 35.207 51.953 34.222 51.953 33.009C51.953 31.795 52.936 30.811 54.151 30.811C55.363 30.811 56.347 31.795 56.347 33.009z"/>
  <path stroke-width="0.201" stroke-linejoin="round" d="M50.822 33.009C50.822 33.904 50.095 34.63 49.201 34.63C48.307 34.63 47.581 33.904 47.581 33.009C47.581 32.113 48.307 31.388 49.201 31.388C50.095 31.388 50.822 32.113 50.822 33.009z"/>
  <path stroke-width="0.13" stroke-linejoin="round" d="M51.399 33.009C51.399 34.222 50.414 35.207 49.201 35.207C47.987 35.207 47.003 34.222 47.003 33.009C47.003 31.795 47.987 30.811 49.201 30.811C50.414 30.811 51.399 31.795 51.399 33.009z"/>
  <path stroke-width="0.201" stroke-linejoin="round" d="M45.872 33.009C45.872 33.904 45.146 34.63 44.252 34.63C43.357 34.63 42.631 33.904 42.631 33.009C42.631 32.113 43.357 31.388 44.252 31.388C45.146 31.388 45.872 32.113 45.872 33.009z"/>
  <path stroke-width="0.13" stroke-linejoin="round" d="M46.45 33.009C46.45 34.222 45.466 35.207 44.252 35.207C43.039 35.207 42.054 34.222 42.054 33.009C42.054 31.795 43.039 30.811 44.252 30.811C45.466 30.811 46.45 31.795 46.45 33.009z"/>
  <path stroke-width="0.201" stroke-linejoin="round" d="M40.923 33.009C40.923 33.904 40.198 34.63 39.302 34.63C38.408 34.63 37.682 33.904 37.682 33.009C37.682 32.113 38.408 31.388 39.302 31.388C40.198 31.388 40.923 32.113 40.923 33.009z"/>
  <path stroke-width="0.13" stroke-linejoin="round" d="M41.5 33.009C41.5 34.222 40.517 35.207 39.302 35.207C38.088 35.207 37.104 34.222 37.104 33.009C37.104 31.795 38.088 30.811 39.302 30.811C40.517 30.811 41.5 31.795 41.5 33.009z"/>
  <path stroke-width="0.201" stroke-linejoin="round" d="M35.975 33.009C35.975 33.904 35.249 34.63 34.353 34.63C33.46 34.63 32.734 33.904 32.734 33.009C32.734 32.113 33.46 31.388 34.353 31.388C35.249 31.388 35.975 32.113 35.975 33.009z"/>
  <path stroke-width="0.13" stroke-linejoin="round" d="M36.551 33.009C36.551 34.222 35.567 35.207 34.353 35.207C33.14 35.207 32.155 34.222 32.155 33.009C32.155 31.795 33.14 30.811 34.353 30.811C35.567 30.811 36.551 31.795 36.551 33.009z"/>
  <path stroke-width="0.201" stroke-linejoin="round" d="M102.801 37.348C102.801 38.243 102.075 38.969 101.18 38.969C100.286 38.969 99.56 38.243 99.56 37.348C99.56 36.454 100.286 35.728 101.18 35.728C102.075 35.728 102.801 36.454 102.801 37.348z"/>
  <path stroke-width="0.13" stroke-linejoin="round" d="M103.378 37.348C103.378 38.561 102.394 39.546 101.18 39.546C99.966 39.546 98.983 38.561 98.983 37.348C98.983 36.134 99.966 35.151 101.18 35.151C102.394 35.151 103.378 36.134 103.378 37.348z"/>
  <path stroke-width="0.201" stroke-linejoin="round" d="M97.852 37.348C97.852 38.243 97.125 38.969 96.23 38.969C95.337 38.969 94.609 38.243 94.609 37.348C94.609 36.454 95.337 35.728 96.23 35.728C97.125 35.728 97.852 36.454 97.852 37.348z"/>
  <path stroke-width="0.13" stroke-linejoin="round" d="M98.429 37.348C98.429 38.561 97.444 39.546 96.23 39.546C95.018 39.546 94.033 38.561 94.033 37.348C94.033 36.134 95.018 35.151 96.23 35.151C97.444 35.151 98.429 36.134 98.429 37.348z"/>
  <path stroke-width="0.201" stroke-linejoin="round" d="M92.903 37.348C92.903 38.243 92.177 38.969 91.281 38.969C90.387 38.969 89.662 38.243 89.662 37.348C89.662 36.454 90.387 35.728 91.281 35.728C92.177 35.728 92.903 36.454 92.903 37.348z"/>
  <path stroke-width="0.13" stroke-linejoin="round" d="M93.48 37.348C93.48 38.561 92.495 39.546 91.281 39.546C90.067 39.546 89.084 38.561 89.084 37.348C89.084 36.134 90.067 35.151 91.281 35.151C92.495 35.151 93.48 36.134 93.48 37.348z"/>
  <path stroke-width="0.201" stroke-linejoin="round" d="M87.953 37.348C87.953 38.243 87.227 38.969 86.332 38.969C85.438 38.969 84.712 38.243 84.712 37.348C84.712 36.454 85.438 35.728 86.332 35.728C87.227 35.728 87.953 36.454 87.953 37.348z"/>
  <path stroke-width="0.13" stroke-linejoin="round" d="M88.531 37.348C88.531 38.561 87.546 39.546 86.332 39.546C85.117 39.546 84.135 38.561 84.135 37.348C84.135 36.134 85.117 35.151 86.332 35.151C87.546 35.151 88.531 36.134 88.531 37.348z"/>
  <path stroke-width="0.201" stroke-linejoin="round" d="M83.004 37.348C83.004 38.243 82.278 38.969 81.385 38.969C80.489 38.969 79.765 38.243 79.765 37.348C79.765 36.454 80.489 35.728 81.385 35.728C82.278 35.728 83.004 36.454 83.004 37.348z"/>
  <path stroke-width="0.13" stroke-linejoin="round" d="M83.581 37.348C83.581 38.561 82.597 39.546 81.385 39.546C80.171 39.546 79.186 38.561 79.186 37.348C79.186 36.134 80.171 35.151 81.385 35.151C82.597 35.151 83.581 36.134 83.581 37.348z"/>
  <path stroke-width="0.201" stroke-linejoin="round" d="M78.055 37.348C78.055 38.243 77.329 38.969 76.435 38.969C75.54 38.969 74.814 38.243 74.814 37.348C74.814 36.454 75.54 35.728 76.435 35.728C77.329 35.728 78.055 36.454 78.055 37.348z"/>
  <path stroke-width="0.13" stroke-linejoin="round" d="M78.632 37.348C78.632 38.561 77.65 39.546 76.435 39.546C75.221 39.546 74.236 38.561 74.236 37.348C74.236 36.134 75.221 35.151 76.435 35.151C77.65 35.151 78.632 36.134 78.632 37.348z"/>
  <path stroke-width="0.201" stroke-linejoin="round" d="M73.106 37.348C73.106 38.243 72.381 38.969 71.486 38.969C70.591 38.969 69.865 38.243 69.865 37.348C69.865 36.454 70.591 35.728 71.486 35.728C72.381 35.728 73.106 36.454 73.106 37.348z"/>
  <path stroke-width="0.13" stroke-linejoin="round" d="M73.685 37.348C73.685 38.561 72.7 39.546 71.486 39.546C70.272 39.546 69.289 38.561 69.289 37.348C69.289 36.134 70.272 35.151 71.486 35.151C72.7 35.151 73.685 36.134 73.685 37.348z"/>
  <path stroke-width="0.201" stroke-linejoin="round" d="M68.158 37.348C68.158 38.243 67.432 38.969 66.537 38.969C65.641 38.969 64.915 38.243 64.915 37.348C64.915 36.454 65.641 35.728 66.537 35.728C67.432 35.728 68.158 36.454 68.158 37.348z"/>
  <path stroke-width="0.13" stroke-linejoin="round" d="M68.734 37.348C68.734 38.561 67.751 39.546 66.537 39.546C65.322 39.546 64.338 38.561 64.338 37.348C64.338 36.134 65.322 35.151 66.537 35.151C67.751 35.151 68.734 36.134 68.734 37.348z"/>
  <path stroke-width="0.201" stroke-linejoin="round" d="M63.209 37.348C63.209 38.243 62.482 38.969 61.588 38.969C60.692 38.969 59.968 38.243 59.968 37.348C59.968 36.454 60.692 35.728 61.588 35.728C62.482 35.728 63.209 36.454 63.209 37.348z"/>
  <path stroke-width="0.13" stroke-linejoin="round" d="M63.786 37.348C63.786 38.561 62.801 39.546 61.588 39.546C60.374 39.546 59.39 38.561 59.39 37.348C59.39 36.134 60.374 35.151 61.588 35.151C62.801 35.151 63.786 36.134 63.786 37.348z"/>
  <path stroke-width="0.201" stroke-linejoin="round" d="M58.259 37.348C58.259 38.243 57.533 38.969 56.639 38.969C55.743 38.969 55.018 38.243 55.018 37.348C55.018 36.454 55.743 35.728 56.639 35.728C57.533 35.728 58.259 36.454 58.259 37.348z"/>
  <path stroke-width="0.13" stroke-linejoin="round" d="M58.837 37.348C58.837 38.561 57.851 39.546 56.639 39.546C55.424 39.546 54.441 38.561 54.441 37.348C54.441 36.134 55.424 35.151 56.639 35.151C57.851 35.151 58.837 36.134 58.837 37.348z"/>
  <path stroke-width="0.201" stroke-linejoin="round" d="M53.31 37.348C53.31 38.243 52.584 38.969 51.689 38.969C50.795 38.969 50.069 38.243 50.069 37.348C50.069 36.454 50.795 35.728 51.689 35.728C52.584 35.728 53.31 36.454 53.31 37.348z"/>
  <path stroke-width="0.13" stroke-linejoin="round" d="M53.887 37.348C53.887 38.561 52.904 39.546 51.689 39.546C50.475 39.546 49.491 38.561 49.491 37.348C49.491 36.134 50.475 35.151 51.689 35.151C52.904 35.151 53.887 36.134 53.887 37.348z"/>
  <path stroke-width="0.201" stroke-linejoin="round" d="M48.36 37.348C48.36 38.243 47.634 38.969 46.74 38.969C45.845 38.969 45.119 38.243 45.119 37.348C45.119 36.454 45.845 35.728 46.74 35.728C47.634 35.728 48.36 36.454 48.36 37.348z"/>
  <path stroke-width="0.13" stroke-linejoin="round" d="M48.939 37.348C48.939 38.561 47.954 39.546 46.74 39.546C45.527 39.546 44.542 38.561 44.542 37.348C44.542 36.134 45.527 35.151 46.74 35.151C47.954 35.151 48.939 36.134 48.939 37.348z"/>
  <path stroke-width="0.201" stroke-linejoin="round" d="M43.411 37.348C43.411 38.243 42.686 38.969 41.79 38.969C40.896 38.969 40.17 38.243 40.17 37.348C40.17 36.454 40.896 35.728 41.79 35.728C42.686 35.728 43.411 36.454 43.411 37.348z"/>
  <path stroke-width="0.13" stroke-linejoin="round" d="M43.988 37.348C43.988 38.561 43.005 39.546 41.79 39.546C40.578 39.546 39.594 38.561 39.594 37.348C39.594 36.134 40.578 35.151 41.79 35.151C43.005 35.151 43.988 36.134 43.988 37.348z"/>
  <path stroke-width="0.201" stroke-linejoin="round" d="M38.463 37.348C38.463 38.243 37.737 38.969 36.841 38.969C35.948 38.969 35.222 38.243 35.222 37.348C35.222 36.454 35.948 35.728 36.841 35.728C37.737 35.728 38.463 36.454 38.463 37.348z"/>
  <path stroke-width="0.13" stroke-linejoin="round" d="M39.039 37.348C39.039 38.561 38.055 39.546 36.841 39.546C35.628 39.546 34.645 38.561 34.645 37.348C34.645 36.134 35.628 35.151 36.841 35.151C38.055 35.151 39.039 36.134 39.039 37.348z"/>
  <path stroke-width="0.201" stroke-linejoin="round" d="M110.268 41.508C110.268 42.402 109.543 43.128 108.647 43.128C107.753 43.128 107.028 42.402 107.028 41.508C107.028 40.612 107.753 39.887 108.647 39.887C109.543 39.887 110.268 40.612 110.268 41.508z"/>
  <path stroke-width="0.13" stroke-linejoin="round" d="M110.846 41.508C110.846 42.722 109.861 43.707 108.647 43.707C107.433 43.707 106.45 42.722 106.45 41.508C106.45 40.293 107.433 39.31 108.647 39.31C109.861 39.31 110.846 40.293 110.846 41.508z"/>
  <path stroke-width="0.201" stroke-linejoin="round" d="M105.382 41.508C105.382 42.402 104.656 43.128 103.762 43.128C102.867 43.128 102.141 42.402 102.141 41.508C102.141 40.612 102.867 39.887 103.762 39.887C104.656 39.887 105.382 40.612 105.382 41.508z"/>
  <path stroke-width="0.13" stroke-linejoin="round" d="M105.959 41.508C105.959 42.722 104.975 43.707 103.762 43.707C102.548 43.707 101.563 42.722 101.563 41.508C101.563 40.293 102.548 39.31 103.762 39.31C104.975 39.31 105.959 40.293 105.959 41.508z"/>
  <path stroke-width="0.201" stroke-linejoin="round" d="M109.584 36.25C109.584 37.145 108.858 37.871 107.963 37.871C107.069 37.871 106.343 37.145 106.343 36.25C106.343 35.354 107.069 34.63 107.963 34.63C108.858 34.63 109.584 35.354 109.584 36.25z"/>
  <path stroke-width="0.13" stroke-linejoin="round" d="M110.162 36.25C110.162 37.463 109.177 38.448 107.963 38.448C106.75 38.448 105.766 37.463 105.766 36.25C105.766 35.036 106.75 34.051 107.963 34.051C109.177 34.051 110.162 35.036 110.162 36.25z"/>
  <path stroke-width="0.13" stroke-linejoin="round" d="M110.659 36.25C110.659 37.74 109.453 38.948 107.963 38.948C106.474 38.948 105.266 37.74 105.266 36.25C105.266 34.761 106.474 33.554 107.963 33.554C109.453 33.554 110.659 34.761 110.659 36.25z"/>
  <path stroke-width="0.201" stroke-linejoin="round" d="M31.652 36.25C31.652 37.145 30.926 37.871 30.033 37.871C29.138 37.871 28.411 37.145 28.411 36.25C28.411 35.354 29.138 34.63 30.033 34.63C30.926 34.63 31.652 35.354 31.652 36.25z"/>
  <path stroke-width="0.13" stroke-linejoin="round" d="M32.231 36.25C32.231 37.463 31.246 38.448 30.033 38.448C28.818 38.448 27.835 37.463 27.835 36.25C27.835 35.036 28.818 34.051 30.033 34.051C31.246 34.051 32.231 35.036 32.231 36.25z"/>
  <path stroke-width="0.201" stroke-linejoin="round" d="M27.684 41.508C27.684 42.402 28.41 43.128 29.304 43.128C30.199 43.128 30.925 42.402 30.925 41.508C30.925 40.612 30.199 39.887 29.304 39.887C28.41 39.887 27.684 40.612 27.684 41.508z"/>
  <path stroke-width="0.13" stroke-linejoin="round" d="M27.108 41.508C27.108 42.722 28.091 43.707 29.304 43.707C30.518 43.707 31.503 42.722 31.503 41.508C31.503 40.293 30.518 39.31 29.304 39.31C28.091 39.31 27.108 40.293 27.108 41.508z"/>
  <path stroke-width="0.201" stroke-linejoin="round" d="M32.57 41.508C32.57 42.402 33.295 43.128 34.191 43.128C35.085 43.128 35.811 42.402 35.811 41.508C35.811 40.612 35.085 39.887 34.191 39.887C33.295 39.887 32.57 40.612 32.57 41.508z"/>
  <path stroke-width="0.13" stroke-linejoin="round" d="M31.992 41.508C31.992 42.722 32.976 43.707 34.191 43.707C35.405 43.707 36.389 42.722 36.389 41.508C36.389 40.293 35.405 39.31 34.191 39.31C32.976 39.31 31.992 40.293 31.992 41.508z"/>
  <path stroke-width="0.349" stroke-linejoin="round" d="M105.322 57.834C105.322 57.834 105.322 58.265 105.322 58.601C105.322 58.938 105.42 58.843 105.754 58.843C106.09 58.843 109.021 58.168 110.316 57.353C111.612 56.537 112.477 55.817 112.861 55.481C113.245 55.145 113.484 54.856 114.158 54.856C114.445 54.856 116.019 54.856 117.759 54.856C120.081 54.856 122.697 54.856 122.944 54.856C123.376 54.856 123.522 55.095 123.522 55.481C123.522 55.865 123.522 55.912 123.522 56.201C123.522 56.49 123.665 56.537 123.81 56.537L124.481 56.537C124.625 56.537 124.769 56.49 124.769 56.201C124.769 55.912 124.769 55.734 124.769 55.35C124.769 54.966 124.912 54.725 125.346 54.725C125.634 54.725 125.706 54.304 126.307 54.304L129.788 54.304C130.388 54.304 130.459 54.725 130.747 54.725C131.179 54.725 131.323 54.966 131.323 55.35C131.323 55.734 131.323 55.912 131.323 56.201C131.323 56.49 131.467 56.537 131.61 56.537L132.283 56.537C132.427 56.537 132.573 56.49 132.573 56.201L132.573 41.508L132.573 26.815C132.573 26.527 132.427 26.478 132.283 26.478L131.61 26.478C131.467 26.478 131.323 26.527 131.323 26.815C131.323 27.103 131.323 27.28 131.323 27.666C131.323 28.05 131.179 28.289 130.747 28.289C130.459 28.289 130.388 28.71 129.788 28.71L126.307 28.71C125.706 28.71 125.634 28.289 125.346 28.289C124.912 28.289 124.769 28.05 124.769 27.666C124.769 27.28 124.769 27.103 124.769 26.815C124.769 26.527 124.625 26.478 124.481 26.478L123.81 26.478C123.665 26.478 123.522 26.527 123.522 26.815C123.522 27.103 123.522 27.15 123.522 27.535C123.522 27.919 123.376 28.158 122.944 28.158C122.697 28.158 120.081 28.158 117.759 28.158C116.019 28.158 114.445 28.158 114.158 28.158C113.484 28.158 113.245 27.87 112.861 27.535C112.477 27.199 111.612 26.478 110.316 25.663C109.021 24.846 106.09 24.173 105.754 24.173C105.42 24.173 105.322 24.077 105.322 24.414C105.322 24.75 105.322 25.181 105.322 25.181"/>
  <path stroke-width="0.201" stroke-linejoin="round" d="M105.263 50.006C105.263 49.112 104.537 48.387 103.641 48.387C102.748 48.387 102.022 49.112 102.022 50.006C102.022 50.902 102.748 51.628 103.641 51.628C104.537 51.628 105.263 50.902 105.263 50.006z"/>
  <path stroke-width="0.13" stroke-linejoin="round" d="M105.84 50.006C105.84 48.792 104.855 47.808 103.641 47.808C102.429 47.808 101.444 48.792 101.444 50.006C101.444 51.22 102.429 52.204 103.641 52.204C104.855 52.204 105.84 51.22 105.84 50.006z"/>
  <path stroke-width="0.201" stroke-linejoin="round" d="M100.313 50.006C100.313 49.112 99.587 48.387 98.694 48.387C97.799 48.387 97.072 49.112 97.072 50.006C97.072 50.902 97.799 51.628 98.694 51.628C99.587 51.628 100.313 50.902 100.313 50.006z"/>
  <path stroke-width="0.13" stroke-linejoin="round" d="M100.891 50.006C100.891 48.792 99.908 47.808 98.694 47.808C97.478 47.808 96.495 48.792 96.495 50.006C96.495 51.22 97.478 52.204 98.694 52.204C99.908 52.204 100.891 51.22 100.891 50.006z"/>
  <path stroke-width="0.201" stroke-linejoin="round" d="M95.364 50.006C95.364 49.112 94.638 48.387 93.743 48.387C92.849 48.387 92.123 49.112 92.123 50.006C92.123 50.902 92.849 51.628 93.743 51.628C94.638 51.628 95.364 50.902 95.364 50.006z"/>
  <path stroke-width="0.13" stroke-linejoin="round" d="M95.941 50.006C95.941 48.792 94.957 47.808 93.743 47.808C92.53 47.808 91.546 48.792 91.546 50.006C91.546 51.22 92.53 52.204 93.743 52.204C94.957 52.204 95.941 51.22 95.941 50.006z"/>
  <path stroke-width="0.201" stroke-linejoin="round" d="M90.415 50.006C90.415 49.112 89.688 48.387 88.795 48.387C87.9 48.387 87.174 49.112 87.174 50.006C87.174 50.902 87.9 51.628 88.795 51.628C89.688 51.628 90.415 50.902 90.415 50.006z"/>
  <path stroke-width="0.13" stroke-linejoin="round" d="M90.992 50.006C90.992 48.792 90.009 47.808 88.795 47.808C87.581 47.808 86.596 48.792 86.596 50.006C86.596 51.22 87.581 52.204 88.795 52.204C90.009 52.204 90.992 51.22 90.992 50.006z"/>
  <path stroke-width="0.201" stroke-linejoin="round" d="M85.465 50.006C85.465 49.112 84.739 48.387 83.844 48.387C82.95 48.387 82.224 49.112 82.224 50.006C82.224 50.902 82.95 51.628 83.844 51.628C84.739 51.628 85.465 50.902 85.465 50.006z"/>
  <path stroke-width="0.13" stroke-linejoin="round" d="M86.043 50.006C86.043 48.792 85.058 47.808 83.844 47.808C82.632 47.808 81.649 48.792 81.649 50.006C81.649 51.22 82.632 52.204 83.844 52.204C85.058 52.204 86.043 51.22 86.043 50.006z"/>
  <path stroke-width="0.201" stroke-linejoin="round" d="M80.516 50.006C80.516 49.112 79.79 48.387 78.897 48.387C78.001 48.387 77.275 49.112 77.275 50.006C77.275 50.902 78.001 51.628 78.897 51.628C79.79 51.628 80.516 50.902 80.516 50.006z"/>
  <path stroke-width="0.13" stroke-linejoin="round" d="M81.094 50.006C81.094 48.792 80.111 47.808 78.897 47.808C77.683 47.808 76.698 48.792 76.698 50.006C76.698 51.22 77.683 52.204 78.897 52.204C80.111 52.204 81.094 51.22 81.094 50.006z"/>
  <path stroke-width="0.201" stroke-linejoin="round" d="M75.567 50.006C75.567 49.112 74.841 48.387 73.947 48.387C73.052 48.387 72.326 49.112 72.326 50.006C72.326 50.902 73.052 51.628 73.947 51.628C74.841 51.628 75.567 50.902 75.567 50.006z"/>
  <path stroke-width="0.13" stroke-linejoin="round" d="M76.144 50.006C76.144 48.792 75.161 47.808 73.947 47.808C72.733 47.808 71.748 48.792 71.748 50.006C71.748 51.22 72.733 52.204 73.947 52.204C75.161 52.204 76.144 51.22 76.144 50.006z"/>
  <path stroke-width="0.201" stroke-linejoin="round" d="M70.618 50.006C70.618 49.112 69.893 48.387 68.998 48.387C68.103 48.387 67.378 49.112 67.378 50.006C67.378 50.902 68.103 51.628 68.998 51.628C69.893 51.628 70.618 50.902 70.618 50.006z"/>
  <path stroke-width="0.13" stroke-linejoin="round" d="M71.195 50.006C71.195 48.792 70.212 47.808 68.998 47.808C67.784 47.808 66.799 48.792 66.799 50.006C66.799 51.22 67.784 52.204 68.998 52.204C70.212 52.204 71.195 51.22 71.195 50.006z"/>
  <path stroke-width="0.201" stroke-linejoin="round" d="M65.668 50.006C65.668 49.112 64.942 48.387 64.049 48.387C63.154 48.387 62.427 49.112 62.427 50.006C62.427 50.902 63.154 51.628 64.049 51.628C64.942 51.628 65.668 50.902 65.668 50.006z"/>
  <path stroke-width="0.13" stroke-linejoin="round" d="M66.246 50.006C66.246 48.792 65.263 47.808 64.049 47.808C62.835 47.808 61.85 48.792 61.85 50.006C61.85 51.22 62.835 52.204 64.049 52.204C65.263 52.204 66.246 51.22 66.246 50.006z"/>
  <path stroke-width="0.201" stroke-linejoin="round" d="M60.719 50.006C60.719 49.112 59.993 48.387 59.1 48.387C58.204 48.387 57.478 49.112 57.478 50.006C57.478 50.902 58.204 51.628 59.1 51.628C59.993 51.628 60.719 50.902 60.719 50.006z"/>
  <path stroke-width="0.13" stroke-linejoin="round" d="M61.298 50.006C61.298 48.792 60.313 47.808 59.1 47.808C57.886 47.808 56.902 48.792 56.902 50.006C56.902 51.22 57.886 52.204 59.1 52.204C60.313 52.204 61.298 51.22 61.298 50.006z"/>
  <path stroke-width="0.201" stroke-linejoin="round" d="M55.771 50.006C55.771 49.112 55.045 48.387 54.151 48.387C53.256 48.387 52.53 49.112 52.53 50.006C52.53 50.902 53.256 51.628 54.151 51.628C55.045 51.628 55.771 50.902 55.771 50.006z"/>
  <path stroke-width="0.13" stroke-linejoin="round" d="M56.347 50.006C56.347 48.792 55.363 47.808 54.151 47.808C52.936 47.808 51.953 48.792 51.953 50.006C51.953 51.22 52.936 52.204 54.151 52.204C55.363 52.204 56.347 51.22 56.347 50.006z"/>
  <path stroke-width="0.201" stroke-linejoin="round" d="M50.822 50.006C50.822 49.112 50.095 48.387 49.201 48.387C48.307 48.387 47.581 49.112 47.581 50.006C47.581 50.902 48.307 51.628 49.201 51.628C50.095 51.628 50.822 50.902 50.822 50.006z"/>
  <path stroke-width="0.13" stroke-linejoin="round" d="M51.399 50.006C51.399 48.792 50.414 47.808 49.201 47.808C47.987 47.808 47.003 48.792 47.003 50.006C47.003 51.22 47.987 52.204 49.201 52.204C50.414 52.204 51.399 51.22 51.399 50.006z"/>
  <path stroke-width="0.201" stroke-linejoin="round" d="M45.872 50.006C45.872 49.112 45.146 48.387 44.252 48.387C43.357 48.387 42.631 49.112 42.631 50.006C42.631 50.902 43.357 51.628 44.252 51.628C45.146 51.628 45.872 50.902 45.872 50.006z"/>
  <path stroke-width="0.13" stroke-linejoin="round" d="M46.45 50.006C46.45 48.792 45.466 47.808 44.252 47.808C43.039 47.808 42.054 48.792 42.054 50.006C42.054 51.22 43.039 52.204 44.252 52.204C45.466 52.204 46.45 51.22 46.45 50.006z"/>
  <path stroke-width="0.201" stroke-linejoin="round" d="M40.923 50.006C40.923 49.112 40.198 48.387 39.302 48.387C38.408 48.387 37.682 49.112 37.682 50.006C37.682 50.902 38.408 51.628 39.302 51.628C40.198 51.628 40.923 50.902 40.923 50.006z"/>
  <path stroke-width="0.13" stroke-linejoin="round" d="M41.5 50.006C41.5 48.792 40.517 47.808 39.302 47.808C38.088 47.808 37.104 48.792 37.104 50.006C37.104 51.22 38.088 52.204 39.302 52.204C40.517 52.204 41.5 51.22 41.5 50.006z"/>
  <path stroke-width="0.201" stroke-linejoin="round" d="M35.975 50.006C35.975 49.112 35.249 48.387 34.353 48.387C33.46 48.387 32.734 49.112 32.734 50.006C32.734 50.902 33.46 51.628 34.353 51.628C35.249 51.628 35.975 50.902 35.975 50.006z"/>
  <path stroke-width="0.13" stroke-linejoin="round" d="M36.551 50.006C36.551 48.792 35.567 47.808 34.353 47.808C33.14 47.808 32.155 48.792 32.155 50.006C32.155 51.22 33.14 52.204 34.353 52.204C35.567 52.204 36.551 51.22 36.551 50.006z"/>
  <path stroke-width="0.201" stroke-linejoin="round" d="M102.801 45.667C102.801 44.773 102.075 44.046 101.18 44.046C100.286 44.046 99.56 44.773 99.56 45.667C99.56 46.563 100.286 47.287 101.18 47.287C102.075 47.287 102.801 46.563 102.801 45.667z"/>
  <path stroke-width="0.13" stroke-linejoin="round" d="M103.378 45.667C103.378 44.454 102.394 43.469 101.18 43.469C99.966 43.469 98.983 44.454 98.983 45.667C98.983 46.881 99.966 47.865 101.18 47.865C102.394 47.865 103.378 46.881 103.378 45.667z"/>
  <path stroke-width="0.201" stroke-linejoin="round" d="M97.852 45.667C97.852 44.773 97.125 44.046 96.23 44.046C95.337 44.046 94.609 44.773 94.609 45.667C94.609 46.563 95.337 47.287 96.23 47.287C97.125 47.287 97.852 46.563 97.852 45.667z"/>
  <path stroke-width="0.13" stroke-linejoin="round" d="M98.429 45.667C98.429 44.454 97.444 43.469 96.23 43.469C95.018 43.469 94.033 44.454 94.033 45.667C94.033 46.881 95.018 47.865 96.23 47.865C97.444 47.865 98.429 46.881 98.429 45.667z"/>
  <path stroke-width="0.201" stroke-linejoin="round" d="M92.903 45.667C92.903 44.773 92.177 44.046 91.281 44.046C90.387 44.046 89.662 44.773 89.662 45.667C89.662 46.563 90.387 47.287 91.281 47.287C92.177 47.287 92.903 46.563 92.903 45.667z"/>
  <path stroke-width="0.13" stroke-linejoin="round" d="M93.48 45.667C93.48 44.454 92.495 43.469 91.281 43.469C90.067 43.469 89.084 44.454 89.084 45.667C89.084 46.881 90.067 47.865 91.281 47.865C92.495 47.865 93.48 46.881 93.48 45.667z"/>
  <path stroke-width="0.201" stroke-linejoin="round" d="M87.953 45.667C87.953 44.773 87.227 44.046 86.332 44.046C85.438 44.046 84.712 44.773 84.712 45.667C84.712 46.563 85.438 47.287 86.332 47.287C87.227 47.287 87.953 46.563 87.953 45.667z"/>
  <path stroke-width="0.13" stroke-linejoin="round" d="M88.531 45.667C88.531 44.454 87.546 43.469 86.332 43.469C85.117 43.469 84.135 44.454 84.135 45.667C84.135 46.881 85.117 47.865 86.332 47.865C87.546 47.865 88.531 46.881 88.531 45.667z"/>
  <path stroke-width="0.201" stroke-linejoin="round" d="M83.004 45.667C83.004 44.773 82.278 44.046 81.385 44.046C80.489 44.046 79.765 44.773 79.765 45.667C79.765 46.563 80.489 47.287 81.385 47.287C82.278 47.287 83.004 46.563 83.004 45.667z"/>
  <path stroke-width="0.13" stroke-linejoin="round" d="M83.581 45.667C83.581 44.454 82.597 43.469 81.385 43.469C80.171 43.469 79.186 44.454 79.186 45.667C79.186 46.881 80.171 47.865 81.385 47.865C82.597 47.865 83.581 46.881 83.581 45.667z"/>
  <path stroke-width="0.201" stroke-linejoin="round" d="M78.055 45.667C78.055 44.773 77.329 44.046 76.435 44.046C75.54 44.046 74.814 44.773 74.814 45.667C74.814 46.563 75.54 47.287 76.435 47.287C77.329 47.287 78.055 46.563 78.055 45.667z"/>
  <path stroke-width="0.13" stroke-linejoin="round" d="M78.632 45.667C78.632 44.454 77.65 43.469 76.435 43.469C75.221 43.469 74.236 44.454 74.236 45.667C74.236 46.881 75.221 47.865 76.435 47.865C77.65 47.865 78.632 46.881 78.632 45.667z"/>
  <path stroke-width="0.201" stroke-linejoin="round" d="M73.106 45.667C73.106 44.773 72.381 44.046 71.486 44.046C70.591 44.046 69.865 44.773 69.865 45.667C69.865 46.563 70.591 47.287 71.486 47.287C72.381 47.287 73.106 46.563 73.106 45.667z"/>
  <path stroke-width="0.13" stroke-linejoin="round" d="M73.685 45.667C73.685 44.454 72.7 43.469 71.486 43.469C70.272 43.469 69.289 44.454 69.289 45.667C69.289 46.881 70.272 47.865 71.486 47.865C72.7 47.865 73.685 46.881 73.685 45.667z"/>
  <path stroke-width="0.201" stroke-linejoin="round" d="M68.158 45.667C68.158 44.773 67.432 44.046 66.537 44.046C65.641 44.046 64.915 44.773 64.915 45.667C64.915 46.563 65.641 47.287 66.537 47.287C67.432 47.287 68.158 46.563 68.158 45.667z"/>
  <path stroke-width="0.13" stroke-linejoin="round" d="M68.734 45.667C68.734 44.454 67.751 43.469 66.537 43.469C65.322 43.469 64.338 44.454 64.338 45.667C64.338 46.881 65.322 47.865 66.537 47.865C67.751 47.865 68.734 46.881 68.734 45.667z"/>
  <path stroke-width="0.201" stroke-linejoin="round" d="M63.209 45.667C63.209 44.773 62.482 44.046 61.588 44.046C60.692 44.046 59.968 44.773 59.968 45.667C59.968 46.563 60.692 47.287 61.588 47.287C62.482 47.287 63.209 46.563 63.209 45.667z"/>
  <path stroke-width="0.13" stroke-linejoin="round" d="M63.786 45.667C63.786 44.454 62.801 43.469 61.588 43.469C60.374 43.469 59.39 44.454 59.39 45.667C59.39 46.881 60.374 47.865 61.588 47.865C62.801 47.865 63.786 46.881 63.786 45.667z"/>
  <path stroke-width="0.201" stroke-linejoin="round" d="M58.259 45.667C58.259 44.773 57.533 44.046 56.639 44.046C55.743 44.046 55.018 44.773 55.018 45.667C55.018 46.563 55.743 47.287 56.639 47.287C57.533 47.287 58.259 46.563 58.259 45.667z"/>
  <path stroke-width="0.13" stroke-linejoin="round" d="M58.837 45.667C58.837 44.454 57.851 43.469 56.639 43.469C55.424 43.469 54.441 44.454 54.441 45.667C54.441 46.881 55.424 47.865 56.639 47.865C57.851 47.865 58.837 46.881 58.837 45.667z"/>
  <path stroke-width="0.201" stroke-linejoin="round" d="M53.31 45.667C53.31 44.773 52.584 44.046 51.689 44.046C50.795 44.046 50.069 44.773 50.069 45.667C50.069 46.563 50.795 47.287 51.689 47.287C52.584 47.287 53.31 46.563 53.31 45.667z"/>
  <path stroke-width="0.13" stroke-linejoin="round" d="M53.887 45.667C53.887 44.454 52.904 43.469 51.689 43.469C50.475 43.469 49.491 44.454 49.491 45.667C49.491 46.881 50.475 47.865 51.689 47.865C52.904 47.865 53.887 46.881 53.887 45.667z"/>
  <path stroke-width="0.201" stroke-linejoin="round" d="M48.36 45.667C48.36 44.773 47.634 44.046 46.74 44.046C45.845 44.046 45.119 44.773 45.119 45.667C45.119 46.563 45.845 47.287 46.74 47.287C47.634 47.287 48.36 46.563 48.36 45.667z"/>
  <path stroke-width="0.13" stroke-linejoin="round" d="M48.939 45.667C48.939 44.454 47.954 43.469 46.74 43.469C45.527 43.469 44.542 44.454 44.542 45.667C44.542 46.881 45.527 47.865 46.74 47.865C47.954 47.865 48.939 46.881 48.939 45.667z"/>
  <path stroke-width="0.201" stroke-linejoin="round" d="M43.411 45.667C43.411 44.773 42.686 44.046 41.79 44.046C40.896 44.046 40.17 44.773 40.17 45.667C40.17 46.563 40.896 47.287 41.79 47.287C42.686 47.287 43.411 46.563 43.411 45.667z"/>
  <path stroke-width="0.13" stroke-linejoin="round" d="M43.988 45.667C43.988 44.454 43.005 43.469 41.79 43.469C40.578 43.469 39.594 44.454 39.594 45.667C39.594 46.881 40.578 47.865 41.79 47.865C43.005 47.865 43.988 46.881 43.988 45.667z"/>
  <path stroke-width="0.201" stroke-linejoin="round" d="M38.463 45.667C38.463 44.773 37.737 44.046 36.841 44.046C35.948 44.046 35.222 44.773 35.222 45.667C35.222 46.563 35.948 47.287 36.841 47.287C37.737 47.287 38.463 46.563 38.463 45.667z"/>
  <path stroke-width="0.13" stroke-linejoin="round" d="M39.039 45.667C39.039 44.454 38.055 43.469 36.841 43.469C35.628 43.469 34.645 44.454 34.645 45.667C34.645 46.881 35.628 47.865 36.841 47.865C38.055 47.865 39.039 46.881 39.039 45.667z"/>
  <path stroke-width="0.201" stroke-linejoin="round" d="M109.584 46.765C109.584 45.869 108.858 45.146 107.963 45.146C107.069 45.146 106.343 45.869 106.343 46.765C106.343 47.661 107.069 48.387 107.963 48.387C108.858 48.387 109.584 47.661 109.584 46.765z"/>
  <path stroke-width="0.13" stroke-linejoin="round" d="M110.162 46.765C110.162 45.551 109.177 44.567 107.963 44.567C106.75 44.567 105.766 45.551 105.766 46.765C105.766 47.978 106.75 48.963 107.963 48.963C109.177 48.963 110.162 47.978 110.162 46.765z"/>
  <path stroke-width="0.13" stroke-linejoin="round" d="M110.659 46.765C110.659 45.276 109.453 44.067 107.963 44.067C106.474 44.067 105.266 45.276 105.266 46.765C105.266 48.255 106.474 49.463 107.963 49.463C109.453 49.463 110.659 48.255 110.659 46.765z"/>
  <path stroke-width="0.201" stroke-linejoin="round" d="M31.652 46.765C31.652 45.869 30.926 45.146 30.033 45.146C29.138 45.146 28.411 45.869 28.411 46.765C28.411 47.661 29.138 48.387 30.033 48.387C30.926 48.387 31.652 47.661 31.652 46.765z"/>
  <path stroke-width="0.13" stroke-linejoin="round" d="M32.231 46.765C32.231 45.551 31.246 44.567 30.033 44.567C28.818 44.567 27.835 45.551 27.835 46.765C27.835 47.978 28.818 48.963 30.033 48.963C31.246 48.963 32.231 47.978 32.231 46.765z"/>
  <path stroke-width="0.13" stroke-linejoin="round" d="M131.063 53.091C131.163 52.049 131.163 44.017 131.163 41.487C131.163 38.957 131.163 30.925 131.063 29.882"/>
  <path stroke-width="0.25" stroke-linejoin="round" d="M57.042 30.795C57.582 30.292 58.304 29.983 59.1 29.983C60.125 29.983 61.027 30.495 61.575 31.275C62.121 30.495 63.024 29.983 64.049 29.983C65.073 29.983 65.975 30.495 66.522 31.275C67.07 30.495 67.972 29.983 68.998 29.983C70.022 29.983 70.926 30.495 71.472 31.275C72.019 30.495 72.923 29.983 73.947 29.983C74.972 29.983 75.875 30.495 76.421 31.275C76.968 30.495 77.87 29.983 78.897 29.983C79.685 29.983 80.4 30.286 80.938 30.78"/>
  <path stroke-width="0.201" stroke-linejoin="round" d="M63.597 43.343C63.057 42.877 62.356 42.594 61.588 42.594L60.929 42.594C60.527 42.594 60.204 42.27 60.204 41.869L60.204 41.146C60.204 40.746 60.527 40.42 60.929 40.42L61.588 40.42C62.357 40.42 63.06 40.137 63.6 39.668C63.725 39.561 63.887 39.494 64.064 39.494C64.248 39.494 64.415 39.566 64.543 39.679C65.079 40.142 65.778 40.423 66.542 40.423C67.319 40.423 68.028 40.131 68.569 39.655C68.691 39.555 68.846 39.494 69.016 39.494C69.183 39.494 69.332 39.554 69.454 39.649C69.996 40.128 70.706 40.42 71.486 40.42C72.263 40.42 72.972 40.131 73.513 39.654C73.637 39.555 73.79 39.494 73.96 39.494C74.143 39.494 74.305 39.563 74.432 39.674C74.969 40.14 75.668 40.42 76.435 40.42L77.094 40.42C77.495 40.42 77.819 40.746 77.819 41.146L77.819 41.869C77.819 42.27 77.495 42.594 77.094 42.594L76.435 42.594C75.677 42.594 74.983 42.871 74.445 43.328C74.317 43.445 74.149 43.518 73.96 43.518C73.775 43.518 73.606 43.445 73.478 43.331C72.941 42.871 72.246 42.594 71.486 42.594C70.727 42.594 70.036 42.871 69.5 43.326C69.373 43.445 69.203 43.518 69.016 43.518C68.835 43.518 68.671 43.453 68.546 43.343C68.007 42.877 67.305 42.594 66.537 42.594C65.778 42.594 65.087 42.869 64.551 43.325C64.423 43.445 64.253 43.518 64.064 43.518C63.886 43.518 63.722 43.451 63.597 43.343z"/>
  <path stroke-width="0.25" stroke-linejoin="round" d="M98.4 42.039C98.501 42.039 98.581 42.119 98.581 42.219L98.581 42.595C98.581 42.795 98.745 42.959 98.944 42.959C99.344 42.959 99.671 42.634 99.671 42.234L99.671 40.783C99.671 40.381 99.344 40.057 98.944 40.057C98.745 40.057 98.581 40.219 98.581 40.42L98.581 40.798C98.581 40.896 98.501 40.978 98.4 40.978L80.123 40.978C80.022 40.978 79.941 40.896 79.941 40.798L79.941 40.42C79.941 40.219 79.778 40.057 79.578 40.057C79.177 40.057 78.853 40.381 78.853 40.783L78.853 42.234C78.853 42.634 79.177 42.959 79.578 42.959C79.778 42.959 79.941 42.795 79.941 42.595L79.941 42.219C79.941 42.119 80.022 42.039 80.123 42.039L98.4 42.039z"/>
  <path stroke-width="0.25" stroke-linejoin="round" d="M39.628 42.039C39.527 42.039 39.445 42.119 39.445 42.219L39.445 42.595C39.445 42.795 39.283 42.959 39.082 42.959C38.682 42.959 38.357 42.634 38.357 42.234L38.357 40.783C38.357 40.381 38.682 40.057 39.082 40.057C39.283 40.057 39.445 40.219 39.445 40.42L39.445 40.798C39.445 40.896 39.527 40.978 39.628 40.978L57.905 40.978C58.006 40.978 58.087 40.896 58.087 40.798L58.087 40.42C58.087 40.219 58.249 40.057 58.45 40.057C58.85 40.057 59.174 40.381 59.174 40.783L59.174 42.234C59.174 42.634 58.85 42.959 58.45 42.959C58.249 42.959 58.087 42.795 58.087 42.595L58.087 42.219C58.087 42.119 58.006 42.039 57.905 42.039L39.628 42.039z"/>
  <path stroke-width="0.131" stroke-linejoin="round" d="M56.246 28.544L56.985 28.544"/>
  <path stroke-width="0.201" stroke-linejoin="round" d="M56.981 29.71C56.845 29.826 56.612 29.838 56.612 29.838C56.612 29.838 56.378 29.826 56.243 29.71"/>
  <path stroke-width="0.131" stroke-linejoin="round" d="M81.001 28.544L81.74 28.544"/>
  <path stroke-width="0.201" stroke-linejoin="round" d="M81.736 29.71C81.6 29.826 81.367 29.838 81.367 29.838C81.367 29.838 81.135 29.826 80.998 29.71"/>
  <path stroke-width="0.201" stroke-linejoin="round" d="M111.661 41.939L114.584 41.939"/>
  <path stroke-width="0.201" stroke-linejoin="round" d="M111.661 41.084L114.584 41.084"/>
  <path stroke-width="0.131" stroke-linejoin="round" d="M113.891 41.142L113.891 41.881"/>
  <path stroke-width="0.201" stroke-linejoin="round" d="M112.724 41.877C112.608 41.741 112.596 41.508 112.596 41.508C112.596 41.508 112.608 41.274 112.724 41.139"/>
  <path stroke-width="0.25" stroke-linejoin="round" d="M56.192 52.234C55.655 52.728 54.939 53.033 54.151 53.033C53.125 53.033 52.222 52.52 51.676 51.74C51.128 52.52 50.225 53.033 49.201 53.033C48.176 53.033 47.274 52.52 46.726 51.74C46.179 52.52 45.277 53.033 44.252 53.033C43.228 53.033 42.325 52.52 41.777 51.74C41.229 52.52 40.328 53.033 39.302 53.033C38.279 53.033 37.375 52.52 36.829 51.74C36.28 52.52 35.378 53.033 34.353 53.033C32.683 53.033 31.327 51.677 31.327 50.006L31.326 49.966C30.923 50.131 30.492 50.222 30.033 50.222C28.125 50.222 26.576 48.673 26.576 46.765L27.335 46.765C27.335 46.216 27.503 45.707 27.785 45.281C27.92 45.07 28.003 44.823 28.003 44.552C28.003 44.149 27.823 43.789 27.542 43.542C26.972 43.048 26.608 42.322 26.608 41.508C26.608 40.695 26.972 39.97 27.541 39.476C27.821 39.229 28.003 38.871 28.003 38.469C28.003 38.198 27.922 37.948 27.786 37.738C27.501 37.311 27.335 36.801 27.335 36.25L26.576 36.25C26.576 34.341 28.125 32.795 30.033 32.795C30.492 32.795 30.923 32.884 31.326 33.048L31.327 33.009C31.327 31.338 32.683 29.983 34.353 29.983C35.378 29.983 36.28 30.495 36.829 31.275C37.375 30.495 38.279 29.983 39.302 29.983C40.328 29.983 41.229 30.495 41.777 31.275C42.325 30.495 43.228 29.983 44.252 29.983C45.277 29.983 46.179 30.495 46.726 31.275C47.274 30.495 48.176 29.983 49.201 29.983C50.225 29.983 51.128 30.495 51.676 31.275C52.222 30.495 53.125 29.983 54.151 29.983C54.939 29.983 55.656 30.288 56.194 30.783"/>
  <path stroke-width="0.25" stroke-linejoin="round" d="M80.944 52.228C80.406 52.728 79.688 53.033 78.897 53.033C77.87 53.033 76.968 52.52 76.421 51.74C75.875 52.52 74.972 53.033 73.947 53.033C72.923 53.033 72.019 52.52 71.472 51.74C70.926 52.52 70.022 53.033 68.998 53.033C67.972 53.033 67.07 52.52 66.522 51.74C65.975 52.52 65.073 53.033 64.049 53.033C63.024 53.033 62.121 52.52 61.575 51.74C61.027 52.52 60.125 53.033 59.1 53.033C58.31 53.033 57.595 52.729 57.057 52.234"/>
  <path stroke-width="0.25" stroke-linejoin="round" d="M111.641 41.947C111.504 42.869 110.945 43.652 110.171 44.109C110.932 44.743 111.415 45.698 111.415 46.765C111.415 48.671 109.87 50.219 107.963 50.219C107.503 50.219 107.064 50.13 106.664 49.966C106.664 49.979 106.668 49.993 106.668 50.006C106.668 51.677 105.313 53.033 103.641 53.033C102.617 53.033 101.715 52.52 101.168 51.74C100.62 52.52 99.718 53.033 98.694 53.033C97.668 53.033 96.766 52.52 96.218 51.74C95.671 52.52 94.769 53.033 93.743 53.033C92.719 53.033 91.816 52.52 91.269 51.74C90.721 52.52 89.819 53.033 88.795 53.033C87.769 53.033 86.867 52.52 86.319 51.74C85.772 52.52 84.87 53.033 83.844 53.033C83.054 53.033 82.335 52.728 81.799 52.228"/>
  <path stroke-width="0.25" stroke-linejoin="round" d="M81.804 30.78C82.341 30.286 83.058 29.983 83.844 29.983C84.87 29.983 85.772 30.495 86.319 31.275C86.867 30.495 87.769 29.983 88.795 29.983C89.819 29.983 90.721 30.495 91.269 31.275C91.816 30.495 92.719 29.983 93.743 29.983C94.769 29.983 95.671 30.495 96.218 31.275C96.766 30.495 97.668 29.983 98.694 29.983C99.718 29.983 100.62 30.495 101.168 31.275C101.715 30.495 102.617 29.983 103.641 29.983C105.313 29.983 106.668 31.338 106.668 33.009C106.668 33.023 106.664 33.036 106.664 33.049C107.064 32.887 107.503 32.795 107.963 32.795C109.87 32.795 111.415 34.341 111.415 36.247C111.415 37.314 110.932 38.271 110.173 38.904C110.95 39.36 111.509 40.149 111.643 41.078"/>
  <path stroke-width="0.131" stroke-linecap="butt" d="M34.145 25.733C27.972 25.733 22.951 30.754 22.951 36.926L22.951 46.079C22.951 52.252 27.972 57.274 34.145 57.274L103.878 57.274C110.049 57.274 115.072 52.252 115.072 46.079L115.072 36.926C115.072 30.754 110.049 25.733 103.878 25.733L34.145 25.733z"/>
  <path stroke-width="0.349" stroke-linecap="butt" d="M34.145 25.132C27.641 25.132 22.35 30.422 22.35 36.926L22.35 46.079C22.35 52.582 27.641 57.874 34.145 57.874L103.878 57.874C110.381 57.874 115.671 52.582 115.671 46.079L115.671 36.926C115.671 30.422 110.381 25.132 103.878 25.132L34.145 25.132z"/>
  <path stroke-width="0.131" stroke-linecap="butt" d="M23.35 36.926C23.35 30.964 28.185 26.132 34.145 26.132L103.878 26.132C109.835 26.132 114.671 30.964 114.671 36.926L114.671 46.079C114.671 52.036 109.835 56.874 103.878 56.874L34.145 56.874C28.185 56.874 23.35 52.036 23.35 46.079L23.35 36.926z"/>
  <path stroke-width="0.349" stroke-linejoin="round" d="M22.283 44.823C22.283 44.823 20.489 44.823 20.394 44.823C20.3 44.823 20.207 44.697 20.207 44.539L20.207 38.46C20.207 38.302 20.3 38.177 20.394 38.177C20.489 38.177 22.283 38.177 22.283 38.177"/>
  <path stroke-width="0.201" stroke-linejoin="round" d="M20.62 38.773L22.333 38.773"/>
  <path stroke-width="0.201" stroke-linejoin="round" d="M20.62 44.225L22.333 44.225"/>
  <path stroke-width="0.131" stroke-linejoin="round" d="M20.62 38.773L20.62 44.225"/>
  <path stroke-width="0.349" stroke-linejoin="round" d="M42.398 25.109C42.398 25.109 42.398 23.594 42.398 23.33C42.398 23.067 42.09 23.022 41.826 23.022L38.659 23.022C38.396 23.022 38.088 23.067 38.088 23.33C38.088 23.594 38.088 25.109 38.088 25.109"/>
  <path stroke-width="0.349" stroke-linejoin="round" d="M66.838 25.109C66.838 25.109 66.838 23.594 66.838 23.33C66.838 23.067 67.147 23.022 67.409 23.022L70.576 23.022C70.84 23.022 71.147 23.067 71.147 23.33C71.147 23.594 71.147 25.109 71.147 25.109"/>
  <path stroke-width="0.349" stroke-linejoin="round" d="M95.588 25.109C95.588 25.109 95.588 23.594 95.588 23.33C95.588 23.067 95.897 23.022 96.161 23.022L99.326 23.022C99.59 23.022 99.897 23.067 99.897 23.33C99.897 23.594 99.897 25.109 99.897 25.109"/>
  <path stroke-width="0.349" stroke-linejoin="round" d="M42.398 58.051C42.398 58.051 42.398 59.564 42.398 59.829C42.398 60.091 42.09 60.136 41.826 60.136L38.659 60.136C38.396 60.136 38.088 60.091 38.088 59.829C38.088 59.564 38.088 58.051 38.088 58.051"/>
  <path stroke-width="0.349" stroke-linejoin="round" d="M95.588 58.051C95.588 58.051 95.588 59.564 95.588 59.829C95.588 60.091 95.897 60.136 96.161 60.136L99.326 60.136C99.59 60.136 99.897 60.091 99.897 59.829C99.897 59.564 99.897 58.051 99.897 58.051"/>
  <path stroke-width="0.13" stroke-linejoin="round" d="M124.769 28.608L124.769 54.417"/>
  <path stroke-width="0.13" stroke-linejoin="round" d="M123.45 28.443L123.45 54.5"/>
  <path stroke-width="0.13" stroke-linejoin="round" d="M126.006 35.7L126.006 53.262"/>
  <path stroke-width="0.13" stroke-linejoin="round" d="M126.006 29.432L126.006 32.731"/>
 </g>
 <g>
  <path stroke="#FFFFFF" stroke-width="0.501" stroke-linecap="butt" d="M34.353 50.006L34.353 74.927"/>
  <path stroke="#FFFFFF" stroke-width="0.501" stroke-linecap="butt" d="M103.641 50.006L103.641 74.927"/>
  <path stroke="#FFFFFF" stroke-width="0.501" stroke-linecap="butt" d="M34.353 7.99L34.353 32.911"/>
  <path stroke="#FFFFFF" stroke-width="0.501" stroke-linecap="butt" d="M103.641 7.99L103.641 32.911"/>
  <path stroke="#FFFFFF" stroke-width="0.501" stroke-linecap="butt" d="M81.319 8.076L81.319 37.493"/>
  <path stroke="#FFFFFF" stroke-width="0.501" stroke-linecap="butt" d="M56.676 8.076L56.676 37.493"/>
  <path stroke="#FFFFFF" stroke-width="0.501" stroke-linecap="butt" d="M81.319 45.764L81.319 75.183"/>
  <path stroke="#FFFFFF" stroke-width="0.501" stroke-linecap="butt" d="M56.676 45.764L56.676 75.183"/>
  <path stroke="#FFFFFF" stroke-width="0.501" stroke-linecap="butt" d="M30.032 36.25L15.019 21.237"/>
  <path stroke="#FFFFFF" stroke-width="0.501" stroke-linecap="butt" d="M30.032 46.765L15.019 61.777"/>
  <path stroke="#FFFFFF" stroke-width="0.501" stroke-linecap="butt" d="M107.751 36.25L122.763 21.237"/>
  <path stroke="#FFFFFF" stroke-width="0.501" stroke-linecap="butt" d="M107.751 46.765L122.763 61.777"/>
  <path stroke="#FFFFFF" stroke-width="0.501" stroke-linecap="butt" d="M29.304 41.509L12.141 41.509"/>
  <path stroke="#FFFFFF" stroke-width="0.501" stroke-linecap="butt" d="M108.478 41.509L139.424 41.509"/>
 </g>
 <g>
  <path stroke-width="0.131" stroke-linecap="butt" d="M34.353 50.006L34.353 74.927"/>
  <path stroke-width="0.131" stroke-linecap="butt" d="M103.641 50.006L103.641 74.927"/>
  <path stroke-width="0.131" stroke-linecap="butt" d="M34.353 7.99L34.353 32.911"/>
  <path stroke-width="0.131" stroke-linecap="butt" d="M103.641 7.99L103.641 32.911"/>
  <path stroke-width="0.131" stroke-linecap="butt" d="M81.319 8.076L81.319 37.493"/>
  <path stroke-width="0.131" stroke-linecap="butt" d="M56.676 8.076L56.676 37.493"/>
  <path stroke-width="0.131" stroke-linecap="butt" d="M81.319 45.764L81.319 75.183"/>
  <path stroke-width="0.131" stroke-linecap="butt" d="M56.676 45.764L56.676 75.183"/>
  <path stroke-width="0.131" stroke-linecap="butt" d="M30.032 36.25L15.019 21.237"/>
  <path stroke-width="0.131" stroke-linecap="butt" d="M30.032 46.765L15.019 61.777"/>
  <path stroke-width="0.131" stroke-linecap="butt" d="M107.751 36.25L122.763 21.237"/>
  <path stroke-width="0.131" stroke-linecap="butt" d="M107.751 46.765L122.763 61.777"/>
  <path stroke-width="0.131" stroke-linecap="butt" d="M29.304 41.509L12.141 41.509"/>
  <path stroke-width="0.131" stroke-linecap="butt" d="M108.478 41.509L139.424 41.509"/>
 </g>
 <g>
  <text x="101.227" y="6.817" stroke="none" fill="#000000" font-family="'Arial'" font-size="4.939">15</text>
 </g>
 <g>
  <text x="79.277" y="6.817" stroke="none" fill="#000000" font-family="'Arial'" font-size="4.939">26</text>
 </g>
 <g>
  <text x="54.582" y="6.817" stroke="none" fill="#000000" font-family="'Arial'" font-size="4.939">21</text>
 </g>
 <g>
  <text x="32.948" y="6.817" stroke="none" fill="#000000" font-family="'Arial'" font-size="4.939">1</text>
 </g>
 <g>
  <text x="101.283" y="79.971" stroke="none" fill="#000000" font-family="'Arial'" font-size="4.939">66</text>
 </g>
 <g>
  <text x="32.139" y="79.971" stroke="none" fill="#000000" font-family="'Arial'" font-size="4.939">52</text>
 </g>
 <g>
  <text x="11.827" y="67.013" stroke="none" fill="#000000" font-family="'Arial'" font-size="4.939">36</text>
 </g>
 <g>
  <text x="121.128" y="67.105" stroke="none" fill="#000000" font-family="'Arial'" font-size="4.939">51</text>
 </g>
 <g>
  <text x="11.692" y="20.146" stroke="none" fill="#000000" font-family="'Arial'" font-size="4.939">16</text>
 </g>
 <g>
  <text x="121.156" y="20.146" stroke="none" fill="#000000" font-family="'Arial'" font-size="4.939">31</text>
 </g>
 <g>
  <text x="5.52" y="43.554" stroke="none" fill="#000000" font-family="'Arial'" font-size="4.939">32</text>
 </g>
 <g>
  <text x="141.193" y="43.554" stroke="none" fill="#000000" font-family="'Arial'" font-size="4.939">35</text>
 </g>
 <g>
  <text x="54.774" y="79.971" stroke="none" fill="#000000" font-family="'Arial'" font-size="4.939">41</text>
 </g>
 <g>
  <text x="79.331" y="79.971" stroke="none" fill="#000000" font-family="'Arial'" font-size="4.939">46</text>
 </g>
</svg>
