<?xml version="1.0" encoding="utf-8"?>
<!DOCTYPE svg PUBLIC "-//W3C//DTD SVG 1.1//EN" "http://www.w3.org/Graphics/SVG/1.1/DTD/svg11.dtd">
<!-- Generator: PTC Arbortext IsoDraw 7.3 -->
<svg width="100%" height="100%" viewBox="0 0 75 86.287"
 xmlns="http://www.w3.org/2000/svg" xmlns:xlink="http://www.w3.org/1999/xlink"
 fill-rule="evenodd" clip-rule="evenodd" stroke="#000000" stroke-linecap="round" fill="none" xml:space="preserve">
 <g id="Frame">
  <path stroke="none" fill="#FFFFFF" d="M75 86.287L0 86.287 0 0 75 0 75 86.287z"/>
 </g>
 <g id="Colour">
 </g>
 <g id="Standard_x0020_layer">
  <g>
   <g>
    <path stroke-width="0.3" d="M73.272 37.076C73.272 17.562 57.454 1.744 37.939 1.744C18.426 1.744 2.608 17.562 2.608 37.076C2.608 56.588 18.426 72.408 37.939 72.408C57.454 72.408 73.272 56.588 73.272 37.076"/>
   </g>
   <g>
    <path stroke-width="0.3" d="M60.365 37.076C60.365 24.69 50.325 14.65 37.939 14.65C25.554 14.65 15.515 24.69 15.515 37.076C15.515 49.46 25.554 59.5 37.939 59.5C50.325 59.5 60.365 49.46 60.365 37.076"/>
   </g>
   <g>
    <path stroke-width="0.13" stroke-dasharray="2 2" d="M67.381 37.076C67.381 28.946 64.085 21.585 58.758 16.257C47.261 4.761 28.62 4.761 17.123 16.257C11.374 22.007 8.5 29.541 8.5 37.076C8.5 45.206 11.794 52.566 17.123 57.893C28.62 69.391 47.261 69.391 58.758 57.893C64.257 52.393 67.126 45.259 67.364 38.076"/>
    <path stroke-width="0.13" d="M67.364 38.076C67.376 37.725 67.382 37.375 67.381 37.076"/>
   </g>
   <line stroke-width="0.13" stroke-dasharray="2 2" x1="2.782" y1="33.558" x2="14.621" y2="34.847"/>
   <line stroke-width="0.13" x1="14.621" y1="34.847" x2="15.615" y2="34.956"/>
   <line stroke-width="0.13" stroke-dasharray="2 2" x1="11.649" y1="13.471" x2="20.461" y2="21.478"/>
   <line stroke-width="0.13" x1="20.461" y1="21.478" x2="21.202" y2="22.15"/>
   <line stroke-width="0.13" stroke-dasharray="2 2" x1="30.876" y1="2.456" x2="33.067" y2="14.163"/>
   <line stroke-width="0.13" x1="33.067" y1="14.163" x2="33.252" y2="15.146"/>
   <line stroke-width="0.13" stroke-dasharray="2 2" x1="52.421" y1="4.847" x2="47.536" y2="15.705"/>
   <line stroke-width="0.13" x1="47.536" y1="15.705" x2="47.125" y2="16.617"/>
   <line stroke-width="0.13" stroke-dasharray="2 2" x1="68.659" y1="19.62" x2="58.338" y2="25.557"/>
   <line stroke-width="0.13" x1="58.338" y1="25.557" x2="57.47" y2="26.056"/>
   <line stroke-width="0.13" stroke-dasharray="2 2" x1="7.482" y1="54.982" x2="17.847" y2="49.116"/>
   <line stroke-width="0.13" x1="17.847" y1="49.116" x2="18.716" y2="48.625"/>
   <line stroke-width="0.13" stroke-dasharray="2 2" x1="23.905" y1="69.501" x2="28.5" y2="58.515"/>
   <line stroke-width="0.13" x1="28.5" y1="58.515" x2="28.885" y2="57.591"/>
   <line stroke-width="0.13" stroke-dasharray="2 2" x1="45.546" y1="71.579" x2="43.21" y2="59.901"/>
   <line stroke-width="0.13" x1="43.21" y1="59.901" x2="43.012" y2="58.92"/>
   <line stroke-width="0.13" stroke-dasharray="2 2" x1="64.091" y1="60.835" x2="55.195" y2="52.917"/>
   <line stroke-width="0.13" x1="55.195" y1="52.917" x2="54.448" y2="52.253"/>
   <line stroke-width="0.13" stroke-dasharray="2 2" x1="73.067" y1="40.869" x2="61.234" y2="39.557"/>
   <line stroke-width="0.13" x1="61.234" y1="39.557" x2="60.24" y2="39.445"/>
   <g>
    <path stroke-width="0.13" d="M23.489 46.78C23.489 45.957 22.821 45.289 21.996 45.289C21.173 45.289 20.506 45.957 20.506 46.78C20.506 47.604 21.173 48.273 21.996 48.273C22.821 48.273 23.489 47.604 23.489 46.78"/>
   </g>
   <g>
    <path stroke-width="0.13" d="M32.011 54.415C32.011 53.591 31.343 52.924 30.519 52.924C29.696 52.924 29.027 53.591 29.027 54.415C29.027 55.24 29.696 55.906 30.519 55.906C31.343 55.906 32.011 55.24 32.011 54.415"/>
   </g>
   <g>
    <path stroke-width="0.13" d="M20.951 35.432C20.951 34.607 20.283 33.941 19.458 33.941C18.635 33.941 17.968 34.607 17.968 35.432C17.968 36.256 18.635 36.923 19.458 36.923C20.283 36.923 20.951 36.256 20.951 35.432"/>
   </g>
   <g>
    <path stroke-width="0.13" d="M25.573 25.032C25.573 24.207 24.905 23.541 24.082 23.541C23.257 23.541 22.589 24.207 22.589 25.032C22.589 25.856 23.257 26.522 24.082 26.522C24.905 26.522 25.573 25.856 25.573 25.032"/>
   </g>
   <g>
    <path stroke-width="0.13" d="M35.643 19.088C35.643 18.265 34.975 17.597 34.151 17.597C33.328 17.597 32.659 18.265 32.659 19.088C32.659 19.913 33.328 20.58 34.151 20.58C34.975 20.58 35.643 19.913 35.643 19.088"/>
   </g>
   <g>
    <path stroke-width="0.13" d="M47.198 20.079C47.198 19.256 46.53 18.588 45.707 18.588C44.883 18.588 44.215 19.256 44.215 20.079C44.215 20.902 44.883 21.571 45.707 21.571C46.53 21.571 47.198 20.902 47.198 20.079"/>
   </g>
   <g>
    <path stroke-width="0.13" d="M55.948 28.003C55.948 27.179 55.28 26.512 54.456 26.512C53.631 26.512 52.965 27.179 52.965 28.003C52.965 28.826 53.631 29.495 54.456 29.495C55.28 29.495 55.948 28.826 55.948 28.003"/>
   </g>
   <g>
    <path stroke-width="0.13" d="M43.567 55.737C43.567 54.912 42.899 54.244 42.075 54.244C41.25 54.244 40.584 54.912 40.584 55.737C40.584 56.56 41.25 57.228 42.075 57.228C42.899 57.228 43.567 56.56 43.567 55.737"/>
   </g>
   <g>
    <path stroke-width="0.13" d="M53.636 50.124C53.636 49.299 52.969 48.633 52.145 48.633C51.32 48.633 50.654 49.299 50.654 50.124C50.654 50.948 51.32 51.615 52.145 51.615C52.969 51.615 53.636 50.948 53.636 50.124"/>
   </g>
   <g>
    <path stroke-width="0.13" d="M58.423 39.393C58.423 38.57 57.756 37.902 56.932 37.902C56.109 37.902 55.441 38.57 55.441 39.393C55.441 40.218 56.109 40.884 56.932 40.884C57.756 40.884 58.423 40.218 58.423 39.393"/>
   </g>
   <polygon stroke="none" fill="#000000" points="26.178 64.064 27.541 70.004 29.489 69.18"/>
   <line stroke-width="0.3" x1="28.28" y1="69.039" x2="34.737" y2="84.308"/>
   <polygon stroke="none" fill="#000000" points="44.28 65.25 40.648 70.141 42.539 71.088"/>
   <line stroke-width="0.3" x1="41.862" y1="70.078" x2="34.737" y2="84.308"/>
   <text transform="matrix(0 -1 1 0 65.299 82.32)" stroke="none" fill="#000000" font-family="'Helvetica'" font-size="2.117">122 872</text>
  </g>
 </g>
</svg>
