<?xml version="1.0" encoding="utf-8"?>
<!DOCTYPE svg PUBLIC "-//W3C//DTD SVG 1.1//EN" "http://www.w3.org/Graphics/SVG/1.1/DTD/svg11.dtd">
<!-- Generator: PTC Arbortext IsoDraw 7.3 -->
<svg width="100%" height="100%" viewBox="0 0 75 91.284"
 xmlns="http://www.w3.org/2000/svg" xmlns:xlink="http://www.w3.org/1999/xlink"
 fill-rule="evenodd" clip-rule="evenodd" stroke="#000000" stroke-linecap="round" fill="none" xml:space="preserve">
 <g id="Frame">
  <path stroke="none" fill="#FFFFFF" d="M75 91.284L0 91.284 0 0 75 0 75 91.284z"/>
 </g>
 <g id="Colour">
 </g>
 <g id="Standard_x0020_layer">
  <g>
   <path stroke-width="0.3" d="M10.885 16.129L11.053 5.256C11.173 4.886 11.836 4.165 12.88 3.73C13.382 3.522 13.977 3.387 14.659 3.387L26.986 3.387C27.713 3.387 28.748 3.797 29.489 4.338C29.74 4.522 29.96 4.714 30.083 4.931C30.734 6.068 35.064 15.839 35.365 16.795"/>
   <path stroke-width="0.3" d="M8.3 16.089L8.468 5.113C8.468 5.113 8.496 4.743 8.577 4.496C8.839 3.702 9.922 2.16 11.885 1.343C12.67 1.016 13.596 0.801 14.659 0.801L26.986 0.801C28.149 0.801 29.832 1.385 31.015 2.25C31.589 2.669 32.048 3.154 32.329 3.648C33.008 4.833 37.518 15.021 37.832 16.015L37.832 16.016C37.847 16.062 37.856 16.102 37.865 16.134"/>
   <path stroke-width="0.3" d="M8.3 16.089C7.903 17.123 8.073 16.954 7.397 17.292C6.721 17.629 6.552 17.798 6.552 18.474C6.552 19.149 6.384 35.191 6.552 35.866C6.721 36.542 7.735 39.243 7.735 39.918C7.735 40.594 9.255 41.439 10.099 41.27C10.943 41.1 14.659 39.918 14.49 39.918C14.32 39.918 15.164 39.582 15.503 38.061C15.84 36.542 16.01 35.359 16.01 35.359C16.01 35.359 16.01 32.152 16.01 31.644C16.01 31.138 17.528 27.423 20.231 27.254"/>
   <path stroke-width="0.3" d="M10.885 16.129C11.112 16.954 12.125 17.46 12.631 17.46C13.138 17.46 33.57 17.798 33.57 17.798C33.57 17.798 35.603 17.414 35.365 16.795"/>
   <path stroke-width="0.3" d="M37.832 16.015C38.805 17.629 37.792 19.655 37.454 19.824"/>
   <line stroke-width="0.3" x1="38.029" y1="18.833" x2="42.689" y2="27.76"/>
   <line stroke-width="0.13" x1="35.439" y1="19.189" x2="40.662" y2="28.606"/>
   <line stroke-width="0.13" x1="7.397" y1="17.292" x2="12.163" y2="17.364"/>
   <path stroke-width="0.13" d="M10.615 41.143C11.221 40.972 11.282 38.569 11.449 36.88C11.618 35.191 10.605 29.957 13.814 27.254C17.022 24.553 21.582 25.228 22.763 25.903C23.946 26.579 27.323 28.774 27.492 31.983C27.661 35.191 27.829 37.218 27.661 37.218"/>
   <path stroke-width="0.13" d="M12.125 39.243L13.138 36.036C13.138 36.036 13.646 32.826 13.646 31.814C13.646 30.8 15.359 26.908 20.231 27.254"/>
   <path stroke-width="0.3" d="M20.231 27.254C23.608 27.423 26.14 30.8 26.309 33.334C26.478 35.866 26.478 37.387 26.478 37.387"/>
   <line stroke-width="0.13" x1="39.115" y1="30.08" x2="41.043" y2="30.678"/>
   <line stroke-width="0.3" x1="39.182" y1="33.14" x2="41.109" y2="32.874"/>
   <line stroke-width="0.3" x1="41.109" y1="32.874" x2="42.506" y2="33.14"/>
   <path stroke-width="0.3" d="M42.506 33.14C43.237 33.14 45.1 33.14 45.1 32.74C45.1 32.341 45.299 31.012 45.299 31.012C45.299 31.012 45.033 30.545 44.502 30.48"/>
   <line stroke-width="0.13" x1="38.517" y1="30.678" x2="38.45" y2="32.74"/>
   <line stroke-width="0.13" x1="41.109" y1="31.012" x2="41.109" y2="32.673"/>
   <path stroke-width="0.13" d="M41.576 30.945C42.107 31.077 43.503 31.21 43.902 31.144C44.302 31.077 45.223 30.864 45.085 30.756"/>
   <path stroke-width="0.13" d="M41.375 30.413C41.841 30.678 42.506 30.812 42.905 30.812C43.304 30.812 44.103 30.745 44.302 30.48"/>
   <path stroke-width="0.3" d="M41.375 30.413L41.576 28.352C41.576 28.352 41.774 28.018 42.107 27.952C42.439 27.885 43.704 28.085 44.036 28.085C44.368 28.085 44.701 28.085 44.634 28.417C44.569 28.751 44.677 30.271 44.302 30.48"/>
   <path stroke-width="0.13" d="M41.576 28.352C42.64 28.55 43.304 28.55 43.637 28.55C43.969 28.55 44.368 28.484 44.368 28.417"/>
   <path stroke-width="0.3" d="M44.588 29.035C45.859 29.032 47.793 29.199 48.771 29.986C49.017 30.184 49.209 30.417 49.332 30.692C49.456 30.968 49.512 31.285 49.473 31.649C49.405 32.304 49.18 32.844 48.865 33.274C48.642 33.578 48.374 33.826 48.081 34.024C47.401 34.484 46.588 34.661 45.923 34.587C45.225 34.509 42.981 34.524 41.103 34.536C39.753 34.543 38.588 34.548 38.281 34.521C37.694 34.468 36.755 33.875 36.226 33.145C35.984 32.808 35.829 32.447 35.804 32.103C35.773 31.664 36.011 31.039 36.465 30.461"/>
   <path stroke-width="0.3" d="M37.006 29.896C37.292 29.649 37.621 29.431 37.979 29.268"/>
   <path stroke-width="0.3" d="M38.859 29.001C39.055 28.969 39.256 28.957 39.46 28.963L39.46 28.963L41.456 29.03"/>
   <path stroke-width="0.3" d="M44.59 29.806C45.71 29.803 47.426 29.893 48.287 30.585C48.435 30.704 48.554 30.844 48.628 31.007C48.701 31.17 48.729 31.356 48.707 31.571C48.655 32.073 48.485 32.487 48.243 32.817C48.075 33.048 47.871 33.235 47.649 33.386C47.131 33.737 46.515 33.877 46.008 33.82C45.298 33.741 43.012 33.753 41.098 33.765C39.784 33.773 38.649 33.78 38.351 33.753C37.914 33.713 37.243 33.235 36.851 32.694C36.7 32.484 36.588 32.262 36.573 32.048C36.551 31.733 36.759 31.3 37.103 30.893"/>
   <path stroke-width="0.13" d="M37.505 30.484C37.679 30.332 37.872 30.193 38.082 30.077"/>
   <path stroke-width="0.3" d="M38.927 29.769C39.091 29.74 39.261 29.728 39.433 29.734L41.429 29.8"/>
   <path stroke-width="0.13" d="M41.808 33.006C41.808 33.006 41.792 33.183 41.738 33.761"/>
   <path stroke-width="0.3" d="M41.667 34.533C41.555 35.734 41.143 40.189 41.143 40.189L41.277 41.387C41.277 41.387 41.875 41.585 42.274 41.585C42.673 41.585 43.139 41.387 43.204 40.987C43.271 40.588 43.338 40.057 43.338 40.057C43.338 40.057 43.534 36.548 43.649 34.52"/>
   <path stroke-width="0.13" d="M43.695 33.746C43.718 33.35 43.732 33.115 43.732 33.115"/>
   <path stroke-width="0.3" d="M43.548 36.332C43.548 36.332 45.665 36.265 45.665 37.064C45.665 37.862 45.598 41.851 45.598 42.384C45.598 42.915 45.267 43.515 44.868 43.515C44.469 43.515 42.847 43.118 42.381 42.918"/>
   <path stroke-width="0.3" d="M36.25 30.763C36.088 30.347 35.89 29.349 36.621 29.681C37.353 30.013 37.485 30.413 37.551 30.612"/>
   <path stroke-width="0.3" d="M37.817 29.216C37.951 28.484 38.482 28.085 38.749 28.684C39.015 29.283 38.981 30.013 38.749 30.347C38.517 30.678 37.191 31.457 36.872 31.202"/>
   <path stroke-width="0.13" d="M36.466 30.461C36.954 30.545 37.168 30.814 37.103 30.893"/>
   <path stroke-width="0.13" d="M37.817 29.216C38.417 29.349 38.396 29.876 38.082 30.077"/>
   <path stroke-width="0.3" d="M37.817 29.216C36.61 28.455 35.043 28.117 34.146 28.803"/>
   <path stroke-width="0.3" d="M33.725 29.289C33.537 29.618 33.429 30.054 33.429 30.612C33.429 33.34 35.423 36.597 35.49 37.064C35.557 37.529 35.557 37.529 35.557 37.529"/>
   <path stroke-width="0.3" d="M37.463 29.551C36.802 29.157 36.039 28.894 35.368 28.903"/>
   <path stroke-width="0.3" d="M34.38 29.222L34.356 29.242C34.06 29.515 33.901 29.964 33.901 30.612C33.901 32.567 34.978 34.799 35.549 36.005C35.759 36.444 35.904 36.765 35.942 36.917C35.948 36.947 35.954 36.972 35.957 36.996L35.957 36.996L36.024 37.463"/>
   <path stroke-width="0.3" d="M36.088 29.614C34.878 28.966 32.963 29.149 32.829 29.948C32.697 30.745 33.993 33.552 34.134 33.923C34.274 34.293 35.225 37.262 35.225 37.463"/>
   <path stroke-width="0.3" d="M36.289 29.239C35.814 28.984 35.243 28.841 34.694 28.804C34.131 28.768 33.593 28.844 33.2 29.007C32.902 29.132 32.679 29.31 32.548 29.519C32.478 29.629 32.43 29.748 32.409 29.878C32.292 30.588 33.198 32.816 33.594 33.741L33.594 33.738L33.737 34.082C33.869 34.424 34.746 37.155 34.801 37.502"/>
   <path stroke-width="0.3" d="M36.289 29.239C36.566 29.428 37.134 29.788 37.07 29.841"/>
   <line stroke-width="0.3" x1="45.006" y1="36.484" x2="45.006" y2="34.542"/>
   <line stroke-width="0.3" x1="45.006" y1="33.771" x2="45.006" y2="32.923"/>
   <line stroke-width="0.13" x1="44.476" y1="37.024" x2="44.383" y2="43.024"/>
   <line stroke-width="0.3" x1="41.408" y1="37.325" x2="25.538" y2="37.774"/>
   <line stroke-width="0.3" x1="27.132" y1="41.055" x2="41.143" y2="40.189"/>
   <g>
    <path stroke-width="0.13" d="M24.265 40.761C24.673 40.761 25.006 40.188 25.006 39.479C25.006 39.462 25.004 39.442 25.004 39.426"/>
    <path stroke-width="0.13" d="M24.838 38.668C24.693 38.359 24.481 38.2 24.265 38.198"/>
    <path stroke-width="0.3" d="M24.265 38.198C23.856 38.198 23.525 38.773 23.525 39.479C23.525 40.188 23.856 40.761 24.265 40.761"/>
    <path stroke="none" fill="#000000" d="M24.762 38.619C24.625 38.383 24.446 38.348 24.265 38.348L24.265 38.048C24.464 38.048 24.664 38.265 24.815 38.527L24.762 38.619z"/>
    <path stroke="none" fill="#000000" d="M24.265 40.61C24.446 40.61 24.643 40.545 24.762 40.34L24.815 40.432C24.666 40.691 24.493 40.911 24.265 40.911L24.265 40.61z"/>
   </g>
   <g>
    <path stroke-width="0.13" d="M25.152 40.761C25.561 40.761 25.891 40.188 25.891 39.479C25.891 38.773 25.561 38.198 25.152 38.198"/>
   </g>
   <line stroke-width="0.3" x1="25.152" y1="40.761" x2="24.265" y2="40.761"/>
   <line stroke-width="0.3" x1="25.152" y1="38.198" x2="24.265" y2="38.198"/>
   <g>
    <path stroke-width="0.13" d="M25.202 41.204C25.751 41.189 26.175 40.404 26.149 39.451C26.146 39.371 26.14 39.29 26.132 39.222"/>
    <path stroke-width="0.13" d="M25.887 38.354C25.678 37.951 25.39 37.749 25.103 37.755"/>
    <path stroke-width="0.3" d="M25.103 37.755C24.853 37.762 24.628 37.929 24.46 38.198"/>
    <path stroke-width="0.13" d="M24.475 40.707C24.478 40.712 24.481 40.716 24.484 40.719"/>
    <path stroke-width="0.3" d="M24.484 40.719C24.687 41.051 24.946 41.212 25.202 41.204"/>
    <path stroke="none" fill="#000000" d="M25.797 38.286C25.6 37.969 25.353 37.898 25.108 37.905L25.099 37.606C25.364 37.597 25.635 37.85 25.847 38.194L25.797 38.286z"/>
    <path stroke="none" fill="#000000" d="M25.198 41.054C25.449 41.048 25.707 40.923 25.864 40.634L25.92 40.725C25.733 41.07 25.504 41.345 25.205 41.354L25.198 41.054z"/>
   </g>
   <g>
    <path stroke-width="0.3" d="M25.794 41.219C26.068 41.21 26.312 41.011 26.483 40.694"/>
    <path stroke-width="0.13" d="M26.483 40.694C26.667 40.35 26.753 39.906 26.739 39.466C26.713 38.518 26.251 37.762 25.704 37.768"/>
    <path stroke="none" fill="#000000" d="M26.419 40.588C26.588 40.277 26.713 39.869 26.702 39.466L26.777 39.465C26.791 39.944 26.748 40.426 26.548 40.798L26.419 40.588z"/>
   </g>
   <line stroke-width="0.3" x1="25.794" y1="41.219" x2="25.202" y2="41.204"/>
   <line stroke-width="0.3" x1="25.695" y1="37.768" x2="25.103" y2="37.755"/>
   <path stroke-width="0.13" d="M26.382 37.75C26.975 38.051 27.237 38.935 27.132 41.055"/>
   <g>
    <path stroke-width="0.13" d="M35.204 44.457C35.805 44.457 36.295 43.932 36.32 43.274"/>
    <path stroke-width="0.13" d="M35.956 42.313C35.74 42.097 35.472 41.993 35.204 41.993C34.588 41.993 34.088 42.545 34.088 43.225C34.088 43.905 34.588 44.457 35.204 44.457"/>
   </g>
   <path stroke-width="0.13" d="M24.167 38.84C24.512 39.183 24.611 39.43 24.562 39.628C24.512 39.825 24.512 40.07 24.315 40.121"/>
   <path stroke-width="0.13" d="M34.811 42.831C35.057 42.584 35.402 42.682 35.648 42.88C35.895 43.076 35.895 43.521 35.698 43.667C35.5 43.816 35.204 43.865 35.106 43.816"/>
   <g>
    <path stroke-width="0.3" d="M35.944 44.85C36.35 44.74 36.67 44.457 36.856 44.091"/>
    <path stroke-width="0.13" d="M36.856 44.091C37.259 43.298 36.978 42.268 36.228 41.79"/>
    <path stroke-width="0.3" d="M36.228 41.79C35.854 41.551 35.433 41.496 35.057 41.598C34.243 41.82 33.781 42.728 34.027 43.627C34.271 44.524 35.13 45.073 35.944 44.85"/>
    <path stroke="none" fill="#000000" d="M36.735 44.014C36.918 43.652 37.021 43.218 36.917 42.838L37.03 42.807C37.155 43.261 37.195 43.735 36.976 44.167L36.735 44.014z"/>
    <path stroke="none" fill="#000000" d="M36.917 42.838C36.799 42.406 36.497 42.131 36.164 41.918L36.293 41.662C36.654 41.893 36.904 42.341 37.03 42.807L36.917 42.838z"/>
   </g>
   <g>
    <path stroke-width="0.13" d="M35.5 44.457C36.116 44.457 36.616 43.905 36.616 43.225C36.616 42.545 36.116 41.993 35.5 41.993"/>
   </g>
   <line stroke-width="0.13" x1="35.5" y1="44.457" x2="35.204" y2="44.457"/>
   <line stroke-width="0.13" x1="35.5" y1="41.993" x2="35.204" y2="41.993"/>
   <line stroke-width="0.3" x1="26.355" y1="40.89" x2="26.355" y2="43.865"/>
   <line stroke-width="0.3" x1="27.132" y1="41.055" x2="27.132" y2="43.767"/>
   <line stroke-width="0.3" x1="25.794" y1="41.219" x2="25.794" y2="43.47"/>
   <line stroke-width="0.3" x1="24.96" y1="41.161" x2="24.96" y2="43.718"/>
   <path stroke-width="0.3" d="M27.132 43.767C27.271 44.554 26.335 45.491 25.251 44.703"/>
   <path stroke-width="0.3" d="M26.355 43.865C26.385 44.012 26.385 44.21 25.843 44.259"/>
   <g>
    <path stroke-width="0.3" d="M27.67 45C27.67 44.521 27.463 44.09 27.132 43.789"/>
    <path stroke-width="0.3" d="M26.356 43.402C26.245 43.38 26.138 43.369 26.041 43.371C25.14 43.371 24.411 44.1 24.411 45"/>
   </g>
   <g>
    <path stroke-width="0.3" d="M26.975 45C26.975 44.859 26.945 44.725 26.89 44.609"/>
    <path stroke-width="0.3" d="M26.309 44.104C26.216 44.078 26.125 44.064 26.041 44.066C25.524 44.066 25.106 44.484 25.106 45"/>
   </g>
   <line stroke-width="0.3" x1="24.411" y1="45" x2="24.416" y2="48.618"/>
   <line stroke-width="0.3" x1="27.67" y1="45" x2="27.67" y2="48.645"/>
   <g>
    <path stroke-width="0.3" d="M24.411 48.496C24.411 49.264 24.94 49.906 25.664 50.082"/>
    <path stroke-width="0.3" d="M26.428 50.079C27.169 49.899 27.667 49.237 27.67 48.496"/>
   </g>
   <g>
    <path stroke-width="0.3" d="M25.106 48.496C25.106 48.878 25.332 49.204 25.664 49.353"/>
    <path stroke-width="0.3" d="M26.428 49.348C26.771 49.192 26.974 48.856 26.975 48.496"/>
   </g>
   <line stroke-width="0.3" x1="25.106" y1="45" x2="25.106" y2="48.496"/>
   <line stroke-width="0.3" x1="26.975" y1="45" x2="26.975" y2="48.496"/>
   <line stroke-width="0.3" x1="26.428" y1="49.115" x2="26.428" y2="55.037"/>
   <line stroke-width="0.3" x1="25.664" y1="49.115" x2="25.664" y2="55.037"/>
   <g>
    <path stroke-width="0.3" d="M26.428 49.115C26.428 48.904 26.257 48.732 26.047 48.732C25.835 48.732 25.664 48.904 25.664 49.115"/>
   </g>
   <g>
    <path stroke-width="0.3" d="M25.664 55.037C25.664 55.249 25.835 55.42 26.047 55.42C26.257 55.42 26.428 55.249 26.428 55.037"/>
   </g>
   <line stroke-width="0.3" x1="24.37" y1="55.57" x2="24.375" y2="59.189"/>
   <line stroke-width="0.3" x1="27.629" y1="55.57" x2="27.629" y2="59.216"/>
   <g>
    <path stroke-width="0.3" d="M24.37 59.067C24.37 59.524 24.557 59.936 24.859 60.231"/>
    <path stroke-width="0.3" d="M26.388 60.651C27.129 60.469 27.626 59.807 27.629 59.067"/>
   </g>
   <g>
    <path stroke-width="0.3" d="M25.065 59.067C25.065 59.21 25.097 59.345 25.152 59.46"/>
    <path stroke-width="0.3" d="M26.388 59.918C26.73 59.762 26.932 59.426 26.936 59.067"/>
   </g>
   <line stroke-width="0.3" x1="25.065" y1="55.57" x2="25.065" y2="59.067"/>
   <line stroke-width="0.3" x1="26.936" y1="55.57" x2="26.936" y2="59.067"/>
   <g>
    <path stroke-width="0.3" d="M26.936 55.57C26.936 55.21 26.731 54.899 26.428 54.74"/>
    <path stroke-width="0.3" d="M25.664 54.698C25.295 54.84 25.068 55.191 25.065 55.57"/>
   </g>
   <g>
    <path stroke-width="0.3" d="M27.629 55.57C27.594 54.851 27.097 54.265 26.428 54.078"/>
    <path stroke-width="0.3" d="M25.664 54.055C24.908 54.215 24.384 54.875 24.368 55.628"/>
   </g>
   <path stroke-width="0.3" d="M32.927 71.495C32.606 71.308 31.963 71.334 31.722 71.924C31.481 72.513 30.998 75.837 30.917 76.48C30.838 77.123 30.838 77.846 31.373 77.927C31.673 77.971 32 77.873 32.271 77.575"/>
   <path stroke-width="0.3" d="M32.655 76.887C32.698 76.763 32.735 76.628 32.767 76.48C33.008 75.326 33.276 72.834 33.302 72.593C33.31 72.527 33.314 72.426 33.305 72.311"/>
   <path stroke-width="0.13" d="M32.933 71.498L32.927 71.495z"/>
   <path stroke-width="0.3" d="M32.633 71.95C32.472 72.031 32.31 72.245 32.07 73.424C31.829 74.603 31.667 76.721 31.667 76.909C31.667 77.096 31.695 77.203 31.882 77.177"/>
   <path stroke-width="0.3" d="M26.602 74.343C26.248 74.227 25.625 74.387 25.512 75.013C25.397 75.64 25.617 78.99 25.673 79.637C25.728 80.283 25.878 80.989 26.419 80.957C26.838 80.932 27.25 80.628 27.411 79.941"/>
   <path stroke-width="0.3" d="M27.481 79.251C27.478 78.192 27.269 76.066 27.21 75.475"/>
   <path stroke-width="0.13" d="M26.897 74.548C26.818 74.447 26.719 74.371 26.602 74.343"/>
   <path stroke-width="0.3" d="M26.408 74.849C26.268 74.962 26.155 75.204 26.164 76.409C26.173 77.611 26.457 79.716 26.495 79.9C26.535 80.084 26.582 80.183 26.76 80.117"/>
   <path stroke-width="0.3" d="M28.814 81.284C28.814 81.284 27.521 81.084 26.611 80.924"/>
   <path stroke-width="0.3" d="M26.038 80.819C25.893 80.79 25.791 80.766 25.748 80.751C25.483 80.65 25.115 80.117 25.315 79.751C25.382 79.632 25.489 79.504 25.652 79.399"/>
   <path stroke-width="0.3" d="M26.39 79.164C26.682 79.135 27.042 79.156 27.481 79.251C28.847 79.552 29.713 79.718 29.946 79.819C30.178 79.918 30.245 80.152 30.178 80.385C30.152 80.477 30.111 80.606 30.053 80.736"/>
   <path stroke-width="0.13" d="M28.868 81.284C28.833 81.284 28.814 81.284 28.814 81.284"/>
   <path stroke-width="0.3" d="M26.486 79.855C27.198 79.896 28.902 80.105 29.213 80.218C29.579 80.352 29.547 80.518 29.547 80.518"/>
   <line stroke-width="0.3" x1="27.222" y1="80.43" x2="28.446" y2="80.584"/>
   <path stroke-width="0.3" d="M30.934 76.358C30.611 76.353 30.245 76.554 29.98 76.921C29.713 77.287 28.681 78.953 28.58 79.152C28.481 79.352 28.452 79.462 28.452 79.462"/>
   <path stroke-width="0.3" d="M28.315 80.052C28.237 80.558 28.513 81.251 29.246 81.45C29.98 81.65 30.879 81.45 31.379 80.685C31.878 79.918 32.844 78.486 32.976 78.253C33.11 78.019 33.024 76.519 31.701 76.387"/>
   <path stroke-width="0.3" d="M30.89 77.253C30.745 77.254 30.611 77.319 29.946 78.385C29.28 79.451 29.213 79.626 29.213 79.626"/>
   <path stroke-width="0.3" d="M29.076 80.18C29.013 80.518 29.527 80.79 29.78 80.784C30.033 80.778 30.213 80.784 30.946 79.784C31.678 78.786 32.177 78.019 32.21 77.986C32.244 77.953 32.487 77.433 31.882 77.177"/>
   <path stroke-width="0.3" d="M26.859 59.436C26.216 59.057 25.449 58.814 25.085 59.582C24.721 60.35 24.762 61.118 24.762 61.118L24.721 65.04C24.721 65.04 24.963 66.171 25.934 66.051C26.039 66.037 26.137 66.01 26.225 65.968"/>
   <path stroke-width="0.3" d="M26.903 65.063C27.042 64.638 27.088 64.164 27.106 63.828C27.146 63.1 27.152 60.219 27.152 60.219"/>
   <path stroke-width="0.3" d="M26.388 59.918C25.893 59.865 25.638 59.945 25.623 60.654C25.611 61.362 25.489 64.313 25.53 64.596C25.57 64.879 25.53 65.403 25.934 65.323"/>
   <path stroke-width="0.3" d="M26.388 60.651C26.175 60.715 25.623 60.654 25.623 60.654"/>
   <line stroke-width="0.3" x1="26.388" y1="60.651" x2="26.26" y2="64.352"/>
   <path stroke-width="0.3" d="M25.521 64.194C25.934 64.231 27.024 64.272 27.024 65.849C27.024 67.426 27.146 69.528 27.106 69.971C27.065 70.417 26.823 71.185 26.216 71.103C25.89 71.061 25.553 70.9 25.304 70.555"/>
   <path stroke-width="0.3" d="M24.954 69.587C24.937 69.468 24.926 69.34 24.923 69.203C24.882 67.87 24.94 65.555 24.94 65.555"/>
   <path stroke-width="0.3" d="M25.934 65.323C26.297 65.323 26.216 65.93 26.216 66.415C26.216 66.9 26.458 69.891 26.379 70.093C26.297 70.296 26.175 70.376 26.054 70.376"/>
   <line stroke-width="0.3" x1="25.69" y1="66.055" x2="25.731" y2="69.284"/>
   <path stroke-width="0.3" d="M26.384 69.405C25.853 69.245 24.397 69.325 24.317 70.7"/>
   <path stroke-width="0.3" d="M24.317 70.7C24.397 73.165 24.478 74.662 24.518 74.864"/>
   <path stroke-width="0.3" d="M24.518 74.864C24.518 75.147 25.106 75.787 25.48 75.79"/>
   <path stroke-width="0.3" d="M26.172 75.79C26.783 75.671 27.672 75.51 27.792 74.662C27.914 73.813 27.753 71.185 27.753 70.902C27.753 70.618 27.324 69.772 27.114 69.65"/>
   <path stroke-width="0.3" d="M26.379 70.093C25.893 70.013 25.125 70.296 25.125 71.225C25.125 72.155 25.205 74.096 25.286 74.298"/>
   <path stroke-width="0.3" d="M25.286 74.298C25.286 74.742 25.359 74.739 25.449 74.822"/>
   <path stroke-width="0.3" d="M26.286 75.021C26.62 74.944 26.984 74.864 26.984 73.894C26.984 72.923 26.846 70.781 26.861 70.754"/>
   <line stroke-width="0.3" x1="26.542" y1="75.715" x2="26.768" y2="79.155"/>
   <path stroke-width="0.3" d="M32.633 71.95C32.844 71.962 32.947 71.602 32.999 71.034C33.049 70.468 33.256 67.686 33.256 67.686C33.256 67.686 33.256 66.965 32.844 66.861"/>
   <path stroke-width="0.3" d="M32.225 66.295C32.74 66.037 33.771 66.397 33.875 67.171C33.978 67.944 33.719 71.034 33.667 71.396C33.616 71.756 33.271 72.954 32.207 72.819"/>
   <path stroke-width="0.3" d="M31.579 72.439C30.989 72.013 31.143 71.24 31.143 70.21C31.143 69.18 31.556 67.171 31.556 67.171"/>
   <path stroke-width="0.3" d="M33.049 61.246C32.122 61.194 31.71 62.121 31.556 63.048C31.4 63.975 31.452 65.625 31.452 66.191C31.452 66.759 31.762 68.355 33.256 67.686"/>
   <path stroke-width="0.3" d="M32.585 62.173C32.74 62.533 33.204 62.79 33.462 62.585C33.719 62.378 34.081 58.206 34.131 58.051C34.183 57.896 34.234 57.072 34.183 56.917C34.131 56.762 33.823 56.402 33.462 56.454C33.101 56.506 32.999 56.762 32.999 56.762"/>
   <path stroke-width="0.3" d="M32.896 61.966C32.585 62.173 32.38 62.07 32.329 63.204C32.277 64.337 32.225 66.295 32.225 66.295C32.225 66.295 32.329 67.114 33.061 67.007"/>
   <path stroke-width="0.3" d="M32.191 67.757L31.814 71.396L31.902 71.641"/>
   <path stroke-width="0.3" d="M32.485 72.823C32.38 73.302 32.076 76.206 31.945 76.429"/>
   <path stroke-width="0.3" d="M33.749 61.286C34.161 61.375 34.746 61.915 34.61 63.131C34.475 64.347 34.386 65.787 34.295 66.149C34.206 66.509 34.164 67.272 33.893 67.408"/>
   <path stroke-width="0.3" d="M33.609 62.134C33.845 62.366 33.845 62.862 33.801 63.176C33.756 63.491 33.53 65.832 33.53 65.832C33.53 65.832 33.521 66.385 33.481 66.515"/>
   <path stroke-width="0.3" d="M33.396 51.246C32.81 51.29 32.09 51.651 32 52.506C31.91 53.362 31.864 56.063 31.864 56.378C31.864 56.694 32.345 57.78 33.261 57.774"/>
   <path stroke-width="0.3" d="M33.261 52.055C32.945 52.146 32.63 52.146 32.539 53.991C32.496 54.896 32.494 55.616 32.585 56.112"/>
   <path stroke-width="0.3" d="M33.216 57.098C32.765 56.963 32.636 56.518 32.585 56.112"/>
   <path stroke-width="0.3" d="M33.216 57.098C33.216 57.098 33.305 56.963 33.261 57.774C33.216 58.585 33.049 61.246 33.049 61.246C33.049 61.246 33.064 61.869 32.896 61.966"/>
   <line stroke-width="0.3" x1="32.755" y1="57.658" x2="32.552" y2="61.323"/>
   <path stroke-width="0.3" d="M34.295 52.326C34.07 52.822 33.265 52.85 33.261 52.055C33.256 51.262 33.485 50.795 34.07 49.534C34.655 48.274 35.017 47.194 35.106 47.058C35.197 46.923 35.962 45.978 36.682 47.103"/>
   <line stroke-width="0.3" x1="35.917" y1="47.463" x2="34.07" y2="51.29"/>
   <g>
    <path stroke-width="0.13" d="M34.07 51.29C33.981 51.606 33.89 52.1 34.07 52.146"/>
    <path stroke-width="0.3" d="M34.07 52.146C34.25 52.191 34.475 52.055 34.43 52.686C34.386 53.317 34.341 55.883 34.341 56.107C34.341 56.334 34.341 56.962 34.183 56.917"/>
   </g>
   <path stroke-width="0.3" d="M34.07 51.29C34.835 51.561 35.241 51.651 35.286 52.686C35.332 53.722 35.241 55.432 35.197 55.927C35.152 56.423 35.091 57.682 34.17 57.816"/>
   <line stroke-width="0.3" x1="34.881" y1="51.515" x2="36.322" y2="48.454"/>
   <path stroke-width="0.3" d="M35.576 48.171C36.142 48.319 37.448 48.59 37.628 46.607C37.807 44.627 37.582 42.78 37.582 42.78C37.582 42.78 37.22 41.707 36.04 41.688"/>
   <path stroke-width="0.3" d="M35.917 47.463C36.457 47.509 36.817 47.238 36.862 46.427C36.908 45.618 36.856 44.091 36.856 44.091"/>
   <path stroke-width="0.3" d="M34.286 44.185C34.286 44.185 34.43 46.698 34.475 47.103C34.521 47.509 34.854 47.668 34.831 47.731"/>
   <path stroke-width="0.3" d="M35.113 44.823C35.113 44.823 35.079 46.718 35.273 46.865"/>
   <path stroke-width="0.13" d="M35.917 47.463C35.962 47.283 36.231 47.283 36.231 47.283"/>
   <path stroke-width="0.3" d="M34.845 40.579C34.88 41.055 34.939 41.636 34.578 41.835"/>
   <path stroke-width="0.3" d="M36.365 40.484C36.301 41.151 36.658 41.759 36.88 41.923"/>
   <line stroke-width="0.13" x1="42.381" y1="42.918" x2="42.381" y2="56.058"/>
   <line stroke-width="0.3" x1="44.868" y1="43.515" x2="44.868" y2="54.417"/>
   <path stroke-width="0.3" d="M45.662 37.54C46.801 37.71 47.703 38.283 49.753 40.662C51.804 43.04 52.789 44.518 53.198 45.173C53.609 45.829 54.347 48.536 54.182 49.274"/>
   <path stroke-width="0.3" d="M45.621 40.662C47.128 41.893 49.835 45.091 50.246 45.993C50.655 46.896 51.393 48.045 51.229 49.11"/>
   <path stroke-width="0.13" d="M51.229 49.11C51.804 49.521 52.542 49.603 52.871 49.603C53.198 49.603 54.159 49.518 54.182 49.274"/>
   <path stroke-width="0.3" d="M51.253 48.781C50.737 48.947 50.409 49.274 50.409 50.095C50.409 50.915 50.246 57.723 50.246 57.723C50.246 57.723 50.164 58.625 52.215 58.954C54.265 59.281 57.792 59.609 60.006 58.789C62.222 57.969 62.222 57.969 62.222 57.969L62.222 55.509L61.402 53.13L55.741 48.536L54.173 48.539"/>
   <path stroke-width="0.13" d="M50.518 49.417C50.737 50.259 53.116 50.259 54.182 50.423"/>
   <line stroke-width="0.13" x1="55.741" y1="48.536" x2="54.84" y2="50.095"/>
   <line stroke-width="0.13" x1="55.085" y1="50.752" x2="60.499" y2="54.197"/>
   <line stroke-width="0.13" x1="61.402" y1="53.13" x2="60.908" y2="54.115"/>
   <line stroke-width="0.13" x1="60.908" y1="54.524" x2="61.648" y2="55.591"/>
   <path stroke-width="0.3" d="M44.868 54.417C44.832 55.918 46.447 56.659 48.359 56.658C50.271 56.655 50.271 56.656 50.271 56.656"/>
   <path stroke-width="0.13" d="M42.381 56.058C42.454 57.149 42.618 57.969 44.094 58.216C45.57 58.462 47.579 58.462 48.072 59.281"/>
   <path stroke-width="0.13" d="M48.893 59.281C52.338 60.43 58.735 59.939 60.868 59.609C63 59.281 65.134 59.281 65.298 60.594"/>
   <line stroke-width="0.13" x1="48.235" y1="60.103" x2="48.235" y2="75.204"/>
   <line stroke-width="0.13" x1="64.805" y1="61.743" x2="63.978" y2="81.828"/>
   <line stroke-width="0.13" x1="66.036" y1="61.661" x2="65.253" y2="80.855"/>
   <line stroke-width="0.3" x1="53.491" y1="81.384" x2="63.493" y2="82.414"/>
   <line stroke-width="0.3" x1="67.894" y1="58.813" x2="67.103" y2="77.942"/>
   <path stroke-width="0.3" d="M67.103 77.942L65.206 81.834C65.206 81.834 65.021 82.57 63.493 82.414"/>
   <path stroke-width="0.3" d="M67.894 58.813C67.969 57.767 66.713 56.174 64.953 56.369C63.195 56.566 62.216 56.594 62.216 56.594"/>
   <path stroke-width="0.3" d="M59.7 82.022C59.7 82.022 56.773 89.495 56.773 89.572C56.773 89.65 55.771 90.65 54 90.343C52.231 90.034 51.768 89.881 50.999 88.495C50.228 87.108 50.228 86.492 50.152 85.722C50.101 85.228 50.21 83.846 50.295 82.918"/>
   <g>
    <path stroke-width="0.13" d="M54.539 77.561C55.091 76.7 55.073 75.634 54.579 74.769"/>
    <path stroke-width="0.13" d="M53.021 73.492C51.796 73.073 50.505 73.537 49.844 74.558"/>
   </g>
   <line stroke-width="0.13" x1="54.539" y1="77.561" x2="54.078" y2="78.308"/>
   <line stroke-width="0.13" x1="53.588" y1="79.097" x2="53.161" y2="79.79"/>
   <line stroke-width="0.13" x1="49.844" y1="74.558" x2="49.375" y2="75.314"/>
   <line stroke-width="0.13" x1="48.853" y1="76.158" x2="48.536" y2="76.67"/>
   <g>
    <path stroke-width="0.13" d="M56.079 77.484C56.713 76.319 56.67 74.962 56.076 73.829"/>
    <path stroke-width="0.13" d="M52.85 71.656C50.84 71.444 49.06 72.725 48.63 74.611"/>
    <path stroke-width="0.13" d="M55.604 78.165C55.798 77.945 55.96 77.709 56.079 77.484"/>
   </g>
   <path stroke-width="0.3" d="M46.585 80.097C46.387 80.019 46.206 79.953 46.075 79.921C45.569 79.793 37.091 78.909 35.509 78.718C34.865 78.641 33.859 78.513 32.895 78.387"/>
   <path stroke-width="0.3" d="M32.011 78.271C30.984 78.137 30.173 78.028 30.173 78.028"/>
   <line stroke-width="0.3" x1="29.533" y1="77.597" x2="27.082" y2="68.409"/>
   <line stroke-width="0.3" x1="26.324" y1="62.502" x2="25.978" y2="60.677"/>
   <line stroke-width="0.3" x1="26.015" y1="59.094" x2="26.1" y2="55.415"/>
   <line stroke-width="0.3" x1="26.251" y1="48.792" x2="26.338" y2="44.966"/>
   <path stroke-width="0.13" d="M35.439 19.189C35.06 18.492 33.982 18.05 33.539 18.05"/>
   <path stroke-width="0.3" d="M20.231 27.254C19.295 27.117 17.326 27.589 17.006 27.736"/>
   <g>
    <path stroke-width="0.13" d="M53.472 81.382C54.517 79.739 53.895 77.472 52.082 76.319C50.27 75.167 47.954 75.563 46.908 77.206"/>
    <path stroke-width="0.3" d="M46.908 77.206C45.862 78.847 46.484 81.114 48.298 82.268C50.109 83.421 52.426 83.024 53.472 81.382"/>
    <path stroke="none" fill="#000000" d="M49.223 75.774C48.231 75.944 47.511 76.537 47.034 77.286L46.781 77.125C47.274 76.352 48.164 75.831 49.191 75.655L49.223 75.774z"/>
    <path stroke="none" fill="#000000" d="M53.344 81.301C53.847 80.512 54.029 79.558 53.786 78.677L53.909 78.656C54.17 79.608 54.14 80.608 53.597 81.462L53.344 81.301z"/>
   </g>
   <g>
    <path stroke-width="0.3" d="M55.604 78.165C56.651 76.524 56.029 74.257 54.216 73.103C52.404 71.95 50.087 72.347 49.042 73.989"/>
   </g>
   <line stroke-width="0.3" x1="55.604" y1="78.165" x2="53.472" y2="81.382"/>
   <line stroke-width="0.3" x1="49.042" y1="73.989" x2="46.908" y2="77.206"/>
   <g>
    <path stroke-width="0.13" d="M52.171 80.93C52.813 79.888 52.414 78.474 51.281 77.746"/>
    <path stroke-width="0.13" d="M48.942 77.498C48.506 77.68 48.17 77.977 47.954 78.334C47.304 79.388 47.722 80.825 48.887 81.543C50.051 82.26 51.523 81.984 52.171 80.93"/>
   </g>
   <g>
    <path stroke-width="0.13" d="M52.438 80.941C53.262 79.816 52.923 78.165 51.682 77.256C50.441 76.346 48.765 76.522 47.942 77.647C47.116 78.772 47.456 80.421 48.697 81.331C49.939 82.24 51.613 82.066 52.438 80.941"/>
   </g>
   <text transform="matrix(0 -1 1 0 67.018 90.667)" stroke="none" fill="#000000" font-family="'Helvetica'" font-size="2.117">148 058</text>
   <g>
    <line stroke-width="0.13" x1="47.128" y1="29.283" x2="50.281" y2="20.347"/>
    <line stroke-width="0.13" x1="50.281" y1="20.347" x2="50.677" y2="24.042"/>
    <line stroke-width="0.13" x1="50.677" y1="24.042" x2="56.54" y2="18.381"/>
    <line stroke-width="0.13" x1="56.54" y1="18.381" x2="57.899" y2="19.788"/>
    <line stroke-width="0.13" x1="47.128" y1="29.283" x2="56.17" y2="26.443"/>
    <line stroke-width="0.13" x1="56.17" y1="26.443" x2="52.49" y2="25.919"/>
    <line stroke-width="0.13" x1="52.49" y1="25.919" x2="58.353" y2="20.257"/>
    <line stroke-width="0.13" x1="58.353" y1="20.257" x2="56.993" y2="18.85"/>
    <g>
     <path stroke="none" fill="#000000" d="M47.128 29.283L50.281 20.347 50.677 24.042 56.54 18.381 58.353 20.257 52.49 25.919 56.17 26.443"/>
    </g>
   </g>
  </g>
 </g>
</svg>
