<?xml version="1.0" encoding="utf-8"?>
<!DOCTYPE svg PUBLIC "-//W3C//DTD SVG 1.1//EN" "http://www.w3.org/Graphics/SVG/1.1/DTD/svg11.dtd">
<!-- Generator: PTC Arbortext IsoDraw 7.3 -->
<svg width="100%" height="100%" viewBox="0 0 75 57.908"
 xmlns="http://www.w3.org/2000/svg" xmlns:xlink="http://www.w3.org/1999/xlink"
 fill-rule="evenodd" clip-rule="evenodd" stroke="#000000" stroke-linecap="round" fill="none" xml:space="preserve">
 <g id="Frame">
  <path stroke="none" fill="#FFFFFF" d="M75 57.908L0 57.908 0 0 75 0 75 57.908z"/>
 </g>
 <g id="Colour">
 </g>
 <g id="Standard_x0020_layer">
  <g>
   <g>
    <path stroke-width="0.3" d="M37.74 22.718C37.078 22.407 36.353 22.134 35.655 21.922"/>
    <path stroke-width="0.13" d="M35.655 21.922C35.496 21.873 35.335 21.826 35.197 21.786"/>
    <path stroke-width="0.3" d="M20.32 21.682C16.184 22.772 13.903 24.644 13.878 26.591"/>
    <path stroke-width="0.13" d="M13.878 26.591C13.878 28.657 16.443 30.471 20.359 31.509"/>
    <path stroke="none" fill="#000000" d="M14.028 26.591C14.028 28.17 15.484 29.626 17.934 30.661L17.843 30.701C15.339 29.641 13.728 28.205 13.728 26.591L14.028 26.591z"/>
   </g>
   <g>
    <path stroke-width="0.13" d="M56.972 34.999C56.972 34.091 55.231 33.354 53.084 33.354C50.936 33.354 49.195 34.091 49.195 34.999"/>
    <path stroke-width="0.3" d="M49.195 34.999C49.195 35.905 50.936 36.642 53.084 36.642C55.231 36.642 56.972 35.905 56.972 34.999"/>
    <path stroke="none" fill="#000000" d="M50.38 33.856C49.634 34.171 49.344 34.585 49.344 34.999L49.045 34.999C49.045 34.57 49.515 34.143 50.287 33.817L50.38 33.856z"/>
    <path stroke="none" fill="#000000" d="M56.822 34.999C56.822 34.563 56.463 34.142 55.787 33.856L55.878 33.817C56.609 34.125 57.121 34.527 57.121 34.999L56.822 34.999z"/>
   </g>
   <g>
    <path stroke-width="0.3" d="M60.409 34.999C60.409 33.976 59.237 33.07 57.411 32.5"/>
    <path stroke-width="0.13" d="M48.756 37.496C50.07 37.902 51.597 38.097 53.084 38.094C57.13 38.094 60.409 36.709 60.409 34.999"/>
    <path stroke="none" fill="#000000" d="M58.218 37.168C59.636 36.569 60.259 35.783 60.259 34.999L60.56 34.999C60.56 35.798 59.753 36.597 58.31 37.207L58.218 37.168z"/>
   </g>
   <g>
    <path stroke-width="0.13" d="M20.274 26.416C20.265 26.477 20.263 26.538 20.263 26.591C20.263 28.295 23.533 29.678 27.568 29.678C31.603 29.678 34.875 28.295 34.875 26.591"/>
   </g>
   <line stroke-width="0.13" x1="48.756" y1="37.496" x2="20.359" y2="31.509"/>
   <line stroke-width="0.3" x1="57.411" y1="32.5" x2="37.74" y2="22.718"/>
   <g>
    <path stroke-width="0.3" d="M13.932 28.234C13.932 30.3 16.496 32.113 20.411 33.152"/>
   </g>
   <g>
    <path stroke-width="0.3" d="M56.478 35.801C55.755 35.287 54.473 35.002 53.137 34.999C51.686 34.999 50.421 35.334 49.743 35.84"/>
   </g>
   <g>
    <path stroke-width="0.3" d="M48.81 39.14C50.122 39.546 51.649 39.74 53.137 39.737C57.182 39.737 60.463 38.351 60.463 36.642"/>
   </g>
   <line stroke-width="0.3" x1="48.81" y1="39.14" x2="20.411" y2="33.152"/>
   <line stroke-width="0.3" x1="60.463" y1="36.642" x2="60.322" y2="34.52"/>
   <line stroke-width="0.3" x1="13.932" y1="28.234" x2="13.925" y2="26.115"/>
   <line stroke-width="0.3" x1="35.195" y1="21.786" x2="34.875" y2="26.591"/>
   <line stroke-width="0.3" x1="20.649" y1="20.806" x2="20.263" y2="26.591"/>
   <line stroke-width="0.3" x1="28.435" y1="12.404" x2="37.889" y2="6.811"/>
   <line stroke-width="0.3" x1="33.256" y1="22.931" x2="44.902" y2="16.059"/>
   <g>
    <path stroke-width="0.3" d="M44.551 16.361C44.643 16.292 44.732 16.219 44.805 16.152C46.646 14.475 46.363 11.169 44.176 8.768C42.356 6.769 39.789 6.025 37.89 6.812"/>
   </g>
   <path stroke-width="0.3" d="M20.649 20.806C20.611 18.788 23.556 15.291 28.686 12.256"/>
   <g>
    <path stroke-width="0.3" d="M45.978 12.509C46.395 11.24 45.866 9.673 44.74 8.535C43.968 7.762 43.03 7.304 42.137 7.185"/>
   </g>
   <path stroke-width="0.3" d="M45.89 10.329L50.514 7.583L50.508 7.588C53.427 5.87 57.892 4.828 60.125 4.828"/>
   <path stroke-width="0.3" d="M43.616 7.687L48.768 4.628C52.215 2.601 57.488 1.395 60.125 1.395"/>
   <g>
    <path stroke-width="0.3" d="M19.943 39.689C19.943 40.735 21.144 41.664 23.018 42.25"/>
    <path stroke-width="0.13" d="M23.018 42.25C25.71 43.082 29.277 43.045 31.888 42.25"/>
    <path stroke-width="0.3" d="M31.888 42.25C33.89 41.631 34.954 40.671 34.963 39.689"/>
    <path stroke="none" fill="#000000" d="M23.106 42.198C24.745 42.706 26.731 42.92 28.591 42.798L28.611 42.851C26.673 42.978 24.635 42.829 22.928 42.301L23.106 42.198z"/>
    <path stroke="none" fill="#000000" d="M26.315 42.798C28.347 42.93 30.263 42.673 31.8 42.198L31.978 42.301C30.413 42.784 28.361 42.987 26.295 42.851L26.315 42.798z"/>
   </g>
   <line stroke-width="0.3" x1="34.963" y1="39.689" x2="34.963" y2="38.189"/>
   <line stroke-width="0.3" x1="19.943" y1="39.689" x2="19.943" y2="38.201"/>
   <line stroke-width="0.3" x1="19.943" y1="36.173" x2="19.943" y2="33.005"/>
   <g>
    <path stroke-width="0.3" d="M20.143 38.557C20.951 40.014 24.012 40.997 27.452 41.006C30.94 41.006 33.871 40.002 34.728 38.618"/>
   </g>
   <g>
    <path stroke-width="0.13" d="M19.943 36.173C19.943 37.926 23.306 39.347 27.452 39.347C31.6 39.347 34.963 37.926 34.963 36.173"/>
   </g>
   <line stroke-width="0.3" x1="21.48" y1="41.612" x2="25.254" y2="46.581"/>
   <line stroke-width="0.3" x1="33.426" y1="41.612" x2="29.652" y2="46.581"/>
   <g>
    <path stroke-width="0.13" d="M25.254 46.502C25.254 47.015 26.239 47.43 27.452 47.43C28.667 47.43 29.652 47.015 29.652 46.502"/>
   </g>
   <line stroke-width="0.3" x1="25.254" y1="46.502" x2="25.254" y2="50.648"/>
   <line stroke-width="0.3" x1="29.652" y1="46.502" x2="29.652" y2="50.648"/>
   <g>
    <path stroke-width="0.3" d="M25.254 50.509C25.254 51.023 26.239 51.439 27.452 51.439C28.667 51.439 29.652 51.023 29.652 50.509"/>
   </g>
   <g>
    <path stroke-width="0.3" d="M26.329 56.037C26.329 56.301 26.832 56.512 27.452 56.512C28.074 56.512 28.576 56.301 28.576 56.037"/>
   </g>
   <line stroke-width="0.3" x1="28.576" y1="51.308" x2="28.576" y2="56.037"/>
   <line stroke-width="0.3" x1="26.329" y1="51.308" x2="26.329" y2="56.037"/>
   <path stroke-width="0.13" d="M60.125 1.395C61.121 1.917 60.301 2.462 59.892 3.076C59.482 3.69 59.334 4.942 60.125 4.828C60.915 4.714 60.575 3.758 59.892 3.076"/>
   <path stroke-width="0.3" d="M19.943 35.643C19.489 36.377 19.554 37.679 20.149 38.572"/>
   <path stroke-width="0.3" d="M35.164 36.262C35.334 36.99 35.191 37.926 34.729 38.618"/>
   <text transform="matrix(0 -1 1 0 57.137 55.86)" stroke="none" fill="#000000" font-family="'Helvetica'" font-size="1.764">146 357</text>
  </g>
 </g>
</svg>
