<?xml version="1.0" encoding="utf-8"?>
<!DOCTYPE svg PUBLIC "-//W3C//DTD SVG 1.1//EN" "http://www.w3.org/Graphics/SVG/1.1/DTD/svg11.dtd">
<!-- Generator: PTC Arbortext IsoDraw 7.3 -->
<svg width="100%" height="100%" viewBox="0 0 75.555 60.96"
 xmlns="http://www.w3.org/2000/svg" xmlns:xlink="http://www.w3.org/1999/xlink"
 fill-rule="evenodd" clip-rule="evenodd" stroke="#000000" stroke-linecap="round" fill="none" xml:space="preserve">
 <g id="Frame">
  <path stroke="none" fill="#FFFFFF" d="M75 60.96L0 60.96 0 0 75 0 75 60.96z"/>
 </g>
 <g id="Colour">
 </g>
 <g id="Standard_x0020_layer">
  <g>
   <path stroke-width="0.13" stroke-linejoin="round" stroke-miterlimit="10" d="M71.68 14.35L69.105 14.067L66.405 13.762L63.819 13.47L61.591 13.224L59.965 13.058L59.182 13.009L58.915 13.037L58.743 13.073L58.606 13.122L58.436 13.185L58.174 13.259L57.502 13.42L56.231 13.723L54.665 14.099L53.106 14.484L51.853 14.814L51.213 15.022L50.97 15.166L50.795 15.304L50.667 15.436L50.561 15.566L50.457 15.692L50.359 15.813L50.284 15.919L50.225 16.015L50.173 16.106L50.121 16.196L50.085 16.278L50.067 16.347L50.051 16.408L50.02 16.468L49.954 16.532L49.399 16.684L48.127 16.975L46.502 17.329L44.887 17.675L43.652 17.937L43.164 18.036"/>
   <path stroke-width="0.3" stroke-linejoin="round" stroke-miterlimit="10" d="M43.07 13.178L43.067 14.375L43.064 15.624L43.06 16.751L43.061 17.586L43.07 17.96L43.079 18.03L43.085 18.08L43.094 18.12L43.115 18.16L43.154 18.211L43.267 18.298L43.468 18.42L43.704 18.548L43.926 18.655L44.076 18.714L44.158 18.733L44.213 18.739L44.262 18.736L44.323 18.727L44.412 18.714L45.145 18.567L46.737 18.228L48.609 17.821L50.182 17.468L50.871 17.289L50.911 17.242L50.927 17.201L50.93 17.158L50.936 17.105L50.956 17.036L50.988 16.919L51.033 16.742L51.104 16.53L51.215 16.312L51.375 16.114L51.576 15.961L51.807 15.852L52.09 15.757L52.442 15.657L52.886 15.526L53.783 15.276L55.237 14.903L56.872 14.503L58.311 14.175L59.176 14.016L59.54 13.993L59.781 14L59.982 14.028L60.228 14.064L60.603 14.101L61.667 14.189L63.726 14.369L66.254 14.59L68.719 14.806L70.591 14.967L71.344 15.022"/>
   <path stroke-width="0.3" stroke-linejoin="round" stroke-miterlimit="10" d="M46.67 18.384L47.755 18.957L48.896 19.562L49.923 20.106L50.664 20.498L50.942 20.652"/>
   <path stroke-width="0.3" stroke-linejoin="round" stroke-miterlimit="10" d="M49.866 20.225L49.838 20.39L49.799 20.535L49.768 20.673L49.758 20.818L49.783 20.981L49.84 21.138L49.915 21.275L50.023 21.408L50.17 21.556L50.371 21.736L51.026 22.178L52.268 22.942L53.704 23.795L54.936 24.504L55.572 24.841L55.737 24.891L55.85 24.911L55.945 24.914L56.064 24.914L56.243 24.925L56.914 24.96L58.31 25.024L60.055 25.103L61.773 25.179L63.088 25.236L63.625 25.26L63.648 25.259L63.662 25.257L63.674 25.254L63.689 25.254L63.709 25.26L63.787 25.321L63.959 25.463L64.2 25.65L64.487 25.847L64.799 26.015L65.118 26.149L65.447 26.263L65.79 26.353L66.159 26.411L66.561 26.434L66.996 26.396L67.438 26.303L67.844 26.185L68.18 26.079L68.406 26.015L68.536 25.987L68.62 25.966L68.691 25.951L68.778 25.94L68.911 25.931L69.304 25.943L70.004 25.984L70.784 26.036L71.417 26.079L71.683 26.094"/>
   <path stroke-width="0.3" stroke-linejoin="round" stroke-miterlimit="10" d="M71.094 15.942L70.12 16.187L69.219 16.416L68.368 16.632L67.548 16.835L66.733 17.032L66.034 17.192L65.495 17.306L65.007 17.408L64.45 17.528L63.713 17.702L62.601 17.989L61.206 18.361L59.828 18.736L58.771 19.021L58.344 19.129L58.335 19.118L58.334 19.106L58.338 19.089L58.341 19.07L58.344 19.045L58.344 18.556L58.344 17.431L58.344 16.097L58.344 14.981L58.344 14.521"/>
   <path stroke-width="0.13" stroke-linejoin="round" stroke-miterlimit="10" d="M58.338 15.021L59.253 15.807L60.215 16.634L61.081 17.379L61.706 17.917L61.942 18.126"/>
   <path stroke-width="0.13" stroke-linejoin="round" stroke-miterlimit="10" d="M59.594 14.182L60.573 15.032L61.601 15.928L62.527 16.734L63.197 17.315L63.448 17.539"/>
   <path stroke-width="0.13" stroke-linejoin="round" stroke-miterlimit="10" d="M50.536 21.565L50.968 21.571L51.326 21.582L51.679 21.591L52.093 21.588L52.634 21.565L53.28 21.536L54.003 21.495L54.856 21.42L55.893 21.285L57.164 21.062L58.697 20.696L61.033 20.065L63.795 19.286L66.602 18.477L69.075 17.754L70.837 17.234L71.507 17.039"/>
   <path stroke-width="0.13" stroke-linejoin="round" stroke-miterlimit="10" d="M56.329 19.724L56.116 19.766L55.893 19.811L55.692 19.852L55.545 19.881L55.49 19.894"/>
   <path stroke-width="0.5" stroke-linejoin="round" stroke-miterlimit="10" d="M52.798 15.858L52.871 16.051L52.936 16.239L52.999 16.414L53.063 16.568L53.134 16.696L53.197 16.789L53.247 16.852L53.299 16.9L53.368 16.955L53.469 17.033L53.774 17.231L54.328 17.571L54.956 17.946L55.484 18.248L55.734 18.375L55.777 18.371L55.807 18.359L55.829 18.341L55.859 18.318L55.902 18.291L56.021 18.236L56.232 18.138L56.475 18.019L56.692 17.896L56.825 17.788L56.878 17.704L56.904 17.638L56.911 17.57L56.909 17.484L56.908 17.367L56.776 16.471L56.469 14.6"/>
   <path stroke-width="0.5" stroke-linejoin="round" stroke-miterlimit="10" d="M29.225 32.549L30.594 32.2L32.003 31.838L33.283 31.51L34.255 31.263L34.746 31.14L34.899 31.103L35.003 31.077L35.087 31.056L35.185 31.039L35.332 31.022L35.604 31.015L35.991 31.018L36.396 31.027L36.718 31.033L36.859 31.022L36.869 31.003L36.865 30.983L36.857 30.96L36.853 30.934L36.859 30.905L36.966 30.824L37.206 30.664L37.511 30.449L37.811 30.207L38.033 29.966L38.17 29.763L38.259 29.596L38.319 29.422L38.356 29.207L38.386 28.908L38.328 28.228L38.14 26.954L37.878 25.353L37.598 23.696L37.357 22.246L37.212 21.274L37.125 20.524L37.06 19.85L37.014 19.306L36.985 18.942L36.976 18.809L37.21 18.041L37.814 16.06L38.64 13.353L39.54 10.404L40.253 8.073"/>
   <path stroke-width="0.13" stroke-linejoin="round" stroke-miterlimit="10" d="M44.145 18.817L44.661 21.346L45.209 24.044L45.735 26.629L46.182 28.823L46.493 30.344L46.604 30.917"/>
   <path stroke-width="0.13" stroke-linejoin="round" stroke-miterlimit="10" d="M45.429 18.69L45.771 20.888L46.136 23.216L46.485 25.445L46.783 27.349L46.99 28.696L47.073 29.26L47.079 29.353L47.082 29.413L47.082 29.461L47.079 29.521L47.073 29.614L47 30.387L46.82 32.179L46.585 34.487L46.34 36.81L46.134 38.64L46.015 39.478L45.96 39.652L45.92 39.774L45.874 39.866L45.795 39.956L45.664 40.066L45.029 40.307L43.654 40.74L41.92 41.262L40.209 41.767L38.902 42.148L38.383 42.298L38.162 42.31L37.637 42.338L37.012 42.374L36.487 42.402L36.268 42.415L36.109 42.487L35.729 42.659L35.277 42.865L34.899 43.042L34.746 43.125"/>
   <path stroke-width="0.13" stroke-linejoin="round" stroke-miterlimit="10" d="M40.865 43.715L41.207 43.746L41.895 43.777L42.338 43.749L42.573 43.676L42.75 43.591L42.887 43.491L43.006 43.38L43.13 43.253L43.256 43.1L43.365 42.93L43.451 42.773L43.506 42.655L43.52 42.613"/>
   <path stroke-width="0.13" stroke-linejoin="round" stroke-miterlimit="10" d="M32.323 43.491L32.47 43.362L32.654 43.256L32.89 43.152L33.167 43.076L33.456 43.051L33.761 43.06L34.082 43.084L34.423 43.103L34.804 43.127L35.2 43.164L35.554 43.206L35.811 43.238L35.908 43.252L36.116 43.237L36.615 43.2L37.212 43.155L37.716 43.119L37.938 43.103L37.951 43.103L37.959 43.101L37.966 43.101L37.975 43.101L37.987 43.103L38.06 43.134L38.237 43.209L38.494 43.307L38.814 43.411L39.174 43.5L39.7 43.585L40.427 43.673L40.875 43.715"/>
   <path stroke-width="0.13" stroke-linejoin="round" stroke-miterlimit="10" d="M31.012 47.707L31.233 46.802L31.437 45.898L31.506 45.604"/>
   <path stroke-width="0.5" stroke-linejoin="round" stroke-miterlimit="10" d="M40.753 43.645L42.435 43.036L44.212 42.401L45.912 41.792L47.368 41.265L48.411 40.875L48.868 40.676L48.975 40.588L49.042 40.521L49.087 40.454L49.122 40.363L49.167 40.231L49.226 39.557L49.308 38.084L49.398 36.22L49.479 34.378L49.539 32.972L49.561 32.411L49.546 32.097L49.509 31.349L49.466 30.455L49.429 29.707L49.414 29.393L49.219 28.582L48.731 26.556L48.097 23.923L47.463 21.289L46.975 19.263L46.779 18.454"/>
   <path stroke-width="0.13" stroke-linejoin="round" stroke-miterlimit="10" d="M35.06 31.294L35.341 33.588L35.64 36.036L35.926 38.381L36.17 40.371L36.34 41.752L36.409 42.268"/>
   <path stroke-width="0.5" stroke-linejoin="round" stroke-miterlimit="10" d="M29.379 37.42L29.285 36.304L29.184 35.13L29.094 34.073L29.225 32.549L29.003 33.017"/>
   <path stroke-width="0.5" stroke-linejoin="round" stroke-miterlimit="10" d="M29.839 41.817L29.878 42.1L29.917 42.399L29.954 42.667L29.98 42.862L29.993 42.93"/>
   <path stroke-width="0.3" stroke-linejoin="round" stroke-miterlimit="10" d="M33.412 42.863L32.78 42.883L32.128 42.902L31.536 42.918L31.089 42.932L30.873 42.938L30.815 42.938L30.777 42.936L30.746 42.936L30.708 42.936L30.649 42.938L30.307 42.972L29.599 43.045L28.777 43.134L28.097 43.206L27.818 43.234"/>
   <path stroke-width="0.13" stroke-linejoin="round" stroke-miterlimit="10" d="M26.169 45.473L26.452 45.219L26.734 44.982L26.992 44.759L27.207 44.549L27.362 44.353L27.458 44.179L27.516 44.027L27.548 43.889L27.568 43.752L27.588 43.606L27.602 43.46L27.603 43.329L27.597 43.21L27.591 43.103L27.588 43.009L27.589 42.935L27.594 42.88L27.597 42.832L27.596 42.78L27.588 42.71L27.567 42.634L27.533 42.563L27.498 42.484L27.463 42.387L27.437 42.262L27.431 42.079L27.443 41.834L27.466 41.561L27.49 41.293L27.513 41.069L27.535 40.896L27.561 40.759L27.583 40.64L27.594 40.524L27.586 40.396L27.55 40.276L27.49 40.179L27.428 40.09L27.379 39.993L27.364 39.874L27.403 39.746L27.492 39.627L27.597 39.503L27.689 39.365L27.736 39.203L27.722 39.033L27.663 38.877L27.579 38.715L27.498 38.53L27.437 38.307L27.411 38.06L27.408 37.813L27.419 37.554L27.431 37.274L27.437 36.963L27.442 36.609L27.449 36.238L27.455 35.895L27.454 35.624L27.437 35.469L27.41 35.408L27.376 35.371L27.343 35.344L27.312 35.307L27.289 35.246L27.315 34.939L27.408 34.32L27.521 33.61L27.62 33.026L27.661 32.789"/>
   <path stroke-width="0.13" stroke-linejoin="round" stroke-miterlimit="10" d="M24.16 42.194L24.163 41.64L24.152 41.088L24.146 40.582L24.167 40.165L24.234 39.88L24.327 39.703L24.42 39.575L24.527 39.482L24.658 39.414L24.832 39.356L25.094 39.34L25.434 39.381L25.78 39.454L26.051 39.53L26.175 39.582L26.19 39.607L26.193 39.631L26.187 39.658L26.178 39.689L26.175 39.731L26.167 39.795L26.152 39.89L26.141 39.994L26.146 40.095L26.175 40.179L26.231 40.228L26.301 40.255L26.382 40.271L26.466 40.289L26.548 40.328L26.618 40.381L26.676 40.441L26.73 40.503L26.783 40.564L26.847 40.625L26.914 40.689L26.978 40.753L27.039 40.807L27.094 40.841L27.146 40.85L27.19 40.828L27.228 40.784L27.257 40.729L27.28 40.673L27.294 40.631"/>
   <path stroke-width="0.13" stroke-linejoin="round" stroke-miterlimit="10" d="M26.407 39.947L26.335 38.487L26.263 36.969L26.199 35.597L26.144 34.579L26.108 34.124L26.086 34.034L26.071 33.968L26.051 33.917L26.018 33.871L25.958 33.825L25.818 33.784L25.589 33.762L25.341 33.753L25.143 33.75L25.062 33.75L25.062 33.673L25.062 33.487L25.062 33.267L25.062 33.082L25.062 33.003L25.094 33.003L25.167 33.003L25.256 33.003L25.329 33.003L25.361 33.003L25.336 32.393L25.274 30.865L25.192 28.873L25.105 26.87L25.03 25.309L24.987 24.643L24.966 24.574L24.946 24.524L24.923 24.486L24.89 24.454L24.838 24.419L24.745 24.393L24.611 24.388L24.461 24.387L24.329 24.376L24.242 24.344L24.199 24.294L24.175 24.239L24.167 24.181L24.167 24.117L24.167 24.045L24.164 23.963L24.167 23.879L24.176 23.798L24.199 23.725L24.242 23.672L24.298 23.64L24.364 23.626L24.44 23.629L24.522 23.646L24.614 23.672L24.716 23.707L24.821 23.754L24.928 23.82L25.036 23.914L25.138 24.045L25.222 24.28L25.286 24.625L25.336 24.993L25.384 25.301L25.435 25.463L25.493 25.513L25.55 25.542L25.608 25.554L25.669 25.553L25.734 25.539L25.809 25.495L25.89 25.42L25.961 25.335L26.013 25.268L26.033 25.239L26.025 24.835L26.007 23.873L25.984 22.725L25.966 21.762L25.952 21.356"/>
   <path stroke-width="0.13" stroke-linejoin="round" stroke-miterlimit="10" d="M25.498 24.496L25.468 23.664L25.44 22.803L25.414 22.022L25.385 21.431L25.35 21.137L25.317 21.047L25.288 20.986L25.254 20.94L25.202 20.896L25.126 20.838L24.899 20.751L24.484 20.634L23.993 20.492L23.548 20.333L23.26 20.167L23.128 20.013L23.053 19.876L23.016 19.733L22.993 19.564L22.96 19.346L22.92 19.024L22.89 18.614L22.881 18.192L22.902 17.836L22.96 17.629L23.042 17.542L23.129 17.492L23.225 17.472L23.341 17.469L23.484 17.478L23.707 17.524L24.016 17.623L24.35 17.76L24.641 17.917L24.827 18.077L24.907 18.253L24.934 18.451L24.929 18.635L24.913 18.769L24.899 18.826"/>
   <path stroke-width="0.13" stroke-linejoin="round" stroke-miterlimit="10" d="M38.27 28.306L37.92 28.271L37.581 28.234L37.267 28.199L36.993 28.172L36.777 28.158L36.628 28.149L36.526 28.146L36.438 28.146L36.332 28.149L36.179 28.158L35.912 28.181L35.523 28.222L35.057 28.277L34.563 28.332L34.088 28.382L33.658 28.422L33.262 28.46L32.902 28.49L32.581 28.515L32.296 28.53L32.078 28.542L31.922 28.55L31.785 28.553L31.625 28.548L31.4 28.53L31.01 28.477L30.471 28.384L29.917 28.278L29.484 28.193L29.318 28.152"/>
   <path stroke-width="0.13" stroke-linejoin="round" stroke-miterlimit="10" d="M37.152 30.623L37.003 30.588L36.881 30.55L36.759 30.516L36.61 30.489L36.406 30.475L35.996 30.513L35.326 30.617L34.521 30.745L33.695 30.861L32.972 30.922L32.415 30.936L31.969 30.932L31.57 30.908L31.153 30.856L30.658 30.772L30.059 30.64L29.428 30.469L28.85 30.288L28.411 30.129L28.195 30.027L28.132 29.969L28.094 29.923L28.073 29.875L28.059 29.814L28.045 29.728L28.065 29.562L28.134 29.282L28.222 28.905L28.301 28.451L28.344 27.936L28.309 27.199L28.204 26.219L28.073 25.216L27.955 24.42L27.896 24.053L27.882 23.993L27.873 23.954L27.864 23.923L27.847 23.885L27.821 23.829L27.661 23.568L27.324 23.044L26.934 22.442L26.612 21.946L26.478 21.739L26.478 21.653L26.478 21.451L26.478 21.207L26.478 21.004L26.478 20.919L26.609 20.818L26.925 20.576L27.3 20.289L27.614 20.048L27.746 19.948L27.731 19.457L27.69 18.231L27.635 16.635L27.582 15.041L27.541 13.814L27.527 13.324"/>
   <path stroke-width="0.13" stroke-linejoin="round" stroke-miterlimit="10" d="M28.416 13.526L28.6 15.941L28.798 18.501L28.995 21.027L29.173 23.341L29.318 25.263L29.414 26.612L29.443 27.21L29.428 27.394L29.414 27.516L29.39 27.615L29.356 27.728L29.306 27.896L29.196 28.204L29.022 28.646L28.835 29.103L28.686 29.461L28.615 29.6"/>
   <path stroke-width="0.13" stroke-linejoin="round" stroke-miterlimit="10" d="M28.416 29.396L28.496 28.989L28.576 28.62L28.65 28.268L28.713 27.917L28.759 27.548L28.783 27.224L28.792 26.975L28.789 26.739L28.775 26.449L28.759 26.042L28.707 25.225L28.603 23.803L28.474 22.114L28.346 20.49L28.25 19.271L28.207 18.798"/>
   <path stroke-width="0.13" stroke-linejoin="round" stroke-miterlimit="10" d="M27.928 20.157L27.67 20.346L27.403 20.545L27.163 20.724L26.983 20.855L26.902 20.91L26.884 20.911L26.867 20.908L26.856 20.905L26.844 20.902L26.832 20.91L26.821 20.984L26.809 21.153L26.806 21.367L26.812 21.576L26.832 21.731L26.864 21.818L26.896 21.876L26.936 21.923L26.981 21.981L27.038 22.073L27.181 22.356L27.437 22.871L27.722 23.449L27.957 23.923L28.068 24.118"/>
   <path stroke-width="0.13" stroke-linejoin="round" stroke-miterlimit="10" d="M25.541 21.259L25.766 21.225L26.004 21.187L26.216 21.155L26.37 21.132L26.426 21.117"/>
   <path stroke-width="0.13" stroke-linejoin="round" stroke-miterlimit="10" d="M26.768 20.506L26.774 20.175L26.785 19.841L26.792 19.536L26.791 19.292L26.768 19.137L26.74 19.053L26.714 18.995L26.682 18.951L26.635 18.91L26.564 18.862L26.396 18.801L26.12 18.736L25.809 18.678L25.544 18.647L25.4 18.658L25.356 18.699L25.329 18.748L25.318 18.803L25.321 18.864L25.332 18.931L25.356 19.003L25.397 19.077L25.454 19.15L25.524 19.217L25.606 19.274L25.704 19.306L25.812 19.312L25.923 19.309L26.018 19.315L26.085 19.341L26.121 19.385L26.14 19.429L26.146 19.478L26.147 19.539L26.153 19.615L26.166 19.742L26.176 19.92L26.181 20.111L26.175 20.274L26.153 20.367L26.121 20.4L26.088 20.416L26.05 20.42L26.004 20.423L25.949 20.437L25.868 20.452L25.765 20.463L25.653 20.483L25.55 20.515L25.469 20.574L25.413 20.655L25.373 20.751L25.356 20.853L25.364 20.955L25.405 21.053"/>
   <path stroke-width="0.13" stroke-linejoin="round" stroke-miterlimit="10" d="M25.332 18.859L25.129 18.853L24.955 18.846L24.786 18.839L24.6 18.841L24.373 18.859L24.08 18.905L23.746 18.978L23.428 19.054L23.185 19.114L23.074 19.126"/>
   <path stroke-width="0.13" stroke-linejoin="round" stroke-miterlimit="10" d="M25.806 18.594L25.753 17.26L25.695 15.859L25.643 14.598L25.608 13.683L25.608 13.32"/>
   <path stroke-width="0.13" stroke-linejoin="round" stroke-miterlimit="10" d="M26.699 18.789L26.681 17.437L26.664 16.013L26.646 14.733L26.635 13.807L26.635 13.458"/>
   <path stroke-width="0.13" stroke-linejoin="round" stroke-miterlimit="10" d="M20.545 13.053L20.853 16.58L21.187 20.353L21.524 24.152L21.844 27.76L22.126 30.957L22.347 33.527L22.489 35.247L22.528 35.905L22.501 35.975L22.474 36.024L22.439 36.06L22.391 36.087L22.324 36.109L21.789 36L20.504 35.689L18.748 35.253L16.798 34.771L14.932 34.323L13.429 33.988L11.942 33.704L10.535 33.46L9.35 33.268L8.534 33.145L8.227 33.103"/>
   <path stroke-width="0.13" stroke-linejoin="round" stroke-miterlimit="10" d="M22.387 37.267L22.23 37.274L21.943 37.28L21.583 37.274L21.14 37.25L20.605 37.195L19.896 37.072L18.826 36.844L17.521 36.552L16.103 36.237L14.695 35.936L13.42 35.691L11.977 35.454L10.558 35.249L9.335 35.085L8.475 34.978L8.154 34.936"/>
   <path stroke-width="0.13" stroke-linejoin="round" stroke-miterlimit="10" d="M22.596 36.039L22.707 36.121L22.815 36.189L22.917 36.256L23.004 36.338L23.074 36.45L23.126 36.597L23.157 36.767L23.161 36.938L23.135 37.088L23.074 37.203L22.992 37.265L22.894 37.286L22.777 37.283L22.635 37.273L22.46 37.271L22.39 37.271"/>
   <path stroke-width="0.13" stroke-linejoin="round" stroke-miterlimit="10" d="M22.457 37.337L22.457 37.484L22.472 37.618L22.481 37.744L22.46 37.875L22.388 38.021L22.164 38.192L21.771 38.384L21.321 38.578L20.92 38.759L20.678 38.911L20.589 39.033L20.556 39.143L20.539 39.247L20.501 39.35L20.405 39.462"/>
   <path stroke-width="0.3" stroke-linejoin="round" stroke-miterlimit="10" d="M8.5 38.229L11.055 38.505L13.725 38.783L16.28 39.051L18.49 39.286L20.125 39.475L20.951 39.598L21.295 39.676L21.532 39.728L21.719 39.789L21.916 39.893L22.184 40.078L22.565 40.406L23.036 40.905L23.565 41.539L24.114 42.277L24.647 43.088L25.094 43.936L25.449 44.801L25.771 45.674L26.123 46.543L26.562 47.399L27.039 48.185L27.483 48.869L27.926 49.468L28.407 49.997L28.957 50.478L29.55 50.871L30.126 51.154L30.679 51.354L31.204 51.506L31.695 51.64L32.118 51.741L32.47 51.792L32.781 51.819L33.082 51.85L33.405 51.914L33.698 51.999L33.923 52.079L34.131 52.165L34.375 52.267L34.704 52.393L35.177 52.548L35.77 52.731L36.411 52.938L37.036 53.167L37.579 53.42L38.027 53.686L38.415 53.951L38.737 54.207L38.984 54.444L39.152 54.652L39.247 54.811L39.295 54.933L39.314 55.051L39.329 55.197L39.357 55.404L39.42 56.003L39.509 57.076L39.6 58.271L39.67 59.244L39.698 59.649"/>
   <path stroke-width="0.13" stroke-linejoin="round" stroke-miterlimit="10" d="M65.121 52.381L65.177 52.383L67.849 52.441L68.84 52.469"/>
   <path stroke-width="0.3" stroke-linejoin="round" stroke-miterlimit="10" d="M33.887 51.976L34.685 51.944L35.326 51.911L35.968 51.88L36.759 51.856L37.856 51.84L39.488 51.856L42.64 51.911L46.853 51.993L51.67 52.091L56.637 52.194L58.451 52.235"/>
   <path stroke-width="0.13" stroke-linejoin="round" stroke-miterlimit="10" d="M36.274 52.046L36.752 52.146L37.182 52.216L37.591 52.289L38.009 52.404L38.463 52.594L38.942 52.874L39.399 53.204L39.811 53.554L40.146 53.887L40.378 54.167L40.514 54.374L40.591 54.529L40.634 54.677L40.67 54.862L40.72 55.125L40.799 55.792L40.89 56.92L40.975 58.159L41.039 59.161L41.066 59.579"/>
   <path stroke-width="0.13" stroke-linejoin="round" stroke-miterlimit="10" d="M60.152 54.307L56.746 54.417L53.097 54.534L49.484 54.651L46.189 54.756L43.49 54.843L41.665 54.902L40.996 54.929"/>
   <path stroke-width="0.13" stroke-linejoin="round" stroke-miterlimit="10" d="M40.725 53.959L44.06 53.909L47.631 53.857L51.164 53.807L54.39 53.759L57.03 53.72L58.817 53.695L59.472 53.68"/>
   <path stroke-width="0.3" stroke-linejoin="round" stroke-miterlimit="10" d="M49.923 52.06L50.006 51.883L50.091 51.686L50.167 51.439L50.235 51.091"/>
   <path stroke-width="0.3" stroke-linejoin="round" stroke-miterlimit="10" d="M49.308 51.28L49.345 51.222L49.408 51.156L49.496 51.091L49.613 51.023L49.896 50.914L50.426 50.759L51.131 50.597L51.935 50.466L52.762 50.408L53.564 50.412L54.35 50.46L55.131 50.576L55.92 50.779L56.729 51.091L57.488 51.502L58.143 51.972L58.728 52.49L59.271 53.045L59.808 53.624L60.313 54.194L60.741 54.734L61.095 55.24L61.378 55.715L61.588 56.155L61.725 56.587L61.802 57.008L61.838 57.369L61.851 57.625L61.865 57.722"/>
   <path stroke-width="0.13" stroke-linejoin="round" stroke-miterlimit="10" d="M49.225 52.046L49.238 52.018L49.286 51.908L49.322 51.807L49.341 51.71L49.335 51.625L49.31 51.558L49.283 51.499L49.265 51.438L49.271 51.368L49.301 51.292L49.316 51.279"/>
   <path stroke-width="0.3" stroke-linejoin="round" stroke-miterlimit="10" d="M45.82 47.442L45.854 47.387L46.027 47.231L46.414 46.942L46.966 46.579L47.639 46.206L48.387 45.883L49.194 45.613L50.076 45.378L51.042 45.203L52.097 45.11L53.244 45.13L54.396 45.265L55.484 45.5L56.542 45.834L57.607 46.259L58.718 46.771L59.789 47.341L60.735 47.935L61.584 48.552L62.362 49.192L63.097 49.85L63.728 50.515L64.213 51.152L64.617 51.74L64.998 52.249L65.423 52.655L65.858 52.95L66.246 53.152L66.609 53.29L66.966 53.39L67.338 53.476L67.742 53.54L68.147 53.564L68.5 53.564L68.75 53.552L68.846 53.539"/>
   <path stroke-width="0.13" stroke-linejoin="round" stroke-miterlimit="10" d="M45.862 51.838L45.843 50.795L45.82 49.71L45.801 48.731L45.79 48L45.792 47.664L45.798 47.588L45.799 47.534L45.805 47.491L45.823 47.448"/>
   <path stroke-width="0.13" stroke-linejoin="round" stroke-miterlimit="10" d="M45.792 47.189L45.636 47.173L45.472 47.155L45.325 47.139L45.218 47.127L45.176 47.127"/>
   <path stroke-width="0.13" stroke-linejoin="round" stroke-miterlimit="10" d="M44.899 44.649L44.795 44.078L44.685 43.475L44.587 42.933L44.515 42.542L44.487 42.389"/>
   <path stroke-width="0.13" stroke-linejoin="round" stroke-miterlimit="10" d="M44.076 42.542L44.145 43.011L44.218 43.503L44.283 43.947L44.331 44.267L44.344 44.392"/>
   <path stroke-width="0.13" stroke-linejoin="round" stroke-miterlimit="10" d="M37.99 43.421L38.104 45.182L38.226 47.057L38.344 48.856L38.442 50.383L38.512 51.441L38.539 51.832"/>
   <path stroke-width="0.13" stroke-linejoin="round" stroke-miterlimit="10" d="M37.642 43.561L37.756 45.25L37.881 47.048L38 48.774L38.101 50.237L38.168 51.253L38.182 51.63"/>
   <path stroke-width="0.13" stroke-linejoin="round" stroke-miterlimit="10" d="M35.939 43.701L36.024 45.036L36.115 46.441L36.198 47.704L36.256 48.618L36.284 48.966"/>
   <path stroke-width="0.13" stroke-linejoin="round" stroke-miterlimit="10" d="M35.045 46.841L35.078 47.393L35.11 47.975L35.14 48.496L35.164 48.878L35.179 49.03"/>
   <path stroke-width="0.13" stroke-linejoin="round" stroke-miterlimit="10" d="M45.652 49.451L44.179 49.378L42.609 49.299L41.103 49.223L39.826 49.161L38.939 49.119L38.604 49.106"/>
   <path stroke-width="0.13" stroke-linejoin="round" stroke-miterlimit="10" d="M37.78 49.101L37.018 49.171L36.216 49.244L35.493 49.31L34.97 49.357L34.776 49.371"/>
   <path stroke-width="0.3" stroke-linejoin="round" stroke-miterlimit="10" d="M37.78 51.838L37.18 51.393L36.603 50.963L36.067 50.566L35.587 50.213L35.18 49.921L34.823 49.676L34.497 49.459L34.225 49.281L34.034 49.158L33.951 49.103"/>
   <path stroke-width="0.3" stroke-linejoin="round" stroke-miterlimit="10" d="M33.677 48.893L33.546 48.71L33.45 48.539L33.35 48.38L33.21 48.225L32.993 48.072L32.659 47.936L32.204 47.832L31.647 47.746L31.015 47.67L30.324 47.593L29.492 47.518L28.536 47.46L27.634 47.42L26.963 47.396L26.696 47.381"/>
   <path stroke-width="0.13" stroke-linejoin="round" stroke-miterlimit="10" d="M26.155 47.259L25.778 46.774L25.454 46.31L25.138 45.878L24.792 45.484L24.376 45.139L23.968 44.88L23.621 44.716L23.26 44.606L22.807 44.509L22.187 44.387L21.068 44.256L19.024 44.091L16.454 43.911L13.756 43.735L11.335 43.584L9.586 43.475L8.916 43.432"/>
   <path stroke-width="0.13" stroke-linejoin="round" stroke-miterlimit="10" d="M9.183 42.332L11.612 42.554L14.189 42.793L16.733 43.031L19.062 43.247L20.993 43.423L22.347 43.534L22.937 43.564L23.12 43.548L23.263 43.534L23.376 43.509L23.468 43.456L23.551 43.359L23.599 43.164L23.588 42.872L23.548 42.563L23.504 42.311L23.49 42.201"/>
   <path stroke-width="0.13" stroke-linejoin="round" stroke-miterlimit="10" d="M35.255 28.167L35.325 27.986L35.381 27.838L35.439 27.69L35.506 27.515L35.597 27.277L35.729 26.879L35.905 26.312L36.11 25.693L36.332 25.132L36.554 24.746L36.801 24.515L37.073 24.341L37.325 24.222L37.509 24.152L37.579 24.125"/>
   <path stroke-width="0.13" stroke-linejoin="round" stroke-miterlimit="10" d="M37.515 23.646L37.152 23.731L36.768 23.821L36.423 23.903L36.173 23.963L36.076 23.99"/>
   <path stroke-width="0.13" stroke-linejoin="round" stroke-miterlimit="10" d="M37.445 23.785L37.207 23.896L36.994 23.969L36.79 24.05L36.581 24.179L36.351 24.4L36.036 24.975L35.643 25.94L35.255 27L34.96 27.861L34.848 28.239"/>
   <path stroke-width="0.13" stroke-linejoin="round" stroke-miterlimit="10" d="M32.993 25.292L33.063 26.073L33.136 26.893L33.201 27.632L33.249 28.166L33.262 28.376"/>
   <path stroke-width="0.13" stroke-linejoin="round" stroke-miterlimit="10" d="M32.24 25.082L32.326 25.914L32.417 26.791L32.5 27.579L32.558 28.147L32.587 28.371"/>
   <path stroke-width="0.13" stroke-linejoin="round" stroke-miterlimit="10" d="M35.52 23.24L35.603 23.187L35.652 23.123L35.679 23.045L35.698 22.948L35.725 22.829L35.755 22.652L35.774 22.411L35.786 22.164L35.792 21.966L35.792 21.867"/>
   <path stroke-width="0.13" stroke-linejoin="round" stroke-miterlimit="10" d="M29.1 20.157L29.176 20.207L29.246 20.245L29.314 20.286L29.378 20.341L29.443 20.431L29.489 20.612L29.515 20.893L29.536 21.207L29.574 21.484L29.647 21.661L29.737 21.736L29.824 21.763L29.92 21.766L30.039 21.771L30.195 21.798L30.847 21.986L32.152 22.361L33.662 22.786L34.938 23.125L35.537 23.236"/>
   <path stroke-width="0.13" stroke-linejoin="round" stroke-miterlimit="10" d="M36.204 22.347L36.145 22.76L36.094 23.175L36.043 23.553L35.99 23.861L35.93 24.057L35.872 24.164L35.825 24.234L35.771 24.286L35.697 24.335L35.588 24.4L35.237 24.533L34.579 24.739L33.817 24.961L33.152 25.141L32.783 25.222L32.658 25.225L32.578 25.219L32.509 25.204L32.427 25.181L32.304 25.152L31.905 25.054L31.181 24.865L30.367 24.649L29.704 24.474L29.425 24.403"/>
   <path stroke-width="0.13" stroke-linejoin="round" stroke-miterlimit="10" d="M29.17 21.734L29.248 21.823L29.306 21.902L29.367 21.978L29.452 22.056L29.58 22.143L30.323 22.388L31.862 22.836L33.646 23.341L35.122 23.753L35.737 23.92"/>
   <path stroke-width="0.13" stroke-linejoin="round" stroke-miterlimit="10" d="M32.45 18.454L32.518 19.442L32.591 20.481L32.656 21.417L32.704 22.094L32.719 22.359"/>
   <path stroke-width="0.13" stroke-linejoin="round" stroke-miterlimit="10" d="M37.375 17.015L37.2 16.902L37.045 16.789L36.896 16.684L36.737 16.599L36.554 16.536L36.375 16.524L36.22 16.553L36.067 16.599L35.89 16.626L35.665 16.606L35.31 16.475L34.832 16.237L34.338 15.962L33.942 15.72L33.75 15.58L33.716 15.518L33.709 15.462L33.71 15.41L33.707 15.359L33.682 15.305L33.637 15.253L33.585 15.205L33.52 15.164L33.439 15.13L33.34 15.101L33.191 15.095L32.991 15.118L32.777 15.151L32.585 15.176L32.45 15.169L32.375 15.141L32.328 15.109L32.292 15.073L32.246 15.025L32.176 14.964L31.867 14.717L31.257 14.226L30.554 13.66L29.971 13.189L29.719 12.98"/>
   <path stroke-width="0.13" stroke-linejoin="round" stroke-miterlimit="10" d="M33.607 13.053L33.607 13.589L33.607 14.156L33.607 14.664L33.607 15.032L33.607 15.172"/>
   <path stroke-width="0.13" stroke-linejoin="round" stroke-miterlimit="10" d="M47.844 22.347L50.088 23.582L52.487 24.893L54.859 26.19L57.026 27.376L58.807 28.356L60.026 29.039L60.5 29.327L60.548 29.403L60.57 29.469L60.575 29.53L60.572 29.596L60.569 29.669L60.557 29.742L60.53 29.806L60.503 29.867L60.49 29.934L60.5 30.01L60.545 30.094L60.621 30.176L60.731 30.265L60.872 30.367L61.048 30.489L61.517 30.766L62.359 31.234L63.31 31.746L64.102 32.162L64.468 32.337L64.522 32.338L64.558 32.328L64.587 32.311L64.623 32.29L64.674 32.268L64.753 32.231L64.855 32.176L64.972 32.118L65.099 32.076L65.221 32.064L65.322 32.084L65.403 32.122L65.478 32.179L65.572 32.25L65.7 32.338L66.118 32.603L66.894 33.103L67.769 33.667L68.483 34.131L68.777 34.326"/>
   <path stroke-width="0.13" stroke-linejoin="round" stroke-miterlimit="10" d="M48.317 24.957L51.491 26.629L54.893 28.42L58.32 30.225L61.573 31.939L64.453 33.456L66.759 34.67L68.289 35.475L68.846 35.768"/>
   <path stroke-width="0.13" stroke-linejoin="round" stroke-miterlimit="10" d="M49.002 27.414L52.07 28.926L55.357 30.548L58.67 32.182L61.817 33.732L64.599 35.106L66.828 36.204L68.308 36.933L68.837 37.198"/>
   <path stroke-width="0.13" stroke-linejoin="round" stroke-miterlimit="10" d="M49.49 29.466L52.473 30.841L55.67 32.314L58.893 33.799L61.951 35.21L64.659 36.457L66.825 37.457L68.263 38.118L68.78 38.356"/>
   <path stroke-width="0.13" stroke-linejoin="round" stroke-miterlimit="10" d="M49.615 31.795L52.588 33.012L55.774 34.317L58.984 35.631L62.033 36.878L64.73 37.981L66.888 38.865L68.322 39.451L68.838 39.661"/>
   <path stroke-width="0.13" stroke-linejoin="round" stroke-miterlimit="10" d="M49.615 34.057L52.588 35.103L55.771 36.222L58.979 37.351L62.026 38.423L64.721 39.371L66.882 40.133L68.316 40.64L68.847 40.835"/>
   <path stroke-width="0.13" stroke-linejoin="round" stroke-miterlimit="10" d="M49.545 36.109L52.509 37.082L55.682 38.125L58.881 39.176L61.918 40.173L64.606 41.057L66.757 41.764L68.186 42.232L68.703 42.401"/>
   <path stroke-width="0.13" stroke-linejoin="round" stroke-miterlimit="10" d="M49.42 38.494L52.414 39.332L55.621 40.228L58.851 41.133L61.918 41.99L64.635 42.75L66.808 43.356L68.254 43.758L68.786 43.896"/>
   <path stroke-width="0.13" stroke-linejoin="round" stroke-miterlimit="10" d="M68.918 46.911L65.706 46.359L62.314 45.792L58.97 45.237L55.904 44.723L53.343 44.277L51.515 43.924L50.649 43.695L50.281 43.487L50.018 43.295L49.831 43.097L49.686 42.872L49.555 42.6L49.445 42.28L49.381 41.942L49.368 41.613L49.402 41.323L49.487 41.095L49.597 40.939L49.719 40.832L49.868 40.764L50.06 40.719L50.307 40.685L51.484 40.911L54.189 41.529L57.804 42.386L61.701 43.323L65.257 44.185L67.847 44.819L68.852 45.07"/>
   <path stroke-width="0.13" stroke-linejoin="round" stroke-miterlimit="10" d="M68.778 45.347L65.521 44.591L62.052 43.781L58.625 42.978L55.491 42.246L52.904 41.649L51.113 41.247L50.372 41.106L50.209 41.115L50.079 41.128L49.978 41.158L49.896 41.215L49.826 41.31L49.79 41.506L49.811 41.811L49.878 42.161L49.978 42.496L50.1 42.747L50.218 42.902L50.329 43.003L50.457 43.073L50.625 43.139L50.851 43.226L51.35 43.362L52.259 43.554L53.5 43.793L54.996 44.075L56.667 44.39L58.567 44.743L61.09 45.201L63.804 45.691L66.28 46.134L68.081 46.454L68.778 46.581"/>
   <path stroke-width="0.13" stroke-linejoin="round" stroke-miterlimit="10" d="M48.932 27.009L52 28.521L55.287 30.143L58.6 31.777L61.746 33.328L64.531 34.701L66.759 35.799L68.237 36.529L68.768 36.793"/>
   <path stroke-width="0.13" stroke-linejoin="round" stroke-miterlimit="10" d="M49.42 29.06L52.404 30.435L55.6 31.91L58.823 33.395L61.881 34.804L64.588 36.052L66.756 37.051L68.194 37.715L68.709 37.951"/>
   <path stroke-width="0.13" stroke-linejoin="round" stroke-miterlimit="10" d="M49.545 31.378L52.518 32.594L55.704 33.898L58.914 35.212L61.963 36.459L64.659 37.563L66.819 38.447L68.253 39.033L68.769 39.243"/>
   <path stroke-width="0.13" stroke-linejoin="round" stroke-miterlimit="10" d="M49.545 33.639L52.518 34.685L55.701 35.804L58.911 36.932L61.957 38.003L64.653 38.953L66.811 39.713L68.248 40.222L68.778 40.417"/>
   <path stroke-width="0.13" stroke-linejoin="round" stroke-miterlimit="10" d="M49.49 35.689L52.453 36.664L55.627 37.706L58.826 38.758L61.862 39.755L64.551 40.637L66.701 41.344L68.129 41.814L68.647 41.981"/>
   <path stroke-width="0.13" stroke-linejoin="round" stroke-miterlimit="10" d="M49.35 38.091L52.344 38.926L55.551 39.823L58.781 40.728L61.848 41.585L64.564 42.344L66.739 42.951L68.185 43.353L68.715 43.493"/>
   <path stroke-width="0.13" stroke-linejoin="round" stroke-miterlimit="10" d="M18.074 34.991L18.099 34.57L18.126 34.229L18.152 33.89L18.164 33.472L18.158 32.895L18.076 31.807L17.882 29.778L17.625 27.185L17.344 24.411L17.088 21.835L16.896 19.838L16.815 18.801L16.815 18.286L16.835 17.902L16.864 17.594L16.89 17.297L16.899 16.955L16.9 16.585L16.902 16.248L16.893 15.945L16.867 15.678L16.815 15.445L16.76 15.26L16.714 15.121L16.653 15.006L16.556 14.897L16.396 14.775L15.429 14.538L13.163 14.082L10.125 13.5L6.841 12.884C6.841 12.884 5.945 12.718 5.184 12.667"/>
   <path stroke-width="0.13" stroke-linejoin="round" stroke-miterlimit="10" d="M20.586 12.926L20.46 12.688L20.367 12.47L20.271 12.263L20.134 12.055L19.916 11.836L19.629 11.628L19.289 11.451L18.867 11.285L18.33 11.112L17.65 10.913L16.358 10.646L13.9 10.205L10.776 9.672L7.482 9.121C7.482 9.121 6.147 8.9 5.522 8.599"/>
   <path stroke-width="0.13" stroke-linejoin="round" stroke-miterlimit="10" d="M5.402 25.682L7.7 27.204L10.16 28.835L12.596 30.448L14.817 31.92L16.638 33.125L17.868 33.941L18.315 34.234"/>
   <path stroke-width="0.13" stroke-linejoin="round" stroke-miterlimit="10" d="M6.49 20.478L9.012 21.164L11.712 21.899L14.384 22.626L16.824 23.289L18.821 23.833L20.172 24.202L20.673 24.341"/>
   <path stroke-width="0.13" stroke-linejoin="round" stroke-miterlimit="10" d="M20.083 18.216L17.385 17.932L14.5 17.629L11.643 17.329L9.037 17.056L6.897 16.83L5.445 16.678L4.902 16.623"/>
   <path stroke-width="0.13" stroke-linejoin="round" stroke-miterlimit="10" d="M9.686 17.547L9.452 18.332L9.207 19.161L8.986 19.905L8.826 20.443L8.769 20.652"/>
   <path stroke-width="0.13" stroke-linejoin="round" stroke-miterlimit="10" d="M9.771 21.817L9.473 23.304L9.16 24.87L8.88 26.28L8.711 27.117"/>
   <path stroke-width="0.13" stroke-linejoin="round" stroke-miterlimit="10" d="M8.932 28.614L9.018 29.315L9.106 30.053L9.186 30.718L9.246 31.198L9.274 31.379"/>
   <path stroke-width="0.13" stroke-linejoin="round" stroke-miterlimit="10" d="M10.942 17.713L10.708 18.501L10.462 19.327L10.242 20.073L10.082 20.611L10.025 20.821"/>
   <path stroke-width="0.13" stroke-linejoin="round" stroke-miterlimit="10" d="M11.864 17.713L11.63 18.501L11.384 19.327L11.163 20.073L11.003 20.611L10.946 20.821"/>
   <path stroke-width="0.13" stroke-linejoin="round" stroke-miterlimit="10" d="M13.119 18.132L12.885 18.919L12.64 19.746L12.419 20.492L12.259 21.03L12.202 21.239"/>
   <path stroke-width="0.13" stroke-linejoin="round" stroke-miterlimit="10" d="M13.957 18.216L13.724 19.003L13.477 19.83L13.256 20.576L13.096 21.114L13.041 21.323"/>
   <path stroke-width="0.13" stroke-linejoin="round" stroke-miterlimit="10" d="M14.627 19.053L14.394 19.841L14.147 20.667L13.926 21.413L13.801 21.832"/>
   <path stroke-width="0.13" stroke-linejoin="round" stroke-miterlimit="10" d="M10.859 22.32L10.561 23.807L10.249 25.373L9.968 26.783L9.763 27.8L9.721 27.981"/>
   <path stroke-width="0.13" stroke-linejoin="round" stroke-miterlimit="10" d="M12.031 22.821L11.734 24.309L11.422 25.876L11.14 27.286L10.936 28.303L10.852 28.693"/>
   <path stroke-width="0.13" stroke-linejoin="round" stroke-miterlimit="10" d="M13.035 23.492L12.739 24.98L12.426 26.545L12.144 27.955L11.941 28.972L11.858 29.364"/>
   <path stroke-width="0.13" stroke-linejoin="round" stroke-miterlimit="10" d="M13.957 24.413L13.66 25.9L13.348 27.466L13.066 28.876L12.899 29.742"/>
   <path stroke-width="0.13" stroke-linejoin="round" stroke-miterlimit="10" d="M14.961 25.082L14.664 26.571L14.352 28.137L14.07 29.547L13.867 30.564"/>
   <path stroke-width="0.13" stroke-linejoin="round" stroke-miterlimit="10" d="M16.05 26.018L15.753 27.506L15.441 29.071L15.16 30.481L15.019 31.178"/>
   <path stroke-width="0.13" stroke-linejoin="round" stroke-miterlimit="10" d="M9.771 29.199L9.855 29.902L9.943 30.64L10.025 31.304L10.083 31.783L10.111 31.966"/>
   <path stroke-width="0.13" stroke-linejoin="round" stroke-miterlimit="10" d="M10.775 29.786L10.859 30.487L10.948 31.225L11.029 31.89L11.087 32.371L11.102 32.426"/>
   <path stroke-width="0.13" stroke-linejoin="round" stroke-miterlimit="10" d="M11.864 30.457L11.948 31.158L12.038 31.896L12.118 32.561L12.16 32.853"/>
   <path stroke-width="0.13" stroke-linejoin="round" stroke-miterlimit="10" d="M12.618 30.875L12.702 31.576L12.791 32.314L12.871 32.978L12.9 33.258"/>
   <path stroke-width="0.3" stroke-linejoin="round" stroke-miterlimit="10" d="M68.751 53.554L69.266 53.463L69.736 53.371L70.183 53.287L70.626 53.222L71.087 53.189L71.513 53.192L71.868 53.222L72.194 53.268L72.534 53.317L72.926 53.359"/>
   <path stroke-width="0.3" stroke-linejoin="round" stroke-miterlimit="10" d="M71.68 56.722L71.003 56.787L70.453 56.837L69.905 56.887L69.237 56.956L68.325 57.057L67.013 57.201L64.859 57.432L62.229 57.723L59.493 58.045L57.015 58.368L55.167 58.664L54.316 58.904L54.067 59.237L53.944 59.631L53.902 60.006L53.899 60.292L53.899 60.418"/>
   <path stroke-width="0.13" stroke-linejoin="round" stroke-miterlimit="10" d="M71.765 51.517L70.274 51.481L68.683 51.444L67.159 51.408L65.867 51.378L64.969 51.356L64.635 51.343"/>
   <path stroke-width="0.13" stroke-linejoin="round" stroke-miterlimit="10" d="M71.765 50.344L70.028 50.238L68.177 50.127L66.402 50.018L64.896 49.927L63.85 49.865L63.46 49.837"/>
   <path stroke-width="0.13" stroke-linejoin="round" stroke-miterlimit="10" d="M71.68 49.256L69.575 49.027L67.331 48.784L65.18 48.551L63.354 48.353L62.088 48.216L61.613 48.161"/>
   <path stroke-width="0.13" stroke-linejoin="round" stroke-miterlimit="10" d="M71.513 48.07L68.992 47.682L66.292 47.265L63.618 46.854L61.18 46.479L59.182 46.171L57.832 45.963L57.329 45.893"/>
   <path stroke-width="0.13" stroke-linejoin="round" stroke-miterlimit="10" d="M60.67 29.367L60.643 28.666L60.615 27.926L60.591 27.262L60.573 26.782L60.573 26.6"/>
   <path stroke-width="0.13" stroke-linejoin="round" stroke-miterlimit="10" d="M65.387 31.936L65.387 31.468L65.387 30.975L65.387 30.533L65.387 30.213L65.387 30.086"/>
   <path stroke-width="0.13" stroke-linejoin="round" stroke-miterlimit="10" d="M65.079 32.033L65.079 31.617L65.079 31.179L65.079 30.786L65.079 30.501L65.079 30.39"/>
   <path stroke-width="0.13" stroke-linejoin="round" stroke-miterlimit="10" d="M69.7 31.824L68.822 31.173L67.93 30.513L67.117 29.913L66.477 29.437L66.108 29.157L65.923 29.015L65.774 28.908L65.656 28.818L65.563 28.734L65.492 28.643L65.453 28.554L65.447 28.478L65.448 28.407L65.436 28.329L65.39 28.233L65.091 27.984L64.484 27.547L63.78 27.059L63.191 26.658L62.926 26.489L62.901 26.481L62.881 26.475L62.865 26.475L62.847 26.48L62.825 26.489L62.793 26.515L62.756 26.565L62.713 26.621L62.667 26.67L62.619 26.693L62.579 26.693L62.545 26.679L62.512 26.657L62.47 26.626L62.414 26.591L62.125 26.429L61.536 26.096L60.853 25.71L60.289 25.39L60.051 25.251"/>
   <path stroke-width="0.13" stroke-linejoin="round" stroke-miterlimit="10" d="M49.686 20.742L49.14 20.873L48.566 21.01L48.048 21.132L47.674 21.222L47.534 21.25"/>
   <path stroke-width="0.13" stroke-linejoin="round" stroke-miterlimit="10" d="M49.588 20.129L49.067 20.259L48.521 20.396L48.029 20.518L47.673 20.608L47.533 20.635"/>
   <path stroke-width="0.13" stroke-linejoin="round" stroke-miterlimit="10" d="M32.813 48.655L32.753 48.652L32.39 48.747L32.064 48.945L31.792 49.235L31.599 49.597L31.492 50.003L31.483 50.429L31.57 50.844L31.748 51.222L32.005 51.533L32.323 51.761L32.363 51.774"/>
   <path stroke-width="0.3" stroke-linejoin="round" stroke-miterlimit="10" d="M33.176 51.865L33.408 51.804L33.737 51.606L34.006 51.317L34.201 50.956L34.307 50.548L34.317 50.122L34.229 49.707L34.051 49.331L33.795 49.018L33.478 48.79L33.119 48.664L32.813 48.651"/>
   <path stroke-width="0.13" stroke-linejoin="round" stroke-miterlimit="10" d="M20.838 16.443L21.103 16.574L21.431 16.626L21.743 16.571L22.007 16.414L22.19 16.175L22.275 15.878L22.254 15.554L22.126 15.24L21.907 14.971L21.62 14.772L21.297 14.669L20.972 14.67L20.693 14.769"/>
   <path stroke-width="0.13" stroke-linejoin="round" stroke-miterlimit="10" d="M31.786 15.862C31.353 16.207 31.39 16.978 31.873 17.585C32.353 18.19 33.097 18.402 33.53 18.057C33.965 17.713 33.926 16.942 33.445 16.335C32.963 15.73 32.22 15.518 31.786 15.862z"/>
   <path stroke-width="0.13" stroke-linejoin="round" stroke-miterlimit="10" d="M33.216 16.597L33.104 16.432L32.966 16.3L32.814 16.21L32.661 16.169L32.517 16.179L32.395 16.243L32.304 16.353L32.255 16.503L32.247 16.676L32.284 16.861L32.362 17.045L32.475 17.208L32.612 17.341L32.765 17.432L32.918 17.474L33.063 17.461L33.185 17.399L33.274 17.288L33.325 17.14L33.332 16.966L33.295 16.78L33.216 16.597z"/>
   <path stroke-width="0.13" stroke-linejoin="round" stroke-miterlimit="10" d="M32.701 48.655L32.411 48.643L32.048 48.737L31.721 48.936L31.449 49.225L31.256 49.587L31.149 49.993L31.14 50.418L31.227 50.835L31.405 51.212L31.661 51.524L31.87 51.677"/>
   <path stroke-width="0.13" stroke-linejoin="round" stroke-miterlimit="10" d="M33.579 50.734L33.686 50.67L33.783 50.567L33.853 50.436L33.892 50.29L33.895 50.137L33.863 49.988L33.799 49.853L33.707 49.741L33.594 49.659L33.466 49.615L33.353 49.615"/>
   <path stroke-width="0.13" stroke-linejoin="round" stroke-miterlimit="10" d="M33.356 49.604L33.331 49.603L33.201 49.637L33.082 49.709L32.985 49.813L32.915 49.942L32.878 50.088L32.875 50.24L32.905 50.39L32.969 50.526L33.061 50.637L33.176 50.719L33.304 50.764L33.438 50.77L33.567 50.735L33.582 50.735"/>
   <path stroke-width="0.13" stroke-linejoin="round" stroke-miterlimit="10" d="M20.865 16.806L20.986 16.867L21.315 16.917L21.628 16.862L21.89 16.707L22.074 16.468L22.129 16.257"/>
   <path stroke-width="0.13" stroke-linejoin="round" stroke-miterlimit="10" d="M20.795 15.942L20.806 15.958L20.943 16.085L21.109 16.167L21.286 16.195L21.454 16.166L21.596 16.082L21.693 15.955"/>
   <path stroke-width="0.13" stroke-linejoin="round" stroke-miterlimit="10" d="M20.964 15.121C20.782 15.321 20.823 15.657 21.056 15.868C21.289 16.079 21.628 16.088 21.811 15.887C21.992 15.685 21.951 15.349 21.719 15.137C21.486 14.926 21.147 14.919 20.964 15.121z"/>
   <path stroke-width="0.13" stroke-linejoin="round" stroke-miterlimit="10" d="M21.353 15.705L21.425 15.715L21.492 15.704L21.55 15.669L21.589 15.618L21.609 15.554L21.603 15.483L21.576 15.416L21.528 15.356L21.466 15.314L21.396 15.291L21.326 15.291L21.263 15.314L21.213 15.359L21.184 15.417L21.176 15.486L21.193 15.556L21.231 15.619L21.288 15.67L21.353 15.705z"/>
   <path stroke-width="0.13" stroke-linejoin="round" stroke-miterlimit="10" d="M33.844 43.351L33.493 43.215L33.024 43.201L32.594 43.36L32.237 43.676L31.983 44.127L31.852 44.671L31.853 45.27L31.989 45.871L32.246 46.427L32.606 46.895L33.039 47.232L33.509 47.415L33.978 47.429L34.408 47.271L34.765 46.954L35.02 46.505L35.046 46.393"/>
   <path stroke-width="0.13" stroke-linejoin="round" stroke-miterlimit="10" d="M32.546 43.408L32.198 43.536L31.841 43.853L31.586 44.302L31.454 44.847L31.457 45.445L31.593 46.048L31.85 46.603L32.21 47.07L32.643 47.408L33.112 47.591L33.587 47.606"/>
   <path stroke-width="0.13" stroke-linejoin="round" stroke-miterlimit="10" d="M43.293 44.426L43.06 44.414L42.78 44.542L42.551 44.804L42.393 45.176L42.317 45.631L42.328 46.131L42.427 46.634L42.606 47.101L42.85 47.496L43.14 47.783L43.451 47.939L43.759 47.956L44.037 47.828L44.149 47.703"/>
   <path stroke-width="0.13" stroke-linejoin="round" stroke-miterlimit="10" d="M42.665 44.469L42.386 44.597L42.158 44.857L41.999 45.229L41.921 45.685L41.933 46.183L42.033 46.688L42.212 47.155L42.456 47.548L42.744 47.835L43.055 47.993L43.362 48.008"/>
   <path stroke-width="0.13" stroke-linejoin="round" stroke-miterlimit="10" d="M34.012 47.442L34.404 47.274"/>
   <path stroke-width="0.13" stroke-linejoin="round" stroke-miterlimit="10" d="M42.665 44.469L43.057 44.412"/>
   <path stroke-width="0.3" stroke-linejoin="round" stroke-miterlimit="10" d="M35.24 44.091L35.284 44.21L35.325 44.337L35.362 44.47L35.393 44.609L35.421 44.752L35.445 44.896L35.463 45.043L35.475 45.191L35.484 45.335L35.485 45.478L35.482 45.615L35.475 45.749L35.46 45.875"/>
   <path stroke-width="0.3" stroke-linejoin="round" stroke-miterlimit="10" d="M34.04 43.338L34.152 43.387L34.264 43.439L34.375 43.493L34.484 43.551L34.591 43.61L34.695 43.673L34.793 43.734L34.887 43.798L34.973 43.859L35.054 43.921L35.125 43.981L35.189 44.039L35.244 44.094"/>
   <path stroke-width="0.13" stroke-linejoin="round" stroke-miterlimit="10" d="M33.314 43.421L33.219 43.496L33.122 43.573L33.029 43.654L32.936 43.737L32.847 43.82L32.762 43.905L32.68 43.99L32.606 44.073L32.536 44.155L32.473 44.234L32.418 44.31L32.371 44.381L32.329 44.451"/>
   <path stroke-width="0.13" stroke-linejoin="round" stroke-miterlimit="10" d="M33.049 44.356L33.146 44.283L33.241 44.206L33.335 44.125L33.429 44.042L33.518 43.957L33.603 43.872L33.683 43.789L33.759 43.706L33.829 43.624L33.89 43.545L33.945 43.469L33.993 43.398L34.034 43.328"/>
   <path stroke-width="0.13" stroke-linejoin="round" stroke-miterlimit="10" d="M32.338 44.441L32.325 44.567L32.316 44.698L32.313 44.837L32.316 44.979L32.323 45.125L32.335 45.271L32.353 45.417L32.377 45.564L32.405 45.706L32.438 45.844L32.473 45.978L32.515 46.104L32.555 46.231"/>
   <path stroke-width="0.13" stroke-linejoin="round" stroke-miterlimit="10" d="M33.273 46.143L33.286 46.018L33.295 45.884L33.298 45.746L33.295 45.604L33.287 45.46L33.274 45.313L33.256 45.165L33.234 45.021L33.206 44.878L33.173 44.738L33.137 44.606L33.097 44.479L33.054 44.353"/>
   <path stroke-width="0.13" stroke-linejoin="round" stroke-miterlimit="10" d="M32.561 46.226L32.615 46.283L32.677 46.341L32.75 46.401L32.829 46.462L32.917 46.524L33.009 46.587L33.109 46.649L33.212 46.71L33.32 46.771L33.429 46.829L33.539 46.884L33.652 46.936L33.764 46.978"/>
   <path stroke-width="0.13" stroke-linejoin="round" stroke-miterlimit="10" d="M34.472 46.896L34.42 46.841L34.356 46.783L34.284 46.723L34.204 46.661L34.118 46.6L34.024 46.536L33.926 46.475L33.822 46.414L33.715 46.353L33.606 46.295L33.493 46.24L33.383 46.189L33.271 46.146"/>
   <path stroke-width="0.3" stroke-linejoin="round" stroke-miterlimit="10" d="M35.463 45.863L35.426 45.93L35.378 46.003L35.323 46.079L35.261 46.158L35.192 46.238L35.116 46.323L35.036 46.406L34.95 46.491L34.86 46.576L34.768 46.658L34.673 46.738L34.579 46.817L34.481 46.887"/>
   <path stroke-width="0.13" stroke-linejoin="round" stroke-miterlimit="10" d="M43.755 47.957L43.363 48.014"/>
   <path stroke-width="0.3" stroke-linejoin="round" stroke-miterlimit="10" d="M34.04 43.338L33.329 43.421"/>
   <path stroke-width="0.13" stroke-linejoin="round" stroke-miterlimit="10" d="M33.049 44.356L32.338 44.441"/>
   <path stroke-width="0.13" stroke-linejoin="round" stroke-miterlimit="10" d="M33.273 46.143L32.561 46.226"/>
   <path stroke-width="0.13" stroke-linejoin="round" stroke-miterlimit="10" d="M34.182 43.594C33.594 43.667 33.201 44.399 33.304 45.228C33.406 46.057 33.966 46.671 34.552 46.598C35.139 46.527 35.531 45.795 35.429 44.966C35.328 44.136 34.768 43.521 34.182 43.594z"/>
   <path stroke-width="0.3" stroke-linejoin="round" stroke-miterlimit="10" d="M45.011 45.027L45.06 45.134L45.104 45.25L45.146 45.371L45.183 45.499L45.216 45.63L45.243 45.762L45.265 45.899L45.283 46.033L45.293 46.168L45.298 46.301L45.298 46.429L45.292 46.552L45.279 46.664"/>
   <path stroke-width="0.3" stroke-linejoin="round" stroke-miterlimit="10" d="M44.048 44.343L44.143 44.384L44.238 44.43L44.332 44.479L44.423 44.531L44.511 44.585L44.594 44.64L44.671 44.697L44.744 44.755L44.811 44.811L44.869 44.868L44.92 44.924L44.965 44.978L44.991 45.034"/>
   <path stroke-width="0.13" stroke-linejoin="round" stroke-miterlimit="10" d="M43.293 44.469L43.216 44.539L43.14 44.612L43.067 44.689L42.997 44.767L42.932 44.845L42.871 44.926L42.814 45.003L42.765 45.082L42.719 45.156L42.682 45.229L42.652 45.298L42.628 45.363L42.615 45.42"/>
   <path stroke-width="0.13" stroke-linejoin="round" stroke-miterlimit="10" d="M43.378 45.292L43.454 45.222L43.53 45.148L43.603 45.072L43.673 44.993L43.738 44.914L43.799 44.835L43.856 44.756L43.906 44.679L43.951 44.603L43.988 44.53L44.02 44.462L44.042 44.396L44.057 44.341"/>
   <path stroke-width="0.13" stroke-linejoin="round" stroke-miterlimit="10" d="M42.609 45.417L42.597 45.536L42.591 45.658L42.591 45.787L42.595 45.92L42.606 46.054L42.624 46.189L42.646 46.326L42.673 46.459L42.706 46.59L42.743 46.716L42.784 46.838L42.831 46.954L42.887 47.066"/>
   <path stroke-width="0.13" stroke-linejoin="round" stroke-miterlimit="10" d="M43.643 46.939L43.655 46.82L43.661 46.698L43.661 46.569L43.656 46.436L43.646 46.301L43.628 46.167L43.606 46.03L43.579 45.898L43.546 45.767L43.509 45.64L43.468 45.518L43.421 45.402L43.365 45.29"/>
   <path stroke-width="0.13" stroke-linejoin="round" stroke-miterlimit="10" d="M42.875 47.064L42.909 47.116L42.953 47.17L43.003 47.226L43.063 47.283L43.128 47.341L43.201 47.398L43.28 47.454L43.363 47.509L43.451 47.564L43.542 47.615L43.636 47.664L43.731 47.71L43.829 47.752"/>
   <path stroke-width="0.13" stroke-linejoin="round" stroke-miterlimit="10" d="M44.591 47.637L44.557 47.585L44.514 47.53L44.463 47.475L44.404 47.417L44.338 47.359L44.265 47.302L44.186 47.246L44.103 47.191L44.015 47.137L43.924 47.085L43.831 47.036L43.735 46.99L43.639 46.948"/>
   <path stroke-width="0.3" stroke-linejoin="round" stroke-miterlimit="10" d="M45.276 46.673L45.259 46.734L45.235 46.799L45.204 46.868L45.167 46.942L45.122 47.017L45.073 47.094L45.017 47.173L44.956 47.252L44.89 47.331L44.82 47.408L44.746 47.485L44.671 47.558L44.588 47.628"/>
   <path stroke-width="0.3" stroke-linejoin="round" stroke-miterlimit="10" d="M33.762 46.981L34.472 46.896"/>
   <path stroke-width="0.3" stroke-linejoin="round" stroke-miterlimit="10" d="M44.048 44.343L43.28 44.469"/>
   <path stroke-width="0.13" stroke-linejoin="round" stroke-miterlimit="10" d="M43.378 45.292L42.609 45.417"/>
   <path stroke-width="0.13" stroke-linejoin="round" stroke-miterlimit="10" d="M43.643 46.939L42.875 47.064"/>
   <path stroke-width="0.13" stroke-linejoin="round" stroke-miterlimit="10" d="M44.941 47.204L44.899 47.25L44.74 47.338L44.567 47.363L44.389 47.323L44.213 47.219L44.046 47.058L43.899 46.845L43.776 46.593L43.685 46.31L43.628 46.012L43.609 45.712L43.628 45.423L43.686 45.161L43.779 44.936L43.902 44.761L44.051 44.64L44.216 44.584L44.343 44.584"/>
   <path stroke-width="0.13" stroke-linejoin="round" stroke-miterlimit="10" d="M44.354 44.579L44.402 44.582L44.582 44.655L44.753 44.787L44.911 44.975L45.048 45.21L45.155 45.479L45.229 45.771L45.268 46.073L45.268 46.368L45.228 46.646L45.152 46.89L45.043 47.091L44.947 47.189"/>
   <path stroke-width="0.13" stroke-linejoin="round" stroke-miterlimit="10" d="M28.876 41.286L29.038 41.322L29.425 41.284L29.806 41.13L30.155 40.868L30.451 40.514L30.673 40.091L30.812 39.625L30.856 39.148L30.801 38.686L30.653 38.27L30.42 37.926L30.117 37.676L29.881 37.579"/>
   <path stroke-width="0.5" stroke-linejoin="round" stroke-miterlimit="10" d="M29.882 37.588L29.765 37.542L29.382 37.518L28.995 37.615L28.628 37.826L28.303 38.137L28.042 38.527L27.859 38.975L27.768 39.451L27.772 39.924L27.875 40.366L28.067 40.75L28.336 41.048L28.667 41.246L28.876 41.287"/>
   <path stroke-width="0.13" stroke-linejoin="round" stroke-miterlimit="10" d="M32.859 42.442C32.899 42.459 32.939 42.472 32.981 42.484C33.786 42.707 34.673 42.054 34.959 41.024C35.244 39.996 34.823 38.978 34.017 38.755C33.996 38.749 33.976 38.743 33.957 38.74"/>
   <path stroke-width="0.3" stroke-linejoin="round" stroke-miterlimit="10" d="M43.823 47.762L44.591 47.637"/>
   <path stroke-width="0.3" stroke-linejoin="round" stroke-miterlimit="10" d="M33.957 38.732L29.769 37.531"/>
   <path stroke-width="0.13" stroke-linejoin="round" stroke-miterlimit="10" d="M29.623 37.661C28.9 37.46 28.105 38.046 27.847 38.972C27.591 39.896 27.969 40.808 28.693 41.009C29.417 41.21 30.213 40.624 30.469 39.7C30.725 38.774 30.347 37.862 29.623 37.661z"/>
   <path stroke-width="0.13" stroke-linejoin="round" stroke-miterlimit="10" d="M33.091 38.398L33.137 38.371L33.179 38.347L33.219 38.323L33.259 38.302L33.302 38.283L33.345 38.267L33.384 38.253L33.42 38.243L33.451 38.237L33.481 38.234L33.506 38.238L33.523 38.246L33.539 38.255L33.555 38.262L33.579 38.268L33.606 38.267L33.637 38.261L33.667 38.253L33.703 38.243L33.741 38.234L33.78 38.225L33.819 38.216L33.856 38.207L33.895 38.201L33.936 38.203L33.976 38.21L34.012 38.225L34.045 38.243L34.079 38.258L34.115 38.268L34.151 38.268L34.18 38.264L34.21 38.256L34.24 38.252L34.277 38.25L34.319 38.256L34.359 38.262L34.399 38.271L34.438 38.283L34.472 38.299L34.5 38.319L34.521 38.338L34.537 38.357L34.557 38.378L34.587 38.398L34.625 38.412L34.667 38.423L34.715 38.432L34.764 38.445L34.814 38.463L34.862 38.482L34.902 38.502L34.941 38.524L34.981 38.552L35.026 38.593L35.073 38.646L35.121 38.713L35.164 38.784L35.204 38.854L35.237 38.917L35.259 38.969L35.271 39.012L35.28 39.048L35.293 39.087L35.317 39.128L35.354 39.168L35.399 39.201L35.445 39.232L35.49 39.265L35.53 39.307L35.561 39.351L35.585 39.393L35.603 39.433L35.616 39.479L35.627 39.536L35.628 39.595L35.621 39.655L35.607 39.715L35.597 39.777L35.594 39.844L35.6 39.909L35.61 39.968L35.625 40.023L35.64 40.078L35.659 40.137L35.682 40.192L35.709 40.238L35.734 40.28L35.752 40.326L35.756 40.381L35.743 40.436L35.716 40.487L35.679 40.539L35.643 40.594L35.61 40.656L35.588 40.72L35.57 40.779L35.557 40.835L35.543 40.896L35.53 40.966L35.517 41.034L35.509 41.097L35.502 41.156L35.493 41.219L35.481 41.29L35.466 41.365L35.45 41.435L35.433 41.502L35.417 41.563L35.399 41.615L35.384 41.656L35.369 41.686L35.356 41.713L35.34 41.74L35.319 41.779L35.292 41.828L35.262 41.884L35.231 41.939L35.201 41.987L35.171 42.023L35.148 42.042L35.127 42.051L35.106 42.058L35.085 42.069L35.058 42.087L35.024 42.121L34.985 42.17L34.944 42.225L34.902 42.28L34.862 42.331L34.832 42.372L34.805 42.408L34.783 42.439L34.759 42.468L34.732 42.493L34.706 42.514L34.682 42.527L34.658 42.539L34.633 42.548L34.603 42.558L34.573 42.567L34.546 42.573L34.52 42.576L34.49 42.582L34.457 42.591L34.418 42.603L34.381 42.615L34.344 42.63L34.308 42.643L34.279 42.655L34.252 42.667L34.229 42.679L34.212 42.689L34.195 42.698L34.18 42.704L34.168 42.71L34.161 42.713L34.152 42.715L34.145 42.718L34.131 42.72L34.115 42.726L34.093 42.734L34.066 42.74L34.036 42.747L34.002 42.753L33.966 42.755L33.929 42.753L33.892 42.75L33.851 42.75L33.807 42.753L33.761 42.765L33.716 42.78L33.673 42.798L33.634 42.811L33.595 42.819L33.564 42.817L33.542 42.811L33.521 42.804L33.497 42.795L33.466 42.786L33.42 42.777L33.363 42.768L33.304 42.759L33.249 42.75L33.206 42.737L33.176 42.725L33.154 42.715L33.136 42.704L33.116 42.689L33.091 42.671L33.058 42.649L33.021 42.621L32.984 42.594L32.953 42.566L32.929 42.542L32.911 42.521L32.899 42.499L32.889 42.479L32.883 42.466"/>
   <path stroke-width="0.3" stroke-linejoin="round" stroke-miterlimit="10" d="M43.07 13.178L43.064 12.83L43.039 12.507L43.024 12.204L43.042 11.909L43.121 11.614L43.235 11.355L43.356 11.153L43.512 10.98L43.732 10.801L44.045 10.589L45.1 10.186L47.582 9.339L51.075 8.176L55.167 6.828L59.442 5.432L63.487 4.115L66.89 3.011L69.234 2.251L70.114 1.972"/>
   <path stroke-width="0.13" stroke-linejoin="round" stroke-miterlimit="10" d="M56.664 17.463L56.143 17.106L55.616 16.737L55.136 16.403L54.75 16.152L54.509 16.027L54.38 15.99L54.283 15.971L54.201 15.971L54.112 15.99L53.996 16.027L53.823 16.12L53.609 16.275L53.399 16.446L53.238 16.585L53.168 16.64"/>
   <path stroke-width="0.13" stroke-linejoin="round" stroke-miterlimit="10" d="M54.067 15.201L54.194 15.928"/>
   <path stroke-width="0.13" stroke-linejoin="round" stroke-miterlimit="10" d="M52.087 4.203L52.701 7.637"/>
   <path stroke-width="0.5" stroke-linejoin="round" stroke-miterlimit="10" d="M55.045 6.87L54.988 6.535"/>
   <path stroke-width="0.5" stroke-linejoin="round" stroke-miterlimit="10" d="M54.988 6.535L52.087 4.203"/>
   <path stroke-width="0.5" stroke-linejoin="round" stroke-miterlimit="10" d="M52.087 4.203L40.265 8.07"/>
   <path stroke-width="0.13" stroke-linejoin="round" stroke-miterlimit="10" d="M51.026 20.644L51.331 20.678L51.597 20.722L51.854 20.759L52.134 20.771L52.462 20.748L52.831 20.695L53.201 20.623L53.561 20.515L53.901 20.358L54.206 20.132L54.46 19.817L54.656 19.439L54.796 19.053L54.884 18.719L54.924 18.489L54.927 18.338L54.909 18.204L54.881 18.094L54.847 18.015L54.82 17.974"/>
   <path stroke-width="0.13" stroke-linejoin="round" stroke-miterlimit="10" d="M36.845 31.196L37.127 33.49L37.426 35.938L37.713 38.283L37.957 40.274L38.127 41.654L38.195 42.17"/>
   <path stroke-width="0.5" stroke-linejoin="round" stroke-miterlimit="10" d="M53.746 5.056L53.674 4.333L53.625 3.629L53.573 2.976L53.49 2.415L53.35 1.98L53.176 1.667L52.996 1.431L52.807 1.252L52.597 1.11L52.357 0.989L52.131 0.895L51.938 0.845L51.737 0.832L51.493 0.85L51.167 0.89L50.218 1.12L48.307 1.657L45.896 2.395L43.444 3.228L41.411 4.051L40.256 4.758L39.731 5.583L39.453 6.492L39.347 7.333L39.343 7.961L39.365 8.23L39.375 8.262L39.389 8.285L39.405 8.301L39.43 8.314L39.463 8.329L39.539 8.339L39.665 8.34L39.802 8.336L39.914 8.332L39.956 8.332"/>
   <path stroke-width="0.5" stroke-linejoin="round" stroke-miterlimit="10" d="M39.567 8.321L39.542 8.698L39.515 9.095L39.493 9.451L39.475 9.71L39.475 9.807"/>
   <path stroke-width="0.5" stroke-linejoin="round" stroke-miterlimit="10" d="M41.646 7.232L41.7 6.964L41.732 6.711L41.77 6.474L41.832 6.251L41.944 6.041L42.079 5.875L42.21 5.759L42.365 5.668L42.567 5.573L42.837 5.447L43.612 5.16L45.155 4.634L47.073 4.003L48.975 3.395L50.47 2.94L51.168 2.769L51.347 2.788L51.482 2.819L51.59 2.87L51.679 2.95L51.764 3.067L51.819 3.28L51.826 3.585L51.804 3.905L51.777 4.155L51.764 4.253"/>
   <path stroke-width="0.3" stroke-linejoin="round" stroke-miterlimit="10" d="M28.667 41.244L32.853 42.445"/>
   <path stroke-width="0.13" stroke-linecap="butt" fill="#000000" d="M54.936 24.504L57.128 23.44 51.177 19.556 50.551 26.635 52.743 25.57 55.405 31.05 57.598 29.986 54.936 24.504z"/>
   <line stroke-width="0.5" x1="28.876" y1="41.287" x2="29.888" y2="41.64"/>
   <text transform="matrix(0 -1 1 0 74.849 60.807)" stroke="none" fill="#000000" font-family="'Arial'" font-size="2.117">146 189</text>
  </g>
 </g>
</svg>
