<?xml version="1.0" encoding="utf-8"?>
<!DOCTYPE svg PUBLIC "-//W3C//DTD SVG 1.1//EN" "http://www.w3.org/Graphics/SVG/1.1/DTD/svg11.dtd">
<!-- Generator: PTC Arbortext IsoDraw 7.3 -->
<svg width="100%" height="100%" viewBox="0 0 75 61.265"
 xmlns="http://www.w3.org/2000/svg" xmlns:xlink="http://www.w3.org/1999/xlink"
 fill-rule="evenodd" clip-rule="evenodd" stroke="#000000" stroke-linecap="round" fill="none" xml:space="preserve">
 <g id="Frame">
  <path stroke="none" fill="#FFFFFF" d="M75 61.265L0 61.265 0 0 75 0 75 61.265z"/>
 </g>
 <g id="Standard_x0020_layer">
  <g>
   <path stroke-width="0.13" stroke-linejoin="round" stroke-miterlimit="10" d="M34.691 29.597L35.186 29.426"/>
   <path stroke-width="0.13" stroke-linejoin="round" stroke-miterlimit="10" d="M35.201 29.44L35.277 28.774"/>
  </g>
  <g>
   <path stroke-width="0.3" stroke-linejoin="round" stroke-miterlimit="10" d="M35.277 28.762L38.542 28.344"/>
   <path stroke-width="0.3" stroke-linejoin="round" stroke-miterlimit="10" d="M38.542 28.344L52.417 38.46"/>
   <path stroke-width="0.3" stroke-linejoin="round" stroke-miterlimit="10" d="M52.417 38.46L51.752 58.353"/>
  </g>
  <g>
   <path stroke-width="0.13" stroke-linejoin="round" stroke-miterlimit="10" d="M51.831 38.63L48.488 39.125"/>
   <path stroke-width="0.13" stroke-linejoin="round" stroke-miterlimit="10" d="M48.488 39.125L47.405 38.121"/>
   <path stroke-width="0.13" stroke-linejoin="round" stroke-miterlimit="10" d="M47.405 38.134L50.329 37.716"/>
   <path stroke-width="0.13" stroke-linejoin="round" stroke-miterlimit="10" d="M48.488 39.125L48.567 41.463"/>
   <path stroke-width="0.13" stroke-linejoin="round" stroke-miterlimit="10" d="M45.89 41.475L39.533 37.128"/>
   <path stroke-width="0.13" stroke-linejoin="round" stroke-miterlimit="10" d="M45.304 42.31L39.115 37.965"/>
   <path stroke-width="0.13" stroke-linejoin="round" stroke-miterlimit="10" d="M36.036 36.201L33.451 35.954"/>
   <path stroke-width="0.13" stroke-linejoin="round" stroke-miterlimit="10" d="M33.438 35.954L33.359 35.706"/>
   <path stroke-width="0.13" stroke-linejoin="round" stroke-miterlimit="10" d="M33.359 35.706L27.341 35.457"/>
   <path stroke-width="0.13" stroke-linejoin="round" stroke-miterlimit="10" d="M36.113 37.298L33.438 37.051"/>
   <path stroke-width="0.13" stroke-linejoin="round" stroke-miterlimit="10" d="M33.438 37.036L33.359 37.454"/>
   <path stroke-width="0.13" stroke-linejoin="round" stroke-miterlimit="10" d="M33.359 37.454L27.172 37.115"/>
   <path stroke-width="0.13" stroke-linejoin="round" stroke-miterlimit="10" d="M46.817 38.042L46.152 38.212"/>
   <path stroke-width="0.13" stroke-linejoin="round" stroke-miterlimit="10" d="M46.139 38.212L35.697 29.349"/>
   <path stroke-width="0.13" stroke-linejoin="round" stroke-miterlimit="10" d="M39.546 39.636L37.459 40.052"/>
   <path stroke-width="0.13" stroke-linejoin="round" stroke-miterlimit="10" d="M37.459 40.052L37.38 40.222"/>
   <path stroke-width="0.13" stroke-linejoin="round" stroke-miterlimit="10" d="M37.366 40.222L35.865 40.301"/>
   <path stroke-width="0.13" stroke-linejoin="round" stroke-miterlimit="10" d="M40.799 40.548L37.706 41.215"/>
   <path stroke-width="0.13" stroke-linejoin="round" stroke-miterlimit="10" d="M37.706 41.215L35.957 41.384"/>
   <path stroke-width="0.13" stroke-linejoin="round" stroke-miterlimit="10" d="M37.198 37.716L37.276 40.143"/>
   <path stroke-width="0.13" stroke-linejoin="round" stroke-miterlimit="10" d="M36.036 37.625L36.036 40.052"/>
  </g>
  <g>
   <path stroke-width="0.3" stroke-linejoin="round" stroke-miterlimit="10" d="M35.618 37.454L35.448 38.29"/>
   <path stroke-width="0.3" stroke-linejoin="round" stroke-miterlimit="10" d="M35.448 38.29L34.951 38.29"/>
   <path stroke-width="0.3" stroke-linejoin="round" stroke-miterlimit="10" d="M34.939 38.29L34.103 44.308"/>
   <path stroke-width="0.3" stroke-linejoin="round" stroke-miterlimit="10" d="M34.103 44.308L34.024 51.5"/>
   <path stroke-width="0.3" stroke-linejoin="round" stroke-miterlimit="10" d="M34.024 51.5L37.954 58.353"/>
  </g>
  <g>
   <path stroke-width="0.13" stroke-linejoin="round" stroke-miterlimit="10" d="M34.521 50.17L39.533 58.106"/>
   <path stroke-width="0.13" stroke-linejoin="round" stroke-miterlimit="10" d="M35.865 49.49L41.218 58.106"/>
   <path stroke-width="0.13" stroke-linejoin="round" stroke-miterlimit="10" d="M36.192 41.723L36.113 49.831"/>
   <path stroke-width="0.13" stroke-linejoin="round" stroke-miterlimit="10" d="M38.033 41.384L38.033 53.002"/>
   <path stroke-width="0.13" stroke-linejoin="round" stroke-miterlimit="10" d="M39.037 41.136L38.96 53.838"/>
   <path stroke-width="0.13" stroke-linejoin="round" stroke-miterlimit="10" d="M39.965 47.232L45.317 54.334"/>
   <path stroke-width="0.13" stroke-linejoin="round" stroke-miterlimit="10" d="M39.795 48.158L45.564 56.265"/>
   <path stroke-width="0.13" stroke-linejoin="round" stroke-miterlimit="10" d="M45.564 53.094L45.485 57.609"/>
   <path stroke-width="0.13" stroke-linejoin="round" stroke-miterlimit="10" d="M46.399 53.759L46.322 57.518"/>
   <path stroke-width="0.13" stroke-linejoin="round" stroke-miterlimit="10" d="M47.901 53.588L47.901 57.857"/>
   <path stroke-width="0.13" stroke-linejoin="round" stroke-miterlimit="10" d="M48.07 53.341L48.984 57.348"/>
   <path stroke-width="0.13" stroke-linejoin="round" stroke-miterlimit="10" d="M48.984 57.348L48.905 58.015"/>
   <path stroke-width="0.13" stroke-linejoin="round" stroke-miterlimit="10" d="M48.319 53.42L49.232 57.271"/>
   <path stroke-width="0.13" stroke-linejoin="round" stroke-miterlimit="10" d="M49.232 57.271L49.232 57.936"/>
   <path stroke-width="0.13" stroke-linejoin="round" stroke-miterlimit="10" d="M37.289 31.946L45.904 39.295"/>
   <path stroke-width="0.13" stroke-linejoin="round" stroke-miterlimit="10" d="M47.235 39.387L45.146 39.726"/>
   <path stroke-width="0.13" stroke-linejoin="round" stroke-miterlimit="10" d="M47.823 40.796L45.904 41.136"/>
   <path stroke-width="0.13" stroke-linejoin="round" stroke-miterlimit="10" d="M46.139 41.384L48.814 41.554"/>
   <path stroke-width="0.13" stroke-linejoin="round" stroke-miterlimit="10" d="M40.213 40.796L40.213 46.645"/>
   <path stroke-width="0.13" stroke-linejoin="round" stroke-miterlimit="10" d="M40.213 46.149L41.048 45.978"/>
  </g>
  <path stroke-width="0.3" stroke-linejoin="round" stroke-miterlimit="10" d="M33.854 46.149L30.684 46.645"/>
  <g>
   <path stroke-width="0.13" stroke-linejoin="round" stroke-miterlimit="10" d="M34.024 46.984L30.684 47.481"/>
   <path stroke-width="0.13" stroke-linejoin="round" stroke-miterlimit="10" d="M33.854 48.237L30.175 48.994"/>
   <path stroke-width="0.13" stroke-linejoin="round" stroke-miterlimit="10" d="M28.176 49.334L28.673 49.831"/>
   <path stroke-width="0.13" stroke-linejoin="round" stroke-miterlimit="10" d="M28.673 49.831L28.504 51.918"/>
   <path stroke-width="0.13" stroke-linejoin="round" stroke-miterlimit="10" d="M29.26 52.506L30.591 50.914"/>
   <path stroke-width="0.13" stroke-linejoin="round" stroke-miterlimit="10" d="M30.591 50.914L31.428 49.243"/>
   <path stroke-width="0.13" stroke-linejoin="round" stroke-miterlimit="10" d="M42.549 47.154L44.142 48.902"/>
   <path stroke-width="0.13" stroke-linejoin="round" stroke-miterlimit="10" d="M44.22 48.158L44.298 51.67"/>
   <path stroke-width="0.13" stroke-linejoin="round" stroke-miterlimit="10" d="M49.493 48.158L49.246 52.167"/>
  </g>
  <path stroke-width="0.3" stroke-linejoin="round" stroke-miterlimit="10" d="M52 55.182L52.359 55.578L52.679 55.966L52.984 56.326L53.305 56.63L53.671 56.853L54.018 56.981L54.302 57.027L54.591 57.018L54.944 56.979L55.426 56.938L56.359 56.81L58.107 56.518L60.325 56.131L62.659 55.713L64.763 55.331L66.287 55.048L66.873 54.93"/>
  <g>
   <path stroke-width="0.13" stroke-linejoin="round" stroke-miterlimit="10" d="M69.049 57.439L68.703 57.192L68.376 56.978L68.07 56.77L67.792 56.542L67.543 56.27L67.35 56.006L67.216 55.784L67.121 55.552L67.043 55.259L66.959 54.848L66.918 53.926L66.924 52.067L66.956 49.594L67.001 46.834L67.042 44.106L67.061 41.74L67.042 40.054L66.983 38.604L66.921 37.557L66.846 36.673L66.751 35.719L66.623 34.454L66.49 33.082L66.337 31.556L66.173 30.013L66.006 28.593L65.846 27.437L65.704 26.681L65.537 26.153L65.364 25.757L65.197 25.44L65.055 25.152L64.951 24.843L64.882 24.542L64.832 24.298L64.81 24.077L64.819 23.852L64.868 23.588L64.935 23.312L65.013 23.059L65.135 22.818L65.326 22.58L65.62 22.335L66.469 22.051L68.138 21.67L70.188 21.257L72.191 20.879L73.71 20.603L74.311 20.498"/>
   <path stroke-width="0.13" stroke-linejoin="round" stroke-miterlimit="10" d="M46.399 14.558L45.883 15.138L45.411 15.614L44.963 16.085L44.52 16.647L44.06 17.4L43.63 18.303L43.27 19.266L42.96 20.324L42.673 21.501L42.387 22.833L42.164 24.167L41.976 25.682L41.829 27.189L41.722 28.498L41.658 29.422L41.631 29.774"/>
   <path stroke-width="0.13" stroke-linejoin="round" stroke-miterlimit="10" d="M43.475 14.388L43.131 15.524L42.807 16.513L42.502 17.445L42.207 18.402L41.92 19.472L41.637 20.742L41.365 22.33L41.195 23.585"/>
  </g>
  <g>
   <path stroke-width="0.3" stroke-linejoin="round" stroke-miterlimit="10" d="M61.112 13.894L60.694 13.397L60.319 12.929L59.962 12.49L59.594 12.086L59.189 11.721L58.804 11.42L58.478 11.195L58.162 11.019L57.802 10.867L57.35 10.717L56.759 10.58L56.085 10.487L55.432 10.438L54.901 10.429L54.591 10.467L54.469 10.541L54.404 10.637L54.356 10.737L54.292 10.824L54.173 10.884L53.848 10.836L53.289 10.664L52.642 10.441L52.051 10.239L51.667 10.132L51.439 10.109L51.234 10.108L51.067 10.115L50.954 10.127L50.914 10.132L50.954 10.128L51.054 10.124L51.194 10.13L51.35 10.156L51.5 10.215L51.643 10.311L51.789 10.442L51.932 10.608L52.063 10.811L52.167 11.051L52.234 11.356L52.259 11.715L52.25 12.083L52.216 12.407L52.167 12.64L52.121 12.787L52.075 12.899L52.02 12.984L51.942 13.061L51.834 13.141L51.656 13.214L51.418 13.263L51.179 13.295L50.991 13.31L50.914 13.307L50.92 13.297L50.944 13.279L50.979 13.26L51.027 13.24L51.082 13.224L51.448 13.205L52.265 13.18L53.284 13.157L54.255 13.141L54.926 13.141L55.29 13.147L55.548 13.154L55.765 13.166L56.009 13.188L56.347 13.224L56.826 13.298L57.396 13.407L57.978 13.519L58.49 13.609L58.854 13.641L59.094 13.634L59.287 13.615L59.447 13.585L59.579 13.538L59.691 13.474L59.784 13.397L59.856 13.317L59.906 13.231L59.936 13.144L59.942 13.057L59.929 12.98L59.898 12.916L59.848 12.858L59.78 12.795L59.691 12.723L59.515 12.614L59.231 12.465L58.89 12.305L58.551 12.16L58.27 12.054L58.057 11.997L57.878 11.97L57.722 11.952L57.578 11.931L57.433 11.887L57.287 11.813L57.151 11.725L57.039 11.641L56.96 11.577L56.935 11.551"/>
   <path stroke-width="0.3" stroke-linejoin="round" stroke-miterlimit="10" d="M51.243 10.289L51.109 10.114L51.003 9.941L50.896 9.779L50.762 9.643L50.573 9.538L50.307 9.49L49.982 9.506L49.652 9.561L49.359 9.634L49.154 9.705L49.039 9.775L48.969 9.856L48.917 9.936L48.848 10L48.735 10.039L48.533 10.009L48.232 9.896L47.857 9.73L47.432 9.544L46.981 9.371L46.551 9.224L46.154 9.086L45.744 8.957L45.283 8.83L44.723 8.702L44.024 8.58L43.24 8.477L42.469 8.391L41.816 8.327L41.38 8.285L41.097 8.256L40.845 8.233L40.643 8.215L40.509 8.205L40.457 8.205"/>
   <path stroke-width="0.3" stroke-linejoin="round" stroke-miterlimit="10" d="M50.902 13.214L50.564 13.307L50.265 13.394L49.976 13.475L49.67 13.554L49.316 13.632L48.945 13.705L48.603 13.769L48.271 13.82L47.929 13.859L47.56 13.884L47.218 13.881L46.936 13.855L46.665 13.82L46.359 13.795L45.972 13.8L45.523 13.864L45.057 13.98L44.554 14.105L44.002 14.198L43.381 14.217L42.719 14.128L42.063 13.958L41.418 13.747L40.796 13.541L40.204 13.381L39.621 13.269L39.055 13.176L38.576 13.106L38.24 13.063L38.109 13.05"/>
   <path stroke-width="0.3" stroke-linejoin="round" stroke-miterlimit="10" d="M27.25 9.717L27.579 10.125L27.896 10.462L28.189 10.797L28.451 11.194L28.672 11.723L28.8 12.43L28.824 13.257L28.783 14.108L28.719 14.881L28.672 15.484L28.638 15.929L28.599 16.303L28.557 16.614L28.524 16.867L28.504 17.071L28.489 17.242L28.471 17.39L28.46 17.51L28.468 17.6L28.504 17.657L28.571 17.655L28.653 17.603L28.745 17.535L28.838 17.484L28.922 17.489L28.995 17.635L29.057 17.937L29.109 18.336L29.149 18.765L29.172 19.161L29.164 19.515L29.126 19.853L29.083 20.157L29.062 20.405L29.088 20.582L29.158 20.681L29.242 20.731L29.332 20.765L29.423 20.815L29.507 20.916L29.565 21.17L29.6 21.588L29.632 22.062L29.676 22.486L29.757 22.754L29.861 22.865L29.966 22.914L30.077 22.94L30.202 22.986L30.343 23.089L30.576 23.396L30.937 23.958L31.373 24.684L31.835 25.484L32.265 26.265L32.67 27.021L33.061 27.771L33.401 28.46L33.649 29.036L33.77 29.442L33.804 29.705L33.811 29.91L33.787 30.08L33.72 30.25L33.603 30.445L33.389 30.664L33.079 30.876L32.725 31.071L32.381 31.236L32.098 31.364L31.902 31.463L31.757 31.547L31.625 31.606L31.472 31.632L31.263 31.615L30.835 31.411L30.138 30.949L29.295 30.338L28.431 29.689L27.667 29.108L27.057 28.66L26.547 28.297L26.097 27.957L25.675 27.579L25.245 27.102L24.861 26.593L24.571 26.123L24.333 25.643L24.099 25.094L23.824 24.426L23.536 23.638L23.283 22.795L23.048 21.945L22.817 21.135L22.57 20.416L22.323 19.782L22.097 19.214L21.888 18.739L21.686 18.379L21.489 18.157"/>
  </g>
  <g>
   <path stroke-width="0.13" stroke-linejoin="round" stroke-miterlimit="10" d="M33.686 28.931L33.738 28.963L33.783 28.986L33.826 29.01L33.875 29.045L33.936 29.099L34.063 29.251L34.27 29.527L34.505 29.85L34.716 30.15L34.856 30.353L34.92 30.466L34.954 30.556L34.984 30.632L35.027 30.699L35.106 30.769L35.228 30.818L35.377 30.835L35.549 30.843L35.74 30.868L35.942 30.937L36.143 31.042L36.337 31.169L36.531 31.324L36.732 31.524L36.945 31.774L37.168 32.103L37.387 32.505L37.587 32.923L37.752 33.31L37.865 33.612L37.942 33.823L38.003 33.987L38.042 34.131L38.054 34.276L38.031 34.448L37.951 34.659L37.811 34.883L37.655 35.084L37.521 35.228L37.447 35.283L37.421 35.271L37.408 35.244L37.396 35.207L37.384 35.162L37.363 35.116L37.34 35.07L37.319 35.024L37.292 34.975L37.253 34.923L37.197 34.865L37.085 34.787L36.909 34.689L36.707 34.585L36.512 34.5L36.359 34.448L36.261 34.432L36.189 34.439L36.127 34.451L36.049 34.457L35.942 34.448L35.667 34.362L35.201 34.195L34.688 34.003L34.274 33.844L34.103 33.779"/>
   <path stroke-width="0.13" stroke-linejoin="round" stroke-miterlimit="10" d="M30.853 31.437L30.899 31.527L30.929 31.609L30.961 31.686L31.015 31.766L31.103 31.856L31.329 31.983L31.724 32.152L32.197 32.332L32.659 32.493L33.026 32.607L33.286 32.679L33.497 32.732L33.682 32.767L33.853 32.781L34.03 32.774L34.218 32.737L34.398 32.673L34.551 32.603L34.658 32.546L34.697 32.521"/>
   <path stroke-width="0.13" stroke-linejoin="round" stroke-miterlimit="10" d="M33.189 32.781L33.171 33.003L33.155 33.201L33.14 33.392L33.124 33.582L33.106 33.784L33.073 33.985L33.024 34.167L32.985 34.331L32.978 34.481L33.023 34.621L33.146 34.743L33.329 34.84L33.526 34.906L33.689 34.947L33.78 34.96"/>
   <path stroke-width="0.13" stroke-linejoin="round" stroke-miterlimit="10" d="M35.03 34.362L34.868 34.277L34.723 34.188L34.585 34.106L34.441 34.049L34.277 34.027L34.095 34.04L33.909 34.081L33.74 34.148L33.606 34.241L33.526 34.36L33.518 34.506L33.578 34.671L33.682 34.847L33.811 35.026L33.944 35.197L34.094 35.363L34.271 35.521L34.439 35.655L34.564 35.747L34.615 35.786"/>
   <path stroke-width="0.13" stroke-linejoin="round" stroke-miterlimit="10" d="M35.697 34.948L35.46 34.859L35.231 34.762L35.018 34.674L34.835 34.618L34.692 34.615L34.585 34.651L34.494 34.704L34.426 34.773L34.38 34.854L34.359 34.948L34.396 35.073L34.5 35.226L34.625 35.375L34.731 35.488L34.771 35.529"/>
   <path stroke-width="0.13" stroke-linejoin="round" stroke-miterlimit="10" d="M36.036 36.201L36.502 36.268L36.933 36.323L37.341 36.377L37.734 36.444L38.125 36.536L38.524 36.667L38.908 36.82L39.234 36.965L39.463 37.075L39.54 37.127"/>
   <path stroke-width="0.13" stroke-linejoin="round" stroke-miterlimit="10" d="M36.113 37.298L36.481 37.35L36.817 37.39L37.136 37.432L37.453 37.481L37.784 37.548L38.146 37.643L38.505 37.753L38.817 37.857L39.039 37.936L39.118 37.963"/>
   <path stroke-width="0.13" stroke-linejoin="round" stroke-miterlimit="10" d="M45.146 39.713L44.926 39.734L44.726 39.758L44.537 39.777L44.347 39.792L44.145 39.798L43.921 39.786L43.698 39.767L43.5 39.741L43.362 39.722L43.308 39.709"/>
   <path stroke-width="0.13" stroke-linejoin="round" stroke-miterlimit="10" d="M48.814 41.554L48.866 41.57L48.911 41.579L48.954 41.59L49.003 41.607L49.066 41.637L49.167 41.686L49.311 41.758L49.47 41.854L49.621 41.981L49.734 42.139L49.796 42.354L49.817 42.621L49.805 42.887L49.774 43.106L49.734 43.225L49.697 43.268L49.658 43.289L49.613 43.296L49.557 43.301L49.484 43.31L49.231 43.323L48.728 43.337L48.1 43.341L47.473 43.335L46.975 43.31L46.606 43.279L46.283 43.252L46.012 43.213L45.795 43.154L45.639 43.058L45.542 42.914L45.49 42.738L45.47 42.569L45.469 42.441L45.472 42.39L45.469 42.398L45.466 42.415L45.463 42.438L45.463 42.46L45.472 42.473L45.53 42.469L45.655 42.439L45.81 42.387L45.957 42.314L46.057 42.222L46.098 42.098L46.103 41.945L46.088 41.795L46.067 41.682L46.054 41.643"/>
   <path stroke-width="0.13" stroke-linejoin="round" stroke-miterlimit="10" d="M50.655 37.036L50.406 29.937"/>
   <path stroke-width="0.13" stroke-linejoin="round" stroke-miterlimit="10" d="M50.406 29.937L51.412 29.766"/>
   <path stroke-width="0.13" stroke-linejoin="round" stroke-miterlimit="10" d="M51.412 29.766L55.341 31.934"/>
   <path stroke-width="0.13" stroke-linejoin="round" stroke-miterlimit="10" d="M55.341 31.946L55.341 33.121"/>
   <path stroke-width="0.13" stroke-linejoin="round" stroke-miterlimit="10" d="M55.341 33.109L54.088 33.356"/>
   <path stroke-width="0.13" stroke-linejoin="round" stroke-miterlimit="10" d="M54.088 33.369L51.582 31.777"/>
   <path stroke-width="0.13" stroke-linejoin="round" stroke-miterlimit="10" d="M51.582 31.777L51.661 37.793"/>
   <path stroke-width="0.13" stroke-linejoin="round" stroke-miterlimit="10" d="M52.496 32.612L52.575 38.63"/>
   <path stroke-width="0.13" stroke-linejoin="round" stroke-miterlimit="10" d="M39.625 29.022L39.625 23.67"/>
   <path stroke-width="0.13" stroke-linejoin="round" stroke-miterlimit="10" d="M39.625 23.67L40.709 24.336"/>
   <path stroke-width="0.13" stroke-linejoin="round" stroke-miterlimit="10" d="M40.709 24.336L40.631 25.172"/>
   <path stroke-width="0.13" stroke-linejoin="round" stroke-miterlimit="10" d="M40.631 25.172L41.545 25.001"/>
   <path stroke-width="0.13" stroke-linejoin="round" stroke-miterlimit="10" d="M41.545 25.001L41.545 24.245"/>
   <path stroke-width="0.13" stroke-linejoin="round" stroke-miterlimit="10" d="M41.545 24.257L40.213 23.593"/>
   <path stroke-width="0.13" stroke-linejoin="round" stroke-miterlimit="10" d="M40.213 23.579L39.716 23.579"/>
   <path stroke-width="0.13" stroke-linejoin="round" stroke-miterlimit="10" d="M40.043 24.754L40.383 29.518"/>
   <path stroke-width="0.13" stroke-linejoin="round" stroke-miterlimit="10" d="M40.709 25.42L40.957 29.597"/>
   <path stroke-width="0.13" stroke-linejoin="round" stroke-miterlimit="10" d="M23.073 22.666L22.44 22.925L21.899 23.181L21.371 23.419L20.785 23.615L20.064 23.753L19.298 23.815L18.576 23.803L17.82 23.719L16.949 23.562L15.884 23.333L14.75 23.056L13.406 22.678L11.978 22.23L10.592 21.737L9.372 21.233L8.445 20.743L7.642 20.158L6.995 19.565L6.501 19.006L6.15 18.519L5.939 18.152L5.814 17.9L5.737 17.711L5.703 17.539L5.714 17.338L5.77 17.065L6.072 16.486L6.756 15.419L7.698 14.054L8.769 12.589L9.84 11.215L10.787 10.128L11.65 9.218L12.33 8.537L12.99 7.984L13.787 7.461L14.882 6.868L16.144 6.328L17.67 5.82L19.309 5.365L20.911 4.985L22.327 4.698L23.408 4.528L24.426 4.456L25.359 4.466L26.126 4.522L26.644 4.583L26.839 4.609"/>
   <path stroke-width="0.13" stroke-linejoin="round" stroke-miterlimit="10" d="M29.431 4.272L29.338 4.142L29.254 4.001L29.175 3.875L29.096 3.79L29.013 3.772L28.899 4.067L28.751 4.777L28.593 5.697L28.449 6.626L28.344 7.371"/>
   <path stroke-width="0.13" stroke-linejoin="round" stroke-miterlimit="10" d="M29.091 4.689L29.131 5.811L29.172 6.887L29.21 7.889L29.239 8.782L29.257 9.538L29.265 10.121L29.266 10.566L29.263 10.945L29.26 11.332L29.257 11.794L29.271 12.294L29.298 12.753L29.321 13.188L29.312 13.615L29.257 14.051L29.132 14.512L28.96 14.962L28.783 15.349L28.644 15.621L28.593 15.725"/>
   <path stroke-width="0.13" stroke-linejoin="round" stroke-miterlimit="10" d="M30.175 3.947L29.934 3.849L29.734 3.753L29.538 3.664L29.306 3.588L29.004 3.528L28.623 3.499L28.19 3.501L27.713 3.538L27.201 3.602L26.664 3.695L26.071 3.842L25.446 4.036L24.885 4.234L24.48 4.387L24.323 4.451"/>
   <path stroke-width="0.13" stroke-linejoin="round" stroke-miterlimit="10" d="M44.307 51.668C44.273 51.752 44.256 51.835 44.256 51.92C44.256 52.615 45.383 53.179 46.771 53.179C47.969 53.179 49 52.756 49.238 52.17"/>
   <path stroke-width="0.13" stroke-linejoin="round" stroke-miterlimit="10" d="M44.067 47.588C44.213 48.197 45.424 48.659 46.872 48.659C48.207 48.659 49.36 48.264 49.631 47.71"/>
   <path stroke-width="0.13" stroke-linejoin="round" stroke-miterlimit="10" d="M44.908 46.304C44.465 46.511 44.218 46.78 44.218 47.06C44.218 47.682 45.411 48.185 46.883 48.185C48.353 48.185 49.548 47.682 49.548 47.06C49.548 46.808 49.348 46.564 48.981 46.365"/>
   <path stroke-width="0.13" stroke-linejoin="round" stroke-miterlimit="10" d="M45.89 47.232L45.997 47.393L46.204 47.534L46.496 47.649L46.847 47.723L47.235 47.755L47.628 47.74L47.999 47.682L48.316 47.582L48.555 47.45L48.701 47.295L48.74 47.125"/>
   <path stroke-width="0.13" stroke-linejoin="round" stroke-miterlimit="10" d="M45.643 44.7L45.729 44.853L45.905 44.993L46.158 45.107L46.473 45.192L46.829 45.24L47.203 45.249L47.567 45.216L47.902 45.146L48.182 45.042L48.392 44.911L48.509 44.768"/>
   <path stroke-width="0.13" stroke-linejoin="round" stroke-miterlimit="10" d="M45.957 43.929L46.031 44.082L46.213 44.216L46.481 44.322L46.813 44.387L47.176 44.408L47.537 44.381L47.862 44.31L48.121 44.2L48.287 44.061L48.353 43.905"/>
   <path stroke-width="0.13" stroke-linejoin="round" stroke-miterlimit="10" d="M46.1 43.526L45.78 43.783L45.762 44.073L46.046 44.34L46.582 44.521"/>
   <path stroke-width="0.13" stroke-linejoin="round" stroke-miterlimit="10" d="M47.954 44.451L48.203 44.359L48.401 44.246L48.53 44.116"/>
   <path stroke-width="0.13" stroke-linejoin="round" stroke-miterlimit="10" d="M46.621 43.63L46.72 43.719L46.884 43.787L47.097 43.829L47.328 43.837L47.551 43.81L47.74 43.753L47.871 43.674"/>
   <path stroke-width="0.13" stroke-linejoin="round" stroke-miterlimit="10" d="M46.412 43.447L46.17 43.654L46.25 43.881L46.628 44.051"/>
   <path stroke-width="0.13" stroke-linejoin="round" stroke-miterlimit="10" d="M48.057 43.472L48.225 43.665L48.125 43.866L47.784 44.009"/>
   <path stroke-width="0.13" stroke-linejoin="round" stroke-miterlimit="10" d="M44.834 47.192L44.86 47.277L44.982 47.344L45.17 47.377L45.368 47.365L45.527 47.314L45.606 47.234"/>
   <path stroke-width="0.13" stroke-linejoin="round" stroke-miterlimit="10" d="M44.976 46.905L45.066 46.96L45.213 46.981L45.36 46.96L45.454 46.909L45.454 46.844"/>
   <path stroke-width="0.13" stroke-linejoin="round" stroke-miterlimit="10" d="M45.46 46.841L45.399 46.783L45.271 46.752L45.124 46.759L45.012 46.801L44.987 46.865"/>
   <path stroke-width="0.13" stroke-linejoin="round" stroke-miterlimit="10" d="M49.533 47.049L49.662 47.649"/>
   <path stroke-width="0.13" stroke-linejoin="round" stroke-miterlimit="10" d="M49.493 48.133L49.52 47.951"/>
   <path stroke-width="0.13" stroke-linejoin="round" stroke-miterlimit="10" d="M44.207 47.924L44.22 48.158"/>
   <path stroke-width="0.13" stroke-linejoin="round" stroke-miterlimit="10" d="M44.037 47.585L44.037 46.984"/>
   <path stroke-width="0.13" stroke-linejoin="round" stroke-miterlimit="10" d="M44.037 46.984L44.377 46.606"/>
   <path stroke-width="0.13" stroke-linejoin="round" stroke-miterlimit="10" d="M45.069 45.991L45.069 46.593"/>
   <path stroke-width="0.13" stroke-linejoin="round" stroke-miterlimit="10" d="M45.578 46.006L45.578 46.527"/>
   <path stroke-width="0.13" stroke-linejoin="round" stroke-miterlimit="10" d="M45.564 46.109L45.813 46.045"/>
   <path stroke-width="0.13" stroke-linejoin="round" stroke-miterlimit="10" d="M45.89 47.232L45.826 45.875"/>
   <path stroke-width="0.13" stroke-linejoin="round" stroke-miterlimit="10" d="M45.838 45.887L44.298 46.122"/>
   <path stroke-width="0.13" stroke-linejoin="round" stroke-miterlimit="10" d="M44.298 46.109L44.22 46.084"/>
   <path stroke-width="0.13" stroke-linejoin="round" stroke-miterlimit="10" d="M44.207 46.084L43.671 45.548"/>
   <path stroke-width="0.13" stroke-linejoin="round" stroke-miterlimit="10" d="M43.671 45.548L43.671 45.444"/>
   <path stroke-width="0.13" stroke-linejoin="round" stroke-miterlimit="10" d="M42.862 44.856L43.881 44.817"/>
   <path stroke-width="0.13" stroke-linejoin="round" stroke-miterlimit="10" d="M42.875 45.444L43.932 45.365"/>
   <path stroke-width="0.13" stroke-linejoin="round" stroke-miterlimit="10" d="M43.75 44.804L43.829 44.283"/>
   <path stroke-width="0.13" stroke-linejoin="round" stroke-miterlimit="10" d="M43.829 44.283L43.959 44.204"/>
   <path stroke-width="0.13" stroke-linejoin="round" stroke-miterlimit="10" d="M43.959 44.191L45.225 44.046"/>
   <path stroke-width="0.13" stroke-linejoin="round" stroke-miterlimit="10" d="M45.003 44.087L45.003 43.838"/>
   <path stroke-width="0.13" stroke-linejoin="round" stroke-miterlimit="10" d="M45.003 43.838L46.06 43.5"/>
   <path stroke-width="0.13" stroke-linejoin="round" stroke-miterlimit="10" d="M46.621 43.63L46.582 43.317"/>
   <path stroke-width="0.13" stroke-linejoin="round" stroke-miterlimit="10" d="M46.557 43.408L46.412 43.447"/>
   <path stroke-width="0.13" stroke-linejoin="round" stroke-miterlimit="10" d="M46.412 43.447L46.06 43.512"/>
   <path stroke-width="0.13" stroke-linejoin="round" stroke-miterlimit="10" d="M45.747 43.865L45.643 44.634"/>
   <path stroke-width="0.13" stroke-linejoin="round" stroke-miterlimit="10" d="M48.228 43.655L48.357 43.904"/>
   <path stroke-width="0.13" stroke-linejoin="round" stroke-miterlimit="10" d="M48.515 44.752L48.488 44.229"/>
   <path stroke-width="0.13" stroke-linejoin="round" stroke-miterlimit="10" d="M48.515 44.752L49.362 44.648"/>
   <path stroke-width="0.13" stroke-linejoin="round" stroke-miterlimit="10" d="M49.362 44.661L49.545 44.53"/>
   <path stroke-width="0.13" stroke-linejoin="round" stroke-miterlimit="10" d="M49.558 44.53L49.558 43.734"/>
   <path stroke-width="0.13" stroke-linejoin="round" stroke-miterlimit="10" d="M49.558 43.734L49.454 43.707"/>
   <path stroke-width="0.13" stroke-linejoin="round" stroke-miterlimit="10" d="M49.454 43.72L49.375 43.341"/>
   <path stroke-width="0.13" stroke-linejoin="round" stroke-miterlimit="10" d="M48.723 43.447L48.658 43.761"/>
   <path stroke-width="0.13" stroke-linejoin="round" stroke-miterlimit="10" d="M48.658 43.761L48.527 43.838"/>
   <path stroke-width="0.13" stroke-linejoin="round" stroke-miterlimit="10" d="M48.45 43.381L48.423 43.63"/>
   <path stroke-width="0.13" stroke-linejoin="round" stroke-miterlimit="10" d="M48.435 43.63L48.253 43.63"/>
   <path stroke-width="0.13" stroke-linejoin="round" stroke-miterlimit="10" d="M41.959 43.549C41.631 43.549 41.365 44.329 41.365 45.286C41.365 46.246 41.631 47.024 41.959 47.024C42.287 47.024 42.554 46.246 42.554 45.286C42.554 44.329 42.287 43.549 41.959 43.549z"/>
   <path stroke-width="0.13" stroke-linejoin="round" stroke-miterlimit="10" d="M42.432 43.707L42.558 43.868L42.67 44.113L42.758 44.426L42.817 44.789L42.848 45.185L42.845 45.591L42.811 45.984L42.746 46.341L42.655 46.643L42.54 46.877L42.409 47.02"/>
   <path stroke-width="0.13" stroke-linejoin="round" stroke-miterlimit="10" d="M44.298 46.045L44.456 44.987"/>
   <path stroke-width="0.13" stroke-linejoin="round" stroke-miterlimit="10" d="M45.643 44.7L45.668 45.261"/>
   <path stroke-width="0.13" stroke-linejoin="round" stroke-miterlimit="10" d="M48.75 47.128L48.685 44.752"/>
   <path stroke-width="0.13" stroke-linejoin="round" stroke-miterlimit="10" d="M47.756 42.859C47.756 42.686 47.615 42.545 47.442 42.545C47.268 42.545 47.127 42.686 47.127 42.859C47.127 43.033 47.268 43.173 47.442 43.173C47.615 43.173 47.756 43.033 47.756 42.859z"/>
   <path stroke-width="0.13" stroke-linejoin="round" stroke-miterlimit="10" d="M49.506 42.593C49.506 42.43 49.375 42.298 49.212 42.298C49.049 42.298 48.917 42.43 48.917 42.593C48.917 42.756 49.049 42.887 49.212 42.887C49.375 42.887 49.506 42.756 49.506 42.593z"/>
   <path stroke-width="0.13" stroke-linejoin="round" stroke-miterlimit="10" d="M49.426 44.301C49.426 44.2 49.344 44.118 49.243 44.118C49.143 44.118 49.06 44.2 49.06 44.301C49.06 44.402 49.143 44.484 49.243 44.484C49.344 44.484 49.426 44.402 49.426 44.301z"/>
   <path stroke-width="0.13" stroke-linejoin="round" stroke-miterlimit="10" d="M43.881 44.817L43.941 44.816L43.99 44.917L44.009 45.085L43.991 45.253L43.939 45.357"/>
   <path stroke-width="0.13" stroke-linejoin="round" stroke-miterlimit="10" d="M29.065 4.533L29.23 4.519L29.385 4.514L29.53 4.506L29.667 4.487L29.8 4.445L29.91 4.392L29.986 4.339L30.051 4.277L30.131 4.197L30.242 4.091L30.463 3.874L30.817 3.511L31.24 3.08L31.678 2.658L32.069 2.325L32.371 2.095L32.612 1.919L32.837 1.781L33.091 1.657L33.423 1.53L33.817 1.407L34.225 1.318L34.646 1.254L35.076 1.219L35.515 1.205L35.911 1.199L36.247 1.197L36.557 1.227L36.88 1.308L37.253 1.471L37.659 1.726L38.057 2.064L38.438 2.464L38.799 2.911L39.137 3.386L39.423 3.85L39.642 4.286L39.813 4.713L39.953 5.144L40.079 5.594L40.189 6.024L40.265 6.4L40.311 6.746L40.326 7.088L40.316 7.45L40.286 7.791L40.24 8.073L40.17 8.333L40.07 8.603L39.932 8.923L39.743 9.288L39.514 9.662L39.271 10.009L39.048 10.304L38.872 10.512L38.732 10.651L38.601 10.759L38.487 10.84L38.399 10.903L38.341 10.955L38.316 11L38.305 11.038L38.299 11.073L38.286 11.103L38.253 11.131L38.167 11.146L38.012 11.138L37.807 11.119L37.567 11.095L37.31 11.073L36.999 11.048L36.628 11.018L36.271 10.987L36.003 10.964L35.899 10.951"/>
   <path stroke-width="0.13" stroke-linejoin="round" stroke-miterlimit="10" d="M38.11 11.179L38.076 11.4L38.046 11.6L38.018 11.791L37.984 11.989L37.935 12.21L37.875 12.458L37.813 12.708L37.749 12.936L37.68 13.112L37.61 13.211L37.539 13.242L37.472 13.244L37.404 13.23L37.332 13.205L37.258 13.182L37.18 13.159L37.109 13.132L37.045 13.102L36.985 13.07L36.932 13.034L36.896 12.997L36.872 12.964L36.854 12.931L36.829 12.896L36.786 12.856L36.691 12.814L36.542 12.769L36.371 12.718L36.216 12.659L36.109 12.592L36.045 12.509L36.003 12.416L35.976 12.329L35.965 12.263L35.965 12.237"/>
   <path stroke-width="0.13" stroke-linejoin="round" stroke-miterlimit="10" d="M36.192 11.974L35.947 12.153L35.689 12.337L35.457 12.506L35.287 12.628L35.222 12.682"/>
   <path stroke-width="0.13" stroke-linejoin="round" stroke-miterlimit="10" d="M36.192 11.217L36.32 11.237L36.432 11.256L36.54 11.275L36.654 11.291L36.78 11.305L36.93 11.317L37.087 11.326L37.228 11.332L37.331 11.333L37.371 11.333"/>
   <path stroke-width="0.13" stroke-linejoin="round" stroke-miterlimit="10" d="M37.223 11.217L37.243 11.336L37.264 11.458L37.281 11.568L37.298 11.65L37.311 11.691"/>
   <path stroke-width="0.13" stroke-linejoin="round" stroke-miterlimit="10" d="M33.698 8.593L33.71 8.496L33.728 8.407L33.743 8.321L33.746 8.239L33.728 8.151L33.692 8.069L33.646 7.995L33.59 7.931L33.52 7.876L33.433 7.828L33.344 7.791L33.253 7.769L33.155 7.764L33.042 7.774L32.904 7.799L32.719 7.849L32.488 7.932L32.238 8.05L31.995 8.201L31.785 8.387L31.618 8.602L31.49 8.835L31.399 9.074L31.339 9.311L31.312 9.537L31.321 9.749L31.361 9.948L31.417 10.119L31.484 10.252L31.548 10.332L31.617 10.365L31.693 10.378L31.763 10.377L31.82 10.368L31.846 10.355"/>
   <path stroke-width="0.13" stroke-linejoin="round" stroke-miterlimit="10" d="M33.372 8.803L33.39 8.672L33.42 8.547L33.442 8.429L33.442 8.326L33.402 8.243L33.32 8.186L33.207 8.159L33.072 8.157L32.917 8.178L32.755 8.212L32.57 8.272L32.369 8.365L32.173 8.477L32 8.606L31.87 8.743L31.792 8.897L31.746 9.07L31.728 9.228L31.722 9.346L31.722 9.384"/>
   <path stroke-width="0.13" stroke-linejoin="round" stroke-miterlimit="10" d="M33.399 8.803L33.295 8.808L33.201 8.814L33.11 8.82L33.021 8.826L32.927 8.833L32.838 8.83L32.759 8.82L32.688 8.814L32.618 8.823L32.545 8.861L32.469 8.964L32.399 9.128L32.341 9.304L32.298 9.448L32.273 9.513"/>
   <path stroke-width="0.13" stroke-linejoin="round" stroke-miterlimit="10" d="M31.428 10.512L31.37 10.681L31.312 10.843L31.257 10.993L31.216 11.128L31.192 11.249L31.187 11.359L31.193 11.462L31.204 11.55L31.216 11.609L31.216 11.634"/>
   <path stroke-width="0.13" stroke-linejoin="round" stroke-miterlimit="10" d="M30.187 10.8L30.265 11.003L30.341 11.192L30.413 11.369L30.471 11.541L30.512 11.712L30.532 11.871L30.536 12.007L30.532 12.128L30.521 12.243L30.512 12.361L30.495 12.48L30.472 12.592L30.451 12.689L30.44 12.762L30.452 12.803L30.486 12.807L30.532 12.787L30.58 12.759L30.625 12.739L30.658 12.743L30.649 12.811L30.596 12.946L30.532 13.112L30.492 13.272L30.512 13.391L30.615 13.445L30.778 13.451L30.957 13.439L31.108 13.439L31.189 13.48L31.181 13.554L31.112 13.635L31.013 13.73L30.911 13.843L30.835 13.98L30.795 14.138L30.78 14.308L30.775 14.487L30.777 14.675L30.775 14.864L30.775 15.034L30.78 15.176L30.786 15.308L30.786 15.454L30.775 15.63L30.736 15.849L30.673 16.088L30.609 16.314L30.576 16.495L30.6 16.602L30.678 16.617L30.782 16.576L30.897 16.513L31.009 16.471L31.1 16.484L31.147 16.565L31.155 16.696L31.146 16.861L31.147 17.05L31.189 17.25L31.292 17.492L31.445 17.782L31.609 18.057L31.751 18.263L31.836 18.338L31.873 18.295L31.894 18.199L31.907 18.086L31.914 17.993L31.925 17.957L31.925 18.01L31.908 18.141L31.893 18.318L31.893 18.503L31.925 18.664L31.998 18.794L32.095 18.91L32.201 19.007L32.298 19.085L32.366 19.135L32.411 19.17L32.451 19.199L32.484 19.222L32.515 19.231L32.543 19.224L32.56 19.15L32.56 19.004L32.551 18.833L32.542 18.693L32.543 18.634L32.551 18.667L32.56 18.75L32.57 18.861L32.584 18.978L32.601 19.077L32.619 19.146L32.634 19.202L32.651 19.251L32.676 19.304L32.72 19.37L32.79 19.457L32.889 19.556L33.003 19.661L33.128 19.76L33.25 19.841L33.371 19.911L33.491 19.972L33.6 20.018L33.689 20.036L33.75 20.018L33.765 19.951L33.735 19.841L33.689 19.716L33.646 19.6L33.633 19.516L33.646 19.46L33.665 19.413L33.689 19.373L33.719 19.349L33.75 19.341L33.792 19.39L33.844 19.515L33.911 19.679L33.999 19.849L34.104 19.989L34.24 20.099L34.396 20.193L34.549 20.268L34.676 20.31L34.753 20.312L34.786 20.288L34.804 20.251L34.811 20.204L34.811 20.146L34.811 20.077L34.801 19.986L34.771 19.865L34.734 19.724L34.695 19.565L34.664 19.399L34.631 19.219L34.591 19.027L34.564 18.85L34.563 18.71L34.606 18.634L34.726 18.681L34.915 18.85L35.124 19.056L35.301 19.227L35.401 19.282L35.417 19.228L35.393 19.131L35.341 19.001L35.28 18.852L35.223 18.693L35.154 18.513L35.06 18.309L34.976 18.111L34.932 17.945L34.959 17.839L35.1 17.85L35.338 17.969L35.606 18.126L35.845 18.243L35.99 18.251L36.014 18.135L35.959 17.952L35.859 17.73L35.75 17.495L35.665 17.278L35.612 17.102L35.57 16.952L35.533 16.817L35.497 16.675L35.46 16.513L35.421 16.347L35.39 16.198L35.362 16.054L35.335 15.909L35.311 15.747L35.293 15.566L35.283 15.375L35.274 15.208L35.267 15.089L35.253 15.041L35.229 15.063L35.198 15.122L35.17 15.21L35.156 15.314L35.164 15.425L35.262 15.6L35.457 15.864L35.686 16.141L35.877 16.362L35.96 16.454L35.968 16.457L35.975 16.46L35.981 16.46L35.985 16.458L35.99 16.455L35.966 16.37L35.902 16.166L35.82 15.897L35.744 15.619L35.695 15.394L35.67 15.227L35.656 15.083L35.652 14.958L35.655 14.848L35.665 14.746L35.685 14.664L35.71 14.605L35.737 14.556L35.764 14.499L35.789 14.42"/>
   <path stroke-width="0.13" stroke-linejoin="round" stroke-miterlimit="10" d="M36.609 12.887L36.643 13.102L36.682 13.324L36.716 13.526L36.735 13.676L36.728 13.743L36.701 13.74L36.67 13.714L36.634 13.676L36.594 13.641L36.551 13.625L36.509 13.632L36.469 13.657L36.432 13.686L36.39 13.708L36.344 13.714L36.298 13.682L36.252 13.624L36.207 13.557L36.161 13.502L36.109 13.477L36.057 13.499L36.012 13.551L35.968 13.612L35.921 13.663L35.874 13.683L35.829 13.66L35.792 13.609L35.758 13.545L35.719 13.487L35.667 13.448L35.612 13.433L35.563 13.433L35.509 13.444L35.448 13.458L35.372 13.477L35.28 13.496L35.174 13.522L35.058 13.554L34.938 13.598L34.814 13.654L34.7 13.724L34.659 13.763"/>
   <path stroke-width="0.13" stroke-linejoin="round" stroke-miterlimit="10" d="M35.292 13.593L35.392 13.641L35.487 13.683L35.576 13.724L35.658 13.771L35.732 13.829L35.801 13.899L35.857 13.971L35.902 14.044L35.93 14.105L35.939 14.153L35.93 14.185L35.911 14.212L35.889 14.234L35.866 14.253L35.853 14.266"/>
   <path stroke-width="0.13" stroke-linejoin="round" stroke-miterlimit="10" d="M36.023 13.75L36.084 13.897L36.149 14.051L36.21 14.189L36.25 14.292L36.258 14.339L36.241 14.336L36.216 14.32L36.189 14.297L36.161 14.279L36.14 14.279L36.139 14.329L36.158 14.432L36.18 14.554L36.191 14.662L36.17 14.721L36.103 14.712L36.006 14.656L35.902 14.58L35.82 14.515L35.78 14.487"/>
   <path stroke-width="0.13" stroke-linejoin="round" stroke-miterlimit="10" d="M31.361 8.711L31.355 8.506L31.359 8.3L31.361 8.111L31.338 7.958L31.274 7.857L31.161 7.835L31.018 7.878L30.87 7.942L30.74 7.987L30.655 7.974L30.64 7.892L30.682 7.772L30.745 7.634L30.788 7.498L30.772 7.386L30.687 7.314L30.557 7.277L30.405 7.254L30.254 7.229L30.125 7.179L30.015 7.108L29.911 7.035L29.829 6.963L29.778 6.892L29.771 6.825L29.859 6.782L30.039 6.761L30.25 6.748L30.428 6.726L30.507 6.679L30.435 6.605L30.248 6.519L30.018 6.424L29.826 6.33L29.742 6.237L29.797 6.15L29.928 6.073L30.088 6.003L30.221 5.939L30.272 5.884L30.233 5.844L30.143 5.823L30.036 5.807L29.942 5.783L29.888 5.735L29.905 5.665L29.974 5.58L30.06 5.49L30.132 5.403L30.155 5.323L30.118 5.262L30.05 5.219L29.969 5.182L29.899 5.141L29.859 5.088L29.865 5.027L29.902 4.966L29.946 4.908L29.978 4.851L29.978 4.794L29.914 4.745L29.797 4.71L29.664 4.681L29.554 4.652L29.507 4.617L29.527 4.573L29.585 4.527L29.655 4.484L29.716 4.453L29.742 4.44"/>
  </g>
  <g>
   <path stroke-width="0.3" stroke-linejoin="round" stroke-miterlimit="10" d="M18.231 23.748L18.588 24.059L18.943 24.338L19.268 24.603L19.541 24.875L19.734 25.17L19.824 25.44L19.832 25.661L19.801 25.879L19.782 26.146L19.818 26.507L19.986 27.146L20.321 28.245L20.763 29.634L21.254 31.146L21.739 32.61L22.158 33.862L22.559 35.033L22.899 35.993L23.205 36.835L23.507 37.654L23.829 38.542L24.179 39.451L24.521 40.268L24.821 41L25.047 41.649L25.167 42.22L25.172 42.659L25.103 42.97L25.007 43.246L24.931 43.578L24.917 44.06L25.068 44.932L25.416 46.39L25.875 48.159L26.361 49.965L26.794 51.53L27.089 52.585L27.361 53.351L27.647 53.975L27.884 54.484L27.998 54.902L27.92 55.256"/>
   <path stroke-width="0.3" stroke-linejoin="round" stroke-miterlimit="10" d="M27.76 55.509L28.071 55.756L28.352 55.99L28.618 56.209L28.89 56.411L29.179 56.595L29.452 56.746L29.678 56.857L29.894 56.945L30.135 57.02L30.434 57.097L30.789 57.152L31.161 57.168L31.533 57.174L31.881 57.198L32.189 57.264L32.444 57.363L32.652 57.469L32.826 57.585L32.975 57.71L33.109 57.848L33.228 58.012L33.32 58.189L33.389 58.353L33.429 58.472L33.442 58.524"/>
  </g>
  <g>
   <path stroke-width="0.13" stroke-linejoin="round" stroke-miterlimit="10" d="M22.068 58.601L22.062 58.337L22.05 58.087L22.042 57.853L22.045 57.634L22.068 57.432L22.117 57.237L22.181 57.055L22.248 56.905L22.298 56.801L22.324 56.762"/>
   <path stroke-width="0.13" stroke-linejoin="round" stroke-miterlimit="10" d="M24.666 56.604L24.109 56.659L23.561 56.722L23.056 56.776L22.626 56.81L22.304 56.811L22.074 56.792L21.89 56.774L21.739 56.743L21.609 56.691L21.489 56.604L21.399 56.503L21.349 56.401L21.32 56.281L21.291 56.131L21.239 55.936L21.076 55.341L20.754 54.119L20.35 52.555L19.939 50.935L19.597 49.542L19.399 48.664L19.303 48.093L19.239 47.625L19.201 47.244L19.175 46.929L19.149 46.658L19.131 46.451L19.126 46.31L19.12 46.188L19.105 46.039L19.065 45.823L18.926 45.343L18.638 44.447L18.254 43.276L17.826 41.973L17.411 40.686L17.059 39.554L16.722 38.402L16.432 37.365L16.184 36.454L15.977 35.676L15.806 35.039L15.656 34.497L15.521 34.015L15.412 33.618L15.336 33.337L15.31 33.207"/>
   <path stroke-width="0.13" stroke-linejoin="round" stroke-miterlimit="10" d="M16.219 29.597L16.013 30.446L15.843 31.204L15.675 31.928L15.477 32.682L15.217 33.526L14.891 34.369L14.538 35.122L14.188 35.838L13.874 36.57L13.628 37.369L13.496 38.118L13.461 38.728L13.47 39.319L13.461 39.999L13.378 40.881L13.211 41.883L12.964 43.103L12.685 44.409L12.409 45.676L12.18 46.771L12.041 47.567L11.958 48.155L11.907 48.555L11.878 48.896L11.868 49.304L11.874 49.908L11.942 50.962L12.102 52.642L12.305 54.585L12.506 56.426L12.656 57.802L12.708 58.35"/>
   <path stroke-width="0.13" stroke-linejoin="round" stroke-miterlimit="10" d="M7.03 58.601L6.91 58.334L6.788 58.1L6.679 57.874L6.589 57.631L6.528 57.347L6.517 57.076L6.549 56.848L6.605 56.615L6.66 56.326L6.695 55.927L6.681 54.948L6.62 52.926L6.525 50.234L6.405 47.243L6.275 44.329L6.144 41.862L6.027 40.213L5.857 38.899L5.671 37.945L5.495 37.155L5.354 36.332L5.275 35.283L5.307 33.993L5.437 32.662L5.602 31.41L5.737 30.349L5.777 29.599L5.753 29.126L5.724 28.778L5.676 28.492L5.586 28.202L5.442 27.843L5.214 27.475L4.919 27.166L4.605 26.856L4.317 26.487L4.105 26.004L4.009 25.385L4.022 24.682L4.107 23.957L4.23 23.265L4.355 22.661L4.468 22.198L4.578 21.846L4.702 21.542L4.846 21.222L5.024 20.823L5.264 20.3L5.549 19.725L5.823 19.193L6.028 18.8L6.107 18.644"/>
   <path stroke-width="0.13" stroke-linejoin="round" stroke-miterlimit="10" d="M52.353 47.374C52.539 47.393 52.722 47.39 52.902 47.365C55.692 46.973 57.204 41.295 56.277 34.689C55.347 28.085 52.329 23.042 49.537 23.435C47.838 23.675 46.536 25.916 46.073 29.402"/>
   <path stroke-width="0.13" stroke-linejoin="round" stroke-miterlimit="10" d="M52.976 46.689C55.485 46.07 56.795 40.828 55.948 34.798C55.073 28.582 52.232 23.835 49.604 24.204C48.124 24.414 46.956 26.242 46.447 29.153"/>
   <path stroke-width="0.13" stroke-linejoin="round" stroke-miterlimit="10" d="M47.197 28.161L47.74 27.428L48.404 27.158L49.125 27.376L49.843 28.062L50.496 29.16"/>
   <path stroke-width="0.13" stroke-linejoin="round" stroke-miterlimit="10" d="M46.7 33.878L46.734 32.887L46.865 31.986L47.085 31.219L47.387 30.617L47.755 30.207L48.174 30.006L48.631 30.018"/>
   <path stroke-width="0.13" stroke-linejoin="round" stroke-miterlimit="10" d="M47.131 33.813L47.264 32.826L47.451 31.91L47.686 31.074"/>
   <path stroke-width="0.13" stroke-linejoin="round" stroke-miterlimit="10" d="M47.628 30.836L47.884 30.542L48.179 30.394L48.491 30.408"/>
   <path stroke-width="0.13" stroke-linejoin="round" stroke-miterlimit="10" d="M54.094 22.001C52.298 18.829 50.176 17.181 48.235 17.454C45.014 17.908 42.941 23.507 43.213 31.019"/>
   <path stroke-width="0.13" stroke-linejoin="round" stroke-miterlimit="10" d="M43.646 24.545L44.027 22.211L44.561 20.099L45.24 18.245L46.046 16.681L46.972 15.435L47.997 14.529L49.106 13.98L50.277 13.797L51.49 13.981L52.731 14.531"/>
   <path stroke-width="0.13" stroke-linejoin="round" stroke-miterlimit="10" d="M59.692 56.017C62.594 51.981 63.668 43.7 62.432 34.899C61.051 25.068 57.103 16.789 52.726 14.541"/>
   <path stroke-width="0.13" stroke-linejoin="round" stroke-miterlimit="10" d="M52.167 53.28C52.588 53.381 53.003 53.404 53.408 53.347C56.393 52.927 58.482 48.283 58.698 41.588"/>
   <path stroke-width="0.13" stroke-linejoin="round" stroke-miterlimit="10" d="M52.6 13.227L53.409 13.41"/>
   <path stroke-width="0.13" stroke-linejoin="round" stroke-miterlimit="10" d="M53.409 13.423L53.279 13.605"/>
   <path stroke-width="0.13" stroke-linejoin="round" stroke-miterlimit="10" d="M53.292 13.605L54.414 13.605"/>
   <path stroke-width="0.13" stroke-linejoin="round" stroke-miterlimit="10" d="M54.402 13.605L54.649 14.102"/>
   <path stroke-width="0.13" stroke-linejoin="round" stroke-miterlimit="10" d="M54.649 14.102L55.954 14.48"/>
   <path stroke-width="0.13" stroke-linejoin="round" stroke-miterlimit="10" d="M55.954 14.48L56.137 15.224"/>
   <path stroke-width="0.13" stroke-linejoin="round" stroke-miterlimit="10" d="M56.152 15.224L57.588 15.85"/>
   <path stroke-width="0.13" stroke-linejoin="round" stroke-miterlimit="10" d="M57.573 15.85L57.392 16.727"/>
   <path stroke-width="0.13" stroke-linejoin="round" stroke-miterlimit="10" d="M57.392 16.713L58.826 17.588"/>
   <path stroke-width="0.13" stroke-linejoin="round" stroke-miterlimit="10" d="M58.826 17.588L58.645 18.214"/>
   <path stroke-width="0.13" stroke-linejoin="round" stroke-miterlimit="10" d="M58.631 18.214L59.753 18.958"/>
   <path stroke-width="0.13" stroke-linejoin="round" stroke-miterlimit="10" d="M59.753 18.958L59.819 19.701"/>
   <path stroke-width="0.13" stroke-linejoin="round" stroke-miterlimit="10" d="M59.819 19.701L60.25 20.329"/>
   <path stroke-width="0.13" stroke-linejoin="round" stroke-miterlimit="10" d="M60.25 20.329L60.929 21.256"/>
   <path stroke-width="0.13" stroke-linejoin="round" stroke-miterlimit="10" d="M60.942 21.256L60.811 21.817"/>
   <path stroke-width="0.13" stroke-linejoin="round" stroke-miterlimit="10" d="M60.811 21.817L61.737 23.004"/>
   <path stroke-width="0.13" stroke-linejoin="round" stroke-miterlimit="10" d="M61.737 22.992L61.737 23.553"/>
   <path stroke-width="0.13" stroke-linejoin="round" stroke-miterlimit="10" d="M61.737 23.553L62.664 24.989"/>
   <path stroke-width="0.13" stroke-linejoin="round" stroke-miterlimit="10" d="M62.677 24.989L62.677 25.864"/>
   <path stroke-width="0.13" stroke-linejoin="round" stroke-miterlimit="10" d="M62.677 25.864L63.487 27.234"/>
   <path stroke-width="0.13" stroke-linejoin="round" stroke-miterlimit="10" d="M63.487 27.222L63.552 28.658"/>
   <path stroke-width="0.13" stroke-linejoin="round" stroke-miterlimit="10" d="M63.552 28.658L64.049 29.649"/>
   <path stroke-width="0.13" stroke-linejoin="round" stroke-miterlimit="10" d="M64.049 29.649L63.982 30.457"/>
   <path stroke-width="0.13" stroke-linejoin="round" stroke-miterlimit="10" d="M64.049 31.332L64.609 32.573"/>
   <path stroke-width="0.13" stroke-linejoin="round" stroke-miterlimit="10" d="M64.545 34.256L65.105 35.692"/>
   <path stroke-width="0.13" stroke-linejoin="round" stroke-miterlimit="10" d="M65.04 37.481L65.353 38.851"/>
   <path stroke-width="0.13" stroke-linejoin="round" stroke-miterlimit="10" d="M65.353 41.398L65.483 42.834"/>
   <path stroke-width="0.13" stroke-linejoin="round" stroke-miterlimit="10" d="M55.59 13.489L56.399 13.554"/>
   <path stroke-width="0.13" stroke-linejoin="round" stroke-miterlimit="10" d="M56.399 13.541L56.399 13.853"/>
   <path stroke-width="0.13" stroke-linejoin="round" stroke-miterlimit="10" d="M56.399 13.853L57.77 14.233"/>
   <path stroke-width="0.13" stroke-linejoin="round" stroke-miterlimit="10" d="M57.77 14.233L57.835 14.912"/>
   <path stroke-width="0.13" stroke-linejoin="round" stroke-miterlimit="10" d="M57.823 14.912L59.506 15.721"/>
   <path stroke-width="0.13" stroke-linejoin="round" stroke-miterlimit="10" d="M59.506 15.721L59.323 16.399"/>
   <path stroke-width="0.13" stroke-linejoin="round" stroke-miterlimit="10" d="M59.323 16.399L60.694 17.274"/>
   <path stroke-width="0.13" stroke-linejoin="round" stroke-miterlimit="10" d="M60.68 17.274L60.615 17.704"/>
   <path stroke-width="0.13" stroke-linejoin="round" stroke-miterlimit="10" d="M60.628 17.704L61.817 19.01"/>
   <path stroke-width="0.13" stroke-linejoin="round" stroke-miterlimit="10" d="M61.804 19.01L61.621 19.388"/>
   <path stroke-width="0.13" stroke-linejoin="round" stroke-miterlimit="10" d="M61.621 19.388L62.496 20.198"/>
   <path stroke-width="0.13" stroke-linejoin="round" stroke-miterlimit="10" d="M62.496 20.198L62.677 21.19"/>
   <path stroke-width="0.13" stroke-linejoin="round" stroke-miterlimit="10" d="M62.677 21.19L63.552 22.248"/>
   <path stroke-width="0.13" stroke-linejoin="round" stroke-miterlimit="10" d="M63.552 22.248L63.618 23.123"/>
   <path stroke-width="0.13" stroke-linejoin="round" stroke-miterlimit="10" d="M63.604 23.123L64.478 24.179"/>
   <path stroke-width="0.13" stroke-linejoin="round" stroke-miterlimit="10" d="M64.478 24.179L64.727 25.614"/>
   <path stroke-width="0.13" stroke-linejoin="round" stroke-miterlimit="10" d="M64.727 25.603L65.224 26.725"/>
   <path stroke-width="0.13" stroke-linejoin="round" stroke-miterlimit="10" d="M65.224 26.725L65.289 27.847"/>
   <path stroke-width="0.13" stroke-linejoin="round" stroke-miterlimit="10" d="M65.289 27.847L65.784 28.658"/>
   <path stroke-width="0.13" stroke-linejoin="round" stroke-miterlimit="10" d="M54.845 14.728L55.094 15.041"/>
   <path stroke-width="0.13" stroke-linejoin="round" stroke-miterlimit="10" d="M56.021 15.656L56.399 16.085"/>
   <path stroke-width="0.13" stroke-linejoin="round" stroke-miterlimit="10" d="M57.326 17.339L57.573 17.769"/>
   <path stroke-width="0.13" stroke-linejoin="round" stroke-miterlimit="10" d="M58.384 18.827L58.566 19.388"/>
   <path stroke-width="0.13" stroke-linejoin="round" stroke-miterlimit="10" d="M59.323 20.629L59.637 21.307"/>
   <path stroke-width="0.13" stroke-linejoin="round" stroke-miterlimit="10" d="M60.25 22.495L60.628 23.239"/>
   <path stroke-width="0.13" stroke-linejoin="round" stroke-miterlimit="10" d="M61.125 24.675L61.307 25.42"/>
   <path stroke-width="0.13" stroke-linejoin="round" stroke-miterlimit="10" d="M62.182 27.039L62.365 27.964"/>
   <path stroke-width="0.13" stroke-linejoin="round" stroke-miterlimit="10" d="M62.677 29.649L62.808 30.457"/>
   <path stroke-width="0.13" stroke-linejoin="round" stroke-miterlimit="10" d="M63.109 32.326L63.292 32.951"/>
   <path stroke-width="0.13" stroke-linejoin="round" stroke-miterlimit="10" d="M57.953 13.672L58.134 13.853"/>
   <path stroke-width="0.13" stroke-linejoin="round" stroke-miterlimit="10" d="M58.134 13.853L59.57 14.285"/>
   <path stroke-width="0.13" stroke-linejoin="round" stroke-miterlimit="10" d="M59.57 14.285L59.57 14.781"/>
   <path stroke-width="0.13" stroke-linejoin="round" stroke-miterlimit="10" d="M59.57 14.794L61.06 15.538"/>
   <path stroke-width="0.13" stroke-linejoin="round" stroke-miterlimit="10" d="M61.06 15.538L60.994 16.099"/>
   <path stroke-width="0.13" stroke-linejoin="round" stroke-miterlimit="10" d="M60.994 16.099L61.92 16.661"/>
   <path stroke-width="0.13" stroke-linejoin="round" stroke-miterlimit="10" d="M61.933 16.647L62.365 17.274"/>
   <path stroke-width="0.13" stroke-linejoin="round" stroke-miterlimit="10" d="M62.365 17.274L62.299 17.769"/>
   <path stroke-width="0.13" stroke-linejoin="round" stroke-miterlimit="10" d="M62.299 17.769L63.356 18.396"/>
   <path stroke-width="0.13" stroke-linejoin="round" stroke-miterlimit="10" d="M63.356 18.396L63.604 18.958"/>
   <path stroke-width="0.13" stroke-linejoin="round" stroke-miterlimit="10" d="M63.604 18.958L63.473 19.336"/>
   <path stroke-width="0.13" stroke-linejoin="round" stroke-miterlimit="10" d="M63.487 19.324L63.982 19.701"/>
   <path stroke-width="0.13" stroke-linejoin="round" stroke-miterlimit="10" d="M63.982 19.701L64.609 20.695"/>
   <path stroke-width="0.13" stroke-linejoin="round" stroke-miterlimit="10" d="M64.609 20.695L64.545 21.321"/>
   <path stroke-width="0.13" stroke-linejoin="round" stroke-miterlimit="10" d="M64.545 21.321L64.974 21.699"/>
   <path stroke-width="0.13" stroke-linejoin="round" stroke-miterlimit="10" d="M64.974 21.687L65.471 22.248"/>
   <path stroke-width="0.13" stroke-linejoin="round" stroke-miterlimit="10" d="M60.131 13.919L61.32 14.349"/>
   <path stroke-width="0.13" stroke-linejoin="round" stroke-miterlimit="10" d="M61.307 14.349L61.307 14.781"/>
   <path stroke-width="0.13" stroke-linejoin="round" stroke-miterlimit="10" d="M61.307 14.794L62.795 15.669"/>
   <path stroke-width="0.13" stroke-linejoin="round" stroke-miterlimit="10" d="M62.795 15.656L62.664 16.216"/>
   <path stroke-width="0.13" stroke-linejoin="round" stroke-miterlimit="10" d="M62.677 16.216L63.735 16.778"/>
   <path stroke-width="0.13" stroke-linejoin="round" stroke-miterlimit="10" d="M63.735 16.778L64.114 17.457"/>
   <path stroke-width="0.13" stroke-linejoin="round" stroke-miterlimit="10" d="M64.1 17.457L64.1 17.64"/>
   <path stroke-width="0.13" stroke-linejoin="round" stroke-miterlimit="10" d="M64.1 17.652L64.662 18.083"/>
   <path stroke-width="0.13" stroke-linejoin="round" stroke-miterlimit="10" d="M64.662 18.083L65.34 18.893"/>
   <path stroke-width="0.13" stroke-linejoin="round" stroke-miterlimit="10" d="M65.353 18.893L65.224 19.076"/>
   <path stroke-width="0.13" stroke-linejoin="round" stroke-miterlimit="10" d="M65.224 19.076L65.968 19.885"/>
   <path stroke-width="0.13" stroke-linejoin="round" stroke-miterlimit="10" d="M65.968 19.885L66.399 20.629"/>
   <path stroke-width="0.13" stroke-linejoin="round" stroke-miterlimit="10" d="M66.412 20.629L66.228 21.007"/>
   <path stroke-width="0.13" stroke-linejoin="round" stroke-miterlimit="10" d="M66.215 21.007L66.777 21.634"/>
  </g>
  <path stroke-width="0.3" stroke-linejoin="round" stroke-miterlimit="10" d="M60.131 13.605L61.503 14.071L62.881 14.897L64.248 16.073L65.584 17.58L66.873 19.399L68.085 21.501"/>
  <g>
   <path stroke-width="0.13" stroke-linejoin="round" stroke-miterlimit="10" d="M49.024 31.085L49.131 31.016L49.209 30.85L49.243 30.611L49.228 30.335L49.167 30.065L49.07 29.841L48.951 29.699L48.828 29.658L48.719 29.727L48.643 29.893L48.609 30.134L48.624 30.408L48.685 30.678L48.781 30.902L48.901 31.045L49.024 31.085z"/>
   <path stroke-width="0.13" stroke-linejoin="round" stroke-miterlimit="10" d="M49.572 29.609L49.68 29.704L49.78 29.865L49.857 30.079L49.908 30.321L49.923 30.565L49.902 30.789L49.848 30.966L49.771 31.082"/>
   <path stroke-width="0.13" stroke-linejoin="round" stroke-miterlimit="10" d="M49.572 29.583L49.715 29.51L49.872 29.591L50.018 29.812L50.125 30.132L50.17 30.489L50.149 30.818L50.06 31.056L49.926 31.16L49.77 31.106"/>
   <path stroke-width="0.13" stroke-linejoin="round" stroke-miterlimit="10" d="M49.859 29.335L50.003 29.44L50.136 29.635L50.246 29.9L50.322 30.211L50.356 30.535L50.344 30.839L50.286 31.096L50.192 31.275L50.076 31.367"/>
   <path stroke-width="0.13" stroke-linejoin="round" stroke-miterlimit="10" d="M50.069 31.359L49.993 31.382L49.915 31.303L49.863 31.147"/>
   <path stroke-width="0.13" stroke-linejoin="round" stroke-miterlimit="10" d="M49.911 29.335L49.784 29.288L49.679 29.379L49.612 29.588"/>
   <path stroke-width="0.13" stroke-linejoin="round" stroke-miterlimit="10" d="M48.881 30.027L48.813 30.099L48.783 30.251L48.801 30.44L48.859 30.606L48.941 30.696L49.018 30.684"/>
   <path stroke-width="0.13" stroke-linejoin="round" stroke-miterlimit="10" d="M48.814 29.661L49.558 29.597"/>
   <path stroke-width="0.13" stroke-linejoin="round" stroke-miterlimit="10" d="M49.194 29.858L49.741 29.806"/>
   <path stroke-width="0.13" stroke-linejoin="round" stroke-miterlimit="10" d="M49.35 30.707L49.899 30.628"/>
   <path stroke-width="0.13" stroke-linejoin="round" stroke-miterlimit="10" d="M49.036 31.085L49.741 31.071"/>
   <path stroke-width="0.13" stroke-linejoin="round" stroke-miterlimit="10" d="M50.341 34.805L50.451 34.737L50.527 34.57L50.561 34.331L50.545 34.054L50.485 33.786L50.389 33.561L50.27 33.418L50.146 33.378L50.037 33.448L49.962 33.613L49.927 33.853L49.942 34.128L50.003 34.399L50.1 34.622L50.219 34.765L50.341 34.805z"/>
   <path stroke-width="0.13" stroke-linejoin="round" stroke-miterlimit="10" d="M50.198 33.747L50.131 33.819L50.103 33.972L50.119 34.161L50.176 34.326L50.259 34.417L50.338 34.405"/>
   <path stroke-width="0.13" stroke-linejoin="round" stroke-miterlimit="10" d="M47.365 29.609L47.473 29.542L47.551 29.375L47.585 29.135L47.57 28.859L47.509 28.589L47.412 28.367L47.292 28.224L47.17 28.184L47.061 28.253L46.984 28.419L46.951 28.658L46.966 28.934L47.027 29.204L47.124 29.426L47.243 29.57L47.365 29.609z"/>
   <path stroke-width="0.13" stroke-linejoin="round" stroke-miterlimit="10" d="M47.901 28.147L48.009 28.242L48.109 28.403L48.186 28.617L48.235 28.858L48.252 29.103L48.231 29.326L48.177 29.504L48.1 29.62"/>
   <path stroke-width="0.13" stroke-linejoin="round" stroke-miterlimit="10" d="M47.901 28.109L48.042 28.036L48.203 28.117L48.347 28.338L48.454 28.658L48.5 29.015L48.476 29.343L48.39 29.58L48.255 29.684L48.098 29.632"/>
   <path stroke-width="0.13" stroke-linejoin="round" stroke-miterlimit="10" d="M48.201 27.861L48.344 27.964L48.478 28.161L48.588 28.426L48.664 28.736L48.697 29.059L48.686 29.364L48.63 29.62L48.534 29.8L48.417 29.891"/>
   <path stroke-width="0.13" stroke-linejoin="round" stroke-miterlimit="10" d="M48.409 29.884L48.337 29.908L48.258 29.829L48.206 29.673"/>
   <path stroke-width="0.13" stroke-linejoin="round" stroke-miterlimit="10" d="M48.24 27.861L48.113 27.814L48.006 27.903L47.942 28.114"/>
   <path stroke-width="0.13" stroke-linejoin="round" stroke-miterlimit="10" d="M47.222 28.565L47.155 28.637L47.125 28.789L47.143 28.978L47.201 29.143L47.283 29.234L47.36 29.222"/>
   <path stroke-width="0.13" stroke-linejoin="round" stroke-miterlimit="10" d="M47.143 28.199L47.889 28.135"/>
   <path stroke-width="0.13" stroke-linejoin="round" stroke-miterlimit="10" d="M47.523 28.396L48.07 28.344"/>
   <path stroke-width="0.13" stroke-linejoin="round" stroke-miterlimit="10" d="M47.679 29.231L48.228 29.153"/>
   <path stroke-width="0.13" stroke-linejoin="round" stroke-miterlimit="10" d="M47.378 29.609L48.084 29.597"/>
   <path stroke-width="0.13" stroke-linejoin="round" stroke-miterlimit="10" d="M45.904 31.019L46.012 30.951L46.088 30.785L46.122 30.545L46.107 30.269L46.048 30L45.951 29.775L45.831 29.634L45.707 29.594L45.6 29.661L45.523 29.827L45.49 30.068L45.503 30.344L45.564 30.614L45.661 30.836L45.78 30.98L45.904 31.019z"/>
   <path stroke-width="0.13" stroke-linejoin="round" stroke-miterlimit="10" d="M46.453 29.557L46.561 29.652L46.659 29.812L46.738 30.027L46.787 30.268L46.802 30.513L46.783 30.736L46.728 30.913L46.651 31.03"/>
   <path stroke-width="0.13" stroke-linejoin="round" stroke-miterlimit="10" d="M46.453 29.532L46.594 29.458L46.753 29.539L46.899 29.76L47.005 30.079L47.051 30.437L47.027 30.765L46.941 31.004L46.807 31.106L46.649 31.054"/>
   <path stroke-width="0.13" stroke-linejoin="round" stroke-miterlimit="10" d="M46.74 29.271L46.883 29.376L47.017 29.57L47.127 29.835L47.201 30.146L47.235 30.469L47.223 30.774L47.167 31.03L47.073 31.21L46.956 31.301"/>
   <path stroke-width="0.13" stroke-linejoin="round" stroke-miterlimit="10" d="M46.948 31.306L46.875 31.33L46.795 31.251L46.743 31.096"/>
   <path stroke-width="0.13" stroke-linejoin="round" stroke-miterlimit="10" d="M46.792 29.271L46.664 29.222L46.558 29.314L46.493 29.522"/>
   <path stroke-width="0.13" stroke-linejoin="round" stroke-miterlimit="10" d="M45.761 29.975L45.694 30.045L45.664 30.199L45.68 30.388L45.738 30.553L45.82 30.644L45.899 30.632"/>
   <path stroke-width="0.13" stroke-linejoin="round" stroke-miterlimit="10" d="M45.695 29.609L46.439 29.545"/>
   <path stroke-width="0.13" stroke-linejoin="round" stroke-miterlimit="10" d="M46.073 29.806L46.621 29.754"/>
   <path stroke-width="0.13" stroke-linejoin="round" stroke-miterlimit="10" d="M46.231 30.64L46.779 30.562"/>
   <path stroke-width="0.13" stroke-linejoin="round" stroke-miterlimit="10" d="M45.917 31.019L46.621 31.007"/>
   <path stroke-width="0.13" stroke-linejoin="round" stroke-miterlimit="10" d="M45.616 33.057L46.36 32.99"/>
   <path stroke-width="0.13" stroke-linejoin="round" stroke-miterlimit="10" d="M45.996 33.252L46.543 33.2"/>
   <path stroke-width="0.13" stroke-linejoin="round" stroke-miterlimit="10" d="M46.347 32.965L46.444 33.039L46.53 33.185L46.594 33.378L46.633 33.6"/>
   <path stroke-width="0.13" stroke-linejoin="round" stroke-miterlimit="10" d="M46.231 32.978L46.365 32.795L46.543 32.875L46.688 33.189"/>
   <path stroke-width="0.13" stroke-linejoin="round" stroke-miterlimit="10" d="M45.408 33.265L45.518 33.078L45.671 33.072L45.826 33.247L45.944 33.561"/>
   <path stroke-width="0.13" stroke-linejoin="round" stroke-miterlimit="10" d="M48.776 30.968L47.613 30.954"/>
   <path stroke-width="0.13" stroke-linejoin="round" stroke-miterlimit="10" d="M47.613 30.954L47.588 30.836"/>
   <path stroke-width="0.13" stroke-linejoin="round" stroke-miterlimit="10" d="M47.588 30.836L47.523 30.614"/>
   <path stroke-width="0.13" stroke-linejoin="round" stroke-miterlimit="10" d="M50.616 30.144L54.14 32.037"/>
   <path stroke-width="0.13" stroke-linejoin="round" stroke-miterlimit="10" d="M54.936 32.076L54.35 32.155"/>
   <path stroke-width="0.13" stroke-linejoin="round" stroke-miterlimit="10" d="M54.35 32.155L54.298 33.161"/>
   <path stroke-width="0.13" stroke-linejoin="round" stroke-miterlimit="10" d="M50.159 33.396L50.512 33.304"/>
   <path stroke-width="0.13" stroke-linejoin="round" stroke-miterlimit="10" d="M45.957 31.111L45.878 32.99"/>
   <path stroke-width="0.13" stroke-linejoin="round" stroke-miterlimit="10" d="M50.042 31.423L50.121 31.629L50.195 31.818L50.265 31.996L50.328 32.167L50.378 32.332L50.415 32.5L50.444 32.661L50.463 32.799L50.472 32.896L50.472 32.936"/>
   <path stroke-width="0.13" stroke-linejoin="round" stroke-miterlimit="10" d="M47.496 27.561L47.661 27.431L47.801 27.323L47.939 27.216L48.091 27.094L48.277 26.936L48.49 26.746L48.707 26.542L48.932 26.327L49.167 26.106L49.411 25.882L49.646 25.664L49.857 25.464L50.054 25.285L50.241 25.123L50.426 24.983L50.618 24.858L50.807 24.751L50.97 24.667L51.085 24.611L51.125 24.585"/>
   <path stroke-width="0.13" stroke-linejoin="round" stroke-miterlimit="10" d="M51.713 25.172L51.573 25.3L51.442 25.417L51.32 25.527L51.203 25.638L51.088 25.757L50.979 25.871L50.881 25.972L50.801 26.065L50.737 26.161L50.697 26.265L50.674 26.375L50.667 26.477L50.679 26.571L50.713 26.658L50.774 26.734L50.866 26.794L50.987 26.83L51.133 26.844L51.298 26.838L51.478 26.812L51.692 26.742L51.936 26.626L52.176 26.489L52.374 26.359L52.493 26.265L52.554 26.193L52.597 26.12L52.625 26.056L52.643 26.01L52.655 25.995"/>
   <path stroke-width="0.13" stroke-linejoin="round" stroke-miterlimit="10" d="M51.948 25.327L51.811 25.443L51.686 25.541L51.567 25.635L51.45 25.743L51.323 25.876L51.185 26.047L51.048 26.245L50.93 26.428L50.847 26.564L50.82 26.617"/>
   <path stroke-width="0.13" stroke-linejoin="round" stroke-miterlimit="10" d="M54.101 28.527L53.953 28.603L53.814 28.661L53.685 28.722L53.56 28.801L53.438 28.917L53.322 29.065L53.22 29.227L53.143 29.399L53.094 29.583L53.085 29.777L53.119 29.969L53.189 30.149L53.289 30.317L53.412 30.468L53.554 30.597L53.704 30.698L53.856 30.768L54.012 30.811L54.171 30.83L54.335 30.83L54.512 30.798L54.691 30.728L54.847 30.649L54.957 30.585L54.996 30.559"/>
   <path stroke-width="0.13" stroke-linejoin="round" stroke-miterlimit="10" d="M54.219 28.839L54.107 28.876L54.008 28.902L53.911 28.928L53.816 28.969L53.712 29.035L53.603 29.131L53.503 29.245L53.412 29.37L53.337 29.498L53.281 29.62L53.25 29.745L53.235 29.87L53.234 29.981L53.24 30.059L53.24 30.085"/>
   <path stroke-width="0.13" stroke-linejoin="round" stroke-miterlimit="10" d="M55.786 34.74L55.685 34.774L55.597 34.796L55.512 34.822L55.421 34.862L55.317 34.936L55.179 35.063L55.015 35.244L54.853 35.462L54.723 35.691L54.654 35.911L54.642 36.112L54.667 36.293L54.725 36.462L54.814 36.619L54.926 36.771L55.066 36.906L55.228 37.015L55.399 37.098L55.564 37.159L55.707 37.201L55.838 37.222L55.965 37.225L56.073 37.216L56.148 37.207L56.173 37.207"/>
   <path stroke-width="0.13" stroke-linejoin="round" stroke-miterlimit="10" d="M55.902 41.07L55.744 41.063L55.604 41.045L55.47 41.033L55.328 41.036L55.161 41.072L54.969 41.14L54.768 41.237L54.578 41.353L54.417 41.484L54.301 41.618L54.234 41.752L54.198 41.881L54.189 42.006L54.2 42.127L54.222 42.243L54.253 42.343L54.287 42.42L54.335 42.487L54.402 42.555L54.496 42.634L54.676 42.734L54.947 42.847L55.231 42.954L55.459 43.033L55.551 43.058"/>
   <path stroke-width="0.13" stroke-linejoin="round" stroke-miterlimit="10" d="M54.258 41.932L54.322 42.029L54.372 42.118L54.423 42.203L54.484 42.283L54.57 42.362L54.679 42.43L54.795 42.481L54.917 42.521L55.039 42.557L55.156 42.597L55.274 42.64L55.39 42.683L55.49 42.719L55.56 42.743L55.585 42.756"/>
   <path stroke-width="0.13" stroke-linejoin="round" stroke-miterlimit="10" d="M54.649 45.131L54.509 45.021L54.386 44.917L54.267 44.82L54.137 44.734L53.985 44.661L53.822 44.613L53.667 44.591L53.515 44.584L53.362 44.584L53.204 44.584L53.048 44.585L52.904 44.591L52.774 44.601L52.665 44.612L52.579 44.622L52.509 44.631L52.445 44.643L52.393 44.652L52.359 44.658L52.344 44.658"/>
   <path stroke-width="0.13" stroke-linejoin="round" stroke-miterlimit="10" d="M52.575 44.856L52.786 44.965L52.975 45.069L53.156 45.165L53.343 45.252L53.551 45.325L53.79 45.378L54.04 45.412L54.265 45.432L54.426 45.441L54.491 45.441"/>
   <path stroke-width="0.13" stroke-linejoin="round" stroke-miterlimit="10" d="M52.378 45.209L52.515 45.277L52.628 45.341L52.74 45.401L52.871 45.46L53.042 45.521L53.299 45.587L53.625 45.649L53.948 45.704L54.194 45.741L54.298 45.755"/>
   <path stroke-width="0.13" stroke-linejoin="round" stroke-miterlimit="10" d="M35.865 40.301L35.767 40.334L35.695 40.468L35.665 40.676L35.683 40.918L35.746 41.145L35.841 41.313L35.945 41.39"/>
   <path stroke-width="0.13" stroke-linejoin="round" stroke-miterlimit="10" d="M35.005 34.231L35.29 34.524L35.564 34.801L35.819 35.06L36.049 35.301L36.255 35.52L36.439 35.728L36.607 35.926L36.746 36.093L36.841 36.21L36.881 36.264"/>
  </g>
  <g>
   <path stroke-width="0.13" stroke-linejoin="round" stroke-miterlimit="10" d="M37.536 35.289L37.659 35.429L37.765 35.552L37.868 35.671L37.981 35.799L38.122 35.953L38.31 36.146L38.527 36.36L38.731 36.561L38.884 36.71L38.936 36.777"/>
   <path stroke-width="0.13" stroke-linejoin="round" stroke-miterlimit="10" d="M38.24 37.716L38.639 38.159L39.012 38.585L39.36 38.982L39.689 39.335L39.999 39.63L40.255 39.854L40.45 40.023L40.631 40.156L40.843 40.279L41.131 40.411L41.567 40.549L42.107 40.668L42.639 40.761L43.042 40.82L43.198 40.845"/>
  </g>
  <g>
   <path stroke-width="0.13" stroke-linejoin="round" stroke-miterlimit="10" d="M45.396 40.954L45.704 40.929L45.984 40.908L46.25 40.887L46.517 40.865L46.801 40.837L47.104 40.804L47.402 40.773L47.667 40.74L47.866 40.71L47.972 40.679L48.015 40.655L48.042 40.631L48.061 40.606L48.076 40.572L48.09 40.524L48.103 40.417L48.107 40.238L48.098 40.027L48.069 39.823L48.012 39.664L47.929 39.557L47.834 39.478L47.731 39.418L47.631 39.378L47.543 39.353L47.463 39.34L47.39 39.34L47.328 39.35L47.276 39.365L47.237 39.378"/>
   <path stroke-width="0.13" stroke-linejoin="round" stroke-miterlimit="10" d="M30.684 46.658L30.617 46.627L30.562 46.597L30.509 46.567L30.446 46.543L30.361 46.524L30.251 46.512L30.125 46.506L29.986 46.514L29.847 46.53L29.716 46.557L29.594 46.594L29.484 46.634L29.388 46.682L29.309 46.734L29.251 46.789L29.219 46.838L29.202 46.881L29.195 46.923L29.192 46.978L29.185 47.052L29.175 47.276L29.166 47.686L29.166 48.159L29.181 48.576L29.219 48.807L29.268 48.892L29.32 48.948L29.376 48.984L29.446 49.012L29.533 49.039L29.664 49.054L29.832 49.046L29.998 49.027L30.128 49.009L30.179 48.994"/>
   <path stroke-width="0.13" stroke-linejoin="round" stroke-miterlimit="10" d="M29.169 48.393L29.117 48.447L29.067 48.491L29.021 48.536L28.978 48.584L28.937 48.643L28.905 48.703L28.879 48.756L28.861 48.813L28.847 48.877L28.838 48.957L28.83 49.057L28.829 49.171L28.836 49.289L28.861 49.398L28.905 49.487L28.963 49.546L29.027 49.582L29.1 49.606L29.184 49.625L29.286 49.652L29.393 49.686L29.504 49.716L29.626 49.743L29.76 49.762L29.914 49.768L30.079 49.759L30.246 49.738L30.414 49.704L30.585 49.658L30.757 49.603L30.934 49.533L31.102 49.454L31.248 49.375L31.364 49.302L31.434 49.249L31.472 49.21L31.498 49.18L31.515 49.152L31.527 49.118L31.536 49.073L31.536 49.006L31.524 48.926L31.507 48.845L31.492 48.784L31.492 48.758"/>
   <path stroke-width="0.13" stroke-linejoin="round" stroke-miterlimit="10" d="M28.099 49.661L28.105 49.561L28.109 49.463L28.114 49.371L28.12 49.296L28.132 49.246L28.144 49.216L28.155 49.195L28.169 49.18L28.187 49.165L28.214 49.146L28.297 49.116L28.446 49.073L28.612 49.03L28.751 48.996L28.815 48.982"/>
   <path stroke-width="0.13" stroke-linejoin="round" stroke-miterlimit="10" d="M28.504 51.918L28.515 52.018L28.521 52.112L28.53 52.2L28.548 52.283L28.583 52.362L28.635 52.432L28.692 52.49L28.754 52.536L28.823 52.572L28.899 52.593L28.984 52.594L29.074 52.576L29.16 52.548L29.225 52.521L29.251 52.509"/>
   <path stroke-width="0.13" stroke-linejoin="round" stroke-miterlimit="10" d="M29.286 52.179L29.277 52.25L29.272 52.317L29.266 52.381L29.251 52.435L29.221 52.478L29.173 52.506L29.12 52.518L29.062 52.521L29 52.512L28.939 52.493L28.881 52.468L28.826 52.432L28.777 52.389L28.736 52.338L28.707 52.279L28.692 52.212L28.69 52.139L28.699 52.069L28.716 52.008L28.74 51.965L28.774 51.939L28.818 51.923L28.861 51.917L28.893 51.914L28.905 51.914"/>
  </g>
  <path stroke-width="0.3" stroke-linejoin="round" stroke-miterlimit="10" d="M28.439 49.582L28.312 49.615L28.204 49.64L28.097 49.667L27.981 49.704L27.841 49.764L27.673 49.85L27.489 49.954L27.309 50.072L27.144 50.192L27.015 50.31L26.92 50.426L26.847 50.54L26.795 50.646L26.757 50.732L26.733 50.789L26.716 50.829L26.701 50.865L26.692 50.896L26.686 50.914L26.686 50.929"/>
  <path stroke-width="0.13" stroke-linejoin="round" stroke-miterlimit="10" d="M28.608 50.091L28.408 50.195L28.225 50.283L28.053 50.368L27.884 50.466L27.713 50.588L27.556 50.728L27.42 50.868L27.306 51.008L27.207 51.142L27.117 51.267L27.039 51.389L26.969 51.509L26.917 51.613L26.882 51.686L26.868 51.712"/>
  <path stroke-width="0.3" stroke-linejoin="round" stroke-miterlimit="10" d="M30.658 50.939L30.704 51.02L30.75 51.085L30.792 51.151L30.829 51.229L30.856 51.337L30.867 51.484L30.861 51.667L30.836 51.871L30.797 52.081L30.739 52.28L30.67 52.459L30.591 52.616L30.507 52.756L30.417 52.881L30.326 52.991L30.245 53.081L30.176 53.145L30.109 53.195L30.03 53.246L29.928 53.305L29.815 53.375L29.699 53.438L29.574 53.496L29.431 53.552L29.266 53.603L29.083 53.649L28.897 53.686L28.71 53.709L28.524 53.722L28.339 53.719L28.167 53.704L28.01 53.679L27.873 53.646L27.757 53.609L27.661 53.57L27.582 53.527L27.515 53.479L27.46 53.435L27.425 53.402L27.413 53.389"/>
  <g>
   <path stroke-width="0.13" stroke-linejoin="round" stroke-miterlimit="10" d="M28.515 50.796L28.403 50.863L28.303 50.918L28.207 50.973L28.109 51.039L28.003 51.127L27.896 51.231L27.798 51.341L27.708 51.456L27.632 51.572L27.574 51.689L27.53 51.796L27.501 51.887L27.486 51.973L27.483 52.064L27.49 52.17L27.521 52.296L27.576 52.432L27.635 52.557L27.686 52.648L27.711 52.686"/>
   <path stroke-width="0.13" stroke-linejoin="round" stroke-miterlimit="10" d="M29.626 49.883L29.809 51.448"/>
   <path stroke-width="0.13" stroke-linejoin="round" stroke-miterlimit="10" d="M28.256 49.204L28.829 49.765"/>
   <path stroke-width="0.13" stroke-linejoin="round" stroke-miterlimit="10" d="M28.844 49.765L28.582 52.048"/>
  </g>
  <path stroke-width="0.13" stroke-linejoin="round" stroke-miterlimit="10" d="M67.26 55.926L56.137 58.862"/>
  <path stroke-width="0.3" stroke-linejoin="round" stroke-miterlimit="10" d="M67.625 56.448L55.655 60.155"/>
  <path stroke-width="0.13" stroke-linejoin="round" stroke-miterlimit="10" d="M53.322 58.384C53.918 58.759 54.609 58.96 55.316 58.96C55.594 58.96 55.871 58.929 56.14 58.868"/>
  <g>
   <path stroke-width="0.3" stroke-linejoin="round" stroke-miterlimit="10" d="M53.161 59.231C53.765 59.829 54.581 60.164 55.432 60.164C55.508 60.164 55.582 60.161 55.658 60.156"/>
   <path stroke-width="0.3" stroke-linejoin="round" stroke-miterlimit="10" d="M51.738 58.353L51.661 59.999"/>
  </g>
  <path stroke-width="0.13" stroke-linejoin="round" stroke-miterlimit="10" d="M53.319 58.38L51.831 56.643"/>
  <path stroke-width="0.3" stroke-linejoin="round" stroke-miterlimit="10" d="M53.161 59.228L51.831 57.531"/>
  <g>
   <path stroke-width="0.13" stroke-linejoin="round" stroke-miterlimit="10" d="M63.396 35.093L63.512 35.758"/>
   <path stroke-width="0.13" stroke-linejoin="round" stroke-miterlimit="10" d="M63.747 37.911L63.787 38.695"/>
   <path stroke-width="0.13" stroke-linejoin="round" stroke-miterlimit="10" d="M63.944 41.423L63.905 42.284"/>
   <path stroke-width="0.13" stroke-linejoin="round" stroke-miterlimit="10" d="M63.865 44.073L63.787 44.856"/>
   <path stroke-width="0.13" stroke-linejoin="round" stroke-miterlimit="10" d="M63.591 46.567L63.435 47.232"/>
   <path stroke-width="0.13" stroke-linejoin="round" stroke-miterlimit="10" d="M65.105 44.7L65.263 46.109"/>
   <path stroke-width="0.13" stroke-linejoin="round" stroke-miterlimit="10" d="M65.263 46.109L64.713 46.735"/>
   <path stroke-width="0.13" stroke-linejoin="round" stroke-miterlimit="10" d="M64.793 48.485L65.028 49.7"/>
   <path stroke-width="0.13" stroke-linejoin="round" stroke-miterlimit="10" d="M65.028 49.7L64.713 50.091"/>
  </g>
  <g>
   <path stroke-width="0.3" stroke-linejoin="round" stroke-miterlimit="10" d="M59.206 12.496L59.322 12.55L59.432 12.595L59.534 12.638L59.628 12.688L59.71 12.749L59.78 12.814L59.838 12.875L59.881 12.936L59.909 13.003L59.92 13.086L59.911 13.179L59.88 13.279L59.826 13.378L59.756 13.47L59.668 13.55L59.576 13.606L59.482 13.643L59.377 13.663L59.244 13.67L59.079 13.675L58.792 13.646L58.356 13.567L57.85 13.467L57.35 13.367L56.933 13.295L56.643 13.256L56.429 13.227L56.241 13.207L56.021 13.189L55.713 13.169L55.247 13.147L54.648 13.125L54.003 13.112L53.402 13.111L52.936 13.128L52.609 13.167L52.348 13.221L52.131 13.275L51.929 13.32L51.716 13.337L51.482 13.326L51.255 13.295L51.06 13.257L50.924 13.226L50.874 13.211L50.799 13.23L50.603 13.278L50.326 13.348L50.011 13.426L49.697 13.506L49.409 13.589L49.139 13.676L48.868 13.76L48.582 13.833L48.265 13.885L47.939 13.907L47.631 13.903L47.341 13.884L47.063 13.859L46.792 13.843L46.561 13.829L46.381 13.807L46.219 13.791L46.043 13.787L45.825 13.801L45.578 13.846L45.335 13.916L45.09 13.999L44.835 14.076L44.563 14.137L44.301 14.18L44.076 14.212L43.86 14.231L43.637 14.236L43.384 14.221L43.139 14.189L42.929 14.144L42.725 14.083L42.496 14.01L42.206 13.928L41.853 13.826L41.463 13.708L41.064 13.586L40.673 13.473L40.313 13.38L39.97 13.308L39.64 13.25L39.359 13.207L39.165 13.179L39.087 13.166"/>
   <path stroke-width="0.3" stroke-linejoin="round" stroke-miterlimit="10" d="M50.106 13.502L49.82 13.57L49.569 13.618L49.326 13.669L49.066 13.747L48.761 13.881L48.438 14.05L48.13 14.236L47.817 14.464L47.487 14.759L47.119 15.143L46.728 15.614L46.341 16.155L45.954 16.783L45.57 17.507L45.183 18.341L44.838 19.228L44.555 20.123L44.314 21.045L44.097 22.015L43.88 23.053L43.682 24.065L43.53 24.975L43.414 25.835L43.323 26.693L43.249 27.597L43.2 28.588L43.185 29.579L43.192 30.446L43.204 31.062L43.204 31.297"/>
   <path stroke-width="0.3" stroke-linejoin="round" stroke-miterlimit="10" d="M30.722 46.593L30.573 46.563L30.442 46.53L30.317 46.5L30.179 46.482L30.016 46.484L29.832 46.493L29.644 46.506L29.463 46.542L29.294 46.619L29.149 46.756L29.065 47.03L29.05 47.439L29.071 47.881L29.097 48.249L29.094 48.438L29.067 48.487L29.038 48.518L29.007 48.539L28.972 48.563L28.932 48.6L28.896 48.651L28.865 48.704L28.832 48.762L28.785 48.817L28.716 48.871L28.597 48.906L28.431 48.92L28.248 48.933L28.079 48.965L27.955 49.034L27.887 49.156L27.852 49.313L27.841 49.466L27.844 49.585L27.844 49.637"/>
   <path stroke-width="0.3" stroke-linejoin="round" stroke-miterlimit="10" d="M30.67 50.978L30.843 50.594L31.019 50.203L31.179 49.845L31.304 49.567L31.376 49.405L31.408 49.332L31.434 49.277L31.454 49.232L31.471 49.189L31.484 49.134L31.492 49.064L31.492 48.993L31.489 48.927L31.486 48.881L31.484 48.862L31.733 48.801L32.325 48.652L33.03 48.475L33.622 48.328L33.871 48.262"/>
   <path stroke-width="0.3" stroke-linejoin="round" stroke-miterlimit="10" d="M32.027 25.864L32.323 26.384L32.612 26.888L32.88 27.356L33.107 27.763L33.276 28.088L33.395 28.356L33.487 28.599L33.56 28.8L33.615 28.943L33.655 29.01L33.689 29.022L33.719 29.018L33.747 29.007L33.78 29.001L33.817 29.01L33.908 29.097L34.06 29.272L34.225 29.477L34.359 29.644L34.414 29.714L34.475 29.698L34.621 29.655L34.804 29.6L34.969 29.544L35.066 29.498L35.103 29.466L35.127 29.44L35.142 29.416L35.156 29.382L35.174 29.335L35.201 29.243L35.228 29.105L35.256 28.957L35.274 28.841L35.289 28.788"/>
   <path stroke-width="0.3" stroke-linejoin="round" stroke-miterlimit="10" d="M25.684 27.704L26.199 28.109L26.658 28.475L27.097 28.824L27.554 29.175L28.071 29.548L28.655 29.942L29.25 30.318L29.792 30.65L30.216 30.911L30.457 31.068L30.58 31.164L30.686 31.251L30.766 31.324L30.82 31.375L30.838 31.393L30.838 31.425L30.847 31.512L30.87 31.629L30.919 31.76L31.001 31.882L31.268 32.034L31.76 32.243L32.32 32.462L32.789 32.646L33.008 32.75L33.039 32.792L33.054 32.828L33.057 32.862L33.058 32.905L33.063 32.966L33.057 33.103L33.039 33.337L33.018 33.621L33.003 33.911L33.008 34.161L33.023 34.365L33.039 34.548L33.063 34.707L33.103 34.832L33.17 34.92L33.274 34.963L33.402 34.968L33.527 34.951L33.621 34.93L33.661 34.917"/>
   <path stroke-width="0.3" stroke-linejoin="round" stroke-miterlimit="10" d="M27.42 35.47L27.37 35.539L27.327 35.594L27.283 35.649L27.242 35.713L27.204 35.796L27.167 35.89L27.138 35.985L27.117 36.088L27.103 36.204L27.094 36.34L27.103 36.512L27.129 36.712L27.164 36.902L27.19 37.042L27.204 37.095"/>
   <path stroke-width="0.3" stroke-linejoin="round" stroke-miterlimit="10" d="M33.712 35.027L33.792 35.121L33.86 35.207L33.929 35.289L34.002 35.371L34.091 35.462L34.198 35.552L34.308 35.636L34.415 35.712L34.509 35.78L34.579 35.841L34.634 35.901L34.679 35.959L34.713 36.009L34.735 36.045L34.749 36.057"/>
   <path stroke-width="0.3" stroke-linejoin="round" stroke-miterlimit="10" d="M35.07 34.218L36.963 36.228"/>
   <path stroke-width="0.3" stroke-linejoin="round" stroke-miterlimit="10" d="M40.93 40.509L40.213 40.796"/>
   <path stroke-width="0.3" stroke-linejoin="round" stroke-miterlimit="10" d="M40.213 40.796L40.213 46.149"/>
   <path stroke-width="0.3" stroke-linejoin="round" stroke-miterlimit="10" d="M40.213 46.149L41.256 45.991"/>
   <path stroke-width="0.3" stroke-linejoin="round" stroke-miterlimit="10" d="M42.549 47.154L44.142 48.902"/>
   <path stroke-width="0.3" stroke-linejoin="round" stroke-miterlimit="10" d="M44.142 48.917L44.22 48.158"/>
   <path stroke-width="0.3" stroke-linejoin="round" stroke-miterlimit="10" d="M44.22 48.158L44.037 47.585"/>
   <path stroke-width="0.3" stroke-linejoin="round" stroke-miterlimit="10" d="M44.037 47.585L44.037 46.984"/>
   <path stroke-width="0.3" stroke-linejoin="round" stroke-miterlimit="10" d="M44.037 46.984L44.286 46.645"/>
   <path stroke-width="0.3" stroke-linejoin="round" stroke-miterlimit="10" d="M44.286 46.645L44.886 46.319"/>
   <path stroke-width="0.3" stroke-linejoin="round" stroke-miterlimit="10" d="M44.886 46.319L44.886 46.161"/>
   <path stroke-width="0.3" stroke-linejoin="round" stroke-miterlimit="10" d="M44.886 46.149L44.207 46.084"/>
   <path stroke-width="0.3" stroke-linejoin="round" stroke-miterlimit="10" d="M44.207 46.084L43.698 45.665"/>
   <path stroke-width="0.3" stroke-linejoin="round" stroke-miterlimit="10" d="M43.698 45.665L43.698 45.444"/>
   <path stroke-width="0.3" stroke-linejoin="round" stroke-miterlimit="10" d="M43.698 45.444L42.993 45.496"/>
   <path stroke-width="0.3" stroke-linejoin="round" stroke-miterlimit="10" d="M43.201 40.835L45.539 42.415"/>
   <path stroke-width="0.3" stroke-linejoin="round" stroke-miterlimit="10" d="M45.539 42.415L45.485 43.015"/>
   <path stroke-width="0.3" stroke-linejoin="round" stroke-miterlimit="10" d="M45.485 43.003L46.295 43.329"/>
   <path stroke-width="0.3" stroke-linejoin="round" stroke-miterlimit="10" d="M46.295 43.329L44.886 43.707"/>
   <path stroke-width="0.3" stroke-linejoin="round" stroke-miterlimit="10" d="M44.886 43.707L44.886 43.929"/>
   <path stroke-width="0.3" stroke-linejoin="round" stroke-miterlimit="10" d="M44.886 43.929L43.698 44.087"/>
   <path stroke-width="0.3" stroke-linejoin="round" stroke-miterlimit="10" d="M43.698 44.1L43.698 44.752"/>
   <path stroke-width="0.3" stroke-linejoin="round" stroke-miterlimit="10" d="M43.698 44.738L42.941 44.844"/>
   <path stroke-width="0.3" stroke-linejoin="round" stroke-miterlimit="10" d="M41.256 45.835L41.255 45.651L41.249 45.488L41.244 45.334L41.246 45.165L41.256 44.968L41.274 44.74L41.293 44.506L41.322 44.283L41.362 44.087L41.42 43.936L41.487 43.834L41.554 43.762L41.625 43.707L41.707 43.661L41.799 43.612L41.899 43.554L42 43.503L42.097 43.466L42.194 43.445L42.287 43.448L42.369 43.47L42.433 43.506L42.49 43.557L42.548 43.628L42.612 43.719L42.698 43.899L42.798 44.176L42.893 44.472L42.965 44.709L42.99 44.799"/>
   <path stroke-width="0.3" stroke-linejoin="round" stroke-miterlimit="10" d="M42.941 45.613L42.932 45.74L42.927 45.847L42.923 45.954L42.911 46.07L42.887 46.21L42.838 46.396L42.768 46.61L42.695 46.814L42.639 46.965L42.612 47.03"/>
   <path stroke-width="0.3" stroke-linejoin="round" stroke-miterlimit="10" d="M34.691 36.124L34.432 36.106L34.177 36.094L33.944 36.082L33.746 36.058L33.606 36.015L33.527 35.954L33.488 35.887L33.46 35.817L33.42 35.75L33.335 35.689L32.843 35.64L31.759 35.591L30.388 35.545L29.033 35.508L27.996 35.481L27.579 35.469"/>
   <path stroke-width="0.3" stroke-linejoin="round" stroke-miterlimit="10" d="M27.315 37.09L28.544 37.174L29.844 37.271L31.088 37.365L32.152 37.441L32.908 37.481L33.229 37.469L33.276 37.411L33.286 37.343L33.281 37.27L33.29 37.201L33.337 37.143L33.624 37.125L34.203 37.152L34.871 37.204L35.426 37.264L35.674 37.302"/>
   <path stroke-width="0.3" stroke-linejoin="round" stroke-miterlimit="10" d="M34.587 29.884L34.7 30.068L34.808 30.257L34.909 30.428L35 30.564L35.075 30.643L35.131 30.675L35.177 30.687L35.222 30.689L35.274 30.689L35.345 30.698L35.447 30.708L35.579 30.714L35.735 30.733L35.914 30.775L36.106 30.861L36.332 31.015L36.597 31.246L36.881 31.536L37.159 31.867L37.408 32.216L37.616 32.579L37.789 32.944L37.921 33.296L38.012 33.619L38.058 33.899L38.064 34.131L38.039 34.328L37.996 34.496L37.945 34.64L37.896 34.767L37.845 34.884L37.789 34.987L37.737 35.07L37.698 35.128L37.679 35.146L37.676 35.143L37.679 35.134L37.682 35.121L37.682 35.106L37.679 35.093L37.652 35.064L37.593 35.017L37.509 34.954L37.408 34.887L37.298 34.82L37.186 34.758L37.07 34.695L36.945 34.636L36.805 34.585L36.648 34.549L36.478 34.54L36.311 34.557L36.148 34.584L35.987 34.604L35.835 34.603L35.682 34.576L35.534 34.534L35.411 34.49L35.323 34.456L35.298 34.442"/>
  </g>
  <path stroke-width="0.13" d="M30.44 12.762C29.882 14.954 28.638 15.929 28.638 15.929"/>
  <path stroke-width="0.3" d="M18.231 23.748C20.785 23.615 23.097 23.387 23.073 22.666"/>
  <path stroke="none" fill="#000000" d="M73.349 58.838L73.349 58.838 73.528 58.838 73.528 59.84C73.483 59.841 73.439 59.832 73.399 59.817 73.331 59.792 73.263 59.75 73.197 59.695 73.132 59.639 73.055 59.557 72.968 59.451 72.832 59.287 72.724 59.176 72.647 59.118 72.569 59.06 72.493 59.03 72.423 59.03 72.349 59.03 72.287 59.058 72.236 59.11 72.186 59.162 72.161 59.231 72.161 59.317 72.161 59.406 72.188 59.478 72.242 59.53 72.296 59.585 72.37 59.612 72.465 59.612L72.444 59.804C72.302 59.79 72.192 59.741 72.118 59.656 72.043 59.57 72.007 59.456 72.007 59.311 72.007 59.165 72.046 59.051 72.128 58.966 72.209 58.883 72.308 58.84 72.427 58.84 72.486 58.84 72.548 58.853 72.605 58.878 72.664 58.902 72.725 58.942 72.79 59.002 72.855 59.058 72.944 59.154 73.058 59.287 73.15 59.399 73.215 59.47 73.248 59.503 73.281 59.534 73.314 59.56 73.349 59.581L73.349 58.838 73.349 58.838z"/>
  <path stroke="none" fill="#000000" d="M72.781 58.448L72.781 58.448C73.028 58.448 73.194 58.417 73.277 58.359 73.359 58.301 73.4 58.229 73.4 58.145L73.554 58.145C73.554 58.289 73.501 58.405 73.397 58.487 73.271 58.588 73.066 58.637 72.781 58.637L72.781 58.637 72.781 58.637C72.6 58.637 72.457 58.619 72.347 58.584 72.237 58.545 72.155 58.491 72.096 58.418 72.036 58.345 72.007 58.255 72.007 58.145 72.007 58.063 72.022 57.991 72.055 57.93 72.088 57.869 72.135 57.819 72.197 57.779 72.26 57.737 72.334 57.707 72.423 57.685 72.51 57.661 72.629 57.651 72.781 57.651 72.959 57.651 73.1 57.668 73.21 57.704 73.319 57.741 73.405 57.795 73.463 57.869 73.525 57.942 73.554 58.033 73.554 58.145L73.4 58.145C73.4 58.058 73.359 57.987 73.277 57.929 73.194 57.871 73.028 57.841 72.781 57.841 72.531 57.841 72.364 57.871 72.284 57.929 72.201 57.987 72.161 58.06 72.161 58.146 72.161 58.231 72.197 58.299 72.269 58.35 72.361 58.414 72.531 58.448 72.781 58.448L72.781 58.448 72.781 58.448z"/>
  <path stroke="none" fill="#000000" d="M72.391 57.212L72.391 57.212C72.462 57.212 72.522 57.189 72.566 57.143L72.706 57.174 72.706 57.174 72.706 57.174C72.677 57.253 72.638 57.308 72.584 57.347 72.533 57.384 72.469 57.402 72.397 57.402 72.287 57.402 72.194 57.362 72.118 57.283 72.043 57.204 72.007 57.097 72.007 56.966 72.007 56.835 72.045 56.728 72.121 56.648 72.198 56.567 72.292 56.527 72.403 56.527 72.472 56.527 72.534 56.545 72.584 56.582 72.638 56.618 72.677 56.674 72.706 56.75 72.736 56.656 72.784 56.587 72.853 56.539 72.921 56.49 73.001 56.465 73.096 56.465 73.224 56.465 73.332 56.509 73.421 56.603 73.51 56.694 73.554 56.814 73.554 56.963L73.4 56.962C73.4 56.872 73.371 56.799 73.314 56.741 73.257 56.683 73.186 56.655 73.097 56.655 73.007 56.655 72.933 56.685 72.875 56.744 72.816 56.804 72.787 56.878 72.787 56.968 72.787 57.055 72.816 57.128 72.873 57.185 72.932 57.243 73.004 57.271 73.09 57.271L73.09 57.271 73.09 57.271C73.144 57.271 73.195 57.259 73.245 57.234 73.295 57.209 73.332 57.171 73.359 57.121 73.387 57.073 73.4 57.018 73.4 56.962L73.554 56.963C73.554 57.113 73.51 57.234 73.421 57.326 73.331 57.417 73.221 57.463 73.09 57.463 72.99 57.463 72.908 57.439 72.841 57.389 72.775 57.338 72.73 57.267 72.706 57.174L72.566 57.143C72.612 57.095 72.635 57.036 72.635 56.963 72.635 56.892 72.612 56.832 72.566 56.786 72.522 56.74 72.466 56.718 72.402 56.718 72.334 56.718 72.275 56.741 72.23 56.789 72.183 56.835 72.159 56.895 72.159 56.965 72.159 57.036 72.183 57.094 72.227 57.142 72.274 57.188 72.328 57.212 72.391 57.212L72.391 57.212 72.391 57.212z"/>
  <path stroke="none" fill="#000000" d="M72.995 55.1L73.165 55.1 73.165 55.756 72.995 55.756 72.013 55.064 72.013 54.914 72.995 54.914 72.995 54.709 73.165 54.709 73.165 54.914 73.528 54.914 73.528 55.1 73.528 55.1 73.165 55.1 72.995 55.1 72.995 55.1 72.311 55.1 72.995 55.575 72.995 55.1 72.995 55.1z"/>
  <path stroke="none" fill="#000000" d="M72.391 54.27L72.391 54.27C72.462 54.27 72.522 54.246 72.566 54.2L72.706 54.232 72.706 54.232 72.706 54.232C72.677 54.31 72.638 54.366 72.584 54.404 72.533 54.442 72.469 54.46 72.397 54.46 72.287 54.46 72.194 54.42 72.118 54.341 72.043 54.261 72.007 54.155 72.007 54.024 72.007 53.893 72.045 53.786 72.121 53.706 72.198 53.625 72.292 53.585 72.403 53.585 72.472 53.585 72.534 53.603 72.584 53.64 72.638 53.676 72.677 53.731 72.706 53.807 72.736 53.715 72.784 53.645 72.853 53.595 72.921 53.546 73.001 53.521 73.096 53.521 73.224 53.521 73.332 53.567 73.421 53.659 73.51 53.752 73.554 53.871 73.554 54.021L73.4 54.02C73.4 53.93 73.371 53.856 73.314 53.798 73.257 53.74 73.186 53.713 73.097 53.713 73.007 53.713 72.933 53.741 72.875 53.802 72.816 53.86 72.787 53.936 72.787 54.026 72.787 54.113 72.816 54.185 72.873 54.243 72.932 54.301 73.004 54.329 73.09 54.329L73.09 54.329 73.09 54.329C73.144 54.329 73.195 54.317 73.245 54.292 73.295 54.267 73.332 54.229 73.359 54.179 73.387 54.13 73.4 54.076 73.4 54.02L73.554 54.021C73.554 54.171 73.51 54.292 73.421 54.384 73.331 54.475 73.221 54.521 73.09 54.521 72.99 54.521 72.908 54.496 72.841 54.445 72.775 54.396 72.73 54.325 72.706 54.232L72.566 54.2C72.612 54.154 72.635 54.094 72.635 54.021 72.635 53.95 72.612 53.89 72.566 53.844 72.522 53.798 72.466 53.776 72.402 53.776 72.334 53.776 72.275 53.798 72.23 53.847 72.183 53.893 72.159 53.953 72.159 54.023 72.159 54.094 72.183 54.152 72.227 54.198 72.274 54.246 72.328 54.27 72.391 54.27L72.391 54.27 72.391 54.27z"/>
  <path stroke="none" fill="#000000" d="M73.349 52.363L73.349 52.363 73.528 52.363 73.528 53.365C73.483 53.366 73.439 53.359 73.399 53.344 73.331 53.317 73.263 53.277 73.197 53.222 73.132 53.164 73.055 53.084 72.968 52.978 72.832 52.813 72.724 52.701 72.647 52.643 72.569 52.585 72.493 52.557 72.423 52.557 72.349 52.557 72.287 52.584 72.236 52.637 72.186 52.689 72.161 52.758 72.161 52.843 72.161 52.932 72.188 53.003 72.242 53.057 72.296 53.11 72.37 53.137 72.465 53.139L72.444 53.329C72.302 53.317 72.192 53.268 72.118 53.182 72.043 53.097 72.007 52.981 72.007 52.838 72.007 52.692 72.046 52.578 72.128 52.493 72.209 52.408 72.308 52.365 72.427 52.365 72.486 52.365 72.548 52.378 72.605 52.402 72.664 52.427 72.725 52.469 72.79 52.527 72.855 52.584 72.944 52.679 73.058 52.813 73.15 52.924 73.215 52.996 73.248 53.027 73.281 53.06 73.314 53.085 73.349 53.106L73.349 52.363 73.349 52.363z"/>
 </g>
</svg>
