<?xml version="1.0" encoding="utf-8"?>
<!DOCTYPE svg PUBLIC "-//W3C//DTD SVG 1.1//EN" "http://www.w3.org/Graphics/SVG/1.1/DTD/svg11.dtd">
<!-- Generator: PTC Arbortext IsoDraw 7.3 -->
<svg width="100%" height="100%" viewBox="0 0 37.5 9.808"
 xmlns="http://www.w3.org/2000/svg" xmlns:xlink="http://www.w3.org/1999/xlink"
 fill-rule="evenodd" clip-rule="evenodd" stroke="#000000" stroke-linecap="round" fill="none" xml:space="preserve">
 <g id="frame">
  <g>
  </g>
 </g>
 <g id="Standard_x0020_layer">
  <g>
   <path stroke-width="0.3" d="M14.399 4.213L9.888 4.213"/>
   <path stroke-width="0.3" d="M14.399 5.152L9.888 5.152"/>
   <path stroke-width="0.3" d="M9.888 4.512L5.899 4.512"/>
   <path stroke-width="0.3" d="M9.888 4.852L5.899 4.852"/>
   <path stroke-width="0.3" d="M9.888 5.152L9.888 4.213"/>
   <path stroke-width="0.3" d="M5.899 4.852L5.899 4.512"/>
   <path stroke-width="0.3" d="M14.399 4.682L14.399 6.078"/>
   <path stroke-width="0.3" d="M14.399 6.078L14.797 6.078"/>
   <path stroke-width="0.3" d="M14.798 6.078C14.897 6.477 15.295 6.578 16.094 6.578C16.89 6.578 17.888 6.078 18.387 6.078C18.885 6.078 20.978 6.177 21.478 6.477C21.977 6.777 29.355 6.976 31.25 6.777C33.143 6.578 33.942 6.676 33.942 4.982"/>
   <path stroke-width="0.3" d="M14.798 3.387C14.897 2.988 15.295 2.887 16.094 2.887C16.89 2.887 17.888 3.387 18.387 3.387C18.885 3.387 20.978 3.286 21.478 2.988C21.977 2.689 29.355 2.49 31.25 2.689C33.143 2.887 33.942 2.789 33.942 4.484"/>
   <path stroke-width="0.3" d="M14.399 4.682L14.399 3.286"/>
   <path stroke-width="0.3" d="M14.399 3.286L14.797 3.286"/>
   <path stroke-width="0.3" d="M33.942 4.982L33.942 4.484"/>
   <g>
    <path stroke-width="0.13" d="M23.286 5.078L23.885 5.078"/>
    <path stroke-width="0.13" d="M24.361 4.57L24.948 4.57"/>
    <path stroke-width="0.13" d="M26.153 4.669L26.696 4.669"/>
    <path stroke-width="0.13" d="M26.153 4.979L26.663 4.979"/>
    <path stroke-width="0.13" d="M26.442 5.522L26.483 5.419"/>
    <path stroke-width="0.13" d="M26.663 4.979L26.995 4.16"/>
    <path stroke-width="0.13" d="M26.995 4.16L27.769 4.16"/>
    <path stroke-width="0.13" d="M27.769 4.16L28.224 5.144"/>
    <path stroke-width="0.13" d="M28.224 5.144L28.224 4.137"/>
    <path stroke-width="0.13" d="M28.224 4.137L28.888 4.137"/>
    <path stroke-width="0.13" d="M28.888 4.137L29.475 4.857"/>
    <path stroke-width="0.13" d="M29.475 4.857L29.475 4.126"/>
    <path stroke-width="0.13" d="M29.475 4.126L29.995 4.126"/>
    <path stroke-width="0.13" d="M29.995 4.126L29.995 5.522"/>
    <path stroke-width="0.13" d="M26.442 5.522L27 5.522"/>
    <path stroke-width="0.13" d="M27.824 5.522L28.733 5.522"/>
    <path stroke-width="0.13" d="M29.353 5.522L29.995 5.522"/>
    <path stroke-width="0.13" d="M30.115 5.522L31.079 5.522"/>
    <path stroke-width="0.13" d="M31.987 5.522L32.496 5.522"/>
    <path stroke-width="0.13" d="M27 5.522L27.074 5.333"/>
    <path stroke-width="0.13" d="M27.225 4.958L27.416 4.48"/>
    <path stroke-width="0.13" d="M27.416 4.48L27.603 4.956"/>
    <path stroke-width="0.13" d="M27.751 5.333L27.824 5.522"/>
    <path stroke-width="0.13" d="M27.228 4.956L27.603 4.956"/>
    <path stroke-width="0.13" d="M27.074 5.333L27.759 5.333"/>
    <path stroke-width="0.13" d="M28.733 5.522L28.733 4.724"/>
    <path stroke-width="0.13" d="M28.733 4.724L29.353 5.522"/>
    <path stroke-width="0.13" d="M30.115 5.522L30.115 4.115"/>
    <path stroke-width="0.13" d="M30.115 4.115L30.647 4.115"/>
    <path stroke-width="0.13" d="M30.647 4.115L30.647 5.144"/>
    <path stroke-width="0.13" d="M30.647 5.144L31.111 4.115"/>
    <path stroke-width="0.13" d="M31.111 4.115L31.853 4.115"/>
    <path stroke-width="0.13" d="M31.853 4.115L32.496 5.522"/>
    <path stroke-width="0.13" d="M31.079 5.522L31.161 5.322"/>
    <path stroke-width="0.13" d="M31.303 4.979L31.5 4.503"/>
    <path stroke-width="0.13" d="M31.5 4.503L31.728 4.979"/>
    <path stroke-width="0.13" d="M31.888 5.322L31.998 5.544"/>
    <path stroke-width="0.13" d="M31.303 4.979L31.728 4.979"/>
    <path stroke-width="0.13" d="M31.161 5.322L31.888 5.322"/>
    <path stroke-width="0.13" d="M24.948 4.57C24.946 4.4 24.839 4.217 24.564 4.145C24.286 4.075 23.769 4.102 23.635 4.16C23.501 4.217 23.283 4.352 23.278 4.615C23.274 4.878 23.667 4.958 23.716 4.958C23.765 4.958 24.353 4.895 24.385 5.017C24.417 5.137 24.367 5.238 24.26 5.248C24.152 5.256 23.998 5.283 23.929 5.208C23.864 5.133 23.893 5.118 23.885 5.078"/>
    <path stroke-width="0.13" d="M23.286 5.078C23.265 5.283 23.355 5.476 23.577 5.533C23.8 5.591 24.327 5.61 24.545 5.538C24.763 5.466 24.964 5.333 25.036 5.171"/>
    <path stroke-width="0.13" d="M24.361 4.57C24.358 4.427 24.323 4.4 24.189 4.387C24.056 4.373 23.998 4.405 23.96 4.45C23.925 4.495 23.925 4.562 23.998 4.615C24.068 4.669 24.58 4.615 24.643 4.66"/>
    <path stroke-width="0.13" d="M25.036 5.173C25.143 5.373 25.312 5.512 25.548 5.556C25.785 5.601 26.318 5.575 26.483 5.419"/>
    <path stroke-width="0.13" d="M26.153 4.979C26.141 5.158 26.044 5.216 25.87 5.238C25.696 5.262 25.615 5.163 25.571 5.06C25.527 4.958 25.521 4.695 25.576 4.602C25.629 4.508 25.704 4.453 25.835 4.453C25.963 4.453 26.125 4.514 26.153 4.669"/>
    <path stroke-width="0.13" d="M26.696 4.669C26.673 4.437 26.556 4.29 26.294 4.168C26.03 4.049 25.5 4.089 25.375 4.208"/>
    <path stroke-width="0.13" d="M25.375 4.208C25.166 4.347 24.983 4.453 24.995 4.855"/>
    <path stroke-width="0.13" d="M24.643 4.66C24.812 4.7 24.992 4.78 24.995 4.855"/>
   </g>
  </g>
 </g>
 <g id="Picture#">
  <g>
   <text transform="matrix(0 -1 1 0 36.234 8.848)" stroke="none" fill="#000000" font-family="'Helvetica'" font-size="2.117">304 915</text>
  </g>
 </g>
</svg>
