<?xml version="1.0" encoding="utf-8"?>
<!DOCTYPE svg PUBLIC "-//W3C//DTD SVG 1.1//EN" "http://www.w3.org/Graphics/SVG/1.1/DTD/svg11.dtd">
<!-- Generator: PTC Arbortext IsoDraw 7.3 -->
<svg width="100%" height="100%" viewBox="0 0 75 167.663"
 xmlns="http://www.w3.org/2000/svg" xmlns:xlink="http://www.w3.org/1999/xlink"
 fill-rule="evenodd" clip-rule="evenodd" stroke="#000000" stroke-linecap="round" fill="none" xml:space="preserve">
 <g id="Frame">
  <g>
  </g>
 </g>
 <g id="Standard_x0020_layer">
  <g>
   <path stroke-width="0.5" d="M63.34 52.408C63.34 52.408 46.158 53.039 46.125 53.039C46.093 53.039 42.271 53.106 42.005 48.686C41.738 44.267 42.869 2.924 42.869 2.992C42.869 3.057 42.271 0.732 46.125 0.732C49.981 0.732 65.201 1.596 65.201 1.596C65.201 1.596 67.262 1.463 67.262 6.913C67.262 12.362 65.268 42.206 65.268 42.206L65.001 48.32"/>
   <path stroke-width="0.13" d="M42.536 47.988C42.869 49.915 42.936 50.514 45.395 50.514C47.853 50.514 61.28 50.048 61.28 50.048"/>
   <path stroke-width="0.13" d="M60.415 48.652L44.863 48.985C44.863 48.985 43.799 48.253 43.667 45.993C43.533 43.734 43.932 15.619 43.932 15.619C43.932 15.619 44.597 6.78 44.664 6.115C44.729 5.45 44.996 4.719 46.658 4.785C48.319 4.852 64.403 5.517 64.537 5.583C64.67 5.65 65.667 5.251 65.667 6.913C65.667 8.574 65.201 21.734 65.135 21.734C65.069 21.734 64.204 44.332 64.204 44.332"/>
   <path stroke-width="0.13" d="M47.055 4.852C45.661 4.852 45.793 5.916 45.726 6.514C45.661 7.113 45.395 18.146 45.395 18.146L52.374 18.344C52.374 18.344 58.753 19.208 58.554 25.987"/>
   <path stroke-width="0.13" d="M58.554 25.987C58.354 29.178 55.896 33.432 51.045 33.631C46.192 33.831 45.46 33.698 45.46 33.698L45.195 48.585"/>
   <path stroke-width="0.3" d="M46.125 15.259L46.47 5.493"/>
   <path stroke-width="0.3" d="M46.47 5.493L64.415 6.251"/>
   <path stroke-width="0.3" d="M64.415 6.251L64.07 16.018"/>
   <path stroke-width="0.3" d="M46.125 15.259L64.07 16.018"/>
   <path stroke-width="0.13" d="M47.161 8.183L46.988 13.775"/>
   <path stroke-width="0.13" d="M47.643 13.946L62.621 14.396"/>
   <path stroke-width="0.13" d="M62.966 14.051L63.173 8.909"/>
   <path stroke-width="0.13" d="M62.759 8.528L47.54 8.253"/>
   <path stroke-width="0.13" d="M52.579 16.812C53.165 16.57 53.338 17.088 53.856 16.879"/>
   <path stroke-width="0.13" d="M56.686 19.193L57.756 19.193"/>
   <path stroke-width="0.13" d="M61.792 22.711L62.932 22.782"/>
   <path stroke-width="0.13" d="M53.215 20.184C53.215 19.868 52.959 19.612 52.643 19.612C52.328 19.612 52.072 19.868 52.072 20.184C52.072 20.501 52.328 20.757 52.643 20.757C52.959 20.757 53.215 20.501 53.215 20.184z"/>
   <path stroke-width="0.13" d="M51.603 25.185C51.603 24.818 51.304 24.518 50.936 24.518C50.7 24.518 50.491 24.643 50.372 24.832"/>
   <path stroke-width="0.13" d="M51.567 25.405C51.591 25.329 51.603 25.254 51.603 25.185"/>
   <path stroke-width="0.13" d="M49.969 25.893C49.896 26.007 49.862 26.135 49.863 26.257C49.863 26.637 50.171 26.945 50.551 26.945C50.795 26.945 51.011 26.817 51.134 26.621"/>
   <path stroke-width="0.13" d="M49.969 25.893L50.372 24.832"/>
   <path stroke-width="0.13" d="M51.134 26.621L51.619 25.399"/>
   <path stroke-width="0.3" d="M48.374 29.571C48.362 29.638 48.356 29.702 48.357 29.76C48.357 30.399 48.877 30.919 49.515 30.919C50.03 30.919 50.466 30.58 50.618 30.108"/>
   <path stroke-width="0.3" d="M53.799 20.184C53.799 19.545 53.283 19.027 52.643 19.027C52.128 19.027 51.692 19.362 51.539 19.835"/>
   <path stroke-width="0.3" d="M53.747 20.527C53.783 20.411 53.801 20.292 53.799 20.184"/>
   <path stroke-width="0.3" d="M53.804 20.484L50.609 30.196"/>
   <path stroke-width="0.3" d="M51.561 19.757L48.386 29.551"/>
   <path stroke-width="0.3" d="M57.048 25.789C57.048 23.44 55.746 21.396 53.792 20.32"/>
   <path stroke-width="0.3" d="M51.631 19.62C51.35 19.582 51.07 19.565 50.826 19.568C47.389 19.568 44.603 22.353 44.603 25.789C44.603 29.227 47.389 32.012 50.826 32.012C54.262 32.012 57.048 29.227 57.048 25.789"/>
   <path stroke-width="0.13" d="M53.006 17.274L53.307 18.237"/>
   <path stroke-width="0.13" d="M53.307 18.237L53.698 17.245"/>
   <path stroke-width="0.13" d="M56.978 19.621L57.128 20.554"/>
   <path stroke-width="0.13" d="M57.128 20.554L57.551 19.652"/>
   <path stroke-width="0.13" d="M58.933 28.527L58.965 27.716"/>
   <path stroke-width="0.13" d="M58.965 27.716L59.234 27.716"/>
   <path stroke-width="0.13" d="M59.024 23.533L59.024 24.256"/>
   <path stroke-width="0.13" d="M59.024 24.256L59.295 24.256"/>
   <path stroke-width="0.13" d="M59.716 23.594L59.716 24.286"/>
   <path stroke-width="0.13" d="M60.439 23.623L60.439 24.196"/>
   <path stroke-width="0.13" d="M60.439 24.196L60.829 24.135"/>
   <path stroke-width="0.13" d="M61.43 24.315L61.491 23.833"/>
   <path stroke-width="0.13" d="M61.491 23.833L62.154 23.833"/>
   <path stroke-width="0.13" d="M62.154 23.833L62.154 24.225"/>
   <path stroke-width="0.13" d="M62.454 23.533L62.695 24.225"/>
   <path stroke-width="0.13" d="M62.695 24.225L62.816 23.743"/>
   <path stroke-width="0.13" d="M56.377 32.018L58.122 31.807"/>
   <path stroke-width="0.13" d="M59.386 31.507L58.512 31.838"/>
   <path stroke-width="0.13" d="M58.512 31.838L59.295 32.137"/>
   <path stroke-width="0.13" d="M59.295 32.137L59.386 31.507"/>
   <path stroke-width="0.13" d="M52.976 34.545L52.615 35.267"/>
   <path stroke-width="0.13" d="M52.976 34.545L53.247 35.177"/>
   <path stroke-width="0.13" d="M47.801 34.756L47.381 35.357"/>
   <path stroke-width="0.13" d="M47.68 34.996L47.951 35.749"/>
   <path stroke-width="0.13" d="M52.283 34.017C52.871 33.776 53.042 34.293 53.561 34.087"/>
   <path stroke-width="0.13" d="M47.484 34.262L48.554 34.262"/>
   <path stroke-width="0.13" d="M47.079 16.975L47.109 17.667"/>
   <path stroke-width="0.13" d="M47.109 17.667L47.411 17.696"/>
   <path stroke-width="0.13" d="M47.411 17.696L47.47 17.245"/>
   <path stroke-width="0.13" d="M47.951 17.035L47.981 17.817"/>
   <path stroke-width="0.13" d="M47.951 17.035L48.283 17.184"/>
   <path stroke-width="0.13" d="M48.524 17.184L48.554 17.486"/>
   <path stroke-width="0.13" d="M48.524 17.184L48.795 17.245"/>
   <path stroke-width="0.13" d="M48.524 17.184L48.795 17.245"/>
   <path stroke-width="0.13" d="M49.165 19.532L44.502 19.597"/>
   <path stroke-width="0.13" d="M49.915 32.121L44.371 32.088"/>
   <path stroke-width="0.13" d="M48.441 42.534C48.441 41.866 47.899 41.325 47.231 41.325C46.561 41.325 46.02 41.866 46.02 42.534C46.02 43.203 46.561 43.744 47.231 43.744C47.899 43.744 48.441 43.203 48.441 42.534z"/>
   <path stroke-width="0.13" d="M47.835 42.534C47.835 42.201 47.564 41.929 47.231 41.929C46.896 41.929 46.625 42.201 46.625 42.534C46.625 42.868 46.896 43.14 47.231 43.14C47.564 43.14 47.835 42.868 47.835 42.534z"/>
   <path stroke-width="0.13" d="M46.021 42.534L46.115 39.606"/>
   <path stroke-width="0.13" d="M46.115 39.606L48.216 39.606"/>
   <path stroke-width="0.13" d="M48.216 39.606L48.281 41.579"/>
   <path stroke-width="0.13" d="M48.313 47.279C48.313 46.609 47.771 46.069 47.103 46.069C46.435 46.069 45.893 46.609 45.893 47.279C45.893 47.947 46.435 48.487 47.103 48.487C47.771 48.487 48.313 47.947 48.313 47.279z"/>
   <path stroke-width="0.13" d="M47.707 47.279C47.707 46.944 47.436 46.673 47.103 46.673C46.77 46.673 46.497 46.944 46.497 47.279C46.497 47.612 46.77 47.884 47.103 47.884C47.436 47.884 47.707 47.612 47.707 47.279z"/>
   <path stroke-width="0.13" d="M45.893 47.279L45.988 44.35"/>
   <path stroke-width="0.13" d="M45.988 44.35L48.09 44.35"/>
   <path stroke-width="0.13" d="M48.09 44.35L48.154 46.323"/>
   <path stroke-width="0.13" d="M60.027 42.503L57.671 42.567"/>
   <path stroke-width="0.13" d="M57.671 42.567L57.576 47.087"/>
   <path stroke-width="0.13" d="M57.576 47.087L59.646 47.024"/>
   <path stroke-width="0.13" d="M59.837 47.533L48.631 47.82"/>
   <path stroke-width="0.13" d="M49.969 47.597L49.969 42.694"/>
   <path stroke-width="0.13" d="M49.618 42.631L48.789 42.662"/>
   <path stroke-width="0.13" d="M50.094 38.142L50.094 42.185"/>
   <path stroke-width="0.13" d="M50.094 42.185L58.978 42.185"/>
   <path stroke-width="0.13" d="M58.978 42.185L58.978 38.078"/>
   <path stroke-width="0.13" d="M59.167 38.078L50.094 38.078"/>
   <path stroke-width="0.13" d="M60.537 41.643L60.537 39.161"/>
   <path stroke-width="0.13" d="M60.537 39.161L62.639 39.161"/>
   <path stroke-width="0.13" d="M62.639 39.161L62.639 41.326"/>
   <path stroke-width="0.13" d="M62.798 42.28C62.798 41.612 62.256 41.07 61.588 41.07C60.92 41.07 60.378 41.612 60.378 42.28C60.378 42.648 60.542 42.976 60.801 43.2"/>
   <path stroke-width="0.13" d="M62.79 42.417C62.795 42.369 62.798 42.322 62.798 42.28"/>
   <path stroke-width="0.5" d="M60.537 42.822C60.537 42.121 60.951 41.453 61.365 41.453C61.779 41.453 62.161 41.229 62.479 41.866C62.798 42.503 63.817 43.999 64.07 44.573C64.325 45.146 64.611 45.337 64.39 45.908C64.167 46.482 64.102 46.292 64.07 46.768C64.039 47.246 63.944 47.215 64.007 47.628C64.07 48.042 64.039 47.947 64.262 48.584C64.484 49.22 64.581 49.347 64.421 49.825C64.358 50.015 64.245 50.179 64.106 50.31"/>
   <path stroke-width="0.5" d="M63.021 50.677C62.668 50.674 62.261 50.557 62.033 49.92C61.715 49.03 60.697 46.195 60.697 46.195C60.697 46.195 60.57 45.655 60.792 45.337C61.015 45.018 61.301 43.649 60.537 42.822"/>
   <path stroke-width="0.13" d="M63.911 47.787C63.466 47.118 63.371 47.341 62.86 47.246C62.351 47.151 62.002 47.374 61.779 47.756"/>
   <path stroke-width="0.13" d="M64.135 44.731C63.466 44.127 63.561 44.222 62.893 44.35C62.225 44.476 61.652 44.764 61.557 45.368"/>
   <path stroke-width="0.13" d="M63.896 45.496C63.896 45.134 63.603 44.843 63.243 44.843C62.883 44.843 62.591 45.134 62.591 45.496C62.591 45.856 62.883 46.149 63.243 46.149C63.603 46.149 63.896 45.856 63.896 45.496z"/>
   <path stroke-width="0.13" d="M64.436 49.384C63.884 48.899 62.408 48.743 62.21 50.265"/>
   <path stroke-width="0.5" d="M63.869 49.662C64.688 51.798 65.626 55.21 65.308 57.801"/>
   <path stroke-width="0.5" d="M62.798 50.072C63.561 52.066 64.468 55.243 64.171 57.661"/>
   <path stroke-width="0.13" d="M60.807 44.326L60.32 44.326"/>
   <path stroke-width="0.13" d="M60.32 44.326L60.32 46.067"/>
   <path stroke-width="0.5" d="M60.725 46.392C60.261 46.716 59.936 46.838 60.158 47.506C60.381 48.173 61.82 50.868 61.82 50.868C61.82 50.868 62.143 51.718 63.237 51.637"/>
   <path stroke-width="0.5" d="M64.251 48.316C64.695 48.396 65 48.558 65.242 49.045C65.486 49.53 65.525 49.734 65.992 50.24C66.457 50.746 66.721 50.725 67.025 50.908C67.328 51.091 67.471 51.192 67.471 51.454C67.471 51.5 67.469 51.558 67.466 51.625"/>
   <path stroke-width="0.5" d="M67.126 52.588C66.802 52.811 66.296 53.015 66.275 52.75C66.256 52.487 65.182 52.021 65.04 51.941C64.899 51.859 64.614 51.658 64.635 51.658"/>
   <path stroke-width="0.13" d="M67.085 51.03C66.397 51.414 66.112 52.286 66.275 52.75"/>
   <path stroke-width="0.5" d="M66.778 52.444C67.54 52.704 68.478 53.462 69.26 54.219C70.021 54.957 70.643 55.688 70.745 55.984C70.896 56.548 70.93 58.173 70.853 58.74"/>
   <path stroke-width="0.5" d="M67.108 51.478C67.981 51.777 69.073 52.619 69.969 53.487C70.885 54.375 71.587 55.295 71.71 55.655L71.71 55.655C71.718 55.676 71.724 55.698 71.73 55.718L71.73 55.718C71.903 56.366 71.95 58.225 71.864 58.874"/>
   <g>
    <text x="52.393" y="41.353" stroke="none" fill="#000000" font-family="'Helvetica'" font-size="1.231" font-weight="bold">587 423</text>
   </g>
   <g>
    <path stroke-width="0.13" stroke-linecap="butt" fill="#000000" d="M56.057 38.777L56.057 39.412 55.573 38.777 54.993 38.777 54.993 39.654 54.63 38.777 54.295 38.777 54.286 39.079 54.465 39.481 54.13 39.481 54.286 39.079 54.295 38.777 53.96 38.777 53.679 39.478 53.261 39.478 53.246 39.526 53.229 39.566 53.21 39.6 53.185 39.628 53.156 39.652 53.125 39.668 53.088 39.68 53.045 39.689 53 39.691 52.947 39.686 52.898 39.673 52.853 39.652 52.816 39.624 52.783 39.588 52.758 39.545 52.737 39.496 52.725 39.442 52.722 39.384 52.725 39.307 52.735 39.24 52.753 39.183 52.777 39.134 52.807 39.094 52.844 39.061 52.889 39.039 52.939 39.026 52.997 39.021 53.043 39.024 53.087 39.03 53.125 39.043 53.158 39.06 53.185 39.084 53.21 39.11 53.229 39.145 53.244 39.182 53.255 39.225 53.731 39.225 53.731 39.207 53.72 39.116 53.689 39.033 53.64 38.959 53.573 38.893 53.487 38.838 53.387 38.793 53.273 38.762 53.145 38.741 53.005 38.734 52.856 38.741 52.728 38.762 52.615 38.798 52.518 38.848 52.439 38.914 52.375 38.994 52.328 39.093 52.293 39.206 52.274 39.338 52.25 39.314 52.222 39.292 52.195 39.271 52.164 39.253 52.134 39.237 52.103 39.223 52.072 39.212 52.042 39.204 52.012 39.201 51.837 39.185 51.575 39.18 51.539 39.177 51.506 39.173 51.478 39.165 51.454 39.155 51.435 39.145 51.417 39.13 51.406 39.112 51.399 39.094 51.398 39.073 51.399 39.048 51.406 39.027 51.42 39.009 51.435 38.993 51.457 38.979 51.481 38.969 51.511 38.963 51.543 38.957 51.582 38.956 51.625 38.959 51.661 38.963 51.692 38.973 51.719 38.988 51.738 39.006 51.755 39.03 51.765 39.058 51.771 39.091 51.774 39.131 52.274 39.131 52.274 39.115 52.265 39.037 52.24 38.969 52.197 38.909 52.137 38.857 52.063 38.814 51.972 38.78 51.866 38.756 51.746 38.743 51.61 38.737 51.46 38.741 51.329 38.756 51.215 38.78 51.118 38.814 51.04 38.857 50.979 38.911 50.936 38.975 50.911 39.048 50.902 39.131 50.908 39.201 50.927 39.265 50.959 39.322 51.002 39.369 51.057 39.408 51.125 39.441 51.206 39.465 51.296 39.479 51.399 39.487 51.594 39.491 51.64 39.493 51.677 39.499 51.71 39.506 51.74 39.517 51.762 39.529 51.78 39.543 51.792 39.561 51.798 39.582 51.801 39.606 51.798 39.627 51.789 39.648 51.774 39.667 51.755 39.685 51.732 39.7 51.707 39.713 51.679 39.722 51.649 39.728 51.618 39.731 51.567 39.728 51.521 39.722 51.481 39.713 51.448 39.698 51.42 39.679 51.398 39.658 51.383 39.633 51.374 39.601 51.371 39.569 50.851 39.569 50.851 39.581 50.862 39.661 50.89 39.734 50.936 39.798 51.002 39.851 51.082 39.896 51.182 39.932 51.298 39.957 51.43 39.972 51.579 39.976 51.722 39.973 51.847 39.962 51.959 39.942 52.054 39.914 52.134 39.878 52.201 39.835 52.256 39.78 52.296 39.716 52.326 39.643 52.377 39.719 52.43 39.786 52.49 39.841 52.557 39.886 52.631 39.92 52.715 39.948 52.807 39.966 52.911 39.976 53.027 39.981 53.1 39.978 53.167 39.975 53.228 39.968 53.284 39.957 53.338 39.942 53.387 39.923 53.435 39.899 53.484 39.871 53.533 39.838 53.485 39.957 53.927 39.957 54.008 39.773 54.588 39.773 54.664 39.954 55.421 39.954 55.421 39.256 55.96 39.957 56.494 39.957 56.494 38.777 56.057 38.777 56.057 38.777z"/>
    <path stroke-width="0.13" stroke-linecap="butt" fill="#000000" d="M58.084 38.777L57.746 38.777 57.743 39.091 57.918 39.479 57.585 39.481 57.743 39.091 57.746 38.777 57.404 38.777 57.048 39.656 57.048 38.777 56.591 38.777 56.591 39.957 57.392 39.957 57.463 39.777 58.033 39.777 58.115 39.957 58.561 39.957 58.084 38.777 58.084 38.777z"/>
   </g>
   <path stroke-width="0.3" d="M20.728 101.26L20.19 101.498"/>
   <path stroke-width="0.3" d="M20.19 101.498L16.422 94.679"/>
   <path stroke-width="0.3" d="M16.422 94.679L15.446 95.114"/>
   <path stroke-width="0.3" d="M15.446 95.114L15.301 94.789"/>
   <path stroke-width="0.3" d="M15.301 94.789L16.231 94.375"/>
   <path stroke-width="0.3" d="M16.231 94.375L10.521 81.549"/>
   <path stroke-width="0.3" d="M10.521 81.549L11.728 81.01"/>
   <path stroke-width="0.3" d="M11.146 81.325L9.852 78.171"/>
   <path stroke-width="0.3" d="M9.852 78.171C8.974 78.45 8.416 77.697 8.907 77.423C9.397 77.147 9.98 76.832 9.98 76.832"/>
   <path stroke-width="0.3" d="M20.757 101.246L21.294 101.007"/>
   <path stroke-width="0.3" d="M21.294 101.007L18.746 93.644"/>
   <path stroke-width="0.3" d="M18.746 93.644L19.722 93.21"/>
   <path stroke-width="0.3" d="M19.722 93.21L19.577 92.885"/>
   <path stroke-width="0.3" d="M19.577 92.885L18.647 93.299"/>
   <path stroke-width="0.3" d="M18.647 93.299L12.938 80.472"/>
   <path stroke-width="0.3" d="M12.938 80.472L11.728 81.01"/>
   <path stroke-width="0.3" d="M12.353 80.787L10.875 77.715"/>
   <path stroke-width="0.3" d="M10.875 77.715C11.669 77.251 11.484 76.331 10.952 76.512C10.419 76.692 9.794 76.915 9.794 76.915"/>
   <path stroke-width="0.5" d="M20.757 101.246L21.344 102.567"/>
   <path stroke-width="0.3" d="M24.926 100.067L25.464 100.307"/>
   <path stroke-width="0.3" d="M25.464 100.307L29.231 93.487"/>
   <path stroke-width="0.3" d="M29.231 93.487L30.207 93.923"/>
   <path stroke-width="0.3" d="M30.207 93.923L30.353 93.596"/>
   <path stroke-width="0.3" d="M30.353 93.596L29.423 93.183"/>
   <path stroke-width="0.3" d="M29.423 93.183L35.134 80.356"/>
   <path stroke-width="0.3" d="M35.134 80.356L33.926 79.819"/>
   <path stroke-width="0.3" d="M34.509 80.134L35.801 76.978"/>
   <path stroke-width="0.3" d="M35.801 76.978C36.679 77.259 37.238 76.504 36.747 76.23C36.258 75.956 35.673 75.641 35.673 75.641"/>
   <path stroke-width="0.3" d="M24.897 100.055L24.361 99.816"/>
   <path stroke-width="0.3" d="M24.361 99.816L26.908 92.453"/>
   <path stroke-width="0.3" d="M26.908 92.453L25.931 92.019"/>
   <path stroke-width="0.3" d="M25.931 92.019L26.077 91.694"/>
   <path stroke-width="0.3" d="M26.077 91.694L27.006 92.108"/>
   <path stroke-width="0.3" d="M27.006 92.108L32.716 79.281"/>
   <path stroke-width="0.3" d="M32.716 79.281L33.926 79.819"/>
   <path stroke-width="0.3" d="M33.301 79.596L34.78 76.525"/>
   <path stroke-width="0.3" d="M34.78 76.525C33.984 76.058 34.171 75.14 34.703 75.319C35.234 75.501 35.859 75.724 35.859 75.724"/>
   <path stroke-width="0.5" d="M24.897 100.055L24.31 101.376"/>
   <path stroke-width="0.5" d="M65.304 57.77L65.075 58.737L65.076 58.734C64.811 59.893 64.566 60.923 64.049 61.75C63.807 62.137 63.509 62.484 63.128 62.781C62.604 63.192 61.92 63.512 60.996 63.71C57.773 64.402 53.625 63.878 49.481 62.267L47.597 61.502C45.459 60.606 44.841 60.356 39.323 59.764C35.88 59.393 34.156 59.225 32.546 59.207C30.936 59.189 29.435 59.319 26.435 59.542L25.849 59.585C20.304 59.993 17.17 60.198 13.291 63.09C12.064 64.004 11.089 64.629 10.317 65.123C9.169 65.855 8.5 66.234 8.169 66.983C8.032 67.292 7.956 67.662 7.916 68.138C7.702 70.637 8.997 74.012 9.673 75.177L10.335 76.656"/>
   <path stroke-width="0.5" d="M64.218 57.514L63.99 58.485C63.756 59.511 63.558 60.429 63.103 61.161C62.929 61.439 62.716 61.689 62.442 61.904C62.03 62.225 61.487 62.465 60.762 62.619C57.716 63.273 53.801 62.75 49.884 61.228L49.893 61.231L48.009 60.465C45.807 59.545 45.17 59.271 39.442 58.655C35.944 58.279 34.195 58.11 32.558 58.091C30.923 58.073 29.399 58.204 26.353 58.429L26.353 58.429L25.766 58.472L25.768 58.472C19.958 58.899 16.689 59.167 12.625 62.195C11.426 63.09 10.471 63.701 9.715 64.183C8.311 65.081 7.554 65.615 7.149 66.531C6.971 66.936 6.857 67.418 6.804 68.043C6.57 70.772 7.971 74.463 8.708 75.736L9.288 77.159"/>
   <path stroke-width="0.5" d="M71.837 58.854C71.462 60.895 70.74 63.572 69.582 65.469C69.055 66.335 68.432 67.043 67.721 67.484C65.474 68.879 63.067 70.022 60.899 70.1C59.045 70.167 57.929 69.793 54.817 68.704L54.819 68.704L52.582 67.927C48.825 66.629 47.36 66.091 45.366 66.436C44.359 66.609 42.777 66.852 41.14 68.037C40.439 68.546 39.728 69.225 39.045 70.144C38.046 71.486 37.112 73.328 36.353 75.871"/>
   <path stroke-width="0.5" d="M70.822 58.667C70.466 60.598 69.798 63.137 68.703 64.932C68.266 65.647 67.765 66.243 67.177 66.608C65.093 67.902 62.872 68.998 60.862 69.069C59.121 69.131 58.079 68.751 55.158 67.73L52.918 66.951L52.918 66.951C48.902 65.564 47.325 65.052 45.192 65.418C44.079 65.611 42.341 65.894 40.534 67.201C39.759 67.763 38.972 68.513 38.216 69.528C37.161 70.945 36.167 72.89 35.365 75.576"/>
  </g>
  <g>
   <path stroke-width="0.13" d="M27.586 104.587C27.586 104.435 27.224 104.311 26.777 104.311C26.329 104.311 25.966 104.435 25.966 104.587"/>
   <path stroke-width="0.3" d="M25.966 104.587C25.966 104.74 26.329 104.864 26.777 104.864C27.224 104.864 27.586 104.74 27.586 104.587"/>
   <path stroke-width="0.3" d="M30 105.995C30.007 105.546 29.617 105.126 28.963 104.787"/>
   <path stroke-width="0.3" d="M28.202 104.466C27.951 104.381 27.687 104.305 27.439 104.245"/>
   <path stroke-width="0.3" d="M20.593 104.581C19.762 104.941 19.356 105.388 19.352 105.834"/>
   <path stroke-width="0.13" d="M19.352 105.834C19.346 106.197 19.6 106.543 20.039 106.834"/>
   <path stroke-width="0.13" d="M21.179 107.373C22.182 107.713 23.42 107.891 24.646 107.909C27.585 107.953 29.984 107.097 30 105.995"/>
   <path stroke-width="0.3" d="M28.135 104.751C27.702 104.188 26.463 103.808 24.989 103.721"/>
   <path stroke-width="0.3" d="M23.667 103.728C23.123 103.765 22.617 103.838 22.195 103.938"/>
   <path stroke-width="0.3" d="M20.871 104.406C20.35 104.691 20.106 105.012 20.114 105.319"/>
   <path stroke-width="0.13" d="M20.114 105.319C20.128 105.939 21.121 106.453 22.568 106.671"/>
   <path stroke-width="0.13" d="M29.327 105.825C29.329 105.496 29.088 105.188 28.676 104.932"/>
   <path stroke-width="0.13" d="M20.137 105.793C20.157 106.079 20.361 106.35 20.698 106.578"/>
   <path stroke-width="0.3" d="M21.653 107.039C22.53 107.341 23.626 107.495 24.716 107.506C27.254 107.528 29.318 106.775 29.327 105.825"/>
   <path stroke-width="0.3" d="M20.114 105.319L20.114 105.742"/>
   <path stroke-width="0.13" d="M28.137 104.748C27.902 105.03 27.013 105.064 26.64 105.064C26.234 105.064 25.87 104.7 25.303 104.659C24.736 104.618 23.725 104.618 23.521 104.781"/>
   <path stroke-width="0.3" d="M23.521 104.781C22.672 105.105 22.632 105.429 23.198 105.59C23.765 105.753 24.251 105.834 24.251 106.076"/>
   <path stroke-width="0.13" d="M24.251 106.076C24.251 106.4 22.756 106.843 22.167 106.602"/>
   <path stroke-width="0.3" d="M24.251 106.076L24.251 107.331"/>
   <path stroke-width="0.3" d="M26.396 106.602L26.396 105.834"/>
   <path stroke-width="0.3" d="M28.135 104.751L28.135 106.153"/>
   <path stroke-width="0.3" d="M28.676 104.932L28.676 105.995"/>
   <path stroke-width="0.3" d="M28.676 104.932L28.963 104.787"/>
   <path stroke-width="0.13" d="M23.643 106.138C23.643 105.984 23.28 105.861 22.833 105.861C22.387 105.861 22.024 105.984 22.024 106.138"/>
   <path stroke-width="0.3" d="M22.024 106.138C22.024 106.29 22.387 106.415 22.833 106.415C23.28 106.415 23.643 106.29 23.643 106.138"/>
   <path stroke-width="0.13" d="M23.117 104.558C23.117 104.406 22.754 104.281 22.307 104.281C22.268 104.281 22.228 104.283 22.195 104.284"/>
   <path stroke-width="0.3" d="M22.195 104.832C22.234 104.834 22.272 104.835 22.307 104.835C22.754 104.835 23.117 104.712 23.117 104.558"/>
   <path stroke-width="0.13" d="M25.228 104.159C25.228 104.078 25.138 104.004 24.989 103.947"/>
   <path stroke-width="0.13" d="M23.667 103.938C23.489 103.998 23.399 104.078 23.399 104.159"/>
   <path stroke-width="0.3" d="M23.399 104.159C23.399 104.331 23.809 104.471 24.314 104.471C24.818 104.471 25.228 104.331 25.228 104.159"/>
   <path stroke-width="0.13" d="M22.452 105.367C22.452 105.284 22.353 105.206 22.195 105.15"/>
   <path stroke-width="0.13" d="M20.871 105.153C20.707 105.215 20.623 105.292 20.623 105.367"/>
   <path stroke-width="0.3" d="M20.623 105.367C20.623 105.54 21.033 105.68 21.538 105.68C22.042 105.68 22.452 105.54 22.452 105.367"/>
   <path stroke-width="0.13" d="M24.251 106.426C24.362 106.438 24.474 106.445 24.571 106.447C25.568 106.481 26.385 106.206 26.396 105.834"/>
   <path stroke-width="0.3" d="M26.396 105.834C26.408 105.462 25.612 105.132 24.617 105.097C23.859 105.072 23.204 105.225 22.925 105.471"/>
   <path stroke-width="0.13" d="M24.251 107.195C24.362 107.206 24.474 107.213 24.571 107.216C25.568 107.251 26.385 106.975 26.396 106.602"/>
   <path stroke-width="0.13" d="M28.676 105.995L28.181 105.712"/>
   <path stroke-width="0.3" d="M28.676 105.631L28.181 105.375"/>
   <path stroke-width="0.13" d="M28.135 106.153C28.053 106.337 26.94 106.615 26.396 106.454"/>
   <path stroke-width="0.13" d="M28.679 106.694C28.524 106.614 28.269 106.572 28.007 106.572C27.561 106.572 27.198 106.695 27.198 106.849C27.198 106.864 27.201 106.879 27.207 106.893"/>
   <path stroke-width="0.13" d="M28.8 106.614C28.69 106.477 28.326 106.385 27.92 106.385C27.416 106.385 27.007 106.525 27.007 106.697C27.007 106.87 27.416 107.01 27.92 107.01C27.96 107.01 27.998 107.009 28.03 107.007"/>
   <path stroke-width="0.13" d="M28.202 104.466L27.931 104.545"/>
   <path stroke-width="0.3" d="M28.202 104.466L28.181 105.375"/>
   <path stroke-width="0.13" d="M20.698 106.578L20.039 106.834"/>
   <path stroke-width="0.13" d="M20.039 106.834L20.039 107.968"/>
   <path stroke-width="0.3" d="M21.653 107.039L21.179 107.373"/>
   <path stroke-width="0.3" d="M21.179 107.373L21.254 108.462"/>
   <path stroke-width="0.13" d="M21.254 108.462C20.932 108.353 20.039 108.097 20.039 107.968"/>
   <path stroke-width="0.13" d="M20.698 106.578L20.698 107.777"/>
   <path stroke-width="0.13" d="M20.698 107.777L21.216 107.917"/>
   <path stroke-width="0.13" d="M20.698 107.777L20.097 107.947"/>
   <path stroke-width="0.3" d="M19.352 105.834L19.378 111.664"/>
   <path stroke-width="0.13" d="M26.49 113.539L26.49 110.063"/>
   <path stroke-width="0.13" d="M26.961 113.793L26.961 110.353"/>
   <path stroke-width="0.3" d="M30 105.995L30 108.617"/>
   <path stroke-width="0.3" d="M30.254 108.978L30.254 112.344"/>
   <path stroke-width="0.13" d="M27.106 110.281C28.3 110.173 30.074 109.448 30.254 108.978"/>
   <path stroke-width="0.3" d="M30.254 108.978C30.435 108.507 30 108.218 30 108.218"/>
   <path stroke-width="0.13" d="M30 108.617C29.893 109.015 27.612 109.92 26.49 110.063"/>
   <path stroke-width="0.13" d="M30.254 112.344C29.893 112.742 28.734 113.719 26.961 113.793"/>
   <path stroke-width="0.13" d="M26.961 113.793C26.736 113.948 26.385 113.774 26.364 114.081C26.341 114.387 26.341 115.831 26.341 115.831"/>
   <path stroke-width="0.3" d="M29.748 112.796L29.748 114.343"/>
   <path stroke-width="0.3" d="M29.385 114.802L29.385 120.277"/>
   <path stroke-width="0.3" d="M29.748 114.343C29.713 114.628 29.539 114.692 29.385 114.802"/>
   <path stroke-width="0.3" d="M29.385 114.802C29.056 115.197 26.78 115.811 26.341 115.831C25.903 115.853 25.882 115.679 25.882 115.679"/>
   <path stroke-width="0.13" d="M25.859 115.591L25.859 113.707"/>
   <path stroke-width="0.3" d="M19.378 111.664C19.378 112.757 21.745 113.644 24.664 113.644C25.321 113.644 25.948 113.599 26.49 113.522"/>
   <path stroke-width="0.13" d="M19.378 111.224C19.378 112.319 21.745 113.206 24.664 113.206C25.321 113.206 25.948 113.161 26.49 113.084"/>
   <path stroke-width="0.13" d="M19.378 110.881C19.378 111.974 21.745 112.861 24.664 112.861C25.321 112.861 25.948 112.816 26.49 112.739"/>
   <path stroke-width="0.3" d="M19.974 112.576L19.974 120.277"/>
   <path stroke-width="0.3" d="M21.911 102.984C21.911 102.905 21.736 102.837 21.521 102.837C21.304 102.837 21.129 102.905 21.129 102.984"/>
   <path stroke-width="0.13" d="M21.129 102.984C21.129 103.066 21.304 103.131 21.521 103.131C21.736 103.131 21.911 103.066 21.911 102.984"/>
   <path stroke-width="0.13" d="M21.129 103.284C21.129 103.364 21.304 103.43 21.521 103.43C21.736 103.43 21.911 103.364 21.911 103.284"/>
   <path stroke-width="0.3" d="M21.911 103.284L21.911 102.984"/>
   <path stroke-width="0.3" d="M21.129 103.284L21.129 102.984"/>
   <path stroke-width="0.3" d="M22.195 103.337C22.195 103.259 22.096 103.188 21.94 103.141"/>
   <path stroke-width="0.3" d="M21.129 103.141C20.961 103.189 20.873 103.263 20.871 103.337"/>
   <path stroke-width="0.13" d="M20.871 103.337C20.871 103.474 21.167 103.584 21.533 103.584C21.899 103.584 22.195 103.474 22.195 103.337"/>
   <path stroke-width="0.3" d="M20.871 103.337L20.871 105.503"/>
   <path stroke-width="0.3" d="M22.195 103.337L22.195 105.546"/>
   <path stroke-width="0.3" d="M24.707 101.709C24.707 101.628 24.532 101.563 24.315 101.563C24.1 101.563 23.925 101.628 23.925 101.709"/>
   <path stroke-width="0.13" d="M23.925 101.709C23.925 101.79 24.1 101.855 24.315 101.855C24.532 101.855 24.707 101.79 24.707 101.709"/>
   <path stroke-width="0.13" d="M23.925 102.007C23.925 102.088 24.1 102.153 24.315 102.153C24.532 102.153 24.707 102.088 24.707 102.007"/>
   <path stroke-width="0.3" d="M24.707 102.007L24.707 101.709"/>
   <path stroke-width="0.3" d="M23.925 102.007L23.925 101.709"/>
   <path stroke-width="0.3" d="M24.989 102.061C24.989 101.983 24.89 101.912 24.734 101.865"/>
   <path stroke-width="0.3" d="M23.925 101.864C23.757 101.914 23.667 101.986 23.667 102.061"/>
   <path stroke-width="0.13" d="M23.667 102.061C23.667 102.198 23.963 102.308 24.327 102.308C24.693 102.308 24.989 102.198 24.989 102.061"/>
   <path stroke-width="0.3" d="M23.667 102.061L23.667 104.227"/>
   <path stroke-width="0.3" d="M24.989 102.061L24.989 104.269"/>
   <path stroke-width="0.13" d="M19.974 120.277C19.974 121.251 22.08 122.04 24.678 122.04C27.278 122.04 29.385 121.251 29.385 120.277"/>
   <path stroke-width="0.13" d="M19.836 120.534C19.836 121.536 22.004 122.346 24.676 122.346C27.35 122.346 29.516 121.536 29.516 120.534"/>
   <path stroke-width="0.13" d="M19.836 120.534C19.847 120.408 19.951 120.319 19.974 120.299"/>
   <path stroke-width="0.13" d="M29.385 120.277C29.496 120.35 29.522 120.469 29.515 120.549"/>
   <path stroke-width="0.3" d="M31.108 120.543C31.102 119.912 30.446 119.346 29.385 118.93"/>
   <path stroke-width="0.3" d="M19.015 119.551C18.51 119.918 18.275 120.31 18.289 120.677"/>
   <path stroke-width="0.13" d="M18.289 120.677C18.301 122.004 21.182 123.049 24.722 123.012C28.263 122.974 31.121 121.868 31.108 120.543"/>
   <path stroke-width="0.3" d="M19.015 119.551L19.974 119.73"/>
   <path stroke-width="0.3" d="M18.289 120.677L18.289 124.033"/>
   <path stroke-width="0.3" d="M18.289 125.337L18.289 133.543"/>
   <path stroke-width="0.3" d="M31.108 120.543L31.108 123.945"/>
   <path stroke-width="0.3" d="M31.108 125.201L31.108 133.459"/>
   <path stroke-width="0.3" d="M18.289 124.033L18.289 124.058C18.301 125.382 21.182 126.427 24.722 126.391C28.263 126.352 31.121 125.248 31.108 123.921"/>
   <path stroke-width="0.3" d="M31.108 125.201C31.106 124.983 31.024 124.772 30.887 124.588"/>
   <path stroke-width="0.3" d="M18.519 124.686C18.356 124.909 18.28 125.135 18.289 125.337"/>
   <path stroke-width="0.13" d="M18.289 125.337C18.301 126.662 21.182 127.709 24.722 127.671C28.263 127.634 31.121 126.528 31.108 125.201"/>
   <path stroke-width="0.13" d="M18.289 130.32L18.288 130.344C18.301 131.67 21.182 132.716 24.722 132.677C28.263 132.64 31.121 131.534 31.108 130.209"/>
   <path stroke-width="0.13" d="M18.289 130.858L18.288 130.882C18.301 132.207 21.182 133.252 24.722 133.215C28.263 133.177 31.121 132.073 31.108 130.747"/>
   <path stroke-width="0.13" d="M18.289 131.737L18.288 131.762C18.301 133.087 21.182 134.133 24.722 134.096C28.263 134.057 31.121 132.953 31.108 131.627"/>
   <path stroke-width="0.13" d="M18.291 131.82C18.289 131.639 18.41 131.497 18.481 131.456"/>
   <path stroke-width="0.13" d="M31.105 131.719C31.108 131.518 30.974 131.399 30.905 131.358"/>
   <path stroke-width="0.13" d="M18.512 131.498L18.512 131.521C18.524 132.798 21.297 133.801 24.701 133.766C28.106 133.73 30.856 132.668 30.843 131.391"/>
   <path stroke-width="0.13" d="M18.53 131.525C18.98 132.669 21.614 133.473 24.657 133.444C27.405 133.417 29.727 132.717 30.524 131.762"/>
   <path stroke-width="0.13" d="M18.289 133.543L18.288 133.567"/>
   <path stroke-width="0.3" d="M18.288 133.567C18.295 134.229 19.018 134.823 20.184 135.245"/>
   <path stroke-width="0.13" d="M20.184 135.245C22.696 136.157 26.754 136.114 29.248 135.149"/>
   <path stroke-width="0.3" d="M29.248 135.149C30.495 134.667 31.114 134.045 31.108 133.431"/>
   <path stroke-width="0.13" d="M18.673 134.372C19.12 135.516 21.754 136.32 24.798 136.293C27.547 136.264 29.867 135.566 30.666 134.61"/>
   <path stroke-width="0.3" d="M18.673 134.373L18.673 140.878"/>
   <path stroke-width="0.3" d="M30.666 134.322L30.666 141.116"/>
   <path stroke-width="0.3" d="M18.673 140.878C18.875 141.395 19.519 141.841 20.431 142.169"/>
   <path stroke-width="0.13" d="M20.431 142.169C22.847 143.044 26.751 143.003 29.15 142.075"/>
   <path stroke-width="0.3" d="M29.15 142.075C29.887 141.792 30.396 141.455 30.666 141.116"/>
   <path stroke-width="0.3" d="M19.053 141.405L19.053 149.098"/>
   <path stroke-width="0.13" d="M23.821 150.947L23.821 147.734"/>
   <path stroke-width="0.3" d="M30.3 141.462L30.3 149.42"/>
   <path stroke-width="0.13" d="M19.053 141.515C19.475 142.592 21.951 143.346 24.809 143.32C27.393 143.293 29.574 142.637 30.324 141.739"/>
   <path stroke-width="0.13" d="M19.053 141.776C19.475 142.852 21.951 143.605 24.809 143.58C27.393 143.551 29.574 142.896 30.324 141.998"/>
   <path stroke-width="0.13" d="M19.053 145.721L23.821 147.734"/>
   <path stroke-width="0.13" d="M23.821 147.734C22.847 146.332 18.792 144.701 19.053 145.721"/>
   <path stroke-width="0.3" d="M19.053 149.098L23.821 150.947"/>
   <path stroke-width="0.3" d="M23.823 150.981C26.707 151.133 29.443 150.455 30.3 149.42"/>
   <path stroke-width="0.13" d="M20.728 149.748C21.425 150.621 22.82 150.776 23.32 150.752"/>
   <path stroke-width="0.13" d="M20.67 154.12C20.67 154.944 22.454 155.611 24.653 155.611C26.855 155.611 28.638 154.944 28.638 154.12"/>
   <path stroke-width="0.3" d="M28.638 154.12L28.638 150.408"/>
   <path stroke-width="0.3" d="M20.67 154.12L20.67 149.748"/>
   <path stroke-width="0.13" d="M21.071 154.771C21.35 155.459 22.925 155.95 24.743 155.953C26.795 155.953 28.458 155.33 28.458 154.562"/>
   <path stroke-width="0.3" d="M21.425 155.395L21.425 161.758"/>
   <path stroke-width="0.3" d="M27.894 155.443L27.894 161.78"/>
   <path stroke-width="0.13" d="M21.425 155.395C21.42 156.063 22.864 156.617 24.652 156.631C26.437 156.645 27.89 156.112 27.894 155.443"/>
   <path stroke-width="0.3" d="M21.425 161.731C21.422 162.066 21.783 162.372 22.367 162.596"/>
   <path stroke-width="0.13" d="M22.367 162.596C23.626 163.078 25.675 163.092 26.942 162.627"/>
   <path stroke-width="0.3" d="M26.942 162.627C27.574 162.395 27.893 162.088 27.894 161.778"/>
   <path stroke-width="0.3" d="M21.966 162.408C21.986 162.98 23.239 163.402 24.765 163.35C26.152 163.302 27.285 162.883 27.472 162.372"/>
   <path stroke-width="0.3" d="M23.137 163.209L23.137 166.419"/>
   <path stroke-width="0.3" d="M26.216 163.145L26.216 166.368"/>
   <path stroke-width="0.13" d="M23.443 162.87L23.443 162.072"/>
   <path stroke-width="0.13" d="M23.443 162.072C23.048 161.725 21.905 161.293 21.525 161.311"/>
   <path stroke-width="0.3" d="M26.224 166.419C26.224 166.401 26.221 166.383 26.217 166.368"/>
   <path stroke-width="0.3" d="M23.137 166.419C23.137 166.739 23.827 166.997 24.681 166.997C25.533 166.997 26.224 166.739 26.224 166.419"/>
   <path stroke-width="0.3" d="M24.283 166.978C24.391 167.163 24.853 167.228 25.007 166.984"/>
   <path stroke-width="0.13" d="M28.474 143.247C27.384 143.4 26.838 145.064 26.838 145.852C26.838 146.639 27.263 147.548 28.109 147.578"/>
   <path stroke-width="0.13" d="M28.474 143.247C28.867 143.217 29.231 143.55 29.321 144.126C29.413 144.701 29.413 145.973 29.231 146.55C29.048 147.123 28.504 147.578 28.109 147.578"/>
   <path stroke-width="0.13" d="M28.079 147.366C28.553 147.258 28.823 146.668 28.681 146.049C28.539 145.431 28.039 145.016 27.565 145.125"/>
   <path stroke-width="0.3" d="M27.565 145.125C27.091 145.235 26.821 145.824 26.963 146.443C27.106 147.062 27.606 147.475 28.079 147.366"/>
   <path stroke-width="0.13" d="M27.626 147.093C27.946 147.016 28.125 146.616 28.024 146.198C27.923 145.78 27.582 145.502 27.263 145.58C27.138 145.61 27.036 145.687 26.963 145.794"/>
   <path stroke-width="0.13" d="M27.251 147.032C27.378 147.104 27.509 147.123 27.626 147.093"/>
   <path stroke-width="0.13" d="M27.596 146.669C27.756 146.617 27.83 146.407 27.763 146.199C27.696 145.99 27.513 145.86 27.353 145.913"/>
   <path stroke-width="0.13" d="M27.548 146.68C27.565 146.677 27.58 146.675 27.596 146.669"/>
   <path stroke-width="0.13" d="M27.353 145.913L26.929 146.014"/>
   <path stroke-width="0.13" d="M27.596 146.669L27.083 146.776"/>
   <path stroke-width="0.3" d="M29.748 112.796C29.986 112.673 30.254 112.358 30.254 112.203"/>
   <path stroke-width="0.3" d="M20.67 154.12C20.649 154.673 21.039 154.795 21.164 154.935C21.289 155.074 21.403 155.25 21.425 155.395"/>
   <path stroke-width="0.3" d="M28.638 154.12C28.631 154.527 28.417 154.854 28.277 154.991C28.138 155.127 27.856 155.37 27.876 155.573"/>
  </g>
 </g>
 <g id="Picture_x0020_#">
  <g>
   <g>
    <g>
     <g>
      <text transform="matrix(0 -1 1 0 73.814 166.65)" stroke="none" fill="#000000" font-family="'Helvetica'" font-size="2.117">309 265</text>
     </g>
    </g>
   </g>
  </g>
 </g>
</svg>
