<?xml version="1.0" encoding="utf-8"?>
<!DOCTYPE svg PUBLIC "-//W3C//DTD SVG 1.1//EN" "http://www.w3.org/Graphics/SVG/1.1/DTD/svg11.dtd">
<!-- Generator: PTC Arbortext IsoDraw 7.3 -->
<svg id="Standard_x0020_layer" width="100%" height="100%" viewBox="0 0 148.305 171.42"
 xmlns="http://www.w3.org/2000/svg" xmlns:xlink="http://www.w3.org/1999/xlink"
 fill-rule="evenodd" clip-rule="evenodd" stroke="#000000" stroke-linecap="round" fill="none" xml:space="preserve">
 <path stroke-width="0.349" stroke-linejoin="round" d="M64.688 171.155L65.075 171.155C65.075 171.155 65.753 165.538 66.043 164.667C66.334 163.795 66.14 163.02 67.399 162.439C68.658 161.859 69.045 161.859 70.304 161.859C71.563 161.859 77.371 163.117 77.371 163.117C77.371 163.117 78.34 163.407 78.631 163.117C78.921 162.828 79.019 162.342 79.019 162.342L79.114 161.664C79.114 161.664 104.677 156.824 105.162 156.727C105.646 156.629 107.388 156.824 108.066 156.92C108.745 157.016 113.393 157.598 114.069 157.598C114.748 157.598 116.007 157.406 116.394 157.307C116.781 157.211 118.137 157.114 118.525 157.016C118.912 156.92 119.299 156.727 119.299 156.727C119.299 156.727 120.46 155.855 120.847 155.566C121.236 155.275 122.204 154.888 122.688 154.888C123.171 154.888 128.788 153.628 129.368 153.628C129.949 153.628 130.82 153.822 131.789 154.306C132.758 154.79 134.016 155.758 134.016 157.115C134.016 158.469 133.629 160.503 135.566 160.407C137.502 160.308 141.278 159.05 141.956 159.05C142.634 159.05 143.603 159.341 143.603 159.341L143.893 159.245C143.893 159.245 143.407 140.073 143.311 137.75C143.213 135.425 143.794 132.52 144.278 130.389C144.763 128.259 145.052 125.259 144.955 124C144.86 122.74 144.665 108.314 144.568 107.25C144.473 106.185 144.278 105.313 143.504 104.539C142.729 103.763 142.051 103.569 142.051 102.021C142.051 100.471 142.147 98.147 141.664 97.277C141.181 96.405 131.787 81.784 131.4 81.203C131.013 80.621 129.753 80.429 128.883 80.331C128.012 80.234 126.268 79.847 126.171 78.588C126.075 77.329 126.171 76.361 126.171 76.361C126.171 76.361 109.906 76.942 94.801 80.234C79.695 83.527 66.721 89.724 64.977 99.987L63.719 107.831L62.073 108.025L62.073 109.477L63.719 109.768L63.912 112.769L64.203 113.156L65.171 148.691L64.106 154.598L64.688 171.155z"/>
 <path stroke-width="0.349" stroke-linejoin="round" d="M93.445 90.015L97.028 96.308L97.706 96.986L97.706 97.76"/>
 <path stroke-width="0.349" stroke-linejoin="round" d="M98.867 97.858L97.995 97.953L97.415 97.76L97.125 98.147L93.64 98.825C93.64 98.825 93.444 100.569 93.93 100.471C94.414 100.375 97.608 99.793 97.608 99.793L97.9 100.182L98.287 99.697L99.159 99.504L99.448 99.793L99.835 99.891C99.835 99.891 100.707 100.762 102.45 100.375C104.194 99.987 104.87 98.245 104.87 97.664C104.87 97.082 104.677 96.308 104.677 96.308L104.194 95.727L103.612 94.566L103.322 93.112L102.933 92.531L102.74 92.242L102.257 92.144L101.87 91.855L101.87 90.596L101.676 89.82L101.289 89.82L101.191 89.046L100.611 88.756L99.739 87.109"/>
 <path stroke-width="0.25" stroke-linejoin="round" d="M126.173 77.331C126.173 77.331 125.786 78.686 124.43 78.783C123.075 78.879 118.331 79.072 117.265 79.266C116.2 79.46 114.263 80.331 113.198 80.429C112.132 80.525 101.289 81.784 97.513 82.656C93.736 83.528 84.719 86.093 79.212 89.239C77.855 90.015 77.662 89.724 76.694 90.111C75.725 90.498 70.593 90.79 68.463 94.468C66.332 98.149 66.236 100.084 65.075 107.442C65.075 107.442 64.2 107.234 64.2 107.966C64.2 108.698 64.322 110.1 64.322 110.1"/>
 <path stroke-width="0.349" stroke-linejoin="round" d="M102.063 55.737L101.676 57.673C101.676 57.673 102.644 59.512 102.933 59.707C103.224 59.899 103.805 59.802 103.805 59.802C103.805 59.802 105.453 59.707 106.516 59.125C107.581 58.545 107.194 57.963 107.194 57.963C107.194 57.963 106.808 56.996 105.549 56.996C104.29 56.996 103.418 57.091 103.418 57.091"/>
 <path stroke-width="0.349" stroke-linejoin="round" d="M104.387 59.125L103.418 57.77C103.418 57.77 103.322 56.22 103.322 55.737C103.322 55.253 102.837 54.768 102.837 54.768L102.353 53.896L102.159 52.929L100.804 52.929C100.804 52.929 99.739 51.863 98.189 52.347C96.641 52.832 95.671 54.575 95.671 54.575C95.671 54.575 94.801 54.478 94.703 55.253C94.606 56.027 94.606 57.673 94.606 57.673L94.123 58.642C94.123 58.642 92.864 58.932 92.088 59.222C91.314 59.512 91.218 60.094 91.218 60.481C91.218 60.868 91.509 61.74 93.155 61.545C94.801 61.353 96.156 60.771 96.156 60.771L96.058 56.801C96.058 56.801 96.641 56.704 96.834 56.607C97.028 56.512 97.123 56.027 97.415 55.737C97.706 55.445 98.286 54.381 99.545 54.381C100.804 54.381 101.385 55.058 101.578 55.348C101.772 55.64 102.063 55.737 102.063 55.737L102.74 55.64"/>
 <path stroke-width="0.201" stroke-linejoin="round" d="M94.801 60.555L95.575 59.2"/>
 <path stroke-width="0.349" stroke-linejoin="round" d="M25.184 32.21C25.184 32.21 16.178 36.179 9.595 41.698C3.011 47.218 0.493 50.993 0.396 52.737C0.299 54.481 -0.185 59.03 0.686 59.805C1.558 60.581 2.525 61.743 3.592 61.743C4.657 61.743 6.883 61.838 6.883 61.838L7.561 58.546"/>
 <path stroke-width="0.349" stroke-linejoin="round" d="M4.463 56.707C4.463 56.707 6.689 56.417 7.174 57.094C7.658 57.773 7.076 59.902 7.852 59.902C8.625 59.902 10.563 60.192 11.144 60.192C11.724 60.192 12.016 60.484 12.596 58.935C13.176 57.384 14.727 54.189 14.727 54.189C14.727 54.189 19.762 50.317 24.41 48.768L24.989 46.734"/>
 <path stroke-width="0.349" stroke-linejoin="round" d="M24.989 45.281C24.989 45.281 24.506 47.218 25.765 47.314C27.024 47.411 28.67 47.606 29.153 47.509C29.638 47.411 29.832 47.314 29.928 46.831C30.024 46.347 30.121 45.668 30.121 45.668L31.091 46.25C31.091 46.25 36.996 44.603 41.548 43.829C46.098 43.054 51.424 42.085 51.424 42.085L51.908 39.956C51.908 39.956 52.488 40.634 53.264 40.731C54.039 40.828 55.686 40.828 56.168 40.731C56.652 40.634 56.944 39.956 56.944 39.956L57.234 38.89C57.234 38.89 58.396 40.731 58.686 40.923C58.976 41.118 59.557 41.311 59.557 41.311L76.114 40.246L76.597 39.859L76.792 38.213C76.792 38.213 77.179 38.795 78.34 38.892C79.503 38.987 80.471 38.795 80.956 38.795C81.438 38.795 81.73 38.213 81.73 38.213L82.213 37.149L84.343 39.762L89.379 39.957L89.283 37.633C89.283 37.633 89.283 36.954 90.057 37.051C90.831 37.149 92.09 37.051 92.09 37.051C92.09 37.051 91.995 30.564 92.09 29.306C92.188 28.047 91.993 27.271 90.831 26.594C89.67 25.916 88.313 25.141 87.927 23.593C87.54 22.042 86.572 16.718 86.378 16.039C86.183 15.362 85.99 15.169 85.12 15.265C84.248 15.362 82.408 15.362 82.408 15.362C82.408 15.362 82.117 13.715 82.021 13.426C81.924 13.134 81.924 12.65 80.277 12.845C78.632 13.038 60.524 14.394 49.875 17.492C39.223 20.591 28.475 25.82 24.699 33.274C24.699 33.274 22.57 40.731 20.439 43.249C18.307 45.765 17.05 46.057 17.05 46.057"/>
 <path stroke-width="0.25" stroke-linejoin="round" d="M31.67 34.146C31.67 34.146 33.994 33.469 34.576 34.823C35.156 36.179 35.447 39.085 37.965 38.89C40.481 38.698 41.063 37.826 41.548 36.954C42.031 36.082 45.807 29.885 46.292 29.304C46.776 28.724 47.261 28.336 47.841 28.239"/>
 <path stroke-width="0.25" stroke-linejoin="round" d="M55.49 26.69C55.49 26.69 57.618 26.385 58.033 27.8C58.472 29.294 58.811 31.333 61.289 31.333C63.575 31.333 63.892 30.437 64.569 29.469C64.856 29.059 66.096 27.282 66.096 27.282C66.096 27.282 66.403 26.195 66.626 25.916C67.013 25.431 67.884 24.754 68.561 24.658"/>
 <path stroke-width="0.25" stroke-linejoin="round" d="M1.847 53.899C1.847 53.899 4.463 50.606 7.658 50.122C10.852 49.639 16.856 49.542 19.858 47.218C22.859 44.895 24.699 40.344 25.765 35.89L27.022 35.308C27.022 35.308 30.219 27.658 39.707 23.399C49.197 19.138 57.137 17.977 57.137 17.977C57.137 17.977 59.265 16.911 60.332 16.718C61.396 16.524 81.246 14.297 81.246 14.297C81.246 14.297 82.492 21.318 82.736 22.356C82.98 23.391 83.59 24.734 83.712 25.099C83.834 25.464 84.018 28.269 84.018 28.513C84.018 28.757 85.054 35.466 85.176 35.892C85.298 36.319 85.358 36.502 85.664 36.624C85.968 36.746 85.968 38.209 85.968 38.392"/>
 <path stroke-width="0.349" stroke-linejoin="round" d="M34.191 6.863C34.191 6.863 33.543 6.945 32.938 6.985C32.331 7.025 32.048 6.702 32.048 6.136C32.048 5.57 31.966 2.496 31.966 2.173C31.966 1.85 32.331 1.284 33.098 1.203C33.868 1.121 39.853 0.272 40.46 0.192C41.066 0.111 41.348 0.313 41.429 0.839C41.511 1.363 41.956 4.195 41.996 4.599C42.036 5.003 41.753 5.53 41.753 5.53"/>
 <path stroke-width="0.349" stroke-linejoin="round" d="M33.14 5.126L35.04 8.361L35.566 8.279C35.566 8.279 35.039 6.014 36.901 5.57C38.761 5.126 40.621 5.043 40.621 5.043L40.783 5.206L41.429 5.488"/>
 <path stroke-width="0.349" stroke-linejoin="round" d="M41.962 5.564L42.002 6.634L42.198 7.108L41.765 7.187L40.661 5.328"/>
 <path stroke-width="0.349" stroke-linejoin="round" d="M40.945 5.894L35.768 6.58"/>
 <path stroke-width="0.25" stroke-linejoin="round" d="M56.011 28.103C56.834 28.032 57.405 27.925 57.371 28.998C57.335 30.071 57.405 31.253 57.371 31.646C57.335 32.039 56.976 32.469 56.332 32.576C55.689 32.683 50.716 33.363 50.357 33.435C50 33.506 49.39 33.47 49.356 32.969C49.32 32.469 49.356 30.143 49.32 29.928C49.283 29.713 49.57 28.998 50.5 28.855C51.43 28.711 56.011 28.103 56.011 28.103z"/>
 <path stroke-width="0.349" stroke-linejoin="round" d="M122.656 100.676C124.966 100.174 124.766 100.073 125.569 98.766C126.373 97.46 127.379 96.557 128.584 96.557C129.789 96.557 130.091 97.058 131.096 98.164C132.1 99.269 137.125 104.694 137.627 105.298C138.129 105.9 138.532 106.603 138.532 107.509C138.532 108.412 138.832 120.671 138.731 122.278C138.632 123.887 138.33 125.594 136.019 126.197C133.707 126.801 118.234 131.222 107.483 133.431C96.733 135.643 84.269 137.903 70.105 140.264C67.694 140.667 66.891 142.675 66.287 144.686C66.287 144.686 65.584 124.087 65.685 121.072C65.786 118.058 66.489 112.23 70.206 111.126C73.924 110.021 74.93 109.618 75.933 109.518C76.938 109.418 77.14 109.216 78.947 109.316C80.757 109.418 82.063 109.215 83.269 108.915C84.474 108.614 122.656 100.676 122.656 100.676z"/>
 <path stroke-width="0.25" stroke-linejoin="round" d="M94.388 45.219C94.388 45.805 93.617 46.28 92.667 46.28C91.716 46.28 90.945 45.805 90.945 45.219C90.945 44.634 91.716 44.158 92.667 44.158C93.617 44.158 94.388 44.634 94.388 45.219z"/>
 <path stroke-width="0.131" stroke-linejoin="round" d="M93.259 44.795C93.259 44.942 93.036 45.063 92.76 45.063C92.486 45.063 92.263 44.942 92.263 44.795C92.263 44.646 92.486 44.527 92.76 44.527C93.036 44.527 93.259 44.646 93.259 44.795z"/>
 <path stroke-width="0.25" stroke-linejoin="round" d="M91.793 46.185C91.793 46.185 91.793 46.563 91.793 46.845C91.793 47.128 92.313 47.365 92.784 47.317C93.256 47.271 93.68 47.034 93.68 46.798C93.68 46.563 93.68 46.185 93.68 46.185"/>
 <path stroke-width="0.25" stroke-linejoin="round" d="M92.123 47.365C92.123 47.365 92.123 48.119 92.171 48.402C92.218 48.685 92.453 48.826 92.784 48.779C93.114 48.731 93.256 48.637 93.256 48.448C93.256 48.261 93.349 47.365 93.349 47.365"/>
 <path stroke-width="0.25" stroke-linejoin="round" d="M106.823 43.563C106.823 44.149 106.054 44.624 105.102 44.624C104.153 44.624 103.382 44.149 103.382 43.563C103.382 42.976 104.153 42.502 105.102 42.502C106.054 42.502 106.823 42.976 106.823 43.563z"/>
 <path stroke-width="0.131" stroke-linejoin="round" d="M105.694 43.137C105.694 43.286 105.471 43.405 105.197 43.405C104.923 43.405 104.7 43.286 104.7 43.137C104.7 42.99 104.923 42.869 105.197 42.869C105.471 42.869 105.694 42.99 105.694 43.137z"/>
 <path stroke-width="0.25" stroke-linejoin="round" d="M104.23 44.529C104.23 44.529 104.23 44.905 104.23 45.189C104.23 45.472 104.75 45.707 105.221 45.661C105.691 45.612 106.117 45.378 106.117 45.142C106.117 44.905 106.117 44.529 106.117 44.529"/>
 <path stroke-width="0.25" stroke-linejoin="round" d="M104.561 45.707C104.561 45.707 104.561 46.463 104.608 46.744C104.655 47.027 104.891 47.168 105.221 47.121C105.551 47.075 105.691 46.979 105.691 46.792C105.691 46.603 105.786 45.707 105.786 45.707"/>
 <path stroke-width="0.131" stroke-linejoin="round" d="M96.697 56.226L95.802 54.624"/>
 <path stroke-width="0.131" stroke-linejoin="round" d="M94.811 57.076L94.811 58.82L93.915 58.96"/>
 <path stroke-width="0.131" stroke-linejoin="round" d="M95.093 59.432L94.811 58.82"/>
 <path stroke-width="0.131" stroke-linejoin="round" d="M100.893 53.162L102.118 55.283"/>
 <path stroke-width="0.131" stroke-linejoin="round" d="M102.968 59.575L102.873 55.802"/>
 <path stroke-width="0.131" stroke-linejoin="round" d="M91.18 60.281C91.417 60.941 92.123 61.176 93.114 61.13C94.105 61.082 94.906 60.847 94.906 60.847L94.858 61.082"/>
 <path stroke-width="0.131" stroke-linejoin="round" d="M104.617 59.243C104.617 59.243 107.257 59.009 107.069 57.877"/>
 <path stroke-width="0.131" stroke-linejoin="round" d="M96.98 54.435C96.98 54.435 97.215 54.719 97.403 54.482C97.593 54.246 98.489 53.728 99.149 53.68C99.808 53.634 100.703 53.68 100.986 53.869"/>
 <path stroke-width="0.131" stroke-linejoin="round" d="M96.65 53.776C96.65 53.776 96.65 54.012 96.79 53.917C96.933 53.823 97.593 53.256 98.441 53.115C99.29 52.973 100.14 53.067 100.328 53.162C100.516 53.256 100.703 53.21 100.703 53.21"/>
 <g>
  <path stroke-width="0.131" stroke-linejoin="round" d="M92.218 60.116C92.218 59.817 92.662 59.575 93.209 59.575C93.756 59.575 94.198 59.817 94.198 60.116"/>
  <path stroke-width="0.201" stroke-linejoin="round" d="M94.198 60.116C94.198 60.415 93.756 60.658 93.209 60.658C92.662 60.658 92.218 60.415 92.218 60.116"/>
 </g>
 <path stroke-width="0.201" stroke-linejoin="round" d="M92.391 60.331C92.569 60.189 92.868 60.094 93.209 60.094C93.572 60.094 93.89 60.201 94.061 60.362"/>
 <g>
  <path stroke-width="0.131" stroke-linejoin="round" d="M104.123 58.107C104.123 57.808 104.566 57.566 105.111 57.566C105.659 57.566 106.102 57.808 106.102 58.107"/>
  <path stroke-width="0.201" stroke-linejoin="round" d="M106.102 58.107C106.102 58.406 105.659 58.649 105.111 58.649C104.566 58.649 104.123 58.406 104.123 58.107"/>
 </g>
 <path stroke-width="0.201" stroke-linejoin="round" d="M104.295 58.323C104.474 58.179 104.772 58.085 105.111 58.085C105.475 58.085 105.793 58.194 105.965 58.353"/>
 <path stroke-width="0.131" stroke-linejoin="round" d="M102.453 55.79L102.453 56.658L102.156 56.435"/>
 <path stroke-width="0.131" stroke-linejoin="round" d="M84.141 33.603C81.864 33.709 73.727 34.098 68.926 34.49C63.301 34.947 47.523 36.685 36.959 39.292C26.394 41.898 23.102 43.636 23.102 43.636"/>
 <path stroke-width="0.131" stroke-linejoin="round" d="M0.662 51.746C1.088 51.136 3.71 49.185 4.442 48.758C5.174 48.332 6.516 47.966 7.674 47.966C8.833 47.966 15.907 47.112 17.675 45.893"/>
 <path stroke-width="0.131" stroke-linejoin="round" d="M1.76 54.307L1.821 59.246C1.821 59.246 1.637 59.734 2.004 60.039C2.37 60.344 3.1 61.076 3.649 61.076C4.198 61.076 6.942 61.137 6.942 61.137"/>
 <path stroke-width="0.131" stroke-linejoin="round" d="M31.821 33.941C31.821 33.941 35.479 32.11 35.968 31.867"/>
 <path stroke-width="0.131" stroke-linejoin="round" d="M36.761 31.623C36.761 31.623 41.09 29.856 41.395 29.795"/>
 <path stroke-width="0.131" stroke-linejoin="round" d="M42.371 29.489C42.371 29.489 46.456 28.208 47.493 28.147"/>
 <path stroke-width="0.131" stroke-linejoin="round" d="M55.662 26.562C55.662 26.562 57.979 26.013 58.773 25.891"/>
 <path stroke-width="0.131" stroke-linejoin="round" d="M59.688 25.769C59.688 25.769 63.284 25.16 64.26 25.221"/>
 <path stroke-width="0.131" stroke-linejoin="round" d="M64.87 25.038C64.87 25.038 67.522 24.565 68.042 24.611"/>
 <path stroke-width="0.201" stroke-linejoin="round" d="M82.066 37.417C82.066 37.234 82.126 36.015 83.224 35.71C83.709 35.575 84.099 35.523 84.382 35.508"/>
 <path stroke-width="0.201" stroke-linejoin="round" d="M76.792 38.213C76.792 38.213 76.822 37.173 76.882 36.807C76.944 36.441 76.76 35.892 75.054 35.892C73.346 35.892 61.03 36.38 59.627 36.685C58.225 36.99 57.524 36.951 57.234 38.89"/>
 <path stroke-width="0.201" stroke-linejoin="round" d="M51.908 39.956C51.908 39.956 52.005 39.063 52.005 38.88C52.005 38.697 51.456 37.844 49.749 38.027C48.042 38.209 43.101 39.246 40.174 39.917C37.249 40.588 31.211 41.807 30.907 42.722C30.602 43.636 30.114 45.954 30.114 45.954"/>
 <path stroke-width="0.201" stroke-linejoin="round" d="M24.87 45.71C24.87 45.71 25.236 44.795 24.138 44.978C23.041 45.161 22.797 45.527 22.614 45.954C22.431 46.38 21.394 48.941 21.394 48.941L15.541 52.6C15.541 52.6 14.827 54.012 14.727 54.189"/>
 <path stroke-width="0.201" stroke-linejoin="round" d="M8.711 57.966L8.528 58.759L11.394 58.759L11.455 57.905L8.711 57.966z"/>
 <path stroke-width="0.201" stroke-linejoin="round" d="M26.272 45.344L26.15 46.197L28.894 46.258L28.955 45.405L26.272 45.344z"/>
 <path stroke-width="0.201" stroke-linejoin="round" d="M53.345 38.514L53.164 39.429L55.908 39.429L56.029 38.636L53.345 38.514z"/>
 <path stroke-width="0.201" stroke-linejoin="round" d="M78.164 36.807L78.042 37.6L80.786 37.72L80.968 36.746L78.164 36.807z"/>
 <path stroke-width="0.201" stroke-linejoin="round" d="M64.444 23.635L64.322 26.989"/>
 <path stroke-width="0.201" stroke-linejoin="round" d="M59.261 24.55L59.017 27.783"/>
 <path stroke-width="0.201" stroke-linejoin="round" d="M41.707 28.468L41.579 32.04"/>
 <path stroke-width="0.201" stroke-linejoin="round" d="M36.212 30.525L35.968 34.124"/>
 <path stroke-width="0.131" stroke-linejoin="round" d="M4.259 56.32C4.259 56.32 7.735 51.99 10.785 50.283"/>
 <path stroke-width="0.131" stroke-linejoin="round" d="M15.541 52.844C15.541 52.844 20.724 49.368 24.443 48.027"/>
 <path stroke-width="0.131" stroke-linejoin="round" d="M30.358 45.161L31.15 45.587C31.15 45.587 36.456 44.002 41.639 43.026C46.822 42.051 51.395 41.563 51.395 41.563"/>
 <path stroke-width="0.131" stroke-linejoin="round" d="M57.432 38.27L58.956 40.405L59.627 40.588C59.627 40.588 73.894 39.61 76.152 39.551L76.762 39.002"/>
 <path stroke-width="0.131" stroke-linejoin="round" d="M82.311 36.563L84.382 39.063L86.762 39.063"/>
 <path stroke-width="0.131" stroke-linejoin="round" d="M24.748 33.514L25.419 33.392L27.797 33.392"/>
 <path stroke-width="0.131" stroke-linejoin="round" d="M27.553 34.124L25.541 34.124L25.297 34.368C25.297 34.368 23.711 40.527 22.309 42.783C20.905 45.039 18.527 47.417 14.076 48.149C9.625 48.881 6.333 48.697 4.868 49.673C3.406 50.649 1.516 52.234 1.516 52.234L1.211 53.576L1.211 60.1L1.577 60.405L2.004 60.039"/>
 <path stroke-width="0.131" stroke-linejoin="round" d="M1.211 53.576C1.211 53.576 1.332 53.21 2.185 52.478C3.04 51.746 5.113 50.161 6.455 49.978C7.796 49.795 9.746 49.856 12.064 49.49C14.381 49.124 20.358 47.844 22.248 43.576C24.138 39.307 25.358 35.281 25.358 35.281L27.004 35.1"/>
 <path stroke-width="0.131" stroke-linejoin="round" d="M3.222 60.1L5.479 57.234"/>
 <path stroke-width="0.131" stroke-linejoin="round" d="M34.576 34.823C34.576 34.823 35.174 38.392 38.04 38.392C40.906 38.392 41.212 36.746 41.942 35.77C42.674 34.795 43.893 32.904 43.893 32.904"/>
 <path stroke-width="0.131" stroke-linejoin="round" d="M58.408 28.376C58.408 28.376 58.59 30.83 61.09 30.708C63.59 30.586 63.956 29.795 64.87 28.513L66.268 26.417"/>
 <g>
  <path stroke-width="0.131" stroke-linejoin="round" d="M60.337 29.498C60.337 29.164 60.84 28.893 61.46 28.893C62.079 28.893 62.582 29.164 62.582 29.498"/>
  <path stroke-width="0.201" stroke-linejoin="round" d="M62.582 29.498C62.582 29.832 62.079 30.103 61.46 30.103C60.84 30.103 60.337 29.832 60.337 29.498"/>
 </g>
 <path stroke-width="0.201" stroke-linejoin="round" d="M60.476 29.811C60.667 29.625 61.036 29.498 61.46 29.498C61.841 29.498 62.179 29.602 62.383 29.759"/>
 <g>
  <path stroke-width="0.131" stroke-linejoin="round" d="M37.253 37.07C37.253 36.735 37.756 36.465 38.377 36.465C38.996 36.465 39.5 36.735 39.5 37.07"/>
  <path stroke-width="0.201" stroke-linejoin="round" d="M39.5 37.07C39.5 37.404 38.996 37.674 38.377 37.674C37.756 37.674 37.253 37.404 37.253 37.07"/>
 </g>
 <path stroke-width="0.201" stroke-linejoin="round" d="M37.393 37.381C37.585 37.195 37.954 37.07 38.377 37.07C38.759 37.07 39.097 37.173 39.299 37.331"/>
 <path stroke-width="0.131" stroke-linejoin="round" d="M85.908 36.929L89.444 37.051"/>
 <path stroke-width="0.131" stroke-linejoin="round" d="M85.298 26.196L88.652 26.074"/>
 <path stroke-width="0.131" stroke-linejoin="round" d="M91.197 33.225C91.114 33.982 90.337 34.52 89.463 34.426C88.587 34.329 87.947 33.637 88.03 32.88C88.111 32.121 88.888 31.583 89.763 31.678C90.638 31.774 91.278 32.466 91.197 33.225z"/>
 <path stroke-width="0.131" stroke-linejoin="round" d="M90.771 33.179C90.71 33.732 90.143 34.125 89.504 34.055C88.882 33.988 88.424 33.511 88.451 32.975"/>
 <path stroke-width="0.201" stroke-linejoin="round" d="M88.489 32.969C88.489 32.953 88.492 32.936 88.493 32.92C88.552 32.384 89.1 32.003 89.719 32.072C90.34 32.14 90.793 32.628 90.734 33.165"/>
 <path stroke-width="0.201" stroke-linejoin="round" d="M90.697 33.015C90.484 33.335 90.066 33.529 89.611 33.478C89.084 33.42 88.677 33.057 88.602 32.618"/>
 <path stroke-width="0.131" stroke-linejoin="round" d="M88.051 32.665C88.132 31.908 88.909 31.37 89.784 31.466C90.659 31.562 91.299 32.253 91.218 33.012"/>
 <path stroke-width="0.131" stroke-linejoin="round" d="M49.351 32.523C49.351 33.209 49.49 33.941 50.404 33.85C51.319 33.758 56.029 32.981 56.578 32.935C57.127 32.889 57.584 32.523 57.584 31.379C57.584 30.236 57.537 29.367 57.537 29.001C57.537 28.635 57.218 28.132 57.081 28.132"/>
 <path stroke-width="0.131" stroke-linejoin="round" d="M33.262 4.915C33.262 4.915 32.822 2.653 34.957 2.15C37.094 1.648 37.408 1.71 38.036 1.648C38.664 1.585 39.292 1.334 39.982 2.464C40.673 3.596 41.615 5.48 41.615 5.48"/>
 <path stroke-width="0.131" stroke-linejoin="round" d="M34.706 7.552L34.895 5.919L35.082 6.107L35.021 7.677"/>
 <path stroke-width="0.201" stroke-linejoin="round" d="M25.907 38.027C25.907 38.027 28.711 35.222 30.785 34.49"/>
 <path stroke-width="0.201" stroke-linejoin="round" d="M67.736 25.464C67.736 25.464 73.224 24.977 76.882 24.611C80.542 24.245 82.614 24.367 82.614 24.367"/>
 <path stroke-width="0.201" stroke-linejoin="round" d="M47.613 28.757C47.613 28.757 53.835 27.416 56.151 27.172"/>
 <path stroke-width="0.131" stroke-linejoin="round" d="M78.978 162.087C78.978 162.087 79.087 152.766 78.978 151.449C78.868 150.133 77.662 149.475 77.772 148.598C77.882 147.721 77.662 144.322 77.662 144.322"/>
 <path stroke-width="0.201" stroke-linejoin="round" d="M77.224 145.966C77.224 145.966 77.114 143.004 79.965 142.018C82.816 141.031 107.602 136.314 109.028 136.096C110.454 135.877 111.003 135.876 111.989 136.533"/>
 <path stroke-width="0.131" stroke-linejoin="round" d="M105.849 156.715L105.739 147.83"/>
 <path stroke-width="0.131" stroke-linejoin="round" d="M106.617 146.405L109.906 144.102"/>
 <path stroke-width="0.131" stroke-linejoin="round" d="M110.454 143.115C110.454 143.115 110.454 138.617 110.454 137.85C110.454 137.082 109.796 136.096 109.796 136.096"/>
 <path stroke-width="0.131" stroke-linejoin="round" d="M111.112 144.54L114.073 147.721"/>
 <path stroke-width="0.131" stroke-linejoin="round" d="M114.513 148.818L114.403 157.043"/>
 <path stroke-width="0.131" stroke-linejoin="round" d="M76.786 147.173C76.786 147.173 76.896 150.681 77.004 151.56C77.114 152.437 77.99 153.313 78.1 154.081C78.21 154.849 78.32 162.966 78.32 162.966"/>
 <path stroke-width="0.131" stroke-linejoin="round" d="M114.513 147.173C114.513 147.173 114.513 140.153 114.293 138.728C114.073 137.301 113.745 135.877 112.319 135.766"/>
 <path stroke-width="0.131" stroke-linejoin="round" d="M120.546 155.508C120.546 155.508 120.108 142.895 120.108 141.799"/>
 <path stroke-width="0.131" stroke-linejoin="round" d="M121.313 138.947C121.313 138.947 122.191 138.069 124.385 137.741C126.578 137.412 127.564 137.301 128.003 137.301C128.443 137.301 129.539 137.741 129.758 138.18"/>
 <path stroke-width="0.131" stroke-linejoin="round" d="M130.087 139.824L130.526 153.752"/>
 <path stroke-width="0.131" stroke-linejoin="round" d="M133.268 155.288C133.268 155.288 133.159 141.469 133.049 139.604C132.939 137.741 132.83 134.67 128.332 135.437"/>
 <path stroke-width="0.131" stroke-linejoin="round" d="M118.352 156.715C118.352 156.715 118.352 142.895 118.242 141.469C118.134 140.044 119.448 137.741 121.203 137.082"/>
 <path stroke-width="0.131" stroke-linejoin="round" d="M88.957 140.044C88.957 140.044 88.957 141.58 88.957 142.348C88.957 143.116 88.957 143.443 90.162 143.116C91.37 142.787 95.757 142.019 96.305 141.908C96.853 141.8 97.402 141.36 97.402 140.812C97.402 140.264 97.402 138.289 97.402 138.289"/>
 <path stroke-width="0.131" stroke-linejoin="round" d="M87.971 85.427C87.971 85.427 87.861 86.522 87.861 87.51C87.861 88.498 87.751 90.471 88.957 91.129C90.165 91.787 91.59 91.459 92.358 91.239"/>
 <path stroke-width="0.131" stroke-linejoin="round" d="M102.447 89.593C102.447 89.593 103.763 89.265 104.311 88.826C104.859 88.388 105.079 87.84 105.189 86.632C105.299 85.427 105.519 82.027 103.763 82.135C102.009 82.245 95.867 83.233 95.867 83.233"/>
 <path stroke-width="0.131" stroke-linejoin="round" d="M68.996 109.225C68.996 109.225 74.371 107.031 77.332 107.031C80.293 107.031 81.39 107.141 82.486 106.155C83.584 105.168 86.655 103.632 89.177 103.084C91.7 102.536 99.486 100.891 99.486 100.891"/>
 <path stroke-width="0.131" stroke-linejoin="round" d="M105.847 99.465L138.42 92.665"/>
 <path stroke-width="0.131" stroke-linejoin="round" d="M103.763 91.459C103.763 91.459 112.537 90.251 115.498 90.251C118.459 90.251 122.518 90.031 123.614 89.923C124.712 89.813 126.576 89.594 128.111 89.813C129.646 90.033 135.349 90.691 136.117 90.909"/>
 <path stroke-width="0.131" stroke-linejoin="round" d="M93.674 92.993C93.674 92.993 92.358 93.433 91.26 93.542C90.165 93.652 89.944 94.42 89.287 95.188C88.629 95.954 87.533 97.162 86.215 98.039C84.9 98.915 82.596 100.013 81.5 101.109C80.403 102.206 80.075 103.084 78.319 104.07C76.564 105.058 75.906 105.058 74.371 105.936"/>
 <path stroke-width="0.131" stroke-linejoin="round" d="M85.778 90.251C85.778 90.251 83.144 90.581 81.061 92.555C78.977 94.53 76.344 97.052 75.358 98.257C74.371 99.465 71.739 101.878 70.861 103.084C69.983 104.29 68.668 106.483 68.668 106.923C68.668 107.361 68.558 111.31 68.558 111.858"/>
 <path stroke-width="0.131" stroke-linejoin="round" d="M142.59 159.02C142.59 159.02 142.371 145.2 142.371 142.129C142.371 139.058 142.042 136.207 142.371 134.891C142.699 133.574 143.356 128.2 143.687 126.775C144.015 125.349 144.015 123.814 143.906 123.266C143.796 122.718 143.504 104.539 143.504 104.539"/>
 <path stroke-width="0.25" stroke-linejoin="round" d="M66.912 152.33C65.814 153.099 66.034 154.195 66.034 155.293C66.034 156.389 65.704 157.705 67.459 156.278C69.215 154.854 69.763 154.195 69.543 153.427C69.325 152.661 68.009 151.562 66.912 152.33z"/>
 <path stroke-width="0.201" stroke-linejoin="round" d="M64.608 154.854L65.596 153.318C65.596 153.318 66.034 149.151 66.802 146.848C67.569 144.544 67.569 144.544 67.569 144.544"/>
 <path stroke-width="0.201" stroke-linejoin="round" d="M139.143 155.662C139.355 156.018 139.151 156.532 138.687 156.81C138.223 157.087 137.674 157.026 137.461 156.669C137.247 156.314 137.451 155.8 137.915 155.522C138.379 155.242 138.929 155.306 139.143 155.662z"/>
 <path stroke-width="0.201" stroke-linejoin="round" d="M138.96 149.442C139.173 149.798 138.967 150.312 138.504 150.591C138.04 150.868 137.491 150.806 137.277 150.45C137.063 150.094 137.269 149.58 137.733 149.302C138.197 149.024 138.746 149.086 138.96 149.442z"/>
 <path stroke-width="0.201" stroke-linejoin="round" d="M138.867 143.222C139.081 143.579 138.877 144.092 138.413 144.371C137.949 144.649 137.4 144.586 137.186 144.23C136.973 143.875 137.177 143.36 137.64 143.082C138.104 142.804 138.655 142.866 138.867 143.222z"/>
 <path stroke-width="0.201" stroke-linejoin="round" d="M141.155 126.759C141.368 127.114 141.163 127.629 140.699 127.906C140.235 128.185 139.686 128.122 139.473 127.766C139.258 127.412 139.463 126.897 139.927 126.62C140.391 126.34 140.941 126.403 141.155 126.759z"/>
 <path stroke-width="0.201" stroke-linejoin="round" d="M136.139 134.671C136.437 135.169 136.151 135.887 135.502 136.276C134.854 136.664 134.086 136.578 133.788 136.08C133.49 135.582 133.776 134.865 134.424 134.477C135.072 134.086 135.841 134.175 136.139 134.671z"/>
 <path stroke-width="0.201" stroke-linejoin="round" d="M118.379 136.362C118.593 136.718 118.388 137.233 117.924 137.51C117.46 137.788 116.912 137.727 116.697 137.371C116.483 137.014 116.688 136.501 117.153 136.223C117.617 135.943 118.165 136.007 118.379 136.362z"/>
 <path stroke-width="0.201" stroke-linejoin="round" d="M75.084 141.796C75.242 142.062 75.09 142.443 74.745 142.651C74.4 142.858 73.992 142.812 73.832 142.546C73.674 142.282 73.826 141.9 74.171 141.693C74.516 141.485 74.924 141.532 75.084 141.796z"/>
 <path stroke-width="0.201" stroke-linejoin="round" d="M101.609 144.816C101.768 145.08 101.615 145.461 101.271 145.669C100.926 145.877 100.516 145.83 100.358 145.566C100.198 145.3 100.35 144.918 100.697 144.711C101.042 144.503 101.45 144.55 101.609 144.816z"/>
 <path stroke-width="0.201" stroke-linejoin="round" d="M85.42 142.163C85.578 142.426 85.427 142.81 85.081 143.018C84.736 143.223 84.328 143.177 84.168 142.913C84.01 142.647 84.162 142.265 84.507 142.058C84.852 141.85 85.26 141.897 85.42 142.163z"/>
 <path stroke-width="0.131" stroke-linejoin="round" d="M106.793 147.265L113.743 147.997"/>
 <path stroke-width="0.131" stroke-linejoin="round" d="M125.359 140.59L123.531 140.955L123.438 142.784L123.805 143.058L125.725 142.602L125.725 141.046L125.359 140.59z"/>
 <path stroke-width="0.131" stroke-linejoin="round" d="M125.635 151.108L123.805 151.29L123.805 153.302L124.262 153.394L125.816 153.12L126 151.564L125.635 151.108z"/>
 <path stroke-width="0.131" stroke-linejoin="round" d="M124.078 153.028L124.171 151.84L126 151.564"/>
 <path stroke-width="0.131" stroke-linejoin="round" d="M123.805 143.058L123.987 141.412L125.725 141.046"/>
 <path stroke-width="0.201" stroke-linejoin="round" d="M140.514 99.319C140.728 99.674 140.522 100.188 140.058 100.468C139.596 100.745 139.045 100.683 138.832 100.328C138.618 99.971 138.824 99.457 139.288 99.18C139.752 98.9 140.3 98.963 140.514 99.319z"/>
 <path stroke-width="0.201" stroke-linejoin="round" d="M122.439 98.402C122.614 98.694 122.447 99.118 122.063 99.347C121.682 99.576 121.23 99.525 121.052 99.233C120.878 98.939 121.046 98.516 121.427 98.287C121.811 98.057 122.263 98.108 122.439 98.402z"/>
 <path stroke-width="0.201" stroke-linejoin="round" d="M88.716 105.674C88.908 105.993 88.751 106.438 88.37 106.668C87.987 106.897 87.522 106.825 87.329 106.506C87.14 106.186 87.295 105.742 87.677 105.513C88.06 105.283 88.525 105.355 88.716 105.674z"/>
 <path stroke-width="0.201" stroke-linejoin="round" d="M91.281 85.456L91.507 85.867L91.644 87.549L89.688 87.914L89.46 87.641"/>
 <path stroke-width="0.131" stroke-linejoin="round" d="M89.415 87.322L89.415 85.82L91.007 85.456"/>
 <path stroke-width="0.131" stroke-linejoin="round" d="M91.507 85.867L89.596 86.185L89.643 87.549"/>
 <path stroke-width="0.201" stroke-linejoin="round" d="M103.608 83.433L103.835 83.843L103.972 85.527L102.016 85.891L101.787 85.617"/>
 <path stroke-width="0.131" stroke-linejoin="round" d="M101.656 85.501L101.566 83.727L103.334 83.433"/>
 <path stroke-width="0.131" stroke-linejoin="round" d="M103.835 83.843L101.924 84.162L102.016 85.891"/>
 <path stroke-width="0.201" stroke-linejoin="round" d="M101.156 80.769C101.156 81.021 100.811 81.224 100.384 81.224C99.956 81.224 99.611 81.021 99.611 80.769C99.611 80.516 99.956 80.313 100.384 80.313C100.811 80.313 101.156 80.516 101.156 80.769z"/>
 <path stroke-width="0.201" stroke-linejoin="round" d="M78.26 88.37C78.26 88.621 77.914 88.825 77.486 88.825C77.06 88.825 76.713 88.621 76.713 88.37C76.713 88.117 77.06 87.915 77.486 87.915C77.914 87.915 78.26 88.117 78.26 88.37z"/>
 <path stroke-width="0.201" stroke-linejoin="round" d="M94.073 97.713C94.073 97.965 93.728 98.168 93.301 98.168C92.873 98.168 92.528 97.965 92.528 97.713C92.528 97.462 92.873 97.259 93.301 97.259C93.728 97.259 94.073 97.462 94.073 97.713z"/>
 <path stroke-width="0.201" stroke-linejoin="round" d="M105.89 95.787C105.89 96.039 105.543 96.242 105.117 96.242C104.689 96.242 104.343 96.039 104.343 95.787C104.343 95.536 104.689 95.331 105.117 95.331C105.543 95.331 105.89 95.536 105.89 95.787z"/>
 <path stroke-width="0.201" stroke-linejoin="round" d="M103.453 86.766C103.611 87.028 103.46 87.408 103.118 87.612C102.777 87.817 102.373 87.772 102.215 87.51C102.058 87.248 102.209 86.868 102.549 86.664C102.891 86.457 103.298 86.504 103.453 86.766z"/>
 <path stroke-width="0.201" stroke-linejoin="round" d="M129.645 82.998L129.6 85.228L127.597 85.183L127.644 83.09"/>
 <path stroke-width="0.131" stroke-linejoin="round" d="M129.419 83.045L127.78 82.953"/>
 <path stroke-width="0.131" stroke-linejoin="round" d="M127.87 83.409L129.463 83.453"/>
 <path stroke-width="0.201" stroke-linejoin="round" d="M140.106 132.06C140.3 132.383 140.115 132.848 139.693 133.102C139.272 133.354 138.774 133.298 138.579 132.974C138.385 132.651 138.573 132.185 138.992 131.933C139.413 131.679 139.912 131.736 140.106 132.06z"/>
 <path stroke-width="0.201" stroke-linejoin="round" d="M131.701 129.813C131.828 130.022 131.706 130.325 131.432 130.49C131.159 130.653 130.836 130.616 130.711 130.407C130.584 130.198 130.705 129.895 130.979 129.73C131.252 129.566 131.574 129.604 131.701 129.813z"/>
 <path stroke-width="0.131" stroke-linejoin="round" d="M91.022 93.615C91.022 93.615 87.323 93.748 86.927 90.578L86.861 88.463"/>
 <path stroke-width="0.131" stroke-linejoin="round" d="M102.448 90.246C102.448 90.246 104.034 89.784 105.355 89.123C106.676 88.463 106.941 87.605 106.875 86.218C106.808 84.831 106.742 83.84 106.742 83.84"/>
 <path stroke-width="0.131" stroke-linejoin="round" d="M99.013 97.359L99.4 97.506L101.799 97.278L101.986 97.578L102.647 97.578L102.912 97.71L104.43 97.314"/>
 <path stroke-width="0.201" stroke-linejoin="round" d="M99.674 99.757L102.118 99.427L102.118 99.164L102.778 99.164L104.563 97.777"/>
 <path stroke-width="0.201" stroke-linejoin="round" d="M98.42 97.777L98.287 97.049C98.287 97.049 97.917 97.319 97.706 96.986"/>
 <path stroke-width="0.131" stroke-linejoin="round" d="M99.543 97.513C99.543 97.513 100.07 95.465 102.382 95.399C104.694 95.332 104.826 97.183 104.826 97.513"/>
 <path stroke-width="0.131" stroke-linejoin="round" d="M99.448 99.793C99.448 99.793 99.608 98.9 99.477 98.569C99.344 98.239 99.081 97.777 99.081 97.777"/>
 <path stroke-width="0.131" stroke-linejoin="round" d="M102.096 99.168C102.096 99.168 102.179 98.575 102.055 98.176C101.935 97.775 101.811 97.442 101.811 97.442"/>
 <path stroke-width="0.131" stroke-linejoin="round" d="M97.43 97.909C97.628 98.239 97.891 98.569 97.825 98.965C97.76 99.361 97.76 99.757 97.76 99.757"/>
 <path stroke-width="0.131" stroke-linejoin="round" d="M98.287 97.049C98.287 97.049 98.287 95.069 99.674 94.341C101.061 93.615 102.739 93.986 103.176 94.275C103.612 94.566 103.703 94.805 103.703 94.805"/>
 <path stroke-width="0.201" stroke-linejoin="round" d="M97.957 85.756L98.221 86.68L102.382 93.945"/>
 <path stroke-width="0.201" stroke-linejoin="round" d="M92.871 91.567C92.871 91.567 92.606 89.718 92.739 88.596C92.871 87.472 93.465 86.019 95.381 85.227C97.296 84.435 99.344 85.161 100.004 86.218C100.665 87.275 100.402 88.067 100.402 88.067"/>
 <path stroke-width="0.131" stroke-linejoin="round" d="M93.664 87.671L95.843 91.304L95.843 92.295L96.504 93.418"/>
 <path stroke-width="0.131" stroke-linejoin="round" d="M96.373 94.012L96.637 93.218L96.9 93.284L97.628 94.012C97.628 94.012 97.825 95.992 98.287 96.191"/>
 <path stroke-width="0.131" stroke-linejoin="round" d="M93.861 87.736C93.861 87.736 93.995 86.284 95.579 85.822C97.165 85.359 97.495 85.953 98.024 86.349"/>
 <path stroke-width="0.131" stroke-linejoin="round" d="M92.805 91.04C92.805 91.04 92.739 92.03 93.796 92.625C94.853 93.218 95.117 92.888 95.117 92.888"/>
 <path stroke-width="0.131" stroke-linejoin="round" d="M102.448 93.615L102.515 93.153L102.977 93.087L102.316 92.295"/>
 <path stroke-width="0.131" stroke-linejoin="round" d="M101.525 91.897L101.457 90.841"/>
 <path stroke-width="0.131" stroke-linejoin="round" d="M100.203 88.463L99.212 86.879L99.147 85.426L98.617 85.293L98.552 85.623"/>
 <path stroke-width="0.131" stroke-linejoin="round" d="M93.004 87.539L95.381 91.171L95.447 92.295L96.174 93.615"/>
 <path stroke-width="0.201" stroke-linejoin="round" d="M98.882 97.115C98.882 97.115 99.147 96.125 99.873 95.596C100.599 95.069 100.599 95.069 100.599 95.069"/>
 <path stroke-width="0.201" stroke-linejoin="round" d="M102.118 94.54L102.515 94.87C102.515 94.87 103.328 94.745 103.835 95.266"/>
 <path stroke-width="0.131" stroke-linejoin="round" d="M65.664 121.564L65.298 106.442"/>
 <path stroke-width="0.131" stroke-linejoin="round" d="M64.322 109.552C64.322 109.552 64.2 110.466 64.688 110.406C65.176 110.344 65.176 109.796 65.176 109.796"/>
 <path stroke-width="0.131" stroke-linejoin="round" d="M36.442 30.414L36.728 31.498L36.283 34.177L36.058 34.146"/>
 <path stroke-width="0.131" stroke-linejoin="round" d="M41.962 28.468L42.216 29.615L41.802 31.817"/>
 <path stroke-width="0.131" stroke-linejoin="round" d="M59.381 24.576L59.54 25.565L59.253 27.606"/>
 <path stroke-width="0.131" stroke-linejoin="round" d="M64.644 23.713L64.804 24.989L64.453 26.777"/>
 <path stroke-width="0.131" stroke-linejoin="round" d="M70.307 140.675L70.307 142.968C70.307 142.968 69.185 142.918 68.727 143.122"/>
 <path stroke-width="0.131" stroke-linejoin="round" d="M70.307 142.968C70.307 142.968 68.268 144.091 68.268 145.62C68.268 147.149 68.268 147.455 68.268 147.455"/>
 <path stroke="#FFFFFF" stroke-width="0.501" stroke-linejoin="round" d="M93.134 60.094L93.072 50.006"/>
 <path stroke="#FFFFFF" stroke-width="0.501" stroke-linejoin="round" d="M105.138 58.085L105.146 48.176"/>
 <path stroke="#FFFFFF" stroke-width="0.501" stroke-linejoin="round" d="M105.117 95.787L105.146 60.616"/>
 <path stroke-width="0.131" stroke-linejoin="round" d="M93.134 60.094L93.072 50.006"/>
 <path stroke-width="0.131" stroke-linejoin="round" d="M105.138 58.085L105.146 48.176"/>
 <path stroke-width="0.131" stroke-linejoin="round" d="M105.117 95.787L105.146 60.616"/>
 <path stroke="#FFFFFF" stroke-width="0.501" stroke-linejoin="round" d="M52.688 30.565L79.968 77.659L89.141 75.888L91.555 80.072"/>
 <path stroke-width="0.131" stroke-linejoin="round" d="M52.688 30.565L79.968 77.659L89.141 75.888L91.555 80.072"/>
 <path stroke-width="0.131" stroke-linejoin="round" d="M39.42 7.663L45.094 17.455"/>
 <path stroke="#FFFFFF" stroke-width="0.501" stroke-linejoin="round" d="M76.168 61.649L87.245 80.918"/>
 <path stroke-width="0.131" stroke-linejoin="round" d="M76.168 61.649L87.245 80.918"/>
 <path stroke-width="0.131" stroke-linejoin="round" d="M88.131 59.475L99.031 78.331"/>
 <path stroke-width="0.201" stroke-linejoin="round" d="M74.51 60.432C74.046 60.445 73.617 60.252 73.39 59.874C73.03 59.271 73.323 58.432 74.046 58C74.766 57.566 75.647 57.704 76.007 58.305C76.257 58.722 76.192 59.25 75.893 59.682"/>
 <path stroke-width="0.201" stroke-linejoin="round" d="M73.353 59.779C72.993 59.176 73.287 58.338 74.01 57.905C74.73 57.47 75.611 57.609 75.971 58.21"/>
 <path stroke-width="0.133" stroke-linejoin="round" d="M74.043 59.476C73.864 59.176 74.01 58.758 74.37 58.542C74.73 58.326 75.168 58.395 75.349 58.695"/>
 <path stroke-width="0.131" stroke-linejoin="round" d="M74.471 60.287C74.292 59.987 74.438 59.569 74.798 59.353C75.158 59.137 75.596 59.206 75.777 59.505"/>
 <path stroke-width="0.131" stroke-linejoin="round" d="M74.641 60.186C74.507 59.963 74.617 59.654 74.882 59.494C75.149 59.334 75.474 59.384 75.606 59.606"/>
 <path stroke-width="0.131" stroke-linejoin="round" d="M75.23 61.066C75.115 60.875 75.209 60.609 75.438 60.472C75.665 60.335 75.944 60.378 76.058 60.569"/>
 <path stroke-width="0.131" stroke-linejoin="round" d="M74.983 60.779C74.85 60.555 74.959 60.246 75.225 60.087C75.492 59.926 75.816 59.978 75.95 60.2"/>
 <path stroke-width="0.25" stroke-linejoin="round" d="M74.665 60.237L74.954 60.731L75.21 61.03C75.328 61.223 75.608 61.268 75.84 61.128C76.072 60.99 76.165 60.72 76.049 60.527L75.954 60.195L75.637 59.619"/>
 <path stroke-width="0.25" stroke-linejoin="round" d="M75.832 59.948C75.871 59.796 75.856 59.639 75.777 59.505L75.35 58.728"/>
 <path stroke-width="0.25" stroke-linejoin="round" d="M74.799 60.536C74.662 60.496 74.545 60.411 74.471 60.287L74.058 59.527"/>
 <path stroke-width="0.201" stroke-linejoin="round" d="M86.459 58.101C85.993 58.115 85.566 57.92 85.337 57.543C84.977 56.942 85.272 56.103 85.993 55.67C86.715 55.235 87.594 55.374 87.956 55.975C88.204 56.392 88.141 56.92 87.84 57.351"/>
 <path stroke-width="0.201" stroke-linejoin="round" d="M85.302 57.448C84.941 56.847 85.236 56.008 85.957 55.576C86.679 55.14 87.558 55.279 87.92 55.88"/>
 <path stroke-width="0.133" stroke-linejoin="round" d="M85.992 57.146C85.813 56.847 85.959 56.427 86.319 56.213C86.679 55.996 87.117 56.064 87.298 56.365"/>
 <path stroke-width="0.131" stroke-linejoin="round" d="M86.418 57.957C86.239 57.656 86.385 57.238 86.746 57.023C87.105 56.807 87.545 56.875 87.724 57.174"/>
 <path stroke-width="0.131" stroke-linejoin="round" d="M86.59 57.856C86.456 57.634 86.564 57.323 86.831 57.164C87.096 57.003 87.421 57.054 87.555 57.277"/>
 <path stroke-width="0.131" stroke-linejoin="round" d="M87.177 58.735C87.064 58.543 87.156 58.279 87.385 58.142C87.614 58.005 87.891 58.048 88.007 58.238"/>
 <path stroke-width="0.131" stroke-linejoin="round" d="M86.933 58.448C86.799 58.225 86.908 57.917 87.174 57.756C87.439 57.597 87.765 57.648 87.899 57.869"/>
 <path stroke-width="0.25" stroke-linejoin="round" d="M86.612 57.906L86.903 58.401L87.159 58.701C87.277 58.893 87.558 58.936 87.789 58.798C88.019 58.659 88.114 58.39 87.998 58.198L87.903 57.865L87.584 57.289"/>
 <path stroke-width="0.25" stroke-linejoin="round" d="M87.781 57.618C87.82 57.466 87.805 57.308 87.724 57.174L87.299 56.396"/>
 <path stroke-width="0.25" stroke-linejoin="round" d="M86.748 58.207C86.611 58.164 86.493 58.081 86.418 57.957L86.007 57.198"/>
 <path stroke="#FFFFFF" stroke-width="0.501" stroke-linejoin="round" d="M93.301 97.713L93.162 62.536"/>
 <path stroke-width="0.131" stroke-linejoin="round" d="M93.301 97.713L93.162 62.536"/>
 <path stroke="#FFFFFF" stroke-width="0.501" d="M10.297 14L34.444 3.757"/>
 <path stroke-width="0.131" d="M10.297 14L34.444 3.757"/>
 <text x="6.536" y="17.263" stroke="none" fill="#000000" font-family="'Helvetica'" font-size="4.924">1</text>
 <path stroke="#FFFFFF" stroke-width="0.501" d="M107.25 40.709L123.713 23.513"/>
 <text x="125.989" y="24.05" stroke="none" fill="#000000" font-family="'Helvetica'" font-size="4.924">4</text>
 <path stroke="#FFFFFF" stroke-width="0.501" d="M94.444 42.539L123.713 23.513"/>
 <path stroke-width="0.131" d="M94.444 42.539L123.713 23.513"/>
 <path stroke-width="0.131" d="M107.25 40.709L123.713 23.513"/>
 <path stroke="#FFFFFF" stroke-width="0.501" d="M106.884 57.173L127.737 48.392"/>
 <text x="129.518" y="49.627" stroke="none" fill="#000000" font-family="'Helvetica'" font-size="4.924">5</text>
 <path stroke-width="0.131" d="M106.884 57.173L127.737 48.392"/>
 <path stroke="#FFFFFF" stroke-width="0.501" d="M84.932 21.318L107.981 7.416"/>
 <text x="109.938" y="8.528" stroke="none" fill="#000000" font-family="'Helvetica'" font-size="4.924">2</text>
 <path stroke-width="0.131" d="M84.932 21.318L107.981 7.416"/>
 <path stroke="#FFFFFF" stroke-width="0.501" d="M51.273 87.174L73.939 60.984"/>
 <text x="47.85" y="91.96" stroke="none" fill="#000000" font-family="'Helvetica'" font-size="4.924">3</text>
 <path stroke="#FFFFFF" stroke-width="0.501" d="M51.273 87.174L85.932 58.884"/>
 <path stroke-width="0.131" d="M51.273 87.174L85.932 58.884"/>
 <path stroke-width="0.131" d="M51.273 87.174L73.939 60.984"/>
 <path stroke="#FFFFFF" stroke-width="0.501" d="M50.54 140.955L98.716 101.257"/>
 <text x="46.085" y="144.171" stroke="none" fill="#000000" font-family="'Helvetica'" font-size="4.924">6</text>
 <path stroke-width="0.131" d="M50.54 140.955L98.716 101.257"/>
 <text transform="matrix(0 -1 1 0 147.599 171.42)" stroke="none" fill="#000000" font-family="'Helvetica'" font-size="2.117">307 722</text>
</svg>
