<?xml version="1.0" encoding="utf-8"?>
<!DOCTYPE svg PUBLIC "-//W3C//DTD SVG 1.1//EN" "http://www.w3.org/Graphics/SVG/1.1/DTD/svg11.dtd">
<!-- Generator: PTC Arbortext IsoDraw 7.3 -->
<svg id="Standard_x0020_layer" width="100%" height="100%" viewBox="0 0 72.621 48.668"
 xmlns="http://www.w3.org/2000/svg" xmlns:xlink="http://www.w3.org/1999/xlink"
 fill-rule="evenodd" clip-rule="evenodd" stroke="#000000" stroke-linecap="round" fill="none" xml:space="preserve">
 <g>
  <path stroke="none" fill="#BFBFBF" d="M40.856 27.998L38.67 27.003 38.106 26.798 37.384 26.457 36.694 26.303C36.694 26.303 36.063 26.451 36.051 26.455 36.039 26.461 35.618 26.782 35.618 26.782L36.286 26.8C36.286 26.8 36.838 26.797 36.857 26.798 36.878 26.8 37.649 26.978 37.649 26.978L37.21 27.471C37.21 27.471 36.941 27.759 36.917 27.8 36.895 27.839 36.851 28.208 36.871 28.251 36.89 28.295 37.039 28.652 37.192 28.69 37.347 28.73 38.104 28.864 38.104 28.864L38.085 30.102 39.506 30.015"/>
 </g>
 <g>
  <path stroke="none" fill="#BFBFBF" d="M40.286 33.091L46.216 31.533 45.908 31.243 45.942 30.893 46.881 30.733 47.567 31.282 49.033 30.847 49.42 30.66 49.787 30.411 50.177 29.931 49.895 29.646 49.787 29.451 53.566 22.65 54.642 22.442 52.725 21.045 52.414 21.018 43.512 24.214 43.185 24.06 42.042 24.426 41.883 24.99 41.475 25.121 40.5 26.91 40.723 27.955 38.732 27.149 38.453 25.562C38.453 25.562 38.857 24.815 38.871 24.8 38.884 24.785 39.305 24.429 39.305 24.429L57.287 18.158 58.012 18.286 58.206 18.839 58.313 20.132 60.509 20.201 61.655 20.993 64.01 20.777 64.51 20.46C64.51 20.46 64.737 20.512 64.751 20.525 64.766 20.539 64.879 21.265 64.871 21.297 64.864 21.33 64.371 21.844 64.371 21.844L63.834 24.074 64.396 30.091 64.831 30.253 64.628 30.818 64.989 34.155 63.588 35.146 63.573 36.676C63.573 36.676 62.014 36.807 61.865 36.819 61.716 36.829 61.292 38.593 61.292 38.593L59.57 38.546 58.606 38.348 57.814 38.011 51.06 39.088 49.948 39.353 48.997 39.207 48.072 38.112 47.499 37.795 46.209 37.6C46.209 37.6 44.996 37.89 44.972 37.898 44.945 37.905 42.804 38.448 42.804 38.448L42.645 37.921 41.683 38.197 40.927 37.99"/>
 </g>
 <path stroke-width="0.13" stroke-linejoin="round" d="M2.299 19.801C2.299 19.801 1.417 19.835 1.35 20.548C1.282 21.26 1.197 22.176 1.197 22.176C1.197 22.176 0.909 22.16 0.909 22.431C0.909 22.702 0.909 22.972 0.909 23.077C0.909 23.314 1.197 23.314 1.197 23.314C1.197 23.314 1.316 28.675 1.35 28.963C1.383 29.251 1.435 29.439 1.569 29.541C1.706 29.641 2.758 30.864 2.911 31C3.063 31.135 3.25 31.185 3.555 31.185C3.86 31.185 4.589 31.236 4.708 31.271C4.828 31.304 5.227 31.298 5.227 31.298"/>
 <path stroke-width="0.13" stroke-linejoin="round" d="M3.484 21.649L2.987 21.076L2.687 20.528L2.463 20.478L2.338 19.882L2.488 19.731C2.488 19.731 2.512 19.16 2.613 18.96C2.713 18.76 2.887 18.637 2.887 18.637L2.762 18.413L3.036 18.114L3.435 17.914L3.932 17.94L3.958 17.739C3.958 17.739 4.53 17.615 4.655 17.615C4.778 17.615 4.927 17.815 4.927 17.815L5.152 17.815L5.65 17.964L6.323 18.512C6.323 18.512 7.07 18.637 7.368 18.936C7.666 19.234 7.815 19.533 7.841 19.608C7.865 19.681 8.041 19.707 8.164 19.707C8.288 19.707 10.48 19.681 10.679 19.681C10.878 19.681 11.233 19.681 11.438 20.007"/>
 <path stroke-width="0.13" stroke-linejoin="round" d="M1.205 22.207L9.974 22.248C9.974 22.248 10.922 22.248 11.321 22.295"/>
 <path stroke-width="0.13" stroke-linejoin="round" d="M1.006 23.164C1.006 23.164 9.631 23.152 9.932 23.143C10.234 23.132 10.984 23.157 11.249 23.14"/>
 <path stroke-width="0.13" stroke-linejoin="round" d="M3.459 21.609C3.806 21.981 4.487 22.007 5.014 22.007C6.07 22.007 6.924 21.085 6.924 19.949C6.924 19.382 6.711 18.867 6.365 18.495"/>
 <path stroke-width="0.13" stroke-linejoin="round" d="M8.095 19.731L6.945 19.751"/>
 <path stroke-width="0.13" stroke-linejoin="round" d="M6.716 19.146L6.152 19.126C6.152 19.126 5.923 19.126 5.673 19.146"/>
 <path stroke-width="0.13" stroke-linejoin="round" d="M6.82 19.669C6.82 19.669 6.487 19.647 6.32 19.647C6.152 19.647 5.798 19.647 5.798 19.647C5.798 19.647 5.903 20.085 5.756 20.336C5.61 20.586 5.506 20.754 5.506 20.754C5.506 20.754 5.652 21.172 5.881 21.193C6.11 21.213 6.403 21.297 6.403 21.297"/>
 <path stroke-width="0.13" stroke-linejoin="round" d="M5.652 19.083C5.652 19.083 5.589 18.812 5.275 18.541C4.963 18.269 4.879 18.228 4.879 18.228C4.879 18.228 4.859 17.811 5.171 17.852"/>
 <path stroke-width="0.13" stroke-linejoin="round" d="M5.506 20.754L6.216 20.942L6.383 21.234"/>
 <path stroke-width="0.13" stroke-linejoin="round" d="M6.216 20.838C6.216 20.838 6.445 20.67 6.508 20.336C6.554 20.091 6.508 19.815 6.508 19.815"/>
 <path stroke-width="0.13" stroke-linejoin="round" d="M5.756 18.164L5.527 18.478C5.527 18.478 5.944 18.855 6.049 19.083"/>
 <path stroke-width="0.13" stroke-linejoin="round" d="M3.919 21.756L4.003 21.4C4.003 21.4 4.341 21.484 4.617 21.393C4.884 21.303 5.088 21.15 5.088 21.15C5.088 21.15 5.339 21.463 5.464 21.547C5.589 21.631 5.929 21.708 5.929 21.708"/>
 <path stroke-width="0.13" stroke-linejoin="round" d="M5.567 21.638C5.567 21.638 4.859 21.798 4.796 21.798C4.734 21.798 4.461 21.798 4.461 21.798L4.461 21.986"/>
 <path stroke-width="0.13" stroke-linejoin="round" d="M1.518 29.419L1.901 29.611C1.901 29.611 2.666 30.461 2.794 30.589C2.923 30.718 3.2 30.908 3.411 30.908C3.554 30.908 5.892 30.955 7.533 30.987"/>
 <path stroke-width="0.13" stroke-linejoin="round" d="M10.327 30.318C10.545 30.083 11.035 29.562 11.035 29.562"/>
 <path stroke-width="0.13" stroke-linejoin="round" d="M10.268 27.161L10.268 23.457"/>
 <path stroke-width="0.13" stroke-linejoin="round" d="M10.282 21.992L10.412 20.332"/>
 <path stroke-width="0.13" stroke-linejoin="round" d="M2.737 20.625C2.737 20.625 2.919 20.995 3.044 21.123C3.168 21.253 3.439 21.393 3.439 21.393L3.439 21.533"/>
 <path stroke-width="0.13" stroke-linejoin="round" d="M7.198 19.951L7.343 22.106"/>
 <path stroke-width="0.13" stroke-linejoin="round" d="M7.796 19.922L10.053 19.989"/>
 <path stroke-width="0.13" d="M11.438 20.007C11.513 20.32 11.582 21.757 11.558 22.14C11.537 22.521 11.679 23.135 11.249 23.14"/>
 <line stroke-width="0.13" x1="11.035" y1="29.562" x2="11.035" y2="23.26"/>
 <g>
  <path stroke-width="0.13" d="M2.047 29.539C2.108 29.548 2.2 29.269 2.253 28.917C2.306 28.565 2.298 28.272 2.238 28.263C2.177 28.254 2.084 28.533 2.032 28.885C1.979 29.236 1.984 29.53 2.047 29.539"/>
 </g>
 <g>
  <path stroke-width="0.13" d="M8.25 31.178C8.342 31.192 8.458 30.917 8.51 30.565C8.564 30.213 8.532 29.917 8.442 29.902"/>
 </g>
 <line stroke-width="0.13" x1="8.25" y1="31.178" x2="2.047" y2="29.539"/>
 <line stroke-width="0.13" x1="8.442" y1="29.902" x2="2.238" y2="28.263"/>
 <g>
  <path stroke-width="0.13" d="M8.029 31.112C8.121 31.126 8.237 30.852 8.291 30.5C8.343 30.147 8.313 29.85 8.221 29.838"/>
 </g>
 <g>
  <path stroke-width="0.13" d="M7.679 31.045C7.77 31.059 7.887 30.783 7.94 30.431C7.993 30.079 7.963 29.783 7.871 29.769"/>
 </g>
 <g>
  <path stroke-width="0.13" d="M2.228 29.551C2.29 29.496 2.365 29.239 2.41 28.942C2.454 28.646 2.456 28.393 2.419 28.312"/>
 </g>
 <g>
  <path stroke-width="0.13" d="M2.66 29.65C2.721 29.596 2.797 29.338 2.842 29.041C2.886 28.745 2.887 28.492 2.851 28.411"/>
 </g>
 <g>
  <path stroke-width="0.13" d="M1.199 32.405C1.294 32.417 1.409 32.134 1.459 31.774C1.51 31.411 1.474 31.109 1.381 31.096C1.286 31.082 1.171 31.365 1.121 31.727C1.07 32.088 1.106 32.392 1.199 32.405"/>
 </g>
 <g>
  <path stroke-width="0.13" d="M4.02 32.991C4.115 33.003 4.23 32.722 4.28 32.359C4.33 31.998 4.294 31.696 4.2 31.682"/>
  <path stroke-width="0.13" d="M4.014 32.99C4.017 32.99 4.019 32.99 4.02 32.991"/>
 </g>
 <line stroke-width="0.13" x1="4.02" y1="32.991" x2="1.199" y2="32.405"/>
 <line stroke-width="0.13" x1="4.201" y1="31.682" x2="1.381" y2="31.096"/>
 <g>
  <path stroke-width="0.13" d="M3.748 32.935C3.841 32.948 3.956 32.664 4.006 32.304C4.057 31.942 4.02 31.638 3.927 31.626"/>
  <path stroke-width="0.13" d="M3.742 32.933C3.743 32.933 3.746 32.935 3.748 32.935"/>
 </g>
 <g>
  <path stroke-width="0.13" d="M3.341 32.866C3.435 32.88 3.551 32.597 3.601 32.235C3.65 31.875 3.615 31.571 3.522 31.557"/>
  <path stroke-width="0.13" d="M3.335 32.865C3.338 32.866 3.339 32.866 3.341 32.866"/>
 </g>
 <g>
  <path stroke-width="0.13" d="M1.964 32.551C2.057 32.564 2.174 32.281 2.224 31.92C2.274 31.559 2.238 31.254 2.145 31.242"/>
  <path stroke-width="0.13" d="M1.959 32.549C1.96 32.551 1.963 32.551 1.964 32.551"/>
 </g>
 <g>
  <path stroke-width="0.13" d="M1.559 32.484C1.652 32.496 1.768 32.213 1.818 31.853C1.867 31.49 1.833 31.187 1.738 31.175"/>
  <path stroke-width="0.13" d="M1.552 32.481C1.555 32.482 1.556 32.482 1.559 32.484"/>
 </g>
 <path stroke-width="0.13" d="M3.664 32.917C3.649 33.024 3.569 33.274 3.806 33.341C4.043 33.408 5.003 33.646 5.193 33.646C5.386 33.646 5.498 33.567 5.567 33.511C5.634 33.454 5.871 33.137 5.894 32.664C5.916 32.189 5.804 31.818 5.804 31.818C5.804 31.818 5.746 31.603 5.307 31.524C4.867 31.446 4.282 31.233 3.851 31.609"/>
 <line stroke-width="0.13" x1="4.54" y1="31.57" x2="4.54" y2="32.494"/>
 <line stroke-width="0.13" x1="5.634" y1="33.093" x2="4.721" y2="32.935"/>
 <g>
  <path stroke-width="0.13" d="M8.303 33.95C8.396 33.963 8.512 33.68 8.561 33.319C8.612 32.957 8.577 32.654 8.483 32.642"/>
  <path stroke-width="0.13" d="M8.297 33.948C8.298 33.95 8.301 33.95 8.303 33.95"/>
 </g>
 <line stroke-width="0.13" x1="8.303" y1="33.95" x2="5.658" y2="33.399"/>
 <line stroke-width="0.13" x1="8.483" y1="32.642" x2="5.862" y2="32.095"/>
 <g>
  <path stroke-width="0.13" d="M8.028 33.893C8.122 33.906 8.239 33.624 8.288 33.262C8.339 32.901 8.303 32.597 8.21 32.585"/>
  <path stroke-width="0.13" d="M8.022 33.893C8.025 33.893 8.026 33.893 8.028 33.893"/>
 </g>
 <g>
  <path stroke-width="0.13" d="M7.623 33.826C7.716 33.838 7.833 33.555 7.883 33.195C7.932 32.834 7.897 32.53 7.802 32.517"/>
  <path stroke-width="0.13" d="M7.617 33.825C7.618 33.825 7.621 33.826 7.623 33.826"/>
 </g>
 <g>
  <path stroke-width="0.13" d="M6.246 33.509C6.339 33.523 6.456 33.24 6.506 32.878C6.556 32.518 6.519 32.213 6.426 32.201"/>
  <path stroke-width="0.13" d="M6.24 33.509C6.243 33.509 6.245 33.509 6.246 33.509"/>
 </g>
 <g>
  <path stroke-width="0.13" d="M5.839 33.442C5.934 33.454 6.049 33.173 6.099 32.811C6.15 32.45 6.113 32.146 6.02 32.134"/>
  <path stroke-width="0.13" d="M5.835 33.441C5.836 33.442 5.839 33.442 5.839 33.442"/>
 </g>
 <path stroke-width="0.13" d="M8.221 29.838C8.221 29.838 8.262 29.493 8.262 29.483C8.262 29.471 8.737 29.155 8.939 29.143C9.143 29.132 9.887 29.381 9.99 29.449C10.09 29.515 10.114 29.583 10.114 29.809C10.114 30.035 9.798 32.844 9.798 32.844"/>
 <line stroke-width="0.13" x1="8.029" y1="31.112" x2="7.804" y2="32.517"/>
 <g>
  <path stroke-width="0.13" d="M10.676 31.798C10.766 31.812 10.884 31.538 10.936 31.185C10.99 30.833 10.958 30.538 10.868 30.524"/>
 </g>
 <g>
  <path stroke-width="0.13" d="M10.455 31.733C10.547 31.746 10.663 31.472 10.715 31.12C10.769 30.768 10.737 30.472 10.647 30.457"/>
 </g>
 <g>
  <path stroke-width="0.13" d="M10.105 31.666C10.196 31.678 10.314 31.405 10.367 31.053C10.419 30.701 10.388 30.403 10.297 30.39"/>
 </g>
 <line stroke-width="0.13" x1="10.868" y1="30.524" x2="10.067" y2="30.336"/>
 <line stroke-width="0.13" x1="10.676" y1="31.798" x2="9.929" y2="31.649"/>
 <path stroke-width="0.13" d="M9.798 32.844C9.807 33.418 9.779 33.948 9.507 34.125C9.237 34.301 9.223 34.301 9.223 34.301C9.223 34.301 8.503 34.804 8.189 35.335C7.878 35.865 7.647 36.271 7.647 36.271C7.647 36.271 8.503 36.204 9.114 35.878"/>
 <g>
  <path stroke-width="0.13" d="M10.294 34.326C10.385 34.34 10.503 34.064 10.556 33.713C10.609 33.36 10.577 33.064 10.487 33.051"/>
 </g>
 <g>
  <path stroke-width="0.13" d="M10.074 34.259C10.166 34.274 10.282 34 10.336 33.648C10.387 33.295 10.356 32.999 10.266 32.984"/>
 </g>
 <g>
  <path stroke-width="0.13" d="M9.724 34.192C9.816 34.206 9.932 33.932 9.986 33.579C10.038 33.228 10.007 32.93 9.916 32.917"/>
 </g>
 <line stroke-width="0.13" x1="10.487" y1="33.051" x2="9.798" y2="32.89"/>
 <line stroke-width="0.13" x1="10.294" y1="34.326" x2="9.442" y2="34.167"/>
 <path stroke-width="0.13" d="M9.634 34.395C9.548 34.631 9.246 35.149 9.419 35.301C9.592 35.451 9.916 35.581 10.067 35.56C10.217 35.537 10.885 35.258 11.037 35.042C11.188 34.826 11.768 31.335 11.768 30.937C11.768 30.542 11.662 30.254 11.274 30.211C10.885 30.169 10.374 30.152 10.468 30.431"/>
 <line stroke-width="0.13" x1="11.166" y1="30.859" x2="10.669" y2="34.503"/>
 <path stroke-width="0.13" d="M11.384 33.487C12.093 33.661 12.784 34.395 12.589 35.171C12.394 35.948 11.532 36.896 11.317 37.241C11.102 37.587 11.037 38.103 11.769 38.255C12.503 38.405 15.262 37.953 15.262 37.953L15.305 37.759L16.449 37.737L16.535 38.039C16.535 38.039 18.065 37.909 18.541 37.737C19.015 37.564 19.015 37.564 19.015 37.564C19.015 37.564 19.144 37.134 19.359 37.112C19.576 37.091 19.812 37.155 19.899 37.219C19.986 37.284 21.344 36.594 21.925 36.573C22.507 36.551 23.736 36.746 23.975 36.723C24.211 36.703 25.096 36.53 25.268 37.348C25.44 38.168 24.751 38.277 24.233 38.232C23.716 38.189 22.745 37.932 22.228 37.975C21.71 38.018 20.481 38.491 20.481 38.491"/>
 <path stroke-width="0.13" d="M22.896 38.146C22.658 38.621 22.228 39.398 21.603 39.634C20.977 39.871 21.021 39.85 21.021 39.85C21.021 39.85 20.977 40.238 20.739 40.304C20.503 40.368 20.071 40.432 20.007 40.325C19.942 40.216 19.942 40.216 19.942 40.216C19.942 40.216 17.44 40.906 17.074 40.906C16.707 40.906 16.707 40.886 16.707 40.886L16.664 41.165C16.664 41.165 15.801 41.1 15.801 41.143C15.801 41.188 15.586 41.015 15.586 41.015L11.274 41.252L11.166 41.533L10.26 41.511L10.195 41.295C10.195 41.295 7.78 41.554 6.939 41.554C6.099 41.554 3.921 41.338 3.749 40.131"/>
 <path stroke-width="0.13" d="M3.749 40.131C3.663 39.57 3.36 38.082 3.641 37.716"/>
 <path stroke-width="0.13" d="M3.641 37.716L3.382 37.607C3.382 37.607 3.812 35.042 3.835 35.042C3.857 35.042 4.115 34.826 3.835 34.697C3.555 34.567 2.109 33.813 2.562 32.863"/>
 <path stroke-width="0.13" d="M5.538 35.753C5.732 35.796 5.99 35.71 6.099 35.429C6.206 35.149 6.811 33.77 6.811 33.77L6.078 33.835L5.538 35.753z"/>
 <path stroke-width="0.13" d="M7.623 33.826C7.623 33.826 6.811 35.646 6.703 35.817C6.594 35.99 6.939 36.465 7.113 35.905C7.285 35.344 7.435 35.042 7.737 34.804C8.039 34.567 8.297 33.948 8.297 33.948"/>
 <path stroke-width="0.13" d="M10.864 39.332C10.583 39.268 10.26 39.268 10.153 39.506C10.044 39.743 10.044 39.743 10.044 39.743C10.044 39.743 7.068 40.195 6.573 40.152C6.078 40.109 5.28 40.002 5.171 39.246C5.064 38.491 5.086 38.018 5.086 38.018L5.365 37.953L5.538 37.284C5.538 37.284 6.918 37.737 8.276 37.542C9.634 37.348 11.015 35.862 11.274 35.235"/>
 <path stroke-width="0.13" d="M9.916 36.939C9.762 37.295 9.65 38.719 10.416 39.31"/>
 <path stroke-width="0.13" d="M10.864 39.332C10.864 39.332 11.166 39.354 11.058 39.764C10.951 40.173 11.102 41.079 11.274 41.252"/>
 <path stroke-width="0.13" d="M10.044 39.743C9.958 40.259 10.131 41.079 10.195 41.295"/>
 <path stroke-width="0.13" d="M11.082 39.593C12.093 39.786 15.048 39.463 15.285 39.418"/>
 <path stroke-width="0.13" d="M15.262 37.953L15.586 41.015"/>
 <path stroke-width="0.13" d="M16.535 38.039L16.707 40.886"/>
 <line stroke-width="0.13" x1="19.015" y1="37.564" x2="19.942" y2="40.216"/>
 <line stroke-width="0.13" x1="19.899" y1="37.219" x2="21.021" y2="39.85"/>
 <path stroke-width="0.13" d="M16.772 39.375C18.173 39.225 19.178 38.926 19.295 38.816"/>
 <path stroke-width="0.13" d="M12.614 35.043C13.451 34.654 14.529 35.021 14.595 35.667C14.66 36.314 13.021 38.241 13.021 38.241"/>
 <path stroke-width="0.13" d="M5.886 37.38C5.905 38.168 5.9 39.262 8.393 39.978"/>
 <path stroke-width="0.13" d="M6.645 37.524C6.788 38.32 7.524 39.151 9.496 39.823"/>
 <path stroke-width="0.13" d="M7.65 37.591C7.846 38.018 9.032 39.009 9.548 39.182C10.067 39.354 10.237 39.393 10.237 39.393"/>
 <line stroke-width="0.13" x1="3.641" y1="37.716" x2="5.086" y2="38.018"/>
 <path stroke-width="0.13" d="M5.538 37.284C4.719 37.026 4.698 36.357 4.762 36.185"/>
 <path stroke-width="0.13" d="M3.762 35.408C2.999 35.807 0.53 39.058 0.285 42.801"/>
 <line stroke-width="0.13" x1="0.285" y1="42.801" x2="0.065" y2="45.783"/>
 <line stroke-width="0.13" x1="4.173" y1="40.99" x2="4.025" y2="41.822"/>
 <line stroke-width="0.13" x1="4.025" y1="41.822" x2="5.543" y2="41.822"/>
 <line stroke-width="0.13" x1="5.561" y1="41.412" x2="5.543" y2="47.299"/>
 <line stroke-width="0.13" x1="8.263" y1="41.469" x2="8.122" y2="47.719"/>
 <line stroke-width="0.13" x1="5.554" y1="43.729" x2="3.879" y2="43.779"/>
 <line stroke-width="0.13" x1="3.879" y1="43.779" x2="3.61" y2="45.686"/>
 <line stroke-width="0.13" x1="3.879" y1="43.779" x2="2.951" y2="43.46"/>
 <line stroke-width="0.13" x1="2.951" y1="43.46" x2="3.048" y2="41.822"/>
 <line stroke-width="0.13" x1="3.048" y1="41.822" x2="4.025" y2="41.822"/>
 <g>
  <path stroke-width="0.13" d="M4.152 42.703C4.152 42.484 3.975 42.307 3.757 42.307C3.54 42.307 3.363 42.484 3.363 42.703C3.363 42.92 3.54 43.097 3.757 43.097C3.975 43.097 4.152 42.92 4.152 42.703"/>
 </g>
 <line stroke-width="0.13" x1="37.674" y1="44.439" x2="37.625" y2="48.155"/>
 <path stroke-width="0.13" d="M27.858 38.832L28.713 38.848C30.071 38.875 32.615 38.918 33.22 38.89C34.161 38.845 35.119 38.524 35.813 37.896C35.994 37.734 36.417 37.542 36.893 37.404C37.375 37.264 37.918 37.176 38.347 37.277C38.518 37.317 38.67 37.387 38.761 37.527C38.798 37.585 38.826 37.655 38.841 37.734C38.988 38.433 39.045 39.219 39.097 39.927C39.168 40.912 39.261 41.765 39.488 42.161C39.651 42.444 39.932 42.75 40.301 42.994C40.661 43.232 41.103 43.412 41.591 43.459C42.012 43.5 42.469 43.441 42.932 43.229C43.875 42.802 45.323 41.426 46.094 40.241C46.47 39.664 46.679 39.119 46.673 38.731L46.652 37.665"/>
 <path stroke-width="0.13" d="M27.878 37.86L28.734 37.878L28.733 37.878C30.071 37.905 32.579 37.948 33.174 37.92C33.893 37.886 34.631 37.655 35.161 37.176C35.409 36.953 35.972 36.661 36.622 36.47C37.268 36.283 37.996 36.198 38.569 36.332C38.997 36.432 39.35 36.649 39.576 37C39.673 37.151 39.749 37.328 39.792 37.536C39.948 38.276 40.009 39.106 40.064 39.856C40.124 40.655 40.146 41.356 40.331 41.676C40.43 41.85 40.609 42.033 40.838 42.185C41.073 42.341 41.363 42.462 41.682 42.491C41.95 42.518 42.237 42.478 42.531 42.345C43.357 41.972 44.606 40.747 45.281 39.712C45.526 39.338 45.706 39.002 45.701 38.75L45.682 37.683"/>
 <path stroke-width="0.13" d="M30.155 40.289C31.207 40.35 34.523 40.508 35.515 40.487C35.923 40.479 36.396 40.506 36.787 40.773C36.944 40.878 37.085 41.024 37.204 41.222C37.395 41.539 37.524 41.981 37.572 42.582C37.662 43.749 37.762 44.591 38.003 45.186C38.122 45.484 38.277 45.728 38.473 45.926C38.753 46.207 39.119 46.404 39.621 46.518C40.539 46.728 42.213 47.191 43.228 47.475L43.228 47.475L44.082 47.718"/>
 <path stroke-width="0.13" d="M30.201 39.481C31.24 39.54 34.518 39.698 35.5 39.679C36.06 39.667 36.704 39.735 37.244 40.103C37.487 40.271 37.712 40.496 37.896 40.804C38.139 41.207 38.319 41.759 38.378 42.518C38.462 43.578 38.536 44.344 38.753 44.884C38.829 45.073 38.923 45.231 39.048 45.356C39.229 45.539 39.475 45.655 39.802 45.728C40.728 45.941 42.421 46.408 43.448 46.697L44.304 46.939"/>
 <line stroke-width="0.13" x1="8.355" y1="42.59" x2="9.352" y2="42.63"/>
 <line stroke-width="0.13" x1="9.352" y1="42.63" x2="11.166" y2="41.533"/>
 <line stroke-width="0.13" x1="11.166" y1="41.533" x2="34.658" y2="41.524"/>
 <line stroke-width="0.13" x1="34.658" y1="41.524" x2="36.593" y2="42.63"/>
 <line stroke-width="0.13" x1="36.593" y1="42.63" x2="37.572" y2="42.582"/>
 <line stroke-width="0.13" x1="8.281" y1="47.618" x2="37.636" y2="47.618"/>
 <line stroke-width="0.13" x1="8.281" y1="47.128" x2="37.636" y2="47.128"/>
 <line stroke-width="0.13" x1="8.281" y1="46.643" x2="37.636" y2="46.643"/>
 <line stroke-width="0.13" x1="8.281" y1="46.152" x2="37.636" y2="46.152"/>
 <line stroke-width="0.13" x1="8.281" y1="45.67" x2="37.636" y2="45.67"/>
 <line stroke-width="0.13" x1="8.281" y1="45.18" x2="37.636" y2="45.18"/>
 <line stroke-width="0.13" x1="8.281" y1="44.695" x2="37.636" y2="44.695"/>
 <line stroke-width="0.13" x1="8.281" y1="44.206" x2="37.636" y2="44.206"/>
 <line stroke-width="0.13" x1="8.243" y1="43.682" x2="37.597" y2="43.682"/>
 <line stroke-width="0.13" x1="8.346" y1="43.192" x2="37.597" y2="43.192"/>
 <line stroke-width="0.13" x1="8.355" y1="42.707" x2="37.597" y2="42.707"/>
 <line stroke-width="0.13" x1="10.032" y1="42.218" x2="35.871" y2="42.218"/>
 <path stroke-width="0.13" d="M30.201 39.481C29.986 39.482 29.888 39.548 29.775 39.612C29.664 39.676 29.326 39.676 29.309 39.676C29.294 39.676 28.152 39.692 27.637 39.579C27.121 39.466 26.655 39.064 26.623 38.341C26.591 37.616 26.574 37.536 26.574 37.536"/>
 <path stroke-width="0.13" d="M26.012 37.616C26.012 37.616 26.012 39.21 26.236 39.548C26.463 39.884 27.138 40.11 27.684 40.127C28.231 40.143 29.39 40.158 29.39 40.174C29.39 40.191 29.31 40.372 30.155 40.289"/>
 <line stroke-width="0.13" x1="29.39" y1="40.174" x2="29.388" y2="39.674"/>
 <line stroke-width="0.13" x1="31.559" y1="40.362" x2="31.547" y2="39.551"/>
 <path stroke-width="0.13" d="M27.858 38.832C27.411 38.759 26.945 38.421 26.913 38.115C26.881 37.81 27.153 37.585 26.574 37.536C25.995 37.488 25.289 37.478 25.289 37.478"/>
 <path stroke-width="0.13" d="M24.65 36.722C24.65 36.722 26.318 36.683 26.64 36.765C26.96 36.844 27.492 36.796 27.524 37.295C27.556 37.793 27.798 37.878 27.878 37.86"/>
 <line stroke-width="0.13" x1="31.885" y1="37.926" x2="31.853" y2="38.896"/>
 <line stroke-width="0.13" x1="22.274" y1="39.128" x2="26.012" y2="39.177"/>
 <line stroke-width="0.13" x1="26.987" y1="39.231" x2="31.16" y2="39.231"/>
 <line stroke-width="0.13" x1="29.274" y1="37.889" x2="30.355" y2="36.844"/>
 <path stroke-width="0.13" d="M29.888 37.103C29.792 36.796 29.664 35.509 30.597 35.155C31.53 34.801 32.301 34.801 32.301 34.801C32.301 34.801 38.222 34.174 39.975 35.365C40.179 35.503 40.396 35.651 40.621 35.805"/>
 <path stroke-width="0.13" d="M43.537 38.326C44.094 39.021 44.472 39.78 44.494 40.593C44.496 40.634 44.497 40.676 44.5 40.719"/>
 <path stroke-width="0.13" d="M44.598 42C44.64 42.412 44.694 42.859 44.75 43.317"/>
 <path stroke-width="0.13" d="M44.893 44.393C44.978 45.006 45.067 45.615 45.152 46.17"/>
 <path stroke-width="0.13" d="M45.203 46.499C45.265 46.902 45.323 47.27 45.372 47.581"/>
 <path stroke-width="0.13" d="M45.433 47.96C45.5 48.362 45.54 48.603 45.54 48.603"/>
 <path stroke-width="0.13" d="M44.304 46.939L44.43 47.107L44.801 47.22C44.801 47.22 44.978 47.558 44.817 47.735C44.655 47.912 44.43 47.768 44.399 47.752C44.366 47.735 44.082 47.718 44.082 47.718"/>
 <path stroke-width="0.13" d="M45.243 41.533C45.332 41.953 45.329 42.569 45.249 43.148C45.164 43.744 44.993 44.301 44.774 44.581C44.533 44.889 44.165 45.06 43.792 45.098C43.415 45.137 43.037 45.037 42.784 44.823L42.646 44.703C42.351 44.442 41.779 43.932 41.2 43.631C40.973 43.515 40.749 43.429 40.542 43.412C40.377 43.401 40.225 43.436 40.106 43.557C40.051 43.615 40.003 43.688 39.96 43.779C39.874 43.966 39.826 44.14 39.81 44.301C39.792 44.475 39.814 44.631 39.866 44.768C39.917 44.905 39.997 45.023 40.094 45.121C40.24 45.265 40.42 45.368 40.603 45.426C40.777 45.481 40.953 45.497 41.098 45.466C41.868 45.295 43.082 45.146 43.646 45.418C43.984 45.582 44.253 45.671 44.396 45.713C44.457 45.729 44.496 45.738 44.496 45.738"/>
 <path stroke-width="0.13" d="M44.789 41.631C44.869 42.008 44.862 42.563 44.789 43.082C44.718 43.585 44.593 44.06 44.408 44.295C44.246 44.502 43.996 44.61 43.746 44.637C43.499 44.662 43.25 44.609 43.085 44.469L43.088 44.472L42.953 44.353L42.954 44.354C42.713 44.143 42.295 43.774 41.835 43.47"/>
 <path stroke-width="0.13" d="M40.261 42.966C40.081 43.003 39.917 43.088 39.776 43.231C39.686 43.323 39.606 43.439 39.539 43.585C39.427 43.826 39.368 44.049 39.347 44.256C39.323 44.508 39.356 44.734 39.432 44.932C39.506 45.133 39.624 45.304 39.765 45.448C39.963 45.646 40.21 45.789 40.462 45.868C40.72 45.951 40.982 45.966 41.2 45.918C41.878 45.768 42.947 45.595 43.445 45.837C43.814 46.017 44.11 46.113 44.267 46.158C44.345 46.18 44.396 46.192 44.396 46.192"/>
 <path stroke-width="0.13" d="M44.396 45.713C44.655 45.886 44.57 46.146 44.396 46.192"/>
 <path stroke-width="0.13" d="M44.523 45.841C44.993 46.046 45.67 46.448 45.99 46.835"/>
 <path stroke-width="0.13" d="M44.533 46.145C45.003 46.35 45.679 46.753 46.002 47.139"/>
 <path stroke-width="0.13" d="M44.868 47.405C45.139 47.526 46.265 47.783 46.506 48.265"/>
 <path stroke-width="0.13" d="M44.729 47.713C44.796 47.741 44.908 47.78 45.046 47.826C45.329 47.918 45.743 48.049 46.024 48.241C46.101 48.295 46.17 48.348 46.204 48.417"/>
 <path stroke-width="0.13" d="M30.998 38.969C30.998 38.969 32.207 39.36 32.494 39.482C32.783 39.606 33.042 39.402 33.137 39.225C33.234 39.048 33.267 38.984 33.267 38.984"/>
 <path stroke-width="0.13" d="M33.61 37.875C33.814 37.439 33.975 37.536 34.216 37.633"/>
 <path stroke-width="0.13" d="M35.472 38.167C35.985 38.421 37.24 38.662 37.948 38.695C38.655 38.726 39.021 39 39.021 39"/>
 <path stroke-width="0.13" d="M40.136 39.709C40.585 39.981 41.514 41.848 41.557 42.475C41.557 42.475 41.557 42.496 41.558 42.506"/>
 <path stroke-width="0.13" d="M41.661 43.911C41.695 44.356 41.732 44.856 41.77 45.344"/>
 <path stroke-width="0.13" d="M41.804 45.802C41.816 45.957 41.826 46.109 41.838 46.256"/>
 <path stroke-width="0.13" d="M41.902 47.115C41.933 47.523 41.954 47.783 41.954 47.783L40.408 47.945C40.408 47.945 40.369 47.371 40.323 46.689"/>
 <path stroke-width="0.13" d="M40.222 45.231C40.151 44.195 40.106 43.557 40.106 43.557"/>
 <path stroke-width="0.13" d="M12.782 34.215C12.864 33.99 13.477 33.744 14.214 33.765C14.949 33.784 35.078 33.969 35.078 33.969C35.078 33.969 35.978 34.051 35.957 34.481"/>
 <path stroke-width="0.13" d="M11.74 31.234C12.577 31.597 12.614 32.354 12.237 34"/>
 <path stroke-width="0.13" d="M12.435 32.941C12.435 32.941 28.021 33.253 29.678 33.151C31.335 33.048 33.195 31.882 33.932 31.474C34.668 31.065 36.673 30.983 37.246 31.106C37.819 31.228 38.411 31.76 38.432 31.76"/>
 <path stroke-width="0.13" d="M11.146 29.204C11.82 29.714 12.433 30.431 13.865 30.451C15.298 30.472 24.564 30.533 24.564 30.533C24.564 30.533 28.103 30.513 28.655 30.533C29.207 30.553 30.21 30.164 30.783 29.632C31.355 29.1 33.953 27.669 35.118 27.629C36.284 27.588 36.857 27.669 36.857 27.669"/>
 <path stroke-width="0.25" d="M15.237 21.123L15.134 28.754C15.134 28.754 15.646 29.326 15.952 29.469C16.26 29.612 17.323 29.55 17.323 29.55C17.323 29.55 27.939 29.673 28.368 29.612C28.798 29.55 29.596 29.121 29.841 28.957C30.086 28.794 30.434 28.487 30.536 28.263C30.638 28.038 30.803 25.705 30.803 25.705"/>
 <line stroke-width="0.13" x1="15.237" y1="21.736" x2="30.169" y2="21.777"/>
 <line stroke-width="0.13" x1="15.298" y1="22.902" x2="30.004" y2="22.923"/>
 <line stroke-width="0.13" x1="23.01" y1="21.759" x2="23.091" y2="22.914"/>
 <line stroke-width="0.13" x1="21.638" y1="21.754" x2="21.762" y2="22.911"/>
 <line stroke-width="0.25" x1="22.498" y1="22.913" x2="22.231" y2="29.6"/>
 <line stroke-width="0.13" x1="21.986" y1="29.469" x2="21.823" y2="24.785"/>
 <line stroke-width="0.13" x1="21.823" y1="24.785" x2="22.17" y2="22.913"/>
 <line stroke-width="0.25" x1="21.823" y1="24.785" x2="15.278" y2="24.826"/>
 <line stroke-width="0.25" x1="22.422" y1="24.824" x2="29.617" y2="24.928"/>
 <line stroke-width="0.13" x1="29.617" y1="24.928" x2="30.169" y2="22.923"/>
 <line stroke-width="0.13" x1="29.167" y1="24.922" x2="29.207" y2="28.856"/>
 <line stroke-width="0.13" x1="30.925" y1="25.582" x2="30.864" y2="21.777"/>
 <line stroke-width="0.13" x1="30.864" y1="21.777" x2="30.169" y2="21.777"/>
 <line stroke-width="0.13" x1="22.17" y1="22.913" x2="21.972" y2="29.08"/>
 <line stroke-width="0.13" x1="15.503" y1="21.021" x2="34.444" y2="21.164"/>
 <path stroke-width="0.13" d="M13.396 21.614C13.621 21.286 13.968 21.143 14.214 21.225C14.458 21.307 14.521 21.859 14.521 22.371C14.521 22.882 14.458 23.599 14.458 23.599C14.458 23.599 14.419 23.742 14.07 23.722C13.723 23.701 13.599 23.599 13.621 23.475C13.641 23.353 13.599 21.696 13.599 21.696"/>
 <path stroke-width="0.13" d="M12.025 22.371C12.045 22.003 12.311 21.942 12.537 21.922C12.762 21.9 13.028 22.085 13.17 22.576C13.314 23.067 13.702 24.457 13.682 24.457C13.662 24.457 13.58 24.785 13.253 24.765C12.925 24.743 12.864 24.724 12.864 24.724L12.598 23.312C12.598 23.312 12.271 22.268 12.025 22.371z"/>
 <line stroke-width="0.13" x1="14.868" y1="20.652" x2="11.862" y2="20.632"/>
 <line stroke-width="0.13" x1="11.862" y1="20.632" x2="11.84" y2="22.411"/>
 <line stroke-width="0.13" x1="11.84" y1="22.411" x2="12.025" y2="22.371"/>
 <line stroke-width="0.13" x1="13.105" y1="22.393" x2="13.615" y2="22.39"/>
 <line stroke-width="0.13" x1="14.521" y1="22.371" x2="15.032" y2="22.35"/>
 <line stroke-width="0.13" x1="15.114" y1="20.693" x2="14.516" y2="22.167"/>
 <path stroke-width="0.13" d="M13.006 25.071C13.006 25.807 13.069 28.528 13.17 28.917C13.272 29.306 13.519 29.571 13.682 28.548C13.846 27.525 13.682 25.788 13.682 25.788"/>
 <line stroke-width="0.13" x1="14.419" y1="23.925" x2="14.622" y2="28.548"/>
 <line stroke-width="0.13" x1="14.622" y1="28.548" x2="15.134" y2="28.754"/>
 <line stroke-width="0.13" x1="11.708" y1="29.653" x2="11.84" y2="22.411"/>
 <line stroke-width="0.25" x1="34.963" y1="27.64" x2="34.963" y2="20.591"/>
 <path stroke-width="0.25" d="M34.963 20.591C37.061 20.55 40.109 20.428 40.109 22.126C40.109 23.824 40.09 23.905 40.09 23.905"/>
 <path stroke-width="0.13" d="M40.908 19.794C42.197 19.835 44.098 20.836 44.057 22.432"/>
 <line stroke-width="0.25" x1="34.963" y1="26.83" x2="36.203" y2="26.83"/>
 <path stroke-width="0.25" d="M35.582 26.83C35.774 26.544 36.408 26.155 37.103 26.359C37.798 26.565 38.883 27.239 38.984 27.3"/>
 <g>
  <path stroke-width="0.25" d="M36.203 26.83C36.408 26.707 37.47 26.809 37.92 27.117"/>
  <path stroke-width="0.35" d="M37.92 27.117C38.371 27.423 38.698 28.057 39.25 28.16C39.802 28.263 40.518 28.507 40.518 28.507"/>
 </g>
 <path stroke-width="0.13" d="M38.984 27.3C39.271 27.525 40.375 27.975 40.723 27.955"/>
 <path stroke-width="0.35" d="M38.732 27.149L38.453 25.562C38.453 25.562 38.74 24.6 39.517 24.335C40.293 24.068 51.973 19.978 51.973 19.978L57.189 18.178C57.189 18.178 58.051 17.946 58.164 18.579C58.279 19.214 58.313 20.132 58.313 20.132C58.313 20.132 60.509 20.178 60.509 20.201C60.509 20.222 61.655 20.993 61.655 20.993C61.655 20.993 64 20.777 64.01 20.777C64.022 20.777 64.17 20.506 64.51 20.46C64.849 20.416 64.894 20.777 64.894 21.073C64.894 21.367 64.804 21.571 64.555 21.684C64.305 21.798 64.237 22.16 64.237 22.16C64.237 22.16 63.716 23.361 63.851 24.765C63.987 26.17 64.396 30.091 64.396 30.091C64.396 30.091 64.801 29.969 64.831 30.253C64.864 30.536 64.628 30.818 64.628 30.818C64.628 30.818 65.037 33.918 64.989 34.155C64.942 34.39 63.715 35.005 63.588 35.146C63.463 35.287 63.526 34.926 63.588 35.618C63.652 36.31 63.81 36.767 63.305 36.752C62.802 36.735 61.731 36.829 61.716 36.829C61.701 36.829 61.448 37.6 61.433 37.743C61.417 37.884 61.292 38.593 61.292 38.593C61.292 38.593 59.703 38.64 58.963 38.451C58.222 38.262 57.814 38.011 57.814 38.011C57.814 38.011 55.076 38.435 53.503 38.655C51.929 38.875 51.646 39.002 51.646 39.002C51.646 39.002 50.395 39.341 49.948 39.353C49.502 39.363 49.033 39.363 48.838 39.043C48.643 38.722 48.094 37.932 47.499 37.795C46.904 37.658 46.652 37.665 46.652 37.665L45.682 37.683C45.682 37.683 43.447 38.356 43.423 38.356C43.401 38.356 42.828 38.448 42.804 38.448C42.783 38.448 42.645 37.921 42.645 37.921L41.683 38.197L40.905 38.104L40.286 33.091"/>
 <path stroke-width="0.35" d="M40.286 33.091C40.286 33.091 39.027 32.06 38.912 31.923C38.798 31.786 38.363 31.832 39.118 30.756C39.875 29.679 42.508 25.26 42.508 25.26"/>
 <path stroke-width="0.13" d="M40.286 33.091C40.286 33.091 44.082 32.116 46.258 31.559"/>
 <path stroke-width="0.13" d="M47.514 31.236C48.768 30.914 49.033 30.847 49.033 30.847C49.033 30.847 49.536 30.64 49.787 30.411C50.039 30.182 50.177 29.931 50.177 29.931"/>
 <path stroke-width="0.13" d="M39.438 32.387L48.597 29.839L53.451 21.551"/>
 <path stroke-width="0.13" d="M46.216 31.533C46.148 31.464 45.506 30.984 45.942 30.893C46.377 30.801 46.674 30.594 46.881 30.733C47.087 30.87 47.567 31.282 47.567 31.282"/>
 <line stroke-width="0.13" x1="39.325" y1="30.893" x2="47.887" y2="28.42"/>
 <line stroke-width="0.13" x1="47.887" y1="28.42" x2="52.215" y2="21.14"/>
 <line stroke-width="0.13" x1="49.787" y1="29.451" x2="53.566" y2="22.65"/>
 <path stroke-width="0.13" d="M53.566 22.65C54.276 22.49 55.122 22.306 55.351 22.49C55.581 22.673 55.832 22.879 55.832 22.879L57.503 22.536"/>
 <path stroke-width="0.13" d="M43.401 24.092C43.401 24.092 56.634 19.468 57 19.399C57.366 19.33 57.527 19.468 57.549 19.812C57.573 20.155 58.191 29.954 58.237 30.344C58.283 30.733 57.527 31.672 57.228 31.832C56.932 31.992 56.268 32.084 55.856 32.22C55.444 32.357 47.223 34.167 46.789 34.235C46.353 34.304 45.576 33.868 45.323 33.526"/>
 <path stroke-width="0.13" d="M43.334 23.899L56.962 19.196C57.22 19.149 57.405 19.19 57.53 19.288C57.656 19.387 57.738 19.551 57.755 19.798L58.442 30.324C58.442 30.324 58.398 30.678 58.277 30.903C58.031 31.359 57.554 31.89 57.326 32.012C57.137 32.115 56.811 32.194 56.484 32.27C56.283 32.317 56.082 32.362 55.92 32.415L46.82 34.439C46.664 34.463 46.469 34.439 46.265 34.374C45.829 34.234 45.353 33.914 45.158 33.648"/>
 <line stroke-width="0.13" x1="40.927" y1="37.99" x2="45.164" y2="36.616"/>
 <line stroke-width="0.13" x1="45.164" y1="36.616" x2="44.728" y2="35.999"/>
 <line stroke-width="0.13" x1="44.728" y1="35.999" x2="44.43" y2="33.32"/>
 <line stroke-width="0.25" x1="46.148" y1="33.433" x2="40.286" y2="33.091"/>
 <line stroke-width="0.13" x1="41.82" y1="33.868" x2="41.957" y2="37.463"/>
 <line stroke-width="0.13" x1="43.195" y1="34.006" x2="43.423" y2="36.892"/>
 <path stroke-width="0.13" d="M46.148 33.433C46.652 33.479 48.597 33.32 49.743 33.045C50.887 32.77 53.909 32.198 54.183 32.106C54.459 32.015 55.466 31.487 55.534 31.076C55.603 30.664 55.969 22.971 55.969 22.971"/>
 <path stroke-width="0.13" d="M49.787 29.451C49.811 29.611 49.972 29.794 50.384 29.794C50.795 29.794 54.115 29.794 54.161 29.794C54.207 29.794 54.551 29.725 54.595 30.022"/>
 <line stroke-width="0.13" x1="55.192" y1="22.833" x2="54.618" y2="29.335"/>
 <path stroke-width="0.13" d="M55.993 27.596C56.427 27.55 57.023 27.801 57.069 28.236C57.115 28.672 57.344 30.457 57.137 30.71C56.932 30.961 56.542 31.099 56.542 31.099L56.52 30.457C56.52 30.457 56.314 30.434 56.222 30.457C56.13 30.481 55.993 30.434 55.993 30.434"/>
 <path stroke-width="0.13" d="M57.115 19.972C56.359 20.269 54.688 21.437 54.505 21.757C54.322 22.077 54.322 22.077 54.322 22.077"/>
 <path stroke-width="0.25" d="M52.215 21.14C52.468 20.939 52.649 20.864 53.451 21.551C54.253 22.239 54.436 22.472 54.436 22.472"/>
 <path stroke-width="0.13" d="M41.786 24.408C41.786 24.408 40.021 25.088 39.79 25.242C39.56 25.396 39.426 25.69 39.418 25.844C39.412 25.998 39.649 27.359 39.649 27.359"/>
 <path stroke-width="0.25" d="M43.512 24.214C43.512 24.214 43.262 24.054 43.185 24.06C43.107 24.068 42.061 24.414 42.042 24.426C42.024 24.44 41.947 24.568 41.947 24.74C41.947 24.914 41.883 24.99 41.883 24.99C41.883 24.99 41.375 24.92 41.009 25.736C40.645 26.55 40.03 27.431 40.856 27.998"/>
 <path stroke-width="0.13" d="M42.222 25.737C41.978 25.696 41.862 25.748 41.767 25.922C41.67 26.094 41.267 26.826 41.234 26.954C41.203 27.082 41.136 27.222 41.262 27.332"/>
 <path stroke-width="0.13" d="M43.406 24.152C43.057 24.144 42.762 24.304 42.716 24.53C42.671 24.754 42.671 25.024 42.671 25.024L42.508 25.26"/>
 <line stroke-width="0.13" x1="43.512" y1="24.214" x2="52.215" y2="21.14"/>
 <path stroke-width="0.13" d="M47.887 28.42C47.579 28.705 47.554 29.425 48.426 29.809"/>
 <g>
  <path stroke-width="0.13" d="M48.554 29.271C48.695 29.161 48.695 28.925 48.554 28.739C48.411 28.556 48.182 28.495 48.042 28.603C47.901 28.711 47.901 28.949 48.042 29.134C48.185 29.318 48.414 29.379 48.554 29.271"/>
 </g>
 <g>
  <path stroke-width="0.13" d="M52.917 21.981C53.058 21.873 53.057 21.637 52.917 21.452C52.774 21.268 52.545 21.207 52.404 21.315C52.262 21.423 52.264 21.661 52.405 21.844C52.546 22.03 52.777 22.091 52.917 21.981"/>
 </g>
 <line stroke-width="0.13" x1="48.759" y1="30.065" x2="49.42" y2="30.66"/>
 <path stroke-width="0.35" d="M37.716 27.1C37.42 27.297 36.728 27.742 36.844 28.17C36.959 28.597 37.404 28.763 37.914 28.763C38.424 28.763 37.898 29.817 38.128 30.03C38.359 30.245 39.722 29.832 39.722 29.832"/>
 <line stroke-width="0.13" x1="39.874" y1="29.224" x2="38.557" y2="29.454"/>
 <line stroke-width="0.13" x1="34.963" y1="20.591" x2="15.272" y2="20.512"/>
 <line stroke-width="0.13" x1="15.237" y1="21.123" x2="15.252" y2="19.443"/>
 <line stroke-width="0.13" x1="10.596" y1="19.402" x2="40.908" y2="19.794"/>
 <path stroke-width="0.13" d="M25.667 36.713L25.602 35.912C25.602 35.912 25.734 35.564 26.085 35.546C26.434 35.53 29.16 35.581 29.176 35.581C29.193 35.581 29.524 35.561 29.675 35.979C29.826 36.398 29.675 37.408 29.675 37.408"/>
 <path stroke-width="0.13" d="M14.583 35.825C14.73 35.697 15.394 35.564 15.827 35.564C16.26 35.564 22.826 35.581 22.826 35.581C22.826 35.581 23.059 35.564 23.126 35.979C23.192 36.395 23.175 36.545 23.175 36.545"/>
 <path stroke-width="0.13" d="M17.751 35.567C17.705 35.231 18.187 35.182 18.471 35.182C18.753 35.182 20.399 35.131 20.399 35.131C20.399 35.131 20.771 35.155 20.768 35.576"/>
 <path stroke-width="0.13" d="M57.814 38.011C56.832 37.621 55.533 36.322 55.341 35.119C55.149 33.917 54.957 33.292 54.957 33.292L48.561 34.567C48.561 34.567 48.177 36.707 48.826 37.884C49.475 39.063 50.478 39.078 51.286 39.094"/>
 <path stroke-width="0.13" d="M48.072 38.112C47.6 37.332 47.67 35.253 47.625 34.664"/>
 <path stroke-width="0.13" d="M56.399 33.173C56.615 33.893 57.625 36.682 58.442 37.091"/>
 <path stroke-width="0.13" d="M57.601 34.542C57.914 35.143 58.49 35.625 58.972 35.576C59.453 35.529 59.573 35.529 59.597 35.529C59.621 35.529 59.645 35.962 59.645 35.962C59.645 35.962 59.909 36.322 60.534 36.298"/>
 <path stroke-width="0.13" d="M58.972 36.755C59.381 36.947 60.173 36.899 60.198 36.899C60.222 36.899 60.631 36.899 60.606 37.451C60.582 38.005 60.27 38.005 60.078 37.789"/>
 <path stroke-width="0.13" d="M56.591 32.787C57.53 32.619 58.996 31.538 59.164 31.056C59.332 30.576 58.996 25.143 58.996 25.143C58.996 25.143 58.587 24.567 58.563 24.062"/>
 <path stroke-width="0.13" d="M58.106 32.38C58.875 32.067 60.655 31.85 61.136 31.875"/>
 <line stroke-width="0.13" x1="59.476" y1="24.926" x2="63.323" y2="24.926"/>
 <line stroke-width="0.13" x1="60.582" y1="30.745" x2="64.628" y2="30.818"/>
 <line stroke-width="0.13" x1="64.093" y1="21.609" x2="61.784" y2="22.042"/>
 <line stroke-width="0.13" x1="61.784" y1="22.042" x2="59.957" y2="21.705"/>
 <line stroke-width="0.13" x1="59.957" y1="21.705" x2="64.141" y2="21.225"/>
 <line stroke-width="0.13" x1="58.563" y1="24.062" x2="58.313" y2="20.132"/>
 <text transform="matrix(0 -1 1 0 69.853 48.359)" stroke="none" fill="#000000" font-family="'Arial'" font-size="2.117">304 995</text>
 <path stroke-width="0.13" d="M66.003 14.117C66.129 14.08 66.272 14.064 66.409 14.074"/>
 <path stroke-width="0.13" d="M66.912 14.343C66.971 14.467 66.969 14.634 66.87 14.856"/>
 <line stroke-width="0.13" x1="59.822" y1="19.083" x2="59.822" y2="20.178"/>
 <line stroke-width="0.13" x1="59.822" y1="19.083" x2="58.225" y2="19.083"/>
 <line stroke-width="0.13" x1="54.631" y1="19.083" x2="9.573" y2="19.083"/>
 <line stroke-width="0.13" x1="8.208" y1="16.873" x2="59.942" y2="17.368"/>
 <g>
  <path stroke-width="0.13" d="M24.914 17.728C24.914 17.55 24.771 17.405 24.593 17.405C24.416 17.405 24.271 17.55 24.271 17.728C24.271 17.905 24.416 18.048 24.593 18.048C24.771 18.048 24.914 17.905 24.914 17.728"/>
 </g>
 <g>
  <path stroke-width="0.13" d="M44.063 18.013C44.063 17.835 43.918 17.692 43.74 17.692C43.563 17.692 43.418 17.835 43.418 18.013C43.418 18.19 43.563 18.335 43.74 18.335C43.918 18.335 44.063 18.19 44.063 18.013"/>
 </g>
 <g>
  <path stroke-width="0.13" d="M46.128 18.03C46.128 17.853 45.984 17.708 45.807 17.708C45.63 17.708 45.485 17.853 45.485 18.03C45.485 18.207 45.63 18.352 45.807 18.352C45.984 18.352 46.128 18.207 46.128 18.03"/>
 </g>
 <g>
  <path stroke-width="0.13" d="M53.137 18.158C53.137 17.981 52.993 17.836 52.817 17.836C52.639 17.836 52.494 17.981 52.494 18.158C52.494 18.335 52.639 18.48 52.817 18.48C52.993 18.48 53.137 18.335 53.137 18.158"/>
 </g>
 <path stroke-width="0.35" d="M71.275 14.772C71.275 14.772 69.12 14.188 67.409 13.724"/>
 <path stroke-width="0.35" d="M66.819 13.564C65.063 13.089 63.921 12.778 63.921 12.778C63.921 12.778 64.68 7.512 63.494 5.9C62.308 4.286 59.652 2.863 59.652 2.863C59.652 2.863 52.252 1.25 45.325 1.203C38.399 1.155 38.399 1.155 38.399 1.155"/>
 <line stroke-width="0.13" x1="66.87" y1="14.856" x2="61.646" y2="20.987"/>
 <line stroke-width="0.13" x1="66.003" y1="14.117" x2="60.698" y2="20.341"/>
 <line stroke-width="0.13" x1="71.352" y1="8.827" x2="66.655" y2="14.663"/>
 <line stroke-width="0.13" x1="70.915" y1="8.475" x2="66.218" y2="14.31"/>
 <path stroke-width="0.13" d="M59.652 2.863C64.444 3.432 70.516 3.432 72.319 7.371"/>
 <path stroke-width="0.13" d="M72.557 2.911C69.805 1.819 63.921 0.634 61.027 0.35C58.134 0.065 58.134 0.065 58.134 0.065"/>
 <line stroke-width="0.13" x1="59.942" y1="17.368" x2="58.747" y2="3.516"/>
 <line stroke-width="0.13" x1="60.255" y1="4.367" x2="61.375" y2="18.931"/>
 <g>
  <path stroke-width="0.13" d="M10.659 17.786C10.659 17.609 10.515 17.464 10.337 17.464C10.16 17.464 10.016 17.609 10.016 17.786C10.016 17.963 10.16 18.108 10.337 18.108C10.515 18.108 10.659 17.963 10.659 17.786"/>
 </g>
 <line stroke-width="0.35" x1="56.597" y1="18.315" x2="56.073" y2="2.205"/>
 <line stroke-width="0.35" x1="57.765" y1="2.496" x2="56.966" y2="18.233"/>
 <path stroke-width="0.35" d="M57.54 6.905C57.54 6.905 57.838 6.735 58.04 6.78C58.243 6.828 58.259 7.046 58.259 7.278C58.259 7.512 58.243 7.573 58.088 7.559C57.932 7.543 57.508 7.556 57.508 7.556C57.508 7.556 57.542 8.787 57.917 9.3C58.289 9.813 58.274 9.813 58.289 9.813"/>
</svg>
