<?xml version="1.0" encoding="utf-8"?>
<!DOCTYPE svg PUBLIC "-//W3C//DTD SVG 1.1//EN" "http://www.w3.org/Graphics/SVG/1.1/DTD/svg11.dtd">
<!-- Generator: PTC Arbortext IsoDraw 7.3 -->
<svg id="Standard_x0020_layer" width="100%" height="100%" viewBox="0 0 72.504 51.838"
 xmlns="http://www.w3.org/2000/svg" xmlns:xlink="http://www.w3.org/1999/xlink"
 fill-rule="evenodd" clip-rule="evenodd" stroke="#000000" stroke-linecap="round" fill="none" xml:space="preserve">
 <g>
  <path stroke-width="0.2" d="M8.051 5.278C8.07 4.935 8.471 4.628 8.987 4.572C9.503 4.514 9.98 5.203 9.98 5.317"/>
  <path stroke-width="0.13" d="M8.051 5.278C8.394 5.698 9.541 5.756 9.98 5.317"/>
  <path stroke-width="0.13" d="M8.548 4.878C8.795 5.03 9.362 4.964 9.349 4.801"/>
  <g>
   <path stroke-width="0.3" d="M2.403 4.485C2.423 4.142 2.825 3.835 3.341 3.778"/>
   <path stroke-width="0.2" d="M3.341 3.778C3.857 3.722 4.333 4.41 4.333 4.524"/>
  </g>
  <path stroke-width="0.13" d="M2.403 4.485C2.748 4.905 3.895 4.964 4.333 4.524"/>
  <path stroke-width="0.13" d="M2.9 4.084C3.149 4.237 3.716 4.171 3.703 4.008"/>
  <path stroke-width="0.3" d="M15.602 1.653C15.622 1.308 16.024 1.002 16.539 0.946C17.056 0.889 17.533 1.577 17.533 1.69"/>
  <path stroke-width="0.13" d="M15.602 1.653C15.946 2.073 17.094 2.131 17.533 1.69"/>
  <path stroke-width="0.13" d="M16.1 1.252C16.349 1.405 16.914 1.338 16.902 1.175"/>
  <path stroke-width="0.3" d="M9.957 0.86C9.975 0.516 10.377 0.21 10.893 0.153C11.409 0.096 11.887 0.784 11.887 0.898"/>
  <path stroke-width="0.13" d="M9.957 0.86C10.301 1.281 11.446 1.338 11.887 0.898"/>
  <path stroke-width="0.13" d="M10.454 0.459C10.702 0.612 11.269 0.546 11.256 0.382"/>
  <path stroke-width="0.2" d="M18.385 7.062C18.405 6.719 18.806 6.413 19.321 6.355C19.838 6.299 20.315 6.987 20.315 7.1"/>
  <path stroke-width="0.13" d="M18.385 7.062C18.73 7.484 19.876 7.541 20.315 7.1"/>
  <path stroke-width="0.13" d="M18.882 6.661C19.131 6.814 19.698 6.748 19.684 6.585"/>
  <path stroke-width="0.3" d="M25.939 3.436C25.957 3.092 26.359 2.788 26.875 2.73C27.39 2.673 27.867 3.36 27.867 3.476"/>
  <path stroke-width="0.13" d="M25.939 3.436C26.283 3.858 27.428 3.915 27.867 3.476"/>
  <path stroke-width="0.13" d="M26.434 3.036C26.684 3.189 27.25 3.123 27.237 2.96"/>
  <line stroke-width="0.3" x1="9.977" y1="0.749" x2="3.443" y2="3.777"/>
  <line stroke-width="0.3" x1="11.73" y1="0.624" x2="15.753" y2="1.312"/>
  <line stroke-width="0.3" x1="17.507" y1="1.613" x2="26.1" y2="3.085"/>
  <line stroke-width="0.13" x1="3.262" y1="4.992" x2="18.745" y2="7.512"/>
  <line stroke-width="0.13" x1="20.751" y1="7.23" x2="28.053" y2="3.732"/>
  <path stroke-width="0.3" d="M2.452 4.299C1.956 4.459 1.956 5.048 1.956 5.346C1.956 5.647 2.064 5.719 2.064 5.719C2.064 5.719 2.076 6.402 2.196 6.461C2.315 6.522 2.532 6.581 2.496 6.557C2.459 6.533 2.568 8.236 2.568 8.236C2.568 8.236 2.64 8.403 3.142 8.428C3.647 8.451 4.03 8.475 4.03 8.475C4.03 8.475 4.006 11.568 4.006 11.532C4.006 11.496 5.9 11.881 5.9 11.881"/>
  <line stroke-width="0.13" x1="4.03" y1="8.475" x2="5.817" y2="8.74"/>
  <line stroke-width="0.13" x1="5.9" y1="11.881" x2="5.876" y2="8.871"/>
  <path stroke-width="0.13" d="M8.141 7.48C8.141 7.48 8.082 8.955 8.105 9.17C8.13 9.387 9.041 9.746 9.388 9.339"/>
  <line stroke-width="0.2" x1="2.496" y1="6.557" x2="18.704" y2="9.255"/>
  <line stroke-width="0.13" x1="2.472" y1="5.839" x2="18.643" y2="8.524"/>
  <path stroke-width="0.13" d="M2.472 5.839C2.267 5.791 2.124 5.706 2.124 5.706"/>
  <line stroke-width="0.13" x1="3.802" y1="8.259" x2="3.802" y2="6.777"/>
  <path stroke-width="0.2" d="M18.704 9.255C19.28 9.399 19.998 9.339 20.681 9.028"/>
  <path stroke-width="0.13" d="M18.643 8.524C19.256 8.583 20.047 8.583 20.658 8.307"/>
  <path stroke-width="0.13" d="M18.655 9.246C18.64 9.635 18.606 10.6 18.626 10.772C18.649 10.987 19.561 11.346 19.908 10.939"/>
  <line stroke-width="0.13" x1="20.306" y1="9.173" x2="20.306" y2="10.358"/>
  <line stroke-width="0.13" x1="20.658" y1="8.307" x2="28.265" y2="4.814"/>
  <line stroke-width="0.2" x1="20.681" y1="9.028" x2="27.887" y2="5.503"/>
  <path stroke-width="0.3" d="M27.818 3.346C28.248 3.442 28.466 3.398 28.449 3.94C28.431 4.482 28.431 4.621 28.379 4.674C28.327 4.727 28.327 4.727 28.327 4.727C28.327 4.727 28.327 4.892 28.327 5.051C28.327 5.208 28.114 5.392 27.887 5.503"/>
  <path stroke-width="0.3" d="M27.922 5.485C27.922 5.485 27.932 6.852 27.942 7.113C27.951 7.376 27.775 7.498 27.53 7.49C27.286 7.48 27.068 7.419 27.068 7.419L26.228 7.926L26.315 20.097"/>
  <line stroke-width="0.13" x1="27.068" y1="7.419" x2="27.068" y2="5.984"/>
  <line stroke-width="0.13" x1="20.076" y1="11.407" x2="20.396" y2="23.437"/>
  <line stroke-width="0.3" x1="5.9" y1="11.881" x2="6.038" y2="21.486"/>
  <path stroke-width="0.2" d="M6.038 21.486C5.551 21.737 5.876 22.911 6.019 23.056C6.163 23.201 6.742 23.454 6.742 23.454C6.742 23.454 6.759 24.175 6.724 24.14"/>
  <path stroke-width="0.13" d="M6.038 21.486C6.019 22.045 6.381 22.37 6.687 22.423C6.995 22.478 7.427 22.55 7.427 22.55"/>
  <path stroke-width="0.13" d="M6.796 22.568C7.211 22.839 10.551 23.309 11.128 23.399C11.707 23.489 15.534 24.175 17.05 24.283C18.567 24.391 21.492 24.265 22.339 23.832C23.189 23.399 26.655 21.829 26.853 21.666C27.051 21.504 27.213 21.214 27.213 21.161"/>
  <polyline stroke-width="0.13" points="7.421 22.766 7.421 21.323 16.689 22.713 16.689 23.777"/>
  <path stroke-width="0.13" d="M15.537 24.109C16.071 24.179 16.527 24.03 16.689 23.868C16.852 23.705 18.367 24.103 18.838 24.103C19.306 24.103 20.42 23.684 20.408 23.562C20.396 23.437 21.327 24.06 22.077 23.937"/>
  <path stroke-width="0.13" d="M21.111 22.568C21.437 22.786 22.068 22.64 22.339 22.533C22.611 22.423 26.835 20.439 26.835 20.439"/>
  <line stroke-width="0.13" x1="26.221" y1="20.222" x2="21.672" y2="22.333"/>
  <line stroke-width="0.13" x1="26.946" y1="21.577" x2="26.946" y2="20.528"/>
  <g>
   <path stroke-width="0.3" d="M26.727 22.695C27.431 22.28 27.484 21.99 27.484 21.666C27.484 21.341 27.637 20.673 26.946 20.528"/>
   <path stroke-width="0.13" d="M26.946 20.528C26.925 20.185 26.536 20.118 26.315 20.097"/>
  </g>
  <path stroke-width="0.2" d="M6.742 23.454C6.742 23.454 15.39 25.169 16.905 25.312C18.422 25.457 21.021 25.259 21.835 24.969C22.646 24.681 26.727 22.695 26.727 22.695"/>
  <path stroke-width="0.3" d="M6.74 24.065C6.74 24.387 7.051 24.658 7.232 24.762C7.413 24.864 7.413 24.864 7.413 24.864L7.464 28.911C7.464 28.911 7.439 29.184 7.865 29.274C8.291 29.364 8.874 29.454 8.861 29.454C8.848 29.454 8.913 30.425 8.9 30.76C8.887 31.097 9.119 31.562 9.766 31.873"/>
  <path stroke-width="0.3" d="M2.9 23.469C2.266 23.429 2.189 24.024 2.164 24.193C2.137 24.361 2.15 25.007 2.629 25.085"/>
  <g>
   <path stroke-width="0.13" d="M6.384 24C6.383 23.998 6.381 23.998 6.378 23.998C6.142 23.975 5.915 24.338 5.868 24.809C5.822 25.282 5.974 25.681 6.211 25.705"/>
  </g>
  <g>
   <path stroke-width="0.3" d="M5.939 25.989C6.089 26.007 6.24 25.91 6.365 25.736"/>
   <path stroke-width="0.13" d="M6.581 24.033C6.493 23.795 6.359 23.667 6.211 23.649"/>
   <path stroke-width="0.3" d="M6.211 23.649C6.049 23.631 5.887 23.745 5.756 23.945"/>
   <path stroke-width="0.13" d="M5.756 23.945C5.476 24.375 5.389 25.115 5.564 25.599"/>
   <path stroke-width="0.3" d="M5.564 25.599C5.653 25.841 5.788 25.972 5.939 25.989"/>
  </g>
  <path stroke="none" fill="#000000" d="M6.554 24.077C6.471 23.853 6.333 23.815 6.193 23.798L6.227 23.501C6.384 23.518 6.517 23.739 6.61 23.99L6.554 24.077z"/>
  <path stroke="none" fill="#000000" d="M5.798 24.056L5.716 23.832C5.557 24.076 5.496 24.411 5.458 24.748L5.522 24.756C5.552 24.495 5.674 24.243 5.798 24.056z"/>
  <path stroke="none" fill="#000000" d="M5.522 24.756L5.458 24.748C5.418 25.088 5.415 25.461 5.5 25.699L5.629 25.5C5.552 25.289 5.487 25.06 5.522 24.756z"/>
  <line stroke-width="0.3" x1="2.9" y1="23.469" x2="5.786" y2="23.9"/>
  <line stroke-width="0.13" x1="6.384" y1="24" x2="6.714" y2="24.056"/>
  <line stroke-width="0.3" x1="2.629" y1="25.085" x2="5.543" y2="25.532"/>
  <line stroke-width="0.3" x1="6.211" y1="25.705" x2="6.639" y2="25.791"/>
  <g>
   <polyline stroke-width="0.3" points="6.617 24.809 6.666 26.586"/>
   <polyline stroke-width="0.13" points="6.666 26.586 7.355 26.577"/>
  </g>
  <line stroke-width="0.3" x1="6.666" y1="26.586" x2="7.443" y2="27.228"/>
  <path stroke-width="0.3" d="M5.814 21.797C5.49 22.077 5.442 22.359 5.421 22.689C5.399 23.018 5.517 23.339 5.685 23.449C5.852 23.559 6.65 23.745 6.746 23.701"/>
  <path stroke-width="0.13" d="M8.89 30.199C9.173 30.768 9.72 31.175 11.221 31.594C12.721 32.014 15.631 32.2 17.201 32.176C18.771 32.152 19.05 32.362 19.237 32.386C19.423 32.408 20.272 32.514 20.621 32.292C20.87 32.136 21.289 31.943 21.51 31.844"/>
  <path stroke-width="0.13" d="M21.658 31.78L21.658 31.78z"/>
  <path stroke-width="0.13" d="M7.413 24.864C8.144 25.146 8.82 25.696 9.31 26.283"/>
  <path stroke-width="0.13" d="M9.897 27.178C10.031 27.458 10.101 27.719 10.092 27.929C10.057 28.778 9.801 29.291 9.708 29.419C9.615 29.547 9.182 29.51 8.861 29.454"/>
  <g>
   <path stroke-width="0.2" d="M13.711 31.361C13.893 31.283 14.021 31.126 14.08 30.936"/>
   <path stroke-width="0.13" d="M14.08 30.936C14.128 30.78 14.128 30.617 14.09 30.464"/>
   <path stroke-width="0.13" d="M13.589 29.847C13.205 29.678 12.803 29.864 12.678 30.263"/>
   <path stroke-width="0.2" d="M12.678 30.263C12.614 30.469 12.634 30.692 12.718 30.887C12.901 31.307 13.346 31.521 13.711 31.361"/>
  </g>
  <path stroke="none" fill="#000000" d="M13.996 30.894C14.038 30.76 14.069 30.609 14.035 30.475L14.146 30.454C14.189 30.623 14.218 30.803 14.164 30.975L13.996 30.894z"/>
  <path stroke="none" fill="#000000" d="M13.073 29.897L13.022 29.777C12.824 29.864 12.657 30.018 12.593 30.224L12.762 30.304C12.817 30.129 12.906 29.971 13.073 29.897z"/>
  <g>
   <path stroke-width="0.2" d="M13.938 31.228C14.119 31.149 14.247 30.992 14.307 30.801"/>
   <path stroke-width="0.13" d="M14.307 30.801C14.371 30.597 14.35 30.373 14.266 30.178C14.083 29.757 13.638 29.545 13.274 29.704C13.207 29.733 13.147 29.772 13.099 29.818"/>
   <path stroke-width="0.13" d="M13.885 31.248C13.903 31.242 13.923 31.234 13.938 31.228"/>
  </g>
  <path stroke="none" fill="#000000" d="M14.223 30.762C14.278 30.58 14.288 30.373 14.214 30.202L14.317 30.157C14.413 30.375 14.462 30.612 14.391 30.841L14.223 30.762z"/>
  <path stroke-width="0.13" d="M13.128 30.501C13.176 30.385 13.512 30.175 13.605 30.466C13.698 30.757 13.548 30.943 13.304 30.896"/>
  <g>
   <path stroke-width="0.13" d="M14.836 26.524C15.156 26.385 15.308 26.007 15.215 25.628"/>
   <path stroke-width="0.13" d="M14.714 25.01C14.526 24.928 14.335 24.929 14.173 25.001C13.808 25.158 13.662 25.629 13.845 26.05C14.028 26.471 14.471 26.682 14.836 26.524"/>
  </g>
  <g>
   <path stroke-width="0.13" d="M15.063 26.39C15.428 26.231 15.574 25.763 15.391 25.341C15.342 25.227 15.272 25.128 15.195 25.051"/>
   <path stroke-width="0.13" d="M14.333 24.899C14.294 24.923 14.256 24.951 14.226 24.98"/>
   <path stroke-width="0.13" d="M15.012 26.411C15.029 26.405 15.048 26.397 15.063 26.39"/>
  </g>
  <path stroke-width="0.13" d="M14.255 25.664C14.301 25.548 14.638 25.338 14.731 25.629C14.824 25.92 14.673 26.106 14.429 26.059"/>
  <g>
   <path stroke-width="0.13" d="M10.38 27.164C10.699 27.025 10.852 26.647 10.759 26.268"/>
   <path stroke-width="0.13" d="M10.257 25.649C10.07 25.568 9.878 25.57 9.717 25.64"/>
   <path stroke-width="0.2" d="M9.717 25.64C9.352 25.798 9.205 26.268 9.388 26.69C9.571 27.111 10.016 27.323 10.38 27.164"/>
  </g>
  <path stroke="none" fill="#000000" d="M10.242 25.708C10.069 25.632 9.906 25.667 9.756 25.731L9.676 25.548C9.85 25.472 10.071 25.501 10.274 25.591L10.242 25.708z"/>
  <path stroke="none" fill="#000000" d="M10.339 27.073L10.419 27.257C10.624 27.167 10.737 26.978 10.804 26.765L10.695 26.711C10.643 26.879 10.5 27.003 10.339 27.073z"/>
  <g>
   <path stroke-width="0.13" d="M10.606 27.03C10.971 26.871 11.118 26.402 10.936 25.981C10.752 25.561 10.307 25.347 9.943 25.507"/>
   <path stroke-width="0.2" d="M9.943 25.507C9.877 25.536 9.817 25.576 9.769 25.62"/>
   <path stroke-width="0.13" d="M10.554 27.05C10.573 27.045 10.592 27.038 10.606 27.03"/>
  </g>
  <path stroke="none" fill="#000000" d="M10.49 25.585C10.31 25.498 10.14 25.53 9.984 25.597L9.903 25.414C10.086 25.335 10.317 25.368 10.525 25.469L10.49 25.585z"/>
  <path stroke-width="0.13" d="M9.798 26.303C9.845 26.187 10.182 25.978 10.275 26.268C10.368 26.559 10.217 26.745 9.973 26.699"/>
  <path stroke-width="0.13" d="M7.171 24.368C8.474 24.649 9.284 25.841 9.374 25.995"/>
  <path stroke-width="0.2" d="M10.199 27.213C10.255 27.894 10.859 29.092 11.08 29.291C11.301 29.489 12.314 30.245 12.407 30.35C12.5 30.454 12.689 30.811 12.689 30.811"/>
  <path stroke-width="0.13" d="M10.371 28.256C10.394 28.919 10.255 29.594 10.08 29.873"/>
  <path stroke-width="0.13" d="M9.474 29.501C9.836 29.873 9.522 30.117 10.836 30.431C12.151 30.745 12.419 30.675 12.71 31.106C13 31.536 13.5 31.931 13.943 31.768C14.385 31.606 14.478 31.524 14.664 31.28C14.85 31.036 15.223 30.989 15.269 31.001C15.316 31.013 15.955 31.013 15.955 31.013"/>
  <path stroke-width="0.13" d="M15.432 25.964C15.327 26.463 15.42 27.219 15.503 27.591C15.583 27.964 15.49 28.64 15.327 28.964C15.164 29.291 14.317 30.103 14.333 30.686"/>
  <path stroke-width="0.13" d="M14.106 31.118C14.269 31.047 14.409 31.14 14.595 30.559C14.781 29.978 15.269 29.489 15.42 29.268C15.571 29.047 15.922 28.394 15.804 27.882C15.689 27.37 15.631 26.428 15.666 26.01C15.699 25.591 15.681 25.134 15.592 25.118"/>
  <path stroke-width="0.2" d="M10.359 25.405C10.801 25.405 11.234 24.852 11.675 24.672C12.115 24.492 12.275 24.521 12.275 24.521"/>
  <path stroke-width="0.13" d="M19.958 26.324C19.911 26.765 19.772 26.859 19.376 26.859C18.981 26.859 16.922 26.986 16.701 28.545C16.48 30.106 17.19 30.815 17.434 30.896"/>
  <path stroke-width="0.13" d="M19.818 26.033C19.655 26.289 19.004 26.3 18.643 26.3C18.283 26.3 16.071 27.05 15.827 28.129"/>
  <path stroke-width="0.13" d="M15.583 29.175C15.571 29.791 15.571 30.71 16.259 30.978"/>
  <polyline stroke-width="0.13" points="18.768 32.137 18.768 31.077 17.693 31.047"/>
  <g>
   <path stroke-width="0.13" d="M28.268 31.519C28.431 31.545 28.597 31.403 28.704 31.172"/>
   <path stroke-width="0.13" d="M28.771 30.394C28.716 30.205 28.609 30.096 28.486 30.077C28.257 30.042 28.021 30.336 27.961 30.734C27.9 31.134 28.039 31.484 28.268 31.519"/>
  </g>
  <g>
   <path stroke-width="0.3" d="M28.25 31.824C28.576 31.864 28.899 31.439 28.969 30.871C29.041 30.306 28.832 29.814 28.506 29.772"/>
   <path stroke-width="0.13" d="M28.506 29.772C28.178 29.731 27.856 30.158 27.786 30.725C27.716 31.291 27.923 31.783 28.25 31.824"/>
  </g>
  <path stroke="none" fill="#000000" d="M28.487 29.922C28.347 29.905 28.181 29.923 28.071 30.07L28.03 29.972C28.178 29.774 28.338 29.6 28.524 29.623L28.487 29.922z"/>
  <path stroke="none" fill="#000000" d="M27.9 31.428L27.836 31.513C27.932 31.742 28.071 31.951 28.231 31.972L28.268 31.675C28.126 31.657 27.986 31.629 27.9 31.428z"/>
  <g>
   <path stroke-width="0.13" d="M27.975 29.402C27.55 29.373 27.161 29.945 27.109 30.681C27.056 31.417 27.359 32.039 27.785 32.07"/>
  </g>
  <g>
   <path stroke-width="0.13" d="M26.542 29.213C26.115 29.182 25.728 29.754 25.675 30.492C25.643 30.946 25.745 31.356 25.931 31.614"/>
  </g>
  <line stroke-width="0.3" x1="26.085" y1="31.859" x2="27.785" y2="32.07"/>
  <line stroke-width="0.2" x1="26.541" y1="29.213" x2="27.975" y2="29.402"/>
  <g>
   <path stroke-width="0.3" d="M25.288 32.27C25.574 32.301 25.856 32.143 26.085 31.859"/>
   <path stroke-width="0.13" d="M26.489 29.213C26.474 29.17 26.457 29.128 26.442 29.094"/>
   <path stroke-width="0.2" d="M26.442 29.094C26.268 28.696 26.007 28.477 25.725 28.443"/>
   <path stroke-width="0.13" d="M25.725 28.443C25.414 28.408 25.108 28.599 24.865 28.934"/>
   <path stroke-width="0.13" d="M24.559 29.539C24.478 29.768 24.426 30.007 24.402 30.231C24.282 31.286 24.678 32.2 25.288 32.27"/>
  </g>
  <path stroke="none" fill="#000000" d="M25.713 28.544C25.425 28.51 25.128 28.657 24.9 28.963L24.859 28.867C25.111 28.527 25.416 28.307 25.736 28.344L25.713 28.544z"/>
  <path stroke="none" fill="#000000" d="M24.603 31.577L24.539 31.663C24.719 32.075 24.978 32.384 25.271 32.418L25.304 32.121C25.032 32.09 24.769 31.961 24.603 31.577z"/>
  <g>
   <path stroke-width="0.3" d="M24.946 32.289C25.048 32.301 25.152 32.292 25.243 32.262"/>
   <path stroke-width="0.2" d="M25.969 28.521C25.817 28.349 25.641 28.254 25.469 28.234"/>
   <path stroke-width="0.13" d="M25.469 28.234C25.161 28.196 24.856 28.364 24.606 28.67"/>
   <path stroke-width="0.13" d="M24.193 29.437C24.115 29.661 24.064 29.894 24.036 30.111C23.893 31.231 24.3 32.206 24.946 32.289"/>
  </g>
  <path stroke="none" fill="#000000" d="M25.455 28.335C25.164 28.297 24.864 28.429 24.626 28.719L24.588 28.618C24.85 28.297 25.16 28.094 25.481 28.135L25.455 28.335z"/>
  <path stroke="none" fill="#000000" d="M24.228 31.545L24.163 31.631C24.347 32.07 24.617 32.398 24.926 32.438L24.966 32.14C24.675 32.103 24.399 31.957 24.228 31.545z"/>
  <g>
   <path stroke-width="0.13" d="M21.861 27.769C21.214 27.687 20.574 28.527 20.429 29.646C20.286 30.765 20.693 31.739 21.338 31.824"/>
  </g>
  <line stroke-width="0.3" x1="21.338" y1="31.824" x2="24.946" y2="32.289"/>
  <line stroke-width="0.2" x1="21.861" y1="27.769" x2="25.469" y2="28.234"/>
  <g>
   <path stroke-width="0.13" d="M21.864 27.992C21.375 28.341 21.042 29.129 20.993 29.954"/>
   <path stroke-width="0.13" d="M21.001 30.428C21.068 31.198 21.399 31.731 21.83 31.856"/>
  </g>
  <g>
   <path stroke-width="0.13" d="M23.815 32.151C23.902 32.161 23.989 32.156 24.065 32.137"/>
   <path stroke-width="0.13" d="M23.757 28.263C23.268 28.611 22.932 29.399 22.882 30.228"/>
   <path stroke-width="0.13" d="M22.89 30.698C22.96 31.527 23.338 32.084 23.815 32.151"/>
  </g>
  <line stroke-width="0.13" x1="21.864" y1="27.992" x2="23.757" y2="28.263"/>
  <line stroke-width="0.13" x1="21.879" y1="28.12" x2="21.975" y2="28.539"/>
  <line stroke-width="0.13" x1="22.175" y1="28.672" x2="23.323" y2="28.843"/>
  <line stroke-width="0.13" x1="21.643" y1="29.887" x2="22.899" y2="30.03"/>
  <line stroke-width="0.13" x1="20.993" y1="29.954" x2="22.882" y2="30.228"/>
  <line stroke-width="0.13" x1="21.013" y1="30.428" x2="22.89" y2="30.698"/>
  <path stroke-width="0.13" d="M21.975 28.775C21.861 28.919 21.623 29.384 21.69 29.687"/>
  <path stroke-width="0.13" d="M21.652 30.579C21.699 30.884 21.823 31.111 21.89 31.131"/>
  <line stroke-width="0.13" x1="21.832" y1="31.737" x2="21.89" y2="31.234"/>
  <line stroke-width="0.13" x1="22.079" y1="31.178" x2="23.013" y2="31.314"/>
  <line stroke-width="0.2" x1="28.623" y1="29.809" x2="27.975" y2="29.402"/>
  <path stroke-width="0.3" d="M27.785 32.07C27.785 32.07 28.282 31.913 28.365 31.818"/>
  <path stroke-width="0.13" d="M24.743 30.24L24.743 30.239z"/>
  <g>
   <path stroke-width="0.13" d="M31.355 29.978C31.521 30.004 31.69 29.856 31.797 29.617"/>
   <path stroke-width="0.13" d="M31.846 28.82C31.788 28.65 31.687 28.553 31.574 28.536C31.343 28.501 31.108 28.795 31.047 29.195C30.986 29.593 31.125 29.945 31.355 29.978"/>
  </g>
  <g>
   <path stroke-width="0.3" d="M31.335 30.283C31.663 30.324 31.986 29.897 32.055 29.332C32.127 28.765 31.919 28.272 31.591 28.233"/>
   <path stroke-width="0.13" d="M31.591 28.233C31.265 28.192 30.943 28.617 30.871 29.184C30.801 29.75 31.009 30.242 31.335 30.283"/>
  </g>
  <path stroke="none" fill="#000000" d="M31.574 28.381C31.434 28.364 31.268 28.382 31.157 28.53L31.115 28.431C31.265 28.234 31.423 28.059 31.611 28.083L31.574 28.381z"/>
  <path stroke="none" fill="#000000" d="M30.986 29.888L30.923 29.972C31.018 30.201 31.157 30.411 31.318 30.431L31.355 30.134C31.213 30.117 31.071 30.088 30.986 29.888z"/>
  <g>
   <path stroke-width="0.13" d="M31.06 27.861C30.635 27.832 30.248 28.405 30.196 29.14C30.143 29.878 30.446 30.5 30.87 30.53"/>
  </g>
  <g>
   <path stroke-width="0.13" d="M29.628 27.673C29.202 27.641 28.815 28.214 28.762 28.951C28.73 29.405 28.832 29.815 29.018 30.074"/>
  </g>
  <line stroke-width="0.3" x1="29.172" y1="30.318" x2="30.87" y2="30.53"/>
  <line stroke-width="0.3" x1="29.626" y1="27.673" x2="31.06" y2="27.861"/>
  <g>
   <path stroke-width="0.13" d="M28.978 30.518C29.048 30.457 29.115 30.388 29.172 30.318"/>
   <path stroke-width="0.13" d="M29.574 27.673C29.559 27.629 29.542 27.588 29.527 27.553"/>
   <path stroke-width="0.3" d="M29.527 27.553C29.355 27.155 29.094 26.936 28.811 26.903"/>
   <path stroke-width="0.13" d="M28.811 26.903C28.5 26.867 28.193 27.057 27.952 27.393"/>
   <path stroke-width="0.13" d="M27.644 27.998C27.492 28.434 27.44 28.91 27.478 29.338"/>
  </g>
  <path stroke="none" fill="#000000" d="M28.794 27.053C28.513 27.021 28.207 27.125 27.986 27.422L27.945 27.326C28.202 26.978 28.498 26.716 28.827 26.754L28.794 27.053z"/>
  <g>
   <path stroke-width="0.3" d="M29.056 26.981C28.902 26.809 28.728 26.714 28.554 26.695"/>
   <path stroke-width="0.13" d="M28.554 26.695C28.248 26.655 27.943 26.823 27.693 27.129"/>
   <path stroke-width="0.13" d="M27.28 27.896C27.121 28.355 27.068 28.847 27.106 29.288"/>
  </g>
  <path stroke="none" fill="#000000" d="M28.536 26.844C28.251 26.806 27.943 26.896 27.711 27.179L27.673 27.077C27.943 26.75 28.245 26.504 28.574 26.545L28.536 26.844z"/>
  <line stroke-width="0.3" x1="24.946" y1="26.23" x2="28.554" y2="26.695"/>
  <g>
   <path stroke-width="0.13" d="M27.117 30.605C27.129 30.602 27.141 30.6 27.152 30.597"/>
   <path stroke-width="0.13" d="M26.844 26.724C26.385 27.048 26.062 27.76 25.981 28.53"/>
  </g>
  <line stroke-width="0.13" x1="25.07" y1="26.489" x2="26.844" y2="26.722"/>
  <line stroke-width="0.13" x1="25.004" y1="26.629" x2="25.1" y2="27.045"/>
  <line stroke-width="0.13" x1="25.26" y1="27.131" x2="26.408" y2="27.301"/>
  <path stroke-width="0.13" d="M25.06 27.236C24.946 27.378 24.71 27.843 24.777 28.146"/>
  <line stroke-width="0.3" x1="31.71" y1="28.268" x2="31.06" y2="27.861"/>
  <path stroke-width="0.3" d="M30.87 30.53C30.87 30.53 31.367 30.373 31.452 30.277"/>
  <path stroke-width="0.13" d="M24.946 26.23C24.66 26.213 24.393 26.565 24.164 26.803C23.934 27.042 23.157 27.746 22.458 27.847"/>
  <path stroke-width="0.13" d="M24.897 26.65C24.536 27.175 23.724 27.961 23.329 27.96"/>
  <line stroke-width="0.3" x1="26.727" y1="22.695" x2="26.751" y2="26.461"/>
  <path stroke-width="0.3" d="M26.807 25.376C27.248 25.733 27.277 26.28 27.295 26.532"/>
  <path stroke-width="0.3" d="M9.766 31.873C9.766 31.873 10.051 45.286 10.026 45.954C10.003 46.621 10.25 47.561 11.089 48.054C11.931 48.548 12.079 48.548 12.079 48.548"/>
  <polyline stroke-width="0.3" points="12.079 48.548 12.153 50.947 16.849 51.688 21.792 50.921 21.94 48.5"/>
  <line stroke-width="0.13" x1="16.948" y1="51.317" x2="16.972" y2="49.563"/>
  <line stroke-width="0.13" x1="16.899" y1="33.094" x2="17.146" y2="48.469"/>
  <line stroke-width="0.13" x1="16.106" y1="33.107" x2="16.353" y2="48.481"/>
  <path stroke-width="0.13" d="M16.353 48.481C16.454 48.92 17.155 49.03 17.146 48.469"/>
  <g>
   <path stroke-width="0.2" d="M12.079 48.548C14.401 49.192 20.038 49.34 21.94 48.5"/>
   <path stroke-width="0.3" d="M21.94 48.5C22.954 48.128 23.522 47.189 23.522 46.35C23.522 45.509 23.67 44.643 23.67 44.643L23.844 43.976L23.815 32.151"/>
  </g>
  <path stroke-width="0.13" d="M10.275 32.137C11.509 32.706 15.092 33.38 16.106 33.107"/>
  <path stroke-width="0.13" d="M17.021 33.097C18.899 33.195 22.716 32.417 22.928 32.237"/>
  <path stroke-width="0.13" d="M22.41 32.656C22.41 32.656 22.41 34.881 22.335 35.103C22.262 35.326 22.114 36.091 22.088 36.191C22.064 36.289 22.353 47.115 22.31 47.734"/>
  <line stroke-width="0.13" x1="23.102" y1="32.78" x2="23.225" y2="44.076"/>
  <polyline stroke-width="0.13" points="10.868 32.484 10.868 35.03 11.313 36.091 11.56 47.634"/>
  <path stroke-width="0.13" d="M11.313 36.091C11.978 36.368 13.965 36.709 16.164 36.792"/>
  <path stroke-width="0.13" d="M16.958 36.811C18.85 36.828 20.797 36.631 22.123 36.03"/>
  <path stroke-width="0.13" d="M10.868 35.03C11.593 35.331 13.753 35.698 16.147 35.789"/>
  <path stroke-width="0.13" d="M16.943 35.81C18.882 35.831 20.887 35.651 22.344 35.097"/>
  <g>
   <path stroke-width="0.13" d="M11.179 13.595C11.89 13.282 12.134 12.278 11.727 11.352C11.317 10.425 10.412 9.926 9.702 10.24"/>
   <path stroke-width="0.2" d="M9.702 10.24C8.993 10.553 8.747 11.557 9.156 12.484C9.564 13.41 10.471 13.907 11.179 13.595"/>
  </g>
  <path stroke="none" fill="#000000" d="M10.814 10.387C10.432 10.178 10.06 10.192 9.743 10.332L9.662 10.148C10.003 9.999 10.432 10.05 10.84 10.275L10.814 10.387z"/>
  <path stroke="none" fill="#000000" d="M11.14 13.503L11.221 13.686C11.595 13.522 11.818 13.16 11.923 12.731L11.821 12.676C11.727 13.06 11.475 13.355 11.14 13.503z"/>
  <g>
   <path stroke-width="0.13" d="M11.711 13.614C12.057 13.439 12.291 13.117 12.399 12.727"/>
   <path stroke-width="0.13" d="M12.105 10.907C11.557 9.984 10.58 9.571 9.853 9.936"/>
   <path stroke-width="0.2" d="M9.853 9.936C9.544 10.092 9.323 10.368 9.205 10.699"/>
   <path stroke-width="0.2" d="M10.73 13.688C11.093 13.791 11.435 13.756 11.711 13.614"/>
  </g>
  <path stroke="none" fill="#000000" d="M11.111 10.028C10.669 9.816 10.247 9.849 9.899 10.025L9.808 9.848C10.179 9.66 10.662 9.688 11.131 9.914L11.111 10.028z"/>
  <path stroke="none" fill="#000000" d="M11.666 13.525L11.756 13.702C12.118 13.519 12.336 13.166 12.451 12.756L12.348 12.696C12.246 13.067 11.994 13.359 11.666 13.525z"/>
  <g>
   <path stroke-width="0.13" d="M12.298 13.349C12.451 13.271 12.583 13.164 12.683 13.044"/>
   <path stroke-width="0.13" d="M12.903 11.086C12.865 10.984 12.821 10.884 12.778 10.798C12.266 9.782 11.218 9.278 10.441 9.672"/>
  </g>
  <line stroke-width="0.2" x1="12.298" y1="13.349" x2="11.711" y2="13.614"/>
  <line stroke-width="0.2" x1="10.441" y1="9.672" x2="9.853" y2="9.936"/>
  <g>
   <path stroke-width="0.13" d="M14.727 14.201C15.436 13.888 15.681 12.884 15.272 11.958C14.865 11.032 13.958 10.534 13.249 10.846"/>
   <path stroke-width="0.2" d="M13.249 10.846C12.538 11.159 12.294 12.163 12.702 13.089C13.111 14.016 14.016 14.515 14.727 14.201"/>
  </g>
  <path stroke="none" fill="#000000" d="M14.359 10.993C13.978 10.785 13.605 10.798 13.288 10.938L13.208 10.755C13.548 10.605 13.978 10.657 14.387 10.881L14.359 10.993z"/>
  <path stroke="none" fill="#000000" d="M14.686 14.109L14.766 14.292C15.141 14.128 15.365 13.766 15.47 13.337L15.368 13.282C15.275 13.666 15.022 13.962 14.686 14.109z"/>
  <g>
   <path stroke-width="0.13" d="M15.257 14.221C15.772 13.961 16.039 13.375 16.013 12.704"/>
   <path stroke-width="0.13" d="M15.554 11.362C14.986 10.534 14.079 10.205 13.4 10.544"/>
   <path stroke-width="0.2" d="M13.4 10.544C13.09 10.699 12.871 10.974 12.752 11.307"/>
   <path stroke-width="0.2" d="M14.276 14.294C14.641 14.397 14.981 14.362 15.257 14.221"/>
  </g>
  <path stroke="none" fill="#000000" d="M14.657 10.635C14.215 10.423 13.794 10.455 13.445 10.632L13.355 10.454C13.727 10.266 14.208 10.294 14.679 10.522L14.657 10.635z"/>
  <path stroke="none" fill="#000000" d="M15.212 14.131L15.303 14.31C15.711 14.103 15.942 13.688 16.033 13.204L15.929 13.153C15.846 13.593 15.583 13.945 15.212 14.131z"/>
  <g>
   <path stroke-width="0.13" d="M15.846 13.955C16.623 13.561 16.838 12.42 16.324 11.404C15.811 10.39 14.766 9.884 13.987 10.278"/>
  </g>
  <line stroke-width="0.2" x1="15.846" y1="13.955" x2="15.257" y2="14.221"/>
  <line stroke-width="0.2" x1="13.987" y1="10.278" x2="13.4" y2="10.542"/>
  <g>
   <path stroke-width="0.3" d="M44.679 2.718C44.893 2.232 44.921 2.032 45.35 1.99C45.779 1.947 46.078 1.99 46.234 2.132C46.392 2.274 46.621 2.602 46.534 2.702"/>
   <path stroke-width="0.13" d="M46.534 2.702C46.149 2.874 44.993 2.874 44.679 2.718"/>
  </g>
  <g>
   <path stroke-width="0.3" d="M53.014 1.455C53.228 0.969 53.256 0.77 53.685 0.727C54.112 0.684 54.411 0.727 54.569 0.869C54.725 1.012 54.954 1.34 54.868 1.439"/>
   <path stroke-width="0.13" d="M54.868 1.439C54.484 1.612 53.328 1.612 53.014 1.455"/>
  </g>
  <g>
   <path stroke-width="0.2" d="M55.076 3.671C55.289 3.185 55.319 2.985 55.746 2.943C56.174 2.9 56.475 2.943 56.631 3.085C56.789 3.229 57.017 3.556 56.93 3.657"/>
   <path stroke-width="0.13" d="M56.93 3.657C56.545 3.827 55.39 3.827 55.076 3.671"/>
  </g>
  <g>
   <path stroke-width="0.3" d="M63.409 2.407C63.624 1.923 63.652 1.722 64.081 1.68C64.509 1.637 64.808 1.68 64.965 1.823C65.123 1.966 65.35 2.294 65.265 2.394"/>
   <path stroke-width="0.13" d="M65.265 2.394C64.879 2.565 63.723 2.565 63.409 2.407"/>
  </g>
  <g>
   <path stroke-width="0.2" d="M60.744 4.214C60.959 3.73 60.987 3.53 61.414 3.488C61.843 3.444 62.143 3.488 62.299 3.629C62.457 3.773 62.685 4.1 62.6 4.2"/>
   <path stroke-width="0.13" d="M62.6 4.2C62.213 4.371 61.058 4.371 60.744 4.214"/>
  </g>
  <g>
   <path stroke-width="0.3" d="M69.078 2.952C69.293 2.467 69.32 2.266 69.748 2.225C70.177 2.181 70.477 2.225 70.634 2.367C70.79 2.509 71.019 2.838 70.933 2.937"/>
   <path stroke-width="0.13" d="M70.933 2.937C70.548 3.108 69.393 3.108 69.078 2.952"/>
  </g>
  <line stroke-width="0.3" x1="46.411" y1="2.334" x2="53.07" y2="1.324"/>
  <line stroke-width="0.3" x1="54.871" y1="1.296" x2="63.552" y2="2.079"/>
  <line stroke-width="0.3" x1="65.248" y1="2.205" x2="69.254" y2="2.555"/>
  <path stroke-width="0.3" d="M70.99 2.729C70.99 2.729 71.346 2.551 71.379 3.181C71.412 3.812 71.346 3.972 71.298 4.022C71.25 4.07 71.298 4.652 71.04 4.782L70.781 4.862C70.781 4.862 70.846 6.591 70.846 6.575C70.846 6.56 70.99 7.076 69.811 6.9"/>
  <polyline stroke-width="0.3" points="69.989 6.802 67.515 7.304 67.515 8.58"/>
  <line stroke-width="0.2" x1="67.515" y1="7.304" x2="62.374" y2="8.112"/>
  <path stroke-width="0.2" d="M62.374 8.112C61.841 8.387 60.887 8.224 60.774 8.112C60.661 7.998 60.661 7.998 60.661 7.998L56.473 7.578C56.473 7.578 55.487 7.804 55.277 7.756C55.067 7.708 55.018 7.432 55.018 7.432"/>
  <path stroke-width="0.13" d="M70.781 4.862C70.781 4.862 63.618 5.977 63.118 6.075C62.616 6.171 61.469 6.285 60.402 6.187"/>
  <path stroke-width="0.13" d="M71.298 4.022C71.298 4.022 63.587 5.169 63.085 5.267C62.585 5.363 61.436 5.477 60.369 5.379"/>
  <line stroke-width="0.13" x1="70.861" y1="3.165" x2="62.698" y2="4.328"/>
  <line stroke-width="0.13" x1="60.661" y1="7.998" x2="60.661" y2="6.299"/>
  <line stroke-width="0.13" x1="60.466" y1="6.193" x2="44.676" y2="4.756"/>
  <line stroke-width="0.13" x1="60.369" y1="5.379" x2="44.543" y2="4"/>
  <line stroke-width="0.13" x1="60.454" y1="4.378" x2="44.646" y2="2.956"/>
  <line stroke-width="0.13" x1="55.018" y1="7.432" x2="55.018" y2="5.756"/>
  <path stroke-width="0.3" d="M44.734 2.591C44.734 2.591 44.185 2.65 44.165 3.161C44.145 3.673 44.052 3.907 44.207 3.948C44.359 3.988 44.359 3.988 44.359 3.988C44.359 3.988 44.277 4.152 44.277 4.336C44.277 4.52 44.35 4.623 44.472 4.684C44.594 4.745 44.676 4.756 44.676 4.756L44.676 6.615C44.676 6.615 44.871 6.881 45.381 6.828C45.892 6.778 45.923 6.716 45.923 6.716"/>
  <line stroke-width="0.13" x1="45.923" y1="6.716" x2="45.923" y2="4.929"/>
  <line stroke-width="0.3" x1="45.923" y1="6.716" x2="46.494" y2="6.758"/>
  <path stroke-width="0.13" d="M46.494 6.758C46.792 6.778 46.923 7.024 46.923 7.259"/>
  <line stroke-width="0.3" x1="46.494" y1="6.758" x2="46.34" y2="20.693"/>
  <path stroke-width="0.3" d="M46.359 19.237C45.884 19.201 45.848 19.62 45.848 20.092C45.848 20.567 45.848 20.567 45.848 20.567C45.848 20.567 45.21 20.658 45.192 21.057C45.174 21.458 45.174 21.731 45.375 21.914C45.575 22.096 45.884 22.004 45.975 22.733C46.067 23.46 45.902 27.283 45.902 27.283"/>
  <g>
   <path stroke-width="0.13" d="M46.759 29.888C47 29.829 47.192 29.663 47.305 29.44"/>
   <path stroke-width="0.2" d="M47.305 29.44C47.427 29.202 47.451 28.923 47.387 28.664C47.252 28.106 46.75 27.748 46.267 27.867"/>
   <path stroke-width="0.13" d="M46.267 27.867C45.783 27.984 45.502 28.532 45.637 29.089C45.774 29.647 46.276 30.004 46.759 29.888"/>
  </g>
  <path stroke="none" fill="#000000" d="M46.743 29.824C46.969 29.769 47.122 29.594 47.228 29.387L47.381 29.495C47.261 29.731 47.03 29.888 46.774 29.951L46.743 29.824z"/>
  <path stroke="none" fill="#000000" d="M46.29 27.963L46.243 27.769C45.978 27.833 45.795 28.036 45.67 28.277L45.77 28.349C45.872 28.149 46.072 28.016 46.29 27.963z"/>
  <g>
   <path stroke-width="0.13" d="M54.932 25.573C55.164 25.512 55.344 25.349 55.448 25.135"/>
   <path stroke-width="0.2" d="M55.448 25.135C55.563 24.902 55.579 24.635 55.514 24.388C55.372 23.855 54.884 23.521 54.423 23.643"/>
   <path stroke-width="0.13" d="M54.423 23.643C54.106 23.727 53.884 24.004 53.82 24.347"/>
   <path stroke-width="0.13" d="M54.112 25.315C54.347 25.559 54.655 25.644 54.932 25.573"/>
  </g>
  <path stroke="none" fill="#000000" d="M54.915 25.51C55.131 25.452 55.274 25.282 55.371 25.082L55.526 25.187C55.414 25.416 55.195 25.571 54.95 25.635L54.915 25.51z"/>
  <path stroke="none" fill="#000000" d="M54.448 23.739L54.398 23.547C54.143 23.614 53.972 23.812 53.856 24.047L53.957 24.115C54.051 23.923 54.24 23.795 54.448 23.739z"/>
  <g>
   <path stroke-width="0.13" d="M48.021 28.923C48.015 28.769 47.991 28.62 47.956 28.49C47.709 27.571 46.863 26.998 46.067 27.211"/>
   <path stroke-width="0.3" d="M46.067 27.211C45.27 27.425 44.823 28.344 45.07 29.263C45.299 30.12 46.048 30.675 46.801 30.574"/>
  </g>
  <path stroke="none" fill="#000000" d="M47.191 27.481C46.835 27.24 46.46 27.26 46.106 27.356L46.027 27.067C46.411 26.963 46.862 27.111 47.243 27.371L47.191 27.481z"/>
  <g>
   <path stroke-width="0.13" d="M49.625 28.522C49.612 27.942 49.344 27.414 48.942 27.079"/>
  </g>
  <line stroke-width="0.2" x1="47.668" y1="26.774" x2="46.067" y2="27.211"/>
  <g>
   <path stroke-width="0.13" d="M48.945 27.083C49.652 26.899 50.051 26.089 49.838 25.275C49.625 24.46 48.881 23.951 48.176 24.135"/>
   <path stroke-width="0.2" d="M48.176 24.135C47.47 24.318 47.07 25.129 47.283 25.943C47.496 26.757 48.24 27.268 48.945 27.083"/>
  </g>
  <path stroke="none" fill="#000000" d="M49.164 24.385C48.853 24.172 48.514 24.149 48.201 24.231L48.151 24.038C48.49 23.949 48.88 24.044 49.219 24.275L49.164 24.385z"/>
  <path stroke="none" fill="#000000" d="M48.92 26.987L48.972 27.181C49.347 27.082 49.615 26.8 49.786 26.451L49.686 26.382C49.536 26.687 49.25 26.9 48.92 26.987z"/>
  <g>
   <path stroke-width="0.13" d="M48.67 26.082C48.896 26.03 49.03 25.775 48.97 25.515C48.911 25.254 48.677 25.083 48.451 25.135C48.225 25.187 48.091 25.443 48.151 25.704C48.212 25.966 48.444 26.135 48.67 26.082"/>
  </g>
  <g>
   <path stroke-width="0.13" d="M56.043 24.608C55.987 23.806 55.399 23.146 54.695 23.071"/>
   <path stroke-width="0.2" d="M53.34 24.155C53.281 24.443 53.302 24.737 53.384 25.001C53.573 25.617 54.054 26.047 54.594 26.137"/>
  </g>
  <g>
   <path stroke-width="0.13" d="M54.531 28.995C54.723 28.917 54.805 28.675 54.716 28.452C54.625 28.231 54.396 28.115 54.204 28.195C54.103 28.236 54.033 28.324 54.002 28.429"/>
   <path stroke-width="0.13" d="M54.152 28.92C54.268 29.019 54.411 29.044 54.531 28.995"/>
  </g>
  <g>
   <path stroke-width="0.13" d="M54.587 29.268C54.908 29.164 55.073 28.777 54.951 28.405C54.831 28.033 54.472 27.817 54.149 27.922C53.828 28.025 53.664 28.411 53.784 28.783C53.905 29.155 54.265 29.373 54.587 29.268"/>
  </g>
  <g>
   <path stroke-width="0.13" d="M50.799 26.446C51.027 26.394 51.161 26.14 51.1 25.879C51.04 25.617 50.807 25.448 50.582 25.5C50.463 25.527 50.371 25.609 50.317 25.718"/>
   <path stroke-width="0.13" d="M50.475 26.373C50.576 26.449 50.694 26.471 50.799 26.446"/>
  </g>
  <g>
   <path stroke-width="0.13" d="M49.262 26.948C49.968 26.763 50.366 25.954 50.154 25.14C49.941 24.324 49.197 23.814 48.491 23.998"/>
  </g>
  <line stroke-width="0.2" x1="48.491" y1="23.998" x2="48.176" y2="24.135"/>
  <g>
   <polyline stroke-width="0.3" points="46.801 30.574 50.454 30.798 52.439 30.597"/>
   <polyline stroke-width="0.13" points="52.439 30.597 52.475 29.268"/>
  </g>
  <line stroke-width="0.13" x1="52.201" y1="28.978" x2="50.29" y2="28.867"/>
  <path stroke-width="0.13" d="M50.29 28.867C49.743 28.85 49.64 28.725 49.625 28.522"/>
  <path stroke-width="0.13" d="M48.021 28.923C47.942 29.414 48.161 29.432 48.469 29.486C48.78 29.542 50.18 29.705 50.18 29.705"/>
  <line stroke-width="0.13" x1="50.49" y1="30.689" x2="50.49" y2="29.888"/>
  <line stroke-width="0.13" x1="50.691" y1="29.687" x2="52.31" y2="29.16"/>
  <line stroke-width="0.13" x1="54.35" y1="30.853" x2="54.35" y2="29.614"/>
  <line stroke-width="0.2" x1="55.424" y1="29.304" x2="55.424" y2="26.811"/>
  <line stroke-width="0.13" x1="55.424" y1="29.304" x2="57.918" y2="29.486"/>
  <line stroke-width="0.13" x1="56.048" y1="24.679" x2="56.048" y2="29.14"/>
  <line stroke-width="0.13" x1="57.918" y1="29.251" x2="57.918" y2="24.443"/>
  <path stroke-width="0.2" d="M55.424 26.811C55.351 26.411 55.094 26.236 54.448 26.105"/>
  <path stroke-width="0.2" d="M53.34 24.155C53.466 23.777 53.131 23.625 52.53 23.643C51.929 23.661 46.941 23.097 46.941 23.079C46.941 23.06 46.886 22.222 46.886 22.222"/>
  <line stroke-width="0.13" x1="54.695" y1="23.071" x2="47.067" y2="22.332"/>
  <polyline stroke-width="0.13" points="46.886 22.222 47.704 21.841 55.588 22.586"/>
  <line stroke-width="0.13" x1="46.412" y1="21.222" x2="57.646" y2="22.26"/>
  <path stroke-width="0.13" d="M55.588 22.586C56.317 22.623 56.426 22.841 56.607 23.06C56.789 23.278 56.771 23.315 56.936 23.352C57.098 23.388 57.573 23.425 57.573 23.425C57.573 23.425 57.918 23.443 57.918 24.443"/>
  <path stroke-width="0.13" d="M45.375 21.914C45.902 22.022 46.704 22.114 46.886 22.222"/>
  <path stroke-width="0.13" d="M45.286 20.83C45.503 21.204 46.195 21.202 46.412 21.222"/>
  <path stroke-width="0.13" d="M46.34 20.693C46.322 21.076 46.994 21.185 47.633 21.204"/>
  <line stroke-width="0.13" x1="45.848" y1="20.567" x2="46.341" y2="20.585"/>
  <polyline stroke-width="0.13" points="47.704 21.341 47.704 19.966 56.771 20.693"/>
  <line stroke-width="0.13" x1="56.917" y1="20.858" x2="56.917" y2="22.193"/>
  <path stroke-width="0.13" d="M47.704 20.202C47.704 20.202 55.042 20.893 55.679 20.931C56.317 20.966 56.517 20.949 56.771 20.876"/>
  <path stroke-width="0.13" d="M57.646 22.26C59.008 22.376 60.045 22.32 60.817 22.25C61.59 22.179 66.402 21.393 66.724 21.295C67.048 21.196 67.481 21.112 67.453 20.917"/>
  <path stroke-width="0.13" d="M57.886 23.385C58.783 23.469 60.243 23.344 60.706 23.26C61.168 23.175 66.542 22.333 66.542 22.333"/>
  <path stroke-width="0.3" d="M67.341 20.861L67.453 20.917L67.51 21.786C67.51 21.786 67.384 22.053 67.23 22.193C67.075 22.333 66.655 22.361 66.655 22.361C66.655 22.361 66.668 22.853 66.641 23.035C66.612 23.217 66.243 23.798 66.102 23.937"/>
  <line stroke-width="0.13" x1="60.466" y1="21.926" x2="60.466" y2="8.429"/>
  <polyline stroke-width="0.13" points="60.887 20.551 66.893 19.765 66.893 21.085"/>
  <g>
   <polyline stroke-width="0.13" points="66.918 21.021 67.346 20.993"/>
   <polyline stroke-width="0.3" points="67.346 20.993 67.394 13.09"/>
  </g>
  <path stroke-width="0.13" d="M60.99 20.675C61.433 20.844 62.338 20.739 62.555 20.699C62.774 20.658 66.332 20.149 66.558 20.06C66.784 19.972 66.835 19.774 66.835 19.774"/>
  <line stroke-width="0.13" x1="60.877" y1="20.771" x2="60.877" y2="21.925"/>
  <path stroke-width="0.13" d="M59.335 22.184C59.756 22.16 59.917 22.184 60.143 22.111C60.368 22.039 60.466 21.926 60.466 21.926C60.466 21.926 60.82 22.039 61.143 22.03C61.466 22.022 61.506 22.039 61.506 22.047"/>
  <line stroke-width="0.13" x1="66.855" y1="19.454" x2="66.918" y2="13.535"/>
  <line stroke-width="0.13" x1="67.061" y1="8.298" x2="67.061" y2="7.376"/>
  <polyline stroke-width="0.3" points="63.444 12.9 66.808 13.169 68.965 12.9 68.965 9.599"/>
  <g>
   <path stroke-width="0.3" d="M68.965 9.599C68.936 9.041 68.796 8.734 68.469 8.678C68.144 8.621 65.763 8.425 65.763 8.425"/>
   <path stroke-width="0.13" d="M65.763 8.425C65.109 8.368 63.588 8.471 63.457 9.499C63.326 10.525 63.444 12.9 63.444 12.9"/>
  </g>
  <path stroke-width="0.13" d="M65.763 8.425C65.715 8.089 65.492 7.968 65.203 7.987C64.914 8.005 63.494 8.323 63.354 8.332C63.215 8.34 62.841 8.798 62.887 9.237C62.933 9.676 62.944 12.365 62.953 12.635C62.962 12.906 63.103 13.288 63.392 13.288C63.68 13.288 64.719 13.003 64.719 13.003"/>
  <path stroke-width="0.13" d="M63.186 8.07C62.728 8.247 62.345 8.537 62.374 9.153C62.402 9.769 62.356 12.205 62.393 12.412C62.402 13.018 62.514 13.355 63.392 13.288"/>
  <path stroke-width="0.2" d="M68.75 9.349C68.629 9.106 68.62 8.948 68.358 8.948C68.096 8.948 67.724 9.003 67.48 9.051C67.237 9.098 66.948 9.406 66.911 9.974C66.873 10.544 66.921 12.788 66.921 12.788"/>
  <path stroke-width="0.13" d="M68.543 8.743C68.492 8.727 68.432 8.718 68.358 8.718C68.084 8.718 67.691 8.776 67.438 8.826C67.269 8.858 67.079 8.973 66.93 9.185C66.805 9.367 66.704 9.625 66.683 9.96C66.658 10.343 66.67 11.57 66.68 12.345L66.691 13.003"/>
  <polyline stroke-width="0.13" points="68.75 9.349 68.748 12.649 67.207 12.865"/>
  <polyline stroke-width="0.13" points="65.79 9.862 66.338 9.881 66.365 11.09"/>
  <polyline stroke-width="0.13" points="65.103 9.855 64.852 9.951 64.852 10.83 65.078 10.83"/>
  <polyline stroke-width="0.13" points="64.266 11.795 64.266 12.448 64.911 12.483"/>
  <path stroke-width="0.13" d="M67.48 9.051C67.739 9.157 67.799 9.211 67.799 9.55C67.799 9.89 67.783 12.282 67.783 12.282"/>
  <line stroke-width="0.13" x1="67.757" y1="12.544" x2="68.679" y2="12.614"/>
  <g>
   <path stroke-width="0.13" d="M66.92 27.422C67.004 27.428 67.085 27.373 67.147 27.28"/>
   <path stroke-width="0.13" d="M67.245 26.675C67.204 26.48 67.102 26.359 66.984 26.352C66.813 26.341 66.661 26.573 66.643 26.867C66.625 27.164 66.748 27.413 66.92 27.422"/>
  </g>
  <g>
   <path stroke-width="0.3" d="M66.706 27.864C67.021 27.885 67.305 27.46 67.34 26.917C67.359 26.644 67.311 26.393 67.221 26.208"/>
   <path stroke-width="0.2" d="M67.221 26.208C67.123 26.009 66.983 25.902 66.837 25.893"/>
   <path stroke-width="0.13" d="M66.837 25.893C66.664 25.882 66.498 26.007 66.379 26.214"/>
   <path stroke-width="0.13" d="M66.2 26.974C66.204 27.469 66.424 27.844 66.706 27.864"/>
  </g>
  <path stroke="none" fill="#000000" d="M67.153 26.31C67.069 26.14 66.954 26.001 66.831 25.992L66.843 25.794C67.012 25.804 67.176 25.876 67.289 26.106L67.153 26.31z"/>
  <path stroke="none" fill="#000000" d="M66.831 25.992L66.843 25.794C66.671 25.782 66.519 25.919 66.393 26.108L66.439 26.202C66.543 26.048 66.689 25.984 66.831 25.992z"/>
  <path stroke="none" fill="#000000" d="M66.352 27.504L66.293 27.594C66.399 27.806 66.542 28.004 66.697 28.015L66.716 27.714C66.581 27.705 66.444 27.692 66.352 27.504z"/>
  <g>
   <path stroke-width="0.13" d="M63.569 25.657C63.567 25.655 63.567 25.655 63.566 25.655C63.25 25.635 62.966 26.059 62.93 26.603C62.895 27.149 63.121 27.606 63.435 27.628"/>
  </g>
  <line stroke-width="0.3" x1="63.435" y1="27.628" x2="66.706" y2="27.864"/>
  <line stroke-width="0.2" x1="63.566" y1="25.655" x2="66.837" y2="25.893"/>
  <g>
   <path stroke-width="0.13" d="M61.801 25.51C61.796 25.51 61.793 25.509 61.79 25.509C61.475 25.487 61.192 25.913 61.155 26.457C61.119 27.001 61.345 27.46 61.659 27.48"/>
  </g>
  <line stroke-width="0.2" x1="61.659" y1="27.48" x2="62.6" y2="27.557"/>
  <line stroke-width="0.13" x1="63.423" y1="27.626" x2="63.435" y2="27.628"/>
  <line stroke-width="0.2" x1="61.79" y1="25.509" x2="62.807" y2="25.593"/>
  <g>
   <path stroke-width="0.13" d="M61.561 28.143C61.877 28.173 62.182 27.937 62.398 27.541"/>
   <path stroke-width="0.13" d="M62.582 25.574C62.439 25.129 62.177 24.876 61.889 24.846C61.362 24.794 60.863 25.489 60.773 26.399C60.682 27.31 61.036 28.091 61.561 28.143"/>
  </g>
  <line stroke-width="0.2" x1="61.512" y1="28.559" x2="62.612" y2="27.591"/>
  <g>
   <polyline stroke-width="0.2" points="62.743 25.521 61.774 24.42"/>
   <polyline stroke-width="0.13" points="61.774 24.42 60.673 25.39 60.542 27.46 61.512 28.559"/>
  </g>
  <polyline stroke-width="0.13" points="60.654 24.364 59.552 25.332 59.421 27.402 60.392 28.503"/>
  <line stroke-width="0.2" x1="60.654" y1="24.364" x2="61.774" y2="24.42"/>
  <line stroke-width="0.13" x1="59.552" y1="25.332" x2="60.673" y2="25.39"/>
  <line stroke-width="0.13" x1="59.421" y1="27.402" x2="60.542" y2="27.46"/>
  <line stroke-width="0.2" x1="60.392" y1="28.503" x2="61.512" y2="28.559"/>
  <g>
   <path stroke-width="0.2" d="M63.124 28.028C63.347 28.053 63.566 27.919 63.74 27.681"/>
   <path stroke-width="0.13" d="M63.74 27.681C63.749 27.672 63.756 27.661 63.762 27.65"/>
   <path stroke-width="0.2" d="M63.951 25.684C63.692 25.12 63.189 25.074 62.817 25.576"/>
   <path stroke-width="0.13" d="M62.817 25.576C62.442 26.088 62.344 26.974 62.598 27.554"/>
   <path stroke-width="0.2" d="M62.598 27.554C62.725 27.846 62.917 28.006 63.124 28.028"/>
  </g>
  <path stroke="none" fill="#000000" d="M62.85 25.652C62.676 25.888 62.545 26.211 62.509 26.544L62.433 26.536C62.476 26.152 62.584 25.775 62.784 25.501L62.85 25.652z"/>
  <path stroke="none" fill="#000000" d="M62.509 26.544L62.433 26.536C62.39 26.94 62.426 27.338 62.549 27.62L62.646 27.489C62.533 27.233 62.468 26.913 62.509 26.544z"/>
  <g>
   <path stroke-width="0.13" d="M70.673 26.448C70.754 26.452 70.829 26.4 70.888 26.312"/>
   <path stroke-width="0.13" d="M70.98 25.742C70.942 25.557 70.844 25.445 70.734 25.437C70.573 25.426 70.429 25.646 70.412 25.925C70.394 26.204 70.512 26.437 70.673 26.448"/>
  </g>
  <g>
   <path stroke-width="0.3" d="M70.472 26.864C70.769 26.885 71.037 26.484 71.07 25.971C71.105 25.457 70.893 25.024 70.596 25.004"/>
   <path stroke-width="0.13" d="M70.596 25.004C70.432 24.993 70.275 25.111 70.164 25.307"/>
   <path stroke-width="0.13" d="M69.993 26.022C69.998 26.492 70.206 26.844 70.472 26.864"/>
  </g>
  <path stroke="none" fill="#000000" d="M70.585 25.155C70.462 25.146 70.313 25.164 70.221 25.3L70.174 25.204C70.301 25.016 70.433 24.844 70.605 24.855L70.585 25.155z"/>
  <path stroke="none" fill="#000000" d="M70.141 26.522L70.081 26.611C70.18 26.812 70.316 27.004 70.462 27.015L70.483 26.714C70.355 26.707 70.227 26.699 70.141 26.522z"/>
  <g>
   <path stroke-width="0.13" d="M67.513 24.782C67.512 24.78 67.51 24.78 67.509 24.78C67.212 24.762 66.944 25.161 66.911 25.675C66.905 25.757 66.906 25.836 66.912 25.907"/>
   <path stroke-width="0.13" d="M67.376 26.64C67.379 26.64 67.382 26.64 67.385 26.64"/>
  </g>
  <line stroke-width="0.3" x1="67.385" y1="26.64" x2="70.472" y2="26.864"/>
  <line stroke-width="0.3" x1="67.509" y1="24.78" x2="70.596" y2="25.004"/>
  <g>
   <path stroke-width="0.13" d="M65.844 24.643C65.84 24.643 65.837 24.643 65.834 24.641C65.537 24.623 65.269 25.022 65.236 25.536C65.23 25.621 65.231 25.704 65.239 25.777"/>
  </g>
  <line stroke-width="0.13" x1="67.376" y1="26.64" x2="67.385" y2="26.64"/>
  <line stroke-width="0.2" x1="65.834" y1="24.641" x2="66.793" y2="24.722"/>
  <g>
   <path stroke-width="0.13" d="M66.581 24.704C66.445 24.285 66.2 24.045 65.927 24.016C65.432 23.968 64.96 24.623 64.875 25.483C64.865 25.576 64.861 25.669 64.861 25.75"/>
  </g>
  <g>
   <polyline stroke-width="0.3" points="66.733 24.653 65.819 23.615"/>
   <polyline stroke-width="0.13" points="65.819 23.615 64.781 24.53 64.704 25.739"/>
  </g>
  <polyline stroke-width="0.13" points="64.762 23.562 63.723 24.477 63.67 25.323"/>
  <line stroke-width="0.2" x1="64.762" y1="23.562" x2="65.819" y2="23.615"/>
  <line stroke-width="0.13" x1="63.723" y1="24.477" x2="64.781" y2="24.53"/>
  <g>
   <path stroke-width="0.3" d="M67.335 26.981C67.462 26.925 67.579 26.824 67.674 26.693"/>
   <path stroke-width="0.13" d="M67.674 26.693C67.682 26.682 67.688 26.672 67.694 26.664"/>
   <path stroke-width="0.3" d="M67.873 24.807C67.629 24.274 67.153 24.231 66.804 24.707"/>
   <path stroke-width="0.13" d="M66.804 24.707C66.584 25.006 66.465 25.442 66.463 25.865"/>
  </g>
  <path stroke="none" fill="#000000" d="M66.852 24.818C66.695 25.033 66.548 25.32 66.515 25.618L66.439 25.611C66.481 25.234 66.558 24.862 66.754 24.594L66.852 24.818z"/>
  <g>
   <polyline stroke-width="0.3" points="65.801 27.798 65.801 28.8 64.025 29.085"/>
   <polyline stroke-width="0.2" points="64.025 29.085 58.875 29.902"/>
  </g>
  <path stroke-width="0.3" d="M64.45 29.018C64.454 29.615 64.531 30.762 64.234 31.048C63.936 31.335 63.649 31.347 63.649 31.347"/>
  <path stroke-width="0.2" d="M64.355 30.144C63.959 30.464 62.789 30.673 60.981 30.783C59.173 30.894 54.719 30.865 54.35 30.853C53.981 30.839 52.463 30.533 52.439 30.597"/>
  <path stroke-width="0.13" d="M54.432 29.55C55.435 29.835 58.302 30.111 58.875 29.902"/>
  <g>
   <path stroke-width="0.13" d="M44.546 24.939C43.914 24.891 43.335 25.743 43.256 26.839C43.2 27.605 43.401 28.286 43.749 28.65"/>
  </g>
  <g>
   <path stroke-width="0.13" d="M43.146 25.501C42.936 25.487 42.737 25.623 42.585 25.853"/>
   <path stroke-width="0.13" d="M42.38 26.312C42.337 26.464 42.311 26.623 42.302 26.768C42.259 27.471 42.539 28.064 42.939 28.129"/>
  </g>
  <line stroke-width="0.3" x1="44.545" y1="24.939" x2="45.899" y2="25.076"/>
  <path stroke-width="0.3" d="M44.584 24.942C44.268 24.897 44.064 25.056 43.682 25.28C43.298 25.504 43.146 25.501 43.146 25.501L42.012 25.41C42.012 25.41 40.954 25.414 40.902 26.39C40.85 27.367 41.237 27.975 41.646 28.03C42.055 28.086 42.735 28.1 42.808 28.129C42.881 28.16 42.984 28.155 42.984 28.155C42.984 28.155 43.566 28.525 43.7 28.655C43.932 28.887 44.198 28.917 44.293 28.934C44.387 28.951 45.021 29.022 45.021 29.022"/>
  <g>
   <path stroke-width="0.13" d="M45.981 25.096C45.356 25.05 44.786 25.876 44.694 26.951"/>
   <path stroke-width="0.13" d="M44.703 27.631C44.749 28.018 44.859 28.346 45.009 28.583"/>
  </g>
  <line stroke-width="0.13" x1="44.694" y1="26.951" x2="45.914" y2="27.03"/>
  <line stroke-width="0.13" x1="44.703" y1="27.631" x2="45.295" y2="27.673"/>
  <path stroke-width="0.13" d="M45.692 25.608C45.433 25.841 45.167 26.512 45.124 26.934"/>
  <path stroke-width="0.3" d="M48.978 30.707C48.978 30.707 49.033 44.512 48.994 45.201C48.957 45.89 49.195 46.865 50.054 47.392C50.914 47.917 51.067 47.92 51.067 47.92"/>
  <polyline stroke-width="0.3" points="51.067 47.92 51.1 50.398 55.938 51.249 61.058 50.545 61.256 48.046"/>
  <line stroke-width="0.13" x1="56.046" y1="50.866" x2="56.103" y2="49.054"/>
  <line stroke-width="0.13" x1="56.326" y1="32.042" x2="56.304" y2="47.927"/>
  <line stroke-width="0.13" x1="55.506" y1="32.042" x2="55.484" y2="47.926"/>
  <path stroke-width="0.13" d="M55.484 47.926C55.579 48.381 56.302 48.508 56.304 47.927"/>
  <g>
   <path stroke-width="0.2" d="M51.067 47.92C53.456 48.625 59.274 48.881 61.256 48.046"/>
   <path stroke-width="0.3" d="M61.256 48.046C62.308 47.682 62.912 46.722 62.927 45.853C62.944 44.985 63.112 44.094 63.112 44.094L63.302 43.408L63.649 31.347"/>
  </g>
  <path stroke-width="0.13" d="M49.499 30.934C50.765 31.544 54.279 32.192 55.331 31.929"/>
  <path stroke-width="0.13" d="M56.53 32.002C58.468 32.137 62.345 31.446 62.57 31.265"/>
  <path stroke-width="0.13" d="M62.026 31.689C62.026 31.689 61.985 33.987 61.905 34.216C61.825 34.444 61.658 35.232 61.631 35.335C61.603 35.435 61.706 46.624 61.652 47.262"/>
  <line stroke-width="0.13" x1="62.738" y1="31.829" x2="62.662" y2="43.5"/>
  <polyline stroke-width="0.13" points="50.106 31.301 50.06 33.932 50.5 35.037 50.548 46.966"/>
  <path stroke-width="0.13" d="M50.5 35.037C51.183 35.335 53.231 35.722 55.499 35.85"/>
  <path stroke-width="0.13" d="M56.32 35.883C58.273 35.932 60.287 35.765 61.668 35.168"/>
  <path stroke-width="0.13" d="M50.06 33.932C50.804 34.256 53.03 34.674 55.5 34.813"/>
  <path stroke-width="0.13" d="M56.32 34.847C58.325 34.904 60.399 34.755 61.914 34.207"/>
  <text x="30.911" y="10.893" stroke="none" fill="#000000" font-family="'Arial'" font-size="3.528">1</text>
  <text x="30.995" y="23.333" stroke="none" fill="#000000" font-family="'Arial'" font-size="3.528">2</text>
  <text x="0" y="44.575" stroke="none" fill="#000000" font-family="'Arial'" font-size="3.528">3</text>
  <text x="0.183" y="31.239" stroke="none" fill="#000000" font-family="'Arial'" font-size="3.528">4</text>
  <text x="33.301" y="38.682" stroke="none" fill="#000000" font-family="'Arial'" font-size="3.528">5</text>
  <text x="0.12" y="16.23" stroke="none" fill="#000000" font-family="'Arial'" font-size="3.528">6</text>
  <text x="40.024" y="23.67" stroke="none" fill="#000000" font-family="'Arial'" font-size="3.528">7</text>
  <text x="70.063" y="18.917" stroke="none" fill="#000000" font-family="'Arial'" font-size="3.528">8</text>
  <text x="69.891" y="37.197" stroke="none" fill="#000000" font-family="'Arial'" font-size="3.528">9</text>
  <text x="38.057" y="12.048" stroke="none" fill="#000000" font-family="'Arial'" font-size="3.528">10</text>
  <line stroke-width="0.13" x1="10.782" y1="11.775" x2="3.104" y2="14.451"/>
  <line stroke-width="0.13" x1="12.695" y1="27.321" x2="3.021" y2="29.699"/>
  <line stroke-width="0.13" x1="10.564" y1="42.076" x2="2.53" y2="42.896"/>
  <line stroke-width="0.13" x1="26.303" y1="11.829" x2="30.484" y2="10.025"/>
  <line stroke-width="0.13" x1="26.734" y1="23.714" x2="30.484" y2="22.567"/>
  <polyline stroke-width="0.13" points="28.705 31.576 33.435 35.109 31.452 30.277"/>
  <line stroke-width="0.13" x1="42.124" y1="10.516" x2="48.026" y2="9.041"/>
  <line stroke-width="0.13" x1="48.194" y1="25.341" x2="42.124" y2="22.812"/>
  <line stroke-width="0.13" x1="68.965" y1="12.9" x2="70.65" y2="15.682"/>
  <polyline stroke-width="0.13" points="70.534 25.934 70.65 34.043 66.772 26.879"/>
  <text transform="matrix(0 -1 1 0 71.799 51.421)" stroke="none" fill="#000000" font-family="'Arial'" font-size="2.117">316 304</text>
 </g>
</svg>
