<?xml version="1.0" encoding="utf-8"?>
<!DOCTYPE svg PUBLIC "-//W3C//DTD SVG 1.1//EN" "http://www.w3.org/Graphics/SVG/1.1/DTD/svg11.dtd">
<!-- Generator: PTC Arbortext IsoDraw 7.3 -->
<svg id="Standard_x0020_layer" width="100%" height="100%" viewBox="0 0 68.296 61.899"
 xmlns="http://www.w3.org/2000/svg" xmlns:xlink="http://www.w3.org/1999/xlink"
 fill-rule="evenodd" clip-rule="evenodd" stroke="#000000" stroke-linecap="round" fill="none" xml:space="preserve">
 <path stroke="none" fill="#BFBFBF" d="M33.424 17.248C33.347 17.117 33.472 15.91 33.472 15.91L33.101 14.975 32.088 14.936C32.088 14.936 32.02 14.64 31.992 14.573 31.966 14.506 31.818 14.297 31.818 14.297L31.64 14.234 31.26 14.821 31.065 15.691 30.977 16.6 30.972 16.946 33.424 17.248z"/>
 <path stroke-width="0.3" d="M0.233 11.826C0.233 11.826 45.536 11.664 65.406 11.188"/>
 <path stroke-width="0.3" d="M0.15 4.043C0.15 4.043 62.387 3.383 65.368 3.351"/>
 <path stroke-width="0.13" d="M65.368 25.198C59.773 25.181 54.042 25.152 52.204 25.096C48.261 24.977 47.185 24.439 46.35 22.885C45.512 21.332 45.155 17.329 41.57 17.449C37.985 17.568 34.162 17.928 33.146 18.167C32.131 18.405 31.295 19.66 31.295 21.452C31.295 23.245 31.355 24.439 31.414 25.454C31.475 26.469 31.414 27.187 30.937 27.664C30.458 28.143 30.458 28.143 30.458 28.143L30.458 40.866C30.458 40.866 31.175 41.883 31.175 42.42C31.175 42.957 31.295 48.274 31.295 48.692"/>
 <path stroke-width="0.3" d="M65.368 24.35C58.921 24.321 52.216 24.289 52.216 24.289C49.747 24.214 48.514 24.03 47.749 23.402C47.463 23.167 47.256 22.868 47.058 22.504C46.89 22.19 46.746 21.765 46.584 21.297C46.25 20.339 45.851 19.231 45.186 18.356C44.866 17.934 44.487 17.564 44.031 17.275C43.378 16.861 42.57 16.609 41.543 16.643C37.892 16.765 33.996 17.138 32.963 17.382C32.526 17.484 32.109 17.711 31.745 18.057C31.024 18.742 30.489 19.931 30.489 21.452C30.489 23.265 30.55 24.475 30.609 25.501C30.643 26.067 30.655 26.518 30.515 26.865C30.48 26.952 30.432 27.028 30.367 27.094L29.652 27.809L29.652 40.866L29.8 41.332C29.8 41.332 29.868 41.429 29.96 41.576C30.105 41.808 30.37 42.176 30.37 42.42L30.489 48.707"/>
 <path stroke-width="0.13" d="M44.557 51.859C44.557 51.859 44.616 55.204 44.616 55.741C44.616 56.28 45.094 57.594 46.768 57.654C48.439 57.713 51.368 57.713 52.801 57.654C54.234 57.594 56.206 56.936 56.862 56.518C57.521 56.1 61.822 56.518 63.912 56.34C64.209 56.314 64.71 56.298 65.355 56.289"/>
 <path stroke-width="0.3" d="M43.691 51.871L43.75 55.755C43.75 56.131 43.902 56.802 44.365 57.39C44.557 57.634 44.802 57.863 45.109 58.054C45.524 58.308 46.057 58.494 46.737 58.52C48.427 58.579 51.387 58.579 52.837 58.52C54.423 58.453 56.601 57.713 57.286 57.276C57.737 57.115 59.088 57.186 60.505 57.22C61.768 57.252 63.079 57.28 63.987 57.203C64.272 57.177 64.748 57.162 65.359 57.155"/>
 <g>
  <path stroke-width="0.13" d="M56.915 26.341C56.915 26.097 56.718 25.899 56.473 25.899C56.231 25.899 56.033 26.097 56.033 26.341C56.033 26.585 56.231 26.782 56.473 26.782C56.718 26.782 56.915 26.585 56.915 26.341"/>
 </g>
 <path stroke-width="0.13" d="M63.976 32.834C63.976 32.834 64.079 28.399 64.079 28.347C64.079 28.297 63.875 27.388 63.286 27.158C62.698 26.928 57.957 26.085 57.523 26.021C57.088 25.957 57.113 25.957 57.113 25.957C57.113 25.957 56.947 25.536 56.398 25.6C55.847 25.664 55.81 25.867 55.81 25.867L48.6 26.902C48.6 26.902 47.36 27.108 47.118 27.466C46.875 27.824 46.53 28.245 46.53 28.705C46.53 29.166 46.53 29.23 46.53 29.23C46.53 29.23 45.904 31.658 45.725 33.167C45.545 34.674 45.545 38.253 45.725 42.012C45.904 45.768 46.798 49.756 47.131 50.165C47.463 50.575 47.463 50.575 47.463 50.575C47.463 50.575 47.642 52.109 48.485 52.314C49.329 52.518 60.475 52.466 60.475 52.466C60.475 52.466 62.929 52.466 63.031 50.499C63.134 48.53 63.107 48.095 63.107 48.095L61.982 48.018"/>
 <path stroke-width="0.13" d="M46.53 29.23C47.134 27.958 47.478 27.653 48.634 27.565C49.79 27.475 55.627 27.678 57.826 27.653C60.024 27.628 62.185 27.818 62.732 27.78C63.28 27.742 63.457 28.594 63.457 28.899C63.457 29.204 63.368 32.878 63.368 32.878L63.976 32.834"/>
 <path stroke-width="0.13" d="M51.597 26.713C51.597 26.713 52.912 26.532 53.834 26.405"/>
 <path stroke-width="0.13" d="M54.418 26.324C55.194 26.219 55.487 26.178 55.487 26.178C55.487 26.178 55.716 26.089 55.716 26.28C55.716 26.471 55.716 26.699 55.765 26.801C55.817 26.903 55.817 26.903 55.817 26.903C55.817 26.903 55.207 26.902 54.418 26.899"/>
 <path stroke-width="0.13" d="M53.834 26.897C52.784 26.893 51.609 26.89 51.609 26.89C51.609 26.89 51.418 26.775 51.597 26.713"/>
 <path stroke-width="0.13" d="M57.304 26.242C57.393 26.471 57.457 26.675 57.393 26.763C57.329 26.853 57.329 26.853 57.329 26.853L60.203 26.839C60.203 26.839 60.304 26.675 60.113 26.661C59.923 26.649 57.737 26.216 57.737 26.216C57.737 26.216 57.264 26.132 57.304 26.242z"/>
 <line stroke-width="0.13" x1="53.834" y1="26.37" x2="53.834" y2="27.605"/>
 <line stroke-width="0.13" x1="54.418" y1="26.254" x2="54.418" y2="27.615"/>
 <line stroke-width="0.13" x1="55.817" y1="26.903" x2="55.817" y2="27.64"/>
 <polyline stroke-width="0.13" points="57.329 26.853 57.173 26.943 57.173 27.565"/>
 <path stroke-width="0.13" d="M47.463 50.575C47.814 50.966 48.567 51.744 49.698 51.744C50.829 51.744 60.143 51.896 60.697 51.795C61.25 51.695 62.356 51.417 62.344 50.689C62.331 49.96 62.457 48.088 62.457 48.088"/>
 <path stroke-width="0.13" d="M62.594 28.605C62.091 31.471 61.439 38.259 61.338 41.728C61.237 45.197 61.89 50.325 62.042 50.828"/>
 <g>
  <path stroke-width="0.13" d="M49.612 12.365C49.612 12.166 49.451 12.003 49.25 12.003C49.051 12.003 48.887 12.166 48.887 12.365C48.887 12.566 49.051 12.727 49.25 12.727C49.451 12.727 49.612 12.566 49.612 12.365"/>
 </g>
 <g>
  <path stroke-width="0.13" d="M35.965 12.56C35.965 12.359 35.802 12.198 35.603 12.198C35.402 12.198 35.24 12.359 35.24 12.56C35.24 12.759 35.402 12.922 35.603 12.922C35.802 12.922 35.965 12.759 35.965 12.56"/>
 </g>
 <g>
  <path stroke-width="0.13" d="M63.383 12.163C63.383 11.964 63.22 11.801 63.021 11.801C62.82 11.801 62.658 11.964 62.658 12.163C62.658 12.364 62.82 12.525 63.021 12.525C63.22 12.525 63.383 12.364 63.383 12.163"/>
 </g>
 <line stroke-width="0.3" x1="34.219" y1="11.615" x2="34.219" y2="17.128"/>
 <g>
  <path stroke-width="0.13" d="M50.008 22.443C50.008 22.263 49.862 22.118 49.682 22.118C49.503 22.118 49.357 22.263 49.357 22.443C49.357 22.623 49.503 22.768 49.682 22.768C49.862 22.768 50.008 22.623 50.008 22.443"/>
 </g>
 <g>
  <path stroke-width="0.13" d="M50.472 22.443C50.472 22.007 50.118 21.655 49.682 21.655C49.246 21.655 48.893 22.007 48.893 22.443C48.893 22.879 49.246 23.233 49.682 23.233C50.118 23.233 50.472 22.879 50.472 22.443"/>
 </g>
 <g>
  <path stroke-width="0.13" d="M46.662 56.134C46.662 55.956 46.518 55.81 46.338 55.81C46.158 55.81 46.014 55.956 46.014 56.134C46.014 56.314 46.158 56.46 46.338 56.46C46.518 56.46 46.662 56.314 46.662 56.134"/>
 </g>
 <g>
  <path stroke-width="0.13" d="M47.128 56.134C47.128 55.698 46.774 55.345 46.338 55.345C45.902 55.345 45.548 55.698 45.548 56.134C45.548 56.57 45.902 56.923 46.338 56.923C46.774 56.923 47.128 56.57 47.128 56.134"/>
 </g>
 <line stroke-width="0.13" x1="62.618" y1="32.884" x2="64.888" y2="32.884"/>
 <line stroke-width="0.13" x1="62.722" y1="47.942" x2="63.246" y2="45.881"/>
 <path stroke-width="0.13" d="M65.272 49.479C65.272 49.479 64.924 47.417 64.819 47.033C64.713 46.649 64.364 46.405 63.735 46.055C63.106 45.706 62.618 43.085 62.582 40.99C62.548 38.893 62.826 36.726 63.526 36.097C64.224 35.469 64.713 35.225 64.748 34.804C64.784 34.386 65.343 32.255 65.343 32.255C65.343 32.255 65.436 32.252 65.584 32.246"/>
 <path stroke-width="0.13" d="M64.888 35.155C64.853 36.027 64.189 45.567 64.819 47.033"/>
 <path stroke-width="0.13" d="M51.049 26.297C49.432 26.338 47.524 25.426 46.28 25.344C45.034 25.26 44.412 25.178 44.164 26.463C43.915 27.748 44.164 31.98 44.122 32.685C44.081 33.39 42.546 35.298 42.256 35.63C41.966 35.962 41.509 39.652 41.468 41.975C41.426 44.298 41.094 47.078 39.643 47.491C38.192 47.906 36.823 48.28 36.823 48.28"/>
 <path stroke-width="0.13" d="M51.024 25.329C50.183 25.35 49.259 25.07 48.409 24.827C47.643 24.609 46.926 24.416 46.344 24.376L46.344 24.376L46.232 24.368L46.232 24.368C45.479 24.318 44.911 24.324 44.485 24.49C44.18 24.611 43.921 24.795 43.706 25.074C43.497 25.343 43.32 25.722 43.213 26.278C43.036 27.195 43.085 29.538 43.131 31.172C43.149 31.864 43.167 32.415 43.156 32.601C43.009 33.256 41.764 34.72 41.527 34.991C41.459 35.07 41.372 35.192 41.299 35.371C40.993 36.118 40.539 39.667 40.499 41.959C40.472 43.424 40.356 45.098 39.817 46.095C39.698 46.314 39.578 46.503 39.377 46.561L36.561 47.347"/>
 <path stroke-width="0.13" d="M33.545 47.368L35.661 46.911C35.661 46.911 36.426 46.829 36.561 47.347C36.698 47.865 36.947 48.529 36.947 48.529C36.947 48.529 36.905 49.027 36.656 49.109C36.408 49.192 34.085 49.607 34.085 49.607L33.545 47.368z"/>
 <path stroke-width="0.13" d="M31.295 48.692C31.265 49.359 31.347 49.856 32.259 50.023C33.173 50.188 36.988 50.603 36.988 50.603"/>
 <path stroke-width="0.3" d="M30.518 48.658C30.495 49.145 30.548 49.567 30.734 49.905C30.839 50.097 30.984 50.27 31.184 50.415C31.403 50.576 31.702 50.712 32.121 50.787C32.737 50.899 34.664 51.125 35.878 51.262L36.902 51.375"/>
 <line stroke-width="0.3" x1="36.988" y1="50.603" x2="36.902" y2="51.375"/>
 <line stroke-width="0.13" x1="43.691" y1="51.871" x2="44.557" y2="51.859"/>
 <path stroke-width="0.13" d="M36.988 50.603C36.988 50.603 39.643 51.058 39.601 51.058C39.56 51.058 39.395 52.179 39.311 52.552C39.228 52.926 39.228 52.926 39.228 52.926C39.228 52.926 38.854 53.049 38.771 53.713C38.689 54.378 38.854 55.704 38.399 56.493C37.942 57.28 37.155 58.401 35.039 57.612C32.923 56.825 31.928 55.539 31.928 55.539"/>
 <path stroke-width="0.13" d="M43.691 51.871L42.878 53.92C42.878 53.92 43.21 54.17 42.962 55.082C42.713 55.994 41.137 59.023 40.223 59.893C39.311 60.765 36.905 62.341 34.625 61.677C32.343 61.014 28.818 59.478 28.071 58.069C27.324 56.658 27.242 54.792 28.693 53.92C30.144 53.049 31.721 52.427 31.721 52.427C31.721 52.427 31.995 50.86 31.591 50.639"/>
 <path stroke-width="0.13" d="M31.721 52.427C33.256 52.552 34.167 54.378 33.67 55.124"/>
 <path stroke-width="0.13" d="M36.283 51.847C36.076 53.631 34.127 54.709 33.421 55.332C32.716 55.954 32.716 55.954 32.716 55.954"/>
 <path stroke-width="0.3" d="M30.269 43.511L28.652 44.173C28.652 44.173 28.112 44.506 28.112 44.962C28.112 45.418 28.03 48.073 28.03 48.073C28.03 48.073 27.905 48.654 28.652 48.82C29.399 48.985 29.896 49.152 29.855 49.152C29.812 49.152 29.855 50.271 29.855 50.271L31.591 50.639"/>
 <path stroke-width="0.13" d="M29.771 44.548L28.9 44.838L28.942 48.198C28.942 48.198 29.067 48.529 29.522 48.529C29.978 48.529 29.978 48.57 29.978 48.529C29.978 48.487 29.771 44.548 29.771 44.548z"/>
 <path stroke-width="0.13" d="M32.799 43.262C34.79 43.344 37.527 43.469 37.901 43.219C38.274 42.97 38.232 42.97 38.274 42.97C38.316 42.97 39.85 43.012 39.85 43.012C39.85 43.012 39.933 42.142 39.933 41.726C39.933 41.311 39.892 40.274 39.892 40.274C39.892 40.274 38.814 40.274 38.109 40.109C37.404 39.944 37.362 40.109 37.404 39.944C37.445 39.777 37.445 39.197 37.445 39.197L40.265 38.99"/>
 <line stroke-width="0.13" x1="36.034" y1="36.128" x2="36.201" y2="43.012"/>
 <line stroke-width="0.13" x1="37.32" y1="36.128" x2="37.404" y2="42.929"/>
 <polyline stroke-width="0.13" points="35.579 36.003 40.804 35.837 40.887 27.044"/>
 <path stroke-width="0.13" d="M42.008 38.781C42.008 38.781 42.878 38.948 42.878 39.197C42.878 39.445 44.289 39.445 45.201 39.487"/>
 <line stroke-width="0.13" x1="44.164" y1="33.432" x2="45.692" y2="33.487"/>
 <path stroke-width="0.13" d="M36.158 19.661C35.454 20.076 34.914 20.158 34.79 22.356C34.665 24.556 34.832 26.463 34.832 26.92C34.832 27.376 34.832 27.542 34.542 27.832C34.25 28.123 34.292 28.62 34.292 28.702C34.292 28.786 33.837 38.865 33.837 38.865L34.997 39.944"/>
 <path stroke-width="0.13" d="M37.445 24.39C37.445 24.39 37.362 26.795 37.362 26.836C37.362 26.878 36.74 27.458 36.905 27.957C37.072 28.454 37.527 28.702 37.527 28.702C37.527 28.702 37.694 35.298 37.734 35.34"/>
 <path stroke-width="0.13" d="M34.582 34.883C34.582 34.924 34.625 33.348 34.625 33.348C34.625 33.348 35.081 33.14 35.164 33.804C35.246 34.469 35.287 35.091 35.287 35.091C35.287 35.091 35.619 34.883 35.868 35.008C36.118 35.131 36.034 35.463 37.362 35.423"/>
 <path stroke-width="0.13" d="M40.173 19.018C39.826 18.792 39.207 18.655 38.527 18.626C37.847 18.596 36.683 18.611 36.911 20.03C37.137 21.451 37.68 22.99 37.68 22.99C37.68 22.99 37.408 23.414 37.423 23.609C37.439 23.806 37.636 23.943 37.756 24.094C37.877 24.245 37.877 24.245 37.877 24.245C37.877 24.245 38.616 26.766 38.616 26.782C38.616 26.797 38.481 27.024 38.616 27.219C38.753 27.417 40.293 27.19 41.155 26.676"/>
 <path stroke-width="0.13" d="M42.258 21.42C42.439 21.42 43.314 21.451 43.481 20.771C43.646 20.091 43.435 19.472 42.966 19.26C42.499 19.048 41.32 18.716 40.883 18.762C40.445 18.806 39.75 19.109 39.584 20.242C39.417 21.375 39.598 22.673 39.598 22.673C39.598 22.673 39.478 22.809 39.478 22.946C39.478 23.082 39.509 25.695 39.509 25.695C39.509 25.695 39.402 25.815 39.372 25.981C39.341 26.147 39.267 26.373 39.628 26.449C39.991 26.524 40.671 26.585 41.442 26.524C42.212 26.464 42.302 26.48 42.302 26.449C42.302 26.42 42.469 26.222 42.408 26.042C42.347 25.861 42.226 25.754 42.226 25.754C42.226 25.754 42.06 23.655 42.06 23.323C42.06 22.99 42.06 22.839 41.954 22.734C41.85 22.629 41.924 21.164 41.97 20.786"/>
 <path stroke-width="0.13" d="M42.121 22.87L42.982 22.855L43.057 21.963C43.057 21.963 44.039 22.009 44.478 21.993C44.915 21.978 45.426 21.937 45.414 21.178"/>
 <g>
  <path stroke-width="0.13" d="M44.771 34.801C44.771 34.448 44.484 34.161 44.13 34.161C43.777 34.161 43.49 34.448 43.49 34.801C43.49 35.155 43.777 35.442 44.13 35.442C44.484 35.442 44.771 35.155 44.771 34.801"/>
 </g>
 <g>
  <path stroke-width="0.13" d="M44.982 38.457C44.982 38.103 44.695 37.817 44.341 37.817C43.987 37.817 43.701 38.103 43.701 38.457C43.701 38.811 43.987 39.097 44.341 39.097C44.695 39.097 44.982 38.811 44.982 38.457"/>
 </g>
 <path stroke-width="0.3" d="M33.6 17.266C33.6 17.266 30.783 16.983 30.1 17.021C29.417 17.06 29.126 17.684 29.515 18.64C29.905 19.594 30.493 21.198 30.493 21.198"/>
 <g>
  <path stroke-width="0.13" d="M30.949 17.978C30.949 17.6 30.643 17.295 30.265 17.295C29.888 17.295 29.582 17.6 29.582 17.978C29.582 18.355 29.888 18.66 30.265 18.66C30.643 18.66 30.949 18.355 30.949 17.978"/>
 </g>
 <g>
  <path stroke-width="0.13" d="M31.585 12.627C31.585 12.371 31.378 12.166 31.123 12.166C30.87 12.166 30.663 12.371 30.663 12.627C30.663 12.881 30.87 13.086 31.123 13.086C31.378 13.086 31.585 12.881 31.585 12.627"/>
 </g>
 <g>
  <path stroke-width="0.3" d="M33.424 17.248L33.472 15.91L33.101 14.975L31.678 14.916"/>
  <path stroke-width="0.13" d="M31.678 14.916C31.678 14.916 31.309 15.814 31.309 15.833C31.309 15.852 31.243 17.064 31.225 17.062"/>
 </g>
 <path stroke-width="0.13" d="M33.101 14.975L32.713 15.91L32.673 17.178"/>
 <line stroke-width="0.13" x1="32.713" y1="15.91" x2="31.425" y2="15.891"/>
 <path stroke-width="0.13" d="M30.974 17.045C30.939 15.833 31.289 14.234 31.64 14.234C31.99 14.234 32.049 14.82 32.088 14.936"/>
 <path stroke-width="0.3" d="M32.264 14.955C32.264 14.955 32.167 14.021 32.011 13.903C31.855 13.787 31.446 13.727 31.425 13.727C31.407 13.727 28.19 13.747 28.19 13.747C28.19 13.747 27.449 14.06 27.469 14.214"/>
 <line stroke-width="0.13" x1="27.323" y1="11.67" x2="27.323" y2="13.942"/>
 <line stroke-width="0.13" x1="29.115" y1="11.657" x2="29.115" y2="13.611"/>
 <path stroke-width="0.13" d="M30.022 11.759C30.022 11.759 29.768 13.138 30.257 13.435C30.745 13.731 31.815 13.865 31.951 13.064C32.088 12.266 32.066 11.634 32.066 11.634"/>
 <path stroke-width="0.3" d="M17.649 11.91C15.788 12.06 13.867 12.96 13.176 13.771C12.487 14.58 11.586 15.541 11.586 15.541"/>
 <path stroke-width="0.3" d="M27.469 14.214C27.469 14.214 25.812 14.07 25.812 14.101C25.812 14.131 25.751 13.621 24.431 13.56C23.111 13.5 18.458 13.529 16.748 13.74C15.038 13.951 13.086 14.73 12.336 15.451"/>
 <path stroke-width="0.13" d="M30.373 25.565C30.343 25.565 28.722 26.254 28.722 26.254C28.722 26.254 28.963 24.155 28.812 22.984C28.663 21.814 27.821 20.553 26.532 20.463C25.24 20.373 18.818 20.193 18.818 20.193C18.818 20.193 18.579 19.952 18.189 19.832C17.798 19.713 16.628 19.862 16.628 19.862C16.628 19.862 16.957 19.292 16.388 18.542C15.817 17.792 15.038 17.402 15.038 17.402"/>
 <path stroke-width="0.3" d="M6.424 19.893L5.344 19.772L5.373 20.073C5.373 20.073 3.452 20.163 3.063 20.823C2.673 21.484 1.893 21.152 2.043 25.355L1.983 26.285C1.983 26.285 1.563 26.254 1.411 26.734C1.262 27.216 1.351 27.696 1.563 27.696C1.773 27.696 1.773 27.696 1.773 27.696C1.773 27.696 1.833 42.642 1.802 43.512C1.773 44.381 1.893 44.741 2.492 45.372C3.092 46.003 4.293 47.533 4.774 47.862C5.253 48.194 5.373 48.524 6.033 48.554C6.694 48.584 7.205 48.134 7.384 48.704C7.564 49.274 9.275 49.334 9.965 49.484C10.656 49.634 12.426 49.543 13.057 49.573C13.686 49.603 20.559 49.634 21.579 49.634C21.757 49.634 21.878 49.646 21.958 49.667"/>
 <path stroke-width="0.13" d="M22.265 49.627C22.265 49.627 25.001 49.363 25.091 48.223C25.181 47.082 25.422 46.993 26.231 46.692C27.042 46.393 27.492 46.243 27.492 46.243"/>
 <line stroke-width="0.13" x1="1.563" y1="27.696" x2="24.4" y2="27.696"/>
 <path stroke-width="0.13" d="M24.4 27.696C27.102 27.995 29.617 27.216 30.515 26.865"/>
 <line stroke-width="0.13" x1="5.373" y1="20.073" x2="5.344" y2="26.568"/>
 <line stroke-width="0.13" x1="5.339" y1="27.696" x2="5.253" y2="47.143"/>
 <line stroke-width="0.13" x1="6.814" y1="23.074" x2="6.823" y2="26.579"/>
 <line stroke-width="0.13" x1="6.825" y1="27.696" x2="6.875" y2="46.662"/>
 <line stroke-width="0.13" x1="15.397" y1="23.914" x2="15.41" y2="26.646"/>
 <line stroke-width="0.13" x1="15.416" y1="27.696" x2="15.518" y2="48.584"/>
 <line stroke-width="0.13" x1="16.538" y1="24.515" x2="16.559" y2="26.602"/>
 <line stroke-width="0.13" x1="16.571" y1="27.696" x2="16.777" y2="48.103"/>
 <g>
  <path stroke-width="0.13" d="M14.343 19.375C14.343 18.286 13.903 17.303 13.191 16.591"/>
  <path stroke-width="0.3" d="M13.191 16.591C12.422 15.821 11.413 15.438 10.407 15.438C8.231 15.438 6.469 17.199 6.469 19.375C6.469 20.461 6.91 21.446 7.623 22.158"/>
  <path stroke-width="0.13" d="M7.623 22.158C8.391 22.926 9.399 23.312 10.407 23.312C12.58 23.312 14.343 21.548 14.343 19.375"/>
 </g>
 <path stroke="none" fill="#000000" d="M14.278 19.375C14.278 18.304 13.785 17.397 13.083 16.696L13.297 16.484C14.021 17.208 14.409 18.269 14.409 19.375L14.278 19.375z"/>
 <path stroke="none" fill="#000000" d="M7.729 22.051L7.517 22.265C8.314 23.062 9.361 23.376 10.407 23.376L10.407 23.246C9.436 23.246 8.468 22.792 7.729 22.051z"/>
 <g>
  <path stroke-width="0.3" d="M13.782 19.384C13.782 17.474 12.234 15.926 10.324 15.926C9.369 15.926 8.506 16.312 7.879 16.939"/>
  <path stroke-width="0.13" d="M7.879 16.939C7.205 17.614 6.867 18.498 6.867 19.384C6.867 21.292 8.414 22.841 10.324 22.841C11.279 22.841 12.144 22.454 12.769 21.829"/>
  <path stroke-width="0.3" d="M12.769 21.829C13.445 21.153 13.782 20.268 13.782 19.384"/>
 </g>
 <path stroke="none" fill="#000000" d="M7.985 17.045C7.339 17.69 6.932 18.536 6.932 19.384L6.801 19.384C6.801 18.46 7.068 17.536 7.774 16.832L7.985 17.045z"/>
 <path stroke="none" fill="#000000" d="M10.324 22.775L10.324 22.905C11.298 22.905 12.239 22.571 12.875 21.934L12.663 21.722C12.05 22.336 11.262 22.775 10.324 22.775z"/>
 <g>
  <path stroke-width="0.13" d="M16.628 19.862C15.554 19.939 15.542 19.591 15.579 19.138"/>
  <path stroke-width="0.3" d="M15.579 19.138C15.615 18.684 15.651 18.358 15.038 17.402C14.423 16.446 11.407 15.567 11.407 15.567"/>
 </g>
 <path stroke-width="0.13" d="M9.343 23.166C9.343 23.166 10.842 23.984 12.893 23.222C14.943 22.46 15.324 20.917 15.416 20.573"/>
 <path stroke-width="0.13" d="M13.397 20.971C13.397 20.971 13.31 20.172 12.91 20.263C12.512 20.355 9.118 21.135 9.118 21.135"/>
 <path stroke-width="0.13" d="M12.003 16.905C9.753 16.905 8.333 18.876 8.846 20.789"/>
 <path stroke-width="0.13" d="M39.487 51.576C39.884 52.121 42.472 52.633 43.368 52.505"/>
 <path stroke-width="0.13" d="M39.228 52.926C39.936 53.658 42.234 54.313 42.878 53.92"/>
 <g>
  <path stroke-width="0.13" d="M21.221 8.067C21.221 7.703 20.926 7.408 20.562 7.408C20.199 7.408 19.905 7.703 19.905 8.067C19.905 8.429 20.199 8.724 20.562 8.724C20.926 8.724 21.221 8.429 21.221 8.067"/>
 </g>
 <g>
  <path stroke-width="0.13" d="M38.987 41.509C38.987 41.308 38.826 41.146 38.625 41.146C38.426 41.146 38.264 41.308 38.264 41.509C38.264 41.709 38.426 41.871 38.625 41.871C38.826 41.871 38.987 41.709 38.987 41.509"/>
 </g>
 <path stroke-width="0.3" d="M7.623 22.158C7.9 22.696 9.33 23.234 9.823 23.355"/>
 <text transform="matrix(0 -1 1 0 67.59 59.006)" stroke="none" fill="#000000" font-family="'Arial'" font-size="2.117">323 017</text>
 <g>
  <path stroke-width="0.13" d="M28.699 12.721C28.699 12.467 28.493 12.26 28.239 12.26C27.984 12.26 27.778 12.467 27.778 12.721C27.778 12.975 27.984 13.182 28.239 13.182C28.493 13.182 28.699 12.975 28.699 12.721"/>
 </g>
 <path stroke-width="0.3" d="M21.958 49.667C21.958 49.667 24.071 49.598 24.978 49.518C25.885 49.438 28.025 48.215 28.05 47.424"/>
 <path stroke-width="0.3" d="M9.294 49.378C9.294 49.378 9.205 54.116 9.125 54.156C9.044 54.198 8.682 54.682 8.399 55.003C8.117 55.326 8.641 55.408 8.843 55.85C9.044 56.295 11.061 56.255 11.909 56.213"/>
 <path stroke-width="0.3" d="M14.759 49.597C14.759 49.597 14.611 54.116 14.692 54.156C14.772 54.198 15.135 54.682 15.417 55.003C15.701 55.326 15.176 55.408 14.974 55.85C14.772 56.295 12.756 56.255 11.909 56.213"/>
 <line stroke-width="0.3" x1="18.743" y1="49.604" x2="18.743" y2="54.923"/>
 <line stroke-width="0.3" x1="21.315" y1="49.613" x2="21.315" y2="54.932"/>
 <path stroke-width="0.3" d="M18.743 54.923C18.448 55.241 18.57 55.689 18.916 55.811C19.262 55.933 20.992 55.872 21.317 55.668C21.643 55.466 21.518 55.192 21.315 54.932"/>
 <line stroke-width="0.3" x1="22.803" y1="49.655" x2="22.803" y2="54.975"/>
 <line stroke-width="0.3" x1="25.297" y1="49.457" x2="25.375" y2="54.984"/>
 <path stroke-width="0.3" d="M22.803 54.975C22.507 55.292 22.629 55.74 22.975 55.862C23.321 55.984 25.05 55.923 25.376 55.72C25.701 55.517 25.576 55.243 25.375 54.984"/>
 <path stroke="none" fill="#000000" d="M33.472 15.91L38.188 12.053 36.584 10.673 33.472 15.91z"/>
 <line stroke-width="0.3" x1="36.994" y1="11.817" x2="47.033" y2="0.15"/>
</svg>
