<?xml version="1.0" encoding="utf-8"?>
<!DOCTYPE svg PUBLIC "-//W3C//DTD SVG 1.1//EN" "http://www.w3.org/Graphics/SVG/1.1/DTD/svg11.dtd">
<!-- Generator: PTC Arbortext IsoDraw 7.3 -->
<svg id="Standard_x0020_layer" width="100%" height="100%" viewBox="0 0 74.397 59.607"
 xmlns="http://www.w3.org/2000/svg" xmlns:xlink="http://www.w3.org/1999/xlink"
 fill-rule="evenodd" clip-rule="evenodd" stroke="#000000" stroke-linecap="round" fill="none" xml:space="preserve">
 <path stroke="none" fill="#BFBFBF" d="M33.862 26.914C35.814 25.184 36.729 25.199 37.444 25.945 38.158 26.69 39.552 27.695 39.496 29.257 39.442 30.818 40.11 32.659 39.832 36.231 39.552 39.801 41.594 43.997 42.399 44.99 43.203 45.982 46.332 50.069 46.47 51.908 46.609 53.747 46.917 55.646 45.243 56.036 43.57 56.427 40.948 54.195 40.445 52.298 39.944 50.402 37.823 46.607 37.6 45.045 37.377 43.484 36.484 36.844 36.484 35.45 36.484 34.054 35.576 28.742 34.104 28.943L33.862 26.914z"/>
 <path stroke="none" fill="#404040" d="M33.241 30.077L31.153 31.399 31.661 34.801C31.661 34.801 32.874 40.262 32.871 40.25 32.868 40.238 35.02 47.049 35.02 47.049 35.02 47.049 37.399 52.832 37.408 52.85 37.417 52.869 39.411 56.932 39.368 56.847 39.325 56.765 40.796 59.453 40.796 59.453L43.115 59.457 41.209 55.923 39.011 51.243C39.011 51.243 36.884 45.811 36.865 45.759 36.847 45.707 35.137 40.17 35.137 40.17L33.884 34.6 33.241 30.077z"/>
 <path stroke="none" fill="#404040" d="M46.651 6.49L40.256 8.548 37.761 10.21C37.761 10.21 35.648 12.912 35.579 13.032 35.512 13.154 34.286 16.004 34.274 16.044 34.261 16.082 33.253 20.728 33.261 20.678 33.267 20.629 33.033 23.303 33.033 23.303L33.015 26.82 31.908 26.635 30.818 27.173 30.827 23.631C30.827 23.631 31.25 19.504 31.265 19.408 31.282 19.312 32.094 15.923 32.094 15.923L33.356 12.814 34.615 10.771C34.615 10.771 35.899 9.275 35.991 9.186 36.085 9.098 37.683 7.833 37.79 7.767 37.898 7.7 39.338 6.966 39.384 6.948 39.429 6.929 40.85 6.471 40.901 6.459 40.951 6.448 42.578 6.192 42.578 6.192L43.994 6.155 46.651 6.49z"/>
 <polygon stroke-width="0.13" points="0.15 0.065 74.245 0.065 74.245 59.456 0.15 59.456 0.15 0.065"/>
 <g>
  <path stroke-width="0.3" d="M74.246 23.958C65.266 10.028 54.533 3.419 47.35 6.485"/>
  <path stroke-width="0.13" d="M47.35 6.485C38.034 10.615 37.616 30.048 46.415 49.889C47.972 53.396 49.71 56.683 51.43 59.453"/>
 </g>
 <path stroke="none" fill="#000000" d="M47.411 6.623C42.771 8.679 40.296 14.505 40.128 22.329L40.051 22.263C40.222 14.378 42.613 8.422 47.289 6.347L47.411 6.623z"/>
 <g>
  <path stroke-width="0.3" d="M49.805 10.224C41.46 13.718 40.728 30.96 48.17 48.735C49.84 52.723 51.78 56.399 53.75 59.457"/>
  <path stroke-width="0.13" d="M74.248 27.724C66.465 14.31 56.536 7.509 49.805 10.224"/>
 </g>
 <path stroke="none" fill="#000000" d="M64.435 15.227C58.863 10.188 53.723 8.746 49.863 10.362L49.747 10.086C53.622 8.464 58.847 10.067 64.439 15.127L64.435 15.227z"/>
 <path stroke-width="0.13" d="M48.381 12.032C57.283 14.096 68.762 27.768 74.245 45.57"/>
 <path stroke-width="0.13" d="M43.036 26.253C43.609 26.608 48.253 29.187 48.253 29.317C48.253 29.446 57.154 44.28 57.154 44.28L59.991 59.456"/>
 <path stroke-width="0.13" d="M58.444 44.537C63.28 42.409 69.408 39.765 69.665 38.99"/>
 <path stroke-width="0.13" d="M48.381 28.155C52.639 26.221 59.088 23.382 58.831 21.705"/>
 <g>
  <path stroke-width="0.3" d="M40.255 8.548C35.134 10.82 32.701 17.716 33.015 26.82"/>
  <path stroke-width="0.3" d="M33.241 30.077C34.235 39.853 37.957 50.432 43.115 59.457"/>
 </g>
 <line stroke-width="0.3" x1="40.256" y1="8.548" x2="47.35" y2="6.485"/>
 <g>
  <path stroke-width="0.3" d="M47.101 6.594C36.636 4.025 30.349 12.669 30.818 27.173"/>
  <path stroke-width="0.3" d="M31.153 31.399C32.287 40.895 35.872 50.865 40.796 59.453"/>
 </g>
 <g>
  <path stroke-width="0.13" d="M38.713 5.966C32.24 8.903 29.051 17.21 29.344 27.873"/>
  <path stroke-width="0.13" d="M29.664 32.299C30.716 41.579 34.039 51.159 38.659 59.454"/>
  <path stroke-width="0.3" d="M49.531 5.839C45.343 4.437 41.637 4.58 38.713 5.966"/>
 </g>
 <path stroke="none" fill="#000000" d="M38.776 6.102C33.161 8.65 29.972 15.21 29.443 23.824L29.361 23.76C29.893 15.086 32.996 8.396 38.652 5.83L38.776 6.102z"/>
 <path stroke-width="0.3" d="M38.707 5.969C32.859 8.406 26.434 13.031 27.155 28.978"/>
 <path stroke-width="0.3" d="M27.503 33.387C29.315 50.569 34.225 56.777 35.353 59.456"/>
 <path stroke-width="0.3" d="M6.283 59.109C6.479 58.962 21.996 38.368 23.949 36.222C25.9 34.075 27.266 33.392 29.12 32.561C30.975 31.733 31.512 31.001 32.78 30.365C34.049 29.731 34.587 28.268 34.049 27.437C33.512 26.609 32.048 26.658 31.219 26.998C30.39 27.341 24.73 30.024 23.021 31.635C21.314 33.244 0.15 59.456 0.15 59.456"/>
 <g>
  <path stroke-width="0.13" d="M45.319 7.076C36.496 11.766 36.378 30.878 44.939 50.21C46.441 53.594 48.112 56.771 49.759 59.454"/>
 </g>
 <g>
  <path stroke-width="0.13" d="M44.101 7.334C35.28 12.025 35.162 31.135 43.723 50.468C45.18 53.753 46.799 56.844 48.389 59.456"/>
 </g>
 <g>
  <path stroke-width="0.13" d="M42.768 7.78C33.945 12.47 33.828 31.58 42.389 50.912C43.771 54.027 45.296 56.968 46.789 59.457"/>
 </g>
 <path stroke-width="0.3" d="M25.972 34.325C25.972 34.325 28.667 52.372 28.763 53.511C28.858 54.649 30.28 57.622 31.609 59.456"/>
 <line stroke-width="0.13" x1="28.928" y1="54.267" x2="32.148" y2="52.988"/>
 <text transform="matrix(0 -1 1 0 73.01 58.159)" stroke="none" fill="#000000" font-family="'Arial'" font-size="2.117">322 604</text>
</svg>
