<?xml version="1.0" encoding="utf-8"?>
<!DOCTYPE svg PUBLIC "-//W3C//DTD SVG 1.1//EN" "http://www.w3.org/Graphics/SVG/1.1/DTD/svg11.dtd">
<!-- Generator: PTC Arbortext IsoDraw 7.3 -->
<svg id="Standard_x0020_layer" width="100%" height="100%" viewBox="0 0 73.477 93.986"
 xmlns="http://www.w3.org/2000/svg" xmlns:xlink="http://www.w3.org/1999/xlink"
 fill-rule="evenodd" clip-rule="evenodd" stroke="#000000" stroke-linecap="round" fill="none" xml:space="preserve">
 <path stroke="none" fill="#BFBFBF" d="M61.939 88.79L55.268 88.79 55.107 89.245 53.448 89.245 51.344 89.596 48.902 89.304 47.393 89.245 47.393 88.79 40.783 89.013 42.764 90.879 45.475 92.519 48.433 93.492C48.433 93.492 51.189 93.784 51.22 93.784 51.253 93.784 53.417 93.828 53.417 93.828L56.491 92.765C56.491 92.765 58.368 91.832 58.381 91.825 58.396 91.816 60.61 90.786 60.292 90.456L61.939 88.79z"/>
 <path stroke="none" fill="#BFBFBF" d="M41.53 76.7L41.53 80.371C41.53 80.371 42.021 82.861 42.014 82.843 42.008 82.822 43.1 85.144 43.087 85.121 43.072 85.099 44.536 86.894 44.383 86.736 44.228 86.576 39.171 86.736 39.171 86.736L38.143 84.468 37.447 81.394 37.363 76.7 41.53 76.7z"/>
 <path stroke="none" fill="#BFBFBF" d="M65.212 76.7L65.159 80.397C65.159 80.397 64.917 82.519 64.911 82.551 64.905 82.581 64.216 85.054 64.216 85.054L63.36 86.736 58.372 86.737 59.57 84.923 60.637 82.447 61.045 79.881 61.045 76.7 65.212 76.7z"/>
 <path stroke="none" fill="#BFBFBF" d="M65.221 59.601L61.079 59.601 61.079 73.719 65.221 73.903 65.221 59.601z"/>
 <path stroke="none" fill="#BFBFBF" d="M65.102 42.67L65.102 56.624 61.142 56.805 61.142 42.67 65.102 42.67z"/>
 <path stroke="none" fill="#BFBFBF" d="M55.161 34.067C55.161 34.067 55.789 35.395 55.911 35.387 56.03 35.378 57.037 36.298 57.048 36.307 57.06 36.314 58.155 36.853 58.173 36.86 58.192 36.868 59.21 37.145 59.307 37.165 59.404 37.185 60.387 37.643 60.387 37.643L61.112 38.475 61.112 39.902 65.015 39.777 65.015 33.951 61.17 34.037 61.17 35.966 59.978 35.356 58.216 34.993 57.216 33.953 55.161 34.067z"/>
 <path stroke="none" fill="#BFBFBF" d="M37.354 59.601C37.354 59.601 37.354 73.737 37.354 73.706 37.354 73.674 41.497 73.903 41.497 73.903L41.497 59.601 37.354 59.601z"/>
 <path stroke="none" fill="#BFBFBF" d="M41.435 42.67L41.435 56.805 37.475 56.805 37.475 42.67 41.435 42.67z"/>
 <path stroke="none" fill="#BFBFBF" d="M46.008 30.919L47.901 30.919C47.901 30.919 47.862 32.74 47.868 32.709 47.874 32.677 47.387 34.124 47.387 34.124 47.387 34.124 46.182 35.606 46.298 35.652 46.411 35.698 45.334 36.427 45.334 36.427L44.075 36.969 42.935 37.258 42.232 37.615 41.465 38.475 41.465 39.902 37.561 39.695 37.561 30.919 41.405 30.919 41.405 36.058 42.484 35.399 43.853 35.039 44.816 34.616 45.421 33.838 46.008 30.919z"/>
 <g>
  <path stroke-width="0.13" d="M40.756 18.684C40.756 17.94 40.152 17.338 39.408 17.338C38.665 17.338 38.063 17.94 38.063 18.684C38.063 19.428 38.665 20.03 39.408 20.03C40.152 20.03 40.756 19.428 40.756 18.684"/>
 </g>
 <g>
  <path stroke-width="0.13" d="M41.274 18.684C41.274 17.653 40.439 16.818 39.408 16.818C38.378 16.818 37.543 17.653 37.543 18.684C37.543 19.714 38.378 20.55 39.408 20.55C40.439 20.55 41.274 19.714 41.274 18.684"/>
 </g>
 <polygon stroke-width="0.13" points="41.93 18.684 40.67 16.501 38.148 16.501 36.887 18.684 38.148 20.867 40.67 20.867 41.93 18.684"/>
 <polygon stroke-width="0.13" points="53.103 21.262 52.195 19.69 50.381 19.69 49.473 21.262 50.381 22.833 52.195 22.833 53.103 21.262"/>
 <g>
  <path stroke-width="0.13" d="M52.859 21.262C52.859 20.393 52.155 19.69 51.289 19.69C50.42 19.69 49.716 20.393 49.716 21.262C49.716 22.129 50.42 22.833 51.289 22.833C52.155 22.833 52.859 22.129 52.859 21.262"/>
 </g>
 <g>
  <path stroke-width="0.13" d="M52.097 21.262C52.097 20.815 51.734 20.454 51.289 20.454C50.841 20.454 50.479 20.815 50.479 21.262C50.479 21.708 50.841 22.07 51.289 22.07C51.734 22.07 52.097 21.708 52.097 21.262"/>
 </g>
 <g>
  <path stroke-width="0.13" d="M43.819 18.062C43.819 17.626 43.465 17.271 43.027 17.271C42.59 17.271 42.235 17.626 42.235 18.062C42.235 18.501 42.59 18.855 43.027 18.855C43.465 18.855 43.819 18.501 43.819 18.062"/>
 </g>
 <g>
  <path stroke-width="0.13" d="M44.273 18.062C44.273 17.375 43.715 16.818 43.027 16.818C42.338 16.818 41.781 17.375 41.781 18.062C41.781 18.751 42.338 19.309 43.027 19.309C43.715 19.309 44.273 18.751 44.273 18.062"/>
 </g>
 <g>
  <path stroke-width="0.13" d="M48.061 17.318C48.061 16.629 47.503 16.071 46.816 16.071C46.701 16.071 46.59 16.088 46.493 16.114"/>
  <path stroke-width="0.13" d="M46.904 18.561C47.558 18.515 48.06 17.969 48.061 17.318"/>
 </g>
 <line stroke-width="0.13" x1="47.054" y1="18.53" x2="43.265" y2="19.275"/>
 <line stroke-width="0.13" x1="46.533" y1="16.106" x2="42.743" y2="16.852"/>
 <g>
  <path stroke-width="0.3" d="M50.008 17.321C50.008 15.531 48.557 14.08 46.765 14.08C46.612 14.08 46.462 14.089 46.332 14.108"/>
  <path stroke-width="0.3" d="M47.125 20.542C48.779 20.359 50.003 18.96 50.008 17.321"/>
 </g>
 <g>
  <path stroke-width="0.3" d="M38.84 15.493C37.274 15.772 36.174 17.129 36.167 18.684C36.167 20.475 37.618 21.925 39.408 21.925C39.595 21.925 39.779 21.91 39.938 21.882"/>
 </g>
 <line stroke-width="0.3" x1="38.84" y1="15.493" x2="46.332" y2="14.108"/>
 <line stroke-width="0.3" x1="39.938" y1="21.882" x2="47.593" y2="20.455"/>
 <g>
  <path stroke-width="0.13" d="M53.39 21.262C53.39 20.102 52.448 19.161 51.289 19.161C50.128 19.161 49.188 20.102 49.188 21.262C49.188 22.422 50.128 23.362 51.289 23.362C52.448 23.362 53.39 22.422 53.39 21.262"/>
 </g>
 <line stroke-width="0.13" x1="49.188" y1="21.262" x2="49.188" y2="23.804"/>
 <line stroke-width="0.13" x1="53.39" y1="21.262" x2="53.39" y2="23.754"/>
 <line stroke-width="0.13" x1="51.442" y1="23.829" x2="47.359" y2="23.829"/>
 <line stroke-width="0.13" x1="46.593" y1="23.829" x2="40.2" y2="23.829"/>
 <g>
  <polyline stroke-width="0.13" points="39.432 23.829 32.612 23.829"/>
  <polyline stroke-width="0.3" points="32.612 23.829 32.612 25.413 51.295 25.413"/>
 </g>
 <polyline stroke-width="0.13" points="47.359 23.829 47.359 23.137 46.593 23.137 46.593 23.829"/>
 <polyline stroke-width="0.13" points="40.201 23.846 40.201 23.152 39.432 23.152 39.432 23.846"/>
 <line stroke-width="0.13" x1="36.896" y1="20.733" x2="36.896" y2="23.829"/>
 <g>
  <polyline stroke-width="0.13" points="36.896 23.213 32.625 23.213"/>
  <polyline stroke-width="0.3" points="32.625 23.213 32.625 23.829"/>
 </g>
 <polyline stroke-width="0.3" points="35.887 25.413 35.887 26.347 35.406 26.347 35.406 27.132 35.844 27.132 35.844 30.496 36.237 30.919 66.34 30.919"/>
 <polyline stroke-width="0.13" points="36.353 25.486 36.353 29.928 36.82 30.394 38.057 30.394"/>
 <line stroke-width="0.13" x1="39.061" y1="30.394" x2="42.308" y2="30.394"/>
 <line stroke-width="0.13" x1="43.619" y1="30.394" x2="48.686" y2="30.394"/>
 <line stroke-width="0.13" x1="49.488" y1="30.394" x2="51.396" y2="30.394"/>
 <polyline stroke-width="0.13" points="36.353 27.146 36.951 27.146 36.951 30.394"/>
 <polyline stroke-width="0.13" points="38.057 30.394 38.057 26.986 38.799 26.274 42.192 26.274"/>
 <line stroke-width="0.13" x1="42.28" y1="26.245" x2="42.28" y2="25.413"/>
 <line stroke-width="0.13" x1="43.226" y1="25.413" x2="43.226" y2="30.817"/>
 <line stroke-width="0.13" x1="38.057" y1="30.394" x2="38.057" y2="30.919"/>
 <polyline stroke-width="0.13" points="39.061 30.846 39.061 30.394 38.479 28.414"/>
 <polyline stroke-width="0.13" points="38.479 30.903 38.479 27.205 42.308 27.205 42.308 30.919"/>
 <line stroke-width="0.13" x1="38.479" y1="27.628" x2="42.308" y2="27.628"/>
 <polyline stroke-width="0.13" points="43.619 30.919 43.619 27.263 43.226 27.263"/>
 <path stroke-width="0.3" d="M46.008 30.919C45.95 33.088 45.396 34.807 43.853 35.039C42.308 35.273 41.551 35.884 41.405 36.058"/>
 <path stroke-width="0.3" d="M47.901 30.919C48.25 33.38 46.939 35.039 46.094 35.854C45.25 36.67 44.057 37.02 43.27 37.165C42.484 37.31 41.523 38.039 41.465 38.475"/>
 <line stroke-width="0.13" x1="41.435" y1="30.919" x2="41.435" y2="39.902"/>
 <polygon stroke-width="0.3" points="37.037 39.874 41.871 39.874 41.871 42.67 37.037 42.67 37.037 39.874"/>
 <line stroke-width="0.3" x1="37.561" y1="39.874" x2="37.561" y2="30.919"/>
 <line stroke-width="0.3" x1="37.475" y1="42.67" x2="37.475" y2="56.805"/>
 <line stroke-width="0.3" x1="41.435" y1="42.67" x2="41.435" y2="56.805"/>
 <g>
  <polyline stroke-width="0.3" points="48.686 30.919 48.686 42.204"/>
  <polyline stroke-width="0.13" points="48.686 42.204 49.356 42.204"/>
  <polyline stroke-width="0.3" points="49.356 42.204 49.356 62.405"/>
 </g>
 <line stroke-width="0.13" x1="49.356" y1="42.204" x2="51.482" y2="42.204"/>
 <polygon stroke-width="0.3" points="36.979 56.805 41.814 56.805 41.814 59.601 36.979 59.601 36.979 56.805"/>
 <line stroke-width="0.3" x1="37.354" y1="59.601" x2="37.354" y2="73.903"/>
 <line stroke-width="0.3" x1="41.497" y1="59.601" x2="41.497" y2="73.903"/>
 <polygon stroke-width="0.3" points="37.018 73.903 41.853 73.903 41.853 76.7 37.018 76.7 37.018 73.903"/>
 <line stroke-width="0.3" x1="37.363" y1="76.7" x2="37.363" y2="80.855"/>
 <line stroke-width="0.3" x1="41.53" y1="76.7" x2="41.53" y2="80.371"/>
 <line stroke-width="0.3" x1="49.28" y1="72.49" x2="49.28" y2="86.737"/>
 <polyline stroke-width="0.3" points="51.826 86.737 36.923 86.737 36.923 88.132 37.539 88.79 52.031 88.79"/>
 <polyline stroke-width="0.3" points="38.359 88.79 38.359 90.063 40.289 90.063 40.289 88.79"/>
 <line stroke-width="0.3" x1="38.359" y1="86.737" x2="38.359" y2="85.054"/>
 <g>
  <path stroke-width="0.3" d="M37.363 79.881C37.363 82.402 38.034 84.766 39.171 86.736"/>
  <path stroke-width="0.3" d="M40.594 88.79C43.335 92.075 47.271 93.774 51.267 93.784C55.545 93.784 59.371 91.852 61.939 88.79"/>
  <path stroke-width="0.3" d="M63.36 86.736C64.566 84.609 65.15 82.299 65.168 80.093"/>
 </g>
 <g>
  <path stroke-width="0.3" d="M41.554 80.135C41.622 82.721 42.695 85.043 44.383 86.736"/>
  <path stroke-width="0.3" d="M48.682 89.245C50.456 89.734 52.249 89.7 53.85 89.245"/>
  <path stroke-width="0.3" d="M58.149 86.736C60.037 84.84 60.981 82.361 60.981 79.881"/>
 </g>
 <g>
  <path stroke-width="0.13" d="M64.513 18.684C64.513 17.94 63.911 17.338 63.167 17.338C62.423 17.338 61.822 17.94 61.822 18.684C61.822 19.428 62.423 20.03 63.167 20.03C63.911 20.03 64.513 19.428 64.513 18.684"/>
 </g>
 <g>
  <path stroke-width="0.13" d="M65.033 18.684C65.033 17.653 64.197 16.818 63.167 16.818C62.137 16.818 61.302 17.653 61.302 18.684C61.302 19.714 62.137 20.55 63.167 20.55C64.197 20.55 65.033 19.714 65.033 18.684"/>
 </g>
 <polygon stroke-width="0.13" points="60.646 18.684 61.906 16.501 64.429 16.501 65.688 18.684 64.429 20.867 61.906 20.867 60.646 18.684"/>
 <g>
  <path stroke-width="0.13" d="M60.341 18.062C60.341 17.626 59.987 17.271 59.549 17.271C59.112 17.271 58.758 17.626 58.758 18.062C58.758 18.501 59.112 18.855 59.549 18.855C59.987 18.855 60.341 18.501 60.341 18.062"/>
 </g>
 <g>
  <path stroke-width="0.13" d="M60.795 18.062C60.795 17.375 60.237 16.818 59.549 16.818C58.862 16.818 58.304 17.375 58.304 18.062C58.304 18.751 58.862 19.309 59.549 19.309C60.237 19.309 60.795 18.751 60.795 18.062"/>
 </g>
 <g>
  <path stroke-width="0.13" d="M56.084 16.114C55.972 16.085 55.862 16.071 55.761 16.071C55.073 16.071 54.515 16.629 54.515 17.318C54.515 17.975 55.024 18.513 55.673 18.561"/>
 </g>
 <line stroke-width="0.13" x1="55.521" y1="18.53" x2="59.31" y2="19.275"/>
 <line stroke-width="0.13" x1="56.043" y1="16.106" x2="59.832" y2="16.852"/>
 <g>
  <path stroke-width="0.3" d="M56.244 14.108C56.094 14.087 55.942 14.079 55.811 14.08C54.02 14.08 52.569 15.531 52.569 17.321C52.569 18.984 53.822 20.356 55.451 20.542"/>
 </g>
 <g>
  <path stroke-width="0.3" d="M66.409 18.684C66.409 17.096 65.266 15.774 63.737 15.493"/>
  <path stroke-width="0.3" d="M62.639 21.882C62.823 21.913 63.006 21.926 63.167 21.925C64.957 21.925 66.409 20.475 66.409 18.684"/>
 </g>
 <line stroke-width="0.3" x1="63.737" y1="15.493" x2="56.244" y2="14.108"/>
 <line stroke-width="0.3" x1="62.639" y1="21.882" x2="54.984" y2="20.455"/>
 <g>
  <path stroke-width="0.13" d="M53.39 21.262C53.39 20.102 52.448 19.161 51.289 19.161C50.128 19.161 49.188 20.102 49.188 21.262C49.188 22.422 50.128 23.362 51.289 23.362C52.448 23.362 53.39 22.422 53.39 21.262"/>
 </g>
 <line stroke-width="0.13" x1="53.39" y1="21.262" x2="53.39" y2="23.804"/>
 <line stroke-width="0.13" x1="51.134" y1="23.829" x2="55.216" y2="23.829"/>
 <line stroke-width="0.13" x1="55.984" y1="23.829" x2="62.377" y2="23.829"/>
 <g>
  <polyline stroke-width="0.13" points="63.143 23.829 69.965 23.829"/>
  <polyline stroke-width="0.3" points="69.965 23.829 69.965 25.413 51.281 25.413"/>
 </g>
 <polyline stroke-width="0.13" points="55.216 23.829 55.216 23.137 55.984 23.137 55.984 23.829"/>
 <polyline stroke-width="0.13" points="62.377 23.846 62.377 23.152 63.143 23.152 63.143 23.846"/>
 <line stroke-width="0.13" x1="65.68" y1="20.733" x2="65.68" y2="23.829"/>
 <polyline stroke-width="0.3" points="65.68 23.213 69.951 23.213 69.951 23.829"/>
 <polyline stroke-width="0.13" points="66.689 25.413 66.689 26.347 67.17 26.347 67.17 27.132 66.733 27.132 66.733 30.496 66.34 30.919"/>
 <polyline stroke-width="0.13" points="66.224 25.486 66.224 29.928 65.757 30.394 65.042 30.394"/>
 <line stroke-width="0.13" x1="59.478" y1="30.394" x2="53.75" y2="30.394"/>
 <line stroke-width="0.13" x1="53.106" y1="30.394" x2="51.182" y2="30.394"/>
 <polyline stroke-width="0.13" points="66.224 27.146 65.626 27.146 65.626 30.394"/>
 <path stroke-width="0.3" d="M57.216 33.953C57.554 34.545 58.043 34.936 58.723 35.039C60.268 35.273 61.024 35.884 61.17 36.058"/>
 <path stroke-width="0.3" d="M55.107 33.953C55.499 34.802 56.051 35.439 56.481 35.854C57.326 36.67 58.521 37.02 59.307 37.165C60.093 37.31 61.054 38.039 61.112 38.475"/>
 <line stroke-width="0.13" x1="61.142" y1="33.951" x2="61.142" y2="39.902"/>
 <polygon stroke-width="0.3" points="65.539 39.874 60.704 39.874 60.704 42.67 65.539 42.67 65.539 39.874"/>
 <line stroke-width="0.3" x1="65.015" y1="39.874" x2="65.015" y2="33.951"/>
 <line stroke-width="0.3" x1="65.102" y1="42.67" x2="65.102" y2="56.805"/>
 <line stroke-width="0.3" x1="61.142" y1="42.67" x2="61.142" y2="56.805"/>
 <g>
  <polyline stroke-width="0.3" points="53.89 30.919 53.89 42.204"/>
  <polyline stroke-width="0.13" points="53.89 42.204 53.219 42.204"/>
  <polyline stroke-width="0.3" points="53.219 42.204 53.219 62.405"/>
 </g>
 <line stroke-width="0.13" x1="53.219" y1="42.204" x2="51.094" y2="42.204"/>
 <polygon stroke-width="0.3" points="65.596 56.805 60.762 56.805 60.762 59.601 65.596 59.601 65.596 56.805"/>
 <line stroke-width="0.3" x1="65.221" y1="59.601" x2="65.221" y2="73.903"/>
 <line stroke-width="0.3" x1="61.079" y1="59.601" x2="61.079" y2="73.903"/>
 <polygon stroke-width="0.3" points="65.558 73.903 60.725 73.903 60.725 76.7 65.558 76.7 65.558 73.903"/>
 <line stroke-width="0.3" x1="65.212" y1="76.7" x2="65.212" y2="80.093"/>
 <line stroke-width="0.3" x1="61.045" y1="76.7" x2="61.045" y2="79.881"/>
 <line stroke-width="0.3" x1="53.295" y1="72.49" x2="53.295" y2="86.737"/>
 <polyline stroke-width="0.3" points="65.653 86.737 65.653 88.132 65.037 88.79 50.545 88.79"/>
 <polyline stroke-width="0.3" points="64.216 88.79 64.216 90.063 62.287 90.063 62.287 88.79"/>
 <line stroke-width="0.3" x1="64.216" y1="86.737" x2="64.216" y2="85.054"/>
 <line stroke-width="0.3" x1="51.826" y1="86.737" x2="65.653" y2="86.737"/>
 <polygon stroke-width="0.3" points="47.393 88.79 55.107 88.79 55.107 89.245 47.393 89.245 47.393 88.79"/>
 <polygon stroke-width="0.3" points="46.1 62.389 56.387 62.389 56.387 72.302 46.1 72.302 46.1 62.389"/>
 <g>
  <polyline stroke-width="0.3" points="54.408 30.903 54.408 33.951 65.438 33.951"/>
  <polyline stroke-width="0.13" points="65.438 33.951 65.438 31.182"/>
 </g>
 <line stroke-width="0.13" x1="57.527" y1="30.919" x2="57.527" y2="33.951"/>
 <line stroke-width="0.13" x1="60.784" y1="30.919" x2="60.784" y2="33.951"/>
 <line stroke-width="0.13" x1="60.484" y1="30.358" x2="63.731" y2="30.358"/>
 <polyline stroke-width="0.13" points="59.478 30.358 59.478 26.951 60.222 26.236 63.615 26.236"/>
 <line stroke-width="0.13" x1="63.701" y1="26.207" x2="63.701" y2="25.376"/>
 <line stroke-width="0.13" x1="64.649" y1="25.376" x2="64.649" y2="30.78"/>
 <line stroke-width="0.13" x1="59.478" y1="30.358" x2="59.478" y2="30.882"/>
 <polyline stroke-width="0.13" points="60.484 30.809 60.484 30.358 59.902 28.378"/>
 <polyline stroke-width="0.13" points="59.902 30.867 59.902 27.169 63.731 27.169 63.731 30.882"/>
 <line stroke-width="0.13" x1="59.902" y1="27.591" x2="63.731" y2="27.591"/>
 <polyline stroke-width="0.13" points="65.042 30.882 65.042 27.227 64.649 27.227"/>
 <polyline stroke-width="0.13" points="48.686 30.919 48.686 27.225 49.759 26.271 53.75 26.271 53.75 30.919"/>
 <polyline stroke-width="0.13" points="53.106 30.919 53.106 27.172 49.488 27.172 49.488 30.841"/>
 <line stroke-width="0.13" x1="49.488" y1="27.649" x2="53.106" y2="27.649"/>
 <polyline stroke-width="0.3" points="32.93 23.114 32.93 22.208 28.278 22.208 28.278 14.08 32.841 14.08 32.841 12.994 55.918 12.994"/>
 <line stroke-width="0.13" x1="32.841" y1="14.08" x2="32.841" y2="22.208"/>
 <line stroke-width="0.3" x1="55.918" y1="12.994" x2="55.918" y2="14.08"/>
 <line stroke-width="0.13" x1="52.569" y1="17.574" x2="50.008" y2="17.574"/>
 <line stroke-width="0.13" x1="52.569" y1="17.068" x2="50.008" y2="17.068"/>
 <line stroke-width="0.3" x1="65.68" y1="23.213" x2="65.68" y2="20.861"/>
 <line stroke-width="0.3" x1="36.237" y1="30.919" x2="37.561" y2="30.919"/>
 <line stroke-width="0.3" x1="41.405" y1="36.058" x2="41.405" y2="30.919"/>
 <line stroke-width="0.3" x1="41.465" y1="38.475" x2="41.465" y2="39.902"/>
 <line stroke-width="0.3" x1="53.89" y1="42.204" x2="53.219" y2="42.204"/>
 <line stroke-width="0.3" x1="48.686" y1="42.204" x2="49.356" y2="42.204"/>
 <line stroke-width="0.3" x1="61.17" y1="36.058" x2="61.17" y2="33.951"/>
 <line stroke-width="0.3" x1="61.112" y1="38.475" x2="61.112" y2="39.902"/>
 <g>
  <path stroke-width="0.3" d="M0.99 64.686C0.99 64.686 0.401 59.813 0.172 56.313C-0.057 52.813 1.382 49.737 2.56 48.167C3.738 46.597 4.621 45.746 5.209 45.354C5.799 44.962 6.746 45.191 7.434 45.387C8.121 45.584 9.494 46.204 9.625 46.531"/>
  <path stroke-width="0.3" d="M7.985 45.578C7.985 45.578 10.771 43.326 11.163 42.933C11.556 42.54 11.522 42.213 11.556 41.429C11.589 40.643 11.522 40.414 13.878 38.779C16.234 37.143 18.556 36.457 19.407 36.49C20.257 36.521 21.565 37.34 22.35 37.862C23.135 38.387 23.332 38.484 23.332 38.484L25.164 38.484L27.486 39.695C27.486 39.695 28.468 40.643 28.468 41.003C28.468 41.363 28.468 41.363 28.468 41.363C28.468 41.363 31.019 42.802 31.707 45.551C32.393 48.298 32.557 49.933 32.426 50.817C32.295 51.701 31.771 52.354 31.28 52.976C30.791 53.597 28.99 55.103 28.434 55.692C27.879 56.28 27.518 56.966 27.42 57.555C27.323 58.145 26.373 64.588 26.373 64.588"/>
  <line stroke-width="0.2" x1="23.332" y1="38.484" x2="28.303" y2="41.298"/>
  <path stroke-width="0.13" d="M26.304 40.167C24.608 39.99 22.678 39.99 21.434 41.593C20.192 43.195 19.667 44.798 19.734 45.584C19.798 46.368 19.701 46.695 19.701 46.695"/>
  <g>
   <path stroke-width="0.13" d="M22.262 45.808C22.655 47.478 21.51 49.277 20.725 50.029C19.94 50.781 19.056 51.402 18.565 51.567C18.074 51.729 18.074 51.729 18.074 51.729"/>
   <path stroke-width="0.3" d="M18.074 51.729C17.443 51.732 17.214 51.274 17.018 50.784C16.823 50.293 15.971 49.704 14.827 49.313C13.682 48.92 12.897 49.246 12.047 49.084"/>
   <path stroke-width="0.13" d="M12.047 49.084C10.933 49.215 9.705 48.209 9.673 46.606"/>
  </g>
  <path stroke-width="0.13" d="M13.878 50.817C10.64 53.924 8.807 56.935 8.71 59.878C8.612 62.823 8.71 64.686 8.71 64.621"/>
  <path stroke-width="0.13" d="M26.373 44.47C25.359 44.569 25.556 45.387 25.981 45.584C26.407 45.78 28.108 46.14 28.533 46.271"/>
  <path stroke-width="0.13" d="M23.658 46.712C22.644 46.81 22.841 47.628 23.266 47.823C23.692 48.021 29.384 49.868 29.809 50"/>
  <path stroke-width="0.13" d="M22.106 49.591C21.091 49.689 21.288 50.506 21.713 50.703C22.138 50.899 28.01 52.649 28.434 52.78"/>
  <path stroke-width="0.13" d="M19.062 51.945C18.048 52.043 18.245 52.862 18.67 53.057C19.096 53.255 25.262 55.134 25.687 55.265"/>
  <path stroke-width="0.13" d="M14.484 53.613C13.47 53.713 13.666 54.53 14.09 54.726C14.516 54.923 24.443 58.079 24.87 58.21"/>
  <path stroke-width="0.13" d="M12.814 56.362C11.801 56.46 11.997 57.277 12.423 57.473C12.848 57.67 23.658 61.121 24.085 61.253"/>
  <path stroke-width="0.13" d="M11.244 59.012C10.23 59.109 10.426 59.927 10.852 60.124C11.278 60.32 15.48 61.579 15.907 61.71"/>
  <path stroke-width="0.13" d="M11.016 62.25C10.002 62.348 10.198 63.165 10.624 63.362C11.048 63.558 13.943 64.359 14.368 64.49"/>
  <path stroke-width="0.13" d="M17.411 61.743C16.429 61.677 16.265 61.546 16.265 62.267C16.265 62.985 15.874 63.607 15.612 63.968"/>
  <path stroke-width="0.13" d="M28.533 46.271C29.253 46.531 29.809 45.911 28.925 45.322"/>
  <path stroke-width="0.13" d="M29.809 50C30.528 50.261 31.085 49.64 30.202 49.051"/>
  <path stroke-width="0.13" d="M24.085 61.253C24.803 61.514 25.359 60.893 24.477 60.304"/>
  <path stroke-width="0.13" d="M24.87 58.21C25.588 58.472 26.144 57.85 25.262 57.262"/>
  <path stroke-width="0.13" d="M25.687 55.265C26.407 55.527 26.963 54.905 26.079 54.317"/>
  <path stroke-width="0.13" d="M28.434 52.78C29.155 53.042 29.71 52.42 28.827 51.832"/>
  <g>
   <path stroke-width="0.13" d="M4.424 54.546C5.192 54.899 6.189 54.372 6.65 53.369C7.11 52.366 6.86 51.268 6.092 50.915"/>
   <path stroke-width="0.2" d="M6.092 50.915C5.474 50.631 4.711 50.917 4.185 51.572"/>
   <path stroke-width="0.2" d="M3.765 52.353C3.447 53.302 3.74 54.228 4.424 54.546"/>
  </g>
  <path stroke="none" fill="#000000" d="M6.78 51.926C6.676 51.463 6.395 51.164 6.051 51.006L6.134 50.825C6.501 50.993 6.77 51.377 6.883 51.871L6.78 51.926z"/>
  <path stroke="none" fill="#000000" d="M4.466 54.456L4.383 54.637C4.785 54.823 5.242 54.746 5.665 54.523L5.639 54.409C5.256 54.612 4.83 54.622 4.466 54.456z"/>
  <g>
   <path stroke-width="0.2" d="M5.144 55.005C5.911 55.357 6.908 54.831 7.368 53.828C7.83 52.825 7.58 51.725 6.812 51.374"/>
  </g>
  <line stroke-width="0.2" x1="5.144" y1="55.005" x2="4.424" y2="54.546"/>
  <line stroke-width="0.2" x1="6.812" y1="51.374" x2="6.092" y2="50.915"/>
  <g>
   <path stroke-width="0.13" d="M4.783 56.116C6.022 56.621 7.562 55.72 8.221 54.103C8.881 52.487 8.41 50.767 7.173 50.261C6.131 49.837 4.878 50.405 4.102 51.576"/>
   <path stroke-width="0.13" d="M3.71 52.338C3.087 53.942 3.567 55.618 4.783 56.116"/>
  </g>
  <g>
   <polyline stroke-width="0.2" points="3.35 51.439 5.618 51.856"/>
   <polyline stroke-width="0.13" points="5.618 51.856 5.913 52.253"/>
  </g>
  <line stroke-width="0.13" x1="3.386" y1="52.277" x2="5.655" y2="52.695"/>
  <line stroke-width="0.13" x1="5.618" y1="51.856" x2="5.426" y2="52.253"/>
  <line stroke-width="0.13" x1="5.913" y1="52.253" x2="5.711" y2="52.71"/>
  <polyline stroke-width="0.2" points="3.35 51.439 3.145 51.896 3.386 52.277"/>
  <line stroke-width="0.13" x1="3.145" y1="51.896" x2="5.141" y2="52.253"/>
  <g>
   <path stroke-width="0.13" d="M10.327 47.14C10.423 47.978 11.029 48.671 11.916 49.094"/>
   <path stroke-width="0.13" d="M15.115 49.417C17.106 49.011 18.44 47.634 18.285 46.222C18.242 45.85 18.099 45.506 17.887 45.22"/>
   <path stroke-width="0.13" d="M17.248 44.593C16.673 44.179 15.943 43.936 15.186 43.859"/>
   <path stroke-width="0.13" d="M14.148 43.851C14.089 43.856 14.032 43.862 13.981 43.868C11.785 44.121 10.147 45.587 10.327 47.14"/>
  </g>
  <g>
   <path stroke-width="0.13" d="M11.092 46.872C11.205 48.023 12.615 48.828 14.24 48.668C15.868 48.511 17.096 47.45 16.984 46.298C16.972 46.182 16.948 46.07 16.914 45.972"/>
   <path stroke-width="0.13" d="M16.402 45.215C16.335 45.155 16.265 45.097 16.199 45.051"/>
   <path stroke-width="0.13" d="M15.593 44.728C15.205 44.576 14.785 44.496 14.378 44.485"/>
   <path stroke-width="0.13" d="M12.291 44.979C11.448 45.46 11.029 46.176 11.092 46.872"/>
  </g>
  <g>
   <polyline stroke-width="0.13" points="12.173 47.21 14.762 48.585 16.589 46.994"/>
   <polyline stroke-width="0.2" points="16.589 46.994 16.547 45.915 13.195 44.362 12.288 44.851 12.304 45.945"/>
  </g>
  <polyline stroke-width="0.2" points="13.007 45.341 12.173 46.03 12.173 47.21"/>
  <polyline stroke-width="0.13" points="12.288 46.204 14.691 47.484 15.727 46.707 13.007 45.341"/>
  <path stroke-width="0.2" d="M16.143 45.728L17.884 44.448C17.884 44.448 18.243 44.347 18.257 44.664C18.271 44.981 18.214 44.966 18.214 44.966L16.559 46.247"/>
  <path stroke-width="0.2" d="M14.971 45.185C15.375 44.887 16.071 44.375 16.071 44.375C16.071 44.375 16.431 44.274 16.446 44.591C16.46 44.908 16.402 44.893 16.402 44.893C16.402 44.893 16.024 45.185 15.631 45.49"/>
  <path stroke-width="0.2" d="M15.874 45.603C16.085 45.448 17.365 44.506 17.365 44.506C17.365 44.506 17.603 44.439 17.699 44.584"/>
  <path stroke-width="0.2" d="M13.397 44.405L15.137 43.125C15.137 43.125 15.496 43.024 15.51 43.341C15.525 43.656 15.468 43.643 15.468 43.643C15.468 43.643 14.48 44.405 14.032 44.753"/>
 </g>
 <path stroke-width="0.2" d="M14.519 41.77C6.58 25.48 18.411 -7.04 33.798 7.746"/>
 <path stroke-width="0.2" d="M14.519 41.77C2.972 27.542 17.92 -14.662 35.241 5.375"/>
 <polyline stroke-width="0.2" points="33.798 7.746 31.298 8.541 37.875 11.567 37.524 4.285 35.871 6.36 35.241 5.375"/>
 <text x="69.073" y="52.271" stroke="none" fill="#000000" font-family="'Arial'" font-size="4.232">1</text>
 <text x="69.019" y="46.314" stroke="none" fill="#000000" font-family="'Arial'" font-size="4.232">2</text>
 <text x="69.093" y="66.527" stroke="none" fill="#000000" font-family="'Arial'" font-size="4.232">3</text>
 <line stroke-width="0.13" x1="63.869" y1="49.027" x2="68.174" y2="50.472"/>
 <line stroke-width="0.13" x1="68.287" y1="76.268" x2="51.826" y2="86.737"/>
 <line stroke-width="0.13" x1="53.459" y1="67.74" x2="68.09" y2="65.066"/>
 <polyline stroke-width="0.13" points="45.295 35.332 68.287 44.417 57.856 35.668"/>
 <text x="69.072" y="76.492" stroke="none" fill="#000000" font-family="'Arial'" font-size="4.232">4</text>
 <text transform="matrix(0 -1 1 0 72.772 93.986)" stroke="none" fill="#000000" font-family="'Arial'" font-size="2.117">324 195</text>
</svg>
