<?xml version="1.0" encoding="utf-8"?>
<!DOCTYPE svg PUBLIC "-//W3C//DTD SVG 1.1//EN" "http://www.w3.org/Graphics/SVG/1.1/DTD/svg11.dtd">
<!-- Generator: PTC Arbortext IsoDraw 7.3 -->
<svg id="Standard_x0020_layer" width="100%" height="100%" viewBox="0 0 69.868 88.042"
 xmlns="http://www.w3.org/2000/svg" xmlns:xlink="http://www.w3.org/1999/xlink"
 fill-rule="evenodd" clip-rule="evenodd" stroke="#000000" stroke-linecap="round" fill="none" xml:space="preserve">
 <path stroke="none" fill="#B2B2B2" d="M21.533 66.722L21.092 22.861 12.429 22.05 13.157 66.158 21.533 66.722z"/>
 <path stroke="none" fill="#B2B2B2" d="M31.8 23.44L39.887 23.823 40.716 68.227 32.487 67.554 31.8 23.44z"/>
 <path stroke="none" fill="#808080" d="M45.243 40.289C45.091 41.162 43.994 41.811 43.481 42.317 42.966 42.825 42.895 42.896 42.887 43.844 42.881 44.792 42.722 69.055 42.642 70.075 42.563 71.094 41.902 71.6 41.319 71.816 40.734 72.03 40.006 72.025 39.133 71.801 38.259 71.576 37.607 71.061 36.878 70.983 36.151 70.906 31.489 70.51 29.158 70.424 26.827 70.335 16.631 69.685 15.974 69.608 15.32 69.531 14.807 69.819 14.297 70.034 13.785 70.248 13.132 69.734 12.118 68.998 11.102 68.263 11.038 67.025 11.045 65.786 11.054 64.546 10.458 44.286 10.544 42.32 10.631 40.353 9.399 39.252 8.676 38.445 7.952 37.639 7.665 36.981 7.671 36.106L7.556 31.951 9.537 31.925 9.551 35.619 8.939 35.692 8.909 36.261C9.051 36.844 9.698 38.015 10.278 38.6 10.856 39.188 11.723 40.359 11.561 42.908 11.399 45.457 12.298 63.534 12.218 64.7 12.138 65.865 11.984 67.177 12.49 67.689 12.996 68.203 13.865 69.084 14.304 68.941 14.742 68.798 15.329 68.146 15.984 68.296 16.638 68.445 19.553 68.465 20.864 68.692 22.173 68.92 27.49 69.245 29.748 69.406 32.006 69.567 36.594 69.89 37.542 69.968 38.488 70.048 39.14 70.561 39.722 70.858 40.302 71.153 41.47 70.867 41.479 69.484 41.488 68.099 41.645 44.418 41.722 43.691 41.801 42.963 41.881 41.871 42.906 41.003 43.932 40.134 44.255 39.009 44.243 38.881 44.243 38.881 44.268 38.439 43.43 38.396L43.453 35.119 45.319 35.133 45.363 39.932 45.243 40.289z"/>
 <path stroke="none" fill="#D9D9D9" d="M45.243 40.289C45.091 41.162 43.994 41.811 43.481 42.317 42.966 42.825 42.895 42.896 42.887 43.844 42.881 44.792 42.722 69.055 42.642 70.075 42.563 71.094 41.902 71.6 41.319 71.816 40.734 72.03 40.006 72.025 39.133 71.801 38.259 71.576 37.607 71.061 36.878 70.983 36.151 70.906 31.489 70.51 29.158 70.424 26.827 70.335 16.631 69.685 15.974 69.608 15.32 69.531 14.807 69.819 14.297 70.034 13.785 70.248 13.132 69.734 12.118 68.998 11.102 68.263 11.038 67.025 11.045 65.786 11.054 64.546 10.458 44.286 10.544 42.32 10.631 40.353 9.399 39.252 8.676 38.445 7.952 37.639 7.665 36.981 7.671 36.106L7.705 37.432C7.919 45.673 8.499 65.256 8.487 66.861 8.475 68.757 8.752 71.016 13.253 73.67 17.753 76.322 22.189 77.664 24.3 77.897L24.312 76.075 29.704 76.111 29.69 78.368C29.69 78.368 34.499 78.328 37.128 77.471 39.756 76.614 45.235 74.465 45.402 71.331 45.53 68.921 45.383 49.518 45.341 40.362L45.243 40.289z"/>
 <path stroke="none" fill="#B2B2B2" d="M30.44 80.561L30.434 81.507 32 81.59 32.944 82.18 33.003 84.147 32.345 84.361 33 84.658 32.994 85.459 32.091 85.688 22.646 85.146 21.559 84.664 21.547 83.796 22.042 83.632 21.539 83.265 21.51 81.158 22.457 81.09 23.806 81.063 23.815 79.787 24.516 79.179 25.091 79.314 25.138 78.962 26.065 79.055C26.065 79.055 26.144 80.427 26.14 80.912 26.138 81.4 26.268 81.93 27.062 81.98 27.858 82.03 28.08 81.721 28.128 81.28 28.175 80.837 28.318 79.335 28.318 79.335L28.937 79.296 29.065 79.915 29.51 79.388 30.44 80.561z"/>
 <path stroke="#1A171B" stroke-width="0.3" stroke-linejoin="round" d="M0.15 0.716C0.217 7.057 0.268 14.462 0.268 14.462C0.268 14.462 1.34 14.541 2.501 14.619"/>
 <path stroke="#1A171B" stroke-width="0.3" stroke-linejoin="round" d="M4.721 14.753C4.942 14.765 5.118 14.771 5.234 14.772C6.06 14.778 6.748 15.333 6.743 16.024L6.746 17.106L5.519 17.571L6.897 18.41L5.748 18.876L6.926 19.792L5.815 20.496L6.996 21.373L5.807 21.76L6.908 22.557L5.839 23.065L6.9 23.9L5.871 24.25L6.969 25.324L5.822 25.71L7 26.667C7 26.667 7.71 26.948 7.702 28.132"/>
 <path stroke="#1A171B" stroke-width="0.3" stroke-linejoin="round" d="M7.66 28.289L7.637 31.923L9.573 31.934L9.548 35.688L8.916 35.683C8.916 35.683 8.627 37.459 10.246 37.469C11.867 37.481 11.323 35.975 11.367 35.344C11.41 34.712 11.162 18.556 11.162 18.556L15.228 18.74C15.228 18.74 15.342 19.532 15.339 20.006C15.336 20.48 16.007 20.445 16.364 20.408C16.719 20.37 17.196 19.978 17.161 19.268C17.126 18.556 17.199 13.539 17.199 13.539L21.658 13.885L21.702 7.131L30.507 7.703L30.618 14.775L35.2 14.884C35.2 14.884 35.32 20.612 35.317 20.928C35.316 21.245 35.509 21.917 36.299 21.844C37.091 21.769 37.052 21.414 37.054 21.256C37.054 21.097 37.057 20.664 37.057 20.664L41.441 20.811C41.441 20.811 41.759 38.429 41.795 38.904C41.831 39.378 42.104 39.853 42.935 39.82C43.764 39.786 44.201 39.354 44.243 38.881C44.286 38.406 43.417 38.439 43.417 38.439L43.439 35.082L45.375 35.095L45.281 31.185C45.281 31.185 45.326 30.277 45.959 30.242C46.591 30.207 46.909 29.815 46.909 29.815L45.768 29.175L46.92 28.314L45.659 27.634L46.85 26.812L45.71 26.211L46.899 25.548L45.718 24.987L46.985 24.245L45.804 23.763L46.917 22.783L45.576 22.379L46.768 21.321L45.508 20.878L46.777 20.056L45.396 19.614C45.396 19.614 45.441 19.14 45.441 19.021C45.442 18.902 45.683 18.114 46.908 18.24C47.118 18.263 47.404 18.286 47.732 18.312"/>
 <path stroke="#1A171B" stroke-width="0.3" stroke-linejoin="round" d="M49.987 18.472C51.02 18.539 51.883 18.589 51.883 18.589C51.883 18.589 55.762 14.573 56.496 13.842C57.006 13.333 57.746 11.734 57.899 10.496C58.054 9.259 57.822 0.15 57.822 0.15"/>
 <path stroke="#1A171B" stroke-width="0.3" stroke-linejoin="round" d="M0.526 14.564C0.526 14.564 0.447 15.583 0.515 16.312C0.583 17.042 0.798 17.481 1.744 17.704C2.69 17.929 3.561 18.591 3.549 20.195C3.539 21.798 3.514 25.586 3.506 26.751C3.499 27.917 3.778 29.522 4.283 30.327C4.788 31.132 5.073 32.228 4.99 33.612C4.908 34.996 5.601 62.616 5.652 66.042C5.702 69.466 7.278 73.412 11.272 75.625L11.505 84.588L13.253 84.673L15.525 82.501L19.089 83.546"/>
 <path stroke="#1A171B" stroke-width="0.3" stroke-linejoin="round" d="M21.416 84.435L20.17 85.375L19.15 85.295L19.115 79.539C19.115 79.539 14.682 77.688 13.666 77.097"/>
 <path stroke="#1A171B" stroke-width="0.3" stroke-linejoin="round" d="M33.292 84.441L34.162 85.03L34.228 86.341L35.247 86.421L35.692 85.331L41.015 84.784L41.219 86.971L42.893 87.055L45.167 84.956L45.292 76.87"/>
 <path stroke="#1A171B" stroke-width="0.3" stroke-linejoin="round" d="M52.563 24.234L52.862 23.07L52.969 17.824"/>
 <path stroke="#1A171B" stroke-width="0.201" stroke-linejoin="round" d="M42.807 78.165C43.902 77.734 46.829 75.933 47.863 73.825C47.863 73.825 50.058 72.382 50.868 71.295C51.676 70.206 52.781 68.248 52.793 66.426C52.807 64.603 52.563 24.234 52.563 24.234"/>
 <path stroke="#1A171B" stroke-width="0.3" stroke-linejoin="round" d="M46.539 75.638C47.421 74.552 48.302 73.463 48.401 69.748C48.497 66.033 48.045 35.28 48.045 35.28L52.563 24.234"/>
 <path stroke="#1A171B" stroke-width="0.3" stroke-linejoin="round" d="M21.658 13.885C21.658 13.885 22.288 62.654 22.353 63.747C22.419 64.84 22.561 65.498 23.507 65.576C24.454 65.656 29.405 66.126 30.135 66.058C30.864 65.989 31.448 65.992 31.6 65.046C31.751 64.1 30.618 14.775 30.618 14.775"/>
 <path stroke="#1A171B" stroke-width="0.3" stroke-linejoin="round" d="M46.909 29.815C46.909 29.815 46.911 30.39 46.909 30.681C46.906 30.974 46.468 31.335 46.027 31.987C45.585 32.64 45.423 34.899 45.345 35.627C45.268 36.354 45.569 68.2 45.402 71.331C45.235 74.465 39.756 76.614 37.128 77.471C34.499 78.328 29.69 78.368 29.69 78.368L29.704 76.111L24.312 76.075L24.3 77.897C22.189 77.664 17.753 76.322 13.253 73.67C8.752 71.016 8.475 68.757 8.487 66.861C8.5 64.966 7.668 36.616 7.615 33.338C7.564 30.057 6.628 28.521 6.195 27.789C5.764 27.059 5.844 25.966 5.844 25.966L5.822 25.71"/>
 <path stroke="#1A171B" stroke-width="0.3" stroke-linejoin="round" d="M7.671 36.106C7.665 36.981 7.952 37.639 8.676 38.445C9.399 39.252 10.631 40.353 10.544 42.32C10.458 44.286 11.054 64.546 11.045 65.786C11.038 67.025 11.102 68.263 12.118 68.998C13.132 69.734 13.785 70.248 14.297 70.034C14.807 69.819 15.32 69.531 15.974 69.608C16.631 69.685 26.827 70.335 29.158 70.424C31.489 70.51 36.151 70.906 36.878 70.983C37.607 71.061 38.259 71.576 39.133 71.801C40.006 72.025 40.734 72.03 41.319 71.816C41.902 71.6 42.563 71.094 42.642 70.075C42.722 69.055 42.881 44.792 42.887 43.844C42.895 42.896 42.966 42.825 43.481 42.317C43.994 41.811 45.091 41.162 45.243 40.289"/>
 <path stroke="#1A171B" stroke-width="0.3" stroke-linejoin="round" d="M8.909 36.261C9.051 36.844 9.698 38.015 10.278 38.6C10.856 39.188 11.723 40.359 11.561 42.908C11.399 45.457 12.298 63.534 12.218 64.7C12.138 65.865 11.984 67.177 12.49 67.689C12.996 68.203 13.865 69.084 14.304 68.941C14.742 68.798 15.329 68.146 15.984 68.296C16.638 68.445 19.553 68.465 20.864 68.692C22.173 68.92 27.49 69.245 29.748 69.406C32.006 69.567 36.594 69.89 37.542 69.968C38.488 70.048 39.14 70.561 39.722 70.858C40.302 71.153 41.47 70.867 41.479 69.484C41.488 68.099 41.645 44.418 41.722 43.691C41.801 42.963 41.881 41.871 42.906 41.003C43.932 40.134 44.255 39.009 44.243 38.881"/>
 <path stroke="#1A171B" stroke-width="0.3" stroke-linejoin="round" d="M17.265 17.734L19.304 17.821L19.356 20.954L11.71 20.321L11.698 21.996L12.429 22.05L12.646 21.931L21.385 22.716L21.274 17.396L19.673 17.239C19.673 17.239 19.684 15.564 19.687 14.981C19.692 14.399 19.475 13.96 19.257 13.813"/>
 <path stroke="#1A171B" stroke-width="0.3" stroke-linejoin="round" d="M17.187 14.381L19.01 14.535L18.998 16.356L17.164 16.278"/>
 <path stroke="#1A171B" stroke-width="0.3" stroke-linejoin="round" d="M33.825 14.855C33.167 14.997 32.655 15.505 32.649 16.306C32.643 17.106 32.637 18.272 32.637 18.272L31.471 18.265L31.51 23.294L39.887 23.713L39.884 24.222L40.904 24.23L40.988 22.463L33.341 21.993L33.36 19.007L35.036 19.018"/>
 <path stroke="#1A171B" stroke-width="0.3" stroke-linejoin="round" d="M12.429 22.05L13.157 65.945"/>
 <path stroke="#1A171B" stroke-width="0.3" stroke-linejoin="round" d="M12.21 66.084L41.343 68.245"/>
 <path stroke="#1A171B" stroke-width="0.3" stroke-linejoin="round" d="M21.092 22.861L21.533 66.51"/>
 <path stroke="#1A171B" stroke-width="0.3" stroke-linejoin="round" d="M31.8 23.44L32.459 67.311"/>
 <path stroke="#1A171B" stroke-width="0.3" stroke-linejoin="round" d="M20.425 79.766C20.425 79.766 21.789 80.228 22.37 80.305L22.457 81.09L22.968 81.093L23.297 81.06L23.413 80.004C23.413 80.004 24.143 79.572 24.512 79.137C24.878 78.701 24.954 78.12 24.3 77.897"/>
 <path stroke="#1A171B" stroke-width="0.3" stroke-linejoin="round" d="M29.69 78.368C29.326 78.293 29.175 79.022 29.464 79.314C29.754 79.608 30.548 80.78 30.911 80.927L31.053 81.512L31.6 81.552L31.782 81.516L31.858 81.007L33.899 81.019L34.162 85.03"/>
 <path stroke="#1A171B" stroke-width="0.3" stroke-linejoin="round" d="M41.014 84.93L40.688 79.171C40.688 79.171 39.957 79.385 39.445 79.673C38.933 79.96 38.13 80.246 37.692 80.316C37.253 80.387 35.503 80.593 35.503 80.593"/>
 <path stroke="#1A171B" stroke-width="0.123" stroke-linejoin="round" d="M13.375 77.242L13.182 84.382"/>
 <path stroke="#1A171B" stroke-width="0.123" stroke-linejoin="round" d="M15.525 82.501L15.699 78.203"/>
 <path stroke="#1A171B" stroke-width="0.123" stroke-linejoin="round" d="M20.277 80.129L20.17 85.375"/>
 <path stroke="#1A171B" stroke-width="0.3" stroke-linejoin="round" d="M23.815 79.787L23.806 81.063L22.457 81.09L21.51 81.158L21.539 83.265L22.042 83.632L21.547 83.796L21.559 84.664L22.646 85.146L32.091 85.688L32.994 85.459L33 84.658L32.345 84.361L33.003 84.147L32.944 82.18L32 81.59L30.434 81.507L30.44 80.561"/>
 <path stroke="#1A171B" stroke-width="0.131" stroke-linejoin="round" d="M51.582 18.106L51.515 11.948C51.515 11.948 51.81 11.368 51.814 10.711C51.819 10.057 51.567 9.509 51.567 9.509L51.673 4.262L52.186 3.975L52.283 0.405"/>
 <g>
  <path stroke="#1A171B" stroke-width="0.3" stroke-linejoin="round" d="M14.781 7.072C15.385 6.051 16.801 5.77 17.943 6.447C19.085 7.123 19.521 8.499 18.917 9.519"/>
  <path stroke="#1A171B" stroke-width="0.131" stroke-linejoin="round" d="M18.917 9.519C18.312 10.541 16.896 10.821 15.753 10.146C14.612 9.47 14.176 8.093 14.781 7.072"/>
 </g>
 <path stroke="#1A171B" stroke-width="0.3" stroke-linejoin="round" d="M24.512 79.137L24.928 79.248L25.091 79.632L25.096 78.921C25.096 78.921 25.532 78.98 25.751 78.98C25.969 78.983 26.187 79.203 26.187 79.203C26.187 79.203 26.123 80.623 26.118 81.114C26.115 81.606 26.442 81.882 27.097 81.941C27.753 82 28.082 81.784 28.138 81.402C28.196 81.019 28.26 79.707 28.26 79.543C28.262 79.379 28.262 79.379 28.262 79.379L28.591 79.218L28.919 79.221L29.079 79.878L29.464 79.314"/>
 <path stroke="#1A171B" stroke-width="0.3" stroke-linejoin="round" d="M29.158 76.162L29.152 76.871L28.262 79.379"/>
 <path stroke="#1A171B" stroke-width="0.3" stroke-linejoin="round" d="M25.222 76.245L25.217 76.9L26.187 79.203"/>
 <path stroke="#1A171B" stroke-width="0.123" stroke-linejoin="round" d="M42.804 78.438L42.969 86.691"/>
 <path stroke="#1A171B" stroke-width="0.123" stroke-linejoin="round" d="M35.411 80.847L35.247 86.421"/>
 <path stroke="#1A171B" stroke-width="0.123" stroke-linejoin="round" d="M35.692 85.331L35.685 80.796"/>
 <path stroke="#1A171B" stroke-width="0.3" stroke-linejoin="round" d="M48.674 33.718C49.118 32.845 49.344 31.646 49.353 30.333C49.362 29.021 49.406 22.245 49.406 22.245C49.406 22.245 50.281 22.143 50.829 21.818C51.378 21.493 51.488 21.275 51.601 20.839C51.713 20.402 51.883 18.589 51.883 18.589"/>
 <path stroke="#1A171B" stroke-width="0.123" stroke-linejoin="round" d="M48.198 72.734C48.862 71.537 49.42 69.902 49.433 67.715C49.448 65.53 49.156 33.978 49.156 33.978"/>
 <g>
  <path stroke="#1A171B" stroke-width="0.123" stroke-linejoin="round" d="M54.99 3.424C55.906 3.512 56.433 5.796 56.17 8.525C55.904 11.253 54.947 13.393 54.03 13.304"/>
  <path stroke="#1A171B" stroke-width="0.3" stroke-linejoin="round" d="M54.03 13.304C53.115 13.215 52.587 10.932 52.851 8.204C53.118 5.474 54.075 3.335 54.99 3.424"/>
 </g>
 <path stroke="#1A171B" stroke-width="0.3" stroke-linejoin="round" d="M39.884 24.222L40.688 67.986"/>
 <path stroke="#1A171B" stroke-width="0.131" stroke-linejoin="round" d="M51.567 9.509C51.057 9.541 44.719 9.281 44.209 9.24C43.7 9.201 43.222 9.781 43.219 10.291C43.215 10.801 43.356 11.422 44.377 11.464C45.762 11.522 51.405 11.948 51.405 11.948"/>
 <path stroke="#FFFFFF" stroke-width="0.501" d="M35.777 32.533L62.045 17.8"/>
 <path stroke-width="0.131" d="M35.777 32.533L62.045 17.8"/>
 <text x="63.241" y="18.66" stroke="none" fill="#000000" font-family="'Helvetica'" font-size="4.939">1</text>
 <path stroke="#FFFFFF" stroke-width="0.501" d="M42.243 44.656L62.045 34.168"/>
 <path stroke-width="0.131" d="M42.243 44.656L62.045 34.168"/>
 <text x="63.241" y="35.732" stroke="none" fill="#000000" font-family="'Helvetica'" font-size="4.939">2</text>
 <path stroke="#FFFFFF" stroke-width="0.501" d="M44.076 56.134L62.045 55.972"/>
 <path stroke-width="0.131" d="M44.076 56.134L62.045 55.972"/>
 <text x="63.241" y="57.536" stroke="none" fill="#000000" font-family="'Helvetica'" font-size="4.939">3</text>
 <path stroke="#FFFFFF" stroke-width="0.501" d="M30.172 83.106L62.045 77.069"/>
 <path stroke-width="0.131" d="M30.172 83.106L62.045 77.069"/>
 <text x="63.241" y="78.634" stroke="none" fill="#000000" font-family="'Helvetica'" font-size="4.939">4</text>
 <line stroke-width="0.13" x1="2.501" y1="13.442" x2="2.501" y2="15.766"/>
 <line stroke-width="0.13" x1="2.524" y1="15.766" x2="4.737" y2="15.977"/>
 <polyline stroke-width="0.13" points="4.714 15.975 4.714 13.599 2.501 13.442"/>
 <path stroke-width="0.13" stroke-linecap="butt" fill="#000000" d="M4.509 14.676C4.509 14.111 4.051 13.653 3.485 13.653 2.919 13.653 2.462 14.111 2.462 14.676 2.462 15.243 2.919 15.701 3.485 15.701 4.051 15.701 4.509 15.243 4.509 14.676 4.509 14.676 4.509 14.676 4.509 14.676L4.509 14.676z"/>
 <line stroke-width="0.13" x1="47.773" y1="16.989" x2="47.773" y2="19.312"/>
 <line stroke-width="0.13" x1="47.795" y1="19.312" x2="50.008" y2="19.522"/>
 <polyline stroke-width="0.13" points="49.985 19.521 49.985 17.144 47.773 16.989"/>
 <path stroke-width="0.13" stroke-linecap="butt" fill="#000000" d="M49.78 18.222C49.78 17.657 49.322 17.198 48.756 17.198 48.191 17.198 47.731 17.657 47.731 18.222 47.731 18.788 48.191 19.246 48.756 19.246 49.322 19.246 49.78 18.788 49.78 18.222 49.78 18.222 49.78 18.222 49.78 18.222L49.78 18.222z"/>
 <g>
  <path stroke="none" fill="#000000" d="M18.644 15.38C18.644 14.974 18.315 14.644 17.91 14.644 17.504 14.644 17.175 14.974 17.175 15.38 17.175 15.785 17.504 16.114 17.91 16.114 18.315 16.114 18.644 15.785 18.644 15.38 18.644 15.38 18.644 15.38 18.644 15.38L18.644 15.38z"/>
  <path stroke-width="0.3" d="M18.644 15.38C18.644 14.974 18.315 14.644 17.91 14.644C17.504 14.644 17.175 14.974 17.175 15.38"/>
  <path stroke-width="0.13" d="M17.175 15.38C17.175 15.785 17.504 16.114 17.91 16.114C18.315 16.114 18.644 15.785 18.644 15.38"/>
 </g>
 <path stroke="none" fill="#000000" d="M17.324 15.38C17.324 15.541 17.33 15.747 17.435 15.853L17.344 15.945C17.184 15.785 17.024 15.624 17.024 15.38L17.324 15.38z"/>
 <path stroke="none" fill="#000000" d="M18.384 15.853L18.475 15.945C18.632 15.788 18.795 15.585 18.795 15.38L18.495 15.38C18.495 15.551 18.515 15.723 18.384 15.853z"/>
 <path stroke="#1A171B" stroke-width="0.3" stroke-linejoin="round" d="M35.125 17.707L33.274 17.647L33.262 15.826L35.118 15.853"/>
 <path stroke-width="0.13" stroke-linecap="butt" fill="#000000" d="M35.097 16.67C35.097 16.263 34.768 15.935 34.362 15.935 33.956 15.935 33.627 16.263 33.627 16.67 33.627 17.076 33.956 17.405 34.362 17.405 34.768 17.405 35.097 17.076 35.097 16.67 35.097 16.67 35.097 16.67 35.097 16.67L35.097 16.67z"/>
 <text transform="matrix(0 -1 1 0 69.164 88.042)" stroke="none" fill="#000000" font-family="'Arial'" font-size="2.117">324 189</text>
</svg>
