<?xml version="1.0" encoding="utf-8"?>
<!DOCTYPE svg PUBLIC "-//W3C//DTD SVG 1.1//EN" "http://www.w3.org/Graphics/SVG/1.1/DTD/svg11.dtd">
<!-- Generator: PTC Arbortext IsoDraw 7.3 -->
<svg id="Standard_x0020_layer" width="100%" height="100%" viewBox="0 0 72.162 62.527"
 xmlns="http://www.w3.org/2000/svg" xmlns:xlink="http://www.w3.org/1999/xlink"
 fill-rule="evenodd" clip-rule="evenodd" stroke="#000000" stroke-linecap="round" fill="none" xml:space="preserve">
 <path stroke="none" fill="#E5E5E5" d="M39.601 54.606L40.225 43.164 39.618 43.133 40.604 40.185 41.22 43.173 40.655 43.143C40.655 43.143 40.203 54.798 40.128 54.701L39.601 54.606z"/>
 <line stroke-width="0.13" x1="39.206" y1="54.026" x2="39.206" y2="49.642"/>
 <line stroke-width="0.13" x1="41.006" y1="53.95" x2="41.006" y2="49.682"/>
 <line stroke-width="0.13" x1="39.6" y1="40.161" x2="40.408" y2="40.161"/>
 <line stroke-width="0.13" x1="41.447" y1="40.161" x2="40.408" y2="40.161"/>
 <line stroke-width="0.13" x1="39.002" y1="49.642" x2="39.206" y2="49.642"/>
 <line stroke-width="0.13" x1="40.6" y1="54.026" x2="41.139" y2="54.201"/>
 <line stroke-width="0.13" x1="39.601" y1="54.606" x2="40.225" y2="43.164"/>
 <polyline stroke-width="0.13" points="39.618 43.133 40.604 40.185 41.22 43.173"/>
 <line stroke-width="0.13" x1="40.655" y1="43.143" x2="40.054" y2="54.606"/>
 <path stroke="none" fill="#B2B2B2" d="M51.128 46.39C51.128 45.661 50.841 44.972 50.267 44.972 50.133 44.972 50.189 44.685 50.189 44.685L45.554 44.665 45.517 48.036 50.018 48.036 50.075 47.768C50.075 47.768 51.128 47.634 51.128 46.39z"/>
 <path stroke="none" fill="#E5E5E5" d="M62.551 40.24L42.195 40.24 42.109 39.811 62.506 39.811 62.506 39.204 65.501 40.036 62.551 40.807 62.551 40.24z"/>
 <path stroke="none" fill="#8F8F8F" d="M39.819 57.158L40.247 57.158 40.311 59.468 40.854 59.468 40.024 62.463 39.253 59.512 39.819 59.512 39.819 57.158z"/>
 <path stroke="none" fill="#8F8F8F" d="M43.926 46.982L41.561 54.292 42.118 54.509 40.421 57.07 40.6 54.026 41.139 54.201 43.558 46.75 43.926 46.982z"/>
 <g>
  <polyline stroke-width="0.3" points="8.204 30.562 8.204 26.163 10.185 26.163"/>
  <polyline stroke-width="0.13" points="10.185 26.163 35.551 26.163"/>
 </g>
 <g>
  <polyline stroke-width="0.3" points="10.185 26.163 10.185 24.42 10.503 23.864 13.792 23.864"/>
  <polyline stroke-width="0.13" points="13.792 23.864 15.021 23.864 15.378 24.26 15.378 25.885"/>
 </g>
 <path stroke-width="0.3" d="M13.792 23.864C13.871 20.931 14.346 18.87 14.743 17.603"/>
 <line stroke-width="0.13" x1="14.743" y1="17.603" x2="17.518" y2="7.971"/>
 <path stroke-width="0.13" d="M16.487 26.163C16.487 20.219 17.28 10.507 17.518 7.971C17.756 5.435 18.112 2.541 18.112 2.541"/>
 <path stroke-width="0.3" d="M14.743 17.603L11.968 17.603C11.968 17.603 10.859 17.364 10.74 16.731C10.621 16.097 10.621 15.502 10.621 15.502L8.362 15.502L8.323 16.373L6.381 16.335L6.381 15.423C6.381 15.423 3.052 15.304 2.496 15.263C1.942 15.224 0.357 14.987 0.199 12.451C0.04 9.913 0.317 7.456 0.317 6.743C0.317 6.03 1.03 4.682 2.1 4.762C3.17 4.841 6.737 4.841 6.737 4.841C6.737 4.841 6.737 3.85 6.737 3.811C6.737 3.77 8.481 3.89 8.481 3.89L8.561 4.801C8.561 4.801 10.859 4.881 10.859 4.841"/>
 <line stroke-width="0.13" x1="10.859" y1="4.841" x2="10.621" y2="15.502"/>
 <line stroke-width="0.13" x1="8.362" y1="15.502" x2="6.381" y2="15.423"/>
 <line stroke-width="0.13" x1="8.561" y1="4.801" x2="6.737" y2="4.841"/>
 <path stroke-width="0.3" d="M10.859 4.841C11.137 1.907 12.287 2.305 12.564 2.265C12.631 2.254 13.015 2.242 13.554 2.233"/>
 <path stroke-width="0.3" d="M18.138 2.18C18.082 1.786 18.408 0.886 20.768 0.798C23.978 0.68 32.301 0.045 33.688 0.164C34.682 0.249 41.59 0.721 46.1 1.155"/>
 <path stroke-width="0.3" d="M49.761 1.617C49.781 1.621 49.801 1.625 49.819 1.631C51.642 2.105 53.465 3.017 53.741 4.445C54.02 5.871 54.296 8.884 54.258 8.843C56.398 14.59 57.348 21.446 57.389 23.586C57.427 25.727 57.427 25.727 57.427 25.727L61.549 26.004L61.43 28.025L63.055 28.184C63.055 28.184 63.055 33.892 63.055 33.851"/>
 <line stroke-width="0.13" x1="62.817" y1="30.721" x2="50.255" y2="29.492"/>
 <line stroke-width="0.13" x1="61.668" y1="27.986" x2="49.462" y2="26.995"/>
 <line stroke-width="0.13" x1="57.427" y1="25.727" x2="57.341" y2="27.635"/>
 <path stroke-width="0.13" d="M49.462 26.995C47.996 26.48 43.121 26.519 42.447 26.519C41.773 26.519 36.304 25.925 35.551 26.163"/>
 <path stroke-width="0.13" d="M50.255 29.492C48.034 29.373 44.904 28.937 43.042 28.937C41.179 28.937 40.109 28.977 38.761 28.778C37.414 28.58 34.243 28.343 32.777 28.422C31.309 28.501 8.897 28.481 8.919 28.481C8.941 28.481 8.204 28.503 8.204 28.503"/>
 <path stroke-width="0.3" d="M8.204 30.562C8.42 31.538 9.157 31.452 10.48 31.646C11.801 31.841 27.498 33.228 27.475 33.228"/>
 <polyline stroke-width="0.13" points="44.182 26.559 44.182 24.384 49.176 24.384 49.176 26.768"/>
 <line stroke-width="0.13" x1="35.383" y1="2.968" x2="35.075" y2="24.356"/>
 <line stroke-width="0.13" x1="42.768" y1="2.428" x2="42.768" y2="24.817"/>
 <path stroke-width="0.13" d="M49.231 9.352C50.615 15.739 52.113 23.931 51.287 27.143"/>
 <path stroke-width="0.13" d="M45.517 1.203C46.601 1.518 47.442 2.234 47.826 3.285C48.212 4.334 48.807 6.206 48.737 6.224C48.667 6.242 49.243 6.33 49.243 6.33"/>
 <path stroke-width="0.13" d="M47.258 1.334C48.343 1.649 49.182 2.367 49.567 3.415C49.953 4.466 50.548 6.339 50.478 6.355C50.408 6.373 50.985 6.461 50.985 6.461"/>
 <path stroke-width="0.13" d="M49.357 1.613C50.442 1.929 51.283 2.647 51.667 3.695C52.052 4.746 52.648 6.618 52.578 6.636C52.508 6.653 53.085 6.74 53.085 6.74"/>
 <line stroke-width="0.13" x1="26.862" y1="32.936" x2="58.051" y2="33.045"/>
 <path stroke-width="0.3" d="M26.862 32.936C28.222 33.49 27.968 36.04 27.968 36.295C27.968 36.551 23.335 45.222 22.442 46.115"/>
 <g>
  <polyline stroke-width="0.13" points="58.051 33.045 58.051 33.936"/>
  <polyline stroke-width="0.3" points="58.051 33.936 64.319 33.936"/>
  <polyline stroke-width="0.13" points="64.319 33.936 69.153 33.936 70.615 34.106"/>
  <polyline stroke-width="0.3" points="70.615 34.106 72.012 34.344 72.012 46.939"/>
 </g>
 <line stroke-width="0.13" x1="69.153" y1="33.936" x2="69.153" y2="46.223"/>
 <line stroke-width="0.3" x1="64.319" y1="33.936" x2="64.319" y2="25.765"/>
 <path stroke-width="0.3" d="M64.319 25.765L63.671 25.731L63.671 24.745C63.671 24.745 64.114 24.405 64.319 24.472C64.522 24.541 64.522 24.541 64.522 24.541"/>
 <line stroke-width="0.3" x1="64.522" y1="24.541" x2="64.522" y2="14.43"/>
 <path stroke-width="0.3" d="M64.522 14.43C64.727 13.274 65.373 13.069 65.611 13.069"/>
 <line stroke-width="0.3" x1="65.611" y1="13.069" x2="68.131" y2="13.069"/>
 <line stroke-width="0.13" x1="64.522" y1="24.541" x2="67.587" y2="24.541"/>
 <line stroke-width="0.13" x1="64.489" y1="25.833" x2="67.825" y2="25.833"/>
 <line stroke-width="0.3" x1="70.855" y1="33.936" x2="70.855" y2="25.765"/>
 <path stroke-width="0.3" d="M70.855 25.765L71.501 25.731L71.501 24.745C71.501 24.745 71.058 24.405 70.855 24.472C70.65 24.541 70.65 24.541 70.65 24.541"/>
 <line stroke-width="0.3" x1="70.65" y1="24.541" x2="70.65" y2="14.43"/>
 <path stroke-width="0.3" d="M70.65 14.43C70.445 13.274 69.799 13.069 69.561 13.069"/>
 <line stroke-width="0.3" x1="69.561" y1="13.069" x2="67.042" y2="13.069"/>
 <line stroke-width="0.13" x1="70.65" y1="24.541" x2="67.587" y2="24.541"/>
 <line stroke-width="0.13" x1="70.683" y1="25.833" x2="67.347" y2="25.833"/>
 <polyline stroke-width="0.13" points="71.093 37.475 71.739 38.802 71.433 38.802 71.433 41.731 70.99 41.765"/>
 <path stroke-width="0.3" d="M72.012 46.939C72.019 48.307 71.784 49.46 71.4 49.654C71.016 49.845 70.888 49.909 70.396 49.93C69.905 49.953 66.25 49.996 66.25 49.996C66.25 49.996 66.186 53.158 66.186 53.243C66.186 53.329 57.637 53.222 57.637 53.222C57.637 53.222 56.42 50.615 52.637 50.487"/>
 <path stroke-width="0.13" d="M56.377 50.466C57.125 50.444 57.594 50.145 57.637 49.759C57.68 49.375 57.722 48.82 57.722 48.82"/>
 <line stroke-width="0.13" x1="67.959" y1="49.546" x2="57.661" y2="49.546"/>
 <line stroke-width="0.13" x1="61.89" y1="48.756" x2="60.777" y2="48.756"/>
 <line stroke-width="0.13" x1="59.11" y1="48.756" x2="55.418" y2="48.756"/>
 <polyline stroke-width="0.13" points="53.752 48.756 50.073 48.756 50.073 48.029 44.109 48.029"/>
 <line stroke-width="0.13" x1="61.89" y1="48.756" x2="61.89" y2="47.409"/>
 <path stroke-width="0.13" d="M67.959 49.546C68.921 49.268 69.156 47.987 69.156 47.473C69.156 46.96 69.153 46.223 69.153 46.223"/>
 <line stroke-width="0.13" x1="44.02" y1="44.658" x2="50.176" y2="44.658"/>
 <polyline stroke-width="0.13" points="50.222 44.923 50.222 44.082 53.78 44.082"/>
 <line stroke-width="0.13" x1="55.445" y1="44.082" x2="59.432" y2="44.082"/>
 <polyline stroke-width="0.13" points="60.548 44.082 62.097 44.082 62.097 45.438"/>
 <polyline stroke-width="0.13" points="65.293 45.421 52.451 45.421 52.451 44.082"/>
 <line stroke-width="0.13" x1="50.301" y1="44.939" x2="52.451" y2="44.939"/>
 <polyline stroke-width="0.13" points="50.073 48.029 50.073 47.743 52.264 47.743"/>
 <line stroke-width="0.13" x1="52.295" y1="47.354" x2="52.295" y2="48.756"/>
 <line stroke-width="0.13" x1="52.295" y1="47.354" x2="65.37" y2="47.354"/>
 <line stroke-width="0.13" x1="57.796" y1="44.082" x2="57.796" y2="42.414"/>
 <g>
  <path stroke-width="0.13" d="M65.37 47.354C65.748 47.34 66.037 46.895 66.015 46.36C65.993 45.826 65.67 45.406 65.293 45.421C64.963 45.435 64.703 45.774 64.655 46.22"/>
  <path stroke-width="0.13" d="M64.679 46.649C64.774 47.084 65.061 47.365 65.37 47.354"/>
 </g>
 <g>
  <path stroke-width="0.13" d="M55.226 44.295C55.226 43.968 54.96 43.701 54.633 43.701C54.304 43.701 54.037 43.968 54.037 44.295C54.037 44.625 54.304 44.89 54.633 44.89C54.96 44.89 55.226 44.625 55.226 44.295"/>
 </g>
 <polyline stroke-width="0.13" points="53.78 44.082 53.78 44.893 55.445 44.893 55.445 44.082"/>
 <g>
  <path stroke-width="0.13" d="M60.585 44.286C60.585 43.959 60.32 43.692 59.99 43.692C59.662 43.692 59.396 43.959 59.396 44.286C59.396 44.615 59.662 44.881 59.99 44.881C60.32 44.881 60.585 44.615 60.585 44.286"/>
 </g>
 <polyline stroke-width="0.13" points="59.139 44.073 59.139 44.884 60.804 44.884 60.804 44.073"/>
 <g>
  <path stroke-width="0.13" d="M60.518 48.554C60.518 48.226 60.253 47.96 59.924 47.96C59.595 47.96 59.329 48.226 59.329 48.554C59.329 48.883 59.595 49.149 59.924 49.149C60.253 49.149 60.518 48.883 60.518 48.554"/>
 </g>
 <polyline stroke-width="0.13" points="60.777 48.768 60.777 47.957 59.11 47.957 59.11 48.768"/>
 <g>
  <path stroke-width="0.13" d="M55.159 48.564C55.159 48.235 54.893 47.969 54.566 47.969C54.237 47.969 53.972 48.235 53.972 48.564C53.972 48.892 54.237 49.158 54.566 49.158C54.893 49.158 55.159 48.892 55.159 48.564"/>
 </g>
 <polyline stroke-width="0.13" points="55.418 48.777 55.418 47.966 53.752 47.966 53.752 48.777"/>
 <g>
  <path stroke-width="0.13" d="M52.386 47.354C52.703 47.365 52.979 47.069 53.072 46.649"/>
  <path stroke-width="0.13" d="M53.094 46.22C53.045 45.762 52.773 45.435 52.451 45.421"/>
 </g>
 <line stroke-width="0.13" x1="61.957" y1="42.344" x2="60.844" y2="42.344"/>
 <line stroke-width="0.13" x1="59.177" y1="42.344" x2="55.485" y2="42.344"/>
 <line stroke-width="0.13" x1="61.957" y1="42.344" x2="61.957" y2="40.997"/>
 <line stroke-width="0.13" x1="55.512" y1="37.67" x2="59.5" y2="37.67"/>
 <polyline stroke-width="0.13" points="60.615 37.67 62.164 37.67 62.164 39.027"/>
 <polyline stroke-width="0.13" points="65.359 39.011 52.518 39.011 52.518 37.67"/>
 <line stroke-width="0.13" x1="52.362" y1="40.942" x2="52.362" y2="42.344"/>
 <line stroke-width="0.13" x1="52.362" y1="40.942" x2="65.438" y2="40.942"/>
 <g>
  <path stroke-width="0.13" d="M65.438 40.942C65.814 40.927 66.103 40.482 66.081 39.95C66.061 39.415 65.736 38.996 65.359 39.011C65.028 39.024 64.766 39.368 64.721 39.819"/>
  <path stroke-width="0.13" d="M64.745 40.234C64.838 40.67 65.128 40.953 65.438 40.942"/>
 </g>
 <g>
  <path stroke-width="0.13" d="M55.293 37.884C55.293 37.557 55.027 37.29 54.7 37.29C54.371 37.29 54.106 37.557 54.106 37.884C54.106 38.213 54.371 38.478 54.7 38.478C55.027 38.478 55.293 38.213 55.293 37.884"/>
 </g>
 <polyline stroke-width="0.13" points="53.847 37.67 53.847 38.481 55.512 38.481 55.512 37.67"/>
 <g>
  <path stroke-width="0.13" d="M60.652 37.875C60.652 37.548 60.387 37.281 60.057 37.281C59.729 37.281 59.463 37.548 59.463 37.875C59.463 38.204 59.729 38.469 60.057 38.469C60.387 38.469 60.652 38.204 60.652 37.875"/>
 </g>
 <polyline stroke-width="0.13" points="59.206 37.661 59.206 38.472 60.871 38.472 60.871 37.661"/>
 <g>
  <path stroke-width="0.13" d="M60.585 42.143C60.585 41.814 60.32 41.548 59.991 41.548C59.662 41.548 59.396 41.814 59.396 42.143C59.396 42.472 59.662 42.737 59.991 42.737C60.32 42.737 60.585 42.472 60.585 42.143"/>
 </g>
 <polyline stroke-width="0.13" points="60.844 42.357 60.844 41.545 59.177 41.545 59.177 42.357"/>
 <g>
  <path stroke-width="0.13" d="M55.226 42.152C55.226 41.823 54.96 41.557 54.633 41.557C54.304 41.557 54.039 41.823 54.039 42.152C54.039 42.481 54.304 42.746 54.633 42.746C54.96 42.746 55.226 42.481 55.226 42.152"/>
 </g>
 <polyline stroke-width="0.13" points="55.485 42.366 55.485 41.554 53.82 41.554 53.82 42.366"/>
 <g>
  <path stroke-width="0.13" d="M52.453 40.942C52.829 40.956 53.151 40.533 53.168 40C53.186 39.466 52.896 39.024 52.518 39.011"/>
 </g>
 <g>
  <path stroke-width="0.13" d="M50.073 47.744C50.557 47.77 50.987 47.301 51.112 46.649"/>
  <path stroke-width="0.13" d="M51.146 46.22C51.125 45.502 50.725 44.953 50.222 44.923"/>
 </g>
 <path stroke-width="0.13" d="M44.02 44.658C43.656 44.743 43.088 46.14 43.183 46.53C43.279 46.921 43.279 46.921 43.279 46.921"/>
 <line stroke-width="0.13" x1="45.551" y1="44.658" x2="45.551" y2="47.941"/>
 <line stroke-width="0.13" x1="45.551" y1="46.686" x2="45.551" y2="48.029"/>
 <line stroke-width="0.13" x1="47.097" y1="44.658" x2="47.097" y2="47.941"/>
 <line stroke-width="0.13" x1="47.097" y1="47.116" x2="47.097" y2="48.029"/>
 <line stroke-width="0.3" x1="56.377" y1="50.466" x2="46.993" y2="50.466"/>
 <path stroke-width="0.3" d="M46.993 50.466C45.479 50.542 45.171 51.228 45.219 52.482C45.267 53.737 45.243 56.222 45.243 56.222"/>
 <line stroke-width="0.13" x1="43.279" y1="46.921" x2="41.006" y2="53.95"/>
 <g>
  <polyline stroke-width="0.13" points="44.109 48.029 42.307 54.258 42.686 54.258 42.686 58.826"/>
  <polyline stroke-width="0.3" points="42.686 58.826 43.656 58.826 43.656 57.95 45.076 57.95 45.456 57.548 47.42 57.548 47.42 56.838 45.551 56.838 44.887 56.222"/>
 </g>
 <polyline stroke-width="0.13" points="45.243 56.222 43.301 56.222 43.301 57.95 43.656 57.95"/>
 <polyline stroke-width="0.3" points="37.406 58.826 36.436 58.826 36.436 57.95 35.017 57.95 34.637 57.548 32.673 57.548 32.673 56.838 34.542 56.838 35.206 56.222"/>
 <polyline stroke-width="0.13" points="34.85 56.222 36.792 56.222 36.792 57.95 36.436 57.95"/>
 <polyline stroke-width="0.13" points="37.406 58.826 37.406 54.026 39.206 54.026"/>
 <line stroke-width="0.13" x1="37.406" y1="58.826" x2="39.819" y2="58.826"/>
 <line stroke-width="0.13" x1="40.247" y1="58.826" x2="42.686" y2="58.826"/>
 <line stroke-width="0.13" x1="37.406" y1="57.609" x2="39.819" y2="57.609"/>
 <line stroke-width="0.13" x1="40.247" y1="57.609" x2="42.548" y2="57.609"/>
 <line stroke-width="0.3" x1="34.85" y1="56.222" x2="34.85" y2="51.664"/>
 <path stroke-width="0.3" d="M34.85 51.664C34.921 50.984 34.1 50.563 33.621 50.482C33.14 50.402 30.478 50.302 28.777 50.582C27.074 50.862 25.172 51.543 24.492 52.024C23.812 52.505 17.966 52.545 16.085 52.344C14.202 52.145 13.843 51.823 13.843 51.823L13.803 46.539C13.803 46.539 14.083 46.058 14.884 46.098C15.683 46.139 22.442 46.115 22.442 46.115"/>
 <line stroke-width="0.13" x1="58.051" y1="33.936" x2="58.051" y2="37.67"/>
 <g>
  <path stroke-width="0.13" d="M47.939 41.213C48.338 41.228 48.682 40.679 48.707 39.99C48.732 39.299 48.43 38.728 48.031 38.713"/>
 </g>
 <g>
  <path stroke-width="0.13" d="M48.917 41.253C49.314 41.268 49.658 40.722 49.685 40.03C49.71 39.341 49.408 38.77 49.009 38.755"/>
 </g>
 <line stroke-width="0.13" x1="48.917" y1="41.253" x2="47.939" y2="41.213"/>
 <line stroke-width="0.13" x1="49.009" y1="38.755" x2="48.031" y2="38.713"/>
 <g>
  <path stroke-width="0.13" d="M51.384 40.945C51.694 40.942 51.939 40.506 51.932 39.972C51.927 39.439 51.673 39.009 51.365 39.012"/>
  <path stroke-width="0.13" d="M51.378 40.945C51.381 40.945 51.384 40.945 51.384 40.945"/>
 </g>
 <line stroke-width="0.13" x1="51.365" y1="39.012" x2="49.417" y2="39.012"/>
 <line stroke-width="0.13" x1="51.384" y1="40.945" x2="49.441" y2="40.945"/>
 <line stroke-width="0.13" x1="53.82" y1="42.366" x2="52.362" y2="42.366"/>
 <path stroke-width="0.13" d="M52.475 42.366C52.002 42.302 51.591 41.747 51.591 41.603"/>
 <path stroke-width="0.13" d="M52.518 37.67C52.085 37.674 51.796 38.189 51.713 38.395"/>
 <line stroke-width="0.13" x1="53.847" y1="37.67" x2="52.518" y2="37.67"/>
 <line stroke-width="0.13" x1="51.713" y1="38.395" x2="46.53" y2="38.395"/>
 <path stroke-width="0.13" d="M46.53 38.395C46.262 38.435 45.975 38.661 45.975 38.661"/>
 <line stroke-width="0.13" x1="46.033" y1="38.619" x2="42.005" y2="38.619"/>
 <line stroke-width="0.13" x1="51.591" y1="41.603" x2="46.387" y2="41.603"/>
 <path stroke-width="0.13" d="M46.387 41.603C46.243 41.603 46.036 41.46 45.996 41.378"/>
 <line stroke-width="0.13" x1="45.996" y1="41.378" x2="42.045" y2="41.378"/>
 <line stroke-width="0.13" x1="48.031" y1="38.713" x2="47.003" y2="39.691"/>
 <line stroke-width="0.13" x1="47.939" y1="41.213" x2="47.045" y2="40.329"/>
 <path stroke-width="0.13" d="M47.045 40.329C46.674 40.04 47.003 39.691 47.003 39.691"/>
 <polyline stroke-width="0.13" points="33.777 32.96 33.777 34.774 36.451 34.774 36.451 36.42 37.85 36.42 37.85 37.161 38.343 37.161 38.343 38.024 39.002 38.024 39.002 49.642"/>
 <polyline stroke-width="0.13" points="38.837 32.978 38.837 33.828 38.097 33.828 38.097 34.445 38.837 34.445 38.837 36.46 40.853 36.46"/>
 <polyline stroke-width="0.13" points="47.271 32.96 47.271 34.774 44.597 34.774 44.597 36.42 43.198 36.42 43.198 37.161 42.704 37.161 42.704 38.024 42.045 38.024 42.045 38.619"/>
 <line stroke-width="0.13" x1="42.045" y1="41.377" x2="42.045" y2="49.642"/>
 <polyline stroke-width="0.13" points="42.21 32.978 42.21 33.828 42.951 33.828 42.951 34.445 42.21 34.445 42.21 36.46 40.195 36.46"/>
 <polyline stroke-width="0.13" points="38.837 36.46 38.837 37.206 39.526 37.206"/>
 <path stroke-width="0.13" d="M38.837 36.834C39.185 36.862 39.576 36.79 39.6 37.218"/>
 <line stroke-width="0.13" x1="39.6" y1="37.218" x2="39.6" y2="40.161"/>
 <line stroke-width="0.13" x1="42.21" y1="37.229" x2="41.521" y2="37.229"/>
 <path stroke-width="0.13" d="M42.21 36.856C41.862 36.886 41.47 36.814 41.447 37.241"/>
 <line stroke-width="0.13" x1="41.447" y1="37.241" x2="41.447" y2="40.185"/>
 <line stroke-width="0.13" x1="42.21" y1="36.46" x2="42.21" y2="37.229"/>
 <path stroke-width="0.13" d="M42.005 38.619C41.686 39.345 41.557 41.002 42.045 41.378"/>
 <line stroke-width="0.13" x1="41.006" y1="49.682" x2="42.045" y2="49.642"/>
 <line stroke-width="0.13" x1="37.737" y1="54.026" x2="37.737" y2="54.509"/>
 <polyline stroke-width="0.13" points="37.703 54.509 39.232 54.509 39.232 56.584 38.292 56.584"/>
 <polyline stroke-width="0.13" points="38.292 56.554 38.292 56.015 37.439 56.015"/>
 <path stroke-width="0.13" d="M39.164 56.584C39.244 57.002 39.427 57.082 39.53 57.151C39.634 57.219 39.634 57.219 39.634 57.219"/>
 <line stroke-width="0.13" x1="39.634" y1="57.219" x2="39.634" y2="57.609"/>
 <line stroke-width="0.13" x1="42.686" y1="54.509" x2="42.118" y2="54.509"/>
 <polyline stroke-width="0.13" points="40.887 56.368 40.887 56.584 41.828 56.584"/>
 <polyline stroke-width="0.13" points="41.828 56.554 41.828 56.015 42.68 56.015"/>
 <path stroke-width="0.13" d="M40.956 56.584C40.875 57.002 40.692 57.082 40.59 57.151C40.487 57.219 40.487 57.219 40.487 57.219"/>
 <line stroke-width="0.13" x1="40.487" y1="57.219" x2="40.487" y2="57.609"/>
 <polyline stroke-width="0.13" points="42.109 39.811 62.506 39.811 62.506 39.204 65.501 40.036 62.551 40.807 62.551 40.24 42.195 40.24"/>
 <polyline stroke-width="0.13" points="43.926 46.982 41.561 54.292 42.137 54.478 40.421 57.07 40.6 54.026"/>
 <line stroke-width="0.13" x1="41.139" y1="54.201" x2="43.558" y2="46.75"/>
 <polyline stroke-width="0.13" points="40.247 57.158 40.247 59.468 40.854 59.468 40.024 62.463 39.253 59.512 39.819 59.512 39.819 57.158"/>
 <line stroke-width="0.3" x1="13.554" y1="2.233" x2="18.138" y2="2.18"/>
 <line stroke-width="0.3" x1="46.1" y1="1.155" x2="49.761" y2="1.617"/>
 <path stroke="none" fill="#8F8F8F" d="M52.17 46.106L52.122 45.539 49.262 46.286 52.167 47.14C52.167 47.14 52.079 46.52 52.122 46.527 52.167 46.534 65.549 46.534 65.549 46.534L65.569 46.106 52.17 46.106z"/>
 <polyline stroke-width="0.13" points="65.549 46.534 52.167 46.534 52.167 47.14 49.171 46.31 52.122 45.539 52.122 46.106 65.569 46.106"/>
 <text x="57.665" y="60.64" stroke="none" fill="#000000" font-family="'Helvetica'" font-size="4.235">1</text>
 <line stroke="#FFFFFF" stroke-width="1" x1="47.923" y1="47.503" x2="57.292" y2="58.7"/>
 <line stroke-width="0.13" x1="47.923" y1="47.503" x2="57.292" y2="58.7"/>
 <line stroke-width="0.13" x1="40.225" y1="43.164" x2="39.618" y2="43.133"/>
 <line stroke-width="0.13" x1="41.22" y1="43.173" x2="40.655" y2="43.143"/>
 <line stroke-width="0.13" x1="39.6" y1="40.161" x2="40.003" y2="56.524"/>
 <path stroke-width="0.13" d="M40.003 56.524C40.003 56.524 40.31 56.921 40.31 56.137C40.31 55.35 41.447 40.185 41.447 40.185"/>
 <text transform="matrix(0 -1 1 0 70.852 61.485)" stroke="none" fill="#000000" font-family="'Arial'" font-size="2.117">324 192</text>
</svg>
