<?xml version="1.0" encoding="utf-8"?>
<!DOCTYPE svg PUBLIC "-//W3C//DTD SVG 1.1//EN" "http://www.w3.org/Graphics/SVG/1.1/DTD/svg11.dtd">
<!-- Generator: PTC Arbortext IsoDraw 7.3 -->
<svg id="Standard_x0020_layer" width="100%" height="100%" viewBox="0 0 75 45.283"
 xmlns="http://www.w3.org/2000/svg" xmlns:xlink="http://www.w3.org/1999/xlink"
 fill-rule="evenodd" clip-rule="evenodd" stroke="#000000" stroke-linecap="round" fill="none" xml:space="preserve">
 <path stroke-width="0.131" stroke-linejoin="round" d="M60.509 10.486C60.549 10.942 61.779 10.894 61.932 10.521"/>
 <path stroke-width="0.25" stroke-linejoin="round" d="M61.917 10.521C61.926 10.061 60.539 10.051 60.494 10.502"/>
 <path stroke-width="0.131" stroke-linejoin="round" d="M62.094 10.73C62.026 11.268 60.326 11.244 60.347 10.72"/>
 <path stroke-width="0.131" stroke-linejoin="round" d="M56.279 12.352C56.262 12.974 58.253 12.99 58.307 12.401C58.362 11.788 56.43 11.778 56.279 12.352z"/>
 <path stroke-width="0.201" stroke-linejoin="round" d="M62.058 13.692C62.073 14.297 60.427 14.198 60.237 13.73"/>
 <path stroke-width="0.25" stroke-linejoin="round" d="M62.058 13.692L62.094 10.766"/>
 <path stroke-width="0.25" stroke-linejoin="round" d="M62.094 10.73L61.917 10.449"/>
 <path stroke-width="0.25" stroke-linejoin="round" d="M60.472 10.449L60.368 10.801L60.262 13.727"/>
 <path stroke-width="0.131" stroke-linejoin="round" d="M60.368 11.083C60.601 11.265 60.932 11.31 61.22 11.304"/>
 <path stroke-width="0.131" stroke-linejoin="round" d="M60.402 11.365C60.645 11.526 60.954 11.526 61.234 11.522"/>
 <path stroke-width="0.131" stroke-linejoin="round" d="M60.368 11.577C60.593 11.765 60.92 11.76 61.195 11.756"/>
 <path stroke-width="0.131" stroke-linejoin="round" d="M60.368 11.859C60.6 12.041 60.935 12.086 61.22 12.08"/>
 <path stroke-width="0.131" stroke-linejoin="round" d="M60.402 12.176C60.643 12.337 60.956 12.337 61.234 12.33"/>
 <path stroke-width="0.131" stroke-linejoin="round" d="M60.368 12.352C60.588 12.541 60.921 12.538 61.195 12.532"/>
 <path stroke-width="0.131" stroke-linejoin="round" d="M60.368 12.635C60.6 12.816 60.935 12.861 61.22 12.855"/>
 <path stroke-width="0.131" stroke-linejoin="round" d="M60.402 12.916C60.646 13.077 60.953 13.076 61.234 13.07"/>
 <path stroke-width="0.131" stroke-linejoin="round" d="M60.368 13.128C60.588 13.317 60.921 13.311 61.195 13.307"/>
 <path stroke-width="0.131" stroke-linejoin="round" d="M57.936 11.964L58.393 12.246"/>
 <path stroke-width="0.131" stroke-linejoin="round" d="M58.393 12.282L58.393 13.022L57.865 13.516"/>
 <path stroke-width="0.131" stroke-linejoin="round" d="M57.829 13.516L56.561 13.551"/>
 <path stroke-width="0.131" stroke-linejoin="round" d="M56.561 13.516L56.103 12.987L56.067 12.458L56.314 12.282"/>
 <path stroke-width="0.131" stroke-linejoin="round" d="M56.595 13.48L56.595 12.952"/>
 <path stroke-width="0.131" stroke-linejoin="round" d="M57.795 13.48L57.829 12.952"/>
 <path stroke-width="0.131" stroke-linejoin="round" d="M56.209 12.458C56.359 12.605 56.502 12.871 56.654 12.977L56.628 12.977C57.014 12.871 57.384 12.817 57.765 12.929L57.744 12.929C57.939 12.823 58.137 12.733 58.298 12.567"/>
 <path stroke-width="0.25" stroke-linejoin="round" d="M58.429 12.599C58.578 12.688 58.719 12.794 58.805 12.948"/>
 <path stroke-width="0.131" stroke-linejoin="round" d="M58.781 12.916C59.293 13.774 57.329 13.925 56.917 13.897C56.524 13.869 56.125 13.733 55.825 13.475C55.396 13.109 55.843 12.702 56.185 12.529"/>
 <path stroke-width="0.131" stroke-linejoin="round" d="M55.75 14.432C55.674 14.875 57.054 14.913 57.149 14.51"/>
 <path stroke-width="0.25" stroke-linejoin="round" d="M57.159 14.502C57.232 14.06 55.859 14.025 55.761 14.423"/>
 <path stroke-width="0.131" stroke-linejoin="round" d="M57.337 14.679C57.264 15.212 55.569 15.192 55.591 14.666"/>
 <path stroke-width="0.201" stroke-linejoin="round" d="M57.301 17.64C57.311 18.242 55.67 18.149 55.481 17.676"/>
 <path stroke-width="0.25" stroke-linejoin="round" d="M57.301 17.64L57.337 14.714"/>
 <path stroke-width="0.25" stroke-linejoin="round" d="M57.337 14.679L57.159 14.397"/>
 <path stroke-width="0.25" stroke-linejoin="round" d="M55.715 14.397L55.609 14.749L55.503 17.675"/>
 <path stroke-width="0.131" stroke-linejoin="round" d="M55.575 15.031C55.804 15.214 56.143 15.256 56.426 15.25"/>
 <path stroke-width="0.131" stroke-linejoin="round" d="M55.645 15.349C55.889 15.509 56.195 15.506 56.476 15.503"/>
 <path stroke-width="0.131" stroke-linejoin="round" d="M55.609 15.525C55.832 15.712 56.162 15.708 56.438 15.704"/>
 <path stroke-width="0.131" stroke-linejoin="round" d="M55.575 15.842C55.804 16.024 56.142 16.068 56.426 16.062"/>
 <path stroke-width="0.131" stroke-linejoin="round" d="M55.645 16.123C55.889 16.285 56.195 16.283 56.476 16.278"/>
 <path stroke-width="0.131" stroke-linejoin="round" d="M55.609 16.335C55.832 16.521 56.164 16.521 56.438 16.515"/>
 <path stroke-width="0.131" stroke-linejoin="round" d="M55.575 16.582C55.804 16.763 56.143 16.809 56.426 16.801"/>
 <path stroke-width="0.131" stroke-linejoin="round" d="M55.645 16.899C55.887 17.059 56.197 17.059 56.476 17.054"/>
 <path stroke-width="0.131" stroke-linejoin="round" d="M55.609 17.074C55.832 17.263 56.162 17.262 56.438 17.256"/>
 <g>
  <path stroke-width="0.131" stroke-linejoin="round" d="M59.979 6.256C60.109 6.694 61.155 6.618 61.384 6.315"/>
  <path stroke-width="0.3" stroke-linejoin="round" d="M61.384 6.315C61.537 5.921 60.029 5.762 59.978 6.275"/>
 </g>
 <path stroke-width="0.131" stroke-linejoin="round" d="M61.6 6.466C61.527 7.001 59.832 6.98 59.854 6.455"/>
 <path stroke-width="0.201" stroke-linejoin="round" d="M61.53 9.426C61.537 10.029 59.899 9.939 59.71 9.465"/>
 <path stroke-width="0.3" stroke-linejoin="round" d="M61.566 7.982L61.6 6.466"/>
 <path stroke-width="0.25" stroke-linejoin="round" d="M61.53 9.426L61.566 7.982"/>
 <path stroke-width="0.3" stroke-linejoin="round" d="M61.6 6.466L61.426 6.184"/>
 <g>
  <path stroke-width="0.3" stroke-linejoin="round" d="M59.945 6.184L59.838 6.538"/>
  <path stroke-width="0.25" stroke-linejoin="round" d="M59.838 6.538L59.732 9.462"/>
 </g>
 <path stroke-width="0.131" stroke-linejoin="round" d="M59.838 6.82C60.07 7.001 60.406 7.046 60.692 7.04"/>
 <path stroke-width="0.131" stroke-linejoin="round" d="M59.874 7.137C60.118 7.296 60.424 7.296 60.706 7.291"/>
 <path stroke-width="0.131" stroke-linejoin="round" d="M59.874 7.312C60.097 7.5 60.427 7.496 60.701 7.492"/>
 <path stroke-width="0.131" stroke-linejoin="round" d="M59.838 7.629C60.07 7.812 60.406 7.857 60.692 7.851"/>
 <path stroke-width="0.131" stroke-linejoin="round" d="M59.874 7.911C60.116 8.073 60.424 8.071 60.706 8.067"/>
 <path stroke-width="0.131" stroke-linejoin="round" d="M59.874 8.124C60.097 8.311 60.427 8.307 60.701 8.303"/>
 <path stroke-width="0.131" stroke-linejoin="round" d="M59.838 8.369C60.07 8.551 60.406 8.598 60.692 8.59"/>
 <path stroke-width="0.131" stroke-linejoin="round" d="M59.874 8.686C60.116 8.849 60.424 8.846 60.706 8.843"/>
 <path stroke-width="0.131" stroke-linejoin="round" d="M59.874 8.864C60.1 9.048 60.424 9.05 60.701 9.044"/>
 <path stroke-width="0.131" stroke-linejoin="round" d="M55.081 3.225C54.968 3.637 56.371 3.729 56.405 3.266"/>
 <path stroke-width="0.3" stroke-linejoin="round" d="M56.42 3.259C56.359 2.862 55.185 2.851 55.101 3.221"/>
 <path stroke-width="0.131" stroke-linejoin="round" d="M56.595 3.472C56.53 3.976 54.929 3.952 54.959 3.455"/>
 <path stroke-width="0.201" stroke-linejoin="round" d="M56.526 6.221C56.534 6.788 54.987 6.698 54.814 6.251"/>
 <path stroke-width="0.3" stroke-linejoin="round" d="M56.561 5.586L56.595 3.436"/>
 <path stroke-width="0.25" stroke-linejoin="round" d="M56.526 6.221L56.526 5.586"/>
 <path stroke-width="0.3" stroke-linejoin="round" d="M56.595 3.472L56.42 3.225"/>
 <path stroke-width="0.3" stroke-linejoin="round" d="M55.045 3.189L54.939 3.506L54.868 4.987"/>
 <path stroke-width="0.25" stroke-linejoin="round" d="M54.905 4.987L54.868 6.29"/>
 <path stroke-width="0.131" stroke-linejoin="round" d="M54.939 3.789C55.158 3.959 55.478 4.003 55.746 3.996"/>
 <path stroke-width="0.131" stroke-linejoin="round" d="M54.975 4.07C55.206 4.222 55.494 4.219 55.761 4.214"/>
 <path stroke-width="0.131" stroke-linejoin="round" d="M54.939 4.246C55.154 4.421 55.46 4.419 55.722 4.415"/>
 <path stroke-width="0.131" stroke-linejoin="round" d="M54.939 4.528C55.156 4.7 55.478 4.743 55.746 4.735"/>
 <path stroke-width="0.131" stroke-linejoin="round" d="M54.975 4.811C55.209 4.96 55.493 4.96 55.761 4.955"/>
 <path stroke-width="0.131" stroke-linejoin="round" d="M54.939 4.987C55.152 5.163 55.46 5.16 55.722 5.155"/>
 <path stroke-width="0.131" stroke-linejoin="round" d="M54.939 5.267C55.155 5.442 55.479 5.482 55.746 5.476"/>
 <path stroke-width="0.131" stroke-linejoin="round" d="M54.975 5.549C55.207 5.703 55.493 5.7 55.761 5.695"/>
 <path stroke-width="0.131" stroke-linejoin="round" d="M54.939 5.727C55.152 5.902 55.462 5.902 55.722 5.897"/>
 <path stroke-width="0.25" stroke-linejoin="round" d="M54.517 14.679C54.167 14.564 53 14.438 52.881 14.955"/>
 <path stroke-width="0.131" stroke-linejoin="round" d="M52.859 14.961C52.798 15.444 53.845 15.445 54.127 15.413C54.332 15.391 54.682 15.337 54.816 15.153C54.984 14.919 54.746 14.74 54.521 14.679"/>
 <path stroke-width="0.25" stroke-linejoin="round" d="M54.517 14.609L54.975 14.891"/>
 <g>
  <path stroke-width="0.25" stroke-linejoin="round" d="M54.975 14.926L54.975 15.666"/>
  <path stroke-width="0.131" stroke-linejoin="round" d="M54.975 15.666L54.447 16.16"/>
 </g>
 <path stroke-width="0.131" stroke-linejoin="round" d="M54.411 16.16L53.143 16.193"/>
 <g>
  <path stroke-width="0.131" stroke-linejoin="round" d="M53.143 16.16L52.683 15.63"/>
  <path stroke-width="0.25" stroke-linejoin="round" d="M52.683 15.63L52.649 15.102L52.896 14.926"/>
 </g>
 <path stroke-width="0.131" stroke-linejoin="round" d="M53.177 16.123L53.177 15.595"/>
 <path stroke-width="0.131" stroke-linejoin="round" d="M54.375 16.123L54.411 15.595"/>
 <path stroke-width="0.131" stroke-linejoin="round" d="M52.789 15.102C52.942 15.25 53.081 15.512 53.234 15.621L53.21 15.621C53.595 15.51 53.957 15.461 54.347 15.571L54.323 15.571C54.526 15.47 54.72 15.378 54.878 15.211"/>
 <path stroke-width="0.25" stroke-linejoin="round" d="M52.262 15.842C52.237 15.587 52.445 15.326 52.686 15.265"/>
 <path stroke-width="0.131" stroke-linejoin="round" d="M52.649 15.243L52.753 15.173"/>
 <path stroke-width="0.131" stroke-linejoin="round" d="M55.009 15.243C55.942 15.788 55 16.46 54.307 16.542C53.719 16.611 52.418 16.617 52.246 15.843"/>
 <path stroke-width="0.131" stroke-linejoin="round" d="M52.719 7.102C52.722 7.684 54.567 7.702 54.622 7.147C54.682 6.575 52.865 6.557 52.719 7.102z"/>
 <path stroke-width="0.131" stroke-linejoin="round" d="M54.27 6.748L54.694 7.03L54.694 7.735"/>
 <path stroke-width="0.131" stroke-linejoin="round" d="M54.694 7.7L54.411 7.947"/>
 <path stroke-width="0.131" stroke-linejoin="round" d="M53.002 8.194L52.543 7.7"/>
 <path stroke-width="0.131" stroke-linejoin="round" d="M52.579 7.7L52.543 7.206L52.789 7.03"/>
 <path stroke-width="0.131" stroke-linejoin="round" d="M53.036 8.159L53.036 7.665"/>
 <path stroke-width="0.131" stroke-linejoin="round" d="M54.164 8.018L54.164 7.665"/>
 <path stroke-width="0.131" stroke-linejoin="round" d="M52.649 7.206C52.789 7.344 52.923 7.593 53.067 7.695L53.052 7.695L53.043 7.695C53.411 7.589 53.738 7.554 54.112 7.647L54.088 7.647C54.28 7.554 54.46 7.464 54.609 7.309"/>
 <path stroke-width="0.25" stroke-linejoin="round" d="M54.798 7.347C54.996 7.459 55.173 7.647 55.158 7.889"/>
 <path stroke-width="0.131" stroke-linejoin="round" d="M52.436 8.265C51.96 7.916 52.216 7.504 52.639 7.272"/>
 <path stroke-width="0.131" stroke-linejoin="round" d="M54.764 7.312L54.798 7.347"/>
 <path stroke-width="0.131" stroke-linejoin="round" d="M56.209 9.252C56.207 9.833 58.055 9.85 58.112 9.298C58.171 8.73 56.35 8.705 56.209 9.252z"/>
 <path stroke-width="0.131" stroke-linejoin="round" d="M57.759 8.9L58.182 9.18L58.182 9.885L57.689 10.343L56.49 10.378"/>
 <path stroke-width="0.131" stroke-linejoin="round" d="M56.49 10.343L56.031 9.85"/>
 <path stroke-width="0.131" stroke-linejoin="round" d="M56.067 9.85L56.031 9.358L56.279 9.18"/>
 <path stroke-width="0.131" stroke-linejoin="round" d="M56.526 10.308L56.526 9.814"/>
 <path stroke-width="0.131" stroke-linejoin="round" d="M57.618 10.308L57.654 9.814"/>
 <path stroke-width="0.131" stroke-linejoin="round" d="M56.139 9.358C56.28 9.494 56.411 9.744 56.557 9.845L56.542 9.846L56.533 9.843C56.895 9.744 57.24 9.693 57.598 9.798L57.578 9.798C57.768 9.702 57.951 9.615 58.1 9.46"/>
 <path stroke-width="0.25" stroke-linejoin="round" d="M58.253 9.497C58.442 9.605 58.606 9.763 58.637 9.987"/>
 <path stroke-width="0.131" stroke-linejoin="round" d="M58.64 9.955C58.625 10.689 57.29 10.778 56.781 10.695C56.439 10.637 55.985 10.554 55.765 10.253C55.493 9.884 55.798 9.593 56.125 9.412"/>
 <path stroke-width="0.131" stroke-linejoin="round" d="M58.216 9.462L58.216 9.462z"/>
 <path stroke-width="0.3" stroke-linejoin="round" d="M62.094 8.369C63.137 9.5 63.817 10.98 63.645 12.542"/>
 <path stroke-width="0.131" stroke-linejoin="round" d="M63.645 12.528C63.343 14.621 61.915 16.007 60.31 17.24C59.606 17.783 58.682 18.269 57.862 18.609C56.932 18.995 55.993 19.408 55.018 19.669C53.374 20.109 51.75 20.434 50.066 20.675"/>
 <path stroke-width="0.3" stroke-linejoin="round" d="M63.68 12.423C63.68 13.544 63.466 14.615 62.79 15.544"/>
 <path stroke-width="0.25" stroke-linejoin="round" d="M62.799 15.56C61.707 17.012 60.256 18.12 58.603 18.873"/>
 <path stroke-width="0.25" stroke-linejoin="round" d="M55.75 20.001C53.789 20.646 51.747 20.946 49.704 21.189"/>
 <path stroke-width="0.131" stroke-linejoin="round" d="M58.606 18.873C57.68 19.314 56.735 19.676 55.767 20.012"/>
 <path stroke-width="0.25" stroke-linejoin="round" d="M58.957 18.838C58.893 19.073 58.877 19.431 58.643 19.553C58.228 19.769 57.792 19.948 57.363 20.134C56.993 20.295 56.615 20.483 56.222 20.582C55.883 20.669 55.441 20.44 55.145 20.289"/>
 <path stroke-width="0.131" stroke-linejoin="round" d="M55.258 7.878C55.359 7.732 55.439 7.653 55.63 7.698"/>
 <path stroke-width="0.25" stroke-linejoin="round" d="M59.064 10.132C58.75 10.323 58.659 11.375 58.945 11.612"/>
 <path stroke-width="0.131" stroke-linejoin="round" d="M58.957 11.612C59.289 11.686 59.02 12.212 59.226 12.413C59.308 12.493 59.46 12.513 59.5 12.634C59.561 12.811 59.396 13.101 59.329 13.26C58.948 14.183 58.13 14.839 57.345 15.419"/>
 <path stroke-width="0.131" stroke-linejoin="round" d="M52.155 7.947C52.121 8.073 52.069 8.192 52.029 8.317"/>
 <path stroke-width="0.25" stroke-linejoin="round" d="M55.609 9.85C55.53 10.21 55.25 10.785 55.546 11.098"/>
 <path stroke-width="0.25" stroke-linejoin="round" d="M55.645 13.198C55.485 13.487 55.436 13.621 55.488 13.948"/>
 <path stroke-width="0.25" stroke-linejoin="round" d="M55.468 13.833C55.133 14.083 54.741 14.294 54.426 14.564"/>
 <path stroke-width="0.25" stroke-linejoin="round" d="M52.262 15.807C51.353 16.071 50.409 16.455 49.453 16.471"/>
 <path stroke-width="0.131" stroke-linejoin="round" d="M55.116 16.722C54.597 16.85 54.103 16.911 53.581 16.975L53.584 16.993L53.584 16.969C52.296 17.405 51.018 17.835 49.637 17.798"/>
 <path stroke-width="0.3" stroke-linejoin="round" d="M59.802 6.748C59.289 6.506 58.783 6.237 58.256 6.024C57.704 5.799 57.13 5.671 56.572 5.472"/>
 <path stroke-width="0.3" stroke-linejoin="round" d="M54.905 4.987C53.14 4.769 51.359 4.456 49.576 4.464"/>
 <path stroke-width="0.131" stroke-linejoin="round" d="M59.17 10.026C58.951 9.614 58.798 9.224 58.454 8.893"/>
 <path stroke-width="0.131" stroke-linejoin="round" d="M52.683 6.714C51.844 6.498 51.091 6.243 50.218 6.336"/>
 <path stroke-width="0.131" stroke-linejoin="round" d="M47.784 6.395C47.786 6.979 49.634 6.996 49.689 6.44C49.746 5.87 47.929 5.852 47.784 6.395z"/>
 <path stroke-width="0.131" stroke-linejoin="round" d="M49.335 6.043L49.759 6.325L49.759 7.03L49.265 7.488L48.067 7.524L47.609 7.03"/>
 <path stroke-width="0.131" stroke-linejoin="round" d="M47.643 6.996L47.609 6.503"/>
 <path stroke-width="0.131" stroke-linejoin="round" d="M47.609 6.538L47.856 6.36"/>
 <path stroke-width="0.131" stroke-linejoin="round" d="M48.103 7.488L48.103 6.996"/>
 <path stroke-width="0.131" stroke-linejoin="round" d="M49.195 7.488L49.229 6.996"/>
 <path stroke-width="0.131" stroke-linejoin="round" d="M47.715 6.538C47.859 6.676 47.987 6.923 48.133 7.025L48.118 7.025L48.11 7.025C48.472 6.921 48.81 6.878 49.177 6.979L49.155 6.979C49.344 6.883 49.526 6.794 49.676 6.639"/>
 <path stroke-width="0.25" stroke-linejoin="round" d="M49.865 6.679C50.054 6.785 50.206 6.974 50.192 7.198"/>
 <path stroke-width="0.131" stroke-linejoin="round" d="M50.182 7.206C50.106 7.926 48.776 7.958 48.268 7.876C47.896 7.817 47.5 7.703 47.268 7.387C47.027 7.054 47.415 6.748 47.676 6.605"/>
 <path stroke-width="0.131" stroke-linejoin="round" d="M49.829 6.642L49.899 6.679"/>
 <path stroke-width="0.131" stroke-linejoin="round" d="M42.57 7.347C42.567 7.929 44.417 7.948 44.473 7.394C44.533 6.823 42.712 6.802 42.57 7.347z"/>
 <path stroke-width="0.131" stroke-linejoin="round" d="M44.119 6.996L44.542 7.277L44.542 7.982L44.048 8.439"/>
 <path stroke-width="0.131" stroke-linejoin="round" d="M44.015 8.439L42.816 8.475"/>
 <path stroke-width="0.131" stroke-linejoin="round" d="M42.85 8.439L42.393 7.947L42.356 7.453L42.604 7.277"/>
 <path stroke-width="0.131" stroke-linejoin="round" d="M42.85 8.404L42.85 7.911"/>
 <path stroke-width="0.131" stroke-linejoin="round" d="M43.978 8.404L44.015 7.911"/>
 <path stroke-width="0.131" stroke-linejoin="round" d="M42.499 7.453C42.642 7.591 42.771 7.841 42.917 7.94L42.893 7.94C43.264 7.839 43.585 7.801 43.96 7.894L43.938 7.894C44.128 7.801 44.31 7.711 44.46 7.557"/>
 <path stroke-width="0.25" stroke-linejoin="round" d="M44.649 7.629C44.84 7.74 44.999 7.924 44.985 8.157"/>
 <path stroke-width="0.131" stroke-linejoin="round" d="M44.965 8.124C44.892 8.843 43.561 8.881 43.051 8.798C42.68 8.736 42.284 8.625 42.052 8.307C41.811 7.972 42.198 7.671 42.46 7.525"/>
 <path stroke-width="0.131" stroke-linejoin="round" d="M44.578 7.56L44.649 7.594"/>
 <path stroke-width="0.131" stroke-linejoin="round" d="M48.137 2.343C48.06 2.762 49.445 2.823 49.469 2.363"/>
 <path stroke-width="0.3" stroke-linejoin="round" d="M49.442 2.379C49.314 2.025 48.209 1.984 48.124 2.367"/>
 <path stroke-width="0.131" stroke-linejoin="round" d="M49.618 2.625C49.548 3.129 47.951 3.105 47.981 2.609"/>
 <path stroke-width="0.201" stroke-linejoin="round" d="M49.582 5.375C49.597 5.945 48.049 5.844 47.871 5.405"/>
 <path stroke-width="0.3" stroke-linejoin="round" d="M49.582 4.458L49.618 2.589"/>
 <path stroke-width="0.25" stroke-linejoin="round" d="M49.582 5.375L49.582 4.458"/>
 <path stroke-width="0.3" stroke-linejoin="round" d="M49.618 2.625L49.442 2.379"/>
 <path stroke-width="0.3" stroke-linejoin="round" d="M48.103 2.343L47.996 2.661L47.89 5.41"/>
 <path stroke-width="0.131" stroke-linejoin="round" d="M47.96 2.943C48.182 3.113 48.497 3.157 48.768 3.149"/>
 <path stroke-width="0.131" stroke-linejoin="round" d="M48.031 3.225C48.262 3.375 48.551 3.375 48.817 3.37"/>
 <path stroke-width="0.131" stroke-linejoin="round" d="M47.996 3.4C48.209 3.577 48.518 3.575 48.779 3.569"/>
 <path stroke-width="0.131" stroke-linejoin="round" d="M47.96 3.681C48.177 3.855 48.5 3.898 48.768 3.891"/>
 <path stroke-width="0.131" stroke-linejoin="round" d="M48.031 3.964C48.262 4.115 48.551 4.113 48.817 4.11"/>
 <path stroke-width="0.131" stroke-linejoin="round" d="M47.996 4.141C48.209 4.317 48.518 4.314 48.779 4.309"/>
 <path stroke-width="0.131" stroke-linejoin="round" d="M47.96 4.387C48.179 4.559 48.5 4.602 48.768 4.594"/>
 <path stroke-width="0.131" stroke-linejoin="round" d="M48.031 4.669C48.262 4.822 48.551 4.817 48.817 4.815"/>
 <path stroke-width="0.131" stroke-linejoin="round" d="M47.996 4.846C48.209 5.022 48.518 5.019 48.779 5.014"/>
 <path stroke-width="0.201" stroke-linejoin="round" d="M42.534 6.573C42.548 7.139 40.996 7.049 40.823 6.604"/>
 <path stroke-width="0.131" stroke-linejoin="round" d="M47.432 6.395C46.854 6.458 46.274 6.504 45.697 6.578C45.174 6.644 44.429 6.633 43.956 6.868"/>
 <path stroke-width="0.25" stroke-linejoin="round" d="M47.185 7.347C47.128 7.637 47.042 7.852 47.149 8.135"/>
 <path stroke-width="0.131" stroke-linejoin="round" d="M47.151 8.089C47.341 8.284 47.722 8.464 47.996 8.464"/>
 <path stroke-width="0.131" stroke-linejoin="round" d="M46.975 8.053C46.7 8.098 46.395 8.102 46.128 8.189C45.843 8.282 45.686 8.496 45.499 8.712"/>
 <path stroke-width="0.25" stroke-linejoin="round" d="M44.965 8.053C45.161 8.268 45.326 8.416 45.32 8.727"/>
 <path stroke-width="0.25" stroke-linejoin="round" d="M42.005 8.3C42.031 8.544 42.218 8.936 41.987 9.13"/>
 <path stroke-width="0.131" stroke-linejoin="round" d="M41.371 15.067C41.371 15.649 43.216 15.666 43.274 15.112C43.332 14.542 41.512 14.521 41.371 15.067z"/>
 <path stroke-width="0.131" stroke-linejoin="round" d="M42.921 14.749L43.344 15.031L43.344 15.736"/>
 <path stroke-width="0.131" stroke-linejoin="round" d="M43.344 15.701L42.85 16.16"/>
 <path stroke-width="0.131" stroke-linejoin="round" d="M42.816 16.16L41.618 16.193"/>
 <path stroke-width="0.131" stroke-linejoin="round" d="M41.652 16.193L41.195 15.701L41.159 15.208"/>
 <path stroke-width="0.131" stroke-linejoin="round" d="M41.195 15.208L41.442 15.031"/>
 <path stroke-width="0.131" stroke-linejoin="round" d="M41.652 16.16L41.652 15.666"/>
 <path stroke-width="0.131" stroke-linejoin="round" d="M42.78 16.16L42.816 15.666"/>
 <path stroke-width="0.131" stroke-linejoin="round" d="M41.299 15.208C41.442 15.345 41.573 15.595 41.718 15.695L41.695 15.695C42.058 15.596 42.399 15.544 42.762 15.649L42.74 15.649C42.929 15.553 43.112 15.465 43.262 15.31"/>
 <path stroke-width="0.25" stroke-linejoin="round" d="M43.414 15.349C43.597 15.452 43.75 15.611 43.78 15.826"/>
 <path stroke-width="0.131" stroke-linejoin="round" d="M43.767 15.807C43.75 16.539 42.417 16.629 41.909 16.545C41.57 16.487 41.107 16.407 40.892 16.105C40.625 15.734 40.923 15.445 41.253 15.262"/>
 <path stroke-width="0.131" stroke-linejoin="round" d="M43.38 15.314L43.414 15.349"/>
 <path stroke-width="0.25" stroke-linejoin="round" d="M46.622 16.582C45.658 16.405 44.561 16.379 43.822 15.649"/>
 <path stroke-width="0.131" stroke-linejoin="round" d="M42.534 9.497C42.752 9.603 42.938 9.734 43.183 9.762C43.438 9.791 43.691 9.756 43.945 9.756"/>
 <path stroke-width="0.131" stroke-linejoin="round" d="M41.124 9.85L41.159 9.85"/>
 <path stroke-width="0.131" stroke-linejoin="round" d="M41.088 13.375C41.091 14.057 39.911 14.166 39.432 14.134C38.963 14.101 37.667 13.781 38.226 13.076"/>
 <path stroke-width="0.131" stroke-linejoin="round" d="M42.005 7.594C41.77 7.567 41.463 7.193 41.253 7.318C40.906 7.525 40.579 7.756 40.21 7.94"/>
 <path stroke-width="0.131" stroke-linejoin="round" d="M41.476 7.772C41.255 7.889 41.034 8.006 40.817 8.131"/>
 <path stroke-width="0.25" stroke-linejoin="round" d="M37.634 13.762C37.781 13.922 37.957 13.615 38.045 13.512"/>
 <path stroke-width="0.131" stroke-linejoin="round" d="M37.459 11.753C37.371 12.08 37.256 12.448 37.305 12.791C37.34 13.023 37.408 13.627 37.654 13.724"/>
 <path stroke-width="0.3" stroke-linejoin="round" d="M47.89 4.564C46.975 4.658 46.061 4.735 45.149 4.865C44.271 4.988 43.417 5.234 42.546 5.394"/>
 <path stroke-width="0.3" stroke-linejoin="round" d="M40.771 5.903C39.725 6.378 38.689 6.865 37.656 7.368"/>
 <path stroke-width="0.3" stroke-linejoin="round" d="M33.545 13.974C33.573 14.564 33.747 15.153 33.917 15.715"/>
 <path stroke-width="0.25" stroke-linejoin="round" d="M33.899 15.701C34.597 17.312 36.176 18.347 37.697 19.108"/>
 <path stroke-width="0.25" stroke-linejoin="round" d="M40.807 20.283C41.21 20.405 41.631 20.495 42.029 20.631"/>
 <path stroke-width="0.131" stroke-linejoin="round" d="M37.706 19.083C38.212 19.317 38.725 19.525 39.249 19.716C39.715 19.884 40.335 20.236 40.829 20.245"/>
 <path stroke-width="0.131" stroke-linejoin="round" d="M33.758 14.891C34.191 15.631 34.634 16.384 35.28 16.966C35.966 17.583 36.719 18.068 37.557 18.46C39.213 19.231 41.018 19.905 42.834 20.19"/>
 <path stroke-width="0.131" stroke-linejoin="round" d="M43.874 15.772C44.072 16.289 44.5 16.856 44.012 17.306"/>
 <path stroke-width="0.131" stroke-linejoin="round" d="M41.124 13.269C41.27 13.782 41.462 14.124 41.015 14.544"/>
 <path stroke-width="0.25" stroke-linejoin="round" d="M36.436 14.009C36.487 14.557 34.915 14.615 34.737 14.156"/>
 <path stroke-width="0.131" stroke-linejoin="round" d="M47.222 16.053C47.393 16.506 48.414 16.384 48.658 16.065"/>
 <path stroke-width="0.25" stroke-linejoin="round" d="M48.631 16.053C48.651 15.593 47.216 15.583 47.206 16.045"/>
 <path stroke-width="0.131" stroke-linejoin="round" d="M48.807 16.23C48.731 16.763 47.039 16.743 47.061 16.216"/>
 <path stroke-width="0.201" stroke-linejoin="round" d="M48.773 19.19C48.78 19.789 47.136 19.707 46.951 19.228"/>
 <path stroke-width="0.25" stroke-linejoin="round" d="M48.773 19.19L48.807 16.265"/>
 <path stroke-width="0.25" stroke-linejoin="round" d="M48.807 16.23L48.631 15.948"/>
 <path stroke-width="0.25" stroke-linejoin="round" d="M47.185 15.948L47.079 16.3L46.975 19.225"/>
 <path stroke-width="0.131" stroke-linejoin="round" d="M47.045 16.582C47.274 16.765 47.613 16.809 47.899 16.801"/>
 <path stroke-width="0.131" stroke-linejoin="round" d="M47.115 16.864C47.359 17.024 47.665 17.024 47.947 17.018"/>
 <path stroke-width="0.131" stroke-linejoin="round" d="M47.079 17.074C47.304 17.262 47.633 17.26 47.906 17.254"/>
 <path stroke-width="0.131" stroke-linejoin="round" d="M47.045 17.358C47.277 17.539 47.612 17.583 47.899 17.577"/>
 <path stroke-width="0.131" stroke-linejoin="round" d="M47.115 17.675C47.36 17.835 47.664 17.833 47.947 17.829"/>
 <path stroke-width="0.131" stroke-linejoin="round" d="M47.079 17.85C47.301 18.039 47.634 18.036 47.906 18.03"/>
 <path stroke-width="0.131" stroke-linejoin="round" d="M47.045 18.132C47.279 18.314 47.612 18.359 47.899 18.353"/>
 <path stroke-width="0.131" stroke-linejoin="round" d="M47.115 18.451C47.362 18.609 47.664 18.609 47.947 18.606"/>
 <path stroke-width="0.131" stroke-linejoin="round" d="M47.079 18.626C47.307 18.811 47.63 18.811 47.906 18.806"/>
 <path stroke-width="0.131" stroke-linejoin="round" d="M51.521 14.256C51.567 14.324 51.618 14.393 51.676 14.454"/>
 <path stroke-width="0.25" stroke-linejoin="round" d="M46.094 21.199C44.734 21.118 43.396 20.853 42.055 20.623"/>
 <path stroke-width="0.131" stroke-linejoin="round" d="M42.039 20.6L42.042 20.618"/>
 <path stroke-width="0.131" stroke-linejoin="round" d="M49.689 21.164C48.484 21.193 47.284 21.181 46.081 21.19"/>
 <path stroke-width="0.25" stroke-linejoin="round" d="M49.97 21.199C49.939 21.608 49.786 21.751 49.372 21.827C48.871 21.923 48.359 22.015 47.848 22.039C47.316 22.065 46.774 22.053 46.25 21.932C45.834 21.835 45.732 21.658 45.677 21.222"/>
 <path stroke-width="0.131" stroke-linejoin="round" d="M46.762 18.027C46.012 17.897 45.261 17.772 44.509 17.64C43.801 17.515 43.008 17.425 42.331 17.175"/>
 <path stroke-width="0.131" stroke-linejoin="round" d="M38.832 14.609C38.874 15.073 40.128 14.943 40.256 14.558"/>
 <path stroke-width="0.25" stroke-linejoin="round" d="M40.277 14.538C40.238 14.069 38.982 14.198 38.856 14.585"/>
 <path stroke-width="0.131" stroke-linejoin="round" d="M40.454 14.749C40.414 15.298 38.701 15.367 38.718 14.856"/>
 <path stroke-width="0.201" stroke-linejoin="round" d="M40.595 17.675C40.646 18.254 38.979 18.324 38.786 17.835"/>
 <path stroke-width="0.25" stroke-linejoin="round" d="M40.595 17.675L40.454 14.749L40.277 14.502"/>
 <path stroke-width="0.25" stroke-linejoin="round" d="M38.798 14.573L38.692 14.926"/>
 <path stroke-width="0.25" stroke-linejoin="round" d="M38.726 14.926L38.832 17.85"/>
 <path stroke-width="0.131" stroke-linejoin="round" d="M38.726 15.208C38.981 15.378 39.299 15.375 39.593 15.375"/>
 <path stroke-width="0.131" stroke-linejoin="round" d="M38.798 15.49C39.057 15.637 39.353 15.598 39.637 15.592"/>
 <path stroke-width="0.131" stroke-linejoin="round" d="M38.798 15.701C39.039 15.878 39.356 15.833 39.636 15.827"/>
 <path stroke-width="0.131" stroke-linejoin="round" d="M38.798 15.983C39.048 16.155 39.374 16.152 39.664 16.152"/>
 <path stroke-width="0.131" stroke-linejoin="round" d="M38.868 16.3C39.128 16.448 39.423 16.408 39.707 16.402"/>
 <path stroke-width="0.131" stroke-linejoin="round" d="M38.832 16.477C39.076 16.652 39.392 16.609 39.671 16.603"/>
 <path stroke-width="0.131" stroke-linejoin="round" d="M38.832 16.757C39.082 16.929 39.409 16.928 39.7 16.926"/>
 <path stroke-width="0.131" stroke-linejoin="round" d="M38.904 17.039C39.162 17.189 39.459 17.147 39.743 17.141"/>
 <path stroke-width="0.131" stroke-linejoin="round" d="M38.904 17.251C39.145 17.428 39.463 17.385 39.741 17.379"/>
 <path stroke-width="0.25" stroke-linejoin="round" d="M37.389 18.943C37.448 19.236 37.487 19.536 37.771 19.696C38.168 19.923 38.584 20.114 38.996 20.309C39.347 20.475 39.731 20.713 40.112 20.792C40.469 20.864 40.725 20.614 40.963 20.385"/>
 <path stroke-width="0.25" stroke-linejoin="round" d="M41.546 20.67C41.658 21.117 41.735 21.51 42.07 21.856"/>
 <path stroke-width="0.3" stroke-linejoin="round" d="M63.011 15.56C63.475 16.135 63.914 16.701 64.239 17.37C64.537 17.978 64.867 18.739 64.862 19.431"/>
 <path stroke-width="0.131" stroke-linejoin="round" d="M64.879 19.437C64.983 21.469 64.251 23.245 62.859 24.725C61.514 26.157 59.768 27.198 57.969 27.951C54.332 29.478 50.287 30.059 46.357 29.853C46.055 29.838 45.753 29.821 45.451 29.806"/>
 <path stroke-width="0.3" stroke-linejoin="round" d="M33.652 23.736C33.049 22.713 32.776 21.44 32.938 20.26C33.112 18.978 33.792 17.931 34.543 16.914"/>
 <path stroke-width="0.131" stroke-linejoin="round" d="M45.46 29.798C43.56 29.524 41.609 29.202 39.829 28.452C38.02 27.69 36.057 26.774 34.756 25.245C34.343 24.757 33.996 24.291 33.655 23.753"/>
 <path stroke-width="0.25" stroke-linejoin="round" d="M35.39 26.554C38.966 29.727 44.286 30.731 48.92 30.675C53.406 30.623 58.53 29.565 61.936 26.437C62.314 26.091 62.667 25.716 62.981 25.309"/>
 <path stroke-width="0.3" stroke-linejoin="round" d="M64.843 21.905C65.001 21.413 65.013 20.882 65.069 20.371"/>
 <path stroke-width="0.25" stroke-linejoin="round" d="M62.975 25.323C63.347 24.827 63.749 24.355 64.037 23.807C64.37 23.178 64.605 22.614 64.822 21.939"/>
 <path stroke-width="0.3" stroke-linejoin="round" d="M64.879 22.327C64.853 22.582 64.817 22.838 64.805 23.094"/>
 <path stroke-width="0.131" stroke-linejoin="round" d="M64.772 23.103C63.85 27.082 60.06 29.317 56.442 30.548C53.095 31.689 49.6 31.949 46.091 31.852C42.274 31.324 38.627 30.227 35.634 27.71"/>
 <path stroke-width="0.3" stroke-linejoin="round" d="M46.045 32.432C50.475 32.698 55.158 32.049 59.142 30.01C61.86 28.617 64.709 26.221 64.82 22.922"/>
 <path stroke-width="0.3" stroke-linejoin="round" d="M46.057 32.442C42.238 31.923 38.59 30.827 35.598 28.307"/>
 <path stroke-width="0.131" stroke-linejoin="round" d="M57.09 20.67C55.615 23.213 52.408 23.975 49.667 24.088"/>
 <path stroke-width="0.131" stroke-linejoin="round" d="M39.119 20.928C39.649 22.501 41.17 23.548 42.621 24.193C44.664 25.1 46.966 25.413 49.186 25.309C51.225 25.214 53.323 24.76 55.106 23.736C56.409 22.989 57.692 21.807 57.859 20.231"/>
 <path stroke-width="0.131" stroke-linejoin="round" d="M42.18 22.115C43.429 23.349 45.009 23.809 46.706 24.064"/>
 <path stroke-width="0.25" stroke-linejoin="round" d="M58.5 28.847C58.515 29.088 58.682 29.277 58.843 29.446"/>
 <path stroke-width="0.131" stroke-linejoin="round" d="M57.618 29.129C57.679 29.518 57.661 29.673 57.371 29.963"/>
 <path stroke-width="0.131" stroke-linejoin="round" d="M49.405 30.856C49.393 31.102 49.503 31.609 49.121 31.588"/>
 <path stroke-width="0.25" stroke-linejoin="round" d="M50.359 30.821C50.374 31.129 50.268 31.545 50.704 31.535"/>
 <path stroke-width="0.131" stroke-linejoin="round" d="M60.051 28.036C60.109 28.425 60.094 28.582 59.802 28.871"/>
 <path stroke-width="0.131" stroke-linejoin="round" d="M55.116 29.975C55.173 30.362 55.164 30.521 54.868 30.809"/>
 <path stroke-width="0.25" stroke-linejoin="round" d="M60.615 27.542L60.79 28.178"/>
 <path stroke-width="0.25" stroke-linejoin="round" d="M62.307 26.132L62.377 26.838"/>
 <path stroke-width="0.25" stroke-linejoin="round" d="M63.575 24.652L63.609 25.216"/>
 <path stroke-width="0.25" stroke-linejoin="round" d="M56.031 29.657L56.173 30.539"/>
 <path stroke-width="0.25" stroke-linejoin="round" d="M53.213 30.397L53.389 31.138"/>
 <path stroke-width="0.131" stroke-linejoin="round" d="M52.365 30.504C52.353 30.751 52.463 31.256 52.082 31.236"/>
 <path stroke-width="0.25" stroke-linejoin="round" d="M46.445 30.75C46.432 30.993 46.542 31.506 46.161 31.483"/>
 <path stroke-width="0.25" stroke-linejoin="round" d="M43.661 30.397C43.649 30.643 43.756 31.152 43.378 31.131"/>
 <path stroke-width="0.25" stroke-linejoin="round" d="M40.948 29.621C40.936 29.867 41.043 30.378 40.662 30.355"/>
 <path stroke-width="0.25" stroke-linejoin="round" d="M38.656 28.74C38.643 28.986 38.753 29.495 38.372 29.474"/>
 <path stroke-width="0.131" stroke-linejoin="round" d="M42.57 30.327C42.234 30.551 41.902 30.679 41.49 30.684"/>
 <path stroke-width="0.131" stroke-linejoin="round" d="M45.177 30.714C45.027 30.888 44.92 31.111 44.713 31.225C44.496 31.344 44.182 31.356 43.939 31.356"/>
 <path stroke-width="0.131" stroke-linejoin="round" d="M40.067 29.411C39.762 29.588 39.582 29.695 39.225 29.667"/>
 <path stroke-width="0.25" stroke-linejoin="round" d="M36.719 27.931C36.695 28.169 36.789 28.32 36.841 28.539"/>
 <path stroke-width="0.131" stroke-linejoin="round" d="M32.807 20.353L32.912 20.246"/>
 <path stroke-width="0.3" stroke-linejoin="round" d="M65.055 20.388L64.879 19.295"/>
 <path stroke-width="0.3" stroke-linejoin="round" d="M64.915 22.431L64.915 21.868"/>
 <path stroke-width="0.25" stroke-linejoin="round" d="M57.97 12C57.618 11.887 56.456 11.759 56.335 12.276"/>
 <path stroke-width="0.25" stroke-linejoin="round" d="M57.97 11.929L58.429 12.211L58.429 12.952"/>
 <path stroke-width="0.25" stroke-linejoin="round" d="M56.139 12.952L56.103 12.423L56.35 12.246"/>
 <path stroke-width="0.25" stroke-linejoin="round" d="M55.715 13.163C55.691 12.91 55.898 12.647 56.14 12.586"/>
 <path stroke-width="0.25" stroke-linejoin="round" d="M57.795 8.935C57.445 8.817 56.295 8.696 56.173 9.208"/>
 <path stroke-width="0.25" stroke-linejoin="round" d="M57.795 8.864L58.253 9.146"/>
 <path stroke-width="0.25" stroke-linejoin="round" d="M58.253 9.18L58.253 9.919"/>
 <path stroke-width="0.25" stroke-linejoin="round" d="M55.996 9.885L55.963 9.358L56.209 9.18"/>
 <path stroke-width="0.25" stroke-linejoin="round" d="M55.539 10.096C55.512 9.846 55.722 9.583 55.962 9.525"/>
 <path stroke-width="0.25" stroke-linejoin="round" d="M54.27 6.82C53.923 6.705 52.765 6.583 52.649 7.094"/>
 <path stroke-width="0.25" stroke-linejoin="round" d="M54.27 6.748L54.728 7.03L54.728 7.772"/>
 <path stroke-width="0.25" stroke-linejoin="round" d="M52.473 7.772L52.436 7.242L52.683 7.065"/>
 <path stroke-width="0.25" stroke-linejoin="round" d="M52.049 7.947C52.024 7.697 52.234 7.435 52.472 7.376"/>
 <path stroke-width="0.25" stroke-linejoin="round" d="M49.335 6.221C49.015 6.115 47.923 5.996 47.82 6.479"/>
 <path stroke-width="0.25" stroke-linejoin="round" d="M49.335 6.15L49.759 6.432L49.759 7.137"/>
 <path stroke-width="0.25" stroke-linejoin="round" d="M47.643 7.102L47.609 6.607L47.856 6.432"/>
 <path stroke-width="0.25" stroke-linejoin="round" d="M47.256 7.277C47.234 7.035 47.42 6.841 47.624 6.74"/>
 <path stroke-width="0.25" stroke-linejoin="round" d="M44.119 7.065C43.798 6.96 42.706 6.843 42.603 7.323"/>
 <path stroke-width="0.25" stroke-linejoin="round" d="M44.119 6.996L44.542 7.277"/>
 <path stroke-width="0.25" stroke-linejoin="round" d="M44.508 7.277L44.508 7.982"/>
 <path stroke-width="0.25" stroke-linejoin="round" d="M42.393 7.947L42.356 7.453"/>
 <path stroke-width="0.25" stroke-linejoin="round" d="M42.393 7.453L42.64 7.277"/>
 <path stroke-width="0.25" stroke-linejoin="round" d="M42.005 8.124C41.982 7.881 42.168 7.687 42.371 7.585"/>
 <path stroke-width="0.25" stroke-linejoin="round" d="M38.128 13.445C38.115 13.317 38.158 13.192 38.256 13.109"/>
 <path stroke-width="0.25" stroke-linejoin="round" d="M42.957 14.855C42.636 14.749 41.542 14.631 41.442 15.114"/>
 <path stroke-width="0.25" stroke-linejoin="round" d="M42.957 14.82L43.38 15.102"/>
 <path stroke-width="0.25" stroke-linejoin="round" d="M43.344 15.067L43.344 15.772"/>
 <path stroke-width="0.25" stroke-linejoin="round" d="M41.229 15.736L41.195 15.243"/>
 <path stroke-width="0.25" stroke-linejoin="round" d="M41.229 15.278L41.476 15.102"/>
 <path stroke-width="0.25" stroke-linejoin="round" d="M40.841 15.948C40.819 15.71 41.006 15.506 41.209 15.41"/>
 <path stroke-width="0.25" stroke-linejoin="round" d="M58.746 12.705C58.917 12.32 58.93 12.041 58.905 11.621"/>
 <path stroke-width="0.25" stroke-linejoin="round" d="M36.155 10.836C36.115 10.368 34.859 10.499 34.731 10.884"/>
 <path stroke-width="0.25" stroke-linejoin="round" d="M36.508 13.974L36.436 12.352"/>
 <path stroke-width="0.25" stroke-linejoin="round" d="M34.71 10.836L34.603 11.191"/>
 <path stroke-width="0.25" stroke-linejoin="round" d="M34.674 13.339L34.71 14.15"/>
 <path stroke-width="0.131" stroke-linejoin="round" d="M34.71 13.057C34.962 13.228 35.283 13.227 35.576 13.226"/>
 <path stroke-width="0.131" stroke-linejoin="round" d="M34.78 13.339C35.039 13.489 35.335 13.446 35.619 13.442"/>
 <path stroke-width="0.131" stroke-linejoin="round" d="M34.78 13.551C35.023 13.725 35.338 13.685 35.618 13.678"/>
 <path stroke-width="0.131" stroke-linejoin="round" d="M41.054 3.613C40.975 4.03 42.36 4.091 42.384 3.633"/>
 <path stroke-width="0.3" stroke-linejoin="round" d="M42.393 3.648C42.267 3.293 41.159 3.254 41.075 3.636"/>
 <path stroke-width="0.131" stroke-linejoin="round" d="M42.57 3.859C42.5 4.362 40.902 4.339 40.93 3.843"/>
 <path stroke-width="0.3" stroke-linejoin="round" d="M42.534 5.727L42.57 3.859"/>
 <path stroke-width="0.25" stroke-linejoin="round" d="M42.534 6.642L42.534 5.727"/>
 <path stroke-width="0.3" stroke-linejoin="round" d="M42.57 3.859L42.393 3.613"/>
 <path stroke-width="0.3" stroke-linejoin="round" d="M41.018 3.577L40.912 3.894"/>
 <path stroke-width="0.3" stroke-linejoin="round" d="M40.912 3.929L40.807 6.679"/>
 <path stroke-width="0.131" stroke-linejoin="round" d="M40.912 4.176C41.133 4.346 41.45 4.391 41.719 4.384"/>
 <path stroke-width="0.131" stroke-linejoin="round" d="M40.948 4.458C41.179 4.61 41.468 4.607 41.734 4.602"/>
 <path stroke-width="0.131" stroke-linejoin="round" d="M40.948 4.669C41.161 4.844 41.469 4.841 41.729 4.839"/>
 <path stroke-width="0.131" stroke-linejoin="round" d="M40.912 4.916C41.131 5.086 41.451 5.131 41.719 5.123"/>
 <path stroke-width="0.131" stroke-linejoin="round" d="M40.948 5.198C41.179 5.349 41.468 5.349 41.734 5.344"/>
 <path stroke-width="0.131" stroke-linejoin="round" d="M40.948 5.41C41.161 5.586 41.469 5.583 41.729 5.578"/>
 <path stroke-width="0.131" stroke-linejoin="round" d="M40.912 5.657C41.131 5.828 41.451 5.871 41.719 5.863"/>
 <path stroke-width="0.131" stroke-linejoin="round" d="M40.948 5.937C41.176 6.091 41.469 6.089 41.734 6.083"/>
 <path stroke-width="0.131" stroke-linejoin="round" d="M40.948 6.115C41.158 6.291 41.47 6.288 41.729 6.283"/>
 <path stroke-width="0.3" stroke-linejoin="round" d="M37.67 7.383C36.192 8.429 34.606 9.394 34.014 11.212"/>
 <path stroke-width="0.25" stroke-linejoin="round" d="M35.378 26.556C34.712 25.905 34.112 25.28 33.637 24.471C33.201 23.724 32.883 22.617 32.902 21.748"/>
 <path stroke-width="0.131" stroke-linejoin="round" d="M35.625 27.684C34.344 26.19 32.966 24.547 33 22.439"/>
 <path stroke-width="0.3" stroke-linejoin="round" d="M35.591 28.283C34.795 27.39 33.859 26.554 33.457 25.39C33.076 24.277 32.792 22.972 32.832 21.789"/>
 <path stroke-width="0.25" stroke-linejoin="round" d="M35.344 26.661L35.378 27.332"/>
 <path stroke-width="0.131" stroke-linejoin="round" d="M51.521 32.195L44.191 36.847"/>
 <path stroke-width="0.131" stroke-linejoin="round" d="M73.477 18.274L65.337 23.454"/>
 <path stroke-width="0.131" stroke-linejoin="round" d="M44.191 36.847L40.348 35.121"/>
 <path stroke-width="0.3" stroke-linejoin="round" d="M65.126 19.719L69.566 16.969"/>
 <path stroke-width="0.3" stroke-linejoin="round" d="M40.348 35.121L45.072 32.159"/>
 <g>
  <path stroke-width="0.3" stroke-linejoin="round" d="M69.531 16.934L73.689 17.955L73.689 24.617L44.191 44.53"/>
  <path stroke-width="0.131" stroke-linejoin="round" d="M44.191 44.53L44.191 36.847"/>
 </g>
 <path stroke-width="0.3" stroke-linejoin="round" d="M44.191 44.53L40.243 42.521"/>
 <path stroke-width="0.3" stroke-linejoin="round" d="M40.243 42.487L40.243 35.015"/>
 <path stroke-width="0.131" stroke-linejoin="round" d="M32.771 23.631L28.013 26.661"/>
 <path stroke-width="0.131" stroke-linejoin="round" d="M28.013 26.626L24.172 24.899"/>
 <path stroke-width="0.3" stroke-linejoin="round" d="M24.207 24.934L32.807 19.579"/>
 <path stroke-width="0.3" stroke-linejoin="round" d="M35.978 28.952L28.048 34.31"/>
 <path stroke-width="0.131" stroke-linejoin="round" d="M28.013 34.31L28.013 26.626"/>
 <path stroke-width="0.3" stroke-linejoin="round" d="M28.013 34.31L24.065 32.301"/>
 <path stroke-width="0.3" stroke-linejoin="round" d="M24.1 32.301L24.1 24.829"/>
 <path stroke-width="0.3" stroke-linejoin="round" d="M13.493 13.657C13.884 13.003 14.291 11.76 15.148 11.669C15.301 11.653 15.428 11.705 15.577 11.637C15.755 11.556 15.923 11.442 16.097 11.348C16.506 11.125 16.836 11.3 17.257 11.291C17.539 11.285 17.801 11.199 18.123 11.326C18.359 11.419 18.495 11.43 18.756 11.439C19.26 11.454 19.513 11.487 19.861 11.894C20.123 12.198 20.46 12.521 20.67 12.861C20.955 13.319 20.771 14.156 20.583 14.621C20.477 14.89 20.268 15.102 20.012 15.233C19.891 15.294 19.477 15.49 19.403 15.342"/>
 <path stroke-width="0.3" stroke-linejoin="round" d="M18.955 12.211C19.21 12.489 19.53 12.75 19.711 13.086C19.92 13.464 19.862 13.839 19.759 14.244C19.661 14.624 19.579 15.105 19.37 15.442C19.236 15.654 18.8 15.82 18.589 15.611"/>
 <path stroke-width="0.3" stroke-linejoin="round" d="M17.826 12.423C18.132 13.108 18.757 13.987 18.603 14.766C18.528 15.144 18.472 15.55 18.143 15.797C17.798 16.056 17.556 16.056 17.157 15.996"/>
 <path stroke-width="0.3" stroke-linejoin="round" d="M16.452 12.775C16.69 13.271 16.989 13.765 17.158 14.288C17.327 14.811 17.042 15.195 17.041 15.699"/>
 <path stroke-width="0.3" stroke-linejoin="round" d="M14.444 13.516C14.522 13.962 14.882 14.085 15.239 14.32C15.541 14.519 15.637 14.827 15.653 15.179"/>
 <path stroke-width="0.3" stroke-linejoin="round" d="M13.281 15.807C13.375 16.048 13.41 16.466 13.66 16.6C13.917 16.739 14.282 16.594 14.557 16.612C14.897 16.637 15.214 16.78 15.56 16.797C15.856 16.809 16.163 16.789 16.457 16.754C16.768 16.718 16.882 16.408 16.882 16.129C16.885 15.817 16.708 15.625 16.44 15.49C16.172 15.355 15.862 15.228 15.566 15.182C15.269 15.134 15.041 15.24 14.757 15.289"/>
 <path stroke-width="0.131" stroke-linejoin="round" d="M16.1 15.772C16.036 15.932 15.813 16.225 15.955 16.37C16.057 16.478 16.434 16.442 16.568 16.443"/>
 <path stroke-width="0.3" stroke-linejoin="round" d="M6.583 21.339C7.597 21.364 8.612 21.381 9.628 21.4C10.086 21.41 10.542 21.429 11 21.472C11.419 21.512 11.742 21.797 12.186 21.818C12.56 21.835 13.012 21.762 13.332 21.998C13.724 22.288 14.064 22.632 14.401 22.984C14.993 23.599 15.641 24.487 15.936 25.294C16.091 25.714 16.057 26.016 15.717 26.332C15.435 26.593 15.098 26.814 14.778 27.022"/>
 <path stroke-width="0.3" stroke-linejoin="round" d="M13.704 24.652C13.992 25.41 14.502 26.303 14.548 27.12C14.589 27.855 13.494 28.003 12.946 27.986"/>
 <path stroke-width="0.3" stroke-linejoin="round" d="M11.942 25.356C12.128 25.788 12.319 26.216 12.509 26.644C12.657 26.98 12.891 27.419 12.919 27.789C12.967 28.385 11.326 29.213 11.18 28.603"/>
 <path stroke-width="0.3" stroke-linejoin="round" d="M10.497 26.309C10.681 26.8 10.864 27.292 11.05 27.783C11.118 27.966 11.301 28.246 11.308 28.439C11.319 28.693 11.048 28.814 10.864 28.931C10.429 29.207 9.885 29.413 9.364 29.312C8.804 29.205 8.747 28.724 8.842 28.248"/>
 <path stroke-width="0.3" stroke-linejoin="round" d="M9.227 28.53C8.993 28.199 8.788 27.774 8.496 27.496C8.102 27.123 7.759 27.057 7.237 27.056C6.423 27.053 4.892 26.716 4.83 25.719"/>
 <path stroke-width="0.3" stroke-linejoin="round" d="M6.867 21.339C6.863 20.754 5.894 21.579 5.769 21.699C5.253 22.19 4.887 22.675 4.66 23.353C4.474 23.907 4.514 24.573 4.514 25.149C4.514 25.446 4.458 25.771 4.501 26.064C4.551 26.39 4.762 26.41 5.051 26.385"/>
 <path stroke-width="0.3" stroke-linejoin="round" d="M7.429 21.304C7.262 20.949 7.062 20.888 6.689 20.768C6.312 20.647 5.927 20.553 5.544 20.458C5.2 20.373 4.836 20.309 4.482 20.298C4.041 20.286 3.898 20.518 3.653 20.832"/>
 <path stroke-width="0.3" stroke-linejoin="round" d="M3.976 20.528C3.65 20.213 3.469 19.929 2.992 19.847C2.565 19.774 2.113 19.786 1.681 19.788"/>
 <path stroke-width="0.3" stroke-linejoin="round" d="M4.469 26.379C3.976 26.425 3.48 26.469 2.984 26.489C2.386 26.512 2.512 25.844 2.512 25.448"/>
 <path stroke-width="0.3" stroke-linejoin="round" d="M2.496 26.309C2.188 26.603 1.621 26.708 1.203 26.699"/>
 <path stroke-width="0.3" stroke-linejoin="round" d="M14.409 11.964C13.864 11.965 13.444 11.932 12.948 12.211C12.497 12.464 12.143 12.827 12.098 13.362"/>
 <path stroke-width="0.3" stroke-linejoin="round" d="M13.034 12.035C12.516 11.782 12.016 11.399 11.412 11.526C11.131 11.586 10.9 11.673 10.608 11.595C10.327 11.519 10.063 11.401 9.778 11.343C9.208 11.228 8.717 11.108 8.183 10.865C7.586 10.593 7.009 10.281 6.421 9.987"/>
 <path stroke-width="0.3" stroke-linejoin="round" d="M12.999 15.983C12.699 16.027 11.813 16.347 11.762 15.867"/>
 <path stroke-width="0.3" stroke-linejoin="round" d="M11.801 16.088C10.791 16.5 9.794 16.94 8.778 17.333C8.259 17.533 7.737 17.754 7.169 17.707C6.661 17.666 6.157 17.667 5.647 17.667"/>
 <path stroke-width="0.3" stroke-linejoin="round" d="M14.55 14.009L1.686 15.772"/>
 <path stroke-width="0.3" stroke-linejoin="round" d="M14.585 15.349L1.721 17.393"/>
 <path stroke-width="0.3" stroke-linejoin="round" d="M14.022 22.468C14.387 22.513 14.682 22.513 15.009 22.718C15.32 22.911 15.602 23.175 15.932 23.333C16.237 23.478 16.515 23.833 16.431 24.207C16.352 24.559 15.878 24.501 15.595 24.487"/>
 <path stroke-width="0.3" stroke-linejoin="round" d="M14.585 22.468L28.472 15.102"/>
 <path stroke-width="0.3" stroke-linejoin="round" d="M16.312 23.561L28.189 16.652"/>
 <path stroke-width="0.131" stroke-linejoin="round" d="M15.853 22.257L15.996 22.609L16.1 22.609L19.8 20.705"/>
 <path stroke-width="0.131" stroke-linejoin="round" d="M19.766 20.67L19.66 20.388"/>
 <path stroke-width="0.131" stroke-linejoin="round" d="M19.696 20.423L19.414 20.423"/>
 <path stroke-width="0.131" stroke-linejoin="round" d="M17.861 21.657C17.67 21.379 17.71 21.12 17.998 20.939C18.283 20.76 18.579 20.777 18.565 21.204"/>
 <path stroke-width="0.3" stroke-linejoin="round" d="M28.295 15.173L37.246 10.132"/>
 <path stroke-width="0.3" stroke-linejoin="round" d="M28.013 16.722L38.341 11.191"/>
 <path stroke-width="0.3" stroke-linejoin="round" d="M20.753 12.987L34.569 11.048"/>
 <path stroke-width="0.3" stroke-linejoin="round" d="M20.718 14.432L33.017 12.528"/>
 <path stroke-width="0.131" stroke-linejoin="round" d="M40.103 8.686C39.887 8.509 39.395 8.494 39.188 8.692"/>
 <path stroke-width="0.201" stroke-linejoin="round" d="M39.185 8.651C38.801 8.987 40.396 9.111 40.094 8.672"/>
 <path stroke-width="0.3" stroke-linejoin="round" d="M41.265 8.686C41.018 7.737 37.792 7.791 37.881 8.84"/>
 <path stroke-width="0.131" stroke-linejoin="round" d="M37.881 8.827C38.101 9.807 41.363 9.747 41.273 8.695"/>
 <path stroke-width="0.201" stroke-linejoin="round" d="M37.881 9.146C38.335 10.236 41.686 9.673 41.305 8.935"/>
 <path stroke-width="0.3" stroke-linejoin="round" d="M41.512 8.723C41.673 8.849 41.807 9.019 41.793 9.236"/>
 <path stroke-width="0.3" stroke-linejoin="round" d="M37.353 9.18C37.353 8.933 37.551 8.782 37.726 8.641"/>
 <path stroke-width="0.131" stroke-linejoin="round" d="M41.793 9.215C41.709 10.034 40.1 10.099 39.518 10.108C38.948 10.118 37.351 9.973 37.337 9.156"/>
 <path stroke-width="0.3" stroke-linejoin="round" d="M41.899 10.59C41.686 11.121 40.887 11.292 40.384 11.355C39.811 11.428 38.996 11.502 38.463 11.237"/>
 <path stroke-width="0.3" stroke-linejoin="round" d="M41.899 10.59C41.968 10.106 42.155 9.537 41.776 9.131"/>
 <path stroke-width="0.3" stroke-linejoin="round" d="M41.088 11.191L41.088 13.339C40.926 14.185 38.191 14.086 38.299 13.272"/>
 <path stroke-width="0.3" stroke-linejoin="round" d="M38.304 13.375L38.304 11.294"/>
 <path stroke-width="0.3" stroke-linejoin="round" d="M37.493 9.919C37.402 9.96 37.32 10.019 37.253 10.089"/>
 <path stroke-width="0.131" stroke-linejoin="round" d="M38.304 11.224C38.579 11.227 38.64 10.499 38.551 10.313C38.411 10.022 37.801 9.83 37.506 9.894"/>
 <path stroke-width="0.201" stroke-linejoin="round" d="M35.555 11.191C35.765 11.291 36.146 11.387 36.268 11.589C36.392 11.791 36.387 12.156 36.241 12.34"/>
 <path stroke-width="0.131" stroke-linejoin="round" d="M38.27 10.378L36.613 11.365"/>
 <path stroke-width="0.3" stroke-linejoin="round" d="M37.317 9.146L37.353 9.99"/>
 <path stroke-width="0.131" stroke-linejoin="round" d="M41.512 8.723L41.265 8.617"/>
 <path stroke-width="0.3" stroke-linejoin="round" d="M37.706 8.651L37.987 8.547"/>
 <path stroke-width="0.3" stroke-linejoin="round" d="M41.299 9.039L41.299 8.723"/>
 <path stroke-width="0.3" stroke-linejoin="round" d="M37.881 9.146L37.881 8.792"/>
 <path stroke-width="0.3" stroke-linejoin="round" d="M61.741 6.855L63.997 6.503"/>
 <path stroke-width="0.3" stroke-linejoin="round" d="M42.005 9.919L59.802 7.171"/>
 <path stroke-width="0.3" stroke-linejoin="round" d="M57.936 8.864L59.627 8.617"/>
 <path stroke-width="0.3" stroke-linejoin="round" d="M41.124 11.471L56.031 9.146"/>
 <path stroke-width="0.3" stroke-linejoin="round" d="M61.741 8.404L64.245 7.982"/>
 <path stroke-width="0.131" stroke-linejoin="round" d="M34.603 11.191L34.603 11.542"/>
 <path stroke-width="0.3" stroke-linejoin="round" d="M63.997 6.538C64.328 6.812 64.457 6.982 64.504 7.418C64.521 7.57 64.525 7.71 64.441 7.841C64.409 7.891 64.272 8.057 64.29 7.966"/>
 <path stroke-width="0.131" stroke-linejoin="round" d="M1.721 17.393C1.249 17.117 0.711 16.307 1.27 15.83C1.805 15.375 2.209 16.51 2.004 16.907"/>
 <path stroke-width="0.131" stroke-linejoin="round" d="M52.332 13.022C51.658 11.965 49.753 11.848 48.643 11.869C47.96 11.884 47.264 11.958 46.61 12.167C46.057 12.346 45.219 12.66 45.109 13.323"/>
 <path stroke-width="0.25" stroke-linejoin="round" d="M45.106 13.339C44.981 14.105 46.023 14.512 46.585 14.698C47.298 14.932 48.088 15.016 48.835 15.002C49.621 14.987 50.417 14.9 51.161 14.631C51.761 14.416 52.798 13.848 52.335 13.064"/>
 <path stroke-width="0.131" stroke-linejoin="round" d="M45.317 13.727C46.107 12.882 47.633 12.699 48.725 12.698C49.902 12.696 51.338 12.806 52.29 13.579"/>
 <path stroke-width="0.25" stroke-linejoin="round" d="M45.53 14.009C46.406 13.288 47.74 13.141 48.832 13.118C49.982 13.092 51.244 13.257 52.24 13.871"/>
 <text x="13.348" y="5.878" stroke="none" fill="#363639" font-family="'Arial'" font-size="4.939">290 Nm</text>
 <path stroke="#FFFFFF" stroke-width="0.501" d="M23.254 7.171L28.788 15.49"/>
 <path stroke-width="0.131" d="M23.254 7.171L28.788 15.49"/>
 <text transform="matrix(0 -1 1 0 73.814 44.271)" stroke="none" fill="#000000" font-family="'Helvetica'" font-size="2.117">325 119</text>
</svg>
