<?xml version="1.0" encoding="utf-8"?>
<!DOCTYPE svg PUBLIC "-//W3C//DTD SVG 1.1//EN" "http://www.w3.org/Graphics/SVG/1.1/DTD/svg11.dtd">
<!-- Generator: PTC Arbortext IsoDraw 7.3 M070 -->
<svg width="100%" height="100%" viewBox="0 0 150.01 118.742"
 xmlns="http://www.w3.org/2000/svg" xmlns:xlink="http://www.w3.org/1999/xlink"
 xmlns:itedo="http://www.itedo.com/svgfilter/1.0" xmlns:extra="http://www.itedo.com/svgfilter/1.0/extra"
 xmlns:_DEFAULT_DTD_="http://www.itedo.com/svgfilter/1.0/DTD/_DEFAULT_DTD_"
 fill-rule="evenodd" clip-rule="evenodd" stroke="#000000" stroke-linecap="round" fill="none" xml:space="preserve">
 <g id="frame" itedo:apstype="layer">
  <g>
   <path stroke="none" d="M150.01 118.742L150.01 0L0.011 0L0.011 118.742L150.01 118.742z"/>
  </g>
 </g>
 <g id="Picture#" itedo:apstype="layer">
  <g>
   <g>
    <g>
     <g>
      <text transform="matrix(0 -1 1 0 148.633 117.932)" stroke="none" fill="#000000" font-family="'Helvetica'" font-size="2.117">304 039</text>
     </g>
    </g>
   </g>
  </g>
 </g>
 <g id="Standard_x0020_layer" itedo:apstype="layer">
  <path stroke-width="0.501" stroke-linejoin="round" d="M67.037 107.004C67.037 107.004 68.555 106.028 68.609 104.617C68.665 103.206 68.609 102.609 68.121 101.632C67.634 100.656 64.759 95.882 64.325 94.96C63.89 94.037 62.914 92.031 63.347 89.48C63.781 86.932 64.867 82.862 64.867 82.862L64.759 82.537C64.759 82.537 64.411 82.781 63.976 82.51C63.542 82.239 63.368 81.823 63.368 81.823C63.368 81.823 62.524 81.804 62.17 81.371C61.664 80.753 61.7 79.861 62.317 79.391C63.024 78.852 63.89 78.795 64.54 79.716C64.54 79.716 65.367 79.429 65.742 79.436L66.114 79.01C66.114 79.01 67.146 78.847 68.284 79.281C69.072 79.581 69.533 79.987 69.533 79.987C69.533 79.987 69.352 80.704 69.316 80.802C69.278 80.897 69.043 81.019 69.043 81.019L68.453 83.325C68.453 83.325 68.67 83.531 68.611 83.68C68.552 83.831 67.489 87.543 67.272 89.225C67.055 90.906 67.201 92.058 67.581 92.819C67.96 93.578 70.129 97.402 71.647 100.277C73.167 103.152 72.191 105.756 71.864 106.787"/>
  <path stroke-width="0.25" stroke-linejoin="round" d="M94.168 104.998C94.168 104.998 94.259 103.355 94.259 103.037C94.259 102.718 93.939 101.715 93.939 101.715C93.939 101.715 94.168 101.212 94.212 100.62C94.259 100.027 94.075 99.161 94.075 99.161L94.349 99.024C94.349 99.024 95.262 98.704 95.489 98.203C95.489 98.203 96.721 97.884 97.405 96.927C97.405 96.927 98.954 96.653 99.593 95.695C99.593 95.695 101.509 95.468 102.375 94.373C102.375 94.373 103.469 94.281 103.879 93.871L104.153 93.871C104.153 93.871 106.615 92.777 107.025 92.549C107.436 92.322 107.665 91.637 107.665 91.637C107.665 91.637 108.212 91.272 108.439 90.724C108.439 90.724 109.99 89.995 110.766 89.631C111.54 89.266 113.453 87.405 112.453 83.84C111.403 80.1 108.623 79.188 107.346 79.826C106.069 80.465 104.382 81.058 104.382 81.058C104.382 81.058 102.512 80.921 101.099 81.787L100.141 82.289C100.141 82.289 98.545 82.334 97.405 83.474C97.405 83.474 95.626 83.201 94.578 84.661C94.578 84.661 92.709 84.433 91.659 85.801C91.659 85.801 90.018 85.801 88.924 87.031C88.924 87.031 86.781 87.396 86.233 88.581C86.233 88.581 84.227 89.403 83.451 90.998C83.451 90.998 81.718 91.956 81.263 94.009C81.263 94.009 80.031 95.331 79.804 97.93C79.804 97.93 78.891 100.072 79.393 101.715C79.894 103.355 80.533 104.177 80.533 104.177C80.533 104.177 80.078 105.909 80.578 107.094"/>
  <path stroke-width="0.25" stroke-linejoin="round" d="M138.216 92.731C138.216 92.731 137.395 94.099 136.347 94.281C136.347 94.281 135.558 96.385 133.883 97.245C133.883 97.245 133.429 99.024 132.105 99.57C132.105 99.57 131.65 101.805 130.693 102.352"/>
  <path stroke-width="0.25" stroke-linejoin="round" d="M139.721 89.129L139.218 89.084C139.218 89.084 136.711 85.254 135.572 84.477L133.747 86.257C133.747 86.257 139.31 91.546 138.443 95.376"/>
  <path stroke-width="0.25" stroke-linejoin="round" d="M116.236 83.566C116.236 83.566 116.01 81.924 117.605 80.328C119.201 78.733 121.481 76.588 121.481 76.588L122.53 76.361L121.983 76.134C121.983 76.134 121.936 75.722 122.12 75.495C122.302 75.266 122.438 75.129 122.438 75.129L122.575 75.176L123.716 75.734C123.716 75.734 124.614 74.93 124.915 74.759C125.215 74.587 126.198 74.887 126.584 75.444C126.969 76 127.012 76.557 126.712 76.813L126.436 77.138L131.003 79.557L131.359 79.347C131.359 79.347 132.11 79.682 132.296 79.807C132.485 79.932 132.506 80.474 132.11 81.12C131.713 81.766 131.462 81.745 131.337 81.641C131.212 81.537 130.503 81.099 130.503 81.099L130.503 80.62L125.436 78.034L124.602 79.034L124.04 78.93L123.745 79.076C123.745 79.076 122.057 78.867 121.599 78.909L121.724 79.597L121.617 79.873C117.513 80.51 117.194 83.109 117.194 83.109C113.912 84.524 113.683 87.396 113.683 87.396C112.18 88.034 110.947 90.543 110.947 90.543L110.811 90.634C110.811 90.634 110.445 91.774 108.941 93.871C107.436 95.968 108.713 98.248 108.713 98.248"/>
  <path stroke-width="0.25" stroke-linejoin="round" d="M125.447 74.355C125.447 74.355 126.587 72.805 128.823 72.394C128.823 72.394 129.598 72.302 130.328 72.302C130.328 72.302 128.276 71.846 126.724 72.302C125.174 72.76 124.765 73.26 124.765 73.26"/>
  <path stroke-width="0.25" stroke-linejoin="round" d="M30.012 107.025C30.012 107.025 32.087 106.185 32.423 103.549C32.423 103.549 35.228 102.201 35.06 99.397C35.06 99.397 37.472 98.219 37.359 95.64L37.584 95.246C37.584 95.246 39.154 94.349 39.323 92.442C39.49 90.536 37.191 88.067 35.396 86.554C33.6 85.04 31.471 84.759 28.666 83.356C25.861 81.954 23.169 82.347 22.16 82.516C21.149 82.683 19.859 83.245 19.859 84.59C19.859 84.59 17.504 85.656 17.448 87.676C17.448 87.676 15.933 88.236 15.429 89.751C15.429 89.751 13.859 89.751 12.288 91.209C10.717 92.668 8.698 94.013 8.08 95.528C7.464 97.043 7.575 98.444 7.575 98.444C7.575 98.444 5.333 99.959 5.782 101.978C5.782 101.978 3.538 102.316 2.921 104.503L1.687 104.896L0.228 106.691"/>
  <path stroke-width="0.501" stroke-linejoin="round" d="M81.117 94.058C81.117 94.058 81.98 90.661 82.143 90.013C82.245 89.605 81.402 89.102 81.402 89.102"/>
  <path stroke-width="0.501" stroke-linejoin="round" d="M76.954 88.034C76.483 88.061 76.003 88.225 75.933 88.647C75.832 89.268 74.453 95.481 73.884 98.841C73.313 102.203 73.257 104.993 74.51 106.873"/>
  <path stroke-width="0.501" stroke-linejoin="round" d="M77.129 88.704L77.358 83.92C77.358 83.92 77.072 83.521 77.072 83.293C77.072 83.066 77.471 82.724 77.471 82.724C77.471 82.724 78.013 75.944 78.042 75.376C78.063 74.939 78.043 73.963 78.043 73.963"/>
  <path stroke-width="0.501" stroke-linejoin="round" d="M81.231 89.673L81.686 84.375C81.686 84.375 82.2 83.92 82.2 83.691C82.2 83.463 81.915 83.121 81.915 83.121C81.915 83.121 82.143 77.825 82.143 75.546C82.143 73.268 81.686 70.876 79.807 70.762C77.927 70.647 76.99 72.436 76.447 73.212C76.352 73.346 76.132 73.207 75.993 72.849C75.853 72.49 74.32 69.484 74.32 69.484"/>
  <path stroke-width="0.501" stroke-linejoin="round" d="M77.87 76.629C77.301 77.256 74.51 78.224 73.03 75.376C71.548 72.528 71.49 72.129 71.49 72.129"/>
  <path stroke-width="0.501" stroke-linejoin="round" d="M82.028 73.609C82.769 75.262 85.332 78.167 90.117 79.135C94.902 80.103 101.509 81.414 101.509 81.414"/>
  <path stroke-width="0.501" stroke-linejoin="round" d="M66.593 78.85L66.478 78.281L66.706 77.655L66.935 77.313L68.415 73.382L68.472 72.927L68.53 72.757L68.813 72.471C68.813 72.471 69.891 69.599 70.579 68.427C71.036 67.653 72.231 66.091 75.079 67.174C77.927 68.257 86.415 72.301 86.415 72.301L87.498 72.358L91.028 72.7L90.793 72.013"/>
  <path stroke-width="0.501" stroke-linejoin="round" d="M81.634 72.123C83.171 72.781 84.54 73.368 84.933 73.554C85.902 74.01 86.7 74.239 87.439 74.295C88.18 74.352 91.996 74.352 92.338 74.295C92.68 74.237 93.984 73.933 93.421 72.528C93.103 71.739 92.861 71.376 92.861 71.376"/>
  <path stroke-width="0.501" stroke-linejoin="round" d="M68.284 79.281L68.53 78.852L68.7 78.737L68.813 78.224L68.984 77.996L70.522 74.123C70.522 74.123 70.978 73.896 70.978 73.725C70.978 73.554 70.978 73.099 70.978 73.099C70.978 73.099 72.061 70.022 72.289 69.795C72.516 69.566 72.564 69.227 73.703 69.286C74.843 69.343 75.536 69.543 76.332 69.852C76.587 69.95 77.525 70.37 78.703 70.873"/>
  <path stroke-width="0.25" stroke-linejoin="round" d="M68.376 73.049C67.656 73.049 66.337 73.289 66.397 71.73C66.457 70.171 66.576 67.534 66.606 66.694C66.637 65.855 67.536 65.646 68.825 65.736C70.114 65.825 97.266 67.683 98.105 67.743C98.945 67.802 99.694 68.253 99.245 69.811C98.795 71.37 98.075 73.049 97.867 73.588C97.656 74.126 97.477 74.846 96.067 74.787C94.659 74.727 89.743 74.337 89.743 74.337"/>
  <path stroke-width="0.25" stroke-linejoin="round" d="M98.075 67.623C98.075 67.623 100.653 67.293 102.272 67.923C102.272 67.923 102.031 68.432 102.242 68.552C102.45 68.671 103.799 69.811 107.186 69.691C110.572 69.572 112.162 68.942 112.73 67.923C113.301 66.903 113.361 66.453 115.099 66.393C116.837 66.334 124.599 66.245 125.138 66.213C125.679 66.183 126.188 66.274 126.097 66.692C126.009 67.112 125.945 67.302 125.915 67.481C125.887 67.661 125.256 68.879 125.311 69.046C125.436 69.421 125.415 69.858 125.457 70.025C125.5 70.192 125.771 70.358 125.771 70.358L125.643 70.691C125.643 70.691 124.561 71.304 123.822 71.834C123.081 72.365 122.388 74.115 122.575 75.176"/>
  <path stroke-width="0.25" stroke-linejoin="round" d="M121.841 61.389C121.841 61.389 122.605 61.04 123.54 60.43C124.608 59.731 125.912 58.728 126.728 58.183C128.257 57.164 129.3 56.777 132.423 55.877C134.701 55.219 139.006 54.482 141.864 56.984C143.543 58.454 144.711 59.622 145.461 60.488C146.167 61.307 148.518 64.867 146.718 68.403C144.92 71.939 142.643 74.188 142.643 74.188L141.235 75.867"/>
  <path stroke-width="0.25" stroke-linejoin="round" d="M122.951 62.89C122.951 62.89 127.149 60.042 127.628 59.743C128.106 59.444 129.816 58.335 131.193 57.914C132.573 57.496 135.899 56.625 137.308 56.926C138.717 57.225 139.705 57.465 141.145 58.694C142.584 59.923 143.991 61.572 144.262 61.901C144.531 62.231 145.67 63.579 145.401 66.128C145.131 68.674 141.804 72.781 141.804 72.781"/>
  <path stroke-width="0.501" stroke-linejoin="round" d="M124.373 62.28C124.373 62.28 124.287 63.728 124.266 63.856C124.245 63.984 121.305 65.433 121.305 65.433C121.305 65.433 120.665 65.305 120.409 64.986C120.153 64.665 120.004 64.411 120.004 64.411C120.004 64.411 119.771 64.283 119.578 64.048C119.387 63.814 118.576 62.493 118.385 62.173C118.194 61.853 118.024 61.426 118.641 61.023C119.259 60.618 119.771 60.405 120.176 60.213C120.581 60.021 121.24 60.277 121.39 60.639C121.539 61.002 122.349 62.216 122.349 62.216L123.031 63.003L124.01 63.728"/>
  <path stroke-width="0.25" stroke-linejoin="round" d="M120.87 61.765C120.87 61.765 119.924 61.887 119.486 61.862"/>
  <path stroke-width="0.501" stroke-linejoin="round" d="M95.631 52.43C95.828 52.609 96.427 53.14 96.78 53.351C97.206 53.606 102.022 56.506 103.001 56.996C103.981 57.485 109.968 59.957 110.843 60.362C111.716 60.767 112.611 60.936 114.081 61.235C115.552 61.533 118.173 61.768 118.173 61.768"/>
  <path stroke-width="0.25" stroke-linejoin="round" d="M94.405 49.5C94.405 49.5 96.037 50.353 96.143 50.423C96.248 50.493 96.462 50.743 96.248 51.133C96.069 51.462 95.706 52.116 95.596 52.314"/>
  <path stroke-width="0.501" stroke-linejoin="round" d="M91.674 51.63L91.838 51.286C91.144 51.073 91.037 50.219 91.037 50.219C91.037 50.219 90.504 50.219 90.076 50.11C89.649 50.005 89.328 49.737 89.328 49.363C89.328 48.99 89.487 47.334 89.596 46.479C89.701 45.625 90.343 45.625 90.343 45.625L90.45 45.091L91.144 45.091L91.519 45.411L91.465 45.999L91.786 46.479C91.786 46.479 93.013 45.357 94.777 45.999L94.99 47.173C94.99 47.173 93.975 46.96 93.495 47.067L93.762 48.67C93.762 48.67 94.085 48.826 94.227 49.11"/>
  <path stroke-width="0.25" stroke-linejoin="round" d="M94.724 54.042L93.909 55.213L90.715 53.581L91.674 51.63"/>
  <path stroke-width="0.501" stroke-linejoin="round" d="M119.237 63.579C118.597 63.6 114.742 62.962 114.186 62.939C113.634 62.918 110.948 62.109 110.31 61.853C109.671 61.598 101.808 58.21 101.361 57.975C100.912 57.74 96.183 55.034 95.82 54.78C95.489 54.545 95.114 54.353 94.807 54.11"/>
  <path stroke-width="0.501" stroke-linejoin="round" d="M90.76 66.987C90.76 66.987 87.564 61.139 87.379 60.892"/>
  <path stroke-width="0.501" stroke-linejoin="round" d="M88.739 66.924C88.739 66.924 86.266 62.368 85.771 61.594"/>
  <path stroke-width="0.501" stroke-linejoin="round" d="M83.153 66.487C82.317 64.724 78.936 58.109 78.007 56.933"/>
  <path stroke-width="0.501" stroke-linejoin="round" d="M86.299 62.651C86.299 62.651 86.174 62.688 85.71 62.533C85.246 62.378 85.03 61.914 85.03 61.914C84.287 62.317 83.328 62.131 83.174 61.822C83.019 61.512 82.121 60.088 81.875 59.655C81.626 59.223 81.875 58.634 81.875 58.634L81.843 58.45L81.968 58.109C80.915 57.057 80.173 54.893 81.441 52.076C82.709 49.262 86.268 48.302 88.061 47.901L89.328 47.654"/>
  <path stroke-width="0.501" stroke-linejoin="round" d="M84.843 56.994C84.546 56.716 84.281 56.472 84.164 56.377C83.823 56.098 82.876 54.954 83.915 53.005C84.411 52.076 86.483 50.438 90.35 50.283"/>
  <path stroke-width="0.501" stroke-linejoin="round" d="M87.751 61.451C87.751 61.451 88.031 60.832 87.751 60.305C87.474 59.78 86.978 59.594 86.978 59.594L86.7 59.47L86.7 59.255L86.081 58.171C86.081 58.171 86.072 58.161 86.055 58.146"/>
  <path stroke-width="0.501" stroke-linejoin="round" d="M78.111 66.112C77.894 65.587 75.316 60.429 74.573 59.47"/>
  <path stroke-width="0.501" stroke-linejoin="round" d="M72.442 65.737L69.067 58.728"/>
  <path stroke-width="0.501" stroke-linejoin="round" d="M68.355 65.596C68.355 65.596 66.343 61.42 65.847 59.905"/>
  <path stroke-width="0.501" stroke-linejoin="round" d="M89.543 74.308C89.543 74.308 92.748 75.164 96.325 75.911C99.905 76.659 109.039 78.26 111.283 78.902C113.525 79.543 116.784 81.198 116.784 81.198"/>
  <path stroke-width="0.501" stroke-linejoin="round" d="M112.617 84.189C112.617 84.189 113.793 84.617 114.433 85.045"/>
  <path stroke-width="0.25" stroke-linejoin="round" d="M99.159 71.153C99.647 71.138 100.278 71.078 100.76 70.837C101.4 70.516 101.453 70.409 101.668 70.409C101.881 70.409 102.629 70.355 102.629 70.355C102.629 70.355 103.483 71.103 104.177 71.103C104.873 71.103 114.114 70.944 114.647 70.944C115.182 70.944 116.57 70.036 117.371 70.143C118.173 70.25 118.12 70.891 118.974 70.891C119.828 70.891 125.158 70.829 125.477 70.775"/>
  <path stroke-width="0.25" stroke-linejoin="round" d="M66.606 66.694C66.606 66.694 41.148 66.989 40.186 66.989C39.225 66.989 38.959 67.203 39.225 67.737C39.493 68.272 41.201 71.424 41.201 71.424C41.302 71.635 41.56 71.635 41.56 71.635C41.56 71.635 42.374 71.551 42.63 71.551C42.887 71.551 43.316 71.079 43.829 71.079C44.343 71.079 45.284 71.593 45.926 71.593C46.569 71.593 66.347 71.423 66.347 71.423"/>
  <path stroke-width="0.201" stroke-linejoin="round" d="M36.234 63.731C36.234 63.731 43.125 64.533 43.551 64.64C43.978 64.746 44.406 64.853 44.406 64.853"/>
  <path stroke-width="0.201" stroke-linejoin="round" d="M43.871 60.366C43.871 60.366 43.499 60.206 42.857 60.206C42.216 60.206 34.631 59.512 34.043 59.512"/>
  <path stroke-width="0.501" stroke-linejoin="round" d="M94.748 39.664C94.748 39.664 96.165 39.375 96.539 39.107C96.539 39.107 96.646 38.734 96.859 38.627C97.072 38.52 97.287 38.307 97.287 38.307L97.34 38.093"/>
  <path stroke-width="0.501" stroke-linejoin="round" d="M89.754 40.655C89.754 40.655 90.075 39.962 90.716 39.908C91.358 39.854 91.197 39.749 91.518 39.749C91.677 39.749 92.112 39.939 92.325 39.978C92.54 40.018 93.155 39.887 93.155 39.887C93.155 39.887 93.174 39.375 93.6 39.375C94.028 39.375 94.51 39.749 94.51 39.749"/>
  <path stroke-width="0.501" stroke-linejoin="round" d="M83.799 41.573L90.656 40.549"/>
  <path stroke-width="0.501" stroke-linejoin="round" d="M78.751 42.206C78.751 42.206 78.965 41.405 79.659 41.298C80.355 41.191 82.171 40.923 82.49 40.923C82.811 40.923 83.453 41.191 83.558 41.618"/>
  <path stroke-width="0.501" stroke-linejoin="round" d="M66.359 61.381C66.359 61.381 65.078 61.006 64.757 60.42C64.436 59.832 64.543 59.351 64.543 59.351L63.101 56.36L62.941 56.146C62.941 56.146 61.445 53.317 64.489 49.097C67.534 44.875 73.944 42.899 75.546 42.579C77.15 42.259 78.751 42.206 78.751 42.206"/>
  <path stroke-width="0.501" stroke-linejoin="round" d="M94.402 28.318C94.402 28.318 94.722 28.532 94.829 29.118C94.936 29.707 95.683 31.843 96.004 32.591C96.325 33.338 97.04 35.595 97.04 35.595"/>
  <path stroke-width="0.501" stroke-linejoin="round" d="M78.572 47.445C78.572 47.445 71.608 48.295 70.259 50.859C69.724 51.874 69.35 52.462 69.564 53.584"/>
  <path stroke-width="0.201" stroke-linejoin="round" d="M78.591 46.479L78.572 47.445"/>
  <path stroke-width="0.501" stroke-linejoin="round" d="M69.512 59.351C69.512 59.351 69.564 58.39 69.512 58.122L70.472 55.24L70.313 54.597L70.42 54.225L69.938 53.729L69.361 53.756L69.138 53.85L68.977 54.384L68.549 54.597L68.39 55.292L68.046 55.465L67.534 54.491C67.534 54.491 67.108 54.384 67.215 53.637C67.322 52.889 67.694 51.02 70.793 49.363C73.891 47.707 74.426 47.067 78.591 46.479"/>
  <path stroke-width="0.501" stroke-linejoin="round" d="M92.801 45.945C92.801 45.945 91.998 44.343 91.251 43.914C90.503 43.487 88.634 43.969 88.26 44.929C87.885 45.892 87.832 46.531 88.046 47.707"/>
  <path stroke-width="0.501" stroke-linejoin="round" d="M84.573 46.606L87.832 46.104"/>
  <path stroke-width="0.501" stroke-linejoin="round" d="M88.058 45.002L84.436 45.582"/>
  <path stroke-width="0.501" stroke-linejoin="round" d="M75.334 60.847C74.852 60.74 74.159 60.847 73.625 59.832C73.09 58.817 73.001 58.521 73.001 58.521L72.896 58.238C72.896 58.238 72.49 57.887 72.331 57.728C72.174 57.57 71.487 56.521 71.487 56.521L70.472 55.24"/>
  <path stroke-width="0.501" stroke-linejoin="round" d="M79.23 51.911C79.23 51.911 79.606 52.835 80.087 52.942C80.567 53.048 80.941 52.996 80.941 52.996"/>
  <path stroke-width="0.501" stroke-linejoin="round" d="M78.751 57.963L78.912 57.482L79.873 55.774C79.873 55.774 80.272 55.652 80.301 55.453C80.329 55.255 80.194 54.972 80.194 54.972L80.408 54.384L80.248 54.011L79.867 53.819L79.39 53.802L79.072 54.262L78.539 54.384L77.524 53.476C77.524 53.476 78.465 54.738 78.596 55.304C78.65 55.527 78.742 56.201 78.712 56.277L77.933 55.402L77.581 55.139L77.388 54.875L77.283 54.503L76.584 53.637L76.188 53.103C76.188 53.103 75.013 52.088 75.974 51.927C76.936 51.768 79.23 51.911 79.23 51.911"/>
  <path stroke-width="0.25" stroke-linejoin="round" d="M96.326 26.609C96.326 26.609 96.379 30.187 98.623 31.522C100.867 32.859 102.629 33.874 107.436 34.567C112.243 35.262 112.778 34.994 112.778 34.994"/>
  <path stroke-width="0.501" stroke-linejoin="round" d="M100.92 32.911C100.92 32.911 101.614 35.101 101.721 36.009C101.828 36.917 101.881 37.826 101.881 37.826"/>
  <path stroke-width="0.501" stroke-linejoin="round" d="M96.914 43.649C96.914 43.649 98.141 43.487 98.569 43.487C98.996 43.487 100.173 42.152 100.653 41.512C101.134 40.871 101.412 40.134 101.412 40.134"/>
  <path stroke-width="0.25" stroke-linejoin="round" d="M96.486 44.77C96.861 44.557 97.021 44.182 97.021 44.021C97.021 43.862 96.914 43.649 96.914 43.649"/>
  <path stroke-width="0.25" stroke-linejoin="round" d="M86.177 30.989C86.177 30.989 86.817 31.362 87.031 31.522C87.246 31.682 88.742 33.659 89.061 33.767C89.382 33.872 90.718 34.887 91.358 35.048C92 35.209 92.373 35.262 92.373 35.262C93.441 36.07 97.929 38.368 105.245 41.52C112.563 44.67 122.927 49.317 124.742 50.225C126.558 51.134 131.526 53.432 132.167 53.804"/>
  <path stroke-width="0.25" stroke-linejoin="round" d="M90.825 29.065C90.825 29.065 92.32 31.256 92.855 31.682C93.388 32.11 94.03 32.859 93.923 33.232C93.816 33.606 93.816 34.033 93.816 34.033C93.816 34.033 98.302 36.347 104.018 38.848C109.733 41.35 128.748 49.746 130.137 50.439C131.526 51.134 134.676 52.951 134.997 53.057"/>
  <path stroke-width="0.501" stroke-linejoin="round" d="M96.326 44.929C96.326 44.929 101.721 44.021 102.415 44.021L102.469 43.435C102.469 43.435 104.018 42.74 104.391 42.526C104.766 42.313 105.682 42.015 106.003 42.015"/>
  <path stroke-width="0.501" stroke-linejoin="round" d="M109.983 41.268C109.983 41.268 111.87 40.496 112.51 39.963C113.152 39.429 114.007 38.948 113.472 36.811C112.938 34.674 111.709 31.522 111.549 30.936C111.39 30.347 111.121 29.28 111.283 29.013"/>
  <path stroke-width="0.501" stroke-linejoin="round" d="M96.54 52.942L96.861 52.462C96.861 52.462 97.021 52.14 97.128 51.659C97.234 51.179 97.075 50.859 97.075 50.859C97.075 50.859 101.453 49.844 102.575 49.578C103.697 49.31 107.489 48.884 107.489 48.884"/>
  <path stroke-width="0.25" stroke-linejoin="round" d="M132.275 99.629C132.275 99.629 136.868 100.537 138.737 98.081C140.608 95.623 140.981 94.822 141.515 93.968C142.05 93.114 141.943 91.778 141.943 91.778C141.943 91.778 142.837 89.936 142.691 89.054C142.477 87.772 141.544 87.305 141.544 87.305C141.727 86.894 141.772 85.891 141.772 85.891L142.456 84.98C143.734 82.563 142.32 79.736 140.04 77.137C140.04 77.137 141.193 75.278 142.317 70.418C143.437 65.557 143.614 64.189 143.614 64.189"/>
  <path stroke-width="0.25" stroke-linejoin="round" d="M92.938 103.891L94.936 105.719C94.936 105.719 96.966 105.132 96.966 102.941C96.966 100.753 96.914 99.897 96.914 99.897L101.721 99.843C101.721 99.843 101.987 99.417 102.575 99.469C103.162 99.524 114.061 99.096 114.379 99.096C114.7 99.096 115.128 100.218 115.128 100.218L116.355 100.539C116.355 100.539 116.784 100.859 116.837 101.873C116.891 102.888 116.569 103.477 116.569 103.477L115.448 103.637C115.448 103.637 115.021 104.597 114.861 104.918"/>
  <path stroke-width="0.25" stroke-linejoin="round" d="M14.975 89.855C15.669 89.802 19.356 89.268 24.75 92.739C24.75 92.739 26.832 93.647 28.007 93.968C29.184 94.289 29.504 95.516 29.451 95.891C29.396 96.266 29.344 96.478 29.344 96.478C29.344 96.478 29.129 96.96 28.702 97.174C28.275 97.387 27.902 97.548 27.902 97.548L27.847 98.028C27.847 98.028 29.664 100.646 29.931 101.98L28.969 103.263L28.17 103.417"/>
  <path stroke-width="0.25" stroke-linejoin="round" d="M36.875 87.719C36.875 87.719 37.837 84.728 37.729 82.43C37.729 82.43 38.585 82.325 38.585 81.843C38.585 81.362 38.692 80.828 38.53 80.454C38.371 80.081 37.622 79.974 37.622 79.974C37.622 79.974 37.195 76.341 36.715 74.9C36.234 73.457 35.219 71.748 35.219 71.748C35.219 71.748 36.5 69.399 36.661 68.703L39.493 68.543"/>
  <path stroke-width="0.25" stroke-linejoin="round" d="M18.768 85.156C18.768 85.156 17.913 84.087 18.606 82.379C19.301 80.67 20.85 80.936 21.064 80.454C21.277 79.974 20.903 79.28 20.903 79.28L20.103 79.28L19.568 78.638L19.675 77.197C19.675 77.197 18.821 74.793 18.073 74.579C17.324 74.365 14.333 73.938 14.333 73.938"/>
  <path stroke-width="0.25" stroke-linejoin="round" d="M0.339 52.256C2.583 52.097 7.496 52.203 10.702 52.256C13.907 52.31 17.913 54.552 19.301 55.889L39.171 56.529L39.386 56.636C39.386 56.636 39.545 56.316 40.027 56.316C40.506 56.316 52.899 56.316 53.753 56.262C54.609 56.209 56.051 57.277 56.959 57.277C57.866 57.277 63.421 57.17 63.421 57.17"/>
  <path stroke-width="0.25" stroke-linejoin="round" d="M69.938 57.223L71.578 57.279"/>
  <path stroke-width="0.25" stroke-linejoin="round" d="M79.18 57.17L81.156 57.116"/>
  <path stroke-width="0.25" stroke-linejoin="round" d="M87.426 57.064L99.317 56.957"/>
  <path stroke-width="0.25" stroke-linejoin="round" d="M115.823 58.026C115.823 58.026 117.853 57.331 118.921 57.491C118.921 57.491 119.777 55.781 121.486 55.674C123.194 55.567 123.676 55.515 123.676 55.515C123.676 55.515 124.85 55.14 125.492 55.14C126.132 55.14 128.75 55.033 128.75 55.033C128.75 55.033 129.39 53.966 130.618 53.966C131.848 53.966 133.343 54.018 133.343 54.018C133.343 54.018 135.052 52.415 138.364 52.844C141.676 53.271 145.681 56.209 146.537 56.743C147.391 57.277 147.338 58.238 147.391 58.451C147.444 58.665 148.3 62.192 148.353 62.725C148.406 63.259 148.193 63.472 147.925 63.793C147.658 64.114 147.338 64.275 147.338 64.275"/>
  <path stroke-width="0.501" stroke-linejoin="round" d="M114.54 24.96C114.54 24.96 114.54 26.882 114.167 27.577C113.793 28.271 113.686 29.553 114.167 30.943C114.647 32.331 115.769 35.161 115.983 36.017C116.197 36.871 116.659 39.911 114.647 41.572C113.843 42.234 113.061 42.649 113.061 42.649"/>
  <path stroke-width="0.501" stroke-linejoin="round" d="M113.862 42.978C113.862 42.978 116.356 41.893 117.371 41.091C118.387 40.289 118.867 39.649 118.921 37.459C118.974 35.268 119.028 34.36 118.28 32.652C117.531 30.943 116.677 28.911 116.73 27.577C116.784 26.242 116.73 25.867 116.73 25.867L116.304 25.493L116.25 24.425L116.623 23.998"/>
  <path stroke-width="0.501" stroke-linejoin="round" d="M120.417 23.358C120.417 23.358 120.897 24.373 120.631 24.853C120.362 25.333 119.882 25.975 119.456 25.44C119.456 25.44 119.347 26.989 119.4 27.737C119.456 28.484 120.31 30.942 120.631 31.53C120.95 32.118 121.537 33.185 121.537 34.895C121.537 36.603 121.751 39.381 121.004 40.877C120.256 42.372 118.897 43.75 116.813 44.338"/>
  <path stroke-width="0.25" stroke-linejoin="round" d="M121.805 23.625L121.751 27.417C121.751 27.417 121.111 27.791 121.164 28.484C121.218 29.179 121.164 32.438 121.164 32.438"/>
  <path stroke-width="0.501" stroke-linejoin="round" d="M128.481 23.625L129.176 24.211L129.229 25.227C129.229 25.227 129.015 26.242 127.947 26.082L127.947 27.042L128.429 27.524C128.429 27.524 128.055 35.749 128.109 37.192L127.68 37.725C127.68 37.725 127.468 40.301 126.686 41.383C126.153 42.118 125.097 45.365 122.382 46.814"/>
  <path stroke-width="0.501" stroke-linejoin="round" d="M119.474 47.978C119.474 47.978 116.837 48.515 114.7 48.462C112.564 48.408 108.986 48.515 108.986 48.515"/>
  <path stroke-width="0.25" stroke-linejoin="round" d="M149.193 47.881C147.31 46.621 145.771 44.81 145.36 42.533C144.56 38.1 141.942 22.236 140.873 18.71C139.806 15.185 135.318 4.288 123.674 4.663C112.03 5.036 96.272 4.929 96.272 4.929C96.272 4.929 52.418 6.051 44.246 6.211C36.073 6.371 34.472 5.73 30.359 3.593C26.245 1.457 27.635 0.603 22.507 0.763C17.379 0.924 9.794 0.977 7.443 0.977C5.094 0.977 1.835 1.617 0.287 2.793"/>
  <path stroke-width="0.25" stroke-linejoin="round" d="M0.18 20.954C1.141 20.152 4.827 16.841 5.413 16.414C6.001 15.986 7.07 15.185 10.275 15.025C13.48 14.865 15.349 14.757 16.577 14.865C17.806 14.971 19.515 15.185 22.187 17.214C24.856 19.245 30.413 22.449 36.554 22.503C42.698 22.556 45.314 22.343 46.009 22.449C46.704 22.556 47.505 22.609 47.505 22.609L48.307 21.754L99.957 21.221L100.972 21.861C100.972 21.861 104.337 21.809 106.207 21.809C108.078 21.809 112.938 21.221 116.784 18.336C120.629 15.451 123.727 15.986 124.688 16.199C125.65 16.414 141.14 20.312 141.14 20.312"/>
  <path stroke-width="0.25" stroke-linejoin="round" d="M128.481 23.518C128.481 23.518 130.457 23.625 131.098 23.411C131.74 23.196 133.021 21.861 133.395 21.594C133.77 21.327 134.677 20.152 134.837 19.992C134.997 19.832 136.227 19.03 136.227 19.03"/>
  <path stroke-width="0.25" stroke-linejoin="round" d="M120.096 29.713L121.164 29.553"/>
  <path stroke-width="0.25" stroke-linejoin="round" d="M117.21 30.355C117.21 30.355 115.448 30.568 114.112 30.621"/>
  <path stroke-width="0.25" stroke-linejoin="round" d="M100.972 24.693C100.972 24.693 101.186 26.562 101.4 27.31C101.612 28.057 104.391 29.766 105.993 30.035C107.596 30.301 111.388 30.728 111.388 30.728"/>
  <path stroke-width="0.25" stroke-linejoin="round" d="M109.251 21.594C109.251 21.594 109.268 21.664 109.287 21.774C109.364 22.201 109.493 23.253 108.984 23.463C108.343 23.731 107.329 23.678 107.329 24.425C107.329 25.173 107.811 27.31 106.528 27.737C105.245 28.164 104.552 28.004 104.552 28.004C104.552 28.004 107.009 28.217 107.703 28.217C108.397 28.217 109.84 28.484 111.495 27.31C111.495 27.31 112.03 25.922 112.03 25.333C112.03 25.333 111.121 25.493 110.802 25.493C110.48 25.493 109.787 25.067 109.893 24.533C110 23.998 110.694 23.625 110.855 23.625C111.015 23.625 111.069 23.143 110.802 23.036C110.534 22.929 109.84 21.809 109.84 21.809L109.251 21.594z"/>
  <path stroke-width="0.25" stroke-linejoin="round" d="M104.07 29.234C104.07 29.234 109.091 29.501 109.465 29.501C109.84 29.501 112.189 28.753 112.563 28.486C112.938 28.219 114.968 23.091 114.968 23.091"/>
  <path stroke-width="0.25" stroke-linejoin="round" d="M142.21 25.068C142.21 25.068 142.689 47.395 142.689 48.302C142.689 49.21 142.635 50.332 145.04 51.987C147.444 53.643 147.657 56.956 147.444 58.131"/>
  <path stroke-width="0.25" stroke-linejoin="round" d="M103.751 49.531L104.445 50.066L107.063 49.851L106.956 50.439L107.864 50.707L108.933 50.493L109.093 49.531L108.718 49.265L109.466 48.624"/>
  <path stroke-width="0.25" stroke-linejoin="round" d="M142.582 46.701C142.582 46.701 135.639 50.814 132.274 51.454"/>
  <path stroke-width="0.25" stroke-linejoin="round" d="M134.997 50.387L129.924 50.28"/>
  <path stroke-width="0.25" stroke-linejoin="round" d="M124.421 50.173L109.09 49.798"/>
  <path stroke-width="0.25" stroke-linejoin="round" d="M142.635 47.875L140.819 48.838C140.819 48.838 141.407 48.837 141.086 49.424C140.766 50.012 140.393 50.493 140.393 50.493L143.276 50.493"/>
  <path stroke-width="0.25" stroke-linejoin="round" d="M71.274 49.796L70.099 49.743"/>
  <path stroke-width="0.25" stroke-linejoin="round" d="M64.063 49.796L17.431 50.759"/>
  <path stroke-width="0.25" stroke-linejoin="round" d="M18.071 54.764C18.071 54.764 17.217 52.787 17.431 48.835C17.644 44.883 17.698 42.104 16.844 40.396C15.989 38.686 14.867 38.259 14.867 38.259"/>
  <path stroke-width="0.25" stroke-linejoin="round" d="M14.92 53.216C14.92 53.216 14.333 50.972 14.599 47.82C14.867 44.668 15.24 42.533 13.96 41.091C12.678 39.649 11.769 39.167 11.769 39.167C11.769 39.167 14.867 42.372 14.119 45.683C13.371 48.996 9.792 50.918 7.602 50.972C5.413 51.026 0.125 51.987 0.125 51.987"/>
  <path stroke-width="0.25" stroke-linejoin="round" d="M14.547 50.865L6.107 51.185"/>
  <path stroke-width="0.25" stroke-linejoin="round" d="M0.339 41.25C0.339 41.25 3.597 38.152 12.356 38.152C21.117 38.152 26.574 39.752 31.585 39.06C36.609 38.366 37.567 37.832 39.918 35.908C39.918 35.908 41.896 35.268 42.59 34.52C43.284 33.771 44.031 32.756 44.031 32.756L44.619 32.009"/>
  <path stroke-width="0.25" stroke-linejoin="round" d="M44.031 32.756C44.031 32.756 46.862 32.863 47.771 32.863C48.679 32.863 53.326 31.422 53.914 31.422C54.5 31.422 77.362 30.993 77.95 31.047C78.539 31.1 82.224 32.49 85.162 32.383C88.099 32.277 87.725 32.383 87.725 32.383"/>
  <path stroke-width="0.25" stroke-linejoin="round" d="M93.067 31.795C93.067 31.795 93.814 31.315 94.028 30.407C94.242 29.498 94.563 27.736 94.563 27.736"/>
  <path stroke-width="0.25" stroke-linejoin="round" d="M0.232 48.088C0.232 48.088 3.918 47.661 5.626 47.607C7.336 47.554 10.647 46.7 10.595 44.936C10.541 43.173 8.672 41.465 8.672 41.465L8.191 41.838C8.191 41.838 7.016 41.304 6.748 41.143C6.482 40.984 6.963 40.182 6.963 40.182L5.2 39.115"/>
  <path stroke-width="0.25" stroke-linejoin="round" d="M2.742 26.775L2.956 27.576C2.956 27.576 2.583 30.246 4.612 31.637C6.642 33.024 9.419 34.521 9.419 34.521L10.114 34.094L10.487 34.2L10.807 34.094C10.807 34.094 12.784 35.161 12.999 35.322C13.211 35.481 13.426 36.337 13.426 36.337"/>
  <path stroke-width="0.25" stroke-linejoin="round" d="M0.339 38.954C0.339 38.954 3.383 36.871 11.288 36.496C19.195 36.122 23.373 37.378 29.344 37.298C33.404 37.246 36.073 36.229 38.103 34.787C38.103 34.787 37.302 34.039 38.744 32.811C40.186 31.582 40.401 30.033 40.401 29.606C40.401 29.179 39.759 27.524 39.386 26.882"/>
  <path stroke-width="0.25" stroke-linejoin="round" d="M0.768 25.067C0.768 25.067 1.088 27.042 3.812 26.882C6.535 26.722 18.501 26.082 19.248 25.975C19.995 25.867 20.583 25.814 21.545 25.227C22.507 24.64 23.414 23.945 23.681 23.731C23.949 23.518 24.269 22.769 24.269 22.769L26.46 26.615C26.46 26.615 26.353 30.033 29.451 30.033C32.548 30.033 35.38 30.248 35.38 30.248L35.701 30.408L37.622 30.408C37.622 30.408 37.729 31.903 39.012 32.331"/>
  <path stroke-width="0.25" stroke-linejoin="round" d="M0.393 28.966C0.393 28.966 1.088 32.706 3.224 33.773C5.36 34.841 7.07 36.017 7.07 36.017"/>
  <path stroke-width="0.25" stroke-linejoin="round" d="M0.233 32.918L8.031 36.658"/>
  <path stroke-width="0.25" stroke-linejoin="round" d="M0.27 36.89C0.27 36.89 1.902 37.569 2.491 37.795"/>
  <path stroke-width="0.25" stroke-linejoin="round" d="M0.361 66.265C0.361 66.265 5.301 66.989 5.618 66.989C5.937 66.989 7.341 67.397 7.841 67.67C8.339 67.941 10.153 68.757 10.561 68.983C10.968 69.21 11.693 69.846 11.739 70.254C11.784 70.661 12.329 72.112 12.464 72.927"/>
  <path stroke-width="0.25" stroke-linejoin="round" d="M54.445 106.87L55.301 90.986C55.301 90.986 55.173 90.516 56.758 90.43C58.341 90.344 63.179 90.516 63.179 90.516"/>
  <path stroke-width="0.25" stroke-linejoin="round" d="M55.131 94.582L37.578 95.439"/>
  <path stroke-width="0.25" stroke-linejoin="round" d="M55.259 91.971L40.575 92.87L39.118 93.427"/>
  <path stroke-width="0.25" stroke-linejoin="round" d="M39.076 95.48L40.49 98.692L40.789 98.992L53.418 104.643"/>
  <path stroke-width="0.25" stroke-linejoin="round" d="M35.38 100.996C36.216 101.007 37.866 101.099 39.762 101.603C42.502 102.331 45.156 102.974 45.328 104.215L45.328 104.471L46.655 105.885"/>
  <path stroke-width="0.25" stroke-linejoin="round" d="M45.542 105.885L47.64 105.841C47.64 105.841 48.496 104.9 51.835 104.728L54.575 104.686"/>
  <path stroke-width="0.25" stroke-linejoin="round" d="M128.641 52.218C128.182 52.277 125.992 52.536 124.716 52.536C123.442 52.536 110.933 52.715 110.933 52.715"/>
  <path stroke-width="0.25" stroke-linejoin="round" d="M109.061 52.715L96.849 52.695"/>
  <path stroke-width="0.25" stroke-linejoin="round" d="M103.623 57.176C103.742 56.758 104.579 55.582 105.277 55.064C105.974 54.546 107.349 53.631 109.2 54.109"/>
  <path stroke-width="0.25" stroke-linejoin="round" d="M108.463 53.85C108.463 53.85 108.364 53.651 108.783 53.651C109.2 53.651 109.32 53.53 109.32 53.53L109.001 53.212L109.281 52.494L109.778 52.356L109.998 52.494C109.998 52.494 110.516 52.235 110.655 52.335C110.795 52.435 110.754 52.554 110.754 52.554C110.754 52.554 112.986 53.651 113.204 53.789C113.424 53.929 113.444 54.606 113.224 55.045C113.006 55.482 113.006 55.482 113.006 55.482C113.006 55.482 113.602 55.92 113.822 56.658C113.822 56.658 115.257 57.694 115.495 57.853C115.736 58.012 115.875 58.192 116.013 58.451C116.153 58.71 116.771 59.945 116.811 60.402C116.849 60.86 116.829 61.558 116.829 61.558"/>
  <path stroke-width="0.25" stroke-linejoin="round" d="M103.265 58.869C103.265 58.869 103.066 60.125 104.001 61.459C104.938 62.793 106.072 63.609 106.072 63.609C106.072 63.609 106.99 64.147 107.409 64.766"/>
  <path stroke-width="0.201" stroke-linejoin="round" d="M98.465 60.72C98.465 61.018 98.664 63.191 98.683 63.469C98.703 63.749 98.543 64.227 98.046 64.227C97.548 64.227 97.308 63.887 97.269 63.409C97.228 62.932 97.129 60.92 97.129 60.661C97.129 60.402 97.367 60.143 97.746 60.182C98.126 60.222 98.465 60.542 98.465 60.72z"/>
  <path stroke-width="0.201" stroke-linejoin="round" d="M54.356 76.617C54.356 76.617 54.686 74.867 56.473 74.867C57.057 74.867 57.969 74.867 58.445 74.939C58.935 75.015 59.576 75.304 59.868 75.852"/>
  <path stroke-width="0.201" stroke-linejoin="round" d="M50.777 61.633C51.042 61.643 51.39 61.865 51.374 62.395C51.354 63.024 51.286 64.432 51.274 64.612C51.258 64.879 51.009 65.325 50.429 65.259C49.85 65.192 49.884 64.728 49.866 64.546C49.85 64.364 50.009 62.476 50.017 62.329C50.033 61.981 50.347 61.616 50.777 61.633z"/>
  <path stroke-width="0.201" stroke-linejoin="round" d="M54.872 62.643C55.137 62.654 55.484 62.875 55.469 63.405C55.448 64.034 55.381 65.441 55.369 65.623C55.353 65.888 55.104 66.335 54.524 66.269C53.945 66.203 53.978 65.739 53.962 65.557C53.945 65.375 54.103 63.487 54.11 63.338C54.128 62.99 54.442 62.628 54.872 62.643z"/>
  <path stroke-width="0.131" stroke-linejoin="round" id="AUTOID_18333" itedo:apstype="grobject" extra:BBAccumRotation="0.265058" d="M93.12 103.74C92.269 100.915 89.085 99.325 85.936 100.182C82.852 101.018 80.927 103.891 81.496 106.7"/>
  <path stroke-width="0.25" stroke-linejoin="round" d="M81.495 100.724L81.287 100.635L80.18 99.26C80.18 99.26 79.882 98.783 80.21 98.572C80.54 98.364 83.915 95.257 83.915 95.257L84.125 94.867C84.125 94.867 84.394 94.599 84.813 94.897L85.649 94.39L86.096 94.539L86.635 95.106L86.784 95.584L86.724 96.004L86.126 96.57"/>
  <path stroke-width="0.25" stroke-linejoin="round" d="M86.694 96.212C86.694 96.212 88.884 95.668 90.638 95.914C91.924 96.093 93.328 96.51 93.447 96.51C93.566 96.51 94.045 97.198 93.418 97.289C93.418 97.289 93.179 97.706 93.058 97.796C92.938 97.885 92.819 97.825 92.552 97.766C92.281 97.706 88.248 96.84 85.29 98.215"/>
  <path stroke-width="0.131" stroke-linejoin="round" d="M80.569 95.075C81.646 93.117 83.998 91.759 86.724 91.759C90.129 91.759 92.947 93.873 93.433 96.632"/>
  <path stroke-width="0.131" stroke-linejoin="round" d="M92.608 96.257C91.418 94.605 89.265 93.501 86.805 93.501C84.078 93.501 82 94.834 80.703 96.658C79.878 97.817 79.406 98.42 79.507 101.924"/>
  <path stroke-width="0.131" stroke-linejoin="round" d="M83.463 91.019C85.081 90.034 87.278 89.766 89.43 90.469C92.99 91.632 95.082 95.01 94.102 98.015C94.055 98.156 94.003 98.296 93.944 98.43"/>
  <path stroke-width="0.131" stroke-linejoin="round" d="M85.9 88.746C88.058 87.965 90.715 88.471 92.71 90.263C95.373 92.655 95.977 96.356 94.031 98.84"/>
  <path stroke-width="0.131" stroke-linejoin="round" d="M88.253 87.268C90.548 86.753 93.177 87.662 94.909 89.796C97.207 92.626 97.004 96.75 95.091 98.543"/>
  <path stroke-width="0.131" stroke-linejoin="round" d="M91.385 85.948C93.493 85.84 95.746 86.938 97.192 89.004C99.275 91.98 98.587 96.003 96.555 97.676"/>
  <path stroke-width="0.131" stroke-linejoin="round" d="M94.402 84.674C96.2 84.742 98.078 85.68 99.414 87.361C101.522 90.016 101.156 93.731 99.691 95.614"/>
  <path stroke-width="0.131" stroke-linejoin="round" d="M97.21 83.504C99.281 83.465 101.477 84.813 102.715 87.099C104.156 89.763 103.667 92.926 102.375 94.373"/>
  <path stroke-width="0.131" stroke-linejoin="round" d="M99.84 82.308C101.909 82.269 104.105 83.617 105.343 85.903C106.786 88.567 106.439 91.498 105.161 92.956C104.778 93.391 103.879 93.871 103.879 93.871"/>
  <path stroke-width="0.131" stroke-linejoin="round" d="M105.638 93.231C105.638 93.231 106.727 92.709 107.102 92.266C108.356 90.787 108.45 87.878 106.962 85.239C105.683 82.975 103.487 81.661 101.664 81.721C101.058 81.74 101.007 81.811 101.007 81.811"/>
  <path stroke-width="0.131" stroke-linejoin="round" d="M94.031 104.881C94.069 104.646 94.093 104.406 94.094 104.162C94.129 101.12 91.218 98.513 87.564 98.472C86.462 98.46 85.534 98.563 84.391 98.926C84.334 98.944 84.314 99.167 84.263 99.197C83.32 99.778 82.68 100.192 82.1 100.862C81.581 101.463 81.203 102.156 81.01 102.909L80.641 103.986"/>
  <path stroke-width="0.131" stroke-linejoin="round" d="M84.004 95.135C83.984 95.338 84.248 96.087 84.591 96.474C84.936 96.858 85.727 97.486 85.868 97.384C86.01 97.283 86.152 97.081 86.152 97.081L86.171 96.635"/>
  <path stroke-width="0.131" stroke-linejoin="round" d="M84.795 94.852C84.754 94.933 85.018 95.784 85.018 95.784L85.746 96.391L86.132 96.513"/>
  <path stroke-width="0.131" stroke-linejoin="round" d="M85.524 97.322L84.206 98.397C84.206 98.397 87.751 96.149 93.079 97.709"/>
  <path stroke-width="0.131" stroke-linejoin="round" d="M81.007 100.32C81.007 100.32 80.581 101.474 80.581 102.73C80.581 103.986 80.602 104.087 80.602 104.087"/>
  <path stroke-width="0.131" stroke-linejoin="round" d="M90.73 97.584C90.73 97.584 93.079 98.718 93.93 101.534"/>
  <path stroke-width="0.131" stroke-linejoin="round" d="M93.424 97.504C93.424 97.504 93.951 98.355 94.132 99.569"/>
  <path stroke-width="0.131" stroke-linejoin="round" d="M85.159 95.64L85.929 95.012L86.597 95.64L85.888 96.328"/>
  <path stroke-width="0.131" stroke-linejoin="round" d="M85.706 94.465L85.727 94.647L85.483 94.769L85.545 94.99L85.868 94.748L86.659 95.417"/>
  <path stroke-width="0.131" stroke-linejoin="round" d="M82.093 89.972C81.969 90.484 80.5 90.572 78.808 90.167C77.118 89.762 75.846 89.019 75.968 88.507"/>
  <path stroke-width="0.131" stroke-linejoin="round" d="M81.188 89.712C81.106 90.052 80.131 90.109 79.01 89.841C77.887 89.572 77.043 89.079 77.125 88.74"/>
  <path stroke-width="0.131" stroke-linejoin="round" d="M63.368 81.823C63.368 81.823 64.337 81.564 64.522 80.954C64.706 80.344 64.593 79.947 64.436 79.635"/>
  <path stroke-width="0.131" stroke-linejoin="round" d="M62.35 79.463L63.088 79.28L63.329 79.364L63.968 80.061L63.655 80.897L62.804 81.067L62.079 80.26L62.35 79.463z"/>
  <path stroke-width="0.131" stroke-linejoin="round" d="M63.357 79.507L62.265 80.387"/>
  <path stroke-width="0.131" stroke-linejoin="round" d="M62.534 80.727L63.613 79.763"/>
  <path stroke-width="0.131" stroke-linejoin="round" d="M65.734 79.5C66.055 79.563 67.105 79.593 67.587 79.891C68.07 80.188 68.298 80.387 68.128 80.897C67.957 81.409 67.759 81.935 67.644 82.09C67.531 82.246 67.262 82.489 66.765 82.445C66.268 82.403 65.331 82.218 65.09 82.218C64.849 82.218 64.465 82.26 64.293 82.203C64.125 82.147 63.726 81.99 63.726 81.721"/>
  <path stroke-width="0.131" stroke-linejoin="round" d="M69.036 80.983C68.993 80.855 68.212 80.585 68.212 80.585"/>
  <path stroke-width="0.131" stroke-linejoin="round" d="M68.397 83.325C68.24 83.283 67.759 83.042 67.12 82.871C66.48 82.7 65.274 82.43 65.231 82.43C65.188 82.43 65.004 82.346 65.004 82.346C65.004 82.346 64.838 82.53 64.759 82.537"/>
  <path stroke-width="0.131" stroke-linejoin="round" d="M67.688 80.685L67.305 81.706"/>
  <path stroke-width="0.131" stroke-linejoin="round" d="M67.29 80.585L66.906 81.579"/>
  <path stroke-width="0.131" stroke-linejoin="round" d="M66.921 80.486L66.524 81.522"/>
  <path stroke-width="0.131" stroke-linejoin="round" d="M66.495 80.459L66.111 81.451"/>
  <path stroke-width="0.131" stroke-linejoin="round" d="M66.183 80.444L65.771 81.367"/>
  <path stroke-width="0.131" stroke-linejoin="round" d="M65.843 80.4L65.415 81.296"/>
  <path stroke-width="0.131" stroke-linejoin="round" d="M65.543 80.358L65.061 81.31"/>
  <path stroke-width="0.131" stroke-linejoin="round" d="M65.289 80.373L64.778 81.381"/>
  <path stroke-width="0.131" stroke-linejoin="round" d="M65.019 80.457L64.593 81.367"/>
  <path stroke-width="0.25" stroke-linejoin="round" d="M130.05 97.496C130.001 97.084 129.86 95.912 129.86 95.742C129.86 95.534 129.8 94.793 129.179 94.052C128.556 93.311 127.34 93.429 127.162 93.724C126.983 94.022 126.686 94.438 126.686 94.438L124.367 92.837C124.367 92.837 124.581 92.391 124.7 92.094C124.819 91.799 124.996 91.471 124.73 90.849C124.462 90.225 123.572 90.019 122.95 89.959C122.328 89.9 120.162 89.87 120.162 89.87L119.718 89.691L119.54 89.84L119.037 90.486L119.131 90.674L121.221 92.224"/>
  <path stroke-width="0.25" stroke-linejoin="round" d="M122.269 95.149C122.269 95.149 122.921 95.218 123.099 94.95C123.281 94.677 123.227 94.796 123.709 94.01L126.063 95.742"/>
  <path stroke-width="0.131" stroke-linejoin="round" d="M110.046 96.361C109.972 95.656 110.09 95.012 110.421 94.465C111.879 92.072 116.93 92.486 121.703 95.394C126.474 98.299 129.161 102.596 127.703 104.989C127.32 105.617 126.691 106.052 125.882 106.299"/>
  <path stroke-width="0.131" stroke-linejoin="round" d="M109.938 92.146C111.368 89.447 115.313 88.582 119.634 89.7"/>
  <path stroke-width="0.131" stroke-linejoin="round" d="M130.074 97.483C131.05 99.427 131.225 101.385 130.381 102.98"/>
  <path stroke-width="0.131" stroke-linejoin="round" d="M113.733 87.396C116.65 85.265 121.859 85.938 126.221 89.239C130.223 92.263 132.546 96.628 131.894 99.933"/>
  <path stroke-width="0.131" stroke-linejoin="round" d="M117.162 83.144C120.195 81.682 124.694 82.861 128.622 86.063C132.685 89.371 134.532 94.001 133.86 97.198"/>
  <path stroke-width="0.131" stroke-linejoin="round" d="M135.568 88.35C136.588 90.572 136.924 92.828 136.203 94.596"/>
  <path stroke-width="0.131" stroke-linejoin="round" d="M121.739 79.783C124.623 79.323 128.335 80.498 131.493 83.147C132.491 83.983 133.354 84.9 134.069 85.855"/>
  <path stroke-width="0.131" stroke-linejoin="round" d="M83.805 97.555L84.061 98.472L84.206 98.397"/>
  <path stroke-width="0.131" stroke-linejoin="round" d="M117.533 92.859C117.533 92.859 120.468 93.048 121.549 93.118C122.629 93.188 123.64 94.364 123.099 94.95"/>
  <path stroke-width="0.131" stroke-linejoin="round" d="M119.718 91.191C119.364 91.191 119.271 91.474 119.224 91.638C119.177 91.802 119.153 92.248 119.74 92.272C120.328 92.296 121.409 92.319 121.667 92.365C121.924 92.412 122.959 92.507 123.427 93.117C123.897 93.728 123.64 94.057 123.64 94.057"/>
  <path stroke-width="0.25" stroke-linejoin="round" d="M119.998 89.876L122.301 91.403"/>
  <path stroke-width="0.131" stroke-linejoin="round" d="M128.525 100.82C128.525 100.82 128.219 98.308 128.171 98.025C128.125 97.743 127.537 96.686 126.575 96.757"/>
  <path stroke-width="0.131" stroke-linejoin="round" d="M125.4 97.132L125.894 96.099C125.894 96.099 126.757 95.546 127.679 96.146C128.62 96.757 128.572 97.766 128.594 97.861C128.618 97.954 128.993 99.951 128.993 99.951"/>
  <path stroke-width="0.131" stroke-linejoin="round" d="M126.686 94.438L126.787 94.62L126.763 94.713L128.525 95.84L129.064 95.724L129.816 96.311C129.816 96.311 129.651 97.18 129.487 97.343C129.324 97.509 128.83 97.908 128.83 97.908L128.641 97.766"/>
  <path stroke-width="0.131" stroke-linejoin="round" d="M126.787 94.549C126.787 94.549 127.656 93.938 128.594 94.503C129.396 94.983 129.346 95.23 129.441 95.981"/>
  <path stroke-width="0.131" stroke-linejoin="round" d="M121.361 90.674C121.361 90.674 122.489 90.697 122.912 90.697C123.334 90.697 124.227 91.12 124.367 91.427C124.509 91.731 124.65 91.989 124.509 92.412"/>
  <path stroke-width="0.131" stroke-linejoin="round" d="M121.689 92.272C121.689 92.272 122.23 91.965 122.207 91.661C122.183 91.355 122.183 91.355 122.183 91.355"/>
  <path stroke-width="0.131" stroke-linejoin="round" d="M122.137 91.215C122.137 91.215 122.816 90.631 123.852 91.331C124.579 91.825 124.227 92.436 124.227 92.436L124.04 92.811C124.04 92.811 124.04 92.811 123.897 92.835C123.757 92.858 123.569 93.305 123.569 93.305"/>
  <path stroke-width="0.131" stroke-linejoin="round" d="M128.996 95.7C128.996 95.7 128.83 95.161 128.266 94.902C127.584 94.588 127.375 94.525 126.951 94.784"/>
  <path stroke-width="0.131" stroke-linejoin="round" d="M128.525 95.84C128.525 95.84 128.665 96.194 128.502 96.358C128.337 96.522 128.219 96.569 128.219 96.569"/>
  <path stroke-width="0.131" stroke-linejoin="round" d="M129.066 95.795C129.182 95.841 129.229 96.451 128.972 96.617C128.712 96.781 128.478 96.968 128.478 96.968"/>
  <path stroke-width="0.131" stroke-linejoin="round" d="M117.394 80.638C117.394 80.638 118.733 78.709 121.588 78.865"/>
  <path stroke-width="0.131" stroke-linejoin="round" d="M130.944 79.594C130.806 79.772 130.451 80.501 130.451 80.618"/>
  <path stroke-width="0.131" stroke-linejoin="round" d="M132.362 80.067C132.245 80.067 131.93 80.421 131.752 80.875C131.574 81.328 131.456 81.683 131.515 81.721"/>
  <path stroke-width="0.131" stroke-linejoin="round" d="M123.105 76.7L122.909 76.936L122.849 77.132L122.712 77.763C122.712 77.763 122.811 78.295 123.204 78.531C123.599 78.768 124.04 78.93 124.04 78.93"/>
  <path stroke-width="0.131" stroke-linejoin="round" d="M125.436 78.034C125.436 78.034 125.587 77.605 125.509 77.507C125.43 77.409 125.331 77.191 125.331 77.191C125.331 77.191 125.331 76.915 125.489 76.876C125.647 76.837 125.962 76.876 125.962 76.876L126.513 77.23"/>
  <path stroke-width="0.131" stroke-linejoin="round" d="M123.558 75.676C123.558 75.676 123.933 75.873 123.992 75.912C124.051 75.95 124.031 76.186 123.914 76.246C123.796 76.305 123.302 76.581 123.302 76.581L123.165 76.739L122.456 76.364"/>
  <path stroke-width="0.131" stroke-linejoin="round" d="M126.751 76.858C130.61 77.448 132.936 79.143 134.057 79.989C135.18 80.835 138.43 83.632 139.139 88.733"/>
  <path stroke-width="0.131" stroke-linejoin="round" d="M125.292 74.611C125.292 74.611 127.478 73.45 130.906 74.277C134.332 75.105 137.471 77.278 139.138 79.24C140.479 80.816 142.082 83.128 141.772 85.891"/>
  <path stroke-width="0.131" stroke-linejoin="round" d="M141.877 84.914C141.877 84.914 142.389 82.51 141.088 80.462C139.789 78.414 137.837 76.325 135.612 75.203C133.615 74.194 130.592 72.641 126.867 74.079"/>
  <path stroke-width="0.25" stroke-linejoin="round" d="M139.548 89.088C139.548 89.088 139.338 88.501 139.699 88.236C140.06 87.971 140.514 87.516 140.627 87.421C140.741 87.326 141.366 87.194 142.01 87.801"/>
  <path stroke-width="0.25" stroke-linejoin="round" d="M134.167 85.906C135.493 87.138 138.183 89.772 138.923 92.936C139.662 96.099 137.879 97.653 137.349 97.825"/>
  <path stroke-width="0.25" stroke-linejoin="round" d="M138.467 90.037C138.467 90.037 139.138 89.498 140.268 90.454C141.252 91.289 140.419 92.046 140.419 92.046"/>
  <path stroke-width="0.25" stroke-linejoin="round" d="M140.457 92.558C140.723 92.102 141.538 90.852 141.822 89.98"/>
  <path stroke-width="0.25" stroke-linejoin="round" d="M130.264 72.271C130.264 72.271 132.157 72.572 133.825 73.558C135.492 74.543 136.27 74.98 136.459 75.055C136.647 75.131 137.368 75.605 137.615 75.623C137.86 75.643 138.429 75.623 138.733 75.87C139.036 76.115 139.983 77.1 139.983 77.1"/>
  <path stroke-width="0.131" stroke-linejoin="round" d="M122.59 74.846C122.59 74.846 122.287 72.858 124.902 71.644C127.516 70.432 131.609 71.228 134.355 72.915C137.103 74.6 137.784 75.585 137.784 75.585"/>
  <path stroke-width="0.131" stroke-linejoin="round" d="M125.621 70.754C125.621 70.754 126.796 69.864 129.581 69.959C132.366 70.054 136.118 71.871 137.52 73.444C138.921 75.016 139.358 75.737 139.756 76.837"/>
  <path stroke-width="0.131" stroke-linejoin="round" d="M138.411 75.7C138.106 75.188 135.436 72.593 132.745 71.664C130.055 70.736 127.572 70.186 124.332 71.551"/>
  <path stroke-width="0.131" stroke-linejoin="round" d="M124.941 73.093C124.521 73.49 123.653 74.284 123.727 75.671"/>
  <path stroke-width="0.131" stroke-linejoin="round" id="AUTOID_18414" itedo:apstype="grobject" extra:BBAccumRotation="0.814679" d="M123.984 77.653C124.322 77.972 124.415 78.421 124.192 78.658C123.971 78.893 123.518 78.825 123.18 78.509C122.843 78.189 122.748 77.74 122.971 77.504C123.194 77.269 123.647 77.337 123.984 77.653z"/>
  <path stroke-width="0.25" stroke-linejoin="round" d="M109.95 96.448L108.045 99.233"/>
  <path stroke-width="0.25" stroke-linejoin="round" d="M126.751 105.01L125.462 106.915"/>
  <path stroke-width="0.25" stroke-linejoin="round" d="M130.693 102.352C130.693 102.352 129.331 105.275 129.157 105.539C128.979 105.802 128.217 106.623 127.953 106.799"/>
  <path stroke-width="0.25" stroke-linejoin="round" d="M140.715 75.897L142.014 75.924L142.252 76.15C142.252 76.15 142.437 77.382 142.45 77.475C142.465 77.569 141.643 78.894 141.562 78.933"/>
  <path stroke-width="0.131" stroke-linejoin="round" d="M126.451 69.248C126.451 69.248 127.227 67.242 127.591 66.102C127.956 64.962 129.096 60.31 129.096 59.808"/>
  <path stroke-width="0.131" stroke-linejoin="round" d="M143.643 64.186L143.961 61.723"/>
  <path stroke-width="0.131" stroke-linejoin="round" d="M144.372 59.444L144.463 58.213"/>
  <path stroke-width="0.131" stroke-linejoin="round" d="M124.126 55.386C123.676 55.515 123.123 56.07 122.941 56.572C122.759 57.073 121.481 60.539 121.481 60.539"/>
  <path stroke-width="0.131" stroke-linejoin="round" d="M120.114 64.596L119.656 66.192"/>
  <path stroke-width="0.131" stroke-linejoin="round" d="M90.344 65.739C90.344 65.739 114.322 65.554 114.96 65.554C115.599 65.554 116.236 66.055 116.191 66.239"/>
  <path stroke-width="0.131" stroke-linejoin="round" d="M114.459 66.329L90.846 66.742"/>
  <path stroke-width="0.131" stroke-linejoin="round" d="M87.831 65.78L83.081 65.798"/>
  <path stroke-width="0.131" stroke-linejoin="round" d="M77.933 65.92L73.465 65.965"/>
  <path stroke-width="0.131" stroke-linejoin="round" d="M39.265 67.605C39.265 67.605 39.448 67.332 40.223 67.332C40.999 67.332 66.579 67.332 66.579 67.332"/>
  <path stroke-width="0.131" stroke-linejoin="round" d="M99.001 68.063C99.001 68.063 100.915 67.971 101.965 68.2C101.965 68.2 102.01 70.343 106.89 70.159C111.769 69.977 112.635 68.792 112.862 68.427C113.09 68.063 113.364 66.831 115.233 66.831C117.103 66.831 125.358 66.602 125.677 66.602C125.995 66.602 126.042 67.013 126.042 67.013"/>
  <path stroke-width="0.25" stroke-linejoin="round" d="M85.947 58.195C85.543 58.457 84.924 58.932 84.504 59.939"/>
  <path stroke-width="0.501" stroke-linejoin="round" d="M84.858 56.942C85.073 56.786 85.314 56.655 85.578 56.573C86.765 56.212 87.094 56.54 87.26 56.771C87.426 57.003 87.623 57.631 87.557 57.746C87.557 57.746 86.551 57.795 86.236 58.009C86.165 58.058 86.066 58.118 85.947 58.195"/>
  <path stroke-width="0.25" stroke-linejoin="round" d="M82.046 58.091L82.689 57.895L83.052 58.225C83.052 58.225 83.548 58.174 83.647 58.356C83.647 58.356 84.096 57.496 84.858 56.942"/>
  <path stroke-width="0.131" stroke-linejoin="round" d="M81.814 59.594C81.93 59.857 82.953 60.039 83.515 59.494C84.075 58.95 83.563 58.258 83.563 58.258"/>
  <path stroke-width="0.131" stroke-linejoin="round" d="M81.93 58.835L82.26 59.28L83.003 59.164L83.284 58.703L83.102 58.225"/>
  <path stroke-width="0.131" stroke-linejoin="round" d="M82.063 58.819L82.903 58.158"/>
  <path stroke-width="0.131" stroke-linejoin="round" d="M81.963 58.637L82.756 58.009"/>
  <path stroke-width="0.131" stroke-linejoin="round" d="M82.111 58.901L82.822 58.752L83.003 59.164"/>
  <path stroke-width="0.131" stroke-linejoin="round" d="M82.822 58.752L83.102 58.29"/>
  <path stroke-width="0.131" stroke-linejoin="round" d="M85.066 61.904C85.066 61.904 84.966 61.606 84.933 61.54C84.9 61.475 84.655 60.637 85.659 60.023C86.551 59.478 86.864 59.676 87.144 59.776"/>
  <path stroke-width="0.131" stroke-linejoin="round" d="M85 61.789L84.653 60.947C84.653 60.947 84.784 60.055 85.561 59.743C86.337 59.429 86.65 59.561 86.65 59.561"/>
  <path stroke-width="0.131" stroke-linejoin="round" d="M86.683 59.329C86.683 59.329 85.873 59.231 85.296 59.594C84.718 59.957 84.521 60.023 84.322 60.584"/>
  <path stroke-width="0.131" stroke-linejoin="round" d="M78.433 54.38C78.433 54.578 78.778 55.255 79.322 55.451C79.867 55.651 79.95 55.667 80.016 55.651"/>
  <path stroke-width="0.131" stroke-linejoin="round" d="M79.686 54.973L80.066 54.396L79.885 54.247L79.751 54.445L79.603 54.314L79.736 54.165L79.356 53.884"/>
  <path stroke-width="0.131" stroke-linejoin="round" d="M79.075 54.38L79.125 54.545L79.67 54.924C79.67 54.924 80.033 55.006 80.114 54.924"/>
  <path stroke-width="0.131" stroke-linejoin="round" d="M80.066 54.347L80.412 54.347"/>
  <path stroke-width="0.131" stroke-linejoin="round" d="M79.769 54.115L80.132 54.017"/>
  <path stroke-width="0.131" stroke-linejoin="round" d="M79.933 54.215L80.296 54.131"/>
  <path stroke-width="0.25" stroke-linejoin="round" d="M78.614 56.161C78.73 56.343 79.093 57.136 78.796 57.779"/>
  <path stroke-width="0.131" stroke-linejoin="round" d="M86.6 56.841L86.775 57.344"/>
  <path stroke-width="0.131" stroke-linejoin="round" d="M85.971 57.018L86.147 57.521"/>
  <path stroke-width="0.131" stroke-linejoin="round" d="M85.319 57.369L85.545 57.923"/>
  <path stroke-width="0.131" stroke-linejoin="round" d="M84.865 57.771L85.067 58.173"/>
  <path stroke-width="0.131" stroke-linejoin="round" d="M84.489 58.098L84.74 58.576"/>
  <path stroke-width="0.131" stroke-linejoin="round" d="M84.112 58.601L84.388 59.128"/>
  <path stroke-width="0.131" stroke-linejoin="round" d="M83.76 58.5L84.138 59.38L84.263 60.058L84.338 60.512"/>
  <path stroke-width="0.25" stroke-linejoin="round" d="M93.587 47.042C93.134 47.143 92.305 47.343 91.501 48.273"/>
  <path stroke-width="0.131" stroke-linejoin="round" d="M89.766 46.011C89.716 46.313 89.867 46.942 90.772 47.042C91.677 47.143 91.742 46.67 91.786 46.479"/>
  <path stroke-width="0.131" stroke-linejoin="round" d="M90.343 45.625L90.269 45.936L90.721 46.387L91.501 46.237"/>
  <path stroke-width="0.131" stroke-linejoin="round" d="M90.445 45.408L91.45 45.659"/>
  <path stroke-width="0.131" stroke-linejoin="round" d="M90.721 46.387L90.871 45.886L91.4 45.81"/>
  <path stroke-width="0.131" stroke-linejoin="round" d="M90.871 45.886L90.396 45.533"/>
  <path stroke-width="0.131" stroke-linejoin="round" d="M90.671 47.921L91.2 48.374"/>
  <path stroke-width="0.131" stroke-linejoin="round" d="M91.701 46.765L91.299 47.746"/>
  <path stroke-width="0.131" stroke-linejoin="round" d="M85.695 61.594C85.671 61.444 85.545 61.042 86.248 60.64C86.953 60.237 87.305 60.615 87.379 60.79"/>
  <path stroke-width="0.25" stroke-linejoin="round" d="M69.537 58.204C69.486 57.726 68.884 56.847 68.884 56.847L68.388 56.491L68.073 55.835L68.046 55.465"/>
  <path stroke-width="0.131" stroke-linejoin="round" d="M68.557 54.71C68.531 54.936 68.884 55.414 69.335 55.515C69.789 55.615 70.34 55.515 70.417 55.414"/>
  <path stroke-width="0.131" stroke-linejoin="round" d="M68.933 54.459L69.209 54.862L69.864 54.962L70.24 54.659"/>
  <path stroke-width="0.131" stroke-linejoin="round" d="M69.236 53.932L70.165 54.384"/>
  <path stroke-width="0.131" stroke-linejoin="round" d="M70.316 54.207L69.385 53.831"/>
  <path stroke-width="0.25" stroke-linejoin="round" d="M83.301 41.234C83.513 41.447 83.903 42.228 83.974 43.043C84.046 43.859 84.436 47.301 84.507 47.868C84.578 48.436 84.471 49.11 84.471 49.11"/>
  <path stroke-width="0.131" stroke-linejoin="round" id="AUTOID_18471" itedo:apstype="grobject" extra:BBAccumRotation="0.667945" d="M78.656 56.32C78.641 56.301 78.626 56.28 78.608 56.259C77.861 55.31 76.168 55.398 74.828 56.454C73.753 57.302 73.231 58.518 73.454 59.456"/>
  <path stroke-width="0.131" stroke-linejoin="round" id="AUTOID_18472" itedo:apstype="grobject" extra:BBAccumRotation="0.667945" d="M74.887 59.982C74.393 59.682 74.236 59.109 74.236 59.109C74.066 58.399 74.462 57.478 75.277 56.835C76.293 56.033 77.575 55.968 78.141 56.688C78.141 56.688 78.356 57.042 78.304 57.305"/>
  <path stroke-width="0.131" stroke-linejoin="round" id="AUTOID_18473" itedo:apstype="grobject" extra:BBAccumRotation="0.542925" d="M77.34 54.826C76.777 53.893 75.248 53.784 73.924 54.582C72.599 55.381 72.051 56.814 72.614 57.746L72.896 58.238"/>
  <path stroke-width="0.131" stroke-linejoin="round" id="AUTOID_18474" itedo:apstype="grobject" extra:BBAccumRotation="0.563242" d="M77.498 55.143C76.763 54.698 75.59 54.786 74.558 55.439C73.465 56.13 72.79 57.287 72.939 58.188"/>
  <path stroke-width="0.131" stroke-linejoin="round" d="M92.578 96.768L92.554 97.099"/>
  <path stroke-width="0.131" stroke-linejoin="round" d="M91.322 96.459L91.298 96.838"/>
  <path stroke-width="0.131" stroke-linejoin="round" d="M90.019 96.365L90.019 96.697"/>
  <path stroke-width="0.131" stroke-linejoin="round" d="M88.739 96.388L88.739 96.743"/>
  <path stroke-width="0.131" stroke-linejoin="round" d="M87.438 96.555L87.438 96.909"/>
  <path stroke-width="0.131" stroke-linejoin="round" d="M79.001 41.798C79.2 41.63 80.352 41.582 80.536 43.485C80.718 45.387 80.98 50.405 81.025 50.987C81.072 51.57 80.751 52.996 80.013 52.89"/>
  <path stroke-width="0.501" stroke-linejoin="round" d="M78.28 46.509C78.28 46.509 79.891 46.279 79.951 46.279"/>
  <path stroke-width="0.501" stroke-linejoin="round" d="M78.019 47.521C78.019 47.521 79.323 47.322 79.661 47.351"/>
  <path stroke-width="0.501" stroke-linejoin="round" d="M78.787 51.895L80.243 51.939"/>
  <path stroke-width="0.501" stroke-linejoin="round" d="M78.602 42.228L79.353 42.259"/>
  <path stroke-width="0.25" stroke-linejoin="round" id="AUTOID_18485" itedo:apstype="grobject" extra:BBAccumRotation="0.068297" d="M79.766 47.343C80.168 47.316 80.563 48.335 80.652 49.619C80.739 50.905 80.486 51.969 80.084 51.996"/>
  <path stroke-width="0.25" stroke-linejoin="round" id="AUTOID_18486" itedo:apstype="grobject" extra:BBAccumRotation="0.095428" d="M79.4 42.167C79.768 42.133 80.155 43.055 80.268 44.228C80.379 45.402 80.174 46.381 79.807 46.417"/>
  <path stroke-width="0.131" stroke-linejoin="round" d="M94.472 46.682L94.436 46.253"/>
  <path stroke-width="0.131" stroke-linejoin="round" d="M93.849 46.593L93.795 46.201"/>
  <path stroke-width="0.131" stroke-linejoin="round" d="M93.242 46.7L93.188 46.218"/>
  <path stroke-width="0.131" stroke-linejoin="round" d="M92.635 46.86L92.599 46.36"/>
  <path stroke-width="0.131" stroke-linejoin="round" d="M92.171 47.093L92.135 46.664"/>
  <path stroke-width="0.201" stroke-linejoin="round" d="M90.834 53.462L92.956 49.893C93.094 49.679 93.257 48.972 93.945 49.317L94.325 49.497"/>
  <path stroke-width="0.131" stroke-linejoin="round" d="M95.579 52.32L94.51 54.228"/>
  <path stroke-width="0.131" stroke-linejoin="round" d="M93.688 48.609C93.688 48.609 93.063 48.146 92.546 48.18C92.028 48.216 91.548 48.305 91.548 48.305"/>
  <path stroke-width="0.131" stroke-linejoin="round" d="M93.528 47.609C93.528 47.609 93.313 47.271 93.063 47.271"/>
  <path stroke-width="0.131" stroke-linejoin="round" d="M91.102 50.304C91.102 50.304 91.28 49.697 91.637 49.448C91.993 49.198 92.367 48.591 92.885 48.627C93.403 48.662 93.849 48.734 93.992 48.859"/>
  <path stroke-width="0.131" stroke-linejoin="round" d="M91.037 40.185C91.037 40.185 91.819 40.231 92.188 40.968C92.555 41.704 93.591 44.466 93.591 44.466"/>
  <path stroke-width="0.131" stroke-linejoin="round" d="M96.17 44.396C96.17 44.396 96.859 44.328 96.974 44.051"/>
  <path stroke-width="0.131" stroke-linejoin="round" d="M93.155 45.731L93.661 44.902"/>
  <path stroke-width="0.131" stroke-linejoin="round" d="M94.305 44.719L94.95 44.627"/>
  <path stroke-width="0.131" stroke-linejoin="round" d="M107.698 50.518L107.629 49.621L108.733 49.436"/>
  <path stroke-width="0.131" stroke-linejoin="round" d="M107.629 49.621L107.078 49.529L107.063 49.851"/>
  <path stroke-width="0.201" stroke-linejoin="round" d="M104.936 42.417L105.397 42.511C105.397 42.511 106.317 42.003 107.007 43.982C107.698 45.963 107.884 49 107.376 49.345"/>
  <path stroke-width="0.201" stroke-linejoin="round" d="M105.972 42.118C105.972 42.118 107.676 41.935 108.159 44.237C108.643 46.537 108.965 47.665 108.435 49.368"/>
  <path stroke-width="0.131" stroke-linejoin="round" d="M92.51 40.002C92.649 40.002 93.177 39.932 93.177 39.932C93.177 39.932 94.397 39.841 95.501 43.223C96.605 46.606 96.835 47.457 96.674 50.841L96.421 50.863"/>
  <path stroke-width="0.131" stroke-linejoin="round" d="M95.709 50.058C95.709 50.058 95.915 49.276 95.662 47.274C95.409 45.271 94.673 43.96 93.983 42.118C93.293 40.277 92.269 40.005 92.141 39.956"/>
  <path stroke-width="0.501" stroke-linejoin="round" d="M94.215 48.539C94.215 48.539 94.835 48.171 95.504 48.011"/>
  <path stroke-width="0.501" stroke-linejoin="round" d="M96.853 47.707C96.853 47.707 98.219 47.067 99.784 46.929C101.349 46.79 104.248 46.537 104.87 46.331C105.492 46.124 107.188 45.445 107.188 45.445"/>
  <path stroke-width="0.501" stroke-linejoin="round" d="M93.983 48.746L95.552 48.526"/>
  <path stroke-width="0.501" stroke-linejoin="round" d="M96.902 48.189C96.902 48.189 100.358 47.549 101.349 47.32C102.337 47.09 107.233 45.874 107.233 45.874"/>
  <path stroke-width="0.501" stroke-linejoin="round" d="M114.296 45.692C114.296 45.692 109.245 48.347 108.878 48.485"/>
  <path stroke-width="0.501" stroke-linejoin="round" d="M108.659 45.512L111.397 44.335"/>
  <path stroke-width="0.501" stroke-linejoin="round" d="M108.591 44.991L110.695 44.018"/>
  <path stroke-width="0.25" stroke-linejoin="round" d="M119.367 42.878C119.367 42.878 121.093 41.82 121.415 40.692C121.737 39.564 121.599 38.438 121.599 38.438L121.576 38.253"/>
  <path stroke-width="0.25" stroke-linejoin="round" d="M115.615 34.825L116.95 34.917L117.088 34.732C117.088 34.732 117.941 34.939 118.4 34.963C118.861 34.985 118.837 35.054 118.837 35.054"/>
  <path stroke-width="0.131" stroke-linejoin="round" d="M90.835 40.587C91.212 40.554 91.936 40.68 92.094 41.814C92.251 42.945 92.251 43.826 92.063 43.953"/>
  <path stroke-width="0.501" stroke-linejoin="round" d="M91.707 44.061L91.875 44.015"/>
  <path stroke-width="0.131" stroke-linejoin="round" d="M63.649 57.548C63.393 56.634 64.106 55.75 65.563 55.265C67.018 54.78 67.846 55.692 67.989 55.807"/>
  <path stroke-width="0.131" stroke-linejoin="round" d="M64.334 58.917C64.25 58.375 64.531 56.792 66.676 56.35C67.503 56.177 68.388 56.491 68.388 56.491"/>
  <path stroke-width="0.131" stroke-linejoin="round" d="M65.79 59.832C65.757 59.655 65.677 58.548 67.075 58.091C68.474 57.634 68.93 58.747 69.045 58.89"/>
  <path stroke-width="0.131" stroke-linejoin="round" d="M64.591 59.889C64.563 59.661 64.734 58.091 66.475 57.35C68.216 56.607 69.471 57.493 69.444 58.433"/>
  <path stroke-width="0.131" stroke-linejoin="round" d="M69.272 54.896L69.444 54.381L70.072 54.439L69.929 54.923"/>
  <path stroke-width="0.131" stroke-linejoin="round" d="M69.444 54.381L69.159 53.954"/>
  <path stroke-width="0.131" stroke-linejoin="round" d="M17.774 53.743L62.704 52.954"/>
  <path stroke-width="0.131" stroke-linejoin="round" d="M67.325 52.954L69.453 52.832"/>
  <path stroke-width="0.131" stroke-linejoin="round" d="M84.105 52.71L90.974 52.71"/>
  <path stroke-width="0.131" stroke-linejoin="round" d="M76.188 53.103L80.944 53.258"/>
  <path stroke-width="0.131" stroke-linejoin="round" d="M37.167 76.969C37.167 76.969 52.854 77.152 53.524 77.09C54.192 77.031 54.375 76.787 54.496 76.18"/>
  <path stroke-width="0.131" stroke-linejoin="round" d="M59.725 75.632C59.868 75.852 60.271 77.152 60.819 77.152L66.899 77.031"/>
  <path stroke-width="0.131" stroke-linejoin="round" d="M69.453 77.031L74.072 76.909"/>
  <path stroke-width="0.131" stroke-linejoin="round" d="M82.159 76.909L84.653 76.909"/>
  <path stroke-width="0.131" stroke-linejoin="round" d="M100.885 99.951C101.189 99.951 101.493 100.376 101.615 102.019C101.736 103.659 101.676 107.004 101.676 107.004"/>
  <path stroke-width="0.25" stroke-linejoin="round" d="M93.59 104.572L95.78 107.004"/>
  <path stroke-width="0.131" stroke-linejoin="round" d="M0.325 62.985C0.325 62.985 5.371 62.804 7.802 63.167C10.234 63.533 12.24 63.898 13.76 65.721C15.281 67.546 17.227 71.802 17.469 72.713"/>
  <path stroke-width="0.131" stroke-linejoin="round" d="M13.092 73.138L17.347 73.808"/>
  <path stroke-width="0.25" stroke-linejoin="round" d="M0.325 74.415L3.669 74.659L10.112 77.031L11.329 78.367L12.085 76.525"/>
  <path stroke-width="0.131" stroke-linejoin="round" d="M18.382 83.536C18.504 81.59 21.178 80.557 23.914 81.287C26.65 82.016 30.115 83.84 30.115 83.84"/>
  <path stroke-width="0.131" stroke-linejoin="round" d="M37.622 79.974L37.472 81.954L37.729 82.43"/>
  <path stroke-width="0.131" stroke-linejoin="round" d="M18.989 85.117C19.658 84.629 24.4 83.353 30.42 87.365C36.439 91.379 37.411 94.722 37.289 96.304"/>
  <path stroke-width="0.131" stroke-linejoin="round" d="M17.227 87.792C18.138 87.487 23.245 85.481 29.873 91.135C36.5 96.79 34.918 100.013 34.918 100.013"/>
  <path stroke-width="0.131" stroke-linejoin="round" d="M19.963 84.751C21.3 83.718 21.239 83.658 22.394 83.474C23.55 83.293 28.414 83.474 33.155 86.879C37.898 90.284 38.241 93.34 37.584 95.246"/>
  <path stroke-width="0.131" stroke-linejoin="round" d="M7.376 98.614C7.376 98.614 9.747 96.668 14.247 98.006C18.746 99.343 24.097 104.269 25.8 106.944"/>
  <path stroke-width="0.131" stroke-linejoin="round" d="M5.552 102.019C5.552 102.019 7.802 100.924 13.032 103.234C18.26 105.546 18.928 106.882 18.928 106.882"/>
  <path stroke-width="0.131" stroke-linejoin="round" d="M9.08 97.885C9.08 97.885 9.566 94.418 12.91 94.114L13.579 93.629C13.579 93.629 17.713 92.899 23.306 97.641C28.849 102.34 29.387 106.518 29.446 106.76"/>
  <path stroke-width="0.131" stroke-linejoin="round" d="M8.836 94.296C10.355 92.899 15.653 90.536 22.333 96.12C26.407 99.525 28.231 103.234 28.231 103.234"/>
  <path stroke-width="0.131" stroke-linejoin="round" d="M21.847 95.695C21.847 95.695 24.582 96.608 25.556 96.971C26.528 97.337 27.234 97.805 27.198 98.736C27.164 99.581 26.528 99.525 25.859 99.221"/>
  <path stroke-width="0.131" stroke-linejoin="round" d="M27.824 97.316C27.824 97.316 28.681 97.378 28.844 96.664C29.007 95.95 28.701 95.236 28.111 95.054C27.518 94.87 25.969 94.156 25.379 94.034C24.788 93.912 24.44 94.034 24.053 94.361C23.728 94.635 23.381 95.257 24.175 95.522C24.971 95.787 25.949 96.236 26.643 96.501C27.335 96.766 27.905 97.399 27.702 98.091C27.498 98.784 27.498 98.519 27.437 98.683C27.376 98.846 27.091 99.171 27.091 99.171"/>
  <path stroke-width="0.131" stroke-linejoin="round" d="M32.371 103.638C32.512 102.861 32.316 100.899 31.371 99.335C30.251 97.48 29.353 96.563 29.353 96.563"/>
  <path stroke-width="0.131" stroke-linejoin="round" d="M32.234 82.885C34.14 84.189 35.67 85.766 36.35 87.209"/>
  <path stroke-width="0.131" stroke-linejoin="round" d="M21.064 80.454C21.064 80.454 24.422 79.42 28.353 80.867C28.42 80.893 28.487 80.918 28.554 80.944"/>
  <path stroke-width="0.131" stroke-linejoin="round" d="M21.045 79.316L21.492 78.73C21.492 78.73 21.597 77.144 21.734 76.868"/>
  <path stroke-width="0.131" stroke-linejoin="round" d="M19.873 78.524L21.182 78.524"/>
  <path stroke-width="0.25" stroke-linejoin="round" d="M19.675 77.197C19.701 76.938 20.012 76.697 20.39 76.697C20.769 76.697 21.217 76.903 21.217 76.593"/>
  <path stroke-width="0.25" stroke-linejoin="round" d="M11.843 73.01L12.912 73.078L13.221 73.287L13.634 73.39L13.877 73.871C13.877 73.871 14.083 73.871 14.256 73.906C14.428 73.941 14.772 73.941 14.704 74.871C14.634 75.802 14.186 75.837 14.186 75.837L13.6 75.906L13.291 76.147L12.807 76.388L11.429 76.456"/>
  <path stroke-width="0.131" stroke-linejoin="round" d="M11.497 73.149L11.085 73.975L10.98 75.768L11.291 76.423"/>
  <path stroke-width="0.131" stroke-linejoin="round" d="M10.98 75.768L12.085 75.768L12.532 75.353L12.635 74.561L12.085 74.01L11.085 73.975"/>
  <path stroke-width="0.131" stroke-linejoin="round" d="M12.085 74.01L12.705 73.871L12.912 73.492L12.807 73.078"/>
  <path stroke-width="0.131" stroke-linejoin="round" d="M12.085 75.768L12.497 75.768L12.807 76.388"/>
  <path stroke-width="0.131" stroke-linejoin="round" d="M13.669 73.596C13.429 73.528 13.153 74.457 13.186 74.941C13.221 75.424 13.221 75.906 13.359 75.974"/>
  <path stroke-width="0.131" stroke-linejoin="round" d="M13.118 73.424C12.912 73.492 12.774 74.218 12.774 74.7C12.774 75.182 12.705 76.112 13.05 76.147"/>
  <path stroke-width="0.131" stroke-linejoin="round" d="M14.462 74.114C14.359 74.147 14.153 74.459 14.186 74.837C14.221 75.216 14.221 75.733 14.359 75.733"/>
  <path stroke-width="0.131" stroke-linejoin="round" d="M13.877 73.871C13.705 73.906 13.394 74.388 13.429 74.837C13.462 75.286 13.429 75.768 13.634 75.802"/>
  <path stroke-width="0.131" stroke-linejoin="round" d="M19.065 55.613C19.065 55.613 23.306 60.31 24.948 62.225C26.588 64.141 27.865 65.189 28.14 65.646C28.413 66.102 29.873 67.516 30.464 67.971C31.057 68.427 31.742 69.338 32.472 69.612C33.201 69.885 35.161 71.209 35.573 72.302"/>
  <path stroke-width="0.131" stroke-linejoin="round" d="M43.597 58.942L47.155 64.186"/>
  <path stroke-width="0.131" stroke-linejoin="round" d="M43.689 60.265C43.871 60.366 44.235 61.039 43.78 61.039C43.323 61.039 36.119 61.176 36.119 61.176"/>
  <path stroke-width="0.131" stroke-linejoin="round" d="M34.706 60.539L43.095 60.765"/>
  <path stroke-width="0.131" stroke-linejoin="round" d="M44.191 64.778C44.191 64.778 44.509 64.778 44.509 65.144C44.509 65.509 44.372 65.462 44.054 65.462C43.734 65.462 37.259 65.599 37.259 65.599"/>
  <path stroke-width="0.131" stroke-linejoin="round" d="M35.664 64.459L43.963 65.144"/>
  <path stroke-width="0.131" stroke-linejoin="round" d="M27.272 63.685C27.272 63.685 28.364 63.125 28.676 62.372C28.989 61.613 29.512 59.981 31.013 59.534C32.189 59.185 33.246 59.307 33.475 59.353"/>
  <path stroke-width="0.131" stroke-linejoin="round" d="M36.256 61.542C36.256 61.542 37.076 62.636 37.167 63.503"/>
  <path stroke-width="0.131" stroke-linejoin="round" d="M37.122 65.92C37.122 65.92 36.985 67.15 36.848 67.561"/>
  <path stroke-width="0.131" stroke-linejoin="round" d="M36.804 67.926L39.265 67.879"/>
  <path stroke-width="0.131" stroke-linejoin="round" d="M57.368 63.274L57.506 62.134C57.506 62.134 57.597 61.905 58.417 61.905C59.237 61.905 66.397 61.951 66.397 61.951"/>
  <path stroke-width="0.131" stroke-linejoin="round" d="M70.912 61.905L75.653 61.86"/>
  <path stroke-width="0.131" stroke-linejoin="round" d="M81.081 61.723L82.631 61.679"/>
  <path stroke-width="0.131" stroke-linejoin="round" d="M88.149 61.588L96.355 61.542"/>
  <path stroke-width="0.25" stroke-linejoin="round" d="M119.201 57.027C118.837 57.756 117.468 61.268 117.287 61.633"/>
  <path stroke-width="0.25" stroke-linejoin="round" d="M116.51 63.411C116.236 63.822 115.325 64.643 114.14 64.778C112.953 64.915 108.896 65.007 108.075 65.007C107.254 65.007 105.019 64.049 104.518 63C104.016 61.951 103.561 60.63 103.561 60.63"/>
  <path stroke-width="0.201" stroke-linejoin="round" d="M96.721 63.182L89.197 63.182"/>
  <path stroke-width="0.201" stroke-linejoin="round" d="M86.323 63.228L82.129 63.274"/>
  <path stroke-width="0.201" stroke-linejoin="round" d="M76.246 63.411L71.823 63.365"/>
  <path stroke-width="0.201" stroke-linejoin="round" d="M66.899 63.457L58.006 63.503"/>
  <path stroke-width="0.131" stroke-linejoin="round" d="M121.56 37.283C121.602 37.069 123.224 36.856 124.847 36.77C126.471 36.685 127.923 37.154 127.879 37.325"/>
  <path stroke-width="0.131" stroke-linejoin="round" d="M121.516 27.675C121.73 27.547 123.908 27.419 125.018 27.419C126.129 27.419 128.306 27.332 128.348 27.76"/>
  <path stroke-width="0.131" stroke-linejoin="round" d="M116.777 25.71C116.777 25.71 116.734 25.368 117.161 25.283C117.587 25.198 119.296 24.984 119.296 24.984L119.456 25.44"/>
  <path stroke-width="0.131" stroke-linejoin="round" d="M121.944 25.625C122.414 25.368 123.736 24.856 125.275 24.942C126.811 25.027 127.751 25.411 127.879 25.539C128.008 25.667 127.923 26.222 127.923 26.222"/>
  <path stroke-width="0.131" stroke-linejoin="round" d="M112.03 25.333L112.123 25.027L113.189 24.643"/>
  <path stroke-width="0.131" stroke-linejoin="round" d="M139.188 15.38C137.365 15.016 125.935 12.34 124.902 12.096C123.867 11.853 119.004 11.246 115.112 13.859C111.221 16.475 108.668 17.934 102.102 17.69L96.829 17.611"/>
  <path stroke-width="0.131" stroke-linejoin="round" d="M104.129 59.293C104.191 59.969 104.468 60.585 104.965 61.033"/>
  <path stroke-width="0.131" stroke-linejoin="round" d="M109.902 55.56C108.679 54.456 106.579 54.786 105.216 56.298C104.876 56.676 104.612 57.093 104.43 57.521"/>
  <path stroke-width="0.25" stroke-linejoin="round" d="M110.043 59.792C111.021 58.343 110.995 56.545 109.902 55.56"/>
  <path stroke-width="0.25" stroke-linejoin="round" d="M104.965 61.033C105.87 61.85 107.254 61.881 108.465 61.231"/>
  <path stroke-width="0.131" stroke-linejoin="round" d="M109.24 53.6C109.24 53.6 109.938 53.579 110.221 53.643"/>
  <path stroke-width="0.131" stroke-linejoin="round" d="M113.006 55.482L112.403 54.887"/>
  <path stroke-width="0.131" stroke-linejoin="round" d="M46.152 29.44C46.152 29.44 48.887 29.12 49.753 28.346C50.619 27.57 51.076 27.388 51.076 27.388"/>
  <path stroke-width="0.131" stroke-linejoin="round" d="M52.399 27.16C52.399 27.16 76.793 26.75 77.204 26.704C77.614 26.658 79.757 26.704 81.034 27.661"/>
  <path stroke-width="0.131" stroke-linejoin="round" d="M85.504 30.853C84.911 30.853 83.496 30.945 82.037 30.489C80.578 30.033 79.393 29.393 77.661 29.393C75.927 29.393 55.231 29.621 54.359 29.621C53.082 29.621 51.35 30.352 50.575 30.716C49.799 31.082 48.34 31.355 46.106 31.355"/>
  <path stroke-width="0.131" stroke-linejoin="round" d="M86.597 30.533C87.009 30.123 87.6 28.39 87.463 27.341C87.328 26.292 86.37 21.643 86.37 21.643"/>
  <path stroke-width="0.131" stroke-linejoin="round" d="M91.704 30.443C91.704 30.443 92.662 30.533 92.844 30.077C93.028 29.621 93.209 28.117 93.209 28.117"/>
  <path stroke-width="0.131" stroke-linejoin="round" d="M45.421 31.582C45.421 31.582 43.826 30.762 43.414 30.214C43.005 29.667 42.96 28.437 43.095 27.341C43.232 26.248 43.826 23.102 43.826 23.102"/>
  <path stroke-width="0.131" stroke-linejoin="round" d="M94.507 27.82L94.569 27.39L95.95 26.652L96.35 26.682C96.35 26.682 96.75 25.762 98.378 25.731C100.006 25.701 99.299 24.225 100.496 24.503L100.774 24.594"/>
  <path stroke-width="0.25" stroke-linejoin="round" d="M104.98 28.096L101.756 27.789"/>
  <path stroke-width="0.131" stroke-linejoin="round" d="M38.055 34.698C38.363 35.006 39.652 36.326 40.759 35.558"/>
  <path stroke-width="0.131" stroke-linejoin="round" d="M91.956 17.8C91.956 17.8 78.093 17.894 74.024 17.847C69.954 17.8 56.328 18.036 56.328 18.036"/>
  <path stroke-width="0.131" stroke-linejoin="round" d="M51.689 18.132C51.689 18.132 43.457 18.321 39.719 18.416C35.981 18.51 30.681 17.705 25.666 14.394C20.65 11.082 20.225 10.75 16.96 10.608C13.695 10.465 11.282 10.609 10.855 10.656C10.429 10.702 9.199 11.176 8.774 11.506C8.349 11.839 0.068 18.699 0.068 18.699"/>
  <path stroke-width="0.131" stroke-linejoin="round" d="M114.96 23.815L117.665 23.452C117.665 23.452 121.459 23.146 122.016 23.117C122.575 23.091 124.75 22.978 124.75 22.978L125.308 23.007L125.141 23.481L126.033 23.647L126.841 23.481L128.794 23.091L128.794 22.615C128.794 22.615 130.663 22.254 130.997 22.114C131.331 21.975 132.001 21.64 131.694 20.161"/>
  <path stroke-width="0.131" stroke-linejoin="round" d="M117.275 21.919C117.275 21.919 123.355 21.862 124.442 21.611C125.531 21.361 126.004 21.25 126.004 21.25"/>
  <path stroke-width="0.131" stroke-linejoin="round" d="M115.658 21.64C115.658 21.64 115.519 23.035 115.602 23.035C115.686 23.035 117.052 23.007 117.052 23.007L117.137 21.667"/>
  <path stroke-width="0.131" stroke-linejoin="round" d="M113.817 22.699C113.817 22.699 111.864 22.643 111.474 22.951C111.084 23.257 110.89 23.452 110.89 23.452C110.89 23.452 110.582 24.205 111.195 24.541C111.81 24.875 112.117 25.153 112.117 25.153"/>
  <path stroke-width="0.131" stroke-linejoin="round" d="M125.921 21.361L126.061 20.943L128.348 20.161L128.933 19.519C128.933 19.519 130.691 19.437 130.801 19.464"/>
  <path stroke-width="0.201" stroke-linejoin="round" d="M39.238 81.605C39.238 81.605 48.633 80.843 51.107 80.716C53.584 80.59 61.073 80.337 61.073 80.337"/>
  <path stroke-width="0.201" stroke-linejoin="round" d="M70.085 80.337C70.085 80.337 75.798 80.59 76.939 80.653"/>
  <path stroke-width="0.201" stroke-linejoin="round" d="M82.843 81.034C82.843 81.034 91.728 81.605 97.314 82.685"/>
  <path stroke-width="0.131" stroke-linejoin="round" d="M38.54 88.905C38.54 88.905 50.664 89.096 52.695 89.159C54.725 89.221 62.659 89.286 62.659 89.286"/>
  <path stroke-width="0.131" stroke-linejoin="round" d="M67.99 89.159C67.99 89.159 73.957 88.905 75.164 88.84"/>
  <path stroke-width="0.131" stroke-linejoin="round" d="M82.209 88.587L85.509 88.46"/>
  <path stroke-width="0.131" stroke-linejoin="round" d="M117.561 79.766L117.561 76.212L101.007 76.727"/>
  <path stroke-width="0.131" stroke-linejoin="round" d="M37.365 78.168C37.365 78.168 59.2 78.069 60.704 78.069C62.207 78.069 66.138 77.924 66.138 77.924"/>
  <path stroke-width="0.131" stroke-linejoin="round" d="M69.582 77.924L77.492 77.972"/>
  <path stroke-width="0.131" stroke-linejoin="round" d="M82.439 77.972L85.789 77.924"/>
  <path stroke-width="0.131" stroke-linejoin="round" d="M108.156 77.876L117.423 77.487"/>
  <path stroke-width="0.131" stroke-linejoin="round" d="M54.639 77.245L59.878 77.343"/>
  <path stroke-width="0.131" stroke-linejoin="round" d="M82.003 85.718L89.766 85.784"/>
  <path stroke-width="0.131" stroke-linejoin="round" d="M68.661 85.605L76.665 85.673"/>
  <path stroke-width="0.131" stroke-linejoin="round" d="M38.045 85.347L63.518 85.563"/>
  <path stroke-width="0.501" stroke-linejoin="round" d="M86.081 72.013L85.534 71.102"/>
  <path stroke-width="0.25" stroke-linejoin="round" d="M90.853 72.135C90.733 71.862 91.019 71.387 91.522 71.162C92.069 70.92 92.709 71.102 92.799 71.284"/>
  <path stroke-width="0.25" stroke-linejoin="round" d="M82.493 70.463C82.798 70.221 84.743 70.129 85.26 70.768C85.777 71.406 85.563 71.192 85.563 71.192"/>
  <path stroke-width="0.25" stroke-linejoin="round" d="M63.817 73.885C63.817 73.438 64.206 73.076 64.685 73.076C65.164 73.076 65.552 73.438 65.552 73.885C65.552 74.332 65.164 74.694 64.685 74.694C64.206 74.694 63.817 74.332 63.817 73.885z"/>
  <path stroke="#FFFFFF" stroke-width="0.501" id="AUTOID_18630" itedo:apstype="grobject" extra:BBAccumRotation="1.756901" d="M67.212 80.704L78.454 110.075"/>
  <path stroke-width="0.131" id="AUTOID_18631" itedo:apstype="grobject" extra:BBAccumRotation="1.756901" d="M67.212 80.704L78.454 110.075"/>
  <path stroke="#FFFFFF" stroke-width="0.501" id="AUTOID_18632" itedo:apstype="grobject" extra:BBAccumRotation="1.509843" d="M77.385 93.638L79.438 109.329"/>
  <path stroke-width="0.131" id="AUTOID_18633" itedo:apstype="grobject" extra:BBAccumRotation="1.509843" d="M77.385 93.638L79.438 109.329"/>
  <g>
   <g>
    <g>
     <g>
      <text x="119.143" y="115.718" stroke="none" fill="#000000" font-family="'Helvetica'" font-size="4.924">2</text>
     </g>
    </g>
   </g>
  </g>
  <path stroke="#FFFFFF" stroke-width="0.501" id="AUTOID_18639" itedo:apstype="grobject" extra:BBAccumRotation="0.910650" d="M120.219 62.856L119.92 110.501"/>
  <path stroke-width="0.131" id="AUTOID_18640" itedo:apstype="grobject" extra:BBAccumRotation="0.910650" d="M120.219 62.856L119.92 110.501"/>
  <path stroke="#FFFFFF" stroke-width="0.501" id="AUTOID_18641" itedo:apstype="grobject" extra:BBAccumRotation="0.424966" d="M141.198 75.459L122.224 110.727"/>
  <path stroke-width="0.131" id="AUTOID_18642" itedo:apstype="grobject" extra:BBAccumRotation="0.424966" d="M141.198 75.459L122.224 110.727"/>
  <g>
   <g>
    <g>
     <g>
      <text x="78.164" y="115.718" stroke="none" fill="#000000" font-family="'Helvetica'" font-size="4.924">1</text>
     </g>
    </g>
   </g>
  </g>
  <path stroke-width="0.131" stroke-linejoin="round" d="M90.935 21.403L91.734 25.902"/>
  <path stroke-width="0.131" stroke-linejoin="round" d="M92.885 26.952C92.885 26.952 92.484 25.853 91.435 26.202C90.385 26.553 90.484 28.202 90.685 28.803"/>
  <path stroke-width="0.501" stroke-linejoin="round" d="M102.198 44.015C102.198 44.015 103.878 43.709 104.412 43.557C104.945 43.404 106.319 42.984 106.319 42.984"/>
  <path stroke-width="0.25" stroke-linejoin="round" d="M121.063 62.118C121.063 61.709 120.694 61.378 120.239 61.378C119.784 61.378 119.414 61.709 119.414 62.118C119.414 62.527 119.784 62.857 120.239 62.857C120.694 62.857 121.063 62.527 121.063 62.118z"/>
  <path stroke-width="0.131" stroke-linejoin="round" d="M126.96 55.213C126.96 55.213 125.504 55.093 125.165 56.258C124.825 57.421 125.237 58.125 126.015 58.587"/>
  <path stroke-width="0.131" stroke-linejoin="round" d="M126.353 56.088L126.912 57.228L127.98 57.35L128.586 56.451L128.223 55.432L127.058 55.213L126.403 55.966L126.039 56.548L126.549 57.689L127.277 57.811"/>
  <path stroke-width="0.131" stroke-linejoin="round" d="M128.393 55.844C128.393 55.844 128.901 56.329 128.95 56.96"/>
  <path stroke-width="0.131" stroke-linejoin="round" d="M126.549 57.689L126.912 57.228"/>
  <path stroke-width="0.131" stroke-linejoin="round" d="M124.534 63.804C124.534 63.804 125.504 64.168 125.893 64.896C126.281 65.623 126.185 66.28 126.185 66.28"/>
  <path stroke-width="0.131" stroke-linejoin="round" d="M122.082 65.26C122.082 65.26 121.986 65.793 122.082 66.037"/>
  <path stroke-width="0.131" stroke-linejoin="round" d="M123.03 64.896L122.98 65.939L123.296 66.109"/>
  <path stroke-width="0.131" stroke-linejoin="round" d="M123.2 64.799L123.344 65.527L124.462 66.109L125.48 65.527L125.408 64.605C125.408 64.605 124.873 64.022 124.486 63.901"/>
  <path stroke-width="0.131" stroke-linejoin="round" d="M122.98 65.939L123.344 65.527"/>
  <path stroke-width="0.131" stroke-linejoin="round" d="M125.48 65.527L125.165 66.134"/>
  <path stroke-width="0.201" stroke-linejoin="round" d="M94.894 51.494C94.706 51.819 94.227 51.893 93.829 51.659C93.429 51.426 93.259 50.975 93.447 50.652C93.637 50.328 94.114 50.253 94.513 50.487C94.912 50.719 95.084 51.17 94.894 51.494z"/>
  <path stroke-width="0.25" stroke-linejoin="round" d="M67.429 90.623C67.429 90.623 68.558 90.701 68.754 90.78C68.948 90.856 69.376 91.052 69.376 91.052L69.221 95.572"/>
  <path stroke-width="0.25" stroke-linejoin="round" d="M69.337 94.87L74.599 94.87"/>
  <path stroke-width="0.131" stroke-linejoin="round" d="M69.688 92.493L74.638 92.727"/>
  <path stroke="#FFFFFF" stroke-width="0.501" id="AUTOID_18666" itedo:apstype="grobject" extra:BBAccumRotation="1.148173" d="M89.816 76.739L80.923 108.873"/>
  <path stroke-width="0.131" id="AUTOID_18667" itedo:apstype="grobject" extra:BBAccumRotation="1.148173" d="M89.816 76.739L80.923 108.873"/>
  <path stroke="#FFFFFF" stroke-width="0.501" id="AUTOID_18668" itedo:apstype="grobject" extra:BBAccumRotation="0.918758" d="M106.075 59.155L81.825 110.03"/>
  <path stroke-width="0.131" id="AUTOID_18669" itedo:apstype="grobject" extra:BBAccumRotation="0.918758" d="M106.075 59.155L81.825 110.03"/>
  <path stroke-width="0.131" stroke-linejoin="round" d="M94.361 39.692C94.361 39.692 95.164 40.024 95.524 40.771C95.882 41.518 96.989 43.951 96.989 43.951"/>
 </g>
</svg>
