<?xml version="1.0" encoding="utf-8"?>
<!DOCTYPE svg PUBLIC "-//W3C//DTD SVG 1.1//EN" "http://www.w3.org/Graphics/SVG/1.1/DTD/svg11.dtd">
<!-- Generator: PTC Arbortext IsoDraw 7.3 -->
<svg width="100%" height="100%" viewBox="0 0 37.5 9.808"
 xmlns="http://www.w3.org/2000/svg" xmlns:xlink="http://www.w3.org/1999/xlink"
 fill-rule="evenodd" clip-rule="evenodd" stroke="#000000" stroke-linecap="round" fill="none" xml:space="preserve">
 <g id="frame">
  <g>
  </g>
 </g>
 <g id="Standard_x0020_layer">
  <g>
   <path stroke-width="0.3" d="M14.413 4.243L9.903 4.243"/>
   <path stroke-width="0.3" d="M14.413 5.184L9.903 5.184"/>
   <path stroke-width="0.3" d="M9.903 5.184L9.903 4.243"/>
   <path stroke-width="0.3" d="M9.903 5.052L7.907 5.052"/>
   <path stroke-width="0.3" d="M9.903 4.4L7.879 4.4"/>
   <path stroke-width="0.3" d="M14.413 4.721L14.413 6.117"/>
   <path stroke-width="0.3" d="M14.413 6.117L14.811 6.117"/>
   <path stroke-width="0.3" d="M14.811 6.117C14.91 6.516 15.31 6.615 16.108 6.615C16.905 6.615 17.902 6.117 18.4 6.117C18.899 6.117 20.993 6.216 21.492 6.516C21.99 6.814 29.37 7.014 31.263 6.814C33.158 6.615 33.957 6.716 33.957 5.02"/>
   <path stroke-width="0.3" d="M14.811 3.424C14.91 3.025 15.31 2.927 16.108 2.927C16.905 2.927 17.902 3.424 18.4 3.424C18.899 3.424 20.993 3.326 21.492 3.025C21.99 2.727 29.37 2.528 31.263 2.727C33.158 2.927 33.957 2.827 33.957 4.522"/>
   <path stroke-width="0.3" d="M14.413 4.721L14.413 3.326"/>
   <path stroke-width="0.3" d="M14.413 3.326L14.811 3.326"/>
   <path stroke-width="0.3" d="M33.957 5.02L33.957 4.522"/>
   <g>
    <path stroke-width="0.13" d="M23.301 5.117L23.899 5.117"/>
    <path stroke-width="0.13" d="M24.375 4.607L24.961 4.607"/>
    <path stroke-width="0.13" d="M26.167 4.706L26.71 4.706"/>
    <path stroke-width="0.13" d="M26.167 5.017L26.678 5.017"/>
    <path stroke-width="0.13" d="M26.457 5.56L26.498 5.458"/>
    <path stroke-width="0.13" d="M26.676 5.017L27.01 4.198"/>
    <path stroke-width="0.13" d="M27.01 4.198L27.785 4.198"/>
    <path stroke-width="0.13" d="M27.785 4.198L28.239 5.182"/>
    <path stroke-width="0.13" d="M28.239 5.182L28.239 4.176"/>
    <path stroke-width="0.13" d="M28.239 4.176L28.902 4.176"/>
    <path stroke-width="0.13" d="M28.902 4.176L29.489 4.895"/>
    <path stroke-width="0.13" d="M29.489 4.895L29.489 4.165"/>
    <path stroke-width="0.13" d="M29.489 4.165L30.009 4.165"/>
    <path stroke-width="0.13" d="M30.009 4.165L30.009 5.56"/>
    <path stroke-width="0.13" d="M26.457 5.56L27.013 5.56"/>
    <path stroke-width="0.13" d="M27.839 5.56L28.748 5.56"/>
    <path stroke-width="0.13" d="M29.367 5.56L30.009 5.56"/>
    <path stroke-width="0.13" d="M30.131 5.56L31.094 5.56"/>
    <path stroke-width="0.13" d="M32.002 5.56L32.511 5.56"/>
    <path stroke-width="0.13" d="M27.013 5.56L27.088 5.371"/>
    <path stroke-width="0.13" d="M27.239 4.996L27.429 4.519"/>
    <path stroke-width="0.13" d="M27.429 4.519L27.617 4.995"/>
    <path stroke-width="0.13" d="M27.765 5.371L27.839 5.56"/>
    <path stroke-width="0.13" d="M27.242 4.995L27.617 4.995"/>
    <path stroke-width="0.13" d="M27.088 5.371L27.772 5.371"/>
    <path stroke-width="0.13" d="M28.748 5.56L28.748 4.762"/>
    <path stroke-width="0.13" d="M28.748 4.762L29.367 5.56"/>
    <path stroke-width="0.13" d="M30.131 5.56L30.131 4.152"/>
    <path stroke-width="0.13" d="M30.131 4.152L30.661 4.152"/>
    <path stroke-width="0.13" d="M30.663 4.152L30.661 5.182"/>
    <path stroke-width="0.13" d="M30.663 5.182L31.128 4.152"/>
    <path stroke-width="0.13" d="M31.128 4.152L31.868 4.152"/>
    <path stroke-width="0.13" d="M31.868 4.152L32.511 5.56"/>
    <path stroke-width="0.13" d="M31.094 5.56L31.176 5.36"/>
    <path stroke-width="0.13" d="M31.318 5.017L31.513 4.541"/>
    <path stroke-width="0.13" d="M31.513 4.541L31.742 5.017"/>
    <path stroke-width="0.13" d="M31.902 5.36L32.012 5.581"/>
    <path stroke-width="0.13" d="M31.318 5.017L31.742 5.017"/>
    <path stroke-width="0.13" d="M31.176 5.36L31.902 5.36"/>
    <path stroke-width="0.13" d="M24.961 4.607C24.961 4.439 24.855 4.256 24.577 4.184C24.301 4.113 23.783 4.139 23.649 4.198C23.516 4.256 23.297 4.389 23.294 4.653C23.289 4.916 23.681 4.996 23.731 4.996C23.78 4.996 24.368 4.934 24.399 5.054C24.431 5.174 24.382 5.278 24.274 5.285C24.167 5.294 24.012 5.322 23.945 5.246C23.878 5.171 23.908 5.157 23.899 5.117"/>
    <path stroke-width="0.13" d="M23.301 5.117C23.28 5.322 23.37 5.514 23.593 5.572C23.815 5.629 24.341 5.647 24.559 5.575C24.778 5.504 24.978 5.371 25.05 5.211"/>
    <path stroke-width="0.13" d="M24.375 4.607C24.373 4.466 24.336 4.439 24.204 4.426C24.068 4.411 24.012 4.443 23.975 4.487C23.94 4.533 23.94 4.599 24.012 4.653C24.082 4.706 24.596 4.653 24.658 4.698"/>
    <path stroke-width="0.13" d="M25.05 5.211C25.158 5.411 25.327 5.549 25.564 5.594C25.8 5.639 26.332 5.613 26.498 5.458"/>
    <path stroke-width="0.13" d="M26.167 5.017C26.157 5.197 26.057 5.254 25.885 5.278C25.71 5.299 25.631 5.201 25.585 5.099C25.541 4.996 25.536 4.734 25.591 4.639C25.643 4.546 25.719 4.493 25.849 4.493C25.978 4.493 26.14 4.551 26.167 4.706"/>
    <path stroke-width="0.13" d="M26.71 4.706C26.687 4.474 26.571 4.328 26.309 4.206C26.045 4.086 25.515 4.126 25.39 4.248"/>
    <path stroke-width="0.13" d="M25.39 4.248C25.179 4.386 24.996 4.493 25.01 4.894"/>
    <path stroke-width="0.13" d="M24.658 4.698C24.827 4.737 25.006 4.817 25.01 4.894"/>
   </g>
   <path stroke-width="0.3" d="M9.903 5.052L9.903 5.184"/>
   <path stroke-width="0.3" d="M9.903 4.4L9.903 4.243"/>
  </g>
 </g>
 <g id="Picture#">
  <g>
   <text transform="matrix(0 -1 1 0 36.234 8.848)" stroke="none" fill="#000000" font-family="'Helvetica'" font-size="2.117">304 916</text>
  </g>
 </g>
</svg>
