<svg xmlns="http://www.w3.org/2000/svg" clip-rule="evenodd" fill="none" fill-rule="evenodd" stroke="#000000" stroke-linecap="round" viewBox="0 0 75.003 62.493" width="100%" height="100%" xmlns:xml="http://www.w3.org/XML/1998/namespace" xml:space="preserve">
 <g id="Standard_x0020_layer">
  <path stroke-linejoin="round" stroke-width="0.131" d="M 5.501 9.891 C 5.501 9.891 15.75 15.394 17.693 16.364 C 19.635 17.335 18.879 18.522 18.016 19.17 C 17.153 19.818 12.621 23.486 10.355 25.428 C 8.089 27.37 9.817 28.341 10.788 28.989 C 11.759 29.635 41.322 49.487 41.322 49.487 C 41.322 49.487 65.274 22.838 65.597 22.407 C 65.921 21.975 67 16.905 67 16.905" />
  <path stroke-linejoin="round" stroke-width="0.131" d="M 41.322 49.487 C 41.322 49.487 41.213 50.89 40.673 51.646 C 40.134 52.402 39.918 52.725 40.134 54.235 C 40.35 55.746 41.429 61.679 41.429 61.679" />
  <path stroke-linejoin="round" stroke-width="0.131" d="M 20.713 16.689 C 22.98 17.876 24.989 18.853 27.618 19.818 C 30.856 21.004 38.408 19.818 42.292 16.472 C 46.176 13.128 50.493 9.028 51.247 8.489 C 52.003 7.95 53.621 6.546 55.779 7.301 C 57.936 8.057 61.173 9.352 62.469 9.676 C 63.764 10 64.411 10.215 64.95 10.108" />
  <path stroke-linejoin="round" stroke-width="0.131" d="M 11.542 27.91 L 22.225 19.71 L 32.151 25.211 L 21.361 34.274 L 11.542 27.91 Z" />
  <path id="AUTOID_13219" fill="#b2b2b2" stroke="none" d="M 39.712 23.774 L 36.271 23.856 L 34.793 25.131 L 38.079 26.573 L 33.807 26.044 L 32.039 27.568 L 33.838 29.402 L 32.692 30.439 C 32.935 30.538 33.256 30.815 32.723 31.304 C 32.182 31.8 31.5 31.876 30.681 31.548 C 29.856 31.217 29.861 30.669 30.25 30.327 C 30.634 29.989 31.295 29.818 31.71 29.989 L 32.95 28.89 C 32.401 28.66 30.971 28.472 29.275 29.934 C 27.509 31.457 28.443 32.237 29.466 32.639 C 29.483 32.646 29.571 32.679 29.588 32.686 C 28.611 32.671 27.693 33.42 26.975 34.057 C 26.082 34.85 25.853 34.68 25.664 34.609 C 25.477 34.539 25.239 34.476 25.865 33.929 C 26.484 33.389 26.905 33.551 27.115 33.631 L 28.576 32.341 C 28.576 32.341 27.117 31.82 25.533 33.185 C 25.079 33.576 24.466 34.104 24.466 34.104 C 23.576 34.871 23.396 35.642 24.39 36.008 C 25.373 36.369 26.478 35.923 27.306 35.174 C 27.827 34.703 28.533 34.097 28.946 34.256 C 29.361 34.414 29.221 34.676 28.875 34.993 C 28.527 35.313 28.036 35.664 27.536 35.476 L 26.062 36.817 C 26.411 36.945 27.692 37.252 29.327 35.723 C 29.327 35.723 29.792 35.29 30.173 34.936 C 30.533 34.6 31.593 33.49 30.417 32.896 C 31.376 33.026 32.515 32.792 33.691 31.696 C 34.433 31.001 34.6 30.48 34.527 30.103 L 34.926 30.507 L 36.051 29.457 L 35.667 29.053 L 34.981 28.332 L 33.976 27.277 L 33.972 27.242 L 34.029 27.231 L 35.966 27.44 L 34.981 28.332 L 35.667 29.053 L 37.262 27.58 L 37.978 27.658 L 39.783 25.972 L 37.521 24.964 L 41.078 24.771 L 42.273 23.655 L 42.46 23.478 L 44.145 21.903 L 43.804 21.541 L 43.198 20.893 L 42.307 19.946 L 42.304 19.914 L 42.348 19.91 L 43.982 20.182 L 43.198 20.893 L 43.804 21.541 L 45.078 20.365 L 45.685 20.466 L 46.517 19.69 L 42.109 18.885 L 40.701 20.1 L 42.79 22.263 L 39.816 20.864 L 38.77 21.765 L 42.46 23.478 L 42.273 23.655 L 38.567 21.94 L 37.572 22.798 L 39.712 23.774 Z" />
  <g>
   <path id="AUTOID_13226" fill="#b2b2b2" stroke="none" d="M 20.091 30.62 C 18.955 31.597 17.518 30.952 16.748 30.42 C 16.018 29.914 15.226 29.054 16.31 28.25 L 16.679 28.481 C 16.14 28.887 16.396 29.411 17.277 29.998 C 18.216 30.623 19.071 30.8 19.628 30.329 C 20.172 29.868 19.812 29.306 18.858 28.742 C 17.958 28.211 17.207 28.085 16.679 28.481 L 16.31 28.25 C 17.347 27.481 18.586 27.931 19.338 28.359 C 20.129 28.809 21.169 29.69 20.091 30.62 Z" />
   <path id="AUTOID_13228" fill="#b2b2b2" stroke="none" d="M 22.64 28.263 L 22.135 28.699 L 21.512 28.367 L 22.016 27.945 L 22.64 28.263 Z" />
   <path id="AUTOID_13229" fill="#b2b2b2" stroke="none" d="M 22.951 25.278 C 23.564 25.053 24.076 25.16 24.373 25.28 L 24.036 25.626 C 23.506 25.403 22.996 25.53 22.652 25.806 C 22.217 26.152 22.367 26.48 22.73 26.647 C 23.047 26.795 23.663 26.916 24.202 26.46 C 24.48 26.225 24.672 25.89 24.036 25.626 L 24.373 25.28 C 25.024 25.544 25.373 26.065 24.663 26.678 C 24.49 26.826 24.103 27.082 23.585 27.175 C 22.92 27.295 22.483 27.085 22.291 26.992 C 21.814 26.765 21.722 26.458 21.893 26.12 C 21.501 26.275 21.091 26.28 20.751 26.12 C 20.385 25.945 19.998 25.516 20.734 24.972 L 21.1 25.158 C 20.69 25.466 20.911 25.692 21.14 25.797 C 21.486 25.955 21.961 25.849 22.24 25.629 C 22.568 25.373 22.518 25.1 22.187 24.961 C 21.968 24.87 21.539 24.827 21.1 25.158 L 20.734 24.972 C 21.394 24.483 22.135 24.495 22.55 24.664 C 23.077 24.879 22.995 25.14 22.951 25.278 Z" />
   <path id="AUTOID_13232" fill="#b2b2b2" stroke="none" d="M 22.332 23.87 L 24.185 22.493 L 24.568 22.618 C 24.684 22.937 25.24 23.843 26.85 24.652 L 26.472 24.977 C 25.437 24.477 24.551 23.579 24.251 22.908 L 22.759 24.036 L 22.332 23.87 Z" />
  </g>
  <g>
   <path id="AUTOID_13234" fill="#b2b2b2" stroke="none" d="M 28.789 39.088 L 30.109 37.837 L 30.559 38.222 L 29.742 39.003 L 33.192 41.25 L 34.039 40.42 C 34.601 39.868 34.341 39.11 33.21 38.384 C 32.085 37.664 31.152 37.658 30.559 38.222 L 30.109 37.837 C 30.946 37.042 32.332 37.112 33.615 37.932 C 34.622 38.573 35.624 39.716 34.573 40.75 L 33.28 42.026 L 28.789 39.088 Z" />
   <path id="AUTOID_13236" fill="#b2b2b2" stroke="none" d="M 31.955 36.085 L 34.5 33.67 L 35.027 33.996 L 33.975 34.999 L 37.909 37.466 L 37.49 37.88 L 33.551 35.402 L 32.482 36.42 L 31.955 36.085 Z" />
   <path id="AUTOID_13237" fill="#b2b2b2" stroke="none" d="M 42.118 33.32 L 41.728 33.704 L 38.63 31.83 L 37.942 32.491 L 37.512 32.229 C 37.942 31.742 38.073 31.513 37.487 30.978 L 37.777 30.704 L 42.118 33.32 Z" />
   <path id="AUTOID_13238" fill="#b2b2b2" stroke="none" d="M 40.521 30.475 C 39.121 29.643 39.667 28.908 39.978 28.614 C 40.473 28.143 41.35 28.047 42.148 28.513 C 42.92 28.963 42.911 29.478 42.832 30.094 L 42.783 30.528 C 42.722 31.103 42.978 31.39 43.13 31.507 L 44.676 29.99 L 45.192 30.294 L 43.243 32.213 C 42.353 31.649 42.137 31.097 42.182 30.522 L 42.226 29.958 C 42.267 29.51 42.307 29.193 41.743 28.862 C 41.401 28.663 40.825 28.548 40.405 28.946 C 39.862 29.466 40.594 29.937 40.883 30.128 L 40.521 30.475 Z" />
   <path id="AUTOID_13239" fill="#b2b2b2" stroke="none" d="M 48.292 27.242 L 47.926 27.6 L 44.86 25.853 L 44.216 26.472 L 43.79 26.228 C 44.192 25.771 44.308 25.557 43.725 25.057 L 43.994 24.8 L 48.292 27.242 Z" />
   <path id="AUTOID_13240" fill="#b2b2b2" stroke="none" d="M 46.648 24.582 C 45.264 23.804 45.768 23.117 46.06 22.841 C 46.524 22.399 47.369 22.307 48.159 22.743 C 48.923 23.166 48.932 23.647 48.875 24.224 L 48.841 24.629 C 48.801 25.169 49.06 25.437 49.21 25.545 L 50.658 24.125 L 51.168 24.407 L 49.344 26.204 C 48.463 25.678 48.237 25.164 48.259 24.626 L 48.284 24.097 C 48.307 23.676 48.337 23.381 47.78 23.073 C 47.441 22.885 46.878 22.777 46.484 23.152 C 45.975 23.638 46.7 24.079 46.985 24.257 L 46.648 24.582 Z" />
   <path id="AUTOID_13241" fill="#b2b2b2" stroke="none" d="M 52.869 21.928 L 54.195 20.629 L 54.722 20.91 L 53.04 22.565 L 48.692 20.207 L 49.052 19.865 L 52.869 21.928 Z" />
   <path id="AUTOID_13242" fill="#b2b2b2" stroke="none" d="M 56.082 19.745 C 55.359 20.457 53.908 19.897 53.026 19.428 C 52.148 18.961 51.006 18.146 51.734 17.452 C 52.457 16.766 53.875 17.303 54.75 17.76 L 54.417 18.083 C 53.362 17.53 52.566 17.356 52.204 17.701 C 51.841 18.047 52.307 18.541 53.363 19.1 C 54.429 19.664 55.238 19.846 55.6 19.492 C 55.959 19.138 55.478 18.64 54.417 18.083 L 54.75 17.76 C 55.63 18.221 56.798 19.039 56.082 19.745 Z" />
   <path id="AUTOID_13244" fill="#b2b2b2" stroke="none" d="M 58.378 17.307 L 58.051 17.629 L 55.051 16.079 L 54.473 16.631 L 54.057 16.414 C 54.411 16.007 54.511 15.814 53.929 15.369 L 54.17 15.141 L 58.378 17.307 Z" />
  </g>
  <g>
   <path id="AUTOID_13246" fill="#b2b2b2" stroke="none" d="M 38.351 42.107 C 37.892 41.923 37.42 41.918 37.033 42.304 C 36.323 43.012 37.387 43.909 37.878 44.212 L 37.902 44.21 C 37.762 43.938 37.698 43.485 38.192 42.985 L 38.649 43.369 C 38.149 43.88 38.375 44.414 38.936 44.759 C 39.447 45.073 40.237 45.17 40.768 44.612 C 41.197 44.161 41.015 43.604 40.368 43.22 C 39.948 42.972 39.204 42.802 38.649 43.369 L 38.192 42.985 C 38.631 42.542 39.67 42.07 40.798 42.731 C 41.287 43.018 41.549 43.326 41.667 43.792 C 41.765 44.158 41.74 44.494 41.235 45.03 C 40.957 45.326 40.392 45.646 39.591 45.587 C 38.917 45.536 38.27 45.237 37.649 44.85 C 36.628 44.216 35.451 43.061 36.536 41.988 C 36.948 41.581 37.811 41.171 38.783 41.671 L 38.351 42.107 Z" />
   <path id="AUTOID_13248" fill="#b2b2b2" stroke="none" d="M 41.334 39.104 C 40.878 38.935 40.417 38.933 40.049 39.298 C 39.378 39.969 40.45 40.804 40.941 41.082 L 40.963 41.081 C 40.819 40.826 40.74 40.404 41.209 39.93 L 41.668 40.286 C 41.197 40.768 41.435 41.27 41.994 41.588 C 42.506 41.88 43.283 41.966 43.783 41.439 C 44.189 41.012 43.993 40.49 43.347 40.134 C 42.927 39.905 42.195 39.75 41.668 40.286 L 41.209 39.93 C 41.622 39.511 42.627 39.06 43.752 39.671 C 44.241 39.938 44.506 40.225 44.637 40.661 C 44.746 41.003 44.731 41.32 44.255 41.828 C 43.993 42.106 43.448 42.408 42.664 42.359 C 42.003 42.317 41.357 42.042 40.738 41.683 C 39.718 41.095 38.526 40.021 39.551 39.006 C 39.942 38.618 40.774 38.228 41.744 38.692 L 41.334 39.104 Z" />
   <path id="AUTOID_13250" fill="#b2b2b2" stroke="none" d="M 42.865 38.22 C 41.377 37.423 42.008 36.576 42.359 36.228 C 42.915 35.676 43.866 35.494 44.718 35.926 C 45.548 36.345 45.527 36.908 45.424 37.594 L 45.359 38.081 C 45.277 38.731 45.554 39.031 45.72 39.149 L 47.466 37.317 L 48.039 37.606 L 45.832 39.942 C 44.85 39.378 44.63 38.774 44.695 38.128 L 44.762 37.499 C 44.819 37 44.872 36.651 44.267 36.341 C 43.902 36.154 43.277 36.082 42.805 36.551 C 42.191 37.164 42.969 37.619 43.277 37.804 L 42.865 38.22 Z" />
   <path id="AUTOID_13251" fill="#b2b2b2" stroke="none" d="M 47.71 34.07 C 48.381 33.779 48.987 33.936 49.344 34.104 L 49.009 34.554 C 48.371 34.25 47.807 34.408 47.46 34.765 C 47.027 35.209 47.259 35.63 47.697 35.845 C 48.076 36.033 48.774 36.186 49.307 35.625 C 49.582 35.335 49.756 34.911 49.009 34.554 L 49.344 34.104 C 50.11 34.466 50.552 35.145 49.838 35.904 C 49.667 36.084 49.276 36.392 48.725 36.503 C 48.015 36.643 47.496 36.386 47.267 36.271 C 46.689 35.981 46.521 35.594 46.649 35.162 C 46.231 35.356 45.759 35.357 45.328 35.143 C 44.853 34.908 44.28 34.326 45.021 33.594 C 45.697 32.924 46.594 32.966 47.125 33.216 L 46.753 33.619 C 46.473 33.487 45.953 33.415 45.505 33.862 C 45.093 34.274 45.411 34.581 45.704 34.725 C 46.143 34.941 46.671 34.81 46.951 34.524 C 47.281 34.189 47.171 33.82 46.753 33.619 L 47.125 33.216 C 47.786 33.529 47.737 33.884 47.71 34.07 Z" />
   <path id="AUTOID_13254" fill="#b2b2b2" stroke="none" d="M 50.256 31.471 C 50.908 31.192 51.506 31.338 51.86 31.493 L 51.546 31.92 C 50.911 31.637 50.362 31.789 50.031 32.128 C 49.621 32.549 49.862 32.945 50.298 33.146 C 50.676 33.32 51.363 33.46 51.868 32.927 C 52.133 32.652 52.289 32.25 51.546 31.92 L 51.86 31.493 C 52.624 31.829 53.078 32.466 52.399 33.185 C 52.237 33.356 51.862 33.651 51.326 33.758 C 50.634 33.896 50.118 33.656 49.889 33.549 C 49.313 33.281 49.137 32.917 49.249 32.509 C 48.845 32.695 48.383 32.7 47.951 32.5 C 47.478 32.28 46.899 31.736 47.601 31.041 C 48.246 30.403 49.127 30.435 49.656 30.67 L 49.304 31.053 C 49.026 30.928 48.512 30.864 48.085 31.289 C 47.694 31.681 48.017 31.969 48.308 32.103 C 48.744 32.302 49.261 32.176 49.527 31.905 C 49.841 31.585 49.72 31.239 49.304 31.053 L 49.656 30.67 C 50.314 30.96 50.277 31.295 50.256 31.471 Z" />
   <path id="AUTOID_13257" fill="#b2b2b2" stroke="none" d="M 49.203 29.593 L 51.124 27.69 L 51.612 27.89 C 51.81 28.356 52.613 29.635 54.524 30.739 L 54.14 31.143 C 52.929 30.483 51.771 29.256 51.286 28.298 L 49.752 29.83 L 49.203 29.593 Z" />
   <path id="AUTOID_13258" fill="#b2b2b2" stroke="none" d="M 54.981 26.649 C 55.594 26.39 56.179 26.513 56.53 26.649 L 56.25 27.033 C 55.622 26.789 55.101 26.932 54.804 27.239 C 54.432 27.62 54.686 27.971 55.116 28.144 C 55.49 28.295 56.161 28.411 56.618 27.929 C 56.856 27.679 56.985 27.32 56.25 27.033 L 56.53 26.649 C 57.283 26.939 57.756 27.503 57.142 28.153 C 56.996 28.307 56.652 28.574 56.142 28.678 C 55.484 28.809 54.973 28.602 54.746 28.509 C 54.176 28.277 53.985 27.954 54.07 27.588 C 53.692 27.76 53.246 27.769 52.82 27.597 C 52.35 27.407 51.761 26.926 52.396 26.297 C 52.981 25.718 53.835 25.736 54.359 25.939 L 54.039 26.286 C 53.765 26.178 53.265 26.128 52.878 26.513 C 52.523 26.867 52.851 27.121 53.14 27.236 C 53.573 27.411 54.063 27.291 54.302 27.045 C 54.588 26.757 54.453 26.446 54.039 26.286 L 54.359 25.939 C 55.009 26.19 54.993 26.49 54.981 26.649 Z" />
  </g>
  <path stroke-linejoin="round" stroke-width="0.131" d="M 47.429 61.616 L 48.14 60.786 L 49.564 60.31 C 49.564 60.31 58.11 47.018 59.415 45.356 C 60.722 43.695 63.807 40.134 64.281 39.421 C 64.757 38.71 65.706 36.573 65.706 36.573" />
  <path stroke-linejoin="round" stroke-width="0.131" d="M 69.149 12.598 L 64.281 35.86 C 64.281 35.86 67.962 37.284 68.436 37.523 C 68.911 37.759 69.03 37.64 69.504 37.167 C 69.98 36.692 71.403 34.792 71.403 34.792" />
  <path stroke-linejoin="round" stroke-width="0.131" d="M 69.504 37.167 C 68.911 37.523 68.674 36.811 68.911 35.86 C 69.149 34.911 74.134 15.327 74.134 15.327" />
  <path stroke-linejoin="round" stroke-width="0.131" d="M 27.963 19.007 C 27.963 19.007 26.065 9.393 25.946 8.207 C 25.826 7.019 25.827 6.307 26.539 5.952 C 27.251 5.594 29.15 6.663 30.219 7.019 C 31.286 7.376 33.423 7.732 34.253 6.189 C 35.085 4.645 35.323 1.56 35.323 0.848" />
  <path stroke-linejoin="round" stroke-width="0.131" d="M 3.277 28.977 C 3.277 28.977 28.556 47.136 31.286 49.034 C 34.017 50.933 35.679 53.189 36.271 55.801 C 36.865 58.411 37.697 61.734 37.697 61.734" />
  <path stroke="#ffffff" stroke-width="0.501" d="M 5.762 21.234 L 20.484 23.408" />
  <path stroke-width="0.131" d="M 5.762 21.234 L 20.484 23.408" />
  <g>
   <g>
    <g>
     <g>
      <g>
       <text font-family="'Helvetica'" font-size="4.924" fill="#000000" stroke="none" x="1.815" y="22.417">A</text>
      </g>
     </g>
    </g>
   </g>
  </g>
  <path stroke="#ffffff" stroke-width="0.501" d="M 14.057 49.045 L 30.149 41.222" />
  <path stroke-width="0.131" d="M 14.057 49.045 L 30.149 41.222" />
  <g>
   <g>
    <g>
     <g>
      <g>
       <text font-family="'Helvetica'" font-size="4.924" fill="#000000" stroke="none" x="10.192" y="52.036">B</text>
      </g>
     </g>
    </g>
   </g>
  </g>
  <path stroke="#ffffff" stroke-width="0.501" d="M 25.068 57.091 L 37.161 45.771" />
  <path stroke-width="0.131" d="M 25.068 57.091 L 37.161 45.771" />
  <g>
   <g>
    <g>
     <g>
      <g>
       <text font-family="'Helvetica'" font-size="4.924" fill="#000000" stroke="none" x="21.204" y="61.082">C</text>
      </g>
     </g>
    </g>
   </g>
  </g>
 </g>
 <g id="frame">
  <g>
   <path stroke="#ffffff" stroke-width="0.004" d="M 75.001 62.301 L 75.001 0.002 L 0.002 0.002 L 0.002 62.301 L 75.001 62.301 Z" />
  </g>
 </g>
 <g id="Picture#">
  <g>
   <g>
    <g>
     <g>
      <g>
       <text font-family="'Helvetica'" font-size="2.117" fill="#000000" stroke="none" transform="matrix(0 -1 1 0 73.816 61.289)">317 945</text>
      </g>
     </g>
    </g>
   </g>
  </g>
 </g>
<style /></svg>