<?xml version="1.0" encoding="utf-8"?>
<!DOCTYPE svg PUBLIC "-//W3C//DTD SVG 1.1//EN" "http://www.w3.org/Graphics/SVG/1.1/DTD/svg11.dtd">
<!-- Generator: PTC Arbortext IsoDraw 7.3 M070 -->
<svg id="Standard_x0020_layer" width="100%" height="100%" viewBox="0 0 33.366 23.672"
 xmlns="http://www.w3.org/2000/svg" xmlns:xlink="http://www.w3.org/1999/xlink"
 fill-rule="evenodd" clip-rule="evenodd" stroke="#000000" stroke-linecap="round" fill="none" xml:space="preserve">
 <line stroke-width="0.3" x1="1.01" y1="7.653" x2="1.01" y2="18.105"/>
 <line stroke-width="0.3" x1="1.01" y1="18.105" x2="0.15" y2="19.333"/>
 <line stroke-width="0.3" x1="0.15" y1="19.333" x2="0.15" y2="22.838"/>
 <line stroke-width="0.3" x1="0.15" y1="22.838" x2="0.949" y2="23.391"/>
 <line stroke-width="0.3" x1="0.949" y1="23.391" x2="5.745" y2="23.391"/>
 <line stroke-width="0.13" x1="1.01" y1="18.105" x2="1.01" y2="23.391"/>
 <line stroke-width="0.13" x1="1.01" y1="18.105" x2="5.621" y2="18.105"/>
 <g>
  <path stroke-width="0.13" d="M8.82 7.653C8.82 5.886 7.389 4.453 5.621 4.453C3.855 4.453 2.422 5.886 2.422 7.653C2.422 9.419 3.855 10.852 5.621 10.852C7.389 10.852 8.82 9.419 8.82 7.653"/>
 </g>
 <path stroke-width="0.3" d="M1.01 7.653C1.108 5.535 2.644 2.95 5.586 3.007"/>
 <line stroke-width="0.3" x1="5.586" y1="3.007" x2="15.76" y2="3.007"/>
 <line stroke-width="0.13" x1="13.099" y1="3.007" x2="14.074" y2="3.961"/>
 <line stroke-width="0.13" x1="14.074" y1="3.961" x2="15.649" y2="3.961"/>
 <line stroke-width="0.13" x1="13.099" y1="3.007" x2="13.099" y2="12.019"/>
 <line stroke-width="0.13" x1="14.15" y1="3.007" x2="14.15" y2="12.095"/>
 <line stroke-width="0.13" x1="13.099" y1="12.019" x2="14.15" y2="11.007"/>
 <line stroke-width="0.13" x1="14.15" y1="11.007" x2="15.836" y2="11.007"/>
 <line stroke-width="0.3" x1="15.798" y1="11.907" x2="11.638" y2="11.907"/>
 <line stroke-width="0.3" x1="10.349" y1="18.105" x2="11.21" y2="19.333"/>
 <line stroke-width="0.3" x1="11.21" y1="19.333" x2="11.21" y2="22.838"/>
 <line stroke-width="0.3" x1="11.21" y1="22.838" x2="10.41" y2="23.391"/>
 <line stroke-width="0.3" x1="10.41" y1="23.391" x2="5.615" y2="23.391"/>
 <line stroke-width="0.13" x1="10.349" y1="18.105" x2="10.349" y2="23.391"/>
 <line stroke-width="0.13" x1="10.349" y1="18.105" x2="5.737" y2="18.105"/>
 <line stroke-width="0.3" x1="10.349" y1="18.105" x2="10.349" y2="12.769"/>
 <path stroke-width="0.3" d="M10.349 12.769C10.397 12.272 10.797 11.907 11.638 11.907"/>
 <g>
  <path stroke-width="0.3" d="M15.973 13.605C16.096 14.798 16.92 15.378 17.135 15.5"/>
  <line stroke-width="0.3" x1="17.135" y1="15.5" x2="20.53" y2="15.5"/>
  <path stroke-width="0.3" d="M20.53 15.5C21.356 14.492 21.507 13.91 21.507 13.208"/>
  <line stroke-width="0.3" x1="21.507" y1="13.208" x2="26.92" y2="13.208"/>
  <line stroke-width="0.3" x1="26.92" y1="13.208" x2="32.517" y2="10.884"/>
  <line stroke-width="0.3" x1="32.517" y1="10.884" x2="32.517" y2="7.794"/>
  <line stroke-width="0.13" x1="31.908" y1="11.135" x2="31.908" y2="7.764"/>
  <line stroke-width="0.13" x1="26.92" y1="13.208" x2="26.92" y2="7.825"/>
  <line stroke-width="0.13" x1="21.507" y1="13.208" x2="21.507" y2="7.794"/>
  <line stroke-width="0.3" x1="15.973" y1="13.605" x2="15.973" y2="12.167"/>
  <line stroke-width="0.3" x1="15.973" y1="12.167" x2="15.973" y2="7.703"/>
  <path stroke-width="0.13" d="M15.973 13.605C15.973 12.688 16.402 12.045 16.676 11.862C16.951 11.679 16.951 11.679 16.951 11.679C16.951 11.679 15.942 11.037 15.973 8.07"/>
  <path stroke-width="0.13" d="M21.507 13.208C21.507 12.413 20.713 11.618 20.498 11.586"/>
  <path stroke-width="0.13" d="M20.498 11.586C21.233 10.945 21.631 9.231 21.507 7.794"/>
  <line stroke-width="0.13" x1="16.951" y1="11.679" x2="20.498" y2="11.679"/>
  <path stroke-width="0.3" d="M15.973 2.045C16.096 0.853 16.92 0.272 17.135 0.15"/>
  <line stroke-width="0.3" x1="17.135" y1="0.15" x2="20.53" y2="0.15"/>
  <path stroke-width="0.3" d="M20.53 0.15C21.356 1.159 21.507 1.74 21.507 2.443"/>
  <line stroke-width="0.3" x1="21.507" y1="2.443" x2="26.92" y2="2.443"/>
  <line stroke-width="0.3" x1="26.92" y1="2.443" x2="32.517" y2="4.767"/>
  <line stroke-width="0.3" x1="32.517" y1="4.767" x2="32.517" y2="7.855"/>
  <line stroke-width="0.13" x1="31.908" y1="4.514" x2="31.908" y2="7.887"/>
  <line stroke-width="0.13" x1="26.92" y1="2.443" x2="26.92" y2="7.825"/>
  <line stroke-width="0.13" x1="21.507" y1="2.443" x2="21.507" y2="7.855"/>
  <line stroke-width="0.3" x1="15.973" y1="2.045" x2="15.973" y2="3.483"/>
  <line stroke-width="0.3" x1="15.973" y1="3.483" x2="15.973" y2="7.948"/>
  <path stroke-width="0.13" d="M15.973 2.045C15.973 2.963 16.402 3.605 16.676 3.789C16.951 3.972 16.951 3.972 16.951 3.972C16.951 3.972 15.942 4.615 15.973 7.58"/>
  <path stroke-width="0.13" d="M21.507 2.443C21.507 3.238 20.713 4.033 20.498 4.064"/>
  <path stroke-width="0.13" d="M20.498 4.064C21.233 4.705 21.631 6.418 21.507 7.855"/>
  <line stroke-width="0.13" x1="16.951" y1="3.972" x2="20.498" y2="3.972"/>
 </g>
 <text transform="matrix(-0.017 -1 1 -0.017 32.661 23.64)" stroke="none" fill="#000000" font-family="'Arial'" font-size="2.117">321 513</text>
 <line stroke-width="0.13" x1="0.15" y1="19.333" x2="11.21" y2="19.333"/>
 <line stroke-width="0.13" x1="0.15" y1="22.838" x2="11.21" y2="22.838"/>
</svg>
