<?xml version="1.0" encoding="utf-8"?>
<!DOCTYPE svg PUBLIC "-//W3C//DTD SVG 1.1//EN" "http://www.w3.org/Graphics/SVG/1.1/DTD/svg11.dtd">
<!-- Generator: PTC Arbortext IsoDraw 7.3 M070 -->
<svg id="Standard_x0020_layer" width="100%" height="100%" viewBox="0 0 35.201 32.588"
 xmlns="http://www.w3.org/2000/svg" xmlns:xlink="http://www.w3.org/1999/xlink"
 fill-rule="evenodd" clip-rule="evenodd" stroke="#000000" stroke-linecap="round" fill="none" xml:space="preserve">
 <line stroke-width="0.3" x1="16.881" y1="0.153" x2="11.484" y2="0.153"/>
 <path stroke-width="0.3" d="M11.484 0.153C10.737 0.114 9.835 0.428 9.618 0.86"/>
 <line stroke-width="0.3" x1="9.618" y1="0.86" x2="9.618" y2="5.237"/>
 <path stroke-width="0.3" d="M9.618 5.237C8.147 5.334 7.107 5.903 6.538 6.237C5.969 6.57 5.969 6.57 5.969 6.57L5.948 7.807"/>
 <path stroke-width="0.13" d="M11.246 0.152C12.053 0.31 13.486 0.919 13.486 1.135"/>
 <path stroke-width="0.13" d="M13.486 1.135C14.564 0.35 15.801 0.31 16.841 0.31"/>
 <path stroke-width="0.13" d="M9.618 5.237C10.836 5.099 12.955 5.806 13.329 6.041"/>
 <path stroke-width="0.13" d="M13.329 6.041C14.603 5.197 15.861 5.275 16.998 5.177"/>
 <line stroke-width="0.13" x1="5.969" y1="6.57" x2="16.9" y2="6.57"/>
 <line stroke-width="0.3" x1="0.61" y1="7.886" x2="31.699" y2="7.886"/>
 <line stroke-width="0.3" x1="16.92" y1="0.153" x2="22.318" y2="0.153"/>
 <path stroke-width="0.3" d="M22.318 0.153C23.064 0.114 23.966 0.428 24.181 0.86"/>
 <line stroke-width="0.3" x1="24.181" y1="0.86" x2="24.181" y2="5.237"/>
 <path stroke-width="0.3" d="M24.181 5.237C25.653 5.334 26.695 5.903 27.263 6.237C27.832 6.57 27.832 6.57 27.832 6.57L27.853 7.807"/>
 <path stroke-width="0.13" d="M22.553 0.152C21.748 0.31 20.315 0.919 20.315 1.135"/>
 <path stroke-width="0.13" d="M20.315 1.135C19.236 0.35 18 0.31 16.96 0.31"/>
 <path stroke-width="0.13" d="M24.181 5.237C22.964 5.099 20.846 5.806 20.472 6.041"/>
 <path stroke-width="0.13" d="M20.472 6.041C19.196 5.197 17.94 5.275 16.803 5.177"/>
 <line stroke-width="0.13" x1="27.832" y1="6.57" x2="16.9" y2="6.57"/>
 <line stroke-width="0.13" x1="0.159" y1="13.557" x2="31.876" y2="13.557"/>
 <line stroke-width="0.3" x1="0.591" y1="19.8" x2="32.386" y2="19.8"/>
 <path stroke-width="0.13" d="M0.61 7.886C2.357 9.672 2.2 9.593 1.651 10.535C1.1 11.477 -0.312 11.91 0.159 13.557C0.63 15.207 1.14 14.932 0.709 16.266C0.277 17.602 -0.194 18.544 0.591 19.8"/>
 <path stroke-width="0.13" d="M31.699 7.886C30.62 8.926 30.62 10.221 31.129 10.928C31.64 11.634 32.307 12.144 31.876 13.557C31.443 14.971 31.013 15.246 32.033 16.266C33.054 17.288 32.856 18.778 32.386 19.8"/>
 <path stroke-width="0.3" d="M5.418 19.8C5.575 20.82 7.264 21.565 8.205 21.879C9.147 22.193 9.147 22.193 9.147 22.193L9.186 25.609C9.186 25.609 9.932 27.14 11.582 27.178"/>
 <line stroke-width="0.3" x1="11.582" y1="27.178" x2="17.077" y2="27.178"/>
 <line stroke-width="0.13" x1="6.476" y1="21.077" x2="17.038" y2="21.077"/>
 <path stroke-width="0.13" d="M9.147 22.193C10.718 22.586 12.17 22.626 13.308 22.155"/>
 <path stroke-width="0.13" d="M13.308 22.155C14.76 23.018 15.625 23.057 16.92 22.978"/>
 <line stroke-width="0.13" x1="13.308" y1="22.155" x2="13.308" y2="26.158"/>
 <path stroke-width="0.13" d="M13.308 26.158C13.034 26.826 12.151 27.045 11.259 27.152"/>
 <path stroke-width="0.13" d="M13.308 26.158C13.975 26.707 15.429 27.297 17.077 27.178"/>
 <line stroke-width="0.3" x1="12.17" y1="27.178" x2="12.17" y2="30.868"/>
 <line stroke-width="0.3" x1="12.17" y1="30.868" x2="13.583" y2="32.439"/>
 <line stroke-width="0.3" x1="13.583" y1="32.439" x2="17.038" y2="32.439"/>
 <line stroke-width="0.13" x1="12.17" y1="30.868" x2="17.117" y2="30.868"/>
 <line stroke-width="0.13" x1="13.544" y1="27.178" x2="13.544" y2="32.439"/>
 <path stroke-width="0.3" d="M28.422 19.8C28.265 20.82 26.576 21.565 25.635 21.879C24.693 22.193 24.693 22.193 24.693 22.193L24.652 25.609C24.652 25.609 23.908 27.14 22.259 27.178"/>
 <line stroke-width="0.3" x1="22.259" y1="27.178" x2="16.763" y2="27.178"/>
 <line stroke-width="0.13" x1="27.364" y1="21.077" x2="16.803" y2="21.077"/>
 <path stroke-width="0.13" d="M24.693 22.193C23.123 22.586 21.67 22.626 20.532 22.155"/>
 <path stroke-width="0.13" d="M20.532 22.155C19.079 23.018 18.216 23.057 16.92 22.978"/>
 <line stroke-width="0.13" x1="20.532" y1="22.155" x2="20.532" y2="26.158"/>
 <path stroke-width="0.13" d="M20.532 26.158C20.806 26.826 21.689 27.045 22.582 27.152"/>
 <path stroke-width="0.13" d="M20.532 26.158C19.864 26.707 18.411 27.297 16.763 27.178"/>
 <line stroke-width="0.3" x1="21.67" y1="27.178" x2="21.67" y2="30.868"/>
 <line stroke-width="0.3" x1="21.67" y1="30.868" x2="20.257" y2="32.439"/>
 <line stroke-width="0.3" x1="20.257" y1="32.439" x2="16.803" y2="32.439"/>
 <line stroke-width="0.13" x1="21.67" y1="30.868" x2="16.724" y2="30.868"/>
 <line stroke-width="0.13" x1="20.295" y1="27.178" x2="20.295" y2="32.439"/>
 <line stroke-width="0.13" x1="13.486" y1="1.135" x2="13.486" y2="5.636"/>
 <line stroke-width="0.13" x1="20.315" y1="1.135" x2="20.315" y2="5.697"/>
 <text transform="matrix(0 -1 1 0 34.494 32.429)" stroke="none" fill="#000000" font-family="'Arial'" font-size="2.117">321 515</text>
</svg>
