<?xml version="1.0" encoding="utf-8"?>
<!DOCTYPE svg PUBLIC "-//W3C//DTD SVG 1.1//EN" "http://www.w3.org/Graphics/SVG/1.1/DTD/svg11.dtd">
<!-- Generator: PTC Arbortext IsoDraw 7.3 -->
<svg id="Standard_x0020_layer" width="100%" height="100%" viewBox="0 0 150 37.756"
 xmlns="http://www.w3.org/2000/svg" xmlns:xlink="http://www.w3.org/1999/xlink"
 fill-rule="evenodd" clip-rule="evenodd" stroke="#000000" stroke-linecap="round" fill="none" xml:space="preserve">
 <path stroke="none" fill="#FFFFFF" d="M150 37.756L0 37.756 0 0 150 0 150 37.756z"/>
 <text transform="matrix(0 -1 1 0 148.187 35.802)" stroke="none" fill="#000000" font-family="'Arial'" font-size="2.081">326 635</text>
 <path stroke-width="0.25" stroke-linecap="butt" d="M134.063 4.419C134.776 4.419 136.983 3.245 138.514 3.245C140.044 3.245 140.508 3.245 141.219 3.245C141.931 3.245 143.319 3.672 143.319 5.346C143.319 7.019 143.498 8.157 143.533 9.083C143.569 10.009 143.818 17.878 143.818 19.586"/>
 <path stroke-width="0.131" stroke-linecap="butt" d="M128.723 7.189C128.723 7.41 128.544 7.589 128.323 7.589C126.524 7.589 126.524 7.589 126.524 7.589C126.304 7.589 126.123 7.41 126.123 7.189C126.123 5.924 126.123 5.924 126.123 5.924C126.123 5.703 126.304 5.524 126.524 5.524C128.323 5.524 128.323 5.524 128.323 5.524C128.544 5.524 128.723 5.703 128.723 5.924C128.723 7.189 128.723 7.189 128.723 7.189z"/>
 <path stroke-width="0.131" stroke-linecap="butt" d="M134.205 7.339C133.992 7.339 133.92 7.089 133.92 6.911C133.92 6.734 133.92 5.987 133.92 5.809C133.92 5.629 133.992 5.559 134.241 5.559C134.491 5.559 137.48 5.559 137.908 5.559C138.336 5.559 138.799 5.809 139.474 6.128C140.151 6.448 140.65 7.232 140.116 7.232C139.581 7.232 134.205 7.339 134.205 7.339L134.205 7.339z"/>
 <path stroke-width="0.131" stroke-linecap="butt" d="M135.417 7.375C135.239 7.375 135.132 7.517 135.132 7.695C135.132 7.873 135.132 8.977 135.132 8.977"/>
 <path stroke-width="0.131" stroke-linecap="butt" d="M138.086 7.41C138.264 7.41 138.443 7.623 138.443 7.73C138.443 7.838 138.443 9.083 138.443 9.083"/>
 <path stroke-width="0.131" stroke-linecap="butt" d="M138.514 8.692C138.514 8.692 140.258 8.692 140.65 8.692C141.042 8.692 141.361 8.869 141.361 9.262C141.361 9.653 141.361 11.326 141.361 11.326"/>
 <path stroke-width="0.131" stroke-linecap="butt" d="M141.149 10.864C141.042 10.864 139.902 10.864 139.902 10.864"/>
 <path stroke-width="0.25" stroke-linecap="butt" d="M98.349 8.935C98.643 8.524 98.7 8.288 99.112 8.288C99.524 8.288 100.054 8.288 100.7 8.288C101.346 8.288 101.759 9.053 102.346 9.053"/>
 <path stroke-width="0.25" stroke-linecap="butt" d="M111.805 6.144C111.805 6.144 111.805 8.146 111.805 8.304C111.805 8.461 112.075 8.686 112.322 8.686C112.569 8.686 115.673 8.686 115.673 8.686"/>
 <path stroke-width="0.131" stroke-linecap="butt" d="M115.447 7.583C113.397 7.583 113.397 7.583 113.397 7.583C113.177 7.583 112.996 7.405 112.996 7.184C112.996 5.623 112.996 5.623 112.996 5.623C112.996 5.403 113.177 5.224 113.397 5.224C118.037 5.224 118.037 5.224 118.037 5.224C118.259 5.224 118.438 5.403 118.438 5.623C118.438 6.887 118.438 6.887 118.438 6.887"/>
 <line stroke-width="0.131" stroke-linecap="butt" x1="116.212" y1="5.291" x2="116.212" y2="7.067"/>
 <path stroke-width="0.131" stroke-linecap="butt" d="M119.518 8.663C129.319 8.663 129.319 8.663 129.319 8.663C129.567 8.663 129.756 8.5 129.756 8.301C129.756 7.98 129.756 6.057 129.756 5.809C129.756 5.559 129.897 5.524 130.075 5.524C130.253 5.524 132.532 5.524 132.711 5.524C132.889 5.524 132.96 5.487 132.96 5.879C132.96 6.27 132.96 8.727 132.96 8.727C135.167 8.727 135.167 8.727 135.167 8.727"/>
 <polygon stroke-width="0.131" stroke-linecap="butt" points="132.693 8.775 130.062 8.775 130.062 7.314 132.693 7.314 132.693 8.775"/>
 <line stroke-width="0.131" stroke-linecap="butt" x1="129.792" y1="7.876" x2="132.895" y2="7.876"/>
 <line stroke-width="0.131" stroke-linecap="butt" x1="136.356" y1="5.605" x2="136.356" y2="7.269"/>
 <polygon stroke-width="0.131" stroke-linecap="butt" points="139.829 16.754 138.241 16.754 138.241 10.404 139.829 10.404 139.829 16.754"/>
 <polygon stroke-width="0.131" stroke-linecap="butt" points="139.829 28.573 138.241 28.573 138.241 24.986 139.829 24.986 139.829 28.573"/>
 <polygon stroke-width="0.131" stroke-linecap="butt" points="139.829 18.46 138.241 18.46 138.241 17.637 139.829 17.637 139.829 18.46"/>
 <polygon stroke-width="0.131" stroke-linecap="butt" points="139.829 24.045 138.241 24.045 138.241 23.222 139.829 23.222 139.829 24.045"/>
 <polygon stroke-width="0.131" stroke-linecap="butt" points="139.829 22.341 138.241 22.341 138.241 19.46 139.829 19.46 139.829 22.341"/>
 <polygon stroke-width="0.131" stroke-linecap="butt" points="141.388 18.195 139.888 18.195 139.888 13.461 141.388 13.461 141.388 18.195"/>
 <line stroke-width="0.131" stroke-linecap="butt" x1="140.388" y1="13.492" x2="140.388" y2="18.106"/>
 <path stroke-width="0.25" stroke-linecap="butt" d="M95.114 30.013C95.114 30.013 94.188 30.013 93.903 30.013C93.618 30.013 93.548 30.333 93.548 30.333C93.548 30.333 93.548 32.149 93.548 32.576C93.548 33.003 93.939 32.968 93.939 32.968C111.777 32.968 111.777 32.968 111.777 32.968C111.777 32.968 111.777 33.929 111.777 34.213C111.777 34.499 112.025 34.676 112.203 34.676C112.382 34.676 133.28 34.676 136.698 34.676C140.116 34.676 143.036 31.686 143.036 29.905C143.036 9.154 143.036 9.154 143.036 9.154C143.036 7.375 140.116 4.384 136.698 4.384C133.28 4.384 112.382 4.384 112.203 4.384C112.025 4.384 111.777 4.562 111.777 4.846C111.777 5.131 111.777 6.092 111.777 6.092C93.939 6.092 93.939 6.092 93.939 6.092C93.939 6.092 93.548 6.057 93.548 6.485C93.548 6.911 93.548 8.727 93.548 8.727C93.548 8.727 93.618 9.048 93.903 9.048C94.188 9.048 95.114 9.048 95.114 9.048"/>
 <path stroke-width="0.25" stroke-linecap="butt" d="M134.063 34.64C134.776 34.64 136.983 35.816 138.514 35.816C140.044 35.816 140.508 35.816 141.219 35.816C141.931 35.816 143.319 35.389 143.319 33.716C143.319 32.042 143.498 30.902 143.533 29.977C143.569 29.051 143.818 21.184 143.818 19.475"/>
 <path stroke-width="0.131" stroke-linecap="butt" d="M128.723 31.873C128.723 31.652 128.544 31.472 128.323 31.472C126.524 31.472 126.524 31.472 126.524 31.472C126.304 31.472 126.123 31.652 126.123 31.873C126.123 33.137 126.123 33.137 126.123 33.137C126.123 33.359 126.304 33.537 126.524 33.537C128.323 33.537 128.323 33.537 128.323 33.537C128.544 33.537 128.723 33.359 128.723 33.137C128.723 31.873 128.723 31.873 128.723 31.873z"/>
 <path stroke-width="0.131" stroke-linecap="butt" d="M134.205 31.722C133.992 31.722 133.92 31.971 133.92 32.149C133.92 32.326 133.92 33.075 133.92 33.253C133.92 33.43 133.992 33.502 134.241 33.502C134.491 33.502 137.48 33.502 137.908 33.502C138.336 33.502 138.799 33.253 139.474 32.932C140.151 32.612 140.65 31.829 140.116 31.829C139.581 31.829 134.205 31.722 134.205 31.722L134.205 31.722z"/>
 <path stroke-width="0.131" stroke-linecap="butt" d="M135.417 31.686C135.239 31.686 135.132 31.544 135.132 31.365C135.132 31.187 135.132 30.083 135.132 30.083"/>
 <path stroke-width="0.131" stroke-linecap="butt" d="M138.086 31.65C138.264 31.65 138.443 31.437 138.443 31.329C138.443 31.224 138.443 29.977 138.443 29.977"/>
 <path stroke-width="0.131" stroke-linecap="butt" d="M138.514 30.368C138.514 30.368 140.258 30.368 140.65 30.368C141.042 30.368 141.361 30.19 141.361 29.8C141.361 29.408 141.361 27.734 141.361 27.734"/>
 <path stroke-width="0.131" stroke-linecap="butt" d="M139.902 27.769C139.902 27.769 142.502 27.769 142.715 27.769C142.929 27.769 143.07 27.484 143.07 27.484C143.07 11.576 143.07 11.576 143.07 11.576C143.07 11.576 142.929 11.291 142.715 11.291C142.502 11.291 139.902 11.291 139.902 11.291"/>
 <path stroke-width="0.131" stroke-linecap="butt" d="M141.149 28.196C141.042 28.196 139.902 28.196 139.902 28.196"/>
 <path stroke-width="0.25" stroke-linecap="butt" d="M97.615 32.875C97.615 32.875 97.615 31.099 97.615 30.852C97.615 30.603 98.808 29.908 99.168 29.908C99.528 29.908 115.722 29.908 115.722 29.908C115.722 29.908 115.722 31.414 115.722 31.617C115.722 31.818 115.834 31.954 116.06 31.954C116.284 31.954 119.007 31.954 119.164 31.954C119.322 31.954 119.433 31.841 119.433 31.638C119.433 31.437 119.433 29.996 119.433 29.996C119.433 29.996 139.362 29.996 139.587 29.996C139.812 29.996 139.879 29.839 139.879 29.548C139.879 9.513 139.879 9.513 139.879 9.513C139.879 9.221 139.812 9.064 139.587 9.064C139.362 9.064 119.433 9.064 119.433 9.064C119.433 9.064 119.433 7.625 119.433 7.421C119.433 7.219 119.322 7.107 119.164 7.107C119.007 7.107 116.284 7.107 116.06 7.107C115.834 7.107 115.722 7.242 115.722 7.445C115.722 7.647 115.722 9.153 115.722 9.153C115.722 9.153 99.528 9.153 99.168 9.153C98.808 9.153 97.615 8.457 97.615 8.21C97.615 7.961 97.615 6.184 97.615 6.184"/>
 <path stroke-width="0.25" stroke-linecap="butt" d="M95.884 32.944C96.042 32.786 96.334 32.335 96.334 32.066C96.334 6.995 96.334 6.995 96.334 6.995C96.334 6.724 96.042 6.275 95.884 6.118"/>
 <path stroke-width="0.25" stroke-linecap="butt" d="M94.585 32.948C95.055 32.948 95.174 32.36 95.174 31.949C95.174 7.112 95.174 7.112 95.174 7.112C95.174 6.7 95.055 6.113 94.585 6.113"/>
 <path stroke-width="0.25" stroke-linecap="butt" d="M98.349 30.126C98.643 30.538 98.7 30.772 99.112 30.772C99.524 30.772 100.054 30.772 100.7 30.772C101.346 30.772 101.759 30.009 102.346 30.009"/>
 <path stroke-width="0.25" stroke-linecap="butt" d="M111.805 32.915C111.805 32.915 111.805 30.914 111.805 30.757C111.805 30.6 112.075 30.376 112.322 30.376C112.569 30.376 115.673 30.376 115.673 30.376"/>
 <path stroke-width="0.131" stroke-linecap="butt" d="M115.447 31.477C113.397 31.477 113.397 31.477 113.397 31.477C113.177 31.477 112.996 31.655 112.996 31.876C112.996 33.438 112.996 33.438 112.996 33.438C112.996 33.658 113.177 33.838 113.397 33.838C118.037 33.838 118.037 33.838 118.037 33.838C118.259 33.838 118.438 33.658 118.438 33.438C118.438 32.173 118.438 32.173 118.438 32.173"/>
 <line stroke-width="0.131" stroke-linecap="butt" x1="116.212" y1="33.77" x2="116.212" y2="31.993"/>
 <path stroke-width="0.131" stroke-linecap="butt" d="M119.518 30.397C129.319 30.397 129.319 30.397 129.319 30.397C129.567 30.397 129.756 30.561 129.756 30.76C129.756 31.08 129.756 33.003 129.756 33.253C129.756 33.502 129.897 33.537 130.075 33.537C130.253 33.537 132.532 33.537 132.711 33.537C132.889 33.537 132.96 33.573 132.96 33.182C132.96 32.789 132.96 30.333 132.96 30.333C135.167 30.333 135.167 30.333 135.167 30.333"/>
 <polygon stroke-width="0.131" stroke-linecap="butt" points="132.693 30.286 130.062 30.286 130.062 31.746 132.693 31.746 132.693 30.286"/>
 <line stroke-width="0.131" stroke-linecap="butt" x1="129.792" y1="31.184" x2="132.895" y2="31.184"/>
 <line stroke-width="0.131" stroke-linecap="butt" x1="136.356" y1="33.456" x2="136.356" y2="31.792"/>
 <polygon stroke-width="0.131" stroke-linecap="butt" points="141.388 20.865 139.888 20.865 139.888 25.599 141.388 25.599 141.388 20.865"/>
 <line stroke-width="0.131" stroke-linecap="butt" x1="140.388" y1="25.57" x2="140.388" y2="20.954"/>
 <polygon stroke-width="0.131" stroke-linejoin="round" points="101.085 13.547 97.849 13.547 97.849 11.708 101.085 11.708 101.085 13.547"/>
 <polygon stroke-width="0.131" stroke-linejoin="round" points="105.444 13.547 102.209 13.547 102.209 11.708 105.444 11.708 105.444 13.547"/>
 <polygon stroke-width="0.131" stroke-linejoin="round" points="109.804 13.547 106.569 13.547 106.569 11.708 109.804 11.708 109.804 13.547"/>
 <polygon stroke-width="0.131" stroke-linejoin="round" points="114.164 13.547 110.927 13.547 110.927 11.708 114.164 11.708 114.164 13.547"/>
 <polygon stroke-width="0.131" stroke-linejoin="round" points="118.522 13.547 115.287 13.547 115.287 11.708 118.522 11.708 118.522 13.547"/>
 <polygon stroke-width="0.131" stroke-linejoin="round" points="122.882 13.547 119.647 13.547 119.647 11.708 122.882 11.708 122.882 13.547"/>
 <polygon stroke-width="0.131" stroke-linejoin="round" points="127.242 13.547 124.006 13.547 124.006 11.708 127.242 11.708 127.242 13.547"/>
 <polygon stroke-width="0.131" stroke-linejoin="round" points="131.6 13.547 128.366 13.547 128.366 11.708 131.6 11.708 131.6 13.547"/>
 <polygon stroke-width="0.131" stroke-linejoin="round" points="135.961 13.547 132.724 13.547 132.724 11.708 135.961 11.708 135.961 13.547"/>
 <polygon stroke-width="0.131" stroke-linejoin="round" points="101.085 18.065 97.849 18.065 97.849 16.227 101.085 16.227 101.085 18.065"/>
 <polygon stroke-width="0.131" stroke-linejoin="round" points="105.444 18.065 102.209 18.065 102.209 16.227 105.444 16.227 105.444 18.065"/>
 <polygon stroke-width="0.131" stroke-linejoin="round" points="109.804 18.065 106.569 18.065 106.569 16.227 109.804 16.227 109.804 18.065"/>
 <polygon stroke-width="0.131" stroke-linejoin="round" points="114.164 18.065 110.927 18.065 110.927 16.227 114.164 16.227 114.164 18.065"/>
 <polygon stroke-width="0.131" stroke-linejoin="round" points="118.522 18.065 115.287 18.065 115.287 16.227 118.522 16.227 118.522 18.065"/>
 <polygon stroke-width="0.131" stroke-linejoin="round" points="122.882 18.065 119.647 18.065 119.647 16.227 122.882 16.227 122.882 18.065"/>
 <polygon stroke-width="0.131" stroke-linejoin="round" points="127.242 18.065 124.006 18.065 124.006 16.227 127.242 16.227 127.242 18.065"/>
 <polygon stroke-width="0.131" stroke-linejoin="round" points="131.6 18.065 128.366 18.065 128.366 16.227 131.6 16.227 131.6 18.065"/>
 <polygon stroke-width="0.131" stroke-linejoin="round" points="135.961 18.065 132.724 18.065 132.724 16.227 135.961 16.227 135.961 18.065"/>
 <polygon stroke-width="0.131" stroke-linejoin="round" points="101.085 27.265 97.849 27.265 97.849 25.426 101.085 25.426 101.085 27.265"/>
 <polygon stroke-width="0.131" stroke-linejoin="round" points="105.444 27.265 102.209 27.265 102.209 25.426 105.444 25.426 105.444 27.265"/>
 <polygon stroke-width="0.131" stroke-linejoin="round" points="109.804 27.265 106.569 27.265 106.569 25.426 109.804 25.426 109.804 27.265"/>
 <polygon stroke-width="0.131" stroke-linejoin="round" points="114.164 27.265 110.927 27.265 110.927 25.426 114.164 25.426 114.164 27.265"/>
 <polygon stroke-width="0.131" stroke-linejoin="round" points="118.522 27.265 115.287 27.265 115.287 25.426 118.522 25.426 118.522 27.265"/>
 <polygon stroke-width="0.131" stroke-linejoin="round" points="122.882 27.265 119.647 27.265 119.647 25.426 122.882 25.426 122.882 27.265"/>
 <polygon stroke-width="0.131" stroke-linejoin="round" points="127.242 27.265 124.006 27.265 124.006 25.426 127.242 25.426 127.242 27.265"/>
 <polygon stroke-width="0.131" stroke-linejoin="round" points="131.6 27.265 128.366 27.265 128.366 25.426 131.6 25.426 131.6 27.265"/>
 <polygon stroke-width="0.131" stroke-linejoin="round" points="135.961 27.265 132.724 27.265 132.724 25.426 135.961 25.426 135.961 27.265"/>
 <polygon stroke-width="0.131" stroke-linejoin="round" points="101.085 22.6 97.849 22.6 97.849 20.76 101.085 20.76 101.085 22.6"/>
 <polygon stroke-width="0.131" stroke-linejoin="round" points="105.444 22.6 102.209 22.6 102.209 20.76 105.444 20.76 105.444 22.6"/>
 <polygon stroke-width="0.131" stroke-linejoin="round" points="109.804 22.6 106.569 22.6 106.569 20.76 109.804 20.76 109.804 22.6"/>
 <polygon stroke-width="0.131" stroke-linejoin="round" points="114.164 22.6 110.927 22.6 110.927 20.76 114.164 20.76 114.164 22.6"/>
 <polygon stroke-width="0.131" stroke-linejoin="round" points="118.522 22.6 115.287 22.6 115.287 20.76 118.522 20.76 118.522 22.6"/>
 <polygon stroke-width="0.131" stroke-linejoin="round" points="122.882 22.6 119.647 22.6 119.647 20.76 122.882 20.76 122.882 22.6"/>
 <polygon stroke-width="0.131" stroke-linejoin="round" points="127.242 22.6 124.006 22.6 124.006 20.76 127.242 20.76 127.242 22.6"/>
 <polygon stroke-width="0.131" stroke-linejoin="round" points="131.6 22.6 128.366 22.6 128.366 20.76 131.6 20.76 131.6 22.6"/>
 <polygon stroke-width="0.131" stroke-linejoin="round" points="135.961 22.6 132.724 22.6 132.724 20.76 135.961 20.76 135.961 22.6"/>
 <polyline stroke-width="0.25" stroke-linejoin="round" points="11.897 6.347 13.778 6.347 13.778 7.464 15.602 7.464 15.596 6.347 19.42 6.347 19.42 7.464 21.242 7.464"/>
 <polyline stroke-width="0.25" stroke-linejoin="round" points="21.205 7.464 21.201 6.347 25.024 6.347 25.024 7.464 26.847 7.464 26.841 6.347 30.664 6.347 30.664 7.464 32.487 7.464 32.482 6.347 36.305 6.347 36.305 7.464 38.128 7.464 38.122 6.347 41.945 6.347 41.945 7.464 43.768 7.464 43.764 6.347 47.587 6.347 47.587 7.464 49.409 7.464 49.405 6.347 53.228 6.347 53.228 7.464 55.049 7.464 55.045 6.347 58.868 6.347 58.868 7.464 60.691 7.464"/>
 <path stroke-width="0.131" stroke-linejoin="round" d="M63.131 17.711C63.027 17.75 62.906 17.768 62.771 17.768C62.228 17.768 61.933 17.768 61.933 17.768C61.933 16.285 61.933 16.285 61.933 16.285"/>
 <path stroke-width="0.25" stroke-linejoin="round" d="M60.691 7.464C60.686 6.347 60.686 6.347 60.686 6.347C63.607 6.347 63.607 6.347 63.607 6.347C63.607 16.931 63.607 16.931 63.607 16.931C63.607 17.327 63.442 17.6 63.131 17.711"/>
 <polyline stroke-width="0.25" stroke-linejoin="round" points="62.973 30.219 61.726 30.219 61.726 29.102 59.904 29.102 59.908 30.219 56.085 30.219 56.085 29.102 54.264 29.102"/>
 <polyline stroke-width="0.25" stroke-linejoin="round" points="54.299 29.102 54.304 30.219 50.481 30.219 50.481 29.102 48.658 29.102 48.664 30.219 44.841 30.219 44.841 29.102 43.018 29.102 43.023 30.219 39.2 30.219 39.2 29.102 37.378 29.102 37.383 30.219 33.56 30.219 33.56 29.102 31.736 29.102 31.742 30.219 27.919 30.219 27.919 29.102 26.096 29.102 26.1 30.219 22.277 30.219 22.277 29.102 20.455 29.102 20.46 30.219 16.638 30.219 16.638 29.102 14.814 29.102 14.82 30.219 12.544 30.219"/>
 <polyline stroke-width="0.131" stroke-linejoin="round" points="61.933 16.285 60.201 16.285 60.201 17.637 56.276 17.637 56.276 16.32"/>
 <polyline stroke-width="0.131" stroke-linejoin="round" points="56.276 16.285 54.543 16.285 54.543 17.637 50.618 17.637 50.618 16.32"/>
 <polyline stroke-width="0.131" stroke-linejoin="round" points="50.618 16.285 48.887 16.285 48.887 17.637 44.96 17.637 44.96 16.32"/>
 <polyline stroke-width="0.131" stroke-linejoin="round" points="44.96 16.285 43.228 16.285 43.228 17.637 39.302 17.637 39.302 16.32"/>
 <polyline stroke-width="0.131" stroke-linejoin="round" points="39.302 16.285 37.572 16.285 37.572 17.637 33.646 17.637 33.646 16.32"/>
 <polyline stroke-width="0.131" stroke-linejoin="round" points="33.646 16.285 31.914 16.285 31.914 17.637 27.987 17.637 27.987 16.32"/>
 <polyline stroke-width="0.131" stroke-linejoin="round" points="27.987 16.285 26.257 16.285 26.257 17.637 22.33 17.637 22.33 16.32"/>
 <polyline stroke-width="0.131" stroke-linejoin="round" points="22.33 16.285 20.599 16.285 20.599 17.637 16.673 17.637 16.673 16.32"/>
 <polyline stroke-width="0.25" stroke-linejoin="round" points="12.227 17.637 11.715 17.637 11.715 6.347"/>
 <polyline stroke-width="0.131" stroke-linejoin="round" points="16.673 16.285 14.942 16.285 14.942 17.637 12.227 17.637"/>
 <polygon stroke-width="0.131" stroke-linejoin="round" points="17.321 10.272 13.132 10.272 13.132 7.892 17.321 7.892 17.321 10.272"/>
 <polygon stroke-width="0.131" stroke-linejoin="round" points="16.094 9.576 14.359 9.576 14.359 8.589 16.094 8.589 16.094 9.576"/>
 <polygon stroke-width="0.131" stroke-linejoin="round" points="22.966 10.272 18.777 10.272 18.777 7.892 22.966 7.892 22.966 10.272"/>
 <polygon stroke-width="0.131" stroke-linejoin="round" points="21.739 9.576 20.003 9.576 20.003 8.589 21.739 8.589 21.739 9.576"/>
 <polygon stroke-width="0.131" stroke-linejoin="round" points="28.611 10.272 24.42 10.272 24.42 7.892 28.611 7.892 28.611 10.272"/>
 <polygon stroke-width="0.131" stroke-linejoin="round" points="27.384 9.576 25.647 9.576 25.647 8.589 27.384 8.589 27.384 9.576"/>
 <polygon stroke-width="0.131" stroke-linejoin="round" points="34.255 10.272 30.065 10.272 30.065 7.892 34.255 7.892 34.255 10.272"/>
 <polygon stroke-width="0.131" stroke-linejoin="round" points="33.029 9.576 31.292 9.576 31.292 8.589 33.029 8.589 33.029 9.576"/>
 <polygon stroke-width="0.131" stroke-linejoin="round" points="39.899 10.272 35.71 10.272 35.71 7.892 39.899 7.892 39.899 10.272"/>
 <polygon stroke-width="0.131" stroke-linejoin="round" points="38.673 9.576 36.936 9.576 36.936 8.589 38.673 8.589 38.673 9.576"/>
 <polygon stroke-width="0.131" stroke-linejoin="round" points="45.543 10.272 41.354 10.272 41.354 7.892 45.543 7.892 45.543 10.272"/>
 <polygon stroke-width="0.131" stroke-linejoin="round" points="44.317 9.576 42.581 9.576 42.581 8.589 44.317 8.589 44.317 9.576"/>
 <polygon stroke-width="0.131" stroke-linejoin="round" points="51.188 10.272 46.999 10.272 46.999 7.892 51.188 7.892 51.188 10.272"/>
 <polygon stroke-width="0.131" stroke-linejoin="round" points="49.962 9.576 48.225 9.576 48.225 8.589 49.962 8.589 49.962 9.576"/>
 <polygon stroke-width="0.131" stroke-linejoin="round" points="56.832 10.272 52.643 10.272 52.643 7.892 56.832 7.892 56.832 10.272"/>
 <polygon stroke-width="0.131" stroke-linejoin="round" points="55.606 9.576 53.869 9.576 53.869 8.589 55.606 8.589 55.606 9.576"/>
 <polygon stroke-width="0.131" stroke-linejoin="round" points="62.476 10.272 58.287 10.272 58.287 7.892 62.476 7.892 62.476 10.272"/>
 <polygon stroke-width="0.131" stroke-linejoin="round" points="61.25 9.576 59.514 9.576 59.514 8.589 61.25 8.589 61.25 9.576"/>
 <polygon stroke-width="0.131" stroke-linejoin="round" points="17.321 16.123 13.132 16.123 13.132 13.742 17.321 13.742 17.321 16.123"/>
 <polygon stroke-width="0.131" stroke-linejoin="round" points="16.094 15.426 14.359 15.426 14.359 14.439 16.094 14.439 16.094 15.426"/>
 <polygon stroke-width="0.131" stroke-linejoin="round" points="22.966 16.123 18.777 16.123 18.777 13.742 22.966 13.742 22.966 16.123"/>
 <polygon stroke-width="0.131" stroke-linejoin="round" points="21.739 15.426 20.003 15.426 20.003 14.439 21.739 14.439 21.739 15.426"/>
 <polygon stroke-width="0.131" stroke-linejoin="round" points="28.611 16.123 24.42 16.123 24.42 13.742 28.611 13.742 28.611 16.123"/>
 <polygon stroke-width="0.131" stroke-linejoin="round" points="27.384 15.426 25.647 15.426 25.647 14.439 27.384 14.439 27.384 15.426"/>
 <polygon stroke-width="0.131" stroke-linejoin="round" points="34.255 16.123 30.065 16.123 30.065 13.742 34.255 13.742 34.255 16.123"/>
 <polygon stroke-width="0.131" stroke-linejoin="round" points="33.029 15.426 31.292 15.426 31.292 14.439 33.029 14.439 33.029 15.426"/>
 <polygon stroke-width="0.131" stroke-linejoin="round" points="39.899 16.123 35.71 16.123 35.71 13.742 39.899 13.742 39.899 16.123"/>
 <polygon stroke-width="0.131" stroke-linejoin="round" points="38.673 15.426 36.936 15.426 36.936 14.439 38.673 14.439 38.673 15.426"/>
 <polygon stroke-width="0.131" stroke-linejoin="round" points="45.543 16.123 41.354 16.123 41.354 13.742 45.543 13.742 45.543 16.123"/>
 <polygon stroke-width="0.131" stroke-linejoin="round" points="44.317 15.426 42.581 15.426 42.581 14.439 44.317 14.439 44.317 15.426"/>
 <polygon stroke-width="0.131" stroke-linejoin="round" points="51.188 16.123 46.999 16.123 46.999 13.742 51.188 13.742 51.188 16.123"/>
 <polygon stroke-width="0.131" stroke-linejoin="round" points="49.962 15.426 48.225 15.426 48.225 14.439 49.962 14.439 49.962 15.426"/>
 <polygon stroke-width="0.131" stroke-linejoin="round" points="56.832 16.123 52.643 16.123 52.643 13.742 56.832 13.742 56.832 16.123"/>
 <polygon stroke-width="0.131" stroke-linejoin="round" points="55.606 15.426 53.869 15.426 53.869 14.439 55.606 14.439 55.606 15.426"/>
 <polygon stroke-width="0.131" stroke-linejoin="round" points="62.476 16.123 58.287 16.123 58.287 13.742 62.476 13.742 62.476 16.123"/>
 <polygon stroke-width="0.131" stroke-linejoin="round" points="61.25 15.426 59.514 15.426 59.514 14.439 61.25 14.439 61.25 15.426"/>
 <polygon stroke-width="0.131" stroke-linejoin="round" points="17.321 28.035 13.132 28.035 13.132 25.653 17.321 25.653 17.321 28.035"/>
 <polygon stroke-width="0.131" stroke-linejoin="round" points="16.094 27.338 14.359 27.338 14.359 26.35 16.094 26.35 16.094 27.338"/>
 <polygon stroke-width="0.131" stroke-linejoin="round" points="22.966 28.035 18.777 28.035 18.777 25.653 22.966 25.653 22.966 28.035"/>
 <polygon stroke-width="0.131" stroke-linejoin="round" points="21.739 27.338 20.003 27.338 20.003 26.35 21.739 26.35 21.739 27.338"/>
 <polygon stroke-width="0.131" stroke-linejoin="round" points="28.611 28.035 24.42 28.035 24.42 25.653 28.611 25.653 28.611 28.035"/>
 <polygon stroke-width="0.131" stroke-linejoin="round" points="27.384 27.338 25.647 27.338 25.647 26.35 27.384 26.35 27.384 27.338"/>
 <polygon stroke-width="0.131" stroke-linejoin="round" points="34.255 28.035 30.065 28.035 30.065 25.653 34.255 25.653 34.255 28.035"/>
 <polygon stroke-width="0.131" stroke-linejoin="round" points="33.029 27.338 31.292 27.338 31.292 26.35 33.029 26.35 33.029 27.338"/>
 <polygon stroke-width="0.131" stroke-linejoin="round" points="39.899 28.035 35.71 28.035 35.71 25.653 39.899 25.653 39.899 28.035"/>
 <polygon stroke-width="0.131" stroke-linejoin="round" points="38.673 27.338 36.936 27.338 36.936 26.35 38.673 26.35 38.673 27.338"/>
 <polygon stroke-width="0.131" stroke-linejoin="round" points="45.543 28.035 41.354 28.035 41.354 25.653 45.543 25.653 45.543 28.035"/>
 <polygon stroke-width="0.131" stroke-linejoin="round" points="44.317 27.338 42.581 27.338 42.581 26.35 44.317 26.35 44.317 27.338"/>
 <polygon stroke-width="0.131" stroke-linejoin="round" points="51.188 28.035 46.999 28.035 46.999 25.653 51.188 25.653 51.188 28.035"/>
 <polygon stroke-width="0.131" stroke-linejoin="round" points="49.962 27.338 48.225 27.338 48.225 26.35 49.962 26.35 49.962 27.338"/>
 <polygon stroke-width="0.131" stroke-linejoin="round" points="56.832 28.035 52.643 28.035 52.643 25.653 56.832 25.653 56.832 28.035"/>
 <polygon stroke-width="0.131" stroke-linejoin="round" points="55.606 27.338 53.869 27.338 53.869 26.35 55.606 26.35 55.606 27.338"/>
 <polygon stroke-width="0.131" stroke-linejoin="round" points="62.476 28.035 58.287 28.035 58.287 25.653 62.476 25.653 62.476 28.035"/>
 <polygon stroke-width="0.131" stroke-linejoin="round" points="61.25 27.338 59.514 27.338 59.514 26.35 61.25 26.35 61.25 27.338"/>
 <polygon stroke-width="0.131" stroke-linejoin="round" points="17.321 22.263 13.132 22.263 13.132 19.881 17.321 19.881 17.321 22.263"/>
 <polygon stroke-width="0.131" stroke-linejoin="round" points="16.094 21.565 14.359 21.565 14.359 20.579 16.094 20.579 16.094 21.565"/>
 <polygon stroke-width="0.131" stroke-linejoin="round" points="22.966 22.263 18.777 22.263 18.777 19.881 22.966 19.881 22.966 22.263"/>
 <polygon stroke-width="0.131" stroke-linejoin="round" points="21.739 21.565 20.003 21.565 20.003 20.579 21.739 20.579 21.739 21.565"/>
 <polygon stroke-width="0.131" stroke-linejoin="round" points="28.611 22.263 24.42 22.263 24.42 19.881 28.611 19.881 28.611 22.263"/>
 <polygon stroke-width="0.131" stroke-linejoin="round" points="27.384 21.565 25.647 21.565 25.647 20.579 27.384 20.579 27.384 21.565"/>
 <polygon stroke-width="0.131" stroke-linejoin="round" points="34.255 22.263 30.065 22.263 30.065 19.881 34.255 19.881 34.255 22.263"/>
 <polygon stroke-width="0.131" stroke-linejoin="round" points="33.029 21.565 31.292 21.565 31.292 20.579 33.029 20.579 33.029 21.565"/>
 <polygon stroke-width="0.131" stroke-linejoin="round" points="39.899 22.263 35.71 22.263 35.71 19.881 39.899 19.881 39.899 22.263"/>
 <polygon stroke-width="0.131" stroke-linejoin="round" points="38.673 21.565 36.936 21.565 36.936 20.579 38.673 20.579 38.673 21.565"/>
 <polygon stroke-width="0.131" stroke-linejoin="round" points="45.543 22.263 41.354 22.263 41.354 19.881 45.543 19.881 45.543 22.263"/>
 <polygon stroke-width="0.131" stroke-linejoin="round" points="44.317 21.565 42.581 21.565 42.581 20.579 44.317 20.579 44.317 21.565"/>
 <polygon stroke-width="0.131" stroke-linejoin="round" points="51.188 22.263 46.999 22.263 46.999 19.881 51.188 19.881 51.188 22.263"/>
 <polygon stroke-width="0.131" stroke-linejoin="round" points="49.962 21.565 48.225 21.565 48.225 20.579 49.962 20.579 49.962 21.565"/>
 <polygon stroke-width="0.131" stroke-linejoin="round" points="56.832 22.263 52.643 22.263 52.643 19.881 56.832 19.881 56.832 22.263"/>
 <polygon stroke-width="0.131" stroke-linejoin="round" points="55.606 21.565 53.869 21.565 53.869 20.579 55.606 20.579 55.606 21.565"/>
 <polygon stroke-width="0.131" stroke-linejoin="round" points="62.476 22.263 58.287 22.263 58.287 19.881 62.476 19.881 62.476 22.263"/>
 <polygon stroke-width="0.131" stroke-linejoin="round" points="61.25 21.565 59.514 21.565 59.514 20.579 61.25 20.579 61.25 21.565"/>
 <polygon stroke-width="0.131" stroke-linejoin="round" points="16.786 11.721 14.925 11.721 14.925 10.397 16.786 10.397 16.786 11.721"/>
 <polygon stroke-width="0.131" stroke-linejoin="round" points="22.371 11.721 20.51 11.721 20.51 10.397 22.371 10.397 22.371 11.721"/>
 <polygon stroke-width="0.131" stroke-linejoin="round" points="27.957 11.721 26.096 11.721 26.096 10.397 27.957 10.397 27.957 11.721"/>
 <polygon stroke-width="0.131" stroke-linejoin="round" points="33.542 11.721 31.681 11.721 31.681 10.397 33.542 10.397 33.542 11.721"/>
 <polygon stroke-width="0.131" stroke-linejoin="round" points="39.128 11.721 37.265 11.721 37.265 10.397 39.128 10.397 39.128 11.721"/>
 <polygon stroke-width="0.131" stroke-linejoin="round" points="44.713 11.721 42.851 11.721 42.851 10.397 44.713 10.397 44.713 11.721"/>
 <polygon stroke-width="0.131" stroke-linejoin="round" points="50.298 11.721 48.436 11.721 48.436 10.397 50.298 10.397 50.298 11.721"/>
 <polygon stroke-width="0.131" stroke-linejoin="round" points="55.884 11.721 54.021 11.721 54.021 10.397 55.884 10.397 55.884 11.721"/>
 <polygon stroke-width="0.131" stroke-linejoin="round" points="61.469 11.721 59.607 11.721 59.607 10.397 61.469 10.397 61.469 11.721"/>
 <polygon stroke-width="0.131" stroke-linejoin="round" points="15.66 13.756 13.798 13.756 13.798 12.432 15.66 12.432 15.66 13.756"/>
 <polygon stroke-width="0.131" stroke-linejoin="round" points="21.245 13.756 19.384 13.756 19.384 12.432 21.245 12.432 21.245 13.756"/>
 <polygon stroke-width="0.131" stroke-linejoin="round" points="26.83 13.756 24.969 13.756 24.969 12.432 26.83 12.432 26.83 13.756"/>
 <polygon stroke-width="0.131" stroke-linejoin="round" points="32.417 13.756 30.554 13.756 30.554 12.432 32.417 12.432 32.417 13.756"/>
 <polygon stroke-width="0.131" stroke-linejoin="round" points="38.002 13.756 36.14 13.756 36.14 12.432 38.002 12.432 38.002 13.756"/>
 <polygon stroke-width="0.131" stroke-linejoin="round" points="43.588 13.756 41.725 13.756 41.725 12.432 43.588 12.432 43.588 13.756"/>
 <polygon stroke-width="0.131" stroke-linejoin="round" points="49.173 13.756 47.31 13.756 47.31 12.432 49.173 12.432 49.173 13.756"/>
 <polygon stroke-width="0.131" stroke-linejoin="round" points="54.758 13.756 52.896 13.756 52.896 12.432 54.758 12.432 54.758 13.756"/>
 <polygon stroke-width="0.131" stroke-linejoin="round" points="60.344 13.756 58.481 13.756 58.481 12.432 60.344 12.432 60.344 13.756"/>
 <polygon stroke-width="0.131" stroke-linejoin="round" points="15.506 19.576 13.721 19.576 13.721 18.518 15.506 18.518 15.506 19.576"/>
 <polygon stroke-width="0.131" stroke-linejoin="round" points="21.163 19.576 19.376 19.576 19.376 18.518 21.163 18.518 21.163 19.576"/>
 <polygon stroke-width="0.131" stroke-linejoin="round" points="26.82 19.576 25.033 19.576 25.033 18.518 26.82 18.518 26.82 19.576"/>
 <polygon stroke-width="0.131" stroke-linejoin="round" points="32.475 19.576 30.69 19.576 30.69 18.518 32.475 18.518 32.475 19.576"/>
 <polygon stroke-width="0.131" stroke-linejoin="round" points="38.131 19.576 36.345 19.576 36.345 18.518 38.131 18.518 38.131 19.576"/>
 <polygon stroke-width="0.131" stroke-linejoin="round" points="43.789 19.576 42.002 19.576 42.002 18.518 43.789 18.518 43.789 19.576"/>
 <polygon stroke-width="0.131" stroke-linejoin="round" points="49.445 19.576 47.658 19.576 47.658 18.518 49.445 18.518 49.445 19.576"/>
 <polygon stroke-width="0.131" stroke-linejoin="round" points="55.1 19.576 53.314 19.576 53.314 18.518 55.1 18.518 55.1 19.576"/>
 <polygon stroke-width="0.131" stroke-linejoin="round" points="60.758 19.576 58.97 19.576 58.97 18.518 60.758 18.518 60.758 19.576"/>
 <polygon stroke-width="0.131" stroke-linejoin="round" points="15.506 25.397 13.721 25.397 13.721 24.339 15.506 24.339 15.506 25.397"/>
 <polygon stroke-width="0.131" stroke-linejoin="round" points="21.163 25.397 19.376 25.397 19.376 24.339 21.163 24.339 21.163 25.397"/>
 <polygon stroke-width="0.131" stroke-linejoin="round" points="26.82 25.397 25.033 25.397 25.033 24.339 26.82 24.339 26.82 25.397"/>
 <polygon stroke-width="0.131" stroke-linejoin="round" points="32.475 25.397 30.69 25.397 30.69 24.339 32.475 24.339 32.475 25.397"/>
 <polygon stroke-width="0.131" stroke-linejoin="round" points="38.131 25.397 36.345 25.397 36.345 24.339 38.131 24.339 38.131 25.397"/>
 <polygon stroke-width="0.131" stroke-linejoin="round" points="43.789 25.397 42.002 25.397 42.002 24.339 43.789 24.339 43.789 25.397"/>
 <polygon stroke-width="0.131" stroke-linejoin="round" points="49.445 25.397 47.658 25.397 47.658 24.339 49.445 24.339 49.445 25.397"/>
 <polygon stroke-width="0.131" stroke-linejoin="round" points="55.1 25.397 53.314 25.397 53.314 24.339 55.1 24.339 55.1 25.397"/>
 <polygon stroke-width="0.131" stroke-linejoin="round" points="60.758 25.397 58.97 25.397 58.97 24.339 60.758 24.339 60.758 25.397"/>
 <polyline stroke-width="0.131" stroke-linejoin="round" points="14.896 23.986 14.896 22.635 16.542 22.635 16.542 24.045 20.6 24.045"/>
 <polyline stroke-width="0.131" stroke-linejoin="round" points="20.6 23.986 20.6 22.635 22.245 22.635 22.245 24.045 26.303 24.045"/>
 <polyline stroke-width="0.131" stroke-linejoin="round" points="26.303 23.986 26.303 22.635 27.949 22.635 27.949 24.045 32.006 24.045"/>
 <polyline stroke-width="0.131" stroke-linejoin="round" points="32.006 23.986 32.006 22.635 33.652 22.635 33.652 24.045 37.71 24.045"/>
 <polyline stroke-width="0.131" stroke-linejoin="round" points="37.71 23.986 37.71 22.635 39.356 22.635 39.356 24.045 43.412 24.045"/>
 <polyline stroke-width="0.131" stroke-linejoin="round" points="43.412 23.986 43.412 22.635 45.06 22.635 45.06 24.045 49.116 24.045"/>
 <polyline stroke-width="0.131" stroke-linejoin="round" points="49.116 23.986 49.116 22.635 50.762 22.635 50.762 24.045 54.82 24.045"/>
 <polyline stroke-width="0.131" stroke-linejoin="round" points="54.82 23.986 54.82 22.635 56.466 22.635 56.466 24.045 60.523 24.045"/>
 <path stroke-width="0.131" stroke-linejoin="round" d="M11.705 23.847C11.765 24.033 11.957 24.045 12.054 24.045C12.169 24.045 14.891 24.045 14.891 24.045"/>
 <path stroke-width="0.25" stroke-linejoin="round" d="M12.259 17.818C12.022 17.844 11.686 17.978 11.686 18.236C11.686 18.525 11.686 23.41 11.686 23.718C11.686 23.768 11.693 23.812 11.705 23.847"/>
 <path stroke-width="0.25" stroke-linejoin="round" d="M63.302 17.684C63.277 17.684 63.253 17.682 63.226 17.682C62.698 17.682 12.695 17.682 12.343 17.682C12.317 17.682 12.289 17.684 12.259 17.687"/>
 <path stroke-width="0.25" stroke-linejoin="round" d="M63.509 23.678C63.603 23.503 63.649 23.28 63.649 23.045C63.649 22.516 63.649 18.754 63.649 18.343C63.649 17.954 63.323 17.827 62.902 17.815"/>
 <path stroke-width="0.131" stroke-linejoin="round" d="M60.523 23.986C60.523 22.635 60.523 22.635 60.523 22.635C62.17 22.635 62.17 22.635 62.17 22.635C62.17 24.045 62.17 24.045 62.17 24.045C62.923 24.045 62.923 24.045 62.923 24.045C63.198 24.045 63.392 23.899 63.509 23.678"/>
 <path stroke-width="0.25" stroke-linejoin="round" d="M62.973 30.219C63.445 30.219 63.573 30.042 63.573 29.338C63.573 28.632 63.573 23.811 63.573 23.811"/>
 <path stroke-width="0.25" stroke-linejoin="round" d="M11.721 23.986C11.721 23.986 11.721 29.102 11.721 29.396C11.721 29.69 12.132 30.219 12.544 30.219"/>
 <line stroke="#FFFFFF" stroke-width="1.058" stroke-linejoin="round" x1="14.715" y1="8.743" x2="8.852" y2="4.089"/>
 <line stroke="#FFFFFF" stroke-width="1.058" stroke-linejoin="round" x1="14.31" y1="14.829" x2="8.9" y2="13.182"/>
 <line stroke="#FFFFFF" stroke-width="1.058" stroke-linejoin="round" x1="14.106" y1="21.321" x2="9.208" y2="23.202"/>
 <line stroke="#FFFFFF" stroke-width="1.058" stroke-linejoin="round" x1="14.614" y1="27.204" x2="8.551" y2="31.873"/>
 <line stroke-width="0.131" stroke-linejoin="round" x1="14.715" y1="8.743" x2="8.852" y2="4.089"/>
 <line stroke-width="0.131" stroke-linejoin="round" x1="14.31" y1="14.829" x2="8.9" y2="13.182"/>
 <line stroke-width="0.131" stroke-linejoin="round" x1="14.106" y1="21.321" x2="9.208" y2="23.202"/>
 <line stroke-width="0.131" stroke-linejoin="round" x1="14.614" y1="27.204" x2="8.551" y2="31.873"/>
 <line stroke="#FFFFFF" stroke-width="1.058" stroke-linejoin="round" x1="60.426" y1="8.743" x2="69.793" y2="4.089"/>
 <line stroke="#FFFFFF" stroke-width="1.058" stroke-linejoin="round" x1="60.832" y1="14.829" x2="68.045" y2="13.083"/>
 <line stroke="#FFFFFF" stroke-width="1.058" stroke-linejoin="round" x1="61.036" y1="21.321" x2="67.536" y2="23.574"/>
 <line stroke="#FFFFFF" stroke-width="1.058" stroke-linejoin="round" x1="60.529" y1="27.204" x2="68.4" y2="31.923"/>
 <line stroke-width="0.131" stroke-linejoin="round" x1="60.426" y1="8.743" x2="69.793" y2="4.089"/>
 <line stroke-width="0.131" stroke-linejoin="round" x1="60.832" y1="14.829" x2="68.045" y2="13.083"/>
 <line stroke-width="0.131" stroke-linejoin="round" x1="61.036" y1="21.321" x2="67.536" y2="23.574"/>
 <line stroke-width="0.131" stroke-linejoin="round" x1="60.529" y1="27.204" x2="68.4" y2="31.923"/>
 <text x="5.86" y="5.16" stroke="none" fill="#000000" font-family="'Arial'" font-size="4.165">1</text>
 <text x="3.658" y="14.24" stroke="none" fill="#000000" font-family="'Arial'" font-size="4.165">10</text>
 <text x="3.658" y="25.501" stroke="none" fill="#000000" font-family="'Arial'" font-size="4.165">19</text>
 <text x="3.658" y="34.939" stroke="none" fill="#000000" font-family="'Arial'" font-size="4.165">28</text>
 <text x="70.704" y="5.16" stroke="none" fill="#000000" font-family="'Arial'" font-size="4.165">9</text>
 <text x="68.706" y="14.24" stroke="none" fill="#000000" font-family="'Arial'" font-size="4.165">18</text>
 <text x="68.706" y="25.501" stroke="none" fill="#000000" font-family="'Arial'" font-size="4.165">27</text>
 <text x="68.706" y="34.939" stroke="none" fill="#000000" font-family="'Arial'" font-size="4.165">36</text>
 <path stroke="#FFFFFF" stroke-width="1.058" stroke-linejoin="round" fill="#FFFFFF" d="M83.57 19.535L88.112 19.535 88.112 17.612 83.57 17.612 83.57 15.689 78.588 18.565 83.57 21.44 83.57 19.535z"/>
 <path stroke="none" fill="#000000" d="M83.57 19.535L88.112 19.535 88.112 17.612 83.57 17.612 83.57 15.689 78.588 18.565 83.57 21.44 83.57 19.535z"/>
 <path stroke-width="0.25" stroke-linejoin="round" d="M63.503 24.032C56.719 24.032 18.638 24.032 11.867 24.032"/>
</svg>
