<?xml version="1.0" encoding="utf-8"?>
<!DOCTYPE svg PUBLIC "-//W3C//DTD SVG 1.1//EN" "http://www.w3.org/Graphics/SVG/1.1/DTD/svg11.dtd">
<!-- Generator: PTC Arbortext IsoDraw 7.3 -->
<svg id="Standard_x0020_layer" width="100%" height="100%" viewBox="0 0 70.766 87.103"
 xmlns="http://www.w3.org/2000/svg" xmlns:xlink="http://www.w3.org/1999/xlink"
 fill-rule="evenodd" clip-rule="evenodd" stroke="#000000" stroke-linecap="round" fill="none" xml:space="preserve">
 <g>
  <path stroke="none" fill="#BFBFBF" d="M1.399 53.31L0.834 52.804C0.834 52.804 0.251 52.225 0.292 52.201 0.333 52.179 0.156 51.207 0.156 51.207L0.215 50.554 1.197 49.918 1.94 49.759C1.94 49.759 2.783 49.881 2.798 49.887 2.814 49.895 3.362 50.485 3.362 50.485L3.931 51.32 3.789 52.543 3.115 53.174 2.277 53.317"/>
 </g>
 <g>
  <path stroke="none" fill="#BFBFBF" d="M55.694 47.298L56.789 46.746 57.104 46.14 57.347 44.268 56.838 43.454 56.037 42.198 55.188 41.612 53.649 41.508 52.35 42.042 50.968 43.149 50.89 44.026 51.287 45.844C51.287 45.844 51.451 46.17 51.582 46.277 51.712 46.384 52.292 46.92 52.292 46.92L52.67 47.268 53.801 47.557"/>
 </g>
 <path stroke-width="0.3" d="M8.051 13.939L6.674 15.948L7.362 18.588C7.362 18.588 5.067 37.706 5.067 37.649C5.067 37.591 4.262 39.084 4.206 39.084C4.147 39.084 4.091 39.6 4.091 39.6L4.378 40.347C4.378 40.347 3.402 48.901 3.344 48.901C3.286 48.901 3.45 49.31 3.157 49.506C2.987 49.618 2.681 49.718 2.452 49.783"/>
 <path stroke-width="0.3" d="M3.287 53.018C3.326 53.92 3.431 56.423 3.431 56.439C3.431 56.459 3.588 56.771 3.254 56.85C2.922 56.929 2.628 56.732 2.628 56.732C2.628 56.732 2.217 56.713 2.256 57.125C2.294 57.536 2.882 58.691 2.863 58.671C2.843 58.652 5.31 60.337 5.487 60.493C5.663 60.649 36.53 81.978 36.53 81.978L42.642 86.561C42.642 86.561 43.268 86.953 43.895 86.953C44.521 86.953 46.167 86.287 46.637 85.778C47.106 85.269 47.106 85.269 47.106 85.269L49.536 78.1C49.536 78.1 50.084 76.495 50.633 76.417C51.18 76.337 51.651 76.337 51.651 76.337C51.651 76.337 54.511 65.487 54.472 65.487C54.432 65.487 52.982 64.43 52.982 64.43C52.982 64.43 56.313 52.012 57.369 49.152C58.427 46.293 59.094 42.219 58.701 40.378C58.31 38.537 58.662 35.326 59.171 33.405C59.68 31.486 62.109 22.202 62.109 22.202C62.109 22.202 63.167 20.949 63.207 20.243C63.246 19.539 63.284 18.167 63.284 18.167L63.088 14.916L64.028 10.922C64.028 10.922 64.734 10.06 64.734 9.394C64.734 8.727 63.167 7.434 62.384 7.121C61.6 6.809 59.798 6.495 59.798 6.495L11.461 0.463C11.461 0.463 9.894 -0.242 9.346 0.463C8.797 1.167 8.718 2.265 8.718 2.265L9.423 2.969L8.051 13.939"/>
 <line stroke-width="0.13" x1="4.735" y1="58.947" x2="43.03" y2="84.709"/>
 <line stroke-width="0.13" x1="43.03" y1="84.709" x2="51.287" y2="45.844"/>
 <line stroke-width="0.13" x1="52.061" y1="42.2" x2="59.043" y2="9.339"/>
 <line stroke-width="0.13" x1="58.609" y1="9.252" x2="11.263" y2="2.463"/>
 <line stroke-width="0.13" x1="11.263" y1="2.463" x2="4.735" y2="58.947"/>
 <line stroke-width="0.13" x1="70.7" y1="49.003" x2="62.976" y2="20.932"/>
 <line stroke-width="0.13" x1="70.7" y1="49.003" x2="68.393" y2="51.423"/>
 <line stroke-width="0.13" x1="68.393" y1="51.423" x2="67.388" y2="51.088"/>
 <line stroke-width="0.13" x1="67.388" y1="51.088" x2="63.716" y2="38.606"/>
 <line stroke-width="0.13" x1="63.384" y1="37.476" x2="60.594" y2="27.992"/>
 <line stroke-width="0.13" x1="61.002" y1="26.434" x2="64.144" y2="36.832"/>
 <line stroke-width="0.13" x1="64.483" y1="37.957" x2="68.515" y2="51.295"/>
 <line stroke-width="0.13" x1="65.222" y1="43.728" x2="60.088" y2="41.831"/>
 <line stroke-width="0.13" x1="64.841" y1="42.433" x2="60.795" y2="41.079"/>
 <line stroke-width="0.13" x1="59.598" y1="40.679" x2="58.701" y2="40.378"/>
 <line stroke-width="0.13" x1="63.99" y1="39.54" x2="63.012" y2="39.203"/>
 <line stroke-width="0.13" x1="61.828" y1="38.792" x2="58.552" y2="37.659"/>
 <line stroke-width="0.13" x1="62.494" y1="34.454" x2="59.171" y2="33.405"/>
 <line stroke-width="0.13" x1="62.006" y1="32.795" x2="59.496" y2="32.176"/>
 <line stroke-width="0.13" x1="61.231" y1="30.163" x2="60.103" y2="29.862"/>
 <line stroke-width="0.13" x1="65.671" y1="35.54" x2="58.808" y2="41.347"/>
 <path stroke-width="0.13" d="M65.856 35.466C65.856 35.466 66.527 35.838 66.228 36.286C65.932 36.731 65.932 36.731 65.932 36.731L58.768 42.795"/>
 <path stroke-width="0.13" d="M62.694 19.239C61.911 18.792 61.39 19.128 61.465 19.76C61.539 20.393 62.246 20.393 62.396 20.132"/>
 <path stroke-width="0.13" d="M59.798 6.495L61.948 8.596L64.734 9.394"/>
 <line stroke-width="0.13" x1="61.799" y1="9.489" x2="59.939" y2="17.304"/>
 <line stroke-width="0.13" x1="59.939" y1="17.304" x2="60.758" y2="18.271"/>
 <line stroke-width="0.13" x1="60.758" y1="18.271" x2="60.088" y2="21.025"/>
 <line stroke-width="0.13" x1="60.088" y1="21.025" x2="58.823" y2="21.844"/>
 <line stroke-width="0.13" x1="58.823" y1="21.844" x2="56.218" y2="37.179"/>
 <path stroke-width="0.13" d="M56.218 37.179C56.841 38.987 57.518 42.051 57.237 43.96"/>
 <path stroke-width="0.13" d="M55.518 47.357C55.066 48.052 54.689 48.609 54.579 48.865C54.356 49.386 44.978 85.561 44.978 85.561"/>
 <path stroke-width="0.3" d="M56.037 42.198C55.301 41.237 53.637 41.408 53.158 41.649C52.679 41.889 50.912 42.609 50.878 43.466C50.844 44.323 51.101 45.883 51.582 46.277C52.061 46.67 52.146 46.722 52.404 47.064C52.661 47.408 53.673 47.597 54.118 47.563C54.564 47.527 55.472 47.476 56.054 47.134C56.637 46.79 57.152 46.396 57.185 45.78C57.22 45.162 57.581 44.289 57.152 43.843C56.723 43.398 56.037 42.198 56.037 42.198z"/>
 <path stroke-width="0.13" d="M53.158 42.454C54.186 42.301 56.106 42.762 56.003 44.116C55.901 45.47 56.037 45.762 55.454 46.173C54.872 46.585 54.237 47.356 53.707 47.116"/>
 <path stroke-width="0.13" d="M58.707 17.117L57.515 18.329"/>
 <path stroke-width="0.13" d="M57.515 18.329C57.27 18.76 57.167 18.986 57.393 19.417C57.618 19.847 58.378 21.428 58.378 21.428"/>
 <line stroke-width="0.13" x1="58.542" y1="21.346" x2="59.28" y2="17.652"/>
 <path stroke-width="0.13" d="M49.929 59.36L48.417 61.252C48.417 61.252 48.039 61.441 48.337 62.115C48.634 62.79 49.228 64.114 49.228 64.114L50.118 60.71"/>
 <line stroke-width="0.13" x1="52.982" y1="64.43" x2="52.752" y2="65.65"/>
 <line stroke-width="0.13" x1="52.752" y1="65.65" x2="54.441" y2="65.634"/>
 <line stroke-width="0.13" x1="52.752" y1="65.65" x2="50.134" y2="76.117"/>
 <path stroke-width="0.13" d="M2.907 57.216C2.907 57.216 2.593 57.32 2.664 57.597C2.733 57.875 2.94 58.048 3.115 57.805"/>
 <line stroke-width="0.13" x1="5.067" y1="37.649" x2="5.859" y2="36.759"/>
 <line stroke-width="0.13" x1="5.859" y1="36.759" x2="5.442" y2="40.787"/>
 <line stroke-width="0.13" x1="8.051" y1="13.939" x2="8.336" y2="13.531"/>
 <line stroke-width="0.13" x1="8.336" y1="13.531" x2="8.554" y2="13.551"/>
 <line stroke-width="0.13" x1="8.554" y1="13.551" x2="7.94" y2="18.739"/>
 <line stroke-width="0.13" x1="58.091" y1="9.71" x2="35.746" y2="6.402"/>
 <line stroke-width="0.13" x1="58.051" y1="10.486" x2="36.89" y2="7.177"/>
 <line stroke-width="0.13" x1="57.804" y1="11.384" x2="38.606" y2="8.281"/>
 <line stroke-width="0.13" x1="57.723" y1="12.16" x2="42.118" y2="9.464"/>
 <line stroke-width="0.13" x1="57.478" y1="13.06" x2="43.426" y2="10.609"/>
 <line stroke-width="0.13" x1="57.274" y1="14.121" x2="44.57" y2="11.67"/>
 <line stroke-width="0.13" x1="57.274" y1="14.856" x2="46.49" y2="12.774"/>
 <line stroke-width="0.13" x1="56.987" y1="15.714" x2="48.002" y2="13.877"/>
 <line stroke-width="0.13" x1="57.029" y1="16.655" x2="50.656" y2="15.266"/>
 <line stroke-width="0.13" x1="56.825" y1="17.472" x2="51.759" y2="16.41"/>
 <line stroke-width="0.13" x1="56.579" y1="18.289" x2="52.372" y2="17.266"/>
 <line stroke-width="0.13" x1="56.497" y1="19.065" x2="49.39" y2="17.512"/>
 <line stroke-width="0.13" x1="56.293" y1="19.923" x2="48.451" y2="18.044"/>
 <line stroke-width="0.13" x1="56.212" y1="20.821" x2="49.758" y2="19.228"/>
 <line stroke-width="0.13" x1="56.008" y1="21.638" x2="51.473" y2="20.493"/>
 <line stroke-width="0.13" x1="55.926" y1="22.414" x2="51.881" y2="21.352"/>
 <line stroke-width="0.13" x1="4.937" y1="58.509" x2="15.532" y2="65.558"/>
 <line stroke-width="0.13" x1="5.041" y1="58.137" x2="14.806" y2="64.543"/>
 <line stroke-width="0.13" x1="5.062" y1="57.701" x2="11.571" y2="61.93"/>
 <line stroke-width="0.13" x1="5.227" y1="57.39" x2="10.909" y2="61.018"/>
 <line stroke-width="0.13" x1="5.31" y1="56.975" x2="10.141" y2="60.106"/>
 <line stroke-width="0.13" x1="5.248" y1="56.415" x2="9.457" y2="59.131"/>
 <line stroke-width="0.13" x1="5.435" y1="55.96" x2="8.939" y2="58.261"/>
 <line stroke-width="0.13" x1="5.456" y1="55.566" x2="8.689" y2="57.576"/>
 <line stroke-width="0.13" x1="5.601" y1="55.109" x2="8.067" y2="56.686"/>
 <line stroke-width="0.13" x1="5.684" y1="54.695" x2="7.653" y2="55.939"/>
 <line stroke-width="0.13" x1="5.705" y1="54.198" x2="6.887" y2="54.923"/>
 <text transform="matrix(0 -1 1 0 68.921 86.498)" stroke="none" fill="#000000" font-family="'Arial'" font-size="2.117">329 055</text>
 <path stroke-width="0.3" d="M3.181 50.185C2.749 49.621 1.772 49.722 1.491 49.862C1.209 50.003 0.172 50.426 0.152 50.929C0.132 51.432 0.283 52.348 0.564 52.581C0.846 52.813 0.897 52.843 1.048 53.043C1.199 53.244 1.793 53.356 2.053 53.335C2.315 53.316 2.85 53.286 3.192 53.084C3.533 52.883 3.835 52.651 3.855 52.289C3.875 51.926 4.088 51.412 3.835 51.152C3.584 50.89 3.181 50.185 3.181 50.185z"/>
 <path stroke-width="0.13" d="M1.491 50.335C2.095 50.246 3.221 50.517 3.161 51.313C3.1 52.107 3.181 52.279 2.839 52.521C2.496 52.762 2.125 53.215 1.813 53.073"/>
 <polygon stroke="none" fill="#000000" points="4.376 51.064 10.166 49.17 9.169 47.304"/>
 <line stroke-width="0.3" x1="9.138" y1="48.518" x2="16.631" y2="44.515"/>
 <polygon stroke="none" fill="#000000" points="50.362 42.469 47.601 37.039 45.911 38.31"/>
 <line stroke-width="0.3" x1="47.116" y1="38.154" x2="41.091" y2="30.138"/>
</svg>
