<svg xmlns="http://www.w3.org/2000/svg" clip-rule="evenodd" fill="none" fill-rule="evenodd" stroke="#000000" stroke-linecap="round" viewBox="0 0 75.01 75.01" width="100%" height="100%" xmlns:xml="http://www.w3.org/XML/1998/namespace" xml:space="preserve">
 <g id="Frame">
  <polygon stroke="#ffffff" stroke-width="0.01" points="0.005,0.005 75.004,0.005 75.004,75.004 0.005,75.004 0.005,0.005" />
 </g>
 <g id="Colour">
 </g>
 <g id="Standard_x0020_layer">
  <text font-family="'Helvetica'" font-size="2.117" fill="#000000" stroke="none" transform="matrix(0 -1 1 0 73.819 73.992)">329 213</text>
  <g>
   <path fill="#000000" stroke="none" d="M 23.908 49.344 C 23.908 49.344 28.928 46.909 37.445 46.909 C 44.256 46.909 50.171 48.465 54.887 50.395 C 55.112 48.625 55.247 46.793 55.247 44.933 C 55.247 37.023 50.377 23.786 50.377 23.786 L 47.627 22.346 L 23.603 46.909 L 23.908 49.344 Z" />
   <path fill="#000000" stroke="none" d="M 20.968 54.341 C 23.222 64.932 28.469 72.618 28.469 72.618 L 35.164 73.534 C 35.164 73.534 32.14 67.662 30.864 64.605 C 29.588 61.546 28.623 57.71 28.623 57.71 C 28.623 57.71 32.124 55.581 37.295 55.581 C 42.466 55.581 46.572 57.256 46.572 57.256 C 46.572 57.256 45.396 61.798 43.996 64.921 C 42.591 68.048 40.036 73.228 40.036 73.228 L 46.877 72.468 C 46.877 72.468 52.023 64.701 54.243 54.162 C 49.911 52.119 44.35 50.409 37.905 50.409 C 31.324 50.409 25.518 52.215 20.968 54.341 Z" />
   <path fill="#000000" stroke="none" d="M 40.795 18.765 L 40.795 16.635 C 40.795 16.635 44.29 14.051 44.29 9.031 C 44.29 4.012 40.64 0.817 37.295 0.817 C 33.95 0.817 30.603 4.924 30.603 9.183 C 30.603 13.444 34.255 16.635 34.255 16.635 L 34.405 18.765 L 24.213 23.483 C 24.213 23.483 19.952 39.456 19.952 45.084 C 19.952 45.189 19.957 45.292 19.957 45.393 L 43.82 20.355 L 40.795 18.765 Z" />
   <path fill="#000000" stroke="none" d="M 56.802 12.964 C 56.802 12.964 56.972 12.698 56.987 12.349 C 57.003 11.999 56.573 11.653 56.573 11.653 L 54.927 10.166 C 54.927 10.166 54.588 9.829 54.228 9.788 C 53.868 9.749 53.512 10.191 53.512 10.191 L 43.82 20.355 L 47.627 22.346 L 56.802 12.964 Z" />
   <path fill="#000000" stroke="none" d="M 8.51 57.405 C 8.51 57.405 8.08 57.819 8.035 58.165 C 7.996 58.515 8.391 58.808 8.391 58.808 L 9.881 60.381 C 9.881 60.381 10.201 60.735 10.541 60.796 C 10.881 60.856 11.021 60.637 11.4 60.301 C 12.907 59.066 16.271 56.536 20.968 54.341 C 20.367 51.534 19.978 48.524 19.957 45.393 L 8.51 57.405 Z" />
   <path fill="#000000" stroke="none" d="M 65.055 60.106 L 66.534 58.381 C 66.534 58.381 66.909 58.11 66.87 57.756 C 66.829 57.401 66.805 57.43 66.219 56.96 C 64.549 55.618 60.594 52.729 54.887 50.395 C 54.718 51.685 54.503 52.939 54.243 54.162 C 58.878 56.345 62.113 58.905 63.543 60.151 C 64.088 60.621 64.134 60.667 64.429 60.637 C 64.73 60.606 65.055 60.106 65.055 60.106 Z" />
  </g>
 </g>
<style /></svg>