<?xml version="1.0" encoding="utf-8"?>
<!DOCTYPE svg PUBLIC "-//W3C//DTD SVG 1.1//EN" "http://www.w3.org/Graphics/SVG/1.1/DTD/svg11.dtd">
<!-- Generator: PTC Arbortext IsoDraw 7.3 M070 -->
<svg width="100%" height="100%" viewBox="0 0 75.159 75.159"
 xmlns="http://www.w3.org/2000/svg" xmlns:xlink="http://www.w3.org/1999/xlink"
 fill-rule="evenodd" clip-rule="evenodd" stroke="#000000" stroke-linecap="round" fill="none" xml:space="preserve">
 <g id="Frame">
  <polygon stroke="#FFFFFF" stroke-width="0.16" points="0.08 0.08 75.079 0.08 75.079 75.079 0.08 75.079 0.08 0.08"/>
 </g>
 <g id="Colour">
 </g>
 <g id="Standard_x0020_layer">
  <text transform="matrix(0 -1 1 0 73.183 73.796)" stroke="none" fill="#000000" font-family="'Helvetica'" font-size="2.117">347 924</text>
  <g>
   <line stroke-width="0.3" x1="34.045" y1="28.809" x2="34.045" y2="21.486"/>
   <line stroke-width="0.3" x1="37.289" y1="28.809" x2="37.289" y2="21.486"/>
   <line stroke-width="0.3" x1="37.289" y1="21.486" x2="34.045" y2="21.486"/>
   <line stroke-width="0.3" x1="34.545" y1="21.486" x2="34.545" y2="20.632"/>
   <line stroke-width="0.3" x1="34.545" y1="20.632" x2="32.838" y2="19.739"/>
   <line stroke-width="0.3" x1="32.838" y1="19.739" x2="32.838" y2="13.483"/>
   <line stroke-width="0.13" x1="32.838" y1="13.483" x2="33.57" y2="13.483"/>
   <line stroke-width="0.3" x1="33.57" y1="13.483" x2="33.975" y2="11.859"/>
   <line stroke-width="0.3" x1="33.975" y1="11.859" x2="35.976" y2="11.859"/>
   <line stroke-width="0.13" x1="32.838" y1="19.739" x2="35.6" y2="19.739"/>
   <line stroke-width="0.13" x1="34.545" y1="20.632" x2="35.356" y2="20.632"/>
   <line stroke-width="0.3" x1="36.789" y1="21.486" x2="36.789" y2="20.632"/>
   <line stroke-width="0.3" x1="36.789" y1="20.632" x2="38.496" y2="19.739"/>
   <line stroke-width="0.3" x1="38.496" y1="19.739" x2="38.496" y2="13.483"/>
   <line stroke-width="0.13" x1="38.496" y1="13.483" x2="37.765" y2="13.483"/>
   <line stroke-width="0.3" x1="37.765" y1="13.483" x2="37.357" y2="11.859"/>
   <line stroke-width="0.3" x1="37.357" y1="11.859" x2="35.976" y2="11.859"/>
   <line stroke-width="0.13" x1="38.496" y1="19.739" x2="35.557" y2="19.739"/>
   <line stroke-width="0.13" x1="36.789" y1="20.632" x2="35.356" y2="20.632"/>
   <line stroke-width="0.3" x1="36.576" y1="11.859" x2="36.576" y2="4.31"/>
   <line stroke-width="0.3" x1="34.789" y1="11.859" x2="34.789" y2="4.31"/>
   <line stroke-width="0.3" x1="34.789" y1="4.31" x2="36.576" y2="4.31"/>
   <line stroke-width="0.13" x1="33.57" y1="13.483" x2="37.765" y2="13.483"/>
   <line stroke-width="0.3" x1="36.146" y1="4.31" x2="36.146" y2="1.014"/>
   <line stroke-width="0.3" x1="35.219" y1="4.31" x2="35.219" y2="1.014"/>
   <line stroke-width="0.3" x1="35.219" y1="1.014" x2="36.146" y2="1.014"/>
   <line stroke-width="0.3" x1="35.667" y1="28.809" x2="32.423" y2="28.809"/>
   <line stroke-width="0.3" x1="32.423" y1="28.809" x2="32.423" y2="29.736"/>
   <path stroke-width="0.3" d="M32.423 29.736C31.496 29.966 31.265 30.893 31.265 32.746C31.265 34.6 32.423 36.917 32.423 38.076C32.423 39.234 32.192 44.098 31.496 45.256C30.801 46.415 30.338 63.557 30.801 67.959C31.265 72.361 31.033 74.215 34.972 74.215"/>
   <path stroke-width="0.3" d="M38.679 29.736C39.606 29.966 39.837 30.893 39.837 32.746C39.837 34.6 38.679 36.917 38.679 38.076C38.679 39.234 38.911 44.098 39.606 45.256C40.301 46.415 40.764 63.557 40.301 67.959C39.837 72.361 40.069 74.215 36.131 74.215"/>
   <line stroke-width="0.3" x1="35.667" y1="28.809" x2="38.911" y2="28.809"/>
   <line stroke-width="0.3" x1="38.911" y1="28.809" x2="38.911" y2="29.736"/>
   <line stroke-width="0.3" x1="34.972" y1="74.215" x2="36.131" y2="74.215"/>
   <g>
    <line stroke-width="0.13" x1="34.987" y1="50.441" x2="34.987" y2="51.774"/>
    <line stroke-width="0.13" x1="36.122" y1="52.835" x2="36.122" y2="54.145"/>
    <line stroke-width="0.13" x1="35.901" y1="56.837" x2="35.901" y2="58.048"/>
    <line stroke-width="0.13" x1="35.209" y1="56.837" x2="35.209" y2="57.972"/>
    <line stroke-width="0.13" x1="33.999" y1="57.479" x2="34.225" y2="57.572"/>
    <line stroke-width="0.13" x1="35.209" y1="57.97" x2="37.036" y2="58.713"/>
    <line stroke-width="0.13" x1="37.036" y1="58.713" x2="37.036" y2="60.442"/>
    <line stroke-width="0.13" x1="37.036" y1="60.442" x2="34.838" y2="61.456"/>
    <line stroke-width="0.13" x1="34.838" y1="61.456" x2="37.085" y2="61.456"/>
    <line stroke-width="0.13" x1="37.085" y1="61.456" x2="37.085" y2="62.938"/>
    <line stroke-width="0.13" x1="37.085" y1="62.938" x2="35.481" y2="64.246"/>
    <line stroke-width="0.13" x1="35.481" y1="64.246" x2="37.11" y2="64.246"/>
    <line stroke-width="0.13" x1="37.11" y1="64.246" x2="37.11" y2="65.408"/>
    <line stroke-width="0.13" x1="37.11" y1="65.408" x2="33.999" y2="65.408"/>
    <line stroke-width="0.13" x1="33.999" y1="57.479" x2="33.999" y2="58.723"/>
    <line stroke-width="0.13" x1="33.999" y1="60.567" x2="33.999" y2="62.591"/>
    <line stroke-width="0.13" x1="33.999" y1="63.975" x2="33.999" y2="65.408"/>
    <line stroke-width="0.13" x1="33.999" y1="65.679" x2="33.999" y2="67.828"/>
    <line stroke-width="0.13" x1="33.999" y1="69.853" x2="33.999" y2="70.989"/>
    <line stroke-width="0.13" x1="33.999" y1="58.723" x2="34.418" y2="58.892"/>
    <line stroke-width="0.13" x1="35.256" y1="59.226" x2="36.32" y2="59.652"/>
    <line stroke-width="0.13" x1="36.32" y1="59.652" x2="35.258" y2="60.07"/>
    <line stroke-width="0.13" x1="34.418" y1="60.402" x2="33.999" y2="60.567"/>
    <line stroke-width="0.13" x1="35.258" y1="59.232" x2="35.258" y2="60.07"/>
    <line stroke-width="0.13" x1="34.418" y1="58.892" x2="34.418" y2="60.418"/>
    <line stroke-width="0.13" x1="33.999" y1="62.591" x2="35.777" y2="62.591"/>
    <line stroke-width="0.13" x1="35.777" y1="62.591" x2="33.999" y2="63.975"/>
    <line stroke-width="0.13" x1="33.999" y1="65.679" x2="37.134" y2="65.679"/>
    <line stroke-width="0.13" x1="37.134" y1="65.679" x2="37.134" y2="66.864"/>
    <line stroke-width="0.13" x1="37.134" y1="66.864" x2="34.838" y2="66.864"/>
    <line stroke-width="0.13" x1="34.838" y1="66.864" x2="37.134" y2="67.902"/>
    <line stroke-width="0.13" x1="37.134" y1="67.902" x2="37.134" y2="69.557"/>
    <line stroke-width="0.13" x1="37.134" y1="69.557" x2="33.999" y2="70.989"/>
    <line stroke-width="0.13" x1="33.999" y1="67.828" x2="34.442" y2="68.012"/>
    <line stroke-width="0.13" x1="35.209" y1="68.328" x2="36.271" y2="68.766"/>
    <line stroke-width="0.13" x1="36.271" y1="68.766" x2="35.209" y2="69.275"/>
    <line stroke-width="0.13" x1="34.442" y1="69.631" x2="33.948" y2="69.878"/>
    <line stroke-width="0.13" x1="35.209" y1="68.328" x2="35.209" y2="69.275"/>
    <line stroke-width="0.13" x1="34.442" y1="68.012" x2="34.442" y2="69.631"/>
    <path stroke-width="0.13" d="M36.122 54.145C36.499 54.143 36.906 53.905 37.066 53.289C37.225 52.671 37.164 51.517 37.036 51.219C36.906 50.92 36.607 50.432 36.021 50.423C35.433 50.412 35.255 51.287 35.255 51.398C35.255 51.506 35.393 52.82 35.125 52.89C34.856 52.96 34.628 52.85 34.607 52.612C34.588 52.372 34.527 52.024 34.697 51.875C34.866 51.725 34.898 51.792 34.987 51.774"/>
    <path stroke-width="0.13" d="M34.987 50.441C34.527 50.393 34.1 50.591 33.97 51.088C33.841 51.587 33.801 52.761 33.96 53.249C34.119 53.735 34.418 54.183 34.777 54.343"/>
    <path stroke-width="0.13" d="M36.122 52.835C36.439 52.831 36.499 52.75 36.527 52.453C36.557 52.154 36.488 52.024 36.389 51.945C36.289 51.865 36.14 51.865 36.021 52.024C35.902 52.183 36.021 53.328 35.92 53.468"/>
    <path stroke-width="0.13" d="M34.777 54.343C34.329 54.582 34.021 54.96 33.92 55.487C33.822 56.015 33.877 57.203 34.225 57.572"/>
    <path stroke-width="0.13" d="M35.209 56.837C34.807 56.811 34.677 56.591 34.628 56.204C34.578 55.816 34.796 55.637 35.026 55.537C35.255 55.438 35.841 55.427 36.051 55.546C36.259 55.667 36.378 55.835 36.378 56.125C36.378 56.412 36.247 56.774 35.901 56.837"/>
    <path stroke-width="0.13" d="M35.901 58.048C36.418 57.994 36.746 57.737 37.015 57.149C37.284 56.561 37.195 55.378 36.926 55.1"/>
    <path stroke-width="0.13" d="M36.926 55.1C36.618 54.631 36.378 54.223 35.484 54.253"/>
    <path stroke-width="0.13" d="M35.92 53.468C35.832 53.845 35.652 54.243 35.484 54.253"/>
   </g>
   <line stroke-width="0.3" x1="38.496" y1="13.483" x2="37.765" y2="13.483"/>
   <line stroke-width="0.3" x1="33.57" y1="13.483" x2="32.838" y2="13.483"/>
  </g>
 </g>
</svg>
