<?xml version="1.0" encoding="utf-8"?>
<!DOCTYPE svg PUBLIC "-//W3C//DTD SVG 1.1//EN" "http://www.w3.org/Graphics/SVG/1.1/DTD/svg11.dtd">
<!-- Generator: PTC Arbortext IsoDraw 7.3 -->
<svg width="100%" height="100%" viewBox="0 0 37.659 19.576"
 xmlns="http://www.w3.org/2000/svg" xmlns:xlink="http://www.w3.org/1999/xlink"
 fill-rule="evenodd" clip-rule="evenodd" stroke="#000000" stroke-linecap="round" fill="none" xml:space="preserve">
 <g id="Frame">
  <polygon stroke="#FFFFFF" stroke-width="0.16" points="0.08 0.08 37.579 0.08 37.579 19.495 0.08 19.495 0.08 0.08"/>
 </g>
 <g id="Colour">
 </g>
 <g id="Standard_x0020_layer">
  <g>
   <path stroke-width="0.127" stroke-linejoin="round" stroke-miterlimit="2" d="M5.323 6.466L9.728 13.589L34.686 7.525"/>
   <path stroke-width="0.127" stroke-linejoin="round" stroke-miterlimit="2" d="M9.728 13.589L9.492 14.412"/>
   <path stroke-width="0.127" stroke-linejoin="round" stroke-miterlimit="2" d="M34.459 8.227L34.686 7.525L29.748 1.435L5.323 6.466L5.184 7.232L9.492 14.412L34.459 8.227z"/>
   <path stroke-width="0.127" stroke-linejoin="round" stroke-miterlimit="2" d="M5.331 7.479L4.855 9.483L8.971 16.544L33.631 10.298L34.281 8.272"/>
   <path stroke-width="0.127" stroke-linejoin="round" stroke-miterlimit="2" d="M9.593 14.384L8.971 16.544"/>
   <path stroke-width="0.127" stroke-linejoin="round" stroke-miterlimit="2" d="M21.528 11.429L21.379 11.946L22.327 11.702L22.472 11.196"/>
  </g>
  <g>
   <path stroke="none" fill="#000000" d="M36.216 18.356L36.216 18.356C36.216 18.341 36.216 18.327 36.216 18.314 36.215 18.298 36.215 18.283 36.215 18.271 36.213 18.227 36.219 18.178 36.229 18.126 36.241 18.071 36.268 18.024 36.305 17.986 36.345 17.946 36.405 17.926 36.487 17.925 36.575 17.925 36.645 17.955 36.697 18.013 36.747 18.073 36.776 18.15 36.776 18.248 36.774 18.338 36.756 18.407 36.722 18.452 36.686 18.498 36.645 18.527 36.595 18.542 36.545 18.556 36.496 18.564 36.448 18.565L36.448 18.757C36.533 18.754 36.616 18.734 36.695 18.702 36.771 18.672 36.832 18.617 36.877 18.536 36.896 18.5 36.912 18.457 36.923 18.413 36.936 18.367 36.942 18.315 36.942 18.26 36.941 18.134 36.917 18.032 36.872 17.954 36.829 17.873 36.768 17.817 36.697 17.78 36.625 17.742 36.546 17.725 36.465 17.725 36.365 17.725 36.289 17.748 36.234 17.795 36.179 17.839 36.14 17.899 36.118 17.972L36.112 17.972C36.1 17.928 36.07 17.888 36.021 17.847 35.973 17.806 35.902 17.785 35.805 17.783 35.692 17.783 35.597 17.823 35.524 17.902 35.454 17.984 35.417 18.096 35.414 18.242 35.417 18.37 35.442 18.471 35.493 18.539 35.542 18.609 35.604 18.658 35.679 18.684 35.753 18.71 35.828 18.722 35.902 18.722L35.902 18.539C35.865 18.538 35.82 18.532 35.771 18.518 35.723 18.509 35.679 18.481 35.64 18.44 35.603 18.4 35.584 18.336 35.582 18.25 35.584 18.175 35.597 18.118 35.621 18.079 35.649 18.039 35.68 18.01 35.716 17.995 35.753 17.981 35.784 17.972 35.817 17.975 35.908 17.977 35.973 18.007 36.009 18.062 36.045 18.118 36.061 18.182 36.06 18.259 36.06 18.274 36.06 18.291 36.06 18.307 36.057 18.321 36.057 18.338 36.055 18.356L36.216 18.356z"/>
   <path stroke="none" fill="#000000" d="M35.704 16.954L35.704 16.954 35.704 16.951 36.38 16.951 36.54 16.951 36.902 16.951 36.902 16.765 36.54 16.765 36.54 16.547 36.54 16.547 36.38 16.547 36.38 16.765 35.414 16.765 35.414 16.919 36.359 17.6 36.54 17.6 36.54 16.951 36.38 16.951 36.38 17.428 35.704 16.954z"/>
   <path stroke="none" fill="#000000" d="M36.237 15.893L36.237 15.893C36.24 15.935 36.234 15.978 36.219 16.025 36.204 16.071 36.173 16.112 36.128 16.143 36.082 16.175 36.009 16.193 35.915 16.195 35.814 16.193 35.734 16.167 35.674 16.117 35.613 16.064 35.584 15.993 35.582 15.907 35.584 15.801 35.615 15.723 35.676 15.676 35.738 15.628 35.813 15.605 35.899 15.606 35.996 15.609 36.069 15.625 36.118 15.657L36.228 15.579 36.231 15.574C36.423 15.596 36.564 15.635 36.655 15.693 36.743 15.753 36.79 15.83 36.787 15.932 36.787 16.009 36.765 16.068 36.722 16.111 36.68 16.155 36.621 16.178 36.545 16.184L36.545 16.37C36.595 16.37 36.651 16.358 36.712 16.332 36.774 16.306 36.826 16.263 36.871 16.196 36.917 16.134 36.941 16.042 36.942 15.928 36.941 15.801 36.902 15.702 36.835 15.628 36.765 15.554 36.68 15.5 36.582 15.467 36.485 15.43 36.393 15.41 36.304 15.4 36.215 15.391 36.146 15.387 36.104 15.388 36.042 15.387 35.973 15.393 35.895 15.403 35.817 15.413 35.743 15.436 35.668 15.471 35.597 15.505 35.534 15.557 35.488 15.628 35.442 15.698 35.417 15.791 35.414 15.909 35.417 16.013 35.439 16.102 35.487 16.172 35.533 16.243 35.594 16.297 35.673 16.332 35.749 16.368 35.834 16.388 35.924 16.388 36.075 16.385 36.192 16.341 36.276 16.257 36.36 16.172 36.402 16.059 36.405 15.919L36.405 15.919 36.405 15.919C36.405 15.848 36.39 15.779 36.359 15.718 36.329 15.654 36.284 15.609 36.228 15.579L36.118 15.657C36.165 15.691 36.2 15.73 36.216 15.774 36.231 15.817 36.24 15.859 36.237 15.893L36.237 15.893z"/>
   <path stroke="none" fill="#000000" d="M36.204 14.125L36.042 14.127 36.042 14.127C36.042 14.196 36.021 14.256 35.981 14.307L36.112 14.378C36.145 14.457 36.189 14.519 36.25 14.563 36.31 14.608 36.384 14.628 36.475 14.631 36.512 14.632 36.566 14.627 36.634 14.612 36.701 14.595 36.765 14.551 36.829 14.478 36.875 14.416 36.905 14.352 36.921 14.285 36.936 14.217 36.945 14.163 36.942 14.121 36.941 14.003 36.92 13.907 36.875 13.833 36.831 13.759 36.771 13.704 36.701 13.669 36.63 13.634 36.554 13.617 36.472 13.617 36.414 13.615 36.35 13.63 36.283 13.663 36.213 13.695 36.155 13.76 36.11 13.861 36.1 13.836 36.084 13.81 36.061 13.782 36.04 13.753 36.009 13.727 35.966 13.704 35.924 13.682 35.868 13.669 35.798 13.669L35.798 13.669 35.798 13.669C35.738 13.669 35.679 13.685 35.621 13.714 35.563 13.746 35.514 13.794 35.475 13.862 35.435 13.929 35.417 14.019 35.414 14.128 35.417 14.246 35.439 14.339 35.487 14.403 35.53 14.47 35.585 14.515 35.649 14.541 35.71 14.567 35.77 14.58 35.823 14.58 35.893 14.577 35.951 14.561 36.003 14.526 36.051 14.49 36.088 14.442 36.112 14.378L35.981 14.307C35.942 14.358 35.887 14.384 35.814 14.387 35.783 14.387 35.746 14.381 35.713 14.365 35.676 14.353 35.645 14.327 35.621 14.291 35.597 14.256 35.584 14.205 35.582 14.14 35.584 14.067 35.594 14.01 35.619 13.971 35.643 13.929 35.673 13.9 35.707 13.885 35.74 13.868 35.771 13.861 35.804 13.862 35.874 13.862 35.93 13.885 35.975 13.935 36.02 13.98 36.04 14.044 36.042 14.127L36.042 14.127 36.204 14.125 36.204 14.125C36.204 14.038 36.228 13.964 36.274 13.907 36.32 13.848 36.395 13.817 36.493 13.816 36.57 13.816 36.63 13.833 36.67 13.862 36.712 13.891 36.74 13.929 36.755 13.977 36.768 14.021 36.777 14.067 36.776 14.115 36.774 14.198 36.756 14.265 36.725 14.31 36.692 14.358 36.655 14.39 36.609 14.407 36.564 14.423 36.52 14.432 36.478 14.432 36.406 14.432 36.344 14.407 36.29 14.355 36.235 14.307 36.206 14.228 36.204 14.125L36.204 14.125z"/>
   <path stroke="none" fill="#000000" d="M36.237 12.949L36.237 12.949C36.24 12.993 36.234 13.037 36.219 13.083 36.204 13.13 36.173 13.169 36.128 13.201 36.082 13.234 36.009 13.25 35.915 13.253 35.814 13.25 35.734 13.226 35.674 13.175 35.613 13.121 35.584 13.051 35.582 12.964 35.584 12.859 35.615 12.781 35.676 12.734 35.738 12.686 35.813 12.662 35.899 12.664 35.996 12.666 36.069 12.683 36.118 12.714L36.228 12.637 36.231 12.632C36.423 12.653 36.564 12.693 36.655 12.75 36.743 12.811 36.79 12.888 36.787 12.99 36.787 13.067 36.765 13.125 36.722 13.167 36.68 13.212 36.621 13.236 36.545 13.242L36.545 13.429C36.595 13.429 36.651 13.416 36.712 13.391 36.774 13.365 36.826 13.32 36.871 13.255 36.917 13.192 36.941 13.101 36.942 12.986 36.941 12.859 36.902 12.759 36.835 12.686 36.765 12.612 36.68 12.558 36.582 12.525 36.485 12.489 36.393 12.468 36.304 12.458 36.215 12.448 36.146 12.444 36.104 12.446 36.042 12.444 35.973 12.451 35.895 12.461 35.817 12.471 35.743 12.494 35.668 12.528 35.597 12.563 35.534 12.615 35.488 12.686 35.442 12.756 35.417 12.849 35.414 12.967 35.417 13.07 35.439 13.16 35.487 13.23 35.533 13.301 35.594 13.355 35.673 13.391 35.749 13.426 35.834 13.445 35.924 13.445 36.075 13.444 36.192 13.399 36.276 13.314 36.36 13.23 36.402 13.118 36.405 12.977L36.405 12.977 36.405 12.977C36.405 12.906 36.39 12.837 36.359 12.776 36.329 12.712 36.284 12.666 36.228 12.637L36.118 12.714C36.165 12.749 36.2 12.787 36.216 12.832 36.231 12.875 36.24 12.916 36.237 12.949L36.237 12.949z"/>
   <path stroke="none" fill="#000000" d="M35.948 12.077L35.948 12.077C35.909 12.077 35.863 12.071 35.805 12.058 35.75 12.048 35.698 12.021 35.654 11.978 35.609 11.936 35.584 11.868 35.582 11.778 35.584 11.705 35.597 11.646 35.625 11.603 35.654 11.56 35.688 11.529 35.728 11.51 35.77 11.492 35.811 11.48 35.85 11.483 35.944 11.483 36.015 11.51 36.061 11.56 36.11 11.609 36.155 11.676 36.198 11.756L36.311 11.952C36.368 12.053 36.442 12.134 36.533 12.198 36.628 12.259 36.75 12.295 36.902 12.303L36.902 11.285 36.726 11.285 36.726 12.092C36.697 12.09 36.656 12.071 36.603 12.038 36.554 12.002 36.499 11.936 36.441 11.836L36.356 11.682C36.301 11.567 36.235 11.474 36.164 11.399 36.09 11.324 35.987 11.287 35.859 11.285 35.719 11.287 35.612 11.333 35.533 11.419 35.454 11.506 35.417 11.617 35.414 11.75 35.412 11.807 35.423 11.875 35.447 11.955 35.468 12.034 35.518 12.103 35.594 12.166 35.67 12.228 35.789 12.259 35.948 12.265L35.948 12.077z"/>
  </g>
 </g>
</svg>
