<?xml version="1.0" encoding="utf-8"?>
<!DOCTYPE svg PUBLIC "-//W3C//DTD SVG 1.1//EN" "http://www.w3.org/Graphics/SVG/1.1/DTD/svg11.dtd">
<!-- Generator: PTC Arbortext IsoDraw 7.3 -->
<svg width="100%" height="100%" viewBox="0 0 37.505 37.505"
 xmlns="http://www.w3.org/2000/svg" xmlns:xlink="http://www.w3.org/1999/xlink"
 fill-rule="evenodd" clip-rule="evenodd" stroke="#000000" stroke-linecap="round" fill="none" xml:space="preserve">
 <g id="Standard_x0020_layer">
  <path stroke-width="0.25" stroke-linejoin="round" stroke-miterlimit="2" d="M26.164 26.568C26.21 26.24 26.146 25.902 25.94 25.608"/>
  <path stroke-width="0.131" stroke-linejoin="round" stroke-miterlimit="2" d="M23.143 27.074C23.181 27.201 23.24 27.324 23.323 27.442C23.809 28.137 24.801 28.167 25.46 27.707C25.838 27.442 26.103 27.015 26.164 26.568"/>
  <path stroke-width="0.25" stroke-linejoin="round" stroke-miterlimit="2" d="M25.94 25.608C25.452 24.914 24.46 24.882 23.803 25.343C23.257 25.725 22.949 26.443 23.143 27.074"/>
  <path stroke-width="0.131" stroke-linejoin="round" stroke-miterlimit="2" d="M25.257 26.3C25.239 26.248 25.213 26.195 25.176 26.143"/>
  <path stroke-width="0.25" stroke-linejoin="round" stroke-miterlimit="2" d="M23.948 26.817C23.964 26.861 23.989 26.908 24.021 26.952C24.452 27.565 25.466 26.928 25.257 26.3"/>
  <path stroke-width="0.131" stroke-linejoin="round" stroke-miterlimit="2" d="M25.176 26.143C24.745 25.521 23.708 26.182 23.948 26.817"/>
  <path stroke-width="0.25" stroke-linejoin="round" stroke-miterlimit="2" d="M36.741 17.425C36.77 17.12 36.701 16.809 36.511 16.535"/>
  <path stroke-width="0.131" stroke-linejoin="round" stroke-miterlimit="2" d="M33.689 17.914C33.725 18.071 33.792 18.225 33.893 18.368C34.378 19.065 35.374 19.092 36.03 18.634C36.427 18.353 36.7 17.896 36.741 17.425"/>
  <path stroke-width="0.25" stroke-linejoin="round" stroke-miterlimit="2" d="M36.511 16.535C36.026 15.839 35.03 15.811 34.374 16.268C33.853 16.634 33.548 17.304 33.689 17.914"/>
  <path stroke-width="0.131" stroke-linejoin="round" stroke-miterlimit="2" d="M35.801 17.161C35.786 17.129 35.768 17.1 35.746 17.07"/>
  <path stroke-width="0.25" stroke-linejoin="round" stroke-miterlimit="2" d="M34.517 17.743C34.534 17.789 34.56 17.835 34.591 17.879C35.029 18.518 36.112 17.804 35.801 17.161"/>
  <path stroke-width="0.131" stroke-linejoin="round" stroke-miterlimit="2" d="M35.746 17.07C35.31 16.451 34.271 17.114 34.517 17.743"/>
  <path stroke-width="0.25" stroke-linejoin="round" stroke-miterlimit="2" d="M13.973 33.372C14 33.067 13.932 32.755 13.742 32.481"/>
  <path stroke-width="0.131" stroke-linejoin="round" stroke-miterlimit="2" d="M10.913 33.826C10.948 33.996 11.016 34.161 11.124 34.314C11.609 35.011 12.605 35.039 13.26 34.581C13.66 34.301 13.929 33.844 13.973 33.372"/>
  <path stroke-width="0.25" stroke-linejoin="round" stroke-miterlimit="2" d="M13.742 32.481C13.256 31.786 12.259 31.754 11.605 32.215C11.092 32.572 10.791 33.226 10.913 33.826"/>
  <path stroke-width="0.131" stroke-linejoin="round" stroke-miterlimit="2" d="M13.006 33.06C12.997 33.045 12.989 33.03 12.977 33.015"/>
  <path stroke-width="0.25" stroke-linejoin="round" stroke-miterlimit="2" d="M11.73 33.631C11.747 33.697 11.776 33.762 11.821 33.826C12.275 34.476 13.391 33.719 13.006 33.06"/>
  <path stroke-width="0.131" stroke-linejoin="round" stroke-miterlimit="2" d="M12.977 33.015C12.554 32.414 11.571 33.015 11.73 33.631"/>
  <path stroke-width="0.131" stroke-linejoin="round" stroke-miterlimit="2" d="M33.893 18.368C32.273 19.501 30.653 20.637 29.035 21.771C28.811 21.926 28.588 22.082 28.364 22.239C28.321 22.269 28.289 22.339 28.26 22.382C28.141 22.553 28.024 22.724 27.905 22.894C27.282 23.795 26.658 24.696 26.035 25.596C26.018 25.621 26 25.646 25.983 25.673"/>
  <path stroke-width="0.25" stroke-linejoin="round" stroke-miterlimit="2" d="M33.673 17.832C32.054 18.966 30.434 20.1 28.814 21.236C28.542 21.425 28.272 21.614 28.003 21.804C27.85 21.911 27.756 22.12 27.652 22.271C27.007 23.202 26.361 24.134 25.716 25.065C25.672 25.129 25.626 25.196 25.58 25.26"/>
  <path stroke-width="0.131" stroke-linejoin="round" stroke-miterlimit="2" d="M13.742 32.481C15.361 31.347 16.98 30.213 18.597 29.079C18.838 28.911 19.077 28.743 19.317 28.576C19.356 28.548 19.407 28.544 19.452 28.532C19.638 28.483 19.824 28.434 20.01 28.385C21.086 28.103 22.163 27.82 23.237 27.536C23.282 27.525 23.324 27.513 23.367 27.503"/>
  <path stroke-width="0.25" stroke-linejoin="round" stroke-miterlimit="2" d="M13.313 32.091C14.931 30.958 16.55 29.826 18.169 28.692C18.452 28.492 18.736 28.294 19.021 28.094C19.167 27.992 19.355 27.974 19.524 27.928C20.626 27.64 21.727 27.35 22.827 27.062C22.925 27.036 23.021 27.01 23.118 26.984"/>
  <path stroke-width="0.25" stroke-linejoin="round" stroke-miterlimit="2" d="M36.06 16.135L26.329 2.24"/>
  <path stroke-width="0.131" stroke-linejoin="round" stroke-miterlimit="2" d="M35.247 15.958L34.624 15.066"/>
  <path stroke-width="0.131" stroke-linejoin="round" stroke-miterlimit="2" d="M10.885 33.609L8.955 30.852"/>
  <path stroke-width="0.25" stroke-linejoin="round" stroke-miterlimit="2" d="M11.047 32.856L10.446 31.998"/>
  <path stroke-width="0.201" stroke-linejoin="round" stroke-miterlimit="2" d="M9.324 31.379C9.913 32.046 11.012 32.255 11.762 31.728C11.817 31.69 11.872 31.652 11.928 31.612C12.311 31.344 12.695 31.074 13.08 30.806C14.656 29.701 16.231 28.599 17.807 27.495C19.911 26.021 22.015 24.548 24.12 23.074C26.094 21.692 28.068 20.309 30.042 18.925C31.228 18.096 32.414 17.265 33.6 16.435C33.704 16.362 33.807 16.291 33.911 16.217C34.667 15.688 34.856 14.589 34.426 13.8"/>
  <path stroke-width="0.25" stroke-linejoin="round" stroke-miterlimit="2" d="M11.349 10.346C10.862 9.65 11.173 8.708 11.83 8.246C12.487 7.788 13.48 7.817 13.967 8.512"/>
  <path stroke-width="0.131" stroke-linejoin="round" stroke-miterlimit="2" d="M14.188 9.494C14.121 9.933 13.859 10.35 13.486 10.612C12.83 11.073 11.836 11.038 11.349 10.346"/>
  <path stroke-width="0.25" stroke-linejoin="round" stroke-miterlimit="2" d="M13.967 8.512C14.178 8.813 14.24 9.16 14.188 9.494"/>
  <path stroke-width="0.131" stroke-linejoin="round" stroke-miterlimit="2" d="M11.967 9.701C11.756 9.074 12.772 8.432 13.204 9.047"/>
  <path stroke-width="0.25" stroke-linejoin="round" stroke-miterlimit="2" d="M13.25 9.121C13.587 9.771 12.496 10.499 12.048 9.856C12.012 9.806 11.986 9.753 11.967 9.701"/>
  <path stroke-width="0.131" stroke-linejoin="round" stroke-miterlimit="2" d="M13.204 9.047C13.221 9.071 13.236 9.096 13.25 9.121"/>
  <path stroke-width="0.25" stroke-linejoin="round" stroke-miterlimit="2" d="M23.271 2.976C23.178 2.412 23.451 1.806 23.919 1.453C24.579 0.956 25.603 0.968 26.108 1.681"/>
  <path stroke-width="0.131" stroke-linejoin="round" stroke-miterlimit="2" d="M26.213 3.061C26.097 3.326 25.911 3.565 25.678 3.742C25.039 4.225 24.045 4.234 23.527 3.565C23.387 3.384 23.303 3.182 23.271 2.976"/>
  <path stroke-width="0.25" stroke-linejoin="round" stroke-miterlimit="2" d="M26.108 1.681C26.402 2.104 26.405 2.618 26.213 3.061"/>
  <path stroke-width="0.131" stroke-linejoin="round" stroke-miterlimit="2" d="M24.105 2.871C23.894 2.265 24.903 1.592 25.344 2.216"/>
  <path stroke-width="0.25" stroke-linejoin="round" stroke-miterlimit="2" d="M25.411 2.338C25.658 2.953 24.705 3.616 24.225 3.072C24.167 3.008 24.128 2.94 24.105 2.871"/>
  <path stroke-width="0.131" stroke-linejoin="round" stroke-miterlimit="2" d="M25.344 2.216C25.371 2.256 25.394 2.297 25.411 2.338"/>
  <path stroke-width="0.25" stroke-linejoin="round" stroke-miterlimit="2" d="M0.492 18.862C0.426 18.295 0.721 17.699 1.201 17.361C1.861 16.902 2.85 16.931 3.338 17.628"/>
  <path stroke-width="0.131" stroke-linejoin="round" stroke-miterlimit="2" d="M3.565 18.564C3.512 19 3.266 19.42 2.908 19.689C2.25 20.184 1.221 20.176 0.72 19.46C0.59 19.274 0.517 19.07 0.492 18.862"/>
  <path stroke-width="0.25" stroke-linejoin="round" stroke-miterlimit="2" d="M3.338 17.628C3.54 17.913 3.605 18.242 3.565 18.564"/>
  <path stroke-width="0.131" stroke-linejoin="round" stroke-miterlimit="2" d="M1.363 18.875C1.064 18.23 2.133 17.525 2.576 18.161"/>
  <path stroke-width="0.25" stroke-linejoin="round" stroke-miterlimit="2" d="M2.637 18.271C2.916 18.914 1.863 19.599 1.419 18.972C1.395 18.94 1.378 18.907 1.363 18.875"/>
  <path stroke-width="0.131" stroke-linejoin="round" stroke-miterlimit="2" d="M2.576 18.161C2.601 18.198 2.621 18.234 2.637 18.271"/>
  <path stroke-width="0.25" stroke-linejoin="round" stroke-miterlimit="2" d="M23.489 3.515C21.87 4.649 20.251 5.783 18.632 6.916C18.408 7.073 18.185 7.23 17.961 7.386C17.919 7.416 17.843 7.421 17.792 7.434C17.591 7.487 17.39 7.54 17.19 7.593C16.129 7.871 15.07 8.15 14.01 8.428C13.98 8.435 13.951 8.444 13.922 8.451"/>
  <path stroke-width="0.131" stroke-linejoin="round" stroke-miterlimit="2" d="M23.917 3.903C22.297 5.038 20.678 6.173 19.057 7.307C18.788 7.496 18.516 7.686 18.246 7.876C18.094 7.982 17.865 7.998 17.69 8.044C16.593 8.333 15.496 8.621 14.401 8.909C14.324 8.929 14.247 8.949 14.169 8.97"/>
  <path stroke-width="0.25" stroke-linejoin="round" stroke-miterlimit="2" d="M3.398 17.585C5.017 16.452 6.636 15.317 8.255 14.183C8.477 14.028 8.702 13.871 8.925 13.714C8.968 13.685 8.999 13.615 9.028 13.571C9.147 13.4 9.266 13.23 9.382 13.06C10.007 12.159 10.631 11.259 11.255 10.358C11.272 10.333 11.289 10.307 11.307 10.282"/>
  <path stroke-width="0.131" stroke-linejoin="round" stroke-miterlimit="2" d="M3.557 18.163C5.176 17.03 6.794 15.896 8.413 14.762C8.698 14.564 8.981 14.365 9.266 14.164C9.41 14.064 9.493 13.893 9.593 13.749C10.24 12.813 10.89 11.877 11.538 10.941C11.596 10.858 11.653 10.775 11.71 10.693"/>
  <path stroke-width="0.131" stroke-linejoin="round" stroke-miterlimit="2" d="M26.219 3.064L26.843 3.956"/>
  <path stroke-width="0.25" stroke-linejoin="round" stroke-miterlimit="2" d="M2.863 22.153C2.367 21.242 2.722 20.198 3.535 19.628C3.919 19.359 4.302 19.091 4.687 18.821C6.262 17.718 7.839 16.614 9.413 15.51C11.518 14.037 13.622 12.564 15.727 11.089C17.701 9.707 19.675 8.324 21.649 6.942C22.835 6.112 24.021 5.28 25.205 4.45C25.309 4.378 25.413 4.306 25.516 4.234C26.272 3.703 27.37 3.9 27.966 4.575"/>
  <path stroke-width="0.25" stroke-linejoin="round" stroke-miterlimit="2" d="M2.065 20.03L2.666 20.888"/>
  <path stroke-width="0.131" stroke-linejoin="round" stroke-miterlimit="2" d="M26.032 5.637C25.748 4.996 26.804 4.309 27.25 4.936"/>
  <path stroke-width="0.25" stroke-linejoin="round" stroke-miterlimit="2" d="M27.318 5.062C27.568 5.702 26.532 6.368 26.092 5.746C26.068 5.71 26.047 5.673 26.032 5.637"/>
  <path stroke-width="0.131" stroke-linejoin="round" stroke-miterlimit="2" d="M27.25 4.936C27.278 4.977 27.3 5.019 27.318 5.062"/>
  <path stroke-width="0.131" stroke-linejoin="round" stroke-miterlimit="2" d="M25.291 10.371C24.341 11.037 23.393 11.702 22.443 12.367C20.417 13.785 18.391 15.204 16.365 16.623C14.496 17.931 12.628 19.239 10.76 20.548C10.205 20.937 9.649 21.327 9.092 21.716C9.375 22.12 9.66 22.525 9.942 22.931C9.957 22.951 10.099 23.167 10.111 23.158C10.14 23.138 10.169 23.118 10.198 23.099C10.617 22.804 11.037 22.51 11.457 22.216C13.259 20.954 15.061 19.692 16.864 18.429C18.923 16.989 20.981 15.545 23.039 14.105C24.12 13.348 25.202 12.59 26.282 11.833C26.335 11.795 26.022 11.417 25.986 11.364C25.754 11.034 25.522 10.702 25.291 10.371z"/>
  <path stroke-width="0.131" stroke-linejoin="round" stroke-miterlimit="2" d="M23.086 14.07L23.859 15.173"/>
  <path stroke-width="0.131" stroke-linejoin="round" stroke-miterlimit="2" d="M20.054 16.196L20.826 17.297"/>
  <path stroke-width="0.131" stroke-linejoin="round" stroke-miterlimit="2" d="M17.021 18.318L17.794 19.422"/>
  <path stroke-width="0.131" stroke-linejoin="round" stroke-miterlimit="2" d="M13.989 20.443L14.76 21.545"/>
  <path stroke-width="0.131" stroke-linejoin="round" stroke-miterlimit="2" d="M22.074 12.625L21.303 11.522"/>
  <path stroke-width="0.131" stroke-linejoin="round" stroke-miterlimit="2" d="M19.042 14.749L18.269 13.647"/>
  <path stroke-width="0.131" stroke-linejoin="round" stroke-miterlimit="2" d="M16.009 16.873L15.237 15.771"/>
  <path stroke-width="0.131" stroke-linejoin="round" stroke-miterlimit="2" d="M12.975 18.996L12.204 17.894"/>
  <path stroke-width="0.131" stroke-linejoin="round" stroke-miterlimit="2" d="M28.089 14.367C27.14 15.032 26.19 15.698 25.242 16.361C23.216 17.78 21.19 19.199 19.164 20.617C17.295 21.926 15.428 23.234 13.558 24.544C13.069 24.887 12.58 25.23 12.089 25.573C12.079 25.579 11.89 25.71 11.89 25.71C11.6 25.297 11.311 24.885 11.023 24.472C10.974 24.403 10.926 24.335 10.878 24.265C11.827 23.6 12.776 22.934 13.725 22.271C15.752 20.852 17.777 19.432 19.803 18.013C21.67 16.705 23.539 15.397 25.408 14.089C25.963 13.698 26.519 13.31 27.076 12.92C27.414 13.403 27.751 13.884 28.089 14.367z"/>
  <path stroke-width="0.131" stroke-linejoin="round" stroke-miterlimit="2" d="M24.873 16.62L25.643 17.722"/>
  <path stroke-width="0.131" stroke-linejoin="round" stroke-miterlimit="2" d="M21.839 18.743L22.611 19.847"/>
  <path stroke-width="0.131" stroke-linejoin="round" stroke-miterlimit="2" d="M18.807 20.867L19.579 21.969"/>
  <path stroke-width="0.131" stroke-linejoin="round" stroke-miterlimit="2" d="M15.774 22.992L16.545 24.094"/>
  <path stroke-width="0.131" stroke-linejoin="round" stroke-miterlimit="2" d="M9.35 29.998C8.999 29.432 9.964 28.778 10.352 29.333"/>
  <path stroke-width="0.25" stroke-linejoin="round" stroke-miterlimit="2" d="M10.41 29.443C10.63 29.984 9.739 30.55 9.368 30.022L9.35 29.998"/>
  <path stroke-width="0.131" stroke-linejoin="round" stroke-miterlimit="2" d="M10.352 29.333C10.375 29.37 10.396 29.405 10.41 29.443"/>
  <path stroke-width="0.131" stroke-linejoin="round" stroke-miterlimit="2" d="M10.282 31.125C10.007 30.626 10.849 30.059 11.196 30.553"/>
  <path stroke-width="0.25" stroke-linejoin="round" stroke-miterlimit="2" d="M11.244 30.638C11.46 31.126 10.649 31.655 10.313 31.172C10.301 31.157 10.291 31.14 10.282 31.125"/>
  <path stroke-width="0.131" stroke-linejoin="round" stroke-miterlimit="2" d="M11.196 30.553C11.217 30.58 11.233 30.609 11.244 30.638"/>
  <path stroke-width="0.131" stroke-linejoin="round" stroke-miterlimit="2" d="M2.798 22.062L1.302 19.925"/>
  <path stroke-width="0.201" stroke-linejoin="round" stroke-miterlimit="2" d="M9.324 31.379L2.798 22.062"/>
  <path stroke-width="0.25" stroke-linejoin="round" stroke-miterlimit="2" d="M36.749 17.344C36.774 17.829 36.801 18.312 36.826 18.795C36.838 18.995 36.847 19.193 36.859 19.391C36.886 19.885 36.615 20.37 36.24 20.673C35.802 21.03 35.189 21.172 34.652 20.975C34.411 20.888 34.195 20.737 34.039 20.536C33.993 20.475 34.012 20.478 33.966 20.51C33.707 20.692 33.445 20.875 33.185 21.057C32.176 21.763 31.167 22.472 30.157 23.178C29.737 23.472 29.32 23.765 28.899 24.059C28.774 24.147 28.545 24.248 28.455 24.379C27.714 25.446 26.974 26.515 26.234 27.585"/>
  <path stroke-width="0.25" stroke-linejoin="round" stroke-miterlimit="2" d="M14.044 34.463C15.657 33.334 17.271 32.203 18.885 31.073C19.062 30.949 19.25 30.771 19.448 30.678C19.527 30.641 19.632 30.631 19.718 30.608C19.946 30.548 20.175 30.487 20.402 30.428C21.417 30.161 22.432 29.894 23.448 29.629L23.478 29.62"/>
  <path stroke-width="0.25" stroke-linejoin="round" stroke-miterlimit="2" d="M23.425 29.634C23.532 29.74 23.609 29.858 23.734 29.948C23.893 30.062 24.077 30.141 24.266 30.182C24.652 30.266 25.06 30.193 25.405 30.004C25.949 29.704 26.315 29.12 26.283 28.492C26.246 27.826 26.21 27.163 26.175 26.498"/>
  <path stroke-width="0.131" stroke-linejoin="round" stroke-miterlimit="2" d="M28.355 22.245L28.466 24.362"/>
  <path stroke-width="0.131" stroke-linejoin="round" stroke-miterlimit="2" d="M19.338 28.562L19.448 30.678"/>
  <path stroke-width="0.25" stroke-linejoin="round" stroke-miterlimit="2" d="M23.254 2.833L23.297 3.649"/>
  <path stroke-width="0.131" stroke-linejoin="round" stroke-miterlimit="2" d="M23.94 4.339C22.321 5.474 20.701 6.607 19.08 7.743C18.811 7.932 18.539 8.121 18.269 8.31C18.117 8.416 17.888 8.433 17.711 8.48C16.615 8.769 15.521 9.055 14.425 9.343C14.348 9.365 14.271 9.384 14.194 9.403"/>
  <path stroke-width="0.131" stroke-linejoin="round" stroke-miterlimit="2" d="M26.24 3.5L26.544 3.931"/>
  <path stroke-width="0.131" stroke-linejoin="round" stroke-miterlimit="2" d="M18.193 7.911L18.216 8.348"/>
  <path stroke-width="0.131" stroke-linejoin="round" stroke-miterlimit="2" d="M26.219 3.064L26.24 3.5"/>
  <path stroke-width="0.131" stroke-linejoin="round" stroke-miterlimit="2" d="M26.24 3.5C26.146 3.717 26.004 3.911 25.829 4.07"/>
  <path stroke-width="0.131" stroke-linejoin="round" stroke-miterlimit="2" d="M25.236 4.429C24.814 4.583 24.335 4.562 23.94 4.339"/>
  <path stroke-width="0.131" stroke-linejoin="round" stroke-miterlimit="2" d="M23.917 3.903L23.94 4.339"/>
  <path stroke-width="0.131" stroke-linejoin="round" stroke-miterlimit="2" d="M3.586 18.593C5.203 17.46 6.82 16.329 8.435 15.196C8.721 14.999 9.005 14.798 9.288 14.6C9.433 14.499 9.516 14.329 9.615 14.183C10.263 13.247 10.912 12.311 11.56 11.375C11.617 11.292 11.675 11.211 11.731 11.128"/>
  <path stroke-width="0.131" stroke-linejoin="round" stroke-miterlimit="2" d="M9.34 14.112L9.362 14.548"/>
  <path stroke-width="0.131" stroke-linejoin="round" stroke-miterlimit="2" d="M11.71 10.693L11.731 11.128"/>
  <path stroke-width="0.131" stroke-linejoin="round" stroke-miterlimit="2" d="M14.199 9.432C14.461 10.756 12.872 11.849 11.731 11.128"/>
  <path stroke-width="0.25" stroke-linejoin="round" stroke-miterlimit="2" d="M11.199 10.436C11.119 10.189 11.127 9.922 11.114 9.664"/>
  <path stroke-width="0.25" stroke-linejoin="round" stroke-miterlimit="2" d="M10.904 33.779C10.928 34.268 10.951 34.759 10.974 35.249C10.983 35.445 10.981 35.649 11.007 35.844C11.08 36.39 11.48 36.822 12.009 36.962C13.009 37.226 14.146 36.381 14.089 35.322C14.06 34.789 14.032 34.256 14.003 33.722C13.994 33.579 13.987 33.435 13.98 33.292"/>
  <path stroke-width="0.131" stroke-linejoin="round" stroke-miterlimit="2" d="M3.577 18.437C3.602 18.838 3.608 19.21 3.408 19.576C3.181 19.99 2.773 20.289 2.309 20.379"/>
  <path stroke-width="0.131" stroke-linejoin="round" stroke-miterlimit="2" d="M33.893 18.368L34.003 20.484"/>
  <path stroke-width="0.131" stroke-linejoin="round" stroke-miterlimit="2" d="M23.367 27.503L23.478 29.62"/>
  <path stroke-width="0.131" stroke-linejoin="round" stroke-miterlimit="2" d="M1.302 19.925L1.413 22.042"/>
  <path stroke-width="0.25" stroke-linejoin="round" stroke-miterlimit="2" d="M10.996 35.725C10.242 34.648 9.486 33.57 8.73 32.491C7.27 30.408 5.812 28.324 4.352 26.239C3.398 24.876 2.443 23.513 1.488 22.149C1.465 22.117 1.443 22.068 1.413 22.042C0.861 21.809 0.617 21.312 0.587 20.74C0.554 20.091 0.52 19.442 0.486 18.792"/>
  <path stroke-width="0.131" stroke-linejoin="round" stroke-miterlimit="2" d="M34.543 15.355L34.993 15.993"/>
 </g>
 <g id="A4_x0020_quarter_x0020_frame">
  <g>
   <path stroke="#FFFFFF" stroke-width="0.006" d="M37.502 37.503L37.502 0.003L0.003 0.003L0.003 37.503L37.502 37.503z"/>
  </g>
 </g>
 <g id="Colour">
 </g>
 <g id="Picture_x0020_#">
  <g>
   <g>
    <g>
     <g>
      <text transform="matrix(0 -1 1 0 36.317 36.49)" stroke="none" fill="#000000" font-family="'Helvetica'" font-size="2.117">349 536</text>
     </g>
    </g>
   </g>
  </g>
 </g>
</svg>
