<?xml version="1.0" encoding="utf-8"?>
<!DOCTYPE svg PUBLIC "-//W3C//DTD SVG 1.1//EN" "http://www.w3.org/Graphics/SVG/1.1/DTD/svg11.dtd">
<!-- Generator: PTC Arbortext IsoDraw 7.3 -->
<svg width="100%" height="100%" viewBox="0 0 37.609 8.428"
 xmlns="http://www.w3.org/2000/svg" xmlns:xlink="http://www.w3.org/1999/xlink"
 fill-rule="evenodd" clip-rule="evenodd" stroke="#000000" stroke-linecap="round" fill="none" xml:space="preserve">
 <g id="A4_x0020_quarter_x0020_frame">
  <path stroke="#FFFFFF" stroke-width="0.006" d="M37.503 8.425L0.003 8.425L0.003 0.003L37.503 0.003L37.503 8.425z"/>
 </g>
 <g id="Standard_x0020_layer">
  <g>
   <path stroke-width="0.25" id="AUTOID_8563" d="M10.91 4.538L10.91 6.217"/>
   <path stroke-width="0.25" id="AUTOID_8564" d="M10.91 6.217L11.391 6.217"/>
   <path stroke-width="0.25" id="AUTOID_8565" d="M11.391 6.217C11.51 6.697 11.99 6.817 12.949 6.817C13.909 6.817 15.108 6.217 15.708 6.217C16.307 6.217 18.826 6.336 19.425 6.697C20.025 7.057 28.899 7.296 31.178 7.057C33.457 6.817 34.417 6.937 34.417 4.897"/>
   <path stroke-width="0.25" id="AUTOID_8566" d="M11.391 2.979C11.51 2.499 11.99 2.379 12.949 2.379C13.909 2.379 15.108 2.979 15.708 2.979C16.307 2.979 18.826 2.859 19.425 2.499C20.025 2.14 28.899 1.899 31.178 2.14C33.457 2.379 34.417 2.259 34.417 4.298"/>
   <path stroke-width="0.25" id="AUTOID_8567" d="M10.91 4.538L10.91 2.859"/>
   <path stroke-width="0.25" id="AUTOID_8568" d="M10.91 2.859L11.391 2.859"/>
   <path stroke-width="0.25" id="AUTOID_8569" d="M34.417 4.897L34.417 4.298"/>
   <g>
    <path stroke-width="0.13" id="AUTOID_8570" d="M21.602 5.014L22.321 5.014"/>
    <path stroke-width="0.13" id="AUTOID_8571" d="M22.893 4.402L23.599 4.402"/>
    <path stroke-width="0.13" id="AUTOID_8572" d="M25.05 4.522L25.702 4.522"/>
    <path stroke-width="0.13" id="AUTOID_8573" d="M25.05 4.894L25.663 4.894"/>
    <path stroke-width="0.13" id="AUTOID_8574" d="M25.396 5.546L25.446 5.424"/>
    <path stroke-width="0.13" id="AUTOID_8575" d="M25.661 4.894L26.062 3.908"/>
    <path stroke-width="0.13" id="AUTOID_8576" d="M26.062 3.908L26.993 3.908"/>
    <path stroke-width="0.13" id="AUTOID_8577" d="M26.993 3.908L27.539 5.094"/>
    <path stroke-width="0.13" id="AUTOID_8578" d="M27.539 5.094L27.539 3.883"/>
    <path stroke-width="0.13" id="AUTOID_8579" d="M27.539 3.883L28.338 3.883"/>
    <path stroke-width="0.13" id="AUTOID_8580" d="M28.338 3.883L29.044 4.748"/>
    <path stroke-width="0.13" id="AUTOID_8581" d="M29.044 4.748L29.044 3.868"/>
    <path stroke-width="0.13" id="AUTOID_8582" d="M29.044 3.868L29.67 3.868"/>
    <path stroke-width="0.13" id="AUTOID_8583" d="M29.67 3.868L29.67 5.546"/>
    <path stroke-width="0.13" id="AUTOID_8584" d="M25.396 5.546L26.067 5.546"/>
    <path stroke-width="0.13" id="AUTOID_8585" d="M27.06 5.546L28.152 5.546"/>
    <path stroke-width="0.13" id="AUTOID_8586" d="M28.897 5.546L29.67 5.546"/>
    <path stroke-width="0.13" id="AUTOID_8587" d="M29.815 5.546L30.975 5.546"/>
    <path stroke-width="0.13" id="AUTOID_8588" d="M32.067 5.546L32.679 5.546"/>
    <path stroke-width="0.13" id="AUTOID_8589" d="M26.067 5.546L26.158 5.32"/>
    <path stroke-width="0.13" id="AUTOID_8590" d="M26.338 4.868L26.568 4.294"/>
    <path stroke-width="0.13" id="AUTOID_8591" d="M26.568 4.294L26.794 4.867"/>
    <path stroke-width="0.13" id="AUTOID_8592" d="M26.972 5.32L27.06 5.546"/>
    <path stroke-width="0.13" id="AUTOID_8593" d="M26.341 4.867L26.794 4.867"/>
    <path stroke-width="0.13" id="AUTOID_8594" d="M26.158 5.32L26.981 5.32"/>
    <path stroke-width="0.13" id="AUTOID_8595" d="M28.152 5.546L28.152 4.588"/>
    <path stroke-width="0.13" id="AUTOID_8596" d="M28.152 4.588L28.897 5.546"/>
    <path stroke-width="0.13" id="AUTOID_8597" d="M29.815 5.546L29.815 3.855"/>
    <path stroke-width="0.13" id="AUTOID_8598" d="M29.815 3.855L30.455 3.855"/>
    <path stroke-width="0.13" id="AUTOID_8599" d="M30.455 3.855L30.455 5.094"/>
    <path stroke-width="0.13" id="AUTOID_8600" d="M30.455 5.094L31.013 3.855"/>
    <path stroke-width="0.13" id="AUTOID_8601" d="M31.013 3.855L31.905 3.855"/>
    <path stroke-width="0.13" id="AUTOID_8602" d="M31.905 3.855L32.679 5.546"/>
    <path stroke-width="0.13" id="AUTOID_8603" d="M30.975 5.546L31.074 5.307"/>
    <path stroke-width="0.13" id="AUTOID_8604" d="M31.243 4.894L31.48 4.322"/>
    <path stroke-width="0.13" id="AUTOID_8605" d="M31.48 4.322L31.754 4.894"/>
    <path stroke-width="0.13" id="AUTOID_8606" d="M31.946 5.307L32.079 5.573"/>
    <path stroke-width="0.13" id="AUTOID_8607" d="M31.243 4.894L31.754 4.894"/>
    <path stroke-width="0.13" id="AUTOID_8608" d="M31.074 5.307L31.946 5.307"/>
    <path stroke-width="0.13" id="AUTOID_8609" d="M23.599 4.402C23.599 4.198 23.469 3.979 23.137 3.892C22.804 3.807 22.182 3.839 22.021 3.91C21.861 3.979 21.597 4.139 21.591 4.456C21.586 4.772 22.059 4.87 22.117 4.87C22.176 4.87 22.885 4.794 22.923 4.939C22.96 5.083 22.9 5.206 22.771 5.219C22.643 5.229 22.455 5.261 22.376 5.169C22.295 5.078 22.329 5.062 22.321 5.014"/>
    <path stroke-width="0.13" id="AUTOID_8610" d="M21.602 5.014C21.576 5.261 21.682 5.492 21.951 5.561C22.219 5.631 22.853 5.653 23.115 5.567C23.379 5.48 23.62 5.32 23.705 5.126"/>
    <path stroke-width="0.13" id="AUTOID_8611" d="M22.893 4.402C22.89 4.23 22.847 4.198 22.687 4.182C22.524 4.166 22.455 4.203 22.413 4.258C22.37 4.312 22.37 4.392 22.455 4.456C22.542 4.52 23.158 4.456 23.234 4.509"/>
    <path stroke-width="0.13" id="AUTOID_8612" d="M23.705 5.126C23.833 5.368 24.039 5.535 24.323 5.589C24.606 5.642 25.246 5.612 25.446 5.424"/>
    <path stroke-width="0.13" id="AUTOID_8613" d="M25.05 4.894C25.036 5.11 24.917 5.179 24.708 5.206C24.5 5.235 24.402 5.115 24.35 4.993C24.295 4.87 24.291 4.552 24.355 4.44C24.42 4.328 24.51 4.264 24.666 4.264C24.821 4.264 25.015 4.333 25.05 4.522"/>
    <path stroke-width="0.13" id="AUTOID_8614" d="M25.702 4.522C25.673 4.242 25.535 4.065 25.219 3.919C24.902 3.774 24.263 3.823 24.114 3.968"/>
    <path stroke-width="0.13" id="AUTOID_8615" d="M24.114 3.968C23.861 4.134 23.641 4.264 23.658 4.746"/>
    <path stroke-width="0.13" id="AUTOID_8616" d="M23.234 4.509C23.437 4.559 23.652 4.655 23.658 4.746"/>
   </g>
   <path stroke-width="0.25" id="AUTOID_8618" d="M10.91 3.698L5.711 3.698"/>
   <path stroke-width="0.25" id="AUTOID_8619" d="M10.91 5.512L6.346 5.512"/>
   <path stroke-width="0.13" id="AUTOID_8620" d="M6.346 5.512L6.346 3.698"/>
   <path stroke-width="0.25" id="AUTOID_8621" d="M5.711 3.698L0.53 3.698"/>
   <path stroke-width="0.25" id="AUTOID_8622" d="M0.53 3.698L0.53 4.992"/>
   <path stroke-width="0.25" id="AUTOID_8623" d="M0.53 4.992L1.643 4.992"/>
   <path stroke-width="0.25" id="AUTOID_8624" d="M1.643 4.992L1.801 4.408"/>
   <path stroke-width="0.25" id="AUTOID_8625" d="M1.801 4.408L6.512 5.512"/>
  </g>
 </g>
 <g id="Picture_x0020_#">
  <g>
   <g>
    <g>
     <g>
      <text transform="matrix(0 -1 1 0 36.904 7.963)" stroke="none" fill="#000000" font-family="'Helvetica'" font-size="2.117">351 105</text>
     </g>
    </g>
   </g>
  </g>
 </g>
</svg>
