<?xml version="1.0" encoding="utf-8"?>
<!DOCTYPE svg PUBLIC "-//W3C//DTD SVG 1.1//EN" "http://www.w3.org/Graphics/SVG/1.1/DTD/svg11.dtd">
<!-- Generator: PTC Arbortext IsoDraw 7.3 -->
<svg width="100%" height="100%" viewBox="0 0 75.006 83.825"
 xmlns="http://www.w3.org/2000/svg" xmlns:xlink="http://www.w3.org/1999/xlink"
 fill-rule="evenodd" clip-rule="evenodd" stroke="#000000" stroke-linecap="round" fill="none" xml:space="preserve">
 <g id="Colour">
  <path stroke="none" fill="#CCCCCC" d="M16.853 36.009C16.853 36.009 15.649 35.951 15.384 35.774 15.384 35.774 15.384 35.774 17.265 53.59 17.265 53.59 17.265 53.59 17.205 55.295 17.205 55.295 17.205 55.295 18.617 72.757 18.617 72.757 18.617 72.757 58.128 72.581 58.128 72.581 58.128 72.581 58.951 65.966 58.951 65.966 56.158 59.557 55.718 56.47 55.718 56.47 54.365 54.502 54.365 53.002 54.365 53.002 54.072 52.091 54.072 50.944 54.072 50.944 51.161 42.682 50.896 39.773 50.896 39.773 50.896 39.773 50.308 40.037 50.308 40.037 50.015 40.875 47.28 39.728 47.28 39.728 47.28 39.728 47.5 43.168 47.5 43.168 48.134 43.036 48.134 44.006 48.134 44.006 48.898 44.447 48.81 45.506 48.81 45.506 48.81 45.506 48.457 48.768 48.457 48.768 48.457 48.768 48.015 49.033 48.015 49.033 49.176 50.664 48.192 52.119 48.192 52.119 48.192 52.119 47.412 52.341 47.412 52.341 47.412 52.341 47.31 53.354 47.31 53.354 47.31 53.354 49.793 55.78 49.793 55.78 49.793 55.78 49.515 57.588 49.515 57.588 49.426 58.911 48.192 58.999 48.192 58.999 46.84 58.954 45.604 57.543 45.604 57.543 45.604 57.543 42.283 52.914 42.283 52.914 42.283 52.914 41.488 53.09 41.488 53.09 41.488 53.09 41.048 53.09 41.048 53.09 41.048 53.09 39.99 54.237 39.99 54.237 39.99 54.237 39.99 54.853 39.99 54.853 39.99 54.853 38.225 55.383 38.225 55.383 38.225 55.383 37.784 55.472 37.784 55.472 33.405 55.56 32.435 54.237 32.435 54.237 32.435 54.237 32.259 53.472 32.259 53.472 31.259 53.884 28.524 54.502 28.524 54.502 23.996 55.78 23.733 53.752 23.733 53.752 23.733 53.752 23.498 52.031 23.498 52.031 23.321 51.237 25.262 51.061 25.262 51.061 25.262 51.061 27.878 50.886 27.878 50.886 27.26 48.725 27.26 47.49 27.26 47.49 26.07 44.756 25.629 44.49 25.629 44.49 25.629 44.49 24.879 42.109 24.879 42.109 22.879 38.802 22.175 38.097 22.175 38.097 19.44 37.127 17.765 35.892 16.853 36.009 16.853 36.009 16.853 36.009z"/>
  <path stroke="none" fill="#CCCCCC" d="M30.964 50.796L32.463 50.796 31.582 49.561 30.964 50.796z"/>
  <path stroke="none" fill="#999999" d="M28.141 50.826C28.141 50.826 28.141 50.826 24.673 51.296 24.673 51.296 23.556 51.473 23.614 52.414 23.614 52.414 23.614 52.414 23.792 53.942 23.792 53.942 23.968 55.118 27.612 54.707 27.612 54.707 27.612 54.707 30.376 54.002 30.376 54.002 30.376 54.002 32.259 53.472 32.259 53.472 32.259 53.472 32.435 54.237 32.435 54.237 33.61 55.412 36.314 55.47 36.314 55.47 39.49 55.47 39.99 54.853 39.99 54.853 39.99 54.853 40.313 54.237 40.313 54.237 40.313 54.237 41.048 53.09 41.048 53.09 41.048 53.09 42.283 52.914 42.283 52.914 42.283 52.914 45.957 58 45.957 58 47.898 59.292 48.72 58.881 48.72 58.881 49.661 58.529 49.838 57.646 49.838 57.646 49.838 57.646 49.793 55.78 49.793 55.78 49.793 55.78 49.485 55.177 49.485 55.177 49.485 55.177 47.662 53.649 47.662 53.649 47.662 53.649 47.412 52.341 47.412 52.341 48.78 52.354 48.78 50.709 48.78 50.709 48.426 49.415 48.25 49.003 48.25 49.003 48.25 49.003 48.662 48.71 48.662 48.71 48.662 48.71 49.073 44.947 49.073 44.947 49.073 44.947 48.426 44.064 48.426 44.064 48.456 42.682 47.5 43.167 47.5 43.167 47.5 43.167 47.485 39.773 47.485 39.773 45.781 38.655 44.429 34.834 44.429 34.834 43.018 34.304 39.902 30.952 39.902 30.952 35.728 30.129 34.021 28.66 34.021 28.66 32.61 28.836 31.963 28.602 31.963 28.602 31.259 28.66 31.14 29.66 31.14 29.66 31.14 29.66 30.553 33.188 30.553 33.188 29.495 33.188 29.26 34.186 29.26 34.186 29.26 34.186 24.202 34.716 24.202 34.716 24.202 34.716 23.908 35.009 23.908 35.009 23.908 35.009 24.085 35.421 24.085 35.421 24.085 35.421 23.908 39.655 23.908 39.655 23.908 39.655 23.673 39.89 23.673 39.89 23.673 39.89 23.968 40.301 23.968 40.301 23.968 40.301 25.849 42.183 25.849 42.183 26.025 42.594 26.966 42.418 26.966 42.418 26.966 42.418 30.728 42.066 30.728 42.066 31.259 42.301 31.728 43.417 31.728 43.417 33.021 45.298 31.582 49.561 31.582 49.561 31.582 49.561 32.463 50.796 32.463 50.796 32.463 50.796 30.964 50.796 30.964 50.796 30.201 52.002 28.907 51.767 28.907 51.767 27.907 51.473 28.141 50.826z"/>
 </g>
 <g id="Standard_x0020_layer">
  <path stroke-width="0.3" stroke-linejoin="round" d="M11.208 30.952L10.945 51.414L13.413 83.165"/>
  <path stroke-width="0.3" stroke-linejoin="round" d="M15.178 34.393L17.295 53.795L17.205 55.295L17.382 55.735L18.705 74.697"/>
  <path stroke-width="0.3" stroke-linejoin="round" d="M18.705 72.757L58.128 72.492L60.774 55.207L62.89 55.118"/>
  <path stroke-width="0.3" stroke-linejoin="round" d="M62.89 82.811C62.89 82.811 62.89 82.811 63.243 76.021C63.243 76.021 63.243 76.021 63.42 75.403C63.42 75.403 63.42 75.403 64.037 55.383C64.037 55.383 64.126 53.618 63.597 52.031C63.597 52.031 63.597 52.031 53.454 25.309C53.454 25.309 52.837 24.78 52.661 25.309C52.661 25.309 52.661 25.309 52.307 25.925C52.307 25.925 52.307 25.925 48.868 25.925"/>
  <path stroke-width="0.3" stroke-linejoin="round" d="M29.495 34.246C29.495 34.246 29.495 34.246 24.027 34.716C24.027 34.716 24.027 34.716 23.968 35.069C23.968 35.069 23.968 35.069 24.143 35.304C24.143 35.304 24.143 35.304 23.908 39.478C23.908 39.478 23.908 39.478 23.792 39.713C23.792 39.713 23.792 39.713 23.908 40.008C23.908 40.008 23.908 40.008 25.731 42.125C25.731 42.125 26.025 42.418 26.437 42.359C26.437 42.359 26.437 42.359 31.493 41.948"/>
  <path stroke-width="0.3" stroke-linejoin="round" d="M31.67 49.651C31.67 49.651 31.67 49.651 33.198 51.531C33.198 51.531 33.963 52.767 36.198 52.472C36.198 52.472 36.198 52.472 46.545 51.356C46.545 51.356 47.662 51.179 47.838 49.768C47.838 49.768 47.838 49.768 48.015 48.005C48.015 48.005 48.25 47.533 47.485 46.828"/>
  <path stroke-width="0.3" stroke-linejoin="round" d="M47.31 47.593L47.368 39.832"/>
  <path stroke-width="0.3" stroke-linejoin="round" d="M29.318 34.246C29.318 34.246 29.378 33.304 29.964 33.304C29.964 33.304 29.964 33.304 33.081 33.128"/>
  <path stroke-width="0.3" stroke-linejoin="round" d="M30.67 33.07C30.67 33.07 30.67 33.07 31.317 29.071C31.317 29.071 31.551 28.719 32.023 28.66"/>
  <path stroke-width="0.3" stroke-linejoin="round" d="M32.375 50.709L31.199 50.768"/>
  <path stroke-width="0.3" stroke-linejoin="round" d="M27.731 50.944C27.731 50.944 24.262 51.179 23.85 51.591C23.85 51.591 23.556 51.944 23.614 52.472C23.614 52.472 23.614 52.472 23.733 53.707C23.733 53.707 23.85 54.765 26.202 54.825C26.202 54.825 28.376 54.707 30.435 53.942C30.435 53.942 33.14 53.237 34.433 53.06"/>
  <path stroke-width="0.3" stroke-linejoin="round" d="M35.139 53.237C35.139 53.237 35.139 53.237 36.786 54C36.786 54 36.786 54 37.725 54.883C37.725 54.883 38.079 55.353 38.49 55.295C38.49 55.295 38.49 55.295 39.607 55.118C39.607 55.118 40.078 55.118 40.137 54.765C40.137 54.765 40.137 54.765 40.195 53.06C40.195 53.06 40.255 52.707 39.667 52.472"/>
  <path stroke-width="0.3" stroke-linejoin="round" d="M40.255 54C40.255 54 40.255 54 41.253 53.119C41.253 53.119 42.018 53.119 42.606 52.767C42.606 52.767 44.546 52.59 44.899 52.414C44.899 52.414 44.899 52.414 44.957 51.649"/>
  <path stroke-width="0.3" stroke-linejoin="round" d="M42.429 53.002C42.429 53.002 43.546 54.53 44.487 55.883C44.487 55.883 45.78 57.881 46.487 58.353C46.487 58.353 47.427 59.057 48.545 58.939C48.545 58.939 49.603 58.764 49.603 57.881C49.603 57.881 49.603 57.881 49.72 55.883C49.72 55.883 49.78 55.648 49.073 55C49.073 55 49.073 55 47.545 53.414"/>
  <path stroke-width="0.3" stroke-linejoin="round" d="M47.427 54.353C47.427 54.353 47.545 51.472 47.25 51.003"/>
  <path stroke-width="0.3" stroke-linejoin="round" d="M47.487 52.237C47.487 52.237 48.545 52.354 48.662 51.356C48.662 51.356 48.72 49.298 48.073 49.003C48.073 49.003 48.485 49.003 48.545 48.651C48.545 48.651 48.545 48.651 48.956 44.947C48.956 44.947 48.956 44.534 48.25 43.947C48.25 43.947 48.427 43.066 47.487 43.182"/>
  <path stroke-width="0.131" stroke-linejoin="round" d="M32.526 54.14C32.746 54.5 33.463 55.25 35.668 55.47C35.668 55.47 38.079 55.648 39.137 55.176"/>
  <path stroke-width="0.3" stroke-linejoin="round" d="M32.375 53.472C32.375 53.472 32.375 53.472 32.435 53.942C32.435 53.942 32.453 54.02 32.526 54.14"/>
  <path stroke="#808080" stroke-width="0.3" stroke-linejoin="round" d="M32.493 54.412C32.493 54.412 32.493 54.412 32.67 55.06C33.021 55.447 33.786 56.176 36.139 56.295C36.139 56.295 39.02 56.411 39.783 55.412C39.783 55.412 39.783 55.412 39.783 55.353"/>
  <path stroke-width="0.3" stroke-linejoin="round" d="M24.556 36.069C24.556 36.069 24.556 36.069 25.673 37.362C25.673 37.362 26.202 38.067 26.202 38.95C26.202 38.95 26.143 41.359 25.966 41.478"/>
  <path stroke-width="0.3" stroke-linejoin="round" d="M58.893 65.878C58.893 65.878 56.012 58.999 55.6 56.353C55.6 56.353 54.307 53.942 54.542 53.119C54.542 53.119 53.954 51.942 54.131 51.179C54.131 51.179 51.073 42.594 50.956 39.89"/>
  <path stroke-width="0.3" stroke-linejoin="round" d="M13.032 32.07C13.032 32.07 13.032 32.07 14.971 53.06C14.971 53.06 15.089 54.002 15.031 55.707"/>
  <path stroke-width="0.131" stroke-linejoin="round" d="M27.318 47.357C27.26 48.475 27.672 50.473 27.672 50.473C27.672 50.473 27.672 50.473 28.083 51.003C28.202 51.767 29.082 51.767 29.082 51.767C31.493 51.944 32.258 47.18 32.258 47.18C32.61 43.889 30.905 42.241 30.905 42.241"/>
  <path stroke-width="0.131" stroke-linejoin="round" d="M27.202 47.593C27.202 47.593 27.202 47.593 26.731 46.298C26.731 46.298 25.321 44.299 25.085 42.889C25.085 42.889 24.496 40.831 22.321 38.127C22.321 38.127 21.204 37.127 20.911 36.128"/>
  <path stroke-width="0.131" stroke-linejoin="round" d="M22.321 38.127C22.321 38.127 17.676 36.597 14.971 33.246C14.971 33.246 13.442 31.835 12.266 30.954C12.266 30.954 11.092 30.365 10.269 28.836C10.269 28.836 7.623 26.25 4.094 25.25"/>
  <path stroke-width="0.131" stroke-linejoin="round" d="M30.141 28.896C30.141 28.896 30.201 31.541 29.964 33.07"/>
  <path stroke-width="0.131" stroke-linejoin="round" d="M27.26 28.365C27.26 28.365 29.964 28.836 31.553 28.484C31.553 28.484 32.905 28.719 34.081 28.719C34.081 28.719 36.432 30.306 39.902 30.952C39.902 30.952 42.723 34.186 44.369 34.834C44.369 34.834 45.722 38.95 47.838 40.008C47.838 40.008 49.543 40.655 50.366 40.183C50.366 40.183 51.661 39.36 50.779 37.067C50.779 37.067 50.779 37.067 50.426 35.892C50.426 35.892 49.956 34.304 49.72 33.598C49.72 33.598 49.133 31.777 48.603 31.364C48.603 31.364 45.604 27.542 45.076 26.425C45.076 26.425 44.017 24.838 42.664 24.545C42.664 24.545 34.726 20.722 33.433 20.487C33.433 20.487 32.61 20.135 32.493 19.841"/>
  <path stroke-width="0.131" stroke-linejoin="round" d="M32.375 21.076C32.375 21.076 30.435 19.841 30.082 19.487C30.082 19.487 29.082 18.899 26.966 19.37"/>
  <path stroke-width="0.131" stroke-linejoin="round" d="M44.017 26.25C44.017 26.25 43.488 27.132 42.723 27.542C42.723 27.542 42.018 27.777 42.664 27.954C42.664 27.954 43.488 27.954 44.134 27.19"/>
  <path stroke-width="0.131" stroke-linejoin="round" d="M48.368 33.07C48.368 33.07 47.78 33.951 47.31 34.186C47.31 34.186 47.192 34.539 48.015 34.186"/>
  <path stroke-width="0.131" stroke-linejoin="round" d="M49.956 36.185C49.956 36.185 49.661 36.95 49.073 37.539C49.073 37.539 48.898 38.009 49.073 38.42C49.073 38.42 49.545 39.301 49.603 39.713"/>
  <path stroke-width="0.131" stroke-linejoin="round" d="M28.083 51.003C28.083 51.003 28.083 49.768 28.437 48.591C28.437 48.591 27.847 47.593 27.789 46.357"/>
  <path stroke-width="0.131" stroke-linejoin="round" d="M13.679 27.484C13.679 27.484 11.326 25.25 9.681 25.132"/>
  <path stroke-width="0.131" stroke-linejoin="round" d="M31.082 14.019C31.082 14.019 31.082 14.019 32.493 13.785C32.493 13.785 33.551 13.55 34.963 15.077C34.963 15.077 37.02 16.725 39.255 17.724C39.255 17.724 44.899 20.135 46.252 21.722C46.252 21.722 47.722 22.368 48.073 23.074C48.073 23.074 48.485 24.015 48.485 25.25C48.485 25.25 48.838 27.367 49.133 28.66C49.133 28.66 50.661 33.363 50.015 34.539"/>
  <path stroke-width="0.131" stroke-linejoin="round" d="M47.25 23.074C47.25 23.074 47.192 24.074 46.78 24.367"/>
  <path stroke-width="0.131" stroke-linejoin="round" d="M47.722 23.603C47.722 23.603 47.545 24.721 46.722 25.015C46.722 25.015 45.957 25.603 47.722 25.25"/>
  <path stroke-width="0.131" stroke-linejoin="round" d="M10.621 10.492C10.621 10.492 16.442 14.548 20.617 14.725C20.617 14.725 25.496 14.608 32.375 13.256C32.375 13.256 34.491 12.55 35.963 13.843C35.963 13.843 37.137 14.666 38.256 15.43C38.256 15.43 45.429 20.076 46.252 21.722"/>
  <path stroke-width="0.131" stroke-linejoin="round" d="M27.612 31.071C27.612 31.071 28.378 32.423 28.612 33.893"/>
  <path stroke-width="0.131" stroke-linejoin="round" d="M11.974 31.423C11.974 31.423 11.974 31.423 14.089 53.884C14.089 53.884 14.148 55.707 14.148 56.53C14.148 56.53 14.148 56.53 13.855 82.576"/>
  <path stroke-width="0.131" stroke-linejoin="round" d="M18.794 74.757C18.794 74.757 18.794 74.757 58.951 74.403C58.951 74.403 58.951 74.403 61.127 55.765C61.127 55.765 61.127 55.765 63.185 55.823C63.185 55.823 64.126 55.942 64.007 54.412"/>
  <path stroke-width="0.131" stroke-linejoin="round" d="M58.128 72.698L58.951 74.403"/>
  <path stroke-width="0.131" stroke-linejoin="round" d="M61.127 55.765L60.774 55.207"/>
  <path stroke-width="0.131" stroke-linejoin="round" d="M14.031 76.462L14.384 76.638L62.774 76.168L63.243 76.021"/>
  <path stroke-width="0.3" stroke-linejoin="round" d="M15.089 55.295L17.205 55.295"/>
  <path stroke-width="0.131" stroke-linejoin="round" d="M60.481 56C60.481 56 60.481 56 60.069 54.825C60.069 54.825 60.069 54.825 60.069 54C60.069 54 60.069 54 60.069 53.53C60.069 53.53 60.069 53.53 50.543 26.954C50.543 26.954 50.191 26.544 49.543 26.367"/>
  <path stroke-width="0.131" stroke-linejoin="round" d="M52.661 25.309C52.661 25.309 52.661 25.309 62.774 52.119C62.774 52.119 63.362 54 63.067 55"/>
  <path stroke-width="0.131" stroke-linejoin="round" d="M63.243 55.295L63.597 55.588"/>
  <path stroke-width="0.131" stroke-linejoin="round" d="M52.307 26.367L58.188 42.241"/>
  <path stroke-width="0.131" stroke-linejoin="round" d="M58.423 42.359C58.423 42.359 57.6 42.418 57.54 43.124"/>
  <path stroke-width="0.131" stroke-linejoin="round" d="M58.658 43.652L60.362 48.475"/>
  <path stroke-width="0.131" stroke-linejoin="round" d="M60.951 48.828C60.951 48.828 60.186 48.651 59.834 48.886C59.834 48.886 59.539 49.121 59.539 49.356"/>
  <path stroke-width="0.131" stroke-linejoin="round" d="M61.127 50.414L62.127 52.942L62.362 53.942L62.243 54.707L62.42 55.118"/>
  <path stroke-width="0.131" stroke-linejoin="round" d="M60.481 53.825L61.951 53.825"/>
  <path stroke-width="0.131" stroke-linejoin="round" d="M15.384 53.825L16.853 53.767"/>
  <path stroke-width="0.131" stroke-linejoin="round" d="M16.382 40.183L22.91 40.183"/>
  <path stroke-width="0.131" stroke-linejoin="round" d="M23.673 51.884C23.673 51.884 23.614 52.179 24.437 52.649C24.437 52.649 25.379 53.177 27.554 52.707C27.554 52.707 32.2 52.119 33.375 51.767"/>
  <path stroke-width="0.131" stroke-linejoin="round" d="M32.845 53.649C32.845 53.649 34.081 55.235 37.725 54.883"/>
  <path stroke-width="0.131" stroke-linejoin="round" d="M36.198 52.472C36.198 52.472 36.198 52.472 37.432 52.942C37.432 52.942 37.96 53.06 38.372 53.177C38.372 53.177 39.843 53.237 40.195 52.884"/>
  <path stroke-width="0.131" stroke-linejoin="round" d="M37.902 53.414C37.902 53.414 37.726 54.59 37.962 55.177"/>
  <path stroke-width="0.131" stroke-linejoin="round" d="M44.017 52.884C44.017 52.884 44.017 52.884 46.31 55.942C46.31 55.942 47.192 57 48.72 56.706C48.72 56.706 50.015 56.47 49.543 55.588"/>
  <path stroke-width="0.131" stroke-linejoin="round" d="M46.31 51.414C46.31 51.414 46.31 53.354 46.252 54.472"/>
  <path stroke-width="0.131" stroke-linejoin="round" d="M44.781 52.707L46.076 54.118"/>
  <path stroke-width="0.131" stroke-linejoin="round" d="M47.427 45.594C47.427 45.594 48.956 45.594 48.956 44.829"/>
  <path stroke-width="0.131" stroke-linejoin="round" d="M47.427 44.829C47.427 44.829 48.133 44.887 48.133 44.182"/>
  <path stroke-width="0.131" stroke-linejoin="round" d="M47.898 47.18C47.898 47.18 48.485 47.182 48.72 46.71"/>
  <path stroke-width="0.131" stroke-linejoin="round" d="M46.487 54.59L47.31 54.472"/>
  <path stroke-width="0.131" stroke-linejoin="round" d="M31.788 31.071C31.788 31.071 34.786 34.363 38.432 35.951"/>
  <path stroke-width="0.131" stroke-linejoin="round" d="M38.667 36.951L38.197 48.356"/>
  <path stroke-width="0.131" stroke-linejoin="round" d="M39.372 36.304C39.372 36.304 42.548 35.951 43.959 35.774"/>
  <path stroke-width="0.131" stroke-linejoin="round" d="M31.905 48.886C31.905 48.886 31.905 48.886 33.786 50.768C33.786 50.768 34.375 51.472 36.079 51.296C36.079 51.296 36.079 51.296 46.957 50.179C46.957 50.179 47.838 49.945 47.838 49.533"/>
  <path stroke-width="0.131" stroke-linejoin="round" d="M32.317 47.651C32.317 47.651 32.317 47.651 33.433 48.591C33.433 48.591 34.609 49.71 36.551 49.356C36.551 49.356 36.551 49.356 46.899 48.356C46.899 48.356 48.192 48.063 47.898 47.533"/>
  <path stroke-width="0.131" stroke-linejoin="round" d="M34.433 49.651L34.493 52.061"/>
  <path stroke-width="0.131" stroke-linejoin="round" d="M46.957 47.768C46.957 47.768 46.957 47.768 38.548 48.71C38.548 48.71 37.962 48.533 37.725 48.415C37.725 48.415 37.314 48.005 36.962 47.945"/>
  <path stroke-width="0.131" stroke-linejoin="round" d="M34.14 47.417C34.14 47.417 33.551 47.357 32.905 47.533"/>
  <path stroke-width="0.131" stroke-linejoin="round" d="M34.844 42.771L35.256 46.71"/>
  <path stroke-width="0.3" stroke-linejoin="round" d="M31.317 42.359C31.317 42.359 31.318 43.064 32.14 43.241C32.14 43.241 32.14 43.241 34.198 43.124"/>
  <path stroke-width="0.131" stroke-linejoin="round" d="M33.023 43.594C33.023 43.594 32.67 44.359 33.258 47.064"/>
  <path stroke-width="0.131" stroke-linejoin="round" d="M34.433 42.536C34.433 42.536 34.433 42.536 34.844 41.008C34.844 41.008 34.844 41.008 36.198 37.597C36.198 37.597 36.726 36.244 35.963 35.481C35.963 35.481 35.963 35.481 33.375 33.363"/>
  <path stroke-width="0.131" stroke-linejoin="round" d="M32.963 36.362L35.786 36.185"/>
  <path stroke-width="0.131" stroke-linejoin="round" d="M29.73 34.481C29.73 34.481 29.73 34.481 31.376 36.304C31.376 36.304 32.023 37.067 32.023 38.42C32.023 38.42 32.023 38.42 31.847 41.008C31.847 41.008 31.847 41.831 31.14 41.948"/>
  <path stroke-width="0.131" stroke-linejoin="round" d="M27.202 38.009L31.434 37.715"/>
  <path stroke-width="0.131" stroke-linejoin="round" d="M24.379 34.834C24.379 34.834 24.379 34.834 26.085 36.892C26.085 36.892 26.789 37.715 26.673 38.832C26.673 38.832 26.673 38.832 26.495 41.595C26.495 41.595 26.437 42.654 25.731 42.125"/>
  <path stroke-width="0.131" stroke-linejoin="round" d="M24.614 36.244L24.437 39.713L25.849 41.478"/>
  <path stroke-width="0.131" stroke-linejoin="round" d="M29.964 33.658C29.964 33.658 29.964 33.658 32.082 35.892C32.082 35.892 32.787 36.539 32.61 37.774C32.61 37.774 32.61 37.774 32.14 42.241C32.14 42.241 32.023 43.241 31.67 43.006"/>
  <path stroke-width="0.131" stroke-linejoin="round" d="M36.588 48.039C36.406 48.25 35.929 48.384 35.375 48.356C34.679 48.322 34.125 48.045 34.14 47.737"/>
  <path stroke-width="0.3" stroke-linejoin="round" d="M34.14 47.737C34.156 47.427 34.734 47.206 35.43 47.24C36.128 47.274 36.682 47.552 36.667 47.86C36.662 47.924 36.636 47.984 36.588 48.039"/>
  <path stroke-width="0.3" stroke-linejoin="round" d="M34.14 47.768C34.14 47.768 34.14 47.768 34.04 48.271C34.024 48.606 34.624 48.906 35.381 48.945C36.137 48.981 36.765 48.741 36.781 48.406C36.781 48.406 36.781 48.406 36.726 47.945"/>
  <path stroke-width="0.3" stroke-linejoin="round" d="M48.948 55.783C48.929 56.009 48.493 56.159 47.976 56.115C47.459 56.073 47.054 55.853 47.073 55.627"/>
  <path stroke-width="0.131" stroke-linejoin="round" d="M47.073 55.627L47.073 55.627C47.093 55.399 47.527 55.25 48.045 55.292C48.563 55.335 48.966 55.554 48.948 55.781"/>
  <path stroke-width="0.131" stroke-linejoin="round" d="M46.487 56.823L46.487 57.706"/>
  <path stroke-width="0.131" stroke-linejoin="round" d="M25.262 53.237L25.32 54.177"/>
  <path stroke-width="0.131" stroke-linejoin="round" d="M39.5 54.503C39.203 54.847 38.732 54.926 38.451 54.682C38.17 54.436 38.182 53.96 38.479 53.616C38.777 53.274 39.247 53.194 39.53 53.438C39.811 53.682 39.798 54.159 39.5 54.503z"/>
  <path stroke-width="0.3" stroke-linejoin="round" d="M15.618 35.892C15.618 35.892 16.618 36.244 17.442 36.009"/>
  <path stroke-width="0.131" stroke-linejoin="round" d="M15.324 56L17.088 55.942"/>
  <path stroke-width="0.131" stroke-linejoin="round" d="M49.896 27.132L49.896 30.365"/>
  <path stroke="#999999" stroke-width="0.131" stroke-linejoin="round" d="M43.018 55.59C41.789 56.606 39.42 57.293 36.697 57.293C33.557 57.293 30.885 56.378 29.894 55.1"/>
  <path stroke="#999999" stroke-width="0.131" stroke-linejoin="round" d="M44.076 57.39C42.137 58.206 39.545 58.704 36.697 58.704C32.503 58.704 28.864 57.622 27.045 56.036"/>
  <path stroke="#FFFFFF" stroke-width="1.058" stroke-linejoin="round" d="M41.664 7.855L37.587 12.204L33.509 7.855L35.819 7.855L35.819 2.099L39.356 2.099L39.356 7.855L41.664 7.855z"/>
  <path stroke="none" fill="#1A171B" d="M41.664 7.855L37.587 12.204 33.509 7.855 35.819 7.855 35.819 2.099 39.356 2.099 39.356 7.855 41.664 7.855z"/>
 </g>
 <g id="A4_x0020_half_x0020_frame">
  <path stroke="#FFFFFF" stroke-width="0.006" d="M75.003 0.003L75.003 83.822L0.003 83.822L0.003 0.003L75.003 0.003z"/>
 </g>
 <g id="Picture_x0020_#">
  <text transform="matrix(0 -1 1 0 73.817 82.808)" stroke="none" fill="#000000" font-family="'Arial'" font-size="2.117">352 559</text>
 </g>
</svg>
