<?xml version="1.0" encoding="utf-8"?>
<!DOCTYPE svg PUBLIC "-//W3C//DTD SVG 1.1//EN" "http://www.w3.org/Graphics/SVG/1.1/DTD/svg11.dtd">
<!-- Generator: PTC Arbortext IsoDraw 7.3 -->
<svg width="100%" height="100%" viewBox="0 0 75.006 118.397"
 xmlns="http://www.w3.org/2000/svg" xmlns:xlink="http://www.w3.org/1999/xlink"
 fill-rule="evenodd" clip-rule="evenodd" stroke="#000000" stroke-linecap="round" fill="none" xml:space="preserve">
 <g id="Colour">
  <path stroke="none" fill="#B2B2B2" d="M34.087 75.87L32.276 74.927 30.841 73.906 29.777 72.671 29.713 71.123C29.713 71.123 27.888 70.147 27.809 70.094 27.728 70.04 26.315 68.888 26.315 68.888L25.556 67.995 24.974 66.79 25.926 65.34 27.321 64.093C27.321 64.093 28.582 63.313 28.596 63.305 28.609 63.298 30.248 62.564 30.248 62.564L33.863 61.639 37.865 61.406C37.865 61.406 41.296 61.796 41.439 61.826 41.579 61.856 44.869 62.89 44.869 62.89L47.298 64.257 48.875 65.521 49.753 67.182 49.024 68.403 47.542 69.837 46.165 70.715 45.097 71.231 45.06 72.54 44.411 73.722 43.329 74.814C43.329 74.814 41.106 75.457 41.054 75.484 41 75.51 41.103 75.849 41.103 75.849L42.296 78.343 45.634 77.439 49.314 76.063C49.314 76.063 51.643 74.316 51.906 74.245 52.168 74.171 52.932 73.165 53.014 73.058 53.097 72.951 54.046 71.311 54.046 71.311 54.046 71.311 54.463 69.796 54.476 69.643 54.49 69.489 54.561 67.287 54.561 67.287L54.243 65.572 53.328 63.774 52.11 62.343 49.695 60.494 47.164 59.218 44.079 58.021 41.573 57.667 37.735 57.31 34.838 57.375C34.838 57.375 30.952 57.926 30.931 57.932 30.908 57.936 27.461 58.975 27.461 58.975 27.461 58.975 24.638 60.38 24.626 60.387 24.612 60.395 22.449 62.097 22.449 62.097L21.37 63.393 20.585 64.903C20.585 64.903 20.216 66.676 20.217 66.649 20.219 66.621 20.182 69.081 20.182 69.081L20.617 70.799 21.606 72.519C21.606 72.519 23.077 73.918 22.986 74.004 22.893 74.091 25.405 75.724 25.405 75.724L28.303 77.197C28.303 77.197 32.139 78.147 32.09 78.135 32.04 78.126 34.765 78.539 34.765 78.539L37.093 78.686 39.64 78.635 42.295 78.343 41.104 75.849 37.515 76.144 34.087 75.87z"/>
  <path stroke="none" fill="#B2B2B2" d="M34.74 33.527C34.74 33.527 32.936 33.622 32.874 33.628 32.811 33.634 31.182 33.862 31.182 33.862L29.35 34.338 28.115 34.924 27.6 35.363 27.309 35.911 27.285 37.029 27.472 37.649C27.472 37.649 28.221 38.362 28.208 38.354 28.196 38.347 29.295 38.926 29.306 38.932 29.318 38.936 30.55 39.362 30.55 39.362 30.55 39.362 32.212 39.837 32.338 39.816 32.463 39.795 33.503 39.869 33.503 39.869 33.503 39.869 33.008 39.567 32.978 39.557 32.947 39.545 32.055 38.856 32.055 38.856L32.033 38.1C32.033 38.1 31.908 37.131 31.971 37.131 32.033 37.131 31.039 36.993 31.086 36.957 31.134 36.921 30.155 36.484 30.155 36.484L29.833 36.136C29.833 36.136 30.859 35.652 30.902 35.619 30.946 35.588 32.283 35.329 32.316 35.323 32.348 35.317 33.718 35.037 33.718 35.037L34.822 35.055 34.74 33.527z"/>
  <path stroke="none" fill="#B2B2B2" d="M40.048 37.371L39.953 39.039C39.953 39.039 39.521 39.45 39.478 39.45 39.435 39.45 37.838 39.978 37.828 39.978 37.817 39.978 38.518 40.204 38.529 40.204 38.539 40.204 40.173 39.865 40.213 39.895 40.255 39.923 42.012 39.506 42.012 39.506L43.814 38.813 44.448 38.112C44.448 38.112 44.741 37.53 44.731 37.54 44.719 37.551 44.609 36.472 44.609 36.472L44.304 35.845 43.829 35.408C43.829 35.408 42.942 34.981 42.972 34.951 43.003 34.921 41.051 34.222 41.051 34.222L38.817 33.776C38.817 33.776 36.439 33.552 36.429 33.552 36.417 33.551 34.527 33.593 34.527 33.593 34.527 33.593 34.509 35.137 34.49 35.072 34.472 35.005 37.676 35.081 37.817 35.081 37.957 35.081 39.909 35.459 39.909 35.459L41.344 36.018 42.402 36.542 41.377 37.015 40.048 37.371z"/>
 </g>
 <g id="Standard_x0020_layer">
  <path stroke-width="0.13" d="M60.036 27.382C60.036 27.091 59.582 26.835 58.892 26.693"/>
  <path stroke-width="0.3" d="M58.892 26.693C58.514 26.617 58.098 26.582 57.701 26.582C56.411 26.582 55.366 26.94 55.366 27.382"/>
  <path stroke-width="0.13" d="M55.366 27.382C55.366 27.823 56.411 28.179 57.701 28.179C58.99 28.179 60.036 27.823 60.036 27.382"/>
  <path stroke-width="0.13" d="M13.952 28.501C13.952 28.21 13.499 27.957 12.808 27.815"/>
  <path stroke-width="0.3" d="M12.808 27.815C12.43 27.739 12.016 27.702 11.618 27.704C10.329 27.704 9.284 28.06 9.284 28.501"/>
  <path stroke-width="0.13" d="M9.284 28.501C9.284 28.943 10.329 29.3 11.618 29.3C12.907 29.3 13.952 28.943 13.952 28.501"/>
  <path stroke-width="0.3" d="M15.961 22.618C12.832 20.798 10.778 21.219 9.798 21.312C8.817 21.405 7.557 21.964 7.557 22.292C7.557 22.618 7.557 22.618 7.557 22.618C7.557 22.618 7.416 27.195 7.416 27.801C7.416 28.408 7.509 28.969 8.349 29.388C9.191 29.809 9.843 30.51 10.451 30.556C11.057 30.603 12.599 30.51 13.439 30.556C14.279 30.603 23.524 34.432 26.932 37.28"/>
  <path stroke-width="0.13" d="M7.883 27.942C8.444 26.26 12.878 27.147 14.047 27.521C15.214 27.894 16.614 29.248 16.614 29.248C16.614 29.248 18.062 29.109 18.669 29.155C19.275 29.202 21.096 30.416 21.657 30.51"/>
  <path stroke-width="0.13" d="M13.205 30.23L16.614 29.248"/>
  <path stroke-width="0.13" d="M22.731 29.623L22.684 24.253"/>
  <path stroke-width="0.13" d="M15.961 22.618C17.315 23.458 20.21 25.466 21.236 24.486C22.263 23.506 23.243 22.059 23.385 21.405"/>
  <path stroke-width="0.3" d="M13.618 21.571L14.326 13.234"/>
  <path stroke-width="0.3" d="M12.692 10.012C12.785 11.74 12.319 13.281 12.878 13.794"/>
  <path stroke-width="0.13" d="M12.878 13.794C13.439 14.307 14.186 15.148 13.813 15.662C13.439 16.175 12.646 16.503 12.179 16.969C11.711 17.437 11.057 19.678 12.319 21.032"/>
  <path stroke-width="0.13" d="M12.566 16.649C11.246 16.455 7.416 17.39 7.416 17.39C7.416 17.39 6.435 18.417 6.528 19.678C6.623 20.937 6.762 22.012 7.557 22.292"/>
  <path stroke-width="0.3" d="M6.964 18.013C6.985 17.978 5.035 17.856 5.035 19.631C5.035 21.405 5.596 22.432 6.155 22.899C6.716 23.365 7.533 23.367 7.533 23.367"/>
  <path stroke-width="0.13" d="M12.763 6.719C12.388 6.221 11.095 5.876 9.647 5.855C7.945 5.833 6.544 6.264 6.408 6.838"/>
  <path stroke-width="0.13" d="M12.781 5.769C11.936 5.493 10.868 5.351 9.807 5.339C7.371 5.309 5.389 5.961 5.379 6.794"/>
  <path stroke-width="0.3" d="M5.379 6.794C5.375 7.165 5.761 7.509 6.399 7.775"/>
  <path stroke-width="0.13" d="M12.894 4.807C11.166 4.216 8.423 4.195 6.719 4.756"/>
  <path stroke-width="0.3" d="M6.719 4.756C5.855 5.04 5.419 5.421 5.416 5.807"/>
  <path stroke-width="0.3" d="M5.416 5.807L5.379 6.794"/>
  <path stroke-width="0.3" d="M12.692 10.012C12.692 10.012 12.715 7.089 12.784 6.44C12.852 5.794 12.471 4.443 13.679 4.152C14.884 3.862 25.367 1.552 25.367 1.552"/>
  <path stroke-width="0.3" d="M14.445 3.976C14.573 2.988 14.676 2.488 15.987 2.177C17.297 1.865 19.922 2.484 19.856 2.634"/>
  <path stroke-width="0.13" d="M19.856 2.634L19.856 1.199"/>
  <path stroke-width="0.3" d="M6.399 6.919L6.399 14.99"/>
  <path stroke-width="0.3" d="M12.669 4.735L12.669 1.282"/>
  <path stroke-width="0.3" d="M6.379 4.881L6.379 1.199"/>
  <path stroke-width="0.13" d="M12.74 7.314C13.159 6.44 14.781 6.232 15.364 6.108C15.945 5.982 37.786 1.449 37.786 1.449"/>
  <path stroke-width="0.13" d="M17.527 9.019L43.152 3.488"/>
  <path stroke-width="0.13" d="M16.82 13.138C18.275 13.846 20.146 14.718 20.687 14.926C21.228 15.135 22.31 15.259 22.643 14.304C22.975 13.346 22.684 12.763 22.684 12.763"/>
  <path stroke-width="0.13" d="M17.984 9.561C18.567 9.435 19.897 10.143 20.605 10.558C21.312 10.974 22.518 11.641 22.518 11.641"/>
  <path stroke-width="0.13" d="M21.228 15.593C21.228 18.713 21.644 24.163 18.858 23.788"/>
  <path stroke-width="0.13" d="M25.638 19.088C25.804 20.169 26.428 20.544 26.844 20.544C27.26 20.544 32.128 19.795 33.085 19.545C34.042 19.295 34.207 17.714 34.125 16.757C34.042 15.801 33.917 14.635 34.042 14.262C34.167 13.887 34.54 13.512 34.54 13.512"/>
  <path stroke-width="0.13" d="M23.225 11.641C23.225 11.641 26.303 10.268 26.428 11.557C26.553 12.848 26.346 14.718 26.594 14.926"/>
  <path stroke-width="0.13" d="M27.469 13.804C31.379 12.099 38.618 12.016 41.322 13.096"/>
  <path stroke-width="0.13" d="M26.637 10.185C28.217 8.978 33.625 7.605 37.536 8.147C41.447 8.688 42.154 9.227 42.819 8.978C43.484 8.728 45.066 8.646 45.939 8.396C46.813 8.147 47.893 8.147 48.643 8.563"/>
  <path stroke-width="0.3" d="M12.878 13.794L3.855 15.496"/>
  <path stroke-width="0.3" d="M3.855 15.496L3.79 32.338"/>
  <path stroke-width="0.3" d="M3.79 32.338L17.846 40.136"/>
  <path stroke-width="0.3" d="M17.846 40.136L27.315 38.07"/>
  <path stroke-width="0.13" d="M4.413 32.238L10.441 30.896"/>
  <path stroke-width="0.13" d="M26.702 30.196C28.996 29.638 29.751 30.327 30.077 30.621"/>
  <path stroke-width="0.3" d="M41.795 30.862C42.32 29.454 46.939 28.995 48.479 28.995C50.02 28.995 52.313 28.897 53.395 29.094C54.475 29.291 55.426 29.946 55.753 30.012C56.081 30.077 56.473 29.879 56.932 29.879C57.392 29.879 60.241 28.832 61.06 28.242C61.88 27.652 61.912 26.832 61.88 26.178C61.847 25.522 61.847 22.836 61.651 21.984C61.454 21.132 60.143 19.888 57.621 20.083C55.097 20.28 50.38 21.557 49.036 21.853"/>
  <path stroke-width="0.13" d="M38.88 14.743C38.814 17.954 39.338 22.868 42.68 22.771C46.021 22.672 49.036 21.853 49.036 21.853"/>
  <path stroke-width="0.13" d="M38.912 28.176C40.682 27.422 44.744 26.67 47.168 26.832C49.594 26.996 50.511 27.259 50.478 27.227"/>
  <path stroke-width="0.13" d="M51.56 27.03C53.984 26.341 57.686 25.556 59.521 25.916C61.356 26.275 61.878 27.076 61.634 27.609"/>
  <path stroke-width="0.13" d="M53.395 29.094L51.134 27.652"/>
  <path stroke-width="0.13" d="M37.732 14.382L37.667 28.307"/>
  <path stroke-width="0.3" d="M52.536 21.013L49.07 14.448"/>
  <path stroke-width="0.13" d="M49.921 14.022L56.31 17.463"/>
  <path stroke-width="0.13" d="M51.07 18.234C52.869 18.282 56.478 18.207 58.115 20.064"/>
  <path stroke-width="0.3" d="M61.792 23.353C62.436 23.295 63.223 22.246 63.387 21.623C63.551 21.001 63.551 21.001 63.551 21.001"/>
  <path stroke-width="0.13" d="M49.07 8.781L56.67 13.432"/>
  <path stroke-width="0.13" d="M56.735 14.218L56.573 16.708"/>
  <path stroke-width="0.13" d="M57.588 13.826C58.21 13.792 61.454 15.563 62.338 16.152C63.223 16.742 64.501 16.939 63.551 21.001"/>
  <path stroke-width="0.3" d="M63.518 21.129C63.518 21.129 70.006 19.69 71.185 19.134C72.364 18.576 72.888 18.248 72.953 16.939C73.019 15.628 72.986 14.776 73.019 14.022C73.052 13.269 73.019 12.909 72.331 12.352C71.644 11.794 66.302 8.943 66.302 8.943"/>
  <path stroke-width="0.3" d="M66.302 8.943L65.647 1.245"/>
  <path stroke-width="0.13" d="M72.593 14.612L47.365 1.048"/>
  <path stroke-width="0.13" d="M71.873 17.495L47.561 3.734"/>
  <path stroke-width="0.13" d="M37.786 1.449C39.697 0.972 45.383 0.172 47.365 1.048"/>
  <path stroke-width="0.13" d="M43.152 3.488C44.383 3.257 46.81 3.309 47.561 3.734"/>
  <path stroke-width="0.13" d="M45.764 5.312C45.768 5.024 45.088 4.778 44.243 4.764C43.399 4.751 42.71 4.974 42.706 5.262C42.701 5.464 43.029 5.642 43.518 5.74"/>
  <path stroke-width="0.13" d="M44.856 5.775C45.42 5.697 45.756 5.514 45.764 5.312"/>
  <path stroke-width="0.13" d="M69.441 18.46C69.447 18.172 68.766 17.926 67.921 17.913C67.076 17.899 66.388 18.123 66.384 18.411C66.381 18.611 66.706 18.792 67.197 18.888"/>
  <path stroke-width="0.13" d="M68.536 18.923C69.097 18.846 69.435 18.661 69.441 18.46"/>
  <path stroke-width="0.3" d="M66.302 8.943L52.456 1.12"/>
  <path stroke-width="0.13" d="M40.765 43.514C40.765 43.222 40.31 42.969 39.619 42.826"/>
  <path stroke-width="0.3" d="M39.619 42.826C39.243 42.75 38.828 42.715 38.43 42.715C37.14 42.715 36.095 43.073 36.095 43.514"/>
  <path stroke-width="0.13" d="M36.095 43.514C36.095 43.954 37.14 44.313 38.43 44.313C39.719 44.313 40.765 43.954 40.765 43.514"/>
  <path stroke-width="0.3" d="M45.142 33.594C45.225 31.891 41.256 30.312 36.277 30.067C31.298 29.821 27.193 31.004 27.111 32.706"/>
  <path stroke-width="0.13" d="M45.088 36.802C45.127 36.003 44.276 35.232 42.854 34.616"/>
  <path stroke-width="0.13" d="M35.484 33.249C30.774 33.149 27.146 34.317 27.056 35.914"/>
  <path stroke-width="0.3" d="M27.056 35.914C27.041 36.234 27.169 36.551 27.403 36.832"/>
  <path stroke-width="0.3" d="M44.732 37.594C44.966 37.329 45.082 37.054 45.088 36.802"/>
  <path stroke-width="0.3" d="M45.088 36.802L45.142 33.595"/>
  <path stroke-width="0.3" d="M27.056 35.914L27.111 32.706"/>
  <path stroke-width="0.13" d="M44.737 36.64C44.787 35.082 40.95 33.692 36.164 33.536C31.379 33.381 27.457 34.518 27.407 36.076"/>
  <path stroke-width="0.13" d="M44.732 37.594C44.783 36.036 40.945 34.646 36.159 34.49C31.375 34.335 27.452 35.472 27.402 37.029"/>
  <path stroke-width="0.3" d="M27.402 37.029C27.352 38.588 31.19 39.976 35.975 40.133C40.762 40.289 44.682 39.152 44.732 37.594"/>
  <path stroke-width="0.3" d="M44.732 37.594L44.737 36.64"/>
  <path stroke-width="0.3" d="M27.402 37.029L27.407 36.075"/>
  <path stroke-width="0.3" d="M43.039 37.421C43.058 36.168 39.954 35.103 36.103 35.042C32.253 34.981 29.115 35.948 29.096 37.201"/>
  <path stroke-width="0.13" d="M29.096 37.201C29.083 38.014 30.381 38.746 32.371 39.185"/>
  <path stroke-width="0.13" d="M39.618 39.316C41.793 38.926 43.014 38.201 43.039 37.421"/>
  <path stroke-width="0.13" d="M29.85 36.198C30.355 36.606 31.175 36.948 32.149 37.194"/>
  <path stroke-width="0.13" d="M40.075 37.39C41.165 37.176 41.996 36.878 42.518 36.542"/>
  <path stroke-width="0.13" d="M40.075 38.743C40.076 38.03 38.304 37.448 36.116 37.439C33.929 37.432 32.152 38.003 32.149 38.716"/>
  <path stroke-width="0.3" d="M32.149 38.716C32.148 39.429 33.92 40.012 36.107 40.02C38.295 40.027 40.072 39.456 40.075 38.743"/>
  <path stroke-width="0.13" d="M39.292 38.77C39.299 38.192 37.863 37.704 36.085 37.68C34.307 37.658 32.859 38.109 32.851 38.689C32.844 39.268 34.28 39.756 36.058 39.779C37.838 39.801 39.286 39.35 39.292 38.77z"/>
  <path stroke-width="0.3" d="M40.075 38.743L40.075 35.52"/>
  <path stroke-width="0.3" d="M32.149 38.716L32.149 35.393"/>
  <path stroke-width="0.3" d="M29.562 39.201C30.48 39.633 31.638 41.466 32.07 41.978C32.5 42.49 32.636 42.543 32.636 42.543C32.636 42.543 35.654 45.292 39.076 45.131C42.5 44.969 42.85 43.837 42.823 42.517C42.796 41.195 42.85 39.39 42.85 39.39"/>
  <path stroke-width="0.13" d="M32.905 42.194L37.353 41.034"/>
  <path stroke-width="0.13" d="M38.753 41.115C38.753 41.115 41.96 42.893 42.284 43.002C42.607 43.109 42.679 43.749 42.496 43.969"/>
 </g>
 <g id="A4_x0020_half_x0020_frame">
  <g>
   <path stroke="#FFFFFF" stroke-width="0.006" d="M75.003 118.394L75.003 0.003L0.003 0.003L0.003 118.394L75.003 118.394z"/>
  </g>
 </g>
 <g id="Blow-up">
  <path stroke="none" fill="#B2B2B2" d="M34.087 75.87L32.276 74.927 30.841 73.906 29.777 72.671 29.713 71.123C29.713 71.123 27.888 70.147 27.809 70.093 27.728 70.04 26.315 68.888 26.315 68.888L25.556 67.993 24.974 66.79 25.926 65.34 27.321 64.093C27.321 64.093 28.582 63.313 28.596 63.305 28.609 63.298 30.248 62.564 30.248 62.564L33.863 61.639 37.865 61.405C37.865 61.405 41.296 61.796 41.439 61.826 41.579 61.856 44.869 62.89 44.869 62.89L47.298 64.257 48.875 65.521 49.753 67.182 49.024 68.403 47.542 69.837 46.165 70.715 45.097 71.23 45.06 72.54 44.411 73.722 43.329 74.814C43.329 74.814 41.106 75.457 41.054 75.484 41 75.51 41.103 75.849 41.103 75.849L42.296 78.343 45.634 77.439 49.314 76.063C49.314 76.063 51.643 74.316 51.906 74.243 52.168 74.171 52.932 73.165 53.014 73.058 53.097 72.951 54.046 71.31 54.046 71.31 54.046 71.31 54.463 69.796 54.476 69.643 54.49 69.489 54.561 67.287 54.561 67.287L54.243 65.572 53.328 63.774 52.11 62.341 49.695 60.494 47.164 59.218 44.079 58.021 41.573 57.667 37.735 57.31 34.838 57.374C34.838 57.374 30.952 57.926 30.931 57.932 30.908 57.936 27.461 58.975 27.461 58.975 27.461 58.975 24.638 60.38 24.626 60.387 24.612 60.395 22.449 62.097 22.449 62.097L21.37 63.393 20.585 64.903C20.585 64.903 20.216 66.674 20.217 66.649 20.219 66.621 20.182 69.081 20.182 69.081L20.617 70.799 21.606 72.519C21.606 72.519 23.077 73.918 22.986 74.004 22.893 74.091 25.405 75.724 25.405 75.724L28.303 77.197C28.303 77.197 32.139 78.146 32.09 78.135 32.04 78.126 34.765 78.539 34.765 78.539L37.093 78.686 39.64 78.635 42.295 78.343 41.104 75.849 37.515 76.144 34.087 75.87z"/>
  <path stroke-width="0.13" d="M43.517 71.715C43.526 69.777 40.811 68.192 37.453 68.177C34.094 68.164 31.367 69.724 31.358 71.662C31.35 73.599 34.064 75.183 37.421 75.198C40.78 75.213 43.508 73.653 43.517 71.715z"/>
  <path stroke-width="0.13" d="M45.162 71.875C45.222 69.412 41.811 67.331 37.545 67.228C33.279 67.126 29.771 69.039 29.713 71.503"/>
  <path stroke-width="0.3" d="M29.713 71.503C29.652 73.965 33.064 76.046 37.329 76.149C41.595 76.251 45.103 74.338 45.162 71.875"/>
  <path stroke-width="0.3" d="M46.384 66.194C46.423 64.831 45.561 63.561 44.121 62.59"/>
  <path stroke-width="0.3" d="M29.902 62.698C28.757 63.59 28.193 64.634 28.172 65.662"/>
  <path stroke-width="0.13" d="M28.172 65.662C28.14 66.784 28.718 67.841 29.711 68.709"/>
  <path stroke-width="0.13" d="M45.162 68.713C45.975 67.918 46.371 67.04 46.384 66.194"/>
  <path stroke-width="0.3" d="M50.1 68.953C50.159 64.882 44.49 61.497 37.438 61.396C30.385 61.293 24.62 64.512 24.562 68.584"/>
  <path stroke-width="0.13" d="M24.562 68.584C24.503 72.655 30.172 76.039 37.225 76.141C44.277 76.243 50.04 73.025 50.1 68.953"/>
  <path stroke-width="0.13" d="M24.957 66.93C25.693 68.67 27.434 70.123 29.713 71.123"/>
  <path stroke-width="0.13" d="M45.097 71.23C47.515 70.189 49.091 68.739 49.753 67.182"/>
  <path stroke-width="0.3" d="M29.713 71.503L29.713 63.219"/>
  <path stroke-width="0.3" d="M45.162 71.875L45.162 63.476"/>
  <path stroke-width="0.13" d="M28.478 64.486C28.736 65.108 29.172 65.679 29.713 66.156"/>
  <path stroke-width="0.13" d="M45.162 66.259C45.625 65.817 45.957 65.35 46.148 64.909"/>
  <path stroke-width="0.13" d="M54.508 69.167C54.634 63.689 47.046 59.07 37.561 58.851C28.074 58.631 20.282 62.893 20.155 68.37"/>
  <path stroke-width="0.3" d="M20.155 68.37C20.028 73.847 27.615 78.465 37.101 78.686C46.588 78.906 54.381 74.643 54.508 69.167"/>
  <path stroke-width="0.13" d="M54.563 67.623C54.689 62.146 47.103 57.527 37.616 57.308C28.131 57.088 20.338 61.35 20.21 66.828"/>
  <path stroke-width="0.3" d="M54.563 67.623L54.508 69.167"/>
  <path stroke-width="0.3" d="M20.21 66.828L20.155 68.37"/>
  <path stroke-width="0.13" d="M55.091 66.936C55.176 61.281 47.304 56.579 37.511 56.432C27.718 56.286 19.708 60.75 19.625 66.406"/>
  <path stroke-width="0.3" d="M19.625 66.406C19.611 67.257 19.78 68.088 20.083 68.814"/>
  <path stroke-width="0.3" d="M54.49 69.489C54.896 68.614 55.093 67.733 55.091 66.936"/>
  <path stroke-width="0.3" d="M54.942 61.795C55.027 56.142 47.158 51.439 37.363 51.292C27.57 51.145 19.561 55.609 19.477 61.265"/>
  <path stroke-width="0.3" d="M54.942 61.795L55.091 66.936"/>
  <path stroke-width="0.3" d="M19.477 61.265L19.625 66.406"/>
  <path stroke-width="0.13" d="M43.582 78.106L49.081 83.293"/>
  <path stroke-width="0.13" d="M54.97 62.746C57.165 65.362 60.356 66.007 62.424 66.272"/>
  <path stroke="#FFFFFF" stroke-width="0.501" d="M24.951 29.562L11.506 48.563"/>
  <path stroke="#FFFFFF" stroke-width="0.501" d="M47.25 29.425L62.417 48.679"/>
  <path stroke-width="0.13" d="M47.368 29.425L62.329 48.679"/>
  <path stroke-width="0.13" d="M43.28 106.581C43.289 104.643 40.575 103.058 37.218 103.045C33.859 103.03 31.132 104.59 31.123 106.528C31.114 108.466 33.829 110.049 37.186 110.064C40.543 110.079 43.273 108.521 43.28 106.581z"/>
  <path stroke-width="0.131" d="M28.161 99.927C28.158 100.793 28.518 101.609 29.16 102.331"/>
  <path stroke-width="0.131" d="M46.234 99.971C46.237 100.837 45.877 101.655 45.235 102.376"/>
  <path stroke-width="0.131" d="M28.739 98.805C28.893 99.287 29.169 99.745 29.545 100.17"/>
  <path stroke-width="0.131" d="M45.679 98.774C45.53 99.284 45.246 99.768 44.85 100.212"/>
  <path stroke-width="0.3" d="M28.527 98.468C28.291 98.93 28.164 99.42 28.161 99.927"/>
  <path stroke-width="0.3" d="M45.96 98.694C44.963 96.441 41.433 94.766 37.225 94.748C33.11 94.73 29.631 96.302 28.527 98.468"/>
  <path stroke-width="0.3" d="M46.243 100.007C46.244 99.555 46.146 99.114 45.96 98.694"/>
  <path stroke-width="0.13" d="M28.1 95.43C26.78 96.299 25.836 97.364 25.411 98.54"/>
  <path stroke-width="0.13" d="M42.905 93.965C41.198 93.415 39.234 93.096 37.143 93.087C34.804 93.076 32.618 93.456 30.772 94.118"/>
  <path stroke-width="0.13" d="M48.688 98.29C48.195 97.188 47.243 96.189 45.957 95.37"/>
  <path stroke-width="0.3" d="M45.137 105.546C47.746 104.257 49.402 102.34 49.411 100.197L49.441 97.849C49.441 97.849 49.926 96.703 49.793 96.262C49.793 96.262 49.793 95.87 49.716 95.32"/>
  <path stroke-width="0.3" d="M29.268 105.587C26.539 104.272 24.806 102.293 24.817 100.087L24.835 96.966L24.525 95.864C24.525 95.864 24.51 95.492 24.544 95.022"/>
  <path stroke-width="0.13" d="M41.661 110.463C48.649 109.319 53.764 105.637 53.783 101.246"/>
  <path stroke-width="0.13" d="M20.157 101.099C20.137 105.813 25.966 109.763 33.698 110.647"/>
  <path stroke-width="0.3" d="M53.783 101.246C53.808 95.915 46.298 91.555 37.012 91.516C27.728 91.477 20.181 95.766 20.157 101.099"/>
  <path stroke-width="0.3" d="M19.234 101.022C19.21 106.682 27.135 111.305 36.938 111.349C46.741 111.391 54.707 106.838 54.732 101.177"/>
  <path stroke-width="0.13" d="M54.732 101.177C54.759 95.521 46.832 90.894 37.029 90.852C27.225 90.81 19.26 95.362 19.234 101.022"/>
  <path stroke-width="0.13" d="M44.927 106.742C44.987 104.278 41.576 102.197 37.31 102.094C33.043 101.992 29.536 103.906 29.477 106.368"/>
  <path stroke-width="0.3" d="M29.477 106.368C29.417 108.831 32.828 110.912 37.094 111.016C41.36 111.118 44.868 109.204 44.927 106.742"/>
  <path stroke-width="0.3" d="M29.477 106.368L29.477 97.381"/>
  <path stroke-width="0.3" d="M44.927 106.74L44.927 97.451"/>
  <path stroke-width="0.3" d="M54.707 96.662C54.792 91.007 46.921 86.305 37.128 86.158C27.333 86.01 19.326 90.475 19.24 96.131"/>
  <path stroke-width="0.13" d="M42.253 111.152L48.844 117.453"/>
  <path stroke-width="0.13" d="M54.734 97.611C56.93 100.23 60.121 100.873 62.189 101.138"/>
  <path stroke-width="0.13" d="M24.833 29.679L11.39 48.679"/>
  <path stroke="#FFFFFF" stroke-width="0.501" d="M24.931 29.294L47.204 29.294L47.204 40.728L24.931 40.728L24.931 29.294z"/>
  <path stroke-width="0.3" d="M24.946 29.28L47.219 29.28L47.219 40.713L24.946 40.713L24.946 29.28z"/>
  <path stroke-width="0.3" d="M11.448 83.293L11.448 48.679"/>
  <path stroke-width="0.131" d="M62.418 83.293L11.448 83.293"/>
  <path stroke-width="0.3" d="M11.448 48.679L62.418 48.679L62.418 83.293"/>
  <path stroke-width="0.3" d="M62.418 83.253L62.418 117.865L11.448 117.865L11.448 83.253"/>
  <path stroke-width="0.3" d="M19.234 96.262L19.234 101.289"/>
  <path stroke-width="0.3" d="M54.732 96.481L54.732 101.509"/>
  <path stroke-width="0.13" d="M25.32 101.274C25.32 101.274 25.731 101.686 26.614 101.626C26.614 101.626 27.024 102.039 26.025 102.156"/>
  <path stroke-width="0.13" d="M28.553 94.748C28.73 95.335 29.435 95.57 29.435 95.57C30.376 95.746 30.082 95.159 30.082 95.159C29.67 94.864 29.611 93.807 29.611 93.807C29.611 93.807 29.376 93.572 29.141 93.631"/>
  <path stroke-width="0.13" d="M48.823 101.274C48.823 101.274 48.411 101.686 47.53 101.626C47.53 101.626 47.118 102.039 48.118 102.156"/>
  <path stroke-width="0.13" d="M45.588 94.748C45.412 95.335 44.707 95.57 44.707 95.57C43.767 95.746 44.06 95.159 44.06 95.159C44.472 94.864 44.53 93.807 44.53 93.807C44.53 93.807 44.765 93.572 45 93.631"/>
  <path stroke-width="0.13" d="M25.085 96.04C25.085 96.04 25.673 95.218 25.908 94.394"/>
  <path stroke-width="0.13" d="M49.133 96.569C49.133 96.569 48.603 95.629 48.545 94.983"/>
 </g>
 <g id="Poses">
  <g>
   <g>
    <g>
     <g>
      <text x="13.284" y="81.021" stroke="none" fill="#000000" font-family="'Helvetica'" font-size="4.924">1</text>
     </g>
    </g>
   </g>
  </g>
  <g>
   <g>
    <g>
     <g>
      <text x="13.814" y="115.769" stroke="none" fill="#000000" font-family="'Helvetica'" font-size="4.924">2</text>
     </g>
    </g>
   </g>
  </g>
 </g>
 <g id="Picture_x0020_#">
  <g>
   <g>
    <g>
     <g>
      <text transform="matrix(0 -1 1 0 73.817 117.381)" stroke="none" fill="#000000" font-family="'Helvetica'" font-size="2.117">362 155</text>
     </g>
    </g>
   </g>
  </g>
 </g>
</svg>
