<?xml version="1.0" encoding="utf-8"?>
<!DOCTYPE svg PUBLIC "-//W3C//DTD SVG 1.1//EN" "http://www.w3.org/Graphics/SVG/1.1/DTD/svg11.dtd">
<!-- Generator: PTC Arbortext IsoDraw 7.3 -->
<svg width="100%" height="100%" viewBox="0 0 150.006 105.027"
 xmlns="http://www.w3.org/2000/svg" xmlns:xlink="http://www.w3.org/1999/xlink"
 fill-rule="evenodd" clip-rule="evenodd" stroke="#000000" stroke-linecap="round" fill="none" xml:space="preserve">
 <g id="Colour">
  <path stroke="none" fill="#B2B2B2" d="M133.627 80.646L133.627 44.311 44.298 44.311 44.298 80.646 133.627 80.646z"/>
  <path stroke="none" fill="#FFFFFF" d="M47.238 49.795C47.238 49.795 47.238 49.795 47.238 47.079 47.238 46.636 47.674 46.225 48.049 46.225 48.049 46.225 48.049 46.225 67.167 46.225 67.938 46.225 68.064 46.246 68.064 46.942 68.064 47.637 68.07 49.959 68.07 49.959 47.238 49.795 47.238 49.795 47.238 49.795z"/>
  <path stroke-width="0.131" stroke-linecap="butt" d="M48.393 47.268L66.947 47.268"/>
  <path stroke-width="0.131" stroke-linecap="butt" d="M48.362 48.179L66.915 48.179"/>
  <path stroke-width="0.131" stroke-linecap="butt" d="M48.362 49.09L66.915 49.09"/>
  <path stroke="none" fill="#FFFFFF" d="M54.951 83.06C55.796 81.947 56.305 80.564 56.305 79.06 56.305 79.06 56.305 79.06 57.555 79.06 57.555 79.06 57.555 79.06 55 76.103 55 76.103 55 76.103 52.447 79.06 52.447 79.06 52.447 79.06 53.682 79.06 53.682 81.222 51.969 82.98 49.826 83.06 54.951 83.06 54.951 83.06 54.951 83.06z"/>
  <path stroke="none" fill="#FFFFFF" d="M72.334 83.06C73.18 81.947 73.688 80.564 73.688 79.06 73.688 79.06 73.688 79.06 74.938 79.06 74.938 79.06 74.938 79.06 72.384 76.103 72.384 76.103 72.384 76.103 69.829 79.06 69.829 79.06 69.829 79.06 71.066 79.06 71.066 81.222 69.352 82.98 67.209 83.06 72.334 83.06 72.334 83.06 72.334 83.06z"/>
  <path stroke="none" fill="#FFFFFF" d="M89.718 83.06C90.563 81.947 91.072 80.564 91.072 79.06 91.072 79.06 91.072 79.06 92.322 79.06 92.322 79.06 92.322 79.06 89.768 76.103 89.768 76.103 89.768 76.103 87.212 79.06 87.212 79.06 87.212 79.06 88.45 79.06 88.45 81.222 86.736 82.98 84.593 83.06 89.718 83.06 89.718 83.06 89.718 83.06z"/>
  <path stroke="none" fill="#FFFFFF" d="M107.1 83.06C107.947 81.947 108.454 80.564 108.454 79.06 108.454 79.06 108.454 79.06 109.704 79.06 109.704 79.06 109.704 79.06 107.15 76.103 107.15 76.103 107.15 76.103 104.596 79.06 104.596 79.06 104.596 79.06 105.832 79.06 105.832 81.222 104.118 82.98 101.977 83.06 107.1 83.06 107.1 83.06 107.1 83.06z"/>
  <path stroke="none" fill="#FFFFFF" d="M124.465 83.06C125.311 81.947 125.819 80.564 125.819 79.06 125.819 79.06 125.819 79.06 127.069 79.06 127.069 79.06 127.069 79.06 124.515 76.103 124.515 76.103 124.515 76.103 121.959 79.06 121.959 79.06 121.959 79.06 123.197 79.06 123.197 81.222 121.483 82.98 119.34 83.06 124.465 83.06 124.465 83.06 124.465 83.06z"/>
  <path stroke="none" fill="#FFFFFF" d="M38.095 86.096C38.095 86.096 38.095 86.096 35.368 86.742 35.368 86.742 35.368 86.742 35.884 87.257 35.884 87.257 35.884 87.257 29.196 93.938 28.547 94.59 27.687 94.947 26.775 94.947 26.775 94.947 26.775 94.947 26.775 96.447 28.088 96.447 29.324 95.933 30.257 95 30.257 95 30.257 95 36.944 88.317 36.944 88.317 36.944 88.317 37.451 88.823 38.095 86.096 38.095 86.096 38.095 86.096z"/>
  <path stroke="#231F20" stroke-width="0.201" stroke-linecap="butt" d="M38.095 86.096C38.095 86.096 38.095 86.096 35.368 86.742C35.368 86.742 35.368 86.742 35.884 87.257C35.884 87.257 35.884 87.257 29.196 93.938C28.547 94.59 27.687 94.947 26.775 94.947C26.775 94.947 26.775 94.947 26.775 96.447C28.088 96.447 29.324 95.933 30.257 95C30.257 95 30.257 95 36.944 88.317C36.944 88.317 36.944 88.317 37.451 88.823C37.451 88.823 37.451 88.823 38.095 86.096z"/>
  <path stroke="none" fill="#FFFFFF" d="M71.48 12.583C71.48 12.583 71.48 12.583 69.484 10.615 69.484 10.615 69.484 10.615 69.323 11.319 66.081 10.349 62 8.15 58.618 3.786 58.618 3.786 58.618 3.786 57.432 4.706 61.057 9.381 65.471 11.736 68.989 12.774 68.989 12.774 68.989 12.774 68.826 13.484 71.48 12.583 71.48 12.583 71.48 12.583z"/>
  <path stroke="#231F20" stroke-width="0.201" stroke-linecap="butt" d="M71.48 12.583C71.48 12.583 71.48 12.583 69.484 10.615C69.484 10.615 69.484 10.615 69.323 11.319C66.081 10.349 62 8.15 58.618 3.786C58.618 3.786 58.618 3.786 57.432 4.706C61.057 9.381 65.471 11.736 68.989 12.774C68.989 12.774 68.989 12.774 68.826 13.484C68.826 13.484 68.826 13.484 71.48 12.583z"/>
  <path stroke="none" fill="#FFFFFF" d="M10.737 20.37C8.859 20.37 7.331 21.896 7.328 23.771 7.328 23.771 7.328 23.771 6.605 23.771 6.605 23.771 6.605 23.771 8.077 26.157 8.077 26.157 8.077 26.157 9.551 23.771 9.551 23.771 9.551 23.771 8.827 23.771 8.832 22.722 9.686 21.87 10.737 21.87 10.737 21.87 10.737 21.87 43.171 21.87 43.171 21.87 43.171 21.87 43.171 20.37 10.737 20.37 10.737 20.37 10.737 20.37z"/>
  <path stroke="#231F20" stroke-width="0.201" stroke-linecap="butt" d="M10.737 20.37C8.859 20.37 7.331 21.896 7.328 23.771C7.328 23.771 7.328 23.771 6.605 23.771C6.605 23.771 6.605 23.771 8.077 26.157C8.077 26.157 8.077 26.157 9.551 23.771C9.551 23.771 9.551 23.771 8.827 23.771C8.832 22.722 9.686 21.87 10.737 21.87C10.737 21.87 10.737 21.87 43.171 21.87C43.171 21.87 43.171 21.87 43.171 20.37C43.171 20.37 43.171 20.37 10.737 20.37z"/>
  <path stroke="none" fill="#FFFFFF" d="M8.837 41.189L8.837 52.037 9.551 52.037 8.077 54.423 6.605 52.037 7.325 52.037 7.325 41.189 8.837 41.189z"/>
  <path stroke="#231F20" stroke-width="0.201" stroke-linecap="butt" d="M8.837 41.189L8.837 52.037L9.551 52.037L8.077 54.423L6.605 52.037L7.325 52.037L7.325 41.189L8.837 41.189z"/>
  <path stroke="none" fill="#C6C7C8" d="M90.51 34.052L90.51 31.021 91.224 31.021 89.751 28.637 88.278 31.021 88.998 31.021 88.998 34.052 90.51 34.052z"/>
  <path stroke="none" fill="#FFFFFF" d="M8.837 64.12L8.837 74.968 9.551 74.968 8.077 77.352 6.605 74.968 7.325 74.968 7.325 64.12 8.837 64.12z"/>
  <path stroke="#231F20" stroke-width="0.201" stroke-linecap="butt" d="M8.837 64.12L8.837 74.968L9.551 74.968L8.077 77.352L6.605 74.968L7.325 74.968L7.325 64.12L8.837 64.12z"/>
  <path stroke="none" fill="#FFFFFF" d="M42.755 83.888L46.281 83.888 46.281 83.421 47.844 84.387 46.281 85.35 46.281 84.879 42.755 84.879 42.755 83.888z"/>
  <path stroke="#231F20" stroke-width="0.201" stroke-linecap="butt" d="M42.755 83.888L46.281 83.888L46.281 83.421L47.844 84.387L46.281 85.35L46.281 84.879L42.755 84.879L42.755 83.888z"/>
  <path stroke="none" fill="#FFFFFF" d="M59.154 83.888L64.046 83.888 64.046 83.421 65.609 84.387 64.046 85.35 64.046 84.879 59.154 84.879 59.154 83.888z"/>
  <path stroke="#231F20" stroke-width="0.201" stroke-linecap="butt" d="M59.154 83.888L64.046 83.888L64.046 83.421L65.609 84.387L64.046 85.35L64.046 84.879L59.154 84.879L59.154 83.888z"/>
  <path stroke="none" fill="#FFFFFF" d="M75.552 83.888L80.445 83.888 80.445 83.421 82.009 84.387 80.445 85.35 80.445 84.879 75.552 84.879 75.552 83.888z"/>
  <path stroke="#231F20" stroke-width="0.201" stroke-linecap="butt" d="M75.552 83.888L80.445 83.888L80.445 83.421L82.009 84.387L80.445 85.35L80.445 84.879L75.552 84.879L75.552 83.888z"/>
  <path stroke="none" fill="#FFFFFF" d="M92.989 83.888L97.881 83.888 97.881 83.421 99.444 84.387 97.881 85.35 97.881 84.879 92.989 84.879 92.989 83.888z"/>
  <path stroke="#231F20" stroke-width="0.201" stroke-linecap="butt" d="M92.989 83.888L97.881 83.888L97.881 83.421L99.444 84.387L97.881 85.35L97.881 84.879L92.989 84.879L92.989 83.888z"/>
  <path stroke="none" fill="#FFFFFF" d="M110.424 83.888L115.316 83.888 115.316 83.421 116.879 84.387 115.316 85.35 115.316 84.879 110.424 84.879 110.424 83.888z"/>
  <path stroke="#231F20" stroke-width="0.201" stroke-linecap="butt" d="M110.424 83.888L115.316 83.888L115.316 83.421L116.879 84.387L115.316 85.35L115.316 84.879L110.424 84.879L110.424 83.888z"/>
  <path stroke="none" fill="#00519E" d="M38.57 66.384L38.57 57.088 38.973 57.088 38.307 56.006 37.639 57.088 38.046 57.088 38.046 66.384 38.57 66.384z"/>
  <path stroke="none" fill="#00519E" d="M11.214 32.865L11.214 41.073 10.811 41.073 11.478 42.154 12.146 41.073 11.739 41.073 11.739 32.865 11.214 32.865z"/>
  <path stroke="none" fill="#00519E" d="M11.214 55.795L11.214 64.003 10.811 64.003 11.478 65.084 12.146 64.003 11.739 64.003 11.739 55.795 11.214 55.795z"/>
  <path stroke="none" fill="#00519E" d="M11.214 78.727L11.214 86.933 10.811 86.933 11.478 88.015 12.146 86.933 11.739 86.933 11.739 78.727 11.214 78.727z"/>
  <path stroke="none" fill="#00519E" d="M39.023 26.265L29.727 26.265 29.727 25.861 28.646 26.528 29.727 27.196 29.727 26.789 39.023 26.789 39.023 26.265z"/>
  <path stroke="none" fill="#00519E" d="M46.521 44.387L46.521 42.506 46.924 42.506 46.258 41.424 45.591 42.506 45.997 42.506 45.997 44.387 46.521 44.387z"/>
  <path stroke="none" fill="#00519E" d="M19.734 83.896L28.056 79.751 28.236 80.112 28.905 79.034 27.64 78.918 27.821 79.283 19.501 83.427 19.734 83.896z"/>
  <path stroke="none" fill="#FFFFFF" d="M13.182 95.697C13.182 95.697 13.182 95.697 10.798 94.224 10.798 94.224 10.798 94.224 10.798 94.945 9.749 94.941 8.897 94.087 8.897 93.037 8.897 93.037 8.897 93.037 7.397 93.037 7.397 94.915 8.922 96.441 10.798 96.445 10.798 96.445 10.798 96.445 10.798 97.168 13.182 95.697 13.182 95.697 13.182 95.697z"/>
  <path stroke="#231F20" stroke-width="0.201" stroke-linecap="butt" d="M13.182 95.697C13.182 95.697 13.182 95.697 10.798 94.224C10.798 94.224 10.798 94.224 10.798 94.945C9.749 94.941 8.897 94.087 8.897 93.037C8.897 93.037 8.897 93.037 7.397 93.037C7.397 94.915 8.922 96.441 10.798 96.445C10.798 96.445 10.798 96.445 10.798 97.168C10.798 97.168 10.798 97.168 13.182 95.697z"/>
  <path stroke="none" fill="#00519E" d="M51.56 37.341C51.56 37.341 51.56 37.341 51.56 35.459 51.56 35.459 51.56 35.459 51.963 35.459 51.963 35.459 51.963 35.459 51.296 34.378 51.296 34.378 51.296 34.378 50.63 35.459 50.63 35.459 50.63 35.459 51.036 35.459 51.036 35.459 51.036 35.459 51.036 37.341 51.036 37.915 50.549 38.213 50.067 38.213 50.067 38.213 50.067 38.213 49.319 38.213 49.319 38.213 49.319 38.213 49.319 38.737 49.319 38.737 49.319 38.737 50.067 38.737 51.027 38.737 51.56 38.101 51.56 37.341z"/>
  <path stroke="none" fill="#00519E" d="M11.163 27.693C11.163 27.693 11.163 27.693 11.163 28.417 11.163 28.417 11.163 28.417 10.759 28.417 10.759 28.417 10.759 28.417 11.426 29.498 11.426 29.498 11.426 29.498 12.093 28.417 12.093 28.417 12.093 28.417 11.686 28.417 11.686 28.417 11.686 28.417 11.686 27.693 11.686 27.118 12.173 26.821 12.657 26.821 12.657 26.821 12.657 26.821 13.404 26.821 13.404 26.821 13.404 26.821 13.404 26.297 13.404 26.297 13.404 26.297 12.657 26.297 11.696 26.297 11.163 26.932 11.163 27.693z"/>
  <path stroke="none" fill="#C6C7C8" d="M56.988 39.548C56.988 39.548 56.988 39.548 58.338 39.548 58.338 39.548 58.338 39.548 58.338 38.795 58.338 38.795 58.338 38.795 60.353 40.039 60.353 40.039 60.353 40.039 58.338 41.283 58.338 41.283 58.338 41.283 58.338 40.524 58.338 40.524 58.338 40.524 56.988 40.524 55.915 40.524 55.362 41.43 55.362 42.331 55.362 42.331 55.362 42.331 55.362 43.725 55.362 43.725 55.362 43.725 54.386 43.725 54.386 43.725 54.386 43.725 54.386 42.331 54.386 40.542 55.57 39.548 56.988 39.548z"/>
  <path stroke="none" fill="#C6C7C8" d="M74.451 39.548C74.451 39.548 74.451 39.548 75.801 39.548 75.801 39.548 75.801 39.548 75.801 38.795 75.801 38.795 75.801 38.795 77.816 40.039 77.816 40.039 77.816 40.039 75.801 41.283 75.801 41.283 75.801 41.283 75.801 40.524 75.801 40.524 75.801 40.524 74.451 40.524 73.378 40.524 72.825 41.43 72.825 42.331 72.825 42.331 72.825 42.331 72.825 43.725 72.825 43.725 72.825 43.725 71.847 43.725 71.847 43.725 71.847 43.725 71.847 42.331 71.847 40.542 73.033 39.548 74.451 39.548z"/>
  <path stroke="none" fill="#C6C7C8" d="M91.191 37.92L91.191 37.92C91.191 37.92 91.191 37.92 90.438 37.92 90.438 37.92 90.438 37.92 91.683 36.344 91.683 36.344 91.683 36.344 92.927 37.92 92.927 37.92 92.927 37.92 92.168 37.92 92.168 38.993 93.075 39.546 93.974 39.546 93.974 39.546 93.974 39.546 95.37 39.546 95.37 39.546 95.37 39.546 95.37 40.524 95.37 40.524 95.37 40.524 93.974 40.524 92.186 40.524 91.191 39.338 91.191 37.92z"/>
  <path stroke="none" fill="#C6C7C8" d="M88.296 37.92L88.296 37.92C88.296 37.92 88.296 37.92 89.049 37.92 89.049 37.92 89.049 37.92 87.805 36.344 87.805 36.344 87.805 36.344 86.561 37.92 86.561 37.92 86.561 37.92 87.32 37.92 87.32 38.993 86.412 39.546 85.513 39.546 85.513 39.546 85.513 39.546 84.118 39.546 84.118 39.546 84.118 39.546 84.118 40.524 84.118 40.524 84.118 40.524 85.513 40.524 87.302 40.524 88.296 39.338 88.296 37.92z"/>
  <path stroke="none" fill="#C6C7C8" d="M122.483 39.548C122.483 39.548 122.483 39.548 121.135 39.548 121.135 39.548 121.135 39.548 121.135 38.795 121.135 38.795 121.135 38.795 119.12 40.039 119.12 40.039 119.12 40.039 121.135 41.283 121.135 41.283 121.135 41.283 121.135 40.524 121.135 40.524 121.135 40.524 122.483 40.524 123.558 40.524 124.111 41.43 124.111 42.331 124.111 42.331 124.111 42.331 124.111 43.725 124.111 43.725 124.111 43.725 125.087 43.725 125.087 43.725 125.087 43.725 125.087 42.331 125.087 40.542 123.903 39.548 122.483 39.548z"/>
  <path stroke="none" fill="#C6C7C8" d="M105.022 39.548C105.022 39.548 105.022 39.548 103.673 39.548 103.673 39.548 103.673 39.548 103.673 38.795 103.673 38.795 103.673 38.795 101.658 40.039 101.658 40.039 101.658 40.039 103.673 41.283 103.673 41.283 103.673 41.283 103.673 40.524 103.673 40.524 103.673 40.524 105.022 40.524 106.094 40.524 106.649 41.43 106.649 42.331 106.649 42.331 106.649 42.331 106.649 43.725 106.649 43.725 106.649 43.725 107.625 43.725 107.625 43.725 107.625 43.725 107.625 42.331 107.625 40.542 106.441 39.548 105.022 39.548z"/>
  <path stroke="none" fill="#00519E" d="M50.161 26.265C50.161 26.265 50.161 26.265 49.439 26.265 49.439 26.265 49.439 26.265 49.439 25.861 49.439 25.861 49.439 25.861 48.356 26.528 48.356 26.528 48.356 26.528 49.439 27.196 49.439 27.196 49.439 27.196 49.439 26.789 49.439 26.789 49.439 26.789 50.161 26.789 50.737 26.789 51.034 27.275 51.034 27.759 51.034 27.759 51.034 27.759 51.034 28.1 51.034 28.1 51.034 28.1 51.557 28.1 51.557 28.1 51.557 28.1 51.557 27.759 51.557 26.798 50.923 26.265 50.161 26.265z"/>
  <path stroke="none" fill="#00519E" d="M26.361 19.059L26.361 13.428 27.082 13.428 27.082 19.085 26.361 19.059z"/>
  <path stroke="none" fill="#00519E" d="M27.082 27.446C27.082 27.446 27.082 27.446 27.082 47.253 27.082 48.514 28.202 48.612 28.547 48.612 28.547 48.612 28.547 48.612 35.098 48.612 35.098 48.612 35.098 48.612 35.098 49.332 35.098 49.332 35.098 49.332 28.547 49.332 27.239 49.332 26.361 48.496 26.361 47.253 26.361 47.253 26.361 47.253 26.361 27.446 27.082 27.446 27.082 27.446 27.082 27.446z"/>
  <path stroke="none" fill="#00519E" d="M26.361 25.594L26.361 23.239 27.082 23.239 27.082 25.594 26.361 25.594z"/>
  <path stroke="none" fill="#00519E" d="M5.237 33.298C5.237 33.298 5.237 33.298 4.575 33.298 3.269 33.298 2.391 32.463 2.391 31.219 2.391 31.219 2.391 31.219 2.391 13.115 2.391 11.871 3.269 11.035 4.575 11.035 4.575 11.035 4.575 11.035 21.89 11.035 21.89 11.035 21.89 11.035 21.89 11.756 21.89 11.756 21.89 11.756 4.575 11.756 4.232 11.756 3.111 11.853 3.111 13.115 3.111 13.115 3.111 13.115 3.111 31.219 3.111 32.481 4.232 32.578 4.575 32.578 4.575 32.578 4.575 32.578 5.237 32.578 5.237 33.298 5.237 33.298 5.237 33.298z"/>
  <path stroke="none" fill="#00519E" d="M46.473 25.583L46.473 23.161 45.753 23.161 45.753 25.583 46.473 25.583z"/>
  <path stroke="none" fill="#00519E" d="M45.753 19.085C45.753 19.085 45.753 19.085 45.753 13.115 45.753 11.853 44.631 11.756 44.289 11.756 44.289 11.756 44.289 11.756 43.625 11.756 43.625 11.756 43.625 11.756 43.625 11.035 43.625 11.035 43.625 11.035 44.289 11.035 45.595 11.035 46.473 11.871 46.473 13.115 46.473 13.115 46.473 13.115 46.473 19.085 45.753 19.085 45.753 19.085 45.753 19.085z"/>
  <g>
   <path stroke="none" fill="#C6C7C8" d="M92.168 37.92C92.168 38.848 90.234 40.402 90.234 43.725 90.234 43.725 90.234 43.725 89.259 43.725 89.259 40.402 91.191 38.848 91.191 37.92"/>
  </g>
  <g>
   <path stroke="none" fill="#C6C7C8" d="M87.326 37.92C87.326 38.848 89.259 40.402 89.259 43.725 89.259 43.725 89.259 43.725 90.236 43.725 90.236 40.402 88.302 38.848 88.302 37.92"/>
  </g>
  <path stroke="none" fill="#FFFFFF" d="M82.483 12.685C82.483 10.516 81.427 10.042 80.759 10.042 80.287 10.042 79.674 10.294 79.34 10.821 79.007 11.35 78.34 11.965 77.811 11.965 77.811 11.965 77.811 11.965 73.251 11.965 73.251 11.965 73.251 11.965 73.251 13.465 73.251 13.465 73.251 13.465 77.811 13.465 79.016 13.465 80.072 12.473 80.609 11.622 80.631 11.589 80.719 11.547 80.74 11.538 80.792 11.574 80.983 11.877 80.983 12.685 80.983 12.685 80.983 12.685 80.983 17.964 80.983 19.292 79.903 20.373 78.579 20.373 78.432 20.371 74.45 20.371 69.188 20.37 69.188 20.37 69.188 20.37 69.188 19.649 69.188 19.649 69.188 19.649 66.802 21.123 66.802 21.123 66.802 21.123 69.188 22.594 69.188 22.594 69.188 22.594 69.188 21.87 74.445 21.871 78.424 21.871 78.575 21.871 80.73 21.871 82.483 20.12 82.483 17.964 82.483 17.964 82.483 17.964 82.483 12.688L82.483 12.685z"/>
  <path stroke="#231F20" stroke-width="0.201" stroke-linecap="butt" d="M82.483 12.685C82.483 10.516 81.427 10.042 80.759 10.042C80.287 10.042 79.674 10.294 79.34 10.821C79.007 11.35 78.34 11.965 77.811 11.965C77.811 11.965 77.811 11.965 73.251 11.965C73.251 11.965 73.251 11.965 73.251 13.465C73.251 13.465 73.251 13.465 77.811 13.465C79.016 13.465 80.072 12.473 80.609 11.622C80.631 11.589 80.719 11.547 80.74 11.538C80.792 11.574 80.983 11.877 80.983 12.685C80.983 12.685 80.983 12.685 80.983 17.964C80.983 19.292 79.903 20.373 78.579 20.373C78.432 20.371 74.45 20.371 69.188 20.37C69.188 20.37 69.188 20.37 69.188 19.649C69.188 19.649 69.188 19.649 66.802 21.123C66.802 21.123 66.802 21.123 69.188 22.594C69.188 22.594 69.188 22.594 69.188 21.87C74.445 21.871 78.424 21.871 78.575 21.871C80.73 21.871 82.483 20.12 82.483 17.964C82.483 17.964 82.483 17.964 82.483 12.688L82.483 12.685z"/>
  <path stroke="none" fill="#C6C7C8" d="M96.141 12.003C101.662 12.076 105.924 10.255 108.703 8.323 108.703 8.323 108.703 8.323 108.254 7.758 108.254 7.758 108.254 7.758 111.037 7.424 111.037 7.424 111.037 7.424 110.088 10.06 110.088 10.06 110.088 10.06 109.634 9.49 106.629 11.596 102.046 13.582 96.132 13.503 94.025 13.503 92.772 12.561 91.757 11.803 91.081 11.297 90.546 10.897 89.938 10.897 89.09 10.897 88.59 12.23 88.59 15.602 88.59 16.629 89.471 18.678 89.825 19.814 90.177 20.948 90.51 22.021 90.51 22.993 90.51 22.993 90.51 22.993 90.51 26.024 90.51 26.024 90.51 26.024 88.998 26.024 88.998 26.024 88.998 26.024 89.004 22.993 89.004 22.248 88.71 21.282 88.391 20.259 88.006 19.016 87.09 16.856 87.09 15.602 87.09 13.765 87.067 9.397 89.938 9.397 91.045 9.397 91.862 10.009 92.655 10.6 93.578 11.289 94.534 12.003 96.141 12.003z"/>
 </g>
 <g id="Standard_x0020_layer">
  <path stroke-width="0.3" stroke-linejoin="round" d="M13.092 88.971C13.092 89.42 12.73 89.783 12.281 89.783C12.281 89.783 12.281 89.783 6.054 89.783C5.607 89.783 5.243 89.42 5.243 88.971C5.243 88.971 5.243 88.971 5.243 31.096C5.243 30.647 5.607 30.285 6.054 30.285C6.054 30.285 6.054 30.285 12.281 30.285C12.73 30.285 13.092 30.647 13.092 31.096C13.092 31.096 13.092 31.096 13.092 88.971z"/>
  <path stroke-width="0.3" stroke-linejoin="round" d="M17.75 53.142C17.75 53.142 17.75 53.142 18.885 46.287C18.885 46.287 18.885 46.287 21.373 44.716C21.373 46.418 22.596 49.299 23.861 50.697"/>
  <path stroke-width="0.3" stroke-linejoin="round" d="M17.75 59.301C17.75 59.301 17.75 59.301 18.885 55.712C18.885 55.712 18.885 55.712 21.373 54.494C21.766 55.368 23.077 56.164 23.861 56.503"/>
  <path stroke-width="0.3" stroke-linejoin="round" d="M17.75 64.623C17.75 64.623 17.75 64.623 18.885 68.213C18.885 68.213 18.885 68.213 21.373 66.807C21.766 65.933 23.077 61.164 23.861 60.825"/>
  <path stroke-width="0.3" stroke-linejoin="round" d="M17.75 68.465C17.75 68.465 17.75 68.465 18.885 75.668C18.885 75.668 18.885 75.668 21.373 73.748C21.373 71.695 22.596 68.814 23.861 67.418"/>
  <path stroke-width="0.3" stroke-linejoin="round" d="M23.861 69.469C22.596 70.701 21.373 76.349 21.373 77.852C21.373 77.852 21.373 77.852 18.885 77.852C18.885 77.852 18.885 77.852 17.75 70.418C17.75 70.418 17.75 70.418 16.789 70.418C16.789 70.418 16.789 70.418 16.789 67.287C16.789 67.287 16.789 67.287 16.222 67.287C16.222 67.287 16.222 67.287 16.222 52.88C16.222 52.88 16.222 52.88 16.789 52.88C16.789 52.88 16.789 52.88 16.789 49.747C16.789 49.747 16.789 49.747 17.75 49.747C17.75 49.747 17.75 49.747 18.885 42.314C18.885 42.314 18.885 42.314 21.373 42.314C21.373 43.817 22.596 49.463 23.861 50.697C23.861 50.697 23.861 50.697 23.861 69.469z"/>
  <path stroke-width="0.131" stroke-linejoin="round" d="M23.251 51.57C21.722 53.273 19.147 54.887 18.143 55.325"/>
  <path stroke-width="0.131" stroke-linejoin="round" d="M23.6 56.765C21.722 58.512 17.969 59.691 17.969 59.691"/>
  <path stroke-width="0.131" stroke-linejoin="round" d="M23.513 60.781C21.024 61.567 18.012 64.361 18.012 64.361"/>
  <path stroke-width="0.131" stroke-linejoin="round" d="M16.789 52.88L16.789 67.287"/>
  <path stroke-width="0.131" stroke-linejoin="round" d="M17.75 49.747L17.75 70.418"/>
  <path stroke-width="0.3" stroke-linejoin="round" d="M37.383 57.77L23.905 57.77"/>
  <path stroke-width="0.3" stroke-linejoin="round" d="M44.246 57.77L39.243 57.77"/>
  <path stroke-width="0.3" stroke-linejoin="round" d="M37.383 62.396L23.905 62.396"/>
  <path stroke-width="0.3" stroke-linejoin="round" d="M44.246 62.396L39.243 62.396"/>
  <path stroke-width="0.3" stroke-linejoin="round" d="M37.753 53.31L38.756 54.314L40.167 54.314L40.167 47.284L38.756 47.284L37.753 48.289L37.753 53.31z"/>
  <path stroke-width="0.3" stroke-linejoin="round" d="M37.777 52.886L38.78 53.506L39.521 53.506"/>
  <path stroke-width="0.3" stroke-linejoin="round" d="M37.753 50.823L39.484 50.823"/>
  <path stroke-width="0.3" stroke-linejoin="round" d="M37.753 51.517L38.732 51.683L39.484 51.683"/>
  <path stroke-width="0.3" stroke-linejoin="round" d="M37.753 52.21L38.732 52.545L39.515 52.545"/>
  <path stroke-width="0.3" stroke-linejoin="round" d="M37.777 48.749L38.78 48.127L39.521 48.127"/>
  <path stroke-width="0.3" stroke-linejoin="round" d="M37.753 50.116L38.732 49.95L39.484 49.95"/>
  <path stroke-width="0.3" stroke-linejoin="round" d="M37.753 49.423L38.732 49.088L39.515 49.088"/>
  <path stroke-width="0.3" stroke-linejoin="round" d="M42.811 9.367C42.811 9.367 42.811 9.367 34.893 9.367C34.746 9.207 34.676 9.057 34.676 8.928C34.676 8.928 34.676 8.928 34.676 8.582C34.676 8.582 34.676 8.582 35.207 8.582C35.207 8.582 35.207 8.582 35.207 8.396C35.207 8.396 35.207 8.396 35.151 8.342C35.151 8.342 35.151 8.342 35.151 7.543C35.151 7.302 34.997 7.157 34.746 7.144C34.493 7.129 33.612 7.036 32.759 7.036C31.907 7.036 31.025 7.129 30.774 7.144C30.522 7.157 30.368 7.302 30.368 7.543C30.368 7.543 30.368 7.543 30.368 8.342C30.368 8.342 30.368 8.342 30.312 8.396C30.312 8.396 30.312 8.396 30.312 8.582C30.312 8.582 30.312 8.582 30.844 8.582C30.844 8.582 30.844 8.582 30.844 8.928C30.844 9.057 30.774 9.207 30.626 9.367C30.626 9.367 30.626 9.367 22.702 9.367C22.254 9.367 21.891 9.73 21.891 10.179C21.891 10.179 21.891 10.179 21.891 12.612C21.891 13.06 22.254 13.423 22.702 13.423C22.702 13.423 22.702 13.423 42.811 13.423C43.259 13.423 43.622 13.06 43.622 12.612C43.622 12.612 43.622 12.612 43.622 10.179C43.622 9.73 43.259 9.367 42.811 9.367z"/>
  <path stroke-width="0.3" stroke-linejoin="round" d="M12.288 30.285C12.288 30.285 12.288 30.285 12.288 27.693C12.288 27.539 12.413 27.413 12.57 27.413C12.57 27.413 12.57 27.413 50.115 27.413C50.27 27.413 50.396 27.539 50.396 27.693C50.396 27.693 50.396 27.693 50.396 37.332C50.396 37.487 50.27 37.612 50.115 37.612C50.115 37.612 50.115 37.612 49.32 37.612C49.32 37.612 49.32 37.612 49.32 35.622C49.32 35.622 49.32 35.622 43.5 35.622C43.5 35.622 43.5 35.622 43.5 37.612C43.5 37.612 43.5 37.612 40.871 37.612C39.723 37.612 38.793 38.542 38.793 39.689C38.793 39.689 38.793 39.689 38.793 46.206"/>
  <path stroke-width="0.3" stroke-linejoin="round" d="M48.295 37.462L47.643 37.462L47.643 36.722L46.683 36.722L46.683 38.036L44.505 38.036L44.505 36.722L43.658 36.722L43.658 38.036L42.881 38.036L42.881 38.941L43.658 38.941L43.658 40.253L44.505 40.253L44.505 38.941L46.683 38.941L46.683 40.253L47.643 40.253L47.643 39.515L48.295 39.515L48.295 37.462z"/>
  <path stroke-width="0.131" stroke-linejoin="round" d="M43.658 38.036L43.658 38.941"/>
  <path stroke-width="0.131" stroke-linejoin="round" d="M44.505 38.036L44.505 38.941"/>
  <path stroke-width="0.131" stroke-linejoin="round" d="M46.683 38.036L46.683 38.941"/>
  <path stroke-width="0.131" stroke-linejoin="round" d="M47.643 37.462L47.643 39.515"/>
  <path stroke-width="0.3" stroke-linejoin="round" d="M37.409 55.414C37.409 55.414 37.409 55.414 37.409 73.647C37.409 73.753 37.35 73.844 37.265 73.893C37.265 73.893 37.265 73.893 13.111 85.893"/>
  <path stroke-width="0.3" stroke-linejoin="round" d="M13.125 87.89C13.125 87.89 13.125 87.89 38.04 75.513C38.729 75.174 39.204 74.466 39.204 73.647C39.204 73.647 39.204 73.647 39.204 55.414"/>
  <path stroke-width="0.3" stroke-linejoin="round" d="M69.057 44.305L69.057 43.654L70.087 43.276L70.087 41.97L57.317 41.97L57.317 43.276L58.348 43.654L58.348 44.305L69.057 44.305z"/>
  <path stroke-width="0.3" stroke-linejoin="round" d="M86.462 44.305L86.462 43.654L87.492 43.276L87.492 41.97L74.724 41.97L74.724 43.276L75.754 43.654L75.754 44.305L86.462 44.305z"/>
  <path stroke-width="0.3" stroke-linejoin="round" d="M44.298 50.033C44.298 50.033 44.298 50.033 44.298 44.311C44.298 44.311 44.298 44.311 45.118 44.305C45.118 44.305 45.118 44.305 45.118 41.354C45.118 41.354 45.118 41.354 43.5 41.354C43.5 41.354 43.5 41.354 43.5 39.39C43.5 39.39 43.5 39.39 40.869 39.39C40.715 39.39 40.588 39.515 40.588 39.67C40.588 39.67 40.588 39.67 40.588 46.206"/>
  <path stroke-width="0.3" stroke-linejoin="round" d="M53.331 80.646L44.298 80.646L44.298 52.598"/>
  <path stroke-width="0.3" stroke-linejoin="round" d="M70.71 80.646L56.174 80.646"/>
  <path stroke-width="0.3" stroke-linejoin="round" d="M88.09 80.646L73.555 80.646"/>
  <path stroke-width="0.3" stroke-linejoin="round" d="M105.48 80.646L90.906 80.646"/>
  <path stroke-width="0.3" stroke-linejoin="round" d="M122.82 80.646L108.295 80.646"/>
  <path stroke-width="0.3" stroke-linejoin="round" d="M127.846 44.311L133.627 44.311L133.627 80.646L125.656 80.646"/>
  <path stroke-width="0.3" stroke-linejoin="round" d="M110.439 44.305L110.439 43.654L109.409 43.276L109.409 41.97L122.179 41.97L122.179 43.276L121.149 43.654L121.149 44.305L110.439 44.305z"/>
  <path stroke-width="0.3" stroke-linejoin="round" d="M93.034 44.305L93.034 43.654L92.004 43.276L92.004 41.97L104.772 41.97L104.772 43.276L103.742 43.654L103.742 44.305L93.034 44.305z"/>
  <path stroke-width="0.3" stroke-linejoin="round" d="M21.08 97.867C21.08 97.867 21.08 97.867 21.789 97.867C21.789 97.867 21.789 97.867 21.789 97.719C21.789 97.719 26.114 97.722 26.775 97.722C28.486 97.722 30.036 97.019 31.157 95.897C31.157 95.897 31.157 95.897 40.741 86.311C41.131 85.921 41.67 85.682 42.264 85.682L42.264 85.682C42.264 85.682 42.264 85.682 60.63 85.682C60.63 85.682 60.63 85.682 60.63 86.206C60.63 86.206 60.63 86.206 64.262 86.206C64.647 86.206 64.808 85.682 65.379 85.682C65.379 85.682 65.379 85.682 112.787 85.682C112.787 85.682 112.787 85.682 112.787 86.206C112.787 86.206 112.787 86.206 116.418 86.206C116.804 86.206 116.965 85.682 117.537 85.682C117.537 85.682 117.537 85.682 119.203 85.677C122.856 85.677 125.819 82.715 125.819 79.06C125.819 79.06 125.819 79.06 127.069 79.06C127.069 79.06 127.069 79.06 124.515 76.103C124.515 76.103 124.515 76.103 121.96 79.06C121.96 79.06 121.96 79.06 123.197 79.06C123.197 81.272 121.403 83.066 119.191 83.066C119.191 83.066 119.191 83.066 117.537 83.06L117.537 83.061C116.965 83.061 116.804 82.534 116.418 82.534C116.418 82.534 116.418 82.534 112.787 82.534C112.787 82.534 112.787 82.534 112.787 83.06C112.787 83.06 112.787 83.06 107.1 83.06C107.947 81.947 108.454 80.564 108.454 79.06C108.454 79.06 108.454 79.06 109.703 79.06C109.703 79.06 109.703 79.06 107.15 76.103C107.15 76.103 107.15 76.103 104.596 79.06C104.596 79.06 104.596 79.06 105.832 79.06C105.832 81.222 104.118 82.98 101.977 83.06C101.977 83.06 101.977 83.06 89.718 83.06C90.563 81.947 91.072 80.564 91.072 79.06C91.072 79.06 91.072 79.06 92.322 79.06C92.322 79.06 92.322 79.06 89.768 76.103C89.768 76.103 89.768 76.103 87.212 79.06C87.212 79.06 87.212 79.06 88.45 79.06C88.45 81.222 86.734 82.98 84.593 83.06C84.593 83.06 84.593 83.06 72.334 83.06C73.18 81.947 73.688 80.564 73.688 79.06C73.688 79.06 73.688 79.06 74.938 79.06C74.938 79.06 74.938 79.06 72.384 76.103C72.384 76.103 72.384 76.103 69.829 79.06C69.829 79.06 69.829 79.06 71.066 79.06C71.066 81.222 69.352 82.98 67.21 83.06C67.21 83.06 67.21 83.06 65.379 83.06L65.379 83.061C64.808 83.061 64.647 82.534 64.262 82.534C64.262 82.534 64.262 82.534 60.63 82.534C60.63 82.534 60.63 82.534 60.63 83.06C60.63 83.06 60.63 83.06 54.951 83.06C55.798 81.947 56.305 80.564 56.305 79.06C56.305 79.06 56.305 79.06 57.554 79.06C57.554 79.06 57.554 79.06 55 76.103C55 76.103 55 76.103 52.445 79.06C52.445 79.06 52.445 79.06 53.683 79.06C53.683 81.222 51.969 82.98 49.826 83.06C49.826 83.06 49.826 83.06 42.264 83.06"/>
  <path stroke-width="0.3" stroke-linejoin="round" d="M6.121 89.862C6.121 89.862 6.121 89.862 6.121 93.037C6.121 95.623 8.218 97.721 10.806 97.721C10.806 97.721 10.806 97.721 14.821 97.719C14.821 97.719 14.821 97.719 14.821 97.867C14.821 97.867 14.821 97.867 15.528 97.867"/>
  <path stroke-width="0.3" stroke-linejoin="round" d="M15.528 93.525C15.528 93.525 15.528 93.525 14.821 93.525C14.821 93.525 14.821 93.525 14.821 93.671C14.821 93.671 14.821 93.671 10.804 93.671C10.455 93.671 10.17 93.388 10.17 93.037C10.17 93.037 10.17 93.037 10.17 89.862"/>
  <path stroke-width="0.3" stroke-linejoin="round" d="M42.264 83.061C39.603 83.061 37.192 84.138 35.448 85.882C35.448 85.882 35.448 85.882 28.297 93.042C27.908 93.432 27.37 93.671 26.775 93.671C26.775 93.671 26.775 93.671 21.789 93.671C21.789 93.671 21.789 93.671 21.789 93.525C21.789 93.525 21.789 93.525 21.08 93.525"/>
  <path stroke-width="0.131" stroke-linejoin="round" d="M90.727 20.1L86.441 20.1"/>
  <path stroke-width="0.3" stroke-linejoin="round" d="M55.179 6.453C60.826 13.734 68.441 16.318 73.245 16.318C73.245 16.318 73.245 16.318 77.426 16.318C77.426 16.318 77.426 16.318 77.426 16.893C77.426 16.893 77.426 16.893 78.222 16.893C78.222 16.893 78.222 16.893 78.222 17.964L78.221 17.964C78.221 18.591 77.712 19.1 77.087 19.1L77.087 19.094C76.424 19.094 20.678 19.097 20.678 19.097C20.678 19.097 20.678 19.097 20.678 18.949C20.678 18.949 20.678 18.949 19.972 18.949C19.672 18.949 19.583 18.721 19.583 18.721C19.583 18.721 19.387 18.231 19.33 18.088C19.275 17.946 19.164 17.85 19.045 17.85C18.928 17.85 18.817 17.946 18.762 18.088C18.705 18.231 18.509 18.721 18.509 18.721C18.509 18.721 18.422 18.949 18.12 18.949C17.821 18.949 17.734 18.721 17.734 18.721C17.734 18.721 17.536 18.231 17.48 18.088C17.425 17.946 17.314 17.85 17.196 17.85C17.077 17.85 16.966 17.946 16.911 18.088C16.856 18.231 16.658 18.721 16.658 18.721C16.658 18.721 16.571 18.949 16.269 18.949C15.97 18.949 15.882 18.721 15.882 18.721C15.882 18.721 15.685 18.231 15.63 18.088C15.573 17.946 15.464 17.85 15.345 17.85C15.227 17.85 15.115 17.946 15.06 18.088C15.005 18.231 14.807 18.721 14.807 18.721C14.807 18.721 14.72 18.949 14.419 18.949C14.419 18.949 14.419 18.949 13.711 18.949C13.711 18.949 13.711 18.949 13.711 19.097C13.711 19.097 13.711 19.097 10.737 19.097C8.15 19.097 6.054 21.193 6.054 23.778C6.054 23.778 6.054 23.778 6.054 30.285"/>
  <path stroke-width="0.3" stroke-linejoin="round" d="M10.102 30.285C10.102 30.285 10.102 30.285 10.102 23.78C10.102 23.428 10.385 23.144 10.737 23.144C10.737 23.144 10.737 23.144 13.711 23.144C13.711 23.144 13.711 23.144 13.711 23.292C13.711 23.292 13.711 23.292 14.419 23.292C14.72 23.292 14.807 23.521 14.807 23.521C14.807 23.521 15.005 24.012 15.06 24.155C15.115 24.297 15.226 24.391 15.345 24.391C15.464 24.391 15.573 24.297 15.63 24.155C15.685 24.012 15.882 23.521 15.882 23.521C15.882 23.521 15.97 23.292 16.269 23.292C16.571 23.292 16.658 23.521 16.658 23.521C16.658 23.521 16.856 24.012 16.911 24.155C16.966 24.297 17.077 24.391 17.196 24.391C17.314 24.391 17.425 24.297 17.481 24.155C17.536 24.012 17.734 23.521 17.734 23.521C17.734 23.521 17.82 23.292 18.12 23.292C18.422 23.292 18.509 23.521 18.509 23.521C18.509 23.521 18.705 24.012 18.762 24.155C18.817 24.297 18.928 24.391 19.047 24.391C19.164 24.391 19.275 24.297 19.33 24.155C19.385 24.012 19.583 23.521 19.583 23.521C19.583 23.521 19.67 23.292 19.972 23.292C19.972 23.292 19.972 23.292 20.678 23.292C20.678 23.292 20.678 23.292 20.678 23.144C20.678 23.144 20.678 23.144 78.998 23.144C81.858 23.144 84.177 20.826 84.177 17.964L84.18 17.964C84.18 17.964 84.18 17.964 84.18 16.106C84.18 16.106 84.18 16.106 85.588 16.106C85.588 16.106 85.588 16.106 85.588 18.626C85.588 19.461 85.786 20.1 86.441 20.1C86.441 20.1 86.441 20.1 86.441 36.286C86.441 37.332 85.591 38.18 84.546 38.18C84.546 38.18 84.546 38.18 54.576 38.18C53.53 38.18 52.682 39.029 52.682 40.076C52.682 40.076 52.682 40.076 52.682 43.276C52.682 43.276 52.682 43.276 51.652 43.654C51.652 43.654 51.652 43.654 51.652 44.305C51.652 44.305 51.652 44.305 47.35 44.305C47.35 44.305 47.35 44.305 47.35 41.354C47.35 41.354 47.35 41.354 49.32 41.354C49.32 41.354 49.32 41.354 49.32 39.408C49.32 39.408 49.32 39.408 50.115 39.408C51.262 39.408 52.192 38.478 52.192 37.332C52.192 37.332 52.192 37.332 52.192 27.693C52.192 26.548 51.262 25.617 50.115 25.617C50.115 25.617 50.115 25.617 12.57 25.617C11.423 25.617 10.493 26.548 10.493 27.693C10.493 27.693 10.493 27.693 10.493 30.285"/>
  <path stroke-width="0.3" stroke-linejoin="round" d="M111.323 2.314C106.896 8.025 101.183 9.391 98.948 9.391C98.948 9.391 98.948 9.391 94.769 9.391C94.769 9.391 94.769 9.391 94.769 8.817C94.769 8.817 94.769 8.817 93.837 8.817C93.837 8.817 93.837 8.817 93.837 8.397C93.837 7.48 93.265 6.434 92.691 5.974C92.12 5.517 91.268 4.911 89.712 4.911C88.158 4.911 87.307 5.517 86.733 5.974C86.162 6.434 85.588 7.48 85.588 8.397C85.588 8.397 85.588 8.397 85.588 10.051C85.588 10.051 85.588 10.051 84.18 10.051C84.18 10.051 84.18 10.051 84.18 6.368C84.18 6.368 84.18 6.368 82.938 6.368C82.938 6.368 82.938 6.368 82.938 5.86C82.938 5.533 82.643 5.075 82.412 4.91C82.183 4.746 81.856 4.535 80.941 4.535C80.024 4.535 79.566 4.746 79.368 4.993C79.173 5.238 78.796 5.713 78.599 6.041C78.403 6.368 78.222 6.892 78.222 7.317C78.222 7.317 78.222 7.317 78.222 8.544C78.222 8.544 78.222 8.544 77.426 8.544C77.426 8.544 77.426 8.544 77.426 9.118C77.426 9.118 77.426 9.118 73.245 9.118C71.01 9.118 65.299 7.753 60.869 2.04"/>
  <path stroke-width="0.3" stroke-linejoin="round" d="M117.015 6.726C111.367 14.007 103.754 16.591 98.948 16.591C98.948 16.591 98.948 16.591 94.769 16.591C94.769 16.591 94.769 16.591 94.769 17.166C94.769 17.166 94.769 17.166 93.837 17.166C93.837 17.166 93.837 17.166 93.837 18.626C93.837 19.461 93.641 20.1 92.986 20.1C92.986 20.1 92.986 20.1 92.986 36.286C92.986 37.332 93.834 38.18 94.881 38.18C94.881 38.18 94.881 38.18 124.92 38.18C125.966 38.18 126.814 39.029 126.814 40.076C126.814 40.076 126.814 40.076 126.814 43.276C126.814 43.276 126.814 43.276 127.846 43.654C127.846 43.654 127.846 43.654 127.846 44.305"/>
  <path stroke-width="0.131" stroke-linejoin="round" d="M77.426 9.118L77.426 16.318"/>
  <path stroke-width="0.131" stroke-linejoin="round" d="M78.222 8.544L78.222 16.893"/>
  <path stroke-width="0.131" stroke-linejoin="round" d="M82.938 6.368L82.938 16.274"/>
  <path stroke-width="0.131" stroke-linejoin="round" d="M84.18 10.051L84.18 16.106"/>
  <path stroke-width="0.131" stroke-linejoin="round" d="M85.588 10.051L85.588 16.106"/>
  <path stroke-width="0.131" stroke-linejoin="round" d="M93.837 8.817L93.837 17.166"/>
  <path stroke-width="0.131" stroke-linejoin="round" d="M94.769 9.391L94.769 16.591"/>
  <path stroke-width="0.3" stroke-linejoin="round" d="M40.597 46.206L41.25 46.206L41.25 50.033L44.298 50.033"/>
  <path stroke-width="0.3" stroke-linejoin="round" d="M37.396 55.414L35.103 55.414L35.103 46.206L38.78 46.206"/>
  <path stroke-width="0.3" stroke-linejoin="round" d="M44.298 52.545L41.25 52.545L41.25 55.414L39.213 55.414"/>
  <path stroke-width="0.3" stroke-linejoin="round" d="M26.361 19.059L26.361 13.428L27.082 13.428L27.082 19.085"/>
  <path stroke-width="0.3" stroke-linejoin="round" d="M26.361 25.594L26.361 23.239"/>
  <path stroke-width="0.3" stroke-linejoin="round" d="M27.082 27.446C27.082 27.446 27.082 27.446 27.082 47.253C27.082 48.514 28.202 48.612 28.547 48.612C28.547 48.612 28.547 48.612 35.098 48.612C35.098 48.612 35.098 48.612 35.098 49.332C35.098 49.332 35.098 49.332 28.547 49.332C27.239 49.332 26.361 48.496 26.361 47.253C26.361 47.253 26.361 47.253 26.361 27.446"/>
  <path stroke-width="0.3" stroke-linejoin="round" d="M27.082 23.239L27.082 25.594"/>
  <path stroke-width="0.3" stroke-linejoin="round" d="M5.237 33.298C5.237 33.298 5.237 33.298 4.575 33.298C3.269 33.298 2.391 32.463 2.391 31.219C2.391 31.219 2.391 31.219 2.391 13.115C2.391 11.871 3.269 11.035 4.575 11.035C4.575 11.035 4.575 11.035 21.89 11.035C21.89 11.035 21.89 11.035 21.89 11.756C21.89 11.756 21.89 11.756 4.575 11.756C4.232 11.756 3.111 11.853 3.111 13.115C3.111 13.115 3.111 13.115 3.111 31.219C3.111 32.481 4.232 32.578 4.575 32.578C4.575 32.578 4.575 32.578 5.237 32.578C5.237 32.578 5.237 32.578 5.237 33.298z"/>
  <path stroke-width="0.3" stroke-linejoin="round" d="M46.472 23.161L46.472 25.583L45.753 25.583L45.753 23.161"/>
  <path stroke-width="0.3" stroke-linejoin="round" d="M45.753 19.085C45.753 19.085 45.753 19.085 45.753 13.115C45.753 11.853 44.631 11.756 44.289 11.756C44.289 11.756 44.289 11.756 43.625 11.756C43.625 11.756 43.625 11.756 43.625 11.035C43.625 11.035 43.625 11.035 44.289 11.035C45.595 11.035 46.473 11.871 46.473 13.115C46.473 13.115 46.473 13.115 46.473 19.085"/>
  <path stroke-width="0.3" stroke-linejoin="round" d="M10.285 30.378L10.285 89.638"/>
  <path stroke-width="0.3" stroke-linejoin="round" d="M47.293 49.777C47.293 49.777 47.293 49.777 47.293 47.277C47.293 46.7 47.749 46.262 48.106 46.262C48.106 46.262 48.106 46.262 67.055 46.262C67.668 46.262 68.126 46.826 68.126 47.277C68.126 47.277 68.126 47.277 68.126 49.902"/>
  <path stroke="none" fill="#FFFFFF" d="M54.95 57.173C58.128 57.63 60.57 60.363 60.57 63.667 60.57 67.292 57.633 70.23 54.009 70.23 50.386 70.23 47.448 67.292 47.448 63.667 47.448 60.371 49.881 57.64 53.051 57.176 54.95 57.173 54.95 57.173 54.95 57.173z"/>
  <path stroke="none" fill="#FFFFFF" d="M124.483 57.173C127.661 57.63 130.104 60.363 130.104 63.667 130.104 67.292 127.165 70.23 123.543 70.23 119.918 70.23 116.98 67.292 116.98 63.667 116.98 60.371 119.415 57.64 122.582 57.176 124.483 57.173 124.483 57.173 124.483 57.173z"/>
  <path stroke="none" fill="#FFFFFF" d="M72.332 57.173C75.51 57.63 77.953 60.363 77.953 63.667 77.953 67.292 75.016 70.23 71.393 70.23 67.769 70.23 64.831 67.292 64.831 63.667 64.831 60.371 67.265 57.64 70.433 57.176 72.332 57.173 72.332 57.173 72.332 57.173z"/>
  <path stroke="none" fill="#FFFFFF" d="M89.715 57.173C92.894 57.63 95.337 60.363 95.337 63.667 95.337 67.292 92.4 70.23 88.775 70.23 85.152 70.23 82.213 67.292 82.213 63.667 82.213 60.371 84.647 57.64 87.816 57.176 89.715 57.173 89.715 57.173 89.715 57.173z"/>
  <path stroke="none" fill="#FFFFFF" d="M107.099 57.173C110.278 57.63 112.721 60.363 112.721 63.667 112.721 67.292 109.783 70.23 106.159 70.23 102.534 70.23 99.597 67.292 99.597 63.667 99.597 60.371 102.031 57.64 105.2 57.176 107.099 57.173 107.099 57.173 107.099 57.173z"/>
  <path stroke="none" fill="#00519E" d="M60.409 51.674L65.546 51.674 65.546 52.216 66.993 51.323 65.546 50.429 65.546 50.975 60.409 50.975 60.409 51.674z"/>
  <path stroke="none" fill="#00519E" d="M78.415 51.674L83.552 51.674 83.552 52.216 85.001 51.323 83.552 50.429 83.552 50.975 78.415 50.975 78.415 51.674z"/>
  <path stroke="none" fill="#00519E" d="M112.641 51.674L117.78 51.674 117.78 52.216 119.225 51.323 117.78 50.429 117.78 50.975 112.641 50.975 112.641 51.674z"/>
  <path stroke="none" fill="#00519E" d="M121.977 51.104C122.457 51.104 122.915 51.308 123.275 51.67 123.275 51.67 123.275 51.67 123.959 52.354 123.959 52.354 123.959 52.354 124.343 51.97 124.343 51.97 124.343 51.97 124.734 53.628 124.734 53.628 124.734 53.628 123.078 53.235 123.078 53.235 123.078 53.235 123.465 52.85 123.465 52.85 123.465 52.85 122.78 52.164 122.543 51.929 122.251 51.829 121.98 51.829 121.977 51.104 121.977 51.104 121.977 51.104z"/>
  <path stroke="none" fill="#00519E" d="M89.817 51.234C90.299 51.234 90.756 51.439 91.115 51.801 91.115 51.801 91.115 51.801 91.801 52.484 91.801 52.484 91.801 52.484 92.185 52.1 92.185 52.1 92.185 52.1 92.575 53.758 92.575 53.758 92.575 53.758 90.92 53.365 90.92 53.365 90.92 53.365 91.305 52.979 91.305 52.979 91.305 52.979 90.621 52.295 90.384 52.058 90.091 51.96 89.82 51.96 89.817 51.234 89.817 51.234 89.817 51.234z"/>
  <path stroke="none" fill="#00519E" d="M71.584 51.104C72.063 51.104 72.522 51.308 72.882 51.67 72.882 51.67 72.882 51.67 73.566 52.354 73.566 52.354 73.566 52.354 73.95 51.97 73.95 51.97 73.95 51.97 74.341 53.628 74.341 53.628 74.341 53.628 72.686 53.235 72.686 53.235 72.686 53.235 73.07 52.85 73.07 52.85 73.07 52.85 72.387 52.164 72.15 51.929 71.858 51.829 71.585 51.829 71.584 51.104 71.584 51.104 71.584 51.104z"/>
  <path stroke="none" fill="#00519E" d="M53.207 51.104C53.688 51.104 54.145 51.308 54.506 51.67 54.506 51.67 54.506 51.67 55.191 52.354 55.191 52.354 55.191 52.354 55.573 51.97 55.573 51.97 55.573 51.97 55.965 53.628 55.965 53.628 55.965 53.628 54.31 53.235 54.31 53.235 54.31 53.235 54.695 52.85 54.695 52.85 54.695 52.85 54.011 52.164 53.774 51.929 53.481 51.829 53.21 51.829 53.207 51.104 53.207 51.104 53.207 51.104z"/>
  <path stroke="none" fill="#00519E" d="M106.585 51.104C107.066 51.104 107.524 51.308 107.884 51.67 107.884 51.67 107.884 51.67 108.569 52.354 108.569 52.354 108.569 52.354 108.953 51.97 108.953 51.97 108.953 51.97 109.343 53.628 109.343 53.628 109.343 53.628 107.688 53.235 107.688 53.235 107.688 53.235 108.073 52.85 108.073 52.85 108.073 52.85 107.39 52.164 107.152 51.929 106.858 51.829 106.588 51.829 106.585 51.104 106.585 51.104 106.585 51.104z"/>
  <path stroke="none" fill="#00519E" d="M96.347 51.674L101.484 51.674 101.484 52.216 102.932 51.323 101.484 50.429 101.484 50.975 96.347 50.975 96.347 51.674z"/>
  <path stroke="none" fill="#00519E" d="M42.201 51.674L47.338 51.674 47.338 52.216 48.786 51.323 47.338 50.429 47.338 50.975 42.201 50.975 42.201 51.674z"/>
  <g>
   <path stroke="none" fill="#00519E" d="M51.747 50.091C51.747 50.091 51.747 50.091 52.484 49.323 52.764 49.049 53.145 48.881 53.566 48.881 53.566 48.881 53.566 48.881 59.362 48.881 59.783 48.881 60.164 49.049 60.442 49.323 60.442 49.323 60.442 49.323 60.1 49.655 60.1 49.655 60.1 49.655 61.603 49.786 61.603 49.786 61.603 49.786 61.514 48.28 61.514 48.28 61.514 48.28 61.167 48.616L61.167 48.618C60.704 48.155 60.067 47.869 59.362 47.869 59.362 47.869 59.362 47.869 53.566 47.869 52.86 47.869 52.222 48.155 51.761 48.618 51.761 48.618 51.761 48.618 50.731 49.651 50.453 49.923 50.07 50.091 49.651 50.091"/>
  </g>
  <path stroke-width="0.3" stroke-linejoin="round" d="M99.599 63.843C99.599 60.219 102.537 57.281 106.161 57.281C109.784 57.281 112.722 60.219 112.722 63.843C112.722 67.466 109.784 70.405 106.161 70.405C102.537 70.405 99.599 67.466 99.599 63.843z"/>
  <path stroke-width="0.3" stroke-linejoin="round" d="M82.218 63.843C82.218 60.219 85.156 57.281 88.78 57.281C92.403 57.281 95.341 60.219 95.341 63.843C95.341 67.466 92.403 70.405 88.78 70.405C85.156 70.405 82.218 67.466 82.218 63.843z"/>
  <path stroke-width="0.3" stroke-linejoin="round" d="M64.837 63.843C64.837 60.219 67.775 57.281 71.399 57.281C75.022 57.281 77.959 60.219 77.959 63.843C77.959 67.466 75.022 70.405 71.399 70.405C67.775 70.405 64.837 67.466 64.837 63.843z"/>
  <path stroke-width="0.3" stroke-linejoin="round" d="M47.456 63.843C47.456 60.219 50.393 57.281 54.018 57.281C57.642 57.281 60.579 60.219 60.579 63.843C60.579 67.466 57.642 70.405 54.018 70.405C50.393 70.405 47.456 67.466 47.456 63.843z"/>
  <path stroke-width="0.3" stroke-linejoin="round" d="M116.98 63.701C116.98 60.078 119.918 57.14 123.543 57.14C127.167 57.14 130.104 60.078 130.104 63.701C130.104 67.325 127.167 70.263 123.543 70.263C119.918 70.263 116.98 67.325 116.98 63.701z"/>
  <path stroke-width="0.201" stroke-linejoin="round" d="M49.503 50.091L48.621 50.091"/>
  <path stroke-width="0.201" stroke-linejoin="round" stroke-dasharray="1.221 1.221" d="M47.399 50.091L45.566 50.091"/>
  <path stroke-width="0.201" stroke-linejoin="round" d="M44.954 50.091L44.073 50.091"/>
  <path stroke-width="0.201" stroke-linejoin="round" d="M126.507 54.567C126.427 54.283 126.328 54.005 126.21 53.737"/>
  <path stroke-width="0.201" stroke-linejoin="round" stroke-dasharray="1.74 1.74" d="M125.292 52.265C124.18 50.944 122.519 50.098 120.665 50.091C120.665 50.091 120.665 50.091 106.552 50.091C106.552 50.091 106.552 50.091 53.722 50.091"/>
  <path stroke-width="0.201" stroke-linejoin="round" d="M52.854 50.091L51.972 50.091"/>
  <path stroke-width="0.201" stroke-linejoin="round" d="M109.819 52.496L110.7 52.496"/>
  <path stroke-width="0.201" stroke-linejoin="round" stroke-dasharray="1.875 1.875" d="M112.575 52.496C112.575 52.496 112.575 52.496 120.647 52.496C121.546 52.496 122.218 52.75 122.745 53.158"/>
  <path stroke-width="0.201" stroke-linejoin="round" d="M123.4 53.826C123.576 54.055 123.733 54.305 123.875 54.567"/>
  <path stroke-width="0.201" stroke-linejoin="round" d="M93.844 54.567C93.762 54.308 93.661 54.023 93.546 53.737"/>
  <path stroke-width="0.201" stroke-linejoin="round" d="M93.331 53.253C93.195 52.973 93.045 52.712 92.881 52.496C92.881 52.496 92.881 52.496 93.763 52.496"/>
  <path stroke-width="0.201" stroke-linejoin="round" stroke-dasharray="2.047 2.047" d="M95.81 52.496L102.974 52.496"/>
  <path stroke-width="0.201" stroke-linejoin="round" d="M103.998 52.496L104.879 52.496"/>
  <path stroke-width="0.201" stroke-linejoin="round" d="M75.885 54.567C75.804 54.31 75.703 54.024 75.587 53.737"/>
  <path stroke-width="0.201" stroke-linejoin="round" d="M75.375 53.253C75.239 52.973 75.087 52.712 74.924 52.496C74.924 52.496 74.924 52.496 75.805 52.496"/>
  <path stroke-width="0.201" stroke-linejoin="round" stroke-dasharray="1.718 1.718" d="M77.524 52.496C77.524 52.496 77.524 52.496 88.052 52.496C89.263 52.496 89.888 52.731 90.284 53.095"/>
  <path stroke-width="0.201" stroke-linejoin="round" d="M90.784 53.789C90.915 54.034 91.036 54.299 91.197 54.567"/>
  <path stroke-width="0.201" stroke-linejoin="round" d="M57.454 54.567C57.372 54.308 57.271 54.023 57.156 53.737"/>
  <path stroke-width="0.201" stroke-linejoin="round" d="M56.942 53.253C56.807 52.975 56.656 52.712 56.493 52.496C56.493 52.496 56.493 52.496 57.375 52.496"/>
  <path stroke-width="0.201" stroke-linejoin="round" stroke-dasharray="1.761 1.761" d="M59.136 52.496C59.136 52.496 59.136 52.496 70.096 52.496C71.037 52.496 71.691 52.768 72.192 53.185"/>
  <path stroke-width="0.201" stroke-linejoin="round" d="M72.79 53.828C72.965 54.06 73.12 54.31 73.269 54.567"/>
  <path stroke-width="0.201" stroke-linejoin="round" d="M44.235 52.496L45.118 52.496"/>
  <path stroke-width="0.201" stroke-linejoin="round" stroke-dasharray="1.958 1.958" d="M47.076 52.496C47.076 52.496 47.076 52.496 51.664 52.496C52.682 52.496 53.337 52.719 53.811 53.085"/>
  <path stroke-width="0.201" stroke-linejoin="round" d="M54.466 53.805C54.624 54.04 54.764 54.298 54.906 54.567"/>
  <path stroke-width="0.201" stroke-linejoin="round" d="M110.612 54.567C110.53 54.308 110.429 54.023 110.313 53.737"/>
  <path stroke-width="0.201" stroke-linejoin="round" d="M110.099 53.253C109.963 52.973 109.813 52.712 109.649 52.496C109.649 52.496 109.649 52.496 110.531 52.496"/>
  <path stroke-width="0.201" stroke-linejoin="round" stroke-dasharray="2.2 2.2" d="M112.73 52.496L116.031 52.496"/>
  <path stroke-width="0.201" stroke-linejoin="round" d="M117.131 52.496L118.013 52.496"/>
  <path stroke-width="0.201" stroke-linejoin="round" d="M104.819 52.496C105.156 52.496 105.447 52.515 105.701 52.548"/>
  <path stroke-width="0.201" stroke-linejoin="round" d="M107.552 53.789C107.683 54.034 107.804 54.299 107.965 54.567"/>
  <path stroke-width="0.3" stroke-linejoin="round" d="M20.952 98.793L20.952 92.561L15.66 92.561L15.66 98.793L20.952 98.793z"/>
  <path stroke-width="0.3" stroke-linejoin="round" d="M15.631 98.793L20.893 92.59"/>
  <path stroke="none" fill="#000000" d="M17.655 95.677C17.655 95.319 17.943 95.031 18.301 95.031 18.658 95.031 18.948 95.319 18.948 95.677 18.948 96.034 18.658 96.323 18.301 96.323 17.943 96.323 17.655 96.034 17.655 95.677z"/>
  <path stroke="#FFFFFF" stroke-width="0.501" d="M22.649 101.662L19.291 98.121"/>
  <path stroke-width="0.131" d="M22.649 101.662L19.291 98.121"/>
  <path stroke="none" fill="#FFFFFF" d="M27.295 78.686C27.295 78.686 27.295 78.686 27.295 54.344 27.295 54.189 27.42 54.064 27.576 54.064 27.576 54.064 27.576 54.064 34.966 54.064 34.966 54.064 34.966 54.064 34.966 52.268 34.966 52.268 34.966 52.268 27.576 52.268 26.428 52.268 25.498 53.198 25.498 54.344 25.498 54.344 25.498 54.344 25.5 79.596 27.295 78.686 27.295 78.686 27.295 78.686z"/>
  <path stroke="none" fill="#FFFFFF" d="M28.975 92.194C28.975 92.194 28.975 92.194 27.576 92.194 27.42 92.194 27.294 92.069 27.294 91.912 27.294 91.912 27.294 91.912 27.294 80.996 27.294 80.996 27.294 80.996 25.5 81.902 25.5 81.902 25.5 81.902 25.5 91.912 25.5 92.578 25.812 93.171 26.298 93.551 26.298 93.551 26.298 93.551 26.759 93.534 26.759 93.534 27.16 93.543 27.562 93.379 27.963 93.215 28.246 92.897 28.246 92.897 28.975 92.194 28.975 92.194 28.975 92.194z"/>
  <path stroke="none" fill="#FFFFFF" d="M33.213 93.989C33.213 93.989 33.213 93.989 103.859 93.989 103.859 93.989 103.859 93.989 103.859 95.027 103.859 95.475 104.222 95.838 104.671 95.838 104.671 95.838 104.671 95.838 123.879 95.838 124.328 95.838 124.691 95.475 124.691 95.027 124.691 95.027 124.691 95.027 124.691 93.989 124.691 93.989 124.691 93.989 135.356 93.989 136.503 93.989 137.432 93.06 137.432 91.912 137.432 91.912 137.432 91.912 137.432 88.799 137.432 88.799 137.432 88.799 138.524 88.799 138.524 88.799 138.524 88.799 137.432 87.492 137.432 87.492 137.432 87.492 137.432 85.347 137.432 85.347 137.432 85.347 138.524 84.042 138.524 84.042 138.524 84.042 137.432 84.042 137.432 84.042 137.432 84.042 137.432 65.156 137.432 64.01 136.503 63.081 135.356 63.081 135.356 63.081 135.356 63.081 133.76 63.081 133.76 63.081 133.76 63.081 133.76 64.875 133.76 64.875 133.76 64.875 135.356 64.875 135.512 64.875 135.638 65.001 135.638 65.156 135.638 65.156 135.638 65.156 135.638 84.042 135.638 84.042 135.638 84.042 134.551 84.042 134.551 84.042 134.551 84.042 135.638 85.341 135.638 85.341 135.638 85.341 135.638 87.498 135.638 87.498 135.638 87.498 134.551 88.799 134.551 88.799 134.551 88.799 135.638 88.799 135.638 88.799 135.638 88.799 135.638 91.912 135.638 92.069 135.512 92.194 135.356 92.194 135.356 92.194 135.356 92.194 124.691 92.194 124.691 92.194 124.691 92.194 124.691 91.17 124.691 90.721 124.328 90.358 123.879 90.358 123.879 90.358 123.879 90.358 104.671 90.358 104.222 90.358 103.859 90.721 103.859 91.17 103.859 91.17 103.859 91.17 103.859 92.194 103.859 92.194 103.859 92.194 35.027 92.194 33.213 93.989 33.213 93.989 33.213 93.989z"/>
  <path stroke-width="0.3" stroke-linejoin="round" d="M27.295 78.802C27.295 78.802 27.295 78.802 27.295 54.344C27.295 54.189 27.42 54.064 27.576 54.064C27.576 54.064 27.576 54.064 35.048 54.064"/>
  <path stroke-width="0.3" stroke-linejoin="round" d="M35.048 52.268C35.048 52.268 35.048 52.268 27.576 52.268C26.428 52.268 25.498 53.198 25.498 54.345C25.498 54.345 25.498 54.345 25.5 79.712"/>
  <path stroke-width="0.3" stroke-linejoin="round" d="M34.893 92.194L103.876 92.194"/>
  <path stroke-width="0.3" stroke-linejoin="round" d="M27.295 80.9C27.295 80.9 27.295 80.9 27.295 91.914C27.295 92.069 27.42 92.194 27.576 92.194C27.576 92.194 27.576 92.194 29.125 92.194"/>
  <path stroke-width="0.3" stroke-linejoin="round" d="M26.399 93.625C25.856 93.25 25.498 92.623 25.498 91.912C25.498 91.912 25.498 91.912 25.5 81.805"/>
  <path stroke-width="0.3" stroke-linejoin="round" d="M103.878 93.989L33.064 93.989"/>
  <path stroke-width="0.3" stroke-linejoin="round" d="M135.638 83.947C135.638 83.947 135.638 83.947 135.638 65.156C135.638 65.001 135.513 64.875 135.356 64.875C135.356 64.875 135.356 64.875 133.643 64.875"/>
  <path stroke-width="0.3" stroke-linejoin="round" d="M133.643 63.079C133.643 63.079 133.643 63.079 135.356 63.079C136.503 63.079 137.432 64.01 137.432 65.156C137.432 65.156 137.432 65.156 137.432 83.947"/>
  <path stroke-width="0.3" stroke-linejoin="round" d="M135.638 88.894C135.638 88.894 135.638 88.894 135.638 91.914C135.638 92.069 135.513 92.194 135.356 92.194C135.356 92.194 135.356 92.194 124.674 92.194"/>
  <path stroke-width="0.3" stroke-linejoin="round" d="M124.674 93.989C124.674 93.989 124.674 93.989 135.356 93.989C136.503 93.989 137.432 93.06 137.432 91.912C137.432 91.912 137.432 91.912 137.432 88.894"/>
  <path stroke-width="0.3" stroke-linejoin="round" d="M123.879 90.358C124.328 90.358 124.691 90.721 124.691 91.17C124.691 91.17 124.691 91.17 124.691 95.027C124.691 95.475 124.328 95.838 123.879 95.838C123.879 95.838 123.879 95.838 104.671 95.838C104.222 95.838 103.859 95.475 103.859 95.027C103.859 95.027 103.859 95.027 103.859 91.17C103.859 90.721 104.222 90.358 104.671 90.358C104.671 90.358 104.671 90.358 123.879 90.358z"/>
  <path stroke-width="0.3" stroke-linejoin="round" d="M134.551 88.799L138.524 88.799L134.551 84.042L138.524 84.042L134.551 88.799z"/>
  <path stroke-width="0.3" stroke-linejoin="round" d="M135.638 87.498L135.638 85.352"/>
  <path stroke-width="0.3" stroke-linejoin="round" d="M137.432 87.498L137.432 85.352"/>
  <path stroke="#FFFFFF" stroke-width="0.501" d="M90.862 98.242L105.545 94.795"/>
  <path stroke-width="0.131" d="M90.862 98.242L105.545 94.795"/>
  <path stroke="#FFFFFF" stroke-width="0.501" d="M137.343 87.974L144.846 78.515"/>
  <path stroke-width="0.131" d="M137.343 87.974L144.846 78.515"/>
  <path stroke="none" fill="#00519E" d="M26.144 75.51L26.144 67.302 25.74 67.302 26.408 66.221 27.076 67.302 26.667 67.302 26.667 75.51 26.144 75.51z"/>
  <path stroke="none" fill="#00519E" d="M81.233 92.813L73.025 92.813 73.025 92.409 71.944 93.076 73.025 93.745 73.025 93.337 81.233 93.337 81.233 92.813z"/>
  <path stroke="none" fill="#00519E" d="M118.355 92.819L110.149 92.819 110.149 92.415 109.067 93.081 110.149 93.75 110.149 93.341 118.355 93.341 118.355 92.819z"/>
  <path stroke="none" fill="#00519E" d="M26.143 91.966C26.143 91.966 26.143 91.966 26.143 91.242 26.143 91.242 26.143 91.242 25.74 91.242 25.74 91.242 25.74 91.242 26.408 90.162 26.408 90.162 26.408 90.162 27.074 91.242 27.074 91.242 27.074 91.242 26.667 91.242 26.667 91.242 26.667 91.242 26.667 91.966 26.667 92.543 27.153 92.84 27.637 92.84 27.637 92.84 27.637 92.84 28.263 92.84 28.263 92.84 28.221 92.933 27.989 93.115 27.757 93.298 27.577 93.361 27.548 93.361 26.644 93.322 26.143 92.704 26.143 91.966z"/>
  <path stroke="none" fill="#00519E" d="M136.794 65.135C136.794 65.135 136.794 65.135 136.794 65.858 136.794 65.858 136.794 65.858 137.199 65.858 137.199 65.858 137.199 65.858 136.532 66.939 136.532 66.939 136.532 66.939 135.864 65.858 135.864 65.858 135.864 65.858 136.271 65.858 136.271 65.858 136.271 65.858 136.271 65.135 136.271 64.558 135.784 64.262 135.301 64.262 135.301 64.262 135.301 64.262 134.554 64.262 134.554 64.262 134.554 64.262 134.554 63.738 134.554 63.738 134.554 63.738 135.301 63.738 136.26 63.738 136.794 64.373 136.794 65.135z"/>
  <path stroke="none" fill="#00519E" d="M135.399 93.359C135.399 93.359 135.399 93.359 134.675 93.359 134.675 93.359 134.675 93.359 134.675 93.765 134.675 93.765 134.675 93.765 133.593 93.096 133.593 93.096 133.593 93.096 134.675 92.429 134.675 92.429 134.675 92.429 134.675 92.837 134.675 92.837 134.675 92.837 135.399 92.837 135.974 92.837 136.271 92.349 136.271 91.867 136.271 91.867 136.271 91.867 136.271 91.118 136.271 91.118 136.271 91.118 136.794 91.118 136.794 91.118 136.794 91.118 136.794 91.867 136.794 92.826 136.159 93.359 135.399 93.359z"/>
  <path stroke="none" fill="#00519E" d="M27.541 52.889C27.541 52.889 27.541 52.889 28.265 52.889 28.265 52.889 28.265 52.889 28.265 52.484 28.265 52.484 28.265 52.484 29.346 53.152 29.346 53.152 29.346 53.152 28.265 53.82 28.265 53.82 28.265 53.82 28.265 53.412 28.265 53.412 28.265 53.412 27.541 53.412 26.964 53.412 26.669 53.899 26.669 54.381 26.669 54.381 26.669 54.381 26.669 55.13 26.669 55.13 26.669 55.13 26.144 55.13 26.144 55.13 26.144 55.13 26.144 54.381 26.144 53.423 26.78 52.889 27.541 52.889z"/>
 </g>
 <g id="A4_x0020_full_x0020_frame">
  <path stroke="#FFFFFF" stroke-width="0.006" d="M150.002 105.024L150.002 0.003L0.003 0.003L0.003 105.024L150.002 105.024z"/>
 </g>
 <g id="Poses_x0020_Basic">
  <path stroke="#FFFFFF" stroke-width="0.501" d="M133.582 58.88L146.502 62.332"/>
  <path stroke-width="0.131" d="M133.582 58.88L146.502 62.332"/>
  <path stroke="#FFFFFF" stroke-width="0.501" d="M21.603 39.22L36.488 47.252"/>
  <path stroke-width="0.131" d="M21.603 39.22L36.488 47.252"/>
  <path stroke="#FFFFFF" stroke-width="0.501" d="M47.404 36.296L56.607 15.734"/>
  <path stroke-width="0.131" d="M47.404 36.296L56.607 15.734"/>
  <path stroke="#FFFFFF" stroke-width="0.501" d="M41.396 37.539L50.765 11.702"/>
  <path stroke-width="0.131" d="M41.396 37.539L50.765 11.702"/>
  <path stroke="#FFFFFF" stroke-width="0.501" d="M58.22 46.186L67.787 5.634"/>
  <path stroke-width="0.131" d="M58.22 46.186L67.787 5.634"/>
  <path stroke="#FFFFFF" stroke-width="0.501" d="M38.34 9.285L39.674 6.315"/>
  <path stroke-width="0.131" d="M38.34 9.285L39.674 6.315"/>
  <path stroke="#FFFFFF" stroke-width="0.501" d="M6.225 10.897L4.19 6.315"/>
  <path stroke-width="0.131" d="M6.225 10.897L4.19 6.315"/>
  <path stroke="#FFFFFF" stroke-width="0.501" d="M26.204 17.324L12.369 6.315"/>
  <path stroke-width="0.131" d="M26.204 17.324L12.369 6.315"/>
  <path stroke="#FFFFFF" stroke-width="0.501" d="M44.884 10.922L46.218 7.95"/>
  <path stroke-width="0.131" d="M44.884 10.922L46.218 7.95"/>
  <path stroke="#FFFFFF" stroke-width="0.501" d="M5.318 58.643L2.379 55.188"/>
  <path stroke-width="0.131" d="M5.318 58.643L2.379 55.188"/>
  <path stroke="none" fill="#000000" d="M144.712 77.29C144.712 77.29 144.712 77.29 144.248 77.29 144.248 77.29 144.248 77.29 144.248 74.832 144.248 74.832 144.248 74.832 143.442 74.832 143.442 74.832 143.442 74.832 143.442 74.489 144.002 74.448 144.235 74.394 144.372 73.828 144.372 73.828 144.372 73.828 144.712 73.828 144.712 77.29 144.712 77.29 144.712 77.29z"/>
  <path stroke="none" fill="#000000" d="M147.45 77.29C147.45 77.29 147.45 77.29 146.987 77.29 146.987 77.29 146.987 77.29 146.987 74.832 146.987 74.832 146.987 74.832 146.18 74.832 146.18 74.832 146.18 74.832 146.18 74.489 146.741 74.448 146.973 74.394 147.11 73.828 147.11 73.828 147.11 73.828 147.45 73.828 147.45 77.29 147.45 77.29 147.45 77.29z"/>
  <path stroke="none" fill="#000000" d="M86.658 100.15C86.658 100.15 86.658 100.15 86.194 100.15 86.194 100.15 86.194 100.15 86.194 97.691 86.194 97.691 86.194 97.691 85.387 97.691 85.387 97.691 85.387 97.691 85.387 97.346 85.948 97.308 86.18 97.253 86.317 96.686 86.317 96.686 86.317 96.686 86.658 96.686 86.658 100.15 86.658 100.15 86.658 100.15z"/>
  <path stroke="none" fill="#000000" d="M88.996 100.243L88.996 99.853C89.495 99.853 89.721 99.331 89.721 98.465 89.721 97.597 89.495 97.075 88.996 97.075 88.5 97.075 88.272 97.597 88.272 98.465 88.272 99.331 88.5 99.853 88.996 99.853L88.996 100.243C88.003 100.243 87.81 99.185 87.81 98.465 87.81 97.745 88.003 96.686 88.996 96.686 89.992 96.686 90.183 97.745 90.183 98.465 90.183 99.185 89.992 100.243 88.996 100.243z"/>
  <path stroke="none" fill="#000000" d="M148.649 63.631C148.649 63.631 148.649 63.631 148.186 63.631 148.186 63.631 148.186 63.631 148.186 61.173 148.186 61.173 148.186 61.173 147.377 61.173 147.377 61.173 147.377 61.173 147.377 60.828 147.939 60.789 148.17 60.734 148.308 60.167 148.308 60.167 148.308 60.167 148.649 60.167 148.649 63.631 148.649 63.631 148.649 63.631z"/>
  <path stroke="none" fill="#000000" d="M57.991 12.852C58.459 13.05 58.557 13.433 58.557 13.695 58.557 14.252 58.203 14.788 57.386 14.788 57.194 14.788 56.829 14.74 56.552 14.522 56.198 14.242 56.198 13.867 56.198 13.699 56.198 13.276 56.42 13.006 56.784 12.858 56.488 12.744 56.317 12.507 56.317 12.182 56.317 11.823 56.539 11.233 57.365 11.233L57.341 11.621C56.878 11.621 56.765 11.942 56.765 12.163 56.765 12.493 57.055 12.695 57.371 12.695L57.375 13.07C56.887 13.07 56.661 13.39 56.661 13.71 56.661 13.986 56.799 14.399 57.399 14.399 57.716 14.399 58.094 14.285 58.094 13.743 58.094 13.276 57.77 13.07 57.375 13.07L57.371 12.695C57.744 12.695 57.987 12.454 57.987 12.138 57.987 11.926 57.848 11.621 57.341 11.621L57.365 11.233C58.134 11.233 58.435 11.72 58.435 12.124 58.435 12.621 58.143 12.774 57.991 12.852z"/>
  <path stroke="none" fill="#000000" d="M50.35 7.275C50.35 7.275 50.35 7.275 52.744 7.275 52.744 7.275 52.744 7.275 52.744 7.653 52.399 8.013 51.573 9.117 51.322 10.663 51.322 10.663 51.322 10.663 50.844 10.663 50.962 9.712 51.593 8.471 52.256 7.698 52.256 7.698 52.256 7.698 50.35 7.698 50.35 7.275 50.35 7.275 50.35 7.275z"/>
  <path stroke="none" fill="#000000" d="M66.112 2.321C66.112 1.69 66.496 1.133 67.225 1.133L67.23 1.523C66.826 1.523 66.561 1.838 66.561 2.301 66.561 2.966 66.974 3.049 67.265 3.049 67.492 3.049 67.93 2.945 67.93 2.262 67.93 1.867 67.727 1.523 67.23 1.523L67.225 1.133C68.328 1.133 68.436 2.177 68.436 2.74 68.436 3.108 68.373 4.689 67.182 4.689 66.368 4.689 66.152 4.099 66.152 3.764 66.152 3.764 66.152 3.764 66.584 3.764 66.609 4.113 66.816 4.331 67.171 4.331 67.644 4.331 67.896 3.931 68.004 3.035L67.993 3.024C67.865 3.29 67.521 3.439 67.2 3.439 66.561 3.439 66.112 3.011 66.112 2.321z"/>
  <path stroke="none" fill="#000000" d="M41.131 2.734C41.078 2.43 40.909 2.202 40.536 2.202 39.856 2.202 39.713 3.118 39.713 3.484L39.722 3.493C39.832 3.306 40.073 3.069 40.545 3.069L40.481 3.459C40.003 3.459 39.773 3.804 39.773 4.211 39.773 4.581 39.993 4.98 40.502 4.98 40.914 4.98 41.18 4.655 41.18 4.187 41.18 3.883 41.018 3.459 40.481 3.459L40.545 3.069C40.969 3.069 41.628 3.341 41.628 4.168 41.628 4.522 41.536 4.778 41.299 5.035 41.116 5.237 40.909 5.37 40.423 5.37 40.156 5.37 39.777 5.251 39.53 4.868 39.323 4.543 39.265 4.118 39.265 3.665 39.265 2.907 39.511 1.814 40.545 1.814 40.945 1.814 41.511 2.031 41.555 2.734 41.131 2.734 41.131 2.734 41.131 2.734z"/>
  <path stroke="none" fill="#000000" d="M4.807 4.434L4.807 5.275 4.373 5.275 4.373 4.434 4.373 4.059 4.373 2.488 4.362 2.488 3.259 4.059 4.373 4.059 4.373 4.434 2.86 4.434 2.86 4.009 4.447 1.814 4.807 1.814 4.807 4.059 5.314 4.059 5.314 4.434 4.807 4.434z"/>
  <path stroke="none" fill="#000000" d="M10.298 3.262C10.445 3.149 10.657 3.044 10.968 3.044 11.528 3.044 12.105 3.439 12.105 4.152 12.105 4.538 11.932 5.37 10.849 5.37 10.396 5.37 9.814 5.187 9.731 4.413 9.731 4.413 9.731 4.413 10.179 4.413 10.224 4.817 10.525 4.996 10.913 4.996 11.362 4.996 11.643 4.636 11.643 4.203 11.643 3.705 11.303 3.434 10.874 3.434 10.622 3.434 10.396 3.552 10.234 3.764 10.234 3.764 10.234 3.764 9.859 3.743 9.859 3.743 9.859 3.743 10.121 1.887 10.121 1.887 10.121 1.887 11.913 1.887 11.913 1.887 11.913 1.887 11.913 2.311 11.913 2.311 11.913 2.311 10.445 2.311 10.298 3.262 10.298 3.262 10.298 3.262z"/>
  <path stroke="none" fill="#000000" d="M47.689 6.07L47.689 6.911 47.256 6.911 47.256 6.07 47.256 5.695 47.256 4.123 47.246 4.123 46.143 5.695 47.256 5.695 47.256 6.07 45.744 6.07 45.744 5.645 47.331 3.45 47.689 3.45 47.689 5.695 48.198 5.695 48.198 6.07 47.689 6.07z"/>
  <path stroke="none" fill="#000000" d="M1.552 52.411C1.625 52.417 1.705 52.421 1.778 52.421 2.113 52.421 2.439 52.289 2.439 51.856 2.439 51.649 2.315 51.308 1.798 51.308 1.183 51.308 1.143 51.811 1.124 52.052 1.124 52.052 1.124 52.052 0.7 52.052 0.7 51.545 0.907 50.92 1.818 50.92 2.488 50.92 2.887 51.304 2.887 51.831 2.887 52.274 2.631 52.485 2.443 52.545L2.443 52.554C2.778 52.664 3.02 52.899 3.02 53.362 3.02 53.929 2.655 54.475 1.774 54.475 1.518 54.475 1.3 54.411 1.133 54.323 0.749 54.121 0.646 53.722 0.616 53.323 0.616 53.323 0.616 53.323 1.064 53.323 1.08 53.649 1.157 54.087 1.804 54.087 2.246 54.087 2.556 53.816 2.556 53.417 2.556 52.835 2.044 52.781 1.75 52.781 1.685 52.781 1.617 52.786 1.552 52.786 1.552 52.411 1.552 52.411 1.552 52.411z"/>
  <path stroke="none" fill="#000000" d="M18.35 37.755C18.35 36.627 19.173 36.514 19.548 36.514 20.149 36.514 20.632 36.902 20.632 37.548 20.632 38.168 20.222 38.429 19.705 38.706 19.705 38.706 19.705 38.706 19.346 38.902 18.873 39.164 18.769 39.435 18.75 39.567 18.75 39.567 18.75 39.567 20.632 39.567 20.632 39.567 20.632 39.567 20.632 39.976 20.632 39.976 20.632 39.976 18.263 39.976 18.286 39.256 18.611 38.872 19.074 38.601 19.074 38.601 19.074 38.601 19.533 38.335 19.902 38.125 20.169 37.981 20.169 37.529 20.169 37.253 19.99 36.902 19.484 36.902 18.829 36.902 18.8 37.514 18.785 37.755 18.35 37.755 18.35 37.755 18.35 37.755z"/>
  <path stroke="none" fill="#000000" d="M25.03 103.418C25.03 103.418 25.03 103.418 24.567 103.418 24.567 103.418 24.567 103.418 24.567 100.96 24.567 100.96 24.567 100.96 23.76 100.96 23.76 100.96 23.76 100.96 23.76 100.615 24.321 100.576 24.553 100.522 24.69 99.956 24.69 99.956 24.69 99.956 25.03 99.956 25.03 103.418 25.03 103.418 25.03 103.418z"/>
  <path stroke="none" fill="#000000" d="M28.068 102.576L28.068 103.418 27.635 103.418 27.635 102.576 27.635 102.201 27.635 100.631 27.626 100.631 26.521 102.201 27.635 102.201 27.635 102.576 26.123 102.576 26.123 102.153 27.71 99.956 28.068 99.956 28.068 102.201 28.576 102.201 28.576 102.576 28.068 102.576z"/>
 </g>
 <g id="Picture_x0020_#">
  <text transform="matrix(0 -1 1 0 148.818 104.01)" stroke="none" fill="#000000" font-family="'Arial'" font-size="2.117">362 735</text>
 </g>
</svg>
