<?xml version="1.0" encoding="utf-8"?>
<!DOCTYPE svg PUBLIC "-//W3C//DTD SVG 1.1//EN" "http://www.w3.org/Graphics/SVG/1.1/DTD/svg11.dtd">
<!-- Generator: PTC Arbortext IsoDraw 7.3 -->
<svg width="100%" height="100%" viewBox="0 0 75.006 81.096"
 xmlns="http://www.w3.org/2000/svg" xmlns:xlink="http://www.w3.org/1999/xlink"
 fill-rule="evenodd" clip-rule="evenodd" stroke="#000000" stroke-linecap="round" fill="none" xml:space="preserve">
 <g id="Standard_x0020_layer">
  <path stroke-width="0.3" stroke-linejoin="round" d="M25.449 75.272C26.634 75.975 28.12 76.396 29.736 76.396C33.595 76.396 36.725 74.001 36.725 71.046C36.725 68.093 33.595 65.697 29.736 65.697C26.871 65.697 24.41 67.016 23.329 68.903"/>
  <path stroke-width="0.3" stroke-linejoin="round" d="M33.033 71.06C33.033 69.703 31.614 68.602 29.864 68.602C28.114 68.602 26.695 69.703 26.695 71.06"/>
  <path stroke-width="0.131" stroke-linejoin="round" d="M26.695 71.06C26.695 72.417 28.114 73.516 29.864 73.516C31.614 73.516 33.033 72.417 33.033 71.06"/>
  <path stroke-width="0.131" stroke-linejoin="round" d="M27.446 70.379C27.446 71.349 28.484 72.135 29.768 72.135C31.05 72.135 32.09 71.349 32.09 70.379C32.09 69.409 31.05 68.623 29.768 68.623C28.484 68.623 27.446 69.409 27.446 70.379z"/>
  <path stroke-width="0.3" stroke-linejoin="round" d="M28.445 70.944C28.445 71.59 29.036 72.114 29.766 72.114C30.498 72.114 31.088 71.59 31.088 70.944"/>
  <path stroke-width="0.131" stroke-linejoin="round" d="M31.088 70.944C31.088 70.296 30.498 69.772 29.766 69.772C29.036 69.772 28.445 70.296 28.445 70.944"/>
  <path stroke-width="0.131" stroke-linejoin="round" d="M28.673 71.237C28.673 71.712 29.163 72.096 29.768 72.096C30.371 72.096 30.861 71.712 30.861 71.237C30.861 70.763 30.371 70.379 29.768 70.379C29.163 70.379 28.673 70.763 28.673 71.237z"/>
  <path stroke-width="0.131" stroke-linejoin="round" d="M26.391 71.18C26.391 72.668 27.946 73.873 29.864 73.873C31.78 73.873 33.335 72.668 33.335 71.18"/>
  <path stroke-width="0.131" stroke-linejoin="round" d="M26.736 70.631C27.021 71.751 28.257 72.593 29.736 72.593C31.426 72.593 32.798 71.492 32.798 70.135"/>
  <path stroke-width="0.3" stroke-linejoin="round" d="M35.384 74.25C35.594 74.447 36.448 75.168 37.755 75.165C39.268 75.161 39.268 75.161 39.268 75.161"/>
  <path stroke-width="0.3" stroke-linejoin="round" d="M5.487 48.581C5.461 48.521 5.445 48.439 5.445 48.332C5.445 47.764 5.418 46.735 5.418 46.735C5.418 46.735 5.32 46.249 5.761 46.249L51.904 46.249L58.6 46.249C58.6 46.249 59.439 46.195 59.493 46.898C59.546 47.6 59.762 60.037 59.762 60.037L59.628 69.177C59.628 69.177 59.52 69.581 59.06 69.581C58.6 69.581 43.216 69.581 43.216 69.581L43.134 74.909C43.134 74.909 43.027 76.396 41.459 76.396"/>
  <path stroke-width="0.131" stroke-linejoin="round" d="M7.11 50.18C7.1 49.835 7.094 49.628 7.094 49.628C7.094 49.628 7.176 48.844 5.878 48.71C5.878 48.71 5.594 48.834 5.487 48.581"/>
  <path stroke-width="0.3" stroke-linejoin="round" d="M25.449 75.272L18.315 75.271C18.315 75.271 15.692 75.423 10.772 74.53C10.772 74.53 5.418 73.909 5.392 70.338L5.201 62.85C5.201 62.85 5.147 61.823 5.58 61.634L5.58 58.659C5.58 58.659 5.471 58.091 5.932 58.091C6.392 58.091 7.256 57.982 7.256 56.793C7.256 55.825 7.15 51.689 7.11 50.18"/>
  <path stroke-width="0.3" stroke-linejoin="round" d="M5.487 48.581L5.338 48.581L5.2 57.442C5.2 57.442 5.232 57.551 5.487 57.551C5.743 57.551 6.448 57.594 6.623 57.965"/>
  <path stroke-width="0.3" stroke-linejoin="round" d="M59.534 48.25L61.357 48.25L61.817 48.466L61.817 55.82L59.688 55.82"/>
  <path stroke-width="0.3" stroke-linejoin="round" d="M59.7 56.494L60.384 56.494L61.979 58.551L61.979 60.093L62.115 60.228L62.115 63.256L63.386 63.256C63.386 63.256 63.899 63.201 63.899 62.417C63.899 62.417 64.156 61.97 64.561 62.39C64.561 62.39 64.441 63.256 65.022 63.256C65.602 63.256 67.725 63.256 67.725 63.256C67.725 63.256 68.185 63.283 68.198 62.715C68.198 62.715 68.483 62.228 68.861 62.674C68.861 62.674 69.022 65.891 69.022 67.176C69.022 68.46 69.022 73.448 69.022 73.448C69.022 73.448 69.076 77.787 69.022 77.99C68.968 78.194 68.429 78.518 68.239 77.99C68.239 77.99 68.049 77.909 67.954 77.909C67.861 77.909 67.697 77.95 67.631 77.748C67.563 77.545 67.495 77.341 67.373 77.314C67.251 77.287 65.224 77.328 65.224 77.328C65.224 77.328 64.859 77.477 64.751 77.977C64.751 77.977 64.71 78.368 64.588 78.397C64.468 78.424 64.102 78.397 64.102 78.397C64.102 78.397 64.021 78.328 63.981 78.221C63.941 78.111 63.71 77.977 63.466 77.977C63.223 77.977 62.115 77.977 62.115 77.977L62.115 77.706L56.545 77.706L56.545 77.612L53.45 77.599C53.45 77.599 52.936 77.721 52.381 77.287C51.828 76.855 46.218 72.34 46.218 72.34C46.218 72.34 45.662 71.867 45.014 71.853C44.365 71.84 43.182 71.853 43.182 71.853"/>
  <path stroke-width="0.3" stroke-linejoin="round" d="M5.58 61.524L5.58 68.987C5.58 68.987 5.554 69.501 6.067 69.501C6.58 69.501 22.344 69.501 22.344 69.501C22.344 69.501 22.958 69.515 23.33 68.903"/>
  <path stroke-width="0.131" stroke-linejoin="round" d="M36.223 70.207C35.548 67.867 32.923 66.121 29.785 66.121C27.077 66.121 24.75 67.421 23.73 69.283"/>
  <path stroke-width="0.131" stroke-linejoin="round" d="M10.826 69.87C15.51 69.87 22.771 69.87 22.771 69.87C22.771 69.87 23.368 69.885 23.731 69.283"/>
  <path stroke-width="0.3" stroke-linejoin="round" d="M19.099 59.578L22.236 59.588"/>
  <path stroke-width="0.131" stroke-linejoin="round" d="M10.141 56.505L11.541 56.509L11.987 56.856"/>
  <path stroke-width="0.3" stroke-linejoin="round" d="M11.987 50.655L11.474 50.304L10.069 50.292C10.069 50.292 9.961 49.368 10.015 49.133C10.069 48.899 10.429 48.377 11.114 48.395C11.8 48.412 14.72 48.393 14.72 48.393L15.477 48.177L15.477 48.015L18.289 48.015L18.289 47.655C18.289 47.655 18.522 46.899 19.333 46.881C20.144 46.862 21.443 46.881 21.443 46.881C21.443 46.881 22.507 46.97 22.561 47.529L22.561 48.051L31.464 48.07L31.464 47.637C31.464 47.637 31.536 46.901 32.564 46.872C33.591 46.844 34.673 46.872 34.673 46.872C34.673 46.872 35.713 47.006 35.768 47.615L35.768 48.088L44.716 48.048C44.716 48.048 44.567 46.939 45.771 46.924C46.973 46.911 47.866 46.939 47.866 46.939C47.866 46.939 48.893 46.978 48.92 47.573C48.948 48.168 48.988 48.021 48.988 48.021L51.801 48.06L51.868 48.25C51.868 48.25 53.112 48.439 53.734 48.886L54.761 48.886C54.761 48.886 55.356 48.777 56.411 50.332C56.411 50.332 56.688 50.712 56.316 50.71C55.944 50.71 55.848 50.71 55.848 50.71C55.848 50.71 55.369 51.17 55.362 51.393C55.356 51.616 55.362 57.814 55.362 57.814L55.247 57.889C55.247 57.889 54.274 57.915 54.098 57.902C53.923 57.889 53.598 58.091 53.341 58.207C53.085 58.322 52.719 58.469 52.448 58.457C52.179 58.442 51.579 58.722 51.579 58.722L49.164 58.722L48.624 59.137C48.624 59.137 48.642 59.426 48.624 59.606C48.606 59.786 48.299 59.878 48.299 59.878C48.299 59.878 46.262 59.948 45.866 59.878C45.469 59.807 45.487 59.533 45.487 59.533L45.487 59.191L44.929 58.759L35.97 58.722L35.429 59.119C35.429 59.119 35.429 59.264 35.429 59.588C35.429 59.911 35.087 59.875 35.087 59.875C35.087 59.875 33.033 59.877 32.671 59.875C32.311 59.875 32.24 59.578 32.24 59.578L32.24 59.119L31.699 58.722L22.795 58.722L22.236 59.118C22.236 59.118 22.236 59.353 22.236 59.588C22.236 59.822 21.983 59.875 21.983 59.875C21.983 59.875 19.765 59.875 19.442 59.875C19.117 59.875 19.082 59.497 19.082 59.497L19.082 59.1L18.559 58.759C18.559 58.759 16.378 58.759 16.196 58.759C16.016 58.759 15.801 58.74 15.512 58.542C15.224 58.344 14.756 58.398 14.756 58.398C14.756 58.398 12.178 58.433 11.132 58.398C10.086 58.362 10.141 57.713 10.141 57.713L10.141 56.505"/>
  <path stroke-width="0.3" stroke-linejoin="round" d="M48.421 49.548C48.421 49.548 48.502 49.939 48.935 49.966C49.366 49.993 51.246 49.966 51.246 49.966L51.246 51.338"/>
  <path stroke-width="0.131" stroke-linejoin="round" d="M45.271 49.533C45.258 49.101 45.271 48.277 45.271 48.277C45.271 48.277 45.176 47.753 45.771 47.744C46.365 47.737 47.866 47.744 47.866 47.744C47.866 47.744 48.448 47.709 48.42 48.371L48.421 49.548"/>
  <path stroke-width="0.3" stroke-linejoin="round" d="M35.225 49.439C35.225 49.545 35.223 49.61 35.223 49.61C35.223 49.61 35.2 49.905 35.944 49.911L44.662 49.966C44.662 49.966 45.284 49.966 45.271 49.533"/>
  <path stroke-width="0.131" stroke-linejoin="round" d="M32.072 49.439C32.063 49.018 32.078 48.25 32.078 48.25C32.078 48.25 32.002 47.744 32.481 47.744C32.96 47.744 34.691 47.744 34.691 47.744C34.691 47.744 35.207 47.777 35.223 48.088C35.237 48.326 35.228 49.094 35.225 49.439"/>
  <path stroke-width="0.131" stroke-linejoin="round" d="M15.98 49.908C15.98 49.908 15.881 50.575 16.422 50.575C16.963 50.575 23.515 50.575 23.515 50.575C23.515 50.575 24.091 50.655 24.1 50.314L24.091 49.908"/>
  <path stroke-width="0.3" stroke-linejoin="round" d="M18.884 49.313L18.884 49.493C18.884 49.871 18.271 49.908 18.271 49.908L15.98 49.908"/>
  <path stroke-width="0.131" stroke-linejoin="round" d="M21.966 49.368L18.884 49.313"/>
  <path stroke-width="0.3" stroke-linejoin="round" d="M32.072 49.439C32.073 49.493 32.075 49.54 32.078 49.581C32.095 49.938 31.464 49.908 31.464 49.908L24.091 49.908L22.561 49.908C21.929 49.872 21.966 49.368 21.966 49.368"/>
  <path stroke-width="0.131" stroke-linejoin="round" d="M32.073 49.439L35.223 49.439"/>
  <path stroke-width="0.131" stroke-linejoin="round" d="M45.271 49.533L48.421 49.548"/>
  <path stroke-width="0.131" stroke-linejoin="round" d="M56.749 55.6C56.728 55.579 56.7 55.567 56.661 55.564C56.369 55.542 55.923 55.564 55.923 55.564L55.362 56"/>
  <path stroke-width="0.3" stroke-linejoin="round" d="M55.362 57.814C55.362 57.814 56.359 56.902 56.509 56.53C56.64 56.209 56.874 55.737 56.749 55.6"/>
  <path stroke-width="0.3" stroke-linejoin="round" d="M15.275 58.436L15.275 52.801C15.275 52.801 15.269 52.503 15.638 52.485C16.009 52.468 15.98 52.152 15.971 52.07"/>
  <path stroke-width="0.3" stroke-linejoin="round" d="M15.714 52.475C15.714 52.475 15.692 51.259 16.855 51.259L50.706 51.259C50.706 51.259 52.085 51.206 52.085 52.475L52.085 53.384L54.012 53.384C54.012 53.384 54.554 53.439 54.554 53.99C54.554 54.54 54.554 57.904 54.554 57.904"/>
  <path stroke-width="0.3" stroke-linejoin="round" d="M15.275 53.494C15.275 53.494 13.746 54.125 13.71 55.1C13.686 55.732 13.692 56.945 13.702 57.713C13.705 58.125 13.71 58.408 13.71 58.408"/>
  <path stroke-width="0.3" stroke-linejoin="round" d="M13.06 58.408C13.06 58.487 13.044 58.271 13.702 57.713"/>
  <path stroke-width="0.3" stroke-linejoin="round" d="M11.987 50.71L11.987 58.408"/>
  <path stroke-width="0.131" stroke-linejoin="round" d="M18.884 49.313L18.884 48.06C18.884 48.06 18.875 47.7 19.37 47.691C19.865 47.682 21.452 47.691 21.452 47.691C21.452 47.691 21.992 47.628 21.983 48.06C21.974 48.493 21.966 49.368 21.966 49.368"/>
  <path stroke-width="0.131" stroke-linejoin="round" d="M17.089 72.817L10.862 72.763"/>
  <path stroke-width="0.3" stroke-linejoin="round" d="M10.862 72.763L10.862 70.456L17.089 70.456L17.089 72.817"/>
  <path stroke-width="0.131" stroke-linejoin="round" d="M23.329 74.879C23.335 74.98 23.282 75.084 23.05 75.088C22.588 75.097 17.9 75.052 17.9 75.052C17.9 75.052 17.612 75.043 17.585 74.801"/>
  <path stroke-width="0.3" stroke-linejoin="round" d="M17.585 74.801C17.557 74.557 17.585 73.376 17.585 73.376C17.585 73.376 17.557 73.278 17.73 73.278L22.137 73.278C22.137 73.278 22.28 73.278 22.379 73.412C22.478 73.548 23.263 74.674 23.263 74.674C23.263 74.674 23.326 74.775 23.329 74.879"/>
  <path stroke-width="0.131" stroke-linejoin="round" d="M17.089 74.855C17.089 74.855 13.403 74.504 10.772 74.066"/>
  <path stroke-width="0.3" stroke-linejoin="round" d="M10.772 74.066L10.772 73.278L17.089 73.278L17.089 74.855"/>
  <path stroke-width="0.131" stroke-linejoin="round" d="M10.249 74.066C10.249 74.066 8.644 73.665 7.78 73.123"/>
  <path stroke-width="0.3" stroke-linejoin="round" d="M7.78 73.123L7.78 72.691C7.78 72.691 8.826 73.125 10.249 73.278L10.249 74.066"/>
  <path stroke-width="0.131" stroke-linejoin="round" d="M22.14 72.704C22.14 72.778 22.103 72.817 22.001 72.817"/>
  <path stroke-width="0.3" stroke-linejoin="round" d="M17.574 72.817L17.574 70.816C17.574 70.816 17.568 70.474 18 70.456C18.432 70.438 21.478 70.456 21.478 70.456C21.478 70.456 21.838 70.528 21.821 70.763C21.803 70.998 21.766 71.7 21.928 72.114C22.03 72.375 22.138 72.584 22.14 72.704"/>
  <path stroke-width="0.131" stroke-linejoin="round" d="M21.928 72.817L17.574 72.817"/>
  <path stroke-width="0.131" stroke-linejoin="round" d="M21.928 72.114L17.574 72.114"/>
  <path stroke-width="0.131" stroke-linejoin="round" d="M22.984 74.272L17.574 74.272"/>
  <path stroke-width="0.131" stroke-linejoin="round" d="M17.089 73.754L13.931 73.278"/>
  <path stroke-width="0.3" stroke-linejoin="round" d="M7.87 72.114L7.87 69.989C7.87 69.989 7.852 69.844 8.141 69.989C8.429 70.132 9.798 70.441 10.023 70.448C10.023 70.448 10.285 70.483 10.285 70.673C10.285 70.861 10.285 72.602 10.285 72.602"/>
  <path stroke-width="0.131" stroke-linejoin="round" d="M10.285 72.602C10.285 72.602 10.303 72.745 10.114 72.736C9.925 72.727 8.492 72.53 7.924 72.25C7.924 72.25 7.87 72.222 7.87 72.114"/>
  <path stroke-width="0.131" stroke-linejoin="round" d="M7.87 70.519C7.87 70.519 8.5 71.313 10.285 71.546"/>
  <path stroke-width="0.3" stroke-linejoin="round" d="M11.907 71.637L11.907 70.73L11.907 70.448"/>
  <path stroke-width="0.131" stroke-linejoin="round" d="M10.862 71.637L11.907 71.637"/>
  <path stroke-width="0.3" stroke-linejoin="round" d="M16.693 70.448L16.693 71.634L17.089 71.637"/>
  <path stroke-width="0.3" stroke-linejoin="round" d="M11.907 71.272L16.693 71.272"/>
  <path stroke-width="0.3" stroke-linejoin="round" d="M11.907 70.73C11.907 70.73 12.164 70.947 12.583 70.974C13.002 71.001 15.814 70.974 15.814 70.974C15.814 70.974 16.111 71.007 16.152 70.456"/>
  <path stroke-width="0.131" stroke-linejoin="round" d="M37.301 71.718C37.301 71.718 37.274 71.834 37.338 71.915C37.402 71.998 37.746 72.403 37.746 72.403C37.746 72.403 37.863 72.492 38.07 72.403C38.277 72.313 40.908 71.177 40.908 71.177C40.908 71.177 41.079 71.114 41.143 71.213C41.207 71.313 42.287 72.763 42.287 72.763C42.287 72.763 42.46 73.025 42.585 72.763L42.585 72.704"/>
  <path stroke-width="0.3" stroke-linejoin="round" d="M42.585 72.704L42.585 69.772L37.338 69.843L37.301 71.718"/>
  <path stroke-width="0.3" stroke-linejoin="round" d="M42.32 73.746C42.338 73.676 42.296 73.611 42.296 73.611C42.296 73.611 41.072 71.989 40.981 71.834C40.89 71.682 40.63 71.778 40.63 71.778C40.63 71.778 38.277 72.826 37.944 72.953C37.61 73.079 37.484 72.879 37.484 72.879L36.817 72.001L36.817 69.677C36.817 69.677 36.659 69.617 36.118 68.861"/>
  <path stroke-width="0.131" stroke-linejoin="round" d="M39.487 75.097C39.487 75.097 41.99 73.962 42.198 73.873C42.277 73.837 42.31 73.792 42.32 73.746"/>
  <path stroke-width="0.131" stroke-linejoin="round" d="M40.249 75.396C40.253 75.441 40.27 75.493 40.31 75.549C40.45 75.737 40.765 76.043 40.765 76.043C40.765 76.043 40.854 76.125 40.936 76.125C41.018 76.125 41.468 76.125 41.468 76.125C41.468 76.125 42.134 75.989 42.225 75.837C42.314 75.683 42.612 75.26 42.585 75.165L42.587 74.448C42.587 74.448 42.59 74.376 42.548 74.323"/>
  <path stroke-width="0.3" stroke-linejoin="round" d="M42.548 74.323C42.505 74.269 42.414 74.234 42.225 74.322L40.31 75.206C40.31 75.206 40.238 75.284 40.249 75.396"/>
  <path stroke-width="0.131" stroke-linejoin="round" d="M42.356 74.277C42.356 74.277 42.493 74.914 40.999 74.888"/>
  <path stroke-width="0.3" stroke-linejoin="round" d="M36.158 73.228L37.033 74.423C37.033 74.423 37.286 74.762 37.808 74.582C38.332 74.403 39.268 73.936 39.268 73.936L39.268 75.26L40.106 76.396L41.35 76.396"/>
  <path stroke-width="0.131" stroke-linejoin="round" d="M41.451 72.483L38.259 73.774L37.781 73.174"/>
  <path stroke-width="0.131" stroke-linejoin="round" d="M36.42 72.98L37.566 74.376C37.566 74.376 38.188 74.575 38.259 73.774"/>
  <path stroke-width="0.131" stroke-linejoin="round" d="M37.323 70.638L37.719 71.168C37.719 71.168 37.799 71.322 38.033 71.213C38.268 71.105 40.847 69.978 40.847 69.978C40.847 69.978 40.972 69.852 41.143 70.078C41.314 70.302 42.325 71.618 42.325 71.618C42.325 71.618 42.468 71.736 42.585 71.519"/>
  <path stroke-width="0.3" stroke-linejoin="round" d="M62.115 61.75L61.601 62.075L59.732 62.075"/>
  <path stroke-width="0.3" stroke-linejoin="round" d="M59.712 63.481L61.673 63.481L62.115 63.256L62.115 67.451L61.493 67.915L59.646 67.915"/>
  <path stroke-width="0.3" stroke-linejoin="round" d="M61.999 64.454L61.999 65.697L61.548 66.022L59.698 66.022"/>
  <path stroke-width="0.131" stroke-linejoin="round" d="M59.698 64.454L61.999 64.454"/>
  <path stroke-width="0.131" stroke-linejoin="round" d="M61.673 60.201L59.762 60.201"/>
  <path stroke-width="0.131" stroke-linejoin="round" d="M61.673 66.293L59.646 66.293"/>
  <path stroke-width="0.131" stroke-linejoin="round" d="M34.96 56.46L34.96 55.631L34.176 55.631C34.176 55.631 34.149 55.262 34.015 55.253C33.88 55.243 33.473 55.253 33.473 55.253C33.473 55.253 33.375 55.289 33.356 55.432C33.338 55.578 33.329 55.649 33.329 55.649L32.6 55.631L32.6 56.451"/>
  <path stroke-width="0.3" stroke-linejoin="round" d="M32.6 56.451L33.356 56.451L33.356 56.856L34.231 56.856L34.231 56.46L34.96 56.46"/>
  <path stroke-width="0.131" stroke-linejoin="round" d="M32.6 55.631L32.969 56.235L33.338 56.235L33.338 55.576L34.17 55.576L34.17 56.235L34.618 56.235L34.96 55.631"/>
  <path stroke-width="0.131" stroke-linejoin="round" d="M32.969 56.235L32.969 56.451"/>
  <path stroke-width="0.131" stroke-linejoin="round" d="M34.618 56.235L34.618 56.46"/>
  <path stroke-width="0.131" stroke-linejoin="round" d="M34.906 54.595L34.906 53.767L34.122 53.767C34.122 53.767 34.095 53.398 33.96 53.387C33.826 53.378 33.42 53.387 33.42 53.387C33.42 53.387 33.32 53.423 33.302 53.569C33.284 53.713 33.276 53.784 33.276 53.784L32.545 53.767L32.545 54.587"/>
  <path stroke-width="0.3" stroke-linejoin="round" d="M32.545 54.587L33.302 54.587L33.302 54.993L34.176 54.993L34.176 54.595L34.906 54.595"/>
  <path stroke-width="0.131" stroke-linejoin="round" d="M32.545 53.767L32.914 54.371L33.284 54.371L33.284 53.712L34.116 53.712L34.116 54.371L34.564 54.371L34.906 53.767"/>
  <path stroke-width="0.131" stroke-linejoin="round" d="M32.914 54.371L32.914 54.587"/>
  <path stroke-width="0.131" stroke-linejoin="round" d="M34.564 54.371L34.564 54.595"/>
  <path stroke-width="0.131" stroke-linejoin="round" d="M34.906 52.765L34.906 51.936L34.122 51.936C34.122 51.936 34.095 51.567 33.96 51.557C33.826 51.548 33.42 51.557 33.42 51.557C33.42 51.557 33.32 51.593 33.302 51.737C33.284 51.881 33.276 51.954 33.276 51.954L32.545 51.936L32.545 52.756"/>
  <path stroke-width="0.3" stroke-linejoin="round" d="M32.545 52.756L33.302 52.756L33.302 53.161L34.176 53.161L34.176 52.765L34.906 52.765"/>
  <path stroke-width="0.131" stroke-linejoin="round" d="M32.545 51.936L32.914 52.539L33.284 52.539L33.284 51.881L34.116 51.881L34.116 52.539L34.564 52.539L34.906 51.936"/>
  <path stroke-width="0.131" stroke-linejoin="round" d="M32.914 52.539L32.914 52.756"/>
  <path stroke-width="0.131" stroke-linejoin="round" d="M34.564 52.539L34.564 52.765"/>
  <path stroke-width="0.131" stroke-linejoin="round" d="M38.079 56.46L38.079 55.631L37.295 55.631C37.295 55.631 37.268 55.262 37.133 55.253C36.997 55.243 36.591 55.253 36.591 55.253C36.591 55.253 36.493 55.289 36.475 55.432C36.457 55.578 36.448 55.649 36.448 55.649L35.718 55.631L35.718 56.451"/>
  <path stroke-width="0.3" stroke-linejoin="round" d="M35.718 56.451L36.475 56.451L36.475 56.856L37.348 56.856L37.348 56.46L38.079 56.46"/>
  <path stroke-width="0.131" stroke-linejoin="round" d="M35.718 55.631L36.088 56.235L36.457 56.235L36.457 55.576L37.289 55.576L37.289 56.235L37.737 56.235L38.079 55.631"/>
  <path stroke-width="0.131" stroke-linejoin="round" d="M36.088 56.235L36.088 56.451"/>
  <path stroke-width="0.131" stroke-linejoin="round" d="M37.737 56.235L37.737 56.46"/>
  <path stroke-width="0.131" stroke-linejoin="round" d="M38.024 54.595L38.024 53.767L37.24 53.767C37.24 53.767 37.213 53.398 37.079 53.387C36.944 53.378 36.537 53.387 36.537 53.387C36.537 53.387 36.439 53.423 36.42 53.569C36.402 53.713 36.393 53.784 36.393 53.784L35.664 53.767L35.664 54.587"/>
  <path stroke-width="0.3" stroke-linejoin="round" d="M35.664 54.587L36.42 54.587L36.42 54.993L37.295 54.993L37.295 54.595L38.024 54.595"/>
  <path stroke-width="0.131" stroke-linejoin="round" d="M35.664 53.767L36.033 54.371L36.402 54.371L36.402 53.712L37.235 53.712L37.235 54.371L37.682 54.371L38.024 53.767"/>
  <path stroke-width="0.131" stroke-linejoin="round" d="M36.033 54.371L36.033 54.587"/>
  <path stroke-width="0.131" stroke-linejoin="round" d="M37.682 54.371L37.682 54.595"/>
  <path stroke-width="0.131" stroke-linejoin="round" d="M38.024 52.765L38.024 51.936L37.24 51.936C37.24 51.936 37.213 51.567 37.079 51.557C36.944 51.548 36.537 51.557 36.537 51.557C36.537 51.557 36.439 51.593 36.42 51.737C36.402 51.881 36.393 51.954 36.393 51.954L35.664 51.936L35.664 52.756"/>
  <path stroke-width="0.3" stroke-linejoin="round" d="M35.664 52.756L36.42 52.756L36.42 53.161L37.295 53.161L37.295 52.765L38.024 52.765"/>
  <path stroke-width="0.131" stroke-linejoin="round" d="M35.664 51.936L36.033 52.539L36.402 52.539L36.402 51.881L37.235 51.881L37.235 52.539L37.682 52.539L38.024 51.936"/>
  <path stroke-width="0.131" stroke-linejoin="round" d="M36.033 52.539L36.033 52.756"/>
  <path stroke-width="0.131" stroke-linejoin="round" d="M37.682 52.539L37.682 52.765"/>
  <path stroke-width="0.131" stroke-linejoin="round" d="M40.783 56.46L40.783 55.631L39.999 55.631C39.999 55.631 39.972 55.262 39.837 55.253C39.701 55.243 39.295 55.253 39.295 55.253C39.295 55.253 39.195 55.289 39.179 55.432C39.161 55.578 39.152 55.649 39.152 55.649L38.421 55.631L38.421 56.451"/>
  <path stroke-width="0.3" stroke-linejoin="round" d="M38.421 56.451L39.179 56.451L39.179 56.856L40.052 56.856L40.052 56.46L40.783 56.46"/>
  <path stroke-width="0.131" stroke-linejoin="round" d="M38.421 55.631L38.79 56.235L39.161 56.235L39.161 55.576L39.993 55.576L39.993 56.235L40.439 56.235L40.783 55.631"/>
  <path stroke-width="0.131" stroke-linejoin="round" d="M38.79 56.235L38.79 56.451"/>
  <path stroke-width="0.131" stroke-linejoin="round" d="M40.439 56.235L40.439 56.46"/>
  <path stroke-width="0.131" stroke-linejoin="round" d="M40.728 54.595L40.728 53.767L39.945 53.767C39.945 53.767 39.917 53.398 39.783 53.387C39.646 53.378 39.241 53.387 39.241 53.387C39.241 53.387 39.142 53.423 39.124 53.569C39.106 53.713 39.097 53.784 39.097 53.784L38.368 53.767L38.368 54.587"/>
  <path stroke-width="0.3" stroke-linejoin="round" d="M38.368 54.587L39.124 54.587L39.124 54.993L39.999 54.993L39.999 54.595L40.728 54.595"/>
  <path stroke-width="0.131" stroke-linejoin="round" d="M38.368 53.767L38.737 54.371L39.106 54.371L39.106 53.712L39.939 53.712L39.939 54.371L40.386 54.371L40.728 53.767"/>
  <path stroke-width="0.131" stroke-linejoin="round" d="M38.737 54.371L38.737 54.587"/>
  <path stroke-width="0.131" stroke-linejoin="round" d="M40.386 54.371L40.386 54.595"/>
  <path stroke-width="0.131" stroke-linejoin="round" d="M40.728 52.765L40.728 51.936L39.945 51.936C39.945 51.936 39.917 51.567 39.783 51.557C39.646 51.548 39.241 51.557 39.241 51.557C39.241 51.557 39.142 51.593 39.124 51.737C39.106 51.881 39.097 51.954 39.097 51.954L38.368 51.936L38.368 52.756"/>
  <path stroke-width="0.3" stroke-linejoin="round" d="M38.368 52.756L39.124 52.756L39.124 53.161L39.999 53.161L39.999 52.765L40.728 52.765"/>
  <path stroke-width="0.131" stroke-linejoin="round" d="M38.368 51.936L38.737 52.539L39.106 52.539L39.106 51.881L39.939 51.881L39.939 52.539L40.386 52.539L40.728 51.936"/>
  <path stroke-width="0.131" stroke-linejoin="round" d="M38.737 52.539L38.737 52.756"/>
  <path stroke-width="0.131" stroke-linejoin="round" d="M40.386 52.539L40.386 52.765"/>
  <path stroke-width="0.131" stroke-linejoin="round" d="M43.343 56.46L43.343 55.631L42.558 55.631C42.558 55.631 42.531 55.262 42.396 55.253C42.261 55.243 41.856 55.253 41.856 55.253C41.856 55.253 41.756 55.289 41.737 55.432C41.72 55.578 41.71 55.649 41.71 55.649L40.981 55.631L40.981 56.451"/>
  <path stroke-width="0.3" stroke-linejoin="round" d="M40.981 56.451L41.737 56.451L41.737 56.856L42.612 56.856L42.612 56.46L43.343 56.46"/>
  <path stroke-width="0.131" stroke-linejoin="round" d="M40.981 55.631L41.35 56.235L41.72 56.235L41.72 55.576L42.552 55.576L42.552 56.235L43 56.235L43.343 55.631"/>
  <path stroke-width="0.131" stroke-linejoin="round" d="M41.35 56.235L41.35 56.451"/>
  <path stroke-width="0.131" stroke-linejoin="round" d="M43 56.235L43 56.46"/>
  <path stroke-width="0.131" stroke-linejoin="round" d="M43.289 54.595L43.289 53.767L42.503 53.767C42.503 53.767 42.478 53.398 42.341 53.387C42.207 53.378 41.801 53.387 41.801 53.387C41.801 53.387 41.701 53.423 41.683 53.569C41.667 53.713 41.656 53.784 41.656 53.784L40.926 53.767L40.926 54.587"/>
  <path stroke-width="0.3" stroke-linejoin="round" d="M40.926 54.587L41.683 54.587L41.683 54.993L42.558 54.993L42.558 54.595L43.289 54.595"/>
  <path stroke-width="0.131" stroke-linejoin="round" d="M40.926 53.767L41.296 54.371L41.667 54.371L41.667 53.712L42.499 53.712L42.499 54.371L42.945 54.371L43.289 53.767"/>
  <path stroke-width="0.131" stroke-linejoin="round" d="M41.296 54.371L41.296 54.587"/>
  <path stroke-width="0.131" stroke-linejoin="round" d="M42.945 54.371L42.945 54.595"/>
  <path stroke-width="0.131" stroke-linejoin="round" d="M43.289 52.765L43.289 51.936L42.503 51.936C42.503 51.936 42.478 51.567 42.341 51.557C42.207 51.548 41.801 51.557 41.801 51.557C41.801 51.557 41.701 51.593 41.683 51.737C41.667 51.881 41.656 51.954 41.656 51.954L40.926 51.936L40.926 52.756"/>
  <path stroke-width="0.3" stroke-linejoin="round" d="M40.926 52.756L41.683 52.756L41.683 53.161L42.558 53.161L42.558 52.765L43.289 52.765"/>
  <path stroke-width="0.131" stroke-linejoin="round" d="M40.926 51.936L41.296 52.539L41.667 52.539L41.667 51.881L42.499 51.881L42.499 52.539L42.945 52.539L43.289 51.936"/>
  <path stroke-width="0.131" stroke-linejoin="round" d="M41.296 52.539L41.296 52.756"/>
  <path stroke-width="0.131" stroke-linejoin="round" d="M42.945 52.539L42.945 52.765"/>
  <path stroke-width="0.131" stroke-linejoin="round" d="M46.045 56.46L46.045 55.631L45.262 55.631C45.262 55.631 45.234 55.262 45.1 55.253C44.965 55.243 44.558 55.253 44.558 55.253C44.558 55.253 44.46 55.289 44.442 55.432C44.423 55.578 44.414 55.649 44.414 55.649L43.685 55.631L43.685 56.451"/>
  <path stroke-width="0.3" stroke-linejoin="round" d="M43.685 56.451L44.442 56.451L44.442 56.856L45.317 56.856L45.317 56.46L46.045 56.46"/>
  <path stroke-width="0.131" stroke-linejoin="round" d="M43.685 55.631L44.054 56.235L44.423 56.235L44.423 55.576L45.256 55.576L45.256 56.235L45.704 56.235L46.045 55.631"/>
  <path stroke-width="0.131" stroke-linejoin="round" d="M44.054 56.235L44.054 56.451"/>
  <path stroke-width="0.131" stroke-linejoin="round" d="M45.704 56.235L45.704 56.46"/>
  <path stroke-width="0.131" stroke-linejoin="round" d="M45.991 54.595L45.991 53.767L45.209 53.767C45.209 53.767 45.18 53.398 45.045 53.387C44.911 53.378 44.505 53.387 44.505 53.387C44.505 53.387 44.405 53.423 44.387 53.569C44.369 53.713 44.36 53.784 44.36 53.784L43.631 53.767L43.631 54.587"/>
  <path stroke-width="0.3" stroke-linejoin="round" d="M43.631 54.587L44.387 54.587L44.387 54.993L45.262 54.993L45.262 54.595L45.991 54.595"/>
  <path stroke-width="0.131" stroke-linejoin="round" d="M43.631 53.767L44 54.371L44.369 54.371L44.369 53.712L45.201 53.712L45.201 54.371L45.649 54.371L45.991 53.767"/>
  <path stroke-width="0.131" stroke-linejoin="round" d="M44 54.371L44 54.587"/>
  <path stroke-width="0.131" stroke-linejoin="round" d="M45.649 54.371L45.649 54.595"/>
  <path stroke-width="0.131" stroke-linejoin="round" d="M45.991 52.765L45.991 51.936L45.209 51.936C45.209 51.936 45.18 51.567 45.045 51.557C44.911 51.548 44.505 51.557 44.505 51.557C44.505 51.557 44.405 51.593 44.387 51.737C44.369 51.881 44.36 51.954 44.36 51.954L43.631 51.936L43.631 52.756"/>
  <path stroke-width="0.3" stroke-linejoin="round" d="M43.631 52.756L44.387 52.756L44.387 53.161L45.262 53.161L45.262 52.765L45.991 52.765"/>
  <path stroke-width="0.131" stroke-linejoin="round" d="M43.631 51.936L44 52.539L44.369 52.539L44.369 51.881L45.201 51.881L45.201 52.539L45.649 52.539L45.991 51.936"/>
  <path stroke-width="0.131" stroke-linejoin="round" d="M44 52.539L44 52.756"/>
  <path stroke-width="0.131" stroke-linejoin="round" d="M45.649 52.539L45.649 52.765"/>
  <path stroke-width="0.131" stroke-linejoin="round" d="M48.713 56.46L48.713 55.631L47.929 55.631C47.929 55.631 47.902 55.262 47.768 55.253C47.631 55.243 47.226 55.253 47.226 55.253C47.226 55.253 47.127 55.289 47.109 55.432C47.091 55.578 47.082 55.649 47.082 55.649L46.351 55.631L46.351 56.451"/>
  <path stroke-width="0.3" stroke-linejoin="round" d="M46.351 56.451L47.109 56.451L47.109 56.856L47.984 56.856L47.984 56.46L48.713 56.46"/>
  <path stroke-width="0.131" stroke-linejoin="round" d="M46.351 55.631L46.722 56.235L47.091 56.235L47.091 55.576L47.923 55.576L47.923 56.235L48.371 56.235L48.713 55.631"/>
  <path stroke-width="0.131" stroke-linejoin="round" d="M46.722 56.235L46.722 56.451"/>
  <path stroke-width="0.131" stroke-linejoin="round" d="M48.371 56.235L48.371 56.46"/>
  <path stroke-width="0.131" stroke-linejoin="round" d="M48.659 54.595L48.659 53.767L47.875 53.767C47.875 53.767 47.848 53.398 47.713 53.387C47.578 53.378 47.173 53.387 47.173 53.387C47.173 53.387 47.073 53.423 47.054 53.569C47.036 53.713 47.027 53.784 47.027 53.784L46.298 53.767L46.298 54.587"/>
  <path stroke-width="0.3" stroke-linejoin="round" d="M46.298 54.587L47.054 54.587L47.054 54.993L47.929 54.993L47.929 54.595L48.659 54.595"/>
  <path stroke-width="0.131" stroke-linejoin="round" d="M46.298 53.767L46.667 54.371L47.036 54.371L47.036 53.712L47.868 53.712L47.868 54.371L48.317 54.371L48.659 53.767"/>
  <path stroke-width="0.131" stroke-linejoin="round" d="M46.667 54.371L46.667 54.587"/>
  <path stroke-width="0.131" stroke-linejoin="round" d="M48.317 54.371L48.317 54.595"/>
  <path stroke-width="0.131" stroke-linejoin="round" d="M48.659 52.765L48.659 51.936L47.875 51.936C47.875 51.936 47.848 51.567 47.713 51.557C47.578 51.548 47.173 51.557 47.173 51.557C47.173 51.557 47.073 51.593 47.054 51.737C47.036 51.881 47.027 51.954 47.027 51.954L46.298 51.936L46.298 52.756"/>
  <path stroke-width="0.3" stroke-linejoin="round" d="M46.298 52.756L47.054 52.756L47.054 53.161L47.929 53.161L47.929 52.765L48.659 52.765"/>
  <path stroke-width="0.131" stroke-linejoin="round" d="M46.298 51.936L46.667 52.539L47.036 52.539L47.036 51.881L47.868 51.881L47.868 52.539L48.317 52.539L48.659 51.936"/>
  <path stroke-width="0.131" stroke-linejoin="round" d="M46.667 52.539L46.667 52.756"/>
  <path stroke-width="0.131" stroke-linejoin="round" d="M48.317 52.539L48.317 52.765"/>
  <path stroke-width="0.131" stroke-linejoin="round" d="M21.207 56.46L21.207 55.631L20.423 55.631C20.423 55.631 20.396 55.262 20.262 55.253C20.126 55.243 19.721 55.253 19.721 55.253C19.721 55.253 19.62 55.289 19.603 55.432C19.585 55.578 19.576 55.649 19.576 55.649L18.847 55.631L18.847 56.451"/>
  <path stroke-width="0.3" stroke-linejoin="round" d="M18.847 56.451L19.603 56.451L19.603 56.856L20.478 56.856L20.478 56.46L21.207 56.46"/>
  <path stroke-width="0.131" stroke-linejoin="round" d="M18.847 55.631L19.216 56.235L19.585 56.235L19.585 55.576L20.417 55.576L20.417 56.235L20.864 56.235L21.207 55.631"/>
  <path stroke-width="0.131" stroke-linejoin="round" d="M19.216 56.235L19.216 56.451"/>
  <path stroke-width="0.131" stroke-linejoin="round" d="M20.864 56.235L20.864 56.46"/>
  <path stroke-width="0.131" stroke-linejoin="round" d="M21.153 54.595L21.153 53.767L20.37 53.767C20.37 53.767 20.343 53.398 20.207 53.387C20.073 53.378 19.667 53.387 19.667 53.387C19.667 53.387 19.567 53.423 19.548 53.569C19.532 53.713 19.522 53.784 19.522 53.784L18.792 53.767L18.792 54.587"/>
  <path stroke-width="0.3" stroke-linejoin="round" d="M18.792 54.587L19.548 54.587L19.548 54.993L20.423 54.993L20.423 54.595L21.153 54.595"/>
  <path stroke-width="0.131" stroke-linejoin="round" d="M18.792 53.767L19.161 54.371L19.532 54.371L19.532 53.712L20.364 53.712L20.364 54.371L20.811 54.371L21.153 53.767"/>
  <path stroke-width="0.131" stroke-linejoin="round" d="M19.161 54.371L19.161 54.587"/>
  <path stroke-width="0.131" stroke-linejoin="round" d="M20.811 54.371L20.811 54.595"/>
  <path stroke-width="0.131" stroke-linejoin="round" d="M21.153 52.765L21.153 51.936L20.37 51.936C20.37 51.936 20.343 51.567 20.207 51.557C20.073 51.548 19.667 51.557 19.667 51.557C19.667 51.557 19.567 51.593 19.548 51.737C19.532 51.881 19.522 51.954 19.522 51.954L18.792 51.936L18.792 52.756"/>
  <path stroke-width="0.3" stroke-linejoin="round" d="M18.792 52.756L19.548 52.756L19.548 53.161L20.423 53.161L20.423 52.765L21.153 52.765"/>
  <path stroke-width="0.131" stroke-linejoin="round" d="M18.792 51.936L19.161 52.539L19.532 52.539L19.532 51.881L20.364 51.881L20.364 52.539L20.811 52.539L21.153 51.936"/>
  <path stroke-width="0.131" stroke-linejoin="round" d="M19.161 52.539L19.161 52.756"/>
  <path stroke-width="0.131" stroke-linejoin="round" d="M20.811 52.539L20.811 52.765"/>
  <path stroke-width="0.131" stroke-linejoin="round" d="M18.585 56.46L18.585 55.631L17.801 55.631C17.801 55.631 17.774 55.262 17.64 55.253C17.504 55.243 17.099 55.253 17.099 55.253C17.099 55.253 16.998 55.289 16.981 55.432C16.963 55.578 16.954 55.649 16.954 55.649L16.225 55.631L16.225 56.451"/>
  <path stroke-width="0.3" stroke-linejoin="round" d="M16.225 56.451L16.981 56.451L16.981 56.856L17.856 56.856L17.856 56.46L18.585 56.46"/>
  <path stroke-width="0.131" stroke-linejoin="round" d="M16.225 55.631L16.594 56.235L16.963 56.235L16.963 55.576L17.795 55.576L17.795 56.235L18.242 56.235L18.585 55.631"/>
  <path stroke-width="0.131" stroke-linejoin="round" d="M16.594 56.235L16.594 56.451"/>
  <path stroke-width="0.131" stroke-linejoin="round" d="M18.242 56.235L18.242 56.46"/>
  <path stroke-width="0.131" stroke-linejoin="round" d="M18.532 54.595L18.532 53.767L17.748 53.767C17.748 53.767 17.721 53.398 17.585 53.387C17.449 53.378 17.045 53.387 17.045 53.387C17.045 53.387 16.945 53.423 16.926 53.569C16.91 53.713 16.899 53.784 16.899 53.784L16.17 53.767L16.17 54.587"/>
  <path stroke-width="0.3" stroke-linejoin="round" d="M16.17 54.587L16.926 54.587L16.926 54.993L17.801 54.993L17.801 54.595L18.532 54.595"/>
  <path stroke-width="0.131" stroke-linejoin="round" d="M16.17 53.767L16.539 54.371L16.91 54.371L16.91 53.712L17.742 53.712L17.742 54.371L18.189 54.371L18.532 53.767"/>
  <path stroke-width="0.131" stroke-linejoin="round" d="M16.539 54.371L16.539 54.587"/>
  <path stroke-width="0.131" stroke-linejoin="round" d="M18.189 54.371L18.189 54.595"/>
  <path stroke-width="0.131" stroke-linejoin="round" d="M18.532 52.765L18.532 51.936L17.748 51.936C17.748 51.936 17.721 51.567 17.585 51.557C17.449 51.548 17.045 51.557 17.045 51.557C17.045 51.557 16.945 51.593 16.926 51.737C16.91 51.881 16.899 51.954 16.899 51.954L16.17 51.936L16.17 52.756"/>
  <path stroke-width="0.3" stroke-linejoin="round" d="M16.17 52.756L16.926 52.756L16.926 53.161L17.801 53.161L17.801 52.765L18.532 52.765"/>
  <path stroke-width="0.131" stroke-linejoin="round" d="M16.17 51.936L16.539 52.539L16.91 52.539L16.91 51.881L17.742 51.881L17.742 52.539L18.189 52.539L18.532 51.936"/>
  <path stroke-width="0.131" stroke-linejoin="round" d="M16.539 52.539L16.539 52.756"/>
  <path stroke-width="0.131" stroke-linejoin="round" d="M18.189 52.539L18.189 52.765"/>
  <path stroke-width="0.131" stroke-linejoin="round" d="M23.911 56.46L23.911 55.631L23.128 55.631C23.128 55.631 23.1 55.262 22.966 55.253C22.83 55.243 22.425 55.253 22.425 55.253C22.425 55.253 22.324 55.289 22.307 55.432C22.289 55.578 22.28 55.649 22.28 55.649L21.55 55.631L21.55 56.451"/>
  <path stroke-width="0.3" stroke-linejoin="round" d="M21.55 56.451L22.307 56.451L22.307 56.856L23.181 56.856L23.181 56.46L23.911 56.46"/>
  <path stroke-width="0.131" stroke-linejoin="round" d="M21.55 55.631L21.92 56.235L22.289 56.235L22.289 55.576L23.121 55.576L23.121 56.235L23.57 56.235L23.911 55.631"/>
  <path stroke-width="0.131" stroke-linejoin="round" d="M21.92 56.235L21.92 56.451"/>
  <path stroke-width="0.131" stroke-linejoin="round" d="M23.57 56.235L23.57 56.46"/>
  <path stroke-width="0.131" stroke-linejoin="round" d="M23.858 54.595L23.858 53.767L23.074 53.767C23.074 53.767 23.047 53.398 22.911 53.387C22.775 53.378 22.37 53.387 22.37 53.387C22.37 53.387 22.271 53.423 22.253 53.569C22.236 53.713 22.225 53.784 22.225 53.784L21.495 53.767L21.495 54.587"/>
  <path stroke-width="0.3" stroke-linejoin="round" d="M21.495 54.587L22.253 54.587L22.253 54.993L23.128 54.993L23.128 54.595L23.858 54.595"/>
  <path stroke-width="0.131" stroke-linejoin="round" d="M21.495 53.767L21.865 54.371L22.236 54.371L22.236 53.712L23.068 53.712L23.068 54.371L23.515 54.371L23.858 53.767"/>
  <path stroke-width="0.131" stroke-linejoin="round" d="M21.865 54.371L21.865 54.587"/>
  <path stroke-width="0.131" stroke-linejoin="round" d="M23.515 54.371L23.515 54.595"/>
  <path stroke-width="0.131" stroke-linejoin="round" d="M23.858 52.765L23.858 51.936L23.074 51.936C23.074 51.936 23.047 51.567 22.911 51.557C22.775 51.548 22.37 51.557 22.37 51.557C22.37 51.557 22.271 51.593 22.253 51.737C22.236 51.881 22.225 51.954 22.225 51.954L21.495 51.936L21.495 52.756"/>
  <path stroke-width="0.3" stroke-linejoin="round" d="M21.495 52.756L22.253 52.756L22.253 53.161L23.128 53.161L23.128 52.765L23.858 52.765"/>
  <path stroke-width="0.131" stroke-linejoin="round" d="M21.495 51.936L21.865 52.539L22.236 52.539L22.236 51.881L23.068 51.881L23.068 52.539L23.515 52.539L23.858 51.936"/>
  <path stroke-width="0.131" stroke-linejoin="round" d="M21.865 52.539L21.865 52.756"/>
  <path stroke-width="0.131" stroke-linejoin="round" d="M23.515 52.539L23.515 52.765"/>
  <path stroke-width="0.131" stroke-linejoin="round" d="M26.472 56.46L26.472 55.631L25.687 55.631C25.687 55.631 25.66 55.262 25.524 55.253C25.39 55.243 24.984 55.253 24.984 55.253C24.984 55.253 24.885 55.289 24.867 55.432C24.849 55.578 24.839 55.649 24.839 55.649L24.109 55.631L24.109 56.451"/>
  <path stroke-width="0.3" stroke-linejoin="round" d="M24.109 56.451L24.867 56.451L24.867 56.856L25.742 56.856L25.742 56.46L26.472 56.46"/>
  <path stroke-width="0.131" stroke-linejoin="round" d="M24.109 55.631L24.48 56.235L24.849 56.235L24.849 55.576L25.681 55.576L25.681 56.235L26.129 56.235L26.472 55.631"/>
  <path stroke-width="0.131" stroke-linejoin="round" d="M24.48 56.235L24.48 56.451"/>
  <path stroke-width="0.131" stroke-linejoin="round" d="M26.129 56.235L26.129 56.46"/>
  <path stroke-width="0.131" stroke-linejoin="round" d="M26.417 54.595L26.417 53.767L25.632 53.767C25.632 53.767 25.606 53.398 25.472 53.387C25.335 53.378 24.931 53.387 24.931 53.387C24.931 53.387 24.83 53.423 24.812 53.569C24.795 53.713 24.786 53.784 24.786 53.784L24.056 53.767L24.056 54.587"/>
  <path stroke-width="0.3" stroke-linejoin="round" d="M24.056 54.587L24.812 54.587L24.812 54.993L25.687 54.993L25.687 54.595L26.417 54.595"/>
  <path stroke-width="0.131" stroke-linejoin="round" d="M24.056 53.767L24.425 54.371L24.795 54.371L24.795 53.712L25.628 53.712L25.628 54.371L26.074 54.371L26.417 53.767"/>
  <path stroke-width="0.131" stroke-linejoin="round" d="M24.425 54.371L24.425 54.587"/>
  <path stroke-width="0.131" stroke-linejoin="round" d="M26.074 54.371L26.074 54.595"/>
  <path stroke-width="0.131" stroke-linejoin="round" d="M26.417 52.765L26.417 51.936L25.632 51.936C25.632 51.936 25.606 51.567 25.472 51.557C25.335 51.548 24.931 51.557 24.931 51.557C24.931 51.557 24.83 51.593 24.812 51.737C24.795 51.881 24.786 51.954 24.786 51.954L24.056 51.936L24.056 52.756"/>
  <path stroke-width="0.3" stroke-linejoin="round" d="M24.056 52.756L24.812 52.756L24.812 53.161L25.687 53.161L25.687 52.765L26.417 52.765"/>
  <path stroke-width="0.131" stroke-linejoin="round" d="M24.056 51.936L24.425 52.539L24.795 52.539L24.795 51.881L25.628 51.881L25.628 52.539L26.074 52.539L26.417 51.936"/>
  <path stroke-width="0.131" stroke-linejoin="round" d="M24.425 52.539L24.425 52.756"/>
  <path stroke-width="0.131" stroke-linejoin="round" d="M26.074 52.539L26.074 52.765"/>
  <path stroke-width="0.131" stroke-linejoin="round" d="M29.175 56.46L29.175 55.631L28.39 55.631C28.39 55.631 28.364 55.262 28.228 55.253C28.094 55.243 27.687 55.253 27.687 55.253C27.687 55.253 27.588 55.289 27.571 55.432C27.553 55.578 27.544 55.649 27.544 55.649L26.814 55.631L26.814 56.451"/>
  <path stroke-width="0.3" stroke-linejoin="round" d="M26.814 56.451L27.571 56.451L27.571 56.856L28.445 56.856L28.445 56.46L29.175 56.46"/>
  <path stroke-width="0.131" stroke-linejoin="round" d="M26.814 55.631L27.182 56.235L27.553 56.235L27.553 55.576L28.385 55.576L28.385 56.235L28.832 56.235L29.175 55.631"/>
  <path stroke-width="0.131" stroke-linejoin="round" d="M27.182 56.235L27.182 56.451"/>
  <path stroke-width="0.131" stroke-linejoin="round" d="M28.832 56.235L28.832 56.46"/>
  <path stroke-width="0.131" stroke-linejoin="round" d="M29.12 54.595L29.12 53.767L28.336 53.767C28.336 53.767 28.309 53.398 28.175 53.387C28.039 53.378 27.634 53.387 27.634 53.387C27.634 53.387 27.533 53.423 27.516 53.569C27.498 53.713 27.489 53.784 27.489 53.784L26.76 53.767L26.76 54.587"/>
  <path stroke-width="0.3" stroke-linejoin="round" d="M26.76 54.587L27.516 54.587L27.516 54.993L28.39 54.993L28.39 54.595L29.12 54.595"/>
  <path stroke-width="0.131" stroke-linejoin="round" d="M26.76 53.767L27.129 54.371L27.498 54.371L27.498 53.712L28.33 53.712L28.33 54.371L28.778 54.371L29.12 53.767"/>
  <path stroke-width="0.131" stroke-linejoin="round" d="M27.129 54.371L27.129 54.587"/>
  <path stroke-width="0.131" stroke-linejoin="round" d="M28.778 54.371L28.778 54.595"/>
  <path stroke-width="0.131" stroke-linejoin="round" d="M29.12 52.765L29.12 51.936L28.336 51.936C28.336 51.936 28.309 51.567 28.175 51.557C28.039 51.548 27.634 51.557 27.634 51.557C27.634 51.557 27.533 51.593 27.516 51.737C27.498 51.881 27.489 51.954 27.489 51.954L26.76 51.936L26.76 52.756"/>
  <path stroke-width="0.3" stroke-linejoin="round" d="M26.76 52.756L27.516 52.756L27.516 53.161L28.39 53.161L28.39 52.765L29.12 52.765"/>
  <path stroke-width="0.131" stroke-linejoin="round" d="M26.76 51.936L27.129 52.539L27.498 52.539L27.498 51.881L28.33 51.881L28.33 52.539L28.778 52.539L29.12 51.936"/>
  <path stroke-width="0.131" stroke-linejoin="round" d="M27.129 52.539L27.129 52.756"/>
  <path stroke-width="0.131" stroke-linejoin="round" d="M28.778 52.539L28.778 52.765"/>
  <path stroke-width="0.131" stroke-linejoin="round" d="M31.843 56.46L31.843 55.631L31.059 55.631C31.059 55.631 31.032 55.262 30.896 55.253C30.76 55.243 30.356 55.253 30.356 55.253C30.356 55.253 30.256 55.289 30.237 55.432C30.219 55.578 30.21 55.649 30.21 55.649L29.481 55.631L29.481 56.451"/>
  <path stroke-width="0.3" stroke-linejoin="round" d="M29.481 56.451L30.237 56.451L30.237 56.856L31.112 56.856L31.112 56.46L31.843 56.46"/>
  <path stroke-width="0.131" stroke-linejoin="round" d="M29.481 55.631L29.85 56.235L30.219 56.235L30.219 55.576L31.053 55.576L31.053 56.235L31.5 56.235L31.843 55.631"/>
  <path stroke-width="0.131" stroke-linejoin="round" d="M29.85 56.235L29.85 56.451"/>
  <path stroke-width="0.131" stroke-linejoin="round" d="M31.5 56.235L31.5 56.46"/>
  <path stroke-width="0.131" stroke-linejoin="round" d="M31.789 54.595L31.789 53.767L31.004 53.767C31.004 53.767 30.978 53.398 30.841 53.387C30.707 53.378 30.301 53.387 30.301 53.387C30.301 53.387 30.202 53.423 30.184 53.569C30.167 53.713 30.157 53.784 30.157 53.784L29.426 53.767L29.426 54.587"/>
  <path stroke-width="0.3" stroke-linejoin="round" d="M29.426 54.587L30.184 54.587L30.184 54.993L31.059 54.993L31.059 54.595L31.789 54.595"/>
  <path stroke-width="0.131" stroke-linejoin="round" d="M29.426 53.767L29.797 54.371L30.167 54.371L30.167 53.712L30.998 53.712L30.998 54.371L31.446 54.371L31.789 53.767"/>
  <path stroke-width="0.131" stroke-linejoin="round" d="M29.797 54.371L29.797 54.587"/>
  <path stroke-width="0.131" stroke-linejoin="round" d="M31.446 54.371L31.446 54.595"/>
  <path stroke-width="0.131" stroke-linejoin="round" d="M31.789 52.765L31.789 51.936L31.004 51.936C31.004 51.936 30.978 51.567 30.841 51.557C30.707 51.548 30.301 51.557 30.301 51.557C30.301 51.557 30.202 51.593 30.184 51.737C30.167 51.881 30.157 51.954 30.157 51.954L29.426 51.936L29.426 52.756"/>
  <path stroke-width="0.3" stroke-linejoin="round" d="M29.426 52.756L30.184 52.756L30.184 53.161L31.059 53.161L31.059 52.765L31.789 52.765"/>
  <path stroke-width="0.131" stroke-linejoin="round" d="M29.426 51.936L29.797 52.539L30.167 52.539L30.167 51.881L30.998 51.881L30.998 52.539L31.446 52.539L31.789 51.936"/>
  <path stroke-width="0.131" stroke-linejoin="round" d="M29.797 52.539L29.797 52.756"/>
  <path stroke-width="0.131" stroke-linejoin="round" d="M31.446 52.539L31.446 52.765"/>
  <path stroke-width="0.131" stroke-linejoin="round" d="M51.417 56.46L51.417 55.631L50.633 55.631C50.633 55.631 50.606 55.262 50.472 55.253C50.335 55.243 49.93 55.253 49.93 55.253C49.93 55.253 49.831 55.289 49.813 55.432C49.795 55.578 49.786 55.649 49.786 55.649L49.055 55.631L49.055 56.451"/>
  <path stroke-width="0.3" stroke-linejoin="round" d="M49.055 56.451L49.813 56.451L49.813 56.856L50.688 56.856L50.688 56.46L51.417 56.46"/>
  <path stroke-width="0.131" stroke-linejoin="round" d="M49.055 55.631L49.426 56.235L49.795 56.235L49.795 55.576L50.628 55.576L50.628 56.235L51.075 56.235L51.417 55.631"/>
  <path stroke-width="0.131" stroke-linejoin="round" d="M49.426 56.235L49.426 56.451"/>
  <path stroke-width="0.131" stroke-linejoin="round" d="M51.075 56.235L51.075 56.46"/>
  <path stroke-width="0.131" stroke-linejoin="round" d="M51.362 54.595L51.362 53.767L50.579 53.767C50.579 53.767 50.552 53.398 50.417 53.387C50.281 53.378 49.877 53.387 49.877 53.387C49.877 53.387 49.777 53.423 49.759 53.569C49.74 53.713 49.731 53.784 49.731 53.784L49.002 53.767L49.002 54.587"/>
  <path stroke-width="0.3" stroke-linejoin="round" d="M49.002 54.587L49.759 54.587L49.759 54.993L50.633 54.993L50.633 54.595L51.362 54.595"/>
  <path stroke-width="0.131" stroke-linejoin="round" d="M49.002 53.767L49.371 54.371L49.74 54.371L49.74 53.712L50.573 53.712L50.573 54.371L51.021 54.371L51.362 53.767"/>
  <path stroke-width="0.131" stroke-linejoin="round" d="M49.371 54.371L49.371 54.587"/>
  <path stroke-width="0.131" stroke-linejoin="round" d="M51.021 54.371L51.021 54.595"/>
  <path stroke-width="0.131" stroke-linejoin="round" d="M51.362 52.765L51.362 51.936L50.579 51.936C50.579 51.936 50.552 51.567 50.417 51.557C50.281 51.548 49.877 51.557 49.877 51.557C49.877 51.557 49.777 51.593 49.759 51.737C49.74 51.881 49.731 51.954 49.731 51.954L49.002 51.936L49.002 52.756"/>
  <path stroke-width="0.3" stroke-linejoin="round" d="M49.002 52.756L49.759 52.756L49.759 53.161L50.633 53.161L50.633 52.765L51.362 52.765"/>
  <path stroke-width="0.131" stroke-linejoin="round" d="M49.002 51.936L49.371 52.539L49.74 52.539L49.74 51.881L50.573 51.881L50.573 52.539L51.021 52.539L51.362 51.936"/>
  <path stroke-width="0.131" stroke-linejoin="round" d="M49.371 52.539L49.371 52.756"/>
  <path stroke-width="0.131" stroke-linejoin="round" d="M51.021 52.539L51.021 52.765"/>
  <path stroke-width="0.131" stroke-linejoin="round" d="M5.58 56.875C5.58 56.875 6.681 57.21 6.756 57.895"/>
  <path stroke-width="0.131" stroke-linejoin="round" d="M5.958 56.749L7.256 56.749"/>
  <path stroke-width="0.131" stroke-linejoin="round" d="M6.269 69.501C6.269 69.501 6.094 71.313 7.216 71.974"/>
  <path stroke-width="0.131" stroke-linejoin="round" d="M36.539 72.275C36.72 72.155 36.948 72.165 37.067 72.305C37.197 72.459 37.149 72.713 36.96 72.871C36.771 73.03 36.514 73.033 36.384 72.879C36.365 72.858 36.35 72.834 36.338 72.808"/>
  <path stroke-width="0.131" stroke-linejoin="round" d="M29.4 69.772L29.4 69.15C29.4 69.15 29.387 68.704 29.603 68.602"/>
  <path stroke-width="0.131" stroke-linejoin="round" d="M30.137 69.772L30.137 69.15C30.137 69.15 30.15 68.704 29.934 68.602"/>
  <path stroke-width="0.3" stroke-linejoin="round" d="M27.481 70.259L27.44 70.259C27.44 70.259 27.381 70.778 28.445 71.058"/>
  <path stroke-width="0.131" stroke-linejoin="round" d="M28.527 70.539L27.481 70.259"/>
  <path stroke-width="0.3" stroke-linejoin="round" d="M32.119 70.259C32.119 70.259 32.179 70.778 31.115 71.058"/>
  <path stroke-width="0.131" stroke-linejoin="round" d="M31.033 70.539L32.079 70.259L32.119 70.259"/>
  <path stroke-width="0.131" stroke-linejoin="round" d="M36.746 72.98L37.865 74.381"/>
  <path stroke-width="0.131" stroke-linejoin="round" d="M37.07 72.816L38.146 74.165"/>
  <path stroke-width="0.131" stroke-linejoin="round" d="M61.493 67.915L62.222 68.861L62.115 77.706"/>
  <path stroke-width="0.131" stroke-linejoin="round" d="M64.007 63.417C64.007 63.417 64.191 70.391 64.016 77.477"/>
  <path stroke-width="0.131" stroke-linejoin="round" d="M64.522 63.417C64.522 63.417 64.704 70.373 64.533 77.45"/>
  <path stroke-width="0.131" stroke-linejoin="round" d="M68.28 63.85C68.28 63.85 68.32 76.584 68.28 77.287"/>
  <path stroke-width="0.131" stroke-linejoin="round" d="M56.545 77.612L56.545 74.855L58.933 74.855L58.933 77.706"/>
  <path stroke-width="0.3" stroke-linejoin="round" d="M57.185 77.706L57.185 76.281L58.338 76.281L58.338 77.649"/>
  <path stroke-width="0.131" stroke-linejoin="round" d="M56.951 75.522L58.537 75.522"/>
  <path stroke-width="0.3" stroke-linejoin="round" d="M67.802 67.266L67.802 68.727L65.063 68.727L65.063 67.266"/>
  <path stroke-width="0.131" stroke-linejoin="round" d="M65.063 67.266L67.802 67.266"/>
  <path stroke-width="0.131" stroke-linejoin="round" d="M67.802 67.915L65.063 67.915"/>
  <path stroke-width="0.131" stroke-linejoin="round" d="M59.576 50.106L61.348 50.106"/>
  <path stroke-width="0.131" stroke-linejoin="round" d="M6.756 60.47L57.978 60.47"/>
  <path stroke-width="0.131" stroke-linejoin="round" d="M6.756 61.012L57.978 61.012"/>
  <path stroke-width="0.131" stroke-linejoin="round" d="M34.524 63.796L33.171 63.796"/>
  <path stroke-width="0.3" stroke-linejoin="round" d="M33.171 63.796L33.171 62.783L34.524 62.783L34.524 63.796"/>
  <path stroke-width="0.131" stroke-linejoin="round" d="M33.171 63.289L34.524 63.289"/>
  <path stroke-width="0.131" stroke-linejoin="round" d="M22.559 48.79L31.5 48.79"/>
  <path stroke-width="0.131" stroke-linejoin="round" d="M35.718 48.79L44.676 48.79"/>
  <path stroke-width="0.3" stroke-linejoin="round" d="M64.981 63.912L64.981 63.417L67.712 63.417L67.712 63.968L64.981 63.968L64.981 63.912z"/>
  <path stroke-width="0.3" stroke-linejoin="round" d="M10.105 50.765C10.105 50.765 10.069 51.026 10.159 51.026C10.249 51.026 11.493 51.026 11.493 51.026L11.987 51.405"/>
  <path stroke-width="0.131" stroke-linejoin="round" d="M11.987 51.125L11.493 50.765L10.105 50.765"/>
  <path stroke-width="0.3" stroke-linejoin="round" d="M10.185 55.811C10.185 55.811 10.15 56.073 10.24 56.073C10.33 56.073 11.573 56.073 11.573 56.073L11.987 56.389"/>
  <path stroke-width="0.131" stroke-linejoin="round" d="M11.987 56.112L11.573 55.811L10.185 55.811"/>
  <path stroke-width="0.3" stroke-linejoin="round" d="M10.098 51.405L10.098 51.99C10.098 51.99 10.195 52.188 10.483 52.21C10.772 52.234 11.493 52.21 11.493 52.21L11.987 52.585"/>
  <path stroke-width="0.131" stroke-linejoin="round" d="M11.987 51.801L11.484 51.405L10.098 51.405"/>
  <path stroke-width="0.3" stroke-linejoin="round" d="M10.646 52.731C10.618 52.78 10.618 52.845 10.727 52.909L11.51 52.909L11.987 53.273"/>
  <path stroke-width="0.131" stroke-linejoin="round" d="M11.987 52.959L11.528 52.648L10.727 52.648C10.727 52.648 10.673 52.682 10.646 52.731"/>
  <path stroke-width="0.3" stroke-linejoin="round" d="M10.179 54.765C10.176 54.936 10.179 55.334 10.179 55.334L11.583 55.334L11.987 55.658"/>
  <path stroke-width="0.131" stroke-linejoin="round" d="M11.987 54.936L11.573 54.595L10.33 54.595C10.33 54.595 10.179 54.595 10.179 54.765"/>
  <path stroke-width="0.3" stroke-linejoin="round" d="M10.63 53.384L10.63 53.909L11.528 53.909L11.987 54.305"/>
  <path stroke-width="0.131" stroke-linejoin="round" d="M11.987 53.712L11.528 53.384L10.63 53.384"/>
  <path stroke-width="0.3" stroke-linejoin="round" d="M32.311 59.578L35.429 59.578"/>
  <path stroke-width="0.3" stroke-linejoin="round" d="M45.493 59.582L48.625 59.582"/>
  <path stroke-width="0.131" stroke-linejoin="round" d="M48.893 48.79L51.362 48.886L52.896 49.371"/>
  <path stroke-width="0.131" stroke-linejoin="round" d="M52.896 49.79L52.896 53.292"/>
  <path stroke-width="0.131" stroke-linejoin="round" d="M18.242 48.79L15.975 48.79L14.791 49.133L11.083 49.133C11.083 49.133 10.646 49.115 10.556 49.637"/>
  <path stroke-width="0.131" stroke-linejoin="round" d="M52.192 56L53.13 56L53.689 56.451L53.689 58.036"/>
  <path stroke-width="0.131" stroke-linejoin="round" d="M15.827 57.118L15.827 58.704"/>
  <path stroke-width="0.131" stroke-linejoin="round" d="M6.168 61.524L6.168 68.623"/>
  <path stroke-width="0.131" stroke-linejoin="round" d="M59.195 62.075L59.113 68.861"/>
  <path stroke-width="0.131" stroke-linejoin="round" d="M18.559 58.759L18.559 59.213C18.559 59.213 18.585 59.875 19.504 59.875"/>
  <path stroke-width="0.131" stroke-linejoin="round" d="M22.812 58.759L22.812 59.213C22.812 59.213 22.785 59.875 21.865 59.875"/>
  <path stroke-width="0.131" stroke-linejoin="round" d="M31.745 58.759L31.745 59.213C31.745 59.213 31.771 59.875 32.691 59.875"/>
  <path stroke-width="0.131" stroke-linejoin="round" d="M35.997 58.759L35.997 59.213C35.997 59.213 35.969 59.875 35.051 59.875"/>
  <path stroke-width="0.131" stroke-linejoin="round" d="M44.932 58.759L44.932 59.213C44.932 59.213 44.96 59.875 45.878 59.875"/>
  <path stroke-width="0.131" stroke-linejoin="round" d="M49.185 58.759L49.185 59.213C49.185 59.213 49.158 59.875 48.24 59.875"/>
  <path stroke-width="0.131" stroke-linejoin="round" d="M56.707 51.259C56.707 51.259 56.329 51.237 55.978 51.259C55.625 51.281 55.558 51.552 55.558 51.552L55.578 52.539"/>
  <path stroke-width="0.3" stroke-linejoin="round" d="M55.359 52.756L55.578 52.539L55.829 52.292C55.829 52.292 56.316 52.292 56.509 52.292C56.704 52.292 56.707 52.034 56.707 52.034L56.707 51.259"/>
  <path stroke-width="0.3" stroke-linejoin="round" d="M56.707 54.595L56.707 55.049L55.923 55.049L55.362 55.469"/>
  <path stroke-width="0.131" stroke-linejoin="round" d="M55.359 54.993L55.896 54.595L56.707 54.595"/>
  <path stroke-width="0.131" stroke-linejoin="round" d="M59.204 54.09L57.06 54.09L57.06 52.81L59.204 52.81L59.204 54.09z"/>
  <path stroke-width="0.131" stroke-linejoin="round" d="M54.807 72.483L49.524 72.483L49.524 69.772L54.807 69.825L54.807 72.483z"/>
  <path stroke-width="0.131" stroke-linejoin="round" d="M52.192 57.171L52.192 58.493"/>
  <path stroke-width="0.3" stroke-linejoin="round" d="M51.878 55.207L51.932 55.198L53.896 55.249C53.896 55.249 54.167 55.218 54.176 54.993C54.185 54.765 54.176 53.918 54.176 53.918"/>
  <path stroke-width="0.131" stroke-linejoin="round" d="M54.176 53.918C54.176 53.918 54.194 53.703 53.843 53.712C53.49 53.72 51.878 53.71 51.878 53.71L51.878 55.207"/>
  <path stroke-width="0.131" stroke-linejoin="round" d="M54.843 49.439L54.771 57.904"/>
  <path stroke-width="0.3" stroke-linejoin="round" d="M8.121 47.06L8.121 47.966L6.554 47.966L6.554 47.06"/>
  <path stroke-width="0.131" stroke-linejoin="round" d="M6.554 47.06L8.121 47.06"/>
  <path stroke-width="0.131" stroke-linejoin="round" d="M6.554 47.573L8.121 47.573"/>
  <path stroke-width="0.3" stroke-linejoin="round" d="M8.352 58.822L8.352 59.673L6.838 59.673L6.756 58.822"/>
  <path stroke-width="0.131" stroke-linejoin="round" d="M6.756 58.822L8.352 58.822"/>
  <path stroke-width="0.131" stroke-linejoin="round" d="M58.262 47.844C58.262 48.151 57.869 48.399 57.387 48.399C56.902 48.399 56.509 48.151 56.509 47.844C56.509 47.539 56.902 47.29 57.387 47.29C57.869 47.29 58.262 47.539 58.262 47.844z"/>
  <path stroke-width="0.131" stroke-linejoin="round" d="M54.341 55.469C54.341 55.469 54.246 55.561 53.95 55.576C53.652 55.591 52.192 55.576 52.192 55.576L52.192 56.494C52.192 56.494 52.139 57.406 50.661 57.442L17.089 57.442C17.089 57.442 15.881 57.387 15.855 56.509C15.855 56.509 15.855 56.122 15.503 56.1"/>
  <path stroke-width="0.131" stroke-linejoin="round" d="M16.539 48.015L16.539 47.128L18.099 47.128L18.099 48.015"/>
  <path stroke-width="0.131" stroke-linejoin="round" d="M16.76 58.759L16.76 59.78L18.343 59.78L18.343 58.759"/>
  <path stroke-width="0.131" stroke-linejoin="round" d="M16.76 59.588L17.193 59.317L17.998 59.317L18.343 59.578"/>
  <path stroke-width="0.131" stroke-linejoin="round" d="M16.539 47.746L16.926 47.572L17.739 47.572L18.099 47.746"/>
  <path stroke-width="0.131" stroke-linejoin="round" d="M59.534 49.703L61.348 49.703"/>
  <path stroke-width="0.131" stroke-linejoin="round" d="M63.404 64.04C63.404 64.04 63.566 75.503 63.475 77.287"/>
  <path stroke-width="0.131" stroke-linejoin="round" d="M65.221 69.609C65.233 71.879 65.228 74.581 65.17 76.802"/>
  <path stroke-width="0.131" stroke-linejoin="round" d="M65.17 64.906C65.17 64.906 65.182 65.549 65.194 66.581"/>
  <path stroke-width="0.131" stroke-linejoin="round" d="M67.825 69.465C67.837 71.724 67.831 74.406 67.774 76.611"/>
  <path stroke-width="0.131" stroke-linejoin="round" d="M67.774 64.715C67.774 64.715 67.786 65.409 67.799 66.51"/>
  <path stroke-width="0.131" stroke-linejoin="round" d="M19.216 48.643L21.55 48.643"/>
  <path stroke-width="0.131" stroke-linejoin="round" d="M19.216 48.399L21.55 48.399"/>
  <path stroke-width="0.131" stroke-linejoin="round" d="M32.482 48.651L34.817 48.651"/>
  <path stroke-width="0.131" stroke-linejoin="round" d="M32.482 48.405L34.817 48.405"/>
  <path stroke-width="0.131" stroke-linejoin="round" d="M45.676 48.651L48.011 48.651"/>
  <path stroke-width="0.131" stroke-linejoin="round" d="M45.676 48.405L48.011 48.405"/>
 </g>
 <g id="A4_x0020_half_x0020_frame">
  <path stroke="#FFFFFF" stroke-width="0.006" d="M75.003 81.093L0.003 81.093L0.003 0.003L75.003 0.003L75.003 81.093z"/>
 </g>
 <g id="Blow-up">
  <path stroke="#FFFFFF" stroke-width="1.058" stroke-linejoin="round" fill="#FFFFFF" d="M56.509 32.31L39.692 32.31 36.137 46.859 32.524 32.31 18.099 32.31 18.099 3 56.509 3 56.509 32.31z"/>
  <path stroke-width="0.3" stroke-linejoin="round" d="M56.509 32.31L39.692 32.31L36.137 46.859L32.524 32.31L18.099 32.31L18.099 3L56.509 3L56.509 32.31z"/>
  <g>
   <g>
    <path stroke-width="0.12" id="AUTOID_1613" d="M32.475 21.89L33.459 23.228"/>
    <path stroke-width="0.12" id="AUTOID_1614" d="M33.459 23.228L33.841 22.948"/>
    <path stroke-width="0.12" id="AUTOID_1615" d="M33.841 22.948C34.219 23.26 34.671 23.074 35.435 22.513C36.201 21.951 36.804 20.769 37.283 20.419C37.759 20.068 39.838 18.689 40.527 18.623C41.215 18.559 48.427 13.553 50.103 12.026C51.777 10.5 52.612 10.035 51.418 8.41"/>
    <path stroke-width="0.12" id="AUTOID_1616" d="M31.946 20.367C31.76 19.914 32.072 19.538 32.835 18.977C33.6 18.414 34.908 18.19 35.386 17.838C35.863 17.487 37.799 15.916 38.067 15.278C38.335 14.641 45.265 9.252 47.223 8.108C49.179 6.964 49.872 6.307 51.067 7.932"/>
    <path stroke-width="0.12" id="AUTOID_1617" d="M32.475 21.89L31.492 20.553"/>
    <path stroke-width="0.12" id="AUTOID_1618" d="M31.492 20.553L31.875 20.271"/>
    <path stroke-width="0.12" id="AUTOID_1619" d="M51.418 8.41L51.067 7.932"/>
    <g>
     <path stroke-width="0.12" id="AUTOID_1620" d="M41.274 16.007L41.847 15.586"/>
     <path stroke-width="0.12" id="AUTOID_1621" d="M41.945 14.763L42.508 14.35"/>
     <path stroke-width="0.12" id="AUTOID_1622" d="M43.734 13.596L44.253 13.214"/>
     <path stroke-width="0.12" id="AUTOID_1623" d="M43.951 13.893L44.439 13.535"/>
     <path stroke-width="0.12" id="AUTOID_1624" d="M44.609 14.211L44.578 14.083"/>
     <path stroke-width="0.12" id="AUTOID_1625" d="M44.439 13.535L44.18 12.516"/>
     <path stroke-width="0.12" id="AUTOID_1626" d="M44.18 12.516L44.924 11.97"/>
     <path stroke-width="0.12" id="AUTOID_1627" d="M44.924 11.97L46.052 12.593"/>
     <path stroke-width="0.12" id="AUTOID_1628" d="M46.052 12.593L45.344 11.628"/>
     <path stroke-width="0.12" id="AUTOID_1629" d="M45.344 11.628L45.979 11.16"/>
     <path stroke-width="0.12" id="AUTOID_1630" d="M45.979 11.16L47.048 11.436"/>
     <path stroke-width="0.12" id="AUTOID_1631" d="M47.048 11.436L46.534 10.737"/>
     <path stroke-width="0.12" id="AUTOID_1632" d="M46.534 10.737L47.033 10.369"/>
     <path stroke-width="0.12" id="AUTOID_1633" d="M47.033 10.369L48.015 11.708"/>
     <path stroke-width="0.12" id="AUTOID_1634" d="M44.609 14.211L45.145 13.817"/>
     <path stroke-width="0.12" id="AUTOID_1635" d="M45.936 13.236L46.807 12.596"/>
     <path stroke-width="0.12" id="AUTOID_1636" d="M47.399 12.16L48.015 11.708"/>
     <path stroke-width="0.12" id="AUTOID_1637" d="M48.133 11.621L49.055 10.942"/>
     <path stroke-width="0.12" id="AUTOID_1638" d="M49.926 10.303L50.412 9.945"/>
     <path stroke-width="0.12" id="AUTOID_1639" d="M45.145 13.817L45.084 13.583"/>
     <path stroke-width="0.12" id="AUTOID_1640" d="M44.963 13.118L44.811 12.526"/>
     <path stroke-width="0.12" id="AUTOID_1641" d="M44.811 12.526L45.326 12.85"/>
     <path stroke-width="0.12" id="AUTOID_1642" d="M45.732 13.106L45.936 13.236"/>
     <path stroke-width="0.12" id="AUTOID_1643" d="M44.966 13.115L45.326 12.85"/>
     <path stroke-width="0.12" id="AUTOID_1644" d="M45.084 13.583L45.74 13.102"/>
     <path stroke-width="0.12" id="AUTOID_1645" d="M46.807 12.596L46.244 11.832"/>
     <path stroke-width="0.12" id="AUTOID_1646" d="M46.244 11.832L47.399 12.16"/>
     <path stroke-width="0.12" id="AUTOID_1647" d="M48.133 11.621L47.142 10.274"/>
     <path stroke-width="0.12" id="AUTOID_1648" d="M47.142 10.274L47.651 9.9"/>
     <path stroke-width="0.12" id="AUTOID_1649" d="M47.651 9.9L48.377 10.887"/>
     <path stroke-width="0.12" id="AUTOID_1650" d="M48.377 10.887L48.097 9.571"/>
     <path stroke-width="0.12" id="AUTOID_1651" d="M48.097 9.571L48.807 9.05"/>
     <path stroke-width="0.12" id="AUTOID_1652" d="M48.807 9.05L50.412 9.945"/>
     <path stroke-width="0.12" id="AUTOID_1653" d="M49.055 10.942L48.993 10.693"/>
     <path stroke-width="0.12" id="AUTOID_1654" d="M48.887 10.265L48.74 9.67"/>
     <path stroke-width="0.12" id="AUTOID_1655" d="M48.74 9.67L49.295 9.965"/>
     <path stroke-width="0.12" id="AUTOID_1656" d="M49.689 10.182L49.951 10.317"/>
     <path stroke-width="0.12" id="AUTOID_1657" d="M48.887 10.265L49.295 9.965"/>
     <path stroke-width="0.12" id="AUTOID_1658" d="M48.993 10.693L49.689 10.182"/>
     <path stroke-width="0.12" id="AUTOID_1659" d="M42.508 14.35C42.387 14.189 42.155 14.089 41.841 14.215C41.526 14.342 41.048 14.731 40.962 14.881C40.875 15.032 40.759 15.314 40.939 15.568C41.121 15.824 41.554 15.625 41.6 15.589C41.648 15.556 42.168 15.08 42.283 15.175C42.398 15.269 42.423 15.4 42.326 15.484C42.231 15.568 42.1 15.705 41.981 15.679C41.865 15.653 41.884 15.618 41.847 15.586"/>
     <path stroke-width="0.12" id="AUTOID_1660" d="M41.274 16.007C41.399 16.219 41.619 16.341 41.874 16.239C42.128 16.138 42.645 15.784 42.804 15.561C42.963 15.339 43.061 15.07 43.017 14.865"/>
     <path stroke-width="0.12" id="AUTOID_1661" d="M41.945 14.763C41.843 14.63 41.789 14.628 41.652 14.711C41.515 14.791 41.481 14.862 41.478 14.931C41.475 14.997 41.523 15.063 41.628 15.064C41.734 15.064 42.189 14.651 42.28 14.65"/>
     <path stroke-width="0.12" id="AUTOID_1662" d="M43.017 14.865C43.261 14.983 43.521 14.996 43.779 14.871C44.036 14.747 44.53 14.349 44.578 14.083"/>
     <path stroke-width="0.12" id="AUTOID_1663" d="M43.951 13.893C44.067 14.073 44.015 14.198 43.863 14.342C43.713 14.486 43.567 14.448 43.451 14.381C43.335 14.314 43.146 14.066 43.133 13.939C43.118 13.811 43.152 13.707 43.276 13.615C43.401 13.524 43.597 13.467 43.734 13.596"/>
     <path stroke-width="0.12" id="AUTOID_1664" d="M44.253 13.214C44.067 13.007 43.853 12.948 43.515 13.018C43.179 13.089 42.698 13.5 42.662 13.704"/>
     <path stroke-width="0.12" id="AUTOID_1665" d="M42.662 13.704C42.561 13.984 42.46 14.215 42.756 14.59"/>
     <path stroke-width="0.12" id="AUTOID_1666" d="M42.28 14.65C42.47 14.57 42.698 14.521 42.756 14.59"/>
    </g>
   </g>
   <path stroke-width="0.276" id="AUTOID_1669" d="M32.475 21.89L33.459 23.228"/>
   <path stroke-width="0.276" id="AUTOID_1670" d="M33.459 23.228L33.841 22.948"/>
   <path stroke-width="0.276" id="AUTOID_1671" d="M33.841 22.948C34.219 23.26 34.671 23.074 35.435 22.513C36.201 21.951 36.804 20.769 37.283 20.419C37.759 20.068 39.838 18.689 40.527 18.623C41.215 18.559 48.427 13.553 50.103 12.026C51.777 10.5 52.612 10.035 51.418 8.41"/>
   <path stroke-width="0.276" id="AUTOID_1672" d="M31.946 20.367C31.76 19.914 32.072 19.538 32.835 18.977C33.6 18.414 34.908 18.19 35.386 17.838C35.863 17.487 37.799 15.916 38.067 15.278C38.335 14.641 45.265 9.252 47.223 8.108C49.179 6.964 49.872 6.307 51.067 7.932"/>
   <path stroke-width="0.276" id="AUTOID_1673" d="M32.475 21.89L31.492 20.553"/>
   <path stroke-width="0.276" id="AUTOID_1674" d="M31.492 20.553L31.875 20.271"/>
   <path stroke-width="0.276" id="AUTOID_1675" d="M51.418 8.41L51.067 7.932"/>
   <g>
    <path stroke-width="0.12" id="AUTOID_1676" d="M41.274 16.007L41.847 15.586"/>
    <path stroke-width="0.12" id="AUTOID_1677" d="M41.945 14.763L42.508 14.35"/>
    <path stroke-width="0.12" id="AUTOID_1678" d="M43.734 13.596L44.253 13.214"/>
    <path stroke-width="0.12" id="AUTOID_1679" d="M43.951 13.893L44.439 13.535"/>
    <path stroke-width="0.12" id="AUTOID_1680" d="M44.609 14.211L44.578 14.083"/>
    <path stroke-width="0.12" id="AUTOID_1681" d="M44.439 13.535L44.18 12.516"/>
    <path stroke-width="0.12" id="AUTOID_1682" d="M44.18 12.516L44.924 11.97"/>
    <path stroke-width="0.12" id="AUTOID_1683" d="M44.924 11.97L46.052 12.593"/>
    <path stroke-width="0.12" id="AUTOID_1684" d="M46.052 12.593L45.344 11.628"/>
    <path stroke-width="0.12" id="AUTOID_1685" d="M45.344 11.628L45.979 11.16"/>
    <path stroke-width="0.12" id="AUTOID_1686" d="M45.979 11.16L47.048 11.436"/>
    <path stroke-width="0.12" id="AUTOID_1687" d="M47.048 11.436L46.534 10.737"/>
    <path stroke-width="0.12" id="AUTOID_1688" d="M46.534 10.737L47.033 10.369"/>
    <path stroke-width="0.12" id="AUTOID_1689" d="M47.033 10.369L48.015 11.708"/>
    <path stroke-width="0.12" id="AUTOID_1690" d="M44.609 14.211L45.145 13.817"/>
    <path stroke-width="0.12" id="AUTOID_1691" d="M45.936 13.236L46.807 12.596"/>
    <path stroke-width="0.12" id="AUTOID_1692" d="M47.399 12.16L48.015 11.708"/>
    <path stroke-width="0.12" id="AUTOID_1693" d="M48.133 11.621L49.055 10.942"/>
    <path stroke-width="0.12" id="AUTOID_1694" d="M49.926 10.303L50.412 9.945"/>
    <path stroke-width="0.12" id="AUTOID_1695" d="M45.145 13.817L45.084 13.583"/>
    <path stroke-width="0.12" id="AUTOID_1696" d="M44.963 13.118L44.811 12.526"/>
    <path stroke-width="0.12" id="AUTOID_1697" d="M44.811 12.526L45.326 12.85"/>
    <path stroke-width="0.12" id="AUTOID_1698" d="M45.732 13.106L45.936 13.236"/>
    <path stroke-width="0.12" id="AUTOID_1699" d="M44.966 13.115L45.326 12.85"/>
    <path stroke-width="0.12" id="AUTOID_1700" d="M45.084 13.583L45.74 13.102"/>
    <path stroke-width="0.12" id="AUTOID_1701" d="M46.807 12.596L46.244 11.832"/>
    <path stroke-width="0.12" id="AUTOID_1702" d="M46.244 11.832L47.399 12.16"/>
    <path stroke-width="0.12" id="AUTOID_1703" d="M48.133 11.621L47.142 10.274"/>
    <path stroke-width="0.12" id="AUTOID_1704" d="M47.142 10.274L47.651 9.9"/>
    <path stroke-width="0.12" id="AUTOID_1705" d="M47.651 9.9L48.377 10.887"/>
    <path stroke-width="0.12" id="AUTOID_1706" d="M48.377 10.887L48.097 9.571"/>
    <path stroke-width="0.12" id="AUTOID_1707" d="M48.097 9.571L48.807 9.05"/>
    <path stroke-width="0.12" id="AUTOID_1708" d="M48.807 9.05L50.412 9.945"/>
    <path stroke-width="0.12" id="AUTOID_1709" d="M49.055 10.942L48.993 10.693"/>
    <path stroke-width="0.12" id="AUTOID_1710" d="M48.887 10.265L48.74 9.67"/>
    <path stroke-width="0.12" id="AUTOID_1711" d="M48.74 9.67L49.295 9.965"/>
    <path stroke-width="0.12" id="AUTOID_1712" d="M49.689 10.182L49.951 10.317"/>
    <path stroke-width="0.12" id="AUTOID_1713" d="M48.887 10.265L49.295 9.965"/>
    <path stroke-width="0.12" id="AUTOID_1714" d="M48.993 10.693L49.689 10.182"/>
    <path stroke-width="0.12" id="AUTOID_1715" d="M42.508 14.35C42.387 14.189 42.155 14.089 41.841 14.215C41.526 14.342 41.048 14.731 40.962 14.881C40.875 15.032 40.759 15.314 40.939 15.568C41.121 15.824 41.554 15.625 41.6 15.589C41.648 15.556 42.168 15.08 42.283 15.175C42.398 15.269 42.423 15.4 42.326 15.484C42.231 15.568 42.1 15.705 41.981 15.679C41.865 15.653 41.884 15.618 41.847 15.586"/>
    <path stroke-width="0.12" id="AUTOID_1716" d="M41.274 16.007C41.399 16.219 41.619 16.341 41.874 16.239C42.128 16.138 42.645 15.784 42.804 15.561C42.963 15.339 43.061 15.07 43.017 14.865"/>
    <path stroke-width="0.12" id="AUTOID_1717" d="M41.945 14.763C41.843 14.63 41.789 14.628 41.652 14.711C41.515 14.791 41.481 14.862 41.478 14.931C41.475 14.997 41.523 15.063 41.628 15.064C41.734 15.064 42.189 14.651 42.28 14.65"/>
    <path stroke-width="0.12" id="AUTOID_1718" d="M43.017 14.865C43.261 14.983 43.521 14.996 43.779 14.871C44.036 14.747 44.53 14.349 44.578 14.083"/>
    <path stroke-width="0.12" id="AUTOID_1719" d="M43.951 13.893C44.067 14.073 44.015 14.198 43.863 14.342C43.713 14.486 43.567 14.448 43.451 14.381C43.335 14.314 43.146 14.066 43.133 13.939C43.118 13.811 43.152 13.707 43.276 13.615C43.401 13.524 43.597 13.467 43.734 13.596"/>
    <path stroke-width="0.12" id="AUTOID_1720" d="M44.253 13.214C44.067 13.007 43.853 12.948 43.515 13.018C43.179 13.089 42.698 13.5 42.662 13.704"/>
    <path stroke-width="0.12" id="AUTOID_1721" d="M42.662 13.704C42.561 13.984 42.46 14.215 42.756 14.59"/>
    <path stroke-width="0.12" id="AUTOID_1722" d="M42.28 14.65C42.47 14.57 42.698 14.521 42.756 14.59"/>
   </g>
   <path stroke-width="0.276" id="AUTOID_1724" d="M32.067 21.335L23.426 27.686"/>
   <path stroke-width="0.276" id="AUTOID_1725" d="M32.825 22.365L24.184 28.716"/>
   <path stroke-width="0.276" id="AUTOID_1726" d="M24.184 28.716L24.059 28.548"/>
   <path stroke-width="0.276" id="AUTOID_1727" d="M23.556 27.864L23.426 27.686"/>
   <path stroke-width="0.276" id="AUTOID_1728" d="M23.556 27.864L25.989 26.077"/>
   <path stroke-width="0.276" id="AUTOID_1729" d="M24.059 28.548L26.49 26.76"/>
   <path stroke-width="0.276" id="AUTOID_1730" d="M26.49 26.76L26.344 26.561"/>
   <path stroke-width="0.276" id="AUTOID_1731" d="M26.135 26.275L25.989 26.077"/>
   <path stroke-width="0.276" id="AUTOID_1732" d="M26.344 26.561L27.189 25.94"/>
   <path stroke-width="0.276" id="AUTOID_1733" d="M26.135 26.275L26.978 25.655"/>
   <path stroke-width="0.276" id="AUTOID_1734" d="M26.978 25.655L27.189 25.94"/>
   <path stroke-width="0.12" id="AUTOID_1735" d="M27.288 24.847L28.045 25.878"/>
  </g>
 </g>
 <g id="Picture_x0020_#">
  <g>
   <text transform="matrix(0 -1 1 0 73.817 80.081)" stroke="none" fill="#000000" font-family="'Arial'" font-size="2.117">365 595</text>
  </g>
 </g>
</svg>
