<?xml version="1.0" encoding="utf-8"?>
<!DOCTYPE svg PUBLIC "-//W3C//DTD SVG 1.1//EN" "http://www.w3.org/Graphics/SVG/1.1/DTD/svg11.dtd">
<!-- Generator: PTC Arbortext IsoDraw 7.3 -->
<svg width="100%" height="100%" viewBox="0 0 75.016 95.918"
 xmlns="http://www.w3.org/2000/svg" xmlns:xlink="http://www.w3.org/1999/xlink"
 fill-rule="evenodd" clip-rule="evenodd" stroke="#000000" stroke-linecap="round" fill="none" xml:space="preserve">
 <g id="A4_x0020_half_x0020_frame">
  <polygon stroke="#FFFFFF" stroke-width="0.016" points="0.008 0.008 75.007 0.008 75.007 95.9 0.008 95.9 0.008 0.008"/>
 </g>
 <g id="Colour">
 </g>
 <g id="Standard_x0020_layer">
  <g>
   <path stroke="none" fill="#000000" d="M0.413 0.571L0.413 94.894 71.637 94.894 71.637 0.571 0.413 0.571z"/>
   <path stroke="none" fill="#666666" d="M0.413 87.823L0.413 94.894 71.637 94.894 71.637 87.823 0.413 87.823z"/>
   <path stroke="none" fill="#999999" d="M71.628 87.823L71.638 88.373 0.413 88.373 0.413 87.823 71.628 87.823z"/>
   <path stroke="none" fill="#666666" d="M52.274 0.55L52.274 9.801 71.638 9.801 71.638 0.55 52.274 0.55z"/>
   <path stroke="none" fill="#999999" d="M51.194 9.801L51.734 10.349 0.413 10.349 0.413 9.801 51.194 9.801z"/>
   <path stroke="none" fill="#999999" d="M52.274 9.801L51.734 10.349 51.734 0.55 52.274 0.55 52.274 9.801z"/>
   <path stroke="none" fill="#999999" d="M52.274 9.801L51.734 10.349 71.629 10.349 71.638 9.801 52.274 9.801z"/>
   <path stroke="none" fill="#666666" d="M0.413 0.571L0.413 9.801 51.194 9.801 51.194 0.571 0.413 0.571z"/>
   <path stroke="none" fill="#F49F26" d="M0.413 87.823L11.686 87.823 12.025 87.777 12.384 87.688 12.676 87.581 12.962 87.445 13.284 87.251 13.618 86.986 13.907 86.691 14.169 86.347 14.348 86.043 14.492 85.724 14.602 85.388 14.666 85.102 14.711 84.718 14.707 84.453 14.707 74.299 71.637 74.299 71.637 27.399 0.413 27.399 0.413 87.823z"/>
  </g>
  <path stroke="none" fill="#FFFFFF" d="M15.708 18.559L15.708 21.068 20.359 21.068 20.359 18.559 15.708 18.559z"/>
  <path stroke="none" fill="#FFFFFF" d="M21.062 18.559L21.062 21.068 25.714 21.068 25.714 18.559 21.062 18.559z"/>
  <path stroke="none" fill="#FFFFFF" d="M26.419 18.559L26.419 21.068 31.071 21.068 31.071 18.559 26.419 18.559z"/>
  <path stroke="none" fill="#FFFFFF" d="M31.774 18.559L31.774 21.068 36.426 21.068 36.426 18.559 31.774 18.559z"/>
  <path stroke="none" fill="#FFFFFF" d="M37.131 18.559L37.131 21.068 41.781 21.068 41.781 18.559 37.131 18.559z"/>
  <path stroke="none" fill="#FFFFFF" d="M42.485 18.559L42.485 21.068 47.137 21.068 47.137 18.559 42.485 18.559z"/>
  <path stroke="none" fill="#FFFFFF" d="M47.841 18.559L47.841 21.068 52.493 21.068 52.493 18.559 47.841 18.559z"/>
  <path stroke="none" fill="#FFFFFF" d="M53.198 18.559L53.198 21.068 57.85 21.068 57.85 18.559 53.198 18.559z"/>
  <path stroke="none" fill="#77A37A" d="M15.708 15.096L15.708 17.606 24.138 17.606 24.138 15.096 15.708 15.096z"/>
  <path stroke="none" fill="#FFFFFF" d="M2.515 14.134L2.515 18.998 11.051 18.998 11.051 14.134 2.515 14.134z"/>
  <path stroke="none" fill="#FFFFFF" d="M3.064 14.682L3.064 18.449 10.503 18.449 10.503 14.682 3.064 14.682z"/>
  <path stroke="none" fill="#FFFFFF" d="M60.576 16.172L60.561 15.622 58.963 15.622 58.963 17.811 60.646 17.811 60.601 17.262 59.512 17.262 59.512 16.172 60.576 16.172z"/>
  <path stroke="none" fill="#FFFFFF" d="M60.371 14.442L60.371 18.99 61.566 19.868 68.816 19.868 70.01 18.99 70.01 14.442 68.816 13.566 61.566 13.566 60.371 14.442 60.92 14.721 61.746 14.115 68.635 14.115 69.46 14.721 69.46 18.713 68.635 19.318 61.746 19.318 60.92 18.713 60.92 14.721 60.371 14.442z"/>
  <path stroke="none" fill="#FFFFFF" d="M61.661 13.96L62.21 13.971 62.21 19.464 61.661 19.49 61.661 13.96z"/>
  <path stroke="none" fill="#FFFFFF" d="M68.198 13.96L68.748 13.971 68.748 19.464 68.198 19.49 68.198 13.96z"/>
  <path stroke="none" fill="#FFFFFF" d="M11.051 14.134L10.503 14.134 10.503 18.449 2.515 18.449 2.515 18.998 11.051 18.998 11.051 14.134z"/>
  <path stroke="none" fill="#FFFFFF" d="M11.051 14.134L2.515 14.134 2.515 18.998 3.064 18.449 3.064 14.682 10.503 14.682 11.051 14.134z"/>
  <path stroke="none" fill="#FFFFFF" d="M3.666 13.179L3.666 14.356 5.738 14.356 5.738 13.179 3.666 13.179z"/>
  <path stroke="none" fill="#FFFFFF" d="M7.961 13.179L7.961 14.356 10.032 14.356 10.032 13.179 7.961 13.179z"/>
  <path stroke="none" fill="#FFFFFF" d="M12.099 15.179L11.55 15.179 11.55 19.495 3.562 19.495 3.562 20.045 12.099 20.045 12.099 15.179z"/>
  <path stroke="none" fill="#FFFFFF" d="M13.125 16.265L12.577 16.265 12.577 20.58 4.589 20.58 4.589 21.129 13.125 21.129 13.125 16.265z"/>
  <path stroke="none" fill="#FFFFFF" d="M24.724 1.342L24.722 1.911 23.949 1.911 23.129 1.931 22.254 1.98 21.356 2.069 20.455 2.202 19.882 2.314 19.442 2.415 19.149 2.507 18.923 2.669 18.742 2.906 18.653 3.17 18.634 3.407 18.655 3.681 18.725 4.06 18.824 4.535 19.097 5.653 19.405 6.756 19.657 7.589 19.754 7.897 19.867 8.112 20.079 8.353 20.353 8.545 20.722 8.693 21.129 8.768 21.53 8.782 24.724 8.782 24.724 9.35 21.184 9.343 20.948 9.32 20.565 9.242 20.28 9.143 20.021 9.013 19.763 8.833 19.565 8.647 19.402 8.445 19.309 8.294 19.24 8.159 18.92 7.126 18.615 6.057 18.379 5.134 18.173 4.209 18.091 3.758 18.068 3.298 18.128 2.921 18.26 2.599 18.455 2.33 18.687 2.129 18.971 1.967 19.297 1.863 19.826 1.744 20.521 1.613 21.271 1.507 21.996 1.431 22.545 1.39 23.071 1.363 23.839 1.343 24.371 1.34 24.724 1.342z"/>
  <path stroke="none" fill="#FFFFFF" d="M24.722 1.342L24.722 1.911 25.496 1.911 26.318 1.931 27.192 1.98 28.091 2.069 28.99 2.202 29.565 2.314 30.004 2.415 30.297 2.507 30.524 2.669 30.704 2.906 30.792 3.17 30.812 3.407 30.791 3.681 30.722 4.06 30.623 4.535 30.349 5.653 30.042 6.756 29.789 7.589 29.692 7.897 29.579 8.112 29.367 8.353 29.092 8.545 28.725 8.693 28.317 8.768 27.914 8.782 24.722 8.782 24.722 9.35 28.26 9.343 28.498 9.32 28.882 9.242 29.167 9.143 29.425 9.013 29.684 8.833 29.882 8.647 30.042 8.445 30.138 8.294 30.205 8.159 30.525 7.126 30.83 6.057 31.068 5.134 31.272 4.209 31.355 3.758 31.379 3.298 31.318 2.921 31.185 2.599 30.99 2.33 30.759 2.129 30.475 1.967 30.147 1.863 29.62 1.744 28.925 1.613 28.175 1.507 27.449 1.431 26.902 1.39 26.375 1.363 25.606 1.343 25.074 1.34 24.722 1.342z"/>
  <path stroke="none" fill="#FFFFFF" d="M9.951 1.342L9.949 1.911 9.176 1.911 8.355 1.931 7.482 1.98 6.583 2.069 5.682 2.202 5.108 2.314 4.669 2.415 4.376 2.507 4.15 2.669 3.969 2.906 3.881 3.17 3.86 3.407 3.883 3.681 3.952 4.06 4.051 4.535 4.325 5.653 4.631 6.756 4.884 7.589 4.982 7.897 5.092 8.112 5.306 8.353 5.58 8.545 5.948 8.693 6.357 8.768 6.758 8.782 9.951 8.782 9.951 9.35 6.411 9.343 6.174 9.32 5.791 9.242 5.506 9.143 5.248 9.013 4.99 8.833 4.791 8.647 4.629 8.445 4.535 8.294 4.468 8.159 4.147 7.126 3.843 6.057 3.605 5.134 3.4 4.209 3.318 3.758 3.294 3.298 3.355 2.921 3.488 2.599 3.682 2.33 3.915 2.129 4.198 1.967 4.525 1.863 5.052 1.744 5.748 1.613 6.498 1.507 7.224 1.431 7.772 1.39 8.298 1.363 9.067 1.343 9.599 1.34 9.951 1.342z"/>
  <path stroke="none" fill="#FFFFFF" d="M9.949 1.342L9.949 1.911 10.724 1.911 11.544 1.931 12.419 1.98 13.317 2.069 14.217 2.202 14.791 2.314 15.231 2.415 15.524 2.507 15.75 2.669 15.931 2.906 16.019 3.17 16.039 3.407 16.018 3.681 15.948 4.06 15.849 4.535 15.576 5.653 15.269 6.756 15.016 7.589 14.917 7.897 14.807 8.112 14.595 8.353 14.32 8.545 13.952 8.693 13.544 8.768 13.141 8.782 9.949 8.782 9.949 9.35 13.487 9.343 13.725 9.32 14.108 9.242 14.394 9.143 14.653 9.013 14.91 8.833 15.108 8.647 15.269 8.445 15.365 8.294 15.432 8.159 15.753 7.126 16.057 6.057 16.295 5.134 16.5 4.209 16.582 3.758 16.606 3.298 16.545 2.921 16.413 2.599 16.217 2.33 15.986 2.129 15.702 1.967 15.375 1.863 14.848 1.744 14.151 1.613 13.401 1.507 12.676 1.431 12.128 1.39 11.602 1.363 10.833 1.343 10.301 1.34 9.949 1.342z"/>
  <path stroke="none" fill="#FFFFFF" d="M9.414 1.499L7.476 1.712 5.809 1.944 4.471 2.274 3.774 2.758 3.618 3.61 4.897 8.378 5.674 8.922 6.719 9.038 14.007 8.98 14.88 8.457 15.287 7.913 16.353 3.533 16.12 2.758 15.403 2.196 13.6 1.75 10.538 1.633 9.414 1.499z"/>
  <path stroke-width="0.13" stroke-linejoin="round" fill="#000000" d="M44.793 63.752C44.793 63.161 44.314 62.68 43.722 62.68 43.131 62.68 42.652 63.161 42.652 63.752 42.652 64.343 43.131 64.822 43.722 64.822 44.314 64.822 44.793 64.343 44.793 63.752 44.793 63.752 44.793 63.752 44.793 63.752L44.793 63.752z"/>
  <path stroke="none" fill="#000000" d="M46.476 66.868L46.84 67.243 46.906 67.186 47.191 66.9 47.435 66.606 47.686 66.248 47.917 65.837 48.078 65.478 48.228 65.033 48.338 64.555 48.399 64.003 48.393 63.406 48.332 62.921 48.151 62.222 47.865 61.563 47.511 60.996 47.034 60.439 46.451 59.945 45.845 59.576 45.106 59.276 44.353 59.11 43.646 59.069 42.887 59.142 42.119 59.35 41.386 59.692 40.862 60.042 40.314 60.539 39.872 61.084 39.487 61.75 39.225 62.436 39.09 63.057 39.039 63.679 39.088 64.43 39.185 64.917 39.396 65.552 39.718 66.182 40.052 66.662 40.261 66.908 40.506 67.158 40.649 67.281 41.045 66.881 40.659 66.566 40.298 66.114 39.987 65.587 39.793 65.121 39.654 64.626 39.585 64.188 39.564 63.652 39.63 63 39.777 62.43 39.973 61.945 40.298 61.387 40.645 60.953 41.003 60.603 41.371 60.319 41.758 60.084 42.179 59.887 42.761 59.704 43.316 59.61 43.96 59.597 44.512 59.665 45.054 59.81 45.604 60.04 46.161 60.381 46.601 60.749 46.979 61.164 47.335 61.688 47.606 62.259 47.786 62.853 47.868 63.402 47.878 63.947 47.826 64.441 47.716 64.921 47.57 65.338 47.377 65.742 47.155 66.102 46.915 66.418 46.713 66.644 46.539 66.814 46.476 66.868z"/>
  <path stroke-width="0.13" stroke-linejoin="round" fill="#000000" d="M41.182 66.096L41.457 66.361 40.701 67.141 40.411 66.894 41.182 66.096z"/>
  <path stroke-width="0.13" stroke-linejoin="round" fill="#000000" d="M40.261 63.615L40.267 63.997 39.14 64.016 39.124 63.634 40.261 63.615z"/>
  <path stroke-width="0.13" stroke-linejoin="round" fill="#000000" d="M43.219 62.997L42.906 63.191 40.334 60.636 40.618 60.378 43.219 62.997z"/>
  <path stroke-width="0.13" stroke-linejoin="round" fill="#000000" d="M43.92 60.292L43.537 60.292 43.539 59.159 43.92 59.151 43.92 60.292z"/>
  <path stroke-width="0.13" stroke-linejoin="round" fill="#000000" d="M46.267 66.103L45.993 66.37 46.777 67.177 47.055 66.903 46.267 66.103z"/>
  <path stroke-width="0.13" stroke-linejoin="round" fill="#000000" d="M47.185 63.615L47.179 63.997 48.232 64.013 48.28 63.633 47.185 63.615z"/>
  <path stroke-width="0.13" stroke-linejoin="round" fill="#000000" d="M46.03 61.167L46.299 61.436 47.097 60.656 46.823 60.371 46.03 61.167z"/>
  <path stroke-width="0.13" stroke-linejoin="round" fill="#000000" d="M4.476 67.546L4.476 63.524 4.963 63.008 5.73 63.008 6.464 62.057 11.304 62.057 12.029 62.597 12.029 63.151 12.214 63.295 13.567 63.295 13.567 64.385 14.167 64.385 14.167 63.307 15.804 63.307 15.804 63.863 16.158 64.506 16.158 67.763 15.871 68.347 15.871 69.117 14.224 69.117 14.224 68.2 13.464 68.2 13.464 69.081 12.932 69.656 7.589 69.656 6.03 68.004 4.918 68.004 4.476 67.546z"/>
  <path stroke="none" fill="#000000" d="M6.66 60.991L6.66 61.411 10.818 61.411 10.818 60.991 6.66 60.991z"/>
  <path stroke="none" fill="#000000" d="M3.198 63.185L3.198 67.433 3.618 67.433 3.618 63.185 3.198 63.185z"/>
  <path stroke="none" fill="#000000" d="M3.198 65.018L3.198 65.438 4.785 65.438 4.785 65.018 3.198 65.018z"/>
  <path stroke="none" fill="#000000" d="M7.865 61.286L7.865 62.134 9.849 62.134 9.849 61.286 7.865 61.286z"/>
  <path stroke="none" fill="#000000" d="M3.648 84.971L3.228 84.971 3.228 85.134 3.228 85.284 3.243 85.46 3.282 85.643 3.334 85.799 3.415 85.972 3.536 86.159 3.679 86.322 3.844 86.466 4.02 86.581 4.213 86.671 4.381 86.725 4.58 86.763 4.785 86.774 5.001 86.757 5.222 86.706 5.411 86.634 5.625 86.513 5.79 86.387 5.921 86.254 6.046 86.093 6.174 85.861 6.237 85.697 6.28 85.531 6.304 85.355 6.309 85.182 6.309 84.971 5.887 84.962 5.887 85.29 5.855 85.501 5.804 85.658 5.65 85.924 5.52 86.063 5.266 86.237 5.032 86.322 4.796 86.353 4.58 86.337 4.325 86.263 4.091 86.126 3.921 85.965 3.794 85.789 3.716 85.618 3.673 85.474 3.652 85.331 3.648 85.182 3.648 84.971z"/>
  <path stroke="none" fill="#000000" d="M6.309 84.971L5.889 84.971 5.889 85.134 5.889 85.284 5.905 85.46 5.942 85.643 5.996 85.799 6.076 85.972 6.197 86.159 6.339 86.322 6.506 86.466 6.681 86.581 6.873 86.671 7.043 86.725 7.24 86.763 7.447 86.774 7.663 86.757 7.883 86.706 8.073 86.634 8.285 86.513 8.449 86.387 8.583 86.254 8.708 86.093 8.836 85.861 8.899 85.697 8.941 85.531 8.964 85.355 8.97 85.182 8.97 84.971 8.548 84.962 8.548 85.29 8.516 85.501 8.465 85.658 8.311 85.924 8.182 86.063 7.926 86.237 7.692 86.322 7.456 86.353 7.24 86.337 6.987 86.263 6.753 86.126 6.58 85.965 6.456 85.789 6.376 85.618 6.334 85.474 6.312 85.331 6.309 85.182 6.309 84.971z"/>
  <path stroke="none" fill="#000000" d="M8.97 84.971L8.548 84.971 8.548 85.134 8.55 85.284 8.566 85.46 8.603 85.643 8.656 85.799 8.737 85.972 8.858 86.159 9 86.322 9.166 86.466 9.342 86.581 9.535 86.671 9.704 86.725 9.9 86.763 10.108 86.774 10.323 86.757 10.544 86.706 10.733 86.634 10.946 86.513 11.111 86.387 11.243 86.254 11.368 86.093 11.496 85.861 11.56 85.697 11.602 85.531 11.625 85.355 11.63 85.182 11.63 84.971 11.21 84.962 11.208 85.29 11.178 85.501 11.127 85.658 10.971 85.924 10.843 86.063 10.586 86.237 10.352 86.322 10.118 86.353 9.9 86.337 9.647 86.263 9.413 86.126 9.242 85.965 9.117 85.789 9.037 85.618 8.994 85.474 8.974 85.331 8.97 85.182 8.97 84.971z"/>
  <path stroke="none" fill="#000000" d="M11.63 84.971L11.21 84.971 11.21 85.134 11.211 85.284 11.227 85.46 11.265 85.643 11.317 85.799 11.397 85.972 11.518 86.159 11.66 86.322 11.827 86.466 12.003 86.581 12.195 86.671 12.364 86.725 12.561 86.763 12.769 86.774 12.984 86.757 13.204 86.706 13.394 86.634 13.563 86.539 13.563 86.539 13.526 86.465 13.526 86.465 13.526 86.465 13.526 86.465 13.526 86.465 13.526 86.465 13.526 86.465 13.512 86.436 13.496 86.406 13.474 86.358 13.451 86.311 13.422 86.254 13.396 86.2 13.371 86.153 13.247 86.237 13.013 86.322 12.778 86.353 12.561 86.337 12.307 86.263 12.073 86.126 11.903 85.965 11.776 85.789 11.698 85.618 11.656 85.474 11.634 85.331 11.63 85.182 11.63 84.971z"/>
  <path stroke="none" fill="#000000" d="M3.228 84.971L3.648 84.971 3.648 85.134 3.647 85.284 3.632 85.46 3.593 85.643 3.54 85.799 3.459 85.972 3.339 86.159 3.197 86.322 3.031 86.466 2.855 86.581 2.663 86.671 2.493 86.725 2.295 86.763 2.088 86.774 1.873 86.757 1.653 86.706 1.463 86.634 1.294 86.539 1.294 86.539 1.33 86.465 1.33 86.465 1.33 86.465 1.33 86.465 1.33 86.465 1.33 86.465 1.33 86.465 1.346 86.436 1.361 86.406 1.383 86.358 1.407 86.311 1.435 86.254 1.463 86.2 1.486 86.153 1.609 86.237 1.843 86.322 2.079 86.353 2.295 86.337 2.549 86.263 2.783 86.126 2.955 85.965 3.08 85.789 3.16 85.618 3.201 85.474 3.224 85.331 3.228 85.182 3.228 84.971z"/>
  <path stroke="none" fill="#000000" d="M3.672 81.313L9.724 82.072 9.673 82.489 3.62 81.73 3.672 81.313z"/>
  <path stroke="none" fill="#000000" d="M10.101 78.384L10.198 78.329 10.367 78.269 10.531 78.24 10.657 78.239 10.836 78.268 11.006 78.329 11.137 78.406 11.249 78.498 11.365 78.632 11.448 78.775 11.51 78.947 11.535 79.105 11.532 79.275 11.496 79.448 11.439 79.593 11.352 79.734 11.23 79.867 11.131 79.945 11.021 80.01 10.859 80.073 10.704 80.103 10.542 80.108 10.391 80.085 10.3 80.495 10.413 80.516 10.644 80.528 10.884 80.501 11.125 80.426 11.33 80.317 11.49 80.2 11.657 80.027 11.776 79.852 11.862 79.679 11.933 79.435 11.957 79.243 11.949 79.019 11.904 78.795 11.807 78.552 11.644 78.305 11.477 78.138 11.298 78.01 11.079 77.903 10.878 77.846 10.673 77.819 10.502 77.822 10.295 77.852 10.147 77.897 10.013 77.951 9.894 78.018 10.101 78.384z"/>
  <path stroke="none" fill="#000000" d="M10.054 83.281L10.151 83.335 10.319 83.397 10.483 83.424 10.609 83.426 10.788 83.397 10.958 83.335 11.089 83.26 11.201 83.168 11.317 83.034 11.401 82.89 11.462 82.718 11.489 82.56 11.484 82.388 11.449 82.216 11.391 82.072 11.304 81.93 11.182 81.796 11.083 81.719 10.974 81.655 10.813 81.591 10.657 81.561 10.496 81.558 10.345 81.579 10.252 81.17 10.365 81.149 10.598 81.137 10.836 81.165 11.076 81.239 11.282 81.347 11.442 81.465 11.609 81.638 11.728 81.813 11.814 81.986 11.885 82.23 11.91 82.421 11.903 82.646 11.858 82.87 11.76 83.112 11.596 83.361 11.429 83.528 11.25 83.656 11.031 83.762 10.83 83.819 10.627 83.846 10.454 83.843 10.249 83.813 10.099 83.769 9.967 83.712 9.846 83.647 10.054 83.281z"/>
  <path stroke="none" fill="#000000" d="M12.375 82.015L12.375 82.015 12.375 82.015 12.372 81.998 12.31 81.597 12.368 81.588 12.538 81.527 12.669 81.45 12.781 81.358 12.897 81.224 12.98 81.081 13.042 80.909 13.067 80.751 13.064 80.579 13.028 80.408 12.971 80.263 12.884 80.121 12.762 79.987 12.663 79.911 12.553 79.846 12.391 79.783 12.333 79.772 12.333 79.772 12.333 79.772 12.333 79.772 12.333 79.772 12.4 79.353 12.416 79.355 12.657 79.43 12.862 79.537 13.022 79.656 13.188 79.828 13.308 80.004 13.393 80.177 13.465 80.421 13.489 80.611 13.481 80.837 13.436 81.061 13.339 81.304 13.176 81.551 13.009 81.718 12.83 81.846 12.611 81.951 12.41 82.01 12.375 82.015 12.375 82.015 12.375 82.015 12.375 82.015 12.375 82.015 12.375 82.015 12.375 82.015z"/>
  <path stroke="none" fill="#000000" d="M3.601 80.284L9.654 79.524 9.602 79.106 3.548 79.867 3.601 80.284z"/>
  <path stroke="none" fill="#000000" d="M7.307 75.021L7.163 75.237 6.98 75.519 6.804 75.822 6.676 76.084 6.552 76.421 6.488 76.756 6.504 77.105 6.599 77.391 6.767 77.67 6.993 77.861 7.288 77.96 7.528 77.968 7.865 77.897 8.15 77.746 8.375 77.558 8.545 77.308 8.6 77.019 8.518 76.7 8.365 76.459 8.221 76.293 8.035 76.132 7.868 75.995 7.674 75.828 7.516 75.671 7.376 75.486 7.309 75.347 7.282 75.227 7.285 75.105 7.307 75.021z"/>
  <path stroke="none" fill="#F49F26" d="M4.605 79.492L7.323 79.138 7.429 79.269 7.214 80.022 4.799 80.275 4.445 79.545 4.636 79.489"/>
  <path stroke="none" fill="#F49F26" d="M4.897 67.376L4.897 63.692 5.144 63.429 5.937 63.429 6.671 62.476 11.166 62.476 11.609 62.807 11.609 63.354 12.069 63.716 13.147 63.716 13.147 64.805 14.587 64.805 14.587 63.726 15.382 63.726 15.382 63.972 15.739 64.614 15.739 67.665 15.451 68.251 15.451 68.697 14.644 68.697 14.644 67.778 13.044 67.778 13.044 68.917 12.749 69.236 7.77 69.236 6.211 67.584 5.097 67.584 4.897 67.376z"/>
  <path stroke="none" fill="#000000" d="M5.644 77.394L5.5 77.612 5.317 77.894 5.141 78.197 5.014 78.457 4.889 78.796 4.825 79.129 4.841 79.48 4.936 79.765 5.104 80.043 5.33 80.236 5.625 80.334 5.865 80.343 6.203 80.272 6.487 80.12 6.713 79.933 6.883 79.682 6.937 79.394 6.855 79.075 6.703 78.832 6.559 78.668 6.371 78.507 6.205 78.37 6.011 78.203 5.852 78.046 5.713 77.859 5.645 77.721 5.618 77.602 5.621 77.478 5.644 77.394z"/>
  <path stroke="none" fill="#000000" d="M51.194 10.356L51.734 10.349 51.734 0.55 51.194 0.55 51.194 10.356z"/>
  <path stroke="none" fill="#000000" d="M3.064 14.682L3.064 18.449 10.503 18.449 10.503 14.682 3.064 14.682z"/>
  <path stroke="none" fill="#FFFFFF" d="M8.775 15.292L8.775 17.117 9.382 17.117 9.382 15.292 8.775 15.292z"/>
  <path stroke="none" fill="#FFFFFF" d="M8.166 16.509L9.99 16.509 9.99 15.9 8.166 15.9 8.166 16.509z"/>
  <path stroke="none" fill="#FFFFFF" d="M3.66 16.509L5.484 16.509 5.484 15.9 3.66 15.9 3.66 16.509z"/>
  <path stroke="none" fill="#000000" d="M67.105 13L68.445 13.336 63.473 20.426 62.133 20.091 67.105 13z"/>
  <path stroke="none" fill="#FFFFFF" d="M67.965 12.416L68.123 12.397 68.388 12.58 68.415 12.731 62.67 20.923 62.527 20.952 62.246 20.75 62.22 20.609 67.965 12.416z"/>
  <text x="6.28" y="7.259" stroke="none" fill="#000000" font-family="'Helvetica'" font-size="6.315">10</text>
  <text x="21.17" y="7.259" stroke="none" fill="#FFFFFF" font-family="'Helvetica'" font-size="6.315">12</text>
  <text x="53.594" y="7.259" stroke="none" fill="#FFFFFF" font-family="'Helvetica'" font-size="6.315">11.00</text>
  <text x="2.947" y="37.176" stroke="none" fill="#000000" font-family="'Helvetica'" font-size="6.703">E</text>
  <text x="7.865" y="37.176" stroke="none" fill="#000000" font-family="'Helvetica'" font-size="6.703">m</text>
  <text x="14.009" y="37.176" stroke="none" fill="#000000" font-family="'Helvetica'" font-size="6.703">i</text>
  <text x="15.647" y="37.176" stroke="none" fill="#000000" font-family="'Helvetica'" font-size="6.703">s</text>
  <text x="19.333" y="37.176" stroke="none" fill="#000000" font-family="'Helvetica'" font-size="6.703">s</text>
  <text x="23.021" y="37.176" stroke="none" fill="#000000" font-family="'Helvetica'" font-size="6.703">i</text>
  <text x="24.66" y="37.176" stroke="none" fill="#000000" font-family="'Helvetica'" font-size="6.703">o</text>
  <text x="28.76" y="37.176" stroke="none" fill="#000000" font-family="'Helvetica'" font-size="6.703">n</text>
  <text x="32.862" y="37.176" stroke="none" fill="#000000" font-family="'Helvetica'" font-size="6.703"> </text>
  <text x="34.911" y="37.176" stroke="none" fill="#000000" font-family="'Helvetica'" font-size="6.703">c</text>
  <text x="38.598" y="37.176" stroke="none" fill="#000000" font-family="'Helvetica'" font-size="6.703">o</text>
  <text x="42.7" y="37.176" stroke="none" fill="#000000" font-family="'Helvetica'" font-size="6.703">n</text>
  <text x="46.801" y="37.176" stroke="none" fill="#000000" font-family="'Helvetica'" font-size="6.703">t</text>
  <text x="48.85" y="37.176" stroke="none" fill="#000000" font-family="'Helvetica'" font-size="6.703">r</text>
  <text x="51.305" y="37.176" stroke="none" fill="#000000" font-family="'Helvetica'" font-size="6.703">o</text>
  <text x="55.406" y="37.176" stroke="none" fill="#000000" font-family="'Helvetica'" font-size="6.703">l</text>
  <text x="3.004" y="46.52" stroke="none" fill="#000000" font-family="'Helvetica'" font-size="6.703">m</text>
  <text x="9.147" y="46.52" stroke="none" fill="#000000" font-family="'Helvetica'" font-size="6.703">o</text>
  <text x="13.249" y="46.52" stroke="none" fill="#000000" font-family="'Helvetica'" font-size="6.703">n</text>
  <text x="17.35" y="46.52" stroke="none" fill="#000000" font-family="'Helvetica'" font-size="6.703">i</text>
  <text x="18.989" y="46.52" stroke="none" fill="#000000" font-family="'Helvetica'" font-size="6.703">t</text>
  <text x="21.036" y="46.52" stroke="none" fill="#000000" font-family="'Helvetica'" font-size="6.703">.</text>
  <text x="23.085" y="46.52" stroke="none" fill="#000000" font-family="'Helvetica'" font-size="6.703"> </text>
  <text x="25.135" y="46.52" stroke="none" fill="#000000" font-family="'Helvetica'" font-size="6.703">m</text>
  <text x="31.277" y="46.52" stroke="none" fill="#000000" font-family="'Helvetica'" font-size="6.703">a</text>
  <text x="35.378" y="46.52" stroke="none" fill="#000000" font-family="'Helvetica'" font-size="6.703">l</text>
  <text x="37.018" y="46.52" stroke="none" fill="#000000" font-family="'Helvetica'" font-size="6.703">f</text>
  <text x="39.066" y="46.52" stroke="none" fill="#000000" font-family="'Helvetica'" font-size="6.703">u</text>
  <text x="43.167" y="46.52" stroke="none" fill="#000000" font-family="'Helvetica'" font-size="6.703">n</text>
  <text x="47.268" y="46.52" stroke="none" fill="#000000" font-family="'Helvetica'" font-size="6.703">c</text>
  <text x="50.956" y="46.52" stroke="none" fill="#000000" font-family="'Helvetica'" font-size="6.703">t</text>
  <text x="53.005" y="46.52" stroke="none" fill="#000000" font-family="'Helvetica'" font-size="6.703">i</text>
  <text x="54.643" y="46.52" stroke="none" fill="#000000" font-family="'Helvetica'" font-size="6.703">o</text>
  <text x="58.744" y="46.52" stroke="none" fill="#000000" font-family="'Helvetica'" font-size="6.703">n</text>
  <text x="21.902" y="68.906" stroke="none" fill="#000000" font-family="'Helvetica'" font-size="6.703">35 h</text>
  <text x="56.048" y="68.906" stroke="none" fill="#000000" font-family="'Helvetica'" font-size="6.703">99 h</text>
  <text transform="matrix(0.927 0 0 1.078 8.32 94.016)" stroke="none" fill="#FFFFFF" font-family="'Helvetica'" font-size="6.216">1</text>
  <text transform="matrix(0.927 0 0 1.078 11.845 94.016)" stroke="none" fill="#FFFFFF" font-family="'Helvetica'" font-size="6.216">5</text>
  <text transform="matrix(0.927 0 0 1.078 15.371 94.016)" stroke="none" fill="#FFFFFF" font-family="'Helvetica'" font-size="6.216">0</text>
  <text transform="matrix(0.927 0 0 1.078 18.896 94.016)" stroke="none" fill="#FFFFFF" font-family="'Helvetica'" font-size="6.216">0</text>
  <text transform="matrix(0.927 0 0 1.078 22.42 94.016)" stroke="none" fill="#FFFFFF" font-family="'Helvetica'" font-size="6.216">0</text>
  <text transform="matrix(0.927 0 0 1.078 25.946 94.016)" stroke="none" fill="#FFFFFF" font-family="'Helvetica'" font-size="6.216">.</text>
  <text transform="matrix(0.927 0 0 1.078 27.707 94.016)" stroke="none" fill="#FFFFFF" font-family="'Helvetica'" font-size="6.216">.</text>
  <text transform="matrix(0.927 0 0 1.078 29.468 94.016)" stroke="none" fill="#FFFFFF" font-family="'Helvetica'" font-size="6.216">.</text>
  <text x="1.91" y="93.902" stroke="none" fill="#FFFFFF" font-family="'Helvetica'" font-size="5.823">T</text>
  <text x="31.114" y="93.902" stroke="none" fill="#FFFFFF" font-family="'Helvetica'" font-size="5.823">k</text>
  <text x="34.317" y="93.902" stroke="none" fill="#FFFFFF" font-family="'Helvetica'" font-size="5.823">m</text>
  <text transform="matrix(1.03 0 0 0.971 55.875 93.844)" stroke="none" fill="#FFFFFF" font-family="'Helvetica'" font-size="6.908">2</text>
  <text transform="matrix(1.03 0 0 0.971 60.228 93.844)" stroke="none" fill="#FFFFFF" font-family="'Helvetica'" font-size="6.908">4</text>
  <text x="65.59" y="93.902" stroke="none" fill="#FFFFFF" font-family="'Helvetica'" font-size="5.823">C</text>
  <path stroke="none" fill="#FFFFFF" d="M64.87 90.17L64.87 90.17C64.759 90.17 64.662 90.212 64.582 90.293 64.504 90.373 64.463 90.468 64.463 90.579 64.463 90.691 64.504 90.787 64.582 90.867 64.662 90.947 64.759 90.987 64.87 90.987 64.98 90.987 65.075 90.947 65.156 90.867L65.355 91.069C65.218 91.206 65.055 91.272 64.87 91.272L64.87 91.272 64.87 91.272C64.682 91.272 64.519 91.206 64.385 91.069 64.248 90.932 64.18 90.769 64.18 90.579 64.18 90.391 64.248 90.228 64.385 90.09 64.519 89.953 64.682 89.885 64.87 89.885 65.055 89.885 65.218 89.953 65.355 90.09 65.492 90.228 65.561 90.391 65.561 90.579 65.561 90.769 65.492 90.932 65.355 91.069L65.156 90.867C65.236 90.787 65.278 90.691 65.278 90.579 65.278 90.468 65.236 90.373 65.156 90.293 65.075 90.212 64.98 90.17 64.87 90.17L64.87 90.17z"/>
  <path stroke-width="0.13" stroke-linejoin="round" fill="#000000" d="M41.533 71.635L41.533 71.635 41.533 71.635 41.533 68.25 41.533 68.25 41.676 68.25 41.82 68.25 41.82 68.25 41.82 71.23 41.82 71.23 42.901 71.23 42.901 71.23 42.901 71.433 42.901 71.635 42.901 71.635 41.533 71.635z"/>
  <path stroke-width="0.13" stroke-linejoin="round" fill="#000000" d="M43.228 71.635L43.228 71.635 43.228 68.25 43.228 68.25 43.371 68.25 43.517 68.25 43.517 68.25 43.517 71.635 43.517 71.635 43.371 71.635 43.228 71.635 43.228 71.635z"/>
  <path stroke-width="0.13" stroke-linejoin="round" fill="#000000" d="M44.28 71.635L44.28 71.635 44.28 71.635 44.14 71.635 44 71.635 44 71.635 44 68.25 44 68.25 44.207 68.25 44.414 68.25 44.414 68.25 45.024 71.132 45.024 71.132 45.024 71.132 45.628 68.25 45.628 68.25 45.837 68.25 46.043 68.25 46.043 68.25 46.043 71.635 46.043 71.635 45.905 71.635 45.764 71.635 45.764 71.635 45.764 68.771 45.762 68.771 45.162 71.635 45.024 71.635 44.883 71.635 44.28 68.78 44.28 68.78 44.28 71.635z"/>
  <path stroke-width="0.13" stroke-linejoin="round" fill="#000000" d="M7.003 67.733L7.003 67.733 7.003 67.733 7.003 64.347 7.003 64.347 7.147 64.347 7.291 64.347 7.291 64.347 7.291 67.326 7.291 67.326 8.372 67.326 8.372 67.326 8.372 67.53 8.372 67.733 8.372 67.733 7.003 67.733z"/>
  <path stroke-width="0.13" stroke-linejoin="round" fill="#000000" d="M8.698 67.733L8.698 67.733 8.698 64.347 8.698 64.347 8.843 64.347 8.987 64.347 8.987 64.347 8.987 67.733 8.987 67.733 8.845 67.733 8.698 67.733 8.698 67.733z"/>
  <path stroke-width="0.13" stroke-linejoin="round" fill="#000000" d="M9.752 67.733L9.752 67.733 9.752 67.733 9.612 67.733 9.471 67.733 9.471 67.733 9.471 64.347 9.471 64.347 9.679 64.347 9.887 64.347 9.887 64.347 10.497 67.227 10.496 67.227 10.496 67.227 11.101 64.347 11.101 64.347 11.307 64.347 11.516 64.347 11.516 64.347 11.516 67.733 11.516 67.733 11.377 67.733 11.236 67.733 11.236 67.733 11.236 64.868 11.234 64.868 10.634 67.733 10.493 67.733 10.355 67.733 9.753 64.878 9.752 64.878 9.752 67.733z"/>
 </g>
 <g id="Picture_x0020_#">
  <text transform="matrix(0 -1 1 0 73.822 94.887)" stroke="none" fill="#000000" font-family="'Helvetica'" font-size="2.117">370 524</text>
 </g>
 <g id="Pos">
 </g>
</svg>
