<?xml version="1.0" encoding="utf-8"?>
<!DOCTYPE svg PUBLIC "-//W3C//DTD SVG 1.1//EN" "http://www.w3.org/Graphics/SVG/1.1/DTD/svg11.dtd">
<!-- Generator: PTC Arbortext IsoDraw 7.3 -->
<svg width="100%" height="100%" viewBox="0 0 75.006 75.006"
 xmlns="http://www.w3.org/2000/svg" xmlns:xlink="http://www.w3.org/1999/xlink"
 fill-rule="evenodd" clip-rule="evenodd" stroke="#000000" stroke-linecap="round" fill="none" xml:space="preserve">
 <g id="A4_x0020_half_x0020_frame">
  <path stroke="#FFFFFF" stroke-width="0.006" d="M75.003 75.003L0.003 75.003L0.003 0.003L75.003 0.003L75.003 75.003z"/>
 </g>
 <g id="Colour">
  <path stroke="none" fill="#B2B2B2" d="M6.203 35.408C6.203 35.408 6.843 33.423 7.064 32.915 7.283 32.408 8.101 30.986 8.871 30.469 9.577 29.995 10.162 29.696 10.823 29.521 11.484 29.344 13.711 28.682 13.711 28.682L15.43 28.143 16.082 27.812 16.147 27.481C16.147 27.481 16.556 26.489 16.775 26.28 16.996 26.07 17.69 25.275 17.69 25.275L18.353 24.968 21.251 23.964 25.176 22.597 31.338 20.403 33.478 19.719C33.478 19.719 34.844 19.245 35.209 19.07 35.573 18.893 37.204 18.01 37.204 18.01L38.45 16.996 40.026 15.928C40.026 15.928 42.011 14.99 42.871 14.858 43.731 14.725 46.112 14.615 46.112 14.615 46.112 14.615 48.613 14.494 49.441 14.605 50.268 14.714 54.865 15.189 55.856 18.925L61.027 20.37 64.037 22.211C64.037 22.211 66.418 24.35 66.584 25.111 66.748 25.871 67.079 26.853 67.079 26.853 67.079 26.853 67.718 27.37 67.775 27.425 67.829 27.481 69.009 28.693 69.131 29.829 69.251 30.964 69.471 31.759 69.251 32.387 69.031 33.015 67.301 36.024 67.301 36.024 67.301 36.024 65.921 37.591 65.691 37.744 65.459 37.899 64.18 38.737 64.18 38.737L61.82 39.673 57.831 41.128 55.868 42.496C55.868 42.496 53.122 46.509 52.682 47.27 52.24 48.03 50.246 49.761 50.246 49.761L48.658 51.029 46.695 52.154 42.793 54.435 40.225 55.548 35.021 56.993 31.042 57.545 28.385 57.323 25.925 57.082 23.533 56.287 20.556 55.162 17.646 53.564 8.96 48.527 5.509 46.067C5.509 46.067 4.075 44.094 3.855 43.323 3.634 42.551 3.547 41.073 3.547 41.073L4.054 39.034C4.054 39.034 4.583 37.579 4.847 37.281 5.112 36.984 6.203 35.408 6.203 35.408z"/>
 </g>
 <g id="Standard_x0020_layer">
  <g>
   <path stroke-width="0.3" stroke-linejoin="round" d="M3.337 44.536C3.337 44.536 4.131 58.756 4.219 59.463C4.307 60.167 4.77 61.865 5.631 62.88C6.49 63.895 6.578 64.313 7.019 65.305C7.461 66.298 8.231 66.87 8.519 67.025"/>
   <path stroke-width="0.3" stroke-linejoin="round" d="M15.794 69.207C16.742 71.259 22.387 72.691 29.774 71.456C29.686 72.096 30.634 72.427 31.647 71.831"/>
   <path stroke-width="0.3" stroke-linejoin="round" d="M38.493 68.843C42.396 67.543 50.984 62.945 50.631 58.625C50.643 57.929 50.698 57.39 50.829 57.137"/>
   <path stroke-width="0.3" stroke-linejoin="round" d="M57.686 53.984C60.201 53.057 61.347 52.494 61.765 52.164"/>
   <path stroke-width="0.3" stroke-linejoin="round" d="M61.89 52.268C62.024 52.546 62.387 52.54 62.582 52.399C63.845 51.488 64.228 51.136 64.566 50.106C64.566 50.106 64.713 44.182 64.67 43.668C64.626 43.154 64.552 43.006 64.405 42.933"/>
   <path stroke-width="0.3" stroke-linejoin="round" d="M64.698 47.77C65.227 47.079 65.64 45.712 65.727 45.314L66.814 38.201"/>
   <path stroke-width="0.3" stroke-linejoin="round" d="M3.562 40.826C3.145 42.021 2.796 43.377 3.242 44.448C3.756 45.682 4.881 47.38 6.953 48.68C9.025 49.981 15.618 53.774 20.336 56.463C25.054 59.154 32.265 59.506 35.551 58.515C38.835 57.523 40.929 56.773 42.496 56.133C44.06 55.493 47.368 53.42 48.228 52.892C49.088 52.362 51.667 50.179 52.374 49.231C53.079 48.283 55.085 45.064 55.945 43.984C56.804 42.904 58.018 42.353 58.987 42.043C59.957 41.735 61.149 41.295 63.198 40.545C65.25 39.795 66.837 38.427 67.102 37.722"/>
   <path stroke-width="0.3" stroke-linejoin="round" d="M69.298 32.274L70.549 32.57L70.563 32.82L67.623 37.759L66.344 37.582"/>
   <g>
    <path stroke-width="0.1" d="M13.382 68.79C13.382 68.79 12.605 68.566 11.8 68.566C10.993 68.566 10.215 68.79 10.215 68.79"/>
    <path stroke-width="0.25" d="M14.971 67.209L14.971 68.593"/>
    <path stroke-width="0.25" d="M8.637 67.209L8.637 68.593"/>
    <path stroke-width="0.1" d="M10.215 68.79L10.215 70.174"/>
    <path stroke-width="0.1" d="M13.382 68.79L13.382 70.174"/>
    <path stroke-width="0.1" d="M14.544 66.983C14.544 66.109 13.316 65.4 11.801 65.4C10.285 65.4 9.057 66.109 9.057 66.983C9.057 67.858 10.285 68.567 11.801 68.567C13.316 68.567 14.544 67.858 14.544 66.983z"/>
    <path stroke-width="0.1" d="M13.382 68.79C13.382 68.79 13.673 68.272 14.175 67.778C14.676 67.281 14.964 67.209 14.964 67.209"/>
    <path stroke-width="0.1" d="M10.215 68.79C10.215 68.79 9.925 68.272 9.423 67.778C8.922 67.281 8.634 67.209 8.634 67.209"/>
    <path stroke-width="0.25" d="M14.964 67.209C14.964 67.209 14.673 66.691 14.173 66.195C13.672 65.7 13.382 65.626 13.382 65.626"/>
    <path stroke-width="0.25" d="M8.634 67.209C8.634 67.209 8.923 66.691 9.425 66.195C9.926 65.7 10.215 65.626 10.215 65.626"/>
    <path stroke-width="0.25" d="M13.382 65.626C13.382 65.626 12.605 65.402 11.8 65.402C10.993 65.402 10.215 65.626 10.215 65.626"/>
    <path stroke-width="0.25" d="M10.111 66.983C10.111 67.522 10.868 67.959 11.801 67.959C12.734 67.959 13.49 67.522 13.49 66.983"/>
    <path stroke-width="0.1" d="M13.49 66.983C13.49 66.444 12.734 66.007 11.801 66.007C10.868 66.007 10.111 66.444 10.111 66.983"/>
    <path stroke-width="0.25" d="M7.833 69.739C7.833 70.995 9.609 72.013 11.798 72.013C13.987 72.013 15.763 70.995 15.763 69.739"/>
    <path stroke-width="0.25" d="M15.763 69.012C15.763 68.498 15.467 68.024 14.971 67.647"/>
    <path stroke-width="0.25" d="M8.637 67.64C8.09 68.052 7.83 68.537 7.833 69.012"/>
    <path stroke-width="0.1" d="M7.833 69.012C7.833 70.269 9.609 71.286 11.798 71.286C13.987 71.286 15.763 70.269 15.763 69.012"/>
    <path stroke-width="0.25" d="M7.833 69.739L7.833 68.936"/>
    <path stroke-width="0.25" d="M15.763 69.739L15.763 68.936"/>
    <path stroke-width="0.1" d="M13.382 70.174C13.382 70.174 12.605 69.95 11.8 69.95C10.993 69.95 10.215 70.174 10.215 70.174"/>
    <path stroke-width="0.1" d="M13.382 70.174C13.382 70.174 13.673 69.656 14.175 69.162C14.676 68.665 14.964 68.593 14.964 68.593"/>
    <path stroke-width="0.1" d="M10.215 70.174C10.215 70.174 9.925 69.656 9.423 69.162C8.922 68.665 8.634 68.593 8.634 68.593"/>
   </g>
   <g>
    <path stroke-width="0.1" d="M2.528 56.137C2.528 56.137 1.75 55.912 0.945 55.912C0.693 55.912 0.444 55.935 0.22 55.965"/>
    <path stroke-width="0.1" d="M2.528 56.137L2.528 57.521"/>
    <path stroke-width="0.1" d="M0.284 55.868C0.496 55.898 0.718 55.914 0.946 55.914C2.462 55.914 3.69 55.206 3.69 54.331"/>
    <path stroke-width="0.1" d="M3.69 54.331C3.69 53.456 2.462 52.746 0.946 52.746C0.687 52.746 0.435 52.768 0.197 52.807"/>
    <path stroke-width="0.1" d="M2.528 56.137C2.528 56.137 2.819 55.619 3.319 55.124C3.578 54.868 3.782 54.725 3.916 54.646"/>
    <path stroke-width="0.25" d="M3.827 54.131C3.698 53.957 3.527 53.747 3.318 53.542C2.817 53.046 2.528 52.972 2.528 52.972"/>
    <path stroke-width="0.25" d="M0.426 52.777C0.361 52.783 0.298 52.79 0.237 52.798"/>
    <path stroke-width="0.25" d="M2.528 52.972C2.528 52.972 1.75 52.749 0.945 52.749C0.768 52.749 0.592 52.759 0.426 52.777"/>
    <path stroke-width="0.25" d="M0.221 55.212C0.441 55.273 0.687 55.307 0.946 55.307C1.879 55.307 2.637 54.869 2.637 54.331"/>
    <path stroke-width="0.1" d="M2.637 54.331C2.637 53.792 1.879 53.354 0.946 53.354C0.647 53.354 0.365 53.399 0.121 53.478"/>
    <path stroke-width="0.25" d="M0.208 59.32C0.447 59.345 0.693 59.359 0.944 59.359C2.228 59.359 3.368 59.009 4.094 58.466"/>
    <path stroke-width="0.1" d="M0.238 58.597C0.467 58.619 0.703 58.633 0.944 58.633C2.188 58.633 3.298 58.304 4.025 57.79"/>
    <path stroke-width="0.1" d="M2.528 57.521C2.528 57.521 1.75 57.296 0.945 57.296C0.675 57.296 0.408 57.322 0.172 57.354"/>
    <path stroke-width="0.1" d="M2.528 57.521C2.528 57.521 2.819 57.003 3.319 56.509C3.589 56.241 3.797 56.097 3.931 56.021"/>
   </g>
   <g>
    <path stroke-width="0.1" d="M2.557 50.67C2.557 50.67 1.781 50.445 0.975 50.445C0.71 50.445 0.449 50.469 0.218 50.5"/>
    <path stroke-width="0.1" d="M2.557 50.67L2.557 52.054"/>
    <path stroke-width="0.1" d="M0.252 50.39C0.483 50.426 0.725 50.445 0.976 50.445C2.246 50.445 3.313 49.948 3.625 49.273"/>
    <path stroke-width="0.1" d="M3.641 48.487C3.351 47.793 2.267 47.279 0.976 47.279C0.733 47.279 0.497 47.296 0.272 47.332"/>
    <path stroke-width="0.1" d="M2.557 50.67C2.557 50.67 2.849 50.152 3.35 49.655C3.407 49.6 3.46 49.549 3.512 49.503"/>
    <path stroke-width="0.25" d="M3.415 48.142C3.392 48.118 3.371 48.097 3.349 48.073C2.847 47.579 2.557 47.505 2.557 47.505"/>
    <path stroke-width="0.25" d="M0.482 47.305C0.395 47.314 0.31 47.323 0.228 47.335"/>
    <path stroke-width="0.25" d="M2.557 47.505C2.557 47.505 1.781 47.28 0.975 47.28C0.807 47.28 0.64 47.289 0.482 47.305"/>
    <path stroke-width="0.25" d="M0.353 49.77C0.545 49.814 0.756 49.838 0.976 49.838C1.909 49.838 2.665 49.402 2.665 48.862"/>
    <path stroke-width="0.1" d="M2.665 48.862C2.665 48.323 1.909 47.887 0.976 47.887C0.771 47.887 0.574 47.908 0.392 47.945"/>
    <path stroke-width="0.1" d="M2.665 52.948C3.033 52.847 3.37 52.716 3.665 52.561"/>
    <path stroke-width="0.1" d="M2.557 52.054C2.557 52.054 1.781 51.829 0.975 51.829C0.751 51.829 0.53 51.845 0.327 51.871"/>
    <path stroke-width="0.1" d="M2.557 52.054C2.557 52.054 2.849 51.536 3.35 51.04C3.447 50.944 3.536 50.863 3.617 50.796"/>
   </g>
   <g>
    <path stroke-width="0.1" d="M37.313 71.055C37.313 71.055 36.536 70.829 35.729 70.829C34.923 70.829 34.146 71.055 34.146 71.055"/>
    <path stroke-width="0.25" d="M38.902 69.472L38.902 70.856"/>
    <path stroke-width="0.25" d="M32.567 69.472L32.567 70.856"/>
    <path stroke-width="0.1" d="M34.146 71.055L34.146 72.438"/>
    <path stroke-width="0.1" d="M37.313 71.055L37.313 72.438"/>
    <path stroke-width="0.1" d="M38.473 69.248C38.473 68.373 37.246 67.664 35.731 67.664C34.216 67.664 32.987 68.373 32.987 69.248C32.987 70.123 34.216 70.831 35.731 70.831C37.246 70.831 38.473 70.123 38.473 69.248z"/>
    <path stroke-width="0.1" d="M37.313 71.055C37.313 71.055 37.603 70.537 38.104 70.042C38.606 69.546 38.895 69.472 38.895 69.472"/>
    <path stroke-width="0.1" d="M34.146 71.055C34.146 71.055 33.853 70.537 33.353 70.042C32.851 69.546 32.564 69.472 32.564 69.472"/>
    <path stroke-width="0.25" d="M38.895 69.472C38.895 69.472 38.603 68.954 38.103 68.459C37.601 67.963 37.313 67.89 37.313 67.89"/>
    <path stroke-width="0.25" d="M32.564 69.472C32.564 69.472 32.853 68.954 33.354 68.459C33.856 67.963 34.146 67.89 34.146 67.89"/>
    <path stroke-width="0.25" d="M37.313 67.89C37.313 67.89 36.536 67.665 35.729 67.665C34.923 67.665 34.146 67.89 34.146 67.89"/>
    <path stroke-width="0.25" d="M34.04 69.248C34.04 69.787 34.798 70.224 35.731 70.224C36.664 70.224 37.42 69.787 37.42 69.248"/>
    <path stroke-width="0.1" d="M37.42 69.248C37.42 68.709 36.664 68.272 35.731 68.272C34.798 68.272 34.04 68.709 34.04 69.248"/>
    <path stroke-width="0.25" d="M31.763 72.003C31.763 73.259 33.539 74.277 35.728 74.277C37.917 74.277 39.694 73.259 39.694 72.003"/>
    <path stroke-width="0.25" d="M39.694 71.275C39.694 70.762 39.396 70.287 38.902 69.912"/>
    <path stroke-width="0.25" d="M32.567 69.903C32.021 70.316 31.76 70.802 31.763 71.275"/>
    <path stroke-width="0.1" d="M31.763 71.275C31.763 72.531 33.539 73.549 35.728 73.549C37.917 73.549 39.694 72.531 39.694 71.275"/>
    <path stroke-width="0.25" d="M31.763 72.003L31.763 71.2"/>
    <path stroke-width="0.25" d="M39.694 72.003L39.694 71.2"/>
    <path stroke-width="0.1" d="M37.313 72.438C37.313 72.438 36.536 72.213 35.729 72.213C34.923 72.213 34.146 72.438 34.146 72.438"/>
    <path stroke-width="0.1" d="M37.313 72.438C37.313 72.438 37.603 71.921 38.104 71.426C38.606 70.93 38.895 70.856 38.895 70.856"/>
    <path stroke-width="0.1" d="M34.146 72.438C34.146 72.438 33.853 71.921 33.353 71.426C32.851 70.93 32.564 70.856 32.564 70.856"/>
   </g>
   <g>
    <path stroke-width="0.1" d="M56.421 56.267C56.421 56.267 55.643 56.042 54.838 56.042C54.03 56.042 53.255 56.267 53.255 56.267"/>
    <path stroke-width="0.25" d="M58.009 54.685L58.009 56.069"/>
    <path stroke-width="0.25" d="M51.676 54.685L51.676 56.069"/>
    <path stroke-width="0.1" d="M53.255 56.267L53.255 57.652"/>
    <path stroke-width="0.1" d="M56.421 56.267L56.421 57.652"/>
    <path stroke-width="0.1" d="M57.582 54.46C57.582 53.585 56.354 52.877 54.84 52.877C53.323 52.877 52.095 53.585 52.095 54.46C52.095 55.335 53.323 56.043 54.84 56.043C56.354 56.043 57.582 55.335 57.582 54.46z"/>
    <path stroke-width="0.1" d="M56.421 56.267C56.421 56.267 56.713 55.75 57.213 55.253C57.715 54.758 58.003 54.685 58.003 54.685"/>
    <path stroke-width="0.1" d="M53.255 56.267C53.255 56.267 52.963 55.75 52.462 55.253C51.96 54.758 51.671 54.685 51.671 54.685"/>
    <path stroke-width="0.25" d="M58.003 54.685C58.003 54.685 57.713 54.167 57.212 53.671C56.71 53.176 56.421 53.103 56.421 53.103"/>
    <path stroke-width="0.25" d="M51.671 54.685C51.671 54.685 51.963 54.167 52.463 53.671C52.965 53.176 53.255 53.103 53.255 53.103"/>
    <path stroke-width="0.25" d="M56.421 53.103C56.421 53.103 55.643 52.878 54.838 52.878C54.03 52.878 53.255 53.103 53.255 53.103"/>
    <path stroke-width="0.25" d="M53.149 54.46C53.149 55 53.905 55.436 54.84 55.436C55.773 55.436 56.53 55 56.53 54.46"/>
    <path stroke-width="0.1" d="M56.53 54.46C56.53 53.921 55.773 53.484 54.84 53.484C53.905 53.484 53.149 53.921 53.149 54.46"/>
    <path stroke-width="0.25" d="M50.871 57.216C50.871 58.472 52.646 59.49 54.837 59.49C57.027 59.49 58.801 58.472 58.801 57.216"/>
    <path stroke-width="0.25" d="M58.801 56.488C58.801 55.973 58.505 55.5 58.009 55.125"/>
    <path stroke-width="0.25" d="M51.676 55.115C51.13 55.529 50.868 56.015 50.871 56.488"/>
    <path stroke-width="0.1" d="M50.871 56.488C50.871 57.744 52.646 58.762 54.837 58.762C57.027 58.762 58.801 57.744 58.801 56.488"/>
    <path stroke-width="0.25" d="M50.871 57.216L50.871 56.412"/>
    <path stroke-width="0.25" d="M58.801 57.216L58.801 56.412"/>
    <path stroke-width="0.1" d="M56.421 57.652C56.421 57.652 55.643 57.426 54.838 57.426C54.03 57.426 53.255 57.652 53.255 57.652"/>
    <path stroke-width="0.1" d="M56.421 57.652C56.421 57.652 56.713 57.134 57.213 56.637C57.715 56.143 58.003 56.069 58.003 56.069"/>
    <path stroke-width="0.1" d="M53.255 57.652C53.255 57.652 52.963 57.134 52.462 56.637C51.96 56.143 51.671 56.069 51.671 56.069"/>
   </g>
   <path stroke-width="0.131" stroke-linejoin="round" d="M61.743 51.591C61.743 51.591 61.854 48.042 61.899 46.895C61.942 45.749 63.067 43.256 64.236 42.838"/>
   <path stroke-width="0.131" stroke-linejoin="round" d="M51.911 51.746C52.924 49.188 54.093 47.953 54.908 48.835C55.725 49.716 55.746 52.121 55.593 52.847"/>
   <path stroke-width="0.131" stroke-linejoin="round" d="M37.512 58.581L37.71 67.51"/>
   <path stroke-width="0.131" stroke-linejoin="round" d="M30.986 71.081L31.736 60.057"/>
   <path stroke-width="0.131" stroke-linejoin="round" d="M23.158 69.736L28.076 59.441"/>
   <path stroke-width="0.131" stroke-linejoin="round" d="M13.899 64.18C15.707 64.578 16.367 64.974 17.449 66.01C18.528 67.048 19.984 67.995 21.086 68.569C22.189 69.141 22.585 69.45 22.585 69.45"/>
   <path stroke-width="0.131" stroke-linejoin="round" d="M4.727 59.573C5.719 59.726 7.283 60.719 8.188 61.997C9.092 63.277 9.842 63.673 12.994 64.027"/>
   <path stroke-width="0.131" stroke-linejoin="round" d="M4.352 59.682C4.859 60.631 5.807 61.6 6.269 62.197C6.732 62.792 7.064 63.343 7.24 63.805C7.416 64.269 8.166 64.688 8.409 64.843C8.65 64.996 10.239 65.525 10.239 65.525"/>
   <path stroke-width="0.131" stroke-linejoin="round" d="M14.173 66.195C15.111 66.474 15.541 67.037 16.126 67.487C17.382 68.459 18.286 68.878 19.057 69.164C19.829 69.45 22.608 70.024 22.608 70.024"/>
   <path stroke-width="0.131" stroke-linejoin="round" d="M13.766 63.034C13.766 63.034 14.803 56.773 15.332 55.759C15.861 54.743 16.346 54.545 16.346 54.545"/>
   <path stroke-width="0.3" stroke-linejoin="round" d="M20.513 24.088C20.676 23.829 20.783 23.652 20.865 23.524C21.175 23.038 22.676 21.964 23.158 21.803C28.097 20.149 30.765 19.004 31.846 17.525"/>
   <path stroke-width="0.3" stroke-linejoin="round" d="M0.802 37.597C2.265 37.234 3.96 36.683 5.705 36"/>
   <path stroke-width="0.3" stroke-linejoin="round" d="M31.405 17.327L32.661 17.504L35.639 12.367L34.161 12.124"/>
   <path stroke-width="0.3" stroke-linejoin="round" d="M31.846 17.637L31.468 20.425"/>
   <path stroke-width="0.3" stroke-linejoin="round" d="M32.045 6.083C33.191 6.964 35.087 9.301 34.161 12.035"/>
   <path stroke-width="0.3" stroke-linejoin="round" d="M32.398 7.339C31.867 5.157 31.582 3.966 30.214 2.754C28.847 1.54 27.789 0.725 27.789 0.725"/>
   <path stroke-width="0.131" stroke-linejoin="round" d="M10.855 28.528C12.839 27.69 15.089 25.574 16.103 23.986C17.117 22.399 18.263 20.722 18.882 19.708C19.498 18.695 20.954 17.945 22.277 17.548C23.6 17.15 25.408 16.577 27.393 15.961C29.376 15.343 32.86 12.432 32.375 8.288"/>
   <path stroke-width="0.131" stroke-linejoin="round" d="M31.199 16.608C32.345 15.432 33.816 13.461 33.993 12.462"/>
   <path stroke-width="0.131" stroke-linejoin="round" d="M11.253 20.062C11.253 20.062 15.882 14.064 16.632 13.05C17.382 12.035 19.486 10.704 21.131 10.316C26.554 9.038 30.038 7.097 28.803 2.157"/>
   <path stroke-width="0.131" stroke-linejoin="round" d="M4.418 19.489C6.49 19.224 8.916 20.503 9.489 22.399C10.061 24.295 10.15 26.765 10.15 26.765"/>
   <path stroke-width="0.131" stroke-linejoin="round" d="M0.802 32.805C0.802 32.805 3.948 32.247 4.682 31.983"/>
   <path stroke-width="0.131" stroke-linejoin="round" d="M6.211 31.6C6.641 31.678 7.083 31.722 7.506 31.699"/>
   <path stroke-width="0.131" stroke-linejoin="round" d="M2.272 20.106C1.596 20.958 1.33 22.31 1.948 23.986C2.565 25.661 3.212 28.367 3.389 29.571"/>
   <path stroke-width="0.131" stroke-linejoin="round" d="M3.359 26.544C4.461 25.353 7.064 25.397 8.827 26.324"/>
   <path stroke-width="0.131" stroke-linejoin="round" d="M29.686 60.036L29.839 70.884"/>
  </g>
  <g>
   <path stroke-width="0.3" stroke-linejoin="round" d="M6.182 35.584C7.086 32.518 7.945 30.689 9.885 29.829C11.826 28.969 16.309 28.528 17.382 26.632"/>
   <path stroke-width="0.3" stroke-linejoin="round" d="M16.163 27.617C16.265 26.765 17.265 25.338 18.323 24.942C19.382 24.545 33.816 19.576 34.713 19.254C35.609 18.929 36.462 18.489 36.947 18.135C37.432 17.783 39.027 16.635 39.475 16.314C40.901 15.285 42.313 15.006 43.223 14.872C44.134 14.74 47.015 14.55 48.411 14.535C49.808 14.519 51.396 14.859 52.587 15.446C53.777 16.033 55.38 16.843 55.88 18.9"/>
   <path stroke-width="0.3" stroke-linejoin="round" d="M54.072 17.577C54.423 18.121 55.468 18.783 56.555 19.15C57.643 19.518 60.259 20.208 61.024 20.341C63.567 21.547 66.212 23.853 66.579 25.163C66.947 26.471 67.301 28.073 67.418 28.573"/>
   <path stroke-width="0.3" stroke-linejoin="round" d="M67.069 26.786C68.888 28.198 70.15 30.975 68.745 33.5C68.149 34.57 67.641 35.429 67.2 36.124C66.76 36.819 65.436 38.307 62.923 39.21C60.409 40.115 59.406 40.539 57.886 41.128C57.543 41.262 56.088 42.22 55.901 42.506C55.713 42.793 52.99 46.774 52.307 47.732C51.624 48.692 49.276 50.698 48.206 51.283C47.137 51.866 43.311 54.082 42.859 54.369C42.408 54.655 40.433 55.537 39.762 55.725C39.088 55.912 37.357 56.42 35.914 56.773C34.469 57.125 31.681 57.643 30.092 57.478C28.506 57.313 26.103 57.246 24.856 56.805C23.611 56.365 20.832 55.372 19.995 54.887C19.157 54.402 8.659 48.368 7.637 47.71C1.948 44.051 3.051 39.442 6.094 35.584"/>
   <path stroke-width="0.131" stroke-linejoin="round" d="M5.961 36.378C5.387 38.78 5.828 40.72 8.343 42.22C10.855 43.719 19.146 48.703 22.056 50.268C24.966 51.834 29.266 53.201 35.042 51.636C35.042 51.636 37.755 50.621 38.085 50.488C38.417 50.356 38.395 50.29 38.46 50.136"/>
   <path stroke-width="0.131" stroke-linejoin="round" d="M4.211 38.744C3.742 40.801 3.947 43.243 5.945 44.771C7.945 46.299 16.646 51.414 20.881 53.737C25.114 56.06 31.169 56.223 35.639 54.972C38.578 54.149 41.341 53.179 42.606 52.737C43.869 52.296 47.31 50.326 48.426 49.591C49.543 48.856 51.131 47.122 51.984 46.034C52.837 44.947 55.1 41.536 55.716 40.685C56.335 39.832 57.07 39.627 57.776 39.332C58.481 39.037 61.302 37.951 63.008 37.304C64.712 36.656 66.037 35.569 66.859 34.363C67.683 33.158 69.269 31.217 68.271 28.161"/>
   <path stroke-width="0.131" stroke-linejoin="round" d="M45.604 47.064C46.134 47.064 46.898 46.77 47.515 46.329C48.133 45.887 50.043 44.094 50.543 43.448C51.042 42.801 53.835 39.039 54.247 38.274C54.658 37.509 55.953 36.774 56.804 36.509C57.658 36.246 60.774 35.246 62.097 34.746C63.42 34.246 65.212 33.012 66.007 31.777C66.801 30.542 67.477 29.425 67.418 28.984"/>
   <path stroke-width="0.131" stroke-linejoin="round" d="M54.585 16.754C54.232 16.666 53.85 16.739 54.012 17.283"/>
   <path stroke-width="0.131" stroke-linejoin="round" d="M17.25 25.692C17.675 25.692 17.646 26.03 17.455 26.426"/>
   <path stroke-width="0.3" stroke-linejoin="round" d="M38.593 49.387C38.564 48.99 38.106 47.229 37.947 46.682C37.549 45.329 37.197 43.639 37.462 42.786"/>
   <path stroke-width="0.131" stroke-linejoin="round" d="M37.682 42.39C37.99 41.817 38.197 41.448 39.137 41.155C40.078 40.86 41.856 40.582 42.723 41.655C43.591 42.728 44.296 45.475 44.281 46.152"/>
   <path stroke-width="0.131" stroke-linejoin="round" d="M39.357 49.651C40.445 50.223 42.576 50.253 43.268 49.945C43.959 49.636 44.692 49.268 44.444 47.814"/>
   <g>
    <path stroke-width="0.3" stroke-linejoin="round" d="M39.718 47.335C39.718 47.335 39.755 46.145 39.762 46.057C39.768 45.969 39.865 45.874 39.975 45.792C40.085 45.712 40.262 45.594 40.262 45.594"/>
    <path stroke-width="0.3" stroke-linejoin="round" d="M40.093 45.587C40.093 45.587 40.093 45.329 40.093 45.249C40.093 45.167 40.246 45.037 40.445 45.042C41.054 45.057 41.299 45.015 41.378 44.932C41.526 44.777 41.923 44.807 41.981 45.021C42.039 45.234 42.289 45.249 42.421 45.271C42.554 45.292 42.959 45.176 42.966 45.652C42.973 46.131 42.966 46.63 42.966 46.63"/>
    <path stroke-width="0.3" stroke-linejoin="round" d="M40.704 46.212C40.753 46.271 40.753 46.348 40.747 46.515C40.743 46.679 40.737 47.512 40.737 47.512"/>
    <path stroke-width="0.3" stroke-linejoin="round" d="M42.412 46.067C42.478 46.151 42.594 46.289 42.59 46.432C42.584 46.575 42.59 47.49 42.59 47.49"/>
    <path stroke-width="0.3" stroke-linejoin="round" d="M39.695 47.468C39.96 47.832 40.947 48.207 41.697 48.13C42.445 48.052 42.963 47.904 42.963 46.756"/>
    <path stroke-width="0.131" stroke-linejoin="round" d="M39.82 46.064C40.012 46.174 40.143 46.079 40.173 46.064C40.203 46.049 40.466 45.969 40.621 46.145"/>
    <path stroke-width="0.131" stroke-linejoin="round" d="M40.893 46.74C40.981 46.762 41.195 46.777 41.246 46.594C41.298 46.409 41.526 46.094 41.834 46.262C42.143 46.432 42.268 46.6 42.488 46.482"/>
    <path stroke-width="0.131" stroke-linejoin="round" d="M42.386 45.984C42.356 45.829 42.363 45.74 42.488 45.704C42.612 45.667 42.908 45.726 42.929 45.564"/>
    <path stroke-width="0.131" stroke-linejoin="round" d="M39.843 47.35C40.026 47.02 40.415 46.52 40.643 46.887"/>
    <path stroke-width="0.131" stroke-linejoin="round" d="M40.804 47.82C40.856 47.893 41.066 47.978 41.121 47.814C41.289 47.305 41.548 46.697 41.856 47.005C42.164 47.314 42.408 47.768 42.511 47.725"/>
    <path stroke-width="0.3" stroke-linejoin="round" d="M43.031 46.341C43.683 46.654 44.1 47.137 44.094 47.676C44.082 48.595 42.837 49.328 41.31 49.311C39.784 49.293 38.555 48.533 38.567 47.609C38.573 47.075 38.996 46.603 39.651 46.305"/>
   </g>
   <path stroke-width="0.131" stroke-linejoin="round" d="M9.929 30.115C9.224 31.658 8.65 34.701 10.414 36.156"/>
   <path stroke-width="0.131" stroke-linejoin="round" d="M11.693 37.347L24.129 44.756"/>
   <path stroke-width="0.131" stroke-linejoin="round" d="M25.495 45.329C26.907 45.771 32.11 46.256 35.021 44.932"/>
   <path stroke-width="0.131" stroke-linejoin="round" d="M44.634 39.287C44.634 39.287 48.03 35.054 49.176 33.203C50.323 31.35 51.469 28.881 55.218 28.617"/>
   <path stroke-width="0.131" stroke-linejoin="round" d="M59.097 27.911C60.994 27.734 64.037 25.574 63.332 22.574"/>
  </g>
 </g>
 <g id="Picture_x0020_#">
  <g>
   <text transform="matrix(0 -1 1 0 73.817 73.989)" stroke="none" fill="#000000" font-family="'Helvetica'" font-size="2.117">387 897</text>
  </g>
 </g>
</svg>
