<?xml version="1.0" encoding="utf-8"?>
<!DOCTYPE svg PUBLIC "-//W3C//DTD SVG 1.1//EN" "http://www.w3.org/Graphics/SVG/1.1/DTD/svg11.dtd">
<!-- Generator: PTC Arbortext IsoDraw 7.3 -->
<svg width="100%" height="100%" viewBox="0 0 75.006 70.983"
 xmlns="http://www.w3.org/2000/svg" xmlns:xlink="http://www.w3.org/1999/xlink"
 fill-rule="evenodd" clip-rule="evenodd" stroke="#000000" stroke-linecap="round" fill="none" xml:space="preserve">
 <g id="A4_x0020_half_x0020_frame">
  <path stroke="#FFFFFF" stroke-width="0.006" d="M75.003 70.98L0.003 70.98L0.003 0.003L75.003 0.003L75.003 70.98z"/>
 </g>
 <g id="Standard_x0020_layer">
  <g>
   <g>
    <path stroke="#B2B2B2" stroke-width="0.3" stroke-linejoin="round" d="M8.214 50.558C8.05 50.665 7.966 50.801 7.966 50.93"/>
    <path stroke="#B2B2B2" stroke-width="0.3" stroke-linejoin="round" d="M17.073 50.253C17.073 50.106 16.977 49.972 16.821 49.871"/>
    <path stroke="#B2B2B2" stroke-width="0.3" stroke-linejoin="round" d="M11.727 53.34C11.727 53.194 11.631 53.06 11.477 52.959"/>
    <path stroke="#B2B2B2" stroke-width="0.3" stroke-linejoin="round" d="M5.541 52.101C5.373 52.212 5.291 52.347 5.291 52.481"/>
    <path stroke="#B2B2B2" stroke-width="0.3" stroke-linejoin="round" d="M13.561 47.472C13.396 47.579 13.311 47.713 13.31 47.844"/>
    <path stroke="#B2B2B2" stroke-width="0.3" stroke-linejoin="round" d="M19.745 48.71C19.745 48.564 19.65 48.43 19.495 48.329"/>
    <path stroke="#B2B2B2" stroke-width="0.3" stroke-linejoin="round" d="M16.234 45.929C16.068 46.036 15.986 46.17 15.984 46.302"/>
    <path stroke="#B2B2B2" stroke-width="0.3" stroke-linejoin="round" d="M22.417 47.167C22.419 47.021 22.323 46.887 22.167 46.786"/>
    <path stroke="#B2B2B2" stroke-width="0.3" stroke-linejoin="round" d="M10.887 49.015L13.112 47.729"/>
    <path stroke="#B2B2B2" stroke-width="0.3" stroke-linejoin="round" d="M17.073 50.253L17.073 51.396"/>
    <path stroke="#B2B2B2" stroke-width="0.3" stroke-linejoin="round" d="M13.112 47.729L16.821 49.871"/>
    <path stroke="#B2B2B2" stroke-width="0.3" stroke-linejoin="round" d="M11.477 52.959L7.767 50.817"/>
    <path stroke="#B2B2B2" stroke-width="0.3" stroke-linejoin="round" d="M11.727 54.482L11.727 53.34"/>
    <path stroke="#B2B2B2" stroke-width="0.3" stroke-linejoin="round" d="M5.543 52.101L7.767 50.817"/>
    <path stroke="#B2B2B2" stroke-width="0.3" stroke-linejoin="round" d="M5.291 53.625L5.291 52.481"/>
    <path stroke="#B2B2B2" stroke-width="0.3" stroke-linejoin="round" d="M13.561 47.472L15.785 46.186"/>
    <path stroke="#B2B2B2" stroke-width="0.3" stroke-linejoin="round" d="M19.745 48.709L19.745 49.853"/>
    <path stroke="#B2B2B2" stroke-width="0.3" stroke-linejoin="round" d="M15.785 46.186L19.495 48.329"/>
    <path stroke="#B2B2B2" stroke-width="0.3" stroke-linejoin="round" d="M16.234 45.929L18.458 44.643"/>
    <path stroke="#B2B2B2" stroke-width="0.3" stroke-linejoin="round" d="M22.417 47.167L22.417 48.31"/>
    <path stroke="#B2B2B2" stroke-width="0.3" stroke-linejoin="round" d="M18.458 44.643L22.167 46.786"/>
    <path stroke="#B2B2B2" stroke-width="0.13" stroke-linejoin="round" d="M8.439 50.451L8.282 50.518"/>
    <path stroke="#B2B2B2" stroke-width="0.13" stroke-linejoin="round" d="M16.754 49.832L16.597 49.765"/>
    <path stroke="#B2B2B2" stroke-width="0.13" stroke-linejoin="round" d="M13.112 47.729L13.112 47.752"/>
    <path stroke="#B2B2B2" stroke-width="0.13" stroke-linejoin="round" d="M5.767 51.993L5.61 52.061"/>
    <path stroke="#B2B2B2" stroke-width="0.13" stroke-linejoin="round" d="M11.41 52.92L11.252 52.85"/>
    <path stroke="#B2B2B2" stroke-width="0.13" stroke-linejoin="round" d="M7.767 50.817L7.767 50.838"/>
    <path stroke="#B2B2B2" stroke-width="0.13" stroke-linejoin="round" d="M13.785 47.363L13.628 47.432"/>
    <path stroke="#B2B2B2" stroke-width="0.13" stroke-linejoin="round" d="M19.426 48.289L19.271 48.222"/>
    <path stroke="#B2B2B2" stroke-width="0.13" stroke-linejoin="round" d="M15.785 46.186L15.785 46.21"/>
    <path stroke="#B2B2B2" stroke-width="0.13" stroke-linejoin="round" d="M16.457 45.82L16.3 45.89"/>
    <path stroke="#B2B2B2" stroke-width="0.13" stroke-linejoin="round" d="M22.1 46.746L21.943 46.679"/>
    <path stroke="#B2B2B2" stroke-width="0.13" stroke-linejoin="round" d="M18.458 44.643L18.458 44.665"/>
    <path stroke="#B2B2B2" stroke-width="0.13" stroke-linejoin="round" d="M6.269 52.619L8.676 54.009"/>
    <path stroke="#B2B2B2" stroke-width="0.13" d="M9.57 54.009L11.054 53.152"/>
    <path stroke="#B2B2B2" stroke-width="0.13" d="M14.906 51.029L16.39 50.17"/>
    <path stroke="#B2B2B2" stroke-width="0.13" d="M17.571 49.591L19.054 48.734"/>
    <path stroke="#B2B2B2" stroke-width="0.13" d="M20.274 47.99L21.76 47.134"/>
    <path stroke="#B2B2B2" stroke-width="0.3" stroke-linejoin="round" d="M14.4 51.795C14.4 51.649 14.304 51.517 14.148 51.415"/>
    <path stroke="#B2B2B2" stroke-width="0.3" stroke-linejoin="round" d="M8.215 50.558L10.441 49.274"/>
    <path stroke="#B2B2B2" stroke-width="0.3" stroke-linejoin="round" d="M14.4 51.795L14.4 52.939"/>
    <path stroke="#B2B2B2" stroke-width="0.3" stroke-linejoin="round" d="M10.441 49.274L14.15 51.415"/>
    <path stroke="#B2B2B2" stroke-width="0.13" d="M12.233 52.572L13.718 51.713"/>
    <path stroke="#B2B2B2" stroke-width="0.3" stroke-linejoin="round" d="M10.887 49.015C10.724 49.122 10.64 49.256 10.638 49.387"/>
   </g>
   <path stroke="#B2B2B2" stroke-width="0.13" stroke-linejoin="round" d="M24.864 59.551C24.887 59.539 24.91 59.526 24.928 59.515C26.861 58.399 26.861 54.78 24.928 51.433C24.754 51.131 24.57 50.841 24.397 50.594"/>
   <path stroke="#B2B2B2" stroke-width="0.13" stroke-linejoin="round" d="M24.396 58.194C25.728 57.219 25.701 54.619 24.399 52.146"/>
   <path stroke="#B2B2B2" stroke-width="0.13" stroke-linejoin="round" d="M9.547 66.766C10.878 65.793 10.852 63.192 9.55 60.719"/>
   <path stroke="#B2B2B2" stroke-width="0.3" stroke-linejoin="round" d="M3.612 57.286C2.28 58.261 2.306 60.862 3.609 63.335"/>
   <path stroke="#B2B2B2" stroke-width="0.3" stroke-linejoin="round" d="M27.843 57.832C27.861 57.822 27.882 57.811 27.899 57.801C29.832 56.686 29.832 53.066 27.899 49.719C25.984 46.404 22.894 44.597 20.954 45.646"/>
   <path stroke="#B2B2B2" stroke-width="0.13" stroke-linejoin="round" d="M24.397 52.143L24.397 50.595"/>
   <path stroke="#B2B2B2" stroke-width="0.13" stroke-linejoin="round" d="M24.397 58.192L24.397 59.74"/>
   <path stroke="#B2B2B2" stroke-width="0.13" stroke-linejoin="round" d="M3.609 53.454L9.548 56.883"/>
   <path stroke="#B2B2B2" stroke-width="0.13" stroke-linejoin="round" d="M24.397 48.31L9.548 56.883"/>
   <path stroke="#B2B2B2" stroke-width="0.13" stroke-linejoin="round" d="M9.548 60.716L9.548 56.883"/>
   <path stroke="#B2B2B2" stroke-width="0.13" stroke-linejoin="round" d="M9.548 69.456L9.548 66.766"/>
   <path stroke="#B2B2B2" stroke-width="0.3" stroke-linejoin="round" d="M24.397 50.595L24.397 48.31"/>
   <path stroke="#B2B2B2" stroke-width="0.3" stroke-linejoin="round" d="M24.397 48.31L22.417 47.167"/>
   <path stroke="#B2B2B2" stroke-width="0.3" stroke-linejoin="round" d="M5.291 52.481L3.609 53.454"/>
   <path stroke="#B2B2B2" stroke-width="0.3" stroke-linejoin="round" d="M3.609 53.454L3.609 57.287"/>
   <path stroke="#B2B2B2" stroke-width="0.3" stroke-linejoin="round" d="M3.609 63.337L3.609 66.028"/>
   <path stroke="#B2B2B2" stroke-width="0.3" stroke-linejoin="round" d="M3.609 66.028L10.538 70.028"/>
   <path stroke="#B2B2B2" stroke-width="0.3" stroke-linejoin="round" d="M20.573 45.865L20.954 45.646"/>
   <path stroke="#B2B2B2" stroke-width="0.13" stroke-linejoin="round" d="M14.4 52.939L11.925 54.368"/>
   <path stroke="#B2B2B2" stroke-width="0.13" stroke-linejoin="round" d="M11.925 54.368L11.727 54.253"/>
   <path stroke="#B2B2B2" stroke-width="0.13" stroke-linejoin="round" d="M11.727 54.482L9.252 55.911"/>
   <path stroke="#B2B2B2" stroke-width="0.13" stroke-linejoin="round" d="M9.252 55.911L5.291 53.625"/>
   <path stroke="#B2B2B2" stroke-width="0.13" stroke-linejoin="round" d="M17.073 51.396L14.598 52.826"/>
   <path stroke="#B2B2B2" stroke-width="0.13" stroke-linejoin="round" d="M14.598 52.826L14.4 52.71"/>
   <path stroke="#B2B2B2" stroke-width="0.13" stroke-linejoin="round" d="M19.745 49.853L17.269 51.281"/>
   <path stroke="#B2B2B2" stroke-width="0.13" stroke-linejoin="round" d="M17.269 51.281L17.073 51.167"/>
   <path stroke="#B2B2B2" stroke-width="0.13" stroke-linejoin="round" d="M22.417 48.31L19.943 49.738"/>
   <path stroke="#B2B2B2" stroke-width="0.13" stroke-linejoin="round" d="M19.943 49.738L19.745 49.624"/>
   <path stroke="#B2B2B2" stroke-width="0.3" stroke-linejoin="round" d="M27.843 57.832L27.6 57.972L25.106 59.411L24.864 59.551L24.638 59.658L24.397 59.74L24.155 59.881L21.67 61.316L21.428 61.456L21.289 61.698L19.588 64.641L19.449 64.885L19.205 65.025L10.782 69.888L10.538 70.028"/>
   <path stroke="#B2B2B2" stroke-width="0.13" stroke-linejoin="round" d="M22.65 53.179L11.878 59.399"/>
   <path stroke="#B2B2B2" stroke-width="0.13" stroke-linejoin="round" d="M24.397 58.192L9.548 66.766"/>
  </g>
 </g>
 <g id="Blow-up">
  <g>
   <path stroke="#FFFFFF" stroke-width="1.058" stroke-linejoin="round" fill="#FFFFFF" d="M22.525 41.716L29.455 41.716 23.408 54.009 37.21 41.716 73.134 41.716 73.134 0.966 22.525 0.966 22.525 41.716z"/>
   <path stroke-width="0.3" stroke-linejoin="round" d="M22.525 41.716L29.455 41.716L23.408 54.009L37.21 41.716L73.134 41.716L73.134 0.966L22.525 0.966L22.525 41.716z"/>
  </g>
  <path stroke="none" fill="#B2B2B2" id="AUTOID_5179" d="M36.603 37.936L35.17 35.557C35.17 35.557 34.909 35.216 34.566 34.99 34.222 34.762 32.762 33.856 31.98 31.984 31.98 31.984 31.806 31.457 31.571 31.275 31.336 31.091 30.838 30.658 30.911 29.849 30.986 29.038 31.207 28.716 31.692 28.452 32.176 28.189 32.753 28.025 32.59 27.442 32.59 27.442 31.939 26.792 32.21 26.475 32.484 26.16 32.573 26.006 32.573 26.006 32.573 26.006 32.49 25.856 33.042 25.538 33.595 25.219 36.231 23.521 36.231 23.521 36.231 23.521 36.302 23.16 36.484 23.035 36.667 22.911 36.709 22.89 36.709 22.89 36.709 22.89 36.551 22.719 36.908 22.493 37.267 22.269 37.786 21.939 37.786 21.939 37.786 21.939 38.085 21.725 38.454 21.882 38.825 22.039 41.573 23.658 41.832 23.972 42.09 24.286 43.819 26.28 43.991 26.574 44.165 26.868 44.628 27.67 44.765 27.873 44.904 28.077 45.838 29.295 45.927 29.823 46.017 30.35 45.676 31.184 45.621 31.277 45.564 31.368 44.924 33.561 44.29 33.953L43.235 34.585C43.235 34.585 42.834 34.741 42.558 34.765 42.283 34.787 42.073 34.819 42.073 34.819L40.926 35.478 41.463 36.414 41.402 36.557 42.045 37.674 40.07 38.811C40.07 38.811 40.286 39.045 40.314 39.154 40.341 39.261 40.298 39.56 40.298 39.56L38.658 40.554C38.658 40.554 38.268 40.186 38.228 40.057 38.186 39.927 38.058 39.792 38.058 39.792 38.058 39.792 37.843 39.506 37.762 39.396 37.682 39.286 37.253 38.54 37.253 38.54L37.091 38.54 36.71 37.877 36.603 37.936z"/>
  <path stroke-width="0.131" stroke-linejoin="round" id="AUTOID_5180" d="M53.848 17.097C53.878 17.149 53.89 17.202 53.881 17.257C53.845 17.448 53.548 17.553 53.213 17.493C52.881 17.432 52.637 17.228 52.671 17.038C52.679 17.001 52.695 16.969 52.719 16.939"/>
  <path stroke-width="0.131" stroke-linejoin="round" id="AUTOID_5181" d="M53.893 17.817C53.853 18.042 53.499 18.17 53.103 18.097C52.707 18.025 52.42 17.783 52.46 17.556"/>
  <path stroke-width="0.3" stroke-linejoin="round" id="AUTOID_5182" d="M53.893 17.817C53.893 17.817 53.96 17.3 53.848 17.097C53.771 16.963 53.579 16.844 53.34 16.8C53.067 16.751 52.82 16.812 52.719 16.939L52.719 16.94C52.579 17.042 52.46 17.556 52.46 17.556"/>
  <path stroke-width="0.131" stroke-linejoin="round" id="AUTOID_5183" d="M32.256 26.553C32.277 26.493 32.313 26.446 32.363 26.417C32.542 26.315 32.834 26.484 33.014 26.797C33.194 27.109 33.194 27.446 33.015 27.548C32.981 27.568 32.944 27.579 32.904 27.579"/>
  <path stroke-width="0.131" stroke-linejoin="round" id="AUTOID_5184" d="M32.808 26.021C33.021 25.899 33.366 26.102 33.581 26.471C33.793 26.843 33.795 27.242 33.582 27.364"/>
  <path stroke-width="0.3" stroke-linejoin="round" id="AUTOID_5185" d="M32.808 26.021C32.808 26.021 32.345 26.324 32.256 26.553C32.198 26.708 32.235 26.946 32.365 27.17C32.512 27.425 32.731 27.583 32.904 27.579L32.904 27.579C33.082 27.621 33.582 27.364 33.582 27.364"/>
  <path stroke-width="0.131" stroke-linejoin="round" id="AUTOID_5186" d="M37.515 29.064C37.537 29.004 37.573 28.957 37.624 28.928C37.802 28.824 38.094 28.993 38.274 29.306C38.454 29.618 38.454 29.955 38.276 30.059C38.243 30.079 38.204 30.088 38.164 30.089"/>
  <path stroke-width="0.131" stroke-linejoin="round" id="AUTOID_5187" d="M38.069 28.533C38.28 28.41 38.627 28.611 38.841 28.981C39.054 29.352 39.054 29.751 38.843 29.875"/>
  <path stroke-width="0.3" stroke-linejoin="round" id="AUTOID_5188" d="M38.069 28.533C38.069 28.533 37.606 28.833 37.515 29.064C37.46 29.217 37.496 29.455 37.625 29.681C37.771 29.934 37.99 30.094 38.164 30.089L38.164 30.088C38.341 30.131 38.843 29.875 38.843 29.875"/>
  <path stroke-width="0.131" stroke-linejoin="round" id="AUTOID_5189" d="M35.924 36.085C35.947 36.026 35.982 35.978 36.033 35.95C36.21 35.845 36.503 36.015 36.682 36.328C36.862 36.64 36.862 36.978 36.683 37.081C36.651 37.1 36.613 37.109 36.573 37.11"/>
  <path stroke-width="0.131" stroke-linejoin="round" id="AUTOID_5190" d="M36.478 35.554C36.689 35.432 37.034 35.633 37.25 36.003C37.463 36.374 37.463 36.774 37.252 36.896"/>
  <path stroke-width="0.3" stroke-linejoin="round" id="AUTOID_5191" d="M36.478 35.554C36.478 35.554 36.014 35.854 35.924 36.085C35.868 36.24 35.905 36.478 36.033 36.703C36.18 36.956 36.399 37.115 36.573 37.11L36.573 37.109C36.75 37.154 37.252 36.896 37.252 36.896"/>
  <path stroke-width="0.131" stroke-linejoin="round" id="AUTOID_5192" d="M60.896 12.983C60.926 13.035 60.939 13.089 60.929 13.143C60.895 13.333 60.595 13.439 60.262 13.378C59.929 13.317 59.686 13.114 59.72 12.923C59.728 12.887 59.743 12.855 59.767 12.824"/>
  <path stroke-width="0.131" stroke-linejoin="round" id="AUTOID_5193" d="M60.942 13.702C60.902 13.929 60.546 14.054 60.151 13.984C59.756 13.912 59.468 13.669 59.509 13.442"/>
  <path stroke-width="0.3" stroke-linejoin="round" id="AUTOID_5194" d="M60.942 13.702C60.942 13.702 61.008 13.186 60.896 12.983C60.82 12.849 60.628 12.73 60.387 12.686C60.116 12.637 59.868 12.698 59.767 12.824L59.768 12.826C59.628 12.926 59.509 13.442 59.509 13.442"/>
  <path stroke-width="0.3" stroke-linejoin="round" id="AUTOID_5195" d="M61.743 28.096C61.927 27.989 61.926 27.644 61.743 27.324C61.557 27.004 61.259 26.832 61.076 26.937"/>
  <path stroke-width="0.131" stroke-linejoin="round" id="AUTOID_5196" d="M61.076 26.937C60.893 27.042 60.893 27.388 61.078 27.707C61.262 28.027 61.561 28.202 61.743 28.096"/>
  <path stroke-width="0.3" stroke-linejoin="round" id="AUTOID_5197" d="M62.613 19.963C62.796 19.856 62.796 19.512 62.612 19.19C62.427 18.871 62.13 18.698 61.947 18.803"/>
  <path stroke-width="0.131" stroke-linejoin="round" id="AUTOID_5198" d="M61.947 18.803C61.764 18.908 61.764 19.254 61.948 19.574C62.131 19.893 62.43 20.068 62.613 19.963"/>
  <path stroke-width="0.131" stroke-linejoin="round" id="AUTOID_5199" d="M40.082 34.009C39.82 34.161 39.427 33.972 39.207 33.591C38.987 33.209 39.021 32.774 39.283 32.625"/>
  <path stroke-width="0.3" stroke-linejoin="round" id="AUTOID_5200" d="M45.685 13.385L44.78 13.907C44.543 14.042 44.543 14.487 44.781 14.9C45.018 15.314 45.404 15.538 45.64 15.401L46.545 14.881"/>
  <path stroke-width="0.131" stroke-linejoin="round" id="AUTOID_5201" d="M44.78 13.907C45.017 13.771 45.401 13.993 45.639 14.407C45.877 14.82 45.878 15.266 45.64 15.401"/>
  <path stroke-width="0.131" stroke-linejoin="round" id="AUTOID_5202" d="M36.939 24.426C36.987 24.428 37.033 24.419 37.073 24.394C37.259 24.288 37.259 23.939 37.072 23.614C36.886 23.289 36.582 23.114 36.396 23.221C36.344 23.251 36.305 23.301 36.283 23.365"/>
  <path stroke-width="0.3" stroke-linejoin="round" id="AUTOID_5203" d="M49.587 15.128L49.192 15.355C48.99 15.473 48.661 15.282 48.46 14.929C48.256 14.577 48.256 14.196 48.457 14.08L48.823 13.869"/>
  <path stroke-width="0.131" stroke-linejoin="round" id="AUTOID_5204" d="M48.457 14.08C48.659 13.964 48.987 14.154 49.191 14.507C49.393 14.859 49.393 15.24 49.192 15.355"/>
  <path stroke-width="0.131" stroke-linejoin="round" id="AUTOID_5205" d="M49.03 13.894C49.192 13.952 49.369 14.111 49.496 14.332C49.606 14.522 49.656 14.72 49.649 14.88"/>
  <path stroke-width="0.3" stroke-linejoin="round" id="AUTOID_5206" d="M49.695 17.957L49.301 18.184C49.098 18.3 48.771 18.109 48.567 17.757C48.365 17.403 48.363 17.024 48.566 16.908L48.932 16.698"/>
  <path stroke-width="0.131" stroke-linejoin="round" id="AUTOID_5207" d="M48.566 16.908C48.768 16.792 49.097 16.984 49.298 17.335C49.502 17.687 49.503 18.068 49.301 18.184"/>
  <path stroke-width="0.131" stroke-linejoin="round" id="AUTOID_5208" d="M49.137 16.722C49.301 16.78 49.478 16.937 49.606 17.158C49.715 17.35 49.765 17.548 49.756 17.707"/>
  <path stroke-width="0.131" stroke-linejoin="round" id="AUTOID_5209" d="M45.685 13.385C45.92 13.25 46.305 13.474 46.543 13.887C46.781 14.298 46.781 14.744 46.545 14.881"/>
  <path stroke-width="0.3" stroke-linejoin="round" id="AUTOID_5210" d="M41.817 21.001C41.743 21.07 41.256 20.64 41.256 20.64C40.947 20.39 40.615 20.3 40.375 20.439L37.944 21.838"/>
  <path stroke-width="0.3" stroke-linejoin="round" id="AUTOID_5211" d="M41.432 20.786C41.432 20.786 41.914 20.461 42.5 20.265C43.087 20.067 43.43 20.047 43.57 19.649C43.71 19.251 44.115 18.01 44.115 18.01C44.115 18.01 44.206 17.768 44.076 17.588C43.948 17.408 43.625 16.894 43.725 16.493C43.826 16.091 44.627 14.119 44.627 14.119"/>
  <path stroke-width="0.3" stroke-linejoin="round" id="AUTOID_5212" d="M44.29 33.953C44.29 33.953 44.737 33.753 45.017 33.575C45.295 33.396 48.652 31.481 48.652 31.481C48.652 31.481 48.993 31.248 49.195 30.98C49.396 30.71 49.576 30.286 49.868 30.44C50.159 30.594 50.515 30.916 50.762 30.875C51.011 30.832 55.362 28.227 55.362 28.227C55.362 28.227 56.234 27.769 56.395 26.544"/>
  <path stroke-width="0.3" stroke-linejoin="round" id="AUTOID_5213" d="M56.362 26.736L57.426 26.716"/>
  <path stroke-width="0.3" stroke-linejoin="round" id="AUTOID_5214" d="M56.789 26.728L60.915 28.506C60.915 28.506 61.753 28.957 62.345 28.632C62.939 28.307 63.442 28.001 63.442 28.001C63.442 28.001 64.159 27.657 63.811 26.55C63.463 25.446 63.302 25.079 63.341 24.617C63.341 24.617 63.612 22.451 63.597 21.644C63.584 20.838 63.768 20.452 63.887 20.367C64.007 20.28 64.493 19.916 64.493 19.916C64.493 19.916 65.298 19.309 64.65 18.214C64.003 17.12 61.868 15.371 61.868 15.371"/>
  <path stroke-width="0.3" stroke-linejoin="round" id="AUTOID_5215" d="M62.761 14.859C62.761 14.859 63.176 15.332 63.457 15.951C63.737 16.57 64.073 17.454 64.073 17.454"/>
  <path stroke-width="0.3" stroke-linejoin="round" id="AUTOID_5216" d="M41.277 36.087C41.585 36.253 41.862 36.409 41.972 36.494C42.213 36.677 42.759 36.856 43.146 36.853C43.534 36.85 44.298 36.732 44.534 36.054L44.545 33.832"/>
  <path stroke-width="0.131" stroke-linejoin="round" id="AUTOID_5217" d="M46.234 12.518C46.234 12.518 46.75 12.593 47.219 12.833L46.545 13.221C46.058 13.128 45.59 12.888 45.59 12.888"/>
  <path stroke-width="0.3" stroke-linejoin="round" id="AUTOID_5218" d="M45.383 13.56C45.383 13.56 45.439 13.112 45.59 12.888L46.234 12.518"/>
  <path stroke-width="0.131" stroke-linejoin="round" id="AUTOID_5219" d="M47.113 14.343C47.113 14.343 46.915 14.704 46.84 15.163"/>
  <path stroke-width="0.131" stroke-linejoin="round" id="AUTOID_5220" d="M47.219 12.833C47.219 12.833 47.567 13.311 47.81 13.942L47.113 14.343C46.609 13.599 46.545 13.221 46.545 13.221"/>
  <path stroke-width="0.3" stroke-linejoin="round" id="AUTOID_5221" d="M47.399 14.839L46.84 15.163C46.582 15.159 46.274 15.037 46.274 15.037"/>
  <path stroke-width="0.131" stroke-linejoin="round" id="AUTOID_5222" d="M47.81 13.942C47.81 13.942 47.759 14.412 47.399 14.839"/>
  <path stroke-width="0.3" stroke-linejoin="round" id="AUTOID_5223" d="M44.646 14.064C44.646 14.064 44.374 13.708 44.651 13.496L44.756 12.664C44.756 12.664 44.957 11.583 46.018 11.217L46.612 10.836C46.612 10.836 47.063 10.65 47.331 10.936"/>
  <path stroke-width="0.3" stroke-linejoin="round" id="AUTOID_5224" d="M45.25 13.637C45.25 13.637 45.109 13.292 45.344 12.794C45.578 12.294 45.807 11.897 45.807 11.897C45.807 11.897 46.024 11.553 46.637 11.26C47.249 10.967 47.619 10.804 47.798 10.744C47.975 10.683 48.094 10.582 48.176 10.502"/>
  <path stroke-width="0.3" stroke-linejoin="round" id="AUTOID_5225" d="M62.576 5.794C62.481 5.137 61.792 4.823 61.792 4.823C61.792 4.823 60.771 4.301 60.603 4.219C60.438 4.137 60.386 4.075 60.268 3.972C60.149 3.87 59.728 3.833 59.728 3.833C58.564 3.74 56 5.429 56 5.429C55.804 5.546 55.468 5.785 55.414 5.942C55.362 6.1 54.654 5.83 53.459 6.009C52.265 6.187 51.716 7.623 51.634 7.849C51.552 8.073 50.853 8.009 49.899 8.118C48.944 8.227 48.399 9.211 48.399 9.211L47.573 10.83"/>
  <path stroke-width="0.3" stroke-linejoin="round" id="AUTOID_5226" d="M54.591 20.472C54.595 20.423 54.588 20.375 54.563 20.327C54.405 20.024 54.392 19.676 54.634 19.538C54.875 19.399 61.009 15.823 61.009 15.823C61.009 15.823 64 14.095 64.162 14.009C64.325 13.923 64.472 13.634 64.472 13.634C64.472 13.634 64.876 12.361 64.959 12.108C65.043 11.856 64.835 11.628 64.835 11.628C64.835 11.628 64.246 11.076 64.081 10.893C63.915 10.708 63.463 10.307 63.207 10.243C62.95 10.179 62.987 9.759 62.993 9.577C62.997 9.449 62.826 8.003 62.701 6.913"/>
  <path stroke-width="0.131" stroke-linejoin="round" id="AUTOID_5227" d="M54.591 20.472C54.567 20.725 54.197 20.96 54.197 20.96C54.197 20.96 53.542 21.353 53.113 21.582C52.686 21.812 52.283 21.466 52.283 21.466L45.777 15.323"/>
  <path stroke-width="0.131" stroke-linejoin="round" id="AUTOID_5228" d="M44.241 20.254L48.841 23.469"/>
  <path stroke-width="0.131" stroke-linejoin="round" id="AUTOID_5229" d="M62.701 20.881C62.701 20.881 61.905 21.033 61.924 21.92C61.944 22.809 62.078 23.631 61.786 24.832C61.786 24.832 61.551 25.426 61.899 26.295C62.246 27.164 62.609 27.661 62.392 28.182"/>
  <path stroke-width="0.131" stroke-linejoin="round" id="AUTOID_5230" d="M60.42 17.038C60.42 17.038 61.037 17.021 61.621 17.533C62.204 18.045 63.466 19.032 63.42 20.042"/>
  <path stroke-width="0.131" stroke-linejoin="round" id="AUTOID_5231" d="M46.502 11.702C46.502 11.702 47.003 11.736 47.531 12.211C48.06 12.686 49.228 13.788 49.228 13.788C49.228 13.788 49.792 14.259 49.843 15.032C49.893 15.804 50.122 18.192 50.122 18.192"/>
  <path stroke-width="0.131" stroke-linejoin="round" id="AUTOID_5232" d="M58.75 8.821C58.75 8.821 59.207 8.467 59.451 8.122C59.694 7.78 60.039 7.419 60.212 7.294C60.386 7.168 60.781 6.78 60.936 6.564C61.091 6.347 61.71 5.549 61.939 5.477"/>
  <path stroke-width="0.131" stroke-linejoin="round" id="AUTOID_5233" d="M46.935 15.108C46.935 15.108 47.835 15.877 48.156 16.687C48.476 17.498 48.587 17.975 48.947 18.315C49.307 18.655 49.719 18.64 49.923 18.574C50.125 18.507 50.201 18.527 50.287 18.655"/>
  <path stroke-width="0.131" stroke-linejoin="round" id="AUTOID_5234" d="M49.774 18.652L52.171 20.954L54.634 19.538"/>
  <path stroke-width="0.131" stroke-linejoin="round" id="AUTOID_5235" d="M46.109 15.131L48.332 17.266"/>
  <path stroke-width="0.131" stroke-linejoin="round" id="AUTOID_5236" d="M58.354 15.856C58.411 15.887 58.512 15.877 58.686 15.766C59.154 15.473 61.561 14.086 61.561 14.086C61.561 14.086 62.002 13.681 62.277 13.343C62.554 13.006 64.174 11.996 64.599 11.829"/>
  <path stroke-width="0.131" stroke-linejoin="round" id="AUTOID_5237" d="M52.192 20.679C52.302 20.224 52.63 19.254 53.478 18.803C54.607 18.204 54.597 18.12 54.649 17.989C54.701 17.858 54.716 17.562 54.942 17.442C55.167 17.321 56.298 16.698 56.533 16.332C56.768 15.968 57.253 14.734 57.682 14.462C58.11 14.191 58.273 14.096 58.273 14.096C58.273 14.096 58.521 13.981 58.521 14.288"/>
  <path stroke-width="0.131" stroke-linejoin="round" id="AUTOID_5238" d="M48.856 10.593C48.856 10.593 49.304 10.664 49.887 11.295"/>
  <path stroke-width="0.131" stroke-linejoin="round" id="AUTOID_5239" d="M48.722 9.507C48.722 9.507 49.524 9.573 50.143 10.147"/>
  <path stroke-width="0.3" stroke-linejoin="round" id="AUTOID_5240" d="M55.28 6.02C55.28 6.02 56.515 6.633 56.423 7.092"/>
  <path stroke-width="0.131" stroke-linejoin="round" id="AUTOID_5241" d="M51.439 9.894L55.795 7.387"/>
  <path stroke-width="0.131" stroke-linejoin="round" id="AUTOID_5242" d="M51.594 10.958L56.664 8.039"/>
  <path stroke-width="0.131" stroke-linejoin="round" id="AUTOID_5243" d="M58.509 8.961C58.509 8.961 58.783 9.173 58.871 9.592C58.96 10.012 59.06 10.272 59.14 10.455C59.219 10.638 59.393 10.984 59.371 11.544C59.35 12.102 59.264 12.115 59.295 12.464"/>
  <path stroke-width="0.131" stroke-linejoin="round" id="AUTOID_5244" d="M60.768 11.399L62.542 10.378"/>
  <path stroke-width="0.131" stroke-linejoin="round" id="AUTOID_5245" d="M59.292 12.249L60.131 11.765"/>
  <path stroke-width="0.131" stroke-linejoin="round" id="AUTOID_5246" d="M53.453 11.772L57.54 9.416"/>
  <path stroke-width="0.131" stroke-linejoin="round" id="AUTOID_5247" d="M51.362 12.974C51.362 12.974 52.185 13.281 52.17 14.256C52.155 15.233 52.125 15.859 52.125 15.859"/>
  <path stroke-width="0.131" stroke-linejoin="round" id="AUTOID_5248" d="M50.725 17.844C50.725 17.844 50.762 17.561 51.064 17.42C51.366 17.28 51.851 16.916 51.966 16.612"/>
  <path stroke-width="0.131" stroke-linejoin="round" id="AUTOID_5249" d="M52.816 16.382C52.816 16.382 53.718 16.621 54.125 16.446C54.533 16.271 55.256 15.788 55.485 15.891C55.716 15.997 56.049 16.28 56.049 16.28"/>
  <path stroke-width="0.131" stroke-linejoin="round" id="AUTOID_5250" d="M53.134 14.43C53.134 14.43 53.63 14.553 54.21 14.236C54.789 13.919 55.618 13.525 56.042 13.724C56.466 13.92 56.689 14.151 56.689 14.151"/>
  <path stroke-width="0.3" stroke-linejoin="round" id="AUTOID_5251" d="M58.335 15.346C58.304 15.525 58.284 15.641 58.284 15.641C58.284 15.641 58.259 15.806 58.354 15.856"/>
  <path stroke-width="0.3" stroke-linejoin="round" id="AUTOID_5252" d="M58.07 13.17C58.07 13.17 58.173 13.352 58.375 13.593C58.578 13.832 58.521 14.288 58.521 14.288C58.523 14.323 58.52 14.365 58.512 14.413"/>
  <path stroke-width="0.131" stroke-linejoin="round" id="AUTOID_5253" d="M57.756 12.728C57.756 12.728 57.789 12.208 58.204 11.952C58.621 11.695 58.921 11.535 59.088 11.337"/>
  <path stroke-width="0.131" stroke-linejoin="round" id="AUTOID_5254" d="M60.826 19.806C60.826 19.806 62.795 25.082 60.167 26.646"/>
  <path stroke-width="0.131" stroke-linejoin="round" id="AUTOID_5255" d="M46.109 26.208L48.695 24.721"/>
  <path stroke-width="0.131" stroke-linejoin="round" id="AUTOID_5256" d="M45.591 28.018L47.259 27.056"/>
  <path stroke-width="0.131" stroke-linejoin="round" id="AUTOID_5257" d="M50.549 30.475L50.853 29.734C50.853 29.734 51.055 29.23 51.64 28.893C52.226 28.556 55.933 26.422 55.933 26.422"/>
  <path stroke-width="0.131" stroke-linejoin="round" id="AUTOID_5258" d="M56.506 20.597C56.506 20.597 58.125 22.701 57.319 25.056"/>
  <path stroke-width="0.3" stroke-linejoin="round" d="M60.326 9.644C59.948 9.441 59.908 8.784 60.237 8.178C60.564 7.572 61.134 7.243 61.512 7.448"/>
  <path stroke-width="0.131" stroke-linejoin="round" d="M61.512 7.448C61.889 7.65 61.929 8.308 61.601 8.916C61.274 9.522 60.701 9.849 60.326 9.644"/>
  <g>
   <path stroke-width="0.3" stroke-linejoin="round" d="M56.415 18.021C56.296 17.91 56.442 17.562 56.738 17.246C57.036 16.931 57.372 16.765 57.493 16.878"/>
   <path stroke-width="0.131" stroke-linejoin="round" d="M57.493 16.878C57.612 16.989 57.466 17.336 57.17 17.652C56.871 17.969 56.534 18.134 56.415 18.021"/>
  </g>
  <g>
   <path stroke-width="0.3" stroke-linejoin="round" d="M62.265 14.391C62.146 14.279 62.29 13.932 62.588 13.618C62.886 13.301 63.222 13.137 63.343 13.249"/>
   <path stroke-width="0.131" stroke-linejoin="round" d="M63.343 13.249C63.46 13.361 63.316 13.708 63.02 14.022C62.722 14.339 62.384 14.503 62.265 14.391"/>
  </g>
  <path stroke-width="0.131" stroke-linejoin="round" d="M60.176 11.701C60.046 11.617 60.051 11.377 60.186 11.166C60.323 10.955 60.54 10.853 60.671 10.939"/>
  <path stroke-width="0.3" stroke-linejoin="round" d="M59.947 10.66L60.066 10.717C60.231 10.644 60.35 10.717 60.35 10.717L60.671 10.939C60.801 11.023 60.798 11.263 60.661 11.474C60.524 11.683 60.307 11.785 60.176 11.701L59.874 11.509C59.874 11.509 59.75 11.397 59.767 11.323L59.603 11.214"/>
  <path stroke-width="0.131" stroke-linejoin="round" d="M62.408 6.865C62.277 6.78 62.281 6.541 62.417 6.331C62.554 6.121 62.771 6.019 62.902 6.104"/>
  <path stroke-width="0.3" stroke-linejoin="round" d="M62.177 5.825L62.295 5.881C62.46 5.807 62.581 5.881 62.581 5.881L62.902 6.104C63.031 6.189 63.027 6.427 62.892 6.637C62.756 6.849 62.537 6.95 62.408 6.865L62.104 6.674C62.104 6.674 61.981 6.562 61.996 6.487L61.832 6.379"/>
  <path stroke-width="0.3" stroke-linejoin="round" id="AUTOID_5271" d="M58.383 14.368L58.581 14.632C58.581 14.632 58.676 14.954 58.271 15.353C57.865 15.752 57.548 15.752 57.548 15.752L57.24 15.521"/>
  <path stroke-width="0.131" stroke-linejoin="round" id="AUTOID_5272" d="M58.271 14.662C58.271 14.662 57.759 14.906 57.578 15.4"/>
  <path stroke-width="0.3" stroke-linejoin="round" id="AUTOID_5273" d="M44.1 17.632C44.1 17.632 49.276 22.724 49.426 22.807C49.576 22.89 49.567 22.765 49.756 22.942C49.945 23.118 50.404 23.533 50.619 23.612C50.619 23.612 51.232 24.231 52.335 23.614C53.436 23 53.523 22.893 53.523 22.893C53.523 22.893 53.804 22.71 53.981 22.274C54.182 21.771 54.442 20.963 54.442 20.963C54.442 20.963 54.633 20.521 54.59 20.408"/>
  <path stroke-width="0.131" stroke-linejoin="round" id="AUTOID_5274" d="M51.512 20.739L50.75 23.045"/>
  <path stroke-width="0.131" stroke-linejoin="round" id="AUTOID_5275" d="M60.526 16.044C60.526 16.044 60.604 16.42 60.143 16.704C59.682 16.986 58.164 17.844 58.164 17.844C58.164 17.844 57.764 18.19 57.277 18.015"/>
  <path stroke-width="0.3" stroke-linejoin="round" id="AUTOID_5276" d="M55.865 18.821L56.78 19.213C57.182 19.42 57.606 19.213 57.606 19.213C57.606 19.213 59.21 18.289 59.768 17.968C60.326 17.646 60.347 17.367 60.347 17.367C60.347 17.367 60.575 16.702 60.64 16.419C60.671 16.277 60.643 16.184 60.606 16.125"/>
  <path stroke-width="0.3" stroke-linejoin="round" id="AUTOID_5277" d="M47.564 26.966C47.564 26.966 47.57 26.981 47.662 27.14C47.753 27.297 48.72 28.471 48.457 29.692C48.457 29.692 48.42 30.009 48.448 30.056"/>
  <path stroke-width="0.131" stroke-linejoin="round" id="AUTOID_5278" d="M48.792 26.92C48.792 26.92 49.968 28.843 49.42 30.647"/>
  <path stroke-width="0.131" stroke-linejoin="round" id="AUTOID_5279" d="M58.731 10.265C59.021 10.769 58.929 11.365 58.524 11.599C58.118 11.832 57.557 11.612 57.265 11.108C56.975 10.605 57.069 10.006 57.473 9.774C57.877 9.541 58.441 9.76 58.731 10.265z"/>
  <path stroke-width="0.131" stroke-linejoin="round" id="AUTOID_5280" d="M55.057 12.38C55.347 12.884 55.255 13.481 54.85 13.714C54.445 13.948 53.881 13.727 53.591 13.224C53.301 12.72 53.393 12.122 53.798 11.89C54.204 11.656 54.767 11.875 55.057 12.38z"/>
  <path stroke-width="0.131" stroke-linejoin="round" id="AUTOID_5281" d="M50.098 8.053C50.845 7.942 51.496 8.147 51.549 8.515C51.604 8.881 51.043 9.268 50.296 9.378C49.551 9.489 48.902 9.282 48.847 8.916C48.792 8.55 49.353 8.163 50.098 8.053z"/>
  <path stroke-width="0.131" stroke-linejoin="round" id="AUTOID_5282" d="M53.756 5.948C54.503 5.836 55.152 6.043 55.206 6.41C55.261 6.775 54.7 7.161 53.953 7.272C53.207 7.384 52.557 7.176 52.503 6.811C52.448 6.445 53.009 6.057 53.756 5.948z"/>
  <path stroke-width="0.3" stroke-linejoin="round" id="AUTOID_5283" d="M32.59 27.443C32.59 27.443 32.735 27.824 32.436 28.024C32.137 28.225 31.318 28.667 31.12 29.074C30.923 29.481 30.743 30.297 31.131 30.838C31.518 31.378 31.797 31.42 31.882 31.701C31.969 31.984 32.536 33.807 34.74 35.094C34.74 35.094 34.941 35.156 35.094 35.424C35.249 35.692 36.604 37.938 36.604 37.938L41.825 34.962C41.825 34.962 42.014 34.853 42.101 34.773"/>
  <path stroke-width="0.3" stroke-linejoin="round" id="AUTOID_5284" d="M32.587 26.184C32.587 26.184 32.378 25.972 33.043 25.539C33.707 25.105 36.231 23.521 36.231 23.521"/>
  <path stroke-width="0.131" stroke-linejoin="round" id="AUTOID_5285" d="M34.381 24.686C34.381 24.686 35.033 24.469 35.445 24.943C35.859 25.417 35.807 25.55 36.247 25.564C36.689 25.576 37.055 25.53 37.329 25.718"/>
  <path stroke-width="0.131" stroke-linejoin="round" id="AUTOID_5286" d="M45.317 28.649C45.238 28.527 45.173 28.431 45.13 28.367C44.936 28.073 45.112 27.806 45.277 27.673C45.442 27.539 45.6 27.219 45.305 26.663C45.012 26.108 43.926 25.435 43.475 25.097C43.188 24.879 42.268 24.254 41.499 23.754"/>
  <path stroke-width="0.3" stroke-linejoin="round" id="AUTOID_5287" d="M41.512 36.494L39.485 37.661L38.979 36.781L41.005 35.615L41.512 36.494z"/>
  <path stroke-width="0.3" stroke-linejoin="round" id="AUTOID_5288" d="M39.31 37.356L37.133 38.61L36.713 37.881L38.892 36.628L39.31 37.356z"/>
  <path stroke-width="0.131" stroke-linejoin="round" id="AUTOID_5289" d="M40.103 36.134L40.609 37.015"/>
  <path stroke-width="0.131" stroke-linejoin="round" id="AUTOID_5290" d="M39.113 36.704L39.036 36.569"/>
  <path stroke-width="0.3" stroke-linejoin="round" id="AUTOID_5291" d="M41.402 36.557L42.045 37.676L40.262 38.701L39.628 37.598"/>
  <path stroke-width="0.3" stroke-linejoin="round" id="AUTOID_5292" d="M37.265 38.533L37.918 39.667C37.918 39.667 38.168 39.865 38.209 39.993C38.249 40.122 38.314 40.237 38.344 40.287C38.372 40.34 38.659 40.555 38.659 40.555C38.659 40.555 39.585 40.164 40.387 39.561C40.387 39.561 40.344 39.204 40.314 39.154C40.284 39.101 40.219 38.987 40.128 38.889C40.037 38.79 39.991 38.473 39.991 38.473L39.533 37.679"/>
  <path stroke-width="0.131" stroke-linejoin="round" id="AUTOID_5293" d="M37.984 37.143L38.406 37.877"/>
  <path stroke-width="0.131" stroke-linejoin="round" id="AUTOID_5294" d="M38.923 23.539C38.923 23.539 40.618 24.382 41.109 24.838C41.6 25.292 42.046 25.824 42.046 25.824"/>
  <path stroke-width="0.131" stroke-linejoin="round" id="AUTOID_5295" d="M41.524 26.24C41.524 26.24 42.307 26.21 42.704 26.745C43.1 27.278 43.174 27.783 42.999 28.495"/>
  <path stroke-width="0.131" stroke-linejoin="round" id="AUTOID_5296" d="M42.445 28.814L41.268 29.492"/>
  <path stroke-width="0.131" stroke-linejoin="round" id="AUTOID_5297" d="M42.561 34.63C42.561 34.63 43.502 34.386 43.86 33.372C44.219 32.359 44.337 31.923 44.337 31.923"/>
  <path stroke-width="0.131" stroke-linejoin="round" id="AUTOID_5298" d="M43.482 28.065C43.482 28.065 43.564 28.525 43.79 28.853C44.018 29.181 44.283 29.588 44.283 29.588"/>
  <path stroke-width="0.131" stroke-linejoin="round" id="AUTOID_5299" d="M37.723 23.696L37.341 23.917C36.981 23.501 36.981 23.19 36.981 23.19"/>
  <path stroke-width="0.131" stroke-linejoin="round" id="AUTOID_5300" d="M36.485 23.036C36.485 23.036 36.54 23.221 36.981 23.19L37.362 22.969"/>
  <path stroke-width="0.131" stroke-linejoin="round" id="AUTOID_5301" d="M37.341 23.917C37.341 23.917 37.209 24.166 37.262 24.388"/>
  <path stroke-width="0.3" stroke-linejoin="round" id="AUTOID_5302" d="M36.938 24.425C36.938 24.425 37.137 24.466 37.313 24.362C37.487 24.259 37.631 24.175 37.631 24.175C37.74 23.989 37.723 23.696 37.723 23.696C37.671 23.362 37.392 22.952 37.392 22.952C36.957 22.817 36.783 22.846 36.783 22.846C36.783 22.846 36.64 22.928 36.485 23.036C36.331 23.143 36.283 23.365 36.283 23.365C36.225 23.524 36.265 23.769 36.399 24.001C36.545 24.257 36.762 24.42 36.939 24.426z"/>
  <path stroke-width="0.131" stroke-linejoin="round" id="AUTOID_5303" d="M43.566 31.461C43.613 31.463 43.658 31.454 43.7 31.431C43.886 31.324 43.884 30.974 43.698 30.649C43.511 30.324 43.209 30.149 43.024 30.256C42.969 30.286 42.932 30.336 42.909 30.399"/>
  <path stroke-width="0.131" stroke-linejoin="round" id="AUTOID_5304" d="M44.35 30.731L43.968 30.951C43.607 30.535 43.606 30.225 43.606 30.225"/>
  <path stroke-width="0.131" stroke-linejoin="round" id="AUTOID_5305" d="M43.112 30.071C43.112 30.071 43.167 30.256 43.606 30.225L43.99 30.004"/>
  <path stroke-width="0.131" stroke-linejoin="round" id="AUTOID_5306" d="M43.968 30.951C43.968 30.951 43.835 31.201 43.887 31.423"/>
  <path stroke-width="0.3" stroke-linejoin="round" id="AUTOID_5307" d="M43.564 31.46C43.564 31.46 43.764 31.501 43.939 31.397C44.113 31.292 44.258 31.21 44.258 31.21C44.365 31.024 44.35 30.731 44.35 30.731C44.298 30.399 44.018 29.987 44.018 29.987C43.582 29.85 43.408 29.881 43.408 29.881C43.408 29.881 43.265 29.963 43.112 30.071C42.957 30.178 42.909 30.399 42.909 30.399C42.853 30.559 42.89 30.804 43.024 31.036C43.17 31.292 43.389 31.454 43.566 31.461z"/>
  <path stroke-width="0.3" stroke-linejoin="round" id="AUTOID_5308" d="M36.667 22.911C36.667 22.911 36.588 22.693 36.908 22.495C37.229 22.295 37.944 21.838 37.944 21.838C38.182 21.701 38.515 21.791 38.825 22.039C38.825 22.039 39.935 22.835 40.485 23.129C40.683 23.234 41.067 23.475 41.499 23.754C41.499 23.754 41.957 24.146 42.09 24.286C42.222 24.426 42.898 25.092 43.07 25.326C43.24 25.557 44.076 26.655 44.207 26.948C44.338 27.24 44.871 28.065 45.317 28.649C45.604 29.088 46.048 29.832 46.017 30.35C45.976 31.01 45.555 31.163 45.402 31.759C45.25 32.356 45.087 32.71 45.087 32.71C44.877 33.357 44.509 33.866 43.981 34.17C43.439 34.482 42.805 34.92 42.118 34.798C42.118 34.798 42.475 33.682 42.594 33.426C42.715 33.17 41.838 31.783 41.622 31.297C41.406 30.812 41.405 29.946 41.281 29.533C41.158 29.121 40.387 28.179 40.145 27.879C39.902 27.579 38.819 25.609 38.662 25.304C38.506 25.001 38.045 25.304 38.045 25.304C38.045 25.304 37.231 25.812 37.093 25.853C36.956 25.893 36.887 25.811 36.887 25.811"/>
  <path stroke-width="0.131" stroke-linejoin="round" id="AUTOID_5309" d="M37.36 22.513C37.36 22.513 37.948 22.803 38.201 23.332C38.454 23.861 38.31 24.109 38.186 24.323C38.063 24.536 37.472 24.981 37.472 24.981"/>
  <path stroke-width="0.131" stroke-linejoin="round" id="AUTOID_5310" d="M39.064 24.556C39.064 24.556 39.79 24.681 40.92 25.76"/>
  <path stroke-width="0.131" stroke-linejoin="round" id="AUTOID_5311" d="M43.436 31.826C43.436 31.826 43.209 32.814 43.204 33.173C43.198 33.533 43.088 34.18 42.89 34.279"/>
  <path stroke-width="0.131" stroke-linejoin="round" id="AUTOID_5312" d="M31.783 31.021C31.783 31.021 31.711 30.778 31.993 30.9C32.276 31.021 33.213 31.365 33.536 31.195C33.862 31.024 34.473 30.643 34.405 30.288C34.337 29.932 34.137 29.146 34.287 29.007C34.438 28.87 34.734 28.649 34.929 28.815C35.127 28.983 37.155 31.271 37.082 33"/>
  <path stroke-width="0.131" stroke-linejoin="round" id="AUTOID_5313" d="M35.203 35.146C35.203 35.146 35.6 35.152 35.548 34.896C35.494 34.64 35.679 34.207 36.003 34.283C36.326 34.359 36.756 34.575 36.817 34.307C36.881 34.04 36.89 33.773 36.89 33.773"/>
  <path stroke-width="0.131" stroke-linejoin="round" id="AUTOID_5314" d="M36.027 28.934C36.027 28.934 36.792 29.486 37.493 29.17"/>
  <path stroke-width="0.131" stroke-linejoin="round" id="AUTOID_5315" d="M37.468 31.858C37.468 31.858 37.756 31.12 38.616 30.737"/>
  <path stroke-width="0.131" stroke-linejoin="round" id="AUTOID_5316" d="M36.92 26.309C36.92 26.309 35.909 26.852 36.481 27.846C36.969 28.693 38.005 27.974 38.005 27.974"/>
  <path stroke-width="0.131" stroke-linejoin="round" id="AUTOID_5317" d="M38.162 39.911C38.162 39.911 39.189 39.374 40.072 38.811"/>
  <path stroke-width="0.131" stroke-linejoin="round" id="AUTOID_5318" d="M38.759 33.015L39.006 32.872"/>
  <path stroke-width="0.131" stroke-linejoin="round" id="AUTOID_5319" d="M39.027 33.695C39.027 33.695 39.442 33.893 39.813 34.164"/>
  <path stroke-width="0.131" stroke-linejoin="round" id="AUTOID_5320" d="M38.765 33.832L39.017 33.698C39.1 33.396 39.069 32.85 39.069 32.85"/>
  <path stroke-width="0.3" stroke-linejoin="round" id="AUTOID_5321" d="M40.082 34.009C40.344 33.859 40.378 33.426 40.158 33.043C39.938 32.661 39.546 32.473 39.283 32.625L39.264 32.636L39.015 32.78L38.759 33.015L38.768 33.012L38.765 33.832L39.564 34.307L40.082 34.009z"/>
  <path stroke-width="0.131" stroke-linejoin="round" id="AUTOID_5322" d="M36.95 34.89C36.95 34.89 38.264 35.405 37.975 36.673"/>
  <path stroke-width="0.131" stroke-linejoin="round" id="AUTOID_5323" d="M40.11 32.25L41.353 31.609"/>
  <path stroke-width="0.131" stroke-linejoin="round" id="AUTOID_5324" d="M40.271 31.468C40.271 31.468 40.329 30.891 40.439 30.641C40.551 30.391 40.854 29.652 40.488 29.314C40.125 28.975 39.878 28.812 39.878 28.812"/>
 </g>
 <g id="Picture_x0020_#">
  <g>
   <g>
    <g>
     <g>
      <g>
       <g>
        <text transform="matrix(0 -1 1 0 73.817 69.968)" stroke="none" fill="#000000" font-family="'Helvetica'" font-size="2.117">387 510</text>
       </g>
      </g>
     </g>
    </g>
   </g>
  </g>
 </g>
</svg>
