<svg xmlns="http://www.w3.org/2000/svg" clip-rule="evenodd" fill="none" fill-rule="evenodd" stroke="#000000" stroke-linecap="round" viewBox="0 0 75.006 52.944" width="100%" height="100%" xmlns:xml="http://www.w3.org/XML/1998/namespace" xml:space="preserve">
 <g id="A4_x0020_full_x0020_frame">
  <polygon stroke="#ffffff" stroke-linejoin="round" stroke-width="0.006" points="0.003,0.003 75.003,0.003 75.003,52.941 0.003,52.941 0.003,0.003" />
 </g>
 <g id="Colour">
  <path fill="#b2b2b2" stroke="none" d="M 33.759 28.96 C 33.752 29.021 33.503 29.303 33.569 29.593 C 33.634 29.882 33.817 30.422 33.752 30.53 C 33.685 30.638 33.618 30.82 33.61 30.878 C 33.601 30.936 33.42 31.036 33.329 31.118 C 33.237 31.201 33.014 31.483 32.996 31.483 C 32.979 31.483 32.747 31.5 32.731 31.632 C 32.715 31.765 32.466 32.014 32.457 32.021 C 32.45 32.03 32.276 32.271 32.209 32.57 C 32.143 32.868 32.093 33.796 32.956 34.841 C 33.817 35.886 34.332 36.151 34.514 36.134 C 34.697 36.118 35.027 36.002 35.027 36.002 C 35.027 36.002 35.226 36.018 35.442 35.902 C 35.658 35.786 35.807 35.67 35.823 35.654 C 35.841 35.637 36.454 35.47 36.454 35.454 C 36.454 35.438 37.134 36.417 37.798 36.383 C 38.46 36.35 39.887 35.57 39.887 35.57 C 39.887 35.57 39.786 35.704 40.085 35.537 C 40.384 35.371 47.116 32.686 47.746 32.353 C 48.377 32.021 49.387 31.442 48.886 32.432 C 48.886 32.459 48.78 32.988 48.567 33.597 C 48.356 34.207 48.753 34.393 49.152 35.082 C 49.548 35.771 49.734 37.732 49.469 38.529 C 49.204 39.323 47.959 40.781 47.323 41.338 C 46.686 41.895 46.898 42.557 46.42 43.273 C 45.944 43.988 43.107 45.5 42.207 46.003 C 41.305 46.506 40.271 47.17 39.45 47.567 C 38.628 47.965 36.268 47.805 35.844 47.646 C 35.42 47.487 34.439 47.408 33.909 47.408 C 33.38 47.408 32.505 47.09 32.081 46.851 C 31.657 46.612 30.437 46.533 30.039 46.454 C 29.643 46.375 28.98 46.241 28.53 45.871 C 28.079 45.5 28.263 44.917 28.422 44.518 C 28.582 44.121 27.998 44.253 27.548 44.015 C 27.097 43.777 26.382 42.689 26.222 42.345 C 26.064 42 25.216 41.549 25.163 41.39 C 25.109 41.231 24.208 40.941 23.864 40.676 C 23.519 40.411 24.341 38.661 24.553 38.237 C 24.765 37.813 25.533 35.825 25.481 35.639 C 25.428 35.454 24.739 35.533 24.553 35.401 C 24.367 35.268 25.428 34.5 25.533 34.207 C 25.64 33.917 25.614 33.307 25.879 32.883 C 26.143 32.459 26.701 32.353 26.832 32.034 C 26.966 31.716 27.257 31.132 27.681 30.762 C 28.105 30.39 28.795 30.443 29.007 30.312 C 29.219 30.178 29.615 29.621 30.172 29.384 C 30.73 29.144 31.472 29.172 32.134 29.013 C 32.796 28.853 33.195 28.614 33.759 28.96 Z" />
 </g>
 <g id="Standard_x0020_layer">
  <path stroke-linejoin="round" stroke-width="0.3" d="M 3.321 35.168 C 4.785 33.819 5.506 34.179 6.947 33.277 C 8.387 32.377 9.041 31.588 10.009 30.576 C 10.977 29.562 11.449 28.617 12.102 28.391 C 12.756 28.167 13.295 28.504 13.746 28.189 C 14.196 27.873 15.615 26.568 15.997 26.478 C 16.381 26.388 18.429 26.455 19.466 26.343 C 20.501 26.231 20.861 26.411 21.559 26.004 C 22.257 25.6 24.149 25.644 25.679 21.681 C 27.21 17.719 26.58 16.007 26.49 14.926 C 26.4 13.846 24.734 10.739 23.609 9.298 C 22.483 7.857 21.536 6.732 20.411 6.19 C 19.285 5.65 18.925 5.65 18.789 5.65 C 18.655 5.65 17.98 5.83 17.98 5.83" />
  <path stroke-linejoin="round" stroke-width="0.3" d="M 18.25 6.641 C 17.708 5.605 16.268 4.615 15.413 3.624 C 14.557 2.633 13.926 1.552 12.621 1.012" />
  <path stroke-linejoin="round" stroke-width="0.13" d="M 15.997 26.478 C 16.538 25.87 17.303 23.664 16.989 22.763" />
  <path stroke-linejoin="round" stroke-width="0.13" d="M 17.954 6.184 C 18.25 6.641 18.385 8.037 18.16 8.757" />
  <path stroke-linejoin="round" stroke-width="0.3" d="M 23.524 9.189 C 24.513 9.195 24.957 9.119 25.832 9.628 C 26.707 10.134 27.291 10.643 27.329 10.654 C 27.367 10.667 29.512 10.554 30.551 10.401 C 31.591 10.249 34.091 10.147 35.067 10.237 C 36.045 10.324 38.048 10.592 38.328 10.756 C 38.606 10.922 41.182 12.393 43.517 13.281 C 45.85 14.169 47.854 15.768 48.109 16.224 C 48.362 16.681 48.718 19.117 48.718 19.117" />
  <path stroke-linejoin="round" stroke-width="0.3" d="M 23.271 25.361 C 24.652 26.099 27.913 26.931 29.722 26.98 C 31.532 27.027 33.768 28.48 33.911 28.67" />
  <path stroke-linejoin="round" stroke-width="0.3" d="M 33.817 26.55 C 35.292 26.361 36.387 26.931 39.006 28.693 C 41.625 30.454 42.1 31.312 44.195 31.646 C 46.29 31.978 47.195 31.027 47.671 29.503 C 48.148 27.98 46.481 26.789 45.481 26.265 C 44.481 25.742 42.719 25.027 42.054 23.932 C 41.387 22.838 41.1 19.028 41.197 17.791" />
  <path stroke-linejoin="round" stroke-width="0.3" d="M 41.244 19.928 C 42.006 19.314 43.1 18.647 43.1 18.647" />
  <path stroke-linejoin="round" stroke-width="0.3" d="M 42.246 19.199 C 43.1 19.504 44.481 19.41 44.529 19.361" />
  <path stroke-linejoin="round" stroke-width="0.3" d="M 43.624 19.411 C 43.625 20.266 44.338 22.027 44.338 22.027" />
  <path stroke-linejoin="round" stroke-width="0.3" d="M 25.009 10.791 C 26.628 11.649 28.056 14.314 28.245 16.457 C 28.437 18.6 26.829 21.452 25.277 22.621" />
  <path stroke-linejoin="round" stroke-width="0.3" d="M 23.722 24.408 C 26.009 23.932 28.199 22.408 29.199 18.791 C 30.198 15.172 28.984 12.85 27.329 10.654" />
  <path stroke-linejoin="round" stroke-width="0.13" d="M 35.817 16.6 C 36.53 18.172 36.578 21.504 35.863 22.98 C 35.149 24.455 34.579 24.931 34.673 25.123" />
  <path stroke-linejoin="round" stroke-width="0.13" d="M 41.192 17.719 C 41.299 17.108 41.508 16.1 41.722 15.853" />
  <path stroke-linejoin="round" stroke-width="0.13" d="M 41.249 18.811 C 41.35 18.141 42.926 16.364 43.619 16.338" />
  <path stroke-linejoin="round" stroke-width="0.13" d="M 43.1 18.647 C 43.518 18.318 44.389 17.725 44.78 17.713" />
  <path stroke-linejoin="round" stroke-width="0.13" d="M 44.43 19.384 C 44.755 19.353 45.359 19.1 45.524 18.911" />
  <path stroke-linejoin="round" stroke-width="0.13" d="M 36.911 20.184 C 36.886 21.092 36.381 24.221 36.533 24.396" />
  <path stroke-linejoin="round" stroke-width="0.13" d="M 37.49 26.794 C 38.551 26.541 40.039 24.699 40.164 22.58 C 40.29 20.463 40.29 20.085 40.29 20.135" />
  <path stroke-linejoin="round" stroke-width="0.13" d="M 40.097 23.15 C 40.29 25.304 39.231 26.44 38.247 26.844" />
  <path stroke-linejoin="round" stroke-width="0.13" d="M 40.064 27.978 C 40.82 27.827 41.451 26.768 41.551 25.835" />
  <path stroke-linejoin="round" stroke-width="0.13" d="M 41.703 25.759 C 41.703 27.751 41.703 28.609 41.048 28.811" />
  <path stroke-linejoin="round" stroke-width="0.13" d="M 44.805 27.777 C 44.301 28.054 44.276 28.306 44.301 28.533" />
  <path stroke-linejoin="round" stroke-width="0.13" d="M 44.058 29.882 C 44.03 30.4 44.642 30.774 46.091 30.428" />
  <path stroke-linejoin="round" stroke-width="0.13" d="M 45.926 28.05 C 46.283 28.24 46.392 28.66 46.418 28.678" />
  <path stroke-linejoin="round" stroke-width="0.3" d="M 41.941 23.716 C 41.941 23.756 51.841 16.748 53.118 15.872 C 54.395 14.997 55.889 13.465 56.655 13.028 C 57.42 12.59 57.749 12.445 57.749 12.445 C 57.749 12.445 57.712 12.227 58.295 11.862 C 58.878 11.497 59.316 11.205 59.572 11.461 C 59.826 11.715 61.722 13.757 63.399 17.003 C 65.076 20.248 66.644 24.184 66.68 24.696 C 66.718 25.205 66.316 25.352 66.061 25.425 C 65.805 25.498 65.112 25.571 65.112 25.533 C 65.112 25.498 58.732 27.429 55.124 29.143 C 51.514 30.856 40.941 35.122 39.847 35.67 C 38.753 36.216 37.951 36.581 37.295 36.253 C 36.639 35.924 35.326 33.774 34.707 32.46 C 34.087 31.149 33.249 29.69 33.759 28.96 C 34.27 28.231 35.084 27.492 36.42 27.097" />
  <path stroke-linejoin="round" stroke-width="0.13" d="M 58.368 12.992 C 61.941 18.242 62.816 20.867 64.93 24.585" />
  <path stroke-linejoin="round" stroke-width="0.13" d="M 33.668 31.202 C 34.064 32.298 34.857 33.908 35.325 34.398" />
  <path stroke-linejoin="round" stroke-width="0.13" d="M 33.225 31.646 C 33.715 32.929 34.648 34.515 35.511 35.448" />
  <path stroke-linejoin="round" stroke-width="0.13" d="M 32.665 32.066 C 32.875 33.185 33.854 34.865 34.601 35.564" />
  <path stroke-linejoin="round" stroke-width="0.3" d="M 33.843 30.582 C 33.624 30.681 33.581 31.038 33.581 31.038 C 33.581 31.038 33.515 30.919 33.322 31.07 C 33.128 31.221 33.073 31.425 33.073 31.425 C 33.073 31.425 32.847 31.457 32.74 31.588 C 32.631 31.716 32.609 31.879 32.609 31.879 C 32.609 31.879 32.395 31.943 32.286 32.158 C 32.179 32.375 31.757 33.161 32.75 34.466 C 33.743 35.771 34.314 36.18 34.573 36.116 C 34.832 36.051 34.982 35.976 34.982 35.966 C 34.982 35.954 35.176 36.03 35.371 35.944 C 35.564 35.857 35.737 35.664 35.737 35.664 C 35.737 35.664 36.082 35.642 36.384 35.49" />
  <path stroke-linejoin="round" stroke-width="0.13" d="M 37.659 28.356 C 37.082 28.801 36.884 29.512 36.637 30.271 C 36.389 31.03 36.026 31.344 35.893 31.509 C 35.762 31.673 35.564 31.806 35.53 31.922 C 35.497 32.036 35.662 32.401 35.762 32.598 C 35.86 32.796 35.926 32.994 35.96 33.011 C 35.993 33.027 36.372 32.78 36.85 32.962 C 37.329 33.143 38.469 33.457 40.036 33.276 C 41.606 33.094 42.991 32.533 43.305 32.335" />
  <path stroke-linejoin="round" stroke-width="0.13" d="M 42.002 31.41 C 41.225 31.888 40.054 32.185 39.871 32.185 C 39.691 32.185 41.357 32.615 42.347 32.203" />
  <path stroke-linejoin="round" stroke-width="0.13" d="M 41.127 31.426 C 40.713 31.492 40.631 31.41 40.598 31.295 C 40.566 31.178 40.698 30.897 40.466 30.996 C 40.234 31.097 40.003 31.492 39.921 31.376 C 39.838 31.262 39.889 30.864 39.607 30.914 C 39.326 30.963 39.393 31.739 39.261 31.739 C 39.128 31.739 38.22 31.262 38.485 31.047" />
  <path stroke-linejoin="round" stroke-width="0.13" d="M 38.188 29.841 C 38.088 30.271 38.502 30.585 38.634 30.535" />
  <path stroke-linejoin="round" stroke-width="0.13" d="M 38.618 29.693 C 38.75 29.809 38.816 30.123 38.75 30.271" />
  <path stroke-linejoin="round" stroke-width="0.13" d="M 39.326 29.676 C 39.326 29.875 39.326 30.007 39.409 30.073" />
  <path stroke-linejoin="round" stroke-width="0.13" d="M 38.518 28.736 C 38.073 29.248 38.155 29.428 38.155 29.428 C 38.155 29.428 38.816 29.314 39.046 29.164" />
  <path stroke-linejoin="round" stroke-width="0.13" d="M 44.741 25.582 C 45.567 25.615 45.865 25.615 46.261 25.451 C 46.656 25.286 46.591 25.153 46.689 25.219 C 46.789 25.286 47.218 26.012 47.383 26.242 C 47.548 26.474 47.548 26.573 47.548 26.573 C 47.548 26.573 47.085 26.87 47.02 26.937" />
  <path stroke-linejoin="round" stroke-width="0.13" d="M 59.816 15.204 C 57.683 15.48 56.726 15.512 53.953 18.054 C 51.179 20.597 49.726 21.521 48.77 21.984 C 47.813 22.446 46.722 22.644 46.722 22.611 C 46.722 22.577 47.515 24.196 48.043 25.649 C 48.572 27.102 49.231 28.388 49.231 28.388 C 49.231 28.388 51.84 27.861 53.689 26.573 C 55.537 25.286 56.99 22.942 58.972 22.05 C 60.953 21.158 61.448 20.861 62.503 20.829" />
  <path stroke-linejoin="round" stroke-width="0.13" d="M 48.77 26.606 C 50.981 25.946 51.411 25.253 53.853 23.469 C 56.298 21.687 58.216 19.702 61.216 19.178" />
  <path stroke-linejoin="round" stroke-width="0.13" d="M 47.978 24.492 C 50.52 23.931 51.279 23.37 53.985 20.928 C 56.694 18.484 58.344 17.493 60.159 17.164" />
  <line stroke-linejoin="round" stroke-width="0.3" x1="42.887" y1="12.128" x2="71.441" y2="6.104" />
  <path stroke-linejoin="round" stroke-width="0.13" d="M 64.524 16.99 C 67.384 16.582 70.447 15.846 71.388 15.356" />
  <path stroke-linejoin="round" stroke-width="0.13" d="M 67.016 22.833 C 68.323 22.711 70.57 22.099 71.266 21.771" />
  <path stroke-linejoin="round" stroke-width="0.13" d="M 14.756 28.554 C 17.289 28.187 18.474 29.248 20.353 29.208 C 22.233 29.167 25.625 29.045 26.237 28.841" />
  <path stroke-linejoin="round" stroke-width="0.13" d="M 31.795 26.634 C 32.774 26.347 33.598 26.574 33.817 26.55" />
  <path stroke-linejoin="round" stroke-width="0.3" d="M 27.231 37.892 C 27.204 37.07 27.92 36.619 27.92 36.619 C 27.92 36.619 28.132 36.116 29.378 35.585 C 30.623 35.055 30.358 35.347 31.074 34.5 C 31.789 33.651 31.774 33.5 31.975 33.439" />
  <path stroke-linejoin="round" stroke-width="0.3" d="M 33.75 35.905 C 32.85 36.435 32.531 36.619 33.115 36.938 C 33.698 37.256 34.201 37.283 34.493 37.548" />
  <path stroke-linejoin="round" stroke-width="0.3" d="M 32.718 34.95 C 32.451 35.93 32.267 36.036 31.815 36.381" />
  <path stroke-linejoin="round" stroke-width="0.13" d="M 32.512 34.124 C 31.684 34.606 30.995 35.082 30.861 35.374" />
  <path stroke-linejoin="round" stroke-width="0.13" d="M 27.92 36.619 C 27.867 37.07 27.602 37.573 27.867 37.892" />
  <path stroke-linejoin="round" stroke-width="0.13" d="M 27.734 38.74 C 28.317 39.296 29.219 39.642 30.649 39.561 C 32.081 39.482 32.585 39.536 32.85 39.588" />
  <path stroke-linejoin="round" stroke-width="0.13" d="M 29.615 37.149 C 29.007 37.707 28.528 38.183 28.609 38.423" />
  <path stroke-linejoin="round" stroke-width="0.13" d="M 30.676 38.051 C 31.472 38.396 32.24 38.396 32.956 38.317" />
  <path stroke-linejoin="round" stroke-width="0.13" d="M 34.493 37.548 C 34.625 37.865 35.871 37.442 35.103 38.317" />
  <path stroke-linejoin="round" stroke-width="0.13" d="M 44.009 35.03 C 44.698 36.143 44.566 36.965 44.38 37.468" />
  <path stroke-linejoin="round" stroke-width="0.13" d="M 35.792 43.299 C 36.984 43.353 38.39 43.378 39.53 42.637" />
  <path stroke-linejoin="round" stroke-width="0.13" d="M 42.207 40.993 C 43.107 40.542 43.558 39.826 43.982 39.164" />
  <path stroke-linejoin="round" stroke-width="0.13" d="M 33.759 28.96 C 33.195 28.614 32.796 28.853 32.134 29.013 C 31.472 29.172 30.73 29.144 30.172 29.384 C 29.615 29.621 29.219 30.178 29.007 30.312 C 28.795 30.443 28.105 30.39 27.681 30.762 C 27.257 31.132 26.966 31.716 26.832 32.034 C 26.701 32.353 26.143 32.459 25.879 32.883 C 25.614 33.307 25.64 33.917 25.533 34.207 C 25.428 34.5 24.367 35.268 24.553 35.401 C 24.739 35.533 25.428 35.454 25.481 35.639 C 25.533 35.825 24.765 37.813 24.553 38.237 C 24.341 38.661 23.519 40.411 23.864 40.676 C 24.208 40.941 25.109 41.231 25.163 41.39 C 25.216 41.549 26.064 42 26.222 42.345 C 26.382 42.689 27.097 43.777 27.548 44.015 C 27.998 44.253 28.582 44.121 28.422 44.518 C 28.263 44.917 28.079 45.5 28.53 45.871 C 28.98 46.241 29.643 46.375 30.039 46.454 C 30.437 46.533 31.657 46.612 32.081 46.851 C 32.505 47.09 33.38 47.408 33.909 47.408 C 34.439 47.408 35.42 47.487 35.844 47.646 C 36.268 47.805 38.628 47.965 39.45 47.567 C 40.271 47.17 41.305 46.506 42.207 46.003 C 43.107 45.5 45.944 43.988 46.42 43.273 C 46.898 42.557 46.686 41.895 47.323 41.338 C 47.959 40.781 49.204 39.323 49.469 38.529 C 49.734 37.732 49.548 35.771 49.152 35.082 C 48.753 34.393 48.356 34.207 48.567 33.597 C 48.78 32.988 48.886 32.459 48.886 32.432" />
  <path stroke-linejoin="round" stroke-width="0.13" d="M 49.601 32.564 C 50.795 35.055 50.636 36.911 49.947 38.607 C 49.258 40.304 48.012 42.954 46.898 44.094 C 45.784 45.234 40.244 48.018 38.415 48.521 C 36.587 49.024 35.819 49.158 34.52 48.68 C 33.22 48.204 32.372 47.911 31.498 47.673 C 30.623 47.435 27.707 45.817 27.336 45.526 C 26.966 45.234 25.905 43.643 25.402 43.113 C 24.897 42.584 23.333 41.47 23.096 40.463 C 22.856 39.456 23.387 37.918 23.414 37.176 C 23.44 36.435 22.937 36.46 23.466 35.93 C 23.996 35.401 24.103 35.426 24.448 34.472 C 24.792 33.518 25.667 30.841 27.15 30.019 C 28.635 29.198 29.615 28.641 30.278 28.667 C 30.942 28.695 31.478 28.362 32.292 28.243" />
 </g>
 <g id="Blow-up">
 </g>
 <g id="Symbols">
 </g>
 <g id="Text&amp;Poses">
 </g>
 <g id="Measures">
 </g>
 <g id="Picture_x0020_#">
  <text font-family="'Arial'" font-size="2.117" fill="#000000" stroke="none" transform="matrix(0 -1 1 0 73.817 51.927)">419 174</text>
 </g>
<style /></svg>