<svg xmlns="http://www.w3.org/2000/svg" clip-rule="evenodd" fill="none" fill-rule="evenodd" stroke="#000000" stroke-linecap="round" viewBox="0 0 150.359 154.165" width="100%" height="100%" xmlns:xml="http://www.w3.org/XML/1998/namespace" xml:space="preserve">
 <g id="A4_x0020_full_x0020_frame">
  <polygon id="AUTOID_22631" stroke="#ffffff" stroke-linejoin="round" stroke-width="0.006" points="0.356,0.003 150.355,0.003 150.355,154.163 0.356,154.163 0.356,0.003" />
 </g>
 <g id="Colour">
 </g>
 <g id="Standard_x0020_layer">
  <path stroke-linejoin="round" stroke-width="0.3" d="M 84.736 60.329 L 80.072 65.174 L 80.072 62.75 L 84.555 57.652 L 84.736 60.329 Z" />
  <path stroke-linejoin="round" stroke-width="0.3" d="M 85.025 63.764 C 85.025 63.764 85.64 71.573 85.856 72.911 C 86.073 74.248 86.218 74.611 87.846 74.936 C 89.471 75.26 90.376 74.533 90.376 74.533 L 103.393 77.322 C 103.393 77.322 103.429 78.478 105.597 78.552 C 107.766 78.623 107.623 78.081 108.453 76.96 C 109.286 75.84 111.129 72.477 111.129 72.477 C 111.129 72.477 110.768 73.706 110.948 74.177 C 111.129 74.647 111.454 75.188 112.141 75.296 C 112.828 75.406 112.828 75.179 113.299 74.533 C 113.769 73.887 124.941 52.229 125.483 51.433 C 126.025 50.639 126.061 50.277 126.061 49.518 C 126.061 48.759 126.061 46.914 126.061 46.914 C 126.061 46.914 126.605 46.228 126.605 45.432 C 126.605 44.637 125.194 43.697 125.194 43.697 C 125.194 43.697 124.688 40.551 124.543 39.792 C 124.399 39.033 123.712 39.104 123.712 39.104 C 123.712 39.104 124.109 38.96 123.82 38.49 C 123.531 38.021 123.061 38.31 123.061 38.31 C 123.061 38.31 123.459 36.972 122.519 36.755 C 121.578 36.537 116.552 35.634 116.552 35.634 L 115.938 35.164 C 115.938 35.164 112.034 34.476 111.816 34.368 C 111.599 34.261 111.165 34.984 110.731 34.911 C 110.298 34.838 107.947 34.357 107.947 34.357" />
  <path stroke-linejoin="round" stroke-width="0.3" d="M 102.715 34.091 C 102.691 34.091 93.831 43.012 93.418 43.456 C 93.007 43.899 93.007 44.746 93.007 44.746 L 92.081 45.78 C 92.081 45.78 90.9 46.076 90.543 46.511 C 90.186 46.945 83.906 53.521 83.486 53.987 C 83.066 54.454 82.911 54.99 82.561 55.378 C 82.21 55.768 81.364 56.561 80.796 57.399 C 80.228 58.24 79.84 59.265 79.84 59.265 C 79.84 59.265 79.39 59.241 79.132 59.405 C 78.876 59.569 77.951 60.323 77.897 60.579 C 77.843 60.835 77.905 61.091 77.897 61.853 C 77.89 62.615 78.246 67.093 78.332 67.713 C 78.418 68.335 78.938 68.599 79.614 68.584 C 80.29 68.569 80.572 68.644 81.007 68.105 C 81.441 67.566 84.986 63.796 84.986 63.796" />
  <path stroke-linejoin="round" stroke-width="0.13" d="M 78.986 62.895 C 78.986 62.895 79.141 66.641 79.233 67.263 C 79.328 67.885 79.885 68.602 80.376 68.546" />
  <path stroke-linejoin="round" stroke-width="0.13" d="M 84.811 60.564 L 85.025 63.676" />
  <path stroke-linejoin="round" stroke-width="0.13" d="M 80.168 65.406 C 80.23 66.24 80.256 66.825 80.665 66.415 C 81.076 66.004 84.811 61.921 84.811 61.921" />
  <path stroke-linejoin="round" stroke-width="0.13" d="M 78.986 60.826 C 78.599 60.789 78.313 61.188 78.35 61.473" />
  <path stroke-linejoin="round" stroke-width="0.13" d="M 77.888 60.634 C 78.117 60.268 78.861 60.13 79.371 60.427" />
  <path stroke-linejoin="round" stroke-width="0.13" d="M 78.426 62.182 C 79.384 62.854 79.658 62.694 80.218 62.121 C 80.778 61.548 80.778 61.088 80.939 60.353 C 81.102 59.618 81.376 58.984 81.549 58.747" />
  <path stroke-linejoin="round" stroke-width="0.13" d="M 79.371 60.889 C 79.371 60.889 79.609 59.546 79.783 59.265" />
  <path stroke-linejoin="round" stroke-width="0.13" d="M 79.576 61.473 C 79.906 60.466 81.375 56.682 83.081 56.246" />
  <path stroke-linejoin="round" stroke-width="0.13" d="M 82.048 58.299 C 82.37 57.677 83.081 56.334 83.826 56.383" />
  <path stroke-linejoin="round" stroke-width="0.13" d="M 83.403 54.579 C 83.665 54.529 84.051 54.503 84.15 54.976" />
  <path stroke-linejoin="round" stroke-width="0.13" d="M 84.811 53.134 C 85.197 53.072 85.408 53.158 85.62 53.384" />
  <path stroke-linejoin="round" stroke-width="0.13" d="M 83.902 55.125 C 83.603 55.548 83.478 56.819 84.811 57.216 C 86.143 57.615 104.537 61.262 105.906 61.548 C 107.275 61.835 107.637 61.685 107.986 61.548 C 108.334 61.411 108.632 61.075 108.632 61.075 C 108.632 61.075 108.109 62.606 108.409 63.676 C 108.706 64.746 109.465 67.621 109.677 67.971 C 109.89 68.319 110.45 68.319 110.45 68.319 C 110.45 68.319 110.474 68.429 110.736 68.585 C 110.998 68.742 111.159 68.841 111.159 68.841 L 111.129 72.477" />
  <path stroke-linejoin="round" stroke-width="0.13" d="M 109.304 61.435 C 108.98 62.121 109.141 63.689 109.415 64.709 C 109.689 65.73 110.448 67.896 110.448 67.896" />
  <path stroke-linejoin="round" stroke-width="0.13" d="M 110.811 61.435 C 110.2 62.332 109.989 63.279 111.159 66.7" />
  <path stroke-linejoin="round" stroke-width="0.13" d="M 111.868 60.402 C 112.228 61.896 112.838 64.335 113.051 64.665 C 113.262 64.995 113.709 65.233 113.871 65.481" />
  <path stroke-linejoin="round" stroke-width="0.13" d="M 84.039 55.125 C 84.039 55.125 91.704 46.973 92.253 46.438 C 92.801 45.902 93.335 46.076 93.447 46.003 C 93.56 45.927 94.307 45.031 94.394 44.869 C 94.48 44.707 94.754 43.737 95.04 43.514 C 95.326 43.289 102.819 35.386 102.819 35.386" />
  <path stroke-linejoin="round" stroke-width="0.13" d="M 102.92 36.095 C 102.92 36.095 96.135 43.04 95.688 43.6 C 95.239 44.161 94.992 44.707 94.78 45.057 C 94.567 45.405 94.046 45.99 93.896 46.189 C 93.746 46.389 93.26 46.289 93 46.551 C 92.739 46.811 84.971 55.125 84.971 55.125" />
  <path stroke-linejoin="round" stroke-width="0.13" d="M 84.561 55.773 C 84.871 56.32 85.444 56.243 85.918 56.381 C 86.391 56.52 93.435 57.851 93.596 57.863 C 93.759 57.877 94.218 57.677 94.555 57.726 C 94.891 57.777 98.102 58.411 98.662 58.661 C 99.222 58.909 99.111 59.134 99.409 59.332 C 99.707 59.531 106.055 60.552 106.727 60.503 C 107.4 60.453 107.971 60.465 108.171 59.942 C 108.37 59.42 113.796 51.179 113.959 50.956 C 114.12 50.732 114.692 50.695 114.692 50.695 C 114.692 50.695 115.862 49.326 115.9 49.101 C 115.938 48.878 116.099 47.993 116.236 47.732 C 116.373 47.47 122.385 38.249 122.509 37.875 C 122.634 37.502 122.359 36.954 121.924 36.929 C 121.489 36.905 116.796 36.281 116.498 36.158 C 116.198 36.033 115.888 35.759 115.888 35.759 C 115.888 35.759 111.656 34.987 111.606 34.963 C 111.557 34.938 110.846 35.212 110.573 35.161 C 110.299 35.112 107.935 34.801 107.935 34.801" />
  <path stroke-linejoin="round" stroke-width="0.13" d="M 107.859 35.262 C 107.722 35.262 122.036 37.515 122.036 37.515" />
  <path stroke-linejoin="round" stroke-width="0.13" d="M 109.091 46.848 L 109.018 40.377 L 109.802 39.456 L 118.165 40.776 L 118.227 44.31" />
  <path stroke-linejoin="round" stroke-width="0.13" d="M 109.626 40.289 L 117.307 41.572" />
  <path stroke-linejoin="round" stroke-width="0.13" d="M 117.307 41.994 C 117.295 42.07 117.307 45.256 117.307 45.256" />
  <path stroke-linejoin="round" stroke-width="0.13" d="M 86.179 51.753 C 86.838 51.828 86.899 52.088 86.899 52.088" />
  <path stroke-linejoin="round" stroke-width="0.13" d="M 89.9 47.82 C 90.385 47.695 90.531 47.776 90.709 47.82" />
  <path stroke-linejoin="round" stroke-width="0.13" d="M 92.165 45.902 C 92.638 45.89 93.078 46.039 93.078 46.039" />
  <path stroke-linejoin="round" stroke-width="0.13" d="M 94.853 42.704 C 95.203 42.518 95.459 42.688 95.71 42.84" />
  <path stroke-linejoin="round" stroke-width="0.13" d="M 100.019 37.515 C 100.417 37.253 100.492 37.442 100.691 37.628" />
  <path stroke-linejoin="round" stroke-width="0.13" d="M 101.4 35.933 C 101.724 35.908 101.774 35.822 102.022 36.095" />
  <path stroke-linejoin="round" stroke-width="0.13" d="M 85.215 56.805 C 85.867 57.042 92.837 58.436 93.248 58.462 C 93.659 58.485 94.132 58.137 94.343 58.162 C 94.555 58.188 97.879 58.823 98.215 58.959 C 98.549 59.095 98.7 59.569 99.173 59.719 C 99.646 59.868 106.204 61.136 106.89 61.149 C 107.573 61.161 108.197 60.978 108.444 60.505 C 108.694 60.03 114.618 51.018 114.618 51.018" />
  <path stroke-linejoin="round" stroke-width="0.13" d="M 106.844 63.628 L 106.709 77.396" />
  <path stroke-linejoin="round" stroke-width="0.13" d="M 103.433 77.26 L 102.819 61.149" />
  <path stroke-linejoin="round" stroke-width="0.13" d="M 90.382 60.344 C 90.382 60.344 90.731 63.798 90.781 64.236 C 90.831 64.673 90.902 64.971 91.591 65.128 C 92.281 65.284 99.9 66.813 100.376 66.912 C 100.852 67.012 101.251 66.733 101.272 66.144 C 101.293 65.555 101.23 60.777 101.186 60.862 C 101.144 60.948 101.322 62.292 100.504 62.22 C 99.686 62.149 91.272 60.5 90.617 60.344 C 89.963 60.188 89.956 59.627 89.971 58.816" />
  <path stroke-linejoin="round" stroke-width="0.13" d="M 89.879 60.301 C 89.914 61.283 90.007 63.35 90.063 63.801 C 90.12 64.254 90.277 65.128 90.504 65.334" />
  <path stroke-linejoin="round" stroke-width="0.13" d="M 90.944 65.722 C 91.406 65.917 99.474 67.594 100.043 67.673 C 100.611 67.751 101.087 68.063 101.222 67.082" />
  <path stroke-linejoin="round" stroke-width="0.13" d="M 88.719 58.255 C 88.719 58.255 89.159 65.12 89.188 65.661 C 89.218 66.2 89.466 66.671 90.149 66.897 C 90.831 67.125 100.704 69.265 101.277 69.356 C 101.847 69.45 102.743 69.072 103.034 68.475" />
  <path stroke-linejoin="round" stroke-width="0.13" d="M 88.5 58.161 L 89.289 74.73" />
  <path stroke-linejoin="round" stroke-width="0.13" d="M 89.721 66.87 L 90.128 74.311" />
  <path stroke-linejoin="round" stroke-width="0.13" d="M 109.405 60.978 C 109.405 60.978 109.861 61.088 110.316 60.42 C 110.772 59.753 111.868 58.1 112.111 57.78 C 112.353 57.46 112.055 56.695 112.055 56.695 C 112.055 56.695 112.177 56.683 112.248 56.616 C 112.319 56.551 113.98 53.932 114.072 53.811 C 114.167 53.689 114.718 53.597 114.822 53.343 C 114.927 53.09 115.236 52.34 115.551 51.832 C 115.864 51.326 115.12 50.945 115.12 50.945" />
  <path stroke-linejoin="round" stroke-width="0.13" d="M 113.748 52.709 C 114.117 52.802 114.37 53.122 114.305 53.52" />
  <path stroke-linejoin="round" stroke-width="0.13" d="M 111.367 56.341 C 111.676 56.32 111.829 56.451 111.968 56.7" />
  <path stroke-linejoin="round" stroke-width="0.13" d="M 110.192 58.084 C 110.617 58.051 111.025 58.491 110.975 58.926" />
  <path stroke-linejoin="round" stroke-width="0.13" d="M 108.804 60.155 C 109.206 60.006 109.597 60.493 109.552 60.878" />
  <path stroke-linejoin="round" stroke-width="0.13" d="M 113.379 64.412 C 113.394 64.412 116.222 59.506 116.222 59.521" />
  <path stroke-linejoin="round" stroke-width="0.13" d="M 115.512 55.591 L 116.311 58.563" />
  <path stroke-linejoin="round" stroke-width="0.13" d="M 116.189 54.462 C 116.189 54.517 117.292 58.854 117.292 58.854 L 113.759 65.061" />
  <path stroke-linejoin="round" stroke-width="0.13" d="M 110.546 67.492 C 110.941 67.62 111.4 67.245 111.626 67.03 C 111.852 66.814 112.215 66.748 112.486 67.382 C 112.756 68.016 112.447 68.391 112.215 68.49 C 111.983 68.59 111.206 68.578 110.93 67.78" />
  <path stroke-linejoin="round" stroke-width="0.13" d="M 112.138 66.731 C 112.138 66.731 112.7 66.141 112.971 65.927 C 113.24 65.712 114.04 66.147 113.941 66.599" />
  <path stroke-linejoin="round" stroke-width="0.13" d="M 111.593 68.975 C 112.049 69.147 112.584 68.986 112.998 68.352 C 113.412 67.718 113.742 66.936 113.871 66.754 C 114.001 66.572 114.206 65.757 114.277 65.623 C 114.349 65.492 126.183 46.365 126.183 46.365" />
  <path stroke-linejoin="round" stroke-width="0.13" d="M 115.219 50.786 C 115.439 50.454 115.534 50.603 115.76 50.323 C 115.986 50.04 116.471 49.121 116.471 49.121" />
  <path stroke-linejoin="round" stroke-width="0.13" d="M 116.608 48.978 C 116.647 48.762 116.492 48.179 116.862 47.652 C 117.231 47.125 122.887 38.57 122.887 38.57" />
  <path stroke-linejoin="round" stroke-width="0.13" d="M 122.263 39.695 C 122.561 39.651 122.754 39.811 122.793 40.091" />
  <path stroke-linejoin="round" stroke-width="0.13" d="M 121.375 40.856 C 121.631 40.698 121.906 40.841 121.966 41.122" />
  <path stroke-linejoin="round" stroke-width="0.13" d="M 123.564 39.512 C 123.564 39.512 122.484 41.261 122.263 41.601 C 122.043 41.944 121.525 41.994 121.525 41.994 L 118.489 46.573 C 118.489 46.573 118.659 46.96 118.384 47.567 C 118.108 48.173 117.959 48.271 117.799 48.515 C 117.64 48.756 117.105 48.923 116.962 48.899" />
  <path stroke-linejoin="round" stroke-width="0.13" d="M 116.724 48.002 C 116.923 47.896 117.54 47.655 117.54 48.216" />
  <path stroke-linejoin="round" stroke-width="0.13" d="M 117.656 46.468 C 117.865 46.32 118.085 46.243 118.373 46.585" />
  <path stroke-linejoin="round" stroke-width="0.13" d="M 122.159 44.104 C 122.159 44.104 122.893 47.848 122.909 47.859" />
  <path stroke-linejoin="round" stroke-width="0.13" d="M 122.567 42.347 L 123.665 47.494" />
  <path stroke-linejoin="round" stroke-width="0.13" d="M 124.986 44.594 L 124.132 46.023 C 124.132 46.023 124.612 45.88 125.015 46.226 C 125.417 46.573 125.444 46.773 125.427 46.966" />
  <path stroke-linejoin="round" stroke-width="0.13" d="M 123.631 39.85 C 123.956 39.92 124.221 40.39 124.161 40.857" />
  <path stroke-linejoin="round" stroke-width="0.13" d="M 116.846 49.154 C 116.906 49.606 116.823 49.628 117.132 49.71 C 117.441 49.792 117.563 49.853 117.694 50.173 C 117.826 50.493 117.826 50.707 118.052 50.753 C 118.278 50.796 118.533 50.819 118.775 51.072 C 119.018 51.326 119.099 51.226 119.111 51.661 C 119.123 52.097 119.718 54.908 119.718 54.908 L 121.834 51.43" />
  <path stroke-linejoin="round" stroke-width="0.13" d="M 119.822 53.475 L 122.748 48.585" />
  <path stroke-linejoin="round" stroke-width="0.13" d="M 117.265 50.167 C 117.265 50.167 116.454 51.457 116.411 51.579 C 116.365 51.701 116.525 53.113 116.525 53.113" />
  <path stroke-linejoin="round" stroke-width="0.13" d="M 124.981 48.454 C 125.091 48.945 125.102 50.212 125.031 50.564 C 124.959 50.917 124.656 51.6 124.507 51.932 C 124.358 52.262 113.356 72.355 113.18 72.668 C 113.004 72.983 112.822 73.103 112.756 72.9" />
  <path stroke-linejoin="round" stroke-width="0.13" d="M 112.138 69.201 C 112.138 69.201 112.082 73.876 112.138 74.311 C 112.194 74.746 112.629 75.332 112.805 75.194" />
  <path stroke-linejoin="round" stroke-width="0.13" d="M 112.942 68.495 L 112.756 72.299" />
  <path stroke-linejoin="round" stroke-width="0.3" d="M 122.495 52.423 C 122.495 52.423 122.483 52.917 122.281 53.243 C 122.037 53.634 113.015 69.388 113.01 69.427 C 113.004 69.465 112.894 71.317 112.894 71.317 C 112.894 71.317 123.367 52.543 123.746 52.03 C 124.128 51.518 124.358 50.874 124.353 50.503 C 124.349 50.186 124.326 49.582 124.322 49.418 C 124.319 49.392 124.319 49.377 124.319 49.377 L 122.495 52.423 Z" />
  <path stroke-linejoin="round" stroke-width="0.3" d="M 112.87 44.381 L 102.022 59.862" />
  <path stroke-linejoin="round" stroke-width="0.13" d="M 102.617 59.862 L 113.379 44.381" />
  <path stroke-linejoin="round" stroke-width="0.13" d="M 113.623 44.45 L 113.871 49.154" />
  <path stroke-linejoin="round" stroke-width="0.3" d="M 115.385 49.853 C 114.99 49.063 113.32 48.905 112.59 49.853 C 111.861 50.801 105.233 60.21 105.308 60.228" />
  <path stroke-linejoin="round" stroke-width="0.3" d="M 95.093 57.701 L 103.659 48.978" />
  <path stroke-linejoin="round" stroke-width="0.3" d="M 103.751 47.494 L 98.027 54.713" />
  <path stroke-linejoin="round" stroke-width="0.3" d="M 99.102 58.728 L 104.025 53.115" />
  <path stroke-linejoin="round" stroke-width="0.3" d="M 106.844 45.78 C 107.778 45.365 108.162 45.845 108.584 46.365 C 109.004 46.884 109.042 47.469 108.584 47.982 C 108.126 48.494 106.406 50.582 106.406 50.582" />
  <path stroke-linejoin="round" stroke-width="0.3" d="M 110.346 47.753 C 109.921 46.902 109.506 47.14 109.018 47.286" />
  <path stroke-linejoin="round" stroke-width="0.3" d="M 10.913 44.359 L 6.25 49.203 L 6.25 46.78 L 10.734 41.682 L 10.913 44.359 Z" />
  <path stroke-linejoin="round" stroke-width="0.3" d="M 11.204 47.793 C 11.204 47.793 11.817 55.603 12.035 56.941 C 12.252 58.279 12.397 58.64 14.023 58.966 C 15.65 59.29 16.554 58.563 16.554 58.563 L 29.571 61.351 C 29.571 61.351 29.606 62.509 31.777 62.581 C 33.945 62.654 33.801 62.11 34.633 60.99 C 35.463 59.869 37.307 56.506 37.307 56.506 C 37.307 56.506 36.947 57.735 37.128 58.206 C 37.307 58.676 37.634 59.219 38.32 59.326 C 39.006 59.435 39.008 59.209 39.478 58.563 C 39.948 57.917 51.119 36.259 51.661 35.463 C 52.204 34.668 52.24 34.307 52.24 33.548 C 52.24 32.789 52.24 30.945 52.24 30.945 C 52.24 30.945 52.783 30.257 52.783 29.461 C 52.783 28.667 51.372 27.727 51.372 27.727 C 51.372 27.727 50.866 24.58 50.722 23.821 C 50.578 23.062 49.89 23.135 49.89 23.135 C 49.89 23.135 50.287 22.989 49.999 22.519 C 49.71 22.05 49.24 22.338 49.24 22.338 C 49.24 22.338 49.637 21.001 48.698 20.785 C 47.756 20.568 42.731 19.664 42.731 19.664 L 42.475 19.466" />
  <path stroke-linejoin="round" stroke-width="0.3" d="M 18.542 29.495 L 18.26 29.809 C 18.26 29.809 17.079 30.105 16.722 30.541 C 16.364 30.975 10.085 37.551 9.664 38.018 C 9.244 38.484 9.089 39.02 8.74 39.408 C 8.39 39.796 7.541 40.59 6.974 41.429 C 6.408 42.268 6.019 43.295 6.019 43.295 C 6.019 43.295 5.567 43.271 5.312 43.435 C 5.054 43.597 4.129 44.351 4.075 44.609 C 4.022 44.865 4.083 45.121 4.075 45.884 C 4.067 46.645 4.424 51.121 4.511 51.743 C 4.596 52.365 5.117 52.63 5.794 52.615 C 6.469 52.598 6.75 52.673 7.184 52.134 C 7.62 51.595 11.164 47.826 11.164 47.826" />
  <path stroke-linejoin="round" stroke-width="0.13" d="M 5.163 46.924 C 5.163 46.924 5.32 50.671 5.413 51.292 C 5.506 51.914 6.062 52.631 6.554 52.576" />
  <path stroke-linejoin="round" stroke-width="0.13" d="M 10.989 44.594 L 11.204 47.706" />
  <path stroke-linejoin="round" stroke-width="0.13" d="M 6.346 49.436 C 6.408 50.271 6.434 50.854 6.844 50.445 C 7.254 50.033 10.989 45.951 10.989 45.951" />
  <path stroke-linejoin="round" stroke-width="0.13" d="M 5.163 44.856 C 4.778 44.819 4.492 45.216 4.53 45.503" />
  <path stroke-linejoin="round" stroke-width="0.13" d="M 4.067 44.662 C 4.294 44.298 5.04 44.158 5.549 44.457" />
  <path stroke-linejoin="round" stroke-width="0.13" d="M 4.604 46.213 C 5.562 46.884 5.836 46.722 6.397 46.151 C 6.956 45.578 6.955 45.116 7.118 44.383 C 7.28 43.649 7.554 43.014 7.727 42.777" />
  <path stroke-linejoin="round" stroke-width="0.13" d="M 5.549 44.917 C 5.549 44.917 5.788 43.576 5.961 43.293" />
  <path stroke-linejoin="round" stroke-width="0.13" d="M 5.756 45.503 C 6.084 44.494 7.554 40.712 9.259 40.276" />
  <path stroke-linejoin="round" stroke-width="0.13" d="M 8.226 42.329 C 8.55 41.707 9.259 40.362 10.006 40.412" />
  <path stroke-linejoin="round" stroke-width="0.13" d="M 9.583 38.607 C 9.843 38.557 10.23 38.533 10.329 39.006" />
  <path stroke-linejoin="round" stroke-width="0.13" d="M 10.989 37.164 C 11.375 37.101 11.586 37.189 11.798 37.412" />
  <path stroke-linejoin="round" stroke-width="0.13" d="M 10.08 39.155 C 9.782 39.579 9.657 40.847 10.989 41.246 C 12.32 41.645 30.716 45.292 32.085 45.578 C 33.454 45.863 33.814 45.715 34.164 45.578 C 34.512 45.441 34.811 45.104 34.811 45.104 C 34.811 45.104 34.287 46.636 34.587 47.706 C 34.886 48.777 35.645 51.652 35.856 52 C 36.067 52.348 36.628 52.348 36.628 52.348 C 36.628 52.348 36.652 52.459 36.914 52.615 C 37.176 52.771 37.338 52.871 37.338 52.871 L 37.307 56.506" />
  <path stroke-linejoin="round" stroke-width="0.13" d="M 35.482 45.466 C 35.158 46.151 35.32 47.719 35.594 48.74 C 35.868 49.759 36.628 51.926 36.628 51.926" />
  <path stroke-linejoin="round" stroke-width="0.13" d="M 36.988 45.466 C 36.378 46.362 36.168 47.307 37.338 50.731" />
  <path stroke-linejoin="round" stroke-width="0.13" d="M 38.046 44.432 C 38.408 45.926 39.018 48.365 39.228 48.695 C 39.441 49.024 39.889 49.262 40.051 49.511" />
  <path stroke-linejoin="round" stroke-width="0.13" d="M 10.217 39.155 C 10.217 39.155 17.884 31.003 18.431 30.468 C 18.978 29.932 19.513 30.106 19.626 30.032 C 19.678 29.998 19.87 29.782 20.068 29.547" />
  <path stroke-linejoin="round" stroke-width="0.13" d="M 20.576 29.606 C 20.373 29.859 20.161 30.103 20.074 30.219 C 19.925 30.417 19.439 30.318 19.178 30.579 C 18.917 30.841 11.15 39.155 11.15 39.155" />
  <path stroke-linejoin="round" stroke-width="0.13" d="M 10.74 39.802 C 11.051 40.35 11.622 40.273 12.096 40.411 C 12.568 40.549 19.614 41.881 19.775 41.893 C 19.937 41.905 20.397 41.707 20.734 41.756 C 21.07 41.807 24.28 42.441 24.841 42.689 C 25.4 42.939 25.289 43.162 25.588 43.362 C 25.887 43.561 32.234 44.582 32.905 44.531 C 33.578 44.482 34.151 44.494 34.35 43.972 C 34.548 43.448 39.975 35.21 40.137 34.985 C 40.298 34.762 40.871 34.725 40.871 34.725 C 40.871 34.725 42.042 33.354 42.079 33.131 C 42.116 32.908 42.277 32.024 42.414 31.762 C 42.551 31.501 48.563 22.277 48.688 21.905 C 48.811 21.532 48.537 20.984 48.103 20.958 C 47.667 20.934 42.975 20.312 42.676 20.187 C 42.378 20.062 42.066 19.789 42.066 19.789" />
  <path stroke-linejoin="round" stroke-width="0.13" d="M 41.533 20.489 C 44.938 21.027 48.215 21.544 48.215 21.544" />
  <path stroke-linejoin="round" stroke-width="0.13" d="M 38.81 23.931 L 44.344 24.804 L 44.405 28.339" />
  <path stroke-linejoin="round" stroke-width="0.13" d="M 35.271 30.879 L 35.24 28.347" />
  <path stroke-linejoin="round" stroke-width="0.13" d="M 38.131 24.707 L 43.484 25.602" />
  <path stroke-linejoin="round" stroke-width="0.13" d="M 43.484 26.024 C 43.472 26.099 43.484 29.286 43.484 29.286" />
  <path stroke-linejoin="round" stroke-width="0.13" d="M 12.358 35.783 C 13.016 35.857 13.077 36.116 13.077 36.116" />
  <path stroke-linejoin="round" stroke-width="0.13" d="M 16.079 31.85 C 16.564 31.725 16.71 31.806 16.888 31.85" />
  <path stroke-linejoin="round" stroke-width="0.13" d="M 18.344 29.932 C 18.817 29.92 19.257 30.068 19.257 30.068" />
  <path stroke-linejoin="round" stroke-width="0.13" d="M 11.394 40.835 C 12.045 41.072 19.015 42.466 19.426 42.49 C 19.838 42.515 20.31 42.167 20.521 42.192 C 20.734 42.216 24.056 42.851 24.393 42.988 C 24.728 43.125 24.878 43.598 25.35 43.747 C 25.824 43.898 32.384 45.164 33.067 45.179 C 33.753 45.192 34.375 45.009 34.624 44.533 C 34.872 44.058 40.796 35.048 40.796 35.048" />
  <path stroke-linejoin="round" stroke-width="0.13" d="M 33.024 47.658 L 32.889 61.426" />
  <path stroke-linejoin="round" stroke-width="0.13" d="M 29.611 61.29 L 28.998 45.179" />
  <path stroke-linejoin="round" stroke-width="0.13" d="M 16.562 44.374 C 16.562 44.374 16.91 47.828 16.96 48.265 C 17.01 48.703 17.08 49 17.769 49.158 C 18.46 49.314 26.079 50.841 26.556 50.942 C 27.032 51.04 27.429 50.764 27.451 50.173 C 27.472 49.584 27.408 44.807 27.365 44.893 C 27.323 44.978 27.501 46.322 26.682 46.25 C 25.865 46.179 17.449 44.53 16.795 44.374 C 16.141 44.218 16.135 43.655 16.149 42.845" />
  <path stroke-linejoin="round" stroke-width="0.13" d="M 16.056 44.331 C 16.092 45.311 16.184 47.378 16.242 47.831 C 16.298 48.283 16.454 49.158 16.682 49.363" />
  <path stroke-linejoin="round" stroke-width="0.13" d="M 17.123 49.752 C 17.585 49.947 25.652 51.624 26.221 51.701 C 26.789 51.78 27.265 52.093 27.4 51.112" />
  <path stroke-linejoin="round" stroke-width="0.13" d="M 14.899 42.283 C 14.899 42.283 15.339 49.151 15.368 49.691 C 15.396 50.231 15.644 50.7 16.327 50.927 C 17.01 51.155 26.882 53.295 27.454 53.387 C 28.027 53.478 28.922 53.101 29.213 52.506" />
  <path stroke-linejoin="round" stroke-width="0.13" d="M 14.678 42.192 L 15.467 58.759" />
  <path stroke-linejoin="round" stroke-width="0.13" d="M 15.9 50.899 L 16.306 58.341" />
  <path stroke-linejoin="round" stroke-width="0.13" d="M 35.582 45.006 C 35.582 45.006 36.04 45.116 36.494 44.45 C 36.95 43.783 38.046 42.13 38.289 41.81 C 38.531 41.49 38.234 40.723 38.234 40.723 C 38.234 40.723 38.356 40.713 38.426 40.646 C 38.499 40.581 40.158 37.963 40.252 37.841 C 40.345 37.719 40.896 37.625 41.002 37.372 C 41.106 37.118 41.414 36.369 41.728 35.862 C 42.042 35.354 41.298 34.975 41.298 34.975" />
  <path stroke-linejoin="round" stroke-width="0.13" d="M 39.926 36.738 C 40.295 36.832 40.549 37.152 40.482 37.548" />
  <path stroke-linejoin="round" stroke-width="0.13" d="M 37.545 40.371 C 37.853 40.348 38.008 40.481 38.146 40.729" />
  <path stroke-linejoin="round" stroke-width="0.13" d="M 36.371 42.112 C 36.795 42.079 37.204 42.521 37.154 42.957" />
  <path stroke-linejoin="round" stroke-width="0.13" d="M 34.981 44.185 C 35.384 44.036 35.776 44.521 35.731 44.908" />
  <path stroke-linejoin="round" stroke-width="0.13" d="M 39.557 48.441 C 39.573 48.441 42.402 43.534 42.402 43.551" />
  <path stroke-linejoin="round" stroke-width="0.13" d="M 41.691 39.621 L 42.49 42.593" />
  <path stroke-linejoin="round" stroke-width="0.13" d="M 42.368 38.491 C 42.368 38.546 43.47 42.884 43.47 42.884 L 39.938 49.091" />
  <path stroke-linejoin="round" stroke-width="0.13" d="M 36.723 51.523 C 37.121 51.649 37.578 51.274 37.804 51.058 C 38.03 50.844 38.393 50.777 38.664 51.411 C 38.933 52.045 38.625 52.42 38.393 52.52 C 38.162 52.618 37.386 52.607 37.109 51.808" />
  <path stroke-linejoin="round" stroke-width="0.13" d="M 38.317 50.762 C 38.317 50.762 38.878 50.171 39.149 49.957 C 39.42 49.741 40.219 50.177 40.119 50.63" />
  <path stroke-linejoin="round" stroke-width="0.13" d="M 37.771 53.005 C 38.228 53.176 38.764 53.015 39.176 52.381 C 39.59 51.749 39.92 50.966 40.051 50.783 C 40.179 50.601 40.384 49.786 40.456 49.654 C 40.527 49.521 52.362 30.393 52.362 30.393" />
  <path stroke-linejoin="round" stroke-width="0.13" d="M 41.398 34.814 C 41.618 34.484 41.713 34.633 41.939 34.351 C 42.164 34.07 42.649 33.151 42.649 33.151" />
  <path stroke-linejoin="round" stroke-width="0.13" d="M 42.786 33.006 C 42.826 32.792 42.671 32.21 43.04 31.682 C 43.409 31.155 49.066 22.6 49.066 22.6" />
  <path stroke-linejoin="round" stroke-width="0.13" d="M 48.442 23.725 C 48.74 23.681 48.932 23.839 48.972 24.121" />
  <path stroke-linejoin="round" stroke-width="0.13" d="M 47.552 24.887 C 47.808 24.728 48.085 24.87 48.145 25.152" />
  <path stroke-linejoin="round" stroke-width="0.13" d="M 49.743 23.542 C 49.743 23.542 48.662 25.289 48.442 25.632 C 48.222 25.974 47.704 26.024 47.704 26.024 L 44.667 30.603 C 44.667 30.603 44.838 30.989 44.561 31.596 C 44.286 32.201 44.137 32.301 43.978 32.543 C 43.817 32.786 43.283 32.951 43.14 32.929" />
  <path stroke-linejoin="round" stroke-width="0.13" d="M 42.902 32.031 C 43.101 31.926 43.719 31.684 43.719 32.246" />
  <path stroke-linejoin="round" stroke-width="0.13" d="M 43.835 30.496 C 44.043 30.35 44.265 30.272 44.551 30.614" />
  <path stroke-linejoin="round" stroke-width="0.13" d="M 48.338 28.134 C 48.338 28.134 49.07 31.878 49.088 31.888" />
  <path stroke-linejoin="round" stroke-width="0.13" d="M 48.746 26.376 L 49.843 31.524" />
  <path stroke-linejoin="round" stroke-width="0.13" d="M 51.165 28.625 L 50.311 30.053 C 50.311 30.053 50.79 29.908 51.192 30.257 C 51.595 30.603 51.622 30.801 51.606 30.995" />
  <path stroke-linejoin="round" stroke-width="0.13" d="M 49.81 23.879 C 50.134 23.951 50.399 24.419 50.338 24.888" />
  <path stroke-linejoin="round" stroke-width="0.13" d="M 43.024 33.183 C 43.085 33.636 43.002 33.658 43.31 33.74 C 43.619 33.823 43.74 33.884 43.872 34.203 C 44.006 34.523 44.006 34.737 44.231 34.781 C 44.457 34.826 44.71 34.847 44.954 35.101 C 45.195 35.354 45.279 35.256 45.289 35.692 C 45.301 36.127 45.896 38.938 45.896 38.938 L 48.012 35.46" />
  <path stroke-linejoin="round" stroke-width="0.13" d="M 46 37.505 L 48.927 32.615" />
  <path stroke-linejoin="round" stroke-width="0.13" d="M 43.442 34.198 C 43.442 34.198 42.633 35.487 42.588 35.609 C 42.545 35.729 42.704 37.143 42.704 37.143" />
  <path stroke-linejoin="round" stroke-width="0.13" d="M 51.159 32.484 C 51.271 32.973 51.281 34.241 51.21 34.594 C 51.137 34.947 50.835 35.631 50.686 35.962 C 50.537 36.292 39.534 56.384 39.359 56.698 C 39.182 57.012 39 57.134 38.933 56.929" />
  <path stroke-linejoin="round" stroke-width="0.13" d="M 38.317 53.231 C 38.317 53.231 38.262 57.905 38.317 58.341 C 38.371 58.777 38.807 59.362 38.984 59.223" />
  <path stroke-linejoin="round" stroke-width="0.13" d="M 39.121 52.526 L 38.933 56.329" />
  <path stroke-linejoin="round" stroke-width="0.3" d="M 48.673 36.451 C 48.673 36.451 48.661 36.945 48.459 37.274 C 48.216 37.664 39.194 53.418 39.188 53.457 C 39.182 53.496 39.072 55.347 39.072 55.347 C 39.072 55.347 49.545 36.573 49.926 36.06 C 50.305 35.548 50.537 34.902 50.531 34.533 C 50.527 34.216 50.506 33.612 50.5 33.448 C 50.499 33.421 50.499 33.405 50.499 33.405 L 48.673 36.451 Z" />
  <path stroke-linejoin="round" stroke-width="0.3" d="M 39.048 28.411 L 28.202 43.892" />
  <path stroke-linejoin="round" stroke-width="0.13" d="M 28.795 43.892 L 39.557 28.411" />
  <path stroke-linejoin="round" stroke-width="0.13" d="M 39.801 28.478 L 40.051 33.183" />
  <path stroke-linejoin="round" stroke-width="0.3" d="M 41.564 33.883 C 41.17 33.091 39.499 32.935 38.768 33.883 C 38.039 34.831 31.413 44.24 31.486 44.258" />
  <path stroke-linejoin="round" stroke-width="0.3" d="M 21.271 41.731 L 31.384 31.477" />
  <path stroke-linejoin="round" stroke-width="0.3" d="M 29.929 31.524 L 24.205 38.743" />
  <path stroke-linejoin="round" stroke-width="0.3" d="M 25.28 42.756 L 30.204 37.145 L 32.584 34.61 C 32.584 34.61 34.304 32.524 34.762 32.012 C 35.219 31.5 35.183 30.914 34.762 30.393 C 34.554 30.137 34.354 29.89 34.093 29.756" />
  <path stroke-linejoin="round" stroke-width="0.3" d="M 36.524 31.783 C 36.098 30.931 35.683 31.17 35.195 31.317" />
  <path stroke-linejoin="round" stroke-width="0.3" d="M 9.144 20.382 C 9.144 20.382 8.65 20.112 8.628 19.466 C 8.605 18.821 8.942 18.507 9.48 18.047 C 10.019 17.588 27.899 2.053 28.292 1.717 C 28.684 1.381 29.695 1.201 30.827 1.37 C 31.961 1.538 35.329 2.053 35.89 2.121 C 36.451 2.189 36.787 2.367 36.787 2.367 L 41.613 3.132 C 41.613 3.132 42.04 2.907 42.365 2.895 C 42.692 2.884 47.002 3.48 47.63 3.648 C 48.259 3.815 48.527 4.062 48.426 4.546 C 48.326 5.027 48.27 5.32 48.27 5.32 C 48.27 5.32 47.877 10.438 47.899 11.067 C 47.921 11.695 47.698 12.515 47.002 13.356 C 46.305 14.198 33.32 30.405 33.017 30.943 C 32.713 31.483 32.118 31.632 31.693 31.524 C 31.265 31.414 25.486 30.687 24.498 30.393 C 23.51 30.102 23.207 29.495 23.207 29.495 L 18.853 29.024 C 18.853 29.024 18.202 29.361 17.382 29.227 C 16.562 29.091 11.074 28.295 10.502 28.172 C 9.929 28.047 9.458 27.565 9.458 26.814 C 9.458 26.062 9.144 20.382 9.144 20.382 Z" />
  <path stroke-linejoin="round" stroke-width="0.13" d="M 17.931 23.795 L 18.077 28.934" />
  <path stroke-linejoin="round" stroke-width="0.13" d="M 18.542 24.984 L 18.673 28.71" />
  <path stroke-linejoin="round" stroke-width="0.13" d="M 23.477 23.446 L 23.544 29.149" />
  <path stroke-linejoin="round" stroke-width="0.13" d="M 9.061 20.327 C 9.76 20.539 16.865 21.74 17.102 21.707 C 17.338 21.673 18.134 21.46 18.449 21.46 C 18.763 21.46 22.522 22.211 22.769 22.224 C 23.016 22.234 22.993 22.638 23.544 22.762 C 24.094 22.885 30.143 23.66 31.143 23.795 C 32.14 23.929 33.106 23.861 33.768 23.12 C 34.43 22.381 48 5.354 48 5.354" />
  <path stroke-linejoin="round" stroke-width="0.13" d="M 47.529 5.219 C 47.529 5.219 34.005 22.324 33.444 22.829 C 32.881 23.335 32.164 23.603 31.221 23.446 C 30.277 23.289 23.96 22.458 23.734 22.37 C 23.51 22.28 22.905 21.774 22.905 21.774 C 22.905 21.774 18.661 21.146 18.257 21.033 C 17.853 20.922 17.73 21.359 17.248 21.225 C 16.765 21.089 10.356 20.091 9.862 19.989 C 9.368 19.888 8.579 19.611 8.627 19.327" />
  <path stroke-linejoin="round" stroke-width="0.13" d="M 34.106 4.322 L 35.003 3.289 L 28.92 2.435 L 10.74 18.475 L 18.707 19.518 C 18.707 19.518 21.31 18.071 22.321 16.791 C 23.33 15.512 24.667 13.39 24.936 13.099 C 25.204 12.807 31.153 6.969 31.153 6.969" />
  <path stroke-linejoin="round" stroke-width="0.13" d="M 27.192 11.359 L 25.036 13.468" />
  <path stroke-linejoin="round" stroke-width="0.13" d="M 24.699 13.782 C 24.274 14.535 23.51 16.207 22.231 17.285 C 20.951 18.361 19.111 19.597 19.111 19.597 C 19.111 19.597 17.943 20.663 18.004 20.663 C 18.067 20.663 23.004 21.617 23.06 21.606 C 23.117 21.594 24.184 20.271 24.184 20.271 C 24.184 20.271 26.451 19.17 27.449 17.812 C 28.449 16.454 29.661 14.433 30.065 14.029 C 30.469 13.625 35.676 7.655 35.676 7.655" />
  <path stroke-linejoin="round" stroke-width="0.13" d="M 33.42 7.216 L 36.226 7.575 L 30.143 14.355 C 30.143 14.355 28.684 16.757 27.562 18.047 C 26.44 19.338 24.609 20.37 24.609 20.37 L 32.634 21.707 L 46.237 4.849 L 40.67 4.086" />
  <path stroke-linejoin="round" stroke-width="0.13" d="M 28.897 6.735 C 28.964 5.443 29.986 3.446 31.468 3.782 C 32.95 4.118 38.246 5.354 38.246 5.354" />
  <path stroke-linejoin="round" stroke-width="0.13" d="M 36.159 2.839 L 40.85 3.501" />
  <path stroke-linejoin="round" stroke-width="0.13" d="M 38.381 5.735 L 40.593 4.389 C 40.593 4.389 44.296 4.703 44.329 4.838 C 44.363 4.971 44.454 6.453 44.454 6.453" />
  <path stroke-linejoin="round" stroke-width="0.13" d="M 44.049 6.599 L 41.637 10.146 C 41.637 10.146 40.491 10.403 40.491 10.359 C 40.491 10.314 38.246 12.952 38.246 12.952 L 38.201 14.478" />
  <path stroke-linejoin="round" stroke-width="0.13" d="M 38.381 13.076 L 39.347 13.076" />
  <path stroke-linejoin="round" stroke-width="0.13" d="M 37.921 6.274 C 37.606 6.746 36.642 7.676 36.664 7.846 C 36.686 8.013 36.709 8.205 36.709 8.205 C 36.709 8.205 42.13 8.9 42.198 8.888 C 42.265 8.878 44.173 5.107 44.173 5.107" />
  <path stroke-linejoin="round" stroke-width="0.13" d="M 36.328 16.431 L 30.076 15.5 L 25.586 20.489" />
  <path stroke-linejoin="round" stroke-width="0.13" d="M 26.001 20.303 L 29.929 15.881" />
  <path stroke-linejoin="round" stroke-width="0.13" d="M 30.536 15.826 L 36.328 16.701" />
  <path stroke-linejoin="round" stroke-width="0.13" d="M 30.367 15.826 C 30.457 16.387 30.806 19.698 30.806 19.698" />
  <path stroke-linejoin="round" stroke-width="0.13" d="M 24.946 14.041 L 25.28 17.879 L 21.882 21.167" />
  <path stroke-linejoin="round" stroke-width="0.13" d="M 25.507 17.89 L 26.708 18.092" />
  <path stroke-linejoin="round" stroke-width="0.13" d="M 28.202 20.731 C 28.202 20.731 29.077 20.079 29.571 19.911 C 30.065 19.742 30.66 20.303 30.66 20.303" />
  <path stroke-linejoin="round" stroke-width="0.13" d="M 30.861 20.359 C 30.861 20.359 31.478 20.035 31.67 20.012 C 31.861 19.989 32.31 20.112 32.219 20.303 C 32.13 20.495 31.635 20.888 31.635 20.888 C 31.635 20.888 31.78 21.182 31.826 21.382" />
  <path stroke-linejoin="round" stroke-width="0.13" d="M 28.46 20.731 C 28.897 20.573 29.525 20.943 29.885 21.326" />
  <path stroke-linejoin="round" stroke-width="0.13" d="M 30.187 20.259 C 30.548 20.416 31.064 20.64 31.457 21.167" />
  <path stroke-linejoin="round" stroke-width="0.13" d="M 32.039 21.326 C 32.107 21.314 32.993 19.937 33.118 19.789 C 33.24 19.641 33.454 19.385 33.902 19.789" />
  <path stroke-linejoin="round" stroke-width="0.13" d="M 33.578 20.01 C 33.341 20.091 33.229 20.259 33.286 20.37" />
  <path stroke-linejoin="round" stroke-width="0.13" d="M 22.78 21.01 C 22.78 21.01 24.666 18.89 25.036 18.586 C 25.407 18.283 25.733 18.239 26.114 18.743" />
  <path stroke-linejoin="round" stroke-width="0.13" d="M 24.341 20.01 C 24.599 19.664 24.957 19.147 25.16 19.07 C 25.361 18.99 25.664 19.013 25.653 19.114 C 25.643 19.214 25.463 19.317 25.463 19.317" />
  <path stroke-linejoin="round" stroke-width="0.3" d="M 33.689 8.025 C 33.689 8.025 33.162 7.16 33.073 6.948 C 32.982 6.735 31.917 6.589 31.736 6.735 C 31.557 6.879 27.686 10.83 27.393 11.212 C 27.102 11.593 26.844 12.132 27.585 13.66" />
  <path stroke-linejoin="round" stroke-width="0.13" d="M 32.185 7.352 C 32.185 7.352 28.64 11.224 28.303 11.628 C 27.966 12.032 27.853 11.975 28.021 12.56 C 28.19 13.143 28.359 13.66 28.359 13.66" />
  <path stroke-linejoin="round" stroke-width="0.13" d="M 28.65 13.535 C 28.65 13.535 28.336 12.38 28.292 12.289 C 28.246 12.201 28.414 11.795 28.65 11.538 C 28.887 11.279 32.679 7.352 32.679 7.352" />
  <path stroke-linejoin="round" stroke-width="0.13" d="M 27.562 13.794 L 28.73 13.951 L 29.172 13.468" />
  <path stroke-linejoin="round" stroke-width="0.13" d="M 32.231 8.35 L 33.689 8.474 L 33.993 8.035" />
  <path stroke-linejoin="round" stroke-width="0.13" d="M 32.283 7.764 L 32.488 8.255" />
  <path stroke-linejoin="round" stroke-width="0.13" d="M 25.193 13.827 L 29.504 14.433" />
  <path stroke-linejoin="round" stroke-width="0.13" d="M 25.082 14.041 C 25.149 14.006 29.431 14.602 29.431 14.602" />
  <path stroke-linejoin="round" stroke-width="0.13" d="M 25.507 13.468 C 25.576 13.502 26.839 12.189 26.839 12.189" />
  <path stroke-linejoin="round" stroke-width="0.13" d="M 37.125 6.735 C 37.125 6.735 36.585 7.501 36.439 7.764 C 36.293 8.025 36.159 9.832 36.159 9.832" />
  <path stroke-linejoin="round" stroke-width="0.13" d="M 36.216 10.044 C 35.429 10.64 35.261 11.201 35.423 11.359" />
  <path stroke-linejoin="round" stroke-width="0.13" d="M 35.89 10.702 C 36.372 10.169 37.539 9.977 38.337 10.259 C 39.134 10.538 39.537 11 39.537 11.359" />
  <path stroke-linejoin="round" stroke-width="0.13" d="M 37.462 10.326 C 37.899 10.291 38.865 10.651 39.212 11.269" />
  <path stroke-linejoin="round" stroke-width="0.13" d="M 35.676 11.414 L 34.274 13.188" />
  <path stroke-linejoin="round" stroke-width="0.13" d="M 33.993 13.468 C 34.048 13.468 34.173 13.827 34.173 13.827 C 34.173 13.827 33.645 14.681 33.902 15.32 C 34.161 15.96 34.386 16.05 34.673 16.184" />
  <path stroke-linejoin="round" stroke-width="0.13" d="M 35.792 16.184 C 36.226 16.15 36.585 15.961 36.798 15.714 C 37.012 15.465 37.865 14.32 37.865 14.32" />
  <path stroke-linejoin="round" stroke-width="0.13" d="M 34.744 14.602 C 34.981 14.367 35.356 14.355 35.792 14.827 C 36.226 15.298 35.834 15.792 35.542 15.826" />
  <path stroke-linejoin="round" stroke-width="0.13" d="M 34.975 13.66 C 35.463 13.57 36.226 13.984 36.551 14.478 C 36.878 14.973 36.72 15.5 36.439 15.881" />
  <path stroke-linejoin="round" stroke-width="0.13" d="M 35.89 13.368 C 36.372 13.378 36.575 13.71 36.575 13.71 L 37.215 12.996" />
  <path stroke-linejoin="round" stroke-width="0.13" d="M 34.673 13.353 C 34.991 13.311 35.517 13.353 35.517 13.353 L 36.115 12.615" />
  <path stroke-linejoin="round" stroke-width="0.13" d="M 36.774 12.394 C 37.258 12.404 37.46 12.737 37.46 12.737 L 38.415 11.641" />
  <path stroke-linejoin="round" stroke-width="0.13" d="M 35.557 12.38 C 35.877 12.337 36.402 12.38 36.402 12.38 L 37.125 11.471" />
  <path stroke-linejoin="round" stroke-width="0.13" d="M 36.159 11.269 C 36.54 11.032 36.923 10.932 37.125 10.977" />
  <path stroke-linejoin="round" stroke-width="0.13" d="M 37.215 9.932 C 37.225 9.877 37.213 9.035 37.271 9.035 C 37.326 9.035 38.505 9.214 38.505 9.214 L 38.561 10.044" />
  <path stroke-linejoin="round" stroke-width="0.13" d="M 30.065 6.812 C 30.58 6.868 30.669 6.98 30.821 6.375 C 30.974 5.769 30.951 5.657 30.861 5.623" />
  <path stroke-linejoin="round" stroke-width="0.13" d="M 37.069 7.764 C 37.338 7.509 37.618 7.778 37.713 7.935" />
  <path stroke-linejoin="round" stroke-width="0.13" d="M 40.274 4.935 C 40.545 4.681 40.825 4.95 40.92 5.107" />
  <path stroke-linejoin="round" stroke-width="0.13" d="M 41.475 8.359 C 41.743 8.105 42.024 8.375 42.119 8.532" />
  <path stroke-linejoin="round" stroke-width="0.13" d="M 29.885 8.16 C 29.414 7.059 28.561 6.533 27.562 6.117 C 26.562 5.702 25.306 5.871 24.996 6.24 C 24.689 6.61 24.442 6.969 24.038 8.035 C 23.634 9.102 22.87 11.414 21.568 12.301 C 20.266 13.188 18.504 13.233 16.719 14.602 C 14.936 15.971 13.589 16.937 13.768 18.754" />
  <path stroke-linejoin="round" stroke-width="0.13" d="M 14.474 18.754 C 14.43 17.969 14.599 16.634 16.361 15.432 C 18.123 14.231 19.211 13.715 20.57 13.3 C 21.928 12.884 22.422 12.525 23.173 11.269 C 23.925 10.012 24.486 8.653 24.745 8.035 C 25.003 7.418 25.16 6.318 26.361 6.509 C 27.562 6.7 28.73 7.206 29.222 8.474" />
  <path stroke-linejoin="round" stroke-width="0.13" d="M 16.013 19.021 C 15.653 17.936 15.788 16.891 17.192 16.004 C 18.594 15.118 19.751 15.387 20.996 14.631 C 22.242 13.872 23.309 13.233 23.835 11.718 C 24.364 10.202 24.262 9.259 24.609 8.586 C 24.957 7.913 25.666 7.251 26.765 7.251 C 27.864 7.251 28.521 7.554 28.367 8.553 C 28.213 9.551 28.202 9.742 28.202 9.742" />
  <path stroke-linejoin="round" stroke-width="0.13" d="M 16.742 19.103 C 16.204 17.812 16.719 16.936 17.527 16.431 C 18.335 15.926 19.054 15.993 20.12 15.589 C 21.187 15.185 22.466 14.814 23.443 13.535 C 24.42 12.256 24.678 11.481 24.812 10.538 C 24.946 9.596 25.015 8.319 25.934 8.009 C 26.855 7.7 27.371 7.844 27.64 8.255 C 27.91 8.664 27.768 9.32 27.64 9.932" />
  <path stroke-linejoin="round" stroke-width="0.13" d="M 17.449 16.757 C 17.798 18.193 18.335 18.9 19.818 18.71" />
  <path stroke-linejoin="round" stroke-width="0.13" d="M 17.91 16.32 C 18.077 17.306 18.786 18.326 19.559 18.361 C 20.333 18.396 20.681 18.036 21.939 16.958 C 23.196 15.881 23.812 13.814 24.184 12.984 C 24.553 12.156 25.704 9.849 27.256 10.323" />
  <path stroke-linejoin="round" stroke-width="0.13" d="M 24.812 12.996 C 25.182 12.132 26.14 11.035 26.839 10.967" />
  <path stroke-linejoin="round" stroke-width="0.13" d="M 18.1 15.332 C 18.359 14.602 20.03 13.878 20.963 13.353 C 21.893 12.829 23.678 11.728 23.678 11.728" />
  <path stroke-linejoin="round" stroke-width="0.13" d="M 17.405 15.702 C 17.449 15.275 17.753 14.737 18.056 14.433" />
  <path stroke-linejoin="round" stroke-width="0.13" d="M 23.309 11.269 L 23.971 10.865" />
  <path stroke-linejoin="round" stroke-width="0.13" d="M 25.036 10.323 C 25.507 9.72 25.653 8.845 25.777 8.327" />
  <path stroke-linejoin="round" stroke-width="0.13" d="M 24.812 11.269 C 25.475 10.673 26.068 10.057 26.53 8.115" />
  <path stroke-linejoin="round" stroke-width="0.13" d="M 26.109 7.195 C 26.271 6.879 26.608 6.676 26.608 6.676" />
  <path stroke-linejoin="round" stroke-width="0.13" d="M 26.989 7.049 C 27.091 6.924 27.256 6.78 27.256 6.78" />
  <path stroke-linejoin="round" stroke-width="0.13" d="M 27.707 5.937 C 28.213 5.69 28.897 5.875 28.897 5.875" />
  <path stroke-linejoin="round" stroke-width="0.3" d="M 58.109 123.391 C 58.109 123.391 57.616 123.123 57.594 122.477 C 57.572 121.831 57.908 121.518 58.447 121.058 C 58.819 120.739 67.457 113.236 72.9 108.51" />
  <path stroke-linejoin="round" stroke-width="0.3" d="M 75.515 106.239 C 76.534 105.353 77.186 104.789 77.257 104.727 C 77.65 104.391 78.661 104.21 79.795 104.379 C 80.927 104.548 84.295 105.063 84.855 105.131 C 85.418 105.198 85.754 105.378 85.754 105.378 L 90.581 106.141 C 90.581 106.141 91.007 105.917 91.331 105.906 C 91.658 105.894 95.968 106.489 96.596 106.658 C 97.224 106.825 97.493 107.072 97.394 107.555 C 97.292 108.037 97.236 108.329 97.236 108.329 C 97.236 108.329 96.843 113.447 96.865 114.076 C 96.888 114.704 96.664 115.524 95.968 116.365 C 95.715 116.671 93.853 118.989 91.564 121.849" />
  <path stroke-linejoin="round" stroke-width="0.3" d="M 89.001 125.055 C 85.572 129.353 82.138 133.68 81.983 133.954 C 81.68 134.491 81.084 134.643 80.659 134.534 C 80.231 134.425 74.453 133.697 73.465 133.405 C 72.477 133.111 72.174 132.504 72.174 132.504 L 67.819 132.034 C 67.819 132.034 67.168 132.371 66.349 132.236 C 65.528 132.102 60.04 131.305 59.469 131.181 C 58.896 131.057 58.424 130.575 58.424 129.824 C 58.424 129.072 58.109 123.391 58.109 123.391" />
  <path stroke-linejoin="round" stroke-width="0.13" d="M 66.899 126.805 L 67.045 131.944" />
  <path stroke-linejoin="round" stroke-width="0.13" d="M 67.507 127.993 L 67.64 131.721" />
  <path stroke-linejoin="round" stroke-width="0.13" d="M 72.442 126.456 L 72.51 132.157" />
  <path stroke-linejoin="round" stroke-width="0.13" d="M 58.029 123.337 C 58.728 123.549 65.831 124.751 66.067 124.716 C 66.304 124.683 67.099 124.469 67.415 124.469 C 67.728 124.469 71.489 125.221 71.736 125.233 C 71.983 125.245 71.96 125.649 72.51 125.772 C 73.06 125.896 79.109 126.67 80.108 126.805 C 81.108 126.938 82.072 126.871 82.734 126.131 C 82.847 126.004 83.334 125.406 84.066 124.501" />
  <path stroke-linejoin="round" stroke-width="0.13" d="M 85.481 122.739 C 89.629 117.572 96.966 108.364 96.966 108.364" />
  <path stroke-linejoin="round" stroke-width="0.13" d="M 96.495 108.23 C 96.495 108.23 88.817 117.941 84.792 122.944" />
  <path stroke-linejoin="round" stroke-width="0.13" d="M 83.551 124.48 C 82.915 125.26 82.498 125.76 82.409 125.84 C 81.849 126.344 81.129 126.614 80.186 126.456 C 79.245 126.299 72.926 125.468 72.7 125.379 C 72.477 125.29 71.87 124.784 71.87 124.784 C 71.87 124.784 67.628 124.156 67.224 124.043 C 66.819 123.932 66.697 124.368 66.213 124.233 C 65.73 124.099 59.323 123.1 58.829 123 C 58.335 122.899 57.545 122.62 57.593 122.337" />
  <path stroke-linejoin="round" stroke-width="0.13" d="M 83.072 107.331 L 83.969 106.299 L 77.887 105.445 L 76.337 106.698" />
  <path stroke-linejoin="round" stroke-width="0.13" d="M 74.308 108.688 L 59.706 121.484 L 67.673 122.528 C 67.673 122.528 70.277 121.081 71.287 119.801 C 72.296 118.522 73.632 116.4 73.902 116.108 C 74.171 115.816 80.12 109.98 80.12 109.98" />
  <path stroke-linejoin="round" stroke-width="0.13" d="M 76.158 114.368 L 74.003 116.478" />
  <path stroke-linejoin="round" stroke-width="0.13" d="M 73.665 116.793 C 73.239 117.545 72.477 119.218 71.197 120.295 C 69.918 121.371 68.076 122.606 68.076 122.606 C 68.076 122.606 66.911 123.673 66.971 123.673 C 67.033 123.673 71.971 124.626 72.028 124.615 C 72.084 124.605 73.15 123.28 73.15 123.28 C 73.15 123.28 75.417 122.18 76.415 120.822 C 77.415 119.463 78.626 117.444 79.031 117.04 C 79.435 116.635 84.643 110.665 84.643 110.665" />
  <path stroke-linejoin="round" stroke-width="0.13" d="M 82.387 110.227 L 85.192 110.585 L 79.109 117.365 C 79.109 117.365 77.65 119.766 76.528 121.058 C 75.406 122.349 73.575 123.381 73.575 123.381 L 81.6 124.716 L 81.915 124.259" />
  <path stroke-linejoin="round" stroke-width="0.13" d="M 82.852 123.18 L 95.204 107.858 L 89.638 107.096" />
  <path stroke-linejoin="round" stroke-width="0.3" d="M 77.864 109.743 C 77.881 109.427 77.954 109.069 78.078 108.712" />
  <path stroke-linejoin="round" stroke-width="0.3" d="M 79.031 107.198 C 79.423 106.853 79.899 106.671 80.433 106.793 C 81.915 107.129 87.632 108.45 87.632 108.45" />
  <path stroke-linejoin="round" stroke-width="0.13" d="M 85.126 105.849 L 89.816 106.512" />
  <path stroke-linejoin="round" stroke-width="0.3" d="M 87.347 108.745 L 89.558 107.399 C 89.558 107.399 93.263 107.712 93.296 107.846 C 93.329 107.981 93.42 109.463 93.42 109.463" />
  <path stroke-linejoin="round" stroke-width="0.13" d="M 93.016 109.609 L 90.602 113.156 C 90.602 113.156 89.457 113.414 89.457 113.37 C 89.457 113.325 87.212 115.962 87.212 115.962 L 87.168 117.489" />
  <path stroke-linejoin="round" stroke-width="0.13" d="M 87.347 116.085 L 88.313 116.085" />
  <path stroke-linejoin="round" stroke-width="0.13" d="M 86.888 109.284 C 86.573 109.756 85.608 110.688 85.631 110.855 C 85.653 111.024 85.674 111.215 85.674 111.215 C 85.674 111.215 91.096 111.911 91.164 111.9 C 91.231 111.888 93.14 108.117 93.14 108.117" />
  <path stroke-linejoin="round" stroke-width="0.13" d="M 85.293 119.441 L 79.042 118.51 L 74.552 123.501" />
  <path stroke-linejoin="round" stroke-width="0.13" d="M 74.968 123.313 L 78.897 118.891" />
  <path stroke-linejoin="round" stroke-width="0.13" d="M 79.503 118.835 L 85.293 119.71" />
  <path stroke-linejoin="round" stroke-width="0.13" d="M 79.334 118.835 C 79.424 119.397 79.772 122.707 79.772 122.707" />
  <path stroke-linejoin="round" stroke-width="0.13" d="M 73.912 117.051 L 74.246 120.89 L 70.849 124.179" />
  <path stroke-linejoin="round" stroke-width="0.13" d="M 74.474 120.9 L 75.674 121.102" />
  <path stroke-linejoin="round" stroke-width="0.3" d="M 77.168 123.739 C 77.168 123.739 78.043 123.09 78.537 122.921 C 79.031 122.753 79.626 123.313 79.626 123.313" />
  <path stroke-linejoin="round" stroke-width="0.3" d="M 79.828 123.37 C 79.828 123.37 80.444 123.043 80.635 123.022 C 80.826 123 81.275 123.123 81.186 123.313 C 81.096 123.504 80.602 123.897 80.602 123.897 C 80.602 123.897 80.745 124.192 80.793 124.391" />
  <path stroke-linejoin="round" stroke-width="0.13" d="M 77.426 123.739 C 77.864 123.582 78.492 123.953 78.85 124.335" />
  <path stroke-linejoin="round" stroke-width="0.13" d="M 79.153 123.269 C 79.513 123.426 80.03 123.65 80.423 124.179" />
  <path stroke-linejoin="round" stroke-width="0.13" d="M 81.007 124.335 C 81.073 124.323 81.959 122.947 82.084 122.799 C 82.207 122.652 82.421 122.396 82.87 122.799" />
  <path stroke-linejoin="round" stroke-width="0.13" d="M 82.543 123.019 C 82.308 123.1 82.195 123.269 82.251 123.381" />
  <path stroke-linejoin="round" stroke-width="0.13" d="M 71.746 124.019 C 71.746 124.019 73.632 121.9 74.003 121.596 C 74.373 121.293 74.698 121.248 75.081 121.754" />
  <path stroke-linejoin="round" stroke-width="0.13" d="M 73.307 123.019 C 73.564 122.674 73.924 122.158 74.126 122.078 C 74.328 122.001 74.631 122.022 74.62 122.125 C 74.608 122.224 74.429 122.325 74.429 122.325" />
  <path stroke-linejoin="round" stroke-width="0.3" d="M 82.656 111.034 C 82.656 111.034 82.129 110.171 82.039 109.957 C 81.948 109.743 80.882 109.599 80.703 109.743 C 80.524 109.89 76.652 113.84 76.359 114.222 C 76.067 114.603 75.81 115.143 76.551 116.67" />
  <path stroke-linejoin="round" stroke-width="0.13" d="M 81.153 110.361 C 81.153 110.361 77.605 114.233 77.269 114.638 C 76.932 115.042 76.819 114.986 76.989 115.569 C 77.156 116.153 77.325 116.67 77.325 116.67" />
  <path stroke-linejoin="round" stroke-width="0.13" d="M 77.617 116.546 C 77.617 116.546 77.302 115.39 77.257 115.299 C 77.212 115.209 77.382 114.805 77.617 114.548 C 77.852 114.29 81.647 110.361 81.647 110.361" />
  <path stroke-linejoin="round" stroke-width="0.13" d="M 76.528 116.804 L 77.695 116.96 L 78.138 116.478" />
  <path stroke-linejoin="round" stroke-width="0.13" d="M 81.197 111.361 L 82.656 111.483 L 82.959 111.046" />
  <path stroke-linejoin="round" stroke-width="0.13" d="M 81.248 110.774 L 81.456 111.265" />
  <path stroke-linejoin="round" stroke-width="0.13" d="M 74.159 116.837 L 78.469 117.444" />
  <path stroke-linejoin="round" stroke-width="0.13" d="M 74.048 117.051 C 74.115 117.018 78.397 117.611 78.397 117.611" />
  <path stroke-linejoin="round" stroke-width="0.13" d="M 74.474 116.478 C 74.542 116.513 75.805 115.198 75.805 115.198" />
  <path stroke-linejoin="round" stroke-width="0.3" d="M 86.655 109.198 C 86.655 109.198 85.552 110.512 85.406 110.774 C 85.26 111.034 85.182 113.055 85.182 113.055" />
  <path stroke-linejoin="round" stroke-width="0.3" d="M 85.182 113.055 C 84.397 113.65 84.358 114.287 84.521 114.444" />
  <path stroke-linejoin="round" stroke-width="0.13" d="M 84.855 113.712 C 85.338 113.179 86.506 112.987 87.302 113.269 C 88.099 113.549 88.504 114.01 88.504 114.368" />
  <path stroke-linejoin="round" stroke-width="0.13" d="M 86.427 113.335 C 86.864 113.302 87.831 113.662 88.179 114.278" />
  <path stroke-linejoin="round" stroke-width="0.3" d="M 84.643 114.424 L 83.239 116.197" />
  <path stroke-linejoin="round" stroke-width="0.3" d="M 83.239 116.197 C 83.296 116.197 83.138 116.837 83.138 116.837 C 83.138 116.837 82.611 117.691 82.87 118.331 C 83.128 118.969 83.352 119.061 83.638 119.194" />
  <path stroke-linejoin="round" stroke-width="0.13" d="M 84.757 119.194 C 85.192 119.161 85.552 118.969 85.766 118.724 C 85.978 118.475 86.831 117.331 86.831 117.331" />
  <path stroke-linejoin="round" stroke-width="0.13" d="M 83.712 117.611 C 83.947 117.376 84.322 117.365 84.757 117.837 C 85.192 118.308 84.799 118.802 84.507 118.835" />
  <path stroke-linejoin="round" stroke-width="0.13" d="M 83.941 116.67 C 84.43 116.579 85.192 116.995 85.518 117.489 C 85.843 117.983 85.686 118.51 85.406 118.891" />
  <path stroke-linejoin="round" stroke-width="0.13" d="M 84.855 116.376 C 85.338 116.388 85.54 116.719 85.54 116.719 L 86.18 116.007" />
  <path stroke-linejoin="round" stroke-width="0.13" d="M 83.638 116.364 C 83.957 116.322 84.483 116.364 84.483 116.364 L 85.081 115.626" />
  <path stroke-linejoin="round" stroke-width="0.13" d="M 85.742 115.403 C 86.224 115.415 86.426 115.745 86.426 115.745 L 87.382 114.652" />
  <path stroke-linejoin="round" stroke-width="0.13" d="M 84.524 115.39 C 84.843 115.347 85.368 115.39 85.368 115.39 L 86.09 114.48" />
  <path stroke-linejoin="round" stroke-width="0.13" d="M 85.126 114.278 C 85.507 114.043 85.888 113.942 86.09 113.986" />
  <path stroke-linejoin="round" stroke-width="0.13" d="M 86.18 112.942 C 86.191 112.887 86.18 112.045 86.236 112.045 C 86.293 112.045 87.471 112.224 87.471 112.224 L 87.528 113.055" />
  <path stroke-linejoin="round" stroke-width="0.13" d="M 79.031 109.822 C 79.548 109.879 79.635 109.99 79.787 109.385 C 79.941 108.778 79.917 108.667 79.828 108.632" />
  <path stroke-linejoin="round" stroke-width="0.13" d="M 86.034 110.774 C 86.305 110.519 86.584 110.787 86.68 110.944" />
  <path stroke-linejoin="round" stroke-width="0.13" d="M 89.242 107.944 C 89.51 107.689 89.792 107.959 89.887 108.117" />
  <path stroke-linejoin="round" stroke-width="0.13" d="M 90.441 111.37 C 90.709 111.114 90.99 111.385 91.085 111.542" />
  <path stroke-linejoin="round" stroke-width="0.13" d="M 78.85 111.17 C 78.381 110.069 77.527 109.542 76.528 109.126 C 75.53 108.712 74.272 108.882 73.963 109.251 C 73.655 109.62 73.408 109.98 73.004 111.046 C 72.599 112.111 71.837 114.424 70.534 115.311 C 69.233 116.197 67.471 116.242 65.686 117.611 C 63.902 118.981 62.554 119.947 62.734 121.765" />
  <path stroke-linejoin="round" stroke-width="0.13" d="M 63.442 121.765 C 63.396 120.978 63.566 119.644 65.326 118.442 C 67.088 117.242 68.177 116.724 69.536 116.31 C 70.894 115.894 71.388 115.536 72.14 114.278 C 72.891 113.022 73.453 111.664 73.712 111.046 C 73.969 110.429 74.126 109.328 75.328 109.519 C 76.528 109.71 77.695 110.215 78.189 111.483" />
  <path stroke-linejoin="round" stroke-width="0.13" d="M 64.98 122.031 C 64.62 120.945 64.754 119.902 66.158 119.015 C 67.561 118.129 68.716 118.397 69.962 117.64 C 71.209 116.882 72.275 116.242 72.802 114.727 C 73.329 113.212 73.227 112.269 73.575 111.596 C 73.924 110.923 74.632 110.26 75.731 110.26 C 76.831 110.26 77.487 110.563 77.332 111.563 C 77.18 112.561 77.168 112.753 77.168 112.753" />
  <path stroke-linejoin="round" stroke-width="0.13" d="M 65.709 122.112 C 65.17 120.822 65.686 119.945 66.495 119.441 C 67.302 118.936 68.021 119.004 69.087 118.599 C 70.153 118.195 71.433 117.825 72.409 116.546 C 73.385 115.266 73.644 114.492 73.778 113.549 C 73.912 112.605 73.98 111.328 74.9 111.019 C 75.822 110.709 76.337 110.855 76.606 111.265 C 76.876 111.674 76.733 112.328 76.606 112.942" />
  <path stroke-linejoin="round" stroke-width="0.13" d="M 66.415 119.766 C 66.763 121.203 67.302 121.911 68.784 121.719" />
  <path stroke-linejoin="round" stroke-width="0.13" d="M 66.876 119.329 C 67.045 120.316 67.751 121.335 68.525 121.37 C 69.299 121.406 69.647 121.046 70.906 119.968 C 72.162 118.891 72.78 116.823 73.15 115.995 C 73.521 115.165 74.671 112.859 76.222 113.334" />
  <path stroke-linejoin="round" stroke-width="0.13" d="M 73.778 116.007 C 74.149 115.143 75.105 114.046 75.805 113.977" />
  <path stroke-linejoin="round" stroke-width="0.13" d="M 67.066 118.341 C 67.325 117.611 68.998 116.888 69.929 116.364 C 70.861 115.838 72.644 114.739 72.644 114.739" />
  <path stroke-linejoin="round" stroke-width="0.13" d="M 66.37 118.712 C 66.415 118.286 66.718 117.746 67.022 117.444" />
  <path stroke-linejoin="round" stroke-width="0.13" d="M 72.275 114.278 L 72.936 113.875" />
  <path stroke-linejoin="round" stroke-width="0.13" d="M 74.003 113.334 C 74.474 112.73 74.62 111.855 74.743 111.337" />
  <path stroke-linejoin="round" stroke-width="0.13" d="M 73.778 114.278 C 74.441 113.683 75.036 113.066 75.495 111.125" />
  <path stroke-linejoin="round" stroke-width="0.13" d="M 75.075 110.204 C 75.237 109.89 75.573 109.686 75.573 109.686" />
  <path stroke-linejoin="round" stroke-width="0.13" d="M 75.956 110.058 C 76.057 109.935 76.222 109.789 76.222 109.789" />
  <path stroke-linejoin="round" stroke-width="0.13" d="M 76.674 108.947 C 77.18 108.7 77.864 108.885 77.864 108.885" />
 </g>
 <g id="Blow-up">
  <path stroke-linejoin="round" stroke-width="0.3" d="M 125.683 11.705 L 125.403 11.032 L 124.152 11.489 C 124.152 11.489 124.058 11.092 123.673 11.073 C 123.287 11.057 79.436 13.278 78.221 13.377 C 77.006 13.477 77.186 15.714 77.239 16.288 C 77.292 16.861 77.677 18.461 78.343 18.385 C 79.01 18.309 123.748 16.562 123.924 16.562 C 124.099 16.562 124.367 16.275 124.367 16.275 L 126.935 16.568 L 127.128 16.457 C 127.128 16.457 131.873 17.568 133.27 17.925 C 134.667 18.28 137.865 19.315 137.865 19.315 L 138.302 18.812 C 138.302 18.812 134.76 17.754 132.521 17.14 C 130.283 16.527 126.694 15.727 126.694 15.727 L 128.068 15.499 L 133.784 17.152 L 133.854 16.731 L 129.816 15.242 L 131.165 15.141 L 139.256 17.146 L 139.36 16.55 L 132.837 14.891" />
  <path stroke-linejoin="round" stroke-width="0.3" d="M 138.473 16.234 L 138.437 15.557 L 135.655 14.855 L 136.35 14.669 L 136.338 13.82 L 135.128 13.756 L 134.387 13.587 L 124.784 14.539" />
  <path stroke-linejoin="round" stroke-width="0.3" d="M 132.236 13.686 L 132.002 13.102 L 130.817 13.067 L 135.621 10.612 L 135.544 9.887 L 135.06 9.711 C 135.06 9.711 132.943 10.893 132.096 11.361 C 131.248 11.827 127.811 13.313 127.811 13.313 L 124.936 13.388 C 124.936 13.388 130.717 11.471 131.675 10.952 C 132.633 10.43 133.457 9.894 133.457 9.894 L 133.09 9.384 C 133.09 9.384 130.634 10.548 129.348 11.127 C 128.062 11.705 124.421 12.955 124.421 12.955 L 128.092 11.378 L 127.957 10.811 L 124.421 12.191" />
  <path stroke-linejoin="round" stroke-width="0.13" d="M 124.245 11.599 C 124.362 11.992 124.596 13.224 124.584 14.079 C 124.573 14.932 124.509 15.686 124.346 16.164" />
  <path stroke-linejoin="round" stroke-width="0.13" d="M 124.701 13.943 L 131.838 13.266" />
  <path stroke-linejoin="round" stroke-width="0.13" d="M 129.121 13.446 C 129.139 13.446 135.217 10.303 135.217 10.303" />
  <path stroke-linejoin="round" stroke-width="0.13" d="M 126.152 14.51 L 135.943 13.973" />
  <path stroke-linejoin="round" stroke-width="0.13" d="M 135.913 14.535 C 134.527 14.615 125.579 15.195 124.585 15.3" />
  <path stroke-linejoin="round" stroke-width="0.13" d="M 124.498 15.907 L 131.407 15.06" />
  <path stroke-linejoin="round" stroke-width="0.13" d="M 132.143 15.06 L 138.906 16.943" />
  <path stroke-linejoin="round" stroke-width="0.13" d="M 134.129 14.849 L 138.127 15.861" />
  <path stroke-linejoin="round" stroke-width="0.13" d="M 129.145 15.41 L 133.388 16.843" />
  <path stroke-linejoin="round" stroke-width="0.13" d="M 97.263 12.837 L 97.087 14.51 L 107.022 14.916 C 107.022 14.916 107.105 13.073 107.447 12.162" />
  <path stroke-linejoin="round" stroke-width="0.3" d="M 26.928 78.311 C 26.928 78.311 26.05 76.87 25.891 76.694 C 25.734 76.519 25.135 76.396 24.836 76.519 C 24.538 76.641 16.591 77.539 16.379 77.521 C 16.169 77.504 15.571 77.468 15.554 77.908 C 15.535 78.346 15.554 80.932 15.554 81.09 C 15.554 81.248 17.118 85.468 17.118 85.468" />
  <path stroke-linejoin="round" stroke-width="0.3" d="M 17.417 83.322 C 17.469 83.621 17.469 84.201 17.382 84.536 C 17.295 84.87 15.941 91.691 15.8 92.412 C 15.659 93.132 16.414 93.888 16.96 94.206 C 17.506 94.522 17.998 94.68 17.998 94.68 C 17.998 94.68 18.12 99.48 18.155 99.76 C 18.19 100.043 18.278 100.218 18.385 100.218 C 18.489 100.218 18.647 100.218 18.647 100.218" />
  <path stroke-linejoin="round" stroke-width="0.3" d="M 19.455 100.246 C 19.829 100.188 19.916 99.915 19.8 99.641 C 19.686 99.367 19.585 99.138 19.6 98.921 C 19.614 98.706 19.728 94.875 19.728 94.875 C 19.728 94.875 20.708 94.932 21.285 94.673 C 21.861 94.414 22.192 94.183 22.277 93.635 C 22.364 93.088 23.818 84.75 23.804 84.75" />
  <path stroke-linejoin="round" stroke-width="0.3" d="M 23.594 86.01 C 23.594 86.033 25.864 86.118 26.022 86.031 C 26.181 85.945 26.268 85.831 26.282 85.671 C 26.295 85.513 26.628 84.49 26.641 84.506 C 26.655 84.519 27.794 84.275 27.836 84.188 C 27.881 84.102 27.937 83.915 27.952 83.9 C 27.966 83.885 34.259 84.245 34.505 84.188 C 34.75 84.131 35.182 83.843 35.21 83.858 C 35.24 83.871 35.773 83.9 36.017 83.799 C 36.262 83.698 36.579 83.685 36.637 81.899 C 36.694 80.112 36.45 79.781 36.262 79.781 C 36.075 79.781 35.426 79.753 35.426 79.739 C 35.426 79.724 35.368 79.219 34.75 79.162 C 34.131 79.105 28.196 79.09 28.169 79.061 C 28.14 79.033 27.995 78.572 27.765 78.528 C 27.535 78.486 27.03 78.414 27.03 78.414" />
  <path stroke-linejoin="round" stroke-width="0.3" d="M 19.321 99.855 L 19.349 100.108 C 19.675 103.049 19.885 104.969 21.219 108.424 C 22.178 110.909 23.835 115.26 26.626 118.456 C 27.798 119.801 29.175 120.941 30.789 121.638 C 34.576 123.274 38.301 123.875 41.018 123.001 C 42.14 122.64 43.087 122.024 43.779 121.117 C 44.393 120.316 44.811 119.617 45.091 118.953 C 45.741 117.402 45.618 116.048 45.457 114.064 L 45.344 112.54 C 45.222 110.615 44.502 108.691 43.417 107.019 C 42.331 105.343 40.878 103.92 39.286 103.001 C 37.697 102.084 35.845 101.486 33.88 101.379 C 31.914 101.272 29.835 101.656 27.786 102.695 C 25.469 103.871 23.172 105.703 21.303 107.912" />
  <path stroke-linejoin="round" stroke-width="0.3" d="M 20.381 109.081 C 19.326 110.519 18.461 112.084 17.885 113.706 C 17.786 113.983 17.705 114.253 17.638 114.516" />
  <path stroke-linejoin="round" stroke-width="0.3" d="M 17.513 117.171 C 17.652 117.888 17.94 118.519 18.347 119.058 C 19.321 120.353 20.966 121.117 22.812 121.296 C 23.379 121.35 23.977 121.358 24.594 121.322" />
  <path stroke-linejoin="round" stroke-width="0.3" d="M 29.836 120.224 C 31.847 119.536 33.789 118.581 35.362 117.515 C 37.787 115.868 40.493 113.867 41.704 111.897 C 42.179 111.123 42.418 110.361 42.265 109.631 C 42.109 108.879 41.64 108.141 40.96 107.469 C 39.301 105.826 36.399 104.581 33.408 104.496 C 30.748 104.421 25.486 106.254 21.882 107.655" />
  <path stroke-linejoin="round" stroke-width="0.3" d="M 19.399 108.652 C 18.593 108.986 18.108 109.2 18.108 109.2 C 18.108 109.2 18.068 109.251 17.993 109.365" />
  <path stroke-linejoin="round" stroke-width="0.3" d="M 17.553 116.025 C 18.611 117.706 20.646 119.171 23.344 120.183 C 24.864 120.754 26.701 121.141 28.743 121.311" />
  <path stroke-linejoin="round" stroke-width="0.3" d="M 30.269 121.397 C 33.2 121.483 36.459 121.146 39.753 120.298 C 42.203 119.668 43.957 118.968 45.159 118.15" />
  <path stroke-linejoin="round" stroke-width="0.3" d="M 46.476 116.947 C 46.771 116.566 46.981 116.162 47.119 115.733 C 47.326 115.09 47.371 114.388 47.296 113.621 C 47.218 112.796 46.597 111.605 45.665 110.266" />
  <path stroke-linejoin="round" stroke-width="0.3" d="M 43.698 107.754 C 43.362 107.364 43.009 106.971 42.646 106.584" />
  <path stroke-linejoin="round" stroke-width="0.3" d="M 41.088 105.006 C 40.054 104.015 38.981 103.096 37.945 102.331" />
  <path stroke-linejoin="round" stroke-width="0.3" d="M 35.668 100.894 C 35.24 100.677 34.832 100.506 34.45 100.388 C 31.344 99.441 27.788 99.117 24.835 100.09 C 23.593 100.501 22.457 101.141 21.515 102.066 C 21.018 102.554 20.539 103.132 20.091 103.772" />
  <path stroke-linejoin="round" stroke-width="0.3" d="M 19.245 105.135 C 18.125 107.152 17.346 109.528 17.242 111.641 C 17.172 113.034 17.396 114.313 18.036 115.283 C 18.687 116.269 19.812 117.207 21.274 118.001 C 22.763 118.81 24.597 119.463 26.644 119.852" />
  <path stroke-linejoin="round" stroke-width="0.3" d="M 28.806 120.155 C 30.989 120.352 33.344 120.248 35.737 119.727 C 38.512 119.126 40.569 118.399 41.908 117.328 C 42.457 116.89 42.881 116.394 43.18 115.825 C 43.479 115.254 43.654 114.609 43.706 113.876 C 43.832 112.087 43.243 109.796 41.972 106.801 C 41.435 105.536 40.817 104.462 40.142 103.552" />
  <path stroke-linejoin="round" stroke-width="0.3" d="M 38.639 101.868 C 38.399 101.647 38.156 101.441 37.909 101.248 C 36.826 100.403 35.674 99.831 34.523 99.456 C 32.892 98.924 31.26 98.787 29.815 98.826" />
  <path stroke-linejoin="round" stroke-width="0.3" d="M 18.821 103.605 C 15.359 107.18 12.638 112.736 10.144 120.185" />
  <path stroke-linejoin="round" stroke-width="0.3" d="M 18.618 99.933 L 18.646 100.186 C 18.98 103.188 19.199 105.15 20.561 108.679 C 21.541 111.216 23.242 115.655 26.094 118.921 C 27.336 120.346 28.798 121.548 30.509 122.286 C 34.478 124 38.387 124.588 41.235 123.673 C 42.499 123.266 43.56 122.567 44.34 121.546 C 44.996 120.688 45.444 119.936 45.741 119.225 C 46.436 117.569 46.334 116.126 46.161 114.007 L 46.161 114.01 L 46.048 112.492 L 46.048 112.495 C 45.92 110.453 45.161 108.409 44.009 106.635 C 42.86 104.864 41.323 103.361 39.64 102.39 C 37.957 101.418 35.997 100.787 33.918 100.674 C 31.838 100.561 29.637 100.965 27.466 102.066 C 25.207 103.212 22.966 104.965 21.097 107.076" />
  <path stroke-linejoin="round" stroke-width="0.3" d="M 20.067 108.328 C 18.908 109.846 17.951 111.506 17.306 113.234" />
  <path stroke-linejoin="round" stroke-width="0.3" d="M 16.718 115.992 C 16.71 116.289 16.722 116.575 16.753 116.852 C 16.864 117.87 17.231 118.75 17.783 119.483 C 18.868 120.926 20.687 121.799 22.745 121.998 C 23.96 122.115 25.312 122.025 26.707 121.772" />
  <path stroke-linejoin="round" stroke-width="0.3" d="M 31.785 120.23 C 33.229 119.62 34.591 118.89 35.758 118.099 C 38.268 116.394 41.054 114.305 42.305 112.266 C 42.886 111.32 43.143 110.379 42.957 109.486 C 42.774 108.614 42.246 107.748 41.457 106.968 C 39.692 105.219 36.609 103.882 33.429 103.79 C 30.996 103.721 26.574 105.128 23.035 106.441" />
  <path stroke-linejoin="round" stroke-width="0.3" d="M 19.801 107.703 C 19.033 108.019 18.429 108.278 18.068 108.441" />
  <path stroke-linejoin="round" stroke-width="0.3" d="M 16.347 111.307 C 16.137 112.04 16.004 112.891 16.068 113.802 C 16.128 114.668 16.416 115.518 16.908 116.325 C 18.019 118.143 20.187 119.754 23.096 120.844 C 24.903 121.522 27.15 121.953 29.652 122.075" />
  <path stroke-linejoin="round" stroke-width="0.3" d="M 32.369 122.091 C 34.779 122.003 37.344 121.647 39.929 120.981 C 41.935 120.465 43.493 119.894 44.679 119.257" />
  <path stroke-linejoin="round" stroke-width="0.3" d="M 46.341 118.123 C 46.393 118.075 46.442 118.03 46.491 117.983 C 47.137 117.364 47.554 116.688 47.792 115.948 C 48.026 115.218 48.084 114.424 48 113.555 C 47.902 112.533 47.079 110.975 45.822 109.272 C 45.487 108.817 45.119 108.352 44.729 107.882" />
  <path stroke-linejoin="round" stroke-width="0.3" d="M 38.237 101.686 C 36.939 100.742 35.7 100.033 34.655 99.713 C 31.414 98.722 27.698 98.403 24.614 99.421 C 23.268 99.864 22.042 100.561 21.021 101.563 C 20.649 101.926 20.289 102.337 19.943 102.784" />
  <path stroke-linejoin="round" stroke-width="0.3" d="M 18.922 104.292 C 17.596 106.506 16.655 109.215 16.536 111.606 C 16.46 113.165 16.733 114.587 17.446 115.671 C 18.15 116.737 19.358 117.763 20.937 118.621 C 22.839 119.655 25.286 120.447 28.024 120.781" />
  <path stroke-linejoin="round" stroke-width="0.3" d="M 29.414 120.908 C 31.474 121.036 33.664 120.9 35.887 120.418 C 38.796 119.787 40.945 119.001 42.35 117.879 C 42.978 117.376 43.463 116.805 43.805 116.153 C 44.148 115.5 44.35 114.765 44.409 113.927 C 44.542 112.055 43.951 109.655 42.621 106.525 C 42.421 106.054 42.21 105.608 41.99 105.186" />
  <path stroke-linejoin="round" stroke-width="0.3" d="M 40.643 103.043 C 39.929 102.097 39.154 101.322 38.344 100.691 C 37.191 99.793 35.966 99.183 34.741 98.784 C 31.907 97.861 29.071 98.064 27.129 98.381 C 24.635 98.787 22.431 99.737 20.448 101.224 C 20.147 101.45 19.853 101.686 19.562 101.936" />
  <path stroke-linejoin="round" stroke-width="0.3" d="M 18.673 102.756 C 14.984 106.381 12.093 112.14 9.474 119.96" />
  <path stroke-linejoin="round" stroke-width="0.3" d="M 9.474 119.96 C 9.228 120.109 8.678 120.28 8.317 120.406 C 7.956 120.534 7.852 120.448 7.852 120.936 C 7.852 121.424 7.894 121.763 7.873 121.763 C 7.852 121.763 7.384 122.355 7.384 122.441 C 7.384 122.525 7.363 122.674 7.301 122.78 C 7.237 122.885 5.987 124.581 5.775 125.046 C 5.562 125.513 5.562 125.492 5.562 125.555 C 5.562 125.618 4.673 125.576 4.418 125.745 C 4.165 125.915 3.826 127.018 3.952 127.186 C 4.08 127.356 4.737 127.971 4.737 127.971" />
  <path stroke-linejoin="round" stroke-width="0.3" d="M 5.456 126.933 C 5.456 126.933 4.546 128.501 4.44 128.798 C 4.333 129.093 4.355 129.454 4.546 129.475 C 4.737 129.497 4.822 129.326 5.054 128.987 C 5.288 128.649 5.966 127.399 5.966 127.42" />
  <path stroke-linejoin="round" stroke-width="0.3" d="M 6.538 128.14 C 6.538 128.14 5.52 130.004 5.415 130.281 C 5.309 130.556 5.435 130.747 5.562 130.81 C 5.689 130.873 5.923 130.62 6.113 130.387 C 6.304 130.153 7.089 128.52 7.131 128.543" />
  <path stroke-linejoin="round" stroke-width="0.3" d="M 5.451 128.453 C 5.464 128.444 6.052 128.913 6.052 128.913" />
  <path stroke-linejoin="round" stroke-width="0.3" d="M 6.761 129.096 C 6.807 129.122 7.876 129.277 8.08 129.213 C 8.282 129.15 8.391 128.902 8.509 128.645 C 8.627 128.388 8.679 128.163 8.691 128.002 C 8.702 127.84 8.326 127.326 8.326 127.23 C 8.326 127.134 8.551 126.597 8.573 126.371 C 8.593 126.147 8.583 125.975 8.593 125.953 C 8.605 125.933 9.333 123.733 9.345 123.712 C 9.355 123.691 9.58 123.531 9.612 123.433 C 9.644 123.337 9.656 122.995 9.666 122.983 C 9.676 122.972 9.794 122.801 9.837 122.662 C 9.881 122.522 9.881 122.329 9.881 122.329 C 9.881 122.329 10.063 122.212 10.105 122.093 C 10.148 121.975 10.073 121.846 10.096 121.814 C 10.117 121.783 10.535 121.643 10.535 121.353 C 10.535 121.063 10.05 120.463 10.144 120.185" />
  <path stroke-linejoin="round" stroke-width="0.13" d="M 6.174 126.905 C 7.397 126.993 8.087 127.986 8.105 128.854" />
  <path stroke-linejoin="round" stroke-width="0.13" d="M 6.192 126.072 C 7.415 126.161 7.786 126.585 8.07 127.046" />
  <path stroke-linejoin="round" stroke-width="0.13" d="M 7.998 122.67 C 8.496 122.599 8.832 122.864 9.044 123.112" />
  <path stroke-linejoin="round" stroke-width="0.13" d="M 8.23 122.138 C 8.725 122.066 9.063 122.332 9.275 122.581" />
  <path stroke-linejoin="round" stroke-width="0.13" d="M 8.46 121.606 C 8.955 121.536 9.292 121.802 9.506 122.049" />
  <path stroke-linejoin="round" stroke-width="0.13" d="M 8.689 121.075 C 9.186 121.004 9.522 121.269 9.736 121.518" />
  <line stroke-linejoin="round" stroke-width="0.3" x1="18.062" y1="93.243" x2="18.001" y2="94.801" />
  <path stroke-linejoin="round" stroke-width="0.13" d="M 19.126 92.801 C 19.638 92.96 19.833 93.367 19.815 93.615" />
  <path stroke-linejoin="round" stroke-width="0.3" d="M 19.815 93.615 L 19.728 94.875" />
  <path stroke-linejoin="round" stroke-width="0.13" d="M 15.788 92.692 C 15.981 92.248 16.661 91.489 18.092 91.388" />
  <path stroke-linejoin="round" stroke-width="0.13" d="M 20.12 91.659 C 21.664 92.209 22.275 93.424 22.21 93.894" />
  <path stroke-linejoin="round" stroke-width="0.13" d="M 20.954 82.65 C 22.204 82.606 23.152 83.382 23.432 83.921" />
  <path stroke-linejoin="round" stroke-width="0.13" d="M 16.064 80.947 L 25.006 81.099" />
  <path stroke-linejoin="round" stroke-width="0.13" d="M 25.371 81.593 C 25.371 81.722 26.471 84.287 26.471 84.287" />
  <path stroke-linejoin="round" stroke-width="0.13" d="M 25.371 80.301 L 25.78 77.393" />
  <g>
   <path stroke-linejoin="round" stroke-width="0.13" d="M 26.928 78.311 C 26.693 78.477 26.489 79.018 26.355 79.743" />
   <path stroke-linejoin="round" stroke-width="0.13" d="M 26.201 81.227 C 26.155 82.528 26.335 83.637 26.628 84.049" />
  </g>
  <g>
   <path stroke-linejoin="round" stroke-width="0.13" d="M 27.621 78.59 C 27.283 78.828 27.012 79.938 26.963 81.209 C 26.922 82.394 27.082 83.406 27.35 83.781" />
  </g>
  <g>
   <path stroke-linejoin="round" stroke-width="0.13" d="M 36.38 79.867 C 36.128 80.043 35.929 80.861 35.895 81.798 C 35.862 82.671 35.981 83.417 36.179 83.692" />
  </g>
  <path stroke-linejoin="round" stroke-width="0.13" d="M 27.634 80.388 C 27.634 80.388 30.951 80.537 31.318 80.516 C 31.684 80.495 31.835 80.344 31.878 80.129" />
  <path stroke-linejoin="round" stroke-width="0.13" d="M 27.634 80.775 C 28.646 80.796 28.775 80.775 28.754 81.271 C 28.733 81.766 28.736 82.656 28.71 82.671" />
  <path stroke-linejoin="round" stroke-width="0.13" d="M 29.164 82.132 C 29.164 82.132 31.123 82.132 31.425 82.153 C 31.727 82.176 31.771 82.433 31.748 82.93" />
  <path stroke-linejoin="round" stroke-width="0.13" d="M 29.184 81.701 C 29.184 81.701 30.995 81.766 31.318 81.722 C 31.64 81.68 31.792 81.572 31.792 81.356" />
  <path stroke-linejoin="round" stroke-width="0.13" d="M 32.244 81.831 C 32.244 81.831 33.451 81.896 33.795 81.873 C 34.14 81.852 34.313 81.722 34.356 81.486" />
  <path stroke-linejoin="round" stroke-width="0.13" d="M 32.265 80.668 C 32.654 80.602 33.731 80.71 33.947 80.688 C 34.161 80.668 34.377 80.495 34.399 80.28" />
  <path stroke-linejoin="round" stroke-width="0.13" d="M 29.358 79.418 C 29.4 79.418 31.814 79.483 31.814 79.483" />
  <path stroke-linejoin="round" stroke-width="0.13" d="M 32.762 79.504 C 32.74 79.504 34.183 79.611 34.183 79.59" />
  <path stroke-linejoin="round" stroke-width="0.13" d="M 35.045 79.634 C 34.829 80.108 34.786 80.947 34.765 81.335 C 34.743 81.722 34.895 82.025 34.204 82.153 C 33.515 82.284 32.308 82.197 32.308 82.218 C 32.308 82.239 32.137 83.403 32.308 83.963" />
  <path stroke-linejoin="round" stroke-width="0.13" d="M 32.395 83.641 L 35.343 83.87" />
  <path stroke-linejoin="round" stroke-width="0.3" d="M 138.846 148.526 C 138.805 148.55 137.288 149.914 135.774 149.998 C 134.258 150.082 133.923 149.62 133.544 149.305 C 133.164 148.989 132.429 148.61 132.281 148.568 C 132.133 148.526 119.531 143.623 118.942 143.349 C 118.353 143.076 118.079 142.656 118.079 141.709 C 118.079 140.763 118.689 139.858 118.942 139.689 C 119.194 139.52 119.427 139.563 119.468 139.5 C 119.51 139.437 119.805 138.742 120.457 138.973 C 121.109 139.205 136.763 144.865 137.562 145.075 C 138.361 145.286 139.539 145.706 140.234 145.728 C 140.927 145.748 143.453 146.463 143.557 146.653 C 143.663 146.842 143.431 147.074 143.264 147.18 C 143.096 147.284 140.739 148.588 140.276 148.693 C 139.812 148.8 138.846 148.526 138.846 148.526 Z" />
  <path stroke-linejoin="round" stroke-width="0.3" d="M 134.133 148.82 C 133.985 147.621 134.426 146.906 135.731 146.758 C 137.036 146.611 138.045 147.2 138.572 147.811" />
  <path stroke-linejoin="round" stroke-width="0.13" d="M 134.68 149.282 C 135.92 149.473 137.247 149.135 138.592 147.957" />
  <path stroke-linejoin="round" stroke-width="0.13" d="M 136.637 145.454 C 137.961 146.149 138.171 146.8 138.425 147.18" />
  <path stroke-linejoin="round" stroke-width="0.13" d="M 139.265 147.727 C 139.581 147.158 140.086 146.169 140.086 146.169" />
  <path stroke-linejoin="round" stroke-width="0.13" d="M 138.972 148.062 C 139.687 148.358 140.024 148.4 140.612 148.146 C 141.201 147.895 143.074 146.822 143.074 146.822" />
  <path stroke-linejoin="round" stroke-width="0.13" d="M 119.343 139.689 C 119.343 139.689 123.677 141.372 124.075 141.414 C 124.475 141.456 124.876 141.498 125.022 141.372" />
  <path stroke-linejoin="round" stroke-width="0.13" d="M 120.352 139.457 C 120.393 139.481 124.433 140.973 124.433 140.973" />
  <path stroke-linejoin="round" stroke-width="0.3" d="M 132.722 127 C 132.722 127 121.968 122.95 121.394 122.796 C 120.819 122.641 120.95 122.751 120.751 122.885 C 120.552 123.016 120.465 123.283 120.441 123.305 C 120.42 123.326 119.888 123.481 119.602 123.813 C 119.313 124.146 118.981 125.274 119.025 125.826 C 119.07 126.379 119.18 126.867 120.066 127.265 C 120.95 127.664 133.364 132.399 133.806 132.707 C 134.248 133.018 134.801 133.57 135.001 133.704 C 135.199 133.836 135.466 133.859 135.73 133.814 C 135.997 133.77 140.421 133.217 140.709 133.106 C 140.997 132.996 141.284 132.841 141.329 132.818 C 141.372 132.796 144.537 132.818 145.179 132.686 C 145.819 132.552 145.953 132.486 145.974 132.397 C 145.997 132.31 146.129 131.381 146.086 130.937 C 146.042 130.496 145.997 130.296 145.819 130.296 C 145.643 130.296 143.674 130.407 143.431 130.384 C 143.187 130.362 141.395 130.031 141.329 129.965 C 141.262 129.897 133.74 123.525 133.54 123.239 C 133.342 122.95 133.296 122.265 132.877 122.043 C 132.456 121.822 131.991 121.799 131.217 122.552 C 130.443 123.305 129.933 124.146 129.867 124.543 C 129.8 124.941 130.088 125.406 130.575 125.495 C 131.062 125.584 132.344 126.153 132.567 126.941" />
  <path stroke-linejoin="round" stroke-width="0.3" d="M 140.742 130.633 C 140.195 131.024 140.556 130.8 139.151 130.995 C 137.745 131.189 135.987 131.102 135.469 131.376 C 134.953 131.649 134.795 132.137 134.669 132.479" />
  <path stroke-linejoin="round" stroke-width="0.13" d="M 134.865 132.683 C 135.176 132.997 134.737 133.114 136.016 132.986 C 137.295 132.86 139.326 132.42 139.658 132.46 C 139.991 132.498 140.361 132.723 140.342 132.723 C 140.323 132.723 138.818 131.58 138.829 131.599" />
  <path stroke-linejoin="round" stroke-width="0.13" d="M 140.693 132.634 C 141.143 132.323 141.358 131.58 141.104 130.995" />
  <path stroke-linejoin="round" stroke-width="0.13" d="M 144.717 130.574 C 143.437 130.701 142.831 130.936 142.149 130.8 C 141.465 130.663 141.114 130.312 140.84 130.271 C 140.567 130.233 135.742 130.682 135.138 130.877 C 134.532 131.073 134.025 132.039 134.151 132.468" />
  <path stroke-linejoin="round" stroke-width="0.13" d="M 132.722 127 C 132.83 127.061 135.742 128.144 135.742 128.144" />
  <path stroke-linejoin="round" stroke-width="0.13" d="M 120.471 123.612 C 121.74 124.12 124.183 124.98 124.924 125.176 C 125.667 125.37 125.9 125.35 125.978 125.311" />
  <path stroke-linejoin="round" stroke-width="0.13" d="M 121.174 123.183 C 121.251 123.227 125.233 124.694 125.257 124.706" />
  <path stroke-linejoin="round" stroke-width="0.13" d="M 130.764 124.453 C 131.037 123.789 131.662 122.948 132.032 122.774" />
  <path stroke-linejoin="round" stroke-width="0.3" d="M 126.394 109.079 C 126.394 109.102 125.304 109.302 124.831 109.373 C 124.359 109.444 123.816 110.618 123.816 110.618 C 123.816 110.618 124.033 112.486 124.134 112.828 C 124.233 113.17 124.344 113.432 124.977 113.421 C 125.609 113.411 125.871 113.37 126.081 113.281 C 126.293 113.191 126.384 113.17 126.424 113.21 C 126.463 113.251 126.816 113.813 126.977 113.963 C 127.137 114.114 127.849 114.305 127.849 114.325 C 127.849 114.346 128.996 115.209 130.06 115.551 C 131.125 115.893 132.893 116.073 134.038 115.811 C 135.183 115.551 136.068 115.29 136.89 114.546 C 137.715 113.802 138.157 113.019 138.157 112.477 C 138.157 111.935 138.116 107.213 138.076 106.51 C 138.036 105.807 137.955 104.18 137.272 103.275 C 136.59 102.371 135.485 101.728 133.455 101.447" />
  <path stroke-linejoin="round" stroke-width="0.3" d="M 130.843 101.507 C 129.377 101.628 128.353 102.391 127.73 103.015 C 127.106 103.637 126.906 104.521 126.825 105.265 C 126.745 106.007 126.516 109.046 126.394 109.079" />
  <path stroke-linejoin="round" stroke-width="0.13" d="M 124.094 110.221 C 124.435 109.79 124.572 109.659 124.989 109.581 C 125.406 109.503 126.367 109.444 126.367 109.444" />
  <path stroke-linejoin="round" stroke-width="0.13" d="M 123.983 111.447 C 123.983 111.403 123.918 110.783 124.01 110.644 C 124.102 110.507 124.48 110.188 124.799 110.078 C 125.12 109.966 126.634 109.835 126.647 109.835 C 126.659 109.835 127.227 110.43 127.704 110.867 C 128.181 111.305 130.048 112.042 130.915 112.14" />
  <path stroke-linejoin="round" stroke-width="0.13" d="M 126.647 109.019 C 126.935 109.62 127.352 110.391 129.218 111.239 C 131.086 112.087 130.955 111.84 131.033 111.918 C 131.111 111.996 131.086 112.218 131.073 112.296 C 131.06 112.375 130.668 112.506 129.806 112.245 C 128.944 111.983 127.626 111.253 127.626 111.239" />
  <path stroke-linejoin="round" stroke-width="0.13" d="M 127.483 110.822 C 127.483 110.822 127.509 111.944 127.587 112.48 C 127.665 113.015 127.771 114.384 127.79 114.299" />
  <path stroke-linejoin="round" stroke-width="0.13" d="M 127.26 111.135 C 127.26 111.161 127.456 113.537 127.483 113.733" />
  <path stroke-linejoin="round" stroke-width="0.13" d="M 124.102 110.887 C 124.323 110.612 124.701 110.391 124.858 110.338 C 125.016 110.286 126.504 110.103 126.504 110.103 C 126.504 110.103 126.926 110.628 127.209 110.861" />
  <path stroke-linejoin="round" stroke-width="0.13" d="M 124.48 112.14 C 124.611 112.623 124.781 112.936 124.936 113.015 C 125.093 113.093 125.132 113.132 125.236 112.962 C 125.341 112.793 125.615 111.801 125.615 111.852" />
  <path stroke-linejoin="round" stroke-width="0.13" d="M 125.328 112.989 C 125.471 113.144 125.602 113.185 125.76 113.132 C 125.915 113.079 126.189 112.754 126.281 112.466" />
  <path stroke-linejoin="round" stroke-width="0.13" d="M 125.512 112.819 C 125.512 112.793 125.629 112.271 125.719 112.153 C 125.811 112.036 126.007 112.049 126.085 112.231" />
  <path stroke-linejoin="round" stroke-width="0.13" d="M 124.74 112.271 C 124.846 111.969 125.067 111.84 125.29 111.826" />
  <path stroke-linejoin="round" stroke-width="0.13" d="M 125.837 111.54 C 126.06 111.695 126.138 111.801 126.177 111.944" />
  <path stroke-linejoin="round" stroke-width="0.13" d="M 124.768 111.84 C 124.871 111.54 125.093 111.409 125.316 111.396" />
  <path stroke-linejoin="round" stroke-width="0.13" d="M 132.354 112.21 C 133.484 112.367 134.848 111.932 135.899 111.295 C 136.949 110.658 137.52 110.031 137.632 109.786" />
  <path stroke-linejoin="round" stroke-width="0.13" d="M 137.341 105.739 C 137.564 107.013 137.542 108.444 137.542 108.444" />
  <path stroke-linejoin="round" stroke-width="0.13" d="M 127.391 105.335 C 128.218 106.766 130.342 107.572 132.512 107.572 C 134.68 107.572 136.759 106.298 137.385 105.201" />
  <path stroke-linejoin="round" stroke-width="0.13" d="M 131.391 107.073 C 131.701 107.108 132.016 107.125 132.332 107.125 C 132.919 107.125 133.498 107.031 134.045 106.873" />
  <path stroke-linejoin="round" stroke-width="0.13" d="M 131.126 104.733 C 131.706 105.046 132.78 104.978 133.25 104.688" />
  <path stroke-linejoin="round" stroke-width="0.13" d="M 131.461 104.286 C 131.953 104.329 132.444 104.329 132.735 104.218" />
  <path stroke-linejoin="round" stroke-width="0.3" d="M 133.881 104.411 C 133.587 104.287 133.365 104.06 133.365 103.878 C 133.365 103.695 133.342 91.981 133.342 91.393 C 133.342 90.804 132.83 90.275 132.171 90.275 C 131.514 90.275 130.907 90.638 130.907 91.314 C 130.907 91.99 130.93 103.618 130.93 103.843 C 130.93 104.069 130.734 104.254 130.557 104.343" />
  <path stroke-linejoin="round" stroke-width="0.13" d="M 133.038 103.09 L 132.903 92.158" />
  <path stroke-linejoin="round" stroke-width="0.13" d="M 131.167 91.471 C 131.383 91.712 131.625 91.754 132.096 91.754 C 132.568 91.754 132.864 91.632 133.051 91.483" />
  <path stroke-linejoin="round" stroke-width="0.3" d="M 131.213 90.868 C 131.427 91.09 132.361 91.328 132.939 90.963" />
  <path stroke-linejoin="round" stroke-width="0.3" d="M 107.837 24.728 L 105.269 54.723 L 102.956 24.728 L 72.162 24.728 L 72.162 1.379 L 143.942 1.379 L 143.942 24.728 L 107.837 24.728 Z" />
  <g>
   <line stroke-linejoin="round" stroke-width="0.3" x1="80.028" y1="123.766" x2="113.606" y2="120.971" />
   <line stroke-linejoin="round" stroke-width="0.3" x1="80.028" y1="123.766" x2="113.606" y2="126.186" />
   <polyline stroke-linejoin="round" stroke-width="0.3" points="150.082,87.272 113.734,87.272 113.734,120.915" />
   <polyline stroke-linejoin="round" stroke-width="0.3" points="113.734,126.295 113.734,153.909 150.082,153.909 150.082,87.272" />
  </g>
  <path stroke-linejoin="round" stroke-width="0.3" d="M 82.67 108.569 L 50.716 107.153 L 50.716 135.715 L 0.15 135.715 L 0.15 72.099 L 50.716 72.099 L 50.716 101.873 L 82.67 108.569 Z" />
 </g>
 <g id="Symbols">
 </g>
 <g id="Text&amp;Poses">
  <text font-family="'Helvetica'" font-size="4.939" fill="#000000" stroke="none" x="75.191" y="7.716">1</text>
  <g>
   <path stroke-linejoin="round" stroke-width="0.13" d="M 79.058 5.985 C 79.058 4.653 77.98 3.576 76.65 3.576 C 75.319 3.576 74.24 4.653 74.24 5.985 C 74.24 7.315 75.319 8.393 76.65 8.393 C 77.98 8.393 79.058 7.315 79.058 5.985" />
  </g>
  <text font-family="'Helvetica'" font-size="4.939" fill="#000000" stroke="none" x="3.326" y="78.602">2</text>
  <g>
   <path stroke-linejoin="round" stroke-width="0.13" d="M 7.192 76.87 C 7.192 75.54 6.113 74.462 4.783 74.462 C 3.452 74.462 2.375 75.54 2.375 76.87 C 2.375 78.2 3.452 79.28 4.783 79.28 C 6.113 79.28 7.192 78.2 7.192 76.87" />
  </g>
  <text font-family="'Helvetica'" font-size="4.939" fill="#000000" stroke="none" x="124.385" y="99.778">3</text>
  <g>
   <path stroke-linejoin="round" stroke-width="0.13" d="M 128.252 98.046 C 128.252 96.715 127.174 95.638 125.843 95.638 C 124.513 95.638 123.435 96.715 123.435 98.046 C 123.435 99.376 124.513 100.454 125.843 100.454 C 127.174 100.454 128.252 99.376 128.252 98.046" />
  </g>
  <text font-family="'Helvetica'" font-size="4.939" fill="#000000" stroke="none" x="124.385" y="121.352">4</text>
  <g>
   <path stroke-linejoin="round" stroke-width="0.13" d="M 128.252 119.62 C 128.252 118.289 127.174 117.21 125.843 117.21 C 124.513 117.21 123.435 118.289 123.435 119.62 C 123.435 120.95 124.513 122.028 125.843 122.028 C 127.174 122.028 128.252 120.95 128.252 119.62" />
  </g>
  <text font-family="'Helvetica'" font-size="4.939" fill="#000000" stroke="none" x="124.385" y="138.201">5</text>
  <g>
   <path stroke-linejoin="round" stroke-width="0.13" d="M 128.252 136.468 C 128.252 135.139 127.174 134.06 125.843 134.06 C 124.513 134.06 123.435 135.139 123.435 136.468 C 123.435 137.799 124.513 138.877 125.843 138.877 C 127.174 138.877 128.252 137.799 128.252 136.468" />
  </g>
 </g>
 <g id="Measures">
 </g>
 <g id="Picture_x0020_#">
  <text font-family="'Arial'" font-size="2.117" fill="#000000" stroke="none" transform="matrix(0 -1 1 0 149.17 153.15)">420 349</text>
 </g>
<style /></svg>