<svg xmlns="http://www.w3.org/2000/svg" clip-rule="evenodd" fill="none" fill-rule="evenodd" stroke="#000000" stroke-linecap="round" viewBox="0 0 75.006 83.897" width="100%" height="100%" xmlns:xml="http://www.w3.org/XML/1998/namespace" xml:space="preserve">
 <g id="A4_x0020_half_x0020_frame">
  <polygon stroke="#ffffff" stroke-linejoin="round" stroke-width="0.006" points="0.003,0.003 75.003,0.003 75.003,83.894 0.003,83.894 0.003,0.003" />
 </g>
 <g id="Colour">
 </g>
 <g id="Standard_x0020_layer">
  <path stroke-linecap="butt" stroke-miterlimit="10" stroke-width="0.3" d="M 1.231 23.782 C 1.231 23.782 21.341 30.815 23.105 31.277 C 24.868 31.74 24.603 31.211 26.565 31.786 C 28.528 32.359 32.938 33.747 34.173 33.968 C 35.408 34.189 35.716 34.145 36.156 33.395 C 36.597 32.645 37.414 30.836 38.252 30.704" />
  <path stroke-linecap="butt" stroke-miterlimit="10" stroke-width="0.3" d="M 38.252 30.704 C 39.091 30.541 39.134 30.704 39.399 31.3 C 39.662 31.896 39.84 33.725 40.17 34.189 C 40.5 34.652 41.273 34.718 42.021 34.673 C 42.771 34.63 52.186 34.509 61.094 32.64 C 70.001 30.771 72.448 29.25 73.001 29.117" />
  <path stroke-linecap="butt" stroke-miterlimit="10" stroke-width="0.13" d="M 73.617 28.257 C 67.643 30.463 62.725 32.204 51.746 33.24 C 40.765 34.277 40.216 34.115 39.896 33.424" />
  <path stroke-linecap="butt" stroke-miterlimit="10" stroke-width="0.13" d="M 36.219 33.283 C 35.429 33.505 33.975 33.701 32.673 33.283 C 31.373 32.865 29.411 31.896 26.588 31.477 C 23.765 31.057 22.861 31.213 22.451 31.08" />
  <path stroke-linecap="butt" stroke-miterlimit="10" stroke-width="0.13" d="M 52.847 17.608 C 54.237 17.344 62.152 14.785 63.63 14.544" />
  <path stroke-linecap="butt" stroke-miterlimit="10" stroke-width="0.13" d="M 42.286 29.625 C 46.497 29.646 56.243 28.521 62.064 26.934 C 67.885 25.347 72.67 23.362 73.617 22.678" />
  <path stroke-linecap="butt" stroke-miterlimit="10" stroke-width="0.13" d="M 25.507 25.678 C 25.817 24.289 27.425 21.798 29.852 21.135 C 32.277 20.475 35.914 20.254 39.487 20.166 C 43.058 20.077 49.761 18.777 51.436 18.071" />
  <path stroke-linecap="butt" stroke-miterlimit="10" stroke-width="0.13" d="M 50.731 17.608 C 46.872 18.71 41.161 19.46 36.619 19.504 C 32.078 19.548 27.867 19.637 25.949 21.774 C 24.03 23.914 23.324 26.361 23.214 26.472 C 23.105 26.582 22.62 26.318 22.574 26.472 C 22.53 26.626 21.428 29.603 21.451 29.844 C 21.472 30.088 21.472 30.486 22.21 31.004" />
  <path stroke-linecap="butt" stroke-miterlimit="10" stroke-width="0.13" d="M 25.728 26.405 C 27.25 27.088 34.591 29.382 35.098 29.492 C 35.606 29.603 35.848 28.236 36.444 28.091 C 37.039 27.949 40.942 28.301 41.558 29.448" />
  <path stroke-linecap="butt" stroke-miterlimit="10" stroke-width="0.13" d="M 52.076 18.821 C 52.274 21.599 51.039 25.353 47.755 28.932" />
  <path stroke-linecap="butt" stroke-miterlimit="10" stroke-width="0.13" d="M 41.161 23.516 C 43.058 23.516 45.902 21.708 47.908 21.379" />
  <path stroke-linecap="butt" stroke-miterlimit="10" stroke-width="0.13" d="M 42.286 25.678 C 42.926 24.818 43.279 23.876 43.279 23.876" />
  <path stroke-linecap="butt" stroke-miterlimit="10" stroke-width="0.13" d="M 33.643 22.943 C 33.643 22.943 32.43 27.376 32.475 28.103" />
  <path stroke-linecap="butt" stroke-miterlimit="10" stroke-width="0.13" d="M 36.466 24.686 C 36.134 25.568 35.993 26.14 36.219 26.692" />
  <path stroke-linecap="butt" stroke-miterlimit="10" stroke-width="0.13" d="M 36.109 31.542 C 36.046 30.969 37.039 30.263 37.744 30.219" />
  <path stroke-linecap="butt" stroke-miterlimit="10" stroke-width="0.13" d="M 41.758 30.882 C 41.956 32.424 42.021 33.219 41.933 33.219" />
  <path stroke-linecap="butt" stroke-miterlimit="10" stroke-width="0.13" d="M 42.176 30.219 C 42.793 31.167 42.661 32.049 42.661 32.049" />
  <path stroke-linecap="butt" stroke-miterlimit="10" stroke-width="0.13" d="M 38.252 30.573 C 37.987 30.198 37.679 29.692 37.744 29.625 C 37.811 29.559 38.274 29.167 37.942 28.932 C 37.612 28.699 37.502 28.565 37.612 28.478 C 37.722 28.39 37.811 28.036 37.744 27.838 C 37.679 27.64 37.545 27.045 37.744 26.803 C 37.942 26.559 37.551 26.356 37.838 25.958 C 38.124 25.564 38.031 24.777 38.031 24.777" />
  <path stroke-linecap="butt" stroke-miterlimit="10" stroke-width="0.13" d="M 23.39 27.353 C 22.905 28.324 22.222 29.359 22.266 29.955" />
  <path stroke-linecap="butt" stroke-miterlimit="10" stroke-width="0.13" d="M 25.001 27.353 C 24.361 28.324 24.03 29.228 23.876 29.955" />
  <path stroke-linecap="butt" stroke-miterlimit="10" stroke-width="0.13" d="M 5.466 19.371 L 23.039 25.689" />
  <path stroke-linecap="butt" stroke-miterlimit="10" stroke-width="0.13" d="M 3.834 19.614 L 8.156 21.091" />
  <path stroke-linecap="butt" stroke-miterlimit="10" stroke-width="0.13" d="M 8.861 21.379 L 22.265 26.295" />
  <path stroke-linecap="butt" stroke-miterlimit="10" stroke-width="0.13" d="M 13.999 10.993 C 16.335 11.323 19.841 12.691 21.076 13.705" />
  <path stroke-linecap="butt" stroke-miterlimit="10" stroke-width="0.13" d="M 21.318 14.432 C 21.185 15.336 20.393 16.836 20.327 17.608" />
  <path stroke-linecap="butt" stroke-miterlimit="10" stroke-width="0.13" d="M 9.83 4.798 C 13.999 7.046 18.826 8.788 19.951 8.545 C 21.076 8.304 22.553 6.408 23.655 2.99" />
  <path stroke-linecap="butt" stroke-miterlimit="10" stroke-width="0.3" d="M 10.073 3.343 C 11.992 4.4 17.217 7.091 18.585 7.333 C 19.951 7.575 20.722 7.466 21.318 6.187 C 21.914 4.908 23.236 0.499 23.236 0.499" />
  <path fill="#000000" stroke-linecap="butt" stroke-miterlimit="10" stroke-width="0.13" d="M 38.411 24.838 C 38.411 25.045 38.243 25.213 38.036 25.213 C 37.829 25.213 37.662 25.045 37.662 24.838 C 37.662 24.632 37.829 24.464 38.036 24.464 C 38.243 24.464 38.411 24.632 38.411 24.838 Z" />
  <g>
   <path stroke="#ffffff" stroke-linecap="butt" stroke-miterlimit="10" stroke-width="1" d="M 42.524 28.318 C 42.241 30.722 40.198 32.588 37.718 32.588 C 35.045 32.588 32.88 30.42 32.88 27.748 C 32.88 25.077 35.045 22.91 37.718 22.91 C 40.198 22.91 42.241 24.775 42.524 27.179" />
   <path stroke-linecap="butt" stroke-miterlimit="10" stroke-width="0.13" d="M 42.557 27.748 C 42.557 30.42 40.39 32.588 37.718 32.588 C 35.045 32.588 32.88 30.42 32.88 27.748 C 32.88 25.077 35.045 22.91 37.718 22.91 C 40.39 22.91 42.557 25.077 42.557 27.748 Z" />
  </g>
  <g>
   <path stroke="#ffffff" stroke-linecap="butt" stroke-miterlimit="10" stroke-width="1" d="M 61.601 60.594 C 61.307 72.965 51.186 82.905 38.746 82.909 C 26.105 82.909 15.865 72.668 15.865 60.036 C 15.865 47.405 26.105 37.164 38.737 37.164 C 51.182 37.164 61.307 47.106 61.601 59.479" />
   <path stroke-linecap="butt" stroke-miterlimit="10" stroke-width="0.13" d="M 61.609 60.036 C 61.609 72.668 51.368 82.909 38.737 82.909 C 26.105 82.909 15.865 72.668 15.865 60.036 C 15.865 47.405 26.105 37.164 38.737 37.164 C 51.368 37.164 61.609 47.405 61.609 60.036 Z" />
  </g>
  <path stroke-linecap="butt" stroke-miterlimit="10" stroke-width="0.3" d="M 41.932 45.246 C 41.932 46.17 41.183 46.92 40.259 46.92 C 39.335 46.92 38.585 46.17 38.585 45.246 C 38.585 44.322 39.335 43.573 40.259 43.573 C 41.183 43.573 41.932 44.322 41.932 45.246 Z" />
  <path stroke-linecap="butt" stroke-miterlimit="10" stroke-width="0.13" d="M 41.389 45.246 C 41.389 45.871 40.883 46.377 40.259 46.377 C 39.634 46.377 39.128 45.871 39.128 45.246 C 39.128 44.621 39.634 44.116 40.259 44.116 C 40.883 44.116 41.389 44.621 41.389 45.246 Z" />
  <path stroke-linecap="butt" stroke-miterlimit="10" stroke-width="0.13" d="M 41.389 45.246 C 41.389 45.871 40.883 46.377 40.259 46.377 C 39.634 46.377 39.128 45.871 39.128 45.246 C 39.128 44.621 39.634 44.116 40.259 44.116 C 40.883 44.116 41.389 44.621 41.389 45.246 Z" />
  <path stroke-linecap="butt" stroke-miterlimit="10" stroke-width="0.13" d="M 40.959 45.246 C 40.959 45.633 40.646 45.947 40.259 45.947 C 39.871 45.947 39.558 45.633 39.558 45.246 C 39.558 44.859 39.871 44.546 40.259 44.546 C 40.646 44.546 40.959 44.859 40.959 45.246 Z" />
  <path stroke-linecap="butt" stroke-miterlimit="10" stroke-width="0.13" d="M 40.64 45.246 C 40.64 45.457 40.469 45.627 40.259 45.627 C 40.048 45.627 39.878 45.457 39.878 45.246 C 39.878 45.036 40.048 44.865 40.259 44.865 C 40.469 44.865 40.64 45.036 40.64 45.246 Z" />
  <path fill="#000000" stroke="none" d="M 40.424 45.246 C 40.424 45.338 40.35 45.411 40.259 45.411 C 40.167 45.411 40.094 45.338 40.094 45.246 C 40.094 45.155 40.167 45.081 40.259 45.081 C 40.35 45.081 40.424 45.155 40.424 45.246 Z" />
  <path stroke-linecap="butt" stroke-miterlimit="10" stroke-width="0.3" d="M 33.137 44.418 C 32.475 46.226 30.094 51.343 31.923 54.649" />
  <path stroke-linecap="butt" stroke-miterlimit="10" stroke-width="0.3" d="M 16.423 64.328 C 17.923 64.659 23.17 66.909 24.295 67.284 C 25.42 67.659 26.169 68.099 26.632 68.099 C 27.094 68.099 27.603 68.01 27.778 67.415 C 27.954 66.82 29.829 63.976 32.718 62.564 C 35.606 61.154 36.985 60.536 39.558 61.706" />
  <path stroke-linecap="butt" stroke-miterlimit="10" stroke-width="0.3" d="M 58.183 68.275 C 56.133 65.85 54.435 65.873 50.378 64.462 C 46.322 63.049 41.962 60.978 39.676 61.981" />
  <path stroke-linecap="butt" stroke-miterlimit="10" stroke-width="0.3" d="M 31.504 77.668 C 31.725 74.338 34.613 73.7 39.024 71.98" />
  <path stroke-linecap="butt" stroke-miterlimit="10" stroke-width="0.3" d="M 41.051 72.641 C 41.073 71.891 39.773 70.128 39.558 69.069 C 39.344 68.01 39.575 67.262 39.707 66.93 C 39.84 66.599 39.662 65.32 39.31 63.954 C 38.957 62.587 39.662 62.057 39.728 61.904 C 39.795 61.75 39.662 61.418 39.558 60.933 C 39.454 60.448 38.802 58.09 38.737 57.978 C 38.67 57.868 38.737 57.009 38.585 56.304 C 38.432 55.597 38.317 55.003 38.979 52.598 C 39.64 50.195 40.259 48.96 40.259 48.96 C 40.259 48.96 40.567 48.057 40.424 46.92" />
  <g>
   <path fill="#000000" stroke="none" d="M 32.218 81.966 C 32.218 81.966 32.61 82.078 33.238 82.243 C 33.865 82.408 34.406 82.5 34.406 82.5 C 34.406 82.5 34.835 81.417 34.856 80.998 C 34.878 80.578 35.451 79.365 36.466 77.867 C 37.479 76.367 39.972 75.242 39.972 75.242 L 41.051 72.668 L 41.051 72.641 C 41.051 72.641 39.817 72.993 37.656 73.743 C 35.496 74.493 34.548 76.102 33.643 77.867 C 32.74 79.631 32.191 82.078 32.191 82.078" />
  </g>
  <g>
   <path fill="#000000" stroke="none" d="M 41.124 72.807 L 42.959 75.055 C 42.959 75.055 44.393 74.972 44.889 75.293 C 45.384 75.612 45.627 75.832 46.051 77.326 C 46.475 78.82 46.686 80.281 46.789 80.584 C 46.895 80.888 47.009 81.367 47.009 81.367 C 47.009 81.367 47.628 81.171 48.173 80.878 C 48.719 80.584 49.066 80.45 49.066 80.45 C 49.066 80.45 48.719 78.472 48.393 77.421 C 48.069 76.367 47.832 74.454 46.697 73.677 C 45.561 72.9 45.17 72.712 43.847 72.641 C 42.524 72.569 41.014 72.608 41.018 72.641" />
  </g>
 </g>
 <g id="Blow-up">
 </g>
 <g id="Symbols">
 </g>
 <g id="Text&amp;Poses">
 </g>
 <g id="Measures">
 </g>
 <g id="Picture_x0020_#">
  <text font-family="'Arial'" font-size="2.117" fill="#000000" stroke="none" transform="matrix(0 -1 1 0 73.817 82.882)">420 352</text>
 </g>
<style /></svg>