<svg xmlns="http://www.w3.org/2000/svg" clip-rule="evenodd" fill="none" fill-rule="evenodd" stroke="#000000" stroke-linecap="round" viewBox="0 0 75.006 40.271" width="100%" height="100%" xmlns:xml="http://www.w3.org/XML/1998/namespace" xml:space="preserve">
 <g id="A4_x0020_half_x0020_frame">
  <polygon stroke="#ffffff" stroke-linejoin="round" stroke-width="0.006" points="0.003,0.003 75.003,0.003 75.003,40.268 0.003,40.268 0.003,0.003" />
 </g>
 <g id="Colour">
 </g>
 <g id="Standard_x0020_layer">
  <line stroke-linejoin="round" stroke-width="0.3" x1="2.761" y1="38.472" x2="70.549" y2="38.472" />
  <g>
   <line stroke-linejoin="round" stroke-width="0.3" x1="16.17" y1="29.076" x2="24.893" y2="35.183" />
   <line stroke-linejoin="round" stroke-width="0.3" x1="65.924" y1="34.258" x2="66.292" y2="33.732" />
   <line stroke-linejoin="round" stroke-width="0.3" x1="66.292" y1="33.732" x2="60.904" y2="29.518" />
   <line stroke-linejoin="round" stroke-width="0.3" x1="60.904" y1="29.518" x2="62.167" y2="27.713" />
   <line stroke-linejoin="round" stroke-width="0.3" x1="62.219" y1="27.751" x2="59.033" y2="24.324" />
   <line stroke-linejoin="round" stroke-width="0.3" x1="59.033" y1="24.324" x2="59.359" y2="23.859" />
   <line stroke-linejoin="round" stroke-width="0.3" x1="59.359" y1="23.859" x2="47.043" y2="14.576" />
   <line stroke-linejoin="round" stroke-width="0.3" x1="47.043" y1="14.576" x2="47.399" y2="14.069" />
   <line stroke-linejoin="round" stroke-width="0.3" x1="47.399" y1="14.069" x2="45.787" y2="11.65" />
   <line stroke-linejoin="round" stroke-width="0.3" x1="65.924" y1="34.258" x2="65.555" y2="34.783" />
   <line stroke-linejoin="round" stroke-width="0.3" x1="65.555" y1="34.783" x2="59.753" y2="31.161" />
   <line stroke-linejoin="round" stroke-width="0.3" x1="59.753" y1="31.161" x2="58.488" y2="32.966" />
   <line stroke-linejoin="round" stroke-width="0.3" x1="58.542" y1="33.003" x2="54.232" y2="31.181" />
   <line stroke-linejoin="round" stroke-width="0.3" x1="54.232" y1="31.181" x2="53.906" y2="31.646" />
   <line stroke-linejoin="round" stroke-width="0.3" x1="53.906" y1="31.646" x2="40.97" y2="23.248" />
   <line stroke-linejoin="round" stroke-width="0.3" x1="40.97" y1="23.248" x2="40.615" y2="23.756" />
   <line stroke-linejoin="round" stroke-width="0.3" x1="40.615" y1="23.756" x2="37.792" y2="23.068" />
   <line stroke-linejoin="round" stroke-width="0.3" x1="59.753" y1="31.161" x2="60.904" y2="29.518" />
   <line stroke-linejoin="round" stroke-width="0.3" x1="59.033" y1="24.324" x2="55.715" y2="29.065" />
   <path stroke-linejoin="round" stroke-width="0.3" d="M 37.792 23.068 L 23.846 12.512 C 23.846 12.512 24.89 5.469 25.259 4.355 C 25.626 3.241 26.818 2.061 29.53 3.412 C 32.243 4.764 45.787 11.65 45.787 11.65" />
   <line stroke-linejoin="round" stroke-width="0.13" x1="45.787" y1="11.65" x2="37.97" y2="22.815" />
   <polygon stroke-linejoin="round" stroke-width="0.13" points="29.638,6.918 27.402,10.109 38.329,17.76 40.564,14.567 29.638,6.918" />
   <path stroke-linejoin="round" stroke-width="0.3" d="M 40.97 23.248 C 40.97 23.248 42.256 20.812 43.725 18.714 C 45.194 16.617 47.043 14.576 47.043 14.576" />
   <line stroke-linejoin="round" stroke-width="0.13" x1="46.219" y1="15.9" x2="52.96" y2="20.62" />
   <line stroke-linejoin="round" stroke-width="0.13" x1="53.107" y1="21.233" x2="52.442" y2="22.184" />
   <line stroke-linejoin="round" stroke-width="0.13" x1="44.981" y1="17.667" x2="51.722" y2="22.388" />
   <path stroke-linejoin="round" stroke-width="0.13" d="M 51.722 22.388 C 51.944 22.542 52.28 22.416 52.442 22.184" />
   <path stroke-linejoin="round" stroke-width="0.13" d="M 53.107 21.233 C 53.247 21.033 53.159 20.759 52.96 20.62" />
   <line stroke-linejoin="round" stroke-width="0.13" x1="57.905" y1="24.591" x2="57.238" y2="25.542" />
   <path stroke-linejoin="round" stroke-width="0.13" d="M 56.52 25.745 C 56.74 25.9 57.076 25.774 57.238 25.542" />
   <path stroke-linejoin="round" stroke-width="0.13" d="M 57.905 24.591 C 58.043 24.393 57.957 24.117 57.758 23.978" />
   <line stroke-linejoin="round" stroke-width="0.13" x1="52.947" y1="22.734" x2="53.612" y2="21.783" />
   <path stroke-linejoin="round" stroke-width="0.13" d="M 54.332 21.579 C 54.11 21.425 53.774 21.551 53.612 21.783" />
   <path stroke-linejoin="round" stroke-width="0.13" d="M 52.947 22.734 C 52.807 22.932 52.895 23.207 53.094 23.347" />
   <line stroke-linejoin="round" stroke-width="0.13" x1="53.094" y1="23.347" x2="56.52" y2="25.745" />
   <line stroke-linejoin="round" stroke-width="0.13" x1="57.758" y1="23.978" x2="54.332" y2="21.579" />
   <line stroke-linejoin="round" stroke-width="0.13" x1="46.576" y1="15.391" x2="53.317" y2="20.111" />
   <path stroke-linejoin="round" stroke-width="0.13" d="M 53.317 20.111 C 53.537 20.265 53.874 20.138 54.036 19.907" />
   <path stroke-linejoin="round" stroke-width="0.13" d="M 58.113 23.469 C 58.293 23.596 58.549 23.535 58.726 23.382" />
   <path stroke-linejoin="round" stroke-width="0.13" d="M 54.54 20.457 C 54.402 20.655 54.488 20.931 54.688 21.071" />
   <line stroke-linejoin="round" stroke-width="0.13" x1="54.688" y1="21.071" x2="58.113" y2="23.469" />
   <line stroke-linejoin="round" stroke-width="0.13" x1="47.679" y1="20.437" x2="51.31" y2="22.978" />
   <line stroke-linejoin="round" stroke-width="0.13" x1="51.457" y1="23.591" x2="50.79" y2="24.542" />
   <line stroke-linejoin="round" stroke-width="0.13" x1="46.442" y1="22.204" x2="50.072" y2="24.746" />
   <path stroke-linejoin="round" stroke-width="0.13" d="M 50.072 24.746 C 50.292 24.902 50.628 24.774 50.79 24.542" />
   <path stroke-linejoin="round" stroke-width="0.13" d="M 51.457 23.591 C 51.595 23.393 51.509 23.117 51.31 22.978" />
   <line stroke-linejoin="round" stroke-width="0.13" x1="56.253" y1="26.951" x2="55.587" y2="27.9" />
   <path stroke-linejoin="round" stroke-width="0.13" d="M 54.868 28.105 C 55.088 28.26 55.424 28.132 55.587 27.9" />
   <path stroke-linejoin="round" stroke-width="0.13" d="M 56.253 26.951 C 56.392 26.751 56.304 26.475 56.106 26.336" />
   <line stroke-linejoin="round" stroke-width="0.13" x1="51.295" y1="25.092" x2="51.96" y2="24.143" />
   <path stroke-linejoin="round" stroke-width="0.13" d="M 52.679 23.937 C 52.459 23.783 52.122 23.911 51.96 24.143" />
   <path stroke-linejoin="round" stroke-width="0.13" d="M 51.295 25.092 C 51.155 25.292 51.243 25.567 51.442 25.705" />
   <line stroke-linejoin="round" stroke-width="0.13" x1="51.442" y1="25.705" x2="54.868" y2="28.105" />
   <line stroke-linejoin="round" stroke-width="0.13" x1="56.106" y1="26.336" x2="52.679" y2="23.937" />
   <line stroke-linejoin="round" stroke-width="0.13" x1="46.295" y1="21.591" x2="46.96" y2="20.64" />
   <path stroke-linejoin="round" stroke-width="0.13" d="M 47.679 20.437 C 47.459 20.282 47.122 20.408 46.96 20.64" />
   <path stroke-linejoin="round" stroke-width="0.13" d="M 46.295 21.591 C 46.155 21.791 46.243 22.065 46.442 22.204" />
   <line stroke-linejoin="round" stroke-width="0.13" x1="45.829" y1="23.077" x2="49.46" y2="25.62" />
   <line stroke-linejoin="round" stroke-width="0.13" x1="49.606" y1="26.234" x2="48.942" y2="27.184" />
   <path stroke-linejoin="round" stroke-width="0.13" d="M 48.222 27.388 C 48.442 27.542 48.779 27.416 48.942 27.184" />
   <path stroke-linejoin="round" stroke-width="0.13" d="M 49.606 26.234 C 49.746 26.035 49.658 25.759 49.46 25.62" />
   <line stroke-linejoin="round" stroke-width="0.13" x1="49.445" y1="27.734" x2="50.11" y2="26.783" />
   <path stroke-linejoin="round" stroke-width="0.13" d="M 50.831 26.579 C 50.609 26.425 50.274 26.551 50.11 26.783" />
   <path stroke-linejoin="round" stroke-width="0.13" d="M 49.445 27.734 C 49.305 27.932 49.393 28.208 49.591 28.347" />
   <line stroke-linejoin="round" stroke-width="0.13" x1="54.256" y1="28.978" x2="50.831" y2="26.579" />
   <line stroke-linejoin="round" stroke-width="0.13" x1="44.445" y1="24.233" x2="45.11" y2="23.283" />
   <path stroke-linejoin="round" stroke-width="0.13" d="M 45.829 23.077 C 45.609 22.923 45.273 23.05 45.11 23.283" />
   <path stroke-linejoin="round" stroke-width="0.13" d="M 44.445 24.233 C 44.305 24.431 44.393 24.707 44.591 24.847" />
   <path stroke-linejoin="round" stroke-width="0.13" d="M 46.371 20.03 C 46.509 19.832 46.423 19.556 46.223 19.417" />
   <path stroke-linejoin="round" stroke-width="0.13" d="M 43.136 23.826 C 43.356 23.981 43.692 23.855 43.856 23.623" />
   <line stroke-linejoin="round" stroke-width="0.13" x1="46.371" y1="20.03" x2="43.889" y2="23.574" />
   <line stroke-linejoin="round" stroke-width="0.13" x1="46.223" y1="19.417" x2="44.371" y2="18.12" />
   <path stroke-linejoin="round" stroke-width="0.13" d="M 54.256 28.978 C 55.11 29.576 55.624 29.193 55.715 29.065" />
   <line stroke-linejoin="round" stroke-width="0.13" x1="55.715" y1="29.065" x2="54.232" y2="31.181" />
   <g>
    <path stroke-linejoin="round" stroke-width="0.13" d="M 52.668 31.307 C 52.668 30.841 52.29 30.463 51.823 30.463 C 51.357 30.463 50.979 30.841 50.979 31.307 C 50.979 31.774 51.357 32.152 51.823 32.152 C 52.29 32.152 52.668 31.774 52.668 31.307" />
   </g>
   <line stroke-linejoin="round" stroke-width="0.13" x1="51.43" y1="30.562" x2="52.265" y2="32.029" />
   <line stroke-linejoin="round" stroke-width="0.3" x1="50.17" y1="31.539" x2="52.302" y2="33.031" />
   <line stroke-linejoin="round" stroke-width="0.3" x1="53.906" y1="31.646" x2="53.161" y2="32.71" />
   <line stroke-linejoin="round" stroke-width="0.3" x1="50.789" y1="29.621" x2="50.118" y2="30.58" />
   <path stroke-linejoin="round" stroke-width="0.3" d="M 52.302 33.031 C 52.497 33.168 52.968 32.987 53.161 32.71" />
   <path stroke-linejoin="round" stroke-width="0.3" d="M 50.17 31.539 C 49.926 31.367 49.924 30.856 50.118 30.58" />
   <line stroke-linejoin="round" stroke-width="0.3" x1="24.893" y1="35.183" x2="34.877" y2="20.926" />
   <line stroke-linejoin="round" stroke-width="0.3" x1="16.17" y1="29.076" x2="26.426" y2="14.428" />
   <path stroke-linejoin="round" stroke-width="0.3" d="M 21.079 32.661 C 20.045 33.731 18.911 34.505 17.579 34.753 C 16.989 34.863 16.358 34.872 15.676 34.753 C 14.762 34.593 13.746 34.2 12.609 33.496 C 9.259 31.426 7.663 30.478 1.527 30.263" />
   <path stroke-linejoin="round" stroke-width="0.3" d="M 19.984 31.599 C 19.182 32.426 18.329 33.06 17.298 33.253 C 16.876 33.332 16.426 33.335 15.939 33.249 C 15.183 33.116 14.35 32.777 13.41 32.198 C 9.835 29.987 8.132 28.968 1.58 28.737" />
  </g>
 </g>
 <g id="Blow-up">
 </g>
 <g id="Symbols">
 </g>
 <g id="Text&amp;Poses">
 </g>
 <g id="Measures">
  <text font-family="'Arial'" font-size="4.232" fill="#000000" stroke="none" x="27.202" y="37.563">0-30°</text>
  <path fill="#000000" stroke="none" d="M 43.548 29.669 L 45.838 26.399 L 42.219 28.085 L 43.548 29.669 Z" />
  <path fill="#000000" stroke="none" d="M 38.543 34.616 L 39.576 38.472 L 40.61 34.616 L 38.543 34.616 Z" />
  <g>
   <path stroke-linejoin="round" stroke-width="0.13" d="M 43.792 28.257 C 41.39 30.327 39.896 33.06 39.353 35.915" />
  </g>
 </g>
 <g id="Picture_x0020_#">
  <text font-family="'Arial'" font-size="2.117" fill="#000000" stroke="none" transform="matrix(0 -1 1 0 73.817 39.256)">420 358</text>
 </g>
<style /></svg>