<?xml version="1.0" encoding="utf-8"?>
<!DOCTYPE svg PUBLIC "-//W3C//DTD SVG 1.1//EN" "http://www.w3.org/Graphics/SVG/1.1/DTD/svg11.dtd">
<!-- Generator: PTC Arbortext IsoDraw 7.3 M070 -->
<svg id="Standard_x0020_layer" width="100%" height="100%" viewBox="0 0 19.385 18.413"
 xmlns="http://www.w3.org/2000/svg" xmlns:xlink="http://www.w3.org/1999/xlink"
 xmlns:itedo="http://www.itedo.com/svgfilter/1.0" xmlns:extra="http://www.itedo.com/svgfilter/1.0/extra"
 xmlns:_DEFAULT_DTD_="http://www.itedo.com/svgfilter/1.0/DTD/_DEFAULT_DTD_"
 fill-rule="evenodd" clip-rule="evenodd" stroke="#000000" stroke-linecap="round" fill="none" xml:space="preserve">
 <g>
  <text transform="matrix(0 -1 1 0 18.679 18.413)" stroke="none" fill="#000000" font-family="'Helvetica'" font-size="1.058">142 066</text>
  <g>
   <path stroke-width="0.13" stroke-linejoin="round" stroke-miterlimit="10" d="M10.128 17.257L10.358 17.236L10.573 17.201L10.776 17.172L10.968 17.172L11.151 17.216L11.295 17.31L11.391 17.434L11.47 17.573L11.57 17.71L11.724 17.83L11.938 17.92L12.185 17.981L12.451 18.022L12.724 18.051L12.993 18.077L13.228 18.115L13.423 18.166L13.605 18.195L13.794 18.175L14.016 18.077L14.667 17.06L15.868 14.842L17.23 12.212L18.365 9.97L18.888 8.907L18.96 8.74L19.007 8.632L19.039 8.541L19.065 8.428L19.092 8.252L19.114 7.578L19.115 6.262L19.092 4.703L19.045 3.295L18.969 2.439L18.875 2.04L18.771 1.726L18.663 1.476L18.55 1.27L18.437 1.088L18.347 0.934L18.28 0.818L18.21 0.725L18.108 0.643L17.946 0.556L16.809 0.445L14.387 0.316L11.564 0.193L9.221 0.101L8.244 0.065L8.191 0.076L8.054 0.112L7.87 0.175L7.676 0.267L7.509 0.392L7.383 0.535L7.285 0.69L7.203 0.876L7.131 1.112L7.057 1.415L6.993 2.101L6.952 3.256L6.929 4.554L6.924 5.671L6.935 6.286L6.948 6.493L6.958 6.628L6.974 6.74L7.006 6.871L7.057 7.065L7.211 7.495L7.48 8.173L7.78 8.903L8.022 9.487L8.054 9.561"/>
   <g>
    <path stroke-width="0.13" stroke-linejoin="round" stroke-miterlimit="10" d="M8.324 0.268L10.401 0.394L12.541 0.509L14.483 0.618L15.961 0.727L16.716 0.841L16.974 0.958L17.152 1.074L17.285 1.197L17.402 1.336L17.536 1.496L17.669 1.645L17.774 1.77L17.862 1.901L17.943 2.072L18.027 2.314L18.112 3.088L18.193 4.522L18.257 6.15L18.3 7.508L18.312 8.127L18.309 8.204L18.306 8.256L18.3 8.298L18.289 8.346L18.271 8.413L18.246 8.5L18.213 8.595L18.167 8.708L18.106 8.85L18.027 9.028L17.504 10.076L16.382 12.294L15.064 14.884L13.949 17.05L13.442 17.992L13.367 18.047L13.289 18.082L13.221 18.103L13.173 18.112L13.156 18.117"/>
    <path stroke-width="0.13" stroke-linejoin="round" stroke-miterlimit="10" d="M8.775 10.419L8.798 10.359L8.778 10.276L8.711 10.195L8.595 10.118L8.433 10.047L8.231 9.983L7.993 9.928L7.724 9.884L7.431 9.849L7.121 9.829L6.804 9.82L6.485 9.826L6.171 9.843L5.873 9.872L5.597 9.914L5.351 9.967L5.137 10.028L4.964 10.099L4.891 10.141"/>
   </g>
   <g>
    <path stroke-width="0.13" stroke-linejoin="round" stroke-miterlimit="10" d="M4.892 10.143L4.839 10.175L4.756 10.255L4.726 10.336L4.743 10.419L4.812 10.5L4.927 10.577L5.089 10.649L5.291 10.712L5.53 10.768L5.799 10.813L6.091 10.846L6.4 10.867L6.719 10.875L7.038 10.871L7.351 10.852L7.649 10.823L7.924 10.781L8.172 10.728L8.384 10.666L8.557 10.598L8.686 10.522L8.768 10.442L8.778 10.42"/>
    <path stroke-width="0.13" stroke-linejoin="round" stroke-miterlimit="10" d="M8.173 9.603L7.855 9.567L7.4 9.532L6.931 9.519L6.458 9.524L5.993 9.548L5.549 9.589L5.137 9.65L4.764 9.725L4.443 9.816L4.181 9.916L3.983 10.028L3.855 10.146L3.798 10.268L3.818 10.391L3.85 10.429"/>
   </g>
   <path stroke-width="0.13" stroke-linejoin="round" stroke-miterlimit="10" d="M3.847 10.429L3.91 10.509L4.073 10.624L4.304 10.73L4.596 10.827L4.945 10.91L5.338 10.978L5.767 11.029L6.222 11.063L6.692 11.077L7.166 11.073L7.629 11.048L8.073 11.006L8.487 10.946L8.858 10.871L9.179 10.781L9.442 10.679L9.641 10.567L9.769 10.449L9.824 10.327L9.806 10.205L9.714 10.086L9.55 9.971L9.319 9.864L9.025 9.768L8.679 9.685L8.285 9.617L8.172 9.602"/>
   <g>
    <path stroke-width="0.13" stroke-linejoin="round" stroke-miterlimit="10" d="M3.806 17.248L3.796 17.266L3.815 17.39L3.907 17.51L4.07 17.625L4.301 17.731L4.594 17.827L4.942 17.911L5.336 17.978L5.766 18.03L6.221 18.062L6.69 18.077L7.163 18.073L7.628 18.048L8.071 18.007L8.484 17.946L8.855 17.87L9.176 17.78L9.439 17.678L9.525 17.632"/>
    <path stroke-width="0.13" stroke-linejoin="round" stroke-miterlimit="10" d="M10.128 17.257L9.515 17.669"/>
   </g>
   <g>
    <path stroke-width="0.13" stroke-linejoin="round" stroke-miterlimit="10" d="M10.085 16.971L10.085 10.791"/>
    <path stroke-width="0.13" stroke-linejoin="round" stroke-miterlimit="10" d="M10.085 10.666L11.6 10.666"/>
    <path stroke-width="0.13" stroke-linejoin="round" stroke-miterlimit="10" d="M11.64 11.035L11.682 16.971"/>
    <path stroke-width="0.13" stroke-linejoin="round" stroke-miterlimit="10" d="M11.189 17.176L11.189 11.201"/>
   </g>
   <g>
    <path stroke-width="0.13" stroke-linejoin="round" stroke-miterlimit="10" d="M3.815 10.391L3.815 11.609"/>
    <path stroke-width="0.13" stroke-linejoin="round" stroke-miterlimit="10" d="M3.798 17.268L3.798 16.196"/>
    <path stroke-width="0.13" stroke-linejoin="round" stroke-miterlimit="10" d="M3.819 11.641L3.818 11.638L3.788 11.606L3.753 11.583L3.7 11.567L3.628 11.557L3.544 11.561L3.452 11.58L3.354 11.622L3.249 11.689L3.112 11.862L2.942 12.153L2.774 12.471L2.645 12.73L2.596 12.836"/>
    <path stroke-width="0.13" stroke-linejoin="round" stroke-miterlimit="10" d="M3.087 15.537L3.241 15.673L3.391 15.807L3.531 15.932L3.65 16.036L3.741 16.109L3.802 16.158L3.846 16.196L3.883 16.227L3.927 16.251L3.987 16.274L4.059 16.295L4.134 16.315L4.214 16.324L4.299 16.312L4.331 16.298"/>
   </g>
   <path stroke-width="0.13" stroke-linejoin="round" stroke-miterlimit="10" d="M4.33 16.301L4.394 16.274L4.578 16.07L4.873 15.65L5.198 15.14L5.474 14.664L5.623 14.35L5.658 14.173L5.663 14.019L5.649 13.89L5.631 13.782L5.623 13.695L5.626 13.632L5.636 13.587L5.642 13.55L5.641 13.507L5.623 13.451L5.435 13.237L5.027 12.823L4.541 12.345L4.118 11.936L3.903 11.731L3.851 11.679L3.819 11.641"/>
   <g>
    <path stroke-width="0.13" stroke-linejoin="round" stroke-miterlimit="10" d="M3.044 12.632L3.044 12.631L2.951 12.634L2.859 12.67L2.772 12.74L2.69 12.84L2.616 12.971L2.551 13.128L2.544 13.148"/>
    <path stroke-width="0.13" stroke-linejoin="round" stroke-miterlimit="10" d="M2.548 14.903L2.56 14.939L2.625 15.092L2.701 15.22L2.783 15.317L2.871 15.384L2.964 15.416"/>
   </g>
   <g>
    <path stroke-width="0.13" stroke-linejoin="round" stroke-miterlimit="10" d="M2.963 15.416L2.963 15.416L3.056 15.414L3.146 15.378L3.234 15.308L3.317 15.208L3.391 15.076L3.455 14.92L3.508 14.743L3.551 14.547L3.578 14.337L3.592 14.121L3.591 13.903L3.576 13.686L3.547 13.478L3.504 13.285L3.448 13.108L3.383 12.955L3.306 12.829L3.225 12.73L3.136 12.664L3.044 12.632"/>
    <path stroke-width="0.13" stroke-linejoin="round" stroke-miterlimit="10" d="M2.538 14.864L2.548 14.899"/>
    <path stroke-width="0.13" stroke-linejoin="round" stroke-miterlimit="10" d="M3.714 15.413L3.75 15.412L3.842 15.375L3.93 15.305L4.011 15.205L4.086 15.074L4.15 14.919L4.205 14.74L4.246 14.544L4.274 14.336L4.288 14.118L4.286 13.9L4.27 13.683L4.242 13.477L4.198 13.282L4.144 13.106L4.078 12.952L4.003 12.826L3.919 12.728L3.831 12.663L3.74 12.63L3.661 12.63"/>
    <path stroke-width="0.13" stroke-linejoin="round" stroke-miterlimit="10" d="M0.561 15.14L1.034 14.022L0.563 12.903"/>
   </g>
   <g>
    <path stroke-width="0.13" stroke-linejoin="round" stroke-miterlimit="10" d="M0.561 12.904L0.549 12.877L0.065 14.022L0.549 15.169L0.56 15.141"/>
    <path stroke-width="0.13" stroke-linejoin="round" stroke-miterlimit="10" d="M1.815 15.167L2.299 14.022L1.835 12.928"/>
   </g>
   <path stroke-width="0.13" stroke-linejoin="round" stroke-miterlimit="10" d="M3.025 14.849L3.051 14.849L3.107 14.827L3.16 14.785L3.209 14.724L3.254 14.644L3.294 14.551L3.326 14.442L3.351 14.323L3.367 14.198L3.375 14.067L3.375 13.933L3.366 13.804L3.349 13.678L3.322 13.561L3.289 13.454L3.249 13.361L3.204 13.284L3.153 13.224L3.1 13.185L3.044 13.166L2.988 13.166L2.984 13.166"/>
   <g>
    <path stroke-width="0.13" stroke-linejoin="round" stroke-miterlimit="10" d="M16.222 4.809L16.289 4.811L16.367 4.788L16.442 4.743L16.512 4.674L16.576 4.585L16.632 4.476L16.678 4.352L16.716 4.214L16.74 4.065L16.754 3.911L16.756 3.756L16.745 3.601L16.722 3.451L16.687 3.311L16.643 3.185L16.588 3.072L16.525 2.979L16.457 2.906L16.382 2.855L16.306 2.827L16.228 2.826L16.153 2.847"/>
    <path stroke-width="0.13" stroke-linejoin="round" stroke-miterlimit="10" d="M8.537 2.428L8.528 2.427L8.449 2.45L8.375 2.496L8.305 2.565L8.242 2.653L8.21 2.718"/>
   </g>
   <g>
    <path stroke-width="0.13" stroke-linejoin="round" stroke-miterlimit="10" d="M8.208 2.718L8.185 2.762L8.137 2.887L8.102 3.025L8.076 3.173L8.063 3.326L8.061 3.483L8.073 3.637L8.096 3.786L8.13 3.927L8.175 4.054L8.228 4.166L8.291 4.261L8.359 4.333L8.433 4.384L8.51 4.41L8.574 4.415"/>
    <path stroke-width="0.13" stroke-linejoin="round" stroke-miterlimit="10" d="M8.561 2.428L8.537 2.428"/>
   </g>
   <g>
    <path stroke-width="0.13" stroke-linejoin="round" stroke-miterlimit="10" d="M9.593 4.496L15.577 4.777"/>
    <path stroke-width="0.13" stroke-linejoin="round" stroke-miterlimit="10" d="M9.21 2.456L9.21 2.456L9.131 2.479L9.057 2.524L8.987 2.593L8.923 2.682L8.868 2.791L8.82 2.915L8.784 3.053L8.759 3.201L8.746 3.355L8.743 3.512L8.755 3.665L8.778 3.815L8.811 3.956L8.856 4.083L8.912 4.195L8.974 4.288L9.042 4.362L9.117 4.413L9.194 4.44L9.196 4.44"/>
    <path stroke-width="0.13" stroke-linejoin="round" stroke-miterlimit="10" d="M0.579 12.88L0.71 12.759"/>
    <path stroke-width="0.13" stroke-linejoin="round" stroke-miterlimit="10" d="M0.707 12.759L1.702 12.759"/>
    <path stroke-width="0.13" stroke-linejoin="round" stroke-miterlimit="10" d="M1.702 12.759L1.839 12.897"/>
   </g>
   <path stroke-width="0.13" stroke-linejoin="round" stroke-miterlimit="10" d="M1.086 14.006L2.278 14.006"/>
   <g>
    <path stroke-width="0.13" stroke-linejoin="round" stroke-miterlimit="10" d="M0.547 15.15L0.777 15.3"/>
    <path stroke-width="0.13" stroke-linejoin="round" stroke-miterlimit="10" d="M0.777 15.3L1.712 15.3"/>
    <path stroke-width="0.13" stroke-linejoin="round" stroke-miterlimit="10" d="M1.712 15.3L1.801 15.189"/>
    <path stroke-width="0.13" stroke-linejoin="round" stroke-miterlimit="10" d="M2.987 13.166L1.931 13.166"/>
    <path stroke-width="0.13" stroke-linejoin="round" stroke-miterlimit="10" d="M3.016 14.859L1.95 14.859"/>
    <path stroke-width="0.13" stroke-linejoin="round" stroke-miterlimit="10" d="M3.664 12.621L3.016 12.632"/>
    <path stroke-width="0.13" stroke-linejoin="round" stroke-miterlimit="10" d="M3.734 15.419L2.969 15.419"/>
   </g>
   <g>
    <path stroke-width="0.13" stroke-linejoin="round" stroke-miterlimit="10" d="M4.16 13.397L3.671 13.397"/>
    <path stroke-width="0.13" stroke-linejoin="round" stroke-miterlimit="10" d="M4.131 14.48L3.714 14.492"/>
    <path stroke-width="0.13" stroke-linejoin="round" stroke-miterlimit="10" d="M3.714 14.492L3.613 13.993"/>
    <path stroke-width="0.13" stroke-linejoin="round" stroke-miterlimit="10" d="M3.613 13.996L3.653 13.407"/>
    <path stroke-width="0.13" stroke-linejoin="round" stroke-miterlimit="10" d="M3.653 13.407L3.306 12.803"/>
    <path stroke-width="0.13" stroke-linejoin="round" stroke-miterlimit="10" d="M3.692 14.524L3.351 15.199"/>
    <path stroke-width="0.13" stroke-linejoin="round" stroke-miterlimit="10" d="M2.778 14.849L2.802 14.849L2.859 14.827L2.911 14.785L2.96 14.724L3.005 14.644L3.045 14.551L3.077 14.442L3.103 14.323L3.12 14.198L3.128 14.067L3.128 13.933L3.117 13.804L3.1 13.678L3.075 13.561L3.04 13.454L3 13.361L2.956 13.284L2.906 13.224L2.851 13.185L2.797 13.166L2.741 13.166L2.737 13.166"/>
    <path stroke-width="0.13" stroke-linejoin="round" stroke-miterlimit="10" d="M2.499 14.849L2.524 14.849L2.578 14.827L2.632 14.785L2.681 14.724L2.726 14.644L2.766 14.551L2.798 14.442L2.823 14.323L2.839 14.198L2.847 14.067L2.847 13.933L2.839 13.804L2.82 13.678L2.794 13.561L2.762 13.454L2.722 13.361L2.676 13.284L2.625 13.224L2.573 13.185L2.516 13.166L2.46 13.166L2.458 13.166"/>
    <path stroke-width="0.13" stroke-linejoin="round" stroke-miterlimit="10" d="M2.25 14.849L2.275 14.849L2.33 14.827L2.383 14.785L2.434 14.724L2.479 14.644L2.517 14.551L2.549 14.442L2.575 14.323L2.592 14.198L2.6 14.067L2.6 13.933L2.591 13.804L2.573 13.678L2.547 13.561L2.514 13.454L2.474 13.361L2.427 13.284L2.378 13.224L2.325 13.185L2.269 13.166L2.213 13.166L2.209 13.166"/>
    <path stroke-width="0.13" stroke-linejoin="round" stroke-miterlimit="10" d="M8.324 0.268L7.634 0.282"/>
   </g>
   <g>
    <path stroke-width="0.13" stroke-linejoin="round" stroke-miterlimit="10" d="M15.577 4.777L16.222 4.809"/>
    <path stroke-width="0.13" stroke-linejoin="round" stroke-miterlimit="10" d="M9.593 4.496L8.512 4.408"/>
    <path stroke-width="0.13" stroke-linejoin="round" stroke-miterlimit="10" d="M8.49 2.411L16.265 2.818"/>
   </g>
  </g>
 </g>
</svg>
