<?xml version="1.0" encoding="utf-8"?>
<!DOCTYPE svg PUBLIC "-//W3C//DTD SVG 1.1//EN" "http://www.w3.org/Graphics/SVG/1.1/DTD/svg11.dtd">
<!-- Generator: PTC Arbortext IsoDraw 7.3 -->
<svg id="Standard_x0020_layer" width="100%" height="100%" viewBox="0 0 8.986 19.422"
 xmlns="http://www.w3.org/2000/svg" xmlns:xlink="http://www.w3.org/1999/xlink"
 fill-rule="evenodd" clip-rule="evenodd" stroke="#000000" stroke-linecap="round" fill="none" xml:space="preserve">
 <g>
  <path stroke-width="0.13" stroke-linejoin="round" stroke-miterlimit="10" d="M2.512 17.565C2.593 17.208 2.495 16.771 2.246 16.393C1.919 15.896 1.401 15.605 0.968 15.681"/>
  <g>
   <path stroke-width="0.13" stroke-linejoin="round" stroke-miterlimit="10" d="M1.647 17.996L1.546 18.004L1.441 17.998L1.332 17.977L1.225 17.94L1.116 17.89L1.01 17.827L0.907 17.751L0.81 17.666L0.719 17.568L0.635 17.463L0.56 17.352L0.496 17.234L0.442 17.111L0.4 16.987L0.37 16.864L0.352 16.74L0.348 16.62L0.357 16.507L0.359 16.492"/>
   <path stroke-width="0.13" stroke-linejoin="round" stroke-miterlimit="10" d="M1.833 18.12C2.084 18.193 2.317 18.17 2.496 18.053C2.951 17.754 2.943 16.936 2.477 16.228C2.025 15.539 1.304 15.202 0.844 15.464"/>
   <path stroke-width="0.13" stroke-linejoin="round" stroke-miterlimit="10" d="M1.831 18.121L1.718 18.129L1.601 18.121L1.478 18.097L1.354 18.054L1.227 17.998L1.104 17.925L0.982 17.838L0.863 17.739L0.75 17.629"/>
  </g>
  <path stroke-width="0.13" stroke-linejoin="round" stroke-miterlimit="10" d="M2.605 11.788C2.609 11.763 2.612 11.737 2.612 11.711C2.612 11.487 2.43 11.305 2.205 11.305C2.101 11.305 2 11.346 1.925 11.419"/>
  <path stroke-width="0.13" stroke-linejoin="round" stroke-miterlimit="10" d="M1.925 11.419C1.905 11.467 1.894 11.519 1.894 11.57C1.894 11.785 2.068 11.96 2.282 11.96C2.411 11.96 2.532 11.896 2.605 11.788"/>
  <g>
   <path stroke-width="0.13" stroke-linejoin="round" stroke-miterlimit="10" d="M2.815 11.564C2.822 11.524 2.826 11.483 2.826 11.441C2.826 11.272 2.767 11.108 2.661 10.977"/>
   <path stroke-width="0.13" stroke-linejoin="round" stroke-miterlimit="10" d="M5.932 10.582L5.916 10.57L5.895 10.566L5.873 10.57L5.849 10.586L5.823 10.609L5.798 10.641L5.774 10.682L5.75 10.728L5.727 10.782L5.708 10.837L5.69 10.897L5.676 10.958L5.666 11.019L5.66 11.08L5.657 11.135L5.658 11.188L5.663 11.234L5.671 11.274L5.684 11.305L5.7 11.329L5.719 11.343L5.726 11.345"/>
  </g>
  <path stroke-width="0.13" stroke-linejoin="round" stroke-miterlimit="10" d="M5.726 11.343L5.738 11.346L5.762 11.34L5.786 11.326L5.812 11.301L5.836 11.269L5.862 11.23L5.884 11.182L5.907 11.13L5.926 11.073L5.944 11.013L5.958 10.952L5.969 10.891L5.974 10.832L5.977 10.775L5.977 10.723L5.971 10.676L5.963 10.637L5.95 10.605L5.935 10.583L5.932 10.58"/>
  <path stroke-width="0.13" stroke-linejoin="round" stroke-miterlimit="10" d="M5.743 10.506C5.666 10.518 5.575 10.681 5.527 10.887C5.474 11.114 5.495 11.313 5.573 11.33C5.586 11.335 5.601 11.332 5.615 11.323"/>
  <g>
   <path stroke-width="0.13" stroke-linejoin="round" stroke-miterlimit="10" d="M4.767 10.262C4.687 10.346 4.607 10.521 4.562 10.718C4.493 11.019 4.519 11.285 4.623 11.308C4.644 11.314 4.669 11.307 4.692 11.291"/>
   <path stroke-width="0.13" stroke-linejoin="round" stroke-miterlimit="10" d="M4.822 12.682L4.801 12.718L4.78 12.759L4.762 12.804L4.745 12.85L4.73 12.9L4.716 12.952L4.705 13.003L4.695 13.055L4.689 13.106L4.685 13.156L4.684 13.202L4.686 13.246L4.689 13.285L4.697 13.32L4.705 13.349L4.718 13.374L4.732 13.391L4.746 13.403"/>
   <path stroke-width="0.13" stroke-linejoin="round" stroke-miterlimit="10" d="M5.753 10.507L5.913 10.561"/>
   <path stroke-width="0.13" stroke-linejoin="round" stroke-miterlimit="10" d="M5.7 11.346L5.586 11.336"/>
  </g>
  <path stroke-width="0.13" stroke-linejoin="round" stroke-miterlimit="10" d="M6.711 10.573L6.687 10.579L6.663 10.593L6.639 10.618L6.613 10.65L6.589 10.691L6.564 10.737L6.543 10.789L6.524 10.846L6.506 10.907L6.493 10.968L6.482 11.028L6.474 11.087L6.472 11.144L6.474 11.196L6.479 11.243L6.487 11.282L6.5 11.314L6.514 11.336L6.528 11.346"/>
  <g>
   <path stroke-width="0.13" stroke-linejoin="round" stroke-miterlimit="10" d="M6.528 11.348L6.535 11.352L6.557 11.356L6.58 11.352L6.604 11.336L6.628 11.314L6.655 11.281L6.679 11.24L6.703 11.194L6.724 11.141L6.745 11.085L6.762 11.025L6.775 10.964L6.785 10.903L6.793 10.843L6.796 10.787L6.794 10.734L6.79 10.688L6.78 10.649L6.769 10.617L6.753 10.593L6.734 10.58L6.711 10.576"/>
   <path stroke-width="0.13" stroke-linejoin="round" stroke-miterlimit="10" d="M6.561 10.518L6.535 10.526L6.508 10.547L6.48 10.577L6.451 10.617L6.426 10.666L6.418 10.681"/>
   <path stroke-width="0.13" stroke-linejoin="round" stroke-miterlimit="10" d="M6.315 11.148L6.315 11.172L6.32 11.224L6.331 11.266L6.344 11.301L6.362 11.326L6.384 11.339L6.408 11.343L6.434 11.336"/>
  </g>
  <path stroke-width="0.13" stroke-linejoin="round" stroke-miterlimit="10" d="M6.416 10.679L6.397 10.721L6.375 10.782L6.355 10.846L6.338 10.914L6.325 10.983L6.317 11.048L6.314 11.112L6.314 11.147"/>
  <g>
   <path stroke-width="0.13" stroke-linejoin="round" stroke-miterlimit="10" d="M6.57 10.518L6.73 10.571"/>
   <path stroke-width="0.13" stroke-linejoin="round" stroke-miterlimit="10" d="M6.517 11.355L6.402 11.346"/>
  </g>
  <path stroke-width="0.13" stroke-linejoin="round" stroke-miterlimit="10" d="M6.052 11.487L6.03 11.493L6.006 11.507L5.982 11.532L5.956 11.564L5.932 11.603L5.908 11.65L5.886 11.704L5.867 11.76L5.849 11.82L5.836 11.881L5.825 11.942L5.817 12.002L5.814 12.057L5.815 12.111L5.82 12.157L5.83 12.195L5.843 12.227L5.857 12.25L5.857 12.25"/>
  <path stroke-width="0.13" stroke-linejoin="round" stroke-miterlimit="10" d="M5.859 12.252L5.876 12.266L5.897 12.269L5.919 12.265L5.945 12.25L5.969 12.226L5.995 12.194L6.019 12.153L6.043 12.106L6.065 12.054L6.084 11.996L6.102 11.938L6.115 11.875L6.126 11.814L6.133 11.756L6.136 11.698L6.134 11.647L6.129 11.6L6.121 11.561L6.108 11.529L6.092 11.506L6.075 11.493L6.054 11.489L6.051 11.489"/>
  <path stroke-width="0.13" stroke-linejoin="round" stroke-miterlimit="10" d="M5.903 11.429C5.825 11.441 5.734 11.602 5.686 11.81C5.634 12.037 5.653 12.236 5.732 12.253C5.745 12.256 5.759 12.255 5.775 12.246"/>
  <g>
   <path stroke-width="0.13" stroke-linejoin="round" stroke-miterlimit="10" d="M5.913 11.429L6.072 11.483"/>
   <path stroke-width="0.13" stroke-linejoin="round" stroke-miterlimit="10" d="M5.86 12.266L5.746 12.256"/>
  </g>
  <path stroke-width="0.13" stroke-linejoin="round" stroke-miterlimit="10" d="M5.916 12.845C5.844 12.846 5.751 13.003 5.705 13.205C5.658 13.409 5.673 13.59 5.74 13.621"/>
  <path stroke-width="0.13" stroke-linejoin="round" stroke-miterlimit="10" d="M5.74 13.621L5.748 13.625C5.822 13.641 5.921 13.48 5.971 13.266C6.022 13.051 6.001 12.862 5.929 12.846L5.916 12.845"/>
  <path stroke-width="0.13" stroke-linejoin="round" stroke-miterlimit="10" d="M5.764 12.788C5.687 12.798 5.596 12.961 5.548 13.166C5.496 13.394 5.516 13.593 5.594 13.612C5.607 13.615 5.621 13.612 5.637 13.603"/>
  <g>
   <path stroke-width="0.13" stroke-linejoin="round" stroke-miterlimit="10" d="M5.775 12.788L5.935 12.842"/>
   <path stroke-width="0.13" stroke-linejoin="round" stroke-miterlimit="10" d="M5.721 13.625L5.605 13.615"/>
   <path stroke-width="0.13" stroke-linejoin="round" stroke-miterlimit="10" d="M2.201 10.199C2.087 10.173 1.931 10.422 1.855 10.756C1.778 11.089 1.808 11.381 1.922 11.407L1.936 11.409"/>
  </g>
  <path stroke-width="0.13" stroke-linejoin="round" stroke-miterlimit="10" d="M4.448 11.144L4.429 11.18L4.411 11.221L4.395 11.263L4.381 11.31L4.368 11.356L4.357 11.404L4.349 11.452L4.343 11.5L4.339 11.545L4.338 11.589L4.339 11.628L4.344 11.664L4.351 11.695L4.36 11.723L4.371 11.743L4.384 11.759L4.4 11.766L4.416 11.769"/>
  <path stroke-width="0.13" stroke-linejoin="round" stroke-miterlimit="10" d="M4.177 11.571L4.176 11.608L4.177 11.693L4.185 11.769L4.198 11.836L4.217 11.891L4.242 11.932L4.27 11.961L4.302 11.974L4.339 11.974L4.378 11.958L4.416 11.929"/>
  <path stroke-width="0.13" stroke-linejoin="round" stroke-miterlimit="10" d="M4.397 10.782L4.357 10.855L4.32 10.936L4.285 11.025L4.254 11.121L4.229 11.218L4.206 11.32L4.19 11.419L4.181 11.516L4.177 11.571"/>
  <g>
   <path stroke-width="0.13" stroke-linejoin="round" stroke-miterlimit="10" d="M4.397 10.782L4.565 10.686"/>
   <path stroke-width="0.13" stroke-linejoin="round" stroke-miterlimit="10" d="M4.767 10.262L5.753 10.505"/>
   <path stroke-width="0.13" stroke-linejoin="round" stroke-miterlimit="10" d="M6.315 11.282L5.913 11.195"/>
   <path stroke-width="0.13" stroke-linejoin="round" stroke-miterlimit="10" d="M6.411 10.582L5.849 10.528"/>
  </g>
  <g>
   <path stroke-width="0.13" stroke-linejoin="round" stroke-miterlimit="10" d="M5.583 11.768L5.583 12.945"/>
   <path stroke-width="0.13" stroke-linejoin="round" stroke-miterlimit="10" d="M5.583 12.948L4.819 12.682"/>
  </g>
  <g>
   <path stroke-width="0.13" stroke-linejoin="round" stroke-miterlimit="10" d="M4.822 12.682L4.799 11.378"/>
   <path stroke-width="0.13" stroke-linejoin="round" stroke-miterlimit="10" d="M4.799 11.378L4.661 11.308"/>
   <path stroke-width="0.13" stroke-linejoin="round" stroke-miterlimit="10" d="M4.418 11.768L4.812 11.853"/>
   <path stroke-width="0.13" stroke-linejoin="round" stroke-miterlimit="10" d="M4.185 11.685L3.993 11.631"/>
  </g>
  <g>
   <path stroke-width="0.13" stroke-linejoin="round" stroke-miterlimit="10" d="M1.925 11.41L2.402 10.92"/>
   <path stroke-width="0.13" stroke-linejoin="round" stroke-miterlimit="10" d="M2.402 10.92L2.581 10.899"/>
  </g>
  <g>
   <path stroke-width="0.13" stroke-linejoin="round" stroke-miterlimit="10" d="M2.2 10.201L3.112 10.423"/>
   <path stroke-width="0.13" stroke-linejoin="round" stroke-miterlimit="10" d="M3.133 10.952L3.133 8.439"/>
   <path stroke-width="0.13" stroke-linejoin="round" stroke-miterlimit="10" d="M3.812 11.006L3.812 8.451"/>
   <path stroke-width="0.13" stroke-linejoin="round" stroke-miterlimit="10" d="M2.836 10.337L3.124 9.999"/>
   <path stroke-width="0.13" stroke-linejoin="round" stroke-miterlimit="10" d="M4.746 13.401L5.565 13.596"/>
   <path stroke-width="0.13" stroke-linejoin="round" stroke-miterlimit="10" d="M3.144 12.372L3.144 13.475"/>
   <path stroke-width="0.13" stroke-linejoin="round" stroke-miterlimit="10" d="M3.812 12.352L3.812 13.465"/>
   <path stroke-width="0.13" stroke-linejoin="round" stroke-miterlimit="10" d="M3.113 12.702L0.399 14.272"/>
   <path stroke-width="0.13" stroke-linejoin="round" stroke-miterlimit="10" d="M0.397 14.272L0.186 14.505"/>
  </g>
  <g>
   <path stroke-width="0.13" stroke-linejoin="round" stroke-miterlimit="10" d="M0.429 14.284L3.419 15.355"/>
   <path stroke-width="0.13" stroke-linejoin="round" stroke-miterlimit="10" d="M3.504 15.259L6.23 13.497"/>
  </g>
  <g>
   <path stroke-width="0.13" stroke-linejoin="round" stroke-miterlimit="10" d="M5.977 13.35L6.357 13.436"/>
   <path stroke-width="0.13" stroke-linejoin="round" stroke-miterlimit="10" d="M6.36 13.433L6.593 13.667"/>
  </g>
  <g>
   <path stroke-width="0.13" stroke-linejoin="round" stroke-miterlimit="10" d="M6.421 13.583L4.416 14.91"/>
   <path stroke-width="0.13" stroke-linejoin="round" stroke-miterlimit="10" d="M3.898 15.237L3.601 15.429"/>
  </g>
  <path stroke-width="0.13" stroke-linejoin="round" stroke-miterlimit="10" d="M3.843 12.669L4.692 12.903"/>
  <path stroke-width="0.13" stroke-linejoin="round" stroke-miterlimit="10" d="M8.182 6.418L8.163 6.424L8.14 6.439L8.114 6.461L8.089 6.495L8.064 6.535L8.041 6.581L8.019 6.634L7.998 6.69L7.982 6.751L7.968 6.812L7.958 6.873L7.95 6.932L7.948 6.988L7.948 7.041L7.953 7.088L7.963 7.126L7.974 7.158L7.99 7.182L8.009 7.195L8.026 7.198"/>
  <g>
   <path stroke-width="0.13" stroke-linejoin="round" stroke-miterlimit="10" d="M8.025 7.198L8.031 7.198L8.054 7.193L8.077 7.179L8.102 7.155L8.128 7.123L8.153 7.083L8.176 7.035L8.198 6.982L8.217 6.926L8.234 6.867L8.249 6.806L8.259 6.745L8.266 6.685L8.269 6.628L8.268 6.577L8.262 6.53L8.255 6.49L8.242 6.458L8.227 6.435L8.208 6.421L8.186 6.418L8.182 6.418"/>
   <path stroke-width="0.13" stroke-linejoin="round" stroke-miterlimit="10" d="M7.791 6.889L7.791 6.894L7.788 6.956L7.788 7.014L7.794 7.067L7.804 7.11L7.817 7.144L7.835 7.169L7.855 7.184L7.881 7.185"/>
  </g>
  <path stroke-width="0.13" stroke-linejoin="round" stroke-miterlimit="10" d="M7.881 7.185L7.908 7.179"/>
  <path stroke-width="0.13" stroke-linejoin="round" stroke-miterlimit="10" d="M8.032 6.36L8.006 6.37L7.98 6.389L7.952 6.419L7.926 6.455"/>
  <path stroke-width="0.13" stroke-linejoin="round" stroke-miterlimit="10" d="M7.929 6.453L7.926 6.459L7.899 6.508L7.873 6.564L7.851 6.625L7.83 6.69L7.814 6.758L7.801 6.825L7.794 6.887"/>
  <g>
   <path stroke-width="0.13" stroke-linejoin="round" stroke-miterlimit="10" d="M8.044 6.36L8.205 6.415"/>
   <path stroke-width="0.13" stroke-linejoin="round" stroke-miterlimit="10" d="M7.99 7.198L7.876 7.189"/>
   <path stroke-width="0.13" stroke-linejoin="round" stroke-miterlimit="10" d="M3.133 8.439L3.133 0.198"/>
   <path stroke-width="0.13" stroke-linejoin="round" stroke-miterlimit="10" d="M3.812 8.448L3.812 0.174"/>
   <path stroke-width="0.13" stroke-linejoin="round" stroke-miterlimit="10" d="M3.898 9.237L5.966 7.017"/>
   <path stroke-width="0.13" stroke-linejoin="round" stroke-miterlimit="10" d="M5.964 7.009L5.979 6.687"/>
  </g>
  <g>
   <path stroke-width="0.13" stroke-linejoin="round" stroke-miterlimit="10" d="M5.979 6.687L6.009 6.07"/>
   <path stroke-width="0.13" stroke-linejoin="round" stroke-miterlimit="10" d="M5.964 7.017L5.964 7.009z"/>
  </g>
  <g>
   <path stroke-width="0.13" stroke-linejoin="round" stroke-miterlimit="10" d="M3.875 10.316L6.384 7.434"/>
   <path stroke-width="0.13" stroke-linejoin="round" stroke-miterlimit="10" d="M6.58 6.839L7.108 6.905"/>
   <path stroke-width="0.13" stroke-linejoin="round" stroke-miterlimit="10" d="M7.575 7.11L7.546 7.121L7.519 7.118L7.504 7.108"/>
  </g>
  <path stroke-width="0.13" stroke-linejoin="round" stroke-miterlimit="10" d="M7.504 7.11L7.495 7.102L7.474 7.073L7.459 7.032L7.45 6.98L7.447 6.918L7.448 6.849L7.456 6.775L7.468 6.698L7.485 6.621L7.508 6.546L7.533 6.476L7.562 6.413L7.594 6.359L7.625 6.315L7.657 6.283L7.687 6.266L7.716 6.261L7.74 6.27L7.762 6.293L7.78 6.33"/>
  <path stroke-width="0.13" stroke-linejoin="round" stroke-miterlimit="10" d="M7.403 6.213L7.381 6.213L7.357 6.222L7.331 6.24L7.304 6.269L7.278 6.304L7.253 6.347L7.229 6.397L7.206 6.451L7.185 6.511L7.168 6.573L7.152 6.636L7.142 6.7L7.134 6.762L7.129 6.822L7.129 6.876L7.133 6.927L7.141 6.971L7.152 7.009L7.166 7.038"/>
  <path stroke-width="0.13" stroke-linejoin="round" stroke-miterlimit="10" d="M6.778 7.237L6.724 7.296L6.674 7.326L6.628 7.328L6.589 7.299L6.559 7.243L6.54 7.161L6.533 7.059L6.538 6.942L6.556 6.817"/>
  <path stroke-width="0.13" stroke-linejoin="round" stroke-miterlimit="10" d="M6.827 7.296L6.694 7.482L6.564 7.57L6.453 7.549L6.373 7.424"/>
  <path stroke-width="0.13" stroke-linejoin="round" stroke-miterlimit="10" d="M6.009 6.07L6.057 5.94L6.113 5.828L6.174 5.74L6.232 5.677L6.29 5.645"/>
  <path stroke-width="0.13" stroke-linejoin="round" stroke-miterlimit="10" d="M5.698 5.548C5.613 5.53 5.5 5.713 5.443 5.958C5.387 6.203 5.408 6.418 5.493 6.437L5.503 6.439"/>
  <path stroke-width="0.13" stroke-linejoin="round" stroke-miterlimit="10" d="M6.695 6.2L6.689 6.2C6.629 6.185 6.549 6.315 6.509 6.488C6.471 6.657 6.484 6.806 6.54 6.827"/>
  <path stroke-width="0.13" stroke-linejoin="round" stroke-miterlimit="10" d="M6.719 5.673L6.762 5.661L6.835 5.705L6.886 5.809L6.913 5.966L6.916 6.163"/>
  <path stroke-width="0.13" stroke-linejoin="round" stroke-miterlimit="10" d="M6.407 6.089L6.492 5.905L6.585 5.766L6.677 5.682L6.719 5.671"/>
  <g>
   <path stroke-width="0.13" stroke-linejoin="round" stroke-miterlimit="10" d="M7.403 6.213L7.74 6.272"/>
   <path stroke-width="0.13" stroke-linejoin="round" stroke-miterlimit="10" d="M7.735 6.328L7.979 6.384"/>
   <path stroke-width="0.13" stroke-linejoin="round" stroke-miterlimit="10" d="M7.814 7.126L7.532 7.065"/>
   <path stroke-width="0.13" stroke-linejoin="round" stroke-miterlimit="10" d="M6.827 7.296L6.892 6.881"/>
   <path stroke-width="0.13" stroke-linejoin="round" stroke-miterlimit="10" d="M6.291 5.647L6.764 5.66"/>
   <path stroke-width="0.13" stroke-linejoin="round" stroke-miterlimit="10" d="M5.698 5.546L6.242 5.613"/>
   <path stroke-width="0.13" stroke-linejoin="round" stroke-miterlimit="10" d="M6.242 5.613L6.334 5.658"/>
   <path stroke-width="0.13" stroke-linejoin="round" stroke-miterlimit="10" d="M5.48 6.434L5.349 7.674"/>
  </g>
  <g>
   <path stroke-width="0.13" stroke-linejoin="round" stroke-miterlimit="10" d="M5.504 6.439L5.737 6.466"/>
   <path stroke-width="0.13" stroke-linejoin="round" stroke-miterlimit="10" d="M5.735 6.466L5.735 7.243"/>
  </g>
  <path stroke-width="0.13" stroke-linejoin="round" stroke-miterlimit="10" d="M7.166 7.035L7.519 7.117"/>
  <path stroke-width="0.13" stroke-linejoin="round" stroke-miterlimit="10" d="M7.73 6.355L7.71 6.36L7.687 6.373L7.665 6.394L7.642 6.424L7.618 6.461L7.597 6.503L7.577 6.551L7.559 6.602L7.544 6.658L7.53 6.714L7.52 6.769L7.514 6.823L7.512 6.876L7.512 6.924L7.517 6.966L7.525 7.001L7.536 7.032L7.551 7.052L7.567 7.065L7.586 7.07"/>
  <path stroke-width="0.13" stroke-linejoin="round" stroke-miterlimit="10" d="M7.302 6.256L6.794 6.163"/>
  <path stroke-width="0.13" stroke-linejoin="round" stroke-miterlimit="10" d="M6.794 6.16L6.661 6.206"/>
  <path stroke-width="0.13" stroke-linejoin="round" stroke-miterlimit="10" d="M3.817 0.184L3.815 0.178L3.799 0.156L3.775 0.136L3.746 0.117L3.708 0.101L3.665 0.088L3.617 0.077L3.568 0.069L3.515 0.065L3.462 0.065L3.408 0.068L3.357 0.075L3.309 0.085L3.265 0.098L3.226 0.113L3.193 0.131L3.173 0.146"/>
  <g>
   <path stroke-width="0.13" stroke-linejoin="round" stroke-miterlimit="10" d="M3.176 0.147L3.169 0.151L3.152 0.173L3.142 0.195L3.141 0.218L3.149 0.24L3.165 0.262L3.188 0.282L3.218 0.301L3.256 0.317L3.298 0.331L3.346 0.341L3.395 0.349L3.448 0.353L3.503 0.353L3.556 0.35L3.607 0.344L3.655 0.334L3.698 0.321L3.738 0.305L3.77 0.287L3.794 0.267L3.812 0.246L3.822 0.223L3.823 0.201L3.818 0.184"/>
   <path stroke-width="0.13" stroke-linejoin="round" stroke-miterlimit="10" d="M3.42 15.355L3.42 19.286"/>
  </g>
  <path stroke-width="0.13" stroke-linejoin="round" stroke-miterlimit="10" d="M3.42 19.283L3.145 19.053"/>
  <g>
   <path stroke-width="0.13" stroke-linejoin="round" stroke-miterlimit="10" d="M3.145 19.053L3.145 15.537"/>
   <path stroke-width="0.13" stroke-linejoin="round" stroke-miterlimit="10" d="M3.145 15.537L0.267 14.496"/>
  </g>
  <g>
   <path stroke-width="0.13" stroke-linejoin="round" stroke-miterlimit="10" d="M0.186 14.505L0.186 15.682"/>
   <path stroke-width="0.13" stroke-linejoin="round" stroke-miterlimit="10" d="M0.166 16.217L0.166 17.867"/>
   <path stroke-width="0.13" stroke-linejoin="round" stroke-miterlimit="10" d="M0.166 17.867L2.972 19.053"/>
   <path stroke-width="0.13" stroke-linejoin="round" stroke-miterlimit="10" d="M2.972 19.053L3.145 19.053"/>
   <path stroke-width="0.13" stroke-linejoin="round" stroke-miterlimit="10" d="M3.42 19.283L3.625 19.355"/>
  </g>
  <path stroke-width="0.13" stroke-linejoin="round" stroke-miterlimit="10" d="M3.623 19.358L3.623 15.509"/>
  <g>
   <path stroke-width="0.13" stroke-linejoin="round" stroke-miterlimit="10" d="M3.623 19.358L6.618 17.202"/>
   <path stroke-width="0.13" stroke-linejoin="round" stroke-miterlimit="10" d="M6.618 17.201L6.593 13.667"/>
  </g>
  <g>
   <path stroke-width="0.13" stroke-linejoin="round" stroke-miterlimit="10" d="M2.435 17.55L0.802 15.509"/>
   <path stroke-width="0.13" stroke-linejoin="round" stroke-miterlimit="10" d="M1.628 17.765L0.21 16.001"/>
  </g>
  <g>
   <path stroke-width="0.13" stroke-linejoin="round" stroke-miterlimit="10" d="M1.515 17.937L0.065 16.073"/>
   <path stroke-width="0.13" stroke-linejoin="round" stroke-miterlimit="10" d="M0.803 15.509C0.471 15.545 0.187 15.762 0.065 16.073"/>
   <path stroke-width="0.13" stroke-linejoin="round" stroke-miterlimit="10" d="M1.496 17.91C1.573 17.923 1.649 17.928 1.728 17.928C1.995 17.928 2.256 17.852 2.48 17.707"/>
  </g>
  <g>
   <path stroke-width="0.13" stroke-linejoin="round" stroke-miterlimit="10" d="M1.627 17.765C1.702 17.783 1.781 17.792 1.859 17.792C2.06 17.792 2.256 17.733 2.423 17.62"/>
   <path stroke-width="0.13" stroke-linejoin="round" stroke-miterlimit="10" d="M3.144 13.475L3.149 13.497L3.162 13.519L3.184 13.539L3.213 13.558L3.249 13.576L3.29 13.589L3.335 13.6L3.386 13.609L3.438 13.612L3.491 13.614L3.543 13.612L3.593 13.605L3.641 13.596L3.686 13.583L3.725 13.567L3.758 13.551L3.782 13.531L3.801 13.509L3.811 13.487L3.812 13.465"/>
   <path stroke-width="0.13" stroke-linejoin="round" stroke-miterlimit="10" d="M2.883 13.801C2.913 13.926 3.158 14.019 3.451 14.019C3.733 14.019 3.971 13.933 4.016 13.817"/>
   <path stroke-width="0.13" stroke-linejoin="round" stroke-miterlimit="10" d="M2.871 13.948L2.902 13.98L2.943 14.012L2.992 14.041L3.052 14.067L3.12 14.089L3.193 14.108L3.273 14.122L3.355 14.131L3.439 14.135L3.525 14.135L3.609 14.131L3.693 14.121L3.77 14.105L3.843 14.086L3.91 14.064L3.968 14.038L4.017 14.009L4.057 13.977"/>
  </g>
  <g>
   <path stroke-width="0.13" stroke-linejoin="round" stroke-miterlimit="10" d="M3.117 13.382L2.886 13.412"/>
   <path stroke-width="0.13" stroke-linejoin="round" stroke-miterlimit="10" d="M2.886 13.412L2.871 13.948"/>
   <path stroke-width="0.13" stroke-linejoin="round" stroke-miterlimit="10" d="M4.057 13.974L4.014 13.512"/>
   <path stroke-width="0.13" stroke-linejoin="round" stroke-miterlimit="10" d="M4.014 13.512L3.883 13.442"/>
  </g>
  <g>
   <path stroke-width="0.13" stroke-linejoin="round" stroke-miterlimit="10" d="M3.666 14.019L3.608 13.728"/>
   <path stroke-width="0.13" stroke-linejoin="round" stroke-miterlimit="10" d="M3.608 13.728L3.797 13.568"/>
   <path stroke-width="0.13" stroke-linejoin="round" stroke-miterlimit="10" d="M3.797 13.571L3.987 13.512"/>
   <path stroke-width="0.13" stroke-linejoin="round" stroke-miterlimit="10" d="M3.608 13.728L3.188 13.583"/>
   <path stroke-width="0.13" stroke-linejoin="round" stroke-miterlimit="10" d="M3.189 13.583L3 13.628"/>
   <path stroke-width="0.13" stroke-linejoin="round" stroke-miterlimit="10" d="M3 13.628L2.972 13.874"/>
   <path stroke-width="0.13" stroke-linejoin="round" stroke-miterlimit="10" d="M2.987 13.672L2.886 13.442"/>
  </g>
  <g>
   <path stroke-width="0.13" stroke-linejoin="round" stroke-miterlimit="10" d="M2.91 12.308L2.926 12.32L2.985 12.355L3.059 12.382L3.142 12.404L3.234 12.42L3.33 12.429L3.43 12.432L3.528 12.426L3.621 12.413L3.71 12.394L3.788 12.368L3.855 12.337L3.907 12.301L3.944 12.263L3.966 12.223L3.969 12.18L3.958 12.138"/>
   <path stroke-width="0.13" stroke-linejoin="round" stroke-miterlimit="10" d="M3.075 10.952L3.008 10.984L2.956 11.022L2.923 11.064L2.906 11.105L2.908 11.15L2.914 11.159"/>
   <path stroke-width="0.13" stroke-linejoin="round" stroke-miterlimit="10" d="M4.014 11.159L4.019 11.144L4.019 11.101L4.001 11.058L3.966 11.018L3.911 10.981"/>
  </g>
  <g>
   <path stroke-width="0.13" stroke-linejoin="round" stroke-miterlimit="10" d="M2.913 11.159L2.929 11.192L2.968 11.233L3.024 11.269L3.093 11.3L3.177 11.326L3.269 11.345L3.367 11.355L3.469 11.359L3.572 11.355L3.669 11.343L3.761 11.323L3.843 11.297L3.911 11.265L3.964 11.227L4.001 11.188L4.014 11.16"/>
   <path stroke-width="0.13" stroke-linejoin="round" stroke-miterlimit="10" d="M3.133 10.952L3.137 10.974L3.146 10.996L3.164 11.016L3.188 11.035L3.217 11.053L3.254 11.069L3.294 11.082L3.339 11.092L3.387 11.101L3.439 11.105L3.49 11.108L3.541 11.106L3.592 11.102L3.641 11.095L3.686 11.085L3.727 11.071L3.765 11.057L3.797 11.038"/>
  </g>
  <g>
   <path stroke-width="0.13" stroke-linejoin="round" stroke-miterlimit="10" d="M3.968 12.18L4.02 11.147"/>
   <path stroke-width="0.13" stroke-linejoin="round" stroke-miterlimit="10" d="M3.883 10.605L4.448 10.736"/>
   <path stroke-width="0.13" stroke-linejoin="round" stroke-miterlimit="10" d="M5.878 11.432L5.905 11.202"/>
   <path stroke-width="0.13" stroke-linejoin="round" stroke-miterlimit="10" d="M5.74 12.274L5.758 12.788"/>
   <path stroke-width="0.13" stroke-linejoin="round" stroke-miterlimit="10" d="M4.418 11.928L4.549 11.817"/>
   <path stroke-width="0.13" stroke-linejoin="round" stroke-miterlimit="10" d="M2.924 11.119L2.907 12.31"/>
   <path stroke-width="0.13" stroke-linejoin="round" stroke-miterlimit="10" d="M2.815 11.564L2.576 11.862"/>
   <path stroke-width="0.13" stroke-linejoin="round" stroke-miterlimit="10" d="M2.823 11.615L2.935 11.632"/>
   <path stroke-width="0.13" stroke-linejoin="round" stroke-miterlimit="10" d="M3.42 19.283L0.434 18.042"/>
  </g>
  <path stroke-width="0.13" stroke-linejoin="round" stroke-miterlimit="10" d="M0.434 18.042L0.402 17.879"/>
  <text transform="matrix(0 -1 1 0 8.279 19.143)" stroke="none" fill="#000000" font-family="'Helvetica'" font-size="1.058">142 712</text>
 </g>
</svg>
