<?xml version="1.0" encoding="utf-8"?>
<!DOCTYPE svg PUBLIC "-//W3C//DTD SVG 1.1//EN" "http://www.w3.org/Graphics/SVG/1.1/DTD/svg11.dtd">
<!-- Generator: PTC Arbortext IsoDraw 7.3 -->
<svg id="Standard_x0020_layer" width="100%" height="100%" viewBox="0 0 75 38.002"
 xmlns="http://www.w3.org/2000/svg" xmlns:xlink="http://www.w3.org/1999/xlink"
 fill-rule="evenodd" clip-rule="evenodd" stroke="#000000" stroke-linecap="round" fill="none" xml:space="preserve">
 <path stroke="none" fill="#FFFFFF" d="M75 38.002L0 38.002 0 0 75 0 75 38.002z"/>
 <path stroke-width="0.25" stroke-linecap="butt" d="M19.673 33.203C18.446 33.203 18.378 34.362 18.378 34.976C18.378 35.591 17.628 36.75 16.33 36.75C15.035 36.75 7.939 36.75 5.551 36.75C3.162 36.75 2.344 34.634 2.344 33.612C2.344 32.588 2.344 22.149 2.344 22.149C2.344 19.829 4.118 18.67 5.62 18.67C7.12 18.67 13.397 18.67 14.08 18.67C14.762 18.67 15.24 18.26 15.24 17.579C15.24 17.207 15.24 15.618 15.24 14.173"/>
 <path stroke-width="0.131" stroke-linecap="butt" d="M15.24 18.056C15.24 18.056 15.24 32.86 15.24 33.338C15.24 33.817 15.035 34.362 14.42 34.362C13.807 34.362 6.166 34.362 5.756 34.362C5.346 34.362 4.937 34.158 4.937 33.475C4.937 32.792 4.937 22.832 4.937 22.149C4.937 21.466 5.278 21.33 5.687 21.33C6.097 21.33 14.147 21.33 14.557 21.33C14.967 21.33 15.234 21.807 15.234 22.149"/>
 <polyline stroke-width="0.131" stroke-linecap="butt" points="15.195 22.559 7.698 22.559 7.698 32.908 15.135 32.908"/>
 <polyline stroke-width="0.131" stroke-linecap="butt" points="7.61 23.236 6.934 23.236 6.934 32.203 7.58 32.203"/>
 <line stroke-width="0.131" stroke-linecap="butt" x1="6.875" y1="26.969" x2="4.964" y2="26.969"/>
 <line stroke-width="0.131" stroke-linecap="butt" x1="6.815" y1="28.615" x2="5.022" y2="28.615"/>
 <line stroke-width="0.131" stroke-linecap="butt" x1="12.255" y1="22.618" x2="12.255" y2="32.82"/>
 <polyline stroke-width="0.131" stroke-linecap="butt" points="12.226 27.117 10.785 27.117 10.785 28.352 12.137 28.352"/>
 <line stroke-width="0.131" stroke-linecap="butt" x1="12.343" y1="23.647" x2="15.195" y2="23.647"/>
 <path stroke-width="0.131" stroke-linecap="butt" d="M12.372 26.44C12.372 26.44 14.166 26.44 14.519 26.44C14.871 26.44 15.253 26.794 15.253 27.704C15.253 28.615 14.842 29.056 14.519 29.056C14.195 29.056 12.314 29.056 12.314 29.056"/>
 <path stroke-width="0.25" stroke-linecap="butt" d="M15.224 14.151C15.224 14.151 14.077 13.74 14.077 13.387C14.077 13.035 13.827 11.638 14.077 11.388C14.327 11.138 14.842 10.066 16.077 10.066"/>
 <line stroke-width="0.131" stroke-linecap="butt" x1="18.074" y1="12.121" x2="18.074" y2="17.746"/>
 <line stroke-width="0.131" stroke-linecap="butt" x1="18.134" y1="12.839" x2="29.535" y2="12.839"/>
 <line stroke-width="0.131" stroke-linecap="butt" x1="18.134" y1="13.916" x2="29.535" y2="13.916"/>
 <line stroke-width="0.131" stroke-linecap="butt" x1="29.535" y1="12.15" x2="29.535" y2="18.196"/>
 <line stroke-width="0.131" stroke-linecap="butt" x1="19.87" y1="12.929" x2="19.87" y2="13.856"/>
 <line stroke-width="0.131" stroke-linecap="butt" x1="21.216" y1="12.929" x2="21.216" y2="13.856"/>
 <line stroke-width="0.131" stroke-linecap="butt" x1="23.161" y1="12.929" x2="23.161" y2="13.856"/>
 <line stroke-width="0.131" stroke-linecap="butt" x1="24.507" y1="12.929" x2="24.507" y2="13.856"/>
 <line stroke-width="0.131" stroke-linecap="butt" x1="26.452" y1="12.929" x2="26.452" y2="13.856"/>
 <line stroke-width="0.131" stroke-linecap="butt" x1="27.8" y1="12.929" x2="27.8" y2="13.856"/>
 <line stroke-width="0.131" stroke-linecap="butt" x1="18.164" y1="15.083" x2="29.446" y2="15.083"/>
 <line stroke-width="0.131" stroke-linecap="butt" x1="18.134" y1="16.728" x2="29.535" y2="16.728"/>
 <line stroke-width="0.131" stroke-linecap="butt" x1="31.873" y1="12.121" x2="31.873" y2="17.746"/>
 <line stroke-width="0.131" stroke-linecap="butt" x1="31.934" y1="12.839" x2="37.588" y2="12.839"/>
 <line stroke-width="0.131" stroke-linecap="butt" x1="31.934" y1="13.916" x2="37.588" y2="13.916"/>
 <line stroke-width="0.131" stroke-linecap="butt" x1="33.67" y1="12.929" x2="33.67" y2="13.856"/>
 <line stroke-width="0.131" stroke-linecap="butt" x1="35.015" y1="12.929" x2="35.015" y2="13.856"/>
 <line stroke-width="0.131" stroke-linecap="butt" x1="36.962" y1="12.929" x2="36.962" y2="13.856"/>
 <line stroke-width="0.131" stroke-linecap="butt" x1="31.963" y1="15.083" x2="37.698" y2="15.083"/>
 <line stroke-width="0.131" stroke-linecap="butt" x1="31.934" y1="16.728" x2="37.588" y2="16.728"/>
 <path stroke-width="0.131" stroke-linecap="butt" d="M15.348 20.993C16.236 19.169 17.725 17.689 19.556 16.811"/>
 <path stroke-width="0.131" stroke-linecap="butt" d="M27.376 16.835C28.184 17.228 28.925 17.739 29.574 18.347C29.574 18.347 30.056 18.797 30.541 18.797C31.025 18.797 31.461 18.306 31.461 18.306C32.115 17.704 32.857 17.199 33.667 16.811"/>
 <path stroke-width="0.131" stroke-linecap="butt" d="M27.493 29.4C27.493 30.118 26.911 30.701 26.193 30.701C20.669 30.701 20.669 30.701 20.669 30.701C19.951 30.701 19.368 30.118 19.368 29.4C19.368 20.466 19.368 20.466 19.368 20.466C19.368 19.748 19.951 19.166 20.669 19.166C26.193 19.166 26.193 19.166 26.193 19.166C26.911 19.166 27.493 19.748 27.493 20.466C27.493 29.4 27.493 29.4 27.493 29.4z"/>
 <line stroke-width="0.131" stroke-linecap="butt" x1="18.615" y1="23.417" x2="19.326" y2="22.272"/>
 <line stroke-width="0.131" stroke-linecap="butt" x1="18.432" y1="22.158" x2="19.349" y2="22.158"/>
 <line stroke-width="0.131" stroke-linecap="butt" x1="18.41" y1="21.106" x2="19.326" y2="21.106"/>
 <path stroke-width="0.131" stroke-linecap="butt" d="M21.202 18.015C21.294 18.679 21.294 18.679 21.294 18.679C21.294 18.679 20.492 19.022 19.692 19.525C18.89 20.03 18.341 20.876 18.341 20.876C17.664 20.556 17.664 20.556 17.664 20.556C17.664 20.556 18.164 19.766 19.339 18.943C20.515 18.12 21.202 18.015 21.202 18.015L21.202 18.015z"/>
 <line stroke-width="0.131" stroke-linecap="butt" x1="21.294" y1="18.771" x2="21.294" y2="19.068"/>
 <polyline stroke-width="0.131" stroke-linecap="butt" points="27.474 22.844 24.589 22.844 24.589 20.716 22.3 20.716 22.3 22.844 19.417 22.844"/>
 <line stroke-width="0.131" stroke-linecap="butt" x1="28.274" y1="23.417" x2="27.565" y2="22.272"/>
 <line stroke-width="0.131" stroke-linecap="butt" x1="28.457" y1="22.158" x2="27.542" y2="22.158"/>
 <line stroke-width="0.131" stroke-linecap="butt" x1="28.481" y1="21.106" x2="27.565" y2="21.106"/>
 <line stroke-width="0.131" stroke-linecap="butt" x1="25.597" y1="18.771" x2="25.597" y2="19.068"/>
 <line stroke-width="0.131" stroke-linecap="butt" x1="18.615" y1="26.437" x2="19.326" y2="27.582"/>
 <line stroke-width="0.131" stroke-linecap="butt" x1="18.432" y1="27.696" x2="19.349" y2="27.696"/>
 <line stroke-width="0.131" stroke-linecap="butt" x1="18.41" y1="28.75" x2="19.326" y2="28.75"/>
 <line stroke-width="0.131" stroke-linecap="butt" x1="21.294" y1="31.085" x2="21.294" y2="30.786"/>
 <polyline stroke-width="0.131" stroke-linecap="butt" points="27.474 27.01 24.589 27.01 24.589 29.138 22.3 29.138 22.3 27.01 19.417 27.01"/>
 <line stroke-width="0.131" stroke-linecap="butt" x1="28.274" y1="26.437" x2="27.565" y2="27.582"/>
 <line stroke-width="0.131" stroke-linecap="butt" x1="28.457" y1="27.696" x2="27.542" y2="27.696"/>
 <line stroke-width="0.131" stroke-linecap="butt" x1="28.481" y1="28.75" x2="27.565" y2="28.75"/>
 <path stroke-width="0.131" stroke-linecap="butt" d="M29.327 29.298C28.548 28.978 28.548 28.978 28.548 28.978C28.548 28.978 28 29.826 27.199 30.329C26.397 30.832 25.597 31.175 25.597 31.175C25.687 31.839 25.687 31.839 25.687 31.839"/>
 <line stroke-width="0.131" stroke-linecap="butt" x1="25.597" y1="31.085" x2="25.597" y2="30.786"/>
 <line stroke-width="0.131" stroke-linecap="butt" x1="21.294" y1="18.771" x2="25.597" y2="18.771"/>
 <line stroke-width="0.131" stroke-linecap="butt" x1="18.341" y1="20.876" x2="18.341" y2="28.978"/>
 <line stroke-width="0.131" stroke-linecap="butt" x1="21.294" y1="31.085" x2="25.574" y2="31.085"/>
 <line stroke-width="0.131" stroke-linecap="butt" x1="28.548" y1="20.876" x2="28.548" y2="28.955"/>
 <path stroke-width="0.131" stroke-linecap="butt" d="M29.304 22.684C28.64 22.821 28.64 22.821 28.64 22.821C28.64 22.821 28.96 23.554 28.96 24.812C28.96 26.071 28.664 26.919 28.664 26.919C29.327 27.17 29.327 27.17 29.327 27.17"/>
 <line stroke-width="0.131" stroke-linecap="butt" x1="18.615" y1="23.417" x2="18.615" y2="26.437"/>
 <line stroke-width="0.131" stroke-linecap="butt" x1="28.297" y1="23.509" x2="28.297" y2="26.37"/>
 <path stroke-width="0.131" stroke-linecap="butt" d="M25.687 18.015C25.687 18.015 26.865 18.356 27.748 19.003C28.629 19.649 29.327 20.556 29.327 20.556C28.548 20.876 28.548 20.876 28.548 20.876C28.548 20.876 28 20.03 27.199 19.525C26.397 19.022 25.597 18.679 25.597 18.679C25.687 18.015 25.687 18.015 25.687 18.015C21.202 18.015 21.202 18.015 21.202 18.015"/>
 <path stroke-width="0.131" stroke-linecap="butt" d="M29.364 20.62C29.364 22.707 29.364 22.707 29.364 22.707C29.364 22.707 29.806 24.088 29.806 24.882C29.806 25.675 29.364 27.088 29.364 27.088C29.364 29.263 29.364 29.263 29.364 29.263C29.364 29.263 29.071 29.821 27.806 30.762C26.542 31.702 25.69 31.762 25.69 31.762C21.074 31.762 21.074 31.762 21.074 31.762C21.074 31.762 20.251 31.614 19.222 30.85C18.193 30.085 17.562 29.298 17.562 29.298C18.341 28.978 18.341 28.978 18.341 28.978C18.341 28.978 18.89 29.826 19.692 30.329C20.492 30.832 21.294 31.175 21.294 31.175C21.202 31.839 21.202 31.839 21.202 31.839"/>
 <path stroke-width="0.131" stroke-linecap="butt" d="M17.609 27.17C17.609 27.17 17.193 26 17.193 24.94C17.193 23.882 17.632 22.684 17.632 22.684C18.295 22.821 18.295 22.821 18.295 22.821C18.295 22.821 17.975 23.554 17.975 24.812C17.975 26.071 18.272 26.919 18.272 26.919C17.609 27.17 17.609 27.17 17.609 27.17C17.606 29.204 17.606 29.204 17.606 29.204"/>
 <line stroke-width="0.131" stroke-linecap="butt" x1="17.632" y1="22.684" x2="17.632" y2="20.649"/>
 <path stroke-width="0.131" stroke-linecap="butt" d="M37.685 30.701C34.868 30.701 34.868 30.701 34.868 30.701C34.149 30.701 33.567 30.118 33.567 29.4C33.567 20.466 33.567 20.466 33.567 20.466C33.567 19.748 34.149 19.166 34.868 19.166C37.593 19.166 37.593 19.166 37.593 19.166"/>
 <line stroke-width="0.131" stroke-linecap="butt" x1="32.816" y1="23.417" x2="33.524" y2="22.272"/>
 <line stroke-width="0.131" stroke-linecap="butt" x1="32.631" y1="22.158" x2="33.548" y2="22.158"/>
 <line stroke-width="0.131" stroke-linecap="butt" x1="32.609" y1="21.106" x2="33.524" y2="21.106"/>
 <path stroke-width="0.131" stroke-linecap="butt" d="M35.402 18.015C35.493 18.679 35.493 18.679 35.493 18.679C35.493 18.679 34.692 19.022 33.89 19.525C33.09 20.03 32.54 20.876 32.54 20.876C31.862 20.556 31.862 20.556 31.862 20.556C31.862 20.556 32.362 19.766 33.539 18.943C34.715 18.12 35.402 18.015 35.402 18.015L35.402 18.015z"/>
 <line stroke-width="0.131" stroke-linecap="butt" x1="35.493" y1="18.771" x2="35.493" y2="19.068"/>
 <polyline stroke-width="0.131" stroke-linecap="butt" points="37.588 20.716 36.5 20.716 36.5 22.844 33.616 22.844"/>
 <line stroke-width="0.131" stroke-linecap="butt" x1="32.816" y1="26.437" x2="33.524" y2="27.582"/>
 <line stroke-width="0.131" stroke-linecap="butt" x1="32.631" y1="27.696" x2="33.548" y2="27.696"/>
 <line stroke-width="0.131" stroke-linecap="butt" x1="32.609" y1="28.75" x2="33.524" y2="28.75"/>
 <line stroke-width="0.131" stroke-linecap="butt" x1="35.493" y1="31.085" x2="35.493" y2="30.786"/>
 <polyline stroke-width="0.131" stroke-linecap="butt" points="37.588 29.138 36.5 29.138 36.5 27.01 33.616 27.01"/>
 <path stroke="none" fill="#000000" d="M39.953 31.839C39.953 31.803 39.923 31.774 39.887 31.774 39.851 31.774 39.822 31.803 39.822 31.839 39.822 31.876 39.851 31.905 39.887 31.905 39.923 31.905 39.953 31.876 39.953 31.839 39.953 31.839 39.953 31.839 39.953 31.839L39.953 31.839z"/>
 <path stroke="none" fill="#000000" d="M39.86 31.175C39.86 31.14 39.832 31.111 39.795 31.111 39.759 31.111 39.731 31.14 39.731 31.175 39.731 31.211 39.759 31.24 39.795 31.24 39.832 31.24 39.86 31.211 39.86 31.175 39.86 31.175 39.86 31.175 39.86 31.175L39.86 31.175z"/>
 <line stroke-width="0.131" stroke-linecap="butt" x1="35.493" y1="18.771" x2="37.595" y2="18.771"/>
 <line stroke-width="0.131" stroke-linecap="butt" x1="32.54" y1="20.876" x2="32.54" y2="28.978"/>
 <line stroke-width="0.131" stroke-linecap="butt" x1="35.493" y1="31.085" x2="37.551" y2="31.085"/>
 <line stroke-width="0.131" stroke-linecap="butt" x1="32.816" y1="23.417" x2="32.816" y2="26.437"/>
 <line stroke-width="0.131" stroke-linecap="butt" x1="37.588" y1="18.015" x2="35.402" y2="18.015"/>
 <path stroke="none" fill="#000000" d="M37.654 18.015C37.654 17.98 37.624 17.951 37.588 17.951 37.551 17.951 37.523 17.98 37.523 18.015 37.523 18.051 37.551 18.08 37.588 18.08 37.624 18.08 37.654 18.051 37.654 18.015 37.654 18.015 37.654 18.015 37.654 18.015L37.654 18.015z"/>
 <path stroke-width="0.131" stroke-linecap="butt" d="M37.595 31.762C35.274 31.762 35.274 31.762 35.274 31.762C35.274 31.762 34.451 31.614 33.421 30.85C32.393 30.085 31.763 29.298 31.763 29.298C32.54 28.978 32.54 28.978 32.54 28.978C32.54 28.978 33.09 29.826 33.89 30.329C34.692 30.832 35.493 31.175 35.493 31.175C35.402 31.839 35.402 31.839 35.402 31.839"/>
 <path stroke-width="0.131" stroke-linecap="butt" d="M31.809 27.17C31.809 27.17 31.393 26 31.393 24.94C31.393 23.882 31.83 22.684 31.83 22.684C32.494 22.821 32.494 22.821 32.494 22.821C32.494 22.821 32.174 23.554 32.174 24.812C32.174 26.071 32.472 26.919 32.472 26.919C31.809 27.17 31.809 27.17 31.809 27.17C31.804 29.204 31.804 29.204 31.804 29.204"/>
 <line stroke-width="0.131" stroke-linecap="butt" x1="31.83" y1="22.684" x2="31.83" y2="20.649"/>
 <line stroke-width="0.131" stroke-linecap="butt" x1="34.018" y1="15.195" x2="34.018" y2="16.681"/>
 <path stroke-width="0.131" stroke-linecap="butt" d="M59.954 14.173C59.954 12.968 59.954 11.859 59.954 11.643C59.954 11.164 59.273 10.346 58.726 10.346C58.631 10.242 58.631 10.242 58.631 10.242C16.562 10.242 16.562 10.242 16.562 10.242C16.468 10.346 16.468 10.346 16.468 10.346C15.922 10.346 15.24 11.164 15.24 11.643C15.24 11.859 15.24 12.968 15.24 14.173"/>
 <path stroke-width="0.25" stroke-linecap="butt" d="M55.52 33.203C56.747 33.203 56.816 34.362 56.816 34.976C56.816 35.591 57.567 36.75 58.862 36.75C60.158 36.75 67.254 36.75 69.643 36.75C72.031 36.75 72.849 34.634 72.849 33.612C72.849 32.588 72.849 22.149 72.849 22.149C72.849 19.829 71.075 18.67 69.575 18.67C68.073 18.67 61.796 18.67 61.115 18.67C60.432 18.67 59.954 18.26 59.954 17.579C59.954 17.207 59.954 15.618 59.954 14.173"/>
 <polyline stroke-width="0.25" stroke-linecap="butt" points="56.816 34.976 45.899 34.976 45.899 32.384 43.512 32.384 43.512 34.84 31.681 34.84 31.681 32.384 29.295 32.384 29.295 34.976 18.378 34.976"/>
 <path stroke-width="0.131" stroke-linecap="butt" d="M59.954 18.056C59.954 18.056 59.954 32.86 59.954 33.338C59.954 33.817 60.158 34.362 60.773 34.362C61.387 34.362 69.028 34.362 69.438 34.362C69.847 34.362 70.257 34.158 70.257 33.475C70.257 32.792 70.257 22.832 70.257 22.149C70.257 21.466 69.915 21.33 69.507 21.33C69.096 21.33 61.045 21.33 60.637 21.33C60.228 21.33 59.959 21.807 59.959 22.149"/>
 <polyline stroke-width="0.131" stroke-linecap="butt" points="59.999 22.559 67.495 22.559 67.495 32.908 60.057 32.908"/>
 <polyline stroke-width="0.131" stroke-linecap="butt" points="67.584 23.236 68.26 23.236 68.26 32.203 67.614 32.203"/>
 <line stroke-width="0.131" stroke-linecap="butt" x1="68.319" y1="26.969" x2="70.23" y2="26.969"/>
 <line stroke-width="0.131" stroke-linecap="butt" x1="68.378" y1="28.615" x2="70.171" y2="28.615"/>
 <line stroke-width="0.131" stroke-linecap="butt" x1="62.939" y1="22.618" x2="62.939" y2="32.82"/>
 <polyline stroke-width="0.131" stroke-linecap="butt" points="62.969 27.117 64.409 27.117 64.409 28.352 63.057 28.352"/>
 <line stroke-width="0.131" stroke-linecap="butt" x1="62.85" y1="23.647" x2="59.999" y2="23.647"/>
 <line stroke-width="0.131" stroke-linecap="butt" x1="12.343" y1="31.821" x2="15.195" y2="31.821"/>
 <line stroke-width="0.131" stroke-linecap="butt" x1="62.85" y1="31.821" x2="59.999" y2="31.821"/>
 <path stroke-width="0.131" stroke-linecap="butt" d="M62.822 26.44C62.822 26.44 61.027 26.44 60.676 26.44C60.323 26.44 59.941 26.794 59.941 27.704C59.941 28.615 60.351 29.056 60.676 29.056C60.999 29.056 62.88 29.056 62.88 29.056"/>
 <path stroke-width="0.25" stroke-linecap="butt" d="M59.969 14.151C59.969 14.151 61.116 13.74 61.116 13.387C61.116 13.035 61.365 11.638 61.116 11.388C60.866 11.138 60.351 10.066 59.116 10.066"/>
 <path stroke-width="0.25" stroke-linecap="butt" d="M59.616 10.125C59.616 10.125 59.441 9.654 59.058 9.654C58.676 9.654 46.006 9.654 46.006 9.654C46.006 9.33 46.006 9.33 46.006 9.33C43.359 9.33 43.359 9.33 43.359 9.33C43.359 9.772 43.359 9.772 43.359 9.772C31.833 9.772 31.833 9.772 31.833 9.772C31.833 9.33 31.833 9.33 31.833 9.33C29.187 9.33 29.187 9.33 29.187 9.33C29.187 9.654 29.187 9.654 29.187 9.654C29.187 9.654 16.518 9.654 16.135 9.654C15.753 9.654 15.577 10.125 15.577 10.125"/>
 <line stroke-width="0.131" stroke-linecap="butt" x1="57.119" y1="12.121" x2="57.119" y2="17.746"/>
 <line stroke-width="0.131" stroke-linecap="butt" x1="57.06" y1="12.839" x2="45.658" y2="12.839"/>
 <line stroke-width="0.131" stroke-linecap="butt" x1="57.06" y1="13.916" x2="45.658" y2="13.916"/>
 <line stroke-width="0.131" stroke-linecap="butt" x1="45.658" y1="12.15" x2="45.658" y2="18.196"/>
 <line stroke-width="0.131" stroke-linecap="butt" x1="55.323" y1="12.929" x2="55.323" y2="13.856"/>
 <line stroke-width="0.131" stroke-linecap="butt" x1="53.978" y1="12.929" x2="53.978" y2="13.856"/>
 <line stroke-width="0.131" stroke-linecap="butt" x1="52.033" y1="12.929" x2="52.033" y2="13.856"/>
 <line stroke-width="0.131" stroke-linecap="butt" x1="50.686" y1="12.929" x2="50.686" y2="13.856"/>
 <line stroke-width="0.131" stroke-linecap="butt" x1="48.74" y1="12.929" x2="48.74" y2="13.856"/>
 <line stroke-width="0.131" stroke-linecap="butt" x1="47.395" y1="12.929" x2="47.395" y2="13.856"/>
 <line stroke-width="0.131" stroke-linecap="butt" x1="57.03" y1="15.083" x2="45.749" y2="15.083"/>
 <line stroke-width="0.131" stroke-linecap="butt" x1="57.06" y1="16.728" x2="45.658" y2="16.728"/>
 <line stroke-width="0.131" stroke-linecap="butt" x1="43.32" y1="12.121" x2="43.32" y2="17.746"/>
 <line stroke-width="0.131" stroke-linecap="butt" x1="43.259" y1="12.839" x2="37.506" y2="12.839"/>
 <line stroke-width="0.131" stroke-linecap="butt" x1="43.259" y1="13.916" x2="37.506" y2="13.916"/>
 <line stroke-width="0.131" stroke-linecap="butt" x1="41.524" y1="12.929" x2="41.524" y2="13.856"/>
 <line stroke-width="0.131" stroke-linecap="butt" x1="40.177" y1="12.929" x2="40.177" y2="13.856"/>
 <line stroke-width="0.131" stroke-linecap="butt" x1="38.232" y1="12.929" x2="38.232" y2="13.856"/>
 <line stroke-width="0.131" stroke-linecap="butt" x1="43.229" y1="15.083" x2="37.695" y2="15.083"/>
 <line stroke-width="0.131" stroke-linecap="butt" x1="43.259" y1="16.728" x2="37.506" y2="16.728"/>
 <path stroke-width="0.131" stroke-linecap="butt" d="M59.845 20.993C58.957 19.169 57.469 17.689 55.637 16.811"/>
 <path stroke-width="0.131" stroke-linecap="butt" d="M59.81 28.932C58.337 31.89 55.281 33.923 51.753 33.923C49.357 33.923 47.182 32.987 45.57 31.46C45.57 31.46 45.139 31.012 44.654 31.012C44.168 31.012 43.71 31.567 43.71 31.567C42.11 33.03 39.981 33.923 37.642 33.923C37.551 33.923 37.551 33.923 37.551 33.923C35.213 33.923 33.082 33.03 31.483 31.567C31.483 31.567 31.025 31.012 30.541 31.012C30.056 31.012 29.625 31.46 29.625 31.46C28.013 32.987 25.835 33.923 23.44 33.923C19.911 33.923 16.858 31.89 15.384 28.932"/>
 <path stroke-width="0.131" stroke-linecap="butt" d="M47.819 16.835C47.009 17.228 46.27 17.739 45.618 18.347C45.618 18.347 45.139 18.797 44.654 18.797C44.168 18.797 43.731 18.306 43.731 18.306C43.079 17.704 42.335 17.199 41.527 16.811"/>
 <path stroke-width="0.131" stroke-linecap="butt" d="M47.701 29.4C47.701 30.118 48.283 30.701 49 30.701C54.526 30.701 54.526 30.701 54.526 30.701C55.243 30.701 55.826 30.118 55.826 29.4C55.826 20.466 55.826 20.466 55.826 20.466C55.826 19.748 55.243 19.166 54.526 19.166C49 19.166 49 19.166 49 19.166C48.283 19.166 47.701 19.748 47.701 20.466C47.701 29.4 47.701 29.4 47.701 29.4z"/>
 <line stroke-width="0.131" stroke-linecap="butt" x1="56.578" y1="23.417" x2="55.868" y2="22.272"/>
 <line stroke-width="0.131" stroke-linecap="butt" x1="56.761" y1="22.158" x2="55.845" y2="22.158"/>
 <line stroke-width="0.131" stroke-linecap="butt" x1="56.783" y1="21.106" x2="55.868" y2="21.106"/>
 <path stroke-width="0.131" stroke-linecap="butt" d="M53.991 18.015C53.899 18.679 53.899 18.679 53.899 18.679C53.899 18.679 54.701 19.022 55.502 19.525C56.302 20.03 56.853 20.876 56.853 20.876C57.53 20.556 57.53 20.556 57.53 20.556C57.53 20.556 57.03 19.766 55.853 18.943C54.677 18.12 53.991 18.015 53.991 18.015L53.991 18.015z"/>
 <line stroke-width="0.131" stroke-linecap="butt" x1="53.899" y1="18.771" x2="53.899" y2="19.068"/>
 <polyline stroke-width="0.131" stroke-linecap="butt" points="47.72 22.844 50.604 22.844 50.604 20.716 52.893 20.716 52.893 22.844 55.777 22.844"/>
 <line stroke-width="0.131" stroke-linecap="butt" x1="46.92" y1="23.417" x2="47.628" y2="22.272"/>
 <line stroke-width="0.131" stroke-linecap="butt" x1="46.737" y1="22.158" x2="47.652" y2="22.158"/>
 <line stroke-width="0.131" stroke-linecap="butt" x1="46.713" y1="21.106" x2="47.628" y2="21.106"/>
 <line stroke-width="0.131" stroke-linecap="butt" x1="49.597" y1="18.771" x2="49.597" y2="19.068"/>
 <line stroke-width="0.131" stroke-linecap="butt" x1="56.578" y1="26.437" x2="55.868" y2="27.582"/>
 <line stroke-width="0.131" stroke-linecap="butt" x1="56.761" y1="27.696" x2="55.845" y2="27.696"/>
 <line stroke-width="0.131" stroke-linecap="butt" x1="56.783" y1="28.75" x2="55.868" y2="28.75"/>
 <line stroke-width="0.131" stroke-linecap="butt" x1="53.899" y1="31.085" x2="53.899" y2="30.786"/>
 <polyline stroke-width="0.131" stroke-linecap="butt" points="47.72 27.01 50.604 27.01 50.604 29.138 52.893 29.138 52.893 27.01 55.777 27.01"/>
 <line stroke-width="0.131" stroke-linecap="butt" x1="46.92" y1="26.437" x2="47.628" y2="27.582"/>
 <line stroke-width="0.131" stroke-linecap="butt" x1="46.737" y1="27.696" x2="47.652" y2="27.696"/>
 <line stroke-width="0.131" stroke-linecap="butt" x1="46.713" y1="28.75" x2="47.628" y2="28.75"/>
 <path stroke-width="0.131" stroke-linecap="butt" d="M45.866 29.298C46.645 28.978 46.645 28.978 46.645 28.978C46.645 28.978 47.195 29.826 47.996 30.329C48.796 30.832 49.597 31.175 49.597 31.175C49.506 31.839 49.506 31.839 49.506 31.839"/>
 <line stroke-width="0.131" stroke-linecap="butt" x1="49.597" y1="31.085" x2="49.597" y2="30.786"/>
 <line stroke-width="0.131" stroke-linecap="butt" x1="53.899" y1="18.771" x2="49.597" y2="18.771"/>
 <line stroke-width="0.131" stroke-linecap="butt" x1="56.853" y1="20.876" x2="56.853" y2="28.978"/>
 <line stroke-width="0.131" stroke-linecap="butt" x1="53.899" y1="31.085" x2="49.619" y2="31.085"/>
 <line stroke-width="0.131" stroke-linecap="butt" x1="46.645" y1="20.876" x2="46.645" y2="28.955"/>
 <path stroke-width="0.131" stroke-linecap="butt" d="M45.89 22.684C46.554 22.821 46.554 22.821 46.554 22.821C46.554 22.821 46.232 23.554 46.232 24.812C46.232 26.071 46.53 26.919 46.53 26.919C45.866 27.17 45.866 27.17 45.866 27.17"/>
 <line stroke-width="0.131" stroke-linecap="butt" x1="56.578" y1="23.417" x2="56.578" y2="26.437"/>
 <line stroke-width="0.131" stroke-linecap="butt" x1="46.896" y1="23.509" x2="46.896" y2="26.37"/>
 <path stroke-width="0.131" stroke-linecap="butt" d="M49.506 18.015C49.506 18.015 48.328 18.356 47.445 19.003C46.564 19.649 45.866 20.556 45.866 20.556C46.645 20.876 46.645 20.876 46.645 20.876C46.645 20.876 47.195 20.03 47.996 19.525C48.796 19.022 49.597 18.679 49.597 18.679C49.506 18.015 49.506 18.015 49.506 18.015C53.991 18.015 53.991 18.015 53.991 18.015"/>
 <path stroke-width="0.131" stroke-linecap="butt" d="M45.829 20.62C45.829 22.707 45.829 22.707 45.829 22.707C45.829 22.707 45.389 24.088 45.389 24.882C45.389 25.675 45.829 27.088 45.829 27.088C45.829 29.263 45.829 29.263 45.829 29.263C45.829 29.263 46.122 29.821 47.387 30.762C48.652 31.702 49.503 31.762 49.503 31.762C54.119 31.762 54.119 31.762 54.119 31.762C54.119 31.762 54.942 31.614 55.972 30.85C57 30.085 57.631 29.298 57.631 29.298C56.853 28.978 56.853 28.978 56.853 28.978C56.853 28.978 56.302 29.826 55.502 30.329C54.701 30.832 53.899 31.175 53.899 31.175C53.991 31.839 53.991 31.839 53.991 31.839"/>
 <path stroke-width="0.131" stroke-linecap="butt" d="M57.585 27.17C57.585 27.17 58 26 58 24.94C58 23.882 57.561 22.684 57.561 22.684C56.899 22.821 56.899 22.821 56.899 22.821C56.899 22.821 57.219 23.554 57.219 24.812C57.219 26.071 56.92 26.919 56.92 26.919C57.585 27.17 57.585 27.17 57.585 27.17C57.588 29.204 57.588 29.204 57.588 29.204"/>
 <line stroke-width="0.131" stroke-linecap="butt" x1="57.561" y1="22.684" x2="57.561" y2="20.649"/>
 <path stroke-width="0.131" stroke-linecap="butt" d="M37.509 30.701C40.326 30.701 40.326 30.701 40.326 30.701C41.043 30.701 41.625 30.118 41.625 29.4C41.625 20.466 41.625 20.466 41.625 20.466C41.625 19.748 41.043 19.166 40.326 19.166C37.601 19.166 37.601 19.166 37.601 19.166"/>
 <line stroke-width="0.131" stroke-linecap="butt" x1="42.378" y1="23.417" x2="41.668" y2="22.272"/>
 <line stroke-width="0.131" stroke-linecap="butt" x1="42.561" y1="22.158" x2="41.646" y2="22.158"/>
 <line stroke-width="0.131" stroke-linecap="butt" x1="42.585" y1="21.106" x2="41.668" y2="21.106"/>
 <path stroke-width="0.131" stroke-linecap="butt" d="M39.792 18.015C39.701 18.679 39.701 18.679 39.701 18.679C39.701 18.679 40.502 19.022 41.302 19.525C42.103 20.03 42.652 20.876 42.652 20.876C43.332 20.556 43.332 20.556 43.332 20.556C43.332 20.556 42.831 19.766 41.655 18.943C40.478 18.12 39.792 18.015 39.792 18.015L39.792 18.015z"/>
 <line stroke-width="0.131" stroke-linecap="butt" x1="39.701" y1="18.771" x2="39.701" y2="19.068"/>
 <polyline stroke-width="0.131" stroke-linecap="butt" points="37.505 20.716 38.694 20.716 38.694 22.844 41.578 22.844"/>
 <line stroke-width="0.131" stroke-linecap="butt" x1="42.378" y1="26.437" x2="41.668" y2="27.582"/>
 <line stroke-width="0.131" stroke-linecap="butt" x1="42.561" y1="27.696" x2="41.646" y2="27.696"/>
 <line stroke-width="0.131" stroke-linecap="butt" x1="42.585" y1="28.75" x2="41.668" y2="28.75"/>
 <line stroke-width="0.131" stroke-linecap="butt" x1="39.701" y1="31.085" x2="39.701" y2="30.786"/>
 <polyline stroke-width="0.131" stroke-linecap="butt" points="37.505 29.138 38.694 29.138 38.694 27.01 41.578 27.01"/>
 <path stroke="none" fill="#000000" d="M35.371 31.839C35.371 31.803 35.343 31.774 35.307 31.774 35.271 31.774 35.24 31.803 35.24 31.839 35.24 31.876 35.271 31.905 35.307 31.905 35.343 31.905 35.371 31.876 35.371 31.839 35.371 31.839 35.371 31.839 35.371 31.839L35.371 31.839z"/>
 <path stroke="none" fill="#000000" d="M35.463 31.175C35.463 31.14 35.433 31.111 35.398 31.111 35.362 31.111 35.332 31.14 35.332 31.175 35.332 31.211 35.362 31.24 35.398 31.24 35.433 31.24 35.463 31.211 35.463 31.175 35.463 31.175 35.463 31.175 35.463 31.175L35.463 31.175z"/>
 <line stroke-width="0.131" stroke-linecap="butt" x1="39.701" y1="18.771" x2="37.597" y2="18.771"/>
 <line stroke-width="0.131" stroke-linecap="butt" x1="42.652" y1="20.876" x2="42.652" y2="28.978"/>
 <line stroke-width="0.131" stroke-linecap="butt" x1="39.701" y1="31.085" x2="37.542" y2="31.085"/>
 <line stroke-width="0.131" stroke-linecap="butt" x1="42.378" y1="23.417" x2="42.378" y2="26.437"/>
 <line stroke-width="0.131" stroke-linecap="butt" x1="37.506" y1="18.015" x2="39.792" y2="18.015"/>
 <path stroke-width="0.131" stroke-linecap="butt" d="M37.597 31.762C39.92 31.762 39.92 31.762 39.92 31.762C39.92 31.762 40.743 31.614 41.773 30.85C42.801 30.085 43.432 29.298 43.432 29.298C42.652 28.978 42.652 28.978 42.652 28.978C42.652 28.978 42.103 29.826 41.302 30.329C40.502 30.832 39.701 31.175 39.701 31.175C39.792 31.839 39.792 31.839 39.792 31.839"/>
 <path stroke-width="0.131" stroke-linecap="butt" d="M43.386 27.17C43.386 27.17 43.801 26 43.801 24.94C43.801 23.882 43.362 22.684 43.362 22.684C42.698 22.821 42.698 22.821 42.698 22.821C42.698 22.821 43.02 23.554 43.02 24.812C43.02 26.071 42.722 26.919 42.722 26.919C43.386 27.17 43.386 27.17 43.386 27.17C43.389 29.204 43.389 29.204 43.389 29.204"/>
 <line stroke-width="0.131" stroke-linecap="butt" x1="43.362" y1="22.684" x2="43.362" y2="20.649"/>
 <line stroke-width="0.131" stroke-linecap="butt" x1="41.176" y1="15.195" x2="41.176" y2="16.681"/>
 <text transform="matrix(0.671 0 0 0.751 58.237 33.878)" stroke="none" fill="#000000" font-family="'Arial'" font-size="4.165">3</text>
 <text transform="matrix(0.671 0 0 0.739 15.198 33.878)" stroke="none" fill="#000000" font-family="'Arial'" font-size="4.165">1</text>
 <line stroke-width="0.131" stroke-linecap="butt" x1="66.251" y1="22.658" x2="66.251" y2="32.808"/>
 <line stroke-width="0.131" stroke-linecap="butt" x1="65.054" y1="22.617" x2="65.054" y2="32.808"/>
 <line stroke-width="0.131" stroke-linecap="butt" x1="8.978" y1="22.658" x2="8.978" y2="32.808"/>
 <line stroke-width="0.131" stroke-linecap="butt" x1="10.176" y1="22.617" x2="10.176" y2="32.808"/>
 <line stroke="#FFFFFF" stroke-width="1.058" stroke-linejoin="round" x1="22.75" y1="24.274" x2="15.08" y2="6.583"/>
 <line stroke-width="0.131" stroke-linejoin="round" x1="22.75" y1="24.274" x2="15.08" y2="6.583"/>
 <line stroke="#FFFFFF" stroke-width="1.058" stroke-linejoin="round" x1="52.231" y1="24.274" x2="59.902" y2="6.583"/>
 <line stroke-width="0.131" stroke-linejoin="round" x1="52.231" y1="24.274" x2="59.902" y2="6.583"/>
 <text x="13.401" y="5.203" stroke="none" fill="#000000" font-family="'Arial'" font-size="4.859">1</text>
 <text x="58.584" y="5.203" stroke="none" fill="#000000" font-family="'Arial'" font-size="4.859">3</text>
 <text x="36.051" y="5.203" stroke="none" fill="#000000" font-family="'Arial'" font-size="4.859">2</text>
 <line stroke="#FFFFFF" stroke-width="1.058" stroke-linecap="butt" x1="37.49" y1="24.274" x2="37.49" y2="6.104"/>
 <line stroke-width="0.131" stroke-linecap="butt" x1="37.49" y1="24.274" x2="37.49" y2="6.104"/>
 <path stroke="none" fill="#FFFFFF" d="M74.283 36.738L71.048 36.738 71.048 27.51 74.283 27.51 74.283 36.738z"/>
 <text transform="matrix(0 -1 1 0 73.188 36.048)" stroke="none" fill="#000000" font-family="'Arial'" font-size="2.081">144 474</text>
</svg>
