<?xml version="1.0" encoding="utf-8"?>
<!DOCTYPE svg PUBLIC "-//W3C//DTD SVG 1.1//EN" "http://www.w3.org/Graphics/SVG/1.1/DTD/svg11.dtd">
<!-- Generator: PTC Arbortext IsoDraw 7.3 M070 -->
<svg id="Standard_x0020_layer" width="100%" height="100%" viewBox="0 0 12.824 76.063"
 xmlns="http://www.w3.org/2000/svg" xmlns:xlink="http://www.w3.org/1999/xlink"
 fill-rule="evenodd" clip-rule="evenodd" stroke="#000000" stroke-linecap="round" fill="none" xml:space="preserve">
 <line stroke-width="0.3" x1="0.402" y1="75.246" x2="0.402" y2="51.779"/>
 <line stroke-width="0.3" x1="0.402" y1="51.779" x2="1.411" y2="51.779"/>
 <line stroke-width="0.3" x1="1.411" y1="51.779" x2="1.411" y2="50.012"/>
 <line stroke-width="0.3" x1="1.411" y1="50.012" x2="0.15" y2="49.569"/>
 <line stroke-width="0.3" x1="0.15" y1="49.569" x2="0.15" y2="33.862"/>
 <line stroke-width="0.3" x1="0.15" y1="33.862" x2="0.791" y2="33.256"/>
 <line stroke-width="0.3" x1="0.791" y1="33.256" x2="0.791" y2="25.827"/>
 <line stroke-width="0.3" x1="0.791" y1="25.827" x2="4.182" y2="25.827"/>
 <line stroke-width="0.3" x1="2.487" y1="25.827" x2="2.487" y2="0.15"/>
 <line stroke-width="0.3" x1="2.487" y1="0.15" x2="4.504" y2="0.15"/>
 <line stroke-width="0.3" x1="7.963" y1="75.246" x2="7.963" y2="51.779"/>
 <line stroke-width="0.3" x1="7.963" y1="51.779" x2="6.953" y2="51.779"/>
 <line stroke-width="0.3" x1="6.953" y1="51.779" x2="6.953" y2="50.012"/>
 <line stroke-width="0.3" x1="6.953" y1="50.012" x2="8.214" y2="49.569"/>
 <line stroke-width="0.3" x1="8.214" y1="49.569" x2="8.214" y2="33.862"/>
 <line stroke-width="0.3" x1="8.214" y1="33.862" x2="7.573" y2="33.256"/>
 <line stroke-width="0.3" x1="7.573" y1="33.256" x2="7.573" y2="25.827"/>
 <line stroke-width="0.3" x1="7.573" y1="25.827" x2="4.182" y2="25.827"/>
 <line stroke-width="0.3" x1="5.878" y1="25.827" x2="5.878" y2="0.15"/>
 <line stroke-width="0.3" x1="5.878" y1="0.15" x2="3.859" y2="0.15"/>
 <path stroke-width="0.13" d="M0.15 33.862C1.788 33.344 3.636 33.713 4.006 33.991"/>
 <path stroke-width="0.13" d="M0.15 49.335C1.788 49.704 3.729 49.426 4.006 48.688"/>
 <path stroke-width="0.13" d="M8.214 33.862C6.577 33.344 4.729 33.713 4.359 33.991"/>
 <path stroke-width="0.13" d="M8.214 49.335C6.577 49.704 4.636 49.426 4.359 48.688"/>
 <line stroke-width="0.13" x1="4.359" y1="33.991" x2="4.359" y2="48.07"/>
 <line stroke-width="0.13" x1="1.411" y1="51.779" x2="6.953" y2="51.779"/>
 <text transform="matrix(0 -1 1 0 12.119 76.063)" stroke="none" fill="#000000" font-family="'Helvetica'" font-size="2.117">147 533</text>
</svg>
