<?xml version="1.0" encoding="utf-8"?>
<!DOCTYPE svg PUBLIC "-//W3C//DTD SVG 1.1//EN" "http://www.w3.org/Graphics/SVG/1.1/DTD/svg11.dtd">
<!-- Generator: PTC Arbortext IsoDraw 7.3 M070 -->
<svg id="Standard_x0020_layer" width="100%" height="100%" viewBox="0 0 149.995 208.931"
 xmlns="http://www.w3.org/2000/svg" xmlns:xlink="http://www.w3.org/1999/xlink"
 xmlns:itedo="http://www.itedo.com/svgfilter/1.0" xmlns:extra="http://www.itedo.com/svgfilter/1.0/extra"
 xmlns:_DEFAULT_DTD_="http://www.itedo.com/svgfilter/1.0/DTD/_DEFAULT_DTD_"
 fill-rule="evenodd" clip-rule="evenodd" stroke="#000000" stroke-linecap="round" fill="none" xml:space="preserve"
>
 <path stroke="none" fill="#FFFFFF" d="M149.995 208.931L0 208.931 0 0 149.995 0 149.995 208.931z"/>
 <text transform="matrix(0 -1 1 0 148.015 206.95)" stroke="none" fill="#1F1A17" font-family="'Arial'" font-size="2.142">149 198</text>
 <polygon stroke="#131516" stroke-width="0.347" stroke-linecap="butt" points="70.902 156.739 70.197 159.299 68.371 161.125 65.79 161.818 63.229 161.125 61.404 159.299 60.71 156.739 61.404 154.168 63.229 152.331 65.79 151.638 68.371 152.331 70.197 154.168 70.902 156.739"/>
 <path stroke="none" fill="#FFFFFF" d="M71.759 158.462L59.517 158.462 59.517 155.066 71.759 155.066 71.759 158.462z"/>
 <polygon stroke="#131516" stroke-width="0.347" stroke-linecap="butt" points="78.868 156.739 79.572 159.299 81.399 161.125 83.98 161.818 86.54 161.125 88.367 159.299 89.061 156.739 88.367 154.168 86.54 152.331 83.98 151.638 81.399 152.331 79.572 154.168 78.868 156.739"/>
 <path stroke="none" fill="#FFFFFF" d="M78.012 158.462L90.254 158.462 90.254 155.066 78.012 155.066 78.012 158.462z"/>
 <polyline stroke="#131516" stroke-width="0.347" stroke-linecap="butt" points="91.569 155.066 74.911 155.066 58.201 155.066"/>
 <polyline stroke="#131516" stroke-width="0.347" stroke-linecap="butt" points="91.6 158.462 74.911 158.462 58.17 158.462"/>
 <polygon stroke="#131516" stroke-width="0.347" stroke-linecap="butt" points="70.902 185.598 70.197 188.159 68.371 189.985 65.79 190.669 63.229 189.985 61.404 188.159 60.71 185.598 61.404 183.027 63.229 181.201 65.79 180.519 68.371 181.201 70.197 183.027 70.902 185.598"/>
 <polygon stroke="#131516" stroke-width="0.347" stroke-linecap="butt" points="79.909 174.418 79.215 176.989 77.4 178.805 74.859 179.498 72.289 178.805 70.472 176.989 69.78 174.418 70.472 171.847 72.289 170.031 74.859 169.337 77.4 170.031 79.215 171.847 79.909 174.418"/>
 <polygon stroke="#131516" stroke-width="0.347" stroke-linecap="butt" points="79.909 111.147 79.215 113.727 77.4 115.554 74.859 116.248 72.289 115.554 70.472 113.727 69.78 111.147 70.472 108.587 72.289 106.76 74.859 106.066 77.4 106.76 79.215 108.587 79.909 111.147"/>
 <path stroke="none" fill="#FFFFFF" d="M71.759 187.271L59.517 187.271 59.517 183.865 71.759 183.865 71.759 187.271z"/>
 <polygon stroke="#131516" stroke-width="0.347" stroke-linecap="butt" points="78.868 185.598 79.572 188.159 81.399 189.985 83.98 190.669 86.54 189.985 88.367 188.159 89.061 185.598 88.367 183.027 86.54 181.201 83.98 180.519 81.399 181.201 79.572 183.027 78.868 185.598"/>
 <path stroke="none" fill="#FFFFFF" d="M78.012 187.271L90.254 187.271 90.254 183.865 78.012 183.865 78.012 187.271z"/>
 <polyline stroke="#131516" stroke-width="0.347" stroke-linecap="butt" points="91.549 183.915 74.911 183.915 58.22 183.915"/>
 <polyline stroke="#131516" stroke-width="0.347" stroke-linecap="butt" points="91.498 187.323 74.911 187.323 58.271 187.323"/>
 <polygon stroke="#131516" stroke-width="0.347" stroke-linecap="butt" points="70.902 124.409 70.197 126.98 68.371 128.817 65.79 129.509 63.229 128.817 61.404 126.98 60.71 124.409 61.404 121.849 63.229 120.022 65.79 119.328 68.371 120.022 70.197 121.849 70.902 124.409"/>
 <path stroke="none" fill="#FFFFFF" d="M71.759 126.134L59.517 126.134 59.517 122.725 71.759 122.725 71.759 126.134z"/>
 <polygon stroke="#131516" stroke-width="0.347" stroke-linecap="butt" points="78.868 124.409 79.572 126.98 81.399 128.817 83.98 129.509 86.54 128.817 88.367 126.98 89.061 124.409 88.367 121.849 86.54 120.022 83.98 119.328 81.399 120.022 79.572 121.849 78.868 124.409"/>
 <path stroke="none" fill="#FFFFFF" d="M78.012 126.134L90.254 126.134 90.254 122.725 78.012 122.725 78.012 126.134z"/>
 <polyline stroke="#131516" stroke-width="0.347" stroke-linecap="butt" points="99.67 122.757 74.911 122.757 50.631 122.757"/>
 <polyline stroke="#131516" stroke-width="0.347" stroke-linecap="butt" points="98.629 126.134 74.911 126.134 49.661 126.134"/>
 <polygon stroke="#131516" stroke-width="0.347" stroke-linecap="butt" points="69.319 53.487 68.637 56.057 66.811 57.874 64.239 58.567 61.668 57.874 59.853 56.057 59.159 53.487 59.853 50.926 61.668 49.1 64.239 48.406 66.811 49.1 68.637 50.926 69.319 53.487"/>
 <polygon stroke="#131516" stroke-width="0.347" stroke-linecap="butt" points="80.45 53.487 81.134 56.057 82.959 57.874 85.531 58.567 88.102 57.874 89.918 56.057 90.611 53.487 89.918 50.926 88.102 49.1 85.531 48.406 82.959 49.1 81.134 50.926 80.45 53.487"/>
 <path stroke="none" fill="#FFFFFF" d="M70.391 55.161L58.149 55.161 58.149 51.762 70.391 51.762 70.391 55.161z"/>
 <path stroke="none" fill="#FFFFFF" d="M79.379 55.191L79.379 51.783 91.6 51.783 91.6 55.191 79.379 55.191z"/>
 <polyline stroke="#131516" stroke-width="0.347" stroke-linecap="butt" points="99.343 51.814 74.911 51.814 50.579 51.814"/>
 <polyline stroke="#131516" stroke-width="0.347" stroke-linecap="butt" points="98.578 55.212 74.911 55.212 49.509 55.212"/>
 <polygon stroke="#131516" stroke-width="0.347" stroke-linecap="butt" points="68.075 23.056 67.391 25.637 65.566 27.472 62.994 28.167 60.424 27.472 58.609 25.637 57.914 23.056 58.609 20.504 60.424 18.678 62.994 17.975 65.566 18.678 67.391 20.504 68.075 23.056"/>
 <path stroke="none" fill="#FFFFFF" d="M69.402 24.789L57.159 24.789 57.159 21.382 69.402 21.382 69.402 24.789z"/>
 <polygon stroke="#131516" stroke-width="0.347" stroke-linecap="butt" points="81.694 23.056 82.379 25.637 84.204 27.472 86.775 28.167 89.346 27.472 91.162 25.637 91.855 23.056 91.162 20.504 89.346 18.678 86.775 17.975 84.204 18.678 82.379 20.504 81.694 23.056"/>
 <path stroke="none" fill="#FFFFFF" d="M80.368 24.789L92.611 24.789 92.611 21.382 80.368 21.382 80.368 24.789z"/>
 <polyline stroke="#131516" stroke-width="0.347" stroke-linecap="butt" points="99.802 21.413 74.911 21.413 50.783 21.413"/>
 <polyline stroke="#131516" stroke-width="0.347" stroke-linecap="butt" points="98.813 24.789 74.911 24.789 49.713 24.789"/>
 <polygon stroke="#131516" stroke-width="0.347" stroke-linecap="butt" points="50.243 166.441 50.06 167.328 49.703 168.001 49.436 168.501 49.222 168.889 48.856 169.194 48.396 169.317 47.734 169.317 47.07 169.317 46.765 169.317 46.457 169.317 45.784 169.317 45.142 169.317 44.652 169.194 44.286 168.889 44.07 168.501 43.816 168.001 43.448 167.328 43.265 166.441 43.265 146.221 43.448 145.342 43.816 144.68 44.07 144.191 44.286 143.802 44.652 143.497 45.142 143.384 45.784 143.384 46.457 143.384 46.765 143.384 47.07 143.384 47.734 143.384 48.396 143.384 48.856 143.497 49.222 143.802 49.436 144.191 49.703 144.68 50.06 145.342 50.243 146.221 50.243 166.441"/>
 <polygon stroke="#131516" stroke-width="0.347" stroke-linecap="butt" points="58.17 166.441 57.985 167.328 57.628 168.001 57.363 168.501 57.159 168.889 56.792 169.194 56.313 169.317 55.659 169.317 54.996 169.317 54.691 169.317 54.384 169.317 53.712 169.317 53.069 169.317 52.579 169.194 52.222 168.889 52.029 168.501 51.753 168.001 51.375 167.328 51.182 166.441 51.182 146.221 51.375 145.342 51.753 144.68 52.029 144.191 52.222 143.802 52.579 143.497 53.069 143.384 53.712 143.384 54.384 143.384 54.691 143.384 54.996 143.384 55.659 143.384 56.313 143.384 56.792 143.497 57.159 143.802 57.363 144.191 57.628 144.68 57.985 145.342 58.17 146.221 58.17 166.441"/>
 <polygon stroke="#131516" stroke-width="0.347" stroke-linecap="butt" points="47.326 134.008 46.896 134.794 46.345 135.336 45.959 135.733 45.662 136.05 45.234 136.243 44.734 136.212 44.101 136.05 43.459 135.866 43.162 135.783 42.866 135.703 42.234 135.519 41.612 135.324 41.183 135.069 40.918 134.682 40.826 134.264 40.704 133.713 40.551 132.959 40.622 132.05 46.234 112.615 46.652 111.831 47.192 111.29 47.581 110.891 47.887 110.575 48.325 110.391 48.825 110.412 49.448 110.596 50.09 110.78 50.375 110.871 50.671 110.953 51.314 111.126 51.947 111.299 52.375 111.555 52.64 111.953 52.732 112.391 52.854 112.933 53.008 113.677 52.936 114.575 47.326 134.008"/>
 <polygon stroke="#131516" stroke-width="0.347" stroke-linecap="butt" points="47.326 62.536 46.896 63.332 46.345 63.862 45.959 64.26 45.662 64.576 45.234 64.771 44.734 64.771 44.101 64.576 43.459 64.393 43.162 64.311 42.866 64.23 42.234 64.036 41.612 63.851 41.183 63.597 40.918 63.21 40.826 62.78 40.704 62.24 40.551 61.485 40.622 60.597 46.234 41.173 46.652 40.368 47.192 39.826 47.581 39.418 47.887 39.103 48.325 38.908 48.825 38.939 49.448 39.122 50.09 39.307 50.375 39.389 50.671 39.481 51.314 39.664 51.947 39.847 52.375 40.082 52.64 40.479 52.732 40.918 52.854 41.469 53.008 42.215 52.936 43.101 47.326 62.536"/>
 <polygon stroke="#131516" stroke-width="0.347" stroke-linecap="butt" points="47.326 32.89 46.896 33.686 46.345 34.237 45.959 34.645 45.662 34.96 45.234 35.145 44.734 35.124 44.101 34.941 43.459 34.756 43.162 34.664 42.866 34.584 42.234 34.399 41.612 34.206 41.183 33.972 40.918 33.584 40.826 33.145 40.704 32.594 40.551 31.85 40.622 30.961 46.234 11.528 46.652 10.742 47.192 10.201 47.581 9.804 47.887 9.487 48.325 9.294 48.825 9.294 49.448 9.477 50.09 9.66 50.375 9.753 50.671 9.833 51.314 10.018 51.947 10.211 52.375 10.457 52.64 10.855 52.732 11.272 52.854 11.823 53.008 12.567 52.936 13.455 47.326 32.89"/>
 <polygon stroke="#131516" stroke-width="0.347" stroke-linecap="butt" points="50.243 195.168 50.06 196.045 49.703 196.718 49.436 197.229 49.222 197.616 48.856 197.923 48.396 198.044 47.734 198.044 47.07 198.044 46.765 198.044 46.457 198.044 45.784 198.044 45.142 198.044 44.652 197.923 44.286 197.616 44.07 197.229 43.816 196.718 43.448 196.045 43.265 195.168 43.265 174.949 43.448 174.07 43.816 173.397 44.07 172.897 44.286 172.5 44.652 172.204 45.142 172.081 45.784 172.081 46.457 172.081 46.765 172.081 47.07 172.081 47.734 172.081 48.396 172.081 48.856 172.204 49.222 172.5 49.436 172.897 49.703 173.397 50.06 174.07 50.243 174.949 50.243 195.168"/>
 <polygon stroke="#131516" stroke-width="0.347" stroke-linecap="butt" points="58.17 195.168 57.985 196.045 57.628 196.718 57.363 197.229 57.159 197.616 56.792 197.923 56.313 198.044 55.659 198.044 54.996 198.044 54.691 198.044 54.384 198.044 53.712 198.044 53.069 198.044 52.579 197.923 52.222 197.616 52.029 197.229 51.753 196.718 51.375 196.045 51.182 195.168 51.182 174.949 51.375 174.07 51.753 173.397 52.029 172.897 52.222 172.5 52.579 172.204 53.069 172.081 53.712 172.081 54.384 172.081 54.691 172.081 54.996 172.081 55.659 172.081 56.313 172.081 56.792 172.204 57.159 172.5 57.363 172.897 57.628 173.397 57.985 174.07 58.17 174.949 58.17 195.168"/>
 <polygon stroke="#131516" stroke-width="0.347" stroke-linecap="butt" points="106.659 166.441 106.474 167.328 106.117 168.001 105.852 168.501 105.649 168.889 105.292 169.194 104.802 169.317 104.149 169.317 103.486 169.317 103.18 169.317 102.873 169.317 102.21 169.317 101.558 169.317 101.067 169.194 100.71 168.889 100.516 168.501 100.242 168.001 99.864 167.328 99.67 166.441 99.67 146.221 99.864 145.342 100.242 144.68 100.516 144.191 100.71 143.802 101.067 143.497 101.558 143.384 102.21 143.384 102.873 143.384 103.18 143.384 103.486 143.384 104.149 143.384 104.802 143.384 105.292 143.497 105.649 143.802 105.852 144.191 106.117 144.68 106.474 145.342 106.659 146.221 106.659 166.441"/>
 <polygon stroke="#131516" stroke-width="0.347" stroke-linecap="butt" points="98.731 166.441 98.548 167.328 98.191 168.001 97.926 168.501 97.712 168.889 97.343 169.194 96.885 169.317 96.221 169.317 95.558 169.317 95.253 169.317 94.947 169.317 94.274 169.317 93.631 169.317 93.141 169.194 92.774 168.889 92.56 168.501 92.305 168.001 91.938 167.328 91.754 166.441 91.754 146.221 91.938 145.342 92.305 144.68 92.56 144.191 92.774 143.802 93.141 143.497 93.631 143.384 94.274 143.384 94.947 143.384 95.253 143.384 95.558 143.384 96.221 143.384 96.885 143.384 97.343 143.497 97.712 143.802 97.926 144.191 98.191 144.68 98.548 145.342 98.731 146.221 98.731 166.441"/>
 <polygon stroke="#131516" stroke-width="0.347" stroke-linecap="butt" points="106.659 166.441 106.474 167.328 106.117 168.001 105.852 168.501 105.649 168.889 105.292 169.194 104.802 169.317 104.149 169.317 103.486 169.317 103.18 169.317 102.873 169.317 102.21 169.317 101.558 169.317 101.067 169.194 100.71 168.889 100.516 168.501 100.242 168.001 99.864 167.328 99.67 166.441 99.67 146.221 99.864 145.342 100.242 144.68 100.516 144.191 100.71 143.802 101.067 143.497 101.558 143.384 102.21 143.384 102.873 143.384 103.18 143.384 103.486 143.384 104.149 143.384 104.802 143.384 105.292 143.497 105.649 143.802 105.852 144.191 106.117 144.68 106.474 145.342 106.659 146.221 106.659 166.441"/>
 <polygon stroke="#131516" stroke-width="0.347" stroke-linecap="butt" points="103.74 134.008 103.311 134.794 102.781 135.336 102.394 135.733 102.078 136.05 101.65 136.243 101.15 136.212 100.516 136.05 99.885 135.866 99.599 135.783 99.302 135.703 98.661 135.519 98.028 135.324 97.599 135.069 97.323 134.682 97.231 134.264 97.12 133.713 96.966 132.959 97.037 132.05 102.649 112.615 103.078 111.831 103.618 111.29 103.995 110.891 104.302 110.575 104.74 110.391 105.24 110.412 105.873 110.596 106.516 110.78 106.811 110.871 107.096 110.953 107.73 111.126 108.361 111.299 108.79 111.555 109.055 111.953 109.147 112.391 109.26 112.933 109.423 113.677 109.352 114.575 103.74 134.008"/>
 <polygon stroke="#131516" stroke-width="0.347" stroke-linecap="butt" points="103.74 62.536 103.311 63.332 102.781 63.862 102.394 64.26 102.078 64.576 101.65 64.771 101.15 64.771 100.516 64.576 99.885 64.393 99.599 64.311 99.302 64.23 98.661 64.036 98.028 63.851 97.599 63.597 97.323 63.21 97.231 62.78 97.12 62.24 96.966 61.485 97.037 60.597 102.649 41.173 103.078 40.368 103.618 39.826 103.995 39.418 104.302 39.103 104.74 38.908 105.24 38.939 105.873 39.122 106.516 39.307 106.811 39.389 107.096 39.481 107.73 39.664 108.361 39.847 108.79 40.082 109.055 40.479 109.147 40.918 109.26 41.469 109.423 42.215 109.352 43.101 103.74 62.536"/>
 <polygon stroke="#131516" stroke-width="0.347" stroke-linecap="butt" points="103.74 32.89 103.311 33.686 102.781 34.237 102.394 34.645 102.078 34.96 101.65 35.145 101.15 35.124 100.516 34.941 99.885 34.756 99.599 34.664 99.302 34.584 98.661 34.399 98.028 34.206 97.599 33.972 97.323 33.584 97.231 33.145 97.12 32.594 96.966 31.85 97.037 30.961 102.649 11.528 103.078 10.742 103.618 10.201 103.995 9.804 104.302 9.487 104.74 9.294 105.24 9.294 105.873 9.477 106.516 9.66 106.811 9.753 107.096 9.833 107.73 10.018 108.361 10.211 108.79 10.457 109.055 10.855 109.147 11.272 109.26 11.823 109.423 12.567 109.352 13.455 103.74 32.89"/>
 <polygon stroke="#131516" stroke-width="0.347" stroke-linecap="butt" points="106.659 195.168 106.474 196.045 106.117 196.718 105.852 197.229 105.649 197.616 105.292 197.923 104.802 198.044 104.149 198.044 103.486 198.044 103.18 198.044 102.873 198.044 102.21 198.044 101.558 198.044 101.067 197.923 100.71 197.616 100.516 197.229 100.242 196.718 99.864 196.045 99.67 195.168 99.67 174.949 99.864 174.07 100.242 173.397 100.516 172.897 100.71 172.5 101.067 172.204 101.558 172.081 102.21 172.081 102.873 172.081 103.18 172.081 103.486 172.081 104.149 172.081 104.802 172.081 105.292 172.204 105.649 172.5 105.852 172.897 106.117 173.397 106.474 174.07 106.659 174.949 106.659 195.168"/>
 <polygon stroke="#131516" stroke-width="0.347" stroke-linecap="butt" points="98.731 195.168 98.548 196.045 98.191 196.718 97.926 197.229 97.712 197.616 97.343 197.923 96.885 198.044 96.221 198.044 95.558 198.044 95.253 198.044 94.947 198.044 94.274 198.044 93.631 198.044 93.141 197.923 92.774 197.616 92.56 197.229 92.305 196.718 91.938 196.045 91.754 195.168 91.754 174.949 91.938 174.07 92.305 173.397 92.56 172.897 92.774 172.5 93.141 172.204 93.631 172.081 94.274 172.081 94.947 172.081 95.253 172.081 95.558 172.081 96.221 172.081 96.885 172.081 97.343 172.204 97.712 172.5 97.926 172.897 98.191 173.397 98.548 174.07 98.731 174.949 98.731 195.168"/>
 <polygon stroke="#131516" stroke-width="0.347" stroke-linecap="butt" points="106.659 195.168 106.474 196.045 106.117 196.718 105.852 197.229 105.649 197.616 105.292 197.923 104.802 198.044 104.149 198.044 103.486 198.044 103.18 198.044 102.873 198.044 102.21 198.044 101.558 198.044 101.067 197.923 100.71 197.616 100.516 197.229 100.242 196.718 99.864 196.045 99.67 195.168 99.67 174.949 99.864 174.07 100.242 173.397 100.516 172.897 100.71 172.5 101.067 172.204 101.558 172.081 102.21 172.081 102.873 172.081 103.18 172.081 103.486 172.081 104.149 172.081 104.802 172.081 105.292 172.204 105.649 172.5 105.852 172.897 106.117 173.397 106.474 174.07 106.659 174.949 106.659 195.168"/>
 <path stroke="#131516" stroke-width="0.347" stroke-linecap="butt" fill="#FFFFFF" d="M64.341 206.217L64.341 206.032 64.341 205.481 64.341 204.594 64.341 203.381 64.341 201.86 64.341 200.055 64.341 197.973 64.341 195.647 64.341 193.086 64.341 190.312 64.341 187.343 64.341 184.191 64.341 180.885 64.341 177.437 64.341 173.856 64.341 170.185 64.341 166.419 64.341 162.593 64.341 158.717 64.341 154.8 64.341 150.883 64.341 146.965 64.341 143.068 64.341 139.211 64.341 135.426 64.341 131.713 64.341 128.092 64.341 124.593 64.341 121.227 64.341 118.013 64.341 114.972 64.341 112.117 64.341 109.463 64.341 107.046 64.341 104.862 64.341 102.954 64.341 101.313 64.341 99.977 64.341 98.956 64.341 98.272 64.341 97.936 64.331 97.549 64.311 96.731 64.281 95.528 64.23 93.957 64.168 92.049 64.087 89.816 64.004 87.296 63.914 84.51 63.811 81.48 63.698 78.246 63.587 74.819 63.465 71.237 63.332 67.515 63.198 63.679 63.067 59.761 62.923 55.783 62.79 51.762 62.649 47.743 62.506 43.744 62.372 39.786 62.24 35.899 62.107 32.104 61.975 28.422 61.853 24.902 61.74 21.545 61.628 18.382 61.526 15.445 61.435 12.762 61.343 10.355 61.271 8.243 61.21 6.458 61.158 5.028 61.128 3.968 61.097 3.315 61.097 3.091 63.78 3.02 63.79 3.243 63.822 3.897 63.851 4.948 63.902 6.386 63.975 8.172 64.046 10.282 64.138 12.691 64.23 15.384 64.341 18.321 64.453 21.484 64.576 24.841 64.709 28.37 64.841 32.042 64.974 35.848 65.117 39.735 65.26 43.704 65.403 47.703 65.546 51.732 65.688 55.741 65.831 59.731 65.974 63.648 66.106 67.483 66.239 71.218 66.371 74.808 66.495 78.236 66.606 81.471 66.718 84.501 66.811 87.286 66.903 89.805 66.974 92.04 67.045 93.957 67.096 95.528 67.126 96.731 67.158 97.549 67.168 97.936 67.168 98.272 67.168 98.956 67.168 99.977 67.168 101.313 67.168 102.954 67.168 104.862 67.168 107.046 67.168 109.463 67.168 112.117 67.168 114.972 67.168 118.013 67.168 121.227 67.168 124.593 67.168 128.092 67.168 131.713 67.168 135.426 67.168 139.211 67.168 143.068 67.168 146.965 67.168 150.883 67.168 154.8 67.168 158.717 67.168 162.593 67.168 166.419 67.168 170.185 67.168 173.856 67.168 177.437 67.168 180.885 67.168 184.191 67.168 187.343 67.168 190.312 67.168 193.086 67.168 195.647 67.168 197.973 67.168 200.055 67.168 201.86 67.168 203.381 67.168 204.594 67.168 205.481 67.168 206.032 67.168 206.217 64.341 206.217z"/>
 <polyline stroke="#131516" stroke-width="0.347" stroke-linecap="butt" points="82.531 198.473 80.623 199.819 74.911 199.819 69.147 199.819 67.239 198.473"/>
 <polyline stroke="#131516" stroke-width="0.347" stroke-linecap="butt" points="82.531 202.921 80.623 201.574 74.911 201.574 69.147 201.574 67.239 202.921"/>
 <polyline stroke="#131516" stroke-width="0.347" stroke-linecap="butt" points="82.531 144.975 80.623 146.323 74.911 146.323 69.147 146.323 67.239 144.975"/>
 <polyline stroke="#131516" stroke-width="0.347" stroke-linecap="butt" points="82.531 149.424 80.623 148.076 74.911 148.076 69.147 148.076 67.239 149.424"/>
 <polyline stroke="#131516" stroke-width="0.347" stroke-linecap="butt" points="82.99 85.724 80.879 87.224 74.911 87.224 68.891 87.224 66.78 85.724"/>
 <polyline stroke="#131516" stroke-width="0.347" stroke-linecap="butt" points="82.787 90.316 80.879 88.968 74.911 88.968 68.891 88.968 66.983 90.316"/>
 <path stroke="#131516" stroke-width="0.347" stroke-linecap="butt" fill="#FFFFFF" d="M85.429 206.217L85.429 206.032 85.429 205.481 85.429 204.594 85.429 203.381 85.429 201.86 85.429 200.055 85.429 197.973 85.429 195.647 85.429 193.086 85.429 190.312 85.429 187.343 85.429 184.191 85.429 180.885 85.429 177.437 85.429 173.856 85.429 170.185 85.429 166.419 85.429 162.593 85.429 158.717 85.429 154.8 85.429 150.883 85.429 146.965 85.429 143.068 85.429 139.211 85.429 135.426 85.429 131.713 85.429 128.092 85.429 124.593 85.429 121.227 85.429 118.013 85.429 114.972 85.429 112.117 85.429 109.463 85.429 107.046 85.429 104.862 85.429 102.954 85.429 101.313 85.429 99.977 85.429 98.956 85.429 98.272 85.429 97.936 85.429 97.549 85.459 96.731 85.489 95.528 85.54 93.957 85.602 92.049 85.683 89.816 85.766 87.296 85.856 84.51 85.959 81.48 86.072 78.246 86.183 74.819 86.305 71.237 86.438 67.515 86.572 63.679 86.703 59.761 86.846 55.783 86.98 51.762 87.121 47.743 87.265 43.744 87.397 39.786 87.53 35.899 87.662 32.104 87.796 28.422 87.918 24.902 88.03 21.545 88.143 18.382 88.245 15.445 88.335 12.762 88.427 10.355 88.5 8.243 88.561 6.458 88.611 5.028 88.641 3.968 88.673 3.315 88.673 3.091 85.989 3.02 85.98 3.243 85.948 3.897 85.918 4.948 85.867 6.386 85.796 8.172 85.724 10.282 85.632 12.691 85.54 15.384 85.429 18.321 85.316 21.484 85.194 24.841 85.061 28.37 84.929 32.042 84.796 35.848 84.653 39.735 84.51 43.704 84.367 47.703 84.224 51.732 84.081 55.741 83.938 59.731 83.796 63.648 83.653 67.483 83.521 71.218 83.399 74.808 83.275 78.236 83.164 81.471 83.052 84.501 82.959 87.286 82.867 89.805 82.796 92.04 82.724 93.957 82.674 95.528 82.634 96.731 82.612 97.549 82.602 97.936 82.602 98.272 82.602 98.956 82.602 99.977 82.602 101.313 82.602 102.954 82.602 104.862 82.602 107.046 82.602 109.463 82.602 112.117 82.602 114.972 82.602 118.013 82.602 121.227 82.602 124.593 82.602 128.092 82.602 131.713 82.602 135.426 82.602 139.211 82.602 143.068 82.602 146.965 82.602 150.883 82.602 154.8 82.602 158.717 82.602 162.593 82.602 166.419 82.602 170.185 82.602 173.856 82.602 177.437 82.602 180.885 82.602 184.191 82.602 187.343 82.602 190.312 82.602 193.086 82.602 195.647 82.602 197.973 82.602 200.055 82.602 201.86 82.602 203.381 82.602 204.594 82.602 205.481 82.602 206.032 82.602 206.217 85.429 206.217z"/>
 <path stroke="#131516" stroke-width="0.347" stroke-linecap="butt" fill="#FFFFFF" d="M47.326 19.301L40.95 19.301 40.95 12.894 47.326 12.894 47.326 19.301z"/>
 <text x="42.725" y="17.853" stroke="none" fill="#131516" font-family="'Arial'" font-size="4.996">1</text>
 <path stroke="#131516" stroke-width="0.347" stroke-linecap="butt" fill="#FFFFFF" d="M110.75 19.301L104.373 19.301 104.373 12.894 110.75 12.894 110.75 19.301z"/>
 <text x="106.149" y="17.853" stroke="none" fill="#131516" font-family="'Arial'" font-size="4.996">2</text>
 <path stroke="#131516" stroke-width="0.347" stroke-linecap="butt" fill="#FFFFFF" d="M47.326 48.814L40.95 48.814 40.95 42.439 47.326 42.439 47.326 48.814z"/>
 <text x="42.725" y="47.396" stroke="none" fill="#131516" font-family="'Arial'" font-size="4.996">3</text>
 <path stroke="#131516" stroke-width="0.347" stroke-linecap="butt" fill="#FFFFFF" d="M110.75 48.814L104.373 48.814 104.373 42.439 110.75 42.439 110.75 48.814z"/>
 <text x="106.149" y="47.396" stroke="none" fill="#131516" font-family="'Arial'" font-size="4.996">4</text>
 <path stroke="#131516" stroke-width="0.347" stroke-linecap="butt" fill="#FFFFFF" d="M47.326 121.379L40.95 121.379 40.95 115.004 47.326 115.004 47.326 121.379z"/>
 <text x="42.725" y="119.93" stroke="none" fill="#131516" font-family="'Arial'" font-size="4.996">5</text>
 <path stroke="#131516" stroke-width="0.347" stroke-linecap="butt" fill="#FFFFFF" d="M110.75 121.379L104.373 121.379 104.373 115.004 110.75 115.004 110.75 121.379z"/>
 <text x="106.149" y="119.93" stroke="none" fill="#131516" font-family="'Arial'" font-size="4.996">6</text>
 <path stroke="#131516" stroke-width="0.347" stroke-linecap="butt" fill="#FFFFFF" d="M45.723 153.413L39.347 153.413 39.347 147.037 45.723 147.037 45.723 153.413z"/>
 <text x="41.103" y="151.995" stroke="none" fill="#131516" font-family="'Arial'" font-size="4.996">7</text>
 <path stroke="#131516" stroke-width="0.347" stroke-linecap="butt" fill="#FFFFFF" d="M61.189 153.413L54.823 153.413 54.823 147.037 61.189 147.037 61.189 153.413z"/>
 <text x="56.598" y="151.995" stroke="none" fill="#131516" font-family="'Arial'" font-size="4.996">8</text>
 <path stroke="#131516" stroke-width="0.347" stroke-linecap="butt" fill="#FFFFFF" d="M110.75 153.413L104.373 153.413 104.373 147.037 110.75 147.037 110.75 153.413z"/>
 <text x="104.525" y="151.995" stroke="none" fill="#131516" font-family="'Arial'" font-size="4.996">10</text>
 <path stroke="#131516" stroke-width="0.347" stroke-linecap="butt" fill="#FFFFFF" d="M45.723 182.242L39.347 182.242 39.347 175.866 45.723 175.866 45.723 182.242z"/>
 <text x="39.5" y="180.814" stroke="none" fill="#131516" font-family="'Arial'" font-size="4.996">11</text>
 <path stroke="#131516" stroke-width="0.347" stroke-linecap="butt" fill="#FFFFFF" d="M61.189 182.242L54.823 182.242 54.823 175.866 61.189 175.866 61.189 182.242z"/>
 <text x="54.966" y="180.814" stroke="none" fill="#131516" font-family="'Arial'" font-size="4.996">12</text>
 <path stroke="#131516" stroke-width="0.347" stroke-linecap="butt" fill="#FFFFFF" d="M95.131 182.242L88.754 182.242 88.754 175.866 95.131 175.866 95.131 182.242z"/>
 <text x="88.908" y="180.814" stroke="none" fill="#131516" font-family="'Arial'" font-size="4.996">13</text>
 <path stroke="#131516" stroke-width="0.347" stroke-linecap="butt" fill="#FFFFFF" d="M110.626 182.242L104.251 182.242 104.251 175.866 110.626 175.866 110.626 182.242z"/>
 <text x="104.403" y="180.814" stroke="none" fill="#131516" font-family="'Arial'" font-size="4.996">14</text>
 <path stroke="#131516" stroke-width="0.347" stroke-linecap="butt" fill="#FFFFFF" d="M95.182 153.413L88.805 153.413 88.805 147.037 95.182 147.037 95.182 153.413z"/>
 <text x="90.581" y="151.995" stroke="none" fill="#131516" font-family="'Arial'" font-size="4.996">9</text>
 <text x="117.573" y="16.577" stroke="none" fill="#131516" font-family="'Arial'" font-size="4.996">.....................</text>
 <text x="117.573" y="23.28" stroke="none" fill="#131516" font-family="'Arial'" font-size="4.996">.....................</text>
 <text x="117.573" y="29.983" stroke="none" fill="#131516" font-family="'Arial'" font-size="4.996">.....................</text>
 <text x="117.573" y="46.509" stroke="none" fill="#131516" font-family="'Arial'" font-size="4.996">.....................</text>
 <text x="117.573" y="53.212" stroke="none" fill="#131516" font-family="'Arial'" font-size="4.996">.....................</text>
 <text x="117.573" y="59.914" stroke="none" fill="#131516" font-family="'Arial'" font-size="4.996">.....................</text>
 <text x="117.573" y="117.319" stroke="none" fill="#131516" font-family="'Arial'" font-size="4.996">.....................</text>
 <text x="117.573" y="124.022" stroke="none" fill="#131516" font-family="'Arial'" font-size="4.996">.....................</text>
 <text x="117.573" y="130.723" stroke="none" fill="#131516" font-family="'Arial'" font-size="4.996">.....................</text>
 <text x="5.397" y="16.577" stroke="none" fill="#131516" font-family="'Arial'" font-size="4.996">.....................</text>
 <text x="5.397" y="23.28" stroke="none" fill="#131516" font-family="'Arial'" font-size="4.996">.....................</text>
 <text x="5.397" y="29.983" stroke="none" fill="#131516" font-family="'Arial'" font-size="4.996">.....................</text>
 <text x="5.397" y="46.509" stroke="none" fill="#131516" font-family="'Arial'" font-size="4.996">.....................</text>
 <text x="5.397" y="53.212" stroke="none" fill="#131516" font-family="'Arial'" font-size="4.996">.....................</text>
 <text x="5.397" y="59.914" stroke="none" fill="#131516" font-family="'Arial'" font-size="4.996">.....................</text>
 <text x="5.397" y="117.319" stroke="none" fill="#131516" font-family="'Arial'" font-size="4.996">.....................</text>
 <text x="5.397" y="124.022" stroke="none" fill="#131516" font-family="'Arial'" font-size="4.996">.....................</text>
 <text x="5.397" y="130.723" stroke="none" fill="#131516" font-family="'Arial'" font-size="4.996">.....................</text>
 <text x="5.397" y="149.576" stroke="none" fill="#131516" font-family="'Arial'" font-size="4.996">........     ........</text>
 <text x="5.397" y="156.28" stroke="none" fill="#131516" font-family="'Arial'" font-size="4.996">........     ........</text>
 <text x="5.397" y="162.981" stroke="none" fill="#131516" font-family="'Arial'" font-size="4.996">........     ........</text>
 <text x="5.397" y="178.508" stroke="none" fill="#131516" font-family="'Arial'" font-size="4.996">........     ........</text>
 <text x="5.397" y="185.211" stroke="none" fill="#131516" font-family="'Arial'" font-size="4.996">........     ........</text>
 <text x="5.397" y="191.913" stroke="none" fill="#131516" font-family="'Arial'" font-size="4.996">........     ........</text>
 <text x="117.573" y="149.576" stroke="none" fill="#131516" font-family="'Arial'" font-size="4.996">........     ........</text>
 <text x="117.573" y="156.28" stroke="none" fill="#131516" font-family="'Arial'" font-size="4.996">........     ........</text>
 <text x="117.573" y="162.981" stroke="none" fill="#131516" font-family="'Arial'" font-size="4.996">........     ........</text>
 <text x="117.573" y="178.508" stroke="none" fill="#131516" font-family="'Arial'" font-size="4.996">........     ........</text>
 <text x="117.573" y="185.211" stroke="none" fill="#131516" font-family="'Arial'" font-size="4.996">........     ........</text>
 <text x="117.573" y="191.913" stroke="none" fill="#131516" font-family="'Arial'" font-size="4.996">........     ........</text>
 <text x="5.671" y="15.435" stroke="none" fill="#131516" font-family="'Arial'" font-size="4.996">A</text>
 <text x="5.671" y="22.291" stroke="none" fill="#131516" font-family="'Arial'" font-size="4.996">B</text>
 <text x="5.671" y="29.033" stroke="none" fill="#131516" font-family="'Arial'" font-size="4.996">C</text>
 <text x="5.671" y="45.345" stroke="none" fill="#131516" font-family="'Arial'" font-size="4.996">A</text>
 <text x="5.671" y="52.192" stroke="none" fill="#131516" font-family="'Arial'" font-size="4.996">B</text>
 <text x="5.671" y="58.945" stroke="none" fill="#131516" font-family="'Arial'" font-size="4.996">C</text>
 <text x="118.105" y="15.435" stroke="none" fill="#131516" font-family="'Arial'" font-size="4.996">A</text>
 <text x="118.105" y="22.291" stroke="none" fill="#131516" font-family="'Arial'" font-size="4.996">B</text>
 <text x="118.105" y="29.033" stroke="none" fill="#131516" font-family="'Arial'" font-size="4.996">C</text>
 <text x="118.105" y="45.345" stroke="none" fill="#131516" font-family="'Arial'" font-size="4.996">A</text>
 <text x="118.105" y="52.192" stroke="none" fill="#131516" font-family="'Arial'" font-size="4.996">B</text>
 <text x="118.105" y="58.945" stroke="none" fill="#131516" font-family="'Arial'" font-size="4.996">C</text>
 <text x="5.671" y="116.218" stroke="none" fill="#131516" font-family="'Arial'" font-size="4.996">A</text>
 <text x="5.671" y="123.072" stroke="none" fill="#131516" font-family="'Arial'" font-size="4.996">B</text>
 <text x="5.671" y="129.826" stroke="none" fill="#131516" font-family="'Arial'" font-size="4.996">C</text>
 <text x="118.105" y="116.218" stroke="none" fill="#131516" font-family="'Arial'" font-size="4.996">A</text>
 <text x="118.105" y="123.072" stroke="none" fill="#131516" font-family="'Arial'" font-size="4.996">B</text>
 <text x="118.105" y="129.826" stroke="none" fill="#131516" font-family="'Arial'" font-size="4.996">C</text>
 <text x="5.671" y="148.403" stroke="none" fill="#131516" font-family="'Arial'" font-size="4.996">A</text>
 <text x="5.671" y="155.258" stroke="none" fill="#131516" font-family="'Arial'" font-size="4.996">B</text>
 <text x="5.671" y="162.002" stroke="none" fill="#131516" font-family="'Arial'" font-size="4.996">C</text>
 <text x="118.105" y="148.403" stroke="none" fill="#131516" font-family="'Arial'" font-size="4.996">A</text>
 <text x="118.105" y="155.258" stroke="none" fill="#131516" font-family="'Arial'" font-size="4.996">B</text>
 <text x="118.105" y="162.002" stroke="none" fill="#131516" font-family="'Arial'" font-size="4.996">C</text>
 <text x="5.671" y="177.305" stroke="none" fill="#131516" font-family="'Arial'" font-size="4.996">A</text>
 <text x="5.671" y="184.151" stroke="none" fill="#131516" font-family="'Arial'" font-size="4.996">B</text>
 <text x="5.671" y="190.903" stroke="none" fill="#131516" font-family="'Arial'" font-size="4.996">C</text>
 <text x="118.105" y="177.305" stroke="none" fill="#131516" font-family="'Arial'" font-size="4.996">A</text>
 <text x="118.105" y="184.151" stroke="none" fill="#131516" font-family="'Arial'" font-size="4.996">B</text>
 <text x="118.105" y="190.903" stroke="none" fill="#131516" font-family="'Arial'" font-size="4.996">C</text>
 <text x="23.137" y="148.403" stroke="none" fill="#131516" font-family="'Arial'" font-size="4.996">A</text>
 <text x="23.137" y="155.258" stroke="none" fill="#131516" font-family="'Arial'" font-size="4.996">B</text>
 <text x="23.137" y="162.002" stroke="none" fill="#131516" font-family="'Arial'" font-size="4.996">C</text>
 <text x="135.569" y="148.403" stroke="none" fill="#131516" font-family="'Arial'" font-size="4.996">A</text>
 <text x="135.569" y="155.258" stroke="none" fill="#131516" font-family="'Arial'" font-size="4.996">B</text>
 <text x="135.569" y="162.002" stroke="none" fill="#131516" font-family="'Arial'" font-size="4.996">C</text>
 <text x="23.137" y="177.305" stroke="none" fill="#131516" font-family="'Arial'" font-size="4.996">A</text>
 <text x="23.137" y="184.151" stroke="none" fill="#131516" font-family="'Arial'" font-size="4.996">B</text>
 <text x="23.137" y="190.903" stroke="none" fill="#131516" font-family="'Arial'" font-size="4.996">C</text>
 <text x="135.569" y="177.305" stroke="none" fill="#131516" font-family="'Arial'" font-size="4.996">A</text>
 <text x="135.569" y="184.151" stroke="none" fill="#131516" font-family="'Arial'" font-size="4.996">B</text>
 <text x="135.569" y="190.903" stroke="none" fill="#131516" font-family="'Arial'" font-size="4.996">C</text>
</svg>
