<?xml version="1.0" encoding="utf-8"?>
<!DOCTYPE svg PUBLIC "-//W3C//DTD SVG 1.1//EN" "http://www.w3.org/Graphics/SVG/1.1/DTD/svg11.dtd">
<!-- Generator: PTC Arbortext IsoDraw 7.3 -->
<svg width="100%" height="100%" viewBox="0 0 75.121 77.688"
 xmlns="http://www.w3.org/2000/svg" xmlns:xlink="http://www.w3.org/1999/xlink"
 fill-rule="evenodd" clip-rule="evenodd" stroke="#000000" stroke-linecap="round" fill="none" xml:space="preserve">
 <g id="Frame">
  <path stroke="none" fill="#FFFFFF" d="M75 77.688L0 77.688 0 0.556 75 0.556 75 77.688z"/>
 </g>
 <g id="Colour">
 </g>
 <g id="Standard_x0020_layer">
  <g>
   <g>
    <path stroke-width="0.349" stroke-linejoin="round" d="M63.165 24.195L63.53 24.195L63.53 27.425L65.018 27.425L65.018 25.339L66.009 25.339C66.009 25.339 66.581 27.425 67.286 27.425C67.99 27.425 68.408 27.425 68.408 27.425C68.408 27.425 68.408 26.147 68.408 25.783C68.408 25.417 69.215 25.234 69.399 25.809C69.581 26.382 70.337 27.687 70.703 27.687C71.067 27.687 71.772 27.687 71.772 27.687L71.772 16.106C71.772 16.106 71.067 16.106 70.703 16.106C70.337 16.106 69.581 17.411 69.399 17.984C69.215 18.559 68.408 18.376 68.408 18.01C68.408 17.646 68.408 16.367 68.408 16.367C68.408 16.367 67.99 16.367 67.286 16.367C66.581 16.367 66.009 18.454 66.009 18.454L65.018 18.454L65.018 16.367L63.53 16.367L63.53 19.599L63.165 19.599"/>
    <path stroke-width="0.349" stroke-linejoin="round" d="M58.764 25.321L58.764 25.736L59.798 25.736L59.798 25.321"/>
    <path stroke-width="0.201" stroke-linejoin="round" d="M63.53 19.599L63.53 24.195"/>
    <path stroke-width="0.201" stroke-linejoin="round" d="M65.018 18.454L65.018 25.339"/>
    <path stroke-width="0.13" stroke-linejoin="round" d="M66.009 18.454L66.009 25.339"/>
    <path stroke-width="0.201" stroke-linejoin="round" d="M68.304 18.01L68.304 25.783"/>
    <path stroke-width="0.13" stroke-linejoin="round" d="M69.399 17.984L69.399 25.809"/>
    <path stroke-width="0.349" stroke-linejoin="round" d="M74.947 18.556C74.947 18.556 72.137 18.556 71.772 18.556"/>
    <path stroke-width="0.349" stroke-linejoin="round" d="M71.772 24.402C72.137 24.402 74.947 24.402 74.947 24.402"/>
    <path stroke-width="0.13" stroke-linejoin="round" d="M70.703 16.106L70.703 27.687"/>
    <path stroke-width="0.13" stroke-linejoin="round" d="M67.286 16.367L67.286 27.425"/>
   </g>
   <path stroke="none" fill="#CCCCCC" d="M16.004 62.698C16.687 63.095 16.731 63.823 16.731 63.823 17.083 63.271 18.385 63.161 18.385 63.161 18.649 63.161 18.716 63.646 18.716 63.646 18.716 63.646 18.76 64.219 19.266 63.713 19.774 63.206 20.39 63.25 20.853 63.161 21.449 63.183 21.803 63.515 22.111 63.228 22.42 62.941 22.861 63.161 23.125 63.03 23.39 62.896 23.39 62.743 23.94 62.633L23.94 62.606C24.373 62.567 24.832 62.545 25.307 62.545 27.734 62.545 30.158 63.823 30.158 67.263 30.158 70.701 28.306 72.95 25.263 73.304 22.221 73.656 20.853 73.391 19.62 73.391 18.385 73.391 17.018 73.656 13.974 73.304 10.932 72.95 9.08 70.701 9.08 67.263 9.08 63.823 11.506 62.545 13.931 62.545 14.675 62.545 15.381 62.603 16.004 62.682L16.004 62.698z"/>
   <path stroke="none" fill="#CCCCCC" d="M17.62 49.564C15.21 49.564 9.801 49.448 6.86 46.918 3.921 44.39 3.391 36.805 8.625 36.805 13.858 36.805 15.503 42.451 15.503 42.451L17.62 42.451 19.736 42.451C19.736 42.451 21.384 36.805 26.617 36.805 31.849 36.805 31.32 44.39 28.379 46.918 25.44 49.448 20.03 49.564 17.62 49.564z"/>
   <g>
    <g>
     <text x="39.317" y="36.789" stroke="none" fill="#000000" font-family="'Arial'" font-size="5.98">3</text>
    </g>
   </g>
   <g>
    <g>
     <text x="42.139" y="6.331" stroke="none" fill="#000000" font-family="'Arial'" font-size="5.98">1</text>
    </g>
   </g>
   <g>
    <g>
     <text x="62.835" y="6.331" stroke="none" fill="#000000" font-family="'Arial'" font-size="5.98">2</text>
    </g>
   </g>
   <g>
    <g>
     <text x="34.378" y="60.072" stroke="none" fill="#000000" font-family="'Arial'" font-size="5.98">4</text>
    </g>
   </g>
   <g>
    <g>
     <text x="68.009" y="63.6" stroke="none" fill="#000000" font-family="'Arial'" font-size="5.98">5</text>
    </g>
   </g>
   <path stroke-width="0.25" stroke-linejoin="round" d="M17.275 17.807L14.305 17.807L14.305 19.483L5.245 19.483L5.245 17.807L2.274 17.807C1.819 17.807 1.742 18.111 1.742 18.568L1.742 23.365C1.742 23.823 1.819 24.128 2.274 24.128C2.274 24.128 54.204 24.128 55.271 24.128C56.337 24.128 56.337 25.269 57.25 25.269C58.164 25.269 63.113 25.269 63.113 25.269C63.113 25.269 63.113 20.03 63.113 19.039C63.113 18.05 62.505 17.364 61.972 17.364L59.991 17.364C59.457 17.364 58.85 18.05 58.85 19.039C58.85 19.039 58.85 21.843 58.85 22.3C58.85 22.757 58.621 23.06 58.164 23.06C57.707 23.06 56.566 23.06 56.109 23.06C55.652 23.06 55.499 22.757 55.499 22.147C55.499 21.539 55.499 20.167 55.499 20.167L54.509 20.167C54.509 20.167 54.509 22.071 54.509 22.605C54.509 23.138 53.671 23.289 53.139 23.289C52.606 23.289 51.729 22.605 50.512 22.605C49.293 22.605 48.417 23.289 47.884 23.289C47.351 23.289 46.515 23.138 46.515 22.605C46.515 22.071 46.515 20.167 46.515 20.167L45.524 20.167C45.524 20.167 45.524 20.625 45.524 21.234C45.524 21.614 44.991 21.69 44.229 21.69C43.469 21.69 42.326 21.309 42.326 20.625C42.326 19.94 42.326 17.807 42.326 17.807L43.393 17.807L43.393 15.066C43.393 15.066 33.189 15.066 32.581 15.066C31.971 15.066 32.124 14.532 31.591 14.532C31.057 14.532 20.169 14.532 19.559 14.532C18.951 14.532 18.646 15.143 18.646 15.98C18.646 16.818 18.646 19.786 18.646 20.32C18.646 20.853 16.818 20.777 16.818 20.32C16.818 19.862 16.818 17.96 16.818 17.96"/>
   <path stroke-width="0.201" stroke-linejoin="round" d="M22.149 19.862L22.149 15.752L30.753 15.752L30.753 18.111L22.149 19.862z"/>
   <path stroke-width="0.25" stroke-linejoin="round" d="M5.397 18.492C5.397 18.492 7.833 18.492 8.9 18.492C9.965 18.492 11.183 17.731 12.478 17.731C13.772 17.731 14.153 18.111 14.153 18.111"/>
   <path stroke-width="0.201" stroke-linejoin="round" d="M16.742 18.492L14.381 18.492"/>
   <path stroke-width="0.25" stroke-linejoin="round" d="M8.672 18.568L8.672 19.407"/>
   <path stroke-width="0.349" stroke-linejoin="round" d="M44.71 21.666L44.71 20.783L45.417 20.783"/>
   <path stroke-width="0.349" stroke-linejoin="round" d="M46.563 20.783L54.411 20.783"/>
   <path stroke-width="0.349" stroke-linejoin="round" d="M55.597 20.783L56.304 20.783C57.036 20.783 57.572 20.42 57.572 20.42"/>
   <path stroke-width="0.25" stroke-linejoin="round" d="M17.562 53.093C3.686 53.093 0.629 46.213 0.629 41.392C0.629 38.628 2.569 33.338 8.272 33.338C13.974 33.338 17.62 37.218 17.62 38.805C17.62 37.218 21.265 33.338 26.969 33.338C32.673 33.338 34.612 38.628 34.612 41.392C34.612 46.213 31.554 53.093 17.678 53.093"/>
   <path stroke-width="0.131" stroke-linejoin="round" d="M17.62 49.564C15.21 49.564 9.801 49.448 6.86 46.918C3.921 44.39 3.391 36.805 8.625 36.805C13.858 36.805 15.503 42.451 15.503 42.451L17.62 42.451L19.736 42.451C19.736 42.451 21.384 36.805 26.617 36.805C31.849 36.805 31.32 44.39 28.379 46.918C25.44 49.448 20.03 49.564 17.62 49.564z"/>
   <path stroke-width="0.131" stroke-linejoin="round" d="M17.62 42.451L17.62 38.805"/>
   <path stroke-width="0.131" stroke-linejoin="round" d="M5.214 38.893C6.184 38.923 7.155 39.07 7.596 39.276C8.037 39.481 8.183 39.746 8.801 39.746C9.417 39.746 10.917 39.393 11.24 38.746C11.564 38.1 11.622 37.63 11.622 37.63"/>
   <path stroke-width="0.131" stroke-linejoin="round" d="M10.564 39.304C11.211 39.098 13.387 39.804 13.945 41.069"/>
   <path stroke-width="0.131" stroke-linejoin="round" d="M14.65 40.686C14.151 40.862 12.887 41.686 12.887 42.097C12.887 42.509 13.005 43.362 14.503 44.243C16.004 45.125 17.649 44.39 17.649 43.597C17.649 42.804 17.649 42.509 17.649 42.509"/>
   <path stroke-width="0.131" stroke-linejoin="round" d="M8.448 39.804C7.948 40.274 7.508 41.481 8.066 42.039C8.625 42.597 9.182 43.067 10.035 42.832C10.888 42.597 12.798 42.128 12.798 42.128"/>
   <path stroke-width="0.131" stroke-linejoin="round" d="M7.772 41.744C6.948 41.686 5.419 42.362 4.979 43.597"/>
   <path stroke-width="0.131" stroke-linejoin="round" d="M9.566 42.92C9.212 43.567 8.859 44.625 9.182 45.773"/>
   <path stroke-width="0.131" stroke-linejoin="round" d="M6.301 46.332C6.301 45.832 6.919 45.332 7.448 45.185C7.977 45.037 8.653 45.42 9.066 45.743C9.477 46.067 10.182 45.89 10.535 46.332C10.888 46.773 10.8 47.067 10.682 47.301"/>
   <path stroke-width="0.131" stroke-linejoin="round" d="M13.534 43.567C13.974 44.185 13.916 45.773 12.24 46.42"/>
   <path stroke-width="0.131" stroke-linejoin="round" d="M15.445 44.625C16.12 44.89 16.679 45.45 16.679 46.36C16.679 47.271 15.445 47.448 15.445 47.448C15.15 46.448 14.034 46.273 12.475 46.39C10.917 46.508 10.33 47.771 9.948 48.506"/>
   <path stroke-width="0.131" stroke-linejoin="round" d="M15.445 47.448C15.003 47.948 14.21 48.625 14.21 49.359"/>
   <path stroke-width="0.131" stroke-linejoin="round" d="M19.326 42.479C19.295 42.892 19.707 44.243 20.589 44.215C21.472 44.185 22.03 43.509 22.471 42.774C22.911 42.039 22.617 41.862 22.617 41.862C22.617 41.862 20.942 41.098 20.649 40.628"/>
   <path stroke-width="0.131" stroke-linejoin="round" d="M21.442 41.186C21.736 40.656 22.618 39.863 23.265 39.628C23.911 39.393 24.205 39.423 24.294 39.07C24.382 38.716 23.911 37.805 23.411 37.658"/>
   <path stroke-width="0.131" stroke-linejoin="round" d="M24.294 39.158C24.823 39.628 26.015 39.84 26.852 39.598C28.379 39.158 29.762 39.158 29.908 38.776"/>
   <path stroke-width="0.131" stroke-linejoin="round" d="M27.175 39.511C27.146 40.07 26.998 41.156 27.85 41.716C28.704 42.274 29.202 42.392 29.468 42.892C29.733 43.392 29.644 43.686 30.233 43.597"/>
   <path stroke-width="0.131" stroke-linejoin="round" d="M27.644 41.597C27.527 41.979 26.852 42.804 25.588 42.804C24.324 42.804 23.353 42.567 22.647 41.951"/>
   <path stroke-width="0.131" stroke-linejoin="round" d="M25.734 42.832C25.704 43.362 26.175 44.537 26.204 45.067C26.234 45.595 25.792 45.92 25.175 46.273C24.559 46.625 24.469 47.271 23.765 46.801C23.059 46.331 21.853 46.095 21.559 45.478C21.265 44.862 21.472 44.037 21.472 44.037"/>
   <path stroke-width="0.131" stroke-linejoin="round" d="M25.704 45.948C26.352 45.86 26.821 45.008 27.675 44.978C28.527 44.95 29.292 45.743 29.292 45.743"/>
   <path stroke-width="0.131" stroke-linejoin="round" d="M24.234 47.006C24.823 47.566 25.175 48.536 25.175 48.536"/>
   <path stroke-width="0.131" stroke-linejoin="round" d="M20.472 44.273C19.707 44.45 18.532 45.567 18.532 46.331C18.532 47.095 19.678 47.39 19.678 47.39C19.678 47.39 20.207 47.331 20.53 46.948C20.853 46.566 21.853 46.067 23.147 46.478"/>
   <path stroke-width="0.131" stroke-linejoin="round" d="M19.678 47.39C20.413 47.654 21.149 48.359 21.324 49.329"/>
   <path stroke-width="0.131" stroke-linejoin="round" d="M16.708 46.243C17.003 46.478 17.856 46.743 18.532 46.418"/>
   <path stroke-width="0.201" stroke-linejoin="round" d="M16.004 62.682C17.41 62.865 18.385 63.161 18.385 63.161"/>
   <path stroke-width="0.131" stroke-linejoin="round" d="M23.94 62.606C24.373 62.567 24.832 62.545 25.307 62.545C27.734 62.545 30.158 63.823 30.158 67.263C30.158 70.701 28.306 72.95 25.263 73.304C22.221 73.656 20.853 73.391 19.62 73.391C18.385 73.391 17.018 73.656 13.974 73.304C10.932 72.95 9.08 70.701 9.08 67.263C9.08 63.823 11.506 62.545 13.931 62.545C14.675 62.545 15.381 62.603 16.004 62.682"/>
   <path stroke-width="0.25" stroke-linejoin="round" d="M20.853 63.161C20.853 63.161 22.166 62.762 23.94 62.606"/>
   <path stroke-width="0.25" stroke-linejoin="round" d="M20.853 63.161L20.193 61.485C20.193 61.485 22.574 60.472 25.44 60.472C28.306 60.472 32.231 62.235 32.231 67.263C32.231 71.408 29.806 75.376 24.69 75.376L14.548 75.376C9.432 75.376 7.008 71.408 7.008 67.263C7.008 62.235 10.932 60.472 13.798 60.472C16.664 60.472 19.045 61.485 19.045 61.485L18.385 63.161"/>
   <path stroke-width="0.201" stroke-linejoin="round" d="M16.004 62.698C16.687 63.095 16.731 63.823 16.731 63.823C17.083 63.271 18.385 63.161 18.385 63.161C18.649 63.161 18.716 63.646 18.716 63.646C18.716 63.646 18.76 64.219 19.266 63.713C19.774 63.206 20.39 63.25 20.853 63.161"/>
   <path stroke-width="0.201" stroke-linejoin="round" d="M23.94 62.633C23.39 62.743 23.39 62.896 23.125 63.03C22.861 63.161 22.42 62.941 22.111 63.228C21.803 63.515 21.449 63.183 20.853 63.161"/>
   <path stroke-width="0.131" stroke-linejoin="round" d="M10.314 63.933C10.865 63.978 12.189 64.286 12.3 65.102C12.41 65.918 11.903 66.557 11.218 66.756C10.535 66.953 9.477 66.865 9.169 66.381"/>
   <path stroke-width="0.131" stroke-linejoin="round" d="M11.528 66.668C11.814 66.756 12.166 67.46 11.903 67.703C11.637 67.945 11.021 68.1 10.91 68.364C10.8 68.629 10.535 68.695 10.314 68.563C10.095 68.43 9.566 68.364 9.191 68.563"/>
   <path stroke-width="0.131" stroke-linejoin="round" d="M11.836 64.418C12.278 64.594 13.38 64.375 13.755 64.022C14.13 63.668 14.063 62.853 13.931 62.545"/>
   <path stroke-width="0.131" stroke-linejoin="round" d="M13.666 64.109C14.108 63.933 15.188 64.594 15.188 65.257C15.188 65.918 14.813 66.843 13.887 66.843C12.961 66.843 12.343 66.227 12.211 66.006"/>
   <path stroke-width="0.131" stroke-linejoin="round" d="M11.99 67.615C12.475 67.99 13.092 68.32 13.952 68.32C14.813 68.32 16.533 67.593 16.576 67.063C16.62 66.534 15.166 65.962 15.166 65.962"/>
   <path stroke-width="0.131" stroke-linejoin="round" d="M13.314 68.299C13.599 68.563 13.689 68.784 13.711 69.137C13.733 69.489 13.182 70.284 12.343 70.305C11.506 70.328 10.359 69.313 10.624 68.652"/>
   <path stroke-width="0.131" stroke-linejoin="round" d="M11.218 69.93C10.977 70.04 9.961 70.769 9.961 70.769"/>
   <path stroke-width="0.131" stroke-linejoin="round" d="M12.608 70.328C12.983 70.415 13.622 70.923 13.666 71.408C13.711 71.893 12.894 72.665 11.99 72.709"/>
   <path stroke-width="0.131" stroke-linejoin="round" d="M13.666 71.408C14.284 71.561 14.99 71.629 15.585 71.54C16.179 71.451 16.82 71.143 16.908 70.525C16.995 69.909 16.289 69.07 15.407 69.07C14.526 69.07 13.666 69.445 13.666 69.445"/>
   <path stroke-width="0.131" stroke-linejoin="round" d="M16.51 67.263C16.841 67.527 17.018 67.858 17.018 68.123C17.018 68.387 16.445 69.004 15.739 69.093"/>
   <path stroke-width="0.131" stroke-linejoin="round" d="M16.312 71.364C16.664 71.739 16.951 72.533 16.731 73.414"/>
   <path stroke-width="0.131" stroke-linejoin="round" d="M16.179 62.896C16.4 63.558 16.422 63.734 16.268 64.153C16.114 64.572 15.606 65.013 15.188 65.036"/>
   <path stroke-width="0.131" stroke-linejoin="round" d="M16.047 64.528C15.894 64.816 16.554 65.808 17.635 65.808C18.716 65.808 19.024 65.212 19.112 64.748C19.201 64.286 18.98 63.911 18.98 63.911"/>
   <path stroke-width="0.131" stroke-linejoin="round" d="M17.349 65.786C17.987 66.381 18.891 66.822 18.891 67.46C18.891 68.1 17.789 68.674 16.974 68.233"/>
   <path stroke-width="0.131" stroke-linejoin="round" d="M19.024 65.189C19.376 65.697 19.751 65.697 20.457 65.742C21.163 65.786 22.265 65.301 22.309 64.594C22.353 63.889 22.155 63.515 21.803 63.381"/>
   <path stroke-width="0.131" stroke-linejoin="round" d="M16.929 70.415C17.172 70.106 17.987 69.974 18.362 70.019C18.737 70.063 19.443 70.879 19.443 71.783C19.443 72.686 18.053 72.599 17.943 73.37"/>
   <path stroke-width="0.131" stroke-linejoin="round" d="M19.443 71.98C19.597 72.4 20.413 73.436 20.986 73.459"/>
   <path stroke-width="0.131" stroke-linejoin="round" d="M19.399 71.385C19.62 70.856 19.995 70.194 20.655 70.173C21.317 70.15 22.265 70.68 22.442 71.673C22.617 72.665 22.132 73.459 21.559 73.459"/>
   <path stroke-width="0.131" stroke-linejoin="round" d="M28.923 64.043C28.285 64.043 26.586 64.594 26.609 65.301C26.631 66.006 27.644 67.174 28.66 67.153C29.673 67.131 30.092 66.668 30.092 66.668"/>
   <path stroke-width="0.131" stroke-linejoin="round" d="M27.777 66.909C27.49 66.799 26.675 67.328 27.115 67.924C27.556 68.519 27.777 68.849 28.394 68.894C29.012 68.938 29.783 68.871 30.027 68.739"/>
   <path stroke-width="0.131" stroke-linejoin="round" d="M26.94 67.572C26.323 67.593 25.021 68.849 25.132 69.445C25.242 70.04 25.484 70.614 26.521 70.68C27.556 70.746 28.108 70.239 28.196 69.799C28.285 69.358 28.196 68.938 28.196 68.938"/>
   <path stroke-width="0.131" stroke-linejoin="round" d="M27.888 70.371L29.056 71.12"/>
   <path stroke-width="0.131" stroke-linejoin="round" d="M26.102 70.658C25.638 71.055 25.507 72.465 26.786 72.906"/>
   <path stroke-width="0.131" stroke-linejoin="round" d="M22.551 72.135C22.949 71.584 25.132 71.231 25.815 71.849"/>
   <path stroke-width="0.131" stroke-linejoin="round" d="M25.175 69.731C24.625 69.468 23.984 69.424 23.455 69.512C22.926 69.599 22.53 69.93 22.971 70.459C23.411 70.989 23.611 71.275 24.469 71.54"/>
   <path stroke-width="0.131" stroke-linejoin="round" d="M26.675 65.036C26.542 64.727 26.123 64.572 25.792 64.507C25.463 64.441 24.978 64.397 24.536 64.661C24.096 64.926 23.521 65.344 23.721 65.896C23.919 66.447 24.338 66.843 25.132 66.843C25.925 66.843 26.719 66.468 26.94 66.049"/>
   <path stroke-width="0.131" stroke-linejoin="round" d="M24.161 66.513C23.655 66.293 22.309 66.578 22.463 67.174C22.617 67.769 23.103 68.013 23.742 68.254C24.382 68.498 25.175 68.718 25.528 68.563"/>
   <path stroke-width="0.131" stroke-linejoin="round" d="M22.486 67.373C22.155 67.593 22.022 68.167 22.088 68.453C22.155 68.739 22.574 69.269 23.455 69.512"/>
   <path stroke-width="0.131" stroke-linejoin="round" d="M22.132 68.608C21.472 68.608 20.765 68.983 20.809 70.063"/>
   <path stroke-width="0.131" stroke-linejoin="round" d="M18.516 68.123C19.135 68.299 19.443 68.254 19.486 69.07C19.532 69.887 18.672 70.15 18.672 70.15"/>
   <path stroke-width="0.131" stroke-linejoin="round" d="M19.486 69.203C19.532 69.621 19.949 70.084 20.655 70.173"/>
   <path stroke-width="0.131" stroke-linejoin="round" d="M19.51 68.542C19.707 68.254 20.743 68.013 21.626 68.652"/>
   <path stroke-width="0.131" stroke-linejoin="round" d="M19.774 65.763C19.972 66.403 19.905 67.019 18.914 67.373"/>
   <path stroke-width="0.131" stroke-linejoin="round" d="M20.743 65.763C21.603 65.962 22.288 66.778 22.199 67.659"/>
   <path stroke-width="0.131" stroke-linejoin="round" d="M22.376 64.329C23.324 64.286 23.896 65.102 23.896 65.102"/>
   <path stroke-width="0.131" stroke-linejoin="round" d="M25.396 62.61C25.021 63.359 24.8 63.978 25.286 64.418"/>
   <path stroke-width="1.002" stroke-linecap="butt" stroke-linejoin="round" d="M29.144 59.795L8.272 76.787"/>
   <path stroke-width="1.002" stroke-linecap="butt" stroke-linejoin="round" d="M8.566 59.149L30.262 76.316"/>
   <path stroke-width="0.25" stroke-linejoin="round" d="M54.506 67.644L53.652 67.316C53.85 65.382 56.243 62.561 58.604 62.561C60.966 62.561 62.539 65.085 62.539 69.415C62.539 73.743 58.835 75.679 52.243 75.679C45.652 75.679 44.569 71.284 44.569 67.152C44.569 63.02 47.029 62.561 48.536 62.561C50.079 62.561 52.57 64.233 53.194 67.447L52.341 67.808"/>
   <path stroke-width="0.201" stroke-linejoin="round" d="M54.506 67.644C54.64 66.31 56.915 63.811 58.604 63.811C60.235 63.811 61.29 66.01 61.29 69.415C61.29 70.655 61.29 74.429 52.243 74.429C47.679 74.429 45.819 72.32 45.819 67.152C45.819 64.215 47.125 63.811 48.536 63.811C49.497 63.811 51.841 65.228 52.341 67.808"/>
   <path stroke-width="0.201" stroke-linejoin="round" fill="#CCCCCC" d="M49.587 66.168C49.587 66.712 49.146 67.152 48.603 67.152 48.058 67.152 47.618 66.712 47.618 66.168 47.618 65.625 48.058 65.183 48.603 65.183 49.146 65.183 49.587 65.625 49.587 66.168z"/>
   <path stroke-width="0.201" stroke-linejoin="round" fill="#CCCCCC" d="M48.536 68.037C48.536 68.581 48.097 69.022 47.552 69.022 47.009 69.022 46.569 68.581 46.569 68.037 46.569 67.493 47.009 67.054 47.552 67.054 48.097 67.054 48.536 67.493 48.536 68.037z"/>
   <path stroke-width="0.201" stroke-linejoin="round" fill="#CCCCCC" d="M51.325 67.808C51.325 68.352 50.884 68.792 50.341 68.792 49.798 68.792 49.356 68.352 49.356 67.808 49.356 67.265 49.798 66.823 50.341 66.823 50.884 66.823 51.325 67.265 51.325 67.808z"/>
   <path stroke-width="0.201" stroke-linejoin="round" fill="#CCCCCC" d="M51.357 70.103C51.357 70.647 50.917 71.087 50.374 71.087 49.829 71.087 49.39 70.647 49.39 70.103 49.39 69.56 49.829 69.12 50.374 69.12 50.917 69.12 51.357 69.56 51.357 70.103z"/>
   <path stroke-width="0.201" stroke-linejoin="round" fill="#CCCCCC" d="M49.225 71.579C49.225 72.123 48.784 72.563 48.241 72.563 47.698 72.563 47.258 72.123 47.258 71.579 47.258 71.036 47.698 70.596 48.241 70.596 48.784 70.596 49.225 71.036 49.225 71.579z"/>
   <path stroke-width="0.201" stroke-linejoin="round" fill="#CCCCCC" d="M52.045 72.694C52.045 73.237 51.606 73.679 51.061 73.679 50.518 73.679 50.079 73.237 50.079 72.694 50.079 72.152 50.518 71.71 51.061 71.71 51.606 71.71 52.045 72.152 52.045 72.694z"/>
   <path stroke-width="0.201" stroke-linejoin="round" fill="#CCCCCC" d="M56.112 72.662C56.112 73.204 55.671 73.646 55.128 73.646 54.585 73.646 54.145 73.204 54.145 72.662 54.145 72.117 54.585 71.677 55.128 71.677 55.671 71.677 56.112 72.117 56.112 72.662z"/>
   <path stroke-width="0.201" stroke-linejoin="round" fill="#CCCCCC" d="M58.243 72.203C58.243 72.745 57.804 73.186 57.261 73.186 56.716 73.186 56.277 72.745 56.277 72.203 56.277 71.659 56.716 71.218 57.261 71.218 57.804 71.218 58.243 71.659 58.243 72.203z"/>
   <path stroke-width="0.201" stroke-linejoin="round" fill="#CCCCCC" d="M60.277 71.087C60.277 71.631 59.837 72.072 59.293 72.072 58.75 72.072 58.31 71.631 58.31 71.087 58.31 70.543 58.75 70.103 59.293 70.103 59.837 70.103 60.277 70.543 60.277 71.087z"/>
   <path stroke-width="0.201" stroke-linejoin="round" fill="#CCCCCC" d="M59.392 69.022C59.392 69.564 58.951 70.006 58.408 70.006 57.865 70.006 57.424 69.564 57.424 69.022 57.424 68.477 57.865 68.037 58.408 68.037 58.951 68.037 59.392 68.477 59.392 69.022z"/>
   <path stroke-width="0.201" stroke-linejoin="round" fill="#CCCCCC" d="M60.408 66.987C60.408 67.531 59.968 67.971 59.424 67.971 58.881 67.971 58.441 67.531 58.441 66.987 58.441 66.444 58.881 66.004 59.424 66.004 59.968 66.004 60.408 66.444 60.408 66.987z"/>
   <path stroke-width="0.201" stroke-linejoin="round" fill="#CCCCCC" d="M58.212 65.938C58.212 66.481 57.771 66.923 57.228 66.923 56.683 66.923 56.243 66.481 56.243 65.938 56.243 65.396 56.683 64.954 57.228 64.954 57.771 64.954 58.212 65.396 58.212 65.938z"/>
   <path stroke-width="0.201" stroke-linejoin="round" fill="#CCCCCC" d="M57.195 68.037C57.195 68.581 56.753 69.022 56.21 69.022 55.667 69.022 55.226 68.581 55.226 68.037 55.226 67.493 55.667 67.054 56.21 67.054 56.753 67.054 57.195 67.493 57.195 68.037z"/>
   <path stroke-width="0.201" stroke-linejoin="round" fill="#CCCCCC" d="M57.261 70.334C57.261 70.876 56.82 71.316 56.277 71.316 55.734 71.316 55.292 70.876 55.292 70.334 55.292 69.79 55.734 69.349 56.277 69.349 56.82 69.349 57.261 69.79 57.261 70.334z"/>
   <path stroke-width="1.002" stroke-linecap="butt" stroke-linejoin="round" d="M63.598 59.795L42.726 76.787"/>
   <path stroke-width="1.002" stroke-linecap="butt" stroke-linejoin="round" d="M43.021 59.149L64.715 76.316"/>
   <g>
    <path stroke="#FFFFFF" stroke-width="0.501" d="M32.261 42.216L39.317 36.805"/>
    <path stroke="#FFFFFF" stroke-width="0.501" d="M30.143 63.734L34.378 60.09"/>
    <path stroke="#FFFFFF" stroke-width="0.501" d="M62.128 67.733L68.009 63.616"/>
    <path stroke="#FFFFFF" stroke-width="0.501" d="M50.017 20.814L44.49 7.408"/>
    <path stroke="#FFFFFF" stroke-width="0.501" d="M60.835 19.873L64.364 7.291"/>
   </g>
   <g>
    <path stroke-width="0.131" d="M32.261 42.216L39.317 36.805"/>
    <path stroke-width="0.131" d="M30.143 63.734L34.378 60.09"/>
    <path stroke-width="0.131" d="M62.128 67.733L68.009 63.616"/>
    <path stroke-width="0.131" d="M50.017 20.814L44.49 7.408"/>
    <path stroke-width="0.131" d="M60.835 19.873L64.364 7.291"/>
   </g>
   <path stroke-width="0.349" stroke-linejoin="round" d="M57.643 22.993C57.643 22.993 57.643 18.721 57.643 18.178C57.643 17.635 57.929 17.509 58.152 17.699C58.377 17.891 59.014 18.114 59.014 18.114"/>
   <path stroke-width="0.13" stroke-linejoin="round" d="M57.487 21.213C56.892 21.298 55.558 21.298 55.558 21.298"/>
   <path stroke-width="0.13" stroke-linejoin="round" d="M54.481 21.298L46.597 21.298"/>
   <path stroke-width="0.13" stroke-linejoin="round" d="M57.487 21.896C56.892 21.981 55.558 21.951 55.558 21.951"/>
   <path stroke-width="0.13" stroke-linejoin="round" d="M54.481 21.951L46.597 21.951"/>
   <path stroke-width="0.13" stroke-linejoin="round" d="M57.487 22.603L55.558 22.603"/>
   <path stroke-width="0.13" stroke-linejoin="round" d="M54.481 22.603L46.597 22.603"/>
   <path stroke-width="0.13" stroke-linejoin="round" d="M45.463 21.242L44.781 21.242"/>
  </g>
 </g>
</svg>
