<?xml version="1.0" encoding="utf-8"?>
<!DOCTYPE svg PUBLIC "-//W3C//DTD SVG 1.1//EN" "http://www.w3.org/Graphics/SVG/1.1/DTD/svg11.dtd">
<!-- Generator: PTC Arbortext IsoDraw 7.3 -->
<svg width="100%" height="100%" viewBox="0 0 75 62.868"
 xmlns="http://www.w3.org/2000/svg" xmlns:xlink="http://www.w3.org/1999/xlink"
 fill-rule="evenodd" clip-rule="evenodd" stroke="#000000" stroke-linecap="round" fill="none" xml:space="preserve">
 <g id="Frame">
  <path stroke="none" fill="#FFFFFF" d="M75 62.868L0 62.868 0 0 75 0 75 62.868 75 62.868z"/>
 </g>
 <g id="Colour">
 </g>
 <g id="Standard_x0020_layer">
  <g>
   <path stroke-width="0.201" stroke-linecap="butt" stroke-linejoin="round" d="M25.481 43.634C25.257 44.506 24.885 45.271 24.294 45.627C23.103 46.341 21.675 46.162 21.079 45.923"/>
   <path stroke-width="0.201" stroke-linecap="butt" stroke-linejoin="round" d="M0.484 11.281C4.71 12.054 10.602 14.079 12.269 14.733C13.936 15.387 14.353 15.864 15.365 17.768C16.376 19.673 18.46 23.126 20.187 25.268C21.913 27.411 23.222 29.495 23.878 31.936C24.532 34.375 24.532 35.329 24.532 35.329C24.532 35.329 25.783 39.435 25.783 40.984C25.783 41.331 25.768 41.719 25.731 42.121"/>
   <path stroke-width="0.201" stroke-linecap="butt" stroke-linejoin="round" d="M0.722 35.865C2.687 35.746 6.019 35.031 9.352 34.615C12.686 34.198 17.984 34.258 19.71 35.865C21.437 37.472 22.032 39.554 21.972 40.27C21.913 40.984 22.032 41.877 22.032 42.591C22.032 43.304 21.556 46.46 19.591 47.353C17.626 48.246 11.556 50.448 8.102 50.865C4.65 51.281 1.734 50.746 0.365 50.746"/>
   <path stroke-width="0.13" stroke-linecap="butt" stroke-linejoin="round" d="M17.449 35.686C17.449 35.686 13.102 36.579 11.675 37.115C10.246 37.651 8.757 39.317 9.175 42.234C9.592 45.151 10.484 47.173 12.925 47.115C15.365 47.055 19.591 45.627 20.068 45.448C20.544 45.27 21.615 43.365 21.079 40.686C20.544 38.006 18.757 35.329 17.449 35.686z"/>
   <path stroke-width="0.13" stroke-linecap="butt" stroke-linejoin="round" d="M38.856 51.847L38.609 48.45L37.36 49.801L37.582 51.89"/>
   <path stroke-width="0.13" stroke-linecap="butt" stroke-linejoin="round" d="M38.609 48.45L37.875 47.804"/>
   <path stroke-width="0.13" stroke-linecap="butt" stroke-linejoin="round" d="M52.883 41.262L38.551 47.655L34.009 46.156L34.759 45.865"/>
   <path stroke-width="0.349" stroke-linecap="butt" stroke-linejoin="round" d="M47.371 39.499C47.371 39.499 52.618 40.997 53.015 41.13C53.633 41.395 54.293 41.746 54.338 41.968C54.383 42.188 54.383 43.466 54.426 43.82C54.47 44.173 54.118 44.216 54.118 44.216L54.118 45.981L53.588 46.289"/>
   <path stroke-width="0.349" stroke-linecap="butt" stroke-linejoin="round" d="M53.676 46.597L54.293 46.819L54.293 47.92L54.868 48.185"/>
   <path stroke-width="0.25" stroke-linecap="butt" stroke-linejoin="round" d="M36.112 56.926L35.067 56.52"/>
   <path stroke-width="0.349" stroke-linecap="butt" stroke-linejoin="round" d="M50.799 52.936C47.203 54.661 39.984 58.118 39.786 58.152C39.521 58.195 39.256 58.152 39.256 58.152L36.112 56.926"/>
   <path stroke-width="0.349" stroke-linecap="butt" stroke-linejoin="round" d="M36.082 57.005C36.082 57.18 35.862 57.27 35.862 57.27L34.554 57.915C34.554 57.915 34.229 57.975 33.759 57.856C33.289 57.74 29.629 56.664 28.964 56.481C28.515 56.357 28.746 55.951 28.888 55.859C29.027 55.768 28.998 55.582 28.763 55.347C28.655 55.24 28.585 55.067 28.556 54.945"/>
   <path stroke-width="0.349" stroke-linecap="butt" stroke-linejoin="round" d="M45.298 38.616C45.298 38.616 43.975 37.25 43.755 37.029C43.534 36.808 42.917 36.719 42.697 36.808C42.475 36.896 27.968 42.938 27.439 43.203C26.91 43.466 27.306 44.04 27.306 44.04C27.306 44.04 27.306 44.04 27.306 44.216C27.306 44.393 27.35 44.878 27.35 44.878L28.556 54.945"/>
   <path stroke-width="0.201" stroke-linecap="butt" stroke-linejoin="round" d="M27.306 44.04L30.306 44.921L30.396 45.759L32.643 46.421L33.744 56.607"/>
   <path stroke-width="0.13" stroke-linecap="butt" stroke-linejoin="round" d="M27.483 43.643L32.819 45.231"/>
   <path stroke-width="0.13" stroke-linecap="butt" stroke-linejoin="round" d="M33.171 45.143L34.274 44.789"/>
   <path stroke-width="0.13" stroke-linecap="butt" stroke-linejoin="round" d="M53.853 41.85L39.081 48.524"/>
   <path stroke-width="0.13" stroke-linecap="butt" stroke-linejoin="round" d="M37.728 47.686L33.804 46.362L34.289 50.801"/>
   <path stroke-width="0.13" stroke-linecap="butt" stroke-linejoin="round" d="M34.289 57.68L32.951 45.408"/>
   <path stroke-width="0.201" stroke-linecap="butt" stroke-linejoin="round" d="M47.32 39.512C47.371 39.71 47.371 39.93 47.371 40.064L47.371 40.682"/>
   <path stroke-width="0.349" stroke-linecap="butt" stroke-linejoin="round" d="M45.301 38.603C46.128 38.857 46.828 39.069 46.973 39.101C47.17 39.145 47.271 39.317 47.32 39.512"/>
   <path stroke-width="0.201" stroke-linecap="butt" stroke-linejoin="round" d="M42.079 37.601C42.079 37.601 43.878 38.167 45.301 38.603"/>
   <path stroke-width="0.201" stroke-linecap="butt" stroke-linejoin="round" d="M34.759 45.865L34.67 44.921C34.67 44.921 34.715 44.658 34.406 44.57C34.097 44.481 29.507 42.896 29.507 42.896"/>
   <path stroke-width="0.201" stroke-linecap="butt" stroke-linejoin="round" d="M31.593 42.07C31.593 42.07 35.796 43.417 36.442 43.634C36.491 43.652 36.529 43.665 36.554 43.674C36.743 43.741 36.796 43.863 36.805 43.957C36.808 43.993 36.805 44.02 36.805 44.024C36.807 44.079 36.893 45.024 36.893 45.024"/>
   <path stroke-width="0.201" stroke-linecap="butt" stroke-linejoin="round" d="M33.719 41.197C33.719 41.197 38.04 42.545 38.579 42.732C38.631 42.752 38.67 42.768 38.7 42.78C38.874 42.85 38.932 42.96 38.939 43.064C38.942 43.093 38.939 43.116 38.939 43.125C38.942 43.234 39.027 44.182 39.027 44.182"/>
   <path stroke-width="0.201" stroke-linecap="butt" stroke-linejoin="round" d="M35.844 40.323C35.844 40.323 40.283 41.676 40.716 41.832C40.768 41.85 40.813 41.869 40.847 41.886C41.005 41.957 41.067 42.055 41.073 42.168C41.075 42.192 41.073 42.213 41.075 42.226C41.081 42.39 41.161 43.341 41.161 43.341"/>
   <path stroke-width="0.201" stroke-linecap="butt" stroke-linejoin="round" d="M37.969 39.45C37.969 39.45 42.527 40.807 42.853 40.929C42.908 40.95 42.954 40.972 42.993 40.99C43.137 41.061 43.204 41.152 43.207 41.274C43.209 41.292 43.209 41.311 43.209 41.328C43.216 41.546 43.296 42.5 43.296 42.5"/>
   <path stroke-width="0.201" stroke-linecap="butt" stroke-linejoin="round" d="M40.094 38.576C40.094 38.576 44.768 39.939 44.99 40.027C45.21 40.115 45.343 40.204 45.343 40.38C45.343 40.557 45.43 41.405 45.43 41.405"/>
   <path stroke-width="0.13" stroke-linecap="butt" stroke-linejoin="round" d="M29.507 42.896L41.064 38.042"/>
   <path stroke-width="0.13" stroke-linecap="butt" stroke-linejoin="round" d="M35.64 44.128L30.57 42.496"/>
   <path stroke-width="0.13" stroke-linecap="butt" stroke-linejoin="round" d="M37.749 43.212L32.668 41.606"/>
   <path stroke-width="0.13" stroke-linecap="butt" stroke-linejoin="round" d="M39.856 42.293L34.768 40.716"/>
   <path stroke-width="0.13" stroke-linecap="butt" stroke-linejoin="round" d="M41.965 41.377L36.866 39.825"/>
   <path stroke-width="0.13" stroke-linecap="butt" stroke-linejoin="round" d="M44.073 40.46L38.966 38.933"/>
   <path stroke-width="0.13" stroke-linecap="butt" stroke-linejoin="round" d="M46.18 39.542L41.064 38.042"/>
   <path stroke-width="0.13" stroke-linecap="butt" stroke-linejoin="round" d="M35.905 45.539L34.817 45.189"/>
   <path stroke-width="0.13" stroke-linecap="butt" stroke-linejoin="round" d="M39.843 46.609L38.258 46.098"/>
   <path stroke-width="0.13" stroke-linecap="butt" stroke-linejoin="round" d="M38.014 44.622L37.021 44.308"/>
   <path stroke-width="0.13" stroke-linecap="butt" stroke-linejoin="round" d="M40.121 43.704L39.149 43.404"/>
   <path stroke-width="0.13" stroke-linecap="butt" stroke-linejoin="round" d="M42.228 42.787L41.216 42.479"/>
   <path stroke-width="0.13" stroke-linecap="butt" stroke-linejoin="round" d="M44.337 41.871L43.276 41.554"/>
   <path stroke-width="0.13" stroke-linecap="butt" stroke-linejoin="round" d="M48.131 42.863L46.585 42.402"/>
   <path stroke-width="0.13" stroke-linecap="butt" stroke-linejoin="round" d="M46.445 40.954L45.52 40.682"/>
   <path stroke-width="0.13" stroke-linecap="butt" stroke-linejoin="round" d="M35.905 44.348L35.993 45.496"/>
   <path stroke-width="0.13" stroke-linecap="butt" stroke-linejoin="round" d="M38.03 43.423L38.119 44.57"/>
   <path stroke-width="0.13" stroke-linecap="butt" stroke-linejoin="round" d="M40.156 42.496L40.244 43.643"/>
   <path stroke-width="0.13" stroke-linecap="butt" stroke-linejoin="round" d="M42.281 41.57L42.371 42.718"/>
   <path stroke-width="0.13" stroke-linecap="butt" stroke-linejoin="round" d="M44.408 40.645L44.496 41.792"/>
   <path stroke-width="0.13" stroke-linecap="butt" stroke-linejoin="round" d="M46.533 39.719L46.621 40.865"/>
   <path stroke-width="0.13" stroke-linecap="butt" stroke-linejoin="round" d="M36.603 43.799L35.993 44.055"/>
   <path stroke-width="0.13" stroke-linecap="butt" stroke-linejoin="round" d="M38.722 42.908L38.113 43.164"/>
   <path stroke-width="0.13" stroke-linecap="butt" stroke-linejoin="round" d="M40.942 41.972L40.226 42.274"/>
   <path stroke-width="0.13" stroke-linecap="butt" stroke-linejoin="round" d="M43.07 41.076L42.49 41.32"/>
   <path stroke-width="0.13" stroke-linecap="butt" stroke-linejoin="round" d="M45.162 40.195L44.542 40.457"/>
   <path stroke-width="0.13" stroke-linecap="butt" stroke-linejoin="round" d="M47.238 39.322L46.773 39.518"/>
   <path stroke-width="0.131" stroke-linecap="butt" stroke-linejoin="round" d="M46.646 40.999L47.371 40.689"/>
   <path stroke-width="0.131" stroke-linecap="butt" stroke-linejoin="round" d="M44.52 41.908L45.412 41.527"/>
   <path stroke-width="0.131" stroke-linecap="butt" stroke-linejoin="round" d="M42.491 42.777L43.246 42.454"/>
   <path stroke-width="0.131" stroke-linecap="butt" stroke-linejoin="round" d="M40.286 43.72L41.164 43.345"/>
   <path stroke-width="0.131" stroke-linecap="butt" stroke-linejoin="round" d="M38.271 44.582L39.018 44.262"/>
   <path stroke-width="0.131" stroke-linecap="butt" stroke-linejoin="round" d="M36.167 45.482L36.911 45.164"/>
   <path stroke-width="0.13" stroke-linecap="butt" stroke-linejoin="round" d="M27.306 44.436L29.864 45.143"/>
   <path stroke-width="0.13" stroke-linecap="butt" stroke-linejoin="round" d="M30.041 45.408L30.129 45.981"/>
   <path stroke-width="0.13" stroke-linecap="butt" stroke-linejoin="round" d="M30.216 46.156L32.289 46.837"/>
   <path stroke-width="0.13" stroke-linecap="butt" stroke-linejoin="round" d="M32.421 47.127L33.466 55.74"/>
   <path stroke-width="0.201" stroke-linecap="butt" stroke-linejoin="round" d="M41.549 51.871L39.39 52.859L38.11 52.463L38.11 51.978"/>
   <path stroke-width="0.201" stroke-linecap="butt" stroke-linejoin="round" d="M36.963 51.668L34.289 50.801"/>
   <path stroke-width="0.13" stroke-linecap="butt" stroke-linejoin="round" d="M39.081 48.524L39.344 52.639"/>
   <path stroke-width="0.13" stroke-linecap="butt" stroke-linejoin="round" d="M48.259 42.84L49.74 42.168"/>
   <path stroke-width="0.13" stroke-linecap="butt" stroke-linejoin="round" d="M39.948 46.609L41.353 45.972"/>
   <path stroke-width="0.13" stroke-linecap="butt" stroke-linejoin="round" d="M38.628 45.371C39.008 45.201 39.518 45.512 39.768 46.067C39.851 46.253 39.896 46.442 39.902 46.619"/>
   <path stroke-width="0.201" stroke-linecap="butt" stroke-linejoin="round" d="M38.258 46.098C38.253 45.764 38.384 45.481 38.628 45.371L40.107 44.716C40.487 44.545 40.997 44.856 41.249 45.411C41.329 45.594 41.374 45.779 41.383 45.951"/>
   <path stroke-width="0.13" stroke-linecap="butt" stroke-linejoin="round" d="M46.951 41.661C47.328 41.491 47.834 41.799 48.081 42.348C48.158 42.523 48.201 42.698 48.213 42.865"/>
   <path stroke-width="0.201" stroke-linecap="butt" stroke-linejoin="round" d="M46.585 42.402C46.576 42.06 46.704 41.771 46.951 41.661L48.539 40.942C48.915 40.774 49.42 41.082 49.668 41.631C49.74 41.792 49.783 41.957 49.798 42.112"/>
   <path stroke-width="0.13" stroke-linecap="butt" stroke-linejoin="round" d="M41.639 51.887L41.697 52.588L39.551 53.594"/>
   <path stroke-width="0.13" stroke-linecap="butt" stroke-linejoin="round" d="M39.316 53.566L38.317 53.241"/>
   <path stroke-width="0.13" stroke-linecap="butt" stroke-linejoin="round" d="M39.491 53.771L39.786 57.593"/>
   <path stroke-width="0.201" stroke-linecap="butt" stroke-linejoin="round" d="M38.933 52.831L38.17 53.152L38.17 53.476"/>
   <path stroke-width="0.13" stroke-linecap="butt" stroke-linejoin="round" d="M38.051 53.506L34.524 52.271"/>
   <path stroke-width="0.13" stroke-linecap="butt" stroke-linejoin="round" d="M36.92 49.685L37.36 49.801"/>
   <path stroke-width="0.13" stroke-linecap="butt" stroke-linejoin="round" d="M46.42 50.444L41.814 52.566"/>
   <path stroke-width="0.13" stroke-linecap="butt" stroke-linejoin="round" d="M54.133 46.892L49.862 48.859"/>
   <path stroke-width="0.201" stroke-linecap="butt" stroke-linejoin="round" d="M37.64 47.951L36.92 49.685L37.17 51.831L37.61 52.008L38.816 51.89L39.198 51.735"/>
   <g>
    <g>
     <path stroke-width="0.13" stroke-linecap="butt" stroke-linejoin="round" d="M41.417 50.319L40.936 50.206"/>
     <path stroke-width="0.13" stroke-linecap="butt" stroke-linejoin="round" d="M42.185 49.981L41.704 49.868"/>
     <path stroke-width="0.13" stroke-linecap="butt" stroke-linejoin="round" d="M41.463 51.11L40.959 50.709"/>
     <path stroke-width="0.201" stroke-linecap="butt" stroke-linejoin="round" d="M41.31 48.359L40.365 48.765L40.411 49.557L39.645 49.896L39.713 51.003"/>
     <path stroke-width="0.13" stroke-linecap="butt" stroke-linejoin="round" d="M41.347 49.21L41.31 48.359"/>
     <path stroke-width="0.201" stroke-linecap="butt" stroke-linejoin="round" d="M42.115 48.872L41.347 49.21L40.865 49.206L40.402 49.073"/>
     <path stroke-width="0.13" stroke-linecap="butt" stroke-linejoin="round" d="M40.536 51.524L41.463 51.11L41.417 50.319L42.185 49.981L42.115 48.872"/>
     <path stroke-width="0.201" stroke-linecap="butt" stroke-linejoin="round" d="M40.536 51.524L40.481 50.665L39.969 50.506L39.741 50.573"/>
     <path stroke-width="0.13" stroke-linecap="butt" stroke-linejoin="round" d="M39.713 51.003L40.481 50.665"/>
     <path stroke-width="0.13" stroke-linecap="butt" stroke-linejoin="round" d="M40.936 50.206L40.959 50.709"/>
     <path stroke-width="0.13" stroke-linecap="butt" stroke-linejoin="round" d="M40.564 50.881L40.959 50.709"/>
     <path stroke-width="0.13" stroke-linecap="butt" stroke-linejoin="round" d="M40.936 50.206L41.704 49.868L41.655 49.095"/>
     <path stroke-width="0.13" stroke-linecap="butt" stroke-linejoin="round" d="M40.865 49.206L40.832 48.612"/>
     <path stroke-width="0.201" stroke-linecap="butt" stroke-linejoin="round" d="M41.439 49.293L41.463 49.933"/>
     <path stroke-width="0.201" stroke-linecap="butt" stroke-linejoin="round" d="M40.359 50.573L40.292 49.713"/>
     <path stroke-width="0.13" stroke-linecap="butt" stroke-linejoin="round" d="M40.424 50.286C40.424 50.286 40.624 50.396 40.734 50.463C40.844 50.529 40.909 50.506 40.909 50.506"/>
     <path stroke-width="0.13" stroke-linecap="butt" stroke-linejoin="round" d="M40.932 49.933L40.909 49.47"/>
    </g>
    <g>
     <path stroke-width="0.201" stroke-linecap="butt" stroke-linejoin="round" d="M44.191 47.015L43.252 47.429L43.295 48.216L42.531 48.558L42.598 49.661"/>
     <path stroke-width="0.13" stroke-linecap="butt" stroke-linejoin="round" d="M44.226 47.865L44.191 47.015"/>
     <path stroke-width="0.201" stroke-linecap="butt" stroke-linejoin="round" d="M44.99 47.524L44.226 47.865L43.747 47.863L43.287 47.734"/>
     <path stroke-width="0.13" stroke-linecap="butt" stroke-linejoin="round" d="M43.414 50.176L43.939 49.938"/>
     <path stroke-width="0.201" stroke-linecap="butt" stroke-linejoin="round" d="M43.414 50.176L43.393 49.838"/>
    </g>
    <g>
     <path stroke-width="0.13" stroke-linecap="butt" stroke-linejoin="round" d="M47.168 47.621L46.695 47.515"/>
     <path stroke-width="0.13" stroke-linecap="butt" stroke-linejoin="round" d="M47.929 47.274L47.454 47.168"/>
     <path stroke-width="0.201" stroke-linecap="butt" stroke-linejoin="round" d="M45.445 47.652L45.445 47.67"/>
     <path stroke-width="0.201" stroke-linecap="butt" stroke-linejoin="round" d="M47.073 45.676L46.139 46.094L46.179 46.878L45.42 47.225L45.445 47.652"/>
     <path stroke-width="0.13" stroke-linecap="butt" stroke-linejoin="round" d="M47.106 46.521L47.073 45.676"/>
     <path stroke-width="0.201" stroke-linecap="butt" stroke-linejoin="round" d="M47.865 46.176L47.106 46.521L46.63 46.524L46.173 46.399"/>
     <path stroke-width="0.13" stroke-linecap="butt" stroke-linejoin="round" d="M47.197 48.146L47.168 47.621L47.929 47.274L47.865 46.176"/>
     <path stroke-width="0.13" stroke-linecap="butt" stroke-linejoin="round" d="M46.695 47.515L46.713 48.015"/>
     <path stroke-width="0.13" stroke-linecap="butt" stroke-linejoin="round" d="M46.695 47.515L47.454 47.168L47.409 46.404"/>
     <path stroke-width="0.13" stroke-linecap="butt" stroke-linejoin="round" d="M46.63 46.524L46.598 45.936"/>
     <path stroke-width="0.201" stroke-linecap="butt" stroke-linejoin="round" d="M47.195 46.603L47.216 47.237"/>
     <path stroke-width="0.201" stroke-linecap="butt" stroke-linejoin="round" d="M46.121 47.887L46.06 47.034"/>
     <path stroke-width="0.13" stroke-linecap="butt" stroke-linejoin="round" d="M46.189 47.601C46.189 47.601 46.384 47.709 46.493 47.773C46.601 47.837 46.667 47.814 46.667 47.814"/>
     <path stroke-width="0.13" stroke-linecap="butt" stroke-linejoin="round" d="M46.692 47.244L46.673 46.786"/>
    </g>
    <g>
     <path stroke-width="0.13" stroke-linecap="butt" stroke-linejoin="round" d="M50.043 46.273L49.572 46.17"/>
     <path stroke-width="0.13" stroke-linecap="butt" stroke-linejoin="round" d="M50.798 45.921L50.328 45.82"/>
     <path stroke-width="0.13" stroke-linecap="butt" stroke-linejoin="round" d="M50.082 47.054L49.59 46.667"/>
     <path stroke-width="0.201" stroke-linecap="butt" stroke-linejoin="round" d="M49.953 44.335L49.023 44.758L49.061 45.54L48.307 45.89L48.365 46.984"/>
     <path stroke-width="0.13" stroke-linecap="butt" stroke-linejoin="round" d="M49.982 45.177L49.953 44.335"/>
     <path stroke-width="0.201" stroke-linecap="butt" stroke-linejoin="round" d="M50.738 44.829L49.982 45.177L49.511 45.182L49.057 45.061"/>
     <path stroke-width="0.13" stroke-linecap="butt" stroke-linejoin="round" d="M49.17 47.482L50.082 47.054L50.043 46.273L50.798 45.921L50.738 44.829"/>
     <path stroke-width="0.201" stroke-linecap="butt" stroke-linejoin="round" d="M49.17 47.482L49.121 46.634L48.619 46.487L48.396 46.557"/>
     <path stroke-width="0.13" stroke-linecap="butt" stroke-linejoin="round" d="M48.365 46.984L49.121 46.634"/>
     <path stroke-width="0.13" stroke-linecap="butt" stroke-linejoin="round" d="M49.572 46.17L49.59 46.667"/>
     <path stroke-width="0.13" stroke-linecap="butt" stroke-linejoin="round" d="M49.201 46.847L49.59 46.667"/>
     <path stroke-width="0.13" stroke-linecap="butt" stroke-linejoin="round" d="M49.572 46.17L50.328 45.82L50.286 45.057"/>
     <path stroke-width="0.13" stroke-linecap="butt" stroke-linejoin="round" d="M49.511 45.182L49.481 44.597"/>
     <path stroke-width="0.201" stroke-linecap="butt" stroke-linejoin="round" d="M50.072 45.259L50.091 45.89"/>
     <path stroke-width="0.201" stroke-linecap="butt" stroke-linejoin="round" d="M49.002 46.545L48.944 45.695"/>
     <path stroke-width="0.13" stroke-linecap="butt" stroke-linejoin="round" d="M49.069 46.261C49.069 46.261 49.264 46.365 49.371 46.429C49.478 46.491 49.543 46.469 49.543 46.469"/>
     <path stroke-width="0.13" stroke-linecap="butt" stroke-linejoin="round" d="M49.57 45.901L49.551 45.444"/>
    </g>
    <g>
     <path stroke-width="0.13" stroke-linecap="butt" stroke-linejoin="round" d="M52.917 44.921L52.45 44.823"/>
     <path stroke-width="0.13" stroke-linecap="butt" stroke-linejoin="round" d="M53.67 44.567L53.201 44.469"/>
     <path stroke-width="0.13" stroke-linecap="butt" stroke-linejoin="round" d="M52.954 45.701L52.466 45.319"/>
     <path stroke-width="0.201" stroke-linecap="butt" stroke-linejoin="round" d="M52.832 42.993L51.908 43.42L51.944 44.2L51.192 44.552L51.25 45.642"/>
     <path stroke-width="0.13" stroke-linecap="butt" stroke-linejoin="round" d="M52.86 43.832L52.832 42.993"/>
     <path stroke-width="0.201" stroke-linecap="butt" stroke-linejoin="round" d="M53.612 43.478L52.86 43.832L52.39 43.841L51.941 43.722"/>
     <path stroke-width="0.13" stroke-linecap="butt" stroke-linejoin="round" d="M52.045 46.134L52.954 45.701L52.917 44.921L53.67 44.567L53.612 43.478"/>
     <path stroke-width="0.201" stroke-linecap="butt" stroke-linejoin="round" d="M52.045 46.134L52 45.289L51.503 45.146L51.28 45.216"/>
     <path stroke-width="0.13" stroke-linecap="butt" stroke-linejoin="round" d="M51.25 45.642L52 45.289"/>
     <path stroke-width="0.13" stroke-linecap="butt" stroke-linejoin="round" d="M52.45 44.823L52.466 45.319"/>
     <path stroke-width="0.13" stroke-linecap="butt" stroke-linejoin="round" d="M52.081 45.5L52.466 45.319"/>
     <path stroke-width="0.13" stroke-linecap="butt" stroke-linejoin="round" d="M52.45 44.823L53.201 44.469L53.161 43.71"/>
     <path stroke-width="0.13" stroke-linecap="butt" stroke-linejoin="round" d="M52.39 43.841L52.363 43.256"/>
     <path stroke-width="0.201" stroke-linecap="butt" stroke-linejoin="round" d="M52.948 43.911L52.966 44.54"/>
     <path stroke-width="0.201" stroke-linecap="butt" stroke-linejoin="round" d="M51.881 45.201L51.826 44.354"/>
     <path stroke-width="0.13" stroke-linecap="butt" stroke-linejoin="round" d="M51.95 44.917C51.95 44.917 52.143 45.02 52.249 45.082C52.356 45.143 52.42 45.121 52.42 45.121"/>
     <path stroke-width="0.13" stroke-linecap="butt" stroke-linejoin="round" d="M52.448 44.554L52.43 44.1"/>
    </g>
   </g>
   <g>
    <g>
     <path stroke-width="0.13" stroke-linecap="butt" stroke-linejoin="round" d="M41.735 55.377L41.255 55.264"/>
     <path stroke-width="0.13" stroke-linecap="butt" stroke-linejoin="round" d="M42.503 55.039L42.021 54.926"/>
     <path stroke-width="0.13" stroke-linecap="butt" stroke-linejoin="round" d="M41.781 56.168L41.277 55.768"/>
     <path stroke-width="0.201" stroke-linecap="butt" stroke-linejoin="round" d="M41.628 53.417L40.683 53.825L40.729 54.616L39.963 54.954L40.031 56.063"/>
     <path stroke-width="0.13" stroke-linecap="butt" stroke-linejoin="round" d="M41.664 54.268L41.628 53.417"/>
     <path stroke-width="0.201" stroke-linecap="butt" stroke-linejoin="round" d="M42.432 53.932L41.664 54.268L41.183 54.265L40.72 54.131"/>
     <path stroke-width="0.13" stroke-linecap="butt" stroke-linejoin="round" d="M40.854 56.582L41.781 56.168L41.735 55.377L42.503 55.039L42.432 53.932"/>
     <path stroke-width="0.201" stroke-linecap="butt" stroke-linejoin="round" d="M40.854 56.582L40.798 55.725L40.287 55.564L40.06 55.631"/>
     <path stroke-width="0.13" stroke-linecap="butt" stroke-linejoin="round" d="M40.031 56.063L40.798 55.725"/>
     <path stroke-width="0.13" stroke-linecap="butt" stroke-linejoin="round" d="M41.255 55.264L41.277 55.768"/>
     <path stroke-width="0.13" stroke-linecap="butt" stroke-linejoin="round" d="M40.883 55.941L41.277 55.768"/>
     <path stroke-width="0.13" stroke-linecap="butt" stroke-linejoin="round" d="M41.255 55.264L42.021 54.926L41.972 54.155"/>
     <path stroke-width="0.13" stroke-linecap="butt" stroke-linejoin="round" d="M41.183 54.265L41.149 53.67"/>
     <path stroke-width="0.201" stroke-linecap="butt" stroke-linejoin="round" d="M41.758 54.353L41.781 54.991"/>
     <path stroke-width="0.201" stroke-linecap="butt" stroke-linejoin="round" d="M40.676 55.631L40.61 54.771"/>
     <path stroke-width="0.13" stroke-linecap="butt" stroke-linejoin="round" d="M40.743 55.344C40.743 55.344 40.942 55.454 41.051 55.521C41.161 55.587 41.228 55.564 41.228 55.564"/>
     <path stroke-width="0.13" stroke-linecap="butt" stroke-linejoin="round" d="M41.25 54.991L41.228 54.529"/>
    </g>
    <g>
     <path stroke-width="0.13" stroke-linecap="butt" stroke-linejoin="round" d="M44.612 54.027L44.134 53.917"/>
     <path stroke-width="0.13" stroke-linecap="butt" stroke-linejoin="round" d="M45.375 53.683L44.898 53.576"/>
     <path stroke-width="0.13" stroke-linecap="butt" stroke-linejoin="round" d="M44.655 54.814L44.155 54.418"/>
     <path stroke-width="0.201" stroke-linecap="butt" stroke-linejoin="round" d="M44.509 52.075L43.57 52.487L43.613 53.274L42.85 53.618L42.917 54.72"/>
     <path stroke-width="0.13" stroke-linecap="butt" stroke-linejoin="round" d="M44.545 52.923L44.509 52.075"/>
     <path stroke-width="0.201" stroke-linecap="butt" stroke-linejoin="round" d="M45.307 52.582L44.545 52.923L44.067 52.921L43.606 52.792"/>
     <path stroke-width="0.13" stroke-linecap="butt" stroke-linejoin="round" d="M43.732 55.234L44.655 54.814L44.612 54.027L45.375 53.683L45.307 52.582"/>
     <path stroke-width="0.201" stroke-linecap="butt" stroke-linejoin="round" d="M43.732 55.234L43.679 54.378L43.171 54.223L42.945 54.292"/>
     <path stroke-width="0.13" stroke-linecap="butt" stroke-linejoin="round" d="M42.917 54.72L43.679 54.378"/>
     <path stroke-width="0.13" stroke-linecap="butt" stroke-linejoin="round" d="M44.134 53.917L44.155 54.418"/>
     <path stroke-width="0.13" stroke-linecap="butt" stroke-linejoin="round" d="M43.762 54.594L44.155 54.418"/>
     <path stroke-width="0.13" stroke-linecap="butt" stroke-linejoin="round" d="M44.134 53.917L44.898 53.576L44.85 52.807"/>
     <path stroke-width="0.13" stroke-linecap="butt" stroke-linejoin="round" d="M44.067 52.921L44.033 52.331"/>
     <path stroke-width="0.201" stroke-linecap="butt" stroke-linejoin="round" d="M44.636 53.006L44.658 53.643"/>
     <path stroke-width="0.201" stroke-linecap="butt" stroke-linejoin="round" d="M43.558 54.286L43.494 53.43"/>
     <path stroke-width="0.13" stroke-linecap="butt" stroke-linejoin="round" d="M43.625 54C43.625 54 43.823 54.109 43.932 54.174C44.04 54.24 44.106 54.218 44.106 54.218"/>
     <path stroke-width="0.13" stroke-linecap="butt" stroke-linejoin="round" d="M44.131 53.646L44.109 53.185"/>
    </g>
    <g>
     <path stroke-width="0.13" stroke-linecap="butt" stroke-linejoin="round" d="M47.487 52.679L47.012 52.573"/>
     <path stroke-width="0.13" stroke-linecap="butt" stroke-linejoin="round" d="M48.246 52.332L47.771 52.226"/>
     <path stroke-width="0.13" stroke-linecap="butt" stroke-linejoin="round" d="M47.529 53.465L47.031 53.073"/>
     <path stroke-width="0.201" stroke-linecap="butt" stroke-linejoin="round" d="M47.39 50.734L46.457 51.152L46.497 51.938L45.737 52.283L45.801 53.381"/>
     <path stroke-width="0.13" stroke-linecap="butt" stroke-linejoin="round" d="M47.423 51.581L47.39 50.734"/>
     <path stroke-width="0.201" stroke-linecap="butt" stroke-linejoin="round" d="M48.183 51.234L47.423 51.581L46.948 51.582L46.49 51.457"/>
     <path stroke-width="0.13" stroke-linecap="butt" stroke-linejoin="round" d="M46.61 53.889L47.529 53.465L47.487 52.679L48.246 52.332L48.183 51.234"/>
     <path stroke-width="0.201" stroke-linecap="butt" stroke-linejoin="round" d="M46.61 53.889L46.56 53.036L46.055 52.884L45.831 52.954"/>
     <path stroke-width="0.13" stroke-linecap="butt" stroke-linejoin="round" d="M45.801 53.381L46.56 53.036"/>
     <path stroke-width="0.13" stroke-linecap="butt" stroke-linejoin="round" d="M47.012 52.573L47.031 53.073"/>
     <path stroke-width="0.13" stroke-linecap="butt" stroke-linejoin="round" d="M46.642 53.25L47.031 53.073"/>
     <path stroke-width="0.13" stroke-linecap="butt" stroke-linejoin="round" d="M47.012 52.573L47.771 52.226L47.728 51.463"/>
     <path stroke-width="0.13" stroke-linecap="butt" stroke-linejoin="round" d="M46.948 51.582L46.917 50.993"/>
     <path stroke-width="0.201" stroke-linecap="butt" stroke-linejoin="round" d="M47.514 51.661L47.534 52.295"/>
     <path stroke-width="0.201" stroke-linecap="butt" stroke-linejoin="round" d="M46.439 52.945L46.38 52.093"/>
     <path stroke-width="0.13" stroke-linecap="butt" stroke-linejoin="round" d="M46.506 52.661C46.506 52.661 46.703 52.767 46.811 52.832C46.92 52.896 46.984 52.872 46.984 52.872"/>
     <path stroke-width="0.13" stroke-linecap="butt" stroke-linejoin="round" d="M47.009 52.302L46.99 51.844"/>
    </g>
    <g>
     <path stroke-width="0.13" stroke-linecap="butt" stroke-linejoin="round" d="M50.401 52.112L49.908 51.725"/>
     <path stroke-width="0.201" stroke-linecap="butt" stroke-linejoin="round" d="M48.63 51.048L48.683 52.042"/>
     <path stroke-width="0.13" stroke-linecap="butt" stroke-linejoin="round" d="M49.487 52.54L50.401 52.112"/>
     <path stroke-width="0.201" stroke-linecap="butt" stroke-linejoin="round" d="M49.487 52.54L49.439 51.692L48.939 51.545L48.715 51.615"/>
     <path stroke-width="0.13" stroke-linecap="butt" stroke-linejoin="round" d="M48.683 52.042L49.439 51.692"/>
     <path stroke-width="0.13" stroke-linecap="butt" stroke-linejoin="round" d="M49.902 51.587L49.908 51.725"/>
     <path stroke-width="0.13" stroke-linecap="butt" stroke-linejoin="round" d="M49.52 51.905L49.908 51.725"/>
     <path stroke-width="0.201" stroke-linecap="butt" stroke-linejoin="round" d="M49.32 51.603L49.296 51.259"/>
     <path stroke-width="0.13" stroke-linecap="butt" stroke-linejoin="round" d="M49.387 51.319C49.387 51.319 49.582 51.423 49.689 51.487C49.796 51.549 49.862 51.527 49.862 51.527"/>
    </g>
   </g>
   <g>
    <path stroke-width="0.349" stroke-linecap="butt" stroke-linejoin="round" d="M42.67 49.63C43.286 49.719 44.396 49.868 46.17 50.31C48.112 50.795 49.61 51.237 49.61 51.237C50.051 51.414 50.36 51.987 50.448 52.252C50.536 52.515 50.713 52.868 51.066 52.957C51.418 53.045 54.064 53.926 55.122 54.28C56.18 54.633 56.93 55.381 57.283 56.219C57.637 57.057 58.165 58.204 58.738 58.424C59.311 58.646 69.058 61.6 69.058 61.6C69.905 61.811 70.656 61.203 70.656 61.203L71.858 61.518"/>
    <path stroke-width="0.25" stroke-linecap="butt" stroke-linejoin="round" d="M50.551 48.865C50.256 48.862 50.116 49.093 50.008 49.384C49.875 49.737 49.523 49.914 49.523 49.914C49.523 49.914 45.906 48.944 44.847 48.679C44.256 48.531 43.511 48.451 42.97 48.411"/>
    <path stroke-width="0.349" stroke-linecap="butt" stroke-linejoin="round" d="M51.198 49.02C50.993 48.966 50.838 48.923 50.756 48.899C50.682 48.877 50.613 48.865 50.551 48.865"/>
    <path stroke-width="0.25" stroke-linecap="butt" stroke-linejoin="round" d="M55.74 49.781C55.564 49.914 55.255 50.134 54.549 49.914C53.973 49.734 52.103 49.261 51.198 49.02"/>
    <path stroke-width="0.349" stroke-linecap="butt" stroke-linejoin="round" d="M56.359 48.466C56.445 48.125 56.508 47.917 56.887 47.664C57.415 47.313 58.738 46.518 59.136 46.387C59.533 46.253 59.576 46.343 60.106 46.475C60.634 46.606 70.875 49.155 70.875 49.155C71.536 49.332 71.801 49.728 71.801 49.95"/>
    <path stroke-width="0.25" stroke-linecap="butt" stroke-linejoin="round" d="M55.298 50.222C55.607 50.091 56.005 49.606 56.225 48.944C56.287 48.756 56.326 48.6 56.359 48.466"/>
    <path stroke-width="0.349" stroke-linecap="butt" stroke-linejoin="round" d="M45.002 47.594C45.582 47.767 46.459 48.069 47.45 48.331C48.64 48.646 49.746 48.905 50.152 48.999"/>
    <path stroke-width="0.349" stroke-linecap="butt" stroke-linejoin="round" d="M51.418 48.856C51.418 48.856 51.904 48.326 52.124 48.106C52.344 47.886 52.741 47.71 53.049 47.753C53.359 47.798 56.225 48.591 56.225 48.591"/>
    <path stroke-width="0.13" stroke-linecap="butt" stroke-linejoin="round" d="M57.503 47.886L69.552 51.008C69.905 51.14 70.037 51.271 70.037 51.625C70.037 51.978 70.037 60.445 70.037 60.929C70.037 61.414 69.772 61.679 69.463 61.634"/>
    <path stroke-width="0.131" stroke-linecap="butt" stroke-linejoin="round" d="M42.598 48.679C43.261 48.679 44.539 48.899 45.509 49.164C46.479 49.429 48.243 49.869 48.64 50.003C49.037 50.134 49.523 49.914 49.523 49.914"/>
    <path stroke-width="0.131" stroke-linecap="butt" stroke-linejoin="round" d="M44.584 47.801C44.584 47.801 47.759 48.841 50.008 49.283"/>
    <path stroke-width="0.131" stroke-linecap="butt" stroke-linejoin="round" d="M52.609 48.106L55.96 48.944"/>
    <path stroke-width="0.131" stroke-linecap="butt" stroke-linejoin="round" d="M50.448 49.253C50.448 49.253 53.927 50.103 54.417 50.267C54.814 50.399 55.122 50.267 55.122 50.267"/>
    <path stroke-width="0.201" stroke-linecap="butt" stroke-linejoin="round" d="M50.36 48.944C50.228 49.121 50.14 49.561 50.14 49.561C50.14 49.561 50.183 52.252 50.625 52.603"/>
    <g>
     <path stroke-width="0.201" stroke-linecap="butt" stroke-linejoin="round" d="M60.381 55.32C59.515 55.814 58.347 55.402 57.776 54.401C57.204 53.398 57.442 52.185 58.31 51.689"/>
     <path stroke-width="0.13" stroke-linecap="butt" stroke-linejoin="round" d="M58.31 51.689C59.176 51.195 60.344 51.606 60.915 52.609C61.487 53.61 61.249 54.825 60.381 55.32"/>
    </g>
    <g>
     <path stroke-width="0.201" stroke-linecap="butt" stroke-linejoin="round" d="M68.347 57.466C67.48 57.962 66.313 57.549 65.742 56.548C65.17 55.545 65.408 54.331 66.275 53.835"/>
     <path stroke-width="0.13" stroke-linecap="butt" stroke-linejoin="round" d="M66.275 53.835C67.143 53.341 68.308 53.753 68.882 54.755C69.453 55.758 69.215 56.972 68.347 57.466"/>
    </g>
   </g>
   <path stroke-width="0.13" stroke-linecap="butt" stroke-linejoin="round" d="M57.514 47.392L70.39 50.612C70.742 50.744 70.875 50.877 70.875 51.229C70.875 51.582 70.875 59.96 70.875 60.445C70.875 60.686 70.808 60.875 70.703 60.996"/>
   <path stroke-width="0.13" stroke-linecap="butt" stroke-linejoin="round" d="M34.451 52.283L34.906 56.457"/>
   <path stroke-width="0.201" stroke-linecap="butt" stroke-linejoin="round" d="M30.658 54.96C30.658 54.96 32.74 55.628 33.171 55.74C33.503 55.828 33.642 55.74 33.642 55.74"/>
   <path stroke-width="0.349" stroke-linecap="butt" stroke-linejoin="round" d="M70.507 49.737L74.623 50.743"/>
   <path stroke-width="0.131" stroke-linecap="butt" stroke-linejoin="round" d="M58.572 46.819L70.507 49.737"/>
   <path stroke-width="0.13" stroke-linecap="butt" stroke-linejoin="round" d="M57.514 47.392L74.71 51.625"/>
   <path stroke-width="0.13" stroke-linecap="butt" stroke-linejoin="round" d="M33.701 56.74L31.054 55.935"/>
   <path stroke-width="0.201" stroke-linecap="butt" stroke-linejoin="round" d="M31.231 55.197L30.923 55.99L30.966 56.607"/>
   <path stroke-width="0.201" stroke-linecap="butt" stroke-linejoin="round" d="M28.983 55.549L30.658 56.034L30.923 55.923"/>
   <path stroke-width="0.13" stroke-linecap="butt" stroke-linejoin="round" d="M29.027 55.99L30.94 56.545"/>
   <path stroke-width="0.13" stroke-linecap="butt" stroke-linejoin="round" d="M30.69 55.829L30.658 54.96"/>
   <path stroke-width="0.13" stroke-linecap="butt" stroke-linejoin="round" d="M31.82 47.392L28.359 46.404L29.233 53.917L32.759 54.917L31.82 47.392z"/>
   <path stroke-width="0.201" stroke-linecap="butt" stroke-linejoin="round" d="M27.461 47.012C26.21 46.682 24.67 46.39 22.948 46.151"/>
   <path stroke-width="0.201" stroke-linecap="butt" stroke-linejoin="round" d="M20.283 47.131C23.082 47.404 25.594 47.814 27.461 48.307L27.649 48.368"/>
   <path stroke-width="0.201" stroke-linecap="butt" stroke-linejoin="round" d="M27.939 51.095C24.603 50.215 19.216 49.603 13.808 49.549"/>
   <path stroke-width="0.201" stroke-linecap="butt" stroke-linejoin="round" d="M1.01 52.154C8.301 50.037 21.707 50.743 27.939 52.389L28.182 52.444"/>
   <path stroke-width="0.349" stroke-linecap="butt" stroke-linejoin="round" d="M27.306 44.04L22.074 42.454"/>
   <path stroke-width="0.349" stroke-linecap="butt" stroke-linejoin="round" d="M28.013 42.981L22.094 41.189"/>
   <path stroke-width="0.201" stroke-linecap="butt" stroke-linejoin="round" d="M19.227 49.665C22.251 49.317 25.214 49.298 27.606 49.689L27.89 49.735"/>
   <path stroke-width="0.201" stroke-linecap="butt" stroke-linejoin="round" d="M0.348 55.692C0.528 55.679 2.266 55.488 7.628 52.808C9.131 52.057 10.928 51.405 12.859 50.881"/>
   <path stroke-width="0.201" stroke-linecap="butt" stroke-linejoin="round" d="M8.752 50.99C8.167 51.225 7.612 51.475 7.091 51.734C1.951 54.305 0.27 54.494 0.254 54.496"/>
   <path stroke-width="0.201" stroke-linecap="butt" stroke-linejoin="round" d="M27.8 48.505C24.123 47.905 19.146 48.235 14.586 49.231"/>
   <path stroke-width="0.201" stroke-linecap="butt" stroke-linejoin="round" d="M25.844 46.561C26.382 46.606 26.893 46.667 27.368 46.749"/>
   <path stroke-width="0.201" stroke-linecap="butt" stroke-linejoin="round" d="M27.365 45.533C26.632 45.417 25.829 45.341 24.984 45.301"/>
   <path stroke-width="0.201" stroke-linecap="butt" stroke-linejoin="round" d="M25.207 44.793C25.876 44.811 26.504 44.838 27.079 44.875"/>
   <path stroke-width="0.201" stroke-linecap="butt" stroke-linejoin="round" d="M27.939 50.508C25.699 50.107 23.079 49.735 20.946 49.52"/>
   <path stroke-width="0.201" stroke-linecap="butt" stroke-linejoin="round" d="M0.599 53.331C3.185 52.683 7.243 51.155 7.243 51.155"/>
   <path stroke-width="0.201" stroke-linecap="butt" stroke-linejoin="round" d="M1.078 26.757C2.865 26.995 5.602 26.757 6.078 26.698C6.556 26.638 7.032 26.817 7.032 26.817"/>
   <path stroke-width="0.201" stroke-linecap="butt" stroke-linejoin="round" d="M6.794 25.864C6.794 26.518 7.389 27.649 8.461 29.198C9.532 30.745 10.782 32.054 12.15 32.768C12.15 32.768 12.507 33.006 12.686 33.661C12.865 34.317 12.865 34.317 12.865 34.317"/>
   <path stroke-width="0.201" stroke-linecap="butt" stroke-linejoin="round" d="M6.971 12.827C9.175 12.887 12.15 12.946 13.519 13.067C14.888 13.185 16.257 13.958 17.091 16.161C17.925 18.364 18.996 20.864 19.829 22.948C20.663 25.03 20.782 25.864 20.782 25.864"/>
   <path stroke-width="0.201" stroke-linecap="butt" stroke-linejoin="round" d="M1.139 27.888C5.246 28.661 7.865 28.661 7.865 28.661"/>
   <path stroke-width="0.13" stroke-linecap="butt" stroke-linejoin="round" d="M7.448 20.983C6.852 22.233 6.437 24.435 6.734 25.626"/>
   <path stroke-width="0.13" stroke-linecap="butt" stroke-linejoin="round" d="M14.888 28.007C13.698 29.257 12.15 31.817 12.507 33.067"/>
   <path stroke-width="0.13" stroke-linecap="butt" stroke-linejoin="round" d="M7.508 29.018C6.734 30.091 6.376 33.067 6.556 34.435"/>
   <path stroke-width="0.13" stroke-linecap="butt" stroke-linejoin="round" d="M10.067 31.817C9.473 32.768 9.175 34.375 9.175 34.375"/>
   <path stroke-width="0.13" stroke-linecap="butt" stroke-linejoin="round" d="M5.19 39.795C5.416 41.893 5.304 44.558 5.36 45.523"/>
   <path stroke-width="0.13" stroke-linecap="butt" stroke-linejoin="round" d="M2.809 38.887C3.036 41.213 2.639 42.119 2.639 43.651C2.639 45.182 2.524 46.031 2.866 46.996"/>
   <text x="33.521" y="9.954" stroke="none" fill="#000000" font-family="'Arial'" font-size="8.818">588 192</text>
   <line stroke-width="0.13" stroke-linecap="butt" x1="50.743" y1="11.859" x2="62.104" y2="46.466"/>
  </g>
 </g>
</svg>
