<?xml version="1.0" encoding="utf-8"?>
<!DOCTYPE svg PUBLIC "-//W3C//DTD SVG 1.1//EN" "http://www.w3.org/Graphics/SVG/1.1/DTD/svg11.dtd">
<!-- Generator: PTC Arbortext IsoDraw 7.3 -->
<svg id="Standard_x0020_layer" width="100%" height="100%" viewBox="0 0 75 60.463"
 xmlns="http://www.w3.org/2000/svg" xmlns:xlink="http://www.w3.org/1999/xlink"
 fill-rule="evenodd" clip-rule="evenodd" stroke="#000000" stroke-linecap="round" fill="none" xml:space="preserve">
 <path stroke-width="0.13" stroke-linejoin="round" d="M39.216 27.704C38.743 28.615 37.67 29.03 36.758 28.629"/>
 <path stroke-width="0.13" stroke-linejoin="round" d="M38.343 25.022C39.03 25.324 39.438 26.007 39.447 26.737"/>
 <path stroke-width="0.25" stroke-linejoin="round" d="M35.703 26.446C35.731 26.32 35.773 26.193 35.828 26.068C36.265 25.073 37.392 24.605 38.343 25.022"/>
 <path stroke-width="0.25" stroke-linejoin="round" d="M36.758 28.629C36.17 28.37 35.786 27.835 35.682 27.228"/>
 <path stroke-width="0.13" stroke-linejoin="round" d="M37.331 27.278C37.033 27.679 36.606 27.948 36.145 28.042"/>
 <path stroke-width="0.13" stroke-linejoin="round" d="M37.42 24.99C37.619 25.294 37.729 25.653 37.735 26.027"/>
 <path stroke-width="0.13" stroke-linejoin="round" d="M37.095 22.457C39.448 23.771 40.588 26.597 40.1 29.33"/>
 <path stroke-width="0.13" stroke-linejoin="round" d="M29.954 23.506C31.216 22.362 32.838 21.705 34.469 21.742"/>
 <path stroke-width="0.13" stroke-linejoin="round" d="M29.701 33.679C27.582 31.914 26.945 28.771 28.175 25.974"/>
 <path stroke-width="0.13" stroke-linejoin="round" d="M35.347 34.744C34.109 35.125 32.773 35.137 31.519 34.703"/>
 <path stroke-width="0.25" stroke-linejoin="round" d="M28.542 37.371C23.439 35.049 21.725 29.149 23.96 24.065C26.195 18.986 31.841 15.888 36.975 18.303"/>
 <path stroke-width="0.13" stroke-linejoin="round" d="M38.06 36.192C35.36 38.213 31.815 38.862 28.542 37.371"/>
 <path stroke-width="0.13" stroke-linejoin="round" d="M36.975 18.303C42.308 20.812 43.771 26.714 41.536 31.795C41.402 32.101 41.255 32.399 41.095 32.689"/>
 <path stroke-width="0.13" stroke-linejoin="round" d="M27.504 39.325C26.222 38.74 25.117 37.97 24.193 37.06C24.193 37.06 22.073 34.814 21.37 34.158C20.666 33.503 20.446 33.237 20.375 32.945C20.301 32.654 19.817 30.373 19.768 30.082C19.719 29.791 19.864 29.475 19.864 29.475C19.864 29.475 21.15 26.271 21.248 26.03C21.344 25.786 21.539 25.737 21.661 25.811C21.782 25.884 22.17 25.981 22.17 25.981C22.17 25.981 22.266 25.908 22.292 25.811C22.315 25.713 22.728 24.55 22.777 24.33C22.824 24.112 22.777 24.039 22.631 23.943C22.486 23.846 21.757 23.603 22.003 23.108C23.817 19.07 27.416 16.085 31.437 15.381C31.437 15.381 31.925 15.279 32.338 15.111C32.75 14.941 35.613 13.945 35.613 13.945"/>
 <path stroke-width="0.25" stroke-linejoin="round" d="M31.989 26.288C31.033 25.882 30.602 24.74 31.025 23.739C31.451 22.737 32.57 22.254 33.527 22.661"/>
 <path stroke-width="0.13" stroke-linejoin="round" d="M33.527 22.661L33.527 22.661C34.484 23.067 34.915 24.207 34.49 25.208C34.066 26.21 32.945 26.693 31.989 26.288"/>
 <path stroke-width="0.13" stroke-linejoin="round" d="M31.995 25.969C31.184 25.623 30.818 24.655 31.178 23.806C31.539 22.957 32.488 22.547 33.301 22.89"/>
 <path stroke-width="0.25" stroke-linejoin="round" d="M32.11 25.698C31.442 25.414 31.14 24.615 31.437 23.916C31.734 23.216 32.518 22.878 33.186 23.161"/>
 <path stroke-width="0.13" stroke-linejoin="round" d="M33.186 23.161C33.856 23.445 34.158 24.242 33.859 24.943C33.563 25.643 32.78 25.981 32.11 25.698"/>
 <path stroke-width="0.25" stroke-linejoin="round" d="M32.61 22.597L33.301 22.89C34.112 23.234 34.479 24.202 34.118 25.053C33.758 25.902 32.808 26.312 31.995 25.969L31.248 25.652"/>
 <path stroke-width="0.13" stroke-linejoin="round" d="M39.447 26.737L37.774 26.027"/>
 <path stroke-width="0.25" stroke-linejoin="round" d="M29.684 28.17C30.128 28.025 30.617 28.044 31.062 28.259"/>
 <path stroke-width="0.25" stroke-linejoin="round" d="M29.339 31.801C28.405 31.347 28.033 30.187 28.507 29.207C28.653 28.908 28.861 28.661 29.106 28.475"/>
 <path stroke-width="0.13" stroke-linejoin="round" d="M30.701 31.894C30.262 32.033 29.777 32.015 29.339 31.801"/>
 <path stroke-width="0.13" stroke-linejoin="round" d="M31.062 28.259C31.995 28.713 32.368 29.873 31.893 30.853C31.742 31.164 31.522 31.419 31.265 31.608"/>
 <path stroke-width="0.13" stroke-linejoin="round" d="M29.108 31.126C28.954 31.178 28.795 31.211 28.632 31.225"/>
 <path stroke-width="0.13" stroke-linejoin="round" d="M30.141 28.138C30.417 28.553 30.522 29.076 30.422 29.591"/>
 <path stroke-width="0.13" stroke-linejoin="round" d="M30.71 31.841L29.189 31.1"/>
 <path stroke-width="0.13" stroke-linejoin="round" d="M34.307 34.094C33.374 33.64 33 32.479 33.476 31.501C33.951 30.522 35.094 30.097 36.03 30.551"/>
 <path stroke-width="0.501" stroke-linejoin="round" d="M44.289 34.39C44.49 34.213 44.716 34.046 44.959 33.911C45.694 33.5 46.692 33.323 47.487 33.616C47.487 33.616 50.573 33 50.985 32.881C51.396 32.765 51.984 32.765 52.691 33.118C53.396 33.469 59.335 35.939 60.981 36.704C62.627 37.468 63.127 38.203 63.743 38.938C64.361 39.673 64.772 40.554 65.92 41.173C67.066 41.789 74.591 45.287 74.591 45.287"/>
 <path stroke-width="0.25" stroke-linejoin="round" d="M40.296 37.185C40.415 37.07 40.582 36.95 40.814 36.822C41.606 36.381 43.46 35.381 43.46 35.381C43.578 35.143 43.881 34.749 44.289 34.39"/>
 <path stroke-width="0.501" stroke-linejoin="round" d="M69.593 59.222C69.593 59.222 56.512 50.786 54.042 49.286C53.03 48.67 51.543 47.11 50.808 46.14C50.073 45.17 49.545 44.729 48.427 44.112C47.31 43.494 41.283 40.026 40.667 39.585C40.049 39.143 40.049 38.203 40.02 37.908C39.999 37.701 40.008 37.463 40.296 37.185"/>
 <path stroke-width="0.13" stroke-linejoin="round" d="M64.92 40.878L53.219 46.082"/>
 <path stroke-width="0.13" stroke-linejoin="round" d="M40.284 37.88C40.284 37.88 48.162 42.112 49.192 42.671C50.22 43.229 50.808 43.906 51.366 44.64C51.926 45.375 52.426 46.405 52.426 46.405"/>
 <path stroke-width="0.13" stroke-linejoin="round" d="M52.984 46.905L69.784 56.887"/>
 <path stroke-width="0.13" stroke-linejoin="round" d="M47.487 33.616C47.487 33.616 52.719 36.057 53.426 36.381C54.131 36.704 54.219 36.997 54.277 37.145"/>
 <path stroke-width="0.13" stroke-linejoin="round" d="M43.606 35.587C43.606 35.587 47.957 37.585 49.103 38.173C50.25 38.762 52.366 38.966 53.454 38.29"/>
 <path stroke-width="0.501" stroke-linejoin="round" d="M44.283 34.381L36.03 30.551"/>
 <path stroke-width="0.501" stroke-linejoin="round" d="M40.284 37.173L34.307 34.094"/>
 <path stroke-width="0.13" stroke-linejoin="round" d="M22.115 21.327L19.53 20.329"/>
 <g>
  <text x="40.633" y="10.583" stroke="none" fill="#000000" font-family="'Arial'" font-size="8.818">588 210</text>
 </g>
 <path stroke-width="0.25" stroke-linejoin="round" d="M24.477 24.109L27.533 25.423L28.327 25.789C28.327 25.789 28.786 26.248 28.878 26.248"/>
 <path stroke-width="0.13" stroke-linejoin="round" d="M28.878 26.248C28.969 26.248 29 26.096 29 26.096L29.885 24.109L29.763 23.528L25.914 21.879C25.149 22.612 24.477 24.109 24.477 24.109"/>
 <path stroke-width="0.13" stroke-linejoin="round" d="M26.004 22.001C26.097 22.245 26.432 22.582 26.25 22.949C26.065 23.315 25.699 24.109 25.515 24.507"/>
 <path stroke-width="0.13" stroke-linejoin="round" d="M30.798 33.375C30.878 33.381 30.94 33.423 30.986 33.521C31.17 33.918 31.384 34.774 31.384 34.774L31.17 35.11"/>
 <path stroke-width="0.25" stroke-linejoin="round" d="M25.364 32.604C25.364 32.604 27.289 33.552 27.868 33.767C28.449 33.981 28.939 33.95 29.641 33.796C30.169 33.682 30.559 33.362 30.798 33.375"/>
 <path stroke-width="0.13" stroke-linejoin="round" d="M28.984 23.054C30.414 21.681 32.307 20.9 34.198 20.989"/>
 <path stroke-width="0.13" stroke-linejoin="round" d="M28.725 33.862C26.574 31.891 25.939 28.507 27.233 25.564"/>
 <path stroke-width="0.13" stroke-linejoin="round" d="M28.082 19.464C29.278 19.231 31.754 18.887 33.862 20.448"/>
 <path stroke-width="0.25" stroke-linejoin="round" d="M35.634 34.902C34.293 35.481 32.81 35.648 31.39 35.295C31.39 35.295 31.231 35.232 31.016 35.142L28.969 34.011"/>
 <path stroke-width="0.25" stroke-linejoin="round" d="M32.177 19.771L36.362 21.495C39.331 22.8 40.771 26.199 40.097 29.422C40.097 29.422 39.115 29.855 38.962 29.885C38.808 29.916 38.808 29.977 38.869 30.099C38.932 30.222 39.322 31.53 39.322 31.53C39.255 31.653 39.185 31.774 39.112 31.891"/>
 <path stroke-width="0.13" stroke-linejoin="round" d="M36.701 23.01L36.975 22.428L36.67 21.664"/>
 <path stroke-width="0.25" stroke-linejoin="round" d="M31.138 19.861C31.138 19.861 34.073 20.87 34.286 20.961C34.5 21.053 34.805 21.635 34.744 21.757C34.683 21.879 34.622 22.123 34.713 22.153C34.805 22.184 36.701 23.01 36.701 23.01"/>
 <path stroke-width="0.25" stroke-linejoin="round" d="M29.702 28.234L31.231 31.565"/>
 <path stroke-width="0.131" stroke-linejoin="round" d="M29.182 28.51L30.71 31.841"/>
 <path stroke-width="0.131" stroke-linejoin="round" d="M28.46 29.513L29.189 31.1"/>
 <path stroke-width="0.25" stroke-linejoin="round" d="M39.268 27.379L35.753 27.103"/>
 <path stroke-width="0.131" stroke-linejoin="round" d="M39.298 26.798L35.783 26.524"/>
 <path stroke-width="0.131" stroke-linejoin="round" d="M37.774 26.027L35.969 25.885"/>
 <path stroke-width="0.13" stroke-linejoin="round" d="M32.113 34.716C32.159 34.734 32.21 34.743 32.27 34.743C32.484 34.743 32.972 34.835 33.155 34.774C33.338 34.713 33.613 34.5 33.308 34.225C33.003 33.95 32.582 33.161 32.698 32.237C32.732 31.954 32.572 31.699 32.377 31.615"/>
 <path stroke-width="0.25" stroke-linejoin="round" d="M32.377 31.615C32.237 31.556 32.079 31.582 31.963 31.748C31.963 31.748 31.689 32.024 31.475 32.176C31.26 32.329 31.199 32.39 31.292 32.543C31.384 32.697 31.812 34.194 31.873 34.408C31.917 34.563 31.993 34.67 32.113 34.716"/>
 <path stroke-width="0.13" stroke-linejoin="round" d="M38.017 29.576C38.101 29.611 38.164 29.678 38.198 29.763C38.259 29.916 38.747 31.536 38.747 31.536"/>
 <path stroke-width="0.25" stroke-linejoin="round" d="M37.25 30.986C37.158 30.588 36.823 30.344 36.731 30.161C36.64 29.977 36.64 29.518 37.006 29.548C37.372 29.579 37.555 29.579 37.77 29.548C37.865 29.536 37.948 29.545 38.017 29.576"/>
 <path stroke-width="0.25" stroke-linejoin="round" d="M30.199 25.306C30.128 25.248 30.053 25.256 30.007 25.332C29.711 25.826 29.245 26.859 29.152 27.166C29.106 27.318 29.129 27.425 29.182 27.483"/>
 <path stroke-width="0.13" stroke-linejoin="round" d="M29.182 27.483C29.236 27.541 29.321 27.548 29.396 27.501C29.55 27.41 30.253 27.288 30.681 27.288C31.109 27.288 31.358 26.835 30.986 26.463C30.771 26.248 30.405 25.821 30.375 25.669C30.338 25.486 30.269 25.364 30.199 25.306"/>
 <path stroke-width="0.13" stroke-linejoin="round" d="M35.539 25.213C35.63 25.219 35.734 25.181 35.844 25.088C36.241 24.751 36.548 24.597 36.823 24.507C37.097 24.414 37.343 24.018 36.975 23.835C36.609 23.65 35.905 23.376 35.661 23.254C35.612 23.23 35.561 23.213 35.512 23.207"/>
 <path stroke-width="0.25" stroke-linejoin="round" d="M35.512 23.207C35.31 23.178 35.13 23.297 35.204 23.589C35.323 24.073 35.326 24.292 35.234 24.66C35.167 24.923 35.307 25.202 35.539 25.213"/>
 <path stroke-width="0.25" stroke-linejoin="round" d="M32.82 30.832C32.575 30.74 32.637 30.19 32.575 29.426C32.514 28.663 32.27 28.388 31.963 28.021C31.658 27.653 31.841 27.257 32.453 27.227C33.064 27.196 33.848 26.914 34.469 26.37C34.713 26.157 34.866 26.157 35.02 26.217"/>
 <path stroke-width="0.13" stroke-linejoin="round" d="M35.02 26.217C35.264 26.309 35.203 26.859 35.264 27.623C35.326 28.388 35.57 28.663 35.875 29.03C36.18 29.396 35.997 29.794 35.387 29.824C34.776 29.855 33.99 30.135 33.369 30.679C33.125 30.893 32.972 30.893 32.82 30.832"/>
 <path stroke-width="0.25" stroke-linejoin="round" d="M23.102 29.67C23.254 30.405 24.324 31.993 25.242 32.512"/>
 <path stroke-width="0.25" stroke-linejoin="round" d="M32.545 17.539C33.401 17.722 34.927 18.455 35.814 19.373C35.814 19.373 36.119 19.8 35.875 20.015C35.631 20.228 35.57 20.32 35.57 20.32C35.57 20.32 36.027 20.931 36.119 21.268"/>
 <path stroke-width="0.25" stroke-linejoin="round" d="M30.283 34.835C29.55 35.018 29.06 35.049 28.664 35.018C28.664 35.018 28.573 35.262 28.573 35.476C28.573 35.691 28.542 35.814 28.175 35.814C27.809 35.814 26.984 35.753 26.189 35.325"/>
 <path stroke-width="0.13" stroke-linejoin="round" d="M28.695 35.63C29.458 35.661 30.62 35.476 30.894 35.293"/>
 <path stroke-width="0.25" stroke-linejoin="round" d="M31.445 17.753C31.445 17.753 31.536 18.394 31.536 18.516C31.536 18.64 31.353 18.701 31.353 18.701C31.353 18.701 29.641 19.19 29.367 19.251C29.091 19.312 29.091 19.097 29.091 19.097L29 18.64"/>
 <path stroke-width="0.25" stroke-linejoin="round" d="M24.14 33.124C24.14 33.124 24.57 32.726 24.692 32.636C24.814 32.543 24.814 32.543 24.814 32.543C24.814 32.543 26.402 34.223 26.495 34.377C26.585 34.53 26.617 34.682 26.524 34.804C26.434 34.927 25.943 35.476 25.943 35.476"/>
 <path stroke-width="0.13" stroke-linejoin="round" d="M25.088 32.941C25.364 33.49 25.425 33.796 25.792 34.194C26.158 34.591 26.402 34.652 26.556 34.652"/>
 <path stroke-width="0.25" stroke-linejoin="round" d="M39.335 30.971L40.218 31.5"/>
 <path stroke-width="0.25" stroke-linejoin="round" d="M41.453 28.809C41.189 28.699 40.372 28.414 40.372 28.414"/>
 <path stroke-width="0.13" stroke-linejoin="round" d="M40.372 31.544C40.593 31.655 41.165 31.08 41.43 30.309C41.695 29.538 41.718 28.92 41.453 28.809"/>
 <path stroke-width="0.13" stroke-linejoin="round" d="M40.439 28.545C40.747 28.986 40.703 30.353 39.512 30.795"/>
 <path stroke-width="0.13" stroke-linejoin="round" d="M32.423 23.114C32.494 23.126 32.566 23.149 32.636 23.178C33.192 23.414 33.444 24.079 33.197 24.661C32.948 25.245 32.296 25.525 31.739 25.289C31.707 25.275 31.675 25.26 31.644 25.245"/>
 <path stroke-width="0.349" stroke-linejoin="round" d="M30.701 14.419L31.024 13.449C31.024 13.449 30.759 13.332 30.553 13.243C30.347 13.156 30.495 12.449 30.876 12.538C31.259 12.627 34.933 13.803 34.933 13.803"/>
 <path stroke-width="0.25" stroke-linejoin="round" d="M19.294 29.795C19.294 29.795 19.234 29.647 19.382 29.178C19.53 28.707 20.411 26.356 20.588 25.974C20.763 25.591 21.117 25.414 21.352 25.414L21.83 25.593"/>
 <path stroke-width="0.25" stroke-linejoin="round" d="M17.785 28.324C17.972 28.256 18.088 28.207 18.088 28.207"/>
 <path stroke-width="0.349" stroke-linejoin="round" d="M18.324 31.03C18.324 31.03 17.118 30.265 16.824 30.059C16.53 29.853 16.413 28.765 17.001 28.589C17.304 28.498 17.585 28.399 17.785 28.324"/>
 <path stroke-width="0.349" stroke-linejoin="round" d="M17.676 25.885C17.647 26.707 17.707 27.591 17.824 28.236"/>
 <path stroke-width="0.25" stroke-linejoin="round" d="M17.678 25.882C17.742 25.934 17.812 25.983 17.882 26.032C18.176 26.237 20.088 27.032 20.088 27.032"/>
 <path stroke-width="0.349" stroke-linejoin="round" d="M17.821 24.239C17.522 24.425 17.324 24.724 17.324 25.12C17.324 25.521 17.475 25.719 17.678 25.882"/>
 <path stroke-width="0.25" stroke-linejoin="round" d="M18.147 24.091C18.03 24.129 17.92 24.178 17.821 24.239"/>
 <path stroke-width="0.25" stroke-linejoin="round" d="M18.147 30.059C18.147 30.059 18.442 29.501 18.559 29.324C18.676 29.147 18.824 29.059 18.824 29.059L19.44 28.765"/>
 <path stroke-width="0.349" stroke-linejoin="round" d="M18.882 32.234C18.736 32.646 18.765 33.029 19.176 33.323C19.588 33.616 21.44 34.646 21.44 34.646"/>
 <path stroke-width="0.349" stroke-linejoin="round" d="M21.469 34.764C21.234 35.174 21.323 35.822 21.704 36.057C22.086 36.292 24.573 37.628 24.573 37.628"/>
 <path stroke-width="0.25" stroke-linejoin="round" d="M19.211 20.323C19.332 20.294 19.446 20.295 19.53 20.329"/>
 <path stroke-width="0.349" stroke-linejoin="round" d="M18.512 21.809C18.417 21.512 18.431 21.091 18.579 20.812C18.722 20.542 18.981 20.376 19.211 20.323"/>
 <path stroke-width="0.25" stroke-linejoin="round" d="M18.724 22.123C18.629 22.068 18.557 21.952 18.512 21.809"/>
 <path stroke-width="0.349" stroke-linejoin="round" d="M18.506 22.001C18.214 22.583 17.972 23.579 17.875 24.088"/>
 <path stroke-width="0.25" stroke-linejoin="round" d="M21.821 17.088C21.931 17.097 22.042 17.125 22.146 17.172C22.557 17.367 24.693 18.265 24.693 18.265"/>
 <path stroke-width="0.349" stroke-linejoin="round" d="M20.772 18.182C20.768 17.87 20.859 17.55 21.004 17.367C21.15 17.184 21.487 17.057 21.821 17.088"/>
 <path stroke-width="0.25" stroke-linejoin="round" d="M20.811 18.484C20.786 18.387 20.774 18.286 20.772 18.182"/>
 <path stroke-width="0.25" stroke-linejoin="round" d="M25.65 14.999C26.379 15.271 28.164 15.912 28.164 15.912"/>
 <path stroke-width="0.349" stroke-linejoin="round" d="M24.01 15.727C24.039 15.4 24.172 15.032 24.426 14.868C24.766 14.65 25.082 14.771 25.373 14.891C25.417 14.91 25.516 14.948 25.65 14.999"/>
 <path stroke-width="0.25" stroke-linejoin="round" d="M24.013 16.033C24.001 15.942 24.001 15.836 24.01 15.727"/>
 <path stroke-width="0.25" stroke-linejoin="round" d="M30.556 14.388C31.231 14.618 31.9 14.843 31.9 14.843"/>
 <path stroke-width="0.349" stroke-linejoin="round" d="M27.666 14.532C27.765 14.202 27.951 13.926 28.26 13.849C28.649 13.752 28.891 13.801 29.207 13.922C29.355 13.978 29.958 14.185 30.556 14.388"/>
 <path stroke-width="0.25" stroke-linejoin="round" d="M27.606 14.794C27.62 14.705 27.64 14.617 27.666 14.532"/>
 <path stroke-width="0.13" stroke-linejoin="round" d="M31.024 13.449L33.72 14.26"/>
 <path stroke-width="0.349" stroke-linejoin="round" d="M27.509 14.6C26.925 14.65 26.246 14.868 25.833 14.989"/>
 <path stroke-width="0.349" stroke-linejoin="round" d="M23.893 15.789C23.213 16.129 22.291 16.833 22.048 17.027"/>
 <path stroke-width="0.349" stroke-linejoin="round" d="M20.666 18.338C20.035 19.042 19.452 20.036 19.33 20.254"/>
 <path stroke-width="0.13" stroke-linejoin="round" d="M27.629 14.916C27.653 15.013 27.774 15.061 27.774 15.061L29.109 15.522"/>
 <path stroke-width="0.13" stroke-linejoin="round" d="M24.038 16.153C24.038 16.251 24.135 16.275 24.135 16.275L26.125 17.027"/>
 <path stroke-width="0.13" stroke-linejoin="round" d="M20.908 18.653L23.262 19.745"/>
 <path stroke-width="0.13" stroke-linejoin="round" d="M18.846 22.221L21.248 23.239"/>
 <path stroke-width="0.13" stroke-linejoin="round" d="M18.312 24.088L21.175 25.375"/>
 <path stroke-width="0.13" stroke-linejoin="round" d="M18.716 29.455L19.176 29.663"/>
 <path stroke-width="0.13" stroke-linejoin="round" d="M18.239 28.263L19.184 28.724"/>
 <path stroke-width="0.349" stroke-linejoin="round" d="M35.112 13.843C35.161 13.826 35.201 13.811 35.228 13.803C35.551 13.685 35.786 13.772 35.786 13.772C35.786 13.772 38.167 14.538 38.579 14.743C38.99 14.948 39.109 15.214 39.197 15.39C39.284 15.567 40.728 18.172 41.551 19.054C44.564 22.414 45.219 27.28 43.594 31.727C43.506 32.299 43.238 33.661 43.238 33.661"/>
 <path stroke-width="0.25" stroke-linejoin="round" d="M22.193 23.943C22.193 23.943 21.708 23.603 21.515 23.53C21.321 23.457 21.417 22.987 21.417 22.987C23.246 18.826 26.966 15.765 31.106 15.124C31.106 15.124 31.789 14.978 32.2 14.832C32.578 14.696 34.542 14.041 35.112 13.843"/>
 <path stroke-width="0.349" stroke-linejoin="round" d="M24.696 37.723C25.378 38.244 26.134 38.701 26.964 39.079L27.504 39.325C30.458 40.668 33.597 40.581 36.357 39.432C36.357 39.432 38.609 38.996 39.137 38.865C39.667 38.731 39.844 38.6 39.844 38.6"/>
 <path stroke-width="0.25" stroke-linejoin="round" d="M18.934 32.107C19.03 32.277 19.117 32.404 19.176 32.441C19.411 32.588 19.969 33 19.969 33C20.028 33.323 20.294 33.469 20.294 33.469L22.932 36.037C23.449 36.654 24.036 37.219 24.696 37.723"/>
 <path stroke-width="0.25" stroke-linejoin="round" d="M18.455 31.138C18.591 31.437 18.777 31.829 18.934 32.107"/>
 <path stroke-width="0.25" stroke-linejoin="round" d="M18.265 30.707C18.265 30.707 18.343 30.89 18.455 31.138"/>
 <path stroke-width="0.25" stroke-linejoin="round" d="M21.083 32.637L20.548 30.265L21.775 29.917C21.789 29.913 21.803 29.914 21.817 29.92"/>
 <path stroke-width="0.13" stroke-linejoin="round" d="M21.817 29.92C21.856 29.939 21.888 29.996 21.896 30.053C21.929 30.257 22.317 32.216 22.317 32.216C22.317 32.216 22.3 32.298 22.236 32.314C22.047 32.362 21.274 32.598 21.083 32.637"/>
 <path stroke-width="0.25" stroke-linejoin="round" d="M37.902 15.426L35.786 14.81L35.411 16.021"/>
 <path stroke-width="0.131" stroke-linejoin="round" d="M35.433 16.132L37.551 16.75L37.924 15.537"/>
 <path stroke-width="0.25" stroke-linejoin="round" d="M18.236 21.269C16.03 20.829 13.561 21.092 12.59 21.092C11.621 21.092 11.798 20.475 10.474 20.3C9.151 20.123 6.859 19.946 5.36 19.594C3.859 19.24 1.655 18.448 0.509 17.917"/>
 <path stroke-width="0.25" stroke-linejoin="round" d="M18.765 33.264C16.384 34.674 13.473 35.822 9.856 35.909C6.24 35.997 4.301 35.469 2.625 34.851C0.95 34.234 0.332 34.057 0.332 34.057"/>
 <path stroke-width="0.13" stroke-linejoin="round" d="M12.15 21.181C12.943 22.416 14.708 25.414 17.353 26.032"/>
 <path stroke-width="0.13" stroke-linejoin="round" d="M4.213 29.118C3.772 30.971 2.096 33 1.038 33.351"/>
 <path stroke-width="0.25" stroke-linejoin="round" d="M14.003 59.369C17.618 57.871 22.292 55.665 23.792 54.43C25.291 53.195 29.26 49.756 30.318 48.875C31.376 47.993 32.875 45.17 31.64 43.406C30.407 41.643 28.907 40.32 25.027 40.761C21.146 41.201 16.118 43.582 13.737 45.259C11.356 46.933 10.387 47.286 9.593 47.551C8.798 47.816 2.448 50.021 0.862 50.814"/>
 <path stroke-width="0.25" stroke-linejoin="round" d="M44.959 42.524C43.195 44.289 39.755 47.198 37.286 48.609C34.816 50.021 31.905 51.167 29.878 51.697C27.849 52.225 25.468 53.107 25.468 53.107"/>
 <path stroke-width="0.25" stroke-linejoin="round" d="M0.421 43.494C2.977 42.966 8.005 43.054 9.24 43.054C10.474 43.054 11.885 42.259 15.942 41.466C20 40.673 22.556 40.496 22.556 40.496C22.556 40.496 24.41 39.173 25.556 38.643"/>
 <path stroke-width="0.25" stroke-linejoin="round" d="M16.384 34.587C18.059 34.939 20.477 35.14 21.146 35.027"/>
 <path stroke-width="0.13" stroke-linejoin="round" d="M9.24 36.527C8.711 38.82 8.711 41.289 8.711 42.347"/>
 <path stroke-width="0.13" stroke-linejoin="round" d="M21.234 36.704C20.969 38.38 21.057 39.613 21.323 40.143"/>
 <path stroke-width="0.13" stroke-linejoin="round" d="M8.974 44.289C8.974 45.612 9.327 47.023 9.327 47.023"/>
 <path stroke-width="0.13" stroke-linejoin="round" d="M9.945 49.667C10.21 51.784 11.003 55.313 11.974 56.195"/>
 <g>
 </g>
</svg>
