<?xml version="1.0" encoding="utf-8"?>
<!DOCTYPE svg PUBLIC "-//W3C//DTD SVG 1.1//EN" "http://www.w3.org/Graphics/SVG/1.1/DTD/svg11.dtd">
<!-- Generator: PTC Arbortext IsoDraw 7.3 -->
<svg width="100%" height="100%" viewBox="0 0 75 81.405"
 xmlns="http://www.w3.org/2000/svg" xmlns:xlink="http://www.w3.org/1999/xlink"
 fill-rule="evenodd" clip-rule="evenodd" stroke="#000000" stroke-linecap="round" fill="none" xml:space="preserve">
 <g id="Frame">
  <path stroke="none" fill="#FFFFFF" d="M75 81.405L0 81.405 0 0 75 0 75 81.405z"/>
 </g>
 <g id="Colour">
 </g>
 <g id="Standard_x0020_layer">
  <g>
   <text x="34.643" y="72.995" stroke="none" fill="#000000" font-family="'Helvetica'" font-size="4.232">L2</text>
   <text x="37.137" y="52.173" stroke="none" fill="#000000" font-family="'Helvetica'" font-size="4.232">L1</text>
   <text x="3.084" y="52.46" stroke="none" fill="#000000" font-family="'Helvetica'" font-size="4.232">+24V</text>
   <g>
    <path stroke-width="0.13" d="M30.05 67.811C30.05 66.322 28.844 65.117 27.356 65.117C25.868 65.117 24.663 66.322 24.663 67.811C24.663 68.555 24.963 69.228 25.452 69.715"/>
    <path stroke-width="0.13" d="M29.23 69.748C29.775 69.219 30.05 68.516 30.05 67.811"/>
   </g>
   <polygon stroke-width="0.3" points="25.452 69.715 29.23 69.715 29.23 72.805 25.452 72.805 25.452 69.715"/>
   <line stroke-width="0.3" x1="25.897" y1="72.825" x2="26.222" y2="73.284"/>
   <line stroke-width="0.3" x1="26.222" y1="73.284" x2="28.606" y2="73.284"/>
   <line stroke-width="0.3" x1="28.606" y1="73.284" x2="28.931" y2="72.825"/>
   <line stroke-width="0.13" x1="26.657" y1="69.6" x2="26.141" y2="67.596"/>
   <path stroke-width="0.13" d="M26.141 67.596C26.548 68.003 27.333 67.894 27.469 67.623"/>
   <line stroke-width="0.13" x1="28.282" y1="69.6" x2="28.797" y2="67.596"/>
   <path stroke-width="0.13" d="M28.797 67.596C28.39 68.003 27.605 67.894 27.469 67.623"/>
   <line stroke-width="0.3" x1="26.713" y1="73.263" x2="26.713" y2="74.15"/>
   <line stroke-width="0.3" x1="26.713" y1="74.15" x2="9.861" y2="74.15"/>
   <line stroke-width="0.3" x1="28.117" y1="73.263" x2="28.117" y2="74.15"/>
   <line stroke-width="0.3" x1="28.117" y1="74.15" x2="45.633" y2="74.15"/>
   <g>
    <path stroke-width="0.13" d="M30.092 47.164C30.092 45.676 28.887 44.47 27.399 44.47C25.911 44.47 24.704 45.676 24.704 47.164C24.704 47.908 25.006 48.582 25.493 49.07"/>
    <path stroke-width="0.13" d="M29.271 49.101C29.818 48.573 30.091 47.869 30.092 47.164"/>
   </g>
   <polygon stroke-width="0.3" points="25.493 49.07 29.271 49.07 29.271 52.159 25.493 52.159 25.493 49.07"/>
   <line stroke-width="0.3" x1="25.94" y1="52.179" x2="26.265" y2="52.639"/>
   <line stroke-width="0.3" x1="26.265" y1="52.639" x2="28.649" y2="52.639"/>
   <line stroke-width="0.3" x1="28.649" y1="52.639" x2="28.974" y2="52.179"/>
   <line stroke-width="0.13" x1="26.698" y1="48.954" x2="26.184" y2="46.95"/>
   <path stroke-width="0.13" d="M26.184 46.95C26.589 47.356 27.376 47.247 27.51 46.978"/>
   <line stroke-width="0.13" x1="28.324" y1="48.954" x2="28.838" y2="46.95"/>
   <path stroke-width="0.13" d="M28.838 46.95C28.431 47.356 27.646 47.247 27.51 46.978"/>
   <line stroke-width="0.3" x1="26.754" y1="52.616" x2="26.754" y2="53.505"/>
   <line stroke-width="0.2" x1="26.754" y1="53.505" x2="3.174" y2="53.505"/>
   <line stroke-width="0.3" x1="28.158" y1="52.616" x2="28.158" y2="53.505"/>
   <line stroke-width="0.2" x1="28.158" y1="53.505" x2="58.228" y2="53.505"/>
   <line stroke-width="0.2" x1="9.861" y1="74.15" x2="9.861" y2="53.545"/>
   <polygon stroke-width="0.2" points="45.673 73.644 49.777 73.644 49.777 74.62 45.673 74.62 45.673 73.644"/>
   <path stroke-width="0.2" d="M49.777 74.132C50.216 74.501 50.435 74.719 50.753 74.719C51.073 74.719 54.24 74.56 54.261 74.579C54.28 74.599 54.441 74.579 54.401 74.879C54.36 75.177 54.36 75.298 54.24 75.298C54.121 75.298 50.235 75.537 50.137 75.456C50.036 75.376 50.116 74.719 49.777 74.62"/>
   <line stroke-width="0.2" x1="50.396" y1="74.56" x2="50.396" y2="73.204"/>
   <line stroke-width="0.2" x1="50.396" y1="73.204" x2="50.793" y2="72.807"/>
   <line stroke-width="0.2" x1="50.793" y1="72.807" x2="51.909" y2="72.807"/>
   <line stroke-width="0.2" x1="51.311" y1="73.085" x2="51.311" y2="74.301"/>
   <line stroke-width="0.2" x1="53.942" y1="74.56" x2="53.942" y2="73.204"/>
   <line stroke-width="0.2" x1="53.942" y1="73.204" x2="53.543" y2="72.807"/>
   <line stroke-width="0.2" x1="53.543" y1="72.807" x2="51.909" y2="72.807"/>
   <line stroke-width="0.2" x1="53.026" y1="73.085" x2="53.026" y2="74.301"/>
   <line stroke-width="0.2" x1="53.878" y1="75.835" x2="53.878" y2="76.924"/>
   <line stroke-width="0.2" x1="53.878" y1="76.924" x2="53.481" y2="77.322"/>
   <line stroke-width="0.2" x1="53.481" y1="77.323" x2="52.365" y2="77.322"/>
   <line stroke-width="0.2" x1="52.963" y1="77.045" x2="52.963" y2="75.828"/>
   <line stroke-width="0.2" x1="50.332" y1="75.835" x2="50.332" y2="76.924"/>
   <line stroke-width="0.2" x1="50.332" y1="76.924" x2="50.731" y2="77.322"/>
   <line stroke-width="0.2" x1="50.731" y1="77.323" x2="52.365" y2="77.322"/>
   <line stroke-width="0.2" x1="51.249" y1="77.045" x2="51.249" y2="75.828"/>
   <polygon stroke-width="0.2" points="48.362 75.436 73.31 75.436 73.31 75.835 48.362 75.835 48.362 75.436"/>
   <line stroke-width="0.2" x1="51.267" y1="77.322" x2="51.267" y2="78.102"/>
   <line stroke-width="0.2" x1="51.267" y1="78.102" x2="51.555" y2="78.269"/>
   <line stroke-width="0.2" x1="51.555" y1="78.269" x2="53.036" y2="78.269"/>
   <line stroke-width="0.2" x1="53.036" y1="78.269" x2="53.274" y2="78.111"/>
   <line stroke-width="0.2" x1="53.274" y1="78.111" x2="53.274" y2="77.343"/>
   <line stroke-width="0.2" x1="51.357" y1="77.564" x2="52.299" y2="77.462"/>
   <line stroke-width="0.2" x1="51.365" y1="77.858" x2="53.179" y2="77.652"/>
   <line stroke-width="0.2" x1="52.142" y1="78.048" x2="53.188" y2="77.912"/>
   <polygon stroke-width="0.2" points="59.744 73.293 63.848 73.293 63.848 74.269 59.744 74.269 59.744 73.293"/>
   <path stroke-width="0.2" d="M63.848 73.781C64.287 74.15 64.507 74.368 64.825 74.368C65.144 74.368 68.313 74.209 68.332 74.23C68.352 74.25 68.512 74.23 68.471 74.528C68.432 74.826 68.432 74.947 68.313 74.947C68.192 74.947 64.308 75.186 64.207 75.105C64.108 75.027 64.188 74.368 63.848 74.269"/>
   <line stroke-width="0.2" x1="64.525" y1="73.423" x2="64.525" y2="72.067"/>
   <line stroke-width="0.2" x1="64.525" y1="72.067" x2="64.924" y2="71.67"/>
   <line stroke-width="0.2" x1="64.924" y1="71.67" x2="66.04" y2="71.67"/>
   <line stroke-width="0.2" x1="65.442" y1="71.948" x2="65.442" y2="73.164"/>
   <line stroke-width="0.2" x1="68.072" y1="73.423" x2="68.072" y2="72.067"/>
   <line stroke-width="0.2" x1="68.072" y1="72.067" x2="67.674" y2="71.67"/>
   <line stroke-width="0.2" x1="67.674" y1="71.67" x2="66.04" y2="71.67"/>
   <line stroke-width="0.2" x1="67.156" y1="71.948" x2="67.156" y2="73.164"/>
   <line stroke-width="0.2" x1="67.933" y1="75.828" x2="67.933" y2="76.917"/>
   <line stroke-width="0.2" x1="67.933" y1="76.917" x2="67.534" y2="77.316"/>
   <line stroke-width="0.2" x1="67.534" y1="77.316" x2="66.418" y2="77.316"/>
   <line stroke-width="0.2" x1="67.016" y1="77.037" x2="67.016" y2="75.82"/>
   <line stroke-width="0.2" x1="64.387" y1="75.828" x2="64.387" y2="76.917"/>
   <line stroke-width="0.2" x1="64.387" y1="76.917" x2="64.784" y2="77.316"/>
   <line stroke-width="0.2" x1="64.784" y1="77.316" x2="66.418" y2="77.316"/>
   <line stroke-width="0.2" x1="65.302" y1="77.037" x2="65.302" y2="75.82"/>
   <line stroke-width="0.2" x1="65.32" y1="77.314" x2="65.32" y2="78.094"/>
   <line stroke-width="0.2" x1="65.32" y1="78.094" x2="65.609" y2="78.262"/>
   <line stroke-width="0.2" x1="65.609" y1="78.262" x2="67.09" y2="78.262"/>
   <line stroke-width="0.2" x1="67.09" y1="78.262" x2="67.328" y2="78.102"/>
   <line stroke-width="0.2" x1="67.328" y1="78.102" x2="67.328" y2="77.334"/>
   <line stroke-width="0.2" x1="65.412" y1="77.557" x2="66.353" y2="77.453"/>
   <line stroke-width="0.2" x1="65.42" y1="77.849" x2="67.233" y2="77.644"/>
   <line stroke-width="0.2" x1="66.195" y1="78.04" x2="67.242" y2="77.905"/>
   <line stroke-width="0.2" x1="68.072" y1="73.423" x2="64.525" y2="73.423"/>
   <line stroke-width="0.2" x1="65.465" y1="73.436" x2="65.465" y2="74.355"/>
   <line stroke-width="0.2" x1="65.421" y1="74.992" x2="65.421" y2="75.325"/>
   <line stroke-width="0.2" x1="67.215" y1="73.409" x2="67.215" y2="74.263"/>
   <line stroke-width="0.2" x1="67.23" y1="75.001" x2="67.23" y2="75.409"/>
   <line stroke-width="0.2" x1="70.932" y1="75.816" x2="70.932" y2="79.159"/>
   <line stroke-width="0.5" x1="70.932" y1="79.159" x2="69.201" y2="79.159"/>
   <line stroke-width="0.5" x1="70.971" y1="79.828" x2="69.909" y2="79.828"/>
   <line stroke-width="0.5" x1="71.01" y1="80.495" x2="70.539" y2="80.495"/>
   <line stroke-width="0.5" x1="70.932" y1="79.159" x2="72.662" y2="79.159"/>
   <line stroke-width="0.5" x1="70.893" y1="79.828" x2="71.954" y2="79.828"/>
   <line stroke-width="0.5" x1="70.853" y1="80.495" x2="71.325" y2="80.495"/>
   <line stroke-width="0.2" x1="58.228" y1="53.505" x2="58.228" y2="73.771"/>
   <line stroke-width="0.2" x1="58.228" y1="73.771" x2="59.744" y2="73.771"/>
   <path stroke-width="0.3" d="M13.98 30.65C13.98 30.65 4.419 31.001 4.402 31.001C4.383 31.001 2.256 31.039 2.108 28.579C1.96 26.12 2.589 3.113 2.589 3.15C2.589 3.188 2.256 1.893 4.402 1.893C6.546 1.893 15.016 2.374 15.016 2.374C15.016 2.374 16.164 2.299 16.164 5.333C16.164 8.365 15.054 24.972 15.054 24.972L14.906 28.376"/>
   <path stroke-width="0.13" d="M2.403 28.19C2.589 29.263 2.625 29.597 3.995 29.597C5.362 29.597 12.835 29.338 12.835 29.338"/>
   <path stroke-width="0.13" d="M12.353 28.561L3.698 28.745C3.698 28.745 3.107 28.338 3.032 27.082C2.959 25.824 3.181 10.178 3.181 10.178C3.181 10.178 3.551 5.259 3.588 4.889C3.625 4.519 3.773 4.112 4.697 4.149C5.621 4.185 14.573 4.556 14.647 4.593C14.721 4.629 15.275 4.408 15.275 5.333C15.275 6.258 15.016 13.58 14.98 13.58C14.942 13.58 14.461 26.157 14.461 26.157"/>
   <path stroke-width="0.13" d="M4.919 4.185C4.142 4.185 4.216 4.778 4.179 5.11C4.142 5.443 3.995 11.583 3.995 11.583L7.878 11.695C7.878 11.695 11.429 12.176 11.317 15.948"/>
   <path stroke-width="0.13" d="M11.317 15.948C11.207 17.724 9.839 20.091 7.139 20.202C4.439 20.312 4.032 20.239 4.032 20.239L3.883 28.524"/>
   <line stroke-width="0.13" x1="4.4" y1="9.977" x2="4.593" y2="4.543"/>
   <line stroke-width="0.13" x1="4.593" y1="4.543" x2="14.58" y2="4.964"/>
   <line stroke-width="0.13" x1="14.58" y1="4.964" x2="14.387" y2="10.4"/>
   <line stroke-width="0.13" x1="4.4" y1="9.977" x2="14.387" y2="10.4"/>
   <line stroke-width="0.13" x1="4.977" y1="6.04" x2="4.881" y2="9.151"/>
   <line stroke-width="0.13" x1="5.246" y1="9.247" x2="13.58" y2="9.496"/>
   <line stroke-width="0.13" x1="13.772" y1="9.304" x2="13.887" y2="6.443"/>
   <line stroke-width="0.13" x1="13.657" y1="6.232" x2="5.189" y2="6.078"/>
   <path stroke-width="0.13" d="M7.993 10.842C8.319 10.707 8.414 10.994 8.702 10.88"/>
   <line stroke-width="0.13" x1="10.278" y1="12.166" x2="10.872" y2="12.166"/>
   <line stroke-width="0.13" x1="13.119" y1="14.125" x2="13.753" y2="14.163"/>
   <g>
    <path stroke-width="0.13" d="M8.346 12.718C8.346 12.542 8.204 12.4 8.028 12.4C7.852 12.4 7.71 12.542 7.71 12.718C7.71 12.894 7.852 13.037 8.028 13.037C8.204 13.037 8.346 12.894 8.346 12.718"/>
   </g>
   <g>
    <path stroke-width="0.13" d="M7.45 15.502C7.45 15.297 7.283 15.131 7.078 15.131C6.947 15.131 6.83 15.199 6.764 15.304"/>
    <path stroke-width="0.13" d="M7.429 15.624C7.442 15.582 7.45 15.539 7.45 15.502"/>
   </g>
   <g>
    <path stroke-width="0.13" d="M6.54 15.894C6.5 15.958 6.48 16.03 6.482 16.097C6.482 16.309 6.653 16.481 6.863 16.481C7 16.481 7.12 16.408 7.189 16.3"/>
   </g>
   <line stroke-width="0.13" x1="6.54" y1="15.894" x2="6.764" y2="15.304"/>
   <line stroke-width="0.13" x1="7.189" y1="16.3" x2="7.458" y2="15.621"/>
   <g>
    <path stroke-width="0.13" d="M5.652 17.943C5.645 17.978 5.642 18.015 5.644 18.047C5.644 18.402 5.932 18.692 6.288 18.692C6.573 18.692 6.817 18.504 6.902 18.24"/>
   </g>
   <g>
    <path stroke-width="0.13" d="M8.672 12.718C8.672 12.362 8.384 12.074 8.028 12.074C7.742 12.074 7.498 12.26 7.413 12.524"/>
    <path stroke-width="0.13" d="M8.643 12.91C8.663 12.845 8.673 12.778 8.672 12.718"/>
   </g>
   <line stroke-width="0.13" x1="8.673" y1="12.884" x2="6.895" y2="18.289"/>
   <line stroke-width="0.13" x1="7.426" y1="12.48" x2="5.658" y2="17.931"/>
   <g>
    <path stroke-width="0.13" d="M10.48 15.837C10.48 14.531 9.755 13.393 8.667 12.794"/>
    <path stroke-width="0.13" d="M7.466 12.404C7.309 12.384 7.152 12.374 7.017 12.375C5.104 12.375 3.554 13.926 3.554 15.837C3.554 17.75 5.104 19.3 7.017 19.3C8.929 19.3 10.48 17.75 10.48 15.837"/>
   </g>
   <line stroke-width="0.13" x1="8.23" y1="11.099" x2="8.397" y2="11.634"/>
   <line stroke-width="0.13" x1="8.397" y1="11.634" x2="8.615" y2="11.083"/>
   <line stroke-width="0.13" x1="10.441" y1="12.406" x2="10.525" y2="12.925"/>
   <line stroke-width="0.13" x1="10.525" y1="12.925" x2="10.759" y2="12.422"/>
   <line stroke-width="0.13" x1="11.528" y1="17.361" x2="11.545" y2="16.91"/>
   <line stroke-width="0.13" x1="11.545" y1="16.91" x2="11.696" y2="16.91"/>
   <line stroke-width="0.13" x1="11.579" y1="14.582" x2="11.579" y2="14.984"/>
   <line stroke-width="0.13" x1="11.579" y1="14.984" x2="11.73" y2="14.984"/>
   <line stroke-width="0.13" x1="11.964" y1="14.615" x2="11.964" y2="15"/>
   <line stroke-width="0.13" x1="12.365" y1="14.631" x2="12.365" y2="14.951"/>
   <line stroke-width="0.13" x1="12.365" y1="14.951" x2="12.583" y2="14.916"/>
   <line stroke-width="0.13" x1="12.919" y1="15.018" x2="12.952" y2="14.75"/>
   <line stroke-width="0.13" x1="12.952" y1="14.75" x2="13.32" y2="14.75"/>
   <line stroke-width="0.13" x1="13.32" y1="14.75" x2="13.32" y2="14.967"/>
   <line stroke-width="0.13" x1="13.487" y1="14.582" x2="13.621" y2="14.967"/>
   <line stroke-width="0.13" x1="13.621" y1="14.967" x2="13.689" y2="14.698"/>
   <line stroke-width="0.13" x1="10.105" y1="19.303" x2="11.076" y2="19.187"/>
   <line stroke-width="0.13" x1="11.779" y1="19.018" x2="11.294" y2="19.204"/>
   <line stroke-width="0.13" x1="11.294" y1="19.204" x2="11.73" y2="19.37"/>
   <line stroke-width="0.13" x1="11.73" y1="19.37" x2="11.779" y2="19.018"/>
   <line stroke-width="0.13" x1="8.214" y1="20.71" x2="8.012" y2="21.111"/>
   <line stroke-width="0.13" x1="8.214" y1="20.71" x2="8.365" y2="21.062"/>
   <line stroke-width="0.13" x1="5.333" y1="20.827" x2="5.099" y2="21.163"/>
   <line stroke-width="0.13" x1="5.267" y1="20.961" x2="5.418" y2="21.379"/>
   <path stroke-width="0.13" d="M7.828 20.416C8.154 20.282 8.25 20.57 8.538 20.454"/>
   <line stroke-width="0.13" x1="5.158" y1="20.553" x2="5.753" y2="20.553"/>
   <line stroke-width="0.13" x1="4.932" y1="10.932" x2="4.948" y2="11.317"/>
   <line stroke-width="0.13" x1="4.948" y1="11.317" x2="5.115" y2="11.333"/>
   <line stroke-width="0.13" x1="5.115" y1="11.333" x2="5.15" y2="11.083"/>
   <line stroke-width="0.13" x1="5.418" y1="10.965" x2="5.434" y2="11.4"/>
   <line stroke-width="0.13" x1="5.418" y1="10.965" x2="5.602" y2="11.048"/>
   <line stroke-width="0.13" x1="5.735" y1="11.048" x2="5.753" y2="11.217"/>
   <line stroke-width="0.13" x1="5.735" y1="11.048" x2="5.887" y2="11.083"/>
   <line stroke-width="0.13" x1="5.735" y1="11.048" x2="5.887" y2="11.083"/>
   <line stroke-width="0.13" x1="6.092" y1="12.355" x2="3.498" y2="12.391"/>
   <line stroke-width="0.13" x1="6.511" y1="19.361" x2="3.424" y2="19.343"/>
   <g>
    <path stroke-width="0.13" d="M5.689 25.157C5.689 24.785 5.387 24.483 5.016 24.483C4.644 24.483 4.343 24.785 4.343 25.157C4.343 25.528 4.644 25.829 5.016 25.829C5.387 25.829 5.689 25.528 5.689 25.157"/>
   </g>
   <g>
    <path stroke-width="0.13" d="M5.352 25.157C5.352 24.971 5.201 24.82 5.016 24.82C4.83 24.82 4.679 24.971 4.679 25.157C4.679 25.343 4.83 25.492 5.016 25.492C5.201 25.492 5.352 25.343 5.352 25.157"/>
   </g>
   <line stroke-width="0.13" x1="4.343" y1="25.157" x2="4.395" y2="23.527"/>
   <line stroke-width="0.13" x1="4.395" y1="23.527" x2="5.564" y2="23.527"/>
   <line stroke-width="0.13" x1="5.564" y1="23.527" x2="5.601" y2="24.625"/>
   <g>
    <path stroke-width="0.13" d="M5.618 27.795C5.618 27.423 5.317 27.123 4.945 27.123C4.573 27.123 4.272 27.423 4.272 27.795C4.272 28.167 4.573 28.469 4.945 28.469C5.317 28.469 5.618 28.167 5.618 27.795"/>
   </g>
   <g>
    <path stroke-width="0.13" d="M5.282 27.795C5.282 27.609 5.131 27.46 4.945 27.46C4.759 27.46 4.609 27.609 4.609 27.795C4.609 27.981 4.759 28.132 4.945 28.132C5.131 28.132 5.282 27.981 5.282 27.795"/>
   </g>
   <line stroke-width="0.13" x1="4.272" y1="27.795" x2="4.325" y2="26.166"/>
   <line stroke-width="0.13" x1="4.325" y1="26.166" x2="5.495" y2="26.166"/>
   <line stroke-width="0.13" x1="5.495" y1="26.166" x2="5.53" y2="27.265"/>
   <line stroke-width="0.13" x1="12.137" y1="25.138" x2="10.827" y2="25.173"/>
   <line stroke-width="0.13" x1="10.827" y1="25.173" x2="10.774" y2="27.69"/>
   <line stroke-width="0.13" x1="10.774" y1="27.69" x2="11.925" y2="27.655"/>
   <line stroke-width="0.13" x1="12.032" y1="27.937" x2="5.796" y2="28.097"/>
   <line stroke-width="0.13" x1="6.54" y1="27.972" x2="6.54" y2="25.245"/>
   <line stroke-width="0.13" x1="6.344" y1="25.21" x2="5.884" y2="25.227"/>
   <line stroke-width="0.13" x1="6.61" y1="22.711" x2="6.61" y2="24.961"/>
   <line stroke-width="0.13" x1="6.61" y1="24.961" x2="11.553" y2="24.961"/>
   <line stroke-width="0.13" x1="11.553" y1="24.961" x2="11.553" y2="22.675"/>
   <line stroke-width="0.13" x1="11.66" y1="22.675" x2="6.61" y2="22.675"/>
   <line stroke-width="0.13" x1="12.42" y1="24.661" x2="12.42" y2="23.278"/>
   <line stroke-width="0.13" x1="12.42" y1="23.278" x2="13.59" y2="23.278"/>
   <line stroke-width="0.13" x1="13.59" y1="23.278" x2="13.59" y2="24.483"/>
   <g>
    <path stroke-width="0.13" d="M13.679 25.015C13.679 24.643 13.378 24.341 13.006 24.341C12.634 24.341 12.333 24.643 12.333 25.015C12.333 25.219 12.423 25.402 12.567 25.527"/>
    <path stroke-width="0.13" d="M13.675 25.091C13.678 25.064 13.679 25.038 13.679 25.015"/>
   </g>
   <path stroke-width="0.13" d="M12.42 25.315C12.42 24.925 12.651 24.553 12.881 24.553C13.112 24.553 13.324 24.429 13.502 24.785C13.679 25.138 14.246 25.972 14.387 26.289C14.529 26.609 14.689 26.716 14.564 27.033C14.441 27.353 14.406 27.246 14.387 27.513C14.369 27.778 14.317 27.76 14.352 27.99C14.387 28.221 14.369 28.167 14.493 28.522C14.618 28.876 14.67 28.948 14.583 29.213C14.548 29.318 14.484 29.411 14.407 29.484"/>
   <path stroke-width="0.13" d="M13.804 29.687C13.606 29.686 13.381 29.621 13.253 29.266C13.076 28.771 12.509 27.193 12.509 27.193C12.509 27.193 12.439 26.893 12.563 26.716C12.686 26.538 12.846 25.777 12.42 25.315"/>
   <path stroke-width="0.13" d="M14.298 28.079C14.051 27.707 13.997 27.832 13.714 27.778C13.43 27.725 13.236 27.849 13.112 28.062"/>
   <path stroke-width="0.13" d="M14.423 26.379C14.051 26.042 14.103 26.096 13.731 26.166C13.359 26.236 13.041 26.396 12.987 26.733"/>
   <g>
    <path stroke-width="0.13" d="M14.291 26.803C14.291 26.603 14.128 26.44 13.926 26.44C13.727 26.44 13.564 26.603 13.564 26.803C13.564 27.004 13.727 27.167 13.926 27.167C14.128 27.167 14.291 27.004 14.291 26.803"/>
   </g>
   <path stroke-width="0.13" d="M14.589 28.968C14.284 28.698 13.461 28.611 13.352 29.457"/>
   <path stroke-width="0.3" d="M14.275 29.123C14.73 30.312 15.253 32.21 15.076 33.652"/>
   <path stroke-width="0.3" d="M13.679 29.35C14.105 30.46 14.609 32.228 14.442 33.573"/>
   <line stroke-width="0.13" x1="12.571" y1="26.152" x2="12.301" y2="26.152"/>
   <line stroke-width="0.13" x1="12.301" y1="26.152" x2="12.301" y2="27.123"/>
   <path stroke-width="0.13" d="M12.526 27.303C12.266 27.483 12.086 27.55 12.211 27.923C12.335 28.295 13.134 29.794 13.134 29.794C13.134 29.794 13.316 30.266 13.923 30.222"/>
   <path stroke-width="0.13" d="M14.487 28.373C14.736 28.419 14.904 28.509 15.039 28.778C15.175 29.05 15.198 29.163 15.457 29.443C15.715 29.725 15.862 29.714 16.032 29.815C16.201 29.917 16.28 29.974 16.28 30.12C16.28 30.146 16.278 30.178 16.277 30.214"/>
   <path stroke-width="0.13" d="M16.088 30.751C15.907 30.876 15.625 30.987 15.615 30.841C15.602 30.695 15.006 30.435 14.926 30.39C14.848 30.346 14.689 30.233 14.702 30.233"/>
   <path stroke-width="0.13" d="M16.065 29.884C15.682 30.097 15.525 30.582 15.615 30.841"/>
   <path stroke="none" fill="#FFFFFF" d="M7.889 25.164L10.364 25.164 10.364 24.106 7.889 24.106z"/>
   <text x="7.889" y="24.812" stroke="none" fill="#000000" font-family="'Helvetica'" font-size="0.685" font-weight="bold">587 423</text>
   <g>
    <path stroke-width="0.13" stroke-linecap="butt" fill="#000000" d="M9.928 23.065L9.928 23.419 9.659 23.065 9.336 23.065 9.336 23.553 9.134 23.065 8.948 23.065 8.942 23.233 9.042 23.457 8.855 23.457 8.942 23.233 8.948 23.065 8.76 23.065 8.605 23.455 8.371 23.455 8.364 23.481 8.355 23.504 8.343 23.522 8.33 23.539 8.314 23.551 8.295 23.562 8.275 23.568 8.253 23.573 8.227 23.574 8.196 23.571 8.169 23.564 8.146 23.551 8.124 23.536 8.105 23.515 8.092 23.492 8.08 23.466 8.074 23.435 8.071 23.402 8.073 23.361 8.08 23.324 8.089 23.291 8.102 23.263 8.119 23.24 8.141 23.224 8.164 23.21 8.192 23.204 8.224 23.201 8.252 23.202 8.275 23.207 8.295 23.213 8.314 23.222 8.33 23.236 8.343 23.251 8.355 23.269 8.362 23.291 8.368 23.315 8.634 23.315 8.634 23.304 8.628 23.254 8.611 23.207 8.583 23.166 8.544 23.129 8.497 23.099 8.442 23.074 8.378 23.056 8.307 23.045 8.228 23.042 8.147 23.045 8.074 23.056 8.012 23.077 7.958 23.105 7.915 23.14 7.878 23.187 7.852 23.24 7.833 23.303 7.823 23.376 7.81 23.364 7.794 23.352 7.778 23.339 7.762 23.329 7.745 23.321 7.727 23.314 7.71 23.307 7.694 23.303 7.677 23.3 7.578 23.292 7.434 23.289 7.413 23.289 7.395 23.286 7.379 23.282 7.367 23.277 7.355 23.269 7.346 23.262 7.339 23.251 7.336 23.24 7.334 23.23 7.336 23.216 7.341 23.204 7.346 23.193 7.355 23.185 7.368 23.178 7.381 23.172 7.397 23.167 7.416 23.166 7.437 23.164 7.461 23.166 7.482 23.169 7.498 23.175 7.514 23.182 7.525 23.193 7.533 23.205 7.54 23.222 7.543 23.24 7.544 23.262 7.823 23.262 7.823 23.254 7.817 23.21 7.804 23.172 7.78 23.138 7.746 23.109 7.705 23.085 7.655 23.068 7.596 23.053 7.528 23.045 7.453 23.042 7.37 23.045 7.296 23.053 7.234 23.067 7.179 23.085 7.137 23.109 7.102 23.14 7.078 23.175 7.064 23.216 7.059 23.262 7.062 23.301 7.073 23.336 7.091 23.367 7.115 23.394 7.145 23.417 7.184 23.434 7.227 23.448 7.278 23.455 7.336 23.46 7.445 23.463 7.469 23.463 7.49 23.466 7.509 23.471 7.525 23.477 7.538 23.484 7.548 23.492 7.554 23.501 7.557 23.513 7.56 23.527 7.557 23.538 7.552 23.55 7.544 23.559 7.533 23.57 7.522 23.579 7.506 23.585 7.492 23.591 7.474 23.594 7.458 23.596 7.429 23.594 7.403 23.591 7.381 23.585 7.362 23.577 7.347 23.568 7.336 23.556 7.326 23.541 7.322 23.524 7.32 23.506 7.032 23.506 7.032 23.512 7.036 23.556 7.052 23.597 7.078 23.632 7.115 23.663 7.16 23.687 7.214 23.707 7.28 23.722 7.354 23.73 7.437 23.733 7.516 23.731 7.586 23.725 7.647 23.713 7.7 23.699 7.745 23.678 7.783 23.653 7.812 23.623 7.836 23.588 7.852 23.548 7.879 23.589 7.91 23.626 7.944 23.657 7.98 23.681 8.022 23.701 8.067 23.716 8.119 23.727 8.178 23.733 8.242 23.734 8.282 23.734 8.32 23.731 8.353 23.728 8.385 23.722 8.414 23.713 8.442 23.702 8.468 23.69 8.496 23.675 8.524 23.655 8.496 23.722 8.743 23.722 8.788 23.62 9.109 23.62 9.153 23.721 9.574 23.721 9.574 23.33 9.874 23.722 10.172 23.722 10.172 23.065 9.928 23.065z"/>
    <path stroke-width="0.13" stroke-linecap="butt" fill="#000000" d="M11.055 23.065L10.868 23.065 10.865 23.239 10.964 23.455 10.778 23.457 10.865 23.239 10.868 23.065 10.678 23.065 10.48 23.554 10.48 23.065 10.226 23.065 10.226 23.722 10.67 23.722 10.711 23.621 11.028 23.621 11.073 23.722 11.321 23.722 11.055 23.065z"/>
   </g>
   <line stroke-width="0.3" x1="24.419" y1="69.509" x2="22.463" y2="70.694"/>
   <line stroke-width="0.3" x1="24.24" y1="68.265" x2="20.806" y2="68.206"/>
   <line stroke-width="0.3" x1="24.123" y1="67.257" x2="22.76" y2="66.784"/>
   <line stroke-width="0.3" x1="24.655" y1="65.54" x2="21.871" y2="63.526"/>
   <line stroke-width="0.3" x1="25.78" y1="64.769" x2="24.597" y2="63.466"/>
   <line stroke-width="0.3" x1="30.519" y1="69.509" x2="32.475" y2="70.694"/>
   <line stroke-width="0.3" x1="30.698" y1="68.265" x2="34.133" y2="68.206"/>
   <line stroke-width="0.3" x1="30.815" y1="67.257" x2="32.177" y2="66.784"/>
   <line stroke-width="0.3" x1="30.283" y1="65.54" x2="33.067" y2="63.526"/>
   <line stroke-width="0.3" x1="29.157" y1="64.769" x2="30.341" y2="63.466"/>
   <line stroke-width="0.3" x1="27.321" y1="64.474" x2="27.321" y2="60.741"/>
   <line stroke-width="0.13" x1="25.893" y1="47.244" x2="25.35" y2="47.377"/>
   <line stroke-width="0.13" x1="26.024" y1="46.542" x2="25.512" y2="46.161"/>
   <line stroke-width="0.13" x1="26.771" y1="46.116" x2="26.507" y2="45.487"/>
   <line stroke-width="0.13" x1="29.129" y1="47.244" x2="29.67" y2="47.377"/>
   <line stroke-width="0.13" x1="28.996" y1="46.542" x2="29.51" y2="46.161"/>
   <line stroke-width="0.13" x1="28.25" y1="46.116" x2="28.513" y2="45.487"/>
   <line stroke-width="0.13" x1="27.489" y1="46.101" x2="27.489" y2="45.281"/>
   <line stroke-width="0.3" x1="23.344" y1="52.753" x2="23.089" y2="52.868"/>
   <line stroke-width="0.3" x1="23.089" y1="52.868" x2="21.301" y2="49.631"/>
   <line stroke-width="0.3" x1="21.301" y1="49.631" x2="20.838" y2="49.837"/>
   <line stroke-width="0.3" x1="20.838" y1="49.837" x2="20.769" y2="49.682"/>
   <line stroke-width="0.3" x1="20.769" y1="49.682" x2="21.21" y2="49.485"/>
   <line stroke-width="0.3" x1="21.21" y1="49.485" x2="18.5" y2="43.398"/>
   <line stroke-width="0.3" x1="18.5" y1="43.398" x2="19.074" y2="43.143"/>
   <line stroke-width="0.3" x1="18.797" y1="43.292" x2="18.182" y2="41.795"/>
   <path stroke-width="0.3" d="M18.182 41.795C17.765 41.926 17.501 41.57 17.734 41.439C17.966 41.308 18.243 41.159 18.243 41.159"/>
   <line stroke-width="0.3" x1="23.359" y1="52.747" x2="23.614" y2="52.634"/>
   <line stroke-width="0.3" x1="23.614" y1="52.634" x2="22.405" y2="49.14"/>
   <line stroke-width="0.3" x1="22.405" y1="49.14" x2="22.867" y2="48.933"/>
   <line stroke-width="0.3" x1="22.867" y1="48.933" x2="22.798" y2="48.779"/>
   <line stroke-width="0.3" x1="22.798" y1="48.779" x2="22.358" y2="48.975"/>
   <line stroke-width="0.3" x1="22.358" y1="48.975" x2="19.646" y2="42.887"/>
   <line stroke-width="0.3" x1="19.646" y1="42.887" x2="19.074" y2="43.143"/>
   <line stroke-width="0.3" x1="19.37" y1="43.036" x2="18.667" y2="41.579"/>
   <path stroke-width="0.3" d="M18.667 41.579C19.045 41.357 18.957 40.92 18.704 41.006C18.452 41.093 18.155 41.198 18.155 41.198"/>
   <line stroke-width="0.5" x1="23.359" y1="52.747" x2="23.638" y2="53.375"/>
   <path stroke-width="0.3" d="M15.878 30.696L18.591 32.304C19.689 32.932 20.385 33.32 20.771 33.741C20.907 33.887 20.996 34.036 21.047 34.207C21.12 34.453 21.114 34.677 21.054 34.889C20.888 35.468 20.355 35.945 19.838 36.463C19.698 36.603 19.513 36.741 19.31 36.895C18.818 37.268 18.242 37.716 17.887 38.365C17.725 38.659 17.608 38.993 17.559 39.381C17.495 39.911 17.561 40.545 17.841 41.314"/>
   <path stroke-width="0.3" d="M16.219 30.12L18.928 31.725L18.923 31.722C20.108 32.401 20.847 32.835 21.265 33.289C21.475 33.517 21.611 33.752 21.69 34.018C21.801 34.399 21.792 34.747 21.698 35.073C21.504 35.75 20.914 36.332 20.31 36.936C20.152 37.094 19.943 37.255 19.716 37.427C19.289 37.75 18.782 38.125 18.474 38.686C18.35 38.911 18.26 39.167 18.225 39.463C18.17 39.908 18.234 40.439 18.469 41.084"/>
   <path stroke-width="0.3" d="M15.14 33.7C15.076 34.53 15.233 35.292 15.561 35.956C15.891 36.621 16.391 37.188 17.015 37.625C17.219 37.768 17.434 37.896 17.663 38.012"/>
   <path stroke-width="0.3" d="M14.423 33.646C14.35 34.612 14.535 35.5 14.917 36.274C15.3 37.046 15.88 37.706 16.603 38.213C16.82 38.365 17.05 38.505 17.291 38.628"/>
   <g>
    <line stroke-width="0.3" x1="66.248" y1="70.89" x2="65.971" y2="70.924"/>
    <line stroke-width="0.3" x1="65.971" y1="70.924" x2="65.209" y2="67.305"/>
    <line stroke-width="0.3" x1="65.209" y1="67.305" x2="64.704" y2="67.367"/>
    <line stroke-width="0.3" x1="64.704" y1="67.367" x2="64.685" y2="67.2"/>
    <line stroke-width="0.3" x1="64.685" y1="67.2" x2="65.164" y2="67.141"/>
    <line stroke-width="0.3" x1="65.164" y1="67.141" x2="64.352" y2="60.526"/>
    <line stroke-width="0.3" x1="64.352" y1="60.526" x2="64.974" y2="60.45"/>
    <line stroke-width="0.3" x1="64.665" y1="60.512" x2="64.516" y2="58.899"/>
    <path stroke-width="0.3" d="M64.516 58.899C64.079 58.905 63.93 58.485 64.191 58.429C64.451 58.372 64.76 58.31 64.76 58.31"/>
    <line stroke-width="0.3" x1="66.263" y1="70.888" x2="66.54" y2="70.853"/>
    <line stroke-width="0.3" x1="66.54" y1="70.853" x2="66.406" y2="67.159"/>
    <line stroke-width="0.3" x1="66.406" y1="67.159" x2="66.909" y2="67.096"/>
    <line stroke-width="0.3" x1="66.909" y1="67.096" x2="66.89" y2="66.929"/>
    <line stroke-width="0.3" x1="66.89" y1="66.929" x2="66.409" y2="66.987"/>
    <line stroke-width="0.3" x1="66.409" y1="66.987" x2="65.597" y2="60.372"/>
    <line stroke-width="0.3" x1="65.597" y1="60.372" x2="64.974" y2="60.45"/>
    <line stroke-width="0.3" x1="65.289" y1="60.435" x2="65.043" y2="58.835"/>
    <path stroke-width="0.3" d="M65.043 58.835C65.469 58.734 65.513 58.29 65.245 58.299C64.98 58.307 64.665 58.322 64.665 58.322"/>
    <line stroke-width="0.5" x1="66.263" y1="70.888" x2="66.347" y2="71.569"/>
   </g>
   <path stroke-width="0.3" d="M18.708 39.176C20.713 40.057 23.094 40.64 23.887 40.64C24 40.64 24.318 40.661 24.795 40.691C27.576 40.863 35.557 41.354 40.015 40.331C43.609 39.506 51.718 39.018 57.088 41.598C59.323 42.671 61.079 44.281 61.783 46.654"/>
   <path stroke-width="0.3" d="M19.025 38.454C20.91 39.283 23.141 39.853 23.887 39.853C24.006 39.853 24.341 39.872 24.844 39.904C27.582 40.075 35.447 40.572 39.84 39.564C43.542 38.713 51.895 38.228 57.429 40.889C59.869 42.06 61.768 43.838 62.539 46.429"/>
   <path stroke-width="0.3" d="M64.242 58.273C63.67 52.402 62.597 48.335 61.783 46.654"/>
   <path stroke-width="0.3" d="M65.087 58.371C64.5 52.335 63.375 48.158 62.539 46.429"/>
  </g>
 </g>
</svg>
