<?xml version="1.0" encoding="utf-8"?>
<!DOCTYPE svg PUBLIC "-//W3C//DTD SVG 1.1//EN" "http://www.w3.org/Graphics/SVG/1.1/DTD/svg11.dtd">
<!-- Generator: PTC Arbortext IsoDraw 7.3 -->
<svg width="100%" height="100%" viewBox="0 0 75 54.094"
 xmlns="http://www.w3.org/2000/svg" xmlns:xlink="http://www.w3.org/1999/xlink"
 fill-rule="evenodd" clip-rule="evenodd" stroke="#000000" stroke-linecap="round" fill="none" xml:space="preserve">
 <g id="Frame">
  <path stroke="none" fill="#FFFFFF" d="M75 54.094L0 54.094 0 0 75 0 75 54.094z"/>
 </g>
 <g id="Colour">
 </g>
 <g id="Standard_x0020_layer">
  <g>
   <g>
    <path stroke="none" fill="#CCCCCC" d="M26.234 31.777C26.242 32.189 26.332 32.707 26.631 33.235 26.896 33.703 27.268 34.034 27.594 34.256L27.628 34.152 28.262 32.012 27.242 31.469 27.23 31.461C27.14 31.632 26.966 31.753 26.76 31.763L26.359 31.783 26.234 31.777z"/>
    <path stroke="none" fill="#CCCCCC" d="M26.185 27.931L26.835 28.207 26.155 30.483 26.094 30.609C26.138 30.634 26.178 30.658 26.211 30.684L26.324 30.655 26.701 30.637C26.893 30.626 27.067 30.713 27.176 30.855L27.208 30.823 27.829 28.532 27.888 28.547 29.349 28.274C29.349 28.274 29.768 27.074 29.859 26.576 29.949 26.077 29.791 25.794 29.382 25.612 28.975 25.431 28.295 25.16 28.295 25.16L26.495 25.794 26.37 25.823 26.257 26.246 26.237 26.291 27.594 25.928C27.896 25.847 28.204 26.024 28.286 26.326 28.367 26.626 28.189 26.936 27.888 27.018L26.35 27.429 26.324 27.527 26.189 27.9 26.185 27.931z"/>
   </g>
   <path stroke-width="0.13" stroke-linejoin="round" d="M26.303 27.442C26.047 27.51 25.774 27.323 25.693 27.021C25.612 26.721 25.754 26.422 26.01 26.352"/>
   <path stroke-width="0.13" stroke-linejoin="round" d="M27.213 26.271C27.231 26.228 27.251 26.187 27.277 26.149"/>
   <path stroke-width="0.13" stroke-linejoin="round" d="M27.487 26.977C27.35 26.907 27.239 26.78 27.196 26.62"/>
   <path stroke-width="0.25" stroke-linejoin="round" d="M26.303 27.442L27.888 27.018C28.189 26.936 28.367 26.626 28.286 26.326C28.204 26.024 27.896 25.847 27.594 25.928L26.01 26.352"/>
   <path stroke-width="0.25" stroke-linejoin="round" d="M26.359 31.783L26.76 31.763C27.071 31.746 27.309 31.481 27.294 31.17C27.277 30.859 27.012 30.62 26.701 30.637L26.324 30.655"/>
   <path stroke-width="0.25" stroke-linejoin="round" d="M14.689 0.839C18.864 3.827 22.695 7.123 24.353 9.256C26.891 12.519 27.978 15.237 29.609 16.868C31.24 18.5 32.374 20.358 32.374 20.358"/>
   <path stroke-width="0.25" stroke-linejoin="round" d="M25.929 11.3C27.984 12.106 30.405 13.721 31.507 15.262C32.607 16.803 35.631 21.585 35.631 21.585"/>
   <path stroke-width="0.25" stroke-linejoin="round" d="M36.497 35.223C39.799 34.857 40.661 31.135 40.46 30.013C40.067 27.815 38.868 25.635 38.868 25.635"/>
   <path stroke-width="0.25" stroke-linejoin="round" d="M29.484 37.618C30.071 39.014 30.847 43.151 26.809 45.646C22.774 48.14 18.884 49.902 16.096 50.929C13.307 51.957 9.124 53.35 8.243 53.645"/>
   <path stroke-width="0.25" stroke-linejoin="round" d="M2.548 13.512C4.325 14.307 7.413 15.455 8.462 15.63C9.784 15.849 10.737 15.849 11.105 16.583C11.471 17.318 14.994 23.849 20.204 24.143"/>
   <path stroke-width="0.25" stroke-linejoin="round" d="M2.886 22.748C3.62 22.527 4.647 22.675 5.307 22.602C5.968 22.527 8.977 23.408 10.59 24.07C12.205 24.73 16.096 26.123 18.811 24.07"/>
   <path stroke-width="0.25" stroke-linejoin="round" d="M11.324 28.913C9.49 29.132 6.262 28.693 3.326 28.399C3.197 28.387 3.071 28.373 2.948 28.361"/>
   <path stroke-width="0.25" stroke-linejoin="round" d="M10.884 30.527C8.977 31.408 5.014 32.215 3.766 32.435C3.442 32.493 3.168 32.534 2.931 32.573"/>
   <path stroke-width="0.25" stroke-linejoin="round" d="M2.621 33.911C3.173 33.685 3.668 33.502 4.059 33.39C8.169 32.216 10.15 31.701 12.865 31.922C16.088 32.182 18.516 33.243 18.516 33.243"/>
   <path stroke-width="0.349" stroke-linejoin="round" d="M12.868 24.911C12.563 25.149 12.291 25.794 12.054 26.474C11.816 27.152 10.762 31.469 10.762 31.876"/>
   <path stroke-width="0.25" stroke-linejoin="round" d="M17.457 24.978L15.554 32.182"/>
   <path stroke-width="0.25" stroke-linejoin="round" d="M14.874 25.318L13.144 31.876"/>
   <path stroke-width="0.131" stroke-linejoin="round" d="M16.233 25.216L14.432 32.113"/>
   <path stroke-width="0.131" stroke-linejoin="round" d="M13.31 25.047C13.073 25.216 12.631 25.794 12.394 26.576C12.156 27.356 11.102 31.707 11.102 31.707"/>
   <path stroke-width="0.131" stroke-linejoin="round" d="M14.567 25.216C14.262 25.353 13.718 25.725 13.446 26.643C13.175 27.561 12.189 31.774 12.189 31.774"/>
   <path stroke-width="0.25" stroke-linejoin="round" d="M20.449 24.152C20.044 25.612 19.039 29.283 18.986 29.905C18.917 30.687 19.631 31.196 20.379 31.605"/>
   <path stroke-width="0.349" stroke-linejoin="round" d="M26.686 21.429C26.506 21.347 26.341 21.277 26.222 21.24C25.78 21.105 25.306 21.343 25.306 21.343C25.306 21.343 21.466 22.6 21.091 22.769C20.719 22.94 20.617 23.551 20.617 23.551C20.617 23.551 20.551 23.78 20.449 24.152"/>
   <path stroke-width="0.25" stroke-linejoin="round" d="M27.786 21.989C27.786 21.989 27.181 21.658 26.686 21.429"/>
   <path stroke-width="0.131" stroke-linejoin="round" d="M20.548 31.605L25.204 31.367"/>
   <path stroke-width="0.131" stroke-linejoin="round" d="M25.544 21.614C25.544 21.614 23.606 27.9 23.335 28.954C23.062 30.007 23.606 30.381 24.217 30.687C24.829 30.992 25.373 31.231 25.373 31.231"/>
   <path stroke-width="0.349" stroke-linejoin="round" d="M26.902 21.478C26.902 21.478 29.111 20.39 29.859 20.187C30.606 19.984 31.489 20.187 32.237 20.39C32.984 20.594 36.956 22.21 37.533 22.481C38.11 22.754 38.451 23.33 38.451 23.33C38.929 24.134 39.026 24.684 38.868 25.635C38.709 26.585 37.097 33.712 36.655 34.866C36.213 36.021 35.262 36.701 34.378 36.972C33.494 37.244 31.455 37.347 30.471 37.448C29.484 37.551 28.397 37.755 27.106 37.381C25.815 37.006 24.082 36.396 21.67 35.545C20.42 35.106 19.754 34.375 19.422 33.677"/>
   <path stroke-width="0.25" stroke-linejoin="round" d="M25.746 23.653L24.388 28.547L24.931 28.92L25.068 29.634L24.931 30.007"/>
   <path stroke-width="0.25" stroke-linejoin="round" d="M24.455 29.871C24.455 29.871 25.646 30.381 25.917 30.516C26.189 30.652 26.393 30.754 26.324 30.992C26.257 31.231 26.053 32.216 26.631 33.235C27.208 34.255 28.295 34.628 28.295 34.628C28.295 34.628 31.762 35.886 32.848 36.192C33.07 36.253 33.313 36.274 33.563 36.256"/>
   <path stroke-width="0.25" stroke-linejoin="round" d="M19.393 31.027C19.393 31.027 19.291 31.4 19.155 32.079C19.089 32.408 19.111 33.029 19.422 33.677"/>
   <path stroke-width="0.25" stroke-linejoin="round" d="M30.844 20.832C30.199 20.696 29.146 21.274 28.67 22.294C28.193 23.314 27.955 23.347 27.955 23.347L26.902 23.484"/>
   <path stroke-width="0.131" stroke-linejoin="round" d="M30.844 20.832C31.489 20.969 36.243 22.719 36.649 22.89C37.057 23.059 37.341 23.198 37.533 23.432C38.009 24.013 38.273 24.594 38.06 25.65C38.06 25.65 36.348 33.27 35.941 34.527C35.616 35.527 34.536 36.185 33.563 36.256"/>
   <path stroke-width="0.131" stroke-linejoin="round" d="M25.408 31.4C25.135 32.521 25.646 34.323 27.31 35.104C28.975 35.886 31.524 36.735 32.542 36.905C33.563 37.075 34.005 37.006 34.479 36.939"/>
   <path stroke-width="0.131" stroke-linejoin="round" d="M18.69 33.314C18.69 33.314 19.007 33.631 19.324 33.722"/>
   <path stroke-width="0.131" stroke-linejoin="round" d="M20.321 35.308C20.321 35.308 16.969 36.441 15.701 37.075C14.432 37.71 13.118 39.158 13.345 42.149C13.57 45.14 14.387 47.859 15.066 48.537C15.746 49.216 16.425 49.353 17.332 49.127C18.237 48.899 24.806 46.679 27.434 45.229"/>
   <path stroke-width="0.131" stroke-linejoin="round" d="M27.615 37.755C28.568 39.158 29.382 42.603 28.522 44.234"/>
   <path stroke-width="0.131" stroke-linejoin="round" d="M3.875 42.331C4.782 43.554 5.371 45.229 5.642 46.454"/>
   <path stroke-width="0.131" stroke-linejoin="round" d="M2.575 43.543C2.625 43.636 2.681 43.729 2.742 43.826C3.785 45.457 3.831 45.593 3.831 45.593"/>
   <path stroke-width="0.131" stroke-linejoin="round" d="M4.237 45.276C4.737 46.273 5.778 49.399 5.915 52.479"/>
   <path stroke-width="0.131" stroke-linejoin="round" d="M3.921 17.367C4.102 19.225 4.057 21.128 3.331 22.17"/>
   <path stroke-width="0.131" stroke-linejoin="round" d="M16.379 11.567C15.429 13.244 13.525 14.965 11.532 15.736"/>
   <path stroke-width="0.25" stroke-linejoin="round" d="M26.937 23.166L26.574 24.027L25.667 24.254"/>
   <path stroke-width="0.131" stroke-linejoin="round" d="M26.756 22.306L27.934 22.849"/>
   <path stroke-width="0.131" stroke-linejoin="round" d="M28.024 21.897C28.251 21.172 29.474 20.175 30.425 20.085"/>
   <path stroke-width="0.131" stroke-linejoin="round" d="M25.803 23.528L26.347 23.71L26.574 24.027"/>
   <path stroke-width="0.131" stroke-linejoin="round" d="M26.891 22.94L26.756 22.486"/>
   <path stroke-width="0.131" stroke-linejoin="round" d="M26.62 22.486L26.347 23.393"/>
   <path stroke-width="0.131" stroke-linejoin="round" d="M24.806 29.056L24.58 29.826"/>
   <path stroke-width="0.131" stroke-linejoin="round" d="M28.612 22.984C28.612 22.984 29.519 23.211 30.379 23.528C31.24 23.846 32.418 24.978 32.101 26.791C32.066 26.992 29.882 34.99 29.882 34.99"/>
   <path stroke-width="0.349" stroke-linejoin="round" d="M26.495 25.794L28.295 25.16C28.295 25.16 28.975 25.431 29.382 25.612C29.791 25.794 29.949 26.077 29.859 26.576C29.768 27.074 29.349 28.274 29.349 28.274L27.888 28.547"/>
   <path stroke-width="0.349" stroke-linejoin="round" d="M27.829 28.532L27.208 30.823"/>
   <path stroke-width="0.25" stroke-linejoin="round" d="M27.989 27.934L27.829 28.532"/>
   <path stroke-width="0.131" stroke-linejoin="round" d="M29.349 28.274L27.989 27.934"/>
   <path stroke-width="0.349" stroke-linejoin="round" d="M27.628 34.152L28.262 32.012L27.242 31.469"/>
   <path stroke-width="0.13" stroke-linejoin="round" d="M27.525 24.763C27.525 24.763 28.929 25.204 29.518 25.477C30.108 25.748 30.243 26.202 30.152 26.609C30.128 26.722 27.888 34.39 27.888 34.39"/>
   <path stroke-width="0.13" stroke-linejoin="round" d="M26.553 25.14L27.298 25.387"/>
   <path stroke-width="0.25" stroke-linejoin="round" d="M26.257 26.246L26.553 25.14"/>
   <path stroke-width="0.13" stroke-linejoin="round" d="M28.295 25.16L28.068 25.885L27.254 25.658L27.163 26.021"/>
   <path stroke-width="0.25" stroke-linejoin="round" d="M25.702 27.727L26.835 28.207L26.155 30.483"/>
   <path stroke-width="0.13" stroke-linejoin="round" d="M26.324 27.527L26.189 27.9"/>
   <path stroke-width="0.25" stroke-linejoin="round" d="M25.815 27.39L25.702 27.727L26.189 27.9"/>
   <path stroke-width="0.25" stroke-linejoin="round" d="M27.525 24.763L27.298 25.387L26.46 25.692"/>
   <path stroke="#FFFFFF" stroke-width="0.353" stroke-linecap="butt" fill="#000000" d="M50.854 25.484L49.878 27.907 56.591 26.844 55.953 28.925 61.051 24.847 57.993 22.297 57.218 24.428 50.854 25.484z"/>
   <g>
    <path stroke-width="0.25" stroke-linejoin="round" d="M68.799 19.204C68.965 19.111 69.185 19.021 69.373 19.05C69.737 19.108 70.649 19.367 70.493 20.1C70.448 20.314 70.29 21.013 70.057 21.899C69.99 22.149 69.763 22.217 69.652 22.225C69.543 22.234 68.81 22.382 68.81 22.382"/>
    <path stroke-width="0.25" stroke-linejoin="round" d="M66.242 27.521C66.323 27.922 67.225 28.138 67.775 28.106C68.322 28.076 68.51 27.754 68.611 27.5C68.64 27.423 68.807 26.893 68.996 26.041C69.06 25.757 68.993 25.617 68.757 25.55C68.521 25.484 68.057 25.275 68.057 25.275"/>
    <path stroke-width="0.25" stroke-linejoin="round" d="M67.998 25.265C68.403 23.666 68.792 22.109 68.864 21.769"/>
    <path stroke-width="0.131" stroke-linejoin="round" d="M66.93 24.875C67.268 23.536 67.548 22.343 67.608 22.053"/>
    <path stroke-width="0.131" stroke-linejoin="round" d="M67.189 23.763C67.528 22.425 67.82 21.242 67.882 20.951"/>
    <path stroke-width="0.25" stroke-linejoin="round" d="M65.534 20.344C65.534 20.344 63.034 20.897 62.975 21.097C62.914 21.297 61.194 27.798 61.155 28.064C61.112 28.353 61.524 28.371 62.113 28.312C62.854 28.239 66.45 27.8 66.45 27.8"/>
    <path stroke-width="0.131" stroke-linejoin="round" d="M64.73 27.614L61.375 28.153"/>
    <path stroke-width="0.25" stroke-linejoin="round" d="M66.98 19.451C66.98 19.451 66.016 19.667 65.822 19.711C65.629 19.754 65.617 19.943 65.617 19.943C65.617 19.943 65.4 21.109 65.299 21.364C65.23 21.539 65.635 21.699 65.894 21.78"/>
    <path stroke-width="0.25" stroke-linejoin="round" d="M66.34 21.268L65.418 25.309C65.418 25.309 64.853 25.408 64.661 25.452C64.468 25.495 64.456 25.684 64.456 25.684C64.456 25.684 64.183 26.794 64.138 27.103C64.109 27.288 64.474 27.439 64.731 27.519C64.731 27.519 64.893 27.557 65.09 27.565C65.328 27.573 65.527 27.559 65.527 27.559C65.527 27.559 65.719 27.515 65.728 27.39"/>
    <path stroke-width="0.131" stroke-linejoin="round" d="M66.305 21.237C66.305 21.237 65.814 21.347 65.463 21.426"/>
    <path stroke-width="0.131" stroke-linejoin="round" d="M67.995 19.222L67.664 20.579"/>
    <path stroke-width="0.25" stroke-linejoin="round" d="M68.536 19.23L68.337 19.129C68.337 19.129 68.207 19.039 68.009 19.065C67.81 19.094 67.222 19.227 67.222 19.227C67.222 19.227 67.084 19.274 67.06 19.339L66.742 20.76C66.695 20.887 66.778 20.957 66.778 20.957L66.95 21.088"/>
    <path stroke-width="0.25" stroke-linejoin="round" d="M66.93 24.875L66.793 24.792C66.793 24.792 66.784 24.736 66.584 24.765C66.385 24.792 65.847 24.9 65.847 24.9C65.847 24.9 65.709 24.949 65.686 25.013L65.367 26.434C65.322 26.562 65.403 26.632 65.403 26.632L65.691 26.871"/>
    <path stroke-width="0.131" stroke-linejoin="round" d="M68.945 21.768C69.346 22.004 69.578 22.14 69.864 22.076"/>
    <path stroke-width="0.25" stroke-linejoin="round" d="M68.471 19.161C68.647 19.137 68.679 19.155 68.725 19.192C68.772 19.228 69.093 19.478 69.093 19.478"/>
    <path stroke-width="0.131" stroke-linejoin="round" d="M69.242 19.198L69.164 19.515"/>
    <path stroke-width="0.131" stroke-linejoin="round" d="M67.01 21.094L67.829 20.917"/>
    <path stroke-width="0.131" stroke-linejoin="round" d="M66.746 20.849L67.566 20.673"/>
    <path stroke-width="0.131" stroke-linejoin="round" d="M67.686 20.69L67.876 20.853"/>
    <path stroke-width="0.131" stroke-linejoin="round" d="M67.138 27.204L66.602 26.929"/>
    <path stroke-width="0.131" stroke-linejoin="round" d="M65.75 27.33L65.368 27.135"/>
    <path stroke-width="0.131" stroke-linejoin="round" d="M66.265 26.277L66.599 24.914"/>
    <path stroke-width="0.131" stroke-linejoin="round" d="M66.168 26.402C65.968 26.429 65.429 26.528 65.429 26.528"/>
    <path stroke-width="0.131" stroke-linejoin="round" d="M66.435 26.882L64.317 27.222"/>
    <path stroke-width="0.131" stroke-linejoin="round" d="M66.332 26.489L66.521 26.652"/>
    <path stroke-width="0.131" stroke-linejoin="round" d="M66.51 26.739L65.691 26.871"/>
    <path stroke-width="0.131" stroke-linejoin="round" d="M67.043 27.227L66.227 27.358"/>
    <path stroke-width="0.131" stroke-linejoin="round" d="M67.108 27.388C67.046 27.588 67.203 27.864 67.561 27.969C67.918 28.074 68.144 28.024 68.144 28.024"/>
   </g>
  </g>
 </g>
</svg>
