<?xml version="1.0" encoding="utf-8"?>
<!DOCTYPE svg PUBLIC "-//W3C//DTD SVG 1.1//EN" "http://www.w3.org/Graphics/SVG/1.1/DTD/svg11.dtd">
<!-- Generator: PTC Arbortext IsoDraw 7.3 -->
<svg width="100%" height="100%" viewBox="0 0 75 130.753"
 xmlns="http://www.w3.org/2000/svg" xmlns:xlink="http://www.w3.org/1999/xlink"
 fill-rule="evenodd" clip-rule="evenodd" stroke="#000000" stroke-linecap="round" fill="none" xml:space="preserve">
 <g id="Frame">
  <path stroke="none" fill="#FFFFFF" d="M75 130.753L0 130.753 0 0 75 0 75 130.753z"/>
 </g>
 <g id="Colour">
 </g>
 <g id="Standard_x0020_layer">
  <g>
   <path stroke-width="0.131" stroke-linejoin="round" d="M13.759 81.243C13.865 80.871 13.649 80.484 13.276 80.378C12.904 80.272 12.516 80.486 12.41 80.858"/>
   <path stroke-width="0.25" stroke-linejoin="round" d="M27.551 91.411C27.551 92.987 26.272 94.266 24.696 94.266C23.118 94.266 21.839 92.987 21.839 91.411C21.839 89.834 23.118 88.555 24.696 88.555C26.272 88.555 27.551 89.834 27.551 91.411z"/>
   <path stroke-width="0.25" stroke-linejoin="round" d="M33.963 91.411C33.963 92.987 32.685 94.266 31.108 94.266C29.53 94.266 28.251 92.987 28.251 91.411C28.251 89.834 29.53 88.555 31.108 88.555C32.685 88.555 33.963 89.834 33.963 91.411z"/>
   <path stroke-width="0.25" stroke-linejoin="round" d="M40.375 91.411C40.375 92.987 39.097 94.266 37.52 94.266C35.942 94.266 34.664 92.987 34.664 91.411C34.664 89.834 35.942 88.555 37.52 88.555C39.097 88.555 40.375 89.834 40.375 91.411z"/>
   <path stroke-width="0.25" stroke-linejoin="round" d="M33.963 91.411C33.963 92.987 32.685 94.266 31.108 94.266C29.53 94.266 28.251 92.987 28.251 91.411C28.251 89.834 29.53 88.555 31.108 88.555C32.685 88.555 33.963 89.834 33.963 91.411z"/>
   <path stroke-width="0.131" stroke-linejoin="round" d="M13.759 112.566C13.865 112.938 13.649 113.326 13.276 113.433C12.904 113.54 12.516 113.323 12.41 112.951"/>
   <path stroke-width="0.25" stroke-linejoin="round" d="M11.092 87.256C10.669 90.269 10.445 93.545 10.445 96.906C10.445 100.266 10.669 103.542 11.092 106.555"/>
   <path stroke-width="0.25" stroke-linejoin="round" d="M14.17 114.103C14.169 114.04 14.162 113.977 14.144 113.914L13.759 112.567C12.526 108.253 11.849 102.718 11.849 96.906C11.849 91.093 12.526 85.558 13.759 81.243L14.144 79.897C14.16 79.837 14.169 79.777 14.169 79.716"/>
   <path stroke-width="0.501" stroke-linejoin="round" d="M14.169 79.716C14.176 79.408 13.974 79.12 13.662 79.031C13.289 78.924 12.901 79.14 12.794 79.512L12.41 80.858C11.861 82.784 11.416 84.944 11.092 87.256C10.746 89.367 9.118 91.834 5.671 91.834C3.012 91.834 1.718 90.459 1.718 87.631L1.716 85.254C1.716 84.867 1.403 84.554 1.016 84.554C0.629 84.554 0.315 84.867 0.315 85.254L0.315 96.906L0.315 108.557C0.315 108.944 0.629 109.257 1.016 109.257C1.403 109.257 1.716 108.944 1.716 108.557L1.718 106.18C1.718 103.352 3.012 101.977 5.671 101.977C9.118 101.977 10.746 104.444 11.092 106.555C11.416 108.867 11.861 111.025 12.41 112.951L12.794 114.299C12.901 114.671 13.289 114.885 13.662 114.78C13.971 114.691 14.172 114.409 14.17 114.103"/>
   <path stroke-width="0.25" stroke-linejoin="round" d="M10.662 102.623C9.512 101.408 7.846 100.573 5.671 100.573C4.527 100.573 3.551 100.793 2.759 101.218C2.657 101.275 2.54 101.308 2.416 101.308C2.029 101.308 1.716 100.995 1.716 100.608L1.716 96.906L1.716 93.203C1.716 92.816 2.029 92.501 2.416 92.501C2.54 92.501 2.657 92.536 2.759 92.593C3.551 93.018 4.527 93.236 5.671 93.236C7.846 93.236 9.512 92.403 10.662 91.188"/>
   <path stroke-width="0.25" stroke-linejoin="round" d="M21.567 83.043C21.567 83.174 21.46 83.281 21.329 83.281L19.054 83.281C18.923 83.281 18.817 83.174 18.817 83.043L18.817 82.019C18.817 81.887 18.923 81.781 19.054 81.781L21.329 81.781C21.46 81.781 21.567 81.887 21.567 82.019L21.567 83.043z"/>
   <path stroke-width="0.25" stroke-linejoin="round" d="M40.715 83.299C40.715 83.43 40.607 83.537 40.475 83.537L33.996 83.537C33.865 83.537 33.759 83.43 33.759 83.299L33.759 81.519C33.759 81.388 33.865 81.281 33.996 81.281L40.475 81.281C40.607 81.281 40.715 81.388 40.715 81.519L40.715 83.299z"/>
   <path stroke-width="0.25" stroke-linejoin="round" d="M45.515 84.465L45.515 87.539C45.515 87.671 45.409 87.778 45.277 87.778L43.643 87.778C43.512 87.778 43.405 87.671 43.405 87.539L43.405 84.465"/>
   <path stroke-width="0.131" stroke-linejoin="round" d="M43.405 84.465C43.405 84.334 43.512 84.227 43.643 84.227L45.277 84.227C45.409 84.227 45.515 84.334 45.515 84.465"/>
   <path stroke-width="0.25" stroke-linejoin="round" d="M16.083 87.683L16.083 96.451L19.843 96.451"/>
   <path stroke-width="0.131" stroke-linejoin="round" d="M24.896 83.591L16.083 83.591L16.083 87.683"/>
   <path stroke-width="0.25" stroke-linejoin="round" d="M43.386 84.719L17.211 84.719L17.211 87.683"/>
   <path stroke-width="0.25" stroke-linejoin="round" d="M14.609 83.203C14.609 83.203 13.618 83.203 13.435 83.203C13.252 83.203 13.198 83.438 13.198 83.438"/>
   <path stroke-width="0.25" stroke-linejoin="round" d="M14.711 81.212L13.794 81.212"/>
   <path stroke-width="0.131" stroke-linejoin="round" d="M16.083 83.591L17.211 84.719"/>
   <path stroke-width="0.25" stroke-linejoin="round" d="M24.896 83.591L24.896 87.683L16.083 87.683"/>
   <path stroke-width="0.131" stroke-linejoin="round" d="M63.85 83.591L72.662 83.591L72.662 87.683"/>
   <path stroke-width="0.25" stroke-linejoin="round" d="M45.533 84.719L71.534 84.719L71.534 87.683"/>
   <path stroke-width="0.131" stroke-linejoin="round" d="M72.662 83.591L71.534 84.719"/>
   <path stroke-width="0.25" stroke-linejoin="round" d="M63.85 83.591L63.85 87.683L72.662 87.683"/>
   <path stroke-width="0.131" stroke-linejoin="round" d="M15.009 80.103L22.798 80.103"/>
   <path stroke-width="0.131" stroke-linejoin="round" d="M32.448 80.103L41.786 80.103"/>
   <path stroke-width="0.131" stroke-linejoin="round" d="M43.686 85.978L45.253 85.978"/>
   <path stroke-width="0.131" stroke-linejoin="round" d="M43.686 87.512L45.253 87.512"/>
   <path stroke-width="0.131" stroke-linejoin="round" d="M71.054 80.103L74.236 80.103"/>
   <path stroke-width="0.131" stroke-linejoin="round" d="M32.186 82.254L32.186 79.921L23.086 79.921L23.086 82.254L32.186 82.254z"/>
   <path stroke-width="0.25" stroke-linejoin="round" d="M32.161 81.834L23.112 81.834L23.112 81.572L32.161 81.572L32.161 81.834z"/>
   <path stroke-width="0.131" stroke-linejoin="round" d="M70.704 82.254L70.704 79.921L42.17 79.921L42.17 82.254L70.704 82.254z"/>
   <path stroke-width="0.25" stroke-linejoin="round" d="M70.677 81.834L42.197 81.834L42.197 81.572L70.677 81.572L70.677 81.834z"/>
   <path stroke-width="0.25" stroke-linejoin="round" d="M72.688 93.415L74.697 93.415"/>
   <path stroke-width="0.25" stroke-linejoin="round" d="M72.688 96.35L74.697 96.35"/>
   <path stroke-width="0.25" stroke-linejoin="round" d="M50.843 88.602L50.843 87.971C50.843 87.609 51.136 87.316 51.496 87.316L60.71 87.316C61.07 87.316 61.363 87.609 61.363 87.971L61.363 88.602"/>
   <path stroke-width="0.25" stroke-linejoin="round" d="M51.545 88.602L51.545 88.266C51.545 88.128 51.658 88.015 51.796 88.015L60.401 88.015C60.539 88.015 60.652 88.128 60.652 88.266L60.652 88.602"/>
   <path stroke-width="0.25" stroke-linejoin="round" d="M67.382 95.629L44.985 95.629L44.985 89.388L67.382 89.388L67.382 95.629z"/>
   <path stroke-width="0.25" stroke-linejoin="round" d="M44.985 92.509L67.382 92.509"/>
   <g>
    <path stroke-width="0.25" stroke-linejoin="round" d="M64.582 95.629L64.582 89.388"/>
    <path stroke-width="0.25" stroke-linejoin="round" d="M61.783 95.629L61.783 89.388"/>
    <path stroke-width="0.25" stroke-linejoin="round" d="M58.984 95.629L58.984 89.388"/>
    <path stroke-width="0.25" stroke-linejoin="round" d="M56.183 95.629L56.183 89.388"/>
    <path stroke-width="0.25" stroke-linejoin="round" d="M53.384 95.629L53.384 89.388"/>
    <path stroke-width="0.25" stroke-linejoin="round" d="M50.585 95.629L50.585 89.388"/>
    <path stroke-width="0.25" stroke-linejoin="round" d="M47.784 95.629L47.784 89.388"/>
   </g>
   <path stroke-width="0.201" stroke-linejoin="round" d="M50.551 86.989C50.24 86.989 49.987 86.736 49.987 86.426C49.987 86.114 50.24 85.861 50.551 85.861"/>
   <path stroke-width="0.25" stroke-linejoin="round" d="M61.664 86.989L50.551 86.989"/>
   <path stroke-width="0.201" stroke-linejoin="round" d="M61.664 85.861C61.975 85.861 62.228 86.114 62.228 86.426C62.228 86.736 61.975 86.989 61.664 86.989"/>
   <path stroke-width="0.25" stroke-linejoin="round" d="M61.664 84.733C61.975 84.733 62.228 84.986 62.228 85.298C62.228 85.609 61.975 85.861 61.664 85.861L50.551 85.861C50.24 85.861 49.987 85.609 49.987 85.298C49.987 84.986 50.24 84.733 50.551 84.733"/>
   <path stroke-width="0.25" stroke-linejoin="round" d="M65.748 96.352C66.06 96.352 66.311 96.605 66.311 96.915C66.311 97.227 66.06 97.48 65.748 97.48L46.826 97.48C46.515 97.48 46.262 97.227 46.262 96.915C46.262 96.605 46.515 96.352 46.826 96.352L65.748 96.352z"/>
   <path stroke-width="0.25" stroke-linejoin="round" d="M21.018 102.427L21.018 103.424C21.018 103.736 20.766 103.987 20.454 103.987C20.143 103.987 19.891 103.736 19.891 103.424L19.891 96.924L19.891 90.424C19.891 90.112 20.143 89.859 20.454 89.859C20.766 89.859 21.018 90.112 21.018 90.424L21.018 91.411"/>
   <path stroke-width="0.25" stroke-linejoin="round" d="M50.551 88.602L50.551 87.009"/>
   <path stroke-width="0.25" stroke-linejoin="round" d="M61.664 88.602L61.664 87.009"/>
   <path stroke-width="0.131" stroke-linejoin="round" d="M57.274 87.009L57.274 86.289L54.941 86.289L54.941 86.969"/>
   <path stroke-width="0.25" stroke-linejoin="round" d="M16.123 94.212L17.391 94.212L17.391 96.409"/>
   <path stroke-width="0.25" stroke-linejoin="round" d="M30.757 96.918C30.757 98.495 29.478 99.774 27.902 99.774C26.324 99.774 25.045 98.495 25.045 96.918C25.045 95.341 26.324 94.063 27.902 94.063C29.478 94.063 30.757 95.341 30.757 96.918z"/>
   <path stroke-width="0.25" stroke-linejoin="round" d="M37.17 96.918C37.17 98.495 35.89 99.774 34.314 99.774C32.735 99.774 31.457 98.495 31.457 96.918L31.457 96.918C31.457 95.341 32.735 94.063 34.314 94.063C35.89 94.063 37.17 95.341 37.17 96.918z"/>
   <path stroke-width="0.25" stroke-linejoin="round" d="M27.551 102.427C27.551 100.849 26.272 99.57 24.696 99.57C23.118 99.57 21.839 100.849 21.839 102.427C21.839 104.003 23.118 105.281 24.696 105.281C26.272 105.281 27.551 104.003 27.551 102.427z"/>
   <path stroke-width="0.25" stroke-linejoin="round" d="M33.963 102.427C33.963 100.849 32.685 99.57 31.108 99.57C29.53 99.57 28.251 100.849 28.251 102.427C28.251 104.003 29.53 105.281 31.108 105.281C32.685 105.281 33.963 104.003 33.963 102.427z"/>
   <path stroke-width="0.25" stroke-linejoin="round" d="M40.375 102.427C40.375 100.849 39.097 99.57 37.52 99.57C35.942 99.57 34.664 100.849 34.664 102.427C34.664 104.003 35.942 105.281 37.52 105.281C39.097 105.281 40.375 104.003 40.375 102.427z"/>
   <path stroke-width="0.25" stroke-linejoin="round" d="M33.963 102.427C33.963 100.849 32.685 99.57 31.108 99.57C29.53 99.57 28.251 100.849 28.251 102.427C28.251 104.003 29.53 105.281 31.108 105.281C32.685 105.281 33.963 104.003 33.963 102.427z"/>
   <path stroke-width="0.25" stroke-linejoin="round" d="M14.711 81.212C14.961 81.212 16.509 81.212 16.509 81.212"/>
   <path stroke-width="0.25" stroke-linejoin="round" d="M14.371 79.575C14.371 79.802 14.371 80.62 14.371 80.802C14.371 80.984 14.462 81.212 14.711 81.212"/>
   <path stroke-width="0.501" stroke-linejoin="round" d="M14.371 114.263C14.371 114.489 14.621 114.989 14.826 114.989C15.031 114.989 74.132 114.989 74.132 114.989C74.48 114.989 74.725 114.748 74.725 114.503C74.725 114.257 74.725 96.918 74.725 96.918C74.725 96.918 74.725 79.579 74.725 79.334C74.725 79.09 74.48 78.847 74.132 78.847C74.132 78.847 15.031 78.847 14.826 78.847C14.621 78.847 14.371 79.347 14.371 79.575"/>
   <path stroke-width="0.25" stroke-linejoin="round" d="M14.711 112.626C14.462 112.626 14.371 112.852 14.371 113.034C14.371 113.216 14.371 114.034 14.371 114.263"/>
   <path stroke-width="0.25" stroke-linejoin="round" d="M16.509 112.626C16.509 112.626 14.961 112.626 14.711 112.626"/>
   <path stroke-width="0.25" stroke-linejoin="round" d="M21.567 110.795C21.567 110.662 21.46 110.557 21.329 110.557L19.054 110.557C18.923 110.557 18.817 110.662 18.817 110.795L18.817 111.819C18.817 111.95 18.923 112.057 19.054 112.057L21.329 112.057C21.46 112.057 21.567 111.95 21.567 111.819L21.567 110.795z"/>
   <path stroke-width="0.25" stroke-linejoin="round" d="M40.715 110.539C40.715 110.408 40.607 110.301 40.475 110.301L33.996 110.301C33.865 110.301 33.759 110.408 33.759 110.539L33.759 112.317C33.759 112.448 33.865 112.555 33.996 112.555L40.475 112.555C40.607 112.555 40.715 112.448 40.715 112.317L40.715 110.539z"/>
   <path stroke-width="0.25" stroke-linejoin="round" d="M45.515 109.373L45.515 106.298C45.515 106.167 45.409 106.06 45.277 106.06L43.643 106.06C43.512 106.06 43.405 106.167 43.405 106.298L43.405 109.373"/>
   <path stroke-width="0.131" stroke-linejoin="round" d="M43.405 109.373C43.405 109.504 43.512 109.609 43.643 109.609L45.277 109.609C45.409 109.609 45.515 109.504 45.515 109.373"/>
   <path stroke-width="0.25" stroke-linejoin="round" d="M16.509 112.626C16.64 112.626 16.746 112.519 16.746 112.387L16.746 110.875C16.746 110.742 16.64 110.635 16.509 110.635L14.609 110.635C14.477 110.635 14.371 110.528 14.371 110.397L14.371 96.918L14.371 83.441C14.371 83.31 14.477 83.203 14.609 83.203L16.509 83.2C16.64 83.2 16.746 83.093 16.746 82.962L16.746 81.45C16.746 81.319 16.64 81.212 16.509 81.212"/>
   <path stroke-width="0.25" stroke-linejoin="round" d="M16.083 106.153L16.083 97.385L19.843 97.385"/>
   <path stroke-width="0.131" stroke-linejoin="round" d="M24.896 110.245L16.083 110.245L16.083 106.153"/>
   <path stroke-width="0.25" stroke-linejoin="round" d="M43.386 109.117L17.211 109.117L17.211 106.153"/>
   <path stroke-width="0.25" stroke-linejoin="round" d="M14.609 110.635C14.609 110.635 13.618 110.635 13.435 110.635C13.252 110.635 13.198 110.399 13.198 110.399"/>
   <path stroke-width="0.25" stroke-linejoin="round" d="M14.711 112.626L13.794 112.626"/>
   <path stroke-width="0.131" stroke-linejoin="round" d="M16.083 110.245L17.211 109.117"/>
   <path stroke-width="0.25" stroke-linejoin="round" d="M24.896 110.245L24.896 106.153L16.083 106.153"/>
   <path stroke-width="0.25" stroke-linejoin="round" d="M72.662 106.153L72.662 96.918L72.662 87.683"/>
   <path stroke-width="0.131" stroke-linejoin="round" d="M63.85 110.245L72.662 110.245L72.662 106.153"/>
   <path stroke-width="0.25" stroke-linejoin="round" d="M45.533 109.117L71.534 109.117L71.534 106.153"/>
   <path stroke-width="0.131" stroke-linejoin="round" d="M72.662 110.245L71.534 109.117"/>
   <path stroke-width="0.25" stroke-linejoin="round" d="M63.85 110.245L63.85 106.153L72.662 106.153"/>
   <path stroke-width="0.131" stroke-linejoin="round" d="M15.009 113.733L22.798 113.733"/>
   <path stroke-width="0.131" stroke-linejoin="round" d="M32.448 113.733L41.786 113.733"/>
   <path stroke-width="0.131" stroke-linejoin="round" d="M43.686 107.858L45.253 107.858"/>
   <path stroke-width="0.131" stroke-linejoin="round" d="M43.686 106.325L45.253 106.325"/>
   <path stroke-width="0.131" stroke-linejoin="round" d="M71.054 113.733L74.236 113.733"/>
   <path stroke-width="0.131" stroke-linejoin="round" d="M32.186 111.582L32.186 113.917L23.086 113.917L23.086 111.582L32.186 111.582z"/>
   <path stroke-width="0.25" stroke-linejoin="round" d="M32.161 112.003L23.112 112.003L23.112 112.265L32.161 112.265L32.161 112.003z"/>
   <path stroke-width="0.131" stroke-linejoin="round" d="M70.704 111.582L70.704 113.917L42.17 113.917L42.17 111.582L70.704 111.582z"/>
   <path stroke-width="0.25" stroke-linejoin="round" d="M70.677 112.003L42.197 112.003L42.197 112.265L70.677 112.265L70.677 112.003z"/>
   <path stroke-width="0.25" stroke-linejoin="round" d="M69.585 96.918L69.585 103.311C69.585 104.364 68.733 105.216 67.683 105.216L44.512 105.216C43.463 105.216 42.612 104.364 42.612 103.311L42.612 96.918L42.612 90.525C42.612 89.474 43.463 88.62 44.512 88.62L67.683 88.62C68.733 88.62 69.585 89.474 69.585 90.525L69.585 96.918z"/>
   <path stroke-width="0.25" stroke-linejoin="round" d="M50.843 105.234L50.843 105.865C50.843 106.227 51.136 106.519 51.496 106.519L60.71 106.519C61.07 106.519 61.363 106.227 61.363 105.865L61.363 105.234"/>
   <path stroke-width="0.25" stroke-linejoin="round" d="M51.545 105.234L51.545 105.569C51.545 105.709 51.658 105.822 51.796 105.822L60.401 105.822C60.539 105.822 60.652 105.709 60.652 105.569L60.652 105.234"/>
   <path stroke-width="0.25" stroke-linejoin="round" d="M67.382 98.207L44.985 98.207L44.985 104.45L67.382 104.45L67.382 98.207z"/>
   <path stroke-width="0.25" stroke-linejoin="round" d="M44.985 101.328L67.382 101.328"/>
   <g>
    <path stroke-width="0.25" stroke-linejoin="round" d="M64.582 98.207L64.582 104.45"/>
    <path stroke-width="0.25" stroke-linejoin="round" d="M61.783 98.207L61.783 104.45"/>
    <path stroke-width="0.25" stroke-linejoin="round" d="M58.984 98.207L58.984 104.45"/>
    <path stroke-width="0.25" stroke-linejoin="round" d="M56.183 98.207L56.183 104.45"/>
    <path stroke-width="0.25" stroke-linejoin="round" d="M53.384 98.207L53.384 104.45"/>
    <path stroke-width="0.25" stroke-linejoin="round" d="M50.585 98.207L50.585 104.45"/>
    <path stroke-width="0.25" stroke-linejoin="round" d="M47.784 98.207L47.784 104.45"/>
   </g>
   <path stroke-width="0.201" stroke-linejoin="round" d="M50.551 106.847C50.24 106.847 49.987 107.099 49.987 107.412C49.987 107.722 50.24 107.975 50.551 107.975"/>
   <path stroke-width="0.25" stroke-linejoin="round" d="M61.664 106.847L50.551 106.847"/>
   <path stroke-width="0.201" stroke-linejoin="round" d="M61.664 107.975C61.975 107.975 62.228 107.722 62.228 107.412C62.228 107.099 61.975 106.847 61.664 106.847"/>
   <path stroke-width="0.25" stroke-linejoin="round" d="M61.664 109.102C61.975 109.102 62.228 108.85 62.228 108.54C62.228 108.227 61.975 107.975 61.664 107.975L50.551 107.975C50.24 107.975 49.987 108.227 49.987 108.54C49.987 108.85 50.24 109.102 50.551 109.102"/>
   <path stroke-width="0.25" stroke-linejoin="round" d="M50.551 105.234L50.551 106.828"/>
   <path stroke-width="0.25" stroke-linejoin="round" d="M61.664 105.234L61.664 106.828"/>
   <path stroke-width="0.131" stroke-linejoin="round" d="M57.274 106.828L57.274 107.549L54.941 107.549L54.941 106.867"/>
   <path stroke-width="0.25" stroke-linejoin="round" d="M16.123 99.625L17.391 99.625L17.391 97.427"/>
   <path stroke-width="0.25" stroke-linejoin="round" d="M37.966 96.918C37.966 97.436 37.859 97.93 37.664 98.376C37.643 98.417 37.631 98.46 37.631 98.509C37.631 98.656 37.741 98.775 37.884 98.792C39.731 98.974 41.173 100.531 41.173 102.427C41.173 104.444 39.536 106.079 37.52 106.079C36.295 106.079 35.213 105.477 34.549 104.554C34.499 104.478 34.411 104.427 34.314 104.427C34.218 104.427 34.134 104.475 34.082 104.548C33.42 105.474 32.335 106.079 31.108 106.079C29.878 106.079 28.792 105.471 28.129 104.539C28.077 104.469 27.995 104.423 27.902 104.423C27.809 104.423 27.727 104.468 27.675 104.539C27.013 105.471 25.926 106.079 24.696 106.079C22.678 106.079 21.042 104.444 21.042 102.427C21.042 100.531 22.486 98.974 24.332 98.792C24.475 98.775 24.585 98.656 24.585 98.509C24.585 98.466 24.574 98.427 24.557 98.391C24.359 97.941 24.248 97.442 24.248 96.918C24.248 96.394 24.359 95.897 24.557 95.447C24.574 95.409 24.585 95.37 24.585 95.328C24.585 95.182 24.475 95.063 24.332 95.046C22.486 94.864 21.042 93.305 21.042 91.411C21.042 89.394 22.678 87.757 24.696 87.757C25.926 87.757 27.013 88.367 27.675 89.299C27.727 89.368 27.809 89.415 27.902 89.415C27.995 89.415 28.077 89.367 28.129 89.298C28.792 88.367 29.878 87.757 31.108 87.757C32.335 87.757 33.42 88.362 34.082 89.29C34.134 89.361 34.218 89.409 34.314 89.409C34.411 89.409 34.499 89.358 34.549 89.283C35.213 88.359 36.295 87.757 37.52 87.757C39.536 87.757 41.173 89.394 41.173 91.411C41.173 93.305 39.731 94.862 37.884 95.046C37.741 95.063 37.631 95.182 37.631 95.328C37.631 95.376 37.643 95.421 37.664 95.459C37.859 95.906 37.966 96.4 37.966 96.918z"/>
   <path stroke-width="0.25" stroke-linejoin="round" d="M41.173 91.411L41.173 102.427"/>
   <g>
    <text x="21.635" y="87.072" stroke-width="0.131" stroke-linecap="butt" stroke-miterlimit="1" font-family="'Arial'" font-size="1.764">116</text>
   </g>
   <g>
    <text x="29.111" y="87.072" stroke-width="0.131" stroke-linecap="butt" stroke-miterlimit="1" font-family="'Arial'" font-size="1.764">115</text>
   </g>
   <g>
    <text x="35.683" y="87.072" stroke-width="0.131" stroke-linecap="butt" stroke-miterlimit="1" font-family="'Arial'" font-size="1.764">114</text>
   </g>
   <g>
    <text x="43.289" y="90.849" stroke="none" fill="#000000" font-family="'Arial'" font-size="1.411">89</text>
   </g>
   <g>
    <text x="43.289" y="94.704" stroke="none" fill="#000000" font-family="'Arial'" font-size="1.411">97</text>
   </g>
   <g>
    <text x="42.734" y="103.865" stroke="none" fill="#000000" font-family="'Arial'" font-size="1.411">113</text>
   </g>
   <g>
    <text x="42.734" y="99.933" stroke="none" fill="#000000" font-family="'Arial'" font-size="1.411">105</text>
   </g>
   <g>
    <text x="67.772" y="90.849" stroke="none" fill="#000000" font-family="'Arial'" font-size="1.411">82</text>
   </g>
   <g>
    <text x="67.772" y="94.704" stroke="none" fill="#000000" font-family="'Arial'" font-size="1.411">90</text>
   </g>
   <g>
    <text x="67.412" y="103.865" stroke="none" fill="#000000" font-family="'Arial'" font-size="1.411">106</text>
   </g>
   <g>
    <text x="66.341" y="97.938" stroke="none" fill="#000000" font-family="'Arial'" font-size="1.411">98</text>
   </g>
   <g>
    <text x="21.635" y="108.421" stroke-width="0.131" stroke-linecap="butt" stroke-miterlimit="1" font-family="'Arial'" font-size="1.764">121</text>
   </g>
   <g>
    <text x="29.111" y="108.421" stroke-width="0.131" stroke-linecap="butt" stroke-miterlimit="1" font-family="'Arial'" font-size="1.764">120</text>
   </g>
   <g>
    <text x="35.683" y="108.421" stroke-width="0.131" stroke-linecap="butt" stroke-miterlimit="1" font-family="'Arial'" font-size="1.764">119</text>
   </g>
   <path stroke-width="0.131" stroke-linejoin="round" d="M10.957 18.068C11.035 17.794 10.875 17.507 10.599 17.428C10.324 17.35 10.038 17.51 9.958 17.785"/>
   <path stroke-width="0.25" stroke-linejoin="round" d="M21.158 25.588C21.158 26.756 20.211 27.701 19.045 27.701C17.879 27.701 16.932 26.756 16.932 25.588C16.932 24.422 17.879 23.477 19.045 23.477C20.211 23.477 21.158 24.422 21.158 25.588z"/>
   <path stroke-width="0.25" stroke-linejoin="round" d="M25.899 25.588C25.899 26.756 24.954 27.701 23.788 27.701C22.62 27.701 21.675 26.756 21.675 25.588C21.675 24.422 22.62 23.477 23.788 23.477C24.954 23.477 25.899 24.422 25.899 25.588z"/>
   <path stroke-width="0.131" stroke-linejoin="round" d="M10.957 41.228C11.035 41.503 10.875 41.789 10.599 41.868C10.324 41.948 10.038 41.787 9.958 41.512"/>
   <path stroke-width="0.25" stroke-linejoin="round" d="M8.984 22.515C8.672 24.745 8.506 27.167 8.506 29.652C8.506 32.131 8.672 34.551 8.984 36.781"/>
   <path stroke-width="0.25" stroke-linejoin="round" d="M11.26 42.365C11.259 42.317 11.255 42.271 11.24 42.225L10.957 41.228C10.045 38.036 9.544 33.945 9.544 29.652C9.544 25.353 10.045 21.26 10.957 18.068L11.24 17.073C11.253 17.028 11.259 16.984 11.259 16.94"/>
   <path stroke-width="0.501" stroke-linejoin="round" d="M11.259 16.94C11.265 16.71 11.115 16.498 10.884 16.432C10.609 16.355 10.321 16.513 10.243 16.789L9.958 17.785C9.551 19.208 9.224 20.806 8.984 22.515C8.727 24.077 7.2 25.902 4.652 25.902C2.685 25.902 1.728 24.885 1.728 22.794L1.726 21.036C1.726 20.75 1.494 20.518 1.207 20.518C0.922 20.518 0.69 20.75 0.69 21.036L0.69 29.652L0.69 38.262C0.69 38.548 0.922 38.78 1.207 38.78C1.494 38.78 1.726 38.548 1.726 38.262L1.728 36.505C1.728 34.412 2.685 33.396 4.652 33.396C7.2 33.396 8.727 35.219 8.984 36.781C9.224 38.493 9.551 40.088 9.958 41.512L10.243 42.509C10.321 42.784 10.609 42.942 10.884 42.865C11.112 42.801 11.262 42.591 11.26 42.365"/>
   <path stroke-width="0.25" stroke-linejoin="round" d="M8.666 33.875C7.815 32.975 6.261 32.359 4.652 32.359C3.805 32.359 3.084 32.521 2.498 32.834C2.423 32.878 2.337 32.902 2.245 32.902C1.958 32.902 1.726 32.67 1.726 32.384L1.726 29.652L1.726 26.914C1.726 26.629 1.958 26.396 2.245 26.396C2.337 26.396 2.423 26.42 2.498 26.463C3.084 26.777 3.805 26.94 4.652 26.94C6.261 26.94 7.815 26.323 8.666 25.423"/>
   <path stroke-width="0.25" stroke-linejoin="round" d="M16.771 19.399C16.771 19.498 16.692 19.576 16.594 19.576L14.913 19.576C14.817 19.576 14.737 19.498 14.737 19.399L14.737 18.643C14.737 18.545 14.817 18.466 14.913 18.466L16.594 18.466C16.692 18.466 16.771 18.545 16.771 18.643L16.771 19.399z"/>
   <path stroke-width="0.25" stroke-linejoin="round" d="M37.767 19.589C37.767 19.687 37.689 19.765 37.591 19.765L32.798 19.765C32.701 19.765 32.622 19.687 32.622 19.589L32.622 18.272C32.622 18.175 32.701 18.097 32.798 18.097L37.591 18.097C37.689 18.097 37.767 18.175 37.767 18.272L37.767 19.589z"/>
   <path stroke-width="0.25" stroke-linejoin="round" d="M53.276 20.452L53.276 22.725C53.276 22.823 53.195 22.902 53.098 22.902L51.89 22.902C51.793 22.902 51.713 22.823 51.713 22.725L51.713 20.452"/>
   <path stroke-width="0.131" stroke-linejoin="round" d="M51.713 20.452C51.713 20.355 51.793 20.275 51.89 20.275L53.098 20.275C53.195 20.275 53.276 20.355 53.276 20.452"/>
   <path stroke-width="0.25" stroke-linejoin="round" d="M12.676 22.832L12.676 29.318L15.455 29.318"/>
   <path stroke-width="0.131" stroke-linejoin="round" d="M19.193 19.806L12.676 19.806L12.676 22.832"/>
   <path stroke-width="0.25" stroke-linejoin="round" d="M25.425 20.64L13.509 20.64L13.509 22.832"/>
   <path stroke-width="0.25" stroke-linejoin="round" d="M51.7 20.64L27.06 20.64"/>
   <path stroke-width="0.25" stroke-linejoin="round" d="M11.585 19.518C11.585 19.518 10.852 19.518 10.717 19.518C10.58 19.518 10.541 19.693 10.541 19.693"/>
   <path stroke-width="0.25" stroke-linejoin="round" d="M11.662 18.045L10.981 18.045"/>
   <path stroke-width="0.131" stroke-linejoin="round" d="M12.676 19.806L13.509 20.64"/>
   <path stroke-width="0.25" stroke-linejoin="round" d="M19.193 19.806L19.193 22.832L12.676 22.832"/>
   <path stroke-width="0.131" stroke-linejoin="round" d="M65.778 19.806L72.298 19.806L72.298 22.832"/>
   <path stroke-width="0.25" stroke-linejoin="round" d="M53.287 20.64L71.463 20.64L71.463 22.832"/>
   <path stroke-width="0.131" stroke-linejoin="round" d="M72.298 19.806L71.463 20.64"/>
   <path stroke-width="0.25" stroke-linejoin="round" d="M65.778 19.806L65.778 22.832L72.298 22.832"/>
   <path stroke-width="0.131" stroke-linejoin="round" d="M11.881 17.227L49.46 17.227"/>
   <path stroke-width="0.131" stroke-linejoin="round" d="M51.921 21.571L53.079 21.571"/>
   <path stroke-width="0.131" stroke-linejoin="round" d="M51.921 22.705L53.079 22.705"/>
   <path stroke-width="0.131" stroke-linejoin="round" d="M71.108 17.227L73.46 17.227"/>
   <path stroke-width="0.131" stroke-linejoin="round" d="M70.849 18.817L70.849 17.091L49.743 17.091L49.743 18.817L70.849 18.817z"/>
   <path stroke-width="0.25" stroke-linejoin="round" d="M70.828 18.507L49.764 18.507L49.764 18.312L70.828 18.312L70.828 18.507z"/>
   <path stroke-width="0.25" stroke-linejoin="round" d="M72.316 27.071L73.802 27.071"/>
   <path stroke-width="0.25" stroke-linejoin="round" d="M72.316 29.242L73.802 29.242"/>
   <path stroke-width="0.25" stroke-linejoin="round" d="M56.158 23.512L56.158 23.045C56.158 22.778 56.375 22.562 56.642 22.562L63.457 22.562C63.723 22.562 63.939 22.778 63.939 23.045L63.939 23.512"/>
   <path stroke-width="0.25" stroke-linejoin="round" d="M56.676 23.512L56.676 23.263C56.676 23.161 56.759 23.077 56.863 23.077L63.226 23.077C63.329 23.077 63.414 23.161 63.414 23.263L63.414 23.512"/>
   <path stroke-width="0.25" stroke-linejoin="round" d="M68.391 28.71L29.053 28.71L29.053 24.094L68.391 24.094L68.391 28.71z"/>
   <g>
    <path stroke-width="0.25" stroke-linejoin="round" d="M66.32 28.71L66.32 24.094"/>
    <path stroke-width="0.25" stroke-linejoin="round" d="M64.25 28.71L64.25 24.094"/>
    <path stroke-width="0.25" stroke-linejoin="round" d="M62.179 28.71L62.179 24.094"/>
    <path stroke-width="0.25" stroke-linejoin="round" d="M60.109 28.71L60.109 24.094"/>
    <path stroke-width="0.25" stroke-linejoin="round" d="M58.039 28.71L58.039 24.094"/>
    <path stroke-width="0.25" stroke-linejoin="round" d="M55.968 28.71L55.968 24.094"/>
    <path stroke-width="0.25" stroke-linejoin="round" d="M53.896 28.71L53.896 24.094"/>
   </g>
   <path stroke-width="0.201" stroke-linejoin="round" d="M55.942 22.318C55.713 22.318 55.526 22.132 55.526 21.902C55.526 21.672 55.713 21.484 55.942 21.484"/>
   <path stroke-width="0.25" stroke-linejoin="round" d="M64.162 22.318L55.942 22.318"/>
   <path stroke-width="0.201" stroke-linejoin="round" d="M64.162 21.484C64.393 21.484 64.578 21.672 64.578 21.902C64.578 22.132 64.393 22.318 64.162 22.318"/>
   <path stroke-width="0.25" stroke-linejoin="round" d="M64.162 20.65C64.393 20.65 64.578 20.836 64.578 21.068C64.578 21.297 64.393 21.484 64.162 21.484L55.942 21.484C55.713 21.484 55.526 21.297 55.526 21.068C55.526 20.836 55.713 20.65 55.942 20.65"/>
   <path stroke-width="0.25" stroke-linejoin="round" d="M66.739 29.243C66.969 29.243 67.156 29.431 67.156 29.661C67.156 29.89 66.969 30.077 66.739 30.077L50.399 30.077C50.17 30.077 49.981 29.89 49.981 29.661C49.981 29.431 50.17 29.243 50.399 29.243L66.739 29.243z"/>
   <path stroke-width="0.25" stroke-linejoin="round" d="M47.216 29.243C47.447 29.243 47.633 29.431 47.633 29.661C47.633 29.89 47.447 30.077 47.216 30.077L30.876 30.077C30.646 30.077 30.458 29.89 30.458 29.661C30.458 29.431 30.646 29.243 30.876 29.243L47.216 29.243z"/>
   <path stroke-width="0.25" stroke-linejoin="round" d="M16.326 33.728L16.326 34.466C16.326 34.697 16.138 34.883 15.909 34.883C15.678 34.883 15.492 34.697 15.492 34.466L15.492 29.667L15.492 24.859C15.492 24.629 15.678 24.442 15.909 24.442C16.138 24.442 16.326 24.629 16.326 24.859L16.326 25.588"/>
   <path stroke-width="0.25" stroke-linejoin="round" d="M55.942 23.512L55.942 22.332"/>
   <path stroke-width="0.25" stroke-linejoin="round" d="M64.162 23.512L64.162 22.332"/>
   <path stroke-width="0.131" stroke-linejoin="round" d="M60.915 22.332L60.915 21.8L59.189 21.8L59.189 22.303"/>
   <path stroke-width="0.25" stroke-linejoin="round" d="M12.705 27.661L13.643 27.661L13.643 29.286"/>
   <path stroke-width="0.25" stroke-linejoin="round" d="M23.528 29.663C23.528 30.829 22.582 31.765 21.417 31.765C20.251 31.765 19.303 30.829 19.303 29.663C19.303 28.496 20.251 27.55 21.417 27.55C22.582 27.55 23.528 28.496 23.528 29.663z"/>
   <path stroke-width="0.25" stroke-linejoin="round" d="M21.158 33.728C21.158 32.561 20.211 31.617 19.045 31.617C17.879 31.617 16.932 32.561 16.932 33.728C16.932 34.893 17.879 35.841 19.045 35.841C20.211 35.841 21.158 34.893 21.158 33.728z"/>
   <path stroke-width="0.25" stroke-linejoin="round" d="M25.899 33.728C25.899 32.561 24.954 31.617 23.788 31.617C22.62 31.617 21.675 32.561 21.675 33.728C21.675 34.893 22.62 35.841 23.788 35.841C24.954 35.841 25.899 34.893 25.899 33.728z"/>
   <path stroke-width="0.25" stroke-linejoin="round" d="M11.662 18.045C11.846 18.045 12.99 18.045 12.99 18.045"/>
   <path stroke-width="0.25" stroke-linejoin="round" d="M11.409 16.835C11.409 17.003 11.409 17.609 11.409 17.742C11.409 17.878 11.477 18.045 11.662 18.045"/>
   <path stroke-width="0.501" stroke-linejoin="round" d="M11.409 42.481C11.409 42.652 11.593 43.021 11.746 43.021C11.897 43.021 73.382 43.021 73.382 43.021C73.643 43.021 73.823 42.841 73.823 42.659C73.823 42.478 73.823 29.663 73.823 29.663C73.823 29.663 73.823 16.838 73.823 16.658C73.823 16.477 73.643 16.297 73.382 16.297C73.382 16.297 11.897 16.297 11.746 16.297C11.593 16.297 11.409 16.667 11.409 16.835"/>
   <path stroke-width="0.25" stroke-linejoin="round" d="M11.662 41.271C11.477 41.271 11.409 41.439 11.409 41.573C11.409 41.709 11.409 42.314 11.409 42.481"/>
   <path stroke-width="0.25" stroke-linejoin="round" d="M12.99 41.271C12.99 41.271 11.846 41.271 11.662 41.271"/>
   <path stroke-width="0.25" stroke-linejoin="round" d="M16.771 39.917C16.771 39.82 16.692 39.74 16.594 39.74L14.913 39.74C14.817 39.74 14.737 39.82 14.737 39.917L14.737 40.674C14.737 40.771 14.817 40.851 14.913 40.851L16.594 40.851C16.692 40.851 16.771 40.771 16.771 40.674L16.771 39.917z"/>
   <path stroke-width="0.25" stroke-linejoin="round" d="M37.767 39.728C37.767 39.631 37.689 39.551 37.591 39.551L32.798 39.551C32.701 39.551 32.622 39.631 32.622 39.728L32.622 41.043C32.622 41.14 32.701 41.22 32.798 41.22L37.591 41.22C37.689 41.22 37.767 41.14 37.767 41.043L37.767 39.728z"/>
   <path stroke-width="0.25" stroke-linejoin="round" d="M53.276 38.865L53.276 36.591C53.276 36.493 53.195 36.415 53.098 36.415L51.89 36.415C51.793 36.415 51.713 36.493 51.713 36.591L51.713 38.865"/>
   <path stroke-width="0.131" stroke-linejoin="round" d="M51.713 38.865C51.713 38.963 51.793 39.042 51.89 39.042L53.098 39.042C53.195 39.042 53.276 38.963 53.276 38.865"/>
   <path stroke-width="0.25" stroke-linejoin="round" d="M12.99 41.271C13.086 41.271 13.166 41.192 13.166 41.095L13.166 39.976C13.166 39.88 13.086 39.798 12.99 39.798L11.585 39.798C11.487 39.798 11.409 39.72 11.409 39.624L11.409 29.663L11.409 19.693C11.409 19.597 11.487 19.518 11.585 19.518L12.99 19.516C13.086 19.516 13.166 19.439 13.166 19.341L13.166 18.222C13.166 18.125 13.086 18.045 12.99 18.045"/>
   <path stroke-width="0.25" stroke-linejoin="round" d="M12.676 36.485L12.676 30.007L15.455 30.007"/>
   <path stroke-width="0.131" stroke-linejoin="round" d="M19.193 39.512L12.676 39.512L12.676 36.485"/>
   <path stroke-width="0.25" stroke-linejoin="round" d="M25.425 38.676L13.509 38.676L13.509 36.485"/>
   <path stroke-width="0.25" stroke-linejoin="round" d="M51.7 38.676L27.071 38.676"/>
   <path stroke-width="0.25" stroke-linejoin="round" d="M11.585 39.798C11.585 39.798 10.852 39.798 10.717 39.798C10.58 39.798 10.541 39.625 10.541 39.625"/>
   <path stroke-width="0.25" stroke-linejoin="round" d="M11.662 41.271L10.981 41.271"/>
   <path stroke-width="0.131" stroke-linejoin="round" d="M12.676 39.512L13.509 38.676"/>
   <path stroke-width="0.25" stroke-linejoin="round" d="M19.193 39.512L19.193 36.485L12.676 36.485"/>
   <path stroke-width="0.25" stroke-linejoin="round" d="M72.298 36.485L72.298 29.663L72.298 22.832"/>
   <path stroke-width="0.131" stroke-linejoin="round" d="M65.778 39.512L72.298 39.512L72.298 36.485"/>
   <path stroke-width="0.25" stroke-linejoin="round" d="M53.287 38.676L71.463 38.676L71.463 36.485"/>
   <path stroke-width="0.131" stroke-linejoin="round" d="M72.298 39.512L71.463 38.676"/>
   <path stroke-width="0.25" stroke-linejoin="round" d="M65.778 39.512L65.778 36.485L72.298 36.485"/>
   <path stroke-width="0.131" stroke-linejoin="round" d="M11.881 42.091L49.46 42.091"/>
   <path stroke-width="0.131" stroke-linejoin="round" d="M51.921 37.746L53.079 37.746"/>
   <path stroke-width="0.131" stroke-linejoin="round" d="M51.921 36.612L53.079 36.612"/>
   <path stroke-width="0.25" stroke-linejoin="round" d="M27.025 20.452L27.025 22.725C27.025 22.823 26.946 22.902 26.849 22.902L25.64 22.902C25.544 22.902 25.464 22.823 25.464 22.725L25.464 20.452"/>
   <path stroke-width="0.131" stroke-linejoin="round" d="M25.464 20.452C25.464 20.355 25.544 20.275 25.64 20.275L26.849 20.275C26.946 20.275 27.025 20.355 27.025 20.452"/>
   <path stroke-width="0.131" stroke-linejoin="round" d="M25.673 21.571L26.829 21.571"/>
   <path stroke-width="0.131" stroke-linejoin="round" d="M25.673 22.705L26.829 22.705"/>
   <path stroke-width="0.25" stroke-linejoin="round" d="M27.025 38.865L27.025 36.591C27.025 36.493 26.946 36.415 26.849 36.415L25.64 36.415C25.544 36.415 25.464 36.493 25.464 36.591L25.464 38.865"/>
   <path stroke-width="0.131" stroke-linejoin="round" d="M25.464 38.865C25.464 38.963 25.544 39.042 25.64 39.042L26.849 39.042C26.946 39.042 27.025 38.963 27.025 38.865"/>
   <path stroke-width="0.131" stroke-linejoin="round" d="M25.673 37.746L26.829 37.746"/>
   <path stroke-width="0.131" stroke-linejoin="round" d="M25.673 36.612L26.829 36.612"/>
   <path stroke-width="0.131" stroke-linejoin="round" d="M71.108 42.091L73.46 42.091"/>
   <path stroke-width="0.131" stroke-linejoin="round" d="M70.849 40.5L70.849 42.228L49.743 42.228L49.743 40.5L70.849 40.5z"/>
   <path stroke-width="0.25" stroke-linejoin="round" d="M70.828 40.811L49.764 40.811L49.764 41.003L70.828 41.003L70.828 40.811z"/>
   <path stroke-width="0.25" stroke-linejoin="round" d="M70.021 29.663L70.021 34.381C70.021 35.161 69.391 35.792 68.614 35.792L28.913 35.792C28.135 35.792 27.507 35.161 27.507 34.381L27.507 29.663L27.507 24.934C27.507 24.155 28.135 23.524 28.913 23.524L68.614 23.524C69.391 23.524 70.021 24.155 70.021 24.934L70.021 29.663z"/>
   <path stroke-width="0.25" stroke-linejoin="round" d="M56.158 35.804L56.158 36.271C56.158 36.539 56.375 36.756 56.642 36.756L63.457 36.756C63.723 36.756 63.939 36.539 63.939 36.271L63.939 35.804"/>
   <path stroke-width="0.25" stroke-linejoin="round" d="M56.676 35.804L56.676 36.052C56.676 36.155 56.759 36.24 56.863 36.24L63.226 36.24C63.329 36.24 63.414 36.155 63.414 36.052L63.414 35.804"/>
   <path stroke-width="0.25" stroke-linejoin="round" d="M68.391 30.617L29.053 30.617L29.053 35.223L68.391 35.223L68.391 30.617z"/>
   <g>
    <path stroke-width="0.25" stroke-linejoin="round" d="M66.32 30.617L66.32 35.223"/>
    <path stroke-width="0.25" stroke-linejoin="round" d="M64.25 30.617L64.25 35.223"/>
    <path stroke-width="0.25" stroke-linejoin="round" d="M62.179 30.617L62.179 35.223"/>
    <path stroke-width="0.25" stroke-linejoin="round" d="M60.109 30.617L60.109 35.223"/>
    <path stroke-width="0.25" stroke-linejoin="round" d="M58.039 30.617L58.039 35.223"/>
    <path stroke-width="0.25" stroke-linejoin="round" d="M55.968 30.617L55.968 35.223"/>
    <path stroke-width="0.25" stroke-linejoin="round" d="M53.896 30.617L53.896 35.223"/>
   </g>
   <g>
    <path stroke-width="0.25" stroke-linejoin="round" d="M49.758 28.71L49.758 24.094"/>
    <path stroke-width="0.25" stroke-linejoin="round" d="M47.686 28.71L47.686 24.094"/>
    <path stroke-width="0.25" stroke-linejoin="round" d="M45.615 28.71L45.615 24.094"/>
    <path stroke-width="0.25" stroke-linejoin="round" d="M43.545 28.71L43.545 24.094"/>
    <path stroke-width="0.25" stroke-linejoin="round" d="M41.475 28.71L41.475 24.094"/>
    <path stroke-width="0.25" stroke-linejoin="round" d="M39.404 28.71L39.404 24.094"/>
    <path stroke-width="0.25" stroke-linejoin="round" d="M37.332 28.71L37.332 24.094"/>
   </g>
   <g>
    <path stroke-width="0.25" stroke-linejoin="round" d="M49.758 30.617L49.758 35.223"/>
    <path stroke-width="0.25" stroke-linejoin="round" d="M47.686 30.617L47.686 35.223"/>
    <path stroke-width="0.25" stroke-linejoin="round" d="M45.615 30.617L45.615 35.223"/>
    <path stroke-width="0.25" stroke-linejoin="round" d="M43.545 30.617L43.545 35.223"/>
    <path stroke-width="0.25" stroke-linejoin="round" d="M41.475 30.617L41.475 35.223"/>
    <path stroke-width="0.25" stroke-linejoin="round" d="M39.404 30.617L39.404 35.223"/>
    <path stroke-width="0.25" stroke-linejoin="round" d="M37.332 30.617L37.332 35.223"/>
   </g>
   <g>
    <path stroke-width="0.25" stroke-linejoin="round" d="M33.194 28.71L33.194 24.094"/>
    <path stroke-width="0.25" stroke-linejoin="round" d="M31.121 28.71L31.121 24.094"/>
   </g>
   <g>
    <path stroke-width="0.25" stroke-linejoin="round" d="M33.194 30.617L33.194 35.223"/>
    <path stroke-width="0.25" stroke-linejoin="round" d="M35.231 28.71L35.231 24.094"/>
    <path stroke-width="0.25" stroke-linejoin="round" d="M35.231 30.617L35.231 35.223"/>
    <path stroke-width="0.25" stroke-linejoin="round" d="M51.835 28.71L51.835 24.094"/>
    <path stroke-width="0.25" stroke-linejoin="round" d="M51.835 30.617L51.835 35.223"/>
    <path stroke-width="0.25" stroke-linejoin="round" d="M31.121 30.617L31.121 35.223"/>
   </g>
   <path stroke-width="0.201" stroke-linejoin="round" d="M55.942 36.997C55.713 36.997 55.526 37.185 55.526 37.414C55.526 37.646 55.713 37.832 55.942 37.832"/>
   <path stroke-width="0.25" stroke-linejoin="round" d="M64.162 36.997L55.942 36.997"/>
   <path stroke-width="0.201" stroke-linejoin="round" d="M64.162 37.832C64.393 37.832 64.578 37.646 64.578 37.414C64.578 37.185 64.393 36.997 64.162 36.997"/>
   <path stroke-width="0.25" stroke-linejoin="round" d="M64.162 38.667C64.393 38.667 64.578 38.479 64.578 38.25C64.578 38.018 64.393 37.832 64.162 37.832L55.942 37.832C55.713 37.832 55.526 38.018 55.526 38.25C55.526 38.479 55.713 38.667 55.942 38.667"/>
   <path stroke-width="0.25" stroke-linejoin="round" d="M55.942 35.804L55.942 36.984"/>
   <path stroke-width="0.25" stroke-linejoin="round" d="M64.162 35.804L64.162 36.984"/>
   <path stroke-width="0.131" stroke-linejoin="round" d="M60.915 36.984L60.915 37.517L59.189 37.517L59.189 37.012"/>
   <path stroke-width="0.25" stroke-linejoin="round" d="M33.682 23.512L33.682 23.045C33.682 22.778 33.899 22.562 34.165 22.562L40.981 22.562C41.247 22.562 41.465 22.778 41.465 23.045L41.465 23.512"/>
   <path stroke-width="0.25" stroke-linejoin="round" d="M34.201 23.512L34.201 23.263C34.201 23.161 34.284 23.077 34.387 23.077L40.752 23.077C40.854 23.077 40.939 23.161 40.939 23.263L40.939 23.512"/>
   <path stroke-width="0.201" stroke-linejoin="round" d="M33.468 22.318C33.237 22.318 33.051 22.132 33.051 21.902C33.051 21.672 33.237 21.484 33.468 21.484"/>
   <path stroke-width="0.25" stroke-linejoin="round" d="M41.686 22.318L33.468 22.318"/>
   <path stroke-width="0.201" stroke-linejoin="round" d="M41.686 21.484C41.917 21.484 42.103 21.672 42.103 21.902C42.103 22.132 41.917 22.318 41.686 22.318"/>
   <path stroke-width="0.25" stroke-linejoin="round" d="M41.686 20.65C41.917 20.65 42.103 20.836 42.103 21.068C42.103 21.297 41.917 21.484 41.686 21.484L33.468 21.484C33.237 21.484 33.051 21.297 33.051 21.068C33.051 20.836 33.237 20.65 33.468 20.65"/>
   <path stroke-width="0.25" stroke-linejoin="round" d="M33.468 23.512L33.468 22.332"/>
   <path stroke-width="0.25" stroke-linejoin="round" d="M41.686 23.512L41.686 22.332"/>
   <path stroke-width="0.131" stroke-linejoin="round" d="M38.441 22.332L38.441 21.8L36.713 21.8L36.713 22.303"/>
   <path stroke-width="0.25" stroke-linejoin="round" d="M35.74 35.804L35.74 36.271C35.74 36.539 35.957 36.756 36.223 36.756L43.039 36.756C43.305 36.756 43.523 36.539 43.523 36.271L43.523 35.804"/>
   <path stroke-width="0.25" stroke-linejoin="round" d="M36.259 35.804L36.259 36.052C36.259 36.155 36.343 36.24 36.445 36.24L42.81 36.24C42.912 36.24 42.997 36.155 42.997 36.052L42.997 35.804"/>
   <path stroke-width="0.201" stroke-linejoin="round" d="M35.526 36.997C35.295 36.997 35.109 37.185 35.109 37.414C35.109 37.646 35.295 37.832 35.526 37.832"/>
   <path stroke-width="0.25" stroke-linejoin="round" d="M43.744 36.997L35.526 36.997"/>
   <path stroke-width="0.201" stroke-linejoin="round" d="M43.744 37.832C43.975 37.832 44.161 37.646 44.161 37.414C44.161 37.185 43.975 36.997 43.744 36.997"/>
   <path stroke-width="0.25" stroke-linejoin="round" d="M43.744 38.667C43.975 38.667 44.161 38.479 44.161 38.25C44.161 38.018 43.975 37.832 43.744 37.832L35.526 37.832C35.295 37.832 35.109 38.018 35.109 38.25C35.109 38.479 35.295 38.667 35.526 38.667"/>
   <path stroke-width="0.25" stroke-linejoin="round" d="M35.526 35.804L35.526 36.984"/>
   <path stroke-width="0.25" stroke-linejoin="round" d="M43.744 35.804L43.744 36.984"/>
   <path stroke-width="0.131" stroke-linejoin="round" d="M40.499 36.984L40.499 37.517L38.773 37.517L38.773 37.012"/>
   <path stroke-width="0.25" stroke-linejoin="round" d="M12.705 31.655L13.643 31.655L13.643 30.039"/>
   <path stroke-width="0.25" stroke-linejoin="round" d="M21.417 24.109C21.489 24.109 21.553 24.071 21.591 24.015C22.082 23.332 22.882 22.887 23.788 22.887C25.28 22.887 26.489 24.097 26.489 25.588C26.489 26.99 25.423 28.143 24.057 28.277C23.952 28.289 23.87 28.379 23.87 28.486C23.87 28.521 23.879 28.554 23.896 28.585C24.039 28.914 24.12 29.277 24.12 29.663"/>
   <path stroke-width="0.25" stroke-linejoin="round" d="M21.417 35.204C21.347 35.204 21.286 35.237 21.248 35.29C20.76 35.979 19.955 36.429 19.045 36.429C17.553 36.429 16.343 35.219 16.343 33.728C16.343 32.328 17.411 31.182 18.777 31.047C18.882 31.036 18.963 30.946 18.963 30.838C18.963 30.807 18.954 30.777 18.943 30.751C18.797 30.419 18.713 30.05 18.713 29.663C18.713 29.274 18.797 28.907 18.943 28.574C18.954 28.547 18.963 28.518 18.963 28.486C18.963 28.379 18.882 28.289 18.777 28.277C17.411 28.143 16.343 26.99 16.343 25.588C16.343 24.096 17.553 22.887 19.045 22.887C19.955 22.887 20.76 23.338 21.248 24.027C21.286 24.079 21.347 24.112 21.417 24.112"/>
   <path stroke-width="0.25" stroke-linejoin="round" d="M24.12 29.664C24.12 30.047 24.039 30.411 23.896 30.742C23.879 30.771 23.87 30.803 23.87 30.838C23.87 30.946 23.952 31.036 24.057 31.047C25.423 31.182 26.489 32.328 26.489 33.728C26.489 35.219 25.28 36.429 23.788 36.429C22.882 36.429 22.082 35.984 21.591 35.301C21.553 35.246 21.489 35.209 21.417 35.209"/>
   <path stroke-width="0.25" stroke-linejoin="round" d="M26.489 25.588L26.489 33.728"/>
   <path stroke-width="0.25" stroke-linejoin="round" d="M29.109 26.402L68.391 26.402"/>
   <path stroke-width="0.25" stroke-linejoin="round" d="M29.109 32.915L68.391 32.915"/>
   <g>
    <text x="17.614" y="22.352" stroke-width="0.131" stroke-linecap="butt" stroke-miterlimit="1" font-family="'Arial'" font-size="1.764">4</text>
   </g>
   <g>
    <text x="23.143" y="22.352" stroke-width="0.131" stroke-linecap="butt" stroke-miterlimit="1" font-family="'Arial'" font-size="1.764">5</text>
   </g>
   <g>
    <text x="29.353" y="25.879" stroke="none" fill="#000000" font-family="'Arial'" font-size="1.411">24</text>
   </g>
   <g>
    <text x="31.431" y="25.879" stroke="none" fill="#000000" font-family="'Arial'" font-size="1.411">23</text>
   </g>
   <g>
    <text x="33.475" y="25.879" stroke="none" fill="#000000" font-family="'Arial'" font-size="1.411">22</text>
   </g>
   <g>
    <text x="35.597" y="25.879" stroke="none" fill="#000000" font-family="'Arial'" font-size="1.411">21</text>
   </g>
   <g>
    <text x="37.651" y="25.879" stroke="none" fill="#000000" font-family="'Arial'" font-size="1.411">20</text>
   </g>
   <g>
    <text x="39.692" y="25.879" stroke="none" fill="#000000" font-family="'Arial'" font-size="1.411">19</text>
   </g>
   <g>
    <text x="41.756" y="25.879" stroke="none" fill="#000000" font-family="'Arial'" font-size="1.411">18</text>
   </g>
   <g>
    <text x="43.834" y="25.879" stroke="none" fill="#000000" font-family="'Arial'" font-size="1.411">17</text>
   </g>
   <g>
    <text x="45.878" y="25.879" stroke="none" fill="#000000" font-family="'Arial'" font-size="1.411">16</text>
   </g>
   <g>
    <text x="48" y="25.879" stroke="none" fill="#000000" font-family="'Arial'" font-size="1.411">15</text>
   </g>
   <g>
    <text x="50.055" y="25.879" stroke="none" fill="#000000" font-family="'Arial'" font-size="1.411">14</text>
   </g>
   <g>
    <text x="52.097" y="25.879" stroke="none" fill="#000000" font-family="'Arial'" font-size="1.411">13</text>
   </g>
   <g>
    <text x="54.198" y="25.879" stroke="none" fill="#000000" font-family="'Arial'" font-size="1.411">12</text>
   </g>
   <g>
    <text x="56.277" y="25.879" stroke="none" fill="#000000" font-family="'Arial'" font-size="1.411">11</text>
   </g>
   <g>
    <text x="58.32" y="25.879" stroke="none" fill="#000000" font-family="'Arial'" font-size="1.411">10</text>
   </g>
   <g>
    <text x="60.707" y="25.879" stroke="none" fill="#000000" font-family="'Arial'" font-size="1.411">9</text>
   </g>
   <g>
    <text x="62.762" y="25.879" stroke="none" fill="#000000" font-family="'Arial'" font-size="1.411">8</text>
   </g>
   <g>
    <text x="64.805" y="25.879" stroke="none" fill="#000000" font-family="'Arial'" font-size="1.411">7</text>
   </g>
   <g>
    <text x="66.868" y="25.879" stroke="none" fill="#000000" font-family="'Arial'" font-size="1.411">6</text>
   </g>
   <g>
    <text x="29.353" y="27.996" stroke="none" fill="#000000" font-family="'Arial'" font-size="1.411">43</text>
   </g>
   <g>
    <text x="31.431" y="27.996" stroke="none" fill="#000000" font-family="'Arial'" font-size="1.411">42</text>
   </g>
   <g>
    <text x="33.475" y="27.996" stroke="none" fill="#000000" font-family="'Arial'" font-size="1.411">41</text>
   </g>
   <g>
    <text x="35.597" y="27.996" stroke="none" fill="#000000" font-family="'Arial'" font-size="1.411">40</text>
   </g>
   <g>
    <text x="37.651" y="27.996" stroke="none" fill="#000000" font-family="'Arial'" font-size="1.411">39</text>
   </g>
   <g>
    <text x="39.692" y="27.996" stroke="none" fill="#000000" font-family="'Arial'" font-size="1.411">38</text>
   </g>
   <g>
    <text x="41.756" y="27.996" stroke="none" fill="#000000" font-family="'Arial'" font-size="1.411">37</text>
   </g>
   <g>
    <text x="43.834" y="27.996" stroke="none" fill="#000000" font-family="'Arial'" font-size="1.411">36</text>
   </g>
   <g>
    <text x="45.878" y="27.996" stroke="none" fill="#000000" font-family="'Arial'" font-size="1.411">35</text>
   </g>
   <g>
    <text x="48" y="27.996" stroke="none" fill="#000000" font-family="'Arial'" font-size="1.411">34</text>
   </g>
   <g>
    <text x="50.055" y="27.996" stroke="none" fill="#000000" font-family="'Arial'" font-size="1.411">33</text>
   </g>
   <g>
    <text x="52.097" y="27.996" stroke="none" fill="#000000" font-family="'Arial'" font-size="1.411">32</text>
   </g>
   <g>
    <text x="54.198" y="27.996" stroke="none" fill="#000000" font-family="'Arial'" font-size="1.411">31</text>
   </g>
   <g>
    <text x="56.277" y="27.996" stroke="none" fill="#000000" font-family="'Arial'" font-size="1.411">30</text>
   </g>
   <g>
    <text x="58.32" y="27.996" stroke="none" fill="#000000" font-family="'Arial'" font-size="1.411">29</text>
   </g>
   <g>
    <text x="60.435" y="27.996" stroke="none" fill="#000000" font-family="'Arial'" font-size="1.411">28</text>
   </g>
   <g>
    <text x="62.49" y="27.996" stroke="none" fill="#000000" font-family="'Arial'" font-size="1.411">27</text>
   </g>
   <g>
    <text x="64.533" y="27.996" stroke="none" fill="#000000" font-family="'Arial'" font-size="1.411">26</text>
   </g>
   <g>
    <text x="66.596" y="27.996" stroke="none" fill="#000000" font-family="'Arial'" font-size="1.411">25</text>
   </g>
   <g>
    <text x="29.353" y="32.231" stroke="none" fill="#000000" font-family="'Arial'" font-size="1.411">62</text>
   </g>
   <g>
    <text x="31.431" y="32.231" stroke="none" fill="#000000" font-family="'Arial'" font-size="1.411">61</text>
   </g>
   <g>
    <text x="33.475" y="32.231" stroke="none" fill="#000000" font-family="'Arial'" font-size="1.411">60</text>
   </g>
   <g>
    <text x="35.597" y="32.231" stroke="none" fill="#000000" font-family="'Arial'" font-size="1.411">59</text>
   </g>
   <g>
    <text x="37.651" y="32.231" stroke="none" fill="#000000" font-family="'Arial'" font-size="1.411">58</text>
   </g>
   <g>
    <text x="39.692" y="32.231" stroke="none" fill="#000000" font-family="'Arial'" font-size="1.411">57</text>
   </g>
   <g>
    <text x="41.756" y="32.231" stroke="none" fill="#000000" font-family="'Arial'" font-size="1.411">56</text>
   </g>
   <g>
    <text x="43.834" y="32.231" stroke="none" fill="#000000" font-family="'Arial'" font-size="1.411">55</text>
   </g>
   <g>
    <text x="45.878" y="32.231" stroke="none" fill="#000000" font-family="'Arial'" font-size="1.411">54</text>
   </g>
   <g>
    <text x="48" y="32.231" stroke="none" fill="#000000" font-family="'Arial'" font-size="1.411">53</text>
   </g>
   <g>
    <text x="50.055" y="32.231" stroke="none" fill="#000000" font-family="'Arial'" font-size="1.411">52</text>
   </g>
   <g>
    <text x="52.097" y="32.231" stroke="none" fill="#000000" font-family="'Arial'" font-size="1.411">51</text>
   </g>
   <g>
    <text x="54.198" y="32.231" stroke="none" fill="#000000" font-family="'Arial'" font-size="1.411">50</text>
   </g>
   <g>
    <text x="56.277" y="32.231" stroke="none" fill="#000000" font-family="'Arial'" font-size="1.411">49</text>
   </g>
   <g>
    <text x="58.32" y="32.231" stroke="none" fill="#000000" font-family="'Arial'" font-size="1.411">48</text>
   </g>
   <g>
    <text x="60.435" y="32.231" stroke="none" fill="#000000" font-family="'Arial'" font-size="1.411">47</text>
   </g>
   <g>
    <text x="62.49" y="32.231" stroke="none" fill="#000000" font-family="'Arial'" font-size="1.411">46</text>
   </g>
   <g>
    <text x="64.533" y="32.231" stroke="none" fill="#000000" font-family="'Arial'" font-size="1.411">45</text>
   </g>
   <g>
    <text x="66.596" y="32.231" stroke="none" fill="#000000" font-family="'Arial'" font-size="1.411">44</text>
   </g>
   <g>
    <text x="29.353" y="34.524" stroke="none" fill="#000000" font-family="'Arial'" font-size="1.411">81</text>
   </g>
   <g>
    <text x="31.431" y="34.524" stroke="none" fill="#000000" font-family="'Arial'" font-size="1.411">80</text>
   </g>
   <g>
    <text x="33.475" y="34.524" stroke="none" fill="#000000" font-family="'Arial'" font-size="1.411">79</text>
   </g>
   <g>
    <text x="35.597" y="34.524" stroke="none" fill="#000000" font-family="'Arial'" font-size="1.411">78</text>
   </g>
   <g>
    <text x="37.651" y="34.524" stroke="none" fill="#000000" font-family="'Arial'" font-size="1.411">77</text>
   </g>
   <g>
    <text x="39.692" y="34.524" stroke="none" fill="#000000" font-family="'Arial'" font-size="1.411">76</text>
   </g>
   <g>
    <text x="41.756" y="34.524" stroke="none" fill="#000000" font-family="'Arial'" font-size="1.411">75</text>
   </g>
   <g>
    <text x="43.834" y="34.524" stroke="none" fill="#000000" font-family="'Arial'" font-size="1.411">74</text>
   </g>
   <g>
    <text x="45.878" y="34.524" stroke="none" fill="#000000" font-family="'Arial'" font-size="1.411">73</text>
   </g>
   <g>
    <text x="48" y="34.524" stroke="none" fill="#000000" font-family="'Arial'" font-size="1.411">72</text>
   </g>
   <g>
    <text x="50.055" y="34.524" stroke="none" fill="#000000" font-family="'Arial'" font-size="1.411">71</text>
   </g>
   <g>
    <text x="52.097" y="34.524" stroke="none" fill="#000000" font-family="'Arial'" font-size="1.411">70</text>
   </g>
   <g>
    <text x="54.198" y="34.524" stroke="none" fill="#000000" font-family="'Arial'" font-size="1.411">69</text>
   </g>
   <g>
    <text x="56.277" y="34.524" stroke="none" fill="#000000" font-family="'Arial'" font-size="1.411">68</text>
   </g>
   <g>
    <text x="58.32" y="34.524" stroke="none" fill="#000000" font-family="'Arial'" font-size="1.411">67</text>
   </g>
   <g>
    <text x="60.435" y="34.524" stroke="none" fill="#000000" font-family="'Arial'" font-size="1.411">66</text>
   </g>
   <g>
    <text x="62.49" y="34.524" stroke="none" fill="#000000" font-family="'Arial'" font-size="1.411">65</text>
   </g>
   <g>
    <text x="64.533" y="34.524" stroke="none" fill="#000000" font-family="'Arial'" font-size="1.411">64</text>
   </g>
   <g>
    <text x="66.596" y="34.524" stroke="none" fill="#000000" font-family="'Arial'" font-size="1.411">63</text>
   </g>
   <g>
    <text x="20.893" y="30.239" stroke="none" fill="#000000" font-family="'Arial'" font-size="1.411">3</text>
   </g>
   <g>
    <text x="18.582" y="25.827" stroke="none" fill="#000000" font-family="'Arial'" font-size="1.411">4</text>
   </g>
   <g>
    <text x="18.582" y="34.441" stroke="none" fill="#000000" font-family="'Arial'" font-size="1.411">1</text>
   </g>
   <g>
    <text x="23.361" y="25.827" stroke="none" fill="#000000" font-family="'Arial'" font-size="1.411">5</text>
   </g>
   <g>
    <text x="23.361" y="34.441" stroke="none" fill="#000000" font-family="'Arial'" font-size="1.411">2</text>
   </g>
   <g>
    <text x="17.614" y="38.142" stroke-width="0.131" stroke-linecap="butt" stroke-miterlimit="1" font-family="'Arial'" font-size="1.764">1</text>
   </g>
   <g>
    <text x="23.143" y="38.142" stroke-width="0.131" stroke-linecap="butt" stroke-miterlimit="1" font-family="'Arial'" font-size="1.764">2</text>
   </g>
   <g>
    <text x="3.586" y="74.73" stroke="none" fill="#000000" font-family="'Arial'" font-size="5.98">116</text>
   </g>
   <g>
    <text x="19.832" y="74.73" stroke="none" fill="#000000" font-family="'Arial'" font-size="5.98">115</text>
   </g>
   <g>
    <text x="33.289" y="74.73" stroke="none" fill="#000000" font-family="'Arial'" font-size="5.98">114</text>
   </g>
   <g>
    <text x="43.52" y="67.85" stroke="none" fill="#000000" font-family="'Arial'" font-size="5.98">89</text>
   </g>
   <g>
    <text x="54.942" y="67.85" stroke="none" fill="#000000" font-family="'Arial'" font-size="5.98">90</text>
   </g>
   <g>
    <text x="49.253" y="75.346" stroke="none" fill="#000000" font-family="'Arial'" font-size="5.98">97</text>
   </g>
   <g>
    <text x="63.186" y="75.072" stroke="none" fill="#000000" font-family="'Arial'" font-size="5.98">82</text>
   </g>
   <g>
    <path stroke="#FFFFFF" stroke-width="1.002" d="M24.696 102.427L9.194 117.929"/>
    <path stroke="#FFFFFF" stroke-width="1.002" d="M31.108 102.427L24.69 117.921"/>
    <path stroke="#FFFFFF" stroke-width="1.002" d="M37.518 102.427L37.518 117.993"/>
    <path stroke="#FFFFFF" stroke-width="1.002" d="M24.696 91.411L9.194 75.908"/>
    <path stroke="#FFFFFF" stroke-width="1.002" d="M31.108 91.411L24.69 75.915"/>
    <path stroke="#FFFFFF" stroke-width="1.002" d="M46.557 94.15L52.164 76.358"/>
    <path stroke="#FFFFFF" stroke-width="1.002" d="M65.873 94.15L57.808 68.555"/>
    <path stroke="#FFFFFF" stroke-width="1.002" d="M37.518 91.411L37.518 75.843"/>
    <path stroke="#FFFFFF" stroke-width="1.002" d="M46.338 91.411L46.338 69.102"/>
    <path stroke="#FFFFFF" stroke-width="1.002" d="M65.918 91.411L65.918 76.325"/>
    <path stroke="#FFFFFF" stroke-width="1.002" d="M46.557 99.816L52.164 117.608"/>
    <path stroke="#FFFFFF" stroke-width="1.002" d="M65.873 99.816L57.808 125.409"/>
    <path stroke="#FFFFFF" stroke-width="1.002" d="M46.338 102.555L46.338 124.864"/>
    <path stroke="#FFFFFF" stroke-width="1.002" d="M65.918 102.555L65.918 117.641"/>
   </g>
   <g>
    <path stroke-width="0.131" d="M24.696 102.427L9.194 117.93"/>
    <path stroke-width="0.131" d="M31.108 102.427L24.69 117.921"/>
    <path stroke-width="0.131" d="M37.518 102.427L37.518 117.993"/>
    <path stroke-width="0.131" d="M24.696 91.411L9.194 75.908"/>
    <path stroke-width="0.131" d="M31.108 91.411L24.69 75.915"/>
    <path stroke-width="0.131" d="M46.557 94.15L52.164 76.358"/>
    <path stroke-width="0.131" d="M65.873 94.15L57.808 68.555"/>
    <path stroke-width="0.131" d="M37.518 91.411L37.518 75.843"/>
    <path stroke-width="0.131" d="M46.338 91.411L46.338 69.102"/>
    <path stroke-width="0.131" d="M65.918 91.411L65.918 76.325"/>
    <path stroke-width="0.131" d="M46.557 99.816L52.164 117.608"/>
    <path stroke-width="0.131" d="M65.873 99.816L57.808 125.409"/>
    <path stroke-width="0.131" d="M46.338 102.555L46.338 124.864"/>
    <path stroke-width="0.131" d="M65.918 102.555L65.918 117.641"/>
   </g>
   <g>
    <text x="3.586" y="123.147" stroke="none" fill="#000000" font-family="'Arial'" font-size="5.98">121</text>
   </g>
   <g>
    <text x="19.832" y="123.147" stroke="none" fill="#000000" font-family="'Arial'" font-size="5.98">120</text>
   </g>
   <g>
    <text x="33.289" y="123.147" stroke="none" fill="#000000" font-family="'Arial'" font-size="5.98">119</text>
   </g>
   <g>
    <text x="41.658" y="129.987" stroke="none" fill="#000000" font-family="'Arial'" font-size="5.98">113</text>
   </g>
   <g>
    <text x="47.77" y="122.566" stroke="none" fill="#000000" font-family="'Arial'" font-size="5.98">105</text>
   </g>
   <g>
    <text x="61.304" y="122.566" stroke="none" fill="#000000" font-family="'Arial'" font-size="5.98">106</text>
   </g>
   <g>
    <text x="54.682" y="129.987" stroke="none" fill="#000000" font-family="'Arial'" font-size="5.98">98</text>
   </g>
   <g>
    <text x="1.956" y="8.15" stroke="none" fill="#000000" font-family="'Arial'" font-size="5.98">4</text>
   </g>
   <g>
    <text x="11.717" y="8.15" stroke="none" fill="#000000" font-family="'Arial'" font-size="5.98">5</text>
   </g>
   <path stroke="#FFFFFF" stroke-width="1.002" d="M18.908 33.906L3.405 49.408"/>
   <path stroke="#FFFFFF" stroke-width="1.002" d="M23.64 33.906L13.798 49.402"/>
   <path stroke="#FFFFFF" stroke-width="1.002" d="M18.908 24.832L5.168 9.329"/>
   <path stroke="#FFFFFF" stroke-width="1.002" d="M23.64 24.832L13.798 9.336"/>
   <path stroke-width="0.131" d="M18.908 33.906L3.405 49.409"/>
   <path stroke-width="0.131" d="M23.64 33.906L13.798 49.402"/>
   <path stroke-width="0.131" d="M18.908 24.832L5.168 9.329"/>
   <path stroke-width="0.131" d="M23.64 24.832L13.798 9.336"/>
   <g>
    <text x="19.714" y="8.15" stroke="none" fill="#000000" font-family="'Arial'" font-size="5.98">24</text>
   </g>
   <g>
    <text x="70.12" y="8.15" stroke="none" fill="#000000" font-family="'Arial'" font-size="5.98">6</text>
   </g>
   <path stroke="#FFFFFF" stroke-width="1.002" d="M30.028 25.227L23.611 9.336"/>
   <path stroke-width="0.131" d="M30.028 25.227L23.611 9.336"/>
   <g>
    <text x="51.768" y="8.15" stroke="none" fill="#000000" font-family="'Arial'" font-size="5.98">25</text>
   </g>
   <path stroke="#FFFFFF" stroke-width="1.002" d="M67.081 27.341L55.664 9.336"/>
   <path stroke-width="0.131" d="M67.081 27.341L55.664 9.336"/>
   <g>
    <text x="35.505" y="8.15" stroke="none" fill="#000000" font-family="'Arial'" font-size="5.98">43</text>
   </g>
   <path stroke="#FFFFFF" stroke-width="1.002" d="M30.335 27.094L38.311 9.336"/>
   <path stroke-width="0.131" d="M30.335 27.094L38.311 9.336"/>
   <path stroke="#FFFFFF" stroke-width="1.002" d="M67.248 25.285L71.537 9.336"/>
   <path stroke-width="0.131" d="M67.248 25.285L71.537 9.336"/>
   <path stroke="#FFFFFF" stroke-width="1.002" d="M30.028 33.768L23.611 49.658"/>
   <path stroke-width="0.131" d="M30.028 33.768L23.611 49.658"/>
   <path stroke="#FFFFFF" stroke-width="1.002" d="M67.081 31.652L55.664 49.658"/>
   <path stroke-width="0.131" d="M67.081 31.652L55.664 49.658"/>
   <path stroke="#FFFFFF" stroke-width="1.002" d="M30.335 31.9L38.311 49.658"/>
   <path stroke-width="0.131" d="M30.335 31.9L38.311 49.658"/>
   <path stroke="#FFFFFF" stroke-width="1.002" d="M67.248 33.709L70.948 49.658"/>
   <path stroke-width="0.131" d="M67.248 33.709L70.948 49.658"/>
   <g>
    <text x="0.841" y="54.628" stroke="none" fill="#000000" font-family="'Arial'" font-size="5.98">1</text>
   </g>
   <g>
    <text x="11.625" y="54.628" stroke="none" fill="#000000" font-family="'Arial'" font-size="5.98">2</text>
   </g>
   <g>
    <text x="20.208" y="54.628" stroke="none" fill="#000000" font-family="'Arial'" font-size="5.98">81</text>
   </g>
   <g>
    <text x="35.143" y="54.628" stroke="none" fill="#000000" font-family="'Arial'" font-size="5.98">62</text>
   </g>
   <g>
    <text x="51.723" y="54.628" stroke="none" fill="#000000" font-family="'Arial'" font-size="5.98">44</text>
   </g>
   <g>
    <text x="67.245" y="54.628" stroke="none" fill="#000000" font-family="'Arial'" font-size="5.98">63</text>
   </g>
  </g>
 </g>
</svg>
