<?xml version="1.0" encoding="utf-8"?>
<!DOCTYPE svg PUBLIC "-//W3C//DTD SVG 1.1//EN" "http://www.w3.org/Graphics/SVG/1.1/DTD/svg11.dtd">
<!-- Generator: PTC Arbortext IsoDraw 7.3 -->
<svg width="100%" height="100%" viewBox="0 0 75 46.618"
 xmlns="http://www.w3.org/2000/svg" xmlns:xlink="http://www.w3.org/1999/xlink"
 fill-rule="evenodd" clip-rule="evenodd" stroke="#000000" stroke-linecap="round" fill="none" xml:space="preserve">
 <g id="Frame">
  <path stroke="none" fill="#FFFFFF" d="M75 46.618L0 46.618 0 0 75 0 75 46.618z"/>
 </g>
 <g id="Colour">
 </g>
 <g id="Standard_x0020_layer">
  <g>
   <g>
    <path stroke="none" fill="#BFBFBF" d="M1.722 21.362L1.406 19.464C1.406 19.464 0.899 17.312 1.342 16.617 1.785 15.92 1.911 15.605 1.911 15.605L2.228 15.288C2.228 15.288 4.253 13.58 4.253 13.516 4.253 13.452 4.442 12.82 4.442 12.82 4.442 12.82 5.266 12.377 5.203 12.377 5.139 12.377 6.089 12.377 6.089 12.377L6.468 12.503C6.468 12.503 12.986 6.998 13.176 7.062 13.365 7.125 15.644 7.631 15.58 7.82 15.518 8.01 15.707 8.391 15.58 8.516 15.454 8.644 14.884 9.022 14.884 9.15 14.884 9.276 39.438 20.097 39.438 20.097 39.438 20.097 40.451 19.085 40.451 19.274 40.451 19.464 41.59 19.718 41.59 19.844 41.59 19.971 41.78 20.667 41.78 20.667L41.652 20.984C41.652 20.984 55.131 26.425 55.131 26.615 55.131 26.806 55.512 27.184 55.575 27.121 55.637 27.059 56.46 25.983 56.334 26.109 56.207 26.236 59.244 27.312 59.182 27.375 59.118 27.439 59.499 28.198 59.435 28.26 59.371 28.324 57.6 30.981 57.6 30.981 57.6 30.981 58.17 33.134 58.295 33.197 58.423 33.259 59.118 33.259 59.118 33.259 59.118 33.259 59.118 34.146 59.118 34.21 59.118 34.273 59.942 37.564 59.942 37.564L56.966 41.804 54.878 41.106C54.878 41.106 55.069 42.753 55.006 42.878 54.942 43.006 54.625 43.954 54.372 43.954 54.119 43.954 50.829 42.372 50.829 42.372L48.74 44.524C48.74 44.524 46.462 44.145 46.399 44.145 46.335 44.145 45.893 44.335 45.703 44.335 45.512 44.335 44.88 43.322 44.817 43.322 44.753 43.322 37.286 39.271 37.286 39.462 37.286 39.652 36.527 39.841 36.401 39.841 36.274 39.841 35.387 38.639 35.387 38.639L31.4 36.868C31.4 36.868 30.262 34.463 30.199 34.463 30.135 34.463 29.756 33.576 29.756 33.576 29.756 33.576 28.932 33.829 28.87 33.829 28.806 33.829 27.794 34.02 27.731 34.082 27.667 34.146 25.643 34.02 25.643 34.02 25.643 34.02 19.44 30.539 19.44 30.603 19.44 30.666 18.681 30.728 18.554 30.792 18.428 30.856 18.111 30.666 17.986 30.666 17.859 30.666 17.478 30.033 17.478 30.033 17.478 30.033 9.568 25.73 9.506 25.792 9.442 25.856 8.81 26.172 8.746 26.172 8.682 26.172 7.987 26.172 7.987 26.172L7.734 25.224C7.734 25.224 4.379 23.768 4.317 23.768 4.253 23.768 2.734 22.629 2.734 22.692"/>
   </g>
   <line stroke-width="0.3" x1="14.547" y1="9.191" x2="39.451" y2="19.942"/>
   <line stroke-width="0.3" x1="40.871" y1="20.553" x2="55.118" y2="26.704"/>
   <line stroke-width="0.3" x1="14.803" y1="9.32" x2="15.637" y2="8.486"/>
   <line stroke-width="0.3" x1="15.637" y1="8.486" x2="15.637" y2="8.101"/>
   <line stroke-width="0.3" x1="15.637" y1="8.037" x2="13.135" y2="7.075"/>
   <line stroke-width="0.3" x1="13.135" y1="7.075" x2="6.596" y2="12.397"/>
   <path stroke-width="0.3" d="M6.596 12.397C5.312 11.884 4.286 12.525 4.222 13.23"/>
   <path stroke-width="0.3" d="M4.286 13.294C4.286 13.294 2.299 15.089 1.915 15.474C1.53 15.859 1.338 16.373 1.338 16.949C1.338 17.527 1.465 20.219 1.593 20.925C1.722 21.631 2.812 22.849 3.967 23.425C5.121 24.003 7.814 25.157 7.814 25.157C7.814 25.157 7.493 25.542 7.878 25.926C8.262 26.31 9.032 25.926 9.288 25.861C9.544 25.798 17.431 29.838 17.431 29.838C17.431 29.838 17.367 30.094 17.623 30.414C17.881 30.736 18.585 30.8 18.971 30.67C19.356 30.542 19.484 30.542 19.484 30.542C19.484 30.542 23.78 33.171 24.742 33.621C25.704 34.07 26.6 34.07 27.434 34.006C28.268 33.942 29.23 33.877 29.55 33.299"/>
   <path stroke-width="0.3" d="M2.107 17.591C2.107 16.565 2.427 16.051 3.645 16.565C4.865 17.077 24.036 25.926 24.484 26.182C24.934 26.44 25.574 26.44 26.216 26.44C26.858 26.44 27.306 26.31 27.818 26.76C28.332 27.208 28.974 27.464 28.974 28.234C28.974 29.004 28.852 32.093 28.852 32.093"/>
   <path stroke-width="0.13" d="M28.844 32.082C28.588 32.466 28.524 32.851 28.012 33.043C27.498 33.235 26.536 33.557 25.704 33.299C24.87 33.043 23.716 32.338 23.716 32.338"/>
   <line stroke-width="0.13" x1="23.652" y1="32.402" x2="3.71" y2="21.887"/>
   <path stroke-width="0.13" d="M3.645 21.887C2.749 21.245 2.427 21.309 2.299 20.347C2.172 19.385 2.172 17.719 2.172 17.719"/>
   <line stroke-width="0.13" x1="5.57" y1="20.091" x2="28.332" y2="31.184"/>
   <path stroke-width="0.13" d="M1.979 15.346C2.427 15.089 3.645 15.602 4.286 15.923C4.929 16.243 24.484 25.414 24.548 25.478C24.612 25.542 25.768 25.734 26.536 25.798C27.306 25.861 28.076 25.606 28.396 26.182"/>
   <path stroke-width="0.13" d="M7.365 17.335C7.365 17.269 7.365 16.565 7.365 16.565C7.365 16.565 7.686 16.309 8.07 16.309C8.455 16.309 8.839 16.243 8.903 16.629C8.968 17.013 8.968 17.013 8.968 17.013"/>
   <path stroke-width="0.13" d="M17.551 22.126C17.551 22.062 17.551 21.356 17.551 21.356C17.551 21.356 17.871 21.1 18.257 21.1C18.641 21.1 19.025 21.036 19.089 21.42C19.155 21.804 19.155 21.804 19.155 21.804"/>
   <line stroke-width="0.13" x1="10.298" y1="9.516" x2="54.591" y2="28.724"/>
   <line stroke-width="0.13" x1="24.278" y1="16.152" x2="21.611" y2="18.768"/>
   <line stroke-width="0.13" x1="25.411" y1="16.554" x2="22.745" y2="19.17"/>
   <line stroke-width="0.13" x1="13.524" y1="11.473" x2="10.856" y2="14.089"/>
   <line stroke-width="0.13" x1="14.656" y1="11.875" x2="11.989" y2="14.492"/>
   <line stroke-width="0.13" x1="6.955" y1="12.48" x2="29.707" y2="22.646"/>
   <g>
    <path stroke-width="0.13" d="M13.278 8.747C13.26 8.541 13.01 8.394 12.72 8.419C12.429 8.442 12.208 8.63 12.224 8.836C12.242 9.041 12.492 9.188 12.782 9.163C13.073 9.14 13.295 8.952 13.278 8.747"/>
   </g>
   <path stroke-width="0.3" d="M54.915 26.635C55.448 26.902 55.563 27.243 55.829 26.826C56.094 26.407 56.057 25.836 56.399 26.103C56.741 26.368 59.061 27.167 59.061 27.243C59.061 27.32 59.289 28.195 59.252 28.271C59.213 28.347 57.616 30.78 57.616 30.78"/>
   <path stroke-width="0.3" d="M39.512 19.902L40.195 19.37C40.195 19.37 40.424 19.179 40.918 19.408C41.412 19.637 41.642 19.751 41.642 19.826C41.642 19.902 41.793 20.55 41.793 20.55C41.793 20.55 41.603 20.777 41.603 20.815"/>
   <line stroke-width="0.13" x1="41.49" y1="19.826" x2="40.843" y2="20.588"/>
   <g>
    <path stroke-width="0.13" d="M40.271 20.777C40.258 20.539 39.972 20.364 39.637 20.385C39.301 20.407 39.039 20.615 39.054 20.853C39.07 21.091 39.354 21.266 39.691 21.245C40.027 21.225 40.286 21.015 40.271 20.777"/>
   </g>
   <g>
    <path stroke-width="0.13" d="M57.503 28.233C57.518 27.92 57.171 27.65 56.731 27.629C56.289 27.609 55.92 27.844 55.905 28.157C55.89 28.469 56.235 28.739 56.676 28.76C57.118 28.78 57.487 28.545 57.503 28.233"/>
   </g>
   <line stroke-width="0.13" x1="58.834" y1="27.548" x2="54.573" y2="33.671"/>
   <path stroke-width="0.13" d="M57.084 29.373C56.246 29.222 55.753 29.07 55.524 29.716"/>
   <path stroke-width="0.13" d="M45.834 35.139C45.834 35.075 45.834 34.368 45.834 34.368C45.834 34.368 46.154 34.112 46.539 34.112C46.923 34.112 47.308 34.048 47.372 34.432C47.436 34.817 47.436 34.817 47.436 34.817"/>
   <path stroke-width="0.13" d="M36.283 30.402C36.283 30.338 36.283 29.632 36.283 29.632C36.283 29.632 36.604 29.376 36.988 29.376C37.374 29.376 37.759 29.312 37.823 29.696C37.887 30.082 37.887 30.082 37.887 30.082"/>
   <path stroke-width="0.3" d="M30.597 29.618C30.693 28.646 30.839 28.015 31.472 28.548C32.103 29.083 32.59 29.521 32.881 29.716C33.173 29.91 47.076 36.18 47.804 36.57C48.533 36.959 49.457 37.591 49.506 38.902C49.554 40.216 49.165 42.743 49.116 43.034C49.069 43.326 48.484 43.716 48.484 43.716"/>
   <path stroke-width="0.3" d="M35.686 21.426C35.686 21.426 30.87 27.129 30.649 27.501C30.425 27.87 29.945 27.981 29.833 30.24C29.722 32.5 29.463 33.314 29.797 33.908C30.129 34.5 31.167 36.537 31.388 36.722C31.611 36.908 34.612 38.24 35.204 38.612C35.796 38.981 35.575 39.204 36.093 39.5C36.612 39.796 36.981 39.722 37.167 39.612C37.351 39.5 37.575 39.575 37.575 39.575C37.575 39.575 44.314 42.834 44.426 42.908C44.537 42.981 44.686 43.018 44.834 43.426C44.981 43.834 45.204 44.277 45.722 44.204C46.24 44.13 46.314 43.945 46.389 43.981C46.463 44.018 46.834 44.24 47.389 44.39C47.945 44.537 48.5 44.871 49.389 43.759C50.277 42.649 50.686 42.204 50.686 42.204C50.686 42.204 53.834 43.649 53.981 43.686C54.13 43.722 54.24 43.871 54.537 43.537C54.834 43.204 55.018 42.871 54.981 42.796C54.945 42.722 54.426 36.686 54.426 36.686"/>
   <path stroke-width="0.13" d="M50.686 42.093C51.686 40.908 52.463 39.981 52.575 39.796C52.686 39.612 53.314 38.055 53.314 37.796"/>
   <path stroke-width="0.3" d="M56.981 30.426C57.13 30.463 57.389 30.315 57.5 30.649C57.612 30.981 58.277 33.24 58.314 33.277C58.351 33.314 58.796 32.908 58.908 33.39C59.018 33.871 59.018 34.353 58.981 34.463C58.945 34.575 59.945 37.537 59.945 37.537C59.945 37.537 59.649 38.316 59.314 38.759C58.981 39.204 57.093 41.686 57.055 41.686C57.018 41.686 56.759 41.908 56.314 41.686C55.871 41.463 54.834 41.055 54.834 41.055"/>
   <line stroke-width="0.13" x1="54.575" y1="34.796" x2="56.686" y2="41.353"/>
   <line stroke-width="0.13" x1="54.463" y1="30.426" x2="52.5" y2="32.871"/>
   <path stroke-width="0.13" d="M52.5 32.796C52.981 32.908 53.426 33.277 53.537 33.463"/>
   <line stroke-width="0.13" x1="34.204" y1="24.722" x2="51.314" y2="32.353"/>
   <line stroke-width="0.13" x1="41.719" y1="23.701" x2="39.052" y2="26.318"/>
   <line stroke-width="0.13" x1="42.851" y1="24.103" x2="40.185" y2="26.721"/>
   <line stroke-width="0.13" x1="50.954" y1="27.871" x2="48.287" y2="30.487"/>
   <line stroke-width="0.13" x1="52.087" y1="28.274" x2="49.42" y2="30.89"/>
   <line stroke-width="0.13" x1="30.21" y1="24.327" x2="31.568" y2="24.855"/>
   <line stroke-width="0.13" x1="31.568" y1="24.855" x2="31.568" y2="25.736"/>
   <line stroke-width="0.13" x1="31.166" y1="25.08" x2="30.158" y2="26.062"/>
   <line stroke-width="0.13" x1="30.158" y1="26.038" x2="29.489" y2="25.65"/>
   <line stroke-width="0.3" x1="18.207" y1="1.304" x2="6.129" y2="12.173"/>
   <line stroke-width="0.3" x1="18.106" y1="1.102" x2="74.066" y2="24.754"/>
   <line stroke-width="0.3" x1="74.057" y1="24.751" x2="73.965" y2="26.464"/>
   <line stroke-width="0.3" x1="73.965" y1="26.464" x2="59.573" y2="45.89"/>
   <line stroke-width="0.3" x1="59.573" y1="45.89" x2="54.439" y2="43.676"/>
   <line stroke-width="0.13" x1="73.924" y1="25.396" x2="59.649" y2="44.991"/>
   <line stroke-width="0.13" x1="59.497" y1="45.058" x2="55.027" y2="43.104"/>
   <path stroke-width="0.13" d="M30.414 31.527C30.414 32.906 30.548 33.485 30.815 34.064C31.082 34.643 31.705 35.712 31.75 35.801C31.795 35.89 34.421 37.359 36.158 38.206C37.895 39.051 46.087 42.746 46.755 43.103C47.423 43.46 48.268 43.859 48.447 43.726"/>
   <line stroke-width="0.13" x1="32.685" y1="32.728" x2="48.981" y2="40.209"/>
   <line stroke-width="0.13" x1="32.774" y1="31.972" x2="34.198" y2="30.681"/>
   <path stroke-width="0.13" d="M49.841 43.212C50.051 42.402 50.286 40.651 50.313 40.101C50.338 39.554 50.469 38.246 50.13 37.646C49.789 37.045 49.423 36.679 49.398 36.679"/>
   <g>
    <path stroke-width="0.13" d="M60.375 42.542C60.368 41.996 59.734 41.563 58.963 41.573C58.191 41.585 57.57 42.037 57.579 42.584C57.587 43.13 58.219 43.563 58.991 43.551C59.764 43.539 60.384 43.088 60.375 42.542"/>
   </g>
   <g>
    <path stroke-width="0.13" d="M59.561 42.542C59.561 42.402 59.466 42.277 59.319 42.198"/>
    <path stroke-width="0.13" d="M58.606 42.192C58.441 42.276 58.351 42.406 58.35 42.542C58.35 42.777 58.621 42.969 58.957 42.969C59.29 42.969 59.561 42.777 59.561 42.542"/>
   </g>
   <g>
    <path stroke-width="0.13" d="M66.072 34.34C66.064 33.793 65.432 33.36 64.659 33.372C63.887 33.384 63.268 33.835 63.277 34.381C63.284 34.927 63.917 35.362 64.689 35.35C65.462 35.338 66.081 34.886 66.072 34.34"/>
   </g>
   <g>
    <path stroke-width="0.13" d="M65.259 34.34C65.259 34.201 65.164 34.076 65.016 33.996"/>
    <path stroke-width="0.13" d="M64.305 33.99C64.138 34.073 64.049 34.204 64.049 34.34C64.049 34.576 64.319 34.768 64.653 34.768C64.987 34.768 65.259 34.576 65.259 34.34"/>
   </g>
   <g>
    <path stroke-width="0.13" d="M72.834 25.24C72.826 24.695 72.194 24.262 71.421 24.274C70.65 24.285 70.03 24.736 70.037 25.283C70.046 25.829 70.679 26.262 71.45 26.251C72.224 26.239 72.843 25.786 72.834 25.24"/>
   </g>
   <g>
    <path stroke-width="0.13" d="M72.021 25.24C72.021 25.1 71.926 24.977 71.778 24.897"/>
    <path stroke-width="0.13" d="M71.066 24.891C70.9 24.975 70.811 25.106 70.81 25.24C70.81 25.478 71.081 25.669 71.415 25.669C71.75 25.669 72.021 25.478 72.021 25.24"/>
   </g>
   <g>
    <path stroke-width="0.13" d="M45.295 13.179C45.287 12.702 44.734 12.323 44.058 12.333C43.384 12.343 42.841 12.739 42.848 13.215C42.856 13.693 43.409 14.073 44.085 14.063C44.761 14.053 45.301 13.657 45.295 13.179"/>
   </g>
   <g>
    <path stroke-width="0.13" d="M44.582 13.179C44.582 13.057 44.5 12.948 44.371 12.88"/>
    <path stroke-width="0.13" d="M43.747 12.874C43.603 12.946 43.524 13.061 43.524 13.179C43.524 13.387 43.762 13.554 44.054 13.554C44.345 13.554 44.582 13.387 44.582 13.179"/>
   </g>
   <g>
    <path stroke-width="0.13" d="M19.835 2.668C19.827 2.189 19.274 1.811 18.599 1.821C17.923 1.831 17.382 2.226 17.388 2.703C17.396 3.181 17.949 3.561 18.625 3.551C19.3 3.54 19.841 3.145 19.835 2.668"/>
   </g>
   <g>
    <path stroke-width="0.13" d="M19.123 2.668C19.123 2.544 19.039 2.436 18.911 2.367"/>
    <path stroke-width="0.13" d="M18.288 2.362C18.143 2.435 18.065 2.549 18.064 2.668C18.064 2.875 18.3 3.041 18.594 3.041C18.885 3.041 19.123 2.875 19.123 2.668"/>
   </g>
   <line stroke-width="0.13" x1="21.614" y1="11.967" x2="26.763" y2="6.899"/>
   <line stroke-width="0.13" x1="26.763" y1="6.899" x2="46.451" y2="15.23"/>
   <line stroke-width="0.13" x1="24.332" y1="9.534" x2="43.743" y2="17.859"/>
   <line stroke-width="0.13" x1="20.682" y1="7.06" x2="18.21" y2="9.412"/>
   <line stroke-width="0.13" x1="18.21" y1="9.412" x2="21.452" y2="10.912"/>
   <line stroke-width="0.13" x1="21.452" y1="10.912" x2="24.007" y2="8.439"/>
   <line stroke-width="0.13" x1="46.451" y1="15.179" x2="42.009" y2="20.092"/>
   <line stroke-width="0.13" x1="43.454" y1="21.565" x2="48.5" y2="16.045"/>
   <line stroke-width="0.13" x1="48.552" y1="15.993" x2="57.594" y2="19.908"/>
   <line stroke-width="0.13" x1="57.567" y1="19.882" x2="52.837" y2="25.559"/>
   <line stroke-width="0.13" x1="46.109" y1="18.832" x2="54.912" y2="22.695"/>
   <line stroke-width="0.13" x1="56.936" y1="21.958" x2="54.545" y2="24.981"/>
   <line stroke-width="0.13" x1="54.545" y1="24.981" x2="55.963" y2="25.69"/>
   <line stroke-width="0.13" x1="57.067" y1="21.984" x2="62.85" y2="24.455"/>
   <line stroke-width="0.13" x1="62.85" y1="24.455" x2="60.432" y2="27.609"/>
   <line stroke-width="0.13" x1="60.405" y1="27.609" x2="59.591" y2="27.294"/>
   <line stroke-width="0.13" x1="59.228" y1="33.77" x2="65.033" y2="36.353"/>
   <line stroke-width="0.13" x1="59.27" y1="34.283" x2="65.177" y2="36.969"/>
   <line stroke-width="0.13" x1="65.275" y1="36.353" x2="73.882" y2="24.801"/>
   <g>
    <path stroke-width="0.13" d="M53.134 24.315C53.137 24.245 53.095 24.181 53.027 24.135"/>
    <path stroke-width="0.13" d="M52.569 24.138C52.512 24.178 52.482 24.233 52.479 24.286C52.475 24.414 52.615 24.524 52.796 24.533C52.976 24.541 53.128 24.443 53.134 24.315"/>
   </g>
   <g>
    <path stroke-width="0.13" d="M60.366 26.728C60.369 26.658 60.329 26.594 60.261 26.548"/>
    <path stroke-width="0.13" d="M59.801 26.55C59.744 26.591 59.716 26.643 59.713 26.699C59.707 26.826 59.85 26.936 60.03 26.943C60.21 26.952 60.362 26.856 60.366 26.728"/>
   </g>
   <g>
    <path stroke-width="0.13" d="M57.337 23.103C57.34 23.033 57.298 22.969 57.231 22.923"/>
    <path stroke-width="0.13" d="M56.771 22.925C56.715 22.966 56.686 23.019 56.682 23.074C56.677 23.201 56.819 23.312 57 23.32C57.179 23.327 57.331 23.231 57.337 23.103"/>
   </g>
   <g>
    <path stroke-width="0.13" d="M61.689 25.004C61.692 24.934 61.651 24.87 61.582 24.824"/>
    <path stroke-width="0.13" d="M61.124 24.826C61.067 24.867 61.037 24.92 61.036 24.975C61.03 25.103 61.171 25.213 61.351 25.221C61.533 25.23 61.683 25.132 61.689 25.004"/>
   </g>
   <g>
    <path stroke-width="0.13" d="M58.131 25.83C58.134 25.76 58.093 25.696 58.024 25.65"/>
    <path stroke-width="0.13" d="M57.564 25.652C57.509 25.693 57.478 25.746 57.476 25.8C57.47 25.928 57.612 26.039 57.792 26.047C57.973 26.054 58.125 25.958 58.131 25.83"/>
   </g>
   <g>
    <path stroke-width="0.13" d="M59.445 24.126C59.448 24.056 59.406 23.992 59.338 23.946"/>
    <path stroke-width="0.13" d="M58.878 23.949C58.823 23.989 58.792 24.044 58.79 24.097C58.784 24.225 58.926 24.335 59.106 24.344C59.287 24.352 59.439 24.254 59.445 24.126"/>
   </g>
   <g>
    <path stroke-width="0.13" d="M59.817 25.478C59.82 25.408 59.779 25.343 59.71 25.297"/>
    <path stroke-width="0.13" d="M59.252 25.298C59.195 25.341 59.165 25.393 59.162 25.448C59.156 25.576 59.298 25.686 59.478 25.693C59.659 25.701 59.811 25.606 59.817 25.478"/>
   </g>
   <g>
    <path stroke-width="0.13" d="M57.579 24.58C57.582 24.51 57.542 24.446 57.473 24.399"/>
    <path stroke-width="0.13" d="M57.015 24.402C56.957 24.443 56.929 24.496 56.926 24.55C56.92 24.678 57.061 24.789 57.243 24.797C57.423 24.804 57.573 24.707 57.579 24.58"/>
   </g>
   <g>
    <path stroke-width="0.13" d="M53.901 23.577C53.904 23.507 53.862 23.443 53.795 23.396"/>
    <path stroke-width="0.13" d="M53.335 23.399C53.279 23.44 53.249 23.493 53.246 23.548C53.24 23.675 53.383 23.786 53.563 23.794C53.743 23.801 53.895 23.705 53.901 23.577"/>
   </g>
   <g>
    <path stroke-width="0.13" d="M52.128 23.812C52.131 23.742 52.09 23.676 52.021 23.632"/>
    <path stroke-width="0.13" d="M51.563 23.632C51.506 23.675 51.476 23.728 51.473 23.782C51.469 23.91 51.609 24.019 51.79 24.027C51.97 24.036 52.121 23.94 52.128 23.812"/>
   </g>
   <g>
    <path stroke-width="0.13" d="M52.895 23.074C52.898 23.004 52.856 22.939 52.789 22.893"/>
    <path stroke-width="0.13" d="M52.329 22.894C52.273 22.936 52.243 22.989 52.24 23.044C52.234 23.172 52.377 23.282 52.557 23.289C52.737 23.297 52.889 23.201 52.895 23.074"/>
   </g>
   <g>
    <path stroke-width="0.13" d="M51.009 23.33C51.012 23.26 50.972 23.196 50.904 23.15"/>
    <path stroke-width="0.13" d="M50.445 23.152C50.387 23.193 50.359 23.246 50.356 23.3C50.35 23.428 50.491 23.539 50.673 23.547C50.853 23.556 51.005 23.458 51.009 23.33"/>
   </g>
   <g>
    <path stroke-width="0.13" d="M51.777 22.593C51.78 22.522 51.738 22.457 51.67 22.411"/>
    <path stroke-width="0.13" d="M51.212 22.414C51.155 22.455 51.125 22.509 51.122 22.562C51.118 22.69 51.259 22.8 51.439 22.809C51.619 22.817 51.771 22.719 51.777 22.593"/>
   </g>
   <g>
    <path stroke-width="0.13" d="M50.003 22.826C50.008 22.757 49.966 22.692 49.898 22.646"/>
    <path stroke-width="0.13" d="M49.439 22.647C49.381 22.69 49.353 22.742 49.35 22.797C49.344 22.925 49.487 23.035 49.667 23.042C49.847 23.05 49.999 22.954 50.003 22.826"/>
   </g>
   <g>
    <path stroke-width="0.13" d="M50.771 22.088C50.774 22.018 50.732 21.954 50.664 21.908"/>
    <path stroke-width="0.13" d="M50.206 21.91C50.149 21.951 50.119 22.004 50.116 22.059C50.112 22.185 50.253 22.295 50.433 22.304C50.613 22.312 50.765 22.216 50.771 22.088"/>
   </g>
   <g>
    <path stroke-width="0.13" d="M55.468 21.547C55.47 21.477 55.429 21.411 55.362 21.365"/>
    <path stroke-width="0.13" d="M54.902 21.367C54.845 21.41 54.817 21.463 54.814 21.516C54.808 21.644 54.95 21.754 55.131 21.763C55.31 21.771 55.462 21.675 55.468 21.547"/>
   </g>
   <g>
    <path stroke-width="0.13" d="M56.234 20.809C56.237 20.739 56.197 20.673 56.128 20.628"/>
    <path stroke-width="0.13" d="M55.668 20.629C55.612 20.67 55.582 20.725 55.581 20.778C55.575 20.905 55.716 21.016 55.896 21.024C56.078 21.033 56.228 20.936 56.234 20.809"/>
   </g>
   <g>
    <path stroke-width="0.13" d="M54.462 21.042C54.465 20.972 54.423 20.908 54.356 20.861"/>
    <path stroke-width="0.13" d="M53.896 20.864C53.84 20.905 53.811 20.958 53.807 21.013C53.802 21.14 53.944 21.251 54.125 21.259C54.304 21.266 54.456 21.17 54.462 21.042"/>
   </g>
   <g>
    <path stroke-width="0.13" d="M55.228 20.303C55.231 20.234 55.191 20.17 55.122 20.123"/>
    <path stroke-width="0.13" d="M54.664 20.126C54.606 20.167 54.576 20.221 54.575 20.274C54.569 20.402 54.71 20.512 54.89 20.519C55.072 20.528 55.222 20.431 55.228 20.303"/>
   </g>
   <g>
    <path stroke-width="0.13" d="M53.344 20.562C53.347 20.492 53.305 20.426 53.237 20.381"/>
    <path stroke-width="0.13" d="M52.779 20.382C52.722 20.423 52.692 20.478 52.691 20.532C52.685 20.66 52.826 20.769 53.006 20.777C53.186 20.786 53.338 20.689 53.344 20.562"/>
   </g>
   <g>
    <path stroke-width="0.13" d="M54.11 19.823C54.113 19.753 54.073 19.689 54.005 19.643"/>
    <path stroke-width="0.13" d="M53.545 19.643C53.488 19.686 53.46 19.739 53.457 19.792C53.451 19.92 53.593 20.03 53.774 20.039C53.954 20.047 54.104 19.951 54.11 19.823"/>
   </g>
   <g>
    <path stroke-width="0.13" d="M52.338 20.056C52.341 19.986 52.299 19.923 52.231 19.876"/>
    <path stroke-width="0.13" d="M51.773 19.879C51.716 19.92 51.686 19.974 51.685 20.027C51.679 20.155 51.82 20.265 52 20.274C52.182 20.282 52.332 20.184 52.338 20.056"/>
   </g>
   <g>
    <path stroke-width="0.13" d="M53.104 19.318C53.107 19.248 53.067 19.184 52.999 19.138"/>
    <path stroke-width="0.13" d="M52.539 19.14C52.482 19.181 52.454 19.234 52.451 19.289C52.445 19.417 52.587 19.527 52.768 19.535C52.948 19.542 53.098 19.446 53.104 19.318"/>
   </g>
   <g>
    <path stroke-width="0.13" d="M51.167 19.649C51.17 19.579 51.13 19.513 51.061 19.468"/>
    <path stroke-width="0.13" d="M50.603 19.469C50.545 19.512 50.517 19.565 50.514 19.618C50.509 19.746 50.649 19.856 50.831 19.864C51.011 19.873 51.161 19.775 51.167 19.649"/>
   </g>
   <g>
    <path stroke-width="0.13" d="M51.935 18.91C51.938 18.839 51.896 18.775 51.829 18.73"/>
    <path stroke-width="0.13" d="M51.368 18.731C51.313 18.772 51.283 18.826 51.28 18.881C51.274 19.007 51.417 19.117 51.597 19.126C51.777 19.135 51.929 19.038 51.935 18.91"/>
   </g>
   <g>
    <path stroke-width="0.13" d="M50.161 19.143C50.164 19.074 50.124 19.01 50.055 18.963"/>
    <path stroke-width="0.13" d="M49.597 18.966C49.539 19.007 49.511 19.06 49.508 19.114C49.503 19.242 49.643 19.352 49.825 19.361C50.005 19.368 50.155 19.271 50.161 19.143"/>
   </g>
   <g>
    <path stroke-width="0.13" d="M50.929 18.405C50.932 18.335 50.89 18.271 50.823 18.225"/>
    <path stroke-width="0.13" d="M50.363 18.227C50.307 18.268 50.277 18.321 50.274 18.376C50.268 18.504 50.411 18.614 50.591 18.621C50.771 18.629 50.923 18.533 50.929 18.405"/>
   </g>
   <g>
    <path stroke-width="0.13" d="M49.043 18.663C49.046 18.593 49.006 18.528 48.938 18.483"/>
    <path stroke-width="0.13" d="M48.478 18.484C48.421 18.525 48.393 18.579 48.39 18.634C48.384 18.76 48.526 18.87 48.707 18.879C48.887 18.888 49.037 18.791 49.043 18.663"/>
   </g>
   <g>
    <path stroke-width="0.13" d="M49.811 17.925C49.814 17.855 49.773 17.789 49.704 17.745"/>
    <path stroke-width="0.13" d="M49.246 17.745C49.189 17.788 49.159 17.841 49.156 17.894C49.151 18.022 49.292 18.132 49.473 18.14C49.654 18.149 49.804 18.053 49.811 17.925"/>
   </g>
   <g>
    <path stroke-width="0.13" d="M48.037 18.158C48.042 18.088 48 18.024 47.932 17.978"/>
    <path stroke-width="0.13" d="M47.472 17.98C47.415 18.021 47.387 18.074 47.384 18.129C47.378 18.257 47.521 18.367 47.701 18.375C47.881 18.384 48.033 18.286 48.037 18.158"/>
   </g>
   <g>
    <path stroke-width="0.13" d="M48.804 17.42C48.807 17.35 48.767 17.286 48.698 17.239"/>
    <path stroke-width="0.13" d="M48.24 17.242C48.182 17.283 48.154 17.336 48.151 17.39C48.146 17.518 48.286 17.629 48.468 17.637C48.648 17.644 48.798 17.548 48.804 17.42"/>
   </g>
   <g>
    <path stroke-width="0.13" d="M48.74 22.442C48.744 22.371 48.703 22.307 48.634 22.262"/>
    <path stroke-width="0.13" d="M48.176 22.263C48.118 22.304 48.09 22.359 48.088 22.413C48.082 22.539 48.223 22.649 48.404 22.658C48.585 22.667 48.735 22.57 48.74 22.442"/>
   </g>
   <g>
    <path stroke-width="0.13" d="M49.508 21.704C49.511 21.634 49.469 21.568 49.402 21.522"/>
    <path stroke-width="0.13" d="M48.942 21.524C48.886 21.567 48.856 21.62 48.853 21.673C48.848 21.801 48.99 21.911 49.17 21.92C49.35 21.928 49.502 21.832 49.508 21.704"/>
   </g>
   <g>
    <path stroke-width="0.13" d="M47.735 21.937C47.738 21.867 47.698 21.803 47.63 21.757"/>
    <path stroke-width="0.13" d="M47.17 21.759C47.113 21.8 47.084 21.853 47.082 21.908C47.076 22.036 47.218 22.146 47.398 22.153C47.579 22.163 47.729 22.065 47.735 21.937"/>
   </g>
   <g>
    <path stroke-width="0.13" d="M48.502 21.199C48.505 21.129 48.463 21.065 48.396 21.018"/>
    <path stroke-width="0.13" d="M47.936 21.021C47.88 21.062 47.85 21.115 47.848 21.17C47.843 21.297 47.984 21.408 48.164 21.416C48.344 21.423 48.496 21.327 48.502 21.199"/>
   </g>
   <g>
    <path stroke-width="0.13" d="M46.618 21.457C46.621 21.387 46.579 21.321 46.512 21.275"/>
    <path stroke-width="0.13" d="M46.052 21.277C45.996 21.32 45.966 21.373 45.963 21.426C45.957 21.554 46.1 21.664 46.28 21.673C46.46 21.681 46.612 21.585 46.618 21.457"/>
   </g>
   <g>
    <path stroke-width="0.13" d="M47.384 20.719C47.387 20.649 47.345 20.583 47.277 20.538"/>
    <path stroke-width="0.13" d="M46.819 20.539C46.762 20.58 46.732 20.635 46.731 20.689C46.725 20.815 46.865 20.926 47.046 20.934C47.226 20.943 47.378 20.846 47.384 20.719"/>
   </g>
   <g>
    <path stroke-width="0.13" d="M45.612 20.952C45.615 20.882 45.573 20.818 45.506 20.771"/>
    <path stroke-width="0.13" d="M45.046 20.774C44.99 20.815 44.96 20.868 44.957 20.923C44.951 21.05 45.094 21.161 45.274 21.169C45.454 21.176 45.606 21.079 45.612 20.952"/>
   </g>
   <g>
    <path stroke-width="0.13" d="M46.378 20.213C46.381 20.143 46.34 20.079 46.271 20.033"/>
    <path stroke-width="0.13" d="M45.813 20.036C45.756 20.077 45.726 20.131 45.725 20.184C45.719 20.312 45.86 20.422 46.04 20.431C46.222 20.439 46.372 20.341 46.378 20.213"/>
   </g>
   <g>
    <path stroke-width="0.13" d="M42.223 19.393C42.226 19.324 42.185 19.259 42.118 19.213"/>
    <path stroke-width="0.13" d="M41.658 19.214C41.601 19.257 41.572 19.309 41.57 19.364C41.564 19.492 41.706 19.602 41.886 19.609C42.067 19.617 42.218 19.521 42.223 19.393"/>
   </g>
   <g>
    <path stroke-width="0.13" d="M42.99 18.655C42.993 18.585 42.951 18.521 42.884 18.475"/>
    <path stroke-width="0.13" d="M42.424 18.477C42.368 18.518 42.338 18.571 42.337 18.626C42.331 18.753 42.472 18.862 42.652 18.871C42.834 18.879 42.984 18.783 42.99 18.655"/>
   </g>
   <g>
    <path stroke-width="0.13" d="M41.218 18.888C41.22 18.818 41.179 18.754 41.112 18.708"/>
    <path stroke-width="0.13" d="M40.652 18.71C40.595 18.751 40.567 18.806 40.564 18.859C40.557 18.986 40.7 19.097 40.881 19.106C41.06 19.114 41.212 19.016 41.218 18.888"/>
   </g>
   <g>
    <path stroke-width="0.13" d="M41.984 18.15C41.987 18.08 41.947 18.015 41.878 17.971"/>
    <path stroke-width="0.13" d="M41.418 17.972C41.362 18.013 41.332 18.067 41.331 18.12C41.325 18.248 41.466 18.359 41.646 18.367C41.828 18.376 41.978 18.278 41.984 18.15"/>
   </g>
   <g>
    <path stroke-width="0.13" d="M40.031 18.492C40.036 18.422 39.994 18.358 39.926 18.312"/>
    <path stroke-width="0.13" d="M39.466 18.314C39.411 18.356 39.381 18.408 39.378 18.463C39.372 18.591 39.515 18.701 39.695 18.708C39.875 18.716 40.027 18.62 40.031 18.492"/>
   </g>
   <g>
    <path stroke-width="0.13" d="M40.798 17.754C40.801 17.684 40.761 17.62 40.692 17.574"/>
    <path stroke-width="0.13" d="M40.234 17.576C40.176 17.617 40.148 17.67 40.145 17.725C40.14 17.852 40.28 17.963 40.462 17.971C40.642 17.978 40.792 17.882 40.798 17.754"/>
   </g>
   <g>
    <path stroke-width="0.13" d="M38.942 18.039C38.945 17.969 38.904 17.905 38.835 17.859"/>
    <path stroke-width="0.13" d="M38.377 17.861C38.32 17.902 38.29 17.955 38.287 18.01C38.283 18.137 38.423 18.246 38.604 18.256C38.784 18.263 38.936 18.167 38.942 18.039"/>
   </g>
   <g>
    <path stroke-width="0.13" d="M39.709 17.3C39.712 17.231 39.67 17.166 39.603 17.12"/>
    <path stroke-width="0.13" d="M39.143 17.121C39.087 17.164 39.057 17.216 39.054 17.271C39.048 17.399 39.191 17.509 39.371 17.516C39.551 17.524 39.703 17.428 39.709 17.3"/>
   </g>
   <g>
    <path stroke-width="0.13" d="M44.557 16.623C44.561 16.553 44.52 16.489 44.451 16.443"/>
    <path stroke-width="0.13" d="M43.993 16.446C43.936 16.486 43.905 16.539 43.904 16.594C43.898 16.722 44.039 16.832 44.219 16.841C44.401 16.849 44.551 16.751 44.557 16.623"/>
   </g>
   <g>
    <path stroke-width="0.13" d="M45.323 15.885C45.328 15.816 45.286 15.75 45.218 15.705"/>
    <path stroke-width="0.13" d="M44.759 15.707C44.701 15.749 44.673 15.801 44.67 15.855C44.664 15.984 44.807 16.094 44.987 16.102C45.167 16.109 45.319 16.013 45.323 15.885"/>
   </g>
   <g>
    <path stroke-width="0.13" d="M43.551 16.12C43.554 16.05 43.514 15.984 43.445 15.939"/>
    <path stroke-width="0.13" d="M42.987 15.941C42.929 15.983 42.901 16.036 42.898 16.089C42.892 16.217 43.033 16.327 43.215 16.335C43.395 16.344 43.545 16.248 43.551 16.12"/>
   </g>
   <g>
    <path stroke-width="0.13" d="M44.317 15.381C44.322 15.311 44.28 15.246 44.213 15.201"/>
    <path stroke-width="0.13" d="M43.753 15.202C43.697 15.243 43.667 15.298 43.664 15.352C43.658 15.478 43.801 15.589 43.981 15.598C44.161 15.605 44.313 15.509 44.317 15.381"/>
   </g>
   <g>
    <path stroke-width="0.13" d="M42.365 15.724C42.369 15.653 42.329 15.589 42.261 15.542"/>
    <path stroke-width="0.13" d="M41.801 15.544C41.744 15.586 41.715 15.64 41.713 15.693C41.707 15.82 41.848 15.931 42.029 15.939C42.21 15.948 42.36 15.85 42.365 15.724"/>
   </g>
   <g>
    <path stroke-width="0.13" d="M43.133 14.984C43.136 14.914 43.094 14.849 43.027 14.804"/>
    <path stroke-width="0.13" d="M42.567 14.806C42.511 14.848 42.481 14.9 42.478 14.955C42.473 15.083 42.615 15.192 42.795 15.201C42.975 15.21 43.127 15.112 43.133 14.984"/>
   </g>
   <g>
    <path stroke-width="0.13" d="M41.276 15.269C41.279 15.199 41.237 15.134 41.17 15.089"/>
    <path stroke-width="0.13" d="M40.71 15.09C40.654 15.132 40.625 15.185 40.621 15.24C40.616 15.368 40.758 15.477 40.939 15.486C41.118 15.493 41.27 15.397 41.276 15.269"/>
   </g>
   <g>
    <path stroke-width="0.13" d="M42.042 14.532C42.045 14.461 42.005 14.397 41.936 14.35"/>
    <path stroke-width="0.13" d="M41.478 14.352C41.42 14.394 41.39 14.448 41.389 14.502C41.383 14.628 41.524 14.74 41.704 14.747C41.886 14.756 42.036 14.659 42.042 14.532"/>
   </g>
   <g>
    <path stroke-width="0.13" d="M40.189 14.811C40.192 14.74 40.152 14.676 40.084 14.63"/>
    <path stroke-width="0.13" d="M39.625 14.631C39.567 14.673 39.539 14.727 39.536 14.781C39.53 14.907 39.671 15.019 39.853 15.026C40.033 15.035 40.183 14.938 40.189 14.811"/>
   </g>
   <g>
    <path stroke-width="0.13" d="M40.957 14.071C40.96 14.002 40.918 13.936 40.85 13.891"/>
    <path stroke-width="0.13" d="M40.392 13.893C40.335 13.935 40.304 13.987 40.302 14.041C40.296 14.169 40.439 14.279 40.618 14.288C40.799 14.297 40.951 14.199 40.957 14.071"/>
   </g>
   <g>
    <path stroke-width="0.13" d="M39.149 14.305C39.154 14.236 39.112 14.172 39.045 14.125"/>
    <path stroke-width="0.13" d="M38.585 14.128C38.527 14.169 38.499 14.223 38.496 14.276C38.49 14.403 38.633 14.513 38.813 14.522C38.993 14.531 39.145 14.433 39.149 14.305"/>
   </g>
   <g>
    <path stroke-width="0.13" d="M39.917 13.567C39.92 13.497 39.878 13.432 39.811 13.387"/>
    <path stroke-width="0.13" d="M39.351 13.388C39.295 13.43 39.265 13.484 39.262 13.538C39.258 13.666 39.399 13.775 39.579 13.784C39.759 13.791 39.911 13.695 39.917 13.567"/>
   </g>
   <g>
    <path stroke-width="0.13" d="M37.999 13.842C38.002 13.772 37.96 13.707 37.893 13.662"/>
    <path stroke-width="0.13" d="M37.433 13.663C37.377 13.705 37.347 13.757 37.344 13.811C37.338 13.939 37.481 14.05 37.661 14.057C37.841 14.067 37.993 13.97 37.999 13.842"/>
   </g>
   <g>
    <path stroke-width="0.13" d="M38.765 13.103C38.768 13.034 38.728 12.968 38.659 12.923"/>
    <path stroke-width="0.13" d="M38.2 12.925C38.143 12.967 38.113 13.019 38.112 13.073C38.106 13.201 38.247 13.311 38.427 13.32C38.609 13.327 38.759 13.23 38.765 13.103"/>
   </g>
   <g>
    <path stroke-width="0.13" d="M36.942 13.371C36.945 13.301 36.904 13.237 36.835 13.191"/>
    <path stroke-width="0.13" d="M36.377 13.192C36.32 13.234 36.29 13.288 36.289 13.342C36.283 13.47 36.423 13.58 36.604 13.587C36.784 13.596 36.936 13.499 36.942 13.371"/>
   </g>
   <g>
    <path stroke-width="0.13" d="M37.709 12.632C37.712 12.563 37.67 12.499 37.603 12.452"/>
    <path stroke-width="0.13" d="M37.143 12.455C37.087 12.496 37.057 12.55 37.054 12.603C37.048 12.73 37.191 12.84 37.371 12.849C37.551 12.858 37.703 12.76 37.709 12.632"/>
   </g>
   <g>
    <path stroke-width="0.13" d="M37.764 17.603C37.767 17.533 37.725 17.469 37.658 17.423"/>
    <path stroke-width="0.13" d="M37.198 17.425C37.142 17.466 37.112 17.519 37.109 17.574C37.103 17.701 37.246 17.812 37.426 17.82C37.606 17.829 37.758 17.731 37.764 17.603"/>
   </g>
   <g>
    <path stroke-width="0.13" d="M38.53 16.865C38.533 16.795 38.491 16.731 38.423 16.684"/>
    <path stroke-width="0.13" d="M37.965 16.687C37.908 16.728 37.878 16.782 37.877 16.835C37.871 16.963 38.012 17.074 38.192 17.082C38.372 17.089 38.524 16.992 38.53 16.865"/>
   </g>
   <g>
    <path stroke-width="0.13" d="M36.723 17.1C36.726 17.03 36.686 16.964 36.618 16.919"/>
    <path stroke-width="0.13" d="M36.158 16.92C36.101 16.963 36.073 17.015 36.07 17.07C36.064 17.198 36.206 17.307 36.387 17.315C36.567 17.324 36.718 17.228 36.723 17.1"/>
   </g>
   <g>
    <path stroke-width="0.13" d="M37.49 16.361C37.493 16.291 37.453 16.227 37.384 16.181"/>
    <path stroke-width="0.13" d="M36.924 16.182C36.868 16.224 36.838 16.277 36.837 16.332C36.831 16.458 36.972 16.57 37.152 16.577C37.334 16.585 37.484 16.489 37.49 16.361"/>
   </g>
   <g>
    <path stroke-width="0.13" d="M35.572 16.635C35.575 16.565 35.533 16.501 35.466 16.454"/>
    <path stroke-width="0.13" d="M35.006 16.457C34.95 16.498 34.92 16.551 34.918 16.606C34.912 16.734 35.054 16.844 35.234 16.852C35.414 16.859 35.566 16.763 35.572 16.635"/>
   </g>
   <g>
    <path stroke-width="0.13" d="M36.338 15.897C36.341 15.827 36.301 15.762 36.232 15.717"/>
    <path stroke-width="0.13" d="M35.774 15.718C35.716 15.759 35.688 15.814 35.685 15.868C35.679 15.994 35.82 16.105 36.002 16.114C36.182 16.121 36.332 16.024 36.338 15.897"/>
   </g>
   <g>
    <path stroke-width="0.13" d="M34.515 16.164C34.518 16.094 34.478 16.03 34.409 15.984"/>
    <path stroke-width="0.13" d="M33.951 15.987C33.893 16.027 33.863 16.08 33.862 16.135C33.856 16.263 33.997 16.373 34.177 16.381C34.359 16.39 34.509 16.292 34.515 16.164"/>
   </g>
   <g>
    <path stroke-width="0.13" d="M35.281 15.426C35.286 15.356 35.243 15.291 35.176 15.246"/>
    <path stroke-width="0.13" d="M34.716 15.247C34.659 15.289 34.631 15.343 34.628 15.397C34.622 15.525 34.764 15.634 34.945 15.643C35.125 15.65 35.276 15.554 35.281 15.426"/>
   </g>
   <g>
    <path stroke-width="0.13" d="M33.156 15.682C33.159 15.612 33.118 15.548 33.051 15.503"/>
    <path stroke-width="0.13" d="M32.591 15.505C32.534 15.545 32.506 15.599 32.503 15.653C32.497 15.781 32.639 15.891 32.82 15.9C33 15.907 33.151 15.811 33.156 15.682"/>
   </g>
   <g>
    <path stroke-width="0.13" d="M33.923 14.945C33.926 14.875 33.886 14.81 33.817 14.763"/>
    <path stroke-width="0.13" d="M33.359 14.766C33.301 14.807 33.271 14.861 33.27 14.914C33.264 15.042 33.405 15.153 33.585 15.16C33.767 15.169 33.917 15.073 33.923 14.945"/>
   </g>
   <g>
    <path stroke-width="0.13" d="M32.151 15.179C32.154 15.108 32.112 15.044 32.045 14.999"/>
    <path stroke-width="0.13" d="M31.585 15C31.528 15.041 31.5 15.095 31.496 15.148C31.492 15.276 31.632 15.387 31.814 15.394C31.993 15.403 32.145 15.307 32.151 15.179"/>
   </g>
   <g>
    <path stroke-width="0.13" d="M32.917 14.441C32.92 14.371 32.88 14.305 32.811 14.259"/>
    <path stroke-width="0.13" d="M32.353 14.262C32.295 14.303 32.265 14.356 32.264 14.41C32.258 14.538 32.399 14.649 32.579 14.657C32.761 14.664 32.911 14.567 32.917 14.441"/>
   </g>
   <g>
    <path stroke-width="0.13" d="M30.966 14.782C30.969 14.712 30.928 14.647 30.859 14.602"/>
    <path stroke-width="0.13" d="M30.4 14.603C30.344 14.644 30.314 14.698 30.312 14.753C30.306 14.88 30.448 14.99 30.628 14.999C30.809 15.006 30.96 14.91 30.966 14.782"/>
   </g>
   <g>
    <path stroke-width="0.13" d="M31.731 14.044C31.736 13.974 31.693 13.909 31.626 13.864"/>
    <path stroke-width="0.13" d="M31.167 13.865C31.109 13.907 31.08 13.96 31.079 14.013C31.073 14.141 31.213 14.252 31.394 14.259C31.574 14.269 31.725 14.172 31.731 14.044"/>
   </g>
   <g>
    <path stroke-width="0.13" d="M29.875 14.329C29.878 14.259 29.836 14.194 29.768 14.147"/>
    <path stroke-width="0.13" d="M29.309 14.15C29.253 14.192 29.224 14.244 29.222 14.298C29.216 14.426 29.358 14.537 29.538 14.544C29.718 14.553 29.87 14.457 29.875 14.329"/>
   </g>
   <g>
    <path stroke-width="0.13" d="M30.641 13.59C30.644 13.521 30.603 13.455 30.536 13.41"/>
    <path stroke-width="0.13" d="M30.077 13.412C30.019 13.452 29.99 13.506 29.987 13.561C29.981 13.688 30.123 13.798 30.304 13.807C30.484 13.814 30.635 13.718 30.641 13.59"/>
   </g>
   <g>
    <path stroke-width="0.13" d="M35.49 12.913C35.493 12.843 35.453 12.778 35.384 12.733"/>
    <path stroke-width="0.13" d="M34.926 12.734C34.868 12.776 34.84 12.83 34.837 12.884C34.832 13.012 34.972 13.121 35.154 13.13C35.334 13.137 35.484 13.041 35.49 12.913"/>
   </g>
   <g>
    <path stroke-width="0.13" d="M36.258 12.176C36.261 12.105 36.219 12.041 36.152 11.994"/>
    <path stroke-width="0.13" d="M35.692 11.996C35.636 12.038 35.606 12.092 35.603 12.146C35.597 12.272 35.74 12.384 35.92 12.391C36.1 12.4 36.252 12.303 36.258 12.176"/>
   </g>
   <g>
    <path stroke-width="0.13" d="M34.484 12.41C34.487 12.339 34.447 12.275 34.378 12.228"/>
    <path stroke-width="0.13" d="M33.92 12.23C33.862 12.272 33.834 12.326 33.831 12.38C33.826 12.507 33.966 12.618 34.148 12.625C34.328 12.634 34.478 12.537 34.484 12.41"/>
   </g>
   <g>
    <path stroke-width="0.13" d="M35.252 11.67C35.255 11.6 35.213 11.537 35.146 11.49"/>
    <path stroke-width="0.13" d="M34.686 11.492C34.63 11.534 34.6 11.586 34.597 11.641C34.591 11.769 34.734 11.878 34.914 11.887C35.094 11.896 35.246 11.798 35.252 11.67"/>
   </g>
   <g>
    <path stroke-width="0.13" d="M33.299 12.012C33.302 11.942 33.262 11.878 33.194 11.833"/>
    <path stroke-width="0.13" d="M32.734 11.833C32.677 11.875 32.648 11.929 32.646 11.983C32.64 12.111 32.781 12.221 32.962 12.228C33.143 12.237 33.293 12.141 33.299 12.012"/>
   </g>
   <g>
    <path stroke-width="0.13" d="M34.066 11.275C34.07 11.205 34.027 11.14 33.96 11.093"/>
    <path stroke-width="0.13" d="M33.5 11.096C33.444 11.137 33.414 11.191 33.412 11.244C33.406 11.372 33.548 11.483 33.728 11.49C33.908 11.499 34.06 11.401 34.066 11.275"/>
   </g>
   <g>
    <path stroke-width="0.13" d="M32.209 11.56C32.213 11.49 32.17 11.425 32.103 11.378"/>
    <path stroke-width="0.13" d="M31.643 11.381C31.586 11.422 31.557 11.475 31.556 11.529C31.55 11.657 31.69 11.768 31.871 11.775C32.051 11.784 32.203 11.686 32.209 11.56"/>
   </g>
   <g>
    <path stroke-width="0.13" d="M32.975 10.82C32.978 10.75 32.938 10.686 32.869 10.641"/>
    <path stroke-width="0.13" d="M32.411 10.641C32.353 10.683 32.325 10.737 32.322 10.791C32.316 10.919 32.457 11.028 32.639 11.037C32.819 11.045 32.969 10.948 32.975 10.82"/>
   </g>
   <g>
    <path stroke-width="0.13" d="M31.123 11.099C31.126 11.029 31.085 10.965 31.018 10.919"/>
    <path stroke-width="0.13" d="M30.557 10.92C30.501 10.962 30.472 11.016 30.469 11.07C30.463 11.198 30.606 11.307 30.786 11.316C30.966 11.324 31.117 11.227 31.123 11.099"/>
   </g>
   <g>
    <path stroke-width="0.13" d="M31.89 10.362C31.893 10.291 31.852 10.227 31.783 10.18"/>
    <path stroke-width="0.13" d="M31.324 10.182C31.268 10.224 31.239 10.278 31.236 10.332C31.231 10.46 31.371 10.57 31.553 10.577C31.733 10.586 31.884 10.489 31.89 10.362"/>
   </g>
   <g>
    <path stroke-width="0.13" d="M30.083 10.596C30.086 10.525 30.045 10.461 29.978 10.414"/>
    <path stroke-width="0.13" d="M29.518 10.416C29.461 10.458 29.431 10.512 29.429 10.566C29.423 10.693 29.565 10.804 29.745 10.811C29.926 10.82 30.077 10.724 30.083 10.596"/>
   </g>
   <g>
    <path stroke-width="0.13" d="M30.85 9.856C30.853 9.787 30.812 9.723 30.743 9.676"/>
    <path stroke-width="0.13" d="M30.285 9.679C30.228 9.72 30.199 9.774 30.196 9.827C30.19 9.955 30.332 10.066 30.513 10.073C30.693 10.082 30.844 9.984 30.85 9.856"/>
   </g>
   <g>
    <path stroke-width="0.13" d="M28.931 10.131C28.934 10.061 28.893 9.996 28.826 9.951"/>
    <path stroke-width="0.13" d="M28.367 9.952C28.309 9.994 28.28 10.048 28.278 10.102C28.272 10.23 28.414 10.339 28.594 10.348C28.774 10.355 28.925 10.259 28.931 10.131"/>
   </g>
   <g>
    <path stroke-width="0.13" d="M29.699 9.393C29.701 9.323 29.661 9.259 29.593 9.212"/>
    <path stroke-width="0.13" d="M29.134 9.214C29.077 9.256 29.047 9.31 29.045 9.364C29.039 9.49 29.181 9.6 29.361 9.609C29.542 9.618 29.693 9.521 29.699 9.393"/>
   </g>
   <g>
    <path stroke-width="0.13" d="M27.876 9.66C27.879 9.59 27.838 9.526 27.769 9.48"/>
    <path stroke-width="0.13" d="M27.309 9.483C27.254 9.524 27.224 9.577 27.222 9.631C27.216 9.759 27.358 9.868 27.538 9.877C27.719 9.885 27.87 9.788 27.876 9.66"/>
   </g>
   <g>
    <path stroke-width="0.13" d="M28.641 8.923C28.644 8.852 28.603 8.788 28.536 8.742"/>
    <path stroke-width="0.13" d="M28.077 8.743C28.019 8.785 27.99 8.839 27.987 8.893C27.983 9.021 28.123 9.131 28.304 9.138C28.484 9.147 28.635 9.05 28.641 8.923"/>
   </g>
   <g>
    <path stroke-width="0.13" d="M28.696 13.894C28.699 13.823 28.658 13.759 28.591 13.712"/>
    <path stroke-width="0.13" d="M28.132 13.714C28.074 13.756 28.045 13.81 28.042 13.864C28.036 13.992 28.178 14.102 28.359 14.109C28.539 14.118 28.69 14.021 28.696 13.894"/>
   </g>
   <g>
    <path stroke-width="0.13" d="M29.463 13.154C29.466 13.085 29.425 13.021 29.358 12.974"/>
    <path stroke-width="0.13" d="M28.897 12.977C28.841 13.018 28.812 13.071 28.809 13.125C28.803 13.253 28.946 13.362 29.126 13.371C29.306 13.38 29.457 13.282 29.463 13.154"/>
   </g>
   <g>
    <path stroke-width="0.13" d="M27.657 13.388C27.66 13.32 27.618 13.255 27.55 13.208"/>
    <path stroke-width="0.13" d="M27.091 13.211C27.035 13.252 27.006 13.305 27.004 13.359C26.998 13.487 27.138 13.598 27.32 13.605C27.5 13.614 27.65 13.516 27.657 13.388"/>
   </g>
   <g>
    <path stroke-width="0.13" d="M28.423 12.65C28.426 12.58 28.385 12.516 28.318 12.471"/>
    <path stroke-width="0.13" d="M27.859 12.471C27.801 12.513 27.771 12.567 27.769 12.621C27.763 12.749 27.905 12.859 28.085 12.867C28.266 12.875 28.417 12.778 28.423 12.65"/>
   </g>
   <g>
    <path stroke-width="0.13" d="M26.506 12.925C26.509 12.855 26.468 12.791 26.399 12.744"/>
    <path stroke-width="0.13" d="M25.94 12.746C25.884 12.788 25.853 12.842 25.852 12.896C25.846 13.022 25.987 13.132 26.167 13.141C26.349 13.15 26.5 13.053 26.506 12.925"/>
   </g>
   <g>
    <path stroke-width="0.13" d="M27.271 12.186C27.274 12.117 27.234 12.051 27.166 12.006"/>
    <path stroke-width="0.13" d="M26.707 12.007C26.649 12.05 26.62 12.102 26.618 12.157C26.612 12.285 26.754 12.394 26.934 12.403C27.114 12.41 27.265 12.314 27.271 12.186"/>
   </g>
   <g>
    <path stroke-width="0.13" d="M25.449 12.455C25.452 12.384 25.411 12.32 25.343 12.274"/>
    <path stroke-width="0.13" d="M24.884 12.275C24.826 12.317 24.798 12.371 24.795 12.425C24.789 12.553 24.931 12.663 25.111 12.67C25.292 12.679 25.443 12.583 25.449 12.455"/>
   </g>
   <g>
    <path stroke-width="0.13" d="M26.216 11.717C26.219 11.647 26.178 11.582 26.109 11.535"/>
    <path stroke-width="0.13" d="M25.649 11.538C25.594 11.579 25.564 11.632 25.562 11.686C25.556 11.814 25.698 11.923 25.878 11.932C26.059 11.941 26.21 11.843 26.216 11.717"/>
   </g>
   <g>
    <path stroke-width="0.13" d="M26.9 9.237C26.903 9.167 26.862 9.102 26.795 9.057"/>
    <path stroke-width="0.13" d="M26.335 9.058C26.278 9.101 26.248 9.153 26.246 9.208C26.24 9.336 26.382 9.445 26.562 9.454C26.743 9.461 26.894 9.365 26.9 9.237"/>
   </g>
   <g>
    <path stroke-width="0.13" d="M27.667 8.5C27.67 8.429 27.629 8.365 27.561 8.319"/>
    <path stroke-width="0.13" d="M27.102 8.32C27.045 8.362 27.015 8.416 27.013 8.47C27.007 8.598 27.149 8.708 27.329 8.715C27.51 8.724 27.661 8.627 27.667 8.5"/>
   </g>
   <g>
    <path stroke-width="0.13" d="M26.012 8.835C26.015 8.765 25.974 8.699 25.905 8.653"/>
    <path stroke-width="0.13" d="M25.446 8.656C25.39 8.696 25.361 8.75 25.358 8.804C25.352 8.932 25.493 9.042 25.675 9.051C25.855 9.058 26.006 8.961 26.012 8.835"/>
   </g>
   <g>
    <path stroke-width="0.13" d="M26.777 8.096C26.782 8.025 26.74 7.961 26.673 7.916"/>
    <path stroke-width="0.13" d="M26.213 7.916C26.157 7.958 26.126 8.012 26.125 8.066C26.118 8.194 26.26 8.304 26.44 8.311C26.621 8.32 26.772 8.224 26.777 8.096"/>
   </g>
   <g>
    <path stroke-width="0.13" d="M24.356 11.964C24.359 11.894 24.318 11.83 24.251 11.784"/>
    <path stroke-width="0.13" d="M23.792 11.785C23.734 11.827 23.704 11.881 23.702 11.935C23.696 12.061 23.838 12.173 24.018 12.18C24.199 12.189 24.35 12.092 24.356 11.964"/>
   </g>
   <g>
    <path stroke-width="0.13" d="M25.123 11.226C25.126 11.156 25.085 11.09 25.016 11.045"/>
    <path stroke-width="0.13" d="M24.557 11.047C24.501 11.089 24.472 11.141 24.469 11.195C24.463 11.323 24.606 11.433 24.786 11.442C24.966 11.451 25.117 11.353 25.123 11.226"/>
   </g>
   <g>
    <path stroke-width="0.13" d="M23.3 11.493C23.303 11.423 23.262 11.359 23.193 11.314"/>
    <path stroke-width="0.13" d="M22.734 11.314C22.678 11.356 22.649 11.41 22.646 11.464C22.64 11.592 22.782 11.702 22.963 11.71C23.143 11.718 23.294 11.621 23.3 11.493"/>
   </g>
   <g>
    <path stroke-width="0.13" d="M24.067 10.756C24.07 10.686 24.028 10.621 23.96 10.574"/>
    <path stroke-width="0.13" d="M23.501 10.577C23.445 10.618 23.414 10.672 23.413 10.725C23.407 10.853 23.548 10.964 23.728 10.971C23.91 10.98 24.06 10.882 24.067 10.756"/>
   </g>
   <g>
    <path stroke-width="0.13" d="M21.763 10.234C21.766 10.164 21.725 10.101 21.657 10.054"/>
    <path stroke-width="0.13" d="M21.198 10.057C21.14 10.098 21.111 10.151 21.109 10.205C21.103 10.333 21.245 10.442 21.425 10.451C21.606 10.46 21.757 10.362 21.763 10.234"/>
   </g>
   <g>
    <path stroke-width="0.13" d="M19.756 9.355C19.759 9.285 19.718 9.221 19.649 9.175"/>
    <path stroke-width="0.13" d="M19.19 9.176C19.134 9.217 19.103 9.271 19.102 9.324C19.096 9.452 19.237 9.563 19.417 9.57C19.599 9.58 19.75 9.483 19.756 9.355"/>
   </g>
   <g>
    <path stroke-width="0.13" d="M23.243 8.865C23.248 8.794 23.207 8.73 23.138 8.685"/>
    <path stroke-width="0.13" d="M22.678 8.686C22.621 8.727 22.593 8.781 22.591 8.835C22.585 8.962 22.727 9.073 22.907 9.08C23.088 9.089 23.239 8.993 23.243 8.865"/>
   </g>
   <g>
    <path stroke-width="0.13" d="M21.236 7.985C21.239 7.915 21.199 7.849 21.131 7.804"/>
    <path stroke-width="0.13" d="M20.67 7.806C20.614 7.847 20.585 7.9 20.582 7.955C20.576 8.083 20.719 8.192 20.899 8.201C21.079 8.208 21.231 8.112 21.236 7.985"/>
   </g>
   <line stroke-width="0.13" x1="20.704" y1="7.033" x2="23.827" y2="8.362"/>
   <g>
    <path stroke-width="0.13" d="M21.495 9.05C21.498 8.98 21.457 8.914 21.388 8.868"/>
    <path stroke-width="0.13" d="M20.929 8.871C20.873 8.913 20.844 8.965 20.841 9.019C20.835 9.147 20.977 9.257 21.158 9.266C21.338 9.274 21.489 9.176 21.495 9.05"/>
   </g>
  </g>
 </g>
</svg>
