<?xml version="1.0" encoding="utf-8"?>
<!DOCTYPE svg PUBLIC "-//W3C//DTD SVG 1.1//EN" "http://www.w3.org/Graphics/SVG/1.1/DTD/svg11.dtd">
<!-- Generator: PTC Arbortext IsoDraw 7.3 -->
<svg id="Standard_x0020_layer" width="100%" height="100%" viewBox="0 0 75 47.57"
 xmlns="http://www.w3.org/2000/svg" xmlns:xlink="http://www.w3.org/1999/xlink"
 fill-rule="evenodd" clip-rule="evenodd" stroke="#000000" stroke-linecap="round" fill="none" xml:space="preserve">
 <path stroke="none" fill="#FFFFFF" d="M75 47.57L75 0 0 0 0 47.57 75 47.57z"/>
 <polyline stroke-width="0.314" stroke-linejoin="round" points="21.766 28.056 21.759 28.106 21.76 28.198 21.774 28.289 21.803 28.376 21.846 28.458 21.899 28.533 21.966 28.597 22.041 28.65 22.123 28.693 22.21 28.721 22.301 28.734 22.393 28.734 22.393 28.734"/>
 <polyline stroke-width="0.314" stroke-linejoin="round" points="29.429 28.731 29.46 28.736 29.551 28.736 29.643 28.721 29.73 28.692 29.812 28.649 29.887 28.594 29.951 28.53 30.006 28.454 30.047 28.371 30.074 28.285 30.088 28.193 30.088 28.102 30.074 28.004"/>
 <polyline stroke-width="0.314" stroke-linejoin="round" points="30.091 18.657 30.091 18.653 30.091 18.561 30.077 18.471 30.047 18.382 30.006 18.3 29.951 18.227 29.885 18.161 29.811 18.108 29.728 18.065 29.64 18.038 29.55 18.024 29.457 18.024 29.416 18.024"/>
 <polyline stroke-width="0.314" stroke-linejoin="round" points="22.414 18.021 22.358 18.013 22.265 18.013 22.175 18.028 22.088 18.057 22.006 18.1 21.931 18.155 21.865 18.219 21.812 18.295 21.771 18.378 21.742 18.464 21.728 18.556 21.728 18.597"/>
 <line stroke-width="0.314" stroke-linejoin="round" x1="21.739" y1="28.152" x2="21.739" y2="18.559"/>
 <line stroke-width="0.314" stroke-linejoin="round" x1="22.387" y1="18.009" x2="23.917" y2="18.009"/>
 <line stroke-width="0.314" stroke-linejoin="round" x1="28.038" y1="18.009" x2="29.553" y2="18.009"/>
 <line stroke-width="0.035" stroke-linejoin="round" x1="23.931" y1="18.009" x2="28.038" y2="18.009"/>
 <line stroke-width="0.159" stroke-linejoin="round" x1="30.091" y1="18.559" x2="30.091" y2="28.152"/>
 <line stroke-width="0.314" stroke-linejoin="round" x1="29.457" y1="28.745" x2="28.492" y2="28.745"/>
 <line stroke-width="0.314" stroke-linejoin="round" x1="26.632" y1="28.745" x2="22.289" y2="28.745"/>
 <line stroke-width="0.035" stroke-linejoin="round" x1="28.492" y1="28.745" x2="26.632" y2="28.745"/>
 <path stroke-width="0.159" stroke-linejoin="round" d="M29.614 23.315C29.614 21.265 27.951 19.602 25.902 19.602C23.852 19.602 22.187 21.265 22.187 23.315C22.187 25.364 23.852 27.027 25.902 27.027C27.951 27.027 29.614 25.364 29.614 23.315z"/>
 <path stroke-width="0.314" stroke-linejoin="round" d="M25.1 29.931C25.193 29.951 25.286 29.963 25.381 29.963C26.062 29.963 26.623 29.422 26.647 28.74"/>
 <path stroke-width="0.314" stroke-linejoin="round" d="M28.599 28.739C28.577 28.82 28.567 28.902 28.567 28.984C28.567 29.507 28.992 29.931 29.515 29.931C29.535 29.931 29.554 29.931 29.574 29.929"/>
 <polyline stroke-width="0.314" stroke-linejoin="round" points="30.367 28.056 30.359 28.106 30.359 28.198 30.375 28.289 30.403 28.376 30.446 28.458 30.5 28.533 30.565 28.597 30.64 28.65 30.724 28.693 30.811 28.721 30.902 28.734 30.993 28.734 30.993 28.734"/>
 <polyline stroke-width="0.314" stroke-linejoin="round" points="38.03 28.731 38.06 28.736 38.152 28.736 38.243 28.721 38.331 28.692 38.412 28.649 38.487 28.594 38.551 28.53 38.606 28.454 38.648 28.371 38.676 28.285 38.689 28.193 38.689 28.102 38.676 28.004"/>
 <polyline stroke-width="0.314" stroke-linejoin="round" points="38.692 18.657 38.692 18.653 38.692 18.561 38.676 18.471 38.648 18.382 38.606 18.3 38.551 18.227 38.485 18.161 38.411 18.108 38.329 18.065 38.24 18.038 38.149 18.024 38.057 18.024 38.015 18.024"/>
 <polyline stroke-width="0.314" stroke-linejoin="round" points="31.015 18.021 30.958 18.013 30.865 18.013 30.774 18.028 30.687 18.057 30.606 18.1 30.53 18.155 30.466 18.219 30.413 18.295 30.371 18.378 30.343 18.464 30.329 18.556 30.329 18.597"/>
 <line stroke-width="0.159" stroke-linejoin="round" x1="30.353" y1="28.152" x2="30.353" y2="18.559"/>
 <g>
  <polyline stroke-width="0.314" stroke-linejoin="round" points="36.307 18.009 38.127 18.009"/>
  <polyline stroke-width="0.035" stroke-linejoin="round" points="38.127 18.009 38.154 18.009"/>
 </g>
 <line stroke-width="0.314" stroke-linejoin="round" x1="30.987" y1="18.009" x2="31.8" y2="18.009"/>
 <line stroke-width="0.035" stroke-linejoin="round" x1="31.814" y1="18.009" x2="36.307" y2="18.009"/>
 <line stroke-width="0.159" stroke-linejoin="round" x1="38.706" y1="18.559" x2="38.706" y2="28.152"/>
 <line stroke-width="0.314" stroke-linejoin="round" x1="38.057" y1="28.745" x2="37.176" y2="28.745"/>
 <line stroke-width="0.314" stroke-linejoin="round" x1="35.191" y1="28.745" x2="30.89" y2="28.745"/>
 <line stroke-width="0.035" stroke-linejoin="round" x1="37.176" y1="28.745" x2="35.191" y2="28.745"/>
 <path stroke-width="0.159" stroke-linejoin="round" d="M38.231 23.315C38.231 21.265 36.567 19.602 34.518 19.602C32.469 19.602 30.806 21.265 30.806 23.315C30.806 25.364 32.469 27.027 34.518 27.027C36.567 27.027 38.231 25.364 38.231 23.315z"/>
 <path stroke-width="0.314" stroke-linejoin="round" d="M33.706 29.931C33.798 29.951 33.892 29.963 33.987 29.963C34.668 29.963 35.228 29.422 35.253 28.74"/>
 <path stroke-width="0.314" stroke-linejoin="round" d="M37.204 28.739C37.182 28.82 37.171 28.902 37.171 28.984C37.171 29.507 37.597 29.931 38.119 29.931C38.14 29.931 38.159 29.931 38.179 29.929"/>
 <polyline stroke-width="0.314" stroke-linejoin="round" points="38.966 28.056 38.96 28.106 38.96 28.198 38.975 28.289 39.003 28.376 39.046 28.458 39.1 28.533 39.167 28.597 39.241 28.65 39.323 28.693 39.411 28.721 39.503 28.734 39.594 28.734 39.594 28.734"/>
 <polyline stroke-width="0.314" stroke-linejoin="round" points="46.645 28.731 46.674 28.736 46.765 28.736 46.857 28.721 46.945 28.692 47.027 28.649 47.101 28.594 47.165 28.53 47.22 28.454 47.262 28.371 47.289 28.285 47.304 28.193 47.304 28.102 47.289 28.004"/>
 <polyline stroke-width="0.314" stroke-linejoin="round" points="47.292 18.657 47.292 18.653 47.292 18.561 47.277 18.471 47.247 18.382 47.207 18.3 47.152 18.227 47.087 18.161 47.012 18.108 46.929 18.065 46.841 18.038 46.75 18.024 46.658 18.024 46.616 18.024"/>
 <polyline stroke-width="0.314" stroke-linejoin="round" points="39.628 18.021 39.573 18.013 39.481 18.013 39.39 18.028 39.301 18.057 39.219 18.1 39.146 18.155 39.081 18.219 39.027 18.295 38.985 18.378 38.957 18.464 38.944 18.556 38.944 18.597"/>
 <line stroke-width="0.159" stroke-linejoin="round" x1="38.954" y1="28.152" x2="38.954" y2="18.559"/>
 <g>
  <polyline stroke-width="0.314" stroke-linejoin="round" points="45.06 18.009 46.645 18.009"/>
  <polyline stroke-width="0.035" stroke-linejoin="round" points="46.645 18.009 46.755 18.009"/>
 </g>
 <line stroke-width="0.314" stroke-linejoin="round" x1="39.601" y1="18.009" x2="40.042" y2="18.009"/>
 <line stroke-width="0.035" stroke-linejoin="round" x1="40.029" y1="18.009" x2="45.06" y2="18.009"/>
 <line stroke-width="0.159" stroke-linejoin="round" x1="47.305" y1="18.559" x2="47.305" y2="28.152"/>
 <line stroke-width="0.314" stroke-linejoin="round" x1="46.671" y1="28.745" x2="45.831" y2="28.745"/>
 <line stroke-width="0.314" stroke-linejoin="round" x1="43.957" y1="28.745" x2="39.505" y2="28.745"/>
 <line stroke-width="0.035" stroke-linejoin="round" x1="45.817" y1="28.745" x2="43.957" y2="28.745"/>
 <path stroke-width="0.159" stroke-linejoin="round" d="M46.832 23.315C46.832 21.265 45.168 19.602 43.118 19.602C41.069 19.602 39.405 21.265 39.405 23.315C39.405 25.364 41.069 27.027 43.118 27.027C45.168 27.027 46.832 25.364 46.832 23.315z"/>
 <path stroke-width="0.314" stroke-linejoin="round" d="M42.31 29.931C42.402 29.951 42.496 29.963 42.591 29.963C43.274 29.963 43.834 29.422 43.857 28.74"/>
 <path stroke-width="0.314" stroke-linejoin="round" d="M45.808 28.739C45.789 28.82 45.777 28.902 45.777 28.984C45.777 29.507 46.203 29.931 46.725 29.931C46.746 29.931 46.765 29.931 46.784 29.929"/>
 <polyline stroke-width="0.314" stroke-linejoin="round" points="47.637 28.056 47.628 28.106 47.63 28.198 47.645 28.289 47.673 28.376 47.716 28.458 47.771 28.533 47.835 28.597 47.911 28.65 47.993 28.693 48.081 28.721 48.171 28.734 48.264 28.734 48.264 28.734"/>
 <polyline stroke-width="0.314" stroke-linejoin="round" points="55.314 28.731 55.344 28.736 55.435 28.736 55.527 28.721 55.615 28.692 55.697 28.649 55.771 28.594 55.835 28.53 55.89 28.454 55.93 28.371 55.959 28.285 55.973 28.193 55.972 28.102 55.959 28.004"/>
 <polyline stroke-width="0.314" stroke-linejoin="round" points="55.962 18.657 55.962 18.653 55.962 18.561 55.947 18.471 55.917 18.382 55.875 18.3 55.82 18.227 55.756 18.161 55.68 18.108 55.598 18.065 55.511 18.038 55.42 18.024 55.328 18.024 55.286 18.024"/>
 <polyline stroke-width="0.314" stroke-linejoin="round" points="48.298 18.021 48.241 18.013 48.149 18.013 48.058 18.028 47.972 18.057 47.89 18.1 47.816 18.155 47.75 18.219 47.697 18.295 47.655 18.378 47.627 18.464 47.612 18.556 47.612 18.597"/>
 <line stroke-width="0.159" stroke-linejoin="round" x1="47.622" y1="28.152" x2="47.622" y2="18.559"/>
 <line stroke-width="0.314" stroke-linejoin="round" x1="48.271" y1="18.009" x2="48.823" y2="18.009"/>
 <line stroke-width="0.314" stroke-linejoin="round" x1="53.825" y1="18.009" x2="55.438" y2="18.009"/>
 <line stroke-width="0.159" stroke-linejoin="round" x1="55.975" y1="18.559" x2="55.975" y2="28.152"/>
 <line stroke-width="0.314" stroke-linejoin="round" x1="55.328" y1="28.745" x2="54.46" y2="28.745"/>
 <line stroke-width="0.314" stroke-linejoin="round" x1="52.53" y1="28.745" x2="48.173" y2="28.745"/>
 <line stroke-width="0.035" stroke-linejoin="round" x1="54.473" y1="28.745" x2="52.53" y2="28.745"/>
 <path stroke-width="0.159" stroke-linejoin="round" d="M55.499 23.315C55.499 21.265 53.835 19.602 51.786 19.602C49.735 19.602 48.073 21.265 48.073 23.315C48.073 25.364 49.735 27.027 51.786 27.027C53.835 27.027 55.499 25.364 55.499 23.315z"/>
 <path stroke-width="0.314" stroke-linejoin="round" d="M50.978 29.931C51.07 29.951 51.164 29.963 51.259 29.963C51.942 29.963 52.5 29.422 52.527 28.74"/>
 <path stroke-width="0.314" stroke-linejoin="round" d="M54.478 28.739C54.457 28.82 54.445 28.902 54.445 28.984C54.445 29.507 54.871 29.931 55.393 29.931C55.414 29.931 55.433 29.931 55.453 29.929"/>
 <polyline stroke-width="0.314" stroke-linejoin="round" points="56.305 28.056 56.298 28.106 56.298 28.198 56.314 28.289 56.343 28.376 56.384 28.458 56.439 28.533 56.506 28.597 56.579 28.65 56.662 28.693 56.75 28.721 56.841 28.734 56.933 28.734 56.933 28.734"/>
 <polyline stroke-width="0.314" stroke-linejoin="round" points="63.969 28.731 64 28.736 64.091 28.736 64.183 28.721 64.269 28.692 64.352 28.649 64.427 28.594 64.492 28.53 64.546 28.454 64.587 28.371 64.614 28.285 64.629 28.193 64.629 28.102 64.614 28.004"/>
 <polyline stroke-width="0.314" stroke-linejoin="round" points="64.631 18.657 64.632 18.653 64.631 18.561 64.617 18.471 64.587 18.382 64.545 18.3 64.49 18.227 64.424 18.161 64.35 18.108 64.268 18.065 64.18 18.038 64.088 18.024 63.996 18.024 63.954 18.024"/>
 <polyline stroke-width="0.314" stroke-linejoin="round" points="56.968 18.021 56.911 18.013 56.82 18.013 56.728 18.028 56.64 18.057 56.558 18.1 56.484 18.155 56.42 18.219 56.365 18.295 56.325 18.378 56.295 18.464 56.283 18.556 56.283 18.597"/>
 <line stroke-width="0.159" stroke-linejoin="round" x1="56.292" y1="28.152" x2="56.292" y2="18.559"/>
 <line stroke-width="0.314" stroke-linejoin="round" x1="62.881" y1="18.009" x2="64.093" y2="18.009"/>
 <g>
  <polyline stroke-width="0.314" stroke-linejoin="round" points="56.941 18.009 57.561 18.009"/>
  <polyline stroke-width="0.035" stroke-linejoin="round" points="57.561 18.009 62.895 18.009"/>
 </g>
 <line stroke-width="0.159" stroke-linejoin="round" x1="64.644" y1="18.559" x2="64.644" y2="28.152"/>
 <line stroke-width="0.314" stroke-linejoin="round" x1="63.996" y1="28.745" x2="63.115" y2="28.745"/>
 <g>
  <polyline stroke-width="0.314" stroke-linejoin="round" points="61.171 28.745 56.871 28.745"/>
  <polyline stroke-width="0.035" stroke-linejoin="round" points="56.871 28.745 56.844 28.745"/>
 </g>
 <line stroke-width="0.035" stroke-linejoin="round" x1="63.115" y1="28.745" x2="61.171" y2="28.745"/>
 <path stroke-width="0.159" stroke-linejoin="round" d="M64.165 23.315C64.165 21.265 62.502 19.602 60.451 19.602C58.402 19.602 56.74 21.265 56.74 23.315C56.74 25.364 58.402 27.027 60.451 27.027C62.502 27.027 64.165 25.364 64.165 23.315z"/>
 <path stroke-width="0.314" stroke-linejoin="round" d="M59.646 29.931C59.738 29.951 59.832 29.963 59.926 29.963C60.609 29.963 61.168 29.422 61.195 28.74"/>
 <path stroke-width="0.314" stroke-linejoin="round" d="M63.143 28.739C63.122 28.82 63.112 28.902 63.112 28.984C63.112 29.507 63.536 29.931 64.061 29.931C64.079 29.931 64.099 29.931 64.12 29.929"/>
 <polyline stroke-width="0.314" stroke-linejoin="round" points="64.906 28.056 64.899 28.106 64.9 28.198 64.915 28.289 64.942 28.376 64.986 28.458 65.04 28.533 65.105 28.597 65.18 28.65 65.263 28.693 65.35 28.721 65.441 28.734 65.534 28.734 65.534 28.734"/>
 <polyline stroke-width="0.314" stroke-linejoin="round" points="72.584 28.731 72.614 28.736 72.706 28.736 72.796 28.721 72.884 28.692 72.965 28.649 73.04 28.594 73.105 28.53 73.159 28.454 73.2 28.371 73.228 28.285 73.242 28.193 73.242 28.102 73.228 28.004"/>
 <polyline stroke-width="0.314" stroke-linejoin="round" points="73.245 18.657 73.245 18.653 73.245 18.561 73.23 18.471 73.201 18.382 73.159 18.3 73.105 18.227 73.039 18.161 72.965 18.108 72.882 18.065 72.795 18.038 72.703 18.024 72.611 18.024 72.569 18.024"/>
 <polyline stroke-width="0.314" stroke-linejoin="round" points="65.567 18.021 65.512 18.013 65.42 18.013 65.328 18.028 65.24 18.057 65.159 18.1 65.084 18.155 65.019 18.219 64.966 18.295 64.924 18.378 64.897 18.464 64.882 18.556 64.882 18.597"/>
 <line stroke-width="0.159" stroke-linejoin="round" x1="64.893" y1="28.152" x2="64.893" y2="18.559"/>
 <line stroke-width="0.314" stroke-linejoin="round" x1="71.605" y1="18.009" x2="72.694" y2="18.009"/>
 <line stroke-width="0.314" stroke-linejoin="round" x1="65.54" y1="18.009" x2="66.615" y2="18.009"/>
 <line stroke-width="0.314" stroke-linejoin="round" x1="73.245" y1="18.559" x2="73.245" y2="28.152"/>
 <g>
  <polyline stroke-width="0.314" stroke-linejoin="round" points="67.415 28.745 65.471 28.745"/>
  <polyline stroke-width="0.035" stroke-linejoin="round" points="65.471 28.745 65.444 28.745"/>
 </g>
 <path stroke="none" fill="#000000" d="M67.433 28.745C67.433 28.736 67.424 28.728 67.415 28.728 67.406 28.728 67.397 28.736 67.397 28.745 67.397 28.754 67.406 28.763 67.415 28.763 67.424 28.763 67.433 28.754 67.433 28.745 67.433 28.745 67.433 28.745 67.433 28.745L67.433 28.745z"/>
 <line stroke-width="0.314" stroke-linejoin="round" x1="72.611" y1="28.745" x2="72.266" y2="28.745"/>
 <path stroke-width="0.314" stroke-linejoin="round" d="M67.269 29.931C67.361 29.951 67.454 29.963 67.549 29.963C68.23 29.963 68.79 29.422 68.816 28.74"/>
 <polyline stroke-width="0.314" stroke-linejoin="round" points="72.281 28.731 72.281 29.242 72.004 29.242 72.004 31.391"/>
 <path stroke-width="0.314" stroke-linejoin="round" d="M68.606 33.578C68.706 33.587 68.804 33.591 68.903 33.591C70.296 33.591 71.54 32.713 72.009 31.399"/>
 <line stroke-width="0.314" stroke-linejoin="round" x1="65.858" y1="29.931" x2="63.969" y2="29.931"/>
 <line stroke-width="0.314" stroke-linejoin="round" x1="68.6" y1="33.582" x2="59.545" y2="33.582"/>
 <line stroke-width="0.314" stroke-linejoin="round" x1="59.558" y1="33.582" x2="23.626" y2="33.582"/>
 <line stroke-width="0.314" stroke-linejoin="round" x1="25.102" y1="29.931" x2="23.489" y2="29.931"/>
 <line stroke-width="0.314" stroke-linejoin="round" x1="29.582" y1="29.931" x2="33.716" y2="29.931"/>
 <line stroke-width="0.314" stroke-linejoin="round" x1="38.182" y1="29.931" x2="42.317" y2="29.931"/>
 <line stroke-width="0.314" stroke-linejoin="round" x1="46.783" y1="29.931" x2="50.972" y2="29.931"/>
 <line stroke-width="0.314" stroke-linejoin="round" x1="55.451" y1="29.931" x2="59.848" y2="29.957"/>
 <polyline stroke-width="0.314" stroke-linejoin="round" points="62.881 18.009 62.881 17.388 62.384 17.388 62.384 17.085"/>
 <polyline stroke-width="0.314" stroke-linejoin="round" points="66.602 18.009 66.602 17.388 67.097 17.388"/>
 <line stroke-width="0.314" stroke-linejoin="round" x1="67.084" y1="17.388" x2="67.084" y2="17.085"/>
 <line stroke-width="0.314" stroke-linejoin="round" x1="50.27" y1="13.653" x2="68.174" y2="13.653"/>
 <polyline stroke-width="0.314" stroke-linejoin="round" points="71.632 18.009 71.632 17.388 71.094 17.388"/>
 <line stroke-width="0.314" stroke-linejoin="round" x1="71.109" y1="17.388" x2="71.109" y2="17.099"/>
 <path stroke-width="0.314" stroke-linejoin="round" d="M71.103 17.091C71.105 17.053 71.105 17.013 71.105 16.972C71.105 15.284 69.849 13.861 68.174 13.651"/>
 <path stroke-width="0.314" stroke-linejoin="round" d="M67.09 17.083C67.019 16.69 66.677 16.405 66.277 16.405C66.234 16.405 66.192 16.408 66.15 16.414"/>
 <line stroke-width="0.314" stroke-linejoin="round" x1="66.147" y1="16.41" x2="64.438" y2="16.41"/>
 <path stroke-width="0.314" stroke-linejoin="round" d="M63.323 16.414C63.281 16.408 63.24 16.405 63.198 16.405C62.798 16.405 62.454 16.69 62.384 17.083"/>
 <line stroke-width="0.314" stroke-linejoin="round" x1="63.322" y1="16.41" x2="65.031" y2="16.41"/>
 <polyline stroke-width="0.314" stroke-linejoin="round" points="53.853 18.009 53.853 17.388 53.356 17.388 53.356 17.085"/>
 <polyline stroke-width="0.314" stroke-linejoin="round" points="57.575 18.009 57.575 17.388 58.07 17.388"/>
 <line stroke-width="0.314" stroke-linejoin="round" x1="58.057" y1="17.388" x2="58.057" y2="17.085"/>
 <path stroke-width="0.314" stroke-linejoin="round" d="M58.061 17.083C57.99 16.69 57.648 16.405 57.247 16.405C57.206 16.405 57.162 16.408 57.121 16.414"/>
 <line stroke-width="0.314" stroke-linejoin="round" x1="57.119" y1="16.41" x2="55.411" y2="16.41"/>
 <path stroke-width="0.314" stroke-linejoin="round" d="M54.296 16.414C54.255 16.408 54.213 16.405 54.17 16.405C53.77 16.405 53.427 16.69 53.356 17.083"/>
 <line stroke-width="0.314" stroke-linejoin="round" x1="54.293" y1="16.41" x2="56.003" y2="16.41"/>
 <polyline stroke-width="0.314" stroke-linejoin="round" points="45.1 18.009 45.1 17.388 44.604 17.388 44.604 17.085"/>
 <polyline stroke-width="0.314" stroke-linejoin="round" points="48.823 18.009 48.823 17.388 49.319 17.388"/>
 <line stroke-width="0.314" stroke-linejoin="round" x1="49.304" y1="17.388" x2="49.304" y2="17.085"/>
 <path stroke-width="0.314" stroke-linejoin="round" d="M49.31 17.083C49.24 16.69 48.896 16.405 48.496 16.405C48.454 16.405 48.412 16.408 48.371 16.414"/>
 <line stroke-width="0.314" stroke-linejoin="round" x1="48.368" y1="16.41" x2="46.658" y2="16.41"/>
 <path stroke-width="0.314" stroke-linejoin="round" d="M45.545 16.414C45.502 16.408 45.46 16.405 45.417 16.405C45.018 16.405 44.676 16.69 44.603 17.083"/>
 <line stroke-width="0.314" stroke-linejoin="round" x1="45.542" y1="16.41" x2="47.25" y2="16.41"/>
 <path stroke-width="0.314" stroke-linejoin="round" d="M48.902 13.204C49.17 13.509 49.557 13.685 49.963 13.685C50.069 13.685 50.173 13.673 50.276 13.65"/>
 <path stroke-width="0.035" stroke-linejoin="round" d="M48.634 12.705C48.676 12.893 48.771 13.064 48.905 13.202"/>
 <line stroke-width="0.314" stroke-linejoin="round" x1="48.96" y1="13.266" x2="48.96" y2="12.813"/>
 <path stroke-width="0.314" stroke-linejoin="round" d="M49.023 12.894C49.283 12.83 49.47 12.605 49.487 12.336"/>
 <path stroke-width="0.314" stroke-linejoin="round" d="M49.456 6.275C49.457 6.234 49.459 6.19 49.459 6.147C49.459 4.935 48.475 3.952 47.264 3.952C47.21 3.952 47.158 3.953 47.104 3.956"/>
 <line stroke-width="0.314" stroke-linejoin="round" x1="47.1" y1="3.95" x2="46.7" y2="3.95"/>
 <g>
  <path stroke-width="0.314" stroke-linejoin="round" d="M43.131 13.65C43.234 13.673 43.338 13.685 43.445 13.685C43.834 13.685 44.204 13.524 44.472 13.24"/>
  <path stroke-width="0.035" stroke-linejoin="round" d="M44.472 13.24C44.618 13.092 44.725 12.909 44.78 12.707"/>
 </g>
 <line stroke-width="0.314" stroke-linejoin="round" x1="44.453" y1="13.266" x2="44.453" y2="12.785"/>
 <path stroke-width="0.314" stroke-linejoin="round" d="M43.92 12.336C43.936 12.605 44.125 12.83 44.384 12.894"/>
 <path stroke-width="0.314" stroke-linejoin="round" d="M46.302 3.956C46.25 3.953 46.197 3.952 46.145 3.952C44.932 3.952 43.948 4.935 43.948 6.147C43.948 6.19 43.95 6.234 43.953 6.275"/>
 <line stroke-width="0.314" stroke-linejoin="round" x1="46.299" y1="3.95" x2="46.7" y2="3.95"/>
 <line stroke-width="0.314" stroke-linejoin="round" x1="43.957" y1="6.28" x2="43.957" y2="6.955"/>
 <line stroke-width="0.314" stroke-linejoin="round" x1="43.929" y1="10.525" x2="43.915" y2="12.343"/>
 <line stroke-width="0.035" stroke-linejoin="round" x1="43.957" y1="6.28" x2="43.957" y2="6.293"/>
 <line stroke-width="0.314" stroke-linejoin="round" x1="49.484" y1="12.343" x2="49.484" y2="11.627"/>
 <line stroke-width="0.314" stroke-linejoin="round" x1="49.512" y1="11.627" x2="49.979" y2="11.627"/>
 <line stroke-width="0.314" stroke-linejoin="round" x1="49.979" y1="6.5" x2="49.979" y2="6.155"/>
 <line stroke-width="0.314" stroke-linejoin="round" x1="49.979" y1="11.627" x2="49.979" y2="11.31"/>
 <line stroke-width="0.314" stroke-linejoin="round" x1="49.979" y1="6.155" x2="49.456" y2="6.155"/>
 <line stroke-width="0.314" stroke-linejoin="round" x1="50.008" y1="11.352" x2="56.003" y2="11.352"/>
 <line stroke-width="0.314" stroke-linejoin="round" x1="50.008" y1="6.485" x2="55.975" y2="6.485"/>
 <line stroke-width="0.314" stroke-linejoin="round" x1="43.915" y1="10.414" x2="43.116" y2="10.414"/>
 <line stroke-width="0.314" stroke-linejoin="round" x1="43.116" y1="6.926" x2="43.957" y2="6.926"/>
 <polyline stroke-width="0.314" stroke-linejoin="round" points="43.116 6.926 43.116 4.819 42.441 4.819"/>
 <line stroke-width="0.314" stroke-linejoin="round" x1="43.116" y1="10.414" x2="43.116" y2="11.172"/>
 <line stroke-width="0.314" stroke-linejoin="round" x1="39.712" y1="6.099" x2="39.712" y2="5.355"/>
 <line stroke-width="0.314" stroke-linejoin="round" x1="39.712" y1="11.433" x2="39.712" y2="10.772"/>
 <polyline stroke-width="0.314" stroke-linejoin="round" points="42.441 4.819 42.423 4.682 42.414 4.554 42.404 4.434 42.377 4.317 42.317 4.2 42.234 4.089 42.14 3.996 42.029 3.918 41.895 3.852 41.729 3.798 41.515 3.762 41.259 3.754 40.996 3.77 40.761 3.806 40.585 3.859 40.475 3.919 40.399 3.984 40.343 4.054 40.286 4.134 40.215 4.23 40.13 4.334 40.048 4.44 39.972 4.549 39.904 4.663 39.843 4.788 39.795 4.927 39.759 5.076 39.737 5.209 39.723 5.307 39.723 5.347"/>
 <polyline stroke-width="0.314" stroke-linejoin="round" points="39.753 11.31 39.719 11.384 39.671 11.609 39.673 11.836 39.726 12.055"/>
 <polyline stroke-width="0.314" stroke-linejoin="round" points="42.564 12.798 42.777 12.649 42.957 12.468 43.097 12.269 43.194 12.054 43.241 11.83 43.24 11.602 43.192 11.378 43.094 11.164 43.081 11.15"/>
 <path stroke="none" fill="#000000" d="M42.582 12.798C42.582 12.788 42.575 12.781 42.564 12.781 42.554 12.781 42.548 12.788 42.548 12.798 42.548 12.807 42.554 12.816 42.564 12.816 42.575 12.816 42.582 12.807 42.582 12.798 42.582 12.798 42.582 12.798 42.582 12.798L42.582 12.798z"/>
 <path stroke-width="0.314" stroke-linejoin="round" d="M39.871 14.933C39.942 14.939 40.012 14.942 40.084 14.942C41.338 14.942 42.411 14.038 42.621 12.801"/>
 <polyline stroke-width="0.314" stroke-linejoin="round" points="39.78 12.054 39.762 12.07 39.704 12.105 39.642 12.132 39.575 12.147 39.506 12.153 39.438 12.153"/>
 <path stroke-width="0.035" stroke-linejoin="round" d="M39.78 12.06C39.877 11.98 39.932 11.861 39.932 11.736L39.932 11.718"/>
 <polyline stroke-width="0.314" stroke-linejoin="round" points="36.32 18.009 36.32 17.388 35.825 17.388 35.825 17.085"/>
 <polyline stroke-width="0.314" stroke-linejoin="round" points="40.042 18.009 40.042 17.388 40.539 17.388"/>
 <line stroke-width="0.314" stroke-linejoin="round" x1="40.524" y1="17.388" x2="40.524" y2="17.085"/>
 <path stroke-width="0.314" stroke-linejoin="round" d="M40.529 17.083C40.457 16.69 40.115 16.405 39.715 16.405C39.673 16.405 39.63 16.408 39.588 16.414"/>
 <line stroke-width="0.314" stroke-linejoin="round" x1="39.588" y1="16.41" x2="37.878" y2="16.41"/>
 <path stroke-width="0.314" stroke-linejoin="round" d="M36.762 16.414C36.72 16.408 36.677 16.405 36.636 16.405C36.235 16.405 35.893 16.69 35.822 17.083"/>
 <line stroke-width="0.314" stroke-linejoin="round" x1="36.762" y1="16.41" x2="38.472" y2="16.41"/>
 <line stroke-width="0.314" stroke-linejoin="round" x1="39.436" y1="12.15" x2="28.147" y2="12.15"/>
 <line stroke-width="0.314" stroke-linejoin="round" x1="39.863" y1="14.935" x2="28.202" y2="14.935"/>
 <line stroke-width="0.314" stroke-linejoin="round" x1="43.131" y1="13.653" x2="42.276" y2="13.653"/>
 <polyline stroke-width="0.314" stroke-linejoin="round" points="28.092 18.009 28.092 17.388 27.597 17.388 27.597 17.085"/>
 <polyline stroke-width="0.314" stroke-linejoin="round" points="31.814 18.009 31.814 17.388 32.31 17.388"/>
 <line stroke-width="0.314" stroke-linejoin="round" x1="32.296" y1="17.388" x2="32.296" y2="17.085"/>
 <path stroke-width="0.314" stroke-linejoin="round" d="M32.302 17.083C32.231 16.69 31.888 16.405 31.489 16.405C31.446 16.405 31.403 16.408 31.362 16.414"/>
 <line stroke-width="0.314" stroke-linejoin="round" x1="31.359" y1="16.41" x2="29.65" y2="16.41"/>
 <path stroke-width="0.314" stroke-linejoin="round" d="M28.536 16.414C28.495 16.408 28.452 16.405 28.41 16.405C28.01 16.405 27.667 16.69 27.597 17.083"/>
 <polyline stroke-width="0.314" stroke-linejoin="round" points="23.943 17.995 23.943 17.402 24.468 17.402"/>
 <line stroke-width="0.314" stroke-linejoin="round" x1="29.65" y1="16.41" x2="28.533" y2="16.41"/>
 <line stroke-width="0.314" stroke-linejoin="round" x1="28.216" y1="14.935" x2="23.199" y2="14.935"/>
 <line stroke-width="0.314" stroke-linejoin="round" x1="28.147" y1="12.15" x2="23.199" y2="12.15"/>
 <path stroke-width="0.314" stroke-linejoin="round" d="M25.397 14.964C24.794 15.493 24.446 16.256 24.446 17.057C24.446 17.175 24.454 17.292 24.469 17.408"/>
 <line stroke-width="0.314" stroke-linejoin="round" x1="39.712" y1="10.787" x2="39.243" y2="10.787"/>
 <line stroke-width="0.314" stroke-linejoin="round" x1="39.256" y1="6.334" x2="39.256" y2="6.059"/>
 <line stroke-width="0.314" stroke-linejoin="round" x1="39.256" y1="10.787" x2="39.256" y2="10.525"/>
 <line stroke-width="0.314" stroke-linejoin="round" x1="39.256" y1="6.059" x2="39.753" y2="6.059"/>
 <path stroke-width="0.314" stroke-linejoin="round" d="M55.981 6.493C57.796 6.397 59.444 5.4 60.372 3.838"/>
 <path stroke-width="0.314" stroke-linejoin="round" d="M56.012 11.348C56.177 11.356 56.344 11.361 56.511 11.361C59.582 11.361 62.445 9.81 64.125 7.237"/>
 <path stroke-width="0.035" stroke-linejoin="round" d="M20.94 28.402C20.917 28.51 20.903 28.621 20.903 28.733C20.903 29.297 21.222 29.815 21.725 30.071"/>
 <path stroke-width="0.035" stroke-linejoin="round" d="M22.332 15.186C21.603 15.214 21.004 15.771 20.926 16.495"/>
 <line stroke-width="0.035" stroke-linejoin="round" x1="20.925" y1="16.492" x2="20.925" y2="28.428"/>
 <line stroke-width="0.035" stroke-linejoin="round" x1="20.899" y1="25.19" x2="19.3" y2="24.734"/>
 <line stroke-width="0.035" stroke-linejoin="round" x1="19.286" y1="24.734" x2="19.286" y2="30.027"/>
 <line stroke-width="0.035" stroke-linejoin="round" x1="20.899" y1="21.536" x2="19.3" y2="21.992"/>
 <line stroke-width="0.035" stroke-linejoin="round" x1="19.286" y1="21.992" x2="19.286" y2="16.699"/>
 <polyline stroke-width="0.035" stroke-linejoin="round" points="16.873 30.068 16.873 26.664 16.585 26.664"/>
 <polyline stroke-width="0.035" stroke-linejoin="round" points="16.571 26.664 16.571 19.635 16.859 19.635"/>
 <line stroke-width="0.035" stroke-linejoin="round" x1="19.286" y1="16.684" x2="19.286" y2="15.086"/>
 <line stroke-width="0.035" stroke-linejoin="round" x1="15.358" y1="31.722" x2="15.358" y2="32.301"/>
 <path stroke-width="0.035" stroke-linejoin="round" d="M16.871 34.024C16.995 34.301 17.271 34.481 17.574 34.481C17.707 34.481 17.836 34.448 17.951 34.383"/>
 <line stroke-width="0.035" stroke-linejoin="round" x1="17.949" y1="34.383" x2="19.286" y2="33.665"/>
 <line stroke-width="0.035" stroke-linejoin="round" x1="67.429" y1="28.663" x2="67.402" y2="28.745"/>
 <path stroke-width="0.095" stroke-linejoin="round" d="M41.636 4.57C41.131 4.939 40.834 5.528 40.834 6.152C40.834 6.182 40.835 6.211 40.835 6.24"/>
 <path stroke-width="0.095" stroke-linejoin="round" d="M42.238 5.245C42.216 5.243 42.192 5.242 42.17 5.242C41.792 5.242 41.487 5.548 41.487 5.924C41.487 5.952 41.488 5.98 41.493 6.009"/>
 <line stroke-width="0.095" stroke-linejoin="round" x1="42.234" y1="5.246" x2="41.628" y2="4.57"/>
 <line stroke-width="0.095" stroke-linejoin="round" x1="40.829" y1="6.237" x2="40.829" y2="9.201"/>
 <polyline stroke-width="0.095" stroke-linejoin="round" points="40.829 9.214 40.264 9.214 41.185 10.194"/>
 <line stroke-width="0.095" stroke-linejoin="round" x1="41.185" y1="10.179" x2="41.93" y2="9.201"/>
 <polyline stroke-width="0.095" stroke-linejoin="round" points="41.93 9.214 41.49 9.214 41.49 6.017"/>
 <path stroke-width="0.159" stroke-linejoin="round" d="M72.715 23.315C72.715 21.265 71.052 19.602 69.003 19.602C66.953 19.602 65.29 21.265 65.29 23.315C65.29 25.364 66.953 27.027 69.003 27.027C71.052 27.027 72.715 25.364 72.715 23.315z"/>
 <g>
  <polyline stroke-width="0.314" stroke-linejoin="round" points="67.373 28.69 68.862 28.69"/>
  <polyline stroke-width="0.035" stroke-linejoin="round" points="68.862 28.69 72.253 28.69"/>
 </g>
 <line stroke-width="0.035" stroke-linejoin="round" x1="66.656" y1="18.064" x2="71.674" y2="18.064"/>
 <line stroke-width="0.314" stroke-linejoin="round" x1="67.346" y1="29.957" x2="65.719" y2="29.957"/>
 <path stroke="none" fill="#E5E5E5" d="M23.199 12.26L39.731 12.26 39.828 12.019 39.755 11.631 39.851 11.413 39.828 10.757 39.682 10.71 39.198 10.492 36.701 10.66 33.985 10.346 31.974 9.813 29.768 8.868 28.58 8.237 26.472 6.081 30.399 2.807 32.119 4.626 33.453 5.498 35.052 6.128 36.457 6.443 38.057 6.564 39.198 6.443 39.392 6.152 39.779 6.105 39.779 5.91 39.924 5.182 39.972 4.77 39.804 5.11 39.828 5.498 39.875 5.038 40.021 4.722 40.506 4.068 40.822 3.85 41.475 3.85 41.96 3.972 42.276 4.359 42.299 4.796 42.567 4.964 43.027 4.964 43.075 6.927 43.996 6.927 43.972 10.516 43.972 10.516 43.923 10.298 43.173 10.369 43.124 10.419 43.051 11.266 43.171 11.582 43.171 12.092 42.542 12.721 42.25 13.788 41.621 14.32 40.844 14.708 40.36 14.855 23.152 14.855 23.199 12.26z"/>
 <line stroke-width="0.035" stroke-linejoin="round" x1="43.944" y1="6.955" x2="43.929" y2="10.525"/>
 <line stroke-width="0.035" stroke-linejoin="round" x1="43.116" y1="10.414" x2="43.116" y2="6.913"/>
 <line stroke-width="0.035" stroke-linejoin="round" x1="42.441" y1="4.819" x2="42.441" y2="10.606"/>
 <line stroke-width="0.035" stroke-linejoin="round" x1="39.712" y1="10.772" x2="39.712" y2="6.086"/>
 <polyline stroke-width="0.035" stroke-linejoin="round" points="42.496 11.557 42.47 11.404 42.414 11.256 42.329 11.117 42.216 10.989 42.078 10.877 41.918 10.782 41.74 10.708 41.551 10.654 41.353 10.625 41.152 10.621 40.953 10.641 40.759 10.683 40.576 10.75 40.408 10.836 40.262 10.942 40.14 11.064 40.042 11.198 39.973 11.345 39.936 11.496 39.936 11.647"/>
 <polyline stroke-width="0.035" stroke-linejoin="round" points="43.088 11.144 42.956 10.958 42.774 10.779 42.554 10.625 42.307 10.503 42.034 10.412 41.747 10.356 41.451 10.339 41.156 10.358 40.869 10.413 40.598 10.506 40.35 10.631 40.133 10.785 39.951 10.964 39.811 11.163 39.743 11.301"/>
 <line stroke-width="0.035" stroke-linejoin="round" x1="42.496" y1="11.557" x2="42.551" y2="12.798"/>
 <line stroke-width="0.035" stroke-linejoin="round" x1="39.256" y1="10.525" x2="39.256" y2="6.334"/>
 <line stroke-width="0.314" stroke-linejoin="round" x1="28.492" y1="8.25" x2="26.425" y2="6.086"/>
 <line stroke-width="0.314" stroke-linejoin="round" x1="32.021" y1="4.487" x2="30.381" y2="2.765"/>
 <path stroke="none" fill="#E5E5E5" d="M43.997 6.913L44.045 5.871 44.448 5.019 44.945 4.451 45.417 4.192 45.82 4.097 47.643 4.073 48.353 4.333 48.872 4.783 49.371 5.634 49.393 6.275 49.892 6.275 50.103 6.605 53.844 6.628 56.258 6.605 57.701 6.275 58.86 5.612 59.783 4.902 60.493 3.859 60.729 3.576 64.445 6.368 64.019 7.174 63.215 8.262 62.457 9.019 61.226 9.99 59.948 10.582 58.387 11.054 57.228 11.196 50.009 11.196 49.914 11.599 49.465 11.599 49.488 11.788 49.512 12.451 49.158 12.83 48.92 12.971 48.872 13.162 49.063 13.468 49.536 13.753 49.796 13.8 49.228 16.617 49.087 16.379 49.087 16.379 47.027 16.262 45.49 16.237 44.826 16.451 43.643 13.823 44.424 13.445 44.59 13.231 44.637 12.853 44.212 12.711 44.021 12.38 44.021 10.391 43.997 6.913z"/>
 <path stroke-width="0.035" stroke-linejoin="round" d="M48.621 12.708L48.621 12.707C48.621 12.092 48.121 11.593 47.508 11.593C47.219 11.593 46.942 11.705 46.734 11.904"/>
 <line stroke-width="0.035" stroke-linejoin="round" x1="48.96" y1="12.798" x2="48.96" y2="11.089"/>
 <line stroke-width="0.035" stroke-linejoin="round" x1="48.96" y1="11.103" x2="48.685" y2="10.8"/>
 <line stroke-width="0.035" stroke-linejoin="round" x1="48.685" y1="10.787" x2="46.7" y2="10.787"/>
 <path stroke-width="0.035" stroke-linejoin="round" d="M46.673 11.904C46.465 11.705 46.189 11.593 45.901 11.593C45.286 11.593 44.786 12.092 44.786 12.707L44.786 12.708"/>
 <polyline stroke-width="0.035" stroke-linejoin="round" points="44.453 12.785 44.453 11.103 44.728 10.8"/>
 <line stroke-width="0.035" stroke-linejoin="round" x1="44.728" y1="10.787" x2="46.713" y2="10.787"/>
 <line stroke-width="0.035" stroke-linejoin="round" x1="49.484" y1="11.614" x2="49.456" y2="6.266"/>
 <line stroke-width="0.035" stroke-linejoin="round" x1="49.979" y1="11.31" x2="49.979" y2="6.485"/>
 <path stroke="none" fill="#E5E5E5" d="M49.718 13.846L50.002 13.823 50.238 13.775 65.314 13.775 65.314 16.307 63.018 16.307 62.569 16.496 62.38 16.875 62.308 17.49 62.759 17.515 62.805 17.987 57.716 18.012 57.67 17.538 58.191 17.49 58.191 17.065 58.024 16.686 57.789 16.402 57.316 16.355 53.954 16.307 53.552 16.521 53.316 16.993 53.268 17.515 53.765 17.515 53.741 18.012 48.984 17.94 48.938 17.515 49.433 17.562 49.457 17.088 49.363 16.923 49.149 16.544 49.718 13.846z"/>
 <line stroke-width="0.035" stroke-linejoin="round" x1="48.808" y1="18.009" x2="53.811" y2="18.009"/>
 <path stroke="none" fill="#E5E5E5" d="M65.32 13.721L68.183 13.721 69.224 14.076 70.006 14.644 70.692 15.544 70.929 16.207 71.024 16.681 71.024 17.46 71.545 17.484 71.521 18.03 66.716 18.03 66.692 17.509 67.213 17.509 67.189 17.035 67.072 16.632 66.575 16.326 65.296 16.301 65.32 13.721z"/>
 <path stroke="none" fill="#E5E5E5" d="M24.013 18.036L23.964 17.528 24.448 17.457 24.496 17.359 24.64 16.393 24.786 15.935 25.125 15.378 25.439 15.089 40.39 15.089 41.213 14.848 41.841 14.461 42.203 14.05 42.42 13.759 43.725 13.785 44.884 16.442 44.716 16.611 44.497 17.045 44.497 17.504 44.957 17.528 45.005 17.987 40.173 18.012 40.198 17.553 40.633 17.48 40.633 17.021 40.439 16.635 40.029 16.344 36.454 16.272 35.923 16.562 35.753 16.998 35.704 17.504 36.188 17.504 36.237 17.963 31.913 17.987 31.96 17.504 32.42 17.481 32.274 16.635 31.888 16.346 28.361 16.272 27.734 16.562 27.443 17.07 27.468 17.481 27.468 17.481 27.951 17.457 27.902 18.036 24.013 18.036z"/>
 <path stroke="none" fill="#E5E5E5" d="M23.545 30.041L25.407 30.059 26.056 29.879 26.564 29.408 26.762 28.775 28.425 28.757 28.425 29.228 28.643 29.698 28.913 29.896 29.257 30.041 34.246 30.041 34.805 29.824 35.185 29.426 35.42 28.794 37.084 28.794 37.137 29.408 37.607 29.932 38.348 30.059 39.325 30.059 39.325 33.421 23.562 33.421 23.545 30.041z"/>
 <path stroke="none" fill="#E5E5E5" d="M39.271 30.054L42.957 30.054 43.57 29.704 43.878 29.178 43.966 28.739 45.72 28.739 45.698 29.309 45.962 29.704 46.423 30.033 51.643 30.033 52.301 29.615 52.564 29.089 52.674 28.76 54.32 28.76 54.408 29.309 54.737 29.814 55.109 30.033 58.445 30.033 58.445 33.432 39.226 33.432 39.271 30.054z"/>
 <path stroke="none" fill="#E5E5E5" d="M58.414 30.013L60.255 30.013 60.804 29.728 61.259 29.14 61.335 28.762 63.024 28.762 63.06 29.33 63.365 29.766 63.801 30.071 67.82 30.071 68.447 29.748 68.825 29.216 68.882 28.742 72.164 28.742 72.164 29.14 71.879 29.14 71.879 31.397 71.537 32.081 71.082 32.649 70.115 33.256 69.149 33.484 58.262 33.484 58.414 30.013z"/>
 <path stroke="none" fill="#000000" d="M74.534 33.176C74.534 33.165 74.528 33.158 74.518 33.158 74.507 33.158 74.5 33.165 74.5 33.176 74.5 33.185 74.507 33.192 74.518 33.192 74.528 33.192 74.534 33.185 74.534 33.176 74.534 33.176 74.534 33.176 74.534 33.176L74.534 33.176z"/>
 <polyline stroke-width="0.314" stroke-linejoin="round" points="32.021 4.487 32.276 4.666 32.496 4.83 32.709 4.985 32.942 5.139 33.225 5.304 33.53 5.461 33.819 5.593 34.11 5.713 34.42 5.828 34.765 5.95 35.121 6.07 35.454 6.176 35.771 6.266 36.078 6.339 36.38 6.397 36.639 6.432 36.841 6.445 37.024 6.448 37.229 6.445 37.496 6.445 37.875 6.447 38.329 6.442 38.768 6.434 39.1 6.427 39.238 6.427"/>
 <polyline stroke-width="0.314" stroke-linejoin="round" points="28.478 8.223 28.728 8.362 28.946 8.489 29.155 8.609 29.382 8.733 29.646 8.868 29.928 9.006 30.199 9.132 30.463 9.249 30.724 9.359 30.986 9.464 31.214 9.553 31.393 9.618 31.559 9.673 31.751 9.733 32.005 9.811 32.313 9.913 32.646 10.023 33.02 10.137 33.439 10.252 33.917 10.359 34.412 10.451 34.899 10.528 35.395 10.586 35.92 10.631 36.499 10.657 37.165 10.653 37.874 10.617 38.514 10.568 38.976 10.525 39.156 10.512"/>
 <path stroke="none" fill="#E5E5E5" d="M11.788 33.293L11.926 33.087 12.166 32.847 12.362 32.811 12.647 32.892 12.798 32.857 12.968 32.697 13.176 32.628 13.278 32.64 13.542 32.743 13.727 32.651 13.92 32.468 14.138 32.421 14.3 32.468 14.403 32.502 14.598 32.457 14.839 32.25 15.172 32.238 15.343 32.319 15.516 32.262 15.698 32.1 15.894 32.054 16.123 32.112 16.227 32.124 16.422 32.078 16.594 31.928 16.789 31.859 16.949 31.882 17.19 31.928 17.339 31.882 17.535 31.687 17.775 31.664 18.062 31.757 18.326 32.054 18.463 32.238 18.486 32.329 11.96 33.466 11.788 33.293z"/>
 <line stroke-width="0.035" stroke-linejoin="round" x1="14.117" y1="24.983" x2="14.103" y2="24.969"/>
 <g>
  <polyline stroke-width="0.035" stroke-linejoin="round" points="14.061 42.031 13.58 42.555"/>
  <polyline stroke-width="0.314" stroke-linejoin="round" points="13.58 42.555 10.989 42.817 11.071 43.521"/>
 </g>
 <polyline stroke-width="0.314" stroke-linejoin="round" points="11.085 43.521 10.644 43.383 10.602 42.817 9.073 42.817"/>
 <polyline stroke-width="0.314" stroke-linejoin="round" points="8.535 43.823 10.644 43.823 10.989 44.305 12.917 44.305"/>
 <path stroke-width="0.314" stroke-linejoin="round" d="M12.492 6.431C12.291 5.628 11.57 5.065 10.744 5.065C10.426 5.065 10.112 5.15 9.836 5.31"/>
 <path stroke-width="0.314" stroke-linejoin="round" d="M13.931 7.23C13.787 6.73 13.33 6.387 12.81 6.387C12.702 6.387 12.595 6.402 12.492 6.431"/>
 <line stroke-width="0.035" stroke-linejoin="round" x1="6.246" y1="35.912" x2="6.246" y2="40.088"/>
 <line stroke-width="0.314" stroke-linejoin="round" x1="8.507" y1="43.465" x2="8.507" y2="43.906"/>
 <line stroke-width="0.035" stroke-linejoin="round" x1="8.507" y1="43.92" x2="8.507" y2="46.07"/>
 <line stroke-width="0.035" stroke-linejoin="round" x1="8.507" y1="35.871" x2="8.507" y2="43.465"/>
 <line stroke-width="0.035" stroke-linejoin="round" x1="8.465" y1="40.874" x2="4.718" y2="39.481"/>
 <polyline stroke-width="0.035" stroke-linejoin="round" points="8.465 41.921 7.915 42.679 5.916 43.259"/>
 <line stroke-width="0.314" stroke-linejoin="round" x1="4.661" y1="44.857" x2="4.661" y2="40.915"/>
 <path stroke-width="0.314" stroke-linejoin="round" d="M12.923 44.307C13.294 43.82 13.496 43.225 13.496 42.613C13.496 42.59 13.494 42.566 13.494 42.542"/>
 <path stroke-width="0.314" stroke-linejoin="round" d="M12.105 46.667C12.253 46.685 12.403 46.692 12.554 46.692C14.435 46.692 16.039 45.331 16.341 43.473"/>
 <g>
  <polyline stroke-width="0.314" stroke-linejoin="round" points="12.105 46.662 11.044 46.662 10.644 47.063 8.507 47.063 8.507 46.746"/>
  <polyline stroke-width="0.035" stroke-linejoin="round" points="8.507 46.746 8.507 46.07"/>
 </g>
 <line stroke-width="0.314" stroke-linejoin="round" x1="8.507" y1="46.759" x2="7.184" y2="46.759"/>
 <line stroke-width="0.314" stroke-linejoin="round" x1="7.198" y1="46.759" x2="6.413" y2="46.222"/>
 <line stroke-width="0.314" stroke-linejoin="round" x1="4.799" y1="46.222" x2="4.799" y2="40.447"/>
 <line stroke-width="0.035" stroke-linejoin="round" x1="4.855" y1="45.408" x2="8.493" y2="45.408"/>
 <line stroke-width="0.035" stroke-linejoin="round" x1="6.399" y1="46.222" x2="8.507" y2="46.222"/>
 <path stroke-width="0.314" stroke-linejoin="round" d="M9.064 42.816C8.75 42.838 8.506 43.098 8.506 43.412C8.506 43.439 8.507 43.466 8.512 43.491"/>
 <path stroke-width="0.314" stroke-linejoin="round" d="M5.221 34.131C4.033 34.146 3.072 35.097 3.044 36.284"/>
 <line stroke-width="0.314" stroke-linejoin="round" x1="1.492" y1="34.851" x2="1.492" y2="8.994"/>
 <line stroke-width="0.035" stroke-linejoin="round" x1="4.524" y1="32.149" x2="4.524" y2="11.557"/>
 <line stroke-width="0.035" stroke-linejoin="round" x1="4.799" y1="32.149" x2="4.799" y2="11.627"/>
 <line stroke-width="0.035" stroke-linejoin="round" x1="5.075" y1="23.701" x2="8.59" y2="23.701"/>
 <line stroke-width="0.035" stroke-linejoin="round" x1="8.577" y1="3.785" x2="4.924" y2="3.785"/>
 <line stroke-width="0.314" stroke-linejoin="round" x1="4.937" y1="3.055" x2="6.551" y2="3.055"/>
 <line stroke-width="0.035" stroke-linejoin="round" x1="6.536" y1="3.055" x2="8.439" y2="3.055"/>
 <line stroke-width="0.035" stroke-linejoin="round" x1="8.452" y1="3.055" x2="8.452" y2="3.798"/>
 <line stroke-width="0.035" stroke-linejoin="round" x1="8.577" y1="23.701" x2="9.044" y2="22.695"/>
 <line stroke-width="0.035" stroke-linejoin="round" x1="9.058" y1="22.695" x2="9.058" y2="11.82"/>
 <polyline stroke-width="0.035" stroke-linejoin="round" points="5.544 7.644 6.618 5.618 8.507 6.569"/>
 <line stroke-width="0.035" stroke-linejoin="round" x1="8.577" y1="23.701" x2="8.577" y2="29.573"/>
 <line stroke-width="0.035" stroke-linejoin="round" x1="4.868" y1="28.772" x2="8.452" y2="28.772"/>
 <line stroke-width="0.314" stroke-linejoin="round" x1="14.144" y1="23.48" x2="14.144" y2="12.096"/>
 <path stroke-width="0.314" stroke-linejoin="round" d="M14.673 5.086C14.163 3.83 13.035 2.931 11.696 2.714"/>
 <polyline stroke-width="0.314" stroke-linejoin="round" points="12.49 6.431 11.14 6.32 11.085 5.687 10.617 5.658 10.464 6.445"/>
 <line stroke-width="0.314" stroke-linejoin="round" x1="10.464" y1="6.458" x2="8.59" y2="6.28"/>
 <line stroke-width="0.035" stroke-linejoin="round" x1="10.85" y1="5.742" x2="10.85" y2="7.189"/>
 <line stroke-width="0.314" stroke-linejoin="round" x1="14.669" y1="5.08" x2="15.592" y2="7.561"/>
 <line stroke-width="0.314" stroke-linejoin="round" x1="11.692" y1="2.71" x2="10.106" y2="2.71"/>
 <g>
  <polyline stroke-width="0.314" stroke-linejoin="round" points="10.119 2.71 9.803 2.447 7.666 2.447"/>
  <polyline stroke-width="0.035" stroke-linejoin="round" points="7.666 2.447 7.666 3.027"/>
 </g>
 <line stroke-width="0.314" stroke-linejoin="round" x1="7.666" y1="2.641" x2="6.426" y2="2.985"/>
 <line stroke-width="0.314" stroke-linejoin="round" x1="9.83" y1="5.315" x2="8.603" y2="5.315"/>
 <line stroke-width="0.314" stroke-linejoin="round" x1="5.213" y1="9.352" x2="6.66" y2="9.352"/>
 <path stroke="none" fill="#FFFFFF" d="M9.086 30.826L18.984 31.315 18.984 37.17 9.156 38.704 9.086 30.826z"/>
 <g>
  <polyline stroke-width="0.159" stroke-linejoin="round" points="6.246 30.937 6.522 30.701 8.465 30.193"/>
  <polyline stroke-width="0.035" stroke-linejoin="round" points="8.465 30.193 8.465 32.259"/>
 </g>
 <line stroke-width="0.314" stroke-linejoin="round" x1="8.465" y1="32.246" x2="11.554" y2="32.246"/>
 <line stroke-width="0.159" stroke-linejoin="round" x1="8.577" y1="29.585" x2="6.275" y2="30.262"/>
 <path stroke-width="0.159" stroke-linejoin="round" d="M6.286 30.257C5.939 30.336 5.671 30.608 5.593 30.954"/>
 <line stroke-width="0.159" stroke-linejoin="round" x1="6.246" y1="35.912" x2="6.246" y2="30.937"/>
 <line stroke-width="0.314" stroke-linejoin="round" x1="16.335" y1="36.505" x2="16.335" y2="43.479"/>
 <line stroke-width="0.314" stroke-linejoin="round" x1="14.103" y1="31.681" x2="14.103" y2="25.065"/>
 <line stroke-width="0.035" stroke-linejoin="round" x1="14.061" y1="36.546" x2="14.061" y2="42.031"/>
 <line stroke-width="0.035" stroke-linejoin="round" x1="10.782" y1="35.939" x2="10.782" y2="43.259"/>
 <line stroke-width="0.035" stroke-linejoin="round" x1="10.81" y1="32.012" x2="10.81" y2="11.958"/>
 <path stroke="none" fill="#E5E5E5" d="M19.202 32.067L17.167 32.276 16.855 32.067 16.672 32.04 16.463 32.118 16.228 32.223 15.968 32.04 15.733 32.093 15.497 32.223 15.159 31.989 14.689 32.223 14.375 32.067 14.167 32.067 13.88 32.145 13.567 32.015 13.384 32.067 13.044 32.223 12.811 32.015 12.55 32.067 12.34 32.171 12.105 32.067 11.897 32.067 11.557 32.223 6.286 32.276 6.339 35.85 11.349 35.877 11.714 36.137 12.028 36.241 12.314 36.058 12.731 36.268 13.098 36.058 13.515 36.241 13.88 36.033 14.298 36.293 14.663 36.085 15.159 36.241 15.524 36.085 15.888 36.189 16.28 36.033 16.594 36.293 16.984 36.058 16.984 36.058 17.141 35.954 19.202 35.85 19.202 32.067z"/>
 <polyline stroke-width="0.628" stroke-linejoin="round" points="19.106 35.787 19.062 35.929 19.035 35.984"/>
 <line stroke-width="0.314" stroke-linejoin="round" x1="17.687" y1="32.067" x2="16.969" y2="32.136"/>
 <line stroke-width="0.314" stroke-linejoin="round" x1="17.687" y1="36.188" x2="16.969" y2="36.064"/>
 <polyline stroke-width="0.314" stroke-linejoin="round" points="11.609 36.159 11.582 36.145 11.43 35.993"/>
 <polyline stroke-width="0.314" stroke-linejoin="round" points="17.053 35.981 16.943 36.112 16.789 36.222 16.629 36.265 16.469 36.24 16.312 36.148 16.243 36.064"/>
 <line stroke-width="0.035" stroke-linejoin="round" x1="16.225" y1="36.064" x2="16.157" y2="35.981"/>
 <polyline stroke-width="0.314" stroke-linejoin="round" points="16.239 32.177 16.361 32.067 16.519 31.996 16.681 31.992 16.838 32.057 16.99 32.188 17.018 32.216"/>
 <line stroke-width="0.035" stroke-linejoin="round" x1="16.213" y1="32.204" x2="16.239" y2="32.177"/>
 <polyline stroke-width="0.314" stroke-linejoin="round" points="16.295 35.981 16.185 36.112 16.03 36.222 15.871 36.265 15.711 36.24 15.554 36.148 15.486 36.064"/>
 <polyline stroke-width="0.314" stroke-linejoin="round" points="15.481 32.177 15.602 32.067 15.762 31.996 15.923 31.992 16.08 32.057 16.231 32.188 16.26 32.216"/>
 <polyline stroke-width="0.314" stroke-linejoin="round" points="15.509 35.981 15.4 36.112 15.246 36.222 15.086 36.265 14.925 36.24 14.769 36.148 14.699 36.064"/>
 <polyline stroke-width="0.314" stroke-linejoin="round" points="14.695 32.177 14.817 32.067 14.975 31.996 15.137 31.992 15.295 32.057 15.446 32.188 15.474 32.216"/>
 <polyline stroke-width="0.314" stroke-linejoin="round" points="14.682 35.981 14.573 36.112 14.419 36.222 14.259 36.265 14.098 36.24 13.942 36.148 13.872 36.064"/>
 <polyline stroke-width="0.314" stroke-linejoin="round" points="13.868 32.177 13.99 32.067 14.148 31.996 14.31 31.992 14.468 32.057 14.619 32.188 14.647 32.216"/>
 <polyline stroke-width="0.314" stroke-linejoin="round" points="13.897 35.981 13.788 36.112 13.632 36.222 13.473 36.265 13.313 36.24 13.156 36.148 13.087 36.064"/>
 <polyline stroke-width="0.314" stroke-linejoin="round" points="13.083 32.177 13.205 32.067 13.364 31.996 13.524 31.992 13.682 32.057 13.833 32.188 13.862 32.216"/>
 <polyline stroke-width="0.314" stroke-linejoin="round" points="13.138 35.981 13.028 36.112 12.875 36.222 12.714 36.265 12.554 36.24 12.399 36.148 12.33 36.064"/>
 <polyline stroke-width="0.314" stroke-linejoin="round" points="12.326 32.177 12.446 32.067 12.605 31.996 12.766 31.992 12.925 32.057 13.076 32.188 13.103 32.216"/>
 <polyline stroke-width="0.314" stroke-linejoin="round" points="12.409 35.981 12.298 36.112 12.144 36.222 11.984 36.265 11.823 36.24 11.667 36.148 11.599 36.064"/>
 <polyline stroke-width="0.314" stroke-linejoin="round" points="11.595 32.177 11.717 32.067 11.875 31.996 12.035 31.992 12.194 32.057 12.345 32.188 12.372 32.216"/>
 <path stroke-width="0.035" stroke-linejoin="round" d="M11.387 35.929C11.778 35.774 12.066 34.969 12.066 34.029C12.066 33.215 11.85 32.488 11.526 32.213"/>
 <polyline stroke-width="0.035" stroke-linejoin="round" points="11.484 32.204 11.634 32.069 11.792 31.998 11.954 31.995 12.112 32.06 12.263 32.189 12.403 32.381 12.525 32.628 12.628 32.923 12.705 33.256 12.757 33.616 12.782 33.993 12.776 34.375 12.743 34.746 12.682 35.1 12.596 35.421 12.487 35.703 12.359 35.932 12.215 36.104 12.061 36.213 11.901 36.256 11.742 36.231 11.618 36.149"/>
 <path stroke-width="0.035" stroke-linejoin="round" d="M12.196 35.985C12.332 36.165 12.484 36.261 12.64 36.261C13.138 36.261 13.542 35.302 13.542 34.124C13.542 32.944 13.138 31.986 12.64 31.986C12.503 31.986 12.367 32.06 12.243 32.204"/>
 <path stroke-width="0.035" stroke-linejoin="round" d="M12.978 36.009C13.115 36.192 13.271 36.287 13.428 36.287C13.932 36.287 14.343 35.317 14.343 34.124C14.343 32.929 13.932 31.958 13.428 31.958C13.288 31.958 13.15 32.034 13.025 32.179"/>
 <path stroke-width="0.035" stroke-linejoin="round" d="M13.75 35.975C13.885 36.155 14.037 36.249 14.192 36.249C14.686 36.249 15.089 35.296 15.089 34.125C15.089 32.953 14.686 32 14.192 32C14.054 32 13.919 32.075 13.798 32.216"/>
 <path stroke-width="0.035" stroke-linejoin="round" d="M14.586 35.975C14.721 36.155 14.872 36.249 15.026 36.249C15.522 36.249 15.925 35.296 15.925 34.125C15.925 32.953 15.522 32 15.026 32C14.89 32 14.756 32.075 14.632 32.216"/>
 <path stroke-width="0.035" stroke-linejoin="round" d="M15.397 35.972C15.532 36.151 15.683 36.244 15.836 36.244C16.332 36.244 16.733 35.295 16.733 34.125C16.733 32.954 16.332 32.005 15.836 32.005C15.701 32.005 15.567 32.079 15.444 32.219"/>
 <polyline stroke-width="0.035" stroke-linejoin="round" points="17.012 32.219 17.128 32.378 17.25 32.625 17.352 32.92 17.429 33.253 17.481 33.613 17.506 33.99 17.501 34.371 17.468 34.743 17.408 35.097 17.321 35.418 17.213 35.698 17.083 35.929 17.056 35.97"/>
 <line stroke-width="0.628" stroke-linejoin="round" x1="19.024" y1="32.039" x2="17.039" y2="32.191"/>
 <line stroke-width="0.628" stroke-linejoin="round" x1="19.051" y1="35.871" x2="17.067" y2="35.994"/>
 <polygon stroke-width="0.035" stroke-linejoin="round" points="10.464 34.079 8.355 33.058 8.355 34.92 10.464 34.079"/>
 <line stroke-width="0.314" stroke-linejoin="round" x1="8.797" y1="34.037" x2="6.522" y2="34.037"/>
 <path stroke="none" fill="#000000" d="M8.355 33.058L8.355 34.912 10.464 34.079 8.355 33.058z"/>
 <line stroke-width="0.314" stroke-linejoin="round" x1="11.387" y1="35.912" x2="6.246" y2="35.912"/>
 <line stroke-width="0.314" stroke-linejoin="round" x1="8.465" y1="32.246" x2="6.246" y2="32.246"/>
 <line stroke-width="0.314" stroke-linejoin="round" x1="11.484" y1="32.314" x2="6.344" y2="32.314"/>
 <path stroke="none" fill="#E5E5E5" d="M5.53 32.301L4.642 32.457 3.416 33.006 2.53 33.683 1.746 34.676 1.225 35.694 0.964 36.737 0.964 37.337 1.33 40.128 1.016 40.363 1.304 40.625 1.304 42.92 1.486 43.13 1.355 43.39 0.338 43.365 1.225 44.381 1.382 44.904 1.851 45.399 2.347 45.713 2.765 45.765 3.443 45.79 4.017 45.53 4.434 45.191 4.669 44.826 4.748 40.546 4.982 40.338 4.669 40.128 4.695 35.798 5.583 33.945 5.53 32.301z"/>
 <path stroke-width="0.314" stroke-linejoin="round" d="M5.245 32.322C2.766 32.701 0.934 34.834 0.934 37.341C0.934 37.353 0.934 37.363 0.934 37.374"/>
 <path stroke-width="0.314" stroke-linejoin="round" d="M1.282 44.743C1.603 45.402 2.272 45.82 3.004 45.82C3.69 45.82 4.323 45.454 4.665 44.859"/>
 <polyline stroke-width="0.035" stroke-linejoin="round" points="5.916 43.259 5.448 43.231 4.841 42.859"/>
 <line stroke-width="0.314" stroke-linejoin="round" x1="1.258" y1="40.915" x2="1.258" y2="40.585"/>
 <line stroke-width="0.314" stroke-linejoin="round" x1="1.258" y1="40.598" x2="0.927" y2="40.35"/>
 <line stroke-width="0.314" stroke-linejoin="round" x1="0.941" y1="40.337" x2="1.272" y2="40.06"/>
 <g>
  <polyline stroke-width="0.314" stroke-linejoin="round" points="4.718 40.06 4.993 40.337 4.689 40.543"/>
  <polyline stroke-width="0.035" stroke-linejoin="round" points="4.689 40.543 4.661 40.915"/>
 </g>
 <line stroke-width="0.314" stroke-linejoin="round" x1="4.718" y1="40.06" x2="4.718" y2="35.844"/>
 <line stroke-width="0.314" stroke-linejoin="round" x1="6.399" y1="46.222" x2="4.799" y2="46.222"/>
 <line stroke-width="0.314" stroke-linejoin="round" x1="3.063" y1="42.652" x2="3.063" y2="45.064"/>
 <line stroke-width="0.314" stroke-linejoin="round" x1="0.941" y1="37.374" x2="1.272" y2="40.06"/>
 <line stroke-width="0.314" stroke-linejoin="round" x1="1.258" y1="40.915" x2="1.258" y2="42.859"/>
 <line stroke-width="0.314" stroke-linejoin="round" x1="1.258" y1="42.872" x2="1.367" y2="43.204"/>
 <polyline stroke-width="0.314" stroke-linejoin="round" points="1.367 43.189 1.367 43.396 0.279 43.396 0.279 44.457"/>
 <line stroke-width="0.314" stroke-linejoin="round" x1="0.279" y1="44.472" x2="1.133" y2="44.472"/>
 <line stroke-width="0.314" stroke-linejoin="round" x1="1.147" y1="44.472" x2="1.286" y2="44.746"/>
 <polyline stroke-width="0.314" stroke-linejoin="round" points="0.845 44.472 0.845 45.835 2.883 45.835"/>
 <line stroke-width="0.035" stroke-linejoin="round" x1="4.661" y1="40.915" x2="1.258" y2="40.915"/>
 <line stroke-width="0.035" stroke-linejoin="round" x1="1.258" y1="40.06" x2="4.718" y2="40.06"/>
 <line stroke-width="0.159" stroke-linejoin="round" x1="5.586" y1="33.899" x2="5.586" y2="30.951"/>
 <line stroke-width="0.159" stroke-linejoin="round" x1="4.718" y1="35.844" x2="5.599" y2="33.899"/>
 <line stroke-width="0.035" stroke-linejoin="round" x1="2.993" y1="41.012" x2="2.153" y2="43.259"/>
 <path stroke="none" fill="#000000" d="M2.168 43.259L3.952 43.259 3.001 41.011 2.168 43.259z"/>
 <line stroke-width="0.035" stroke-linejoin="round" x1="3.944" y1="43.259" x2="2.993" y2="41.012"/>
 <line stroke-width="0.035" stroke-linejoin="round" x1="2.168" y1="43.259" x2="3.944" y2="43.259"/>
 <path stroke="none" fill="#E5E5E5" d="M0.417 43.411L0.391 44.402 1.304 44.402 0.417 43.411z"/>
 <polyline stroke-width="0.628" stroke-linejoin="round" points="18.032 8.291 17.565 8.192 17.109 8.092 16.687 8 16.326 7.924 16.05 7.865 15.843 7.822 15.673 7.785 15.534 7.754 15.417 7.732 15.321 7.719 15.234 7.714 15.156 7.714 15.09 7.716 15.047 7.719 15.032 7.719"/>
 <path stroke="none" fill="#E5E5E5" d="M13.566 7.671L13.362 7.653 13.138 7.282 12.73 7.262 12.432 7.596 12.173 7.282 11.763 7.243 11.503 7.56 11.448 7.541 11.188 7.262 10.872 7.243 10.538 7.578 10.333 7.373 9.647 7.243 9.647 7.615 8.586 7.671 8.568 6.835 8.475 6.871 8.215 6.927 7.919 7.336 7.825 7.801 5.466 7.727 5.038 7.485 4.759 7.131 4.759 6.687 4.927 6.556 5.019 6.333 4.982 6.203 4.629 5.849 4.536 4.532 4.017 3.974 3.291 3.64 2.624 3.602 1.881 3.956 1.398 4.532 1.322 4.772 0.413 4.754 0.357 5.738 1.137 5.721 1.082 6.147 0.748 6.482 0.748 6.482 0.766 6.835 1.1 7.02 1.173 7.503 1.342 8.525 1.992 9.695 3.144 10.736 4.593 11.33 5.857 11.368 8.029 11.721 8.198 12.259 8.401 12.519 8.568 12.612 8.624 11.776 9.739 11.833 10.185 11.869 10.612 11.535 10.649 11.794 11.003 12.092 11.374 11.907 11.448 11.683 11.56 11.683 11.653 11.98 12.023 12.037 12.359 11.869 12.432 11.702 12.506 11.683 12.599 11.943 12.971 12.018 13.269 11.962 13.343 11.814 13.714 11.349 13.566 7.671z"/>
 <path stroke-width="0.314" stroke-linejoin="round" d="M13.355 7.679C13.355 7.431 13.153 7.23 12.907 7.23C12.66 7.23 12.46 7.431 12.46 7.679"/>
 <path stroke-width="0.314" stroke-linejoin="round" d="M12.46 11.548C12.458 11.564 12.458 11.58 12.458 11.596C12.458 11.853 12.666 12.063 12.923 12.063C13.163 12.063 13.362 11.881 13.387 11.644"/>
 <path stroke-width="0.314" stroke-linejoin="round" d="M12.396 7.679C12.396 7.431 12.195 7.23 11.948 7.23C11.701 7.23 11.5 7.431 11.5 7.679"/>
 <path stroke-width="0.314" stroke-linejoin="round" d="M11.5 11.548C11.5 11.564 11.499 11.58 11.499 11.596C11.499 11.853 11.707 12.063 11.964 12.063C12.202 12.063 12.403 11.881 12.428 11.644"/>
 <path stroke-width="0.314" stroke-linejoin="round" d="M11.436 7.679C11.436 7.431 11.236 7.23 10.989 7.23C10.74 7.23 10.541 7.431 10.541 7.679"/>
 <path stroke-width="0.314" stroke-linejoin="round" d="M10.541 11.548C10.539 11.564 10.538 11.58 10.538 11.596C10.538 11.853 10.747 12.063 11.005 12.063C11.243 12.063 11.444 11.881 11.468 11.644"/>
 <line stroke-width="0.035" stroke-linejoin="round" x1="11.471" y1="11.641" x2="11.444" y2="7.671"/>
 <path stroke-width="0.314" stroke-linejoin="round" d="M10.541 7.615C10.367 7.381 10.096 7.24 9.804 7.23"/>
 <path stroke-width="0.314" stroke-linejoin="round" d="M9.612 11.869C9.701 11.899 9.791 11.913 9.884 11.913C10.176 11.913 10.448 11.763 10.605 11.518"/>
 <path stroke-width="0.314" stroke-linejoin="round" d="M8.205 6.91C7.945 7.121 7.791 7.439 7.79 7.774"/>
 <path stroke-width="0.314" stroke-linejoin="round" d="M7.911 11.635C8.006 12.01 8.18 12.359 8.423 12.659"/>
 <path stroke-width="0.314" stroke-linejoin="round" d="M1.072 7.008C1.072 7.027 1.072 7.046 1.072 7.067C1.072 9.477 3.028 11.433 5.44 11.433C5.551 11.433 5.663 11.429 5.774 11.422"/>
 <path stroke-width="0.314" stroke-linejoin="round" d="M4.751 6.687C4.748 6.716 4.746 6.746 4.746 6.777C4.746 7.222 5.052 7.609 5.487 7.711"/>
 <path stroke-width="0.314" stroke-linejoin="round" d="M0.849 6.333C0.748 6.408 0.689 6.527 0.689 6.65C0.689 6.841 0.823 7.003 1.008 7.038"/>
 <line stroke-width="0.314" stroke-linejoin="round" x1="4.58" y1="5.825" x2="4.868" y2="6.059"/>
 <line stroke-width="0.314" stroke-linejoin="round" x1="0.845" y1="6.334" x2="1.078" y2="6.086"/>
 <path stroke-width="0.314" stroke-linejoin="round" d="M4.751 6.687C4.926 6.669 5.059 6.522 5.059 6.346C5.059 6.221 4.99 6.105 4.879 6.046"/>
 <path stroke-width="0.314" stroke-linejoin="round" d="M4.559 4.575C4.254 3.967 3.633 3.581 2.952 3.581C2.197 3.581 1.522 4.056 1.265 4.767"/>
 <line stroke-width="0.314" stroke-linejoin="round" x1="5.778" y1="11.419" x2="7.984" y2="11.778"/>
 <line stroke-width="0.314" stroke-linejoin="round" x1="5.488" y1="7.713" x2="7.791" y2="7.782"/>
 <line stroke-width="0.314" stroke-linejoin="round" x1="4.937" y1="3.785" x2="4.937" y2="5.742"/>
 <line stroke-width="0.314" stroke-linejoin="round" x1="4.937" y1="3.785" x2="4.937" y2="3.04"/>
 <line stroke-width="0.314" stroke-linejoin="round" x1="9.058" y1="11.82" x2="9.624" y2="11.861"/>
 <line stroke-width="0.314" stroke-linejoin="round" x1="9.609" y1="7.671" x2="9.609" y2="7.368"/>
 <line stroke-width="0.314" stroke-linejoin="round" x1="9.596" y1="7.644" x2="8.59" y2="7.644"/>
 <polyline stroke-width="0.314" stroke-linejoin="round" points="2.69 3.564 0.927 3.564 0.927 4.777"/>
 <line stroke-width="0.314" stroke-linejoin="round" x1="1.258" y1="4.762" x2="0.307" y2="4.762"/>
 <polyline stroke-width="0.314" stroke-linejoin="round" points="0.321 4.762 0.321 5.796 1.298 5.796"/>
 <line stroke-width="0.035" stroke-linejoin="round" x1="1.286" y1="5.796" x2="1.258" y2="4.762"/>
 <line stroke-width="0.035" stroke-linejoin="round" x1="2.14" y1="8.375" x2="3.697" y2="7.767"/>
 <line stroke-width="0.035" stroke-linejoin="round" x1="3.684" y1="7.767" x2="2.209" y2="6.182"/>
 <line stroke-width="0.035" stroke-linejoin="round" x1="2.209" y1="6.197" x2="2.126" y2="8.387"/>
 <polyline stroke-width="0.314" stroke-linejoin="round" points="9.789 7.161 9.609 7.161 9.596 7.341"/>
 <line stroke-width="0.314" stroke-linejoin="round" x1="8.217" y1="6.859" x2="8.465" y2="6.844"/>
 <line stroke-width="0.314" stroke-linejoin="round" x1="9.101" y1="11.82" x2="8.577" y2="11.806"/>
 <line stroke-width="0.314" stroke-linejoin="round" x1="4.524" y1="4.57" x2="4.621" y2="5.894"/>
 <line stroke-width="0.314" stroke-linejoin="round" x1="1.286" y1="4.804" x2="1.092" y2="6.099"/>
 <path stroke-width="0.314" stroke-linejoin="round" d="M2.899 7.956C3.197 8.807 4 9.377 4.9 9.377C5.006 9.377 5.112 9.368 5.216 9.352"/>
 <line stroke-width="0.035" stroke-linejoin="round" x1="12.464" y1="11.544" x2="12.464" y2="7.602"/>
 <line stroke-width="0.035" stroke-linejoin="round" x1="12.422" y1="11.641" x2="12.394" y2="7.671"/>
 <line stroke-width="0.035" stroke-linejoin="round" x1="11.499" y1="11.544" x2="11.499" y2="7.602"/>
 <line stroke-width="0.035" stroke-linejoin="round" x1="10.548" y1="11.544" x2="10.548" y2="7.602"/>
 <line stroke-width="0.035" stroke-linejoin="round" x1="9.609" y1="11.875" x2="9.609" y2="7.685"/>
 <path stroke-width="0.035" stroke-linejoin="round" d="M4.751 6.687C4.306 6.216 3.687 5.948 3.039 5.948C2.246 5.948 1.508 6.346 1.072 7.006"/>
 <polyline stroke-width="0.035" stroke-linejoin="round" points="1.092 6.086 1.167 6.009 1.53 5.737 1.931 5.53 2.36 5.389 2.806 5.32 3.258 5.325 3.705 5.403 4.131 5.551 4.528 5.769 4.596 5.823"/>
 <path stroke="none" fill="#000000" d="M3.697 7.753L2.036 8.394 2.27 6.123 3.697 7.753z"/>
 <line stroke-width="0.035" stroke-linejoin="round" x1="8.577" y1="23.701" x2="8.577" y2="3.785"/>
 <line stroke-width="0.314" stroke-linejoin="round" x1="14.159" y1="25.079" x2="14.159" y2="23.452"/>
 <path stroke-width="0.628" stroke-linejoin="round" d="M23.503 29.852C23.332 29.82 23.157 29.803 22.981 29.803C21.908 29.803 20.926 30.414 20.452 31.378"/>
 <path stroke-width="0.628" stroke-linejoin="round" d="M19.065 32.003C19.143 32.017 19.225 32.024 19.304 32.024C19.774 32.024 20.208 31.78 20.452 31.379"/>
 <path stroke-width="0.628" stroke-linejoin="round" d="M19.117 35.85C19.149 35.85 19.181 35.851 19.213 35.851C20.542 35.851 21.746 35.07 22.289 33.856"/>
 <path stroke-width="0.628" stroke-linejoin="round" d="M23.641 33.561C23.512 33.524 23.378 33.505 23.242 33.505C22.899 33.505 22.565 33.63 22.306 33.856"/>
 <path stroke-width="0.628" stroke-linejoin="round" d="M19.856 9.936C20.408 11.278 21.714 12.154 23.166 12.154L23.184 12.154"/>
 <path stroke-width="0.628" stroke-linejoin="round" d="M19.858 9.936C19.632 9.041 18.882 8.378 17.966 8.262"/>
 <path stroke-width="0.628" stroke-linejoin="round" d="M18.205 12.72C19.172 14.119 20.763 14.958 22.466 14.958C22.736 14.958 23.004 14.936 23.271 14.894"/>
 <path stroke-width="0.628" stroke-linejoin="round" d="M18.205 12.72C17.31 12.137 16.265 11.827 15.198 11.827C15.157 11.827 15.115 11.827 15.074 11.827"/>
 <line stroke-width="0.035" stroke-linejoin="round" x1="16.873" y1="19.635" x2="16.873" y2="12.164"/>
 <line stroke-width="0.035" stroke-linejoin="round" x1="19.286" y1="15.086" x2="19.286" y2="13.832"/>
 <line stroke-width="0.035" stroke-linejoin="round" x1="16.873" y1="30.068" x2="16.873" y2="31.777"/>
 <line stroke-width="0.035" stroke-linejoin="round" x1="19.286" y1="30.027" x2="19.286" y2="31.681"/>
 <path stroke="none" fill="#E5E5E5" d="M23.669 30.027L23.335 29.978 22.879 29.966 22.297 30.051 21.705 30.286 21.286 30.582 20.916 30.966 20.557 31.533 20.248 31.853 19.952 32.027 19.57 32.162 19.161 32.2 19.161 35.731 19.483 35.694 20.112 35.594 20.631 35.372 21.138 35.088 21.533 34.719 21.865 34.36 22.199 33.78 22.396 33.631 22.718 33.472 22.977 33.384 23.669 33.372 23.669 30.027z"/>
 <path stroke="none" fill="#E5E5E5" d="M23.283 12.234L22.763 12.247 22.199 12.147 21.548 11.945 20.841 11.51 20.306 10.977 19.829 10.269 19.614 9.676 19.382 9.185 19.007 8.81 18.356 8.448 17.995 8.404 15.452 7.857 15.005 7.841 14.975 7.451 14.759 7.48 14.426 7.682 14.253 7.682 14.195 7.466 14.022 7.307 13.907 7.278 13.734 7.264 13.545 7.524 13.503 7.639 13.487 11.641 13.662 11.945 14.095 11.974 14.326 11.641 14.599 11.714 14.917 11.743 15.076 11.685 15.929 11.727 16.882 11.96 18.024 12.422 18.341 12.653 18.789 13.23 19.309 13.75 20.132 14.285 21.071 14.631 21.765 14.776 22.371 14.891 22.371 14.891 23.341 14.806 23.283 12.234z"/>
 <path stroke-width="0.314" stroke-linejoin="round" d="M15.019 7.359C14.769 7.375 14.531 7.477 14.346 7.647"/>
 <path stroke-width="0.314" stroke-linejoin="round" d="M14.346 11.71C14.525 11.798 14.723 11.843 14.922 11.843C14.964 11.843 15.007 11.84 15.05 11.836"/>
 <line stroke-width="0.035" stroke-linejoin="round" x1="15.041" y1="7.617" x2="15.012" y2="7.355"/>
 <line stroke-width="0.035" stroke-linejoin="round" x1="15.041" y1="7.617" x2="15.041" y2="11.833"/>
 <line stroke-width="0.314" stroke-linejoin="round" x1="15.592" y1="7.561" x2="15.73" y2="7.81"/>
 <line stroke-width="0.035" stroke-linejoin="round" x1="13.387" y1="11.641" x2="13.359" y2="7.671"/>
 <path stroke-width="0.314" stroke-linejoin="round" d="M14.316 7.679C14.316 7.431 14.115 7.23 13.868 7.23C13.621 7.23 13.419 7.431 13.419 7.679"/>
 <path stroke-width="0.314" stroke-linejoin="round" d="M13.419 11.548C13.417 11.564 13.416 11.58 13.416 11.596C13.416 11.853 13.625 12.063 13.882 12.063C14.121 12.063 14.321 11.881 14.346 11.644"/>
 <line stroke-width="0.035" stroke-linejoin="round" x1="14.352" y1="11.641" x2="14.323" y2="7.671"/>
 <line stroke-width="0.035" stroke-linejoin="round" x1="13.413" y1="11.544" x2="13.413" y2="7.602"/>
 <path stroke-width="0.314" stroke-linejoin="round" d="M47.728 6.405C47.515 5.96 47.201 5.702 46.868 5.702C46.253 5.702 45.753 6.573 45.753 7.647C45.753 8.723 46.253 9.595 46.868 9.595C47.201 9.595 47.515 9.336 47.728 8.891"/>
 <line stroke-width="0.035" stroke-linejoin="round" x1="48.216" y1="6.266" x2="47.334" y2="6.528"/>
 <line stroke-width="0.035" stroke-linejoin="round" x1="47.334" y1="6.514" x2="48.189" y2="7.74"/>
 <path stroke="none" fill="#000000" d="M48.216 6.266L47.329 6.522 48.188 7.753 48.216 6.266z"/>
 <line stroke-width="0.035" stroke-linejoin="round" x1="48.189" y1="7.753" x2="48.216" y2="6.266"/>
 <polyline stroke-width="0.314" stroke-linejoin="round" points="42.606 17.471 42.743 17.082 42.838 16.718 42.941 16.376 43.094 16.056 43.35 15.755 43.71 15.548 44.133 15.457 44.59 15.399 45.054 15.297 45.494 15.07 45.844 14.73 46.176 14.287 46.472 13.814 46.71 13.384 46.866 13.073 46.923 12.948"/>
 <polyline stroke-width="0.314" stroke-linejoin="round" points="51.841 17.332 51.712 17.001 51.612 16.687 51.511 16.394 51.378 16.123 51.182 15.875 50.945 15.688 50.703 15.573 50.442 15.492 50.158 15.404 49.838 15.275 49.456 15.079 49.031 14.852 48.639 14.638 48.35 14.48 48.24 14.41"/>
 <line stroke-width="0.035" stroke-linejoin="round" x1="46.039" y1="13.185" x2="47.21" y2="13.818"/>
 <line stroke-width="0.035" stroke-linejoin="round" x1="47.21" y1="13.804" x2="47.609" y2="11.971"/>
 <line stroke-width="0.035" stroke-linejoin="round" x1="47.609" y1="11.986" x2="46.039" y2="13.185"/>
 <polyline stroke-width="0.035" stroke-linejoin="round" points="47.761 13.75 49.332 14.493 48.395 15.237"/>
 <line stroke-width="0.035" stroke-linejoin="round" x1="48.381" y1="15.237" x2="47.747" y2="13.75"/>
 <path stroke-width="0.314" stroke-linejoin="round" d="M35.719 15.84L35.694 15.84C34.774 15.84 34.027 16.588 34.027 17.507C34.027 17.553 34.027 17.597 34.031 17.641"/>
 <polyline stroke-width="0.035" stroke-linejoin="round" points="35.798 15.292 35.743 16.327 37.341 15.817"/>
 <path stroke="none" fill="#000000" d="M47.609 11.986L46.036 13.186 47.209 13.816 47.609 11.986z"/>
 <path stroke="none" fill="#000000" d="M47.761 13.75L49.334 14.493 48.39 15.237 47.761 13.75z"/>
 <path stroke="none" fill="#000000" d="M37.354 15.817L35.811 15.301 35.753 16.332 37.354 15.817z"/>
 <line stroke-width="0.035" stroke-linejoin="round" x1="37.354" y1="15.817" x2="35.811" y2="15.307"/>
 <path stroke-width="0.314" stroke-linejoin="round" d="M60.924 17.641C60.929 17.597 60.929 17.553 60.929 17.507C60.929 16.588 60.183 15.84 59.262 15.84L59.237 15.84"/>
 <line stroke-width="0.035" stroke-linejoin="round" x1="59.215" y1="16.327" x2="57.615" y2="15.817"/>
 <path stroke="none" fill="#000000" d="M57.601 15.817L59.146 15.301 59.204 16.332 57.601 15.817z"/>
 <line stroke-width="0.035" stroke-linejoin="round" x1="57.601" y1="15.817" x2="59.146" y2="15.307"/>
 <path stroke-width="0.314" stroke-linejoin="round" d="M27.448 15.824L27.422 15.823C26.501 15.823 25.756 16.571 25.756 17.492C25.756 17.536 25.757 17.58 25.76 17.626"/>
 <polyline stroke-width="0.035" stroke-linejoin="round" points="27.527 15.279 27.472 16.312 29.071 15.803"/>
 <path stroke="none" fill="#000000" d="M29.071 15.789L27.527 15.275 27.469 16.304 29.071 15.789z"/>
 <line stroke-width="0.035" stroke-linejoin="round" x1="29.071" y1="15.789" x2="27.527" y2="15.279"/>
 <path stroke-width="0.314" stroke-linejoin="round" d="M69.813 17.53C69.816 17.486 69.817 17.44 69.817 17.396C69.817 16.475 69.07 15.728 68.15 15.728L68.125 15.728"/>
 <line stroke-width="0.035" stroke-linejoin="round" x1="68.09" y1="16.216" x2="66.492" y2="15.707"/>
 <path stroke="none" fill="#000000" d="M66.492 15.707L68.036 15.192 68.093 16.222 66.492 15.707z"/>
 <line stroke-width="0.035" stroke-linejoin="round" x1="66.492" y1="15.707" x2="68.036" y2="15.196"/>
 <path stroke-width="0.314" stroke-linejoin="round" d="M24.65 32.176C24.885 32.295 25.143 32.356 25.405 32.356C26.091 32.356 26.707 31.937 26.957 31.298"/>
 <path stroke="none" fill="#000000" d="M27.597 29.806L27.486 31.431 26.513 31.092 27.597 29.806z"/>
 <line stroke-width="0.035" stroke-linejoin="round" x1="26.521" y1="31.088" x2="27.611" y2="29.806"/>
 <path stroke-width="0.314" stroke-linejoin="round" d="M33.377 32.176C33.61 32.295 33.868 32.356 34.131 32.356C34.817 32.356 35.432 31.937 35.683 31.298"/>
 <path stroke="none" fill="#000000" d="M36.335 29.806L36.225 31.431 35.25 31.092 36.335 29.806z"/>
 <line stroke-width="0.035" stroke-linejoin="round" x1="35.246" y1="31.088" x2="36.335" y2="29.806"/>
 <path stroke-width="0.314" stroke-linejoin="round" d="M41.883 32.176C42.116 32.295 42.375 32.356 42.637 32.356C43.323 32.356 43.939 31.937 44.189 31.298"/>
 <path stroke="none" fill="#000000" d="M44.838 29.806L44.728 31.431 43.755 31.092 44.838 29.806z"/>
 <line stroke-width="0.035" stroke-linejoin="round" x1="43.75" y1="31.088" x2="44.838" y2="29.806"/>
 <path stroke-width="0.314" stroke-linejoin="round" d="M50.609 32.176C50.843 32.295 51.101 32.356 51.363 32.356C52.049 32.356 52.664 31.937 52.915 31.298"/>
 <path stroke="none" fill="#000000" d="M53.564 29.806L53.454 31.431 52.479 31.092 53.564 29.806z"/>
 <line stroke-width="0.035" stroke-linejoin="round" x1="52.475" y1="31.088" x2="53.564" y2="29.806"/>
 <path stroke-width="0.314" stroke-linejoin="round" d="M59.113 32.176C59.348 32.295 59.606 32.356 59.869 32.356C60.554 32.356 61.17 31.937 61.421 31.298"/>
 <path stroke="none" fill="#000000" d="M62.067 29.806L61.957 31.431 60.984 31.092 62.067 29.806z"/>
 <line stroke-width="0.035" stroke-linejoin="round" x1="60.978" y1="31.088" x2="62.067" y2="29.806"/>
 <path stroke-width="0.314" stroke-linejoin="round" d="M67.456 32.176C67.689 32.295 67.947 32.356 68.21 32.356C68.896 32.356 69.512 31.937 69.763 31.298"/>
 <path stroke="none" fill="#000000" d="M70.406 29.806L70.296 31.431 69.322 31.092 70.406 29.806z"/>
 <line stroke-width="0.035" stroke-linejoin="round" x1="69.331" y1="31.088" x2="70.42" y2="29.806"/>
 <line stroke-width="0.035" stroke-linejoin="round" x1="38.554" y1="8.622" x2="37.204" y2="7.713"/>
 <polyline stroke-width="0.035" stroke-linejoin="round" points="37.204 7.698 36.956 9.201 38.567 8.622"/>
 <polyline stroke-width="0.314" stroke-linejoin="round" points="37.314 8.484 36.859 8.425 36.46 8.385 36.082 8.35 35.7 8.301 35.28 8.223 34.792 8.096 34.198 7.889 33.53 7.607 32.871 7.304 32.299 7.025 31.896 6.82 31.745 6.737"/>
 <polyline stroke-width="0.314" stroke-linejoin="round" points="41.435 11.861 41.378 12.038 41.335 12.201 41.292 12.355 41.231 12.506 41.13 12.664 40.997 12.814 40.851 12.939 40.692 13.048 40.517 13.148 40.326 13.246 40.154 13.33 40.009 13.391 39.863 13.439 39.683 13.48 39.439 13.522 39.046 13.557 38.43 13.58 37.723 13.595 37.055 13.602 36.56 13.605 36.366 13.605"/>
 <line stroke-width="0.035" stroke-linejoin="round" x1="36.692" y1="13.019" x2="36.692" y2="14.176"/>
 <line stroke-width="0.035" stroke-linejoin="round" x1="36.692" y1="14.191" x2="34.832" y2="13.557"/>
 <path stroke="none" fill="#000000" d="M38.554 8.622L37.197 7.708 36.948 9.204 38.554 8.622z"/>
 <path stroke="none" fill="#000000" d="M36.692 13.019L34.838 13.544 36.692 14.182 36.692 13.019z"/>
 <line stroke-width="0.035" stroke-linejoin="round" x1="34.847" y1="13.542" x2="36.734" y2="13.047"/>
 <polyline stroke-width="0.035" stroke-linejoin="round" points="61.075 7.272 59.435 7.174 59.972 8.595 61.061 7.285"/>
 <polyline stroke-width="0.314" stroke-linejoin="round" points="59.917 7.796 59.496 7.974 59.131 8.143 58.787 8.303 58.432 8.455 58.03 8.599 57.546 8.737 56.929 8.858 56.212 8.952 55.487 9.025 54.853 9.073 54.404 9.101 54.237 9.101"/>
 <path stroke="none" fill="#000000" d="M61.075 7.272L59.442 7.169 59.984 8.586 61.075 7.272z"/>
 <path stroke-width="0.314" stroke-linejoin="round" d="M18.984 11.637C19.981 12.855 21.455 13.583 23.028 13.637"/>
 <polyline stroke-width="0.035" stroke-linejoin="round" points="19.423 11.419 18.748 12.205 17.646 11.035"/>
 <path stroke="none" fill="#000000" d="M19.423 11.419L17.64 11.028 18.75 12.202 19.423 11.419z"/>
 <line stroke-width="0.035" stroke-linejoin="round" x1="17.632" y1="11.035" x2="19.41" y2="11.419"/>
 <polyline stroke-width="0.035" stroke-linejoin="round" points="21.16 32.343 21.766 33.018 22.539 31.888"/>
 <line stroke-width="0.035" stroke-linejoin="round" x1="22.553" y1="31.888" x2="21.16" y2="32.343"/>
 <polyline stroke-width="0.314" stroke-linejoin="round" points="21.629 32.591 21.393 32.784 21.182 32.966 20.981 33.137 20.775 33.296 20.553 33.445 20.343 33.572 20.166 33.668 19.996 33.746 19.811 33.816 19.582 33.887 19.283 33.953 18.943 34.005 18.626 34.04 18.39 34.061 18.294 34.061"/>
 <path stroke="none" fill="#000000" d="M22.553 31.888L21.166 32.341 21.774 33.015 22.553 31.888z"/>
</svg>
