<?xml version="1.0" encoding="utf-8"?>
<!DOCTYPE svg PUBLIC "-//W3C//DTD SVG 1.1//EN" "http://www.w3.org/Graphics/SVG/1.1/DTD/svg11.dtd">
<!-- Generator: PTC Arbortext IsoDraw 7.3 -->
<svg width="100%" height="100%" viewBox="0 0 75 156.165"
 xmlns="http://www.w3.org/2000/svg" xmlns:xlink="http://www.w3.org/1999/xlink"
 fill-rule="evenodd" clip-rule="evenodd" stroke="#000000" stroke-linecap="round" fill="none" xml:space="preserve">
 <g id="Frame">
  <path stroke="none" fill="#FFFFFF" d="M75 156.165L0 156.165 0 0 75 0 75 156.165 75 156.165z"/>
 </g>
 <g id="Colour">
 </g>
 <g id="Standard_x0020_layer">
  <g>
   <path stroke-width="0.25" stroke-linecap="butt" stroke-linejoin="round" d="M26.89 68.704C26.89 68.704 22.679 61.841 22.289 61.374C21.899 60.905 21.899 60.204 21.899 59.814C21.899 59.424 21.899 30.333 21.899 30.333"/>
   <path stroke-width="0.25" stroke-linecap="butt" stroke-linejoin="round" d="M21.586 62.698C21.978 62.698 22.21 63.167 22.21 64.492C22.21 65.819 23.146 66.911 24.239 66.911L25.643 66.911"/>
   <path stroke-width="0.25" stroke-linecap="butt" stroke-linejoin="round" d="M21.185 17.87L26.021 17.87L26.021 13.429"/>
   <path stroke-width="0.13" stroke-linecap="butt" stroke-linejoin="round" d="M28.283 12.631L28.283 27.032"/>
   <path stroke-width="0.25" stroke-linecap="butt" stroke-linejoin="round" d="M31.858 18.952L31.858 21.434"/>
   <path stroke-width="0.25" stroke-linecap="butt" stroke-linejoin="round" d="M35.646 21.57L35.646 26.981"/>
   <path stroke-width="0.13" stroke-linecap="butt" stroke-linejoin="round" d="M35.6 22.696L31.678 22.696"/>
   <path stroke-width="0.13" stroke-linecap="butt" stroke-linejoin="round" d="M31.768 21.073L29.647 21.073"/>
   <path stroke-width="0.25" stroke-linecap="butt" stroke-linejoin="round" d="M16.234 56.435L18.175 56.435L18.175 61.079L16.28 61.079"/>
   <path stroke-width="0.35" stroke-linecap="butt" stroke-linejoin="round" d="M53.987 65.194C53.987 66.832 52.661 68.748 51.198 68.748L39.784 68.748C39.317 68.748 39.238 68.393 39.238 67.924C39.238 67.456 39.238 66.442 39.238 65.974C39.238 65.507 38.536 65.585 38.536 65.585L36.003 65.585C36.003 65.585 35.301 65.507 35.301 65.974C35.301 66.442 35.301 67.456 35.301 67.924C35.301 68.393 35.223 68.748 34.756 68.748L23.361 68.748C21.899 68.748 20.574 66.832 20.574 65.194"/>
   <path stroke-width="0.25" stroke-linecap="butt" stroke-linejoin="round" d="M19.17 19.807C19.17 20.745 19.17 21.443 19.17 22.614C19.17 23.783 18.701 24.64 17.922 24.64C17.141 24.64 16.361 24.64 16.361 24.64"/>
   <path stroke-width="0.25" stroke-linecap="butt" stroke-linejoin="round" d="M58.198 24.64C58.198 24.64 57.417 24.64 56.637 24.64C55.857 24.64 55.39 23.783 55.39 22.614C55.39 21.443 55.39 20.743 55.39 19.806"/>
   <path stroke-width="0.25" stroke-linecap="butt" stroke-linejoin="round" d="M47.67 68.704C47.67 68.704 51.881 61.841 52.271 61.374C52.661 60.905 52.661 60.204 52.661 59.814C52.661 59.424 52.661 30.333 52.661 30.333"/>
   <path stroke-width="0.25" stroke-linecap="butt" stroke-linejoin="round" d="M52.972 62.698C52.582 62.698 52.348 63.167 52.348 64.492C52.348 65.819 51.412 66.911 50.322 66.911L48.917 66.911"/>
   <path stroke-width="0.25" stroke-linecap="butt" stroke-linejoin="round" d="M53.354 17.87L48.52 17.87L48.52 13.429"/>
   <path stroke-width="0.13" stroke-linecap="butt" stroke-linejoin="round" d="M46.258 12.631L46.258 27.032"/>
   <path stroke-width="0.13" stroke-linecap="butt" stroke-linejoin="round" d="M53.128 30.333L37.271 30.333L21.431 30.333"/>
   <path stroke-width="0.13" stroke-linecap="butt" stroke-linejoin="round" d="M53.128 29.009L37.271 29.009L21.431 29.009"/>
   <path stroke-width="0.13" stroke-linecap="butt" stroke-linejoin="round" d="M46.244 14.534L37.271 14.534L28.295 14.534"/>
   <path stroke-width="0.25" stroke-linecap="butt" stroke-linejoin="round" d="M44.893 27.071C44.893 27.071 44.893 18.591 44.893 17.826C44.893 17.195 43.854 17.283 43.585 17.283C43.314 17.283 37.271 17.283 37.271 17.283C37.271 17.283 31.225 17.283 30.955 17.283C30.684 17.283 29.647 17.195 29.647 17.826C29.647 18.591 29.647 27.071 29.647 27.071"/>
   <path stroke-width="0.13" stroke-linecap="butt" stroke-linejoin="round" d="M44.893 17.826C44.893 17.195 44.216 16.548 43.585 16.548C43.314 16.548 37.271 16.548 37.271 16.548C37.271 16.548 31.225 16.548 30.955 16.548C30.324 16.548 29.647 17.195 29.647 17.826"/>
   <path stroke-width="0.25" stroke-linecap="butt" stroke-linejoin="round" d="M44.893 18.908L37.271 18.908L29.647 18.908"/>
   <path stroke-width="0.25" stroke-linecap="butt" stroke-linejoin="round" d="M42.682 18.952L42.682 21.434"/>
   <path stroke-width="0.13" stroke-linecap="butt" stroke-linejoin="round" d="M44.893 21.478L37.271 21.478L29.647 21.478"/>
   <path stroke-width="0.25" stroke-linecap="butt" stroke-linejoin="round" d="M38.893 21.57L38.893 26.981"/>
   <path stroke-width="0.13" stroke-linecap="butt" stroke-linejoin="round" d="M38.939 22.696L42.863 22.696"/>
   <path stroke-width="0.13" stroke-linecap="butt" stroke-linejoin="round" d="M38.804 22.201L37.271 22.201L35.737 22.201"/>
   <path stroke-width="0.13" stroke-linecap="butt" stroke-linejoin="round" d="M42.637 20.216L37.271 20.216L31.903 20.216"/>
   <path stroke-width="0.13" stroke-linecap="butt" stroke-linejoin="round" d="M42.773 21.073L44.893 21.073"/>
   <path stroke-width="0.25" stroke-linecap="butt" stroke-linejoin="round" d="M58.325 56.435L56.386 56.435L56.386 61.079L58.28 61.079"/>
   <g>
    <g>
     <path stroke-width="0.25" stroke-linecap="butt" stroke-linejoin="round" d="M30.504 33.1L28.705 33.1L28.705 30.885L25.896 30.885L25.896 33.1L24.099 33.1L24.099 35.073L25.896 35.073L25.896 37.289L28.705 37.289L28.705 35.073L30.504 35.073L30.504 33.1z"/>
     <path stroke-width="0.13" stroke-linecap="butt" stroke-linejoin="round" d="M27.3 30.859C27.3 30.859 30.324 30.859 31.045 30.859C31.766 30.859 32.037 31.221 32.037 31.673C32.037 32.124 32.037 35.822 32.037 36.634C32.037 37.445 31.315 37.716 31.045 38.438C30.774 39.159 29.376 40.152 27.3 40.152C25.225 40.152 23.827 39.159 23.557 38.438C23.286 37.716 22.565 37.445 22.565 36.634C22.565 35.822 22.565 32.124 22.565 31.673C22.565 31.221 22.835 30.859 23.557 30.859C24.278 30.859 27.3 30.859 27.3 30.859z"/>
     <path stroke-width="0.13" stroke-linecap="butt" stroke-linejoin="round" d="M31.361 37.862L23.242 37.862"/>
    </g>
    <g>
     <path stroke-width="0.25" stroke-linecap="butt" stroke-linejoin="round" d="M30.504 43.991L28.705 43.991L28.705 41.777L25.896 41.777L25.896 43.991L24.099 43.991L24.099 45.966L25.896 45.966L25.896 48.182L28.705 48.182L28.705 45.966L30.504 45.966L30.504 43.991z"/>
     <path stroke-width="0.13" stroke-linecap="butt" stroke-linejoin="round" d="M27.3 41.753C27.3 41.753 30.324 41.753 31.045 41.753C31.766 41.753 32.037 42.112 32.037 42.564C32.037 43.015 32.037 46.715 32.037 47.527C32.037 48.338 31.315 48.609 31.045 49.331C30.774 50.052 29.376 51.045 27.3 51.045C25.225 51.045 23.827 50.052 23.557 49.331C23.286 48.609 22.565 48.338 22.565 47.527C22.565 46.715 22.565 43.015 22.565 42.564C22.565 42.112 22.835 41.753 23.557 41.753C24.278 41.753 27.3 41.753 27.3 41.753z"/>
     <path stroke-width="0.13" stroke-linecap="butt" stroke-linejoin="round" d="M31.361 48.756L23.242 48.756"/>
    </g>
    <g>
     <path stroke-width="0.25" stroke-linecap="butt" stroke-linejoin="round" d="M30.504 54.884L28.705 54.884L28.705 52.67L25.896 52.67L25.896 54.884L24.099 54.884L24.099 56.859L25.896 56.859L25.896 59.073L28.705 59.073L28.705 56.859L30.504 56.859L30.504 54.884z"/>
     <path stroke-width="0.13" stroke-linecap="butt" stroke-linejoin="round" d="M27.3 52.646C27.3 52.646 30.324 52.646 31.045 52.646C31.766 52.646 32.037 53.006 32.037 53.457C32.037 53.908 32.037 57.606 32.037 58.418C32.037 59.231 31.315 59.502 31.045 60.222C30.774 60.945 29.376 61.936 27.3 61.936C25.225 61.936 23.827 60.945 23.557 60.222C23.286 59.502 22.565 59.231 22.565 58.418C22.565 57.606 22.565 53.908 22.565 53.457C22.565 53.006 22.835 52.646 23.557 52.646C24.278 52.646 27.3 52.646 27.3 52.646z"/>
     <path stroke-width="0.13" stroke-linecap="butt" stroke-linejoin="round" d="M31.361 59.649L23.242 59.649"/>
    </g>
   </g>
   <g>
    <g>
     <path stroke-width="0.25" stroke-linecap="butt" stroke-linejoin="round" d="M40.472 33.1L38.674 33.1L38.674 30.885L35.865 30.885L35.865 33.1L34.067 33.1L34.067 35.073L35.865 35.073L35.865 37.289L38.674 37.289L38.674 35.073L40.472 35.073L40.472 33.1z"/>
     <path stroke-width="0.13" stroke-linecap="butt" stroke-linejoin="round" d="M37.27 30.859C37.27 30.859 40.292 30.859 41.014 30.859C41.734 30.859 42.006 31.221 42.006 31.673C42.006 32.124 42.006 35.822 42.006 36.634C42.006 37.445 41.283 37.716 41.014 38.438C40.743 39.159 39.344 40.152 37.27 40.152C35.195 40.152 33.796 39.159 33.526 38.438C33.256 37.716 32.533 37.445 32.533 36.634C32.533 35.822 32.533 32.124 32.533 31.673C32.533 31.221 32.804 30.859 33.526 30.859C34.247 30.859 37.27 30.859 37.27 30.859z"/>
     <path stroke-width="0.13" stroke-linecap="butt" stroke-linejoin="round" d="M41.329 37.862L33.21 37.862"/>
    </g>
    <g>
     <path stroke-width="0.25" stroke-linecap="butt" stroke-linejoin="round" d="M40.472 43.991L38.674 43.991L38.674 41.777L35.865 41.777L35.865 43.991L34.067 43.991L34.067 45.966L35.865 45.966L35.865 48.182L38.674 48.182L38.674 45.966L40.472 45.966L40.472 43.991z"/>
     <path stroke-width="0.13" stroke-linecap="butt" stroke-linejoin="round" d="M37.27 41.753C37.27 41.753 40.292 41.753 41.014 41.753C41.734 41.753 42.006 42.112 42.006 42.564C42.006 43.015 42.006 46.715 42.006 47.527C42.006 48.338 41.283 48.609 41.014 49.331C40.743 50.052 39.344 51.045 37.27 51.045C35.195 51.045 33.796 50.052 33.526 49.331C33.256 48.609 32.533 48.338 32.533 47.527C32.533 46.715 32.533 43.015 32.533 42.564C32.533 42.112 32.804 41.753 33.526 41.753C34.247 41.753 37.27 41.753 37.27 41.753z"/>
     <path stroke-width="0.13" stroke-linecap="butt" stroke-linejoin="round" d="M41.329 48.756L33.21 48.756"/>
    </g>
    <g>
     <path stroke-width="0.25" stroke-linecap="butt" stroke-linejoin="round" d="M40.472 54.884L38.674 54.884L38.674 52.67L35.865 52.67L35.865 54.884L34.067 54.884L34.067 56.859L35.865 56.859L35.865 59.073L38.674 59.073L38.674 56.859L40.472 56.859L40.472 54.884z"/>
     <path stroke-width="0.13" stroke-linecap="butt" stroke-linejoin="round" d="M37.27 52.646C37.27 52.646 40.292 52.646 41.014 52.646C41.734 52.646 42.006 53.006 42.006 53.457C42.006 53.908 42.006 57.606 42.006 58.418C42.006 59.231 41.283 59.502 41.014 60.222C40.743 60.945 39.344 61.936 37.27 61.936C35.195 61.936 33.796 60.945 33.526 60.222C33.256 59.502 32.533 59.231 32.533 58.418C32.533 57.606 32.533 53.908 32.533 53.457C32.533 53.006 32.804 52.646 33.526 52.646C34.247 52.646 37.27 52.646 37.27 52.646z"/>
     <path stroke-width="0.13" stroke-linecap="butt" stroke-linejoin="round" d="M41.329 59.649L33.21 59.649"/>
    </g>
   </g>
   <g>
    <g>
     <path stroke-width="0.25" stroke-linecap="butt" stroke-linejoin="round" d="M50.439 33.1L48.642 33.1L48.642 30.885L45.832 30.885L45.832 33.1L44.033 33.1L44.033 35.073L45.832 35.073L45.832 37.289L48.642 37.289L48.642 35.073L50.439 35.073L50.439 33.1z"/>
     <path stroke-width="0.13" stroke-linecap="butt" stroke-linejoin="round" d="M47.237 30.859C47.237 30.859 50.259 30.859 50.981 30.859C51.703 30.859 51.972 31.221 51.972 31.673C51.972 32.124 51.972 35.822 51.972 36.634C51.972 37.445 51.25 37.716 50.981 38.438C50.71 39.159 49.311 40.152 47.237 40.152C45.162 40.152 43.764 39.159 43.493 38.438C43.222 37.716 42.5 37.445 42.5 36.634C42.5 35.822 42.5 32.124 42.5 31.673C42.5 31.221 42.771 30.859 43.493 30.859C44.215 30.859 47.237 30.859 47.237 30.859z"/>
     <path stroke-width="0.13" stroke-linecap="butt" stroke-linejoin="round" d="M51.296 37.862L43.176 37.862"/>
    </g>
    <g>
     <path stroke-width="0.25" stroke-linecap="butt" stroke-linejoin="round" d="M50.439 43.991L48.642 43.991L48.642 41.777L45.832 41.777L45.832 43.991L44.033 43.991L44.033 45.966L45.832 45.966L45.832 48.182L48.642 48.182L48.642 45.966L50.439 45.966L50.439 43.991z"/>
     <path stroke-width="0.13" stroke-linecap="butt" stroke-linejoin="round" d="M47.237 41.753C47.237 41.753 50.259 41.753 50.981 41.753C51.703 41.753 51.972 42.112 51.972 42.564C51.972 43.015 51.972 46.715 51.972 47.527C51.972 48.338 51.25 48.609 50.981 49.331C50.71 50.052 49.311 51.045 47.237 51.045C45.162 51.045 43.764 50.052 43.493 49.331C43.222 48.609 42.5 48.338 42.5 47.527C42.5 46.715 42.5 43.015 42.5 42.564C42.5 42.112 42.771 41.753 43.493 41.753C44.215 41.753 47.237 41.753 47.237 41.753z"/>
     <path stroke-width="0.13" stroke-linecap="butt" stroke-linejoin="round" d="M51.296 48.756L43.176 48.756"/>
    </g>
    <g>
     <path stroke-width="0.25" stroke-linecap="butt" stroke-linejoin="round" d="M50.439 54.884L48.642 54.884L48.642 52.67L45.832 52.67L45.832 54.884L44.033 54.884L44.033 56.859L45.832 56.859L45.832 59.073L48.642 59.073L48.642 56.859L50.439 56.859L50.439 54.884z"/>
     <path stroke-width="0.13" stroke-linecap="butt" stroke-linejoin="round" d="M47.237 52.646C47.237 52.646 50.259 52.646 50.981 52.646C51.703 52.646 51.972 53.006 51.972 53.457C51.972 53.908 51.972 57.606 51.972 58.418C51.972 59.231 51.25 59.502 50.981 60.222C50.71 60.945 49.311 61.936 47.237 61.936C45.162 61.936 43.764 60.945 43.493 60.222C43.222 59.502 42.5 59.231 42.5 58.418C42.5 57.606 42.5 53.908 42.5 53.457C42.5 53.006 42.771 52.646 43.493 52.646C44.215 52.646 47.237 52.646 47.237 52.646z"/>
     <path stroke-width="0.13" stroke-linecap="butt" stroke-linejoin="round" d="M51.296 59.649L43.176 59.649"/>
    </g>
   </g>
   <path stroke-width="0.25" stroke-linecap="butt" stroke-linejoin="round" d="M23.304 19.728L26.021 19.728L26.021 25.109L23.304 25.109L23.304 19.728z"/>
   <path stroke-width="0.25" stroke-linecap="butt" stroke-linejoin="round" d="M51.286 19.728L48.557 19.728L48.557 25.109L51.286 25.109L51.286 19.728z"/>
   <g>
    <path stroke-width="0.35" stroke-linecap="butt" stroke-linejoin="round" d="M53.987 65.117L57.731 65.117C58.042 65.117 58.277 64.415 58.277 63.869C58.277 63.869 58.277 22.457 58.277 21.21C58.277 19.961 57.262 19.806 56.637 19.806C56.015 19.806 55.39 19.806 55.39 19.806C55.39 18.87 54.531 17.87 53.441 17.87L53.354 17.87C53.354 17.87 48.676 13.41 48.207 13.021C47.74 12.631 47.35 12.474 46.804 12.474C46.258 12.474 37.271 12.474 37.271 12.474C37.271 12.474 28.283 12.474 27.736 12.474C27.19 12.474 26.8 12.631 26.332 13.021C25.865 13.41 21.185 17.87 21.185 17.87L21.12 17.87C20.027 17.87 19.17 18.871 19.17 19.807C19.17 19.807 18.545 19.806 17.922 19.806C17.297 19.806 16.283 19.961 16.283 21.21C16.283 22.457 16.283 63.869 16.283 63.869C16.283 64.415 16.518 65.117 16.83 65.117L20.574 65.117"/>
    <path stroke-width="0.25" stroke-linecap="butt" stroke-linejoin="round" d="M20.574 65.117L20.885 65.117C21.196 65.117 21.431 64.415 21.431 63.869L21.448 27.059L37.273 27.059L53.112 27.059L53.128 63.869C53.128 64.415 53.362 65.117 53.673 65.117L53.987 65.117"/>
   </g>
  </g>
  <text x="11.211" y="99.289" stroke="none" fill="#000000" font-family="'Arial'" font-size="5.628">1</text>
  <text x="59.804" y="99.289" stroke="none" fill="#000000" font-family="'Arial'" font-size="5.628">7</text>
  <text x="10.975" y="153.262" stroke="none" fill="#000000" font-family="'Arial'" font-size="5.628">3</text>
  <text x="35.435" y="153.262" stroke="none" fill="#000000" font-family="'Arial'" font-size="5.628">6</text>
  <text x="35.435" y="87.409" stroke="none" fill="#000000" font-family="'Arial'" font-size="5.628">4</text>
  <text x="59.802" y="153.262" stroke="none" fill="#000000" font-family="'Arial'" font-size="5.628">9</text>
  <path stroke-width="0.13" stroke-linecap="butt" stroke-linejoin="round" d="M53.167 136.899L53.167 138.407L54.792 138.407L54.792 136.93"/>
  <path stroke-width="0.25" stroke-linecap="butt" stroke-linejoin="round" d="M53.167 116.117L53.167 109.998L54.764 109.998C54.764 109.998 54.764 110.837 54.764 111.129C54.764 111.418 54.792 111.475 54.996 111.475L55.517 111.475C55.72 111.475 55.749 111.418 55.749 111.129L55.749 110.433"/>
  <path stroke-width="0.13" stroke-linecap="butt" stroke-linejoin="round" d="M56.206 110.387L54.792 110.387"/>
  <path stroke-width="0.13" stroke-linecap="butt" stroke-linejoin="round" d="M56.426 110.384C56.079 110.384 55.755 110.751 55.755 111.245"/>
  <path stroke-width="0.25" stroke-linecap="butt" stroke-linejoin="round" d="M57.165 112.516C57.165 112.516 55.49 112.594 55.112 112.594C54.732 112.594 54.252 112.713 54.252 113.307C54.252 113.9 54.732 114.019 55.112 114.019C55.49 114.019 57.165 114.097 57.165 114.097"/>
  <path stroke-width="0.13" stroke-linecap="butt" stroke-linejoin="round" d="M44.966 98.74L41.155 98.74"/>
  <path stroke-width="0.13" stroke-linecap="butt" stroke-linejoin="round" d="M29.309 106.269L37.174 106.269L45.048 106.269"/>
  <path stroke-width="0.13" stroke-linecap="butt" stroke-linejoin="round" d="M29.391 98.74L33.204 98.74"/>
  <path stroke-width="0.25" stroke-linecap="butt" stroke-linejoin="round" d="M33.243 93.834L33.243 99.245L41.113 99.245L41.113 93.834L33.243 93.834z"/>
  <path stroke-width="0.25" stroke-linecap="butt" stroke-linejoin="round" d="M35.343 106.204L35.343 101.974L39.015 101.974L39.015 106.204"/>
  <path stroke-width="0.25" stroke-linecap="butt" stroke-linejoin="round" d="M35.652 91.826C35.307 91.826 35.204 91.896 35.204 92.137C35.204 92.378 35.204 92.927 35.204 92.927L39.152 92.927C39.152 92.927 39.152 92.378 39.152 92.137C39.152 91.896 39.051 91.826 38.706 91.826L35.652 91.826z"/>
  <g>
   <path stroke-width="0.13" stroke-linecap="butt" stroke-linejoin="round" d="M52.462 130.338L51.726 131.943L51.726 138.455L52.462 140.061"/>
   <path stroke-width="0.25" stroke-linecap="butt" stroke-linejoin="round" d="M43.326 135.933L44.371 135.933L44.371 138.359L50.591 138.359L50.591 135.979L51.634 135.979"/>
   <path stroke-width="0.25" stroke-linecap="butt" stroke-linejoin="round" d="M43.326 134.466L44.371 134.466L44.371 132.042L50.591 132.042L50.591 134.419L51.634 134.419"/>
   <path stroke-width="0.13" stroke-linecap="butt" stroke-linejoin="round" d="M50.591 140.222L50.591 138.359L51.658 138.359"/>
   <path stroke-width="0.13" stroke-linecap="butt" stroke-linejoin="round" d="M44.371 140.222L44.371 138.359L43.304 138.359"/>
   <path stroke-width="0.13" stroke-linecap="butt" stroke-linejoin="round" d="M50.591 130.179L50.591 132.042L51.658 132.042"/>
   <path stroke-width="0.13" stroke-linecap="butt" stroke-linejoin="round" d="M44.371 130.179L44.371 132.042L43.304 132.042"/>
   <path stroke-width="0.25" stroke-linecap="butt" stroke-linejoin="round" d="M41.441 135.933L40.396 135.933L40.396 138.359L34.176 138.359L34.176 135.979L33.131 135.979"/>
   <path stroke-width="0.25" stroke-linecap="butt" stroke-linejoin="round" d="M41.441 134.466L40.396 134.466L40.396 132.042L34.176 132.042L34.176 134.419L33.131 134.419"/>
   <path stroke-width="0.13" stroke-linecap="butt" stroke-linejoin="round" d="M34.176 140.222L34.176 138.359L33.109 138.359"/>
   <path stroke-width="0.13" stroke-linecap="butt" stroke-linejoin="round" d="M40.396 140.222L40.396 138.359L41.465 138.359"/>
   <path stroke-width="0.13" stroke-linecap="butt" stroke-linejoin="round" d="M34.176 130.179L34.176 132.042L33.109 132.042"/>
   <path stroke-width="0.13" stroke-linecap="butt" stroke-linejoin="round" d="M40.396 130.179L40.396 132.042L41.465 132.042"/>
   <path stroke-width="0.13" stroke-linecap="butt" stroke-linejoin="round" d="M22.024 130.338L22.759 131.943L22.759 138.455L22.024 140.061"/>
   <path stroke-width="0.25" stroke-linecap="butt" stroke-linejoin="round" d="M31.184 135.933L30.138 135.933L30.138 138.359L23.919 138.359L23.919 135.979L22.875 135.979"/>
   <path stroke-width="0.25" stroke-linecap="butt" stroke-linejoin="round" d="M31.184 134.466L30.138 134.466L30.138 132.042L23.919 132.042L23.919 134.419L22.875 134.419"/>
   <g>
    <path stroke-width="0.13" stroke-linecap="butt" stroke-linejoin="round" d="M42.487 130.338L43.213 131.944L43.213 138.456L42.487 140.061"/>
    <path stroke-width="0.13" stroke-linecap="butt" stroke-linejoin="round" d="M42.304 130.338L41.578 131.944L41.578 138.456L42.304 140.061"/>
    <path stroke-width="0.13" stroke-linecap="butt" stroke-linejoin="round" d="M42.39 140.061L42.39 130.338"/>
   </g>
   <g>
    <path stroke-width="0.13" stroke-linecap="butt" stroke-linejoin="round" d="M32.284 130.338L33.015 131.944L33.015 138.456L32.284 140.061"/>
    <path stroke-width="0.13" stroke-linecap="butt" stroke-linejoin="round" d="M32.103 130.338L31.373 131.944L31.373 138.456L32.103 140.061"/>
    <path stroke-width="0.13" stroke-linecap="butt" stroke-linejoin="round" d="M32.189 140.061L32.189 130.338"/>
   </g>
   <path stroke-width="0.13" stroke-linecap="butt" stroke-linejoin="round" d="M23.919 140.222L23.919 138.359L22.852 138.359"/>
   <path stroke-width="0.13" stroke-linecap="butt" stroke-linejoin="round" d="M30.138 140.222L30.138 138.359L31.205 138.359"/>
   <path stroke-width="0.13" stroke-linecap="butt" stroke-linejoin="round" d="M23.919 130.179L23.919 132.042L22.852 132.042"/>
   <path stroke-width="0.13" stroke-linecap="butt" stroke-linejoin="round" d="M30.138 130.179L30.138 132.042L31.205 132.042"/>
   <path stroke-width="0.13" stroke-linecap="butt" stroke-linejoin="round" d="M52.328 130.04C52.414 130.04 52.484 130.11 52.484 130.197L52.484 140.139C52.484 140.225 52.414 140.295 52.328 140.295L22.158 140.295C22.071 140.295 22.001 140.225 22.001 140.139L22.001 130.197C22.001 130.11 22.071 130.04 22.158 130.04L52.328 130.04z"/>
  </g>
  <g>
   <path stroke-width="0.13" stroke-linecap="butt" stroke-linejoin="round" d="M52.462 119.311L51.726 120.917L51.726 127.429L52.462 129.033"/>
   <path stroke-width="0.25" stroke-linecap="butt" stroke-linejoin="round" d="M43.326 124.906L44.371 124.906L44.371 127.331L50.591 127.331L50.591 124.951L51.634 124.951"/>
   <path stroke-width="0.25" stroke-linecap="butt" stroke-linejoin="round" d="M43.326 123.438L44.371 123.438L44.371 121.013L50.591 121.013L50.591 123.393L51.634 123.393"/>
   <path stroke-width="0.13" stroke-linecap="butt" stroke-linejoin="round" d="M50.591 129.193L50.591 127.331L51.658 127.331"/>
   <path stroke-width="0.13" stroke-linecap="butt" stroke-linejoin="round" d="M44.371 129.193L44.371 127.331L43.304 127.331"/>
   <path stroke-width="0.13" stroke-linecap="butt" stroke-linejoin="round" d="M50.591 119.15L50.591 121.013L51.658 121.013"/>
   <path stroke-width="0.13" stroke-linecap="butt" stroke-linejoin="round" d="M44.371 119.15L44.371 121.013L43.304 121.013"/>
   <path stroke-width="0.25" stroke-linecap="butt" stroke-linejoin="round" d="M41.441 124.906L40.396 124.906L40.396 127.331L34.176 127.331L34.176 124.951L33.131 124.951"/>
   <path stroke-width="0.25" stroke-linecap="butt" stroke-linejoin="round" d="M41.441 123.438L40.396 123.438L40.396 121.013L34.176 121.013L34.176 123.393L33.131 123.393"/>
   <path stroke-width="0.13" stroke-linecap="butt" stroke-linejoin="round" d="M34.176 129.193L34.176 127.331L33.109 127.331"/>
   <path stroke-width="0.13" stroke-linecap="butt" stroke-linejoin="round" d="M40.396 129.193L40.396 127.331L41.465 127.331"/>
   <path stroke-width="0.13" stroke-linecap="butt" stroke-linejoin="round" d="M34.176 119.15L34.176 121.013L33.109 121.013"/>
   <path stroke-width="0.13" stroke-linecap="butt" stroke-linejoin="round" d="M40.396 119.15L40.396 121.013L41.465 121.013"/>
   <path stroke-width="0.13" stroke-linecap="butt" stroke-linejoin="round" d="M22.025 119.311L22.759 120.917L22.759 127.429L22.025 129.033"/>
   <path stroke-width="0.25" stroke-linecap="butt" stroke-linejoin="round" d="M31.184 124.906L30.138 124.906L30.138 127.331L23.919 127.331L23.919 124.951L22.875 124.951"/>
   <path stroke-width="0.25" stroke-linecap="butt" stroke-linejoin="round" d="M31.184 123.438L30.138 123.438L30.138 121.013L23.919 121.013L23.919 123.393L22.875 123.393"/>
   <g>
    <path stroke-width="0.13" stroke-linecap="butt" stroke-linejoin="round" d="M42.487 119.311L43.213 120.917L43.213 127.429L42.487 129.033"/>
    <path stroke-width="0.13" stroke-linecap="butt" stroke-linejoin="round" d="M42.304 119.311L41.578 120.917L41.578 127.429L42.304 129.033"/>
    <path stroke-width="0.13" stroke-linecap="butt" stroke-linejoin="round" d="M42.39 129.033L42.39 119.311"/>
   </g>
   <g>
    <path stroke-width="0.13" stroke-linecap="butt" stroke-linejoin="round" d="M32.284 119.311L33.015 120.917L33.015 127.429L32.284 129.033"/>
    <path stroke-width="0.13" stroke-linecap="butt" stroke-linejoin="round" d="M32.103 119.311L31.373 120.917L31.373 127.429L32.103 129.033"/>
    <path stroke-width="0.13" stroke-linecap="butt" stroke-linejoin="round" d="M32.189 129.033L32.189 119.311"/>
   </g>
   <path stroke-width="0.13" stroke-linecap="butt" stroke-linejoin="round" d="M23.919 129.193L23.919 127.331L22.852 127.331"/>
   <path stroke-width="0.13" stroke-linecap="butt" stroke-linejoin="round" d="M30.138 129.193L30.138 127.331L31.205 127.331"/>
   <path stroke-width="0.13" stroke-linecap="butt" stroke-linejoin="round" d="M23.919 119.15L23.919 121.013L22.852 121.013"/>
   <path stroke-width="0.13" stroke-linecap="butt" stroke-linejoin="round" d="M30.138 119.15L30.138 121.013L31.205 121.013"/>
   <path stroke-width="0.13" stroke-linecap="butt" stroke-linejoin="round" d="M52.328 119.013C52.414 119.013 52.484 119.082 52.484 119.168L52.484 129.111C52.484 129.198 52.414 129.268 52.328 129.268L22.16 129.268C22.071 129.268 22.001 129.198 22.001 129.111L22.001 119.168C22.001 119.082 22.071 119.013 22.16 119.013L52.328 119.013z"/>
  </g>
  <g>
   <path stroke-width="0.13" stroke-linecap="butt" stroke-linejoin="round" d="M52.462 108.283L51.726 109.888L51.726 116.4L52.462 118.006"/>
   <path stroke-width="0.25" stroke-linecap="butt" stroke-linejoin="round" d="M43.326 113.878L44.371 113.878L44.371 116.302L50.591 116.302L50.591 113.924L51.634 113.924"/>
   <path stroke-width="0.25" stroke-linecap="butt" stroke-linejoin="round" d="M43.326 112.411L44.371 112.411L44.371 109.986L50.591 109.986L50.591 112.364L51.634 112.364"/>
   <path stroke-width="0.13" stroke-linecap="butt" stroke-linejoin="round" d="M50.591 118.165L50.591 116.302L51.658 116.302"/>
   <path stroke-width="0.13" stroke-linecap="butt" stroke-linejoin="round" d="M44.371 118.165L44.371 116.302L43.304 116.302"/>
   <path stroke-width="0.13" stroke-linecap="butt" stroke-linejoin="round" d="M50.591 108.123L50.591 109.986L51.658 109.986"/>
   <path stroke-width="0.13" stroke-linecap="butt" stroke-linejoin="round" d="M44.371 108.123L44.371 109.986L43.304 109.986"/>
   <path stroke-width="0.25" stroke-linecap="butt" stroke-linejoin="round" d="M41.441 113.878L40.396 113.878L40.396 116.302L34.176 116.302L34.176 113.924L33.131 113.924"/>
   <path stroke-width="0.25" stroke-linecap="butt" stroke-linejoin="round" d="M41.441 112.411L40.396 112.411L40.396 109.986L34.176 109.986L34.176 112.364L33.131 112.364"/>
   <path stroke-width="0.13" stroke-linecap="butt" stroke-linejoin="round" d="M34.176 118.165L34.176 116.302L33.109 116.302"/>
   <path stroke-width="0.13" stroke-linecap="butt" stroke-linejoin="round" d="M40.396 118.165L40.396 116.302L41.465 116.302"/>
   <path stroke-width="0.13" stroke-linecap="butt" stroke-linejoin="round" d="M34.176 108.123L34.176 109.986L33.109 109.986"/>
   <path stroke-width="0.13" stroke-linecap="butt" stroke-linejoin="round" d="M40.396 108.123L40.396 109.986L41.465 109.986"/>
   <path stroke-width="0.13" stroke-linecap="butt" stroke-linejoin="round" d="M22.024 108.283L22.759 109.888L22.759 116.4L22.024 118.006"/>
   <path stroke-width="0.25" stroke-linecap="butt" stroke-linejoin="round" d="M31.184 113.878L30.138 113.878L30.138 116.302L23.919 116.302L23.919 113.924L22.875 113.924"/>
   <path stroke-width="0.25" stroke-linecap="butt" stroke-linejoin="round" d="M31.184 112.411L30.138 112.411L30.138 109.986L23.919 109.986L23.919 112.364L22.875 112.364"/>
   <g>
    <path stroke-width="0.13" stroke-linecap="butt" stroke-linejoin="round" d="M42.487 108.284L43.213 109.888L43.213 116.4L42.487 118.006"/>
    <path stroke-width="0.13" stroke-linecap="butt" stroke-linejoin="round" d="M42.304 108.284L41.578 109.888L41.578 116.4L42.304 118.006"/>
    <path stroke-width="0.13" stroke-linecap="butt" stroke-linejoin="round" d="M42.39 118.006L42.39 108.284"/>
   </g>
   <g>
    <path stroke-width="0.13" stroke-linecap="butt" stroke-linejoin="round" d="M32.284 108.284L33.015 109.888L33.015 116.4L32.284 118.006"/>
    <path stroke-width="0.13" stroke-linecap="butt" stroke-linejoin="round" d="M32.103 108.284L31.373 109.888L31.373 116.4L32.103 118.006"/>
    <path stroke-width="0.13" stroke-linecap="butt" stroke-linejoin="round" d="M32.189 118.006L32.189 108.284"/>
   </g>
   <path stroke-width="0.13" stroke-linecap="butt" stroke-linejoin="round" d="M23.919 118.165L23.919 116.302L22.852 116.302"/>
   <path stroke-width="0.13" stroke-linecap="butt" stroke-linejoin="round" d="M30.138 118.165L30.138 116.302L31.205 116.302"/>
   <path stroke-width="0.13" stroke-linecap="butt" stroke-linejoin="round" d="M23.919 108.123L23.919 109.986L22.852 109.986"/>
   <path stroke-width="0.13" stroke-linecap="butt" stroke-linejoin="round" d="M30.138 108.123L30.138 109.986L31.205 109.986"/>
   <path stroke-width="0.13" stroke-linecap="butt" stroke-linejoin="round" d="M52.328 107.986C52.414 107.986 52.484 108.055 52.484 108.141L52.484 118.084C52.484 118.17 52.414 118.239 52.328 118.239L22.158 118.239C22.071 118.239 22.001 118.17 22.001 118.084L22.001 108.141C22.001 108.055 22.071 107.986 22.158 107.986L52.328 107.986z"/>
  </g>
  <path stroke-width="0.25" stroke-linecap="butt" stroke-linejoin="round" d="M17.115 134.473C17.115 134.473 18.792 134.551 19.17 134.551C19.55 134.551 20.03 134.67 20.03 135.264C20.03 135.856 19.55 135.975 19.17 135.975C18.792 135.975 17.115 136.055 17.115 136.055"/>
  <g>
   <path stroke="#FFFFFF" stroke-width="0.501" stroke-linecap="butt" stroke-linejoin="round" d="M26.557 113.152L13.534 100.128"/>
   <path stroke="#FFFFFF" stroke-width="0.501" stroke-linecap="butt" stroke-linejoin="round" d="M47.7 113.152L60.725 100.128"/>
   <path stroke="#FFFFFF" stroke-width="0.501" stroke-linecap="butt" stroke-linejoin="round" d="M26.557 135.257L13.534 148.281"/>
   <path stroke="#FFFFFF" stroke-width="0.501" stroke-linecap="butt" stroke-linejoin="round" d="M47.7 135.257L60.725 148.281"/>
  </g>
  <g>
   <path stroke-width="0.13" stroke-linecap="butt" stroke-linejoin="round" d="M26.557 113.152L13.534 100.128"/>
   <path stroke-width="0.13" stroke-linecap="butt" stroke-linejoin="round" d="M47.7 113.152L60.725 100.128"/>
   <path stroke-width="0.13" stroke-linecap="butt" stroke-linejoin="round" d="M26.557 135.257L13.534 148.281"/>
   <path stroke-width="0.13" stroke-linecap="butt" stroke-linejoin="round" d="M47.7 135.257L60.725 148.281"/>
  </g>
  <path stroke-width="0.35" stroke-linecap="butt" stroke-linejoin="round" d="M27.727 106.269C27.727 106.269 27.728 97.204 27.728 96.561C27.728 95.918 27.356 95.614 26.882 95.614C26.408 95.614 25.731 95.614 25.731 95.614L25.731 94.462L24.952 94.462C24.448 94.462 24.056 94.884 24.056 95.275C24.056 95.667 24.056 106.296 24.056 106.296C24.056 106.296 21.707 106.296 21.437 106.296C21.166 106.296 21.115 106.445 21.115 106.445L21.115 132.342L17.068 132.342L17.068 138.074L21.115 138.074C21.115 138.074 21.115 140.626 21.115 141.426C21.115 141.961 21.46 142.228 22.032 142.228L23.356 142.225C23.356 142.225 23.356 143.58 23.356 144.382C23.356 144.915 23.701 145.181 24.271 145.181L34.326 145.181C34.898 145.181 35.241 144.915 35.241 144.382C35.241 143.58 35.241 142.225 35.241 142.225L39.244 142.225C39.244 142.225 39.244 143.58 39.244 144.382C39.244 144.915 39.588 145.181 40.159 145.181L49.872 145.181C50.445 145.181 50.787 144.915 50.787 144.382C50.787 143.58 50.787 142.225 50.787 142.225C50.787 142.225 54.926 142.225 55.34 142.225C55.753 142.225 56.142 141.866 56.142 141.167C56.142 140.468 56.142 138.683 56.142 138.14C56.142 137.597 55.935 136.899 55.417 136.899C54.899 136.899 53.167 136.899 53.167 136.899L53.167 116.117L57.215 116.117L57.215 110.387L56.206 110.387C56.206 110.387 56.206 107.948 56.206 107.388C56.206 106.828 55.869 106.296 55.478 106.296C55.085 106.296 50.302 106.296 50.302 106.296C50.302 106.296 50.302 95.667 50.302 95.275C50.302 94.884 49.909 94.462 49.405 94.462L48.627 94.462L48.627 95.614C48.627 95.614 47.95 95.614 47.475 95.614C47.002 95.614 46.63 95.918 46.63 96.561C46.63 97.204 46.634 106.269 46.634 106.269L45.048 106.269C45.048 106.269 45.048 92.149 45.048 91.728C45.048 91.308 44.573 90.495 43.901 90.495C43.228 90.495 37.174 90.495 37.174 90.495C37.174 90.495 31.129 90.495 30.457 90.495C29.785 90.495 29.309 91.308 29.309 91.728C29.309 92.149 29.309 106.269 29.309 106.269L27.727 106.269z"/>
  <path stroke="#FFFFFF" stroke-width="0.501" stroke-linecap="butt" stroke-linejoin="round" d="M37.152 113.185L37.152 88.49"/>
  <path stroke="#FFFFFF" stroke-width="0.501" stroke-linecap="butt" stroke-linejoin="round" d="M37.152 148.344L37.152 135.293"/>
  <path stroke-width="0.13" stroke-linecap="butt" stroke-linejoin="round" d="M37.152 113.185L37.152 88.49"/>
  <path stroke-width="0.13" stroke-linecap="butt" stroke-linejoin="round" d="M37.152 148.344L37.152 135.293"/>
  <text x="11.211" y="20.179" stroke="none" fill="#000000" font-family="'Arial'" font-size="5.628">7</text>
  <text x="59.804" y="20.179" stroke="none" fill="#000000" font-family="'Arial'" font-size="5.628">1</text>
  <text x="10.975" y="74.153" stroke="none" fill="#000000" font-family="'Arial'" font-size="5.628">9</text>
  <text x="35.435" y="74.153" stroke="none" fill="#000000" font-family="'Arial'" font-size="5.628">6</text>
  <text x="35.435" y="8.301" stroke="none" fill="#000000" font-family="'Arial'" font-size="5.628">4</text>
  <text x="59.802" y="74.153" stroke="none" fill="#000000" font-family="'Arial'" font-size="5.628">3</text>
  <g>
   <path stroke="#FFFFFF" stroke-width="0.501" stroke-linecap="butt" stroke-linejoin="round" d="M26.557 34.042L13.534 21.018"/>
   <path stroke="#FFFFFF" stroke-width="0.501" stroke-linecap="butt" stroke-linejoin="round" d="M47.7 34.042L60.725 21.018"/>
   <path stroke="#FFFFFF" stroke-width="0.501" stroke-linecap="butt" stroke-linejoin="round" d="M26.557 56.146L13.534 69.171"/>
   <path stroke="#FFFFFF" stroke-width="0.501" stroke-linecap="butt" stroke-linejoin="round" d="M47.7 56.146L60.725 69.171"/>
  </g>
  <g>
   <path stroke-width="0.13" stroke-linecap="butt" stroke-linejoin="round" d="M26.557 34.042L13.534 21.018"/>
   <path stroke-width="0.13" stroke-linecap="butt" stroke-linejoin="round" d="M47.7 34.042L60.725 21.018"/>
   <path stroke-width="0.13" stroke-linecap="butt" stroke-linejoin="round" d="M26.557 56.146L13.534 69.171"/>
   <path stroke-width="0.13" stroke-linecap="butt" stroke-linejoin="round" d="M47.7 56.146L60.725 69.171"/>
  </g>
  <path stroke="#FFFFFF" stroke-width="0.501" stroke-linecap="butt" stroke-linejoin="round" d="M37.152 34.075L37.152 9.381"/>
  <path stroke="#FFFFFF" stroke-width="0.501" stroke-linecap="butt" stroke-linejoin="round" d="M37.152 69.234L37.152 56.182"/>
  <path stroke-width="0.13" stroke-linecap="butt" stroke-linejoin="round" d="M37.152 34.075L37.152 9.381"/>
  <path stroke-width="0.13" stroke-linecap="butt" stroke-linejoin="round" d="M37.152 69.234L37.152 56.182"/>
 </g>
</svg>
