<?xml version="1.0" encoding="utf-8"?>
<!DOCTYPE svg PUBLIC "-//W3C//DTD SVG 1.1//EN" "http://www.w3.org/Graphics/SVG/1.1/DTD/svg11.dtd">
<!-- Generator: PTC Arbortext IsoDraw 7.3 -->
<svg id="Standard_x0020_layer" width="100%" height="100%" viewBox="0 0 75.096 68.308"
 xmlns="http://www.w3.org/2000/svg" xmlns:xlink="http://www.w3.org/1999/xlink"
 fill-rule="evenodd" clip-rule="evenodd" stroke="#000000" stroke-linecap="round" fill="none" xml:space="preserve">
 <g>
  <path stroke-width="0.131" stroke-linejoin="round" d="M45.1 47.633C44.743 47.143 44.695 46.435 45.031 45.831C45.481 45.023 46.445 44.701 47.183 45.112"/>
  <path stroke-width="0.501" stroke-linejoin="round" d="M46.454 44.412C46.664 44.441 46.871 44.508 47.066 44.615C47.439 44.823 47.709 45.152 47.856 45.536"/>
  <path stroke-width="0.349" stroke-linejoin="round" d="M44.182 46.924C44.097 46.463 44.173 45.954 44.429 45.494C44.862 44.718 45.682 44.308 46.454 44.412"/>
  <path stroke-width="0.501" stroke-linejoin="round" d="M44.457 47.625C44.32 47.414 44.228 47.176 44.182 46.924"/>
  <path stroke-width="0.131" stroke-linejoin="round" d="M52.637 52.856C52.307 52.348 52.274 51.646 52.612 51.04C53.082 50.198 54.088 49.862 54.859 50.292"/>
  <path stroke-width="0.501" stroke-linejoin="round" d="M46.34 44.322L36.741 37.423"/>
  <path stroke-width="0.501" stroke-linejoin="round" d="M34.771 39.921L44.094 46.865"/>
  <path stroke-width="0.349" stroke-linejoin="round" d="M47.878 45.581L47.183 45.112"/>
  <path stroke-width="0.501" stroke-linejoin="round" d="M49.265 46.518L47.878 45.581"/>
  <path stroke-width="0.25" stroke-linejoin="round" d="M55.579 52.173C55.783 51.432 55.506 50.651 54.859 50.292L49.265 46.518"/>
  <path stroke-width="0.131" stroke-linejoin="round" d="M53.159 53.113C53.932 53.457 54.938 53.189 55.406 52.512C55.484 52.402 55.54 52.287 55.579 52.173"/>
  <path stroke-width="0.501" stroke-linejoin="round" d="M49.5 46.476C49.5 46.476 52.911 45.948 53.499 45.948C54.087 45.948 54.497 46.183 54.497 46.183L62.552 51.415"/>
  <path stroke-width="0.501" stroke-linejoin="round" d="M44.534 47.738C43.859 47.798 42.289 47.956 41.563 48.182C40.621 48.476 40.505 48.712 40.387 49.24C40.268 49.77 40.152 50.945 40.915 51.593C41.68 52.24 47.618 56.356 48.618 57.002C49.618 57.649 50.5 57.414 50.5 57.414L51.793 56.942"/>
  <path stroke-width="0.349" stroke-linejoin="round" d="M44.856 47.712C44.856 47.712 44.734 47.72 44.534 47.738"/>
  <path stroke-width="0.501" stroke-linejoin="round" d="M51.777 56.963L63.963 66.174"/>
  <path stroke-width="0.349" stroke-linejoin="round" d="M51.206 56.531L51.777 56.963"/>
  <path stroke-width="0.131" stroke-linejoin="round" d="M49.442 57.06L50.734 56.354"/>
  <path stroke-width="0.501" stroke-linejoin="round" d="M62.557 51.462C63.448 51.25 64.078 51.101 64.259 51.064C65.081 50.887 65.846 51.357 65.846 51.357L74.724 57.354"/>
  <path stroke-width="0.25" stroke-linejoin="round" d="M48.942 55.274C49.133 55.281 49.265 55.237 49.265 55.237C49.265 55.237 50.5 54.298 51.851 54.003C52.908 53.774 59.383 52.216 62.557 51.462"/>
  <path stroke-width="0.131" stroke-linejoin="round" d="M40.828 49.622C40.828 49.622 47.795 54.591 48.265 55.003C48.5 55.209 48.75 55.268 48.942 55.274"/>
  <path stroke-width="0.131" stroke-linejoin="round" d="M51.676 54.826L67.492 66.233"/>
  <path stroke-width="0.131" stroke-linejoin="round" d="M45.209 47.771L52.793 52.984C52.944 53.057 53.055 53.095 53.055 53.095"/>
 </g>
 <path stroke-width="0.25" stroke-linejoin="round" d="M21.115 19.777C18.821 19.16 15.205 19.6 13.794 22.687C12.384 25.774 9.032 32.213 8.416 33.712C7.798 35.212 5.504 38.21 5.24 38.915C4.976 39.621 3.828 39.798 3.476 40.414C3.124 41.033 2.77 40.944 2.506 41.561C2.242 42.179 0.125 43.06 0.125 43.06"/>
 <path stroke-width="0.25" stroke-linejoin="round" d="M22.614 45.618C22.085 47.206 19.881 50.381 18.292 51.439C16.705 52.497 16.088 54.966 12.737 57.084C9.385 59.201 7.003 63.258 5.24 64.227C3.476 65.197 2.682 65.462 2.682 65.462"/>
 <path stroke-width="0.25" stroke-linejoin="round" d="M20.85 19.248C17.588 19.336 14.06 20.219 11.855 20.306C9.65 20.394 6.387 20.923 3.828 22.246C1.272 23.57 0.213 24.716 0.213 24.716"/>
 <path stroke-width="0.25" stroke-linejoin="round" d="M23.85 47.823C22.085 48.881 19.246 53.685 22.437 58.231C25.349 62.375 35.049 59.817 35.049 59.817"/>
 <path stroke-width="0.25" stroke-linejoin="round" d="M35.667 60.524C39.371 55.585 38.401 51.527 37.079 48.616C36.665 47.71 36.25 47.543 36.25 47.543"/>
 <path stroke-width="0.25" stroke-linejoin="round" d="M34.697 59.993C36.02 60.875 37.783 62.64 37.783 63.786C37.783 64.933 37.343 66.784 37.343 66.784"/>
 <path stroke-width="0.13" stroke-linejoin="round" d="M24.114 59.993C22.173 61.317 20.498 63.963 21.204 66.784"/>
 <path stroke-width="0.13" stroke-linejoin="round" d="M13.442 23.746C12.208 26.481 10.797 30.272 10.532 31.419C10.268 32.566 11.15 33.359 12.824 33.712C14.5 34.064 16.44 34.241 16.44 34.241"/>
 <path stroke-width="0.13" stroke-linejoin="round" d="M34.609 49.764C36.02 51.704 36.284 53.908 35.226 55.231C34.167 56.554 33.021 57.348 32.493 57.436C31.963 57.524 32.051 54.35 30.022 52.145C27.995 49.939 25.966 49.146 26.76 48.793C27.553 48.441 29.934 47.558 30.728 47.734"/>
 <path stroke-width="0.13" stroke-linejoin="round" d="M31.963 61.052C32.844 61.67 34.079 64.581 33.286 65.551C32.493 66.521 32.14 66.784 32.14 66.784"/>
 <path stroke-width="0.13" stroke-linejoin="round" d="M26.231 60.787C26.231 60.787 24.554 61.582 24.025 62.023C23.496 62.463 23.32 62.993 24.731 63.433C26.143 63.875 28.259 65.727 28.964 66.697"/>
 <path stroke-width="0.25" stroke-linejoin="round" d="M21.115 51.439C20.234 52.057 20.41 52.145 19.175 52.762C17.94 53.38 16.44 53.996 15.558 54.79C14.676 55.585 11.59 58.054 11.237 58.759"/>
 <path stroke-width="0.25" stroke-linejoin="round" d="M19.687 50.557C20.658 50.116 21.803 50.116 21.803 50.116"/>
 <path stroke-width="0.13" stroke-linejoin="round" d="M5.064 26.745C5.593 28.684 7.357 30.978 8.326 31.596"/>
 <path stroke-width="0.13" stroke-linejoin="round" d="M4.976 39.621C6.562 39.71 8.592 40.944 9.827 41.473C11.06 42.003 12.471 42.796 12.913 42.619"/>
 <path stroke-width="0.13" stroke-linejoin="round" d="M3.741 42.179C5.945 42.884 7.886 43.942 7.886 43.942"/>
 <path stroke-width="0.13" stroke-linejoin="round" d="M3.299 40.856C5.064 40.944 6.74 41.649 7.71 42.091"/>
 <path stroke-width="0.13" stroke-linejoin="round" d="M11.237 59.289C11.326 60.524 11.15 61.67 11.15 61.67C11.15 61.67 14.06 62.728 17.146 66.962"/>
 <path stroke-width="0.25" stroke-linejoin="round" d="M4.976 64.581C5.769 65.197 6.299 66.697 6.299 66.697"/>
 <path stroke-width="0.13" stroke-linejoin="round" d="M17.852 48.176C18.292 49.499 18.292 51.35 17.411 52.232"/>
 <g>
  <text x="42.484" y="11.294" stroke="none" fill="#000000" font-family="'Arial'" font-size="8.467">588 210</text>
 </g>
 <g>
  <path stroke-width="0.131" stroke-linejoin="round" d="M40.7 45.008C38.662 45.432 36.533 45.079 34.774 43.847"/>
  <path stroke-width="0.131" stroke-linejoin="round" d="M44.695 29.692C48.273 32.198 48.953 37.399 46.213 41.308C45.832 41.853 45.405 42.344 44.942 42.777"/>
  <path stroke-width="0.25" stroke-linejoin="round" d="M34.774 43.847C31.198 41.341 30.518 36.14 33.258 32.231C35.996 28.321 41.118 27.184 44.695 29.692"/>
  <path stroke-width="0.035" stroke-linejoin="round" d="M35.185 40.823C35.082 40.783 34.984 40.731 34.89 40.665"/>
  <path stroke-width="0.131" stroke-linejoin="round" d="M33.978 44.829C29.878 41.956 29.1 35.996 32.238 31.516C35.378 27.036 41.246 25.734 45.345 28.608C47.722 30.272 48.981 32.975 49.011 35.823"/>
  <path stroke-width="0.25" stroke-linejoin="round" d="M35.759 45.78C35.14 45.542 34.542 45.225 33.978 44.829"/>
  <path stroke-width="0.131" stroke-linejoin="round" d="M41.892 45.853C39.875 46.533 37.709 46.536 35.759 45.78"/>
  <path stroke-width="0.131" stroke-linejoin="round" d="M46.387 42.814C46.207 43.021 46.021 43.219 45.829 43.409"/>
  <path stroke-width="0.25" stroke-linejoin="round" d="M49.011 35.823C49.031 37.89 48.405 40.036 47.085 41.92C46.865 42.234 46.631 42.531 46.387 42.814"/>
  <path stroke-width="0.131" stroke-linejoin="round" d="M24.458 45.421C17.821 41.512 15.904 32.466 20.175 25.213C24.446 17.961 33.289 15.252 39.926 19.161"/>
  <path stroke-width="0.25" stroke-linejoin="round" d="M33.343 46.368C30.44 46.86 27.437 46.399 24.798 44.845"/>
  <path stroke-width="0.25" stroke-linejoin="round" d="M39.588 19.736C42.241 21.3 44.106 23.722 45.079 26.518"/>
  <path stroke-width="0.131" stroke-linejoin="round" d="M24.798 44.845C18.452 41.107 16.618 32.457 20.702 25.524C24.786 18.589 33.241 15.999 39.588 19.736"/>
  <path stroke-width="0.25" stroke-linejoin="round" d="M25.176 44.203C19.155 40.656 17.417 32.448 21.292 25.87C25.167 19.292 33.188 16.832 39.209 20.379"/>
  <path stroke-width="0.131" stroke-linejoin="round" d="M31.702 45.814C29.457 45.909 27.204 45.396 25.176 44.203"/>
  <path stroke-width="0.131" stroke-linejoin="round" d="M39.209 20.379C40.878 21.361 42.218 22.702 43.2 24.268"/>
  <path stroke-width="0.131" stroke-linejoin="round" d="M25.512 43.634C19.778 40.256 18.123 32.442 21.812 26.178C25.501 19.913 33.14 17.571 38.874 20.949"/>
  <path stroke-width="0.25" stroke-linejoin="round" d="M29.768 45.088C28.295 44.899 26.852 44.423 25.512 43.634"/>
  <path stroke-width="0.25" stroke-linejoin="round" d="M38.874 20.949C39.92 21.565 40.831 22.329 41.598 23.204"/>
  <path stroke-width="0.25" stroke-linejoin="round" d="M25.859 43.043C20.425 39.843 18.853 32.433 22.352 26.495C25.85 20.556 33.091 18.338 38.527 21.539"/>
  <path stroke-width="0.131" stroke-linejoin="round" d="M27.894 43.969C27.196 43.737 26.515 43.429 25.859 43.043"/>
  <path stroke-width="0.131" stroke-linejoin="round" d="M38.527 21.539L38.527 21.539C38.99 21.811 39.424 22.114 39.831 22.445"/>
  <path stroke-width="0.131" stroke-linejoin="round" d="M29.861 39.93C29.193 37.075 29.757 33.841 31.667 31.117C32.301 30.213 33.036 29.428 33.844 28.771"/>
  <path stroke-width="0.131" stroke-linejoin="round" d="M42.548 46.38C40.389 47.226 38.033 47.341 35.889 46.633"/>
  <path stroke-width="0.131" stroke-linejoin="round" d="M46.744 43.465C46.595 43.628 46.444 43.786 46.287 43.939"/>
  <path stroke-width="0.131" stroke-linejoin="round" d="M42.478 26.545C43.642 26.794 44.762 27.268 45.783 27.983C48.146 29.638 49.484 32.246 49.7 35.052"/>
  <path stroke-width="0.25" stroke-linejoin="round" d="M46.536 44.206C46.718 44.024 46.895 43.837 47.067 43.642C47.067 43.642 47.222 43.411 46.927 43.234C46.634 43.058 46.398 42.823 46.398 42.823"/>
  <path stroke-width="0.25" stroke-linejoin="round" d="M36.819 47.424C38.857 47.79 41.003 47.509 42.972 46.643"/>
  <path stroke-width="0.25" stroke-linejoin="round" d="M43.659 26.166C44.465 26.449 45.24 26.843 45.966 27.353C48.463 29.102 49.88 31.856 50.11 34.823C50.11 34.823 50.094 36.881 48.686 38.588"/>
  <path stroke-width="0.25" stroke-linejoin="round" d="M29.106 35.012C29.437 33.511 30.074 32.03 31.027 30.669C31.196 30.426 31.373 30.195 31.556 29.969C32.27 29.082 32.74 28.495 33.21 28.022C33.679 27.551 35.323 26.257 35.323 26.021"/>
  <path stroke-width="0.131" stroke-linejoin="round" d="M29.25 40.508C28.804 38.959 28.711 37.287 28.986 35.625"/>
  <path stroke-width="0.25" stroke-linejoin="round" d="M34.112 44.896C32.743 44.06 30.978 42.518 30.181 40.801C30.181 40.801 29.638 40.904 29.463 40.905C29.286 40.905 28.166 38.494 28.221 35.613C28.277 32.732 29.396 29.457 31.739 27.437C34.265 25.259 37.732 24.96 37.792 24.666"/>
  <path stroke-width="0.13" stroke-linejoin="round" d="M35.103 25.978C31.091 27.306 28.583 31.85 28.807 34.848"/>
  <path stroke-width="0.131" stroke-linejoin="round" d="M39.762 34.466C39.88 34.481 39.997 34.512 40.112 34.564"/>
  <g>
   <path stroke-width="0.131" stroke-linejoin="round" d="M31.629 36.643C31.686 36.658 31.739 36.682 31.791 36.716"/>
  </g>
  <path stroke-width="0.25" stroke-linejoin="round" d="M41.298 25.234C42.281 25.513 42.85 25.954 42.85 25.954"/>
  <path stroke-width="0.131" stroke-linejoin="round" d="M34.445 29.138C34.445 29.138 34.21 28.786 33.975 28.611C33.738 28.434 33.445 28.14 33.972 27.67C34.502 27.199 36.323 25.432 38.792 25.077C39.784 24.934 40.636 25.047 41.298 25.234"/>
  <path stroke-width="0.25" stroke-linejoin="round" d="M41.557 26.836C41.557 26.836 41.673 26.013 42.085 25.954C42.496 25.894 43.143 25.952 43.673 26.129"/>
  <path stroke-width="0.25" stroke-linejoin="round" d="M41.298 25.234C40.651 25.117 39.673 24.782 39.085 24.487C38.496 24.195 37.436 23.974 36.32 24.021C34.909 24.082 30.678 24.969 27.92 29.5C25.161 34.03 27.754 39.259 27.225 39.554C26.698 39.85 27.405 40.789 27.876 41.552C28.347 42.317 29.524 43.726 30.76 44.606C31.995 45.487 34.526 47.012 36.82 47.421"/>
  <path stroke-width="0.131" stroke-linejoin="round" d="M37.496 24.489C36.908 24.373 35.381 24.317 33.381 25.082C31.384 25.85 27.978 28.969 27.335 32.204C26.692 35.439 27.166 38.32 28.875 41.375C30.583 44.43 32.584 45.603 32.584 45.603"/>
  <path stroke-width="0.25" stroke-linejoin="round" d="M27.844 40.759C28.065 40.67 28.286 40.935 28.551 41.42C28.817 41.905 29.878 43.799 31.731 45.076"/>
  <path stroke-width="0.13" stroke-linejoin="round" d="M34.21 28.492C35.619 27.373 37.204 25.402 41.85 25.969C42.222 26.015 42.335 26.454 42.292 26.675C42.247 26.894 42.204 27.204 42.204 27.204"/>
  <path stroke-width="0.13" stroke-linejoin="round" d="M49.915 35.176C49.915 35.176 49.21 35.529 49.094 35.823"/>
  <path stroke-width="0.25" stroke-linejoin="round" d="M34.39 46.81C31.053 47.619 27.521 47.225 24.458 45.421L23.946 45.124C17.309 41.215 15.391 32.165 19.663 24.914C23.934 17.663 32.776 14.952 39.412 18.861L39.926 19.161C42.981 20.96 45.036 23.847 45.948 27.146"/>
  <path stroke-width="0.25" stroke-linejoin="round" d="M23.265 44.804C16.628 40.896 14.71 31.847 18.981 24.597C19.484 23.74 20.053 22.949 20.673 22.222C20.673 22.222 20.899 21.893 20.943 21.629C20.986 21.364 21.425 19.733 21.248 19.468C21.071 19.204 20.542 18.984 20.763 18.586C20.983 18.19 21.951 17.439 22.303 17.262C22.657 17.085 22.966 17.481 23.274 17.57C23.583 17.657 25.358 17.839 26.283 18.015C30.294 16.236 34.884 16.277 38.731 18.544"/>
  <path stroke-width="0.25" stroke-linejoin="round" d="M37.261 23.902C37.348 23.461 37.569 23.152 38.097 23.152C38.628 23.15 40.612 23.28 41.317 23.324C42.023 23.367 43.877 24.952 44.716 26.451"/>
  <path stroke-width="0.131" stroke-linejoin="round" d="M38.274 23.46C38.274 23.46 39.951 23.501 40.567 23.545C41.185 23.588 43.039 24.6 44.143 26.32"/>
  <path stroke-width="0.131" stroke-linejoin="round" d="M38.054 23.681L38.011 24.033"/>
  <path stroke-width="0.25" stroke-linejoin="round" d="M40.877 23.236C40.655 22.884 39.11 22.268 39.11 22.268C39.11 22.268 38.802 22.137 38.362 22.137C37.92 22.138 29.189 21.62 29.189 21.62C28.394 21.62 25.844 22.885 23.725 25.594C20.687 29.478 20.111 36.036 23.699 40.411C24.097 40.896 24.405 40.807 24.759 41.335C25.112 41.865 26.083 42.658 26.657 43.009C27.231 43.362 28.07 43.89 28.554 44.286C29.041 44.682 30.673 45.518 32.526 45.868"/>
  <path stroke-width="0.25" stroke-linejoin="round" d="M31.708 22.664C31.714 22.696 31.792 22.74 31.969 22.806C32.322 22.939 32.542 23.027 32.631 23.466C32.719 23.908 32.896 24.701 32.896 24.701"/>
  <path stroke-width="0.131" stroke-linejoin="round" d="M39.993 22.885L31.879 22.585C31.769 22.609 31.704 22.631 31.708 22.664"/>
  <path stroke-width="0.25" stroke-linejoin="round" d="M31.085 21.969C31.085 21.969 31.439 22.146 31.571 22.234C31.702 22.321 31.989 22.35 31.989 22.35L37.304 22.536"/>
  <path stroke-width="0.131" stroke-linejoin="round" d="M36.787 22.271L37.304 22.536"/>
  <path stroke-width="0.131" stroke-linejoin="round" d="M30.689 22.544C30.689 22.544 30.16 22.324 29.984 22.236C29.806 22.147 29.498 22.28 29.498 22.28C29.498 22.28 25.62 24.092 23.64 28.417C21.661 32.74 22.992 38.515 24.713 40.674C26.437 42.834 27.143 43.097 27.495 43.228C27.847 43.36 29.437 44.77 31.643 45.341"/>
  <path stroke-width="0.25" stroke-linejoin="round" d="M26.474 37.409L24.754 38.116C24.754 38.116 24.181 38.426 23.829 37.81C23.475 37.192 22.632 33.445 24.128 29.606C25.621 25.768 28.617 23.472 30.689 22.544"/>
  <path stroke-width="0.131" stroke-linejoin="round" d="M28.332 42.743L27.76 43.185"/>
  <path stroke-width="0.131" stroke-linejoin="round" d="M31.792 23.379C29.984 23.69 27.21 26.164 25.89 28.547C24.757 30.591 23.559 34.194 24.489 37.588"/>
  <path stroke-width="0.131" stroke-linejoin="round" d="M23.088 44.954L23.795 47.07"/>
  <path stroke-width="0.25" stroke-linejoin="round" d="M22.513 44.557C22.513 44.557 22.559 44.954 22.69 45.262C22.824 45.572 22.515 46.057 22.515 46.057C22.515 46.057 22.516 46.542 22.78 46.762C23.045 46.982 24.237 47.686 24.547 47.862C24.855 48.039 25.12 47.994 25.516 47.817C25.913 47.64 27.676 46.889 27.676 46.889"/>
  <path stroke-width="0.131" stroke-linejoin="round" d="M23.054 17.879C23.054 17.879 22.393 18.364 22.085 18.585C21.777 18.806 21.865 19.114 21.865 19.114L21.384 22.025"/>
  <path stroke-width="0.25" stroke-linejoin="round" d="M45.82 26.449C45.82 26.449 47.494 26.8 47.716 27.461C47.938 28.123 47.85 28.96 47.85 28.96"/>
  <path stroke-width="0.131" stroke-linejoin="round" d="M47.32 27.242L46.173 27.242"/>
  <g>
   <path stroke-width="0.25" stroke-linejoin="round" d="M40.015 29.853C39.994 29.852 39.984 29.844 39.982 29.824L39.926 28.393"/>
   <path stroke-width="0.131" stroke-linejoin="round" d="M44.774 32.084C44.753 32.082 44.743 32.076 44.741 32.055L44.658 29.928"/>
   <path stroke-width="0.25" stroke-linejoin="round" d="M46.465 31.855L44.774 32.084"/>
   <path stroke-width="0.25" stroke-linejoin="round" d="M39.429 38.933C39.829 38.444 40.29 37.878 40.29 37.878"/>
   <path stroke-width="0.131" stroke-linejoin="round" d="M43.857 41.963C44.283 41.442 44.948 40.628 44.948 40.628"/>
   <path stroke-width="0.131" stroke-linejoin="round" d="M35.045 42.002L34.042 43.231"/>
   <path stroke-width="0.25" stroke-linejoin="round" d="M32.49 33.573L34.448 33.307C34.465 33.305 34.473 33.289 34.472 33.277L34.235 31.117"/>
   <path stroke-width="0.131" stroke-linejoin="round" d="M35.459 40.831C35.048 40.814 34.651 40.667 34.323 40.384C33.488 39.661 33.427 38.322 34.186 37.393C34.945 36.463 36.237 36.296 37.072 37.018C37.28 37.2 37.439 37.418 37.551 37.661"/>
   <path stroke-width="0.25" stroke-linejoin="round" d="M34.561 39.893C34.015 39.329 34.002 38.378 34.548 37.707C35.125 37 36.107 36.874 36.741 37.423"/>
   <path stroke-width="0.131" stroke-linejoin="round" d="M32.909 33.526C33.203 33.994 33.286 34.582 33.152 35.146"/>
   <path stroke-width="0.131" stroke-linejoin="round" d="M32.189 36.543C32.008 36.667 31.812 36.761 31.611 36.823"/>
   <path stroke-width="0.131" stroke-linejoin="round" d="M32.439 33.746C32.67 34.067 32.762 34.473 32.71 34.875"/>
   <path stroke-width="0.131" stroke-linejoin="round" d="M41.104 35.198C40.335 35.896 39.213 35.968 38.462 35.317C37.627 34.594 37.566 33.256 38.325 32.326C39.085 31.397 40.375 31.231 41.21 31.952C41.704 32.381 41.927 33.026 41.868 33.673"/>
   <path stroke-width="0.25" stroke-linejoin="round" d="M40.518 35.03C40.146 35.25 39.712 35.311 39.32 35.2"/>
   <path stroke-width="0.25" stroke-linejoin="round" d="M40.59 32.162C40.692 32.213 40.789 32.277 40.881 32.356C41.198 32.631 41.368 33.023 41.386 33.433"/>
   <path stroke-width="0.25" stroke-linejoin="round" d="M39.32 35.2C39.13 35.146 38.95 35.051 38.792 34.914C38.158 34.365 38.11 33.347 38.688 32.64C39.182 32.036 39.975 31.856 40.59 32.162"/>
   <path stroke-width="0.131" stroke-linejoin="round" d="M42.731 36.039C42.466 36.912 42.057 37.762 41.503 38.548"/>
   <path stroke-width="0.131" stroke-linejoin="round" d="M42.774 31.3C43.054 32.241 43.154 33.244 43.072 34.25"/>
   <path stroke-width="0.131" stroke-linejoin="round" d="M36.448 41.957C36.027 42.045 35.601 42.098 35.176 42.115"/>
   <path stroke-width="0.131" stroke-linejoin="round" d="M37.292 29.039C37.348 29.271 37.365 29.515 37.344 29.76"/>
   <path stroke-width="0.131" stroke-linejoin="round" d="M36.655 31.208C36.015 31.843 35.098 32.018 34.362 31.675"/>
   <path stroke-width="0.131" stroke-linejoin="round" d="M36.21 30.96C35.753 31.335 35.155 31.437 34.652 31.233"/>
   <path stroke-width="0.131" stroke-linejoin="round" d="M36.819 29.211C36.843 29.314 36.856 29.417 36.862 29.522"/>
   <path stroke-width="0.25" stroke-linejoin="round" d="M34.652 31.233C34.515 31.176 34.384 31.097 34.265 30.995"/>
   <path stroke-width="0.25" stroke-linejoin="round" d="M38.049 30.077C38.131 29.649 38.124 29.214 38.026 28.806"/>
   <path stroke-width="0.131" stroke-linejoin="round" d="M41.72 30.743C41.755 30.827 41.74 30.932 41.674 31.013C41.595 31.109 41.468 31.135 41.371 31.083C40.695 30.673 39.874 30.615 39.122 30.882"/>
   <path stroke-width="0.25" stroke-linejoin="round" d="M33.581 40.841C33.585 40.781 33.57 40.722 33.534 40.676C32.857 39.854 32.734 38.667 33.189 37.634C33.265 37.466 33.232 37.27 33.098 37.152C32.966 37.039 32.777 37.039 32.63 37.137C32.329 37.35 32.003 37.5 31.667 37.588"/>
   <path stroke-width="0.25" stroke-linejoin="round" d="M41.89 35.731C41.802 35.656 41.674 35.664 41.582 35.74C40.741 36.512 39.59 36.734 38.634 36.337C38.478 36.271 38.286 36.32 38.164 36.469C38.043 36.616 38.027 36.814 38.112 36.962C38.369 37.386 38.505 37.878 38.512 38.383"/>
   <path stroke-width="0.131" stroke-linejoin="round" d="M40.795 38.256C41.317 37.549 41.704 36.78 41.96 35.987C41.984 35.893 41.96 35.795 41.89 35.731"/>
   <path stroke-width="0.131" stroke-linejoin="round" d="M34.615 36.109C35.31 35.747 36.101 35.685 36.801 35.945C36.982 36.006 37.197 35.95 37.337 35.779C37.47 35.615 37.493 35.398 37.414 35.226C36.99 34.479 36.942 33.539 37.281 32.689C37.363 32.491 37.328 32.262 37.17 32.127"/>
   <path stroke-width="0.25" stroke-linejoin="round" d="M33.719 33.451C33.984 34.106 33.99 34.871 33.735 35.579"/>
   <path stroke-width="0.25" stroke-linejoin="round" d="M37.17 32.127C37.023 31.998 36.816 31.992 36.645 32.088C35.975 32.536 35.179 32.68 34.454 32.5"/>
   <path stroke-width="0.25" stroke-linejoin="round" d="M36.618 44.484L36.784 43.654C36.784 43.654 36.746 43.475 36.594 43.343C36.439 43.21 35.045 42.002 35.045 42.002L31.972 39.646"/>
   <path stroke-width="0.25" stroke-linejoin="round" d="M45.783 41.35L44.948 40.628L40.29 37.878"/>
  </g>
  <path stroke-width="0.131" stroke-linejoin="round" d="M39.668 32.067C39.786 32.081 39.905 32.112 40.018 32.162"/>
  <g>
   <path stroke-width="0.131" stroke-linejoin="round" d="M42.396 35.75C42.06 35.584 41.933 35.149 42.116 34.783C42.298 34.414 42.719 34.253 43.055 34.42"/>
   <path stroke-width="0.25" stroke-linejoin="round" d="M39.466 34.235L42.396 35.75C42.731 35.917 43.152 35.755 43.335 35.387C43.518 35.02 43.393 34.585 43.055 34.42L40.091 32.973"/>
   <path stroke-width="0.131" stroke-linejoin="round" d="M39.466 34.235C39.148 34.076 39.029 33.667 39.201 33.317C39.375 32.969 39.773 32.816 40.091 32.973"/>
   <path stroke-width="0.25" stroke-linejoin="round" d="M38.792 32.63C39.109 32.34 39.558 32.25 39.938 32.438"/>
   <path stroke-width="0.25" stroke-linejoin="round" d="M38.945 34.436C38.74 34.335 38.588 34.167 38.496 33.966"/>
   <path stroke-width="0.131" stroke-linejoin="round" d="M39.793 34.441C39.524 34.563 39.216 34.57 38.945 34.436"/>
   <path stroke-width="0.131" stroke-linejoin="round" d="M39.938 32.438C40.189 32.563 40.362 32.786 40.438 33.049"/>
   <path stroke-width="0.25" stroke-linejoin="round" d="M40.087 34.637C39.698 34.887 39.216 34.941 38.798 34.734"/>
   <path stroke-width="0.25" stroke-linejoin="round" d="M40.085 32.14C40.517 32.354 40.77 32.793 40.79 33.273"/>
  </g>
  <g>
   <path stroke-width="0.131" stroke-linejoin="round" d="M38.042 31.847C37.707 31.681 37.581 31.248 37.764 30.881C37.945 30.513 38.366 30.35 38.704 30.516"/>
   <path stroke-width="0.25" stroke-linejoin="round" d="M35.112 30.332L38.042 31.847C38.378 32.015 38.799 31.852 38.982 31.484C39.164 31.117 39.039 30.684 38.704 30.516L36.444 29.414"/>
   <path stroke-width="0.131" stroke-linejoin="round" d="M35.441 30.539C35.171 30.66 34.863 30.669 34.593 30.533"/>
   <path stroke-width="0.25" stroke-linejoin="round" d="M35.734 30.734C35.347 30.984 34.862 31.039 34.445 30.83"/>
  </g>
  <g>
   <path stroke-width="0.131" stroke-linejoin="round" d="M34.313 36.037C34.005 35.823 33.564 35.923 33.332 36.261C33.097 36.597 33.158 37.045 33.466 37.259"/>
   <path stroke-width="0.25" stroke-linejoin="round" d="M32.14 34.584L34.313 36.037C34.621 36.252 34.682 36.698 34.448 37.036C34.215 37.372 33.774 37.472 33.466 37.259L31.731 36.037"/>
  </g>
  <path stroke-width="0.25" stroke-linejoin="round" d="M38.68 34.679L38.912 34.787"/>
  <path stroke-width="0.25" stroke-linejoin="round" d="M44.774 32.084L40.015 29.853"/>
 </g>
 <g>
 </g>
</svg>
