<?xml version="1.0" encoding="utf-8"?>
<!DOCTYPE svg PUBLIC "-//W3C//DTD SVG 1.1//EN" "http://www.w3.org/Graphics/SVG/1.1/DTD/svg11.dtd">
<!-- Generator: PTC Arbortext IsoDraw 7.3 -->
<svg width="100%" height="100%" viewBox="0 0 75 69.962"
 xmlns="http://www.w3.org/2000/svg" xmlns:xlink="http://www.w3.org/1999/xlink"
 fill-rule="evenodd" clip-rule="evenodd" stroke="#000000" stroke-linecap="round" fill="none" xml:space="preserve">
 <g id="Frame">
  <path stroke="none" fill="#FFFFFF" d="M75 69.962L0 69.962 0 0 75 0 75 69.962z"/>
 </g>
 <g id="Colour">
 </g>
 <g id="Standard_x0020_layer">
  <path stroke="none" fill="#000000" d="M36.045 65.486L42.902 65.486 42.902 64.481 47.856 66.438 42.902 68.394 42.902 67.39 36.045 67.39 36.045 65.486z"/>
  <path stroke-width="0.13" stroke-linejoin="round" d="M57.118 58.86L49.008 58.86"/>
  <path stroke-width="0.13" stroke-linejoin="round" d="M57.118 58.28L49.008 58.28"/>
  <path stroke-width="0.13" stroke-linejoin="round" d="M57.118 57.701L49.008 57.701"/>
  <path stroke-width="0.13" stroke-linejoin="round" d="M57.118 57.121L49.008 57.121"/>
  <path stroke-width="0.349" stroke-linejoin="round" d="M49.008 59.439L57.118 59.439L57.118 56.542L49.008 56.542"/>
  <path stroke-width="0.349" stroke-linejoin="round" d="M2.998 60.487L34.793 60.487"/>
  <path stroke-width="0.349" stroke-linejoin="round" d="M34.793 55.493L2.998 55.493"/>
  <g>
   <path stroke-width="0.13" stroke-linejoin="round" d="M8.712 55.524L3.775 60.46"/>
   <path stroke-width="0.13" stroke-linejoin="round" d="M14.134 55.524L9.196 60.46"/>
   <path stroke-width="0.13" stroke-linejoin="round" d="M19.554 55.524L14.618 60.46"/>
   <path stroke-width="0.13" stroke-linejoin="round" d="M24.975 55.524L20.039 60.46"/>
   <path stroke-width="0.13" stroke-linejoin="round" d="M30.396 55.524L25.46 60.46"/>
   <path stroke-width="0.13" stroke-linejoin="round" d="M35.817 55.524L30.881 60.46"/>
  </g>
  <path stroke="none" fill="#000000" d="M38.768 14.477L31.911 14.477 31.911 13.473 26.957 15.429 31.911 17.385 31.911 16.381 38.768 16.381 38.768 14.477z"/>
  <g>
   <path stroke="none" fill="#CCCCCC" d="M53.706 4.687L53.706 6.506 49.649 6.506 49.649 4.687 48.237 4.687 48.237 6.506 47.392 6.506C47.246 5.819 46.375 4.687 45.945 4.687L44.533 4.687 44.533 6.506 43.835 6.506C43.689 5.819 42.817 4.687 42.387 4.687L40.976 4.687 40.976 13.977 42.387 13.977C42.819 13.977 43.694 12.84 43.835 12.153L44.533 12.153 44.533 13.977 45.945 13.977C46.375 13.977 47.25 12.84 47.393 12.153L48.237 12.153 48.237 13.977 49.649 13.977 49.649 12.153 53.706 12.153 53.706 13.977 55.116 13.977 55.116 4.687 53.706 4.687z"/>
   <path stroke-width="0.349" stroke-linejoin="round" d="M53.706 4.687L53.706 6.506L49.649 6.506L49.649 4.687L48.237 4.687L48.237 6.506L47.392 6.506C47.246 5.819 46.375 4.687 45.945 4.687L44.533 4.687L44.533 6.506L43.835 6.506C43.689 5.819 42.817 4.687 42.387 4.687L40.976 4.687L40.976 13.977L42.387 13.977C42.819 13.977 43.694 12.84 43.835 12.153L44.533 12.153L44.533 13.977L45.945 13.977C46.375 13.977 47.25 12.84 47.393 12.153L48.237 12.153L48.237 13.977L49.649 13.977L49.649 12.153L53.706 12.153L53.706 13.977L55.116 13.977L55.116 4.687L53.706 4.687z"/>
   <path stroke-width="0.13" stroke-linejoin="round" d="M43.835 6.506L43.835 12.153"/>
   <path stroke-width="0.13" stroke-linejoin="round" d="M42.387 4.687L42.387 13.977"/>
   <path stroke-width="0.13" stroke-linejoin="round" d="M45.945 4.687L45.945 13.977"/>
   <path stroke-width="0.25" stroke-linejoin="round" d="M44.533 6.506L44.533 12.153"/>
   <path stroke-width="0.13" stroke-linejoin="round" d="M47.392 6.506L47.392 12.153"/>
   <path stroke-width="0.25" stroke-linejoin="round" d="M48.237 6.506L48.237 12.153"/>
   <path stroke-width="0.25" stroke-linejoin="round" d="M49.649 6.506L49.649 12.153"/>
   <path stroke-width="0.25" stroke-linejoin="round" d="M53.706 6.506L53.706 12.153"/>
  </g>
  <g>
   <path stroke="none" fill="#CCCCCC" d="M47.566 53.347L47.566 55.167 43.509 55.167 43.509 53.347 42.097 53.347 42.097 55.167 41.252 55.167C41.106 54.479 40.234 53.347 39.804 53.347L38.393 53.347 38.393 55.167 37.694 55.167C37.549 54.479 36.677 53.347 36.246 53.347L34.835 53.347 34.835 62.637 36.246 62.637C36.679 62.637 37.552 61.502 37.695 60.814L38.393 60.814 38.393 62.637 39.804 62.637C40.235 62.637 41.11 61.502 41.253 60.814L42.097 60.814 42.097 62.637 43.509 62.637 43.509 60.814 47.566 60.814 47.566 62.637 48.976 62.637 48.976 53.347 47.566 53.347z"/>
   <path stroke-width="0.349" stroke-linejoin="round" d="M47.566 53.347L47.566 55.167L43.509 55.167L43.509 53.347L42.097 53.347L42.097 55.167L41.252 55.167C41.106 54.479 40.234 53.347 39.804 53.347L38.393 53.347L38.393 55.167L37.694 55.167C37.549 54.479 36.677 53.347 36.246 53.347L34.835 53.347L34.835 62.637L36.246 62.637C36.679 62.637 37.552 61.502 37.695 60.814L38.393 60.814L38.393 62.637L39.804 62.637C40.235 62.637 41.11 61.502 41.253 60.814L42.097 60.814L42.097 62.637L43.509 62.637L43.509 60.814L47.566 60.814L47.566 62.637L48.976 62.637L48.976 53.347L47.566 53.347z"/>
   <path stroke-width="0.13" stroke-linejoin="round" d="M37.694 55.167L37.694 60.814"/>
   <path stroke-width="0.13" stroke-linejoin="round" d="M36.246 53.347L36.246 62.637"/>
   <path stroke-width="0.13" stroke-linejoin="round" d="M39.804 53.347L39.804 62.637"/>
   <path stroke-width="0.25" stroke-linejoin="round" d="M38.393 55.167L38.393 60.814"/>
   <path stroke-width="0.13" stroke-linejoin="round" d="M41.252 55.167L41.252 60.814"/>
   <path stroke-width="0.25" stroke-linejoin="round" d="M42.097 55.167L42.097 60.814"/>
   <path stroke-width="0.25" stroke-linejoin="round" d="M43.509 55.167L43.509 60.814"/>
   <path stroke-width="0.25" stroke-linejoin="round" d="M47.566 55.167L47.566 60.814"/>
  </g>
  <g>
   <path stroke-width="0.13" stroke-linejoin="round" d="M8.712 6.862L3.775 11.8"/>
   <path stroke-width="0.13" stroke-linejoin="round" d="M14.134 6.862L9.196 11.8"/>
   <path stroke-width="0.13" stroke-linejoin="round" d="M19.554 6.862L14.618 11.8"/>
   <path stroke-width="0.13" stroke-linejoin="round" d="M24.975 6.862L20.039 11.8"/>
   <path stroke-width="0.13" stroke-linejoin="round" d="M30.396 6.862L25.46 11.8"/>
   <path stroke-width="0.13" stroke-linejoin="round" d="M35.53 7.15L30.881 11.8"/>
  </g>
  <path stroke="none" fill="#000000" d="M61.301 28.202L68.158 28.202 68.158 27.196 73.112 29.153 68.158 31.109 68.158 30.105 61.301 30.105 61.301 28.202z"/>
  <path stroke-width="0.13" stroke-linejoin="round" d="M57.118 35.481L49.008 35.481"/>
  <path stroke-width="0.13" stroke-linejoin="round" d="M57.118 34.902L49.008 34.902"/>
  <path stroke-width="0.13" stroke-linejoin="round" d="M57.118 34.323L49.008 34.323"/>
  <path stroke-width="0.13" stroke-linejoin="round" d="M57.118 33.743L49.008 33.743"/>
  <path stroke-width="0.349" stroke-linejoin="round" d="M49.008 36.061L57.118 36.061L57.118 33.162L49.008 33.162"/>
  <g>
   <path stroke-width="0.13" stroke-linejoin="round" d="M22.471 32.146L17.535 37.082"/>
   <path stroke-width="0.13" stroke-linejoin="round" d="M27.891 32.146L22.955 37.082"/>
   <path stroke-width="0.13" stroke-linejoin="round" d="M33.313 32.146L28.376 37.082"/>
   <path stroke-width="0.13" stroke-linejoin="round" d="M38.734 32.146L33.798 37.082"/>
   <path stroke-width="0.13" stroke-linejoin="round" d="M44.155 32.146L39.219 37.082"/>
   <path stroke-width="0.13" stroke-linejoin="round" d="M48.987 32.734L44.64 37.082"/>
  </g>
  <g>
   <path stroke-width="0.13" stroke-linejoin="round" d="M11.628 32.146L6.692 37.082"/>
   <path stroke-width="0.13" stroke-linejoin="round" d="M17.05 32.146L12.114 37.082"/>
  </g>
  <path stroke-width="0.349" stroke-linejoin="round" d="M2.998 11.827L35.151 11.827C35.512 11.827 35.673 11.486 35.673 11.244L35.673 7.416C35.673 7.174 35.512 6.833 35.151 6.833L2.998 6.833"/>
  <path stroke-width="0.349" stroke-linejoin="round" d="M2.998 37.109L48.427 37.109C48.789 37.109 48.951 36.768 48.951 36.527L48.951 32.698C48.951 32.457 48.789 32.115 48.427 32.115L2.998 32.115"/>
  <g>
   <path stroke="none" fill="#FFFFFF" d="M27.634 29.969L27.634 31.789 23.576 31.789 23.576 29.969 22.166 29.969 22.166 31.789 21.32 31.789C21.175 31.102 20.303 29.969 19.873 29.969L18.461 29.969 18.461 31.789 17.762 31.789C17.617 31.102 16.745 29.969 16.315 29.969L14.903 29.969 14.903 39.259 16.315 39.259C16.746 39.259 17.621 38.122 17.763 37.435L18.461 37.435 18.461 39.259 19.873 39.259C20.303 39.259 21.178 38.122 21.321 37.435L22.166 37.435 22.166 39.259 23.576 39.259 23.576 37.435 27.634 37.435 27.634 39.259 29.045 39.259 29.045 29.969 27.634 29.969z"/>
   <path stroke-width="0.349" stroke-linejoin="round" d="M27.634 29.969L27.634 31.789L23.576 31.789L23.576 29.969L22.166 29.969L22.166 31.789L21.32 31.789C21.175 31.102 20.303 29.969 19.873 29.969L18.461 29.969L18.461 31.789L17.762 31.789C17.617 31.102 16.745 29.969 16.315 29.969L14.903 29.969L14.903 39.259L16.315 39.259C16.746 39.259 17.621 38.122 17.763 37.435L18.461 37.435L18.461 39.259L19.873 39.259C20.303 39.259 21.178 38.122 21.321 37.435L22.166 37.435L22.166 39.259L23.576 39.259L23.576 37.435L27.634 37.435L27.634 39.259L29.045 39.259L29.045 29.969L27.634 29.969z"/>
   <path stroke-width="0.13" stroke-linejoin="round" d="M17.762 31.789L17.762 37.435"/>
   <path stroke-width="0.13" stroke-linejoin="round" d="M16.315 29.969L16.315 39.259"/>
   <path stroke-width="0.13" stroke-linejoin="round" d="M19.873 29.969L19.873 39.259"/>
   <path stroke-width="0.25" stroke-linejoin="round" d="M18.461 31.789L18.461 37.435"/>
   <path stroke-width="0.13" stroke-linejoin="round" d="M21.32 31.789L21.32 37.435"/>
   <path stroke-width="0.25" stroke-linejoin="round" d="M22.166 31.789L22.166 37.435"/>
   <path stroke-width="0.25" stroke-linejoin="round" d="M23.576 31.789L23.576 37.435"/>
   <path stroke-width="0.25" stroke-linejoin="round" d="M27.634 31.789L27.634 37.435"/>
  </g>
  <g>
   <path stroke="none" fill="#CCCCCC" d="M71.757 36.801C71.757 36.856 71.712 36.902 71.658 36.902L59.649 36.902C59.594 36.902 59.549 36.856 59.549 36.801L59.549 32.423C59.549 32.368 59.594 32.323 59.649 32.323L71.658 32.323C71.712 32.323 71.757 32.368 71.757 32.423L71.757 36.801z"/>
   <g>
    <path stroke-width="0.13" stroke-linejoin="round" d="M62.039 32.326L59.558 34.807"/>
    <path stroke-width="0.13" stroke-linejoin="round" d="M67.46 32.326L62.935 36.853"/>
    <path stroke-width="0.13" stroke-linejoin="round" d="M71.743 33.465L68.355 36.853"/>
   </g>
   <path stroke-width="0.349" stroke-linejoin="round" d="M71.757 36.801C71.757 36.856 71.712 36.902 71.658 36.902L59.649 36.902C59.594 36.902 59.549 36.856 59.549 36.801L59.549 32.423C59.549 32.368 59.594 32.323 59.649 32.323L71.658 32.323C71.712 32.323 71.757 32.368 71.757 32.423L71.757 36.801z"/>
  </g>
 </g>
</svg>
