<?xml version="1.0" encoding="utf-8"?>
<!DOCTYPE svg PUBLIC "-//W3C//DTD SVG 1.1//EN" "http://www.w3.org/Graphics/SVG/1.1/DTD/svg11.dtd">
<!-- Generator: PTC Arbortext IsoDraw 7.3 -->
<svg id="Standard_x0020_layer" width="100%" height="100%" viewBox="0 0 75 221.728"
 xmlns="http://www.w3.org/2000/svg" xmlns:xlink="http://www.w3.org/1999/xlink"
 fill-rule="evenodd" clip-rule="evenodd" stroke="#000000" stroke-linecap="round" fill="none" xml:space="preserve">
 <g>
  <path stroke-width="0.25" stroke-linejoin="round" d="M19.228 59.67L25.327 59.67"/>
  <path stroke-width="0.25" stroke-linejoin="round" d="M18.591 12.682L18.591 15.368L19.268 15.368L19.268 12.717"/>
  <path stroke-width="0.25" stroke-linejoin="round" d="M19.268 15.368L25.358 15.368"/>
  <path stroke-width="0.13" stroke-linejoin="round" d="M18.518 14.567L17.193 14.567"/>
  <path stroke-width="0.13" stroke-linejoin="round" d="M17.181 12.055L15.284 12.055"/>
  <path stroke-width="0.13" stroke-linejoin="round" d="M17.181 12.919L15.284 12.919"/>
  <path stroke-width="0.35" stroke-linejoin="round" d="M50.243 59.67L52.07 59.67L52.07 62.289C52.07 62.534 52.255 62.719 52.5 62.719L57.738 62.719C57.984 62.719 58.17 62.534 58.17 62.289C58.17 62.042 58.17 59.67 58.17 59.67L58.755 59.67L58.755 63.182L61.753 63.182C61.981 63.182 62.17 63.119 62.17 62.869C62.17 62.618 62.17 56.581 62.17 56.581L58.908 55.179L58.908 30.469C59.159 30.344 59.347 30.03 59.347 29.634C59.347 29.236 59.557 29.111 59.703 29.111C59.848 29.111 61.441 29.111 61.441 29.111C61.99 29.111 62.058 28.905 62.058 28.286L62.058 21.368C62.058 20.751 61.99 20.545 61.441 20.545C60.89 20.545 58.701 20.545 58.701 20.545L58.701 20.545C58.701 20.545 59.252 20.475 59.252 19.858L59.252 19.858L62.139 18.826L62.139 9.689L60.216 9.689L60.216 12.055L58.807 12.055L58.807 12.682L52.036 12.682L52.036 15.368L50.243 15.368L25.359 15.368L25.359 12.682L18.591 12.682L18.591 12.055L17.181 12.055L17.181 9.689L15.259 9.689L15.259 18.826L18.144 19.858C18.144 19.858 18.144 22.056 18.144 22.675C18.144 23.292 18.695 23.361 18.695 23.361L18.695 38.945C18.695 38.945 16.506 38.945 15.957 38.945C15.407 38.945 15.337 39.152 15.337 39.771L15.337 46.688C15.337 47.307 15.407 47.512 15.957 47.512C15.957 47.512 17.548 47.512 17.695 47.512C17.841 47.512 18.05 47.637 18.05 48.034C18.05 48.432 18.237 48.746 18.489 48.871L18.489 55.179L15.227 56.581C15.227 56.581 15.227 62.618 15.227 62.869C15.227 63.119 15.414 63.182 15.644 63.182L18.643 63.182L18.643 59.67L19.228 59.67C19.228 59.67 19.228 62.042 19.228 62.289C19.228 62.534 19.413 62.719 19.658 62.719L24.896 62.719C25.143 62.719 25.327 62.534 25.327 62.289L25.327 59.67L50.243 59.67z"/>
  <path stroke-width="0.25" stroke-linejoin="round" d="M62.082 58.838L50.243 58.838L15.314 58.838"/>
  <path stroke-width="0.25" stroke-linejoin="round" d="M58.17 59.67L52.07 59.67"/>
  <path stroke-width="0.25" stroke-linejoin="round" d="M58.807 12.682L58.807 15.368L58.128 15.368L58.128 12.717"/>
  <path stroke-width="0.25" stroke-linejoin="round" d="M58.128 15.368L52.039 15.368"/>
  <path stroke-width="0.25" stroke-linejoin="round" d="M60.216 12.055L60.216 16.399L50.243 16.399L17.181 16.399L17.181 12.055"/>
  <path stroke-width="0.13" stroke-linejoin="round" d="M58.878 14.567L60.204 14.567"/>
  <path stroke-width="0.13" stroke-linejoin="round" d="M60.216 12.055L62.113 12.055"/>
  <path stroke-width="0.13" stroke-linejoin="round" d="M60.216 12.919L62.113 12.919"/>
  <path stroke-width="0.25" stroke-linejoin="round" d="M18.643 59.67L18.643 58.851"/>
  <path stroke-width="0.25" stroke-linejoin="round" d="M18.579 60.753L15.316 60.753"/>
  <path stroke-width="0.25" stroke-linejoin="round" d="M58.755 59.67L58.755 58.851"/>
  <path stroke-width="0.25" stroke-linejoin="round" d="M58.817 60.753L62.082 60.753"/>
  <g>
   <g>
    <path stroke-width="0.25" stroke-linejoin="round" d="M27.324 23.038L24.439 23.038L24.439 21.798L27.324 21.798L27.324 23.038z"/>
    <path stroke-width="0.25" stroke-linejoin="round" d="M27.324 29.007L24.437 29.007L24.437 27.768L27.324 27.768L27.324 29.007z"/>
    <path stroke-width="0.25" stroke-linejoin="round" d="M28.577 26.022L23.184 26.022L23.184 24.783L28.577 24.783L28.577 26.022z"/>
   </g>
   <g>
    <path stroke-width="0.25" stroke-linejoin="round" d="M32.558 23.038L32.558 21.798L35.445 21.798L35.445 23.038L32.558 23.038z"/>
    <path stroke-width="0.25" stroke-linejoin="round" d="M32.558 29.007L32.558 27.768L35.445 27.768L35.445 29.007L32.558 29.007z"/>
    <path stroke-width="0.25" stroke-linejoin="round" d="M31.303 26.022L31.303 24.783L36.698 24.783L36.698 26.022L31.303 26.022z"/>
   </g>
   <g>
    <path stroke-width="0.25" stroke-linejoin="round" d="M40.679 23.038L40.679 21.798L43.566 21.798L43.566 23.038L40.679 23.038z"/>
    <path stroke-width="0.25" stroke-linejoin="round" d="M40.679 29.007L40.679 27.768L43.566 27.768L43.566 29.007L40.679 29.007z"/>
    <path stroke-width="0.25" stroke-linejoin="round" d="M39.426 26.022L39.426 24.783L44.82 24.783L44.82 26.022L39.426 26.022z"/>
   </g>
   <g>
    <path stroke-width="0.25" stroke-linejoin="round" d="M48.801 23.038L48.801 21.798L51.686 21.798L51.686 23.038L48.801 23.038z"/>
    <path stroke-width="0.25" stroke-linejoin="round" d="M48.801 29.007L48.801 27.768L51.686 27.768L51.686 29.007L48.801 29.007z"/>
    <path stroke-width="0.25" stroke-linejoin="round" d="M47.546 26.022L47.546 24.783L52.941 24.783L52.941 26.022L47.546 26.022z"/>
   </g>
  </g>
  <g>
   <g>
    <path stroke-width="0.25" stroke-linejoin="round" d="M27.324 31.926L24.439 31.926L24.439 30.689L27.324 30.689L27.324 31.926z"/>
    <path stroke-width="0.25" stroke-linejoin="round" d="M27.324 37.896L24.437 37.896L24.437 36.658L27.324 36.658L27.324 37.896z"/>
    <path stroke-width="0.25" stroke-linejoin="round" d="M28.577 34.911L23.184 34.911L23.184 33.673L28.577 33.673L28.577 34.911z"/>
   </g>
   <g>
    <path stroke-width="0.25" stroke-linejoin="round" d="M32.558 31.926L32.558 30.689L35.445 30.689L35.445 31.926L32.558 31.926z"/>
    <path stroke-width="0.25" stroke-linejoin="round" d="M32.558 37.896L32.558 36.658L35.445 36.658L35.445 37.896L32.558 37.896z"/>
    <path stroke-width="0.25" stroke-linejoin="round" d="M31.303 34.911L31.303 33.673L36.698 33.673L36.698 34.911L31.303 34.911z"/>
   </g>
   <g>
    <path stroke-width="0.25" stroke-linejoin="round" d="M40.679 31.926L40.679 30.689L43.566 30.689L43.566 31.926L40.679 31.926z"/>
    <path stroke-width="0.25" stroke-linejoin="round" d="M40.679 37.896L40.679 36.658L43.566 36.658L43.566 37.896L40.679 37.896z"/>
    <path stroke-width="0.25" stroke-linejoin="round" d="M39.426 34.911L39.426 33.673L44.82 33.673L44.82 34.911L39.426 34.911z"/>
   </g>
   <g>
    <path stroke-width="0.25" stroke-linejoin="round" d="M48.801 31.926L48.801 30.689L51.686 30.689L51.686 31.926L48.801 31.926z"/>
    <path stroke-width="0.25" stroke-linejoin="round" d="M48.801 37.896L48.801 36.658L51.686 36.658L51.686 37.896L48.801 37.896z"/>
    <path stroke-width="0.25" stroke-linejoin="round" d="M47.546 34.911L47.546 33.673L52.941 33.673L52.941 34.911L47.546 34.911z"/>
   </g>
  </g>
  <g>
   <g>
    <path stroke-width="0.25" stroke-linejoin="round" d="M27.324 40.807L24.439 40.807L24.439 39.569L27.324 39.569L27.324 40.807z"/>
    <path stroke-width="0.25" stroke-linejoin="round" d="M27.324 46.776L24.437 46.776L24.437 45.537L27.324 45.537L27.324 46.776z"/>
    <path stroke-width="0.25" stroke-linejoin="round" d="M28.577 43.792L23.184 43.792L23.184 42.552L28.577 42.552L28.577 43.792z"/>
   </g>
   <g>
    <path stroke-width="0.25" stroke-linejoin="round" d="M32.558 40.807L32.558 39.569L35.445 39.569L35.445 40.807L32.558 40.807z"/>
    <path stroke-width="0.25" stroke-linejoin="round" d="M32.558 46.776L32.558 45.537L35.445 45.537L35.445 46.776L32.558 46.776z"/>
    <path stroke-width="0.25" stroke-linejoin="round" d="M31.303 43.792L31.303 42.552L36.698 42.552L36.698 43.792L31.303 43.792z"/>
   </g>
   <g>
    <path stroke-width="0.25" stroke-linejoin="round" d="M40.679 40.807L40.679 39.569L43.566 39.569L43.566 40.807L40.679 40.807z"/>
    <path stroke-width="0.25" stroke-linejoin="round" d="M40.679 46.776L40.679 45.537L43.566 45.537L43.566 46.776L40.679 46.776z"/>
    <path stroke-width="0.25" stroke-linejoin="round" d="M39.426 43.792L39.426 42.552L44.82 42.552L44.82 43.792L39.426 43.792z"/>
   </g>
   <g>
    <path stroke-width="0.25" stroke-linejoin="round" d="M48.801 40.807L48.801 39.569L51.686 39.569L51.686 40.807L48.801 40.807z"/>
    <path stroke-width="0.25" stroke-linejoin="round" d="M48.801 46.776L48.801 45.537L51.686 45.537L51.686 46.776L48.801 46.776z"/>
    <path stroke-width="0.25" stroke-linejoin="round" d="M47.546 43.792L47.546 42.552L52.941 42.552L52.941 43.792L47.546 43.792z"/>
   </g>
  </g>
  <path stroke-width="0.131" stroke-linejoin="round" d="M56.5 50.917L56.5 56.645L49.959 56.645L49.959 50.768L57.616 50.768L57.616 28.376C57.616 28.376 60.368 28.376 60.814 28.376C61.262 28.376 61.335 28.228 61.335 27.931L61.335 21.829C61.335 21.533 61.262 21.384 60.814 21.384C60.368 21.384 57.616 21.384 57.616 21.384L57.616 19.077L50.28 19.077L19.855 19.077L19.855 39.759C19.855 39.759 17.102 39.759 16.655 39.759C16.21 39.759 16.135 39.908 16.135 40.204L16.135 46.305C16.135 46.603 16.21 46.752 16.655 46.752C17.102 46.752 19.855 46.752 19.855 46.752L19.855 50.768L27.513 50.768L27.513 56.645L20.971 56.645L20.971 50.917"/>
  <path stroke-width="0.131" stroke-linejoin="round" d="M56.798 19.376L56.798 22.047L60.667 22.047L60.667 27.707L56.798 27.707L56.798 49.578C56.798 49.578 50.74 49.578 50.145 49.578C49.549 49.578 49.363 49.875 49.363 50.359L49.363 57.463L28.108 57.463L28.108 50.359C28.108 49.875 27.922 49.578 27.326 49.578C26.731 49.578 20.673 49.578 20.673 49.578L20.673 46.082L16.804 46.082L16.804 40.423L20.673 40.423L20.673 19.376"/>
  <path stroke-width="0.131" stroke-linejoin="round" d="M50.145 49.578L49.103 49.578C48.508 49.578 48.322 49.875 48.322 50.359L48.322 56.496L29.149 56.496L29.149 50.359C29.149 49.875 28.963 49.578 28.367 49.578L27.326 49.578"/>
 </g>
 <g>
  <path stroke-width="0.25" stroke-linejoin="round" d="M25.475 134.735C25.475 134.735 22.03 129.122 21.711 128.74C21.393 128.356 21.393 127.783 21.393 127.463C21.393 127.144 21.393 103.35 21.393 103.35"/>
  <path stroke-width="0.25" stroke-linejoin="round" d="M21.138 129.824C21.457 129.824 21.647 130.206 21.647 131.292C21.647 132.376 22.414 133.269 23.306 133.269L24.454 133.269"/>
  <path stroke-width="0.25" stroke-linejoin="round" d="M24.936 93.156L28.89 93.156L28.89 89.522"/>
  <path stroke-width="0.13" stroke-linejoin="round" d="M30.74 88.87L30.74 100.649"/>
  <path stroke-width="0.25" stroke-linejoin="round" d="M33.665 94.04L33.665 96.07"/>
  <path stroke-width="0.25" stroke-linejoin="round" d="M36.765 96.182L36.765 100.608"/>
  <path stroke-width="0.13" stroke-linejoin="round" d="M36.728 97.102L33.518 97.102"/>
  <path stroke-width="0.13" stroke-linejoin="round" d="M33.591 95.775L31.858 95.775"/>
  <path stroke-width="0.25" stroke-linejoin="round" d="M16.759 124.7L18.346 124.7L18.346 128.5L16.797 128.5"/>
  <path stroke-width="0.35" stroke-linejoin="round" d="M55.881 131.866C55.881 133.205 54.796 134.77 53.6 134.77L40.149 134.77C39.767 134.77 39.703 134.48 39.703 134.098C39.703 133.716 39.703 132.885 39.703 132.503C39.703 132.121 39.128 132.185 39.128 132.185L37.057 132.185C37.057 132.185 36.482 132.121 36.482 132.503C36.482 132.885 36.482 133.716 36.482 134.098C36.482 134.48 36.418 134.77 36.036 134.77L22.588 134.77C21.393 134.77 20.307 133.205 20.307 131.866"/>
  <path stroke-width="0.25" stroke-linejoin="round" d="M19.16 94.74C19.16 95.507 19.16 96.078 19.16 97.034C19.16 97.992 18.777 98.694 18.138 98.694C17.501 98.694 16.864 98.694 16.864 98.694"/>
  <path stroke-width="0.25" stroke-linejoin="round" d="M59.326 98.694C59.326 98.694 58.688 98.694 58.049 98.694C57.411 98.694 57.03 97.992 57.03 97.034C57.03 96.078 57.03 95.506 57.03 94.739"/>
  <path stroke-width="0.25" stroke-linejoin="round" d="M50.713 134.735C50.713 134.735 54.158 129.122 54.478 128.74C54.796 128.356 54.796 127.783 54.796 127.463C54.796 127.144 54.796 103.35 54.796 103.35"/>
  <path stroke-width="0.25" stroke-linejoin="round" d="M55.051 129.824C54.732 129.824 54.54 130.206 54.54 131.292C54.54 132.376 53.776 133.269 52.883 133.269L51.734 133.269"/>
  <path stroke-width="0.25" stroke-linejoin="round" d="M51.25 93.156L47.295 93.156L47.295 89.522"/>
  <path stroke-width="0.13" stroke-linejoin="round" d="M45.445 88.87L45.445 100.649"/>
  <path stroke-width="0.13" stroke-linejoin="round" d="M55.179 103.35L38.093 103.35L21.01 103.35"/>
  <path stroke-width="0.13" stroke-linejoin="round" d="M55.179 102.266L38.093 102.266L21.01 102.266"/>
  <path stroke-width="0.13" stroke-linejoin="round" d="M45.433 90.426L38.093 90.426L30.751 90.426"/>
  <path stroke-width="0.25" stroke-linejoin="round" d="M44.328 100.682C44.328 100.682 44.328 93.745 44.328 93.118C44.328 92.602 43.478 92.676 43.258 92.676C43.036 92.676 38.093 92.676 38.093 92.676C38.093 92.676 33.149 92.676 32.927 92.676C32.707 92.676 31.858 92.602 31.858 93.118C31.858 93.745 31.858 100.682 31.858 100.682"/>
  <path stroke-width="0.13" stroke-linejoin="round" d="M44.328 93.118C44.328 92.602 43.774 92.073 43.258 92.073C43.036 92.073 38.093 92.073 38.093 92.073C38.093 92.073 33.149 92.073 32.927 92.073C32.411 92.073 31.858 92.602 31.858 93.118"/>
  <path stroke-width="0.25" stroke-linejoin="round" d="M44.328 94.004L38.093 94.004L31.858 94.004"/>
  <path stroke-width="0.25" stroke-linejoin="round" d="M42.52 94.04L42.52 96.07"/>
  <path stroke-width="0.13" stroke-linejoin="round" d="M44.328 96.106L38.093 96.106L31.858 96.106"/>
  <path stroke-width="0.25" stroke-linejoin="round" d="M39.42 96.182L39.42 100.608"/>
  <path stroke-width="0.13" stroke-linejoin="round" d="M39.457 97.102L42.667 97.102"/>
  <path stroke-width="0.13" stroke-linejoin="round" d="M39.347 96.697L38.093 96.697L36.838 96.697"/>
  <path stroke-width="0.13" stroke-linejoin="round" d="M42.482 95.075L38.093 95.075L33.703 95.075"/>
  <path stroke-width="0.13" stroke-linejoin="round" d="M42.594 95.775L44.328 95.775"/>
  <path stroke-width="0.25" stroke-linejoin="round" d="M59.429 124.7L57.843 124.7L57.843 128.5L59.393 128.5"/>
  <g>
   <g>
    <path stroke-width="0.25" stroke-linejoin="round" d="M28.481 105.612L27.01 105.612L27.01 103.801L24.713 103.801L24.713 105.612L23.242 105.612L23.242 107.227L24.713 107.227L24.713 109.039L27.01 109.039L27.01 107.227L28.481 107.227L28.481 105.612z"/>
    <path stroke-width="0.13" stroke-linejoin="round" d="M25.861 103.781C25.861 103.781 28.335 103.781 28.923 103.781C29.515 103.781 29.736 104.075 29.736 104.444C29.736 104.813 29.736 107.838 29.736 108.504C29.736 109.168 29.146 109.388 28.923 109.978C28.702 110.569 27.559 111.381 25.861 111.381C24.164 111.381 23.021 110.569 22.8 109.978C22.579 109.388 21.987 109.168 21.987 108.504C21.987 107.838 21.987 104.813 21.987 104.444C21.987 104.075 22.21 103.781 22.8 103.781C23.39 103.781 25.861 103.781 25.861 103.781z"/>
    <path stroke-width="0.13" stroke-linejoin="round" d="M29.182 109.509L22.541 109.509"/>
   </g>
   <g>
    <path stroke-width="0.25" stroke-linejoin="round" d="M28.481 114.522L27.01 114.522L27.01 112.709L24.713 112.709L24.713 114.522L23.242 114.522L23.242 116.137L24.713 116.137L24.713 117.948L27.01 117.948L27.01 116.137L28.481 116.137L28.481 114.522z"/>
    <path stroke-width="0.13" stroke-linejoin="round" d="M25.861 112.691C25.861 112.691 28.335 112.691 28.923 112.691C29.515 112.691 29.736 112.986 29.736 113.355C29.736 113.724 29.736 116.748 29.736 117.412C29.736 118.078 29.146 118.299 28.923 118.888C28.702 119.48 27.559 120.29 25.861 120.29C24.164 120.29 23.021 119.48 22.8 118.888C22.579 118.299 21.987 118.078 21.987 117.412C21.987 116.748 21.987 113.724 21.987 113.355C21.987 112.986 22.21 112.691 22.8 112.691C23.39 112.691 25.861 112.691 25.861 112.691z"/>
    <path stroke-width="0.13" stroke-linejoin="round" d="M29.182 118.418L22.541 118.418"/>
   </g>
   <g>
    <path stroke-width="0.25" stroke-linejoin="round" d="M28.481 123.432L27.01 123.432L27.01 121.62L24.713 121.62L24.713 123.432L23.242 123.432L23.242 125.046L24.713 125.046L24.713 126.858L27.01 126.858L27.01 125.046L28.481 125.046L28.481 123.432z"/>
    <path stroke-width="0.13" stroke-linejoin="round" d="M25.861 121.6C25.861 121.6 28.335 121.6 28.923 121.6C29.515 121.6 29.736 121.894 29.736 122.265C29.736 122.632 29.736 125.659 29.736 126.322C29.736 126.986 29.146 127.207 28.923 127.799C28.702 128.389 27.559 129.2 25.861 129.2C24.164 129.2 23.021 128.389 22.8 127.799C22.579 127.207 21.987 126.986 21.987 126.322C21.987 125.659 21.987 122.632 21.987 122.265C21.987 121.894 22.21 121.6 22.8 121.6C23.39 121.6 25.861 121.6 25.861 121.6z"/>
    <path stroke-width="0.13" stroke-linejoin="round" d="M29.182 127.328L22.541 127.328"/>
   </g>
  </g>
  <g>
   <g>
    <path stroke-width="0.25" stroke-linejoin="round" d="M36.634 105.612L35.164 105.612L35.164 103.801L32.866 103.801L32.866 105.612L31.396 105.612L31.396 107.227L32.866 107.227L32.866 109.039L35.164 109.039L35.164 107.227L36.634 107.227L36.634 105.612z"/>
    <path stroke-width="0.13" stroke-linejoin="round" d="M34.015 103.781C34.015 103.781 36.487 103.781 37.079 103.781C37.668 103.781 37.89 104.075 37.89 104.444C37.89 104.813 37.89 107.838 37.89 108.504C37.89 109.168 37.299 109.388 37.079 109.978C36.856 110.569 35.713 111.381 34.015 111.381C32.319 111.381 31.175 110.569 30.954 109.978C30.731 109.388 30.141 109.168 30.141 108.504C30.141 107.838 30.141 104.813 30.141 104.444C30.141 104.075 30.362 103.781 30.954 103.781C31.544 103.781 34.015 103.781 34.015 103.781z"/>
    <path stroke-width="0.13" stroke-linejoin="round" d="M37.337 109.509L30.695 109.509"/>
   </g>
   <g>
    <path stroke-width="0.25" stroke-linejoin="round" d="M36.634 114.522L35.164 114.522L35.164 112.709L32.866 112.709L32.866 114.522L31.396 114.522L31.396 116.137L32.866 116.137L32.866 117.948L35.164 117.948L35.164 116.137L36.634 116.137L36.634 114.522z"/>
    <path stroke-width="0.13" stroke-linejoin="round" d="M34.015 112.691C34.015 112.691 36.487 112.691 37.079 112.691C37.668 112.691 37.89 112.986 37.89 113.355C37.89 113.724 37.89 116.748 37.89 117.412C37.89 118.078 37.299 118.299 37.079 118.888C36.856 119.48 35.713 120.29 34.015 120.29C32.319 120.29 31.175 119.48 30.954 118.888C30.731 118.299 30.141 118.078 30.141 117.412C30.141 116.748 30.141 113.724 30.141 113.355C30.141 112.986 30.362 112.691 30.954 112.691C31.544 112.691 34.015 112.691 34.015 112.691z"/>
    <path stroke-width="0.13" stroke-linejoin="round" d="M37.337 118.418L30.695 118.418"/>
   </g>
   <g>
    <path stroke-width="0.25" stroke-linejoin="round" d="M36.634 123.432L35.164 123.432L35.164 121.62L32.866 121.62L32.866 123.432L31.396 123.432L31.396 125.046L32.866 125.046L32.866 126.858L35.164 126.858L35.164 125.046L36.634 125.046L36.634 123.432z"/>
    <path stroke-width="0.13" stroke-linejoin="round" d="M34.015 121.6C34.015 121.6 36.487 121.6 37.079 121.6C37.668 121.6 37.89 121.894 37.89 122.265C37.89 122.632 37.89 125.659 37.89 126.322C37.89 126.986 37.299 127.207 37.079 127.799C36.856 128.389 35.713 129.2 34.015 129.2C32.319 129.2 31.175 128.389 30.954 127.799C30.731 127.207 30.141 126.986 30.141 126.322C30.141 125.659 30.141 122.632 30.141 122.265C30.141 121.894 30.362 121.6 30.954 121.6C31.544 121.6 34.015 121.6 34.015 121.6z"/>
    <path stroke-width="0.13" stroke-linejoin="round" d="M37.337 127.328L30.695 127.328"/>
   </g>
  </g>
  <g>
   <g>
    <path stroke-width="0.25" stroke-linejoin="round" d="M44.787 105.612L43.317 105.612L43.317 103.801L41.02 103.801L41.02 105.612L39.548 105.612L39.548 107.227L41.02 107.227L41.02 109.039L43.317 109.039L43.317 107.227L44.787 107.227L44.787 105.612z"/>
    <path stroke-width="0.13" stroke-linejoin="round" d="M42.168 103.781C42.168 103.781 44.64 103.781 45.231 103.781C45.82 103.781 46.042 104.075 46.042 104.444C46.042 104.813 46.042 107.838 46.042 108.504C46.042 109.168 45.451 109.388 45.231 109.978C45.009 110.569 43.865 111.381 42.168 111.381C40.472 111.381 39.328 110.569 39.106 109.978C38.884 109.388 38.295 109.168 38.295 108.504C38.295 107.838 38.295 104.813 38.295 104.444C38.295 104.075 38.517 103.781 39.106 103.781C39.697 103.781 42.168 103.781 42.168 103.781z"/>
    <path stroke-width="0.13" stroke-linejoin="round" d="M45.49 109.509L38.847 109.509"/>
   </g>
   <g>
    <path stroke-width="0.25" stroke-linejoin="round" d="M44.787 114.522L43.317 114.522L43.317 112.709L41.02 112.709L41.02 114.522L39.548 114.522L39.548 116.137L41.02 116.137L41.02 117.948L43.317 117.948L43.317 116.137L44.787 116.137L44.787 114.522z"/>
    <path stroke-width="0.13" stroke-linejoin="round" d="M42.168 112.691C42.168 112.691 44.64 112.691 45.231 112.691C45.82 112.691 46.042 112.986 46.042 113.355C46.042 113.724 46.042 116.748 46.042 117.412C46.042 118.078 45.451 118.299 45.231 118.888C45.009 119.48 43.865 120.29 42.168 120.29C40.472 120.29 39.328 119.48 39.106 118.888C38.884 118.299 38.295 118.078 38.295 117.412C38.295 116.748 38.295 113.724 38.295 113.355C38.295 112.986 38.517 112.691 39.106 112.691C39.697 112.691 42.168 112.691 42.168 112.691z"/>
    <path stroke-width="0.13" stroke-linejoin="round" d="M45.49 118.418L38.847 118.418"/>
   </g>
   <g>
    <path stroke-width="0.25" stroke-linejoin="round" d="M44.787 123.432L43.317 123.432L43.317 121.62L41.02 121.62L41.02 123.432L39.548 123.432L39.548 125.046L41.02 125.046L41.02 126.858L43.317 126.858L43.317 125.046L44.787 125.046L44.787 123.432z"/>
    <path stroke-width="0.13" stroke-linejoin="round" d="M42.168 121.6C42.168 121.6 44.64 121.6 45.231 121.6C45.82 121.6 46.042 121.894 46.042 122.265C46.042 122.632 46.042 125.659 46.042 126.322C46.042 126.986 45.451 127.207 45.231 127.799C45.009 128.389 43.865 129.2 42.168 129.2C40.472 129.2 39.328 128.389 39.106 127.799C38.884 127.207 38.295 126.986 38.295 126.322C38.295 125.659 38.295 122.632 38.295 122.265C38.295 121.894 38.517 121.6 39.106 121.6C39.697 121.6 42.168 121.6 42.168 121.6z"/>
    <path stroke-width="0.13" stroke-linejoin="round" d="M45.49 127.328L38.847 127.328"/>
   </g>
  </g>
  <g>
   <g>
    <path stroke-width="0.25" stroke-linejoin="round" d="M52.941 105.612L51.47 105.612L51.47 103.801L49.173 103.801L49.173 105.612L47.703 105.612L47.703 107.227L49.173 107.227L49.173 109.039L51.47 109.039L51.47 107.227L52.941 107.227L52.941 105.612z"/>
    <path stroke-width="0.13" stroke-linejoin="round" d="M50.322 103.781C50.322 103.781 52.795 103.781 53.384 103.781C53.975 103.781 54.195 104.075 54.195 104.444C54.195 104.813 54.195 107.838 54.195 108.504C54.195 109.168 53.606 109.388 53.384 109.978C53.162 110.569 52.018 111.381 50.322 111.381C48.625 111.381 47.481 110.569 47.259 109.978C47.037 109.388 46.448 109.168 46.448 108.504C46.448 107.838 46.448 104.813 46.448 104.444C46.448 104.075 46.668 103.781 47.259 103.781C47.85 103.781 50.322 103.781 50.322 103.781z"/>
    <path stroke-width="0.13" stroke-linejoin="round" d="M53.643 109.509L47 109.509"/>
   </g>
   <g>
    <path stroke-width="0.25" stroke-linejoin="round" d="M52.941 114.522L51.47 114.522L51.47 112.709L49.173 112.709L49.173 114.522L47.703 114.522L47.703 116.137L49.173 116.137L49.173 117.948L51.47 117.948L51.47 116.137L52.941 116.137L52.941 114.522z"/>
    <path stroke-width="0.13" stroke-linejoin="round" d="M50.322 112.691C50.322 112.691 52.795 112.691 53.384 112.691C53.975 112.691 54.195 112.986 54.195 113.355C54.195 113.724 54.195 116.748 54.195 117.412C54.195 118.078 53.606 118.299 53.384 118.888C53.162 119.48 52.018 120.29 50.322 120.29C48.625 120.29 47.481 119.48 47.259 118.888C47.037 118.299 46.448 118.078 46.448 117.412C46.448 116.748 46.448 113.724 46.448 113.355C46.448 112.986 46.668 112.691 47.259 112.691C47.85 112.691 50.322 112.691 50.322 112.691z"/>
    <path stroke-width="0.13" stroke-linejoin="round" d="M53.643 118.418L47 118.418"/>
   </g>
   <g>
    <path stroke-width="0.25" stroke-linejoin="round" d="M52.941 123.432L51.47 123.432L51.47 121.62L49.173 121.62L49.173 123.432L47.703 123.432L47.703 125.046L49.173 125.046L49.173 126.858L51.47 126.858L51.47 125.046L52.941 125.046L52.941 123.432z"/>
    <path stroke-width="0.13" stroke-linejoin="round" d="M50.322 121.6C50.322 121.6 52.795 121.6 53.384 121.6C53.975 121.6 54.195 121.894 54.195 122.265C54.195 122.632 54.195 125.659 54.195 126.322C54.195 126.986 53.606 127.207 53.384 127.799C53.162 128.389 52.018 129.2 50.322 129.2C48.625 129.2 47.481 128.389 47.259 127.799C47.037 127.207 46.448 126.986 46.448 126.322C46.448 125.659 46.448 122.632 46.448 122.265C46.448 121.894 46.668 121.6 47.259 121.6C47.85 121.6 50.322 121.6 50.322 121.6z"/>
    <path stroke-width="0.13" stroke-linejoin="round" d="M53.643 127.328L47 127.328"/>
   </g>
  </g>
  <path stroke-width="0.25" stroke-linejoin="round" d="M22.542 94.674L28.89 94.674L28.89 99.075"/>
  <path stroke-width="0.25" stroke-linejoin="round" d="M28.89 99.075L22.542 99.075L22.542 94.674"/>
  <path stroke-width="0.25" stroke-linejoin="round" d="M53.673 94.674L47.325 94.674L47.325 99.075"/>
  <path stroke-width="0.25" stroke-linejoin="round" d="M47.325 99.075L53.673 99.075L53.673 94.674"/>
  <path stroke-width="0.35" stroke-linejoin="round" d="M55.881 131.801L58.944 131.801C59.198 131.801 59.39 131.227 59.39 130.781C59.39 130.781 59.39 96.908 59.39 95.887C59.39 94.867 58.56 94.739 58.049 94.739C57.539 94.739 57.03 94.739 57.03 94.739C57.03 93.974 56.328 93.156 55.435 93.156L51.25 93.156C51.25 93.156 47.421 89.507 47.039 89.188C46.655 88.87 46.338 88.742 45.89 88.742C45.444 88.742 38.093 88.742 38.093 88.742C38.093 88.742 30.74 88.742 30.295 88.742C29.847 88.742 29.53 88.87 29.146 89.188C28.763 89.507 24.936 93.156 24.936 93.156L20.754 93.156C19.861 93.156 19.16 93.974 19.16 94.74C19.16 94.74 18.649 94.739 18.138 94.739C17.629 94.739 16.798 94.867 16.798 95.887C16.798 96.908 16.798 130.781 16.798 130.781C16.798 131.227 16.99 131.801 17.245 131.801L20.307 131.801"/>
  <path stroke-width="0.25" stroke-linejoin="round" d="M20.307 131.801L20.562 131.801C20.818 131.801 21.01 131.227 21.01 130.781L21.022 100.671L38.094 100.671L55.165 100.671L55.179 130.781C55.179 131.227 55.371 131.801 55.625 131.801L55.881 131.801"/>
 </g>
 <g>
  <text x="11.599" y="169.306" stroke="none" fill="#000000" font-family="'Arial'" font-size="4.924">1</text>
 </g>
 <g>
  <text x="59.159" y="169.306" stroke="none" fill="#000000" font-family="'Arial'" font-size="4.924">10</text>
 </g>
 <g>
  <text x="11.599" y="214.611" stroke="none" fill="#000000" font-family="'Arial'" font-size="4.924">3</text>
 </g>
 <g>
  <text x="59.159" y="214.611" stroke="none" fill="#000000" font-family="'Arial'" font-size="4.924">12</text>
 </g>
 <g>
  <text x="25.219" y="158.862" stroke="none" fill="#000000" font-family="'Arial'" font-size="4.924">4</text>
 </g>
 <g>
  <text x="47.582" y="158.862" stroke="none" fill="#000000" font-family="'Arial'" font-size="4.924">7</text>
 </g>
 <g>
  <text x="25.219" y="217.336" stroke="none" fill="#000000" font-family="'Arial'" font-size="4.924">6</text>
 </g>
 <g>
  <text x="47.582" y="217.336" stroke="none" fill="#000000" font-family="'Arial'" font-size="4.924">9</text>
 </g>
 <path stroke-width="0.13" stroke-linejoin="round" d="M56.204 200.358L56.204 201.604L57.545 201.604L57.545 200.383"/>
 <path stroke-width="0.25" stroke-linejoin="round" d="M56.204 183.212L56.204 178.163L57.521 178.163C57.521 178.163 57.521 178.856 57.521 179.097C57.521 179.336 57.545 179.383 57.713 179.383L58.143 179.383C58.31 179.383 58.335 179.336 58.335 179.097L58.335 178.522"/>
 <path stroke-width="0.13" stroke-linejoin="round" d="M58.712 178.485L57.545 178.485"/>
 <path stroke-width="0.13" stroke-linejoin="round" d="M58.893 178.481C58.606 178.481 58.338 178.786 58.338 179.193"/>
 <path stroke-width="0.25" stroke-linejoin="round" d="M59.503 180.241C59.503 180.241 58.121 180.306 57.808 180.306C57.496 180.306 57.098 180.405 57.098 180.894C57.098 181.383 57.496 181.481 57.808 181.481C58.121 181.481 59.503 181.546 59.503 181.546"/>
 <path stroke-width="0.25" stroke-linejoin="round" d="M54.136 175.11L48.195 175.11C48.195 175.11 48.195 170.366 48.195 169.942C48.195 169.519 48.548 169.096 48.865 169.096L51.81 169.096C52.128 169.096 52.479 169.519 52.479 169.942L52.479 175.038"/>
 <path stroke-width="0.13" stroke-linejoin="round" d="M44.521 168.876L41.377 168.876"/>
 <path stroke-width="0.25" stroke-linejoin="round" d="M22.05 175.11L27.992 175.11C27.992 175.11 27.992 170.366 27.992 169.942C27.992 169.519 27.638 169.096 27.321 169.096L24.376 169.096C24.059 169.096 23.705 169.519 23.705 169.942L23.705 175.038"/>
 <path stroke-width="0.13" stroke-linejoin="round" d="M31.597 175.086L38.093 175.086L44.588 175.086"/>
 <path stroke-width="0.13" stroke-linejoin="round" d="M31.666 168.876L34.81 168.876"/>
 <path stroke-width="0.25" stroke-linejoin="round" d="M34.844 164.828L34.844 169.293L41.341 169.293L41.341 164.828L34.844 164.828z"/>
 <path stroke-width="0.25" stroke-linejoin="round" d="M36.575 175.033L36.575 171.544L39.61 171.544L39.61 175.033"/>
 <path stroke-width="0.25" stroke-linejoin="round" d="M36.829 163.171C36.546 163.171 36.46 163.229 36.46 163.427C36.46 163.626 36.46 164.08 36.46 164.08L39.725 164.08C39.725 164.08 39.725 163.626 39.725 163.427C39.725 163.229 39.64 163.171 39.356 163.171L36.829 163.171z"/>
 <g>
  <path stroke-width="0.13" stroke-linejoin="round" d="M54.945 194.945L54.338 196.27L54.338 201.643L54.945 202.967"/>
  <path stroke-width="0.25" stroke-linejoin="round" d="M47.408 199.562L48.27 199.562L48.27 201.562L53.402 201.562L53.402 199.599L54.264 199.599"/>
  <path stroke-width="0.25" stroke-linejoin="round" d="M47.408 198.352L48.27 198.352L48.27 196.35L53.402 196.35L53.402 198.313L54.264 198.313"/>
  <path stroke-width="0.13" stroke-linejoin="round" d="M53.402 203.099L53.402 201.562L54.283 201.562"/>
  <path stroke-width="0.13" stroke-linejoin="round" d="M48.27 203.099L48.27 201.562L47.389 201.562"/>
  <path stroke-width="0.13" stroke-linejoin="round" d="M53.402 194.813L53.402 196.35L54.283 196.35"/>
  <path stroke-width="0.13" stroke-linejoin="round" d="M48.27 194.813L48.27 196.35L47.389 196.35"/>
  <path stroke-width="0.25" stroke-linejoin="round" d="M45.853 199.562L44.991 199.562L44.991 201.562L39.859 201.562L39.859 199.599L38.997 199.599"/>
  <path stroke-width="0.25" stroke-linejoin="round" d="M45.853 198.352L44.991 198.352L44.991 196.35L39.859 196.35L39.859 198.313L38.997 198.313"/>
  <path stroke-width="0.13" stroke-linejoin="round" d="M39.859 203.099L39.859 201.562L38.978 201.562"/>
  <path stroke-width="0.13" stroke-linejoin="round" d="M44.991 203.099L44.991 201.562L45.871 201.562"/>
  <path stroke-width="0.13" stroke-linejoin="round" d="M39.859 194.813L39.859 196.35L38.978 196.35"/>
  <path stroke-width="0.13" stroke-linejoin="round" d="M44.991 194.813L44.991 196.35L45.871 196.35"/>
  <path stroke-width="0.13" stroke-linejoin="round" d="M21.503 194.945L22.109 196.27L22.109 201.643L21.503 202.967"/>
  <path stroke-width="0.25" stroke-linejoin="round" d="M29.059 199.562L28.198 199.562L28.198 201.562L23.065 201.562L23.065 199.599L22.204 199.599"/>
  <path stroke-width="0.25" stroke-linejoin="round" d="M29.059 198.352L28.198 198.352L28.198 196.35L23.065 196.35L23.065 198.313L22.204 198.313"/>
  <g>
   <path stroke-width="0.13" stroke-linejoin="round" d="M46.715 194.947L47.314 196.27L47.314 201.644L46.715 202.967"/>
   <path stroke-width="0.13" stroke-linejoin="round" d="M46.566 194.947L45.966 196.27L45.966 201.644L46.566 202.967"/>
   <path stroke-width="0.13" stroke-linejoin="round" d="M46.636 202.967L46.636 194.947"/>
  </g>
  <path stroke-width="0.25" stroke-linejoin="round" d="M30.591 199.562L31.452 199.562L31.452 201.562L36.584 201.562L36.584 199.599L37.445 199.599"/>
  <path stroke-width="0.25" stroke-linejoin="round" d="M30.591 198.352L31.452 198.352L31.452 196.35L36.584 196.35L36.584 198.313L37.445 198.313"/>
  <path stroke-width="0.13" stroke-linejoin="round" d="M36.584 203.099L36.584 201.562L37.465 201.562"/>
  <path stroke-width="0.13" stroke-linejoin="round" d="M31.452 203.099L31.452 201.562L30.571 201.562"/>
  <path stroke-width="0.13" stroke-linejoin="round" d="M36.584 194.813L36.584 196.35L37.465 196.35"/>
  <path stroke-width="0.13" stroke-linejoin="round" d="M31.452 194.813L31.452 196.35L30.571 196.35"/>
  <g>
   <path stroke-width="0.13" stroke-linejoin="round" d="M38.298 194.947L38.902 196.27L38.902 201.644L38.298 202.967"/>
   <path stroke-width="0.13" stroke-linejoin="round" d="M38.149 194.947L37.546 196.27L37.546 201.644L38.149 202.967"/>
   <path stroke-width="0.13" stroke-linejoin="round" d="M38.219 202.967L38.219 194.947"/>
  </g>
  <g>
   <path stroke-width="0.13" stroke-linejoin="round" d="M29.958 194.947L30.559 196.27L30.559 201.644L29.958 202.967"/>
   <path stroke-width="0.13" stroke-linejoin="round" d="M29.809 194.947L29.21 196.27L29.21 201.644L29.809 202.967"/>
   <path stroke-width="0.13" stroke-linejoin="round" d="M29.879 202.967L29.879 194.947"/>
  </g>
  <path stroke-width="0.13" stroke-linejoin="round" d="M23.065 203.099L23.065 201.562L22.184 201.562"/>
  <path stroke-width="0.13" stroke-linejoin="round" d="M28.198 203.099L28.198 201.562L29.077 201.562"/>
  <path stroke-width="0.13" stroke-linejoin="round" d="M23.065 194.813L23.065 196.35L22.184 196.35"/>
  <path stroke-width="0.13" stroke-linejoin="round" d="M28.198 194.813L28.198 196.35L29.077 196.35"/>
  <path stroke-width="0.13" stroke-linejoin="round" d="M54.835 194.699C54.905 194.699 54.963 194.758 54.963 194.829L54.963 203.032C54.963 203.103 54.905 203.161 54.835 203.161L21.612 203.161C21.542 203.161 21.484 203.103 21.484 203.032L21.484 194.829C21.484 194.758 21.542 194.699 21.612 194.699L54.835 194.699z"/>
 </g>
 <g>
  <path stroke-width="0.13" stroke-linejoin="round" d="M54.945 185.848L54.338 187.173L54.338 192.544L54.945 193.87"/>
  <path stroke-width="0.25" stroke-linejoin="round" d="M47.408 190.463L48.27 190.463L48.27 192.465L53.402 192.465L53.402 190.502L54.264 190.502"/>
  <path stroke-width="0.25" stroke-linejoin="round" d="M47.408 189.252L48.27 189.252L48.27 187.252L53.402 187.252L53.402 189.216L54.264 189.216"/>
  <path stroke-width="0.13" stroke-linejoin="round" d="M53.402 194.002L53.402 192.465L54.283 192.465"/>
  <path stroke-width="0.13" stroke-linejoin="round" d="M48.27 194.002L48.27 192.465L47.389 192.465"/>
  <path stroke-width="0.13" stroke-linejoin="round" d="M53.402 185.715L53.402 187.252L54.283 187.252"/>
  <path stroke-width="0.13" stroke-linejoin="round" d="M48.27 185.715L48.27 187.252L47.389 187.252"/>
  <path stroke-width="0.25" stroke-linejoin="round" d="M45.853 190.463L44.991 190.463L44.991 192.465L39.859 192.465L39.859 190.502L38.997 190.502"/>
  <path stroke-width="0.25" stroke-linejoin="round" d="M45.853 189.252L44.991 189.252L44.991 187.252L39.859 187.252L39.859 189.216L38.997 189.216"/>
  <path stroke-width="0.13" stroke-linejoin="round" d="M39.859 194.002L39.859 192.465L38.978 192.465"/>
  <path stroke-width="0.13" stroke-linejoin="round" d="M44.991 194.002L44.991 192.465L45.871 192.465"/>
  <path stroke-width="0.13" stroke-linejoin="round" d="M39.859 185.715L39.859 187.252L38.978 187.252"/>
  <path stroke-width="0.13" stroke-linejoin="round" d="M44.991 185.715L44.991 187.252L45.871 187.252"/>
  <path stroke-width="0.13" stroke-linejoin="round" d="M21.504 185.848L22.109 187.173L22.109 192.544L21.504 193.87"/>
  <path stroke-width="0.25" stroke-linejoin="round" d="M29.059 190.463L28.198 190.463L28.198 192.465L23.065 192.465L23.065 190.502L22.204 190.502"/>
  <path stroke-width="0.25" stroke-linejoin="round" d="M29.059 189.252L28.198 189.252L28.198 187.252L23.065 187.252L23.065 189.216L22.204 189.216"/>
  <g>
   <path stroke-width="0.13" stroke-linejoin="round" d="M46.715 185.848L47.314 187.173L47.314 192.545L46.715 193.87"/>
   <path stroke-width="0.13" stroke-linejoin="round" d="M46.566 185.848L45.966 187.173L45.966 192.545L46.566 193.87"/>
   <path stroke-width="0.13" stroke-linejoin="round" d="M46.636 193.87L46.636 185.848"/>
  </g>
  <path stroke-width="0.25" stroke-linejoin="round" d="M30.591 190.463L31.452 190.463L31.452 192.465L36.584 192.465L36.584 190.502L37.445 190.502"/>
  <path stroke-width="0.25" stroke-linejoin="round" d="M30.591 189.252L31.452 189.252L31.452 187.252L36.584 187.252L36.584 189.216L37.445 189.216"/>
  <path stroke-width="0.13" stroke-linejoin="round" d="M36.584 194.002L36.584 192.465L37.465 192.465"/>
  <path stroke-width="0.13" stroke-linejoin="round" d="M31.452 194.002L31.452 192.465L30.571 192.465"/>
  <path stroke-width="0.13" stroke-linejoin="round" d="M36.584 185.715L36.584 187.252L37.465 187.252"/>
  <path stroke-width="0.13" stroke-linejoin="round" d="M31.452 185.715L31.452 187.252L30.571 187.252"/>
  <g>
   <path stroke-width="0.13" stroke-linejoin="round" d="M38.298 185.848L38.902 187.173L38.902 192.545L38.298 193.87"/>
   <path stroke-width="0.13" stroke-linejoin="round" d="M38.149 185.848L37.546 187.173L37.546 192.545L38.149 193.87"/>
   <path stroke-width="0.13" stroke-linejoin="round" d="M38.219 193.87L38.219 185.848"/>
  </g>
  <g>
   <path stroke-width="0.13" stroke-linejoin="round" d="M29.958 185.848L30.559 187.173L30.559 192.545L29.958 193.87"/>
   <path stroke-width="0.13" stroke-linejoin="round" d="M29.809 185.848L29.21 187.173L29.21 192.545L29.809 193.87"/>
   <path stroke-width="0.13" stroke-linejoin="round" d="M29.879 193.87L29.879 185.848"/>
  </g>
  <path stroke-width="0.13" stroke-linejoin="round" d="M23.065 194.002L23.065 192.465L22.184 192.465"/>
  <path stroke-width="0.13" stroke-linejoin="round" d="M28.198 194.002L28.198 192.465L29.077 192.465"/>
  <path stroke-width="0.13" stroke-linejoin="round" d="M23.065 185.715L23.065 187.252L22.184 187.252"/>
  <path stroke-width="0.13" stroke-linejoin="round" d="M28.198 185.715L28.198 187.252L29.077 187.252"/>
  <path stroke-width="0.13" stroke-linejoin="round" d="M54.835 185.602C54.905 185.602 54.963 185.659 54.963 185.729L54.963 193.933C54.963 194.004 54.905 194.062 54.835 194.062L21.614 194.062C21.542 194.062 21.484 194.004 21.484 193.933L21.484 185.729C21.484 185.659 21.542 185.602 21.614 185.602L54.835 185.602z"/>
 </g>
 <g>
  <path stroke-width="0.13" stroke-linejoin="round" d="M54.945 176.748L54.338 178.074L54.338 183.445L54.945 184.77"/>
  <path stroke-width="0.25" stroke-linejoin="round" d="M47.408 181.366L48.27 181.366L48.27 183.366L53.402 183.366L53.402 181.402L54.264 181.402"/>
  <path stroke-width="0.25" stroke-linejoin="round" d="M47.408 180.155L48.27 180.155L48.27 178.155L53.402 178.155L53.402 180.116L54.264 180.116"/>
  <path stroke-width="0.13" stroke-linejoin="round" d="M53.402 184.902L53.402 183.366L54.283 183.366"/>
  <path stroke-width="0.13" stroke-linejoin="round" d="M48.27 184.902L48.27 183.366L47.389 183.366"/>
  <path stroke-width="0.13" stroke-linejoin="round" d="M53.402 176.616L53.402 178.155L54.283 178.155"/>
  <path stroke-width="0.13" stroke-linejoin="round" d="M48.27 176.616L48.27 178.155L47.389 178.155"/>
  <path stroke-width="0.25" stroke-linejoin="round" d="M45.853 181.366L44.991 181.366L44.991 183.366L39.859 183.366L39.859 181.402L38.997 181.402"/>
  <path stroke-width="0.25" stroke-linejoin="round" d="M45.853 180.155L44.991 180.155L44.991 178.155L39.859 178.155L39.859 180.116L38.997 180.116"/>
  <path stroke-width="0.13" stroke-linejoin="round" d="M39.859 184.902L39.859 183.366L38.978 183.366"/>
  <path stroke-width="0.13" stroke-linejoin="round" d="M44.991 184.902L44.991 183.366L45.871 183.366"/>
  <path stroke-width="0.13" stroke-linejoin="round" d="M39.859 176.616L39.859 178.155L38.978 178.155"/>
  <path stroke-width="0.13" stroke-linejoin="round" d="M44.991 176.616L44.991 178.155L45.871 178.155"/>
  <path stroke-width="0.13" stroke-linejoin="round" d="M21.503 176.748L22.109 178.074L22.109 183.445L21.503 184.77"/>
  <path stroke-width="0.25" stroke-linejoin="round" d="M29.059 181.366L28.198 181.366L28.198 183.366L23.065 183.366L23.065 181.402L22.204 181.402"/>
  <path stroke-width="0.25" stroke-linejoin="round" d="M29.059 180.155L28.198 180.155L28.198 178.155L23.065 178.155L23.065 180.116L22.204 180.116"/>
  <g>
   <path stroke-width="0.13" stroke-linejoin="round" d="M46.715 176.75L47.314 178.074L47.314 183.447L46.715 184.77"/>
   <path stroke-width="0.13" stroke-linejoin="round" d="M46.566 176.75L45.966 178.074L45.966 183.447L46.566 184.77"/>
   <path stroke-width="0.13" stroke-linejoin="round" d="M46.636 184.77L46.636 176.75"/>
  </g>
  <path stroke-width="0.25" stroke-linejoin="round" d="M30.591 181.366L31.452 181.366L31.452 183.366L36.584 183.366L36.584 181.402L37.445 181.402"/>
  <path stroke-width="0.25" stroke-linejoin="round" d="M30.591 180.155L31.452 180.155L31.452 178.155L36.584 178.155L36.584 180.116L37.445 180.116"/>
  <path stroke-width="0.13" stroke-linejoin="round" d="M36.584 184.902L36.584 183.366L37.465 183.366"/>
  <path stroke-width="0.13" stroke-linejoin="round" d="M31.452 184.902L31.452 183.366L30.571 183.366"/>
  <path stroke-width="0.13" stroke-linejoin="round" d="M36.584 176.616L36.584 178.155L37.465 178.155"/>
  <path stroke-width="0.13" stroke-linejoin="round" d="M31.452 176.616L31.452 178.155L30.571 178.155"/>
  <g>
   <path stroke-width="0.13" stroke-linejoin="round" d="M38.298 176.75L38.902 178.074L38.902 183.447L38.298 184.77"/>
   <path stroke-width="0.13" stroke-linejoin="round" d="M38.149 176.75L37.546 178.074L37.546 183.447L38.149 184.77"/>
   <path stroke-width="0.13" stroke-linejoin="round" d="M38.219 184.77L38.219 176.75"/>
  </g>
  <g>
   <path stroke-width="0.13" stroke-linejoin="round" d="M29.958 176.75L30.559 178.074L30.559 183.447L29.958 184.77"/>
   <path stroke-width="0.13" stroke-linejoin="round" d="M29.809 176.75L29.21 178.074L29.21 183.447L29.809 184.77"/>
   <path stroke-width="0.13" stroke-linejoin="round" d="M29.879 184.77L29.879 176.75"/>
  </g>
  <path stroke-width="0.13" stroke-linejoin="round" d="M23.065 184.902L23.065 183.366L22.184 183.366"/>
  <path stroke-width="0.13" stroke-linejoin="round" d="M28.198 184.902L28.198 183.366L29.077 183.366"/>
  <path stroke-width="0.13" stroke-linejoin="round" d="M23.065 176.616L23.065 178.155L22.184 178.155"/>
  <path stroke-width="0.13" stroke-linejoin="round" d="M28.198 176.616L28.198 178.155L29.077 178.155"/>
  <path stroke-width="0.13" stroke-linejoin="round" d="M54.835 176.503C54.905 176.503 54.963 176.561 54.963 176.632L54.963 184.836C54.963 184.907 54.905 184.963 54.835 184.963L21.612 184.963C21.542 184.963 21.484 184.907 21.484 184.836L21.484 176.632C21.484 176.561 21.542 176.503 21.612 176.503L54.835 176.503z"/>
 </g>
 <path stroke-width="0.25" stroke-linejoin="round" d="M17.452 198.356C17.452 198.356 18.835 198.421 19.149 198.421C19.46 198.421 19.858 198.52 19.858 199.009C19.858 199.498 19.46 199.597 19.149 199.597C18.835 199.597 17.452 199.662 17.452 199.662"/>
 <path stroke-width="0.35" stroke-linejoin="round" d="M20.754 175.233L20.754 196.599L17.413 196.599L17.413 201.328L20.754 201.328C20.754 201.328 20.754 203.433 20.754 204.094C20.754 204.534 21.036 204.754 21.509 204.754L23.445 204.752C23.445 204.752 23.445 205.871 23.445 206.532C23.445 206.973 23.728 207.192 24.201 207.192L35.685 207.192C36.156 207.192 36.439 206.973 36.439 206.532C36.439 205.871 36.439 204.752 36.439 204.752L39.746 204.752C39.746 204.752 39.746 205.871 39.746 206.532C39.746 206.973 40.029 207.192 40.5 207.192L52.81 207.192C53.281 207.192 53.564 206.973 53.564 206.532C53.564 205.871 53.564 204.752 53.564 204.752C53.564 204.752 57.655 204.752 57.996 204.752C58.338 204.752 58.658 204.456 58.658 203.879C58.658 203.304 58.658 201.83 58.658 201.383C58.658 200.935 58.487 200.358 58.06 200.358C57.634 200.358 56.204 200.358 56.204 200.358L56.204 183.212L59.543 183.212L59.543 178.485L58.712 178.485C58.712 178.485 58.712 176.473 58.712 176.012C58.712 175.549 58.433 175.11 58.109 175.11C57.786 175.11 54.136 175.11 54.136 175.11C54.136 175.11 54.136 168.43 54.136 168.106C54.136 167.782 53.811 167.437 53.396 167.437C52.978 167.437 47.57 167.437 47.57 167.437L47.57 168.383C47.57 168.383 46.738 168.383 46.392 168.383C46.045 168.383 45.953 168.685 45.953 168.893L45.953 175.086L44.588 175.086C44.588 175.086 44.588 163.437 44.588 163.091C44.588 162.743 44.195 162.074 43.642 162.074C43.087 162.074 38.093 162.074 38.093 162.074C38.093 162.074 33.1 162.074 32.545 162.074C31.989 162.074 31.597 162.743 31.597 163.091C31.597 163.437 31.597 175.086 31.597 175.086L30.233 175.086L30.233 168.893C30.233 168.685 30.14 168.383 29.795 168.383C29.448 168.383 28.614 168.383 28.614 168.383L28.614 167.437C28.614 167.437 23.207 167.437 22.791 167.437C22.375 167.437 22.05 167.782 22.05 168.106C22.05 168.43 22.05 175.11 22.05 175.11C22.05 175.11 21.539 175.11 20.882 175.11"/>
 <g>
  <path stroke="#FFFFFF" stroke-width="0.501" stroke-linejoin="round" d="M25.425 180.765L14.679 170.02"/>
  <path stroke="#FFFFFF" stroke-width="0.501" stroke-linejoin="round" d="M33.747 180.765L27.542 159.425"/>
  <path stroke="#FFFFFF" stroke-width="0.501" stroke-linejoin="round" d="M51.017 180.765L61.762 170.02"/>
  <path stroke="#FFFFFF" stroke-width="0.501" stroke-linejoin="round" d="M42.692 180.765L48.899 159.425"/>
  <path stroke="#FFFFFF" stroke-width="0.501" stroke-linejoin="round" d="M25.425 199.003L14.679 209.75"/>
  <path stroke="#FFFFFF" stroke-width="0.501" stroke-linejoin="round" d="M33.747 199.003L27.542 213.079"/>
  <path stroke="#FFFFFF" stroke-width="0.501" stroke-linejoin="round" d="M51.017 199.003L61.762 209.75"/>
  <path stroke="#FFFFFF" stroke-width="0.501" stroke-linejoin="round" d="M42.692 199.003L48.899 213.079"/>
 </g>
 <g>
  <path stroke-width="0.13" stroke-linejoin="round" d="M25.425 180.765L14.679 170.02"/>
  <path stroke-width="0.13" stroke-linejoin="round" d="M33.747 180.765L27.542 159.425"/>
  <path stroke-width="0.13" stroke-linejoin="round" d="M51.017 180.765L61.762 170.02"/>
  <path stroke-width="0.13" stroke-linejoin="round" d="M42.692 180.765L48.899 159.425"/>
  <path stroke-width="0.13" stroke-linejoin="round" d="M25.425 199.003L14.679 209.75"/>
  <path stroke-width="0.13" stroke-linejoin="round" d="M33.747 199.003L27.542 213.079"/>
  <path stroke-width="0.13" stroke-linejoin="round" d="M51.017 199.003L61.762 209.75"/>
  <path stroke-width="0.13" stroke-linejoin="round" d="M42.692 199.003L48.899 213.079"/>
 </g>
 <g>
  <text x="11.599" y="94.563" stroke="none" fill="#000000" font-family="'Arial'" font-size="4.924">1</text>
 </g>
 <g>
  <text x="59.159" y="94.563" stroke="none" fill="#000000" font-family="'Arial'" font-size="4.924">10</text>
 </g>
 <g>
  <text x="11.599" y="139.868" stroke="none" fill="#000000" font-family="'Arial'" font-size="4.924">3</text>
 </g>
 <g>
  <text x="59.159" y="139.868" stroke="none" fill="#000000" font-family="'Arial'" font-size="4.924">12</text>
 </g>
 <g>
  <text x="25.219" y="84.12" stroke="none" fill="#000000" font-family="'Arial'" font-size="4.924">4</text>
 </g>
 <g>
  <text x="47.582" y="84.12" stroke="none" fill="#000000" font-family="'Arial'" font-size="4.924">7</text>
 </g>
 <g>
  <text x="25.219" y="142.592" stroke="none" fill="#000000" font-family="'Arial'" font-size="4.924">6</text>
 </g>
 <g>
  <text x="47.582" y="142.592" stroke="none" fill="#000000" font-family="'Arial'" font-size="4.924">9</text>
 </g>
 <g>
  <path stroke="#FFFFFF" stroke-width="0.501" stroke-linejoin="round" d="M25.425 106.022L14.679 95.278"/>
  <path stroke="#FFFFFF" stroke-width="0.501" stroke-linejoin="round" d="M33.747 106.022L27.542 84.683"/>
  <path stroke="#FFFFFF" stroke-width="0.501" stroke-linejoin="round" d="M51.017 106.022L61.762 95.278"/>
  <path stroke="#FFFFFF" stroke-width="0.501" stroke-linejoin="round" d="M42.692 106.022L48.899 84.683"/>
  <path stroke="#FFFFFF" stroke-width="0.501" stroke-linejoin="round" d="M25.425 124.26L14.679 135.006"/>
  <path stroke="#FFFFFF" stroke-width="0.501" stroke-linejoin="round" d="M33.747 124.26L27.542 138.336"/>
  <path stroke="#FFFFFF" stroke-width="0.501" stroke-linejoin="round" d="M51.017 124.26L61.762 135.006"/>
  <path stroke="#FFFFFF" stroke-width="0.501" stroke-linejoin="round" d="M42.692 124.26L48.899 138.336"/>
 </g>
 <g>
  <path stroke-width="0.13" stroke-linejoin="round" d="M25.425 106.022L14.679 95.278"/>
  <path stroke-width="0.13" stroke-linejoin="round" d="M33.747 106.022L27.542 84.683"/>
  <path stroke-width="0.13" stroke-linejoin="round" d="M51.017 106.022L61.762 95.278"/>
  <path stroke-width="0.13" stroke-linejoin="round" d="M42.692 106.022L48.899 84.683"/>
  <path stroke-width="0.13" stroke-linejoin="round" d="M25.425 124.26L14.679 135.006"/>
  <path stroke-width="0.13" stroke-linejoin="round" d="M33.747 124.26L27.542 138.336"/>
  <path stroke-width="0.13" stroke-linejoin="round" d="M51.017 124.26L61.762 135.006"/>
  <path stroke-width="0.13" stroke-linejoin="round" d="M42.692 124.26L48.899 138.336"/>
 </g>
 <g>
  <text x="7.533" y="13.894" stroke="none" fill="#000000" font-family="'Arial'" font-size="4.924">12</text>
 </g>
 <g>
  <text x="64.32" y="13.894" stroke="none" fill="#000000" font-family="'Arial'" font-size="4.924">3</text>
 </g>
 <g>
  <text x="7.533" y="59.201" stroke="none" fill="#000000" font-family="'Arial'" font-size="4.924">10</text>
 </g>
 <g>
  <text x="64.766" y="59.201" stroke="none" fill="#000000" font-family="'Arial'" font-size="4.924">1</text>
 </g>
 <g>
  <text x="25.814" y="8.09" stroke="none" fill="#000000" font-family="'Arial'" font-size="4.924">9</text>
 </g>
 <g>
  <text x="48.323" y="8.09" stroke="none" fill="#000000" font-family="'Arial'" font-size="4.924">6</text>
 </g>
 <g>
  <text x="25.219" y="67.971" stroke="none" fill="#000000" font-family="'Arial'" font-size="4.924">7</text>
 </g>
 <g>
  <text x="47.582" y="67.971" stroke="none" fill="#000000" font-family="'Arial'" font-size="4.924">4</text>
 </g>
 <g>
  <path stroke="#FFFFFF" stroke-width="0.501" stroke-linejoin="round" d="M25.425 25.353L10.612 14.609"/>
  <path stroke="#FFFFFF" stroke-width="0.501" stroke-linejoin="round" d="M33.747 25.353L27.542 8.653"/>
  <path stroke="#FFFFFF" stroke-width="0.501" stroke-linejoin="round" d="M51.017 25.353L65.29 14.609"/>
  <path stroke="#FFFFFF" stroke-width="0.501" stroke-linejoin="round" d="M42.692 25.353L48.899 8.653"/>
  <path stroke="#FFFFFF" stroke-width="0.501" stroke-linejoin="round" d="M25.425 43.591L10.612 54.338"/>
  <path stroke="#FFFFFF" stroke-width="0.501" stroke-linejoin="round" d="M33.747 43.591L27.542 63.713"/>
  <path stroke="#FFFFFF" stroke-width="0.501" stroke-linejoin="round" d="M51.017 43.591L65.29 54.338"/>
  <path stroke="#FFFFFF" stroke-width="0.501" stroke-linejoin="round" d="M42.692 43.591L48.899 63.713"/>
 </g>
 <g>
  <path stroke-width="0.13" stroke-linejoin="round" d="M25.425 25.353L10.612 14.609"/>
  <path stroke-width="0.13" stroke-linejoin="round" d="M33.747 25.353L27.542 8.653"/>
  <path stroke-width="0.13" stroke-linejoin="round" d="M51.017 25.353L65.29 14.609"/>
  <path stroke-width="0.13" stroke-linejoin="round" d="M42.692 25.353L48.899 8.653"/>
  <path stroke-width="0.13" stroke-linejoin="round" d="M25.425 43.591L10.612 54.338"/>
  <path stroke-width="0.13" stroke-linejoin="round" d="M33.747 43.591L27.542 63.713"/>
  <path stroke-width="0.13" stroke-linejoin="round" d="M51.017 43.591L65.29 54.338"/>
  <path stroke-width="0.13" stroke-linejoin="round" d="M42.692 43.591L48.899 63.713"/>
 </g>
 <g>
 </g>
</svg>
