<?xml version="1.0" encoding="utf-8"?>
<!DOCTYPE svg PUBLIC "-//W3C//DTD SVG 1.1//EN" "http://www.w3.org/Graphics/SVG/1.1/DTD/svg11.dtd">
<!-- Generator: PTC Arbortext IsoDraw 7.3 -->
<svg width="100%" height="100%" viewBox="0 0 75 51.654"
 xmlns="http://www.w3.org/2000/svg" xmlns:xlink="http://www.w3.org/1999/xlink"
 fill-rule="evenodd" clip-rule="evenodd" stroke="#000000" stroke-linecap="round" fill="none" xml:space="preserve">
 <g id="Frame">
  <path stroke="none" fill="#FFFFFF" d="M75 51.654L0 51.654 0 0 75 0 75 51.654z"/>
 </g>
 <g id="Colour">
 </g>
 <g id="Standard_x0020_layer">
  <line stroke-width="0.2" x1="34.457" y1="28.114" x2="39.198" y2="27.545"/>
  <path stroke-width="0.2" d="M13.166 1.871C13.909 1.871 14.186 2.056 14.775 2.181C15.362 2.305 17.958 2.552 18.638 2.613C19.32 2.676 19.876 2.49 20.277 2.798C20.679 3.108 22.658 4.5 23.431 4.839C24.204 5.179 25.812 5.921 26.368 5.921C26.925 5.921 27.481 6.076 27.635 6.355"/>
  <path stroke-width="0.13" d="M23.277 8.55C22.039 8.734 19.814 7.9 19.01 7.312C18.207 6.726 16.815 5.365 16.536 5.242C16.259 5.118 13.012 5.086 12.24 4.809"/>
  <path stroke-width="0.2" d="M18.144 16.155C18.051 16.155 9.983 11.455 9.983 11.455"/>
  <g>
   <path stroke-width="0.2" d="M29.057 8.89C29.521 8.054 30.14 6.942 30.016 6.448C29.893 5.953 29.861 5.426 28.748 5.891C27.635 6.355 24.173 7.746 23.833 8.054C23.492 8.364 18.051 16.032 18.237 16.556C18.422 17.082 18.887 17.298 19.32 17.051C19.751 16.804 20.03 16.556 20 16.556"/>
   <path stroke-width="0.13" d="M20 16.556C19.969 16.556 22.968 11.332 23.245 11.115C23.524 10.9 28.224 8.705 28.44 8.705"/>
   <path stroke-width="0.2" d="M28.44 8.705C28.657 8.705 46.927 16.032 47.515 16.341C48.103 16.649 48.752 16.681 49.061 17.082C49.371 17.484 50.298 18.597 50.298 18.597C50.298 18.597 63.5 28.367 63.622 28.49C63.746 28.614 66.745 33.22 66.838 33.5C66.93 33.777 66.87 35.262 66.87 35.262C66.87 35.262 66.219 35.597 66.219 35.639C66.219 35.679 66.302 37.701 66.097 37.783C65.893 37.865 65.484 37.783 65.361 37.865C65.239 37.947 64.974 38.048 64.953 38.192C64.933 38.335 64.933 38.743 64.769 38.886C64.606 39.029 63.77 39.457 63.524 39.457C63.279 39.457 61.89 39.192 61.89 39.192C61.89 39.192 61.932 37.722 61.155 37.804"/>
  </g>
  <path stroke-width="0.2" d="M61.604 37.966L60.807 38.314L60.237 38.13C60.237 38.13 60.338 36.987 59.643 37.191"/>
  <path stroke-width="0.2" d="M59.991 37.476C59.951 37.518 59.216 37.741 59.216 37.741L58.357 37.395C58.357 37.395 58.521 36.987 58.337 36.72C58.154 36.456 58.112 36.189 57.786 36.17"/>
  <path stroke-width="0.2" d="M57.99 36.414C57.948 36.456 57.378 36.598 57.378 36.598L56.847 36.353C56.847 36.353 56.948 35.679 56.478 35.597"/>
  <path stroke-width="0.2" d="M56.643 35.823C56.643 35.823 55.948 36.067 55.927 36.067C55.906 36.067 55.091 35.7 55.07 35.7C55.049 35.7 55.295 34.597 54.56 34.515"/>
  <path stroke-width="0.2" d="M54.287 34.831C54.161 34.848 54.048 34.862 54.048 34.862C54.029 34.862 53.579 34.536 53.579 34.536C53.579 34.536 53.6 33.902 53.149 33.883"/>
  <path stroke-width="0.2" d="M52.597 34.387C52.579 34.39 52.557 34.393 52.557 34.393C52.476 34.393 51.945 34.106 51.945 34.106"/>
  <path stroke-width="0.2" d="M51.945 34.106C51.945 33.603 51.476 33.049 50.996 33.161C50.515 33.271 50.405 33.344 50.405 33.344"/>
  <path stroke-width="0.13" d="M66.219 35.639L66.117 33.715C66.117 33.715 63.085 28.983 62.901 28.835C62.716 28.687 49.591 19.222 49.591 19.222"/>
  <g>
   <path stroke-width="0.2" d="M47.594 20.739L61.533 30.905C61.533 30.905 64.343 35.637 64.343 35.747C64.343 35.859 64.343 37.597 64.343 37.597L63.491 38.04C63.491 38.04 52.106 32.42 51.476 32.235C50.848 32.051 50.996 33.271 50.405 33.344C49.814 33.418 49 32.606 48.667 32.753"/>
   <path stroke-width="0.13" d="M48.667 32.753C48.335 32.902 47.927 34.639 47.927 34.639"/>
  </g>
  <path stroke-width="0.13" d="M63.655 37.835L63.615 36.097C63.615 36.097 60.854 31.539 60.691 31.376C60.527 31.211 46.932 21.173 46.932 21.173"/>
  <path stroke-width="0.13" d="M49.591 19.222L47.594 20.739"/>
  <path stroke-width="0.13" d="M46.585 20.643C46.585 20.643 45.942 19.719 45.487 19.189"/>
  <path stroke-width="0.13" d="M42.493 17.745C39.222 16.407 33.597 14.121 29.574 12.487"/>
  <path stroke-width="0.13" d="M25.083 11.524C29.329 13.24 43.661 19.068 43.661 19.068"/>
  <path stroke-width="0.2" d="M20 16.556C20 16.556 41.334 28.679 41.445 29.016C41.558 29.355 41.051 30.958 42.064 32.225C43.078 33.491 44.625 35.124 45.863 35.067C47.101 35.011 48.115 34.588 48.115 34.588C48.115 34.588 48.649 34.28 48.677 34.28C48.706 34.28 49.213 33.04 49.213 33.04"/>
  <path stroke-width="0.13" d="M63.322 29.623C63.322 29.623 61.646 30.719 61.625 30.719"/>
  <path stroke-width="0.13" d="M63.182 29.303C63.182 29.303 57.854 26.588 57.674 26.588C57.494 26.588 56.518 27.128 56.518 27.128"/>
  <path stroke-width="0.13" d="M49.408 19.623C49.408 19.623 49.551 21.716 49.226 21.846"/>
  <path stroke-width="0.13" d="M48.902 19.987C48.902 20.053 48.941 21.533 48.941 21.533"/>
  <path stroke-width="0.13" d="M49.746 18.635L46.965 20.481"/>
  <g>
   <path stroke-width="0.13" d="M44.186 20.876C43.944 21.092 43.994 21.545 44.299 21.888C44.604 22.231 45.049 22.335 45.292 22.118C45.534 21.902 45.484 21.449 45.179 21.106C44.872 20.763 44.429 20.661 44.186 20.876"/>
  </g>
  <g>
   <path stroke-width="0.13" d="M39.875 23.771C39.633 23.986 39.683 24.44 39.988 24.783C40.295 25.126 40.738 25.23 40.981 25.013C41.223 24.798 41.173 24.344 40.868 24.001C40.561 23.658 40.118 23.556 39.875 23.771"/>
  </g>
  <path stroke-width="0.13" d="M27.012 19.765C27.407 20.198 27.986 20.454 28.315 20.262C28.646 20.068 28.858 19.922 28.931 19.701C29.004 19.481 29.033 18.885 28.573 18.416C28.114 17.948 27.673 17.754 27.48 17.864C27.286 17.975 27.03 18.196 26.92 18.361C26.809 18.525 26.478 18.94 27.012 19.765z"/>
  <path stroke-width="0.13" d="M27.021 18.434C27.562 18.343 28.554 19.16 28.399 20.042"/>
  <path stroke-width="0.13" d="M44.908 29.675C45.478 29.968 45.851 30.699 46.014 31.268"/>
  <path stroke-width="0.13" d="M45.396 30C45.396 29.739 45.137 29.382 45.088 29.35C45.039 29.317 44.079 28.879 43.625 29.024C43.17 29.17 42.569 29.756 42.634 30.373C42.698 30.99 42.682 31.739 43.478 32.34C44.274 32.942 44.762 33.072 45.234 32.828C45.706 32.584 46.063 32.567 46.143 32.112C46.225 31.658 46.404 31.056 45.966 30.795"/>
  <path stroke-width="0.13" d="M43.625 29.919C44.307 29.968 45.185 30.26 45.673 31.609C46.161 32.957 44.762 32.795 44.551 32.795"/>
  <path stroke-width="0.13" d="M43.234 30.08C43.039 30.373 42.715 31.105 42.86 31.349"/>
  <g>
   <path stroke-width="0.13" d="M56.856 33.613C56.039 32.695 56.137 31.897 56.518 31.658C56.896 31.419 57.835 31.219 58.573 32.076C59.31 32.935 59.031 33.694 58.512 34.112C57.993 34.531 57.335 34.052 56.856 33.613z"/>
   <path stroke-width="0.13" d="M57.534 33.734C58.014 33.654 57.795 32.356 56.936 32.576"/>
  </g>
  <line stroke-width="0.13" x1="64.274" y1="39.127" x2="64.274" y2="37.774"/>
  <path stroke-width="0.13" d="M61.155 37.804C60.968 37.835 60.753 38.008 60.728 38.231"/>
  <path stroke-width="0.13" d="M59.643 37.191C59.414 37.322 59.223 37.393 59.216 37.741"/>
  <path stroke-width="0.13" d="M57.786 36.17C57.578 36.164 57.396 36.222 57.347 36.445"/>
  <path stroke-width="0.13" d="M56.478 35.597C56.213 35.578 55.924 35.634 55.892 36.006"/>
  <path stroke-width="0.13" d="M54.56 34.515C54.353 34.478 54.155 34.493 54.073 34.767"/>
  <path stroke-width="0.13" d="M53.149 33.883C52.906 33.874 52.625 33.923 52.567 34.313"/>
  <g>
   <path stroke-width="0.2" d="M28.214 25.062C27.106 25.705 26.888 27.399 27.728 28.847C28.568 30.294 30.149 30.946 31.257 30.301C32.365 29.658 32.584 27.963 31.742 26.515C30.902 25.068 29.323 24.417 28.214 25.062"/>
  </g>
  <g>
   <path stroke-width="0.2" d="M28.888 26.708C28.359 27.015 28.256 27.826 28.657 28.518C29.059 29.208 29.814 29.519 30.344 29.213"/>
   <path stroke-width="0.13" d="M30.344 29.213C30.873 28.905 30.977 28.094 30.576 27.403C30.173 26.711 29.419 26.4 28.888 26.708"/>
   <path stroke="none" fill="#000000" d="M30.292 29.126C30.539 28.983 30.716 28.734 30.754 28.429L30.861 28.474C30.818 28.824 30.676 29.135 30.393 29.298L30.292 29.126z"/>
   <path stroke="none" fill="#000000" d="M29.772 26.739C29.458 26.609 29.173 26.658 28.94 26.795L28.838 26.621C29.096 26.472 29.443 26.481 29.788 26.623L29.772 26.739z"/>
  </g>
  <g>
   <path stroke-width="0.13" d="M28.821 27.667C28.611 27.791 28.568 28.114 28.73 28.39C28.89 28.667 29.192 28.791 29.402 28.667"/>
   <path stroke-width="0.2" d="M29.402 28.667C29.614 28.545 29.655 28.222 29.495 27.946C29.335 27.67 29.033 27.545 28.821 27.667"/>
   <path stroke="none" fill="#000000" d="M29.054 28.621C29.17 28.67 29.265 28.632 29.353 28.582L29.452 28.754C29.344 28.818 29.185 28.797 29.039 28.736L29.054 28.621z"/>
   <path stroke="none" fill="#000000" d="M28.873 27.754C28.785 27.806 28.704 27.885 28.69 27.993L28.582 27.949C28.603 27.797 28.647 27.653 28.771 27.582L28.873 27.754z"/>
  </g>
  <g>
   <path stroke-width="0.13" d="M39.591 32.162C39.35 32.378 39.401 32.832 39.706 33.176C40.011 33.518 40.454 33.621 40.698 33.405C40.939 33.189 40.89 32.737 40.584 32.393C40.279 32.051 39.835 31.948 39.591 32.162"/>
  </g>
  <g>
   <path stroke-width="0.13" d="M46.274 36.051C46.033 36.265 46.084 36.719 46.389 37.063C46.694 37.405 47.137 37.509 47.381 37.292C47.624 37.076 47.573 36.624 47.267 36.28C46.962 35.938 46.518 35.835 46.274 36.051"/>
  </g>
  <path stroke-width="0.2" d="M66.319 37.951C66.472 38.149 66.341 40.503 66.275 40.656C66.209 40.811 65.286 42.548 65.109 42.68C64.933 42.813 62.514 44.594 62.14 44.682C61.765 44.771 57.871 45.232 57.432 45.122C56.991 45.012 49.292 42.219 48.939 41.954C48.588 41.691 48.28 40.987 48.28 40.987L46.299 40.283"/>
  <path stroke-width="0.2" d="M46.299 40.283C46.299 40.283 36.356 36.542 36.356 36.587"/>
  <path stroke-width="0.2" d="M20.649 20.704C21.045 20.484 21.748 20.792 22.408 21.056C23.068 21.32 30.856 23.871 31.341 24.224C31.824 24.576 32.308 24.839 32.924 25.719C33.54 26.6 36.929 33.332 37.06 33.991C37.192 34.652 37.06 36.191 36.356 36.587C35.652 36.982 34.728 37.29 34.069 37.115C33.408 36.939 32 35.795 32 35.795C32 35.795 23.42 28.359 23.42 28.315C23.42 28.271 22.189 26.071 22.321 25.632C22.452 25.192 22.673 25.147 22.673 25.147C22.673 25.147 19.637 18.724 19.46 18.548C19.285 18.371 11.278 15.115 11.278 15.115"/>
  <path stroke-width="0.2" d="M27.161 31.748C25.972 32.32 24.829 33.112 24.036 32.584C23.245 32.055 22.981 30.692 22.585 30.032C22.189 29.371 18.053 20.66 18.361 19.955"/>
  <path stroke-width="0.2" d="M22.585 30.032C21.088 28.8 17.085 26.995 16.381 26.6C15.676 26.204 12.333 22.903 11.981 22.596"/>
  <path stroke-width="0.13" d="M18.361 19.955C18.536 19.295 19.329 18.987 19.329 18.987"/>
  <path stroke-width="0.13" d="M21.396 21.452C22.716 21.936 30.109 24.004 31.297 25.28C32.484 26.556 36.093 33.112 36.225 34.079C36.356 35.048 36.137 36.674 35.256 37.07"/>
  <path stroke-width="0.2" d="M25.004 21.936L25.797 19.78"/>
  <path stroke-width="0.2" d="M25.004 21.936C25.004 21.936 24.388 18.987 23.949 18.679"/>
  <path stroke-width="0.2" d="M22.716 18.196C21.969 18.239 21.836 18.504 21.881 19.339C21.925 20.175 21.617 20.704 21.132 20.704"/>
  <path stroke-width="0.13" d="M22.893 18.46C23.509 18.943 23.772 20.132 23.949 21.32"/>
  <path stroke-width="0.13" d="M66.221 38.237L65.834 38.554C65.834 38.554 65.799 39.783 65.659 40.136C65.518 40.487 65.096 40.768 64.956 40.768"/>
  <path stroke-width="0.2" d="M64.956 40.768C64.816 40.381 65.266 38.645 64.769 38.886"/>
  <path stroke-width="0.2" d="M61.89 39.192C61.652 39.819 61.476 40.521 60.914 40.347"/>
  <path stroke-width="0.2" d="M58.173 37.5C57.926 37.359 57.856 38.554 57.399 38.378"/>
  <path stroke-width="0.2" d="M55.07 35.7C54.973 36.445 54.834 37.393 54.481 37.253"/>
  <path stroke-width="0.13" d="M63.725 39.783C63.691 39.783 63.549 42.526 63.515 42.701"/>
  <path stroke-width="0.13" d="M66.275 40.656L63.795 42.49"/>
  <path stroke-width="0.13" d="M52.795 37.182C52.795 37.182 63.515 42.35 63.515 42.701C63.515 43.052 62.847 44.247 62.6 44.529"/>
  <path stroke-width="0.13" d="M62.14 44.682C62.32 44.423 62.987 43.686 62.847 43.439C62.707 43.194 52.302 37.64 52.302 37.64"/>
  <path stroke-width="0.13" d="M50.862 36.691C50.264 36.375 49.456 36.023 49.49 35.496C49.526 34.969 49.701 34.512 49.561 34.265C49.42 34.02 49.033 33.844 49.033 33.844"/>
  <path stroke-width="0.13" d="M49.456 33.387C50.088 33.844 50.264 33.95 50.228 34.442C50.194 34.933 49.982 35.32 50.369 35.637C50.756 35.953 51.353 36.304 51.353 36.304"/>
  <path stroke-width="0.13" d="M60.914 40.347C60.034 39.924 59.649 39.679 59.508 39.292C59.368 38.905 59.262 38.448 59.296 37.991"/>
  <path stroke-width="0.13" d="M57.082 38.343C56.555 37.991 55.923 37.746 55.817 37.393C55.712 37.042 55.963 36.128 55.927 36.067"/>
  <path stroke-width="0.13" d="M56.801 36.972C56.801 36.936 56.204 37.393 56.204 37.393"/>
  <path stroke-width="0.13" d="M60.527 38.695L59.789 39.222"/>
  <g>
   <path stroke-width="0.13" d="M54.889 42.786C54.07 41.868 54.17 41.07 54.548 40.832C54.927 40.591 55.865 40.393 56.604 41.25C57.343 42.109 57.064 42.866 56.545 43.286C56.026 43.704 55.366 43.225 54.889 42.786z"/>
   <path stroke-width="0.13" d="M55.567 42.906C56.045 42.826 55.826 41.53 54.968 41.75"/>
  </g>
  <path stroke-width="0.13" d="M49.386 35.953C49.386 36.058 48.999 38.167 48.963 38.167"/>
  <path stroke-width="0.13" d="M48.963 38.167C48.963 38.167 48.664 41.04 48.472 41.014"/>
  <path stroke-width="0.13" d="M37.155 27.763C37.155 27.728 36.381 26.111 36.381 26.111"/>
  <path stroke-width="0.13" d="M36.627 27.868C36.591 27.868 35.396 25.585 35.396 25.585"/>
  <path stroke-width="0.13" d="M35.011 25.268C35.011 25.268 35.326 27.728 35.362 27.763"/>
  <path stroke-width="0.13" d="M34.237 24.775C34.237 24.917 34.799 27.94 34.799 27.94"/>
  <path stroke-width="0.13" d="M34.026 27.341L33.463 24.46"/>
  <path stroke-width="0.13" d="M32.691 23.932C32.725 24.038 32.972 25.478 32.972 25.478"/>
  <path stroke-width="0.2" d="M54.826 36.962C54.731 37.069 54.34 36.868 53.935 36.667"/>
  <path stroke-width="0.2" d="M52.335 35.195C52.341 35.118 52.357 35.036 52.383 34.956C52.487 34.609 52.487 34.337 52.985 34.081"/>
  <path stroke-width="0.13" d="M52.564 34.698C52.789 34.518 52.956 34.564 53.182 34.668C53.408 34.774 53.604 34.97 53.649 35.106C53.695 35.243 53.74 35.347 53.74 35.347C53.74 35.347 54.133 35.197 54.418 35.362C54.706 35.529 54.978 35.831 54.947 36.268"/>
  <line stroke-width="0.2" x1="53.74" y1="35.347" x2="54.524" y2="34.609"/>
  <path stroke-width="0.35" d="M52.566 35.036C52.534 35.036 49.219 37.442 49.219 37.487C49.219 37.534 48.957 38.337 49.033 38.429C49.11 38.521 50.206 39.045 50.359 39.03C50.515 39.015 51.024 38.814 51.115 38.768C51.209 38.722 54.893 35.945 54.893 35.945"/>
  <path stroke-width="0.13" d="M49.435 37.627L50.637 38.213"/>
  <path stroke-width="0.13" d="M51.024 38.152C51.085 38.09 53.676 36.131 53.676 36.131"/>
  <g>
   <path stroke="#FFFFFF" stroke-width="1" d="M48.643 43.906L47.173 43.588L50.106 40.084L56.238 45.139C56.238 45.139 54.149 44.835 54.183 44.835C54.216 44.835 55.396 49.014 55.396 49.014L50.679 48.34L49.38 44.561"/>
   <path stroke-width="0.13" fill="#FFFFFF" d="M49.195 44.027L47.173 43.588 50.106 40.084 56.238 45.139C56.238 45.139 54.149 44.835 54.183 44.835 54.216 44.835 55.396 49.014 55.396 49.014L50.679 48.34 49.195 44.027z"/>
  </g>
  <g>
   <path stroke-width="0.13" d="M34.697 33.506C34.277 33.186 33.64 33.087 33.262 33.307"/>
   <path stroke-width="0.2" d="M33.262 33.307C32.884 33.526 32.246 34.582 33.042 35.478C33.84 36.375 34.517 36.195 34.856 36.036C35.195 35.877 35.552 35.259 35.433 34.96"/>
   <path stroke-width="0.13" d="M35.433 34.96C35.314 34.661 35.034 33.884 34.697 33.506"/>
  </g>
  <path stroke-width="0.13" d="M34.637 35.996C34.956 35.737 35.075 35.219 34.716 34.642"/>
 </g>
</svg>
