<?xml version="1.0" encoding="utf-8"?>
<!DOCTYPE svg PUBLIC "-//W3C//DTD SVG 1.1//EN" "http://www.w3.org/Graphics/SVG/1.1/DTD/svg11.dtd">
<!-- Generator: PTC Arbortext IsoDraw 7.3 -->
<svg id="Standard_x0020_layer" width="100%" height="100%" viewBox="0 0 75 58.89"
 xmlns="http://www.w3.org/2000/svg" xmlns:xlink="http://www.w3.org/1999/xlink"
 fill-rule="evenodd" clip-rule="evenodd" stroke="#000000" stroke-linecap="round" fill="none" xml:space="preserve">
 <g>
  <path stroke-width="0.25" stroke-linejoin="round" d="M46.39 38.305C46.39 38.305 37.835 43.069 36.865 43.597C35.896 44.127 34.396 44.567 33.25 44.479C32.103 44.392 28.486 44.039 26.635 43.774C24.783 43.509 22.931 41.393 22.754 39.1C22.577 36.807 22.402 29.222 22.489 27.106C22.577 24.989 24.431 20.931 28.664 20.49C32.896 20.05 40.57 19.696 40.57 19.696"/>
  <path stroke-width="0.25" stroke-linejoin="round" d="M38.718 19.696C39.6 19.079 41.098 18.815 41.804 18.727C42.509 18.638 45.774 18.55 47.273 18.55C49.918 18.55 52.475 19.609 53.71 22.343C53.71 22.343 56.063 21.96 56.768 21.785C57.473 21.608 58.121 21.96 58.414 22.373C58.709 22.783 59.296 24.841 59.296 26.312C59.296 27.782 59.003 30.192 58.179 30.603C57.356 31.015 49.536 33.954 49.536 33.954C49.066 34.191 48.418 34.014 48.418 34.014"/>
  <path stroke-width="0.25" stroke-linejoin="round" d="M53.887 32.396C53.887 33.631 53.534 35.042 52.564 35.661C51.594 36.277 48.595 38.305 47.536 38.746C46.478 39.188 45.243 39.1 45.243 39.1"/>
  <path stroke-width="0.201" stroke-linejoin="round" d="M29.396 21.993C30.952 21.925 32.281 23.408 32.365 25.306C32.448 27.204 31.253 28.798 29.696 28.865"/>
  <path stroke-width="0.13" stroke-linejoin="round" d="M29.696 28.865C28.138 28.934 26.809 27.451 26.725 25.553C26.643 23.655 27.838 22.062 29.396 21.993"/>
  <path stroke-width="0.13" stroke-linejoin="round" d="M33.372 35.646C31.821 35.783 30.428 34.359 30.262 32.466C30.097 30.574 31.221 28.929 32.774 28.794"/>
  <path stroke-width="0.201" stroke-linejoin="round" d="M32.774 28.794C34.326 28.658 35.719 30.082 35.884 31.975C36.051 33.866 34.926 35.512 33.372 35.646"/>
  <path stroke-width="0.201" stroke-linejoin="round" d="M25.925 28.871C27.321 28.75 28.576 30.032 28.725 31.734C28.873 33.438 27.861 34.917 26.463 35.039"/>
  <path stroke-width="0.13" stroke-linejoin="round" d="M26.463 35.039C25.067 35.162 23.812 33.881 23.664 32.177C23.515 30.475 24.527 28.995 25.925 28.871"/>
  <path stroke-width="0.13" stroke-linejoin="round" d="M33.67 43.545C32.136 43.816 30.623 42.518 30.294 40.648C29.963 38.777 30.94 37.042 32.475 36.771"/>
  <path stroke-width="0.201" stroke-linejoin="round" d="M32.475 36.771C34.011 36.5 35.523 37.798 35.853 39.667C36.182 41.539 35.206 43.274 33.67 43.545"/>
  <path stroke-width="0.201" stroke-linejoin="round" d="M25.853 36.368C27.234 36.125 28.596 37.292 28.891 38.975C29.189 40.659 28.309 42.222 26.928 42.466"/>
  <path stroke-width="0.13" stroke-linejoin="round" d="M26.928 42.466C25.547 42.709 24.185 41.542 23.89 39.857C23.593 38.173 24.472 36.612 25.853 36.368"/>
  <path stroke-width="0.13" stroke-linejoin="round" d="M34.131 44.392C35.542 44.392 37.659 43.332 37.659 40.511C37.659 37.689 37.659 31.78 37.659 28.428C37.659 25.077 34.837 20.667 29.899 20.667"/>
  <path stroke-width="0.13" stroke-linejoin="round" d="M40.923 19.696C42.686 19.696 46.39 20.49 47.713 23.489"/>
  <path stroke-width="0.13" stroke-linejoin="round" d="M48.243 34.689C48.243 36.454 47.536 37.512 46.743 38.042"/>
  <path stroke-width="0.13" stroke-linejoin="round" d="M42.246 18.992C44.097 18.992 47.801 20.315 48.595 22.96"/>
  <path stroke-width="0.13" stroke-linejoin="round" d="M49.301 34.866C49.301 36.631 48.771 37.954 47.536 38.746"/>
  <path stroke-width="0.201" stroke-linejoin="round" d="M49.301 26.841C50.241 27.016 51.417 26.958 52.299 26.782C53.182 26.606 57.826 25.429 57.826 25.429"/>
  <path stroke-width="0.201" stroke-linejoin="round" d="M56.003 25.958L56.003 27.957L50.654 29.605L50.654 27.016"/>
  <path stroke-width="0.13" stroke-linejoin="round" d="M57.886 25.724L57.886 28.193L50.536 30.603C49.301 30.957 49.066 30.486 49.066 30.486L49.066 26.841"/>
  <path stroke-width="0.13" stroke-linejoin="round" d="M53.475 22.431L48.655 23.371"/>
  <path stroke-width="0.13" stroke-linejoin="round" d="M48.243 33.543L48.243 25.606C48.243 24.666 48.008 23.841 48.008 23.841"/>
  <path stroke-width="0.13" stroke-linejoin="round" d="M48.89 23.841C49.713 23.9 50.301 23.783 51.359 23.548C52.417 23.312 57.591 22.137 57.591 22.137"/>
 </g>
 <path stroke="#FFFFFF" stroke-width="0.501" d="M33.5 40.362L50.037 51.139"/>
 <path stroke-width="0.131" d="M33.5 40.362L50.037 51.137"/>
 <path stroke="#FFFFFF" stroke-width="0.501" d="M34.719 9.554L29.106 25.15"/>
 <path stroke-width="0.131" d="M34.719 9.554L29.106 25.149"/>
 <path stroke="#FFFFFF" stroke-width="0.501" d="M26.327 39.656L9.673 51.182"/>
 <path stroke-width="0.131" d="M26.327 39.656L9.673 51.182"/>
 <path stroke="#FFFFFF" stroke-width="0.501" d="M25.664 30.838L7.674 27.428"/>
 <path stroke-width="0.131" d="M25.664 30.838L7.674 27.428"/>
 <path stroke="#FFFFFF" stroke-width="0.501" d="M67.058 34.131L34.601 34.131"/>
 <path stroke-width="0.131" d="M67.058 34.131L34.601 34.131"/>
 <g>
  <text x="50.493" y="54.195" stroke="none" fill="#000000" font-family="'Arial'" font-size="4.924">4</text>
 </g>
 <g>
  <text x="68.368" y="35.968" stroke="none" fill="#000000" font-family="'Arial'" font-size="4.924">2</text>
 </g>
 <g>
  <text x="33.795" y="8.099" stroke="none" fill="#000000" font-family="'Arial'" font-size="4.924">1</text>
 </g>
 <g>
  <text x="6.043" y="54.664" stroke="none" fill="#000000" font-family="'Arial'" font-size="4.924">5</text>
 </g>
 <g>
  <text x="3.927" y="28.911" stroke="none" fill="#000000" font-family="'Arial'" font-size="4.924">3</text>
 </g>
 <g>
  <path stroke="none" fill="#FFFFFF" d="M35.119 30.202C30.175 31.283 23.989 31.809 16.257 31.809L2.205 31.809 2.205 34.808 16.257 34.808C24.12 34.808 30.464 34.271 35.597 33.167L35.119 30.202z"/>
  <path stroke-width="0.201" stroke-linejoin="round" d="M2.205 34.808L16.257 34.808C24.12 34.808 30.464 34.271 35.597 33.167"/>
  <path stroke-width="0.201" stroke-linejoin="round" d="M35.119 30.202C30.175 31.283 23.989 31.809 16.257 31.809L2.205 31.809"/>
 </g>
</svg>
