<?xml version="1.0" encoding="utf-8"?>
<!DOCTYPE svg PUBLIC "-//W3C//DTD SVG 1.1//EN" "http://www.w3.org/Graphics/SVG/1.1/DTD/svg11.dtd">
<!-- Generator: PTC Arbortext IsoDraw 7.3 -->
<svg id="Standard_x0020_layer" width="100%" height="100%" viewBox="0 0 75 40.659"
 xmlns="http://www.w3.org/2000/svg" xmlns:xlink="http://www.w3.org/1999/xlink"
 fill-rule="evenodd" clip-rule="evenodd" stroke="#000000" stroke-linecap="round" fill="none" xml:space="preserve">
 <g>
  <text x="53.905" y="6.331" stroke="none" fill="#000000" font-family="'Arial'" font-size="4.924">588 210</text>
 </g>
 <g>
  <path stroke-width="0.25" stroke-linejoin="round" d="M26.024 10.352L25.448 10.121L24.871 10.121L24.795 10.89L25.64 11.196L25.283 13.756"/>
  <path stroke-width="0.25" stroke-linejoin="round" d="M25.87 10.275C25.87 10.275 26.062 8.585 26.178 8.124C26.292 7.663 26.6 7.394 27.176 7.509L30.788 8.968C30.788 8.968 30.902 9.352 30.673 9.352C30.442 9.352 30.187 9.255 30.097 9.621C29.981 10.083 29.981 10.467 29.981 10.467"/>
  <path stroke-width="0.25" stroke-linejoin="round" d="M18.403 11.257C18.873 11.051 19.286 11.08 19.286 11.08L25.541 11.493"/>
  <path stroke-width="0.25" stroke-linejoin="round" d="M33.598 16.847C33.776 15.81 33.926 14.899 33.984 14.49C34.161 13.256 33.719 12.522 34.014 12.609C34.307 12.698 34.338 12.522 34.366 12.375C34.396 12.227 34.484 11.756 34.219 11.698C33.956 11.64 31.015 10.64 31.015 10.64L29.31 10.464L26.283 10.346"/>
  <path stroke-width="0.25" stroke-linejoin="round" d="M31.403 21.387L32.78 21.576C32.78 21.576 32.909 20.832 33.087 19.82"/>
  <path stroke-width="0.25" stroke-linejoin="round" d="M24.725 17.167L24.4 19.254C24.4 19.254 23.577 19.106 23.46 19.106C23.343 19.106 23.254 19.929 23.371 19.929C23.489 19.929 24.225 20.077 24.225 20.077C24.225 20.077 23.843 22.282 23.843 22.635C23.843 22.986 24.166 23.134 24.371 23.164C24.576 23.193 27.605 23.634 28.016 23.693C28.428 23.751 28.399 23.339 28.251 23.251C28.105 23.164 27.899 23.251 27.899 22.957C27.899 22.664 28.282 20.958 28.282 20.958L29.35 21.106"/>
  <path stroke-width="0.25" stroke-linejoin="round" d="M31.015 10.64C31.015 10.64 30.928 10.14 31.338 10.228C31.751 10.317 32.338 10.522 32.456 10.64C32.573 10.757 33.043 11.287 33.043 11.287"/>
  <path stroke-width="0.25" stroke-linejoin="round" d="M29.428 21.018C29.339 21.312 29.105 21.722 29.368 21.782C29.634 21.841 29.957 21.899 30.222 21.958C30.486 22.016 30.663 21.841 30.663 21.841L31.397 21.37"/>
  <path stroke-width="0.13" stroke-linejoin="round" d="M24.635 20.253C24.635 20.253 24.312 22.076 24.283 22.341C24.254 22.605 24.431 22.693 24.431 22.693L24.871 22.751L28.164 23.28"/>
  <path stroke-width="0.13" stroke-linejoin="round" d="M26.987 21.594L25.724 21.399L25.87 20.489L26.664 20.634L26.576 21.458"/>
  <path stroke-width="0.13" stroke-linejoin="round" d="M27.106 20.753L26.987 21.594"/>
  <path stroke-width="0.13" stroke-linejoin="round" d="M24.695 20.135L29.368 20.812C29.368 20.812 30.163 15.256 30.457 13.756C30.751 12.256 31.397 11.845 31.397 11.845"/>
  <path stroke-width="0.13" stroke-linejoin="round" d="M26.606 11.58C26.164 11.816 25.812 12.462 25.695 13.345"/>
  <path stroke-width="0.25" stroke-linejoin="round" d="M23.283 19.312L18.352 18.673"/>
  <path stroke-width="0.13" stroke-linejoin="round" d="M23.9 19.225L23.783 19.929"/>
  <path stroke-width="0.13" stroke-linejoin="round" d="M25.4 10.228L25.297 10.843"/>
  <path stroke-width="0.13" stroke-linejoin="round" d="M26.106 11.163L29.28 11.253"/>
  <path stroke-width="0.13" stroke-linejoin="round" d="M31.015 11.462L31.515 11.58"/>
  <path stroke-width="0.13" stroke-linejoin="round" d="M30.809 11.433L29.457 11.257"/>
  <path stroke-width="0.25" stroke-linejoin="round" d="M32.456 11.875C31.867 11.787 31.132 12.727 30.926 13.845C30.722 14.961 29.937 20.378 29.937 20.378L32.573 20.987"/>
  <path stroke-width="0.13" stroke-linejoin="round" d="M27.547 10.317L27.635 9.817"/>
  <path stroke-width="0.13" stroke-linejoin="round" d="M28.428 10.404L28.428 10.257L27.635 9.964"/>
  <path stroke-width="0.13" stroke-linejoin="round" d="M27.693 9.757L28.87 10.169L28.839 10.375"/>
  <path stroke-width="0.13" stroke-linejoin="round" d="M30.673 9.352L27.106 7.905C27.106 7.905 26.693 7.817 26.606 8.259C26.518 8.699 26.341 10.257 26.341 10.257"/>
  <path stroke-width="0.13" stroke-linejoin="round" d="M29.486 20.87L32.78 21.576"/>
  <path stroke-width="0.13" stroke-linejoin="round" d="M29.457 21.606L30.28 21.224"/>
  <path stroke-width="0.13" stroke-linejoin="round" d="M32.767 19.803C32.652 20.507 32.573 20.987 32.573 20.987"/>
  <path stroke-width="0.13" stroke-linejoin="round" d="M32.456 11.875C33.484 12.022 33.838 13.285 33.631 14.521C33.561 14.942 33.417 15.827 33.256 16.811"/>
  <path stroke-width="0.349" stroke-linejoin="round" d="M30.545 16.608L39.13 17.489"/>
  <path stroke-width="0.349" stroke-linejoin="round" d="M30.103 19.37L38.746 20.458"/>
  <path stroke-width="0.349" stroke-linejoin="round" d="M39.13 17.48C39.197 17.321 39.246 17.254 39.246 17.254C39.54 15.637 40.511 14.021 41.746 14.167C41.746 14.167 52.417 15.196 55.593 15.49C58.768 15.785 60.179 15.725 62.648 15.961C65.117 16.196 74.7 17.019 74.7 17.019"/>
  <path stroke-width="0.25" stroke-linejoin="round" d="M38.816 20.501C38.786 20.14 38.771 19.679 38.805 19.135C38.86 18.257 39.018 17.742 39.13 17.48"/>
  <path stroke-width="0.349" stroke-linejoin="round" d="M74.525 29.602C74.525 29.602 63.235 27.661 61.237 27.367C59.237 27.074 55.945 26.896 54.064 26.603C52.182 26.309 41.981 24.515 40.363 24.309C38.746 24.103 38.953 21.399 38.953 21.399C38.953 21.399 38.863 21.077 38.816 20.501"/>
  <path stroke-width="0.13" stroke-linejoin="round" d="M39.423 17.314C39.423 17.314 50.712 18.371 51.947 18.548C53.182 18.725 53.841 19.606 53.783 20.783C53.723 21.958 52.475 22.957 50.889 22.782C49.301 22.605 39.13 21.428 39.13 21.428"/>
  <path stroke-width="0.25" stroke-linejoin="round" d="M0.337 8.018C4.163 6.782 6.048 5.544 10.993 6.487C15.938 7.429 19.765 8.311 23.356 11.256"/>
  <path stroke-width="0.25" stroke-linejoin="round" d="M2.75 40.28C6.812 35.923 14.407 27.21 15.938 24.62C17.469 22.03 18.352 19.027 18.763 15.907C19.175 12.785 18.475 9.942 15.702 9.019C12.877 8.076 10.403 10.137 8.99 11.08C7.578 12.022 4.163 16.378 3.221 17.556C2.28 18.733 0.454 20.617 0.454 20.617"/>
  <path stroke-width="0.25" stroke-linejoin="round" d="M17.35 22.088C19.294 24.974 21.001 25.916 23.414 26.621C25.829 27.329 26.948 26.446 27.478 25.975C28.007 25.504 28.242 23.62 28.242 23.62"/>
  <path stroke-width="0.25" stroke-linejoin="round" d="M16.173 24.503C17.881 27.564 18.411 30.096 18.234 31.861C18.057 33.628 16.879 34.628 15.467 35.395C14.054 36.159 11.227 38.456 10.462 38.868C9.698 39.28 8.343 40.162 8.343 40.162"/>
  <path stroke-width="0.13" stroke-linejoin="round" d="M10.756 10.137C10.756 10.137 8.108 13.435 7.637 14.377C7.166 15.319 7.224 15.789 7.99 16.318C8.756 16.849 12.288 19.027 13.524 19.498C14.76 19.969 15.76 18.733 16.056 18.085C16.35 17.437 18.057 14.848 18.469 14.141C18.882 13.435 18.528 10.55 15.938 9.255"/>
  <path stroke-width="0.13" stroke-linejoin="round" d="M9.637 33.393C11.287 33.334 12.228 34.216 12.464 35.277C12.699 36.337 11.522 38.28 10.462 38.868"/>
 </g>
</svg>
