<?xml version="1.0" encoding="utf-8"?>
<!DOCTYPE svg PUBLIC "-//W3C//DTD SVG 1.1//EN" "http://www.w3.org/Graphics/SVG/1.1/DTD/svg11.dtd">
<!-- Generator: PTC Arbortext IsoDraw 7.3 -->
<svg width="100%" height="100%" viewBox="0 0 75 51.347"
 xmlns="http://www.w3.org/2000/svg" xmlns:xlink="http://www.w3.org/1999/xlink"
 fill-rule="evenodd" clip-rule="evenodd" stroke="#000000" stroke-linecap="round" fill="none" xml:space="preserve">
 <g id="Frame">
  <path stroke="none" fill="#FFFFFF" d="M75 51.347L0 51.347 0 0 75 0 75 51.347z"/>
 </g>
 <g id="Colour">
 </g>
 <g id="Standard_x0020_layer">
  <g>
   <line stroke-width="0.5" x1="33.728" y1="29.774" x2="16.617" y2="23.347"/>
   <line stroke-width="0.5" x1="32.601" y1="33.07" x2="15.198" y2="27.478"/>
   <g>
    <path stroke-width="0.13" d="M15.198 27.478C16.004 27.756 16.975 27.054 17.367 25.914C17.76 24.772 17.422 23.623 16.617 23.347"/>
    <path stroke-width="0.5" d="M16.617 23.347C15.81 23.07 14.837 23.769 14.445 24.911C14.054 26.051 14.391 27.202 15.198 27.478"/>
    <path stroke="none" fill="#000000" d="M17.396 24.338C17.254 23.853 16.897 23.707 16.535 23.582L16.698 23.109C17.082 23.242 17.335 23.757 17.486 24.274L17.396 24.338z"/>
    <path stroke="none" fill="#000000" d="M15.278 27.242C15.635 27.364 16.074 27.425 16.422 27.173L16.454 27.282C16.015 27.597 15.566 27.87 15.115 27.714L15.278 27.242z"/>
   </g>
   <g>
    <path stroke-width="0.3" d="M32.601 33.07C33.347 33.326 34.204 32.795 34.515 31.884C34.826 30.974 34.473 30.028 33.728 29.774"/>
   </g>
   <path stroke-width="0.13" d="M31.891 33.572C33.143 33.905 35.231 32.57 35.523 32.152"/>
   <g>
    <path stroke-width="0.3" d="M36.107 34.24C35.816 34.573 34.646 34.615 34.646 34.615"/>
    <path stroke-width="0.5" d="M34.646 34.615C34.103 34.49 31.891 33.572 31.891 33.572C31.891 33.572 31.432 32.904 31.432 32.862"/>
   </g>
   <line stroke-width="0.5" x1="30.681" y1="28.646" x2="30.097" y2="26.978"/>
   <line stroke-width="0.5" x1="30.097" y1="26.978" x2="33.395" y2="25.475"/>
   <line stroke-width="0.13" x1="33.395" y1="25.475" x2="35.356" y2="31.736"/>
   <line stroke-width="0.13" x1="32.009" y1="26.24" x2="32.844" y2="29.161"/>
   <line stroke-width="0.13" x1="31.524" y1="26.379" x2="32.359" y2="29.3"/>
   <g>
    <path stroke-width="0.13" d="M38.904 34.95C38.789 34.427 38.1 34.136 37.362 34.296C36.624 34.459 36.118 35.012 36.232 35.533"/>
    <path stroke-width="0.3" d="M36.232 35.533C36.347 36.055 37.037 36.347 37.774 36.185C38.512 36.024 39.018 35.47 38.904 34.95"/>
    <path stroke="none" fill="#000000" d="M36.53 34.802C36.32 35.033 36.329 35.271 36.38 35.502L36.085 35.566C36.03 35.313 36.195 35.012 36.426 34.759L36.53 34.802z"/>
    <path stroke="none" fill="#000000" d="M38.758 34.981C38.707 34.749 38.576 34.514 38.329 34.408L38.405 34.326C38.715 34.457 38.987 34.628 39.051 34.917L38.758 34.981z"/>
   </g>
   <line stroke-width="0.3" x1="36.232" y1="35.533" x2="35.734" y2="28.01"/>
   <line stroke-width="0.5" x1="35.52" y1="24.791" x2="35.023" y2="17.295"/>
   <line stroke-width="0.3" x1="38.904" y1="34.95" x2="38.026" y2="27.349"/>
   <line stroke-width="0.5" x1="37.646" y1="24.056" x2="36.817" y2="16.876"/>
   <path stroke-width="0.5" d="M33.395 25.475C33.74 25.402 34.003 25.426 34.146 25.475"/>
   <path stroke-width="0.13" d="M38.067 27.458C37.875 26.814 37.015 26.574 36.656 26.718C36.298 26.861 35.868 26.646 35.747 27.865"/>
   <path stroke-width="0.3" d="M35.676 29.132C35.293 29.06 34.671 28.774 34.337 27.65C34.003 26.527 33.811 25.856 34.146 25.475C34.481 25.091 37.54 24.039 37.54 24.039C37.54 24.039 38.307 24.039 38.856 25.426C39.405 26.814 39.215 27.53 39.119 27.699C39.024 27.865 38.186 28.225 38.186 28.225"/>
   <path stroke-width="0.13" d="M37.54 24.039C37.36 24.701 37.5 25.161 37.689 25.602"/>
   <path stroke-width="0.13" d="M37.976 26.26C38.258 26.922 38.686 27.905 38.975 27.769"/>
   <path stroke-width="0.13" d="M38.664 32.003C39.167 32.408 39.286 33.771 38.88 33.987"/>
   <path stroke-width="0.13" d="M38.473 31.236C38.856 31.213 39.789 31.381 40.195 31.811C40.601 32.241 40.578 32.816 40.578 33.246C40.578 33.676 40.027 34.728 39.74 34.847C39.454 34.968 39.024 35.063 39.024 35.039"/>
   <path stroke-width="0.13" d="M39.74 34.847C39.74 34.847 39.383 34.465 39.383 34.442C39.383 34.417 39.478 33.222 39.86 32.911"/>
   <path stroke-width="0.13" d="M40.481 32.982L39.979 32.768C39.979 32.768 39.191 32.097 39.262 31.62"/>
   <line stroke-width="0.5" x1="33.859" y1="34.417" x2="33.045" y2="39.63"/>
   <line stroke-width="0.5" x1="33.045" y1="39.63" x2="34.671" y2="39.965"/>
   <line stroke-width="0.5" x1="34.671" y1="39.965" x2="34.719" y2="39.63"/>
   <line stroke-width="0.5" x1="34.097" y1="39.534" x2="41.75" y2="40.587"/>
   <line stroke-width="0.5" x1="41.75" y1="40.587" x2="41.75" y2="41.017"/>
   <line stroke-width="0.5" x1="41.75" y1="41.017" x2="42.801" y2="41.161"/>
   <line stroke-width="0.5" x1="42.801" y1="41.161" x2="45.622" y2="41.161"/>
   <line stroke-width="0.3" x1="45.622" y1="41.161" x2="46.866" y2="28.009"/>
   <line stroke-width="0.5" x1="46.866" y1="28.009" x2="44.523" y2="25.905"/>
   <line stroke-width="0.5" x1="44.523" y1="25.905" x2="38.856" y2="25.426"/>
   <line stroke-width="0.13" x1="39.31" y1="26.097" x2="44.332" y2="26.623"/>
   <line stroke-width="0.13" x1="44.332" y1="26.623" x2="46.771" y2="28.582"/>
   <line stroke-width="0.13" x1="44.283" y1="27.053" x2="42.801" y2="41.161"/>
   <path stroke-width="0.5" d="M39.646 25.475L39.692 24.9C39.692 24.9 41.511 23.8 42.61 23.562C43.71 23.323 43.758 23.753 43.758 23.8C43.758 23.849 43.567 25.617 43.567 25.617"/>
   <line stroke-width="0.13" x1="43.04" y1="23.609" x2="42.801" y2="25.283"/>
   <line stroke-width="0.13" x1="30.225" y1="27.53" x2="29.125" y2="27.961"/>
   <path stroke-width="0.5" d="M29.841 27.626C29.507 27.53 29.077 26.765 28.838 25.57C28.599 24.375 27.786 24.039 27.211 24.327C26.638 24.614 24.867 25.666 24.867 25.666C24.867 25.666 24.39 25.809 24.437 26.192"/>
   <path stroke-width="0.13" d="M27.211 24.327C26.876 24.757 27.69 26.143 27.69 26.478C27.69 26.814 27.547 27.435 27.547 27.435"/>
   <path stroke-width="0.5" d="M29.65 32.218C28.981 32.313 28.981 33.125 28.693 33.317C28.407 33.509 26.207 33.747 26.207 33.747C26.207 33.747 24.199 33.317 24.295 32.218C24.39 31.117 24.486 30.879 24.246 30.591"/>
   <path stroke-width="0.13" d="M28.693 33.317C27.832 33.173 27.402 33.079 27.641 31.692"/>
   <g>
    <path stroke-width="0.5" d="M51.744 15.002C51.712 14.606 49.063 14.502 45.828 14.766C42.593 15.029 39.996 15.564 40.027 15.958"/>
    <path stroke-width="0.13" d="M40.027 15.958C40.06 16.353 42.709 16.457 45.945 16.193C49.179 15.929 51.777 15.396 51.744 15.002"/>
    <path stroke="none" fill="#000000" d="M40.277 15.938C40.292 16.126 40.804 16.272 41.831 16.314L41.74 16.332C40.624 16.288 39.795 16.184 39.779 15.978L40.277 15.938z"/>
    <path stroke="none" fill="#000000" d="M50.024 15.644C51.143 15.413 51.509 15.202 51.494 15.022L51.993 14.98C52.009 15.166 51.261 15.413 50.115 15.647L50.024 15.644z"/>
   </g>
   <g>
    <path stroke-width="0.13" d="M40.027 17.044C40.027 17.048 40.027 17.053 40.027 17.057"/>
    <path stroke-width="0.3" d="M40.027 17.057C40.043 17.254 40.715 17.379 41.784 17.422"/>
    <path stroke-width="0.13" d="M41.784 17.422C42.941 17.469 44.445 17.416 45.945 17.294C49.179 17.03 51.777 16.495 51.744 16.1"/>
    <path stroke="none" fill="#000000" d="M41.89 17.4C43.015 17.446 44.482 17.405 45.944 17.286L45.945 17.301C44.408 17.426 42.865 17.492 41.68 17.443L41.89 17.4z"/>
   </g>
   <line stroke-width="0.5" x1="51.744" y1="16.102" x2="51.744" y2="15.002"/>
   <line stroke-width="0.13" x1="40.027" y1="17.057" x2="40.027" y2="15.958"/>
   <g>
    <path stroke-width="0.13" d="M51.027 15.096C51.009 14.849 48.704 14.811 45.878 15.009C43.052 15.208 40.776 15.568 40.792 15.814C40.811 16.062 43.115 16.1 45.942 15.901C48.768 15.702 51.045 15.343 51.027 15.096"/>
   </g>
   <line stroke-width="0.3" x1="40.554" y1="17.393" x2="40.889" y2="20.309"/>
   <line stroke-width="0.5" x1="51.457" y1="16.388" x2="51.552" y2="18.015"/>
   <path stroke-width="0.5" d="M40.889 20.309C41.988 21.123 46.722 20.931 49.258 20.452"/>
   <g>
    <path stroke-width="0.5" d="M54.408 19.236C54.484 19.236 54.546 18.884 54.546 18.446C54.546 18.01 54.484 17.657 54.408 17.657"/>
    <path stroke-width="0.13" d="M54.408 17.657C54.334 17.657 54.271 18.01 54.271 18.446C54.271 18.884 54.334 19.236 54.408 19.236"/>
    <path stroke="none" fill="#000000" d="M54.408 17.907C54.383 17.907 54.337 17.836 54.32 17.934L54.304 17.841C54.337 17.653 54.359 17.407 54.408 17.407L54.408 17.907z"/>
    <path stroke="none" fill="#000000" d="M54.32 18.96C54.344 19.102 54.377 18.986 54.408 18.986L54.408 19.486C54.371 19.486 54.332 19.219 54.304 19.051L54.32 18.96z"/>
   </g>
   <g>
    <path stroke-width="0.5" d="M53.777 17.67C53.738 17.67 53.704 17.76 53.679 17.902"/>
    <path stroke-width="0.3" d="M53.679 17.902C53.627 18.21 53.627 18.711 53.679 19.019"/>
    <path stroke-width="0.5" d="M53.679 19.019C53.707 19.175 53.741 19.251 53.777 19.251"/>
    <path stroke="none" fill="#000000" d="M53.71 18.079C53.692 18.184 53.665 18.323 53.665 18.461L53.613 18.461C53.613 18.195 53.613 17.928 53.649 17.725L53.71 18.079z"/>
    <path stroke="none" fill="#000000" d="M53.665 18.461C53.665 18.638 53.691 18.728 53.71 18.844L53.649 19.196C53.619 19.027 53.613 18.721 53.613 18.461L53.665 18.461z"/>
   </g>
   <line stroke-width="0.5" x1="53.777" y1="19.251" x2="54.408" y2="19.236"/>
   <line stroke-width="0.5" x1="53.777" y1="17.67" x2="54.408" y2="17.657"/>
   <line stroke-width="0.5" x1="53.618" y1="18.231" x2="52.052" y2="18.045"/>
   <line stroke-width="0.5" x1="52.052" y1="18.045" x2="50.875" y2="18.03"/>
   <line stroke-width="0.5" x1="53.648" y1="18.777" x2="51.996" y2="19.065"/>
   <line stroke-width="0.5" x1="51.996" y1="19.065" x2="51.061" y2="19.065"/>
   <path stroke-width="0.13" d="M50.875 18.03C50.53 18.173 50.573 18.403 50.53 18.533"/>
   <path stroke-width="0.13" d="M51.018 17.986L50.99 17.397C50.99 17.397 49.84 17.657 49.567 17.643C49.293 17.628 49.438 16.894 49.423 16.894"/>
   <line stroke-width="0.13" x1="48.216" y1="17.097" x2="48.302" y2="20.53"/>
   <g>
    <path stroke-width="0.5" d="M50.07 20.371C50.259 20.402 50.448 20.329 50.598 20.187"/>
    <path stroke-width="0.3" d="M50.598 20.187C50.761 20.033 50.865 19.814 50.902 19.585C50.981 19.088 50.737 18.637 50.357 18.576"/>
    <path stroke-width="0.13" d="M50.357 18.576C49.978 18.515 49.604 18.867 49.526 19.364C49.447 19.859 49.689 20.312 50.07 20.371"/>
    <path stroke="none" fill="#000000" d="M50.493 19.99C50.61 19.879 50.762 19.733 50.787 19.565L51.015 19.603C50.968 19.896 50.911 20.187 50.704 20.382L50.493 19.99z"/>
    <path stroke="none" fill="#000000" d="M50.334 18.725C50.174 18.699 49.981 18.693 49.856 18.812L49.801 18.71C49.976 18.545 50.159 18.393 50.381 18.428L50.334 18.725z"/>
    <path stroke="none" fill="#000000" d="M49.667 19.992C49.767 20.175 49.945 20.099 50.109 20.126L50.03 20.618C49.841 20.588 49.698 20.282 49.584 20.071L49.667 19.992z"/>
   </g>
   <g>
    <path stroke-width="0.3" d="M49.884 18.518C49.694 18.489 49.506 18.562 49.354 18.704"/>
    <path stroke-width="0.13" d="M49.354 18.704C49.192 18.858 49.088 19.077 49.051 19.306C48.972 19.803 49.216 20.254 49.595 20.315"/>
    <path stroke="none" fill="#000000" d="M49.417 18.821C49.283 18.949 49.131 19.123 49.1 19.315L49.003 19.298C49.045 19.03 49.101 18.765 49.292 18.586L49.417 18.821z"/>
   </g>
   <line stroke-width="0.13" x1="49.595" y1="20.315" x2="50.07" y2="20.371"/>
   <line stroke-width="0.3" x1="49.883" y1="18.518" x2="50.357" y2="18.576"/>
   <path stroke-width="0.13" d="M49.194 18.893C49.194 18.893 48.905 18.864 48.892 18.864C48.878 18.864 48.661 19.021 48.633 19.28C48.604 19.539 48.719 19.798 48.747 19.826C48.777 19.855 49.136 19.897 49.136 19.897"/>
   <path stroke-width="0.5" d="M51.579 19.05L51.536 19.481C51.536 19.481 51.204 19.913 50.789 20.013"/>
   <line stroke-width="0.13" x1="49.258" y1="20.452" x2="49.753" y2="20.371"/>
   <path stroke-width="0.13" d="M40.607 18.216L40.015 18.198C40.015 18.198 39.853 18.484 39.853 18.951C39.853 19.417 39.962 19.597 40.07 19.65C40.176 19.704 40.841 19.722 40.841 19.722"/>
   <path stroke-width="0.13" d="M36.817 16.876C36.659 16.385 36.283 16.17 35.691 16.33C35.098 16.492 35.018 16.678 35.023 17.295"/>
   <g>
    <path stroke-width="0.5" d="M35.063 18.304C34.561 18.089 34.345 17.838 34.31 17.353"/>
    <path stroke-width="0.13" d="M34.31 17.353C34.274 16.87 34.183 16.242 35.691 15.919C37.198 15.596 38.579 15.343 38.579 15.343C38.579 15.343 40.231 14.446 38.814 13.836"/>
   </g>
   <path stroke-width="0.13" d="M36.853 17.024L37.161 16.946L37.161 16.946C37.677 16.817 38.682 16.565 38.802 16.553L38.802 16.553C38.868 16.551 39.128 16.51 39.374 16.378C39.481 16.321 39.585 16.246 39.67 16.153C39.683 16.138 39.698 16.121 39.71 16.106"/>
   <path stroke-width="0.13" d="M36.78 16.731L37.088 16.652C37.618 16.519 38.649 16.265 38.774 16.253L38.774 16.253L38.795 16.251C38.795 16.251 39.043 16.213 39.231 16.112C39.308 16.071 39.384 16.018 39.447 15.949C39.527 15.862 39.582 15.746 39.578 15.599"/>
   <line stroke-width="0.5" x1="39.387" y1="14.375" x2="40.176" y2="18.233"/>
   <path stroke-width="0.5" d="M40.59 19.795C40.59 20.387 40.787 20.692 40.088 20.888C39.387 21.086 37.701 21.535 37.287 20.458"/>
   <line stroke-width="0.13" x1="36.57" y1="14.627" x2="36.588" y2="15.291"/>
   <line stroke-width="0.13" x1="36.588" y1="15.291" x2="38.024" y2="15.201"/>
   <line stroke-width="0.13" x1="38.024" y1="15.201" x2="38.222" y2="14.715"/>
   <line stroke-width="0.13" x1="38.222" y1="14.715" x2="38.204" y2="14.035"/>
   <line stroke-width="0.13" x1="38.024" y1="15.201" x2="37.881" y2="14.268"/>
   <line stroke-width="0.3" x1="36.067" y1="14.878" x2="40.124" y2="13.137"/>
   <path stroke-width="0.13" d="M37.036 18.216C37.503 18.179 39.28 17.57 39.369 17.551C39.46 17.533 39.89 17.533 39.89 16.743"/>
   <g>
    <path stroke-width="0.13" d="M39.243 19.74C39.183 19.521 38.93 19.4 38.677 19.469C38.424 19.539 38.268 19.772 38.329 19.992C38.389 20.21 38.643 20.332 38.896 20.263C39.148 20.193 39.304 19.96 39.243 19.74"/>
   </g>
   <line stroke-width="0.5" x1="33.386" y1="19.085" x2="32.829" y2="19.103"/>
   <line stroke-width="0.5" x1="33.377" y1="18.815" x2="32.82" y2="18.833"/>
   <line stroke-width="0.5" x1="35.103" y1="19.248" x2="33.487" y2="19.265"/>
   <line stroke-width="0.5" x1="35.095" y1="18.618" x2="33.481" y2="18.635"/>
   <path stroke-width="0.5" d="M33.481 18.635C33.378 18.727 33.341 19.135 33.487 19.265"/>
   <path stroke-width="0.5" d="M32.82 18.833C32.753 18.917 32.737 19.057 32.829 19.103"/>
   <line stroke-width="0.13" x1="39.493" y1="11.233" x2="35.527" y2="12.762"/>
   <line stroke-width="0.13" x1="35.32" y1="13.085" x2="35.762" y2="14.73"/>
   <path stroke-width="0.5" d="M36.067 14.878C35.762 15.377 34.439 16.022 33.999 15.759C33.557 15.494 33.029 13.085 32.999 13.054C32.969 13.025 32.793 12.262 33.792 12.026C34.792 11.791 34.85 10.704 34.85 10.528C34.85 10.352 34.673 9.792 34.673 9.792C34.673 9.792 34.704 9.352 35.32 9.118C35.938 8.881 36.526 8.912 36.613 9.147C36.701 9.381 36.761 9.617 36.789 9.647C36.82 9.676 38.612 10.292 39.112 10.321"/>
   <path stroke-width="0.5" d="M39.112 10.321C39.582 9.97 40.405 9.823 40.728 10.205C41.051 10.586 41.021 10.91 41.021 10.91L41.316 12.585C41.316 12.585 41.546 13.218 40.124 13.137"/>
   <g>
    <path stroke-width="0.13" d="M37.847 10.675C37.765 10.384 37.14 10.304 36.45 10.5C35.759 10.695 35.268 11.089 35.35 11.38C35.432 11.672 36.058 11.75 36.747 11.556C37.438 11.361 37.929 10.967 37.847 10.675"/>
   </g>
   <g>
    <path stroke-width="0.13" d="M33.295 13.016C33.512 13.053 33.811 13.006 34.097 12.903C34.551 12.737 34.88 12.46 34.89 12.246"/>
   </g>
   <g>
    <path stroke-width="0.13" d="M35.081 10.172C35.299 10.208 35.597 10.163 35.884 10.058C36.338 9.893 36.665 9.615 36.676 9.401"/>
   </g>
   <g>
    <path stroke-width="0.13" d="M39.195 11.201C39.414 11.237 39.712 11.191 39.997 11.087C40.453 10.92 40.78 10.644 40.79 10.43"/>
   </g>
   <line stroke-width="0.13" x1="34.234" y1="17.08" x2="34.145" y2="15.846"/>
   <path stroke-width="0.5" d="M32.112 3.851C27.925 5.078 21.553 10.746 18.228 22.917"/>
   <path stroke-width="0.5" d="M17.981 23.859L17.98 23.861z"/>
   <path stroke-width="0.13" d="M34.033 4C29.751 5.256 23.585 10.789 20.33 23.55"/>
   <path stroke-width="0.3" d="M19.914 48.5C19.666 44.981 20.832 37.54 22.219 30.975"/>
   <path stroke-width="0.3" d="M22.468 29.815L22.469 29.807z"/>
   <path stroke-width="0.3" d="M23.687 24.667C24.3 22.304 24.875 20.431 25.31 19.449C27.085 15.458 30.559 5.479 36.546 4"/>
   <path stroke-width="0.13" d="M23.167 48.5C22.89 46.408 23.646 40.375 24.682 34.418"/>
   <path stroke-width="0.13" d="M24.896 33.21L24.896 33.207z"/>
   <path stroke-width="0.13" d="M27.021 23.35C27.198 22.701 27.368 22.132 27.528 21.667C29.303 16.492 33.96 4.961 38.32 4.296"/>
   <path stroke-width="0.13" d="M38.32 4.296C39.872 4 40.465 3.926 41.426 4.74"/>
   <path stroke-width="0.13" d="M34.033 4C34.994 3.556 36.546 4 36.546 4"/>
   <path stroke-width="0.3" d="M36.546 4C38.098 3.261 40.243 4.147 40.834 4.443"/>
   <path stroke-width="0.5" d="M32.112 3.851C33.59 3.483 34.698 3.334 35.807 3.926"/>
   <line stroke-width="0.3" x1="20.653" y1="37.634" x2="18.954" y2="37.265"/>
   <line stroke-width="0.3" x1="21.17" y1="34.826" x2="19.545" y2="34.53"/>
   <line stroke-width="0.13" x1="19.841" y1="43.326" x2="18.361" y2="43.104"/>
   <line stroke-width="0.3" x1="19.693" y1="46.136" x2="18.14" y2="45.765"/>
   <line stroke-width="0.3" x1="24.867" y1="19.966" x2="22.945" y2="19.672"/>
   <line stroke-width="0.13" x1="24.275" y1="21.888" x2="22.724" y2="21.815"/>
   <line stroke-width="0.3" x1="27.675" y1="13.535" x2="26.123" y2="13.535"/>
   <line stroke-width="0.3" x1="30.115" y1="9.471" x2="28.416" y2="9.471"/>
   <line stroke-width="0.3" x1="32.703" y1="6.144" x2="31.446" y2="6.144"/>
   <path stroke-width="0.3" d="M42.534 14.867C42.313 13.019 42.756 9.692 42.164 8.952C41.573 8.214 41.5 5.331 41.72 4.073C41.942 2.818 38.469 3.039 36.399 3.039C34.329 3.039 34.698 3.186 34.698 3.186"/>
   <path stroke-width="0.5" d="M31.371 4C31.371 2.299 31.298 1.857 33.515 1.709C35.734 1.561 38.32 1.117 39.207 0.896C40.094 0.674 43.051 1.117 43.865 1.265C44.677 1.413 45.935 2.964 46.304 3.186"/>
   <path stroke-width="0.13" d="M44.234 14.57C45.564 12.057 45.786 9.766 45.49 8.804C45.195 7.844 44.457 4.961 46.304 3.186"/>
   <path stroke-width="0.13" d="M31.652 34.826C31.009 38.896 30.753 46.548 31.15 48.204"/>
   <g>
    <path stroke-width="0.13" d="M51.302 8.855C51.417 8.862 51.533 8.599 51.63 8.17"/>
    <path stroke-width="0.3" d="M51.63 8.17C51.734 7.708 51.802 7.099 51.832 6.487C51.896 5.168 51.762 4.091 51.533 4.08"/>
    <path stroke-width="0.13" d="M51.533 4.08C51.304 4.068 51.067 5.128 51.003 6.448C50.939 7.767 51.073 8.845 51.302 8.855"/>
    <path stroke="none" fill="#000000" d="M51.307 8.791C51.417 8.797 51.524 8.48 51.616 8.064L51.643 8.278C51.545 8.718 51.417 8.926 51.299 8.92L51.307 8.791z"/>
    <path stroke="none" fill="#000000" d="M51.524 4.23C51.417 4.224 51.301 4.41 51.212 4.811L51.2 4.719C51.301 4.262 51.417 3.923 51.539 3.93L51.524 4.23z"/>
   </g>
   <g>
    <path stroke-width="0.13" d="M49.506 8.817C49.509 8.817 49.509 8.817 49.511 8.817"/>
    <path stroke-width="0.13" d="M49.737 4.041C49.508 4.03 49.271 5.091 49.207 6.41C49.143 7.729 49.277 8.807 49.506 8.817"/>
   </g>
   <line stroke-width="0.13" x1="49.506" y1="8.817" x2="51.302" y2="8.855"/>
   <line stroke-width="0.3" x1="49.737" y1="4.041" x2="51.533" y2="4.08"/>
   <line stroke-width="0.13" x1="49.409" y1="4.727" x2="50.692" y2="4.767"/>
   <line stroke-width="0.13" x1="49.316" y1="7.099" x2="50.539" y2="7.099"/>
   <g>
    <path stroke-width="0.13" d="M52.155 9.833C52.347 9.842 52.545 8.951 52.598 7.841C52.625 7.288 52.61 6.783 52.564 6.418"/>
    <path stroke-width="0.3" d="M52.564 6.418C52.515 6.022 52.435 5.823 52.347 5.817"/>
    <path stroke-width="0.13" d="M52.347 5.817C52.155 5.809 51.956 6.7 51.902 7.809C51.848 8.916 51.962 9.823 52.155 9.833"/>
    <path stroke="none" fill="#000000" d="M52.588 7.841C52.613 7.304 52.585 6.878 52.542 6.522L52.588 6.312C52.636 6.69 52.637 7.27 52.61 7.843L52.588 7.841z"/>
    <path stroke="none" fill="#000000" d="M52.34 5.968C52.25 5.964 52.152 6.107 52.078 6.44L52.067 6.347C52.152 5.961 52.25 5.663 52.353 5.669L52.34 5.968z"/>
   </g>
   <line stroke-width="0.3" x1="52.347" y1="5.817" x2="51.838" y2="5.722"/>
   <line stroke-width="0.13" x1="52.155" y1="9.833" x2="50.768" y2="9.887"/>
   <line stroke-width="0.13" x1="50.768" y1="9.887" x2="50.347" y2="9.582"/>
   <line stroke-width="0.13" x1="50.347" y1="9.582" x2="50.271" y2="8.971"/>
   <path stroke-width="0.3" d="M46.304 3.186C47.444 2.551 49.087 2.972 49.584 3.277C50.081 3.583 50.271 4.003 50.271 4.041"/>
   <path stroke-width="0.13" d="M49.277 3.238C48.667 3.698 48.667 4.346 48.667 5.264C48.667 6.181 48.667 8.551 48.399 9.849C48.131 11.148 47.558 14.359 47.52 14.32"/>
   <g>
    <path stroke-width="0.13" d="M51.908 14.787C52.033 14.455 52.127 13.817 52.159 13.143C52.21 12.106 52.103 11.26 51.924 11.252C51.744 11.243 51.558 12.076 51.509 13.111C51.475 13.811 51.512 14.423 51.597 14.755"/>
   </g>
   <g>
    <path stroke-width="0.13" d="M50.515 11.221C50.335 11.214 50.149 12.045 50.098 13.08C50.073 13.637 50.091 14.141 50.14 14.489"/>
   </g>
   <line stroke-width="0.13" x1="50.515" y1="11.221" x2="51.924" y2="11.252"/>
   <line stroke-width="0.13" x1="50.258" y1="11.759" x2="51.265" y2="11.791"/>
   <line stroke-width="0.13" x1="50.185" y1="13.621" x2="51.145" y2="13.621"/>
   <path stroke-width="0.3" d="M52.566 6.418L57.737 8.813C57.737 8.813 58.588 9.355 58.588 9.82C58.588 10.285 59.518 10.285 59.518 10.285L60.988 10.593L61.298 11.135C61.298 11.135 61.996 10.593 62.073 10.593C62.151 10.593 62.692 11.214 62.692 11.214L63.777 10.827L64.474 11.524L65.48 10.903L66.409 11.291C66.409 11.291 66.641 13.381 66.564 14.234C66.487 15.086 65.79 17.099 65.635 17.33C65.48 17.564 64.706 16.943 64.706 16.943L63.932 17.408L62.847 16.867L62.151 17.408L61.454 16.711L60.756 17.254L59.362 17.254C59.362 17.254 59.052 11.678 59.518 10.285"/>
   <path stroke-width="0.13" d="M60.988 10.593C60.292 12.298 60.524 16.711 60.756 17.254"/>
   <path stroke-width="0.3" d="M24.923 9.042C24.621 7.597 23.358 7.296 22.756 7.235C22.152 7.176 19.804 7.416 19.504 8.801C19.202 10.186 18.961 11.631 18.059 12.836"/>
   <path stroke-width="0.3" d="M18.239 12.173C18.239 10.428 17.155 8.682 15.468 8.682C13.782 8.682 11.615 8.38 10.711 10.127C9.808 11.872 9.929 12.114 10.23 13.859C10.531 15.606 10.05 18.015 9.326 18.798"/>
   <path stroke-width="0.13" d="M15.167 16.027C15.167 16.027 13.723 13.679 13.723 13.618C13.723 13.558 13.422 12.836 13.903 12.054C14.384 11.271 14.324 11.33 14.384 11.271C14.445 11.211 15.71 9.826 15.71 9.826"/>
   <path stroke-width="0.3" d="M18.059 12.836C16.673 14.763 16.432 15.426 15.167 16.388C13.903 17.353 11.314 21.025 10.952 21.989"/>
   <path stroke-width="0.3" d="M10.291 15.304C10.291 15.304 9.99 15.064 9.688 15.426C9.387 15.787 7.761 17.413 7.761 17.413C7.761 17.413 7.761 17.954 7.761 18.256"/>
   <path stroke-width="0.3" d="M9.326 18.798L4.811 18.196C4.811 18.196 4.629 17.954 5.232 17.594C5.835 17.231 7.761 16.329 8.484 16.629"/>
   <line stroke-width="0.3" x1="10.23" y1="13.859" x2="5.293" y2="13.679"/>
   <line stroke-width="0.3" x1="10.349" y1="10.622" x2="5.41" y2="10.442"/>
   <g>
    <path stroke-width="0.3" d="M5.41 10.442C4.836 10.42 4.344 11.128 4.31 12.022C4.278 12.916 4.718 13.659 5.293 13.679"/>
   </g>
   <line stroke-width="0.3" x1="19.405" y1="8.975" x2="16.646" y2="8.975"/>
   <line stroke-width="0.13" x1="18.734" y1="11.631" x2="18.216" y2="11.615"/>
   <line stroke-width="0.13" x1="18.239" y1="12.173" x2="18.251" y2="12.528"/>
   <path stroke-width="0.13" d="M8.023 19.978C7.748 20.737 6.575 20.876 6.022 22.67C5.471 24.463 4.504 27.704 4.504 27.704C4.504 27.704 3.54 29.637 5.54 30.257C7.541 30.879 8.782 31.361 8.782 31.361"/>
   <path stroke-width="0.3" d="M8.484 16.629C5.953 16.115 3.194 17.013 0.573 19.702"/>
   <path stroke-width="0.13" d="M0.366 29.292C2.504 30.257 3.746 30.327 3.677 32.396C3.609 34.466 3.471 36.121 3.194 36.673C2.919 37.225 1.401 38.398 0.435 40.054"/>
   <path stroke-width="0.13" d="M12.507 38.329C12.025 38.191 10.714 38.052 10.714 36.536C10.714 35.018 11.196 33.292 11.196 33.292"/>
   <path stroke-width="0.13" d="M7.955 33.43C7.403 35.5 6.919 36.95 7.057 38.398C7.195 39.847 7.748 47.228 7.748 47.987"/>
   <path stroke-width="0.13" d="M33.229 39.706C32.433 40.539 31.71 43.182 32.686 44.268C33.664 45.354 38.045 48.432 38.045 48.432"/>
   <path stroke-width="0.13" d="M45.613 43.725C45.359 42.567 43.984 42.747 43.295 44.015C42.607 45.281 41.884 47.02 42.463 48.54"/>
   <path stroke-width="0.13" d="M43.295 44.015L44.926 44.268C44.926 44.268 45.323 44.703 45.252 44.993"/>
   <path stroke-width="0.13" d="M42.281 47.237L43.332 47.6C43.332 47.6 44.564 47.671 44.744 47.49"/>
   <line stroke-width="0.13" x1="43.802" y1="44.776" x2="43.514" y2="47.383"/>
   <path stroke-width="0.13" d="M44.753 47.337C47.125 46.801 51.338 44.405 53.365 42.57C54.658 41.399 57.968 39.279 60.503 38.167C61.43 37.762 62.222 37.465 62.72 37.509"/>
   <path stroke-width="0.13" d="M44.301 45.328C46.42 44.85 50.171 42.683 51.982 41.042C53.377 39.78 56.941 37.479 59.677 36.281C61.012 35.698 62.185 35.393 62.904 35.457"/>
   <path stroke-width="0.13" d="M44.301 45.328C43.948 45.969 43.75 47.363 44.753 47.337"/>
   <path stroke-width="0.13" d="M62.904 35.457C63.101 35.904 63.39 37.231 62.72 37.509"/>
   <path stroke-width="0.3" d="M72.191 25.621L54.722 25.344C54.722 25.344 53.057 24.721 53.057 23.403"/>
   <path stroke-width="0.13" d="M54.235 25.621C52.365 28.742 51.393 39.21 51.463 40.804"/>
   <path stroke-width="0.3" d="M54.027 24.998C54.235 22.919 54.167 20.353 53.473 20.214C52.78 20.076 51.185 19.798 51.533 19.937"/>
   <path stroke-width="0.13" d="M53.473 20.214C51.533 22.155 51.74 24.652 51.325 26.731C50.908 28.811 49.244 41.844 49.244 42.468"/>
   <line stroke-width="0.13" x1="49.314" y1="45.588" x2="49.106" y2="48.429"/>
   <line stroke-width="0.13" x1="51.048" y1="45.033" x2="50.701" y2="48.152"/>
   <path stroke-width="0.13" d="M49.661 21.115C48.412 23.126 47.859 27.493 47.442 29.365C47.027 31.236 46.195 42.121 46.125 42.953"/>
   <path stroke-width="0.3" d="M59.362 17.254C59.435 17.649 63.664 17.858 63.942 17.858C64.218 17.858 64.427 17.858 64.358 19.382C64.287 20.908 64.495 24.721 64.218 25.414"/>
   <g>
    <path stroke-width="0.13" d="M52.06 26.265C52.128 26.274 52.215 26.064 52.287 25.74"/>
    <path stroke-width="0.13" d="M52.409 24.777C52.421 24.429 52.386 24.225 52.322 24.216C52.223 24.202 52.085 24.652 52.012 25.217C51.941 25.785 51.962 26.254 52.06 26.265"/>
   </g>
   <g>
    <path stroke-width="0.13" d="M53.39 23.111C53.457 23.118 53.545 22.908 53.616 22.585"/>
    <path stroke-width="0.13" d="M53.738 21.62C53.75 21.274 53.715 21.071 53.651 21.059C53.552 21.047 53.414 21.495 53.343 22.062C53.271 22.629 53.292 23.097 53.39 23.111"/>
   </g>
   <g>
    <path stroke-width="0.13" d="M50.768 35.088C50.837 35.097 50.923 34.887 50.996 34.564"/>
    <path stroke-width="0.13" d="M51.118 33.6C51.13 33.253 51.094 33.048 51.03 33.039C50.932 33.026 50.792 33.475 50.72 34.04C50.649 34.606 50.67 35.076 50.768 35.088"/>
   </g>
   <path stroke-width="0.13" d="M69.471 34.195L63.56 33.716C63.56 33.716 62.378 33.07 62.603 35.433"/>
   <path stroke-width="0.13" d="M62.72 37.509C62.771 37.826 62.771 38.164 63.137 38.079C63.503 37.996 66.262 38.107 66.656 38.107C67.049 38.107 70.174 38.417 70.99 38.643"/>
   <line stroke-width="0.13" x1="63.222" y1="33.886" x2="63.362" y2="34.843"/>
   <line stroke-width="0.13" x1="63.503" y1="35.659" x2="63.109" y2="37.741"/>
   <line stroke-width="0.13" x1="63.926" y1="35.125" x2="70.456" y2="35.771"/>
   <path stroke-width="0.13" d="M66.29 38.22C66.29 38.277 66.093 42.47 66.093 42.5C66.093 42.527 66.515 45.005 68.486 45.201C70.456 45.399 71.525 44.414 71.665 42.893C71.807 41.374 71.834 39.881 71.862 39.881C71.891 39.881 72.341 39.628 72.341 39.628"/>
   <path stroke-width="0.13" d="M66.796 38.783L71.609 39.685"/>
   <g>
    <path stroke-width="0.13" d="M70.456 42.921C70.864 42.03 70.427 40.956 69.48 40.52C68.531 40.085 67.43 40.454 67.022 41.344C66.612 42.235 67.049 43.31 67.998 43.746C68.945 44.182 70.046 43.813 70.456 42.921"/>
   </g>
   <polygon stroke-width="0.13" points="70.061 42.612 69.79 41.295 68.466 40.817 67.415 41.655 67.688 42.97 69.01 43.448 70.061 42.612"/>
   <line stroke-width="0.5" x1="51.744" y1="16.102" x2="51.457" y2="16.388"/>
   <line stroke-width="0.5" x1="49.399" y1="20.246" x2="49.484" y2="20.344"/>
   <line stroke-width="0.5" x1="49.331" y1="20.567" x2="49.957" y2="20.414"/>
   <line stroke-width="0.5" x1="34.146" y1="25.475" x2="35.52" y2="24.791"/>
   <path stroke-width="0.5" d="M37.646 24.056C38.668 24.211 38.572 25.013 38.856 25.426"/>
   <path stroke-width="0.5" d="M39.387 14.375C39.439 13.888 38.814 13.836 38.814 13.836"/>
   <line stroke-width="0.5" x1="34.234" y1="17.08" x2="34.042" y2="16.074"/>
   <line stroke-width="0.5" x1="40.124" y1="13.137" x2="38.814" y2="13.836"/>
   <path stroke-width="0.5" d="M16.663 28.908C15.605 32.764 14.237 39.779 14.237 41.323C14.237 42.987 13.657 48.203 13.875 48.564"/>
   <path stroke-width="0.13" d="M18.743 29.647C17.689 33.521 16.339 40.448 16.339 41.979C16.339 43.646 15.76 48.859 15.977 49.222"/>
   <text transform="matrix(0 -1 1 0 74.269 50.917)" stroke="none" fill="#000000" font-family="'Helvetica'" font-size="1.96">122 980</text>
  </g>
 </g>
</svg>
