<?xml version="1.0" encoding="utf-8"?>
<!DOCTYPE svg PUBLIC "-//W3C//DTD SVG 1.1//EN" "http://www.w3.org/Graphics/SVG/1.1/DTD/svg11.dtd">
<!-- Generator: PTC Arbortext IsoDraw 7.3 -->
<svg width="100%" height="100%" viewBox="0 0 75 98.15"
 xmlns="http://www.w3.org/2000/svg" xmlns:xlink="http://www.w3.org/1999/xlink"
 fill-rule="evenodd" clip-rule="evenodd" stroke="#000000" stroke-linecap="round" fill="none" xml:space="preserve">
 <g id="Frame">
  <path stroke="none" fill="#FFFFFF" d="M75 98.15L0 98.15 0 0 75 0 75 98.15z"/>
 </g>
 <g id="Colour">
 </g>
 <g id="Standard_x0020_layer">
  <g>
   <path stroke-width="0.3" d="M11.644 35.094C11.618 34.365 11.618 25.303 11.618 25.303C11.618 25.303 11.833 24.542 12.307 24.102C12.541 23.884 12.846 23.69 13.23 23.547C13.907 23.295 14.798 23.207 15.954 23.355L23.746 24.181C25.402 24.336 26.632 24.445 27.1 24.539L27.478 24.608C27.908 24.681 28.486 24.759 29.036 25.076C29.225 25.184 29.408 25.323 29.579 25.507C29.859 25.807 30.097 26.217 30.28 26.765C30.868 28.532 31.655 31.775 32.204 34.039C32.39 34.804 32.585 35.564 32.716 36.061"/>
   <path stroke-width="0.3" d="M8.445 36.223L8.449 25.28C8.449 25.207 8.452 25.123 8.461 25.028C8.521 24.367 8.903 22.94 10.15 21.78C10.653 21.312 11.3 20.882 12.127 20.576C13.18 20.184 14.557 19.981 16.355 20.21L16.321 20.207L24.062 21.027L24.042 21.025C25.859 21.196 27.722 21.431 27.722 21.431L28.03 21.486L28.018 21.484C28.739 21.609 29.693 21.797 30.617 22.327C31.06 22.583 31.496 22.914 31.9 23.347C32.442 23.929 32.933 24.704 33.286 25.763C33.896 27.591 34.715 30.948 35.284 33.29C35.569 34.462 35.783 35.362 35.871 35.625"/>
   <path stroke-width="0.3" d="M11.644 35.094C11.698 35.469 12.102 36.17 12.451 36.223"/>
   <path stroke-width="0.13" d="M8.66 36.25C9.654 36.6 11.994 36.357 12.156 36.304"/>
   <path stroke-width="0.3" d="M35.871 35.625C35.985 35.954 36.066 36.734 36.066 36.841C36.066 36.95 36.389 36.868 36.549 37.219"/>
   <path stroke-width="0.13" d="M32.716 36.061C32.784 36.17 32.57 36.6 32.274 36.654"/>
   <path stroke-width="0.13" d="M36.066 36.841C35.34 36.868 33.037 36.987 32.347 36.633"/>
   <line stroke-width="0.3" x1="12.451" y1="36.223" x2="32.548" y2="36.487"/>
   <line stroke-width="0.13" x1="35.911" y1="37.087" x2="9.676" y2="36.634"/>
   <path stroke-width="0.3" d="M8.445 36.223C8.21 36.182 8.092 36.579 8.092 36.741"/>
   <path stroke-width="0.13" d="M9.512 36.625C9.326 36.649 9.233 36.765 9.233 37.091"/>
   <line stroke-width="0.3" x1="8.092" y1="36.741" x2="8.128" y2="52.098"/>
   <line stroke-width="0.13" x1="9.233" y1="37.091" x2="9.477" y2="53.179"/>
   <path stroke-width="0.13" d="M14.178 58.893C14.178 58.893 14.178 53.308 14.271 51.447C14.364 49.585 16.132 43.536 23.019 43.814"/>
   <path stroke-width="0.13" d="M23.019 43.814C25.346 43.814 29.907 45.77 30.185 51.261C30.464 56.752 29.628 69.596 29.628 69.596L29.442 77.786"/>
   <path stroke-width="0.3" d="M8.128 52.098C8.128 52.098 9.32 56.152 9.4 56.351C9.48 56.551 10.641 58.271 10.881 58.631C11.119 58.99 11.72 59.231 12.56 59.231C13.4 59.231 14.198 59.11 14.359 58.75C14.519 58.392 15.079 56.792 15.079 56.792C15.079 56.792 15.218 51.473 15.538 50.115C15.859 48.755 17.617 45.156 22.015 45.156"/>
   <path stroke-width="0.13" d="M22.015 45.156C23.536 45.237 24.495 45.317 25.454 46.036"/>
   <path stroke-width="0.3" d="M23.393 45.262C25.214 46.356 26.414 47.235 26.335 51.473C26.254 55.713 25.934 72.105 25.934 72.105C25.934 72.105 28.05 81.697 28.486 82.572C28.923 83.445 30.452 85.484 30.818 86.141C31.181 86.796 31.399 87.233 32.42 87.015C33.439 86.796 43.198 85.048 43.927 84.903C44.655 84.757 45.165 85.048 46.039 85.266C46.914 85.484 47.204 85.558 47.204 85.558C47.204 85.558 49.497 85.159 50.249 85.021"/>
   <path stroke-width="0.13" d="M25.454 46.036C27.449 47.216 28.109 49.982 28.109 51.695C28.109 53.408 27.846 73.834 27.846 73.834"/>
   <line stroke-width="0.13" x1="29.277" y1="78.599" x2="31.431" y2="86.564"/>
   <line stroke-width="0.13" x1="27.914" y1="74.436" x2="28.99" y2="77.953"/>
   <line stroke-width="0.13" x1="27.411" y1="73.647" x2="25.992" y2="72.364"/>
   <line stroke-width="0.13" x1="8.128" y1="51.915" x2="9.189" y2="53.408"/>
   <line stroke-width="0.13" x1="9.65" y1="54.326" x2="10.881" y2="58.631"/>
   <line stroke-width="0.3" x1="36.549" y1="37.219" x2="40.134" y2="44.621"/>
   <path stroke-width="0.3" d="M40.134 44.621C40.356 45.243 40.89 45.689 41.335 45.777"/>
   <g>
    <path stroke-width="0.3" d="M47.744 46.811C47.743 46.707 47.503 46.616 47.115 46.554"/>
    <path stroke-width="0.13" d="M47.115 46.554C47.1 46.551 47.082 46.548 47.067 46.545"/>
    <path stroke-width="0.13" d="M43.542 46.947C43.802 47.109 44.658 47.209 45.609 47.201C46.79 47.191 47.746 47.015 47.744 46.811"/>
    <path stroke="none" fill="#000000" d="M47.075 47.072C47.478 46.997 47.595 46.904 47.594 46.811L47.895 46.808C47.896 46.906 47.597 47.008 47.167 47.087L47.075 47.072z"/>
   </g>
   <g>
    <path stroke-width="0.3" d="M43.588 48.777C43.926 48.917 44.718 48.997 45.57 48.99C46.752 48.979 47.707 48.804 47.706 48.6"/>
   </g>
   <line stroke-width="0.3" x1="47.706" y1="48.6" x2="47.744" y2="46.811"/>
   <line stroke-width="0.3" x1="46.503" y1="48.991" x2="46.502" y2="49.192"/>
   <line stroke-width="0.3" x1="46.502" y1="49.993" x2="46.499" y2="55.603"/>
   <line stroke-width="0.3" x1="44.56" y1="48.99" x2="44.56" y2="49.287"/>
   <line stroke-width="0.3" x1="44.558" y1="50.087" x2="44.555" y2="55.601"/>
   <g>
    <path stroke-width="0.13" d="M44.557 55.484C44.557 55.621 44.975 55.732 45.499 55.737"/>
    <path stroke-width="0.13" d="M46.232 55.658C46.411 55.609 46.499 55.546 46.499 55.484"/>
   </g>
   <g>
    <path stroke-width="0.13" d="M44.555 55.601C44.555 55.828 44.99 56.012 45.527 56.012C46.064 56.012 46.499 55.829 46.499 55.603"/>
   </g>
   <g>
    <path stroke-width="0.3" d="M44.243 46.415C44.255 46.545 44.283 46.756 44.341 46.784"/>
    <path stroke-width="0.13" d="M44.341 46.784C44.427 46.828 45.197 46.978 45.518 46.999C45.838 47.02 46.543 46.999 46.779 46.912C47.014 46.828 47.078 46.613 47.078 46.421"/>
    <path stroke-width="0.3" d="M47.078 46.421C47.078 46.228 47.098 44.947 47.098 44.947C47.098 44.947 47.121 44.819 46.843 44.755C46.564 44.691 46.414 44.691 46.201 44.691C45.987 44.691 44.726 44.732 44.512 44.755C44.353 44.771 44.301 45.027 44.267 45.615"/>
   </g>
   <line stroke-width="0.13" x1="44.387" y1="44.85" x2="44.898" y2="44.99"/>
   <line stroke-width="0.13" x1="45.283" y1="45.011" x2="46.95" y2="44.947"/>
   <line stroke-width="0.13" x1="45.069" y1="45.182" x2="45.09" y2="46.549"/>
   <path stroke-width="0.13" d="M45.112 46.72C45.304 46.828 45.496 46.935 45.667 46.935"/>
   <g>
    <path stroke-width="0.13" d="M44.576 46.399C44.654 46.399 44.716 46.219 44.716 45.993C44.716 45.77 44.654 45.588 44.576 45.588C44.564 45.588 44.551 45.593 44.542 45.601"/>
   </g>
   <line stroke-width="0.3" x1="41.99" y1="45.723" x2="44.54" y2="45.601"/>
   <line stroke-width="0.3" x1="47.091" y1="45.479" x2="48.914" y2="45.393"/>
   <line stroke-width="0.3" x1="42.04" y1="46.521" x2="44.572" y2="46.399"/>
   <line stroke-width="0.3" x1="47.079" y1="46.28" x2="49.012" y2="46.195"/>
   <line stroke-width="0.3" x1="42.225" y1="49.401" x2="49.247" y2="49.06"/>
   <line stroke-width="0.3" x1="42.274" y1="50.197" x2="49.149" y2="49.868"/>
   <g>
    <path stroke-width="0.3" d="M41.883 45.722C41.003 45.801 40.307 46.484 40.1 47.39"/>
    <path stroke-width="0.3" d="M40.043 48.015C40.054 48.27 40.101 48.515 40.176 48.725"/>
    <path stroke-width="0.3" d="M40.462 49.292C40.902 49.936 41.591 50.253 42.274 50.197"/>
    <path stroke-width="0.3" d="M42.124 45.718C42.039 45.713 41.954 45.716 41.883 45.722"/>
   </g>
   <g>
    <path stroke-width="0.3" d="M42.04 46.521C41.539 46.576 41.139 46.936 40.969 47.426"/>
    <path stroke-width="0.3" d="M40.887 47.988C40.895 48.179 40.936 48.362 41 48.518"/>
    <path stroke-width="0.3" d="M41.369 49.057C41.619 49.286 41.92 49.399 42.216 49.402"/>
   </g>
   <g>
    <path stroke-width="0.3" d="M49.067 49.871C49.152 49.875 49.234 49.872 49.307 49.865C50.426 49.768 51.246 48.686 51.137 47.451C51.029 46.216 50.033 45.293 48.914 45.393"/>
   </g>
   <g>
    <path stroke-width="0.3" d="M49.225 49.064C49.912 48.945 50.378 48.255 50.298 47.496C50.213 46.731 49.606 46.165 48.914 46.195"/>
   </g>
   <path stroke-width="0.13" d="M43.588 48.777C43.127 48.496 43.057 46.993 43.432 46.781C43.808 46.57 44.02 46.594 44.02 46.594"/>
   <path stroke-width="0.13" d="M41.801 54.96C41.801 55.612 41.743 55.966 41.743 56.676C41.743 57.387 41.743 57.92 42.097 57.743"/>
   <path stroke-width="0.3" d="M42.097 57.743C42.393 57.564 42.868 57.447 43.341 57.506C43.814 57.564 46.241 57.86 46.597 57.86C46.951 57.86 47.247 57.624 47.484 57.447C47.722 57.268 47.722 56.558 47.78 56.143C47.84 55.729 47.78 53.479 47.78 52.948C47.78 52.414 47.648 52.237 46.5 52.118"/>
   <line stroke-width="0.3" x1="44.557" y1="54.96" x2="42.631" y2="54.664"/>
   <line stroke-width="0.13" x1="42.631" y1="54.664" x2="42.637" y2="54.473"/>
   <line stroke-width="0.3" x1="42.734" y1="51.962" x2="42.802" y2="50.171"/>
   <line stroke-width="0.13" x1="44.289" y1="55.375" x2="42.097" y2="54.96"/>
   <path stroke-width="0.13" d="M46.5 52.533C46.951 52.591 47.13 52.948 47.13 53.362C47.13 53.776 47.07 56.735 47.07 56.914C47.07 57.091 46.89 57.88 46.597 57.86"/>
   <g>
    <path stroke-width="0.13" d="M36.859 53.776C37.368 53.747 37.755 53.247 37.722 52.659C37.72 52.628 37.718 52.595 37.713 52.569"/>
    <path stroke-width="0.13" d="M37.484 52.006C37.287 51.753 37.012 51.631 36.74 51.645C36.231 51.673 35.844 52.173 35.877 52.762C35.909 53.35 36.348 53.804 36.859 53.776"/>
   </g>
   <polyline stroke-width="0.13" points="36.799 53.42 37.332 53.066 37.332 52.356 36.799 52 36.267 52.356"/>
   <line stroke-width="0.13" x1="36.267" y1="53.066" x2="36.799" y2="53.42"/>
   <g>
    <path stroke-width="0.13" d="M37.298 53.838C37.808 53.811 38.195 53.31 38.162 52.722C38.13 52.134 37.689 51.679 37.18 51.707"/>
   </g>
   <line stroke-width="0.13" x1="37.298" y1="53.838" x2="36.859" y2="53.776"/>
   <line stroke-width="0.13" x1="37.18" y1="51.707" x2="36.74" y2="51.645"/>
   <g>
    <path stroke-width="0.3" d="M37.28 54.368C37.661 54.359 38.003 54.17 38.244 53.875"/>
    <path stroke-width="0.13" d="M38.244 53.875C38.506 53.557 38.631 53.146 38.621 52.737C38.597 51.856 37.96 51.158 37.198 51.179"/>
    <path stroke-width="0.3" d="M37.198 51.179C36.435 51.198 35.835 51.929 35.859 52.808C35.881 53.689 36.518 54.387 37.28 54.368"/>
    <path stroke="none" fill="#000000" d="M38.151 53.771C38.387 53.484 38.573 53.109 38.564 52.74L38.676 52.737C38.689 53.182 38.625 53.631 38.34 53.979L38.151 53.771z"/>
    <path stroke="none" fill="#000000" d="M38.149 51.667C37.881 51.375 37.54 51.32 37.201 51.329L37.195 51.029C37.563 51.02 37.936 51.256 38.225 51.573L38.149 51.667z"/>
   </g>
   <g>
    <path stroke-width="0.3" d="M38.993 53.121C39.021 52.957 39.027 52.793 39.015 52.648C38.945 51.722 38.24 51.021 37.438 51.081C37.271 51.093 37.112 51.137 36.976 51.204"/>
   </g>
   <g>
    <path stroke-width="0.3" d="M37.17 57.597C37.854 57.546 38.387 56.957 38.487 56.198"/>
    <path stroke-width="0.3" d="M35.646 55.42C35.506 55.969 35.627 56.542 35.926 56.968"/>
    <path stroke-width="0.3" d="M36.601 57.509C36.795 57.585 36.991 57.612 37.17 57.597"/>
   </g>
   <line stroke-width="0.3" x1="38.997" y1="53.085" x2="38.487" y2="56.198"/>
   <line stroke-width="0.3" x1="38.259" y1="54.249" x2="37.963" y2="56.057"/>
   <line stroke-width="0.3" x1="36.412" y1="54.045" x2="36.131" y2="55.765"/>
   <line stroke-width="0.3" x1="35.982" y1="53.426" x2="35.646" y2="55.42"/>
   <g>
    <path stroke-width="0.3" d="M36.981 56.99C37.468 57.02 37.893 56.609 37.963 56.057"/>
    <path stroke-width="0.3" d="M36.139 55.716C36.09 55.979 36.13 56.24 36.234 56.454"/>
    <path stroke-width="0.3" d="M36.945 56.987C36.957 56.988 36.97 56.99 36.981 56.99"/>
   </g>
   <line stroke-width="0.13" x1="38.259" y1="54.249" x2="38.362" y2="53.713"/>
   <line stroke-width="0.3" x1="38.82" y1="54.162" x2="44.557" y2="54.631"/>
   <line stroke-width="0.3" x1="38.619" y1="51.625" x2="44.557" y2="52.11"/>
   <path stroke-width="0.3" d="M37.816 56.503C37.634 56.161 37.521 55.923 37.045 55.921C36.57 55.92 35.783 56.743 35.747 57.737C35.713 58.731 35.576 61.234 35.576 61.439C35.576 61.645 35.817 62.399 36.296 62.399C36.503 62.399 36.78 62.335 37.033 62.167"/>
   <path stroke-width="0.3" d="M37.588 61.384C37.634 61.231 37.661 61.055 37.667 60.856C37.701 59.656 37.845 57.344 37.845 57.344"/>
   <path stroke-width="0.3" d="M37.154 56.811C36.981 56.881 36.536 57.429 36.468 57.944C36.399 58.457 36.262 61.063 36.296 61.268C36.331 61.473 36.433 61.645 36.64 61.645"/>
   <line stroke-width="0.3" x1="37.051" y1="57.6" x2="36.914" y2="60.89"/>
   <path stroke-width="0.3" d="M35.588 61.136C35.2 61.405 35.302 62.433 35.234 63.222C35.165 64.01 35.097 65.278 35.131 65.519C35.165 65.759 35.268 65.963 35.268 65.963"/>
   <line stroke-width="0.3" x1="35.975" y1="62.273" x2="35.92" y2="65.45"/>
   <path stroke-width="0.3" d="M36.64 61.645C36.878 61.713 37.118 61.987 37.085 62.914C37.051 63.838 36.844 65.587 36.811 65.759C36.777 65.93 36.604 66.17 36.365 66.239"/>
   <path stroke-width="0.3" d="M36.301 60.686C36.64 60.719 37.874 61.097 37.838 62.159C37.804 63.222 37.701 65.039 37.667 65.313C37.634 65.587 37.427 66.924 36.604 66.89C35.783 66.855 35.747 66.718 35.747 66.718"/>
   <path stroke-width="0.3" d="M36.862 65.376C36.476 65.275 35.079 65.438 34.884 66.575C34.691 67.712 34.82 70.051 34.853 70.376C34.884 70.7 35.372 71.286 36.216 71.156"/>
   <path stroke-width="0.3" d="M36.365 66.239C36.087 66.186 35.664 66.673 35.633 67.128C35.6 67.581 35.567 69.855 35.633 70.019C35.698 70.18 35.762 70.278 35.762 70.278"/>
   <path stroke-width="0.3" d="M35.6 69.533C35.859 69.498 36.932 69.661 36.963 70.992C36.996 72.325 36.996 73.462 36.963 73.917C36.932 74.371 36.963 75.411 36.281 75.444C35.6 75.475 35.438 75.021 35.438 75.021"/>
   <path stroke-width="0.3" d="M35.762 70.278C36.054 70.474 36.216 70.831 36.216 71.48C36.216 72.129 36.185 74.111 36.152 74.436C36.119 74.76 36.021 74.924 35.924 74.956"/>
   <path stroke-width="0.3" d="M35 70.71C35.017 70.73 34.917 73.625 34.917 73.625C34.917 73.625 34.95 74.209 34.982 74.274"/>
   <path stroke-width="0.3" d="M35.829 71.165L35.737 73.959"/>
   <line stroke-width="0.3" x1="36.604" y1="66.89" x2="36.542" y2="69.465"/>
   <path stroke-width="0.3" d="M36.542 69.465C36.542 69.563 36.436 69.801 36.436 69.801"/>
   <path stroke-width="0.3" d="M37.353 66.379C37.256 68.231 37.387 69.433 37.353 69.694C37.322 69.953 37.302 70.638 36.954 70.831"/>
   <path stroke-width="0.3" d="M37.289 76.256C37.289 76.256 37.353 75.509 37.353 75.183C37.353 75.003 37.213 74.661 36.936 74.382"/>
   <path stroke-width="0.3" d="M36.174 73.968C36.125 73.959 36.075 73.953 36.021 73.948C35.145 73.884 34.301 74.728 34.235 75.215C34.17 75.703 34.137 77.912 34.137 78.236C34.137 78.525 34.545 79.243 35.29 79.338"/>
   <path stroke-width="0.3" d="M36.036 79.245C36.72 79.01 37.137 78.421 37.192 77.879C37.256 77.23 37.289 76.256 37.289 76.256"/>
   <path stroke-width="0.3" d="M36.502 76.191L36.518 75.987C36.518 75.987 36.546 75.612 36.558 75.355"/>
   <path stroke-width="0.3" d="M36.084 74.757C36.045 74.746 36.006 74.739 35.963 74.736C35.725 74.718 35.497 74.847 35.319 74.992C35.176 75.105 35.033 75.215 35.018 75.32C34.956 75.79 34.927 77.924 34.927 78.236C34.927 78.278 35.006 78.319 35.067 78.382C35.112 78.429 35.167 78.472 35.229 78.506C35.244 78.513 35.259 78.519 35.274 78.525"/>
   <path stroke-width="0.3" d="M36.127 78.296C36.188 78.242 36.24 78.182 36.283 78.117C36.35 78.016 36.395 77.908 36.405 77.801C36.448 77.382 36.475 76.823 36.49 76.498L36.488 76.501L36.5 76.224"/>
   <path stroke-width="0.3" d="M35.277 77.944C35.229 78.18 35.375 82.388 35.421 82.766C35.469 83.144 35.658 83.237 35.987 83.191C36.186 83.162 36.351 82.808 36.441 82.343"/>
   <path stroke-width="0.3" d="M36.512 81.65C36.514 81.551 36.512 81.45 36.506 81.35C36.46 80.501 36.49 79.015 36.49 79.015"/>
   <path stroke-width="0.3" d="M36.131 78.292C35.956 78.42 36.039 81.974 36.176 82.388"/>
   <path stroke-width="0.3" d="M35.36 81.539C34.761 81.775 34.289 82.012 34.289 82.719C34.289 83.427 34.573 84.37 34.619 84.653C34.649 84.826 35.049 85.001 35.52 85.055"/>
   <path stroke-width="0.3" d="M36.412 84.983C37.119 84.748 37.497 84.418 37.451 83.852C37.402 83.286 37.262 82.531 37.167 82.2C37.097 81.956 36.701 81.632 36.085 81.54"/>
   <path stroke-width="0.3" d="M35.414 82.246C35.28 82.302 35.158 82.362 35.063 82.447L35.003 82.519C34.975 82.572 34.966 82.638 34.966 82.719C34.966 83.194 35.113 83.784 35.204 84.162C35.216 84.213 35.228 84.263 35.238 84.308"/>
   <path stroke-width="0.3" d="M35.283 84.519L35.283 84.519z"/>
   <path stroke-width="0.3" d="M35.237 84.308C35.329 84.34 35.448 84.362 35.575 84.379C35.662 84.39 35.753 84.397 35.845 84.394"/>
   <path stroke-width="0.3" d="M36.579 84.197C36.664 84.153 36.728 84.097 36.764 84.021C36.779 83.987 36.779 83.95 36.776 83.908C36.731 83.387 36.603 82.691 36.515 82.387C36.503 82.343 36.414 82.346 36.332 82.308C36.276 82.284 36.213 82.26 36.146 82.242"/>
   <path stroke-width="0.3" d="M35.664 83.173C35.664 83.173 35.481 83.816 35.335 84.335"/>
   <path stroke-width="0.3" d="M35.152 84.984L35.152 84.984C35.152 84.984 34.902 85.832 35.328 85.927C35.752 86.022 36.317 85.549 36.412 84.983C36.506 84.418 36.738 83.569 36.738 83.569"/>
   <path stroke-width="0.3" d="M35.987 83.191L35.845 84.394C35.845 84.394 35.56 85.179 35.328 85.219"/>
   <path stroke-width="0.3" d="M36.482 80.503C37.119 80.501 37.262 80.831 37.262 81.304C37.262 81.462 37.203 81.766 37.125 82.102"/>
   <path stroke-width="0.3" d="M35.277 77.944C35.328 77.843 35.404 77.716 35.606 77.641C35.807 77.564 36.296 77.481 36.405 77.801"/>
   <path stroke-width="0.3" d="M37.125 82.102C37.816 81.984 38.32 80.823 38.421 80.317C38.491 79.969 38.969 78.421 38.664 77.376"/>
   <path stroke-width="0.3" d="M38.122 76.605C37.994 76.524 37.843 76.462 37.664 76.429"/>
   <path stroke-width="0.3" d="M37.192 77.879C37.765 77.894 38.624 77.894 38.926 76.832C39.229 75.772 39.331 74.155 39.381 73.549C39.423 73.046 39.154 72.545 38.572 72.358"/>
   <path stroke-width="0.3" d="M37.655 72.329C37.179 72.45 36.988 72.777 36.988 72.893"/>
   <path stroke-width="0.3" d="M37.765 77.186C37.664 77.135 37.243 77.228 37.231 77.382"/>
   <path stroke-width="0.3" d="M37.664 76.429C37.512 76.328 37.279 76.525 37.279 76.525"/>
   <path stroke-width="0.3" d="M37.765 77.186C37.966 77.034 38.27 76.378 38.371 75.721C38.472 75.064 38.573 73.346 38.523 73.245"/>
   <path stroke-width="0.3" d="M38.536 73.548C38.526 73.855 37.765 73.802 37.664 73.397C37.563 72.993 37.816 69.861 37.816 69.861"/>
   <line stroke-width="0.3" x1="37.664" y1="73.397" x2="37.332" y2="75.034"/>
   <path stroke-width="0.3" d="M37.942 77.828C38.018 78.246 37.673 80.534 37.189 80.855"/>
   <path stroke-width="0.3" d="M37.816 69.861C37.816 69.861 37.865 69.406 37.917 68.801C37.966 68.194 38.219 68.043 38.472 68.043C38.642 68.043 38.948 67.974 39.085 68.48"/>
   <path stroke-width="0.3" d="M39.146 69.447C39.143 69.53 39.137 69.617 39.128 69.709C38.978 71.528 38.884 72.507 38.884 72.507"/>
   <line stroke-width="0.3" x1="38.776" y1="68.599" x2="38.523" y2="73.245"/>
   <path stroke-width="0.3" d="M37.728 64.451C37.832 64.32 37.956 64.219 38.09 64.144"/>
   <path stroke-width="0.3" d="M39.018 63.936C39.076 63.939 39.131 63.944 39.179 63.951C39.533 64.001 40.442 64.305 40.29 65.567C40.14 66.831 40.088 68.144 39.936 68.599C39.786 69.052 39.429 69.456 38.722 69.558"/>
   <path stroke-width="0.3" d="M38.381 64.959C38.418 64.909 38.469 64.876 38.52 64.849C38.557 64.831 38.595 64.816 38.634 64.802"/>
   <path stroke-width="0.3" d="M39.469 65.134C39.487 65.227 39.487 65.338 39.472 65.468L39.331 66.882C39.273 67.533 39.238 68.084 39.155 68.337C39.112 68.463 39.034 68.584 38.893 68.656C38.854 68.677 38.814 68.692 38.77 68.706"/>
   <path stroke-width="0.3" d="M38.381 64.959C38.067 65.415 38.018 66.881 37.966 67.436C37.917 67.992 37.973 68.474 37.966 68.496"/>
   <path stroke-width="0.3" d="M37.337 68.852C37.35 69.206 37.645 69.415 37.856 69.462"/>
   <path stroke-width="0.3" d="M38.381 64.959C38.381 64.959 38.737 65.29 38.883 65.326C39.03 65.364 39.543 65.326 39.543 64.887C39.543 64.447 38.451 63.231 37.823 62.573"/>
   <line stroke-width="0.3" x1="38.634" y1="64.802" x2="37.768" y2="63.756"/>
   <line stroke-width="0.3" x1="37.085" y1="62.932" x2="36.609" y2="62.356"/>
   <line stroke-width="0.3" x1="37.814" y1="64.353" x2="37.74" y2="64.274"/>
   <line stroke-width="0.3" x1="37.048" y1="63.536" x2="35.972" y2="62.39"/>
   <path stroke-width="0.3" d="M35.27 62.396C34.847 62.24 34.445 62.179 34.384 60.942C34.322 59.704 34.414 58.405 34.414 58.034C34.414 57.662 34.723 57.323 34.97 57.229"/>
   <path stroke-width="0.3" d="M35.328 61.682C35.289 61.67 35.252 61.655 35.222 61.618C35.203 61.591 35.188 61.555 35.173 61.511C35.124 61.365 35.095 61.17 35.082 60.906C35.06 60.463 35.058 60.011 35.066 59.598"/>
   <g>
    <path stroke-width="0.13" d="M35.844 57.188C35.125 57.24 34.579 57.838 34.576 58.551C34.576 59.201 35.031 59.746 35.649 59.886"/>
    <path stroke-width="0.13" d="M36.337 59.859C36.595 59.783 36.814 59.634 36.973 59.448"/>
   </g>
   <g>
    <path stroke-width="0.13" d="M37.03 58.07C36.911 57.878 36.728 57.75 36.527 57.695"/>
    <path stroke-width="0.13" d="M35.743 57.878C35.551 58.046 35.454 58.281 35.453 58.52C35.453 58.747 35.542 58.954 35.688 59.106"/>
    <path stroke-width="0.13" d="M36.362 59.371C36.621 59.353 36.845 59.222 36.99 59.027"/>
   </g>
   <g>
    <path stroke-width="0.13" d="M35.749 57.72C35.357 57.813 35.094 58.161 35.091 58.551C35.091 58.926 35.332 59.244 35.676 59.36"/>
   </g>
   <path stroke-width="0.13" d="M34.97 57.229C35.079 57.073 35.142 56.317 35.142 56.317L35.362 56.128L35.298 54.493L35.814 54.423"/>
   <line stroke-width="0.13" x1="36.432" y1="56.097" x2="36.35" y2="54.421"/>
   <path stroke-width="0.3" d="M40.201 48.716C39.271 49.064 37.347 49.13 36.353 48.798C35.929 48.656 35.158 48.822 34.487 49.131C34.024 49.347 33.603 49.636 33.398 49.976C33.328 50.093 33.284 50.213 33.284 50.34L33.276 50.86C33.265 51.273 33.25 51.619 33.331 51.89C33.356 51.973 33.392 52.048 33.445 52.112C33.527 52.207 33.649 52.271 33.819 52.317C34.53 52.506 35.386 53.119 35.81 53.661C35.85 53.712 35.886 53.762 35.917 53.814"/>
   <path stroke-width="0.3" d="M39.991 48.158C39.158 48.469 37.433 48.53 36.542 48.232C36.021 48.058 35.061 48.209 34.237 48.591C33.655 48.86 33.146 49.24 32.887 49.668C32.759 49.881 32.689 50.107 32.689 50.34L32.689 50.335L32.679 50.848L32.68 50.847C32.667 51.332 32.664 51.74 32.759 52.06C32.81 52.228 32.884 52.374 32.993 52.5C33.142 52.673 33.353 52.81 33.664 52.893C34.265 53.052 34.984 53.573 35.341 54.029C35.445 54.164 35.533 54.277 35.521 54.374"/>
   <path stroke-width="0.3" d="M36.975 48.338C36.719 48.255 36.487 48.17 36.307 48.095C35.85 47.905 35.039 47.899 34.469 48.156C34.265 48.247 34.093 48.372 34.003 48.552C33.972 48.615 33.945 48.682 33.921 48.753"/>
   <path stroke-width="0.3" d="M33.822 49.526C33.831 50.107 33.996 50.712 34.237 51.088C34.396 51.341 34.655 51.594 34.911 51.853C35.235 52.177 35.557 52.508 35.749 52.834C35.85 53.006 35.917 53.179 35.942 53.351"/>
   <path stroke-width="0.3" d="M39.329 48.158C38.856 48.216 37.295 47.72 36.587 47.424C35.987 47.174 34.918 47.155 34.168 47.494C33.805 47.659 33.515 47.905 33.353 48.226C33.207 48.518 33.127 48.863 33.103 49.228C33.098 49.281 33.097 49.335 33.095 49.39"/>
   <path stroke-width="0.3" d="M33.279 50.692C33.369 50.993 33.487 51.265 33.624 51.478C33.808 51.77 34.1 52.067 34.398 52.365C34.533 52.5 34.668 52.636 34.792 52.771"/>
   <path stroke-width="0.3" d="M39.347 48.323C39.347 48.323 39.243 47.856 39.527 47.655C39.81 47.456 40.06 47.323 40.558 47.39C41.058 47.456 41.158 47.372 41.174 47.622C41.192 47.872 41.204 48.283 40.914 48.228"/>
   <path stroke-width="0.13" d="M40.887 47.972C40.625 47.905 39.957 47.844 39.991 48.158"/>
   <path stroke-width="0.3" d="M39.543 48.89C39.71 49.204 40.042 49.338 40.526 49.287C41.009 49.237 41.357 49.137 41.424 48.987C41.49 48.838 41.5 48.38 40.945 48.359"/>
   <path stroke-width="0.13" d="M41 48.518C40.959 48.671 40.475 48.811 40.201 48.716"/>
   <g>
    <path stroke-width="0.13" d="M55.139 87.299C56.07 87.867 57.356 87.454 58.011 86.379C58.665 85.305 58.442 83.972 57.511 83.406"/>
    <path stroke-width="0.3" d="M57.511 83.406C56.579 82.838 55.293 83.25 54.639 84.325C53.984 85.4 54.207 86.731 55.139 87.299"/>
    <path stroke="none" fill="#000000" d="M58.298 84.721C58.203 84.156 57.851 83.79 57.432 83.534L57.588 83.278C58.033 83.548 58.313 84.087 58.414 84.683L58.298 84.721z"/>
    <path stroke="none" fill="#000000" d="M55.216 87.171C55.652 87.436 56.182 87.551 56.667 87.396L56.688 87.515C56.134 87.692 55.557 87.73 55.06 87.427L55.216 87.171z"/>
   </g>
   <g>
    <path stroke-width="0.3" d="M54.53 88.454C56.014 89.313 58.021 88.62 59.012 86.906C60.003 85.192 59.603 83.108 58.118 82.25"/>
    <path stroke-width="0.13" d="M58.118 82.25C56.636 81.391 54.628 82.084 53.637 83.799C52.646 85.512 53.046 87.596 54.53 88.454"/>
    <path stroke="none" fill="#000000" d="M58.043 82.379C57.332 81.968 56.481 81.85 55.704 82.12L55.682 82C56.527 81.707 57.421 81.673 58.195 82.12L58.043 82.379z"/>
    <path stroke="none" fill="#000000" d="M53.213 86.427C53.384 87.319 53.929 87.935 54.606 88.325L54.454 88.584C53.755 88.18 53.276 87.393 53.098 86.466L53.213 86.427z"/>
   </g>
   <g>
    <path stroke-width="0.13" d="M53.557 78.599C52.073 77.742 50.067 78.435 49.076 80.149C48.085 81.861 48.484 83.947 49.968 84.805"/>
   </g>
   <line stroke-width="0.3" x1="49.968" y1="84.805" x2="54.53" y2="88.454"/>
   <line stroke-width="0.3" x1="53.557" y1="78.599" x2="58.119" y2="82.25"/>
   <g>
    <path stroke-width="0.13" d="M54.904 87.123C55.835 87.689 57.119 87.278 57.776 86.203C58.365 85.236 58.243 84.061 57.524 83.415"/>
   </g>
   <path stroke-width="0.13" d="M42.176 68.555C42.936 69.26 43.533 69.206 44.238 69.153C44.944 69.097 45.161 68.989 45.758 69.097C46.354 69.206 47.82 69.477 47.82 69.477"/>
   <line stroke-width="0.13" x1="48.362" y1="69.477" x2="53.68" y2="68.664"/>
   <line stroke-width="0.13" x1="48.146" y1="70.021" x2="47.195" y2="85.284"/>
   <line stroke-width="0.13" x1="45.018" y1="69.457" x2="44.353" y2="84.203"/>
   <path stroke-width="0.3" d="M42.386 57.609C42.386 57.609 41.829 66.625 41.829 67.189C41.829 67.754 41.904 68.328 42.176 68.555"/>
   <line stroke-width="0.13" x1="41.88" y1="66.115" x2="42.534" y2="65.635"/>
   <path stroke-width="0.3" d="M41.929 65.218C41.929 65.218 43.807 66.436 44.229 66.671C44.654 66.906 45.878 67.189 46.725 67.236C47.573 67.284 49.691 67.661 50.868 67.661C52.045 67.661 53.645 67.942 53.975 68.225"/>
   <path stroke-width="0.3" d="M45.02 66.951C45.665 68.225 48.96 68.507 49.055 68.507C49.149 68.507 52.506 68.509 53.039 67.896"/>
   <path stroke-width="0.3" d="M52.584 68.147C53.878 68.263 54.076 68.462 54.445 68.917C54.814 69.37 55.439 69.712 55.75 69.796C56.064 69.882 57.411 71.018 57.695 72.381C57.979 73.742 56.979 81.338 56.945 81.311"/>
   <path stroke-width="0.13" d="M56.929 69.597C58.405 70.733 59.427 72.209 59.314 73.914C59.201 75.617 58.405 81.977 58.405 81.977"/>
   <path stroke-width="0.13" d="M55.34 64.602C56.021 66.646 57.198 68.49 56.475 69.144"/>
   <path stroke-width="0.3" d="M45.295 57.737C45.932 58.465 46.057 60.109 45.994 60.615"/>
   <path stroke-width="0.3" d="M47.621 57.231C48.207 58.021 48.207 60.234 48.207 60.615"/>
   <line stroke-width="0.3" x1="48.207" y1="60.615" x2="51.875" y2="62.575"/>
   <path stroke-width="0.3" d="M45.981 59.789C45.488 60.045 44.982 60.109 45.109 61.436"/>
   <path stroke-width="0.3" d="M45.101 60.802C44.856 60.993 44.792 61.31 45.298 61.627C45.804 61.942 48.335 62.637 49.725 62.701C51.116 62.765 52.317 62.512 52.445 62.512"/>
   <path stroke-width="0.13" d="M42.454 61.436C43.338 62.069 44.792 62.701 45.551 62.828C46.31 62.954 48.018 63.271 48.588 63.334C49.156 63.396 50.926 63.587 51.875 63.587C52.823 63.587 53.204 63.524 54.152 63.902C55.1 64.281 55.1 64.346 55.1 64.346"/>
   <g>
    <path stroke-width="0.3" d="M42.183 60.92C42.643 60.487 44.097 59.981 44.54 59.603C44.982 59.223 44.982 59.159 44.476 58.908"/>
    <path stroke-width="0.13" d="M44.476 58.908C43.97 58.655 42.77 57.768 42.77 57.768"/>
   </g>
   <path stroke-width="0.13" d="M49.978 62.006C47.765 62.006 45.11 61.52 45.173 60.466"/>
   <path stroke-width="0.13" d="M45.994 60.615C46.023 60.808 46.392 61.003 46.823 61.085"/>
   <path stroke-width="0.13" d="M47.814 61.02C47.996 60.939 48.139 60.808 48.207 60.615"/>
   <g>
    <path stroke-width="0.13" d="M49.81 94.375C50.591 94.186 50.862 92.533 50.415 90.683C49.969 88.834 48.973 87.487 48.192 87.677C47.866 87.754 47.631 88.085 47.499 88.57"/>
    <path stroke-width="0.13" d="M48.72 93.822C49.112 94.278 49.493 94.453 49.81 94.375"/>
   </g>
   <polygon stroke-width="0.13" points="47.74 93.998 48.421 92.474 47.857 89.84 46.612 88.73 45.929 90.254 46.493 92.888 47.74 93.998"/>
   <polyline stroke-width="0.13" points="49.191 93.737 49.872 92.213 49.307 89.579 48.061 88.469"/>
   <line stroke-width="0.13" x1="48.061" y1="88.469" x2="46.612" y2="88.73"/>
   <line stroke-width="0.13" x1="49.191" y1="93.737" x2="47.74" y2="93.998"/>
   <path stroke-width="0.13" d="M40.049 85.789C40.451 88.144 40.509 90.212 41.142 90.959C41.774 91.706 42.347 92.453 43.496 92.567C44.646 92.683 44.646 92.683 44.646 92.683"/>
   <path stroke-width="0.13" d="M40.567 85.731C40.969 88.087 41.027 89.638 41.429 90.269C41.831 90.902 42.463 91.82 43.21 91.763"/>
   <path stroke-width="0.13" d="M42.865 87.513C43.094 89.179 43.094 90.5 43.325 90.959C43.554 91.418 43.612 91.304 44.072 91.361"/>
   <path stroke-width="0.13" d="M43.21 91.763C43.612 91.82 44.588 91.188 44.761 90.328C44.932 89.465 45.219 85.674 45.219 85.674"/>
   <path stroke-width="0.13" d="M43.03 92.48C44.072 92.281 44.761 92.051 45.106 90.73C45.45 89.408 45.45 89.408 45.45 89.408"/>
   <path stroke-width="0.13" d="M45.219 85.674C45.219 85.674 45.776 85.197 45.908 85.231"/>
   <line stroke-width="0.13" x1="42.137" y1="85.231" x2="42.146" y2="86.707"/>
   <line stroke-width="0.13" x1="42.146" y1="86.707" x2="43.698" y2="88.201"/>
   <line stroke-width="0.13" x1="43.698" y1="88.201" x2="44.939" y2="88.9"/>
   <line stroke-width="0.13" x1="43.698" y1="88.201" x2="43.813" y2="85.156"/>
   <path stroke-width="0.13" d="M45.478 86.65L45.536 85.962C45.536 85.962 46.743 85.444 47.546 86.134C48.35 86.822 50.707 88.948 50.936 89.293C51.165 89.638 51.567 90.04 51.338 90.614C51.109 91.188 51.109 92.855 51.74 93.028C52.372 93.2 54.326 93.486 55.13 93.028C55.933 92.567 59.323 89.753 59.898 89.522C60.472 89.293 60.875 88.948 61.161 89.465"/>
   <path stroke-width="0.13" d="M47.981 85.423C47.981 85.423 51.511 88.834 51.625 88.891C51.74 88.948 52.143 89.753 52.143 90.902C52.143 92.051 51.798 92.625 52.774 92.625C53.75 92.625 54.268 93.084 56.222 91.477C58.174 89.867 59.667 88.891 60.07 88.891C60.472 88.891 61.046 89.236 61.161 89.465"/>
   <path stroke-width="0.13" d="M21.579 67.325C20.792 69.125 20.455 75.757 20.568 79.242C20.681 82.727 21.242 93.07 21.579 94.757C21.917 96.442 22.141 97.454 22.141 97.454"/>
   <line stroke-width="0.13" x1="22.03" y1="68.112" x2="25.402" y2="73.846"/>
   <path stroke-width="0.13" d="M25.626 76.207C25.626 80.254 26.638 92.171 28.324 94.757"/>
   <path stroke-width="0.13" d="M34.731 86.578C34.845 89.135 37.993 96.218 39.229 97.566"/>
   <g>
    <path stroke-width="0.13" d="M22.704 88.012C23.425 87.995 23.937 84.609 23.844 80.45C23.751 76.29 23.089 72.93 22.367 72.947C21.765 72.96 21.312 75.308 21.228 78.548"/>
    <path stroke-width="0.13" d="M21.722 85.789C22.012 87.278 22.365 88.019 22.704 88.012"/>
   </g>
   <g>
    <path stroke-width="0.13" d="M23.079 74.057C22.673 75.418 22.483 77.996 22.539 80.704C22.6 83.399 22.899 85.757 23.303 87.099"/>
   </g>
   <path stroke-width="0.13" d="M21.579 67.325C21.612 66.724 23.007 66.141 23.123 66.141"/>
   <path stroke-width="0.13" d="M21.631 67.141C21.631 67.141 20.565 65.037 20.565 64.106C20.565 63.176 20.449 61.722 20.449 61.722C20.449 61.722 21.03 61.49 21.146 61.722C21.263 61.956 22.019 61.838 22.019 61.838L22.484 62.014L22.6 61.664L23.123 61.664L23.298 62.014L23.937 61.78C23.937 61.78 23.995 56.374 23.937 55.21C23.879 54.048 23.951 46.383 24.147 45.738"/>
   <line stroke-width="0.13" x1="24.286" y1="52.07" x2="26.032" y2="51.49"/>
   <line stroke-width="0.13" x1="24.17" y1="56.548" x2="25.507" y2="60.094"/>
   <line stroke-width="0.13" x1="25.391" y1="52.42" x2="25.391" y2="57.072"/>
   <line stroke-width="0.13" x1="24.635" y1="52.652" x2="24.635" y2="53.874"/>
   <path stroke-width="0.13" d="M23.937 61.78C24.216 63.295 25.626 65.415 26.062 65.528"/>
   <path stroke-width="0.13" d="M22.413 65.7C22.832 65.941 24.637 67.082 24.937 67.263C25.237 67.442 25.599 67.442 25.599 67.442L26.019 67.757"/>
   <path stroke-width="0.13" d="M22.484 62.014C22.893 62.875 23.434 65.7 25.237 66.781"/>
   <path stroke-width="0.13" d="M23.298 62.014C23.734 64.197 25.344 66.14 26.042 66.551"/>
   <line stroke-width="0.13" x1="20.46" y1="61.862" x2="21.751" y2="64.498"/>
   <path stroke-width="0.13" d="M22.856 36.359C22.98 33.936 23.222 31.873 24.678 30.78"/>
   <path stroke-width="0.13" d="M24.678 30.78C26.3 29.442 28.003 27.734 29.384 25.324"/>
   <path stroke-width="0.13" d="M30.74 22.405C31.132 21.344 31.463 20.178 31.716 18.89C32.929 12.702 33.656 9.061 33.656 9.061"/>
   <path stroke-width="0.13" d="M25.527 35.756C25.407 33.329 26.984 31.629 28.318 30.053C29.652 28.475 29.652 28.475 29.652 28.475"/>
   <path stroke-width="0.13" d="M27.347 36.418C27.105 34.542 28.803 31.024 30.381 29.082"/>
   <path stroke-width="0.13" d="M32.539 24.021C33.301 22.836 35.389 14.757 35.902 5.79"/>
   <path stroke-width="0.13" d="M31.652 19.207C30.097 19.07 28.64 18.173 28.08 15.374"/>
   <path stroke-width="0.13" d="M32.337 15.727C32.337 15.727 27.969 15.486 26.065 14.926C24.161 14.365 22.033 12.461 21.585 11.566C21.137 10.669 21.361 7.87 22.257 6.525C23.152 5.182 23.713 2.942 23.489 0.478"/>
   <path stroke-width="0.13" d="M33.656 9.061C33.692 7.742 36.768 4.799 38.372 3.597C39.978 2.392 42.25 0.789 42.25 0.789"/>
   <path stroke-width="0.13" d="M32.488 14.957C29.414 14.025 27.809 13.224 27.675 11.887C27.542 10.548 27.542 9.746 29.146 8.143C30.751 6.538 37.036 0.655 37.036 0.655"/>
   <path stroke-width="0.13" d="M30.359 6.963C27.675 5.735 26.338 4.532 26.338 0.387"/>
   <path stroke-width="0.13" d="M57.317 0.488C56.406 1.788 55.627 8.028 55.366 10.499C55.106 12.968 54.457 17.259 57.317 16.868C60.177 16.478 74.478 13.749 74.349 13.878"/>
   <path stroke-width="0.13" d="M55.819 0.63C55.195 2.408 54.625 5.889 54.289 8.422"/>
   <path stroke-width="0.13" d="M53.801 14.01C53.81 14.394 53.837 14.768 53.889 15.114C53.999 15.848 54.223 16.486 54.558 16.975C54.875 17.434 55.286 17.782 55.804 17.993C56.264 18.182 56.82 18.269 57.496 18.176L74.576 15.179"/>
   <path stroke-width="0.13" d="M34.695 28.699C46.527 27.269 70.058 26.1 74.349 25.71"/>
   <path stroke-width="0.13" d="M34.82 29.728C43.085 28.728 57.073 27.856 66.191 27.291L74.417 26.742"/>
   <polygon stroke-width="0.13" points="43.514 36.088 44.177 35.271 44.265 33.576 43.688 32.697 43.024 33.512 42.936 35.209 43.514 36.088"/>
   <polyline stroke-width="0.13" points="44.731 36.088 45.395 35.271 45.481 33.576 44.905 32.697"/>
   <line stroke-width="0.13" x1="44.905" y1="32.697" x2="43.688" y2="32.697"/>
   <line stroke-width="0.13" x1="44.731" y1="36.088" x2="43.514" y2="36.088"/>
   <g>
    <path stroke-width="0.13" d="M45.014 36.435C45.49 36.456 45.915 35.557 45.963 34.429C46.012 33.301 45.664 32.369 45.188 32.35C45.002 32.341 44.825 32.472 44.676 32.698"/>
    <path stroke-width="0.13" d="M44.558 36.088C44.695 36.317 44.854 36.43 45.014 36.435"/>
   </g>
   <g>
    <path stroke-width="0.13" d="M36.32 34.957C36.523 34.957 36.686 34.569 36.686 34.088C36.686 33.607 36.523 33.219 36.32 33.219C36.232 33.219 36.154 33.289 36.091 33.405"/>
    <path stroke-width="0.13" d="M36.002 34.524C36.07 34.801 36.192 34.956 36.32 34.957"/>
   </g>
   <g>
    <path stroke-width="0.13" d="M36.32 35.697C36.695 35.697 36.999 34.976 36.999 34.088C36.999 34.072 36.999 34.057 36.999 34.042"/>
    <path stroke-width="0.13" d="M36.79 32.929C36.658 32.628 36.488 32.479 36.32 32.479C35.944 32.479 35.64 33.2 35.64 34.088C35.64 34.976 35.944 35.697 36.32 35.697"/>
   </g>
   <g>
    <path stroke-width="0.13" d="M39.841 35.783C40.216 35.783 40.52 35.064 40.52 34.174C40.52 33.286 40.216 32.567 39.841 32.567"/>
    <path stroke-width="0.13" d="M39.826 35.783C39.832 35.783 39.837 35.783 39.841 35.783"/>
   </g>
   <line stroke-width="0.13" x1="39.841" y1="35.783" x2="36.32" y2="35.697"/>
   <line stroke-width="0.13" x1="39.841" y1="32.567" x2="36.32" y2="32.479"/>
   <path stroke-width="0.13" d="M36.798 36.914C37.579 36.914 40.189 37.174 41.579 37.262C42.97 37.348 46.36 37.762 47.057 37.848C47.752 37.936 48.534 37.762 48.534 36.978C48.534 36.197 48.883 35.5 48.969 35.152C49.057 34.805 49.057 34.805 49.838 34.805C50.621 34.805 54.359 34.979 54.533 34.979C54.707 34.979 55.75 34.805 56.012 33.936C56.273 33.067 56.098 31.937 58.098 31.85"/>
   <polygon stroke-width="0.13" points="49.54 40.871 50.243 40.009 50.335 38.219 49.725 37.289 49.024 38.152 48.932 39.942 49.54 40.871"/>
   <polyline stroke-width="0.13" points="50.826 40.871 51.529 40.009 51.621 38.219 51.011 37.289"/>
   <line stroke-width="0.13" x1="51.011" y1="37.289" x2="49.725" y2="37.289"/>
   <line stroke-width="0.13" x1="50.826" y1="40.871" x2="49.54" y2="40.871"/>
   <g>
    <path stroke-width="0.13" d="M51.125 41.238C51.63 41.261 52.079 40.311 52.13 39.119C52.18 37.927 51.813 36.944 51.308 36.921C51.113 36.914 50.926 37.051 50.77 37.289"/>
    <path stroke-width="0.13" d="M50.645 40.871C50.789 41.115 50.959 41.234 51.125 41.238"/>
   </g>
   <polygon stroke-width="0.13" points="53.976 41.161 54.677 40.298 54.77 38.508 54.161 37.579 53.459 38.441 53.366 40.231 53.976 41.161"/>
   <polyline stroke-width="0.13" points="55.262 41.161 55.963 40.298 56.055 38.508 55.447 37.579"/>
   <line stroke-width="0.13" x1="55.447" y1="37.579" x2="54.161" y2="37.579"/>
   <line stroke-width="0.13" x1="55.262" y1="41.161" x2="53.976" y2="41.161"/>
   <g>
    <path stroke-width="0.13" d="M55.561 41.529C56.064 41.549 56.515 40.6 56.564 39.408C56.615 38.216 56.249 37.232 55.744 37.212C55.548 37.203 55.362 37.341 55.204 37.579"/>
    <path stroke-width="0.13" d="M55.079 41.161C55.225 41.405 55.393 41.524 55.561 41.529"/>
   </g>
   <path stroke-width="0.13" d="M50.368 37.289C50.621 36.371 52.277 34.887 52.534 34.898"/>
   <path stroke-width="0.13" d="M50.183 40.871C50.707 41.761 51.752 42.716 52.1 42.978C52.447 43.238 52.969 44.716 53.143 45.759C53.317 46.804 52.881 53.628 52.012 54.671C51.143 55.715 51.49 57.628 51.49 57.628"/>
   <polygon stroke-width="0.13" points="51.212 61.29 51.914 60.429 52.006 58.637 51.396 57.707 50.695 58.57 50.603 60.36 51.212 61.29"/>
   <polyline stroke-width="0.13" points="52.497 61.29 53.2 60.429 53.292 58.637 52.682 57.707"/>
   <line stroke-width="0.13" x1="52.682" y1="57.707" x2="51.396" y2="57.707"/>
   <line stroke-width="0.13" x1="52.497" y1="61.29" x2="51.212" y2="61.29"/>
   <g>
    <path stroke-width="0.13" d="M52.796 61.658C53.301 61.679 53.75 60.729 53.801 59.537C53.851 58.345 53.484 57.362 52.979 57.341C52.784 57.332 52.597 57.47 52.441 57.709"/>
    <path stroke-width="0.13" d="M52.316 61.289C52.46 61.533 52.628 61.652 52.796 61.658"/>
   </g>
   <path stroke-width="0.13" d="M51.854 61.29C52.091 62.093 52.335 62.704 53.68 63.194C55.027 63.683 56.128 63.866 56.555 63.99C56.984 64.111 57.472 64.111 57.901 64.051C58.329 63.99 59.002 63.927 59.307 62.521C59.613 61.115 61.755 51.481 62.243 49.768C62.732 48.055 64.445 46.832 66.525 45.731C68.605 44.631 70.439 43.408 71.908 43.408"/>
   <path stroke-width="0.13" d="M56.738 63.347C56.738 63.347 58.451 50.014 58.451 49.28C58.451 48.545 59.43 46.71 60.898 45.976C62.365 45.243 64.078 44.387 64.078 44.387"/>
   <line stroke-width="0.13" x1="43.561" y1="37.444" x2="43.298" y2="45.064"/>
   <line stroke-width="0.13" x1="50.348" y1="41.442" x2="50.283" y2="44.612"/>
   <path stroke-width="0.13" d="M54.359 45.969C54.1 44.805 54.036 43.642 53.712 43.189"/>
   <path stroke-width="0.13" d="M54.618 42.929C54.618 42.929 56.299 43.253 56.622 42.994C56.947 42.735 57.399 42.024 57.399 42.024C57.399 42.024 59.34 42.735 59.921 43.189"/>
   <path stroke-width="0.13" d="M58.11 35.103C57.011 35.362 56.363 36.332 56.881 36.655C57.399 36.978 58.11 38.53 58.11 39.243C58.11 39.954 57.594 40.472 58.499 40.795C59.405 41.118 60.31 41.701 60.31 41.636"/>
   <path stroke-width="0.13" d="M58.11 35.103C58.628 35.037 59.017 35.231 59.017 36.267C59.017 37.301 60.189 42.884 64.579 43.642"/>
   <path stroke-width="0.13" d="M66.325 43.576C68.914 43.383 72.989 40.084 73.376 36.591"/>
   <path stroke-width="0.13" d="M58.098 31.85L67.167 31.868C67.167 31.868 68.266 31.675 68.396 32.904C68.525 34.133 69.108 35.49 70.013 35.49C70.918 35.49 73.894 35.685 73.829 35.619"/>
   <path stroke-width="0.13" d="M59.728 32.127C59.598 35.037 60.569 38.789 61.798 40.213C63.027 41.636 64.903 42.606 67.037 42.088C69.171 41.572 72.019 37.82 72.212 35.75"/>
   <path stroke-width="0.13" d="M61.991 31.998C61.344 34.326 62.963 38.337 65.033 38.466C67.102 38.595 68.59 37.107 69.171 35.619"/>
   <path stroke-width="0.13" d="M64.837 31.998C64.515 33.42 65.162 34.067 65.614 34.39C66.066 34.715 67.62 34.521 67.879 33.679"/>
   <path stroke-width="0.13" d="M66.072 34.53C66.262 35.619 67.102 35.75 67.49 35.878C67.879 36.009 67.879 36.009 67.879 36.009"/>
   <path stroke-width="0.13" d="M64.837 37.301C66.132 37.496 67.231 37.107 67.879 36.009C68.525 34.908 68.59 34.39 68.59 34.39"/>
   <path stroke-width="0.13" d="M61.161 89.465C61.368 90.084 61.646 90.977 61.534 91.256C61.534 91.256 61.523 91.281 61.509 91.302"/>
   <path stroke-width="0.13" d="M60.81 92.319C59.6 94.028 57.308 97.17 57.35 97.17"/>
   <path stroke-width="0.13" d="M58.521 97.337L60.865 93.878C60.865 93.878 60.698 93.487 60.753 93.096C60.81 92.706 61.478 91.646 61.814 91.311C62.149 90.977 62.762 91.031 63.32 91.311C63.878 91.59 64.659 92.483 64.381 93.319C64.102 94.156 63.99 94.938 63.543 95.105C63.097 95.272 62.149 97.448 62.093 97.394"/>
   <g>
    <path stroke-width="0.13" d="M59.302 92.427C59.668 92.665 60.185 92.564 60.624 92.209"/>
    <path stroke-width="0.13" d="M61.31 91.159C61.469 90.587 61.325 90.091 60.976 89.861C60.475 89.534 59.695 89.843 59.232 90.552C58.77 91.26 58.801 92.099 59.302 92.427"/>
   </g>
   <g>
    <path stroke-width="0.13" d="M59.972 91.813C60.005 91.841 60.04 91.862 60.076 91.876"/>
    <path stroke-width="0.13" d="M60.865 90.808C60.67 90.635 60.31 90.718 60.064 90.995C59.817 91.272 59.777 91.638 59.972 91.813"/>
   </g>
   <line stroke-width="0.13" x1="60.865" y1="90.808" x2="61.686" y2="91.453"/>
   <line stroke-width="0.13" x1="59.972" y1="91.813" x2="61.023" y2="92.453"/>
   <path stroke-width="0.13" d="M64.381 97.225C64.381 97.225 66.055 87.349 66.167 86.903C66.278 86.456 66.111 86.512 66.668 86.233C67.227 85.953 67.338 85.674 66.835 85.34C66.334 85.006 64.826 83.805 64.938 82.355C65.051 80.903 66.278 73.203 66.278 73.203C66.278 73.203 66.39 71.53 67.506 71.418C68.621 71.307 69.626 71.084 69.626 71.084L71.076 61.597"/>
   <line stroke-width="0.3" x1="42.988" y1="49.363" x2="43.588" y2="48.777"/>
   <text transform="matrix(0 -1 1 0 68.927 97.87)" stroke="none" fill="#000000" font-family="'Helvetica'" font-size="2.117">146 134</text>
  </g>
 </g>
</svg>
