<?xml version="1.0" encoding="utf-8"?>
<!DOCTYPE svg PUBLIC "-//W3C//DTD SVG 1.1//EN" "http://www.w3.org/Graphics/SVG/1.1/DTD/svg11.dtd">
<!-- Generator: PTC Arbortext IsoDraw 7.3 -->
<svg width="100%" height="100%" viewBox="0 0 75.118 36.905"
 xmlns="http://www.w3.org/2000/svg" xmlns:xlink="http://www.w3.org/1999/xlink"
 fill-rule="evenodd" clip-rule="evenodd" stroke="#000000" stroke-linecap="round" fill="none" xml:space="preserve">
 <g id="frame">
 </g>
 <g id="Standard_x0020_layer">
  <path stroke-width="0.25" stroke-linejoin="round" d="M7.293 28.297C7.213 29.039 7.379 31.871 7.788 32.573C8.603 33.979 10.417 34.927 12.185 34.77C13.952 34.612 17.195 34.112 17.195 34.112L17.422 34.134L17.875 33.976L18.102 34.203L18.35 34.249L18.623 34.792L19.257 34.725L19.234 34.429L19.28 34.021L19.71 33.932C19.71 33.932 19.868 33.704 19.847 33.613C19.824 33.524 19.824 33.524 19.824 33.524L25.559 33.274L26.147 33.365L26.353 33.637L26.487 33.591L26.76 34.18L27.484 34.134L27.484 33.5L27.78 33.5L27.96 33.115C27.96 33.115 29.275 32.979 30.295 32.685C31.315 32.39 32.563 31.981 32.563 31.981L33.037 32.164L34.149 31.71L34.353 31.551C34.353 31.551 36.936 30.35 37.368 29.919C37.798 29.487 37.866 28.855 37.774 28.695"/>
  <path stroke-width="0.25" stroke-linejoin="round" d="M9.993 28.882C9.993 28.882 9.903 29.737 10.122 30.757C10.224 31.225 10.711 32.368 11.891 32.298C13.07 32.231 17.195 31.664 17.195 31.664C17.195 31.664 17.513 30.849 17.92 30.803C18.327 30.757 19.234 30.553 19.234 30.553L19.349 30.69C19.349 30.69 20.277 30.486 20.64 30.509C21.003 30.532 21.707 30.498 21.707 30.498"/>
  <path stroke-width="0.25" stroke-linejoin="round" d="M19.649 28.01C18.297 28.74 16.31 29.871 16.31 29.871"/>
  <path stroke-width="0.25" stroke-linejoin="round" d="M26.873 24.045C26.873 24.045 26.079 24.771 25.399 25.111C24.721 25.452 24.016 25.972 23.155 26.268C22.588 26.461 22.089 26.725 21.504 27.038"/>
  <path stroke-width="0.25" stroke-linejoin="round" d="M21.975 27.78C22.475 27.521 23.003 27.26 23.564 27.06C24.583 26.698 25.681 25.945 26.103 25.678C27.213 24.975 28.051 24.045 28.051 24.045"/>
  <path stroke-width="0.25" stroke-linejoin="round" d="M17.172 30.484C17.172 30.484 18.986 29.362 20.128 28.727"/>
  <path stroke-width="0.25" stroke-linejoin="round" d="M19.205 24.504C18.888 27.442 20.085 28.676 20.873 29.466C21.376 29.971 21.57 30.573 22.748 30.981C22.748 30.981 23.853 30.986 24.344 30.986C24.836 30.986 25.728 30.894 25.728 30.894"/>
  <path stroke-width="0.25" stroke-linejoin="round" d="M26.646 26.788C26.646 26.788 26.646 27.603 26.646 27.785C26.646 27.966 26.602 28.147 26.827 28.26C27.053 28.375 27.371 28.397 27.371 28.397L28.256 28.42L28.391 28.556L31.021 27.92C31.021 27.92 31.077 27.542 31.777 27.344C32.478 27.146 32.371 27.146 32.478 27.146C32.585 27.146 32.874 27.283 32.874 27.283L33.56 26.992"/>
  <path stroke-width="0.25" stroke-linejoin="round" d="M30.346 24.251L30.346 26.338C30.346 26.338 30.635 26.263 30.801 26.17C30.969 26.079 31.182 26.248 31.182 26.248L32.143 26.78C32.143 26.78 32.143 26.78 32.341 26.658C32.539 26.536 32.646 26.629 32.813 26.689C32.981 26.75 33.56 26.992 33.56 26.992C33.56 26.992 33.968 26.811 34.444 26.629C34.92 26.448 36.575 26.062 37.865 26.539C39.158 27.015 40.314 27.603 40.314 27.603C40.314 27.603 41.015 27.807 41.176 28.17C41.334 28.533 41.334 28.986 41.061 29.327C40.79 29.666 40.381 29.711 39.747 29.44C39.112 29.167 38.478 28.76 37.39 28.51C36.301 28.26 34.761 28.533 34.284 28.737C33.808 28.94 33.695 29.009 33.695 29.009L33.356 29.204"/>
  <path stroke-width="0.25" stroke-linejoin="round" d="M4.825 3.79C4.825 3.79 3.561 3.838 3.464 4.857C3.367 5.878 3.246 7.189 3.246 7.189C3.246 7.189 2.833 7.165 2.833 7.554C2.833 7.942 2.833 8.329 2.833 8.477C2.833 8.817 3.246 8.817 3.246 8.817C3.246 8.817 3.415 16.492 3.464 16.905C3.512 17.318 3.585 17.585 3.78 17.73"/>
  <path stroke-width="0.25" stroke-linejoin="round" d="M59.557 36.396C59.557 36.396 59.642 34.027 59.642 31.161C59.642 28.295 62.119 27.251 63.99 27.227C65.423 27.208 65.715 27.227 67.123 27.227C69.332 27.227 69.965 25.745 70.037 24.701C70.076 24.126 70.219 22.62 70.281 21.446C70.284 21.373 70.179 21.493 70.183 21.422C70.227 20.562 70.305 19.771 70.305 19.771L70.692 19.187C70.692 19.187 70.912 16.686 70.984 15.689C71.058 14.695 70.328 14.573 69.989 14.548C69.649 14.525 69.356 14.548 68.531 14.451C67.706 14.353 67.341 14.598 67.341 14.598L66.709 14.888L67.536 15.009C68.215 14.936 69.016 15.666 69.138 17.778C69.26 19.891 68.046 21.082 68.046 21.082C68.191 21.397 67.879 21.669 67.536 21.859C67.087 22.109 66.652 21.934 66.652 21.934C66.652 21.934 66.251 21.638 66.198 21.533C66.147 21.429 65.933 21.446 65.933 21.446L62.168 21.349C62.168 21.349 62.07 21.471 61.902 21.446C61.731 21.422 61.439 21.251 61.439 21.251C61.439 21.251 60.735 21.204 60.176 21.204C59.618 21.204 59.133 20.888 59.133 20.888L58.865 20.984L58.768 21.204C58.768 21.204 58.646 21.277 58.524 21.277C58.404 21.277 58.404 20.96 58.404 20.96L58.234 20.838L57.529 20.62L57.164 20.426L57.189 20.013L57.093 19.891L57.091 19.289L57.268 19.184L57.256 18.934L57.359 18.855L57.365 17.548L57.445 17.486L57.453 16.556L57.838 16.297L58.003 16.321L58.088 16.19L58.457 16.12L58.996 16.333L59.167 16.504L59.139 16.803L59.295 16.902L59.154 18.847L58.911 19.103L58.884 19.827L59.054 19.94L59.042 20.373L58.286 20.765"/>
  <path stroke-width="0.25" stroke-linejoin="round" d="M60.832 36.383C60.832 36.383 60.807 32.618 60.832 31.356C60.856 30.092 61.439 28.684 64.111 28.538C65.275 28.475 66.176 28.611 67.049 28.586C67.924 28.562 71.033 28.004 71.325 24.871C71.615 21.737 71.591 21.179 71.591 21.179L71.786 19.626L71.519 19.236L71.591 17.707"/>
  <path stroke-width="0.25" stroke-linejoin="round" d="M68.792 34.258L68.617 32.177"/>
  <path stroke-width="0.25" stroke-linejoin="round" d="M68.391 30.449C68.191 29.573 67.739 28.521 67.739 28.521"/>
  <path stroke-width="0.25" stroke-linejoin="round" d="M66.962 27.217C66.962 27.217 64.608 24.461 60.35 24.236C56.091 24.01 55.439 24.036 55.439 24.036C55.439 24.036 52.935 23.811 52.834 23.734C52.734 23.661 51.981 23.585 51.805 23.609C51.631 23.635 50.729 23.635 50.729 23.635"/>
  <path stroke-width="0.25" stroke-linejoin="round" d="M63.305 33.78C63.305 33.78 63.481 32.328 62.404 31.426C61.326 30.524 61 30.675 61 30.675"/>
  <path stroke-width="0.25" stroke-linejoin="round" d="M61.326 29.849C63.231 30.373 63.179 32.277 63.179 32.277L63.185 32.52"/>
  <path stroke-width="0.25" stroke-linejoin="round" d="M59.923 29.647L57.018 29.597C57.018 29.597 54.618 28.643 54.418 28.643C54.218 28.643 54.243 28.611 54.243 28.611L57.469 30.074C57.469 30.074 57.643 30.373 57.543 30.675C57.444 30.975 57.143 32.253 56.667 32.78"/>
  <path stroke-width="0.25" stroke-linejoin="round" d="M57.618 30.373L58.996 30.474L59.698 30.224"/>
  <path stroke-width="0.25" stroke-linejoin="round" d="M57.343 33.429L59.197 33.731L59.548 33.746"/>
  <path stroke-width="0.25" stroke-linejoin="round" d="M59.597 34.932C59.597 34.932 56.442 33.003 55.113 31.477C53.786 29.948 52.582 28.295 51.656 26.841C50.729 25.388 49.953 24.46 49.802 24.437"/>
  <path stroke-width="0.25" stroke-linejoin="round" d="M59.53 35.807C59.53 35.807 57.243 34.707 55.39 32.979C53.432 31.153 52.505 29.716 52.008 29.021C51.631 28.495 49.802 25.815 49.802 25.815L48.676 24.586"/>
  <path stroke-width="0.25" stroke-linejoin="round" d="M17.461 15.199L17.835 14.435L17.629 8.643"/>
  <path stroke-width="0.25" stroke-linejoin="round" d="M11.205 28.007C11.205 28.399 11.723 29.67 12.365 30.275C13.006 30.882 14.823 31.951 14.823 31.951"/>
  <path stroke-width="0.25" stroke-linejoin="round" d="M14.163 28.236L17.675 30.987"/>
  <path stroke-width="0.25" stroke-linejoin="round" d="M12.381 28.114C12.381 28.114 13.148 29.385 13.505 29.67C13.862 29.954 16.356 31.701 16.356 31.701"/>
  <path stroke-width="0.25" stroke-linejoin="round" d="M12.774 28.236C12.774 28.236 13.291 29.277 13.612 29.599C13.932 29.919 16.676 31.736 16.676 31.736"/>
  <path stroke-width="0.25" stroke-linejoin="round" d="M6.519 6.434L5.807 5.613L5.379 4.83L5.059 4.758L4.881 3.903L5.094 3.689C5.094 3.689 5.129 2.87 5.272 2.585C5.415 2.298 5.665 2.121 5.665 2.121L5.487 1.8L5.878 1.373L6.448 1.088L7.161 1.123L7.197 0.838C7.197 0.838 8.016 0.66 8.195 0.66C8.374 0.66 8.586 0.945 8.586 0.945L8.907 0.945L9.621 1.159L10.583 1.943C10.583 1.943 11.653 2.121 12.08 2.548C12.507 2.976 12.721 3.403 12.757 3.512C12.792 3.617 13.042 3.653 13.221 3.653C13.399 3.653 16.535 3.617 16.82 3.617C17.106 3.617 17.612 3.617 17.905 4.083"/>
  <path stroke-width="0.25" stroke-linejoin="round" d="M71.707 31.728C71.37 31.87 71.058 31.946 70.814 31.963C69.769 32.036 69.819 31.987 67.512 32.304C65.203 32.618 65.495 35.048 65.617 36.432"/>
  <path stroke-width="0.25" stroke-linejoin="round" d="M57.485 13.204L57.7 12.882L59.268 12.349C59.268 12.349 60.408 12.419 60.587 12.455C60.765 12.49 61.085 12.775 61.085 12.775C61.085 12.775 61.691 12.634 62.368 12.563C63.045 12.49 69.283 11.137 69.64 11.137C69.995 11.137 71.778 10.958 72.311 11.208C72.846 11.458 73.737 12.028 73.737 12.669C73.737 13.31 73.737 15.378 73.737 15.378L73.881 15.448L74.021 16.006L73.704 16.272L73.68 17.341L73.875 17.754L73.656 19.746L73.56 19.82C73.56 19.82 73.56 21.981 73.68 23.317C73.778 24.397 74.021 25.048 74.12 26.687"/>
  <path stroke-width="0.25" stroke-linejoin="round" d="M60.276 14.035L60.587 14.058C60.942 14.237 62.084 14.058 62.439 13.987C62.795 13.916 65.683 13.452 65.683 13.452L66.289 13.739C66.289 13.739 66.503 13.952 66.93 13.774C67.358 13.596 67.322 13.096 67.322 13.096C67.322 13.096 68.962 12.526 70.102 12.384C71.242 12.242 70.852 12.242 71.706 12.455C72.561 12.669 72.384 13.739 72.311 14.343C72.24 14.951 72.134 15.804 72.134 15.804L71.671 15.769C71.671 15.769 71.671 15.769 71.671 15.092C71.671 14.416 70.673 13.952 70.352 13.881C70.031 13.81 68.179 13.739 68.179 13.739L67.908 13.718L67.753 13.432L67.334 13.432"/>
  <path stroke-width="0.25" stroke-linejoin="round" d="M66.183 12.419C66.183 12.419 66.93 12.563 67.073 12.669C67.215 12.775 67.394 13.06 67.287 13.31"/>
  <path stroke-width="0.25" stroke-linejoin="round" d="M71.894 29.574C71.426 30.205 70.783 30.297 70.596 30.312C70.257 30.335 69.334 30.457 67.972 30.506C66.612 30.554 65.567 31.161 64.912 31.865C64.257 32.57 63.82 33.664 63.82 34.537C63.82 35.411 63.771 36.432 63.771 36.432"/>
  <path stroke-width="0.25" stroke-linejoin="round" d="M72.134 15.804L72.811 15.912L73.132 16.091L73.486 16.496L73.331 17.137L72.846 17.312L71.92 17.231L71.635 17.588L71.956 17.765L71.813 19.227L71.786 19.771C71.786 19.771 71.858 19.867 71.811 21.495C71.763 23.123 72.03 24.288 72.344 26.669"/>
  <path stroke-width="0.25" stroke-linejoin="round" d="M74.992 7.98L73.665 7.038L73.417 6.788L72.989 6.612C72.989 6.612 71.278 7.003 70.531 7.11C69.781 7.217 68.605 6.968 68.605 6.968"/>
  <path stroke-width="0.25" stroke-linejoin="round" d="M35.362 31.103L38.067 31.1L38.317 31.225L43.871 31.193L44.213 31.1L44.399 31.132L44.585 31.256C44.585 31.256 45.548 31.225 45.671 31.225C45.795 31.225 45.982 30.914 45.982 30.914L46.478 29.922C46.478 29.922 46.85 29.736 47.161 29.766C47.472 29.798 48.682 29.829 48.682 29.829L48.805 30.045L49.085 30.108L49.179 30.294L49.582 30.294C49.582 30.294 49.582 30.077 49.706 30.077C49.831 30.077 50.017 30.077 50.017 30.077L50.14 29.922C50.14 29.922 50.295 30.294 51.134 30.821C51.972 31.35 52.375 31.567 52.375 31.567L52.593 31.939L52.81 32.125L56.103 33.607"/>
  <path stroke-width="0.25" stroke-linejoin="round" d="M39.649 24.431C39.649 24.431 39.804 24.678 40.113 24.647C40.424 24.617 42.037 24.647 42.503 24.678C42.969 24.71 43.341 25.05 43.341 25.05"/>
  <path stroke-width="0.25" stroke-linejoin="round" d="M43.375 23.609C43.375 23.609 43.375 25.03 43.344 25.373C43.314 25.713 43.314 26.056 42.692 26.149L40.054 26.149L39.835 26.053C39.835 26.053 39.649 25.803 39.649 25.586C39.649 25.37 39.649 23.995 39.649 23.995C39.649 23.995 39.616 23.655 39.338 23.655C39.058 23.655 38.438 23.623 38.344 23.623C38.252 23.623 38.128 23.934 38.128 24.243C38.128 24.554 38.189 25.516 38.189 25.516L39.182 26.262C39.182 26.262 39.899 26.814 40.011 26.868C40.121 26.925 40.887 27.635 41.094 27.99"/>
  <path stroke-width="0.25" stroke-linejoin="round" d="M59.133 20.888L59.234 24.117"/>
  <path stroke-width="0.25" stroke-linejoin="round" d="M54.671 23.435C54.671 23.435 55.572 23.28 55.603 23.714L55.603 24.056"/>
  <path stroke-width="0.25" stroke-linejoin="round" d="M28.958 25.332L28.974 26.414L29.416 26.49L29.629 28.013L29.949 28.12"/>
  <path stroke-width="0.25" stroke-linejoin="round" d="M27.327 30.74C27.327 30.74 31.263 30.033 31.786 29.757"/>
  <path stroke-width="0.25" stroke-linejoin="round" d="M50.39 26.8L48.445 28.333"/>
  <path stroke-width="0.25" stroke-linejoin="round" d="M49.274 26.449L47.734 27.823"/>
  <path stroke-width="0.25" stroke-linejoin="round" d="M48.374 27.126C48.345 27.083 48.146 26.742 48.146 26.559C48.146 26.373 48.118 26.231 48.118 26.231L48.033 26.076L48.076 25.833L48.118 25.821L48.076 25.096"/>
  <path stroke-width="0.25" stroke-linejoin="round" d="M49.85 26.018C49.85 26.018 48.743 25.734 48.6 25.635C48.459 25.536 48.061 25.082 47.948 24.868C47.835 24.655 47.783 24.582 47.783 24.582"/>
  <path stroke-width="0.25" stroke-linejoin="round" d="M47.209 28.306L47.195 27.963L48.417 27.17"/>
  <path stroke-width="0.25" stroke-linejoin="round" d="M58.996 30.474C58.996 30.474 59.521 30.678 59.578 31.033"/>
  <path stroke-width="0.25" stroke-linejoin="round" d="M73.703 7.136C73.703 7.136 73.6 7.751 73.531 8.057C73.463 8.365 73.328 8.74 73.378 8.807C73.43 8.877 73.719 9.132 73.668 9.662C73.617 10.191 73.549 11.983 73.549 11.983"/>
  <path stroke-width="0.25" stroke-linejoin="round" d="M35.871 24.211C35.871 24.361 35.749 24.481 35.597 24.481C35.447 24.481 35.323 24.361 35.323 24.211C35.323 24.062 35.447 23.942 35.597 23.942C35.749 23.942 35.871 24.062 35.871 24.211z"/>
  <path stroke-width="0.25" stroke-linejoin="round" d="M33.283 24.217C33.283 24.367 33.161 24.486 33.011 24.486C32.859 24.486 32.737 24.367 32.737 24.217C32.737 24.068 32.859 23.946 33.011 23.946C33.161 23.946 33.283 24.068 33.283 24.217z"/>
  <path stroke-width="0.131" stroke-linejoin="round" d="M57.32 19.254C57.32 19.254 57.887 19.573 58.011 19.609C58.134 19.643 58.259 19.661 58.417 19.591C58.578 19.519 58.878 19.378 58.878 19.378"/>
  <path stroke-width="0.131" stroke-linejoin="round" d="M57.551 16.599L58.277 16.936L58.56 16.882L58.807 16.987L59.139 16.803"/>
  <path stroke-width="0.131" stroke-linejoin="round" d="M59.167 16.504L58.789 16.67L58.807 16.987"/>
  <path stroke-width="0.131" stroke-linejoin="round" d="M58.789 16.67C58.737 16.652 58.631 16.58 58.631 16.58L58.488 16.617L57.988 16.376"/>
  <path stroke-width="0.131" stroke-linejoin="round" d="M56.683 21.998C56.683 21.998 57.356 22.05 57.426 22.864C57.497 23.679 57.551 24.068 57.551 24.068"/>
  <path stroke-width="0.25" stroke-linejoin="round" d="M67.754 21.73L68.341 25.58L68.253 26.992"/>
  <path stroke-width="0.25" stroke-linejoin="round" d="M50.033 28.934L49.872 28.824L49.872 28.469L49.618 28.344L49.197 28.359L48.951 28.458L48.951 28.797L48.761 28.897L48.968 29.042L49.805 29.064L50.033 28.934z"/>
  <path stroke-width="0.25" stroke-linejoin="round" d="M60.917 14.16L60.389 14.556L61.49 14.567L65.99 14.701L66.716 14.833"/>
  <path stroke-width="0.25" stroke-linejoin="round" d="M60.698 14.535L59.308 14.755L58.283 15.221L58.082 15.743L57.409 15.757"/>
  <path stroke-width="0.25" stroke-linejoin="round" d="M57.478 13.387L58.073 13.101L58.295 13.365L58.581 13.454L58.692 14.026L58.051 14.755L57.402 15.012"/>
  <path stroke-width="0.25" stroke-linejoin="round" d="M69.099 17.137C69.099 17.137 69.65 16.916 69.891 17.577C70.134 18.239 70.266 18.327 70.266 18.327L70.707 18.657"/>
  <path stroke-width="0.25" stroke-linejoin="round" d="M73.653 20.913L74.977 21.42"/>
  <path stroke-width="0.131" stroke-linejoin="round" d="M69.825 18.701L70.112 18.195"/>
  <path stroke-width="0.131" stroke-linejoin="round" d="M58.107 16.856C58.107 16.856 58.09 16.292 58.353 16.027C58.618 15.763 58.741 15.272 58.741 15.042C58.741 14.814 58.618 14.602 58.618 14.602"/>
  <path stroke-width="0.131" stroke-linejoin="round" d="M58.319 16.864C58.319 16.864 58.406 16.451 58.618 16.169C58.829 15.887 59.005 15.412 59.005 15.236C59.005 15.06 59.005 14.725 58.793 14.602"/>
  <path stroke-width="0.25" stroke-linejoin="round" d="M58.494 14.409C58.494 14.409 58.777 14.179 58.935 14.444C59.094 14.708 59.146 14.814 59.146 14.814"/>
  <path stroke-width="0.25" stroke-linejoin="round" d="M71.688 6.887L70.421 10.962"/>
  <path stroke-width="0.131" stroke-linejoin="round" d="M17.884 33.853C17.884 33.853 17.519 33.332 17.507 32.463C17.495 31.591 17.623 30.955 17.623 30.955"/>
  <path stroke-width="0.131" stroke-linejoin="round" d="M19.182 30.551C19.182 30.551 18.949 31.605 18.936 32.151C18.923 32.697 19.17 33.32 19.327 33.359C19.483 33.399 19.82 33.49 19.82 33.49"/>
  <path stroke-width="0.131" stroke-linejoin="round" d="M18.091 30.864C18.091 30.864 17.87 31.449 17.936 32.203C18.001 32.957 18.443 34.009 18.443 34.009L18.989 33.917C18.989 33.917 18.495 33.06 18.455 32.087C18.417 31.111 18.599 30.76 18.638 30.722"/>
  <path stroke-width="0.131" stroke-linejoin="round" d="M26.085 33.241C26.085 33.191 25.943 32.787 25.89 32.307C25.838 31.826 25.798 31.37 25.798 31.37L25.748 30.812C25.748 30.812 25.591 30.539 25.525 29.928C25.461 29.318 25.5 28.914 25.5 28.914"/>
  <path stroke-width="0.131" stroke-linejoin="round" d="M27.19 28.396C27.19 28.396 26.969 29.161 27.007 29.434C27.047 29.707 27.242 30.603 27.242 30.603L27.346 30.929L27.397 31.216C27.397 31.216 27.32 31.736 27.332 32.087C27.346 32.436 27.618 32.996 27.903 33.046"/>
  <path stroke-width="0.131" stroke-linejoin="round" d="M27.364 33.457C27.364 33.457 27.047 33.125 26.943 32.359C26.838 31.591 26.643 29.993 26.643 29.993C26.643 29.993 26.539 29.227 26.591 28.902C26.643 28.576 26.643 28.525 26.643 28.525L26.085 28.589C26.085 28.589 25.968 29.239 25.993 29.46C26.021 29.681 26.306 32.345 26.435 32.826C26.565 33.307 26.708 33.527 26.708 33.527L27.364 33.457z"/>
  <path stroke-width="0.131" stroke-linejoin="round" d="M31.062 27.862L31.283 27.888C31.283 27.888 31.425 28.55 31.49 28.655C31.556 28.759 31.713 29.292 31.751 29.408C31.791 29.525 32.063 30.123 32.115 30.318C32.167 30.513 32.414 31.099 32.491 31.214C32.57 31.332 32.777 31.995 32.777 31.995"/>
  <path stroke-width="0.131" stroke-linejoin="round" d="M34.325 31.553L33.777 30.382L33.323 29.239L33.115 28.667C33.115 28.667 32.856 28.018 32.856 27.64C32.856 27.263 32.856 27.263 32.856 27.263L33.57 27.056"/>
  <path stroke-width="0.131" stroke-linejoin="round" d="M3.257 7.232L15.811 7.293C15.811 7.293 17.167 7.291 17.739 7.357"/>
  <path stroke-width="0.131" stroke-linejoin="round" d="M2.974 8.602C2.974 8.602 15.32 8.586 15.752 8.571C16.182 8.557 17.256 8.59 17.635 8.568"/>
  <path stroke-width="0.131" stroke-linejoin="round" d="M6.485 6.378C6.98 6.91 7.955 6.945 8.711 6.945C10.221 6.945 11.445 5.628 11.445 4.001C11.445 3.189 11.14 2.452 10.646 1.919"/>
  <path stroke-width="0.131" stroke-linejoin="round" d="M13.119 3.687L11.475 3.718"/>
  <path stroke-width="0.131" stroke-linejoin="round" d="M11.147 2.851L10.34 2.82C10.34 2.82 10.012 2.82 9.653 2.851"/>
  <path stroke-width="0.131" stroke-linejoin="round" d="M11.297 3.599C11.297 3.599 10.817 3.568 10.579 3.568C10.34 3.568 9.833 3.568 9.833 3.568C9.833 3.568 9.981 4.195 9.772 4.554C9.563 4.913 9.413 5.152 9.413 5.152C9.413 5.152 9.624 5.75 9.952 5.78C10.281 5.81 10.698 5.929 10.698 5.929"/>
  <path stroke-width="0.131" stroke-linejoin="round" d="M9.624 2.761C9.624 2.761 9.532 2.373 9.085 1.984C8.637 1.596 8.516 1.536 8.516 1.536C8.516 1.536 8.487 0.938 8.936 0.998"/>
  <path stroke-width="0.131" stroke-linejoin="round" d="M9.413 5.152L10.429 5.421L10.669 5.839"/>
  <path stroke-width="0.131" stroke-linejoin="round" d="M10.429 5.272C10.429 5.272 10.759 5.033 10.849 4.554C10.913 4.203 10.849 3.807 10.849 3.807"/>
  <path stroke-width="0.131" stroke-linejoin="round" d="M9.772 1.445L9.444 1.895C9.444 1.895 10.041 2.432 10.191 2.761"/>
  <path stroke-width="0.131" stroke-linejoin="round" d="M7.142 6.586L7.262 6.078C7.262 6.078 7.746 6.198 8.141 6.065C8.525 5.937 8.816 5.719 8.816 5.719C8.816 5.719 9.175 6.168 9.353 6.288C9.532 6.408 10.019 6.519 10.019 6.519"/>
  <path stroke-width="0.131" stroke-linejoin="round" d="M9.5 6.418C9.5 6.418 8.487 6.645 8.397 6.645C8.307 6.645 7.919 6.645 7.919 6.645L7.919 6.916"/>
  <path stroke-width="0.131" stroke-linejoin="round" d="M61.462 21.169C61.462 21.169 62.856 20.489 62.89 17.894C62.921 15.579 61.95 14.794 61.445 14.743"/>
  <path stroke-width="0.131" stroke-linejoin="round" d="M68.084 21.164C68.164 21.417 67.859 21.736 67.405 21.879C66.95 22.021 66.516 21.929 66.438 21.678C66.359 21.425 66.665 21.106 67.12 20.963C67.575 20.821 68.007 20.911 68.084 21.164z"/>
  <path stroke-width="0.131" stroke-linejoin="round" d="M67.736 21.272C67.775 21.396 67.593 21.564 67.331 21.644C67.114 21.713 66.911 21.701 66.825 21.623"/>
  <path stroke-width="0.25" stroke-linejoin="round" d="M66.825 21.623C66.807 21.609 66.795 21.589 66.787 21.568C66.748 21.445 66.93 21.278 67.191 21.198C67.453 21.115 67.697 21.149 67.736 21.272"/>
  <path stroke-width="0.131" stroke-linejoin="round" d="M60.276 14.035C60.276 14.035 59.713 14.006 59.743 13.353C59.773 12.702 60.201 12.775 60.29 12.775C60.38 12.775 60.572 12.407 60.572 12.407"/>
  <path stroke-width="0.25" stroke-linejoin="round" d="M47.195 28.364L48.331 29.257C48.331 29.257 48.43 29.443 48.984 29.443C49.537 29.443 52.279 29.5 52.279 29.5"/>
  <path stroke-width="0.25" stroke-linejoin="round" d="M54.182 28.661L53.869 29.343C53.869 29.343 53.854 29.74 53.828 29.841"/>
  <path stroke-width="0.25" stroke-linejoin="round" d="M52.435 31.573L52.662 31.673C52.662 31.673 53.046 31.644 53.359 30.963"/>
  <path stroke-width="0.131" stroke-linejoin="round" d="M50.874 27.425C50.874 27.425 50.249 27.681 50.078 27.894C49.908 28.108 49.78 28.364 49.78 28.364"/>
  <path stroke-width="0.131" stroke-linejoin="round" d="M48.786 27.951C48.771 27.908 48.686 27.553 48.969 27.17C49.255 26.786 49.262 26.55 49.262 26.55"/>
  <path stroke-width="0.131" stroke-linejoin="round" id="AUTOID_1342" d="M11.164 19.31L13.865 19.233"/>
  <path stroke-width="0.131" stroke-linejoin="round" d="M3.703 17.556L4.253 17.83"/>
  <path stroke-width="0.131" stroke-linejoin="round" d="M15.711 15.057L16.079 14.784"/>
  <path stroke-width="0.131" stroke-linejoin="round" d="M16.231 14.326L16.231 9.023"/>
  <path stroke-width="0.131" stroke-linejoin="round" d="M16.475 14.845L17.571 14.936"/>
  <path stroke-width="0.131" stroke-linejoin="round" d="M16.251 6.926L16.437 4.548"/>
  <path stroke-width="0.25" stroke-linejoin="round" d="M5.45 4.968C5.45 4.968 5.711 5.496 5.889 5.682C6.067 5.865 6.456 6.065 6.456 6.065L6.456 6.267"/>
  <path stroke-width="0.25" stroke-linejoin="round" d="M40.765 27.791L45.268 27.809C45.268 27.809 45.325 27.193 45.829 27.211C46.334 27.231 46.426 27.809 46.426 27.809L47.286 27.885"/>
  <path stroke-width="0.131" stroke-linejoin="round" d="M11.837 4.003L12.044 7.089"/>
  <path stroke-width="0.131" stroke-linejoin="round" d="M44.411 23.835C44.529 24.001 44.488 24.231 44.322 24.347C44.155 24.463 43.926 24.422 43.807 24.256C43.692 24.088 43.731 23.858 43.896 23.742C44.064 23.625 44.293 23.667 44.411 23.835z"/>
  <path stroke-width="0.131" stroke-linejoin="round" d="M68.165 21.464L68.753 25.434L68.605 25.699L68.753 25.932L68.694 26.932"/>
  <path stroke-width="0.131" stroke-linejoin="round" d="M72.046 24.521C72.046 24.521 71.046 25.551 70.722 27.021C70.4 28.49 70.075 30.373 70.075 30.373"/>
  <path stroke-width="0.131" stroke-linejoin="round" d="M69.781 32.078C69.781 32.078 69.635 32.753 69.811 33.283C69.987 33.811 70.194 35.223 70.194 35.223"/>
  <path stroke-width="0.25" stroke-linejoin="round" d="M72.075 25.199C72.075 25.199 71.605 25.463 71.134 28.05C70.664 30.637 70.722 30.254 70.722 30.254"/>
  <path stroke-width="0.25" stroke-linejoin="round" d="M70.495 32.027C70.495 32.027 70.37 32.43 70.429 32.723C70.487 33.018 70.957 36.399 70.957 36.399"/>
  <path stroke-width="0.25" stroke-linejoin="round" d="M70.477 36.396C70.477 36.396 70.516 35.518 70.457 35.253L69.76 35.353L67.605 35.664L66.959 35.753L66.959 36.34"/>
  <path stroke-width="0.25" stroke-linejoin="round" d="M69.76 35.353C69.76 35.353 69.753 35.046 69.753 34.841C69.753 34.636 69.753 34.311 69.105 34.311C68.459 34.311 68.459 34.311 68.459 34.311C68.459 34.311 68.43 33.929 68.106 33.929C67.783 33.929 65.724 33.901 65.724 33.901"/>
  <path stroke-width="0.25" stroke-linejoin="round" d="M63.814 33.841L60.904 33.753"/>
  <path stroke-width="0.25" stroke-linejoin="round" d="M56.2 33.783L27.89 33.401"/>
  <path stroke-width="0.25" stroke-linejoin="round" d="M13.72 31.254L11.632 32.283"/>
  <path stroke-width="0.25" stroke-linejoin="round" d="M8.692 33.548L7.37 34.076L7.317 33.991L6.408 34.229L5.017 34.399L3.842 34.636C3.842 34.636 3.871 35.487 3.9 35.753C3.93 36.017 4.019 36.369 4.019 36.369L7.533 35.18L7.575 34.899C7.575 34.899 9.054 34.378 9.435 34.143"/>
  <path stroke-width="0.25" stroke-linejoin="round" d="M5.195 34.253C5.195 34.253 5.636 32.078 5.636 31.489C5.636 30.902 5.605 30.637 5.488 29.989C5.371 29.344 4.783 26.109 4.636 25.492C4.488 24.875 4.224 23.67 3.371 23.463C2.519 23.259 1.197 23.17 0.844 23.17C0.491 23.17 0.256 23.172 0.256 23.172"/>
  <path stroke-width="0.25" stroke-linejoin="round" d="M0.241 20.698C2.14 20.126 2.005 20.178 2.665 19.818C2.807 19.742 2.972 19.644 3.145 19.539"/>
  <path stroke-width="0.131" stroke-linejoin="round" d="M1.153 23.202C1.153 23.202 3.012 23.074 3.294 23.074C3.576 23.074 4.051 23.375 4.288 23.699C4.527 24.024 5.089 25.062 5.155 25.234C5.219 25.408 5.371 25.667 5.392 25.949C5.413 26.23 5.607 27.289 5.652 27.614C5.695 27.937 5.932 29.364 5.976 29.538C6.019 29.71 6.214 31.16 6.214 31.332C6.214 31.506 6.278 31.894 6.214 32.219C6.149 32.542 5.695 34.252 5.695 34.252"/>
  <path stroke-width="0.131" stroke-linejoin="round" d="M7.338 34.143C7.251 34.207 7.144 34.468 7.23 34.662C7.317 34.856 7.445 35.03 7.511 34.965"/>
  <path stroke-width="0.131" stroke-linejoin="round" d="M6.897 34.186C6.804 34.262 6.649 34.479 6.708 34.771C6.804 35.225 7.144 35.206 7.144 35.206"/>
  <path stroke-width="0.131" stroke-linejoin="round" d="M6.516 34.229L6.711 35.246L7.445 35.225"/>
  <path stroke-width="0.131" stroke-linejoin="round" d="M5.607 22.792L6.753 24.911"/>
  <path stroke-width="0.131" stroke-linejoin="round" d="M0.225 22.588L2.105 22.425"/>
  <path stroke-width="0.131" stroke-linejoin="round" d="M0.21 22.864L2.149 22.663"/>
  <path stroke-width="0.131" stroke-linejoin="round" d="M2.668 21.992L2.927 20.78L2.906 20.434"/>
  <path stroke-width="0.131" stroke-linejoin="round" d="M0.225 21.082L2.645 20.306"/>
  <path stroke-width="0.131" stroke-linejoin="round" d="M32.005 29.49L32.884 29.153"/>
  <path stroke-width="0.131" stroke-linejoin="round" d="M32.472 30.612L33.408 30.295"/>
  <path stroke-width="0.131" stroke-linejoin="round" d="M25.748 30.812L26.129 30.743"/>
  <path stroke-width="0.131" stroke-linejoin="round" d="M26.748 30.67L27.196 30.594"/>
  <path stroke-width="0.131" stroke-linejoin="round" d="M25.798 31.37L26.167 31.324"/>
  <path stroke-width="0.131" stroke-linejoin="round" d="M26.821 31.268L27.327 31.155"/>
  <path stroke-width="0.25" stroke-linejoin="round" d="M26.522 33.7L27.484 33.5"/>
  <path stroke-width="0.131" stroke-linejoin="round" d="M25.699 28.443L25.83 28.611L26.085 28.589L27.158 28.461"/>
  <path stroke-width="0.131" stroke-linejoin="round" d="M41.344 28.949L47.509 29.042"/>
  <path stroke-width="0.131" stroke-linejoin="round" d="M41.344 28.397L47.171 28.428"/>
  <path stroke-width="0.131" stroke-linejoin="round" d="M48.972 28.861L49.844 28.861"/>
  <path stroke-width="0.131" stroke-linejoin="round" d="M49.182 28.868L49.182 28.6"/>
  <path stroke-width="0.131" stroke-linejoin="round" d="M49.662 28.811L49.662 28.606"/>
  <path stroke-width="0.131" stroke-linejoin="round" d="M49.088 28.461L49.27 28.512L49.633 28.512L49.771 28.454"/>
  <path stroke-width="0.131" stroke-linejoin="round" d="M47.359 27.961L48.715 29.045L50.462 29.102L50.462 28.902L51.868 28.931"/>
  <path stroke-width="0.131" stroke-linejoin="round" d="M71.876 19.737C71.876 19.737 72.338 19.803 72.691 19.803C73.045 19.803 73.552 19.76 73.552 19.76"/>
  <path stroke-width="0.131" stroke-linejoin="round" d="M70.266 21.282C70.266 21.282 71.192 21.48 71.545 21.326"/>
  <path stroke-width="0.131" stroke-linejoin="round" d="M70.694 19.187C70.694 19.187 71.171 19.253 71.412 19.253"/>
  <path stroke-width="0.131" stroke-linejoin="round" d="M73.045 16.056L72.45 16.166L72.295 16.783L72.759 17.268"/>
  <path stroke-width="0.131" stroke-linejoin="round" d="M71.811 15.858C71.811 15.858 71.149 15.835 71.171 16.32C71.192 16.804 71.501 16.827 71.501 16.827L72.075 17.245"/>
  <path stroke-width="0.131" stroke-linejoin="round" d="M72.912 15.967L72.23 16.121L72.075 16.893L72.427 17.245"/>
  <path stroke-width="0.131" stroke-linejoin="round" d="M68.679 20.222L69.518 24.765"/>
  <path stroke-width="0.131" stroke-linejoin="round" d="M68.393 20.73C68.393 20.73 69.099 23.949 69.207 24.346C69.319 24.742 69.45 25.271 69.45 25.271L69.164 25.646L68.658 25.625"/>
  <path stroke-width="0.131" stroke-linejoin="round" d="M69.143 19.033L69.76 18.745"/>
  <path stroke-width="0.131" stroke-linejoin="round" d="M52.862 32.07C52.862 32.07 53.503 31.775 53.67 31.283"/>
  <path stroke-width="0.131" stroke-linejoin="round" d="M54.054 30.128C54.054 30.128 54.235 29.632 54.29 29.504C54.347 29.376 54.567 29.231 54.786 29.376C55.006 29.524 54.951 29.579 54.932 29.762C54.914 29.945 54.621 30.751 54.621 30.751"/>
  <path stroke-width="0.131" stroke-linejoin="round" d="M54.145 31.905L53.889 32.271L53.723 32.326L53.651 32.362"/>
  <path stroke-width="0.131" stroke-linejoin="round" d="M54.457 29.323C54.457 29.323 54.548 28.718 54.255 28.663"/>
  <path stroke-width="0.131" stroke-linejoin="round" d="M54.859 29.396C54.859 29.396 54.987 28.864 54.621 28.736"/>
  <path stroke-width="0.131" stroke-linejoin="round" d="M56.453 29.725C56.453 29.725 56.691 29.945 56.636 30.256"/>
  <path stroke-width="0.131" stroke-linejoin="round" d="M55.939 32.253L56.234 31.556C56.234 31.556 56.563 31.466 56.71 31.574C56.856 31.684 56.966 31.777 56.838 32.106C56.71 32.435 56.526 32.71 56.526 32.71"/>
  <path stroke-width="0.131" stroke-linejoin="round" d="M56.362 31.484L56.398 31.355L56.27 31.208C56.27 31.208 56.453 30.658 56.453 30.475C56.453 30.292 56.71 30.292 56.856 30.312C57.003 30.329 57.185 30.292 57.149 30.713C57.112 31.135 57.039 31.466 57.039 31.466L56.892 31.501L56.892 31.722"/>
  <path stroke-width="0.131" stroke-linejoin="round" d="M56.215 31.759L56.35 31.811"/>
  <path stroke-width="0.131" stroke-linejoin="round" d="M56.71 31.913L56.676 32.152C56.676 32.152 56.506 32.256 56.42 32.204C56.334 32.152 56.334 32.015 56.334 32.015L56.402 31.811L56.557 31.775L56.694 31.861"/>
  <path stroke-width="0.131" stroke-linejoin="round" d="M56.762 31.963L56.881 31.964"/>
  <path stroke-width="0.131" stroke-linejoin="round" d="M56.368 32.067C56.368 32.067 56.368 31.929 56.521 31.998C56.676 32.067 56.607 32.084 56.607 32.084"/>
  <path stroke-width="0.131" stroke-linejoin="round" d="M57.103 29.996C57.103 29.996 57.207 30.236 57.189 30.44"/>
  <path stroke-width="0.131" stroke-linejoin="round" d="M54.981 29.757L55.101 29.791L54.93 30.594L54.691 30.577"/>
  <path stroke-width="0.131" stroke-linejoin="round" d="M53.493 31.896L53.767 31.998"/>
  <path stroke-width="0.131" stroke-linejoin="round" d="M53.595 31.775L53.835 31.827"/>
  <path stroke-width="0.131" stroke-linejoin="round" d="M53.716 31.623L53.904 31.657"/>
  <path stroke-width="0.131" stroke-linejoin="round" d="M56.146 31.981L56.249 32.033"/>
  <path stroke-width="0.131" stroke-linejoin="round" d="M56.078 32.17L56.249 32.237"/>
  <path stroke-width="0.131" stroke-linejoin="round" d="M56.35 32.152L56.231 32.426"/>
  <path stroke-width="0.131" stroke-linejoin="round" d="M58.353 14.478C58.353 14.478 58.371 14.708 58.548 14.832C58.723 14.955 58.706 15.025 58.706 15.025"/>
  <path stroke-width="0.131" stroke-linejoin="round" d="M65.683 13.452C65.683 13.452 65.305 13.272 65.394 12.955C65.486 12.637 65.667 12.457 65.802 12.457L66.075 12.457"/>
  <path stroke-width="0.131" stroke-linejoin="round" d="M66.528 13.769C66.528 13.769 66.12 13.544 66.301 13.045C66.481 12.548 66.754 12.683 66.98 12.728"/>
  <path stroke-width="0.25" stroke-linejoin="round" d="M0.256 34.676C0.256 34.676 1.358 34.619 1.911 34.569C2.463 34.518 3.419 34.645 3.468 32.659C3.519 30.673 3.645 28.161 3.544 27.608C3.443 27.054 3.493 26.376 2.967 26.175L2.915 25.949L2.338 25.774L2.363 24.919C2.363 24.919 2.615 24.844 2.589 24.593C2.564 24.341 2.012 24.367 2.012 24.367L1.785 24.341L1.785 23.763L2.69 23.789L2.967 23.46"/>
  <path stroke-width="0.25" stroke-linejoin="round" d="M1.774 34.606C1.774 34.606 1.609 35.021 2.012 35.298C2.412 35.575 2.639 35.659 2.665 36.002C2.682 36.243 2.666 36.426 2.666 36.426"/>
  <path stroke-width="0.131" stroke-linejoin="round" d="M0.21 26.027C0.21 26.027 1.66 26.15 2.74 25.925"/>
  <path stroke-width="0.131" stroke-linejoin="round" d="M0.202 24.367L1.785 24.341"/>
  <path stroke-width="0.131" stroke-linejoin="round" d="M12.693 3.96L15.923 4.057"/>
  <path stroke-width="0.131" stroke-linejoin="round" d="M58.14 15.32C58.14 15.532 57.966 15.705 57.755 15.705C57.542 15.705 57.368 15.532 57.368 15.32C57.368 15.106 57.542 14.935 57.755 14.935C57.966 14.935 58.14 15.106 58.14 15.32z"/>
  <path stroke-width="0.131" stroke-linejoin="round" d="M57.911 15.32C57.911 15.407 57.841 15.477 57.755 15.477C57.667 15.477 57.597 15.407 57.597 15.32C57.597 15.234 57.667 15.163 57.755 15.163C57.841 15.163 57.911 15.234 57.911 15.32z"/>
  <path stroke-width="0.25" stroke-linejoin="round" d="M58.276 15.227L57.99 14.784"/>
  <path stroke-width="0.25" stroke-linejoin="round" d="M65.343 4.469L66.576 7.644L67.783 7.203L67.018 4.645"/>
  <path stroke-width="0.25" stroke-linejoin="round" d="M68.753 11.199L69.575 8.262L69.811 8.114L70.134 8.085L70.192 7.878L71.251 8.144"/>
  <path stroke-width="0.25" stroke-linejoin="round" d="M37.917 25.112C37.845 24.833 37.593 24.626 37.292 24.626C36.936 24.626 36.646 24.916 36.646 25.271C36.646 25.469 36.735 25.646 36.875 25.763C36.875 25.763 37.283 26.289 37.712 26.457"/>
  <path stroke-width="0.25" stroke-linejoin="round" d="M37.487 24.739C37.487 24.739 37.731 25.056 37.917 25.225C38.031 25.329 38.31 25.617 38.31 25.617"/>
  <path stroke-width="0.25" stroke-linejoin="round" d="M37.207 26.327C37.207 26.327 37.32 26.327 36.814 25.916C36.31 25.506 35.488 25.506 35.488 25.506L35.118 25.242C35.018 24.897 34.698 24.646 34.32 24.646C33.862 24.646 33.49 25.018 33.49 25.477C33.49 25.908 33.816 26.26 34.234 26.304L34.311 26.644"/>
  <path stroke-width="0.25" stroke-linejoin="round" d="M33.975 26.795C33.975 26.795 33.695 26.44 33.451 26.234C33.21 26.027 32.817 26.085 32.817 26.085L32.04 25.37C32.058 25.326 32.07 25.277 32.07 25.225C32.07 25.009 31.893 24.832 31.676 24.832C31.46 24.832 31.285 25.009 31.285 25.225C31.285 25.423 31.432 25.588 31.623 25.614L32.274 26.57L32.341 26.658"/>
  <path stroke-width="0.131" stroke-linejoin="round" d="M65.581 10.358L65.581 12.022"/>
  <path stroke-width="0.13" stroke-linejoin="round" d="M56.621 12.355L57.21 12.34L57.21 12.047C57.21 12.047 59.039 12.087 60.018 12.111"/>
  <path stroke-width="0.131" stroke-linejoin="round" d="M61.567 12.455C61.585 12.557 61.591 12.609 61.591 12.609"/>
  <path stroke-width="0.25" d="M19.961 3.937C19.961 3.937 22.945 3.648 23.618 3.889C24.242 4.112 25.03 4.828 25.64 6.192"/>
  <path stroke-width="0.25" d="M25.87 6.737C26.507 8.085 27.538 7.689 27.998 7.689C28.225 7.689 31.987 7.775 35.883 7.868"/>
  <path stroke-width="0.25" d="M36.573 7.884C40.67 7.98 44.695 8.074 44.695 8.074C44.695 8.074 46.186 7.835 46.859 7.256C46.926 7.2 47.027 7.117 47.156 7.014"/>
  <path stroke-width="0.25" d="M47.825 6.493C49.292 5.36 51.768 3.504 51.768 3.504L62.064 3.745C62.064 3.745 64.278 4.225 64.471 6.391C64.664 8.556 64.087 11.683 62.21 11.731"/>
  <path stroke-width="0.25" d="M59.777 11.753C57.689 11.755 55.329 11.731 55.329 11.731C55.329 11.731 55.665 20.681 55.569 21.403C55.473 22.126 54.847 22.51 53.453 22.606C52.057 22.702 50.325 22.992 50.325 22.992C50.325 22.992 50.853 24.001 48.64 24.097C46.426 24.195 45.368 24.097 44.79 23.858C44.213 23.617 42.963 23.231 42.337 23.28C41.712 23.329 33.194 23.28 32.329 23.28C31.461 23.28 30.548 23.858 29.777 23.905C29.007 23.954 26.795 23.954 26.265 23.905C25.736 23.858 25.303 23.521 25.303 22.943C25.303 22.367 24.966 20.681 24.966 20.681C24.814 20.077 25.03 19.167 23.774 18.951C22.846 18.791 21.92 18.771 20.916 18.603"/>
  <path stroke-width="0.25" d="M18.373 16.35C18.373 16.35 17.844 15.919 17.94 14.955C18.038 13.993 18.181 8.893 18.181 8.893C18.181 8.893 18.759 8.17 18.71 7.642C18.663 7.113 18.663 4.995 18.663 4.995C18.663 4.995 19.007 4.014 19.961 3.937"/>
  <path stroke-width="0.13" d="M34.156 14.666C34.156 14.666 34.253 14.426 34.734 14.715C35.216 15.003 35.649 15.486 35.649 15.486L35.023 16.977L34.445 16.928L33.387 15.869L33.676 15.195"/>
  <path stroke-width="0.13" d="M59.924 10.583C59.911 10.566 59.895 10.553 59.877 10.541C59.786 10.489 59.664 10.477 59.526 10.477C58.887 10.481 57.993 10.832 57.584 11.022C57.119 11.234 56.031 11.525 55.228 11.539C54.814 11.548 54.469 11.471 54.268 11.324C54.185 11.266 54.024 11.137 53.799 10.96C52.601 10.009 49.576 7.593 47.936 7.192C46.005 6.721 41.25 5.849 39.884 6.274L39.603 6.36C38.689 6.639 37.631 6.956 36.991 7.424C36.771 7.586 36.603 7.759 36.542 7.969C36.246 8.962 34.909 11.823 34.319 12.564C33.966 13.003 33.734 13.75 33.844 14.346C33.884 14.564 33.972 14.759 34.131 14.899"/>
  <path stroke-width="0.13" d="M60.453 10.186C60.387 10.099 60.305 10.028 60.21 9.971C60.03 9.868 59.793 9.816 59.521 9.817C58.793 9.821 57.774 10.207 57.307 10.422C56.896 10.612 55.929 10.867 55.216 10.88C54.978 10.884 54.773 10.875 54.656 10.791C54.579 10.734 54.423 10.611 54.21 10.442C52.963 9.455 49.799 6.968 48.093 6.551C46.078 6.059 41.113 5.2 39.689 5.642L39.689 5.642L39.408 5.729L39.409 5.729C38.426 6.03 37.292 6.387 36.601 6.892C36.252 7.149 36.009 7.447 35.908 7.78C35.628 8.725 34.365 11.448 33.802 12.15C33.345 12.721 33.051 13.692 33.195 14.465C33.264 14.836 33.427 15.162 33.7 15.397"/>
  <path stroke-width="0.13" d="M60.093 12.31C59.996 11.753 58.597 10.769 59.526 10.477C60.453 10.186 60.453 10.186 60.453 10.186C60.453 10.186 60.67 9.567 61.198 10.24C61.728 10.913 62.21 11.731 62.21 11.731L61.439 12.598"/>
  <path stroke-width="0.13" d="M54.991 3.648L55.1 7.131"/>
  <path stroke-width="0.13" d="M55.134 8.205L55.216 10.88"/>
  <path stroke-width="0.25" d="M38.679 8.651C38.679 8.651 48.543 8.507 48.64 8.556C48.737 8.605 48.64 9.615 48.593 10.48C48.543 11.346 48.64 13.464 47.582 13.657C46.523 13.849 40.268 13.753 39.545 13.705C38.823 13.657 38.776 12.839 38.631 12.164C38.487 11.49 38.295 9.374 38.295 9.374C38.295 9.374 38.353 8.657 38.679 8.651z"/>
  <path stroke-width="0.25" d="M35.595 8.647C33.959 8.625 26.015 8.512 25.928 8.556C25.832 8.605 25.928 9.615 25.977 10.48C26.024 11.346 25.928 13.464 26.987 13.657C27.728 13.791 31.022 13.785 33.176 13.752"/>
  <path stroke-width="0.25" d="M33.848 13.74C34.432 13.727 34.862 13.715 35.023 13.705C35.744 13.657 35.792 12.839 35.938 12.164C36.082 11.49 36.274 9.374 36.274 9.374C36.274 9.374 36.256 9.141 36.179 8.941"/>
  <path stroke-width="0.13" d="M36.243 9.708L38.326 9.708"/>
  <path stroke-width="0.13" d="M36.231 9.118L38.332 9.118"/>
  <path stroke-width="0.13" d="M37.649 9.394C37.649 9.217 37.506 9.074 37.332 9.074C37.155 9.074 37.012 9.217 37.012 9.394C37.012 9.568 37.155 9.711 37.332 9.711C37.506 9.711 37.649 9.568 37.649 9.394z"/>
  <path stroke-width="0.13" d="M34.374 14.756L33.802 15.897"/>
  <path stroke-width="0.13" d="M37.871 20.78C37.871 20.463 37.612 20.204 37.295 20.204C36.978 20.204 36.72 20.463 36.72 20.78C36.72 21.097 36.978 21.355 37.295 21.355C37.612 21.355 37.871 21.097 37.871 20.78z"/>
  <path stroke-width="0.13" d="M26.975 22.847C26.975 22.623 26.792 22.44 26.568 22.44C26.344 22.44 26.161 22.623 26.161 22.847C26.161 23.071 26.344 23.253 26.568 23.253C26.792 23.253 26.975 23.071 26.975 22.847z"/>
  <path stroke-width="0.13" d="M49.369 22.954C49.369 22.742 49.198 22.57 48.985 22.57C48.774 22.57 48.601 22.742 48.601 22.954C48.601 23.166 48.774 23.338 48.985 23.338C49.198 23.338 49.369 23.166 49.369 22.954z"/>
  <path stroke-width="0.13" d="M48.985 16.039C48.985 15.823 48.81 15.647 48.594 15.647C48.377 15.647 48.201 15.823 48.201 16.039C48.201 16.256 48.377 16.431 48.594 16.431C48.81 16.431 48.985 16.256 48.985 16.039z"/>
  <path stroke-width="0.13" d="M24.359 17.323L46.883 17.501"/>
  <path stroke-width="0.13" d="M26.283 14.115C26.283 14.115 25.891 15.256 26.355 15.326C26.818 15.399 27.53 15.897 27.495 16.004C27.46 16.111 28.422 15.897 28.422 15.897C28.422 15.897 28.422 15.185 28.957 15.256C29.49 15.326 29.562 15.826 29.562 15.826L33.197 15.897"/>
  <path stroke-width="0.13" d="M35.621 15.932L39.362 15.862C39.362 15.862 39.326 15.326 39.826 15.362C40.325 15.399 40.468 15.862 40.468 15.897C40.468 15.932 44.923 16.039 44.923 16.039C44.923 16.039 44.851 15.612 45.279 15.541C45.707 15.47 46.027 15.862 46.027 15.932C46.027 16.004 46.597 16.076 47.026 15.826C47.454 15.577 48.201 15.041 47.844 13.973"/>
  <path stroke-width="0.13" d="M45.279 17.751C45.314 18.641 46.134 23.024 46.811 23.737"/>
  <path stroke-width="0.13" d="M46.883 17.501C47.133 18.748 47.912 23.402 48.451 23.737"/>
  <path stroke-width="0.13" d="M53.618 13.403C53.618 13.185 53.442 13.01 53.226 13.01C53.009 13.01 52.835 13.185 52.835 13.403C52.835 13.618 53.009 13.794 53.226 13.794C53.442 13.794 53.618 13.618 53.618 13.403z"/>
  <path stroke-width="0.13" d="M46.883 17.501C48.131 17.251 49.662 15.826 50.161 15.399C50.661 14.971 53.512 13.688 54.295 13.688"/>
  <path stroke-width="0.13" d="M54.295 11.621C54.295 11.621 50.375 11.336 50.34 12.797C50.304 14.257 50.411 21.243 50.411 21.243"/>
  <path stroke-width="0.13" d="M27.567 17.349C27.673 18.606 27.07 21.495 26.675 22.027"/>
  <path stroke-width="0.13" d="M29.17 17.361C29.099 19.211 28.207 22.42 27.815 23.06"/>
  <path stroke-width="0.13" d="M53.28 5.421C52.545 5.498 52.267 5.852 52.52 6.387C52.774 6.919 56.174 8.797 56.758 9.153C57.159 9.397 57.555 9.781 57.789 10.221"/>
  <path stroke-width="0.13" d="M57.996 10.848C58.079 11.538 58.079 11.512 58.079 11.512"/>
  <path stroke-width="0.13" d="M53.536 3.797L53.536 6.03"/>
  <path stroke-width="0.13" d="M53.28 5.955C53.28 5.955 55.159 7.248 55.844 7.528C56.53 7.807 58.61 9.178 58.713 9.66C58.728 9.737 58.746 9.824 58.765 9.919"/>
  <path stroke-width="0.13" d="M58.881 10.566C58.932 10.91 58.966 11.236 58.941 11.41"/>
  <path stroke-width="0.13" d="M55.439 8.593C55.439 8.923 55.286 9.736 55.743 10.066C55.935 10.204 56.11 10.465 56.244 10.746"/>
  <path stroke-width="0.13" d="M56.463 11.372C56.496 11.529 56.503 11.66 56.478 11.742"/>
  <path stroke-width="0.13" d="M56.276 9.025C56.25 9.228 56.707 9.811 56.884 10.09C56.948 10.189 57.015 10.335 57.076 10.515"/>
  <path stroke-width="0.13" d="M57.222 11.16C57.244 11.348 57.253 11.545 57.238 11.746"/>
  <path stroke-width="0.25" d="M24.321 4.429L50.343 4.577"/>
  <path stroke-width="0.13" d="M44.524 6.52C44.524 6.52 38.593 6.679 38.487 6.716L38.485 6.716"/>
  <path stroke-width="0.13" d="M37.161 6.557C36.454 6.339 30.405 6.163 29.675 6.163C28.945 6.163 25.934 6.573 25.146 6.982"/>
  <path stroke-width="0.13" d="M38.127 6.149C37.936 6.137 37.662 6.094 37.334 5.993L37.32 5.987C36.563 5.767 30.42 5.573 29.675 5.573C28.9 5.573 25.71 6.024 24.873 6.458"/>
  <path stroke-width="0.25" d="M17.905 4.083C18.015 4.53 18.111 6.589 18.079 7.136C18.047 7.682 18.251 8.561 17.635 8.568"/>
  <path stroke-width="0.25" d="M57.192 15.055C56.628 15.202 55.594 16.112 55.618 16.481"/>
  <path stroke-width="0.25" d="M57.409 15.757C56.847 15.817 55.765 16.728 55.74 17.589"/>
  <g>
   <text transform="matrix(0 -1 1 0 74.412 36.064)" stroke="none" fill="#000000" font-family="'Arial'" font-size="2.117">304 166</text>
  </g>
  <path stroke-width="0.13" d="M26.614 8.73L26.614 13.127"/>
  <path stroke-width="0.13" d="M27.388 8.689L27.388 13.534"/>
  <path stroke-width="0.13" d="M28.161 8.711L28.161 13.554"/>
  <path stroke-width="0.13" d="M28.954 8.762L28.954 13.605"/>
  <path stroke-width="0.13" d="M29.728 8.782L29.728 13.625"/>
  <path stroke-width="0.13" d="M30.512 8.685L30.512 13.528"/>
  <path stroke-width="0.13" d="M31.285 8.705L31.285 13.55"/>
  <path stroke-width="0.13" d="M32.079 8.756L32.079 13.599"/>
  <path stroke-width="0.13" d="M32.853 8.776L32.853 13.621"/>
  <path stroke-width="0.13" d="M33.686 8.685L33.686 12.31"/>
  <path stroke-width="0.13" d="M34.46 8.705L34.46 11.06"/>
  <path stroke-width="0.13" d="M34.46 12.367L34.46 13.55"/>
  <path stroke-width="0.13" d="M35.255 8.756L35.255 9.423"/>
  <path stroke-width="0.13" d="M35.255 10.946L35.255 13.599"/>
  <path stroke-width="0.13" d="M48.048 8.73L48.048 13.127"/>
  <path stroke-width="0.13" d="M47.276 8.689L47.276 13.534"/>
  <path stroke-width="0.13" d="M46.502 8.711L46.502 13.554"/>
  <path stroke-width="0.13" d="M45.707 8.762L45.707 13.605"/>
  <path stroke-width="0.13" d="M44.935 8.782L44.935 13.625"/>
  <path stroke-width="0.13" d="M44.152 8.685L44.152 13.528"/>
  <path stroke-width="0.13" d="M43.378 8.705L43.378 13.55"/>
  <path stroke-width="0.13" d="M42.584 8.756L42.584 13.599"/>
  <path stroke-width="0.13" d="M41.811 8.776L41.811 13.621"/>
  <path stroke-width="0.13" d="M40.975 8.685L40.975 13.528"/>
  <path stroke-width="0.13" d="M40.203 8.705L40.203 13.55"/>
  <path stroke-width="0.13" d="M39.408 8.756L39.408 13.599"/>
  <path stroke-width="0.13" d="M38.683 8.791L38.683 11.682"/>
  <g>
   <g>
    <g>
     <path stroke="#FFFFFF" stroke-width="1.411" stroke-linejoin="round" id="AUTOID_1516" d="M63.098 10.785L69.512 17.42"/>
     <path stroke="#FFFFFF" stroke-width="1.058" stroke-linejoin="round" id="AUTOID_1517" d="M62.756 12.497L60.029 7.581L64.847 10.474L62.756 12.497z"/>
    </g>
    <g>
     <path stroke="#FFFFFF" stroke-width="1.411" stroke-linejoin="round" id="AUTOID_1519" d="M63.098 10.785L69.677 17.594"/>
     <path stroke="#FFFFFF" stroke-width="1.058" stroke-linejoin="round" id="AUTOID_1520" d="M62.756 12.497L60.029 7.581L64.847 10.474L62.756 12.497z"/>
    </g>
   </g>
   <g>
    <path stroke-width="0.501" stroke-linejoin="round" id="AUTOID_1523" d="M63.098 10.785L69.162 17.059"/>
    <path stroke="none" fill="#000000" id="AUTOID_1524" d="M62.756 12.497L60.029 7.581 64.847 10.474 62.756 12.497 62.756 12.497z"/>
   </g>
  </g>
  <path stroke-width="0.25" d="M14.938 16.318C14.938 16.318 5.589 13.756 5.386 13.717C5.182 13.676 5.019 14.326 4.98 14.57C4.939 14.814 4.775 15.586 5.1 15.708C5.426 15.83 14.612 18.228 14.612 18.228"/>
  <path stroke-width="0.25" d="M15.06 20.545L10.955 19.692"/>
  <path stroke-width="0.25" d="M8.433 19.042C8.433 19.042 4.288 18.146 4.044 18.106C3.801 18.065 3.637 18.716 3.556 19.042C3.476 19.367 3.476 20.138 3.801 20.179C4.126 20.219 8.108 21.074 8.108 21.074"/>
  <path stroke-width="0.25" d="M7.865 18.838C7.865 18.838 8.313 18.472 9.125 18.635C9.938 18.798 10.711 18.797 10.833 19.245C10.955 19.692 10.955 19.692 10.955 19.692"/>
  <path stroke-width="0.25" d="M7.418 20.992C7.418 20.992 7.336 21.399 7.703 21.562C8.069 21.724 9.49 22.009 9.693 22.048C9.897 22.089 10.506 21.887 10.628 21.684L14.653 22.536"/>
  <path stroke-width="0.13" d="M5.024 15.695C5.118 15.71 5.261 15.281 5.343 14.737C5.424 14.192 5.415 13.739 5.32 13.724C5.225 13.711 5.083 14.141 5.001 14.685C4.919 15.23 4.929 15.682 5.024 15.695z"/>
  <path stroke-width="0.13" d="M14.611 18.23C14.752 18.25 14.932 17.826 15.015 17.282C15.096 16.737 15.048 16.278 14.907 16.259"/>
  <path stroke-width="0.13" d="M14.611 18.23L5.024 15.695"/>
  <path stroke-width="0.13" d="M14.907 16.259L5.32 13.724"/>
  <path stroke-width="0.13" d="M14.269 18.126C14.41 18.149 14.59 17.725 14.673 17.181C14.755 16.637 14.707 16.178 14.566 16.157"/>
  <path stroke-width="0.13" d="M13.73 18.022C13.871 18.044 14.051 17.62 14.132 17.076C14.214 16.532 14.166 16.074 14.025 16.051"/>
  <path stroke-width="0.13" d="M5.304 15.715C5.4 15.631 5.516 15.233 5.585 14.772C5.653 14.316 5.657 13.923 5.601 13.8"/>
  <path stroke-width="0.13" d="M5.971 15.868C6.067 15.784 6.182 15.385 6.251 14.926C6.32 14.47 6.325 14.077 6.267 13.952"/>
  <path stroke-width="0.13" d="M3.717 20.125C3.862 20.143 4.041 19.707 4.118 19.149C4.193 18.591 4.139 18.121 3.996 18.102C3.85 18.082 3.671 18.518 3.593 19.077C3.517 19.635 3.572 20.105 3.717 20.125z"/>
  <path stroke-width="0.13" d="M8.074 21.03C8.22 21.05 8.399 20.614 8.477 20.056C8.554 19.498 8.499 19.028 8.353 19.009"/>
  <path stroke-width="0.13" d="M8.066 21.03L8.074 21.03z"/>
  <path stroke-width="0.13" d="M8.074 21.03L3.717 20.125"/>
  <path stroke-width="0.13" d="M8.353 19.009L3.996 18.102"/>
  <path stroke-width="0.13" d="M7.653 20.943C7.798 20.963 7.977 20.527 8.054 19.969C8.13 19.41 8.074 18.94 7.932 18.92"/>
  <path stroke-width="0.13" d="M7.642 20.942L7.653 20.943z"/>
  <path stroke-width="0.13" d="M7.025 20.839C7.168 20.859 7.349 20.422 7.426 19.864C7.503 19.304 7.448 18.835 7.302 18.815"/>
  <path stroke-width="0.13" d="M7.017 20.836L7.025 20.839z"/>
  <path stroke-width="0.13" d="M4.897 20.35C5.041 20.37 5.222 19.934 5.299 19.376C5.376 18.818 5.322 18.349 5.176 18.327"/>
  <path stroke-width="0.13" d="M4.889 20.349L4.897 20.35z"/>
  <path stroke-width="0.13" d="M4.27 20.245C4.413 20.265 4.594 19.829 4.671 19.271C4.748 18.713 4.694 18.243 4.549 18.224"/>
  <path stroke-width="0.13" d="M4.261 20.245L4.27 20.245z"/>
  <path stroke-width="0.13" d="M7.522 20.916C7.5 21.082 7.378 21.468 7.743 21.571C8.111 21.675 9.592 22.042 9.887 22.042C10.185 22.042 10.359 21.92 10.464 21.832C10.568 21.745 10.935 21.257 10.97 20.525C11.005 19.792 10.83 19.217 10.83 19.217C10.83 19.217 10.743 18.887 10.064 18.763C9.382 18.641 8.477 18.312 7.814 18.896"/>
  <path stroke-width="0.13" d="M8.877 18.835L8.877 20.265"/>
  <path stroke-width="0.13" d="M10.568 21.189L9.156 20.943"/>
  <path stroke-width="0.13" d="M14.692 22.513C14.836 22.533 15.016 22.097 15.093 21.538C15.17 20.98 15.115 20.51 14.971 20.489"/>
  <path stroke-width="0.13" d="M14.682 22.51L14.692 22.513z"/>
  <path stroke-width="0.13" d="M14.692 22.513L10.605 21.663"/>
  <path stroke-width="0.13" d="M14.971 20.489L10.92 19.649"/>
  <path stroke-width="0.13" d="M14.269 22.425C14.414 22.445 14.593 22.009 14.67 21.451C14.746 20.891 14.692 20.422 14.548 20.402"/>
  <path stroke-width="0.13" d="M14.259 22.423L14.269 22.425z"/>
  <path stroke-width="0.13" d="M13.641 22.321C13.785 22.341 13.965 21.903 14.042 21.346C14.119 20.786 14.064 20.318 13.919 20.298"/>
  <path stroke-width="0.13" d="M13.632 22.318L13.641 22.321z"/>
  <path stroke-width="0.13" d="M11.515 21.832C11.66 21.853 11.839 21.416 11.916 20.856C11.992 20.298 11.938 19.83 11.792 19.809"/>
  <path stroke-width="0.13" d="M11.505 21.83L11.515 21.832z"/>
  <path stroke-width="0.13" d="M10.887 21.728C11.031 21.748 11.211 21.312 11.288 20.753C11.365 20.195 11.31 19.725 11.166 19.704"/>
  <path stroke-width="0.13" d="M10.878 21.725L10.887 21.728z"/>
  <path stroke-width="0.25" stroke-linejoin="round" d="M14.566 16.157C14.566 16.157 14.631 15.627 14.631 15.609C14.631 15.59 15.362 15.102 15.678 15.085C15.992 15.069 17.141 15.451 17.298 15.557C17.455 15.66 17.49 15.766 17.49 16.114C17.49 16.463 17.001 20.803 17.001 20.803"/>
  <path stroke-width="0.25" stroke-linejoin="round" d="M14.269 18.126L13.92 20.298"/>
  <path stroke-width="0.13" d="M18.359 19.187C18.501 19.21 18.681 18.785 18.763 18.24C18.844 17.696 18.797 17.239 18.655 17.217"/>
  <path stroke-width="0.13" d="M18.018 19.086C18.16 19.108 18.341 18.684 18.422 18.14C18.504 17.596 18.455 17.138 18.315 17.117"/>
  <path stroke-width="0.13" d="M17.478 18.983C17.618 19.004 17.8 18.579 17.881 18.035C17.963 17.492 17.914 17.033 17.774 17.012"/>
  <path stroke-width="0.25" stroke-linejoin="round" d="M18.655 17.217L17.42 16.928"/>
  <path stroke-width="0.25" stroke-linejoin="round" d="M18.359 19.187L17.205 18.957"/>
  <path stroke-width="0.13" d="M17.001 20.803C17.018 21.692 16.975 22.51 16.554 22.783C16.135 23.056 16.114 23.056 16.114 23.056C16.114 23.056 15.002 23.832 14.519 24.652C14.035 25.471 13.679 26.102 13.679 26.102C13.679 26.102 15.002 25.996 15.945 25.492"/>
  <path stroke-width="0.13" d="M17.771 23.092C17.911 23.114 18.092 22.69 18.175 22.146C18.257 21.603 18.208 21.143 18.068 21.123"/>
  <path stroke-width="0.13" d="M17.429 22.992C17.571 23.013 17.751 22.589 17.832 22.045C17.914 21.501 17.867 21.042 17.725 21.022"/>
  <path stroke-width="0.13" d="M16.89 22.888C17.03 22.908 17.211 22.484 17.294 21.94C17.375 21.396 17.327 20.939 17.187 20.917"/>
  <path stroke-width="0.25" stroke-linejoin="round" d="M18.068 21.123L17.004 20.876"/>
  <path stroke-width="0.25" stroke-linejoin="round" d="M17.771 23.092L16.454 22.849"/>
  <path stroke-width="0.13" d="M16.751 23.199C16.618 23.567 16.152 24.365 16.417 24.6C16.684 24.832 17.184 25.033 17.417 25.001C17.65 24.966 18.684 24.533 18.917 24.199C19.163 23.85 20.048 18.449 20.048 17.859C20.048 17.245 19.884 16.803 19.283 16.736C18.684 16.67 17.893 16.644 18.039 17.074"/>
  <path stroke-width="0.13" d="M19.117 17.734L18.35 23.367"/>
  <path stroke-width="0.25" stroke-linejoin="round" d="M7.487 28.332L7.089 28.166C7.089 28.166 7.753 24.199 7.788 24.199C7.822 24.199 8.221 23.867 7.788 23.667C7.355 23.466 5.121 22.3 5.822 20.835"/>
  <path stroke-width="0.13" d="M10.42 25.3C10.72 25.365 11.121 25.234 11.287 24.8C11.452 24.365 12.385 22.234 12.385 22.234L11.253 22.333L10.42 25.3z"/>
  <path stroke-width="0.13" d="M13.641 22.321C13.641 22.321 12.385 25.132 12.218 25.399C12.054 25.667 12.586 26.399 12.852 25.533C13.119 24.667 13.352 24.199 13.818 23.833C14.285 23.466 14.682 22.51 14.682 22.51"/>
  <path stroke-width="0.25" stroke-linejoin="round" d="M9.721 28.798L10.153 28.699L10.42 27.667C10.42 27.667 12.553 28.365 14.653 28.065C16.751 27.765 18.884 25.466 19.283 24.5"/>
  <path stroke-width="0.13" d="M9.631 28.78L9.721 28.798"/>
  <path stroke-width="0.13" d="M7.487 28.332L9.631 28.78"/>
  <path stroke-width="0.13" d="M10.42 27.667C9.153 27.265 9.119 26.233 9.221 25.966"/>
  <path stroke-width="0.25" stroke-linejoin="round" d="M20.053 18.332C21.346 18.89 21.455 19.975 20.873 22.518C20.757 23.027 20.833 23.986 20.794 24.782C20.748 25.704 21.269 26.687 22.064 27.998C22.574 28.839 23.056 28.751 23.564 29.032C23.564 29.032 24.673 29.009 25.059 28.963C25.445 28.917 25.445 28.917 25.445 28.917L25.513 28.577L25.649 28.397L25.649 27.376"/>
  <path stroke-width="0.13" d="M22.03 4.764C22.379 4.259 22.914 4.038 23.295 4.163C23.673 4.291 23.768 5.144 23.768 5.935C23.768 6.724 23.673 7.83 23.673 7.83C23.673 7.83 23.611 8.053 23.073 8.021C22.536 7.99 22.346 7.83 22.379 7.641C22.41 7.451 22.346 4.892 22.346 4.892"/>
  <path stroke-width="0.13" d="M19.913 5.935C19.943 5.365 20.355 5.269 20.702 5.238C21.05 5.206 21.46 5.49 21.681 6.25C21.903 7.009 22.504 9.157 22.472 9.157C22.44 9.157 22.315 9.663 21.809 9.632C21.303 9.6 21.207 9.57 21.207 9.57L20.798 7.387C20.798 7.387 20.292 5.775 19.913 5.935z"/>
  <path stroke-width="0.13" d="M21.582 5.966L22.37 5.964"/>
  <path stroke-width="0.13" d="M21.429 10.108C21.429 11.244 21.524 15.448 21.681 16.05C21.841 16.65 22.219 17.06 22.472 15.48C22.725 13.9 22.472 11.214 22.472 11.214"/>
  <path stroke-width="0.13" d="M23.611 8.336L23.926 15.48"/>
  <path stroke-width="0.13" d="M19.422 16.385L19.626 5.996"/>
 </g>
</svg>
