<?xml version="1.0" encoding="utf-8"?>
<!DOCTYPE svg PUBLIC "-//W3C//DTD SVG 1.1//EN" "http://www.w3.org/Graphics/SVG/1.1/DTD/svg11.dtd">
<!-- Generator: PTC Arbortext IsoDraw 7.3 -->
<svg width="100%" height="100%" viewBox="0 0 75 42.777"
 xmlns="http://www.w3.org/2000/svg" xmlns:xlink="http://www.w3.org/1999/xlink"
 fill-rule="evenodd" clip-rule="evenodd" stroke="#000000" stroke-linecap="round" fill="none" xml:space="preserve">
 <g id="Frame">
  <g>
  </g>
 </g>
 <g id="Standard_x0020_layer">
  <g>
   <path stroke-width="0.25" stroke-linejoin="round" d="M35.606 27.347C32.706 27.393 27.437 27.487 26.541 27.568C25.292 27.678 24.655 28.149 24.018 28.87C23.379 29.591 22.353 30.146 21.493 30.146C20.635 30.146 17.528 30.146 16.698 30.146C15.865 30.146 14.978 29.925 14.646 29.757"/>
   <path stroke-width="0.3" stroke-linejoin="round" d="M35.606 27.347C36.746 27.329 37.52 27.318 37.52 27.318C37.52 19.582 36.909 12.012 36.909 12.012C36.909 12.012 37.353 6.578 37.353 4.915C37.353 3.25 36.301 2.947 35.884 2.835C35.469 2.725 35.384 1.948 35.107 1.56C34.831 1.171 34.109 1.006 33.694 1.504C33.277 2.004 32.335 3.029 30.588 3.972C28.841 4.915 26.763 5.607 26.347 5.775C25.931 5.94 25.902 6.19 25.957 6.411C26.013 6.634 26.207 6.995 26.207 6.995C23.907 7.078 20.829 7.604 19.443 8.021C18.056 8.436 17.251 9.212 16.891 10.071C16.891 10.071 15.893 10.071 15.615 10.071C15.339 10.071 15.089 10.571 14.811 11.265C14.535 11.958 14.728 12.596 15.06 12.596C15.394 12.596 16.088 12.621 16.088 12.621C15.339 15.949 14.923 20.496 14.923 20.496C14.48 20.553 14.202 20.914 14.202 21.108C14.202 21.301 14.618 21.44 14.618 21.44L14.618 22.605C14.618 22.605 14.368 22.605 14.368 22.853C14.368 23.103 14.368 23.242 14.368 23.519C14.368 23.797 14.673 23.936 14.673 23.936L14.673 24.878C14.673 24.878 14.396 25.016 14.396 25.376C14.396 25.737 14.646 25.96 14.646 25.96L14.646 26.929C14.646 26.929 14.368 27.013 14.368 27.457C14.368 27.9 14.589 27.955 14.589 27.955L14.589 29.147C14.368 29.341 14.313 29.591 14.646 29.757"/>
   <path stroke-width="0.3" stroke-linejoin="round" d="M14.673 29.841C14.894 30.036 14.839 30.562 14.589 30.618C14.34 30.673 14.23 30.868 14.23 31.172C14.23 31.478 14.451 31.588 14.451 31.588L14.451 32.531C14.451 32.531 14.23 32.808 14.23 33.17C14.23 33.53 14.506 33.64 14.506 33.64L14.506 34.029C14.506 34.029 13.814 34.057 13.814 34.667C13.814 34.667 13.814 35.109 13.814 35.442C13.814 35.776 14.201 36.247 14.535 36.469C14.535 36.469 14.756 37.024 15.31 37.244C15.865 37.466 17.335 37.993 18.277 37.993C19.221 37.993 22.103 37.993 22.103 37.993C22.103 37.993 22.271 38.216 22.548 38.216C22.824 38.216 23.074 37.938 23.074 37.328C23.074 36.719 23.074 34.667 23.463 33.53C23.85 32.393 25.236 29.536 26.873 29.536C28.509 29.536 29.367 29.536 30.561 29.536C31.753 29.536 32.584 30.009 33.554 31.394C34.524 32.781 35.162 34.584 35.162 35.582C35.162 36.579 35.162 37.744 35.162 37.993C35.162 38.243 35.634 38.243 35.634 38.243C35.634 38.243 35.744 38.409 35.966 38.409C36.189 38.409 36.244 38.133 36.244 37.523C36.244 36.912 36.243 34.305 35.606 32.448C34.969 30.591 34.497 30.091 34.497 30.091L35.634 28.817L35.634 27.457"/>
   <path stroke-width="0.25" stroke-linejoin="round" d="M22.021 37.883C22.021 36.109 22.103 33.752 22.548 32.42C22.99 31.089 24.626 28.15 26.844 28.15C29.062 28.15 30.254 28.15 31.42 28.15C32.585 28.15 33.637 28.899 34.497 30.091"/>
   <path stroke-width="0.25" stroke-linejoin="round" d="M30.477 28.123L30.283 27.597"/>
   <path stroke-width="0.25" stroke-linejoin="round" d="M16.974 10.096C16.974 10.096 17.583 10.096 17.972 10.096C18.361 10.096 18.666 10.317 18.666 10.678C18.666 11.038 18.666 11.541 18.666 11.931C18.666 12.319 18.416 12.596 17.917 12.596C17.417 12.596 16.198 12.596 16.198 12.596"/>
   <path stroke-width="0.25" stroke-linejoin="round" d="M20.051 14.952C19.664 14.952 18.943 15.256 18.859 15.756C18.775 16.256 18.666 17.614 18.721 18.335C18.775 19.056 18.803 19.554 19.303 19.777C19.801 19.998 20.661 19.888 20.772 19.306C20.884 18.724 20.8 16.172 20.69 15.618C20.579 15.063 20.385 14.952 20.051 14.952z"/>
   <path stroke-width="0.25" stroke-linejoin="round" d="M19.164 14.647L19.524 15.035"/>
   <path stroke-width="0.25" stroke-linejoin="round" d="M18.582 15.285L18.943 15.451"/>
   <path stroke-width="0.25" stroke-linejoin="round" d="M18.638 18.224L17.777 18.057"/>
   <path stroke-width="0.25" stroke-linejoin="round" d="M18.748 19.277L17.64 19.332"/>
   <path stroke-width="0.131" stroke-linejoin="round" d="M17.917 12.596L17.196 20.137"/>
   <path stroke-width="0.131" stroke-linejoin="round" d="M14.977 20.553L18.609 19.998"/>
   <path stroke-width="0.131" stroke-linejoin="round" d="M18.138 18.03L18.609 12.374"/>
   <path stroke-width="0.131" stroke-linejoin="round" d="M18.083 19.388C18.083 19.388 17.861 22.245 17.861 23.908C17.861 25.571 17.861 30.062 17.861 30.062"/>
   <path stroke-width="0.131" stroke-linejoin="round" d="M19.082 14.537C18.832 14.397 18.277 14.925 18.443 15.23"/>
   <path stroke-width="0.131" stroke-linejoin="round" d="M17.667 18.057C17.335 18.057 17.224 19.388 17.528 19.388"/>
   <path stroke-width="0.25" stroke-linejoin="round" d="M18.888 19.638C18.748 19.888 18.666 20.137 18.666 20.137"/>
   <path stroke-width="0.25" stroke-linejoin="round" d="M20.024 20.025C20.024 20.193 19.913 20.414 19.913 20.414"/>
   <path stroke-width="0.131" stroke-linejoin="round" d="M18.693 20.275C18.638 20.58 19.774 20.885 19.913 20.553"/>
   <path stroke-width="0.131" stroke-linejoin="round" d="M20.856 19.417C20.856 19.417 28.365 18.367 30.365 18.001C32.945 17.53 33.582 16.394 33.582 14.148C33.582 14.148 33.527 12.734 33.36 12.374C33.194 12.013 32.889 12.013 32.584 12.013C32.279 12.013 29.867 12.013 29.617 12.013C29.367 12.013 29.257 12.291 29.257 12.484C29.257 12.679 29.257 17.227 29.257 17.559C29.257 17.891 29.589 18.057 29.589 18.057"/>
   <path stroke-width="0.131" stroke-linejoin="round" d="M20.245 19.943C20.245 19.943 29.312 18.612 31.114 18.307C32.917 18.001 33.804 16.338 33.804 14.869C33.804 13.4 33.72 11.515 33.027 11.515C32.335 11.515 19.053 11.487 19.053 11.487C18.666 11.487 18.748 11.016 19.858 11.016C20.966 11.016 36.326 11.016 36.326 11.016"/>
   <path stroke-width="0.131" stroke-linejoin="round" d="M29.644 11.614C29.312 11.614 28.98 11.917 28.98 12.278C28.98 12.64 28.98 17.326 28.98 17.629C28.98 17.934 29.228 18.129 29.228 18.129"/>
   <path stroke-width="0.131" stroke-linejoin="round" d="M19.164 9.49C20.219 9.074 24.071 8.548 29.007 8.548C31.53 8.548 32.972 8.548 33.637 8.907C34.302 9.269 35.191 10.266 35.384 11.458C35.579 12.651 35.801 15.618 35.966 19.277C36.133 22.937 36.049 27.263 36.049 27.263"/>
   <path stroke-width="0.25" stroke-linejoin="round" d="M26.207 6.993C27.704 6.884 31.475 6.718 32.695 6.828C33.914 6.939 34.247 7.355 34.969 8.076C35.689 8.797 36.466 9.878 36.521 10.266C36.576 10.654 36.383 11.099 36.826 11.903"/>
   <path stroke-width="0.201" stroke-linejoin="round" d="M27.067 18.501C27.067 18.501 27.538 13.289 27.565 12.789C27.594 12.291 27.233 11.986 26.678 11.986C26.123 11.986 20.55 11.986 20.051 11.986C19.553 11.986 19.359 12.401 19.359 12.762C19.359 13.122 19.219 14.564 19.219 14.564"/>
   <path stroke-width="0.131" stroke-linejoin="round" d="M28.425 11.127L28.259 27.457"/>
   <path stroke-width="0.131" stroke-linejoin="round" d="M35.439 21.606C35.439 21.606 18.111 22.771 17.446 22.826C16.78 22.882 16.399 22.579 16.364 22.05C16.336 21.635 16.835 21.579 17.196 21.551C17.556 21.524 35.468 20.166 35.468 20.166"/>
   <path stroke-width="0.131" stroke-linejoin="round" d="M35.606 22.245C35.606 22.245 26.373 22.743 25.513 22.826C24.655 22.91 24.239 23.464 23.85 23.963C23.461 24.463 23.074 25.129 22.936 25.544C22.797 25.96 23.184 26.376 23.766 26.376C24.35 26.376 30.393 26.458 35.051 26.431"/>
   <path stroke-width="0.131" stroke-linejoin="round" d="M28.204 26.708C28.204 26.708 26.484 26.681 25.679 26.708C24.876 26.736 24.265 27.373 23.518 27.984C22.768 28.594 22.214 29.149 21.66 29.149C21.106 29.149 18.027 29.149 18.027 29.149"/>
   <path stroke-width="0.25" stroke-linejoin="round" d="M17.362 25.46C17.474 25.544 17.474 25.765 17.474 25.765C17.474 25.765 17.528 28.704 17.528 29.204C17.528 29.702 17.112 29.897 16.42 29.87"/>
   <path stroke-width="0.131" stroke-linejoin="round" d="M17.251 25.46C16.974 25.682 16.89 25.987 16.89 26.431C16.89 26.875 16.89 28.649 16.89 29.038C16.89 29.425 16.641 29.565 16.336 29.565C16.032 29.565 15.477 29.786 15.755 29.981"/>
   <path stroke-width="0.3" stroke-linejoin="round" d="M34.664 30.201L54.073 30.202"/>
   <path stroke-width="0.3" stroke-linejoin="round" d="M52.77 30.091L53.463 28.371L50.246 28.371L50.246 26.652C50.246 26.652 51.466 26.486 54.1 26.486C56.734 26.486 62.692 26.762 65.939 27.762C67.021 28.094 66.578 28.731 65.855 28.731C65.135 28.731 61.031 28.731 61.031 28.731"/>
   <path stroke-width="0.3" stroke-linejoin="round" d="M63.637 30.202L70.875 30.202L70.875 33.972L66.147 33.972"/>
   <path stroke-width="0.131" stroke-linejoin="round" d="M30.033 23.768C30.033 23.103 30.754 22.964 31.336 22.91C31.919 22.853 33.305 22.798 34.109 22.798C34.914 22.798 35.246 23.214 35.246 23.713C35.246 24.213 35.246 24.878 35.246 25.21C35.246 25.544 34.857 26.126 34.22 26.126C33.582 26.126 31.641 26.097 30.977 26.071C30.31 26.042 30.062 25.571 30.062 25.155C30.062 24.739 30.033 23.768 30.033 23.768z"/>
   <path stroke-width="0.131" stroke-linejoin="round" d="M28.26 22.903C28.26 22.903 26.951 23.007 26.628 23.021C26.304 23.036 26.039 23.375 25.82 23.682C25.599 23.992 25.129 24.786 25.879 24.8C26.628 24.815 28.185 24.771 28.185 24.771"/>
   <path stroke-width="0.131" stroke-linejoin="round" d="M27.128 23.198C26.907 23.198 26.583 23.434 26.408 23.728C26.231 24.021 26.01 24.623 26.274 24.623C26.539 24.623 26.628 24.623 26.789 24.623C26.951 24.623 27.039 24.315 27.083 24.123C27.128 23.932 27.347 23.198 27.128 23.198z"/>
   <path stroke-width="0.131" stroke-linejoin="round" d="M27.172 23.3C26.995 23.55 26.774 24.227 26.966 24.3"/>
   <path stroke-width="0.131" stroke-linejoin="round" d="M26.818 23.3C26.643 23.609 26.583 23.815 26.495 24.079C26.408 24.344 26.187 24.373 26.187 24.373"/>
   <path stroke-width="0.131" stroke-linejoin="round" d="M23.262 29.635L23.262 30.804"/>
   <path stroke-width="0.131" stroke-linejoin="round" d="M23.152 31.024L14.42 31.024"/>
   <path stroke-width="0.131" stroke-linejoin="round" d="M14.442 31.356C14.442 31.356 17.044 31.356 17.265 31.356C17.484 31.356 17.55 31.532 17.55 31.708C17.55 31.885 17.55 33.252 17.55 33.429C17.55 33.604 17.396 33.649 17.286 33.649C17.176 33.649 15.06 33.649 14.928 33.649C14.794 33.649 14.707 33.494 14.707 33.317C14.707 33.142 14.707 32.171 14.707 31.928C14.707 31.687 14.884 31.731 15.038 31.731C15.192 31.731 17 31.731 17.176 31.731C17.353 31.731 17.353 31.928 17.353 31.995C17.353 32.061 17.353 33.119 17.353 33.229C17.353 33.34 17.199 33.362 17.088 33.362C16.978 33.362 14.861 33.362 14.861 33.362"/>
   <path stroke-width="0.131" stroke-linejoin="round" d="M17.771 30.32C17.771 30.32 17.771 36.383 17.771 36.758C17.771 37.133 18.169 37.308 18.169 37.308C18.169 37.308 20.263 37.75 21.939 37.881"/>
   <path stroke-width="0.131" stroke-linejoin="round" d="M17.771 36.758L21.939 36.758"/>
   <path stroke-width="0.131" stroke-linejoin="round" d="M17.838 32.92L22.292 32.921"/>
   <path stroke-width="0.131" stroke-linejoin="round" d="M17.728 34.067L14.553 34.067"/>
   <path stroke-width="0.201" stroke-linejoin="round" d="M30.865 35.918C30.865 36.893 30.076 37.682 29.102 37.682C28.128 37.682 27.338 36.893 27.338 35.918C27.338 34.945 28.128 34.155 29.102 34.155C30.076 34.155 30.865 34.945 30.865 35.918z"/>
   <path stroke-width="0.201" stroke-linejoin="round" d="M32.6 35.918C32.6 37.851 31.033 39.417 29.102 39.417C27.17 39.417 25.603 37.851 25.603 35.918C25.603 33.985 27.17 32.42 29.102 32.42C31.033 32.42 32.6 33.985 32.6 35.918z"/>
   <path stroke-width="0.3" stroke-linejoin="round" d="M34.771 35.918C34.771 39.051 32.232 41.588 29.102 41.588C25.971 41.588 23.431 39.051 23.431 35.918C23.431 32.786 25.971 30.248 29.102 30.248C32.232 30.248 34.771 32.786 34.771 35.918z"/>
   <path stroke-width="0.201" stroke-linejoin="round" d="M60.722 35.918C60.722 36.893 59.932 37.682 58.959 37.682C57.984 37.682 57.195 36.893 57.195 35.918C57.195 34.945 57.984 34.155 58.959 34.155C59.932 34.155 60.722 34.945 60.722 35.918z"/>
   <path stroke-width="0.201" stroke-linejoin="round" d="M62.457 35.918C62.457 37.851 60.89 39.417 58.959 39.417C57.026 39.417 55.46 37.851 55.46 35.918C55.46 33.985 57.026 32.42 58.959 32.42C60.89 32.42 62.457 33.985 62.457 35.918z"/>
   <path stroke-width="0.3" stroke-linejoin="round" d="M64.629 35.918C64.629 39.051 62.09 41.588 58.959 41.588C55.826 41.588 53.287 39.051 53.287 35.918C53.287 32.786 55.826 30.248 58.959 30.248C62.09 30.248 64.629 32.786 64.629 35.918z"/>
   <path stroke-width="0.3" stroke-linejoin="round" d="M51.573 35.918C51.573 31.839 54.88 28.533 58.959 28.533C63.036 28.533 66.343 31.839 66.343 35.918L65.533 35.918C65.533 32.286 62.588 29.344 58.959 29.344C55.326 29.344 52.384 32.286 52.384 35.918L51.573 35.918z"/>
   <path stroke-width="0.3" stroke-linejoin="round" d="M65.903 36.03L65.882 38.963"/>
   <path stroke-width="0.3" stroke-linejoin="round" d="M51.969 36.051L51.814 37.618L36.337 37.618"/>
   <g>
    <path stroke="#FFFFFF" stroke-width="0.501" stroke-linejoin="round" fill="#FFFFFF" d="M30.696 26.393L30.696 17.397 27.638 17.397 27.638 26.393 25.925 26.393 29.167 29.635 32.411 26.393 30.696 26.393z"/>
    <path stroke="none" fill="#000000" d="M25.925 26.393L29.167 29.635 32.411 26.393 25.925 26.393z"/>
    <path stroke-width="0.201" stroke-linejoin="round" d="M30.696 26.393L30.696 17.397L27.638 17.397L27.638 26.393L25.925 26.393L29.167 29.635L32.411 26.393L30.696 26.393z"/>
    <g>
     <path stroke-width="0.088" stroke-linejoin="round" id="AUTOID_2572" d="M27.731 17.745L30.606 17.745"/>
     <path stroke-width="0.12" stroke-linejoin="round" d="M27.731 18.411L30.606 18.411"/>
     <path stroke-width="0.152" stroke-linejoin="round" d="M27.731 19.077L30.606 19.077"/>
     <path stroke-width="0.183" stroke-linejoin="round" d="M27.731 19.742L30.606 19.742"/>
     <path stroke-width="0.215" stroke-linejoin="round" d="M27.731 20.408L30.606 20.408"/>
     <path stroke-width="0.247" stroke-linejoin="round" d="M27.731 21.074L30.606 21.074"/>
     <path stroke-width="0.279" stroke-linejoin="round" d="M27.731 21.74L30.606 21.74"/>
     <path stroke-width="0.31" stroke-linejoin="round" d="M27.731 22.407L30.606 22.407"/>
     <path stroke-width="0.342" stroke-linejoin="round" d="M27.731 23.073L30.606 23.073"/>
     <path stroke-width="0.374" stroke-linejoin="round" d="M27.731 23.737L30.606 23.739"/>
     <path stroke-width="0.406" stroke-linejoin="round" d="M27.768 24.403L30.57 24.405"/>
     <path stroke-width="0.437" stroke-linejoin="round" d="M27.768 25.07L30.57 25.07"/>
     <path stroke-width="0.469" stroke-linejoin="round" d="M27.768 25.736L30.57 25.736"/>
     <path stroke-width="0.501" stroke-linejoin="round" id="AUTOID_2585" d="M27.731 26.402L30.606 26.402"/>
    </g>
   </g>
   <g>
    <path stroke="#FFFFFF" stroke-width="0.501" stroke-linejoin="round" d="M60.466 26.393L60.466 17.397L57.408 17.397L57.408 26.393L55.694 26.393L58.936 29.635L62.179 26.393L60.466 26.393z"/>
    <path stroke-width="0.201" stroke-linejoin="round" d="M60.466 26.393L60.466 17.397L57.408 17.397L57.408 26.393L55.694 26.393L58.936 29.635L62.179 26.393L60.466 26.393z"/>
    <path stroke="none" fill="#000000" d="M60.466 26.393L60.466 17.397 57.408 17.397 57.408 26.393 55.694 26.393 58.936 29.635 62.179 26.393 60.466 26.393z"/>
   </g>
   <path stroke-width="0.131" stroke-linejoin="round" d="M1.765 41.631L70.733 41.631"/>
   <path stroke-width="1.002" stroke-linecap="butt" stroke-linejoin="round" id="AUTOID_2593" d="M5.06 8.521L11.234 10.169"/>
   <path stroke-width="1.002" stroke-linecap="butt" stroke-linejoin="round" id="AUTOID_2594" d="M9.308 6.009L7.484 13.353"/>
   <path stroke-width="0.25" stroke-linejoin="round" d="M14.71 4.339C10.589 6.219 6.903 8.884 3.838 12.138L2.722 11.268L2.758 15.409L6.785 14.439L5.684 13.58C8.497 10.631 11.855 8.207 15.605 6.484"/>
  </g>
 </g>
 <g id="Picture_x0020_#">
  <g>
   <text transform="matrix(0 -1 1 0 73.814 41.764)" stroke="none" fill="#000000" font-family="'Helvetica'" font-size="2.117">304 924</text>
  </g>
 </g>
</svg>
