<?xml version="1.0" encoding="utf-8"?>
<!DOCTYPE svg PUBLIC "-//W3C//DTD SVG 1.1//EN" "http://www.w3.org/Graphics/SVG/1.1/DTD/svg11.dtd">
<!-- Generator: PTC Arbortext IsoDraw 7.3 -->
<svg id="Standard_x0020_layer" width="100%" height="100%" viewBox="0 0 74.945 73.977"
 xmlns="http://www.w3.org/2000/svg" xmlns:xlink="http://www.w3.org/1999/xlink"
 fill-rule="evenodd" clip-rule="evenodd" stroke="#000000" stroke-linecap="round" fill="none" xml:space="preserve">
 <path stroke-width="0.131" stroke-linejoin="round" d="M22.356 44.959C22.304 44 21.492 43.24 20.495 43.24C19.556 43.24 18.777 43.917 18.65 44.799"/>
 <path stroke-width="0.25" stroke-linejoin="round" d="M15.451 6.254C15.451 6.254 21.301 4.078 22.913 3.484C24.524 2.891 27.605 2.919 28.594 6.791"/>
 <path stroke-width="0.25" stroke-linejoin="round" d="M23.986 7.498C23.986 7.498 23.902 6.961 23.309 7.243C22.716 7.527 17.231 9.477 17.231 9.477"/>
 <path stroke-width="0.25" stroke-linejoin="round" d="M12.278 4.791C12.794 4.823 14.231 4.988 15.055 5.859C16.073 6.932 16.78 8.092 17.289 9.788C17.798 11.484 17.826 11.257 17.826 11.257C17.826 11.257 18.532 11.541 18.561 11.71C18.588 11.88 18.588 11.88 18.588 11.88C18.588 11.88 18.984 11.823 19.097 11.964C19.21 12.105 19.408 12.359 19.324 12.698C19.239 13.038 19.379 13.179 19.379 13.179L19.606 13.15L19.775 13.433"/>
 <path stroke-width="0.25" stroke-linejoin="round" d="M0.142 2.272C2.29 2.272 6.774 3.796 6.971 8.487C7.169 13.179 7.227 13.519 7.227 13.519L7.339 13.689L7.469 15.912L7.961 16.233L7.99 16.798C7.99 16.798 7.623 16.939 7.453 16.966C7.283 16.995 7.142 17.39 7.142 18.239C7.142 19.086 7.028 20.5 7.028 20.783C7.028 21.065 7.028 21.432 7.565 21.432L7.594 21.942C7.594 21.942 7.142 21.914 7.142 22.478C7.142 23.044 7.791 42.829 7.791 43.819C7.791 44.807 7.65 46.079 7.028 46.701C6.407 47.323 6.351 47.465 6.351 47.832C6.351 48.2 6.237 55.21 6.237 56.311C6.237 57.414 6.04 58.093 5.785 58.771C5.53 59.45 2.224 65.272 1.827 65.894C1.433 66.516 0.606 67.397 0.125 67.397"/>
 <path stroke-width="0.25" stroke-linejoin="round" d="M9.589 9.871C10.064 9.654 10.577 9.477 10.874 9.378C11.169 9.279 11.585 9.063 11.861 8.984C12.137 8.904 12.691 8.707 12.967 9.359C13.243 10.009 13.698 11.037 13.836 11.51C13.836 11.51 14.172 12.458 13.776 12.775C13.381 13.09 13.698 13.564 13.993 13.465C13.993 13.465 13.125 13.742 13.323 14.137C13.519 14.532 13.566 14.496 13.566 14.496C13.566 14.496 12.849 14.631 12.73 15.064C12.612 15.5 12.118 16.289 12.079 16.428C12.038 16.565 12.019 17.257 12.019 17.257L12.335 17.335"/>
 <path stroke-width="0.25" stroke-linejoin="round" d="M13.894 17.868C13.894 17.868 14.625 18.067 14.823 18.126C15.021 18.184 15.593 18.323 15.672 19.567C15.75 20.812 15.929 23.457 15.929 23.891C15.929 24.326 15.929 24.207 15.929 24.207L19.878 26.833L20.687 26.833L20.667 26.359C20.667 26.359 21.26 25.826 22.524 25.847C23.788 25.867 23.393 25.847 23.669 25.847C23.946 25.847 25.21 26.123 25.347 26.42L25.327 26.754L25.745 26.888C25.745 26.888 25.786 29.179 25.786 29.405C25.786 29.629 25.623 29.896 25.46 29.896C25.295 29.896 24.989 29.916 24.989 29.916L24.969 30.713C24.969 30.713 24.478 30.96 24.518 31.266L24.253 31.286C24.253 31.286 24.253 32.515 24.253 33.456C24.253 34.396 24.088 36.545 23.291 36.667"/>
 <path stroke-width="0.25" stroke-linejoin="round" d="M14.776 17.437C14.776 17.437 15.602 17.5 15.85 17.519C16.099 17.541 16.202 17.623 16.202 17.891C16.202 18.161 16.202 18.512 16.202 18.512C16.202 18.512 16.676 18.676 16.905 18.76C17.132 18.843 17.751 19.091 17.771 20.185L17.937 22.582C17.937 22.768 17.978 23.966 17.978 23.966"/>
 <path stroke-width="0.25" stroke-linejoin="round" d="M23.92 66.778C23.92 66.778 32.453 65.593 32.68 65.456C32.908 65.319 32.908 65.319 32.908 65.319"/>
 <path stroke-width="0.25" stroke-linejoin="round" d="M25.289 65.046L23.19 66.596L19.312 61.668L17.989 61.805C17.989 61.805 17.67 65.957 17.897 66.231C18.126 66.506 20.134 69.289 20.727 69.927C21.32 70.566 22.096 71.067 23.327 70.93C24.559 70.795 35.008 69.105 35.008 69.105L34.929 65.599C34.929 65.599 34.981 65.109 34.682 64.811C34.383 64.51 34.049 64.132 33.32 63.402C32.59 62.673 30.719 61.304 30.719 61.304L30.765 60.847C30.765 60.847 30.829 60.051 30.829 59.686C30.829 59.604 30.579 59.668 30.655 59.615C31.003 59.372 31.181 58.737 31.079 58.177C31.039 57.954 30.861 57.92 30.737 57.848C30.702 57.213 29.897 57.015 29.897 57.015L29.897 55.145C30.628 54.825 30.49 54.323 30.445 53.776C30.399 53.228 29.714 53.182 29.714 53.182L29.714 50.81C30.216 50.81 30.536 50.399 30.809 49.761C31.083 49.121 30.809 48.073 30.809 48.073L30.809 45.7C30.809 45.7 30.49 41.274 30.49 40.771C30.49 40.27 30.673 39.585 30.673 39.585C30.673 39.585 31.539 39.084 32.088 38.536C32.636 37.988 32.27 37.121 32.042 36.802C31.814 36.482 30.582 35.798 30.582 35.798L30.8 34.152C32.155 33.671 32.383 32.005 32.383 31.297C32.383 30.591 32.439 26.521 32.439 25.955C32.439 25.39 32.353 25.108 32.1 25.108C31.846 25.108 30.827 24.966 30.827 24.966L30.8 23.496C30.8 23.496 31.082 23.44 31.195 23.298C31.307 23.158 31.731 22.676 32.128 22.082C32.524 21.489 32.24 21.065 31.986 20.528C31.733 19.992 30.884 19.85 30.884 19.85C30.8 19.399 30.827 16.146 30.827 15.752C30.827 15.355 30.714 14.507 30.714 14.507C30.714 14.507 30.913 14.423 31.111 14.282C31.309 14.141 32.329 13.124 32.326 12.332C32.32 11.442 31.817 11.285 31.506 11.144C31.195 11.003 30.686 10.89 30.686 10.89C30.686 10.89 30.347 7.583 30.347 7.413C30.347 7.243 30.489 7.158 30.036 7.073C29.583 6.99 28.143 6.876 26.87 6.905C25.599 6.932 23.62 7.527 23.591 7.782L23.62 11.201L23.564 11.484L23.647 14.65L23.818 14.932L23.62 15.214L23.676 19.51L23.818 19.794L23.62 19.992L23.535 22.478L23.253 22.451L22.771 22.027L22.207 22.14L21.981 21.772L20.425 16.175L20.51 15.807C20.567 15.582 19.775 13.433 19.775 13.433"/>
 <path stroke-width="0.25" stroke-linejoin="round" d="M5.214 60.118C5.214 60.118 5.533 62.445 5.762 62.673C5.99 62.901 6.262 62.854 6.262 62.854L16.437 63.402C16.437 63.402 16.556 64.796 16.731 65.43C16.907 66.063 17.294 67.013 17.329 67.153C17.364 67.295 16.871 69.194 16.696 69.405"/>
 <path stroke-width="0.25" stroke-linejoin="round" d="M8.224 67.418C8.224 67.418 8.055 65.713 8.055 65.304C8.055 64.893 7.75 64.317 6.594 64.453C5.081 64.632 2.705 65.045 2.705 65.045L2.522 64.816"/>
 <path stroke-width="0.25" stroke-linejoin="round" d="M13.391 51.965C13.391 51.965 14.413 52.151 15.651 52.801C16.89 53.451 17.23 54.008 17.23 54.008C17.23 54.008 17.388 54.344 17.579 54.344C17.771 54.344 18.106 54.344 18.321 54.344C18.536 54.344 18.775 54.415 18.775 54.415"/>
 <path stroke-width="0.25" stroke-linejoin="round" d="M18.312 40.527C18.277 40.542 16.641 40.542 16.641 40.542L15.868 42.957C15.868 42.957 15.836 44.844 15.836 45.155C15.836 45.465 15.899 45.774 15.249 45.96C14.599 46.146 13.452 47.167 13.391 48.189C13.329 49.21 13.236 51.965 13.329 52.337C13.422 52.707 13.266 52.862 13.051 52.862C12.833 52.862 12.153 52.924 11.967 52.924C11.781 52.924 11.811 53.079 11.811 53.079C11.811 53.079 12.554 54.008 12.647 54.411C12.74 54.813 12.586 55.246 12.524 56.082C12.461 56.917 11.967 57.351 10.884 57.383C9.8 57.412 9.644 56.423 9.644 56.174C9.644 55.927 9.644 55.154 9.644 54.411C9.644 53.667 10.141 53.606 10.141 53.606L10.016 52.832C10.016 52.832 9.614 52.677 9.118 52.491C8.624 52.305 8.624 51.192 8.624 50.664C8.624 50.139 8.624 46.146 8.624 46.146L8.932 45.712L8.899 43.101"/>
 <path stroke-width="0.25" stroke-linejoin="round" d="M18.423 47.524L18.251 42.274L18.376 42.027C18.376 42.027 17.972 30.945 18.004 30.079C18.027 29.432 18.359 29.301 18.527 29.277"/>
 <path stroke-width="0.25" stroke-linejoin="round" d="M14.971 46.176C14.971 46.176 15.775 46.392 16.579 46.795C17.196 47.103 18.754 48.017 19.068 48.17C19.068 48.17 19.682 48.384 19.958 48.569C20.236 48.753 20.327 48.906 20.358 48.938"/>
 <path stroke-width="0.25" stroke-linejoin="round" d="M23.515 42.305L23.699 44.783L23.515 44.936L23.515 45.649L23.297 45.649L23.173 46.329L21.936 46.454L21.78 46.981L21.78 47.878L21.966 48.621L23.205 48.595L23.608 49.209L25.806 49.033L26.213 49.378L29.565 49.128C29.565 49.128 29.972 48.595 29.878 47.28C29.783 45.963 29.533 45.619 29.533 45.619"/>
 <path stroke-width="0.131" stroke-linejoin="round" d="M26.635 11.041L27.448 11.497L27.408 12.577L26.661 13.021"/>
 <path stroke-width="0.131" stroke-linejoin="round" d="M26.39 11.746L26.388 11.458L27.368 11.497"/>
 <path stroke-width="0.131" stroke-linejoin="round" d="M27.408 12.577C27.35 12.577 26.396 12.592 26.396 12.592L26.378 12.259"/>
 <path stroke-width="0.131" stroke-linejoin="round" d="M26.388 11.458L25.661 11.034"/>
 <path stroke-width="0.131" stroke-linejoin="round" d="M26.396 12.592L26.035 12.968"/>
 <path stroke-width="0.25" stroke-linejoin="round" d="M27.114 13.714C26.812 13.699 26.538 13.525 26.338 13.253L26.234 12.996L25.661 12.984L25 12.355L25.416 12.323L25.384 11.858L24.968 11.842L25.661 11.034L26.338 11.051L26.335 11.003C26.544 10.714 26.833 10.537 27.153 10.537L30.782 10.929"/>
 <path stroke-width="0.131" stroke-linejoin="round" d="M27.153 10.537C27.792 10.537 28.31 11.247 28.31 12.125C28.31 13.003 27.792 13.714 27.153 13.714C27.14 13.714 27.126 13.714 27.114 13.714"/>
 <path stroke-width="0.25" stroke-linejoin="round" d="M30.943 19.931C30.285 19.931 27.559 20.024 27.559 20.024C27.559 20.024 27.12 19.867 26.838 19.899C26.556 19.931 26.024 20.088 26.024 20.556L25.556 20.532L24.978 20.832L24.829 21.778L25.428 22.518L26.03 22.564C26.03 22.564 26.181 23.189 26.777 23.157C27.371 23.126 27.371 23.126 27.371 23.126L28.03 23.157"/>
 <path stroke-width="0.131" stroke-linejoin="round" d="M23.957 35.875C23.957 35.875 24.396 35.75 24.833 35.218C25.272 34.686 25.679 32.712 25.71 31.428C25.742 30.143 25.804 24.975 25.804 24.975C25.804 24.975 25.742 24.474 25.585 24.065C25.429 23.658 25.46 23.376 24.96 23.346C24.458 23.315 23.8 23.315 23.8 23.315C23.8 23.315 23.643 22.809 23.253 22.451"/>
 <path stroke-width="0.131" stroke-linejoin="round" d="M25.931 25.068L30.827 24.966"/>
 <path stroke-width="0.25" stroke-linejoin="round" d="M25.71 29.266C25.71 29.266 24.426 29.329 23.58 29.329C22.734 29.329 20.792 29.361 20.792 29.361C20.792 29.361 17.817 29.141 17.347 29.141C16.876 29.141 16.408 29.329 16.408 29.329C16.408 29.329 16.189 29.37 16.053 29.512"/>
 <path stroke-width="0.25" stroke-linejoin="round" d="M21.67 28.484L21.638 27.042"/>
 <path stroke-width="0.25" stroke-linejoin="round" d="M24.269 28.39L24.269 27.074"/>
 <path stroke-width="0.25" stroke-linejoin="round" d="M23.504 42.249C23.439 42.265 23.4 42.165 23.298 42.173C22.891 42.206 22.704 42.268 22.704 42.268L22.734 46.277"/>
 <path stroke-width="0.131" stroke-linejoin="round" d="M24.253 31.286L23.268 31.24C23.268 31.24 23.204 35.845 23.204 36.128C23.204 36.409 23.551 42.247 23.551 42.247"/>
 <path stroke-width="0.25" stroke-linejoin="round" d="M23.515 45.649L25.429 45.746L25.961 45.557"/>
 <path stroke-width="0.131" stroke-linejoin="round" d="M24.396 25.978C24.396 25.102 24.364 24.315 23.8 23.315"/>
 <path stroke-width="0.131" stroke-linejoin="round" d="M22.047 27.074L22.047 28.484L23.707 28.484L23.739 27.044"/>
 <path stroke-width="0.131" stroke-linejoin="round" d="M20.687 26.833L21.106 26.919L25.649 26.856"/>
 <path stroke-width="0.131" stroke-linejoin="round" d="M21.045 27.044L21.045 28.39"/>
 <path stroke-width="0.131" stroke-linejoin="round" d="M20.01 28.515L21.67 28.579"/>
 <path stroke-width="0.131" stroke-linejoin="round" d="M25.053 26.887L25.053 28.297"/>
 <path stroke-width="0.131" stroke-linejoin="round" d="M25.554 26.919L25.524 28.39L24.333 28.454"/>
 <path stroke-width="0.131" stroke-linejoin="round" d="M20.23 28.327L20.23 27.138"/>
 <path stroke-width="0.131" stroke-linejoin="round" d="M26.917 19.902C27.55 19.902 28.062 20.631 28.062 21.53C28.062 22.429 27.55 23.16 26.917 23.16"/>
 <path stroke-width="0.131" stroke-linejoin="round" d="M27.686 22.751L29.44 22.721L29.94 23.379"/>
 <path stroke-width="0.131" stroke-linejoin="round" d="M28.062 22.751L28.437 23.536L30.8 23.496"/>
 <path stroke-width="0.131" stroke-linejoin="round" d="M25.926 22.321L26.056 22.157L26.118 21.202L25.649 20.591"/>
 <path stroke-width="0.131" stroke-linejoin="round" d="M26.118 21.202L27.059 21.17"/>
 <path stroke-width="0.131" stroke-linejoin="round" d="M26.056 22.157L27.019 22.118"/>
 <path stroke-width="0.131" stroke-linejoin="round" d="M26.067 22.586L27.036 22.19L27.103 21.152L26.522 20.568"/>
 <path stroke-width="0.25" stroke-linejoin="round" d="M26.024 20.556L26.522 20.568"/>
 <path stroke-width="0.25" stroke-linejoin="round" d="M25.46 20.684L25.856 22.309L26.036 22.338"/>
 <path stroke-width="0.25" stroke-linejoin="round" d="M18.196 35.944L15.416 35.963L15.086 35.86"/>
 <path stroke-width="0.25" stroke-linejoin="round" d="M15.294 32.607L18.012 32.628"/>
 <path stroke-width="0.131" stroke-linejoin="round" d="M13.432 22.751C13.744 23.597 13.682 26.01 13.682 26.574C13.682 27.138 13.307 37.758 13.243 38.948C13.18 40.139 12.9 40.137 12.9 40.137L10.737 40.139C10.737 40.139 9.327 40.195 9.157 40.131"/>
 <path stroke-width="0.131" stroke-linejoin="round" d="M13.15 41.171C13.15 41.171 13.807 40.765 13.901 39.229C13.996 37.695 14.026 35.595 14.026 35.595L14.077 35.439L15.124 35.466"/>
 <path stroke-width="0.131" stroke-linejoin="round" d="M14.151 33.435L14.121 34.781L18.155 34.749"/>
 <path stroke-width="0.131" stroke-linejoin="round" d="M12.24 17.99C12.24 17.99 12.367 18.053 13.275 18.367C14.183 18.679 14.151 20.339 14.151 20.527C14.151 20.716 14.339 24.161 14.371 24.663C14.403 25.164 14.371 25.728 14.371 26.542C14.371 27.358 14.183 32.777 14.183 32.777L18.073 32.792"/>
 <path stroke-width="0.131" stroke-linejoin="round" d="M16.062 24.6C16.062 24.6 16.439 25.384 16.469 26.01C16.501 26.637 16.469 28.422 16.408 28.641C16.344 28.861 16.251 29.173 16.251 29.173"/>
 <path stroke-width="0.25" stroke-linejoin="round" d="M22.371 44.871C22.371 43.866 21.545 43.04 20.515 43.04C19.513 43.04 18.675 43.822 18.631 44.787C18.631 44.787 18.632 45.003 18.632 45.057C18.632 46.06 19.466 46.872 20.495 46.872C21.524 46.872 22.359 46.06 22.359 45.057C22.359 45.024 22.373 44.902 22.371 44.871z"/>
 <path stroke-width="0.131" stroke-linejoin="round" d="M21.859 45.055C21.859 45.789 21.248 46.384 20.495 46.384C19.742 46.384 19.132 45.789 19.132 45.057C19.132 44.323 19.742 43.728 20.495 43.728C21.248 43.728 21.859 44.323 21.859 45.057z"/>
 <path stroke-width="0.131" stroke-linejoin="round" d="M21.185 45.225C21.185 45.622 20.855 45.945 20.446 45.945C20.036 45.945 19.705 45.622 19.705 45.225C19.705 44.826 20.036 44.503 20.446 44.503C20.855 44.503 21.185 44.826 21.185 45.225z"/>
 <path stroke-width="0.131" stroke-linejoin="round" d="M23.989 66.733L26.056 65.105C26.056 65.105 27.623 65.135 28.248 65.105C28.876 65.073 31.256 64.635 31.6 64.603C31.946 64.572 32.447 64.665 32.54 64.792C32.634 64.917 32.908 65.319 32.908 65.319"/>
 <path stroke-width="0.131" stroke-linejoin="round" d="M26.056 65.105L26.088 66.451"/>
 <path stroke-width="0.131" stroke-linejoin="round" d="M25.242 64.98C25.242 64.98 23.216 65.078 22.422 63.851C22.077 63.32 22.172 62.911 22.172 62.911"/>
 <path stroke-width="0.131" stroke-linejoin="round" d="M24.364 56.865C24.364 56.865 22.579 56.24 22.547 53.828C22.515 51.415 24.144 50.381 24.144 50.381"/>
 <path stroke-width="0.131" stroke-linejoin="round" d="M29.596 53.482C29.596 53.482 29.094 53.984 27.716 53.953C26.338 53.921 24.771 53.264 24.771 53.264"/>
 <path stroke-width="0.131" stroke-linejoin="round" id="AUTOID_7734" d="M23.446 45.84C23.611 45.834 23.769 46.53 23.8 47.395C23.83 48.259 23.722 48.965 23.559 48.97"/>
 <path stroke-width="0.131" stroke-linejoin="round" d="M26.4 45.557L29.44 45.463L29.541 45.551C29.541 45.551 30.701 45.353 30.701 44.826"/>
 <path stroke-width="0.131" stroke-linejoin="round" d="M30.347 35.845L28.652 36.088"/>
 <path stroke-width="0.131" stroke-linejoin="round" d="M25.335 34.091C25.335 34.091 27.371 33.966 28.187 33.966C29.001 33.966 30.693 33.871 30.693 33.871L30.911 34.029"/>
 <path stroke-width="0.131" stroke-linejoin="round" d="M13.993 13.465L18.757 11.942"/>
 <path stroke-width="0.131" stroke-linejoin="round" d="M19.259 13.102C19.259 13.102 15.029 14.48 14.496 14.542"/>
 <path stroke-width="0.131" stroke-linejoin="round" d="M20.51 15.807C20.51 15.807 19.457 16.344 17.71 16.707C16.6 16.937 15.701 17.109 15.249 17.109"/>
 <path stroke-width="0.131" stroke-linejoin="round" d="M12.179 20.12L12.179 19.179L13.086 19.179L13.212 20.15"/>
 <path stroke-width="0.131" stroke-linejoin="round" d="M9.798 38.82C9.798 38.82 10.237 27.513 10.237 26.667C10.237 25.821 10.237 25.068 10.205 24.661"/>
 <path stroke-width="0.131" stroke-linejoin="round" d="M10.08 23.66C9.891 22.469 9.955 22.187 8.983 21.53C8.012 20.871 7.543 20.652 7.543 20.652"/>
 <path stroke-width="0.131" stroke-linejoin="round" d="M15.718 31.929L15.75 31.428L15.875 31.021C15.875 31.021 16.001 27.324 16.001 26.667C16.001 26.009 15.929 24.207 15.929 24.207"/>
 <path stroke-width="0.131" stroke-linejoin="round" d="M12.962 40.366L12.961 40.951C12.962 41.137 13.063 41.359 13.326 41.371L14.621 41.421"/>
 <path stroke-width="0.131" stroke-linejoin="round" d="M18.6 30.269L22.329 30.207"/>
 <path stroke-width="0.131" stroke-linejoin="round" d="M29.714 50.81C28.844 51.008 27.998 51.039 27.403 51.039C26.807 51.039 24.583 50.695 24.583 50.695L24.678 53.231C24.678 53.231 23.737 53.264 23.393 53.264C23.048 53.264 22.673 53.545 22.734 53.795"/>
 <path stroke-width="0.131" stroke-linejoin="round" d="M23.173 46.433L23.393 47.03L23.457 48.125L23.205 48.595"/>
 <path stroke-width="0.131" stroke-linejoin="round" d="M21.984 48.533L22.109 48.125L22.015 47.906L21.952 47.405L22.077 47.091L21.952 46.904L21.952 46.685L21.984 46.527"/>
 <path stroke-width="0.131" stroke-linejoin="round" d="M22.172 47.06L23.33 46.966"/>
 <path stroke-width="0.131" stroke-linejoin="round" d="M22.109 48.125L23.393 48.125"/>
 <path stroke-width="0.25" stroke-linejoin="round" d="M22.893 54.015C23.236 54.109 25.178 55.079 25.649 55.206C26.118 55.331 27.841 55.424 27.841 55.424C27.841 55.424 29.408 55.487 30.004 55.112"/>
 <path stroke-width="0.25" stroke-linejoin="round" d="M23.925 49.191C23.925 49.191 23.925 49.848 23.925 50.005C23.925 50.161 24.237 50.664 24.583 50.695"/>
 <path stroke-width="0.25" stroke-linejoin="round" d="M26.432 39.353C26.432 39.353 26.777 39.792 27.246 39.792C27.716 39.792 28.123 39.698 28.123 39.698L28.405 39.712"/>
 <path stroke-width="0.131" stroke-linejoin="round" d="M18.053 32.051L15.202 32.06L15.217 32.588"/>
 <path stroke-width="0.131" stroke-linejoin="round" d="M18.155 35.429L15.124 35.466L15.086 35.86"/>
 <path stroke-width="0.131" stroke-linejoin="round" d="M14.134 33.377L18.073 33.369"/>
 <path stroke-width="0.25" stroke-linejoin="round" d="M14.699 41.369C15.038 41.256 15.406 40.832 15.433 40.07C15.461 39.307 15.603 36.088 15.603 36.088"/>
 <path stroke-width="0.131" stroke-linejoin="round" id="AUTOID_7709" d="M26.936 36.606C27.611 36.476 28.294 37.079 28.461 37.953C28.629 38.826 28.216 39.639 27.542 39.768"/>
 <path stroke-width="0.25" stroke-linejoin="round" id="AUTOID_7708" d="M26.112 37.31C26.282 36.942 26.576 36.676 26.943 36.615"/>
 <path stroke-width="0.25" stroke-linejoin="round" d="M17.771 20.185C17.812 20.376 18.364 20.551 18.44 21.028C18.515 21.506 18.539 21.858 18.213 22.083C17.887 22.309 17.911 22.713 17.911 22.713"/>
 <path stroke-width="0.25" stroke-linejoin="round" id="AUTOID_7706" d="M12.811 17.312C12.705 17.157 12.628 16.978 12.586 16.783C12.416 16.001 12.887 15.236 13.637 15.074C14.385 14.913 15.13 15.416 15.298 16.199C15.394 16.646 15.282 17.088 15.026 17.414"/>
 <path stroke-width="0.25" stroke-linejoin="round" d="M14.218 17.309L14.946 16.932L14.996 15.903L14.143 15.5L13.314 15.952L13.364 16.957L14.218 17.309z"/>
 <path stroke-width="0.25" stroke-linejoin="round" d="M13.314 16.657L14.922 16.606"/>
 <path stroke-width="0.25" stroke-linejoin="round" d="M13.314 16.304L14.922 16.28"/>
 <path stroke-width="0.131" stroke-linejoin="round" d="M18.388 23.968L23.589 23.891"/>
 <path stroke-width="0.131" stroke-linejoin="round" d="M13.263 15.099C13.263 15.099 13.063 14.571 13.566 14.496C14.067 14.42 14.218 14.294 14.218 14.294"/>
 <path stroke-width="0.25" stroke-linejoin="round" d="M13.615 14.974L13.566 14.721L14.194 14.596"/>
 <path stroke-width="0.131" stroke-linejoin="round" d="M26.931 37.283L27.559 37.634L27.609 38.715L27.044 39.234"/>
 <path stroke-width="0.25" stroke-linejoin="round" d="M26.931 37.283L25.911 37.396L25.346 37.89L25.416 38.823L26.118 39.292L27.044 39.234"/>
 <path stroke-width="0.25" stroke-linejoin="round" d="M25.789 37.537L26.554 38.966L26.756 38.966"/>
 <path stroke-width="0.131" stroke-linejoin="round" d="M25.524 37.759L26.277 39.142L26.504 39.167L26.756 39.042"/>
 <path stroke-width="0.131" stroke-linejoin="round" d="M21.878 32.615C21.87 32.447 21.83 32.274 21.754 32.109C21.451 31.452 20.687 31.157 20.05 31.451C19.591 31.663 19.323 32.122 19.321 32.609L19.397 39.896C19.396 40.085 19.437 40.277 19.521 40.462C19.826 41.121 20.589 41.415 21.227 41.121C21.704 40.901 21.975 40.411 21.954 39.902L21.878 32.615z"/>
 <path stroke-width="0.131" stroke-linejoin="round" d="M25.152 20.797L25.504 22.431L25.798 22.471L26.053 22.379"/>
 <path stroke-width="0.25" stroke-linejoin="round" d="M15.367 40.567L16.734 40.546"/>
 <path stroke-width="0.131" stroke-linejoin="round" d="M19.916 32.573L19.993 39.703"/>
 <path stroke-width="0.131" stroke-linejoin="round" d="M27.981 13.429L30.033 13.589L30.769 13.108"/>
 <path stroke-width="0.131" stroke-linejoin="round" d="M28.254 13.509L28.461 14.198"/>
 <path stroke-width="0.131" stroke-linejoin="round" d="M25.239 11.842L26.393 11.746L26.635 11.778L26.617 12.24L26.378 12.259L25.256 12.355"/>
 <path stroke-width="0.25" stroke-linejoin="round" d="M26.157 11.041L26.6 11.061"/>
 <path stroke-width="0.25" stroke-linejoin="round" d="M26.234 12.996L26.614 12.984"/>
 <path stroke-width="0.131" stroke-linejoin="round" d="M27.521 37.661L26.672 37.731"/>
 <path stroke-width="0.131" stroke-linejoin="round" d="M27.574 38.668L26.777 38.774L26.672 37.731L26.053 37.378"/>
 <path stroke-width="0.131" stroke-linejoin="round" d="M26.16 39.27L26.277 39.142"/>
 <path stroke-width="0.131" stroke-linejoin="round" d="M26.618 38.933L26.777 38.774"/>
 <path stroke-width="0.131" stroke-linejoin="round" d="M30.155 39.023L28.548 39.316L28.51 39.323C28.51 39.323 28.74 39.624 28.74 39.746"/>
 <path stroke-width="0.131" stroke-linejoin="round" d="M28.652 36.618L28.51 36.247"/>
 <path stroke-width="0.131" stroke-linejoin="round" d="M24.55 48.744C24.55 48.744 26.795 48.639 27.079 48.639C27.361 48.639 27.661 48.656 27.821 48.762C27.98 48.868 27.998 49.045 28.015 49.17"/>
 <path stroke-width="0.131" stroke-linejoin="round" d="M27.945 55.392L27.926 54.207L29.446 53.994L29.501 55.268"/>
 <path stroke-width="0.131" stroke-linejoin="round" id="AUTOID_7678" d="M31.059 58.101C31.071 58.127 31.079 58.152 31.079 58.177C31.089 58.591 29.448 58.969 27.413 59.018C25.379 59.069 23.721 58.774 23.71 58.359"/>
 <path stroke-width="0.131" stroke-linejoin="round" id="AUTOID_7677" d="M30.321 57.779C30.329 58.101 29.047 58.396 27.457 58.435C26.158 58.466 25.056 58.319 24.692 58.087"/>
 <path stroke-width="0.131" stroke-linejoin="round" d="M24.745 58.45L24.303 58.484L24.338 57.265L25.275 57.106"/>
 <path stroke-width="0.131" stroke-linejoin="round" d="M23.968 54.543C24.021 54.737 24.603 55.427 24.603 55.427L24.64 56.771L25.329 57.124C25.329 57.124 25.329 57.848 25.329 57.902L24.977 57.984"/>
 <path stroke-width="0.25" stroke-linejoin="round" d="M21.725 47.932C21.725 47.932 20.091 48.07 19.873 48.015C19.655 47.96 18.457 47.606 18.457 47.606"/>
 <path stroke-width="0.25" stroke-linejoin="round" d="M30.719 61.304L30.756 62.207C30.756 62.207 30.984 62.39 30.984 62.594C30.984 62.799 30.937 63.415 30.937 63.415"/>
 <path stroke-width="0.25" stroke-linejoin="round" id="AUTOID_7665" d="M20.065 61.5C20.009 61.003 20.189 60.518 20.585 60.232"/>
 <path stroke-width="0.25" stroke-linejoin="round" id="AUTOID_7664" d="M22.399 62.75C22.056 62.996 21.623 63.042 21.221 62.915"/>
 <path stroke-width="0.25" stroke-linejoin="round" id="AUTOID_7663" d="M22.399 62.75C23.015 62.305 23.109 61.383 22.609 60.688C22.108 59.993 21.202 59.789 20.585 60.232L21.358 59.902L22.429 59.173C22.429 59.173 22.725 58.762 22.931 58.716C23.137 58.671 23.615 58.351 23.615 58.351C23.615 58.351 23.753 58.009 23.867 58.009L23.911 57.097L24.3 56.892"/>
 <path stroke-width="0.25" stroke-linejoin="round" d="M20.719 60.838L20.285 61.09L19.859 61.896L20.437 62.762L20.99 62.774"/>
 <path stroke-width="0.131" stroke-linejoin="round" d="M20.376 61.112L20.536 61.134L20.673 62.709"/>
 <path stroke-width="0.131" stroke-linejoin="round" d="M21.335 62.731L21.631 62.002L21.198 61.134L20.946 61.112L21.038 60.953L20.809 60.953L20.536 61.134"/>
 <path stroke-width="0.131" stroke-linejoin="round" d="M21.198 61.134L21.699 60.792L20.696 60.77"/>
 <path stroke-width="0.131" stroke-linejoin="round" d="M21.791 62.572L22.202 61.728L21.631 62.002"/>
 <path stroke-width="0.131" stroke-linejoin="round" d="M22.202 61.728L21.699 60.792"/>
 <path stroke-width="0.25" stroke-linejoin="round" d="M20.946 61.112L21.024 62.814L21.298 62.792L21.722 62.594"/>
 <path stroke-width="0.131" stroke-linejoin="round" d="M17.989 61.805C17.989 61.805 20.635 65.355 21.289 66.198C21.943 67.043 22.46 67.751 24.719 67.424C24.719 67.424 33.32 66.144 34.002 65.953C34.682 65.763 35.171 65.355 34.682 64.811"/>
 <path stroke-width="0.25" stroke-linejoin="round" d="M10.016 52.832C10.016 52.832 11.281 53.048 11.788 52.942"/>
 <path stroke-width="0.131" stroke-linejoin="round" d="M6.597 47.267C6.597 47.267 6.812 47.909 6.812 48.472C6.812 49.033 7.346 61.051 7.346 61.051L13.743 61.158L17.196 61.051C17.329 61.104 17.356 61.371 17.275 61.506C17.196 61.64 16.795 62.014 16.795 62.014L16.768 62.174C16.768 62.174 8.417 62.228 7.908 62.174C7.4 62.121 6.195 61.96 6.089 60.247C5.982 58.534 6.009 58.186 6.009 58.186"/>
 <path stroke-width="0.25" stroke-linejoin="round" d="M9.246 44.323L9.274 40.307C9.274 40.307 8.657 39.853 8.444 39.506C8.23 39.158 8.284 38.569 8.284 38.328C8.284 38.087 8.204 37.899 8.096 37.872C7.988 37.845 7.641 37.524 7.641 37.524C7.641 37.524 7.785 38.57 7.889 39.085C7.992 39.6 9.31 44.524 9.31 44.524L9.784 45.326C9.784 45.326 9.763 46.192 10.464 46.171C11.164 46.151 14.955 46.109 14.955 46.109"/>
 <path stroke-width="0.131" stroke-linejoin="round" d="M10.343 40.631L10.343 45.182"/>
 <path stroke-width="0.25" stroke-linejoin="round" d="M18.347 61.265L18.722 60.301L17.384 57.865"/>
 <path stroke-width="0.25" stroke-linejoin="round" d="M15.271 57.957L15.282 58.704L16.053 59.222L16.775 58.86"/>
 <path stroke-width="0.25" stroke-linejoin="round" d="M17.871 58.848L17.486 58.825C17.486 58.825 17.269 59.246 16.957 59.281C16.643 59.317 16.102 59.414 15.681 59.054C15.259 58.692 15.282 58.704 15.282 58.704"/>
 <path stroke-width="0.25" stroke-linejoin="round" d="M15.307 58.536C15.307 58.536 15.018 57.92 15.127 57.451"/>
 <path stroke-width="0.131" stroke-linejoin="round" d="M15.343 57.884L16.114 57.475L16.329 57.643L16.379 57.56L16.655 57.777L16.603 57.856L16.824 58.03L16.775 58.86L17.053 58.548L17.016 57.801L16.33 57.234L15.5 57.668L15.343 57.884z"/>
 <path stroke-width="0.131" stroke-linejoin="round" d="M16.295 57.656L15.596 58.884"/>
 <path stroke-width="0.131" stroke-linejoin="round" d="M15.849 59.029L16.603 57.856"/>
 <path stroke-width="0.131" stroke-linejoin="round" d="M16.824 58.03L16.992 57.813"/>
 <path stroke-width="0.131" stroke-linejoin="round" d="M16.114 57.475L16.33 57.234"/>
 <path stroke-width="0.25" stroke-linejoin="round" d="M20.472 60.237C20.472 60.237 20.336 59.747 20.336 59.665C20.336 59.584 19.955 59.258 19.955 59.258C19.955 59.258 20.01 56.563 20.01 56.399C20.01 56.235 20.609 56.154 21.48 56.154C22.35 56.154 22.867 56.344 22.867 56.344L22.821 58.774"/>
 <path stroke-width="0.131" stroke-linejoin="round" d="M20.745 47.987L21.643 47.932"/>
 <path stroke-width="0.131" stroke-linejoin="round" d="M19.329 53.868L19.492 53.459C19.492 53.459 20.065 53.268 20.065 53.106C20.065 52.942 20.254 52.07 20.309 51.826C20.364 51.581 20.254 51.335 20.118 51.226C19.983 51.118 19.71 50.71 19.71 50.71C19.71 50.71 20.446 49.512 20.446 49.295C20.446 49.076 20.358 48.938 20.358 48.938"/>
 <path stroke-width="0.131" stroke-linejoin="round" d="M19.71 50.71C19.71 50.71 17.795 50.106 17.268 49.987C16.74 49.866 13.461 48.718 13.39 48.67"/>
 <path stroke-width="0.25" stroke-linejoin="round" d="M19.974 56.857C19.949 56.618 19.757 56.259 19.471 56.043C19.182 55.829 18.728 55.54 18.704 55.277C18.681 55.015 18.704 54.631 18.775 54.415C18.847 54.201 19.329 53.868 19.329 53.868L19.629 53.976L20.036 54.194L24.147 56.917"/>
 <path stroke-width="0.131" stroke-linejoin="round" d="M23.899 53.195C23.948 52.74 24.187 52.189 24.617 51.783"/>
 <path stroke-width="0.131" stroke-linejoin="round" d="M22.774 62.484L23.324 62.46L23.42 62.987L23.588 63.179L23.689 63.548C23.695 64.114 25.326 64.552 27.329 64.528C29.333 64.504 30.952 64.025 30.946 63.459"/>
 <path stroke-width="0.131" stroke-linejoin="round" d="M44.234 67.84C44.234 67.84 40.481 68.649 40.234 68.649C39.987 68.649 39.942 68.536 39.807 68.536C39.673 68.536 36.82 68.941 36.82 68.941"/>
 <path stroke-width="0.131" stroke-linejoin="round" d="M8.051 59.651L14.166 60.069L14.673 60.789"/>
 <path stroke-width="0.131" stroke-linejoin="round" d="M16.579 62.823L6.213 62.359L6.12 61.74L6.057 60.47"/>
 <path stroke-width="0.131" stroke-linejoin="round" d="M15.619 60.843L8.07 60.533L7.73 46.701L7.419 46.112"/>
 <path stroke-width="0.131" stroke-linejoin="round" d="M7.234 46.576L7.326 46.887L7.668 60.78L16.332 60.997"/>
 <path stroke-width="0.25" stroke-linejoin="round" d="M15.522 60.619C13.278 59.767 12.537 59.456 10.791 58.011C8.669 56.256 7.937 53.621 7.937 53.621"/>
 <path stroke-width="0.25" stroke-linejoin="round" d="M7.084 9.973C7.084 9.973 9.913 7.437 11.035 6.389C12.157 5.339 12.961 3.511 12.961 3.511"/>
 <path stroke-width="0.131" stroke-linejoin="round" d="M5.963 5.267C6.232 4.389 7.621 2.487 9.669 1.999C11.718 1.512 12.108 1.536 12.4 1.536C12.692 1.536 14.497 2.096 14.961 2.267C15.423 2.438 15.887 2.975 15.984 3.024C16.082 3.072 17.301 2.975 17.838 3.121C18.375 3.267 19.594 3.633 20.277 4.413"/>
 <path stroke-width="0.131" stroke-linejoin="round" d="M6.621 6.485C6.621 6.485 7.28 4.365 8.669 3.585C10.06 2.804 11.118 2.264 13.205 2.585C13.839 2.681 14.375 3.096 14.375 3.096L16.618 3.926C16.618 3.926 18.155 4.072 18.545 4.291C18.936 4.511 19.326 4.754 19.326 4.754"/>
 <path stroke-width="0.25" stroke-linejoin="round" d="M12.157 2.536C12.157 2.536 12.791 3.463 13.303 3.609C13.814 3.754 15.35 4.243 15.35 4.243C15.35 4.243 17.423 4.437 17.667 4.511C17.911 4.583 18.618 4.998 18.618 4.998"/>
 <path stroke-width="0.131" stroke-linejoin="round" d="M10.702 9.422C10.496 10.105 9.817 10.606 9.01 10.606C8.327 10.606 7.735 10.246 7.445 9.718"/>
 <path stroke-width="0.25" stroke-linejoin="round" d="M11.929 17.242C11.929 17.242 11.063 17.3 10.948 17.3C10.832 17.3 10.657 17.501 10.657 17.704C10.657 17.907 10.63 18.05 10.63 18.05C10.63 18.05 9.589 18.079 9.502 18.079C8.952 18.079 8.923 18.339 8.894 18.687C8.882 18.83 8.721 19.873 8.721 19.873C8.721 19.873 7.535 19.873 7.304 19.902C7.073 19.931 7.068 20.152 7.068 20.152"/>
 <path stroke-width="0.131" stroke-linejoin="round" d="M12.016 22.128L12.045 21.318"/>
 <path stroke-width="0.131" stroke-linejoin="round" d="M13.791 21.027L13.462 21.173L12.458 21.152L12.836 20.951L13.791 21.027L13.766 20.524L12.785 20.55L12.836 20.951"/>
 <path stroke-width="0.131" stroke-linejoin="round" d="M13.462 21.173C13.462 21.173 13.519 22.041 13.375 22.446"/>
 <path stroke-width="0.131" stroke-linejoin="round" d="M9.56 20.161L10.744 20.132L10.774 18.716"/>
 <path stroke-width="0.131" stroke-linejoin="round" d="M9.618 19.958C9.618 19.958 9.733 19.062 9.762 18.774C9.791 18.484 9.936 18.455 10.08 18.455C10.224 18.455 10.571 18.455 10.571 18.455"/>
 <path stroke-width="0.131" stroke-linejoin="round" d="M8.692 37.478L9.01 28.457"/>
 <path stroke-width="0.131" stroke-linejoin="round" d="M0.136 16.582C0.136 16.582 3.819 16.475 4.907 16.385C6.326 16.266 7.352 15.99 7.352 15.99"/>
 <path stroke-width="0.131" stroke-linejoin="round" d="M0.096 22.26L7.392 21.984"/>
 <path stroke-width="0.25" stroke-linejoin="round" d="M13.333 71.45C13.333 71.45 16.132 67.084 16.309 66.344C16.484 65.605 16.556 65.114 16.556 64.62"/>
 <path stroke-width="0.25" stroke-linejoin="round" d="M31.521 54.613C31.521 54.613 31.248 58.792 32.225 62.268"/>
 <path stroke-width="0.25" stroke-linejoin="round" d="M17.347 54.219C17.347 54.219 15.162 55.02 14.746 55.076C14.332 55.131 13.778 55.6 13.336 56.072C12.894 56.542 12.618 57.149 12.561 57.536C12.506 57.924 12.257 58.063 12.064 58.146C11.871 58.228 11.65 58.615 11.65 58.615"/>
 <path stroke-width="0.131" stroke-linejoin="round" d="M17.236 57.841L16.876 57.593C16.876 57.593 17.015 57.509 16.931 57.454C16.849 57.399 16.516 57.122 16.516 57.122L16.434 56.652L15.798 56.707L15.631 57.177L15.134 57.344"/>
 <path stroke-width="0.131" stroke-linejoin="round" d="M17.263 57.149L18.286 56.734"/>
 <path stroke-width="0.131" stroke-linejoin="round" d="M15.522 57.149C15.493 57.067 15.522 56.32 15.852 56.21"/>
 <path stroke-width="0.131" stroke-linejoin="round" d="M19.835 56.265L19.835 55.159"/>
 <path stroke-width="0.131" stroke-linejoin="round" d="M18.701 55.021L21.411 55.131"/>
 <path stroke-width="0.131" stroke-linejoin="round" d="M19.559 53.307L19.917 52.808"/>
 <path stroke-width="0.131" stroke-linejoin="round" d="M19.946 53.167C19.946 53.167 20.167 52.892 19.67 52.365C19.172 51.841 19.033 51.923 19.033 51.619C19.033 51.314 19.143 51.011 19.143 50.872C19.143 50.734 19.006 50.485 19.006 50.485"/>
 <path stroke-width="0.131" stroke-linejoin="round" d="M23.263 62.377L23.236 61.548C23.236 61.548 23.097 61.353 23.097 61.243C23.097 61.133 23.097 60.884 23.097 60.884L23.236 60.829L23.274 59.442L23.693 59.198C23.693 59.198 23.687 60.179 27.626 60.069C30.132 59.999 30.69 59.546 30.69 59.546"/>
 <path stroke-width="0.25" stroke-linejoin="round" d="M30.585 39.7C30.585 39.7 29.204 40.03 28.818 40.058C28.432 40.085 27.99 39.728 27.99 39.728"/>
 <path stroke-width="0.131" stroke-linejoin="round" d="M6.099 2.581C5.533 3.052 4.673 2.952 4.176 2.357C3.681 1.762 3.738 0.897 4.304 0.426C4.868 -0.044 5.729 0.057 6.224 0.652C6.721 1.246 6.663 2.112 6.099 2.581z"/>
 <path stroke-width="0.131" stroke-linejoin="round" d="M6.099 2.581C5.533 3.052 4.673 2.952 4.176 2.357C3.681 1.762 3.738 0.897 4.304 0.426C4.868 -0.044 5.729 0.057 6.224 0.652C6.721 1.246 6.663 2.112 6.099 2.581z"/>
 <path stroke-width="0.131" stroke-linejoin="round" d="M14.935 33.399L14.852 34.759"/>
 <path stroke-width="0.131" stroke-linejoin="round" d="M20.888 26.353C20.888 26.353 22.64 26.393 23.216 26.393C23.792 26.393 25.05 26.393 25.05 26.393"/>
 <path stroke-width="0.131" stroke-linejoin="round" d="M31.745 25.097L31.477 23.015"/>
 <path stroke-width="0.25" stroke-linejoin="round" d="M15.298 45.95L18.33 45.926"/>
 <path stroke-width="0.131" stroke-linejoin="round" d="M12.813 39.276L10.226 39.276"/>
 <path stroke-width="0.131" stroke-linejoin="round" d="M25.878 11.018C25.539 11.018 23.824 11.037 23.579 11.583"/>
 <path stroke-width="0.131" stroke-linejoin="round" d="M23.879 14.974C24.219 14.787 25.952 14.221 27.611 14.278C29.268 14.335 30.679 14.487 30.757 14.692"/>
 <path stroke-width="0.131" stroke-linejoin="round" d="M23.818 19.794C23.818 19.794 25.463 20.082 26.367 20.062"/>
 <path stroke-width="0.131" stroke-linejoin="round" d="M28.062 23.417C28.062 23.417 24.152 23.67 23.535 22.478"/>
 <path stroke-width="0.131" stroke-linejoin="round" d="M28.472 36.344C28.472 36.344 26.478 36.616 25.1 36.29C23.722 35.963 24.03 35.909 24.03 35.909"/>
 <path stroke-width="0.131" stroke-linejoin="round" d="M27.021 39.771C27.021 39.771 23.632 40.079 23.359 38.883"/>
 <path stroke-width="0.131" stroke-linejoin="round" d="M29.812 48.469C29.812 48.469 30.772 48.38 30.791 47.871"/>
 <path stroke-width="0.131" stroke-linejoin="round" d="M30.82 15.259L68.623 15.865"/>
 <path stroke-width="0.131" stroke-linejoin="round" d="M30.879 14.471L68.346 14.826"/>
 <path stroke-width="0.131" stroke-linejoin="round" d="M32.326 12.332L68.084 12.759"/>
 <path stroke-width="0.131" stroke-linejoin="round" d="M22.548 7.567L23.626 10.105"/>
 <path stroke-width="0.131" stroke-linejoin="round" d="M21.818 7.881L23.564 11.484"/>
 <path stroke-width="0.25" stroke-linejoin="round" d="M30.975 69.753L30.864 71.468"/>
 <path stroke-width="0.25" stroke-linejoin="round" d="M24.1 70.856L24.056 71.45"/>
 <path stroke-width="0.131" stroke-linejoin="round" d="M34.996 67.793C35.262 67.165 35.89 66.823 36.423 67.024"/>
 <path stroke-width="0.25" stroke-linejoin="round" d="M36.423 67.024C36.973 67.231 37.216 67.938 36.966 68.603C36.716 69.269 36.067 69.641 35.515 69.433C35.311 69.356 35.151 69.212 35.039 69.025"/>
 <path stroke-width="0.25" stroke-linejoin="round" d="M36.423 67.024L34.945 66.305"/>
 <path stroke-width="0.131" stroke-linejoin="round" d="M36.435 67.762C36.576 67.933 36.597 68.215 36.472 68.471C36.311 68.801 35.969 68.963 35.71 68.837C35.649 68.807 35.598 68.763 35.558 68.712"/>
 <path stroke-width="0.25" stroke-linejoin="round" d="M35.558 68.712C35.424 68.54 35.405 68.263 35.53 68.01C35.691 67.683 36.031 67.519 36.292 67.647C36.348 67.674 36.396 67.713 36.435 67.762"/>
 <path stroke-width="0.25" stroke-linejoin="round" d="M16.426 63.835C16.426 63.835 16.513 62.334 16.795 62.014C17.077 61.695 17.469 61.21 17.196 61.051"/>
 <path stroke-width="0.25" stroke-linejoin="round" d="M21.242 4.115C21.242 4.115 20.353 2.998 19.032 2.565C17.71 2.132 17.117 2.017 16.844 1.881C16.57 1.745 15.134 0.992 14.861 0.924C14.586 0.856 11.875 0.445 11.304 0.309C10.734 0.172 10.256 0.286 9.983 0.286C9.708 0.286 6.746 0.559 6.312 0.673C6.312 0.673 5.857 0.195 5.469 0.149C5.081 0.103 4.626 0.081 4.214 0.491C3.805 0.901 3.303 1.357 3.144 1.516C2.984 1.676 2.78 2.565 3.052 2.952"/>
 <path stroke-width="0.131" stroke-linejoin="round" d="M6.161 2.509C6.161 2.509 5.692 3.178 5.37 3.402C5.048 3.625 4.726 3.724 4.254 3.551"/>
 <path stroke-width="0.25" stroke-linejoin="round" d="M5.759 2.031C5.737 2.052 5.716 2.073 5.692 2.093C5.383 2.351 4.911 2.295 4.641 1.971C4.37 1.645 4.4 1.171 4.71 0.915"/>
 <path stroke-width="0.131" stroke-linejoin="round" d="M4.71 0.915C5.019 0.657 5.49 0.713 5.761 1.038C6.011 1.338 6.003 1.765 5.759 2.031"/>
 <path stroke-width="0.25" stroke-linejoin="round" d="M23.291 36.667L23.53 42.478"/>
 <path stroke-width="0.25" stroke-linejoin="round" d="M11.861 8.984C11.861 8.984 12.179 10.522 13.393 10.31"/>
 <path stroke-width="0.25" stroke-linejoin="round" d="M1.24 71.468C1.24 71.468 1.01 70.736 1.01 70.463C1.01 70.191 0.919 69.219 0.919 69.219C0.919 69.219 0.525 68.765 1.01 68.765C1.496 68.765 1.708 68.915 1.708 68.915C1.708 68.915 2.314 69.584 3.286 69.25L3.589 69.189L4.378 68.674L4.44 68.278C4.44 68.278 4.931 67.314 4.197 66.337C3.923 65.972 3.438 65.881 3.438 65.881L2.455 64.948"/>
 <path stroke-width="0.131" stroke-linejoin="round" d="M3.407 69.189L2.71 68.885L2.557 67.944L3.331 67.203L3.734 67.337L3.772 67.278L3.992 67.328L4.083 67.448L4.33 67.581"/>
 <path stroke-width="0.131" stroke-linejoin="round" d="M3.742 67.368L2.952 68.915"/>
 <path stroke-width="0.131" stroke-linejoin="round" d="M3.286 69.097L4.075 67.399"/>
 <path stroke-width="0.131" stroke-linejoin="round" d="M2.71 68.885L2.367 68.528L2.258 67.548L3.025 66.927L3.827 67.137L3.984 67.278"/>
 <path stroke-width="0.131" stroke-linejoin="round" d="M2.557 67.944L2.258 67.548"/>
 <path stroke-width="0.131" stroke-linejoin="round" d="M3.366 67.212L3.031 66.944"/>
 <path stroke-width="0.25" stroke-linejoin="round" d="M4.431 68.328L4.381 67.64L3.886 67.153"/>
 <path stroke-width="0.25" stroke-linejoin="round" d="M4.726 71.489C4.726 71.489 4.386 70.673 4.386 70.162C4.386 69.653 4.378 68.674 4.378 68.674"/>
 <path stroke-width="0.25" stroke-linejoin="round" d="M4.487 68.191C4.692 67.92 4.998 67.716 5.405 67.682C5.812 67.649 7.512 67.614 7.852 67.581C8.192 67.546 9.144 67.444 9.313 68.498C9.483 69.552 9.686 71.489 9.686 71.489"/>
 <path stroke-width="0.131" stroke-linejoin="round" d="M1.01 68.765L1.088 68.191L0.92 67.987L0.919 66.992"/>
 <path stroke-width="0.131" stroke-linejoin="round" d="M1.633 68.871C1.361 68.361 1.026 67.789 1.939 66.629C2.687 65.677 3.842 66.051 3.977 66.153"/>
 <path stroke-width="0.131" stroke-linejoin="round" d="M2.415 64.963L2.857 65.337C2.857 65.337 5.642 64.963 6.493 64.896C7.341 64.828 7.953 64.453 8.089 65.881"/>
 <path stroke-width="0.25" stroke-linejoin="round" d="M3.774 62.618L5.575 62.448"/>
 <path stroke-width="0.25" stroke-linejoin="round" d="M6.969 64.352C6.969 64.352 6.867 63.469 7.003 62.924"/>
 <g>
  <g>
   <g>
    <path stroke="#FFFFFF" stroke-width="1.411" stroke-linejoin="round" id="AUTOID_7496" d="M16.149 12.627L21.957 1.819"/>
    <path stroke="#FFFFFF" stroke-width="1.058" stroke-linejoin="round" id="AUTOID_7495" d="M15.657 11.666L14.861 15.044L17.239 12.516L15.657 11.666z"/>
   </g>
   <g>
    <path stroke="#FFFFFF" stroke-width="1.411" stroke-linejoin="round" id="AUTOID_7493" d="M16.149 12.627L21.957 1.819"/>
    <path stroke="#FFFFFF" stroke-width="1.058" stroke-linejoin="round" id="AUTOID_7492" d="M15.657 11.666L14.861 15.044L17.239 12.516L15.657 11.666z"/>
   </g>
  </g>
  <g>
   <path stroke-width="0.501" stroke-linejoin="round" id="AUTOID_7489" d="M16.149 12.627L21.957 1.819"/>
   <path stroke="none" fill="#000000" id="AUTOID_7488" d="M15.657 11.666L14.861 15.044 17.239 12.516 15.657 11.666z"/>
  </g>
 </g>
 <path stroke-width="0.131" stroke-linejoin="round" d="M20.452 45.765L19.925 45.372L19.943 44.856L20.46 44.576L20.955 44.871L20.981 45.417L20.452 45.765z"/>
 <g>
  <g>
   <g>
    <path stroke="#FFFFFF" stroke-width="1.411" stroke-linejoin="round" d="M30.269 10.032L40.898 3.902"/>
    <path stroke="#FFFFFF" stroke-width="1.058" stroke-linejoin="round" d="M30.358 8.958L27.902 11.412L31.256 10.515L30.358 8.958z"/>
   </g>
   <g>
    <path stroke="#FFFFFF" stroke-width="1.411" stroke-linejoin="round" d="M30.269 10.032L40.898 3.902"/>
    <path stroke="#FFFFFF" stroke-width="1.058" stroke-linejoin="round" d="M30.358 8.958L27.902 11.412L31.256 10.515L30.358 8.958z"/>
   </g>
  </g>
  <g>
   <path stroke-width="0.501" stroke-linejoin="round" d="M30.269 10.032L40.898 3.902"/>
   <path stroke="none" fill="#000000" d="M30.358 8.958L27.902 11.412 31.256 10.515 30.358 8.958z"/>
  </g>
 </g>
 <g>
  <g>
   <g>
    <path stroke="#FFFFFF" stroke-width="1.411" stroke-linejoin="round" id="AUTOID_7819" d="M17.205 48.604L8.195 56.932"/>
    <path stroke="#FFFFFF" stroke-width="1.058" stroke-linejoin="round" id="AUTOID_7818" d="M17.358 49.673L19.21 46.737L16.138 48.353L17.358 49.673z"/>
   </g>
   <g>
    <path stroke="#FFFFFF" stroke-width="1.411" stroke-linejoin="round" id="AUTOID_7816" d="M17.205 48.604L8.195 56.932"/>
    <path stroke="#FFFFFF" stroke-width="1.058" stroke-linejoin="round" id="AUTOID_7815" d="M17.358 49.673L19.21 46.737L16.138 48.353L17.358 49.673z"/>
   </g>
  </g>
  <g>
   <path stroke-width="0.501" stroke-linejoin="round" id="AUTOID_7812" d="M17.205 48.604L8.195 56.932"/>
   <path stroke="none" fill="#000000" id="AUTOID_7811" d="M17.358 49.673L19.21 46.737 16.138 48.353 17.358 49.673z"/>
  </g>
 </g>
 <line stroke-width="0.25" x1="44.234" y1="67.84" x2="74.04" y2="63.743"/>
 <line stroke-width="0.25" x1="33.107" y1="19.339" x2="70.64" y2="19.713"/>
 <path stroke-width="0.25" d="M33.107 19.339C32.322 19.339 31.989 19.914 31.989 19.914"/>
 <line stroke-width="0.25" x1="33.121" y1="18.079" x2="70.653" y2="18.452"/>
 <path stroke-width="0.25" d="M33.107 18.152C32.822 18.152 32.569 18.196 32.347 18.263C31.804 18.426 31.44 18.734 31.231 18.961C31.045 19.164 30.961 19.32 30.961 19.32"/>
 <path stroke-width="0.25" d="M30.954 70.73C31.766 71.368 31.969 71.368 32.81 71.253C33.651 71.137 55.741 67.397 57.945 67.049C60.149 66.7 74.296 64.875 74.296 64.875"/>
 <path stroke-width="0.25" d="M69.194 21.039C69.194 21.039 43.218 20.923 40.899 20.923C38.579 20.923 34.289 20.923 34.173 25.911C34.057 30.896 36.84 47.712 37.884 50.61"/>
 <path stroke-width="0.25" d="M37.884 50.61C39.506 53.393 41.71 53.045 43.682 53.045C45.652 53.045 68.382 51.539 68.382 51.539"/>
 <path stroke-width="0.25" d="M69.189 22.176L40.893 22.06L40.899 22.06C39.887 22.06 38.451 22.033 37.243 22.554C36.817 22.737 36.423 22.995 36.106 23.368C35.621 23.94 35.335 24.768 35.308 25.937C35.195 30.839 37.926 47.375 38.953 50.225"/>
 <path stroke-width="0.25" d="M39.018 49.948C39.345 50.511 39.697 50.911 40.076 51.182C40.314 51.353 40.561 51.469 40.813 51.551C41.548 51.789 42.32 51.753 43.066 51.74L68.302 50.228"/>
 <text transform="matrix(0 -1 1 0 74.239 73.977)" stroke="none" fill="#000000" font-family="'Arial'" font-size="2.117">304 955</text>
</svg>
