<?xml version="1.0" encoding="utf-8"?>
<!DOCTYPE svg PUBLIC "-//W3C//DTD SVG 1.1//EN" "http://www.w3.org/Graphics/SVG/1.1/DTD/svg11.dtd">
<!-- Generator: PTC Arbortext IsoDraw 7.3 -->
<svg id="Standard_x0020_layer" width="100%" height="100%" viewBox="0 0 142.441 87.257"
 xmlns="http://www.w3.org/2000/svg" xmlns:xlink="http://www.w3.org/1999/xlink"
 fill-rule="evenodd" clip-rule="evenodd" stroke="#000000" stroke-linecap="round" fill="none" xml:space="preserve">
 <path stroke="none" fill="#B2B2B2" d="M20.943 42.997L20.943 39.459 21.21 39.351 21.21 38.011 21.693 37.636 22.82 37.904 22.873 39.082C22.873 39.082 23.463 39.298 23.463 39.834 23.463 40.369 23.41 44.606 23.41 44.606L22.873 44.82 23.035 45.143 22.766 45.518 22.606 45.84C22.606 45.84 20.46 47.609 16.545 46.698 12.631 45.786 10.647 43.372 10.112 42.569 9.576 41.765 8.663 40.262 8.824 38.546 8.986 36.831 9.253 35.115 9.253 35.115 9.253 35.115 9.897 30.986 9.951 30.771 10.005 30.557 10.057 28.681 10.272 28.091 10.487 27.501 10.647 26.858 11.022 26.481 11.399 26.106 12.954 24.015 15.205 23.855 17.457 23.693 20.085 23.64 23.516 24.606 26.949 25.571 28.396 25.623 29.736 25.623 31.077 25.623 33.813 25.731 34.456 27.233 35.098 28.734 35.475 30.664 34.831 33.292 34.188 35.92 31.722 44.017 31.722 44.017 31.722 44.017 33.707 41.979 34.779 40.96 35.851 39.942 38.371 37.904 38.426 35.438 38.478 32.97 38.479 28.036 38.479 27.339 38.479 26.643 38.587 25.516 38.801 24.873 39.015 24.23 39.283 23.425 39.39 21.978 39.497 20.53 39.497 15.275 39.445 14.202 39.39 13.13 38.265 11.253 35.959 9.913 33.654 8.573 29.632 7.07 27.111 7.07L26.736 6.802 25.664 6.642C25.664 6.642 25.341 7.339 24.644 7.177 23.948 7.017 23.411 6.267 23.679 5.838 23.948 5.408 24.323 4.926 24.323 4.926L24.806 4.764 25.021 4.443 25.556 4.067 25.879 4.014 27.004 2.996C27.004 2.996 27.916 3.157 28.077 4.014 28.237 4.873 28.237 4.873 28.237 4.873L27.379 5.408 27.379 6.051C27.379 6.051 32.098 6.695 34.136 7.822 36.173 8.948 40.195 10.717 40.517 14.202 40.838 17.687 40.624 22.835 40.624 22.835 40.624 22.835 39.981 24.283 39.926 24.658 39.874 25.033 39.658 26.75 39.606 27.823 39.551 28.894 39.606 33.292 39.551 34.31 39.497 35.329 39.444 37.743 37.353 39.835 35.262 41.926 31.347 45.893 31.132 46.054 30.917 46.216 29.952 50.774 30.167 52.167L31.294 53.401 31.722 53.884 32.365 53.99C32.365 53.99 33.759 54.311 34.511 54.365 35.262 54.42 35.905 54.527 36.762 54.795 37.621 55.063 42.179 55.814 42.179 55.814L42.232 56.136 42.607 56.564 43.036 56.511 43.627 56.136C43.627 56.136 54.351 58.817 55.853 59.139 57.354 59.46 65.344 61.499 65.344 61.499L65.183 62.088 65.451 62.518 65.987 62.57 66.256 62.195 67.168 61.927 73.924 63.59C73.924 63.59 75.371 63.322 75.371 64.822L75.908 64.822 80.037 65.68C80.037 65.68 79.822 66.055 80.037 66.378 80.251 66.7 80.68 66.754 80.68 66.754L81.108 66.378 81.966 66.003C81.966 66.003 83.631 66.326 84.757 66.754 85.884 67.183 102.292 72.01 102.292 72.01L102.185 72.599 102.667 72.975 103.203 72.867 103.525 72.546 111.891 74.906C111.891 74.906 111.73 75.281 111.891 75.495 112.051 75.709 112.427 75.87 112.427 75.87L112.802 75.763 113.016 75.441 113.498 75.281C113.498 75.281 119.024 77.48 121.007 78.606 122.992 79.733 124.063 80.912 124.493 79.894 124.923 78.875 125.406 77.212 125.513 74.37 125.62 71.528 125.513 63.216 125.513 61.232 125.513 59.249 125.299 51.954 125.406 49.274 125.513 46.593 125.567 38.603 125.191 37.317 124.816 36.029 124.012 34.314 122.671 33.67 122.671 33.67 122.242 33.831 121.974 33.67 121.706 33.509 121.385 32.972 121.385 32.436 121.385 31.9 121.385 31.579 121.867 31.524 122.35 31.472 122.939 31.417 122.939 31.417L123.207 31.632 124.227 31.472 124.549 31.204 125.352 31.149 125.62 30.936 126.21 31.096 128.14 30.774 128.248 31.472 128.248 32.168C128.248 32.168 127.605 32.651 127.391 32.704 127.176 32.759 126.371 33.188 126.371 33.188L125.459 33.347 124.816 33.991C124.816 33.991 126.265 35.707 126.426 39.246 126.587 42.786 126.424 52.061 126.478 54.368 126.533 56.673 126.801 70.188 126.694 72.655 126.587 75.121 126.103 80.805 124.709 81.128 123.316 81.448 122.405 80.698 122.296 80.644 122.189 80.59 119.987 79.09 118.7 78.554 117.414 78.016 113.552 76.409 112.962 76.301 112.373 76.194 112.373 76.194 112.373 76.194L111.891 75.873 111.623 76.033 102.989 73.352 102.561 73.084 102.024 73.138C102.024 73.138 86.74 68.525 85.078 67.935 83.415 67.346 81.326 67.079 81.004 66.917 80.68 66.754 79.715 66.756 79.715 66.756L75.587 65.79 75.266 65.683C75.266 65.683 75.373 66.218 75.159 66.379 74.944 66.54 74.462 66.808 74.462 66.808 74.462 66.808 73.656 66.54 73.549 66.004L65.183 63.591C65.183 63.591 58.051 61.875 56.496 61.445 54.942 61.017 42.502 58.174 41.857 58.014 41.215 57.853 35.53 56.566 34.725 56.457 33.92 56.35 30.542 56.35 29.792 54.689 29.042 53.026 29.256 52.758 29.256 52.758 29.256 52.758 28.237 50.988 28.397 49.54 28.559 48.093 29.256 47.021 29.952 46.055 29.952 46.055 31.615 40.801 31.884 39.781 32.152 38.762 33.975 33.026 34.082 31.309 34.189 29.594 34.404 27.071 31.187 26.696 27.969 26.321 28.772 26.751 27.754 26.536 26.734 26.321 21.105 24.928 20.033 24.873 18.96 24.821 15.795 24.498 14.669 24.981 13.544 25.463 11.452 26.428 11.185 28.789 10.916 31.147 10.862 32.756 10.595 33.829 10.326 34.901 9.63 38.012 10.005 39.78 10.381 41.549 11.346 43.213 13.811 44.552 16.278 45.893 20.033 45.947 20.568 45.84L20.836 45.786 20.783 45.304 21.105 44.875 21.158 43.481 20.943 42.997z"/>
 <text transform="matrix(1 0.003 -0.003 1 80.531 3.881)" stroke="none" fill="#000000" font-family="'Helvetica'" font-size="4.924">3</text>
 <path stroke-width="0.25" stroke-linejoin="round" d="M7.543 23.379C7.543 23.379 7.602 22.371 7.543 22.074C7.482 21.777 7.187 21.184 7.424 20.768C7.66 20.353 8.374 18.693 8.788 18.039C9.204 17.387 9.323 14.361 8.135 12.936C6.948 11.512 4.932 9.791 4.932 9.791"/>
 <path stroke-width="0.25" stroke-linejoin="round" d="M1.668 12.877C1.668 12.877 4.16 15.487 4.338 15.606C4.516 15.725 4.634 16.14 4.397 16.556C4.16 16.972 2.855 19.582 2.735 21.007L2.499 21.719L2.439 23.262C2.439 23.262 1.726 23.262 1.371 23.321C1.014 23.379 0.659 23.498 0.6 24.21L0.363 24.329C0.363 24.329 0.481 25.516 0.422 25.99C0.363 26.466 0.363 26.763 0.837 27.059C1.312 27.356 1.668 27.416 1.609 28.187C1.548 28.957 1.371 41.122 1.371 41.122"/>
 <path stroke-width="0.25" stroke-linejoin="round" d="M1.371 40.886C1.371 40.886 0.6 41.182 0.363 41.301C0.125 41.42 0.125 41.776 0.125 42.073C0.125 42.369 0.125 44.328 0.125 44.564C0.125 44.802 0.303 44.92 0.422 45.218C0.541 45.515 0.718 45.692 0.659 46.107C0.6 46.523 0.718 49.253 0.659 49.609C0.6 49.965 0.837 50.024 1.312 49.845C1.786 49.667 3.625 48.956 3.863 48.837C4.1 48.719 4.041 48.066 4.397 47.948C4.753 47.829 4.932 47.829 4.99 48.421C5.049 49.015 5.168 53.526 5.168 53.526L5.466 53.526L6.296 53.228C6.296 53.228 7.482 53.287 7.839 53.287C8.195 53.287 8.374 53.168 8.374 53.168L8.551 52.872L9.381 52.1L8.788 52.932L8.788 53.228L10.153 53.762L16.8 54.356L19.885 54.652C19.885 54.652 21.309 54.771 21.844 55.009C21.844 55.009 26.532 56.255 26.71 56.432C26.71 56.432 30.923 57.679 31.278 57.738C31.635 57.798 31.812 57.619 32.051 57.561C32.287 57.5 32.941 57.323 33.118 57.383"/>
 <path stroke-width="0.25" stroke-linejoin="round" d="M33.712 57.145L33 57.561L32.941 58.036C32.941 58.036 34.957 58.747 35.255 58.747C35.551 58.747 35.908 58.628 35.908 58.628C35.908 58.628 36.798 58.332 37.094 58.39"/>
 <path stroke-width="0.25" stroke-linejoin="round" d="M60.771 64.444L60.415 64.504L59.881 64.682L59.466 64.74C59.466 64.74 58.872 64.563 58.872 64.385C58.872 64.206 58.576 63.731 58.161 63.554C57.746 63.375 48.665 61.002 48.665 61.002L47.893 60.823L38.933 59.816L36.798 59.222L36.798 58.628L37.746 58.154"/>
 <path stroke-width="0.25" stroke-linejoin="round" d="M60.415 64.504L60.475 64.859L61.246 65.096C61.246 65.096 63.857 64.978 64.332 65.096C64.807 65.215 72.403 67.352 72.403 67.352L72.878 67.352C72.878 67.352 80.353 69.429 80.591 69.548C80.828 69.665 81.362 69.844 81.362 70.141C81.362 70.438 81.778 70.674 81.778 70.674L82.49 70.852L82.906 70.615L83.32 70.555L83.025 70.793C83.025 70.793 82.906 71.15 83.32 71.15C83.736 71.15 85.457 71.031 85.873 71.15C86.287 71.269 87.179 71.447 87.891 71.625C88.602 71.802 95.486 73.819 96.138 73.998C96.792 74.176 97.088 74.414 97.444 74.591C97.801 74.769 101.599 76.787 101.599 76.787L103.793 77.439C103.793 77.439 104.387 77.144 104.861 77.025C105.337 76.906 105.634 76.906 105.634 76.906"/>
 <path stroke-width="0.25" stroke-linejoin="round" d="M106.049 76.787L105.337 77.084L105.218 77.617C105.218 77.617 106.76 78.271 107.236 78.388C107.71 78.507 107.71 78.39 108.126 78.212C108.54 78.034 109.016 77.974 109.253 78.034"/>
 <path stroke-width="0.25" stroke-linejoin="round" d="M109.727 77.855L109.135 78.212L109.075 78.745C109.075 78.745 113.289 80.051 113.703 80.17C114.12 80.287 114.237 80.109 114.237 80.109L119.459 81.534"/>
 <path stroke-width="0.25" stroke-linejoin="round" d="M124.03 84.204L120.528 82.069"/>
 <path stroke-width="0.25" stroke-linejoin="round" d="M125.453 85.034L126.641 85.331C126.641 85.331 129.903 84.68 131.269 82.364C132.633 80.051 133.287 78.093 133.584 76.194C133.879 74.295 132.574 72.811 132.099 72.396L132.099 71.921"/>
 <path stroke-width="0.25" stroke-linejoin="round" d="M131.507 72.396C131.507 72.396 132.099 71.802 133.109 71.564C134.117 71.328 135.067 70.555 135.067 69.191C135.067 67.826 134.948 62.368 134.948 62.368L136.372 62.723L136.729 62.485L136.906 55.246L136.669 55.069L135.837 54.771"/>
 <path stroke-width="0.25" stroke-linejoin="round" d="M132.574 55.72C132.574 55.72 132.99 55.601 132.99 55.957C132.99 56.314 133.05 56.61 133.05 56.61L133.346 56.61C133.346 56.61 135.483 55.603 136.016 54.475C136.55 53.347 136.194 53.109 136.194 53.109C136.194 53.109 136.193 51.508 134.83 50.381L134.83 49.847L133.762 48.956"/>
 <path stroke-width="0.25" stroke-linejoin="round" d="M134.176 41.005L134.949 40.53"/>
 <path stroke-width="0.25" stroke-linejoin="round" d="M134.414 40.47L135.304 40.47C135.304 40.47 136.788 39.046 136.491 37.621C136.194 36.198 134.83 35.368 134.83 35.368L133.701 35.368"/>
 <path stroke-width="0.25" stroke-linejoin="round" d="M134.354 35.368L134.414 34.893C134.414 34.893 131.507 33.112 130.794 32.935L130.141 32.875"/>
 <path stroke-width="0.25" stroke-linejoin="round" d="M130.111 35.792L130.111 32.734L130.87 32.56L130.927 31.716L130.141 31.716"/>
 <path stroke-width="0.349" stroke-linejoin="round" d="M131.014 32.064L131.335 31.978C131.335 31.978 131.48 32.182 131.568 32.152C131.656 32.124 131.742 32.152 131.742 32.152L131.918 32.24L132.209 31.978L132.442 31.861L132.471 31.716L132.849 31.658L132.762 31.163L132.324 31.25C132.324 31.25 132.354 30.929 132.237 30.812C132.122 30.696 131.742 30.725 131.742 30.725C131.742 30.725 131.742 30.521 131.597 30.55C131.451 30.579 131.014 30.609 131.014 30.609L130.84 30.783L130.549 30.609L130.199 30.55L130.025 30.696"/>
 <path stroke-width="0.25" stroke-linejoin="round" d="M130.111 31.629C130.111 31.629 130.373 30.843 129.296 29.532C128.219 28.222 125.569 27.085 124.841 26.765C124.112 26.445 121.697 25.425 121.697 25.425C121.697 25.425 121.23 25.484 121.055 25.571C120.881 25.658 120.852 25.891 120.968 25.92C121.084 25.949 122.802 26.62 122.802 26.62C122.802 26.62 122.977 26.969 123.21 27.085C123.444 27.202 126.442 28.571 127.055 29.269C127.665 29.969 128.218 30.318 128.132 31.278C128.132 31.278 128.743 31.89 127.986 32.444C127.228 32.996 125.861 33.317 125.628 33.317C125.394 33.317 124.986 33.637 124.841 33.871C124.695 34.103 124.405 34.539 124.171 34.656C123.938 34.774 123.531 34.89 123.531 34.89L123.56 35.064C123.56 35.064 123.822 34.948 123.793 35.442C123.763 35.939 123.793 36.462 123.793 36.723C123.793 36.987 123.879 37.423 124.578 37.685C125.278 37.948 125.132 38.616 125.132 38.996C125.132 39.374 124.957 53.847 124.957 53.847L125.219 54.517L125.248 55.012L120.444 56.933C120.444 56.933 120.385 58.536 120.385 58.71C120.385 58.884 120.269 59.002 120.269 59.002"/>
 <path stroke-width="0.25" stroke-linejoin="round" d="M120.385 58.71C120.385 58.71 119.424 59.146 119.278 59.204C119.134 59.264 119.103 59.554 119.075 59.845C119.046 60.137 118.959 72.426 118.959 72.834C118.959 73.242 119.105 73.387 119.337 73.561C119.57 73.736 120.182 73.911 120.182 74.26C120.182 74.609 120.182 74.463 120.182 74.463L120.066 74.492L120.066 75.424L120.153 75.57C120.153 75.57 120.239 76.415 120.21 76.706C120.182 76.998 120.094 77.26 119.891 77.435C119.686 77.608 119.54 77.784 119.54 78.191C119.54 78.599 119.483 81.569 119.54 81.861C119.599 82.152 119.802 82.269 120.094 82.182C120.385 82.093 122.54 81.162 122.686 81.103C122.831 81.046 122.948 80.9 123.036 80.667C123.123 80.433 123.298 80.171 123.531 80.171C123.763 80.171 124.055 80.435 124.055 80.957C124.055 81.483 124.025 85.269 124.025 85.53C124.025 85.792 124.055 85.938 124.171 85.909C124.287 85.879 124.433 85.822 124.433 85.822L125.365 85.355L125.365 84.599L127.783 83.957"/>
 <path stroke-width="0.25" stroke-linejoin="round" d="M121.754 26.211C121.754 26.211 121.667 26.327 121.608 26.503C121.549 26.678 121.551 26.823 121.23 26.794C120.909 26.765 120.385 26.649 120.182 26.969C119.977 27.289 119.424 28.425 119.221 28.745C119.016 29.065 118.784 29.385 118.201 29.589C117.618 29.794 117.182 29.823 117.066 30.201C116.948 30.579 116.92 30.492 116.92 30.492L116.891 30.754C116.891 30.754 116.715 31.425 116.629 31.687C116.542 31.949 116.54 32.122 116.512 32.472C116.483 32.822 116.57 33.549 116.542 33.957C116.512 34.365 116.25 34.773 115.959 35.006C115.668 35.238 115.725 35.18 115.725 35.53C115.725 35.88 115.725 37.073 115.725 37.073"/>
 <path stroke-width="0.25" stroke-linejoin="round" d="M119.308 33.201C119.308 33.201 118.376 33.607 117.968 33.811C117.561 34.015 116.775 34.453 116.454 35.268C116.134 36.084 116.191 36.521 115.581 37.189C114.968 37.859 114.911 37.917 114.911 38.296C114.911 38.674 114.968 40.743 115.057 41.209C115.144 41.674 115.26 42.198 115.638 42.46C116.018 42.722 116.513 43.043 116.513 43.043"/>
 <path stroke-width="0.25" stroke-linejoin="round" d="M119.365 37.685C119.365 37.685 119.075 37.948 118.608 38.21C118.143 38.472 116.716 39.49 116.629 40.423C116.542 41.354 116.542 44.295 116.542 44.645C116.542 44.993 116.658 45.314 116.804 45.606C116.948 45.896 118.346 47.878 118.522 48.198C118.697 48.518 119.132 48.75 119.25 48.75"/>
 <path stroke-width="0.25" stroke-linejoin="round" d="M115.668 42.52L115.959 47.411L115.871 53.759C115.871 53.759 116.394 53.734 116.394 54.029C116.394 54.323 116.218 57.085 116.278 57.439C116.335 57.792 116.688 58.615 116.688 58.615C116.688 58.615 115.865 60.378 116.043 61.201C116.218 62.024 116.807 63.024 117.042 63.378"/>
 <path stroke-width="0.25" stroke-linejoin="round" d="M115.754 44.878L111.823 43.713"/>
 <path stroke-width="0.25" stroke-linejoin="round" d="M112.201 43.683C112.201 43.683 112.201 43.567 112.201 43.479C112.201 43.393 111.968 43.393 111.968 43.393C111.968 43.393 111.444 43.625 111.444 43.713C111.444 43.801 111.183 51.75 111.183 51.75L111.096 52.274L109.29 58.274C109.29 58.274 109.203 59.031 109.203 59.264C109.203 59.496 109.231 60.021 109.231 60.021L109.233 60.371C109.233 60.371 108.301 60.954 107.572 60.603C106.844 60.255 106.552 59.643 106.552 59.351C106.552 59.06 106.379 58.216 105.65 57.982C104.923 57.75 104.019 57.517 103.611 57.401C103.203 57.283 102.593 57.256 102.04 57.808C101.486 58.362 100.495 58.478 99.563 58.246C98.632 58.012 92.545 56.265 91.643 56.003C90.739 55.74 90.274 55.654 89.225 55.829C88.177 56.003 85.177 56.469 84.653 56.557C84.129 56.643 84.099 56.731 83.168 56.469C82.236 56.207 74.578 54.14 73.82 53.936C73.063 53.731 72.597 53.411 72.161 53.091C71.724 52.771 68.521 50.469 67.501 49.799C66.481 49.131 66.191 49.072 65.462 48.868C64.734 48.664 58.707 47.149 57.716 46.917C56.726 46.685 55.969 46.392 55.009 45.49C54.048 44.587 53.93 44.003 53.203 43.771C52.475 43.539 51.34 43.276 50.932 43.159C50.524 43.043 49.825 43.015 49.591 43.743C49.359 44.469 49.301 44.762 48.921 44.703C48.543 44.645 47.64 44.179 47.64 44.179C47.64 44.179 47.67 43.537 47.612 43.393C47.554 43.246 47.292 42.838 47.174 42.722C47.058 42.606 46.621 42.634 46.475 42.694C46.331 42.752 46.127 42.81 45.981 42.78C45.835 42.752 45.457 42.664 45.427 42.984C45.399 43.304 45.399 43.363 45.689 43.595C45.981 43.829 46.243 44.353 46.155 44.587"/>
 <path stroke-width="0.25" stroke-linejoin="round" d="M111.125 51.606C111.125 51.606 110.834 51.518 110.659 51.488C110.483 51.46 110.251 51.634 110.135 51.81C110.018 51.984 109.493 53.033 109.378 53.237C109.26 53.439 109.26 53.439 109.26 53.439"/>
 <path stroke-width="0.25" stroke-linejoin="round" d="M109.231 53.499C109.231 53.499 109.087 52.072 109.319 50.965C109.552 49.859 110.281 47.441 110.513 47.179C110.745 46.917 110.805 46.771 110.921 46.713C111.037 46.655 111.125 46.451 111.125 46.451C111.125 46.451 111.328 30.289 111.328 29.853C111.328 29.416 110.57 28.978 110.28 28.861C109.989 28.745 109.231 28.978 109.203 29.211C109.173 29.445 108.969 42.49 108.998 42.723C109.028 42.957 109.057 43.305 109.203 43.597C109.347 43.889 109.522 44.412 109.522 44.412"/>
 <path stroke-width="0.25" stroke-linejoin="round" d="M110.862 29.707C110.862 29.707 110.775 30.027 110.542 30.231C110.308 30.434 109.989 31.016 109.989 31.949C109.989 32.881 109.697 43.569 109.668 43.859C109.64 44.151 109.376 44.646 109.231 44.936C109.085 45.228 108.096 46.859 107.515 48.898C106.932 50.936 106.552 53.295 106.698 54.198C106.844 55.1 107.135 55.71 107.281 55.886C107.427 56.06 107.397 56.265 107.194 56.439C106.989 56.615 106.932 56.643 106.932 56.789C106.932 56.935 106.932 58.158 106.932 58.274C106.932 58.39 106.989 58.536 107.311 58.624C107.631 58.71 108.329 58.886 108.329 58.886L108.65 58.798L108.62 57.167L107.456 56.759"/>
 <path stroke-width="0.25" stroke-linejoin="round" d="M108.563 58.828C108.563 58.828 108.474 59.206 108.969 59.409"/>
 <path stroke-width="0.25" stroke-linejoin="round" d="M108.679 59.265C108.679 59.265 108.358 59.497 108.563 59.731C108.766 59.963 108.969 60.225 108.912 60.429"/>
 <path stroke-width="0.25" stroke-linejoin="round" d="M46.475 42.694C46.475 42.694 46.213 41.267 46.942 40.421C47.67 39.578 48.457 38.82 48.515 38.732"/>
 <path stroke-width="0.25" stroke-linejoin="round" d="M48.921 29.85C48.921 29.85 49.097 33.345 49.039 34.073C48.981 34.801 49.359 34.743 49.621 34.801C49.883 34.859 50.115 35.412 50.115 35.412C50.115 35.412 50.439 35.692 50.439 36.104C50.439 36.517 50.439 36.515 50.576 36.722C50.713 36.927 50.713 37.167 50.576 37.304C50.439 37.442 50.781 37.476 50.713 37.682C50.645 37.887 50.542 37.957 50.542 37.957C50.542 37.957 50.713 38.197 50.679 38.368C50.645 38.539 50.542 38.609 50.542 38.609C50.542 38.609 50.645 38.676 50.61 38.883C50.576 39.088 50.576 39.088 50.576 39.088C50.576 39.088 50.645 39.192 50.61 39.466C50.576 39.74 50.576 39.74 50.576 39.74C50.576 39.74 50.542 39.878 50.542 40.082C50.542 40.289 50.542 40.289 50.542 40.289C50.542 40.289 50.61 40.426 50.542 40.667C50.473 40.906 50.371 41.043 50.371 41.043C50.371 41.043 50.576 41.112 50.508 41.317C50.439 41.524 50.439 41.524 50.439 41.524C50.439 41.524 50.542 41.764 50.473 41.969C50.405 42.176 50.405 42.176 50.405 42.176C50.405 42.176 50.542 42.381 50.405 42.621C50.268 42.862 50.061 42.929 50.061 42.929L50.232 43.033"/>
 <path stroke-width="0.25" stroke-linejoin="round" d="M47.204 36.781C47.204 36.781 46.854 36.723 46.942 36.082C47.03 35.442 47.174 33.49 47.554 32.472C47.932 31.452 48.253 29.996 48.747 29.85C49.243 29.705 49.621 29.792 49.883 29.443C50.145 29.094 50.902 27.55 51.018 27.376C51.136 27.201 51.164 26.998 51.164 26.852C51.164 26.705 51.28 14.475 51.28 13.776C51.28 13.077 51.018 12.787 50.494 12.698C49.97 12.612 49.067 12.728 48.719 13.048C48.369 13.368 47.844 13.631 47.786 15.086C47.728 16.542 47.466 26.91 47.438 27.143C47.408 27.376 46.215 29.443 45.689 30.928C45.165 32.414 44.7 34.249 44.584 35.762C44.466 37.277 44.438 37.713 44.728 38.354C45.021 38.994 45.341 39.082 45.107 39.46C44.875 39.84 44.35 39.664 44.06 39.578C43.768 39.49 43.36 39.432 43.36 39.432L43.011 39.49L42.953 41.179C42.953 41.179 43.78 41.463 44.271 41.523C44.761 41.582 45.799 41.542 46.798 40.621"/>
 <path stroke-width="0.25" stroke-linejoin="round" d="M47.466 26.239C47.466 26.239 42.865 25.134 42.691 25.076C42.515 25.016 42.225 25.047 42.021 25.134C41.817 25.221 40.332 26.094 40.332 26.094L40.302 25.774L40.07 25.745"/>
 <path stroke-width="0.25" stroke-linejoin="round" d="M40.012 26.036L40.478 23.503L40.856 23.007L40.886 22.396L40.652 22.367"/>
 <path stroke-width="0.25" stroke-linejoin="round" d="M40.566 23.62C40.566 23.62 41.03 23.591 41.118 23.532L41.118 23.067L41.264 23.036L41.206 18.815L40.944 18.728L40.74 18.902"/>
 <path stroke-width="0.25" stroke-linejoin="round" d="M40.768 16.339L40.652 22.251"/>
 <path stroke-width="0.25" stroke-linejoin="round" d="M40.478 23.503L38.847 23.329L38.817 22.774L39.139 22.309C39.139 22.309 39.313 22.396 39.371 22.251"/>
 <path stroke-width="0.25" stroke-linejoin="round" d="M39.545 15.146L39.371 15.117L39.109 15.553L39.109 16.077L40.652 16.251"/>
 <path stroke-width="0.25" stroke-linejoin="round" d="M40.74 16.222L41.176 15.816C41.176 15.816 41.264 15.32 41.234 15.233C41.206 15.146 40.798 15.146 40.798 15.146"/>
 <path stroke-width="0.25" stroke-linejoin="round" d="M40.768 15.582C40.768 15.582 40.798 14.853 40.798 14.621C40.798 14.387 40.536 14.183 40.536 14.067"/>
 <path stroke-width="0.25" stroke-linejoin="round" d="M40.798 14.621C40.798 14.621 41.206 14.563 41.234 14.445C41.264 14.33 41.264 12.494 41.264 12.494L41.323 12.262L41.292 9.669L41.06 9.641C41.06 9.641 40.768 9.845 40.594 9.787C40.42 9.728 40.332 9.496 40.332 9.496L39.255 9.436"/>
 <path stroke-width="0.25" stroke-linejoin="round" d="M40.158 13.048C40.158 13.048 40.158 11.971 40.158 11.621C40.158 11.272 40.012 11.009 39.837 10.602C39.662 10.195 39.167 9.087 39.079 8.913C38.993 8.739 38.993 8.535 39.051 8.388C39.109 8.243 39.137 7.689 39.051 7.253C38.963 6.817 38.177 4.894 38.09 4.633C38.003 4.37 37.71 4.195 37.478 4.107C37.246 4.02 36.692 3.992 36.692 3.322C36.692 2.652 36.692 2.565 36.662 2.477C36.634 2.39 36.604 2.331 36.139 2.243C35.673 2.157 29.382 1.08 25.161 0.759C20.937 0.439 16.016 0.788 15.026 0.992C14.037 1.195 7.804 3.351 7.514 3.408C7.222 3.467 7.28 3.555 7.251 3.758C7.222 3.961 7.163 4.807 7.222 5.097C7.28 5.389 7.339 5.796 7.892 6.001C8.445 6.203 8.561 6.554 8.561 6.961C8.561 7.368 8.532 8.156 8.532 8.156L8.503 13.518"/>
 <path stroke-width="0.25" stroke-linejoin="round" d="M7.222 5.389L7.134 5.679L7.309 5.884C7.309 5.884 7.309 6.291 7.339 6.203"/>
 <path stroke-width="0.25" stroke-linejoin="round" d="M7.192 5.942L5.998 6.466C5.998 6.466 5.242 6.234 5.126 6.174C5.009 6.117 4.514 6.262 4.31 6.291C4.107 6.32 3.96 6.496 3.96 6.758L3.786 6.844L3.815 8.272"/>
 <path stroke-width="0.25" stroke-linejoin="round" d="M5.272 10.076C5.272 10.076 5.533 9.727 5.272 9.407C5.009 9.086 4.631 8.824 4.282 8.534C3.931 8.243 3.35 8.214 2.826 8.505C2.302 8.795 1.195 9.814 1.195 9.814"/>
 <path stroke-width="0.25" stroke-linejoin="round" d="M2.476 8.737C2.476 8.737 0.933 8.971 0.525 9.669C0.117 10.368 0.001 11.009 0.38 11.445C0.38 11.445 0.088 11.882 0.554 12.378C1.02 12.872 1.282 13.221 1.544 13.455C1.806 13.688 2.156 13.541 2.156 13.455"/>
 <path stroke-width="0.25" stroke-linejoin="round" d="M3.7 14.999L3.729 17.765"/>
 <path stroke-width="0.25" stroke-linejoin="round" d="M0.642 24.112C0.642 24.112 0.468 24.928 0.933 25.045C1.399 25.161 1.982 25.335 2.273 25.628C2.564 25.919 2.506 26.646 2.593 26.908"/>
 <path stroke-width="0.25" stroke-linejoin="round" d="M7.602 23.385C7.602 23.385 7.835 23.501 8.096 23.472C8.359 23.443 8.474 23.472 8.766 23.501C9.057 23.53 9.291 23.792 9.32 24.172C9.349 24.55 9.378 25.132 9.028 25.219C8.679 25.306 7.748 25.539 7.689 25.568"/>
 <path stroke-width="0.25" stroke-linejoin="round" d="M25.57 6.815C25.454 6.932 25.318 7.168 24.725 7.195C24.314 7.213 24.027 6.932 23.823 6.641C23.618 6.349 23.647 5.884 23.734 5.71C23.823 5.535 24.143 5.155 24.143 5.155L24.463 4.894L24.754 4.807L24.899 4.516L25.394 4.107L25.864 4.046L26.897 3.105"/>
 <path stroke-width="0.349" stroke-linejoin="round" d="M25.599 6.641L26.734 6.786L26.879 7.049C26.879 7.049 30.228 7.37 32.53 8.301C34.829 9.233 38.645 10.835 39.43 13.951L39.518 15.58"/>
 <path stroke-width="0.349" stroke-linejoin="round" d="M39.488 16.222C39.488 16.222 39.402 21.463 39.43 21.814C39.46 22.163 39.344 22.716 39.344 22.716"/>
 <path stroke-width="0.349" stroke-linejoin="round" d="M39.226 23.503C39.226 23.503 38.732 25.105 38.703 25.425C38.673 25.745 38.615 26.269 38.615 26.269"/>
 <path stroke-width="0.349" stroke-linejoin="round" d="M38.5 27.056L38.411 32.036"/>
 <path stroke-width="0.349" stroke-linejoin="round" d="M38.441 32.792C38.441 32.792 38.441 34.715 38.441 35.238C38.441 35.762 38.295 37.131 37.276 38.442C36.256 39.753 31.742 43.945 31.742 43.945"/>
 <path stroke-width="0.349" stroke-linejoin="round" d="M40.304 23.532C40.304 23.532 39.954 24.725 39.868 25.105C39.78 25.483 39.634 26.327 39.634 26.327"/>
 <path stroke-width="0.349" stroke-linejoin="round" d="M39.576 27.056L39.518 32.064"/>
 <path stroke-width="0.349" stroke-linejoin="round" d="M39.46 32.85C39.46 32.85 39.488 34.073 39.46 34.773C39.43 35.472 39.314 37.365 38.033 39.024C36.752 40.683 35.673 41.673 34.829 42.49C33.985 43.304 31.132 46.042 31.132 46.042"/>
 <path stroke-width="0.349" stroke-linejoin="round" d="M34.945 32.762C34.945 32.762 33.956 36.898 33.024 39.78C32.091 42.664 30.693 46.972 30.402 49.158C30.111 51.341 30.14 52.039 30.14 52.039"/>
 <path stroke-width="0.349" stroke-linejoin="round" d="M33.868 32.82C33.868 32.82 33.432 34.743 32.033 39.344C30.635 43.945 29.559 47.585 29.501 48.341C29.442 49.098 28.977 51.895 31.364 53.408"/>
 <path stroke-width="0.349" stroke-linejoin="round" d="M32.063 54.981C32.063 54.981 29.121 53.904 28.539 50.991C27.957 48.079 29.792 46.246 29.908 46.042"/>
 <path stroke-width="0.349" stroke-linejoin="round" d="M66.323 63.917C68.975 64.677 73.414 65.9 73.414 65.9"/>
 <path stroke-width="0.349" stroke-linejoin="round" d="M29.15 52.738C29.15 52.738 29.355 55.709 31.946 56.058C34.539 56.408 34.829 56.378 35.673 56.612C36.518 56.844 42.634 58.127 42.634 58.127C42.634 58.127 53.118 60.601 54.661 60.981C56.204 61.359 63.164 62.96 64.649 63.426C64.871 63.496 65.224 63.6 65.664 63.728"/>
 <path stroke-width="0.349" stroke-linejoin="round" d="M73.879 63.572C73.879 63.572 67.503 62.087 67.094 61.941"/>
 <path stroke-width="0.349" stroke-linejoin="round" d="M65.057 61.417C65.057 61.417 57.689 59.552 53.962 58.679C50.234 57.805 43.566 56.176 43.566 56.176"/>
 <path stroke-width="0.349" stroke-linejoin="round" d="M32.442 53.99C32.442 53.99 33.198 54.311 34.625 54.341C36.052 54.369 36.606 54.719 37.421 54.893C38.237 55.069 42.081 55.826 42.081 55.826"/>
 <path stroke-width="0.349" stroke-linejoin="round" d="M32.529 55.097C32.529 55.097 34.421 55.389 34.771 55.389C35.121 55.389 36.11 55.593 36.694 55.737C37.276 55.884 42.546 57.078 42.546 57.078"/>
 <path stroke-width="0.349" stroke-linejoin="round" d="M43.128 57.164C43.128 57.164 55.069 60.048 56.466 60.31C57.863 60.572 64.707 62.347 64.707 62.347"/>
 <path stroke-width="0.349" stroke-linejoin="round" d="M66.135 62.784C66.135 62.784 70.356 63.832 71.201 64.037C72.046 64.24 73.444 64.59 73.444 64.59"/>
 <path stroke-width="0.349" stroke-linejoin="round" d="M73.415 64.881L66.397 62.929"/>
 <path stroke-width="0.349" stroke-linejoin="round" d="M75.278 64.85L75.481 64.879L75.715 64.763C75.715 64.763 78.888 65.578 79.879 65.665"/>
 <path stroke-width="0.349" stroke-linejoin="round" d="M81.713 66.043C81.713 66.043 83.402 66.278 86.286 67.18C89.168 68.082 102.156 72.043 102.156 72.043"/>
 <path stroke-width="0.349" stroke-linejoin="round" d="M80.868 66.858C80.868 66.858 82.587 67.121 83.694 67.441C84.799 67.762 101.98 73.09 101.98 73.09"/>
 <path stroke-width="0.349" stroke-linejoin="round" d="M75.219 64.879C75.219 64.879 75.073 65.141 75.161 65.287C75.248 65.432 75.335 65.635 75.335 65.635L75.656 65.868L80.141 66.772"/>
 <path stroke-width="0.349" stroke-linejoin="round" d="M75.328 65.743C75.31 66.206 75.254 66.305 74.956 66.578C74.668 66.837 74.457 66.894 74.17 66.771C73.917 66.662 73.504 66.278 73.5 65.519C73.495 64.688 73.528 64.236 73.528 64.236C73.558 63.887 73.703 63.683 74.081 63.625C74.46 63.567 74.606 63.537 74.84 63.713C75.072 63.887 75.305 64.207 75.305 64.469L75.319 64.754"/>
 <path stroke-width="0.349" stroke-linejoin="round" d="M103.436 72.448L111.909 74.924"/>
 <path stroke-width="0.349" stroke-linejoin="round" d="M102.998 73.409C102.998 73.409 110.92 75.623 111.793 75.972"/>
 <path stroke-width="0.349" stroke-linejoin="round" d="M113.365 75.391C113.453 75.361 118.9 77.4 119.569 77.808"/>
 <path stroke-width="0.349" stroke-linejoin="round" d="M112.784 76.293C112.784 76.293 117.617 77.894 119.481 78.885"/>
 <path stroke-width="0.349" stroke-linejoin="round" d="M120.063 78.128C120.063 78.128 122.307 79.293 123.093 79.905"/>
 <path stroke-width="0.349" stroke-linejoin="round" d="M119.802 79.088C119.802 79.088 122.161 80.516 122.54 80.748"/>
 <path stroke-width="0.349" stroke-linejoin="round" d="M125.396 53.968C125.429 50.07 125.543 40.875 125.448 39.514C125.332 37.825 124.867 35.96 124.225 35.029"/>
 <path stroke-width="0.349" stroke-linejoin="round" d="M124.227 80.254C124.227 80.254 125.129 79.466 125.42 76.496C125.712 73.527 125.682 70.149 125.712 69.653C125.736 69.215 125.489 59.177 125.412 56.368"/>
 <path stroke-width="0.349" stroke-linejoin="round" d="M124.691 33.981C124.691 33.981 123.76 33.195 123.411 32.99C123.061 32.786 122.828 32.902 122.683 33.195C122.537 33.485 122.623 33.631 122.769 33.747C122.915 33.863 123.643 34.329 123.643 34.329L123.906 34.679"/>
 <path stroke-width="0.349" stroke-linejoin="round" d="M126.436 53.74C126.533 58.259 126.829 68.498 126.759 70.876C126.671 73.789 126.515 77.774 125.739 79.584C125.39 80.399 124.865 80.98 124.603 81.126"/>
 <path stroke-width="0.349" stroke-linejoin="round" d="M125.099 34.475C125.099 34.475 126.118 36.164 126.293 37.795C126.468 39.426 126.468 41.493 126.496 42.892C126.525 44.289 126.438 50.17 126.409 51.713C126.406 51.865 126.409 52.142 126.414 52.52"/>
 <path stroke-width="0.349" stroke-linejoin="round" d="M35.049 31.891C35.049 31.891 35.256 30.687 35.079 29.275C34.902 27.864 34.139 25.894 31.58 25.718C29.024 25.542 27.26 25.6 25.672 25.16C24.085 24.719 23.085 24.513 23.085 24.513L22.996 24.425L22.702 24.336L22.614 24.454C22.614 24.454 19.469 23.661 17.763 23.719C16.059 23.777 14.589 23.602 13.237 24.542C11.884 25.483 11.06 26.277 10.766 26.952L10.619 26.893L10.444 27.217L10.59 27.364C10.59 27.364 10.179 27.806 10.061 29.864C9.943 31.922 9.032 36.155 8.885 37.418L8.768 37.478L8.798 37.948L8.827 38.094C8.827 38.094 8.532 40.917 10.237 42.887C11.942 44.856 15.029 46.709 18.234 46.884C21.439 47.061 22.262 46.061 22.614 45.798C22.968 45.533 22.791 45.414 22.791 45.414L23.056 45.151L22.879 44.915L23.379 44.651C23.379 44.651 23.466 40.034 23.437 39.652C23.408 39.271 23.085 39.124 22.879 39.094"/>
 <path stroke-width="0.349" stroke-linejoin="round" d="M22.821 39.506C22.821 39.506 22.85 38.154 22.821 38.036C22.791 37.918 22.496 37.831 22.35 37.831C22.202 37.831 21.85 37.682 21.733 37.713C21.614 37.741 21.408 37.801 21.408 37.801C21.408 37.801 21.144 37.918 21.173 38.066C21.204 38.213 21.204 39.389 21.204 39.389"/>
 <path stroke-width="0.349" stroke-linejoin="round" d="M21.233 39.182C21.233 39.182 20.91 39.094 20.939 39.594C20.968 40.094 20.879 43.033 20.879 43.033"/>
 <path stroke-width="0.349" stroke-linejoin="round" d="M21.085 44.798C21.085 44.798 21.527 45.033 21.821 45.003C21.821 45.003 20.939 45.914 19.792 45.914C18.646 45.914 15.441 45.591 13.647 44.415C11.855 43.24 10.64 42.323 10.121 40.417C9.943 39.771 9.914 38.241 9.914 38.241"/>
 <path stroke-width="0.349" stroke-linejoin="round" d="M9.943 37.478C9.943 37.478 10.355 34.685 10.679 33.362C11.002 32.039 11.119 29.804 11.119 29.245C11.119 28.687 11.326 27.835 11.708 27.306C12.089 26.777 13.589 24.777 16.205 24.719C18.821 24.66 21.144 25.1 22.527 25.423C23.908 25.748 27.347 26.689 29.64 26.629C31.934 26.571 33.551 26.864 33.932 28.775C34.314 30.687 33.991 32.097 33.991 32.097"/>
 <path stroke-width="0.25" stroke-linejoin="round" d="M65.96 61.051L64.784 61.521L64.444 61.731L66.51 64.893L67.712 64.474"/>
 <path stroke-width="0.25" stroke-linejoin="round" d="M64.733 61.627L66.718 64.632"/>
 <path stroke-width="0.25" stroke-linejoin="round" d="M65.594 61.103C65.594 61.103 65.724 59.066 65.698 58.752C65.673 58.439 65.489 58.098 65.307 57.838C65.123 57.576 64.888 57.131 65.046 57C65.203 56.871 65.543 56.923 65.778 57.183C66.013 57.445 66.325 57.732 66.248 58.387C66.168 59.039 66.17 61.261 66.143 61.496"/>
 <path stroke-width="0.25" stroke-linejoin="round" d="M67.031 61.939L66.325 62.201L66.248 62.332C66.248 62.332 66.168 62.54 65.959 62.619C65.751 62.698 65.673 62.488 65.673 62.488L65.438 62.567L65.15 62.149L65.15 61.704L65.307 61.652C65.307 61.652 65.385 61.417 65.594 61.338C65.804 61.261 66.013 61.392 66.013 61.392L66.718 61.103"/>
 <path stroke-width="0.25" stroke-linejoin="round" d="M65.784 63.896C65.783 63.924 65.781 63.951 65.778 63.978C65.724 64.423 65.751 64.448 65.463 64.397C65.176 64.344 64.757 64.135 64.757 64.135"/>
 <path stroke-width="0.25" stroke-linejoin="round" d="M65.751 62.698C65.751 62.698 65.769 62.88 65.781 63.118"/>
 <path stroke-width="0.25" stroke-linejoin="round" d="M65.942 64.096C65.956 64.272 65.986 64.448 65.986 64.448L66.221 64.554"/>
 <path stroke-width="0.25" stroke-linejoin="round" d="M65.959 62.698C65.959 62.698 65.951 63.014 65.944 63.329"/>
 <path stroke-width="0.25" stroke-linejoin="round" d="M66.064 61.469C66.064 61.469 66.405 61.704 66.325 62.018"/>
 <path stroke-width="0.131" stroke-linejoin="round" d="M65.778 62.436L66.064 62.305L66.064 61.81L65.751 61.496L65.412 61.627L65.778 61.914L65.778 62.436z"/>
 <path stroke-width="0.131" stroke-linejoin="round" d="M66.64 61.078C66.927 61 67.105 61.234 67.135 61.444C67.162 61.627 67.188 61.783 66.953 61.939"/>
 <path stroke-width="0.131" stroke-linejoin="round" d="M65.778 61.914L66.064 61.81"/>
 <path stroke-width="0.349" stroke-linejoin="round" d="M25.635 5.974L25.681 6.089L26.048 6.089L26.117 6.043L26.254 6.11L26.966 6.248C26.966 6.248 27.012 5.996 27.332 6.043C27.655 6.089 30.911 6.615 32.701 7.28C34.49 7.947 37.771 9.368 39.192 11.319C40.615 13.268 40.661 15.425 40.591 15.631"/>
 <path stroke-width="0.25" stroke-linejoin="round" d="M27.356 5.905L27.379 5.056"/>
 <path stroke-width="0.25" stroke-linejoin="round" d="M27.402 5.376L27.768 5.147"/>
 <path stroke-width="0.131" stroke-linejoin="round" d="M5.123 9.843C5.152 9.666 5.182 9.579 5.035 9.519C4.887 9.461 4.065 9.49 2.918 10.755C1.77 12.019 1.389 12.929 1.742 13.313L2.007 13.282"/>
 <path stroke-width="0.131" stroke-linejoin="round" d="M5.916 30.452C5.916 30.452 5.49 30.332 4.126 29.288C2.764 28.242 2.565 26.542 2.565 26.542"/>
 <path stroke-width="0.131" stroke-linejoin="round" d="M2.536 26.806C2.536 26.806 2.83 27.981 2.447 28.541C2.065 29.099 1.83 29.333 1.801 29.687"/>
 <path stroke-width="0.25" stroke-linejoin="round" d="M8.385 18.809L8.503 22.102L8.15 22.632L8.096 23.472"/>
 <path stroke-width="0.201" stroke-linejoin="round" d="M38.512 21.416C38.651 21.236 38.725 20.958 38.725 20.515C38.725 19.397 38.665 15.164 38.725 14.811C38.783 14.458 38.548 14.164 38.371 13.811C38.195 13.458 36.314 10.343 36.314 10.343"/>
 <path stroke-width="0.201" stroke-linejoin="round" d="M10.419 20.009C10.551 20.193 10.788 20.271 11.208 20.161C12.326 19.867 12.384 19.632 13.031 19.926C13.678 20.221 19.263 21.632 19.91 21.807C20.556 21.984 24.379 21.278 26.024 21.278C27.67 21.278 30.434 21.632 31.963 21.632C33.491 21.632 36.725 21.925 37.49 21.807C37.951 21.737 38.304 21.687 38.512 21.416"/>
 <path stroke-width="0.131" stroke-linejoin="round" d="M34.432 9.637C34.432 9.637 34.021 10.343 33.432 10.343C32.844 10.343 24.202 9.166 22.027 9.108C19.85 9.05 18.323 8.932 18.146 8.872C17.969 8.814 17.382 8.637 16.969 8.579C16.559 8.521 13.794 8.461 12.795 8.756C11.795 9.05 10.384 9.108 10.268 10.931C10.15 12.753 10.268 17.868 10.268 18.632C10.268 18.727 10.265 18.824 10.262 18.923"/>
 <path stroke-width="0.131" stroke-linejoin="round" d="M49.337 13.031L49.277 29.492"/>
 <path stroke-width="0.201" stroke-linejoin="round" d="M39.176 15.612L40.762 15.752L41.177 15.217"/>
 <path stroke-width="0.201" stroke-linejoin="round" d="M40.881 22.445C40.881 22.445 40.465 22.98 40.445 22.92C40.424 22.861 38.92 22.782 38.92 22.782"/>
 <path stroke-width="0.201" stroke-linejoin="round" d="M40.332 26.094L40.286 26.385L39.792 26.96L38.286 26.881L38.305 26.306L38.584 25.989"/>
 <path stroke-width="0.201" stroke-linejoin="round" d="M38.305 26.306L39.692 26.425L40.148 25.89"/>
 <path stroke-width="0.201" stroke-linejoin="round" d="M20.666 42.715C20.666 42.715 21.166 43.182 21.166 43.527C21.166 43.871 21.196 44.34 21.196 44.34L21.071 44.996L20.791 45.244L20.76 45.526"/>
 <path stroke-width="0.201" stroke-linejoin="round" d="M21.821 45.088C21.821 45.088 22.228 44.682 22.478 44.963C22.728 45.244 22.664 45.494 22.664 45.588"/>
 <path stroke-width="0.201" stroke-linejoin="round" d="M22.884 44.807L22.478 44.963"/>
 <path stroke-width="0.201" stroke-linejoin="round" d="M50.033 35.389C50.033 35.389 49.347 34.899 48.915 34.762C48.484 34.625 48.229 34.664 47.975 34.978C47.719 35.292 47.347 36.075 47.27 36.29C47.191 36.506 46.994 36.545 46.994 36.545"/>
 <path stroke-width="0.201" stroke-linejoin="round" d="M8.931 37.552L10.704 37.642L10.884 37.237"/>
 <path stroke-width="0.201" stroke-linejoin="round" d="M10.861 37.103L11.018 37.149L11.063 37.731L10.861 38.136L10.659 38.225L8.909 38.091"/>
 <path stroke-width="0.201" stroke-linejoin="round" d="M10.771 27.027L11.759 27.544L12.051 27.722L11.961 27.992L11.669 27.948L10.59 27.364"/>
 <path stroke-width="0.201" stroke-linejoin="round" d="M22.731 24.423L22.527 25.423L22.463 25.434L22.373 25.861L22.44 25.951L22.373 26.219L22.731 26.332L22.777 25.995L22.888 25.972L22.957 25.547L22.888 25.434L23.068 24.446"/>
 <path stroke-width="0.201" stroke-linejoin="round" d="M39.606 32.156L33.344 32.127L33.316 31.98L32.786 31.98L32.786 32.097L32.051 32.067L32.109 32.567L32.728 32.597L32.816 32.774L33.198 32.744L33.316 32.627L39.636 32.686L39.606 32.156z"/>
 <path stroke-width="0.25" stroke-linejoin="round" d="M80.456 65.338C80.456 65.338 80.421 63.848 80.456 63.45C80.493 63.049 80.566 62.432 80.347 62.142C80.131 61.85 79.585 61.341 79.84 61.088C80.093 60.832 80.712 61.195 80.894 61.524C81.075 61.85 80.965 62.722 80.93 63.231C80.894 63.74 80.965 65.447 80.965 65.447"/>
 <path stroke-width="0.25" stroke-linejoin="round" d="M81.817 66.001L81.112 66.262L81.034 66.393C81.034 66.393 80.956 66.602 80.746 66.68C80.537 66.759 80.459 66.549 80.459 66.549L80.224 66.628L79.936 66.209L79.936 65.766L80.093 65.712C80.093 65.712 80.171 65.477 80.381 65.4C80.59 65.322 80.799 65.451 80.799 65.451L81.504 65.164"/>
 <path stroke-width="0.25" stroke-linejoin="round" d="M80.85 65.53C80.85 65.53 81.191 65.766 81.112 66.078"/>
 <path stroke-width="0.131" stroke-linejoin="round" d="M80.563 66.496L80.85 66.365L80.85 65.87L80.537 65.557L80.197 65.686L80.563 65.974L80.563 66.496z"/>
 <path stroke-width="0.131" stroke-linejoin="round" d="M81.426 65.138C81.713 65.06 81.893 65.295 81.923 65.504C81.948 65.686 81.974 65.843 81.739 66.001"/>
 <path stroke-width="0.131" stroke-linejoin="round" d="M80.563 65.974L80.85 65.87"/>
 <path stroke-width="0.25" stroke-linejoin="round" d="M104.04 72.346L103.334 72.608L103.256 72.737C103.256 72.737 103.177 72.947 102.968 73.025C102.76 73.103 102.68 72.894 102.68 72.894L102.445 72.972L102.158 72.555L102.158 72.111L102.314 72.058C102.314 72.058 102.394 71.822 102.602 71.745C102.811 71.667 103.021 71.798 103.021 71.798L103.725 71.51"/>
 <path stroke-width="0.25" stroke-linejoin="round" d="M103.072 71.876C103.072 71.876 103.412 72.111 103.334 72.424"/>
 <path stroke-width="0.131" stroke-linejoin="round" d="M102.786 72.843L103.072 72.712L103.072 72.215L102.76 71.902L102.42 72.033L102.786 72.319L102.786 72.843z"/>
 <path stroke-width="0.131" stroke-linejoin="round" d="M103.647 71.483C103.935 71.406 104.114 71.641 104.144 71.849C104.171 72.033 104.197 72.188 103.962 72.346"/>
 <path stroke-width="0.131" stroke-linejoin="round" d="M102.786 72.319L103.072 72.215"/>
 <path stroke-width="0.25" stroke-linejoin="round" d="M113.691 75.237L112.986 75.498L112.906 75.629C112.906 75.629 112.828 75.838 112.62 75.918C112.411 75.995 112.331 75.787 112.331 75.787L112.096 75.864L111.81 75.447L111.81 75.003L111.965 74.95C111.965 74.95 112.045 74.715 112.254 74.637C112.462 74.558 112.671 74.688 112.671 74.688L113.376 74.402"/>
 <path stroke-width="0.25" stroke-linejoin="round" d="M112.724 74.768C112.724 74.768 113.063 75.003 112.986 75.316"/>
 <path stroke-width="0.131" stroke-linejoin="round" d="M112.436 75.734L112.724 75.603L112.724 75.106L112.411 74.793L112.07 74.924L112.436 75.212L112.436 75.734z"/>
 <path stroke-width="0.131" stroke-linejoin="round" d="M113.299 74.376C113.587 74.296 113.766 74.533 113.796 74.74C113.822 74.924 113.847 75.081 113.612 75.237"/>
 <path stroke-width="0.131" stroke-linejoin="round" d="M112.436 75.212L112.724 75.106"/>
 <path stroke-width="0.25" stroke-linejoin="round" d="M80.457 66.683L81.003 67.411L81.875 67.156"/>
 <path stroke-width="0.25" stroke-linejoin="round" d="M82.275 67.266L80.93 67.737L80.712 67.629L80.239 66.793"/>
 <path stroke-width="0.25" stroke-linejoin="round" d="M80.603 67.557C80.566 67.483 80.64 68.174 80.566 68.283C80.495 68.393 80.459 68.391 80.203 68.355C79.95 68.319 79.694 68.174 79.694 68.174"/>
 <path stroke-width="0.25" stroke-linejoin="round" d="M80.712 67.629C80.712 67.629 80.748 68.066 80.748 68.246C80.748 68.429 81.004 68.683 81.257 68.647"/>
 <path stroke-width="0.25" stroke-linejoin="round" d="M102.117 72.353L101.825 72.572L102.917 74.316L103.135 74.242L104.078 73.915"/>
 <path stroke-width="0.25" stroke-linejoin="round" d="M103.971 73.697L103.171 73.953L102.445 72.972"/>
 <path stroke-width="0.25" stroke-linejoin="round" d="M103.025 71.59C103.025 71.59 102.915 70.137 103.025 69.7C103.135 69.265 103.207 68.828 103.135 68.429C103.061 68.028 102.698 67.521 102.444 67.375C102.189 67.23 101.644 67.192 101.936 67.775C102.225 68.355 102.626 68.501 102.552 69.227C102.48 69.954 102.516 71.662 102.516 71.662"/>
 <path stroke-width="0.25" stroke-linejoin="round" d="M102.698 74.025C102.698 74.025 102.843 74.861 102.48 74.715C102.117 74.569 101.754 74.534 101.754 74.534"/>
 <path stroke-width="0.25" stroke-linejoin="round" d="M102.917 74.316C102.917 74.316 102.734 74.825 102.989 74.897C103.243 74.969 103.388 74.969 103.388 74.969"/>
 <path stroke-width="0.25" stroke-linejoin="round" d="M112.875 74.498C112.875 74.498 112.728 73.115 112.838 72.68C112.947 72.245 113.021 71.662 112.947 71.299C112.875 70.936 112.548 70.608 112.329 70.391C112.111 70.173 111.566 69.99 111.748 70.427C111.93 70.864 112.403 71.554 112.403 72.063C112.403 72.572 112.365 74.534 112.365 74.534"/>
 <path stroke-width="0.25" stroke-linejoin="round" d="M111.888 75.236C111.888 75.236 111.552 75.359 111.683 75.587C111.813 75.814 112.218 76.79 112.353 76.944C112.489 77.099 112.625 77.254 112.956 77.203C113.287 77.153 113.808 76.971 113.808 76.971"/>
 <path stroke-width="0.25" stroke-linejoin="round" d="M112.512 77.15C112.512 77.15 112.584 77.659 112.221 77.585C111.856 77.513 111.566 77.405 111.566 77.405"/>
 <path stroke-width="0.25" stroke-linejoin="round" d="M112.656 77.222C112.656 77.222 112.51 77.731 112.766 77.84C113.021 77.95 113.129 77.914 113.129 77.914"/>
 <path stroke-width="0.25" stroke-linejoin="round" d="M112.257 75.879C112.257 75.879 112.728 76.533 112.838 76.715C112.947 76.896 113.602 76.715 113.602 76.715"/>
 <path stroke-width="0.25" stroke-linejoin="round" d="M124.978 55.087L125.92 54.792C125.92 54.792 125.92 54.088 125.92 53.734C125.92 53.381 126.507 52.853 127.39 53.088C128.271 53.323 129.448 53.618 129.448 53.618L130.094 54.441L132.152 55.146C132.152 55.146 132.329 54.734 132.504 54.734C132.681 54.734 132.931 54.771 132.931 54.771C132.931 54.771 133.701 55.069 133.762 54.415C133.82 53.762 133.82 42.31 133.82 42.31C133.879 41.835 134.414 41.539 134.414 41.539L134.414 41.182L133.584 40.945"/>
 <path stroke-width="0.25" stroke-linejoin="round" d="M133.092 54.792L132.99 55.957"/>
 <path stroke-width="0.25" stroke-linejoin="round" d="M131.447 39.74C131.447 39.74 130.153 40.329 129.8 40.387C129.448 40.447 129.153 40.859 129.153 42.093C129.153 43.328 129.094 46.561 129.094 46.561C129.094 46.561 127.802 46.796 127.861 47.619C127.918 48.442 127.742 50.795 127.802 51.088C127.861 51.383 127.801 51.735 128.271 51.735C128.742 51.735 128.978 52.03 128.978 52.03L129.036 53.441"/>
 <path stroke-width="0.25" stroke-linejoin="round" d="M126.793 62.756C126.793 62.593 126.631 62.073 127.215 62.008C127.801 61.942 131.801 61.195 131.801 61.195L132.323 61.031L132.193 69.034C132.224 69.522 132.258 69.912 131.801 70.01C131.347 70.106 126.891 70.855 126.891 70.855"/>
 <path stroke-width="0.349" stroke-linejoin="round" d="M122.594 33.601C122.594 33.601 122.292 33.677 121.987 33.601C121.683 33.526 121.418 33.146 121.379 32.576C121.341 32.006 121.456 31.664 121.798 31.588C122.14 31.513 122.936 31.437 122.936 31.437L123.088 31.588L124.227 31.399C124.227 31.399 124.456 31.134 124.76 31.134C125.063 31.134 125.254 31.134 125.254 31.134L125.594 30.981L125.974 31.134L127.95 30.905"/>
 <path stroke-width="0.131" stroke-linejoin="round" d="M125.899 34.514C125.899 34.514 129.924 33.487 130.114 31.324"/>
 <path stroke-width="0.131" stroke-linejoin="round" d="M130.075 35.387C130.075 35.387 129.885 37.02 129.544 37.551C129.201 38.082 129.163 39.601 129.163 39.716"/>
 <path stroke-width="0.131" stroke-linejoin="round" d="M131.1 39.677L129.316 38.387"/>
 <path stroke-width="0.131" stroke-linejoin="round" d="M117.262 29.951L120.834 32.377"/>
 <path stroke-width="0.25" stroke-linejoin="round" d="M44.1 55.942L43.396 56.204L43.317 56.335C43.317 56.335 43.238 56.543 43.03 56.622C42.82 56.701 42.741 56.491 42.741 56.491L42.506 56.57L42.219 56.152L42.219 55.707L42.375 55.655C42.375 55.655 42.454 55.42 42.664 55.341C42.872 55.264 43.082 55.395 43.082 55.395L43.787 55.106"/>
 <path stroke-width="0.25" stroke-linejoin="round" d="M43.134 55.472C43.134 55.472 43.473 55.707 43.396 56.021"/>
 <path stroke-width="0.131" stroke-linejoin="round" d="M42.847 56.439L43.134 56.308L43.134 55.811L42.82 55.499L42.481 55.628L42.847 55.917L42.847 56.439z"/>
 <path stroke-width="0.131" stroke-linejoin="round" d="M43.709 55.081C43.996 55.002 44.176 55.237 44.206 55.447C44.231 55.628 44.258 55.786 44.023 55.942"/>
 <path stroke-width="0.131" stroke-linejoin="round" d="M42.847 55.917L43.134 55.811"/>
 <path stroke-width="0.25" stroke-linejoin="round" d="M33.341 53.341L32.636 53.603L32.557 53.732C32.557 53.732 32.478 53.942 32.27 54.021C32.06 54.1 31.983 53.89 31.983 53.89L31.748 53.969L31.46 53.549L31.46 53.106L31.617 53.054C31.617 53.054 31.695 52.819 31.903 52.74C32.112 52.661 32.322 52.792 32.322 52.792L33.027 52.505"/>
 <path stroke-width="0.25" stroke-linejoin="round" d="M32.375 52.871C32.375 52.871 32.715 53.106 32.636 53.42"/>
 <path stroke-width="0.131" stroke-linejoin="round" d="M32.087 53.838L32.375 53.707L32.375 53.21L32.06 52.896L31.721 53.027L32.087 53.314L32.087 53.838z"/>
 <path stroke-width="0.131" stroke-linejoin="round" d="M32.95 52.478C33.237 52.401 33.415 52.636 33.445 52.844C33.472 53.027 33.497 53.183 33.262 53.341"/>
 <path stroke-width="0.131" stroke-linejoin="round" d="M32.087 53.314L32.375 53.21"/>
 <path stroke-width="0.25" stroke-linejoin="round" d="M31.971 52.648C31.971 52.648 31.971 50.543 31.945 50.231C31.919 49.92 31.867 49.609 31.66 49.271C31.452 48.932 31.166 48.725 31.347 48.518C31.53 48.31 32.023 48.518 32.231 48.7C32.439 48.881 32.673 49.375 32.646 49.634C32.621 49.895 32.49 50.414 32.49 50.725C32.49 51.037 32.49 52.96 32.49 52.96"/>
 <path stroke-width="0.25" stroke-linejoin="round" d="M32.127 54.103C32.127 54.103 32.1 55.298 32.1 55.479C32.1 55.661 31.971 55.972 31.763 55.817C31.556 55.661 31.166 55.636 31.166 55.636"/>
 <path stroke-width="0.25" stroke-linejoin="round" d="M32.335 53.999C32.335 53.999 32.335 55.167 32.308 55.427C32.283 55.688 32.256 55.921 32.465 55.973C32.673 56.026 32.957 55.999 32.957 55.999"/>
 <path stroke-width="0.25" stroke-linejoin="round" d="M42.595 55.323C42.595 55.323 42.57 53.582 42.595 53.375C42.621 53.167 42.7 52.7 42.621 52.518C42.545 52.337 42.103 51.713 42.024 51.505C41.947 51.298 41.895 50.984 42.284 51.09C42.673 51.194 43.194 51.531 43.219 51.999C43.246 52.466 43.09 53.064 43.09 53.35C43.09 53.634 43.115 55.246 43.115 55.246"/>
 <path stroke-width="0.25" stroke-linejoin="round" d="M42.725 56.726C42.725 56.726 42.829 57.506 42.777 57.817C42.725 58.13 42.7 58.493 42.414 58.415C42.128 58.338 41.817 58.286 41.817 58.286"/>
 <path stroke-width="0.25" stroke-linejoin="round" d="M42.933 56.779C42.933 56.779 42.933 57.609 42.933 57.973C42.933 58.338 42.856 58.57 43.064 58.622C43.271 58.674 43.531 58.701 43.531 58.701"/>
 <path stroke-width="0.201" stroke-linejoin="round" d="M30.022 44.326C30.022 44.326 29.788 44.563 29.434 45.151C29.082 45.738 28.788 46.621 28.318 46.796C27.847 46.972 24.495 47.561 24.495 47.561C24.495 47.561 23.908 47.796 23.731 47.914C23.556 48.031 22.202 48.326 20.615 48.619C19.027 48.914 16.088 49.149 12.855 48.502C9.621 47.856 4.682 45.914 4.682 45.914C4.484 45.716 4.211 45.579 4.211 44.692C4.211 43.807 4.211 42.408 4.176 42.033C4.142 41.658 3.937 41.317 3.562 41.215C3.188 41.112 2.165 41.418 1.995 41.078"/>
 <path stroke-width="0.197" stroke-linejoin="round" d="M25.495 4.11C25.495 3.64 25.789 2.847 26.818 2.935C27.847 3.023 28.111 3.817 28.141 4.258C28.17 4.698 28.434 5.669 27.524 5.875"/>
 <path stroke-width="0.131" stroke-linejoin="round" d="M23.85 5.61C24.054 5.375 24.114 5.198 24.643 5.286C25.172 5.375 25.466 5.58 25.495 5.903"/>
 <path stroke-width="0.131" stroke-linejoin="round" d="M24.614 4.934C24.731 4.905 25.289 4.905 25.583 5.198C25.878 5.492 25.937 5.727 25.966 5.963"/>
 <path stroke-width="0.131" stroke-linejoin="round" d="M26.966 6.248C26.966 6.248 26.878 6.785 26.878 6.873"/>
 <path stroke-width="0.131" stroke-linejoin="round" d="M24.789 4.934C24.789 4.934 25.054 4.434 25.643 4.522C26.231 4.61 26.347 4.993 26.437 5.168"/>
 <path stroke-width="0.131" stroke-linejoin="round" d="M26.172 5.963L26.231 5.256L26.612 5.11L26.818 4.993C26.672 4.934 26.76 4.493 26.76 4.493C26.524 4.11 26.083 3.992 25.995 3.992"/>
 <path stroke-width="0.131" stroke-linejoin="round" d="M26.731 4.434L27.23 4.522L27.789 4.022L27.905 3.523"/>
 <path stroke-width="0.25" stroke-linejoin="round" d="M25.408 5.963L24.673 5.844L24.554 6.198L24.585 6.61L25.437 6.727"/>
 <path stroke-width="0.131" stroke-linejoin="round" d="M25.583 6.051C25.583 6.051 25.466 6.344 25.495 6.492"/>
 <path stroke-width="0.131" stroke-linejoin="round" d="M24.025 4.905C24.025 4.905 23.643 4.815 23.643 3.934C23.643 3.052 23.673 2.964 23.673 2.612C23.673 2.258 23.791 1.964 24.32 1.964C24.849 1.964 28.789 2.406 29.259 2.493C29.728 2.581 29.934 2.817 29.934 3.347C29.934 3.875 29.905 4.522 29.876 4.727C29.847 4.934 29.728 5.227 29.376 5.346"/>
 <path stroke-width="0.201" stroke-linejoin="round" d="M2.23 23.268L2.259 25.498"/>
 <path stroke-width="0.201" stroke-linejoin="round" d="M7.748 23.44L7.719 25.44"/>
 <path stroke-width="0.131" stroke-linejoin="round" d="M42.31 25.1L42.253 33.332"/>
 <path stroke-width="0.131" stroke-linejoin="round" d="M42.606 33.627L44.487 34.097"/>
 <path stroke-width="0.131" stroke-linejoin="round" d="M42.018 33.627L40.076 36.508"/>
 <path stroke-width="0.349" stroke-linejoin="round" d="M122.912 80.977C123.2 81.182 123.629 81.305 124.019 81.263"/>
 <path stroke-width="0.131" stroke-linejoin="round" d="M134.354 56.406L134.241 69.287"/>
 <path stroke-width="0.131" stroke-linejoin="round" d="M123.088 31.588L123.239 31.896L123.332 31.896L123.296 32.121C123.296 32.121 123.408 32.42 123.388 32.889"/>
 <path stroke-width="0.201" stroke-linejoin="round" d="M122.435 33.395L122.304 33.32L122.228 33.338L122.173 33.207L122.06 33.244L121.573 33.039"/>
 <path stroke-width="0.201" stroke-linejoin="round" d="M121.424 32.609C121.48 32.459 121.668 32.29 121.911 32.29L121.986 32.216L122.546 32.552L122.602 32.72"/>
 <path stroke-width="0.201" stroke-linejoin="round" d="M122.379 32.682C122.379 32.682 122.677 32.627 122.715 32.701C122.753 32.777 122.753 32.851 122.753 32.851"/>
 <path stroke-width="0.201" stroke-linejoin="round" d="M126.457 33.076C126.457 33.076 126.439 32.347 126.457 32.177C126.477 32.009 126.439 31.879 126.346 31.785C126.251 31.692 126.177 31.653 126.177 31.653C126.177 31.653 126.046 31.242 125.933 31.167"/>
 <path stroke-width="0.201" stroke-linejoin="round" d="M130.84 30.783C130.84 30.783 131.117 31.092 131.117 31.335C131.117 31.579 131.155 31.841 131.137 31.896"/>
 <path stroke-width="0.131" stroke-linejoin="round" d="M121.798 31.588C121.93 31.579 122.246 31.972 122.284 32.347"/>
 <path stroke-width="0.131" stroke-linejoin="round" d="M121.966 33.207C121.911 33.113 121.873 32.945 122.004 32.758C122.135 32.57 122.397 32.609 122.397 32.609"/>
 <path stroke-width="0.131" stroke-linejoin="round" d="M124.418 31.317C124.605 31.28 124.924 31.448 125.036 32.009L125.073 32.103L125.147 32.177L125.147 32.496"/>
 <path stroke-width="0.131" stroke-linejoin="round" d="M125.28 33.395C125.28 33.395 125.373 32.72 125.373 32.57C125.373 32.42 125.186 32.347 125.203 32.234"/>
 <path stroke-width="0.131" stroke-linejoin="round" d="M125.147 32.177L125.746 32.158C125.746 32.158 125.84 32.216 126.102 32.253C126.364 32.29 126.421 32.253 126.421 32.253"/>
 <path stroke-width="0.201" stroke-linejoin="round" d="M126.177 31.653C126.009 31.673 125.709 31.71 125.691 32.085"/>
 <path stroke-width="0.131" stroke-linejoin="round" d="M123.837 33.189C123.837 33.189 124.287 33.225 124.343 32.889C124.4 32.552 124.474 32.197 124.474 32.197L125.073 32.103"/>
 <path stroke-width="0.131" stroke-linejoin="round" d="M126.495 31.916L128.311 31.635"/>
 <path stroke-width="0.131" stroke-linejoin="round" d="M131.062 31.429L132.203 31.28"/>
 <path stroke-width="0.131" stroke-linejoin="round" d="M132.015 30.905L131.567 30.998L131.361 31.149L131.361 31.373L131.324 31.879"/>
 <path stroke-width="0.131" stroke-linejoin="round" d="M117.906 33.768C117.906 33.768 118.448 32.459 118.524 32.271C118.599 32.084 118.805 31.841 118.992 32.253C119.18 32.664 119.385 33.694 119.685 33.862C119.983 34.03 123.707 36.332 123.707 36.332"/>
 <path stroke-width="0.131" stroke-linejoin="round" d="M115.156 38.091L116.504 38.447"/>
 <path stroke-width="0.201" stroke-linejoin="round" d="M119.123 48.722L124.998 50.368"/>
 <path stroke-width="0.131" stroke-linejoin="round" d="M111.23 52.072L115.486 53.353"/>
 <path stroke-width="0.131" stroke-linejoin="round" d="M109.308 58.738L115.674 60.698"/>
 <path stroke-width="0.131" stroke-linejoin="round" d="M118.763 65.593C118.763 65.593 93.978 58.25 92.322 57.835C90.665 57.42 89.912 57.383 88.933 57.533C87.953 57.683 85.843 58.023 85.24 58.136C84.638 58.249 83.772 58.399 81.888 57.796C80.006 57.195 73.677 55.537 73.037 55.387C72.397 55.235 70.814 54.219 70.212 53.767C69.608 53.314 66.634 51.167 66.182 50.979C65.73 50.792 65.578 50.49 63.28 49.924C60.984 49.359 35.145 42.957 35.145 42.957"/>
 <path stroke-width="0.201" stroke-linejoin="round" d="M37.781 43.258C37.781 43.258 37.103 42.731 37.442 42.091C37.781 41.45 38.308 41.526 38.496 41.036C38.686 40.545 38.648 39.905 38.798 39.302C38.948 38.7 39.024 38.247 39.024 38.247"/>
 <path stroke-width="0.131" stroke-linejoin="round" d="M118.688 69.903C118.688 69.903 112.337 67.316 110.984 67.022C109.632 66.728 109.281 66.552 108.399 66.611C107.516 66.67 105.692 67.022 105.105 67.14"/>
 <path stroke-width="0.131" stroke-linejoin="round" d="M100.754 66.963L81.646 61.496"/>
 <path stroke-width="0.131" stroke-linejoin="round" d="M78.823 60.789L66.593 57.439"/>
 <path stroke-width="0.131" stroke-linejoin="round" d="M64.594 56.909C64.594 56.909 49.896 53.323 48.426 52.853C46.956 52.381 44.134 52.088 41.194 49.972C38.253 47.854 37.783 47.326 35.844 46.854C33.904 46.384 32.021 45.914 32.021 45.914"/>
 <path stroke-width="0.131" stroke-linejoin="round" d="M20.945 39.487C21.286 39.691 21.876 39.896 22.376 39.826C22.875 39.759 23.216 39.735 23.306 39.509"/>
 <path stroke-width="0.131" stroke-linejoin="round" d="M21.239 37.942C21.468 38.055 21.763 38.101 22.057 38.146C22.353 38.192 22.579 38.17 22.739 38.079"/>
 <path stroke-width="0.131" stroke-linejoin="round" d="M21.58 44.527L22.262 44.573L22.307 44.868"/>
 <path stroke="#FFFFFF" stroke-width="0.501" d="M27.402 5.376L78.909 2.452"/>
 <path stroke-width="0.131" d="M27.402 5.376L78.909 2.452"/>
 <path stroke="#FFFFFF" stroke-width="0.501" d="M83.703 4.11L124.474 32.197"/>
 <path stroke-width="0.131" d="M83.703 4.11L124.474 32.197"/>
 <text transform="matrix(1 0.003 -0.003 1 2.431 67.688)" stroke="none" fill="#000000" font-family="'Helvetica'" font-size="4.924">1 </text>
 <path stroke="#FFFFFF" stroke-width="0.501" d="M21.815 42.253L5.666 63.831"/>
 <path stroke-width="0.131" d="M21.815 42.253L5.666 63.831"/>
 <text transform="matrix(1 0.003 -0.003 1 56.301 80.837)" stroke="none" fill="#000000" font-family="'Helvetica'" font-size="4.924">2</text>
 <path stroke="#FFFFFF" stroke-width="0.501" d="M74.274 65.748L60.476 77.213"/>
 <path stroke-width="0.131" d="M74.274 65.748L60.476 77.213"/>
 <path stroke-width="0.131" stroke-linejoin="round" d="M74.221 63.694C74.403 63.694 74.974 64.012 75.001 64.691C75.028 65.371 74.974 65.852 74.983 66.025C74.992 66.197 74.902 66.551 74.784 66.65"/>
 <path stroke-width="0.131" stroke-linejoin="round" d="M74.149 63.993C74.403 64.012 74.737 64.201 74.784 64.682C74.828 65.162 74.765 65.753 74.765 65.915C74.765 66.078 74.737 66.433 74.385 66.433"/>
 <path stroke-width="0.201" stroke-linejoin="round" d="M120.427 59.42C120.427 59.42 124.498 57.72 124.807 57.566"/>
 <path stroke-width="0.131" stroke-linejoin="round" d="M119.45 73.019C119.45 73.019 123.879 71.421 124.137 71.268"/>
 <path stroke-width="0.131" stroke-linejoin="round" d="M50.292 37.145C50.292 37.145 50.024 36.957 49.515 36.93C49.008 36.904 48.552 36.984 48.552 37.252C48.552 37.518 48.82 37.573 48.82 37.573C48.82 37.573 48.527 37.652 48.527 37.866C48.527 38.081 48.793 38.188 48.793 38.188"/>
 <path stroke-width="0.131" stroke-linejoin="round" d="M49.863 35.405C49.597 35.478 49.268 35.508 49.048 36.317"/>
 <text transform="matrix(0 -1 1 0 141.735 87.257)" stroke="none" fill="#000000" font-family="'Helvetica'" font-size="2.117">307 723</text>
</svg>
