<?xml version="1.0" encoding="utf-8"?>
<!DOCTYPE svg PUBLIC "-//W3C//DTD SVG 1.1//EN" "http://www.w3.org/Graphics/SVG/1.1/DTD/svg11.dtd">
<!-- Generator: PTC Arbortext IsoDraw 7.3 -->
<svg id="Standard_x0020_layer" width="100%" height="100%" viewBox="0 0 75 56.323"
 xmlns="http://www.w3.org/2000/svg" xmlns:xlink="http://www.w3.org/1999/xlink"
 fill-rule="evenodd" clip-rule="evenodd" stroke="#000000" stroke-linecap="round" fill="none" xml:space="preserve">
 <path stroke="none" fill="#B2B2B2" d="M35.463 16.35C36.627 16.085 36.957 16.175 37.941 16.126 38.368 16.106 38.701 16.108 38.975 16.077L39.091 16.179C39.326 16.327 39.335 16.66 39.335 16.66 39.335 16.66 40.57 17.248 40.776 17.217 40.981 17.189 42.393 16.954 42.774 16.894 43.156 16.835 43.186 17.042 43.098 17.189L44.127 17.806 44.21 17.888C44.192 17.978 44.173 18.073 44.155 18.17L43.921 18.129C43.921 18.129 39.835 17.718 39.6 17.689 39.365 17.658 39.1 17.748 39.012 17.835L39.1 17.748C39.1 17.748 38.658 17.454 37.835 17.189 37.338 17.028 37.014 16.945 36.704 16.922L36.631 16.983C36.631 16.983 36.512 17.16 36.365 17.277 36.219 17.394 35.984 17.658 35.689 17.629 35.396 17.6 35.454 16.954 35.454 16.542L35.463 16.35z"/>
 <path stroke="none" fill="#B2B2B2" d="M43.188 28.121C43.188 28.121 41.776 28.625 41.423 28.594 41.07 28.565 39.305 27.859 39.305 27.859 39.305 27.859 38.335 27.978 38.1 28.007 37.865 28.036 37.835 28.213 37.719 28.359 37.6 28.507 37.307 28.594 37.131 28.478 36.954 28.359 36.837 28.3 36.601 28.33 36.365 28.359 36.219 28.359 36.131 28.213 36.042 28.065 35.779 28.096 35.514 28.096 35.249 28.096 35.131 27.978 34.954 27.83 34.779 27.684 34.573 27.859 34.396 27.771 34.219 27.684 34.573 26.567 34.573 26.567 35.307 26.626 35.366 27.272 36.337 27.33 36.906 27.365 37.243 27.157 37.424 26.978 37.424 26.978 37.895 27.42 39.218 27.567 40.54 27.713 43.225 27.928 43.225 27.928L43.188 28.121z"/>
 <path stroke-width="0.25" stroke-linejoin="round" d="M25.46 25.009C25.46 25.457 25.228 25.87 24.679 25.87C24.132 25.87 18.952 25.422 17.161 25.521C15.368 25.62 12.878 24.475 10.237 24.275C7.599 24.077 0.478 23.131 0.478 23.131"/>
 <path stroke-width="0.25" stroke-linejoin="round" d="M26.971 17.004C26.821 16.408 26.722 16.059 25.826 15.859C24.928 15.66 21.641 15.561 20.048 15.311C18.454 15.063 16.762 14.763 15.169 14.814C13.574 14.864 10.736 14.964 8.346 14.714C5.955 14.465 0.478 13.817 0.478 13.817"/>
 <path stroke-width="0.25" stroke-linejoin="round" d="M33.133 16.513L32.308 16.394C32.308 16.394 31.986 16.365 31.751 16.571C31.515 16.777 30.928 17.277 29.899 17.277C28.87 17.277 27.518 17.16 26.606 17.16C25.695 17.16 25.283 18.952 25.106 20.804C24.939 22.573 24.989 25.009 25.87 25.126C26.753 25.243 28.282 25.185 29.193 25.303C30.105 25.42 30.222 25.568 30.28 25.803C30.339 26.038 30.78 26.655 31.28 26.713C31.78 26.772 32.133 26.832 32.985 26.832C33.838 26.832 33.838 26.507 34.573 26.567C35.307 26.626 35.366 27.272 36.337 27.33C36.906 27.365 37.243 27.157 37.424 26.978C37.424 26.978 37.895 27.42 39.218 27.567C40.54 27.713 43.225 27.928 43.225 27.928"/>
 <path stroke-width="0.25" stroke-linejoin="round" d="M34.573 26.567C34.573 26.567 34.219 27.684 34.396 27.771C34.573 27.859 34.779 27.684 34.954 27.83C35.131 27.978 35.249 28.096 35.514 28.096C35.779 28.096 36.042 28.065 36.131 28.213C36.219 28.359 36.365 28.359 36.601 28.33C36.837 28.3 36.954 28.359 37.131 28.478C37.307 28.594 37.6 28.507 37.719 28.359C37.835 28.213 37.865 28.036 38.1 28.007C38.335 27.978 39.305 27.859 39.305 27.859C39.305 27.859 41.07 28.565 41.423 28.594C41.776 28.625 43.188 28.121 43.188 28.121"/>
 <path stroke-width="0.25" stroke-linejoin="round" d="M46.567 27.361C46.067 29.153 45.42 30.329 44.979 30.3C44.539 30.271 43.966 30.219 43.673 30.161C43.378 30.102 43.274 27.507 43.451 23.745C43.628 19.981 44.539 16.365 44.597 16.219C44.656 16.071 45.304 15.778 45.304 15.778C45.304 15.778 46.509 15.865 46.774 15.894C47.037 15.925 47.39 17.071 47.39 19.364"/>
 <path stroke-width="0.25" stroke-linejoin="round" d="M69.498 40.207C70.144 40.179 70.938 40.119 70.938 39.884C70.938 39.649 72.231 29.125 72.231 28.978C72.231 28.83 71.996 28.594 71.819 28.565C71.644 28.536 71.527 28.478 71.055 28.125C70.584 27.771 64.412 21.922 64.412 21.922L62.002 21.539C62.002 21.539 61.972 21.245 61.502 21.216C61.03 21.187 53.034 20.187 52.917 20.187C52.799 20.187 52.652 20.57 52.594 20.804C52.536 21.039 52.329 21.216 51.859 21.216C51.389 21.216 48.831 20.775 48.243 20.687C47.655 20.599 47.832 19.864 47.713 19.716C47.713 19.716 47.39 19.629 47.155 19.629C46.92 19.629 46.42 21.216 46.037 21.245"/>
 <path stroke-width="0.25" stroke-linejoin="round" d="M43.362 21.745L39.365 21.333"/>
 <path stroke-width="0.25" stroke-linejoin="round" d="M39.57 21.51C39.57 21.51 39.277 24.361 39.365 24.391C39.453 24.42 41.304 24.626 41.481 24.626C41.658 24.626 41.688 24.597 42.039 24.626C42.393 24.655 43.156 24.714 43.156 24.714"/>
 <path stroke-width="0.3" stroke-linejoin="round" d="M35.454 16.542C35.454 16.954 35.396 17.6 35.689 17.629C35.984 17.658 36.219 17.394 36.365 17.277C36.512 17.16 36.631 16.983 36.631 16.983"/>
 <path stroke-width="0.3" stroke-linejoin="round" d="M36.072 16.954C36.659 16.865 37.012 16.925 37.835 17.189C38.658 17.454 39.1 17.748 39.1 17.748"/>
 <path stroke-width="0.25" stroke-linejoin="round" d="M39.012 17.835C39.1 17.748 39.365 17.658 39.6 17.689C39.835 17.718 43.921 18.129 43.921 18.129"/>
 <path stroke-width="0.3" stroke-linejoin="round" d="M39.091 16.179C39.326 16.327 39.335 16.66 39.335 16.66C39.335 16.66 40.57 17.248 40.776 17.217C40.981 17.189 42.393 16.954 42.774 16.894C43.156 16.835 43.186 17.042 43.098 17.189L44.127 17.806"/>
 <path stroke-width="0.131" stroke-linejoin="round" d="M41.981 21.922C41.834 23.039 41.716 24.42 41.716 24.42"/>
 <path stroke-width="0.131" stroke-linejoin="round" d="M39.188 21.422C39.07 22.099 38.777 24.743 39.012 24.743C39.246 24.743 43.216 25.155 43.216 25.155"/>
 <path stroke-width="0.131" stroke-linejoin="round" d="M38.072 16.335C38.247 16.16 38.57 16.071 38.718 16.306C38.865 16.542 38.923 16.925 38.923 16.925C38.923 16.925 40.511 17.658 40.688 17.6C40.863 17.542 42.569 17.306 42.569 17.306"/>
 <path stroke-width="0.131" stroke-linejoin="round" d="M42.862 17.542L43.716 17.983"/>
 <path stroke-width="0.131" stroke-linejoin="round" d="M43.098 17.189L42.862 17.335"/>
 <path stroke-width="0.131" stroke-linejoin="round" d="M35.984 17.1L36.042 17.394"/>
 <path stroke-width="0.131" stroke-linejoin="round" d="M37.277 17.277C37.572 17.423 37.542 17.952 37.895 18.042C38.247 18.129 38.746 18.246 39.012 18.129C39.277 18.012 39.481 17.983 39.893 17.983C40.305 17.983 43.921 18.393 43.921 18.393"/>
 <path stroke-width="0.131" stroke-linejoin="round" d="M38.335 18.452C38.042 19.57 37.395 23.539 37.572 26.567"/>
 <path stroke-width="0.131" stroke-linejoin="round" d="M36.161 21.628C35.984 22.745 35.807 24.509 35.866 25.714"/>
 <path stroke-width="0.131" stroke-linejoin="round" d="M33.573 16.631C33.191 17.394 32.691 19.51 32.396 21.981C32.103 24.449 32.22 26.626 32.456 26.713"/>
 <path stroke-width="0.131" stroke-linejoin="round" d="M31.897 16.542C31.074 17.16 30.663 18.981 30.368 21.07C30.074 23.157 30.164 25.949 30.722 26.42"/>
 <path stroke-width="0.131" stroke-linejoin="round" d="M35.042 26.92C35.014 27.126 35.014 27.361 35.249 27.39C35.484 27.42 35.954 27.536 37.307 27.478"/>
 <path stroke-width="0.25" stroke-linejoin="round" d="M24.929 24.039L24.312 23.951"/>
 <path stroke-width="0.25" stroke-linejoin="round" d="M25.695 17.748L24.96 17.689"/>
 <path stroke-width="0.131" stroke-linejoin="round" d="M26.106 15.984C25.37 15.836 24.754 16.277 24.577 16.865C24.4 17.454 24.048 18.423 23.666 19.393C23.283 20.364 23.431 21.981 23.812 22.716C24.196 23.451 24.106 25.803 24.96 25.803"/>
 <path stroke-width="0.131" stroke-linejoin="round" d="M24.783 17.748C24.637 18.335 23.931 19.51 23.843 20.422C23.754 21.333 24.018 23.716 24.283 23.803"/>
 <path stroke-width="0.25" stroke-linejoin="round" d="M45.479 25.068C45.862 25.42 45.743 27.184 46.037 27.184C46.332 27.184 46.42 27.184 46.715 27.184C47.008 27.184 47.037 26.213 47.448 26.272C47.86 26.332 50.39 26.626 50.771 26.655C51.154 26.684 51.476 26.89 51.654 27.036C51.829 27.184 51.654 27.919 51.801 27.949C51.801 27.949 50.389 36.71 50.389 37.033C50.389 37.356 50.713 37.444 50.713 37.444C50.713 37.444 52.212 38.209 52.624 38.268C53.034 38.326 66.558 40.119 67.322 40.207C68.087 40.295 69.322 40.442 69.322 40.267C69.322 40.09 69.587 38.826 69.468 38.591"/>
 <path stroke-width="0.25" stroke-linejoin="round" d="M46.832 17.658C46.509 17.777 45.892 20.364 45.567 23.626C45.244 26.89 45.479 28.39 45.715 28.449"/>
 <path stroke-width="0.131" stroke-linejoin="round" d="M46.332 16.542C46.037 17.365 45.332 20.158 44.951 24.009C44.569 27.861 44.95 30.094 45.155 30.153"/>
 <path stroke-width="0.131" stroke-linejoin="round" d="M47.155 19.629C46.655 20.804 45.892 25.126 46.067 27.067"/>
 <path stroke-width="0.131" stroke-linejoin="round" d="M47.655 19.864C47.39 20.452 47.215 21.216 47.215 21.216"/>
 <path stroke-width="0.131" stroke-linejoin="round" d="M46.862 23.657C46.655 25.303 46.567 27.213 46.715 27.184"/>
 <path stroke-width="0.131" stroke-linejoin="round" d="M52.887 20.275C52.564 21.452 51.771 25.538 51.801 27.536"/>
 <path stroke-width="0.25" stroke-linejoin="round" d="M52.622 38.414L50.271 55.994"/>
 <path stroke-width="0.25" stroke-linejoin="round" d="M68.822 40.472L66.587 55.936"/>
 <path stroke-width="0.25" stroke-linejoin="round" d="M71.644 32.417C70.79 32.417 69.262 32.27 67.793 32.122C66.322 31.975 64.706 31.623 64.471 31.829"/>
 <path stroke-width="0.25" stroke-linejoin="round" d="M51.682 29.8C53.006 30.094 56.74 30.652 57.679 30.8C58.621 30.946 59.209 31.271 59.179 31.769C59.149 32.27 58.856 34.18 58.768 34.533C58.679 34.887 58.473 35.033 58.473 35.033"/>
 <path stroke-width="0.131" stroke-linejoin="round" d="M52.006 27.771C52.006 27.771 52.271 26.301 52.329 26.038C52.387 25.772 52.682 25.89 52.682 25.89L61.149 26.92L62.002 21.628"/>
 <path stroke-width="0.131" stroke-linejoin="round" d="M64.617 22.274L63.911 27.301L70.703 28.036"/>
 <path stroke-width="0.131" stroke-linejoin="round" d="M52.77 26.155C55.503 26.861 59.884 27.507 62.618 27.801C65.352 28.096 71.349 28.684 71.349 28.684"/>
 <path stroke-width="0.131" stroke-linejoin="round" d="M61.177 27.007C61.149 27.301 61.795 27.625 62.56 27.713C63.323 27.801 63.97 27.536 63.911 27.301"/>
 <path stroke-width="0.131" stroke-linejoin="round" d="M64.265 32.006C64.265 32.006 63.765 34.74 63.765 35.18C63.765 35.621 64.323 35.945 64.765 36.003C65.206 36.063 68.438 36.473 69.557 36.561C70.674 36.651 71.32 36.326 71.32 36.121C71.32 35.915 71.114 35.886 70.909 35.886C70.703 35.886 69.85 35.738 69.85 35.738"/>
 <path stroke-width="0.25" stroke-linejoin="round" d="M53.534 30.329C53.534 30.329 52.975 33.152 52.975 33.505C52.975 33.857 53.27 34.064 53.682 34.18C54.093 34.298 57.561 34.945 58.386 34.975"/>
 <path stroke-width="0.131" stroke-linejoin="round" d="M51.389 33.357C51.389 33.857 51.947 34.121 52.829 34.357C53.71 34.593 57.826 35.298 58.268 35.121"/>
 <path stroke-width="0.25" stroke-linejoin="round" d="M54.417 30.359C53.829 31.388 53.182 32.534 53.034 33.564"/>
 <path stroke-width="0.25" stroke-linejoin="round" d="M69.938 32.417C69.938 32.417 69.733 35.268 69.674 35.651C69.615 36.033 68.733 36.503 64.295 35.71"/>
 <path stroke-width="0.25" stroke-linejoin="round" d="M69.144 32.329C69.498 33.122 69.792 34.328 69.674 35.445"/>
 <path stroke-width="0.131" stroke-linejoin="round" d="M52.564 33.564L51.624 33.387"/>
 <path stroke-width="0.25" stroke-linejoin="round" d="M52.359 38.031C52.359 38.031 52.534 36.533 52.534 36.415"/>
 <path stroke-width="0.131" stroke-linejoin="round" d="M52.712 36.268C52.712 36.268 54.417 36.473 54.387 36.651C54.357 36.826 54.152 38.356 54.152 38.356"/>
 <path stroke-width="0.131" stroke-linejoin="round" d="M69.292 38.414C69.292 38.414 67.763 38.119 67.733 38.296C67.704 38.472 67.411 40.119 67.411 40.119"/>
 <path stroke-width="0.25" stroke-linejoin="round" d="M1.754 8.627C6.564 9.198 10.343 7.767 14.695 5.535"/>
 <path stroke-width="0.25" stroke-linejoin="round" d="M13.606 4.961C15.782 6.222 20.192 8.111 24.829 9.085"/>
 <path stroke-width="0.25" stroke-linejoin="round" d="M23.798 6.163C23.742 7.195 24.486 8.455 25.687 9.771C26.89 11.087 28.608 13.551 29.353 14.467C30.097 15.382 33.1 16.968 34.819 16.51C36.536 16.051 36.795 16.184 37.941 16.126C39.085 16.07 39.543 16.184 40.058 15.382C40.575 14.58 40.002 13.779 40.002 13.779C40.002 13.779 38.972 11.259 36.451 8.568C36.451 8.568 35.88 4.389 33.531 0.725"/>
 <path stroke-width="0.25" stroke-linejoin="round" d="M13.378 6.737C13.378 8.054 14.294 8.798 14.294 8.798C14.294 8.798 11.832 11.202 11.144 14.81"/>
 <path stroke-width="0.25" stroke-linejoin="round" d="M26.432 11.089C24.714 13.207 21.623 15.268 21.623 15.268"/>
 <path stroke-width="0.25" stroke-linejoin="round" d="M28.207 13.55C27.519 15.554 26.89 16.242 26.89 16.242"/>
 <path stroke-width="0.25" stroke-linejoin="round" d="M10.801 24.542C12.577 25.574 13.951 27.176 14.81 28.321C15.669 29.466 16.527 29.925 17.271 29.295C18.015 28.666 18.931 28.951 18.931 28.951C18.931 28.951 19.504 28.265 20.535 28.265C21.565 28.265 21.393 28.321 22.309 27.692C23.225 27.062 26.146 26.088 30.268 26.088"/>
 <path stroke-width="0.25" stroke-linejoin="round" d="M39.773 28.092C41.49 29.524 41.719 32.043 41.375 33.819C41.033 35.594 39.371 36.795 38.112 37.597C36.853 38.399 30.611 41.319 28.838 42.75C27.062 44.182 24.199 46.07 21.452 46.014C18.702 45.957 17.844 45.384 16.184 46.014"/>
 <path stroke-width="0.25" stroke-linejoin="round" d="M18.359 46.014C16.814 48.648 11.202 53.686 5.019 56.091"/>
 <path stroke-width="0.131" stroke-linejoin="round" d="M36.316 8.496C35.658 7.706 34.738 7.006 34.695 8.013C34.652 9.021 35.308 10.423 36.185 11.868C37.06 13.314 39.164 13.928 39.953 13.971"/>
 <path stroke-width="0.131" stroke-linejoin="round" d="M34.125 28.121C33.073 28.472 30.928 29.435 30.446 30.574C29.963 31.713 31.454 34.298 31.76 35.875C32.067 37.453 32.023 39.468 33.337 39.073C34.652 38.679 37.936 37.146 39.076 36.621C40.215 36.094 41.046 34.036 40.39 31.626C39.732 29.216 38.77 28.208 38.77 28.208"/>
 <path stroke="#FFFFFF" stroke-width="0.353" stroke-linejoin="round" fill="#000000" d="M40.625 12.396L42.625 8.649 39.979 7.237 37.981 10.984 35.893 9.869 37.482 15.102 42.715 13.51 40.625 12.396z"/>
 <path stroke="#FFFFFF" stroke-width="0.353" stroke-linejoin="round" fill="#000000" d="M38.975 32.362L40.393 36.366 37.567 37.368 36.149 33.365 33.917 34.155 36.271 29.219 41.207 31.573 38.975 32.362z"/>
 <text transform="matrix(0 -1 1 0 73.814 55.31)" stroke="none" fill="#000000" font-family="'Helvetica'" font-size="2.117">314 226</text>
</svg>
