<?xml version="1.0" encoding="utf-8"?>
<!DOCTYPE svg PUBLIC "-//W3C//DTD SVG 1.1//EN" "http://www.w3.org/Graphics/SVG/1.1/DTD/svg11.dtd">
<!-- Generator: PTC Arbortext IsoDraw 7.3 -->
<svg id="Standard_x0020_layer" width="100%" height="100%" viewBox="0 0 69.944 58.774"
 xmlns="http://www.w3.org/2000/svg" xmlns:xlink="http://www.w3.org/1999/xlink"
 fill-rule="evenodd" clip-rule="evenodd" stroke="#000000" stroke-linecap="round" fill="none" xml:space="preserve">
 <g>
  <path stroke-width="0.13" d="M22.134 33.325C21.864 32.46 20.984 31.928 19.986 31.957"/>
  <path stroke-width="0.13" d="M18.161 32.765C17.612 33.341 17.442 34.076 17.638 34.722C17.972 35.798 19.25 36.356 20.492 35.97C21.733 35.585 22.469 34.401 22.134 33.325"/>
 </g>
 <g>
  <path stroke-width="0.13" d="M22.908 32.164C22.245 30.635 20.277 30.018 18.513 30.785C16.748 31.55 15.856 33.411 16.519 34.938C16.771 35.518 17.211 35.966 17.745 36.252"/>
  <path stroke-width="0.13" d="M23.117 33C23.091 32.694 23.018 32.406 22.908 32.164"/>
 </g>
 <polyline stroke-width="0.13" points="21.381 37.197 23.617 39.863 27.318 37.54"/>
 <polyline stroke-width="0.13" points="12.82 26.657 15.057 29.324 18.757 27.001"/>
 <path stroke-width="0.3" d="M20.047 43.046C18.24 44.079 14.196 47.134 13.724 49.5C13.25 51.865 13.81 52.21 13.81 52.295"/>
 <path stroke-width="0.13" d="M20.693 43.972C18.885 45.005 14.843 48.058 14.368 50.424C13.896 52.79 14.455 53.134 14.455 53.22"/>
 <path stroke-width="0.3" d="M23.94 48.155C22.134 49.188 18.091 52.243 17.617 54.609C17.143 56.975 17.702 57.319 17.702 57.405"/>
 <path stroke-width="0.13" d="M24.585 49.081C22.78 50.112 18.736 53.167 18.263 55.533C17.789 57.899 18.349 58.243 18.349 58.329"/>
 <polyline stroke-width="0.13" points="14.67 52.813 18.713 50.145 19.809 51.328"/>
 <polyline stroke-width="0.13" points="18.713 50.145 18.413 48.037 20.864 46.618 20.778 44.295"/>
 <line stroke-width="0.13" x1="20.864" y1="46.618" x2="22.856" y2="48.843"/>
 <g>
  <polyline stroke-width="0.13" points="24.585 49.081 24.951 51.521 23.144 52.683"/>
  <polyline stroke-width="0.3" points="23.144 52.683 23.446 55.35 18.37 58.619"/>
 </g>
 <path stroke-width="0.3" d="M18.37 58.619C17.853 58.619 17.036 58.749 16.219 57.673C15.401 56.597 13.294 54.017 13.294 54.017C13.294 54.017 12.993 52.856 13.81 52.295"/>
 <g>
  <path stroke-width="0.13" d="M18.443 52.896C18.152 52.773 17.817 52.786 17.522 52.908C17.237 53.027 17.021 53.237 16.902 53.475"/>
  <path stroke-width="0.3" d="M16.902 53.475C16.644 53.993 16.882 54.56 17.431 54.74"/>
  <path stroke-width="0.13" d="M17.431 54.74C17.483 54.758 17.536 54.771 17.583 54.779"/>
 </g>
 <path stroke="none" fill="#000000" d="M17.545 52.96C17.275 53.073 17.147 53.293 17.036 53.52L16.768 53.432C16.894 53.179 17.199 52.982 17.501 52.856L17.545 52.96z"/>
 <path stroke="none" fill="#000000" d="M17.492 54.615L17.368 54.866C17.428 54.886 17.512 54.826 17.565 54.835L17.602 54.722C17.561 54.716 17.539 54.63 17.492 54.615z"/>
 <line stroke-width="0.13" x1="18.67" y1="48.21" x2="20.698" y2="50.509"/>
 <polyline stroke-width="0.13" points="21.198 50.087 19.961 48.725 20.564 48.424 21.725 49.667"/>
 <path stroke-width="0.3" d="M6.958 27.067C5.15 28.1 1.106 31.153 0.634 33.52C0.161 35.886 0.72 36.229 0.72 36.316"/>
 <path stroke-width="0.13" d="M7.602 27.992C5.796 29.024 1.752 32.079 1.278 34.445C0.806 36.811 1.365 37.155 1.365 37.24"/>
 <path stroke-width="0.3" d="M10.85 32.176C9.044 33.207 5 36.262 4.527 38.628C4.054 40.993 4.612 41.338 4.612 41.423"/>
 <path stroke-width="0.13" d="M11.496 33.1C9.689 34.133 5.645 37.186 5.171 39.552C4.698 41.918 5.258 42.262 5.258 42.348"/>
 <polyline stroke-width="0.13" points="1.58 36.832 5.623 34.164 6.719 35.347"/>
 <polyline stroke-width="0.13" points="5.623 34.164 5.323 32.057 7.775 30.638 7.689 28.315"/>
 <line stroke-width="0.13" x1="7.775" y1="30.638" x2="9.766" y2="32.862"/>
 <g>
  <polyline stroke-width="0.13" points="11.496 33.1 11.862 35.542 10.054 36.703 10.355 39.369"/>
  <polyline stroke-width="0.3" points="10.355 39.369 5.28 42.64"/>
 </g>
 <path stroke-width="0.3" d="M5.28 42.64C4.764 42.64 3.945 42.768 3.129 41.692C2.311 40.618 0.204 38.036 0.204 38.036C0.204 38.036 -0.097 36.875 0.72 36.316"/>
 <g>
  <path stroke-width="0.13" d="M5.352 36.915C5.062 36.792 4.727 36.807 4.432 36.929C4.147 37.048 3.931 37.256 3.812 37.496"/>
  <path stroke-width="0.3" d="M3.812 37.496C3.555 38.014 3.79 38.579 4.341 38.761"/>
  <path stroke-width="0.13" d="M4.341 38.761C4.392 38.777 4.445 38.79 4.493 38.798"/>
 </g>
 <path stroke="none" fill="#000000" d="M4.453 36.981C4.185 37.093 4.057 37.314 3.944 37.539L3.679 37.451C3.805 37.198 4.108 37.003 4.41 36.877L4.453 36.981z"/>
 <path stroke="none" fill="#000000" d="M4.403 38.634L4.278 38.886C4.338 38.905 4.421 38.847 4.476 38.856L4.512 38.741C4.471 38.734 4.448 38.649 4.403 38.634z"/>
 <line stroke-width="0.13" x1="5.58" y1="32.228" x2="7.607" y2="34.529"/>
 <polyline stroke-width="0.13" points="8.108 34.106 6.871 32.746 7.474 32.444 8.634 33.686"/>
 <line stroke-width="0.3" x1="10.355" y1="39.369" x2="16.121" y2="46.021"/>
 <polyline stroke-width="0.13" points="13.97 40.423 13.41 40.811 15.259 43.134 15.862 42.746"/>
 <line stroke-width="0.13" x1="11.862" y1="35.542" x2="18.53" y2="43.78"/>
 <path stroke-width="0.3" d="M6.346 27.44C6.346 27.44 6.182 27.045 6.139 25.626C6.097 24.205 6.011 24.378 7.129 23.603C8.247 22.829 14.185 18.742 14.185 18.742C14.185 18.742 15.561 17.969 16.894 19.388C18.228 20.807 34.661 41.112 34.661 41.112C34.661 41.112 35.478 42.231 35.478 43.307"/>
 <line stroke-width="0.13" x1="6.958" y1="25.239" x2="25.542" y2="47.264"/>
 <line stroke-width="0.13" x1="27.175" y1="47.564" x2="34.402" y2="42.661"/>
 <path stroke-width="0.13" d="M35.478 43.307C35.994 44.597 35.264 45.543 35.264 45.543"/>
 <path stroke-width="0.13" d="M24.951 51.521C25.972 52.469 26.359 52.814 28.553 51.479"/>
 <path stroke-width="0.3" d="M23.182 53.018C24.981 54.576 27.262 55.179 28.983 53.759"/>
 <line stroke-width="0.3" x1="28.983" y1="53.759" x2="66.882" y2="28.637"/>
 <path stroke-width="0.3" d="M66.882 28.637C69.248 27.217 68.56 25.324 67.614 23.733C66.667 22.14 65.549 21.152 65.549 21.152L64.903 21.452L63.225 19.301"/>
 <line stroke-width="0.13" x1="28.553" y1="51.479" x2="65.274" y2="27.224"/>
 <g>
  <path stroke-width="0.13" d="M65.274 27.224C66.316 26.147 66.719 25.475 66.114 24.533"/>
  <path stroke-width="0.3" d="M66.114 24.533C65.543 23.725 65.543 23.725 65.543 23.725L47.109 1.322C47.109 1.322 46.368 0.313 44.551 1.423"/>
 </g>
 <path stroke-width="0.3" d="M61.642 22.408C61.978 23.08 61.811 23.518 60.801 24.089"/>
 <path stroke-width="0.13" d="M55.317 14.743C54.509 13.801 53.869 13.667 53.095 14.138"/>
 <path stroke-width="0.13" d="M55.737 17.065C54.929 16.123 54.29 15.989 53.517 16.46"/>
 <line stroke-width="0.13" x1="55.737" y1="17.065" x2="61.284" y2="23.742"/>
 <line stroke-width="0.13" x1="55.317" y1="14.743" x2="61.642" y2="22.408"/>
 <line stroke-width="0.13" x1="63.171" y1="19.248" x2="62.343" y2="19.757"/>
 <line stroke-width="0.3" x1="64.531" y1="20.884" x2="69.248" y2="17.76"/>
 <path stroke-width="0.13" d="M61.451 18.452C61.6 18.324 65.019 16.475 66.082 16.03C67.144 15.583 68.567 15.541 68.992 16.963"/>
 <path stroke-width="0.3" d="M60.856 17.835C60.856 17.835 65.87 15.137 66.591 15.157C67.314 15.179 68.043 15.464 68.495 16.143"/>
 <path stroke-width="0.3" d="M69.248 17.76C69.885 17.24 70.013 16.221 69.376 15.561"/>
 <path stroke-width="0.13" d="M69.206 17.112C69.777 16.823 69.757 16.007 69.376 15.561"/>
 <line stroke-width="0.3" x1="69.376" y1="15.561" x2="60.728" y2="5.067"/>
 <path stroke-width="0.3" d="M60.728 5.067C60.368 4.578 59.496 4.854 59.368 4.876"/>
 <path stroke-width="0.13" d="M52.093 6.958C52.24 6.83 55.661 4.982 56.723 4.535C57.786 4.089 59.21 4.046 59.634 5.471"/>
 <path stroke-width="0.3" d="M51.381 6.405C51.381 6.405 56.512 3.644 57.234 3.665C57.956 3.686 58.685 3.969 59.136 4.649"/>
 <g>
  <polyline stroke-width="0.13" points="52.847 8.083 54.929 6.915"/>
  <polyline stroke-width="0.3" points="54.929 6.915 63.148 16.641"/>
 </g>
 <line stroke-width="0.13" x1="59.539" y1="5.703" x2="56.097" y2="8.019"/>
 <polyline stroke-width="0.13" points="57.796 11.483 57.222 11.949 58.944 14.032 59.539 13.692"/>
 <path stroke-width="0.3" d="M52.188 11.079C52.548 11.717 51.72 12.417 51.381 12.524"/>
 <line stroke-width="0.13" x1="52.188" y1="11.079" x2="47.088" y2="4.833"/>
 <path stroke-width="0.13" d="M47.088 4.833C46.536 4.025 45.537 4.067 44.71 4.514"/>
 <path stroke-width="0.13" d="M45.622 6.299C46.261 5.788 46.707 6.278 47.003 6.575"/>
 <line stroke-width="0.13" x1="46.929" y1="6.501" x2="51.636" y2="12.141"/>
 <line stroke-width="0.3" x1="51.381" y1="12.524" x2="33.113" y2="24.684"/>
 <line stroke-width="0.13" x1="53.095" y1="14.138" x2="29.882" y2="29.544"/>
 <line stroke-width="0.13" x1="53.517" y1="16.46" x2="50.956" y2="18.217"/>
 <g>
  <path stroke-width="0.13" d="M61.945 10.99C61.979 10.414 61.47 9.916 60.807 9.875C60.143 9.835 59.576 10.268 59.542 10.842"/>
  <path stroke-width="0.3" d="M59.542 10.842C59.506 11.416 60.015 11.916 60.679 11.957C61.343 11.996 61.909 11.564 61.945 10.99"/>
 </g>
 <path stroke="none" fill="#000000" d="M59.981 10.17C59.747 10.349 59.707 10.599 59.692 10.852L59.392 10.833C59.408 10.553 59.634 10.285 59.895 10.086L59.981 10.17z"/>
 <path stroke="none" fill="#000000" d="M61.795 10.98L62.094 10.999C62.113 10.676 61.917 10.422 61.686 10.195L61.59 10.269C61.77 10.445 61.81 10.728 61.795 10.98z"/>
 <g>
  <path stroke-width="0.3" d="M61.941 11.038C61.786 10.611 61.348 10.324 60.856 10.291C60.213 10.253 59.659 10.659 59.594 11.21"/>
 </g>
 <line stroke-width="0.3" x1="60.801" y1="24.089" x2="38.847" y2="38.549"/>
 <line stroke-width="0.3" x1="31.143" y1="24.553" x2="26.152" y2="18.431"/>
 <line stroke-width="0.3" x1="36.398" y1="39.106" x2="29.673" y2="30.884"/>
 <line stroke-width="0.13" x1="36.109" y1="28.073" x2="30.591" y2="31.777"/>
 <path stroke-width="0.3" d="M38.847 38.549C38.847 38.549 38.604 38.923 37.975 39.265C37.344 39.606 36.792 39.344 36.398 39.106"/>
 <path stroke-width="0.13" d="M29.673 30.884C29.225 30.201 29.713 29.657 29.974 29.484"/>
 <path stroke-width="0.3" d="M31.143 24.553C31.8 25.367 32.945 24.797 33.113 24.684"/>
 <line stroke-width="0.13" x1="44.71" y1="4.514" x2="25.942" y2="16.881"/>
 <line stroke-width="0.13" x1="26.914" y1="19.14" x2="28.596" y2="18.089"/>
 <path stroke-width="0.13" d="M26.152 18.431C25.6 17.617 25.521 17.301 25.942 16.881"/>
 <line stroke-width="0.3" x1="44.551" y1="1.423" x2="17.182" y2="19.507"/>
 <polyline stroke-width="0.3" points="52.308 5.913 51.057 4.508 51.503 4.113 49.271 1.355"/>
 <path stroke-width="0.3" d="M49.271 1.355C48.115 0.041 45.96 -0.51 43.281 1.328"/>
 <line stroke-width="0.3" x1="43.281" y1="1.328" x2="16.571" y2="18.894"/>
 <path stroke-width="0.3" d="M6.152 25.949C4.596 26.737 4.367 28.428 4.418 28.832"/>
 <line stroke-width="0.3" x1="37.127" y1="26.652" x2="49.082" y2="18.8"/>
 <line stroke-width="0.13" x1="38.018" y1="27.466" x2="49.201" y2="20.109"/>
 <line stroke-width="0.13" x1="38.792" y1="29.15" x2="39.353" y2="28.786"/>
 <line stroke-width="0.13" x1="39.969" y1="28.388" x2="43.862" y2="25.864"/>
 <line stroke-width="0.13" x1="44.487" y1="25.458" x2="48.39" y2="22.928"/>
 <line stroke-width="0.13" x1="49.017" y1="22.522" x2="49.895" y2="21.954"/>
 <line stroke-width="0.3" x1="41.527" y1="31.966" x2="53.365" y2="24.155"/>
 <line stroke-width="0.13" x1="42.777" y1="34.92" x2="54.137" y2="27.385"/>
 <polyline stroke-width="0.13" points="39.406 30.48 39.683 30.876 40.469 30.37"/>
 <line stroke-width="0.13" x1="40.774" y1="30.175" x2="41.524" y2="29.693"/>
 <line stroke-width="0.13" x1="41.848" y1="29.486" x2="42.598" y2="29.003"/>
 <line stroke-width="0.13" x1="42.939" y1="28.785" x2="43.688" y2="28.303"/>
 <line stroke-width="0.13" x1="44.06" y1="28.065" x2="44.841" y2="27.562"/>
 <line stroke-width="0.13" x1="45.18" y1="27.344" x2="45.932" y2="26.861"/>
 <line stroke-width="0.13" x1="46.246" y1="26.661" x2="46.99" y2="26.182"/>
 <line stroke-width="0.13" x1="47.345" y1="25.954" x2="48.095" y2="25.472"/>
 <line stroke-width="0.13" x1="48.487" y1="25.219" x2="49.22" y2="24.748"/>
 <polyline stroke-width="0.13" points="40.435 30.393 40.176 30.065 39.475 30.496"/>
 <line stroke-width="0.13" x1="40.515" y1="29.806" x2="40.792" y2="30.202"/>
 <polyline stroke-width="0.13" points="41.545 29.719 41.284 29.391 40.584 29.823"/>
 <line stroke-width="0.13" x1="41.582" y1="29.106" x2="41.86" y2="29.503"/>
 <polyline stroke-width="0.13" points="42.612 29.019 42.351 28.692 41.652 29.123"/>
 <line stroke-width="0.13" x1="42.692" y1="28.431" x2="42.969" y2="28.829"/>
 <polyline stroke-width="0.13" points="43.72 28.346 43.46 28.018 42.761 28.449"/>
 <line stroke-width="0.13" x1="43.805" y1="27.701" x2="44.082" y2="28.097"/>
 <polyline stroke-width="0.13" points="44.826 27.538 44.566 27.21 43.865 27.641"/>
 <line stroke-width="0.13" x1="44.905" y1="26.949" x2="45.182" y2="27.347"/>
 <polyline stroke-width="0.13" points="45.933 26.864 45.673 26.536 44.973 26.968"/>
 <line stroke-width="0.13" x1="45.972" y1="26.25" x2="46.25" y2="26.646"/>
 <polyline stroke-width="0.13" points="47.002 26.164 46.741 25.836 46.04 26.268"/>
 <line stroke-width="0.13" x1="47.081" y1="25.576" x2="47.359" y2="25.972"/>
 <polyline stroke-width="0.13" points="48.11 25.489 47.85 25.163 47.149 25.594"/>
 <line stroke-width="0.13" x1="48.231" y1="24.853" x2="48.509" y2="25.25"/>
 <polyline stroke-width="0.13" points="49.261 24.766 49 24.44 48.299 24.871"/>
 <polyline stroke-width="0.13" points="40.301 31.649 40.579 32.046 41.365 31.542"/>
 <line stroke-width="0.13" x1="41.67" y1="31.346" x2="42.42" y2="30.864"/>
 <line stroke-width="0.13" x1="42.743" y1="30.655" x2="43.493" y2="30.173"/>
 <line stroke-width="0.13" x1="43.834" y1="29.955" x2="44.582" y2="29.475"/>
 <line stroke-width="0.13" x1="44.954" y1="29.234" x2="45.737" y2="28.733"/>
 <line stroke-width="0.13" x1="46.076" y1="28.515" x2="46.828" y2="28.033"/>
 <line stroke-width="0.13" x1="47.14" y1="27.83" x2="47.884" y2="27.353"/>
 <line stroke-width="0.13" x1="48.24" y1="27.125" x2="48.99" y2="26.643"/>
 <line stroke-width="0.13" x1="49.383" y1="26.39" x2="50.115" y2="25.92"/>
 <polyline stroke-width="0.13" points="41.331 31.564 41.07 31.236 40.369 31.667"/>
 <line stroke-width="0.13" x1="41.409" y1="30.975" x2="41.688" y2="31.373"/>
 <polyline stroke-width="0.13" points="42.439 30.89 42.179 30.562 41.478 30.993"/>
 <line stroke-width="0.13" x1="42.478" y1="30.277" x2="42.755" y2="30.673"/>
 <polyline stroke-width="0.13" points="43.506 30.19 43.246 29.862 42.546 30.295"/>
 <line stroke-width="0.13" x1="43.587" y1="29.603" x2="43.863" y2="29.998"/>
 <polyline stroke-width="0.13" points="44.615 29.516 44.356 29.189 43.655 29.62"/>
 <line stroke-width="0.13" x1="44.701" y1="28.87" x2="44.978" y2="29.268"/>
 <polyline stroke-width="0.13" points="45.719 28.707 45.46 28.381 44.759 28.812"/>
 <line stroke-width="0.13" x1="45.799" y1="28.12" x2="46.076" y2="28.516"/>
 <polyline stroke-width="0.13" points="46.829 28.033 46.569 27.707 45.868 28.138"/>
 <line stroke-width="0.13" x1="46.866" y1="27.42" x2="47.145" y2="27.818"/>
 <polyline stroke-width="0.13" points="47.896 27.335 47.637 27.007 46.936 27.439"/>
 <line stroke-width="0.13" x1="47.975" y1="26.746" x2="48.253" y2="27.143"/>
 <polyline stroke-width="0.13" points="49.005 26.661 48.744 26.332 48.045 26.765"/>
 <line stroke-width="0.13" x1="49.125" y1="26.024" x2="49.404" y2="26.42"/>
 <polyline stroke-width="0.13" points="50.155 25.937 49.896 25.609 49.195 26.042"/>
 <polygon stroke-width="0.13" points="49.514 24.118 49.753 24.472 51.14 23.623 50.886 23.285 49.514 24.118"/>
 <path stroke-width="0.13" d="M49.822 22.001C50.49 21.503 51.706 21.757 52.371 22.152"/>
 <path stroke-width="0.13" d="M48.424 21.998C48.848 22.265 49.203 22.62 49.203 23.057C49.203 23.496 49.203 23.483 49.203 23.483C49.203 23.483 48.877 23.553 48.877 23.568C48.877 23.582 48.393 22.926 48.39 22.928L48.155 22.28"/>
 <path stroke-width="0.13" d="M43.899 24.939C44.323 25.207 44.676 25.562 44.676 26C44.676 26.437 44.676 26.423 44.676 26.423C44.676 26.423 44.351 26.495 44.351 26.509C44.351 26.522 43.868 25.868 43.865 25.87L43.63 25.222"/>
 <path stroke-width="0.13" d="M39.402 27.894C39.826 28.164 40.179 28.516 40.179 28.955C40.179 29.393 40.179 29.379 40.179 29.379C40.179 29.379 39.853 29.451 39.853 29.464C39.853 29.478 39.371 28.824 39.366 28.826L39.133 28.178"/>
 <path stroke-width="0.3" d="M37.127 26.652C36.36 27.3 36.176 28.347 36.715 29.126"/>
 <line stroke-width="0.3" x1="36.715" y1="29.126" x2="39.048" y2="31.897"/>
 <path stroke-width="0.3" d="M39.048 31.897C39.585 32.435 40.667 32.533 41.527 31.966"/>
 <path stroke-width="0.13" d="M38.792 29.15C38.17 29.564 37.828 29.987 37.789 30.172"/>
 <path stroke-width="0.13" d="M38.018 27.466C37.28 28.065 36.982 28.446 37.054 28.955"/>
 <path stroke-width="0.13" d="M43.134 33.042C43.134 33.029 43.46 33.326 43.46 33.326C43.46 33.326 43.63 33.368 43.871 33.198C44.11 33.029 44.308 32.957 44.323 32.929C44.338 32.902 44.465 32.646 44.295 32.476C44.125 32.307 43.997 32.152 43.997 32.152"/>
 <path stroke-width="0.13" d="M51.89 27.216C51.89 27.202 52.215 27.498 52.215 27.498C52.215 27.498 52.384 27.542 52.625 27.371C52.865 27.202 53.064 27.131 53.078 27.103C53.091 27.074 53.219 26.82 53.048 26.65C52.88 26.481 52.752 26.324 52.752 26.324"/>
 <g>
  <polyline stroke-width="0.3" points="38.582 32.165 38.1 32.576 38.552 34.909"/>
  <polyline stroke-width="0.13" points="38.552 34.909 38.807 35.179 39.344 34.825 38.906 32.548"/>
 </g>
 <g>
  <polyline stroke-width="0.3" points="36.615 29.713 36.134 30.123 36.587 32.456"/>
  <polyline stroke-width="0.13" points="36.587 32.456 36.841 32.725 37.378 32.371 36.941 30.094"/>
 </g>
 <line stroke-width="0.3" x1="36.615" y1="29.713" x2="36.453" y2="28.539"/>
 <line stroke-width="0.13" x1="37.378" y1="32.371" x2="38.253" y2="33.362"/>
 <path stroke-width="0.13" d="M39.344 34.825C40.292 35.814 41.856 35.53 42.777 34.92"/>
 <path stroke-width="0.13" d="M54.137 27.385C54.881 26.794 55.226 25.946 55 24.978"/>
 <line stroke-width="0.13" x1="55" y1="24.978" x2="54.344" y2="22.007"/>
 <path stroke-width="0.3" d="M53.365 24.155C53.89 23.798 54.511 22.699 54.271 22.067"/>
 <line stroke-width="0.3" x1="54.271" y1="21.995" x2="51.837" y2="18.998"/>
 <path stroke-width="0.3" d="M51.837 18.998C51.287 18.318 49.904 18.262 49.082 18.8"/>
 <path stroke-width="0.13" d="M49.201 20.109C50.082 19.608 51.204 19.464 51.789 20.097"/>
 <line stroke-width="0.13" x1="51.789" y1="20.097" x2="54.033" y2="22.818"/>
 <polyline stroke-width="0.13" points="52.588 21.958 52.005 22.318 51.884 22.64 51.932 23.201 52.183 23.498"/>
 <polyline stroke-width="0.13" points="52.154 23.463 52.923 22.998 52.875 22.318"/>
 <polyline stroke-width="0.13" points="53.496 23.033 52.982 23.332 52.768 23.725 52.792 24.155 52.994 24.335"/>
 <line stroke-width="0.13" x1="52.923" y1="22.998" x2="53.125" y2="23.25"/>
 <polyline stroke-width="0.3" points="52.433 19.655 53.127 19.213 53.341 19.452 53.531 20.599"/>
 <g>
  <polyline stroke-width="0.13" points="53.149 19.559 52.768 19.835 53.472 20.705"/>
  <polyline stroke-width="0.3" points="53.472 20.705 53.902 20.359 54.164 20.586 54.5 22.719"/>
 </g>
 <polyline stroke-width="0.13" points="32.094 19.147 32.371 19.545 33.156 19.039"/>
 <line stroke-width="0.13" x1="33.462" y1="18.844" x2="34.212" y2="18.362"/>
 <line stroke-width="0.13" x1="34.536" y1="18.155" x2="35.286" y2="17.672"/>
 <line stroke-width="0.13" x1="35.625" y1="17.454" x2="36.375" y2="16.972"/>
 <line stroke-width="0.13" x1="36.747" y1="16.734" x2="37.529" y2="16.231"/>
 <line stroke-width="0.13" x1="37.868" y1="16.013" x2="38.619" y2="15.531"/>
 <line stroke-width="0.13" x1="38.932" y1="15.33" x2="39.676" y2="14.852"/>
 <polyline stroke-width="0.13" points="33.122 19.062 32.862 18.734 32.162 19.166"/>
 <line stroke-width="0.13" x1="33.203" y1="18.474" x2="33.481" y2="18.87"/>
 <polyline stroke-width="0.13" points="34.231 18.388 33.972 18.06 33.271 18.492"/>
 <line stroke-width="0.13" x1="34.27" y1="17.774" x2="34.548" y2="18.172"/>
 <polyline stroke-width="0.13" points="35.299 17.689 35.039 17.361 34.338 17.792"/>
 <line stroke-width="0.13" x1="35.378" y1="17.1" x2="35.656" y2="17.498"/>
 <polyline stroke-width="0.13" points="36.408 17.015 36.149 16.687 35.448 17.118"/>
 <line stroke-width="0.13" x1="36.493" y1="16.37" x2="36.771" y2="16.765"/>
 <polyline stroke-width="0.13" points="37.512 16.205 37.253 15.878 36.551 16.31"/>
 <line stroke-width="0.13" x1="37.591" y1="15.618" x2="37.869" y2="16.015"/>
 <polyline stroke-width="0.13" points="38.621 15.532 38.362 15.205 37.661 15.637"/>
 <line stroke-width="0.13" x1="38.659" y1="14.919" x2="38.936" y2="15.316"/>
 <polyline stroke-width="0.13" points="39.689 14.833 39.429 14.505 38.728 14.936"/>
 <polyline stroke-width="0.13" points="39.85 14.212 40.128 14.609 40.914 14.103"/>
 <line stroke-width="0.13" x1="41.131" y1="13.909" x2="41.881" y2="13.426"/>
 <line stroke-width="0.13" x1="42.185" y1="13.218" x2="42.936" y2="12.736"/>
 <line stroke-width="0.13" x1="43.296" y1="12.539" x2="44.045" y2="12.058"/>
 <line stroke-width="0.13" x1="44.375" y1="11.84" x2="45.156" y2="11.339"/>
 <polyline stroke-width="0.13" points="40.88 14.125 40.619 13.798 39.92 14.23"/>
 <line stroke-width="0.13" x1="40.872" y1="13.538" x2="41.151" y2="13.935"/>
 <polyline stroke-width="0.13" points="41.902 13.451 41.643 13.125 40.942 13.557"/>
 <line stroke-width="0.13" x1="41.918" y1="12.839" x2="42.197" y2="13.236"/>
 <polyline stroke-width="0.13" points="42.948 12.753 42.688 12.425 41.987 12.856"/>
 <line stroke-width="0.13" x1="43.049" y1="12.186" x2="43.326" y2="12.583"/>
 <polyline stroke-width="0.13" points="44.079 12.099 43.819 11.772 43.118 12.205"/>
 <line stroke-width="0.13" x1="44.119" y1="11.477" x2="44.398" y2="11.872"/>
 <polyline stroke-width="0.13" points="45.14 11.314 44.88 10.986 44.179 11.417"/>
 <line stroke-width="0.3" x1="29.852" y1="17.748" x2="31.62" y2="19.821"/>
 <path stroke-width="0.3" d="M31.62 19.821C32.311 20.295 33.326 20.253 34.037 19.67"/>
 <line stroke-width="0.3" x1="34.037" y1="19.67" x2="47.481" y2="10.823"/>
 <line stroke-width="0.3" x1="30.153" y1="15.829" x2="44.265" y2="6.549"/>
 <path stroke-width="0.3" d="M30.153 15.829C29.705 16.314 29.333 17.024 29.852 17.748"/>
 <line stroke-width="0.13" x1="44.654" y1="9.534" x2="43.753" y2="10.131"/>
 <line stroke-width="0.13" x1="43.045" y1="10.6" x2="41.052" y2="11.923"/>
 <line stroke-width="0.13" x1="40.353" y1="12.387" x2="38.262" y2="13.775"/>
 <line stroke-width="0.13" x1="37.576" y1="14.23" x2="35.576" y2="15.557"/>
 <line stroke-width="0.13" x1="34.875" y1="16.022" x2="32.795" y2="17.403"/>
 <line stroke-width="0.13" x1="32.087" y1="17.873" x2="30.96" y2="18.62"/>
 <polyline stroke-width="0.13" points="31.725 15.842 32.107 15.615 32.505 16.92 32.795 17.403 32.859 18.138 32.633 18.336 32.087 17.873 31.669 15.942"/>
 <polyline stroke-width="0.13" points="34.518 14.013 34.901 13.787 35.298 15.09 35.587 15.574 35.652 16.309 35.426 16.509 34.88 16.044 34.462 14.112"/>
 <polyline stroke-width="0.13" points="37.189 12.178 37.573 11.951 37.969 13.255 38.259 13.739 38.323 14.474 38.097 14.673 37.551 14.208 37.134 12.276"/>
 <polyline stroke-width="0.13" points="39.982 10.349 40.365 10.122 40.762 11.426 41.051 11.91 41.116 12.646 40.89 12.843 40.344 12.38 39.926 10.448"/>
 <polyline stroke-width="0.13" points="42.683 8.57 43.066 8.343 43.463 9.647 43.753 10.131 43.817 10.867 43.591 11.064 43.045 10.6 42.627 8.669"/>
 <polyline stroke-width="0.13" points="46.003 7.674 45.677 7.841 45.731 8.945 45.374 9.364 45.488 10.151 45.731 10.371 46.56 9.858 46.298 7.841"/>
 <polyline stroke-width="0.13" points="45.636 9.468 46.076 8.945 45.982 8.041"/>
 <path stroke-width="0.13" d="M44.654 9.534C45.206 9.112 45.45 9.275 45.45 9.275"/>
 <line stroke-width="0.13" x1="46.56" y1="9.858" x2="47.39" y2="10.728"/>
 <path stroke-width="0.3" d="M47.481 10.823C47.841 10.403 48.176 9.846 48.04 9.48C47.904 9.112 47.914 9.175 47.914 9.175"/>
 <path stroke-width="0.3" d="M44.265 6.549C44.734 6.309 45.415 6.392 45.677 6.623"/>
 <line stroke-width="0.3" x1="45.677" y1="6.623" x2="47.914" y2="9.175"/>
 <polyline stroke-width="0.3" points="46.148 7.16 46.676 6.791 47.106 7.19 47.243 8.282"/>
 <line stroke-width="0.13" x1="47.106" y1="7.19" x2="46.676" y2="7.569"/>
 <polyline stroke-width="0.3" points="47.472 8.609 48 8.24 48.429 8.64 48.911 11.391"/>
 <line stroke-width="0.13" x1="48.429" y1="8.64" x2="47.904" y2="9.092"/>
 <line stroke-width="0.13" x1="48.911" y1="11.391" x2="48.616" y2="11.544"/>
 <line stroke-width="0.13" x1="34.508" y1="23.106" x2="48.344" y2="13.931"/>
 <path stroke-width="0.13" d="M44.615 14.928C44.615 14.913 44.939 15.211 44.939 15.211C44.939 15.211 45.109 15.253 45.35 15.083C45.591 14.913 45.789 14.843 45.802 14.814C45.817 14.787 45.944 14.532 45.774 14.362C45.604 14.192 45.476 14.037 45.476 14.037"/>
 <path stroke-width="0.13" d="M36.74 20.135C36.74 20.12 37.066 20.417 37.066 20.417C37.066 20.417 37.235 20.46 37.475 20.291C37.716 20.12 37.914 20.05 37.929 20.021C37.942 19.993 38.07 19.739 37.899 19.57C37.731 19.399 37.603 19.243 37.603 19.243"/>
 <line stroke-width="0.3" x1="48.201" y1="9.593" x2="48.856" y2="12.669"/>
 <path stroke-width="0.13" d="M48.856 12.669C48.938 13.079 48.814 13.537 48.344 13.931"/>
 <path stroke-width="0.13" d="M34.508 23.106C33.67 23.603 32.732 23.771 31.815 22.823"/>
 <g>
  <polyline stroke-width="0.3" points="29.562 17.324 28.718 17.789 29.405 21.001"/>
  <polyline stroke-width="0.13" points="29.405 21.001 29.792 21.451 30.329 21.125"/>
 </g>
 <polyline stroke-width="0.13" points="29.87 17.914 29.245 18.309 28.78 17.833"/>
 <line stroke-width="0.13" x1="29.245" y1="18.309" x2="29.855" y2="21.413"/>
 <line stroke-width="0.13" x1="29.87" y1="17.914" x2="30.126" y2="19.242"/>
 <g>
  <polyline stroke-width="0.3" points="30.817 18.983 29.972 19.449 30.658 22.661"/>
  <polyline stroke-width="0.13" points="30.658 22.661 31.045 23.109 31.67 22.731"/>
 </g>
 <polyline stroke-width="0.13" points="31.125 19.571 30.5 19.968 30.033 19.492"/>
 <line stroke-width="0.13" x1="30.5" y1="19.968" x2="31.109" y2="23.071"/>
 <line stroke-width="0.13" x1="31.125" y1="19.571" x2="31.64" y2="22.629"/>
 <line stroke-width="0.13" x1="31.815" y1="22.823" x2="31.67" y2="22.731"/>
 <line stroke-width="0.13" x1="30.663" y1="19.498" x2="30.3" y2="19.763"/>
 <line stroke-width="0.13" x1="29.333" y1="17.843" x2="29.013" y2="18.071"/>
 <line stroke-width="0.3" x1="59.136" y1="4.649" x2="59.634" y2="5.471"/>
 <line stroke-width="0.3" x1="68.495" y1="16.143" x2="68.992" y2="16.963"/>
 <text transform="matrix(0 -1 1 0 64.998 57.756)" stroke="none" fill="#000000" font-family="'Arial'" font-size="2.117">316 660</text>
</svg>
