<?xml version="1.0" encoding="utf-8"?>
<!DOCTYPE svg PUBLIC "-//W3C//DTD SVG 1.1//EN" "http://www.w3.org/Graphics/SVG/1.1/DTD/svg11.dtd">
<!-- Generator: PTC Arbortext IsoDraw 7.3 -->
<svg id="Standard_x0020_layer" width="100%" height="100%" viewBox="0 0 67.612 65.277"
 xmlns="http://www.w3.org/2000/svg" xmlns:xlink="http://www.w3.org/1999/xlink"
 fill-rule="evenodd" clip-rule="evenodd" stroke="#000000" stroke-linecap="round" fill="none" xml:space="preserve">
 <g>
  <path stroke="none" fill="#BFBFBF" d="M34.091 10.131L35.234 13.201 42.773 11.234 41.551 8.26 34.091 10.131z"/>
  <g>
   <path stroke-width="0.3" d="M14.01 34.375C13.993 34.378 13.974 34.383 13.961 34.387C13.506 34.536 13.423 35.527 13.775 36.601C14.127 37.676 14.779 38.426 15.234 38.277"/>
  </g>
  <g>
   <path stroke-width="0.13" d="M14.274 35.276C14.266 35.277 14.257 35.28 14.25 35.283C14.006 35.362 13.961 35.899 14.153 36.479C14.345 37.06 14.698 37.465 14.943 37.384"/>
  </g>
  <g>
   <path stroke-width="0.13" d="M33.631 30.164C33.386 30.243 33.343 30.78 33.533 31.361C33.725 31.94 34.079 32.345 34.323 32.265"/>
  </g>
  <line stroke-width="0.13" x1="34.325" y1="32.265" x2="14.943" y2="37.384"/>
  <line stroke-width="0.13" x1="33.631" y1="30.164" x2="14.25" y2="35.283"/>
  <line stroke-width="0.3" x1="15.234" y1="38.277" x2="23.03" y2="36.223"/>
  <line stroke-width="0.3" x1="24.068" y1="35.95" x2="26.858" y2="35.216"/>
  <line stroke-width="0.3" x1="13.96" y1="34.389" x2="21.611" y2="32.468"/>
  <line stroke-width="0.3" x1="22.695" y1="32.197" x2="25.629" y2="31.46"/>
  <line stroke-width="0.13" x1="14.25" y1="35.283" x2="13.861" y2="34.439"/>
  <line stroke-width="0.13" x1="14.943" y1="37.384" x2="15.278" y2="38.143"/>
  <g>
   <path stroke-width="0.13" d="M21.611 32.468L21.538 31.818"/>
   <path stroke-width="0.3" d="M21.538 31.818L22.297 31.638L22.695 32.197"/>
  </g>
  <g>
   <polyline stroke-width="0.13" points="23.03 36.223 23.393 36.691"/>
   <polyline stroke-width="0.3" points="23.393 36.691 24.109 36.49 24.068 35.95"/>
  </g>
  <path stroke-width="0.3" d="M23.393 36.691C22.99 36.825 22.434 36.594 22.332 36.408"/>
  <path stroke-width="0.3" d="M21.538 31.818C21.292 32.131 21.181 32.378 21.26 32.557"/>
  <path stroke-width="0.13" d="M26.858 35.216C27.304 34.991 27.417 35.371 27.484 35.618C27.55 35.863 28.088 36.534 28.266 36.557"/>
  <line stroke-width="0.3" x1="28.266" y1="36.557" x2="30.21" y2="36.064"/>
  <line stroke-width="0.13" x1="29.763" y1="34.634" x2="31.039" y2="38.299"/>
  <polyline stroke-width="0.13" points="29.763 34.634 30.702 34.411 30.971 34.567 33.877 33.784 33.944 33.405 34.615 33.18 34.301 32.271"/>
  <polyline stroke-width="0.13" points="33.631 30.164 33.14 29.179 28.31 30.498"/>
  <line stroke-width="0.13" x1="28.335" y1="30.396" x2="25.535" y2="22.76"/>
  <line stroke-width="0.3" x1="27.841" y1="28.957" x2="25.696" y2="29.448"/>
  <path stroke-width="0.3" d="M25.696 29.448C25.204 29.917 25.472 31.125 25.629 31.46"/>
  <path stroke-width="0.13" d="M25.696 29.448C25.718 29.963 25.807 30.655 25.875 30.9C25.942 31.146 25.807 31.414 25.629 31.46"/>
  <path stroke-width="0.3" d="M26.574 35.289C26.948 36.289 27.35 37.137 28.266 36.557"/>
  <polyline stroke-width="0.13" points="33.14 29.179 33.944 29.024 34.167 29.515 43.354 27.123"/>
  <polyline stroke-width="0.13" points="34.615 33.18 35.353 32.957 35.219 32.555 44.451 30.074"/>
  <line stroke-width="0.13" x1="33.482" y1="29.867" x2="34.426" y2="29.993"/>
  <line stroke-width="0.13" x1="34.457" y1="32.725" x2="35.045" y2="32.008"/>
  <g>
   <path stroke-width="0.13" d="M35.045 32.008C35.28 31.936 35.332 31.426 35.161 30.87C34.99 30.314 34.662 29.922 34.426 29.993"/>
   <path stroke-width="0.2" d="M34.426 29.993C34.192 30.065 34.14 30.574 34.31 31.132C34.481 31.687 34.81 32.081 35.045 32.008"/>
  </g>
  <path stroke="none" fill="#000000" d="M34.814 30.245C34.679 30.085 34.558 30.057 34.457 30.088L34.398 29.897C34.514 29.862 34.671 29.964 34.823 30.146L34.814 30.245z"/>
  <path stroke="none" fill="#000000" d="M35.015 31.913L35.075 32.103C35.203 32.064 35.265 31.885 35.287 31.658L35.223 31.582C35.204 31.768 35.121 31.879 35.015 31.913z"/>
  <g>
   <path stroke-width="0.2" d="M43.688 29.718C43.923 29.646 43.975 29.137 43.804 28.579C43.634 28.024 43.304 27.631 43.07 27.702"/>
   <path stroke-width="0.2" d="M43.673 29.722C43.679 29.721 43.683 29.719 43.688 29.718"/>
  </g>
  <line stroke-width="0.2" x1="43.688" y1="29.718" x2="35.045" y2="32.008"/>
  <line stroke-width="0.2" x1="43.07" y1="27.702" x2="34.426" y2="29.993"/>
  <line stroke-width="0.13" x1="43.07" y1="27.702" x2="42.817" y2="27.263"/>
  <line stroke-width="0.13" x1="43.688" y1="29.718" x2="43.875" y2="30.228"/>
  <g>
   <path stroke-width="0.13" d="M43.354 27.123C43.185 27.185 43.091 27.402 43.076 27.702"/>
   <path stroke-width="0.13" d="M43.747 29.687C43.985 29.986 44.219 30.118 44.399 30.088"/>
  </g>
  <polyline stroke-width="0.13" points="43.429 27.106 44.207 27.876 46.52 27.303"/>
  <polyline stroke-width="0.13" points="44.451 30.074 44.618 29.172 46.941 28.503"/>
  <g>
   <path stroke-width="0.13" d="M44.222 27.873C44.216 27.873 44.212 27.875 44.207 27.876C44.055 27.923 44.026 28.254 44.139 28.611C44.252 28.969 44.466 29.221 44.618 29.172"/>
  </g>
  <line stroke-width="0.13" x1="44.695" y1="22.422" x2="46.487" y2="27.312"/>
  <line stroke-width="0.13" x1="46.926" y1="28.507" x2="48.529" y2="32.88"/>
  <line stroke-width="0.13" x1="48.735" y1="33.444" x2="48.942" y2="34.006"/>
  <line stroke-width="0.13" x1="45.948" y1="21.961" x2="47.777" y2="26.949"/>
  <line stroke-width="0.13" x1="48.246" y1="28.231" x2="49.804" y2="32.481"/>
  <g>
   <path stroke-width="0.13" d="M47.776 26.949C47.771 26.951 47.765 26.951 47.761 26.954C47.609 27.001 47.579 27.33 47.692 27.689C47.804 28.047 48.02 28.297 48.17 28.25"/>
  </g>
  <polyline stroke-width="0.13" points="48.17 28.25 49.755 27.852 51.107 31.468"/>
  <polyline stroke-width="0.13" points="47.776 26.949 49.463 26.585 49.451 25.838 48.694 23.9"/>
  <g>
   <path stroke-width="0.13" d="M44.695 22.422C44.265 21.094 44.2 19.916 44.697 19.158C45.192 18.399 45.548 18.138 46.034 18.324"/>
   <path stroke-width="0.2" d="M46.034 18.324C46.521 18.512 46.615 19.007 46.466 19.233C46.316 19.457 45.838 20.027 45.829 20.364C45.82 20.701 45.738 21.388 45.948 21.961"/>
  </g>
  <g>
   <path stroke-width="0.13" d="M46.106 19.739C45.972 19.643 45.811 19.593 45.652 19.588C45.241 19.576 44.902 19.853 44.89 20.207C44.88 20.562 45.203 20.859 45.612 20.87C45.682 20.873 45.749 20.867 45.807 20.855"/>
  </g>
  <g>
   <path stroke-width="0.13" d="M45.881 20.146C45.823 20.103 45.753 20.079 45.683 20.074C45.488 20.059 45.32 20.184 45.307 20.353C45.292 20.521 45.441 20.672 45.636 20.687C45.7 20.693 45.762 20.682 45.814 20.661"/>
  </g>
  <path stroke-width="0.13" d="M46.195 19.608C45.844 19.388 45.137 19.286 44.779 19.926C44.42 20.567 44.366 20.919 44.366 20.919"/>
  <path stroke-width="0.13" d="M44.972 23.176C45.34 23.304 46.14 23.367 46.28 22.864"/>
  <path stroke-width="0.13" d="M44.366 20.919C44.768 21.431 45.659 21.798 45.85 21.777"/>
  <g>
   <path stroke-width="0.13" d="M49.091 34.417C49.146 34.564 49.469 34.579 49.816 34.453C50.162 34.326 50.399 34.104 50.345 33.957"/>
  </g>
  <g>
   <path stroke-width="0.13" d="M48.984 34.942C49.048 35.158 49.515 35.213 50.027 35.061C50.539 34.911 50.902 34.615 50.838 34.398"/>
  </g>
  <g>
   <path stroke-width="0.13" d="M55.408 34.618C55.405 34.612 55.404 34.607 55.402 34.603"/>
   <path stroke-width="0.13" d="M53.469 35.219C53.47 35.228 53.472 35.235 53.475 35.243C53.548 35.468 54.039 35.512 54.573 35.338C55.106 35.167 55.481 34.844 55.408 34.618"/>
  </g>
  <g>
   <path stroke-width="0.3" d="M51.529 35.753C51.53 35.759 51.531 35.765 51.533 35.771C51.726 36.448 53.183 36.628 54.787 36.17C56.392 35.712 57.534 34.792 57.341 34.113"/>
  </g>
  <g>
   <path stroke-width="0.13" d="M54.665 32.369C54.661 32.356 54.656 32.341 54.651 32.331"/>
   <path stroke-width="0.13" d="M52.448 33C52.523 33.259 53.079 33.329 53.691 33.154C54.302 32.979 54.74 32.628 54.665 32.369"/>
  </g>
  <g>
   <path stroke-width="0.13" d="M52.78 33.387C52.853 33.613 53.344 33.656 53.878 33.484C54.384 33.322 54.746 33.024 54.72 32.799"/>
  </g>
  <line stroke-width="0.13" x1="54.713" y1="32.765" x2="55.408" y2="34.618"/>
  <line stroke-width="0.13" x1="52.78" y1="33.387" x2="53.475" y2="35.243"/>
  <line stroke-width="0.13" x1="51.533" y1="35.771" x2="53.469" y2="35.219"/>
  <line stroke-width="0.13" x1="55.417" y1="34.662" x2="57.341" y2="34.113"/>
  <polyline stroke-width="0.13" points="54.713 32.765 54.895 32.701 54.651 32.331"/>
  <polyline stroke-width="0.13" points="52.78 33.387 52.567 33.427 52.448 33.002 54.651 32.331"/>
  <g>
   <path stroke-width="0.13" d="M50.646 33.915C50.64 33.896 50.631 33.878 50.621 33.862"/>
   <path stroke-width="0.13" d="M48.792 34.46C48.856 34.676 49.322 34.729 49.834 34.579C50.345 34.429 50.71 34.131 50.646 33.915"/>
  </g>
  <line stroke-width="0.13" x1="50.646" y1="33.915" x2="50.838" y2="34.398"/>
  <line stroke-width="0.13" x1="48.792" y1="34.46" x2="48.984" y2="34.942"/>
  <polyline stroke-width="0.13" points="50.345 33.957 50.621 33.862 50.011 32.417 48.289 32.954 48.792 34.46 49.091 34.417"/>
  <g>
   <path stroke-width="0.13" d="M49.981 32.966C49.793 32.82 49.545 32.78 49.314 32.838C49 32.917 48.777 33.161 48.735 33.444"/>
   <path stroke-width="0.13" d="M48.941 34.006C49.13 34.176 49.399 34.229 49.649 34.167C49.944 34.093 50.158 33.871 50.219 33.612"/>
  </g>
  <g>
   <polyline stroke-width="0.3" points="51.533 35.771 51.139 34.493"/>
   <polyline stroke-width="0.13" points="51.139 34.493 52.402 34.192 52.133 33.341 51.817 33.404 51.201 31.556 55.021 30.579 55.89 32.331 55.557 32.441 56.031 33.246 60.055 32.219"/>
  </g>
  <line stroke-width="0.3" x1="57.341" y1="34.113" x2="56.906" y2="33.023"/>
  <g>
   <path stroke-width="0.13" d="M56.325 33.125C56.448 33.048 56.439 32.81 56.304 32.594C56.167 32.378 55.957 32.268 55.832 32.347C55.707 32.426 55.718 32.664 55.853 32.878C55.99 33.094 56.201 33.204 56.325 33.125"/>
  </g>
  <g>
   <path stroke-width="0.13" d="M52.168 34.229C52.296 34.167 52.311 33.936 52.201 33.716C52.093 33.494 51.901 33.366 51.773 33.429C51.646 33.493 51.631 33.722 51.74 33.944C51.848 34.164 52.04 34.292 52.168 34.229"/>
  </g>
  <polyline stroke-width="0.13" points="51.951 31.364 50.537 27.99 50.537 27.202 50.17 27.286 49.755 27.852"/>
  <polyline stroke-width="0.13" points="49.43 25.785 49.649 26.286 50.354 26.06 50.185 25.609 50.551 25.356 49.847 23.553 48.694 23.9"/>
  <polyline stroke-width="0.13" points="51.439 25.132 50.734 23.413 51.89 23.286 52.607 25.399"/>
  <line stroke-width="0.13" x1="55.021" y1="30.579" x2="53.566" y2="26.681"/>
  <path stroke-width="0.13" d="M53.566 26.681C53.383 26.074 52.612 25.059 52.482 25.032"/>
  <polyline stroke-width="0.13" points="52.607 25.399 52.073 25.484 51.875 25.23 51.439 25.132"/>
  <polyline stroke-width="0.13" points="50.604 28.152 50.749 27.905 51.2 27.778 50.945 27.06"/>
  <polyline stroke-width="0.13" points="52.17 26.667 52.439 27.426 52.734 27.329 52.917 27.385 54.225 30.783"/>
  <line stroke-width="0.13" x1="52.875" y1="28.821" x2="52.509" y2="27.975"/>
  <line stroke-width="0.13" x1="51.1" y1="29.335" x2="51.716" y2="29.17"/>
  <line stroke-width="0.13" x1="52.878" y1="28.859" x2="53.429" y2="28.713"/>
  <line stroke-width="0.13" x1="51.707" y1="29.144" x2="51.34" y2="28.3"/>
  <g>
   <path stroke-width="0.13" d="M51.124 29.388C51.259 29.62 51.808 29.672 52.396 29.515C53.039 29.344 53.5 28.984 53.429 28.713"/>
  </g>
  <g>
   <path stroke-width="0.13" d="M52.875 28.821C52.872 28.811 52.868 28.801 52.863 28.794"/>
   <path stroke-width="0.13" d="M51.707 29.146C51.743 29.282 52.036 29.32 52.359 29.23C52.682 29.14 52.912 28.957 52.875 28.821"/>
  </g>
  <g>
   <path stroke-width="0.13" d="M49.847 23.553C49.863 23.658 50.076 23.71 50.32 23.67C50.566 23.632 50.75 23.516 50.734 23.413"/>
  </g>
  <g>
   <path stroke-width="0.13" d="M49.97 21.161C49.915 20.897 49.636 20.733 49.344 20.792C49.052 20.853 48.86 21.115 48.915 21.379C48.969 21.643 49.25 21.809 49.542 21.748C49.832 21.689 50.024 21.425 49.97 21.161"/>
  </g>
  <polyline stroke-width="0.13" points="48.984 21.539 49.628 22.946 48.694 23.9"/>
  <polyline stroke-width="0.13" points="49.97 21.161 50.731 22.806 51.89 23.286"/>
  <g>
   <path stroke-width="0.13" d="M52.095 26.172C52.036 26.012 51.679 25.995 51.298 26.138C50.915 26.278 50.655 26.524 50.715 26.684"/>
   <path stroke-width="0.2" d="M50.715 26.684C50.774 26.846 51.131 26.861 51.514 26.721C51.895 26.579 52.155 26.335 52.095 26.172"/>
  </g>
  <path stroke="none" fill="#000000" d="M50.89 26.405C50.786 26.504 50.783 26.582 50.808 26.649L50.621 26.719C50.591 26.638 50.667 26.518 50.79 26.402L50.89 26.405z"/>
  <path stroke="none" fill="#000000" d="M52.002 26.207L52.189 26.138C52.155 26.047 52.018 26.015 51.853 26.007L51.78 26.076C51.905 26.082 51.975 26.138 52.002 26.207z"/>
  <g>
   <path stroke-width="0.13" d="M51.753 25.509C51.694 25.347 51.337 25.332 50.954 25.474C50.573 25.614 50.314 25.859 50.372 26.021C50.377 26.032 50.381 26.042 50.387 26.05"/>
  </g>
  <line stroke-width="0.2" x1="51.753" y1="25.509" x2="52.095" y2="26.172"/>
  <line stroke-width="0.2" x1="50.372" y1="26.021" x2="50.715" y2="26.684"/>
  <path stroke-width="0.2" d="M50.368 25.934C50.402 25.855 50.621 25.335 50.779 25.225C50.936 25.114 51.353 25.184 51.729 25.469"/>
  <line stroke-width="0.13" x1="50.945" y1="27.06" x2="52.17" y2="26.667"/>
  <g>
   <path stroke-width="0.13" d="M52.088 24.478C52.212 24.399 52.203 24.161 52.067 23.946C51.93 23.731 51.719 23.62 51.595 23.699C51.47 23.777 51.481 24.015 51.616 24.231C51.753 24.446 51.963 24.556 52.088 24.478"/>
  </g>
  <g>
   <path stroke-width="0.13" d="M49.545 25.213C49.671 25.149 49.686 24.92 49.578 24.699C49.469 24.478 49.277 24.35 49.149 24.413C49.021 24.475 49.006 24.705 49.115 24.926C49.225 25.147 49.417 25.275 49.545 25.213"/>
  </g>
  <polyline stroke-width="0.13" points="48.901 24.429 49.481 24.275 49.802 25.202 49.256 25.336"/>
  <polyline stroke-width="0.13" points="52 23.614 51.319 23.713 51.72 24.664 52.332 24.591"/>
  <path stroke-width="0.13" d="M51.34 28.3C51.386 28.126 51.573 27.844 51.841 27.777C52.109 27.71 52.399 27.721 52.509 27.975"/>
  <path stroke-width="0.13" d="M60.055 32.219C61.1 31.841 61.82 31.19 61.326 29.666"/>
  <line stroke-width="0.13" x1="56.073" y1="35.807" x2="60.212" y2="34.566"/>
  <path stroke-width="0.13" d="M60.212 34.566C60.96 34.283 61.185 33.634 61.213 33.365"/>
  <line stroke-width="0.13" x1="61.213" y1="33.365" x2="61.478" y2="30.724"/>
  <line stroke-width="0.13" x1="61.326" y1="29.666" x2="53.801" y2="9.247"/>
  <g>
   <path stroke-width="0.3" d="M10.397 22.449C10.38 22.452 10.362 22.455 10.349 22.46C9.913 22.603 9.833 23.554 10.172 24.585C10.509 25.615 11.135 26.335 11.57 26.193"/>
  </g>
  <g>
   <path stroke-width="0.13" d="M10.65 23.312C10.641 23.315 10.634 23.317 10.628 23.318C10.393 23.396 10.35 23.911 10.534 24.468C10.718 25.024 11.057 25.413 11.292 25.335"/>
  </g>
  <g>
   <path stroke-width="0.13" d="M28.69 18.559C28.454 18.638 28.413 19.152 28.596 19.708C28.78 20.265 29.12 20.653 29.355 20.576"/>
  </g>
  <line stroke-width="0.13" x1="29.355" y1="20.576" x2="11.297" y2="25.346"/>
  <line stroke-width="0.13" x1="28.69" y1="18.559" x2="10.579" y2="23.344"/>
  <line stroke-width="0.3" x1="11.571" y1="26.193" x2="19.053" y2="24.222"/>
  <line stroke-width="0.3" x1="20.05" y1="23.96" x2="22.725" y2="23.254"/>
  <line stroke-width="0.3" x1="10.349" y1="22.46" x2="17.69" y2="20.618"/>
  <line stroke-width="0.3" x1="18.731" y1="20.358" x2="21.545" y2="19.65"/>
  <line stroke-width="0.13" x1="10.628" y1="23.318" x2="10.253" y2="22.509"/>
  <line stroke-width="0.13" x1="11.292" y1="25.335" x2="11.615" y2="26.065"/>
  <g>
   <path stroke-width="0.13" d="M17.69 20.618L17.62 19.993"/>
   <path stroke-width="0.3" d="M17.62 19.993L18.35 19.823L18.731 20.358"/>
  </g>
  <g>
   <polyline stroke-width="0.13" points="19.053 24.222 19.4 24.67"/>
   <polyline stroke-width="0.3" points="19.4 24.67 20.088 24.477 20.05 23.96"/>
  </g>
  <path stroke-width="0.3" d="M19.4 24.67C19.015 24.798 18.481 24.577 18.384 24.399"/>
  <path stroke-width="0.3" d="M17.62 19.993C17.385 20.295 17.278 20.533 17.353 20.702"/>
  <path stroke-width="0.13" d="M22.725 23.254C23.155 23.039 23.262 23.405 23.327 23.64C23.39 23.876 23.905 24.519 24.077 24.542"/>
  <line stroke-width="0.3" x1="24.077" y1="24.542" x2="25.943" y2="24.07"/>
  <line stroke-width="0.3" x1="23.446" y1="17.335" x2="21.611" y2="17.719"/>
  <path stroke-width="0.3" d="M21.611 17.719C21.138 18.17 21.396 19.329 21.545 19.65"/>
  <path stroke-width="0.13" d="M21.611 17.719C21.632 18.213 21.718 18.879 21.782 19.114C21.847 19.35 21.718 19.608 21.545 19.65"/>
  <path stroke-width="0.3" d="M22.454 23.327C22.812 24.283 23.198 25.1 24.077 24.542"/>
  <polyline stroke-width="0.13" points="25.535 22.76 25.46 22.542 26.746 22.196 26.878 22.53 29.702 21.743 29.355 20.576"/>
  <polyline stroke-width="0.13" points="29.702 21.743 29.571 22.053 27.211 22.757 26.878 22.53"/>
  <line stroke-width="0.13" x1="23.743" y1="18.263" x2="23.35" y2="16.858"/>
  <polyline stroke-width="0.13" points="23.743 18.263 25.245 17.894 25.161 17.62 25.269 17.405 27.593 16.94 28.141 17.179 28.69 18.559"/>
  <line stroke-width="0.13" x1="28.141" y1="17.179" x2="29.274" y2="16.929"/>
  <polyline stroke-width="0.13" points="29.702 21.743 30.811 21.446 31.359 19.455"/>
  <line stroke-width="0.13" x1="31.12" y1="18.312" x2="29.274" y2="16.929"/>
  <g>
   <path stroke-width="0.13" d="M25.007 17.524C24.96 17.309 24.617 17.201 24.243 17.283C23.87 17.364 23.605 17.606 23.652 17.821C23.699 18.038 24.042 18.146 24.416 18.065C24.789 17.983 25.054 17.74 25.007 17.524"/>
  </g>
  <g>
   <path stroke-width="0.13" d="M26.948 22.643C26.9 22.428 26.559 22.318 26.184 22.4C25.811 22.483 25.545 22.725 25.593 22.94C25.64 23.157 25.981 23.265 26.356 23.184C26.731 23.102 26.995 22.859 26.948 22.643"/>
  </g>
  <path stroke-width="0.13" d="M23.35 16.858C23.219 16.202 23.469 15.522 23.958 15.368C24.446 15.214 27.461 14.545 27.856 14.343C28.248 14.141 28.951 13.605 28.928 13.199C28.903 12.794 28.713 12.913 28.903 12.794C29.094 12.675 30.239 11.292 30.239 11.292"/>
  <path stroke-width="0.13" d="M22.176 17.602C21.969 16.989 21.896 15.297 23.588 14.82C25.282 14.343 29.332 12.342 30.239 11.292"/>
  <path stroke-width="0.3" d="M29.329 12.038C25.972 12.175 19.306 14.869 19.565 20.147"/>
  <line stroke-width="0.13" x1="31.12" y1="18.312" x2="39.828" y2="16.044"/>
  <line stroke-width="0.13" x1="38.479" y1="12.394" x2="39.847" y2="16.039"/>
  <line stroke-width="0.13" x1="40.256" y1="17.132" x2="40.978" y2="19.057"/>
  <line stroke-width="0.13" x1="39.491" y1="12.089" x2="41.966" y2="18.687"/>
  <line stroke-width="0.13" x1="31.417" y1="19.449" x2="40.219" y2="17.155"/>
  <g>
   <polyline stroke-width="0.13" points="34.091 10.131 35.234 13.201 42.773 11.234 41.551 8.26"/>
   <polyline stroke-width="0.3" points="41.551 8.26 34.091 10.131"/>
  </g>
  <g>
   <path stroke-width="0.13" d="M29.274 16.928C28.746 17.109 28.664 18.265 29.088 19.512C29.496 20.716 30.23 21.564 30.757 21.46"/>
  </g>
  <g>
   <path stroke-width="0.13" d="M31.12 18.312C30.987 18.347 30.946 18.629 31.027 18.943C31.109 19.257 31.283 19.484 31.417 19.449"/>
  </g>
  <g>
   <path stroke-width="0.13" d="M41.966 18.687C41.877 18.451 41.585 18.343 41.311 18.445C41.039 18.547 40.89 18.821 40.978 19.056C41.067 19.294 41.359 19.402 41.633 19.3C41.905 19.198 42.054 18.923 41.966 18.687"/>
  </g>
  <g>
   <path stroke-width="0.13" d="M38.476 12.353C38.475 12.368 38.475 12.382 38.479 12.394C38.515 12.512 38.771 12.541 39.049 12.455C39.329 12.371 39.527 12.208 39.491 12.089"/>
  </g>
  <g>
   <path stroke-width="0.13" d="M40.219 17.155C40.232 17.149 40.246 17.141 40.256 17.132"/>
   <path stroke-width="0.13" d="M39.845 16.039C39.838 16.041 39.832 16.042 39.828 16.044C39.698 16.089 39.68 16.376 39.787 16.681C39.896 16.989 40.088 17.201 40.219 17.155"/>
  </g>
  <line stroke-width="0.3" x1="30.239" y1="11.292" x2="34.161" y2="10.32"/>
  <polyline stroke-width="0.3" points="41.637 8.468 43.999 7.881 44.436 7.753"/>
  <polyline stroke-width="0.13" points="33.899 10.385 34.054 10.832 32.688 11.154 32.529 10.724"/>
  <polyline stroke-width="0.13" points="43.408 8.038 43.563 8.486 42.197 8.807 42.039 8.378"/>
  <polyline stroke-width="0.3" points="43.999 7.881 43.521 6.58 30.897 9.724 31.262 11.039"/>
  <g>
   <path stroke-width="0.3" d="M32.624 9.067C32.472 8.681 31.608 8.659 30.693 9.019C29.778 9.378 29.161 9.981 29.312 10.368"/>
  </g>
  <g>
   <path stroke-width="0.13" d="M30.96 9.955C30.213 10.266 29.731 10.759 29.853 11.076"/>
  </g>
  <g>
   <path stroke-width="0.13" d="M30.861 9.693C29.998 10.061 29.448 10.632 29.589 11"/>
   <path stroke-width="0.3" d="M29.589 11C29.638 11.122 29.757 11.208 29.923 11.256"/>
  </g>
  <path stroke="none" fill="#000000" d="M29.929 10.316C29.67 10.57 29.661 10.772 29.73 10.945L29.451 11.054C29.378 10.869 29.55 10.586 29.83 10.314L29.929 10.316z"/>
  <line stroke-width="0.3" x1="32.713" y1="9.272" x2="32.624" y2="9.067"/>
  <line stroke-width="0.3" x1="29.589" y1="11" x2="29.312" y2="10.368"/>
  <line stroke-width="0.3" x1="29.853" y1="11.076" x2="30.021" y2="11.51"/>
  <path stroke-width="0.3" d="M44.436 7.753L45.17 7.778C45.17 7.778 50.259 6.716 52.049 8.037"/>
  <path stroke-width="0.3" d="M53.801 9.247C53.39 8.346 52.746 7.96 52.049 8.037"/>
  <path stroke-width="0.13" d="M45.042 7.804C47.695 9.041 51.822 8.045 52.049 8.037"/>
  <path stroke-width="0.3" d="M53.639 8.938C55.682 9.583 57.203 12.622 57.384 12.958"/>
  <line stroke-width="0.3" x1="57.384" y1="12.958" x2="63.026" y2="28.39"/>
  <path stroke-width="0.3" d="M63.026 28.39C63.49 30.452 63.463 33.673 61.531 36.222C59.598 38.774 57.023 39.521 56.661 39.496"/>
  <polyline stroke-width="0.3" points="55.945 35.723 56.79 40.68 56.456 41.607 41.822 45.42"/>
  <line stroke-width="0.13" x1="56.429" y1="40.68" x2="42.286" y2="44.442"/>
  <line stroke-width="0.13" x1="51.637" y1="36.454" x2="41.615" y2="39.161"/>
  <g>
   <path stroke-width="0.13" d="M36.088 45.384C36.265 45.85 37.304 45.889 38.408 45.469C39.512 45.049 40.264 44.332 40.087 43.865"/>
   <path stroke-width="0.3" d="M40.087 43.865C39.909 43.399 38.871 43.36 37.767 43.78C36.662 44.198 35.911 44.917 36.088 45.384"/>
  </g>
  <path stroke="none" fill="#000000" d="M39.677 44.683C39.996 44.38 40.026 44.128 39.947 43.918L40.226 43.811C40.311 44.034 40.115 44.365 39.777 44.686L39.677 44.683z"/>
  <path stroke="none" fill="#000000" d="M36.228 45.331L35.948 45.436C36.042 45.686 36.414 45.777 36.865 45.792L36.936 45.725C36.546 45.71 36.31 45.548 36.228 45.331z"/>
  <g>
   <path stroke-width="0.3" d="M34.505 45.759C34.639 46.161 35.143 46.398 35.85 46.457"/>
   <path stroke-width="0.13" d="M41.469 43.482C41.466 43.468 41.462 43.454 41.457 43.441C41.186 42.63 39.411 42.49 37.491 43.131C37.223 43.219 36.968 43.32 36.749 43.417"/>
  </g>
  <path stroke-width="0.13" d="M41.488 43.588C41.49 44.502 41.537 44.64 42.286 44.442"/>
  <path stroke-width="0.13" d="M41.615 39.161C41.033 39.329 40.74 39.573 40.658 39.067C40.576 38.561 40.543 37.418 37.786 37.875"/>
  <line stroke-width="0.13" x1="41.488" y1="43.588" x2="40.756" y2="39.442"/>
  <line stroke-width="0.13" x1="36.749" y1="43.417" x2="36.463" y2="38.756"/>
  <line stroke-width="0.13" x1="36.749" y1="43.417" x2="35.344" y2="43.695"/>
  <g>
   <polyline stroke-width="0.3" points="34.505 45.759 33.933 44.616"/>
   <polyline stroke-width="0.2" points="33.933 44.616 32.17 41.189"/>
  </g>
  <line stroke-width="0.13" x1="35.043" y1="43.555" x2="32.595" y2="39.149"/>
  <path stroke-width="0.13" d="M31.039 38.299C31.323 38.854 32.308 39.253 32.656 39.259"/>
  <path stroke-width="0.13" d="M29.021 36.554C29.021 36.554 30.277 40.145 30.507 40.847C30.734 41.548 31.865 42.009 32.508 41.844"/>
  <line stroke-width="0.13" x1="38.335" y1="37.631" x2="48.811" y2="34.963"/>
  <line stroke-width="0.13" x1="50.838" y1="34.398" x2="51.139" y2="34.493"/>
  <path stroke-width="0.3" d="M41.822 45.42C39.85 46.026 36.61 46.661 35.792 46.451"/>
  <path stroke-width="0.13" d="M34.658 46.012C34.512 45.642 34.421 45.296 35.088 43.798"/>
  <line stroke-width="0.13" x1="24.612" y1="24.405" x2="26.274" y2="29.137"/>
  <line stroke-width="0.13" x1="22.553" y1="31.489" x2="20.053" y2="24.759"/>
  <line stroke-width="0.3" x1="19.4" y1="24.67" x2="18.376" y2="32.84"/>
  <path stroke-width="0.13" d="M24.109 36.49C25.399 40.281 26.858 43.237 28.024 44.295C29.193 45.353 32.241 45.862 34.219 45.188"/>
  <path stroke-width="0.13" d="M21.532 36.889C21.532 36.926 23.356 41.558 23.794 43.054C24.231 44.549 24.195 44.476 24.195 45.28C24.195 46.082 24.486 48.598 23.21 48.709"/>
  <path stroke-width="0.13" d="M20.126 37.09C20.126 37.125 21.951 41.759 22.388 43.255C22.826 44.75 22.789 44.677 22.789 45.479C22.789 46.283 23.082 48.799 21.804 48.908"/>
  <path stroke-width="0.3" d="M23.21 48.709C23.21 48.709 22.152 48.854 21.804 48.908C21.458 48.963 21.349 48.015 21.167 47.54C20.984 47.067 20.984 47.03 20.984 47.03"/>
  <g>
   <polyline stroke-width="0.13" points="22.114 44.222 21.751 46.665"/>
   <polyline stroke-width="0.3" points="21.751 46.665 18.103 47.613 18.103 48.453 17.007 48.781 16.716 48.015 14.125 48.671"/>
  </g>
  <line stroke-width="0.13" x1="18.103" y1="47.613" x2="17.884" y2="46.884"/>
  <line stroke-width="0.13" x1="16.716" y1="48.015" x2="16.789" y2="47.03"/>
  <polyline stroke-width="0.13" points="18.504 45.389 18.795 46.009 19.89 45.826 19.963 45.353 19.743 44.878"/>
  <line stroke-width="0.13" x1="21.568" y1="43.673" x2="14.486" y2="45.579"/>
  <line stroke-width="0.13" x1="20.109" y1="37.618" x2="12.205" y2="39.688"/>
  <polyline stroke-width="0.13" points="14.455 38.13 11.791 38.823 11.462 41.704"/>
  <line stroke-width="0.13" x1="11.791" y1="38.823" x2="12.08" y2="39.337"/>
  <line stroke-width="0.13" x1="12.217" y1="39.311" x2="15.313" y2="38.472"/>
  <path stroke-width="0.2" d="M13.708 48.386C13.797 47.771 14.336 46.906 14.096 45.829C13.859 44.75 13.583 43.46 13.07 42.195C12.556 40.929 12.003 39.462 11.878 40.365"/>
  <path stroke-width="0.13" d="M13.965 48.423C13.99 48.249 14.055 48.054 14.127 47.838C14.311 47.27 14.528 46.576 14.35 45.773L14.35 45.773L14.323 45.651C14.089 44.585 13.811 43.329 13.31 42.097L13.31 42.097L13.192 41.807L13.192 41.807C12.846 40.948 12.477 40.097 12.252 39.915C12.146 39.831 12.041 39.814 11.955 39.831L11.955 39.831C11.897 39.841 11.839 39.868 11.788 39.915C11.757 39.945 11.727 39.982 11.702 40.033C11.669 40.097 11.64 40.192 11.621 40.329"/>
  <line stroke-width="0.13" x1="14.298" y1="45.064" x2="22.018" y2="43.033"/>
  <path stroke-width="0.3" d="M11.462 41.704C11.365 42.256 11.452 42.646 11.615 43.372C11.778 44.1 12.73 47.22 13.119 47.909C13.507 48.598 13.712 48.767 14.047 48.686"/>
  <line stroke-width="0.13" x1="11.878" y1="40.365" x2="11.704" y2="42.118"/>
  <line stroke-width="0.13" x1="11.804" y1="42.27" x2="12.932" y2="42.018"/>
  <g>
   <path stroke-width="0.3" d="M18.657 30.6C18.657 30.6 14.018 31.873 14.018 31.859C14.018 31.846 13.006 31.228 12.291 31.55C11.576 31.873 11.169 32.295 11.07 32.912C10.971 33.53 10.971 33.655 10.971 33.655"/>
   <path stroke-width="0.13" d="M10.971 33.655C10.943 34.301 10.762 35.368 11.603 35.845C12.326 36.255 12.191 36.045 12.359 36.542"/>
  </g>
  <path stroke-width="0.13" d="M12.788 37.765C12.922 38.212 12.986 38.512 12.986 38.512"/>
  <path stroke-width="0.13" d="M11.169 33.024C11.169 33.557 11.35 33.951 11.702 34.119C12.053 34.287 12.348 34.246 12.529 34.652C12.712 35.06 13.836 38.29 13.836 38.29"/>
  <path stroke-width="0.3" d="M11.009 33.314C10.102 33.796 9.596 35.143 9.596 35.606C9.596 35.741 9.593 35.899 9.593 36.066"/>
  <path stroke-width="0.3" d="M10.554 39.606C10.993 40.789 11.429 41.956 11.429 41.956"/>
  <path stroke-width="0.13" d="M9.961 35.073C9.9 35.402 9.993 35.798 10.124 36.179"/>
  <path stroke-width="0.13" d="M11.16 38.957C11.416 39.578 11.662 40.137 11.662 40.137"/>
  <path stroke-width="0.13" d="M17.594 48.734C17.594 48.734 20.948 57.92 20.908 57.899C20.868 57.88 20.234 58.732 20.532 59.506C20.829 60.28 21.582 60.697 22.653 60.578C23.725 60.459 23.983 59.944 24.022 59.487"/>
  <path stroke-width="0.13" d="M17.376 50.43C17.376 50.43 19.721 56.851 20.466 58.945"/>
  <path stroke-width="0.13" d="M20.269 60.438C20.217 60.677 20.213 60.945 20.312 61.203C20.611 61.976 21.364 62.393 22.435 62.274C23.507 62.155 23.765 61.64 23.804 61.183"/>
  <line stroke-width="0.13" x1="20.269" y1="60.438" x2="20.461" y2="59.228"/>
  <line stroke-width="0.13" x1="24.015" y1="59.561" x2="58.984" y2="50.185"/>
  <line stroke-width="0.13" x1="23.804" y1="61.183" x2="34.259" y2="58.415"/>
  <line stroke-width="0.13" x1="14.557" y1="48.563" x2="19.618" y2="62.423"/>
  <line stroke-width="0.3" x1="13.943" y1="48.704" x2="19.321" y2="63.753"/>
  <path stroke-width="0.13" d="M19.618 62.423C20.155 63.573 21.423 64.109 23.388 63.613"/>
  <path stroke-width="0.3" d="M19.321 63.753C20.094 65.18 21.623 65.418 23.567 64.823"/>
  <line stroke-width="0.13" x1="23.388" y1="63.613" x2="60.799" y2="53.85"/>
  <line stroke-width="0.3" x1="23.567" y1="64.823" x2="60.963" y2="55.098"/>
  <path stroke-width="0.13" d="M23.106 48.722C23.106 48.722 24.504 52.725 24.559 53.036C24.614 53.345 24.687 53.328 25.051 53.438C25.417 53.546 25.856 53.619 25.838 54.058C25.82 54.496 27.332 58.5 31.207 57.649"/>
  <path stroke-width="0.13" d="M34.395 56.777C35.027 57.279 36.948 57.371 37.164 56.036"/>
  <path stroke-width="0.13" d="M34.198 58.43C34.832 58.932 36.753 59.024 36.969 57.688"/>
  <line stroke-width="0.13" x1="37.094" y1="57.616" x2="58.548" y2="51.905"/>
  <path stroke-width="0.13" d="M56.07 50.86C57.421 50.287 58.301 49.018 58.363 48.424C58.424 47.832 58.854 44.823 58.854 44.823C58.854 44.823 59.284 44.966 59.551 43.286"/>
  <line stroke-width="0.2" x1="58.854" y1="44.823" x2="59.776" y2="38.128"/>
  <line stroke-width="0.3" x1="59.551" y1="43.286" x2="60.307" y2="37.554"/>
  <line stroke-width="0.3" x1="59.619" y1="42.765" x2="61.863" y2="48.732"/>
  <path stroke-width="0.13" d="M59.326 50.206C60.411 51.209 62.692 50.156 61.828 48.636"/>
  <path stroke-width="0.13" d="M58.854 52.069C59.939 52.682 61.003 52.213 61.351 51.844C61.7 51.475 61.74 51.045 61.74 51.045"/>
  <line stroke-width="0.3" x1="61.74" y1="51.045" x2="62.018" y2="49.323"/>
  <path stroke-width="0.3" d="M61.972 49.607C62.499 50.39 62.805 51.823 62.661 52.948C62.518 54.075 61.713 54.904 60.963 55.098"/>
  <path stroke-width="0.13" d="M60.799 53.85C62.17 53.359 62.787 52.389 62.652 51.655"/>
  <g>
   <polyline stroke-width="0.13" points="13.208 36.918 8.663 36.216 9.666 37.164 5.644 38.243 5.855 39.03"/>
   <polyline stroke-width="0.13" points="13.208 36.918 9.624 39.801 10.018 38.476 5.996 39.554 5.785 38.768"/>
   <path stroke="none" fill="#000000" d="M13.208 36.918L8.663 36.216 9.666 37.164 5.644 38.243 5.996 39.554 10.018 38.476 9.624 39.801 13.208 36.918z"/>
  </g>
  <g>
   <polyline stroke-width="0.13" points="2.468 26.722 6.054 23.839 5.66 25.164 9.682 24.085 9.893 24.873"/>
   <polyline stroke-width="0.13" points="2.468 26.722 7.014 27.425 6.011 26.475 10.034 25.397 9.823 24.611"/>
   <path stroke="none" fill="#000000" d="M2.468 26.722L6.054 23.839 5.66 25.164 9.682 24.085 10.034 25.397 6.011 26.475 7.014 27.425 2.468 26.722z"/>
  </g>
  <line stroke-width="0.3" x1="62.018" y1="49.323" x2="61.828" y2="48.636"/>
  <line stroke-width="0.3" x1="29.329" y1="12.038" x2="29.996" y2="11.445"/>
  <line stroke-width="0.13" x1="36.987" y1="57.615" x2="37.14" y2="56.149"/>
  <text x="3.053" y="40.274" stroke="none" fill="#000000" font-family="'Arial'" font-size="3.528">1</text>
  <text x="0" y="28.06" stroke="none" fill="#000000" font-family="'Arial'" font-size="3.528">2</text>
  <text x="24.356" y="2.615" stroke="none" fill="#000000" font-family="'Arial'" font-size="3.528">3</text>
  <text x="37.296" y="2.468" stroke="none" fill="#000000" font-family="'Arial'" font-size="3.528">4</text>
  <text x="65.65" y="28.425" stroke="none" fill="#000000" font-family="'Arial'" font-size="3.528">5</text>
  <text x="65.483" y="8.782" stroke="none" fill="#000000" font-family="'Arial'" font-size="3.528">6</text>
  <text x="65.359" y="21.3" stroke="none" fill="#000000" font-family="'Arial'" font-size="3.528">7</text>
  <line stroke-width="0.13" x1="37.296" y1="30.387" x2="26.027" y2="3.269"/>
  <line stroke-width="0.13" x1="37.588" y1="10.394" x2="38.024" y2="3.269"/>
  <line stroke-width="0.13" x1="45.659" y1="20.381" x2="64.996" y2="8.358"/>
  <line stroke-width="0.13" x1="51.064" y1="25.765" x2="64.996" y2="20.135"/>
  <line stroke-width="0.13" x1="53.146" y1="30.315" x2="64.996" y2="27.407"/>
  <text transform="matrix(0 -1 1 0 66.37 62.289)" stroke="none" fill="#000000" font-family="'Arial'" font-size="2.117">316 305</text>
 </g>
</svg>
