<?xml version="1.0" encoding="utf-8"?>
<!DOCTYPE svg PUBLIC "-//W3C//DTD SVG 1.1//EN" "http://www.w3.org/Graphics/SVG/1.1/DTD/svg11.dtd">
<!-- Generator: PTC Arbortext IsoDraw 7.3 -->
<svg id="Standard_x0020_layer" width="100%" height="100%" viewBox="0 0 70.82 68.212"
 xmlns="http://www.w3.org/2000/svg" xmlns:xlink="http://www.w3.org/1999/xlink"
 fill-rule="evenodd" clip-rule="evenodd" stroke="#000000" stroke-linecap="round" fill="none" xml:space="preserve">
 <path stroke="none" fill="#BFBFBF" d="M26.054 13.832L26.733 14.356 27.69 14.829 28.628 14.952 29.903 15.112C29.903 15.112 30.98 15.082 31.777 15.147 32.575 15.214 32.46 15.169 32.46 15.169 32.46 15.169 34.773 16.077 34.698 16.047 34.624 16.018 34.743 14.681 34.743 14.681L35.743 14.287 36.835 14.618 36.612 13.324 36.465 12.676 35.03 11.742 32.218 10.98 29.416 11.039 27.434 11.666 26.524 12.243 26.088 13.003 26.054 13.832z"/>
 <g>
  <path stroke-width="0.13" d="M35.853 13.089C35.877 12.029 33.865 11.125 31.361 11.07C28.856 11.012 26.806 11.824 26.783 12.884C26.759 13.942 28.769 14.846 31.274 14.903C33.78 14.96 35.829 14.147 35.853 13.089"/>
 </g>
 <g>
  <path stroke-width="0.3" d="M36.524 13.336C36.552 12.118 34.237 11.077 31.353 11.012C28.469 10.948 26.109 11.884 26.082 13.102"/>
  <path stroke-width="0.13" d="M26.082 13.102C26.068 13.714 26.644 14.282 27.588 14.702"/>
  <path stroke-width="0.13" d="M32.918 15.349C33.621 15.266 34.243 15.122 34.734 14.948"/>
  <path stroke-width="0.13" d="M35.924 14.333C36.331 14.013 36.524 13.667 36.524 13.336"/>
 </g>
 <path stroke="none" fill="#000000" d="M26.231 13.105C26.219 13.698 26.713 14.271 27.623 14.679L27.53 14.715C26.567 14.282 25.917 13.727 25.931 13.099L26.231 13.105z"/>
 <path stroke="none" fill="#000000" d="M35.868 14.319L35.982 14.346C36.393 14.023 36.674 13.676 36.674 13.34L36.375 13.333C36.375 13.66 36.268 14.005 35.868 14.319z"/>
 <path stroke-width="0.2" d="M25.803 13.307C26.067 14.739 29.193 15.147 30.8 15.147C32.405 15.147 32.405 15.147 32.405 15.147C32.405 15.147 35.386 16.317 35.969 16.55C36.554 16.783 36.847 17.367 36.933 18.917C37.021 20.464 37.284 21.312 37.284 21.312"/>
 <polyline stroke-width="0.13" points="37.284 21.312 39.359 21.077 37.051 20.143"/>
 <path stroke-width="0.2" d="M34.698 16.047L34.743 14.681L35.677 14.272C35.677 14.272 37.548 14.681 38.686 15.586C39.826 16.492 40.469 18.449 40.848 20.522"/>
 <path stroke-width="0.13" d="M35.064 14.71C35.064 14.71 37.314 15.499 37.868 16.024C38.423 16.55 39.241 18.8 39.447 19.763C39.651 20.728 39.533 20.873 39.533 20.873"/>
 <path stroke-width="0.2" d="M36.835 14.618C36.701 13.949 36.701 13.541 36.701 13.541C36.701 13.541 37.197 13.044 37.606 13.073C38.015 13.102 40.936 14.212 41.14 14.475C41.344 14.739 42.104 15.82 42.484 17.397C42.865 18.975 42.923 19.617 42.923 19.617"/>
 <path stroke-width="0.13" d="M37.109 13.628C39.301 14.505 40.439 14.71 40.906 16.257C41.375 17.806 41.959 19.968 41.899 19.996C41.841 20.027 40.848 20.522 40.848 20.522"/>
 <line stroke-width="0.13" x1="41.725" y1="19.792" x2="40.636" y2="19.501"/>
 <polyline stroke-width="0.13" points="43.156 19.559 43.975 19.033 42.893 18.507"/>
 <path stroke-width="0.13" d="M43.887 18.565C43.448 16.696 43.215 14.212 42.162 13.686C41.112 13.162 37.225 11.583 37.225 11.583"/>
 <path stroke-width="0.13" d="M36.901 13.368C36.901 13.368 36.933 12.461 36.933 11.788C36.933 11.117 35.268 9.656 33.341 9.451C31.413 9.246 29.573 9.509 29.251 9.627"/>
 <g>
  <path stroke-width="0.13" d="M37.927 8.808C37.926 8.8 37.926 8.789 37.926 8.782"/>
  <path stroke-width="0.13" d="M35.805 8.201C35.136 8.307 34.713 8.579 34.713 8.868C34.72 9.243 35.445 9.532 36.332 9.516C37.22 9.5 37.933 9.183 37.927 8.808"/>
 </g>
 <path stroke-width="0.13" d="M38.54 10.561C37.898 10.853 37.43 11.204 38.161 11.349C38.892 11.496 42.865 13.249 43.156 13.628C43.448 14.009 44.5 17.367 44.588 17.893C44.676 18.42 44.676 18.507 45.171 18.185C45.668 17.864 45.698 17.893 45.698 17.864"/>
 <path stroke-width="0.13" d="M40.381 9.422C39.067 9.772 39.359 10.24 40.03 10.385C40.703 10.532 42.338 11.262 42.923 11.32C43.506 11.38 44.179 11.525 44.412 11.028"/>
 <path stroke-width="0.13" d="M42.381 8.224C41.067 8.574 41.359 9.042 42.031 9.189C42.704 9.335 44.34 10.064 44.923 10.124C45.508 10.182 46.179 10.327 46.414 9.83"/>
 <path stroke-width="0.13" d="M44.326 7.185C43.046 7.527 43.331 7.982 43.984 8.124C44.639 8.266 46.229 8.977 46.798 9.034C47.366 9.089 48.021 9.233 48.247 8.749"/>
 <path stroke-width="0.13" d="M46.273 6.02C44.993 6.362 45.277 6.817 45.932 6.958C46.585 7.1 48.176 7.812 48.744 7.868C49.314 7.924 49.966 8.067 50.195 7.583"/>
 <path stroke-width="0.13" d="M48.125 5.089C46.914 5.411 47.183 5.841 47.802 5.977C48.421 6.11 49.929 6.783 50.466 6.838C51.005 6.891 51.624 7.025 51.838 6.569"/>
 <path stroke-width="0.13" d="M49.823 4.102C48.612 4.424 48.881 4.855 49.5 4.99C50.118 5.125 51.625 5.798 52.164 5.851C52.701 5.905 53.32 6.04 53.536 5.581"/>
 <path stroke-width="0.2" d="M25.803 13.307C25.803 13.307 22.474 12.285 21.597 12.051C20.721 11.817 20.341 11.875 19.932 12.285"/>
 <path stroke-width="0.2" d="M25.949 12.693L25.92 11.467C25.92 11.467 26.096 11.175 25.103 10.941C24.109 10.708 22.562 10.269 22.036 10.298"/>
 <path stroke-width="0.2" d="M27.966 11.146C27.966 11.146 27.908 10.561 27.908 10.269C27.908 9.977 27.294 9.801 26.71 9.598C26.126 9.393 24.431 8.897 23.789 8.867"/>
 <path stroke-width="0.13" d="M21.743 10.971C22.795 11.146 24.635 11.612 24.899 11.643C25.161 11.672 25.038 12.567 25.103 12.839"/>
 <path stroke-width="0.13" d="M23.028 9.509C23.818 9.861 26.184 9.977 26.535 10.298C26.885 10.619 26.885 11.759 26.856 11.788"/>
 <path stroke-width="0.13" d="M29.105 9.567C29.105 9.567 25.658 8.458 25.19 8.458"/>
 <path stroke-width="0.3" d="M18.297 14.388C19.027 12.839 20.954 10.971 21.772 10.298C22.591 9.627 24.138 8.663 25.074 8.048C26.009 7.435 27.762 6.296 29.047 5.565C30.332 4.836 38.92 1.038 40.118 0.513C41.316 -0.013 42.222 0.162 42.689 0.25C43.156 0.337 46.75 1.33 48.268 1.769C51.277 2.616 54.841 3.96 55.542 4.397C56.243 4.836 56.624 5.799 56.71 7.115C56.783 8.183 56.777 9.117 56.771 9.429"/>
 <path stroke-width="0.13" d="M26.096 7.815C26.096 7.815 29.777 8.692 30.214 8.867C30.653 9.042 31.178 8.721 31.266 8.692"/>
 <path stroke-width="0.13" d="M27.498 7.201C29.193 7.435 31.704 8.282 32.055 8.282C32.405 8.282 32.61 8.224 32.96 7.961"/>
 <path stroke-width="0.13" d="M29.411 6.078C31.106 6.31 33.618 7.158 33.969 7.158C34.32 7.158 34.524 7.099 34.875 6.836"/>
 <path stroke-width="0.13" d="M31.289 5.091C32.982 5.325 35.496 6.173 35.845 6.173C36.197 6.173 36.401 6.113 36.752 5.851"/>
 <path stroke-width="0.13" d="M33.201 3.967C34.896 4.2 37.408 5.048 37.759 5.048C38.109 5.048 38.314 4.988 38.664 4.727"/>
 <path stroke-width="0.13" d="M35.115 3.017C36.81 3.25 39.322 4.097 39.673 4.097C40.024 4.097 40.228 4.04 40.579 3.777"/>
 <path stroke-width="0.13" d="M37.258 2.229C38.912 2.531 41.033 3.237 41.353 3.237C41.703 3.237 41.908 3.177 42.258 2.915"/>
 <path stroke-width="0.13" d="M39.201 1.349C40.816 1.669 42.75 2.309 43.054 2.309C43.405 2.309 43.609 2.25 43.96 1.988"/>
 <path stroke-width="0.13" d="M54.109 8.85C54.109 8.85 47.276 13.111 46.877 13.473C46.478 13.835 46.261 14.669 46.369 15.14C46.478 15.611 47.384 19.271 47.639 21.047C47.892 22.823 48.725 25.759 48.906 26.774C49.088 27.788 49.161 28.44 49.161 28.367"/>
 <path stroke-width="0.13" d="M60.395 11.117C60.395 11.117 54.561 14.524 53.618 15.394C52.676 16.263 52.421 17.132 52.35 18.365C52.277 19.597 51.878 28.658 51.878 28.658"/>
 <line stroke-width="0.3" x1="55.103" y1="8.869" x2="60.866" y2="10.791"/>
 <path stroke-width="0.3" d="M60.866 10.791C61.881 11.262 61.628 12.313 61.554 13.907"/>
 <path stroke-width="0.13" d="M54.109 8.85C54.338 8.704 55.1 8.814 55.176 8.894"/>
 <path stroke-width="0.13" d="M34.213 19.405C32.119 25.094 30.745 39.09 30.681 42.162"/>
 <path stroke-width="0.3" d="M18.297 14.388C16.824 18.574 16.315 20.766 15.298 26.231C14.281 31.698 14.409 36.622 14.471 37.195"/>
 <path stroke-width="0.13" d="M14.384 37.433C14.384 37.433 24.153 40.488 28.221 41.832"/>
 <path stroke-width="0.13" d="M30.449 42.567C30.958 42.585 31.542 42.338 31.917 42.057C32.426 41.676 33.252 41.167 33.951 40.976"/>
 <g>
  <path stroke-width="0.2" d="M39.284 41.058C39.298 40.466 38.173 39.963 36.774 39.935C35.375 39.905 34.229 40.362 34.218 40.953"/>
  <path stroke-width="0.13" d="M34.218 40.953C34.207 41.424 34.921 41.841 35.939 42.006"/>
  <path stroke-width="0.13" d="M38.142 41.924C38.872 41.734 39.274 41.406 39.284 41.058"/>
 </g>
 <path stroke="none" fill="#000000" d="M34.317 40.954C34.311 41.238 34.554 41.512 34.99 41.707L34.898 41.743C34.426 41.533 34.112 41.259 34.118 40.951L34.317 40.954z"/>
 <path stroke="none" fill="#000000" d="M38.481 41.78L38.573 41.82C39.085 41.616 39.38 41.341 39.384 41.06L39.185 41.057C39.179 41.323 38.968 41.585 38.481 41.78z"/>
 <g>
  <path stroke-width="0.13" d="M34.247 42.932C34.235 43.524 35.359 44.027 36.759 44.055C38.158 44.085 39.302 43.628 39.314 43.037"/>
 </g>
 <line stroke-width="0.2" x1="39.314" y1="43.036" x2="39.284" y2="41.057"/>
 <line stroke-width="0.2" x1="34.247" y1="42.932" x2="34.218" y2="40.954"/>
 <line stroke-width="0.13" x1="38.326" y1="41.051" x2="37.804" y2="40.646"/>
 <polyline stroke-width="0.13" points="35.773 40.551 35.176 40.96 35.948 41.56 37.521 41.604 38.326 41.051"/>
 <g>
  <path stroke-width="0.2" d="M14.503 33.075C14.509 32.779 14.23 32.506 13.775 32.302"/>
  <path stroke-width="0.3" d="M13.775 32.302C13.285 32.082 12.64 31.964 11.99 31.951C10.592 31.923 9.448 32.378 9.435 32.969"/>
  <path stroke-width="0.13" d="M9.435 32.969C9.426 33.442 10.138 33.856 11.156 34.023"/>
  <path stroke-width="0.13" d="M13.359 33.942C14.089 33.75 14.492 33.423 14.503 33.075"/>
 </g>
 <path stroke="none" fill="#000000" d="M14.403 33.073C14.409 32.789 14.105 32.539 13.669 32.344L13.882 32.259C14.355 32.47 14.609 32.77 14.602 33.076L14.403 33.073z"/>
 <path stroke="none" fill="#000000" d="M9.585 32.972L9.285 32.966C9.278 33.28 9.634 33.545 10.115 33.761L10.208 33.723C9.781 33.533 9.58 33.25 9.585 32.972z"/>
 <path stroke="none" fill="#000000" d="M13.698 33.796L13.791 33.837C14.301 33.633 14.596 33.357 14.602 33.076L14.403 33.073C14.397 33.34 14.185 33.603 13.698 33.796z"/>
 <g>
  <path stroke-width="0.13" d="M9.464 34.948C9.452 35.539 10.577 36.042 11.977 36.072C13.131 36.095 14.112 35.789 14.432 35.341"/>
 </g>
 <line stroke-width="0.3" x1="9.464" y1="34.948" x2="9.435" y2="32.969"/>
 <line stroke-width="0.13" x1="13.542" y1="33.067" x2="13.021" y2="32.661"/>
 <polyline stroke-width="0.13" points="10.99 32.567 10.394 32.978 11.166 33.576 12.74 33.621 13.542 33.067"/>
 <line stroke-width="0.13" x1="14.676" y1="30.725" x2="12.615" y2="31.998"/>
 <path stroke-width="0.3" d="M9.449 33.96C9.449 33.96 8.234 34.604 7.905 35.009C7.578 35.412 7.653 38.341 7.653 38.999C7.653 39.655 7.552 42.029 7.501 42.988C7.451 43.948 7.602 44.25 8.159 44.453"/>
 <path stroke-width="0.13" d="M8.208 35.615C8.31 36.878 11.289 37.231 11.794 37.484C12.183 37.679 23.312 41.353 29.713 43.281"/>
 <path stroke-width="0.13" d="M33.198 44.274C33.424 44.331 33.615 44.374 33.762 44.402C36.64 44.957 38.914 44.706 40.478 43.999"/>
 <path stroke-width="0.13" d="M7.653 38.999C7.754 40.261 10.734 40.615 11.239 40.868C11.551 41.024 18.774 43.418 24.923 45.356"/>
 <path stroke-width="0.13" d="M33.142 47.773C33.164 47.777 33.185 47.781 33.207 47.786C36.085 48.341 38.357 48.088 39.923 47.381"/>
 <path stroke-width="0.13" d="M39.512 41.456C41.537 41.807 42.814 41.082 44.401 40.267C45.987 39.451 57.856 32.14 58.121 31.876C58.384 31.611 58.561 30.245 58.296 29.718"/>
 <line stroke-width="0.13" x1="40.478" y1="43.999" x2="62.658" y2="30.554"/>
 <line stroke-width="0.13" x1="39.923" y1="47.381" x2="63.627" y2="33.152"/>
 <path stroke-width="0.3" d="M64.42 29.277C64.42 29.277 64.243 32.448 64.243 33.329C64.243 34.21 63.978 35.134 62.878 35.707C61.777 36.28 45.875 46.058 43.585 47.6C41.295 49.142 38.697 50.948 35.173 50.463"/>
 <line stroke-width="0.3" x1="35.173" y1="50.463" x2="12.092" y2="43.283"/>
 <path stroke-width="0.13" d="M12.092 43.283C12.092 43.283 9.67 42.534 9.054 42.359C8.436 42.182 8.128 41.654 8.128 41.654"/>
 <path stroke-width="0.13" d="M8.159 44.453C9.009 44.692 9.141 45.661 9.054 46.411C8.965 47.159 8.965 47.6 8.965 47.6"/>
 <line stroke-width="0.3" x1="0.949" y1="48.216" x2="7.865" y2="50.728"/>
 <path stroke-width="0.3" d="M7.865 50.728C8.702 51.124 8.173 52.18 8.128 52.886C8.085 53.591 7.953 54.427 7.203 54.56"/>
 <path stroke-width="0.3" d="M8.089 53.313C8.092 53.289 3.714 55.951 2.934 56.374C2.153 56.796 2.185 58.162 2.185 58.651C2.185 59.139 2.153 61.546 2.12 62.198C2.088 62.848 2.446 63.726 4.431 63.954C6.415 64.183 7.977 64.344 9.441 63.173C10.906 62.003 14.679 58.162 15.624 57.414C16.567 56.665 17.347 57.121 18.03 57.121C18.714 57.121 22.359 58 22.911 58.39C23.464 58.78 23.66 58.976 23.66 59.659C23.66 60.343 23.757 61.612 23.725 61.612"/>
 <path stroke-width="0.3" d="M0.949 48.216C0.516 47.929 0.603 46.328 0.851 45.545C1.098 44.764 1.708 44.067 2.005 43.918C2.303 43.77 2.664 43.744 2.862 43.783C3.06 43.82 3.918 44.167 3.918 44.167"/>
 <path stroke-width="0.13" d="M2.786 48.884C2.484 48.774 2.327 47.792 2.464 47.023C2.601 46.253 3.036 45.173 3.843 44.341C4.65 43.509 5.394 42.765 5.333 42.231"/>
 <path stroke-width="0.13" d="M8.647 44.813C8.163 45.384 6.947 46.799 6.698 47.345C6.45 47.892 6.073 49.982 7.102 50.451"/>
 <path stroke-width="0.13" d="M7.642 45.173C7.059 45.905 6.016 47.073 5.953 48.189C5.892 49.307 6.128 49.817 6.176 49.878"/>
 <path stroke-width="0.3" d="M2.178 35.923C2.178 35.923 1.036 36.518 0.714 36.966C0.392 37.412 0.392 38.283 0.392 38.704C0.392 39.127 0.317 49.356 0.193 50.201C0.069 51.045 0.143 51.765 1.385 52.237C2.625 52.71 6.599 54.049 6.599 54.049"/>
 <path stroke-width="0.13" d="M0.963 37.24C1.086 37.71 1.782 37.984 2.825 38.232C3.867 38.481 4.488 38.604 4.91 38.853C5.333 39.101 5.432 39.152 5.456 39.45C5.482 39.747 7.618 40.319 7.618 40.319"/>
 <line stroke-width="0.13" x1="5.333" y1="42.231" x2="5.432" y2="39.673"/>
 <path stroke-width="0.13" d="M11.59 45.408C12.186 45.484 12.657 45.185 12.907 44.987C13.154 44.787 14.445 44.015 14.445 44.015"/>
 <path stroke-width="0.13" d="M15.191 44.838C15.215 48.015 14.521 50.871 13.378 52.188C12.236 53.503 11.49 54.125 11.167 54.274C10.846 54.423 10.522 54.149 10.596 53.329C10.672 52.511 11.317 45.905 11.317 45.905"/>
 <path stroke-width="0.13" d="M17.301 49.804C16.606 51.691 14.223 55.167 13.329 55.713C12.435 56.259 9.455 58.097 8.561 58.494C7.666 58.893 3.044 59.622 2.4 57.023"/>
 <g>
  <path stroke-width="0.13" d="M8.237 57.039C8.231 56.564 7.315 56.191 6.19 56.204C5.065 56.219 4.158 56.615 4.165 57.09"/>
  <path stroke-width="0.3" d="M4.165 57.09C4.171 57.566 5.086 57.939 6.211 57.926C7.336 57.911 8.243 57.515 8.237 57.039"/>
 </g>
 <path stroke="none" fill="#000000" d="M4.799 56.493C4.416 56.661 4.312 56.875 4.315 57.088L4.014 57.091C4.011 56.865 4.299 56.634 4.708 56.456L4.799 56.493z"/>
 <path stroke="none" fill="#000000" d="M8.086 57.042L8.387 57.037C8.384 56.783 8.076 56.582 7.679 56.418L7.588 56.459C7.931 56.598 8.085 56.822 8.086 57.042z"/>
 <g>
  <path stroke-width="0.13" d="M50.78 60.47C50.774 59.996 49.857 59.621 48.732 59.636C47.609 59.649 46.701 60.045 46.707 60.521"/>
  <path stroke-width="0.3" d="M46.707 60.521C46.713 60.996 47.63 61.371 48.755 61.356C49.878 61.343 50.786 60.947 50.78 60.47"/>
 </g>
 <path stroke="none" fill="#000000" d="M47.343 59.923C46.96 60.091 46.854 60.305 46.857 60.52L46.557 60.523C46.554 60.295 46.841 60.064 47.25 59.887L47.343 59.923z"/>
 <path stroke="none" fill="#000000" d="M50.63 60.472L50.929 60.469C50.926 60.213 50.619 60.012 50.222 59.85L50.131 59.89C50.473 60.03 50.628 60.253 50.63 60.472z"/>
 <g>
  <path stroke-width="0.13" d="M6.807 17.077C6.814 16.905 6.573 16.751 6.219 16.673"/>
  <path stroke-width="0.13" d="M5.333 16.667C5.014 16.734 4.831 16.867 4.825 17.013C4.817 17.245 5.256 17.446 5.802 17.464C6.351 17.481 6.801 17.309 6.807 17.077"/>
 </g>
 <g>
  <path stroke-width="0.3" d="M8.118 17.141C8.141 16.605 7.128 16.126 5.857 16.073C4.586 16.019 3.536 16.413 3.515 16.949"/>
  <path stroke-width="0.13" d="M3.515 16.949C3.499 17.327 3.996 17.676 4.748 17.873"/>
  <path stroke-width="0.13" d="M7.288 17.846C7.823 17.675 8.105 17.416 8.118 17.141"/>
 </g>
 <path stroke="none" fill="#000000" d="M3.665 16.955C3.653 17.207 3.825 17.468 4.206 17.647L4.113 17.682C3.677 17.477 3.352 17.23 3.365 16.943L3.665 16.955z"/>
 <path stroke="none" fill="#000000" d="M7.371 17.78L7.461 17.823C7.931 17.646 8.257 17.403 8.269 17.147L7.969 17.135C7.958 17.378 7.814 17.614 7.371 17.78z"/>
 <g>
  <path stroke-width="0.13" d="M2.524 27.664C2.524 27.675 2.524 27.684 2.524 27.693C2.52 28.376 3.827 28.936 5.442 28.945C7.057 28.954 8.371 28.408 8.375 27.725"/>
 </g>
 <path stroke-width="0.3" d="M3.605 16.698C2.748 17.461 2.875 18.26 2.811 19.443C2.748 20.626 2.524 27.693 2.524 27.693"/>
 <path stroke-width="0.3" d="M8.118 17.141C8.885 17.908 8.662 18.548 8.662 20.562C8.662 22.576 8.375 27.725 8.375 27.725"/>
 <g>
  <path stroke-width="0.3" d="M9.333 27.948C9.34 27.544 8.993 27.169 8.419 26.879"/>
  <path stroke-width="0.3" d="M2.551 26.843C1.998 27.129 1.726 27.475 1.724 27.821"/>
  <path stroke-width="0.13" d="M1.724 27.821C1.712 28.553 2.859 29.19 4.468 29.414"/>
  <path stroke-width="0.13" d="M7.246 29.343C8.554 29.082 9.314 28.536 9.333 27.948"/>
 </g>
 <path stroke="none" fill="#000000" d="M1.874 27.823C1.867 28.25 2.209 28.667 2.866 28.957L2.773 28.995C2.063 28.681 1.567 28.28 1.573 27.818L1.874 27.823z"/>
 <path stroke="none" fill="#000000" d="M8.154 29.047L8.246 29.086C9.006 28.78 9.477 28.368 9.484 27.951L9.183 27.946C9.176 28.35 8.89 28.75 8.154 29.047z"/>
 <g>
  <path stroke-width="0.3" d="M1.593 28.881C1.585 29.324 2.005 29.734 2.689 30.036"/>
  <path stroke-width="0.13" d="M2.689 30.036C4.163 30.689 6.573 30.73 8.07 30.126"/>
  <path stroke-width="0.3" d="M8.07 30.126C8.817 29.824 9.195 29.42 9.202 29.009"/>
 </g>
 <path stroke="none" fill="#000000" d="M2.796 29.993C3.504 30.306 4.437 30.51 5.371 30.524L5.371 30.579C4.359 30.562 3.349 30.419 2.581 30.079L2.796 29.993z"/>
 <path stroke="none" fill="#000000" d="M5.371 30.524L5.371 30.579C6.44 30.597 7.469 30.457 8.175 30.172L7.964 30.079C7.283 30.355 6.405 30.542 5.371 30.524z"/>
 <line stroke-width="0.3" x1="9.202" y1="29.009" x2="9.333" y2="27.949"/>
 <line stroke-width="0.3" x1="1.593" y1="28.881" x2="1.724" y2="27.821"/>
 <g>
  <path stroke-width="0.13" d="M2.253 37.085C2.251 37.093 2.251 37.1 2.251 37.109C2.248 37.79 3.555 38.351 5.171 38.36C6.206 38.366 7.117 38.143 7.645 37.798"/>
 </g>
 <line stroke-width="0.3" x1="2.251" y1="37.109" x2="2.452" y2="29.922"/>
 <line stroke-width="0.3" x1="8.144" y1="34.783" x2="8.339" y2="30.004"/>
 <g>
  <path stroke-width="0.13" d="M16.899 13.201C16.905 13.018 16.632 12.852 16.239 12.782"/>
  <path stroke-width="0.13" d="M15.381 12.798C15.086 12.869 14.922 12.997 14.916 13.137C14.909 13.368 15.346 13.57 15.894 13.587C16.44 13.605 16.89 13.432 16.899 13.201"/>
 </g>
 <g>
  <path stroke-width="0.3" d="M18.208 13.265C18.231 12.727 17.219 12.249 15.948 12.195C14.676 12.143 13.628 12.535 13.605 13.073"/>
  <path stroke-width="0.13" d="M13.605 13.073C13.589 13.451 14.086 13.8 14.839 13.994"/>
  <path stroke-width="0.13" d="M17.379 13.968C17.914 13.798 18.196 13.538 18.208 13.265"/>
 </g>
 <path stroke="none" fill="#000000" d="M13.755 13.079C13.744 13.33 13.914 13.589 14.298 13.771L14.204 13.806C13.768 13.599 13.444 13.352 13.455 13.066L13.755 13.079z"/>
 <path stroke="none" fill="#000000" d="M17.46 13.903L17.551 13.945C18.021 13.769 18.349 13.526 18.359 13.271L18.059 13.257C18.048 13.5 17.905 13.737 17.46 13.903z"/>
 <g>
  <path stroke-width="0.13" d="M12.615 23.788C12.615 23.798 12.614 23.806 12.614 23.815C12.611 24.495 13.907 25.054 15.516 25.068"/>
 </g>
 <path stroke-width="0.3" d="M13.695 12.82C12.837 13.583 12.965 14.384 12.901 15.567C12.837 16.75 12.614 23.815 12.614 23.815"/>
 <path stroke-width="0.3" d="M18.208 13.265C18.393 13.448 18.521 13.627 18.609 13.817"/>
 <g>
  <path stroke-width="0.3" d="M12.641 22.964C12.087 23.251 11.817 23.597 11.814 23.943"/>
  <path stroke-width="0.13" d="M11.814 23.943C11.803 24.675 12.951 25.312 14.558 25.536"/>
 </g>
 <path stroke="none" fill="#000000" d="M11.964 23.945C11.958 24.371 12.3 24.789 12.955 25.079L12.864 25.117C12.153 24.803 11.657 24.402 11.664 23.94L11.964 23.945z"/>
 <g>
  <path stroke-width="0.3" d="M11.683 25.004C11.676 25.448 12.096 25.856 12.779 26.158"/>
  <path stroke-width="0.13" d="M12.779 26.158C13.457 26.458 14.332 26.629 15.218 26.667"/>
 </g>
 <path stroke="none" fill="#000000" d="M12.887 26.115C13.538 26.403 14.371 26.603 15.224 26.64L15.214 26.695C14.292 26.655 13.377 26.513 12.673 26.202L12.887 26.115z"/>
 <line stroke-width="0.3" x1="11.683" y1="25.003" x2="11.814" y2="23.943"/>
 <line stroke-width="0.3" x1="12.378" y1="31.972" x2="12.544" y2="26.045"/>
 <path stroke-width="0.3" d="M12.442 29.681C11.602 30.277 10.532 30.19 10.688 32.076"/>
 <path stroke-width="0.3" d="M52.039 42.301C52.115 43.235 51.012 43.646 50.473 43.979C49.935 44.314 49.78 44.39 49.78 44.39C49.78 44.39 49.704 45.545 49.192 46.185C48.679 46.826 46.2 48.482 42.835 48.103"/>
 <line stroke-width="0.3" x1="41.215" y1="49.109" x2="44.395" y2="57.805"/>
 <path stroke-width="0.13" d="M44.395 57.805C44.753 58.241 45.036 58.497 45.317 58.548"/>
 <g>
  <path stroke-width="0.3" d="M44.24 57.386C44.235 57.371 48.935 58.575 50.473 59.191C52.012 59.805 52.783 60.036 52.706 61.601C52.628 63.165 52.834 66.192 52.192 66.655C51.551 67.117 50.551 67.706 48.472 67.527C46.396 67.346 43.779 66.578 43.343 66.269C42.906 65.962 38.496 63.115 37.802 62.704C37.109 62.293 34.161 61.191 32.929 60.857"/>
  <path stroke-width="0.13" d="M32.929 60.857C31.8 60.448 31.288 60.524 30.57 61.088"/>
 </g>
 <path stroke-width="0.13" d="M23.593 61.448C23.388 61.448 22.233 61.884 22.233 61.884C22.233 61.884 23.696 61.935 23.978 61.96C24.26 61.987 24.285 62.037 24.336 62.037C24.388 62.037 25.414 62.909 26.516 62.987C27.62 63.064 27.928 63.09 27.928 63.09C27.928 63.09 28.004 63.859 28.492 63.859C28.978 63.859 29.004 63.396 29.056 63.345C29.108 63.295 29.21 63.14 29.21 63.14C29.21 63.14 33.006 62.884 33.262 62.679C33.518 62.473 33.518 62.473 33.518 62.473C33.518 62.473 34.621 62.729 34.801 62.652C34.981 62.576 34.905 62.293 34.698 62.293C34.493 62.293 33.878 62.088 33.878 62.088C33.878 62.088 34.601 61.689 34.573 61.389"/>
 <line stroke-width="0.13" x1="33.878" y1="62.088" x2="33.878" y2="62.552"/>
 <line stroke-width="0.13" x1="23.725" y1="61.612" x2="23.725" y2="61.945"/>
 <path stroke-width="0.13" d="M31.596 49.725C31.518 53.189 31.236 56.78 36.93 58.856C42.625 60.935 46.42 61.857 47.755 62.192C49.088 62.524 52.322 61.963 52.32 61.063"/>
 <path stroke-width="0.13" d="M33.006 50.417C33.134 53.829 34.57 56.651 37.572 57.676C40.573 58.703 41.496 58.703 42.47 58.96"/>
 <line stroke-width="0.13" x1="30.599" y1="49.04" x2="30.338" y2="60.344"/>
 <g>
  <path stroke-width="0.3" d="M22.609 58.238C21.182 58.86 20.466 59.67 20.437 60.497"/>
  <path stroke-width="0.13" d="M20.437 60.497C20.362 62.459 24.062 64.191 28.702 64.37C32.406 64.51 35.588 63.618 36.779 62.229"/>
 </g>
 <path stroke="none" fill="#000000" d="M20.588 60.503C20.55 61.466 21.379 62.396 22.849 63.085L22.756 63.119C21.234 62.406 20.25 61.49 20.288 60.493L20.588 60.503z"/>
 <g>
  <path stroke-width="0.3" d="M20.414 63.439C20.376 64.42 21.283 65.343 22.778 66.043"/>
  <path stroke-width="0.13" d="M22.778 66.043C26.007 67.555 31.326 67.759 34.658 66.498"/>
  <path stroke-width="0.3" d="M34.658 66.498C36.326 65.867 37.18 64.99 37.215 64.081"/>
 </g>
 <path stroke="none" fill="#000000" d="M22.887 66.004C24.472 66.745 26.568 67.203 28.679 67.284L28.678 67.338C26.489 67.254 24.314 66.853 22.67 66.084L22.887 66.004z"/>
 <path stroke="none" fill="#000000" d="M28.679 67.284L28.678 67.338C31.015 67.427 33.207 67.135 34.762 66.546L34.554 66.45C33.021 67.028 30.981 67.371 28.679 67.284z"/>
 <line stroke-width="0.3" x1="37.215" y1="64.081" x2="37.228" y2="62.423"/>
 <line stroke-width="0.3" x1="20.414" y1="63.439" x2="20.437" y2="60.499"/>
 <g>
  <path stroke-width="0.3" d="M37.036 64.804C37.036 64.784 37.036 64.766 37.036 64.748"/>
  <path stroke-width="0.3" d="M20.649 64.343C20.649 64.356 20.647 64.37 20.647 64.382C20.599 66.295 24.228 67.939 28.753 68.055C33.277 68.173 36.987 66.716 37.036 64.804"/>
 </g>
 <line stroke-width="0.13" x1="16.873" y1="56.344" x2="17.077" y2="51.008"/>
 <path stroke-width="0.13" d="M19.489 48.853C21.027 50.085 23.951 51.161 24.926 51.726C25.9 52.29 26.824 52.137 26.978 51.674"/>
 <path stroke-width="0.13" d="M21.39 46.176C23.182 48.237 28.795 48.807 29.76 48.779"/>
 <path stroke-width="0.13" d="M49.622 28.653C49.622 28.653 51.328 29.243 51.851 29.343C52.377 29.44 53.359 29.277 54.277 28.489"/>
 <polyline stroke-width="0.3" points="52.966 27.801 62.081 30.62 63.393 29.998"/>
 <line stroke-width="0.3" x1="63.424" y1="29.605" x2="68.54" y2="26.653"/>
 <line stroke-width="0.13" x1="53.164" y1="26.556" x2="62.31" y2="29.506"/>
 <path stroke-width="0.13" d="M53.131 18.228C52.639 20.097 52.247 24.966 53.164 26.556"/>
 <path stroke-width="0.13" d="M53.131 18.228C53.262 17.474 56.573 15.539 57.326 15.015C58.081 14.49 59.162 13.965 59.162 13.965"/>
 <line stroke-width="0.3" x1="63.424" y1="29.605" x2="63.393" y2="29.998"/>
 <line stroke-width="0.13" x1="53.753" y1="18.522" x2="61.49" y2="20.753"/>
 <line stroke-width="0.3" x1="60.737" y1="13.769" x2="69.391" y2="16.457"/>
 <path stroke-width="0.13" d="M59.162 13.965C59.457 13.704 60.232 13.612 60.737 13.769"/>
 <path stroke-width="0.3" d="M69.391 16.457C70.507 16.949 70.671 17.736 70.671 18.981C70.671 20.228 70.605 23.376 70.278 24.228C69.95 25.079 69.487 26.106 68.54 26.653"/>
 <path stroke-width="0.13" d="M62.31 21.638C61.982 22.949 61.884 26.359 61.884 27.277C61.884 28.195 61.819 29.474 62.31 29.506C62.802 29.539 63.151 29.763 63.424 29.605"/>
 <path stroke-width="0.3" d="M63.13 28.949C62.835 28.916 62.31 28.818 62.442 26.85C62.573 24.884 62.737 22.653 62.901 22.163C63.064 21.67 63.557 20.884 64.212 20.522C64.867 20.163 68.93 17.417 68.93 17.417"/>
 <path stroke-width="0.13" d="M63.655 28.785C63.655 28.785 68.441 26.292 68.638 25.899C68.834 25.507 69.655 24.687 69.819 23.539C69.983 22.391 70.147 19.08 70.048 18.359C69.95 17.638 69.518 17.21 68.98 17.396"/>
 <path stroke-width="0.13" d="M62.426 27.038C63.851 26.271 65.825 25.176 65.95 24.926C66.147 24.533 66.965 23.713 67.129 22.565C67.248 21.731 67.368 19.754 67.387 18.458"/>
 <path stroke-width="0.13" d="M62.999 20.653C66.114 18.522 68.409 17.08 68.769 16.818C69.129 16.556 69.683 16.605 69.683 16.605"/>
 <line stroke-width="0.13" x1="26.978" y1="51.674" x2="27.19" y2="48.517"/>
 <line stroke-width="0.3" x1="26.082" y1="13.102" x2="26.082" y2="13.721"/>
 <line stroke-width="0.13" x1="28.132" y1="41.804" x2="30.449" y2="42.567"/>
 <line stroke-width="0.13" x1="29.713" y1="43.281" x2="33.198" y2="44.274"/>
 <line stroke-width="0.13" x1="24.923" y1="45.356" x2="33.142" y2="47.773"/>
 <text transform="matrix(0 -1 1 0 66.43 67.165)" stroke="none" fill="#000000" font-family="'Arial'" font-size="2.117">316 652</text>
</svg>
