<?xml version="1.0" encoding="utf-8"?>
<!DOCTYPE svg PUBLIC "-//W3C//DTD SVG 1.1//EN" "http://www.w3.org/Graphics/SVG/1.1/DTD/svg11.dtd">
<!-- Generator: PTC Arbortext IsoDraw 7.3 -->
<svg id="Standard_x0020_layer" width="100%" height="100%" viewBox="0 0 71.448 62.317"
 xmlns="http://www.w3.org/2000/svg" xmlns:xlink="http://www.w3.org/1999/xlink"
 fill-rule="evenodd" clip-rule="evenodd" stroke="#000000" stroke-linecap="round" fill="none" xml:space="preserve">
 <path stroke="none" fill="#B2B2B2" d="M33.453 52.698L34.768 53.905 37.5 53.383 43.774 45.911 44.387 41.113 44.42 39.284 33.453 52.698z"/>
 <path stroke="none" fill="#BFBFBF" d="M44.082 30.745L42.787 30.893 41.884 30.821 40.997 30.626 39.956 30.324 30.449 41.625 30.605 43.106 29.746 43.494 28.344 45.365 29.893 47.527 44.082 30.745z"/>
 <polyline stroke-width="0.3" points="4.653 51.988 4.653 56.509 31.696 60.951"/>
 <g>
  <polyline stroke-width="0.3" points="4.653 51.988 23.824 54.639"/>
  <polyline stroke-width="0.13" points="23.824 54.639 23.824 55.417 28.501 56.119 31.228 55.417"/>
 </g>
 <line stroke-width="0.3" x1="35.201" y1="56.119" x2="43.774" y2="45.911"/>
 <line stroke-width="0.3" x1="23.824" y1="54.639" x2="44.241" y2="30.714"/>
 <g>
  <polyline stroke-width="0.3" points="43.929 9.596 44.241 30.714"/>
  <polyline stroke-width="0.13" points="44.241 30.714 44.554 36.715"/>
 </g>
 <g>
  <path stroke-width="0.3" d="M44.554 36.715C44.241 39.052 44.71 42.17 43.774 45.911"/>
  <path stroke-width="0.13" d="M43.774 45.911C42.527 51.756 38.552 55.652 35.201 56.119C31.85 56.587 28.501 56.119 28.501 56.119"/>
 </g>
 <line stroke-width="0.3" x1="31.228" y1="55.417" x2="35.28" y2="55.496"/>
 <line stroke-width="0.3" x1="31.228" y1="55.417" x2="44.42" y2="39.284"/>
 <line stroke-width="0.13" x1="44.554" y1="36.715" x2="28.501" y2="56.119"/>
 <path stroke-width="0.3" d="M31.696 60.951C37.929 62.042 43.307 58.457 45.567 55.807C47.826 53.158 50.243 44.975 50.243 42.793C50.243 40.612 50.32 37.338 50.32 37.338"/>
 <path stroke-width="0.13" d="M34.034 61.152C39.314 60.122 44.631 56.976 46.268 50.197C47.905 43.417 47.749 39.987 47.749 39.987"/>
 <line stroke-width="0.13" x1="47.749" y1="39.987" x2="47.749" y2="9.986"/>
 <line stroke-width="0.13" x1="50.32" y1="37.338" x2="49.853" y2="9.673"/>
 <polyline stroke-width="0.3" points="52.814 39.676 55.073 37.338 55.152 34.689 54.216 33.832 53.826 9.394"/>
 <path stroke-width="0.3" d="M53.813 11.423C55.637 11.473 59.192 12.666 61.396 13.98C62.116 14.41 62.866 15.185 62.866 15.185C63.323 17.086 66.73 34.354 66.349 37.259C65.992 39.963 63.447 43.709 63.447 43.709L61.515 45.872"/>
 <path stroke-width="0.3" d="M53.878 9.016C55.978 9.073 60.091 10.397 62.63 11.912C63.945 12.695 64.843 13.593 65.123 14.345L65.123 14.345C65.158 14.435 65.185 14.525 65.206 14.614L65.206 14.614C65.683 16.6 69.134 34.555 68.736 37.573C68.313 40.793 66.198 44.185 65.266 45.286L63.283 47.506"/>
 <path stroke-width="0.3" d="M4.653 51.988C2.161 48.95 0.368 41.859 0.212 38.741C0.057 35.624 0.212 16.765 0.446 13.493C0.68 10.22 1.615 6.947 4.653 4.998C7.694 3.049 8.239 3.205 9.952 3.205C11.667 3.205 11.901 3.205 11.901 3.205C11.901 3.205 22.422 1.024 24.916 1.102C27.41 1.179 28.577 0.479 30.137 0.557C31.696 0.634 32.786 0.167 34.89 4.609"/>
 <path stroke-width="0.13" d="M44.241 30.714C42.683 31.027 41.981 30.949 39.956 30.324C37.929 29.701 36.761 31.181 36.215 31.728C35.67 32.273 27.486 43.728 26.786 44.975C26.085 46.222 26.24 48.17 26.24 49.729C26.24 51.287 26.19 51.868 26.19 51.868"/>
 <polyline stroke-width="0.3" points="39.956 30.324 30.449 41.625 30.605 43.106 29.746 43.494 28.344 45.365 29.893 47.527"/>
 <line stroke-width="0.13" x1="30.605" y1="43.106" x2="32.198" y2="44.826"/>
 <line stroke-width="0.13" x1="39.764" y1="30.553" x2="41.904" y2="32.896"/>
 <line stroke-width="0.3" x1="32.036" y1="54.429" x2="37.5" y2="53.383"/>
 <line stroke-width="0.3" x1="33.453" y1="52.698" x2="34.768" y2="53.905"/>
 <path stroke-width="0.13" d="M38.631 27.675C35.201 25.727 32.475 27.519 30.449 30.013C28.422 32.506 21.643 40.066 20.862 41.546C20.083 43.027 20.006 46.067 20.006 48.093C20.006 50.118 21.33 53.158 17.434 52.691C13.538 52.222 5.745 50.82 5.745 50.82"/>
 <path stroke-width="0.3" d="M20.083 9.596C20.474 7.57 19.928 4.764 23.356 4.764C26.786 4.764 31.149 4.609 33.722 5.075C36.253 5.536 43.167 5.317 47.47 8.955"/>
 <path stroke-width="0.3" d="M34.89 4.609C38.552 4.219 40.198 5.181 41.13 6.064"/>
 <path stroke-width="0.2" d="M34.89 4.609C34.77 4.601 33.341 4.557 33.341 4.557C33.341 4.557 32.962 4.155 32.381 4.176C31.8 4.2 28.586 3.953 28.586 3.953L28.385 3.173C28.385 3.173 25.06 2.859 23.498 2.95C21.936 3.039 20.707 3.463 20.239 3.53C19.771 3.597 19.771 4.601 19.771 4.601C19.771 4.601 19.146 4.445 19.146 5.048C19.146 5.65 18.655 5.851 19.1 6.298C19.548 6.743 19.548 6.743 19.548 6.743L19.637 7.881L20.274 8.019"/>
 <path stroke-width="0.13" d="M20.082 3.887C22.472 4.155 26.868 3.686 27.783 3.44"/>
 <path stroke-width="0.13" d="M28.586 3.953C27.716 3.953 27.292 4.522 27.315 4.74"/>
 <path stroke-width="0.3" d="M40.576 5.607C40.576 5.607 40.683 3.999 40.728 3.194C40.774 2.391 41.71 1.722 42.96 1.766C44.21 1.811 52.692 2.927 57.512 4.578C62.334 6.23 62.601 8.016 62.601 8.016"/>
 <path stroke-width="0.13" d="M42.424 3.105C43.273 3.686 43.183 4.266 47.067 5.115C50.951 5.963 53.713 7.625 53.942 8.329"/>
 <g>
  <polyline stroke-width="0.13" points="43.929 9.596 46.621 10.159 47.749 9.986 49.853 9.673"/>
  <polyline stroke-width="0.3" points="49.853 9.673 51.13 9.891 53.677 9.519"/>
 </g>
 <polyline stroke-width="0.3" points="53.826 9.394 52.021 9.253 52.029 9.743"/>
 <line stroke-width="0.3" x1="49.853" y1="9.673" x2="47.47" y2="8.955"/>
 <line stroke-width="0.3" x1="47.415" y1="8.909" x2="43.929" y2="9.596"/>
 <path stroke-width="0.3" d="M61.027 13.768C59.164 14.086 59.432 15.069 59.209 16.096C58.985 17.121 57.969 19.487 53.96 17.57"/>
 <line stroke-width="0.13" x1="61.439" y1="27.809" x2="61.396" y2="13.98"/>
 <polyline stroke-width="0.3" points="61.319 11.211 61.351 9.577 62.959 7.525 65.149 7.612"/>
 <line stroke-width="0.13" x1="65.278" y1="7.82" x2="68.048" y2="7.748"/>
 <g>
  <polyline stroke-width="0.3" points="65.149 7.612 65.146 6.365"/>
  <polyline stroke-width="0.13" points="65.146 6.365 68.091 7.033"/>
 </g>
 <polyline stroke-width="0.3" points="65.146 6.365 68.405 6.23 70.859 6.676 71.299 37.655"/>
 <line stroke-width="0.13" x1="70.859" y1="6.676" x2="68.091" y2="7.033"/>
 <line stroke-width="0.13" x1="68.048" y1="7.748" x2="68.359" y2="32.539"/>
 <line stroke-width="0.13" x1="64.03" y1="8.105" x2="64.03" y2="12.391"/>
 <g>
  <polyline stroke-width="0.13" points="54.1 26.478 59.476 26.05"/>
  <polyline stroke-width="0.2" points="59.476 26.05 62.066 28.37 62.601 34.085 63.673 38.326"/>
 </g>
 <line stroke-width="0.2" x1="66.162" y1="38.167" x2="50.268" y2="40.018"/>
 <line stroke-width="0.13" x1="51.13" y1="9.891" x2="51.442" y2="35.067"/>
 <polyline stroke-width="0.13" points="54.216 33.832 52.42 33.856 51.439 34.93 51.442 37.21 50.29 38.725"/>
 <line stroke-width="0.13" x1="55.073" y1="37.338" x2="51.57" y2="37.432"/>
 <line stroke-width="0.13" x1="62.334" y1="33.951" x2="55.152" y2="34.689"/>
 <line stroke-width="0.13" x1="63.673" y1="38.326" x2="65.459" y2="35.423"/>
 <polyline stroke-width="0.13" points="64.164 23.059 64.209 35.335 66.311 35.356"/>
 <line stroke-width="0.13" x1="64.209" y1="35.335" x2="62.88" y2="35.186"/>
 <line stroke-width="0.13" x1="62.066" y1="28.37" x2="54.145" y2="29.263"/>
 <line stroke-width="0.13" x1="65.376" y1="8.087" x2="65.376" y2="14.641"/>
 <g>
  <path stroke-width="0.13" d="M66.396 10.345C66.778 10.461 67.197 10.196 67.331 9.753C67.465 9.311 67.263 8.859 66.881 8.743C66.498 8.627 66.078 8.891 65.944 9.333C65.811 9.775 66.013 10.228 66.396 10.345"/>
 </g>
 <g>
  <path stroke-width="0.13" d="M66.686 15.198C67.069 15.314 67.489 15.051 67.623 14.609C67.757 14.166 67.555 13.712 67.173 13.596C66.789 13.48 66.37 13.746 66.236 14.188C66.102 14.63 66.304 15.083 66.686 15.198"/>
 </g>
 <g>
  <path stroke-width="0.13" d="M52.246 12.287C52.628 12.403 53.048 12.137 53.182 11.695C53.317 11.253 53.115 10.801 52.731 10.685C52.347 10.568 51.929 10.833 51.795 11.275C51.661 11.718 51.862 12.17 52.246 12.287"/>
 </g>
 <g>
  <path stroke-width="0.13" d="M52.536 17.14C52.92 17.257 53.34 16.992 53.473 16.55C53.607 16.108 53.405 15.654 53.023 15.538C52.64 15.423 52.219 15.686 52.085 16.129C51.951 16.571 52.154 17.024 52.536 17.14"/>
 </g>
 <path stroke-width="0.3" d="M53.878 9.016C51.143 8.836 47.371 8.807 46.75 8.397"/>
 <path stroke-width="0.13" d="M9.406 4.11C10.935 6.065 11.712 7.796 12.64 8.673C13.567 9.55 17.378 9.9 18.23 10.002C19.082 10.102 20.028 9.929 20.083 9.596"/>
 <path stroke-width="0.3" d="M10.512 3.205C11.436 1.353 12.865 0.626 13.391 0.451C13.919 0.275 15.221 0.15 15.221 0.15C15.221 0.15 16.475 0.777 16.475 0.877C16.475 0.977 17.292 1.058 17.452 1.579C17.612 2.099 17.568 2.108 17.568 2.108"/>
 <path stroke-width="0.13" d="M16.955 1.094C15.497 1.076 12.468 1.6 11.337 3.205"/>
 <line stroke-width="0.13" x1="13.644" y1="0.382" x2="14.609" y2="1.383"/>
 <path stroke-width="0.13" d="M33.258 13.788C32.648 12.35 32.996 10.609 34.564 11.742C36.131 12.874 41.53 21.669 41.53 21.669"/>
 <path stroke-width="0.13" d="M26.814 12.525C26.204 11.089 26.553 9.346 28.12 10.478C29.687 11.611 36.609 22.757 36.609 22.757"/>
 <path stroke-width="0.13" d="M23.243 14.919C22.634 13.483 22.983 11.742 24.55 12.874C26.117 14.006 31.908 23.41 31.908 23.41"/>
 <path stroke-width="0.13" d="M18.89 16.574C18.28 15.137 18.629 13.396 20.196 14.528C21.763 15.66 28.859 26.893 28.859 26.893"/>
 <path stroke-width="0.13" d="M12.881 15.529C12.272 14.092 12.619 12.35 14.188 13.483C15.755 14.615 25.856 30.855 25.856 30.855"/>
 <path stroke-width="0.13" d="M5.306 12.439C4.695 11.002 5.044 9.259 6.612 10.391C8.179 11.524 22.807 33.859 22.807 33.859"/>
 <path stroke-width="0.13" d="M3.084 17.097C2.476 15.66 2.823 13.919 4.391 15.051C5.958 16.182 19.498 36.863 19.498 36.863"/>
 <path stroke-width="0.13" d="M2.389 23.888C1.778 22.452 2.126 20.71 3.694 21.843C5.262 22.975 17.41 41.871 17.41 41.871"/>
 <path stroke-width="0.13" d="M2.344 31.682C1.736 30.245 2.084 28.504 3.65 29.635C5.219 30.768 14.666 46.006 14.666 46.006"/>
 <path stroke-width="0.13" d="M2.78 40.042C2.17 38.604 2.519 36.863 4.086 37.996C5.653 39.128 8.962 45.31 8.962 45.31"/>
 <path stroke-width="0.2" d="M22.894 23.628C22.983 23.018 24.071 22.408 24.897 22.888C25.725 23.367 26.987 24.76 26.814 25.5C26.64 26.239 26.553 27.111 25.507 27.068C24.463 27.024 23.984 27.155 23.678 26.022"/>
 <path stroke-width="0.3" d="M71.299 37.655C71.299 44.966 68.15 51.475 65.162 54.25C62.173 57.024 58.811 58.039 56.198 58.198"/>
 <path stroke-width="0.13" d="M68.524 40.429C68.683 45.765 65.215 51.262 63.454 53.396C61.694 55.53 58.759 57.451 56.784 57.558"/>
 <polyline stroke-width="0.3" points="42.177 58.673 50.701 57.558 52.463 57.878"/>
 <polyline stroke-width="0.2" points="47.606 52.81 50.487 56.704 51.448 56.865"/>
 <polyline stroke-width="0.2" points="54.003 47.32 57.798 53.45 57.265 53.982"/>
 <path stroke-width="0.2" d="M61.515 45.872C61.054 46.46 61.618 47.86 63.283 47.506"/>
 <path stroke-width="0.2" d="M62.548 44.591L60.893 44.432L59.238 45.819L59.292 47.686C59.292 47.686 57.905 50.088 56.037 50.567"/>
 <path stroke-width="0.13" d="M65.266 45.286L66.176 46.993L64.948 48.701L63.722 48.646C63.722 48.646 63.134 48.326 62.707 49.82C62.28 51.314 59.238 54.25 58.598 54.837C57.959 55.423 57.692 54.996 57.692 54.996"/>
 <path stroke-width="0.2" d="M57.069 52.256C57.265 52.115 58.706 50.994 59.506 50.142C60.307 49.287 60.893 48.326 60.893 48.326C60.893 48.326 61.694 47.899 61.694 49.021C61.694 50.142 61.853 50.247 61.106 51.262C60.359 52.276 57.692 54.57 57.692 54.57"/>
 <g>
  <polyline stroke-width="0.13" points="53.155 58.021 54.768 58.168"/>
  <polyline stroke-width="0.2" points="54.768 58.168 57.012 56.823 57.64 55.329"/>
  <polyline stroke-width="0.13" points="57.64 55.329 56.027 55.18 53.783 56.527 53.155 58.021"/>
 </g>
 <polyline stroke-width="0.13" points="56.932 54.45 55.32 54.301 53.076 55.646 52.448 57.14"/>
 <line stroke-width="0.2" x1="56.932" y1="54.45" x2="57.64" y2="55.329"/>
 <line stroke-width="0.2" x1="52.448" y1="57.14" x2="53.155" y2="58.021"/>
 <g>
  <path stroke-width="0.13" d="M56.518 56.02C56.365 55.758 55.74 55.838 55.121 56.201C54.502 56.563 54.124 57.069 54.277 57.331C54.429 57.591 55.055 57.511 55.674 57.149C56.293 56.786 56.671 56.28 56.518 56.02"/>
 </g>
 <g>
  <path stroke-width="0.13" d="M57.399 54.087C57.036 53.414 55.453 53.564 53.862 54.421C52.271 55.28 51.274 56.52 51.637 57.192"/>
  <path stroke-width="0.2" d="M51.637 57.192C51.807 57.508 52.244 57.642 52.823 57.607"/>
  <path stroke-width="0.2" d="M57.325 54.936C57.5 54.585 57.515 54.295 57.399 54.087"/>
 </g>
 <path stroke="none" fill="#000000" d="M52.067 55.871C51.64 56.402 51.561 56.84 51.725 57.145L51.548 57.24C51.378 56.921 51.524 56.432 51.966 55.881L52.067 55.871z"/>
 <path stroke="none" fill="#000000" d="M57.31 54.134L57.487 54.039C57.301 53.692 56.781 53.579 56.122 53.642L56.06 53.719C56.68 53.661 57.136 53.808 57.31 54.134z"/>
 <line stroke-width="0.13" x1="51.292" y1="56.329" x2="48.17" y2="52.103"/>
 <line stroke-width="0.13" x1="52.621" y1="54.914" x2="49.463" y2="50.689"/>
 <line stroke-width="0.13" x1="53.103" y1="54.484" x2="49.963" y2="50.222"/>
 <polyline stroke-width="0.13" points="56.091 53.68 56.347 53.018 53.103 48.1"/>
 <line stroke-width="0.13" x1="55.432" y1="53.466" x2="52.569" y2="49.049"/>
 <path stroke-width="0.2" d="M52.948 43.701C52.982 46.014 53.259 47.67 50.533 49.084"/>
 <path stroke-width="0.2" d="M51.015 44.012C51.015 46.116 50.42 46.82 49.406 47.003"/>
 <path stroke-width="0.13" d="M50.533 49.084C49.981 49.222 48.997 49.228 48.988 48.396"/>
 <polyline stroke-width="0.2" points="50.533 49.084 50.463 49.74 49.084 50.981 48.124 50.881"/>
 <g>
  <path stroke-width="0.13" d="M55.274 41.768C55.378 41.439 55.25 40.996 54.972 40.631C54.573 40.106 53.975 39.89 53.637 40.148C53.301 40.405 53.353 41.039 53.753 41.563C53.859 41.701 53.978 41.817 54.097 41.905"/>
 </g>
 <g>
  <path stroke-width="0.13" d="M57.783 41.475C57.835 41.155 57.703 40.765 57.457 40.441C57.057 39.917 56.459 39.701 56.122 39.957C55.786 40.216 55.837 40.848 56.237 41.372C56.311 41.47 56.395 41.558 56.473 41.628"/>
 </g>
 <g>
  <path stroke-width="0.13" d="M60.097 41.207C60.142 40.889 60.009 40.508 59.768 40.191C59.368 39.667 58.771 39.451 58.433 39.707C58.097 39.965 58.149 40.598 58.548 41.122C58.618 41.213 58.694 41.295 58.767 41.36"/>
 </g>
 <g>
  <path stroke-width="0.13" d="M62.354 40.944C62.445 40.615 62.316 40.185 62.045 39.829C61.646 39.304 61.048 39.088 60.712 39.345C60.375 39.603 60.426 40.235 60.826 40.759C60.924 40.89 61.036 41 61.146 41.085"/>
 </g>
 <g>
  <path stroke-width="0.13" d="M64.852 40.654C64.98 40.325 64.855 39.859 64.564 39.475C64.165 38.951 63.567 38.734 63.229 38.991C62.893 39.249 62.945 39.883 63.344 40.406C63.463 40.561 63.6 40.691 63.735 40.783"/>
 </g>
 <line stroke-width="0.13" x1="65.215" y1="40.61" x2="64.852" y2="40.652"/>
 <line stroke-width="0.13" x1="63.735" y1="40.783" x2="62.365" y2="40.942"/>
 <line stroke-width="0.13" x1="61.168" y1="41.082" x2="60.097" y2="41.207"/>
 <line stroke-width="0.13" x1="58.767" y1="41.362" x2="57.792" y2="41.475"/>
 <line stroke-width="0.13" x1="56.485" y1="41.627" x2="55.302" y2="41.765"/>
 <line stroke-width="0.13" x1="54.097" y1="41.905" x2="50.28" y2="42.35"/>
 <line stroke-width="0.2" x1="64.313" y1="42.307" x2="63.753" y2="42.372"/>
 <line stroke-width="0.2" x1="62.636" y1="42.503" x2="61.265" y2="42.662"/>
 <line stroke-width="0.2" x1="60.069" y1="42.801" x2="58.997" y2="42.926"/>
 <line stroke-width="0.2" x1="57.667" y1="43.082" x2="56.692" y2="43.195"/>
 <line stroke-width="0.2" x1="55.386" y1="43.347" x2="54.204" y2="43.484"/>
 <line stroke-width="0.2" x1="52.996" y1="43.625" x2="50.207" y2="43.95"/>
 <line stroke-width="0.2" x1="54.097" y1="41.905" x2="52.948" y2="43.701"/>
 <line stroke-width="0.13" x1="64.852" y1="40.652" x2="63.704" y2="42.45"/>
 <line stroke-width="0.13" x1="55.302" y1="41.765" x2="54.155" y2="43.561"/>
 <line stroke-width="0.2" x1="56.485" y1="41.627" x2="55.337" y2="43.423"/>
 <line stroke-width="0.13" x1="57.792" y1="41.475" x2="56.643" y2="43.271"/>
 <line stroke-width="0.2" x1="58.767" y1="41.362" x2="57.618" y2="43.158"/>
 <line stroke-width="0.13" x1="60.097" y1="41.207" x2="58.948" y2="43.003"/>
 <line stroke-width="0.2" x1="61.168" y1="41.082" x2="60.02" y2="42.878"/>
 <line stroke-width="0.13" x1="62.365" y1="40.942" x2="61.216" y2="42.738"/>
 <line stroke-width="0.2" x1="63.735" y1="40.783" x2="62.587" y2="42.579"/>
 <g>
  <path stroke-width="0.2" d="M54.155 43.561C54.264 43.213 54.115 42.738 53.804 42.362"/>
  <path stroke-width="0.2" d="M52.959 43.683C52.965 43.689 52.97 43.694 52.976 43.698"/>
 </g>
 <g>
  <path stroke-width="0.2" d="M56.662 43.268C56.719 42.92 56.558 42.49 56.271 42.152"/>
 </g>
 <g>
  <path stroke-width="0.2" d="M58.978 43C59.03 42.615 58.826 42.14 58.487 41.798"/>
 </g>
 <g>
  <path stroke-width="0.2" d="M61.234 42.735C61.332 42.386 61.176 41.918 60.868 41.551"/>
  <path stroke-width="0.2" d="M59.951 42.816C59.976 42.838 60.003 42.859 60.026 42.878"/>
 </g>
 <g>
  <path stroke-width="0.2" d="M63.731 42.445C63.86 42.113 63.731 41.64 63.433 41.255"/>
 </g>
 <path stroke-width="0.2" d="M54.518 43.698C54.893 44.561 54.555 45.009 54.18 45.384C53.805 45.759 53.805 45.759 53.805 45.759L55.006 45.835C55.006 45.835 55.942 46.284 55.417 46.847C54.893 47.409 54.293 47.371 54.293 47.371C54.293 47.371 53.259 47.203 52.981 47.072"/>
 <g>
  <path stroke-width="0.13" d="M52.473 31.449C52.856 31.565 53.277 31.3 53.411 30.859C53.545 30.416 53.343 29.963 52.96 29.847C52.576 29.731 52.156 29.995 52.023 30.437C51.889 30.879 52.091 31.332 52.473 31.449"/>
 </g>
 <path stroke-width="0.13" d="M23.379 5.876C28.789 6.613 37.783 7.766 41.081 12.727"/>
 <path stroke-width="0.3" d="M56.198 58.198L54.768 58.168C54.768 58.168 53.262 58.03 53.246 58.029C53.231 58.027 52.554 57.877 52.554 57.877"/>
 <text transform="matrix(0 -1 1 0 68.745 62.317)" stroke="none" fill="#000000" font-family="'Arial'" font-size="2.117">316 880</text>
</svg>
