<?xml version="1.0" encoding="utf-8"?>
<!DOCTYPE svg PUBLIC "-//W3C//DTD SVG 1.1//EN" "http://www.w3.org/Graphics/SVG/1.1/DTD/svg11.dtd">
<!-- Generator: PTC Arbortext IsoDraw 7.3 -->
<svg id="Standard_x0020_layer" width="100%" height="100%" viewBox="0 0 73.233 58.658"
 xmlns="http://www.w3.org/2000/svg" xmlns:xlink="http://www.w3.org/1999/xlink"
 fill-rule="evenodd" clip-rule="evenodd" stroke="#000000" stroke-linecap="round" fill="none" xml:space="preserve">
 <path stroke="none" fill="#BFBFBF" d="M35.106 35.951C35.121 35.911 35.262 35.146 35.274 35.158 35.286 35.168 35.619 35.121 35.619 35.121L35.822 34.183 36.582 33.482 37.487 33.198C37.487 33.198 38.472 33.276 38.494 33.283 38.518 33.289 39.014 33.524 39.014 33.524L39.466 33.972 40.012 33.744 41.601 32.832 41.84 31.254 41.747 30.73 42.238 29.716 41.534 27.821 40.145 26.42 37.411 25.582 35.189 25.615 32.963 26.852 31.763 28.022 31.068 29.37 30.899 30.611 31.196 31.893 31.829 32.871C31.829 32.871 32.131 34.307 32.24 34.216 32.35 34.122 33.154 35.046 33.154 35.046 33.154 35.046 33.863 35.512 33.883 35.521L35.106 35.951z"/>
 <g>
  <path stroke-width="0.2" d="M60.463 18.783C56.695 7.734 42.909 2.192 29.292 6.108C15.256 10.162 6.567 22.768 9.887 34.265C13.207 45.762 27.277 51.798 41.313 47.746C54.27 44.006 62.668 32.976 61.256 22.152"/>
 </g>
 <g>
  <path stroke-width="0.3" d="M58.871 19.896C55.456 10.108 43.576 4.74 31.381 7.121C18.027 9.766 8.958 20.777 11.124 31.716"/>
  <path stroke-width="0.13" d="M11.124 31.716C11.634 34.296 12.725 36.643 14.185 38.564"/>
  <path stroke-width="0.13" d="M58.536 31.887C59.698 28.928 60.036 25.958 59.667 23.282"/>
 </g>
 <path stroke="none" fill="#000000" d="M11.271 31.687C11.778 34.252 12.789 36.624 14.24 38.533L14.13 38.594C12.66 36.661 11.49 34.341 10.977 31.745L11.271 31.687z"/>
 <g>
  <path stroke-width="0.3" d="M17.69 34.11C19.056 39.637 23.82 43.597 29.928 44.994"/>
  <path stroke-width="0.3" d="M32.731 45.424C34.884 45.61 37.024 45.479 38.942 45.1"/>
  <path stroke-width="0.3" d="M42.213 44.234C44.161 43.564 45.942 42.671 47.405 41.68"/>
  <path stroke-width="0.3" d="M49.704 39.915C54.106 36.021 56.024 30.983 55.424 26.269"/>
  <path stroke-width="0.13" d="M54.557 23.015C54.345 22.503 54.104 22.009 53.868 21.594"/>
  <path stroke-width="0.13" d="M17.309 30.876C17.3 32.033 17.44 33.149 17.69 34.11"/>
 </g>
 <path stroke="none" fill="#000000" d="M17.373 30.873C17.365 32.024 17.586 33.115 17.835 34.075L17.544 34.146C17.294 33.18 17.236 32.04 17.245 30.882L17.373 30.873z"/>
 <g>
  <path stroke-width="0.2" d="M48.496 26.879C47.659 25.17 46.265 23.804 44.582 22.875"/>
  <path stroke-width="0.2" d="M41.527 21.673C39.576 21.184 37.542 21.121 35.655 21.414"/>
  <path stroke-width="0.2" d="M32.008 22.403C30.085 23.181 28.46 24.271 27.248 25.503"/>
  <path stroke-width="0.13" d="M25.155 28.35C23.088 32.418 24.329 36.686 27.934 39.267"/>
  <path stroke-width="0.13" d="M30.068 40.444C33.661 41.959 37.95 41.786 41.625 40.265"/>
  <path stroke-width="0.13" d="M44.124 38.938C47.179 36.915 48.942 34.1 49.258 31.265"/>
 </g>
 <g>
  <path stroke-width="0.3" d="M45.396 29.196C44.497 25.522 40.033 23.407 35.356 24.411C30.599 25.434 27.396 29.303 28.204 33.052"/>
  <path stroke-width="0.13" d="M28.204 33.052C28.826 35.942 31.649 37.915 35.151 38.204"/>
  <path stroke-width="0.13" d="M41.75 36.585C42.966 35.823 43.905 34.88 44.518 33.892"/>
 </g>
 <path stroke="none" fill="#000000" d="M28.35 33.021C28.748 34.863 30.006 36.386 31.798 37.264L31.722 37.353C29.868 36.445 28.468 34.99 28.057 33.085L28.35 33.021z"/>
 <path stroke-width="0.2" d="M30.528 39.695C30.528 39.695 30.528 39.695 30.358 40.067C30.185 40.439 30.126 40.468 29.643 40.552C29.161 40.637 28.986 40.323 28.3 39.981C27.614 39.639 28.07 39.362 27.957 38.552"/>
 <path stroke-width="0.2" d="M41.098 39.353C41.527 40.095 41.642 40.581 42.127 40.381C42.612 40.182 43.908 39.593 44.012 39.267C44.118 38.941 44.213 38.924 44.012 38.496C43.813 38.067 43.726 37.981 43.726 37.981"/>
 <path stroke-width="0.2" d="M36.326 21.329C36.442 22.297 36.67 22.126 37.042 22.155C37.414 22.184 38.298 22.24 38.784 22.213C39.271 22.184 39.613 22.269 39.642 21.926C39.67 21.583 39.631 21.653 39.67 21.498"/>
 <path stroke-width="0.3" d="M31.214 20.498C31.214 20.583 32.015 22.24 32.072 22.64C32.128 23.041 33.329 23.44 34.128 23.24C34.927 23.041 35.328 22.097 35.527 21.87C35.728 21.64 35.728 21.64 35.728 21.64C35.728 21.64 35.213 20.07 35.213 20.041"/>
 <path stroke-width="0.13" d="M31.214 20.498L32.442 18.984C32.442 18.984 32.615 18.899 33.128 18.841C33.643 18.783 34.643 19.042 34.7 19.042C34.756 19.042 35.115 19.722 35.213 20.041"/>
 <path stroke-width="0.13" d="M31.666 21.553C32.185 21.184 32.529 20.64 32.786 20.356C33.042 20.07 33.042 20.07 33.042 20.07C33.042 20.07 33.899 20.498 34.329 20.498C34.756 20.498 35.335 20.439 35.274 20.239"/>
 <g>
  <path stroke-width="0.13" d="M35.728 19.327C35.473 18.245 34.154 17.631 32.781 17.954C31.408 18.277 30.503 19.417 30.757 20.498C30.783 20.605 30.818 20.707 30.859 20.792"/>
  <path stroke-width="0.13" d="M35.741 19.388C35.737 19.367 35.732 19.346 35.728 19.327"/>
 </g>
 <g>
  <path stroke-width="0.13" d="M35.843 19.684C35.588 18.603 34.268 17.987 32.896 18.31C31.522 18.635 30.617 19.774 30.871 20.855"/>
  <path stroke-width="0.3" d="M30.871 20.855C30.995 21.378 31.365 21.791 31.87 22.042"/>
  <path stroke-width="0.3" d="M35.548 21.092C35.86 20.629 35.948 20.131 35.843 19.684"/>
 </g>
 <path stroke="none" fill="#000000" d="M31.327 19.324C30.94 19.807 30.902 20.332 31.018 20.821L30.725 20.89C30.605 20.376 30.815 19.783 31.221 19.274L31.327 19.324z"/>
 <path stroke="none" fill="#000000" d="M35.697 19.719L35.988 19.649C35.853 19.077 35.39 18.687 34.825 18.425L34.752 18.516C35.253 18.751 35.576 19.21 35.697 19.719z"/>
 <path stroke-width="0.3" d="M22.588 25.393C22.582 25.478 23.265 27.187 23.295 27.591C23.324 27.993 24.492 28.477 25.304 28.332C26.117 28.189 26.582 27.277 26.797 27.062C27.012 26.849 27.012 26.849 27.012 26.849C27.012 26.849 26.609 25.245 26.611 25.216"/>
 <g>
  <path stroke-width="0.13" d="M22.588 25.393L23.92 23.969C23.92 23.969 24.097 23.896 24.614 23.875C25.131 23.853 26.111 24.179 26.167 24.184"/>
  <path stroke-width="0.3" d="M26.167 24.184C26.225 24.187 26.611 25.216 26.611 25.216"/>
 </g>
 <path stroke-width="0.13" d="M22.966 26.478C23.51 26.146 23.89 25.628 24.167 25.361C24.443 25.094 24.443 25.094 24.443 25.094C24.443 25.094 25.268 25.58 25.696 25.611C26.123 25.64 26.704 25.621 26.657 25.42"/>
 <g>
  <path stroke-width="0.13" d="M27.173 24.539C26.995 23.443 25.722 22.737 24.329 22.964C22.937 23.192 21.954 24.265 22.134 25.361C22.15 25.469 22.178 25.574 22.213 25.664"/>
  <path stroke-width="0.13" d="M27.182 24.603C27.179 24.58 27.176 24.559 27.173 24.539"/>
 </g>
 <g>
  <path stroke-width="0.13" d="M27.263 24.903C27.083 23.807 25.811 23.102 24.419 23.329C23.027 23.556 22.044 24.629 22.222 25.725"/>
  <path stroke-width="0.3" d="M22.222 25.725C22.309 26.256 22.65 26.695 23.137 26.98"/>
  <path stroke-width="0.3" d="M26.871 26.289C27.216 25.847 27.338 25.356 27.263 24.903"/>
 </g>
 <path stroke="none" fill="#000000" d="M22.783 24.23C22.364 24.686 22.289 25.207 22.37 25.701L22.074 25.751C21.989 25.228 22.24 24.652 22.679 24.172L22.783 24.23z"/>
 <path stroke="none" fill="#000000" d="M27.114 24.928L27.411 24.879C27.315 24.3 26.879 23.879 26.335 23.576L26.256 23.664C26.74 23.931 27.03 24.411 27.114 24.928z"/>
 <path stroke-width="0.3" d="M22.478 39.619C22.472 39.695 23.085 41.228 23.111 41.588C23.137 41.951 24.184 42.383 24.913 42.255C25.64 42.125 26.056 41.307 26.251 41.115C26.443 40.923 26.443 40.923 26.443 40.923C26.443 40.923 26.082 39.487 26.083 39.46"/>
 <g>
  <path stroke-width="0.13" d="M22.478 39.619L23.672 38.341C23.672 38.341 23.829 38.277 24.294 38.258C24.757 38.238 25.635 38.53 25.687 38.534"/>
  <path stroke-width="0.3" d="M25.687 38.534C25.737 38.537 26.015 39.17 26.083 39.46"/>
 </g>
 <path stroke-width="0.13" d="M22.815 40.591C23.303 40.293 23.644 39.829 23.893 39.59C24.14 39.35 24.14 39.35 24.14 39.35C24.14 39.35 24.879 39.787 25.263 39.814C25.646 39.841 26.167 39.823 26.125 39.643"/>
 <g>
  <path stroke-width="0.13" d="M26.588 38.853C26.428 37.871 25.286 37.238 24.039 37.442C22.791 37.646 21.908 38.607 22.07 39.591C22.085 39.688 22.111 39.781 22.141 39.862"/>
  <path stroke-width="0.13" d="M26.596 38.909C26.594 38.89 26.591 38.871 26.588 38.853"/>
 </g>
 <g>
  <path stroke-width="0.13" d="M26.667 39.18C26.507 38.198 25.365 37.564 24.118 37.768C22.87 37.972 21.989 38.935 22.149 39.917"/>
  <path stroke-width="0.3" d="M22.149 39.917C22.227 40.393 22.533 40.786 22.969 41.042"/>
  <path stroke-width="0.3" d="M26.318 40.421C26.626 40.027 26.736 39.585 26.667 39.18"/>
 </g>
 <path stroke="none" fill="#000000" d="M22.657 38.579C22.283 38.987 22.225 39.451 22.297 39.893L22.001 39.942C21.925 39.472 22.16 38.954 22.554 38.523L22.657 38.579z"/>
 <path stroke="none" fill="#000000" d="M26.519 39.204L26.815 39.156C26.731 38.633 26.332 38.259 25.841 37.987L25.762 38.073C26.193 38.311 26.445 38.746 26.519 39.204z"/>
 <path stroke-width="0.3" d="M19.292 32.533C19.286 32.615 19.943 34.264 19.972 34.652C20 35.042 21.128 35.506 21.911 35.368C22.693 35.229 23.141 34.35 23.35 34.143C23.557 33.936 23.557 33.936 23.557 33.936C23.557 33.936 23.169 32.39 23.17 32.362"/>
 <g>
  <path stroke-width="0.13" d="M19.292 32.533L20.576 31.158C20.576 31.158 20.745 31.088 21.245 31.068C21.742 31.047 22.687 31.361 22.742 31.365"/>
  <path stroke-width="0.3" d="M22.742 31.365C22.798 31.37 23.097 32.048 23.17 32.362"/>
 </g>
 <path stroke-width="0.13" d="M19.655 33.579C20.179 33.259 20.547 32.759 20.812 32.502C21.079 32.243 21.079 32.243 21.079 32.243C21.079 32.243 21.876 32.713 22.288 32.743C22.699 32.771 23.26 32.753 23.214 32.557"/>
 <g>
  <path stroke-width="0.13" d="M23.713 31.71C23.541 30.652 22.312 29.972 20.969 30.19C19.628 30.41 18.678 31.445 18.852 32.503C18.868 32.606 18.896 32.707 18.928 32.793"/>
  <path stroke-width="0.13" d="M23.722 31.771C23.719 31.748 23.716 31.728 23.713 31.71"/>
 </g>
 <g>
  <path stroke-width="0.13" d="M23.8 32.06C23.626 31.003 22.399 30.323 21.056 30.542C19.713 30.76 18.765 31.795 18.937 32.853"/>
  <path stroke-width="0.3" d="M18.937 32.853C19.021 33.365 19.35 33.787 19.82 34.064"/>
  <path stroke-width="0.3" d="M23.422 33.396C23.754 32.972 23.871 32.497 23.8 32.06"/>
 </g>
 <path stroke="none" fill="#000000" d="M19.48 31.411C19.077 31.852 19.007 32.353 19.085 32.829L18.789 32.878C18.707 32.375 18.952 31.818 19.378 31.355L19.48 31.411z"/>
 <path stroke="none" fill="#000000" d="M23.65 32.085L23.948 32.036C23.856 31.475 23.432 31.071 22.905 30.78L22.826 30.865C23.292 31.123 23.57 31.588 23.65 32.085z"/>
 <path stroke-width="0.3" d="M38.351 43.335C38.345 43.411 38.957 44.944 38.984 45.304C39.009 45.665 40.057 46.098 40.786 45.969C41.514 45.841 41.929 45.023 42.124 44.831C42.317 44.639 42.317 44.639 42.317 44.639C42.317 44.639 41.954 43.201 41.957 43.176"/>
 <path stroke-width="0.13" d="M38.351 43.335L39.545 42.057C39.545 42.057 39.703 41.991 40.167 41.972C40.63 41.954 41.508 42.246 41.56 42.25C41.61 42.253 41.889 42.884 41.957 43.176"/>
 <path stroke-width="0.13" d="M38.689 44.307C39.176 44.009 39.518 43.545 39.765 43.305C40.012 43.066 40.012 43.066 40.012 43.066C40.012 43.066 40.753 43.503 41.136 43.53C41.518 43.557 42.039 43.539 41.997 43.357"/>
 <g>
  <path stroke-width="0.13" d="M42.46 42.57C42.301 41.587 41.158 40.954 39.911 41.158C38.664 41.362 37.781 42.323 37.942 43.307C37.959 43.404 37.984 43.497 38.015 43.578"/>
  <path stroke-width="0.13" d="M42.469 42.625C42.466 42.606 42.463 42.587 42.46 42.57"/>
 </g>
 <g>
  <path stroke-width="0.13" d="M42.54 42.896C42.381 41.912 41.238 41.28 39.991 41.484C38.743 41.688 37.862 42.649 38.023 43.633"/>
  <path stroke-width="0.3" d="M38.023 43.633C38.1 44.107 38.406 44.5 38.841 44.756"/>
  <path stroke-width="0.3" d="M42.191 44.137C42.499 43.741 42.609 43.301 42.54 42.896"/>
 </g>
 <path stroke="none" fill="#000000" d="M38.53 42.295C38.156 42.703 38.098 43.167 38.17 43.609L37.875 43.656C37.798 43.189 38.033 42.67 38.427 42.237L38.53 42.295z"/>
 <path stroke="none" fill="#000000" d="M42.393 42.92L42.689 42.871C42.603 42.347 42.204 41.975 41.713 41.701L41.634 41.789C42.066 42.027 42.317 42.46 42.393 42.92z"/>
 <path stroke-width="0.3" d="M45.865 39.106C45.859 39.183 46.47 40.716 46.496 41.076C46.523 41.438 47.57 41.871 48.298 41.741C49.027 41.612 49.444 40.795 49.637 40.603C49.829 40.411 49.829 40.411 49.829 40.411C49.829 40.411 49.468 38.973 49.469 38.948"/>
 <g>
  <path stroke-width="0.13" d="M45.865 39.106L47.057 37.829C47.057 37.829 47.216 37.764 47.679 37.744C48.143 37.725 49.021 38.018 49.073 38.021"/>
  <path stroke-width="0.3" d="M49.073 38.021C49.124 38.026 49.469 38.948 49.469 38.948"/>
 </g>
 <path stroke-width="0.13" d="M46.203 40.079C46.691 39.78 47.03 39.317 47.279 39.078C47.527 38.838 47.527 38.838 47.527 38.838C47.527 38.838 48.265 39.274 48.649 39.301C49.033 39.329 49.552 39.311 49.512 39.13"/>
 <g>
  <path stroke-width="0.13" d="M49.975 38.341C49.814 37.359 48.673 36.726 47.424 36.929C46.176 37.134 45.295 38.095 45.456 39.079C45.472 39.176 45.496 39.27 45.527 39.35"/>
  <path stroke-width="0.13" d="M49.982 38.398C49.979 38.378 49.976 38.359 49.975 38.341"/>
 </g>
 <g>
  <path stroke-width="0.13" d="M50.054 38.667C49.893 37.685 48.753 37.052 47.505 37.256C46.256 37.46 45.375 38.421 45.536 39.405"/>
  <path stroke-width="0.3" d="M45.536 39.405C45.612 39.88 45.92 40.273 46.356 40.529"/>
  <path stroke-width="0.3" d="M49.704 39.908C50.012 39.514 50.121 39.073 50.054 38.667"/>
 </g>
 <path stroke="none" fill="#000000" d="M46.043 38.067C45.67 38.475 45.612 38.939 45.683 39.381L45.387 39.429C45.31 38.96 45.545 38.442 45.941 38.009L46.043 38.067z"/>
 <path stroke="none" fill="#000000" d="M49.905 38.692L50.201 38.643C50.116 38.119 49.719 37.746 49.226 37.473L49.148 37.561C49.579 37.798 49.831 38.232 49.905 38.692z"/>
 <path stroke-width="0.3" d="M49.72 32.63C49.715 32.713 50.372 34.36 50.401 34.749C50.429 35.137 51.557 35.603 52.34 35.465C53.122 35.326 53.57 34.445 53.779 34.24C53.987 34.033 53.987 34.033 53.987 34.033C53.987 34.033 53.597 32.487 53.6 32.459"/>
 <path stroke-width="0.13" d="M49.72 32.63L51.005 31.256C51.005 31.256 51.174 31.184 51.673 31.164C52.173 31.143 53.116 31.458 53.171 31.463C53.226 31.466 53.526 32.146 53.6 32.459"/>
 <path stroke-width="0.13" d="M50.084 33.676C50.609 33.354 50.975 32.856 51.241 32.597C51.509 32.341 51.509 32.341 51.509 32.341C51.509 32.341 52.304 32.811 52.716 32.84C53.128 32.868 53.689 32.85 53.643 32.655"/>
 <g>
  <path stroke-width="0.13" d="M54.143 31.806C53.969 30.748 52.741 30.068 51.399 30.288C50.057 30.507 49.107 31.542 49.28 32.6C49.298 32.704 49.325 32.804 49.357 32.89"/>
  <path stroke-width="0.13" d="M54.151 31.867C54.149 31.846 54.146 31.824 54.143 31.806"/>
 </g>
 <g>
  <path stroke-width="0.13" d="M54.228 32.158C54.055 31.1 52.828 30.42 51.484 30.638C50.143 30.858 49.194 31.893 49.366 32.951"/>
  <path stroke-width="0.3" d="M49.366 32.951C49.45 33.462 49.78 33.884 50.249 34.159"/>
  <path stroke-width="0.3" d="M53.851 33.493C54.182 33.067 54.301 32.594 54.228 32.158"/>
 </g>
 <path stroke="none" fill="#000000" d="M49.908 31.509C49.506 31.948 49.436 32.448 49.515 32.926L49.219 32.975C49.137 32.472 49.381 31.914 49.807 31.452L49.908 31.509z"/>
 <path stroke="none" fill="#000000" d="M54.079 32.182L54.377 32.134C54.284 31.573 53.862 31.167 53.335 30.876L53.256 30.963C53.722 31.221 53.999 31.684 54.079 32.182z"/>
 <path stroke-width="0.3" d="M41.213 20.341C41.213 20.428 42.012 22.085 42.07 22.484C42.127 22.885 43.326 23.285 44.127 23.085C44.926 22.885 45.326 21.942 45.527 21.713C45.726 21.484 45.726 21.484 45.726 21.484C45.726 21.484 45.213 19.914 45.213 19.885"/>
 <g>
  <path stroke-width="0.13" d="M41.213 20.341L42.442 18.827C42.442 18.827 42.612 18.742 43.127 18.684C43.642 18.628 44.64 18.885 44.698 18.885"/>
  <path stroke-width="0.3" d="M44.698 18.885C44.756 18.885 45.113 19.565 45.213 19.885"/>
 </g>
 <path stroke-width="0.13" d="M41.664 21.397C42.185 21.027 42.527 20.484 42.784 20.199C43.042 19.914 43.042 19.914 43.042 19.914C43.042 19.914 43.899 20.341 44.326 20.341C44.756 20.341 45.332 20.283 45.273 20.083"/>
 <g>
  <path stroke-width="0.13" d="M45.726 19.17C45.472 18.089 44.152 17.475 42.78 17.798C41.408 18.12 40.5 19.26 40.756 20.341C40.78 20.449 40.817 20.55 40.856 20.637"/>
  <path stroke-width="0.13" d="M45.74 19.233C45.735 19.21 45.731 19.189 45.726 19.17"/>
 </g>
 <g>
  <path stroke-width="0.13" d="M45.841 19.527C45.587 18.446 44.267 17.832 42.895 18.155C41.521 18.478 40.615 19.617 40.869 20.699"/>
  <path stroke-width="0.3" d="M40.869 20.699C40.993 21.222 41.365 21.635 41.869 21.885"/>
  <path stroke-width="0.3" d="M45.548 20.936C45.859 20.472 45.948 19.974 45.841 19.527"/>
 </g>
 <path stroke="none" fill="#000000" d="M41.325 19.167C40.939 19.652 40.901 20.175 41.015 20.664L40.723 20.733C40.603 20.219 40.814 19.626 41.219 19.117L41.325 19.167z"/>
 <path stroke="none" fill="#000000" d="M45.695 19.562L45.987 19.493C45.851 18.92 45.387 18.532 44.823 18.268L44.75 18.361C45.253 18.594 45.575 19.053 45.695 19.562z"/>
 <path stroke-width="0.3" d="M48.491 25.059C48.487 25.138 49.082 26.632 49.164 27.112"/>
 <path stroke-width="0.13" d="M48.491 25.059L49.776 23.686C49.776 23.686 49.947 23.614 50.445 23.594C50.944 23.574 51.889 23.888 51.944 23.891C51.987 23.894 52.179 24.312 52.296 24.644"/>
 <path stroke-width="0.13" d="M48.856 26.106C49.381 25.785 49.746 25.286 50.014 25.027C50.28 24.769 50.28 24.769 50.28 24.769C50.28 24.769 51.015 25.204 51.439 25.263"/>
 <g>
  <path stroke-width="0.13" d="M52.904 24.179C52.695 23.149 51.482 22.504 50.17 22.716C48.828 22.936 47.88 23.971 48.051 25.028C48.069 25.134 48.097 25.234 48.13 25.32"/>
 </g>
 <g>
  <path stroke-width="0.13" d="M52.829 24.091C52.393 23.295 51.335 22.897 50.256 23.068C48.914 23.286 47.966 24.323 48.137 25.381"/>
  <path stroke-width="0.3" d="M48.137 25.381C48.222 25.891 48.551 26.315 49.021 26.589"/>
 </g>
 <path stroke="none" fill="#000000" d="M48.68 23.937C48.277 24.378 48.209 24.879 48.286 25.356L47.99 25.405C47.908 24.902 48.154 24.344 48.578 23.882L48.68 23.937z"/>
 <path stroke-width="0.13" d="M18.445 31.097C18.902 27.698 22.129 20.926 30.3 17.785C38.47 14.641 45.898 17.013 50.182 20.213"/>
 <path stroke-width="0.3" d="M29.381 43.392C29.376 43.469 29.987 45 30.013 45.362C30.039 45.722 31.088 46.155 31.815 46.027C32.543 45.898 32.96 45.079 33.152 44.887C33.345 44.697 33.345 44.697 33.345 44.697C33.345 44.697 32.984 43.259 32.987 43.234"/>
 <path stroke-width="0.13" d="M29.381 43.392L30.574 42.115C30.574 42.115 30.733 42.048 31.196 42.03C31.66 42.011 32.537 42.304 32.588 42.307C32.64 42.31 32.917 42.942 32.987 43.234"/>
 <path stroke-width="0.13" d="M29.719 44.365C30.207 44.066 30.548 43.601 30.795 43.362C31.042 43.124 31.042 43.124 31.042 43.124C31.042 43.124 31.783 43.56 32.165 43.587C32.548 43.613 33.07 43.597 33.027 43.414"/>
 <g>
  <path stroke-width="0.13" d="M33.49 42.627C33.331 41.643 32.189 41.012 30.942 41.215C29.693 41.418 28.812 42.381 28.972 43.363C28.989 43.46 29.013 43.554 29.045 43.634"/>
  <path stroke-width="0.13" d="M33.499 42.682C33.496 42.662 33.493 42.643 33.49 42.627"/>
 </g>
 <g>
  <path stroke-width="0.13" d="M33.57 42.953C33.411 41.969 32.268 41.338 31.021 41.542C29.774 41.744 28.891 42.707 29.053 43.689"/>
  <path stroke-width="0.3" d="M29.053 43.689C29.129 44.164 29.435 44.557 29.871 44.814"/>
  <path stroke-width="0.3" d="M33.22 44.195C33.529 43.798 33.637 43.359 33.57 42.953"/>
 </g>
 <path stroke="none" fill="#000000" d="M29.559 42.351C29.187 42.759 29.128 43.223 29.201 43.665L28.903 43.715C28.827 43.246 29.062 42.726 29.457 42.295L29.559 42.351z"/>
 <path stroke="none" fill="#000000" d="M33.423 42.978L33.719 42.929C33.634 42.405 33.234 42.031 32.743 41.759L32.664 41.845C33.095 42.084 33.347 42.518 33.423 42.978z"/>
 <path stroke-width="0.13" d="M18.445 31.097C18.269 32.88 18.966 38.259 21.49 40.018"/>
 <path stroke-width="0.3" d="M13.47 19.103C11.894 23.981 12.625 27.567 14.551 33.012C16.477 38.457 18.923 38.764 21.3 40.42"/>
 <path stroke-width="0.3" d="M14.185 21.278C14.185 20.239 14.445 19.12 15.147 18.783C15.849 18.445 16.135 19.12 16.525 19.9C16.916 20.681 17.149 21.695 16.993 23.28C16.838 24.867 16.083 25.881 15.46 25.881C14.836 25.881 14.471 25.126 14.368 24.736C14.263 24.347 14.16 21.824 14.185 21.278z"/>
 <path stroke-width="0.13" d="M14.992 18.678C14.055 19.277 13.666 20.082 13.64 21.304C13.614 22.527 13.666 24.554 13.874 25.022C14.082 25.49 14.699 26.013 15.307 25.864"/>
 <path stroke-width="0.3" d="M21.673 11.087C21.231 11.945 20.321 12.907 20.815 14.234C21.309 15.56 22.635 16.053 24.039 15.56C25.443 15.066 26.664 14 27.054 12.544C27.445 11.087 27.106 9.449 25.65 9.215"/>
 <path stroke-width="0.3" d="M35.219 6.798C34.152 7.551 34.204 8.669 34.569 9.371C34.932 10.073 36.103 11.451 38.052 11.582C40.003 11.711 41.015 11.166 41.588 10.333C42.159 9.502 42.457 7.815 40.54 6.748"/>
 <path stroke-width="0.3" d="M50.939 10.772C50.158 10.15 49.146 9.849 48.933 10.026C48.719 10.205 48.081 10.897 48.506 12.477C48.933 14.057 50.424 15.816 51.259 16.17C52.094 16.525 52.698 16.349 52.965 15.673C53.231 14.999 53.088 14.253 52.679 13.506C52.271 12.762 51.472 11.038 50.939 10.772z"/>
 <path stroke-width="0.13" d="M51.81 11.146C52.253 11.766 53.533 14.182 53.478 14.804C53.426 15.425 53.387 16.475 52.021 16.35"/>
 <path stroke-width="0.3" d="M50.229 10.452C50.229 10.452 51.029 13.063 51.17 13.311C51.313 13.561 51.436 13.419 51.649 13.365C51.863 13.311 52.164 13.045 52.006 12.778C51.845 12.512 51.46 11.319 51.46 11.319"/>
 <path stroke-width="0.13" d="M51.859 12.455C51.454 12.14 50.841 12.406 50.945 12.708"/>
 <polygon stroke-width="0.13" points="0.065 0.065 73.084 0.065 73.084 58.594 0.065 58.594 0.065 0.065"/>
 <path stroke-width="0.3" d="M0.452 46.228C5.309 51.49 14.163 57.46 27.367 57.612C40.572 57.764 50.084 54.222 55.396 51.338C60.709 48.454 70.433 40.612 73.084 34.844"/>
 <path stroke-width="0.2" d="M24.157 32.271C24.236 34.703 25.69 36.795 27.957 38.552"/>
 <path stroke-width="0.2" d="M30.434 39.902C32.645 40.738 35.454 41.045 38.262 40.469C39.323 40.253 40.32 39.963 41.243 39.61"/>
 <path stroke-width="0.2" d="M43.92 38.301C45.219 37.493 46.259 36.542 46.984 35.506C48.57 33.235 48.792 32.311 48.832 32.049"/>
 <g>
  <path stroke-width="0.13" d="M29.562 26.765C29.522 26.458 29.283 26.216 28.949 26.103"/>
  <path stroke-width="0.13" d="M27.882 26.21C27.53 26.408 27.353 26.733 27.391 27.047C27.452 27.518 27.989 27.838 28.588 27.76C29.187 27.684 29.623 27.237 29.562 26.765"/>
 </g>
 <g>
  <path stroke-width="0.13" d="M29.422 25.861C29.361 25.388 28.824 25.068 28.225 25.146C27.626 25.225 27.19 25.67 27.251 26.143"/>
 </g>
 <line stroke-width="0.13" x1="29.422" y1="25.861" x2="29.562" y2="26.765"/>
 <line stroke-width="0.13" x1="27.251" y1="26.143" x2="27.391" y2="27.047"/>
 <polyline stroke-width="0.13" points="29.16 26.786 28.736 26.379 28.053 26.5 27.794 27.027 28.091 27.312"/>
 <line stroke-width="0.13" x1="28.969" y1="27.172" x2="29.16" y2="26.786"/>
 <g>
  <path stroke-width="0.13" d="M27.201 32.1C27.161 31.794 26.92 31.55 26.588 31.439"/>
  <path stroke-width="0.13" d="M25.521 31.545C25.169 31.743 24.992 32.067 25.03 32.381C25.091 32.853 25.628 33.173 26.227 33.095C26.826 33.018 27.262 32.573 27.201 32.1"/>
 </g>
 <g>
  <path stroke-width="0.13" d="M27.06 31.196C26.998 30.724 26.463 30.403 25.864 30.481C25.265 30.559 24.829 31.006 24.89 31.478"/>
 </g>
 <line stroke-width="0.13" x1="27.06" y1="31.196" x2="27.201" y2="32.1"/>
 <line stroke-width="0.13" x1="24.89" y1="31.478" x2="25.03" y2="32.381"/>
 <polyline stroke-width="0.13" points="26.798 32.121 26.376 31.714 25.692 31.835 25.432 32.362 25.731 32.646"/>
 <line stroke-width="0.13" x1="26.609" y1="32.508" x2="26.798" y2="32.121"/>
 <g>
  <path stroke-width="0.13" d="M29.03 36.902C28.989 36.595 28.75 36.353 28.417 36.24"/>
  <path stroke-width="0.13" d="M27.35 36.347C26.998 36.545 26.821 36.871 26.859 37.185C26.92 37.656 27.455 37.976 28.056 37.899C28.655 37.82 29.091 37.375 29.03 36.902"/>
 </g>
 <g>
  <path stroke-width="0.13" d="M28.888 35.999C28.827 35.527 28.292 35.207 27.693 35.284C27.094 35.362 26.658 35.807 26.719 36.28"/>
 </g>
 <line stroke-width="0.13" x1="28.888" y1="35.999" x2="29.03" y2="36.902"/>
 <line stroke-width="0.13" x1="26.719" y1="36.28" x2="26.859" y2="37.185"/>
 <polyline stroke-width="0.13" points="28.628 36.923 28.204 36.517 27.521 36.637 27.262 37.164 27.559 37.45"/>
 <line stroke-width="0.13" x1="28.437" y1="37.31" x2="28.628" y2="36.923"/>
 <g>
  <path stroke-width="0.13" d="M33.707 39.561C33.67 39.287 33.457 39.072 33.159 38.97"/>
  <path stroke-width="0.13" d="M32.206 39.064C31.89 39.243 31.733 39.533 31.766 39.814C31.821 40.235 32.299 40.521 32.835 40.451C33.371 40.383 33.761 39.984 33.707 39.561"/>
 </g>
 <g>
  <path stroke-width="0.13" d="M33.581 38.753C33.526 38.332 33.048 38.045 32.512 38.115C31.977 38.185 31.586 38.584 31.64 39.006"/>
 </g>
 <line stroke-width="0.13" x1="33.581" y1="38.753" x2="33.707" y2="39.561"/>
 <line stroke-width="0.13" x1="31.64" y1="39.006" x2="31.766" y2="39.814"/>
 <polyline stroke-width="0.13" points="33.347 39.579 32.969 39.218 32.357 39.325 32.125 39.795 32.392 40.051"/>
 <line stroke-width="0.13" x1="33.176" y1="39.926" x2="33.347" y2="39.579"/>
 <g>
  <path stroke-width="0.13" d="M45.706 36.328C45.67 36.052 45.456 35.837 45.158 35.735"/>
  <path stroke-width="0.13" d="M44.206 35.831C43.89 36.008 43.731 36.298 43.765 36.579C43.82 37 44.299 37.286 44.835 37.216C45.371 37.148 45.759 36.75 45.706 36.328"/>
 </g>
 <g>
  <path stroke-width="0.13" d="M45.579 35.52C45.524 35.097 45.046 34.811 44.511 34.881C43.975 34.951 43.585 35.348 43.64 35.771"/>
 </g>
 <line stroke-width="0.13" x1="45.579" y1="35.52" x2="45.706" y2="36.328"/>
 <line stroke-width="0.13" x1="43.64" y1="35.771" x2="43.765" y2="36.579"/>
 <polyline stroke-width="0.13" points="45.347 36.345 44.968 35.982 44.356 36.09 44.125 36.561 44.392 36.816"/>
 <line stroke-width="0.13" x1="45.176" y1="36.691" x2="45.347" y2="36.345"/>
 <g>
  <path stroke-width="0.13" d="M42.17 23.379C42.131 23.073 41.892 22.829 41.558 22.718"/>
  <path stroke-width="0.13" d="M40.491 22.824C40.139 23.022 39.963 23.347 40 23.661C40.061 24.132 40.597 24.452 41.197 24.376C41.795 24.297 42.232 23.852 42.17 23.379"/>
 </g>
 <g>
  <path stroke-width="0.13" d="M42.03 22.475C41.969 22.003 41.433 21.684 40.835 21.76C40.235 21.838 39.798 22.285 39.86 22.757"/>
 </g>
 <line stroke-width="0.13" x1="42.03" y1="22.475" x2="42.17" y2="23.379"/>
 <line stroke-width="0.13" x1="39.86" y1="22.757" x2="40" y2="23.661"/>
 <polyline stroke-width="0.13" points="41.77 23.399 41.345 22.993 40.661 23.114 40.402 23.64 40.701 23.925"/>
 <line stroke-width="0.13" x1="41.579" y1="23.786" x2="41.77" y2="23.399"/>
 <g>
  <path stroke-width="0.13" d="M47.274 26.695C47.235 26.388 46.996 26.146 46.662 26.033"/>
  <path stroke-width="0.13" d="M45.595 26.14C45.243 26.338 45.067 26.663 45.104 26.977C45.165 27.449 45.701 27.768 46.301 27.69C46.899 27.612 47.337 27.167 47.274 26.695"/>
 </g>
 <g>
  <path stroke-width="0.13" d="M47.134 25.791C47.073 25.318 46.537 24.998 45.939 25.077C45.34 25.153 44.902 25.6 44.965 26.071"/>
 </g>
 <line stroke-width="0.13" x1="47.134" y1="25.791" x2="47.274" y2="26.695"/>
 <line stroke-width="0.13" x1="44.965" y1="26.071" x2="45.104" y2="26.977"/>
 <polyline stroke-width="0.13" points="46.874 26.714 46.45 26.309 45.765 26.429 45.506 26.957 45.804 27.242"/>
 <line stroke-width="0.13" x1="46.682" y1="27.102" x2="46.874" y2="26.714"/>
 <g>
  <path stroke-width="0.13" d="M35.46 23.339C35.423 23.059 35.22 22.832 34.933 22.71"/>
  <path stroke-width="0.13" d="M33.332 23.274C33.286 23.393 33.274 23.513 33.289 23.62C33.35 24.092 33.886 24.413 34.485 24.335C35.085 24.257 35.521 23.812 35.46 23.339"/>
 </g>
 <line stroke-width="0.13" x1="35.319" y1="22.434" x2="35.46" y2="23.339"/>
 <line stroke-width="0.13" x1="33.234" y1="23.26" x2="33.289" y2="23.62"/>
 <line stroke-width="0.13" x1="35.057" y1="23.359" x2="34.655" y2="22.975"/>
 <polyline stroke-width="0.13" points="33.847 23.286 33.692 23.6 33.988 23.885"/>
 <line stroke-width="0.13" x1="34.868" y1="23.746" x2="35.057" y2="23.359"/>
 <g>
  <path stroke-width="0.13" d="M39.14 37.764C39.055 37.442 38.656 37.27 38.25 37.377C37.843 37.484 37.582 37.831 37.665 38.152C37.75 38.472 38.149 38.646 38.555 38.539C38.963 38.432 39.225 38.085 39.14 37.764"/>
 </g>
 <g>
  <path stroke-width="0.13" d="M40.584 37.402C40.341 36.453 39.17 35.932 37.965 36.238C36.761 36.545 35.979 37.564 36.222 38.514C36.463 39.463 37.637 39.984 38.841 39.676C40.045 39.369 40.826 38.351 40.584 37.402"/>
 </g>
 <g>
  <path stroke-width="0.13" d="M40.441 36.932C40.2 35.984 39.027 35.463 37.822 35.77C36.618 36.076 35.837 37.094 36.079 38.043"/>
 </g>
 <line stroke-width="0.13" x1="40.441" y1="36.932" x2="40.584" y2="37.402"/>
 <line stroke-width="0.13" x1="36.079" y1="38.043" x2="36.222" y2="38.514"/>
 <g>
  <path stroke-width="0.13" d="M41.235 36.887C40.975 35.593 39.43 34.811 37.786 35.143C36.143 35.475 35.023 36.793 35.283 38.088"/>
  <path stroke-width="0.3" d="M35.283 38.088C35.545 39.384 37.09 40.165 38.734 39.834C40.377 39.502 41.497 38.182 41.235 36.887"/>
 </g>
 <path stroke="none" fill="#000000" d="M35.874 36.281C35.395 36.844 35.313 37.472 35.43 38.06L35.137 38.118C35.014 37.506 35.27 36.816 35.768 36.228L35.874 36.281z"/>
 <path stroke="none" fill="#000000" d="M41.088 36.917L41.383 36.859C41.246 36.179 40.722 35.692 40.067 35.36L39.991 35.45C40.585 35.75 40.965 36.301 41.088 36.917z"/>
 <g>
  <path stroke-width="0.3" d="M38.97 34.078C38.481 33.979 37.978 33.99 37.518 34.085C36.088 34.374 35.054 35.409 34.981 36.543"/>
 </g>
 <path stroke-width="0.3" d="M38.97 34.078C39.93 34.055 42.338 32.341 42.746 32.055C43.155 31.769 43.155 31.769 43.155 31.769"/>
 <path stroke-width="0.3" d="M34.981 36.543C34.829 37.177 34.872 38.09 35.561 38.762"/>
 <path stroke-width="0.3" d="M41.261 37.484C41.747 36.587 42.155 35.75 42.787 35.238C43.42 34.728 44.49 33.938 44.518 33.893C44.548 33.847 44.706 33.75 44.787 33.893C44.869 34.034 45.176 34.116 45.42 34.034C45.665 33.954 50.521 30.321 50.521 30.321C50.521 30.321 50.829 29.954 50.726 29.769C50.624 29.586 50.664 29.524 50.664 29.524L50.848 29.178C50.848 29.178 51.113 29.3 51.134 29.3"/>
 <path stroke-width="0.3" d="M43.155 31.769C43.012 31.28 42.972 31.056 43.625 30.565C44.277 30.076 48.155 27.036 48.176 27.036C48.195 27.036 48.484 26.728 48.829 26.954C49.173 27.178 49.46 27.158 49.46 27.158L49.46 26.689"/>
 <path stroke-width="0.13" d="M43.155 31.769C43.258 32.362 44.57 33.746 44.787 33.893"/>
 <path stroke-width="0.13" d="M43.052 32.851C42.134 33.545 40.226 34.759 39.115 34.932"/>
 <path stroke-width="0.13" d="M44.726 33.034C44.746 33.219 44.911 33.811 45.338 33.75C45.768 33.688 45.951 33.545 45.807 33.097C45.665 32.648 45.645 32.667 45.359 32.606"/>
 <g>
  <path stroke-width="0.13" d="M41.481 31.443C41.042 29.503 38.689 28.382 36.226 28.94C33.765 29.498 32.125 31.524 32.564 33.463C32.832 34.651 33.817 35.53 35.121 35.912"/>
  <path stroke-width="0.13" d="M41.424 32.944C41.581 32.415 41.591 31.899 41.481 31.443"/>
 </g>
 <g>
  <path stroke-width="0.13" d="M41.747 30.73C41.183 28.611 38.548 27.475 35.859 28.19C33.171 28.905 31.449 31.202 32.012 33.32"/>
  <path stroke-width="0.3" d="M32.012 33.32C32.371 34.667 33.569 35.618 35.104 35.951"/>
  <path stroke-width="0.3" d="M41.601 32.832C41.89 32.097 41.923 31.37 41.747 30.73"/>
 </g>
 <path stroke="none" fill="#000000" d="M32.771 30.251C32.029 31.24 31.899 32.313 32.158 33.281L31.867 33.359C31.603 32.365 31.902 31.221 32.662 30.205L32.771 30.251z"/>
 <path stroke="none" fill="#000000" d="M41.603 30.768L41.893 30.692C41.601 29.6 40.732 28.824 39.634 28.35L39.564 28.443C40.598 28.89 41.329 29.74 41.603 30.768z"/>
 <g>
  <path stroke-width="0.13" d="M41.462 29.689C40.911 27.612 38.329 26.495 35.695 27.193C33.06 27.89 31.37 30.14 31.92 32.216"/>
  <path stroke-width="0.13" d="M41.551 30.195C41.534 30.013 41.503 29.838 41.462 29.689"/>
 </g>
 <g>
  <path stroke-width="0.3" d="M41.951 28.893C41.45 26.504 38.585 25.082 35.554 25.719C32.521 26.356 30.471 28.809 30.972 31.199C31.118 31.897 31.468 32.514 31.945 32.997"/>
  <path stroke-width="0.3" d="M41.789 30.916C42.046 30.211 42.088 29.513 41.951 28.893"/>
 </g>
 <g>
  <path stroke-width="0.13" d="M42.441 27.137C42.222 26.231 41.71 25.454 41.017 24.873"/>
  <path stroke-width="0.13" d="M30.05 27.55C29.245 29.551 29.937 31.536 31.652 32.75"/>
  <path stroke-width="0.13" d="M41.957 30.32C42.548 29.242 42.686 28.129 42.441 27.137"/>
 </g>
 <g>
  <path stroke-width="0.13" d="M39.991 32.811C39.649 31.678 38.207 31.111 36.771 31.545C35.334 31.98 34.447 33.25 34.789 34.383"/>
  <path stroke-width="0.3" d="M34.789 34.383C34.904 34.765 35.146 35.082 35.46 35.311"/>
  <path stroke-width="0.3" d="M40.012 33.743C40.093 33.409 40.079 33.088 39.991 32.811"/>
 </g>
 <path stroke="none" fill="#000000" d="M35.167 32.723C34.789 33.265 34.777 33.826 34.932 34.338L34.645 34.426C34.482 33.889 34.661 33.247 35.057 32.68L35.167 32.723z"/>
 <path stroke="none" fill="#000000" d="M39.848 32.853L40.136 32.767C39.956 32.17 39.441 31.785 38.826 31.542L38.759 31.638C39.31 31.855 39.686 32.319 39.848 32.853z"/>
 <g>
  <path stroke-width="0.3" d="M39.466 33.972C39.07 33.369 38.235 33.085 37.396 33.21C36.277 33.384 35.482 34.24 35.619 35.121"/>
 </g>
 <g>
  <path stroke-width="0.13" d="M39.625 31.667C39.283 30.536 37.841 29.969 36.404 30.403C34.966 30.838 34.079 32.106 34.42 33.24"/>
 </g>
 <line stroke-width="0.3" x1="39.625" y1="31.667" x2="39.991" y2="32.811"/>
 <line stroke-width="0.3" x1="34.42" y1="33.24" x2="34.789" y2="34.381"/>
 <path stroke-width="0.13" d="M28.085 31.692C28.182 32.948 30.585 36.116 32.298 36.524"/>
 <path stroke-width="0.13" d="M48.496 26.878C48.139 27.78 48.768 28.376 49.267 29.007C49.765 29.638 50.643 30.164 50.679 30.082"/>
 <line stroke-width="0.3" x1="49.46" y1="26.689" x2="73.084" y2="9.657"/>
 <line stroke-width="0.3" x1="51.134" y1="29.3" x2="73.084" y2="13.807"/>
 <path stroke-width="0.3" d="M59.667 23.282C58.997 27.547 55.1 34.264 53.176 35.85"/>
 <line stroke-width="0.3" x1="32.012" y1="33.32" x2="31.829" y2="32.871"/>
 <text x="2.089" y="6.471" stroke="none" fill="#000000" font-family="'Arial'" font-size="4.232">98 560</text>
 <line stroke-width="0.13" x1="33.533" y1="29.376" x2="13.663" y2="7.66"/>
 <text transform="matrix(0 -1 1 0 71.748 56.444)" stroke="none" fill="#000000" font-family="'Arial'" font-size="2.117">322 603</text>
</svg>
