<?xml version="1.0" encoding="utf-8"?>
<!DOCTYPE svg PUBLIC "-//W3C//DTD SVG 1.1//EN" "http://www.w3.org/Graphics/SVG/1.1/DTD/svg11.dtd">
<!-- Generator: PTC Arbortext IsoDraw 7.3 -->
<svg id="Standard_x0020_layer" width="100%" height="100%" viewBox="0 0 70.995 72.748"
 xmlns="http://www.w3.org/2000/svg" xmlns:xlink="http://www.w3.org/1999/xlink"
 fill-rule="evenodd" clip-rule="evenodd" stroke="#000000" stroke-linecap="round" fill="none" xml:space="preserve">
 <path stroke="none" fill="#BFBFBF" d="M43.439 24.03L43.551 23.426 43.302 22.795 42.973 22.835 43.439 24.03z"/>
 <path stroke="none" fill="#BFBFBF" d="M41.914 29.954L41.914 29.679 43.058 29.679 43.332 29.356 43.218 27.588 44.054 27.489 44.253 26.768 44.005 26.245 43.406 26.146C43.406 26.146 43.676 23.9 43.539 23.87 43.404 23.839 43.109 22.762 43.109 22.762L41.329 22.926 39.238 22.812 38.61 22.663 38.594 21.87 36.5 21.655 36.643 19.829 36.051 20.969 34.92 20.856 34.92 20.516 35.173 20.085 35.149 19.358 34.732 18.936 34.357 18.253 33.557 17.981 29.454 18.123C29.448 18.126 29.237 18.368 29.228 18.39 29.219 18.411 28.975 19.324 28.975 19.324L27.981 19.434C27.981 19.434 27.214 19.936 27.196 19.964 27.175 19.995 26.885 21.053 26.885 21.053L26.355 27.984 26.367 31.051 26.493 32.078 27.128 32.338 27.089 36.066 27.716 36.372 28.251 37.13 28.24 38.817 28.478 41.216 28.864 41.685 29.934 41.692 31.28 40 31.236 38.191 31.324 37.357 31.78 36.445 32.381 35.801 32.749 33.93 34.957 34.14 36.89 34.164 37.02 33.091 34.551 33.082C34.551 33.082 34.154 33.143 34.128 33.14 34.103 33.137 33.128 32.555 33.128 32.555L32.77 31.993 32.633 31.5 32.593 31.039C32.593 31.039 36.548 30.969 36.573 30.969 36.598 30.969 37.283 30.914 37.307 30.91 37.332 30.905 37.798 30.635 37.798 30.635L37.859 29.804 41.914 29.954z"/>
 <path stroke-width="0.13" d="M0.394 1.984C2.448 1.589 6.617 1.589 8.942 5.801C11.268 10.012 9.25 14.224 5.827 16.242C2.405 18.26 0.394 16.594 0.394 16.594"/>
 <path stroke-width="0.13" d="M0.394 3.476C0.394 3.476 1.967 3.169 2.405 3.476C2.843 3.782 2.843 3.782 2.843 3.782C2.843 3.782 3.658 2.157 4.546 2.158"/>
 <path stroke-width="0.13" d="M6.485 3.65C5.958 3.871 4.993 4.397 4.862 4.66C4.73 4.924 4.73 4.968 4.73 4.968C4.73 4.968 5.74 6.152 5.958 7.03C6.177 7.907 6.177 8.653 6.177 8.653C6.177 8.653 7.187 8.871 7.889 9.003C8.59 9.135 8.986 9.266 8.986 9.266"/>
 <path stroke-width="0.13" d="M8.634 11.329L6.003 10.714C6.003 10.714 5.256 11.987 4.466 12.909C3.677 13.83 3.282 13.961 3.238 13.961C3.194 13.961 4.336 15.628 4.993 15.804"/>
 <path stroke-width="0.13" d="M0.394 14.444L1.395 14.444C2.185 15.891 3.206 16.251 3.633 16.638"/>
 <path stroke-width="0.3" d="M5.586 2.555C7.626 2.204 9.907 3.738 10.785 5.142C11.663 6.546 11.837 7.381 12.276 7.687C12.715 7.995 14.163 8.125 15.787 8.038C17.41 7.95 25 8.477 25.044 8.477C25.088 8.477 26.623 8.521 26.843 12.952C27.062 17.384 27.062 17.384 27.062 17.384"/>
 <line stroke-width="0.13" x1="0.394" y1="17.998" x2="12.804" y2="17.884"/>
 <line stroke-width="0.13" x1="17.847" y1="17.836" x2="24.21" y2="17.778"/>
 <line stroke-width="0.13" x1="0.394" y1="21.288" x2="12.714" y2="21.118"/>
 <line stroke-width="0.13" x1="17.833" y1="21.048" x2="22.762" y2="20.981"/>
 <path stroke-width="0.13" d="M27.501 17.207C27.501 17.207 22.498 18.042 22.454 18.48C22.411 18.919 22.542 20.542 22.498 20.585C22.454 20.629 23.201 21.463 24.166 21.682C25.132 21.902 26.359 22.21 26.359 22.21"/>
 <path stroke-width="0.13" d="M17.847 17.836C17.454 18.304 17.498 18.743 17.454 19.533C17.41 20.323 17.41 20.562 17.629 20.806C17.847 21.048 17.833 21.048 17.833 21.048C17.833 21.048 17.76 25.719 17.76 25.939C17.76 26.158 17.41 26.771 16.532 26.684C15.654 26.597 13.548 26.728 13.548 26.728C13.548 26.728 12.583 26.509 12.628 25.632C12.672 24.754 12.714 21.118 12.714 21.118C12.714 21.118 12.057 20.937 12.101 20.278C12.144 19.62 12.144 18.48 12.144 18.48C12.144 18.48 12.628 17.885 12.804 17.884C12.98 17.882 12.935 13.128 12.935 13.128C12.935 13.128 12.978 12.381 13.943 12.294C14.909 12.207 17.146 12.163 17.19 12.163C17.234 12.163 18.111 12.207 18.111 12.865C18.111 13.522 18.109 17.382 17.847 17.836z"/>
 <path stroke-width="0.13" d="M25.876 27.695C24.954 28.155 24.839 31.112 24.839 33.225C24.839 35.338 24.878 36.451 24.417 37.374C23.955 38.295 23.955 38.295 23.955 38.295L23.995 43.865"/>
 <path stroke-width="0.3" d="M0.394 49.357C0.394 49.357 16.466 49.435 17.464 49.512C18.463 49.588 18.463 49.357 19.577 49.28C20.69 49.204 21.844 48.935 21.844 48.935L22.036 47.36C22.036 47.36 23.917 44.402 24.609 44.287"/>
 <path stroke-width="0.13" d="M23.995 36.451L21.92 36.567C21.92 36.567 20.96 36.414 20.422 36.951C19.885 37.488 19.885 37.488 19.885 37.488"/>
 <path stroke-width="0.13" d="M19.846 38.526C19.846 38.564 20.077 45.247 20.077 45.247C20.077 45.247 18.963 47.13 18.501 47.822C18.041 48.512 17.618 48.667 17.158 48.667"/>
 <path stroke-width="0.13" d="M19.042 49.338C19.089 49.332 22.382 47.052 22.535 45.823"/>
 <polyline stroke-width="0.13" points="0.394 29.539 8.208 29.539 8.208 33.956 0.394 33.956"/>
 <line stroke-width="0.13" x1="20.844" y1="21.78" x2="20.844" y2="35.683"/>
 <g>
  <path stroke-width="0.13" d="M2.274 50.603C2.274 50.308 2.156 50.043 1.964 49.85"/>
  <path stroke-width="0.3" d="M1.964 49.85C1.757 49.643 1.484 49.539 1.213 49.539C0.626 49.539 0.15 50.015 0.15 50.603C0.15 51.189 0.626 51.664 1.213 51.664C1.8 51.664 2.274 51.189 2.274 50.603"/>
 </g>
 <path stroke="none" fill="#000000" d="M2.209 50.603C2.209 50.326 2.039 50.137 1.858 49.957L2.069 49.744C2.274 49.948 2.339 50.29 2.339 50.603L2.209 50.603z"/>
 <path stroke="none" fill="#000000" d="M1.858 51.247L2.069 51.46C2.306 51.222 2.339 50.912 2.339 50.603L2.209 50.603C2.209 50.835 2.036 51.07 1.858 51.247z"/>
 <path stroke-width="0.3" d="M1.644 51.573L2.564 51.469C2.564 51.469 2.564 54.655 2.633 55.279C2.702 55.902 3.153 58.189 3.117 58.673C3.083 59.158 3.083 59.124 3.083 59.158C3.083 59.194 2.737 58.777 2.112 60.371C1.49 61.965 0.614 66.814 0.394 67.68"/>
 <path stroke-width="0.3" d="M10.085 49.417C10.05 49.417 10.115 52.853 10.115 53.615C10.115 54.378 9.423 57.392 9.179 58.292C8.938 59.194 8.417 60.164 8.971 60.475C9.525 60.786 9.352 61.307 9.352 61.722C9.352 62.137 8.73 63.801 8.798 63.765C8.868 63.731 9.734 64.078 10.599 64.667C11.465 65.256 11.64 65.81 11.64 65.81C11.64 65.81 13.128 66.26 13.961 66.399C14.791 66.537 19.468 65.429 20.888 64.736C22.309 64.043 27.885 60.441 27.885 60.441"/>
 <path stroke-width="0.13" d="M7.932 64.078C6.963 64.043 4.192 65.048 3.984 66.295C3.775 67.542 5.334 69.308 6.269 69.862"/>
 <path stroke-width="0.3" d="M6.2 72.599L6.79 70.382C6.79 70.382 8.417 71.04 9.076 70.867C9.734 70.694 11.951 70.625 12.712 70.832C13.475 71.04 17.251 71.179 19.225 70.659C21.201 70.14 32.009 64.459 33.74 62.277"/>
 <path stroke-width="0.3" d="M2.564 51.469C4.088 51.85 9.887 51.707 10.087 51.328"/>
 <path stroke-width="0.13" d="M4.192 49.633C4.919 50.082 4.711 49.945 4.469 50.395C4.225 50.844 4.357 51.667 3.975 51.64"/>
 <g>
  <path stroke-width="0.3" d="M16.166 51.088C16.166 50.5 15.691 50.024 15.103 50.024C14.81 50.024 14.544 50.143 14.352 50.335"/>
  <path stroke-width="0.13" d="M14.352 50.335C14.144 50.543 14.041 50.816 14.041 51.088C14.041 51.674 14.516 52.149 15.103 52.149C15.691 52.149 16.166 51.674 16.166 51.088"/>
 </g>
 <path stroke="none" fill="#000000" d="M14.458 50.442C14.279 50.621 14.105 50.853 14.105 51.088L13.975 51.088C13.975 50.777 14.009 50.466 14.246 50.229L14.458 50.442z"/>
 <path stroke="none" fill="#000000" d="M14.105 51.088L13.975 51.088C13.975 51.399 14.041 51.74 14.246 51.945L14.458 51.732C14.278 51.551 14.105 51.362 14.105 51.088z"/>
 <g>
  <path stroke-width="0.3" d="M22.471 50.256C22.471 49.668 21.995 49.194 21.408 49.194C20.821 49.194 20.346 49.668 20.346 50.256"/>
  <path stroke-width="0.13" d="M20.346 50.256C20.346 50.549 20.464 50.814 20.657 51.008"/>
  <path stroke-width="0.3" d="M20.657 51.008C20.864 51.215 21.135 51.319 21.408 51.319C21.995 51.319 22.471 50.843 22.471 50.256"/>
 </g>
 <path stroke="none" fill="#000000" d="M20.763 49.61C20.585 49.789 20.411 50.023 20.411 50.256L20.28 50.256C20.28 49.945 20.314 49.636 20.55 49.399L20.763 49.61z"/>
 <path stroke="none" fill="#000000" d="M20.411 50.256L20.28 50.256C20.28 50.567 20.347 50.909 20.55 51.113L20.763 50.902C20.582 50.72 20.411 50.531 20.411 50.256z"/>
 <path stroke-width="0.3" d="M21.091 51.271C19.527 51.487 17.806 51.121 17.736 50.984C17.667 50.844 17.771 50.463 17.528 50.256C17.286 50.048 17.147 50.048 17.464 49.512"/>
 <path stroke-width="0.3" d="M11.073 50.341C10.756 50.878 10.894 50.878 11.137 51.087C11.38 51.293 11.275 51.676 11.345 51.814C11.413 51.953 13.135 52.317 14.699 52.1"/>
 <path stroke-width="0.3" d="M11.073 50.341C11.246 50.098 11.073 49.892 11.871 50.03C12.666 50.168 14.361 50.179 14.538 50.134"/>
 <line stroke-width="0.3" x1="12.573" y1="50.109" x2="12.585" y2="49.438"/>
 <path stroke-width="0.3" d="M12.852 52.265C13.544 54.585 12.955 59.747 12.298 60.96C12.035 61.442 11.625 63.21 11.262 65.23"/>
 <path stroke-width="0.3" d="M10.521 70.733C10.458 71.656 10.473 72.344 10.599 72.599"/>
 <path stroke-width="0.3" d="M15.627 51.932C16.493 54.838 15.669 61.292 14.897 62.706C14.666 63.284 14.333 64.757 14.035 66.405"/>
 <path stroke-width="0.3" d="M13.409 70.944C13.362 71.552 13.349 72.057 13.387 72.388"/>
 <path stroke-width="0.3" d="M16.222 71.007C16.222 71.596 16.524 72.599 16.8 72.599"/>
 <path stroke-width="0.3" d="M18.573 51.219C19.399 53.686 19.606 56.63 19.053 57.357C18.498 58.085 14.224 63.942 14.179 65.638"/>
 <path stroke-width="0.3" d="M21.778 51.253C22.396 53.576 22.545 56.034 22.285 57.353C22.123 58.179 21.806 58.796 21.489 59.213C21.05 59.789 17.858 63.99 17.248 65.879"/>
 <polygon stroke-width="0.13" points="1.936 50.603 1.573 49.975 0.851 49.975 0.489 50.603 0.851 51.228 1.573 51.228 1.936 50.603"/>
 <polygon stroke-width="0.13" points="15.827 51.088 15.464 50.46 14.742 50.46 14.38 51.088 14.742 51.713 15.464 51.713 15.827 51.088"/>
 <polygon stroke-width="0.13" points="22.132 50.256 21.769 49.63 21.047 49.63 20.684 50.256 21.047 50.883 21.769 50.883 22.132 50.256"/>
 <path stroke-width="0.3" d="M32.173 50.899L27.391 50.07L27.202 47.924L25.359 47.435C25.359 47.435 24.681 47.624 24.681 46.231C24.681 44.838 24.719 42.615 24.756 42.579C24.794 42.54 24.756 41.975 25.245 41.713C25.734 41.448 27.24 40.96 27.24 40.96C27.24 40.96 27.579 39.491 27.504 39.152C27.428 38.814 26.449 38.814 26.413 38.212C26.375 37.609 26.375 36.292 26.375 36.253C26.375 36.216 27.089 36.066 27.089 36.066L27.128 32.338C27.128 32.338 26.449 32.715 26.336 30.681C26.225 28.649 26.562 24.207 26.751 22.324C26.94 20.442 26.94 19.914 27.73 19.538C28.521 19.161 29.085 19.35 29.085 19.35C29.085 19.35 29.01 18.144 29.612 18.07C30.214 17.995 33.603 17.844 34.093 18.07C34.582 18.295 34.732 18.897 34.732 18.936C34.732 18.974 35.259 19.161 35.222 19.763C35.185 20.367 34.92 20.516 34.92 20.516L34.92 20.856L36.051 20.969C36.051 20.969 36.201 20.367 36.465 20.027C36.728 19.689 36.728 19.839 36.728 19.689C36.728 19.538 36.728 18.559 36.728 18.559"/>
 <g>
  <path stroke-width="0.13" d="M37.451 17.504C37.451 17.211 37.332 16.946 37.14 16.754"/>
  <path stroke-width="0.3" d="M37.14 16.754C36.932 16.547 36.661 16.443 36.389 16.443C35.801 16.443 35.326 16.919 35.326 17.504C35.326 18.091 35.801 18.568 36.389 18.568C36.975 18.568 37.451 18.091 37.451 17.504"/>
 </g>
 <path stroke="none" fill="#000000" d="M37.387 17.504C37.387 17.23 37.215 17.041 37.034 16.859L37.246 16.647C37.451 16.852 37.517 17.193 37.517 17.504L37.387 17.504z"/>
 <path stroke="none" fill="#000000" d="M37.034 18.15L37.246 18.362C37.484 18.126 37.517 17.815 37.517 17.504L37.387 17.504C37.387 17.739 37.213 17.972 37.034 18.15z"/>
 <polygon stroke-width="0.13" points="37.112 17.504 36.75 16.879 36.027 16.879 35.665 17.504 36.027 18.132 36.75 18.132 37.112 17.504"/>
 <path stroke-width="0.3" d="M36.314 46.61C36.277 46.536 37.067 43.219 37.067 42.164C37.067 41.11 36.765 39.491 36.765 39.454C36.765 39.415 35.673 38.851 35.033 38.814C34.393 38.776 32.85 37.835 31.457 39.755C30.065 41.674 29.161 43.406 28.521 44.386C27.881 45.365 26.487 46.118 26.487 46.118C26.487 46.118 26.375 46.606 26.525 46.758C26.675 46.908 29.236 47.585 29.236 47.585C29.236 47.585 29.649 47.624 30.214 46.645C30.78 45.665 33.189 41.787 33.603 40.96C34.018 40.131 34.619 39.191 35.448 39.868"/>
 <path stroke-width="0.3" d="M34.338 39.877C34.695 41.487 34.545 42.314 34.319 44.234C34.093 46.155 33.301 47.097 34.131 47.246C34.959 47.398 35.667 47.465 35.667 47.465"/>
 <g>
  <path stroke-width="0.13" d="M37.835 48.149C37.835 47.856 37.716 47.59 37.524 47.398"/>
  <path stroke-width="0.3" d="M37.524 47.398C37.317 47.189 37.045 47.085 36.773 47.085C36.185 47.085 35.71 47.561 35.71 48.149C35.71 48.735 36.185 49.212 36.773 49.212C37.359 49.212 37.835 48.735 37.835 48.149"/>
 </g>
 <path stroke="none" fill="#000000" d="M37.77 48.149C37.77 47.874 37.598 47.683 37.417 47.503L37.63 47.292C37.834 47.496 37.899 47.838 37.899 48.149L37.77 48.149z"/>
 <path stroke="none" fill="#000000" d="M37.417 48.793L37.63 49.006C37.866 48.77 37.899 48.459 37.899 48.149L37.77 48.149C37.77 48.383 37.595 48.615 37.417 48.793z"/>
 <polygon stroke-width="0.13" points="37.496 48.149 37.134 47.523 36.411 47.523 36.048 48.149 36.411 48.776 37.134 48.776 37.496 48.149"/>
 <g>
  <path stroke-width="0.13" d="M39.673 31.736C39.673 31.149 39.197 30.673 38.61 30.673C38.317 30.673 38.051 30.792 37.859 30.984"/>
  <path stroke-width="0.3" d="M37.859 30.984C37.444 31.399 37.444 32.073 37.859 32.487"/>
  <path stroke-width="0.13" d="M37.859 32.487C38.067 32.695 38.338 32.798 38.61 32.798C39.197 32.798 39.673 32.323 39.673 31.736"/>
 </g>
 <path stroke="none" fill="#000000" d="M38.61 30.739C38.335 30.739 38.146 30.91 37.965 31.091L37.753 30.879C37.957 30.675 38.298 30.609 38.61 30.609L38.61 30.739z"/>
 <path stroke="none" fill="#000000" d="M37.965 32.381L37.753 32.594C37.99 32.831 38.299 32.863 38.61 32.863L38.61 32.734C38.377 32.734 38.143 32.56 37.965 32.381z"/>
 <polygon stroke-width="0.13" points="39.334 31.736 38.972 31.109 38.249 31.109 37.887 31.736 38.249 32.362 38.972 32.362 39.334 31.736"/>
 <g>
  <path stroke-width="0.13" d="M40.276 20.329C40.276 19.742 39.799 19.265 39.213 19.265C38.625 19.265 38.149 19.742 38.149 20.329"/>
  <path stroke-width="0.3" d="M38.149 20.329C38.149 20.621 38.268 20.888 38.462 21.079"/>
  <path stroke-width="0.13" d="M38.462 21.079C38.668 21.288 38.941 21.391 39.213 21.391C39.799 21.391 40.276 20.916 40.276 20.329"/>
 </g>
 <path stroke="none" fill="#000000" d="M39.213 19.33C38.936 19.33 38.747 19.503 38.567 19.684L38.354 19.472C38.56 19.268 38.902 19.201 39.213 19.201L39.213 19.33z"/>
 <path stroke="none" fill="#000000" d="M38.567 20.974L38.354 21.187C38.591 21.422 38.902 21.457 39.213 21.457L39.213 21.327C38.978 21.327 38.746 21.152 38.567 20.974z"/>
 <polygon stroke-width="0.13" points="39.936 20.329 39.575 19.702 38.85 19.702 38.49 20.329 38.85 20.955 39.575 20.955 39.936 20.329"/>
 <g>
  <path stroke-width="0.13" d="M40.689 13.664C40.689 13.079 40.213 12.602 39.627 12.602C39.039 12.602 38.564 13.079 38.564 13.664"/>
  <path stroke-width="0.3" d="M38.564 13.664C38.564 13.958 38.682 14.224 38.875 14.416"/>
  <path stroke-width="0.13" d="M38.875 14.416C39.082 14.624 39.354 14.727 39.627 14.727C40.213 14.727 40.689 14.252 40.689 13.664"/>
 </g>
 <path stroke="none" fill="#000000" d="M39.627 12.667C39.351 12.667 39.161 12.839 38.981 13.019L38.77 12.807C38.973 12.603 39.316 12.538 39.627 12.538L39.627 12.667z"/>
 <path stroke="none" fill="#000000" d="M38.981 14.31L38.77 14.522C39.006 14.759 39.317 14.792 39.627 14.792L39.627 14.663C39.393 14.663 39.159 14.489 38.981 14.31z"/>
 <polygon stroke-width="0.13" points="40.35 13.664 39.988 13.038 39.265 13.038 38.904 13.664 39.265 14.291 39.988 14.291 40.35 13.664"/>
 <line stroke-width="0.3" x1="38.875" y1="14.416" x2="38.793" y2="19.352"/>
 <polyline stroke-width="0.3" points="38.747 13.067 38.686 11.744 42.902 11.858 43.24 22.737"/>
 <path stroke-width="0.3" d="M43.24 22.737C41.359 23.077 39.514 22.888 39.061 22.775C38.61 22.663 38.61 22.663 38.61 22.663L38.793 21.306"/>
 <line stroke-width="0.13" x1="39.963" y1="19.577" x2="43.143" y2="19.577"/>
 <line stroke-width="0.13" x1="39.966" y1="21.346" x2="43.198" y2="21.346"/>
 <line stroke-width="0.13" x1="40.216" y1="12.781" x2="42.6" y2="12.781"/>
 <line stroke-width="0.13" x1="40.231" y1="14.538" x2="42.752" y2="14.538"/>
 <line stroke-width="0.13" x1="36.837" y1="16.542" x2="38.534" y2="16.542"/>
 <line stroke-width="0.13" x1="36.728" y1="18.559" x2="38.497" y2="18.559"/>
 <line stroke-width="0.13" x1="36.728" y1="19.689" x2="38.314" y2="19.689"/>
 <path stroke-width="0.3" d="M38.738 12.868C37.405 12.987 36.728 13.288 36.691 13.967C36.652 14.644 36.728 16.3 36.728 16.3"/>
 <path stroke-width="0.13" d="M10.8 5.092C15.151 4.743 20.364 5.9 23.853 6.668C24.853 6.887 25.716 7.076 26.382 7.193C27.129 7.323 28.614 7.66 30.545 8.099C36.072 9.353 45.197 11.429 51.167 11.945"/>
 <path stroke-width="0.13" d="M52.576 12.041C56.762 12.26 61.045 12.118 64.448 11.801"/>
 <path stroke-width="0.13" d="M66.406 11.586C68.42 11.332 69.948 11.015 70.703 10.692"/>
 <path stroke-width="0.13" d="M10.702 3.866C15.173 3.508 20.532 4.679 24.117 5.466C25.097 5.682 25.942 5.868 26.594 5.982C27.352 6.115 28.859 6.455 30.817 6.9C36.219 8.125 45.09 10.15 51.006 10.695"/>
 <path stroke-width="0.13" d="M52.387 10.798C53.826 10.88 55.28 10.917 56.707 10.92"/>
 <path stroke-width="0.13" d="M59.954 10.867C62.009 10.794 63.926 10.653 65.557 10.471"/>
 <path stroke-width="0.13" d="M67.852 10.153C68.917 9.971 69.733 9.769 70.218 9.561"/>
 <path stroke-width="0.13" d="M52.152 5.801C52.174 6.246 52.186 6.738 52.198 7.267C52.249 9.394 52.293 12.115 53.249 14.291C53.601 15.093 54.017 15.644 54.465 16.01C54.756 16.251 55.06 16.408 55.359 16.512C56.124 16.775 56.869 16.696 57.39 16.664C58.173 16.614 60.07 16.103 61.601 15.095C62.228 14.682 62.793 14.185 63.177 13.59C64.234 11.954 66.066 9.538 68.03 8.31C68.974 7.721 69.954 7.4 70.903 7.479"/>
 <path stroke-width="0.13" d="M50.722 5.227C50.781 5.799 50.796 6.509 50.816 7.299C50.868 9.586 50.954 12.507 51.981 14.846C52.442 15.896 53.003 16.602 53.588 17.08C54.018 17.434 54.466 17.667 54.908 17.821C55.877 18.153 56.817 18.086 57.478 18.045C58.383 17.989 60.59 17.419 62.362 16.25C63.152 15.73 63.856 15.092 64.34 14.342C65.308 12.842 66.965 10.609 68.763 9.484C69.433 9.067 70.115 8.801 70.787 8.858"/>
 <line stroke-width="0.13" x1="45.612" y1="0.065" x2="54.509" y2="7.871"/>
 <line stroke-width="0.13" x1="53.674" y1="0.065" x2="57.759" y2="3.591"/>
 <path stroke-width="0.13" d="M57.759 3.591C58.646 3.52 61.115 4.158 61.701 5.596C62.286 7.035 62.27 9.468 60.725 10.445C59.179 11.422 57.527 11.653 56.143 10.551C54.758 9.451 54.97 9.06 54.776 8.599C54.579 8.137 54.384 7.887 54.384 7.887"/>
 <g>
  <path stroke-width="0.13" d="M58.792 6.663C58.792 6.19 58.408 5.807 57.936 5.807C57.463 5.807 57.081 6.19 57.081 6.663C57.081 7.134 57.463 7.517 57.936 7.517C58.408 7.517 58.792 7.134 58.792 6.663"/>
 </g>
 <g>
  <path stroke-width="0.13" d="M59.375 6.663C59.375 5.868 58.731 5.224 57.936 5.224C57.142 5.224 56.497 5.868 56.497 6.663C56.497 7.456 57.142 8.101 57.936 8.101C58.731 8.101 59.375 7.456 59.375 6.663"/>
 </g>
 <path stroke-width="0.13" d="M59.197 4.727C60.689 5.046 61.274 7.373 60.192 8.865C59.109 10.356 56.694 9.913 56.143 8.723"/>
 <path stroke-width="0.3" d="M27.981 19.434C27.981 19.434 28.067 18.373 28.016 17.774C27.966 17.173 27.742 12.226 27.768 11.176C27.783 10.473 28.25 8.881 29.504 7.863"/>
 <path stroke-width="0.3" d="M31.349 7.022C31.545 6.987 31.75 6.963 31.966 6.953C35.115 6.802 40.912 6.503 42.938 7.052C44.962 7.602 46.695 8.775 47.177 10.212"/>
 <path stroke-width="0.3" d="M47.673 11.526C48.243 12.896 49.058 14.484 49.835 15.074C50.235 15.38 50.923 15.708 52.563 15.942"/>
 <path stroke-width="0.3" d="M54.625 16.147C55.802 16.225 57.273 16.271 59.115 16.271"/>
 <path stroke-width="0.3" d="M62.39 16.23C64.733 16.173 67.521 16.06 70.846 15.875"/>
 <path stroke-width="0.13" d="M28.975 19.324C28.981 19.251 28.984 19.198 28.984 19.198C29.009 18.801 29.036 18.134 28.998 17.692C28.949 17.102 28.727 12.233 28.751 11.199C28.762 10.8 28.978 10.039 29.463 9.346C29.672 9.048 29.931 8.763 30.254 8.528C30.443 8.391 30.653 8.272 30.887 8.176"/>
 <path stroke-width="0.13" d="M34.835 7.804C37.774 7.682 41.226 7.607 42.679 8.003C43.902 8.335 45.014 8.913 45.707 9.666C45.814 9.782 45.908 9.901 45.991 10.025"/>
 <path stroke-width="0.13" d="M46.548 11.356C47.182 12.964 48.262 15.114 49.237 15.858C49.752 16.25 50.719 16.714 53.462 16.992"/>
 <path stroke-width="0.13" d="M60.472 17.23C63.209 17.208 66.623 17.097 70.9 16.858"/>
 <path stroke-width="0.13" d="M9.65 3.003L33.026 2.697C33.026 2.697 32.948 3.536 32.948 4.453C32.948 5.371 32.789 5.75 33.789 6.286C33.789 6.286 44.637 6.363 45.706 6.286C46.776 6.211 48.542 7.484 50.332 10.628"/>
 <line stroke-width="0.13" x1="33.942" y1="5.371" x2="46.393" y2="5.065"/>
 <line stroke-width="0.13" x1="47.539" y1="6.593" x2="47.466" y2="1.69"/>
 <g>
  <path stroke-width="0.13" d="M36.331 3.866C36.331 3.458 36 3.128 35.593 3.128C35.185 3.128 34.856 3.458 34.856 3.866C34.856 4.272 35.185 4.602 35.593 4.602C36 4.602 36.331 4.272 36.331 3.866"/>
 </g>
 <g>
  <path stroke-width="0.13" d="M40.878 3.726C40.878 3.318 40.548 2.988 40.142 2.988C39.734 2.988 39.405 3.318 39.405 3.726C39.405 4.133 39.734 4.463 40.142 4.463C40.548 4.463 40.878 4.133 40.878 3.726"/>
 </g>
 <g>
  <path stroke-width="0.13" d="M45.334 3.609C45.334 3.202 45.003 2.873 44.597 2.873C44.189 2.873 43.859 3.202 43.859 3.609C43.859 4.017 44.189 4.346 44.597 4.346C45.003 4.346 45.334 4.017 45.334 3.609"/>
 </g>
 <path stroke-width="0.13" d="M61.645 5.472C61.645 5.472 66.912 5.325 67.548 5.633C68.183 5.942 68.203 6.461 68.203 6.924C68.203 7.387 67.894 7.81 67.335 7.945C66.778 8.08 66.778 8.08 66.778 8.08L66.719 8.407C66.719 8.407 66.507 8.774 66.007 8.774C65.506 8.774 65.12 8.869 64.736 8.676C64.349 8.484 64.177 8.484 64.177 8.214C64.177 7.945 64.215 7.597 64.215 7.597L65.236 7.232L66.584 7.443C66.584 7.443 66.778 7.887 66.778 8.08"/>
 <line stroke-width="0.13" x1="64.406" y1="8.525" x2="61.697" y2="10.788"/>
 <line stroke-width="0.13" x1="64.754" y1="6.48" x2="61.499" y2="10.006"/>
 <polyline stroke-width="0.13" points="52.445 8.888 53.792 8.928 55.956 10.4"/>
 <path stroke-width="0.13" d="M58.223 12.134C58.262 12.134 60.323 13.455 60.323 13.455C60.323 13.455 61.036 13.474 61.402 12.993C61.768 12.51 62.289 11.97 62.289 11.97"/>
 <path stroke-width="0.13" d="M62.719 9.933C62.982 10.16 63.064 10.699 62.985 10.705"/>
 <path stroke-width="0.13" d="M52.31 7.578L52.868 7.501C52.868 7.501 54.043 7.597 54.043 7.618C54.043 7.637 54.179 8.484 54.179 8.484C54.179 8.484 54.139 8.938 53.792 8.928"/>
 <path stroke-width="0.13" d="M65.121 13.198C65.275 14.303 65.486 14.34 65.698 14.244C65.911 14.148 65.948 14.109 65.948 14.109L67.028 14.359C67.028 14.359 67.298 14.784 67.587 14.784C67.876 14.784 68.472 14.553 68.472 14.553L70.727 15.516"/>
 <path stroke-width="0.13" d="M66.042 12.006L66.969 12.471L67.028 14.359"/>
 <path stroke-width="0.13" d="M67.028 13.359C67.298 13.609 67.74 13.647 68.03 13.416C68.319 13.185 68.319 13.185 68.319 13.185"/>
 <path stroke-width="0.13" d="M67.343 11.458L68.067 11.798C68.067 11.798 68.067 12.105 68.435 12.298C68.801 12.492 70.846 13.339 70.846 13.339"/>
 <path stroke-width="0.13" d="M61.582 4.711L69.079 4.556C69.079 4.556 70.106 4.307 70.355 3.839"/>
 <path stroke-width="0.13" d="M68.203 6.924C69.266 6.982 69.365 7.344 69.409 7.66"/>
 <path stroke-width="0.13" d="M36.167 9.59C36.079 10.557 36.161 12.31 36.799 13.585"/>
 <path stroke-width="0.13" d="M33.421 8.977C33.774 10.183 34.497 11.451 36.375 12.387"/>
 <path stroke-width="0.13" d="M34.564 11.215C33.334 11.941 33.466 13.192 33.487 14.048C33.509 14.904 33.557 17.981 33.557 17.981"/>
 <path stroke-width="0.13" d="M32.609 19.361C33.137 19.428 33.378 19.559 33.378 19.977C33.378 20.393 33.093 20.766 32.588 20.766"/>
 <path stroke-width="0.13" d="M34.63 19.076C34.387 19.164 34.279 19.23 34.279 19.69C34.279 20.152 34.246 20.509 34.92 20.516"/>
 <path stroke-width="0.13" d="M32.456 19.361C32.28 19.405 32.28 19.646 32.28 19.911C32.28 20.173 32.237 20.722 32.588 20.766"/>
 <line stroke-width="0.13" x1="29.074" y1="19.487" x2="28.699" y2="31.82"/>
 <path stroke-width="0.13" d="M27.571 32.265L28.605 32.289C28.605 32.289 28.512 32.783 28.981 32.877C29.451 32.97 29.896 32.97 29.896 32.923"/>
 <path stroke-width="0.3" d="M27.089 36.066C27.336 36.212 28.3 36.377 28.3 37.551C28.3 38.725 28.487 41.356 28.487 41.356L28.864 41.685L28.954 43.685"/>
 <path stroke-width="0.3" d="M32.749 33.93C32.749 34.738 32.749 35.442 32.292 35.898C31.838 36.353 31.259 36.869 31.237 38.029C31.216 39.188 31.28 40 31.28 40"/>
 <line stroke-width="0.13" x1="28.864" y1="41.685" x2="29.934" y2="41.692"/>
 <line stroke-width="0.13" x1="29.896" y1="32.923" x2="29.934" y2="35.939"/>
 <path stroke-width="0.13" d="M27.716 36.372L30.388 36.435C30.388 36.435 31.03 36.353 31.051 35.317C31.071 34.283 31.01 33.165 31.01 33.165"/>
 <g>
  <path stroke-width="0.13" d="M29.013 33.786C29.013 33.506 28.786 33.279 28.506 33.279C28.225 33.279 27.998 33.506 27.998 33.786C27.998 34.067 28.225 34.293 28.506 34.293C28.786 34.293 29.013 34.067 29.013 33.786"/>
 </g>
 <g>
  <path stroke-width="0.13" d="M46.161 34.406C46.161 33.984 45.817 33.64 45.395 33.64C44.97 33.64 44.628 33.984 44.628 34.406C44.628 34.829 44.97 35.173 45.395 35.173C45.817 35.173 46.161 34.829 46.161 34.406"/>
 </g>
 <path stroke-width="0.13" d="M34.258 31.327C34.784 31.393 35.027 31.524 35.027 31.942C35.027 32.359 34.74 32.732 34.235 32.732"/>
 <path stroke-width="0.13" d="M34.103 31.327C33.929 31.37 33.929 31.612 33.929 31.876C33.929 32.14 33.884 32.689 34.235 32.732"/>
 <path stroke-width="0.13" d="M31.46 17.968C31.46 17.968 30.489 18.048 30.455 19.446C30.423 20.843 30.262 21.687 30.262 21.687C30.262 21.687 31.431 22.338 31.756 22.858C32.081 23.378 32.081 24.157 32.081 24.157"/>
 <g>
  <path stroke-width="0.13" d="M30.262 21.687C30.262 21.687 29.806 31.5 29.871 31.923C29.937 32.344 30.134 32.654 31.01 33.165C31.885 33.676 32.307 33.807 33.023 33.936"/>
  <path stroke-width="0.3" d="M33.023 33.936L34.354 34.131C34.354 34.131 36.921 34.164 36.89 34.164C36.856 34.164 37.051 33.091 37.02 33.091C36.987 33.091 34.648 32.994 34.289 33.125C33.932 33.255 32.795 32.67 32.633 31.5"/>
  <path stroke-width="0.13" d="M32.633 31.5C32.47 30.33 32.6 25.425 32.6 25.425"/>
 </g>
 <line stroke-width="0.3" x1="38.448" y1="21.786" x2="36.5" y2="21.655"/>
 <path stroke-width="0.13" d="M36.5 21.655C36.337 23.28 36.271 28.088 36.337 28.771C36.402 29.452 36.307 30.568 37.149 30.719"/>
 <path stroke-width="0.13" d="M38.61 22.663C38.61 22.663 37.798 22.533 37.798 23.443C37.798 24.352 37.767 28.9 37.767 29.161C37.767 29.42 37.572 29.811 38.124 29.908"/>
 <path stroke-width="0.13" d="M32.319 24.141L32.368 23.121C32.368 23.121 32.405 22.574 33.588 22.686C34.771 22.798 35.28 23.059 35.292 23.332C35.305 23.606 35.305 24.291 35.305 24.291L35.654 24.378C35.654 24.378 35.642 24.914 35.628 24.914C35.616 24.914 35.579 25.001 35.343 25.025C35.106 25.05 34.908 25.062 34.908 25.062C34.908 25.062 34.857 25.498 34.771 25.833C34.683 26.17 34.558 26.233 34.546 26.245C34.533 26.257 34.024 26.233 34.024 26.233C34.024 26.233 34.024 26.58 33.887 26.58C33.75 26.58 33.228 26.568 33.228 26.568C33.228 26.568 33.165 26.295 33.14 26.207C33.115 26.12 33.115 26.12 33.115 26.12C33.115 26.12 32.729 26.108 32.729 26.096C32.729 26.082 32.609 25.736 32.6 25.425C32.593 25.112 32.593 25.088 32.593 25.088C32.593 25.088 32.256 24.9 32.107 24.814C31.957 24.727 31.957 24.727 31.957 24.727L31.995 24.192L32.319 24.141z"/>
 <path stroke-width="0.13" d="M32.542 24.091C32.542 24.105 33.34 24.091 33.34 24.091L33.414 23.257C33.414 23.257 33.762 23.097 33.762 23.332C33.762 23.57 33.701 24.105 33.701 24.105C33.701 24.105 34.695 24.192 34.695 24.178C34.695 24.167 34.709 23.346 34.709 23.346C34.709 23.346 35.031 23.146 35.045 23.42C35.057 23.693 35.057 24.254 35.057 24.254L35.305 24.291"/>
 <path stroke-width="0.13" d="M32.133 24.676C32.567 24.539 35.305 24.713 35.53 24.888"/>
 <polyline stroke-width="0.13" points="33.115 26.12 34.012 26.12 34.024 26.233"/>
 <path stroke-width="0.13" d="M32.804 24.914C32.792 25.088 33.176 25.315 33.24 24.975"/>
 <path stroke-width="0.13" d="M33.968 24.975C33.954 25.149 34.341 25.376 34.402 25.038"/>
 <path stroke-width="0.13" d="M32.941 25.385C32.929 25.559 33.314 25.786 33.377 25.446"/>
 <path stroke-width="0.3" d="M36.643 19.829C36.563 20.321 36.311 21.472 36.5 21.655"/>
 <line stroke-width="0.13" x1="34.92" y1="20.856" x2="33.526" y2="20.719"/>
 <path stroke-width="0.13" d="M33.253 18.379C32.405 18.355 32.133 18.754 32.133 19.027C32.133 19.3 31.734 21.242 31.833 21.615C31.934 21.989 32.231 22.187 32.231 22.187"/>
 <path stroke-width="0.13" d="M31.884 24.478C31.859 24.452 30.152 24.047 30.083 25.67"/>
 <path stroke-width="0.3" d="M43.109 22.762C43.109 22.762 43.631 22.76 43.531 24.004C43.432 25.25 43.406 26.17 43.406 26.146C43.406 26.12 44.005 26.245 44.005 26.245C44.005 26.245 44.253 26.393 44.253 26.768C44.253 27.14 44.179 27.315 44.054 27.489C43.929 27.664 43.929 27.664 43.929 27.664L43.332 27.689L43.332 29.356C43.332 29.356 43.133 29.73 43.058 29.679C42.984 29.629 41.914 29.679 41.914 29.679L41.914 29.954L42.511 30.103C42.511 30.103 42.561 30.675 42.585 31.297"/>
 <path stroke-width="0.13" d="M38.579 29.381C39.649 28.46 41.22 28.998 41.789 29.33"/>
 <path stroke-width="0.13" d="M43.406 26.146C43.406 26.146 43.033 26.219 43.058 26.594C43.084 26.966 43.058 27.564 43.332 27.689"/>
 <path stroke-width="0.13" d="M42.959 23.208C42.61 24.079 42.661 28.385 42.734 28.908C42.81 29.431 43.009 29.431 43.009 29.431"/>
 <g>
  <path stroke-width="0.13" d="M45.79 29.431C45.79 29.007 45.448 28.664 45.024 28.664C44.601 28.664 44.259 29.007 44.259 29.431C44.259 29.853 44.601 30.196 45.024 30.196C45.448 30.196 45.79 29.853 45.79 29.431"/>
 </g>
 <path stroke-width="0.3" d="M53.462 16.992C53.462 16.992 47.962 16.763 47.066 16.214C46.17 15.666 43.703 16.361 43.381 16.663C43.06 16.963 43.082 17.609 43.082 17.609C43.082 17.609 43.531 18.902 43.581 19.6C43.631 20.297 43.301 22.455 43.42 23.021C43.542 23.585 44.502 25.474 44.378 26.12C44.253 26.768 44.228 28.012 43.829 28.41C43.432 28.809 43.332 28.908 43.332 28.908"/>
 <polyline stroke-width="0.13" points="43.829 28.41 43.979 40.704 42.286 40.704"/>
 <polyline stroke-width="0.3" points="42.585 31.297 42.286 41.103 37.658 41.103 37.689 38.92"/>
 <line stroke-width="0.3" x1="37.707" y1="36.722" x2="37.719" y2="32.491"/>
 <line stroke-width="0.3" x1="37.859" y1="30.984" x2="37.859" y2="29.804"/>
 <line stroke-width="0.3" x1="42.188" y1="30.053" x2="37.859" y2="29.804"/>
 <path stroke-width="0.13" d="M46.716 12.432C46.716 12.432 46.618 13.925 46.021 13.925C45.423 13.925 43.88 13.875 43.88 13.875L43.82 16.44"/>
 <path stroke-width="0.13" d="M43.844 29.506C43.844 29.506 45.173 27.614 45.274 26.867C45.372 26.12 44.924 24.329 44.924 23.432C44.924 22.536 45.075 20.495 45.075 19.4C45.075 18.306 45.075 18.106 45.075 18.106C45.075 18.106 47.612 17.658 48.857 17.858C50.101 18.056 53.287 18.754 53.835 18.754"/>
 <line stroke-width="0.13" x1="60.506" y1="17.807" x2="50.848" y2="19.202"/>
 <line stroke-width="0.13" x1="60.057" y1="20.047" x2="50.401" y2="20.196"/>
 <line stroke-width="0.13" x1="62.048" y1="20.146" x2="69.117" y2="20.196"/>
 <g>
  <path stroke-width="0.3" d="M50.848 19.202C50.848 19.202 48.493 19.425 48.448 20.716C48.405 22.007 48.316 22.318 48.316 22.318C48.316 22.318 47.113 27.571 47.069 28.996C47.024 30.42 47.469 39.146 47.514 41.283C47.558 43.42 49.073 48.628 49.34 49.03C49.606 49.429 49.606 49.429 49.606 49.429C49.606 49.429 50.14 51.834 51.787 51.878C53.435 51.923 68.081 51.789 68.081 51.789"/>
  <path stroke-width="0.13" d="M68.081 51.789C68.081 51.789 69.728 52.546 69.861 48.451C69.995 44.354 69.728 42.975 69.728 42.975"/>
 </g>
 <path stroke-width="0.13" d="M50.401 20.196C49.429 20.138 48.625 20.917 48.316 22.318"/>
 <line stroke-width="0.13" x1="46.371" y1="13.705" x2="46.514" y2="16.038"/>
 <line stroke-width="0.13" x1="46.625" y1="17.893" x2="47.222" y2="27.718"/>
 <line stroke-width="0.13" x1="39.14" y1="30.815" x2="42.475" y2="30.939"/>
 <line stroke-width="0.13" x1="39.039" y1="32.709" x2="42.444" y2="32.814"/>
 <line stroke-width="0.13" x1="42.54" y1="36.969" x2="43.933" y2="36.936"/>
 <line stroke-width="0.13" x1="42.353" y1="38.923" x2="43.957" y2="38.86"/>
 <g>
  <path stroke-width="0.13" d="M38.719 37.859C38.719 37.566 38.6 37.299 38.408 37.107"/>
  <path stroke-width="0.3" d="M38.408 37.107C38.201 36.899 37.929 36.795 37.658 36.795C37.07 36.795 36.594 37.271 36.594 37.859C36.594 38.445 37.07 38.921 37.658 38.921C38.244 38.921 38.719 38.445 38.719 37.859"/>
 </g>
 <path stroke="none" fill="#000000" d="M38.655 37.859C38.655 37.584 38.484 37.393 38.302 37.213L38.515 37.002C38.719 37.206 38.784 37.548 38.784 37.859L38.655 37.859z"/>
 <path stroke="none" fill="#000000" d="M38.302 38.503L38.515 38.716C38.752 38.479 38.784 38.168 38.784 37.859L38.655 37.859C38.655 38.093 38.481 38.326 38.302 38.503z"/>
 <polygon stroke-width="0.13" points="38.381 37.859 38.018 37.232 37.295 37.232 36.933 37.859 37.295 38.484 38.018 38.484 38.381 37.859"/>
 <line stroke-width="0.13" x1="38.222" y1="36.959" x2="42.25" y2="36.959"/>
 <line stroke-width="0.13" x1="38.094" y1="38.828" x2="42.265" y2="38.828"/>
 <path stroke-width="0.3" d="M32.593 31.039C32.593 31.039 35.118 30.971 36.088 30.971C37.058 30.971 37.859 30.984 37.859 30.394"/>
 <line stroke-width="0.3" x1="34.959" y1="30.984" x2="34.959" y2="31.635"/>
 <line stroke-width="0.3" x1="34.959" y1="32.28" x2="34.959" y2="33.061"/>
 <line stroke-width="0.3" x1="34.957" y1="34.14" x2="34.957" y2="38.57"/>
 <line stroke-width="0.3" x1="36.347" y1="30.971" x2="36.34" y2="33.07"/>
 <line stroke-width="0.3" x1="36.335" y1="34.156" x2="36.316" y2="39.023"/>
 <path stroke-width="0.13" d="M39.204 11.759C39.204 11.759 39.204 10.859 39.46 10.051"/>
 <path stroke-width="0.13" d="M40.191 8.945C40.32 8.867 40.468 8.814 40.634 8.8C41.417 8.728 41.923 8.92 42.201 9.343"/>
 <path stroke-width="0.13" d="M42.466 10.644C42.465 10.711 42.46 10.778 42.454 10.848"/>
 <path stroke-width="0.13" d="M42.796 10.865C42.813 11.141 42.862 11.304 43.088 11.287C43.317 11.271 44.259 11.904 44.226 12.115C44.195 12.327 43.837 13.026 43.332 13.157"/>
 <path stroke-width="0.3" d="M38.051 41.103C38.051 41.103 38.405 42.665 38.375 42.665C38.347 42.665 37.375 42.96 37.581 43.225C37.786 43.49 38.2 43.49 38.2 43.52C38.2 43.548 37.963 45.875 37.963 45.875C37.963 45.875 37.433 45.816 37.463 46.286C37.493 46.759 37.493 47.052 37.493 47.052"/>
 <path stroke-width="0.3" d="M42.381 50.734C42.381 50.734 43.765 50.939 43.823 50.969C43.881 50.999 44.853 50.85 44.853 52.265C44.853 53.677 44.206 54.561 44.206 54.561C44.206 54.561 39.759 54.354 36.844 53.707C33.929 53.06 32.192 52.411 32.192 52.411L32.604 49.732C32.604 49.732 33.929 49.29 34.695 49.203C35.46 49.113 35.99 49.113 35.99 49.113"/>
 <path stroke-width="0.13" d="M32.869 49.88C32.869 49.88 39.259 51.204 40.024 51.439C40.79 51.676 43.588 51.704 44.295 51.469"/>
 <path stroke-width="0.13" d="M37.07 47.128C37.07 47.128 40.112 47.435 40.85 47.347C41.585 47.259 42.085 47.229 42.085 47.229"/>
 <path stroke-width="0.13" d="M37.122 49.152C37.201 49.121 38.847 49.762 39.996 49.732C41.143 49.703 41.968 49.585 41.968 49.585"/>
 <path stroke-width="0.3" d="M36.81 44.067C37.433 44.521 37.136 46.811 36.579 47.103"/>
 <path stroke-width="0.3" d="M37.122 49.152L37.168 50.35C37.168 50.35 38.317 51.174 40.024 51.234C41.732 51.292 42.292 51.234 42.292 51.234L42.381 50.734L42.439 49.85L41.968 49.585L42.085 47.229L42.057 46.17L41.673 45.875L41.555 43.902C41.555 43.902 42.204 43.755 42.204 43.49C42.204 43.225 41.85 42.813 41.762 42.841C41.673 42.871 41.645 41.103 41.645 41.103"/>
 <path stroke-width="0.13" d="M38.375 42.665C39.17 42.813 41.115 42.96 41.762 42.841"/>
 <path stroke-width="0.13" d="M38.2 43.52C39.435 43.844 41.32 43.973 41.555 43.902"/>
 <path stroke-width="0.13" d="M37.963 45.875C38.994 45.933 41.673 45.875 41.673 45.875"/>
 <path stroke-width="0.13" d="M42.057 41.252C43.116 42.223 43.264 44.374 41.732 45.433"/>
 <path stroke-width="0.13" d="M44.265 40.045C45.384 41.222 45.561 42.93 45.265 44.109C44.972 45.286 44.176 45.786 43.97 46.375C43.765 46.965 43.941 50.645 43.941 50.645"/>
 <path stroke-width="0.13" d="M26.87 36.113C26.87 36.113 26.628 37.689 27.128 38.072C27.629 38.454 27.835 39.015 27.775 39.456C27.742 39.707 27.879 42.52 28.01 44.996"/>
 <path stroke-width="0.13" d="M28.134 47.293C28.178 48.1 28.21 48.67 28.217 48.789C28.246 49.29 28.542 49.673 29.336 49.732C30.132 49.79 32.399 50.115 32.399 50.115"/>
 <path stroke-width="0.13" d="M27.385 36.192C27.385 36.192 27.361 36.35 27.346 36.573C27.327 36.845 27.315 37.222 27.391 37.512C27.407 37.572 27.451 37.661 27.451 37.661C27.771 37.906 28.001 38.215 28.14 38.531C28.288 38.869 28.333 39.218 28.294 39.517C28.271 39.829 28.384 42.167 28.501 44.414"/>
 <path stroke-width="0.13" d="M28.664 47.432C28.687 47.832 28.739 48.761 28.739 48.761L28.739 48.759C28.745 48.868 28.768 48.969 28.843 49.042C28.876 49.073 28.917 49.1 28.966 49.121C29.074 49.17 29.208 49.2 29.375 49.212C29.911 49.252 31.111 49.409 31.853 49.512L32.47 49.597"/>
 <path stroke-width="0.13" d="M26.214 46.61C26.214 46.61 25.743 46.523 25.714 46.021C25.684 45.521 25.684 42.725 25.684 42.725C25.684 42.725 25.626 42.429 26.097 42.518C26.568 42.606 26.981 42.576 27.01 42.636C27.039 42.695 27.128 42.96 27.158 44.109C27.187 45.256 27.216 45.463 27.216 45.463"/>
 <path stroke-width="0.13" d="M45.795 51.204C45.795 51.204 46.091 54.737 46.031 56.033C45.972 57.329 47.268 58.329 48.505 58.506C49.741 58.683 54.982 58.918 56.042 58.801C57.103 58.683 59.634 58.154 60.578 57.564C61.52 56.975 63.698 56.798 64.935 56.682C66.171 56.564 70.846 56.798 70.846 56.798"/>
 <path stroke-width="0.13" d="M44.884 51.274L44.957 52.238C45.037 53.345 45.155 55.152 45.118 55.991C45.091 56.563 45.24 57.095 45.517 57.567C45.807 58.067 46.246 58.496 46.762 58.817C47.256 59.127 47.82 59.334 48.375 59.412C49.649 59.594 55.051 59.832 56.143 59.71C57.295 59.582 60.039 58.979 61.063 58.341C61.917 57.807 63.901 57.698 65.022 57.591C65.825 57.515 68.114 57.597 69.551 57.656L69.546 57.656L70.805 57.713"/>
 <path stroke-width="0.3" d="M44.487 54.042C44.527 54.789 44.552 55.518 44.533 55.966C44.502 56.652 44.679 57.295 45.011 57.863C45.348 58.442 45.854 58.942 46.451 59.314C47.017 59.667 47.661 59.902 48.292 59.991C49.591 60.177 55.095 60.417 56.209 60.292C57.418 60.158 60.296 59.509 61.372 58.837C62.064 58.405 63.566 58.307 64.621 58.216L65.078 58.174C65.865 58.1 68.114 58.182 69.525 58.241L69.521 58.241L70.778 58.298"/>
 <line stroke-width="0.13" x1="44.884" y1="51.274" x2="45.795" y2="51.204"/>
 <g>
  <path stroke-width="0.13" d="M49.045 56.709C49.045 56.439 48.826 56.219 48.554 56.219C48.284 56.219 48.066 56.439 48.066 56.709C48.066 56.978 48.284 57.198 48.554 57.198C48.826 57.198 49.045 56.978 49.045 56.709"/>
 </g>
 <g>
  <path stroke-width="0.13" d="M49.493 56.709C49.493 56.191 49.073 55.77 48.554 55.77C48.036 55.77 47.616 56.191 47.616 56.709C47.616 57.228 48.036 57.648 48.554 57.648C49.073 57.648 49.493 57.228 49.493 56.709"/>
 </g>
 <path stroke-width="0.13" d="M27.329 72.388C31.041 71.206 44.783 63.947 47.555 60.033"/>
 <path stroke-width="0.13" d="M31.998 72.612C37.756 69.938 48.098 64.001 50.533 60.563"/>
 <path stroke-width="0.13" d="M52.326 60.521C52.164 61.296 50.085 62.682 48.331 63.987C46.578 65.293 38.34 70.974 37.566 72.599"/>
 <path stroke-width="0.13" d="M57.384 60.317C57.384 62.438 56.079 64.763 52.857 66.76C49.636 68.759 44.661 71.831 44.09 72.599"/>
 <line stroke-width="0.13" x1="56.728" y1="62.906" x2="70.846" y2="62.906"/>
 <path stroke-width="0.13" d="M44.691 62.747L38.095 62.682C38.095 62.682 36.587 62.682 36.628 64.477C36.668 66.272 36.518 67.96 36.518 67.96"/>
 <path stroke-width="0.3" d="M31.449 51.223C31.449 51.223 25.617 53.386 24.843 54.567C24.068 55.75 23.823 57.707 25.454 58.89C27.085 60.073 29.736 61.134 31.367 61.582C32.997 62.03 35.363 62.561 37.77 61.5C40.174 60.439 41.978 56.171 42.015 54.411"/>
 <path stroke-width="0.3" d="M28.553 54.771C28.96 55.506 30.469 56.198 31.245 56.322C32.02 56.444 32.917 56.811 34.426 56.811C35.935 56.811 37.412 55.027 37.082 53.759"/>
 <path stroke-width="0.13" d="M33.283 52.978C33.283 53.957 32.875 55.914 31.571 56.158"/>
 <path stroke-width="0.13" d="M27.987 52.654C30.306 52.61 31.766 55.237 30.995 56.268"/>
 <line stroke-width="0.3" x1="32.731" y1="56.646" x2="36.844" y2="53.707"/>
 <g>
  <path stroke-width="0.13" d="M61.627 18.492C61.627 18.242 61.426 18.042 61.176 18.042C60.929 18.042 60.728 18.242 60.728 18.492C60.728 18.739 60.929 18.942 61.176 18.942C61.426 18.942 61.627 18.739 61.627 18.492"/>
 </g>
 <g>
  <path stroke-width="0.13" d="M62.183 18.492C62.183 17.936 61.732 17.484 61.176 17.484C60.621 17.484 60.17 17.936 60.17 18.492C60.17 19.047 60.621 19.498 61.176 19.498C61.732 19.498 62.183 19.047 62.183 18.492"/>
 </g>
 <line stroke-width="0.13" x1="60.192" y1="18.277" x2="58.555" y2="18.484"/>
 <polyline stroke-width="0.13" points="57.756 18.585 54.759 18.961 54.759 19.304 57.776 19.292"/>
 <line stroke-width="0.13" x1="58.524" y1="19.289" x2="60.064" y2="19.283"/>
 <line stroke-width="0.13" x1="60.17" y1="18.492" x2="60.057" y2="20.047"/>
 <line stroke-width="0.13" x1="62.159" y1="18.71" x2="62.048" y2="20.146"/>
 <polyline stroke-width="0.13" points="62.121 19.219 65.775 19.175 65.712 18.92 62.171 18.336"/>
 <line stroke-width="0.13" x1="61.991" y1="17.9" x2="68.813" y2="19.283"/>
 <path stroke-width="0.13" d="M65.989 19.368L68.941 19.411C68.941 19.411 70.846 19.454 70.846 20.823"/>
 <line stroke-width="0.13" x1="50.213" y1="19.312" x2="54.353" y2="19.368"/>
 <line stroke-width="0.13" x1="57.756" y1="18.585" x2="57.776" y2="19.292"/>
 <line stroke-width="0.13" x1="58.555" y1="18.484" x2="58.524" y2="19.289"/>
 <path stroke-width="0.13" d="M69.117 20.196C69.316 20.288 70.042 20.504 70.006 21.809C69.969 23.114 70.006 26.666 70.006 26.666L70.621 26.774"/>
 <path stroke-width="0.13" d="M69.063 21.882C67.975 24.853 67.686 37.573 68.013 41.706C68.338 45.837 68.81 49.715 68.81 49.715"/>
 <line stroke-width="0.13" x1="69.534" y1="31.992" x2="69.68" y2="27.463"/>
 <path stroke-width="0.13" d="M70.846 30.797C70.846 30.797 69.68 30.942 69.534 31.992C69.39 33.043 68.99 35.399 69.027 36.813C69.063 38.226 69.268 42.103 69.498 42.539C69.728 42.975 70.308 43.698 70.846 43.807"/>
 <path stroke-width="0.13" d="M49.927 49.57C50.218 50.078 50.689 50.911 51.667 50.875C52.646 50.838 52.936 50.765 52.972 50.765C53.009 50.765 53.045 51.454 53.045 51.527"/>
 <path stroke-width="0.13" d="M65.766 51.527C65.766 51.527 65.873 50.911 65.911 50.875C65.947 50.838 68.084 50.911 68.084 50.911C68.084 50.911 68.653 51.054 68.786 49.515C68.918 47.975 68.918 46.164 68.918 46.164L69.899 46.085"/>
 <text transform="matrix(0 -1 1 0 70.103 71.545)" stroke="none" fill="#000000" font-family="'Arial'" font-size="2.117">322 858</text>
 <line stroke-width="0.3" x1="15.316" y1="50.06" x2="15.327" y2="49.387"/>
 <line stroke-width="0.3" x1="38.462" y1="19.577" x2="38.793" y2="19.352"/>
 <line stroke-width="0.3" x1="38.462" y1="21.079" x2="38.701" y2="21.26"/>
 <path stroke-width="0.3" d="M34.892 31.643C35.017 31.811 35.128 32.088 34.959 32.28"/>
</svg>
