<?xml version="1.0" encoding="utf-8"?>
<!DOCTYPE svg PUBLIC "-//W3C//DTD SVG 1.1//EN" "http://www.w3.org/Graphics/SVG/1.1/DTD/svg11.dtd">
<!-- Generator: PTC Arbortext IsoDraw 7.3 -->
<svg id="Standard_x0020_layer" width="100%" height="100%" viewBox="0 0 143.631 73.536"
 xmlns="http://www.w3.org/2000/svg" xmlns:xlink="http://www.w3.org/1999/xlink"
 fill-rule="evenodd" clip-rule="evenodd" stroke="#000000" stroke-linecap="round" fill="none" xml:space="preserve">
 <path stroke="none" fill="#BFBFBF" d="M108.959 58.466L107.45 58.284 107.816 56.03 108.128 55.823 108.048 55.319C108.048 55.319 107.769 55.103 107.769 55.07 107.769 55.036 108.152 51.734 108.152 51.734L108.668 51.347 108.379 50.783C108.379 50.783 109.225 50.688 109.245 50.689 109.266 50.691 110.338 51.07 110.338 51.07L110.025 51.588 110.152 52.194C110.152 52.194 109.855 55.319 109.82 55.319 109.786 55.32 109.304 55.862 109.304 55.862L108.959 58.466z"/>
 <g>
  <path stroke-width="0.3" d="M20.85 27.917C20.85 24.39 17.992 21.533 14.468 21.533C12.705 21.533 11.108 22.248 9.954 23.402"/>
  <path stroke-width="0.13" d="M9.954 23.402C8.707 24.649 8.083 26.283 8.083 27.917C8.083 31.442 10.942 34.299 14.468 34.299C17.992 34.299 20.85 31.442 20.85 27.917"/>
 </g>
 <path stroke="none" fill="#000000" d="M10.06 23.509C8.843 24.725 8.148 26.321 8.148 27.917L8.019 27.917C8.019 26.245 8.571 24.573 9.848 23.297L10.06 23.509z"/>
 <path stroke="none" fill="#000000" d="M18.934 32.384L19.027 32.476C20.286 31.216 21.001 29.567 21.001 27.917L20.701 27.917C20.701 29.533 20.169 31.15 18.934 32.384z"/>
 <g>
  <path stroke-width="0.13" d="M19.143 27.778C19.143 26.71 18.803 25.719 18.234 24.928"/>
  <path stroke-width="0.13" d="M16.94 23.673C15.955 23.019 14.821 22.768 13.742 22.876"/>
  <path stroke-width="0.13" d="M12.127 23.32C11.173 23.766 10.429 24.481 9.954 25.315"/>
  <path stroke-width="0.13" d="M9.339 27.106C9.18 28.257 9.433 29.371 9.98 30.289"/>
  <path stroke-width="0.13" d="M11.413 31.826C12.346 32.473 13.426 32.753 14.464 32.698"/>
  <path stroke-width="0.13" d="M16.079 32.338C17.297 31.841 18.21 30.911 18.708 29.803"/>
  <path stroke-width="0.13" d="M19.114 28.314C19.135 28.126 19.144 27.94 19.143 27.778"/>
 </g>
 <path stroke-width="0.13" d="M9.98 30.289C9.98 30.289 9.337 30.553 9.65 30.963C9.961 31.371 10.839 31.937 10.839 32.073C10.839 32.21 11.09 32.106 11.413 31.826"/>
 <path stroke-width="0.13" d="M9.339 27.106L8.772 26.946C8.772 26.946 8.577 26.576 8.791 25.873C9.006 25.172 9.006 25.172 9.006 25.172C9.006 25.172 9.532 25.015 9.864 25.269"/>
 <path stroke-width="0.13" d="M12.127 23.32L11.852 22.696C11.852 22.696 12.028 22.481 12.573 22.286C13.119 22.091 13.548 21.896 13.587 22.111C13.627 22.326 13.742 22.876 13.742 22.876"/>
 <path stroke-width="0.13" d="M16.94 23.673L17.35 23.262C17.35 23.262 17.681 23.184 17.993 23.457C18.306 23.73 18.637 24.08 18.675 24.333C18.714 24.588 18.457 24.818 18.234 24.928"/>
 <path stroke-width="0.13" d="M19.114 28.314C19.114 28.314 19.748 28.37 19.728 28.545C19.708 28.721 19.573 29.792 19.513 29.968C19.455 30.143 18.708 29.803 18.708 29.803"/>
 <path stroke-width="0.13" d="M16.079 32.338L16.199 32.737C16.199 32.737 16.161 32.911 15.83 32.99C15.497 33.067 15.089 33.204 14.894 33.204C14.698 33.204 14.542 33.243 14.464 32.698"/>
 <path stroke-width="0.3" d="M9.954 23.402L4.216 23.059C4.216 23.059 2.774 23.327 2.827 24.501C2.879 25.676 2.827 26.211 3.093 26.158C3.36 26.105 4.482 26.318 4.429 26.425C4.376 26.532 4.216 33.902 4.216 33.902C4.216 33.902 3.146 33.741 2.934 34.811C2.719 35.878 3.04 37 3.36 37.106C3.681 37.213 3.681 37.213 3.681 37.213C3.681 37.213 3.948 51.314 3.842 52.435C3.734 53.557 4.322 53.984 5.23 55C6.137 56.015 7.527 58.043 8.595 58.151C9.663 58.258 23.07 58.417 24.939 58.365C26.807 58.31 27.983 58.043 28.571 57.296C29.158 56.548 30.707 53.237 30.76 52.649C30.814 52.061 30.493 36.732 30.493 36.732C30.493 36.732 30.065 34.383 30.653 34.383C31.24 34.383 31.24 34.543 31.24 34.383C31.24 34.31 31.175 33.057 31.102 31.718"/>
 <path stroke-width="0.3" d="M30.954 29.027C30.934 28.643 30.92 28.4 30.92 28.4C30.92 28.4 30.12 26.585 27.716 26.532C25.312 26.478 20.652 26.335 20.655 26.347"/>
 <path stroke-width="0.13" d="M22.536 30.538L22.481 40.311C22.481 40.311 22.748 41.167 23.817 41.167C24.885 41.167 25.687 41.112 25.687 41.112C25.687 41.112 26.594 41.167 26.647 39.618C26.701 38.069 26.541 30.911 26.541 30.911C26.541 30.911 26.701 30.056 25.579 30.004C24.457 29.949 22.536 30.431 22.536 30.538z"/>
 <line stroke-width="0.13" x1="4.161" y1="34.222" x2="22.513" y2="34.298"/>
 <line stroke-width="0.13" x1="26.608" y1="34.316" x2="30.12" y2="34.329"/>
 <line stroke-width="0.13" x1="4.269" y1="36.893" x2="22.501" y2="36.74"/>
 <line stroke-width="0.13" x1="26.644" y1="36.704" x2="29.638" y2="36.679"/>
 <line stroke-width="0.13" x1="5.764" y1="37.695" x2="5.764" y2="51.527"/>
 <path stroke-width="0.13" d="M6.084 52.81C6.137 52.863 8.756 56.442 8.756 56.442C8.756 56.442 9.877 56.816 10.731 56.868C11.586 56.923 25.687 56.923 25.687 56.923C25.687 56.923 27.074 56.601 27.396 55.801C27.716 55 27.716 54.411 27.716 54.411C27.716 54.411 27.503 50.192 27.556 50.14C27.609 50.085 27.236 48.591 28.518 48.536"/>
 <line stroke-width="0.13" x1="28.623" y1="47.789" x2="28.356" y2="37.054"/>
 <line stroke-width="0.13" x1="20.85" y1="27.917" x2="21.359" y2="34.293"/>
 <line stroke-width="0.13" x1="8.083" y1="27.917" x2="7.527" y2="34.237"/>
 <g>
  <path stroke-width="0.13" d="M5.395 24.929C5.395 24.365 4.939 23.908 4.376 23.908C3.812 23.908 3.355 24.365 3.355 24.929C3.355 25.492 3.812 25.949 4.376 25.949C4.939 25.949 5.395 25.492 5.395 24.929"/>
 </g>
 <path stroke-width="0.3" d="M13.319 58.273C13.371 59.252 13.089 62.115 13.526 63.07C13.965 64.025 14.069 65.623 13.992 65.933C13.913 66.243 13.656 66.733 13.656 66.733C13.656 66.733 13.114 66.32 12.855 67.945C12.598 69.572 11.644 72.819 11.644 72.819"/>
 <path stroke-width="0.3" d="M19.027 58.347C19.1 59.406 19.382 61.109 19.074 62.09C18.763 63.07 18.376 65.367 18.326 66.346C18.274 67.326 18.661 67.352 18.687 67.868C18.713 68.385 18.376 69.933 18.376 69.933C18.376 69.933 20.157 70.552 20.39 70.757C20.621 70.965 20.725 71.197 21.292 71.325C21.859 71.454 25.832 71.79 27.949 70.448C30.064 69.106 33.726 66.656 33.726 66.656"/>
 <path stroke-width="0.13" d="M17.913 69.881C15.435 70.423 15.204 71.661 15.849 72.486"/>
 <path stroke-width="0.3" d="M21.707 58.368C21.707 58.368 21.783 62.941 21.809 63.689C21.833 64.438 21.37 66.656 20.853 67.792C20.338 68.927 20.106 70.138 20.106 70.448"/>
 <path stroke-width="0.3" d="M23.983 58.375C24.31 60.412 24.234 63.689 24.105 64.772C23.975 65.856 23.047 68.566 22.608 69.417C22.17 70.268 22.091 71.42 22.091 71.42"/>
 <path stroke-width="0.3" d="M25.57 58.337C25.91 60.026 27.097 63.612 26.4 64.772C25.704 65.933 22.449 70.472 22.452 71.441"/>
 <path stroke-width="0.3" d="M27.539 57.994C28.025 59.664 28.954 62.554 28.722 63.612C28.489 64.67 27.612 66.862 26.736 68.203C25.859 69.546 24.503 71.034 24.859 71.373"/>
 <path stroke-width="0.13" d="M13.287 60.179C14.275 60.542 18.376 60.31 19.047 60.128"/>
 <path stroke-width="0.13" d="M21.716 58.863C22.324 58.865 23.745 58.981 24.041 58.781"/>
 <path stroke-width="0.13" d="M21.745 60.593C22.582 60.697 23.868 60.771 24.179 60.49"/>
 <line stroke-width="0.13" x1="25.652" y1="58.713" x2="27.632" y2="58.316"/>
 <line stroke-width="0.13" x1="25.932" y1="59.859" x2="27.96" y2="59.421"/>
 <path stroke-width="0.3" d="M37.314 25.92C36.435 25.983 35.682 26.004 35.137 25.961C34.593 25.92 32.542 24.894 32.06 24.853C31.579 24.811 30.658 24.957 30.596 25.731C30.533 26.506 31.013 26.841 31.495 27.489C31.977 28.138 32.039 28.495 31.998 28.788C31.955 29.08 31.955 29.08 31.955 29.08"/>
 <path stroke-width="0.13" d="M34.613 26.045C33.442 26.045 32.124 27.28 32.143 28.181"/>
 <g>
  <path stroke-width="0.13" d="M32.459 25.878C32.459 25.496 32.149 25.187 31.768 25.187C31.385 25.187 31.077 25.496 31.077 25.878C31.077 26.26 31.385 26.568 31.768 26.568C32.149 26.568 32.459 26.26 32.459 25.878"/>
 </g>
 <g>
  <path stroke-width="0.3" d="M44.18 23.24C44.18 22.673 43.72 22.214 43.154 22.214C42.587 22.214 42.128 22.673 42.128 23.24C42.128 23.807 42.587 24.268 43.154 24.268C43.72 24.268 44.18 23.807 44.18 23.24"/>
 </g>
 <g>
  <path stroke-width="0.13" d="M43.594 23.24C43.594 22.998 43.396 22.8 43.154 22.8C42.911 22.8 42.713 22.998 42.713 23.24C42.713 23.484 42.911 23.681 43.154 23.681C43.396 23.681 43.594 23.484 43.594 23.24"/>
 </g>
 <path stroke-width="0.3" d="M39.832 28.67C39.832 28.67 39.301 28.646 39.024 28.823C38.746 29 38.746 29 38.746 29C38.746 29 30.025 29.05 30.025 29.024C30.025 29 29.621 29.454 29.621 30.06C29.621 30.667 29.798 31.123 29.899 31.425C30.001 31.73 30.001 31.73 30.001 31.73L38.493 31.628C38.493 31.628 38.948 31.931 39.277 31.957"/>
 <path stroke-width="0.3" d="M39.353 31.577L39.353 32.158C39.353 32.158 39.1 32.462 39.933 32.411C40.768 32.36 41.93 32.436 42.259 32.387C42.588 32.335 42.966 32.664 42.966 32.158C42.966 31.653 42.713 31.477 42.713 31.477C41.45 31.425 39.277 31.3 39.353 31.577z"/>
 <path stroke-width="0.3" d="M39.289 27.686L39.289 28.266C39.289 28.266 39.036 28.57 39.871 28.519C40.704 28.469 41.866 28.545 42.195 28.493C42.524 28.443 42.904 28.771 42.904 28.266C42.904 27.76 42.651 27.583 42.651 27.583C41.387 27.533 39.213 27.407 39.289 27.686z"/>
 <line stroke-width="0.3" x1="42.692" y1="28.553" x2="116.266" y2="28.96"/>
 <line stroke-width="0.3" x1="118.025" y1="28.971" x2="126.617" y2="29.018"/>
 <line stroke-width="0.3" x1="42.966" y1="32.158" x2="115.843" y2="32.619"/>
 <line stroke-width="0.3" x1="117.935" y1="32.634" x2="126.424" y2="32.686"/>
 <path stroke-width="0.3" d="M37.491 29.007L37.548 23.794C37.548 23.794 37.453 21.309 38.249 21.149C39.045 20.99 44.588 20.958 44.906 21.022C45.225 21.085 45.543 21.181 45.512 21.882C45.479 22.583 45.734 23.379 45.033 24.399C44.334 25.419 43.792 26.757 44.11 27.329C44.429 27.903 44.779 28.561 44.779 28.561"/>
 <path stroke-width="0.13" d="M41.371 22.361C41.594 21.946 43.442 20.193 45.002 22.678"/>
 <line stroke-width="0.13" x1="18.4" y1="22.89" x2="37.57" y2="22.846"/>
 <path stroke-width="0.3" d="M17.254 22.173C17.32 21.66 17.478 20.83 17.797 20.768C18.115 20.704 18.115 20.736 18.115 20.704C18.115 20.672 18.37 17.868 19.295 17.868C20.219 17.868 20.76 19.079 20.728 19.812C20.696 20.545 20.824 20.672 20.824 20.672C20.824 20.672 29.138 20.704 30.189 20.385C31.24 20.067 34.17 19.397 34.871 19.239C35.573 19.079 36.529 19.301 36.529 19.301L36.561 19.556L39.777 19.461C39.777 19.461 39.905 19.301 39.905 19.271C39.905 19.239 43.982 19.844 44.524 19.908C45.066 19.971 46.786 20.64 47.423 20.576C48.06 20.513 59.146 20.289 59.146 20.289L59.241 20.067L61.631 20.035L61.917 20.257L79.917 20.193L79.917 19.812C79.917 19.812 82.465 19.652 82.465 19.716C82.465 19.78 82.528 20.225 82.528 20.225C82.528 20.225 93.2 20.225 94.219 20.193C95.239 20.163 98.201 19.684 99.093 19.301C99.986 18.92 101.1 19.015 101.1 19.015C101.1 19.015 101.132 19.365 101.132 19.397C101.132 19.429 104.382 19.397 104.382 19.397L104.382 19.079C104.382 19.079 105.879 18.984 107.471 19.271C109.064 19.556 110.816 20.385 112.123 20.385C113.429 20.385 123.558 20.257 123.558 20.257C123.558 20.257 124.802 20.193 125.152 20.704C125.503 21.213 125.917 23.221 125.852 23.762C125.789 24.303 125.724 29.082 125.724 29.05"/>
 <path stroke-width="0.3" d="M89.986 20.219C89.918 21.085 90.237 22.169 90.62 22.265C91.003 22.361 91.608 22.423 91.608 22.423C91.608 22.423 103.84 22.678 103.871 22.678C103.903 22.678 104.063 28.603 104.063 28.603"/>
 <path stroke-width="0.3" d="M126.424 32.686C127.176 31.905 127.501 29.481 126.617 29.018"/>
 <path stroke-width="0.3" d="M116.266 28.96C116.266 28.765 116.716 28.704 117.093 28.719C117.468 28.734 117.995 28.8 118.01 28.885C118.025 28.971 118.025 28.971 118.025 28.971C118.025 28.971 117.89 30.539 117.813 31.018C117.739 31.5 117.844 32.399 117.935 32.634C118.025 32.868 117.364 33.048 116.822 33.033C116.281 33.018 115.801 32.883 115.771 32.326C115.74 31.771 115.816 29.382 116.266 28.96z"/>
 <g>
  <path stroke-width="0.13" d="M123.019 23.565C123.019 22.425 122.096 21.501 120.954 21.501C119.813 21.501 118.888 22.425 118.888 23.565C118.888 24.707 119.813 25.632 120.954 25.632C122.096 25.632 123.019 24.707 123.019 23.565"/>
 </g>
 <g>
  <path stroke-width="0.3" d="M122.308 23.565C122.308 22.818 121.701 22.213 120.954 22.213C120.207 22.213 119.602 22.818 119.602 23.565C119.602 24.312 120.207 24.919 120.954 24.919C121.701 24.919 122.308 24.312 122.308 23.565"/>
 </g>
 <g>
  <path stroke-width="0.13" d="M121.617 23.565C121.617 23.201 121.319 22.903 120.954 22.903C120.588 22.903 120.293 23.201 120.293 23.565C120.293 23.931 120.588 24.228 120.954 24.228C121.319 24.228 121.617 23.931 121.617 23.565"/>
 </g>
 <path stroke-width="0.13" d="M120.778 20.292L120.864 18.698C120.864 18.698 121.286 17.375 122.367 17.466C123.448 17.556 123.509 18.486 123.509 18.847C123.509 19.208 123.558 20.257 123.558 20.257"/>
 <polyline stroke-width="0.13" points="101.132 19.397 101.12 20.501 104.305 20.501 104.382 19.397"/>
 <path stroke-width="0.13" d="M79.802 20.185L79.89 18.591C79.89 18.591 80.311 17.268 81.391 17.359C82.474 17.449 82.534 18.381 82.534 18.74C82.534 19.102 82.584 20.15 82.584 20.15"/>
 <path stroke-width="0.13" d="M58.85 20.068L58.936 18.475C58.936 18.475 59.357 17.152 60.439 17.242C61.521 17.332 61.581 18.263 61.581 18.625C61.581 18.986 61.631 20.035 61.631 20.035"/>
 <polyline stroke-width="0.13" points="36.561 19.556 36.631 20.573 39.92 20.573 39.92 19.37"/>
 <polyline stroke-width="0.13" points="11.724 21.814 11.724 17.155 19.452 16.696 126.472 16.277"/>
 <line stroke-width="0.3" x1="0.15" y1="12.512" x2="133.854" y2="11.614"/>
 <line stroke-width="0.13" x1="34.706" y1="9.321" x2="37.935" y2="12.257"/>
 <line stroke-width="0.13" x1="39.926" y1="9.321" x2="43.061" y2="12.224"/>
 <line stroke-width="0.13" x1="47.997" y1="20.55" x2="54.718" y2="26.983"/>
 <line stroke-width="0.13" x1="52.82" y1="20.425" x2="56.868" y2="23.861"/>
 <g>
  <path stroke-width="0.13" d="M59.749 26.446C59.749 25.01 58.585 23.846 57.149 23.846C57.049 23.846 56.951 23.852 56.868 23.861"/>
  <path stroke-width="0.13" d="M54.581 26.85C54.7 27.606 55.133 28.234 55.729 28.623"/>
  <path stroke-width="0.13" d="M58.539 28.643C59.317 28.15 59.744 27.315 59.749 26.446"/>
 </g>
 <g>
  <path stroke-width="0.13" d="M58.121 26.728C58.121 26.219 57.709 25.806 57.2 25.806C56.691 25.806 56.279 26.219 56.279 26.728C56.279 27.236 56.691 27.649 57.2 27.649C57.709 27.649 58.121 27.236 58.121 26.728"/>
 </g>
 <path stroke-width="0.13" d="M59.323 25.018C59.368 25.091 64.376 24.888 65.025 24.856C65.671 24.824 65.64 24.013 66.676 24.143C67.712 24.272 67.808 24.24 68.23 24.629C68.65 25.018 68.813 24.888 68.844 24.824C68.876 24.759 72.858 24.984 73.376 24.92C73.894 24.856 74.025 23.885 74.736 23.981C75.448 24.079 75.287 24.565 76.096 24.725C76.906 24.888 82.831 24.629 82.896 24.629C82.96 24.629 83.575 24.5 83.867 24.175C84.158 23.852 85.227 23.917 85.486 24.338C85.745 24.759 85.745 24.759 85.81 24.759C85.873 24.759 90.989 24.856 90.989 24.856C90.989 24.856 91.917 22.431 93.897 22.472"/>
 <path stroke-width="0.13" d="M126.871 16.727C126.914 18.356 127.29 22.492 127.456 23.62C127.623 24.748 128.126 25.667 129.881 25.792C131.634 25.919 143.566 26.378 143.566 26.378"/>
 <path stroke-width="0.13" d="M125.802 24.952C126.621 26.504 128.335 27.256 130.382 27.297C132.429 27.338 143.566 27.422 143.566 27.422"/>
 <path stroke-width="0.13" d="M133.931 25.989C134.727 25.792 134.895 25 135.062 23.996C135.229 22.993 136.314 22.66 137.276 22.951C138.236 23.245 138.487 23.829 138.487 24.623C138.487 25.417 138.907 26.195 138.907 26.195"/>
 <g>
  <path stroke-width="0.13" d="M137.902 24.748C137.902 24.24 137.491 23.829 136.984 23.829C136.475 23.829 136.063 24.24 136.063 24.748C136.063 25.256 136.475 25.667 136.984 25.667C137.491 25.667 137.902 25.256 137.902 24.748"/>
 </g>
 <g>
  <path stroke-width="0.13" d="M127.165 15.932C127.29 14.512 130.641 11.808 133.854 11.614"/>
  <path stroke-width="0.3" d="M133.854 11.614C137.067 11.419 143.167 11.628 143.167 11.628"/>
 </g>
 <path stroke-width="0.3" d="M124.686 32.676C124.659 34.554 123.228 39.136 121.983 39.375C120.739 39.612 107.123 39.322 107.123 39.322"/>
 <path stroke-width="0.13" d="M124.575 33.74C124.575 33.734 126.936 36.911 127.149 37.468C127.361 38.024 127.096 39.216 125.903 39.162C124.712 39.109 122.515 39.036 122.515 39.036"/>
 <g>
  <path stroke-width="0.13" d="M126.751 37.97C126.751 37.604 126.454 37.308 126.09 37.308C125.724 37.308 125.427 37.604 125.427 37.97C125.427 38.335 125.724 38.633 126.09 38.633C126.454 38.633 126.751 38.335 126.751 37.97"/>
 </g>
 <path stroke-width="0.3" d="M108.582 50.643C108.582 50.643 110.042 50.716 110.152 50.844C110.26 50.972 110.48 51.082 110.224 51.281C109.968 51.482 110.006 51.792 110.006 51.792C110.006 51.792 110.152 51.993 110.152 52.194C110.152 52.395 109.878 54.694 109.859 55.021C109.841 55.35 109.677 55.496 109.513 55.588C109.349 55.679 109.239 56.024 109.239 56.024L109.349 56.243C109.349 56.243 109.021 58.159 109.021 58.341"/>
 <path stroke-width="0.3" d="M108.582 50.643C108.334 50.61 108.334 50.892 108.453 51.024C108.572 51.158 108.661 51.35 108.453 51.514C108.245 51.676 108.156 51.646 108.128 51.81C108.097 51.972 107.816 54.637 107.787 54.859C107.757 55.082 107.742 55.215 107.935 55.319C108.128 55.423 108.128 55.704 108.128 55.823C108.128 55.941 107.95 55.956 107.816 56.03C107.683 56.103 107.506 57.688 107.432 57.999C107.358 58.31 107.209 58.25 108.039 58.399C108.867 58.546 108.98 58.607 109.025 58.271"/>
 <path stroke-width="0.13" d="M108.76 50.654C108.763 49.515 109.653 48.329 110.451 48.271C111.251 48.212 111.665 47.975 111.606 47.707"/>
 <g>
  <path stroke-width="0.13" d="M109.04 50.655C109.042 50.143 109.245 49.621 109.534 49.222C109.802 48.85 110.141 48.575 110.472 48.549C110.972 48.512 111.337 48.405 111.555 48.274C111.686 48.195 111.775 48.1 111.826 48.006C111.891 47.892 111.908 47.771 111.881 47.648"/>
  <path stroke-width="0.3" d="M111.881 47.648C111.813 48.39 110.896 48.951 110.57 49.011C110.245 49.07 109.563 49.752 109.534 50.551"/>
 </g>
 <path stroke-width="0.3" d="M111.683 48.182C112.317 47.796 112.731 47.174 111.903 46.82C111.073 46.465 107.993 45.191 107.343 45.191"/>
 <path stroke-width="0.3" d="M111.239 48.118C111.192 47.707 110.599 47.174 109.89 46.939C109.179 46.701 107.993 46.198 107.402 46.139"/>
 <path stroke-width="0.3" d="M112.356 47.249C112.703 46.761 113.769 46.642 115.102 46.642C116.433 46.642 117.203 46.701 117.203 46.701C117.203 46.701 117.677 46.109 117.707 46.139C117.736 46.168 118.388 46.642 118.388 46.642L128.427 46.85C128.427 46.85 129.937 47.087 130.796 48.951C131.655 50.817 131.3 53.572 131.27 54.963C131.242 56.25 130.277 58.78 129.125 59.409"/>
 <path stroke-width="0.3" d="M126.028 59.716C121.926 59.845 114.831 59.811 113.709 59.612C112.198 59.347 109.37 58.738 109.349 56.243"/>
 <path stroke-width="0.13" d="M118.388 46.642C119.099 47.619 120.135 51.381 119.454 54.283C118.774 57.185 118.427 59.533 116.986 59.765"/>
 <g>
  <path stroke-width="0.13" d="M126.804 59.689C126.951 60.04 127.474 60.155 127.972 59.947C128.469 59.737 128.752 59.283 128.604 58.932C128.456 58.579 127.933 58.465 127.436 58.673C126.939 58.883 126.656 59.338 126.804 59.689"/>
 </g>
 <g>
  <path stroke-width="0.3" d="M126.117 60.087C126.43 60.676 127.358 60.796 128.193 60.354C128.61 60.134 128.925 59.814 129.096 59.476"/>
  <path stroke-width="0.13" d="M129.096 59.476C129.28 59.112 129.282 58.761 129.138 58.487C128.825 57.898 127.897 57.777 127.063 58.219C126.227 58.661 125.805 59.496 126.117 60.087"/>
 </g>
 <path stroke="none" fill="#000000" d="M128.967 59.46C129.134 59.128 129.212 58.767 129.08 58.518L129.195 58.457C129.353 58.753 129.425 59.097 129.224 59.493L128.967 59.46z"/>
 <path stroke="none" fill="#000000" d="M126.215 59.104L126.103 59.091C125.912 59.469 125.834 59.874 125.984 60.156L126.25 60.017C126.111 59.753 126.039 59.456 126.215 59.104z"/>
 <path stroke-width="0.13" d="M116.227 42.229L115.871 41.844C115.871 41.844 115.308 41.963 115.102 41.786C114.894 41.607 113.295 41.637 112.317 41.697C111.34 41.756 110.956 42.051 110.956 42.051C110.956 42.051 110.393 42.082 110.096 42.082C109.801 42.082 109.563 42.645 108.852 42.526C108.141 42.408 107.105 42.585 107.105 42.585"/>
 <path stroke-width="0.13" d="M116.227 42.229L114.539 42.526C114.539 42.526 113.62 42.792 113.739 43.591C113.858 44.392 113.887 44.895 114.686 44.835C115.486 44.777 125.111 42.822 126.266 42.436C127.421 42.051 131.241 41.194 132.128 41.518C133.018 41.844 133.728 43.444 133.728 44.213C133.728 44.984 133.431 51.262 133.431 51.262C133.431 51.262 133.106 51.231 132.929 51.616C132.751 52.002 132.81 52.357 132.81 52.357L132.722 55.555C132.722 55.555 133.372 71.662 133.847 72.819"/>
 <path stroke-width="0.13" d="M116.227 42.229C116.227 42.229 125.909 40.039 127.745 39.624C129.582 39.209 132.722 38.972 134.497 40.572C136.275 42.17 136.038 45.014 136.038 45.783C136.038 46.554 135.919 51.231 135.919 51.231C135.919 51.231 136.807 51.588 136.629 52.357C136.453 53.128 136.275 56.563 136.275 57.688C136.275 58.814 136.453 71.307 137.104 72.819"/>
 <path stroke-width="0.13" d="M127.036 46.554C127.036 46.554 125.85 45.96 125.85 44.954C125.85 43.948 127.569 43.77 128.161 43.77C128.752 43.77 129.227 44.658 129.227 44.658C129.227 44.658 132.425 44.895 133.254 44.481"/>
 <path stroke-width="0.13" d="M128.456 46.493C128.931 46.079 128.931 46.079 128.931 46.079C128.931 46.079 132.128 46.198 133.076 45.723"/>
 <path stroke-width="0.13" d="M136.038 44.549C137.992 44.658 138.348 46.317 138.348 47.146C138.348 47.975 138.169 55.201 138.169 55.201C138.169 55.201 138.822 55.673 138.822 55.97C138.822 56.267 139 59.109 139 59.168C139 59.228 138.644 59.643 138.644 59.643C138.644 59.643 138.703 71.781 139.651 72.819"/>
 <path stroke-width="0.13" d="M136.338 55.734L136.748 55.319C136.748 55.319 137.104 48.271 137.104 47.5C137.104 46.731 137.163 45.843 136.038 45.783"/>
 <line stroke-width="0.13" x1="133.431" y1="51.262" x2="135.563" y2="51.173"/>
 <line stroke-width="0.13" x1="132.742" y1="56.079" x2="135.86" y2="56.148"/>
 <line stroke-width="0.13" x1="136.748" y1="55.319" x2="138.169" y2="55.201"/>
 <line stroke-width="0.13" x1="138.644" y1="59.643" x2="136.296" y2="59.462"/>
 <path stroke-width="0.13" d="M116.465 44.692C116.438 44.993 116.191 45.377 115.808 45.377C115.426 45.377 115.426 45.377 115.426 45.377C115.426 45.377 115.152 45.759 114.329 45.841C113.509 45.923 109.9 46.005 109.9 46.005"/>
 <line stroke-width="0.13" x1="108.237" y1="39.344" x2="108.237" y2="42.485"/>
 <line stroke-width="0.13" x1="110.001" y1="39.377" x2="110.001" y2="42.082"/>
 <line stroke-width="0.13" x1="111.477" y1="39.401" x2="111.477" y2="41.825"/>
 <line stroke-width="0.13" x1="114.112" y1="39.438" x2="114.112" y2="41.655"/>
 <line stroke-width="0.13" x1="116.496" y1="39.46" x2="116.496" y2="42.17"/>
 <line stroke-width="0.13" x1="117.95" y1="39.468" x2="117.95" y2="41.835"/>
 <line stroke-width="0.13" x1="119.251" y1="43.981" x2="119.251" y2="46.499"/>
 <line stroke-width="0.13" x1="122.981" y1="46.554" x2="124.186" y2="42.942"/>
 <g>
  <path stroke-width="0.13" d="M122.631 44.774C122.631 44.408 122.334 44.112 121.968 44.112C121.603 44.112 121.307 44.408 121.307 44.774C121.307 45.14 121.603 45.435 121.968 45.435C122.334 45.435 122.631 45.14 122.631 44.774"/>
 </g>
 <path stroke-width="0.13" d="M129.004 44.555C129.127 44.493 127.938 44.555 127.965 44.993C127.992 45.432 127.927 46.067 128.931 46.079"/>
 <path stroke-width="0.13" d="M129.79 27.265C129.79 27.265 129.826 33.276 129.826 34.042C129.826 34.808 128.86 36.582 126.429 36.311"/>
 <g>
  <path stroke-width="0.13" d="M129.12 33.768C129.12 33.402 128.823 33.106 128.457 33.106C128.092 33.106 127.796 33.402 127.796 33.768C127.796 34.134 128.092 34.429 128.457 34.429C128.823 34.429 129.12 34.134 129.12 33.768"/>
 </g>
 <path stroke-width="0.3" d="M106.938 32.564C106.938 32.564 107.212 45.048 107.266 46.854C107.322 48.661 107.212 57.204 107.048 58.628C106.884 60.051 107.322 62.625 105.076 63.173C102.831 63.719 99.052 63.665 98.67 64.049C98.287 64.432 95.876 64.376 95.876 64.376C95.876 64.376 95.768 66.239 93.304 66.457C90.84 66.677 86.349 67.17 85.528 66.677C84.706 66.183 81.968 65.198 81.968 65.198L60.395 65.254C60.395 65.254 57.274 66.129 56.89 66.457C56.506 66.787 52.127 66.95 50.375 66.841C48.621 66.731 46.432 66.567 46.158 65.581C45.884 64.596 45.5 62.46 45.5 62.46L34.768 62.625C34.768 62.625 32.469 62.954 32.469 59.229C32.469 55.506 31.975 31.907 31.975 31.907"/>
 <line stroke-width="0.13" x1="30.76" y1="52.649" x2="32.38" y2="52.649"/>
 <line stroke-width="0.13" x1="45.5" y1="62.46" x2="103.597" y2="61.859"/>
 <path stroke-width="0.13" d="M103.597 61.859C105.24 61.53 106.998 61.274 107.105 57.817"/>
 <g>
  <path stroke-width="0.13" d="M50.307 63.939C50.307 63.22 49.723 62.637 49.006 62.637C48.286 62.637 47.704 63.22 47.704 63.939C47.704 64.658 48.286 65.24 49.006 65.24C49.723 65.24 50.307 64.658 50.307 63.939"/>
 </g>
 <g>
  <path stroke-width="0.13" d="M49.716 63.939C49.716 63.545 49.399 63.228 49.006 63.228C48.612 63.228 48.293 63.545 48.293 63.939C48.293 64.332 48.612 64.65 49.006 64.65C49.399 64.65 49.716 64.332 49.716 63.939"/>
 </g>
 <g>
  <path stroke-width="0.13" d="M94.551 63.774C94.551 63.055 93.968 62.473 93.248 62.473C92.53 62.473 91.947 63.055 91.947 63.774C91.947 64.493 92.53 65.076 93.248 65.076C93.968 65.076 94.551 64.493 94.551 63.774"/>
 </g>
 <g>
  <path stroke-width="0.13" d="M93.96 63.774C93.96 63.381 93.641 63.063 93.248 63.063C92.855 63.063 92.537 63.381 92.537 63.774C92.537 64.168 92.855 64.486 93.248 64.486C93.641 64.486 93.96 64.168 93.96 63.774"/>
 </g>
 <path stroke-width="0.13" d="M71.018 49.1C71.018 49.045 69.375 49.155 69.375 49.155L68.882 49.975C68.882 49.975 51.634 49.648 44.899 49.21C38.164 48.771 37.89 47.896 37.451 45.595C37.014 43.295 37.396 38.313 37.615 36.506C37.835 34.698 40.628 34.645 43.091 34.206C45.555 33.768 69.337 33.366 71.253 33.42"/>
 <path stroke-width="0.13" d="M70.843 35.159C70.843 35.159 55.686 35.575 53.277 35.63C50.866 35.685 47.637 36.012 46.979 36.231C46.323 36.451 45.337 37.218 45.281 38.368C45.226 39.518 45.281 44.116 45.5 45.322C45.719 46.527 47.143 47.347 48.512 47.347C49.881 47.347 68.936 47.841 71.018 47.731"/>
 <path stroke-width="0.13" d="M71.018 49.1C71.018 49.045 72.661 49.155 72.661 49.155L73.153 49.975C73.153 49.975 90.402 49.648 97.137 49.21C103.871 48.771 104.146 47.896 104.584 45.595C105.022 43.295 104.638 38.313 104.418 36.506C104.2 34.698 101.408 34.645 98.944 34.206C96.48 33.768 73.17 33.366 71.253 33.42"/>
 <path stroke-width="0.13" d="M70.843 35.159C70.843 35.159 86.349 35.575 88.759 35.63C91.168 35.685 94.399 36.012 95.055 36.231C95.712 36.451 96.698 37.218 96.754 38.368C96.808 39.518 96.754 44.116 96.534 45.322C96.314 46.527 94.891 47.347 93.522 47.347C92.153 47.347 73.099 47.841 71.018 47.731"/>
 <path stroke-width="0.3" d="M44.307 62.527C44.548 64.932 41.932 67.908 39.408 67.968C36.883 68.028 34.539 66.975 33.487 66.525C32.435 66.073 31.292 65.503 30.721 64.54C30.149 63.579 30.42 63.098 31.111 62.317C31.803 61.536 32.585 62.046 33.546 62.707C34.509 63.368 37.124 64.54 38.235 64.54C39.347 64.54 40.79 64.24 40.82 62.618"/>
 <path stroke-width="0.13" d="M48.188 66.631C47.433 67.638 41.392 72.62 39.978 72.819"/>
 <path stroke-width="0.13" d="M49.929 66.813C48.936 68.478 44.398 72.528 43.045 72.819"/>
 <path stroke-width="0.13" d="M51.46 66.873C51.402 68.118 49.808 69.471 48.726 70.102C47.645 70.733 45.21 72.819 45.21 72.819"/>
 <path stroke-width="0.13" d="M55.036 66.759C55.098 69.35 53.134 71.688 50.854 72.819"/>
 <path stroke-width="0.13" d="M37.094 72.819C37.094 72.626 37.124 71.275 37.124 71.275C37.124 71.275 37.393 70.283 38.627 70.283C39.243 70.283 41.692 70.29 43.981 70.299"/>
 <path stroke-width="0.13" d="M46.661 70.308C47.689 70.313 48.389 70.316 48.389 70.316"/>
 <path stroke-width="0.13" d="M53.676 70.531L70.129 70.403C70.129 70.403 71.781 70.492 71.841 71.155C71.902 71.816 71.902 72.626 71.902 72.626"/>
 <path stroke-width="0.13" d="M69.376 70.433C68.805 70.403 68.626 71.275 68.626 71.725C68.626 72.177 68.626 72.819 68.626 72.819"/>
 <g>
  <path stroke-width="0.13" d="M63.926 72.025C63.926 71.632 63.607 71.313 63.215 71.313C62.822 71.313 62.503 71.632 62.503 72.025C62.503 72.418 62.822 72.737 63.215 72.737C63.607 72.737 63.926 72.418 63.926 72.025"/>
 </g>
 <g>
  <path stroke-width="0.13" d="M58.365 71.995C58.365 71.602 58.046 71.284 57.654 71.284C57.261 71.284 56.942 71.602 56.942 71.995C56.942 72.388 57.261 72.707 57.654 72.707C58.046 72.707 58.365 72.388 58.365 71.995"/>
 </g>
 <path stroke-width="0.13" d="M79.62 72.819L79.662 70.921C79.662 70.921 79.727 70.102 80.998 70.102C82.271 70.102 88.887 70.058 89.662 70.037C90.438 70.016 91.128 70.253 91.106 71.287C91.084 72.322 91.063 72.819 91.063 72.819"/>
 <g>
  <path stroke-width="0.13" d="M82.141 71.459C82.141 71.066 81.822 70.748 81.43 70.748C81.037 70.748 80.718 71.066 80.718 71.459C80.718 71.852 81.037 72.171 81.43 72.171C81.822 72.171 82.141 71.852 82.141 71.459"/>
 </g>
 <g>
  <path stroke-width="0.13" d="M90.525 71.417C90.525 70.893 90.1 70.468 89.576 70.468C89.052 70.468 88.626 70.893 88.626 71.417C88.626 71.941 89.052 72.365 89.576 72.365C90.1 72.365 90.525 71.941 90.525 71.417"/>
 </g>
 <line stroke-width="0.13" x1="115.259" y1="59.72" x2="115.655" y2="70.037"/>
 <path stroke-width="0.13" d="M125.912 72.819C124.748 71.59 117.206 70.123 115.655 70.037C114.102 69.951 103.456 68.528 101.947 68.614C100.438 68.701 100.31 67.926 100.31 67.926C100.31 67.926 97.454 67.203 95.781 67.849"/>
 <path stroke-width="0.13" d="M94.079 69.257C93.096 70.331 92.313 71.581 92.248 72.819"/>
 <path stroke-width="0.13" d="M101.947 68.614C101.257 67.278 99.146 66.588 97.334 66.546C96.89 66.536 96.334 66.709 95.748 67.001"/>
 <path stroke-width="0.13" d="M92.804 69.275C92.204 69.944 91.787 70.62 91.731 71.158C91.558 72.819 91.558 72.819 91.558 72.819"/>
 <path stroke-width="0.13" d="M92.109 66.567C93.153 68.141 97.034 71.978 101.387 72.819"/>
 <path stroke-width="0.13" d="M94.287 66.251C95.74 68.4 101.387 72.367 107.637 72.819"/>
 <path stroke-width="0.13" d="M90.311 66.727C90.307 66.727 92.215 69.356 93.111 69.347C94.006 69.34 94.507 69.149 94.507 69.149"/>
 <path stroke-width="0.13" d="M95.784 67.849C95.757 66.996 95.861 66.635 95.046 65.837"/>
 <path stroke-width="0.13" d="M105.525 64.132C105.525 64.132 107.852 64.176 108.972 64.176C110.093 64.176 110.912 65.426 111.042 66.459C111.171 67.495 111.387 69.347 111.387 69.347"/>
 <path stroke-width="0.3" d="M108.486 58.479C108.373 59.734 107.289 60.622 106.959 60.369"/>
 <path stroke-width="0.13" d="M107.998 58.436C107.974 58.689 107.903 58.923 107.804 59.128C107.688 59.368 107.537 59.572 107.382 59.719C107.272 59.823 107.171 59.906 107.084 59.923"/>
 <path stroke-width="0.13" d="M107.655 58.405C107.637 58.615 107.575 58.81 107.493 58.979C107.399 59.179 107.274 59.347 107.144 59.47C107.09 59.523 107.043 59.57 106.998 59.591"/>
 <text transform="matrix(0 -1 1 0 142.004 73.536)" stroke="none" fill="#000000" font-family="'Arial'" font-size="2.117">322 855</text>
 <line stroke-width="0.13" x1="43.154" y1="23.24" x2="48.296" y2="4.137"/>
 <line stroke-width="0.13" x1="120.954" y1="23.565" x2="123.54" y2="3.841"/>
 <line stroke-width="0.13" x1="70.643" y1="30.195" x2="75.415" y2="4.288"/>
 <text x="74.56" y="3.174" stroke="none" fill="#000000" font-family="'Arial'" font-size="4.232">1</text>
 <text x="47.807" y="3.278" stroke="none" fill="#000000" font-family="'Arial'" font-size="4.232">2</text>
 <text x="107.305" y="3.253" stroke="none" fill="#000000" font-family="'Arial'" font-size="4.232">3</text>
 <line stroke-width="0.13" x1="109.049" y1="53.124" x2="108.442" y2="4.189"/>
 <text x="122.503" y="3.254" stroke="none" fill="#000000" font-family="'Arial'" font-size="4.232">2</text>
</svg>
