<?xml version="1.0" encoding="utf-8"?>
<!DOCTYPE svg PUBLIC "-//W3C//DTD SVG 1.1//EN" "http://www.w3.org/Graphics/SVG/1.1/DTD/svg11.dtd">
<!-- Generator: PTC Arbortext IsoDraw 7.3 -->
<svg id="Standard_x0020_layer" width="100%" height="100%" viewBox="0 0 150.001 145.987"
 xmlns="http://www.w3.org/2000/svg" xmlns:xlink="http://www.w3.org/1999/xlink"
 fill-rule="evenodd" clip-rule="evenodd" stroke="#000000" stroke-linecap="round" fill="none" xml:space="preserve">
 <path stroke-width="0.501" fill="#D9D9D9" d="M77.772 132.372L74.998 134.479 74.998 130.266 77.772 132.372z"/>
 <path stroke-width="0.501" fill="#D9D9D9" d="M80.534 134.479L77.76 132.372 80.534 130.266 80.534 134.479z"/>
 <path stroke-width="0.501" fill="#D9D9D9" d="M131.698 93.061L82.256 93.061 82.256 59.691 131.698 59.691 131.698 93.061z"/>
 <path stroke-width="0.501" fill="#D9D9D9" d="M21.705 85.704L15.525 85.704 15.525 32.603 21.705 32.603 21.705 85.704z"/>
 <path stroke-width="0.501" fill="#D9D9D9" d="M72.584 79.849C72.584 82.78 70.207 85.156 67.277 85.156 64.346 85.156 61.97 82.78 61.97 79.849 61.97 76.918 64.346 74.543 67.277 74.543 70.207 74.543 72.584 76.918 72.584 79.849z"/>
 <path stroke-width="0.353" stroke-linecap="butt" d="M82.174 78.54L72.549 78.54"/>
 <path stroke-width="0.353" stroke-linecap="butt" d="M72.549 81.338L82.174 81.338"/>
 <path stroke-width="0.353" stroke-linecap="butt" d="M131.778 65.686L143.176 65.686"/>
 <path stroke-width="0.353" stroke-linecap="butt" d="M143.176 63.07L131.778 63.07"/>
 <path stroke-width="0.353" stroke-linecap="butt" d="M22.266 39.871L30.754 39.871"/>
 <path stroke-width="0.353" stroke-linecap="butt" d="M30.826 37.073L22.266 37.073"/>
 <path stroke-width="0.353" stroke-linecap="butt" d="M143.234 37.073L39.753 37.073"/>
 <path stroke-width="0.353" stroke-linecap="butt" d="M143.234 39.871L40.042 39.871"/>
 <path stroke-width="0.353" stroke-linecap="butt" d="M34.442 43.343L34.429 78.54L21.876 78.54"/>
 <path stroke-width="0.353" stroke-linecap="butt" d="M19.268 32.715L19.268 23.89"/>
 <path stroke-width="0.353" stroke-linecap="butt" d="M17.96 23.89L17.96 32.715"/>
 <path stroke-width="0.353" stroke-linecap="butt" d="M82.409 90.018L59.173 90.018L59.203 100.525C59.203 100.525 6.169 100.525 4.907 100.525C4.907 99.242 4.907 17.085 4.907 15.801C6.049 15.801 15.512 15.801 15.512 15.801"/>
 <path stroke-width="0.353" stroke-linecap="butt" d="M113.649 47.646C113.649 47.646 124.271 47.646 126.206 47.646C126.206 49.121 126.206 59.584 126.206 59.584"/>
 <path stroke-width="0.353" stroke-linecap="butt" d="M128.388 59.584L128.388 45.466L113.649 45.466"/>
 <path stroke-width="0.353" stroke-linecap="butt" d="M77.504 47.716C82.45 47.716 85.903 47.716 85.903 47.716"/>
 <path stroke-width="0.353" stroke-linecap="butt" d="M62.112 78.54L43.119 78.54C43.119 78.54 43.119 49.737 43.119 47.716C44.484 47.716 62.588 47.716 74.804 47.716"/>
 <path stroke-width="0.353" stroke-linecap="butt" d="M74.953 45.536L40.939 45.536L40.939 78.54L36.186 78.54L36.186 78.534L36.186 43.414"/>
 <path stroke-width="0.353" stroke-linecap="butt" d="M85.903 45.536L77.429 45.536"/>
 <path stroke-width="0.353" stroke-linecap="butt" d="M84.046 92.989L84.076 117.567"/>
 <path stroke-width="0.353" stroke-linecap="butt" d="M85.384 119.078L85.355 92.987"/>
 <path stroke-width="0.501" stroke-linecap="butt" fill="#D9D9D9" d="M148.346 66.795L143.242 66.795 143.242 36.048 148.346 36.048 148.346 66.795z"/>
 <path stroke-width="0.353" stroke-linecap="butt" d="M143.413 64.311L148.336 64.311"/>
 <path stroke-width="0.353" stroke-linecap="butt" d="M143.413 60.686L148.526 60.686"/>
 <path stroke-width="0.353" stroke-linecap="butt" d="M143.413 42.557L148.23 42.557"/>
 <path stroke-width="0.353" stroke-linecap="butt" d="M143.413 46.182L148.23 46.182"/>
 <path stroke-width="0.353" stroke-linecap="butt" d="M143.413 49.807L148.23 49.807"/>
 <path stroke-width="0.353" stroke-linecap="butt" d="M143.413 53.433L148.23 53.433"/>
 <path stroke-width="0.353" stroke-linecap="butt" d="M143.413 57.06L148.23 57.06"/>
 <path stroke-width="0.353" stroke-linecap="butt" d="M143.413 38.93L148.23 38.93"/>
 <path stroke-width="0.353" stroke-linecap="butt" d="M66.335 133.021L74.998 133.021"/>
 <path stroke-width="0.353" stroke-linecap="butt" d="M74.998 131.713L66.335 131.713"/>
 <path stroke-width="0.353" stroke-linecap="butt" d="M80.552 133.044L85.373 133.044L85.384 118.825"/>
 <path stroke-width="0.353" stroke-linecap="butt" d="M63.176 118.936C63.176 118.936 82.808 118.936 84.066 118.936C84.066 120.043 84.066 130.628 84.066 131.736C82.95 131.736 80.552 131.736 80.552 131.736"/>
 <path stroke-width="0.353" stroke-linecap="butt" d="M84.076 117.626L63.176 117.628"/>
 <path stroke-width="0.353" stroke-linecap="butt" d="M49.378 131.483L39.835 131.483L39.814 118.935"/>
 <path stroke-width="0.353" stroke-linecap="butt" d="M38.539 101.772L38.529 132.79L49.378 132.79"/>
 <path stroke-width="0.353" stroke-linecap="butt" d="M15.571 18.902L8.782 18.902L8.782 92.403L38.457 92.403L38.457 92.43L38.47 100.367"/>
 <path stroke-width="0.353" stroke-linecap="butt" d="M39.779 100.444L39.765 92.429L39.765 92.403L46.073 92.403L46.073 81.438L46.073 81.338L62.112 81.338"/>
 <path stroke-width="0.353" stroke-linecap="butt" d="M39.813 117.394L39.781 101.831"/>
 <path stroke-width="0.353" stroke-linecap="butt" d="M55.595 117.537L39.814 117.537"/>
 <path stroke-width="0.353" stroke-linecap="butt" d="M39.814 118.844L55.595 118.844"/>
 <path stroke-width="0.353" stroke-linejoin="round" stroke-dasharray="1.058 1.058" d="M124.501 107.368L139.48 107.368L139.48 85.861L131.758 85.861"/>
 <path stroke-width="0.353" stroke-linejoin="round" stroke-dasharray="1.058 1.058" d="M131.758 87.17C131.758 87.17 137.094 87.17 138.173 87.17C138.173 88.353 138.173 104.876 138.173 106.06C136.981 106.06 124.501 106.06 124.501 106.06"/>
 <path stroke-width="0.353" stroke-linejoin="round" stroke-dasharray="1.058 1.058" d="M106.799 106.179L85.316 106.179"/>
 <path stroke-width="0.353" stroke-linejoin="round" stroke-dasharray="1.058 1.058" d="M85.316 107.486L106.799 107.486"/>
 <path stroke-width="0.353" stroke-linecap="butt" d="M87.742 39.832C87.742 43.667 87.742 44.219 87.742 44.219"/>
 <path stroke-width="0.353" stroke-linecap="butt" d="M15.512 14.493L7.794 14.493L7.759 5.952L87.742 6.003C87.742 6.003 87.742 20.891 87.742 37.021"/>
 <path stroke-width="0.353" stroke-linecap="butt" d="M89.051 37.021L89.051 4.692L6.472 4.647L6.485 14.493L3.599 14.493L3.599 101.832L60.466 101.832L60.438 91.326L82.409 91.326"/>
 <path stroke-width="0.353" stroke-linecap="butt" d="M89.051 44.219L89.051 40.045"/>
 <path stroke-width="0.353" stroke-linecap="butt" d="M121.423 141.581L143.332 141.57L143.417 79.965L131.812 79.95"/>
 <path stroke-width="0.353" stroke-linecap="butt" d="M131.798 81.259C131.798 81.259 140.961 81.25 142.108 81.26C142.105 82.516 142.026 140.278 142.026 140.278L121.405 140.274"/>
 <path stroke-width="0.353" stroke-linecap="butt" d="M28.964 101.84L28.964 141.581L107.65 141.581"/>
 <path stroke-width="0.353" stroke-linecap="butt" d="M28.964 92.364L28.964 100.519"/>
 <path stroke-width="0.353" stroke-linecap="butt" d="M21.876 81.338L28.964 81.338L28.964 90.578"/>
 <path stroke-width="0.353" stroke-linecap="butt" d="M30.272 90.656C30.272 83.734 30.274 81.338 30.274 81.338L44.329 81.338L44.329 81.438C44.329 81.438 44.329 89.137 44.329 90.659C42.71 90.659 12.144 90.659 10.525 90.659C10.525 88.968 10.525 22.338 10.525 20.647C11.701 20.647 15.571 20.647 15.571 20.647"/>
 <path stroke-width="0.353" stroke-linecap="butt" d="M30.272 100.519C30.272 97.704 30.272 95.003 30.272 92.519"/>
 <path stroke-width="0.353" stroke-linecap="butt" d="M107.65 140.274C107.65 140.274 31.559 140.274 30.272 140.274C30.272 139.53 30.272 118.956 30.272 101.84"/>
 <path stroke="#808080" stroke-width="0.353" stroke-linecap="butt" d="M74.841 40.149L74.841 67.034L82.084 67.034"/>
 <path stroke="#808080" stroke-width="0.353" stroke-linecap="butt" d="M82.084 64.418C82.084 64.418 79.093 64.418 77.457 64.418C77.457 60.252 77.457 60.252 77.457 40.149"/>
 <path stroke-width="0.353" stroke-linecap="butt" fill="#000000" d="M70.796 79.849L66.456 84.272 66.456 75.427 70.796 79.849z"/>
 <path stroke-width="0.501" stroke-linecap="butt" fill="#D9D9D9" d="M40.046 38.781C40.046 41.396 37.929 43.515 35.314 43.515 32.7 43.515 30.58 41.396 30.58 38.781 30.58 36.167 32.7 34.049 35.314 34.049 37.929 34.049 40.046 36.167 40.046 38.781z"/>
 <path stroke-width="0.501" stroke-linecap="butt" fill="#D9D9D9" d="M21.658 20.751C21.658 22.431 20.295 23.794 18.615 23.794 16.934 23.794 15.571 22.431 15.571 20.751L15.571 12.9C15.571 11.218 16.934 9.856 18.615 9.856 20.295 9.856 21.658 11.218 21.658 12.9L21.658 20.751z"/>
 <path stroke-width="0.501" stroke-linecap="butt" fill="#D9D9D9" d="M110.331 143.991C108.652 143.991 107.289 142.628 107.289 140.947 107.289 139.266 108.652 137.903 110.331 137.903L118.182 137.903C119.862 137.903 121.225 139.266 121.225 140.947 121.225 142.628 119.862 143.991 118.182 143.991L110.331 143.991z"/>
 <path stroke="none" fill="#000000" d="M49.917 38.469L52.268 37.555 52.268 39.381 49.917 38.469z"/>
 <path stroke-width="0.353" stroke-linecap="butt" d="M51.927 38.469L55.061 38.469"/>
 <path stroke="none" fill="#000000" d="M60.063 46.664L61.64 46.051 61.64 47.277 60.063 46.664z"/>
 <path stroke-width="0.353" stroke-linecap="butt" d="M61.411 46.664L63.515 46.664"/>
 <path stroke="none" fill="#000000" d="M41.889 69.131L41.276 67.552 42.5 67.552 41.889 69.131z"/>
 <path stroke-width="0.353" stroke-linecap="butt" d="M41.889 67.781L41.889 65.677"/>
 <path stroke="none" fill="#000000" d="M60.063 3.176L61.64 2.562 61.64 3.788 60.063 3.176z"/>
 <path stroke-width="0.353" stroke-linecap="butt" d="M61.411 3.176L63.515 3.176"/>
 <path stroke="none" fill="#000000" d="M90.171 20.908L90.784 22.486 89.56 22.486 90.171 20.908z"/>
 <path stroke-width="0.353" stroke-linecap="butt" d="M90.171 22.257L90.171 24.361"/>
 <path stroke="none" fill="#000000" d="M127.474 49.046L128.086 50.624 126.861 50.624 127.474 49.046z"/>
 <path stroke-width="0.353" stroke-linecap="butt" d="M127.474 50.396L127.474 52.5"/>
 <path stroke="none" fill="#000000" d="M32.939 64.861L32.027 62.509 33.851 62.509 32.939 64.861z"/>
 <path stroke-width="0.353" stroke-linecap="butt" d="M32.939 62.85L32.939 59.716"/>
 <path stroke="none" fill="#000000" d="M135.319 38.375L137.67 37.462 137.67 39.286 135.319 38.375z"/>
 <path stroke-width="0.353" stroke-linecap="butt" d="M137.33 38.375L140.463 38.375"/>
 <path stroke="none" fill="#808080" d="M76.15 55.829L77.063 58.179 75.239 58.179 76.15 55.829z"/>
 <path stroke="#808080" stroke-width="0.353" stroke-linecap="butt" d="M76.152 57.84L76.152 60.973"/>
 <path stroke="none" fill="#000000" d="M139.979 64.364L137.628 65.278 137.628 63.453 139.979 64.364z"/>
 <path stroke-width="0.353" stroke-linecap="butt" d="M137.968 64.364L134.835 64.364"/>
 <path stroke="none" fill="#000000" d="M80.245 80.063L77.894 80.975 77.894 79.15 80.245 80.063z"/>
 <path stroke-width="0.353" stroke-linecap="butt" d="M78.236 80.063L75.1 80.063"/>
 <path stroke="none" fill="#000000" d="M56.552 80.004L54.223 80.971 54.182 79.146 56.552 80.004z"/>
 <path stroke-width="0.353" stroke-linecap="butt" d="M54.543 80.051L51.409 80.121"/>
 <path stroke="none" fill="#000000" d="M13.185 13.336L11.609 13.948 11.609 12.724 13.185 13.336z"/>
 <path stroke-width="0.353" stroke-linecap="butt" d="M11.837 13.336L9.734 13.336"/>
 <path stroke="none" fill="#000000" d="M1.952 27.561L2.565 29.138 1.34 29.138 1.952 27.561z"/>
 <path stroke-width="0.353" stroke-linecap="butt" d="M1.952 28.91L1.952 31.013"/>
 <path stroke="none" fill="#000000" d="M1.952 89.471L2.565 91.049 1.34 91.049 1.952 89.471z"/>
 <path stroke-width="0.353" stroke-linecap="butt" d="M1.952 90.82L1.952 92.924"/>
 <path stroke="none" fill="#000000" d="M20.704 26.942L21.315 28.519 20.091 28.519 20.704 26.942z"/>
 <path stroke-width="0.353" stroke-linecap="butt" d="M20.704 28.291L20.704 30.394"/>
 <path stroke="none" fill="#000000" d="M5.012 11.307L4.4 9.728 5.625 9.728 5.012 11.307z"/>
 <path stroke-width="0.353" stroke-linecap="butt" d="M5.012 9.958L5.012 7.854"/>
 <path stroke="none" fill="#000000" d="M9.711 78.823L9.099 77.245 10.323 77.245 9.711 78.823z"/>
 <path stroke-width="0.353" stroke-linecap="butt" d="M9.711 77.474L9.711 75.37"/>
 <path stroke="none" fill="#000000" d="M45.261 84.581L45.872 86.159 44.648 86.159 45.261 84.581z"/>
 <path stroke-width="0.353" stroke-linecap="butt" d="M45.261 85.93L45.261 88.034"/>
 <path stroke="none" fill="#000000" d="M9.711 38.225L9.099 36.648 10.323 36.648 9.711 38.225z"/>
 <path stroke-width="0.353" stroke-linecap="butt" d="M9.711 36.875L9.711 34.771"/>
 <path stroke-width="0.3" stroke-linejoin="round" d="M15.646 39.256L21.533 39.256"/>
 <path stroke-width="0.3" stroke-linejoin="round" d="M15.646 79.587L21.533 79.587"/>
 <path stroke-width="0.3" stroke-linejoin="round" d="M16.954 39.473L16.954 79.587"/>
 <path stroke-width="0.3" stroke-linejoin="round" d="M18.588 39.473L18.588 79.587"/>
 <path stroke-width="0.3" stroke-linejoin="round" d="M20.224 39.473L20.224 79.587"/>
 <path stroke="none" fill="#000000" d="M27.042 91.552L25.463 92.164 25.463 90.938 27.042 91.552z"/>
 <path stroke-width="0.353" stroke-linecap="butt" d="M25.693 91.552L23.588 91.552"/>
 <path stroke="none" fill="#000000" d="M27.242 118.823L27.853 120.4 26.629 120.4 27.242 118.823z"/>
 <path stroke-width="0.353" stroke-linecap="butt" d="M27.242 120.173L27.242 122.275"/>
 <path stroke="none" fill="#000000" d="M76.426 92.819L78.004 92.206 78.004 93.43 76.426 92.819z"/>
 <path stroke-width="0.353" stroke-linecap="butt" d="M77.775 92.819L79.879 92.819"/>
 <path stroke="none" fill="#000000" d="M145.263 127.914L144.651 126.337 145.876 126.337 145.263 127.914z"/>
 <path stroke-width="0.353" stroke-linecap="butt" d="M145.263 126.566L145.263 124.462"/>
 <path stroke-width="0.501" stroke-linecap="butt" stroke-dasharray="1.058 1.058" fill="#D9D9D9" d="M108.677 109.611C107.772 109.611 107.04 108.879 107.04 107.974L107.04 105.745C107.04 104.84 107.772 104.106 108.677 104.106L122.525 104.106C123.429 104.106 124.162 104.84 124.162 105.745L124.162 107.974C124.162 108.879 123.429 109.611 122.525 109.611L108.677 109.611z"/>
 <path stroke-width="0.3" stroke-linejoin="round" d="M109.198 104.465L109.198 109.546"/>
 <path stroke-width="0.3" stroke-linejoin="round" d="M121.656 104.465L121.656 109.444"/>
 <path stroke-width="0.3" stroke-linejoin="round" d="M109.293 105.515L121.558 105.515"/>
 <path stroke-width="0.3" stroke-linejoin="round" d="M109.293 106.882L121.558 106.882"/>
 <path stroke-width="0.3" stroke-linejoin="round" d="M109.293 108.251L121.558 108.251"/>
 <path stroke-width="0.501" stroke-linejoin="round" fill="#D9D9D9" d="M50.892 134.918C49.987 134.918 49.253 134.185 49.253 133.281L49.253 131.05C49.253 130.145 49.987 129.412 50.892 129.412L64.739 129.412C65.644 129.412 66.376 130.145 66.376 131.05L66.376 133.281C66.376 134.185 65.644 134.918 64.739 134.918L50.892 134.918z"/>
 <path stroke-width="0.3" stroke-linejoin="round" d="M51.414 129.77L51.414 134.853"/>
 <path stroke-width="0.3" stroke-linejoin="round" d="M63.871 129.77L63.871 134.748"/>
 <path stroke-width="0.3" stroke-linejoin="round" d="M51.509 130.819L63.774 130.819"/>
 <path stroke-width="0.3" stroke-linejoin="round" d="M51.509 132.188L63.774 132.188"/>
 <path stroke-width="0.3" stroke-linejoin="round" d="M51.509 133.556L63.774 133.556"/>
 <path stroke-width="0.501" stroke-linejoin="round" fill="#D9D9D9" d="M87.54 49.435C86.637 49.435 85.903 48.701 85.903 47.796L85.903 45.567C85.903 44.662 86.637 43.929 87.54 43.929L112.012 43.929C112.915 43.929 113.649 44.662 113.649 45.567L113.649 47.796C113.649 48.701 112.915 49.435 112.012 49.435L87.54 49.435z"/>
 <path stroke-width="0.3" stroke-linejoin="round" d="M88.063 44.286L88.063 49.368"/>
 <path stroke-width="0.3" stroke-linejoin="round" d="M111.143 44.286L111.143 49.265"/>
 <path stroke-width="0.3" stroke-linejoin="round" d="M88.158 45.335L111.046 45.335"/>
 <path stroke-width="0.3" stroke-linejoin="round" d="M88.158 46.704L111.046 46.704"/>
 <path stroke-width="0.3" stroke-linejoin="round" d="M88.158 48.073L111.046 48.073"/>
 <path stroke="none" fill="#000000" d="M49.86 143.479L51.439 142.866 51.439 144.091 49.86 143.479z"/>
 <path stroke-width="0.353" stroke-linecap="butt" d="M51.21 143.479L53.314 143.479"/>
 <path stroke="none" fill="#000000" d="M101.352 143.479L102.93 142.866 102.93 144.091 101.352 143.479z"/>
 <path stroke-width="0.353" stroke-linecap="butt" d="M102.701 143.479L104.805 143.479"/>
 <path stroke="none" fill="#000000" d="M124.028 143.479L125.605 142.866 125.605 144.091 124.028 143.479z"/>
 <path stroke-width="0.353" stroke-linecap="butt" d="M125.376 143.479L127.48 143.479"/>
 <path stroke="none" fill="#000000" d="M138.454 78.469L136.877 79.082 136.877 77.858 138.454 78.469z"/>
 <path stroke-width="0.353" stroke-linecap="butt" d="M137.104 78.469L135.001 78.469"/>
 <path stroke="none" fill="#000000" d="M62.597 98.293L61.985 96.715 63.21 96.715 62.597 98.293z"/>
 <path stroke-width="0.353" stroke-linecap="butt" d="M62.597 96.944L62.597 94.84"/>
 <path stroke="none" fill="#000000" d="M87.028 99.106L86.417 97.53 87.641 97.53 87.028 99.106z"/>
 <path stroke-width="0.353" stroke-linecap="butt" d="M87.028 97.757L87.028 95.655"/>
 <path stroke="none" fill="#000000" d="M87.028 113.141L86.417 111.563 87.641 111.563 87.028 113.141z"/>
 <path stroke-width="0.353" stroke-linecap="butt" d="M87.028 111.792L87.028 109.688"/>
 <path stroke="none" fill="#000000" d="M136.502 99.106L135.89 97.53 137.115 97.53 136.502 99.106z"/>
 <path stroke-width="0.353" stroke-linecap="butt" d="M136.502 97.757L136.502 95.655"/>
 <path stroke="none" fill="#000000" d="M46.917 103.543L48.494 102.932 48.494 104.156 46.917 103.543z"/>
 <path stroke-width="0.353" stroke-linecap="butt" d="M48.268 103.543L50.371 103.543"/>
 <path stroke="none" fill="#000000" d="M86.631 128.875L86.019 127.298 87.242 127.298 86.631 128.875z"/>
 <path stroke-width="0.353" stroke-linecap="butt" d="M86.631 127.525L86.631 125.423"/>
 <path stroke="none" fill="#000000" d="M72.427 116.439L74.006 115.828 74.006 117.052 72.427 116.439z"/>
 <path stroke-width="0.353" stroke-linecap="butt" d="M73.777 116.439L75.881 116.439"/>
 <path stroke="none" fill="#000000" d="M41.029 124.424L41.64 126.001 40.415 126.001 41.029 124.424z"/>
 <path stroke-width="0.353" stroke-linecap="butt" d="M41.029 125.774L41.029 127.876"/>
 <path stroke="none" fill="#000000" d="M41.029 110.82L41.64 112.399 40.415 112.399 41.029 110.82z"/>
 <path stroke-width="0.353" stroke-linecap="butt" d="M41.029 112.17L41.029 114.272"/>
 <path stroke="none" fill="#000000" d="M126.731 108.998L128.308 108.387 128.308 109.611 126.731 108.998z"/>
 <path stroke-width="0.353" stroke-linecap="butt" d="M128.08 108.998L130.185 108.998"/>
 <path stroke="none" fill="#000000" d="M100.349 108.998L101.927 108.387 101.927 109.611 100.349 108.998z"/>
 <path stroke-width="0.353" stroke-linecap="butt" d="M101.697 108.998L103.802 108.998"/>
 <path stroke-width="0.3" d="M55.656 120.048L62.051 120.028"/>
 <path stroke-width="0.3" d="M55.646 116.578L62.04 116.56"/>
 <path stroke-width="0.3" d="M55.646 116.578L55.649 117.51"/>
 <path stroke-width="0.3" d="M55.654 118.852L55.656 120.048"/>
 <path stroke-width="0.3" d="M62.04 116.56L63.582 118.293L62.051 120.028"/>
 <path stroke-width="0.13" d="M55.993 119.484L55.984 116.927L56.973 119.481L56.966 116.924L57.956 119.478L57.948 116.921L58.936 119.475L58.929 116.918"/>
 <path stroke-width="0.13" d="M63.021 118.29C63.018 117.533 62.402 116.921 61.645 116.923C60.886 116.924 60.274 117.54 60.276 118.299C60.277 119.058 60.895 119.671 61.652 119.668C62.411 119.665 63.024 119.049 63.021 118.29z"/>
 <path stroke-width="0.13" d="M58.929 116.918L59.918 119.472L59.911 116.915L60.317 117.962"/>
 <text x="105.234" y="77.331" stroke="none" fill="#000000" font-family="'Helvetica'" font-size="4.939">1</text>
 <path stroke="#FFFFFF" stroke-width="0.501" d="M60.582 72.96L64.811 77.263"/>
 <path stroke-width="0.131" d="M60.582 72.96L64.811 77.263"/>
 <text transform="matrix(1 -0.018 0.018 1 57.171 73.027)" stroke="none" fill="#000000" font-family="'Helvetica'" font-size="4.939">2</text>
 <path stroke="#FFFFFF" stroke-width="0.501" d="M25.153 54.426L19.17 56.914"/>
 <path stroke-width="0.131" d="M25.153 54.426L19.17 56.914"/>
 <text transform="matrix(1 -0.018 0.018 1 26.422 55.901)" stroke="none" fill="#000000" font-family="'Helvetica'" font-size="4.939">3</text>
 <text transform="matrix(1 -0.018 0.018 1 34.07 40.575)" stroke="none" fill="#000000" font-family="'Helvetica'" font-size="4.939">4</text>
 <text transform="matrix(1 -0.018 0.018 1 17.365 18.937)" stroke="none" fill="#000000" font-family="'Helvetica'" font-size="4.939">5</text>
 <path stroke="#FFFFFF" stroke-width="0.501" d="M112.218 47.921L117.1 52.697"/>
 <path stroke-width="0.131" d="M112.218 47.921L117.1 52.697"/>
 <text transform="matrix(1 -0.018 0.018 1 117.656 56.335)" stroke="none" fill="#000000" font-family="'Helvetica'" font-size="4.939">6</text>
 <path stroke="#FFFFFF" stroke-width="0.501" d="M143.405 29.847L145.925 37.118"/>
 <path stroke-width="0.131" d="M143.405 29.847L145.925 37.118"/>
 <text transform="matrix(1 -0.018 0.018 1 141.155 29.263)" stroke="none" fill="#000000" font-family="'Helvetica'" font-size="4.939">7</text>
 <path stroke="#FFFFFF" stroke-width="0.501" d="M114.521 140.055L116.977 134.019"/>
 <path stroke-width="0.131" d="M114.521 140.055L116.977 134.019"/>
 <text transform="matrix(1 -0.018 0.018 1 116.659 133.004)" stroke="none" fill="#000000" font-family="'Helvetica'" font-size="4.939">8</text>
 <text transform="matrix(1 -0.018 0.018 1 68.835 127.182)" stroke="none" fill="#000000" font-family="'Helvetica'" font-size="4.939">9</text>
 <path stroke="#FFFFFF" stroke-width="0.501" d="M110.765 114.237L113.938 108.367"/>
 <path stroke-width="0.131" d="M110.765 114.237L113.938 108.367"/>
 <text transform="matrix(1 -0.018 0.018 1 107.387 118.861)" stroke="none" fill="#000000" font-family="'Helvetica'" font-size="4.939">12</text>
 <path stroke="#FFFFFF" stroke-width="0.501" d="M70.299 54.514L75.566 52.262"/>
 <path stroke-width="0.131" d="M70.299 54.514L75.566 52.262"/>
 <text transform="matrix(1 -0.018 0.018 1 63.933 56.832)" stroke="none" fill="#000000" font-family="'Helvetica'" font-size="4.939">13</text>
 <path stroke="#FFFFFF" stroke-width="0.501" d="M60.387 116.962L64.596 110.475"/>
 <path stroke-width="0.131" d="M60.387 116.962L64.596 110.475"/>
 <text transform="matrix(1 -0.018 0.018 1 62.081 109.218)" stroke="none" fill="#000000" font-family="'Helvetica'" font-size="4.939">11</text>
 <path stroke="#FFFFFF" stroke-width="0.501" d="M64.811 131.77L68.28 127.76"/>
 <path stroke-width="0.131" d="M64.811 131.77L68.28 127.76"/>
 <text transform="matrix(1 -0.018 0.018 1 90.355 137.588)" stroke="none" fill="#000000" font-family="'Helvetica'" font-size="4.939">10</text>
 <path stroke="#FFFFFF" stroke-width="0.501" d="M79.852 132.437L90.063 136.05"/>
 <path stroke-width="0.131" d="M79.852 132.437L90.063 136.05"/>
 <text transform="matrix(0 -1 1 0 148.817 144.942)" stroke="none" fill="#000000" font-family="'Helvetica'" font-size="2.117">317 954</text>
</svg>
