<?xml version="1.0" encoding="utf-8"?>
<!DOCTYPE svg PUBLIC "-//W3C//DTD SVG 1.1//EN" "http://www.w3.org/Graphics/SVG/1.1/DTD/svg11.dtd">
<!-- Generator: PTC Arbortext IsoDraw 7.3 -->
<svg id="Standard_x0020_layer" width="100%" height="100%" viewBox="0 0 71.448 79.281"
 xmlns="http://www.w3.org/2000/svg" xmlns:xlink="http://www.w3.org/1999/xlink"
 fill-rule="evenodd" clip-rule="evenodd" stroke="#000000" stroke-linecap="round" fill="none" xml:space="preserve">
 <polyline stroke-width="0.3" points="4.653 61.22 4.653 65.74 31.696 70.183"/>
 <g>
  <polyline stroke-width="0.3" points="4.653 61.22 23.824 63.871"/>
  <polyline stroke-width="0.13" points="23.824 63.871 23.824 64.65 28.501 65.352 31.228 64.65"/>
 </g>
 <line stroke-width="0.3" x1="35.201" y1="65.352" x2="43.774" y2="55.143"/>
 <line stroke-width="0.3" x1="23.824" y1="63.871" x2="44.241" y2="39.947"/>
 <g>
  <polyline stroke-width="0.3" points="43.929 18.827 44.241 39.947"/>
  <polyline stroke-width="0.13" points="44.241 39.947 44.554 45.947"/>
 </g>
 <g>
  <path stroke-width="0.3" d="M44.554 45.947C44.241 48.284 44.71 51.402 43.774 55.143"/>
  <path stroke-width="0.13" d="M43.774 55.143C42.527 60.987 38.552 64.884 35.201 65.352C31.85 65.819 28.501 65.352 28.501 65.352"/>
 </g>
 <line stroke-width="0.3" x1="31.228" y1="64.65" x2="35.28" y2="64.727"/>
 <line stroke-width="0.3" x1="31.228" y1="64.65" x2="44.42" y2="48.517"/>
 <line stroke-width="0.13" x1="44.554" y1="45.947" x2="28.501" y2="65.352"/>
 <path stroke-width="0.3" d="M31.696 70.183C37.929 71.274 43.307 67.688 45.567 65.04C47.826 62.39 50.243 54.207 50.243 52.026C50.243 49.844 50.32 46.57 50.32 46.57"/>
 <path stroke-width="0.13" d="M34.034 70.384C39.314 69.355 44.631 66.209 46.268 59.429C47.905 52.649 47.749 49.219 47.749 49.219"/>
 <line stroke-width="0.13" x1="47.749" y1="49.219" x2="47.749" y2="19.217"/>
 <line stroke-width="0.13" x1="50.32" y1="46.57" x2="49.853" y2="18.905"/>
 <polyline stroke-width="0.3" points="52.814 48.908 55.073 46.57 55.152 43.92 54.216 43.064 53.826 18.626"/>
 <path stroke-width="0.3" d="M53.813 20.655C55.637 20.704 59.192 21.897 61.396 23.213C62.116 23.64 62.866 24.417 62.866 24.417C63.323 26.318 66.73 43.587 66.349 46.491C65.992 49.195 63.447 52.941 63.447 52.941L61.515 55.104"/>
 <path stroke-width="0.3" d="M53.878 18.248C55.978 18.304 60.091 19.629 62.63 21.143C63.945 21.928 64.843 22.826 65.123 23.576L65.123 23.576C65.158 23.667 65.185 23.757 65.206 23.846L65.206 23.846C65.683 25.832 69.134 43.787 68.736 46.805C68.313 50.026 66.198 53.417 65.266 54.518L63.283 56.738"/>
 <path stroke-width="0.3" d="M4.653 61.22C2.161 58.182 0.368 51.091 0.212 47.973C0.057 44.856 0.212 25.998 0.446 22.725C0.68 19.452 1.615 16.178 4.653 14.23C7.694 12.282 8.239 12.438 9.952 12.438C11.667 12.438 11.901 12.438 11.901 12.438C11.901 12.438 22.422 10.256 24.916 10.333C27.41 10.412 28.577 9.711 30.137 9.788C31.696 9.865 32.786 9.399 34.89 13.84"/>
 <path stroke-width="0.13" d="M44.241 39.947C42.683 40.259 41.981 40.18 39.956 39.557C37.929 38.933 36.761 40.414 36.215 40.96C35.67 41.505 27.486 52.96 26.786 54.207C26.085 55.454 26.24 57.402 26.24 58.96C26.24 60.52 26.19 61.1 26.19 61.1"/>
 <polyline stroke-width="0.3" points="39.956 39.557 30.449 50.856 30.605 52.338 29.746 52.726 28.344 54.597 29.893 56.759"/>
 <line stroke-width="0.13" x1="30.605" y1="52.338" x2="32.198" y2="54.058"/>
 <line stroke-width="0.13" x1="39.764" y1="39.784" x2="41.904" y2="42.128"/>
 <line stroke-width="0.13" x1="32.036" y1="63.661" x2="37.5" y2="62.615"/>
 <line stroke-width="0.13" x1="33.453" y1="61.929" x2="34.768" y2="63.137"/>
 <path stroke-width="0.13" d="M38.631 36.908C35.201 34.959 32.475 36.752 30.449 39.246C28.422 41.738 21.643 49.298 20.862 50.779C20.083 52.259 20.006 55.298 20.006 57.325C20.006 59.35 21.33 62.39 17.434 61.923C13.538 61.454 5.745 60.051 5.745 60.051"/>
 <path stroke-width="0.3" d="M20.083 18.827C20.474 16.801 19.928 13.996 23.356 13.996C26.786 13.996 31.149 13.84 33.722 14.307C36.253 14.769 43.167 14.548 47.47 18.187"/>
 <path stroke-width="0.3" d="M34.89 13.84C38.552 13.451 40.198 14.413 41.13 15.295"/>
 <path stroke-width="0.2" d="M34.89 13.84C34.77 13.833 33.341 13.788 33.341 13.788C33.341 13.788 32.962 13.387 32.381 13.409C31.8 13.43 28.586 13.185 28.586 13.185L28.385 12.404C28.385 12.404 25.06 12.092 23.498 12.182C21.936 12.271 20.707 12.695 20.239 12.762C19.771 12.829 19.771 13.833 19.771 13.833C19.771 13.833 19.146 13.676 19.146 14.279C19.146 14.881 18.655 15.083 19.1 15.528C19.548 15.975 19.548 15.975 19.548 15.975L19.637 17.114L20.274 17.251"/>
 <path stroke-width="0.13" d="M20.082 13.118C22.472 13.387 26.868 12.917 27.783 12.673"/>
 <path stroke-width="0.13" d="M28.586 13.185C27.716 13.185 27.292 13.753 27.315 13.971"/>
 <path stroke-width="0.3" d="M40.576 14.839C40.576 14.839 40.683 13.23 40.728 12.426C40.774 11.624 41.71 10.954 42.96 10.999C44.21 11.042 52.692 12.159 57.512 13.811C62.334 15.462 62.601 17.248 62.601 17.248"/>
 <path stroke-width="0.13" d="M42.424 12.337C43.273 12.917 43.183 13.497 47.067 14.346C50.951 15.195 53.713 16.856 53.942 17.561"/>
 <g>
  <polyline stroke-width="0.13" points="43.929 18.827 46.621 19.39 47.749 19.217 49.853 18.905"/>
  <polyline stroke-width="0.3" points="49.853 18.905 51.13 19.123 53.677 18.751"/>
 </g>
 <polyline stroke-width="0.3" points="53.826 18.626 52.021 18.484 52.029 18.975"/>
 <line stroke-width="0.3" x1="49.853" y1="18.905" x2="47.47" y2="18.187"/>
 <line stroke-width="0.3" x1="47.415" y1="18.14" x2="43.929" y2="18.827"/>
 <path stroke-width="0.3" d="M61.027 23C59.164 23.318 59.432 24.3 59.209 25.327C58.985 26.353 57.969 28.719 53.96 26.801"/>
 <line stroke-width="0.13" x1="61.439" y1="37.042" x2="61.396" y2="23.213"/>
 <polyline stroke-width="0.3" points="61.319 20.443 61.351 18.809 62.959 16.757 65.149 16.844"/>
 <line stroke-width="0.13" x1="65.278" y1="17.053" x2="68.048" y2="16.98"/>
 <g>
  <polyline stroke-width="0.3" points="65.149 16.844 65.146 15.596"/>
  <polyline stroke-width="0.13" points="65.146 15.596 68.091 16.265"/>
 </g>
 <polyline stroke-width="0.3" points="65.146 15.596 68.405 15.462 70.859 15.909 71.299 46.887"/>
 <line stroke-width="0.13" x1="70.859" y1="15.909" x2="68.091" y2="16.265"/>
 <line stroke-width="0.13" x1="68.048" y1="16.98" x2="68.359" y2="41.771"/>
 <line stroke-width="0.13" x1="64.03" y1="17.336" x2="64.03" y2="21.623"/>
 <g>
  <polyline stroke-width="0.13" points="54.1 35.71 59.476 35.281"/>
  <polyline stroke-width="0.2" points="59.476 35.281 62.066 37.603 62.601 43.317 63.673 47.557"/>
 </g>
 <line stroke-width="0.2" x1="66.162" y1="47.399" x2="50.268" y2="49.25"/>
 <line stroke-width="0.13" x1="51.13" y1="19.123" x2="51.442" y2="44.298"/>
 <polyline stroke-width="0.13" points="54.216 43.064 52.42 43.088 51.439 44.161 51.442 46.442 50.29 47.957"/>
 <line stroke-width="0.13" x1="55.073" y1="46.57" x2="51.57" y2="46.664"/>
 <line stroke-width="0.13" x1="62.334" y1="43.182" x2="55.152" y2="43.92"/>
 <line stroke-width="0.13" x1="63.673" y1="47.557" x2="65.459" y2="44.655"/>
 <polyline stroke-width="0.13" points="64.164 32.29 64.209 44.567 66.311 44.588"/>
 <line stroke-width="0.13" x1="64.209" y1="44.567" x2="62.88" y2="44.418"/>
 <line stroke-width="0.13" x1="62.066" y1="37.603" x2="54.145" y2="38.496"/>
 <line stroke-width="0.13" x1="65.376" y1="17.32" x2="65.376" y2="23.873"/>
 <g>
  <path stroke-width="0.13" d="M66.396 19.576C66.778 19.693 67.197 19.428 67.331 18.986C67.465 18.544 67.263 18.091 66.881 17.975C66.498 17.859 66.078 18.123 65.944 18.565C65.811 19.007 66.013 19.46 66.396 19.576"/>
 </g>
 <g>
  <path stroke-width="0.13" d="M66.686 24.431C67.069 24.547 67.489 24.283 67.623 23.839C67.757 23.397 67.555 22.945 67.173 22.829C66.789 22.713 66.37 22.978 66.236 23.42C66.102 23.861 66.304 24.315 66.686 24.431"/>
 </g>
 <g>
  <path stroke-width="0.13" d="M52.246 21.518C52.628 21.635 53.048 21.37 53.182 20.928C53.317 20.486 53.115 20.033 52.731 19.917C52.347 19.8 51.929 20.065 51.795 20.507C51.661 20.949 51.862 21.402 52.246 21.518"/>
 </g>
 <g>
  <path stroke-width="0.13" d="M52.536 26.373C52.92 26.489 53.34 26.224 53.473 25.782C53.607 25.339 53.405 24.887 53.023 24.771C52.64 24.655 52.219 24.919 52.085 25.361C51.951 25.803 52.154 26.257 52.536 26.373"/>
 </g>
 <path stroke-width="0.3" d="M53.878 18.248C51.143 18.068 47.371 18.039 46.75 17.629"/>
 <path stroke-width="0.13" d="M9.406 13.343C10.935 15.298 11.712 17.027 12.64 17.905C13.567 18.782 17.378 19.132 18.23 19.234C19.082 19.333 20.028 19.161 20.083 18.827"/>
 <path stroke-width="0.3" d="M10.512 12.438C11.436 10.585 12.865 9.858 13.391 9.682C13.919 9.506 15.221 9.381 15.221 9.381C15.221 9.381 16.475 10.009 16.475 10.108C16.475 10.208 17.292 10.289 17.452 10.811C17.612 11.33 17.568 11.339 17.568 11.339"/>
 <path stroke-width="0.13" d="M16.955 10.324C15.497 10.308 12.468 10.832 11.337 12.438"/>
 <line stroke-width="0.13" x1="13.644" y1="9.614" x2="14.609" y2="10.615"/>
 <path stroke-width="0.13" d="M33.258 23.019C32.648 21.582 32.996 19.841 34.564 20.974C36.131 22.106 41.53 30.9 41.53 30.9"/>
 <path stroke-width="0.13" d="M26.814 21.757C26.204 20.321 26.553 18.579 28.12 19.71C29.687 20.843 36.609 31.989 36.609 31.989"/>
 <path stroke-width="0.13" d="M23.243 24.152C22.634 22.714 22.983 20.974 24.55 22.106C26.117 23.237 31.908 32.642 31.908 32.642"/>
 <path stroke-width="0.13" d="M18.89 25.806C18.28 24.37 18.629 22.628 20.196 23.76C21.763 24.891 28.859 36.125 28.859 36.125"/>
 <path stroke-width="0.13" d="M12.881 24.762C12.272 23.324 12.619 21.582 14.188 22.714C15.755 23.847 25.856 40.087 25.856 40.087"/>
 <path stroke-width="0.13" d="M5.306 21.67C4.695 20.234 5.044 18.492 6.612 19.623C8.179 20.756 22.807 43.091 22.807 43.091"/>
 <path stroke-width="0.13" d="M3.084 26.329C2.476 24.891 2.823 23.15 4.391 24.283C5.958 25.414 19.498 46.095 19.498 46.095"/>
 <path stroke-width="0.13" d="M2.389 33.121C1.778 31.684 2.126 29.943 3.694 31.074C5.262 32.207 17.41 51.103 17.41 51.103"/>
 <path stroke-width="0.13" d="M2.344 40.914C1.736 39.478 2.084 37.735 3.65 38.868C5.219 40 14.666 55.238 14.666 55.238"/>
 <path stroke-width="0.13" d="M2.78 49.274C2.17 47.837 2.519 46.095 4.086 47.228C5.653 48.359 8.962 54.542 8.962 54.542"/>
 <path stroke-width="0.2" d="M22.894 32.859C22.983 32.25 24.071 31.64 24.897 32.119C25.725 32.598 26.987 33.991 26.814 34.731C26.64 35.472 26.553 36.343 25.507 36.299C24.463 36.256 23.984 36.387 23.678 35.255"/>
 <path stroke-width="0.3" d="M71.299 46.887C71.299 54.198 68.15 60.707 65.162 63.481C62.173 66.257 58.811 67.271 56.198 67.43"/>
 <path stroke-width="0.13" d="M68.524 49.661C68.683 54.997 65.215 60.493 63.454 62.628C61.694 64.763 58.759 66.683 56.784 66.79"/>
 <polyline stroke-width="0.3" points="42.177 67.905 50.701 66.79 52.463 67.111"/>
 <polyline stroke-width="0.2" points="47.606 62.042 50.487 65.936 51.448 66.096"/>
 <polyline stroke-width="0.2" points="54.003 56.552 57.798 62.682 57.265 63.215"/>
 <path stroke-width="0.2" d="M61.515 55.104C61.054 55.692 61.618 57.093 63.283 56.738"/>
 <path stroke-width="0.2" d="M62.548 53.823L60.893 53.664L59.238 55.051L59.292 56.918C59.292 56.918 57.905 59.32 56.037 59.799"/>
 <path stroke-width="0.13" d="M65.266 54.518L66.176 56.225L64.948 57.932L63.722 57.878C63.722 57.878 63.134 57.558 62.707 59.052C62.28 60.546 59.238 63.481 58.598 64.069C57.959 64.656 57.692 64.228 57.692 64.228"/>
 <path stroke-width="0.2" d="M57.069 61.487C57.265 61.347 58.706 60.226 59.506 59.374C60.307 58.52 60.893 57.558 60.893 57.558C60.893 57.558 61.694 57.131 61.694 58.253C61.694 59.374 61.853 59.479 61.106 60.493C60.359 61.508 57.692 63.801 57.692 63.801"/>
 <g>
  <polyline stroke-width="0.13" points="53.155 67.253 54.768 67.4"/>
  <polyline stroke-width="0.2" points="54.768 67.4 57.012 66.055 57.64 64.561"/>
  <polyline stroke-width="0.13" points="57.64 64.561 56.027 64.412 53.783 65.759 53.155 67.253"/>
 </g>
 <polyline stroke-width="0.13" points="56.932 63.682 55.32 63.533 53.076 64.879 52.448 66.373"/>
 <line stroke-width="0.2" x1="56.932" y1="63.682" x2="57.64" y2="64.561"/>
 <line stroke-width="0.2" x1="52.448" y1="66.373" x2="53.155" y2="67.253"/>
 <g>
  <path stroke-width="0.13" d="M56.518 65.251C56.365 64.989 55.74 65.07 55.121 65.433C54.502 65.795 54.124 66.301 54.277 66.563C54.429 66.823 55.055 66.742 55.674 66.381C56.293 66.019 56.671 65.513 56.518 65.251"/>
 </g>
 <g>
  <path stroke-width="0.13" d="M57.399 63.319C57.036 62.646 55.453 62.796 53.862 63.654C52.271 64.512 51.274 65.751 51.637 66.424"/>
  <path stroke-width="0.2" d="M51.637 66.424C51.807 66.739 52.244 66.873 52.823 66.84"/>
  <path stroke-width="0.2" d="M57.325 64.168C57.5 63.817 57.515 63.527 57.399 63.319"/>
 </g>
 <path stroke="none" fill="#000000" d="M52.067 65.103C51.64 65.634 51.561 66.072 51.725 66.376L51.548 66.471C51.378 66.153 51.524 65.665 51.966 65.114L52.067 65.103z"/>
 <path stroke="none" fill="#000000" d="M57.31 63.366L57.487 63.271C57.301 62.924 56.781 62.811 56.122 62.874L56.06 62.951C56.68 62.893 57.136 63.04 57.31 63.366z"/>
 <line stroke-width="0.13" x1="51.292" y1="65.561" x2="48.17" y2="61.335"/>
 <line stroke-width="0.13" x1="52.621" y1="64.147" x2="49.463" y2="59.92"/>
 <line stroke-width="0.13" x1="53.103" y1="63.716" x2="49.963" y2="59.454"/>
 <polyline stroke-width="0.13" points="56.091 62.912 56.347 62.25 53.103 57.332"/>
 <line stroke-width="0.13" x1="55.432" y1="62.698" x2="52.569" y2="58.281"/>
 <path stroke-width="0.2" d="M52.948 52.933C52.982 55.246 53.259 56.902 50.533 58.316"/>
 <path stroke-width="0.2" d="M51.015 53.243C51.015 55.348 50.42 56.052 49.406 56.235"/>
 <path stroke-width="0.13" d="M50.533 58.316C49.981 58.454 48.997 58.459 48.988 57.628"/>
 <polyline stroke-width="0.2" points="50.533 58.316 50.463 58.972 49.084 60.213 48.124 60.112"/>
 <g>
  <path stroke-width="0.13" d="M55.274 51C55.378 50.671 55.25 50.228 54.972 49.862C54.573 49.338 53.975 49.122 53.637 49.38C53.301 49.637 53.353 50.271 53.753 50.795C53.859 50.932 53.978 51.049 54.097 51.137"/>
 </g>
 <g>
  <path stroke-width="0.13" d="M57.783 50.707C57.835 50.387 57.703 49.996 57.457 49.673C57.057 49.149 56.459 48.932 56.122 49.189C55.786 49.447 55.837 50.081 56.237 50.604C56.311 50.703 56.395 50.79 56.473 50.86"/>
 </g>
 <g>
  <path stroke-width="0.13" d="M60.097 50.439C60.142 50.121 60.009 49.74 59.768 49.423C59.368 48.899 58.771 48.682 58.433 48.939C58.097 49.197 58.149 49.831 58.548 50.354C58.618 50.445 58.694 50.527 58.767 50.593"/>
 </g>
 <g>
  <path stroke-width="0.13" d="M62.354 50.174C62.445 49.847 62.316 49.417 62.045 49.06C61.646 48.536 61.048 48.32 60.712 48.578C60.375 48.835 60.426 49.468 60.826 49.991C60.924 50.121 61.036 50.232 61.146 50.317"/>
 </g>
 <g>
  <path stroke-width="0.13" d="M64.852 49.884C64.98 49.557 64.855 49.091 64.564 48.707C64.165 48.182 63.567 47.966 63.229 48.223C62.893 48.481 62.945 49.115 63.344 49.639C63.463 49.793 63.6 49.923 63.735 50.015"/>
 </g>
 <line stroke-width="0.13" x1="65.215" y1="49.843" x2="64.852" y2="49.884"/>
 <line stroke-width="0.13" x1="63.735" y1="50.015" x2="62.365" y2="50.174"/>
 <line stroke-width="0.13" x1="61.168" y1="50.314" x2="60.097" y2="50.439"/>
 <line stroke-width="0.13" x1="58.767" y1="50.594" x2="57.792" y2="50.707"/>
 <line stroke-width="0.13" x1="56.485" y1="50.859" x2="55.302" y2="50.996"/>
 <line stroke-width="0.13" x1="54.097" y1="51.137" x2="50.28" y2="51.582"/>
 <line stroke-width="0.2" x1="64.313" y1="51.539" x2="63.753" y2="51.604"/>
 <line stroke-width="0.2" x1="62.636" y1="51.734" x2="61.265" y2="51.895"/>
 <line stroke-width="0.2" x1="60.069" y1="52.033" x2="58.997" y2="52.158"/>
 <line stroke-width="0.2" x1="57.667" y1="52.314" x2="56.692" y2="52.426"/>
 <line stroke-width="0.2" x1="55.386" y1="52.579" x2="54.204" y2="52.716"/>
 <line stroke-width="0.2" x1="52.996" y1="52.856" x2="50.207" y2="53.182"/>
 <line stroke-width="0.2" x1="54.097" y1="51.137" x2="52.948" y2="52.933"/>
 <line stroke-width="0.13" x1="64.852" y1="49.884" x2="63.704" y2="51.682"/>
 <line stroke-width="0.13" x1="55.302" y1="50.996" x2="54.155" y2="52.792"/>
 <line stroke-width="0.2" x1="56.485" y1="50.859" x2="55.337" y2="52.655"/>
 <line stroke-width="0.13" x1="57.792" y1="50.707" x2="56.643" y2="52.503"/>
 <line stroke-width="0.2" x1="58.767" y1="50.594" x2="57.618" y2="52.39"/>
 <line stroke-width="0.13" x1="60.097" y1="50.439" x2="58.948" y2="52.234"/>
 <line stroke-width="0.2" x1="61.168" y1="50.314" x2="60.02" y2="52.109"/>
 <line stroke-width="0.13" x1="62.365" y1="50.174" x2="61.216" y2="51.97"/>
 <line stroke-width="0.2" x1="63.735" y1="50.015" x2="62.587" y2="51.811"/>
 <g>
  <path stroke-width="0.2" d="M54.155 52.792C54.264 52.445 54.115 51.97 53.804 51.594"/>
  <path stroke-width="0.2" d="M52.959 52.915C52.965 52.92 52.97 52.926 52.976 52.929"/>
 </g>
 <g>
  <path stroke-width="0.2" d="M56.662 52.5C56.719 52.152 56.558 51.722 56.271 51.384"/>
 </g>
 <g>
  <path stroke-width="0.2" d="M58.978 52.231C59.03 51.847 58.826 51.372 58.487 51.03"/>
 </g>
 <g>
  <path stroke-width="0.2" d="M61.234 51.968C61.332 51.618 61.176 51.151 60.868 50.783"/>
  <path stroke-width="0.2" d="M59.951 52.048C59.976 52.07 60.003 52.091 60.026 52.109"/>
 </g>
 <g>
  <path stroke-width="0.2" d="M63.731 51.677C63.86 51.345 63.731 50.872 63.433 50.487"/>
 </g>
 <path stroke-width="0.2" d="M54.518 52.929C54.893 53.792 54.555 54.241 54.18 54.616C53.805 54.991 53.805 54.991 53.805 54.991L55.006 55.067C55.006 55.067 55.942 55.517 55.417 56.079C54.893 56.64 54.293 56.603 54.293 56.603C54.293 56.603 53.259 56.435 52.981 56.304"/>
 <g>
  <path stroke-width="0.13" d="M52.473 40.68C52.856 40.796 53.277 40.533 53.411 40.09C53.545 39.648 53.343 39.195 52.96 39.079C52.576 38.963 52.156 39.228 52.023 39.67C51.889 40.112 52.091 40.564 52.473 40.68"/>
 </g>
 <path stroke-width="0.13" d="M23.379 15.108C28.789 15.846 37.783 16.998 41.081 21.96"/>
 <path stroke-width="0.3" d="M56.198 67.43L54.768 67.4C54.768 67.4 53.262 67.263 53.246 67.26C53.231 67.26 52.554 67.108 52.554 67.108"/>
 <text transform="matrix(0 -1 1 0 70.319 77.578)" stroke="none" fill="#000000" font-family="'Arial'" font-size="2.117">324 196</text>
 <line stroke-width="0.13" x1="52.968" y1="61.328" x2="50.963" y2="74.111"/>
 <line stroke-width="0.13" x1="33.165" y1="50.548" x2="35.296" y2="73.986"/>
 <line stroke-width="0.13" x1="13.112" y1="40.146" x2="8.727" y2="72.858"/>
 <line stroke-width="0.13" x1="24.14" y1="12.166" x2="26.524" y2="4.302"/>
 <text x="7.222" y="77.495" stroke="none" fill="#000000" font-family="'Arial'" font-size="4.232">1</text>
 <text x="34.67" y="77.87" stroke="none" fill="#000000" font-family="'Arial'" font-size="4.232">2</text>
 <text x="49.709" y="77.62" stroke="none" fill="#000000" font-family="'Arial'" font-size="4.232">3</text>
 <text x="25.144" y="3.174" stroke="none" fill="#000000" font-family="'Arial'" font-size="4.232">4</text>
</svg>
