<?xml version="1.0" encoding="utf-8"?>
<!DOCTYPE svg PUBLIC "-//W3C//DTD SVG 1.1//EN" "http://www.w3.org/Graphics/SVG/1.1/DTD/svg11.dtd">
<!-- Generator: PTC Arbortext IsoDraw 7.3 -->
<svg id="Standard_x0020_layer" width="100%" height="100%" viewBox="0 0 75 49.902"
 xmlns="http://www.w3.org/2000/svg" xmlns:xlink="http://www.w3.org/1999/xlink"
 fill-rule="evenodd" clip-rule="evenodd" stroke="#000000" stroke-linecap="round" fill="none" xml:space="preserve">
 <path stroke="none" fill="#B2B2B2" d="M38.656 13.903L39.029 14.297 39.277 14.284 39.304 14.332C39.408 14.582 39.686 14.852 39.957 14.907 40.265 14.97 40.521 14.778 40.707 14.56 41.1 14.099 41.229 13.425 41.268 12.839 41.308 12.223 41.226 11.634 41.03 11.048 40.881 10.599 40.338 9.835 39.78 10.201L39.773 10.192C39.54 10.323 39.405 10.525 39.262 10.743L39.216 10.82 38.786 10.82 38.545 11.175C38.073 11.907 38.097 13.223 38.656 13.903z"/>
 <path stroke="none" fill="#B2B2B2" d="M34.006 14.002C33.481 13.362 33.459 12.125 33.904 11.438L34.128 11.105 34.533 11.105 34.576 11.032C34.71 10.827 34.838 10.638 35.055 10.513L35.063 10.522C35.588 10.179 36.097 10.897 36.237 11.32 36.421 11.868 36.5 12.422 36.46 13 36.424 13.551 36.302 14.186 35.933 14.618 35.758 14.823 35.518 15.003 35.228 14.945 34.973 14.894 34.713 14.638 34.615 14.403L34.59 14.359 34.356 14.371 34.006 14.002z"/>
 <path stroke="none" fill="#B2B2B2" d="M29.746 26.652C29.231 26.024 29.21 24.815 29.644 24.14L29.864 23.815 30.26 23.815 30.304 23.743C30.435 23.544 30.561 23.358 30.772 23.236L30.78 23.245C31.295 22.908 31.792 23.611 31.931 24.025 32.112 24.564 32.188 25.105 32.149 25.672 32.113 26.211 31.995 26.832 31.634 27.256 31.461 27.457 31.225 27.632 30.943 27.576 30.693 27.524 30.437 27.275 30.341 27.045L30.318 27.001 30.088 27.013 29.746 26.652z"/>
 <path stroke="none" fill="#B2B2B2" d="M31.16 34.581C30.635 33.942 30.614 32.712 31.056 32.024L31.28 31.693 31.684 31.693 31.728 31.62C31.862 31.417 31.989 31.228 32.204 31.103L32.213 31.112C32.735 30.769 33.243 31.486 33.384 31.907 33.567 32.454 33.646 33.006 33.607 33.584 33.57 34.133 33.45 34.765 33.082 35.195 32.906 35.401 32.667 35.581 32.378 35.521 32.124 35.469 31.864 35.216 31.766 34.982L31.74 34.938 31.509 34.948 31.16 34.581z"/>
 <path stroke="none" fill="#B2B2B2" d="M34.584 39.805C34.058 39.168 34.037 37.936 34.481 37.25L34.704 36.918 35.107 36.918 35.152 36.845C35.286 36.642 35.412 36.454 35.628 36.329L35.637 36.338C36.159 35.994 36.667 36.71 36.807 37.133 36.991 37.679 37.07 38.231 37.03 38.808 36.994 39.357 36.874 39.99 36.505 40.421 36.329 40.627 36.09 40.805 35.801 40.747 35.548 40.695 35.287 40.442 35.191 40.207L35.164 40.164 34.932 40.174 34.584 39.805z"/>
 <path stroke="none" fill="#B2B2B2" d="M39.152 40.411C38.628 39.773 38.606 38.54 39.048 37.854L39.273 37.523 39.676 37.523 39.72 37.45C39.854 37.246 39.981 37.057 40.198 36.933L40.206 36.942C40.728 36.6 41.235 37.316 41.377 37.737 41.561 38.284 41.637 38.835 41.6 39.414 41.563 39.963 41.442 40.595 41.073 41.026 40.899 41.231 40.658 41.409 40.371 41.351 40.116 41.299 39.856 41.045 39.759 40.811L39.734 40.768 39.5 40.779 39.152 40.411z"/>
 <path stroke="none" fill="#B2B2B2" d="M42.825 36.375C42.299 35.738 42.277 34.506 42.72 33.82L42.945 33.488 43.348 33.488 43.393 33.415C43.527 33.212 43.652 33.024 43.869 32.899L43.878 32.908C44.401 32.564 44.908 33.28 45.048 33.703 45.232 34.25 45.31 34.801 45.271 35.378 45.234 35.929 45.113 36.561 44.746 36.991 44.57 37.197 44.331 37.375 44.042 37.317 43.789 37.265 43.529 37.012 43.43 36.777L43.405 36.734 43.173 36.744 42.825 36.375z"/>
 <path stroke="none" fill="#B2B2B2" d="M42.682 19.054C42.125 18.376 42.1 17.065 42.573 16.333L42.811 15.98 43.24 15.98 43.289 15.903C43.43 15.686 43.566 15.484 43.795 15.352L43.804 15.362C44.36 14.996 44.902 15.759 45.051 16.207 45.246 16.791 45.329 17.378 45.289 17.992 45.25 18.577 45.121 19.251 44.728 19.71 44.542 19.928 44.286 20.118 43.979 20.056 43.71 20.001 43.432 19.731 43.329 19.483L43.301 19.434 43.054 19.448 42.682 19.054z"/>
 <path stroke="none" fill="#B2B2B2" d="M21.251 16.772L9.3 16.772C9.281 16.707 9.266 16.643 9.244 16.577 9.103 16.157 8.596 15.441 8.073 15.784L8.064 15.774C7.849 15.899 7.721 16.088 7.588 16.292L7.544 16.364 7.139 16.364 6.916 16.696C6.472 17.382 6.495 18.614 7.019 19.253L7.368 19.621 7.601 19.609 7.626 19.653C7.724 19.888 7.984 20.141 8.237 20.193 8.526 20.253 8.766 20.073 8.941 19.867 9.141 19.635 9.266 19.341 9.346 19.036L21.251 19.036C21.678 19.036 21.73 18.178 21.73 17.905 21.73 17.632 21.678 16.772 21.251 16.772z"/>
 <g>
  <path stroke-width="0.131" stroke-linejoin="round" d="M36.125 7.605C36.777 7.623 36.756 5.637 36.179 5.458"/>
  <path stroke-width="0.3" stroke-linejoin="round" d="M36.179 5.458C35.539 5.365 35.457 7.538 36.121 7.605"/>
 </g>
 <path stroke-width="0.131" stroke-linejoin="round" d="M36.469 7.825C37.261 7.788 37.261 5.245 36.469 5.206"/>
 <path stroke-width="0.131" stroke-linejoin="round" d="M40.904 5.267C41.722 5.209 41.776 7.867 40.976 7.984"/>
 <path stroke-width="0.3" stroke-linejoin="round" d="M40.904 5.267L36.473 5.19L36.06 5.448"/>
 <path stroke-width="0.3" stroke-linejoin="round" d="M36.021 7.657L36.551 7.825"/>
 <path stroke-width="0.3" stroke-linejoin="round" d="M36.564 7.825L40.981 7.993"/>
 <path stroke-width="0.131" stroke-linejoin="round" d="M36.99 7.838C37.277 7.487 37.322 6.964 37.322 6.53"/>
 <path stroke-width="0.131" stroke-linejoin="round" d="M37.442 7.759C37.677 7.418 37.722 6.897 37.662 6.496"/>
 <path stroke-width="0.131" stroke-linejoin="round" d="M37.74 7.799C38.017 7.477 38.049 6.927 37.996 6.528"/>
 <path stroke-width="0.131" stroke-linejoin="round" d="M38.192 7.838C38.478 7.485 38.523 6.966 38.523 6.53"/>
 <path stroke-width="0.131" stroke-linejoin="round" d="M38.63 7.759C38.868 7.415 38.905 6.9 38.851 6.496"/>
 <path stroke-width="0.131" stroke-linejoin="round" d="M38.927 7.799C39.206 7.48 39.237 6.924 39.185 6.528"/>
 <path stroke-width="0.131" stroke-linejoin="round" d="M39.341 7.838C39.628 7.485 39.673 6.966 39.673 6.53"/>
 <path stroke-width="0.131" stroke-linejoin="round" d="M39.792 7.759C40.027 7.413 40.072 6.9 40.014 6.496"/>
 <path stroke-width="0.131" stroke-linejoin="round" d="M40.09 7.799C40.368 7.482 40.401 6.924 40.347 6.528"/>
 <g>
  <path stroke-width="0.131" stroke-linejoin="round" d="M42.039 14.798L42.058 14.806L42.131 14.808L42.201 14.784L42.268 14.734L42.334 14.66L42.392 14.561L42.442 14.444L42.485 14.308L42.518 14.157L42.542 13.999L42.552 13.832L42.554 13.663L42.545 13.496L42.523 13.335L42.49 13.182L42.451 13.045L42.401 12.923L42.344 12.823L42.28 12.743L42.212 12.691L42.161 12.664"/>
  <path stroke-width="0.3" stroke-linejoin="round" d="M42.161 12.664L42.139 12.66L42.067 12.657L41.996 12.682L41.929 12.733L41.863 12.807L41.807 12.904L41.755 13.022L41.712 13.159L41.679 13.307L41.655 13.468L41.643 13.634L41.643 13.803L41.654 13.971L41.674 14.131L41.706 14.284L41.747 14.422L41.798 14.542L41.854 14.643L41.917 14.723L41.985 14.776L42.036 14.803"/>
 </g>
 <path stroke-width="0.131" stroke-linejoin="round" d="M42.441 12.384L42.529 12.399L42.612 12.448L42.695 12.526L42.77 12.634L42.837 12.771L42.895 12.928L42.939 13.105L42.973 13.297L42.993 13.5L43 13.707L42.993 13.913L42.973 14.115L42.939 14.308L42.895 14.486L42.837 14.643L42.77 14.778L42.695 14.887L42.612 14.967L42.529 15.013L42.438 15.026"/>
 <path stroke-width="0.131" stroke-linejoin="round" d="M46.871 12.461L46.96 12.464L47.049 12.5L47.134 12.568L47.215 12.669L47.287 12.798L47.35 12.949L47.402 13.125L47.442 13.317L47.469 13.522L47.482 13.734L47.481 13.946L47.466 14.157L47.436 14.362L47.395 14.55L47.34 14.721L47.276 14.871L47.201 14.993L47.121 15.089L47.033 15.151L46.945 15.178"/>
 <path stroke-width="0.3" stroke-linejoin="round" d="M46.871 12.461L42.441 12.384L42.027 12.641"/>
 <path stroke-width="0.3" stroke-linejoin="round" d="M41.987 14.849L42.518 15.018L46.935 15.185"/>
 <path stroke-width="0.131" stroke-linejoin="round" d="M42.957 15.031L43.023 14.942L43.082 14.833L43.137 14.708L43.185 14.57L43.223 14.416L43.255 14.253L43.277 14.082L43.289 13.904L43.289 13.724"/>
 <path stroke-width="0.131" stroke-linejoin="round" d="M43.408 14.952L43.451 14.885L43.493 14.807L43.527 14.72L43.56 14.622L43.587 14.518L43.609 14.407L43.628 14.291L43.64 14.173L43.646 14.051L43.646 13.929L43.643 13.806L43.63 13.689"/>
 <path stroke-width="0.131" stroke-linejoin="round" d="M43.707 14.993L43.753 14.932L43.798 14.862L43.838 14.778L43.875 14.683L43.906 14.58L43.932 14.47L43.954 14.352L43.969 14.23L43.978 14.103L43.979 13.977L43.976 13.849L43.963 13.721"/>
 <path stroke-width="0.131" stroke-linejoin="round" d="M44.145 15.031L44.21 14.942L44.271 14.833L44.326 14.708L44.371 14.57L44.411 14.416L44.442 14.253L44.465 14.082L44.478 13.904L44.478 13.724"/>
 <path stroke-width="0.131" stroke-linejoin="round" d="M44.597 14.952L44.64 14.885L44.679 14.807L44.716 14.72L44.747 14.622L44.776 14.518L44.798 14.407L44.816 14.291L44.828 14.173L44.835 14.051L44.835 13.929L44.831 13.806L44.817 13.689"/>
 <path stroke-width="0.131" stroke-linejoin="round" d="M44.895 14.993L44.942 14.932L44.985 14.862L45.027 14.778L45.064 14.683L45.094 14.58L45.121 14.47L45.142 14.352L45.156 14.23L45.165 14.103L45.168 13.977L45.164 13.849L45.152 13.721"/>
 <path stroke-width="0.131" stroke-linejoin="round" d="M45.307 15.031L45.374 14.942L45.433 14.833L45.487 14.708L45.534 14.57L45.573 14.416L45.604 14.253L45.625 14.082L45.64 13.904L45.64 13.724"/>
 <path stroke-width="0.131" stroke-linejoin="round" d="M45.746 14.952L45.789 14.885L45.829 14.807L45.865 14.72L45.898 14.622L45.924 14.518L45.948 14.407L45.965 14.291L45.976 14.173L45.984 14.051L45.984 13.929L45.981 13.806L45.968 13.689"/>
 <path stroke-width="0.131" stroke-linejoin="round" d="M46.057 14.993L46.103 14.932L46.149 14.862L46.189 14.778L46.225 14.683L46.258 14.58L46.283 14.47L46.304 14.352L46.32 14.23L46.328 14.103L46.331 13.977L46.326 13.849L46.314 13.721"/>
 <g>
  <path stroke-width="0.131" stroke-linejoin="round" d="M29.745 8.393L29.756 8.393L29.826 8.368L29.893 8.319L29.957 8.243L30.015 8.146L30.067 8.028L30.109 7.892L30.143 7.743L30.166 7.583L30.178 7.416L30.179 7.248L30.169 7.08L30.147 6.919L30.117 6.767L30.074 6.629L30.024 6.509L29.968 6.408L29.905 6.328L29.838 6.275L29.811 6.262"/>
  <path stroke-width="0.3" stroke-linejoin="round" d="M29.811 6.262L29.765 6.243L29.693 6.24L29.621 6.264L29.553 6.315L29.489 6.389L29.431 6.487L29.379 6.605L29.338 6.74L29.303 6.891L29.282 7.051L29.269 7.217L29.268 7.386L29.278 7.554L29.3 7.714L29.332 7.867L29.373 8.005L29.422 8.125L29.48 8.227L29.542 8.304L29.611 8.359L29.681 8.387L29.745 8.387"/>
 </g>
 <path stroke-width="0.131" stroke-linejoin="round" d="M30.059 8.621L30.059 8.621C30.368 8.621 30.62 8.029 30.62 7.299C30.62 6.567 30.368 5.974 30.059 5.974L30.059 5.974"/>
 <path stroke-width="0.131" stroke-linejoin="round" d="M34.57 8.811C34.883 8.765 35.127 8.15 35.127 7.41C35.127 6.634 34.86 6.004 34.533 6.004C34.52 6.004 34.506 6.004 34.494 6.008"/>
 <path stroke-width="0.3" stroke-linejoin="round" d="M32.341 6.017L30.054 5.977"/>
 <path stroke-width="0.3" stroke-linejoin="round" d="M34.497 6.056L32.341 6.017"/>
 <path stroke-width="0.3" stroke-linejoin="round" d="M30.054 5.977L29.641 6.235"/>
 <path stroke-width="0.3" stroke-linejoin="round" d="M29.615 8.432L30.146 8.599"/>
 <path stroke-width="0.3" stroke-linejoin="round" d="M30.146 8.612L34.563 8.779"/>
 <path stroke-width="0.131" stroke-linejoin="round" d="M30.585 8.625L30.65 8.535L30.71 8.429L30.763 8.304L30.812 8.163L30.85 8.01L30.882 7.846L30.903 7.676L30.917 7.498L30.917 7.318"/>
 <path stroke-width="0.131" stroke-linejoin="round" d="M31.024 8.548L31.067 8.48L31.106 8.401L31.143 8.313L31.175 8.217L31.202 8.112L31.225 8.002L31.242 7.886L31.254 7.767L31.26 7.644L31.262 7.522L31.257 7.4L31.245 7.283"/>
 <path stroke-width="0.131" stroke-linejoin="round" d="M31.321 8.586L31.368 8.526L31.413 8.455L31.452 8.371L31.489 8.278L31.521 8.175L31.548 8.064L31.568 7.947L31.582 7.825L31.591 7.698L31.594 7.57L31.591 7.443L31.579 7.315"/>
 <path stroke-width="0.131" stroke-linejoin="round" d="M31.772 8.625L31.838 8.535L31.897 8.429L31.952 8.304L32 8.163L32.039 8.01L32.07 7.846L32.091 7.676L32.104 7.498L32.104 7.318"/>
 <path stroke-width="0.131" stroke-linejoin="round" d="M32.225 8.548L32.268 8.48L32.307 8.401L32.344 8.313L32.375 8.217L32.404 8.112L32.426 8.002L32.442 7.886L32.454 7.767L32.462 7.644L32.463 7.522L32.459 7.4L32.445 7.283"/>
 <path stroke-width="0.131" stroke-linejoin="round" d="M32.521 8.586L32.57 8.526L32.613 8.455L32.655 8.371L32.692 8.278L32.722 8.175L32.749 8.064L32.768 7.947L32.784 7.825L32.793 7.698L32.795 7.57L32.792 7.443L32.78 7.315"/>
 <path stroke-width="0.131" stroke-linejoin="round" d="M32.935 8.625L33 8.535L33.06 8.429L33.115 8.304L33.161 8.163L33.201 8.01L33.232 7.846L33.253 7.676L33.267 7.498L33.267 7.318"/>
 <path stroke-width="0.131" stroke-linejoin="round" d="M33.374 8.548L33.417 8.48L33.457 8.401L33.493 8.313L33.524 8.217L33.551 8.112L33.576 8.002L33.591 7.886L33.604 7.767L33.61 7.644L33.612 7.522L33.607 7.4L33.594 7.283"/>
 <path stroke-width="0.131" stroke-linejoin="round" d="M33.67 8.586L33.719 8.526L33.764 8.455L33.804 8.371L33.841 8.278L33.871 8.175L33.899 8.064L33.918 7.947L33.933 7.825L33.942 7.698L33.945 7.57L33.942 7.443L33.929 7.315"/>
 <path stroke-width="0.131" stroke-linejoin="round" d="M25.12 15.779L25.161 15.795L25.227 15.798L25.294 15.775L25.358 15.727L25.417 15.657L25.472 15.566L25.521 15.455L25.561 15.327L25.591 15.188L25.614 15.037L25.625 14.881L25.626 14.721L25.617 14.564L25.596 14.413L25.567 14.271L25.527 14.141L25.481 14.028L25.428 13.932L25.367 13.859L25.303 13.808L25.237 13.781L25.199 13.781"/>
 <path stroke-width="0.3" stroke-linejoin="round" d="M25.211 13.778L25.178 13.778L25.111 13.8L25.047 13.848L24.987 13.917L24.932 14.009L24.885 14.119L24.844 14.246L24.812 14.387L24.792 14.538L24.78 14.693L24.78 14.852L24.789 15.009L24.809 15.162L24.838 15.304L24.878 15.433L24.925 15.547L24.978 15.641L25.038 15.715L25.1 15.766L25.126 15.779"/>
 <path stroke-width="0.131" stroke-linejoin="round" d="M25.519 16.019L25.521 16.019C25.812 16.019 26.047 15.461 26.047 14.772C26.047 14.085 25.812 13.525 25.521 13.525L25.519 13.525"/>
 <path stroke-width="0.131" stroke-linejoin="round" d="M29.754 16.135C30.033 16.092 30.251 15.542 30.251 14.878C30.251 14.182 30.013 13.618 29.719 13.618C29.707 13.618 29.696 13.619 29.684 13.621"/>
 <path stroke-width="0.3" stroke-linejoin="round" d="M28.737 13.585L25.521 13.532"/>
 <path stroke-width="0.3" stroke-linejoin="round" d="M29.681 13.596L28.737 13.585"/>
 <path stroke-width="0.3" stroke-linejoin="round" d="M25.521 13.532L25.134 13.778"/>
 <path stroke-width="0.3" stroke-linejoin="round" d="M25.096 15.845L25.6 16L27.807 16.077L29.757 16.153"/>
 <path stroke-width="0.131" stroke-linejoin="round" d="M26.013 16.012L26.074 15.929L26.131 15.827L26.181 15.711L26.225 15.579L26.263 15.435L26.292 15.282L26.312 15.121L26.324 14.955L26.324 14.787"/>
 <path stroke-width="0.131" stroke-linejoin="round" d="M26.425 15.948L26.466 15.884L26.504 15.811L26.538 15.727L26.568 15.637L26.594 15.539L26.614 15.435L26.632 15.326L26.641 15.214L26.649 15.101L26.649 14.986L26.646 14.871L26.632 14.755"/>
 <path stroke-width="0.131" stroke-linejoin="round" d="M26.71 15.987L26.754 15.932L26.797 15.864L26.835 15.785L26.868 15.698L26.897 15.599L26.923 15.496L26.942 15.385L26.957 15.271L26.964 15.153L26.966 15.032L26.963 14.913L26.951 14.798"/>
 <path stroke-width="0.131" stroke-linejoin="round" d="M27.123 16.012L27.184 15.929L27.242 15.827L27.292 15.711L27.336 15.579L27.373 15.435L27.402 15.282L27.422 15.121L27.435 14.955L27.435 14.787"/>
 <path stroke-width="0.131" stroke-linejoin="round" d="M27.55 15.948L27.591 15.884L27.628 15.811L27.661 15.727L27.692 15.637L27.716 15.539L27.737 15.435L27.754 15.326L27.765 15.214L27.771 15.101L27.772 14.986L27.769 14.871L27.756 14.755"/>
 <path stroke-width="0.131" stroke-linejoin="round" d="M27.833 15.987L27.879 15.932L27.92 15.864L27.958 15.785L27.992 15.698L28.021 15.599L28.047 15.496L28.065 15.385L28.079 15.271L28.088 15.153L28.091 15.032L28.088 14.913L28.074 14.798"/>
 <path stroke-width="0.131" stroke-linejoin="round" d="M28.221 16.012L28.283 15.929L28.339 15.827L28.39 15.711L28.434 15.579L28.471 15.435L28.501 15.282L28.521 15.121L28.533 14.955L28.533 14.787"/>
 <path stroke-width="0.131" stroke-linejoin="round" d="M28.635 15.948L28.675 15.884L28.711 15.811L28.745 15.727L28.777 15.637L28.801 15.539L28.823 15.435L28.839 15.326L28.85 15.214L28.856 15.101L28.858 14.986L28.853 14.871L28.841 14.755"/>
 <path stroke-width="0.131" stroke-linejoin="round" d="M28.917 15.987L28.963 15.932L29.004 15.864L29.044 15.785L29.077 15.698L29.106 15.599L29.132 15.496L29.15 15.385L29.164 15.271L29.172 15.153L29.175 15.032L29.172 14.913L29.16 14.798"/>
 <g>
  <path stroke-width="0.3" stroke-linejoin="round" d="M32.185 5.86L33.417 4.729L34.7 3.85L36.018 3.233L37.362 2.884L38.718 2.809L39.195 2.873"/>
  <path stroke-width="0.131" stroke-linejoin="round" d="M39.195 2.873L40.067 3.004L41.402 3.471L42.706 4.206L43.966 5.198L45.171 6.437L46.308 7.915L47.365 9.612L48.331 11.513L49.195 13.599L49.951 15.849L50.591 18.239L51.106 20.745L51.493 23.343"/>
 </g>
 <path stroke-width="0.3" stroke-linejoin="round" d="M39.005 2.801L40.158 2.801L41.304 3.008L42.439 3.42L43.549 4.035L43.718 4.165L44.624 4.849L45.661 5.852L46.649 7.035L47.582 8.393L48.448 9.91L48.719 10.493"/>
 <path stroke-width="0.3" stroke-linejoin="round" d="M50.421 14.772L50.598 15.308L51.142 17.341L51.593 19.461L51.948 21.655L52.206 23.902"/>
 <path stroke-width="0.131" stroke-linejoin="round" d="M48.731 10.484L49.25 11.577L49.968 13.381L50.42 14.776"/>
 <path stroke-width="0.3" stroke-linejoin="round" d="M48.704 9.968L48.859 10.009L49.005 10.048L49.142 10.083L49.265 10.119L49.375 10.154L49.462 10.18L49.527 10.195L49.584 10.211L49.64 10.243L49.71 10.304L49.915 10.696L50.293 11.531L50.726 12.526L51.093 13.403L51.276 13.882L51.32 14.035L51.348 14.144L51.363 14.234L51.363 14.336L51.35 14.478L51.292 14.718L51.179 15.038L51.051 15.361L50.947 15.609L50.908 15.712"/>
 <path stroke-width="0.131" stroke-linejoin="round" d="M32.185 15.522C32.1 15.436 31.949 15.378 31.911 15.259C31.859 15.092 31.949 14.925 32.009 14.771C32.118 14.489 32.284 14.217 32.442 13.96C32.761 13.441 33.167 12.965 33.603 12.541"/>
 <path stroke-width="0.131" stroke-linejoin="round" d="M35.57 9.775C35.707 9.935 35.768 10.057 35.988 10.093C36.177 10.125 36.371 10.135 36.563 10.137C36.859 10.137 37.628 10.255 37.789 9.939C37.921 9.606 38.197 9.672 38.505 9.705C38.887 9.747 38.93 9.612 39.13 9.33C39.356 9.01 39.579 9.131 39.921 9.236C40.246 9.336 40.554 9.512 40.856 9.666C41.947 10.221 42.801 11.384 43.511 12.352"/>
 <path stroke-width="0.131" stroke-linejoin="round" d="M32.289 20.21C32.561 20.292 32.984 20.55 33.276 20.426C33.631 20.274 33.887 20.03 34.159 19.76"/>
 <path stroke-width="0.3" stroke-linejoin="round" d="M35.131 14.993C35.686 15.115 36.569 15.535 37.036 15.06"/>
 <path stroke-width="0.3" stroke-linejoin="round" d="M40.194 14.952C40.595 15.167 40.843 15.333 41.308 15.176"/>
 <path stroke-width="0.3" stroke-linejoin="round" d="M41.136 15.224C41.506 15.73 41.927 16.234 42.212 16.794"/>
 <path stroke-width="0.3" stroke-linejoin="round" d="M44.106 20.028C44.503 21.391 45.109 22.836 45.109 24.274"/>
 <path stroke-width="0.131" stroke-linejoin="round" d="M45.487 15.742C45.591 16.157 45.707 16.568 45.783 16.989C45.811 17.146 45.795 18.019 45.899 18.051L45.86 18.051C46.206 19.041 46.545 20.024 46.804 21.039C47.045 21.992 47.055 23.007 47.125 23.983"/>
 <path stroke-width="0.3" stroke-linejoin="round" d="M30.469 8.702L30.179 9.314L29.908 9.875L29.653 10.407L29.417 10.929L29.201 11.461L29.001 12.025L28.826 12.586L28.687 13.071L28.597 13.414L28.571 13.544"/>
 <path stroke-width="0.3" stroke-linejoin="round" d="M27.782 16.077L27.621 17.376L27.463 18.634L27.315 19.8L27.195 20.827L27.111 21.669L27.059 22.388L27.022 23.044L27.001 23.582L26.993 23.949L26.993 24.091"/>
 <path stroke-width="0.131" stroke-linejoin="round" d="M35.389 9.632C34.975 9.852 34.46 9.999 34.109 10.314C33.728 10.653 33.43 11.044 33.17 11.481C32.601 12.435 32.078 13.409 31.582 14.4"/>
 <path stroke-width="0.131" stroke-linejoin="round" d="M30.39 19.396C30.079 20.611 29.571 21.856 29.832 23.126"/>
 <g>
  <path stroke-width="0.131" stroke-linejoin="round" d="M23.843 26.28L23.864 26.288L23.931 26.291L23.996 26.268L24.06 26.219L24.121 26.149L24.175 26.057L24.224 25.948L24.263 25.821L24.295 25.679L24.317 25.53L24.327 25.373L24.329 25.214L24.318 25.057L24.3 24.905L24.269 24.763L24.231 24.635L24.184 24.519L24.129 24.425L24.071 24.352L24.007 24.3L23.942 24.274L23.875 24.271L23.875 24.271"/>
  <path stroke-width="0.3" stroke-linejoin="round" d="M23.875 24.271L23.809 24.286L23.743 24.332L23.684 24.402L23.629 24.495L23.582 24.606L23.541 24.733L23.51 24.873L23.487 25.024L23.477 25.179L23.475 25.338L23.486 25.495L23.506 25.646L23.536 25.789L23.574 25.92L23.62 26.033L23.675 26.128L23.734 26.202L23.798 26.253L23.849 26.265"/>
 </g>
 <path stroke-width="0.131" stroke-linejoin="round" d="M24.222 26.506L24.224 26.506C24.515 26.506 24.751 25.946 24.751 25.26C24.751 24.571 24.515 24.013 24.224 24.013L24.222 24.013"/>
 <path stroke-width="0.131" stroke-linejoin="round" d="M28.457 26.617C28.736 26.574 28.952 26.027 28.952 25.365C28.952 24.673 28.714 24.111 28.422 24.111C28.411 24.111 28.399 24.111 28.388 24.114"/>
 <path stroke-width="0.3" stroke-linejoin="round" d="M27.033 24.057L24.231 24.007"/>
 <path stroke-width="0.3" stroke-linejoin="round" d="M28.388 24.083L27.033 24.057"/>
 <path stroke-width="0.3" stroke-linejoin="round" d="M24.217 24.019L23.829 24.265"/>
 <path stroke-width="0.3" stroke-linejoin="round" d="M23.804 26.332L24.307 26.486L28.466 26.641"/>
 <path stroke-width="0.131" stroke-linejoin="round" d="M24.708 26.498L24.769 26.416L24.826 26.315L24.878 26.198L24.922 26.065L24.958 25.923L24.987 25.768L25.009 25.608L25.021 25.442L25.021 25.274"/>
 <path stroke-width="0.131" stroke-linejoin="round" d="M25.134 26.434L25.175 26.37L25.213 26.297L25.246 26.214L25.277 26.125L25.301 26.025L25.323 25.923L25.339 25.814L25.35 25.701L25.356 25.588L25.359 25.472L25.353 25.358L25.341 25.242"/>
 <path stroke-width="0.131" stroke-linejoin="round" d="M25.419 26.474L25.463 26.417L25.504 26.35L25.544 26.271L25.576 26.184L25.606 26.086L25.632 25.983L25.65 25.871L25.666 25.757L25.673 25.64L25.675 25.521L25.672 25.4L25.658 25.285"/>
 <path stroke-width="0.131" stroke-linejoin="round" d="M25.832 26.498L25.893 26.416L25.951 26.315L26.001 26.198L26.045 26.065L26.082 25.923L26.111 25.768L26.132 25.608L26.143 25.442L26.143 25.274"/>
 <path stroke-width="0.131" stroke-linejoin="round" d="M26.257 26.434L26.298 26.37L26.335 26.297L26.37 26.214L26.399 26.125L26.425 26.025L26.446 25.923L26.463 25.814L26.475 25.701L26.481 25.588L26.481 25.472L26.478 25.358L26.464 25.242"/>
 <path stroke-width="0.131" stroke-linejoin="round" d="M26.53 26.474L26.574 26.417L26.615 26.35L26.653 26.271L26.687 26.184L26.716 26.086L26.742 25.983L26.762 25.871L26.775 25.757L26.785 25.64L26.786 25.521L26.783 25.4L26.769 25.285"/>
 <path stroke-width="0.131" stroke-linejoin="round" d="M26.917 26.498L26.978 26.416L27.035 26.315L27.085 26.198L27.129 26.065L27.167 25.923L27.196 25.768L27.216 25.608L27.228 25.442L27.228 25.274"/>
 <path stroke-width="0.131" stroke-linejoin="round" d="M27.343 26.434L27.382 26.37L27.42 26.297L27.454 26.214L27.484 26.125L27.51 26.025L27.532 25.923L27.548 25.814L27.559 25.701L27.565 25.588L27.567 25.472L27.562 25.358L27.548 25.242"/>
 <path stroke-width="0.131" stroke-linejoin="round" d="M27.614 26.474L27.658 26.417L27.701 26.35L27.739 26.271L27.772 26.184L27.803 26.086L27.827 25.983L27.847 25.871L27.859 25.757L27.868 25.64L27.871 25.521L27.867 25.4L27.855 25.285"/>
 <path stroke-width="0.131" stroke-linejoin="round" d="M29.925 27.326C30.109 29.083 30.248 30.858 30.609 32.591"/>
 <path stroke-width="0.131" stroke-linejoin="round" d="M31.347 27.701C31.69 27.774 32.203 28.018 32.506 27.73C32.859 27.431 32.957 26.914 33.103 26.492"/>
 <path stroke-width="0.131" stroke-linejoin="round" d="M32.445 28.01C32.514 28.431 32.554 28.855 32.646 29.271C32.74 29.693 33.113 29.977 33.438 30.221"/>
 <path stroke-width="0.131" stroke-linejoin="round" d="M32.445 31.019C32.759 30.736 32.976 30.481 33.432 30.486"/>
 <path stroke-width="0.131" stroke-linejoin="round" d="M32.792 35.527C33.094 35.484 33.682 35.243 33.951 35.462C34.283 35.732 34.412 36.079 34.625 36.439"/>
 <path stroke-width="0.3" stroke-linejoin="round" d="M45.295 28.539L45.165 29.239L45.055 29.917L44.948 30.545L44.829 31.099L44.685 31.553L44.497 31.932L44.286 32.265L44.088 32.533L43.942 32.709L43.889 32.774"/>
 <path stroke-width="0.131" stroke-linejoin="round" d="M34.627 34.725C34.796 34.389 34.982 34.1 35.029 33.716C35.072 33.35 35.052 32.953 35.003 32.588"/>
 <path stroke-width="0.131" stroke-linejoin="round" d="M31.721 35.527C31.675 35.732 31.625 35.881 31.498 36.055C31.382 36.216 31.181 36.454 31.306 36.661C31.425 36.859 31.591 37.018 31.707 37.225C31.833 37.451 31.954 37.677 32.078 37.905C32.317 38.343 32.575 38.765 32.84 39.188C33.14 39.664 33.53 39.685 34.04 39.689"/>
 <path stroke-width="0.131" stroke-linejoin="round" d="M32.03 36.328C32.293 36.823 32.551 37.323 32.81 37.82C33.039 38.262 33.265 38.996 33.854 38.993"/>
 <path stroke-width="0.131" stroke-linejoin="round" d="M41.02 42.1C41.292 41.909 40.781 41.603 40.646 41.499"/>
 <path stroke-width="0.131" stroke-linejoin="round" d="M35.273 40.744C35.176 41.161 35.975 41.482 36.28 41.654C36.79 41.939 37.329 42.143 37.883 42.328C38.85 42.651 40.173 42.828 41.024 42.109"/>
 <path stroke-width="0.3" stroke-linejoin="round" d="M27.149 26.641L27.242 27.545L27.315 28.353L27.39 29.126L27.481 29.92L27.606 30.798L27.783 31.803L27.995 32.843L28.196 33.768L28.347 34.432L28.411 34.692"/>
 <path stroke-width="0.3" stroke-linejoin="round" d="M29.202 37.347L29.513 38.033L29.806 38.682L30.079 39.287L30.335 39.848L30.576 40.36L30.811 40.844L31.033 41.298L31.225 41.676L31.359 41.936L31.411 42.04"/>
 <path stroke-width="0.3" stroke-linejoin="round" d="M43.959 47.719L43.429 47.886L42.939 48.006L42.484 48.11L42.093 48.198L41.776 48.25L41.496 48.277L41.222 48.289L40.92 48.301L40.634 48.316L40.408 48.325L40.194 48.323L39.947 48.304L39.624 48.264L39.215 48.186L38.747 48.07L38.234 47.926L37.683 47.771L37.106 47.615C34.884 46.71 33.478 44.978 33.478 44.978"/>
 <path stroke-width="0.3" stroke-linejoin="round" d="M43.951 47.706L43.954 47.704L44.527 47.448L45.146 47.07L45.78 46.573L46.404 45.972L47.021 45.262L47.643 44.436L48.274 43.485L48.875 42.406L49.081 41.966"/>
 <path stroke-width="0.3" stroke-linejoin="round" d="M50.847 37.283L51.045 36.633L51.213 36.021L51.32 35.6L51.359 35.445"/>
 <path stroke-width="0.131" stroke-linejoin="round" d="M49.079 41.972L49.404 41.261L49.859 40.113L50.246 39.051L50.563 38.155L50.829 37.369L50.853 37.28"/>
 <path stroke-width="0.131" stroke-linejoin="round" d="M42.75 47.951L43.113 47.737L43.429 47.567L43.732 47.396L44.067 47.183L44.466 46.884L44.917 46.524L45.381 46.134L45.862 45.676L46.368 45.112L46.906 44.405L47.45 43.545L47.968 42.575L48.462 41.512L48.933 40.386L49.386 39.218L49.811 37.948L50.186 36.624L50.487 35.439L50.686 34.588L50.764 34.265"/>
 <path stroke-width="0.131" stroke-linejoin="round" d="M44.042 32.661C44.445 32.506 44.84 32.326 45.244 32.177C45.674 32.018 46.051 32.017 46.329 32.435"/>
 <path stroke-width="0.131" stroke-linejoin="round" d="M35.686 36.25C35.956 36.082 36.194 35.88 36.506 35.798C36.805 35.718 37.134 35.863 37.402 35.985"/>
 <path stroke-width="0.131" stroke-linejoin="round" d="M40.31 36.856C40.624 36.762 41.009 36.546 41.34 36.549C41.71 36.554 41.963 36.752 42.216 37.006"/>
 <g>
  <path stroke-width="0.131" stroke-linejoin="round" d="M44.468 27.649L44.529 27.628L44.597 27.577L44.661 27.503L44.719 27.405L44.77 27.288L44.813 27.152L44.847 27.003L44.868 26.841L44.881 26.675L44.881 26.507L44.871 26.339L44.85 26.178L44.819 26.027L44.777 25.89L44.728 25.768L44.67 25.667L44.606 25.588L44.539 25.533L44.475 25.507"/>
  <path stroke-width="0.3" stroke-linejoin="round" d="M44.475 25.507L44.396 25.503L44.326 25.527L44.258 25.576L44.194 25.652L44.136 25.75L44.084 25.867L44.042 26.003L44.009 26.152L43.985 26.312L43.973 26.48L43.972 26.647L43.982 26.815L44.003 26.977L44.036 27.128L44.076 27.265L44.127 27.387L44.183 27.487L44.247 27.567L44.314 27.62L44.384 27.649L44.457 27.652L44.469 27.652"/>
 </g>
 <path stroke-width="0.131" stroke-linejoin="round" d="M44.765 25.234L44.853 25.248L44.939 25.297L45.018 25.376L45.094 25.486L45.161 25.62L45.219 25.777L45.265 25.955L45.298 26.146L45.317 26.35L45.326 26.556L45.317 26.765L45.298 26.966L45.265 27.158L45.219 27.335L45.161 27.493L45.094 27.629L45.018 27.737L44.939 27.815L44.853 27.864L44.762 27.876"/>
 <path stroke-width="0.131" stroke-linejoin="round" d="M49.195 25.31L49.286 25.314L49.375 25.35L49.46 25.42L49.539 25.519L49.612 25.647L49.676 25.8L49.728 25.975L49.767 26.167L49.795 26.371L49.807 26.583L49.805 26.798L49.79 27.009L49.762 27.211L49.719 27.4L49.665 27.571L49.6 27.722L49.527 27.844L49.445 27.939L49.359 28.001L49.268 28.027"/>
 <path stroke-width="0.3" stroke-linejoin="round" d="M49.195 25.31L44.765 25.234L44.351 25.492"/>
 <path stroke-width="0.3" stroke-linejoin="round" d="M44.313 27.701L44.843 27.868"/>
 <path stroke-width="0.3" stroke-linejoin="round" d="M44.856 27.868L49.271 28.036"/>
 <path stroke-width="0.131" stroke-linejoin="round" d="M45.281 27.882L45.347 27.792L45.408 27.684L45.463 27.559L45.509 27.42L45.548 27.266L45.579 27.103L45.6 26.931L45.613 26.756L45.613 26.574"/>
 <path stroke-width="0.131" stroke-linejoin="round" d="M45.734 27.817L45.777 27.748L45.817 27.67L45.853 27.582L45.884 27.484L45.911 27.381L45.933 27.271L45.951 27.155L45.963 27.036L45.97 26.914L45.972 26.792L45.968 26.67L45.954 26.553"/>
 <path stroke-width="0.131" stroke-linejoin="round" d="M46.03 27.843L46.078 27.783L46.122 27.711L46.164 27.629L46.2 27.535L46.231 27.431L46.258 27.32L46.279 27.202L46.292 27.079L46.301 26.954L46.304 26.826L46.301 26.699L46.289 26.571"/>
 <path stroke-width="0.131" stroke-linejoin="round" d="M46.482 27.882L46.548 27.792L46.609 27.684L46.662 27.559L46.71 27.42L46.75 27.266L46.78 27.103L46.801 26.931L46.814 26.756L46.814 26.574"/>
 <path stroke-width="0.131" stroke-linejoin="round" d="M46.923 27.817L46.965 27.748L47.005 27.67L47.04 27.582L47.073 27.484L47.1 27.381L47.122 27.271L47.14 27.155L47.152 27.036L47.158 26.914L47.161 26.792L47.155 26.67L47.143 26.553"/>
 <path stroke-width="0.131" stroke-linejoin="round" d="M47.219 27.843L47.267 27.783L47.31 27.711L47.351 27.629L47.387 27.535L47.418 27.431L47.445 27.32L47.466 27.202L47.481 27.079L47.49 26.954L47.493 26.826L47.49 26.699L47.476 26.571"/>
 <path stroke-width="0.131" stroke-linejoin="round" d="M47.631 27.882L47.698 27.792L47.758 27.684L47.811 27.559L47.859 27.42L47.899 27.266L47.929 27.103L47.951 26.931L47.963 26.756L47.963 26.574"/>
 <path stroke-width="0.131" stroke-linejoin="round" d="M48.085 27.817L48.128 27.748L48.167 27.67L48.204 27.582L48.234 27.484L48.262 27.381L48.284 27.271L48.302 27.155L48.314 27.036L48.322 26.914L48.323 26.792L48.317 26.67L48.304 26.553"/>
 <path stroke-width="0.131" stroke-linejoin="round" d="M48.381 27.843L48.429 27.783L48.472 27.711L48.514 27.629L48.551 27.535L48.582 27.431L48.609 27.32L48.628 27.202L48.643 27.079L48.652 26.954L48.655 26.826L48.652 26.699L48.639 26.571"/>
 <path stroke-width="0.131" stroke-linejoin="round" d="M41.549 22.716C42.624 22.138 43.271 23.318 43.606 24.166C43.963 25.07 43.936 26.129 43.853 27.077"/>
 <path stroke-width="0.131" stroke-linejoin="round" d="M40.722 23.762C40.911 23.402 41.146 22.885 41.545 22.714"/>
 <path stroke-width="0.131" stroke-linejoin="round" d="M43.847 27.08C43.646 27.856 43.424 28.492 42.805 29.027C42.488 29.3 42.048 29.123 41.747 28.952C41.444 28.78 41.267 28.367 41.106 28.077"/>
 <g>
  <path stroke-width="0.3" stroke-linejoin="round" d="M52.229 29.353L52.21 29.693L52.161 30.26L52.084 30.98L51.948 31.974L51.759 33.143L51.567 34.265L51.417 35.106L51.359 35.441L51.372 35.441"/>
  <path stroke-width="0.131" stroke-linejoin="round" d="M51.372 35.441L51.374 35.45L51.384 35.448L51.393 35.447L51.393 35.447"/>
 </g>
 <path stroke-width="0.131" stroke-linejoin="round" d="M52.204 23.903L52.225 24.795L52.252 25.611L52.274 26.385L52.286 27.147L52.279 27.929L52.262 28.629L52.244 29.184L52.231 29.352"/>
 <path stroke-width="0.3" stroke-linejoin="round" d="M52.243 23.464L52.353 23.475L52.454 23.478L52.548 23.484L52.643 23.503L52.738 23.541L52.826 23.591L52.898 23.643L52.96 23.708L53.02 23.798L53.082 23.922L53.173 24.263L53.293 24.905L53.412 25.711L53.505 26.548L53.539 27.277L53.511 27.911L53.444 28.513L53.356 29.03L53.268 29.411L53.195 29.605L53.143 29.664L53.091 29.698L53.036 29.714L52.972 29.73L52.892 29.757L52.77 29.8L52.609 29.85L52.451 29.897L52.329 29.934L52.279 29.946"/>
 <path stroke-width="0.131" stroke-linejoin="round" d="M47.478 28.346C47.281 29.484 47.09 30.625 46.89 31.763C46.698 32.856 46.395 33.93 46.219 35.024"/>
 <path stroke-width="0.131" stroke-linejoin="round" d="M42.311 40.267L42.371 40.265L42.441 40.235L42.505 40.18L42.564 40.1L42.615 40L42.658 39.878L42.692 39.741L42.715 39.59L42.725 39.429L42.726 39.261L42.716 39.093L42.694 38.926L42.661 38.767L42.619 38.618L42.569 38.482L42.512 38.365L42.448 38.268L42.378 38.195L42.308 38.145L42.235 38.121L42.222 38.121"/>
 <path stroke-width="0.3" stroke-linejoin="round" d="M42.234 38.122L42.168 38.125L42.1 38.155L42.036 38.21L41.976 38.287L41.926 38.39L41.883 38.511L41.848 38.649L41.826 38.801L41.814 38.962L41.814 39.128L41.825 39.298L41.847 39.463L41.878 39.622L41.92 39.771L41.972 39.906L42.029 40.024L42.094 40.121L42.161 40.195L42.232 40.244L42.304 40.268L42.319 40.268"/>
 <path stroke-width="0.131" stroke-linejoin="round" d="M42.518 37.838L42.606 37.848L42.695 37.89L42.781 37.965L42.863 38.067L42.939 38.198L43.008 38.35L43.064 38.524L43.112 38.713L43.146 38.914L43.167 39.121L43.174 39.328L43.168 39.53L43.148 39.725L43.115 39.905L43.067 40.067L43.011 40.206L42.942 40.319L42.868 40.404L42.786 40.457L42.695 40.482"/>
 <path stroke-width="0.131" stroke-linejoin="round" d="M46.948 37.606L47.037 37.603L47.13 37.634L47.219 37.697L47.307 37.789L47.387 37.914L47.46 38.061L47.524 38.232L47.578 38.42L47.618 38.624L47.646 38.834L47.658 39.048L47.658 39.259L47.643 39.463L47.615 39.655L47.572 39.829L47.518 39.982L47.453 40.11L47.378 40.21L47.295 40.28L47.206 40.319"/>
 <path stroke-width="0.3" stroke-linejoin="round" d="M46.948 37.606L42.518 37.838L42.131 38.122"/>
 <path stroke-width="0.3" stroke-linejoin="round" d="M42.234 40.319L42.777 40.448"/>
 <path stroke-width="0.3" stroke-linejoin="round" d="M42.777 40.46L47.206 40.319"/>
 <path stroke-width="0.131" stroke-linejoin="round" d="M43.215 40.448L43.274 40.354L43.328 40.241L43.372 40.113L43.411 39.97L43.439 39.816L43.459 39.651L43.469 39.478L43.469 39.301L43.457 39.121"/>
 <path stroke-width="0.131" stroke-linejoin="round" d="M43.655 40.344L43.692 40.273L43.726 40.192L43.756 40.103L43.781 40.003L43.802 39.899L43.817 39.786L43.826 39.67L43.831 39.549L43.829 39.429L43.822 39.305L43.808 39.183L43.795 39.067"/>
 <path stroke-width="0.131" stroke-linejoin="round" d="M43.951 40.357L43.994 40.295L44.033 40.219L44.069 40.134L44.1 40.037L44.124 39.932L44.142 39.82L44.155 39.701L44.161 39.578L44.161 39.453L44.155 39.326L44.143 39.198L44.131 39.07"/>
 <path stroke-width="0.131" stroke-linejoin="round" d="M44.404 40.357L44.463 40.264L44.515 40.152L44.561 40.023L44.597 39.881L44.627 39.725L44.646 39.561L44.656 39.389L44.658 39.21L44.645 39.03"/>
 <path stroke-width="0.131" stroke-linejoin="round" d="M44.843 40.253L44.881 40.182L44.915 40.103L44.945 40.012L44.97 39.914L44.99 39.807L45.006 39.695L45.015 39.579L45.018 39.46L45.017 39.338L45.009 39.215L44.996 39.094L44.984 38.976"/>
 <path stroke-width="0.131" stroke-linejoin="round" d="M45.152 40.267L45.197 40.204L45.235 40.128L45.27 40.043L45.301 39.948L45.325 39.841L45.343 39.729L45.356 39.61L45.362 39.488L45.362 39.362L45.356 39.234L45.344 39.109L45.332 38.979"/>
 <path stroke-width="0.131" stroke-linejoin="round" d="M45.567 40.28L45.625 40.186L45.677 40.075L45.722 39.947L45.762 39.804L45.789 39.648L45.808 39.481L45.819 39.31L45.82 39.134L45.807 38.953"/>
 <path stroke-width="0.131" stroke-linejoin="round" d="M46.005 40.176L46.043 40.106L46.078 40.024L46.107 39.935L46.133 39.835L46.154 39.729L46.167 39.618L46.177 39.503L46.18 39.381L46.179 39.261L46.171 39.137L46.158 39.017L46.146 38.899"/>
 <path stroke-width="0.131" stroke-linejoin="round" d="M46.301 40.189L46.345 40.127L46.384 40.051L46.42 39.966L46.45 39.869L46.473 39.765L46.493 39.652L46.506 39.533L46.512 39.409L46.512 39.284L46.506 39.158L46.493 39.031L46.481 38.902"/>
 <path stroke-width="0.3" stroke-linejoin="round" d="M48.871 42.436L49.006 42.408L49.128 42.389L49.244 42.368L49.359 42.338L49.478 42.293L49.588 42.246L49.676 42.206L49.756 42.156L49.841 42.084L49.944 41.972L50.191 41.536L50.615 40.682L51.088 39.682L51.478 38.805L51.658 38.328L51.68 38.167L51.685 38.048L51.67 37.948L51.637 37.847L51.588 37.72L51.491 37.557L51.354 37.381L51.21 37.219L51.097 37.097L51.045 37.045"/>
 <path stroke-width="0.3" stroke-linejoin="round" d="M51.481 36.185L51.72 36.128L51.942 36.082L52.151 36.036L52.351 35.978L52.554 35.899L52.753 35.79L52.942 35.665L53.1 35.543L53.215 35.448L53.265 35.396"/>
 <g>
  <path stroke-width="0.3" stroke-linejoin="round" d="M43.731 3.807L44.817 2.93L45.942 2.208L47.094 1.645L48.271 1.248L49.462 1.016L49.578 1.016"/>
  <path stroke-width="0.131" stroke-linejoin="round" d="M49.578 1.016L50.665 0.962L51.862 1.066L53.048 1.34L54.219 1.78L55.365 2.383L56.481 3.145L57.557 4.062L58.587 5.126L59.564 6.333L60.481 7.674L61.335 9.137L62.118 10.718L62.826 12.403L63.453 14.182L63.996 16.042L64.45 17.975L64.813 19.964L65.084 21.998L65.26 24.062L65.338 26.146L65.322 28.234L65.206 30.314"/>
 </g>
 <path stroke-width="0.131" stroke-linejoin="round" d="M56.091 48.118L56.027 48.161L54.762 48.746L53.469 49.116L52.161 49.268"/>
 <path stroke-width="0.131" stroke-linejoin="round" d="M65.197 30.309L64.876 32.524L64.435 34.674L63.877 36.74L63.206 38.703L62.429 40.543L61.555 42.244L60.591 43.789L59.545 45.167L58.429 46.36L57.252 47.36L56.088 48.109"/>
 <path stroke-width="0.3" stroke-linejoin="round" d="M58.445 3.883C63.366 7.681 66.54 16.181 66.54 25.562C66.54 33.607 64.143 41.054 60.323 45.472C58.74 47.304 57.456 48.118 57.456 48.118L57.433 48.161L56.125 48.746L54.834 49.116L53.526 49.268L53.396 49.261L52.161 49.268L50.851 49.198L49.551 48.908L48.274 48.399L47.031 47.679L45.831 46.75"/>
 <path stroke-width="0.3" stroke-linejoin="round" d="M53.341 1.096L52.942 0.968L51.018 0.735"/>
 <path stroke-width="0.3" stroke-linejoin="round" d="M58.442 3.884L56.671 2.555L54.828 1.579L53.329 1.1"/>
 <g>
  <path stroke-width="0.3" stroke-linejoin="round" d="M53.948 1.032L55.052 1.141L55.116 1.153"/>
  <path stroke-width="0.131" stroke-linejoin="round" d="M55.116 1.153L56.143 1.399L57.225 1.797L58.287 2.334L59.323 3.012L60.328 3.82L61.295 4.759L62.216 5.823L63.091 7.003L63.912 8.297L64.676 9.693L65.376 11.186L66.012 12.766L66.575 14.426L67.066 16.153L67.481 17.942L67.819 19.778L68.075 21.655L68.251 23.559L68.343 25.481L68.352 27.41L68.275 29.335L68.046 31.068L67.736 32.774L67.355 34.435L66.903 36.042L66.385 37.585L65.804 39.06L65.161 40.453L64.459 41.759L63.706 42.973L62.902 44.085L62.049 45.093C60.091 47.195 58.685 48.115 56.954 48.548"/>
 </g>
 <path stroke-width="0.3" stroke-linejoin="round" d="M69.18 29.408C69.231 28.521 69.26 27.628 69.26 26.734C69.26 12.772 62.848 1.379 54.841 1.11"/>
 <path stroke-width="0.3" stroke-linejoin="round" d="M69.174 29.405L68.938 31.146L68.628 32.851L68.245 34.512L67.796 36.119L67.278 37.664L66.694 39.137L66.052 40.53L65.35 41.838L64.596 43.051L63.792 44.164L62.941 45.17C61.173 47.304 58.901 48.765 56.304 48.765"/>
 <path stroke-width="0.131" stroke-linejoin="round" d="M51.468 12.744L52.164 13.148L52.832 13.675L53.465 14.32L54.057 15.076L54.6 15.933L55.088 16.885L55.52 17.92L55.887 19.027L56.185 20.193L56.414 21.41L56.567 22.658L56.646 23.925"/>
 <path stroke-width="0.131" stroke-linejoin="round" d="M51.84 39.841C55.686 38.548 58.466 32.676 58.466 25.846C58.466 18.31 55.103 12.077 50.789 11.618"/>
 <path stroke-width="0.131" stroke-linejoin="round" d="M53.637 35.268L54.185 34.715L54.692 34.054L55.154 33.298L55.561 32.451L55.909 31.53L56.197 30.547L56.415 29.51L56.57 28.439"/>
 <path stroke-width="0.131" stroke-linejoin="round" d="M63.75 10.653L63.817 10.641L63.875 10.634L63.932 10.628L63.996 10.612L64.073 10.582L64.189 10.51L64.337 10.4L64.486 10.282L64.6 10.188L64.653 10.148"/>
 <path stroke-width="0.131" stroke-linejoin="round" d="M64.215 11.943L64.364 11.919L64.498 11.887L64.628 11.861L64.757 11.85L64.896 11.872L65.046 11.942L65.194 12.053L65.322 12.169L65.42 12.263L65.471 12.303"/>
 <path stroke-width="0.131" stroke-linejoin="round" d="M66.798 24.329L67.031 24.338L67.263 24.338L67.475 24.341L67.65 24.359L67.766 24.402L67.831 24.471L67.871 24.55L67.893 24.632L67.903 24.705L67.915 24.757"/>
 <path stroke-width="0.131" stroke-linejoin="round" d="M66.733 22.882L66.956 22.876L67.176 22.879L67.379 22.878L67.548 22.861L67.667 22.811L67.737 22.722L67.781 22.609L67.802 22.498L67.808 22.414L67.808 22.376"/>
 <path stroke-width="0.131" stroke-linejoin="round" d="M62.561 8.314L62.71 8.291L62.845 8.259L62.975 8.231L63.103 8.223L63.243 8.243L63.393 8.314L63.539 8.423L63.67 8.541L63.768 8.634L63.819 8.673"/>
 <path stroke-width="0.131" stroke-linejoin="round" d="M65.48 15.742L65.629 15.717L65.763 15.685L65.893 15.657L66.022 15.649L66.162 15.669L66.313 15.74L66.459 15.849L66.588 15.967L66.686 16.06L66.737 16.1"/>
 <path stroke-width="0.131" stroke-linejoin="round" d="M61.813 7.463L62.78 7.217"/>
 <path stroke-width="0.131" stroke-linejoin="round" d="M59.695 4.867L60.767 4.764"/>
 <path stroke-width="0.131" stroke-linejoin="round" d="M57.472 2.968L58.299 2.891"/>
 <path stroke-width="0.131" stroke-linejoin="round" d="M65.003 14.384L66.332 14.166"/>
 <path stroke-width="0.131" stroke-linejoin="round" d="M66.126 18.621L67.237 18.376"/>
 <path stroke-width="0.131" stroke-linejoin="round" d="M66.293 19.873L66.527 19.882L66.759 19.882L66.971 19.887L67.147 19.902L67.263 19.946L67.328 20.015L67.367 20.094L67.388 20.176L67.399 20.25L67.412 20.301"/>
 <path stroke-width="0.131" stroke-linejoin="round" d="M66.668 28.798L66.902 28.806L67.134 28.807L67.346 28.811L67.521 28.827L67.638 28.87L67.703 28.939L67.742 29.018L67.763 29.1L67.774 29.173L67.787 29.225"/>
 <path stroke-width="0.131" stroke-linejoin="round" d="M66.14 33.021L66.371 33.03L66.603 33.03L66.816 33.033L66.992 33.051L67.108 33.094L67.174 33.161L67.212 33.243L67.233 33.323L67.243 33.396L67.257 33.448"/>
 <path stroke-width="0.131" stroke-linejoin="round" d="M64.95 37.103L65.183 37.11L65.415 37.112L65.629 37.115L65.804 37.131L65.92 37.174L65.986 37.243L66.025 37.323L66.046 37.405L66.057 37.478L66.069 37.53"/>
 <path stroke-width="0.131" stroke-linejoin="round" d="M63.621 40.526L63.853 40.533L64.085 40.533L64.299 40.536L64.472 40.554L64.59 40.597L64.655 40.665L64.694 40.746L64.715 40.826L64.725 40.901L64.739 40.953"/>
 <path stroke-width="0.131" stroke-linejoin="round" d="M65.996 34.661L66.075 34.777L66.147 34.871L66.215 34.963L66.281 35.075L66.346 35.219L66.409 35.436L66.462 35.709L66.504 35.976L66.536 36.182L66.561 36.274"/>
 <path stroke-width="0.131" stroke-linejoin="round" d="M66.591 30.71L66.766 30.853L66.935 30.972L67.09 31.088L67.233 31.225L67.361 31.408L67.454 31.663L67.512 31.961L67.543 32.25L67.558 32.468L67.57 32.558"/>
 <path stroke-width="0.131" stroke-linejoin="round" d="M64.641 38.432L64.733 38.587L64.822 38.728L64.906 38.862L64.977 38.993L65.025 39.131L65.048 39.279L65.049 39.426L65.039 39.557L65.028 39.651L65.028 39.689"/>
 <path stroke-width="0.131" stroke-linejoin="round" d="M62.406 43.494L62.496 43.499L62.575 43.506L62.651 43.511L62.731 43.509L62.826 43.494L62.942 43.462L63.066 43.411L63.182 43.356L63.271 43.31L63.31 43.284"/>
 <path stroke-width="0.131" stroke-linejoin="round" d="M50.99 49.371L50.847 49.228"/>
 <path stroke-width="0.3" stroke-linejoin="round" d="M51.015 0.734L49.35 0.98"/>
 <path stroke-width="0.3" stroke-linejoin="round" d="M54.101 0.98L53.25 0.98"/>
 <path stroke-width="0.131" stroke-linejoin="round" d="M38.917 10.925C38.338 10.925 38.265 12.096 38.265 12.467C38.265 12.837 38.338 14.006 38.917 14.006C39.496 14.006 39.569 12.837 39.569 12.467C39.569 12.095 39.496 10.925 38.917 10.925z"/>
 <path stroke-width="0.3" stroke-linejoin="round" d="M38.545 11.175L38.786 10.82L39.908 10.82"/>
 <path stroke-width="0.131" stroke-linejoin="round" d="M39.896 10.82L40.646 11.647L40.683 13.545L39.857 14.256"/>
 <path stroke-width="0.131" stroke-linejoin="round" d="M40.606 13.506L39.819 13.506"/>
 <path stroke-width="0.131" stroke-linejoin="round" d="M40.606 11.711L39.819 11.673"/>
 <path stroke-width="0.131" stroke-linejoin="round" d="M39.082 14.101C39.228 13.952 39.359 13.775 39.53 13.654C39.63 13.585 39.834 13.563 39.865 13.429C39.863 13.442 39.868 13.455 39.865 13.468C39.695 12.881 39.64 12.349 39.79 11.753C39.789 11.762 39.789 11.781 39.79 11.789C39.709 11.631 39.637 11.468 39.545 11.317C39.457 11.17 39.326 11.064 39.234 10.926"/>
 <path stroke-width="0.3" stroke-linejoin="round" d="M39.262 10.743C39.405 10.525 39.54 10.323 39.773 10.192C40.338 9.835 40.881 10.599 41.03 11.048C41.226 11.634 41.308 12.223 41.268 12.839C41.229 13.425 41.1 14.099 40.707 14.56C40.521 14.778 40.265 14.97 39.957 14.907C39.686 14.852 39.408 14.582 39.304 14.332"/>
 <path stroke-width="0.3" stroke-linejoin="round" d="M38.545 11.175C38.073 11.907 38.097 13.223 38.656 13.903"/>
 <path stroke-width="0.3" stroke-linejoin="round" d="M39.817 14.257L39.029 14.297L38.656 13.903"/>
 <path stroke-width="0.131" stroke-linejoin="round" d="M42.936 16.079C42.357 16.079 42.286 17.25 42.286 17.62C42.286 17.992 42.357 19.161 42.936 19.161C43.517 19.161 43.588 17.992 43.588 17.62C43.588 17.25 43.517 16.079 42.936 16.079z"/>
 <path stroke-width="0.3" stroke-linejoin="round" d="M42.567 16.329L42.805 15.974L43.929 15.974"/>
 <path stroke-width="0.131" stroke-linejoin="round" d="M43.917 15.974L44.665 16.801L44.704 18.699L43.878 19.411"/>
 <path stroke-width="0.131" stroke-linejoin="round" d="M44.627 18.661L43.84 18.661"/>
 <path stroke-width="0.131" stroke-linejoin="round" d="M44.627 16.867L43.84 16.827"/>
 <path stroke-width="0.131" stroke-linejoin="round" d="M43.103 19.256C43.247 19.108 43.38 18.928 43.549 18.809C43.649 18.739 43.853 18.716 43.886 18.585C43.884 18.596 43.889 18.609 43.886 18.621C43.716 18.035 43.659 17.504 43.811 16.908L43.811 16.945C43.728 16.786 43.656 16.623 43.564 16.471C43.476 16.326 43.347 16.219 43.255 16.08"/>
 <path stroke-width="0.3" stroke-linejoin="round" d="M43.283 15.897C43.426 15.681 43.561 15.478 43.792 15.346C44.359 14.99 44.901 15.753 45.051 16.204C45.246 16.789 45.329 17.376 45.289 17.992C45.25 18.579 45.119 19.254 44.726 19.714C44.54 19.932 44.284 20.125 43.976 20.062C43.706 20.007 43.429 19.736 43.323 19.486"/>
 <path stroke-width="0.3" stroke-linejoin="round" d="M42.567 16.329C42.094 17.062 42.116 18.376 42.676 19.057"/>
 <path stroke-width="0.3" stroke-linejoin="round" d="M43.837 19.411L43.048 19.451L42.676 19.057"/>
 <path stroke-width="0.131" stroke-linejoin="round" d="M43.073 33.59C42.531 33.59 42.465 34.685 42.465 35.03C42.465 35.378 42.531 36.472 43.073 36.472C43.615 36.472 43.682 35.378 43.682 35.03C43.682 34.683 43.615 33.59 43.073 33.59z"/>
 <path stroke-width="0.3" stroke-linejoin="round" d="M42.726 33.823L42.951 33.493L44 33.493"/>
 <path stroke-width="0.131" stroke-linejoin="round" d="M43.988 33.493L44.689 34.265L44.725 36.039L43.953 36.704"/>
 <path stroke-width="0.131" stroke-linejoin="round" d="M44.652 36.003L43.917 36.003"/>
 <path stroke-width="0.131" stroke-linejoin="round" d="M44.652 34.326L43.917 34.289"/>
 <path stroke-width="0.131" stroke-linejoin="round" d="M43.228 36.558C43.363 36.42 43.487 36.253 43.646 36.142C43.74 36.076 43.929 36.055 43.96 35.932C43.959 35.942 43.963 35.956 43.96 35.966C43.801 35.418 43.749 34.921 43.89 34.363L43.89 34.399C43.814 34.25 43.746 34.098 43.659 33.957C43.578 33.82 43.456 33.72 43.369 33.591"/>
 <path stroke-width="0.3" stroke-linejoin="round" d="M43.398 33.42C43.53 33.218 43.656 33.029 43.872 32.905C44.402 32.572 44.908 33.286 45.049 33.707C45.232 34.253 45.31 34.802 45.271 35.378C45.234 35.926 45.113 36.558 44.746 36.987C44.573 37.192 44.332 37.371 44.045 37.313C43.792 37.262 43.533 37.008 43.435 36.774"/>
 <path stroke-width="0.3" stroke-linejoin="round" d="M42.726 33.823C42.284 34.509 42.307 35.737 42.829 36.374"/>
 <path stroke-width="0.3" stroke-linejoin="round" d="M43.914 36.706L43.177 36.741L42.829 36.374"/>
 <path stroke-width="0.131" stroke-linejoin="round" d="M34.253 11.204C33.71 11.204 33.643 12.304 33.643 12.651C33.643 13 33.71 14.098 34.253 14.098C34.798 14.098 34.865 13 34.865 12.651C34.865 12.303 34.798 11.204 34.253 11.204z"/>
 <path stroke-width="0.3" stroke-linejoin="round" d="M33.905 11.439L34.13 11.106L35.185 11.106"/>
 <path stroke-width="0.131" stroke-linejoin="round" d="M35.173 11.106L35.875 11.882L35.912 13.664L35.137 14.332"/>
 <path stroke-width="0.131" stroke-linejoin="round" d="M35.84 13.628L35.1 13.628"/>
 <path stroke-width="0.131" stroke-linejoin="round" d="M35.84 11.943L35.1 11.907"/>
 <path stroke-width="0.131" stroke-linejoin="round" d="M34.408 14.185C34.545 14.048 34.67 13.88 34.829 13.766C34.923 13.701 35.113 13.681 35.145 13.557C35.143 13.567 35.148 13.58 35.145 13.592C34.984 13.041 34.932 12.541 35.073 11.981L35.073 12.016C34.996 11.868 34.929 11.714 34.843 11.573C34.761 11.435 34.637 11.335 34.551 11.205"/>
 <path stroke-width="0.3" stroke-linejoin="round" d="M34.579 11.035C34.713 10.83 34.84 10.641 35.057 10.516C35.588 10.182 36.097 10.9 36.237 11.321C36.421 11.869 36.499 12.423 36.46 13C36.424 13.551 36.302 14.185 35.933 14.617C35.759 14.823 35.518 15.002 35.229 14.943C34.975 14.891 34.715 14.637 34.616 14.403"/>
 <path stroke-width="0.3" stroke-linejoin="round" d="M33.905 11.439C33.462 12.127 33.484 13.362 34.009 14"/>
 <path stroke-width="0.3" stroke-linejoin="round" d="M35.097 14.333L34.359 14.369L34.009 14"/>
 <path stroke-width="0.131" stroke-linejoin="round" d="M34.825 37.009C34.28 37.009 34.213 38.107 34.213 38.457C34.213 38.804 34.28 39.902 34.825 39.902C35.368 39.902 35.436 38.804 35.436 38.457C35.436 38.107 35.369 37.009 34.825 37.009z"/>
 <path stroke-width="0.3" stroke-linejoin="round" d="M34.476 37.243L34.701 36.911L35.756 36.911"/>
 <path stroke-width="0.131" stroke-linejoin="round" d="M35.744 36.911L36.447 37.688L36.484 39.469L35.707 40.136"/>
 <path stroke-width="0.131" stroke-linejoin="round" d="M36.411 39.432L35.671 39.432"/>
 <path stroke-width="0.131" stroke-linejoin="round" d="M36.411 37.747L35.671 37.71"/>
 <path stroke-width="0.131" stroke-linejoin="round" d="M34.979 39.99C35.116 39.851 35.24 39.683 35.401 39.572C35.493 39.506 35.685 39.484 35.716 39.36C35.713 39.371 35.719 39.384 35.716 39.396C35.555 38.844 35.503 38.347 35.645 37.786L35.645 37.82C35.569 37.673 35.5 37.52 35.414 37.377C35.332 37.24 35.209 37.14 35.122 37.009"/>
 <path stroke-width="0.3" stroke-linejoin="round" d="M35.149 36.838C35.283 36.634 35.411 36.445 35.628 36.32C36.159 35.985 36.667 36.704 36.808 37.125C36.993 37.674 37.07 38.226 37.033 38.805C36.996 39.356 36.874 39.99 36.505 40.421C36.329 40.627 36.09 40.807 35.801 40.747C35.545 40.697 35.286 40.442 35.188 40.207"/>
 <path stroke-width="0.3" stroke-linejoin="round" d="M34.476 37.243C34.033 37.932 34.054 39.165 34.579 39.804"/>
 <path stroke-width="0.3" stroke-linejoin="round" d="M35.668 40.137L34.929 40.174L34.579 39.804"/>
 <path stroke-width="0.131" stroke-linejoin="round" d="M39.393 37.612C38.85 37.612 38.781 38.713 38.781 39.06C38.781 39.408 38.85 40.506 39.393 40.506C39.938 40.506 40.005 39.408 40.005 39.06C40.005 38.712 39.938 37.612 39.393 37.612z"/>
 <path stroke-width="0.3" stroke-linejoin="round" d="M39.045 37.847L39.27 37.515L40.323 37.515"/>
 <path stroke-width="0.131" stroke-linejoin="round" d="M40.313 37.515L41.015 38.292L41.051 40.073L40.277 40.74"/>
 <path stroke-width="0.131" stroke-linejoin="round" d="M40.979 40.037L40.24 40.037"/>
 <path stroke-width="0.131" stroke-linejoin="round" d="M40.979 38.353L40.24 38.316"/>
 <path stroke-width="0.131" stroke-linejoin="round" d="M39.548 40.594C39.685 40.456 39.808 40.287 39.969 40.176C40.063 40.109 40.253 40.09 40.284 39.966C40.281 39.975 40.286 39.988 40.284 40C40.125 39.448 40.072 38.951 40.213 38.39L40.213 38.426C40.137 38.277 40.069 38.124 39.982 37.981C39.899 37.844 39.777 37.743 39.691 37.615"/>
 <path stroke-width="0.3" stroke-linejoin="round" d="M39.718 37.442C39.853 37.238 39.979 37.049 40.197 36.924C40.728 36.591 41.237 37.307 41.378 37.729C41.561 38.279 41.639 38.831 41.6 39.409C41.564 39.96 41.442 40.594 41.073 41.026C40.899 41.231 40.658 41.411 40.369 41.353C40.115 41.301 39.854 41.045 39.756 40.811"/>
 <path stroke-width="0.3" stroke-linejoin="round" d="M39.045 37.847C38.601 38.536 38.622 39.771 39.149 40.408"/>
 <path stroke-width="0.3" stroke-linejoin="round" d="M40.237 40.741L39.499 40.779L39.149 40.408"/>
 <path stroke-width="0.131" stroke-linejoin="round" d="M7.259 16.457C6.716 16.457 6.649 17.557 6.649 17.905C6.649 18.254 6.716 19.352 7.259 19.352C7.804 19.352 7.871 18.254 7.871 17.905C7.871 17.556 7.804 16.457 7.259 16.457z"/>
 <path stroke-width="0.3" stroke-linejoin="round" d="M6.911 16.693L7.136 16.361L8.191 16.361"/>
 <path stroke-width="0.131" stroke-linejoin="round" d="M8.179 16.361L8.881 17.137L8.919 18.919L8.143 19.585"/>
 <path stroke-width="0.131" stroke-linejoin="round" d="M8.846 18.882L8.106 18.882"/>
 <path stroke-width="0.131" stroke-linejoin="round" d="M8.846 17.198L8.106 17.161"/>
 <path stroke-width="0.131" stroke-linejoin="round" d="M7.415 19.44C7.551 19.3 7.676 19.132 7.836 19.021C7.929 18.954 8.119 18.934 8.15 18.811C8.148 18.821 8.153 18.833 8.15 18.846C7.99 18.294 7.937 17.795 8.08 17.236L8.08 17.271C8.003 17.121 7.935 16.969 7.849 16.826C7.767 16.69 7.644 16.588 7.557 16.46"/>
 <path stroke-width="0.3" stroke-linejoin="round" d="M7.585 16.288C7.719 16.083 7.846 15.894 8.063 15.769C8.593 15.435 9.102 16.152 9.243 16.574C9.428 17.123 9.505 17.675 9.467 18.254C9.43 18.806 9.308 19.439 8.939 19.87C8.765 20.076 8.525 20.256 8.236 20.198C7.98 20.146 7.721 19.89 7.623 19.657"/>
 <path stroke-width="0.3" stroke-linejoin="round" d="M6.911 16.693C6.468 17.381 6.49 18.615 7.014 19.254"/>
 <path stroke-width="0.3" stroke-linejoin="round" d="M8.103 19.586L7.365 19.623L7.014 19.254"/>
 <path stroke-width="0.131" stroke-linejoin="round" d="M31.399 31.786C30.856 31.786 30.789 32.886 30.789 33.234C30.789 33.582 30.856 34.679 31.399 34.679C31.943 34.679 32.011 33.582 32.011 33.234C32.011 32.884 31.945 31.786 31.399 31.786z"/>
 <path stroke-width="0.3" stroke-linejoin="round" d="M31.051 32.021L31.275 31.689L32.331 31.689"/>
 <path stroke-width="0.131" stroke-linejoin="round" d="M32.319 31.689L33.021 32.465L33.058 34.246L32.283 34.914"/>
 <path stroke-width="0.131" stroke-linejoin="round" d="M32.985 34.21L32.246 34.21"/>
 <path stroke-width="0.131" stroke-linejoin="round" d="M32.985 32.524L32.246 32.488"/>
 <path stroke-width="0.131" stroke-linejoin="round" d="M31.554 34.768C31.692 34.628 31.815 34.46 31.975 34.348C32.069 34.283 32.259 34.262 32.29 34.137C32.289 34.149 32.293 34.161 32.29 34.173C32.131 33.621 32.078 33.124 32.219 32.564L32.219 32.598C32.143 32.45 32.076 32.296 31.989 32.154C31.907 32.018 31.783 31.917 31.698 31.788"/>
 <path stroke-width="0.3" stroke-linejoin="round" d="M31.725 31.615C31.859 31.411 31.986 31.222 32.203 31.097C32.734 30.763 33.243 31.481 33.384 31.902C33.567 32.451 33.645 33.003 33.607 33.582C33.57 34.134 33.448 34.767 33.079 35.198C32.905 35.404 32.664 35.584 32.375 35.526C32.121 35.473 31.861 35.219 31.763 34.984"/>
 <path stroke-width="0.3" stroke-linejoin="round" d="M31.051 32.021C30.608 32.709 30.629 33.944 31.155 34.582"/>
 <path stroke-width="0.3" stroke-linejoin="round" d="M32.243 34.914L31.504 34.951L31.155 34.582"/>
 <path stroke-width="0.131" stroke-linejoin="round" d="M29.984 23.908C29.451 23.908 29.385 24.987 29.385 25.329C29.385 25.67 29.451 26.748 29.984 26.748C30.518 26.748 30.585 25.67 30.585 25.329C30.585 24.986 30.518 23.908 29.984 23.908z"/>
 <path stroke-width="0.3" stroke-linejoin="round" d="M29.643 24.14L29.862 23.814L30.897 23.814"/>
 <path stroke-width="0.131" stroke-linejoin="round" d="M30.887 23.814L31.576 24.574L31.611 26.323L30.85 26.977"/>
 <path stroke-width="0.131" stroke-linejoin="round" d="M31.541 26.286L30.815 26.286"/>
 <path stroke-width="0.131" stroke-linejoin="round" d="M31.541 24.635L30.815 24.597"/>
 <path stroke-width="0.131" stroke-linejoin="round" d="M30.137 26.833C30.271 26.698 30.393 26.533 30.548 26.422C30.64 26.359 30.827 26.338 30.859 26.216C30.856 26.228 30.861 26.239 30.859 26.251C30.701 25.71 30.649 25.222 30.789 24.672L30.789 24.705C30.713 24.561 30.646 24.411 30.562 24.271C30.481 24.135 30.361 24.038 30.277 23.911"/>
 <path stroke-width="0.3" stroke-linejoin="round" d="M30.303 23.742C30.434 23.542 30.559 23.356 30.771 23.234C31.294 22.905 31.792 23.609 31.931 24.024C32.112 24.562 32.188 25.103 32.149 25.672C32.113 26.211 31.995 26.833 31.632 27.257C31.46 27.457 31.225 27.635 30.942 27.577C30.692 27.527 30.437 27.277 30.341 27.047"/>
 <path stroke-width="0.3" stroke-linejoin="round" d="M29.643 24.14C29.207 24.814 29.228 26.025 29.745 26.652"/>
 <path stroke-width="0.3" stroke-linejoin="round" d="M30.812 26.978L30.088 27.015L29.745 26.652"/>
 <path stroke-width="0.131" stroke-linejoin="round" d="M39.457 10.291C39.183 10.173 38.956 10.038 38.652 10.016C38.375 9.993 38.073 10.016 37.799 10.064"/>
 <path stroke-width="0.131" stroke-linejoin="round" d="M41.838 18.37C40.719 18.803 40.156 20.221 39.828 21.268C39.281 23.01 39.134 24.887 39.24 26.702C39.334 28.314 39.619 30.004 40.374 31.449C40.847 32.357 41.771 33.49 42.929 32.97"/>
 <path stroke-width="0.3" stroke-linejoin="round" d="M9.401 16.772L21.251 16.772C21.678 16.772 21.73 17.632 21.73 17.905C21.73 18.178 21.678 19.036 21.251 19.036L9.428 19.036"/>
 <path stroke-width="0.131" stroke-linejoin="round" d="M20.853 19.036C21.278 19.036 21.33 18.178 21.33 17.905C21.33 17.632 21.278 16.772 20.853 16.772"/>
 <path stroke-width="0.131" stroke-linejoin="round" d="M20.454 19.036C20.879 19.036 20.931 18.178 20.931 17.905C20.931 17.632 20.879 16.772 20.454 16.772"/>
 <path stroke-width="0.131" stroke-linejoin="round" d="M20.054 19.036C20.481 19.036 20.533 18.178 20.533 17.905C20.533 17.632 20.481 16.772 20.054 16.772"/>
 <path stroke-width="0.131" stroke-linejoin="round" d="M19.655 19.036C20.082 19.036 20.134 18.178 20.134 17.905C20.134 17.632 20.082 16.772 19.655 16.772"/>
 <path stroke-width="0.131" stroke-linejoin="round" d="M19.257 19.036C19.682 19.036 19.734 18.178 19.734 17.905C19.734 17.632 19.682 16.772 19.257 16.772"/>
 <path stroke-width="0.131" stroke-linejoin="round" d="M18.858 19.036C19.283 19.036 19.335 18.178 19.335 17.905C19.335 17.632 19.283 16.772 18.858 16.772"/>
 <path stroke-width="0.131" stroke-linejoin="round" d="M18.458 19.036C18.885 19.036 18.937 18.178 18.937 17.905C18.937 17.632 18.885 16.772 18.458 16.772"/>
 <path stroke-width="0.131" stroke-linejoin="round" d="M18.059 19.036C18.486 19.036 18.538 18.178 18.538 17.905C18.538 17.632 18.486 16.772 18.059 16.772"/>
 <path stroke-width="0.131" stroke-linejoin="round" d="M17.661 19.036C18.086 19.036 18.138 18.178 18.138 17.905C18.138 17.632 18.086 16.772 17.661 16.772"/>
 <path stroke-width="0.131" stroke-linejoin="round" d="M17.262 19.036C17.687 19.036 17.739 18.178 17.739 17.905C17.739 17.632 17.687 16.772 17.262 16.772"/>
 <path stroke-width="0.131" stroke-linejoin="round" d="M16.862 19.036C17.289 19.036 17.341 18.178 17.341 17.905C17.341 17.632 17.289 16.772 16.862 16.772"/>
 <path stroke-width="0.131" stroke-linejoin="round" d="M16.463 19.036C16.89 19.036 16.942 18.178 16.942 17.905C16.942 17.632 16.89 16.772 16.463 16.772"/>
 <path stroke-width="0.131" stroke-linejoin="round" d="M16.065 19.036C16.49 19.036 16.542 18.178 16.542 17.905C16.542 17.632 16.49 16.772 16.065 16.772"/>
 <path stroke-width="0.131" stroke-linejoin="round" d="M15.666 19.036C16.091 19.036 16.143 18.178 16.143 17.905C16.143 17.632 16.091 16.772 15.666 16.772"/>
 <path stroke-width="0.131" stroke-linejoin="round" d="M15.266 19.036C15.692 19.036 15.744 18.178 15.744 17.905C15.744 17.632 15.692 16.772 15.266 16.772"/>
 <path stroke-width="0.131" stroke-linejoin="round" d="M14.868 19.036C15.292 19.036 15.346 18.178 15.346 17.905C15.346 17.632 15.294 16.772 14.868 16.772"/>
 <path stroke-width="0.131" stroke-linejoin="round" d="M14.468 19.036C14.894 19.036 14.946 18.178 14.946 17.905C14.946 17.632 14.894 16.772 14.468 16.772"/>
 <path stroke-width="0.131" stroke-linejoin="round" d="M14.07 19.036C14.494 19.036 14.548 18.178 14.548 17.905C14.548 17.632 14.496 16.772 14.07 16.772"/>
 <path stroke-width="0.131" stroke-linejoin="round" d="M13.67 19.036C14.096 19.036 14.148 18.178 14.148 17.905C14.148 17.632 14.096 16.772 13.67 16.772"/>
 <g>
  <path stroke-width="0.3" stroke-linejoin="round" d="M32.143 19.036C32.567 19.036 32.621 18.178 32.621 17.905C32.621 17.632 32.569 16.772 32.143 16.772"/>
  <path stroke-width="0.131" stroke-linejoin="round" d="M32.143 16.772C31.716 16.772 31.664 17.632 31.664 17.905C31.664 18.176 31.718 19.036 32.143 19.036"/>
 </g>
 <g>
  <path stroke-width="0.131" stroke-linejoin="round" d="M36.304 46.322C36.956 46.341 36.936 44.353 36.357 44.176"/>
  <path stroke-width="0.3" stroke-linejoin="round" d="M36.357 44.176C35.719 44.082 35.634 46.255 36.301 46.323"/>
 </g>
 <path stroke-width="0.131" stroke-linejoin="round" d="M36.649 46.542C37.439 46.505 37.439 43.962 36.649 43.923"/>
 <path stroke-width="0.131" stroke-linejoin="round" d="M41.082 43.984C41.902 43.926 41.954 46.584 41.155 46.701"/>
 <path stroke-width="0.3" stroke-linejoin="round" d="M41.082 43.984L36.652 43.906L36.24 44.164"/>
 <path stroke-width="0.3" stroke-linejoin="round" d="M36.201 46.374L36.729 46.542"/>
 <path stroke-width="0.3" stroke-linejoin="round" d="M36.743 46.542L41.159 46.71"/>
 <path stroke-width="0.131" stroke-linejoin="round" d="M37.168 46.554C37.457 46.204 37.5 45.68 37.5 45.247"/>
 <path stroke-width="0.131" stroke-linejoin="round" d="M37.621 46.476C37.856 46.134 37.901 45.613 37.841 45.213"/>
 <path stroke-width="0.131" stroke-linejoin="round" d="M37.918 46.515C38.195 46.195 38.228 45.645 38.176 45.243"/>
 <path stroke-width="0.131" stroke-linejoin="round" d="M38.371 46.554C38.656 46.201 38.701 45.682 38.701 45.247"/>
 <path stroke-width="0.131" stroke-linejoin="round" d="M38.808 46.476C39.046 46.131 39.085 45.618 39.03 45.213"/>
 <path stroke-width="0.131" stroke-linejoin="round" d="M39.106 46.515C39.384 46.198 39.417 45.642 39.363 45.243"/>
 <path stroke-width="0.131" stroke-linejoin="round" d="M39.52 46.554C39.807 46.201 39.85 45.682 39.85 45.247"/>
 <path stroke-width="0.131" stroke-linejoin="round" d="M39.972 46.476C40.207 46.131 40.25 45.618 40.192 45.213"/>
 <path stroke-width="0.131" stroke-linejoin="round" d="M40.268 46.515C40.546 46.198 40.579 45.642 40.527 45.243"/>
 <g>
  <path stroke-width="0.131" stroke-linejoin="round" d="M29.975 44.482C30.626 44.502 30.608 42.515 30.028 42.337"/>
  <path stroke-width="0.3" stroke-linejoin="round" d="M30.028 42.337C29.39 42.243 29.306 44.415 29.972 44.484"/>
 </g>
 <path stroke-width="0.131" stroke-linejoin="round" d="M30.32 44.704C31.111 44.665 31.111 42.122 30.32 42.085"/>
 <path stroke-width="0.131" stroke-linejoin="round" d="M34.753 42.146C35.573 42.088 35.625 44.744 34.826 44.862"/>
 <path stroke-width="0.3" stroke-linejoin="round" d="M34.753 42.146L30.324 42.067L29.911 42.326"/>
 <path stroke-width="0.3" stroke-linejoin="round" d="M29.871 44.534L30.4 44.703"/>
 <path stroke-width="0.3" stroke-linejoin="round" d="M30.414 44.703L34.831 44.871"/>
 <path stroke-width="0.131" stroke-linejoin="round" d="M30.841 44.715C31.129 44.365 31.172 43.841 31.172 43.408"/>
 <path stroke-width="0.131" stroke-linejoin="round" d="M31.292 44.637C31.527 44.295 31.573 43.774 31.513 43.375"/>
 <path stroke-width="0.131" stroke-linejoin="round" d="M31.589 44.676C31.867 44.356 31.899 43.805 31.847 43.405"/>
 <path stroke-width="0.131" stroke-linejoin="round" d="M32.042 44.715C32.329 44.362 32.374 43.844 32.374 43.408"/>
 <path stroke-width="0.131" stroke-linejoin="round" d="M32.479 44.637C32.718 44.292 32.756 43.779 32.701 43.375"/>
 <path stroke-width="0.131" stroke-linejoin="round" d="M32.777 44.676C33.055 44.359 33.088 43.802 33.036 43.405"/>
 <path stroke-width="0.131" stroke-linejoin="round" d="M33.191 44.715C33.478 44.362 33.523 43.844 33.523 43.408"/>
 <path stroke-width="0.131" stroke-linejoin="round" d="M33.643 44.637C33.878 44.292 33.921 43.779 33.863 43.375"/>
 <path stroke-width="0.131" stroke-linejoin="round" d="M33.939 44.676C34.218 44.359 34.25 43.802 34.198 43.405"/>
 <g>
  <path stroke-width="0.131" stroke-linejoin="round" d="M25.684 36.921C26.294 36.939 26.275 35.081 25.734 34.914"/>
  <path stroke-width="0.3" stroke-linejoin="round" d="M25.734 34.914C25.135 34.826 25.057 36.859 25.681 36.923"/>
 </g>
 <path stroke-width="0.131" stroke-linejoin="round" d="M26.007 37.128C26.746 37.093 26.746 34.713 26.007 34.677"/>
 <path stroke-width="0.131" stroke-linejoin="round" d="M30.155 34.734C30.923 34.68 30.972 37.167 30.225 37.277"/>
 <path stroke-width="0.3" stroke-linejoin="round" d="M30.155 34.734L26.01 34.661L25.623 34.904"/>
 <path stroke-width="0.3" stroke-linejoin="round" d="M25.586 36.97L26.082 37.128"/>
 <path stroke-width="0.3" stroke-linejoin="round" d="M26.094 37.128L30.228 37.284"/>
 <path stroke-width="0.131" stroke-linejoin="round" d="M26.492 37.14C26.763 36.813 26.803 36.323 26.803 35.917"/>
 <path stroke-width="0.131" stroke-linejoin="round" d="M26.917 37.067C27.137 36.747 27.178 36.259 27.123 35.886"/>
 <path stroke-width="0.131" stroke-linejoin="round" d="M27.195 37.103C27.454 36.804 27.484 36.289 27.435 35.914"/>
 <path stroke-width="0.131" stroke-linejoin="round" d="M27.617 37.14C27.885 36.81 27.928 36.325 27.928 35.917"/>
 <path stroke-width="0.131" stroke-linejoin="round" d="M28.027 37.067C28.251 36.743 28.286 36.262 28.236 35.886"/>
 <path stroke-width="0.131" stroke-linejoin="round" d="M28.306 37.103C28.567 36.807 28.597 36.286 28.548 35.914"/>
 <path stroke-width="0.131" stroke-linejoin="round" d="M28.693 37.14C28.961 36.81 29.004 36.325 29.004 35.917"/>
 <path stroke-width="0.131" stroke-linejoin="round" d="M29.117 37.067C29.335 36.743 29.376 36.262 29.323 35.886"/>
 <path stroke-width="0.131" stroke-linejoin="round" d="M29.393 37.103C29.655 36.807 29.686 36.286 29.635 35.914"/>
 <path stroke="#FFFFFF" stroke-width="0.706" stroke-linejoin="round" d="M32.018 17.905L25.96 17.905"/>
 <path stroke-width="0.131" stroke-linejoin="round" d="M32.018 17.905L21.902 17.905"/>
 <text transform="matrix(0 -1 1 0 73.814 48.889)" stroke="none" fill="#000000" font-family="'Helvetica'" font-size="2.117">325 118</text>
</svg>
