<?xml version="1.0" encoding="utf-8"?>
<!DOCTYPE svg PUBLIC "-//W3C//DTD SVG 1.1//EN" "http://www.w3.org/Graphics/SVG/1.1/DTD/svg11.dtd">
<!-- Generator: PTC Arbortext IsoDraw 7.3 M070 -->
<svg id="Standard_x0020_layer" width="100%" height="100%" viewBox="0 0 70.751 77.039"
 xmlns="http://www.w3.org/2000/svg" xmlns:xlink="http://www.w3.org/1999/xlink"
 xmlns:itedo="http://www.itedo.com/svgfilter/1.0" xmlns:extra="http://www.itedo.com/svgfilter/1.0/extra"
 xmlns:_DEFAULT_DTD_="http://www.itedo.com/svgfilter/1.0/DTD/_DEFAULT_DTD_"
 fill-rule="evenodd" clip-rule="evenodd" stroke="#000000" stroke-linecap="round" fill="none" xml:space="preserve">
 <path stroke-width="0.35" d="M18.189 27.292C18.189 27.254 21.408 30.437 21.408 30.437C21.408 30.437 21.149 29.882 21.483 29.402C21.815 28.92 23.222 26.402 23.149 25.774C23.074 25.144 23.001 20.184 22.853 19.777C22.704 19.37 22.445 18.408 22.667 17.853C22.89 17.297 23.481 16.446 24.036 16.149C24.591 15.853 47.356 5.304 48.356 4.823C49.356 4.341 51.909 3.86 52.688 3.676C53.465 3.49 53.798 3.823 53.982 4.23C54.167 4.637 57.685 13.484 57.685 13.484L54.057 11.115"/>
 <path stroke-width="0.13" d="M31.112 12.842C30.588 13.596 30.44 15.262 30.44 15.705"/>
 <path stroke-width="0.13" d="M43.633 7.024C43.173 7.71 42.618 9.375 42.767 9.856"/>
 <path stroke-width="0.13" d="M22.977 21.33C22.955 20.882 23.333 20.147 24.332 19.815C25.332 19.481 44.469 10.412 44.469 10.412L44.469 10.931C44.469 10.931 44.951 10.782 45.432 10.561C45.914 10.337 45.987 9.931 45.987 9.856C45.987 9.782 48.468 8.561 48.468 8.561C48.468 8.561 50.393 7.932 51.058 7.969C51.725 8.006 52.762 7.783 52.762 9.746"/>
 <path stroke-width="0.35" d="M22.603 18.743C21.926 19.036 21.742 19.074 21.742 20.481C21.742 21.887 20.076 24.812 19.225 25.551C18.373 26.292 18.041 26.958 18.189 27.292"/>
 <g>
  <path stroke-width="0.13" d="M31.736 27.292C32.597 27.811 33.95 27.146 34.756 25.806C35.564 24.468 35.521 22.961 34.661 22.443C33.799 21.923 32.448 22.588 31.64 23.926C30.832 25.265 30.876 26.772 31.736 27.292"/>
 </g>
 <g>
  <path stroke-width="0.13" d="M26.073 24.033C26.088 24.042 26.102 24.051 26.114 24.057"/>
  <path stroke-width="0.13" d="M28.996 19.184C28.137 18.666 26.783 19.33 25.977 20.67C25.169 22.009 25.211 23.515 26.073 24.033"/>
 </g>
 <line stroke-width="0.13" x1="26.073" y1="24.033" x2="31.736" y2="27.292"/>
 <line stroke-width="0.13" x1="28.996" y1="19.184" x2="34.661" y2="22.443"/>
 <g>
  <path stroke-width="0.13" d="M30.789 26.739C30.804 26.748 30.82 26.756 30.832 26.763"/>
  <path stroke-width="0.13" d="M33.715 21.89C32.853 21.37 31.501 22.036 30.693 23.375C29.887 24.713 29.929 26.219 30.789 26.739"/>
 </g>
 <g>
  <path stroke-width="0.13" d="M29.768 26.129C29.783 26.138 29.798 26.146 29.811 26.153"/>
  <path stroke-width="0.13" d="M32.692 21.28C31.832 20.762 30.48 21.425 29.673 22.765C28.864 24.103 28.908 25.611 29.768 26.129"/>
 </g>
 <g>
  <path stroke-width="0.13" d="M28.862 25.638C28.878 25.647 28.891 25.655 28.905 25.663"/>
  <path stroke-width="0.13" d="M31.786 20.789C30.926 20.271 29.574 20.936 28.766 22.274C27.958 23.614 28.001 25.12 28.862 25.638"/>
 </g>
 <g>
  <path stroke-width="0.13" d="M27.841 25.028C27.856 25.038 27.87 25.047 27.882 25.053"/>
  <path stroke-width="0.13" d="M30.765 20.179C29.905 19.661 28.553 20.326 27.745 21.664C26.937 23.004 26.981 24.51 27.841 25.028"/>
 </g>
 <g>
  <path stroke-width="0.13" d="M26.885 24.498C26.9 24.507 26.914 24.515 26.928 24.522"/>
  <path stroke-width="0.13" d="M29.809 19.649C28.949 19.131 27.597 19.795 26.789 21.134C25.981 22.472 26.024 23.98 26.885 24.498"/>
 </g>
 <path stroke-width="0.13" d="M33.71 22.789C34.518 23.135 34.189 24.42 33.957 24.946C33.726 25.474 32.655 27.451 31.355 26.216"/>
 <path stroke-width="0.13" d="M33.365 22.806C33.628 23.612 33.064 26.033 31.37 26.05"/>
 <path stroke-width="0.13" d="M32.622 23.201C32.606 23.925 32.112 24.98 31.454 25.326"/>
 <line stroke-width="0.13" x1="23.149" y1="25.774" x2="26.525" y2="24.295"/>
 <line stroke-width="0.13" x1="25.948" y1="23.948" x2="23.777" y2="24.881"/>
 <path stroke-width="0.13" d="M23.777 24.881C23.777 24.881 23.957 21.388 24.056 21.257C24.155 21.125 25.062 20.515 25.588 20.333C26.115 20.152 27.603 18.164 28.556 19.027"/>
 <path stroke-width="0.13" d="M29.146 19.164L29.772 18.934C29.772 18.934 29.971 19.048 29.954 19.329C29.937 19.609 29.943 19.728 29.943 19.728"/>
 <line stroke-width="0.13" x1="32.213" y1="21.035" x2="37.368" y2="18.588"/>
 <line stroke-width="0.13" x1="32.692" y1="21.28" x2="38.076" y2="18.818"/>
 <path stroke-width="0.13" d="M34.6 19.707C34.682 19.329 35.357 17.138 35.457 16.841C35.555 16.545 35.704 16.495 35.917 16.478C36.131 16.463 37.351 15.836 37.351 15.836L37.862 15.259L37.829 14.996C37.829 14.996 40.448 13.859 40.448 13.843C40.448 13.827 40.612 13.942 40.597 14.14C40.579 14.337 42.869 13.266 42.869 13.266"/>
 <path stroke-width="0.13" d="M37.207 18.277C39.503 19.121 42.292 19.908 43 20.01C43.368 20.062 43.966 20.344 44.31 20.722C44.39 20.811 44.466 20.897 44.473 21C44.517 21.533 44.384 23.393 44.293 24.576L44.293 24.573L44.21 25.615"/>
 <path stroke-width="0.13" d="M37.694 16.954C39.878 17.757 42.526 18.518 43.201 18.614C43.801 18.701 44.786 19.155 45.35 19.771C45.658 20.109 45.847 20.495 45.878 20.888C45.923 21.452 45.793 23.428 45.698 24.682L45.615 25.728"/>
 <path stroke-width="0.13" d="M37.694 16.954C37.433 17.088 36.996 18.048 37.207 18.277"/>
 <path stroke-width="0.13" d="M37.551 17.085L36.709 16.727C36.709 16.727 36.362 16.676 36.28 17.022C36.198 17.368 36.182 17.501 36.296 17.649C36.412 17.797 37.158 17.995 37.158 17.995"/>
 <path stroke-width="0.13" d="M38.158 16.974C38.093 16.676 38.225 16.05 38.505 15.885C38.784 15.721 38.966 15.836 38.966 15.852C38.966 15.864 40.24 16.262 41.834 16.309"/>
 <path stroke-width="0.13" d="M42.395 16.309C43.17 16.289 43.993 16.173 44.765 15.885"/>
 <path stroke-width="0.13" d="M39.362 17.533C39.88 17.699 41.384 17.75 42.789 17.629"/>
 <path stroke-width="0.13" d="M43.881 17.492C44.463 17.393 44.962 17.256 45.276 17.071"/>
 <path stroke-width="0.13" d="M42.107 16.641C41.909 16.231 41.551 16.149 41.207 16.1C40.86 16.05 40.118 16.117 39.97 15.885C39.823 15.656 39.823 15.656 39.823 15.656"/>
 <path stroke-width="0.13" d="M42.415 16.353C42.323 16.161 42.222 16.03 42.118 15.933C42.03 15.852 41.936 15.794 41.837 15.75C41.676 15.679 41.494 15.653 41.274 15.621C41.161 15.605 41.009 15.599 40.847 15.593C40.646 15.586 40.418 15.596 40.287 15.538L40.377 15.625L40.228 15.394"/>
 <path stroke-width="0.13" d="M40.847 15.593C40.844 15.292 41.091 15.045 41.454 15.243C41.816 15.442 43.841 15.672 44.533 15.458"/>
 <path stroke-width="0.13" d="M39.823 15.656C39.591 15.539 40.17 15.25 40.228 15.394"/>
 <path stroke-width="0.13" d="M42.802 16.332L43.134 16.663L43.131 16.66C43.667 17.187 44.079 17.617 44.273 18.333C44.329 18.542 44.366 18.774 44.381 19.042"/>
 <path stroke-width="0.13" d="M44.25 20.66C44.192 20.993 44.113 21.364 44.014 21.777L43.494 23.778C43.093 25.271 42.78 26.318 42.932 27.024C42.978 27.231 43.073 27.396 43.243 27.521C43.508 27.716 43.765 27.879 44 28.03C44.615 28.422 45.097 28.765 45.334 29.228C45.454 29.466 45.52 29.733 45.509 30.053C45.496 30.439 45.415 30.782 45.229 31.106C44.851 31.765 43.979 32.371 42.04 33.076"/>
 <path stroke-width="0.13" d="M42.146 16.989L42.481 17.323C42.887 17.722 43.228 18.032 43.375 18.576C43.383 18.6 43.389 18.626 43.395 18.652"/>
 <path stroke-width="0.13" d="M43.396 20.12C43.34 20.527 43.246 20.998 43.112 21.551L42.595 23.542L42.597 23.538C42.143 25.225 41.853 26.42 42.024 27.219C42.118 27.658 42.332 28.004 42.694 28.269C42.975 28.477 43.249 28.652 43.5 28.812C43.948 29.1 44.334 29.312 44.506 29.649C44.56 29.757 44.585 29.879 44.581 30.022C44.573 30.25 44.533 30.454 44.423 30.644C44.109 31.192 43.335 31.617 41.722 32.204"/>
 <path stroke-width="0.13" d="M42.802 16.332C42.603 16.213 41.831 16.559 42.146 16.989"/>
 <path stroke-width="0.13" d="M41.722 32.204C41.414 32.292 41.351 32.642 41.551 32.892C41.75 33.14 41.963 33.104 42.04 33.076C42.116 33.048 42.533 32.284 41.78 32.182"/>
 <path stroke-width="0.35" d="M44.399 31.954L47.508 34.075C47.508 34.075 47.819 34.075 47.906 34.423C47.993 34.773 48.03 35.009 47.756 35.021C47.482 35.034 47.42 35.009 47.357 34.923C47.295 34.835 47.295 34.835 47.295 34.835C47.295 34.835 46.71 35.695 46.548 35.82C46.386 35.945 46.386 35.945 46.386 35.945C46.386 35.945 46.835 36.057 46.835 36.317C46.835 36.579 46.81 36.829 46.548 36.841C46.286 36.853 46 36.866 45.987 36.679C45.975 36.493 45.975 36.493 45.975 36.493L38.959 31.521"/>
 <path stroke-width="0.13" d="M44.292 29.652C44.131 29.876 43.893 30.062 43.682 30.062C43.469 30.062 41.676 29.862 41.676 29.862L43.619 31.375"/>
 <path stroke-width="0.35" d="M42.685 28.367C42.374 28.343 41.725 28.542 41.414 28.728C41.103 28.916 37.539 30.548 37.539 30.548C37.539 30.548 37.115 30.611 37.264 30.948C37.414 31.283 37.475 31.346 37.6 31.259C37.725 31.172 37.737 31.158 37.737 31.158C37.737 31.158 38.235 31.571 38.223 31.571C38.212 31.571 38.173 32.381 38.548 32.356C38.921 32.331 39.332 32.143 39.383 31.894"/>
 <path stroke-width="0.13" d="M38.223 31.571C38.223 31.571 39.307 31.457 39.445 31.208C39.582 30.96 39.508 30.399 39.508 30.399L40.902 29.739L41.737 29.87"/>
 <path stroke-width="0.13" d="M45.625 35.183C45.924 35.296 46.049 35.582 45.875 35.844C45.701 36.106 45.14 36.018 45.164 35.744"/>
 <path stroke-width="0.13" d="M47.508 34.075C47.234 34.088 45.838 34.573 45.488 34.773C45.14 34.972 44.564 35.209 44.753 35.627"/>
 <path stroke-width="0.35" d="M45.469 30.442C45.688 30.3 45.987 30.373 46.36 30.623C46.734 30.873 50.722 33.887 50.823 34.063C50.921 34.237 50.673 34.61 50.499 34.835C50.323 35.06 50.125 35.183 49.776 34.984C49.426 34.786 45.015 31.596 45.015 31.596"/>
 <path stroke-width="0.13" d="M50.63 33.886C50.348 33.912 49.527 34.536 49.776 34.984"/>
 <path stroke-width="0.13" d="M44.21 25.615C44.517 25.913 45.243 25.942 45.615 25.728"/>
 <line stroke-width="0.13" x1="44.366" y1="25.728" x2="44.246" y2="28.19"/>
 <line stroke-width="0.13" x1="45.39" y1="25.818" x2="45.228" y2="29.051"/>
 <g>
  <path stroke-width="0.13" d="M51.125 26.213C51.493 26.463 52.142 26.152 52.576 25.515C53.011 24.881 53.064 24.161 52.698 23.911C52.331 23.661 51.682 23.972 51.247 24.608C50.814 25.243 50.759 25.961 51.125 26.213"/>
 </g>
 <path stroke-width="0.13" d="M42.869 13.266C42.923 12.859 43.082 12.426 43.652 12.016C44.222 11.605 44.676 11.423 44.7 11.446C44.722 11.47 44.631 11.788 44.859 11.698C45.087 11.605 47.07 10.603 47.07 10.603C47.07 10.603 48.457 8.558 48.795 8.458C49.131 8.359 51.445 7.71 51.786 8.849"/>
 <path stroke-width="0.13" d="M42.728 13.332C42.75 13.323 44.243 14.727 44.404 14.978C44.563 15.23 45.27 16.597 45.451 17.12C45.634 17.644 47.457 23.591 48.436 24.548C49.417 25.506 51.125 26.213 51.125 26.213"/>
 <path stroke-width="0.13" d="M43.203 13.76C43.219 13.314 43.356 12.699 43.765 12.426C44.176 12.153 44.631 12.038 44.814 12.016C44.996 11.993 44.996 11.993 44.996 11.993"/>
 <path stroke-width="0.13" d="M44.996 11.993C44.996 11.993 45.747 12.723 46.045 12.904C46.341 13.087 47.093 13.314 47.411 13.817C47.731 14.317 49.121 17.621 49.256 18.236C49.393 18.853 50.716 21.974 51.194 22.612C51.673 23.251 52.698 23.911 52.698 23.911"/>
 <g>
  <path stroke-width="0.13" d="M49.625 17.847C49.939 18.518 51.28 18.556 52.621 17.931C53.963 17.304 54.798 16.254 54.485 15.583C54.173 14.912 52.831 14.875 51.488 15.5C50.146 16.126 49.313 17.178 49.625 17.847"/>
 </g>
 <g>
  <path stroke-width="0.13" d="M51.844 9.281C51.838 9.262 51.831 9.246 51.823 9.231C51.511 8.561 50.17 8.524 48.828 9.148C47.485 9.775 46.652 10.826 46.963 11.496"/>
 </g>
 <line stroke-width="0.13" x1="46.963" y1="11.496" x2="49.625" y2="17.849"/>
 <line stroke-width="0.13" x1="51.823" y1="9.23" x2="54.484" y2="15.583"/>
 <g>
  <path stroke-width="0.13" d="M52.271 10.294C52.264 10.276 52.256 10.259 52.25 10.246C51.936 9.574 50.595 9.538 49.253 10.163C47.911 10.788 47.078 11.839 47.39 12.51"/>
 </g>
 <g>
  <path stroke-width="0.13" d="M52.728 11.428C52.722 11.41 52.716 11.394 52.709 11.378C52.396 10.708 51.054 10.672 49.713 11.297C48.371 11.923 47.536 12.974 47.848 13.644"/>
 </g>
 <g>
  <path stroke-width="0.13" d="M53.155 12.442C53.149 12.425 53.142 12.407 53.134 12.394C52.822 11.723 51.481 11.686 50.139 12.31C48.796 12.936 47.962 13.987 48.274 14.659"/>
 </g>
 <g>
  <path stroke-width="0.13" d="M53.542 13.397C53.534 13.38 53.527 13.362 53.521 13.348C53.209 12.676 51.866 12.64 50.524 13.266C49.182 13.891 48.348 14.942 48.661 15.612"/>
 </g>
 <g>
  <path stroke-width="0.13" d="M53.968 14.41C53.96 14.394 53.954 14.377 53.947 14.362C53.634 13.691 52.292 13.653 50.951 14.279C49.609 14.904 48.774 15.955 49.088 16.626"/>
 </g>
 <path stroke-width="0.13" d="M49.844 17.239C50.329 17.582 51.75 17.379 52.484 17.051C53.219 16.724 54.031 15.896 53.984 15.63"/>
 <path stroke-width="0.13" d="M50.423 16.599C51.298 16.786 52.875 15.733 53.017 15.396"/>
 <line stroke-width="0.13" x1="51.786" y1="8.849" x2="51.823" y2="9.23"/>
 <path stroke-width="0.13" d="M22.937 19.349C22.969 19.349 23.687 19.129 23.875 19.068C24.062 19.004 24.312 18.786 24.344 18.693C24.375 18.599 45.625 8.567 47.625 7.754C49.625 6.942 52.189 5.879 53.219 6.692"/>
 <g>
  <path stroke-width="0.35" d="M52.762 9.746C53.314 10.005 53.875 10.785 54.125 11.41C54.375 12.035 60.75 28.129 60.75 28.129L61.781 30.879"/>
  <path stroke-width="0.13" d="M61.781 30.879C61.781 30.879 64.251 32.973 64.219 32.973C64.188 32.973 64.219 38.848 64.219 38.848"/>
 </g>
 <path stroke-width="0.13" d="M19.663 25.074C19.663 25.074 15.9 26.801 14.986 27.106C14.07 27.411 13.199 27.978 13.025 28.326C12.852 28.673 12.807 29.283 12.807 29.327C12.807 29.37 12.285 30.024 12.285 30.721C12.285 31.417 12.112 32.723 12.154 32.768C12.198 32.811 12.547 33.856 12.503 33.899C12.46 33.942 12.983 34.466 12.983 34.466L12.329 42.478L9.846 43.435L9.064 52.755L10.064 53.32L12.285 52.189"/>
 <path stroke-width="0.35" d="M22.693 17.353C19.862 16.873 12.025 19.312 10.195 27.28C8.367 35.25 7.931 48.966 7.931 48.966"/>
 <path stroke-width="0.13" d="M18.338 27.847C17.641 28.37 16.422 30.286 16.379 30.589C16.335 30.894 16.161 35.206 16.161 35.206L16.553 35.25L16.204 41.606L15.551 42.13L14.724 51.186"/>
 <line stroke-width="0.13" x1="15.028" y1="29.632" x2="13.243" y2="52.45"/>
 <line stroke-width="0.13" x1="12.983" y1="34.466" x2="13.635" y2="34.335"/>
 <line stroke-width="0.13" x1="13.635" y1="34.335" x2="13.766" y2="30.111"/>
 <line stroke-width="0.13" x1="13.461" y1="35.031" x2="12.983" y2="42.478"/>
 <line stroke-width="0.13" x1="12.547" y1="43.174" x2="11.153" y2="44.133"/>
 <line stroke-width="0.13" x1="10.936" y1="44.872" x2="10.457" y2="51.665"/>
 <path stroke-width="0.35" d="M13.505 52.841C13.505 52.536 13.81 52.101 14.07 52.014C14.332 51.926 14.55 51.796 14.55 51.796L15.464 48.792C15.464 48.792 18.251 42.39 18.6 41.171C18.948 39.953 18.992 39.865 19.339 39.473C19.687 39.082 19.905 38.82 20.341 38.777"/>
 <path stroke-width="0.13" d="M19.208 40.78C19.731 41.259 19.6 41.999 19.166 42.695C18.73 43.393 17.163 47.399 16.945 48.27C16.727 49.14 17.076 50.273 17.118 51.055C17.163 51.84 16.858 52.841 16.858 53.189C16.858 53.539 17.25 54.06 15.378 53.451"/>
 <path stroke-width="0.35" d="M21.125 41.171C20.297 43.218 19.471 46.789 19.253 47.529C19.035 48.27 19.035 53.146 19.035 53.146C19.035 53.146 19.471 53.929 19.166 54.365C18.861 54.801 18.12 54.844 17.468 54.627C16.814 54.408 14.115 53.539 14.115 53.539C14.115 53.539 13.41 53.185 13.505 52.841"/>
 <path stroke-width="0.13" d="M8.141 44.621C7.19 44.307 5.448 44.307 5.014 47.006"/>
 <path stroke-width="0.13" d="M8.089 45.502C7.104 45.787 5.971 47.834 6.972 48.923"/>
 <line stroke-width="0.13" x1="15.464" y1="48.792" x2="15" y2="53.223"/>
 <path stroke-width="0.13" d="M15.111 52.176C14.968 52.076 14.284 51.822 14.157 52.155C14.028 52.49 14.028 52.475 14.028 52.49C14.028 52.506 14.22 52.969 14.554 52.936"/>
 <path stroke-width="0.13" d="M17.614 53.908C17.646 53.447 18.108 53.399 18.49 53.399C18.873 53.399 18.856 53.844 18.745 53.972C18.634 54.1 18.268 54.148 18.268 54.148"/>
 <path stroke-width="0.35" d="M19.242 53.701L20.115 54.005C20.115 54.005 20.083 54.292 20.275 54.546C20.466 54.801 21.009 55.183 21.039 55.183C21.071 55.183 21.39 55.183 21.103 54.801C20.817 54.418 20.562 53.558 21.199 53.591C21.836 53.621 22.219 53.654 22.347 53.24C22.475 52.826 23.303 52.442 23.557 52.857C23.812 53.271 24.419 54.96 24.896 55.28C25.375 55.597 25.916 55.82 25.853 56.14C25.789 56.459 25.437 56.969 25.405 57C25.375 57.031 24.832 57.732 24.704 58.212C24.577 58.689 24.259 59.231 24.387 59.646C24.513 60.06 24.8 60.314 24.832 61.079C24.864 61.844 24.736 63.405 24.736 63.438C24.736 63.469 23.812 64.84 23.431 65.382C23.047 65.924 21.231 68.186 19.893 68.186C18.554 68.186 15.176 67.516 14.189 67.167C13.201 66.816 10.97 65.414 10.108 64.552C9.249 63.692 7.878 62.768 7.113 62.863"/>
 <path stroke-width="0.13" d="M2.27 51.518C3.097 52.029 6.668 52.857 8.102 53.463C9.535 54.069 14.666 55.152 15.558 55.28C16.451 55.406 23.303 58.435 23.716 58.72"/>
 <path stroke-width="0.13" d="M4.564 57.031C6.794 57.383 7.942 58.051 8.739 58.817C9.535 59.582 13.391 60.889 15.558 61.621C17.725 62.353 20.53 63.31 21.199 63.341C21.868 63.374 22.888 63.533 22.888 63.533"/>
 <path stroke-width="0.13" d="M6.921 49.32C6.921 49.32 6.03 48.874 6.03 48.363C6.03 47.853 5.998 47.695 5.998 47.695C5.998 47.695 5.559 46.923 5.014 47.006C4.469 47.088 0.23 48.969 0.198 49.223C0.166 49.478 -0.121 50.594 0.262 50.85C0.644 51.104 0.74 51.073 0.835 51.137C0.931 51.2 2.684 54.96 2.684 54.96"/>
 <path stroke-width="0.13" d="M0.326 49.542C0.612 49.893 1.217 50.021 1.217 50.021C1.217 50.021 4.644 48.84 5.711 47.886"/>
 <path stroke-width="0.13" d="M5.647 51.009C5.647 51.009 5.519 49.957 6.094 49.701C6.668 49.448 8.548 48.682 8.548 48.682C8.548 48.682 9.121 48.81 9.217 48.969"/>
 <path stroke-width="0.13" d="M5.778 50.021C5.966 50.722 6.859 50.689 7.304 50.53C7.751 50.371 9.185 49.511 9.185 49.511"/>
 <path stroke-width="0.13" d="M7.496 50.753C7.464 51.359 8.132 52.603 9.025 52.442"/>
 <g>
  <path stroke-width="0.13" d="M1.632 49.384C1.632 49.262 1.461 49.162 1.25 49.162C1.038 49.162 0.867 49.262 0.867 49.384C0.867 49.506 1.038 49.604 1.25 49.604C1.461 49.604 1.632 49.506 1.632 49.384"/>
 </g>
 <g>
  <path stroke-width="0.13" d="M4.607 56.728C4.73 56.688 4.772 56.482 4.702 56.27C4.631 56.057 4.474 55.918 4.352 55.96C4.229 56 4.187 56.206 4.258 56.417C4.328 56.631 4.485 56.77 4.607 56.728"/>
 </g>
 <g>
  <path stroke-width="0.13" d="M4.299 55.652C4.08 55.709 3.98 56.066 4.08 56.448C4.179 56.829 4.439 57.094 4.658 57.036C4.879 56.978 4.979 56.622 4.879 56.24C4.78 55.857 4.52 55.594 4.299 55.652"/>
 </g>
 <g>
  <path stroke-width="0.13" d="M5.298 47.692C5.298 47.57 5.126 47.472 4.916 47.472C4.705 47.472 4.533 47.57 4.533 47.692C4.533 47.814 4.705 47.912 4.916 47.912C5.126 47.912 5.298 47.814 5.298 47.692"/>
 </g>
 <g>
  <path stroke-width="0.13" d="M7.067 50.14C7.067 50.018 6.895 49.92 6.685 49.92C6.472 49.92 6.301 50.018 6.301 50.14C6.301 50.262 6.472 50.36 6.685 50.36C6.895 50.36 7.067 50.262 7.067 50.14"/>
 </g>
 <g>
  <path stroke-width="0.13" d="M9.041 49.179C9.041 49.057 8.869 48.957 8.659 48.957C8.446 48.957 8.275 49.057 8.275 49.179C8.275 49.301 8.446 49.399 8.659 49.399C8.869 49.399 9.041 49.301 9.041 49.179"/>
 </g>
 <g>
  <path stroke-width="0.13" d="M15.227 56.761C15.349 56.719 15.391 56.515 15.32 56.302C15.25 56.09 15.092 55.951 14.971 55.991C14.848 56.033 14.806 56.237 14.877 56.451C14.946 56.662 15.103 56.801 15.227 56.761"/>
 </g>
 <g>
  <path stroke-width="0.13" d="M14.919 55.683C14.698 55.741 14.599 56.097 14.698 56.479C14.798 56.862 15.057 57.125 15.278 57.069C15.292 57.064 15.307 57.06 15.319 57.054"/>
  <path stroke-width="0.13" d="M14.939 55.679C14.932 55.68 14.925 55.682 14.919 55.683"/>
 </g>
 <g>
  <path stroke-width="0.13" d="M15.054 59.045C15.176 59.003 15.217 58.798 15.147 58.585C15.076 58.374 14.919 58.234 14.797 58.274C14.675 58.316 14.632 58.521 14.702 58.734C14.774 58.945 14.931 59.085 15.054 59.045"/>
 </g>
 <g>
  <path stroke-width="0.13" d="M14.746 57.968C14.525 58.024 14.426 58.381 14.525 58.764C14.625 59.146 14.884 59.408 15.105 59.351C15.118 59.347 15.132 59.343 15.144 59.338"/>
  <path stroke-width="0.13" d="M14.766 57.963C14.759 57.965 14.752 57.966 14.746 57.968"/>
 </g>
 <g>
  <path stroke-width="0.13" d="M16.964 57.725C17.088 57.683 17.129 57.478 17.059 57.265C16.987 57.054 16.83 56.914 16.708 56.954C16.585 56.996 16.544 57.201 16.614 57.414C16.684 57.625 16.841 57.765 16.964 57.725"/>
 </g>
 <g>
  <path stroke-width="0.13" d="M16.657 56.648C16.437 56.704 16.338 57.06 16.437 57.444C16.536 57.826 16.795 58.088 17.015 58.031C17.03 58.027 17.045 58.023 17.056 58.018"/>
  <path stroke-width="0.13" d="M16.676 56.643C16.67 56.645 16.663 56.646 16.657 56.648"/>
 </g>
 <g>
  <path stroke-width="0.13" d="M16.42 60.008C16.544 59.966 16.585 59.762 16.515 59.548C16.443 59.337 16.286 59.198 16.164 59.238C16.042 59.28 16 59.484 16.071 59.697C16.141 59.909 16.298 60.048 16.42 60.008"/>
 </g>
 <g>
  <path stroke-width="0.13" d="M16.114 58.93C15.893 58.987 15.794 59.344 15.893 59.726C15.993 60.109 16.251 60.372 16.472 60.316C16.486 60.311 16.501 60.307 16.513 60.301"/>
  <path stroke-width="0.13" d="M16.132 58.926C16.126 58.927 16.118 58.929 16.114 58.93"/>
 </g>
 <g>
  <path stroke-width="0.13" d="M23.975 61.484C24.097 61.442 24.14 61.237 24.068 61.024C23.998 60.813 23.841 60.673 23.719 60.713C23.596 60.755 23.553 60.96 23.625 61.173C23.696 61.384 23.853 61.524 23.975 61.484"/>
 </g>
 <g>
  <path stroke-width="0.13" d="M23.667 60.406C23.446 60.463 23.347 60.82 23.448 61.203C23.547 61.585 23.806 61.847 24.027 61.79C24.041 61.786 24.054 61.781 24.067 61.777"/>
  <path stroke-width="0.13" d="M23.687 60.402C23.679 60.404 23.673 60.405 23.667 60.406"/>
 </g>
 <g>
  <path stroke-width="0.13" d="M23.801 63.767C23.925 63.725 23.966 63.521 23.896 63.307C23.824 63.095 23.667 62.957 23.545 62.997C23.422 63.039 23.381 63.243 23.452 63.456C23.522 63.668 23.678 63.807 23.801 63.767"/>
 </g>
 <g>
  <path stroke-width="0.13" d="M23.493 62.689C23.274 62.746 23.175 63.103 23.274 63.485C23.373 63.868 23.632 64.132 23.853 64.075C23.867 64.07 23.882 64.066 23.893 64.06"/>
  <path stroke-width="0.13" d="M23.513 62.686C23.507 62.686 23.5 62.689 23.493 62.689"/>
 </g>
 <g>
  <path stroke-width="0.13" d="M18.455 60.883C18.579 60.841 18.62 60.637 18.55 60.423C18.478 60.212 18.321 60.073 18.199 60.113C18.077 60.155 18.035 60.359 18.106 60.572C18.176 60.784 18.332 60.923 18.455 60.883"/>
 </g>
 <g>
  <path stroke-width="0.13" d="M18.147 59.805C17.928 59.862 17.829 60.219 17.928 60.601C18.027 60.984 18.286 61.247 18.507 61.191C18.521 61.186 18.536 61.182 18.548 61.176"/>
  <path stroke-width="0.13" d="M18.167 59.801C18.161 59.802 18.153 59.804 18.147 59.805"/>
 </g>
 <g>
  <path stroke-width="0.13" d="M21.954 62.804C22.077 62.762 22.118 62.557 22.047 62.344C21.977 62.133 21.821 61.993 21.698 62.034C21.574 62.075 21.533 62.28 21.603 62.493C21.675 62.704 21.832 62.844 21.954 62.804"/>
 </g>
 <g>
  <path stroke-width="0.13" d="M21.646 61.726C21.425 61.783 21.327 62.14 21.426 62.523C21.525 62.905 21.785 63.167 22.006 63.11C22.019 63.106 22.033 63.101 22.045 63.097"/>
  <path stroke-width="0.13" d="M21.666 61.722C21.658 61.723 21.652 61.725 21.646 61.726"/>
 </g>
 <g>
  <path stroke-width="0.13" d="M24.894 56.795C25.018 56.755 25.059 56.549 24.989 56.338C24.917 56.125 24.762 55.985 24.638 56.027C24.515 56.067 24.474 56.273 24.545 56.485C24.615 56.698 24.772 56.837 24.894 56.795"/>
 </g>
 <g>
  <path stroke-width="0.13" d="M21.411 54.697C21.533 54.655 21.574 54.451 21.504 54.238C21.434 54.026 21.277 53.887 21.153 53.927C21.032 53.969 20.989 54.173 21.06 54.387C21.131 54.598 21.288 54.737 21.411 54.697"/>
 </g>
 <g>
  <path stroke-width="0.13" d="M23.138 53.805C23.262 53.765 23.303 53.558 23.233 53.347C23.161 53.134 23.006 52.996 22.882 53.036C22.76 53.076 22.718 53.283 22.789 53.494C22.859 53.707 23.016 53.845 23.138 53.805"/>
 </g>
 <g>
  <path stroke-width="0.13" d="M15.349 64.137C15.473 64.096 15.515 63.89 15.444 63.677C15.372 63.466 15.215 63.326 15.093 63.368C14.971 63.408 14.929 63.613 15 63.826C15.07 64.039 15.227 64.177 15.349 64.137"/>
 </g>
 <g>
  <path stroke-width="0.13" d="M15.042 63.06C14.821 63.116 14.723 63.473 14.821 63.856C14.922 64.237 15.18 64.501 15.401 64.444C15.416 64.441 15.429 64.436 15.442 64.43"/>
  <path stroke-width="0.13" d="M15.061 63.055C15.054 63.057 15.048 63.058 15.042 63.06"/>
 </g>
 <g>
  <path stroke-width="0.13" d="M17.091 65.069C17.213 65.028 17.256 64.822 17.184 64.611C17.114 64.397 16.957 64.259 16.835 64.299C16.711 64.34 16.67 64.546 16.74 64.759C16.812 64.971 16.969 65.109 17.091 65.069"/>
 </g>
 <g>
  <path stroke-width="0.13" d="M16.783 63.991C16.562 64.049 16.463 64.406 16.562 64.787C16.663 65.17 16.922 65.433 17.141 65.376C17.157 65.373 17.17 65.367 17.182 65.361"/>
  <path stroke-width="0.13" d="M16.803 63.987C16.795 63.988 16.789 63.99 16.783 63.991"/>
 </g>
 <g>
  <path stroke-width="0.13" d="M19 66.194C19.123 66.153 19.164 65.948 19.094 65.736C19.022 65.524 18.865 65.385 18.743 65.426C18.62 65.466 18.579 65.671 18.649 65.884C18.721 66.096 18.878 66.236 19 66.194"/>
 </g>
 <g>
  <path stroke-width="0.13" d="M18.693 65.117C18.472 65.174 18.373 65.531 18.472 65.914C18.571 66.296 18.83 66.56 19.05 66.501C19.065 66.498 19.079 66.493 19.091 66.487"/>
  <path stroke-width="0.13" d="M18.711 65.114C18.704 65.114 18.698 65.117 18.693 65.117"/>
 </g>
 <g>
  <path stroke-width="0.13" d="M20.91 67.188C21.032 67.147 21.074 66.941 21.004 66.728C20.932 66.516 20.775 66.378 20.653 66.418C20.53 66.459 20.489 66.665 20.559 66.876C20.629 67.088 20.786 67.227 20.91 67.188"/>
 </g>
 <g>
  <path stroke-width="0.13" d="M20.602 66.111C20.381 66.168 20.283 66.524 20.382 66.906C20.481 67.289 20.739 67.552 20.96 67.495C20.975 67.49 20.989 67.486 21.001 67.48"/>
  <path stroke-width="0.13" d="M20.621 66.106C20.614 66.108 20.608 66.108 20.602 66.111"/>
 </g>
 <g>
  <path stroke-width="0.13" d="M16.227 63.235C16.349 63.195 16.39 62.99 16.321 62.777C16.25 62.564 16.092 62.426 15.97 62.466C15.848 62.506 15.806 62.713 15.877 62.924C15.946 63.137 16.103 63.277 16.227 63.235"/>
 </g>
 <g>
  <path stroke-width="0.13" d="M15.919 62.158C15.698 62.216 15.599 62.573 15.698 62.954C15.798 63.337 16.056 63.6 16.277 63.542C16.292 63.539 16.306 63.533 16.318 63.529"/>
  <path stroke-width="0.13" d="M15.939 62.155C15.932 62.155 15.925 62.156 15.919 62.158"/>
 </g>
 <g>
  <path stroke-width="0.13" d="M4.504 61.78C4.628 61.74 4.669 61.533 4.599 61.322C4.528 61.109 4.371 60.97 4.248 61.011C4.126 61.051 4.083 61.258 4.155 61.469C4.225 61.682 4.383 61.82 4.504 61.78"/>
 </g>
 <g>
  <path stroke-width="0.13" d="M4.198 60.704C3.976 60.761 3.878 61.116 3.976 61.5C4.076 61.881 4.336 62.145 4.557 62.088C4.777 62.03 4.876 61.674 4.777 61.292C4.677 60.909 4.418 60.646 4.198 60.704"/>
 </g>
 <g>
  <path stroke-width="0.13" d="M4.405 66.054C4.528 66.013 4.57 65.808 4.498 65.596C4.427 65.382 4.27 65.243 4.149 65.284C4.025 65.325 3.984 65.531 4.054 65.743C4.126 65.956 4.283 66.094 4.405 66.054"/>
 </g>
 <g>
  <path stroke-width="0.13" d="M4.097 64.977C3.876 65.034 3.778 65.391 3.876 65.772C3.976 66.156 4.235 66.418 4.456 66.361C4.676 66.305 4.775 65.947 4.676 65.566C4.577 65.183 4.317 64.92 4.097 64.977"/>
 </g>
 <g>
  <path stroke-width="0.13" d="M6.69 64.84C6.804 64.802 6.843 64.614 6.778 64.418C6.711 64.221 6.567 64.093 6.455 64.132C6.341 64.168 6.302 64.358 6.368 64.555C6.432 64.751 6.578 64.879 6.69 64.84"/>
 </g>
 <g>
  <path stroke-width="0.13" d="M6.407 63.847C6.203 63.901 6.113 64.228 6.203 64.581C6.296 64.935 6.535 65.177 6.738 65.125C6.942 65.072 7.033 64.742 6.942 64.391C6.849 64.037 6.61 63.795 6.407 63.847"/>
 </g>
 <g>
  <path stroke-width="0.13" d="M3.833 64.162C4.001 64.106 4.059 63.823 3.961 63.53C3.863 63.238 3.648 63.048 3.48 63.103C3.31 63.159 3.253 63.442 3.35 63.734C3.447 64.028 3.664 64.218 3.833 64.162"/>
 </g>
 <g>
  <path stroke-width="0.13" d="M3.408 62.679C3.104 62.759 2.968 63.25 3.105 63.776C3.242 64.302 3.599 64.665 3.903 64.587C4.206 64.507 4.343 64.016 4.206 63.49C4.07 62.963 3.713 62.6 3.408 62.679"/>
 </g>
 <path stroke-width="0.13" d="M2.035 53.579C1.261 54.064 1.403 54.206 1.518 54.95C1.633 55.692 2.262 56.006 2.748 56.292C3.234 56.579 3.719 56.951 3.719 57.207C3.719 57.465 3.605 60.637 3.605 60.637"/>
 <path stroke-width="0.13" d="M3.689 58.235C2.69 58.122 1.746 58.722 1.69 59.209C1.633 59.695 1.347 59.981 1.718 60.524C2.089 61.067 2.891 61.924 2.919 62.268C2.948 62.61 3.005 63.46 3.096 63.737C3.186 64.013 3.867 65.253 3.867 65.253"/>
 <path stroke-width="0.13" d="M3.68 58.494C2.836 58.301 2.375 58.865 2.375 59.18C2.375 59.494 3.133 59.701 3.641 59.64"/>
 <path stroke-width="0.13" d="M1.445 54.506C1.661 54.72 2.162 55.258 2.684 54.96"/>
 <line stroke-width="0.13" x1="4.301" y1="55.652" x2="5.863" y2="54.549"/>
 <line stroke-width="0.13" x1="6.79" y1="53.003" x2="7.235" y2="56.465"/>
 <line stroke-width="0.13" x1="15.551" y1="42.13" x2="14.88" y2="41.994"/>
 <line stroke-width="0.13" x1="14.88" y1="41.994" x2="15.169" y2="35.64"/>
 <line stroke-width="0.13" x1="15.169" y1="35.64" x2="16.161" y2="35.206"/>
 <g>
  <path stroke-width="0.13" d="M21.911 40.479C22.126 40.47 22.292 40.235 22.28 39.954C22.268 39.674 22.085 39.454 21.87 39.463C21.655 39.472 21.489 39.707 21.501 39.987C21.513 40.268 21.696 40.488 21.911 40.479"/>
 </g>
 <g>
  <path stroke-width="0.35" d="M21.682 41.06C22.123 41.039 22.458 40.554 22.429 39.978C22.416 39.689 22.314 39.433 22.16 39.253"/>
  <path stroke-width="0.13" d="M22.16 39.253C21.993 39.057 21.783 38.965 21.579 38.975C21.138 38.996 20.803 39.481 20.832 40.057C20.861 40.634 21.242 41.082 21.682 41.06"/>
  <path stroke="none" fill="#000000" d="M22.071 39.381C21.932 39.218 21.753 39.031 21.582 39.039L21.576 38.909C21.815 38.899 22.053 38.896 22.248 39.124L22.071 39.381z"/>
  <path stroke="none" fill="#000000" d="M21.135 40.735C21.292 40.918 21.483 40.896 21.675 40.886L21.692 41.235C21.475 41.246 21.246 41.039 21.07 40.831L21.135 40.735z"/>
 </g>
 <path stroke-width="0.35" d="M21.527 41.048C21.527 41.048 21.091 41.018 20.925 40.999C20.76 40.978 20.469 40.79 20.437 40.521C20.407 40.252 20.376 39.307 20.376 39.307"/>
 <line stroke-width="0.35" x1="20.379" y1="39.42" x2="20.399" y2="29.44"/>
 <line stroke-width="0.35" x1="22.16" y1="39.253" x2="22.158" y2="28.24"/>
 <g>
  <path stroke-width="0.13" d="M20.768 41.094C20.871 41.09 20.969 41.058 21.05 41.012"/>
  <path stroke-width="0.13" d="M20.379 39.094C20.074 39.268 19.899 39.668 19.919 40.091C19.946 40.667 20.327 41.116 20.768 41.094"/>
 </g>
 <path stroke-width="0.35" d="M19.865 53.832C20.051 50.106 22.634 42.201 27.452 37.197C32.27 32.192 38.536 27.675 42.469 28.376"/>
 <path stroke-width="0.35" d="M45.393 28.731C47.043 29.184 48.843 30.481 50.058 33.426"/>
 <path stroke-width="0.35" d="M50.453 34.884C51.03 38.323 50.174 44.185 48.134 47.737"/>
 <path stroke-width="0.35" d="M48.134 47.737C46.325 51.863 40.948 59.716 35.57 62.271C30.193 64.826 31.585 65.697 24.256 64.177"/>
 <line stroke-width="0.35" x1="48.813" y1="31.179" x2="48.816" y2="32.463"/>
 <line stroke-width="0.35" x1="48.655" y1="34.438" x2="47.927" y2="48.192"/>
 <line stroke-width="0.13" x1="49.506" y1="35.395" x2="48.904" y2="45.463"/>
 <line stroke-width="0.35" x1="53.606" y1="22.3" x2="50.634" y2="53.423"/>
 <line stroke-width="0.13" x1="50.634" y1="53.423" x2="43.2" y2="59.021"/>
 <line stroke-width="0.13" x1="53.854" y1="31.617" x2="53.052" y2="39.862"/>
 <line stroke-width="0.13" x1="52.945" y1="40.966" x2="52.582" y2="44.704"/>
 <line stroke-width="0.13" x1="52.384" y1="46.734" x2="51.575" y2="55.057"/>
 <line stroke-width="0.13" x1="55.216" y1="45.325" x2="53.606" y2="44.204"/>
 <line stroke-width="0.13" x1="53.606" y1="44.204" x2="51.773" y2="45.097"/>
 <line stroke-width="0.13" x1="51.773" y1="45.097" x2="51.823" y2="46.286"/>
 <line stroke-width="0.13" x1="51.823" y1="46.286" x2="54.499" y2="48.417"/>
 <g>
  <path stroke-width="0.13" d="M52.945 40.966C53.067 41.06 53.298 40.965 53.46 40.753C53.621 40.54 53.652 40.293 53.53 40.201C53.408 40.106 53.177 40.203 53.017 40.414C52.854 40.627 52.823 40.874 52.945 40.966"/>
 </g>
 <line stroke-width="0.13" x1="53.289" y1="40.192" x2="53.052" y2="39.862"/>
 <line stroke-width="0.13" x1="53.052" y1="39.862" x2="52.366" y2="38.198"/>
 <line stroke-width="0.13" x1="52.945" y1="40.966" x2="51.883" y2="40.347"/>
 <line stroke-width="0.13" x1="52.865" y1="40.085" x2="51.962" y2="39.518"/>
 <path stroke-width="0.13" d="M49.159 17.914L51.466 19.021C51.466 19.021 51.628 18.92 51.929 19.021C52.232 19.123 54.188 20.292 54.509 20.574C54.832 20.856 56.365 23.173 57.311 25.23C58.259 27.286 58.34 27.486 58.34 27.486C58.34 27.486 58.057 27.87 57.432 28.01C56.807 28.152 56.747 28.111 56.747 28.111C56.747 28.111 54.53 23.718 54.289 23.213C54.046 22.71 53.825 22.146 53.018 21.621C52.213 21.097 51.265 20.795 50.982 20.634C50.701 20.472 50.72 20.21 50.72 20.21L49.771 19.643"/>
 <path stroke-width="0.13" d="M50.72 20.21C50.72 20.21 51.548 20.492 51.728 20.129C51.909 19.768 52 19.166 51.542 18.992"/>
 <path stroke-width="0.13" d="M52.762 31.147C54.731 32.082 57.715 32.908 57.957 35.932C58.198 38.956 58.279 39.741 58.279 39.741C58.279 39.741 58.017 41.716 58.017 41.978C58.017 42.24 58.097 42.704 58.802 42.845"/>
 <path stroke-width="0.13" d="M53.14 28.777C53.481 28.353 53.926 27.99 54.188 28.05"/>
 <path stroke-width="0.13" d="M54.188 28.05C54.188 28.05 57.351 29.623 58.34 30.55C59.328 31.478 61.142 32.908 60.96 35.226"/>
 <path stroke-width="0.13" d="M57.195 28.222C57.359 28.504 57.508 28.778 57.646 29.033C58.002 29.695 58.317 30.23 58.634 30.484C59.042 30.809 61.101 32.279 61.795 32.747C61.88 32.804 61.929 32.878 61.954 32.959C61.978 33.036 61.982 33.118 61.979 33.2C61.969 33.476 61.875 33.747 61.817 33.927C61.726 34.21 61.456 34.826 61.286 35.207L61.286 35.204L61.134 35.539"/>
 <path stroke-width="0.13" d="M58.158 27.653C58.332 27.948 58.487 28.236 58.631 28.503C58.896 28.996 59.097 29.42 59.335 29.609C59.732 29.928 61.744 31.361 62.423 31.82C62.749 32.04 62.932 32.326 63.026 32.634C63.085 32.829 63.106 33.033 63.098 33.237C63.085 33.628 62.965 34.014 62.884 34.268C62.786 34.576 62.493 35.25 62.307 35.664L62.155 36.002"/>
 <path stroke-width="0.13" d="M61.134 35.539L60.779 35.427C60.779 35.427 60.274 36.234 59.911 37.121C59.548 38.008 58.661 39.68 58.621 40.527C58.582 41.374 58.621 42.362 58.965 43.087C59.307 43.813 59.328 44.176 58.802 44.558C58.279 44.942 57.453 45.204 57.453 45.183"/>
 <line stroke-width="0.13" x1="61.134" y1="35.539" x2="62.155" y2="36.002"/>
 <path stroke-width="0.13" d="M62.155 36.002L62.491 36.173C62.491 36.173 61.04 38.935 60.798 39.801C60.557 40.668 60.113 41.475 60.798 42.683C61.484 43.893 61.021 44.881 60.759 45.243C60.496 45.606 58.481 46.735 58.481 46.735"/>
 <g>
  <path stroke-width="0.13" d="M58.481 46.735C58.728 46.572 58.698 46.091 58.414 45.662C58.131 45.234 57.701 45.02 57.453 45.183C57.206 45.347 57.234 45.828 57.518 46.256C57.802 46.685 58.232 46.899 58.481 46.735"/>
 </g>
 <line stroke-width="0.13" x1="55.216" y1="47.32" x2="55.216" y2="38.27"/>
 <path stroke-width="0.13" d="M55.216 38.27C55.337 37.948 55.598 37.665 55.82 37.725C56.042 37.786 58.118 39.176 58.118 39.176"/>
 <path stroke-width="0.13" d="M53.643 33.792C54.853 34.42 56.787 35.811 56.948 36.415C57.109 37.021 57.17 37.444 57.17 37.444L58.13 38.045"/>
 <line stroke-width="0.13" x1="57.17" y1="37.444" x2="57.292" y2="38.512"/>
 <path stroke-width="0.13" d="M56.182 36.295C55.92 36.435 55.679 36.597 55.841 37.021C56.002 37.444 56.323 37.524 56.585 37.463C56.847 37.404 56.847 37.404 56.847 37.404"/>
 <line stroke-width="0.35" x1="54.534" y1="16.056" x2="60.161" y2="30.222"/>
 <path stroke-width="0.13" d="M54.188 28.05C54.295 27.242 53.728 25.173 53.393 24.545"/>
 <path stroke-width="0.13" d="M21.754 19.964C21.056 20.102 20.408 21.513 21.41 21.923"/>
 <path stroke-width="0.35" d="M21.411 20.132C20.894 20.056 19.768 20.332 20.251 21.527"/>
 <line stroke-width="0.13" x1="20.899" y1="21.271" x2="20.365" y2="21.367"/>
 <line stroke-width="0.35" x1="20.365" y1="21.367" x2="20.382" y2="24.013"/>
 <path stroke-width="0.13" d="M20.251 22.217C18.364 22.263 15.125 26.477 14.986 27.106"/>
 <path stroke-width="0.13" d="M64.219 38.848C64.219 38.848 63.881 38.994 64.432 39.345C64.983 39.697 65.034 40.048 65.034 40.097C65.034 40.148 68.644 42.604 68.644 42.604"/>
 <line stroke-width="0.13" x1="61.674" y1="41.1" x2="67.189" y2="44.659"/>
 <path stroke-width="0.13" d="M61.482 38.484C61.482 38.484 61.482 40.457 61.543 41.107C61.604 41.758 61.832 42.488 60.753 42.6"/>
 <path stroke-width="0.13" d="M58.149 42.462C58.149 42.462 57.926 43.485 58.027 43.689C58.128 43.893 58.975 44.219 59.192 44.055"/>
 <path stroke-width="0.13" d="M61.496 42.247C62.378 42.469 64.552 44.503 64.167 45.335C63.78 46.17 62.174 46.189 61.543 46.067C60.914 45.945 60.325 45.722 60.325 45.722"/>
 <path stroke-width="0.13" d="M58.039 43.075C57.865 43.241 57.64 43.628 57.783 43.954C57.926 44.279 58.473 44.625 58.494 44.625"/>
 <path stroke-width="0.13" d="M57.966 42.753C57.539 42.997 57.091 43.262 56.929 43.485C56.767 43.71 56.746 44.767 56.746 44.787C56.746 44.807 56.645 45.091 56.99 45.051C57.335 45.011 57.335 45.011 57.396 45.011"/>
 <line stroke-width="0.13" x1="56.831" y1="43.784" x2="58.027" y2="44.706"/>
 <path stroke-width="0.13" d="M59.917 46.027C59.917 46.027 60.954 46.658 61.097 46.759C61.238 46.86 61.463 46.799 61.726 46.719C61.991 46.637 65.406 45.091 65.406 45.091"/>
 <path stroke-width="0.13" d="M63.11 43.363C63.11 43.363 65.427 44.564 65.549 44.726C65.671 44.889 65.65 46.597 65.65 46.597L65.406 47.064"/>
 <path stroke-width="0.13" d="M59.47 46.311L60.893 47.308C60.893 47.308 60.914 47.776 61.299 47.756C61.686 47.734 61.909 47.512 61.909 47.47C61.909 47.429 63.191 47.024 63.191 47.003C63.191 46.982 64.655 46.353 64.695 46.311"/>
 <path stroke-width="0.35" d="M4.626 66.227C4.626 66.227 5.2 65.903 5.903 66.225C6.607 66.548 8.247 66.841 8.659 66.635C9.069 66.43 9.509 65.903 9.509 65.903"/>
 <line stroke-width="0.13" x1="9.714" y1="64.409" x2="9.128" y2="68.365"/>
 <line stroke-width="0.13" x1="9.128" y1="68.365" x2="9.89" y2="68.864"/>
 <path stroke-width="0.13" d="M10.095 68.893C10.974 68.161 13.146 66.75 13.772 66.992"/>
 <line stroke-width="0.13" x1="13.772" y1="66.992" x2="13.746" y2="68.674"/>
 <line stroke-width="0.13" x1="11.586" y1="71.221" x2="20.077" y2="75.655"/>
 <path stroke-width="0.13" d="M20.077 75.655C21.103 76.075 23.248 77.754 25.487 76.54C27.725 75.328 41.999 68.566 44.143 67.492C46.289 66.42 51.84 65.254 53.052 65.486C54.265 65.721 59.162 66.606 60.329 61.523"/>
 <path stroke-width="0.13" d="M21.344 72.67L21.445 72.712C21.681 72.816 21.96 72.959 22.271 73.123C22.675 73.337 23.193 73.743 23.806 73.73C23.85 73.728 23.896 73.715 23.943 73.688L42.704 64.587C45.057 63.409 50.932 62.155 52.86 62.216L52.86 62.216C53.176 62.226 53.445 62.259 53.664 62.301C54.033 62.372 54.948 62.582 55.872 62.363C56.087 62.314 56.307 62.237 56.499 62.091C56.826 61.84 57.027 61.405 57.167 60.798"/>
 <line stroke-width="0.13" x1="21.344" y1="72.67" x2="13.361" y2="68.471"/>
 <path stroke-width="0.13" d="M42.832 61.64C42.832 61.64 48.868 58.468 49.679 57.926C50.493 57.384 51.201 55.603 51.6 54.792C52 53.981 52.542 53.633 53.122 53.246C53.704 52.859 53.896 52.124 53.896 52.124C53.896 52.124 53.201 51.542 54.012 50.963C54.826 50.383 55.173 50.189 55.173 50.189L55.216 47.32"/>
 <line stroke-width="0.13" x1="53.896" y1="52.124" x2="58.345" y2="54.676"/>
 <path stroke-width="0.13" d="M57.167 60.798C57.804 61.485 59.771 61.902 60.296 61.655"/>
 <path stroke-width="0.13" d="M57.167 60.798C57.167 60.798 56.643 59.667 57.069 59.59C57.494 59.512 57.494 59.512 57.494 59.512L57.997 58.003C57.997 58.003 57.494 57.579 57.726 57.229C57.959 56.881 58.732 55.103 58.5 54.173C58.268 53.246 57.726 51.505 57.726 51.505"/>
 <path stroke-width="0.13" d="M61.402 50.576C62.06 53.051 62.176 54.445 62.06 55.606C61.944 56.765 61.131 58.817 61.131 58.817C61.131 58.817 61.363 59.396 61.75 59.241C62.137 59.087 63.375 57.229 63.685 56.494C63.993 55.759 64.304 54.213 63.762 53.362C63.22 52.511 59.816 47.365 59.816 47.365C59.816 47.365 58.578 47.79 58.462 47.017"/>
 <path stroke-width="0.13" d="M60.628 58.738C60.048 58.893 58.578 59.396 59.003 60.363C59.429 61.331 60.296 61.655 60.296 61.655C60.296 61.655 62.718 61.95 63.723 60.982C64.728 60.015 67.399 54.716 66.509 53.515"/>
 <path stroke-width="0.13" d="M65.194 47.055C65.115 46.901 63.878 46.668 63.104 47.597C62.331 48.526 62.292 48.912 62.563 49.338C62.834 49.764 65.194 53.014 66.509 53.515C67.823 54.018 69.759 54.097 70.686 53.942"/>
 <path stroke-width="0.13" d="M65.194 47.055C66.121 48.177 67.322 50.228 68.21 50.383C69.1 50.537 69.295 50.654 70.415 50.383"/>
 <path stroke-width="0.13" d="M63.86 53.545C63.801 54.289 62.911 55.179 62.215 55.256"/>
 <path stroke-width="0.13" d="M11.586 71.221C10.968 70.335 10.913 69.394 11.477 68.858C12.041 68.32 12.506 68.022 13.361 68.471"/>
 <line stroke-width="0.13" x1="13.628" y1="72.215" x2="13.628" y2="73.371"/>
 <path stroke-width="0.35" d="M45.238 28.853C45.786 29.391 45.518 30.228 45.469 30.442"/>
 <line stroke-width="0.13" x1="35.917" y1="10.608" x2="31.67" y2="3.83"/>
 <line stroke-width="0.13" x1="21.307" y1="35.087" x2="9.608" y2="16.199"/>
 <line stroke-width="0.13" x1="56.81" y1="19.591" x2="62.478" y2="15.153"/>
 <text x="29.182" y="3.174" stroke="none" fill="#000000" font-family="'Arial'" font-size="4.232">1</text>
 <text x="62.53" y="14.468" stroke="none" fill="#000000" font-family="'Arial'" font-size="4.232">2</text>
 <text x="7.278" y="15.349" stroke="none" fill="#000000" font-family="'Arial'" font-size="4.232">2</text>
 <text transform="matrix(0 -1 1 0 69.572 71.731)" stroke="none" fill="#000000" font-family="'Arial'" font-size="2.117">305 047</text>
</svg>
