<?xml version="1.0" encoding="utf-8"?>
<!DOCTYPE svg PUBLIC "-//W3C//DTD SVG 1.1//EN" "http://www.w3.org/Graphics/SVG/1.1/DTD/svg11.dtd">
<!-- Generator: PTC Arbortext IsoDraw 7.3 M070 -->
<svg id="Standard_x0020_layer" width="100%" height="100%" viewBox="0 0 75 37.5"
 xmlns="http://www.w3.org/2000/svg" xmlns:xlink="http://www.w3.org/1999/xlink"
 fill-rule="evenodd" clip-rule="evenodd" stroke="#000000" stroke-linecap="round" fill="none" xml:space="preserve">
 <path stroke="none" d="M75 37.5L0 37.5L0 0L75 0L75 37.5z"/>
 <path stroke="none" fill="#FFFFFF" d="M74.338 35.273L74.338 27.623 71.87 27.623 71.87 35.273z"/>
 <text transform="matrix(0 -1 1 0 73.634 35.273)" stroke="none" fill="#000000" font-family="'Helvetica'" font-size="2.117">321 859</text>
 <path stroke-width="0.25" stroke-linejoin="round" stroke-miterlimit="10" d="M18.599 10.717L18.478 10.582L18.37 10.455L18.268 10.336L18.16 10.224L18.036 10.115L17.902 10.019L17.775 9.939L17.655 9.874L17.542 9.82L17.434 9.778L17.35 9.749L17.289 9.73L17.231 9.721L17.161 9.714L17.059 9.704L16.804 9.686L16.333 9.666L15.711 9.65L15.006 9.641L14.282 9.647L13.686 9.664L13.087 9.691L12.497 9.724L11.926 9.765L11.385 9.808L10.885 9.853L10.313 9.913L9.772 9.98L9.317 10.042L9.002 10.09L8.878 10.115L8.874 10.127L8.875 10.137L8.88 10.148L8.881 10.16L8.878 10.173L8.862 10.185L8.833 10.201L8.794 10.217L8.746 10.234L8.691 10.247L8.621 10.256L8.535 10.259L8.442 10.26L8.353 10.262L8.278 10.266L8.224 10.272L8.186 10.278L8.153 10.282L8.112 10.291L8.053 10.304L7.83 10.35L7.392 10.445L6.859 10.566L6.351 10.689L5.988 10.791L5.775 10.864L5.613 10.92L5.482 10.977L5.352 11.048L5.2 11.148L5.033 11.281L4.875 11.429L4.734 11.58L4.615 11.721L4.525 11.843L4.458 11.952L4.405 12.057L4.368 12.148L4.341 12.291L4.331 12.237"/>
 <path stroke-width="0.25" stroke-linejoin="round" stroke-miterlimit="10" d="M3.944 13.983L3.844 14.512L3.753 14.968L3.666 15.41L3.581 15.9L3.493 16.498L3.42 17.141L3.35 17.89L3.287 18.643L3.238 19.303L3.205 19.771L3.193 19.951"/>
 <path stroke-width="0.25" stroke-linejoin="round" stroke-miterlimit="10" d="M12.425 18.454L12.496 17.489L12.574 16.471L12.65 15.496L12.712 14.662L12.753 14.064L12.762 13.8L12.749 13.734L12.733 13.683L12.714 13.646L12.692 13.611L12.667 13.574L12.644 13.538L12.621 13.506L12.596 13.481L12.57 13.461L12.537 13.442L12.503 13.433L12.474 13.432L12.442 13.435L12.403 13.441L12.349 13.442L12.013 13.442L11.217 13.439L10.144 13.436L8.977 13.435L7.897 13.433L7.091 13.436L6.738 13.442L6.66 13.454L6.601 13.464L6.554 13.475L6.514 13.493L6.476 13.518L6.445 13.544L6.424 13.57L6.41 13.599L6.397 13.635L6.383 13.686L6.349 13.928L6.296 14.416L6.24 14.98L6.195 15.445L6.182 15.637"/>
 <path stroke-width="0.25" stroke-linejoin="round" stroke-miterlimit="10" d="M9.349 30.251L9.417 30.036L9.471 29.847L9.525 29.666L9.592 29.469L9.688 29.237L9.811 28.977L9.948 28.713L10.095 28.454L10.247 28.207L10.4 27.98L10.539 27.786L10.66 27.631L10.774 27.498L10.896 27.375L11.038 27.248L11.189 27.129L11.33 27.033L11.467 26.954L11.605 26.884L11.752 26.817L11.887 26.759L12 26.716L12.106 26.686L12.224 26.658L12.371 26.629L12.525 26.603L12.669 26.585L12.82 26.573L12.996 26.564L13.215 26.553L13.497 26.545L13.83 26.542L14.178 26.542L14.509 26.547L14.791 26.553L15.003 26.557L15.166 26.557L15.308 26.562L15.455 26.576L15.635 26.611L15.836 26.658L16.027 26.711L16.21 26.778L16.391 26.861L16.574 26.966L16.734 27.079L16.859 27.187L16.969 27.303L17.086 27.437L17.231 27.605L17.394 27.792L17.556 27.986L17.718 28.193L17.878 28.42L18.038 28.675L18.199 28.975L18.35 29.303L18.477 29.603L18.565 29.826L18.603 29.914"/>
 <path stroke-width="0.25" stroke-linejoin="round" stroke-miterlimit="10" d="M2.932 20.196L2.6 20.196"/>
 <path stroke-width="0.25" stroke-linejoin="round" stroke-miterlimit="10" d="M18.599 10.717L18.843 11.015L19.091 11.311L19.318 11.583L19.495 11.808L19.594 11.961L19.635 12.054L19.655 12.122L19.664 12.183L19.67 12.25L19.681 12.339L19.693 12.448L19.696 12.566L19.701 12.685L19.713 12.794L19.739 12.89L19.786 12.967L19.841 13.028L19.896 13.076L19.943 13.117L19.972 13.15L19.984 13.178L19.992 13.196L19.995 13.214L19.996 13.236L20.001 13.266L20.022 13.503L20.071 14.086L20.138 14.933L20.213 15.958L20.286 17.076L20.35 18.199L20.396 19.269L20.437 20.513L20.475 21.806L20.507 23.027L20.532 24.051L20.547 24.757L20.547 25.103"/>
 <path stroke-width="0.25" stroke-linejoin="round" stroke-miterlimit="10" d="M18.221 31.682C18.221 29.306 16.292 27.378 13.916 27.378C11.538 27.378 9.609 29.306 9.609 31.682C9.609 34.06 11.538 35.987 13.916 35.987C16.292 35.987 18.221 34.06 18.221 31.682z"/>
 <path stroke-width="0.25" stroke-linejoin="round" stroke-miterlimit="10" d="M18.675 28.073L18.739 28.225L18.798 28.361L18.853 28.489L18.91 28.626L18.968 28.78L19.022 28.94L19.071 29.086L19.114 29.228L19.152 29.367L19.19 29.515L19.222 29.644L19.245 29.743L19.263 29.838L19.282 29.954L19.301 30.117L19.324 30.448L19.352 31.024L19.379 31.707L19.405 32.365L19.425 32.86L19.439 33.052"/>
 <path stroke-width="0.25" stroke-linejoin="round" stroke-miterlimit="10" d="M18.599 29.917L18.646 30.03L18.69 30.12L18.731 30.21L18.771 30.323L18.809 30.48L18.846 30.864L18.876 31.515L18.899 32.228L18.916 32.804L18.916 33.034"/>
 <path stroke-width="0.25" stroke-linejoin="round" stroke-miterlimit="10" d="M2.573 30.237L2.495 30.23L2.418 30.217L2.347 30.207L2.286 30.205L2.24 30.216L2.209 30.234L2.189 30.253L2.177 30.277L2.165 30.307L2.15 30.349L2.131 30.449L2.108 30.623L2.088 30.83L2.077 31.027L2.084 31.173L2.104 31.268L2.132 31.346L2.161 31.41L2.192 31.463L2.217 31.507L2.238 31.544L2.254 31.571L2.27 31.591L2.286 31.614L2.306 31.641L2.326 31.67L2.344 31.693L2.363 31.716L2.387 31.742L2.418 31.774L2.472 31.821L2.547 31.879L2.624 31.937L2.684 31.981L2.709 31.992"/>
 <path stroke-width="0.25" stroke-linejoin="round" stroke-miterlimit="10" d="M52.869 31.591C52.869 29.213 50.939 27.283 48.563 27.283C46.185 27.283 44.255 29.213 44.255 31.591C44.255 33.969 46.185 35.899 48.563 35.899C50.939 35.899 52.869 33.969 52.869 31.591z"/>
 <path stroke-width="0.25" stroke-linejoin="round" stroke-miterlimit="10" d="M63.783 31.652C63.783 29.274 61.853 27.344 59.475 27.344C57.097 27.344 55.167 29.274 55.167 31.652C55.167 34.03 57.097 35.96 59.475 35.96C61.853 35.96 63.783 34.03 63.783 31.652z"/>
 <path stroke-width="0.25" stroke-linejoin="round" stroke-miterlimit="10" d="M18.931 33.042L19.443 33.069"/>
 <path stroke-width="0.25" stroke-linejoin="round" stroke-miterlimit="10" d="M4.341 12.291L4.182 12.295L4.025 12.298L3.882 12.301L3.758 12.304L3.661 12.307L3.593 12.308L3.536 12.31L3.491 12.31L3.45 12.314L3.408 12.321L3.371 12.33L3.342 12.336L3.317 12.346L3.29 12.362L3.258 12.388L3.204 12.461L3.123 12.593L3.032 12.76L2.944 12.936L2.878 13.099L2.835 13.243L2.806 13.381L2.788 13.505L2.778 13.605L2.774 13.673L2.772 13.717L2.773 13.75L2.774 13.778L2.78 13.803L2.789 13.83L2.798 13.858L2.811 13.882L2.823 13.903L2.838 13.92L2.855 13.935L2.874 13.943L2.889 13.948L2.905 13.948L2.926 13.948L2.952 13.949L3.22 13.952L3.81 13.957L4.503 13.961L5.078 13.964L5.078 13.964"/>
 <path stroke-width="0.25" stroke-linejoin="round" stroke-miterlimit="10" d="M4.56 19.658L4.222 19.725L3.876 19.792L3.564 19.853L3.319 19.905L3.185 19.945L3.125 19.974L3.083 20.001L3.048 20.027L3.023 20.054L2.996 20.082L2.979 20.111L2.969 20.137L2.963 20.161L2.951 20.182L2.927 20.202L2.879 20.21L2.806 20.204L2.724 20.193L2.648 20.187L2.592 20.192L2.556 20.204L2.531 20.217L2.509 20.234L2.492 20.254L2.474 20.28L2.456 20.318L2.446 20.367L2.439 20.414L2.435 20.452L2.434 20.468L2.434 20.471L2.432 20.472L2.432 20.475L2.432 20.477L2.434 20.478L2.46 20.478L2.522 20.478L2.594 20.478L2.656 20.478L2.681 20.478L2.681 20.478L2.679 20.478L2.676 20.477L2.673 20.477L2.672 20.478L2.669 20.58L2.663 20.824L2.657 21.118L2.649 21.373L2.641 21.496L2.636 21.519L2.629 21.536L2.624 21.55L2.615 21.562L2.602 21.576L2.585 21.588L2.565 21.596L2.543 21.603L2.522 21.615L2.504 21.635L2.49 21.673L2.48 21.73L2.476 21.788L2.474 21.833L2.474 21.853L2.492 21.852L2.535 21.85L2.588 21.85L2.634 21.853L2.661 21.862L2.669 21.876L2.672 21.893L2.669 21.908L2.661 21.925L2.652 21.942L2.632 21.951L2.602 21.951L2.568 21.952L2.533 21.96L2.503 21.981L2.479 22.032L2.459 22.114L2.446 22.207L2.439 22.291L2.443 22.347L2.454 22.376L2.466 22.394L2.48 22.41L2.499 22.425L2.523 22.446L2.56 22.472L2.609 22.5L2.66 22.527L2.701 22.553L2.721 22.574L2.724 22.588L2.719 22.6L2.714 22.611L2.706 22.623L2.701 22.643L2.698 22.739L2.694 22.931L2.693 23.153L2.692 23.338L2.69 23.414L2.681 23.414L2.653 23.411L2.616 23.413L2.577 23.42L2.543 23.434L2.515 23.458L2.492 23.489L2.472 23.527L2.455 23.568L2.443 23.612L2.436 23.657L2.435 23.701L2.439 23.742L2.448 23.783L2.463 23.82L2.484 23.852L2.508 23.876L2.536 23.897L2.561 23.914L2.583 23.928L2.601 23.942L2.621 23.952L2.637 23.96L2.648 23.966L2.652 23.968L2.655 24.068L2.661 24.309L2.671 24.596L2.677 24.836L2.681 24.937L2.676 24.939L2.66 24.942L2.637 24.948L2.609 24.955L2.583 24.966L2.552 24.978L2.516 24.992L2.482 25.009L2.45 25.033L2.423 25.065L2.41 25.111L2.407 25.167L2.411 25.227L2.422 25.283L2.434 25.332L2.447 25.37L2.46 25.402L2.476 25.426L2.496 25.449L2.523 25.471L2.56 25.49L2.604 25.504L2.645 25.513L2.679 25.518L2.69 25.518"/>
 <path stroke-width="0.25" stroke-linejoin="round" stroke-miterlimit="10" d="M2.689 25.576L2.693 25.795L2.698 26.025L2.702 26.234L2.703 26.387L2.702 26.451L2.701 26.458L2.7 26.464L2.698 26.469L2.694 26.474L2.689 26.478L2.671 26.484L2.636 26.49L2.593 26.5L2.552 26.513L2.522 26.533L2.506 26.559L2.496 26.586L2.493 26.615L2.493 26.649L2.493 26.687L2.492 26.728L2.492 26.771L2.495 26.815L2.504 26.856L2.522 26.896L2.549 26.928L2.584 26.954L2.621 26.975L2.661 26.992L2.702 27.007L2.746 27.016L2.79 27.021L2.83 27.021L2.859 27.021L2.87 27.021L2.868 27.019L2.866 27.019L2.862 27.018L2.859 27.018L2.855 27.021L2.857 27.047L2.859 27.109L2.863 27.193L2.863 27.28L2.855 27.353L2.841 27.411L2.823 27.458L2.804 27.501L2.782 27.539L2.758 27.576L2.737 27.611L2.718 27.638L2.698 27.661L2.677 27.681L2.647 27.701L2.609 27.716L2.568 27.725L2.525 27.73L2.491 27.734L2.467 27.742L2.452 27.753L2.443 27.76L2.436 27.769L2.431 27.782L2.424 27.798L2.418 27.841L2.411 27.913L2.407 27.995L2.407 28.071L2.411 28.118L2.415 28.141L2.42 28.158L2.427 28.172L2.438 28.185L2.452 28.202L2.484 28.224L2.535 28.248L2.588 28.272L2.631 28.292L2.648 28.298L2.645 28.3L2.644 28.298L2.64 28.297L2.637 28.297L2.633 28.298L2.633 28.376L2.637 28.561L2.642 28.782L2.647 28.972L2.648 29.064L2.645 29.079L2.645 29.091L2.645 29.1L2.641 29.109L2.633 29.118L2.621 29.129L2.602 29.135L2.581 29.143L2.56 29.149L2.536 29.161L2.514 29.172L2.492 29.181L2.472 29.193L2.455 29.207L2.439 29.23L2.427 29.26L2.422 29.294L2.42 29.333L2.423 29.376L2.424 29.425L2.427 29.477L2.431 29.53L2.436 29.582L2.447 29.628L2.467 29.661L2.493 29.681L2.524 29.69L2.555 29.693L2.584 29.696L2.605 29.702L2.621 29.71L2.634 29.716L2.645 29.722L2.653 29.731L2.661 29.743L2.666 29.772L2.668 29.815L2.665 29.861L2.663 29.896L2.661 29.911L2.661 29.91L2.661 29.905L2.661 29.902L2.661 29.899L2.661 29.896L2.652 29.928L2.629 30.004L2.601 30.094L2.577 30.17L2.564 30.207"/>
 <path stroke-width="0.25" stroke-linejoin="round" stroke-miterlimit="10" d="M2.677 31.992L2.694 31.996L2.711 31.998L2.727 32.002L2.743 32.008L2.759 32.021L2.773 32.045L2.782 32.082L2.789 32.128L2.799 32.179L2.815 32.228L2.831 32.277L2.846 32.32L2.863 32.362L2.892 32.405L2.94 32.451L3.072 32.515L3.31 32.598L3.609 32.691L3.915 32.78L4.177 32.854L4.378 32.911L4.541 32.954L4.687 32.99L4.833 33.021L4.998 33.048L5.15 33.072L5.269 33.085L5.384 33.093L5.525 33.098L5.719 33.104L6.065 33.107L6.634 33.106L7.296 33.1L7.929 33.091L8.404 33.084L8.596 33.076L8.602 33.069L8.605 33.06L8.603 33.051L8.605 33.042L8.611 33.036L8.625 33.034L8.646 33.039L8.673 33.048L8.704 33.057L8.736 33.063L8.768 33.064L8.8 33.06L8.83 33.055L8.861 33.055L8.888 33.063L8.913 33.081L8.936 33.104L8.952 33.131L8.965 33.151L8.978 33.164"/>
 <path stroke-width="0.25" stroke-linejoin="round" stroke-miterlimit="10" d="M8.914 33.055L8.968 33.054L9.023 33.052L9.074 33.051L9.114 33.048L9.137 33.042L9.147 33.036L9.153 33.03L9.157 33.023L9.16 33.012L9.164 33L9.17 32.973L9.176 32.929L9.182 32.877L9.188 32.828L9.192 32.792L9.195 32.771L9.198 32.758L9.201 32.746L9.204 32.731L9.207 32.709L9.21 32.512L9.214 32.079L9.22 31.557L9.227 31.097L9.234 30.847L9.24 30.765L9.247 30.707L9.255 30.661L9.263 30.614L9.275 30.554L9.292 30.483L9.313 30.41L9.333 30.344L9.348 30.291L9.361 30.265"/>
 <path stroke-width="0.25" stroke-linejoin="round" stroke-miterlimit="10" d="M18.663 28.111L18.644 28.065L18.632 28.027L18.617 27.989L18.599 27.943L18.571 27.884L18.528 27.795L18.468 27.673L18.388 27.525L18.289 27.362L18.17 27.19L18.03 27.013L17.873 26.83L17.707 26.653L17.539 26.487L17.376 26.341L17.233 26.224L17.111 26.132L17 26.057L16.882 25.99L16.746 25.922L16.599 25.856L16.454 25.803L16.321 25.76L16.201 25.728L16.099 25.702L16.022 25.686L15.968 25.675L15.922 25.669L15.865 25.664L15.788 25.658L15.659 25.649L15.484 25.641L15.307 25.635L15.169 25.632L15.025 25.614"/>
 <path stroke-width="0.25" stroke-linejoin="round" stroke-miterlimit="10" d="M15.025 25.088C15.025 25.088 20.547 25.088 19.277 25.088"/>
 <line stroke-width="0.25" x1="0.41" y1="35.988" x2="74.356" y2="35.988"/>
 <line stroke-width="0.25" x1="4.56" y1="19.658" x2="4.939" y2="19.6"/>
 <line stroke-width="0.25" x1="6.07" y1="19.425" x2="12.425" y2="18.454"/>
 <line stroke-width="0.25" x1="6.195" y1="15.445" x2="6.044" y2="19.385"/>
 <line stroke-width="0.25" x1="67.516" y1="27.699" x2="61.188" y2="27.699"/>
 <line stroke-width="0.25" x1="57.765" y1="27.699" x2="54.947" y2="27.699"/>
 <line stroke-width="0.25" x1="53.109" y1="27.699" x2="50.409" y2="27.699"/>
 <line stroke-width="0.25" x1="46.716" y1="27.699" x2="18.663" y2="27.699"/>
 <line stroke-width="0.25" x1="67.516" y1="27.699" x2="67.516" y2="29.676"/>
 <line stroke-width="0.25" x1="67.516" y1="29.676" x2="63.304" y2="29.676"/>
 <line stroke-width="0.25" x1="55.648" y1="29.676" x2="54.588" y2="29.676"/>
 <line stroke-width="0.25" x1="53.682" y1="29.676" x2="52.421" y2="29.676"/>
 <line stroke-width="0.25" x1="44.703" y1="29.676" x2="19.222" y2="29.676"/>
 <line stroke-width="0.25" x1="19.463" y1="25.103" x2="20.547" y2="25.103"/>
 <line stroke-width="0.25" x1="15.025" y1="25.088" x2="15.025" y2="25.614"/>
 <line stroke-width="0.25" x1="5.078" y1="13.964" x2="4.939" y2="19.643"/>
 <line stroke-width="0.13" stroke-dasharray="1 1" x1="18.663" y1="27.699" x2="65.673" y2="26.292"/>
 <line stroke-width="0.13" x1="65.673" y1="26.292" x2="66.673" y2="26.263"/>
 <line stroke-width="0.13" stroke-dasharray="1 1" x1="25.12" y1="29.576" x2="66.352" y2="30.821"/>
 <line stroke-width="0.13" x1="66.352" y1="30.821" x2="67.352" y2="30.852"/>
 <path stroke-width="0.13" stroke-linejoin="round" stroke-miterlimit="10" stroke-dasharray="1 1" d="M52.777 30.65C52.777 28.272 50.847 26.344 48.469 26.344C46.091 26.344 44.161 28.272 44.161 30.65C44.161 33.029 46.091 34.959 48.469 34.959C50.506 34.959 52.216 33.542 52.662 31.64"/>
 <path stroke-width="0.13" stroke-linejoin="round" stroke-miterlimit="10" d="M52.662 31.64C52.737 31.323 52.777 30.992 52.777 30.65"/>
 <path stroke-width="0.13" stroke-linejoin="round" stroke-miterlimit="10" stroke-dasharray="1 1" d="M63.691 30.713C63.691 28.335 61.761 26.405 59.383 26.405C57.005 26.405 55.076 28.335 55.076 30.713C55.076 33.091 57.005 35.021 59.383 35.021C61.42 35.021 63.128 33.603 63.576 31.701"/>
 <path stroke-width="0.13" stroke-linejoin="round" stroke-miterlimit="10" d="M63.576 31.701C63.652 31.385 63.691 31.053 63.691 30.713"/>
 <path stroke-width="0.13" stroke-linejoin="round" stroke-miterlimit="10" stroke-dasharray="1 1" d="M52.607 29.121C52.607 26.743 50.677 24.814 48.299 24.814C45.921 24.814 43.991 26.743 43.991 29.121C43.991 31.5 45.921 33.429 48.299 33.429C50.337 33.429 52.045 32.012 52.493 30.111"/>
 <path stroke-width="0.13" stroke-linejoin="round" stroke-miterlimit="10" d="M52.493 30.111C52.567 29.794 52.607 29.461 52.607 29.121"/>
 <path stroke-width="0.13" stroke-linejoin="round" stroke-miterlimit="10" stroke-dasharray="1 1" d="M63.521 29.182C63.521 26.804 61.591 24.876 59.213 24.876C56.835 24.876 54.905 26.804 54.905 29.182C54.905 31.561 56.835 33.49 59.213 33.49C61.25 33.49 62.959 32.073 63.406 30.172"/>
 <path stroke-width="0.13" stroke-linejoin="round" stroke-miterlimit="10" d="M63.406 30.172C63.481 29.855 63.521 29.524 63.521 29.182"/>
 <g>
  <path stroke-width="0.13" d="M69.4 34.74C70.441 33.604 70.992 31.643 70.959 29.609C70.915 27.391 70.177 25.469 69.102 24.449"/>
 </g>
 <line stroke-width="0.13" x1="68.772" y1="24.16" x2="69.543" y2="26.039"/>
 <line stroke-width="0.13" x1="68.772" y1="24.16" x2="70.603" y2="25.147"/>
 <line stroke-width="0.13" x1="70.603" y1="25.147" x2="69.712" y2="25.196"/>
 <line stroke-width="0.13" x1="69.712" y1="25.196" x2="69.543" y2="26.039"/>
 <g>
  <path stroke="none" fill="#000000" d="M68.772 24.16L69.543 26.039 69.712 25.196 70.603 25.147"/>
 </g>
 <line stroke-width="0.13" x1="69.087" y1="34.926" x2="69.858" y2="33.045"/>
 <line stroke-width="0.13" x1="69.087" y1="34.926" x2="70.92" y2="33.938"/>
 <line stroke-width="0.13" x1="70.92" y1="33.938" x2="70.028" y2="33.89"/>
 <line stroke-width="0.13" x1="70.028" y1="33.89" x2="69.858" y2="33.045"/>
 <g>
  <path stroke="none" fill="#000000" d="M69.087 34.926L69.858 33.045 70.028 33.89 70.92 33.938"/>
 </g>
 <line stroke-width="0.25" x1="54.094" y1="26.943" x2="53.293" y2="28.57"/>
 <line stroke-width="0.25" x1="53.293" y1="28.57" x2="53.82" y2="28.295"/>
 <line stroke-width="0.25" x1="54.094" y1="26.943" x2="54.896" y2="28.57"/>
 <line stroke-width="0.25" x1="54.896" y1="28.57" x2="54.369" y2="28.295"/>
 <line stroke-width="0.25" x1="54.094" y1="34.719" x2="54.896" y2="33.093"/>
 <line stroke-width="0.25" x1="54.896" y1="33.093" x2="54.369" y2="33.368"/>
 <line stroke-width="0.25" x1="54.094" y1="34.719" x2="53.293" y2="33.093"/>
 <line stroke-width="0.25" x1="53.293" y1="33.093" x2="53.82" y2="33.368"/>
 <line stroke-width="0.25" x1="54.118" y1="28.364" x2="54.118" y2="33.195"/>
</svg>
