<?xml version="1.0" encoding="utf-8"?>
<!DOCTYPE svg PUBLIC "-//W3C//DTD SVG 1.1//EN" "http://www.w3.org/Graphics/SVG/1.1/DTD/svg11.dtd">
<!-- Generator: PTC Arbortext IsoDraw 7.3 M070 -->
<svg id="Standard_x0020_layer" width="100%" height="100%" viewBox="0 0 75 30"
 xmlns="http://www.w3.org/2000/svg" xmlns:xlink="http://www.w3.org/1999/xlink"
 fill-rule="evenodd" clip-rule="evenodd" stroke="#000000" stroke-linecap="round" fill="none" xml:space="preserve">
 <path stroke="none" d="M75 30L0 30L0 0L75 0L75 30z"/>
 <path stroke-width="0.25" stroke-linejoin="round" stroke-miterlimit="10" d="M21.655 3.964L21.541 3.838L21.44 3.718L21.344 3.608L21.242 3.501L21.125 3.399L21 3.307L20.879 3.233L20.766 3.17L20.66 3.121L20.559 3.081L20.48 3.053L20.422 3.037L20.368 3.028L20.301 3.02L20.205 3.011L19.966 2.996L19.522 2.976L18.937 2.96L18.272 2.952L17.593 2.958L17.032 2.975L16.469 3L15.913 3.032L15.375 3.068L14.867 3.109L14.396 3.153L13.856 3.209L13.348 3.272L12.919 3.33L12.621 3.375L12.506 3.399L12.502 3.41L12.503 3.419L12.507 3.431L12.509 3.442L12.506 3.452L12.492 3.466L12.464 3.48L12.426 3.496L12.381 3.509L12.33 3.523L12.263 3.532L12.182 3.535L12.096 3.536L12.012 3.536L11.941 3.54L11.891 3.547L11.855 3.552L11.823 3.556L11.785 3.565L11.728 3.577L11.519 3.62L11.108 3.71L10.605 3.823L10.128 3.939L9.787 4.035L9.585 4.104L9.433 4.157L9.308 4.209L9.188 4.277L9.044 4.371L8.887 4.496L8.737 4.634L8.605 4.777L8.493 4.91L8.409 5.025L8.346 5.126L8.297 5.227L8.26 5.312L8.237 5.448L8.227 5.397"/>
 <path stroke-width="0.25" stroke-linejoin="round" stroke-miterlimit="10" d="M7.862 7.038L7.769 7.538L7.682 7.966L7.601 8.381L7.52 8.843L7.439 9.406L7.368 10.012L7.302 10.717L7.245 11.426L7.198 12.047L7.166 12.487L7.155 12.657"/>
 <path stroke-width="0.25" stroke-linejoin="round" stroke-miterlimit="10" d="M15.843 11.246L15.912 10.339L15.986 9.381L16.056 8.464L16.115 7.677L16.153 7.115L16.161 6.867L16.149 6.804L16.134 6.758L16.117 6.721L16.097 6.689L16.073 6.655L16.05 6.62L16.028 6.591L16.006 6.567L15.98 6.546L15.949 6.53L15.917 6.522L15.89 6.52L15.859 6.524L15.823 6.528L15.772 6.53L15.457 6.53L14.708 6.528L13.698 6.525L12.599 6.522L11.583 6.522L10.823 6.525L10.493 6.53L10.419 6.541L10.362 6.551L10.317 6.562L10.281 6.578L10.244 6.602L10.215 6.626L10.196 6.65L10.183 6.677L10.172 6.713L10.157 6.759L10.125 6.987L10.076 7.447L10.022 7.977L9.98 8.414L9.968 8.596"/>
 <path stroke-width="0.25" stroke-linejoin="round" stroke-miterlimit="10" d="M12.949 22.35L13.013 22.146L13.064 21.971L13.114 21.8L13.178 21.614L13.268 21.396L13.384 21.15L13.512 20.902L13.65 20.658L13.794 20.426L13.939 20.213L14.07 20.03L14.182 19.884L14.291 19.759L14.404 19.643L14.539 19.524L14.682 19.411L14.814 19.321L14.942 19.246L15.073 19.181L15.211 19.117L15.339 19.064L15.445 19.024L15.544 18.995L15.656 18.969L15.794 18.94L15.939 18.916L16.074 18.899L16.216 18.888L16.382 18.879L16.588 18.87L16.853 18.862L17.166 18.859L17.493 18.859L17.806 18.864L18.071 18.87L18.271 18.873L18.425 18.875L18.557 18.878L18.696 18.891L18.867 18.923L19.054 18.968L19.234 19.018L19.407 19.082L19.577 19.161L19.75 19.259L19.899 19.364L20.018 19.466L20.121 19.574L20.231 19.702L20.367 19.859L20.521 20.036L20.673 20.219L20.826 20.414L20.977 20.628L21.126 20.867L21.277 21.149L21.42 21.457L21.539 21.742L21.623 21.949L21.66 22.033"/>
 <path stroke-width="0.25" stroke-linejoin="round" stroke-miterlimit="10" d="M6.91 12.885L6.596 12.885"/>
 <path stroke-width="0.25" stroke-linejoin="round" stroke-miterlimit="10" d="M21.655 3.964L21.884 4.245L22.118 4.525L22.332 4.782L22.498 4.993L22.593 5.137L22.629 5.224L22.649 5.288L22.658 5.346L22.664 5.408L22.675 5.492L22.684 5.594L22.689 5.705L22.692 5.817L22.702 5.921L22.728 6.011L22.771 6.081L22.824 6.139L22.876 6.187L22.92 6.224L22.948 6.256L22.96 6.28L22.966 6.299L22.969 6.315L22.971 6.336L22.975 6.365L22.995 6.586L23.041 7.136L23.103 7.934L23.173 8.897L23.242 9.949L23.303 11.007L23.346 12.015L23.385 13.185L23.422 14.403L23.451 15.551L23.474 16.515L23.489 17.178L23.489 17.504"/>
 <path stroke-width="0.25" stroke-linejoin="round" stroke-miterlimit="10" d="M21.298 23.698C21.298 21.46 19.484 19.646 17.246 19.646C15.009 19.646 13.195 21.46 13.195 23.698C13.195 25.934 15.009 27.75 17.246 27.75C19.484 27.75 21.298 25.934 21.298 23.698z"/>
 <path stroke-width="0.25" stroke-linejoin="round" stroke-miterlimit="10" d="M21.727 20.3L21.788 20.443L21.843 20.571L21.894 20.693L21.948 20.821L22.001 20.966L22.054 21.117L22.1 21.254L22.14 21.387L22.176 21.519L22.211 21.658L22.242 21.78L22.263 21.873L22.28 21.961L22.297 22.071L22.317 22.225L22.338 22.536L22.364 23.077L22.39 23.721L22.414 24.339L22.432 24.806L22.445 24.986"/>
 <path stroke-width="0.25" stroke-linejoin="round" stroke-miterlimit="10" d="M21.655 22.036L21.699 22.143L21.74 22.227L21.78 22.312L21.817 22.417L21.853 22.565L21.887 22.928L21.916 23.539L21.939 24.211L21.952 24.754L21.952 24.971"/>
 <path stroke-width="0.25" stroke-linejoin="round" stroke-miterlimit="10" d="M6.573 22.338L6.498 22.329L6.426 22.318L6.359 22.309L6.301 22.306L6.258 22.317L6.23 22.333L6.211 22.352L6.198 22.375L6.187 22.403L6.174 22.443L6.155 22.536L6.134 22.701L6.115 22.896L6.105 23.082L6.112 23.217L6.131 23.307L6.157 23.381L6.184 23.44L6.213 23.489L6.237 23.533L6.256 23.567L6.272 23.591L6.285 23.612L6.301 23.632L6.32 23.658L6.341 23.684L6.357 23.707L6.375 23.73L6.395 23.754L6.426 23.785L6.477 23.827L6.546 23.882L6.62 23.937L6.676 23.978L6.7 23.989"/>
 <path stroke-width="0.25" stroke-linejoin="round" stroke-miterlimit="10" d="M53.909 23.611C53.909 21.373 52.094 19.557 49.856 19.557C47.618 19.557 45.801 21.373 45.801 23.611C45.801 25.85 47.618 27.666 49.856 27.666C52.094 27.666 53.909 25.85 53.909 23.611z"/>
 <path stroke-width="0.25" stroke-linejoin="round" stroke-miterlimit="10" d="M64.182 23.67C64.182 21.431 62.365 19.614 60.128 19.614C57.89 19.614 56.073 21.431 56.073 23.67C56.073 25.908 57.89 27.724 60.128 27.724C62.365 27.724 64.182 25.908 64.182 23.67z"/>
 <path stroke-width="0.25" stroke-linejoin="round" stroke-miterlimit="10" d="M21.968 24.978L22.449 25.001"/>
 <path stroke-width="0.25" stroke-linejoin="round" stroke-miterlimit="10" d="M8.237 5.448L8.086 5.45L7.939 5.453L7.804 5.456L7.687 5.458L7.596 5.461L7.53 5.464L7.479 5.464L7.435 5.464L7.397 5.469L7.357 5.476L7.323 5.484L7.296 5.49L7.272 5.498L7.248 5.514L7.217 5.538L7.166 5.607L7.089 5.732L7.003 5.889L6.921 6.054L6.859 6.206L6.819 6.343L6.791 6.472L6.774 6.589L6.764 6.684L6.761 6.748L6.759 6.788L6.759 6.82L6.762 6.846L6.767 6.87L6.775 6.895L6.785 6.921L6.794 6.945L6.807 6.964L6.82 6.98L6.838 6.993L6.855 7.003L6.868 7.006L6.884 7.006L6.903 7.006L6.929 7.008L7.181 7.011L7.735 7.014L8.387 7.017L8.931 7.02L8.931 7.02"/>
 <path stroke-width="0.25" stroke-linejoin="round" stroke-miterlimit="10" d="M8.442 12.38L8.124 12.444L7.799 12.506L7.503 12.564L7.275 12.614L7.147 12.65L7.092 12.676L7.051 12.702L7.019 12.728L6.995 12.753L6.971 12.779L6.953 12.806L6.945 12.83L6.939 12.853L6.927 12.874L6.905 12.891L6.86 12.9L6.791 12.894L6.714 12.884L6.642 12.878L6.589 12.882L6.557 12.894L6.532 12.907L6.512 12.922L6.495 12.941L6.477 12.965L6.463 13.003L6.451 13.048L6.445 13.092L6.442 13.127L6.44 13.143L6.44 13.146L6.44 13.147L6.44 13.148L6.44 13.15L6.44 13.151L6.466 13.153L6.524 13.153L6.593 13.153L6.65 13.153L6.674 13.151L6.673 13.151L6.671 13.151L6.669 13.15L6.666 13.15L6.665 13.151L6.661 13.249L6.657 13.477L6.65 13.756L6.644 13.994L6.637 14.111L6.631 14.132L6.626 14.147L6.62 14.16L6.61 14.172L6.599 14.185L6.583 14.196L6.564 14.205L6.544 14.211L6.524 14.223L6.506 14.24L6.493 14.278L6.485 14.33L6.48 14.384L6.479 14.428L6.477 14.445L6.495 14.445L6.535 14.442L6.586 14.442L6.629 14.446L6.655 14.455L6.661 14.468L6.665 14.483L6.661 14.499L6.655 14.515L6.645 14.529L6.628 14.538L6.599 14.539L6.567 14.541L6.535 14.548L6.506 14.567L6.482 14.615L6.464 14.692L6.451 14.778L6.447 14.859L6.45 14.91L6.459 14.938L6.471 14.955L6.485 14.97L6.501 14.984L6.525 15.003L6.56 15.028L6.605 15.054L6.653 15.082L6.692 15.105L6.711 15.125L6.713 15.137L6.71 15.148L6.703 15.159L6.697 15.172L6.692 15.189L6.689 15.279L6.687 15.461L6.685 15.67L6.684 15.843L6.682 15.916L6.673 15.914L6.647 15.913L6.612 15.913L6.575 15.92L6.543 15.935L6.517 15.957L6.495 15.987L6.476 16.021L6.461 16.06L6.45 16.102L6.443 16.143L6.442 16.184L6.447 16.225L6.455 16.263L6.469 16.297L6.488 16.327L6.512 16.35L6.536 16.37L6.56 16.385L6.58 16.399L6.599 16.411L6.617 16.422L6.631 16.429L6.642 16.434L6.645 16.437L6.649 16.532L6.655 16.757L6.663 17.027L6.671 17.254L6.674 17.349L6.668 17.35L6.653 17.353L6.631 17.359L6.607 17.367L6.58 17.376L6.551 17.388L6.519 17.4L6.485 17.417L6.456 17.439L6.432 17.469L6.418 17.513L6.415 17.565L6.419 17.621L6.429 17.675L6.44 17.721L6.453 17.757L6.466 17.786L6.48 17.809L6.5 17.83L6.525 17.852L6.559 17.87L6.601 17.882L6.641 17.891L6.671 17.896L6.682 17.896"/>
 <path stroke-width="0.25" stroke-linejoin="round" stroke-miterlimit="10" d="M6.681 17.949L6.685 18.157L6.689 18.373L6.692 18.568L6.695 18.713L6.694 18.774L6.692 18.78L6.69 18.786L6.689 18.791L6.686 18.795L6.681 18.8L6.663 18.804L6.631 18.811L6.591 18.82L6.551 18.832L6.524 18.852L6.508 18.876L6.5 18.9L6.498 18.928L6.498 18.96L6.498 18.995L6.496 19.035L6.495 19.076L6.498 19.115L6.506 19.155L6.524 19.192L6.549 19.222L6.581 19.248L6.618 19.268L6.655 19.283L6.694 19.297L6.735 19.306L6.777 19.309L6.814 19.31L6.841 19.309L6.851 19.309L6.849 19.309L6.847 19.309L6.844 19.307L6.841 19.307L6.838 19.309L6.839 19.333L6.841 19.393L6.846 19.472L6.846 19.553L6.838 19.623L6.823 19.676L6.807 19.722L6.788 19.762L6.769 19.798L6.746 19.832L6.726 19.864L6.708 19.89L6.689 19.913L6.669 19.931L6.642 19.951L6.605 19.964L6.567 19.972L6.528 19.978L6.495 19.981L6.471 19.989L6.458 19.998L6.45 20.007L6.443 20.015L6.439 20.025L6.432 20.042L6.426 20.08L6.421 20.149L6.416 20.227L6.416 20.297L6.419 20.343L6.424 20.364L6.429 20.381L6.434 20.393L6.443 20.405L6.458 20.422L6.488 20.442L6.535 20.466L6.586 20.489L6.626 20.506L6.642 20.513L6.641 20.513L6.637 20.513L6.634 20.512L6.631 20.512L6.628 20.513L6.628 20.586L6.633 20.76L6.637 20.968L6.642 21.146L6.642 21.233L6.641 21.248L6.639 21.259L6.639 21.266L6.636 21.275L6.628 21.285L6.617 21.294L6.599 21.3L6.58 21.306L6.559 21.314L6.536 21.324L6.516 21.335L6.496 21.344L6.477 21.353L6.461 21.368L6.445 21.39L6.434 21.417L6.429 21.449L6.429 21.486L6.429 21.527L6.432 21.573L6.434 21.621L6.437 21.673L6.443 21.721L6.453 21.763L6.471 21.795L6.496 21.812L6.525 21.821L6.554 21.826L6.581 21.827L6.602 21.833L6.618 21.841L6.629 21.847L6.639 21.852L6.647 21.859L6.655 21.873L6.66 21.899L6.66 21.94L6.658 21.983L6.657 22.016L6.655 22.03L6.655 22.028L6.655 22.025L6.655 22.021L6.655 22.018L6.655 22.016L6.645 22.047L6.623 22.117L6.597 22.202L6.575 22.274L6.562 22.309"/>
 <path stroke-width="0.25" stroke-linejoin="round" stroke-miterlimit="10" d="M6.669 23.989L6.687 23.993L6.703 23.995L6.718 23.998L6.732 24.004L6.748 24.015L6.759 24.039L6.767 24.074L6.775 24.117L6.785 24.164L6.799 24.211L6.815 24.257L6.828 24.297L6.844 24.336L6.873 24.378L6.918 24.42L7.041 24.481L7.267 24.559L7.546 24.646L7.835 24.731L8.082 24.8L8.271 24.853L8.425 24.894L8.561 24.928L8.699 24.957L8.853 24.984L8.996 25.004L9.109 25.018L9.217 25.024L9.35 25.03L9.534 25.036L9.859 25.039L10.394 25.036L11.018 25.032L11.614 25.024L12.06 25.016L12.24 25.01L12.246 25.003L12.249 24.993L12.247 24.984L12.249 24.977L12.255 24.971L12.266 24.969L12.288 24.975L12.313 24.983L12.342 24.99L12.371 24.996L12.403 24.996L12.432 24.993L12.461 24.989L12.49 24.989L12.516 24.996L12.539 25.013L12.56 25.036L12.577 25.06L12.589 25.079L12.6 25.091"/>
 <path stroke-width="0.25" stroke-linejoin="round" stroke-miterlimit="10" d="M12.541 24.989L12.592 24.987L12.644 24.986L12.691 24.984L12.727 24.983L12.75 24.977L12.759 24.971L12.765 24.964L12.769 24.958L12.772 24.949L12.775 24.937L12.781 24.913L12.787 24.87L12.792 24.821L12.798 24.774L12.801 24.742L12.804 24.722L12.807 24.708L12.811 24.698L12.813 24.684L12.814 24.663L12.817 24.478L12.823 24.071L12.827 23.579L12.833 23.146L12.84 22.911L12.848 22.835L12.853 22.78L12.861 22.736L12.868 22.69L12.881 22.635L12.897 22.568L12.916 22.5L12.933 22.437L12.948 22.388L12.96 22.364"/>
 <path stroke-width="0.25" stroke-linejoin="round" stroke-miterlimit="10" d="M21.714 20.336L21.698 20.292L21.686 20.257L21.673 20.221L21.655 20.178L21.629 20.121L21.588 20.039L21.532 19.923L21.455 19.786L21.362 19.632L21.251 19.469L21.12 19.301L20.972 19.132L20.817 18.964L20.658 18.809L20.504 18.67L20.37 18.559L20.256 18.474L20.149 18.403L20.039 18.341L19.911 18.275L19.771 18.213L19.637 18.164L19.51 18.123L19.397 18.092L19.301 18.07L19.231 18.053L19.179 18.044L19.135 18.038L19.082 18.033L19.01 18.027L18.888 18.018L18.722 18.012L18.556 18.006L18.426 18.001L18.291 17.986"/>
 <path stroke-width="0.25" stroke-linejoin="round" stroke-miterlimit="10" d="M18.291 17.492C18.291 17.492 23.489 17.492 22.294 17.492"/>
 <line stroke-width="0.25" x1="3.064" y1="27.751" x2="74.132" y2="27.751"/>
 <line stroke-width="0.25" x1="8.442" y1="12.38" x2="8.798" y2="12.324"/>
 <line stroke-width="0.25" x1="9.864" y1="12.162" x2="15.843" y2="11.246"/>
 <line stroke-width="0.25" x1="9.98" y1="8.414" x2="9.839" y2="12.124"/>
 <line stroke-width="0.25" x1="67.694" y1="19.948" x2="61.738" y2="19.948"/>
 <line stroke-width="0.25" x1="58.517" y1="19.948" x2="51.594" y2="19.948"/>
 <line stroke-width="0.25" x1="48.118" y1="19.948" x2="27.338" y2="19.948"/>
 <line stroke-width="0.25" x1="24.501" y1="19.948" x2="21.714" y2="19.948"/>
 <line stroke-width="0.25" x1="67.694" y1="19.948" x2="67.694" y2="21.809"/>
 <line stroke-width="0.25" x1="67.694" y1="21.809" x2="63.731" y2="21.809"/>
 <line stroke-width="0.25" x1="56.524" y1="21.809" x2="53.488" y2="21.809"/>
 <line stroke-width="0.25" x1="46.223" y1="21.809" x2="22.242" y2="21.809"/>
 <line stroke-width="0.25" x1="22.468" y1="17.504" x2="23.489" y2="17.504"/>
 <line stroke-width="0.25" x1="18.291" y1="17.492" x2="18.291" y2="17.986"/>
 <line stroke-width="0.25" x1="8.931" y1="7.02" x2="8.798" y2="12.365"/>
 <path stroke-width="0.13" stroke-linejoin="round" stroke-miterlimit="10" stroke-dasharray="0.5 0.5" d="M23.074 3.57L22.974 3.432L22.885 3.303L22.801 3.182L22.711 3.067L22.606 2.953L22.49 2.85L22.379 2.762L22.274 2.689L22.172 2.629L22.077 2.578L22.001 2.541L21.945 2.52L21.893 2.504L21.827 2.491L21.733 2.471L21.495 2.431L21.056 2.366L20.475 2.289L19.817 2.212L19.138 2.145L18.579 2.103L18.016 2.068L17.46 2.043L16.923 2.024L16.411 2.012L15.939 2.004L15.397 2.004L14.884 2.013L14.452 2.027L14.151 2.041L14.035 2.052L14.028 2.063L14.029 2.072L14.032 2.084L14.034 2.095L14.028 2.105L14.012 2.117L13.984 2.129L13.945 2.14L13.899 2.149L13.846 2.157L13.779 2.158L13.698 2.153L13.612 2.145L13.528 2.137L13.458 2.133L13.407 2.134L13.371 2.136L13.339 2.137L13.301 2.141L13.243 2.146L13.031 2.169L12.612 2.214L12.099 2.274L11.612 2.341L11.262 2.4L11.055 2.447L10.9 2.484L10.769 2.524L10.641 2.577L10.49 2.657L10.32 2.764L10.157 2.887L10.14 2.903"/>
 <path stroke-width="0.13" stroke-linejoin="round" stroke-miterlimit="10" d="M10.14 2.903L10.01 3.015L9.885 3.136L9.789 3.241L9.717 3.335L9.657 3.43L9.612 3.512L9.573 3.642L9.57 3.592"/>
 <path stroke-width="0.13" stroke-linejoin="round" stroke-miterlimit="10" stroke-dasharray="0.5 0.5" d="M9.035 5.187L8.891 5.673L8.759 6.089L8.634 6.496L8.507 6.945L8.367 7.496L8.234 8.092L8.095 8.785L7.963 9.484L7.921 9.714"/>
 <path stroke-width="0.13" stroke-linejoin="round" stroke-miterlimit="10" d="M7.921 9.714L7.852 10.098L7.775 10.532L7.745 10.699"/>
 <path stroke-width="0.13" stroke-linejoin="round" stroke-miterlimit="10" stroke-dasharray="0.5 0.5" d="M16.533 10.205L16.696 9.31L16.87 8.365L17.036 7.459L17.176 6.685L17.274 6.128L17.307 5.883L17.3 5.819L17.291 5.772L17.277 5.734L17.26 5.7L17.242 5.663L17.222 5.626L17.204 5.594L17.184 5.569L17.161 5.546L17.132 5.527L17.102 5.514L17.074 5.509L17.044 5.511L17.006 5.511L16.955 5.508L16.641 5.474L15.897 5.394L14.893 5.285L13.8 5.168L12.789 5.062L12.035 4.985L11.705 4.956L11.631 4.958L11.573 4.961L11.528 4.969L11.489 4.98L11.451 5.001L11.419 5.022L11.397 5.044L11.381 5.07L11.367 5.104L11.346 5.15L11.291 5.371L11.195 5.823L11.163 5.974"/>
 <path stroke-width="0.13" stroke-linejoin="round" stroke-miterlimit="10" d="M11.163 5.974L11.086 6.346L10.997 6.777L10.967 6.955"/>
 <path stroke-width="0.13" stroke-linejoin="round" stroke-miterlimit="10" stroke-dasharray="0.5 0.5" d="M12.494 20.946L12.58 20.751L12.647 20.579L12.715 20.416L12.798 20.239L12.91 20.03L13.051 19.798L13.205 19.565L13.368 19.338L13.535 19.121L13.702 18.923L13.85 18.757L13.978 18.621L14.099 18.509L14.224 18.405L14.371 18.301L14.524 18.204L14.664 18.129L14.801 18.068L14.938 18.015L15.08 17.968L15.214 17.926L15.323 17.899L15.426 17.879L15.539 17.865L15.679 17.853L15.827 17.843L15.962 17.841L16.106 17.844L16.271 17.853L16.477 17.865L16.742 17.885L17.053 17.914L17.379 17.949L17.689 17.986L17.952 18.021L18.15 18.045L18.303 18.062L18.434 18.079L18.571 18.108L18.736 18.157L18.92 18.219L19.092 18.289L19.257 18.37L19.42 18.466L19.579 18.582L19.719 18.702L19.826 18.815L19.917 18.936L20.013 19.074L20.132 19.245L20.266 19.435L20.399 19.634L20.53 19.844L20.658 20.071L20.783 20.324L20.888 20.588"/>
 <path stroke-width="0.13" stroke-linejoin="round" stroke-miterlimit="10" d="M20.888 20.588L20.902 20.621L21.012 20.943L21.1 21.237L21.163 21.454L21.19 21.542"/>
 <path stroke-width="0.25" stroke-linejoin="round" stroke-miterlimit="10" d="M7.477 10.903L7.166 10.869"/>
 <path stroke-width="0.13" stroke-linejoin="round" stroke-miterlimit="10" stroke-dasharray="0.5 0.5" d="M23.074 3.57L23.272 3.874L23.477 4.176L23.661 4.453L23.804 4.682L23.884 4.833L23.911 4.924L23.925 4.992L23.926 5.049L23.925 5.113L23.928 5.195L23.928 5.299L23.92 5.41L23.911 5.522L23.911 5.626L23.928 5.718L23.963 5.794L24.009 5.857L24.056 5.908L24.096 5.95L24.12 5.985L24.129 6.011L24.134 6.03L24.135 6.046L24.135 6.067L24.135 6.097L24.132 6.318L24.12 6.87L24.1 7.669L24.068 8.635L24.027 9.689L23.975 10.747L23.914 11.753L23.832 12.922L23.739 14.137L23.649 15.282L23.571 16.233"/>
 <path stroke-width="0.13" stroke-linejoin="round" stroke-miterlimit="10" d="M23.571 16.233L23.571 16.242L23.515 16.905L23.481 17.228"/>
 <path stroke-width="0.13" stroke-linejoin="round" stroke-miterlimit="10" stroke-dasharray="0.5 0.5" d="M21.437 19.824L21.484 19.974L21.524 20.106L21.565 20.231L21.603 20.364L21.641 20.515L21.678 20.67L21.708 20.812L21.734 20.949L21.757 21.083L21.777 21.225L21.795 21.35L21.807 21.445L21.815 21.535L21.821 21.644L21.823 21.8L21.812 22.111L21.78 22.652L21.739 23.295L21.722 23.562"/>
 <path stroke-width="0.13" stroke-linejoin="round" stroke-miterlimit="10" d="M21.722 23.562L21.699 23.914L21.67 24.379L21.663 24.561"/>
 <path stroke-width="0.13" stroke-linejoin="round" stroke-miterlimit="10" stroke-dasharray="0.5 0.5" d="M21.184 21.544L21.217 21.653L21.251 21.742L21.28 21.83L21.306 21.94L21.327 22.089L21.323 22.454L21.288 23.067L21.257 23.495"/>
 <path stroke-width="0.13" stroke-linejoin="round" stroke-miterlimit="10" d="M21.257 23.495L21.239 23.736L21.198 24.277L21.175 24.492"/>
 <path stroke-width="0.13" stroke-linejoin="round" stroke-miterlimit="10" stroke-dasharray="0.5 0.5" d="M6.153 20.266L6.081 20.251L6.009 20.233L5.944 20.216L5.887 20.207L5.844 20.213L5.812 20.227L5.793 20.242L5.778 20.263L5.764 20.292L5.746 20.329L5.718 20.42L5.679 20.582L5.641 20.774L5.612 20.957L5.602 21.094"/>
 <path stroke-width="0.13" stroke-linejoin="round" stroke-miterlimit="10" d="M5.602 21.094L5.602 21.094L5.612 21.184L5.631 21.26L5.653 21.323L5.676 21.376L5.695 21.42L5.711 21.455L5.722 21.483L5.735 21.504L5.748 21.527L5.766 21.553L5.782 21.582L5.796 21.606L5.811 21.631L5.83 21.658L5.857 21.69L5.903 21.739L5.966 21.8L6.033 21.861L6.084 21.908L6.107 21.923"/>
 <path stroke-width="0.13" stroke-linejoin="round" stroke-miterlimit="10" d="M21.189 24.501L21.666 24.576"/>
 <path stroke-width="0.13" stroke-linejoin="round" stroke-miterlimit="10" stroke-dasharray="0.5 0.5" d="M9.573 3.642L9.423 3.631L9.278 3.617L9.143 3.607L9.025 3.597L8.936 3.591L8.871 3.585L8.818 3.581L8.775 3.577L8.737 3.576L8.698 3.58L8.662 3.584L8.634 3.586L8.609 3.593L8.583 3.605L8.551 3.628L8.493 3.69L8.403 3.806L8.301 3.952L8.202 4.11L8.125 4.253L8.07 4.386L8.028 4.512L8 4.626L7.98 4.719L7.971 4.782L7.964 4.823L7.961 4.854L7.961 4.879L7.964 4.903L7.969 4.929L7.976 4.958L7.984 4.98L7.993 5.001L8.006 5.019L8.022 5.035L8.037 5.044L8.051 5.049L8.067 5.052L8.086 5.054L8.111 5.057L8.361 5.088L8.912 5.149L9.105 5.171"/>
 <path stroke-width="0.13" stroke-linejoin="round" stroke-miterlimit="10" d="M9.105 5.171L9.56 5.221L10.099 5.28L10.099 5.28"/>
 <path stroke-width="0.13" stroke-linejoin="round" stroke-miterlimit="10" stroke-dasharray="0.5 0.5" d="M9.053 10.558L8.73 10.589L8.401 10.618L8.102 10.644L7.868 10.669L7.738 10.692L7.681 10.714L7.637 10.734L7.602 10.756L7.575 10.779L7.549 10.803L7.528 10.827L7.517 10.85L7.509 10.872L7.496 10.891L7.472 10.907L7.426 10.91L7.359 10.897L7.283 10.881L7.211 10.867L7.158 10.865L7.125 10.874L7.099 10.882L7.078 10.896L7.059 10.913L7.038 10.936L7.019 10.971L7.004 11.015L6.993 11.058L6.987 11.092L6.984 11.108L6.982 11.111L6.982 11.112L6.982 11.115L6.982 11.115L6.982 11.118L7.008 11.121L7.065 11.128L7.134 11.134L7.19 11.14L7.214 11.141L7.214 11.141L7.211 11.141L7.209 11.141L7.206 11.141L7.205 11.141L7.192 11.237L7.163 11.464L7.128 11.74L7.097 11.977L7.078 12.092L7.07 12.112L7.062 12.128L7.054 12.138L7.046 12.15L7.033 12.162L7.014 12.172L6.995 12.176L6.974 12.182L6.953 12.191L6.934 12.208L6.918 12.243L6.903 12.294L6.894 12.348L6.887 12.391L6.884 12.407L6.902 12.409L6.942 12.412L6.992 12.416L7.035 12.425L7.059 12.435L7.065 12.449L7.065 12.464L7.062 12.48L7.054 12.496L7.043 12.509L7.024 12.516L6.996 12.513L6.964 12.512L6.929 12.515L6.9 12.531L6.871 12.577L6.846 12.651L6.823 12.737L6.81 12.814L6.809 12.868L6.814 12.896L6.823 12.914L6.836 12.931L6.852 12.946L6.873 12.968L6.905 12.996L6.948 13.028L6.993 13.058L7.027 13.086L7.044 13.108L7.046 13.121L7.041 13.131L7.035 13.141L7.027 13.153L7.019 13.17L7.008 13.259L6.985 13.439L6.961 13.647L6.942 13.82L6.935 13.891L6.924 13.89L6.9 13.885L6.865 13.882L6.828 13.884L6.794 13.896L6.766 13.914L6.74 13.942L6.718 13.974L6.698 14.012L6.684 14.053L6.673 14.093L6.668 14.134L6.666 14.175L6.671 14.212L6.682 14.249L6.698 14.281L6.719 14.307L6.742 14.329L6.764 14.346L6.783 14.362L6.799 14.375L6.815 14.387L6.83 14.397L6.839 14.403L6.844 14.406L6.836 14.5L6.82 14.725L6.799 14.996L6.786 15.173"/>
 <path stroke-width="0.13" stroke-linejoin="round" stroke-miterlimit="10" d="M6.786 15.173L6.783 15.221L6.775 15.316L6.769 15.317L6.754 15.317L6.732 15.321L6.706 15.326L6.681 15.333L6.65 15.342L6.617 15.35L6.581 15.364L6.549 15.382L6.522 15.41L6.504 15.451L6.496 15.503L6.495 15.56L6.498 15.615L6.506 15.662L6.514 15.698L6.524 15.728L6.535 15.753L6.552 15.776L6.575 15.8L6.607 15.821L6.647 15.839L6.686 15.852L6.716 15.859L6.727 15.862"/>
 <path stroke-width="0.13" stroke-linejoin="round" stroke-miterlimit="10" stroke-dasharray="0.5 0.5" d="M6.721 15.913L6.703 16.12L6.684 16.336L6.666 16.532L6.653 16.675L6.647 16.734L6.644 16.742L6.642 16.748L6.641 16.751L6.637 16.754L6.631 16.76L6.613 16.763L6.58 16.765L6.54 16.769L6.5 16.778L6.469 16.795L6.451 16.817L6.44 16.841L6.435 16.868L6.432 16.899L6.429 16.936L6.423 16.974L6.418 17.015L6.416 17.054L6.421 17.094L6.434 17.132L6.456 17.167L6.485 17.195L6.519 17.217L6.556 17.237L6.591 17.254L6.631 17.268L6.673 17.277L6.71 17.282L6.737 17.283L6.746 17.285L6.746 17.283L6.743 17.283L6.74 17.282L6.737 17.282L6.734 17.283L6.732 17.307L6.73 17.367L6.724 17.445L6.716 17.527L6.702 17.594L6.682 17.646L6.66 17.69L6.639 17.728L6.613 17.76L6.589 17.794L6.564 17.824L6.544 17.847L6.524 17.867L6.501 17.884L6.471 17.899L6.434 17.911L6.394 17.914L6.355 17.914L6.322 17.916L6.299 17.92L6.285 17.928L6.275 17.936L6.267 17.943L6.262 17.954L6.254 17.969L6.243 18.007L6.23 18.074L6.219 18.152L6.211 18.222L6.209 18.266L6.213 18.289L6.214 18.306L6.219 18.318L6.227 18.332L6.24 18.349L6.269 18.373L6.312 18.402L6.36 18.428L6.397 18.451L6.413 18.46L6.411 18.46L6.41 18.458L6.407 18.457L6.403 18.457L6.4 18.457L6.392 18.53L6.378 18.704L6.362 18.911L6.346 19.089L6.338 19.175L6.336 19.19L6.333 19.201L6.331 19.208L6.328 19.216L6.32 19.225L6.307 19.234L6.29 19.237L6.269 19.242L6.246 19.246L6.224 19.254L6.203 19.263L6.182 19.269L6.163 19.278L6.144 19.291L6.126 19.31L6.113 19.336L6.105 19.368L6.099 19.405"/>
 <path stroke-width="0.13" stroke-linejoin="round" stroke-miterlimit="10" d="M6.099 19.405L6.099 19.405L6.097 19.446L6.094 19.49L6.091 19.539L6.089 19.591L6.089 19.64L6.096 19.684L6.11 19.716L6.133 19.736L6.16 19.748L6.19 19.756L6.216 19.76L6.237 19.768L6.251 19.777L6.262 19.783L6.27 19.791L6.278 19.8L6.285 19.814L6.286 19.841L6.283 19.881L6.277 19.923L6.27 19.955L6.267 19.969L6.267 19.968L6.269 19.964L6.269 19.96L6.269 19.957L6.269 19.957L6.256 19.984L6.227 20.053L6.192 20.135L6.163 20.202L6.147 20.237"/>
 <path stroke-width="0.13" stroke-linejoin="round" stroke-miterlimit="10" stroke-dasharray="0.5 0.5" d="M6.076 21.92L6.094 21.925L6.11 21.928L6.125 21.932L6.139 21.94L6.152 21.954L6.161 21.978L6.166 22.013L6.168 22.057L6.174 22.106L6.184 22.155L6.195 22.201L6.203 22.242L6.216 22.283L6.238 22.327L6.278 22.375L6.395 22.446L6.612 22.548L6.881 22.664L7.158 22.778L7.397 22.873L7.578 22.946L7.729 23.004L7.862 23.051L7.995 23.094L8.146 23.137L8.285 23.172L8.397 23.196L8.503 23.216L8.634 23.234L8.817 23.26L9.14 23.297L9.672 23.35L10.292 23.411L10.885 23.466L10.952 23.471"/>
 <path stroke-width="0.13" stroke-linejoin="round" stroke-miterlimit="10" d="M10.952 23.471L11.332 23.504L11.512 23.516L11.519 23.51L11.521 23.501L11.522 23.492L11.524 23.484L11.529 23.478L11.541 23.48L11.561 23.486L11.586 23.498L11.614 23.509L11.644 23.518L11.673 23.521L11.704 23.521L11.734 23.519L11.762 23.522L11.787 23.533L11.808 23.551L11.827 23.576L11.839 23.602L11.849 23.623L11.861 23.635"/>
 <path stroke-width="0.13" stroke-linejoin="round" stroke-miterlimit="10" stroke-dasharray="0.5 0.5" d="M11.811 23.528L11.862 23.532L11.914 23.536L11.961 23.539L11.999 23.541L12.021 23.538L12.031 23.532L12.038 23.527L12.041 23.521L12.045 23.513L12.051 23.501L12.058 23.477L12.07 23.434L12.08 23.387L12.089 23.341L12.098 23.309L12.102 23.289L12.106 23.277L12.111 23.265L12.115 23.253L12.118 23.231L12.141 23.048L12.189 22.643L12.244 22.155L12.272 21.925"/>
 <path stroke-width="0.13" stroke-linejoin="round" stroke-miterlimit="10" d="M12.272 21.925L12.297 21.725L12.327 21.492L12.343 21.417L12.355 21.362L12.365 21.32L12.378 21.277L12.396 21.222L12.419 21.157L12.445 21.091L12.47 21.03L12.489 20.983L12.503 20.96"/>
 <path stroke-width="0.13" stroke-linejoin="round" stroke-miterlimit="10" stroke-dasharray="0.5 0.5" d="M21.422 19.859L21.41 19.814L21.402 19.777L21.391 19.739L21.379 19.696L21.359 19.637L21.327 19.55L21.283 19.429L21.222 19.283L21.146 19.121L21.051 18.949L20.939 18.768L20.809 18.582L20.672 18.4L20.53 18.23L20.393 18.076L20.269 17.951L20.166 17.853L20.068 17.774L19.963 17.699L19.844 17.621L19.711 17.545L19.582 17.481L19.461 17.428L19.353 17.385L19.26 17.353L19.243 17.347"/>
 <path stroke-width="0.13" stroke-linejoin="round" stroke-miterlimit="10" d="M19.243 17.347L19.19 17.329L19.14 17.314L19.097 17.303L19.045 17.294L18.974 17.28L18.853 17.259L18.69 17.234L18.524 17.211L18.396 17.193L18.263 17.164"/>
 <path stroke-width="0.13" stroke-linejoin="round" stroke-miterlimit="10" stroke-dasharray="0.5 0.5" d="M18.315 16.672C18.315 16.672 20.071 16.856 21.301 16.986"/>
 <path stroke-width="0.13" stroke-linejoin="round" stroke-miterlimit="10" d="M21.301 16.986C21.728 17.03 22.089 17.068 22.295 17.091"/>
 <line stroke-width="0.25" x1="9.053" y1="10.558" x2="9.414" y2="10.541"/>
 <line stroke-width="0.13" stroke-dasharray="0.5 0.5" x1="10.49" y1="10.49" x2="15.535" y2="10.253"/>
 <line stroke-width="0.13" x1="15.535" y1="10.253" x2="16.533" y2="10.205"/>
 <line stroke-width="0.13" stroke-dasharray="0.5 0.5" x1="10.997" y1="6.777" x2="10.612" y2="9.461"/>
 <line stroke-width="0.13" x1="10.612" y1="9.461" x2="10.471" y2="10.449"/>
 <line stroke-width="0.13" stroke-dasharray="0.5 0.5" x1="22.466" y1="17.121" x2="22.487" y2="17.123"/>
 <line stroke-width="0.13" x1="22.487" y1="17.123" x2="23.481" y2="17.228"/>
 <line stroke-width="0.13" x1="18.315" y1="16.672" x2="18.263" y2="17.164"/>
 <line stroke-width="0.13" stroke-dasharray="0.5 0.5" x1="10.099" y1="5.28" x2="9.538" y2="9.59"/>
 <line stroke-width="0.13" x1="9.538" y1="9.59" x2="9.41" y2="10.583"/>
 <path stroke-width="0.13" stroke-linejoin="round" stroke-miterlimit="10" stroke-dasharray="0.5 0.5" d="M20.375 2.365L20.245 2.254L20.129 2.152L20.018 2.055L19.902 1.964L19.771 1.879L19.635 1.806L19.506 1.748L19.385 1.702L19.271 1.669L19.167 1.643L19.085 1.627L19.024 1.619L18.971 1.617L18.905 1.619L18.807 1.623L18.568 1.64L18.126 1.684L17.545 1.75L16.885 1.834L16.213 1.934L15.659 2.028L15.105 2.131L14.558 2.24L14.032 2.351L13.534 2.463L13.073 2.57L12.548 2.702L12.053 2.835L11.637 2.952L11.349 3.039L11.237 3.079L11.234 3.089L11.237 3.1L11.243 3.108L11.246 3.12L11.243 3.132L11.231 3.145L11.207 3.165L11.172 3.185L11.128 3.205L11.079 3.225L11.016 3.242L10.936 3.258L10.849 3.27L10.766 3.283L10.696 3.298L10.647 3.31L10.612 3.319L10.583 3.33L10.545 3.343L10.492 3.362L10.291 3.435L9.896 3.581L9.413 3.762L8.955 3.944L8.631 4.086L8.442 4.182L8.3 4.256L8.183 4.325L8.073 4.408L7.944 4.522L7.804 4.668L7.677 4.825L7.663 4.846"/>
 <path stroke-width="0.13" stroke-linejoin="round" stroke-miterlimit="10" d="M7.663 4.846L7.565 4.985L7.474 5.134L7.405 5.258L7.357 5.368L7.323 5.474L7.299 5.564L7.293 5.7L7.278 5.652"/>
 <path stroke-width="0.13" stroke-linejoin="round" stroke-miterlimit="10" stroke-dasharray="0.5 0.5" d="M7.144 7.328L7.121 7.836L7.096 8.272L7.073 8.695L7.057 9.163L7.054 9.731L7.07 10.342L7.102 11.048L7.144 11.759L7.158 11.993"/>
 <path stroke-width="0.13" stroke-linejoin="round" stroke-miterlimit="10" d="M7.158 11.993L7.184 12.381L7.214 12.82L7.227 12.99"/>
 <path stroke-width="0.13" stroke-linejoin="round" stroke-miterlimit="10" stroke-dasharray="0.5 0.5" d="M15.634 10.384L15.574 9.477L15.515 8.518L15.458 7.599L15.407 6.812L15.365 6.25L15.339 6.003L15.317 5.942L15.297 5.899L15.275 5.865L15.25 5.836L15.221 5.806L15.195 5.775L15.169 5.748L15.144 5.727L15.115 5.711L15.083 5.7L15.05 5.695L15.022 5.698L14.993 5.705L14.957 5.716L14.907 5.724L14.595 5.767L13.852 5.87L12.852 6.008L11.762 6.158L10.756 6.299L10.006 6.408L9.679 6.459L9.608 6.48L9.553 6.498L9.509 6.514L9.474 6.535L9.444 6.564L9.419 6.594L9.403 6.62L9.394 6.647L9.387 6.685L9.378 6.734L9.378 6.963L9.394 7.424L9.4 7.578"/>
 <path stroke-width="0.13" stroke-linejoin="round" stroke-miterlimit="10" d="M9.4 7.578L9.414 7.958L9.433 8.397L9.446 8.577"/>
 <path stroke-width="0.13" stroke-linejoin="round" stroke-miterlimit="10" stroke-dasharray="0.5 0.5" d="M14.314 21.783L14.349 21.573L14.374 21.39L14.4 21.214L14.436 21.024L14.496 20.794L14.577 20.535L14.669 20.271L14.772 20.01L14.882 19.76L14.996 19.528L15.099 19.33L15.192 19.17L15.281 19.03L15.378 18.899L15.494 18.763L15.619 18.632L15.737 18.524L15.855 18.432L15.974 18.35L16.103 18.268L16.222 18.196L16.321 18.141L16.417 18.099L16.522 18.057L16.655 18.012L16.795 17.966L16.928 17.931L17.067 17.9L17.23 17.868L17.432 17.83L17.693 17.786L18.003 17.739L18.327 17.695L18.638 17.655L18.902 17.625L19.1 17.6L19.251 17.579L19.384 17.565L19.522 17.559L19.696 17.567L19.888 17.583L20.073 17.609L20.253 17.647L20.432 17.701L20.617 17.775L20.78 17.859L20.911 17.943L21.03 18.036L21.157 18.147L21.312 18.285L21.489 18.437L21.667 18.597L21.844 18.769L22.022 18.96L22.204 19.175L22.371 19.405"/>
 <path stroke-width="0.13" stroke-linejoin="round" stroke-miterlimit="10" d="M22.371 19.405L22.393 19.434L22.576 19.721L22.734 19.984L22.847 20.179L22.894 20.257"/>
 <path stroke-width="0.25" stroke-linejoin="round" stroke-miterlimit="10" d="M7.016 13.252L6.705 13.295"/>
 <path stroke-width="0.13" stroke-linejoin="round" stroke-miterlimit="10" stroke-dasharray="0.5 0.5" d="M20.375 2.365L20.641 2.61L20.911 2.855L21.158 3.08L21.353 3.266L21.466 3.395L21.515 3.476L21.544 3.538L21.561 3.593L21.574 3.655L21.597 3.734L21.621 3.835L21.64 3.944L21.66 4.054L21.686 4.155L21.724 4.242L21.775 4.307L21.835 4.357L21.893 4.394L21.943 4.426L21.974 4.455L21.989 4.477L21.998 4.493L22.003 4.509L22.007 4.53L22.016 4.559L22.068 4.775L22.189 5.312L22.361 6.094L22.565 7.038L22.78 8.07L22.986 9.111L23.17 10.102L23.373 11.255L23.576 12.455L23.766 13.589L23.922 14.529"/>
 <path stroke-width="0.13" stroke-linejoin="round" stroke-miterlimit="10" d="M23.922 14.529L23.923 14.541L24.03 15.195L24.076 15.518"/>
 <path stroke-width="0.13" stroke-linejoin="round" stroke-miterlimit="10" stroke-dasharray="0.5 0.5" d="M22.719 18.532L22.8 18.666L22.873 18.783L22.94 18.896L23.01 19.016L23.085 19.152L23.158 19.295L23.222 19.425L23.28 19.55L23.335 19.675L23.388 19.809L23.435 19.925L23.471 20.013L23.5 20.1L23.532 20.204L23.571 20.355L23.635 20.66L23.736 21.193L23.853 21.826L23.9 22.089"/>
 <path stroke-width="0.13" stroke-linejoin="round" stroke-miterlimit="10" d="M23.9 22.089L23.963 22.435L24.047 22.894L24.083 23.073"/>
 <path stroke-width="0.13" stroke-linejoin="round" stroke-miterlimit="10" stroke-dasharray="0.5 0.5" d="M22.89 20.26L22.949 20.359L23.001 20.437L23.053 20.516L23.103 20.615L23.161 20.757L23.245 21.111L23.358 21.713L23.432 22.138"/>
 <path stroke-width="0.13" stroke-linejoin="round" stroke-miterlimit="10" d="M23.432 22.138L23.474 22.376L23.564 22.91L23.594 23.125"/>
 <path stroke-width="0.13" stroke-linejoin="round" stroke-miterlimit="10" stroke-dasharray="0.5 0.5" d="M7.996 22.658L7.923 22.661L7.849 22.66L7.78 22.66L7.724 22.666L7.682 22.681L7.657 22.701L7.641 22.722L7.631 22.746L7.625 22.777L7.617 22.818L7.612 22.913L7.612 23.079L7.621 23.274L7.639 23.46L7.663 23.594"/>
 <path stroke-width="0.13" stroke-linejoin="round" stroke-miterlimit="10" d="M7.663 23.594L7.663 23.594L7.694 23.681L7.73 23.748L7.767 23.804L7.801 23.85L7.83 23.888L7.855 23.92L7.873 23.942L7.891 23.96L7.908 23.978L7.932 24.001L7.955 24.024L7.974 24.045L7.993 24.065L8.019 24.085L8.053 24.111L8.108 24.146L8.186 24.192L8.266 24.234L8.326 24.268L8.352 24.277"/>
 <path stroke-width="0.13" stroke-linejoin="round" stroke-miterlimit="10" d="M23.609 23.131L24.091 23.086"/>
 <path stroke-width="0.13" stroke-linejoin="round" stroke-miterlimit="10" stroke-dasharray="0.5 0.5" d="M7.293 5.7L7.145 5.724L7.001 5.748L6.867 5.769L6.751 5.788L6.663 5.804L6.597 5.814L6.546 5.823L6.503 5.83L6.466 5.839L6.427 5.852L6.394 5.863L6.368 5.873L6.346 5.886L6.323 5.903L6.298 5.934L6.256 6.008L6.198 6.142L6.134 6.309L6.075 6.485L6.035 6.644L6.014 6.785L6.004 6.918L6.003 7.035L6.008 7.129L6.012 7.193L6.017 7.235L6.022 7.266L6.027 7.291L6.036 7.314L6.048 7.338L6.06 7.362L6.075 7.384L6.089 7.402L6.105 7.416L6.123 7.426L6.142 7.432L6.157 7.434L6.171 7.432L6.19 7.431L6.216 7.427L6.466 7.395L7.016 7.323L7.208 7.296"/>
 <path stroke-width="0.13" stroke-linejoin="round" stroke-miterlimit="10" d="M7.208 7.296L7.661 7.235L8.199 7.163L8.199 7.163"/>
 <path stroke-width="0.13" stroke-linejoin="round" stroke-miterlimit="10" stroke-dasharray="0.5 0.5" d="M8.461 12.537L8.156 12.644L7.843 12.752L7.559 12.85L7.339 12.931L7.217 12.984L7.166 13.019L7.129 13.051L7.102 13.08L7.081 13.108L7.06 13.137L7.048 13.166L7.043 13.192L7.038 13.215L7.032 13.237L7.011 13.257L6.968 13.272L6.899 13.276L6.82 13.278L6.748 13.282L6.698 13.292L6.666 13.308L6.644 13.324L6.626 13.343L6.612 13.364L6.599 13.391L6.589 13.429L6.583 13.475L6.583 13.521L6.586 13.556L6.586 13.57L6.586 13.573L6.586 13.576L6.586 13.577L6.586 13.579L6.588 13.58L6.612 13.577L6.671 13.57L6.737 13.56L6.794 13.551L6.819 13.548L6.817 13.548L6.815 13.548L6.814 13.548L6.811 13.548L6.809 13.55L6.82 13.646L6.846 13.874L6.878 14.148L6.905 14.387L6.915 14.503L6.913 14.525L6.91 14.541L6.905 14.554L6.899 14.567L6.889 14.582L6.873 14.596L6.855 14.605L6.836 14.615L6.819 14.628L6.804 14.65L6.796 14.688L6.796 14.74L6.799 14.795L6.802 14.839L6.804 14.855L6.822 14.852L6.862 14.846L6.91 14.839L6.955 14.836L6.98 14.84L6.99 14.852L6.995 14.868L6.995 14.884L6.99 14.9L6.982 14.916L6.966 14.926L6.937 14.932L6.905 14.938L6.875 14.948L6.849 14.971L6.833 15.022L6.825 15.102L6.825 15.189L6.83 15.269L6.841 15.32L6.855 15.346L6.868 15.362L6.884 15.375L6.903 15.387L6.929 15.403L6.966 15.422L7.016 15.442L7.067 15.461L7.107 15.48L7.129 15.496L7.134 15.509L7.133 15.519L7.128 15.531L7.123 15.544L7.121 15.564L7.129 15.653L7.152 15.833L7.179 16.041L7.203 16.211L7.213 16.283L7.201 16.283L7.176 16.286L7.142 16.292L7.107 16.303L7.076 16.321L7.054 16.347L7.035 16.379L7.022 16.417L7.012 16.457L7.008 16.5L7.008 16.542L7.011 16.583L7.02 16.623L7.035 16.658L7.054 16.69L7.076 16.718L7.102 16.739L7.131 16.754L7.155 16.766L7.177 16.777L7.198 16.786L7.216 16.794L7.232 16.8L7.243 16.803L7.248 16.804L7.264 16.897L7.302 17.12L7.347 17.388L7.378 17.564"/>
 <path stroke-width="0.13" stroke-linejoin="round" stroke-miterlimit="10" d="M7.378 17.564L7.387 17.611L7.403 17.704L7.397 17.705L7.383 17.71L7.362 17.719L7.339 17.731L7.314 17.745L7.288 17.76L7.256 17.777L7.225 17.797L7.198 17.824L7.179 17.858L7.173 17.902L7.176 17.954L7.189 18.009L7.206 18.06L7.224 18.105L7.24 18.138L7.258 18.166L7.275 18.187L7.298 18.205L7.325 18.222L7.362 18.236L7.405 18.242L7.445 18.245L7.476 18.246L7.487 18.245"/>
 <path stroke-width="0.13" stroke-linejoin="round" stroke-miterlimit="10" stroke-dasharray="0.5 0.5" d="M7.493 18.297L7.525 18.503L7.56 18.716L7.591 18.91L7.612 19.051L7.621 19.111L7.621 19.12L7.62 19.126L7.618 19.129L7.615 19.134L7.612 19.14L7.594 19.147L7.562 19.158L7.525 19.172L7.488 19.19L7.463 19.213L7.45 19.239L7.447 19.265L7.448 19.292L7.453 19.324L7.458 19.359L7.461 19.399L7.466 19.439L7.474 19.478L7.487 19.515L7.511 19.55L7.541 19.577L7.575 19.597L7.613 19.611L7.653 19.621L7.694 19.629L7.735 19.634L7.777 19.632L7.814 19.628L7.841 19.623L7.851 19.62L7.849 19.62L7.846 19.62L7.844 19.62L7.841 19.62L7.838 19.623L7.841 19.646L7.854 19.704L7.868 19.783L7.879 19.864L7.881 19.934L7.876 19.989L7.865 20.036L7.852 20.077L7.836 20.115L7.82 20.153L7.804 20.187L7.791 20.216L7.775 20.24L7.758 20.263L7.732 20.285L7.7 20.303L7.661 20.318L7.623 20.327L7.591 20.336L7.57 20.347L7.557 20.358L7.551 20.367L7.546 20.376L7.541 20.388L7.538 20.405L7.538 20.445L7.541 20.512L7.549 20.589L7.557 20.66L7.567 20.704L7.575 20.725L7.581 20.74L7.589 20.753L7.601 20.763L7.617 20.777L7.65 20.792L7.7 20.809L7.753 20.826L7.794 20.836L7.811 20.841L7.81 20.841L7.807 20.841L7.804 20.841L7.801 20.841L7.799 20.844L7.809 20.916L7.836 21.086L7.871 21.292L7.899 21.469L7.911 21.553L7.913 21.568L7.913 21.579L7.913 21.588L7.91 21.597L7.905 21.608L7.894 21.618L7.879 21.628L7.86 21.637L7.841 21.646L7.82 21.66L7.801 21.673L7.783 21.684L7.766 21.698L7.751 21.713L7.738 21.736L7.732 21.765L7.732 21.798L7.735 21.835"/>
 <path stroke-width="0.13" stroke-linejoin="round" stroke-miterlimit="10" d="M7.735 21.835L7.735 21.835L7.743 21.876L7.751 21.92L7.761 21.969L7.77 22.018L7.783 22.065L7.799 22.106L7.822 22.135L7.849 22.149L7.878 22.155L7.908 22.153L7.935 22.152L7.956 22.155L7.972 22.16L7.985 22.164L7.995 22.167L8.005 22.175L8.013 22.187L8.022 22.213L8.028 22.251L8.032 22.295L8.035 22.329L8.035 22.341L8.035 22.341L8.035 22.338L8.035 22.333L8.035 22.33L8.034 22.329L8.028 22.359L8.016 22.432L8.003 22.521L7.99 22.594L7.982 22.632"/>
 <path stroke-width="0.13" stroke-linejoin="round" stroke-miterlimit="10" stroke-dasharray="0.5 0.5" d="M8.321 24.28L8.339 24.282L8.355 24.282L8.371 24.282L8.387 24.286L8.403 24.295L8.419 24.317L8.432 24.35L8.445 24.391L8.461 24.437L8.483 24.483L8.505 24.524L8.522 24.564L8.544 24.6L8.577 24.637L8.628 24.673L8.759 24.714L8.993 24.762L9.282 24.809L9.58 24.852L9.833 24.887L10.028 24.914L10.186 24.932L10.327 24.948L10.468 24.957L10.624 24.96L10.769 24.961L10.881 24.958L10.99 24.951L11.121 24.937L11.304 24.917L11.628 24.876L12.157 24.8L12.774 24.707L13.362 24.617L13.428 24.606"/>
 <path stroke-width="0.13" stroke-linejoin="round" stroke-miterlimit="10" d="M13.428 24.606L13.804 24.547L13.981 24.515L13.987 24.507L13.987 24.498L13.986 24.489L13.986 24.481L13.99 24.475L14.003 24.472L14.022 24.475L14.05 24.478L14.08 24.483L14.109 24.484L14.14 24.481L14.169 24.472L14.198 24.464L14.226 24.46L14.253 24.463L14.278 24.478L14.301 24.498L14.32 24.518L14.336 24.536L14.349 24.547"/>
 <path stroke-width="0.13" stroke-linejoin="round" stroke-miterlimit="10" stroke-dasharray="0.5 0.5" d="M14.275 24.454L14.326 24.445L14.377 24.437L14.423 24.428L14.461 24.42L14.48 24.413L14.49 24.405L14.494 24.397L14.496 24.39L14.499 24.382L14.502 24.37L14.503 24.344L14.503 24.301L14.502 24.251L14.5 24.205L14.5 24.172L14.5 24.152L14.502 24.138L14.503 24.128L14.503 24.114L14.502 24.092L14.48 23.908L14.426 23.504L14.364 23.018L14.335 22.788"/>
 <path stroke-width="0.13" stroke-linejoin="round" stroke-miterlimit="10" d="M14.335 22.788L14.31 22.588L14.284 22.353L14.279 22.277L14.278 22.222L14.278 22.176L14.281 22.132L14.285 22.076L14.291 22.007L14.301 21.936L14.31 21.871L14.317 21.821L14.326 21.795"/>
 <path stroke-width="0.13" stroke-linejoin="round" stroke-miterlimit="10" stroke-dasharray="0.5 0.5" d="M22.713 18.57L22.69 18.527L22.673 18.493L22.655 18.46L22.632 18.42L22.597 18.368L22.547 18.292L22.474 18.185L22.381 18.059L22.266 17.92L22.132 17.774L21.98 17.628L21.811 17.478L21.632 17.335L21.454 17.204L21.283 17.088L21.134 16.996L21.009 16.928L20.893 16.873L20.775 16.826L20.64 16.78L20.493 16.736L20.353 16.707L20.222 16.684L20.106 16.67L20.007 16.66L19.992 16.658"/>
 <path stroke-width="0.13" stroke-linejoin="round" stroke-miterlimit="10" d="M19.992 16.658L19.936 16.653L19.884 16.652L19.838 16.652L19.786 16.655L19.713 16.658L19.591 16.667L19.426 16.684L19.26 16.701L19.132 16.714L18.995 16.718"/>
 <path stroke-width="0.13" stroke-linejoin="round" stroke-miterlimit="10" stroke-dasharray="0.5 0.5" d="M18.926 16.228C18.926 16.228 20.676 15.983 21.902 15.81"/>
 <path stroke-width="0.13" stroke-linejoin="round" stroke-miterlimit="10" d="M21.902 15.81C22.324 15.75 22.686 15.699 22.89 15.672"/>
 <line stroke-width="0.25" x1="8.461" y1="12.537" x2="8.807" y2="12.432"/>
 <line stroke-width="0.13" stroke-dasharray="0.5 0.5" x1="9.839" y1="12.124" x2="14.676" y2="10.672"/>
 <line stroke-width="0.13" x1="14.676" y1="10.672" x2="15.634" y2="10.384"/>
 <line stroke-width="0.25" stroke-dasharray="0.5 0.5" x1="9.433" y1="8.397" x2="9.708" y2="11.093"/>
 <line stroke-width="0.25" x1="9.708" y1="11.093" x2="9.811" y2="12.089"/>
 <line stroke-width="0.13" stroke-dasharray="0.5 0.5" x1="23.065" y1="15.66" x2="23.085" y2="15.657"/>
 <line stroke-width="0.13" x1="23.085" y1="15.657" x2="24.076" y2="15.518"/>
 <line stroke-width="0.13" x1="18.926" y1="16.228" x2="18.995" y2="16.718"/>
 <line stroke-width="0.13" stroke-dasharray="0.5 0.5" x1="8.199" y1="7.163" x2="8.698" y2="11.48"/>
 <line stroke-width="0.13" x1="8.698" y1="11.48" x2="8.813" y2="12.474"/>
 <g>
  <path stroke-width="0.13" d="M25.785 20.105C26.254 19.591 26.504 18.707 26.489 17.789C26.469 16.789 26.135 15.922 25.652 15.461"/>
 </g>
 <line stroke-width="0.13" x1="24.766" y1="14.486" x2="25.492" y2="16.254"/>
 <line stroke-width="0.13" x1="24.766" y1="14.486" x2="26.49" y2="15.416"/>
 <line stroke-width="0.13" x1="26.49" y1="15.416" x2="25.65" y2="15.461"/>
 <line stroke-width="0.13" x1="25.65" y1="15.461" x2="25.492" y2="16.254"/>
 <g>
  <path stroke="none" fill="#000000" d="M24.766 14.486L25.492 16.254 25.65 15.461 26.49 15.416"/>
 </g>
 <line stroke-width="0.13" x1="24.867" y1="21.088" x2="25.593" y2="19.32"/>
 <line stroke-width="0.13" x1="24.867" y1="21.088" x2="26.591" y2="20.158"/>
 <line stroke-width="0.13" x1="26.591" y1="20.158" x2="25.751" y2="20.114"/>
 <line stroke-width="0.13" x1="25.751" y1="20.114" x2="25.593" y2="19.32"/>
 <g>
  <path stroke="none" fill="#000000" d="M24.867 21.088L25.593 19.32 25.751 20.114 26.591 20.158"/>
 </g>
 <polygon stroke-width="0.25" points="21.98 17.628 22.905 17.628 22.905 19.306 21.98 19.306 21.98 17.628"/>
 <line stroke-width="0.25" x1="22.204" y1="19.175" x2="22.204" y2="19.894"/>
 <line stroke-width="0.25" x1="22.678" y1="19.329" x2="22.678" y2="19.984"/>
 <path stroke-width="0.13" stroke-dasharray="0.5 0.5" d="M22.678 19.329C28.163 17.914 52.212 17.422 66.704 19.78"/>
 <path stroke-width="0.13" d="M66.704 19.78C67.039 19.833 67.367 19.89 67.691 19.948"/>
 <path stroke-width="0.13" stroke-dasharray="0.5 0.5" d="M22.19 20.248C28.135 22.754 56.406 23.751 66.7 20.57"/>
 <path stroke-width="0.13" d="M66.7 20.57C67.034 20.466 67.349 20.359 67.643 20.248"/>
 <path stroke-width="0.13" stroke-dasharray="0.5 0.5" d="M22.983 21.062C28.468 19.646 52.517 19.155 67.01 21.513"/>
 <path stroke-width="0.13" d="M67.01 21.513C67.343 21.567 67.673 21.623 67.995 21.681"/>
 <path stroke-width="0.13" stroke-dasharray="0.5 0.5" d="M22.242 21.809C28.187 24.317 56.459 25.314 66.753 22.132"/>
 <path stroke-width="0.13" d="M66.753 22.132C67.087 22.028 67.4 21.922 67.694 21.809"/>
 <text transform="matrix(0 -1 1 0 73.128 25.971)" stroke="none" fill="#000000" font-family="'Helvetica'" font-size="2.117">321 874</text>
</svg>
