<?xml version="1.0" encoding="utf-8"?>
<!DOCTYPE svg PUBLIC "-//W3C//DTD SVG 1.1//EN" "http://www.w3.org/Graphics/SVG/1.1/DTD/svg11.dtd">
<!-- Generator: PTC Arbortext IsoDraw 7.3 M070 -->
<svg id="Standard_x0020_layer" width="100%" height="100%" viewBox="0 0 133.471 29.013"
 xmlns="http://www.w3.org/2000/svg" xmlns:xlink="http://www.w3.org/1999/xlink"
 fill-rule="evenodd" clip-rule="evenodd" stroke="#000000" stroke-linecap="round" fill="none" xml:space="preserve">
 <line stroke-width="0.13" x1="0.203" y1="11.903" x2="29.586" y2="11.903"/>
 <line stroke-width="0.13" x1="97.825" y1="11.798" x2="125.418" y2="11.798"/>
 <line stroke-width="0.3" x1="0.512" y1="6.447" x2="28.207" y2="6.447"/>
 <line stroke-width="0.3" x1="97.825" y1="6.341" x2="125.831" y2="6.341"/>
 <line stroke-width="0.3" x1="0.409" y1="16.949" x2="28.826" y2="16.949"/>
 <line stroke-width="0.3" x1="97.147" y1="16.972" x2="126.1" y2="16.972"/>
 <path stroke-width="0.13" d="M0.512 6.447C2.879 8.814 0.615 10.977 0.203 11.903C-0.208 12.83 0.409 13.345 0.615 14.066C0.821 14.787 0.409 16.949 0.409 16.949"/>
 <path stroke-width="0.13" d="M28.207 6.447C27.486 7.682 26.766 8.403 28.001 9.742C29.237 11.08 30.164 10.977 29.237 12.83C28.31 14.683 27.899 15.919 28.826 16.949"/>
 <path stroke-width="0.13" d="M97.825 6.341C99.781 9.326 98.135 9.224 97.825 11.798C97.516 14.371 99.266 14.063 98.751 15.092C98.236 16.123 97.192 16.843 97.192 16.843"/>
 <path stroke-width="0.13" d="M125.829 6.341C124.286 9.635 124.388 9.945 125.418 11.798C126.447 13.651 127.272 14.371 126.138 16.843"/>
 <line stroke-width="0.3" x1="7.799" y1="5.419" x2="15.846" y2="5.419"/>
 <line stroke-width="0.3" x1="8.798" y1="6.447" x2="8.798" y2="5.419"/>
 <line stroke-width="0.3" x1="7.799" y1="5.419" x2="7.799" y2="1.022"/>
 <line stroke-width="0.3" x1="15.096" y1="0.172" x2="10.148" y2="0.172"/>
 <path stroke-width="0.3" d="M10.148 0.172C9.048 0.022 7.799 0.672 7.799 1.022"/>
 <path stroke-width="0.13" d="M8.708 0.352C9.649 0.472 11.098 1.022 11.147 1.221"/>
 <path stroke-width="0.13" d="M11.147 1.221C12.247 0.672 13.446 0.122 15.096 0.172"/>
 <line stroke-width="0.3" x1="7.25" y1="16.949" x2="7.25" y2="22.911"/>
 <line stroke-width="0.13" x1="11.448" y1="17.315" x2="11.448" y2="22.661"/>
 <path stroke-width="0.3" d="M7.25 22.911C8.15 23.961 9.499 23.911 10.848 23.812"/>
 <line stroke-width="0.3" x1="10.848" y1="23.812" x2="15.096" y2="23.812"/>
 <path stroke-width="0.13" d="M11.448 22.661C11.448 23.262 10.712 23.618 9.256 23.839"/>
 <path stroke-width="0.13" d="M11.448 22.661C12.497 23.812 14.246 23.861 15.096 23.812"/>
 <line stroke-width="0.3" x1="10.368" y1="23.603" x2="10.368" y2="27.66"/>
 <line stroke-width="0.3" x1="10.368" y1="27.66" x2="12.147" y2="28.759"/>
 <line stroke-width="0.3" x1="12.147" y1="28.759" x2="14.996" y2="28.759"/>
 <line stroke-width="0.13" x1="11.848" y1="23.812" x2="11.848" y2="28.528"/>
 <line stroke-width="0.13" x1="10.368" y1="27.66" x2="15.195" y2="27.66"/>
 <line stroke-width="0.3" x1="22.292" y1="5.419" x2="14.246" y2="5.419"/>
 <line stroke-width="0.3" x1="21.294" y1="6.447" x2="21.294" y2="5.419"/>
 <line stroke-width="0.3" x1="22.292" y1="5.419" x2="22.292" y2="1.022"/>
 <line stroke-width="0.3" x1="14.996" y1="0.172" x2="19.943" y2="0.172"/>
 <path stroke-width="0.3" d="M19.943 0.172C21.044 0.022 22.292 0.672 22.292 1.022"/>
 <path stroke-width="0.13" d="M21.385 0.352C20.443 0.472 18.995 1.022 18.945 1.221"/>
 <path stroke-width="0.13" d="M18.945 1.221C17.844 0.672 16.646 0.122 14.996 0.172"/>
 <line stroke-width="0.3" x1="22.843" y1="16.949" x2="22.843" y2="22.911"/>
 <line stroke-width="0.13" x1="18.644" y1="17.315" x2="18.644" y2="22.661"/>
 <path stroke-width="0.3" d="M22.843 22.911C21.943 23.961 20.594 23.911 19.245 23.812"/>
 <line stroke-width="0.3" x1="19.245" y1="23.812" x2="14.996" y2="23.812"/>
 <path stroke-width="0.13" d="M18.644 22.661C18.644 23.262 19.379 23.618 20.836 23.839"/>
 <path stroke-width="0.13" d="M18.644 22.661C17.594 23.812 15.846 23.861 14.996 23.812"/>
 <line stroke-width="0.3" x1="19.725" y1="23.603" x2="19.725" y2="27.66"/>
 <line stroke-width="0.3" x1="19.725" y1="27.66" x2="17.945" y2="28.759"/>
 <line stroke-width="0.3" x1="17.945" y1="28.759" x2="15.096" y2="28.759"/>
 <line stroke-width="0.13" x1="18.245" y1="23.812" x2="18.245" y2="28.528"/>
 <line stroke-width="0.13" x1="19.725" y1="27.66" x2="14.897" y2="27.66"/>
 <line stroke-width="0.3" x1="104.21" y1="16.964" x2="104.21" y2="22.928"/>
 <line stroke-width="0.13" x1="108.409" y1="17.329" x2="108.409" y2="22.678"/>
 <path stroke-width="0.3" d="M104.21 22.928C105.109 23.978 106.459 23.928 107.808 23.827"/>
 <line stroke-width="0.3" x1="107.808" y1="23.827" x2="112.057" y2="23.827"/>
 <path stroke-width="0.13" d="M108.409 22.678C108.409 23.277 107.674 23.635 106.216 23.856"/>
 <path stroke-width="0.13" d="M108.409 22.678C109.459 23.827 111.207 23.878 112.057 23.827"/>
 <line stroke-width="0.3" x1="107.328" y1="23.618" x2="107.328" y2="27.675"/>
 <line stroke-width="0.3" x1="107.328" y1="27.675" x2="109.108" y2="28.774"/>
 <line stroke-width="0.3" x1="109.108" y1="28.774" x2="111.956" y2="28.774"/>
 <line stroke-width="0.13" x1="108.808" y1="23.827" x2="108.808" y2="28.545"/>
 <line stroke-width="0.13" x1="107.328" y1="27.675" x2="112.156" y2="27.675"/>
 <line stroke-width="0.3" x1="119.804" y1="16.964" x2="119.804" y2="22.928"/>
 <line stroke-width="0.13" x1="115.605" y1="17.329" x2="115.605" y2="22.678"/>
 <path stroke-width="0.3" d="M119.804 22.928C118.903 23.978 117.555 23.928 116.206 23.827"/>
 <line stroke-width="0.3" x1="116.206" y1="23.827" x2="111.956" y2="23.827"/>
 <path stroke-width="0.13" d="M115.605 22.678C115.605 23.277 116.34 23.635 117.798 23.856"/>
 <path stroke-width="0.13" d="M115.605 22.678C114.555 23.827 112.807 23.878 111.956 23.827"/>
 <line stroke-width="0.3" x1="116.686" y1="23.618" x2="116.686" y2="27.675"/>
 <line stroke-width="0.3" x1="116.686" y1="27.675" x2="114.906" y2="28.774"/>
 <line stroke-width="0.3" x1="114.906" y1="28.774" x2="112.057" y2="28.774"/>
 <line stroke-width="0.13" x1="115.206" y1="23.827" x2="115.206" y2="28.545"/>
 <line stroke-width="0.13" x1="116.686" y1="27.675" x2="111.856" y2="27.675"/>
 <line stroke-width="0.3" x1="106.496" y1="6.341" x2="106.496" y2="1.532"/>
 <path stroke-width="0.3" d="M106.496 1.532C107.037 0.903 108.173 0.554 108.748 0.572"/>
 <line stroke-width="0.3" x1="108.748" y1="0.572" x2="112.188" y2="0.572"/>
 <line stroke-width="0.13" stroke-dasharray="0.5 0.5" x1="108.748" y1="0.572" x2="108.748" y2="2.602"/>
 <line stroke-width="0.13" x1="108.748" y1="2.602" x2="108.748" y2="3.103"/>
 <line stroke-width="0.13" stroke-dasharray="0.5 0.5" x1="108.748" y1="3.103" x2="111.635" y2="3.879"/>
 <line stroke-width="0.13" x1="111.635" y1="3.879" x2="112.117" y2="4.009"/>
 <line stroke-width="0.13" stroke-dasharray="0.5 0.5" x1="108.748" y1="3.103" x2="111.635" y2="3.103"/>
 <line stroke-width="0.13" x1="111.635" y1="3.103" x2="112.135" y2="3.103"/>
 <line stroke-width="0.13" stroke-dasharray="0.5 0.5" x1="110.581" y1="0.572" x2="110.581" y2="2.602"/>
 <line stroke-width="0.13" x1="110.581" y1="2.602" x2="110.581" y2="3.103"/>
 <line stroke-width="0.13" stroke-dasharray="0.5 0.5" x1="111.209" y1="0.572" x2="111.209" y2="2.602"/>
 <line stroke-width="0.13" x1="111.209" y1="2.602" x2="111.209" y2="3.103"/>
 <line stroke-width="0.3" x1="117.739" y1="6.341" x2="117.739" y2="1.532"/>
 <path stroke-width="0.3" d="M117.739 1.532C117.197 0.903 116.063 0.554 115.486 0.572"/>
 <line stroke-width="0.3" x1="115.486" y1="0.572" x2="112.048" y2="0.572"/>
 <line stroke-width="0.13" stroke-dasharray="0.5 0.5" x1="115.486" y1="0.572" x2="115.486" y2="2.602"/>
 <line stroke-width="0.13" x1="115.486" y1="2.602" x2="115.486" y2="3.103"/>
 <line stroke-width="0.13" stroke-dasharray="0.5 0.5" x1="115.486" y1="3.103" x2="112.6" y2="3.879"/>
 <line stroke-width="0.13" x1="112.6" y1="3.879" x2="112.117" y2="4.009"/>
 <line stroke-width="0.13" stroke-dasharray="0.5 0.5" x1="115.486" y1="3.103" x2="112.599" y2="3.103"/>
 <line stroke-width="0.13" x1="112.599" y1="3.103" x2="112.099" y2="3.103"/>
 <line stroke-width="0.13" stroke-dasharray="0.5 0.5" x1="113.653" y1="0.572" x2="113.653" y2="2.602"/>
 <line stroke-width="0.13" x1="113.653" y1="2.602" x2="113.653" y2="3.103"/>
 <line stroke-width="0.13" stroke-dasharray="0.5 0.5" x1="113.025" y1="0.572" x2="113.025" y2="2.602"/>
 <line stroke-width="0.13" x1="113.025" y1="2.602" x2="113.025" y2="3.103"/>
 <line stroke-width="0.13" x1="11.147" y1="1.221" x2="11.147" y2="5.419"/>
 <line stroke-width="0.13" x1="18.945" y1="1.221" x2="18.945" y2="5.419"/>
 <line stroke-width="0.13" x1="52.34" y1="11.887" x2="79.933" y2="11.887"/>
 <line stroke-width="0.3" x1="52.34" y1="6.429" x2="80.344" y2="6.429"/>
 <line stroke-width="0.3" x1="51.661" y1="17.06" x2="80.615" y2="17.06"/>
 <path stroke-width="0.13" d="M52.34 6.429C54.296 9.416 52.649 9.313 52.34 11.887C52.031 14.461 53.781 14.151 53.267 15.18C52.752 16.21 51.707 16.931 51.707 16.931"/>
 <path stroke-width="0.13" d="M80.344 6.429C78.801 9.724 78.903 10.032 79.933 11.887C80.962 13.74 81.787 14.461 80.653 16.931"/>
 <line stroke-width="0.3" x1="58.725" y1="17.053" x2="58.725" y2="23.015"/>
 <line stroke-width="0.13" x1="62.923" y1="17.419" x2="62.923" y2="22.765"/>
 <path stroke-width="0.3" d="M58.725 23.015C59.625 24.065 60.975 24.015 62.323 23.916"/>
 <line stroke-width="0.3" x1="62.323" y1="23.916" x2="66.572" y2="23.916"/>
 <path stroke-width="0.13" d="M62.923 22.765C62.923 23.365 62.189 23.722 60.731 23.945"/>
 <path stroke-width="0.13" d="M62.923 22.765C63.972 23.916 65.722 23.966 66.572 23.916"/>
 <line stroke-width="0.3" x1="61.843" y1="23.707" x2="61.843" y2="27.763"/>
 <line stroke-width="0.3" x1="61.843" y1="27.763" x2="63.622" y2="28.864"/>
 <line stroke-width="0.3" x1="63.622" y1="28.864" x2="66.471" y2="28.864"/>
 <line stroke-width="0.13" x1="63.323" y1="23.916" x2="63.323" y2="28.632"/>
 <line stroke-width="0.13" x1="61.843" y1="27.763" x2="66.671" y2="27.763"/>
 <line stroke-width="0.3" x1="74.319" y1="17.053" x2="74.319" y2="23.015"/>
 <line stroke-width="0.13" x1="70.12" y1="17.419" x2="70.12" y2="22.765"/>
 <path stroke-width="0.3" d="M74.319 23.015C73.418 24.065 72.069 24.015 70.719 23.916"/>
 <line stroke-width="0.3" x1="70.719" y1="23.916" x2="66.471" y2="23.916"/>
 <path stroke-width="0.13" d="M70.12 22.765C70.12 23.365 70.855 23.722 72.311 23.945"/>
 <path stroke-width="0.13" d="M70.12 22.765C69.07 23.916 67.322 23.966 66.471 23.916"/>
 <line stroke-width="0.3" x1="71.2" y1="23.707" x2="71.2" y2="27.763"/>
 <line stroke-width="0.3" x1="71.2" y1="27.763" x2="69.421" y2="28.864"/>
 <line stroke-width="0.3" x1="69.421" y1="28.864" x2="66.572" y2="28.864"/>
 <line stroke-width="0.13" x1="69.721" y1="23.916" x2="69.721" y2="28.632"/>
 <line stroke-width="0.13" x1="71.2" y1="27.763" x2="66.371" y2="27.763"/>
 <line stroke-width="0.3" x1="61.012" y1="6.429" x2="61.012" y2="1.62"/>
 <path stroke-width="0.3" d="M61.012 1.62C61.552 0.992 62.688 0.643 63.264 0.66"/>
 <line stroke-width="0.3" x1="63.264" y1="0.66" x2="66.701" y2="0.66"/>
 <line stroke-width="0.13" stroke-dasharray="0.5 0.5" x1="63.264" y1="0.66" x2="63.264" y2="3.309"/>
 <line stroke-width="0.13" x1="63.264" y1="3.309" x2="63.264" y2="3.809"/>
 <line stroke-width="0.13" stroke-dasharray="0.5 0.5" x1="65.096" y1="0.66" x2="65.096" y2="3.309"/>
 <line stroke-width="0.13" x1="65.096" y1="3.309" x2="65.096" y2="3.809"/>
 <line stroke-width="0.3" x1="72.253" y1="6.429" x2="72.253" y2="1.62"/>
 <path stroke-width="0.3" d="M72.253 1.62C71.712 0.992 70.578 0.643 70.001 0.66"/>
 <line stroke-width="0.3" x1="70.001" y1="0.66" x2="66.563" y2="0.66"/>
 <line stroke-width="0.13" stroke-dasharray="0.5 0.5" x1="70.001" y1="0.66" x2="70.001" y2="3.309"/>
 <line stroke-width="0.13" x1="70.001" y1="3.309" x2="70.001" y2="3.809"/>
 <line stroke-width="0.13" stroke-dasharray="0.5 0.5" x1="68.168" y1="0.66" x2="68.168" y2="3.309"/>
 <line stroke-width="0.13" x1="68.168" y1="3.309" x2="68.168" y2="3.809"/>
 <line stroke-width="0.13" stroke-dasharray="0.5 0.5" x1="63.264" y1="3.809" x2="69.469" y2="3.809"/>
 <line stroke-width="0.13" x1="69.469" y1="3.809" x2="69.969" y2="3.809"/>
 <line stroke-width="0.13" stroke-dasharray="0.5 0.5" x1="63.264" y1="3.809" x2="66.171" y2="5.36"/>
 <line stroke-width="0.13" x1="66.171" y1="5.36" x2="66.612" y2="5.596"/>
 <line stroke-width="0.13" stroke-dasharray="0.5 0.5" x1="69.962" y1="3.809" x2="67.054" y2="5.36"/>
 <line stroke-width="0.13" x1="67.054" y1="5.36" x2="66.612" y2="5.596"/>
 <text transform="matrix(0 -1 1 0 132.765 27.533)" stroke="none" fill="#000000" font-family="'Arial'" font-size="2.117">321 514</text>
</svg>
