<?xml version="1.0" encoding="utf-8"?>
<!DOCTYPE svg PUBLIC "-//W3C//DTD SVG 1.1//EN" "http://www.w3.org/Graphics/SVG/1.1/DTD/svg11.dtd">
<!-- Generator: PTC Arbortext IsoDraw 7.3 M070 -->
<svg id="Standard_x0020_layer" width="100%" height="100%" viewBox="0 0 73.423 32.262"
 xmlns="http://www.w3.org/2000/svg" xmlns:xlink="http://www.w3.org/1999/xlink"
 fill-rule="evenodd" clip-rule="evenodd" stroke="#000000" stroke-linecap="round" fill="none" xml:space="preserve">
 <line stroke-width="0.3" x1="15.071" y1="28.527" x2="15.071" y2="2.406"/>
 <path stroke-width="0.13" d="M15.071 28.527C13.063 27.673 11.865 27.673 10.753 28.314C9.643 28.954 8.231 28.954 7.12 27.972C6.009 26.989 4.897 27.373 3.871 27.33C2.844 27.288 1.562 27.586 0.75 27.586C-0.062 27.586 0.75 27.16 0.878 26.603C1.006 26.047 1.862 24.765 1.306 23.44C0.75 22.114 -0.362 21.216 0.237 19.721C0.836 18.224 1.99 16.728 1.219 14.589C0.451 12.452 0.237 13.393 0.878 11.426C1.52 9.46 1.306 8.689 1.092 7.535C0.878 6.381 0.408 6.168 0.75 5.397C1.092 4.628 1.048 2.533 0.793 2.277C0.536 2.02 0.536 2.02 0.536 2.02C0.536 2.02 1.306 2.79 2.416 2.447C3.528 2.105 4.256 1.593 5.41 2.234C6.564 2.875 7.846 2.875 9.044 2.577C10.24 2.277 9.814 2.02 11.138 2.406C12.464 2.79 13.362 3.261 15.071 2.406"/>
 <line stroke-width="0.13" stroke-dasharray="2 2" x1="4.939" y1="15.06" x2="4.939" y2="19.105"/>
 <line stroke-width="0.13" x1="4.939" y1="19.105" x2="4.939" y2="20.105"/>
 <line stroke-width="0.13" stroke-dasharray="2 2" x1="4.939" y1="20.105" x2="4.961" y2="20.132"/>
 <line stroke-width="0.13" x1="4.961" y1="20.132" x2="5.58" y2="20.917"/>
 <line stroke-width="0.13" stroke-dasharray="2 2" x1="5.58" y1="20.917" x2="12.618" y2="20.917"/>
 <line stroke-width="0.13" x1="12.618" y1="20.917" x2="13.618" y2="20.917"/>
 <line stroke-width="0.13" stroke-dasharray="2 2" x1="5.58" y1="20.917" x2="5.58" y2="15.718"/>
 <line stroke-width="0.13" x1="5.58" y1="15.718" x2="5.58" y2="14.718"/>
 <line stroke-width="0.13" stroke-dasharray="2 2" x1="4.939" y1="20.105" x2="13.045" y2="20.105"/>
 <line stroke-width="0.13" x1="13.045" y1="20.105" x2="14.045" y2="20.105"/>
 <line stroke-width="0.13" stroke-dasharray="2 2" x1="13.618" y1="20.917" x2="13.618" y2="16.06"/>
 <line stroke-width="0.13" x1="13.618" y1="16.06" x2="13.618" y2="15.06"/>
 <line stroke-width="0.13" stroke-dasharray="2 2" x1="4.939" y1="17.839" x2="23.905" y2="17.839"/>
 <line stroke-width="0.13" x1="23.905" y1="17.839" x2="24.905" y2="17.839"/>
 <path stroke-width="0.13" stroke-dasharray="2 2" d="M13.618 20.917C13.84 20.487 14.051 20.207 14.246 20.05"/>
 <path stroke-width="0.13" d="M14.246 20.05C14.574 19.789 14.858 19.885 15.071 20.234"/>
 <line stroke-width="0.3" x1="15.071" y1="20.234" x2="15.756" y2="20.832"/>
 <line stroke-width="0.3" x1="15.756" y1="20.832" x2="15.756" y2="21.858"/>
 <line stroke-width="0.3" x1="15.756" y1="21.858" x2="17.125" y2="21.858"/>
 <line stroke-width="0.13" x1="15.756" y1="20.832" x2="15.756" y2="15.018"/>
 <path stroke-width="0.3" d="M17.125 21.858C17.259 23.227 17.466 23.26 17.466 23.26C17.466 23.26 19.957 23.382 19.939 23.382C19.922 23.382 20.44 22.673 20.457 21.704C20.475 20.736 20.457 19.353 21.028 19.231C21.6 19.111 22.394 19.283 22.637 19.507C22.879 19.733 22.62 19.439 22.879 19.733C23.138 20.027 23.606 20.891 23.606 20.891"/>
 <line stroke-width="0.3" x1="23.606" y1="20.891" x2="29.658" y2="20.891"/>
 <line stroke-width="0.3" x1="29.658" y1="20.891" x2="30.332" y2="20.216"/>
 <line stroke-width="0.3" x1="30.332" y1="20.216" x2="30.332" y2="15.185"/>
 <line stroke-width="0.13" x1="29.658" y1="20.891" x2="29.658" y2="15.288"/>
 <line stroke-width="0.13" x1="23.295" y1="20.199" x2="30.23" y2="20.199"/>
 <line stroke-width="0.13" x1="23.547" y1="20.785" x2="23.547" y2="15.08"/>
 <line stroke-width="0.13" x1="22.879" y1="19.733" x2="22.879" y2="15.08"/>
 <line stroke-width="0.13" stroke-dasharray="2 2" x1="24.972" y1="15.166" x2="24.972" y2="17.504"/>
 <line stroke-width="0.13" x1="24.972" y1="17.504" x2="24.972" y2="18.504"/>
 <line stroke-width="0.13" stroke-dasharray="2 2" x1="24.972" y1="18.504" x2="25.079" y2="18.504"/>
 <line stroke-width="0.13" x1="25.079" y1="18.504" x2="26.079" y2="18.504"/>
 <line stroke-width="0.13" stroke-dasharray="2 2" x1="26.079" y1="18.504" x2="29.356" y2="19.21"/>
 <line stroke-width="0.13" x1="29.356" y1="19.21" x2="30.332" y2="19.422"/>
 <line stroke-width="0.13" stroke-dasharray="2 2" x1="26.079" y1="18.504" x2="26.079" y2="16.219"/>
 <line stroke-width="0.13" x1="26.079" y1="16.219" x2="26.079" y2="15.218"/>
 <path stroke-width="0.13" d="M20.478 20.82C20.666 20.027 20.371 19.733 20.251 19.542C20.129 19.353 20.769 16.464 20.614 15.15"/>
 <path stroke-width="0.13" d="M17.125 21.858C17.068 21.185 17.379 19.87 17.449 19.716C17.518 19.559 17.553 19.957 17.518 19.559C17.484 19.161 17.103 16.707 17.103 15.115"/>
 <line stroke-width="0.13" stroke-dasharray="2 2" x1="4.939" y1="15.308" x2="4.939" y2="11.263"/>
 <line stroke-width="0.13" x1="4.939" y1="11.263" x2="4.939" y2="10.263"/>
 <line stroke-width="0.13" stroke-dasharray="2 2" x1="4.939" y1="10.263" x2="4.961" y2="10.237"/>
 <line stroke-width="0.13" x1="4.961" y1="10.237" x2="5.58" y2="9.451"/>
 <line stroke-width="0.13" stroke-dasharray="2 2" x1="5.58" y1="9.451" x2="12.618" y2="9.451"/>
 <line stroke-width="0.13" x1="12.618" y1="9.451" x2="13.618" y2="9.451"/>
 <line stroke-width="0.13" stroke-dasharray="2 2" x1="5.58" y1="9.451" x2="5.58" y2="14.65"/>
 <line stroke-width="0.13" x1="5.58" y1="14.65" x2="5.58" y2="15.65"/>
 <line stroke-width="0.13" stroke-dasharray="2 2" x1="4.939" y1="10.263" x2="13.045" y2="10.263"/>
 <line stroke-width="0.13" x1="13.045" y1="10.263" x2="14.045" y2="10.263"/>
 <line stroke-width="0.13" stroke-dasharray="2 2" x1="13.618" y1="9.451" x2="13.618" y2="14.308"/>
 <line stroke-width="0.13" x1="13.618" y1="14.308" x2="13.618" y2="15.308"/>
 <line stroke-width="0.13" stroke-dasharray="2 2" x1="4.939" y1="12.529" x2="23.905" y2="12.529"/>
 <line stroke-width="0.13" x1="23.905" y1="12.529" x2="24.905" y2="12.529"/>
 <path stroke-width="0.13" stroke-dasharray="2 2" d="M13.618 9.451C13.84 9.881 14.051 10.163 14.246 10.317"/>
 <path stroke-width="0.13" d="M14.246 10.317C14.574 10.58 14.858 10.484 15.071 10.135"/>
 <line stroke-width="0.3" x1="15.071" y1="10.135" x2="15.756" y2="9.537"/>
 <line stroke-width="0.3" x1="15.756" y1="9.537" x2="15.756" y2="8.51"/>
 <line stroke-width="0.3" x1="15.756" y1="8.51" x2="17.125" y2="8.51"/>
 <line stroke-width="0.13" x1="15.756" y1="9.537" x2="15.756" y2="15.352"/>
 <path stroke-width="0.3" d="M17.125 8.51C17.259 7.142 17.466 7.107 17.466 7.107C17.466 7.107 19.957 6.987 19.939 6.987C19.922 6.987 20.44 7.695 20.457 8.664C20.475 9.632 20.457 11.016 21.028 11.137C21.6 11.259 22.394 11.086 22.637 10.861C22.879 10.635 22.62 10.929 22.879 10.635C23.138 10.342 23.606 9.477 23.606 9.477"/>
 <line stroke-width="0.3" x1="23.606" y1="9.477" x2="29.658" y2="9.477"/>
 <line stroke-width="0.3" x1="29.658" y1="9.477" x2="30.332" y2="10.151"/>
 <line stroke-width="0.3" x1="30.332" y1="10.151" x2="30.332" y2="15.185"/>
 <line stroke-width="0.13" x1="29.658" y1="9.477" x2="29.658" y2="15.08"/>
 <line stroke-width="0.13" x1="23.295" y1="10.169" x2="30.23" y2="10.169"/>
 <line stroke-width="0.13" x1="23.547" y1="9.583" x2="23.547" y2="15.288"/>
 <line stroke-width="0.13" x1="22.879" y1="10.635" x2="22.879" y2="15.288"/>
 <line stroke-width="0.13" stroke-dasharray="2 2" x1="24.972" y1="15.201" x2="24.972" y2="12.864"/>
 <line stroke-width="0.13" x1="24.972" y1="12.864" x2="24.972" y2="11.864"/>
 <line stroke-width="0.13" stroke-dasharray="2 2" x1="24.972" y1="11.864" x2="25.079" y2="11.864"/>
 <line stroke-width="0.13" x1="25.079" y1="11.864" x2="26.079" y2="11.864"/>
 <line stroke-width="0.13" stroke-dasharray="2 2" x1="26.079" y1="11.864" x2="29.356" y2="11.157"/>
 <line stroke-width="0.13" x1="29.356" y1="11.157" x2="30.332" y2="10.948"/>
 <line stroke-width="0.13" stroke-dasharray="2 2" x1="26.079" y1="11.864" x2="26.079" y2="14.15"/>
 <line stroke-width="0.13" x1="26.079" y1="14.15" x2="26.079" y2="15.15"/>
 <path stroke-width="0.13" d="M20.478 9.548C20.666 10.342 20.371 10.635 20.251 10.827C20.129 11.016 20.769 13.904 20.614 15.218"/>
 <path stroke-width="0.13" d="M17.125 8.51C17.068 9.183 17.379 10.497 17.449 10.653C17.518 10.808 17.553 10.412 17.518 10.808C17.484 11.207 17.103 13.663 17.103 15.253"/>
 <line stroke-width="0.13" x1="17.518" y1="19.559" x2="20.251" y2="19.559"/>
 <line stroke-width="0.13" x1="20.236" y1="10.91" x2="17.611" y2="10.91"/>
 <line stroke-width="0.3" x1="46.009" y1="31.809" x2="46.009" y2="0.15"/>
 <line stroke-width="0.3" x1="46.009" y1="22.931" x2="46.84" y2="22.931"/>
 <line stroke-width="0.3" x1="46.84" y1="22.931" x2="46.84" y2="21.609"/>
 <line stroke-width="0.3" x1="46.84" y1="21.609" x2="50.127" y2="21.609"/>
 <path stroke-width="0.3" d="M50.127 21.609C51.033 20.777 50.92 20.853 50.957 19.719"/>
 <line stroke-width="0.3" x1="50.957" y1="19.719" x2="50.957" y2="16.016"/>
 <line stroke-width="0.13" x1="46.84" y1="21.609" x2="46.84" y2="15.865"/>
 <line stroke-width="0.13" x1="46.84" y1="19.001" x2="50.201" y2="19.001"/>
 <line stroke-width="0.13" stroke-dasharray="2 2" x1="46.009" y1="19.832" x2="45.886" y2="19.929"/>
 <line stroke-width="0.13" x1="45.886" y1="19.929" x2="45.101" y2="20.55"/>
 <line stroke-width="0.13" stroke-dasharray="2 2" x1="45.101" y1="20.55" x2="42.362" y2="20.55"/>
 <line stroke-width="0.13" x1="42.362" y1="20.55" x2="41.362" y2="20.55"/>
 <line stroke-width="0.13" stroke-dasharray="2 2" x1="41.362" y1="20.55" x2="41.314" y2="20.486"/>
 <line stroke-width="0.13" x1="41.314" y1="20.486" x2="40.719" y2="19.681"/>
 <line stroke-width="0.13" stroke-dasharray="2 2" x1="40.719" y1="19.681" x2="40.719" y2="16.942"/>
 <line stroke-width="0.13" x1="40.719" y1="16.942" x2="40.719" y2="15.942"/>
 <line stroke-width="0.13" stroke-dasharray="2 2" x1="41.362" y1="20.55" x2="41.362" y2="16.942"/>
 <line stroke-width="0.13" x1="41.362" y1="16.942" x2="41.362" y2="15.942"/>
 <line stroke-width="0.13" stroke-dasharray="2 2" x1="40.719" y1="19.681" x2="44.781" y2="19.681"/>
 <line stroke-width="0.13" x1="44.781" y1="19.681" x2="45.781" y2="19.681"/>
 <line stroke-width="0.13" stroke-dasharray="2 2" x1="45.101" y1="20.55" x2="45.101" y2="17.016"/>
 <line stroke-width="0.13" x1="45.101" y1="17.016" x2="45.101" y2="16.016"/>
 <path stroke-width="0.13" d="M50.92 20.579C50.951 19.99 50.548 19.001 50.201 19.001"/>
 <path stroke-width="0.13" d="M50.201 19.001C50.781 18.242 50.875 17.469 50.957 16.143"/>
 <line stroke-width="0.3" x1="46.009" y1="9.237" x2="46.84" y2="9.237"/>
 <line stroke-width="0.3" x1="46.84" y1="9.237" x2="46.84" y2="10.561"/>
 <line stroke-width="0.3" x1="46.84" y1="10.561" x2="50.127" y2="10.561"/>
 <path stroke-width="0.3" d="M50.127 10.561C51.033 11.391 50.92 11.316 50.957 12.449"/>
 <line stroke-width="0.3" x1="50.957" y1="12.449" x2="50.957" y2="16.152"/>
 <line stroke-width="0.13" x1="46.84" y1="10.561" x2="46.84" y2="16.303"/>
 <line stroke-width="0.13" x1="46.84" y1="13.166" x2="50.201" y2="13.166"/>
 <line stroke-width="0.13" stroke-dasharray="2 2" x1="46.009" y1="12.336" x2="45.886" y2="12.239"/>
 <line stroke-width="0.13" x1="45.886" y1="12.239" x2="45.101" y2="11.618"/>
 <line stroke-width="0.13" stroke-dasharray="2 2" x1="45.101" y1="11.618" x2="42.362" y2="11.618"/>
 <line stroke-width="0.13" x1="42.362" y1="11.618" x2="41.362" y2="11.618"/>
 <line stroke-width="0.13" stroke-dasharray="2 2" x1="41.362" y1="11.618" x2="41.314" y2="11.682"/>
 <line stroke-width="0.13" x1="41.314" y1="11.682" x2="40.719" y2="12.487"/>
 <line stroke-width="0.13" stroke-dasharray="2 2" x1="40.719" y1="12.487" x2="40.719" y2="15.227"/>
 <line stroke-width="0.13" x1="40.719" y1="15.227" x2="40.719" y2="16.228"/>
 <line stroke-width="0.13" stroke-dasharray="2 2" x1="41.362" y1="11.618" x2="41.362" y2="15.227"/>
 <line stroke-width="0.13" x1="41.362" y1="15.227" x2="41.362" y2="16.228"/>
 <line stroke-width="0.13" stroke-dasharray="2 2" x1="40.719" y1="12.487" x2="44.781" y2="12.487"/>
 <line stroke-width="0.13" x1="44.781" y1="12.487" x2="45.781" y2="12.487"/>
 <line stroke-width="0.13" stroke-dasharray="2 2" x1="45.101" y1="11.618" x2="45.101" y2="15.151"/>
 <line stroke-width="0.13" x1="45.101" y1="15.151" x2="45.101" y2="16.152"/>
 <path stroke-width="0.13" d="M50.92 11.589C50.951 12.178 50.548 13.166 50.201 13.166"/>
 <path stroke-width="0.13" d="M50.201 13.166C50.781 13.926 50.875 14.701 50.957 16.025"/>
 <path stroke-width="0.13" d="M46.009 31.809C44.457 30.553 44.036 30.553 42.353 31.132C40.668 31.71 40.405 32.079 38.932 31.236C37.46 30.396 37.46 30.343 36.354 30.922C35.25 31.501 34.566 31.448 33.935 31.448C33.304 31.448 33.304 31.448 33.304 31.448C33.304 31.448 33.777 29.711 34.46 28.817C35.145 27.923 35.198 25.765 34.777 24.818C34.356 23.871 34.356 23.135 34.618 22.082C34.881 21.03 33.935 19.716 33.671 18.768C33.408 17.821 33.777 17.926 34.566 16.611C35.356 15.295 34.146 14.664 34.566 13.034C34.987 11.403 33.987 10.772 34.302 9.35C34.618 7.931 35.408 7.456 34.881 6.246C34.356 5.036 33.829 5.036 34.25 3.827C34.671 2.617 34.671 2.722 34.408 1.827C34.146 0.934 33.881 0.302 33.881 0.302C33.881 0.302 34.566 0.513 35.618 0.776C36.67 1.038 37.932 0.513 38.88 0.25C39.826 -0.013 40.143 0.145 40.984 0.829C41.826 1.512 41.564 0.881 42.774 0.566C43.984 0.25 46.009 0.15 46.009 0.15"/>
 <path stroke-width="0.3" stroke-linejoin="round" stroke-miterlimit="1" d="M61.564 12.611L59.966 12.14L58.378 11.567"/>
 <path stroke-width="0.3" stroke-linejoin="round" stroke-miterlimit="1" d="M58.378 11.567L56.776 10.882L55.219 10.137"/>
 <path stroke-width="0.3" stroke-linejoin="round" stroke-miterlimit="1" d="M69.968 11.539L67.884 11.951L65.775 12.275"/>
 <path stroke-width="0.3" stroke-linejoin="round" stroke-miterlimit="1" d="M65.775 12.275L63.676 12.499L61.564 12.611"/>
 <path stroke-width="0.3" stroke-linejoin="round" stroke-miterlimit="1" d="M72.052 8.003L71.555 8.987L69.968 11.539"/>
 <path stroke-width="0.3" stroke-linejoin="round" stroke-miterlimit="1" d="M65.659 1.022L67.272 1.524L68.844 2.067"/>
 <path stroke-width="0.3" stroke-linejoin="round" stroke-miterlimit="1" d="M68.844 2.067L70.447 2.75L72.003 3.495"/>
 <path stroke-width="0.3" stroke-linejoin="round" stroke-miterlimit="1" d="M61.463 1.389L63.561 1.165L65.659 1.022"/>
 <path stroke-width="0.3" stroke-linejoin="round" stroke-miterlimit="1" d="M57.255 2.092L59.34 1.681L61.463 1.389"/>
 <path stroke-width="0.3" stroke-linejoin="round" stroke-miterlimit="1" d="M59.771 28.039L59.591 27.871L59.451 27.667L59.337 27.469L59.299 27.193"/>
 <path stroke-width="0.3" stroke-linejoin="round" stroke-miterlimit="1" d="M55.194 5.637L55.689 4.653L56.21 3.677"/>
 <path stroke-width="0.3" stroke-linejoin="round" stroke-miterlimit="1" d="M59.243 12.942L59.268 12.949L59.322 13.021L59.414 13.131L59.7 13.676L59.829 14.061L59.927 14.464L59.948 14.785"/>
 <path stroke-width="0.3" stroke-linejoin="round" stroke-miterlimit="1" d="M59.948 14.785L59.889 15.263L59.801 15.444L59.713 15.544L59.587 15.606"/>
 <path stroke-width="0.3" stroke-linejoin="round" stroke-miterlimit="1" d="M59.18 13.734L59.198 13.529L59.185 13.34"/>
 <path stroke-width="0.3" stroke-linejoin="round" stroke-miterlimit="1" d="M68.132 13.743L68.135 13.507L68.138 13.272"/>
 <path stroke-width="0.3" stroke-linejoin="round" stroke-miterlimit="1" d="M68.221 27.14L68.218 27.297L68.051 27.634L67.757 27.951L67.748 27.975"/>
 <path stroke-width="0.3" stroke-linejoin="round" stroke-miterlimit="1" d="M68.129 14.135L68.138 13.955L68.132 13.743"/>
 <path stroke-width="0.3" stroke-linejoin="round" stroke-miterlimit="1" d="M59.2 14.212L59.203 13.977L59.18 13.734"/>
 <path stroke-width="0.13" stroke-linejoin="round" stroke-miterlimit="1" d="M65.73 7.375L64.102 7.524L63.262 7.524L62.408 7.492L61.567 7.413L60.737 7.309L59.969 7.176L59.225 6.974L58.347 6.698"/>
 <path stroke-width="0.13" stroke-linejoin="round" stroke-miterlimit="1" d="M58.347 6.698L57.801 6.456L57.292 6.176L56.933 5.921L56.591 5.621L56.359 5.383L56.173 5.083L56.073 4.838L56.005 4.578L56 4.365L56.024 4.139L56.201 3.701L56.21 3.677"/>
 <path stroke-width="0.3" stroke-linejoin="round" stroke-miterlimit="1" d="M59.587 15.606L59.531 15.614L59.484 15.598L59.462 15.589L59.384 15.51L59.283 15.266L59.225 14.826L59.2 14.212"/>
 <path stroke-width="0.13" stroke-linejoin="round" stroke-miterlimit="1" d="M70.981 5.086L70.438 6.056L69.941 7.04"/>
 <path stroke-width="0.13" stroke-linejoin="round" stroke-miterlimit="1" d="M56.21 3.677L56.545 3.241L57.058 2.814L57.786 2.381L58.764 1.983L59.96 1.633L61.408 1.395L61.463 1.389"/>
 <path stroke-width="0.3" stroke-linejoin="round" stroke-miterlimit="1" d="M67.748 27.975L67.243 28.3L66.51 28.6L65.534 28.841L65.007 28.923"/>
 <path stroke-width="0.13" stroke-linejoin="round" stroke-miterlimit="1" d="M61.537 8.111L59.959 7.357L58.347 6.698"/>
 <path stroke-width="0.3" stroke-linejoin="round" stroke-miterlimit="1" d="M65.007 28.923L63.765 29.021L63.091 28.998L62.454 28.937L61.828 28.852L61.247 28.704L60.746 28.559L60.27 28.341L59.771 28.039"/>
 <path stroke-width="0.13" stroke-linejoin="round" stroke-miterlimit="1" d="M61.463 1.389L63.09 1.24L63.929 1.241L64.784 1.273L65.632 1.328L66.456 1.453L67.224 1.587L67.968 1.79L68.844 2.067"/>
 <path stroke-width="0.13" stroke-linejoin="round" stroke-miterlimit="1" d="M58.347 6.698L56.783 6.133L55.194 5.637"/>
 <path stroke-width="0.13" stroke-linejoin="round" stroke-miterlimit="1" d="M69.941 7.04L67.852 7.16L65.73 7.375"/>
 <path stroke-width="0.13" stroke-linejoin="round" stroke-miterlimit="1" d="M68.844 2.067L69.391 2.307L69.9 2.586L70.259 2.842L70.608 3.12L70.834 3.382L71.019 3.681L71.12 3.926L71.188 4.185L71.192 4.397L71.167 4.626L70.989 5.064L70.981 5.086"/>
 <path stroke-width="0.13" stroke-linejoin="round" stroke-miterlimit="1" d="M70.981 5.086L70.647 5.524L70.134 5.95L69.406 6.383L68.429 6.782L67.231 7.131L65.784 7.368L65.73 7.375"/>
 <path stroke-width="0.13" stroke-linejoin="round" stroke-miterlimit="1" d="M65.73 7.375L63.622 7.7L61.537 8.111"/>
 <path stroke-width="0.3" stroke-linejoin="round" stroke-miterlimit="1" d="M59.185 13.34L59.179 13.128L59.188 13.026L59.243 12.942"/>
 <path stroke-width="0.3" stroke-linejoin="round" stroke-miterlimit="1" d="M55.219 10.137L55.194 5.637"/>
 <path stroke-width="0.3" stroke-linejoin="round" stroke-miterlimit="1" d="M59.168 11.865L59.189 12.948"/>
 <path stroke-width="0.3" stroke-linejoin="round" stroke-miterlimit="1" d="M59.2 14.212L59.299 27.193"/>
 <path stroke-width="0.13" stroke-linejoin="round" stroke-miterlimit="1" d="M61.564 12.611L61.537 8.111"/>
 <path stroke-width="0.3" stroke-linejoin="round" stroke-miterlimit="1" d="M68.111 11.897L68.138 13.272"/>
 <path stroke-width="0.3" stroke-linejoin="round" stroke-miterlimit="1" d="M68.129 14.135L68.221 27.14"/>
 <path stroke-width="0.13" stroke-linejoin="round" stroke-miterlimit="1" d="M69.968 11.539L69.941 7.04"/>
 <path stroke-width="0.3" stroke-linejoin="round" stroke-miterlimit="1" d="M72.052 8.003L72.003 3.495"/>
 <line stroke-width="0.3" x1="57.255" y1="2.092" x2="56.21" y2="3.677"/>
 <line stroke-width="0.13" x1="71.167" y1="4.626" x2="72.003" y2="3.495"/>
 <text transform="matrix(0 -1 1 0 72.716 32.262)" stroke="none" fill="#000000" font-family="'Arial'" font-size="2.117">324 187</text>
</svg>
