<?xml version="1.0" encoding="utf-8"?>
<!DOCTYPE svg PUBLIC "-//W3C//DTD SVG 1.1//EN" "http://www.w3.org/Graphics/SVG/1.1/DTD/svg11.dtd">
<!-- Generator: PTC Arbortext IsoDraw 7.3 -->
<svg width="100%" height="100%" viewBox="0 0 75.016 59.826"
 xmlns="http://www.w3.org/2000/svg" xmlns:xlink="http://www.w3.org/1999/xlink"
 fill-rule="evenodd" clip-rule="evenodd" stroke="#000000" stroke-linecap="round" fill="none" xml:space="preserve">
 <g id="Standard_x0020_layer">
  <path stroke="#FFFFFF" stroke-width="0.501" stroke-linejoin="round" d="M14.26 50.906L14.26 55.857"/>
  <path stroke="#FFFFFF" stroke-width="0.501" stroke-linejoin="round" d="M23.507 50.906L23.507 55.857"/>
  <g>
   <path stroke="#231F20" stroke-width="0.131" stroke-linejoin="round" d="M15.503 54.579L22.251 54.579"/>
   <path stroke="none" fill="#231F20" d="M21.992 54.204L23.407 54.582 21.992 54.962 21.992 54.204z"/>
   <path stroke="none" fill="#231F20" d="M15.762 54.953L14.346 54.573 15.762 54.195 15.762 54.953z"/>
  </g>
  <path stroke="#231F20" stroke-width="0.131" stroke-linejoin="round" d="M14.26 50.906L14.26 55.857"/>
  <path stroke="#231F20" stroke-width="0.131" stroke-linejoin="round" d="M23.507 50.906L23.507 55.857"/>
  <g>
   <text x="17.586" y="58.567" stroke="none" fill="#000000" font-family="'Helvetica'" font-size="3.87">A</text>
  </g>
  <path stroke-width="0.35" stroke-linejoin="round" d="M29.053 25.888C29.053 19.343 32.317 13.561 37.307 10.082"/>
  <path stroke-width="0.13" stroke-linejoin="round" d="M31.207 15.545C32.656 13.153 34.594 11.092 36.881 9.494"/>
  <path stroke-width="0.35" stroke-linejoin="round" d="M28.327 25.888C28.327 22.103 29.379 18.562 31.207 15.545"/>
  <path stroke-width="0.13" stroke-linejoin="round" d="M40.59 4.036C40.59 5.108 39.72 5.977 38.648 5.977C37.576 5.977 36.706 5.108 36.706 4.036C36.706 2.964 37.576 2.095 38.648 2.095C39.72 2.095 40.59 2.964 40.59 4.036z"/>
  <path stroke-width="0.13" stroke-linejoin="round" d="M41.326 4.036C41.326 5.514 40.127 6.714 38.648 6.714C37.168 6.714 35.97 5.514 35.97 4.036C35.97 2.557 37.168 1.359 38.648 1.359C40.127 1.359 41.326 2.557 41.326 4.036z"/>
  <path stroke-width="0.13" stroke-linejoin="round" d="M35.97 4.036L35.97 9.975C35.97 9.975 35.923 10.204 35.74 10.352"/>
  <path stroke-width="0.35" stroke-linejoin="round" d="M31.24 15.49L30.811 15.199C32.036 13.198 33.593 11.425 35.408 9.955C35.408 9.955 35.536 9.81 35.536 9.535L35.536 4.036C35.536 2.318 36.929 0.924 38.648 0.924C40.366 0.924 41.759 2.318 41.759 4.036L41.759 5.578"/>
  <path stroke-width="0.13" stroke-linejoin="round" d="M41.326 5.839L41.326 4.036"/>
  <path stroke-width="0.35" stroke-linejoin="round" id="AUTOID_29" d="M67.56 25.843C67.542 19.298 64.26 13.525 59.261 10.06"/>
  <path stroke-width="0.13" stroke-linejoin="round" id="AUTOID_30" d="M65.375 15.507C63.92 13.119 61.976 11.063 59.686 9.473"/>
  <path stroke-width="0.35" stroke-linejoin="round" d="M68.25 25.888C68.25 22.103 67.197 18.562 65.37 15.545"/>
  <path stroke-width="0.35" stroke-linejoin="round" id="AUTOID_32" d="M48.283 4.618C52.735 4.605 56.834 5.961 60.256 8.289C60.256 8.289 60.433 8.425 60.308 8.599L59.465 9.781C59.465 9.781 59.225 10.272 58.936 10.082C55.871 8.061 52.218 6.843 48.27 6.854C44.322 6.865 40.676 8.103 37.621 10.143C37.334 10.333 37.091 9.843 37.091 9.843L36.24 8.667C36.115 8.493 36.292 8.358 36.292 8.358C39.701 6.009 43.831 4.631 48.283 4.618z"/>
  <path stroke-width="0.13" stroke-linejoin="round" id="AUTOID_33" d="M55.96 4.025C55.963 5.097 56.835 5.964 57.908 5.961C58.981 5.958 59.847 5.086 59.844 4.014C59.841 2.942 58.969 2.073 57.898 2.076C56.825 2.08 55.957 2.952 55.96 4.025z"/>
  <path stroke-width="0.13" stroke-linejoin="round" id="AUTOID_34" d="M55.225 4.027C55.229 5.506 56.432 6.7 57.911 6.697C59.39 6.692 60.585 5.49 60.579 4.011C60.576 2.532 59.374 1.338 57.895 1.342C56.415 1.346 55.222 2.548 55.225 4.027z"/>
  <path stroke-width="0.13" stroke-linejoin="round" id="AUTOID_35" d="M60.579 4.011L60.597 9.951C60.597 9.951 60.646 10.179 60.826 10.326"/>
  <path stroke-width="0.35" stroke-linejoin="round" id="AUTOID_36" d="M65.341 15.452L65.771 15.16C64.54 13.163 62.978 11.394 61.159 9.928C61.159 9.928 61.031 9.784 61.03 9.509L61.015 4.011C61.009 2.291 59.612 0.903 57.895 0.907C56.174 0.912 54.786 2.309 54.79 4.027L54.795 5.57"/>
  <path stroke-width="0.13" stroke-linejoin="round" id="AUTOID_37" d="M55.229 5.83L55.225 4.027"/>
  <path stroke-width="0.35" stroke-linejoin="round" d="M34.926 1.762L35.582 1.762L35.582 6.376L34.926 6.376"/>
  <path stroke-width="0.35" stroke-linejoin="round" d="M32.96 1.528L34.926 1.528L34.926 6.617L32.96 6.617L32.96 1.528z"/>
  <path stroke-width="0.35" stroke-linejoin="round" id="AUTOID_40" d="M60.6 2.468L63.396 2.46L63.701 2.73L63.71 5.269L63.405 5.546L61.018 5.552"/>
  <path stroke-width="0.35" stroke-linejoin="round" id="AUTOID_41" d="M41.374 2.523L55.198 2.484"/>
  <g>
   <path stroke-width="0.13" stroke-linejoin="round" d="M45.789 3.789L45.789 4.767"/>
   <path stroke-width="0.13" stroke-linejoin="round" d="M45.789 2.493L45.789 3.068"/>
   <path stroke-width="0.13" stroke-linejoin="round" d="M46.323 3.789L46.323 4.7"/>
   <path stroke-width="0.13" stroke-linejoin="round" d="M46.323 2.493L46.323 3.068"/>
   <path stroke-width="0.13" stroke-linejoin="round" d="M46.859 3.789L46.859 4.657"/>
   <path stroke-width="0.13" stroke-linejoin="round" d="M46.859 2.493L46.859 3.068"/>
   <path stroke-width="0.13" stroke-linejoin="round" d="M47.393 3.789L47.393 4.628"/>
   <path stroke-width="0.13" stroke-linejoin="round" d="M47.393 2.493L47.393 3.068"/>
   <path stroke-width="0.13" stroke-linejoin="round" d="M47.927 3.789L47.927 4.612"/>
   <path stroke-width="0.13" stroke-linejoin="round" d="M47.927 2.493L47.927 3.068"/>
   <path stroke-width="0.13" stroke-linejoin="round" d="M48.463 3.789L48.463 4.609"/>
   <path stroke-width="0.13" stroke-linejoin="round" d="M48.463 2.493L48.463 3.068"/>
   <path stroke-width="0.13" stroke-linejoin="round" d="M48.997 3.789L48.997 4.62"/>
   <path stroke-width="0.13" stroke-linejoin="round" d="M48.997 2.493L48.997 3.068"/>
   <path stroke-width="0.13" stroke-linejoin="round" d="M49.531 3.789L49.531 4.642"/>
   <path stroke-width="0.13" stroke-linejoin="round" d="M49.531 2.493L49.531 3.068"/>
   <path stroke-width="0.13" stroke-linejoin="round" d="M50.067 3.789L50.067 4.679"/>
   <path stroke-width="0.13" stroke-linejoin="round" d="M50.067 2.493L50.067 3.068"/>
   <path stroke-width="0.13" stroke-linejoin="round" d="M50.601 3.789L50.601 4.73"/>
   <path stroke-width="0.13" stroke-linejoin="round" d="M50.601 2.493L50.601 3.068"/>
   <path stroke-width="0.13" stroke-linejoin="round" d="M51.137 3.789L51.137 4.767"/>
   <path stroke-width="0.13" stroke-linejoin="round" d="M51.137 2.493L51.137 3.068"/>
   <path stroke-width="0.13" stroke-linejoin="round" d="M51.671 3.789L51.671 4.873"/>
   <path stroke-width="0.13" stroke-linejoin="round" d="M51.671 2.493L51.671 3.068"/>
   <path stroke-width="0.13" stroke-linejoin="round" d="M52.207 3.789L52.207 4.966"/>
   <path stroke-width="0.13" stroke-linejoin="round" d="M52.207 2.493L52.207 3.068"/>
   <path stroke-width="0.13" stroke-linejoin="round" d="M52.74 3.789L52.74 5.073"/>
   <path stroke-width="0.13" stroke-linejoin="round" d="M52.74 2.493L52.74 3.068"/>
   <path stroke-width="0.13" stroke-linejoin="round" d="M53.276 3.789L53.276 5.195"/>
   <path stroke-width="0.13" stroke-linejoin="round" d="M53.276 2.493L53.276 3.068"/>
   <path stroke-width="0.13" stroke-linejoin="round" d="M53.811 3.789L53.811 5.331"/>
   <path stroke-width="0.13" stroke-linejoin="round" d="M53.811 2.493L53.811 3.068"/>
   <path stroke-width="0.13" stroke-linejoin="round" d="M54.345 3.789L54.345 5.482"/>
   <path stroke-width="0.13" stroke-linejoin="round" d="M54.345 2.493L54.345 3.068"/>
   <path stroke-width="0.13" stroke-linejoin="round" d="M61.296 3.789L61.296 5.578"/>
   <path stroke-width="0.13" stroke-linejoin="round" d="M61.296 2.493L61.296 3.068"/>
   <path stroke-width="0.13" stroke-linejoin="round" d="M61.832 3.789L61.832 5.578"/>
   <path stroke-width="0.13" stroke-linejoin="round" d="M61.832 2.493L61.832 3.068"/>
   <path stroke-width="0.13" stroke-linejoin="round" d="M62.366 3.789L62.366 5.578"/>
   <path stroke-width="0.13" stroke-linejoin="round" d="M62.366 2.493L62.366 3.068"/>
   <path stroke-width="0.13" stroke-linejoin="round" d="M62.901 3.789L62.901 5.578"/>
   <path stroke-width="0.13" stroke-linejoin="round" d="M62.901 2.493L62.901 3.068"/>
   <path stroke-width="0.13" stroke-linejoin="round" d="M63.436 3.789L63.436 5.578"/>
   <path stroke-width="0.13" stroke-linejoin="round" d="M63.436 2.493L63.436 3.068"/>
  </g>
  <path stroke-width="0.35" stroke-linejoin="round" d="M67.525 25.888C67.525 32.432 64.26 38.213 59.27 41.694"/>
  <path stroke-width="0.13" stroke-linejoin="round" d="M65.37 36.228C63.92 38.621 61.982 40.683 59.697 42.28"/>
  <path stroke-width="0.35" stroke-linejoin="round" d="M68.25 25.888C68.25 29.673 67.197 33.213 65.37 36.228"/>
  <path stroke-width="0.13" stroke-linejoin="round" d="M55.987 47.738C55.987 46.667 56.856 45.796 57.929 45.796C59.002 45.796 59.871 46.667 59.871 47.738C59.871 48.811 59.002 49.68 57.929 49.68C56.856 49.68 55.987 48.811 55.987 47.738z"/>
  <path stroke-width="0.13" stroke-linejoin="round" d="M55.252 47.738C55.252 46.259 56.451 45.061 57.929 45.061C59.408 45.061 60.606 46.259 60.606 47.738C60.606 49.216 59.408 50.415 57.929 50.415C56.451 50.415 55.252 49.216 55.252 47.738z"/>
  <path stroke-width="0.13" stroke-linejoin="round" d="M60.606 47.738L60.606 41.799C60.606 41.799 60.654 41.57 60.835 41.423"/>
  <path stroke-width="0.35" stroke-linejoin="round" d="M65.335 36.283L65.766 36.576C64.542 38.576 62.984 40.35 61.17 41.82C61.17 41.82 61.04 41.966 61.04 42.238L61.04 47.738C61.04 49.457 59.648 50.85 57.929 50.85C56.21 50.85 54.817 49.457 54.817 47.738L54.817 46.195"/>
  <path stroke-width="0.13" stroke-linejoin="round" d="M55.252 45.936L55.252 47.738"/>
  <path stroke-width="0.35" stroke-linejoin="round" d="M29.016 25.931C29.036 32.475 32.317 38.25 37.316 41.715"/>
  <path stroke-width="0.13" stroke-linejoin="round" d="M31.201 36.267C32.658 38.655 34.6 40.713 36.89 42.302"/>
  <path stroke-width="0.35" stroke-linejoin="round" d="M28.327 25.888C28.327 29.673 29.379 33.213 31.207 36.228"/>
  <path stroke-width="0.35" stroke-linejoin="round" d="M48.293 47.156C43.841 47.17 39.743 45.814 36.32 43.484C36.32 43.484 36.142 43.35 36.268 43.174L37.112 41.993C37.112 41.993 37.351 41.503 37.64 41.692C40.706 43.713 44.359 44.932 48.307 44.921C52.255 44.909 55.901 43.67 58.954 41.633C59.243 41.441 59.485 41.93 59.485 41.93L60.337 43.106C60.463 43.281 60.286 43.417 60.286 43.417C56.875 45.765 52.746 47.145 48.293 47.156z"/>
  <path stroke-width="0.13" stroke-linejoin="round" d="M40.616 47.75C40.612 46.677 39.741 45.811 38.668 45.814C37.597 45.817 36.728 46.689 36.732 47.762C36.735 48.835 37.606 49.701 38.679 49.698C39.753 49.695 40.619 48.823 40.616 47.75z"/>
  <path stroke-width="0.13" stroke-linejoin="round" d="M41.351 47.749C41.347 46.27 40.146 45.075 38.667 45.079C37.188 45.082 35.993 46.284 35.997 47.764C36.002 49.243 37.203 50.438 38.682 50.433C40.161 50.429 41.356 49.226 41.351 47.749z"/>
  <path stroke-width="0.13" stroke-linejoin="round" d="M35.997 47.764L35.979 41.825C35.979 41.825 35.932 41.597 35.75 41.448"/>
  <path stroke-width="0.35" stroke-linejoin="round" d="M31.234 36.322L30.806 36.615C32.036 38.612 33.6 40.381 35.417 41.847C35.417 41.847 35.545 41.991 35.546 42.265L35.563 47.765C35.567 49.484 36.963 50.872 38.682 50.868C40.402 50.862 41.792 49.466 41.786 47.747L41.783 46.204"/>
  <path stroke-width="0.13" stroke-linejoin="round" d="M41.347 45.945L41.351 47.749"/>
  <path stroke-width="0.35" stroke-linejoin="round" d="M61.651 50.014L60.996 50.014L60.996 45.399L61.651 45.399"/>
  <path stroke-width="0.35" stroke-linejoin="round" d="M63.615 50.247L61.651 50.247L61.651 45.158L63.615 45.158L63.615 50.247z"/>
  <path stroke-width="0.35" stroke-linejoin="round" d="M35.976 49.305L33.179 49.314L32.875 49.043L32.868 46.506L33.171 46.228L35.557 46.222"/>
  <path stroke-width="0.35" stroke-linejoin="round" d="M55.204 49.25L41.378 49.29"/>
  <g>
   <path stroke-width="0.13" stroke-linejoin="round" d="M50.787 49.281L50.787 47.417"/>
   <path stroke-width="0.13" stroke-linejoin="round" d="M50.253 49.281L50.253 47.417"/>
   <path stroke-width="0.13" stroke-linejoin="round" d="M49.718 49.281L49.718 47.417"/>
   <path stroke-width="0.13" stroke-linejoin="round" d="M49.183 49.281L49.183 47.417"/>
   <path stroke-width="0.13" stroke-linejoin="round" d="M48.649 49.281L48.649 47.417"/>
   <path stroke-width="0.13" stroke-linejoin="round" d="M48.113 49.281L48.113 47.417"/>
   <path stroke-width="0.13" stroke-linejoin="round" d="M47.579 49.281L47.579 47.417"/>
   <path stroke-width="0.13" stroke-linejoin="round" d="M47.045 49.281L47.045 47.417"/>
   <path stroke-width="0.13" stroke-linejoin="round" d="M46.511 49.281L46.511 47.417"/>
   <path stroke-width="0.13" stroke-linejoin="round" d="M45.975 49.281L45.975 47.417"/>
   <path stroke-width="0.13" stroke-linejoin="round" d="M45.441 49.281L45.441 47.417"/>
   <path stroke-width="0.13" stroke-linejoin="round" d="M44.905 49.281L44.905 47.417"/>
   <path stroke-width="0.13" stroke-linejoin="round" d="M44.371 49.281L44.371 47.417"/>
   <path stroke-width="0.13" stroke-linejoin="round" d="M43.835 49.281L43.835 47.417"/>
   <path stroke-width="0.13" stroke-linejoin="round" d="M43.301 46.697L43.301 46.581"/>
   <path stroke-width="0.13" stroke-linejoin="round" d="M43.301 49.281L43.301 47.417"/>
   <path stroke-width="0.13" stroke-linejoin="round" d="M42.767 46.697L42.767 46.444"/>
   <path stroke-width="0.13" stroke-linejoin="round" d="M42.767 49.281L42.767 47.417"/>
   <path stroke-width="0.13" stroke-linejoin="round" d="M42.231 46.697L42.231 46.292"/>
   <path stroke-width="0.13" stroke-linejoin="round" d="M42.231 49.281L42.231 47.417"/>
   <path stroke-width="0.13" stroke-linejoin="round" d="M35.28 46.697L35.28 46.195"/>
   <path stroke-width="0.13" stroke-linejoin="round" d="M35.28 49.281L35.28 47.417"/>
   <path stroke-width="0.13" stroke-linejoin="round" d="M34.746 46.697L34.746 46.195"/>
   <path stroke-width="0.13" stroke-linejoin="round" d="M34.746 49.281L34.746 47.417"/>
   <path stroke-width="0.13" stroke-linejoin="round" d="M34.21 46.697L34.21 46.195"/>
   <path stroke-width="0.13" stroke-linejoin="round" d="M34.21 49.281L34.21 47.417"/>
   <path stroke-width="0.13" stroke-linejoin="round" d="M33.676 46.697L33.676 46.195"/>
   <path stroke-width="0.13" stroke-linejoin="round" d="M33.676 49.281L33.676 47.417"/>
   <path stroke-width="0.13" stroke-linejoin="round" d="M33.14 46.697L33.14 46.195"/>
   <path stroke-width="0.13" stroke-linejoin="round" d="M33.14 49.281L33.14 47.417"/>
  </g>
  <g>
   <path stroke-width="0.35" stroke-linejoin="round" d="M23.413 15.269L14.166 15.269L14.166 0.995L23.413 0.995L23.413 15.269z"/>
   <path stroke-width="0.13" stroke-linejoin="round" d="M14.9 10.067L22.678 10.067"/>
   <path stroke-width="0.35" stroke-linejoin="round" d="M14.166 10.067C14.166 10.067 13.627 10.044 13.627 9.679C13.627 9.317 13.627 5.059 13.627 4.7C13.627 4.341 14.159 4.341 14.159 4.341"/>
   <path stroke-width="0.35" stroke-linejoin="round" d="M23.515 4.341C23.515 4.341 24.047 4.341 24.047 4.7C24.047 5.059 24.047 9.317 24.047 9.679C24.047 10.044 23.699 10.067 23.699 10.067L23.699 41.835"/>
  </g>
  <g>
   <path stroke-width="0.35" stroke-linejoin="round" id="AUTOID_144" d="M14.26 36.631L23.507 36.631L23.507 50.906L14.26 50.906L14.26 36.631z"/>
   <path stroke-width="0.13" stroke-linejoin="round" id="AUTOID_145" d="M17.096 47.865C17.096 46.904 17.876 46.124 18.836 46.124C19.798 46.124 20.577 46.904 20.577 47.865C20.577 48.826 19.798 49.606 18.836 49.606C17.876 49.606 17.096 48.826 17.096 47.865z"/>
   <path stroke-width="0.13" stroke-linejoin="round" id="AUTOID_146" d="M20.225 47.865C20.225 48.631 19.603 49.253 18.836 49.253"/>
   <path stroke-width="0.13" stroke-linejoin="round" id="AUTOID_147" d="M17.449 47.865C17.449 47.097 18.071 46.478 18.836 46.478"/>
   <path stroke-width="0.13" stroke-linejoin="round" id="AUTOID_148" d="M22.774 41.835L14.994 41.835"/>
   <path stroke-width="0.35" stroke-linejoin="round" id="AUTOID_149" d="M23.507 41.835C23.507 41.835 24.047 41.857 24.047 42.22C24.047 42.585 24.047 46.841 24.047 47.201C24.047 47.561 23.515 47.561 23.515 47.561"/>
   <path stroke-width="0.35" stroke-linejoin="round" id="AUTOID_150" d="M14.159 47.561C14.159 47.561 13.627 47.561 13.627 47.201C13.627 46.841 13.627 42.585 13.627 42.22C13.627 41.857 13.974 41.835 13.974 41.835L13.974 10.067"/>
  </g>
  <path stroke-width="0.35" stroke-linejoin="round" d="M17.359 6.556L15.903 4.036L17.359 1.516L20.268 1.516L21.724 4.036L20.268 6.556L17.359 6.556z"/>
  <path stroke-width="0.13" stroke-linejoin="round" d="M21.167 4.036C21.167 5.336 20.112 6.389 18.814 6.389C17.513 6.389 16.46 5.336 16.46 4.036C16.46 2.737 17.513 1.683 18.814 1.683C20.112 1.683 21.167 2.737 21.167 4.036z"/>
  <path stroke-width="0.13" stroke-linejoin="round" d="M33.292 4.072L34.594 4.072"/>
  <path stroke-width="0.13" stroke-linejoin="round" d="M34.594 4.072C34.594 4.072 34.926 3.468 34.926 2.939"/>
  <path stroke-width="0.13" stroke-linejoin="round" d="M34.594 4.072C34.594 4.072 34.926 4.676 34.926 5.206"/>
  <path stroke-width="0.13" stroke-linejoin="round" d="M33.293 4.072C33.293 4.072 32.962 3.468 32.962 2.939"/>
  <path stroke-width="0.13" stroke-linejoin="round" d="M33.293 4.072C33.293 4.072 32.962 4.676 32.962 5.206"/>
  <path stroke-width="0.13" stroke-linejoin="round" d="M61.981 47.703L63.284 47.703"/>
  <path stroke-width="0.13" stroke-linejoin="round" d="M63.284 47.703C63.284 47.703 63.615 47.098 63.615 46.569"/>
  <path stroke-width="0.13" stroke-linejoin="round" d="M63.284 47.703C63.284 47.703 63.615 48.307 63.615 48.837"/>
  <path stroke-width="0.13" stroke-linejoin="round" d="M61.982 47.703C61.982 47.703 61.651 47.098 61.651 46.569"/>
  <path stroke-width="0.13" stroke-linejoin="round" d="M61.982 47.703C61.982 47.703 61.651 48.307 61.651 48.837"/>
 </g>
 <g id="A4_x0020_half_x0020_frame">
  <path stroke="#FFFFFF" stroke-width="0.016" d="M75.007 0.008L0.008 0.008L0.008 59.817L75.007 59.817L75.007 0.008z"/>
 </g>
 <g id="Picture_x0020_#">
  <g>
   <g>
    <text transform="matrix(0 -1 1 0 73.822 58.804)" stroke="none" fill="#000000" font-family="'Helvetica'" font-size="2.117">326 616</text>
   </g>
  </g>
 </g>
</svg>
