<?xml version="1.0" encoding="utf-8"?>
<!DOCTYPE svg PUBLIC "-//W3C//DTD SVG 1.1//EN" "http://www.w3.org/Graphics/SVG/1.1/DTD/svg11.dtd">
<!-- Generator: PTC Arbortext IsoDraw 7.3 -->
<svg id="Standard_x0020_layer" width="100%" height="100%" viewBox="0 0 72.096 59.645"
 xmlns="http://www.w3.org/2000/svg" xmlns:xlink="http://www.w3.org/1999/xlink"
 fill-rule="evenodd" clip-rule="evenodd" stroke="#000000" stroke-linecap="round" fill="none" xml:space="preserve">
 <g>
  <path stroke="none" fill="#BFBFBF" d="M34.755 44.695L44.177 19.312 57.628 23.356 57.865 24.003 56.929 26.507 56.112 27.001 56.231 28.091 52.975 36.682 52.057 36.554 51.439 37.195 51.274 37.935 52.109 39.008 49.759 44.746 49.027 45.104 49.197 45.853 44.633 56.668"/>
 </g>
 <line stroke-width="0.13" x1="21.304" y1="59.119" x2="17.707" y2="41.689"/>
 <line stroke-width="0.13" x1="17.103" y1="38.759" x2="15.85" y2="32.692"/>
 <line stroke-width="0.13" x1="15.85" y1="32.692" x2="16.263" y2="32.665"/>
 <line stroke-width="0.13" x1="17.019" y1="32.615" x2="22.841" y2="32.232"/>
 <line stroke-width="0.13" x1="22.841" y1="32.232" x2="35.439" y2="59.579"/>
 <path stroke-width="0.3" d="M34.345 44.951C34.345 44.935 33.987 44.679 33.954 44.201C33.92 43.725 34.226 43.384 34.226 43.384L34.567 43.64L35.094 41.716C35.094 41.716 34.584 41.801 34.311 41.563C34.039 41.323 33.732 40.762 33.987 40.268C34.243 39.774 34.499 39.671 34.908 39.825C35.317 39.978 35.384 40.131 35.384 40.131L35.572 40.149L37.359 35.771L37.088 35.226L37.155 34.92L37.939 34.545L41.055 26.216L40.801 25.245L40.92 24.923L41.959 24.172C41.959 24.172 42.012 24.01 42.195 23.446"/>
 <path stroke-width="0.3" d="M42.279 23.189C42.53 22.414 43.457 19.557 43.457 19.557C43.457 19.557 43.151 19.388 43.286 19.199C43.423 19.013 43.883 18.451 44.496 18.603C45.109 18.757 59.994 23.152 59.994 23.135C59.994 23.117 60.488 23.815 60.523 23.969C60.557 24.121 60.319 24.769 60.319 24.769L59.722 24.649L59.075 27.018C59.075 27.018 59.091 27.681 59.075 27.699C59.057 27.716 58.683 28.839 58.667 28.839C58.649 28.839 58.036 29.588 58.036 29.588L55.804 35.277C55.804 35.277 55.533 36.828 55.43 37.338C55.329 37.85 54.63 39.79 54.442 40.216C54.256 40.643 50.933 47.966 50.933 47.966L51.427 48.307C51.427 48.307 51.003 50.503 50.832 50.896C50.661 51.286 49.588 53.381 49.588 53.381L48.719 53.024L46.982 57.128L47.323 57.673C47.323 57.673 47.136 58.151 47.033 58.354C46.932 58.56 46.404 58.832 45.893 58.832C45.381 58.832 44.207 57.35 44.207 57.35L43.985 56.975L34.345 44.951"/>
 <line stroke-width="0.13" x1="34.755" y1="44.695" x2="44.633" y2="56.668"/>
 <line stroke-width="0.13" x1="44.633" y1="56.668" x2="49.197" y2="45.853"/>
 <line stroke-width="0.13" x1="49.197" y1="45.853" x2="48.975" y2="45.411"/>
 <line stroke-width="0.13" x1="48.975" y1="45.411" x2="49.027" y2="45.104"/>
 <line stroke-width="0.13" x1="49.027" y1="45.104" x2="49.759" y2="44.746"/>
 <line stroke-width="0.13" x1="49.759" y1="44.746" x2="52.109" y2="39.008"/>
 <path stroke-width="0.13" d="M53.079 39.058C52.859 39.212 52.381 39.28 52.109 39.008C51.837 38.734 51.24 38.463 51.274 37.935C51.308 37.406 51.564 36.435 52.365 36.537C53.165 36.64 53.097 36.811 53.42 36.963C53.744 37.116 53.863 37.457 53.863 37.509C53.863 37.56 54.017 38.189 53.881 38.53C53.744 38.871 53.334 38.951 53.079 39.058z"/>
 <path stroke-width="0.13" d="M52.96 36.862C53.25 37.253 53.165 37.866 52.944 38.189C52.722 38.514 52.093 38.649 52.093 38.649"/>
 <line stroke-width="0.13" x1="52.975" y1="36.682" x2="56.231" y2="28.091"/>
 <line stroke-width="0.13" x1="56.231" y1="28.091" x2="56.06" y2="27.289"/>
 <line stroke-width="0.13" x1="56.06" y1="27.289" x2="56.112" y2="27.001"/>
 <line stroke-width="0.13" x1="56.112" y1="27.001" x2="56.929" y2="26.507"/>
 <line stroke-width="0.13" x1="56.929" y1="26.507" x2="57.865" y2="24.003"/>
 <line stroke-width="0.13" x1="57.865" y1="24.003" x2="57.628" y2="23.356"/>
 <path stroke-width="0.13" d="M57.865 24.003C57.865 24.003 58.326 24.344 58.512 24.088C58.701 23.832 58.802 23.475 58.802 23.475C58.802 23.475 58.956 23.407 59.45 23.576C59.944 23.748 60.369 23.986 60.369 23.986"/>
 <line stroke-width="0.13" x1="59.722" y1="24.649" x2="59.875" y2="23.9"/>
 <line stroke-width="0.13" x1="57.628" y1="23.356" x2="44.177" y2="19.312"/>
 <line stroke-width="0.13" x1="44.177" y1="19.312" x2="42.677" y2="23.353"/>
 <line stroke-width="0.13" x1="42.582" y1="23.611" x2="34.755" y2="44.695"/>
 <line stroke-width="0.13" x1="60.101" y1="23.277" x2="61.906" y2="23.821"/>
 <line stroke-width="0.13" x1="61.906" y1="23.821" x2="70.545" y2="49.469"/>
 <line stroke-width="0.13" x1="70.545" y1="49.469" x2="68.509" y2="50.042"/>
 <line stroke-width="0.13" x1="68.509" y1="50.042" x2="68.031" y2="49.756"/>
 <line stroke-width="0.13" x1="68.031" y1="49.756" x2="64.87" y2="40.393"/>
 <line stroke-width="0.13" x1="64.647" y1="39.731" x2="59.795" y2="25.361"/>
 <line stroke-width="0.13" x1="59.954" y1="25.01" x2="64.962" y2="39.662"/>
 <line stroke-width="0.13" x1="65.188" y1="40.326" x2="68.509" y2="50.042"/>
 <line stroke-width="0.13" x1="66.091" y1="39.418" x2="53.584" y2="42.119"/>
 <line stroke-width="0.13" x1="66.239" y1="40.1" x2="53.237" y2="42.883"/>
 <path stroke-width="0.13" d="M66.091 39.418C66.629 39.331 66.634 40.017 66.239 40.1"/>
 <line stroke-width="0.13" x1="55.597" y1="36.439" x2="57.155" y2="41.348"/>
 <line stroke-width="0.13" x1="57.362" y1="42" x2="57.576" y2="42.68"/>
 <line stroke-width="0.13" x1="57.576" y1="42.68" x2="57.895" y2="42.896"/>
 <line stroke-width="0.13" x1="57.895" y1="42.896" x2="59.61" y2="42.408"/>
 <line stroke-width="0.13" x1="59.61" y1="42.408" x2="59.35" y2="41.575"/>
 <line stroke-width="0.13" x1="59.148" y1="40.918" x2="58.82" y2="39.866"/>
 <line stroke-width="0.13" x1="58.024" y1="37.304" x2="57.122" y2="34.401"/>
 <line stroke-width="0.13" x1="55.683" y1="35.96" x2="57.432" y2="41.289"/>
 <line stroke-width="0.13" x1="57.645" y1="41.939" x2="57.954" y2="42.881"/>
 <line stroke-width="0.13" x1="57.951" y1="37.262" x2="56.255" y2="37.7"/>
 <line stroke-width="0.13" x1="56.255" y1="37.7" x2="61.024" y2="40.512"/>
 <line stroke-width="0.13" x1="61.899" y1="41.03" x2="65.878" y2="43.375"/>
 <line stroke-width="0.13" x1="56.506" y1="38.468" x2="60.188" y2="40.694"/>
 <line stroke-width="0.13" x1="61.045" y1="41.212" x2="66.198" y2="44.328"/>
 <line stroke-width="0.13" x1="57.951" y1="37.262" x2="62.914" y2="40.104"/>
 <line stroke-width="0.13" x1="63.813" y1="40.619" x2="65.218" y2="41.424"/>
 <line stroke-width="0.13" x1="56.271" y1="34.06" x2="64.088" y2="38.079"/>
 <line stroke-width="0.13" x1="56.453" y1="33.536" x2="63.802" y2="37.232"/>
 <line stroke-width="0.13" x1="56.906" y1="32.481" x2="63.247" y2="35.588"/>
 <path stroke-width="0.13" d="M9.724 3.451C9.973 3.132 10.25 2.08 9.26 1.443C8.271 0.808 7.881 0.065 7.139 0.065C6.397 0.065 4.451 0.666 4.062 1.409C3.673 2.15 3.355 2.434 3.496 3.672C3.639 4.908 3.886 5.121 3.78 5.192C3.673 5.262 3.355 6.004 3.355 6.004C3.355 6.004 2.79 5.652 2.649 6.288C2.507 6.924 2.366 7.278 2.366 7.278C2.366 7.278 -0.074 9.045 0.067 12.369C0.209 15.692 1.128 19.795 1.375 21.068C1.623 22.339 0.81 23.649 2.259 24.108C3.709 24.568 8.234 25.062 8.977 25.027C9.72 24.992 10.144 25.522 10.214 24.496C10.285 23.472 10.746 19.193 10.108 18.451"/>
 <path stroke-width="0.13" d="M9.65 2.984C9.772 3.25 9.736 4.4 9.736 4.629C9.736 4.86 9.481 5.137 9.433 5.174C9.384 5.211 9.567 5.814 9.663 6.105C9.759 6.395 9.615 6.698 9.433 6.686C9.252 6.674 9.083 6.686 9.083 6.686L9.009 7.036C9.009 7.036 8.888 7.254 8.817 7.158C8.743 7.06 8.926 7.278 8.84 7.424C8.756 7.569 8.622 7.569 8.622 7.775C8.622 7.98 8.513 8.634 8.006 8.451C7.498 8.271 6.735 7.738 6.397 8.537"/>
 <path stroke-width="0.13" d="M7.147 3.54C6.833 3.165 6.264 3.359 6.155 3.722C6.046 4.086 5.974 4.811 6.203 5.089C6.434 5.368 6.785 5.634 6.918 5.488"/>
 <path stroke-width="0.13" d="M8.877 4.884C9.154 4.908 9.263 4.993 9.409 5.065C9.554 5.137 9.554 5.137 9.554 5.137"/>
 <path stroke-width="0.13" d="M9.343 5.03C9.324 5.211 9.24 5.235 9.179 5.27"/>
 <path stroke-width="0.13" d="M6.639 3.468C6.942 3.601 7.051 3.565 6.857 4.06C6.663 4.557 6.833 4.544 6.881 4.689C6.929 4.836 6.905 4.908 6.905 4.908"/>
 <path stroke-width="0.13" d="M3.823 5.149C3.895 5.221 4.262 5.331 4.278 5.237C4.294 5.141 4.517 5.133 4.71 5.165C4.9 5.197 5.076 5.285 5.076 5.149C5.076 5.012 5.371 4.892 5.435 4.892C5.5 4.892 5.851 4.892 5.851 4.75C5.851 4.605 6.057 4.296 6.057 4.296"/>
 <path stroke-width="0.13" d="M7.224 3.536C7.391 3.743 7.527 3.791 7.519 3.936C7.511 4.078 7.423 4.086 7.702 4.078C7.982 4.07 8.006 3.968 8.093 3.767C8.18 3.569 8.324 3.36 8.333 3.321C8.34 3.281 8.221 2.874 8.212 2.858C8.205 2.842 8.484 2.562 8.539 2.459C8.596 2.355 8.708 2.251 8.628 2.1C8.548 1.948 8.548 1.781 8.548 1.781C8.548 1.781 9.374 1.986 9.65 2.984"/>
 <path stroke-width="0.13" d="M3.355 6.004C3.936 6.28 6.019 8.121 6.397 8.537C6.775 8.952 6.897 9.776 6.897 9.776C6.897 9.776 9.096 13.336 9.234 13.808"/>
 <path stroke-width="0.13" d="M2.366 7.278C3.019 7.272 4.011 7.562 4.927 8.204C5.844 8.846 6.897 9.776 6.897 9.776"/>
 <path stroke-width="0.13" d="M3.049 14.573C3.08 14.602 5.463 16.725 6.684 17.428C7.905 18.131 9.196 18.542 10.108 18.451C11.021 18.359 13.297 17.734 14.198 17.474C15.099 17.214 15.266 16.786 15.266 16.786C15.266 16.786 15.449 16.725 15.557 16.771C15.663 16.817 15.984 16.405 16.198 16.314C16.411 16.222 16.809 16.297 17.16 16.375C17.512 16.451 18.55 16.649 18.55 16.634C18.55 16.618 19.253 17.199 19.496 17.397C19.74 17.596 19.986 17.474 19.893 17.291C19.801 17.108 20.184 17.26 20.169 17.015C20.153 16.771 20.458 17.001 20.397 16.649C20.336 16.297 20.291 16.236 20.291 16.236C20.291 16.236 20.397 16.283 20.397 16.1C20.397 15.916 20.155 15.541 20.155 15.541"/>
 <path stroke-width="0.13" d="M20.397 16.1C20.597 15.824 20.765 15.397 20.489 15.045C20.214 14.695 19.634 14.419 19.39 14.266C19.146 14.114 17.068 14.298 16.701 14.176C16.335 14.053 15.557 13.808 15.541 13.884C15.525 13.961 15.128 14.587 15.374 15.214C15.618 15.839 15.618 15.839 15.618 15.839C15.618 15.839 15.343 16.422 15.403 16.757"/>
 <path stroke-width="0.13" d="M7.371 11.64C8.349 12.496 9.173 13.641 9.234 13.808C9.295 13.977 9.326 13.855 9.128 14.144C8.929 14.435 8.868 14.724 8.913 14.832"/>
 <path stroke-width="0.13" d="M9.279 13.926C9.8 14.205 9.983 14.053 11.082 14.237C12.182 14.419 13.647 14.587 14.151 14.298C14.656 14.007 14.808 13.869 14.945 14.053C15.083 14.237 15.391 14.243 15.391 14.243"/>
 <path stroke-width="0.13" d="M18.001 14.211C18.001 14.211 17.742 14.122 17.748 13.987C17.754 13.85 17.936 13.067 18.175 12.737C18.414 12.407 18.414 12.407 18.414 12.407C18.414 12.407 18.615 12.433 18.731 12.492C18.849 12.55 18.932 12.568 18.99 12.737C19.05 12.906 19.056 12.945 19.056 12.945L21.152 13.832L21.626 13.727C21.626 13.727 21.736 13.689 22.059 13.837C22.382 13.987 22.356 14.128 22.356 14.18C22.356 14.233 22.189 14.73 22.137 14.842C22.085 14.952 21.89 15.462 21.774 15.573C21.658 15.682 21.483 15.605 21.483 15.605C21.483 15.605 20.978 15.333 20.972 15.32C20.966 15.307 20.94 15.125 20.92 15.099C20.9 15.074 20.861 14.99 20.861 14.99L20.6 15.252"/>
 <line stroke-width="0.13" x1="20.861" y1="14.99" x2="19.457" y2="14.252"/>
 <path stroke-width="0.13" d="M18.414 12.518C18.382 12.763 18.045 13.974 17.852 14.012"/>
 <path stroke-width="0.13" d="M17.533 16.451L17.371 16.661C17.371 16.661 17.193 16.675 17.125 16.722C17.054 16.771 16.972 16.835 17.05 16.969C17.129 17.103 17.158 17.126 17.158 17.126L16.955 17.458C16.955 17.458 16.829 17.407 16.777 17.458C16.725 17.51 16.626 17.672 16.626 17.672C16.626 17.672 16.6 17.792 16.673 17.844C16.748 17.896 17.085 18.213 17.132 18.256C17.181 18.3 17.245 18.368 17.31 18.317C17.376 18.265 17.522 18.143 17.553 18.079C17.583 18.013 17.557 17.957 17.545 17.943C17.532 17.931 17.513 17.865 17.571 17.806C17.626 17.745 17.792 17.623 17.792 17.623C17.792 17.623 17.87 17.745 17.969 17.728C18.068 17.71 18.181 17.705 18.143 17.568C18.103 17.428 18.085 17.407 18.085 17.407L18.719 16.763"/>
 <path stroke-width="0.13" d="M17.158 17.126C17.397 17.251 17.76 17.498 17.792 17.623"/>
 <path stroke-width="0.13" d="M16.673 17.844L16.518 18.001C16.518 18.001 16.461 17.943 16.414 17.992"/>
 <path stroke-width="0.13" d="M17.132 18.256C17.106 18.26 16.969 18.411 16.969 18.411C16.969 18.411 17.024 18.472 16.977 18.533C16.929 18.594 16.929 18.594 16.929 18.594"/>
 <line stroke-width="0.13" x1="16.518" y1="18.001" x2="16.969" y2="18.411"/>
 <path stroke-width="0.13" d="M16.414 17.992C15.784 18.615 14.989 19.928 14.855 21.466C14.724 23.004 14.644 25.469 15.041 27.126C15.439 28.783 16.221 32.189 16.393 33.435C16.565 34.682 17.242 38.128 17.109 40.076C16.977 42.024 16.539 45.087 15.637 46.518C14.737 47.95 10.096 54.497 3.947 55.399"/>
 <path stroke-width="0.13" d="M16.943 18.527C16.399 19.065 15.72 20.202 15.605 21.53C15.478 23.003 15.393 25.364 15.774 26.949C16.175 28.626 16.964 32.072 17.138 33.32L17.295 34.335C17.561 35.966 17.969 38.533 17.859 40.128C17.721 42.183 17.225 45.408 16.274 46.92C15.622 47.954 13.076 51.581 9.428 53.982C7.825 55.039 6.011 55.857 4.056 56.143"/>
 <line stroke-width="0.13" x1="19.686" y1="51.277" x2="30.882" y2="49.689"/>
 <line stroke-width="0.13" x1="17.788" y1="40.975" x2="26.12" y2="39.932"/>
 <path stroke-width="0.13" d="M1.761 23.856C1.623 26.08 2.615 28.361 3.011 29.155C3.407 29.949 4.631 33.387 4.564 34.941C4.498 36.494 4.498 36.924 4.498 36.924C4.498 36.924 5.293 36.924 4.961 37.487C4.631 38.048 4.4 37.884 4.498 38.578C4.597 39.271 5.359 43.47 5.589 44.594C5.822 45.719 5.953 46.71 5.953 46.71C5.953 46.71 8.07 47.735 9.359 47.042C10.649 46.347 11.077 45.421 11.077 45.421C11.077 45.421 10.218 44.561 10.019 44.198C9.821 43.835 9.723 42.182 9.657 41.156C9.59 40.131 10.019 38.776 10.119 37.024C10.218 35.271 10.047 28.571 10.047 28.571"/>
 <path stroke-width="0.13" d="M9.664 25.112C10.119 27.435 11.442 31.039 11.64 32.659C11.839 34.28 10.814 37.354 10.649 38.445C10.483 39.536 10.483 39.636 10.483 39.834C10.483 40.033 10.88 39.899 11.111 40.957C11.343 42.015 11.573 42.545 11.573 42.545C11.573 42.545 11.34 43.654 9.919 43.877"/>
 <path stroke-width="0.13" d="M10.943 45.651C10.943 45.651 11.806 46.314 12.301 46.314C12.798 46.314 14.054 46.28 14.086 46.81C14.119 47.338 14.218 47.768 13.788 48.067C13.359 48.363 11.044 48.959 10.054 48.728C9.061 48.496 8.433 48.429 8.333 48.661C8.234 48.893 8.268 48.893 8.234 48.893C8.201 48.893 6.746 48.826 6.746 48.826C6.746 48.826 6.049 47.841 6.399 46.896"/>
 <path stroke-width="0.13" d="M11.573 42.545C11.971 42.843 12.599 42.875 13.393 42.777C14.185 42.677 14.516 43.305 14.317 43.735C14.119 44.164 13.028 44.926 12.169 44.826C11.31 44.726 10.945 44.793 10.945 44.793C10.945 44.793 10.66 44.984 10.643 44.966"/>
 <line stroke-width="0.13" x1="22.137" y1="14.842" x2="44.591" y2="24.147"/>
 <line stroke-width="0.13" x1="22.137" y1="14.842" x2="44.505" y2="24.435"/>
 <g>
  <path stroke-width="0.13" d="M37.546 21.452C37.121 22.443 36.924 23.475 36.933 24.435C36.933 27.78 39.103 30.62 42.164 31.637"/>
 </g>
 <line stroke-width="0.13" x1="44.664" y1="24.384" x2="41.77" y2="32.783"/>
 <line stroke-width="0.13" x1="37.546" y1="21.452" x2="37.026" y2="22.141"/>
 <line stroke-width="0.13" x1="37.546" y1="21.452" x2="37.42" y2="22.294"/>
 <line stroke-width="0.13" x1="42.164" y1="31.637" x2="41.414" y2="31.042"/>
 <line stroke-width="0.13" x1="42.164" y1="31.637" x2="41.232" y2="31.513"/>
 <text transform="matrix(0 -1 1 0 71.391 59.579)" stroke="none" fill="#000000" font-family="'Arial'" font-size="2.117">329 056</text>
 <line stroke-width="0.13" x1="61.906" y1="23.821" x2="60.704" y2="24.251"/>
 <path stroke-width="0.3" d="M25.698 26.452C27.1 25.426 27.263 25.803 27.748 26.236C28.234 26.667 28.827 26.775 29.367 26.236"/>
 <text x="30.068" y="27.963" stroke="none" fill="#000000" font-family="'Arial'" font-size="4.232">90</text>
 <g>
  <path stroke-width="0.2" d="M36.058 24.887C36.058 24.528 35.768 24.239 35.411 24.239C35.054 24.239 34.764 24.528 34.764 24.887C34.764 25.245 35.054 25.533 35.411 25.533C35.768 25.533 36.058 25.245 36.058 24.887"/>
 </g>
</svg>
