<?xml version="1.0" encoding="utf-8"?>
<!DOCTYPE svg PUBLIC "-//W3C//DTD SVG 1.1//EN" "http://www.w3.org/Graphics/SVG/1.1/DTD/svg11.dtd">
<!-- Generator: PTC Arbortext IsoDraw 7.3 -->
<svg width="100%" height="100%" viewBox="0 0 75.006 76.813"
 xmlns="http://www.w3.org/2000/svg" xmlns:xlink="http://www.w3.org/1999/xlink"
 fill-rule="evenodd" clip-rule="evenodd" stroke="#000000" stroke-linecap="round" fill="none" xml:space="preserve">
 <g id="A4_x0020_half_x0020_frame">
  <g>
   <path stroke="#FFFFFF" stroke-width="0.006" d="M75.003 76.811L75.003 0.003L0.003 0.003L0.003 76.811L75.003 76.811z"/>
  </g>
 </g>
 <g id="Colour">
  <path stroke="none" fill="#9C9E9F" d="M29.26 30.954L28.539 31.923 28.231 32.893 28.01 34.216 28.097 35.274 28.01 36.509 27.966 37.612 27.878 38.317 27.789 39.2 27.657 41.095 27.657 41.933 27.568 43.036 27.481 45.725 27.481 48.46 27.657 50.621 28.01 53.664 28.141 54.457 28.847 57.456 29.201 58.469 29.949 60.542 32.86 61.6 34.668 61.777 34.14 60.234 33.743 59.088 33.081 57.058 32.683 55.78 32.198 54.192 31.626 51.326 31.449 49.959 31.449 48.415 31.361 47.755 31.405 46.344 31.449 44.359 31.493 42.639 31.67 41.095 31.89 39.463 32.155 38.052 32.243 36.201 30.655 35.451 29.818 34.966 29.464 34.084 29.464 33.423 29.332 32.276 29.26 30.954z"/>
  <path stroke="none" fill="#FFFFFF" d="M27.628 45.109L27.922 45.387 28.701 45.814 29.024 45.96 29.686 45.96 30.141 46.049 30.318 46.372 31.684 46.814 31.949 46.814 32.2 46.814 32.36 47.02 32.17 47.298 31.861 47.49 31.332 47.68 30.876 47.637 30.391 47.621 30.214 47.563 29.966 48.18 29.245 48.225 28.245 47.607 28.231 47.49 28.289 47.27 28.378 46.945 28.039 46.798 27.687 46.505 27.599 45.622 27.628 45.109z"/>
  <path stroke="none" fill="#9C9E9F" d="M36.762 29.664L36.951 29.576 37.447 29.498 38.075 29.553 38.593 29.917 38.593 30.071 38.362 30.798 38.064 31.064 37.677 31.14 37.204 31.118 36.917 30.975 36.752 30.765 36.686 30.579 36.564 30.48 36.466 30.225 36.509 29.949 36.762 29.664z"/>
  <path stroke="none" fill="#9C9E9F" d="M32.353 29.399L32.496 29.245 32.828 29.135 33.576 29.035 33.951 29.123 34.426 29.355 34.481 29.73 34.304 29.983 34.216 30.236 33.996 30.49 33.753 30.644 33.203 30.678 32.74 30.469 32.628 30.28 32.508 30.039 32.365 29.917 32.353 29.399z"/>
  <path stroke="none" fill="#9C9E9F" d="M31.868 31.074L32.22 31.074 32.85 31.251 33.07 31.493 33.026 31.89 32.883 32.078 32.871 32.32 32.463 32.651 31.78 32.683 31.472 32.573 31.317 32.442 31.868 31.074z"/>
  <path stroke="none" fill="#9C9E9F" d="M35.021 31.713L35.231 31.504 35.506 31.361 36.179 31.306 37.006 31.614 37.082 31.913 37.049 32.176 36.906 32.353 36.729 32.706 36.476 32.905 36.112 32.96 35.594 32.915 35.274 32.673 35.143 32.42 35.154 32.298 35.088 32.276 34.944 32.078 35.021 31.713z"/>
  <path stroke="none" fill="#9C9E9F" d="M34.646 25.199L34.801 24.846 35.088 24.317 35.307 24.03 35.417 23.28 35.639 22.905 35.881 22.618 36.256 22.155 36.674 21.714 38.46 19.797 41.04 17.9 41.701 22.399 40.643 23.413 40.137 24.03 40.048 24.426 39.981 24.846 39.783 25.242 39.518 25.53 39.593 25.794 39.518 26.074 39.593 26.469 39.564 26.955 39.402 27.396 39.167 27.498 38.682 27.498 37.947 27.469 37.256 27.44 37.021 27.352 36.637 27.294 36.402 27.204 36.109 27.146 35.506 26.896 34.948 26.294 34.698 25.721 34.646 25.199z"/>
  <path stroke="none" fill="#9C9E9F" d="M32.905 16.312L32.948 15.74 33.103 14.923 33.72 14.108 34.25 13.314 34.954 12.41 35.307 12.432 35.154 12.762 35.109 13.204 35.109 13.49 35.439 14.108 36.146 14.99 36.697 15.343 37.402 15.608 37.909 15.651 38.482 15.564 38.902 15.365 39.518 15.166 39.652 15.586 39.298 16.202 38.107 17.768 37.292 18.452 36.962 18.606 36.432 18.695 35.529 18.628 34.668 18.341 34.25 18.099 33.631 17.57 33.235 17.062 32.905 16.312z"/>
 </g>
 <g id="Standard_x0020_layer">
  <g>
   <g>
    <g>
     <g>
      <text x="44.784" y="4.894" stroke="none" fill="#000000" font-family="'Helvetica'" font-size="4.924">2</text>
     </g>
    </g>
   </g>
  </g>
  <g>
   <g>
    <g>
     <g>
      <text x="57.837" y="28.059" stroke="none" fill="#000000" font-family="'Helvetica'" font-size="4.924">3</text>
     </g>
    </g>
   </g>
  </g>
  <path stroke-width="0.3" stroke-linejoin="round" d="M40.625 71.778C40.625 71.778 41.485 73.897 41.701 74.388C41.914 74.879 41.762 75.677 41.546 75.923"/>
  <path stroke-width="0.3" stroke-linejoin="round" d="M46.091 69.905C46.091 69.905 46.767 71.665 46.911 72.055C47.054 72.442 47.136 73.304 46.726 73.835C46.426 74.225 45.686 75.155 45.198 75.882"/>
  <path stroke-width="0.3" stroke-linejoin="round" d="M23.632 58.963L20.275 62.615"/>
  <path stroke-width="0.3" stroke-linejoin="round" d="M28.06 54.143L26.705 55.618"/>
  <path stroke-width="0.3" stroke-linejoin="round" d="M33 48.765L31.545 50.35"/>
  <path stroke-width="0.3" stroke-linejoin="round" d="M41.051 39.54L37.817 43.246"/>
  <path stroke-width="0.3" stroke-linejoin="round" d="M51.442 27.637L46.158 33.692"/>
  <path stroke-width="0.3" stroke-linejoin="round" d="M59.228 18.716L52.195 26.772"/>
  <path stroke-width="0.3" stroke-linejoin="round" d="M73.584 2.358L62.423 15.076"/>
  <path stroke-width="0.3" stroke-linejoin="round" d="M30.513 61.962L23.798 68.061"/>
  <path stroke-width="0.3" stroke-linejoin="round" d="M40.441 52.676L33.77 58.914"/>
  <path stroke-width="0.3" stroke-linejoin="round" d="M26.089 66.343L25.804 76.021"/>
  <path stroke-width="0.3" stroke-linejoin="round" d="M24.657 67.365L23.49 76.153"/>
  <path stroke-width="0.3" stroke-linejoin="round" d="M15.625 2.452C14.804 5.891 12.416 8.9 10.776 9.961"/>
  <path stroke-width="0.3" stroke-linejoin="round" d="M10.653 10.115C9.948 12.48 8.505 14.108 7.368 15.06"/>
  <path stroke-width="0.3" stroke-linejoin="round" d="M7.429 15.336C7.552 20.065 6.416 22.492 3.714 25.193"/>
  <path stroke-width="0.3" stroke-linejoin="round" d="M3.561 25.44C2.762 27.158 1.933 28.94 1.657 29.923"/>
  <path stroke-width="0.3" stroke-linejoin="round" d="M1.902 29.707C1.902 29.707 3.222 33.024 3.499 33.853C3.775 34.682 4.174 35.481 4.881 35.972C5.588 36.463 5.987 36.862 5.987 37.076"/>
  <path stroke-width="0.3" stroke-linejoin="round" d="M5.802 37.292C4.583 39.216 2.443 42.448 0.633 44.795"/>
  <path stroke-width="0.3" stroke-linejoin="round" d="M5.955 30.384C7.644 37.292 4.881 42.143 1.718 46.35C1.367 46.817 0.992 47.243 0.597 47.634"/>
  <path stroke-width="0.3" stroke-linejoin="round" d="M3.427 25.992C3.427 25.992 4.676 26.852 5.392 27.364C6.11 27.876 6.621 29.042 6.19 29.78C5.761 30.516 4.615 32.441 4.328 32.871C4.041 33.301 3.53 33.402 3.427 33.341"/>
  <path stroke-width="0.3" stroke-linejoin="round" d="M11.361 76.384C11.667 76.322 12.804 76.138 13.172 75.769C13.541 75.402 14.154 74.787 13.971 74.111L21.341 67.662"/>
  <path stroke-width="0.3" stroke-linejoin="round" d="M0.607 67.817C1.068 68.006 1.564 68.093 1.769 67.939L7.419 74.941C7.227 75.117 7.269 75.805 7.538 76.359"/>
  <path stroke-width="0.3" stroke-linejoin="round" d="M11.33 55.594L3.612 61.756C3.366 61.674 2.629 61.838 1.891 62.493C1.496 62.844 0.856 63.536 0.345 64.102"/>
  <path stroke-width="0.3" stroke-linejoin="round" d="M14.984 56.546L21.432 64.1"/>
  <path stroke-width="0.3" stroke-linejoin="round" d="M58.435 35.265C58.435 35.265 47.259 33.792 45.826 33.628C44.393 33.463 44.106 33.094 43.286 32.686C42.469 32.277 40.503 31.048 40.503 31.048"/>
  <path stroke-width="0.3" stroke-linejoin="round" d="M64.888 29.806L72.9 22.553"/>
  <path stroke-width="0.3" stroke-linejoin="round" d="M55.283 38.5L63.13 31.397"/>
  <path stroke-width="0.3" stroke-linejoin="round" d="M57.085 40.588L74.751 25.042"/>
  <path stroke-width="0.3" stroke-linejoin="round" d="M52.079 41.591L49.991 43.557"/>
  <path stroke-width="0.3" stroke-linejoin="round" d="M53.829 43.465L51.25 45.798"/>
  <path stroke-width="0.3" stroke-linejoin="round" d="M65.653 33.146C67.004 36.033 68.018 37.415 68.263 40.884C68.509 44.354 68.908 47.549 68.908 48.96C68.908 50.375 69.399 50.649 70.444 50.957C71.149 51.164 73.043 51.582 74.51 51.898"/>
  <path stroke-width="0.3" stroke-linejoin="round" d="M18.361 76.251C18.809 75.909 19.518 75.371 19.682 75.248C19.928 75.063 20.234 74.634 20.05 74.48C19.867 74.325 19.437 73.805 19.437 73.805"/>
  <path stroke-width="0.3" stroke-linejoin="round" d="M19.62 75.402L19.612 76.418"/>
  <path stroke-width="0.3" stroke-linejoin="round" d="M34.935 71.418C35.442 72.126 36.829 74.233 38.07 76.099"/>
  <path stroke-width="0.3" stroke-linejoin="round" d="M38.496 66.465L38.701 54.427"/>
  <path stroke-width="0.3" stroke-linejoin="round" d="M47.689 53.253C47.436 50.655 46.557 48.176 45.703 45.747"/>
  <path stroke-width="0.3" stroke-linejoin="round" d="M31.333 47.734C31.399 50.119 31.713 52.585 32.476 55.042C34.566 61.756 35.302 64.459 38.292 66.71L39.561 67.447C43.409 68.021 44.475 65.073 46.686 59.914C46.926 59.35 47.122 58.792 47.277 58.24"/>
  <path stroke-width="0.3" stroke-linejoin="round" d="M32.191 36.493C31.884 39.402 31.329 42.899 31.32 46.628"/>
  <path stroke-width="0.3" stroke-linejoin="round" d="M36.463 21.995C37.923 20.056 41.555 16.763 45.478 15.858C50.268 14.753 54.198 13.955 59.848 14.692C65.5 15.429 70.596 16.35 74.588 18.315"/>
  <path stroke-width="0.3" stroke-linejoin="round" d="M40.052 24.132C41.268 22.554 43.154 20.463 46.277 19.789C50.453 18.888 56.512 17.577 62.777 19.297C66.894 20.428 71.24 21.788 74.597 23.169"/>
  <path stroke-width="0.3" stroke-linejoin="round" d="M25.844 40.67C25.844 40.67 25.763 41.776 25.557 43.658C25.353 45.542 23.757 46.484 22.16 47.426L22.047 47.887C22.047 47.887 21.278 48.807 20.603 48.869C19.928 48.93 19.314 48.869 18.545 49.39C17.777 49.914 16.027 50.189 15.628 50.712C15.23 51.234 14.739 52.493 13.724 52.862"/>
  <path stroke-width="0.3" stroke-linejoin="round" d="M27.913 37.139C28.464 35.326 27.85 33.423 26.838 32.348L25.905 32.481C25.434 31.745 24.861 31.233 24.125 30.597C24.144 30.25 24.166 29.585 24.166 29.585C23.675 28.356 20.542 27.435 18.975 28.111C18.806 28.356 18.501 28.74 18.501 28.74L17.87 28.832L17.856 28.525C16.795 27.727 13.74 28.678 12.512 29.57C11.284 30.46 10.423 31.411 9.84 32.286L9.733 33.776L9.365 34.267L9.256 36.218L8.72 36.801C8.72 36.801 8.096 38.137 8.06 38.951C7.982 40.67 8.012 44.293 8.935 45.46C9.855 46.628 11.422 47.334 11.698 47.978"/>
  <path stroke-width="0.3" stroke-linejoin="round" d="M27.667 37.557L27.032 37.518C26.929 38.337 26.356 39.831 25.824 40.569"/>
  <path stroke-width="0.3" stroke-linejoin="round" d="M17.9 26.75L20.193 23.024C20.193 22.574 20.193 22.164 20.193 22.164C20.193 22.164 20.481 21.202 20.727 20.556C20.972 19.911 21.003 18.621 20.879 17.701C20.757 16.78 19.989 14.323 19.743 12.695C19.498 11.067 19.804 8.458 21.064 6.984C21.804 6.117 23.746 4.217 25.833 2.488"/>
  <path stroke-width="0.3" stroke-linejoin="round" d="M13.111 23.259L14.891 19.451C14.615 18.376 12.958 14.108 12.743 12.358C12.656 11.651 12.528 10.051 12.669 8.18"/>
  <path stroke-width="0.3" stroke-linejoin="round" d="M26.868 25.603C28.056 23.884 28.875 22.041 29.12 19.748C29.365 17.455 29.283 13.525 30.963 11.314C32.642 9.102 35.304 6.278 38.292 4.681C39.286 4.15 40.85 3.314 42.68 2.358"/>
  <path stroke-width="0.3" stroke-linejoin="round" d="M24.719 22.92C25.149 21.969 25.603 18.312 25.67 17.178C25.824 14.568 26.454 11.646 26.899 10.454C27.974 7.567 29.539 6.4 30.798 5.325C31.568 4.669 32.637 3.666 34.088 2.546"/>
  <path stroke-width="0.3" stroke-linejoin="round" d="M13.019 23.382C12.343 25.961 15.567 28.295 17.686 26.821"/>
  <path stroke-width="0.3" stroke-linejoin="round" d="M14.789 20.096C13.253 24.129 17.472 26.443 19.969 23.228"/>
  <path stroke-width="0.3" stroke-linejoin="round" d="M12.987 23.33C12.987 23.33 11.493 24.21 11.308 24.396C11.125 24.579 11.146 24.804 11.207 25.091C11.268 25.378 11.637 25.707 11.349 26.237C11.083 26.728 10.996 27.579 11.192 28.096C11.407 28.664 12.006 29.472 12.619 29.452"/>
  <path stroke-width="0.3" stroke-linejoin="round" d="M24.641 22.968C24.641 22.968 23.382 23.658 22.984 23.888C22.585 24.118 22.37 24.44 22.324 24.564C22.001 24.548 21.018 24.503 21.018 24.503L20.234 25.271L20.082 26.1C19.667 26.422 19.329 27.204 19.376 27.85"/>
  <path stroke-width="0.3" stroke-linejoin="round" d="M26.853 25.716C26.699 26.192 26.193 26.468 25.87 26.652C25.548 26.836 24.411 27.282 24.257 27.344C24.242 27.835 24.059 28.862 23.812 29.047"/>
  <path stroke-width="0.3" stroke-linejoin="round" d="M29.346 30.434C29.346 30.434 29.385 32.625 29.385 33.207C29.385 34.56 29.539 34.805 30.307 35.204C30.307 35.204 36.551 38.316 37.247 38.622C37.944 38.93 38.701 39.195 39.377 39.277C40.051 39.36 52.048 40.978 52.048 40.978"/>
  <path stroke-width="0.3" stroke-linejoin="round" d="M29.509 31.786C29.509 31.786 30.553 29.861 30.943 29.125C31.33 28.388 31.966 28.102 32.826 28.182C33.686 28.265 36.756 28.714 38.25 28.899C39.744 29.083 40.216 29.452 40.359 30.147C40.503 30.844 40.625 31.478 40.625 31.478"/>
  <path stroke-width="0.3" stroke-linejoin="round" d="M44.862 20.219C45.316 23.184 45.057 26.018 43.021 32.441"/>
  <path stroke-width="0.3" stroke-linejoin="round" d="M38.076 4.926C40.762 7.61 42.692 11.233 43.654 14.737"/>
  <path stroke-width="0.3" stroke-linejoin="round" d="M30.277 12.634C30.952 12.88 31.751 13.31 31.903 14.108"/>
  <path stroke-width="0.3" stroke-linejoin="round" d="M38.506 17.193L39.689 15.505"/>
  <path stroke-width="0.3" stroke-linejoin="round" d="M38.737 13.801L40.978 17.638"/>
  <path stroke-width="0.3" stroke-linejoin="round" d="M44.402 16.088C44.156 15.659 42.606 13.156 42.084 12.326C41.561 11.497 40.732 10.492 39.826 10.131C39.435 9.893 39.012 9.625 38.737 9.455C38.46 9.287 38.076 9.272 37.662 9.731C37.247 10.192 35.213 12.55 35.213 12.55L34.99 12.295C34.99 12.295 33.869 13.862 33.517 14.353C33.164 14.845 32.81 15.397 32.826 16.364"/>
  <path stroke-width="0.3" stroke-linejoin="round" d="M38.445 17.393L38.506 19.129L38.271 19.564L38.271 19.891"/>
  <path stroke-width="0.3" stroke-linejoin="round" d="M33.854 13.907C33.854 13.907 32.887 13.755 32.671 13.724C32.457 13.692 32.212 13.755 32.057 14C31.903 14.246 29.591 18.068 29.591 18.068C29.591 18.068 29.939 23.597 29.96 23.945C29.981 24.292 30.143 24.416 30.329 24.416C30.513 24.416 30.839 24.416 30.839 24.416L31.024 26.954L29.836 26.893C29.673 27.015 29.242 27.364 29.263 28.039L29.285 29.205"/>
  <path stroke-width="0.3" stroke-linejoin="round" d="M31.823 29.35L31.884 30.353L31.536 32.031L30.41 33.792"/>
  <path stroke-width="0.3" stroke-linejoin="round" d="M55.213 38.612C55.042 39.487 56.134 40.656 56.978 40.686"/>
  <path stroke-width="0.3" stroke-linejoin="round" d="M52.427 40.21C51.598 42.082 53.476 43.634 55.012 43.372C55.012 43.372 57.115 41.698 57.331 41.53C57.545 41.362 58.228 40.862 58.006 39.932"/>
  <path stroke-width="0.3" stroke-linejoin="round" d="M22.324 24.564C21.443 25.521 22.754 27.855 24.144 27.282"/>
  <path stroke-width="0.3" stroke-linejoin="round" d="M24.596 23.044C22.876 24.19 23.879 27.486 26.623 26.033"/>
  <path stroke-width="0.131" stroke-linejoin="round" d="M0.304 12.846C4.235 13.112 7.964 12.349 10.409 10.249"/>
  <path stroke-width="0.131" stroke-linejoin="round" d="M0.245 11.228C6.341 11.465 12.266 8.785 14.47 2.403"/>
  <path stroke-width="0.131" stroke-linejoin="round" d="M0.228 24.385C2.547 23.329 4.52 21.295 5.618 17.946"/>
  <path stroke-width="0.131" stroke-linejoin="round" d="M1.769 67.939L3.929 66.218C4.972 67.51 10.194 73.59 10.194 73.59"/>
  <path stroke-width="0.131" stroke-linejoin="round" d="M14.4 64.909C14.4 65.859 13.612 66.629 12.64 66.629C11.667 66.629 10.88 65.859 10.88 64.909C10.88 63.96 11.667 63.189 12.64 63.189C13.612 63.189 14.4 63.96 14.4 64.909z"/>
  <path stroke-width="0.131" stroke-linejoin="round" d="M16.882 64.817C16.882 67.105 14.983 68.962 12.64 68.962C10.297 68.962 8.397 67.105 8.397 64.817C8.397 62.53 10.297 60.673 12.64 60.673C14.983 60.673 16.882 62.53 16.882 64.817z"/>
  <path stroke-width="0.131" stroke-linejoin="round" d="M18.108 65.033C18.108 68.016 15.632 70.435 12.579 70.435C9.525 70.435 7.049 68.016 7.049 65.033C7.049 62.049 9.525 59.631 12.579 59.631C15.632 59.631 18.108 62.049 18.108 65.033z"/>
  <path stroke-width="0.131" stroke-linejoin="round" d="M18.824 65.052C18.824 68.39 16.056 71.093 12.64 71.093C9.224 71.093 6.456 68.39 6.456 65.052C6.456 61.718 9.224 59.012 12.64 59.012C16.056 59.012 18.824 61.718 18.824 65.052z"/>
  <path stroke-width="0.131" stroke-linejoin="round" d="M11.391 56.271L3.96 62.472"/>
  <path stroke-width="0.131" stroke-linejoin="round" d="M20.634 67.171L13.509 73.375"/>
  <path stroke-width="0.131" stroke-linejoin="round" d="M14.769 57.283L20.757 64.468"/>
  <path stroke-width="0.131" stroke-linejoin="round" d="M13.448 39.042C13.448 39.042 13.971 31.826 14.093 31.007C14.217 30.189 17.271 28.079 20.686 28.92C22.016 29.246 23.634 30.086 24.105 30.495"/>
  <path stroke-width="0.131" stroke-linejoin="round" d="M14.246 30.597L12.496 32.655L11.82 40.362C11.801 40.649 12.169 40.834 12.374 40.896C12.579 40.957 13.234 41.408 13.234 41.734C13.234 42.061 13.234 42.411 13.356 42.575C14.422 43.924 20.44 45.932 22.631 44.253"/>
  <path stroke-width="0.131" stroke-linejoin="round" d="M8.227 43.128C9.272 42.021 10.5 40.517 10.931 40.118C11.361 39.719 12.035 39.533 12.098 39.78"/>
  <path stroke-width="0.131" stroke-linejoin="round" d="M10.736 31.417L9.763 41.283"/>
  <path stroke-width="0.131" stroke-linejoin="round" d="M23.535 35.979C22.992 37.537 21.166 38.32 19.457 37.723C17.75 37.13 16.806 35.384 17.347 33.825C17.89 32.265 19.714 31.484 21.423 32.079C23.132 32.674 24.077 34.42 23.535 35.979z"/>
  <path stroke-width="0.131" stroke-linejoin="round" d="M20.818 36.247C20.818 36.536 20.571 36.77 20.265 36.77C19.96 36.77 19.713 36.536 19.713 36.247C19.713 35.96 19.96 35.726 20.265 35.726C20.571 35.726 20.818 35.96 20.818 36.247z"/>
  <path stroke-width="0.131" stroke-linejoin="round" d="M21.233 33.5C21.233 33.789 20.986 34.021 20.681 34.021C20.375 34.021 20.128 33.789 20.128 33.5C20.128 33.212 20.375 32.978 20.681 32.978C20.986 32.978 21.233 33.212 21.233 33.5z"/>
  <path stroke-width="0.131" stroke-linejoin="round" d="M9.774 41.427L10.163 42.491L11.105 43.74L12.538 44.213L14.585 44.354"/>
  <path stroke-width="0.131" stroke-linejoin="round" d="M49.515 37.875C49.515 37.875 41.685 37.061 40.779 36.985C39.872 36.908 38.537 36.539 38.183 36.356C37.831 36.171 31.189 32.911 31.189 32.911"/>
  <path stroke-width="0.131" stroke-linejoin="round" d="M29.585 34.067L30.844 31.934L31.091 30.291L31.028 29.201"/>
  <path stroke-width="0.131" stroke-linejoin="round" d="M30.384 33.914C30.184 34.176 30.46 34.759 30.629 34.866C30.798 34.973 37.325 38.091 37.692 38.259C38.061 38.427 39.32 38.828 40.441 38.981C41.561 39.134 52.366 40.6 52.366 40.6"/>
  <path stroke-width="0.131" stroke-linejoin="round" d="M49.53 37.884L49.561 38.767L49.981 38.776L49.991 39.002L50.707 39.176"/>
  <path stroke-width="0.131" stroke-linejoin="round" d="M49.582 38.685L50.881 37.6"/>
  <path stroke-width="0.131" stroke-linejoin="round" d="M50.031 38.97L50.472 38.643"/>
  <path stroke-width="0.131" stroke-linejoin="round" d="M49.945 38.759L50.514 38.32"/>
  <path stroke-width="0.131" stroke-linejoin="round" d="M55.917 37.875L48.179 36.841C48.179 36.841 46 36.509 45.768 36.478C45.539 36.448 45.247 36.402 44.54 36.048C43.835 35.695 41.393 34.359 41.393 34.359C41.393 34.359 40.764 33.96 40.594 33.853C40.426 33.746 40.348 33.331 40.38 33.039C40.411 32.747 40.548 31.611 40.548 31.611"/>
  <path stroke-width="0.131" stroke-linejoin="round" d="M40.027 31.596L39.795 33.362C39.758 33.646 39.835 33.807 40.049 33.968C40.265 34.13 44.524 36.478 44.524 36.478C44.764 36.616 45.347 36.808 45.707 36.854C46.069 36.901 50.06 37.415 50.06 37.415"/>
  <path stroke-width="0.131" stroke-linejoin="round" d="M31.881 29.185C31.843 28.917 32.143 28.725 32.465 28.756C32.786 28.786 39.012 29.547 39.012 29.547C39.412 29.593 39.762 29.868 39.765 30.175C39.774 30.713 40.081 31.236 40.033 31.535"/>
  <path stroke-width="0.131" stroke-linejoin="round" d="M49.515 37.822L50.091 37.415"/>
  <path stroke-width="0.131" stroke-linejoin="round" d="M32.417 13.955C32.417 13.955 32.518 17.128 32.518 17.803C32.497 18.109 32.659 18.248 32.99 18.283C33.265 18.315 38.219 19.205 38.219 19.205"/>
  <path stroke-width="0.131" stroke-linejoin="round" d="M30.123 24.012L32.335 20.525L32.243 18.498L32.57 18.181"/>
  <path stroke-width="0.131" stroke-linejoin="round" d="M32.335 20.525C32.396 20.434 32.61 20.419 32.841 20.449C33.072 20.48 37.109 21.047 37.109 21.047"/>
  <path stroke-width="0.131" stroke-linejoin="round" d="M32.265 18.46C32.494 18.722 32.564 18.775 32.979 18.836C33.393 18.899 38.085 19.711 38.085 19.711"/>
  <path stroke-width="0.131" stroke-linejoin="round" d="M30.346 24.396C30.346 24.396 31.881 22.077 32.219 21.585C32.557 21.094 32.871 21.01 33.546 21.102C34.222 21.193 36.557 21.609 36.557 21.609"/>
  <path stroke-width="0.131" stroke-linejoin="round" d="M31.051 25.17C31.051 25.17 32.195 23.466 32.411 23.129C32.615 22.806 32.695 22.667 33.301 22.753C33.777 22.818 34.975 23.004 35.466 23.079"/>
  <path stroke-width="0.131" stroke-linejoin="round" d="M35.271 24.05C35.095 24.332 34.926 24.614 34.853 24.763C34.667 25.132 34.652 25.393 34.759 25.823C34.847 26.172 35.286 27.003 36.387 27.175"/>
  <path stroke-width="0.131" stroke-linejoin="round" d="M31.158 26.298C31.158 26.298 32.512 24.294 32.642 24.103C32.817 23.843 33.055 23.911 33.256 23.949C33.454 23.987 34.783 24.196 34.783 24.196"/>
  <path stroke-width="0.131" stroke-linejoin="round" d="M31.504 27.204L32.118 26.268L32.195 28.065"/>
  <path stroke-width="0.131" stroke-linejoin="round" d="M37.543 27.803C36.796 28.562 34.759 27.64 34.35 27.353L34.131 27.574L34.122 28.164"/>
  <path stroke-width="0.131" stroke-linejoin="round" d="M52.582 51.683C54.301 50.701 56.963 50.457 58.969 53.24C60.975 56.024 63.472 60.365 65.724 64.213C66.576 65.67 68.531 69.049 70.695 72.81"/>
  <path stroke-width="0.131" stroke-linejoin="round" d="M57.289 71.746C57.289 71.746 57.53 73.831 57.79 76.24"/>
  <path stroke-width="0.131" stroke-linejoin="round" d="M50.676 76.108C50.718 74.429 51.372 70.887 52.868 70.846"/>
  <path stroke-width="0.131" stroke-linejoin="round" d="M53.789 76.477C53.789 75.391 52.997 70.14 52.192 69.024C51.393 67.918 49.735 68.144 49.673 70.355C49.612 72.566 49.551 74.92 49.551 74.92"/>
  <path stroke-width="0.131" stroke-linejoin="round" d="M53.024 73.771C52.804 74.792 52.338 75.558 51.981 75.48C51.625 75.403 51.512 74.515 51.731 73.493C51.95 72.471 52.417 71.706 52.774 71.783C53.131 71.859 53.243 72.748 53.024 73.771z"/>
  <path stroke-width="0.131" stroke-linejoin="round" d="M69.819 46.975L74.733 43.536C74.733 43.536 73.914 36.085 73.626 34.161C73.34 32.235 72.521 30.024 71.62 28.879"/>
  <path stroke-width="0.131" stroke-linejoin="round" d="M74.597 47.709C73.129 48.658 70.064 50.701 70.064 50.701"/>
  <path stroke-width="0.131" stroke-linejoin="round" d="M72.234 27.282C73.225 28.679 74.138 30.315 74.766 32.421"/>
  <path stroke-width="0.131" stroke-linejoin="round" d="M67.465 34.866C68.325 36.77 68.969 38.029 69.123 40.301C69.275 42.575 69.778 47.015 69.778 47.015"/>
  <path stroke-width="0.131" stroke-linejoin="round" d="M28.182 55.156L20.849 63.271"/>
  <path stroke-width="0.131" stroke-linejoin="round" d="M34.261 48.432L31.638 51.334"/>
  <path stroke-width="0.131" stroke-linejoin="round" d="M42.143 39.652L38.588 43.612"/>
  <path stroke-width="0.131" stroke-linejoin="round" d="M52.335 28.303L47.387 33.813"/>
  <path stroke-width="0.131" stroke-linejoin="round" d="M60.834 18.838L53.063 27.492"/>
  <path stroke-width="0.131" stroke-linejoin="round" d="M74.602 3.507L64.001 15.311"/>
  <path stroke-width="0.131" stroke-linejoin="round" d="M0.218 50.17L5.924 51.079C6.139 51.863 7.766 52.585 9.303 51.448C9.656 51.188 10.301 50.82 10.669 51.494C11.038 52.17 11.452 53.137 12.006 53.338C12.557 53.536 13.202 53.429 13.679 53.015"/>
  <path stroke-width="0.131" stroke-linejoin="round" d="M2.875 48.02C2.834 48.512 2.834 49.165 3.447 49.104C4.062 49.042 5.065 48.735 5.516 48.796C5.966 48.859 6.58 48.92 6.724 49.003"/>
  <path stroke-width="0.131" stroke-linejoin="round" d="M6.11 38.305C8.135 42.206 5.843 44.804 3.407 45.338"/>
  <path stroke-width="0.131" stroke-linejoin="round" d="M14.381 39.482C15.117 42.307 22.527 44.274 25.64 40.63"/>
  <path stroke-width="0.131" stroke-linejoin="round" d="M32.845 24.047L33.051 28.182"/>
  <path stroke-width="0.3" stroke-linejoin="round" d="M49.823 56.009C50.387 56.728 50.807 57.274 51.149 57.704C52.908 59.914 61.548 67.12 64.209 68.921C65.602 69.864 68.212 71.578 71.09 73.099"/>
  <path stroke-width="0.3" stroke-linejoin="round" d="M34.975 42.759C37.064 42.759 39.356 43.372 41.691 45.951C43.276 47.706 46.229 51.417 48.533 54.35"/>
  <path stroke-width="0.3" stroke-linejoin="round" d="M51.158 62.692C51.874 63.435 52.567 64.1 53.195 64.623C55.143 66.24 60.359 70.742 66.423 74.524"/>
  <path stroke-width="0.3" stroke-linejoin="round" d="M47.24 58.183C48.427 59.662 49.829 61.31 51.158 62.692"/>
  <path stroke-width="0.3" stroke-linejoin="round" d="M46.414 57.191C46.692 57.551 46.926 57.793 47.24 58.183"/>
  <path stroke-width="0.3" stroke-linejoin="round" d="M35.793 46.075C36.941 46.32 38.825 47.549 39.274 48.082C39.725 48.612 43.369 52.871 44.679 54.795"/>
  <path stroke-width="0.3" stroke-linejoin="round" d="M31.454 48.408C32.375 48.777 33.091 48.859 34.587 48.244C36.082 47.631 37.534 46.935 37.534 46.935"/>
  <path stroke-width="0.3" stroke-linejoin="round" d="M51.155 62.646C48.645 69.454 42.219 73.887 36.941 70.641C32.829 68.115 30.123 61.551 28.588 56.393C27.053 51.234 27.605 44.17 27.974 36.862"/>
  <path stroke-width="0.3" stroke-linejoin="round" d="M52.218 56.469C52.218 56.536 52.234 56.695 52.234 56.762C52.229 57.405 52.189 58.04 52.113 58.667"/>
  <path stroke-width="0.3" stroke-linejoin="round" d="M39.234 43.005C40.42 42.021 42.776 41.264 44.146 40.936L45.231 41.039C51.171 42.396 52.177 46.231 52.249 54.473"/>
  <path stroke-width="0.3" stroke-linejoin="round" d="M42.325 46.545C43.462 46.616 45.457 45.942 45.621 45.706"/>
  <path stroke-width="0.131" stroke-linejoin="round" d="M44.085 41.131C41.905 41.878 42.151 45.625 45.499 45.503"/>
  <path stroke-width="0.131" stroke-linejoin="round" d="M43.43 44.182C44.444 43.781 45.262 44.488 45.661 45.594"/>
  <path stroke-width="0.3" stroke-linejoin="round" d="M35.957 47.671C35.957 47.671 35.728 51.356 35.682 51.987C35.636 52.615 35.604 52.984 36.204 52.784C36.801 52.585 37.692 52.231 37.984 52.14C38.277 52.048 38.768 52.14 39.198 52.262C39.628 52.386 43.328 53.168 43.328 53.168"/>
  <path stroke-width="0.131" stroke-linejoin="round" d="M38.829 47.749L38.552 52.17"/>
  <path stroke-width="0.131" stroke-linejoin="round" d="M23.951 67.816L22.87 76.162"/>
  <path stroke-width="0.3" stroke-linejoin="round" d="M26.766 56.351L26.602 54.14"/>
  <path stroke-width="0.131" stroke-linejoin="round" d="M26.745 56.039L24.826 57.375"/>
  <path stroke-width="0.3" stroke-linejoin="round" d="M24.902 57.314L24.12 57.912L24.135 58.527L22.324 59.954L21.71 59.817L20.711 60.737L20.696 61.183L19.774 62.027"/>
  <path stroke-width="0.3" stroke-linejoin="round" d="M20.788 54.795L19.222 56.07L19.236 57.067"/>
  <path stroke-width="0.3" stroke-linejoin="round" d="M21.571 54.811L22.399 54.167"/>
  <path stroke-width="0.3" stroke-linejoin="round" d="M16.687 58.343L17.733 57.436L18.315 57.421L18.899 56.976"/>
  <path stroke-width="0.131" stroke-linejoin="round" d="M22.461 54.106C23.675 54.289 25.379 56.286 24.995 57.222"/>
  <path stroke-width="0.131" stroke-linejoin="round" d="M20.818 54.795C21.617 54.857 22.201 54.981 22.969 55.856"/>
  <path stroke-width="0.131" stroke-linejoin="round" d="M19.298 56.546C20.434 56.822 22.047 58.404 21.801 59.662"/>
  <path stroke-width="0.3" stroke-linejoin="round" d="M22.937 54.182C22.937 54.182 23.411 53.792 23.859 53.424C24.32 53.045 24.986 53.179 25.242 53.322"/>
  <path stroke-width="0.131" stroke-linejoin="round" d="M25.117 53.363C25.117 53.363 25.384 53.24 25.516 53.168C25.649 53.095 26.1 53.25 26.202 53.301C26.304 53.353 26.888 53.752 26.92 53.793C26.949 53.832 26.663 54.039 26.663 54.039"/>
  <path stroke-width="0.131" stroke-linejoin="round" d="M25.516 53.46C25.516 53.46 25.978 53.859 26.009 53.92C26.039 53.981 26.545 54.09 26.545 54.09"/>
  <path stroke-width="0.131" stroke-linejoin="round" d="M17.9 58.865L18.469 59.11L18.714 59.817"/>
  <path stroke-width="0.3" stroke-linejoin="round" d="M46.06 19.911C47.228 21.847 49.838 24.824 51.804 26.452C53.768 28.08 55.887 29.646 58.036 30.076C60.186 30.507 62.49 30.966 65.468 29.585C68.447 28.204 69.153 27.405 70.32 25.992C71.487 24.579 73.054 22.675 73.054 22.675"/>
  <path stroke-width="0.3" stroke-linejoin="round" d="M45.17 20.853C46.295 22.533 47.627 23.945 48.363 24.681C49.1 25.419 52.262 28.323 53.665 29.288C56.881 31.498 60.279 31.745 61.548 31.621C62.817 31.498 65.724 30.905 66.829 30.353C67.936 29.8 69.471 28.489 70.596 27.301C71.722 26.114 73.873 23.556 74.097 23.228"/>
  <path stroke-width="0.131" stroke-linejoin="round" d="M54.24 37.926C54.24 37.926 54.283 38.826 54.322 39.381C54.383 40.256 54.914 40.936 55.631 41.326C56.348 41.713 57.207 41.694 57.412 41.631"/>
  <path stroke-width="0.131" stroke-linejoin="round" d="M46.993 54.692C48.426 54.406 51.804 54.161 52.664 54.837"/>
  <path stroke-width="0.131" stroke-linejoin="round" d="M52.186 56.622C52.31 56.517 52.463 56.393 52.11 56.131C51.758 55.871 50.268 55.841 49.009 55.902C47.75 55.963 47.09 56.593 46.813 57.037"/>
  <path stroke-width="0.131" stroke-linejoin="round" d="M52.694 54.857C52.715 55.225 52.683 56.014 52.683 56.177C52.683 56.341 52.284 56.546 52.203 56.607"/>
  <path stroke-width="0.131" stroke-linejoin="round" d="M52.683 56.177C52.499 55.881 52.131 55.718 51.792 55.707C51.454 55.698 50.073 55.543 49.243 55.636"/>
  <path stroke-width="0.131" stroke-linejoin="round" d="M47.371 56.28L46.756 53.987L45.273 54.469L44.689 55.103C44.689 55.103 45.277 56.784 45.323 56.938C45.369 57.091 45.508 57.161 45.685 57.137C45.862 57.115 46.752 57.023 46.752 57.023"/>
  <path stroke-width="0.131" stroke-linejoin="round" d="M45.301 54.665L45.884 56.246L47.219 56.148"/>
  <path stroke-width="0.131" stroke-linejoin="round" d="M45.378 56.962L45.799 56.177"/>
  <path stroke-width="0.131" stroke-linejoin="round" d="M62.735 38.767C62.92 41.838 64.578 45.03 67.281 49.453C69.397 52.915 73.171 59.28 74.707 61.877"/>
  <path stroke-width="0.131" stroke-linejoin="round" d="M5.065 62.75L8.657 63.118"/>
  <path stroke-width="0.131" stroke-linejoin="round" d="M8.71 59.137L10.532 61.204"/>
  <path stroke-width="0.131" stroke-linejoin="round" d="M11.781 57.212L11.556 60.774"/>
  <path stroke-width="0.131" stroke-linejoin="round" d="M14.503 57.948L14.319 60.959"/>
  <path stroke-width="0.131" stroke-linejoin="round" d="M16.591 59.545L14.811 61.204"/>
  <path stroke-width="0.131" stroke-linejoin="round" d="M20.379 64.213L16.775 63.865"/>
  <path stroke-width="0.131" stroke-linejoin="round" d="M20.071 67.162L16.449 66.813"/>
  <path stroke-width="0.131" stroke-linejoin="round" d="M19.724 66.362L16.756 66.034"/>
  <path stroke-width="0.131" stroke-linejoin="round" d="M16.51 70.662L14.811 68.513"/>
  <path stroke-width="0.131" stroke-linejoin="round" d="M15.752 71.296L14.032 68.799"/>
  <path stroke-width="0.131" stroke-linejoin="round" d="M10.47 72.444L10.92 68.656"/>
  <path stroke-width="0.131" stroke-linejoin="round" d="M4.307 65.686L10.439 72.944"/>
  <path stroke-width="0.131" stroke-linejoin="round" d="M8.381 70.355L10.51 68.471"/>
  <path stroke-width="0.131" stroke-linejoin="round" d="M6.355 68.022L8.586 66.198"/>
  <path stroke-width="0.131" stroke-linejoin="round" d="M4.451 65.605L8.505 65.933"/>
  <path stroke-width="0.131" stroke-linejoin="round" d="M36.796 70.784L35.508 71.153L31.004 70.313C31.004 70.313 30.103 69.781 30.041 69.742C29.98 69.7 29.795 69.597 29.795 69.394C29.795 69.188 29.815 68.153 29.815 68.153L31.536 66.65C31.843 66.603 32.533 66.42 32.656 66.203"/>
  <path stroke-width="0.131" stroke-linejoin="round" d="M29.815 69.198C29.815 69.198 30.89 68.599 31.106 68.477C31.321 68.355 31.443 68.078 31.474 67.739C31.504 67.402 31.612 66.665 31.612 66.665"/>
  <path stroke-width="0.131" stroke-linejoin="round" d="M31.628 66.757L33.04 66.941"/>
  <path stroke-width="0.131" stroke-linejoin="round" d="M31.413 68.17L34.667 68.706"/>
  <path stroke-width="0.131" stroke-linejoin="round" d="M12.743 42.451C12.743 43.061 12.237 43.557 11.614 43.557C10.99 43.557 10.486 43.061 10.486 42.451C10.486 41.841 10.99 41.345 11.614 41.345C12.237 41.345 12.743 41.841 12.743 42.451z"/>
  <path stroke-width="0.131" stroke-linejoin="round" d="M13.121 31.903C13.005 31.943 12.88 31.964 12.75 31.964C12.127 31.964 11.621 31.471 11.621 30.859C11.621 30.248 12.127 29.754 12.75 29.754C13.374 29.754 13.878 30.248 13.878 30.859C13.878 30.907 13.875 30.952 13.869 30.998"/>
  <path stroke-width="0.131" stroke-linejoin="round" d="M25.086 44.325C25.086 44.935 24.582 45.429 23.958 45.429C23.335 45.429 22.829 44.935 22.829 44.325C22.829 43.713 23.335 43.219 23.958 43.219C24.582 43.219 25.086 43.713 25.086 44.325z"/>
  <path stroke-width="0.131" stroke-linejoin="round" d="M9.939 48.929C9.814 49.529 9.156 49.898 8.471 49.753C7.785 49.609 7.331 49.008 7.456 48.408C7.583 47.811 8.239 47.442 8.926 47.585C9.611 47.731 10.064 48.332 9.939 48.929z"/>
  <path stroke-width="0.131" stroke-linejoin="round" d="M10.071 48.478C10.194 48.741 10.234 49.036 10.173 49.328C10.005 50.133 9.119 50.63 8.196 50.435C7.274 50.241 6.663 49.432 6.831 48.627C6.968 47.984 7.557 47.537 8.259 47.482"/>
  <path stroke-width="0.131" stroke-linejoin="round" d="M9.371 48.369L8.696 47.97L8.121 48.325L8.112 48.976L8.673 49.406"/>
  <path stroke-width="0.131" stroke-linejoin="round" d="M12.303 30.649L12.619 30.312L13.194 30.384L13.356 30.966L13.009 31.274L12.506 31.222L12.303 30.649z"/>
  <path stroke-width="0.131" stroke-linejoin="round" d="M23.705 43.853L23.44 44.293L23.725 44.857"/>
  <path stroke-width="0.131" stroke-linejoin="round" d="M11.74 41.847L11.289 42.155L11.237 42.646L11.515 42.921"/>
  <path stroke-width="0.131" stroke-linejoin="round" d="M33.009 16.057C32.948 18.022 35.905 19.371 37.585 18.315C37.792 18.184 37.954 17.87 37.939 17.609"/>
  <path stroke-width="0.131" stroke-linejoin="round" d="M37.939 17.554L39.527 15.329"/>
  <path stroke-width="0.131" stroke-linejoin="round" d="M39.274 15.044C38.706 15.935 36.848 15.782 35.957 14.768"/>
  <path stroke-width="0.131" stroke-linejoin="round" d="M37.969 17.471C37.554 18.1 35.573 18.315 34.561 17.102"/>
  <path stroke-width="0.131" stroke-linejoin="round" d="M35.237 12.634C34.945 13.141 35.082 13.724 35.512 14.23"/>
  <path stroke-width="0.131" stroke-linejoin="round" d="M42.637 16.949C42.637 16.949 40.591 13.653 40.164 12.971C39.473 11.865 38.521 10.439 37.692 11.544"/>
  <path stroke-width="0.131" stroke-linejoin="round" d="M72.07 45.429C72.07 45.429 71.733 40.67 71.396 39.932"/>
  <path stroke-width="0.131" stroke-linejoin="round" d="M30.393 46.703C30.948 46.829 31.51 46.887 32.012 46.811"/>
  <path stroke-width="0.131" stroke-linejoin="round" d="M27.589 45.414C27.745 45.582 28.155 45.845 28.693 46.1"/>
  <path stroke-width="0.131" stroke-linejoin="round" d="M29.053 45.948C28.368 45.661 27.815 45.359 27.681 45.139"/>
  <path stroke-width="0.131" stroke-linejoin="round" d="M32.173 46.819C31.806 46.856 31.091 46.652 30.3 46.402"/>
  <path stroke-width="0.131" stroke-linejoin="round" d="M30.167 47.554C30.719 47.654 31.236 47.668 31.597 47.579C31.597 47.579 32.86 47.171 32.204 46.811"/>
  <path stroke-width="0.131" stroke-linejoin="round" d="M27.605 46.366C27.8 46.587 28.077 46.786 28.397 46.959"/>
  <path stroke-width="0.131" stroke-linejoin="round" d="M28.617 46.335C28.617 46.335 28.457 46.85 28.35 47.164C28.242 47.479 28.12 47.579 28.411 47.749C28.702 47.917 29.248 48.231 29.248 48.231L29.961 48.179L30.437 46.857C30.437 46.857 30.277 46.305 30.216 46.159C30.153 46.014 29.939 46.014 29.739 45.999C29.539 45.982 28.995 45.968 28.879 45.96C28.765 45.951 28.702 46.09 28.617 46.335z"/>
  <path stroke-width="0.131" stroke-linejoin="round" d="M29.248 48.155L29.64 46.918L30.437 46.857"/>
  <path stroke-width="0.131" stroke-linejoin="round" d="M29.64 46.918L28.788 45.999"/>
  <path stroke-width="0.3" stroke-linejoin="round" d="M19.804 55.411C19.344 53.598 20.082 52.308 21.402 50.128C22.722 47.948 23.612 46.566 23.612 46.566"/>
  <path stroke-width="0.3" stroke-linejoin="round" d="M35.527 42.174L37.524 38.889"/>
  <path stroke-width="0.131" stroke-linejoin="round" d="M30.062 26.943C30.614 27.373 30.583 27.896 30.646 28.571"/>
  <path stroke-width="0.3" stroke-linejoin="round" d="M38.936 27.527L39.029 28.971"/>
  <g>
   <path stroke-width="0.131" id="AUTOID_20103" d="M13.451 56.542C13.451 56.542 13.269 56.246 13.031 55.981C12.791 55.719 12.512 55.509 12.512 55.509"/>
   <path stroke-width="0.131" id="AUTOID_20104" d="M14.618 56.426L14.288 56.726"/>
   <path stroke-width="0.131" id="AUTOID_20105" d="M12.743 54.356L12.41 54.655"/>
   <path stroke-width="0.131" id="AUTOID_20106" d="M12.512 55.509L12.182 55.81"/>
   <path stroke-width="0.131" id="AUTOID_20107" d="M13.451 56.542L13.119 56.844"/>
   <path stroke-width="0.131" id="AUTOID_20108" d="M13.451 56.542C13.451 56.542 13.74 56.478 14.073 56.436C14.403 56.395 14.618 56.426 14.618 56.426"/>
   <path stroke-width="0.131" id="AUTOID_20109" d="M12.512 55.509C12.512 55.509 12.606 55.226 12.681 54.901C12.755 54.573 12.746 54.359 12.746 54.359"/>
   <path stroke-width="0.131" id="AUTOID_20110" d="M14.55 56.237C14.936 55.886 14.887 55.201 14.438 54.704C13.989 54.21 13.311 54.094 12.925 54.445C12.537 54.795 12.586 55.481 13.035 55.978C13.484 56.47 14.163 56.588 14.55 56.237z"/>
   <path stroke-width="0.131" id="AUTOID_20111" d="M12.746 54.359C12.746 54.359 13.035 54.292 13.365 54.25C13.698 54.21 13.913 54.24 13.913 54.24"/>
   <path stroke-width="0.131" id="AUTOID_20112" d="M14.618 56.426C14.618 56.426 14.712 56.143 14.788 55.817C14.861 55.49 14.852 55.274 14.852 55.274"/>
   <path stroke-width="0.131" id="AUTOID_20113" d="M14.852 55.274C14.852 55.274 14.672 54.976 14.432 54.71C14.192 54.448 13.913 54.24 13.913 54.24"/>
   <path stroke-width="0.131" id="AUTOID_20114" d="M11.91 54.646C11.349 55.155 11.423 56.146 12.071 56.862C12.72 57.576 13.699 57.744 14.26 57.237"/>
   <path stroke-width="0.131" id="AUTOID_20115" d="M14.454 57.061C14.785 56.761 14.894 56.286 14.791 55.796"/>
   <path stroke-width="0.131" id="AUTOID_20116" d="M13.371 54.25C12.871 54.097 12.41 54.194 12.103 54.47"/>
   <path stroke-width="0.131" id="AUTOID_20117" d="M12.103 54.47C11.544 54.978 11.617 55.969 12.265 56.685C12.913 57.402 13.894 57.569 14.454 57.061"/>
   <path stroke-width="0.131" id="AUTOID_20118" d="M11.91 54.646L12.16 54.42"/>
   <path stroke-width="0.131" id="AUTOID_20119" d="M14.26 57.237L14.507 57.012"/>
   <path stroke-width="0.131" id="AUTOID_20120" d="M13.119 56.844C13.119 56.844 12.939 56.545 12.699 56.283C12.46 56.018 12.182 55.81 12.182 55.81"/>
   <path stroke-width="0.131" id="AUTOID_20121" d="M13.119 56.844C13.119 56.844 13.409 56.779 13.742 56.737C14.073 56.695 14.288 56.726 14.288 56.726"/>
   <path stroke-width="0.131" id="AUTOID_20122" d="M12.182 55.81C12.182 55.81 12.275 55.529 12.349 55.2C12.423 54.875 12.412 54.658 12.412 54.658"/>
  </g>
  <g>
   <path stroke-width="0.131" id="AUTOID_20124" d="M22.1 66.65C22.1 66.65 21.919 66.352 21.681 66.087C21.442 65.825 21.161 65.617 21.161 65.617"/>
   <path stroke-width="0.131" id="AUTOID_20125" d="M23.268 66.533L22.937 66.834"/>
   <path stroke-width="0.131" id="AUTOID_20126" d="M21.391 64.462L21.059 64.762"/>
   <path stroke-width="0.131" id="AUTOID_20127" d="M21.161 65.617L20.83 65.917"/>
   <path stroke-width="0.131" id="AUTOID_20128" d="M22.1 66.65L21.768 66.951"/>
   <path stroke-width="0.131" id="AUTOID_20129" d="M22.1 66.65C22.1 66.65 22.388 66.585 22.722 66.543C23.053 66.501 23.268 66.533 23.268 66.533"/>
   <path stroke-width="0.131" id="AUTOID_20130" d="M21.161 65.617C21.161 65.617 21.256 65.334 21.329 65.007C21.403 64.68 21.396 64.465 21.396 64.465"/>
   <path stroke-width="0.131" id="AUTOID_20131" d="M23.199 66.344C23.585 65.992 23.536 65.308 23.086 64.811C22.638 64.316 21.96 64.2 21.574 64.552C21.185 64.903 21.236 65.587 21.684 66.084C22.134 66.578 22.812 66.695 23.199 66.344z"/>
   <path stroke-width="0.131" id="AUTOID_20132" d="M21.396 64.465C21.396 64.465 21.684 64.4 22.015 64.358C22.347 64.316 22.562 64.346 22.562 64.346"/>
   <path stroke-width="0.131" id="AUTOID_20133" d="M23.268 66.533C23.268 66.533 23.361 66.25 23.437 65.924C23.51 65.597 23.501 65.381 23.501 65.381"/>
   <path stroke-width="0.131" id="AUTOID_20134" d="M23.501 65.381C23.501 65.381 23.321 65.082 23.08 64.819C22.841 64.555 22.562 64.346 22.562 64.346"/>
   <path stroke-width="0.131" id="AUTOID_20135" d="M20.559 64.753C19.998 65.262 20.073 66.253 20.721 66.968C21.37 67.683 22.349 67.852 22.91 67.343"/>
   <path stroke-width="0.131" id="AUTOID_20136" d="M23.103 67.168C23.434 66.867 23.544 66.394 23.44 65.903"/>
   <path stroke-width="0.131" id="AUTOID_20137" d="M22.019 64.358C21.521 64.204 21.059 64.301 20.753 64.578"/>
   <path stroke-width="0.131" id="AUTOID_20138" d="M20.753 64.578C20.193 65.085 20.266 66.075 20.914 66.792C21.564 67.509 22.544 67.676 23.103 67.168"/>
   <path stroke-width="0.131" id="AUTOID_20139" d="M20.559 64.753L20.809 64.528"/>
   <path stroke-width="0.131" id="AUTOID_20140" d="M22.91 67.343L23.158 67.118"/>
   <path stroke-width="0.131" id="AUTOID_20141" d="M21.768 66.951C21.768 66.951 21.588 66.652 21.349 66.39C21.109 66.126 20.83 65.917 20.83 65.917"/>
   <path stroke-width="0.131" id="AUTOID_20142" d="M21.768 66.951C21.768 66.951 22.059 66.885 22.39 66.843C22.722 66.804 22.937 66.834 22.937 66.834"/>
   <path stroke-width="0.131" id="AUTOID_20143" d="M20.83 65.917C20.83 65.917 20.923 65.635 21 65.308C21.071 64.983 21.062 64.766 21.062 64.766"/>
  </g>
  <g>
   <path stroke-width="0.131" id="AUTOID_20145" d="M3.447 64.805C3.447 64.805 3.266 64.506 3.028 64.242C2.789 63.978 2.508 63.771 2.508 63.771"/>
   <path stroke-width="0.131" id="AUTOID_20146" d="M4.615 64.686L4.285 64.986"/>
   <path stroke-width="0.131" id="AUTOID_20147" d="M2.74 62.615L2.407 62.914"/>
   <path stroke-width="0.131" id="AUTOID_20148" d="M2.508 63.771L2.178 64.069"/>
   <path stroke-width="0.131" id="AUTOID_20149" d="M3.447 64.805L3.117 65.105"/>
   <path stroke-width="0.131" id="AUTOID_20150" d="M3.447 64.805C3.447 64.805 3.737 64.739 4.07 64.697C4.4 64.655 4.615 64.686 4.615 64.686"/>
   <path stroke-width="0.131" id="AUTOID_20151" d="M2.508 63.771C2.508 63.771 2.604 63.487 2.677 63.161C2.751 62.835 2.742 62.618 2.742 62.618"/>
   <path stroke-width="0.131" id="AUTOID_20152" d="M4.546 64.498C4.934 64.147 4.883 63.462 4.434 62.966C3.985 62.469 3.307 62.354 2.922 62.704C2.532 63.055 2.584 63.741 3.032 64.237C3.48 64.731 4.158 64.849 4.546 64.498z"/>
   <path stroke-width="0.131" id="AUTOID_20153" d="M2.742 62.618C2.742 62.618 3.032 62.552 3.363 62.511C3.694 62.469 3.911 62.5 3.911 62.5"/>
   <path stroke-width="0.131" id="AUTOID_20154" d="M4.615 64.686C4.615 64.686 4.71 64.403 4.783 64.078C4.857 63.75 4.847 63.534 4.847 63.534"/>
   <path stroke-width="0.131" id="AUTOID_20155" d="M4.847 63.534C4.847 63.534 4.669 63.237 4.429 62.972C4.189 62.709 3.911 62.5 3.911 62.5"/>
   <path stroke-width="0.131" id="AUTOID_20156" d="M1.907 62.906C1.346 63.415 1.419 64.406 2.068 65.121C2.717 65.837 3.695 66.006 4.256 65.498"/>
   <path stroke-width="0.131" id="AUTOID_20157" d="M4.45 65.322C4.783 65.022 4.891 64.548 4.788 64.058"/>
   <path stroke-width="0.131" id="AUTOID_20158" d="M3.367 62.511C2.867 62.357 2.407 62.454 2.1 62.731"/>
   <path stroke-width="0.131" id="AUTOID_20159" d="M2.1 62.731C1.54 63.238 1.613 64.23 2.262 64.944C2.911 65.662 3.891 65.829 4.45 65.322"/>
   <path stroke-width="0.131" id="AUTOID_20160" d="M1.907 62.906L2.156 62.682"/>
   <path stroke-width="0.131" id="AUTOID_20161" d="M4.256 65.498L4.504 65.272"/>
   <path stroke-width="0.131" id="AUTOID_20162" d="M3.117 65.105C3.117 65.105 2.936 64.805 2.697 64.543C2.456 64.28 2.178 64.069 2.178 64.069"/>
   <path stroke-width="0.131" id="AUTOID_20163" d="M3.117 65.105C3.117 65.105 3.406 65.04 3.738 64.998C4.07 64.956 4.285 64.986 4.285 64.986"/>
   <path stroke-width="0.131" id="AUTOID_20164" d="M2.178 64.069C2.178 64.069 2.27 63.789 2.347 63.462C2.419 63.137 2.408 62.92 2.408 62.92"/>
  </g>
  <g>
   <path stroke-width="0.131" id="AUTOID_20166" d="M4.089 30.138C4.089 30.138 3.769 30.03 3.428 29.981C3.088 29.934 2.75 29.954 2.75 29.954"/>
   <path stroke-width="0.131" id="AUTOID_20167" d="M4.883 29.324L4.825 29.754"/>
   <path stroke-width="0.131" id="AUTOID_20168" d="M2.205 28.954L2.142 29.382"/>
   <path stroke-width="0.131" id="AUTOID_20169" d="M2.75 29.954L2.692 30.382"/>
   <path stroke-width="0.131" id="AUTOID_20170" d="M4.089 30.138L4.03 30.567"/>
   <path stroke-width="0.131" id="AUTOID_20171" d="M4.089 30.138C4.089 30.138 4.262 29.911 4.485 29.67C4.703 29.435 4.883 29.324 4.883 29.324"/>
   <path stroke-width="0.131" id="AUTOID_20172" d="M2.75 29.954C2.75 29.954 2.645 29.686 2.496 29.397C2.35 29.109 2.209 28.954 2.209 28.954"/>
   <path stroke-width="0.131" id="AUTOID_20173" d="M4.714 29.228C4.783 28.727 4.32 28.25 3.679 28.16C3.039 28.071 2.463 28.407 2.395 28.908C2.323 29.408 2.788 29.887 3.43 29.975C4.07 30.064 4.644 29.73 4.714 29.228z"/>
   <path stroke-width="0.131" id="AUTOID_20174" d="M2.209 28.954C2.209 28.954 2.382 28.725 2.601 28.489C2.823 28.251 3.001 28.14 3.001 28.14"/>
   <path stroke-width="0.131" id="AUTOID_20175" d="M4.883 29.324C4.883 29.324 4.777 29.056 4.631 28.769C4.482 28.481 4.341 28.327 4.341 28.327"/>
   <path stroke-width="0.131" id="AUTOID_20176" d="M4.341 28.327C4.341 28.327 4.02 28.216 3.679 28.169C3.338 28.121 3.001 28.14 3.001 28.14"/>
   <path stroke-width="0.131" id="AUTOID_20177" d="M2.349 30.871C2.599 31.053 2.913 31.182 3.264 31.231C4.189 31.359 5.02 30.876 5.123 30.15"/>
   <path stroke-width="0.131" id="AUTOID_20178" d="M5.155 29.899C5.216 29.469 5.001 29.05 4.62 28.751"/>
   <path stroke-width="0.131" id="AUTOID_20179" d="M2.605 28.486C2.403 28.571 2.235 28.687 2.107 28.823"/>
   <path stroke-width="0.131" id="AUTOID_20180" d="M2.322 30.574C2.581 30.78 2.916 30.926 3.297 30.98C4.224 31.108 5.056 30.623 5.155 29.899"/>
   <path stroke-width="0.131" id="AUTOID_20181" d="M5.123 30.15L5.165 29.829"/>
   <path stroke-width="0.131" id="AUTOID_20182" d="M4.03 30.567C4.03 30.567 3.71 30.457 3.37 30.411C3.028 30.364 2.692 30.382 2.692 30.382"/>
   <path stroke-width="0.131" id="AUTOID_20183" d="M4.03 30.567C4.03 30.567 4.205 30.338 4.424 30.1C4.645 29.864 4.825 29.754 4.825 29.754"/>
   <path stroke-width="0.131" id="AUTOID_20184" d="M2.692 30.382C2.692 30.382 2.585 30.115 2.438 29.824C2.29 29.539 2.146 29.385 2.146 29.385"/>
  </g>
  <g>
   <path stroke-width="0.131" id="AUTOID_20186" d="M12.151 74.879C12.151 74.879 11.968 74.581 11.73 74.317C11.492 74.055 11.211 73.846 11.211 73.846"/>
   <path stroke-width="0.131" id="AUTOID_20187" d="M13.319 74.762L12.987 75.063"/>
   <path stroke-width="0.131" id="AUTOID_20188" d="M11.442 72.691L11.109 72.992"/>
   <path stroke-width="0.131" id="AUTOID_20189" d="M11.211 73.846L10.881 74.146"/>
   <path stroke-width="0.131" id="AUTOID_20190" d="M12.151 74.879L11.82 75.18"/>
   <path stroke-width="0.131" id="AUTOID_20191" d="M12.151 74.879C12.151 74.879 12.439 74.814 12.772 74.772C13.102 74.73 13.319 74.762 13.319 74.762"/>
   <path stroke-width="0.131" id="AUTOID_20192" d="M11.211 73.846C11.211 73.846 11.307 73.563 11.38 73.237C11.455 72.911 11.445 72.694 11.445 72.694"/>
   <path stroke-width="0.131" id="AUTOID_20193" d="M13.25 74.573C13.637 74.222 13.586 73.537 13.137 73.042C12.689 72.546 12.01 72.43 11.624 72.781C11.237 73.132 11.287 73.817 11.734 74.314C12.183 74.808 12.862 74.926 13.25 74.573z"/>
   <path stroke-width="0.131" id="AUTOID_20194" d="M11.445 72.694C11.445 72.694 11.734 72.629 12.066 72.587C12.397 72.546 12.614 72.575 12.614 72.575"/>
   <path stroke-width="0.131" id="AUTOID_20195" d="M13.319 74.762C13.319 74.762 13.413 74.478 13.487 74.155C13.561 73.826 13.551 73.611 13.551 73.611"/>
   <path stroke-width="0.131" id="AUTOID_20196" d="M13.551 73.611C13.551 73.611 13.371 73.313 13.131 73.048C12.891 72.784 12.614 72.575 12.614 72.575"/>
   <path stroke-width="0.131" id="AUTOID_20197" d="M10.609 72.983C10.048 73.492 10.122 74.483 10.771 75.198C11.419 75.914 12.399 76.081 12.96 75.575"/>
   <path stroke-width="0.131" id="AUTOID_20198" d="M13.153 75.399C13.486 75.097 13.593 74.623 13.49 74.132"/>
   <path stroke-width="0.131" id="AUTOID_20199" d="M12.07 72.587C11.57 72.433 11.109 72.531 10.804 72.808"/>
   <path stroke-width="0.131" id="AUTOID_20200" d="M10.804 72.808C10.243 73.316 10.317 74.305 10.964 75.022C11.614 75.739 12.593 75.906 13.153 75.399"/>
   <path stroke-width="0.131" id="AUTOID_20201" d="M10.609 72.983L10.859 72.757"/>
   <path stroke-width="0.131" id="AUTOID_20202" d="M12.96 75.575L13.208 75.349"/>
   <path stroke-width="0.131" id="AUTOID_20203" d="M11.82 75.18C11.82 75.18 11.638 74.882 11.4 74.62C11.16 74.355 10.881 74.146 10.881 74.146"/>
   <path stroke-width="0.131" id="AUTOID_20204" d="M11.82 75.18C11.82 75.18 12.108 75.114 12.441 75.073C12.772 75.033 12.987 75.063 12.987 75.063"/>
   <path stroke-width="0.131" id="AUTOID_20205" d="M10.881 74.146C10.881 74.146 10.974 73.864 11.05 73.537C11.122 73.212 11.112 72.995 11.112 72.995"/>
  </g>
  <g>
   <path stroke-width="0.131" id="AUTOID_20207" d="M37.131 30.353C37.131 30.353 37.34 30.414 37.554 30.413C37.771 30.411 37.976 30.346 37.976 30.346"/>
   <path stroke-width="0.131" id="AUTOID_20208" d="M36.713 30.722L36.71 30.341"/>
   <path stroke-width="0.131" id="AUTOID_20209" d="M38.405 30.707L38.401 30.327"/>
   <path stroke-width="0.131" id="AUTOID_20210" d="M37.976 30.346L37.973 29.966"/>
   <path stroke-width="0.131" id="AUTOID_20211" d="M37.131 30.353L37.128 29.972"/>
   <path stroke-width="0.131" id="AUTOID_20212" d="M36.826 30.783C36.829 30.986 37.156 31.147 37.561 31.144C37.966 31.14 38.292 30.975 38.29 30.772C38.289 30.571 37.96 30.41 37.555 30.413C37.152 30.416 36.826 30.582 36.826 30.783z"/>
   <path stroke-width="0.131" id="AUTOID_20213" d="M37.131 30.353C37.131 30.353 37.051 30.484 36.923 30.6C36.793 30.716 36.713 30.722 36.713 30.722"/>
   <path stroke-width="0.131" id="AUTOID_20214" d="M37.976 30.346C37.976 30.346 38.058 30.475 38.189 30.589C38.322 30.704 38.402 30.707 38.402 30.707"/>
   <path stroke-width="0.131" id="AUTOID_20215" d="M38.402 30.707C38.402 30.707 38.323 30.839 38.192 30.955C38.064 31.073 37.984 31.077 37.984 31.077"/>
   <path stroke-width="0.131" id="AUTOID_20216" d="M37.139 31.085C37.139 31.085 37.345 31.146 37.561 31.143C37.777 31.143 37.984 31.077 37.984 31.077"/>
   <path stroke-width="0.131" id="AUTOID_20217" d="M36.713 30.722C36.713 30.722 36.795 30.852 36.926 30.966C37.057 31.08 37.139 31.085 37.139 31.085"/>
   <path stroke-width="0.131" id="AUTOID_20218" d="M38.609 30.007C38.607 29.716 38.131 29.483 37.548 29.487C36.963 29.492 36.49 29.733 36.493 30.024"/>
   <path stroke-width="0.131" id="AUTOID_20219" d="M36.494 30.216C36.496 30.335 36.576 30.446 36.712 30.532"/>
   <path stroke-width="0.131" id="AUTOID_20220" d="M38.404 30.516C38.545 30.42 38.612 30.306 38.612 30.199"/>
   <path stroke-width="0.131" id="AUTOID_20221" d="M38.612 30.199C38.609 29.905 38.133 29.673 37.548 29.678C36.965 29.682 36.493 29.923 36.494 30.216"/>
   <path stroke-width="0.131" id="AUTOID_20222" d="M38.609 30.007L38.612 30.222"/>
   <path stroke-width="0.131" id="AUTOID_20223" d="M36.493 30.024L36.496 30.239"/>
   <path stroke-width="0.131" id="AUTOID_20224" d="M37.128 29.972C37.128 29.972 37.337 30.035 37.551 30.033C37.767 30.03 37.973 29.966 37.973 29.966"/>
   <path stroke-width="0.131" id="AUTOID_20225" d="M37.128 29.972C37.128 29.972 37.048 30.105 36.918 30.221C36.79 30.336 36.71 30.341 36.71 30.341"/>
   <path stroke-width="0.131" id="AUTOID_20226" d="M37.973 29.966C37.973 29.966 38.054 30.096 38.186 30.21C38.317 30.324 38.398 30.329 38.398 30.329"/>
  </g>
  <g>
   <path stroke-width="0.131" id="AUTOID_20228" d="M51.534 39.017C51.534 39.017 51.823 39.103 52.121 39.1C52.42 39.097 52.706 39.008 52.706 39.008"/>
   <path stroke-width="0.131" id="AUTOID_20229" d="M50.954 39.529L50.95 39.002"/>
   <path stroke-width="0.131" id="AUTOID_20230" d="M53.298 39.509L53.295 38.982"/>
   <path stroke-width="0.131" id="AUTOID_20231" d="M52.706 39.008L52.701 38.479"/>
   <path stroke-width="0.131" id="AUTOID_20232" d="M51.534 39.017L51.53 38.49"/>
   <path stroke-width="0.131" id="AUTOID_20233" d="M51.109 39.615C51.113 39.895 51.569 40.119 52.13 40.115C52.691 40.109 53.143 39.878 53.14 39.6C53.139 39.319 52.682 39.094 52.121 39.1C51.561 39.103 51.109 39.335 51.109 39.615z"/>
   <path stroke-width="0.131" id="AUTOID_20234" d="M51.534 39.017C51.534 39.017 51.423 39.2 51.246 39.36C51.064 39.521 50.954 39.529 50.954 39.529"/>
   <path stroke-width="0.131" id="AUTOID_20235" d="M52.706 39.008C52.706 39.008 52.82 39.188 53.002 39.345C53.183 39.505 53.295 39.509 53.295 39.509"/>
   <path stroke-width="0.131" id="AUTOID_20236" d="M53.295 39.509C53.295 39.509 53.185 39.692 53.006 39.853C52.826 40.015 52.715 40.021 52.715 40.021"/>
   <path stroke-width="0.131" id="AUTOID_20237" d="M51.542 40.031C51.542 40.031 51.831 40.116 52.128 40.113C52.429 40.112 52.715 40.021 52.715 40.021"/>
   <path stroke-width="0.131" id="AUTOID_20238" d="M50.954 39.529C50.954 39.529 51.067 39.709 51.25 39.868C51.432 40.026 51.542 40.031 51.542 40.031"/>
   <path stroke-width="0.131" id="AUTOID_20239" d="M53.584 38.539C53.579 38.133 52.92 37.81 52.11 37.817C51.301 37.823 50.645 38.156 50.649 38.563"/>
   <path stroke-width="0.131" id="AUTOID_20240" d="M50.651 38.826C50.652 38.993 50.765 39.146 50.951 39.265"/>
   <path stroke-width="0.131" id="AUTOID_20241" d="M53.298 39.244C53.494 39.11 53.588 38.954 53.587 38.802"/>
   <path stroke-width="0.131" id="AUTOID_20242" d="M53.587 38.802C53.582 38.396 52.923 38.073 52.112 38.081C51.302 38.087 50.648 38.42 50.651 38.826"/>
   <path stroke-width="0.131" id="AUTOID_20243" d="M53.584 38.539L53.587 38.835"/>
   <path stroke-width="0.131" id="AUTOID_20244" d="M50.649 38.563L50.652 38.859"/>
   <path stroke-width="0.131" id="AUTOID_20245" d="M51.53 38.49C51.53 38.49 51.817 38.575 52.115 38.573C52.414 38.57 52.701 38.479 52.701 38.479"/>
   <path stroke-width="0.131" id="AUTOID_20246" d="M51.53 38.49C51.53 38.49 51.418 38.671 51.24 38.834C51.06 38.994 50.95 39.002 50.95 39.002"/>
   <path stroke-width="0.131" id="AUTOID_20247" d="M52.701 38.479C52.701 38.479 52.814 38.661 52.997 38.82C53.179 38.978 53.29 38.982 53.29 38.982"/>
  </g>
  <g>
   <path stroke-width="0.131" id="AUTOID_20249" d="M35.607 32.174C35.607 32.174 35.814 32.237 36.03 32.234C36.246 32.232 36.451 32.167 36.451 32.167"/>
   <path stroke-width="0.131" id="AUTOID_20250" d="M35.189 32.543L35.185 32.164"/>
   <path stroke-width="0.131" id="AUTOID_20251" d="M36.88 32.53L36.875 32.149"/>
   <path stroke-width="0.131" id="AUTOID_20252" d="M36.451 32.167L36.45 31.788"/>
   <path stroke-width="0.131" id="AUTOID_20253" d="M35.607 32.174L35.603 31.795"/>
   <path stroke-width="0.131" id="AUTOID_20254" d="M35.301 32.606C35.304 32.807 35.633 32.969 36.036 32.966C36.441 32.963 36.767 32.796 36.765 32.594C36.765 32.392 36.435 32.231 36.03 32.234C35.627 32.237 35.301 32.404 35.301 32.606z"/>
   <path stroke-width="0.131" id="AUTOID_20255" d="M35.607 32.174C35.607 32.174 35.527 32.307 35.399 32.421C35.268 32.539 35.189 32.543 35.189 32.543"/>
   <path stroke-width="0.131" id="AUTOID_20256" d="M36.451 32.167C36.451 32.167 36.533 32.298 36.664 32.411C36.796 32.526 36.877 32.53 36.877 32.53"/>
   <path stroke-width="0.131" id="AUTOID_20257" d="M36.877 32.53C36.877 32.53 36.798 32.661 36.667 32.777C36.537 32.893 36.457 32.899 36.457 32.899"/>
   <path stroke-width="0.131" id="AUTOID_20258" d="M35.612 32.905C35.612 32.905 35.82 32.966 36.036 32.965C36.252 32.963 36.457 32.899 36.457 32.899"/>
   <path stroke-width="0.131" id="AUTOID_20259" d="M35.189 32.543C35.189 32.543 35.271 32.673 35.402 32.787C35.533 32.902 35.612 32.905 35.612 32.905"/>
   <path stroke-width="0.131" id="AUTOID_20260" d="M37.085 31.829C37.082 31.538 36.606 31.304 36.023 31.309C35.439 31.314 34.966 31.554 34.969 31.847"/>
   <path stroke-width="0.131" id="AUTOID_20261" d="M34.969 32.036C34.972 32.156 35.052 32.268 35.188 32.354"/>
   <path stroke-width="0.131" id="AUTOID_20262" d="M36.878 32.338C37.021 32.241 37.088 32.13 37.087 32.02"/>
   <path stroke-width="0.131" id="AUTOID_20263" d="M37.087 32.02C37.085 31.727 36.609 31.495 36.024 31.498C35.439 31.504 34.968 31.745 34.969 32.036"/>
   <path stroke-width="0.131" id="AUTOID_20264" d="M37.085 31.829L37.088 32.043"/>
   <path stroke-width="0.131" id="AUTOID_20265" d="M34.969 31.847L34.97 32.06"/>
   <path stroke-width="0.131" id="AUTOID_20266" d="M35.603 31.795C35.603 31.795 35.811 31.856 36.027 31.855C36.241 31.853 36.45 31.788 36.45 31.788"/>
   <path stroke-width="0.131" id="AUTOID_20267" d="M35.603 31.795C35.603 31.795 35.524 31.925 35.395 32.042C35.265 32.158 35.185 32.164 35.185 32.164"/>
   <path stroke-width="0.131" id="AUTOID_20268" d="M36.45 31.788C36.45 31.788 36.53 31.917 36.661 32.031C36.792 32.146 36.874 32.149 36.874 32.149"/>
  </g>
  <g>
   <path stroke-width="0.131" id="AUTOID_20270" d="M32.975 29.871C32.975 29.871 33.183 29.934 33.399 29.931C33.615 29.931 33.82 29.864 33.82 29.864"/>
   <path stroke-width="0.131" id="AUTOID_20271" d="M32.557 30.24L32.554 29.861"/>
   <path stroke-width="0.131" id="AUTOID_20272" d="M34.247 30.228L34.244 29.847"/>
   <path stroke-width="0.131" id="AUTOID_20273" d="M33.82 29.864L33.817 29.484"/>
   <path stroke-width="0.131" id="AUTOID_20274" d="M32.975 29.871L32.972 29.492"/>
   <path stroke-width="0.131" id="AUTOID_20275" d="M32.67 30.303C32.673 30.506 33 30.667 33.405 30.664C33.81 30.661 34.136 30.493 34.134 30.292C34.133 30.089 33.804 29.928 33.399 29.931C32.994 29.934 32.668 30.102 32.67 30.303z"/>
   <path stroke-width="0.131" id="AUTOID_20276" d="M32.975 29.871C32.975 29.871 32.896 30.004 32.768 30.12C32.637 30.236 32.557 30.24 32.557 30.24"/>
   <path stroke-width="0.131" id="AUTOID_20277" d="M33.82 29.864C33.82 29.864 33.902 29.995 34.033 30.109C34.164 30.224 34.246 30.228 34.246 30.228"/>
   <path stroke-width="0.131" id="AUTOID_20278" d="M34.246 30.228C34.246 30.228 34.167 30.359 34.036 30.475C33.906 30.591 33.826 30.597 33.826 30.597"/>
   <path stroke-width="0.131" id="AUTOID_20279" d="M32.981 30.603C32.981 30.603 33.189 30.664 33.405 30.663C33.621 30.661 33.826 30.597 33.826 30.597"/>
   <path stroke-width="0.131" id="AUTOID_20280" d="M32.557 30.24C32.557 30.24 32.639 30.371 32.77 30.486C32.902 30.6 32.981 30.603 32.981 30.603"/>
   <path stroke-width="0.131" id="AUTOID_20281" d="M34.454 29.527C34.451 29.234 33.975 29.001 33.392 29.007C32.807 29.01 32.335 29.251 32.337 29.544"/>
   <path stroke-width="0.131" id="AUTOID_20282" d="M32.338 29.734C32.34 29.855 32.42 29.964 32.555 30.051"/>
   <path stroke-width="0.131" id="AUTOID_20283" d="M34.246 30.036C34.39 29.94 34.457 29.826 34.456 29.718"/>
   <path stroke-width="0.131" id="AUTOID_20284" d="M34.456 29.718C34.453 29.425 33.978 29.192 33.393 29.196C32.808 29.202 32.337 29.442 32.338 29.734"/>
   <path stroke-width="0.131" id="AUTOID_20285" d="M34.454 29.527L34.456 29.74"/>
   <path stroke-width="0.131" id="AUTOID_20286" d="M32.337 29.544L32.34 29.757"/>
   <path stroke-width="0.131" id="AUTOID_20287" d="M32.972 29.492C32.972 29.492 33.18 29.553 33.396 29.551C33.61 29.55 33.817 29.484 33.817 29.484"/>
   <path stroke-width="0.131" id="AUTOID_20288" d="M32.972 29.492C32.972 29.492 32.893 29.623 32.762 29.739C32.634 29.856 32.554 29.861 32.554 29.861"/>
   <path stroke-width="0.131" id="AUTOID_20289" d="M33.817 29.484C33.817 29.484 33.899 29.614 34.03 29.73C34.161 29.844 34.241 29.847 34.241 29.847"/>
  </g>
  <g>
   <path stroke-width="0.131" id="AUTOID_20291" d="M31.67 31.936C31.748 31.954 31.885 31.981 32.027 31.978C32.243 31.978 32.448 31.913 32.448 31.913"/>
   <path stroke-width="0.131" id="AUTOID_20292" d="M32.877 32.274L32.872 31.894"/>
   <path stroke-width="0.131" id="AUTOID_20293" d="M32.448 31.913L32.445 31.533"/>
   <path stroke-width="0.131" id="AUTOID_20294" d="M31.381 32.518C31.504 32.634 31.751 32.713 32.033 32.71C32.438 32.707 32.765 32.54 32.762 32.338C32.762 32.137 32.432 31.975 32.027 31.978C31.91 31.98 31.798 31.995 31.699 32.021"/>
   <path stroke-width="0.131" id="AUTOID_20295" d="M32.448 31.913C32.448 31.913 32.53 32.042 32.661 32.156C32.793 32.271 32.874 32.274 32.874 32.274"/>
   <path stroke-width="0.131" id="AUTOID_20296" d="M32.874 32.274C32.874 32.274 32.795 32.405 32.664 32.521C32.536 32.639 32.454 32.643 32.454 32.643"/>
   <path stroke-width="0.131" id="AUTOID_20297" d="M31.611 32.649C31.611 32.649 31.818 32.712 32.033 32.71C32.249 32.709 32.454 32.643 32.454 32.643"/>
   <path stroke-width="0.131" id="AUTOID_20298" d="M31.399 32.533C31.53 32.646 31.611 32.649 31.611 32.649"/>
   <path stroke-width="0.131" id="AUTOID_20299" d="M33.082 31.574C33.079 31.282 32.603 31.05 32.02 31.053C31.949 31.053 31.881 31.057 31.814 31.065"/>
   <path stroke-width="0.131" id="AUTOID_20300" d="M32.875 32.082C33.018 31.986 33.085 31.873 33.084 31.765"/>
   <path stroke-width="0.131" id="AUTOID_20301" d="M33.084 31.765C33.082 31.472 32.604 31.239 32.021 31.243C31.934 31.245 31.849 31.251 31.768 31.262"/>
   <path stroke-width="0.131" id="AUTOID_20302" d="M33.082 31.574L33.084 31.788"/>
   <path stroke-width="0.131" id="AUTOID_20303" d="M31.765 31.576C31.839 31.588 31.931 31.6 32.024 31.599C32.238 31.597 32.445 31.533 32.445 31.533"/>
   <path stroke-width="0.131" id="AUTOID_20304" d="M32.445 31.533C32.445 31.533 32.527 31.661 32.658 31.777C32.789 31.89 32.869 31.894 32.869 31.894"/>
  </g>
  <g>
   <path stroke-width="0.131" id="AUTOID_20306" d="M32.497 43.069C32.61 42.905 32.932 42.929 33.216 43.125C33.31 43.189 33.387 43.264 33.444 43.338"/>
   <path stroke-width="0.131" id="AUTOID_20307" d="M32.487 43.338C32.445 43.229 32.453 43.134 32.497 43.069"/>
   <path stroke-width="0.131" id="AUTOID_20308" d="M32.497 43.069L33.466 41.654"/>
   <path stroke-width="0.131" id="AUTOID_20309" d="M33.466 41.654C33.579 41.49 33.902 41.515 34.185 41.709C34.258 41.759 34.322 41.816 34.371 41.871"/>
   <path stroke-width="0.131" id="AUTOID_20310" d="M32.274 43.649C32.36 43.523 32.609 43.542 32.826 43.692C33.045 43.841 33.154 44.066 33.067 44.192"/>
   <path stroke-width="0.131" id="AUTOID_20311" d="M33.067 44.192C32.981 44.319 32.732 44.299 32.512 44.149C32.295 44 32.188 43.776 32.274 43.649"/>
   <path stroke-width="0.131" id="AUTOID_20312" d="M32.615 43.149C32.703 43.024 32.951 43.042 33.17 43.192C33.389 43.341 33.494 43.566 33.408 43.692"/>
   <path stroke-width="0.131" id="AUTOID_20313" d="M32.615 43.149L32.274 43.649"/>
   <path stroke-width="0.131" id="AUTOID_20314" d="M33.408 43.692L33.076 44.176"/>
   <g>
    <path stroke-width="0.131" id="AUTOID_20315" d="M32.378 43.719L32.625 43.674L32.917 43.875L32.963 44.121L32.716 44.167L32.424 43.966L32.378 43.719z"/>
   </g>
   <path stroke-width="0.131" id="AUTOID_20317" d="M34.606 42.112L34.82 42.13"/>
   <path stroke-width="0.131" id="AUTOID_20318" d="M34.82 42.13L35.055 42.459"/>
   <path stroke-width="0.131" id="AUTOID_20319" d="M33.872 43.576L34.113 43.911"/>
   <path stroke-width="0.131" id="AUTOID_20320" d="M33.783 43.71L33.396 43.746"/>
   <path stroke-width="0.131" id="AUTOID_20321" d="M34.121 43.921L33.948 43.938"/>
   <path stroke-width="0.131" id="AUTOID_20322" d="M33.948 43.938L33.783 43.71"/>
   <path stroke-width="0.131" id="AUTOID_20323" d="M33.811 43.787C33.639 44.097 33.392 44.837 33.392 44.837L32.715 44.957"/>
   <path stroke-width="0.131" id="AUTOID_20324" d="M32.712 44.103L32.851 43.901"/>
   <path stroke-width="0.131" id="AUTOID_20325" d="M32.424 43.966L32.567 43.756"/>
   <path stroke-width="0.131" id="AUTOID_20326" d="M34.124 43.902C34.283 43.351 34.709 42.673 35.055 42.459"/>
   <path stroke-width="0.131" id="AUTOID_20327" d="M35.743 46.512C34.86 46.631 34.02 45.79 33.865 44.639C33.829 44.356 33.835 44.082 33.878 43.841"/>
   <path stroke-width="0.131" id="AUTOID_20328" d="M36.344 46.265C36.167 46.396 35.965 46.482 35.743 46.512"/>
   <path stroke-width="0.131" id="AUTOID_20329" d="M34.997 42.378C35.064 42.359 35.128 42.344 35.186 42.338C35.642 42.277 36.085 42.469 36.429 42.828"/>
   <path stroke-width="0.131" id="AUTOID_20330" d="M35.009 46.582C34.189 46.643 33.435 45.899 33.229 44.865"/>
   <path stroke-width="0.131" id="AUTOID_20331" d="M33.838 43.408C34.033 42.729 34.482 42.261 34.82 42.13"/>
   <path stroke-width="0.131" id="AUTOID_20332" d="M33.726 43.146C33.898 42.756 34.197 42.368 34.401 42.253"/>
   <path stroke-width="0.131" id="AUTOID_20333" d="M34.606 42.112C34.53 42.103 34.432 41.932 34.371 41.871"/>
   <path stroke-width="0.131" id="AUTOID_20334" d="M33.82 43.536C33.707 43.548 33.563 43.5 33.463 43.359"/>
   <path stroke-width="0.131" id="AUTOID_20335" d="M32.715 44.957C32.77 44.694 32.887 44.387 32.92 44.299"/>
   <path stroke-width="0.131" id="AUTOID_20336" d="M35.67 46.533L35.009 46.582"/>
  </g>
  <g>
   <path stroke-width="0.131" id="AUTOID_20338" d="M37.27 27.454C37.493 27.455 37.677 27.143 37.68 26.757C37.682 26.628 37.664 26.507 37.63 26.408"/>
   <path stroke-width="0.131" id="AUTOID_20339" d="M37.014 27.291C37.088 27.4 37.18 27.454 37.27 27.454"/>
   <path stroke-width="0.131" id="AUTOID_20340" d="M37.27 27.454L39.2 27.469"/>
   <path stroke-width="0.131" id="AUTOID_20341" d="M39.2 27.469C39.423 27.472 39.606 27.158 39.609 26.771C39.61 26.673 39.6 26.577 39.579 26.496"/>
   <path stroke-width="0.131" id="AUTOID_20342" d="M36.59 27.288C36.762 27.289 36.904 27.047 36.908 26.75C36.908 26.452 36.771 26.207 36.6 26.207"/>
   <path stroke-width="0.131" id="AUTOID_20343" d="M36.6 26.207C36.427 26.205 36.286 26.446 36.283 26.745C36.28 27.044 36.417 27.286 36.59 27.288"/>
   <path stroke-width="0.131" id="AUTOID_20344" d="M37.271 27.292C37.445 27.295 37.585 27.053 37.587 26.756C37.591 26.457 37.453 26.213 37.28 26.213"/>
   <path stroke-width="0.131" id="AUTOID_20345" d="M37.271 27.292L36.59 27.288"/>
   <path stroke-width="0.131" id="AUTOID_20346" d="M37.28 26.213L36.621 26.207"/>
   <g>
    <path stroke-width="0.131" id="AUTOID_20347" d="M36.591 27.146L36.792 26.948L36.796 26.55L36.598 26.349L36.398 26.545L36.395 26.945L36.591 27.146z"/>
   </g>
   <path stroke-width="0.131" id="AUTOID_20349" d="M39.508 26.123L39.63 25.916"/>
   <path stroke-width="0.131" id="AUTOID_20350" d="M39.63 25.916L39.476 25.486"/>
   <path stroke-width="0.131" id="AUTOID_20351" d="M37.686 25.859L37.53 25.422"/>
   <path stroke-width="0.131" id="AUTOID_20352" d="M37.506 25.856L37.222 26.19"/>
   <path stroke-width="0.131" id="AUTOID_20353" d="M37.527 25.408L37.401 25.556"/>
   <path stroke-width="0.131" id="AUTOID_20354" d="M37.401 25.556L37.506 25.856"/>
   <path stroke-width="0.131" id="AUTOID_20355" d="M37.451 25.78C37.054 25.742 36.213 25.492 36.213 25.492L35.667 26.039"/>
   <path stroke-width="0.131" id="AUTOID_20356" d="M36.453 26.591L36.731 26.593"/>
   <path stroke-width="0.131" id="AUTOID_20357" d="M36.395 26.945L36.679 26.946"/>
   <path stroke-width="0.131" id="AUTOID_20358" d="M37.546 25.42C38.156 25.625 39.057 25.67 39.476 25.486"/>
   <path stroke-width="0.131" id="AUTOID_20359" d="M36.18 22.245C35.503 22.984 35.737 24.3 36.704 25.182C36.936 25.399 37.195 25.568 37.445 25.684"/>
   <path stroke-width="0.131" id="AUTOID_20360" d="M36.387 22.06C36.313 22.114 36.244 22.175 36.18 22.245"/>
   <path stroke-width="0.131" id="AUTOID_20361" d="M39.515 25.593C39.576 25.545 39.63 25.492 39.673 25.443C39.969 25.123 40.091 24.69 40.055 24.234"/>
   <path stroke-width="0.131" id="AUTOID_20362" d="M35.643 22.878C35.06 23.594 35.262 24.769 36.082 25.623"/>
   <path stroke-width="0.131" id="AUTOID_20363" d="M37.819 25.998C38.57 26.257 39.292 26.143 39.63 25.916"/>
   <path stroke-width="0.131" id="AUTOID_20364" d="M39.508 26.123C39.466 26.201 39.561 26.4 39.579 26.498"/>
   <path stroke-width="0.131" id="AUTOID_20365" d="M37.689 25.934C37.606 26.03 37.557 26.195 37.621 26.376"/>
   <path stroke-width="0.131" id="AUTOID_20366" d="M35.667 26.039C35.947 26.157 36.301 26.248 36.405 26.272"/>
   <path stroke-width="0.131" id="AUTOID_20367" d="M36.113 22.3L35.643 22.878"/>
  </g>
  <g>
   <g>
    <path stroke-width="0.131" id="AUTOID_20369" d="M27.899 31.033L28.429 30.919"/>
    <path stroke-width="0.131" id="AUTOID_20370" d="M28 30.557C28 30.557 27.868 30.716 27.844 30.821C27.821 30.925 27.899 31.033 27.899 31.033"/>
    <path stroke-width="0.131" id="AUTOID_20371" d="M27.809 29.69C27.809 29.69 27.625 29.6 27.559 29.515C27.495 29.431 27.521 29.298 27.521 29.298"/>
    <path stroke-width="0.131" id="AUTOID_20372" d="M28 30.557L28.53 30.443"/>
    <path stroke-width="0.131" id="AUTOID_20373" d="M27.809 29.69L28.339 29.574"/>
    <path stroke-width="0.131" id="AUTOID_20374" d="M27.521 29.298L28.05 29.184"/>
    <path stroke-width="0.131" id="AUTOID_20375" d="M28.429 30.919L28.53 30.443"/>
    <path stroke-width="0.131" id="AUTOID_20376" d="M28.53 30.443L28.339 29.574"/>
    <path stroke-width="0.131" id="AUTOID_20377" d="M28.339 29.574L28.05 29.184"/>
    <path stroke-width="0.131" id="AUTOID_20378" d="M27.809 29.69C27.809 29.69 27.754 29.923 27.803 30.146C27.852 30.368 28 30.557 28 30.557"/>
    <path stroke-width="0.131" id="AUTOID_20379" d="M27.443 29.435C27.405 29.443 27.379 29.489 27.365 29.562"/>
    <path stroke-width="0.131" id="AUTOID_20380" d="M27.647 30.855C27.696 30.92 27.736 30.946 27.771 30.937C27.878 30.914 27.891 30.559 27.8 30.143C27.71 29.728 27.55 29.411 27.443 29.435"/>
    <path stroke-width="0.131" id="AUTOID_20381" d="M27.365 29.562C27.335 29.714 27.356 29.969 27.411 30.228C27.472 30.503 27.562 30.734 27.647 30.855"/>
    <path stroke-width="0.131" id="AUTOID_20382" d="M27.521 29.298C27.521 29.298 27.399 29.397 27.365 29.562"/>
    <path stroke-width="0.131" id="AUTOID_20383" d="M27.899 31.033C27.899 31.033 27.757 31.001 27.649 30.859"/>
   </g>
   <g>
    <path stroke-width="0.131" id="AUTOID_20385" d="M29.676 29.242L28.315 29.539"/>
    <path stroke-width="0.131" id="AUTOID_20386" d="M29.878 30.169L28.524 30.463"/>
    <path stroke-width="0.131" id="AUTOID_20387" d="M28.687 30.428C28.73 30.419 28.748 30.326 28.742 30.19"/>
    <path stroke-width="0.131" id="AUTOID_20388" d="M28.708 29.946C28.696 29.888 28.679 29.83 28.664 29.783"/>
    <path stroke-width="0.131" id="AUTOID_20389" d="M28.687 30.428C28.754 30.414 28.762 30.195 28.707 29.94"/>
    <path stroke-width="0.131" id="AUTOID_20390" d="M28.687 30.428C28.754 30.414 28.762 30.195 28.707 29.94"/>
    <path stroke-width="0.131" id="AUTOID_20391" d="M28.896 30.384C28.939 30.373 28.957 30.28 28.951 30.143"/>
    <path stroke-width="0.131" id="AUTOID_20392" d="M28.917 29.902L28.914 29.893C28.859 29.638 28.76 29.443 28.695 29.457"/>
    <path stroke-width="0.131" id="AUTOID_20393" d="M28.896 30.384C28.961 30.367 28.971 30.149 28.914 29.893"/>
    <path stroke-width="0.131" id="AUTOID_20394" d="M28.896 30.384C28.961 30.367 28.971 30.149 28.914 29.893"/>
    <path stroke-width="0.131" id="AUTOID_20395" d="M29.411 30.271C29.454 30.26 29.474 30.167 29.466 30.032"/>
    <path stroke-width="0.131" id="AUTOID_20396" d="M29.432 29.789L29.431 29.78C29.376 29.525 29.275 29.329 29.21 29.344"/>
    <path stroke-width="0.131" id="AUTOID_20397" d="M29.411 30.271C29.478 30.256 29.486 30.036 29.431 29.78"/>
    <path stroke-width="0.131" id="AUTOID_20398" d="M29.411 30.271C29.478 30.256 29.486 30.036 29.431 29.78"/>
    <path stroke-width="0.131" id="AUTOID_20399" d="M29.638 30.222C29.679 30.211 29.699 30.117 29.693 29.983"/>
    <path stroke-width="0.131" id="AUTOID_20400" d="M29.658 29.739L29.657 29.731C29.6 29.477 29.501 29.28 29.435 29.295"/>
    <path stroke-width="0.131" id="AUTOID_20401" d="M29.638 30.222C29.704 30.205 29.713 29.987 29.657 29.731"/>
    <path stroke-width="0.131" id="AUTOID_20402" d="M29.638 30.222C29.704 30.205 29.713 29.987 29.657 29.731"/>
    <path stroke-width="0.131" id="AUTOID_20403" d="M29.878 30.169C29.945 30.153 29.952 29.934 29.897 29.679C29.841 29.423 29.742 29.228 29.676 29.242"/>
    <path stroke-width="0.131" id="AUTOID_20404" d="M29.878 30.169C29.945 30.153 29.952 29.934 29.897 29.679"/>
    <path stroke-width="0.131" id="AUTOID_20405" d="M29.878 30.169C29.945 30.153 29.952 29.934 29.897 29.679"/>
    <path stroke-width="0.131" id="AUTOID_20406" d="M29.878 30.169L28.768 30.411"/>
    <path stroke-width="0.131" id="AUTOID_20407" d="M29.676 29.242L28.565 29.484"/>
    <path stroke-width="0.131" id="AUTOID_20408" d="M29.149 30.327C29.193 30.318 29.211 30.225 29.204 30.088"/>
    <path stroke-width="0.131" id="AUTOID_20409" d="M29.17 29.846L29.17 29.838C29.114 29.582 29.015 29.387 28.949 29.4"/>
    <path stroke-width="0.131" id="AUTOID_20410" d="M29.149 30.327C29.216 30.314 29.225 30.094 29.17 29.838"/>
    <path stroke-width="0.131" id="AUTOID_20411" d="M29.149 30.327C29.216 30.314 29.225 30.094 29.17 29.838"/>
   </g>
  </g>
  <path stroke-width="0.3" stroke-linejoin="round" d="M28.024 34.584C28.068 33.636 28.153 31.853 29.26 30.908"/>
  <g>
   <path stroke="#FFFFFF" stroke-width="0.501" d="M57.201 26.919L37.844 30.556"/>
   <path stroke-width="0.131" d="M57.511 26.853L37.844 30.556"/>
  </g>
  <g>
   <path stroke="#FFFFFF" stroke-width="0.501" d="M44.767 6.435L36.756 25.44"/>
   <path stroke-width="0.131" d="M45.097 5.686L36.756 25.44"/>
  </g>
  <g>
   <path stroke="#FFFFFF" stroke-width="0.501" d="M44.414 6.362L28.902 33.963"/>
   <path stroke-width="0.131" d="M44.811 5.657L28.891 33.984"/>
  </g>
  <g>
   <path stroke="#FFFFFF" stroke-width="0.501" d="M44.201 5.95L35.697 14.74"/>
   <path stroke-width="0.131" d="M44.656 5.509L35.697 14.74"/>
  </g>
 </g>
 <g id="Layer_x0020_10">
  <g>
   <g>
    <path stroke="none" fill="#FFFFFF" d="M31.538 48.24L31.772 48.078 32.39 47.784 32.802 47.74 33.17 48.328 33.258 48.621 32.728 49.24 32.082 49.783 31.743 50.048"/>
   </g>
   <path stroke="none" fill="#FFFFFF" d="M7.351 68.811L8.445 66.95 11.326 63.63 12.003 63.13 13.855 61.572 14.884 60.659 15.324 60.307 15.221 59.792 14.795 59.161 14.502 58.484 14.714 58.183 15.089 58.557 15.663 59.088 16.088 59.514 16.353 59.542 17.03 59.307 18.411 58.514 19.882 57.573 21.41 56.72 22.498 56.015 23.968 55.31 24.731 54.957 25.172 54.162 25.731 53.31 26.408 52.31 26.849 51.546 27.378 50.959 27.547 50.819 27.403 51.459 27.667 52.826 27.856 53.884 27.966 54.545 28.065 55.152 28.553 54.78 29.26 54.398 29.464 54.162 29.993 53.634 30.759 52.987 31.14 52.545 31.522 52.017 31.788 51.487 32.082 51.076 32.61 50.459 33.258 49.901 33.728 49.518 33.933 49.341 34.316 49.488 34.521 49.901 34.491 50.341 34.109 51.164 33.493 52.604 32.698 53.81 31.522 54.75 30.582 55.485 28.936 56.543 28.024 57.073 27.083 58.073 26.408 58.807 24.821 60.865 22.733 63.365 22.175 64.012 21.821 64.658 21.234 65.481 20.792 66.216 20.234 66.805 19.263 67.891 17.911 69.156 17.088 69.685 14.502 71.713 12.121 73.066 11.15 73.212 10.679 72.742 10.943 72.242 11.326 71.802 11.826 71.478 13.09 70.656 14.266 69.774 15.913 68.421 18.823 64.805 19.469 64.07 18.969 63.865 18.763 63.746 18.528 64.099 18.294 64.334 17.853 63.953 17.646 63.63 17.324 63.776 16.265 64.275 15.589 64.775 14.942 65.481 14.708 65.98 14.266 67.01 14.148 68.01 13.913 68.802 13.532 69.067 12.943 69.302 12.679 68.921 12.737 67.51 13.148 65.923 13.766 64.54 14.089 64.129 12.826 65.129 11.032 66.775 9.945 68.186 9.239 69.039 8.593 69.186 7.769 69.186 7.351 68.811z"/>
   <g>
    <path stroke-width="0.13" d="M26.882 56.982C27.253 56.552 27.204 55.904 26.774 55.533C26.344 55.164 25.696 55.213 25.327 55.643C24.957 56.073 25.006 56.722 25.435 57.091C25.864 57.46 26.513 57.411 26.882 56.982z"/>
    <path stroke-width="0.13" d="M32.429 53.414C32.634 53.176 32.606 52.816 32.368 52.612C32.13 52.405 31.771 52.432 31.565 52.671C31.361 52.909 31.388 53.27 31.626 53.475C31.864 53.679 32.223 53.652 32.429 53.414z"/>
    <path stroke-width="0.13" d="M22.573 62.515C22.736 62.323 22.716 62.036 22.524 61.871C22.333 61.707 22.045 61.729 21.882 61.92C21.718 62.11 21.739 62.399 21.929 62.563C22.12 62.726 22.408 62.704 22.573 62.515z"/>
    <path stroke-width="0.3" d="M31.76 51.485C32.719 50.283 33.82 49.351 33.82 49.351C33.82 49.351 34.993 49.384 34.546 50.427C34.1 51.472 33.14 53.2 32.805 53.588C32.472 53.976 30.759 55.356 29.829 55.911C28.902 56.466 28.679 56.725 28.483 56.78C28.285 56.835 27.714 57.323 27.227 57.802C26.737 58.284 26.367 58.716 26.26 58.926C26.155 59.136 25.518 59.789 25.19 60.259C24.861 60.728 22.527 63.527 22.379 63.701C22.231 63.874 20.911 66.194 19.637 67.501C18.361 68.808 13.499 72.888 11.948 73.207C10.397 73.527 10.776 72.125 11.5 71.545C12.224 70.965 14.734 69.968 16.949 67.218C19.166 64.466 19.315 64.295 19.315 64.295"/>
    <path stroke-width="0.13" d="M24.638 57.756C23.678 58.959 20.812 62.728 20.347 63.53C19.882 64.332 18.143 66.966 16.818 68.156C15.493 69.346 12.544 71.466 12.166 71.819C11.789 72.17 11.653 72.503 11.714 72.781"/>
    <path stroke-width="0.3" d="M27.658 50.621C26.574 51.792 26.185 52.551 25.573 53.526C24.958 54.5 24.481 55.143 24.481 55.143C24.481 55.143 24.001 55.179 23.115 55.771C22.271 56.335 17.94 58.715 16.379 59.61"/>
    <path stroke-width="0.3" d="M15.538 60.159C13.853 61.393 10.736 64.224 9.669 65.462C8.445 66.888 7.788 67.826 7.583 68.325C7.378 68.825 7.285 69.197 8.255 69.203C9.224 69.212 9.435 68.793 10.24 67.683C11.044 66.572 15.109 63.156 16.378 62.293C17.646 61.432 21.8 59.22 22.759 58.542C23.718 57.865 24.571 57.398 24.571 57.398L24.658 57.472"/>
    <path stroke-width="0.13" d="M24.609 57.354C25.841 58.189 26.664 58.371 27.263 57.759"/>
    <path stroke-width="0.3" d="M31.797 51.442C31.295 52.287 31.356 52.567 30.515 53.195C29.673 53.823 29.382 54.249 28.919 54.526C28.454 54.802 28.009 55.32 27.928 55.328C27.847 55.334 26.998 54.226 26.053 54.539C25.106 54.853 24.71 54.963 24.673 55.006"/>
    <path stroke-width="0.13" d="M28.381 54.89L29.403 56.146"/>
    <path stroke-width="0.3" d="M31.545 50.25L33.363 48.659C33.363 48.659 33.383 48.375 33.031 47.997C32.68 47.621 32.674 47.814 31.42 48.313"/>
    <path stroke-width="0.3" d="M27.059 54.505C27.263 54.005 27.32 54.203 27.728 53.728"/>
    <path stroke-width="0.3" d="M16.4 59.56C15.968 59.189 15.554 59.03 15.496 58.981C15.439 58.932 15.138 58.524 14.993 58.399C14.85 58.276 14.41 57.798 14.714 58.609C15.018 59.42 15.518 60.353 15.785 60.332C16.053 60.313 16.437 60.042 16.388 60.098"/>
    <path stroke-width="0.13" d="M19.591 60.451L18.291 62.137"/>
    <path stroke-width="0.3" d="M18.815 63.74L19.823 64.257"/>
    <path stroke-width="0.13" d="M20.653 62.767L20.192 62.72"/>
    <path stroke-width="0.13" d="M20.192 62.72L23.899 57.945"/>
    <path stroke-width="0.3" d="M17.888 61.439C17.99 61.728 18.87 63.386 18.762 63.743C18.653 64.1 18.481 64.302 18.481 64.302C18.481 64.302 18.213 64.322 18.068 64.198C17.925 64.075 17.678 63.664 17.678 63.664C17.678 63.664 17.125 62.386 16.705 62.174"/>
    <path stroke-width="0.3" d="M17.62 63.613C16.352 63.924 14.48 65.519 14.226 67.153C13.971 68.787 13.942 68.763 13.971 68.787C14 68.813 13.439 69.231 13.147 69.281C12.855 69.329 12.718 69.313 12.682 68.831C12.646 68.349 12.829 65.051 14.516 63.847C16.202 62.643 16.829 62.381 16.829 62.381"/>
   </g>
  </g>
  <g>
   <g>
    <g>
     <g>
      <text x="2.48" y="56.429" stroke="none" fill="#000000" font-family="'Helvetica'" font-size="4.924">1</text>
     </g>
    </g>
   </g>
  </g>
  <g>
   <path stroke="#FFFFFF" stroke-width="0.501" d="M6.469 54.765L26.202 56.22"/>
   <path stroke-width="0.131" d="M5.359 54.75L26.202 56.22"/>
  </g>
 </g>
 <g id="Picture_x0020_#">
  <g>
   <g>
    <g>
     <g>
      <text transform="matrix(0 -1 1 0 73.817 75.798)" stroke="none" fill="#000000" font-family="'Helvetica'" font-size="2.117">330 826</text>
     </g>
    </g>
   </g>
  </g>
 </g>
</svg>
