<?xml version="1.0" encoding="utf-8"?>
<!DOCTYPE svg PUBLIC "-//W3C//DTD SVG 1.1//EN" "http://www.w3.org/Graphics/SVG/1.1/DTD/svg11.dtd">
<!-- Generator: PTC Arbortext IsoDraw 7.3 M070 -->
<svg width="100%" height="100%" viewBox="0 0 75.159 75.159"
 xmlns="http://www.w3.org/2000/svg" xmlns:xlink="http://www.w3.org/1999/xlink"
 fill-rule="evenodd" clip-rule="evenodd" stroke="#000000" stroke-linecap="round" fill="none" xml:space="preserve">
 <g id="Frame">
  <polygon stroke="#FFFFFF" stroke-width="0.16" points="0.08 0.08 75.079 0.08 75.079 75.079 0.08 75.079 0.08 0.08"/>
 </g>
 <g id="Colour">
 </g>
 <g id="Standard_x0020_layer">
  <text transform="matrix(0 -1 1 0 73.183 73.796)" stroke="none" fill="#000000" font-family="'Helvetica'" font-size="2.117">347 926</text>
  <g>
   <line stroke-width="0.3" x1="36.082" y1="28.422" x2="36.082" y2="21.143"/>
   <line stroke-width="0.3" x1="39.307" y1="28.422" x2="39.307" y2="21.143"/>
   <line stroke-width="0.3" x1="39.307" y1="21.143" x2="36.082" y2="21.143"/>
   <line stroke-width="0.3" x1="36.579" y1="21.143" x2="36.579" y2="20.295"/>
   <line stroke-width="0.3" x1="36.579" y1="20.295" x2="34.884" y2="19.408"/>
   <line stroke-width="0.3" x1="34.884" y1="19.408" x2="34.884" y2="13.191"/>
   <line stroke-width="0.13" x1="34.884" y1="13.191" x2="35.61" y2="13.191"/>
   <line stroke-width="0.3" x1="35.61" y1="13.191" x2="36.014" y2="11.576"/>
   <line stroke-width="0.3" x1="36.014" y1="11.576" x2="38.003" y2="11.576"/>
   <line stroke-width="0.13" x1="34.884" y1="19.408" x2="37.628" y2="19.408"/>
   <line stroke-width="0.13" x1="36.579" y1="20.295" x2="37.387" y2="20.295"/>
   <line stroke-width="0.3" x1="38.81" y1="21.143" x2="38.81" y2="20.295"/>
   <line stroke-width="0.3" x1="38.81" y1="20.295" x2="40.506" y2="19.408"/>
   <line stroke-width="0.3" x1="40.506" y1="19.408" x2="40.506" y2="13.191"/>
   <line stroke-width="0.13" x1="40.506" y1="13.191" x2="39.779" y2="13.191"/>
   <line stroke-width="0.3" x1="39.779" y1="13.191" x2="39.375" y2="11.576"/>
   <line stroke-width="0.3" x1="39.375" y1="11.576" x2="38.003" y2="11.576"/>
   <line stroke-width="0.13" x1="40.506" y1="19.408" x2="37.585" y2="19.408"/>
   <line stroke-width="0.13" x1="38.81" y1="20.295" x2="37.387" y2="20.295"/>
   <line stroke-width="0.3" x1="38.597" y1="11.576" x2="38.597" y2="4.073"/>
   <line stroke-width="0.3" x1="36.822" y1="11.576" x2="36.822" y2="4.073"/>
   <line stroke-width="0.3" x1="36.822" y1="4.073" x2="38.597" y2="4.073"/>
   <line stroke-width="0.13" x1="35.61" y1="13.191" x2="39.779" y2="13.191"/>
   <line stroke-width="0.3" x1="38.17" y1="4.073" x2="38.17" y2="0.797"/>
   <line stroke-width="0.3" x1="37.25" y1="4.073" x2="37.25" y2="0.797"/>
   <line stroke-width="0.3" x1="37.25" y1="0.797" x2="38.17" y2="0.797"/>
   <line stroke-width="0.3" x1="37.695" y1="28.422" x2="34.472" y2="28.422"/>
   <line stroke-width="0.3" x1="34.472" y1="28.422" x2="34.472" y2="29.343"/>
   <path stroke-width="0.3" d="M34.472 29.343C33.551 29.574 33.32 30.495 33.32 32.337C33.32 34.177 34.472 36.481 34.472 37.631C34.472 38.783 34.24 43.618 33.551 44.77C32.859 45.92 32.399 62.959 32.859 67.332C33.32 71.707 33.09 73.549 37.003 73.549"/>
   <path stroke-width="0.3" d="M40.688 29.343C41.609 29.574 41.838 30.495 41.838 32.337C41.838 34.177 40.688 36.481 40.688 37.631C40.688 38.783 40.917 43.618 41.609 44.77C42.299 45.92 42.759 62.959 42.299 67.332C41.838 71.707 42.07 73.549 38.155 73.549"/>
   <line stroke-width="0.3" x1="37.695" y1="28.422" x2="40.917" y2="28.422"/>
   <line stroke-width="0.3" x1="40.917" y1="28.422" x2="40.917" y2="29.343"/>
   <line stroke-width="0.3" x1="37.003" y1="73.549" x2="38.155" y2="73.549"/>
   <g>
    <line stroke-width="0.13" x1="37.018" y1="49.92" x2="37.018" y2="51.246"/>
    <line stroke-width="0.13" x1="38.148" y1="52.301" x2="38.148" y2="53.603"/>
    <line stroke-width="0.13" x1="37.926" y1="56.279" x2="37.926" y2="57.481"/>
    <line stroke-width="0.13" x1="37.238" y1="56.279" x2="37.238" y2="57.408"/>
    <line stroke-width="0.13" x1="36.036" y1="56.917" x2="36.262" y2="57.008"/>
    <line stroke-width="0.13" x1="37.238" y1="57.405" x2="39.055" y2="58.143"/>
    <line stroke-width="0.13" x1="39.055" y1="58.143" x2="39.055" y2="59.862"/>
    <line stroke-width="0.13" x1="39.055" y1="59.862" x2="36.871" y2="60.868"/>
    <line stroke-width="0.13" x1="36.871" y1="60.868" x2="39.104" y2="60.868"/>
    <line stroke-width="0.13" x1="39.104" y1="60.868" x2="39.104" y2="62.341"/>
    <line stroke-width="0.13" x1="39.104" y1="62.341" x2="37.509" y2="63.643"/>
    <line stroke-width="0.13" x1="37.509" y1="63.643" x2="39.13" y2="63.643"/>
    <line stroke-width="0.13" x1="39.13" y1="63.643" x2="39.13" y2="64.796"/>
    <line stroke-width="0.13" x1="39.13" y1="64.796" x2="36.036" y2="64.796"/>
    <line stroke-width="0.13" x1="36.036" y1="56.917" x2="36.036" y2="58.154"/>
    <line stroke-width="0.13" x1="36.036" y1="59.984" x2="36.036" y2="61.997"/>
    <line stroke-width="0.13" x1="36.036" y1="63.372" x2="36.036" y2="64.796"/>
    <line stroke-width="0.13" x1="36.036" y1="65.066" x2="36.036" y2="67.201"/>
    <line stroke-width="0.13" x1="36.036" y1="69.215" x2="36.036" y2="70.343"/>
    <line stroke-width="0.13" x1="36.036" y1="58.154" x2="36.454" y2="58.32"/>
    <line stroke-width="0.13" x1="37.286" y1="58.654" x2="38.344" y2="59.076"/>
    <line stroke-width="0.13" x1="38.344" y1="59.076" x2="37.289" y2="59.493"/>
    <line stroke-width="0.13" x1="36.454" y1="59.82" x2="36.036" y2="59.984"/>
    <line stroke-width="0.13" x1="37.289" y1="58.659" x2="37.289" y2="59.493"/>
    <line stroke-width="0.13" x1="36.454" y1="58.32" x2="36.454" y2="59.838"/>
    <line stroke-width="0.13" x1="36.036" y1="61.997" x2="37.804" y2="61.997"/>
    <line stroke-width="0.13" x1="37.804" y1="61.997" x2="36.036" y2="63.372"/>
    <line stroke-width="0.13" x1="36.036" y1="65.066" x2="39.154" y2="65.066"/>
    <line stroke-width="0.13" x1="39.154" y1="65.066" x2="39.154" y2="66.245"/>
    <line stroke-width="0.13" x1="39.154" y1="66.245" x2="36.871" y2="66.245"/>
    <line stroke-width="0.13" x1="36.871" y1="66.245" x2="39.154" y2="67.275"/>
    <line stroke-width="0.13" x1="39.154" y1="67.275" x2="39.154" y2="68.92"/>
    <line stroke-width="0.13" x1="39.154" y1="68.92" x2="36.036" y2="70.343"/>
    <line stroke-width="0.13" x1="36.036" y1="67.201" x2="36.478" y2="67.385"/>
    <line stroke-width="0.13" x1="37.238" y1="67.698" x2="38.295" y2="68.135"/>
    <line stroke-width="0.13" x1="38.295" y1="68.135" x2="37.238" y2="68.64"/>
    <line stroke-width="0.13" x1="36.478" y1="68.993" x2="35.987" y2="69.239"/>
    <line stroke-width="0.13" x1="37.238" y1="67.698" x2="37.238" y2="68.64"/>
    <line stroke-width="0.13" x1="36.478" y1="67.385" x2="36.478" y2="68.993"/>
    <path stroke-width="0.13" d="M38.148 53.603C38.521 53.601 38.926 53.365 39.085 52.752C39.243 52.139 39.183 50.99 39.054 50.695C38.926 50.398 38.63 49.912 38.045 49.902C37.463 49.893 37.284 50.764 37.284 50.872C37.284 50.981 37.423 52.286 37.155 52.356C36.889 52.424 36.661 52.317 36.642 52.079C36.621 51.841 36.563 51.496 36.731 51.347C36.899 51.198 36.929 51.265 37.018 51.246"/>
    <path stroke-width="0.13" d="M37.018 49.92C36.563 49.874 36.137 50.07 36.009 50.566C35.88 51.06 35.841 52.228 35.999 52.712C36.156 53.197 36.454 53.642 36.81 53.799"/>
    <path stroke-width="0.13" d="M38.148 52.301C38.462 52.296 38.521 52.218 38.551 51.92C38.579 51.624 38.511 51.496 38.411 51.417C38.313 51.337 38.164 51.337 38.045 51.496C37.927 51.654 38.045 52.79 37.948 52.929"/>
    <path stroke-width="0.13" d="M36.81 53.799C36.365 54.036 36.057 54.412 35.96 54.936C35.86 55.462 35.915 56.643 36.262 57.008"/>
    <path stroke-width="0.13" d="M37.238 56.279C36.84 56.253 36.71 56.034 36.661 55.649C36.612 55.264 36.829 55.085 37.057 54.987C37.284 54.887 37.868 54.878 38.076 54.996C38.283 55.115 38.402 55.283 38.402 55.57C38.402 55.856 38.271 56.216 37.926 56.279"/>
    <path stroke-width="0.13" d="M37.926 57.481C38.442 57.429 38.768 57.173 39.034 56.588C39.301 56.006 39.213 54.829 38.945 54.551"/>
    <path stroke-width="0.13" d="M38.945 54.551C38.64 54.087 38.402 53.68 37.512 53.71"/>
    <path stroke-width="0.13" d="M37.948 52.929C37.857 53.305 37.679 53.701 37.512 53.71"/>
   </g>
   <line stroke-width="0.3" x1="40.506" y1="13.191" x2="39.779" y2="13.191"/>
   <line stroke-width="0.3" x1="35.61" y1="13.191" x2="34.884" y2="13.191"/>
  </g>
 </g>
</svg>
