<?xml version="1.0" encoding="utf-8"?>
<!DOCTYPE svg PUBLIC "-//W3C//DTD SVG 1.1//EN" "http://www.w3.org/Graphics/SVG/1.1/DTD/svg11.dtd">
<!-- Generator: PTC Arbortext IsoDraw 7.3 -->
<svg width="100%" height="100%" viewBox="0 0 37.659 19.576"
 xmlns="http://www.w3.org/2000/svg" xmlns:xlink="http://www.w3.org/1999/xlink"
 fill-rule="evenodd" clip-rule="evenodd" stroke="#000000" stroke-linecap="round" fill="none" xml:space="preserve">
 <g id="Frame">
  <polygon stroke="#FFFFFF" stroke-width="0.16" points="0.08 0.08 37.579 0.08 37.579 19.495 0.08 19.495 0.08 0.08"/>
 </g>
 <g id="Colour">
 </g>
 <g id="Standard_x0020_layer">
  <g>
   <path stroke-width="0.127" stroke-linejoin="round" stroke-miterlimit="2" d="M5.323 6.466L9.728 13.589L34.686 7.525"/>
   <path stroke-width="0.127" stroke-linejoin="round" stroke-miterlimit="2" d="M9.728 13.589L9.492 14.412"/>
   <path stroke-width="0.127" stroke-linejoin="round" stroke-miterlimit="2" d="M34.459 8.227L34.686 7.525L29.748 1.435L5.323 6.466L5.184 7.232L9.492 14.412L34.459 8.227z"/>
   <path stroke-width="0.127" stroke-linejoin="round" stroke-miterlimit="2" d="M5.331 7.479L4.855 9.483L8.971 16.544L33.631 10.298L34.281 8.272"/>
   <path stroke-width="0.127" stroke-linejoin="round" stroke-miterlimit="2" d="M9.593 14.384L8.971 16.544"/>
   <path stroke-width="0.127" stroke-linejoin="round" stroke-miterlimit="2" d="M21.528 11.429L21.379 11.946L22.327 11.702L22.472 11.196"/>
  </g>
  <g>
   <path stroke="none" fill="#000000" d="M36.35 18.62L36.35 18.62C36.347 18.606 36.347 18.591 36.347 18.579 36.347 18.564 36.347 18.548 36.347 18.536 36.345 18.492 36.35 18.443 36.362 18.39 36.374 18.335 36.399 18.289 36.439 18.25 36.476 18.21 36.539 18.19 36.621 18.189 36.707 18.189 36.777 18.221 36.829 18.277 36.88 18.336 36.906 18.416 36.908 18.513 36.906 18.603 36.887 18.672 36.853 18.716 36.82 18.763 36.777 18.792 36.726 18.806 36.676 18.821 36.628 18.827 36.581 18.829L36.581 19.022C36.667 19.018 36.75 19 36.826 18.968 36.902 18.936 36.963 18.881 37.011 18.8 37.03 18.765 37.045 18.722 37.057 18.678 37.067 18.631 37.073 18.58 37.076 18.525 37.073 18.399 37.051 18.297 37.006 18.219 36.96 18.138 36.901 18.08 36.829 18.045 36.756 18.007 36.68 17.989 36.597 17.989 36.499 17.989 36.421 18.013 36.366 18.059 36.31 18.103 36.271 18.164 36.25 18.237L36.246 18.237C36.234 18.193 36.204 18.152 36.152 18.112 36.104 18.071 36.033 18.048 35.939 18.047 35.823 18.047 35.729 18.086 35.658 18.167 35.585 18.248 35.549 18.361 35.548 18.507 35.549 18.635 35.576 18.734 35.624 18.804 35.674 18.875 35.735 18.923 35.811 18.949 35.884 18.974 35.959 18.986 36.034 18.986L36.034 18.804C35.996 18.803 35.954 18.797 35.905 18.783 35.854 18.772 35.813 18.745 35.774 18.705 35.735 18.664 35.715 18.602 35.715 18.515 35.715 18.44 35.729 18.384 35.756 18.344 35.78 18.303 35.813 18.275 35.848 18.26 35.884 18.245 35.918 18.237 35.95 18.239 36.04 18.242 36.104 18.271 36.14 18.327 36.176 18.384 36.194 18.446 36.194 18.524 36.194 18.538 36.192 18.554 36.192 18.571 36.192 18.586 36.189 18.603 36.189 18.62L36.35 18.62z"/>
   <path stroke="none" fill="#000000" d="M35.838 17.219L35.838 17.219 35.838 17.214 36.512 17.214 36.673 17.214 37.036 17.214 37.036 17.028 36.673 17.028 36.673 16.811 36.673 16.811 36.512 16.811 36.512 17.028 35.548 17.028 35.548 17.184 36.491 17.864 36.673 17.864 36.673 17.214 36.512 17.214 36.512 17.693 35.838 17.219z"/>
   <path stroke="none" fill="#000000" d="M36.371 16.157L36.371 16.157C36.371 16.199 36.365 16.243 36.35 16.289 36.335 16.336 36.305 16.376 36.259 16.408 36.213 16.44 36.143 16.457 36.049 16.46 35.948 16.457 35.868 16.431 35.805 16.381 35.746 16.329 35.715 16.259 35.715 16.172 35.716 16.065 35.749 15.987 35.811 15.941 35.869 15.893 35.944 15.868 36.033 15.871 36.128 15.872 36.201 15.89 36.25 15.922L36.36 15.843 36.365 15.839C36.555 15.861 36.697 15.9 36.786 15.958 36.877 16.016 36.921 16.096 36.921 16.196 36.92 16.274 36.899 16.332 36.856 16.375 36.814 16.42 36.753 16.443 36.677 16.449L36.677 16.635C36.726 16.635 36.783 16.623 36.845 16.597 36.905 16.571 36.96 16.527 37.003 16.461 37.048 16.397 37.072 16.306 37.076 16.193 37.072 16.065 37.036 15.967 36.966 15.893 36.896 15.817 36.814 15.766 36.716 15.731 36.616 15.695 36.524 15.673 36.435 15.666 36.345 15.654 36.28 15.65 36.237 15.653 36.174 15.65 36.104 15.657 36.029 15.667 35.95 15.679 35.874 15.702 35.801 15.736 35.728 15.769 35.668 15.823 35.621 15.893 35.573 15.961 35.548 16.054 35.548 16.173 35.548 16.277 35.573 16.367 35.619 16.435 35.667 16.507 35.728 16.561 35.804 16.597 35.883 16.632 35.965 16.652 36.057 16.652 36.206 16.649 36.325 16.606 36.409 16.521 36.493 16.435 36.536 16.324 36.539 16.184L36.539 16.184 36.539 16.184C36.536 16.112 36.521 16.045 36.491 15.984 36.46 15.919 36.417 15.872 36.36 15.843L36.25 15.922C36.299 15.955 36.331 15.993 36.347 16.039 36.365 16.082 36.371 16.123 36.371 16.157L36.371 16.157z"/>
   <path stroke="none" fill="#000000" d="M36.338 14.39L36.176 14.391 36.176 14.391C36.174 14.461 36.155 14.521 36.115 14.571L36.246 14.644C36.276 14.721 36.323 14.782 36.381 14.827 36.441 14.871 36.518 14.893 36.609 14.896 36.646 14.897 36.7 14.891 36.765 14.877 36.832 14.859 36.899 14.814 36.962 14.743 37.006 14.682 37.037 14.615 37.052 14.551 37.07 14.483 37.076 14.428 37.076 14.384 37.073 14.269 37.051 14.172 37.006 14.098 36.962 14.022 36.905 13.968 36.832 13.935 36.762 13.899 36.686 13.881 36.606 13.881 36.546 13.88 36.484 13.894 36.414 13.928 36.345 13.96 36.289 14.025 36.244 14.125 36.234 14.102 36.216 14.073 36.195 14.047 36.173 14.016 36.14 13.992 36.097 13.968 36.057 13.946 36 13.935 35.93 13.935L35.93 13.935 35.93 13.935C35.871 13.935 35.813 13.948 35.753 13.978 35.695 14.01 35.648 14.058 35.606 14.127 35.569 14.195 35.548 14.284 35.548 14.394 35.549 14.509 35.573 14.602 35.618 14.669 35.664 14.734 35.716 14.778 35.78 14.807 35.844 14.832 35.902 14.845 35.957 14.845 36.026 14.843 36.085 14.826 36.134 14.791 36.185 14.756 36.22 14.707 36.246 14.644L36.115 14.571C36.075 14.622 36.018 14.65 35.948 14.651 35.914 14.651 35.88 14.646 35.844 14.631 35.807 14.618 35.779 14.593 35.753 14.557 35.728 14.521 35.715 14.47 35.715 14.403 35.715 14.333 35.728 14.275 35.75 14.234 35.774 14.195 35.804 14.164 35.838 14.15 35.871 14.134 35.905 14.125 35.938 14.127 36.005 14.127 36.061 14.15 36.106 14.198 36.151 14.246 36.174 14.308 36.176 14.391L36.176 14.391 36.338 14.39 36.338 14.39C36.335 14.303 36.359 14.228 36.405 14.172 36.454 14.112 36.526 14.083 36.628 14.08 36.704 14.08 36.762 14.098 36.802 14.127 36.844 14.157 36.872 14.195 36.887 14.242 36.902 14.285 36.908 14.333 36.908 14.378 36.906 14.464 36.89 14.528 36.857 14.576 36.826 14.622 36.786 14.653 36.741 14.67 36.695 14.688 36.652 14.696 36.612 14.696 36.54 14.696 36.476 14.67 36.421 14.619 36.366 14.571 36.34 14.493 36.338 14.39L36.338 14.39z"/>
   <path stroke="none" fill="#000000" d="M36.371 13.214L36.371 13.214C36.371 13.256 36.365 13.301 36.35 13.348 36.335 13.394 36.305 13.435 36.259 13.467 36.213 13.499 36.143 13.515 36.049 13.518 35.948 13.515 35.868 13.49 35.805 13.439 35.746 13.385 35.715 13.317 35.715 13.23 35.716 13.124 35.749 13.045 35.811 12.999 35.869 12.949 35.944 12.926 36.033 12.929 36.128 12.931 36.201 12.948 36.25 12.98L36.36 12.901 36.365 12.897C36.555 12.919 36.697 12.958 36.786 13.016 36.877 13.074 36.921 13.153 36.921 13.255 36.92 13.33 36.899 13.391 36.856 13.432 36.814 13.477 36.753 13.5 36.677 13.506L36.677 13.692C36.726 13.692 36.783 13.681 36.845 13.654 36.905 13.63 36.96 13.585 37.003 13.519 37.048 13.455 37.072 13.365 37.076 13.25 37.072 13.124 37.036 13.023 36.966 12.949 36.896 12.875 36.814 12.823 36.716 12.788 36.616 12.753 36.524 12.731 36.435 12.724 36.345 12.712 36.28 12.708 36.237 12.711 36.174 12.708 36.104 12.714 36.029 12.725 35.95 12.737 35.874 12.759 35.801 12.794 35.728 12.827 35.668 12.88 35.621 12.949 35.573 13.019 35.548 13.112 35.548 13.231 35.548 13.336 35.573 13.423 35.619 13.493 35.667 13.566 35.728 13.618 35.804 13.654 35.883 13.691 35.965 13.71 36.057 13.71 36.206 13.708 36.325 13.663 36.409 13.579 36.493 13.493 36.536 13.381 36.539 13.242L36.539 13.242 36.539 13.242C36.536 13.169 36.521 13.102 36.491 13.041 36.46 12.977 36.417 12.931 36.36 12.901L36.25 12.98C36.299 13.013 36.331 13.051 36.347 13.096 36.365 13.141 36.371 13.18 36.371 13.214L36.371 13.214z"/>
   <path stroke="none" fill="#000000" d="M35.838 11.923L35.838 11.923 35.838 11.919 36.512 11.919 36.673 11.919 37.036 11.919 37.036 11.733 36.673 11.733 36.673 11.515 36.673 11.515 36.512 11.515 36.512 11.733 35.548 11.733 35.548 11.887 36.491 12.568 36.673 12.568 36.673 11.919 36.512 11.919 36.512 12.397 35.838 11.923z"/>
  </g>
 </g>
</svg>
