<?xml version="1.0" encoding="utf-8"?>
<!DOCTYPE svg PUBLIC "-//W3C//DTD SVG 1.1//EN" "http://www.w3.org/Graphics/SVG/1.1/DTD/svg11.dtd">
<!-- Generator: PTC Arbortext IsoDraw 7.3 -->
<svg width="100%" height="100%" viewBox="0 0 37.634 8.525"
 xmlns="http://www.w3.org/2000/svg" xmlns:xlink="http://www.w3.org/1999/xlink"
 fill-rule="evenodd" clip-rule="evenodd" stroke="#000000" stroke-linecap="round" fill="none" xml:space="preserve">
 <g id="A4_x0020_quarter_x0020_frame">
  <path stroke="#FFFFFF" stroke-width="0.006" d="M37.503 8.522L0.003 8.522L0.003 0.003L37.503 0.003L37.503 8.522z"/>
 </g>
 <g id="Standard_x0020_layer">
  <g>
   <g>
    <path stroke-width="0.12" id="AUTOID_5875" d="M10.999 4.762L10.999 6.421"/>
    <path stroke-width="0.12" id="AUTOID_5876" d="M10.999 6.421L11.474 6.421"/>
    <path stroke-width="0.12" id="AUTOID_5877" d="M11.474 6.421C11.592 6.897 12.067 7.016 13.015 7.016C13.964 7.016 15.15 6.421 15.743 6.421C16.335 6.421 18.826 6.541 19.42 6.897C20.013 7.251 28.789 7.49 31.044 7.251C33.296 7.016 34.246 7.134 34.246 5.118"/>
    <path stroke-width="0.12" id="AUTOID_5878" d="M11.474 3.22C11.592 2.745 12.067 2.626 13.015 2.626C13.964 2.626 15.15 3.22 15.743 3.22C16.335 3.22 18.826 3.1 19.42 2.745C20.013 2.39 28.789 2.152 31.044 2.39C33.296 2.626 34.246 2.508 34.246 4.525"/>
    <path stroke-width="0.12" id="AUTOID_5879" d="M10.999 4.762L10.999 3.1"/>
    <path stroke-width="0.12" id="AUTOID_5880" d="M10.999 3.1L11.474 3.1"/>
    <path stroke-width="0.12" id="AUTOID_5881" d="M34.246 5.118L34.246 4.525"/>
    <g>
     <path stroke-width="0.12" id="AUTOID_5882" d="M21.573 5.232L22.283 5.232"/>
     <path stroke-width="0.12" id="AUTOID_5883" d="M22.85 4.626L23.547 4.626"/>
     <path stroke-width="0.12" id="AUTOID_5884" d="M24.983 4.745L25.628 4.745"/>
     <path stroke-width="0.12" id="AUTOID_5885" d="M24.983 5.113L25.588 5.113"/>
     <path stroke-width="0.12" id="AUTOID_5886" d="M25.324 5.759L25.373 5.637"/>
     <path stroke-width="0.12" id="AUTOID_5887" d="M25.586 5.113L25.983 4.139"/>
     <path stroke-width="0.12" id="AUTOID_5888" d="M25.983 4.139L26.905 4.139"/>
     <path stroke-width="0.12" id="AUTOID_5889" d="M26.905 4.139L27.445 5.31"/>
     <path stroke-width="0.12" id="AUTOID_5890" d="M27.445 5.31L27.445 4.113"/>
     <path stroke-width="0.12" id="AUTOID_5891" d="M27.445 4.113L28.234 4.113"/>
     <path stroke-width="0.12" id="AUTOID_5892" d="M28.234 4.113L28.932 4.969"/>
     <path stroke-width="0.12" id="AUTOID_5893" d="M28.932 4.969L28.932 4.099"/>
     <path stroke-width="0.12" id="AUTOID_5894" d="M28.932 4.099L29.55 4.099"/>
     <path stroke-width="0.12" id="AUTOID_5895" d="M29.55 4.099L29.55 5.759"/>
     <path stroke-width="0.12" id="AUTOID_5896" d="M25.324 5.759L25.987 5.759"/>
     <path stroke-width="0.12" id="AUTOID_5897" d="M26.971 5.759L28.05 5.759"/>
     <path stroke-width="0.12" id="AUTOID_5898" d="M28.786 5.759L29.55 5.759"/>
     <path stroke-width="0.12" id="AUTOID_5899" d="M29.696 5.759L30.841 5.759"/>
     <path stroke-width="0.12" id="AUTOID_5900" d="M31.922 5.759L32.527 5.759"/>
     <path stroke-width="0.12" id="AUTOID_5901" d="M25.987 5.759L26.077 5.535"/>
     <path stroke-width="0.12" id="AUTOID_5902" d="M26.256 5.088L26.484 4.52"/>
     <path stroke-width="0.12" id="AUTOID_5903" d="M26.484 4.52L26.705 5.088"/>
     <path stroke-width="0.12" id="AUTOID_5904" d="M26.882 5.535L26.971 5.759"/>
     <path stroke-width="0.12" id="AUTOID_5905" d="M26.26 5.088L26.705 5.088"/>
     <path stroke-width="0.12" id="AUTOID_5906" d="M26.077 5.535L26.89 5.535"/>
     <path stroke-width="0.12" id="AUTOID_5907" d="M28.05 5.759L28.05 4.811"/>
     <path stroke-width="0.12" id="AUTOID_5908" d="M28.05 4.811L28.786 5.759"/>
     <path stroke-width="0.12" id="AUTOID_5909" d="M29.696 5.759L29.696 4.086"/>
     <path stroke-width="0.12" id="AUTOID_5910" d="M29.696 4.086L30.327 4.086"/>
     <path stroke-width="0.12" id="AUTOID_5911" d="M30.327 4.086L30.327 5.31"/>
     <path stroke-width="0.12" id="AUTOID_5912" d="M30.327 5.31L30.881 4.086"/>
     <path stroke-width="0.12" id="AUTOID_5913" d="M30.881 4.086L31.763 4.086"/>
     <path stroke-width="0.12" id="AUTOID_5914" d="M31.763 4.086L32.527 5.759"/>
     <path stroke-width="0.12" id="AUTOID_5915" d="M30.841 5.759L30.939 5.522"/>
     <path stroke-width="0.12" id="AUTOID_5916" d="M31.108 5.113L31.341 4.548"/>
     <path stroke-width="0.12" id="AUTOID_5917" d="M31.341 4.548L31.612 5.113"/>
     <path stroke-width="0.12" id="AUTOID_5918" d="M31.803 5.522L31.934 5.785"/>
     <path stroke-width="0.12" id="AUTOID_5919" d="M31.108 5.113L31.612 5.113"/>
     <path stroke-width="0.12" id="AUTOID_5920" d="M30.939 5.522L31.803 5.522"/>
     <path stroke-width="0.12" id="AUTOID_5921" d="M23.547 4.626C23.547 4.426 23.419 4.208 23.091 4.123C22.762 4.038 22.146 4.07 21.986 4.139C21.827 4.208 21.568 4.368 21.562 4.681C21.557 4.993 22.024 5.089 22.082 5.089C22.14 5.089 22.841 5.014 22.878 5.158C22.914 5.301 22.856 5.423 22.73 5.434C22.603 5.445 22.417 5.476 22.336 5.386C22.257 5.296 22.294 5.28 22.283 5.232"/>
     <path stroke-width="0.12" id="AUTOID_5922" d="M21.573 5.232C21.547 5.476 21.653 5.705 21.917 5.772C22.184 5.843 22.809 5.863 23.07 5.778C23.329 5.694 23.568 5.535 23.652 5.344"/>
     <path stroke-width="0.12" id="AUTOID_5923" d="M22.85 4.626C22.847 4.458 22.804 4.426 22.644 4.41C22.484 4.394 22.417 4.431 22.373 4.485C22.332 4.538 22.332 4.618 22.417 4.681C22.501 4.743 23.111 4.681 23.185 4.734"/>
     <path stroke-width="0.12" id="AUTOID_5924" d="M23.652 5.344C23.78 5.581 23.981 5.746 24.263 5.799C24.545 5.852 25.178 5.823 25.373 5.637"/>
     <path stroke-width="0.12" id="AUTOID_5925" d="M24.983 5.113C24.968 5.328 24.852 5.397 24.644 5.423C24.437 5.45 24.343 5.333 24.289 5.211C24.236 5.089 24.231 4.775 24.295 4.665C24.359 4.552 24.449 4.49 24.603 4.49C24.756 4.49 24.949 4.56 24.983 4.745"/>
     <path stroke-width="0.12" id="AUTOID_5926" d="M25.628 4.745C25.6 4.469 25.461 4.293 25.149 4.15C24.835 4.006 24.204 4.054 24.056 4.198"/>
     <path stroke-width="0.12" id="AUTOID_5927" d="M24.056 4.198C23.806 4.362 23.588 4.49 23.606 4.968"/>
     <path stroke-width="0.12" id="AUTOID_5928" d="M23.185 4.734C23.388 4.782 23.6 4.876 23.606 4.968"/>
    </g>
   </g>
   <path stroke-width="0.276" id="AUTOID_5931" d="M10.999 4.762L10.999 6.421"/>
   <path stroke-width="0.276" id="AUTOID_5932" d="M10.999 6.421L11.474 6.421"/>
   <path stroke-width="0.276" id="AUTOID_5933" d="M11.474 6.421C11.592 6.897 12.067 7.016 13.015 7.016C13.964 7.016 15.15 6.421 15.743 6.421C16.335 6.421 18.826 6.541 19.42 6.897C20.013 7.251 28.789 7.49 31.044 7.251C33.296 7.016 34.246 7.134 34.246 5.118"/>
   <path stroke-width="0.276" id="AUTOID_5934" d="M11.474 3.22C11.592 2.745 12.067 2.626 13.015 2.626C13.964 2.626 15.15 3.22 15.743 3.22C16.335 3.22 18.826 3.1 19.42 2.745C20.013 2.39 28.789 2.152 31.044 2.39C33.296 2.626 34.246 2.508 34.246 4.525"/>
   <path stroke-width="0.276" id="AUTOID_5935" d="M10.999 4.762L10.999 3.1"/>
   <path stroke-width="0.276" id="AUTOID_5936" d="M10.999 3.1L11.474 3.1"/>
   <path stroke-width="0.276" id="AUTOID_5937" d="M34.246 5.118L34.246 4.525"/>
   <g>
    <path stroke-width="0.12" id="AUTOID_5938" d="M21.573 5.232L22.283 5.232"/>
    <path stroke-width="0.12" id="AUTOID_5939" d="M22.85 4.626L23.547 4.626"/>
    <path stroke-width="0.12" id="AUTOID_5940" d="M24.983 4.745L25.628 4.745"/>
    <path stroke-width="0.12" id="AUTOID_5941" d="M24.983 5.113L25.588 5.113"/>
    <path stroke-width="0.12" id="AUTOID_5942" d="M25.324 5.759L25.373 5.637"/>
    <path stroke-width="0.12" id="AUTOID_5943" d="M25.586 5.113L25.983 4.139"/>
    <path stroke-width="0.12" id="AUTOID_5944" d="M25.983 4.139L26.905 4.139"/>
    <path stroke-width="0.12" id="AUTOID_5945" d="M26.905 4.139L27.445 5.31"/>
    <path stroke-width="0.12" id="AUTOID_5946" d="M27.445 5.31L27.445 4.113"/>
    <path stroke-width="0.12" id="AUTOID_5947" d="M27.445 4.113L28.234 4.113"/>
    <path stroke-width="0.12" id="AUTOID_5948" d="M28.234 4.113L28.932 4.969"/>
    <path stroke-width="0.12" id="AUTOID_5949" d="M28.932 4.969L28.932 4.099"/>
    <path stroke-width="0.12" id="AUTOID_5950" d="M28.932 4.099L29.55 4.099"/>
    <path stroke-width="0.12" id="AUTOID_5951" d="M29.55 4.099L29.55 5.759"/>
    <path stroke-width="0.12" id="AUTOID_5952" d="M25.324 5.759L25.987 5.759"/>
    <path stroke-width="0.12" id="AUTOID_5953" d="M26.971 5.759L28.05 5.759"/>
    <path stroke-width="0.12" id="AUTOID_5954" d="M28.786 5.759L29.55 5.759"/>
    <path stroke-width="0.12" id="AUTOID_5955" d="M29.696 5.759L30.841 5.759"/>
    <path stroke-width="0.12" id="AUTOID_5956" d="M31.922 5.759L32.527 5.759"/>
    <path stroke-width="0.12" id="AUTOID_5957" d="M25.987 5.759L26.077 5.535"/>
    <path stroke-width="0.12" id="AUTOID_5958" d="M26.256 5.088L26.484 4.52"/>
    <path stroke-width="0.12" id="AUTOID_5959" d="M26.484 4.52L26.705 5.088"/>
    <path stroke-width="0.12" id="AUTOID_5960" d="M26.882 5.535L26.971 5.759"/>
    <path stroke-width="0.12" id="AUTOID_5961" d="M26.26 5.088L26.705 5.088"/>
    <path stroke-width="0.12" id="AUTOID_5962" d="M26.077 5.535L26.89 5.535"/>
    <path stroke-width="0.12" id="AUTOID_5963" d="M28.05 5.759L28.05 4.811"/>
    <path stroke-width="0.12" id="AUTOID_5964" d="M28.05 4.811L28.786 5.759"/>
    <path stroke-width="0.12" id="AUTOID_5965" d="M29.696 5.759L29.696 4.086"/>
    <path stroke-width="0.12" id="AUTOID_5966" d="M29.696 4.086L30.327 4.086"/>
    <path stroke-width="0.12" id="AUTOID_5967" d="M30.327 4.086L30.327 5.31"/>
    <path stroke-width="0.12" id="AUTOID_5968" d="M30.327 5.31L30.881 4.086"/>
    <path stroke-width="0.12" id="AUTOID_5969" d="M30.881 4.086L31.763 4.086"/>
    <path stroke-width="0.12" id="AUTOID_5970" d="M31.763 4.086L32.527 5.759"/>
    <path stroke-width="0.12" id="AUTOID_5971" d="M30.841 5.759L30.939 5.522"/>
    <path stroke-width="0.12" id="AUTOID_5972" d="M31.108 5.113L31.341 4.548"/>
    <path stroke-width="0.12" id="AUTOID_5973" d="M31.341 4.548L31.612 5.113"/>
    <path stroke-width="0.12" id="AUTOID_5974" d="M31.803 5.522L31.934 5.785"/>
    <path stroke-width="0.12" id="AUTOID_5975" d="M31.108 5.113L31.612 5.113"/>
    <path stroke-width="0.12" id="AUTOID_5976" d="M30.939 5.522L31.803 5.522"/>
    <path stroke-width="0.12" id="AUTOID_5977" d="M23.547 4.626C23.547 4.426 23.419 4.208 23.091 4.123C22.762 4.038 22.146 4.07 21.986 4.139C21.827 4.208 21.568 4.368 21.562 4.681C21.557 4.993 22.024 5.089 22.082 5.089C22.14 5.089 22.841 5.014 22.878 5.158C22.914 5.301 22.856 5.423 22.73 5.434C22.603 5.445 22.417 5.476 22.336 5.386C22.257 5.296 22.294 5.28 22.283 5.232"/>
    <path stroke-width="0.12" id="AUTOID_5978" d="M21.573 5.232C21.547 5.476 21.653 5.705 21.917 5.772C22.184 5.843 22.809 5.863 23.07 5.778C23.329 5.694 23.568 5.535 23.652 5.344"/>
    <path stroke-width="0.12" id="AUTOID_5979" d="M22.85 4.626C22.847 4.458 22.804 4.426 22.644 4.41C22.484 4.394 22.417 4.431 22.373 4.485C22.332 4.538 22.332 4.618 22.417 4.681C22.501 4.743 23.111 4.681 23.185 4.734"/>
    <path stroke-width="0.12" id="AUTOID_5980" d="M23.652 5.344C23.78 5.581 23.981 5.746 24.263 5.799C24.545 5.852 25.178 5.823 25.373 5.637"/>
    <path stroke-width="0.12" id="AUTOID_5981" d="M24.983 5.113C24.968 5.328 24.852 5.397 24.644 5.423C24.437 5.45 24.343 5.333 24.289 5.211C24.236 5.089 24.231 4.775 24.295 4.665C24.359 4.552 24.449 4.49 24.603 4.49C24.756 4.49 24.949 4.56 24.983 4.745"/>
    <path stroke-width="0.12" id="AUTOID_5982" d="M25.628 4.745C25.6 4.469 25.461 4.293 25.149 4.15C24.835 4.006 24.204 4.054 24.056 4.198"/>
    <path stroke-width="0.12" id="AUTOID_5983" d="M24.056 4.198C23.806 4.362 23.588 4.49 23.606 4.968"/>
    <path stroke-width="0.12" id="AUTOID_5984" d="M23.185 4.734C23.388 4.782 23.6 4.876 23.606 4.968"/>
   </g>
   <path stroke-width="0.276" id="AUTOID_5986" d="M10.999 4.07L0.275 4.07"/>
   <path stroke-width="0.276" id="AUTOID_5987" d="M10.999 5.351L0.275 5.351"/>
   <path stroke-width="0.276" id="AUTOID_5988" d="M0.275 5.351L0.275 5.141"/>
   <path stroke-width="0.276" id="AUTOID_5989" d="M0.275 4.291L0.275 4.07"/>
   <path stroke-width="0.276" id="AUTOID_5990" d="M0.275 4.291L3.293 4.291"/>
   <path stroke-width="0.276" id="AUTOID_5991" d="M0.275 5.141L3.293 5.141"/>
   <path stroke-width="0.276" id="AUTOID_5992" d="M3.293 5.141L3.293 4.892"/>
   <path stroke-width="0.276" id="AUTOID_5993" d="M3.293 4.54L3.293 4.291"/>
   <path stroke-width="0.276" id="AUTOID_5994" d="M3.293 4.892L4.339 4.892"/>
   <path stroke-width="0.276" id="AUTOID_5995" d="M3.293 4.54L4.339 4.54"/>
   <path stroke-width="0.276" id="AUTOID_5996" d="M4.339 4.54L4.339 4.892"/>
   <path stroke-width="0.12" id="AUTOID_5997" d="M5.067 4.07L5.067 5.351"/>
  </g>
 </g>
 <g id="Picture_x0020_#">
  <g>
   <g>
    <g>
     <g>
      <text transform="matrix(0 -1 1 0 36.927 8.073)" stroke="none" fill="#000000" font-family="'Helvetica'" font-size="2.117">351 103</text>
     </g>
    </g>
   </g>
  </g>
 </g>
</svg>
