<?xml version="1.0" encoding="utf-8"?>
<!DOCTYPE svg PUBLIC "-//W3C//DTD SVG 1.1//EN" "http://www.w3.org/Graphics/SVG/1.1/DTD/svg11.dtd">
<!-- Generator: PTC Arbortext IsoDraw 7.3 -->
<svg width="100%" height="100%" viewBox="0 0 150.006 125.546"
 xmlns="http://www.w3.org/2000/svg" xmlns:xlink="http://www.w3.org/1999/xlink"
 fill-rule="evenodd" clip-rule="evenodd" stroke="#000000" stroke-linecap="round" fill="none" xml:space="preserve">
 <g id="Colour">
  <path stroke="none" fill="#B2B2B2" d="M113.933 36.871C113.933 33.36 116.789 30.515 120.311 30.515 123.834 30.515 126.691 33.36 126.691 36.871 126.691 40.381 123.834 43.226 120.311 43.226 116.789 43.226 113.933 40.381 113.933 36.871z"/>
 </g>
 <g id="Standard_x0020_layer">
  <g>
   <path stroke-width="0.3" stroke-linejoin="round" d="M59.243 23.69L59.408 36.63L59.036 49.439"/>
   <path stroke-width="0.3" stroke-linejoin="round" d="M40.216 54.439C27.824 54.371 11.954 54.274 10.571 54.231C8.365 54.162 6.4 52.68 6.4 48.889C6.4 46.959 6.19 41.823 6.19 36.865C6.19 32.079 6.4 27.457 6.4 26.035C6.4 23.138 8.124 22.036 9.778 21.966"/>
   <path stroke-width="0.3" stroke-linejoin="round" d="M59.036 49.439C59.036 52.99 57.829 54.506 54.865 54.506C54.232 54.506 51.95 54.497 48.729 54.481"/>
   <path stroke-width="0.3" stroke-linejoin="round" d="M40.561 45.097L40.563 58.195"/>
   <path stroke-width="0.3" stroke-linejoin="round" d="M48.386 45.475L48.383 57.817"/>
   <path stroke-width="0.3" stroke-linejoin="round" d="M38.837 28.309C38.837 28.309 38.837 25.62 38.837 24.725C38.837 23.829 38.112 23.207 36.665 23.207C35.218 23.207 13.329 23.207 13.329 23.207"/>
   <path stroke-width="0.131" stroke-linejoin="round" d="M29.667 23.381C30.254 23.655 30.495 23.966 30.495 24.346C30.495 24.725 30.495 28.309 30.495 28.964C30.495 29.62 30.599 29.757 31.736 29.757C32.874 29.757 37.009 29.757 37.009 29.757"/>
   <path stroke-width="0.131" stroke-linejoin="round" d="M36.079 40.581C36.079 40.581 33.356 40.581 32.735 40.581C32.115 40.581 32.064 40.908 31.795 41.564"/>
   <path stroke-width="0.131" stroke-linejoin="round" d="M29.495 27.62C29.495 27.62 13.57 27.62 12.33 27.62C11.089 27.62 10.571 27.655 10.571 29.068C10.571 30.481 10.571 37.616 10.571 40.581C10.571 43.545 13.191 49.06 22.153 49.06C28.943 49.06 26.117 48.268 29.736 48.268C33.356 48.268 40.182 48.268 40.182 48.268"/>
   <path stroke-width="0.131" stroke-linejoin="round" d="M29.739 26.987C29.739 26.987 12.874 26.987 11.56 26.987C10.246 26.987 9.698 27.024 9.698 28.521C9.698 30.018 9.698 37.573 9.698 40.713C9.698 43.853 12.471 49.692 21.963 49.692C29.155 49.692 26.161 48.853 29.993 48.853C33.031 48.853 38.201 48.853 40.216 48.853"/>
   <path stroke-width="0.3" stroke-linejoin="round" d="M53.417 50.18C53.417 49.524 53.973 48.991 54.658 48.991C55.344 48.991 55.899 49.524 55.899 50.18C55.899 50.838 55.344 51.369 54.658 51.369C53.973 51.369 53.417 50.838 53.417 50.18z"/>
   <path stroke-width="0.131" stroke-linejoin="round" d="M52.969 50.18C52.969 49.286 53.725 48.563 54.658 48.563C55.591 48.563 56.347 49.286 56.347 50.18C56.347 51.075 55.591 51.799 54.658 51.799C53.725 51.799 52.969 51.075 52.969 50.18z"/>
   <path stroke-width="0.131" stroke-linejoin="round" d="M9.284 50.064C9.284 49.17 10.039 48.445 10.973 48.445C11.906 48.445 12.662 49.17 12.662 50.064C12.662 50.957 11.906 51.682 10.973 51.682C10.039 51.682 9.284 50.957 9.284 50.064z"/>
   <path stroke-width="0.3" stroke-linejoin="round" d="M9.743 50.078C9.743 49.42 10.3 48.889 10.984 48.889C11.67 48.889 12.226 49.42 12.226 50.078C12.226 50.734 11.67 51.267 10.984 51.267C10.3 51.267 9.743 50.734 9.743 50.078z"/>
   <path stroke-width="0.3" stroke-linejoin="round" d="M67.195 21.984C67.01 22.018 66.816 22.036 66.62 22.036C65.04 22.036 63.759 20.893 63.759 19.484C63.759 18.077 65.04 16.934 66.62 16.934C67.509 16.934 68.302 17.295 68.828 17.862"/>
   <path stroke-width="0.131" stroke-linejoin="round" d="M68.828 17.862C69.236 18.303 69.48 18.868 69.48 19.484C69.48 20.718 68.5 21.746 67.195 21.984"/>
   <path stroke-width="0.3" stroke-linejoin="round" d="M67.746 17.268C68.265 17.73 68.584 18.367 68.584 19.071C68.584 20.48 67.304 21.623 65.724 21.623C65.667 21.623 65.609 21.62 65.554 21.617"/>
   <path stroke-width="0.131" stroke-linejoin="round" d="M62.655 19.484C62.655 17.39 64.484 15.693 66.74 15.693C68.996 15.693 70.825 17.39 70.825 19.484C70.825 21.579 68.996 23.277 66.74 23.277C64.484 23.277 62.655 21.579 62.655 19.484z"/>
   <path stroke-width="0.131" stroke-linejoin="round" d="M11.439 21.187C10.804 20.719 10.4 20.01 10.4 19.219C10.4 17.934 11.465 16.87 12.852 16.693"/>
   <path stroke-width="0.3" stroke-linejoin="round" d="M12.852 16.693C12.986 16.676 13.121 16.669 13.26 16.669C14.842 16.669 16.121 17.811 16.121 19.219C16.121 20.628 14.842 21.769 13.26 21.769C12.568 21.769 11.933 21.55 11.439 21.187"/>
   <path stroke-width="0.3" stroke-linejoin="round" d="M12.134 21.437C11.617 20.975 11.295 20.336 11.295 19.632C11.295 18.224 12.577 17.082 14.157 17.082C14.214 17.082 14.271 17.083 14.327 17.086"/>
   <path stroke-width="0.131" stroke-linejoin="round" d="M9.297 19.219C9.297 17.125 11.125 15.428 13.381 15.428C15.637 15.428 17.466 17.125 17.466 19.219C17.466 21.312 15.637 23.01 13.381 23.01C11.125 23.01 9.297 21.312 9.297 19.219z"/>
   <path stroke-width="0.3" stroke-linejoin="round" d="M13.288 23.222C10.855 23.222 8.884 21.391 8.884 19.132C8.884 16.875 10.855 15.044 13.288 15.044"/>
   <path stroke-width="0.3" stroke-linejoin="round" d="M26.678 15.109L12.432 15.073"/>
   <path stroke-width="0.3" stroke-linejoin="round" d="M50.28 28C50.28 28 50.28 26.655 50.28 25.69C50.28 24.725 50.454 23.518 51.659 23.518C52.866 23.518 64.689 23.518 64.689 23.518L66.483 23.629C68.948 23.629 70.947 21.745 70.947 19.42C70.947 17.096 68.948 15.211 66.483 15.211L66.343 15.211L53.401 15.178"/>
   <path stroke-width="0.131" stroke-linejoin="round" id="AUTOID_5705" d="M19.74 43.993C21.463 45.59 23.972 46.265 26.408 45.557C28.492 44.951 30.077 43.463 30.867 41.627C31.288 40.34 31.632 39.96 32.633 39.96C33.631 39.96 35.734 39.96 35.734 39.96"/>
   <path stroke-width="0.131" stroke-linejoin="round" id="AUTOID_5706" d="M30.701 29.757C30.701 30.653 30.254 32.046 29.117 32.067C27.185 32.101 25.635 31.998 23.958 32.128C23.5 32.165 23.038 32.25 22.579 32.384C20.422 33.011 18.8 34.582 18.041 36.509C17.638 37.512 17.707 37.857 16.844 38.03C15.983 38.203 13.708 38.651 13.019 38.857C12.48 39.018 12.535 39.444 12.64 40.098C12.743 40.753 13.157 42.374 13.364 42.993C13.57 43.615 13.949 43.476 14.984 43.442C16.018 43.408 17.5 43.27 18.085 43.27C18.672 43.27 19.062 43.189 19.429 43.634C19.516 43.741 19.606 43.844 19.699 43.945"/>
   <path stroke-width="0.131" stroke-linejoin="round" id="AUTOID_5707" d="M30.115 29.137C29.771 30.929 29.358 30.942 28.53 30.942C26.746 30.94 25.204 30.876 23.557 31.004C23.016 31.05 22.471 31.149 21.928 31.306C19.268 32.081 17.297 34.073 16.457 36.487C16.327 36.709 15.753 37.008 15.339 37.11C14.926 37.215 13.224 37.68 12.778 37.823C12.019 38.064 11.76 37.857 12.192 40.064C12.618 42.246 12.715 43.908 13.858 43.924C15.442 43.948 17.925 43.832 18.338 43.832C18.753 43.832 19.105 44.246 19.718 44.706C21.004 45.67 22.754 46.404 25.647 46.118C26.096 46.073 26.548 45.975 27.001 45.844C29.158 45.216 30.812 43.72 31.649 41.887C31.693 41.765 31.754 41.67 31.795 41.564"/>
   <path stroke-width="0.3" stroke-linejoin="round" d="M41.826 63.084C41.72 62.78 41.664 62.451 41.664 62.107C41.664 60.575 42.805 59.332 44.215 59.332C45.622 59.332 46.765 60.575 46.765 62.107C46.765 62.404 46.722 62.689 46.643 62.957"/>
   <path stroke-width="0.131" stroke-linejoin="round" d="M46.643 62.957C46.314 64.073 45.35 64.882 44.215 64.882C43.121 64.882 42.189 64.135 41.826 63.084"/>
   <path stroke-width="0.3" stroke-linejoin="round" d="M48.383 57.817L48.381 62.107C48.381 64.611 46.631 66.641 44.472 66.641C42.314 66.641 40.564 64.611 40.564 62.107L40.563 58.195"/>
   <path stroke-width="0.3" stroke-linejoin="round" d="M46.68 61.784C46.392 62.972 45.396 63.848 44.215 63.848C43.045 63.848 42.06 62.993 41.759 61.826"/>
   <path stroke-width="0.131" stroke-linejoin="round" d="M40.732 57.229C41.042 56.609 41.216 56.402 41.698 56.368C42.18 56.334 46.454 56.368 47.076 56.368C47.695 56.368 47.868 56.54 48.179 57.334"/>
   <path stroke-width="0.3" stroke-linejoin="round" d="M35.424 36.341C35.424 31.163 39.637 26.966 44.835 26.966C50.031 26.966 54.246 31.163 54.246 36.341C54.246 41.518 50.031 45.716 44.835 45.716C39.637 45.716 35.424 41.518 35.424 36.341z"/>
   <path stroke-width="0.3" stroke-linejoin="round" d="M38.331 36.341C38.331 32.762 41.243 29.861 44.835 29.861C48.426 29.861 51.338 32.762 51.338 36.341C51.338 39.92 48.426 42.822 44.835 42.822C41.243 42.822 38.331 39.92 38.331 36.341z"/>
   <path stroke-width="0.3" stroke-linejoin="round" d="M40.545 36.646C40.545 34.286 42.466 32.371 44.835 32.371C47.204 32.371 49.125 34.286 49.125 36.646C49.125 39.006 47.204 40.92 44.835 40.92C42.466 40.92 40.545 39.006 40.545 36.646z"/>
   <path stroke-width="0.3" stroke-linejoin="round" d="M41.825 36.646C41.825 34.99 43.173 33.646 44.835 33.646C46.496 33.646 47.844 34.99 47.844 36.646C47.844 38.301 46.496 39.645 44.835 39.645C43.173 39.645 41.825 38.301 41.825 36.646z"/>
   <path stroke-width="0.131" stroke-linejoin="round" d="M44.508 36.668C44.508 36.478 44.661 36.323 44.851 36.323C45.042 36.323 45.197 36.478 45.197 36.668C45.197 36.859 45.042 37.014 44.851 37.014C44.661 37.014 44.508 36.859 44.508 36.668z"/>
   <path stroke-width="0.131" stroke-linejoin="round" d="M61.966 23.242C61.484 22.897 61.311 22.795 61.311 22.347C61.311 21.897 61.311 17.245 61.311 16.762C61.311 16.28 61.793 15.659 62.07 15.659"/>
   <path stroke-width="0.131" stroke-linejoin="round" d="M19.292 15.521C19.809 15.968 19.981 16.038 19.981 16.623C19.981 17.21 19.981 21.76 19.981 22.173C19.981 22.588 19.396 22.657 18.774 22.795"/>
   <path stroke-width="0.3" stroke-linejoin="round" d="M19.166 54.472C19.166 54.472 19.166 62.332 19.166 62.975C19.166 63.618 19.35 64.171 20.039 64.171C20.728 64.171 32.816 64.171 33.506 64.171C34.195 64.171 34.332 63.776 34.332 63.177C34.332 62.581 34.332 54.747 34.332 54.747"/>
  </g>
  <g>
   <g>
    <path stroke-width="0.3" stroke-linejoin="round" d="M116.24 45.521L116.242 58.368"/>
    <path stroke-width="0.3" stroke-linejoin="round" d="M124.349 45.893L124.346 57.996"/>
    <path stroke-width="0.3" stroke-linejoin="round" d="M117.552 63.164C117.442 62.865 117.384 62.542 117.384 62.206C117.384 60.703 118.566 59.484 120.027 59.484C121.486 59.484 122.67 60.703 122.67 62.206C122.67 62.496 122.625 62.777 122.543 63.039"/>
    <path stroke-width="0.131" stroke-linejoin="round" d="M122.543 63.039C122.201 64.135 121.203 64.927 120.027 64.927C118.894 64.927 117.929 64.194 117.552 63.164"/>
    <path stroke-width="0.3" stroke-linejoin="round" d="M124.346 57.996L124.343 62.206C124.343 64.662 122.531 66.652 120.295 66.652C118.058 66.652 116.245 64.662 116.245 62.206L116.242 58.368"/>
    <path stroke-width="0.3" stroke-linejoin="round" d="M122.581 61.89C122.283 63.054 121.251 63.914 120.027 63.914C118.816 63.914 117.795 63.075 117.483 61.932"/>
    <path stroke-width="0.131" stroke-linejoin="round" d="M116.42 57.423C116.74 56.814 116.92 56.61 117.418 56.576C117.918 56.543 122.347 56.576 122.99 56.576C123.634 56.576 123.811 56.746 124.134 57.524"/>
   </g>
   <path stroke-width="0.3" stroke-linejoin="round" d="M116.075 54.694C103.656 54.606 88.603 54.49 87.472 54.457C85.569 54.399 83.956 53.072 83.608 50.476C83.263 47.883 82.743 35.829 82.917 30.12C83.09 24.411 83.667 23.603 85.569 22.739"/>
   <path stroke-width="0.3" stroke-linejoin="round" d="M136.663 24.065C136.778 30.178 136.836 31.1 136.836 36.232C136.836 41.365 136.318 49.267 136.086 51.226C135.855 53.188 134.413 54.802 132.568 54.802C132.085 54.802 128.879 54.781 124.379 54.752"/>
   <path stroke-width="0.3" stroke-linejoin="round" d="M128.806 15.404C136.086 15.444 141.747 15.473 142.906 15.473C145.284 15.473 146.669 17.809 146.669 19.625C146.669 21.442 145.241 23.864 143.165 23.864C141.09 23.864 128.763 23.864 127.768 23.864C126.772 23.864 126.599 24.123 126.599 24.728C126.599 25.333 126.599 28.62 126.599 28.62"/>
   <path stroke-width="0.3" stroke-linejoin="round" d="M114.534 28.535C114.534 28.535 114.534 25.722 114.534 24.859C114.534 23.992 114.015 23.873 112.846 23.873C111.679 23.873 88.194 23.873 88.194 23.873C85.944 23.873 84.302 21.355 84.302 18.903C84.302 16.454 86.578 15.169 88.569 15.169C88.569 15.169 94.31 15.208 102.725 15.256"/>
   <path stroke-width="0.131" stroke-linejoin="round" d="M137.355 15.962C136.778 16.251 136.75 16.684 136.75 16.684C136.75 16.684 136.75 22.48 136.75 22.884C136.75 23.286 137.096 23.632 137.096 23.632"/>
   <path stroke-width="0.131" stroke-linejoin="round" d="M95.055 15.789C95.259 16.135 95.373 16.367 95.373 16.568C95.373 16.769 95.373 22.652 95.373 22.94C95.373 23.228 94.912 23.489 94.912 23.489"/>
   <path stroke-width="0.3" stroke-linejoin="round" d="M96.194 15.198C96.079 15.127 96.037 14.81 96.037 14.666C96.037 14.522 96.037 10.384 96.037 9.994C96.037 9.605 96.296 9.548 96.584 9.548"/>
   <path stroke-width="0.3" stroke-linejoin="round" d="M136.461 15.387C136.461 15.387 136.461 11.436 136.461 10.672C136.461 9.907 136.36 9.792 136.086 9.792C135.812 9.792 131.401 9.792 130.81 9.792C130.218 9.792 129.614 9.403 129.614 8.855C129.614 8.307 129.614 6.966 129.614 5.511C129.614 4.054 129.311 2.671 127.768 2.613C126.225 2.556 105.162 2.426 103.936 2.426C102.71 2.426 101.99 3.52 101.99 4.242C101.99 4.963 101.99 7.99 101.99 8.625C101.99 9.259 101.471 9.548 100.995 9.649L96.555 9.649"/>
   <path stroke-width="0.3" stroke-linejoin="round" d="M129.05 15.243C128.719 15.502 128.272 15.573 127.739 15.573C127.206 15.573 104.052 15.573 103.677 15.573C103.302 15.573 103.144 15.271 102.596 15.112"/>
   <path stroke-width="0.3" stroke-linejoin="round" d="M130.305 9.619C130.305 9.619 130.305 7.802 130.305 7.687C130.305 7.573 130.391 7.355 130.665 7.355C130.939 7.355 135.134 7.355 135.424 7.355C135.711 7.355 135.871 7.601 135.871 7.774C135.871 7.948 135.871 9.705 135.871 9.705"/>
   <path stroke-width="0.3" stroke-linejoin="round" d="M96.828 9.619C96.828 9.619 96.828 7.802 96.828 7.687C96.828 7.573 96.915 7.355 97.189 7.355C97.433 7.355 100.774 7.355 101.716 7.355"/>
   <path stroke-width="0.131" stroke-linejoin="round" d="M103.18 15.039C103.375 14.803 103.483 14.349 103.548 14.111C103.612 13.872 103.548 6.261 103.548 5.655C103.548 5.049 103.59 4.097 105.191 4.097C106.79 4.097 124.676 4.097 125.54 4.097C126.406 4.097 128.027 4.054 128.027 6.434C128.027 8.811 128.027 14.369 128.027 14.695C128.027 15.019 128.675 15.214 128.675 15.214"/>
   <path stroke-width="0.131" stroke-linejoin="round" d="M131.012 10.131L131.012 15.039"/>
   <path stroke-width="0.131" stroke-linejoin="round" d="M100.844 10.044L100.844 14.868"/>
   <path stroke-width="0.3" stroke-linejoin="round" d="M97.103 54.6C97.103 54.6 97.103 62.847 97.103 63.395C97.103 63.942 97.536 64.433 98.775 64.433C100.016 64.433 110.251 64.433 111.058 64.433C111.865 64.433 112.501 64.001 112.501 62.5C112.501 61.002 112.501 55.005 112.501 55.005"/>
   <path stroke-width="0.3" stroke-linejoin="round" d="M87.191 17.443C87.558 17.196 87.996 17.03 88.474 16.969"/>
   <path stroke-width="0.131" stroke-linejoin="round" d="M87.087 21.375C86.465 20.916 86.069 20.222 86.069 19.445C86.069 18.626 86.51 17.899 87.191 17.443"/>
   <path stroke-width="0.131" stroke-linejoin="round" d="M88.203 21.875C87.787 21.783 87.408 21.611 87.087 21.375"/>
   <path stroke-width="0.3" stroke-linejoin="round" d="M88.474 16.969C88.603 16.951 88.737 16.943 88.875 16.943C90.424 16.943 91.68 18.064 91.68 19.445C91.68 20.826 90.424 21.946 88.875 21.946C88.643 21.946 88.418 21.922 88.203 21.875"/>
   <path stroke-width="0.3" stroke-linejoin="round" d="M87.823 21.071C87.2 20.612 86.804 19.919 86.804 19.143C86.804 18.419 87.147 17.768 87.698 17.31"/>
   <path stroke-width="0.3" stroke-linejoin="round" d="M89.609 21.643C88.93 21.643 88.308 21.428 87.823 21.071"/>
   <path stroke-width="0.131" stroke-linejoin="round" d="M84.986 19.445C84.986 17.391 86.781 15.727 88.992 15.727C91.206 15.727 93 17.391 93 19.445C93 21.498 91.206 23.164 88.992 23.164C86.781 23.164 84.986 21.498 84.986 19.445z"/>
   <path stroke-width="0.3" stroke-linejoin="round" d="M143.925 21.681C143.556 21.928 143.118 22.096 142.641 22.157"/>
   <path stroke-width="0.131" stroke-linejoin="round" d="M144.026 17.751C144.651 18.21 145.048 18.903 145.048 19.681C145.048 20.498 144.606 21.225 143.925 21.681"/>
   <path stroke-width="0.131" stroke-linejoin="round" d="M142.912 17.251C143.328 17.341 143.706 17.515 144.026 17.751"/>
   <path stroke-width="0.3" stroke-linejoin="round" d="M142.641 22.157C142.51 22.173 142.377 22.181 142.241 22.181C140.691 22.181 139.435 21.062 139.435 19.681C139.435 18.298 140.691 17.178 142.241 17.178C142.472 17.178 142.697 17.204 142.912 17.251"/>
   <path stroke-width="0.3" stroke-linejoin="round" d="M143.292 18.053C143.914 18.513 144.312 19.207 144.312 19.983C144.312 20.707 143.967 21.358 143.417 21.815"/>
   <path stroke-width="0.3" stroke-linejoin="round" d="M141.506 17.481C142.185 17.481 142.806 17.696 143.292 18.053"/>
   <path stroke-width="0.131" stroke-linejoin="round" d="M146.128 19.681C146.128 21.734 144.335 23.399 142.122 23.399C139.909 23.399 138.116 21.734 138.116 19.681C138.116 17.626 139.909 15.961 142.122 15.961C144.335 15.961 146.128 17.626 146.128 19.681z"/>
   <path stroke-width="0.131" stroke-linejoin="round" d="M105.956 24.649C106.518 24.914 106.748 25.211 106.748 25.574C106.748 25.937 106.748 29.373 106.748 30.001C106.748 30.628 106.847 30.76 107.938 30.76C108.757 30.76 111.194 30.76 112.358 30.76"/>
   <path stroke-width="0.131" stroke-linejoin="round" d="M112.099 41.249C112.099 41.249 109.49 41.249 108.896 41.249C108.302 41.249 108.251 41.576 107.995 42.231"/>
   <path stroke-width="0.131" stroke-linejoin="round" d="M105.79 28.713C105.79 28.713 90.533 28.713 89.343 28.713C88.155 28.713 87.659 28.745 87.659 30.1C87.659 31.454 87.659 38.289 87.659 41.131C87.659 43.97 90.17 49.255 98.756 49.255C105.263 49.255 102.555 48.496 106.022 48.496C109.49 48.496 116.03 48.496 116.03 48.496"/>
   <path stroke-width="0.131" stroke-linejoin="round" d="M106.024 28.106C106.024 28.106 89.865 28.106 88.606 28.106C87.346 28.106 86.822 28.141 86.822 29.599C86.822 31.056 86.822 38.411 86.822 41.466C86.822 44.521 89.48 50.207 98.575 50.207C105.463 50.207 102.596 49.39 106.269 49.39C109.179 49.39 114.132 49.39 116.063 49.39"/>
   <path stroke-width="0.131" stroke-linejoin="round" id="AUTOID_5763" d="M96.444 44.399C98.094 45.929 100.498 46.578 102.834 45.899C104.831 45.317 106.347 43.893 107.105 42.131C107.509 40.899 107.838 40.536 108.796 40.536C109.754 40.536 111.769 40.536 111.769 40.536"/>
   <path stroke-width="0.131" stroke-linejoin="round" id="AUTOID_5764" d="M106.947 30.76C106.947 31.618 106.518 32.953 105.427 32.972C103.578 33.006 102.091 32.906 100.486 33.03C100.046 33.067 99.603 33.149 99.164 33.277C97.097 33.878 95.543 35.383 94.816 37.228C94.43 38.191 94.495 38.521 93.67 38.686C92.844 38.851 90.665 39.28 90.004 39.478C89.489 39.633 89.543 40.04 89.641 40.667C89.74 41.295 90.137 42.847 90.334 43.442C90.533 44.036 90.897 43.905 91.887 43.871C92.878 43.838 94.298 43.707 94.858 43.707C95.421 43.707 95.796 43.628 96.147 44.057C96.23 44.158 96.316 44.258 96.406 44.353"/>
   <path stroke-width="0.131" stroke-linejoin="round" id="AUTOID_5765" d="M106.385 29.82C106.055 31.609 105.659 31.621 104.865 31.621C103.158 31.62 101.679 31.557 100.102 31.684C99.584 31.73 99.061 31.829 98.54 31.986C95.992 32.759 94.102 34.749 93.298 37.161C93.174 37.381 92.625 37.68 92.228 37.783C91.831 37.887 90.201 38.353 89.772 38.494C89.046 38.735 88.799 38.529 89.212 40.732C89.62 42.914 89.713 44.572 90.808 44.588C92.326 44.612 94.704 44.496 95.102 44.496C95.498 44.496 95.835 44.909 96.423 45.368C97.656 46.332 99.331 47.064 102.105 46.777C102.534 46.734 102.968 46.637 103.403 46.506C105.468 45.878 107.052 44.384 107.855 42.554C107.896 42.432 107.954 42.337 107.995 42.231"/>
   <path stroke-width="0.131" stroke-linejoin="round" d="M86.203 50.362C86.203 49.439 86.992 48.689 87.963 48.689C88.935 48.689 89.721 49.439 89.721 50.362C89.721 51.286 88.935 52.034 87.963 52.034C86.992 52.034 86.203 51.286 86.203 50.362z"/>
   <path stroke-width="0.3" stroke-linejoin="round" d="M86.614 50.362C86.614 49.652 87.218 49.079 87.963 49.079C88.709 49.079 89.313 49.652 89.313 50.362C89.313 51.07 88.709 51.645 87.963 51.645C87.218 51.645 86.614 51.07 86.614 50.362z"/>
   <path stroke-width="0.131" stroke-linejoin="round" d="M130.061 50.362C130.061 49.439 130.848 48.689 131.818 48.689C132.79 48.689 133.578 49.439 133.578 50.362C133.578 51.286 132.79 52.034 131.818 52.034C130.848 52.034 130.061 51.286 130.061 50.362z"/>
   <path stroke-width="0.3" stroke-linejoin="round" d="M130.469 50.362C130.469 49.652 131.074 49.079 131.818 49.079C132.564 49.079 133.169 49.652 133.169 50.362C133.169 51.07 132.564 51.645 131.818 51.645C131.074 51.645 130.469 51.07 130.469 50.362z"/>
   <path stroke-width="0.131" stroke-linejoin="round" d="M111.121 36.017C111.554 31.338 115.504 27.675 120.311 27.675C125.18 27.675 129.167 31.429 129.516 36.189"/>
   <path stroke-width="0.3" stroke-linejoin="round" d="M129.516 36.189C129.533 36.414 129.542 36.642 129.542 36.871C129.542 41.95 125.409 46.067 120.311 46.067C115.213 46.067 111.081 41.95 111.081 36.871C111.081 36.582 111.094 36.298 111.121 36.017"/>
   <path stroke-width="0.3" stroke-linejoin="round" d="M111.081 36.093C111.081 31.015 115.213 26.896 120.311 26.896C125.409 26.896 129.542 31.015 129.542 36.093"/>
   <path stroke-width="0.3" stroke-linejoin="round" d="M113.933 36.871C113.933 33.36 116.789 30.515 120.311 30.515C123.834 30.515 126.691 33.36 126.691 36.871C126.691 40.381 123.834 43.226 120.311 43.226C116.789 43.226 113.933 40.381 113.933 36.871z"/>
   <path stroke-width="0.131" stroke-linejoin="round" d="M117.359 37.17C117.359 35.545 118.682 34.228 120.311 34.228C121.941 34.228 123.263 35.545 123.263 37.17C123.263 38.795 121.941 40.112 120.311 40.112C118.682 40.112 117.359 38.795 117.359 37.17z"/>
   <path stroke-width="0.131" stroke-linejoin="round" d="M119.99 37.192C119.99 37.006 120.141 36.854 120.328 36.854C120.516 36.854 120.667 37.006 120.667 37.192C120.667 37.38 120.516 37.53 120.328 37.53C120.141 37.53 119.99 37.38 119.99 37.192z"/>
  </g>
  <path stroke="none" fill="#B2B2B2" d="M38.496 35.545C38.526 35.603 39.201 33.597 39.466 32.957 39.731 32.317 40.494 31.76 41.466 31.428 42.435 31.097 42.097 31.422 42.67 31.047 43.243 30.672 44.14 30.077 45.198 30.253 46.256 30.429 46.234 30.878 46.808 30.878 47.381 30.878 48.198 30.937 48.594 31.466 48.99 31.995 48.932 32.517 49.374 32.576 49.822 32.636 50.887 35.317 50.932 35.956 50.975 36.595 50.557 36.911 50.798 37.353 51.042 37.793 51.042 37.948 51.24 37.594 51.439 37.243 51.505 37.109 51.505 36.317 51.505 35.523 51.792 34.75 51.46 34.045 51.13 33.34 50.645 33.252 50.469 32.545 50.292 31.841 50.049 31.466 49.609 31.222 49.167 30.981 48.844 30.378 48.051 29.87 47.256 29.364 46.125 29.335 45.463 29.4 44.801 29.466 43.978 29.15 43.405 29.283 42.832 29.414 42.567 29.673 41.729 30.047 40.892 30.422 39.996 30.958 39.753 31.266 39.509 31.576 39.363 32.046 39.054 32.576 38.746 33.104 38.168 34.892 38.496 35.545z"/>
  <path stroke="none" fill="#B2B2B2" d="M43.207 42.746C43.765 42.72 44.06 42.365 44.823 42.335 45.588 42.307 45.765 42.6 46.764 42.07 47.764 41.542 48.344 40.895 49.109 40.512 49.872 40.131 49.792 40.719 50.234 40.042 50.673 39.366 50.645 39.896 50.469 40.159 50.292 40.424 50.174 40.865 50.057 41.159 49.939 41.454 49.646 41.689 49.292 41.777 48.939 41.865 48.734 41.865 48.411 42.218 48.087 42.57 47.881 42.865 47.441 42.893 47 42.923 46.881 42.689 46.47 42.923 46.058 43.158 46.206 43.481 45.53 43.393 44.853 43.305 44.53 43.188 43.972 43.218 43.412 43.246 42.59 42.777 43.207 42.746z"/>
  <path stroke="none" fill="#B2B2B2" d="M43.082 38.719C42.99 38.213 42.465 37.926 42.905 37.396 43.347 36.868 44.082 36 44.61 36.308 45.14 36.618 45.286 36.734 45.948 36.734 46.609 36.734 46.521 36.646 46.698 37.353 46.875 38.057 46.831 38.411 45.993 38.676 45.155 38.939 45.243 38.499 44.582 38.807 43.92 39.116 43.347 40.174 43.082 38.719z"/>
  <path stroke="none" fill="#B2B2B2" d="M42.186 35.323C42.475 35.036 42.46 34.799 42.712 34.548 42.963 34.295 43.555 33.856 43.823 33.875 44.499 33.924 44.662 34.106 44.348 34.191 44.033 34.274 43.74 34.421 43.466 34.695 43.195 34.966 42.774 35.051 42.606 35.365 42.439 35.68 42.375 35.597 42.145 36.058 41.914 36.52 41.831 36.667 41.746 36.162 41.662 35.659 41.851 35.659 42.186 35.323z"/>
  <g>
   <path stroke="#FFFFFF" stroke-width="0.706" stroke-linejoin="round" fill="#FFFFFF" d="M3.123 71.936L28.92 71.936 45.523 41.747 36.731 71.936 60.808 71.936 60.808 124.063 3.123 124.063 3.123 71.936z"/>
   <path stroke="#1A171B" stroke-width="0.3" stroke-linejoin="round" d="M3.123 71.936L28.92 71.936L45.523 41.747L36.731 71.936L60.808 71.936L60.808 124.063L3.123 124.063L3.123 71.936z"/>
  </g>
  <path stroke-width="0.3" d="M36.61 106.115C36.618 104.177 33.905 102.593 30.547 102.578C27.189 102.563 24.46 104.123 24.452 106.063C24.443 108.001 27.158 109.584 30.515 109.599C33.874 109.614 36.601 108.054 36.61 106.115z"/>
  <path stroke-width="0.13" d="M38.256 106.275C38.316 103.811 34.905 101.73 30.638 101.629C26.373 101.525 22.865 103.438 22.806 105.903"/>
  <path stroke-width="0.3" d="M22.806 105.903C22.746 108.365 26.157 110.447 30.423 110.549C34.689 110.653 38.197 108.739 38.256 106.275"/>
  <path stroke-width="0.3" d="M39.478 100.593C39.517 99.23 38.655 97.962 37.215 96.989"/>
  <path stroke-width="0.3" d="M22.995 97.099C21.85 97.99 21.286 99.034 21.266 100.063"/>
  <path stroke-width="0.13" d="M21.266 100.063C21.234 101.183 21.812 102.242 22.806 103.108"/>
  <path stroke-width="0.13" d="M38.256 103.114C39.07 102.317 39.463 101.439 39.478 100.593"/>
  <path stroke-width="0.13" d="M18.05 101.331C18.789 103.069 20.528 104.525 22.806 105.524"/>
  <path stroke-width="0.13" d="M38.191 105.632C40.609 104.59 42.186 103.14 42.847 101.581"/>
  <path stroke-width="0.3" d="M22.806 105.903L22.806 97.62"/>
  <path stroke-width="0.3" d="M38.256 106.275L38.256 97.876"/>
  <path stroke-width="0.13" d="M21.573 98.885C21.83 99.507 22.265 100.079 22.806 100.555"/>
  <path stroke-width="0.13" d="M38.256 100.659C38.718 100.218 39.051 99.751 39.241 99.308"/>
  <path stroke-width="0.3" d="M13.249 102.771C13.122 108.248 20.71 112.867 30.196 113.085C39.682 113.305 47.473 109.043 47.6 103.566"/>
  <path stroke-width="0.13" d="M47.6 103.566C47.728 98.088 40.14 93.471 30.655 93.251C21.169 93.031 13.375 97.293 13.249 102.771"/>
  <path stroke-width="0.13" d="M47.656 102.022C47.783 96.546 40.197 91.927 30.71 91.709C21.225 91.489 13.432 95.751 13.304 101.227"/>
  <path stroke-width="0.3" d="M47.656 102.024L47.6 103.566"/>
  <path stroke-width="0.3" d="M13.304 101.227L13.249 102.771"/>
  <path stroke-width="0.13" d="M48.185 101.337C48.27 95.682 40.399 90.978 30.605 90.831C20.811 90.686 12.803 95.15 12.718 100.805"/>
  <path stroke-width="0.3" d="M12.718 100.805C12.705 101.659 12.874 102.489 13.178 103.215"/>
  <path stroke-width="0.3" d="M47.584 103.888C47.99 103.013 48.186 102.132 48.185 101.337"/>
  <path stroke-width="0.3" d="M48.036 96.195C48.121 90.542 40.25 85.837 30.457 85.691C20.664 85.545 12.654 90.01 12.57 95.665"/>
  <path stroke-width="0.3" d="M48.036 96.195L48.185 101.337"/>
  <path stroke-width="0.3" d="M12.57 95.665L12.718 100.805"/>
  <path stroke-width="0.3" d="M43.195 103.353C43.253 99.281 37.585 95.899 30.532 95.796C23.48 95.694 17.714 98.912 17.655 102.983"/>
  <path stroke-width="0.3" d="M31.519 106.093C31.521 105.778 31.079 105.521 30.533 105.518C29.987 105.516 29.545 105.769 29.542 106.084C29.542 106.4 29.983 106.656 30.528 106.659C31.074 106.662 31.518 106.408 31.519 106.093z"/>
  <path stroke-width="0.13" d="M17.655 102.983C17.597 107.055 23.265 110.438 30.318 110.54C37.369 110.644 43.134 107.426 43.195 103.353"/>
  <path stroke="none" fill="#B2B2B2" d="M17.594 101.456C17.4 101.189 17.388 100.602 17.713 100.337 18.036 100.073 18.065 100.073 18.182 99.397 18.3 98.721 17.977 98.427 18.8 98.338 19.623 98.251 19.594 98.427 20.094 97.897 20.594 97.368 21.535 96.457 21.798 96.486 22.064 96.516 22.416 96.87 22.739 96.516 23.062 96.164 23.798 95.664 25.239 95.751 26.678 95.84 26.326 95.546 27.266 95.37 28.207 95.194 29.882 94.635 31.853 94.84 33.823 95.046 33.734 95.37 34.676 95.635 35.615 95.899 36.145 96.016 36.792 95.987 37.439 95.957 37.762 96.046 38.115 96.429 38.468 96.811 38.555 96.811 39.79 97.603 41.026 98.397 41.643 98.162 41.908 98.838 42.171 99.515 42.378 99.986 42.759 100.427 43.142 100.867 43.289 100.954 43.289 101.513 43.289 102.072 43.966 103.365 43.465 103.513 42.966 103.661 42.996 104.072 42.847 103.365 42.701 102.661 42.701 101.426 42.406 101.015 42.112 100.602 40.761 99.515 40.231 99.132 39.703 98.751 39.262 98.545 38.82 98.103 38.38 97.662 37.704 97.281 37.204 97.134 36.704 96.986 36.087 97.368 35.322 97.134 34.557 96.899 32.823 96.605 31.853 96.486 30.882 96.37 29.06 95.899 28.12 96.075 27.178 96.251 26.327 96.222 25.737 96.251 25.15 96.281 25.15 96.868 24.562 97.192 23.974 97.516 24.091 97.34 23.21 97.662 22.327 97.986 21.975 97.956 21.358 98.192 20.74 98.427 20.769 98.603 19.975 99.073 19.182 99.545 18.888 100.191 18.536 100.515 18.182 100.837 17.919 101.897 17.594 101.456z"/>
  <path stroke="none" fill="#B2B2B2" d="M31.295 110.819C31.736 111.171 32.441 111.171 33.057 110.995 33.676 110.819 33.807 110.641 34.777 110.597 35.747 110.554 36.277 110.51 36.673 110.2 37.07 109.893 37.35 110.04 38.143 109.951 38.938 109.862 39.938 109.143 40.335 108.658 40.731 108.173 42.054 107.731 42.009 107.203 41.966 106.674 42.319 105.924 41.746 105.924 41.171 105.924 41.216 106.233 40.776 106.762 40.335 107.29 40.776 107.29 39.496 107.731 38.218 108.173 38.35 108.173 37.82 108.658 37.292 109.143 37.204 109.23 36.63 109.495 36.057 109.76 34.161 110.29 33.719 110.378 33.279 110.465 31.295 110.819 31.295 110.819z"/>
  <path stroke="none" fill="#B2B2B2" d="M19.021 105.628C18.582 105.088 18.818 104.718 18.515 104.45 18.213 104.18 17.843 103.977 17.573 104.146 17.303 104.314 17.269 104.718 17.573 105.224 17.876 105.727 18.347 106.064 18.785 106.637 19.222 107.209 19.155 107.176 19.76 107.68 20.367 108.186 20.468 108.118 21.007 108.623 21.545 109.129 21.847 108.689 22.016 108.218 22.184 107.748 22.083 107.311 21.242 107.108 20.4 106.906 20.199 106.873 19.896 106.402 19.593 105.93 19.661 105.728 19.222 105.426 18.785 105.123 19.021 105.628 19.021 105.628z"/>
  <path stroke="none" fill="#B2B2B2" d="M29.795 106.54C28.913 106.953 28.972 107.012 29.149 107.659 29.324 108.305 29.853 108.481 30.324 109.01 30.795 109.54 31.382 109.01 32.323 108.834 33.265 108.658 34.615 108.01 33.793 107.481 32.969 106.953 32.323 107.012 32.323 106.54 32.323 106.07 32.146 105.894 31.736 106.012 31.324 106.129 30.676 105.718 30.382 105.953 30.089 106.188 29.795 106.54 29.795 106.54z"/>
  <path stroke="none" fill="#B2B2B2" d="M24.684 105.435C24.23 105.141 24.646 104.787 24.836 104.558 25.027 104.331 25.179 103.95 25.789 103.721 26.397 103.492 27.128 102.612 27.814 102.575 28.498 102.536 28.21 102.85 29.125 102.813 30.039 102.775 30.169 103.379 29.673 103.454 29.178 103.531 28.913 103.111 28.303 103.569 27.693 104.025 27.655 104.102 27.083 104.025 26.513 103.95 26.475 103.912 26.056 104.179 25.637 104.444 25.561 104.444 25.179 104.787 24.798 105.131 25.332 105.853 24.684 105.435z"/>
  <path stroke="none" fill="#B2B2B2" id="AUTOID_5816" d="M114.725 34.503C114.819 34.139 114.442 33.979 114.501 33.569 114.56 33.156 114.436 33.14 114.789 32.728 115.141 32.316 115.064 32.704 115.358 32.262 115.652 31.821 115.481 31.692 115.909 31.48 116.338 31.268 116.099 31.632 116.516 31.356 116.933 31.079 116.733 31.007 117.091 30.995 117.45 30.984 118.576 30.224 118.93 30.399 119.283 30.576 120.646 30.522 120.222 30.987 119.799 31.452 118.138 31.46 117.579 31.841 117.022 32.225 115.995 32.96 115.471 33.685 114.95 34.408 114.725 34.503 114.725 34.503z"/>
  <g>
   <path stroke="none" fill="#B2B2B2" d="M122.09 31.045C122.634 31.318 122.814 31.318 123.313 31.272 123.811 31.228 123.813 31.181 124.266 31.408 124.718 31.635 124.718 31.635 124.9 31.952 125.081 32.27 124.945 32.134 125.444 32.405 125.942 32.677 125.76 32.542 126.033 32.994 126.305 33.448 126.35 33.539 126.441 33.948 126.531 34.354 126.759 34.265 126.849 34.718 126.939 35.17 126.712 35.942 126.078 35.987 125.444 36.033 125.715 35.759 125.263 35.216 124.81 34.673 123.54 33.131 123.45 32.994"/>
  </g>
  <g>
   <path stroke="none" fill="#B2B2B2" d="M125.128 40.249C125.308 41.155 125.037 41.698 124.629 42.061 124.221 42.424 124.084 42.697 123.721 42.969 123.359 43.24 123.54 42.606 122.816 42.878 122.09 43.149 122.225 43.331 121.591 43.648 120.956 43.966 120.685 44.055 120.096 43.783 119.506 43.512 119.37 43.331 118.826 43.375 118.283 43.421 118.236 43.557 117.692 43.24 117.149 42.923 117.376 42.923 116.424 42.424 115.471 41.926 115.698 41.789 115.563 41.337 115.427 40.883 115.653 40.384 116.152 40.521"/>
  </g>
  <g>
   <path stroke="#FFFFFF" stroke-width="0.706" stroke-linejoin="round" fill="#FFFFFF" d="M146.025 71.936L136.616 71.936 121.819 42.256 128.806 71.936 88.337 71.936 88.337 124.063 146.025 124.063 146.025 71.936z"/>
   <path stroke="#1A171B" stroke-width="0.3" stroke-linejoin="round" d="M146.025 71.936L136.616 71.936L121.819 42.256L128.806 71.936L88.337 71.936L88.337 124.063L146.025 124.063L146.025 71.936z"/>
  </g>
  <path stroke="none" fill="#B2B2B2" d="M104.421 103.072C104.421 98.981 110.156 95.665 117.23 95.665 124.305 95.665 130.04 98.981 130.04 103.072 130.04 107.165 124.305 110.481 117.23 110.481 110.156 110.481 104.421 107.165 104.421 103.072z"/>
  <g>
   <path stroke-width="0.13" d="M123.405 105.962C123.414 104.025 120.698 102.441 117.341 102.426C113.983 102.412 111.256 103.971 111.246 105.909"/>
   <path stroke-width="0.131" stroke-linejoin="round" d="M116.337 105.932C116.335 106.248 116.777 106.504 117.322 106.507C117.868 106.509 118.313 106.256 118.313 105.941"/>
   <path stroke-width="0.13" d="M125.051 106.123C125.109 103.659 121.7 101.578 117.433 101.475C113.168 101.373 109.661 103.287 109.6 105.75"/>
   <path stroke-width="0.131" stroke-linejoin="round" d="M125.051 104.242C125.109 101.778 121.7 99.697 117.433 99.593C113.168 99.492 109.661 101.405 109.6 103.867"/>
   <path stroke-width="0.3" d="M109.6 105.75C109.54 108.213 112.951 110.293 117.218 110.397C121.484 110.5 124.99 108.585 125.051 106.123"/>
   <path stroke-width="0.3" d="M129.989 103.201C130.048 99.129 124.379 95.745 117.326 95.644C110.274 95.542 104.51 98.759 104.45 102.831"/>
   <path stroke-width="0.3" d="M104.45 102.831C104.391 106.903 110.061 110.287 117.112 110.388C124.165 110.492 129.93 107.272 129.989 103.201"/>
   <path stroke-width="0.3" d="M109.6 105.75L109.6 103.131"/>
   <path stroke-width="0.3" d="M125.051 106.123L125.051 103.483"/>
   <path stroke-width="0.3" d="M100.043 102.617C99.917 108.096 107.504 112.713 116.989 112.933C126.475 113.153 134.269 108.891 134.395 103.414"/>
   <path stroke-width="0.13" d="M134.395 103.414C134.522 97.936 126.936 93.319 117.45 93.099C107.962 92.879 100.17 97.141 100.043 102.617"/>
   <path stroke-width="0.13" d="M134.451 101.87C134.578 96.394 126.99 91.775 117.506 91.555C108.019 91.335 100.225 95.599 100.099 101.075"/>
   <path stroke-width="0.3" d="M134.451 101.871L134.395 103.414"/>
   <path stroke-width="0.3" d="M100.099 101.075L100.043 102.617"/>
   <path stroke-width="0.13" d="M134.979 101.185C135.063 95.53 127.192 90.826 117.4 90.68C107.605 90.533 99.596 94.998 99.513 100.653"/>
   <path stroke-width="0.3" d="M99.513 100.653C99.5 101.506 99.668 102.337 99.971 103.063"/>
   <path stroke-width="0.3" d="M134.377 103.736C134.784 102.861 134.981 101.98 134.979 101.185"/>
   <path stroke-width="0.3" d="M134.831 96.043C134.917 90.388 127.046 85.686 117.251 85.539C107.457 85.393 99.448 89.856 99.364 95.512"/>
   <path stroke-width="0.3" d="M134.831 96.043L134.979 101.185"/>
   <path stroke-width="0.3" d="M99.364 95.513L99.513 100.653"/>
  </g>
  <path stroke-width="0.131" stroke-linejoin="round" d="M105.7 102.132C106.405 102.367 107.346 101.778 107.757 100.956C108.168 100.132 109.109 99.251 110.579 99.132C112.049 99.016 113.284 98.897 114.284 98.134C115.283 97.37 116.93 97.899 117.811 98.016"/>
  <path stroke-width="0.131" stroke-linejoin="round" d="M120.516 97.956C121.397 98.603 122.045 99.486 123.338 99.251C124.632 99.016 125.102 99.368 125.396 99.603"/>
  <path stroke-width="0.131" stroke-linejoin="round" d="M126.102 100.838C126.161 101.484 125.102 101.073 126.983 102.719C128.865 104.365 128.454 104.483 128.395 104.778"/>
  <g>
   <path stroke="none" fill="#B2B2B2" d="M118.087 96.486C118.615 96.311 118.381 95.429 118.968 95.37 119.557 95.311 119.968 95.135 120.379 95.487 120.79 95.84 120.674 95.753 121.203 95.87 121.731 95.987 122.012 95.459 122.658 95.575 123.305 95.692 123.305 96.12 124.245 96.236 125.186 96.355 125.612 96.546 125.847 96.957 126.082 97.368 126.024 97.368 126.73 97.781 127.436 98.192 127.436 98.368 127.728 98.78 128.022 99.191 127.73 99.31 128.317 99.956"/>
  </g>
  <g>
   <path stroke="none" fill="#B2B2B2" d="M112.206 96.486C111.266 96.722 111.661 96.667 110.442 96.457 110.036 96.388 109.798 96.602 109.438 96.667 108.965 96.753 108.418 96.74 108.385 97.075 108.326 97.662 108.033 98.075 107.444 98.134 106.856 98.192 105.974 98.486 105.974 98.956 105.974 99.427 105.792 99.18 105.019 99.588 104.269 99.986 104.875 100.587 104.445 101.337 104.21 101.75 104.387 102.278 104.739 102.337"/>
  </g>
  <g>
   <path stroke="none" fill="#B2B2B2" d="M106.798 106.718C107.091 107.246 106.594 107.328 107.004 107.659 107.62 108.159 108.355 108.423 108.825 108.658 109.296 108.894 108.915 109.069 109.972 109.364 110.421 109.487 110.637 109.549 110.822 109.609 111.073 109.691 111.504 109.978 112.147 110.216 113.265 110.628 114.677 110.51 114.852 110.334 114.852 110.334 112.471 109.715 111.384 109.04 110.296 108.364 110.237 108.246 110.237 108.246"/>
  </g>
  <g>
   <path stroke="none" fill="#B2B2B2" d="M125.495 108.069C126.376 108.481 126.759 108.746 127.141 108.481 127.483 108.245 127.346 107.894 128.024 107.718 128.884 107.492 129.317 107.423 129.14 106.894 128.963 106.364 129.61 106.305 129.787 105.718 129.963 105.129 129.61 104.718 129.317 104.6"/>
  </g>
  <path stroke="none" fill="#B2B2B2" d="M126.516 108.408C126.207 108.694 126.164 108.716 125.811 108.893 125.457 109.069 125.656 109.114 124.665 109.378 123.671 109.643 123.694 109.599 123.099 109.93 122.504 110.26 122.305 110.304 121.885 110.26 121.468 110.215 120.563 110.15 122.106 109.686 123.65 109.224 124.112 108.915 124.245 108.76 124.378 108.606 124.465 108.364 125.084 108.319 125.7 108.275 126.075 107.879 126.582 107.944 127.09 108.01 126.516 108.408 126.516 108.408z"/>
  <path stroke="none" fill="#808080" d="M134.953 84.533L133.05 82.158 117.108 94.939 101.168 82.158 99.265 84.533 114.677 96.89 99.265 109.246 101.168 111.621 117.108 98.84 133.05 111.621 134.953 109.246 119.54 96.89 134.953 84.533z"/>
  <path stroke-width="0.3" stroke-linejoin="round" d="M20.495 14.987C20.379 14.914 20.338 14.598 20.338 14.454C20.338 14.31 20.338 10.172 20.338 9.782C20.338 9.394 20.597 9.336 20.885 9.336"/>
  <path stroke-width="0.3" stroke-linejoin="round" d="M60.762 15.175C60.762 15.175 60.762 11.224 60.762 10.46C60.762 9.695 60.661 9.58 60.387 9.58C60.112 9.58 55.701 9.58 55.11 9.58C54.52 9.58 53.914 9.192 53.914 8.644C53.914 8.096 53.914 6.756 53.914 5.299C53.914 3.843 53.61 2.459 52.069 2.4C50.526 2.343 29.463 2.213 28.237 2.213C27.012 2.213 26.291 3.31 26.291 4.03C26.291 4.751 26.291 7.778 26.291 8.413C26.291 9.048 25.772 9.336 25.297 9.436L20.856 9.436"/>
  <path stroke-width="0.3" stroke-linejoin="round" d="M54.606 9.407C54.606 9.407 54.606 7.591 54.606 7.476C54.606 7.36 54.692 7.144 54.966 7.144C55.24 7.144 59.435 7.144 59.723 7.144C60.012 7.144 60.171 7.389 60.171 7.562C60.171 7.735 60.171 9.494 60.171 9.494"/>
  <path stroke-width="0.3" stroke-linejoin="round" d="M21.129 9.407C21.129 9.407 21.129 7.591 21.129 7.476C21.129 7.36 21.216 7.144 21.49 7.144C21.734 7.144 25.074 7.144 26.018 7.144"/>
  <path stroke-width="0.131" stroke-linejoin="round" d="M27.481 14.829C27.675 14.59 27.783 14.137 27.849 13.899C27.913 13.66 27.849 6.049 27.849 5.442C27.849 4.838 27.891 3.886 29.492 3.886C31.091 3.886 48.976 3.886 49.841 3.886C50.707 3.886 52.328 3.843 52.328 6.222C52.328 8.6 52.328 14.157 52.328 14.483C52.328 14.807 52.976 15.002 52.976 15.002"/>
  <path stroke-width="0.131" stroke-linejoin="round" d="M55.313 9.919L55.313 14.829"/>
  <path stroke-width="0.131" stroke-linejoin="round" d="M25.144 9.833L25.144 14.656"/>
  <path stroke-width="0.3" stroke-linejoin="round" d="M53.204 15.243C52.872 15.502 52.426 15.573 51.892 15.573C51.359 15.573 28.204 15.573 27.829 15.573C27.455 15.573 27.297 15.271 26.748 15.112"/>
 </g>
 <g id="A4_x0020_full_x0020_frame">
  <g>
   <path stroke="#FFFFFF" stroke-width="0.006" d="M150.002 125.543L150.002 0.003L0.003 0.003L0.003 125.543L150.002 125.543z"/>
  </g>
 </g>
 <g id="Picture_x0020_#">
  <g>
   <g>
    <g>
     <g>
      <text transform="matrix(0 -1 1 0 148.818 124.53)" stroke="none" fill="#000000" font-family="'Helvetica'" font-size="2.117">352 143</text>
     </g>
    </g>
   </g>
  </g>
 </g>
</svg>
