<?xml version="1.0" encoding="utf-8"?>
<!DOCTYPE svg PUBLIC "-//W3C//DTD SVG 1.1//EN" "http://www.w3.org/Graphics/SVG/1.1/DTD/svg11.dtd">
<!-- Generator: PTC Arbortext IsoDraw 7.3 -->
<svg id="Standard_x0020_layer" width="100%" height="100%" viewBox="0 0 72.346 61.085"
 xmlns="http://www.w3.org/2000/svg" xmlns:xlink="http://www.w3.org/1999/xlink"
 fill-rule="evenodd" clip-rule="evenodd" stroke="#000000" stroke-linecap="round" fill="none" xml:space="preserve">
 <g>
  <path stroke="none" fill="#BFBFBF" d="M0.266 17.94L1.296 18.414C1.296 18.414 3.234 18.701 3.287 18.85 3.341 19.001 6.192 19.129 6.192 19.129 6.192 19.129 8.82 19.179 9.098 19.175 9.375 19.172 12.842 19.018 12.842 19.018L15.519 18.789 18.489 18.307 18.362 22.443C18.362 22.443 17.823 22.547 17.641 22.582 17.46 22.617 17.307 22.646 17.199 22.666 17.091 22.687 14.176 22.986 14.122 22.99 14.069 22.995 9.936 23.198 9.878 23.199 9.823 23.199 6.304 23.175 6.192 23.172 6.083 23.167 2.879 22.908 2.879 22.908L0.934 22.574 0.15 22.379"/>
 </g>
 <g>
  <path stroke="none" fill="#BFBFBF" d="M33.496 19.978L34.994 18.329C34.994 18.329 34.47 15.958 34.393 15.932 34.317 15.903 32.567 15.279 32.567 15.279 32.567 15.279 32.087 15.247 31.96 15.234 31.832 15.221 27.643 15.955 27.643 15.955 27.643 15.955 26.722 16.422 26.704 16.439 26.686 16.454 26.341 16.861 26.341 16.861L25.882 16.765 25.132 16.391 23.655 16.719 23.527 22.007 25.782 21.557C25.782 21.557 26.445 21.182 26.489 21.141 26.533 21.102 26.853 20.719 26.853 20.719L27.262 20.778C27.262 20.778 27.931 21.184 28.015 21.184 28.1 21.184 28.859 20.986 28.859 20.986 28.859 20.986 32.524 20.272 32.534 20.269 32.545 20.265 32.932 20.092 32.932 20.092"/>
 </g>
 <path stroke-width="0.3" d="M17.312 60.207L17.312 49.359C17.312 49.359 17.006 47.524 16.853 47.524C16.701 47.524 16.853 43.246 16.853 43.246C16.853 43.246 16.701 42.331 17.312 42.024C17.923 41.719 18.381 41.567 18.381 41.567C18.381 41.567 17.769 41.107 20.214 38.817C22.658 36.524 32.59 29.496 32.59 29.496"/>
 <path stroke-width="0.3" d="M39.159 29.19C39.006 29.19 50.314 39.121 50.924 39.579C51.536 40.039 51.993 40.649 52.146 41.414C52.299 42.177 52.299 42.177 52.299 42.177C52.299 42.177 54.286 43.094 54.133 44.317C53.979 45.539 54.133 47.677 53.979 47.677C53.828 47.677 52.911 50.276 52.911 50.276L52.453 60.207"/>
 <path stroke-width="0.13" d="M26.021 49.817C25.257 50.427 25.103 50.734 25.257 52.719C25.408 54.706 25.408 55.317 25.408 55.317L26.172 56.234"/>
 <path stroke-width="0.13" d="M16.838 43.7C18.381 46.456 27.701 48.137 35.188 47.984C42.673 47.831 53.667 47.442 54.052 43.74"/>
 <path stroke-width="0.13" d="M18.381 41.567C18.381 41.567 17.464 42.636 18.992 43.552C20.519 44.469 25.257 46.761 35.951 46.609C46.646 46.456 51.993 45.386 52.453 43.706"/>
 <line stroke-width="0.13" x1="52.453" y1="43.706" x2="52.299" y2="42.177"/>
 <path stroke-width="0.13" d="M16.853 47.524C17.922 49.093 21.283 50.128 25.28 50.787"/>
 <path stroke-width="0.13" d="M27.388 51.094C31.439 51.615 35.82 51.802 39.006 51.802C46.036 51.802 53.368 49.969 53.979 47.677"/>
 <path stroke-width="0.13" d="M17.312 49.359C18.204 50.82 20.913 52.197 24.951 53.095"/>
 <path stroke-width="0.13" d="M27.699 53.6C30.763 54.054 34.377 54.258 38.396 54.094C49.701 53.637 52.442 51.551 52.911 50.276"/>
 <path stroke-width="0.3" d="M33.911 27.958C33.911 27.873 33.954 26.422 33.954 26.422C33.954 26.422 34.168 26.038 35.747 26.038C37.328 26.038 37.67 26.336 37.67 26.464C37.67 26.593 37.712 27.917 37.712 27.917"/>
 <path stroke-width="0.3" d="M37.499 29.283C37.883 29.155 38.139 28.812 38.353 28.428C38.566 28.045 39.591 27.83 40.189 27.702C40.786 27.574 41.512 27.617 41.512 27.917C41.512 28.216 41.512 28.216 41.512 28.216C41.512 28.216 39.719 28.428 39.335 28.385"/>
 <path stroke-width="0.3" d="M40.189 28.35C40.06 28.812 39.454 29.099 39.159 29.19"/>
 <path stroke-width="0.13" d="M39.159 29.19C39.159 29.19 37.584 29.795 36.987 29.753C36.389 29.71 32.59 29.496 32.59 29.496"/>
 <path stroke-width="0.3" d="M32.59 29.496C32.161 29.367 31.649 28.899 31.564 28.472C31.478 28.045 31.307 27.661 31.051 27.617C30.795 27.574 30.367 27.361 30.326 27.361C30.283 27.361 30.367 27.019 30.367 27.019C30.367 27.019 31.521 26.806 32.118 26.849C32.716 26.891 33.527 27.446 33.613 27.83"/>
 <line stroke-width="0.3" x1="33.914" y1="27.832" x2="33.613" y2="27.83"/>
 <line stroke-width="0.3" x1="37.841" y1="27.958" x2="38.353" y2="28.088"/>
 <line stroke-width="0.13" x1="38.353" y1="28.088" x2="38.353" y2="28.428"/>
 <line stroke-width="0.13" x1="34.979" y1="26.678" x2="34.979" y2="28.172"/>
 <line stroke-width="0.13" x1="36.816" y1="26.763" x2="36.816" y2="28.129"/>
 <path stroke-width="0.13" d="M34.125 26.422C34.466 26.336 34.808 26.422 34.979 26.678"/>
 <path stroke-width="0.13" d="M34.979 26.678C35.491 26.379 36.473 26.379 36.816 26.763"/>
 <path stroke-width="0.13" d="M36.816 26.763C37.115 26.464 37.328 26.294 37.67 26.464"/>
 <line stroke-width="0.13" x1="33.911" y1="27.958" x2="35.064" y2="28.3"/>
 <line stroke-width="0.13" x1="35.064" y1="28.3" x2="36.901" y2="28.3"/>
 <line stroke-width="0.13" x1="36.901" y1="28.3" x2="37.712" y2="27.917"/>
 <path stroke-width="0.13" d="M33.613 27.83C33.442 27.83 33.057 28.088 33.057 28.216C33.057 28.344 33.143 28.684 33.143 28.684C33.143 28.684 33.484 29.111 35.363 29.155C37.243 29.198 37.819 29.111 37.847 29.088"/>
 <path stroke-width="0.13" d="M33.21 28.019C33.869 28.515 37.798 28.643 38.353 28.257"/>
 <path stroke-width="0.13" d="M30.568 26.986C31.222 27.19 31.692 27.617 31.777 28.045C31.862 28.472 31.82 28.812 32.545 28.984C33.271 29.155 36.773 29.625 37.499 29.283"/>
 <path stroke-width="0.13" d="M39.335 28.385C39.036 28.344 38.652 28.556 38.566 28.856C38.481 29.155 37.932 29.602 37.719 29.65"/>
 <path stroke-width="0.3" d="M17.131 0.163C19.393 7.216 18.262 21.474 18.262 26.452C18.262 31.431 18.262 31.431 18.262 31.431"/>
 <path stroke-width="0.3" d="M22.46 0.15C23.934 6.376 23.727 16.123 23.512 22.477L23.408 31.431"/>
 <path stroke-width="0.13" d="M18.262 31.431C19.434 32.314 23.286 32.188 23.408 31.431"/>
 <path stroke-width="0.3" d="M18.262 31.431C17.466 31.493 17.138 31.739 17.219 33.051C17.301 34.362 17.312 42.024 17.312 42.024"/>
 <path stroke-width="0.3" d="M23.408 31.431C23.942 31.493 23.978 32.435 23.859 34.198C23.742 35.963 23.742 35.963 23.742 35.963"/>
 <path stroke-width="0.13" d="M17.246 33.781C18.614 34.854 23.449 34.691 23.859 34.198"/>
 <path stroke-width="0.13" d="M17.283 36.197C18.224 36.936 20.812 37.088 22.466 36.95"/>
 <path stroke-width="0.13" d="M18.443 9.271C13.9 9.278 6.522 8.787 5.046 15.18C4.663 16.841 4.379 18.07 4.169 18.98"/>
 <path stroke-width="0.13" d="M18.431 12.881L17.495 12.878C15.582 12.867 13.259 12.801 11.252 13.394C10.676 13.563 10.131 13.788 9.669 14.137C9.132 14.547 8.756 15.153 8.564 15.992C8.564 15.992 8.176 17.664 7.825 19.176"/>
 <path stroke-width="0.13" d="M2.879 22.908C3.004 23.402 3.064 23.525 3.001 23.525"/>
 <path stroke-width="0.13" d="M7.28 23.202C7.248 23.26 7.208 23.324 7.158 23.397C6.775 23.974 6.647 24.23 6.647 24.23"/>
 <path stroke-width="0.13" d="M3.001 23.525C4.025 24.166 6.136 24.42 6.647 24.23"/>
 <path stroke-width="0.13" d="M2.94 23.141C2.427 23.077 1.659 22.949 1.595 23.397C1.531 23.846 1.659 24.166 1.084 25.827C0.508 27.49 0.16 29.73 0.16 29.73"/>
 <path stroke-width="0.13" d="M6.851 23.878C7.735 24.23 8.182 24.038 7.926 24.996C7.671 25.955 6.456 30.945 6.328 31.457C6.2 31.968 5.496 34.973 4.472 36.253C3.45 37.531 0.644 41.049 0.16 41.177"/>
 <path stroke-width="0.13" d="M1.641 23.268C2.387 23.926 6.979 25.435 7.993 24.484"/>
 <path stroke-width="0.13" d="M1.258 25.292C2.212 26.018 6.764 26.887 7.536 26.539"/>
 <path stroke-width="0.13" d="M0.444 28.221C1.397 28.946 5.948 29.815 6.721 29.468"/>
 <path stroke-width="0.3" d="M62.548 0.163C59.505 5.66 56.195 12.355 54.78 18.902"/>
 <path stroke-width="0.3" d="M54.185 22.67C54.011 24.545 54.03 26.385 54.301 28.155C55.674 37.189 58.064 43.865 71.891 48.774"/>
 <path stroke-width="0.3" d="M70.09 4.338C66.427 10.955 61.707 19.533 62.823 26.859C63.279 29.856 63.692 32.539 65.308 34.817C65.864 35.6 66.578 36.32 67.478 37.006C68.67 37.914 70.126 38.737 71.89 39.515"/>
 <line stroke-width="0.13" x1="70.09" y1="4.338" x2="71.891" y2="1.058"/>
 <path stroke-width="0.3" d="M43.017 0.163C45.595 9.057 52.228 21.829 55.789 24.161"/>
 <path stroke-width="0.3" d="M46.024 0.15C48.548 8.35 54.171 19.652 57.369 21.748"/>
 <polygon stroke-width="0.13" points="12.096 26.047 12.926 25.045 12.512 23.66 11.266 23.28 10.435 24.283 10.85 25.667 12.096 26.047"/>
 <polyline stroke-width="0.13" points="12.797 25.937 13.628 24.934 13.211 23.55 11.965 23.169"/>
 <line stroke-width="0.13" x1="11.965" y1="23.169" x2="11.266" y2="23.28"/>
 <line stroke-width="0.13" x1="12.797" y1="25.937" x2="12.096" y2="26.047"/>
 <g>
  <path stroke-width="0.13" d="M13.128 26.102C13.903 25.871 14.317 24.96 14.053 24.065C13.922 23.623 13.65 23.266 13.314 23.047"/>
  <path stroke-width="0.13" d="M11.669 23.138C11.634 23.17 11.602 23.202 11.577 23.231"/>
  <path stroke-width="0.13" d="M12.135 26.001C12.47 26.167 12.818 26.193 13.128 26.102"/>
 </g>
 <polygon stroke-width="0.13" points="25.576 26.498 26.405 25.493 25.99 24.109 24.745 23.728 23.914 24.733 24.329 26.117 25.576 26.498"/>
 <polyline stroke-width="0.13" points="26.275 26.387 27.106 25.382 26.69 23.998 25.445 23.617"/>
 <line stroke-width="0.13" x1="25.445" y1="23.617" x2="24.745" y2="23.728"/>
 <line stroke-width="0.13" x1="26.275" y1="26.387" x2="25.576" y2="26.498"/>
 <g>
  <path stroke-width="0.13" d="M26.606 26.55C27.382 26.321 27.795 25.41 27.532 24.513C27.266 23.617 26.423 23.077 25.647 23.306C25.411 23.376 25.21 23.51 25.056 23.679"/>
  <path stroke-width="0.13" d="M25.614 26.449C25.948 26.617 26.297 26.643 26.606 26.55"/>
 </g>
 <path stroke-width="0.13" d="M26.786 26.483C27.545 26.701 28.486 26.349 29.076 25.937C29.664 25.524 30.077 25.407 32.137 25.466"/>
 <path stroke-width="0.13" d="M24.542 23.05C25.071 22.344 27.309 21.932 28.192 23.934"/>
 <line stroke-width="0.13" x1="24.121" y1="25.425" x2="23.481" y2="25.347"/>
 <path stroke-width="0.13" d="M18.278 25.185C17.298 24.993 16.179 24.993 15.827 25.524C15.474 26.053 13.743 26.539 12.871 26.149"/>
 <path stroke-width="0.13" d="M14.313 22.978C14.66 23.885 15.005 24.17 15.119 24.17"/>
 <line stroke-width="0.13" x1="10.573" y1="24.745" x2="7.987" y2="24.704"/>
 <line stroke-width="0.13" x1="1.519" y1="24.236" x2="0.16" y2="24.228"/>
 <polygon stroke-width="0.13" points="48.011 27.064 48.841 26.059 48.426 24.675 47.179 24.295 46.348 25.298 46.765 26.682 48.011 27.064"/>
 <polyline stroke-width="0.13" points="48.71 26.952 49.542 25.949 49.125 24.565 47.88 24.184"/>
 <line stroke-width="0.13" x1="47.88" y1="24.184" x2="47.179" y2="24.295"/>
 <line stroke-width="0.13" x1="48.71" y1="26.952" x2="48.011" y2="27.064"/>
 <g>
  <path stroke-width="0.13" d="M49.04 27.117C49.817 26.888 50.231 25.975 49.966 25.079C49.701 24.184 48.859 23.643 48.082 23.873C47.847 23.943 47.645 24.076 47.49 24.245"/>
  <path stroke-width="0.13" d="M48.049 27.015C48.383 27.184 48.732 27.208 49.04 27.117"/>
 </g>
 <path stroke-width="0.13" d="M49.22 27.048C49.979 27.268 50.921 26.914 51.511 26.503C52.049 26.125 52.442 25.995 54.088 26.021"/>
 <path stroke-width="0.13" d="M46.976 23.617C47.506 22.911 49.743 22.498 50.627 24.501"/>
 <line stroke-width="0.13" x1="46.557" y1="25.99" x2="45.917" y2="25.914"/>
 <line stroke-width="0.13" x1="45.917" y1="25.914" x2="40.158" y2="30.131"/>
 <path stroke-width="0.13" d="M32.633 26.64C32.015 25.934 31.838 25.582 32.808 24.17"/>
 <line stroke-width="0.13" x1="32.808" y1="24.17" x2="47.715" y2="12.015"/>
 <line stroke-width="0.13" x1="49.951" y1="10.191" x2="52.176" y2="8.375"/>
 <path stroke-width="0.13" d="M34.957 22.419C34.679 23.481 33.853 23.803 35.276 25.501"/>
 <polygon stroke-width="0.13" points="69.346 28.673 70.177 27.67 69.762 26.286 68.516 25.905 67.685 26.908 68.1 28.292 69.346 28.673"/>
 <polyline stroke-width="0.13" points="70.046 28.562 70.878 27.559 70.462 26.175 69.215 25.795"/>
 <line stroke-width="0.13" x1="69.215" y1="25.795" x2="68.516" y2="25.905"/>
 <line stroke-width="0.13" x1="70.046" y1="28.562" x2="69.346" y2="28.673"/>
 <g>
  <path stroke-width="0.13" d="M70.376 28.727C71.153 28.498 71.566 27.585 71.302 26.69C71.037 25.795 70.194 25.254 69.418 25.483C69.183 25.553 68.98 25.686 68.826 25.856"/>
  <path stroke-width="0.13" d="M69.385 28.626C69.718 28.794 70.069 28.818 70.376 28.727"/>
 </g>
 <path stroke-width="0.13" d="M68.313 25.228C68.843 24.521 71.079 24.109 71.962 26.111"/>
 <line stroke-width="0.13" x1="67.893" y1="27.6" x2="67.253" y2="27.524"/>
 <line stroke-width="0.13" x1="70.743" y1="28.55" x2="71.891" y2="28.213"/>
 <line stroke-width="0.13" x1="67.253" y1="27.524" x2="62.823" y2="26.859"/>
 <path stroke-width="0.13" d="M35.503 13.698C36.454 12.852 38.149 13.804 38.677 14.439"/>
 <path stroke-width="0.13" d="M36.414 20.295C36.887 20.4 36.963 20.527 37.676 20.201"/>
 <g>
  <polyline stroke-width="0.13" points="36.015 20.428 37.758 17.853 36.454 14.659 33.405 14.039"/>
  <polyline stroke-width="0.3" points="33.405 14.039 32.567 15.279"/>
 </g>
 <line stroke-width="0.3" x1="33.543" y1="19.926" x2="36.015" y2="20.428"/>
 <polyline stroke-width="0.13" points="37.284 20.004 39.027 17.429 37.723 14.236 34.676 13.617"/>
 <line stroke-width="0.3" x1="34.676" y1="13.617" x2="33.405" y2="14.039"/>
 <line stroke-width="0.3" x1="37.284" y1="20.004" x2="36.015" y2="20.428"/>
 <g>
  <path stroke-width="0.13" d="M35.503 19.202C36.445 18.824 36.853 17.635 36.414 16.548C35.978 15.461 34.859 14.887 33.917 15.266"/>
  <path stroke-width="0.13" d="M35.462 19.219C35.476 19.213 35.49 19.207 35.503 19.202"/>
 </g>
 <g>
  <path stroke-width="0.13" d="M34.423 19.41C35.365 19.03 35.773 17.841 35.335 16.754C34.991 15.9 34.226 15.362 33.445 15.355"/>
 </g>
 <line stroke-width="0.3" x1="34.423" y1="19.41" x2="35.503" y2="19.202"/>
 <line stroke-width="0.3" x1="32.838" y1="15.471" x2="33.917" y2="15.266"/>
 <polyline stroke-width="0.3" points="33.496 19.978 34.994 18.329 34.393 15.932 32.295 15.183"/>
 <g>
  <path stroke-width="0.3" d="M32.343 20.32C32.948 20.195 33.436 19.797 33.738 19.257"/>
  <path stroke-width="0.13" d="M33.738 19.257C34.39 18.091 34.057 16.487 32.996 15.676"/>
  <path stroke-width="0.3" d="M32.996 15.676C32.466 15.271 31.853 15.14 31.292 15.256"/>
  <path stroke="none" fill="#000000" d="M33.628 19.172C33.933 18.623 34.081 17.954 33.954 17.344L34.064 17.321C34.207 18.007 34.195 18.725 33.85 19.341L33.628 19.172z"/>
  <path stroke="none" fill="#000000" d="M33.954 17.344C33.813 16.664 33.406 16.166 32.927 15.798L33.064 15.554C33.569 15.939 33.915 16.606 34.064 17.321L33.954 17.344z"/>
 </g>
 <g>
  <path stroke-width="0.13" d="M28.693 21.018C29.903 20.768 30.649 19.429 30.359 18.032C30.07 16.634 28.853 15.704 27.643 15.955"/>
  <path stroke-width="0.3" d="M27.643 15.955C27.096 16.068 26.643 16.402 26.341 16.861"/>
  <path stroke-width="0.3" d="M27.089 20.672C27.6 21.021 28.17 21.128 28.693 21.018"/>
  <path stroke="none" fill="#000000" d="M29.317 16.428C28.8 16.033 28.219 15.989 27.673 16.102L27.611 15.808C28.187 15.689 28.832 15.907 29.376 16.321L29.317 16.428z"/>
  <path stroke="none" fill="#000000" d="M28.663 20.871C29.233 20.754 29.757 20.428 30.041 19.919L30.138 19.992C29.818 20.564 29.364 21.033 28.724 21.166L28.663 20.871z"/>
 </g>
 <line stroke-width="0.3" x1="28.693" y1="21.018" x2="32.341" y2="20.32"/>
 <line stroke-width="0.3" x1="27.643" y1="15.955" x2="31.292" y2="15.256"/>
 <line stroke-width="0.13" x1="32.295" y1="15.183" x2="31.96" y2="15.234"/>
 <line stroke-width="0.13" x1="34.317" y1="15.903" x2="33.509" y2="16.041"/>
 <line stroke-width="0.13" x1="34.994" y1="18.329" x2="34.011" y2="18.524"/>
 <line stroke-width="0.3" x1="33.496" y1="19.978" x2="32.932" y2="20.092"/>
 <line stroke-width="0.3" x1="34.423" y1="19.41" x2="33.917" y2="19.515"/>
 <g>
  <path stroke-width="0.13" d="M31.492 20.483C32.701 20.231 33.448 18.894 33.158 17.495C32.868 16.097 31.652 15.167 30.44 15.419"/>
 </g>
 <polyline stroke-width="0.13" points="28.628 20.373 29.716 18.989 29.109 17.129 27.41 16.657"/>
 <polyline stroke-width="0.13" points="27.402 20.609 28.492 19.222 27.882 17.364 26.199 16.896"/>
 <line stroke-width="0.13" x1="28.492" y1="19.222" x2="29.716" y2="18.989"/>
 <line stroke-width="0.13" x1="27.882" y1="17.364" x2="29.109" y2="17.129"/>
 <line stroke-width="0.3" x1="26.184" y1="16.891" x2="27.41" y2="16.657"/>
 <line stroke-width="0.3" x1="27.402" y1="20.609" x2="28.628" y2="20.373"/>
 <polyline stroke-width="0.13" points="27.178 20.01 27.667 19.388 27.059 17.528 26.66 17.417"/>
 <line stroke-width="0.13" x1="27.059" y1="17.528" x2="28.285" y2="17.295"/>
 <line stroke-width="0.3" x1="26.853" y1="20.719" x2="27.402" y2="20.609"/>
 <line stroke-width="0.13" x1="27.059" y1="17.528" x2="27.882" y2="17.364"/>
 <line stroke-width="0.13" x1="28.285" y1="17.295" x2="29.109" y2="17.129"/>
 <line stroke-width="0.13" x1="27.667" y1="19.388" x2="28.492" y2="19.222"/>
 <g>
  <path stroke-width="0.3" d="M25.556 21.618C26.161 21.493 26.652 21.097 26.952 20.556"/>
  <path stroke-width="0.13" d="M26.952 20.556C27.603 19.39 27.271 17.786 26.21 16.975"/>
  <path stroke-width="0.3" d="M26.21 16.975C25.679 16.571 25.068 16.44 24.506 16.556"/>
  <path stroke="none" fill="#000000" d="M26.841 20.471C27.147 19.922 27.295 19.254 27.169 18.643L27.278 18.621C27.42 19.306 27.408 20.024 27.065 20.64L26.841 20.471z"/>
  <path stroke="none" fill="#000000" d="M27.169 18.643C27.027 17.963 26.621 17.464 26.141 17.099L26.278 16.853C26.783 17.239 27.131 17.905 27.278 18.621L27.169 18.643z"/>
 </g>
 <line stroke-width="0.3" x1="23.527" y1="22.007" x2="25.556" y2="21.618"/>
 <line stroke-width="0.3" x1="23.65" y1="16.719" x2="24.507" y2="16.556"/>
 <g>
  <path stroke-width="0.13" d="M24.705 21.782C25.917 21.53 26.663 20.193 26.373 18.795C26.082 17.397 24.865 16.468 23.655 16.719"/>
 </g>
 <g>
  <path stroke-width="0.13" d="M17.849 22.542C18.042 22.5 18.219 22.423 18.367 22.326"/>
  <path stroke-width="0.13" d="M18.472 18.983C18.05 18.602 17.538 18.457 17.06 18.535"/>
 </g>
 <line stroke-width="0.13" x1="17.849" y1="22.542" x2="18.362" y2="22.443"/>
 <line stroke-width="0.13" x1="16.986" y1="18.548" x2="18.211" y2="18.315"/>
 <g>
  <path stroke-width="0.13" d="M16.847 22.734C17.801 22.527 18.382 21.466 18.144 20.364C17.907 19.262 16.94 18.535 15.984 18.74"/>
  <path stroke-width="0.13" d="M16.617 22.765C16.699 22.76 16.777 22.748 16.847 22.734"/>
 </g>
 <line stroke-width="0.13" x1="16.847" y1="22.734" x2="18.071" y2="22.498"/>
 <line stroke-width="0.13" x1="15.984" y1="18.74" x2="17.21" y2="18.507"/>
 <line stroke-width="0.3" x1="15.984" y1="18.74" x2="16.986" y2="18.548"/>
 <line stroke-width="0.3" x1="17.21" y1="18.507" x2="18.489" y2="18.307"/>
 <line stroke-width="0.3" x1="16.847" y1="22.734" x2="17.849" y2="22.542"/>
 <line stroke-width="0.3" x1="18.071" y1="22.498" x2="18.362" y2="22.443"/>
 <path stroke-width="0.3" d="M15.984 18.74C10.487 19.332 4.062 19.469 0.781 18.239"/>
 <path stroke-width="0.3" d="M16.754 22.751C10.999 23.37 4.059 23.481 0.15 22.379"/>
 <text transform="matrix(0 -1 1 0 71.641 61.085)" stroke="none" fill="#000000" font-family="'Helvetica'" font-size="2.117">352 792</text>
</svg>
