<?xml version="1.0" encoding="utf-8"?>
<!DOCTYPE svg PUBLIC "-//W3C//DTD SVG 1.1//EN" "http://www.w3.org/Graphics/SVG/1.1/DTD/svg11.dtd">
<!-- Generator: PTC Arbortext IsoDraw 7.3 M070 -->
<svg width="100%" height="100%" viewBox="0 0 75.117 70.352"
 xmlns="http://www.w3.org/2000/svg" xmlns:xlink="http://www.w3.org/1999/xlink"
 fill-rule="evenodd" clip-rule="evenodd" stroke="#000000" stroke-linecap="round" fill="none" xml:space="preserve">
 <g id="FRAME">
  <polygon stroke="#FFFFFF" stroke-width="0.01" points="0.112 0.005 75.111 0.005 75.111 70.346 0.112 70.346 0.112 0.005"/>
 </g>
 <g id="COLOUR">
  <path stroke="none" fill="#D9D9D9" d="M44.75 30.036C44.75 30.036 44.679 31.039 44.655 31.039 44.631 31.039 42.317 28.388 38.973 28.294 35.631 28.198 34.915 28.484 33.698 29.606 32.481 30.728 31.693 32.018 31.525 33.856 31.359 35.694 31.597 36.409 31.765 37.222 31.931 38.033 32.265 38.75 32.265 38.75 32.265 38.75 32.075 39.823 32.051 39.823 32.027 39.823 31.812 39.847 31.812 39.847 31.812 39.847 30.977 38.152 30.69 36.673 30.403 35.192 30.475 34.213 30.475 34.213L31.143 33.521 30.858 33.21 30.618 33.283C30.618 33.283 30.762 30.657 32.648 28.986 34.533 27.315 36.109 27.123 37.78 27.123 39.451 27.123 42.34 27.792 44.75 30.036z"/>
  <path stroke="none" fill="#D9D9D9" d="M47.545 34.978L48.475 35.097C48.475 35.097 49.502 37.125 49.621 39.179 49.74 41.231 49.143 44.335 46.804 45.84 44.465 47.344 41.814 47.2 40.31 46.938 38.807 46.674 38.258 46.246 38.258 46.222 38.258 46.198 38.997 45.457 39.021 45.481 39.045 45.506 41.195 46.555 43.128 46.125 45.061 45.697 45.969 45.051 46.661 44.384 47.353 43.715 48.665 41.901 48.594 39.752 48.523 37.603 48.07 36.1 47.545 34.978z"/>
  <path stroke="none" fill="#B2B2B2" d="M36.892 33.216C36.904 33.216 42.432 36.292 42.432 36.304 42.432 36.317 42.71 36.92 42.71 36.92 42.71 36.92 40.921 43.261 40.899 43.261 40.875 43.261 37.113 47.396 37.078 47.417 37.042 47.439 36.74 47.405 36.718 47.405 36.695 47.405 35.591 46.698 35.591 46.72 35.591 46.743 35.569 47.719 35.579 47.719 35.591 47.719 35.823 47.905 35.823 47.951 35.823 47.999 36.137 48.497 36.137 48.765 36.137 49.031 35.765 49.334 35.521 49.414 35.277 49.496 34.953 49.38 34.942 49.38 34.929 49.38 34.686 49.276 34.686 49.276 34.686 49.276 33.826 49.253 33.628 49.079 33.432 48.904 33.21 48.765 33.222 48.695 33.234 48.625 33.258 47.649 33.234 47.639 33.21 47.627 31.957 46.234 31.957 46.234 31.957 46.234 31.236 46.837 31.283 46.86 31.329 46.884 31.667 47.383 31.643 47.685 31.62 47.987 30.888 49.287 30.378 49.45 29.867 49.612 29.379 49.764 29.077 49.566 28.774 49.368 28.682 49.287 28.682 49.287L19.612 57.695C19.612 57.695 18.963 58.228 18.382 57.718 17.801 57.207 17.615 56.557 18.01 56.231 18.405 55.906 27.603 47.359 27.603 47.359 27.603 47.359 26.324 47.012 26.347 46.292 26.371 45.572 26.115 44.573 26.371 44.155 26.626 43.737 26.905 43.341 27.603 43.271 28.298 43.203 29.181 43.249 29.181 43.249 29.181 43.249 29.46 43.179 29.46 43.155 29.46 43.133 28.809 42.11 28.74 42.134 28.67 42.158 27.51 42.761 27.207 42.737 26.905 42.715 26.557 42.435 26.533 42.204 26.51 41.972 26.394 41.204 26.394 41.182 26.394 41.158 26.487 40.67 26.487 40.67 26.487 40.67 25.675 40.601 24.675 40.484 23.678 40.368 23.167 40.253 23.167 40.253L22.888 40.484C22.888 40.484 22.144 41.136 22.004 41.136 21.865 41.136 21.564 41.066 21.332 40.786 21.1 40.509 21.448 40.137 21.448 40.137L22.028 39.649C22.028 39.649 21.262 39.045 21.332 38.417 21.402 37.79 21.239 37.42 21.239 37.42L21.309 35.585C21.309 35.585 21.262 33.564 25.234 33.564 27.719 33.564 28.902 34.703 28.902 34.703L30.858 33.21C30.858 33.21 30.934 33.189 31.039 33.354 31.143 33.521 31.132 33.704 31.132 33.704L29.344 35.027C29.344 35.027 29.693 35.631 29.6 36.049 29.507 36.468 29.507 37.372 29.507 37.442 29.507 37.512 29.39 38.14 29.39 38.14 29.39 38.14 29.437 38.371 29.46 38.371 29.484 38.371 29.902 38.371 29.995 38.859 30.088 39.347 29.972 40.067 29.972 40.091 29.972 40.113 29.763 40.856 29.763 40.88 29.763 40.902 31.178 42.576 31.178 42.576 31.178 42.576 32.131 42.274 32.061 42.226 31.992 42.18 31.736 42.088 31.667 41.856 31.597 41.622 31.62 40.067 31.62 40.067L32.051 39.823 32.85 36.908 33.13 36.7 33.316 36.259 36.892 33.216z"/>
 </g>
 <g id="Standard_x0020_layer">
  <text transform="matrix(0 -1 1 0 73.927 69.334)" stroke="none" fill="#000000" font-family="'Helvetica'" font-size="2.117">358 892</text>
  <g>
   <path stroke-width="0.3" stroke-linejoin="round" d="M49.734 58.72C52.149 56.735 53.585 53.89 54.054 50.701"/>
   <path stroke-width="0.3" stroke-linejoin="round" d="M54.006 44.856C53.451 41.286 52.039 37.774 50.091 34.706"/>
   <path stroke-width="0.3" stroke-linejoin="round" d="M45.261 28.765C42.639 26.245 39.781 24.37 37.034 23.214"/>
   <path stroke-width="0.3" stroke-linejoin="round" d="M29.681 21.542C26.309 21.489 23.471 22.496 21.391 24.24"/>
   <path stroke-width="0.13" stroke-linejoin="round" d="M21.391 24.24C14.699 29.74 15.535 41.831 23.236 51.335"/>
   <path stroke-width="0.13" stroke-linejoin="round" d="M24.669 52.982C32.587 61.472 43.435 63.859 49.734 58.72"/>
  </g>
  <g>
   <path stroke-width="0.13" stroke-linejoin="round" d="M57.45 65.521C66.438 58.131 66.024 42.509 56.887 29.199"/>
   <path stroke-width="0.13" stroke-linejoin="round" d="M53.503 24.879C51.027 22.08 48.322 19.704 45.694 17.914"/>
   <path stroke-width="0.13" stroke-linejoin="round" d="M34.697 12.712C22.356 9.455 12.663 15.333 10.429 26.435"/>
   <path stroke-width="0.13" stroke-linejoin="round" d="M10 32.057C10.012 32.473 10.035 32.892 10.061 33.25"/>
   <path stroke-width="0.3" stroke-linejoin="round" d="M10.061 33.25C10.205 35.231 10.547 37.219 11.018 38.996"/>
   <path stroke-width="0.3" stroke-linejoin="round" d="M13.153 45.081C14.262 47.566 15.603 49.926 17.004 51.939"/>
   <path stroke-width="0.3" stroke-linejoin="round" d="M20.716 56.651C22.768 58.929 24.969 60.92 27.074 62.469"/>
   <path stroke-width="0.3" stroke-linejoin="round" d="M31.94 65.59C35.015 67.253 38.066 68.358 40.796 68.891"/>
   <path stroke-width="0.3" stroke-linejoin="round" d="M44.475 69.382C45.834 69.46 47.137 69.424 48.24 69.289"/>
   <path stroke-width="0.13" stroke-linejoin="round" d="M52.956 68.143C54.695 67.463 56.237 66.546 57.45 65.521"/>
  </g>
  <path stroke-width="0.3" stroke-linejoin="round" d="M10.039 32.908C10.022 32.616 10.006 32.331 9.993 32.048"/>
  <path stroke-width="0.3" stroke-linejoin="round" d="M10.099 26.71C10.422 23.132 11.224 20.509 12.045 18.757C13.282 16.118 19.632 6.346 19.632 6.346"/>
  <path stroke-width="0.3" stroke-linejoin="round" d="M48.267 69.286C52.877 68.173 56.673 67.492 60.692 65.822C64.712 64.152 67.582 62.637 67.582 62.637"/>
  <path stroke-width="0.2" stroke-linejoin="round" d="M30.429 1.268C28.859 2.023 27.5 2.809 27.167 4.408"/>
  <path stroke-width="0.2" stroke-linejoin="round" d="M26.957 3.564C27.047 4.621 27.167 5.586 29.312 5.647C31.457 5.708 34.84 4.198 36.259 3.111C37.679 2.023 37.951 1.328 37.951 1.328"/>
  <path stroke-width="0.13" stroke-linejoin="round" d="M26.957 3.564C27.199 2.454 27.769 1.617 28.23 1.227"/>
  <path stroke-width="0.2" stroke-linejoin="round" d="M59.582 4.25C57.438 2.996 55.404 2.439 52.813 2.913C50.222 3.387 49.081 4.278 48.801 5.727C48.523 7.174 49.442 10.211 52.116 11.631C54.79 13.053 57.994 13.108 60 12.244C62.006 11.381 62.618 10.128 62.506 8.929C62.396 7.732 61.674 5.245 59.582 4.25z"/>
  <path stroke-width="0.13" stroke-linejoin="round" d="M48.887 5.381C49.442 3.302 51.17 1.66 56.1 1.938"/>
  <path stroke-width="0.13" stroke-linejoin="round" d="M61.003 11.855C63.036 10.24 63.176 8.178 62.674 6.423"/>
  <path stroke-width="0.2" stroke-linejoin="round" d="M72.941 21.079C72.549 20.961 72.293 20.745 71.605 21.039C70.918 21.335 68.677 22.73 68.286 25.696C67.893 28.663 68.894 31.963 70.093 33.024C71.29 34.085 72.194 34.655 72.902 34.85"/>
  <path stroke-width="0.13" stroke-linejoin="round" d="M71.644 20.923C72.509 20.548 73.04 20.628 73.058 20.628"/>
  <path stroke-width="0.2" stroke-linejoin="round" d="M72.933 49.459C71.605 50.923 70.484 54.081 70.53 54.996C70.575 55.911 70.621 56.07 70.805 56.14C70.987 56.209 72.406 56.003 72.933 55.384"/>
  <path stroke-width="0.13" stroke-linejoin="round" d="M70.695 56.067C71.078 56.551 72.314 56.506 72.933 56.299"/>
  <g>
   <path stroke-width="0.3" stroke-linejoin="round" d="M47.005 45.651C49.807 43.347 50.29 39.07 48.5 35.005"/>
   <path stroke-width="0.3" stroke-linejoin="round" d="M44.807 30.071C40.908 26.728 36.073 26.259 33.067 28.693C31.626 29.879 30.798 31.585 30.576 33.476"/>
   <path stroke-width="0.3" stroke-linejoin="round" d="M30.519 34.165C30.432 36.057 30.899 37.993 31.753 39.728"/>
   <path stroke-width="0.3" stroke-linejoin="round" d="M38.215 46.189C41.545 47.744 44.807 47.432 47.005 45.651"/>
  </g>
  <g>
   <path stroke-width="0.3" stroke-linejoin="round" d="M46.298 44.789C48.914 42.64 49.28 38.573 47.444 34.804"/>
   <path stroke-width="0.3" stroke-linejoin="round" d="M44.704 31.134C41.179 27.853 36.594 27.265 33.774 29.554"/>
   <path stroke-width="0.13" stroke-linejoin="round" d="M33.774 29.554C31.324 31.568 30.847 35.265 32.307 38.832"/>
   <path stroke-width="0.13" stroke-linejoin="round" d="M38.859 45.475C41.716 46.648 44.439 46.299 46.298 44.789"/>
  </g>
  <g>
   <path stroke-width="0.13" stroke-linejoin="round" d="M46.786 42.225C47.634 41.527 48.215 40.601 48.515 39.588"/>
   <path stroke-width="0.13" stroke-linejoin="round" d="M35.726 28.771C33.915 30.26 33.326 32.789 33.932 35.426"/>
   <path stroke-width="0.13" stroke-linejoin="round" d="M41.006 43.112C43.273 43.798 45.341 43.406 46.786 42.225"/>
  </g>
  <path stroke-width="0.2" stroke-linejoin="round" d="M34.094 35.313C34.094 35.274 34.677 31.208 34.74 30.986C34.801 30.763 35.136 30.551 35.136 30.551C35.136 30.551 39.04 28.878 39.24 28.778C39.438 28.679 39.996 28.716 40.182 28.803C40.368 28.89 43.893 30.617 43.938 30.564"/>
  <path stroke-width="0.2" stroke-linejoin="round" d="M47.137 35.027C47.137 35.027 47.929 36.441 47.979 36.59C48.03 36.737 46.814 41.052 46.715 41.201C46.615 41.35 46.268 41.722 46.095 41.796C45.921 41.871 41.954 43.085 41.805 43.085C41.656 43.085 41.012 42.787 41.012 42.787"/>
  <path stroke-width="0.13" stroke-linejoin="round" d="M34.997 30.836C36.457 30.294 38.893 29.292 39.286 29.109"/>
  <path stroke-width="0.13" stroke-linejoin="round" d="M39.573 29.141C40.615 29.692 43.633 31.027 44.457 31.367"/>
  <path stroke-width="0.13" stroke-linejoin="round" d="M46.551 34.823C46.97 35.53 47.6 36.801 47.6 36.801"/>
  <path stroke-width="0.13" stroke-linejoin="round" d="M47.561 37.155C47.561 37.155 46.408 41.2 46.317 41.5"/>
  <path stroke-width="0.3" stroke-linejoin="round" d="M34.835 34.875C34.835 34.837 34.808 33.92 34.808 33.854C34.808 33.789 35.515 33.057 35.515 33.057C35.515 33.057 37.82 31.092 37.938 31.053C38.055 31.013 39.442 31.118 40.582 31.367C41.72 31.615 42.676 32.009 42.82 32.152C42.965 32.296 43.816 33.371 44.326 34.024C44.837 34.679 45.335 35.412 45.387 35.609C45.439 35.805 45.453 37.77 45.453 38.162C45.453 38.554 45.36 39.328 45.322 39.484C45.283 39.642 44.759 40.192 44.746 40.204C44.732 40.218 43.646 41.082 43.134 41.435C42.625 41.789 41.917 42.155 41.799 42.168C41.682 42.182 41.185 42.155 41.21 42.155"/>
  <line stroke-width="0.13" stroke-linejoin="round" x1="42.689" y1="32.206" x2="42.179" y2="32.61"/>
  <line stroke-width="0.13" stroke-linejoin="round" x1="45.256" y1="35.661" x2="44.746" y2="36.067"/>
  <path stroke-width="0.13" stroke-linejoin="round" d="M42.061 32.768C42.756 33.723 44.365 35.753 44.588 35.975"/>
  <path stroke-width="0.13" stroke-linejoin="round" d="M44.811 36.25C44.746 37.219 44.746 39.445 44.746 39.825"/>
  <path stroke-width="0.13" stroke-linejoin="round" d="M37.609 31.643C38.631 31.878 41.25 32.466 41.838 32.585"/>
  <path stroke-width="0.3" stroke-linejoin="round" d="M32.081 39.685C32.081 39.685 32.741 37.17 32.826 37C32.911 36.829 33.103 36.722 33.103 36.722C33.103 36.722 33.189 36.274 33.274 36.253C33.359 36.232 36.747 33.228 36.875 33.207C37.003 33.185 42.417 36.232 42.438 36.274C42.459 36.317 42.566 36.551 42.566 36.551C42.566 36.551 42.715 36.829 42.735 36.893C42.758 36.957 40.904 43.03 40.84 43.201C40.776 43.371 37.237 47.292 37.045 47.442C36.854 47.591 36.173 47.079 35.725 46.78"/>
  <path stroke-width="0.13" stroke-linejoin="round" d="M37.173 46.908L38.985 40.686"/>
  <path stroke-width="0.13" stroke-linejoin="round" d="M33.21 36.765L39.07 39.962L42.395 36.658C42.395 36.658 42.524 36.325 42.438 36.274"/>
  <path stroke-width="0.13" stroke-linejoin="round" d="M33.573 36.317L39.113 39.259L42.182 36.381"/>
  <g>
   <path stroke-width="0.2" stroke-linejoin="round" d="M42.765 40.49C44.256 39.265 44.167 36.695 42.569 34.75C41.029 32.878 38.649 32.268 37.137 33.325"/>
  </g>
  <line stroke-width="0.3" stroke-linejoin="round" x1="42.765" y1="40.49" x2="41.24" y2="41.909"/>
  <path stroke-width="0.2" stroke-linejoin="round" d="M25.15 22.195C22.847 23.225 21.574 24.106 20.466 25.471C19.359 26.835 19.06 27.217 18.975 27.602C18.89 27.986 19.315 28.966 19.87 28.795C20.423 28.625 22.044 28.071 22.257 28.071C22.469 28.071 22.939 28.283 22.939 28.326"/>
  <path stroke-width="0.13" stroke-linejoin="round" d="M20.007 28.321C20.718 27.112 22.1 25.801 22.289 25.682"/>
  <path stroke-width="0.13" stroke-linejoin="round" d="M21.989 24.379C21.768 24.711 22.314 25.58 22.922 25.312C23.53 25.042 25.829 23.811 26.65 23.699"/>
  <path stroke-width="0.13" stroke-linejoin="round" d="M26.256 22.388C26.256 22.8 26.588 23.336 26.588 23.336"/>
  <path stroke-width="0.2" stroke-linejoin="round" d="M20.945 40.981C20.931 40.99 18.891 42.74 18.835 42.877C18.777 43.012 19.106 44.533 20.059 46.03C21.013 47.529 21.422 48.063 21.762 47.982C22.103 47.904 23.236 47.369 23.6 47.189C23.963 47.006 24.542 46.984 24.565 46.984"/>
  <path stroke-width="0.13" stroke-linejoin="round" d="M19.879 43.024C20.219 44.261 21.341 46.463 22.022 47.2"/>
  <path stroke-width="0.2" stroke-linejoin="round" d="M35.274 56.095C35.502 56.527 35.661 56.938 35.433 57.664C35.207 58.393 35.002 59.188 35.707 59.438C36.411 59.688 39.366 60.165 39.866 60.234C40.366 60.301 41.231 59.575 41.662 59.165C42.094 58.756 42.459 58.232 42.753 58.119"/>
  <path stroke-width="0.13" stroke-linejoin="round" d="M35.82 58.301C36.729 58.597 38.89 59.165 39.322 59.165"/>
  <path stroke-width="0.13" stroke-linejoin="round" d="M35.593 55.801C35.798 55.71 37.594 56.118 39.094 56.414C40.594 56.71 42.231 57.029 42.412 57.118C42.594 57.21 42.753 57.482 42.753 57.573"/>
  <path stroke-width="0.13" stroke-linejoin="round" d="M39.866 58.915C40.298 58.893 41.231 58.119 41.731 57.756"/>
  <path stroke-width="0.2" stroke-linejoin="round" d="M53.792 45.042C53.442 45.536 52.948 46.009 52.887 46.749C52.826 47.488 52.805 48.906 52.476 49.996C52.148 51.085 51.674 52.298 51.963 52.648C52.25 52.997 53.027 53.362 53.277 53.161"/>
  <path stroke-width="0.2" stroke-linejoin="round" d="M39.125 24.419C38.823 25.219 38.713 25.782 39.6 26.321C40.487 26.862 42.243 27.829 42.716 28.356C43.191 28.882 43.848 29.515 44.148 29.541C44.447 29.567 45.075 29.265 45.075 29.265"/>
  <g>
   <path stroke-width="0.13" stroke-linejoin="round" d="M47.631 52.914C52.156 49.194 52.795 42.161 49.624 35.642"/>
   <path stroke-width="0.13" stroke-linejoin="round" d="M38.487 25.213C37.134 24.69 35.804 24.365 34.628 24.237"/>
   <path stroke-width="0.13" stroke-linejoin="round" d="M32.079 24.172C26.449 24.577 22.704 28.591 22.057 34.143"/>
   <path stroke-width="0.13" stroke-linejoin="round" d="M22.818 40.987C23.661 43.639 25.053 46.081 26.736 48.09"/>
   <path stroke-width="0.13" stroke-linejoin="round" d="M28.21 49.701C34.319 55.756 42.59 57.018 47.631 52.914"/>
  </g>
  <path stroke-width="0.3" stroke-linejoin="round" d="M35.436 43.939C35.746 44.039 35.82 44.167 35.82 44.395C35.82 44.622 35.82 45.99 35.801 46.081C35.783 46.173 35.637 46.427 35.218 46.655C34.798 46.884 34.314 47.039 33.558 46.792C32.801 46.545 32.073 46.281 32.073 46.281"/>
  <path stroke-width="0.13" stroke-linejoin="round" d="M32.409 45.479C33.468 45.817 34.097 46.054 34.542 45.99C34.99 45.926 35.2 45.753 35.399 45.552C35.6 45.351 35.817 45.213 35.819 44.969"/>
  <g>
   <path stroke-width="0.13" stroke-linejoin="round" d="M32.213 45.984C32.49 45.655 32.337 45.075 31.873 44.685C31.434 44.317 30.876 44.253 30.58 44.524"/>
   <path stroke-width="0.3" stroke-linejoin="round" d="M32.167 46.034C32.185 46.018 32.201 46 32.213 45.984"/>
  </g>
  <g>
   <path stroke-width="0.13" stroke-linejoin="round" d="M19.484 57.786C19.708 57.518 19.513 56.987 19.048 56.597C18.585 56.209 18.027 56.109 17.803 56.375"/>
   <path stroke-width="0.3" stroke-linejoin="round" d="M17.803 56.375C17.58 56.642 17.775 57.173 18.239 57.561C18.704 57.951 19.262 58.051 19.484 57.786"/>
  </g>
  <line stroke-width="0.3" stroke-linejoin="round" x1="17.835" y1="56.341" x2="30.58" y2="44.524"/>
  <line stroke-width="0.3" stroke-linejoin="round" x1="19.454" y1="57.817" x2="32.167" y2="46.033"/>
  <path stroke-width="0.13" stroke-linejoin="round" d="M31.033 43.899C31.051 43.899 33.862 44.942 34.204 45.037"/>
  <path stroke-width="0.13" stroke-linejoin="round" d="M34.677 45.018C34.848 44.962 35.493 44.487 35.628 44.317"/>
  <g>
   <path stroke-width="0.3" stroke-linejoin="round" d="M40.332 36.743C40.479 36.098 39.84 35.381 38.825 34.984"/>
   <path stroke-width="0.3" stroke-linejoin="round" d="M36.72 34.764C36.054 34.896 35.645 35.228 35.546 35.64C35.371 36.404 36.299 37.268 37.621 37.573C38.942 37.878 40.155 37.506 40.332 36.743"/>
  </g>
  <path stroke-width="0.3" stroke-linejoin="round" d="M36.615 34.993C36.75 34.758 36.921 34.164 36.968 34.027C37.012 33.89 37.548 33.834 37.707 33.948C37.865 34.06 39.603 35.698 39.808 36.005C40.014 36.31 39.82 36.948 39.832 37.231"/>
  <path stroke-width="0.13" stroke-linejoin="round" d="M36.887 35.356C36.911 35.356 38.399 37.14 38.411 37.14"/>
  <path stroke-width="0.13" stroke-linejoin="round" d="M38.798 37.345C39.082 37.084 39.286 36.573 39.218 36.402"/>
  <path stroke-width="0.13" stroke-linejoin="round" d="M37.24 34.243C37.24 34.277 38.945 35.97 38.945 35.97"/>
  <g>
   <path stroke-width="0.3" stroke-linejoin="round" d="M29.6 35.997C29.655 34.819 27.844 33.777 25.556 33.668C23.268 33.561 21.367 34.429 21.312 35.609"/>
   <path stroke-width="0.13" stroke-linejoin="round" d="M21.312 35.609C21.257 36.786 23.068 37.829 25.356 37.936C27.644 38.045 29.545 37.176 29.6 35.997"/>
  </g>
  <g>
   <path stroke-width="0.13" stroke-linejoin="round" d="M29.216 35.979C29.265 34.909 27.623 33.963 25.547 33.866C23.471 33.768 21.746 34.557 21.696 35.627"/>
   <path stroke-width="0.3" stroke-linejoin="round" d="M21.696 35.627C21.646 36.695 23.289 37.642 25.365 37.74C27.442 37.837 29.166 37.048 29.216 35.979"/>
  </g>
  <g>
   <path stroke-width="0.13" stroke-linejoin="round" d="M29.196 36.137C29.082 35.119 27.478 34.279 25.533 34.185C23.565 34.091 21.913 34.795 21.701 35.786"/>
  </g>
  <g>
   <path stroke-width="0.3" stroke-linejoin="round" d="M25.852 36.14C25.856 36.051 25.751 35.969 25.596 35.93"/>
   <path stroke-width="0.3" stroke-linejoin="round" d="M25.096 35.994C25.053 36.027 25.033 36.064 25.032 36.101C25.025 36.219 25.204 36.322 25.431 36.332C25.658 36.343 25.846 36.256 25.852 36.14"/>
  </g>
  <g>
   <path stroke-width="0.13" stroke-linejoin="round" d="M29.196 36.137C29.082 35.119 27.478 34.279 25.533 34.185C23.565 34.091 21.913 34.795 21.701 35.786"/>
  </g>
  <line stroke-width="0.3" stroke-linejoin="round" x1="25.096" y1="35.994" x2="24.309" y2="34.231"/>
  <line stroke-width="0.3" stroke-linejoin="round" x1="25.597" y1="35.93" x2="24.309" y2="34.231"/>
  <line stroke-width="0.13" stroke-linejoin="round" x1="22.153" y1="35.622" x2="22.541" y2="35.68"/>
  <line stroke-width="0.13" stroke-linejoin="round" x1="22.343" y1="36.7" x2="22.707" y2="36.631"/>
  <line stroke-width="0.13" stroke-linejoin="round" x1="23.798" y1="37.487" x2="23.919" y2="37.387"/>
  <line stroke-width="0.13" stroke-linejoin="round" x1="25.746" y1="37.863" x2="25.71" y2="37.658"/>
  <line stroke-width="0.13" stroke-linejoin="round" x1="27.603" y1="37.469" x2="27.4" y2="37.343"/>
  <line stroke-width="0.13" stroke-linejoin="round" x1="28.73" y1="36.619" x2="28.341" y2="36.561"/>
  <line stroke-width="0.13" stroke-linejoin="round" x1="28.541" y1="35.542" x2="28.175" y2="35.61"/>
  <line stroke-width="0.13" stroke-linejoin="round" x1="27.167" y1="34.686" x2="26.964" y2="34.856"/>
  <line stroke-width="0.13" stroke-linejoin="round" x1="25.135" y1="34.378" x2="25.172" y2="34.584"/>
  <line stroke-width="0.13" stroke-linejoin="round" x1="23.221" y1="34.735" x2="23.481" y2="34.899"/>
  <g>
   <path stroke-width="0.3" stroke-linejoin="round" d="M21.251 36.921C21.196 38.1 23.006 39.143 25.295 39.25C27.582 39.357 29.483 38.49 29.539 37.31"/>
  </g>
  <g>
   <path stroke-width="0.3" stroke-linejoin="round" d="M21.347 38.375C21.326 38.829 21.591 39.261 22.053 39.616"/>
   <path stroke-width="0.3" stroke-linejoin="round" d="M23.126 40.198C23.782 40.445 24.518 40.581 25.231 40.612C27.428 40.715 29.253 39.881 29.306 38.749"/>
  </g>
  <line stroke-width="0.3" stroke-linejoin="round" x1="21.251" y1="36.921" x2="21.312" y2="35.609"/>
  <line stroke-width="0.3" stroke-linejoin="round" x1="29.539" y1="37.31" x2="29.6" y2="35.997"/>
  <line stroke-width="0.3" stroke-linejoin="round" x1="29.306" y1="38.749" x2="29.347" y2="37.898"/>
  <line stroke-width="0.3" stroke-linejoin="round" x1="21.347" y1="38.375" x2="21.387" y2="37.524"/>
  <line stroke-width="0.3" stroke-linejoin="round" x1="28.92" y1="34.749" x2="30.792" y2="33.31"/>
  <g>
   <path stroke-width="0.13" stroke-linejoin="round" d="M22.039 41.109C22.184 40.987 22.132 40.686 21.922 40.435C21.711 40.183 21.423 40.078 21.278 40.198"/>
   <path stroke-width="0.3" stroke-linejoin="round" d="M21.278 40.198C21.134 40.32 21.187 40.621 21.396 40.874C21.606 41.125 21.893 41.229 22.039 41.109"/>
  </g>
  <g>
   <path stroke-width="0.3" stroke-linejoin="round" d="M22.763 40.557C22.908 40.435 22.856 40.134 22.646 39.883C22.435 39.631 22.149 39.526 22.004 39.648"/>
  </g>
  <path stroke-width="0.13" stroke-linejoin="round" d="M23.603 39.673C23.603 39.347 23.315 39.048 22.992 39.021C22.868 39.021 22.782 39.073 22.73 39.155"/>
  <path stroke-width="0.13" stroke-linejoin="round" d="M23.486 39.923C23.55 39.863 23.593 39.779 23.603 39.673"/>
  <line stroke-width="0.3" stroke-linejoin="round" x1="21.278" y1="40.198" x2="22.004" y2="39.648"/>
  <line stroke-width="0.3" stroke-linejoin="round" x1="22.039" y1="41.109" x2="22.763" y2="40.557"/>
  <line stroke-width="0.3" stroke-linejoin="round" x1="22.839" y1="40.418" x2="23.492" y2="39.917"/>
  <line stroke-width="0.3" stroke-linejoin="round" x1="22.17" y1="39.597" x2="22.785" y2="39.11"/>
  <g>
   <path stroke-width="0.3" stroke-linejoin="round" d="M31.121 33.704C31.204 33.634 31.199 33.49 31.108 33.381C31.016 33.273 30.876 33.24 30.792 33.31"/>
  </g>
  <line stroke-width="0.3" stroke-linejoin="round" x1="29.285" y1="35.115" x2="31.121" y2="33.704"/>
  <g>
   <path stroke-width="0.13" stroke-linejoin="round" d="M50.357 57.246C51.652 56.182 52.656 54.865 53.322 53.469"/>
   <path stroke-width="0.13" stroke-linejoin="round" d="M19.169 28.89C17.803 32.807 18.163 37.457 19.849 41.932"/>
   <path stroke-width="0.13" stroke-linejoin="round" d="M22.742 47.593C23.339 48.5 23.978 49.365 24.574 50.093"/>
   <path stroke-width="0.13" stroke-linejoin="round" d="M26.013 51.737C28.865 54.774 32.1 56.999 35.261 58.307"/>
   <path stroke-width="0.13" stroke-linejoin="round" d="M40.911 59.795C44.758 60.183 48.014 59.2 50.357 57.246"/>
  </g>
  <path stroke-width="0.3" stroke-linejoin="round" d="M17.91 51.332C17.899 51.334 16.611 52.183 16.425 52.362C16.239 52.539 15.053 54.789 16.672 56.444C17.109 56.89 17.557 57.154 17.984 57.298"/>
  <path stroke-width="0.3" stroke-linejoin="round" d="M20.542 56.808C20.928 56.505 21.519 56.07 21.519 56.07"/>
  <g>
   <path stroke-width="0.13" stroke-linejoin="round" d="M22.384 55.853C22.746 55.497 22.951 55.03 23.003 54.527"/>
   <path stroke-width="0.13" stroke-linejoin="round" d="M22.323 52.182C22.179 51.978 22.022 51.79 21.868 51.637C20.565 50.307 18.684 50.037 17.664 51.036"/>
   <path stroke-width="0.3" stroke-linejoin="round" d="M17.664 51.036C17.431 51.265 17.263 51.539 17.166 51.826"/>
   <path stroke-width="0.3" stroke-linejoin="round" d="M21.013 56.448C21.58 56.402 22.05 56.185 22.384 55.853"/>
  </g>
  <g>
   <path stroke-width="0.2" stroke-linejoin="round" d="M23.074 55.268C23.452 54.899 23.658 54.408 23.701 53.881"/>
   <path stroke-width="0.2" stroke-linejoin="round" d="M22.989 51.563C22.853 51.372 22.704 51.197 22.559 51.051C21.257 49.722 19.375 49.453 18.356 50.451"/>
  </g>
  <path stroke-width="0.13" stroke-linejoin="round" d="M18.059 51.189C19.327 51.1 20.243 51.085 20.352 51.076C20.46 51.066 20.626 51.216 20.748 51.368C20.83 51.472 21.333 52.237 21.699 52.762"/>
  <path stroke-width="0.13" stroke-linejoin="round" d="M16.687 52.356C17.361 52.462 18.286 52.293 18.579 52.268"/>
  <path stroke-width="0.13" stroke-linejoin="round" d="M19.071 52.42C19.199 52.988 19.742 53.78 20.117 54.228"/>
  <path stroke-width="0.13" stroke-linejoin="round" d="M19.028 52.054L20.14 51.28"/>
  <line stroke-width="0.3" stroke-linejoin="round" x1="17.664" y1="51.036" x2="18.356" y2="50.451"/>
  <line stroke-width="0.3" stroke-linejoin="round" x1="22.21" y1="56.003" x2="23.074" y2="55.268"/>
  <g>
   <path stroke-width="0.13" stroke-linejoin="round" d="M35.389 41.439C35.389 41.155 34.929 40.924 34.36 40.924C33.792 40.924 33.332 41.155 33.332 41.439C33.332 41.624 33.526 41.784 33.82 41.878"/>
   <path stroke-width="0.13" stroke-linejoin="round" d="M35.033 41.829C35.268 41.728 35.389 41.585 35.389 41.439"/>
  </g>
  <g>
   <path stroke-width="0.3" stroke-linejoin="round" d="M33.18 48.671C33.18 48.997 33.709 49.262 34.36 49.262C34.517 49.262 34.667 49.246 34.795 49.22"/>
  </g>
  <line stroke-width="0.3" stroke-linejoin="round" x1="33.18" y1="48.671" x2="33.18" y2="46.67"/>
  <line stroke-width="0.3" stroke-linejoin="round" x1="35.539" y1="47.811" x2="35.539" y2="46.435"/>
  <g>
   <path stroke-width="0.3" stroke-linejoin="round" d="M33.079 40.058C33.026 39.88 32.719 39.752 32.365 39.75C31.966 39.75 31.641 39.912 31.641 40.112"/>
   <path stroke-width="0.13" stroke-linejoin="round" d="M31.641 40.112C31.641 40.198 31.699 40.276 31.797 40.337"/>
  </g>
  <g>
   <path stroke-width="0.13" stroke-linejoin="round" d="M33.03 42.753C33.048 42.947 33.368 43.097 33.753 43.097C34.091 43.097 34.374 42.981 34.454 42.823"/>
  </g>
  <g>
   <path stroke-width="0.3" stroke-linejoin="round" d="M37.859 40.841C37.859 40.642 37.534 40.479 37.136 40.479C36.936 40.479 36.755 40.521 36.625 40.585"/>
   <path stroke-width="0.13" stroke-linejoin="round" d="M37.335 41.189C37.651 41.143 37.856 41 37.859 40.841"/>
  </g>
  <path stroke-width="0.3" stroke-linejoin="round" d="M33.078 40.051C33.767 40.454 35.439 40.738 36.625 40.585"/>
  <g>
   <path stroke-width="0.3" stroke-linejoin="round" d="M31.641 41.692C31.641 41.777 31.699 41.856 31.797 41.917"/>
  </g>
  <g>
   <path stroke-width="0.3" stroke-linejoin="round" d="M33.031 44.343C33.06 44.533 33.375 44.677 33.753 44.677C34.14 44.677 34.456 44.526 34.475 44.334"/>
  </g>
  <g>
   <path stroke-width="0.3" stroke-linejoin="round" d="M37.494 42.735C37.726 42.67 37.857 42.548 37.859 42.421"/>
  </g>
  <path stroke-width="0.3" stroke-linejoin="round" d="M34.475 44.316C35.073 43.796 36.893 42.872 37.494 42.735"/>
  <path stroke-width="0.3" stroke-linejoin="round" d="M37.859 42.421L37.859 40.841"/>
  <path stroke-width="0.3" stroke-linejoin="round" d="M31.641 40.112L31.641 41.692"/>
  <path stroke-width="0.3" stroke-linejoin="round" d="M31.797 41.917C32.146 42.185 32.96 43.67 33.03 44.316"/>
  <path stroke-width="0.13" stroke-linejoin="round" d="M34.475 42.735C35.073 42.216 36.798 41.316 37.399 41.179"/>
  <path stroke-width="0.13" stroke-linejoin="round" d="M31.797 40.337C32.146 40.606 32.96 42.091 33.03 42.735"/>
  <line stroke-width="0.3" stroke-linejoin="round" x1="33.18" y1="47.67" x2="32.045" y2="46.255"/>
  <line stroke-width="0.3" stroke-linejoin="round" x1="29.568" y1="43.159" x2="27.359" y2="40.402"/>
  <line stroke-width="0.3" stroke-linejoin="round" x1="31.015" y1="42.526" x2="28.675" y2="39.787"/>
  <g>
   <path stroke-width="0.13" stroke-linejoin="round" d="M36.1 48.249C35.923 48.06 35.517 48.156 35.191 48.463C34.865 48.768 34.746 49.167 34.923 49.356"/>
   <path stroke-width="0.3" stroke-linejoin="round" d="M34.923 49.356C35.098 49.543 35.506 49.448 35.831 49.142C36.155 48.837 36.276 48.436 36.1 48.249"/>
  </g>
  <g>
   <path stroke-width="0.3" stroke-linejoin="round" d="M35.777 47.905C35.6 47.719 35.194 47.814 34.868 48.119C34.543 48.426 34.423 48.826 34.6 49.014"/>
  </g>
  <g>
   <path stroke-width="0.13" stroke-linejoin="round" d="M35.25 47.652C35.067 47.457 34.725 47.481 34.487 47.706C34.25 47.929 34.206 48.268 34.389 48.463"/>
  </g>
  <line stroke-width="0.3" stroke-linejoin="round" x1="35.777" y1="47.905" x2="36.1" y2="48.249"/>
  <line stroke-width="0.3" stroke-linejoin="round" x1="34.6" y1="49.014" x2="34.923" y2="49.356"/>
  <line stroke-width="0.3" stroke-linejoin="round" x1="35.25" y1="47.652" x2="35.408" y2="47.822"/>
  <line stroke-width="0.3" stroke-linejoin="round" x1="34.389" y1="48.463" x2="34.542" y2="48.625"/>
  <path stroke-width="0.3" stroke-linejoin="round" d="M30.42 44.569C30.451 43.935 30.852 43.618 31.19 43.402"/>
  <line stroke-width="0.3" stroke-linejoin="round" x1="31.19" y1="43.402" x2="32.216" y2="42.81"/>
  <path stroke-width="0.3" stroke-linejoin="round" d="M31.882 42.262C31.853 42.277 27.277 44.045 27.193 44.119C27.109 44.194 27.109 44.679 27.478 44.573C27.849 44.468 32.146 42.673 32.146 42.673"/>
  <g>
   <path stroke-width="0.3" stroke-linejoin="round" d="M30.245 44.256C30.239 44.014 30.099 43.792 29.87 43.616"/>
   <path stroke-width="0.3" stroke-linejoin="round" d="M29.219 43.301C28.917 43.213 28.589 43.176 28.28 43.185C27.21 43.212 26.355 43.734 26.37 44.351"/>
   <path stroke-width="0.13" stroke-linejoin="round" d="M26.37 44.351C26.385 44.969 27.265 45.448 28.335 45.423C29.405 45.396 30.26 44.875 30.245 44.256"/>
  </g>
  <g>
   <path stroke-width="0.3" stroke-linejoin="round" d="M26.376 46.439C26.432 46.86 26.888 47.203 27.524 47.357"/>
  </g>
  <line stroke-width="0.3" stroke-linejoin="round" x1="26.376" y1="46.439" x2="26.376" y2="44.351"/>
  <line stroke-width="0.3" stroke-linejoin="round" x1="30.245" y1="44.835" x2="30.245" y2="44.256"/>
  <g>
   <path stroke-width="0.13" stroke-linejoin="round" d="M31.39 47C31.344 46.953 31.295 46.912 31.246 46.883"/>
   <path stroke-width="0.13" stroke-linejoin="round" d="M28.751 49.198C28.785 49.265 28.826 49.323 28.87 49.369"/>
   <path stroke-width="0.3" stroke-linejoin="round" d="M28.87 49.369C29.292 49.817 30.196 49.649 30.891 48.994C31.588 48.34 31.809 47.447 31.39 47"/>
  </g>
  <path stroke-width="0.3" stroke-linejoin="round" d="M26.402 40.774C26.329 41.42 26.512 42.341 26.62 42.515C26.728 42.689 27.047 42.789 27.359 42.71C27.672 42.631 28.519 42.268 28.65 42.167C28.666 42.155 28.69 42.134 28.721 42.106"/>
  <path stroke-width="0.3" stroke-linejoin="round" d="M29.696 40.981C29.722 40.938 29.742 40.896 29.76 40.854C29.969 40.353 29.992 40.231 29.992 39.905C29.992 39.578 30.013 38.845 29.992 38.701C29.969 38.555 29.614 38.252 29.411 38.375"/>
  <path stroke-width="0.13" stroke-linejoin="round" d="M26.443 41.207C26.463 41.264 26.481 41.307 26.496 41.332C26.606 41.506 26.925 41.609 27.236 41.529C27.407 41.484 27.737 41.356 28.024 41.232"/>
  <path stroke-width="0.13" stroke-linejoin="round" d="M29.161 40.356C29.359 40.133 29.548 39.884 29.637 39.673C29.783 39.325 29.838 39.158 29.858 38.981"/>
  <g>
   <path stroke-width="0.13" stroke-linejoin="round" d="M72.733 9.016C70.158 6.113 67.379 3.547 64.716 1.532"/>
   <path stroke-width="0.13" stroke-linejoin="round" d="M12.634 1.507C1.181 14.83 2.749 36.79 15.47 54.237"/>
   <path stroke-width="0.13" stroke-linejoin="round" d="M18.672 58.215C21.963 61.959 25.591 65.149 29.144 67.561"/>
  </g>
  <g>
   <path stroke-width="0.3" stroke-linejoin="round" d="M0.15 53.63C3.056 58.737 6.476 63.411 9.983 67.25"/>
  </g>
  <g>
   <path stroke-width="0.13" stroke-linejoin="round" d="M72.876 7.663C70.686 5.269 68.364 3.107 66.182 1.382"/>
   <path stroke-width="0.13" stroke-linejoin="round" d="M11.098 1.361C-0.72 16.036 2.124 39.996 17.042 57.871C20.295 61.74 23.903 65.07 27.451 67.62"/>
  </g>
  <path stroke-width="0.13" stroke-linejoin="round" d="M67.582 62.637C70.817 60.654 72.582 59.267 73.213 58.258"/>
  <path stroke-width="0.13" stroke-linejoin="round" d="M19.817 5.889C21.065 4.399 23.907 2.145 24.981 1.523"/>
  <path stroke-width="0.13" stroke-linejoin="round" d="M12.295 16.98C13.717 11.192 15.795 7.519 18.257 4.642C20.718 1.765 21.966 1.106 21.966 1.106"/>
  <path stroke-width="0.3" stroke-linejoin="round" d="M41.378 63.442C41.368 63.445 40.165 64.581 40.002 64.804C39.838 65.027 39.006 67.621 41.023 69.067C43.039 70.513 44.761 69.277 44.904 69.06C45.046 68.843 46.072 67.772 46.072 67.772"/>
  <g>
   <path stroke-width="0.13" stroke-linejoin="round" d="M46.944 67.381C47.834 66.137 47.238 64.186 45.615 63.024C43.991 61.863 41.954 61.929 41.064 63.173"/>
   <path stroke-width="0.3" stroke-linejoin="round" d="M41.064 63.173C40.859 63.459 40.734 63.78 40.685 64.102"/>
   <path stroke-width="0.3" stroke-linejoin="round" d="M45.607 68.263C46.198 68.111 46.654 67.793 46.944 67.381"/>
  </g>
  <g>
   <path stroke-width="0.2" stroke-linejoin="round" d="M47.564 66.635C48.454 65.391 47.859 63.441 46.235 62.28C44.612 61.118 42.575 61.183 41.685 62.427"/>
  </g>
  <path stroke-width="0.13" stroke-linejoin="round" d="M41.509 63.262C42.832 62.932 43.795 62.746 43.908 62.716C44.021 62.685 44.223 62.811 44.381 62.951C44.539 63.09 45.945 64.596 46.128 64.691C46.31 64.787 46.311 65.016 46.313 65.245C46.314 65.474 46.073 67.448 46.115 67.545"/>
  <path stroke-width="0.13" stroke-linejoin="round" d="M40.277 64.751C41.009 64.734 41.954 64.385 42.258 64.304"/>
  <path stroke-width="0.13" stroke-linejoin="round" d="M42.807 64.373C43.112 65.102 44.182 66.081 44.563 66.329"/>
  <path stroke-width="0.13" stroke-linejoin="round" d="M44.874 66.813C44.652 67.381 44.765 68.569 44.881 68.646"/>
  <path stroke-width="0.13" stroke-linejoin="round" d="M44.984 66.459C44.981 66.447 46.057 65.013 46.057 65.013"/>
  <path stroke-width="0.13" stroke-linejoin="round" d="M42.694 63.993L43.723 62.969"/>
  <line stroke-width="0.3" stroke-linejoin="round" x1="41.064" y1="63.173" x2="41.685" y2="62.427"/>
  <line stroke-width="0.3" stroke-linejoin="round" x1="46.789" y1="67.572" x2="47.564" y2="66.635"/>
  <path stroke-width="0.3" stroke-linejoin="round" d="M28.803 60.401C28.803 60.401 27.582 61.36 27.413 61.554C27.242 61.747 26.257 64.091 28.015 65.599C29.771 67.106 31.472 66.097 31.621 65.908C31.771 65.718 32.811 64.805 32.811 64.805"/>
  <g>
   <path stroke-width="0.13" stroke-linejoin="round" d="M33.654 64.513C34.582 63.429 34.188 61.569 32.773 60.357C31.359 59.146 29.46 59.042 28.532 60.125"/>
   <path stroke-width="0.3" stroke-linejoin="round" d="M28.532 60.125C28.32 60.374 28.176 60.662 28.105 60.957"/>
   <path stroke-width="0.3" stroke-linejoin="round" d="M32.341 65.224C32.902 65.131 33.35 64.873 33.654 64.513"/>
  </g>
  <g>
   <path stroke-width="0.2" stroke-linejoin="round" d="M34.29 63.871C35.219 62.786 34.825 60.926 33.411 59.716C31.996 58.503 30.097 58.399 29.17 59.484"/>
  </g>
  <path stroke-width="0.13" stroke-linejoin="round" d="M28.937 60.243C30.195 60.045 31.106 59.95 31.213 59.932C31.32 59.912 31.498 60.046 31.634 60.189C31.768 60.329 32.953 61.844 33.113 61.948C33.276 62.051 33.259 62.265 33.24 62.478C33.222 62.691 32.838 64.506 32.871 64.597"/>
  <path stroke-width="0.13" stroke-linejoin="round" d="M27.673 61.527C28.355 61.573 29.26 61.325 29.55 61.274"/>
  <path stroke-width="0.13" stroke-linejoin="round" d="M30.056 61.383C30.277 62.084 31.193 63.082 31.527 63.343"/>
  <path stroke-width="0.13" stroke-linejoin="round" d="M31.777 63.817C31.524 64.326 31.533 65.439 31.635 65.522"/>
  <path stroke-width="0.13" stroke-linejoin="round" d="M31.908 63.496C31.905 63.485 33.021 62.24 33.021 62.24"/>
  <path stroke-width="0.13" stroke-linejoin="round" d="M29.981 61.021L31.019 60.152"/>
  <line stroke-width="0.3" stroke-linejoin="round" x1="28.532" y1="60.125" x2="29.17" y2="59.484"/>
  <line stroke-width="0.3" stroke-linejoin="round" x1="33.493" y1="64.679" x2="34.29" y2="63.869"/>
  <path stroke-width="0.3" stroke-linejoin="round" d="M11.204 26.111C11.194 26.111 9.736 26.899 9.519 27.071C9.304 27.245 7.825 29.539 9.401 31.461C10.977 33.384 12.964 32.633 13.159 32.46C13.352 32.286 14.622 31.516 14.622 31.516"/>
  <g>
   <path stroke-width="0.13" stroke-linejoin="round" d="M15.567 31.364C16.751 30.391 16.681 28.35 15.41 26.806C14.141 25.26 12.153 24.798 10.97 25.769"/>
   <path stroke-width="0.3" stroke-linejoin="round" d="M10.97 25.769C10.698 25.992 10.493 26.271 10.362 26.568"/>
   <path stroke-width="0.3" stroke-linejoin="round" d="M14.045 31.871C14.657 31.878 15.179 31.687 15.567 31.364"/>
  </g>
  <g>
   <path stroke-width="0.2" stroke-linejoin="round" d="M16.361 30.803C17.545 29.83 17.475 27.789 16.204 26.245C14.936 24.701 12.946 24.236 11.763 25.21"/>
  </g>
  <path stroke-width="0.13" stroke-linejoin="round" d="M11.377 25.971C12.743 25.993 13.724 26.064 13.84 26.064C13.958 26.064 14.121 26.239 14.237 26.414C14.355 26.589 15.323 28.411 15.475 28.55C15.627 28.69 15.568 28.913 15.51 29.135C15.451 29.356 14.708 31.204 14.724 31.307"/>
  <path stroke-width="0.13" stroke-linejoin="round" d="M9.801 27.091C10.512 27.266 11.516 27.172 11.832 27.172"/>
  <path stroke-width="0.13" stroke-linejoin="round" d="M12.346 27.384C12.451 28.166 13.234 29.391 13.537 29.731"/>
  <path stroke-width="0.13" stroke-linejoin="round" d="M13.711 30.278C13.349 30.769 13.151 31.949 13.244 32.054"/>
  <path stroke-width="0.13" stroke-linejoin="round" d="M13.91 29.963C13.91 29.951 15.323 28.843 15.323 28.843"/>
  <path stroke-width="0.13" stroke-linejoin="round" d="M12.335 26.986L13.596 26.263"/>
  <line stroke-width="0.3" stroke-linejoin="round" x1="10.97" y1="25.769" x2="11.763" y2="25.21"/>
  <line stroke-width="0.3" stroke-linejoin="round" x1="15.368" y1="31.509" x2="16.361" y2="30.803"/>
  <path stroke-width="0.3" stroke-linejoin="round" d="M51.39 58.203C51.378 58.207 50.121 59.624 49.957 59.893C49.792 60.164 49.1 63.207 51.546 64.656C53.991 66.105 55.832 64.522 55.972 64.26C56.115 63.999 57.177 62.673 57.177 62.673"/>
  <g>
   <path stroke-width="0.13" stroke-linejoin="round" d="M58.133 62.14C59.024 60.633 58.151 58.466 56.182 57.304C54.213 56.14 51.896 56.42 51.005 57.929"/>
   <path stroke-width="0.3" stroke-linejoin="round" d="M51.005 57.929C50.801 58.274 50.689 58.654 50.665 59.024"/>
   <path stroke-width="0.3" stroke-linejoin="round" d="M56.697 63.28C57.356 63.048 57.843 62.64 58.133 62.14"/>
  </g>
  <g>
   <path stroke-width="0.2" stroke-linejoin="round" d="M58.767 61.228C59.658 59.719 58.784 57.554 56.816 56.392C54.847 55.228 52.53 55.508 51.639 57.015"/>
  </g>
  <path stroke-width="0.13" stroke-linejoin="round" d="M51.521 57.984C52.997 57.475 54.079 57.167 54.204 57.121C54.329 57.076 54.575 57.2 54.768 57.343C54.962 57.484 56.716 59.063 56.933 59.155C57.152 59.246 57.176 59.506 57.2 59.768C57.223 60.029 57.146 62.304 57.204 62.411"/>
  <path stroke-width="0.13" stroke-linejoin="round" d="M50.265 59.804C51.1 59.715 52.142 59.222 52.481 59.098"/>
  <path stroke-width="0.13" stroke-linejoin="round" d="M53.115 59.124C53.533 59.923 54.853 60.933 55.313 61.179"/>
  <path stroke-width="0.13" stroke-linejoin="round" d="M55.715 61.701C55.518 62.368 55.765 63.713 55.908 63.789"/>
  <path stroke-width="0.13" stroke-linejoin="round" d="M55.804 61.283C55.801 61.271 56.884 59.527 56.884 59.527"/>
  <path stroke-width="0.13" stroke-linejoin="round" d="M52.947 58.701L54.018 57.43"/>
  <line stroke-width="0.3" stroke-linejoin="round" x1="51.006" y1="57.927" x2="51.639" y2="57.015"/>
  <line stroke-width="0.3" stroke-linejoin="round" x1="57.975" y1="62.375" x2="58.767" y2="61.228"/>
  <path stroke-width="0.3" stroke-linejoin="round" d="M54.887 44.075C54.874 44.078 53.378 45.396 53.171 45.658C52.965 45.918 51.853 49.009 54.222 50.837C56.591 52.664 58.716 51.246 58.898 50.99C59.079 50.735 60.359 49.488 60.359 49.488"/>
  <g>
   <path stroke-width="0.13" stroke-linejoin="round" d="M61.426 49.054C62.549 47.593 61.915 45.219 60.008 43.75C58.1 42.283 55.643 42.277 54.52 43.738"/>
   <path stroke-width="0.3" stroke-linejoin="round" d="M54.52 43.738C54.262 44.073 54.097 44.456 54.024 44.84"/>
   <path stroke-width="0.3" stroke-linejoin="round" d="M59.779 50.06C60.496 49.902 61.058 49.537 61.426 49.054"/>
  </g>
  <g>
   <path stroke-width="0.2" stroke-linejoin="round" d="M62.204 48.18C63.329 46.72 62.695 44.345 60.787 42.878C58.881 41.411 56.423 41.405 55.298 42.865"/>
  </g>
  <path stroke-width="0.13" stroke-linejoin="round" d="M55.051 43.863C56.659 43.521 57.829 43.338 57.966 43.305C58.103 43.274 58.341 43.435 58.526 43.609C58.71 43.783 60.34 45.656 60.555 45.78C60.771 45.902 60.764 46.179 60.755 46.454C60.746 46.731 60.374 49.098 60.42 49.216"/>
  <path stroke-width="0.13" stroke-linejoin="round" d="M53.506 45.604C54.389 45.616 55.54 45.235 55.911 45.151"/>
  <path stroke-width="0.13" stroke-linejoin="round" d="M56.57 45.258C56.905 46.146 58.155 47.372 58.601 47.688"/>
  <path stroke-width="0.13" stroke-linejoin="round" d="M58.956 48.283C58.664 48.957 58.75 50.393 58.889 50.491"/>
  <path stroke-width="0.13" stroke-linejoin="round" d="M59.103 47.86C59.1 47.847 60.457 46.164 60.457 46.164"/>
  <path stroke-width="0.13" stroke-linejoin="round" d="M56.448 44.795L57.731 43.604"/>
  <line stroke-width="0.3" stroke-linejoin="round" x1="54.52" y1="43.738" x2="55.298" y2="42.865"/>
  <line stroke-width="0.3" stroke-linejoin="round" x1="61.231" y1="49.277" x2="62.204" y2="48.18"/>
  <path stroke-width="0.3" stroke-linejoin="round" d="M11.471 39.09C11.461 39.09 10.102 39.823 9.901 39.984C9.701 40.145 8.323 42.283 9.791 44.073C11.259 45.862 13.109 45.162 13.291 45.002C13.471 44.841 14.654 44.124 14.654 44.124"/>
  <g>
   <path stroke-width="0.13" stroke-linejoin="round" d="M15.534 43.981C16.635 43.076 16.571 41.174 15.388 39.737C14.205 38.298 12.353 37.865 11.252 38.771"/>
   <path stroke-width="0.3" stroke-linejoin="round" d="M11.252 38.771C11 38.979 10.808 39.24 10.686 39.517"/>
   <path stroke-width="0.3" stroke-linejoin="round" d="M14.118 44.454C14.686 44.46 15.173 44.283 15.534 43.981"/>
  </g>
  <g>
   <path stroke-width="0.2" stroke-linejoin="round" d="M16.274 43.46C17.376 42.554 17.309 40.652 16.128 39.215C14.945 37.776 13.093 37.344 11.992 38.25"/>
  </g>
  <path stroke-width="0.13" stroke-linejoin="round" d="M11.631 38.959C12.903 38.981 13.817 39.045 13.926 39.045C14.035 39.045 14.186 39.209 14.295 39.371C14.404 39.534 15.307 41.231 15.448 41.362C15.589 41.493 15.535 41.698 15.48 41.905C15.426 42.112 14.733 43.832 14.747 43.929"/>
  <path stroke-width="0.13" stroke-linejoin="round" d="M10.163 40.003C10.827 40.165 11.762 40.079 12.055 40.079"/>
  <path stroke-width="0.13" stroke-linejoin="round" d="M12.534 40.274C12.631 41.003 13.361 42.145 13.643 42.46"/>
  <path stroke-width="0.13" stroke-linejoin="round" d="M13.806 42.97C13.468 43.427 13.284 44.526 13.371 44.624"/>
  <path stroke-width="0.13" stroke-linejoin="round" d="M13.99 42.677C13.99 42.667 15.307 41.634 15.307 41.634"/>
  <path stroke-width="0.13" stroke-linejoin="round" d="M12.522 39.905L13.698 39.231"/>
  <line stroke-width="0.3" stroke-linejoin="round" x1="11.252" y1="38.771" x2="11.992" y2="38.25"/>
  <line stroke-width="0.3" stroke-linejoin="round" x1="15.348" y1="44.116" x2="16.274" y2="43.46"/>
  <path stroke-width="0.3" stroke-linejoin="round" d="M47.39 27.111C47.377 27.111 45.712 28.21 45.47 28.44C45.231 28.67 43.698 31.576 45.789 33.715C47.881 35.853 50.183 34.746 50.399 34.518C50.613 34.29 52.055 33.234 52.055 33.234"/>
  <g>
   <path stroke-width="0.13" stroke-linejoin="round" d="M53.173 32.951C54.488 31.661 54.191 29.221 52.506 27.503C50.822 25.783 48.39 25.437 47.073 26.727"/>
   <path stroke-width="0.3" stroke-linejoin="round" d="M47.073 26.727C46.771 27.022 46.554 27.379 46.429 27.748"/>
   <path stroke-width="0.3" stroke-linejoin="round" d="M51.402 33.719C52.134 33.662 52.741 33.38 53.173 32.951"/>
  </g>
  <g>
   <path stroke-width="0.2" stroke-linejoin="round" d="M54.066 32.195C55.383 30.905 55.084 28.466 53.399 26.746C51.716 25.028 49.283 24.681 47.966 25.972"/>
  </g>
  <path stroke-width="0.13" stroke-linejoin="round" d="M47.582 26.925C49.222 26.809 50.405 26.789 50.545 26.777C50.686 26.765 50.899 26.958 51.058 27.157C51.216 27.353 52.57 29.437 52.767 29.588C52.963 29.74 52.917 30.013 52.869 30.285C52.823 30.556 52.125 32.85 52.155 32.972"/>
  <path stroke-width="0.13" stroke-linejoin="round" d="M45.81 28.434C46.682 28.568 47.877 28.352 48.255 28.318"/>
  <path stroke-width="0.13" stroke-linejoin="round" d="M48.893 28.516C49.1 29.443 50.167 30.832 50.567 31.205"/>
  <path stroke-width="0.13" stroke-linejoin="round" d="M50.834 31.846C50.451 32.47 50.337 33.905 50.46 34.021"/>
  <path stroke-width="0.13" stroke-linejoin="round" d="M51.039 31.446C51.037 31.432 52.615 29.954 52.615 29.954"/>
  <path stroke-width="0.13" stroke-linejoin="round" d="M48.837 28.042L50.273 27.042"/>
  <line stroke-width="0.3" stroke-linejoin="round" x1="47.073" y1="26.727" x2="47.966" y2="25.972"/>
  <line stroke-width="0.3" stroke-linejoin="round" x1="52.948" y1="33.146" x2="54.066" y2="32.195"/>
  <path stroke-width="0.3" stroke-linejoin="round" d="M18.396 17.193C18.385 17.193 16.801 18.05 16.567 18.237C16.332 18.425 14.727 20.917 16.439 23.006C18.152 25.094 20.309 24.277 20.519 24.091C20.731 23.902 22.109 23.065 22.109 23.065"/>
  <g>
   <path stroke-width="0.13" stroke-linejoin="round" d="M23.137 22.899C24.422 21.844 24.346 19.626 22.966 17.949C21.586 16.271 19.426 15.768 18.141 16.824"/>
   <path stroke-width="0.3" stroke-linejoin="round" d="M18.141 16.824C17.847 17.065 17.625 17.368 17.483 17.693"/>
   <path stroke-width="0.3" stroke-linejoin="round" d="M21.484 23.452C22.147 23.457 22.716 23.251 23.137 22.899"/>
  </g>
  <g>
   <path stroke-width="0.2" stroke-linejoin="round" d="M23.998 22.291C25.283 21.234 25.207 19.018 23.829 17.341C22.449 15.663 20.289 15.159 19.004 16.214"/>
  </g>
  <path stroke-width="0.13" stroke-linejoin="round" d="M18.585 17.042C20.068 17.067 21.134 17.143 21.26 17.143C21.388 17.143 21.565 17.333 21.692 17.524C21.818 17.713 22.87 19.693 23.036 19.844C23.201 19.996 23.138 20.237 23.074 20.478C23.01 20.719 22.202 22.727 22.219 22.838"/>
  <path stroke-width="0.13" stroke-linejoin="round" d="M16.871 18.26C17.646 18.449 18.736 18.347 19.079 18.347"/>
  <path stroke-width="0.13" stroke-linejoin="round" d="M19.637 18.576C19.751 19.425 20.6 20.757 20.931 21.126"/>
  <path stroke-width="0.13" stroke-linejoin="round" d="M21.12 21.722C20.728 22.254 20.512 23.536 20.614 23.649"/>
  <path stroke-width="0.13" stroke-linejoin="round" d="M21.336 21.379C21.336 21.367 22.87 20.161 22.87 20.161"/>
  <path stroke-width="0.13" stroke-linejoin="round" d="M19.625 18.144L20.993 17.359"/>
  <line stroke-width="0.3" stroke-linejoin="round" x1="18.141" y1="16.824" x2="19.004" y2="16.214"/>
  <line stroke-width="0.3" stroke-linejoin="round" x1="22.92" y1="23.057" x2="23.998" y2="22.291"/>
  <path stroke-width="0.3" stroke-linejoin="round" d="M32.569 16.449C32.555 16.449 30.801 17.396 30.542 17.605C30.282 17.812 28.503 20.574 30.399 22.888C32.296 25.201 34.688 24.297 34.92 24.089C35.155 23.882 36.683 22.954 36.683 22.954"/>
  <g>
   <path stroke-width="0.13" stroke-linejoin="round" d="M37.82 22.771C39.244 21.6 39.161 19.143 37.631 17.285C36.103 15.426 33.71 14.868 32.286 16.038"/>
   <path stroke-width="0.3" stroke-linejoin="round" d="M32.286 16.038C31.96 16.306 31.713 16.641 31.556 17"/>
   <path stroke-width="0.3" stroke-linejoin="round" d="M35.99 23.382C36.725 23.388 37.353 23.16 37.82 22.771"/>
  </g>
  <g>
   <path stroke-width="0.2" stroke-linejoin="round" d="M38.776 22.096C40.2 20.925 40.115 18.469 38.588 16.609C37.06 14.75 34.667 14.192 33.241 15.364"/>
  </g>
  <path stroke-width="0.13" stroke-linejoin="round" d="M32.777 16.28C34.42 16.307 35.601 16.391 35.741 16.391C35.883 16.391 36.079 16.603 36.219 16.814C36.36 17.024 37.527 19.216 37.71 19.385C37.892 19.553 37.822 19.821 37.752 20.088C37.682 20.355 36.784 22.577 36.804 22.702"/>
  <path stroke-width="0.13" stroke-linejoin="round" d="M30.879 17.629C31.736 17.839 32.945 17.727 33.325 17.727"/>
  <path stroke-width="0.13" stroke-linejoin="round" d="M33.942 17.98C34.07 18.922 35.011 20.396 35.377 20.804"/>
  <path stroke-width="0.13" stroke-linejoin="round" d="M35.588 21.464C35.152 22.054 34.912 23.475 35.026 23.6"/>
  <path stroke-width="0.13" stroke-linejoin="round" d="M35.826 21.085C35.826 21.071 37.527 19.736 37.527 19.736"/>
  <path stroke-width="0.13" stroke-linejoin="round" d="M33.929 17.501L35.447 16.631"/>
  <line stroke-width="0.3" stroke-linejoin="round" x1="32.286" y1="16.038" x2="33.243" y2="15.364"/>
  <line stroke-width="0.3" stroke-linejoin="round" x1="37.579" y1="22.946" x2="38.776" y2="22.096"/>
 </g>
</svg>
