<?xml version="1.0" encoding="utf-8"?>
<!DOCTYPE svg PUBLIC "-//W3C//DTD SVG 1.1//EN" "http://www.w3.org/Graphics/SVG/1.1/DTD/svg11.dtd">
<!-- Generator: PTC Arbortext IsoDraw 7.3 -->
<svg width="100%" height="100%" viewBox="0 0 150.006 103.947"
 xmlns="http://www.w3.org/2000/svg" xmlns:xlink="http://www.w3.org/1999/xlink"
 fill-rule="evenodd" clip-rule="evenodd" stroke="#000000" stroke-linecap="round" fill="none" xml:space="preserve">
 <g id="Colour">
  <path stroke="none" fill="#B2B2B2" d="M133.45 81.35L133.45 45.018 44.122 45.018 44.122 81.35 133.45 81.35z"/>
  <path stroke="none" fill="#FFFFFF" d="M47.061 50.5C47.061 50.5 47.061 50.5 47.061 47.784 47.061 47.341 47.497 46.93 47.874 46.93 47.874 46.93 47.874 46.93 66.99 46.93 67.762 46.93 67.888 46.951 67.888 47.646 67.888 48.343 67.894 50.664 67.894 50.664 47.061 50.5 47.061 50.5 47.061 50.5z"/>
  <path stroke-width="0.131" stroke-linecap="butt" d="M48.218 47.972L66.772 47.972"/>
  <path stroke-width="0.131" stroke-linecap="butt" d="M48.185 48.884L66.739 48.884"/>
  <path stroke-width="0.131" stroke-linecap="butt" d="M48.185 49.795L66.739 49.795"/>
  <path stroke="none" fill="#FFFFFF" d="M54.774 83.766C55.621 82.653 56.128 81.271 56.128 79.766 56.128 79.766 56.128 79.766 57.378 79.766 57.378 79.766 57.378 79.766 54.825 76.808 54.825 76.808 54.825 76.808 52.27 79.766 52.27 79.766 52.27 79.766 53.506 79.766 53.506 81.927 51.792 83.685 49.651 83.766 54.774 83.766 54.774 83.766 54.774 83.766z"/>
  <path stroke="none" fill="#FFFFFF" d="M72.158 83.766C73.004 82.653 73.512 81.271 73.512 79.766 73.512 79.766 73.512 79.766 74.762 79.766 74.762 79.766 74.762 79.766 72.207 76.808 72.207 76.808 72.207 76.808 69.653 79.766 69.653 79.766 69.653 79.766 70.89 79.766 70.89 81.927 69.176 83.685 67.034 83.766 72.158 83.766 72.158 83.766 72.158 83.766z"/>
  <path stroke="none" fill="#FFFFFF" d="M89.54 83.766C90.387 82.653 90.894 81.271 90.894 79.766 90.894 79.766 90.894 79.766 92.144 79.766 92.144 79.766 92.144 79.766 89.59 76.808 89.59 76.808 89.59 76.808 87.036 79.766 87.036 79.766 87.036 79.766 88.274 79.766 88.274 81.927 86.558 83.685 84.417 83.766 89.54 83.766 89.54 83.766 89.54 83.766z"/>
  <path stroke="none" fill="#FFFFFF" d="M106.924 83.766C107.769 82.653 108.278 81.271 108.278 79.766 108.278 79.766 108.278 79.766 109.528 79.766 109.528 79.766 109.528 79.766 106.974 76.808 106.974 76.808 106.974 76.808 104.418 79.766 104.418 79.766 104.418 79.766 105.656 79.766 105.656 81.927 103.941 83.685 101.799 83.766 106.924 83.766 106.924 83.766 106.924 83.766z"/>
  <path stroke="none" fill="#FFFFFF" d="M124.289 83.766C125.135 82.653 125.643 81.271 125.643 79.766 125.643 79.766 125.643 79.766 126.893 79.766 126.893 79.766 126.893 79.766 124.338 76.808 124.338 76.808 124.338 76.808 121.784 79.766 121.784 79.766 121.784 79.766 123.021 79.766 123.021 81.927 121.307 83.685 119.165 83.766 124.289 83.766 124.289 83.766 124.289 83.766z"/>
  <path stroke="none" fill="#FFFFFF" d="M71.304 13.288C71.304 13.288 71.304 13.288 69.308 11.32 69.308 11.32 69.308 11.32 69.147 12.025 65.905 11.054 61.823 8.855 58.442 4.493 58.442 4.493 58.442 4.493 57.256 5.411 60.881 10.086 65.296 12.442 68.813 13.48 68.813 13.48 68.813 13.48 68.65 14.191 71.304 13.288 71.304 13.288 71.304 13.288z"/>
  <path stroke="#231F20" stroke-width="0.201" stroke-linecap="butt" d="M71.304 13.288C71.304 13.288 71.304 13.288 69.308 11.32C69.308 11.32 69.308 11.32 69.147 12.025C65.905 11.054 61.823 8.855 58.442 4.493C58.442 4.493 58.442 4.493 57.256 5.411C60.881 10.086 65.296 12.442 68.813 13.48C68.813 13.48 68.813 13.48 68.65 14.191C68.65 14.191 68.65 14.191 71.304 13.288z"/>
  <path stroke="none" fill="#FFFFFF" d="M10.561 21.076C8.682 21.076 7.155 22.602 7.152 24.478 7.152 24.478 7.152 24.478 6.429 24.478 6.429 24.478 6.429 24.478 7.902 26.862 7.902 26.862 7.902 26.862 9.374 24.478 9.374 24.478 9.374 24.478 8.651 24.478 8.656 23.428 9.509 22.576 10.561 22.576 10.561 22.576 10.561 22.576 42.994 22.576 42.994 22.576 42.994 22.576 42.994 21.076 10.561 21.076 10.561 21.076 10.561 21.076z"/>
  <path stroke="#231F20" stroke-width="0.201" stroke-linecap="butt" d="M10.561 21.076C8.682 21.076 7.155 22.602 7.152 24.478C7.152 24.478 7.152 24.478 6.429 24.478C6.429 24.478 6.429 24.478 7.902 26.862C7.902 26.862 7.902 26.862 9.374 24.478C9.374 24.478 9.374 24.478 8.651 24.478C8.656 23.428 9.509 22.576 10.561 22.576C10.561 22.576 10.561 22.576 42.994 22.576C42.994 22.576 42.994 22.576 42.994 21.076C42.994 21.076 42.994 21.076 10.561 21.076z"/>
  <path stroke="none" fill="#FFFFFF" d="M8.66 41.896L8.66 52.743 9.374 52.743 7.902 55.128 6.429 52.743 7.15 52.743 7.15 41.896 8.66 41.896z"/>
  <path stroke="#231F20" stroke-width="0.201" stroke-linecap="butt" d="M8.66 41.896L8.66 52.743L9.374 52.743L7.902 55.128L6.429 52.743L7.15 52.743L7.15 41.896L8.66 41.896z"/>
  <path stroke="none" fill="#C6C7C8" d="M90.334 34.759L90.334 31.727 91.046 31.727 89.575 29.341 88.102 31.727 88.822 31.727 88.822 34.759 90.334 34.759z"/>
  <path stroke="none" fill="#FFFFFF" d="M8.66 64.825L8.66 75.674 9.374 75.674 7.902 78.058 6.429 75.674 7.15 75.674 7.15 64.825 8.66 64.825z"/>
  <path stroke="#231F20" stroke-width="0.201" stroke-linecap="butt" d="M8.66 64.825L8.66 75.674L9.374 75.674L7.902 78.058L6.429 75.674L7.15 75.674L7.15 64.825L8.66 64.825z"/>
  <path stroke="none" fill="#00519E" d="M38.393 67.09L38.393 57.793 38.798 57.793 38.13 56.713 37.463 57.793 37.869 57.793 37.869 67.09 38.393 67.09z"/>
  <path stroke="none" fill="#00519E" d="M11.038 33.57L11.038 41.777 10.634 41.777 11.301 42.859 11.97 41.777 11.561 41.777 11.561 33.57 11.038 33.57z"/>
  <path stroke="none" fill="#00519E" d="M11.038 56.502L11.038 64.709 10.634 64.709 11.301 65.79 11.97 64.709 11.561 64.709 11.561 56.502 11.038 56.502z"/>
  <path stroke="none" fill="#00519E" d="M11.038 79.432L11.038 87.64 10.634 87.64 11.301 88.721 11.97 87.64 11.561 87.64 11.561 79.432 11.038 79.432z"/>
  <path stroke="none" fill="#00519E" d="M38.847 26.971L29.55 26.971 29.55 26.567 28.469 27.234 29.55 27.902 29.55 27.495 38.847 27.495 38.847 26.971z"/>
  <path stroke="none" fill="#00519E" d="M46.344 45.093L46.344 43.212 46.749 43.212 46.082 42.131 45.414 43.212 45.822 43.212 45.822 45.093 46.344 45.093z"/>
  <path stroke="none" fill="#00519E" d="M19.559 84.6L27.879 80.456 28.059 80.817 28.73 79.739 27.463 79.623 27.646 79.987 19.324 84.132 19.559 84.6z"/>
  <path stroke="none" fill="#FFFFFF" d="M13.006 96.402C13.006 96.402 13.006 96.402 10.621 94.93 10.621 94.93 10.621 94.93 10.621 95.652 9.573 95.647 8.72 94.793 8.72 93.743 8.72 93.743 8.72 93.743 7.219 93.743 7.219 95.62 8.746 97.147 10.621 97.152 10.621 97.152 10.621 97.152 10.621 97.875 13.006 96.402 13.006 96.402 13.006 96.402z"/>
  <path stroke="#231F20" stroke-width="0.201" stroke-linecap="butt" d="M13.006 96.402C13.006 96.402 13.006 96.402 10.621 94.93C10.621 94.93 10.621 94.93 10.621 95.652C9.573 95.647 8.72 94.793 8.72 93.743C8.72 93.743 8.72 93.743 7.219 93.743C7.219 95.62 8.746 97.147 10.621 97.152C10.621 97.152 10.621 97.152 10.621 97.875C10.621 97.875 10.621 97.875 13.006 96.402z"/>
  <path stroke="none" fill="#00519E" d="M51.384 38.045C51.384 38.045 51.384 38.045 51.384 36.164 51.384 36.164 51.384 36.164 51.787 36.164 51.787 36.164 51.787 36.164 51.121 35.084 51.121 35.084 51.121 35.084 50.453 36.164 50.453 36.164 50.453 36.164 50.86 36.164 50.86 36.164 50.86 36.164 50.86 38.045 50.86 38.621 50.374 38.918 49.89 38.918 49.89 38.918 49.89 38.918 49.143 38.918 49.143 38.918 49.143 38.918 49.143 39.442 49.143 39.442 49.143 39.442 49.89 39.442 50.85 39.442 51.384 38.807 51.384 38.045z"/>
  <path stroke="none" fill="#00519E" d="M10.987 28.399C10.987 28.399 10.987 28.399 10.987 29.123 10.987 29.123 10.987 29.123 10.583 29.123 10.583 29.123 10.583 29.123 11.25 30.204 11.25 30.204 11.25 30.204 11.917 29.123 11.917 29.123 11.917 29.123 11.51 29.123 11.51 29.123 11.51 29.123 11.51 28.399 11.51 27.824 11.996 27.527 12.48 27.527 12.48 27.527 12.48 27.527 13.227 27.527 13.227 27.527 13.227 27.527 13.227 27.004 13.227 27.004 13.227 27.004 12.48 27.004 11.521 27.004 10.987 27.638 10.987 28.399z"/>
  <path stroke="none" fill="#C6C7C8" d="M56.813 40.253C56.813 40.253 56.813 40.253 58.161 40.253 58.161 40.253 58.161 40.253 58.161 39.5 58.161 39.5 58.161 39.5 60.176 40.744 60.176 40.744 60.176 40.744 58.161 41.988 58.161 41.988 58.161 41.988 58.161 41.228 58.161 41.228 58.161 41.228 56.813 41.228 55.738 41.228 55.185 42.137 55.185 43.036 55.185 43.036 55.185 43.036 55.185 44.43 55.185 44.43 55.185 44.43 54.21 44.43 54.21 44.43 54.21 44.43 54.21 43.036 54.21 41.247 55.393 40.253 56.813 40.253z"/>
  <path stroke="none" fill="#C6C7C8" d="M74.275 40.253C74.275 40.253 74.275 40.253 75.623 40.253 75.623 40.253 75.623 40.253 75.623 39.5 75.623 39.5 75.623 39.5 77.64 40.744 77.64 40.744 77.64 40.744 75.623 41.988 75.623 41.988 75.623 41.988 75.623 41.228 75.623 41.228 75.623 41.228 74.275 41.228 73.201 41.228 72.649 42.137 72.649 43.036 72.649 43.036 72.649 43.036 72.649 44.43 72.649 44.43 72.649 44.43 71.671 44.43 71.671 44.43 71.671 44.43 71.671 43.036 71.671 41.247 72.855 40.253 74.275 40.253z"/>
  <path stroke="none" fill="#C6C7C8" d="M91.015 38.625L91.015 38.625C91.015 38.625 91.015 38.625 90.262 38.625 90.262 38.625 90.262 38.625 91.507 37.048 91.507 37.048 91.507 37.048 92.751 38.625 92.751 38.625 92.751 38.625 91.992 38.625 91.992 39.7 92.899 40.253 93.799 40.253 93.799 40.253 93.799 40.253 95.194 40.253 95.194 40.253 95.194 40.253 95.194 41.228 95.194 41.228 95.194 41.228 93.799 41.228 92.01 41.228 91.015 40.045 91.015 38.625z"/>
  <path stroke="none" fill="#C6C7C8" d="M88.12 38.625L88.12 38.625C88.12 38.625 88.12 38.625 88.873 38.625 88.873 38.625 88.873 38.625 87.629 37.048 87.629 37.048 87.629 37.048 86.385 38.625 86.385 38.625 86.385 38.625 87.144 38.625 87.144 39.7 86.236 40.253 85.337 40.253 85.337 40.253 85.337 40.253 83.941 40.253 83.941 40.253 83.941 40.253 83.941 41.228 83.941 41.228 83.941 41.228 85.337 41.228 87.126 41.228 88.12 40.045 88.12 38.625z"/>
  <path stroke="none" fill="#C6C7C8" d="M122.308 40.253C122.308 40.253 122.308 40.253 120.959 40.253 120.959 40.253 120.959 40.253 120.959 39.5 120.959 39.5 120.959 39.5 118.944 40.744 118.944 40.744 118.944 40.744 120.959 41.988 120.959 41.988 120.959 41.988 120.959 41.228 120.959 41.228 120.959 41.228 122.308 41.228 123.382 41.228 123.935 42.137 123.935 43.036 123.935 43.036 123.935 43.036 123.935 44.43 123.935 44.43 123.935 44.43 124.911 44.43 124.911 44.43 124.911 44.43 124.911 43.036 124.911 41.247 123.727 40.253 122.308 40.253z"/>
  <path stroke="none" fill="#C6C7C8" d="M104.846 40.253C104.846 40.253 104.846 40.253 103.496 40.253 103.496 40.253 103.496 40.253 103.496 39.5 103.496 39.5 103.496 39.5 101.48 40.744 101.48 40.744 101.48 40.744 103.496 41.988 103.496 41.988 103.496 41.988 103.496 41.228 103.496 41.228 103.496 41.228 104.846 41.228 105.918 41.228 106.471 42.137 106.471 43.036 106.471 43.036 106.471 43.036 106.471 44.43 106.471 44.43 106.471 44.43 107.448 44.43 107.448 44.43 107.448 44.43 107.448 43.036 107.448 41.247 106.263 40.253 104.846 40.253z"/>
  <path stroke="none" fill="#00519E" d="M49.985 26.971C49.985 26.971 49.985 26.971 49.262 26.971 49.262 26.971 49.262 26.971 49.262 26.567 49.262 26.567 49.262 26.567 48.18 27.234 48.18 27.234 48.18 27.234 49.262 27.902 49.262 27.902 49.262 27.902 49.262 27.495 49.262 27.495 49.262 27.495 49.985 27.495 50.561 27.495 50.857 27.981 50.857 28.464 50.857 28.464 50.857 28.464 50.857 28.804 50.857 28.804 50.857 28.804 51.381 28.804 51.381 28.804 51.381 28.804 51.381 28.464 51.381 27.504 50.746 26.971 49.985 26.971z"/>
  <path stroke="none" fill="#00519E" d="M26.185 19.765L26.185 14.134 26.905 14.134 26.905 19.792 26.185 19.765z"/>
  <path stroke="none" fill="#00519E" d="M26.905 28.152C26.905 28.152 26.905 28.152 26.905 47.959 26.905 49.219 28.027 49.317 28.37 49.317 28.37 49.317 28.37 49.317 34.923 49.317 34.923 49.317 34.923 49.317 34.923 50.037 34.923 50.037 34.923 50.037 28.37 50.037 27.064 50.037 26.185 49.201 26.185 47.959 26.185 47.959 26.185 47.959 26.185 28.152 26.905 28.152 26.905 28.152 26.905 28.152z"/>
  <path stroke="none" fill="#00519E" d="M26.185 26.3L26.185 23.946 26.905 23.946 26.905 26.3 26.185 26.3z"/>
  <path stroke="none" fill="#00519E" d="M5.062 34.003C5.062 34.003 5.062 34.003 4.399 34.003 3.092 34.003 2.214 33.168 2.214 31.925 2.214 31.925 2.214 31.925 2.214 13.82 2.214 12.577 3.092 11.742 4.399 11.742 4.399 11.742 4.399 11.742 21.714 11.742 21.714 11.742 21.714 11.742 21.714 12.461 21.714 12.461 21.714 12.461 4.399 12.461 4.056 12.461 2.935 12.56 2.935 13.82 2.935 13.82 2.935 13.82 2.935 31.925 2.935 33.185 4.056 33.283 4.399 33.283 4.399 33.283 4.399 33.283 5.062 33.283 5.062 34.003 5.062 34.003 5.062 34.003z"/>
  <path stroke="none" fill="#00519E" d="M46.296 26.289L46.296 23.865 45.576 23.865 45.576 26.289 46.296 26.289z"/>
  <path stroke="none" fill="#00519E" d="M45.576 19.792C45.576 19.792 45.576 19.792 45.576 13.82 45.576 12.56 44.456 12.461 44.112 12.461 44.112 12.461 44.112 12.461 43.45 12.461 43.45 12.461 43.45 12.461 43.45 11.742 43.45 11.742 43.45 11.742 44.112 11.742 45.418 11.742 46.296 12.577 46.296 13.82 46.296 13.82 46.296 13.82 46.296 19.792 45.576 19.792 45.576 19.792 45.576 19.792z"/>
  <g>
   <path stroke="none" fill="#C6C7C8" d="M91.992 38.625C91.992 39.554 90.058 41.109 90.058 44.43 90.058 44.43 90.058 44.43 89.082 44.43 89.082 41.109 91.015 39.554 91.015 38.625"/>
  </g>
  <g>
   <path stroke="none" fill="#C6C7C8" d="M87.15 38.625C87.15 39.554 89.082 41.109 89.082 44.43 89.082 44.43 89.082 44.43 90.058 44.43 90.058 41.109 88.126 39.554 88.126 38.625"/>
  </g>
  <path stroke="none" fill="#FFFFFF" d="M82.307 13.391C82.307 11.221 81.251 10.749 80.582 10.749 80.109 10.749 79.498 10.999 79.165 11.528 78.831 12.055 78.164 12.672 77.635 12.672 77.635 12.672 77.635 12.672 73.073 12.672 73.073 12.672 73.073 12.672 73.073 14.172 73.073 14.172 73.073 14.172 77.635 14.172 78.84 14.172 79.896 13.179 80.433 12.329 80.454 12.294 80.543 12.252 80.564 12.243 80.615 12.279 80.807 12.582 80.807 13.391 80.807 13.391 80.807 13.391 80.807 18.67 80.807 19.998 79.727 21.077 78.403 21.077 78.254 21.077 74.274 21.077 69.01 21.077 69.01 21.077 69.01 21.077 69.01 20.356 69.01 20.356 69.01 20.356 66.626 21.827 66.626 21.827 66.626 21.827 69.01 23.3 69.01 23.3 69.01 23.3 69.01 22.576 74.269 22.576 78.248 22.577 78.4 22.577 80.554 22.577 82.307 20.824 82.307 18.67 82.307 18.67 82.307 18.67 82.307 13.393L82.307 13.391z"/>
  <path stroke="#231F20" stroke-width="0.201" stroke-linecap="butt" d="M82.307 13.391C82.307 11.221 81.251 10.749 80.582 10.749C80.109 10.749 79.498 10.999 79.165 11.528C78.831 12.055 78.164 12.672 77.635 12.672C77.635 12.672 77.635 12.672 73.073 12.672C73.073 12.672 73.073 12.672 73.073 14.172C73.073 14.172 73.073 14.172 77.635 14.172C78.84 14.172 79.896 13.179 80.433 12.329C80.454 12.294 80.543 12.252 80.564 12.243C80.615 12.279 80.807 12.582 80.807 13.391C80.807 13.391 80.807 13.391 80.807 18.67C80.807 19.998 79.727 21.077 78.403 21.077C78.254 21.077 74.274 21.077 69.01 21.077C69.01 21.077 69.01 21.077 69.01 20.356C69.01 20.356 69.01 20.356 66.626 21.827C66.626 21.827 66.626 21.827 69.01 23.3C69.01 23.3 69.01 23.3 69.01 22.576C74.269 22.576 78.248 22.577 78.4 22.577C80.554 22.577 82.307 20.824 82.307 18.67C82.307 18.67 82.307 18.67 82.307 13.393L82.307 13.391z"/>
  <path stroke="none" fill="#C6C7C8" d="M95.965 12.708C101.484 12.782 105.748 10.961 108.528 9.028 108.528 9.028 108.528 9.028 108.076 8.464 108.076 8.464 108.076 8.464 110.859 8.13 110.859 8.13 110.859 8.13 109.912 10.766 109.912 10.766 109.912 10.766 109.457 10.196 106.453 12.301 101.87 14.287 95.956 14.208 93.849 14.208 92.596 13.266 91.581 12.507 90.903 12.003 90.37 11.603 89.762 11.603 88.912 11.603 88.414 12.936 88.414 16.307 88.414 17.333 89.295 19.384 89.647 20.518 90.001 21.653 90.334 22.725 90.334 23.699 90.334 23.699 90.334 23.699 90.334 26.731 90.334 26.731 90.334 26.731 88.822 26.731 88.822 26.731 88.822 26.731 88.828 23.699 88.828 22.954 88.534 21.987 88.215 20.964 87.828 19.722 86.914 17.562 86.914 16.307 86.914 14.471 86.891 10.103 89.762 10.103 90.867 10.103 91.686 10.714 92.478 11.305 93.402 11.996 94.356 12.708 95.965 12.708z"/>
  <path stroke-width="0.3" stroke-linejoin="round" d="M89.022 33.259C89.022 32.945 89.277 32.691 89.59 32.691C89.905 32.691 90.159 32.945 90.159 33.259C90.159 33.259 90.159 33.259 90.159 37.426C90.159 37.74 89.905 37.994 89.59 37.994C89.277 37.994 89.022 37.74 89.022 37.426C89.022 37.426 89.022 37.426 89.022 33.259z"/>
  <path stroke="none" fill="#FFFFFF" d="M91.969 24.974C91.969 24.974 91.969 24.974 91.662 26.69 91.662 26.69 91.662 26.69 91.662 26.736 91.662 26.736 91.662 26.736 71.316 26.736 69.335 28.495 67.849 28.303 67.322 28.303 67.322 28.303 67.322 28.303 67.314 27.647 67.314 27.647 67.314 27.647 63.573 27.647 63.573 27.647 63.573 27.647 63.573 29.181 63.573 29.181 63.573 29.181 33.362 29.181 31.687 29.181 30.329 30.539 30.329 32.215 30.329 32.215 30.329 32.215 30.329 67.602 30.329 67.602 30.329 67.602 29.803 67.602 29.803 67.602 29.803 67.602 29.803 71.233 29.803 71.62 30.329 71.78 30.329 72.352 30.329 72.352 30.329 72.352 30.329 83.355 30.329 85.03 31.687 86.388 33.362 86.388 34.255 86.388 34.463 87.406 33.807 88.061 33.807 88.061 33.807 88.061 33.92 88.183 33.92 88.183 33.92 88.183 35.387 86.712 36.468 85.519 39.194 84.129 41.329 83.933 41.789 83.891 41.61 83.766 42.087 83.766L42.087 83.765C42.087 83.765 42.087 83.765 33.362 83.765 33.136 83.765 32.951 83.581 32.951 83.355 32.951 83.355 32.951 83.355 32.951 72.352 32.951 71.78 33.476 71.62 33.476 71.233 33.476 71.233 33.476 71.233 33.476 67.602 33.476 67.602 33.476 67.602 32.951 67.602 32.951 67.602 32.951 67.602 32.951 32.215 32.951 31.987 33.136 31.803 33.362 31.803 33.362 31.803 33.362 31.803 63.573 31.803 63.573 31.803 63.573 31.803 63.573 32.859 63.573 32.859 63.573 32.859 37.718 32.859 36.57 32.859 35.642 33.787 35.642 34.935 35.642 34.935 35.642 34.935 35.642 47.121 35.642 47.121 35.642 47.121 37.436 47.121 37.436 47.121 37.436 47.121 37.436 34.935 37.436 34.78 37.563 34.654 37.718 34.654 37.718 34.654 37.718 34.654 63.573 34.654 63.573 34.654 63.573 34.654 63.573 36.036 63.573 36.036 63.573 36.036 67.314 36.036 67.314 36.036 67.314 36.036 67.322 35.408 67.849 35.408 69.335 35.216 71.316 36.976 71.316 36.976 71.316 36.976 113.216 36.976 115.197 35.216 116.683 35.408 117.21 35.408 117.21 35.408 117.21 35.408 117.218 36.036 117.218 36.036 117.218 36.036 120.959 36.036 120.959 36.036 120.959 36.036 120.959 34.654 120.959 34.654 120.959 34.654 135.18 34.654 135.336 34.654 135.461 34.78 135.461 34.935 135.461 34.935 135.461 34.935 135.461 39.375 135.461 39.767 135.102 39.877 135.102 40.142 135.102 40.142 135.102 40.142 135.102 42.63 135.102 42.63 135.102 42.63 135.461 42.63 135.461 42.63 135.461 42.63 135.461 50.383 135.461 50.539 135.336 50.664 135.18 50.664 135.18 50.664 135.18 50.664 120.501 50.664 120.659 50.664 120.885 50.927 121.037 50.933 122.489 50.993 123.867 51.93 124.516 52.46 124.516 52.46 124.516 52.46 135.18 52.46 136.326 52.46 137.257 51.53 137.257 50.383 137.257 50.383 137.257 50.383 137.257 42.63L137.258 42.63C137.258 42.63 137.258 42.63 137.617 42.63 137.617 42.63 137.617 42.63 137.617 40.142 137.617 39.877 137.258 39.767 137.258 39.375L137.257 39.375C137.257 39.375 137.257 39.375 137.257 34.935 137.257 33.787 136.326 32.859 135.18 32.859 135.18 32.859 135.18 32.859 120.959 32.859 120.668 32.859 120.424 32.616 120.424 32.329 120.424 32.042 120.668 31.803 120.959 31.803 120.959 31.803 120.959 31.803 121.95 31.803 123.174 31.803 124.168 30.809 124.168 29.585 124.168 28.492 123.379 27.585 122.34 27.4 122.34 27.4 122.34 27.4 120.939 27.152 120.939 27.152 120.939 27.152 120.09 27.001 120.09 27.001 120.09 27.001 119.34 26.867 118.944 26.789 118.697 27.144 118.274 27.068 118.274 27.068 118.274 27.068 95.019 22.905 94.868 22.879 94.712 22.864 94.554 22.864 93.278 22.864 92.213 23.771 91.969 24.974 91.969 24.974 91.969 24.974 94.003 25.39 94.055 25.135 94.281 24.943 94.554 24.943 94.588 24.943 94.621 24.946 94.655 24.951 94.655 24.951 94.655 24.951 104.578 26.728L104.578 26.736C104.578 26.736 104.578 26.736 93.769 26.736 93.769 26.736 93.769 26.736 93.769 26.696 93.769 26.696 93.769 26.696 94.003 25.39 91.969 24.974 91.969 24.974 91.969 24.974z"/>
  <path stroke="#231F20" stroke-width="0.3" stroke-linejoin="round" d="M42.088 83.766C42.088 83.766 42.088 83.766 33.362 83.766C33.134 83.766 32.951 83.581 32.951 83.355C32.951 83.355 32.951 83.355 32.951 72.352C32.951 71.78 33.476 71.618 33.476 71.233C33.476 71.233 33.476 71.233 33.476 67.602C33.476 67.602 33.476 67.602 32.951 67.602C32.951 67.602 32.951 67.602 32.951 32.215C32.951 31.987 33.134 31.804 33.362 31.804C33.362 31.804 33.362 31.804 63.573 31.804C63.573 31.804 63.573 31.804 63.573 32.859C63.573 32.859 63.573 32.859 37.718 32.859C36.57 32.859 35.642 33.789 35.642 34.935C35.642 34.935 35.642 34.935 35.642 46.908"/>
  <path stroke-width="0.3" stroke-linejoin="round" d="M33.807 88.061C34.462 87.406 34.256 86.388 33.362 86.388C31.687 86.388 30.329 85.03 30.329 83.355C30.329 83.355 30.329 83.355 30.329 72.352C30.329 71.781 29.803 71.62 29.803 71.233C29.803 71.233 29.803 71.233 29.803 67.602C29.803 67.602 29.803 67.602 30.329 67.602C30.329 67.602 30.329 67.602 30.329 32.215C30.329 30.539 31.687 29.181 33.362 29.181C33.362 29.181 33.362 29.181 63.573 29.181C63.573 29.181 63.573 29.181 63.573 27.647C63.573 27.647 63.573 27.647 67.314 27.647C67.314 27.647 67.314 27.647 67.322 28.304C67.849 28.304 69.335 28.495 71.316 26.736C71.316 26.736 71.316 26.736 107.138 26.736"/>
  <path stroke-width="0.3" stroke-linejoin="round" d="M120.716 50.664C120.716 50.664 120.716 50.664 135.18 50.664C135.336 50.664 135.461 50.539 135.461 50.383C135.461 50.383 135.461 50.383 135.461 42.63C135.461 42.63 135.461 42.63 135.1 42.63C135.1 42.63 135.1 42.63 135.1 40.14C135.1 39.877 135.461 39.767 135.461 39.375C135.461 39.375 135.461 39.375 135.461 34.936C135.461 34.78 135.336 34.654 135.18 34.654C135.18 34.654 135.18 34.654 120.959 34.654C120.959 34.654 120.959 34.654 120.959 36.036C120.959 36.036 120.959 36.036 117.218 36.036C117.218 36.036 117.218 36.036 117.21 35.408C116.683 35.408 115.197 35.216 113.216 36.976C113.216 36.976 113.216 36.976 71.316 36.976C69.335 35.216 67.849 35.408 67.322 35.408C67.322 35.408 67.322 35.408 67.314 36.036C67.314 36.036 67.314 36.036 63.573 36.036C63.573 36.036 63.573 36.036 63.573 34.654C63.573 34.654 63.573 34.654 37.718 34.654C37.563 34.654 37.436 34.78 37.436 34.936C37.436 34.936 37.436 34.936 37.436 46.911"/>
  <path stroke-width="0.3" stroke-linejoin="round" d="M120.09 27.001C120.09 27.001 120.09 27.001 119.34 26.867C118.944 26.789 118.697 27.144 118.275 27.068C118.275 27.068 118.275 27.068 95.019 22.905C94.868 22.879 94.712 22.864 94.554 22.864C93.278 22.864 92.213 23.771 91.968 24.974C91.968 24.974 91.968 24.974 91.662 26.69"/>
  <path stroke-width="0.3" stroke-linejoin="round" d="M124.665 52.46C124.665 52.46 124.665 52.46 135.18 52.46C136.328 52.46 137.257 51.53 137.257 50.383C137.257 50.383 137.257 50.383 137.257 42.63L137.258 42.63C137.258 42.63 137.258 42.63 137.618 42.63C137.618 42.63 137.618 42.63 137.618 40.14C137.618 39.877 137.258 39.767 137.258 39.375L137.257 39.375C137.257 39.375 137.257 39.375 137.257 34.936C137.257 33.789 136.328 32.859 135.18 32.859C135.18 32.859 135.18 32.859 120.959 32.859C120.668 32.859 120.424 32.616 120.424 32.328C120.424 32.042 120.668 31.803 120.959 31.803C120.959 31.803 120.959 31.803 121.95 31.803C123.174 31.803 124.168 30.809 124.168 29.585C124.168 28.492 123.379 27.585 122.338 27.4C122.338 27.4 122.338 27.4 120.939 27.152"/>
  <path stroke-width="0.3" stroke-linejoin="round" d="M104.578 26.728C104.578 26.728 104.578 26.728 94.655 24.951C94.621 24.946 94.588 24.942 94.554 24.942C94.281 24.942 94.055 25.135 94.003 25.39C94.003 25.39 94.003 25.39 93.769 26.696"/>
  <path stroke-width="0.3" stroke-linejoin="round" d="M122.406 22.814C122.771 22.975 122.938 23.402 122.777 23.768C122.615 24.132 122.188 24.298 121.822 24.138C121.456 23.977 121.29 23.55 121.451 23.184C121.614 22.818 122.04 22.652 122.406 22.814z"/>
  <path stroke-width="0.3" stroke-linejoin="round" d="M120.272 28.582C120.272 28.582 120.272 28.582 121.954 24.763C122.51 24.83 123.069 24.539 123.307 24.001C123.596 23.343 123.296 22.574 122.64 22.283C121.981 21.993 121.212 22.292 120.923 22.951C120.685 23.489 120.846 24.099 121.272 24.461C121.272 24.461 121.272 24.461 119.59 28.282"/>
  <path stroke-width="0.3" stroke-linejoin="round" d="M119.727 28.923C120.091 29.083 120.257 29.51 120.097 29.876C119.936 30.242 119.509 30.408 119.144 30.246C118.778 30.085 118.611 29.658 118.772 29.292C118.933 28.928 119.361 28.76 119.727 28.923z"/>
  <path stroke-width="0.3" stroke-linejoin="round" d="M120.626 30.109C120.917 29.452 120.617 28.682 119.959 28.393C119.302 28.103 118.533 28.402 118.242 29.059C117.953 29.718 118.251 30.486 118.909 30.777C119.567 31.065 120.337 30.768 120.626 30.109z"/>
  <path stroke="#FFFFFF" stroke-width="0.501" d="M108.233 27.885L114.024 18.679"/>
  <path stroke-width="0.131" d="M108.233 27.885L114.024 18.679"/>
  <path stroke="#FFFFFF" stroke-width="0.501" d="M122.668 22.147L124.004 19.176"/>
  <path stroke-width="0.131" d="M122.668 22.147L124.004 19.176"/>
  <path stroke="none" fill="#C6C7C8" d="M51.845 83.766C51.845 83.766 51.845 83.766 49.651 83.766 51.792 83.685 53.506 81.927 53.506 79.766 53.506 79.766 53.506 79.766 52.27 79.766 52.27 79.766 52.27 79.766 54.825 76.808 54.825 76.808 55.256 81.894 51.845 83.766z"/>
  <path stroke-width="0.3" stroke-linejoin="round" d="M57.378 79.766C57.378 79.766 57.378 79.766 54.825 76.808C54.825 76.808 54.825 76.808 52.27 79.766C52.27 79.766 52.27 79.766 53.506 79.766C53.506 81.927 51.792 83.685 49.651 83.766C49.651 83.766 49.651 83.766 42.088 83.766"/>
  <path stroke="none" fill="#C6C7C8" d="M69.228 83.766C69.228 83.766 69.228 83.766 67.034 83.766 69.176 83.685 70.89 81.927 70.89 79.766 70.89 79.766 70.89 79.766 69.653 79.766 69.653 79.766 69.653 79.766 72.207 76.808 72.207 76.808 72.638 81.894 69.228 83.766z"/>
  <path stroke-width="0.3" stroke-linejoin="round" d="M74.762 79.766C74.762 79.766 74.762 79.766 72.207 76.808C72.207 76.808 72.207 76.808 69.653 79.766C69.653 79.766 69.653 79.766 70.89 79.766C70.89 81.927 69.176 83.685 67.034 83.766C67.034 83.766 67.034 83.766 65.453 83.766"/>
  <path stroke="none" fill="#C6C7C8" d="M86.611 83.766C86.611 83.766 86.611 83.766 84.417 83.766 86.558 83.685 88.272 81.927 88.272 79.766 88.272 79.766 88.272 79.766 87.036 79.766 87.036 79.766 87.036 79.766 89.59 76.808 89.59 76.808 90.022 81.894 86.611 83.766z"/>
  <path stroke-width="0.3" stroke-linejoin="round" d="M92.146 79.766C92.146 79.766 92.146 79.766 89.59 76.808C89.59 76.808 89.59 76.808 87.037 79.766C87.037 79.766 87.037 79.766 88.272 79.766C88.272 81.927 86.558 83.685 84.417 83.766C84.417 83.766 84.417 83.766 76.853 83.766"/>
  <path stroke="none" fill="#C6C7C8" d="M103.995 83.766C103.995 83.766 103.995 83.766 101.799 83.766 103.941 83.685 105.656 81.927 105.656 79.766 105.656 79.766 105.656 79.766 104.418 79.766 104.418 79.766 104.418 79.766 106.974 76.808 106.974 76.808 107.405 81.894 103.995 83.766z"/>
  <path stroke-width="0.3" stroke-linejoin="round" d="M109.528 79.766C109.528 79.766 109.528 79.766 106.974 76.808C106.974 76.808 106.974 76.808 104.42 79.766C104.42 79.766 104.42 79.766 105.656 79.766C105.656 81.927 103.941 83.685 101.799 83.766C101.799 83.766 101.799 83.766 94.236 83.766"/>
  <path stroke="none" fill="#C6C7C8" d="M121.359 83.766C121.359 83.766 121.359 83.766 119.165 83.766 121.307 83.685 123.021 81.927 123.021 79.766 123.021 79.766 123.021 79.766 121.784 79.766 121.784 79.766 121.784 79.766 124.338 76.808 124.338 76.808 124.769 81.894 121.359 83.766z"/>
  <path stroke-width="0.3" stroke-linejoin="round" d="M126.893 79.766C126.893 79.766 126.893 79.766 124.338 76.808C124.338 76.808 124.338 76.808 121.784 79.766C121.784 79.766 121.784 79.766 123.021 79.766C123.021 81.927 121.307 83.685 119.165 83.766C119.165 83.766 119.165 83.766 117.783 83.766"/>
  <path stroke-width="0.3" stroke-linejoin="round" d="M120.424 32.329L63.615 32.329"/>
  <path stroke="none" fill="#00519E" d="M36.268 34.927C36.268 34.927 36.268 34.927 36.268 38.536 36.268 38.536 36.268 38.536 35.865 38.536 35.865 38.536 35.865 38.536 36.533 39.616 36.533 39.616 36.533 39.616 37.2 38.536 37.2 38.536 37.2 38.536 36.792 38.536 36.792 38.536 36.792 38.536 36.792 34.927 36.792 34.351 37.28 34.054 37.762 34.054 37.762 34.054 37.762 34.054 40.948 34.054 40.948 34.054 40.948 34.054 40.948 33.53 40.948 33.53 40.948 33.53 37.762 33.53 36.802 33.53 36.268 34.167 36.268 34.927z"/>
  <path stroke="none" fill="#00519E" d="M83.915 33.479L57.139 33.479 57.139 33.076 56.058 33.743 57.139 34.411 57.139 34.003 83.915 34.003 83.915 33.479z"/>
  <path stroke="none" fill="#00519E" d="M122.545 33.479L95.769 33.479 95.769 33.076 94.688 33.743 95.769 34.411 95.769 34.003 122.545 34.003 122.545 33.479z"/>
  <path stroke="none" fill="#00519E" d="M135.195 33.475C135.195 33.475 135.195 33.475 134.472 33.475 134.472 33.475 134.472 33.475 134.472 33.07 134.472 33.07 134.472 33.07 133.39 33.738 133.39 33.738 133.39 33.738 134.472 34.405 134.472 34.405 134.472 34.405 134.472 33.999 134.472 33.999 134.472 33.999 135.195 33.999 135.771 33.999 136.068 34.484 136.068 34.968 136.068 34.968 136.068 34.968 136.068 40.749 136.068 40.749 136.068 40.749 136.592 40.749 136.592 40.749 136.592 40.749 136.592 34.968 136.592 34.009 135.956 33.475 135.195 33.475z"/>
  <path stroke="none" fill="#00519E" d="M136.628 50.39C136.628 50.39 136.628 50.39 136.628 47.18 136.628 47.18 136.628 47.18 137.032 47.18 137.032 47.18 137.032 47.18 136.366 46.098 136.366 46.098 136.366 46.098 135.698 47.18 135.698 47.18 135.698 47.18 136.104 47.18 136.104 47.18 136.104 47.18 136.104 50.39 136.104 50.966 135.618 51.262 135.135 51.262 135.135 51.262 135.135 51.262 125.602 51.262 125.602 51.262 125.602 51.262 125.602 51.786 125.602 51.786 125.602 51.786 135.135 51.786 136.094 51.786 136.628 51.151 136.628 50.39z"/>
  <path stroke="none" fill="#C6C7C8" d="M31.138 32.582C31.138 32.582 31.138 32.582 31.138 38.265 31.138 38.265 31.138 38.265 30.567 38.262 30.567 38.262 30.567 38.262 31.631 39.984 31.631 39.984 31.631 39.984 32.694 38.262 32.694 38.262 32.694 38.262 32.115 38.265 32.115 38.265 32.115 38.265 32.115 32.582 32.115 31.509 33.023 30.955 33.923 30.955 33.923 30.955 33.923 30.955 41.67 30.955 41.67 30.955 41.67 30.955 41.67 29.978 41.67 29.978 41.67 29.978 33.923 29.978 32.134 29.978 31.138 31.164 31.138 32.582z"/>
  <path stroke="none" fill="#C6C7C8" d="M31.138 63.509L31.138 69.192 30.567 69.189 31.631 70.911 32.694 69.189 32.115 69.192 32.115 63.509 31.138 63.509z"/>
  <path stroke="none" fill="#C6C7C8" d="M33.719 85.596C33.719 85.596 33.719 85.596 35.506 85.596 35.506 85.596 35.506 85.596 35.511 86.167 35.511 86.167 35.511 86.167 37.232 85.103 37.232 85.103 37.232 85.103 35.511 84.04 35.511 84.04 35.511 84.04 35.506 84.62 35.506 84.62 35.506 84.62 33.719 84.62 32.646 84.62 32.093 83.712 32.093 82.811 32.093 82.811 32.093 82.811 32.093 80.412 32.093 80.412 32.093 80.412 31.115 80.412 31.115 80.412 31.115 80.412 31.115 82.811 31.115 84.6 32.301 85.596 33.719 85.596z"/>
  <path stroke="none" fill="#C6C7C8" d="M83.871 29.98L56.975 29.98 56.979 29.408 55.258 30.471 56.979 31.533 56.975 30.955 83.871 30.955 83.871 29.98z"/>
  <path stroke="none" fill="#C6C7C8" d="M107.861 29.98L95.957 29.98 95.962 29.408 94.239 30.471 95.962 31.533 95.957 30.955 107.861 30.955 107.861 29.98z"/>
  <path stroke="none" fill="#C6C7C8" d="M95.031 23.521C95.031 23.521 95.031 23.521 101.819 24.736 101.819 24.736 101.819 24.736 101.908 24.285 101.908 24.285 101.908 24.285 103.123 25.37 103.123 25.37 103.123 25.37 101.608 25.972 101.608 25.972 101.608 25.972 101.682 25.512 101.682 25.512 101.682 25.512 94.893 24.295 94.042 24.144 93.474 24.786 93.347 25.501 93.221 26.214 93.164 26.522 93.164 26.522 93.164 26.522 93.164 26.522 92.39 26.385 92.39 26.385 92.447 26.077 92.573 25.362 92.825 23.945 93.906 23.321 95.031 23.521z"/>
  <path stroke="none" fill="#C6C7C8" d="M113.106 30.762C113.106 30.762 113.106 30.762 113.102 31.222 113.102 31.222 113.102 31.222 111.718 30.361 111.718 30.361 111.718 30.361 113.108 29.51 113.108 29.51 113.108 29.51 113.108 29.975 113.108 29.975 113.108 29.975 114.596 29.969 115.397 29.969 115.962 29.682 115.998 29.256 116.048 28.699 115.23 27.954 113.618 27.667 113.618 27.667 113.618 27.667 109.762 26.974 109.762 26.974 109.762 26.974 109.903 26.187 109.903 26.187 109.903 26.187 113.76 26.881 115.971 27.274 116.879 28.391 116.796 29.326 116.737 29.992 116.126 30.768 114.596 30.768 113.106 30.762 113.106 30.762 113.106 30.762z"/>
  <path stroke="none" fill="#00519E" d="M27.364 53.594C27.364 53.594 27.364 53.594 28.088 53.594 28.088 53.594 28.088 53.594 28.088 53.189 28.088 53.189 28.088 53.189 29.169 53.857 29.169 53.857 29.169 53.857 28.088 54.526 28.088 54.526 28.088 54.526 28.088 54.118 28.088 54.118 28.088 54.118 27.364 54.118 26.789 54.118 26.492 54.604 26.492 55.088 26.492 55.088 26.492 55.088 26.492 55.835 26.492 55.835 26.492 55.835 25.969 55.835 25.969 55.835 25.969 55.835 25.969 55.088 25.969 54.128 26.603 53.594 27.364 53.594z"/>
 </g>
 <g id="Standard_x0020_layer">
  <path stroke-width="0.3" stroke-linejoin="round" d="M12.916 89.677C12.916 90.125 12.553 90.489 12.105 90.489C12.105 90.489 12.105 90.489 5.878 90.489C5.431 90.489 5.067 90.125 5.067 89.677C5.067 89.677 5.067 89.677 5.067 31.801C5.067 31.353 5.431 30.99 5.878 30.99C5.878 30.99 5.878 30.99 12.105 30.99C12.553 30.99 12.916 31.353 12.916 31.801C12.916 31.801 12.916 31.801 12.916 89.677z"/>
  <path stroke-width="0.3" stroke-linejoin="round" d="M17.574 53.847C17.574 53.847 17.574 53.847 18.708 46.993C18.708 46.993 18.708 46.993 21.196 45.421C21.196 47.125 22.42 50.006 23.686 51.402"/>
  <path stroke-width="0.3" stroke-linejoin="round" d="M17.574 60.006C17.574 60.006 17.574 60.006 18.708 56.417C18.708 56.417 18.708 56.417 21.196 55.201C21.589 56.073 22.899 56.869 23.686 57.209"/>
  <path stroke-width="0.3" stroke-linejoin="round" d="M17.574 65.328C17.574 65.328 17.574 65.328 18.708 68.918C18.708 68.918 18.708 68.918 21.196 67.512C21.589 66.638 22.899 61.869 23.686 61.53"/>
  <path stroke-width="0.3" stroke-linejoin="round" d="M17.574 69.171C17.574 69.171 17.574 69.171 18.708 76.373C18.708 76.373 18.708 76.373 21.196 74.453C21.196 72.4 22.42 69.519 23.686 68.123"/>
  <path stroke-width="0.3" stroke-linejoin="round" d="M23.686 70.174C22.42 71.408 21.196 77.055 21.196 78.557C21.196 78.557 21.196 78.557 18.708 78.557C18.708 78.557 18.708 78.557 17.574 71.123C17.574 71.123 17.574 71.123 16.614 71.123C16.614 71.123 16.614 71.123 16.614 67.992C16.614 67.992 16.614 67.992 16.045 67.992C16.045 67.992 16.045 67.992 16.045 53.585C16.045 53.585 16.045 53.585 16.614 53.585C16.614 53.585 16.614 53.585 16.614 50.454C16.614 50.454 16.614 50.454 17.574 50.454C17.574 50.454 17.574 50.454 18.708 43.021C18.708 43.021 18.708 43.021 21.196 43.021C21.196 44.523 22.42 50.17 23.686 51.402C23.686 51.402 23.686 51.402 23.686 70.174z"/>
  <path stroke-width="0.131" stroke-linejoin="round" d="M23.074 52.276C21.545 53.978 18.971 55.594 17.966 56.03"/>
  <path stroke-width="0.131" stroke-linejoin="round" d="M23.423 57.47C21.547 59.216 17.792 60.396 17.792 60.396"/>
  <path stroke-width="0.131" stroke-linejoin="round" d="M23.336 61.487C20.847 62.273 17.835 65.066 17.835 65.066"/>
  <path stroke-width="0.131" stroke-linejoin="round" d="M16.612 53.585L16.612 67.992"/>
  <path stroke-width="0.131" stroke-linejoin="round" d="M17.574 50.454L17.574 71.123"/>
  <path stroke-width="0.3" stroke-linejoin="round" d="M37.206 58.475L23.728 58.475"/>
  <path stroke-width="0.3" stroke-linejoin="round" d="M44.07 58.475L39.067 58.475"/>
  <path stroke-width="0.3" stroke-linejoin="round" d="M37.206 63.101L23.728 63.101"/>
  <path stroke-width="0.3" stroke-linejoin="round" d="M44.07 63.101L39.067 63.101"/>
  <path stroke-width="0.3" stroke-linejoin="round" d="M37.576 54.015L38.581 55.02L39.99 55.02L39.99 47.99L38.581 47.99L37.576 48.994L37.576 54.015z"/>
  <path stroke-width="0.3" stroke-linejoin="round" d="M37.6 53.591L38.604 54.213L39.345 54.213"/>
  <path stroke-width="0.3" stroke-linejoin="round" d="M37.578 51.529L39.307 51.529"/>
  <path stroke-width="0.3" stroke-linejoin="round" d="M37.578 52.222L38.557 52.39L39.307 52.39"/>
  <path stroke-width="0.3" stroke-linejoin="round" d="M37.578 52.915L38.557 53.25L39.338 53.25"/>
  <path stroke-width="0.3" stroke-linejoin="round" d="M37.6 49.454L38.604 48.832L39.345 48.832"/>
  <path stroke-width="0.3" stroke-linejoin="round" d="M37.578 50.822L38.557 50.655L39.307 50.655"/>
  <path stroke-width="0.3" stroke-linejoin="round" d="M37.578 50.128L38.557 49.795L39.338 49.795"/>
  <path stroke-width="0.3" stroke-linejoin="round" d="M42.634 10.073C42.634 10.073 42.634 10.073 34.718 10.073C34.569 9.912 34.5 9.762 34.5 9.634C34.5 9.634 34.5 9.634 34.5 9.287C34.5 9.287 34.5 9.287 35.03 9.287C35.03 9.287 35.03 9.287 35.03 9.101C35.03 9.101 35.03 9.101 34.975 9.048C34.975 9.048 34.975 9.048 34.975 8.249C34.975 8.009 34.82 7.862 34.569 7.849C34.317 7.836 33.436 7.743 32.584 7.743C31.731 7.743 30.85 7.836 30.599 7.849C30.347 7.862 30.193 8.009 30.193 8.249C30.193 8.249 30.193 8.249 30.193 9.048C30.193 9.048 30.193 9.048 30.137 9.101C30.137 9.101 30.137 9.101 30.137 9.287C30.137 9.287 30.137 9.287 30.667 9.287C30.667 9.287 30.667 9.287 30.667 9.634C30.667 9.762 30.599 9.912 30.449 10.073C30.449 10.073 30.449 10.073 22.527 10.073C22.079 10.073 21.714 10.435 21.714 10.884C21.714 10.884 21.714 10.884 21.714 13.317C21.714 13.766 22.079 14.13 22.527 14.13C22.527 14.13 22.527 14.13 42.634 14.13C43.084 14.13 43.447 13.766 43.447 13.317C43.447 13.317 43.447 13.317 43.447 10.884C43.447 10.435 43.084 10.073 42.634 10.073z"/>
  <path stroke-width="0.3" stroke-linejoin="round" d="M12.112 30.989C12.112 30.989 12.112 30.989 12.112 28.399C12.112 28.243 12.237 28.117 12.393 28.117C12.393 28.117 12.393 28.117 49.938 28.118C50.094 28.118 50.219 28.245 50.219 28.399C50.219 28.399 50.219 28.399 50.219 38.037C50.219 38.192 50.094 38.319 49.938 38.319C49.938 38.319 49.938 38.319 49.143 38.319C49.143 38.319 49.143 38.319 49.143 36.329C49.143 36.329 49.143 36.329 43.325 36.329C43.325 36.329 43.325 36.329 43.325 38.319C43.325 38.319 43.325 38.319 40.694 38.319C39.546 38.319 38.616 39.249 38.616 40.395C38.616 40.395 38.616 40.395 38.618 46.911"/>
  <path stroke-width="0.3" stroke-linejoin="round" d="M48.119 38.167L47.468 38.167L47.468 37.429L46.506 37.429L46.506 38.741L44.329 38.741L44.329 37.429L43.482 37.429L43.482 38.741L42.704 38.741L42.704 39.646L43.482 39.646L43.482 40.96L44.329 40.96L44.329 39.646L46.506 39.646L46.506 40.96L47.468 40.96L47.468 40.22L48.119 40.22L48.119 38.167z"/>
  <path stroke-width="0.131" stroke-linejoin="round" d="M43.482 38.741L43.482 39.646"/>
  <path stroke-width="0.131" stroke-linejoin="round" d="M44.329 38.741L44.329 39.646"/>
  <path stroke-width="0.131" stroke-linejoin="round" d="M46.506 38.741L46.506 39.646"/>
  <path stroke-width="0.131" stroke-linejoin="round" d="M47.468 38.167L47.468 40.22"/>
  <path stroke-width="0.3" stroke-linejoin="round" d="M37.234 56.119C37.234 56.119 37.234 56.119 37.234 74.352C37.234 74.459 37.174 74.551 37.088 74.597C37.088 74.597 37.088 74.597 12.933 86.597"/>
  <path stroke-width="0.3" stroke-linejoin="round" d="M12.948 88.594C12.948 88.594 12.948 88.594 37.863 76.218C38.554 75.881 39.029 75.171 39.029 74.352C39.029 74.352 39.029 74.352 39.029 56.121"/>
  <path stroke-width="0.3" stroke-linejoin="round" d="M68.881 45.012L68.881 44.359L69.911 43.981L69.911 42.676L57.142 42.676L57.142 43.981L58.173 44.359L58.173 45.012L68.881 45.012z"/>
  <path stroke-width="0.3" stroke-linejoin="round" d="M86.286 45.012L86.286 44.359L87.316 43.981L87.316 42.676L74.548 42.676L74.548 43.981L75.578 44.359L75.578 45.012L86.286 45.012z"/>
  <path stroke-width="0.3" stroke-linejoin="round" d="M44.122 50.738C44.122 50.738 44.122 50.738 44.122 45.018C44.122 45.018 44.122 45.018 44.942 45.012C44.942 45.012 44.942 45.012 44.942 42.06C44.942 42.06 44.942 42.06 43.325 42.06C43.325 42.06 43.325 42.06 43.325 40.095C43.325 40.095 43.325 40.095 40.694 40.095C40.539 40.095 40.412 40.222 40.412 40.377C40.412 40.377 40.412 40.377 40.412 46.911"/>
  <path stroke-width="0.3" stroke-linejoin="round" d="M53.155 81.35L44.122 81.35L44.122 53.304"/>
  <path stroke-width="0.3" stroke-linejoin="round" d="M70.534 81.35L55.999 81.35"/>
  <path stroke-width="0.3" stroke-linejoin="round" d="M87.915 81.35L73.379 81.35"/>
  <path stroke-width="0.3" stroke-linejoin="round" d="M105.304 81.35L90.73 81.35"/>
  <path stroke-width="0.3" stroke-linejoin="round" d="M122.644 81.35L108.118 81.35"/>
  <path stroke-width="0.3" stroke-linejoin="round" d="M127.668 45.018L133.45 45.018L133.45 81.35L125.48 81.35"/>
  <path stroke-width="0.3" stroke-linejoin="round" d="M110.263 45.012L110.263 44.359L109.233 43.981L109.233 42.676L122.003 42.676L122.003 43.981L120.971 44.359L120.971 45.012L110.263 45.012z"/>
  <path stroke-width="0.3" stroke-linejoin="round" d="M92.858 45.012L92.858 44.359L91.828 43.981L91.828 42.676L104.596 42.676L104.596 43.981L103.566 44.359L103.566 45.012L92.858 45.012z"/>
  <path stroke-width="0.3" stroke-linejoin="round" d="M20.905 98.572C20.905 98.572 20.905 98.572 21.612 98.572C21.612 98.572 21.612 98.572 21.612 98.426C21.612 98.426 25.937 98.429 26.6 98.429C28.309 98.429 29.859 97.724 30.981 96.602C30.981 96.602 30.981 96.602 40.566 87.016C40.954 86.628 41.493 86.387 42.088 86.387L42.088 86.388C42.088 86.388 42.088 86.388 60.453 86.388C60.453 86.388 60.453 86.388 60.453 86.912C60.453 86.912 60.453 86.912 64.084 86.912C64.471 86.912 64.632 86.388 65.203 86.388C65.203 86.388 65.203 86.388 112.609 86.388C112.609 86.388 112.609 86.388 112.609 86.912C112.609 86.912 112.609 86.912 116.242 86.912C116.626 86.912 116.789 86.388 117.361 86.388C117.361 86.388 117.361 86.388 119.025 86.382C122.68 86.382 125.644 83.42 125.644 79.766C125.644 79.766 125.644 79.766 126.893 79.766C126.893 79.766 126.893 79.766 124.338 76.81C124.338 76.81 124.338 76.81 121.784 79.766C121.784 79.766 121.784 79.766 123.021 79.766C123.021 81.978 121.227 83.772 119.015 83.772C119.015 83.772 119.015 83.772 117.361 83.765L117.361 83.766C116.789 83.766 116.626 83.239 116.242 83.239C116.242 83.239 116.242 83.239 112.609 83.239C112.609 83.239 112.609 83.239 112.609 83.765C112.609 83.765 112.609 83.765 106.924 83.765C107.771 82.653 108.278 81.271 108.278 79.766C108.278 79.766 108.278 79.766 109.528 79.766C109.528 79.766 109.528 79.766 106.974 76.81C106.974 76.81 106.974 76.81 104.42 79.766C104.42 79.766 104.42 79.766 105.656 79.766C105.656 81.927 103.941 83.686 101.799 83.765C101.799 83.765 101.799 83.765 89.54 83.765C90.387 82.653 90.896 81.271 90.896 79.766C90.896 79.766 90.896 79.766 92.144 79.766C92.144 79.766 92.144 79.766 89.59 76.81C89.59 76.81 89.59 76.81 87.036 79.766C87.036 79.766 87.036 79.766 88.272 79.766C88.272 81.927 86.558 83.686 84.418 83.765C84.418 83.765 84.418 83.765 72.158 83.765C73.004 82.653 73.512 81.271 73.512 79.766C73.512 79.766 73.512 79.766 74.762 79.766C74.762 79.766 74.762 79.766 72.207 76.81C72.207 76.81 72.207 76.81 69.653 79.766C69.653 79.766 69.653 79.766 70.89 79.766C70.89 81.927 69.176 83.686 67.034 83.765C67.034 83.765 67.034 83.765 65.203 83.765L65.203 83.766C64.632 83.766 64.471 83.239 64.084 83.239C64.084 83.239 64.084 83.239 60.453 83.239C60.453 83.239 60.453 83.239 60.453 83.765C60.453 83.765 60.453 83.765 54.774 83.765C55.621 82.653 56.128 81.271 56.128 79.766C56.128 79.766 56.128 79.766 57.378 79.766C57.378 79.766 57.378 79.766 54.825 76.81C54.825 76.81 54.825 76.81 52.27 79.766C52.27 79.766 52.27 79.766 53.506 79.766C53.506 81.927 51.792 83.686 49.651 83.765C49.651 83.765 49.651 83.765 42.088 83.765"/>
  <path stroke-width="0.3" stroke-linejoin="round" d="M5.945 90.567C5.945 90.567 5.945 90.567 5.945 93.743C5.945 96.329 8.042 98.426 10.628 98.426C10.628 98.426 10.628 98.426 14.644 98.426C14.644 98.426 14.644 98.426 14.644 98.572C14.644 98.572 14.644 98.572 15.352 98.572"/>
  <path stroke-width="0.3" stroke-linejoin="round" d="M15.352 94.23C15.352 94.23 15.352 94.23 14.644 94.23C14.644 94.23 14.644 94.23 14.644 94.378C14.644 94.378 14.644 94.378 10.628 94.378C10.278 94.378 9.994 94.093 9.994 93.743C9.994 93.743 9.994 93.743 9.994 90.567"/>
  <path stroke-width="0.3" stroke-linejoin="round" d="M42.088 83.766C39.426 83.766 37.015 84.843 35.273 86.587C35.273 86.587 35.273 86.587 28.12 93.748C27.731 94.137 27.193 94.378 26.6 94.378C26.6 94.378 26.6 94.378 21.612 94.378C21.612 94.378 21.612 94.378 21.612 94.23C21.612 94.23 21.612 94.23 20.905 94.23"/>
  <path stroke-width="0.131" stroke-linejoin="round" d="M90.551 20.806L86.263 20.806"/>
  <path stroke-width="0.3" stroke-linejoin="round" d="M55.003 7.158C60.649 14.441 68.263 17.024 73.069 17.024C73.069 17.024 73.069 17.024 77.25 17.024C77.25 17.024 77.25 17.024 77.25 17.599C77.25 17.599 77.25 17.599 78.046 17.599C78.046 17.599 78.046 17.599 78.046 18.67L78.045 18.67C78.045 19.297 77.537 19.806 76.909 19.806L76.909 19.8C76.248 19.8 20.503 19.803 20.503 19.803C20.503 19.803 20.503 19.803 20.503 19.655C20.503 19.655 20.503 19.655 19.795 19.655C19.495 19.655 19.408 19.425 19.408 19.425C19.408 19.425 19.21 18.936 19.155 18.794C19.1 18.65 18.989 18.556 18.87 18.556C18.751 18.556 18.64 18.65 18.585 18.794C18.53 18.936 18.332 19.425 18.332 19.425C18.332 19.425 18.245 19.655 17.945 19.655C17.643 19.655 17.556 19.425 17.556 19.425C17.556 19.425 17.359 18.936 17.303 18.794C17.248 18.65 17.138 18.556 17.018 18.556C16.9 18.556 16.789 18.65 16.734 18.794C16.678 18.936 16.481 19.425 16.481 19.425C16.481 19.425 16.394 19.655 16.094 19.655C15.792 19.655 15.705 19.425 15.705 19.425C15.705 19.425 15.509 18.936 15.452 18.794C15.397 18.65 15.287 18.556 15.169 18.556C15.05 18.556 14.939 18.65 14.884 18.794C14.829 18.936 14.631 19.425 14.631 19.425C14.631 19.425 14.544 19.655 14.243 19.655C14.243 19.655 14.243 19.655 13.535 19.655C13.535 19.655 13.535 19.655 13.535 19.803C13.535 19.803 13.535 19.803 10.561 19.801C7.974 19.801 5.876 21.899 5.876 24.484C5.876 24.484 5.876 24.484 5.876 30.99"/>
  <path stroke-width="0.3" stroke-linejoin="round" d="M9.926 30.989C9.926 30.989 9.926 30.989 9.926 24.484C9.926 24.135 10.21 23.85 10.56 23.85C10.56 23.85 10.56 23.85 13.535 23.85C13.535 23.85 13.535 23.85 13.535 23.998C13.535 23.998 13.535 23.998 14.243 23.998C14.542 23.998 14.631 24.227 14.631 24.227C14.631 24.227 14.829 24.718 14.884 24.859C14.939 25.001 15.05 25.097 15.169 25.097C15.287 25.097 15.397 25.001 15.452 24.859C15.509 24.718 15.705 24.227 15.705 24.227C15.705 24.227 15.792 23.998 16.094 23.998C16.394 23.998 16.481 24.227 16.481 24.227C16.481 24.227 16.678 24.718 16.734 24.859C16.789 25.001 16.9 25.097 17.018 25.097C17.138 25.097 17.248 25.001 17.303 24.859C17.359 24.718 17.556 24.227 17.556 24.227C17.556 24.227 17.643 23.998 17.945 23.998C18.245 23.998 18.332 24.227 18.332 24.227C18.332 24.227 18.53 24.718 18.585 24.859C18.64 25.001 18.751 25.097 18.87 25.097C18.987 25.097 19.1 25.001 19.155 24.859C19.21 24.718 19.408 24.227 19.408 24.227C19.408 24.227 19.495 23.998 19.795 23.998C19.795 23.998 19.795 23.998 20.503 23.998C20.503 23.998 20.503 23.998 20.503 23.85C20.503 23.85 20.503 23.85 78.82 23.85C81.683 23.85 84.001 21.53 84.001 18.67L84.004 18.67C84.004 18.67 84.004 18.67 84.004 16.812C84.004 16.812 84.004 16.812 85.412 16.812C85.412 16.812 85.412 16.812 85.412 19.332C85.412 20.167 85.608 20.806 86.263 20.806C86.263 20.806 86.263 20.806 86.263 36.99C86.263 38.037 85.415 38.886 84.368 38.886C84.368 38.886 84.368 38.886 54.401 38.886C53.353 38.886 52.506 39.734 52.506 40.78C52.506 40.78 52.506 40.78 52.506 43.981C52.506 43.981 52.506 43.981 51.475 44.359C51.475 44.359 51.475 44.359 51.475 45.012C51.475 45.012 51.475 45.012 47.174 45.012C47.174 45.012 47.174 45.012 47.174 42.06C47.174 42.06 47.174 42.06 49.143 42.06C49.143 42.06 49.143 42.06 49.143 40.113C49.143 40.113 49.143 40.113 49.938 40.113C51.085 40.113 52.015 39.185 52.015 38.037C52.015 38.037 52.015 38.037 52.015 28.399C52.015 27.253 51.085 26.324 49.938 26.324C49.938 26.324 49.938 26.324 12.393 26.323C11.246 26.323 10.317 27.253 10.317 28.399C10.317 28.399 10.317 28.399 10.317 30.989"/>
  <path stroke-width="0.3" stroke-linejoin="round" d="M111.147 3.02C106.719 8.73 101.007 10.096 98.772 10.096C98.772 10.096 98.772 10.096 94.591 10.096C94.591 10.096 94.591 10.096 94.591 9.522C94.591 9.522 94.591 9.522 93.661 9.522C93.661 9.522 93.661 9.522 93.661 9.102C93.661 8.186 93.088 7.139 92.516 6.681C91.942 6.222 91.091 5.617 89.537 5.617C87.981 5.617 87.131 6.222 86.558 6.681C85.984 7.139 85.412 8.186 85.412 9.102C85.412 9.102 85.412 9.102 85.412 10.756C85.412 10.756 85.412 10.756 84.004 10.756C84.004 10.756 84.004 10.756 84.004 7.073C84.004 7.073 84.004 7.073 82.76 7.073C82.76 7.073 82.76 7.073 82.76 6.565C82.76 6.238 82.465 5.78 82.236 5.617C82.007 5.453 81.68 5.24 80.763 5.24C79.846 5.24 79.39 5.453 79.192 5.698C78.995 5.944 78.62 6.418 78.424 6.746C78.227 7.073 78.046 7.597 78.046 8.022C78.046 8.022 78.046 8.022 78.046 9.25C78.046 9.25 78.046 9.25 77.25 9.25C77.25 9.25 77.25 9.25 77.25 9.824C77.25 9.824 77.25 9.824 73.069 9.824C70.834 9.824 65.121 8.458 60.694 2.746"/>
  <path stroke-width="0.3" stroke-linejoin="round" d="M116.837 7.431C111.191 14.714 103.578 17.297 98.772 17.297C98.772 17.297 98.772 17.297 94.591 17.297C94.591 17.297 94.591 17.297 94.591 17.871C94.591 17.871 94.591 17.871 93.661 17.871C93.661 17.871 93.661 17.871 93.661 19.332C93.661 20.167 93.463 20.806 92.81 20.806C92.81 20.806 92.81 20.806 92.81 36.99C92.81 38.037 93.658 38.886 94.704 38.886C94.704 38.886 94.704 38.886 124.743 38.886C125.79 38.886 126.638 39.734 126.638 40.78C126.638 40.78 126.638 40.78 126.638 43.981C126.638 43.981 126.638 43.981 127.668 44.359C127.668 44.359 127.668 44.359 127.668 45.012"/>
  <path stroke-width="0.131" stroke-linejoin="round" d="M77.25 9.824L77.25 17.024"/>
  <path stroke-width="0.131" stroke-linejoin="round" d="M78.046 9.25L78.046 17.599"/>
  <path stroke-width="0.131" stroke-linejoin="round" d="M82.76 7.073L82.76 16.978"/>
  <path stroke-width="0.131" stroke-linejoin="round" d="M84.004 10.756L84.004 16.812"/>
  <path stroke-width="0.131" stroke-linejoin="round" d="M85.412 10.756L85.412 16.812"/>
  <path stroke-width="0.131" stroke-linejoin="round" d="M93.661 9.522L93.661 17.871"/>
  <path stroke-width="0.131" stroke-linejoin="round" d="M94.591 10.096L94.591 17.297"/>
  <path stroke-width="0.3" stroke-linejoin="round" d="M40.42 46.911L41.073 46.911L41.073 50.738L44.122 50.738"/>
  <path stroke-width="0.3" stroke-linejoin="round" d="M37.219 56.119L34.926 56.119L34.926 46.911L38.604 46.911"/>
  <path stroke-width="0.3" stroke-linejoin="round" d="M44.122 53.25L41.073 53.25L41.073 56.119L39.036 56.119"/>
  <path stroke-width="0.3" stroke-linejoin="round" d="M26.185 19.765L26.185 14.134L26.905 14.134L26.905 19.792"/>
  <path stroke-width="0.3" stroke-linejoin="round" d="M26.185 26.3L26.185 23.946"/>
  <path stroke-width="0.3" stroke-linejoin="round" d="M26.905 28.152C26.905 28.152 26.905 28.152 26.905 47.959C26.905 49.219 28.027 49.317 28.37 49.317C28.37 49.317 28.37 49.317 34.923 49.317C34.923 49.317 34.923 49.317 34.923 50.037C34.923 50.037 34.923 50.037 28.37 50.037C27.064 50.037 26.185 49.201 26.185 47.959C26.185 47.959 26.185 47.959 26.185 28.152"/>
  <path stroke-width="0.3" stroke-linejoin="round" d="M26.905 23.946L26.905 26.3"/>
  <path stroke-width="0.3" stroke-linejoin="round" d="M5.062 34.003C5.062 34.003 5.062 34.003 4.399 34.003C3.092 34.003 2.214 33.168 2.214 31.925C2.214 31.925 2.214 31.925 2.214 13.82C2.214 12.577 3.092 11.742 4.399 11.742C4.399 11.742 4.399 11.742 21.714 11.742C21.714 11.742 21.714 11.742 21.714 12.461C21.714 12.461 21.714 12.461 4.399 12.461C4.056 12.461 2.935 12.56 2.935 13.82C2.935 13.82 2.935 13.82 2.935 31.925C2.935 33.185 4.056 33.283 4.399 33.283C4.399 33.283 4.399 33.283 5.062 33.283C5.062 33.283 5.062 33.283 5.062 34.003z"/>
  <path stroke-width="0.3" stroke-linejoin="round" d="M46.296 23.867L46.296 26.289L45.576 26.289L45.576 23.867"/>
  <path stroke-width="0.3" stroke-linejoin="round" d="M45.576 19.792C45.576 19.792 45.576 19.792 45.576 13.82C45.576 12.56 44.456 12.461 44.112 12.461C44.112 12.461 44.112 12.461 43.45 12.461C43.45 12.461 43.45 12.461 43.45 11.742C43.45 11.742 43.45 11.742 44.112 11.742C45.418 11.742 46.296 12.577 46.296 13.82C46.296 13.82 46.296 13.82 46.296 19.792"/>
  <path stroke-width="0.3" stroke-linejoin="round" d="M10.108 31.082L10.108 90.343"/>
  <path stroke-width="0.3" stroke-linejoin="round" d="M47.118 50.484C47.118 50.484 47.118 50.484 47.118 47.982C47.118 47.405 47.572 46.966 47.929 46.966C47.929 46.966 47.929 46.966 66.879 46.966C67.492 46.966 67.948 47.531 67.948 47.982C67.948 47.982 67.948 47.982 67.948 50.609"/>
  <path stroke="none" fill="#FFFFFF" d="M54.773 57.878C57.951 58.335 60.395 61.07 60.395 64.373 60.395 67.998 57.457 70.936 53.832 70.936 50.209 70.936 47.271 67.998 47.271 64.373 47.271 61.076 49.704 58.345 52.874 57.881 54.773 57.878 54.773 57.878 54.773 57.878z"/>
  <path stroke="none" fill="#FFFFFF" d="M124.307 57.878C127.484 58.335 129.926 61.07 129.926 64.373 129.926 67.998 126.989 70.936 123.365 70.936 119.742 70.936 116.804 67.998 116.804 64.373 116.804 61.076 119.237 58.345 122.406 57.881 124.307 57.878 124.307 57.878 124.307 57.878z"/>
  <path stroke="none" fill="#FFFFFF" d="M72.156 57.878C75.334 58.335 77.778 61.07 77.778 64.373 77.778 67.998 74.84 70.936 71.215 70.936 67.591 70.936 64.655 67.998 64.655 64.373 64.655 61.076 67.087 58.345 70.257 57.881 72.156 57.878 72.156 57.878 72.156 57.878z"/>
  <path stroke="none" fill="#FFFFFF" d="M89.54 57.878C92.718 58.335 95.161 61.07 95.161 64.373 95.161 67.998 92.222 70.936 88.599 70.936 84.975 70.936 82.037 67.998 82.037 64.373 82.037 61.076 84.471 58.345 87.641 57.881 89.54 57.878 89.54 57.878 89.54 57.878z"/>
  <path stroke="none" fill="#FFFFFF" d="M106.923 57.878C110.1 58.335 112.545 61.07 112.545 64.373 112.545 67.998 109.606 70.936 105.983 70.936 102.358 70.936 99.421 67.998 99.421 64.373 99.421 61.076 101.855 58.345 105.024 57.881 106.923 57.878 106.923 57.878 106.923 57.878z"/>
  <path stroke="none" fill="#00519E" d="M60.232 52.38L65.37 52.38 65.37 52.921 66.817 52.029 65.37 51.134 65.37 51.679 60.232 51.679 60.232 52.38z"/>
  <path stroke="none" fill="#00519E" d="M78.239 52.38L83.376 52.38 83.376 52.921 84.823 52.029 83.376 51.134 83.376 51.679 78.239 51.679 78.239 52.38z"/>
  <path stroke="none" fill="#00519E" d="M112.465 52.38L117.602 52.38 117.602 52.921 119.049 52.029 117.602 51.134 117.602 51.679 112.465 51.679 112.465 52.38z"/>
  <path stroke="none" fill="#00519E" d="M121.799 51.811C122.281 51.811 122.739 52.015 123.099 52.375 123.099 52.375 123.099 52.375 123.784 53.06 123.784 53.06 123.784 53.06 124.165 52.676 124.165 52.676 124.165 52.676 124.558 54.334 124.558 54.334 124.558 54.334 122.903 53.941 122.903 53.941 122.903 53.941 123.289 53.555 123.289 53.555 123.289 53.555 122.602 52.869 122.367 52.634 122.075 52.534 121.802 52.534 121.799 51.811 121.799 51.811 121.799 51.811z"/>
  <path stroke="none" fill="#00519E" d="M89.641 51.941C90.121 51.941 90.578 52.145 90.939 52.506 90.939 52.506 90.939 52.506 91.625 53.189 91.625 53.189 91.625 53.189 92.009 52.805 92.009 52.805 92.009 52.805 92.399 54.463 92.399 54.463 92.399 54.463 90.743 54.07 90.743 54.07 90.743 54.07 91.129 53.686 91.129 53.686 91.129 53.686 90.444 53 90.207 52.765 89.915 52.664 89.644 52.664 89.641 51.941 89.641 51.941 89.641 51.941z"/>
  <path stroke="none" fill="#00519E" d="M71.408 51.811C71.888 51.811 72.346 52.015 72.706 52.375 72.706 52.375 72.706 52.375 73.39 53.06 73.39 53.06 73.39 53.06 73.772 52.676 73.772 52.676 73.772 52.676 74.165 54.334 74.165 54.334 74.165 54.334 72.51 53.941 72.51 53.941 72.51 53.941 72.894 53.555 72.894 53.555 72.894 53.555 72.209 52.869 71.972 52.634 71.682 52.534 71.409 52.534 71.408 51.811 71.408 51.811 71.408 51.811z"/>
  <path stroke="none" fill="#00519E" d="M53.03 51.811C53.511 51.811 53.969 52.015 54.329 52.375 54.329 52.375 54.329 52.375 55.014 53.06 55.014 53.06 55.014 53.06 55.396 52.676 55.396 52.676 55.396 52.676 55.787 54.334 55.787 54.334 55.787 54.334 54.133 53.941 54.133 53.941 54.133 53.941 54.518 53.555 54.518 53.555 54.518 53.555 53.834 52.869 53.597 52.634 53.304 52.534 53.033 52.534 53.03 51.811 53.03 51.811 53.03 51.811z"/>
  <path stroke="none" fill="#00519E" d="M106.409 51.811C106.89 51.811 107.346 52.015 107.707 52.375 107.707 52.375 107.707 52.375 108.393 53.06 108.393 53.06 108.393 53.06 108.775 52.676 108.775 52.676 108.775 52.676 109.167 54.334 109.167 54.334 109.167 54.334 107.512 53.941 107.512 53.941 107.512 53.941 107.897 53.555 107.897 53.555 107.897 53.555 107.212 52.869 106.975 52.634 106.683 52.534 106.412 52.534 106.409 51.811 106.409 51.811 106.409 51.811z"/>
  <path stroke="none" fill="#00519E" d="M96.171 52.38L101.308 52.38 101.308 52.921 102.754 52.029 101.308 51.134 101.308 51.679 96.171 51.679 96.171 52.38z"/>
  <path stroke="none" fill="#00519E" d="M42.024 52.38L47.162 52.38 47.162 52.921 48.609 52.029 47.162 51.134 47.162 51.679 42.024 51.679 42.024 52.38z"/>
  <g>
   <path stroke="none" fill="#00519E" d="M51.572 50.796C51.572 50.796 51.572 50.796 52.308 50.027 52.587 49.755 52.969 49.587 53.39 49.587 53.39 49.587 53.39 49.587 59.185 49.587 59.606 49.587 59.987 49.755 60.267 50.027 60.267 50.027 60.267 50.027 59.924 50.36 59.924 50.36 59.924 50.36 61.426 50.49 61.426 50.49 61.426 50.49 61.338 48.985 61.338 48.985 61.338 48.985 60.991 49.323L60.99 49.323C60.529 48.862 59.89 48.576 59.185 48.576 59.185 48.576 59.185 48.576 53.39 48.576 52.685 48.576 52.046 48.862 51.584 49.323 51.584 49.323 51.584 49.323 50.554 50.356 50.277 50.628 49.895 50.796 49.473 50.796"/>
  </g>
  <path stroke-width="0.3" stroke-linejoin="round" d="M99.423 64.549C99.423 60.924 102.361 57.987 105.984 57.987C109.608 57.987 112.546 60.924 112.546 64.549C112.546 68.173 109.608 71.109 105.984 71.109C102.361 71.109 99.423 68.173 99.423 64.549z"/>
  <path stroke-width="0.3" stroke-linejoin="round" d="M82.042 64.549C82.042 60.924 84.98 57.987 88.603 57.987C92.227 57.987 95.165 60.924 95.165 64.549C95.165 68.173 92.227 71.109 88.603 71.109C84.98 71.109 82.042 68.173 82.042 64.549z"/>
  <path stroke-width="0.3" stroke-linejoin="round" d="M64.661 64.549C64.661 60.924 67.599 57.987 71.222 57.987C74.846 57.987 77.784 60.924 77.784 64.549C77.784 68.173 74.846 71.109 71.222 71.109C67.599 71.109 64.661 68.173 64.661 64.549z"/>
  <path stroke-width="0.3" stroke-linejoin="round" d="M47.28 64.549C47.28 60.924 50.216 57.987 53.841 57.987C57.465 57.987 60.402 60.924 60.402 64.549C60.402 68.173 57.465 71.109 53.841 71.109C50.216 71.109 47.28 68.173 47.28 64.549z"/>
  <path stroke-width="0.3" stroke-linejoin="round" d="M116.805 64.408C116.805 60.783 119.742 57.845 123.365 57.845C126.989 57.845 129.927 60.783 129.927 64.408C129.927 68.031 126.989 70.968 123.365 70.968C119.742 70.968 116.805 68.031 116.805 64.408z"/>
  <path stroke-width="0.201" stroke-linejoin="round" d="M49.328 50.796L48.445 50.796"/>
  <path stroke-width="0.201" stroke-linejoin="round" stroke-dasharray="1.221 1.221" d="M47.222 50.796L45.389 50.796"/>
  <path stroke-width="0.201" stroke-linejoin="round" d="M44.777 50.796L43.896 50.796"/>
  <path stroke-width="0.201" stroke-linejoin="round" d="M126.331 55.274C126.251 54.987 126.152 54.71 126.034 54.442"/>
  <path stroke-width="0.201" stroke-linejoin="round" stroke-dasharray="1.74 1.74" d="M125.115 52.97C124.004 51.649 122.343 50.804 120.487 50.796C120.487 50.796 120.487 50.796 106.376 50.798C106.376 50.798 106.376 50.798 53.546 50.796"/>
  <path stroke-width="0.201" stroke-linejoin="round" d="M52.679 50.796L51.796 50.796"/>
  <path stroke-width="0.201" stroke-linejoin="round" d="M109.643 53.201L110.525 53.201"/>
  <path stroke-width="0.201" stroke-linejoin="round" stroke-dasharray="1.875 1.875" d="M112.399 53.201C112.399 53.201 112.399 53.201 120.471 53.201C121.368 53.201 122.042 53.457 122.569 53.865"/>
  <path stroke-width="0.201" stroke-linejoin="round" d="M123.224 54.53C123.4 54.761 123.555 55.012 123.697 55.274"/>
  <path stroke-width="0.201" stroke-linejoin="round" d="M93.668 55.274C93.584 55.015 93.484 54.728 93.37 54.444"/>
  <path stroke-width="0.201" stroke-linejoin="round" d="M93.155 53.96C93.019 53.679 92.868 53.417 92.704 53.203C92.704 53.203 92.704 53.203 93.585 53.203"/>
  <path stroke-width="0.201" stroke-linejoin="round" stroke-dasharray="2.047 2.047" d="M95.632 53.201L102.799 53.201"/>
  <path stroke-width="0.201" stroke-linejoin="round" d="M103.822 53.201L104.703 53.201"/>
  <path stroke-width="0.201" stroke-linejoin="round" d="M75.709 55.274C75.628 55.015 75.527 54.728 75.412 54.444"/>
  <path stroke-width="0.201" stroke-linejoin="round" d="M75.197 53.96C75.063 53.679 74.912 53.417 74.748 53.201C74.748 53.201 74.748 53.201 75.629 53.201"/>
  <path stroke-width="0.201" stroke-linejoin="round" stroke-dasharray="1.718 1.718" d="M77.347 53.201C77.347 53.201 77.347 53.201 87.876 53.201C89.087 53.201 89.712 53.438 90.108 53.801"/>
  <path stroke-width="0.201" stroke-linejoin="round" d="M90.608 54.496C90.739 54.74 90.859 55.005 91.019 55.274"/>
  <path stroke-width="0.201" stroke-linejoin="round" d="M57.279 55.274C57.195 55.015 57.095 54.728 56.981 54.444"/>
  <path stroke-width="0.201" stroke-linejoin="round" d="M56.767 53.96C56.631 53.679 56.481 53.417 56.317 53.201C56.317 53.201 56.317 53.201 57.198 53.201"/>
  <path stroke-width="0.201" stroke-linejoin="round" stroke-dasharray="1.761 1.761" d="M58.96 53.201C58.96 53.201 58.96 53.201 69.92 53.201C70.859 53.201 71.515 53.473 72.016 53.89"/>
  <path stroke-width="0.201" stroke-linejoin="round" d="M72.614 54.533C72.789 54.765 72.944 55.017 73.093 55.274"/>
  <path stroke-width="0.201" stroke-linejoin="round" d="M44.06 53.201L44.942 53.201"/>
  <path stroke-width="0.201" stroke-linejoin="round" stroke-dasharray="1.958 1.958" d="M46.899 53.201C46.899 53.201 46.899 53.201 51.487 53.201C52.506 53.201 53.161 53.424 53.636 53.789"/>
  <path stroke-width="0.201" stroke-linejoin="round" d="M54.289 54.512C54.447 54.746 54.588 55.003 54.731 55.274"/>
  <path stroke-width="0.201" stroke-linejoin="round" d="M110.436 55.274C110.352 55.015 110.253 54.728 110.138 54.444"/>
  <path stroke-width="0.201" stroke-linejoin="round" d="M109.923 53.96C109.787 53.679 109.637 53.417 109.471 53.203C109.471 53.203 109.471 53.203 110.353 53.203"/>
  <path stroke-width="0.201" stroke-linejoin="round" stroke-dasharray="2.2 2.2" d="M112.554 53.201L115.855 53.201"/>
  <path stroke-width="0.201" stroke-linejoin="round" d="M116.954 53.201L117.837 53.201"/>
  <path stroke-width="0.201" stroke-linejoin="round" d="M104.644 53.201C104.98 53.201 105.272 53.22 105.525 53.255"/>
  <path stroke-width="0.201" stroke-linejoin="round" d="M107.376 54.496C107.507 54.74 107.628 55.005 107.787 55.274"/>
  <path stroke="none" fill="#FFFFFF" d="M27.117 79.391C27.117 79.391 27.117 79.391 27.117 55.051 27.117 54.896 27.243 54.77 27.399 54.77 27.399 54.77 27.399 54.77 34.79 54.77 34.79 54.77 34.79 54.77 34.79 52.975 34.79 52.975 34.79 52.975 27.399 52.975 26.253 52.975 25.323 53.904 25.323 55.051 25.323 55.051 25.323 55.051 25.323 80.301 27.117 79.391 27.117 79.391 27.117 79.391z"/>
  <path stroke="none" fill="#FFFFFF" d="M28.8 92.9C28.8 92.9 28.8 92.9 27.399 92.9 27.243 92.9 27.117 92.775 27.117 92.618 27.117 92.618 27.117 92.618 27.117 81.703 27.117 81.703 27.117 81.703 25.323 82.608 25.323 82.608 25.323 82.608 25.323 92.618 25.323 93.284 25.635 93.876 26.123 94.257 26.123 94.257 26.123 94.257 26.582 94.239 26.582 94.239 26.984 94.248 27.385 94.084 27.788 93.921 28.071 93.603 28.071 93.603 28.8 92.9 28.8 92.9 28.8 92.9z"/>
  <path stroke="none" fill="#FFFFFF" d="M33.036 94.694C33.036 94.694 33.036 94.694 103.683 94.694 103.683 94.694 103.683 94.694 103.683 95.733 103.683 96.18 104.046 96.545 104.495 96.545 104.495 96.545 104.495 96.545 123.703 96.545 124.152 96.545 124.515 96.18 124.515 95.733 124.515 95.733 124.515 95.733 124.515 94.694 124.515 94.694 124.515 94.694 135.181 94.694 136.326 94.694 137.257 93.766 137.257 92.618 137.257 92.618 137.257 92.618 137.257 89.504 137.257 89.504 137.257 89.504 138.348 89.504 138.348 89.504 138.348 89.504 137.257 88.198 137.257 88.198 137.257 88.198 137.257 86.054 137.257 86.054 137.257 86.054 138.348 84.746 138.348 84.746 138.348 84.746 137.257 84.746 137.257 84.746 137.257 84.746 137.257 65.861 137.257 64.715 136.326 63.786 135.181 63.786 135.181 63.786 135.181 63.786 133.585 63.786 133.585 63.786 133.585 63.786 133.585 65.581 133.585 65.581 133.585 65.581 135.181 65.581 135.336 65.581 135.461 65.706 135.461 65.861 135.461 65.861 135.461 65.861 135.461 84.746 135.461 84.746 135.461 84.746 134.376 84.746 134.376 84.746 134.376 84.746 135.461 86.046 135.461 86.046 135.461 86.046 135.461 88.204 135.461 88.204 135.461 88.204 134.376 89.504 134.376 89.504 134.376 89.504 135.461 89.504 135.461 89.504 135.461 89.504 135.461 92.618 135.461 92.775 135.336 92.9 135.181 92.9 135.181 92.9 135.181 92.9 124.515 92.9 124.515 92.9 124.515 92.9 124.515 91.875 124.515 91.427 124.152 91.063 123.703 91.063 123.703 91.063 123.703 91.063 104.495 91.063 104.046 91.063 103.683 91.427 103.683 91.875 103.683 91.875 103.683 91.875 103.683 92.9 103.683 92.9 103.683 92.9 34.851 92.9 33.036 94.694 33.036 94.694 33.036 94.694z"/>
  <path stroke-width="0.3" stroke-linejoin="round" d="M27.117 79.509C27.117 79.509 27.117 79.509 27.117 55.051C27.117 54.896 27.243 54.77 27.399 54.77C27.399 54.77 27.399 54.77 34.872 54.77"/>
  <path stroke-width="0.3" stroke-linejoin="round" d="M34.872 52.975C34.872 52.975 34.872 52.975 27.399 52.975C26.253 52.975 25.323 53.904 25.323 55.051C25.323 55.051 25.323 55.051 25.323 80.418"/>
  <path stroke-width="0.3" stroke-linejoin="round" d="M34.718 92.9L103.7 92.9"/>
  <path stroke-width="0.3" stroke-linejoin="round" d="M27.117 81.605C27.117 81.605 27.117 81.605 27.117 92.618C27.117 92.774 27.243 92.9 27.399 92.9C27.399 92.9 27.399 92.9 28.949 92.9"/>
  <path stroke-width="0.3" stroke-linejoin="round" d="M26.222 94.329C25.679 93.956 25.323 93.328 25.323 92.618C25.323 92.618 25.323 92.618 25.323 82.51"/>
  <path stroke-width="0.3" stroke-linejoin="round" d="M103.7 94.694L32.887 94.694"/>
  <path stroke-width="0.3" stroke-linejoin="round" d="M135.461 84.652C135.461 84.652 135.461 84.652 135.461 65.861C135.461 65.706 135.336 65.581 135.18 65.581C135.18 65.581 135.18 65.581 133.467 65.581"/>
  <path stroke-width="0.3" stroke-linejoin="round" d="M133.467 63.786C133.467 63.786 133.467 63.786 135.18 63.786C136.326 63.786 137.257 64.715 137.257 65.861C137.257 65.861 137.257 65.861 137.257 84.652"/>
  <path stroke-width="0.3" stroke-linejoin="round" d="M135.461 89.6C135.461 89.6 135.461 89.6 135.461 92.618C135.461 92.774 135.336 92.9 135.18 92.9C135.18 92.9 135.18 92.9 124.498 92.9"/>
  <path stroke-width="0.3" stroke-linejoin="round" d="M124.496 94.694C124.496 94.694 124.496 94.694 135.18 94.694C136.326 94.694 137.257 93.766 137.257 92.618C137.257 92.618 137.257 92.618 137.257 89.6"/>
  <path stroke-width="0.3" stroke-linejoin="round" d="M123.703 91.063C124.152 91.063 124.515 91.427 124.515 91.875C124.515 91.875 124.515 91.875 124.515 95.733C124.515 96.18 124.152 96.545 123.703 96.545C123.703 96.545 123.703 96.545 104.495 96.545C104.046 96.545 103.683 96.18 103.683 95.733C103.683 95.733 103.683 95.733 103.683 91.875C103.683 91.427 104.046 91.063 104.495 91.063C104.495 91.063 104.495 91.063 123.703 91.063z"/>
  <path stroke-width="0.3" stroke-linejoin="round" d="M134.376 89.504L138.348 89.504L134.376 84.746L138.348 84.746L134.376 89.504z"/>
  <path stroke-width="0.3" stroke-linejoin="round" d="M135.461 88.204L135.461 86.058"/>
  <path stroke-width="0.3" stroke-linejoin="round" d="M137.257 88.204L137.257 86.058"/>
  <path stroke="#FFFFFF" stroke-width="0.501" d="M137.167 88.68L144.669 79.221"/>
  <path stroke-width="0.131" d="M137.167 88.68L144.669 79.221"/>
  <path stroke="#FFFFFF" stroke-width="0.501" d="M90.686 98.948L105.368 95.501"/>
  <path stroke-width="0.131" d="M90.686 98.948L105.368 95.501"/>
  <path stroke="none" fill="#FFFFFF" d="M37.918 86.802C37.918 86.802 37.918 86.802 35.192 87.447 35.192 87.447 35.192 87.447 35.707 87.962 35.707 87.962 35.707 87.962 29.019 94.644 28.37 95.295 27.51 95.653 26.6 95.653 26.6 95.653 26.6 95.653 26.6 97.153 27.911 97.153 29.149 96.638 30.08 95.704 30.08 95.704 30.08 95.704 36.768 89.022 36.768 89.022 36.768 89.022 37.274 89.53 37.918 86.802 37.918 86.802 37.918 86.802z"/>
  <path stroke="#231F20" stroke-width="0.201" stroke-linecap="butt" d="M37.918 86.802C37.918 86.802 37.918 86.802 35.192 87.447C35.192 87.447 35.192 87.447 35.707 87.962C35.707 87.962 35.707 87.962 29.019 94.644C28.37 95.295 27.51 95.653 26.6 95.653C26.6 95.653 26.6 95.653 26.6 97.153C27.911 97.153 29.149 96.638 30.08 95.704C30.08 95.704 30.08 95.704 36.768 89.022C36.768 89.022 36.768 89.022 37.274 89.53C37.274 89.53 37.274 89.53 37.918 86.802z"/>
  <path stroke="none" fill="#FFFFFF" d="M42.579 84.593L46.104 84.593 46.104 84.126 47.667 85.091 46.104 86.057 46.104 85.584 42.579 85.584 42.579 84.593z"/>
  <path stroke="#231F20" stroke-width="0.201" stroke-linecap="butt" d="M42.579 84.593L46.104 84.593L46.104 84.126L47.667 85.091L46.104 86.057L46.104 85.584L42.579 85.584L42.579 84.593z"/>
  <path stroke="none" fill="#FFFFFF" d="M58.978 84.593L63.871 84.593 63.871 84.126 65.433 85.091 63.871 86.057 63.871 85.584 58.978 85.584 58.978 84.593z"/>
  <path stroke="#231F20" stroke-width="0.201" stroke-linecap="butt" d="M58.978 84.593L63.871 84.593L63.871 84.126L65.433 85.091L63.871 86.057L63.871 85.584L58.978 85.584L58.978 84.593z"/>
  <path stroke="none" fill="#FFFFFF" d="M75.376 84.593L80.269 84.593 80.269 84.126 81.831 85.091 80.269 86.057 80.269 85.584 75.376 85.584 75.376 84.593z"/>
  <path stroke="#231F20" stroke-width="0.201" stroke-linecap="butt" d="M75.376 84.593L80.269 84.593L80.269 84.126L81.831 85.091L80.269 86.057L80.269 85.584L75.376 85.584L75.376 84.593z"/>
  <path stroke="none" fill="#FFFFFF" d="M92.811 84.593L97.704 84.593 97.704 84.126 99.268 85.091 97.704 86.057 97.704 85.584 92.811 85.584 92.811 84.593z"/>
  <path stroke="#231F20" stroke-width="0.201" stroke-linecap="butt" d="M92.811 84.593L97.704 84.593L97.704 84.126L99.268 85.091L97.704 86.057L97.704 85.584L92.811 85.584L92.811 84.593z"/>
  <path stroke="none" fill="#FFFFFF" d="M110.248 84.593L115.141 84.593 115.141 84.126 116.703 85.091 115.141 86.057 115.141 85.584 110.248 85.584 110.248 84.593z"/>
  <path stroke="#231F20" stroke-width="0.201" stroke-linecap="butt" d="M110.248 84.593L115.141 84.593L115.141 84.126L116.703 85.091L115.141 86.057L115.141 85.584L110.248 85.584L110.248 84.593z"/>
  <path stroke="none" fill="#00519E" d="M25.969 76.215L25.969 68.007 25.565 68.007 26.231 66.927 26.899 68.007 26.492 68.007 26.492 76.215 25.969 76.215z"/>
  <path stroke="none" fill="#00519E" d="M81.055 93.519L72.849 93.519 72.849 93.114 71.768 93.783 72.849 94.45 72.849 94.042 81.055 94.042 81.055 93.519z"/>
  <path stroke="none" fill="#00519E" d="M118.18 93.524L109.971 93.524 109.971 93.12 108.891 93.787 109.971 94.454 109.971 94.048 118.18 94.048 118.18 93.524z"/>
  <path stroke="none" fill="#00519E" d="M25.968 92.671C25.968 92.671 25.968 92.671 25.968 91.948 25.968 91.948 25.968 91.948 25.564 91.948 25.564 91.948 25.564 91.948 26.231 90.867 26.231 90.867 26.231 90.867 26.899 91.948 26.899 91.948 26.899 91.948 26.492 91.948 26.492 91.948 26.492 91.948 26.492 92.671 26.492 93.248 26.978 93.545 27.46 93.545 27.46 93.545 27.46 93.545 28.086 93.545 28.086 93.545 28.045 93.64 27.812 93.822 27.582 94.003 27.4 94.067 27.371 94.066 26.469 94.028 25.968 93.409 25.968 92.671z"/>
  <path stroke="none" fill="#00519E" d="M136.618 65.84C136.618 65.84 136.618 65.84 136.618 66.563 136.618 66.563 136.618 66.563 137.022 66.563 137.022 66.563 137.022 66.563 136.354 67.644 136.354 67.644 136.354 67.644 135.687 66.563 135.687 66.563 135.687 66.563 136.094 66.563 136.094 66.563 136.094 66.563 136.094 65.84 136.094 65.265 135.609 64.968 135.126 64.968 135.126 64.968 135.126 64.968 134.377 64.968 134.377 64.968 134.377 64.968 134.377 64.444 134.377 64.444 134.377 64.444 135.126 64.444 136.085 64.444 136.618 65.078 136.618 65.84z"/>
  <path stroke="none" fill="#00519E" d="M135.222 94.066C135.222 94.066 135.222 94.066 134.498 94.066 134.498 94.066 134.498 94.066 134.498 94.469 134.498 94.469 134.498 94.469 133.418 93.802 133.418 93.802 133.418 93.802 134.498 93.135 134.498 93.135 134.498 93.135 134.498 93.542 134.498 93.542 134.498 93.542 135.222 93.542 135.798 93.542 136.094 93.055 136.094 92.572 136.094 92.572 136.094 92.572 136.094 91.825 136.094 91.825 136.094 91.825 136.618 91.825 136.618 91.825 136.618 91.825 136.618 92.572 136.618 93.531 135.984 94.066 135.222 94.066z"/>
 </g>
 <g id="A4_x0020_full_x0020_frame">
  <path stroke="#FFFFFF" stroke-width="0.006" d="M150.002 101.495L150.002 0.003L0.003 0.003L0.003 101.495L150.002 101.495z"/>
 </g>
 <g id="Poses_x0020_Basic">
  <path stroke="#FFFFFF" stroke-width="0.501" d="M133.406 59.585L146.326 63.037"/>
  <path stroke-width="0.131" d="M133.406 59.585L146.326 63.037"/>
  <path stroke="#FFFFFF" stroke-width="0.501" d="M21.428 39.926L36.313 47.957"/>
  <path stroke-width="0.131" d="M21.428 39.926L36.313 47.957"/>
  <path stroke="#FFFFFF" stroke-width="0.501" d="M47.228 37.002L56.432 16.439"/>
  <path stroke-width="0.131" d="M47.228 37.002L56.432 16.439"/>
  <path stroke="#FFFFFF" stroke-width="0.501" d="M41.22 38.244L50.59 12.407"/>
  <path stroke-width="0.131" d="M41.22 38.244L50.59 12.407"/>
  <path stroke="#FFFFFF" stroke-width="0.501" d="M58.045 46.892L67.611 6.341"/>
  <path stroke-width="0.131" d="M58.045 46.892L67.611 6.341"/>
  <path stroke="#FFFFFF" stroke-width="0.501" d="M38.164 9.99L39.499 7.02"/>
  <path stroke-width="0.131" d="M38.164 9.99L39.499 7.02"/>
  <path stroke="#FFFFFF" stroke-width="0.501" d="M6.049 11.603L4.014 7.019"/>
  <path stroke-width="0.131" d="M6.049 11.603L4.014 7.019"/>
  <path stroke="#FFFFFF" stroke-width="0.501" d="M26.028 18.03L12.194 7.02"/>
  <path stroke-width="0.131" d="M26.028 18.03L12.194 7.02"/>
  <path stroke="#FFFFFF" stroke-width="0.501" d="M44.707 11.627L46.042 8.656"/>
  <path stroke-width="0.131" d="M44.707 11.627L46.042 8.656"/>
  <path stroke="#FFFFFF" stroke-width="0.501" d="M5.142 59.348L2.202 55.893"/>
  <path stroke-width="0.131" d="M5.142 59.348L2.202 55.893"/>
  <path stroke="none" fill="#000000" d="M144.536 77.996C144.536 77.996 144.536 77.996 144.073 77.996 144.073 77.996 144.073 77.996 144.073 75.539 144.073 75.539 144.073 75.539 143.264 75.539 143.264 75.539 143.264 75.539 143.264 75.194 143.826 75.155 144.058 75.099 144.195 74.534 144.195 74.534 144.195 74.534 144.536 74.534 144.536 77.996 144.536 77.996 144.536 77.996z"/>
  <path stroke="none" fill="#000000" d="M147.274 77.996C147.274 77.996 147.274 77.996 146.811 77.996 146.811 77.996 146.811 77.996 146.811 75.539 146.811 75.539 146.811 75.539 146.002 75.539 146.002 75.539 146.002 75.539 146.002 75.194 146.564 75.155 146.796 75.099 146.933 74.534 146.933 74.534 146.933 74.534 147.274 74.534 147.274 77.996 147.274 77.996 147.274 77.996z"/>
  <path stroke="none" fill="#000000" d="M86.481 100.855C86.481 100.855 86.481 100.855 86.019 100.855 86.019 100.855 86.019 100.855 86.019 98.397 86.019 98.397 86.019 98.397 85.21 98.397 85.21 98.397 85.21 98.397 85.21 98.052 85.772 98.013 86.004 97.959 86.141 97.393 86.141 97.393 86.141 97.393 86.481 97.393 86.481 100.855 86.481 100.855 86.481 100.855z"/>
  <path stroke="none" fill="#000000" d="M88.82 100.948C87.825 100.948 87.634 99.89 87.634 99.171 87.634 98.45 87.825 97.391 88.82 97.391L88.82 97.781C88.323 97.781 88.096 98.304 88.096 99.171 88.096 100.037 88.323 100.56 88.82 100.56 89.319 100.56 89.545 100.037 89.545 99.171 89.545 98.304 89.319 97.781 88.82 97.781L88.82 97.391C89.816 97.391 90.007 98.45 90.007 99.171 90.007 99.89 89.816 100.948 88.82 100.948z"/>
  <path stroke="none" fill="#000000" d="M115.195 17.64C115.195 17.64 115.195 17.64 114.733 17.64 114.733 17.64 114.733 17.64 114.733 15.183 114.733 15.183 114.733 15.183 113.924 15.183 113.924 15.183 113.924 15.183 113.924 14.839 114.486 14.798 114.718 14.744 114.855 14.179 114.855 14.179 114.855 14.179 115.195 14.179 115.195 17.64 115.195 17.64 115.195 17.64z"/>
  <path stroke="none" fill="#000000" d="M116.382 15.419C116.382 14.291 117.204 14.179 117.578 14.179 118.18 14.179 118.662 14.567 118.662 15.212 118.662 15.833 118.254 16.094 117.736 16.37 117.736 16.37 117.736 16.37 117.376 16.568 116.903 16.829 116.801 17.1 116.781 17.233 116.781 17.233 116.781 17.233 118.662 17.233 118.662 17.233 118.662 17.233 118.662 17.64 118.662 17.64 118.662 17.64 116.293 17.64 116.317 16.922 116.643 16.538 117.105 16.266 117.105 16.266 117.105 16.266 117.563 16.001 117.933 15.788 118.2 15.647 118.2 15.192 118.2 14.917 118.022 14.567 117.515 14.567 116.859 14.567 116.831 15.179 116.816 15.419 116.382 15.419 116.382 15.419 116.382 15.419z"/>
  <path stroke="none" fill="#000000" d="M125.174 18.138C125.174 18.138 125.174 18.138 124.712 18.138 124.712 18.138 124.712 18.138 124.712 15.681 124.712 15.681 124.712 15.681 123.903 15.681 123.903 15.681 123.903 15.681 123.903 15.336 124.465 15.297 124.697 15.243 124.834 14.676 124.834 14.676 124.834 14.676 125.174 14.676 125.174 18.138 125.174 18.138 125.174 18.138z"/>
  <path stroke="none" fill="#000000" d="M127.248 16.167C127.322 16.172 127.4 16.178 127.474 16.178 127.81 16.178 128.134 16.045 128.134 15.612 128.134 15.404 128.012 15.064 127.495 15.064 126.879 15.064 126.84 15.567 126.819 15.808 126.819 15.808 126.819 15.808 126.396 15.808 126.396 15.301 126.602 14.676 127.515 14.676 128.183 14.676 128.582 15.06 128.582 15.586 128.582 16.03 128.326 16.242 128.139 16.3L128.139 16.31C128.474 16.419 128.716 16.655 128.716 17.118 128.716 17.684 128.352 18.231 127.469 18.231 127.213 18.231 126.996 18.167 126.829 18.079 126.445 17.876 126.341 17.478 126.313 17.079 126.313 17.079 126.313 17.079 126.76 17.079 126.775 17.405 126.855 17.843 127.5 17.843 127.942 17.843 128.252 17.571 128.252 17.172 128.252 16.591 127.74 16.538 127.445 16.538 127.382 16.538 127.313 16.542 127.248 16.542 127.248 16.167 127.248 16.167 127.248 16.167z"/>
  <path stroke="none" fill="#000000" d="M148.473 64.335C148.473 64.335 148.473 64.335 148.008 64.335 148.008 64.335 148.008 64.335 148.008 61.878 148.008 61.878 148.008 61.878 147.201 61.878 147.201 61.878 147.201 61.878 147.201 61.533 147.763 61.493 147.995 61.439 148.132 60.874 148.132 60.874 148.132 60.874 148.473 60.874 148.473 64.335 148.473 64.335 148.473 64.335z"/>
  <path stroke="none" fill="#000000" d="M57.814 13.557C58.283 13.756 58.381 14.14 58.381 14.4 58.381 14.958 58.027 15.493 57.209 15.493 57.017 15.493 56.652 15.445 56.377 15.227 56.021 14.946 56.021 14.573 56.021 14.406 56.021 13.981 56.243 13.711 56.607 13.564 56.313 13.449 56.14 13.214 56.14 12.888 56.14 12.528 56.362 11.938 57.189 11.938L57.164 12.326C56.701 12.326 56.588 12.647 56.588 12.868 56.588 13.198 56.878 13.4 57.195 13.4L57.2 13.775C56.712 13.775 56.484 14.095 56.484 14.416 56.484 14.691 56.622 15.105 57.223 15.105 57.539 15.105 57.918 14.992 57.918 14.449 57.918 13.981 57.594 13.775 57.2 13.775L57.195 13.4C57.569 13.4 57.81 13.16 57.81 12.843 57.81 12.631 57.671 12.326 57.164 12.326L57.189 11.938C57.957 11.938 58.259 12.426 58.259 12.83 58.259 13.326 57.968 13.48 57.814 13.557z"/>
  <path stroke="none" fill="#000000" d="M50.174 7.98C50.174 7.98 50.174 7.98 52.569 7.98 52.569 7.98 52.569 7.98 52.569 8.359 52.223 8.718 51.396 9.823 51.145 11.368 51.145 11.368 51.145 11.368 50.667 11.368 50.786 10.419 51.415 9.178 52.081 8.403 52.081 8.403 52.081 8.403 50.174 8.403 50.174 7.98 50.174 7.98 50.174 7.98z"/>
  <path stroke="none" fill="#000000" d="M65.936 3.025C65.936 2.395 66.319 1.839 67.049 1.839L67.055 2.229C66.65 2.229 66.385 2.544 66.385 3.007 66.385 3.672 66.798 3.756 67.088 3.756 67.314 3.756 67.754 3.652 67.754 2.967 67.754 2.573 67.552 2.229 67.055 2.229L67.049 1.839C68.153 1.839 68.26 2.883 68.26 3.444 68.26 3.815 68.197 5.395 67.004 5.395 66.191 5.395 65.975 4.804 65.975 4.469 65.975 4.469 65.975 4.469 66.409 4.469 66.433 4.82 66.641 5.035 66.995 5.035 67.468 5.035 67.718 4.637 67.828 3.741L67.817 3.73C67.689 3.996 67.344 4.144 67.025 4.144 66.385 4.144 65.936 3.716 65.936 3.025z"/>
  <path stroke="none" fill="#000000" d="M40.956 3.44C40.901 3.134 40.734 2.907 40.359 2.907 39.679 2.907 39.536 3.825 39.536 4.189L39.546 4.198C39.655 4.011 39.896 3.774 40.368 3.774L40.304 4.165C39.828 4.165 39.595 4.509 39.595 4.918 39.595 5.286 39.817 5.686 40.325 5.686 40.738 5.686 41.005 5.36 41.005 4.892 41.005 4.588 40.841 4.165 40.304 4.165L40.368 3.774C40.792 3.774 41.453 4.046 41.453 4.873 41.453 5.227 41.359 5.485 41.122 5.74 40.941 5.942 40.734 6.075 40.246 6.075 39.979 6.075 39.6 5.956 39.354 5.573 39.148 5.248 39.088 4.825 39.088 4.371 39.088 3.613 39.335 2.52 40.368 2.52 40.768 2.52 41.335 2.735 41.378 3.44 40.956 3.44 40.956 3.44 40.956 3.44z"/>
  <path stroke="none" fill="#000000" d="M4.629 5.139L4.629 5.982 4.197 5.982 4.197 5.139 4.197 4.764 4.197 3.193 4.187 3.193 3.084 4.764 4.197 4.764 4.197 5.139 2.685 5.139 2.685 4.716 4.27 2.52 4.629 2.52 4.629 4.764 5.137 4.764 5.137 5.139 4.629 5.139z"/>
  <path stroke="none" fill="#000000" d="M10.121 3.967C10.269 3.854 10.48 3.75 10.791 3.75 11.352 3.75 11.929 4.144 11.929 4.859 11.929 5.243 11.756 6.075 10.673 6.075 10.22 6.075 9.638 5.892 9.554 5.12 9.554 5.12 9.554 5.12 10.003 5.12 10.048 5.524 10.348 5.7 10.737 5.7 11.185 5.7 11.465 5.341 11.465 4.908 11.465 4.41 11.125 4.139 10.698 4.139 10.445 4.139 10.22 4.258 10.057 4.469 10.057 4.469 10.057 4.469 9.682 4.45 9.682 4.45 9.682 4.45 9.943 2.593 9.943 2.593 9.943 2.593 11.737 2.593 11.737 2.593 11.737 2.593 11.737 3.016 11.737 3.016 11.737 3.016 10.269 3.016 10.121 3.967 10.121 3.967 10.121 3.967z"/>
  <path stroke="none" fill="#000000" d="M47.514 6.775L47.514 7.618 47.079 7.618 47.079 6.775 47.079 6.4 47.079 4.83 47.07 4.83 45.966 6.4 47.079 6.4 47.079 6.775 45.567 6.775 45.567 6.351 47.154 4.155 47.514 4.155 47.514 6.4 48.021 6.4 48.021 6.775 47.514 6.775z"/>
  <path stroke="none" fill="#000000" d="M1.375 53.118C1.449 53.122 1.528 53.128 1.601 53.128 1.938 53.128 2.262 52.994 2.262 52.561 2.262 52.354 2.139 52.015 1.621 52.015 1.006 52.015 0.967 52.517 0.947 52.758 0.947 52.758 0.947 52.758 0.524 52.758 0.524 52.25 0.731 51.625 1.641 51.625 2.311 51.625 2.71 52.009 2.71 52.536 2.71 52.979 2.455 53.192 2.266 53.25L2.266 53.261C2.602 53.368 2.843 53.604 2.843 54.069 2.843 54.634 2.479 55.182 1.597 55.182 1.34 55.182 1.125 55.118 0.957 55.029 0.573 54.826 0.47 54.427 0.44 54.029 0.44 54.029 0.44 54.029 0.888 54.029 0.903 54.353 0.982 54.792 1.627 54.792 2.071 54.792 2.381 54.521 2.381 54.122 2.381 53.542 1.867 53.487 1.573 53.487 1.508 53.487 1.439 53.493 1.375 53.493 1.375 53.118 1.375 53.118 1.375 53.118z"/>
  <path stroke="none" fill="#000000" d="M18.175 38.46C18.175 37.332 18.998 37.219 19.371 37.219 19.972 37.219 20.454 37.609 20.454 38.253 20.454 38.875 20.047 39.136 19.528 39.411 19.528 39.411 19.528 39.411 19.17 39.607 18.696 39.868 18.594 40.14 18.574 40.273 18.574 40.273 18.574 40.273 20.454 40.273 20.454 40.273 20.454 40.273 20.454 40.682 20.454 40.682 20.454 40.682 18.085 40.682 18.111 39.963 18.435 39.579 18.899 39.307 18.899 39.307 18.899 39.307 19.356 39.042 19.725 38.829 19.992 38.688 19.992 38.234 19.992 37.957 19.815 37.609 19.307 37.609 18.652 37.609 18.623 38.219 18.609 38.46 18.175 38.46 18.175 38.46 18.175 38.46z"/>
  <path stroke="none" fill="#000000" d="M24.795 103.947C24.795 103.947 24.795 103.947 24.332 103.947 24.332 103.947 24.332 103.947 24.332 101.489 24.332 101.489 24.332 101.489 23.524 101.489 23.524 101.489 23.524 101.489 23.524 101.144 24.085 101.105 24.317 101.052 24.454 100.484 24.454 100.484 24.454 100.484 24.795 100.484 24.795 103.947 24.795 103.947 24.795 103.947z"/>
  <path stroke="none" fill="#000000" d="M27.833 103.105L27.833 103.947 27.399 103.947 27.399 103.105 27.399 102.73 27.399 101.159 27.39 101.159 26.286 102.73 27.399 102.73 27.399 103.105 25.888 103.105 25.888 102.682 27.474 100.484 27.833 100.484 27.833 102.73 28.341 102.73 28.341 103.105 27.833 103.105z"/>
 </g>
 <g id="Picture_x0020_#">
  <text transform="matrix(0 -1 1 0 148.818 100.483)" stroke="none" fill="#000000" font-family="'Arial'" font-size="2.117">362 734</text>
  <path stroke-width="0.3" stroke-linejoin="round" d="M20.731 99.411L20.731 93.177L15.439 93.177L15.439 99.411L20.731 99.411z"/>
  <path stroke-width="0.3" stroke-linejoin="round" d="M15.41 99.411L20.673 93.207"/>
  <path stroke="none" fill="#000000" d="M17.434 96.295C17.434 95.938 17.724 95.647 18.08 95.647 18.439 95.647 18.728 95.938 18.728 96.295 18.728 96.652 18.439 96.941 18.08 96.941 17.724 96.941 17.434 96.652 17.434 96.295z"/>
  <path stroke="#FFFFFF" stroke-width="0.501" d="M22.429 102.278L19.071 98.739"/>
  <path stroke-width="0.131" d="M22.429 102.278L19.071 98.739"/>
 </g>
</svg>
