<?xml version="1.0" encoding="utf-8"?>
<!DOCTYPE svg PUBLIC "-//W3C//DTD SVG 1.1//EN" "http://www.w3.org/Graphics/SVG/1.1/DTD/svg11.dtd">
<!-- Generator: PTC Arbortext IsoDraw 7.3 -->
<svg width="100%" height="100%" viewBox="0 0 75.006 64.927"
 xmlns="http://www.w3.org/2000/svg" xmlns:xlink="http://www.w3.org/1999/xlink"
 fill-rule="evenodd" clip-rule="evenodd" stroke="#000000" stroke-linecap="round" fill="none" xml:space="preserve">
 <g id="Colour">
  <path stroke="none" fill="#999999" d="M27.143 15.952L27.268 10.608C27.268 10.608 27.596 9.58 28.254 9.375 28.911 9.169 33.145 7.895 33.719 7.28 34.295 6.663 35.527 5.429 36.515 4.895 37.5 4.362 40.255 3.169 40.255 3.169 40.255 3.169 43.789 1.608 46.296 1.443 48.804 1.278 51.475 1.237 52.871 1.484 54.27 1.73 55.091 1.937 55.091 1.937L58.133 2.471 61.338 1.567C61.338 1.567 62.734 1.732 63.393 2.718 64.049 3.703 64.503 5.883 64.42 7.073 64.337 8.266 63.911 10.787 63.911 10.787L60.679 12.663C60.679 12.663 60.926 15.785 60.72 16.155 60.515 16.525 59.692 17.225 58.665 17.594 57.639 17.964 52.048 19.772 49.418 19.896 46.789 20.019 39.023 19.321 39.023 19.321L35.734 17.143C35.734 17.143 34.953 17.8 33.639 17.964 32.323 18.129 30.515 18.21 30.185 18.17 29.856 18.129 28.707 17.923 28.707 17.923L27.143 15.952z"/>
  <path stroke="none" fill="#999999" d="M32.604 55.832L34.374 58.484C34.374 58.484 34.606 59.926 34.932 61.183 35.258 62.439 35.862 63.649 35.862 63.649L40.189 64.394 44.097 62.299 47.448 62.999C47.448 62.999 50.984 62.347 53.822 61.277 56.659 60.207 57.359 60.345 58.615 58.531 59.871 56.716 60.149 54.902 59.917 53.228 59.685 51.552 58.475 46.807 58.475 46.807 58.475 46.807 58.055 45.643 57.405 44.853 56.753 44.061 55.868 43.317 55.868 43.317 55.868 43.317 54.845 45.039 54.381 45.875 53.914 46.713 53.682 47.969 52.24 48.901 50.798 49.831 49.634 50.109 48.098 50.435 46.564 50.762 45.633 50.901 44.609 50.854 43.585 50.807 42.097 50.204 42.097 50.204L41.445 49.645C41.445 49.645 40.933 50.576 39.445 51.738 37.957 52.902 36.42 54.39 35.21 54.856 34.002 55.322 32.604 55.832 32.604 55.832z"/>
  <path stroke="none" fill="#FFFFFF" d="M38.546 7.751L38.322 5.278C38.322 5.278 37.534 3.818 42.479 2.468 47.426 1.12 51.359 1.008 52.595 1.345 53.832 1.683 55.18 2.132 55.631 2.357 56.079 2.581 57.204 4.155 57.204 4.155L57.204 5.729C57.204 5.729 57.091 7.301 54.844 8.089 52.595 8.875 49.673 9.774 45.965 9.887 42.256 10 38.996 8.875 38.546 7.751z"/>
 </g>
 <g id="Standard_x0020_layer">
  <path stroke="none" fill="#FFFFFF" d="M30.666 18.114C30.666 18.114 31.359 22.658 31.359 24.172 31.359 25.686 30.855 28.588 30.855 28.588L32.243 28.841C32.243 28.841 32.874 27.201 32.747 25.496 32.621 23.792 32.054 18.05 32.054 18.05L30.666 18.114z"/>
  <path stroke="none" fill="#FFFFFF" d="M30.917 13.002C31.106 13.128 32.368 14.329 32.368 14.329 32.368 14.329 36.975 18.745 38.301 21.205 39.625 23.667 43.915 30.103 44.609 31.617 45.304 33.131 46.503 34.899 46.503 36.161 46.503 37.421 46.692 39 46.692 39.505 46.692 40.009 47.323 44.993 47.323 44.993L45.935 48.274 44.168 54.143C44.168 54.143 43.002 57.429 42.622 57.933 42.243 58.438 41.518 58.917 41.518 58.917L40.42 58.82 40.256 60.137C40.256 60.137 41.643 60.579 42.149 60.326 42.654 60.073 44.798 57.045 45.871 55.53 46.945 54.017 47.261 52.755 47.701 51.177 48.143 49.6 48.521 47.643 48.521 47.643L48.649 45.057 49.72 43.353 50.162 43.228 51.865 44.173 52.75 44.048C52.75 44.048 52.939 45.561 53.633 46.57 54.326 47.581 55.337 48.085 55.337 48.085L56.03 46.887C56.03 46.887 54.137 45.939 54.137 45.057 54.137 44.173 54.579 43.542 54.579 43.289 54.579 43.037 54.579 42.344 54.579 42.344 54.579 42.344 55.588 41.84 55.652 41.587 55.715 41.335 56.598 37.737 57.165 37.295 57.734 36.854 57.987 36.161 57.987 36.161 57.987 36.161 56.536 36.601 56.156 37.295 55.777 37.99 54.768 41.018 54.517 41.082 54.264 41.145 53.002 41.335 53.002 41.335L52.56 40.64 51.74 40.325C51.74 40.325 51.676 38.811 52.433 37.485 53.191 36.161 57.923 24.865 59.185 23.352 60.448 21.836 61.268 20.071 61.142 18.934 61.015 17.798 60.32 16.474 60.32 16.474L59.5 17.231C59.5 17.231 60.384 17.484 59.942 18.682 59.5 19.882 57.923 22.657 57.481 23.541 57.039 24.423 50.478 38.304 50.225 39.063 49.972 39.82 49.656 40.578 49.972 40.893 50.289 41.207 50.603 41.84 50.603 41.84L49.469 42.155 48.521 42.722C48.521 42.722 47.701 41.649 47.89 39.947 48.079 38.243 48.143 36.286 47.386 34.331 46.628 32.375 42.906 25.559 41.707 24.045 40.509 22.53 39.435 20.323 38.615 19.376 37.795 18.429 36.029 16.222 36.029 16.222L32.874 12.625 32.045 11.725C32.045 11.725 31.675 12.057 31.422 12.246 31.17 12.435 30.917 13.002 30.917 13.002z"/>
  <path stroke-width="0.131" stroke-linejoin="round" d="M38.348 5.445C38.521 7.139 42.63 8.112 47.573 7.642"/>
  <path stroke-width="0.131" stroke-linejoin="round" d="M52.936 6.516C55.35 5.663 56.579 4.58 56.49 3.601"/>
  <path stroke-width="0.131" stroke-linejoin="round" d="M38.426 6.291C38.622 8.07 42.997 9.048 48.198 8.474C53.399 7.902 57.456 5.993 57.259 4.216"/>
  <path stroke-width="0.131" stroke-linejoin="round" d="M38.496 7.416C38.497 7.453 38.5 7.49 38.503 7.522C38.7 9.3 43.075 10.276 48.276 9.705C53.475 9.131 57.533 7.224 57.337 5.445"/>
  <path stroke-width="0.131" stroke-linejoin="round" d="M60.411 6.984L59.103 4.524"/>
  <path stroke-width="0.131" stroke-linejoin="round" d="M59.103 4.524L63.793 3.294"/>
  <path stroke-width="0.131" stroke-linejoin="round" d="M60.872 12.364L63.948 10.98"/>
  <path stroke-width="0.131" stroke-linejoin="round" d="M29.278 18.129L29.126 11.98"/>
  <path stroke-width="0.131" stroke-linejoin="round" d="M29.432 10.827L35.506 9.367"/>
  <path stroke-width="0.131" stroke-linejoin="round" d="M35.966 10.519L36.197 16.207"/>
  <path stroke-width="0.131" stroke-linejoin="round" d="M36.658 9.673L38.887 10.98"/>
  <path stroke-width="0.131" stroke-linejoin="round" d="M39.042 11.673L38.887 19.282"/>
  <path stroke-width="0.131" stroke-linejoin="round" d="M40.194 11.749C43.347 12.364 49.649 12.288 52.493 11.365C55.338 10.442 60.566 8.368 60.411 6.984"/>
  <path stroke-width="0.131" stroke-linejoin="round" d="M27.742 9.519L28.894 10.519"/>
  <path stroke-width="0.131" stroke-linejoin="round" d="M37.408 20.091C36.932 24.484 35.344 28.318 33.429 28.815"/>
  <path stroke-width="0.131" stroke-linejoin="round" d="M47.112 20.359C46.843 22.67 45.975 26.216 44.915 29.314"/>
  <path stroke-width="0.131" stroke-linejoin="round" d="M44.317 30.963C43.408 33.301 42.423 35.14 41.578 35.579"/>
  <path stroke-width="0.131" stroke-linejoin="round" d="M48.573 20.434C48.957 24.432 48.034 25.126 47.267 26.969"/>
  <path stroke-width="0.131" stroke-linejoin="round" d="M55.261 18.667C55.981 20.881 57.338 22.059 58.499 22.172"/>
  <path stroke-width="0.131" stroke-linejoin="round" d="M31.047 14.9C31.533 15.509 32.432 15.646 33.314 15.314"/>
  <path stroke-width="0.131" stroke-linejoin="round" d="M34.463 14.545C35.29 13.676 35.451 12.535 34.89 11.826"/>
  <path stroke-width="0.131" stroke-linejoin="round" d="M60.618 9.936C61.142 9.864 61.64 9.631 62.049 9.301C63.112 8.452 63.445 7.105 62.795 6.291"/>
  <path stroke-width="0.131" stroke-linejoin="round" d="M51.56 39.287C52.64 39.347 53.755 38.643 54.616 37.487"/>
  <path stroke-width="0.131" stroke-linejoin="round" d="M55.975 34.271C56.218 32.887 56.058 31.632 55.603 30.725"/>
  <path stroke-width="0.131" stroke-linejoin="round" d="M54.78 29.701C54.561 29.536 54.329 29.417 54.109 29.353C52.362 28.807 50.258 30.568 49.408 33.283C48.662 35.673 49.134 38.005 50.463 38.917"/>
  <path stroke-width="0.131" stroke-linejoin="round" d="M53.92 46.896C53.07 48.237 51.814 49.524 49.726 50.031C49.145 50.171 48.531 50.329 47.904 50.468"/>
  <path stroke-width="0.131" stroke-linejoin="round" d="M45.18 50.853C43.979 50.886 42.835 50.665 41.886 49.954"/>
  <path stroke-width="0.131" stroke-linejoin="round" d="M58.412 47.572C58.027 49.493 56.567 54.259 47.804 55.719"/>
  <path stroke-width="0.131" stroke-linejoin="round" d="M35.119 56.18L38.656 52.953"/>
  <path stroke-width="0.131" stroke-linejoin="round" d="M42.963 54.643C41.578 55.411 39.347 56.258 39.273 58.487C39.195 60.716 39.273 63.484 39.273 63.484"/>
  <path stroke-width="0.131" stroke-linejoin="round" d="M44.037 62.331L43.884 59.332"/>
  <path stroke-width="0.131" stroke-linejoin="round" d="M46.728 62.868C47.957 62.1 48.112 57.564 47.497 56.334C46.881 55.103 45.959 55.182 45.959 55.182"/>
  <path stroke-width="0.131" stroke-linejoin="round" d="M41.347 61.792C42.085 61.874 42.784 61.012 42.911 59.865C42.915 59.829 42.92 59.795 42.923 59.765"/>
  <path stroke-width="0.131" stroke-linejoin="round" d="M42.529 58.095C42.057 57.457 41.329 57.494 40.798 58.143"/>
  <path stroke-width="0.131" stroke-linejoin="round" d="M40.47 61.079C40.688 61.514 41.006 61.755 41.347 61.792"/>
  <path stroke-width="0.131" stroke-linejoin="round" d="M43.037 44.112C44.192 44.189 45.113 44.189 45.113 46.188C45.113 48.185 45.113 48.185 45.113 48.185"/>
  <path stroke-width="0.131" stroke-linejoin="round" d="M56.567 42.268C55.695 43.012 54.838 43.747 54.048 44.402"/>
  <path stroke-width="0.131" stroke-linejoin="round" d="M52.984 45.259C51.89 46.109 51.003 46.686 50.496 46.725"/>
  <path stroke-width="0.131" stroke-linejoin="round" d="M59.643 34.195L63.332 31.352"/>
  <path stroke-width="0.131" stroke-linejoin="round" d="M63.332 31.352C64.793 29.123 64.254 25.739 63.101 23.048C62.286 21.144 61.392 20.472 60.832 20.134"/>
  <path stroke-width="0.131" stroke-linejoin="round" d="M62.822 31.015C63.21 30.42 63.436 29.734 63.539 28.998C63.795 27.173 63.304 25.073 62.539 23.291C62.283 22.693 62.021 22.225 61.762 21.858C61.335 21.243 60.924 20.92 60.609 20.716"/>
  <path stroke-width="0.131" stroke-linejoin="round" d="M65.1 34.963C68.253 31.736 68.406 28.429 68.099 25.817C67.792 23.204 65.638 19.359 64.716 17.977C63.793 16.591 62.487 15.285 61.564 14.824"/>
  <path stroke-width="0.131" stroke-linejoin="round" d="M65.621 35.473C66.626 34.442 67.343 33.402 67.849 32.381C69.028 29.99 69.051 27.681 68.82 25.731C68.79 25.472 68.742 25.199 68.68 24.919"/>
  <path stroke-width="0.131" stroke-linejoin="round" d="M67.103 20.739C66.447 19.396 65.754 18.222 65.322 17.573C64.322 16.073 62.89 14.673 61.89 14.173"/>
  <path stroke-width="0.131" stroke-linejoin="round" d="M22.076 35.07C19.329 36.433 19.015 41.395 21.376 46.154C23.736 50.911 27.878 53.664 30.625 52.301"/>
  <path stroke-width="0.131" stroke-linejoin="round" d="M32.676 55.787C36.503 53.88 36.926 46.96 33.621 40.332C30.315 33.706 24.535 29.879 20.707 31.786"/>
  <path stroke-width="0.131" stroke-linejoin="round" d="M20.708 31.786C23.992 30.899 23.513 29.393 28.71 32.813"/>
  <path stroke-width="0.131" stroke-linejoin="round" d="M34.454 40.06C36.777 44.027 36.915 48.404 36.71 49.496C36.505 50.591 36.643 54.42 32.676 55.787"/>
  <path stroke-width="0.131" stroke-linejoin="round" d="M23.239 35.274C20.983 36.777 20.094 38.625 21.05 42.043"/>
  <path stroke-width="0.131" stroke-linejoin="round" d="M21.393 42.591C22.282 43.206 23.033 43.206 22.829 43.89C22.623 44.575 22.692 45.051 21.257 45.667"/>
  <path stroke-width="0.131" stroke-linejoin="round" d="M23.992 35.171C21.736 36.676 20.846 38.521 21.803 41.941"/>
  <path stroke-width="0.131" stroke-linejoin="round" d="M22.896 48.47C23.306 47.308 24.881 46.488 25.291 47.308C25.701 48.13 25.428 48.13 25.701 48.676C25.975 49.223 25.975 49.566 26.521 49.908C27.068 50.25 28.231 51.137 29.257 50.933C30.282 50.728 32.744 49.087 32.881 46.692"/>
  <path stroke-width="0.131" stroke-linejoin="round" d="M24.128 47.515C24.949 47.924 25.018 48.47 25.153 49.359C25.291 50.25 26.178 50.387 26.862 50.728C27.547 51.07 29.257 50.933 29.257 50.933"/>
  <path stroke-width="0.131" stroke-linejoin="round" d="M22.076 45.395L23.239 47.719"/>
  <path stroke-width="0.131" stroke-linejoin="round" d="M26.809 13.468C24.301 14.471 22.496 18.885 22.196 19.588C21.894 20.289 19.185 26.408 19.387 28.013"/>
  <path stroke-width="0.131" stroke-linejoin="round" d="M26.338 12.292C25.408 12.664 24.539 13.394 23.792 14.288C22.282 16.094 21.257 18.562 21.03 19.088L21.033 19.085L20.957 19.262L20.957 19.26C20.39 20.568 17.958 26.44 18.123 28.106"/>
  <path stroke-width="0.131" stroke-linejoin="round" d="M44.125 54.378L42.957 57.466"/>
  <path stroke-width="0.3" stroke-linejoin="round" d="M56.49 3.601C56.317 1.887 52.115 0.911 47.104 1.419C42.095 1.931 38.176 3.732 38.348 5.445"/>
  <path stroke-width="0.3" stroke-linejoin="round" d="M57.337 5.445L57.259 4.216"/>
  <path stroke-width="0.3" stroke-linejoin="round" d="M38.503 7.522L38.426 6.291"/>
  <path stroke-width="0.3" stroke-linejoin="round" d="M57.259 4.216L56.49 3.14"/>
  <path stroke-width="0.3" stroke-linejoin="round" d="M38.426 6.291L38.348 5.445"/>
  <path stroke-width="0.3" stroke-linejoin="round" d="M38.965 3.831C36.505 4.599 34.737 5.908 34.198 6.907C33.661 7.905 28.51 9.288 28.202 9.288C27.894 9.288 27.28 9.903 27.28 10.75C27.28 11.596 27.126 15.977 27.126 15.977C27.126 15.977 28.434 17.361 28.818 17.821C29.202 18.283 33.506 18.129 34.353 17.745C34.744 17.567 35.07 17.504 35.345 17.518"/>
  <path stroke-width="0.3" stroke-linejoin="round" d="M38.293 18.99C38.64 19.163 38.887 19.282 38.887 19.282C38.887 19.282 46.805 20.359 50.957 19.667C55.107 18.975 60.027 17.283 60.566 16.283C61.103 15.285 60.411 6.984 60.411 6.984"/>
  <path stroke-width="0.3" stroke-linejoin="round" d="M63.948 10.98C64.793 8.212 64.563 4.754 63.793 3.294C63.026 1.833 61.719 1.756 61.564 1.68C61.411 1.601 57.875 2.524 57.875 2.524C57.875 2.524 57.029 2.294 54.646 1.987"/>
  <path stroke-width="0.3" stroke-linejoin="round" d="M34.89 11.826C34.238 11.012 32.851 11.042 31.791 11.891C30.73 12.74 30.396 14.087 31.047 14.9"/>
  <path stroke-width="0.3" stroke-linejoin="round" d="M62.795 6.291C62.201 5.551 60.996 5.509 59.972 6.158"/>
  <path stroke-width="0.3" stroke-linejoin="round" d="M59.948 22.004C59.929 25.903 59.755 37.213 59.103 38.731C58.412 40.345 57.029 41.805 55.953 43.343C54.877 44.881 54.646 45.112 54.414 46.033"/>
  <path stroke-width="0.3" stroke-linejoin="round" d="M55.953 43.343C55.953 43.343 58.49 45.265 58.412 47.572"/>
  <path stroke-width="0.3" stroke-linejoin="round" d="M58.567 46.572C58.567 46.572 60.027 52.875 60.027 54.104C60.027 55.335 60.027 57.795 57.491 59.564C54.954 61.332 48.496 63.098 47.343 62.945C46.189 62.792 44.037 62.331 44.037 62.331L40.118 64.253C40.118 64.253 36.121 63.868 35.89 63.715C35.658 63.561 33.353 59.256 35.119 56.18"/>
  <path stroke-width="0.3" stroke-linejoin="round" d="M40.798 58.143C40.188 58.896 40.04 60.21 40.47 61.079"/>
  <path stroke-width="0.3" stroke-linejoin="round" d="M34.353 58.256L32.676 55.787"/>
  <path stroke-width="0.3" stroke-linejoin="round" d="M59.566 34.81C61.948 35.195 63.793 35.963 65.87 34.963C67.944 33.965 71.558 31.582 72.019 31.274C72.48 30.968 74.403 27.431 74.171 25.047C73.941 22.666 73.019 19.282 71.405 17.053C69.789 14.824 66.177 11.134 63.948 10.98"/>
  <path stroke-width="0.3" stroke-linejoin="round" d="M30.625 52.301C33.371 50.938 33.686 45.975 31.326 41.218C28.964 36.459 24.824 33.706 22.076 35.07"/>
  <path stroke-width="0.3" stroke-linejoin="round" d="M20.707 31.786C16.882 33.695 16.458 40.615 19.763 47.243C23.068 53.869 28.85 57.695 32.676 55.787"/>
  <path stroke-width="0.3" stroke-linejoin="round" d="M20.708 31.786C22.35 30.693 25.701 28.64 27.478 28.435C29.257 28.231 31.649 28.367 33.085 29.257C34.521 30.146 38.283 32.881 39.581 35.411C40.881 37.941 42.659 42.249 42.454 43.959C42.249 45.667 41.975 49.087 40.881 50.387C39.786 51.686 36.298 54.625 33.905 55.445"/>
  <path stroke-width="0.3" stroke-linejoin="round" d="M22.797 8.253L4.341 0.329"/>
  <path stroke-width="0.3" stroke-linejoin="round" d="M18.608 33.534L1.633 25.103"/>
  <path stroke-width="0.3" stroke-linejoin="round" d="M28.202 9.288L25.705 8.153C25.705 8.153 24.402 7.251 22.797 8.253C21.193 9.256 17.882 13.167 16.577 16.378C15.274 19.588 13.971 24.603 13.971 25.103C13.971 25.606 13.669 26.207 14.672 26.609C15.676 27.009 19.185 28.515 19.387 28.013"/>
  <path stroke-width="0.349" stroke-linejoin="round" d="M30.917 13.002C31.257 13.412 32.6 14.567 33.167 15.16C34.802 16.875 37.216 19.397 39.185 22.809C39.86 23.981 40.67 25.213 41.506 26.484C43.905 30.129 46.564 34.082 46.564 37.765C46.564 40.012 46.753 41.319 46.92 42.485C47.048 43.369 47.164 44.168 47.167 45.271"/>
  <path stroke-width="0.349" stroke-linejoin="round" d="M46.981 48.095C46.396 52.701 43.801 56.284 42.957 57.466L42.595 57.994C42.353 58.359 42.18 58.664 41.901 58.835C41.817 58.886 41.722 58.92 41.61 58.938C41.374 58.978 41.084 58.956 40.703 58.884"/>
  <path stroke-width="0.349" stroke-linejoin="round" d="M32.045 11.725C32.371 12.117 33.61 13.653 34.154 14.22C35.844 15.992 38.332 18.603 40.365 22.129C41.029 23.277 41.825 24.486 42.645 25.734C45.195 29.609 47.926 33.851 47.926 37.765C47.926 39.92 48.107 41.173 48.27 42.292C48.319 42.631 48.365 42.957 48.406 43.289"/>
  <path stroke-width="0.349" stroke-linejoin="round" d="M48.52 44.664C48.552 45.531 48.521 46.564 48.368 47.978C47.817 53.024 44.982 56.975 44.066 58.259L44.073 58.247L43.725 58.758L43.728 58.75C43.356 59.31 43.042 59.735 42.609 60C42.387 60.134 42.134 60.232 41.832 60.281C41.472 60.341 41.027 60.332 40.448 60.222"/>
  <path stroke-width="0.349" stroke-linejoin="round" d="M32.079 18.121C32.539 21.974 32.853 27.297 32.396 28.489"/>
  <path stroke-width="0.349" stroke-linejoin="round" d="M30.754 18.28C31.184 21.897 31.579 26.89 31.147 28.01"/>
  <path stroke-width="0.349" stroke-linejoin="round" d="M60.572 16.682C60.911 17.33 61.072 17.943 61.09 18.554C61.128 19.879 60.469 21.213 59.396 22.954C58.39 24.591 56.506 28.736 54.918 32.231L52.195 38.026C51.561 39.287 51.119 40.054 51.152 40.581C51.158 40.661 51.194 40.722 51.259 40.774"/>
  <path stroke-width="0.349" stroke-linejoin="round" d="M59.53 17.228C59.777 17.699 59.901 18.144 59.914 18.588C59.948 19.727 59.314 20.844 58.395 22.339C57.372 23.998 55.46 28.199 53.853 31.733L51.142 37.503C50.371 39.036 49.939 40.012 49.979 40.655C50.006 41.078 50.177 41.414 50.524 41.692"/>
  <path stroke-width="0.349" stroke-linejoin="round" d="M49.871 43.154C49.713 43.162 49.546 43.34 49.337 43.563C48.645 44.301 47.851 45.71 47.363 47.012C46.741 48.671 45.85 51.682 45.32 53.468L44.972 54.631"/>
  <path stroke-width="0.349" stroke-linejoin="round" d="M50.296 42.392C50.154 42.301 49.994 42.262 49.822 42.271C49.512 42.289 49.103 42.518 48.692 42.959C47.939 43.762 47.066 45.286 46.536 46.701C45.908 48.377 45.006 51.414 44.472 53.218L44.473 53.216L44.125 54.378"/>
  <path stroke-width="0.349" stroke-linejoin="round" d="M52.049 40.969C51.652 40.472 51.795 39.796 51.152 40.581C50.511 41.366 50.411 41.366 50.411 42.012C50.411 42.655 49.817 42.856 50.362 43.203C50.908 43.549 50.859 43.948 51.354 43.549"/>
  <path stroke-width="0.349" stroke-linejoin="round" d="M52.948 41.356C52.548 40.859 52.692 40.185 52.049 40.969C51.408 41.753 51.308 41.753 51.308 42.399C51.308 43.045 50.713 43.243 51.259 43.591C51.805 43.938 51.756 44.335 52.253 43.938"/>
  <path stroke-width="0.349" stroke-linejoin="round" d="M53.311 43.6C53.311 43.356 53.304 43.155 53.296 42.987C53.289 42.77 53.261 42.633 53.302 42.53L53.298 42.536C53.387 42.427 53.576 42.378 53.908 42.249C54.191 42.137 54.375 42.113 54.512 42.097C54.625 42.081 54.719 42.064 54.799 42.039C54.926 41.999 55.034 41.936 55.142 41.829C55.304 41.665 55.481 41.316 55.814 40.439L55.941 40.098C56.366 38.966 56.755 37.884 57.337 37.265C57.529 37.06 57.743 36.911 57.999 36.86"/>
  <path stroke-width="0.349" stroke-linejoin="round" d="M52.377 43.6C52.377 43.371 52.369 43.182 52.362 43.024C52.347 42.619 52.436 42.177 52.436 42.177C52.436 42.177 52.515 42.015 52.576 41.942C52.725 41.759 53.006 41.597 53.567 41.378C53.951 41.228 54.203 41.194 54.389 41.168C54.438 41.162 54.476 41.161 54.512 41.149L54.479 41.168C54.6 41.048 54.691 40.765 54.939 40.109L54.939 40.109L55.067 39.77L55.067 39.771C55.54 38.506 56.006 37.314 56.656 36.625C56.99 36.268 57.371 36.033 57.817 35.944"/>
  <path stroke-width="0.349" stroke-linejoin="round" d="M53.2 42.896C53.259 42.95 53.31 42.994 53.332 43.048L53.337 43.075C53.334 43.228 53.234 43.399 53.085 43.646C52.978 43.825 52.905 44.045 52.881 44.298C52.837 44.756 52.951 45.347 53.259 45.947C53.662 46.732 54.396 47.542 55.472 48.051"/>
  <path stroke-width="0.349" stroke-linejoin="round" d="M53.978 42.02C54.185 42.204 54.323 42.389 54.408 42.578C54.478 42.741 54.514 42.912 54.511 43.097C54.505 43.399 54.381 43.765 54.091 44.249C54.064 44.293 54.055 44.35 54.048 44.412C54.021 44.692 54.115 45.045 54.304 45.409C54.606 46.003 55.164 46.606 55.975 46.991"/>
  <path stroke-width="0.349" stroke-linejoin="round" d="M55.975 46.991L55.472 48.051"/>
  <path stroke-width="0.349" stroke-linejoin="round" d="M57.817 35.944L57.999 36.86"/>
 </g>
 <g id="A4_x0020_half_x0020_frame">
  <g>
   <path stroke="#FFFFFF" stroke-width="0.006" d="M75.003 64.924L75.003 0.003L0.003 0.003L0.003 64.924L75.003 64.924z"/>
  </g>
 </g>
 <g id="Picture_x0020_#">
  <g>
   <g>
    <g>
     <g>
      <text transform="matrix(0 -1 1 0 73.817 63.911)" stroke="none" fill="#000000" font-family="'Arial'" font-size="2.117">364 084</text>
     </g>
    </g>
   </g>
  </g>
 </g>
</svg>
