<?xml version="1.0" encoding="utf-8"?>
<!DOCTYPE svg PUBLIC "-//W3C//DTD SVG 1.1//EN" "http://www.w3.org/Graphics/SVG/1.1/DTD/svg11.dtd">
<!-- Generator: PTC Arbortext IsoDraw 7.3 -->
<svg width="100%" height="100%" viewBox="0 0 75.006 39.551"
 xmlns="http://www.w3.org/2000/svg" xmlns:xlink="http://www.w3.org/1999/xlink"
 fill-rule="evenodd" clip-rule="evenodd" stroke="#000000" stroke-linecap="round" fill="none" xml:space="preserve">
 <g id="Colour">
  <path stroke="none" fill="#B2B2B2" d="M25.69 10.667C25.69 10.667 25.777 11.256 26.219 11.609 26.66 11.961 27.042 12.521 27.483 12.227 27.923 11.932 28.364 11.492 28.629 11.108 28.893 10.727 28.864 10.58 29.217 10.58 29.571 10.58 29.981 10.521 29.981 10.521L30.452 9.727 31.275 9.522 31.216 9.227 30.481 8.493 29.893 8.522 29.746 8.198 28.718 8.022C28.718 8.022 28.423 7.934 28.277 8.14 28.129 8.346 27.894 8.698 27.894 8.698L26.719 8.669 27.6 9.316C27.6 9.316 27.689 10.08 27.16 10.58 26.631 11.08 26.425 11.021 26.425 11.021L25.69 10.667z"/>
  <path stroke="none" fill="#B2B2B2" d="M29.509 13.263C29.509 13.263 29.542 13.858 29.949 14.25 30.355 14.641 30.684 15.234 31.15 14.98 31.617 14.728 32.095 14.33 32.395 13.974 32.694 13.618 32.677 13.47 33.03 13.502 33.381 13.535 33.795 13.513 33.795 13.513L34.338 12.766 40.667 13.586 41.637 13.432 41.439 12.881 40.029 12.396 34.481 11.539 33.893 11.516 33.776 11.179 32.768 10.909C32.768 10.909 32.484 10.794 32.317 10.986 32.152 11.176 31.885 11.506 31.885 11.506L30.718 11.368 31.536 12.093C31.536 12.093 31.553 12.862 30.98 13.311 30.407 13.76 30.207 13.683 30.207 13.683L29.509 13.263z"/>
  <path stroke="none" fill="#B2B2B2" id="AUTOID_1247" d="M32.74 8.317L31.942 7.81 32.018 7.464 36.462 6.04C36.462 6.04 38.142 5.642 38.6 5.687 39.06 5.732 39.079 5.982 39.131 6.056 39.18 6.129 38.319 6.679 38.014 6.79 37.801 6.865 34.686 7.793 32.789 8.355L32.74 8.317z"/>
 </g>
 <g id="Standard_x0020_layer">
  <g>
   <path stroke-width="0.3" stroke-linejoin="round" d="M10.579 4.435L9.638 3.966L6.464 5.2L4.112 7.434C4.112 7.434 4.171 8.375 4.288 9.14C4.405 9.903 4.817 10.492 4.817 10.492L8.169 12.196C8.169 12.196 10.285 11.492 10.814 11.256C11.343 11.021 11.932 10.609 11.932 10.609L13.931 8.727C13.931 8.727 14.106 7.081 13.284 5.964"/>
   <path stroke-width="0.131" stroke-linejoin="round" d="M6.464 5.2C6.464 5.2 6.758 5.788 6.934 6.669C7.11 7.551 7.168 8.198 7.168 8.198C7.168 8.198 8.462 8.433 9.345 9.022C10.226 9.609 10.756 10.198 10.756 10.198C10.756 10.198 12.05 9.375 13.166 8.964"/>
   <path stroke-width="0.131" stroke-linejoin="round" d="M7.168 8.198L4.817 10.492"/>
   <path stroke-width="0.131" stroke-linejoin="round" d="M10.756 10.198L8.169 12.196"/>
   <path stroke-width="0.131" stroke-linejoin="round" id="AUTOID_1254" d="M13.079 5.964C13.817 6.843 14.007 7.884 13.461 8.64C12.693 9.707 10.75 9.804 9.124 8.856C7.496 7.91 6.801 6.277 7.57 5.209C8.188 4.352 9.561 4.121 10.922 4.554"/>
   <path stroke-width="0.131" stroke-linejoin="round" id="AUTOID_1255" d="M12.05 6.794C12.217 7.145 12.217 7.511 12.012 7.796"/>
   <path stroke-width="0.131" stroke-linejoin="round" id="AUTOID_1256" d="M9.019 6.054C9.204 5.799 9.518 5.653 9.884 5.62"/>
   <path stroke-width="0.3" stroke-linejoin="round" id="AUTOID_1257" d="M12.012 7.796C11.621 8.337 10.635 8.385 9.808 7.905C8.983 7.424 8.63 6.596 9.019 6.054"/>
   <g>
    <path stroke-width="0.3" stroke-linejoin="round" d="M26.309 10.945C24.596 9.906 22.318 8.669 19.196 6.974L18.835 6.777C14.708 4.535 13.201 5.689 12.301 6.376C11.92 6.669 11.507 7.23 11.029 7.881C10.996 7.926 10.961 7.972 10.928 8.019"/>
    <path stroke-width="0.3" stroke-linejoin="round" d="M29.844 13.521C29.414 13.092 28.928 12.702 28.359 12.288C28.228 12.192 28.091 12.095 27.948 11.996"/>
    <path stroke-width="0.3" stroke-linejoin="round" d="M31.879 29.67C33.072 26.135 32.985 20.047 32.097 17.481C31.763 16.516 31.431 15.756 31.067 15.122"/>
    <path stroke-width="0.3" stroke-linejoin="round" d="M16.161 32.945C18.736 33.281 21.32 33.615 22.699 33.783C23.463 33.875 24.173 33.924 24.836 33.932"/>
    <path stroke-width="0.3" stroke-linejoin="round" d="M26.853 35.947C26.211 36.031 25.589 36.064 25.015 36.064C23.931 36.064 23.015 35.953 22.446 35.884C21.027 35.713 18.341 35.365 15.701 35.018"/>
    <path stroke-width="0.3" stroke-linejoin="round" d="M32.712 13.75C33.215 14.561 33.664 15.537 34.098 16.789C35.148 19.82 35.249 26.809 33.688 30.864"/>
    <path stroke-width="0.3" stroke-linejoin="round" d="M29.682 10.634C30.283 11.073 30.815 11.505 31.295 11.977"/>
    <path stroke-width="0.3" stroke-linejoin="round" d="M9.185 6.814C9.233 6.751 9.278 6.689 9.324 6.626C9.899 5.846 10.394 5.171 10.994 4.711C12.15 3.827 14.513 2.02 19.844 4.916L20.207 5.113C23.446 6.873 25.791 8.147 27.574 9.237"/>
   </g>
   <path stroke-width="0.3" stroke-linejoin="round" d="M5.935 34.628C5.935 34.628 14.871 35.774 15.048 35.832C15.224 35.892 15.342 35.716 15.371 35.569C15.4 35.421 16.106 32.481 16.135 32.304C16.164 32.128 16.164 31.923 15.9 31.893C15.635 31.864 6.786 30.864 6.786 30.864L5.935 34.628z"/>
   <path stroke-width="0.3" stroke-linejoin="round" d="M6.464 31.864C6.464 31.864 2.964 31.835 2.053 31.422C1.143 31.012 1.141 30.542 0.849 30.893C0.555 31.246 0.084 32.128 0.643 32.128C1.201 32.128 1.524 32.188 2.17 32.304C2.818 32.423 4.317 33.07 6.258 33.304"/>
   <path stroke-width="0.131" stroke-linejoin="round" d="M14.96 31.923L14.019 35.627"/>
   <path stroke-width="0.3" stroke-linejoin="round" id="AUTOID_1270" d="M24.364 33.832C24.33 33.715 24.333 33.633 24.378 33.594C24.588 33.414 25.678 34.332 26.809 35.648C27.942 36.963 28.689 38.176 28.478 38.359"/>
   <path stroke-width="0.131" stroke-linejoin="round" id="AUTOID_1271" d="M28.478 38.359C28.265 38.54 27.176 37.621 26.045 36.305C26.016 36.273 25.989 36.24 25.961 36.209"/>
   <path stroke-width="0.3" stroke-linejoin="round" id="AUTOID_1272" d="M24.07 33.753C23.887 33.393 23.826 33.143 23.92 33.063L28.591 30.31C29.064 29.905 30.57 30.881 31.955 32.488C33.341 34.098 34.081 35.731 33.609 36.139L28.936 38.89C28.676 39.112 27.344 37.987 25.96 36.38C25.9 36.311 25.843 36.243 25.786 36.176"/>
   <path stroke-width="0.3" stroke-linejoin="round" d="M29.277 30.248C29.277 30.248 29.981 29.806 30.335 29.629C30.687 29.454 31.51 29.571 31.716 29.689C31.923 29.806 33.716 31.012 34.244 31.746C34.774 32.481 35.362 33.363 35.42 33.716C35.479 34.069 35.244 34.304 34.979 34.509C34.716 34.716 33.744 35.509 33.744 35.509"/>
   <path stroke-width="0.131" stroke-linejoin="round" d="M32.716 33.246L33.921 32.363"/>
   <path stroke-width="0.131" stroke-linejoin="round" d="M34.009 31.687L34.097 32.216L34.567 32.453"/>
   <path stroke-width="0.131" stroke-linejoin="round" d="M30.129 30.658L31.01 30.012L31.775 29.806"/>
   <path stroke-width="0.131" stroke-linejoin="round" d="M31.07 29.777L31.1 29.571"/>
   <path stroke-width="0.131" stroke-linejoin="round" id="AUTOID_1278" d="M24.338 33.036C24.58 32.828 25.83 33.883 27.131 35.392C28.428 36.901 29.286 38.293 29.044 38.503"/>
  </g>
  <g>
   <path stroke-width="0.3" stroke-linejoin="round" d="M30.018 13.608C30.018 13.608 30.393 13.74 30.9 13.255C31.408 12.769 31.452 12.196 31.452 12.196L32.289 11.028C32.289 11.028 32.444 10.83 32.753 10.917C33.061 11.006 33.877 11.249 33.877 11.249L34.031 11.468"/>
   <path stroke-width="0.3" stroke-linejoin="round" d="M34.362 12.791L33.722 13.586C33.722 13.586 32.951 13.586 32.841 13.541C32.731 13.497 32.621 13.63 32.509 13.718C32.399 13.807 31.231 15.24 30.658 14.909C30.085 14.577 29.402 13.894 29.423 13.211"/>
   <path stroke-width="0.3" stroke-linejoin="round" d="M30.701 11.314C30.701 11.314 31.495 11.359 31.826 11.468"/>
   <path stroke-width="0.131" stroke-linejoin="round" d="M32.009 12.227L32.804 12.372"/>
   <path stroke-width="0.131" stroke-linejoin="round" d="M32.972 12.175L33.561 11.336"/>
   <path stroke-width="0.131" stroke-linejoin="round" d="M32.994 12.564L33.612 13.608"/>
   <path stroke-width="0.3" stroke-linejoin="round" d="M33.716 13.196L33.216 12.417L33.759 11.653L33.862 11.564L39.256 12.256C39.256 12.256 40.947 12.608 41.344 12.843C41.74 13.079 41.652 13.314 41.667 13.403C41.682 13.49 40.667 13.622 40.344 13.593C40.021 13.564 33.457 12.571 33.457 12.571"/>
   <path stroke-width="0.131" stroke-linejoin="round" d="M34.097 12.667L33.716 13.196"/>
   <path stroke-width="0.131" stroke-linejoin="round" d="M33.817 11.843C33.817 11.843 38.889 12.432 39.228 12.506C39.566 12.579 40.698 12.829 41.094 12.99"/>
   <path stroke-width="0.131" stroke-linejoin="round" d="M34.054 12.021L34.451 12.666"/>
   <path stroke-width="0.131" stroke-linejoin="round" d="M33.767 12.196L34.009 12.6"/>
   <path stroke-width="0.131" stroke-linejoin="round" d="M34.524 12.093L34.92 12.74"/>
   <path stroke-width="0.131" stroke-linejoin="round" d="M34.993 12.167L35.39 12.814"/>
   <path stroke-width="0.131" stroke-linejoin="round" d="M35.465 12.242L35.86 12.888"/>
   <path stroke-width="0.131" stroke-linejoin="round" d="M35.935 12.316L36.332 12.961"/>
   <path stroke-width="0.131" stroke-linejoin="round" d="M36.405 12.388L36.801 13.035"/>
   <path stroke-width="0.131" stroke-linejoin="round" d="M36.875 12.462L37.271 13.109"/>
   <path stroke-width="0.131" stroke-linejoin="round" d="M37.345 12.537L37.741 13.182"/>
   <path stroke-width="0.131" stroke-linejoin="round" d="M37.816 12.611L38.213 13.256"/>
   <path stroke-width="0.131" stroke-linejoin="round" d="M38.286 12.683L38.682 13.33"/>
   <path stroke-width="0.131" stroke-linejoin="round" d="M38.756 12.757L39.152 13.404"/>
   <path stroke-width="0.131" stroke-linejoin="round" d="M39.226 12.832L39.622 13.477"/>
   <path stroke-width="0.131" stroke-linejoin="round" d="M39.697 12.904L40.094 13.551"/>
   <path stroke-width="0.131" stroke-linejoin="round" d="M40.167 12.978L40.564 13.625"/>
   <path stroke-width="0.131" stroke-linejoin="round" d="M31.849 12.396C31.849 12.396 31.716 13.3 31.164 13.695C30.614 14.092 29.996 14.269 29.533 13.916"/>
  </g>
  <g>
   <path stroke-width="0.3" stroke-linejoin="round" id="AUTOID_1306" d="M26.336 11.042C26.336 11.042 26.725 11.122 27.164 10.573C27.6 10.025 27.568 9.451 27.568 9.451L28.24 8.18C28.24 8.18 28.367 7.963 28.684 8.009C29.003 8.054 29.844 8.185 29.844 8.185L30.025 8.384"/>
   <path stroke-width="0.3" stroke-linejoin="round" id="AUTOID_1307" d="M30.532 9.65L30.004 10.522C30.004 10.522 29.239 10.625 29.125 10.598C29.01 10.568 28.917 10.714 28.821 10.817C28.724 10.919 27.757 12.496 27.146 12.246C26.533 11.994 25.763 11.41 25.693 10.728"/>
   <path stroke-width="0.3" stroke-linejoin="round" id="AUTOID_1308" d="M26.705 8.678C26.705 8.678 27.498 8.615 27.841 8.679"/>
   <path stroke-width="0.131" stroke-linejoin="round" id="AUTOID_1309" d="M28.125 9.406L28.931 9.444"/>
   <path stroke-width="0.131" stroke-linejoin="round" id="AUTOID_1310" d="M29.071 9.224L29.542 8.316"/>
   <path stroke-width="0.131" stroke-linejoin="round" id="AUTOID_1311" d="M29.146 9.608L29.899 10.558"/>
   <path stroke-width="0.131" stroke-linejoin="round" id="AUTOID_1312" d="M30.253 9.561L29.945 10.137"/>
   <path stroke-width="0.131" stroke-linejoin="round" id="AUTOID_1313" d="M29.864 8.784C29.864 8.784 30.097 8.778 30.466 8.772"/>
   <path stroke-width="0.131" stroke-linejoin="round" id="AUTOID_1314" d="M30.121 8.926L30.602 9.513"/>
   <path stroke-width="0.131" stroke-linejoin="round" id="AUTOID_1315" d="M29.861 9.14L30.155 9.507"/>
   <path stroke-width="0.3" stroke-linejoin="round" id="AUTOID_1316" d="M29.945 10.137L29.344 9.432L29.782 8.602L29.87 8.5L30.643 8.494L30.629 8.522L31.239 9.244L31.114 9.58L31.114 9.576C30.234 9.563 29.606 9.553 29.606 9.553"/>
   <g>
    <path stroke-width="0.131" stroke-linejoin="round" id="AUTOID_1317" d="M31.932 7.782C33.223 7.352 36.276 6.339 36.539 6.278C36.878 6.2 38.009 5.948 38.436 5.926"/>
    <path stroke-width="0.3" stroke-linejoin="round" id="AUTOID_1318" d="M32.74 8.317L31.942 7.81L32.018 7.464L36.462 6.04C36.462 6.04 38.142 5.642 38.6 5.687C39.06 5.732 39.079 5.982 39.131 6.056C39.18 6.129 38.319 6.679 38.014 6.79C37.801 6.865 34.686 7.793 32.789 8.355L32.74 8.317z"/>
    <path stroke-width="0.131" stroke-linejoin="round" id="AUTOID_1319" d="M32.563 7.767L33.197 8.185"/>
    <path stroke-width="0.131" stroke-linejoin="round" id="AUTOID_1320" d="M33.021 7.634L33.655 8.051"/>
    <path stroke-width="0.131" stroke-linejoin="round" id="AUTOID_1321" d="M33.478 7.501L34.11 7.919"/>
    <path stroke-width="0.131" stroke-linejoin="round" id="AUTOID_1322" d="M33.935 7.37L34.567 7.786"/>
    <path stroke-width="0.131" stroke-linejoin="round" id="AUTOID_1323" d="M34.392 7.237L35.026 7.653"/>
    <path stroke-width="0.131" stroke-linejoin="round" id="AUTOID_1324" d="M34.848 7.105L35.482 7.522"/>
    <path stroke-width="0.131" stroke-linejoin="round" id="AUTOID_1325" d="M35.305 6.971L35.939 7.389"/>
    <path stroke-width="0.131" stroke-linejoin="round" id="AUTOID_1326" d="M35.764 6.839L36.396 7.256"/>
    <path stroke-width="0.131" stroke-linejoin="round" id="AUTOID_1327" d="M36.22 6.705L36.853 7.123"/>
    <path stroke-width="0.131" stroke-linejoin="round" id="AUTOID_1328" d="M36.677 6.573L37.311 6.992"/>
    <path stroke-width="0.131" stroke-linejoin="round" id="AUTOID_1329" d="M37.134 6.44L37.768 6.859"/>
    <path stroke-width="0.131" stroke-linejoin="round" id="AUTOID_1330" d="M37.591 6.309L38.225 6.726"/>
   </g>
   <path stroke-width="0.131" stroke-linejoin="round" id="AUTOID_1332" d="M27.987 9.595C27.987 9.595 27.978 10.507 27.484 10.975C26.992 11.442 26.403 11.701 25.897 11.413"/>
   <path stroke-width="0.131" stroke-linejoin="round" id="AUTOID_1333" d="M30.541 8.839L31.021 9.426"/>
  </g>
 </g>
 <g id="A4_x0020_half_x0020_frame">
  <g>
   <path stroke="#FFFFFF" stroke-width="0.006" d="M75.003 39.548L75.003 0.003L0.003 0.003L0.003 39.548L75.003 39.548z"/>
  </g>
 </g>
 <g id="Blow-up">
  <g>
   <path stroke-width="0.35" stroke-linejoin="round" d="M36.491 10.551L45.375 5.184L45.375 0.508L74.703 0.508L74.703 29.835L45.375 29.835L45.375 9.257L36.491 10.551z"/>
  </g>
  <path stroke-width="0.13" stroke-linejoin="round" d="M53.037 23.571C53.037 23.387 53.009 23.21 52.959 23.056"/>
  <path stroke-width="0.13" stroke-linejoin="round" d="M52.529 24.798C52.868 24.458 53.037 24.015 53.037 23.571"/>
  <path stroke-width="0.13" stroke-linejoin="round" d="M52.29 23.571C52.29 23.024 51.847 22.582 51.301 22.582C50.755 22.582 50.313 23.024 50.313 23.571C50.313 24.117 50.755 24.559 51.301 24.559C51.847 24.559 52.29 24.117 52.29 23.571z"/>
  <path stroke-width="0.3" stroke-linejoin="round" d="M52.959 23.056C52.783 22.492 52.347 22.08 51.816 21.913"/>
  <path stroke-width="0.3" stroke-linejoin="round" d="M49.856 22.126L51.103 20.009"/>
  <path stroke-width="0.3" stroke-linejoin="round" d="M52.529 20.599C52.529 20.599 51.043 19.975 50.746 19.85C50.695 19.829 50.613 19.775 50.603 19.649C50.591 19.521 50.539 18.306 50.533 18.243C50.527 18.179 50.539 18.144 50.401 18.042C50.262 17.937 49.947 17.632 49.905 17.593C49.865 17.553 49.841 17.495 49.853 17.379C49.865 17.265 49.905 17.085 49.933 17.01C49.963 16.936 50.009 16.923 50.206 16.821C50.401 16.716 51.283 16.388 51.518 16.152C51.755 15.916 52.347 15.358 52.561 14.603C52.774 13.849 52.768 13.693 52.984 12.548C53.201 11.403 53.676 8.906 55.49 6.368C57.307 3.831 57.42 3.778 57.997 3.097C58.575 2.418 58.865 2.004 58.957 1.87C59.049 1.736 59.308 1.417 59.783 1.334C60.256 1.252 60.762 1.201 61.237 1.508C61.712 1.819 61.981 1.967 61.67 2.359C61.362 2.75 61.182 3.1 61.057 3.45C60.933 3.801 61.02 3.871 60.534 4.211C60.176 4.461 58.112 7.008 57.368 8.762C56.625 10.516 56.417 11.134 55.536 14.215C54.656 17.297 54.317 17.6 54.28 17.728C54.243 17.856 54.335 17.911 54.344 17.975C54.353 18.041 54.454 18.14 54.454 18.14L53.96 19.167C53.96 19.167 53.798 19.129 53.619 19.379C53.262 19.882 52.85 20.423 52.804 20.506C52.759 20.588 52.676 20.658 52.529 20.599z"/>
  <path stroke-width="0.13" stroke-linejoin="round" d="M60.709 3.982C60.442 3.789 60.323 3.597 59.718 3.687C59.113 3.78 58.856 3.995 58.104 4.862C57.521 5.535 57.066 6.258 56.075 8.509C55.069 10.792 54.868 12.071 54.64 12.89C54.412 13.707 54.112 14.481 52.561 14.603"/>
  <path stroke-width="0.13" stroke-linejoin="round" d="M61.192 2.827C59.289 5.025 57.843 6.283 56.57 10.157C55.296 14.028 54.988 15.435 54.747 15.945C54.506 16.454 54.279 17.19 52.75 17.593C51.865 17.826 50.982 17.699 50.11 17.606"/>
  <path stroke-width="0.13" stroke-linejoin="round" d="M50.259 16.975C51.21 17.123 52.375 17.318 53.448 16.868"/>
  <path stroke-width="0.13" stroke-linejoin="round" d="M50.835 18.303C51.116 18.422 52.685 19.025 54.091 17.754"/>
  <path stroke-width="0.3" stroke-linejoin="round" d="M51.816 21.913C51.933 21.713 52.319 21.06 52.582 20.612"/>
  <path stroke-width="0.3" stroke-linejoin="round" d="M49.856 22.126L50.073 22.344"/>
  <path stroke-width="0.13" stroke-linejoin="round" d="M52.529 24.798L52.746 25.015"/>
  <path stroke-width="0.3" stroke-linejoin="round" d="M52.746 25.015L54.863 23.769"/>
  <path stroke-width="0.13" stroke-linejoin="round" d="M50.005 28.51L51.381 25.635L50.524 25.123"/>
  <path stroke-width="0.3" stroke-linejoin="round" d="M52.746 25.015L51.548 27.228C51.058 28.132 49.746 28.696 48.658 29.024L50.524 25.123C49.951 24.832 49.566 24.245 49.566 23.571C49.566 23.126 49.735 22.682 50.073 22.344"/>
  <path stroke-width="0.3" stroke-linejoin="round" d="M49.856 22.126L47.645 23.324C46.74 23.814 46.174 25.126 45.847 26.216L49.75 24.349"/>
  <path stroke-width="0.3" stroke-linejoin="round" d="M54.274 22.344C54.274 22.344 54.898 23.829 55.023 24.126C55.045 24.178 55.097 24.259 55.225 24.269C55.35 24.28 56.566 24.332 56.63 24.339C56.692 24.344 56.726 24.332 56.831 24.472C56.933 24.609 57.24 24.925 57.28 24.966C57.32 25.007 57.378 25.03 57.493 25.018C57.607 25.007 57.786 24.966 57.862 24.937C57.936 24.91 57.948 24.862 58.051 24.667C58.155 24.472 58.484 23.589 58.719 23.353C58.956 23.117 59.515 22.525 60.268 22.312C61.023 22.099 61.179 22.105 62.325 21.888C63.469 21.672 65.965 21.196 68.504 19.382C71.042 17.567 71.093 17.452 71.775 16.875C72.454 16.297 72.867 16.007 73.001 15.916C73.137 15.821 73.456 15.564 73.539 15.089C73.62 14.615 73.673 14.109 73.362 13.634C73.054 13.16 72.906 12.891 72.513 13.201C72.121 13.51 71.772 13.692 71.423 13.816C71.072 13.939 71.001 13.852 70.662 14.337C70.412 14.696 67.864 16.762 66.111 17.504C64.356 18.246 63.737 18.454 60.656 19.335C57.576 20.216 57.273 20.554 57.145 20.591C57.015 20.629 56.962 20.536 56.898 20.527C56.832 20.518 56.731 20.417 56.731 20.417L55.704 20.914C55.704 20.914 55.743 21.076 55.493 21.253C54.99 21.609 54.448 22.022 54.365 22.068C54.283 22.114 54.215 22.196 54.274 22.344z"/>
  <path stroke-width="0.13" stroke-linejoin="round" d="M70.891 14.163C71.084 14.429 71.275 14.548 71.183 15.153C71.093 15.759 70.878 16.015 70.01 16.768C69.337 17.352 68.614 17.806 66.364 18.798C64.081 19.804 62.799 20.004 61.982 20.231C61.165 20.46 60.39 20.76 60.268 22.312"/>
  <path stroke-width="0.13" stroke-linejoin="round" d="M72.045 13.681C69.847 15.583 68.587 17.03 64.715 18.303C60.844 19.576 59.436 19.884 58.927 20.125C58.418 20.365 57.682 20.594 57.28 22.121C57.046 23.007 57.173 23.89 57.265 24.76"/>
  <path stroke-width="0.13" stroke-linejoin="round" d="M57.896 24.614C57.75 23.661 57.554 22.496 58.003 21.423"/>
  <path stroke-width="0.13" stroke-linejoin="round" d="M56.57 24.038C56.448 23.756 55.847 22.189 57.118 20.78"/>
  <path stroke-width="0.3" stroke-linejoin="round" d="M52.959 23.056C53.158 22.94 53.813 22.553 54.259 22.292"/>
  <path stroke-width="0.3" stroke-linejoin="round" d="M53.57 22.696L54.093 22.146L53.408 22.416L53.915 21.887L53.22 22.228L53.698 21.647L53.064 22.032L53.481 21.388L52.868 21.855L53.21 21.202L52.67 21.699L52.929 21.004L52.453 21.544L52.639 20.859L52.161 21.481L52.426 20.876"/>
  <path stroke-width="0.13" stroke-linejoin="round" d="M46.334 24.925L49.569 23.378"/>
 </g>
 <g id="Picture_x0020_#">
  <g>
   <g>
    <g>
     <g>
      <text transform="matrix(0 -1 1 0 73.817 38.536)" stroke="none" fill="#000000" font-family="'Helvetica'" font-size="2.117">364 799</text>
     </g>
    </g>
   </g>
  </g>
 </g>
</svg>
