<?xml version="1.0" encoding="utf-8"?>
<!DOCTYPE svg PUBLIC "-//W3C//DTD SVG 1.1//EN" "http://www.w3.org/Graphics/SVG/1.1/DTD/svg11.dtd">
<!-- Generator: PTC Arbortext IsoDraw 7.3 -->
<svg width="100%" height="100%" viewBox="0 0 75.016 65.51"
 xmlns="http://www.w3.org/2000/svg" xmlns:xlink="http://www.w3.org/1999/xlink"
 fill-rule="evenodd" clip-rule="evenodd" stroke="#000000" stroke-linecap="round" fill="none" xml:space="preserve">
 <g id="A4_x0020_half_x0020_frame">
  <polygon stroke="#FFFFFF" stroke-width="0.016" points="0.008 0.008 75.007 0.008 75.007 65.503 0.008 65.503 0.008 0.008"/>
 </g>
 <g id="Standard_x0020_layer">
  <g>
   <path stroke="none" fill="#000000" d="M52.301 56.344C54.728 57.545 59.112 58.258 62.109 56.627 64.49 55.331 65.698 52.764 65.698 48.996L65.7 48.121C65.71 36.409 65.721 24.3 47.984 14.323 35.618 7.368 23.346 5.261 15.957 8.82 12.035 10.71 9.657 14.086 8.885 18.853 7.586 26.89 8.743 31.504 11.381 34.64 12.528 36.006 10.737 37.676 9.468 36.139 6.065 32.011 5.163 26.405 6.448 18.46 7.343 12.926 10.259 8.824 14.884 6.596 22.989 2.69 36.137 4.827 49.195 12.17 68.192 22.856 68.18 36.28 68.168 48.122L68.168 48.996C68.168 54.902 65.515 57.585 63.289 58.795 61.628 59.7 59.74 60.054 57.89 60.054 54.853 60.054 51.921 59.097 50.27 58.029L52.301 56.344z"/>
  </g>
  <path stroke="none" fill="#000000" d="M11.9 37.177L11.9 33.213 7.657 36.551 11.9 37.177z"/>
  <path stroke="none" fill="#000000" d="M17.687 43.518L7.657 43.518 7.657 42.536 17.687 42.536 17.687 43.518z"/>
  <g>
   <text x="7.508" y="41.77" stroke="none" fill="#000000" font-family="'Helvetica'" font-size="3.87">S</text>
   <text x="10.089" y="41.77" stroke="none" fill="#000000" font-family="'Helvetica'" font-size="3.87">T</text>
   <text x="12.298" y="41.77" stroke="none" fill="#000000" font-family="'Helvetica'" font-size="3.87">OP</text>
  </g>
  <path stroke-width="0.225" id="AUTOID_8044" d="M26.211 50.877C26.626 50.59 26.626 49.813 26.21 49.14C25.795 48.469 25.121 48.158 24.707 48.445"/>
  <path stroke-width="0.13" id="AUTOID_8043" d="M24.707 48.445C24.292 48.732 24.292 49.509 24.708 50.18C25.123 50.853 25.797 51.164 26.211 50.877"/>
  <path stroke-width="0.35" id="AUTOID_8042" d="M24.056 47.448C23.4 48.048 23.463 49.396 24.175 50.551C24.939 51.786 26.178 52.359 26.942 51.831"/>
  <path stroke-width="0.225" id="AUTOID_8041" d="M27.681 51.387C27.626 51.42 27.536 51.441 27.474 51.439C27.411 51.435 27.32 51.417 27.3 51.414C27.28 51.411 27.222 51.362 27.222 51.323C27.225 51.283 27.228 50.826 27.202 50.59C27.178 50.353 27.097 49.853 26.995 49.579C26.891 49.304 26.748 49.006 26.646 48.84C26.544 48.673 26.434 48.517 26.434 48.517L26.431 48.496C26.431 48.496 26.411 48.459 26.399 48.453C26.388 48.445 26.359 48.436 26.359 48.436C26.359 48.436 26.297 48.326 26.018 48.112C25.74 47.899 25.553 47.804 25.403 47.728C25.256 47.655 24.766 47.432 24.515 47.399C24.265 47.368 24.15 47.399 24.138 47.399C24.126 47.399 24.106 47.393 24.106 47.393C24.106 47.393 24.07 47.404 24.053 47.411C24.036 47.417 23.902 47.481 23.754 47.622C23.605 47.764 23.535 47.893 23.472 48.034C23.408 48.177 23.324 48.481 23.309 48.649C23.295 48.817 23.28 49.151 23.282 49.234C23.283 49.32 23.286 49.448 23.282 49.47C23.277 49.496 23.245 49.523 23.23 49.524C23.213 49.524 23.19 49.515 23.19 49.515C23.19 49.515 23.03 49.359 23.019 49.344C23.009 49.326 23 49.317 23 49.301C23 49.283 23.003 48.526 23.065 48.223C23.126 47.921 23.219 47.646 23.338 47.472C23.46 47.296 23.484 47.249 23.561 47.182C23.638 47.112 23.714 47.051 23.714 47.051L23.829 46.963C23.838 46.954 23.968 46.814 24.033 46.765"/>
  <path stroke-width="0.225" id="AUTOID_8040" d="M22.981 49.104C22.957 49.133 22.931 49.179 22.925 49.21C22.917 49.238 22.917 49.262 22.917 49.262L22.907 49.292L22.911 50.116L22.972 50.142L23.1 50.106L23.725 49.682"/>
  <path stroke-width="0.13" id="AUTOID_8062" d="M25.053 48.627C24.986 48.963 25.086 49.39 25.315 49.762C25.553 50.146 25.884 50.399 26.193 50.469"/>
  <path stroke-width="0.225" id="AUTOID_8038" d="M21.382 48.639C21.798 48.351 21.797 47.575 21.382 46.904C20.966 46.231 20.292 45.92 19.878 46.207"/>
  <path stroke-width="0.13" id="AUTOID_8037" d="M19.878 46.207C19.463 46.494 19.463 47.271 19.879 47.944C20.295 48.615 20.968 48.926 21.382 48.639"/>
  <path stroke-width="0.35" id="AUTOID_8036" d="M19.227 45.21C18.573 45.81 18.634 47.158 19.346 48.313C20.111 49.548 21.35 50.121 22.114 49.594"/>
  <path stroke-width="0.225" id="AUTOID_8052" d="M22.852 49.149C22.798 49.182 22.705 49.203 22.643 49.201C22.582 49.198 22.49 49.179 22.471 49.177C22.451 49.174 22.393 49.124 22.394 49.085C22.396 49.045 22.399 48.588 22.375 48.351C22.349 48.115 22.266 47.616 22.164 47.341C22.062 47.066 21.92 46.768 21.817 46.603C21.714 46.435 21.605 46.279 21.605 46.279L21.602 46.259C21.602 46.259 21.582 46.22 21.571 46.213C21.559 46.207 21.528 46.2 21.528 46.2C21.528 46.2 21.466 46.088 21.19 45.875C20.911 45.661 20.724 45.567 20.574 45.49C20.425 45.417 19.937 45.192 19.687 45.161C19.434 45.13 19.321 45.161 19.309 45.161C19.297 45.161 19.277 45.155 19.277 45.155C19.277 45.155 19.24 45.165 19.225 45.173C19.207 45.179 19.074 45.243 18.925 45.386C18.775 45.526 18.705 45.655 18.641 45.798C18.579 45.939 18.495 46.243 18.481 46.411C18.466 46.579 18.452 46.912 18.452 46.997C18.455 47.082 18.457 47.21 18.452 47.234C18.449 47.258 18.416 47.286 18.4 47.286C18.385 47.286 18.361 47.277 18.361 47.277C18.361 47.277 18.202 47.121 18.19 47.104C18.181 47.088 18.17 47.079 18.17 47.063C18.17 47.058 18.17 47.011 18.172 46.936"/>
  <path stroke-width="0.35" d="M18.173 46.871C18.178 46.621 18.193 46.195 18.236 45.987C18.298 45.685 18.39 45.408 18.51 45.234C18.631 45.058 18.655 45.011 18.731 44.942C18.809 44.875 18.885 44.813 18.885 44.813C18.885 44.813 18.992 44.737 19.001 44.726C19.01 44.716 19.138 44.576 19.204 44.527"/>
  <path stroke-width="0.35" id="AUTOID_8034" d="M18.152 46.866C18.128 46.895 18.102 46.942 18.096 46.972C18.088 47 18.088 47.024 18.088 47.024L18.077 47.054L18.082 47.878L18.143 47.905L18.271 47.868L18.896 47.445"/>
  <path stroke-width="0.13" id="AUTOID_8061" d="M20.216 46.429C20.166 46.759 20.266 47.167 20.486 47.524C20.705 47.88 21.006 48.124 21.295 48.213"/>
  <path stroke-width="0.35" stroke-linejoin="round" id="AUTOID_8032" d="M37.006 52.789L37.051 44.494L37.756 43.003C37.756 43.003 40.534 42.378 42.783 40.755C45.033 39.131 45.781 37.503 45.781 37.503L47.854 39.735C47.854 39.735 50.942 41.545 51.558 42.091C52.176 42.639 52.353 43.676 52.353 43.676"/>
  <path stroke-width="0.35" stroke-linejoin="round" id="AUTOID_8031" d="M52.176 42.904C52.176 42.904 52.616 42.72 52.75 43.366C52.881 44.014 52.926 45.023 52.881 45.337C52.838 45.649 52.573 46.033 52.573 46.033"/>
  <g id="AUTOID_8030">
   <path stroke-width="0.35" stroke-linejoin="round" d="M52.396 45.128L52.75 47.6C52.75 47.6 53.189 47.417 53.234 48.692C53.279 49.966 53.234 52.792 53.234 53.146C53.234 53.499 52.926 53.887 52.308 54.398C51.691 54.908 46.929 58.009 46.267 58.481C45.606 58.954 44.636 59.064 42.871 58.252L42.253 58.189C42.253 58.189 42.343 56.988 41.857 56.073C41.371 55.158 41.064 54.533 40.93 54.548C40.798 54.563 39.917 53.737 39.432 53.704C38.947 53.671 38.329 53.874 38.241 54.59C38.152 55.305 38.241 56.442 38.241 56.442L37.756 56.1"/>
   <path stroke-width="0.225" stroke-linejoin="round" d="M37.756 56.1C37.756 56.1 37.756 54.689 37.756 54.159C37.756 53.631 38.506 52.84 38.947 52.789"/>
  </g>
  <path stroke-width="0.225" stroke-linejoin="round" id="AUTOID_8029" d="M43.445 49.014L41.768 50.174L42.033 51.027C42.033 51.027 41.945 52.448 42.033 52.658C42.121 52.868 43.268 52.826 43.268 52.826L43.798 52.765"/>
  <path stroke-width="0.225" stroke-linejoin="round" id="AUTOID_8028" d="M43.225 52.523L43.225 50.802L42.915 49.603"/>
  <path stroke-width="0.225" stroke-linejoin="round" id="AUTOID_8027" d="M44.326 49.353C44.326 49.353 44.414 50.49 45.959 49.566C47.502 48.64 51.338 45.954 51.956 45.442C52.573 44.93 52.838 44.591 52.793 44.155"/>
  <path stroke-width="0.225" id="AUTOID_8026" d="M41.201 57.853C41.615 57.566 41.615 56.789 41.2 56.116C40.784 55.445 40.112 55.134 39.695 55.42"/>
  <path stroke-width="0.13" id="AUTOID_8025" d="M39.695 55.42C39.28 55.709 39.28 56.485 39.697 57.156C40.112 57.829 40.786 58.14 41.201 57.853"/>
  <path stroke-width="0.35" id="AUTOID_8024" d="M39.161 54.331C38.398 54.859 38.399 56.29 39.164 57.526C39.927 58.762 41.167 59.335 41.932 58.807"/>
  <path stroke-width="0.35" id="AUTOID_8023" d="M41.93 58.807L42.628 58.326"/>
  <path stroke-width="0.35" id="AUTOID_8022" d="M39.164 54.329L39.753 53.921"/>
  <g id="AUTOID_8021">
   <path stroke-width="0.35" stroke-linejoin="round" d="M37.448 55.783L27.719 51.328"/>
   <path stroke-width="0.225" stroke-linejoin="round" d="M27.719 51.328L27.719 49.079L37.448 53.533L37.448 55.783"/>
  </g>
  <path stroke-width="0.35" stroke-linejoin="round" id="AUTOID_8020" d="M45.106 37.874L27.484 29.952L18.9 35.136L18.9 44.219L36.521 52.14"/>
  <path stroke-width="0.13" id="AUTOID_8059" d="M36.521 43.055L44.314 38.414"/>
  <path stroke-width="0.13" id="AUTOID_8018" d="M43.445 48.661C43.356 48.642 39.505 46.963 39.24 46.877C38.975 46.789 38.829 47.423 38.771 47.783C38.71 48.142 39.094 48.951 39.357 49.45C39.622 49.948 40.094 50.337 40.505 50.612C40.915 50.89 41.593 51.283 41.593 51.283"/>
  <path stroke-width="0.13" id="AUTOID_8017" d="M40.417 50.27L40.593 47.722"/>
  <path stroke-width="0.13" id="AUTOID_8016" d="M38.094 43.274C38.094 43.274 43.298 45.856 44.238 46.631C45.179 47.405 45.472 48.518 45.444 48.698"/>
  <path stroke-width="0.13" id="AUTOID_8015" d="M45.267 46.337C45.356 46.296 48.676 44.271 50.411 42.752"/>
  <path stroke-width="0.225" id="AUTOID_8014" d="M44.619 49.968C44.561 50.063 44.591 51.529 44.649 52.228C44.709 52.926 44.972 53.514 46.003 52.984C47.03 52.457 50.47 50.359 51.47 49.421C52.469 48.484 52.823 48.121 52.75 47.6"/>
  <path stroke-width="0.13" id="AUTOID_8013" d="M44.444 53.368L44.591 55.909"/>
  <path stroke-width="0.13" id="AUTOID_8012" d="M38.829 52.802C39.122 52.71 39.447 52.704 40.122 53.067C40.798 53.43 41.74 54.146 42.003 54.764C42.268 55.38 42.326 55.579 42.326 55.579L44.061 56.381"/>
  <path stroke-width="0.13" id="AUTOID_8011" d="M42.71 56.622L43.621 57.079"/>
  <path stroke-width="0.13" id="AUTOID_8010" d="M43.091 57.756L44.003 58.21"/>
  <path stroke-width="0.13" id="AUTOID_8009" d="M46.003 53.514C46.003 53.514 46.442 54.405 46.561 55.185C46.679 55.965 47.03 57.454 47.03 57.454"/>
  <path stroke-width="0.13" id="AUTOID_8008" d="M46.59 53.447C46.59 53.447 47.502 53.256 47.59 53.362C47.677 53.47 48.118 53.773 48.265 53.726"/>
  <path stroke-width="0.13" id="AUTOID_8007" d="M50.706 51.978C50.706 51.978 51.176 51.777 51.265 51.356C51.353 50.935 51.646 50.255 51.881 49.933C52.116 49.612 52.499 49.158 52.499 49.158"/>
  <path stroke-width="0.13" id="AUTOID_8006" d="M52.764 48.597C52.764 48.597 52.557 49.973 52.529 50.625C52.499 51.274 52.088 54.378 52.088 54.378"/>
  <path stroke-width="0.13" id="AUTOID_8060" d="M19.778 35.423L36.521 43.055L36.512 51.631"/>
 </g>
 <g id="Picture_x0020_#">
  <text transform="matrix(0 -1 1 0 73.822 64.489)" stroke="none" fill="#000000" font-family="'Helvetica'" font-size="2.117">373 095</text>
 </g>
 <g id="Pos">
 </g>
</svg>
