<?xml version="1.0" encoding="utf-8"?>
<!DOCTYPE svg PUBLIC "-//W3C//DTD SVG 1.1//EN" "http://www.w3.org/Graphics/SVG/1.1/DTD/svg11.dtd">
<!-- Generator: PTC Arbortext IsoDraw 7.3 -->
<svg width="100%" height="100%" viewBox="0 0 75.006 64.433"
 xmlns="http://www.w3.org/2000/svg" xmlns:xlink="http://www.w3.org/1999/xlink"
 fill-rule="evenodd" clip-rule="evenodd" stroke="#000000" stroke-linecap="round" fill="none" xml:space="preserve">
 <g id="Standard_x0020_layer">
 </g>
 <g id="A4_x0020_half_x0020_frame">
  <path stroke="#FFFFFF" stroke-width="0.006" d="M75.003 64.43L0.003 64.43L0.003 0.003L75.003 0.003L75.003 64.43z"/>
 </g>
 <g id="Layer_x0020_4">
  <g>
   <g>
    <g>
     <path stroke-width="0.13" d="M35.393 21.62C35.393 21.62 35.628 21.329 35.802 20.989C35.976 20.65 36.079 20.289 36.079 20.289"/>
     <path stroke-width="0.13" d="M35.542 20.013C35.542 20.013 35.307 20.306 35.134 20.644C34.96 20.984 34.856 21.344 34.856 21.344"/>
     <path stroke-width="0.201" d="M35.994 22.768L35.459 22.492"/>
     <path stroke-width="0.201" d="M37.365 20.108L36.829 19.832"/>
     <path stroke-width="0.13" d="M36.079 20.289L35.542 20.013"/>
     <path stroke-width="0.13" d="M35.393 21.62L34.856 21.344"/>
     <path stroke-width="0.13" d="M35.393 21.62C35.393 21.62 35.579 21.891 35.759 22.214C35.938 22.539 35.994 22.768 35.994 22.768"/>
     <path stroke-width="0.13" d="M36.079 20.289C36.079 20.289 36.408 20.283 36.774 20.242C37.142 20.199 37.362 20.112 37.362 20.112"/>
     <path stroke-width="0.13" d="M36.829 19.832C36.829 19.832 36.5 19.838 36.133 19.879C35.765 19.923 35.545 20.01 35.545 20.01"/>
     <path stroke-width="0.13" d="M35.459 22.492C35.459 22.492 35.273 22.222 35.094 21.896C34.914 21.574 34.856 21.344 34.856 21.344"/>
     <path stroke-width="0.201" d="M37.362 20.112C37.362 20.112 37.548 20.384 37.726 20.707C37.906 21.03 37.963 21.26 37.963 21.26"/>
     <path stroke-width="0.201" d="M35.994 22.768C35.994 22.768 36.325 22.762 36.692 22.719C37.057 22.676 37.277 22.591 37.277 22.591"/>
     <path stroke-width="0.201" d="M37.277 22.591C37.277 22.591 37.514 22.298 37.686 21.958C37.862 21.62 37.963 21.26 37.963 21.26"/>
     <path stroke-width="0.201" d="M37.118 20.768C36.798 20.603 36.374 20.786 36.171 21.178C35.969 21.57 36.067 22.021 36.387 22.187"/>
     <path stroke-width="0.13" d="M36.387 22.187C36.709 22.353 37.133 22.169 37.335 21.777C37.536 21.385 37.439 20.932 37.118 20.768"/>
    </g>
    <g>
     <path stroke-width="0.13" d="M29.748 24.009C29.748 24.009 29.983 23.716 30.158 23.378C30.332 23.039 30.434 22.678 30.434 22.678"/>
     <path stroke-width="0.13" d="M29.897 22.402C29.897 22.402 29.663 22.695 29.489 23.033C29.315 23.371 29.213 23.733 29.213 23.733"/>
     <path stroke-width="0.201" d="M30.349 25.157L29.814 24.882"/>
     <path stroke-width="0.201" d="M31.719 22.496L31.184 22.221"/>
     <path stroke-width="0.13" d="M30.434 22.678L29.897 22.402"/>
     <path stroke-width="0.13" d="M29.748 24.009L29.213 23.733"/>
     <path stroke-width="0.13" d="M29.748 24.009C29.748 24.009 29.934 24.28 30.114 24.603C30.292 24.926 30.349 25.157 30.349 25.157"/>
     <path stroke-width="0.13" d="M30.434 22.678C30.434 22.678 30.763 22.673 31.129 22.631C31.496 22.588 31.718 22.501 31.718 22.501"/>
     <path stroke-width="0.13" d="M31.184 22.221C31.184 22.221 30.855 22.227 30.487 22.268C30.12 22.312 29.899 22.397 29.899 22.397"/>
     <path stroke-width="0.13" d="M29.814 24.882C29.814 24.882 29.626 24.609 29.449 24.286C29.269 23.963 29.213 23.733 29.213 23.733"/>
     <path stroke-width="0.201" d="M31.718 22.501C31.718 22.501 31.903 22.771 32.082 23.096C32.261 23.42 32.319 23.649 32.319 23.649"/>
     <path stroke-width="0.201" d="M30.349 25.157C30.349 25.157 30.678 25.15 31.045 25.109C31.413 25.065 31.632 24.98 31.632 24.98"/>
     <path stroke-width="0.201" d="M31.632 24.98C31.632 24.98 31.867 24.687 32.042 24.347C32.216 24.01 32.319 23.649 32.319 23.649"/>
     <path stroke-width="0.201" d="M31.474 23.157C31.501 23.172 30.82 22.995 30.527 23.568C30.324 23.958 30.42 24.411 30.742 24.576"/>
     <path stroke-width="0.13" d="M30.742 24.576C31.062 24.742 31.487 24.557 31.689 24.166C31.89 23.774 31.794 23.321 31.474 23.157"/>
    </g>
    <g>
     <path stroke-width="0.13" d="M26.382 29.437C26.382 29.437 26.615 29.146 26.792 28.806C26.966 28.469 27.068 28.108 27.068 28.108"/>
     <path stroke-width="0.13" d="M26.533 27.832C26.533 27.832 26.297 28.123 26.123 28.463C25.948 28.801 25.847 29.161 25.847 29.161"/>
     <path stroke-width="0.201" d="M26.984 30.585L26.448 30.31"/>
     <path stroke-width="0.201" d="M28.353 27.925L27.818 27.649"/>
     <path stroke-width="0.13" d="M27.068 28.108L26.533 27.832"/>
     <path stroke-width="0.13" d="M26.382 29.437L25.847 29.161"/>
     <path stroke-width="0.13" d="M26.382 29.437C26.382 29.437 26.568 29.71 26.748 30.033C26.925 30.356 26.984 30.585 26.984 30.585"/>
     <path stroke-width="0.13" d="M27.068 28.108C27.068 28.108 27.396 28.102 27.765 28.059C28.132 28.016 28.35 27.929 28.35 27.929"/>
     <path stroke-width="0.13" d="M27.818 27.649C27.818 27.649 27.489 27.657 27.121 27.699C26.754 27.739 26.533 27.826 26.533 27.826"/>
     <path stroke-width="0.13" d="M26.448 30.31C26.448 30.31 26.262 30.039 26.082 29.714C25.903 29.391 25.847 29.161 25.847 29.161"/>
     <path stroke-width="0.201" d="M28.35 27.929C28.35 27.929 28.538 28.202 28.716 28.525C28.894 28.849 28.951 29.077 28.951 29.077"/>
     <path stroke-width="0.201" d="M26.984 30.585C26.984 30.585 27.314 30.579 27.681 30.538C28.047 30.495 28.268 30.408 28.268 30.408"/>
     <path stroke-width="0.201" d="M28.268 30.408C28.268 30.408 28.503 30.117 28.676 29.777C28.85 29.44 28.951 29.077 28.951 29.077"/>
     <path stroke-width="0.201" d="M28.108 28.585C28.135 28.6 27.454 28.423 27.161 28.995C26.957 29.388 27.056 29.839 27.376 30.004"/>
     <path stroke-width="0.13" d="M27.376 30.004C27.698 30.17 28.121 29.986 28.323 29.594C28.524 29.202 28.428 28.751 28.108 28.585"/>
    </g>
    <g>
     <path stroke-width="0.13" d="M26.382 35.734C26.382 35.734 26.615 35.442 26.792 35.103C26.966 34.765 27.068 34.404 27.068 34.404"/>
     <path stroke-width="0.13" d="M26.533 34.128C26.533 34.128 26.297 34.42 26.123 34.759C25.948 35.098 25.847 35.457 25.847 35.457"/>
     <path stroke-width="0.201" d="M26.984 36.883L26.448 36.606"/>
     <path stroke-width="0.201" d="M28.353 34.222L27.818 33.945"/>
     <path stroke-width="0.13" d="M27.068 34.404L26.533 34.128"/>
     <path stroke-width="0.13" d="M26.382 35.734L25.847 35.457"/>
     <path stroke-width="0.13" d="M26.382 35.734C26.382 35.734 26.568 36.006 26.748 36.329C26.925 36.652 26.984 36.883 26.984 36.883"/>
     <path stroke-width="0.13" d="M27.068 34.404C27.068 34.404 27.396 34.398 27.765 34.356C28.132 34.313 28.35 34.226 28.35 34.226"/>
     <path stroke-width="0.13" d="M27.818 33.945C27.818 33.945 27.489 33.951 27.121 33.994C26.754 34.036 26.533 34.122 26.533 34.122"/>
     <path stroke-width="0.13" d="M26.448 36.606C26.448 36.606 26.262 36.335 26.082 36.012C25.903 35.688 25.847 35.457 25.847 35.457"/>
     <path stroke-width="0.201" d="M28.35 34.226C28.35 34.226 28.538 34.499 28.716 34.822C28.894 35.146 28.951 35.375 28.951 35.375"/>
     <path stroke-width="0.201" d="M26.984 36.883C26.984 36.883 27.314 36.877 27.681 36.835C28.047 36.792 28.268 36.704 28.268 36.704"/>
     <path stroke-width="0.201" d="M28.268 36.704C28.268 36.704 28.503 36.412 28.676 36.073C28.85 35.735 28.951 35.375 28.951 35.375"/>
     <path stroke-width="0.201" d="M28.108 34.883C27.786 34.718 27.361 34.901 27.161 35.292C26.957 35.685 27.056 36.136 27.376 36.301"/>
     <path stroke-width="0.13" d="M27.376 36.301C27.698 36.466 28.121 36.283 28.323 35.892C28.524 35.5 28.428 35.048 28.108 34.883"/>
    </g>
    <g>
     <path stroke-width="0.13" d="M29.856 40.621C29.856 40.621 30.091 40.328 30.265 39.988C30.44 39.649 30.541 39.289 30.541 39.289"/>
     <path stroke-width="0.13" d="M30.006 39.014C30.006 39.014 29.771 39.307 29.597 39.645C29.422 39.984 29.321 40.344 29.321 40.344"/>
     <path stroke-width="0.201" d="M30.457 41.768L29.922 41.493"/>
     <path stroke-width="0.201" d="M31.827 39.107L31.292 38.832"/>
     <path stroke-width="0.13" d="M30.541 39.289L30.006 39.014"/>
     <path stroke-width="0.13" d="M29.856 40.621L29.321 40.344"/>
     <path stroke-width="0.13" d="M29.856 40.621C29.856 40.621 30.042 40.89 30.221 41.215C30.4 41.539 30.457 41.768 30.457 41.768"/>
     <path stroke-width="0.13" d="M30.541 39.289C30.541 39.289 30.87 39.283 31.237 39.241C31.605 39.198 31.826 39.112 31.826 39.112"/>
     <path stroke-width="0.13" d="M31.292 38.832C31.292 38.832 30.963 38.838 30.596 38.88C30.228 38.923 30.007 39.009 30.007 39.009"/>
     <path stroke-width="0.13" d="M29.922 41.493C29.922 41.493 29.736 41.22 29.556 40.896C29.378 40.573 29.321 40.344 29.321 40.344"/>
     <path stroke-width="0.201" d="M31.826 39.112C31.826 39.112 32.012 39.384 32.191 39.707C32.368 40.03 32.426 40.261 32.426 40.261"/>
     <path stroke-width="0.201" d="M30.457 41.768C30.457 41.768 30.786 41.762 31.153 41.719C31.521 41.677 31.742 41.591 31.742 41.591"/>
     <path stroke-width="0.201" d="M31.742 41.591C31.742 41.591 31.975 41.298 32.151 40.959C32.325 40.621 32.426 40.261 32.426 40.261"/>
     <path stroke-width="0.201" d="M31.582 39.768C31.26 39.603 30.835 39.786 30.634 40.179C30.432 40.57 30.528 41.021 30.85 41.188"/>
     <path stroke-width="0.13" d="M30.85 41.188C31.17 41.353 31.596 41.168 31.797 40.777C31.998 40.384 31.902 39.932 31.582 39.768"/>
    </g>
    <g>
     <path stroke-width="0.13" d="M35.503 42.356C35.503 42.356 35.737 42.064 35.911 41.725C36.085 41.387 36.188 41.027 36.188 41.027"/>
     <path stroke-width="0.13" d="M35.652 40.75C35.652 40.75 35.417 41.042 35.243 41.381C35.069 41.719 34.966 42.079 34.966 42.079"/>
     <path stroke-width="0.201" d="M36.103 43.505L35.567 43.228"/>
     <path stroke-width="0.201" d="M37.473 40.844L36.938 40.567"/>
     <path stroke-width="0.13" d="M36.188 41.027L35.652 40.75"/>
     <path stroke-width="0.13" d="M35.503 42.356L34.966 42.079"/>
     <path stroke-width="0.13" d="M35.503 42.356C35.503 42.356 35.689 42.628 35.866 42.951C36.045 43.274 36.103 43.505 36.103 43.505"/>
     <path stroke-width="0.13" d="M36.188 41.027C36.188 41.027 36.517 41.02 36.884 40.978C37.25 40.936 37.47 40.85 37.47 40.85"/>
     <path stroke-width="0.13" d="M36.938 40.567C36.938 40.567 36.609 40.575 36.241 40.616C35.874 40.658 35.654 40.746 35.654 40.746"/>
     <path stroke-width="0.13" d="M35.567 43.228C35.567 43.228 35.381 42.957 35.203 42.634C35.024 42.31 34.966 42.079 34.966 42.079"/>
     <path stroke-width="0.201" d="M37.47 40.85C37.47 40.85 37.658 41.119 37.837 41.445C38.015 41.768 38.073 41.996 38.073 41.996"/>
     <path stroke-width="0.201" d="M36.103 43.505C36.103 43.505 36.432 43.5 36.799 43.457C37.167 43.414 37.387 43.328 37.387 43.328"/>
     <path stroke-width="0.201" d="M37.387 43.328C37.387 43.328 37.621 43.034 37.795 42.695C37.97 42.359 38.073 41.996 38.073 41.996"/>
     <path stroke-width="0.201" d="M37.226 41.505C36.906 41.34 36.481 41.523 36.28 41.914C36.079 42.307 36.174 42.759 36.496 42.923"/>
     <path stroke-width="0.13" d="M36.496 42.923C36.817 43.09 37.241 42.905 37.444 42.514C37.645 42.121 37.548 41.67 37.226 41.505"/>
    </g>
    <g>
     <path stroke-width="0.13" d="M41.039 23.03C41.039 23.03 41.274 22.739 41.448 22.399C41.622 22.062 41.723 21.701 41.723 21.701"/>
     <path stroke-width="0.13" d="M41.189 21.425C41.189 21.425 40.954 21.718 40.78 22.056C40.606 22.394 40.503 22.754 40.503 22.754"/>
     <path stroke-width="0.201" d="M41.64 24.178L41.104 23.903"/>
     <path stroke-width="0.201" d="M43.011 21.518L42.475 21.242"/>
     <path stroke-width="0.13" d="M41.723 21.701L41.189 21.425"/>
     <path stroke-width="0.13" d="M41.039 23.03L40.503 22.754"/>
     <path stroke-width="0.13" d="M41.039 23.03C41.039 23.03 41.225 23.303 41.405 23.626C41.584 23.949 41.64 24.178 41.64 24.178"/>
     <path stroke-width="0.13" d="M41.723 21.701C41.723 21.701 42.054 21.695 42.42 21.652C42.789 21.609 43.008 21.522 43.008 21.522"/>
     <path stroke-width="0.13" d="M42.475 21.242C42.475 21.242 42.146 21.248 41.779 21.291C41.411 21.333 41.191 21.42 41.191 21.42"/>
     <path stroke-width="0.13" d="M41.104 23.903C41.104 23.903 40.918 23.632 40.74 23.309C40.561 22.984 40.503 22.754 40.503 22.754"/>
     <path stroke-width="0.201" d="M43.008 21.522C43.008 21.522 43.195 21.795 43.372 22.118C43.551 22.442 43.609 22.672 43.609 22.672"/>
     <path stroke-width="0.201" d="M41.64 24.178C41.64 24.178 41.969 24.173 42.337 24.131C42.704 24.088 42.923 24.001 42.923 24.001"/>
     <path stroke-width="0.201" d="M42.923 24.001C42.923 24.001 43.158 23.71 43.334 23.37C43.508 23.033 43.609 22.672 43.609 22.672"/>
     <path stroke-width="0.201" d="M42.765 22.179C42.444 22.013 42.018 22.196 41.817 22.589C41.615 22.981 41.712 23.432 42.033 23.597"/>
     <path stroke-width="0.13" d="M42.033 23.597C42.354 23.763 42.777 23.579 42.981 23.187C43.182 22.795 43.085 22.344 42.765 22.179"/>
    </g>
    <path stroke-width="0.13" d="M44.686 27.789C44.761 27.679 44.847 27.542 44.923 27.394C45.097 27.056 45.198 26.695 45.198 26.695"/>
    <path stroke-width="0.201" d="M46.485 26.513L45.95 26.237"/>
    <path stroke-width="0.13" d="M45.198 26.695L44.662 26.419"/>
    <path stroke-width="0.13" d="M45.198 26.695C45.198 26.695 45.529 26.69 45.896 26.646C46.262 26.603 46.482 26.518 46.482 26.518"/>
    <path stroke-width="0.13" d="M45.95 26.237C45.95 26.237 45.274 26.236 44.659 26.388C44.659 26.388 44.152 26.812 44.213 27.053"/>
    <path stroke-width="0.201" d="M46.482 26.518C46.482 26.518 47.052 27.112 47.133 27.65"/>
    <path stroke-width="0.201" d="M46.576 28.75C46.649 28.643 46.734 28.509 46.807 28.365C46.981 28.027 47.084 27.666 47.084 27.666"/>
    <path stroke-width="0.201" d="M46.24 27.173C45.917 27.007 45.493 27.19 45.292 27.583C45.192 27.777 45.165 27.984 45.201 28.164"/>
    <path stroke-width="0.13" d="M46.066 28.579C46.222 28.501 46.362 28.364 46.454 28.182C46.656 27.791 46.56 27.338 46.24 27.173"/>
   </g>
   <path stroke-width="0.131" stroke-linejoin="round" d="M26.733 40.96C21.169 37.951 19.417 30.411 22.82 24.117C26.225 17.824 33.493 15.16 39.058 18.17"/>
   <path stroke-width="0.131" stroke-linejoin="round" d="M39.058 18.17C40.066 18.716 40.948 19.41 41.698 20.217"/>
   <path stroke-width="0.131" stroke-linejoin="round" d="M30.736 15.487C33.645 14.769 36.695 15.048 39.392 16.506"/>
   <path stroke-width="0.131" stroke-linejoin="round" d="M25.477 42.235C19.196 38.838 17.216 30.324 21.057 23.219C22.681 20.217 25.085 17.948 27.792 16.583"/>
   <path stroke-width="0.131" stroke-linejoin="round" d="M32.737 43.52C30.263 43.854 27.745 43.462 25.477 42.235"/>
   <path stroke-width="0.131" stroke-linejoin="round" d="M39.392 16.506C41.89 17.858 43.709 20.021 44.75 22.582"/>
   <path stroke-width="0.353" stroke-linejoin="round" d="M24.012 57.695C11.414 50.881 7.357 33.975 14.948 19.931C22.545 5.894 38.911 0.031 51.512 6.843"/>
   <path stroke-width="0.201" stroke-linejoin="round" d="M51.512 6.843C64.108 13.66 68.165 30.564 60.573 44.609C52.976 58.646 36.612 64.509 24.012 57.695"/>
   <path stroke-width="0.201" stroke-linejoin="round" d="M27.068 55.119C26.439 56.353 27.236 57.781 28.74 58.549C29.969 59.179 31.407 59.183 32.357 58.091"/>
   <path stroke-width="0.131" stroke-linejoin="round" d="M17.708 51.509C17.704 50.709 17.376 49.805 16.858 49.018C16.259 48.11 15.478 47.466 14.747 47.197"/>
   <path stroke-width="0.131" stroke-linejoin="round" d="M32.357 58.091C32.829 56.866 32.091 55.383 30.686 54.661C29.353 53.981 27.846 54.195 27.068 55.119"/>
   <path stroke-width="0.131" stroke-linejoin="round" d="M52.604 11.612C51.871 12.388 51.676 13.391 52.009 14.231C52.524 15.507 54.137 16.059 55.61 15.464C55.906 15.345 56.174 15.189 56.393 15.016"/>
   <path stroke-width="0.131" stroke-linejoin="round" d="M56.847 38.405C55.46 37.899 53.938 38.527 53.284 39.826C52.627 41.146 53.076 42.729 54.295 43.524"/>
   <path stroke-width="0.131" stroke-linejoin="round" d="M48.92 50.031C47.859 49.128 46.344 49.121 45.292 49.954C44.128 50.884 43.904 52.563 44.75 53.799"/>
   <path stroke-width="0.201" stroke-linejoin="round" d="M56.99 12.397C56.475 11.121 54.86 10.568 53.387 11.164C53.185 11.246 52.85 11.397 52.674 11.509"/>
   <path stroke-width="0.201" stroke-linejoin="round" d="M56.393 15.016C56.587 14.813 56.746 14.586 56.868 14.349C57.207 13.686 57.229 12.99 56.99 12.397"/>
   <path stroke-width="0.131" stroke-linejoin="round" d="M58.405 25.237C57.284 25.481 56.466 26.336 56.225 27.388C55.887 28.917 56.871 30.434 58.423 30.778"/>
   <path stroke-width="0.201" stroke-linejoin="round" d="M61.128 28.696C61.466 27.167 60.481 25.649 58.929 25.306L58.405 25.237"/>
   <path stroke-width="0.201" stroke-linejoin="round" d="M58.476 30.778C58.981 30.754 59.459 30.73 59.871 30.471C60.539 30.053 60.972 29.403 61.128 28.696"/>
   <path stroke-width="0.201" stroke-linejoin="round" d="M57.854 42.106C58.484 40.844 57.929 39.225 56.847 38.405"/>
   <path stroke-width="0.201" stroke-linejoin="round" d="M54.295 43.524C54.914 43.865 55.493 43.783 56.192 43.549C56.947 43.298 57.527 42.765 57.854 42.106"/>
   <path stroke-width="0.201" stroke-linejoin="round" d="M48.375 53.878C48.987 53.39 49.34 52.695 49.415 51.968C49.496 51.183 49.235 50.54 48.92 50.031"/>
   <path stroke-width="0.201" stroke-linejoin="round" d="M44.75 53.799C45.496 54.694 47.154 54.857 48.375 53.878"/>
   <g>
    <path stroke-width="0.131" stroke-linejoin="round" d="M40.426 19.739C40.06 19.556 39.686 19.397 39.356 19.28C33.499 17.147 26.843 20.658 24.49 27.123C22.292 33.162 24.629 39.643 29.769 42.226"/>
    <path stroke-width="0.25" stroke-linejoin="round" d="M32.484 43.506C35.759 44.7 39.286 44.127 42.189 42.247"/>
    <path stroke-width="0.25" stroke-linejoin="round" d="M48.112 29.745C47.658 25.114 44.835 21.525 41.003 20.1"/>
    <path stroke-width="0.201" stroke-linejoin="round" d="M29.658 41.942C30.498 42.595 31.443 43.128 32.484 43.506"/>
    <path stroke-width="0.25" stroke-linejoin="round" d="M28.954 41.768L31.417 43.048"/>
    <path stroke-width="0.25" stroke-linejoin="round" d="M40.423 19.739L42.07 20.561"/>
    <path stroke-width="0.25" stroke-linejoin="round" d="M33.691 40.192C34.365 40.438 35.051 40.578 35.682 40.616"/>
    <path stroke-width="0.25" stroke-linejoin="round" d="M42.841 25.503C41.962 24.507 40.899 23.804 39.796 23.416"/>
    <path stroke-width="0.201" stroke-linejoin="round" d="M44.256 27.745C44.051 27.641 43.843 27.553 43.655 27.486"/>
    <path stroke-width="0.25" stroke-linejoin="round" d="M41.953 42.164C45.241 43.362 48.978 41.39 50.299 37.761C51.619 34.131 50.024 30.219 46.737 29.022"/>
    <path stroke-width="0.25" stroke-linejoin="round" d="M42.841 25.503L45.274 28.254"/>
    <path stroke-width="0.25" stroke-linejoin="round" d="M44.256 27.745L47.335 29.28"/>
    <path stroke-width="0.25" stroke-linejoin="round" d="M38.274 40.371L41.353 41.908"/>
    <path stroke-width="0.25" stroke-linejoin="round" d="M39.292 40.878L35.68 40.616"/>
    <path stroke-width="0.13" stroke-linejoin="round" d="M41.896 41.246C44.725 42.472 48.115 40.936 49.466 37.813C50.82 34.692 49.622 31.167 46.792 29.942C43.963 28.714 40.573 30.253 39.222 33.375C37.868 36.496 39.066 40.021 41.896 41.246z"/>
    <path stroke-width="0.131" stroke-linejoin="round" d="M40.901 20.056C35.042 17.925 28.387 21.437 26.035 27.9C24.1 33.216 25.678 38.871 29.556 41.899"/>
    <path stroke-width="0.131" stroke-linejoin="round" d="M39.694 23.373C35.496 21.844 30.725 24.361 29.039 28.993C27.353 33.628 29.39 38.621 33.588 40.149"/>
    <path stroke-width="0.131" stroke-linejoin="round" d="M36.415 29.687C35.914 30.315 35.5 31.041 35.207 31.847C33.972 35.238 35.286 38.878 38.171 40.329"/>
    <path stroke-width="0.131" stroke-linejoin="round" d="M43.552 27.443C41.728 26.78 39.765 27.091 38.152 28.12"/>
    <path stroke-width="0.131" stroke-linejoin="round" d="M46.634 28.98C43.344 27.783 39.606 29.754 38.286 33.383C36.965 37.012 38.561 40.924 41.85 42.121"/>
   </g>
   <path stroke-width="0.353" stroke-linejoin="round" d="M16.484 8.538C7.737 21.184 0.638 42.229 15.618 62.063"/>
   <path stroke-width="0.353" stroke-linejoin="round" d="M61.835 8.654C64.259 11.585 66.986 17.138 67.929 21.144"/>
   <path stroke="#FFFFFF" stroke-width="0.5" fill="#000000" d="M35.863 2.072L37.206 12.5 39.429 12.148 36.247 19.193 30.661 13.474 32.96 13.005 31.518 2.583 35.863 2.072z"/>
   <path stroke-width="0.201" stroke-linejoin="round" d="M22.211 48.42C12.74 43.295 9.689 30.585 15.397 20.024C21.109 9.468 33.415 5.059 42.89 10.182"/>
   <path stroke-width="0.131" stroke-linecap="butt" d="M47.786 41.579C47.546 41.899 47.301 42.21 47.048 42.515C47.048 42.515 46.314 43.524 43.271 46.152C37.97 50.726 28.928 52.051 22.211 48.42"/>
   <path stroke-width="0.131" stroke-linecap="butt" d="M42.89 10.182C51.536 14.861 54.832 25.858 51 35.773"/>
  </g>
 </g>
 <g id="Picture_x0020_#">
  <g>
   <text transform="matrix(0 -1 1 0 73.817 63.417)" stroke="none" fill="#000000" font-family="'Helvetica'" font-size="2.117">378 930</text>
  </g>
 </g>
</svg>
