<?xml version="1.0" encoding="utf-8"?>
<!DOCTYPE svg PUBLIC "-//W3C//DTD SVG 1.1//EN" "http://www.w3.org/Graphics/SVG/1.1/DTD/svg11.dtd">
<!-- Generator: Arbortext IsoDraw 7.3 -->
<svg width="100%" height="100%" viewBox="0 0 150.006 150.006"
 xmlns="http://www.w3.org/2000/svg" xmlns:xlink="http://www.w3.org/1999/xlink"
 fill-rule="evenodd" clip-rule="evenodd" stroke="#000000" stroke-linecap="round" fill="none" xml:space="preserve">
 <g id="Colour">
  <g>
   <path stroke="none" fill="#808080" d="M104.022 3.737C103.751 3.922 102.625 4.783 102.507 6.367 102.375 8.167 102.507 31.652 102.507 31.652 102.507 31.652 102.575 33.987 104.242 35.655 105.909 37.323 106.778 38.258 106.778 38.258 106.778 38.258 108.512 39.792 108.512 42.127 108.512 44.462 108.512 58.14 108.512 58.14 108.512 58.14 108.512 59.039 107.844 59.106 107.177 59.173 106.644 58.74 106.644 58.74L100.239 55.804C100.239 55.804 99.338 55.337 98.471 56.304 98.471 56.304 97.671 57.539 98.905 58.273 100.138 59.006 106.611 61.875 106.611 61.875 106.611 61.875 108.046 62.576 108.245 65.477 108.445 68.381 108.379 89.162 108.379 89.162L108.611 109.745 108.212 110.346 108.212 113.816 110.414 115.917C110.414 115.917 110.313 139.134 110.414 139.968 110.513 140.801 111.013 141.203 111.013 141.203 111.013 141.203 112.081 142.604 112.516 143.17 112.948 143.737 112.516 144.237 112.516 144.237L111.706 145.235C111.706 145.235 111.808 145.466 112.006 145.332 112.409 145.061 113.117 144.45 113.53 144.45 113.965 144.45 114.177 144.812 114.887 145.134 114.998 145.186 115.126 144.867 115.266 144.929 115.04 144.83 114.81 144.237 114.81 144.237 114.81 144.237 114.376 143.737 114.81 143.17 115.242 142.604 116.311 141.203 116.311 141.203 116.311 141.203 116.811 140.801 116.911 139.968 117.012 139.134 116.911 115.917 116.911 115.917L119.112 113.816 119.112 110.346 118.712 109.745 118.852 89.697 118.852 65.144C118.852 65.144 120.787 63.343 120.522 61.875 120.254 60.408 120.054 59.941 118.852 58.673L118.787 41.393C118.787 41.393 118.787 39.926 119.653 39.258 120.522 38.591 123.456 35.456 123.456 35.456 123.456 35.456 124.457 33.854 124.525 32.52 124.59 31.185 124.858 6.7 124.858 6.7 124.858 6.7 124.858 4.894 123.507 3.774"/>
  </g>
  <path stroke="none" fill="#B2B2B2" d="M118.605 110.01C118.605 110.01 118.311 110.745 118.018 110.98 117.724 111.215 117.254 111.436 117.254 111.436 117.254 111.436 117.048 111.45 116.841 111.304 116.635 111.156 116.194 110.421 116.194 110.421 116.194 110.421 116.048 110.04 116.224 109.745 116.4 109.451 116.694 109.275 116.694 109.188 116.694 109.099 117.076 108.688 116.724 108.188 116.371 107.688 111.314 99.721 111.314 99.721 111.314 99.721 110.462 98.659 111.314 97.587 112.168 96.516 118.852 88.066 118.852 88.066L118.84 93.194 117.552 94.34C117.552 94.34 116.106 96.046 116.635 97.605 117.165 99.162 117.552 99.647 117.552 99.647L118.781 101.191 118.605 110.01z"/>
  <path stroke="none" fill="#B2B2B2" d="M108.471 90.051C108.471 90.051 108.96 89.792 109.424 89.251 109.888 88.712 111.256 86.638 111.256 84.742 111.256 82.846 111.137 20.405 111.137 20.405L109.864 19.449 109.864 15.102 111.373 15.054 111.373 11.791C111.373 11.791 111.643 10.669 111.691 10.518 111.742 10.365 111.771 10.086 111.771 10.086L111.781 6.094 110.625 6.06C110.625 6.06 109.698 6.088 109.668 6.897 109.64 7.705 109.625 7.528 109.625 7.528L108.522 7.565 108.471 3.737 119.12 3.737 119.135 7.565 117.786 7.565 117.739 6.528C117.739 6.528 117.448 6.1 117.049 6.094 116.65 6.088 115.768 6.147 115.768 6.147L115.739 10.101C115.739 10.101 115.831 10.4 115.918 10.567 116.004 10.733 116.078 11.217 116.078 11.217L116.078 14.98 117.783 15.069 117.786 19.272 116.754 20.434 116.709 47.128 116.724 55.698 116.709 65.811 116.694 75.555C116.694 75.555 116.563 82.274 116.578 82.317 116.591 82.361 116.769 84.655 115.621 86.066 114.475 87.477 108.453 95.87 108.453 95.87L108.388 90.167 108.471 90.051z"/>
  <path stroke="none" fill="#B2B2B2" d="M113.697 142.403C113.608 142.437 113.108 142.289 113.019 141.996 112.932 141.701 112.078 139.762 112.078 139.762 112.078 139.762 111.903 139.144 111.873 138.556 111.843 137.968 111.727 114.156 111.727 114.156 111.727 114.156 111.959 112.984 111.137 112.527 110.314 112.069 109.403 111.275 109.403 111.275 109.403 111.275 109.016 110.921 109.004 109.951 108.992 108.981 109.051 103.484 109.051 103.484L113.53 110.617C113.53 110.617 113.784 110.834 114.049 110.923 114.313 111.01 114.783 111.128 115.048 111.436 115.313 111.745 115.694 112.539 115.694 112.539 115.694 112.539 115.9 113.073 115.694 113.292 115.489 113.51 115.195 114.096 115.195 114.596 115.195 115.096 115.019 135.323 115.019 135.323L114.989 138.704C114.989 138.704 114.93 139.644 114.784 139.937 114.637 140.233 113.989 141.967 113.989 141.967L113.843 142.348 113.697 142.403z"/>
  <path stroke="none" fill="#808080" d="M94.787 3.939L90.564 15.289 90.525 9.987 90.236 9.621 92.49 3.782 94.787 3.939z"/>
  <path stroke="none" fill="#B2B2B2" d="M111.159 14.125C111.159 14.531 110.828 14.861 110.423 14.861 110.016 14.861 109.686 14.531 109.686 14.125 109.686 13.718 110.016 13.388 110.423 13.388 110.828 13.388 111.159 13.718 111.159 14.125z"/>
  <path stroke="none" fill="#B2B2B2" d="M111.159 12.368C111.159 12.775 110.828 13.103 110.423 13.103 110.016 13.103 109.686 12.775 109.686 12.368 109.686 11.961 110.016 11.631 110.423 11.631 110.828 11.631 111.159 11.961 111.159 12.368z"/>
  <path stroke="none" fill="#B2B2B2" d="M111.159 10.566C111.159 10.973 110.828 11.303 110.423 11.303 110.016 11.303 109.686 10.973 109.686 10.566 109.686 10.16 110.016 9.83 110.423 9.83 110.828 9.83 111.159 10.16 111.159 10.566z"/>
  <path stroke="none" fill="#B2B2B2" d="M111.159 8.669C111.159 9.076 110.828 9.406 110.423 9.406 110.016 9.406 109.686 9.076 109.686 8.669 109.686 8.263 110.016 7.934 110.423 7.934 110.828 7.934 111.159 8.263 111.159 8.669z"/>
  <path stroke="none" fill="#B2B2B2" d="M111.159 6.83C111.159 7.237 110.828 7.565 110.423 7.565 110.016 7.565 109.686 7.237 109.686 6.83 109.686 6.424 110.016 6.094 110.423 6.094 110.828 6.094 111.159 6.424 111.159 6.83z"/>
  <path stroke="none" fill="#B2B2B2" d="M117.786 14.125C117.786 14.531 117.456 14.861 117.051 14.861 116.644 14.861 116.314 14.531 116.314 14.125 116.314 13.718 116.644 13.388 117.051 13.388 117.456 13.388 117.786 13.718 117.786 14.125z"/>
  <path stroke="none" fill="#B2B2B2" d="M117.786 12.368C117.786 12.775 117.456 13.103 117.051 13.103 116.644 13.103 116.314 12.775 116.314 12.368 116.314 11.961 116.644 11.631 117.051 11.631 117.456 11.631 117.786 11.961 117.786 12.368z"/>
  <path stroke="none" fill="#B2B2B2" d="M117.786 10.566C117.786 10.973 117.456 11.303 117.051 11.303 116.644 11.303 116.314 10.973 116.314 10.566 116.314 10.16 116.644 9.83 117.051 9.83 117.456 9.83 117.786 10.16 117.786 10.566z"/>
  <path stroke="none" fill="#B2B2B2" d="M117.786 8.669C117.786 9.076 117.456 9.406 117.051 9.406 116.644 9.406 116.314 9.076 116.314 8.669 116.314 8.263 116.644 7.934 117.051 7.934 117.456 7.934 117.786 8.263 117.786 8.669z"/>
  <path stroke="none" fill="#B2B2B2" d="M117.786 6.83C117.786 7.237 117.456 7.565 117.051 7.565 116.644 7.565 116.314 7.237 116.314 6.83 116.314 6.424 116.644 6.094 117.051 6.094 117.456 6.094 117.786 6.424 117.786 6.83z"/>
  <g>
   <path stroke="none" fill="#808080" d="M22.371 128.979L26.46 117.697C26.46 117.697 26.673 116.849 27.707 116.843 28.74 116.835 30.885 116.855 32.118 115.343L24.972 115.343 20.041 129.02"/>
  </g>
  <path stroke="none" fill="#808080" d="M32.085 129.375C32.085 129.375 33.746 128.399 33.746 124.783L33.746 115.343 34.691 115.319 34.691 112.911 32.957 112.626C32.957 112.626 33.917 112.481 34.155 112.129 34.393 111.778 35.136 111.147 35.639 111.674 36.14 112.203 36.71 112.308 37.051 112.308 37.393 112.308 39.774 112.308 39.774 112.308L40.332 111.46 40.219 93.623 40.676 93.623 40.676 91.483 41.423 91.572 41.423 93.579 41.892 93.579 41.871 111.326 42.271 112.129 46.017 112.129C46.017 112.129 46.325 111.453 46.866 111.4 47.408 111.346 48.204 111.644 48.204 111.644L48.947 112.129C49.414 112.331 49.341 112.911 49.341 112.911L47.442 112.911 47.442 115.319 48.603 115.563 48.548 125.356C48.548 125.356 48.826 128.324 50.343 129.276L46.106 129.276 46.106 119.242 44.1 117.102 43.287 117.102 43.159 114.92 43.463 115.185 44.957 114.993C44.957 114.993 46.192 114.507 46.24 114.114 46.286 113.721 45.89 113.121 45.345 113.016 44.801 112.911 42.405 112.911 42.405 112.911 42.405 112.911 41.854 114.048 41.286 113.992 40.716 113.935 40.042 113.405 39.963 113.245 39.886 113.087 39.886 113.087 39.886 113.087L37.811 112.911C37.811 112.911 36.283 113.433 36.295 113.868 36.307 114.304 36.92 114.82 37.14 114.891 37.359 114.96 38.761 115.052 38.761 115.052L39.195 115.319 39.195 117.102 38.792 117.102 36.118 119.197 36.118 129.498 32.085 129.375z"/>
  <path stroke="none" fill="#808080" d="M50.076 115.319C50.182 115.319 51.436 116.061 52.06 116.281 52.683 116.504 54.569 117.007 55.429 117.102 56.289 117.198 57.197 116.87 57.424 116.554 57.652 116.239 57.701 115.81 57.701 115.81L57.424 115.185 50.076 115.319z"/>
  <path stroke="none" fill="#B2B2B2" d="M36.118 129.121L36.243 119.188 38.792 117.102 39.195 117.102 39.195 115.319 38.716 115.185 37.14 114.891C37.14 114.891 36.659 114.65 36.447 114.275 36.118 113.692 37.436 112.944 37.811 112.911 38.186 112.876 39.862 112.911 39.862 112.911 39.862 112.911 40.658 114.245 41.177 114.048 41.695 113.849 42.271 113.224 42.271 113.224L42.405 112.911 44.933 112.971C44.933 112.971 46.704 113.456 46.106 114.114 45.506 114.772 44.697 115.028 44.697 115.028L43.655 115.126 43.082 115.435 43.159 117.102 44.1 117.102 46.106 119.242 46.106 129.276 36.118 129.498 36.118 129.121z"/>
  <path stroke="none" fill="#B2B2B2" d="M36.264 118.352L36.2 115.362C36.585 115.427 37.932 116.391 37.932 116.391L37.932 117.183 36.264 118.352z"/>
  <path stroke="none" fill="#B2B2B2" d="M46.174 118.269C46.02 118.269 44.514 117.192 44.514 117.192L44.514 116.112C44.514 116.112 46.146 115.332 46.174 115.453 46.201 115.575 46.174 118.269 46.174 118.269z"/>
  <g>
   <path stroke="none" fill="#808080" d="M40.347 91.472L37.298 90.078 37.298 89.143 37.497 81.951 37.298 81.305 36.965 81.141 36.56 79.655 35.619 79.644 35.619 78.484 35.307 77.013C35.307 77.013 34.985 76.179 34.116 76.165 33.247 76.153 30.338 76.165 30.338 76.165 30.338 76.165 28.934 75.992 28.512 75.031 28.088 74.072 28.347 73.522 28.347 73.522L27.5 73.489 27.5 77.013 33.753 76.834 33.753 79.331 25.024 79.956 25.024 80.715 26.053 81.891 25.777 85.129 26.53 85.998 26.53 99.576 24.574 99.611 24.617 101.852 25.125 101.215 28.57 101.215 28.983 100.313 29.588 100.313 29.422 99.31 28.503 99.343 28.503 81.015 34.222 80.715 34.356 85.379 34.957 85.998 34.957 91.483 40.347 91.572"/>
  </g>
  <g>
   <path stroke="none" fill="#808080" d="M41.454 91.472L44.39 89.912 44.502 89.143 44.302 81.951 44.502 81.305 44.835 81.141 45.24 79.655 46.182 79.644 46.182 78.484 46.494 77.013C46.494 77.013 46.814 76.179 47.685 76.165 48.554 76.153 51.463 76.165 51.463 76.165 51.463 76.165 53.371 76.227 53.554 75.144 53.728 74.109 53.82 73.4 53.82 73.4L54.301 73.489 54.423 77.326 48.543 77.013 48.543 79.367 56.776 79.956 56.898 81.45 56.133 81.45 56.029 85.73 55.56 85.742 55.56 99.31 57.701 99.31 57.701 101.852 57.06 101.147 53.231 101.215 52.819 100.313 52.35 100.067 52.875 99.287 53.554 99.14 53.298 81.015 47.579 80.715 47.533 85.932 47.131 86.332 47.131 91.572 41.454 91.572"/>
  </g>
  <path stroke="none" fill="#B2B2B2" d="M37.298 89.143L37.298 90.078 40.676 91.483 41.759 91.349 44.39 89.912 44.39 89.143 42.204 89.143 42.249 73.474 43.713 73.4 43.731 69.908C43.731 69.908 40.52 67.183 43.908 64.549 43.926 64.534 43.945 64.519 43.966 64.504L43.966 58.819 42.359 58.819 42.36 56.165 43.899 56.165 45.014 55.345 45.014 54.314 43.14 54.314 43.14 52.085 41.646 49.722 40.176 49.722 38.749 52.018 38.749 54.314 36.741 54.195 36.741 55.345 38.347 56.165 39.439 56.165 39.484 58.819 38.168 58.819 38.168 64.504C38.168 64.504 39.683 65.584 39.707 67.337 39.731 69.088 38.412 69.844 38.412 69.844L38.453 73.474 39.506 73.522 39.551 89.143 37.298 89.143z"/>
  <path stroke="none" fill="#808080" d="M32.616 72.286L29.942 72.286 29.942 65.95 32.616 65.95 32.616 72.286z"/>
  <path stroke="none" fill="#808080" d="M51.822 72.286L49.146 72.286 49.146 65.95 51.822 65.95 51.822 72.286z"/>
  <path stroke="none" fill="#B2B2B2" d="M36.686 90.472C36.686 90.843 36.387 91.143 36.018 91.143 35.649 91.143 35.348 90.843 35.348 90.472 35.348 90.103 35.649 89.804 36.018 89.804 36.387 89.804 36.686 90.103 36.686 90.472z"/>
  <path stroke="none" fill="#B2B2B2" d="M36.741 87.058C36.741 87.427 36.442 87.727 36.073 87.727 35.704 87.727 35.404 87.427 35.404 87.058 35.404 86.688 35.704 86.388 36.073 86.388 36.442 86.388 36.741 86.688 36.741 87.058z"/>
  <path stroke="none" fill="#B2B2B2" d="M36.688 83.495C36.688 83.864 36.387 84.165 36.018 84.165 35.649 84.165 35.348 83.864 35.348 83.495 35.348 83.126 35.649 82.826 36.018 82.826 36.387 82.826 36.688 83.126 36.688 83.495z"/>
  <path stroke="none" fill="#B2B2B2" d="M36.688 80.713C36.688 81.084 36.387 81.384 36.018 81.384 35.649 81.384 35.348 81.084 35.348 80.713 35.348 80.344 35.649 80.045 36.018 80.045 36.387 80.045 36.688 80.344 36.688 80.713z"/>
  <path stroke="none" fill="#B2B2B2" d="M46.396 90.802C46.396 91.173 46.095 91.472 45.726 91.472 45.356 91.472 45.057 91.173 45.057 90.802 45.057 90.433 45.356 90.134 45.726 90.134 46.095 90.134 46.396 90.433 46.396 90.802z"/>
  <path stroke="none" fill="#B2B2B2" d="M46.451 87.626C46.451 87.995 46.151 88.295 45.781 88.295 45.411 88.295 45.112 87.995 45.112 87.626 45.112 87.256 45.411 86.956 45.781 86.956 46.151 86.956 46.451 87.256 46.451 87.626z"/>
  <path stroke="none" fill="#B2B2B2" d="M46.451 84.733C46.451 85.102 46.151 85.402 45.781 85.402 45.411 85.402 45.112 85.102 45.112 84.733 45.112 84.362 45.411 84.063 45.781 84.063 46.151 84.063 46.451 84.362 46.451 84.733z"/>
  <path stroke="none" fill="#B2B2B2" d="M46.423 81.865C46.423 82.236 46.125 82.534 45.755 82.534 45.384 82.534 45.085 82.236 45.085 81.865 45.085 81.495 45.384 81.197 45.755 81.197 46.125 81.197 46.423 81.495 46.423 81.865z"/>
  <path stroke="none" fill="#B2B2B2" d="M41.837 91.141C41.837 91.512 41.537 91.811 41.167 91.811 40.798 91.811 40.499 91.512 40.499 91.141 40.499 90.772 40.798 90.472 41.167 90.472 41.537 90.472 41.837 90.772 41.837 91.141z"/>
 </g>
 <g id="Standard_x0020_layer">
  <path stroke-width="0.25" stroke-linejoin="round" d="M90.236 9.621C90.308 9.669 91.28 7.094 92.49 3.782"/>
  <path stroke-width="0.25" stroke-linejoin="round" d="M90.525 15.593C90.525 15.593 92.644 9.74 94.787 3.825"/>
  <path stroke-width="0.25" stroke-linejoin="round" d="M123.507 3.86C124.858 4.979 124.858 6.785 124.858 6.785C124.858 6.785 124.59 31.271 124.525 32.604C124.457 33.939 123.456 35.54 123.456 35.54C123.456 35.54 120.522 38.676 119.653 39.344C118.787 40.011 118.787 41.478 118.787 41.478L118.852 58.759C120.054 60.026 120.254 60.493 120.522 61.96C120.787 63.429 118.852 65.23 118.852 65.23L118.852 89.783L118.712 109.831L119.112 110.432L119.112 113.9L116.911 116.001C116.911 116.001 117.012 139.219 116.911 140.054C116.811 140.888 116.311 141.288 116.311 141.288C116.311 141.288 115.242 142.689 114.81 143.257C114.376 143.824 114.81 144.324 114.81 144.324C114.81 144.324 115.135 144.721 115.319 144.884"/>
  <path stroke-width="0.25" stroke-linejoin="round" d="M115.783 3.939C115.774 5.16 115.739 10.166 115.739 10.166C116.007 10.522 116.052 11.412 116.052 11.412L116.052 15.015L117.786 15.015L117.786 19.283L116.763 20.396C116.763 20.396 116.674 80.887 116.629 82.799C116.585 84.712 115.944 85.602 115.944 85.602L108.522 95.87"/>
  <path stroke-width="0.349" stroke-linejoin="round" d="M138.074 4.091C138.07 4.134 138.068 4.161 138.068 4.161C138.068 5.368 138.068 8.387 138.068 8.387L136.822 9.987L136.822 37.253L134.733 40.945L134.733 72.792L125.436 72.835L124.769 74.126L129.171 74.126L129.171 93.786L126.325 97.477L126.325 125.275L123.656 125.275L123.656 126.789L118.92 126.843C118.92 126.843 118.941 138.842 118.765 141.733C118.587 144.623 116.362 144.447 116.096 144.447C115.828 144.447 115.028 145.024 114.495 145.735C114.137 146.212 113.739 146.37 113.515 146.421L113.078 146.423C112.862 146.371 112.477 146.213 112.129 145.735C111.612 145.024 110.837 144.447 110.579 144.447C110.322 144.447 108.17 144.623 107.998 141.733C107.825 138.842 107.912 126.81 107.912 126.81L103.263 126.789L103.263 125.275L100.682 125.275L100.682 97.477L97.927 93.786L97.927 74.126L102.188 74.126L101.543 72.835L92.638 72.792L92.548 40.945L90.525 37.253L90.525 9.987L88.986 8.026L88.986 3.939C88.986 3.939 88.986 3.884 88.986 3.812"/>
  <path stroke-width="0.25" stroke-linejoin="round" d="M104.022 3.822C103.751 4.006 102.625 4.868 102.507 6.451C102.375 8.253 102.507 31.737 102.507 31.737C102.507 31.737 102.575 34.073 104.242 35.74C105.909 37.408 106.778 38.343 106.778 38.343C106.778 38.343 108.512 39.878 108.512 42.213C108.512 44.548 108.512 58.225 108.512 58.225C108.512 58.225 108.512 59.125 107.844 59.192C107.177 59.259 106.644 58.825 106.644 58.825L100.239 55.89C100.239 55.89 99.338 55.423 98.471 56.39C98.471 56.39 97.671 57.624 98.905 58.357C100.138 59.091 106.611 61.96 106.611 61.96C106.611 61.96 108.046 62.661 108.245 65.563C108.445 68.465 108.379 89.248 108.379 89.248L108.611 109.831L108.212 110.432L108.212 113.9L110.414 116.001C110.414 116.001 110.313 139.219 110.414 140.054C110.513 140.888 111.013 141.288 111.013 141.288C111.013 141.288 112.081 142.689 112.516 143.257C112.948 143.824 112.516 144.324 112.516 144.324L111.606 145.134"/>
  <path stroke-width="0.25" stroke-linejoin="round" d="M111.781 3.673L111.781 10.388C111.381 10.878 111.358 11.855 111.358 11.855L111.381 15.058L109.823 15.102L109.823 19.417L111.069 20.396L111.337 33.161C111.337 33.161 111.424 81.82 111.248 84.756C111.069 87.691 109.064 89.659 109.064 89.659L108.388 90.105"/>
  <path stroke-width="0.25" stroke-linejoin="round" d="M111.159 14.125C111.159 14.531 110.828 14.861 110.423 14.861C110.016 14.861 109.686 14.531 109.686 14.125C109.686 13.718 110.016 13.388 110.423 13.388C110.828 13.388 111.159 13.718 111.159 14.125z"/>
  <path stroke-width="0.25" stroke-linejoin="round" d="M117.786 12.368C117.786 12.775 117.456 13.103 117.051 13.103C116.644 13.103 116.314 12.775 116.314 12.368C116.314 11.961 116.644 11.631 117.051 11.631C117.456 11.631 117.786 11.961 117.786 12.368z"/>
  <path stroke-width="0.25" stroke-linejoin="round" d="M111.159 12.368C111.159 12.775 110.828 13.103 110.423 13.103C110.016 13.103 109.686 12.775 109.686 12.368C109.686 11.961 110.016 11.631 110.423 11.631C110.828 11.631 111.159 11.961 111.159 12.368z"/>
  <path stroke-width="0.25" stroke-linejoin="round" d="M111.159 10.567C111.159 10.973 110.828 11.301 110.423 11.301C110.016 11.301 109.686 10.973 109.686 10.567C109.686 10.16 110.016 9.83 110.423 9.83C110.828 9.83 111.159 10.16 111.159 10.567z"/>
  <path stroke-width="0.25" stroke-linejoin="round" d="M111.159 8.762C111.159 9.169 110.828 9.499 110.423 9.499C110.016 9.499 109.686 9.169 109.686 8.762C109.686 8.356 110.016 8.026 110.423 8.026C110.828 8.026 111.159 8.356 111.159 8.762z"/>
  <path stroke-width="0.25" stroke-linejoin="round" d="M111.159 6.83C111.159 7.237 110.828 7.565 110.423 7.565C110.016 7.565 109.686 7.237 109.686 6.83C109.686 6.424 110.016 6.094 110.423 6.094C110.828 6.094 111.159 6.424 111.159 6.83z"/>
  <path stroke-width="0.25" stroke-linejoin="round" d="M117.786 14.125C117.786 14.531 117.456 14.861 117.051 14.861C116.644 14.861 116.314 14.531 116.314 14.125C116.314 13.718 116.644 13.388 117.051 13.388C117.456 13.388 117.786 13.718 117.786 14.125z"/>
  <path stroke-width="0.25" stroke-linejoin="round" d="M117.786 10.567C117.786 10.973 117.456 11.301 117.051 11.301C116.644 11.301 116.314 10.973 116.314 10.567C116.314 10.16 116.644 9.83 117.051 9.83C117.456 9.83 117.786 10.16 117.786 10.567z"/>
  <path stroke-width="0.25" stroke-linejoin="round" d="M117.786 8.762C117.786 9.169 117.456 9.499 117.051 9.499C116.644 9.499 116.314 9.169 116.314 8.762C116.314 8.356 116.644 8.026 117.051 8.026C117.456 8.026 117.786 8.356 117.786 8.762z"/>
  <path stroke-width="0.25" stroke-linejoin="round" d="M117.786 6.83C117.786 7.237 117.456 7.565 117.051 7.565C116.644 7.565 116.314 7.237 116.314 6.83C116.314 6.424 116.644 6.094 117.051 6.094C117.456 6.094 117.786 6.424 117.786 6.83z"/>
  <path stroke-width="0.25" stroke-linejoin="round" d="M119.12 3.673L119.12 7.565L117.786 7.565L117.786 6.83"/>
  <path stroke-width="0.25" stroke-linejoin="round" d="M108.512 3.939L108.512 7.565L109.686 7.565L109.686 6.653"/>
  <path stroke-width="0.25" stroke-linejoin="round" d="M110.423 6.094L111.691 6.094"/>
  <path stroke-width="0.25" stroke-linejoin="round" d="M115.768 6.094L117.051 6.094"/>
  <path stroke-width="0.25" stroke-linejoin="round" d="M113.57 142.395C113.57 142.395 113.263 142.395 113.099 142.033C112.935 141.671 112.146 140.157 112.146 140.157C112.146 140.157 111.915 139.697 111.882 139.072C111.849 138.447 111.784 113.668 111.784 113.668C111.784 113.668 111.652 112.912 111.257 112.614C110.862 112.319 109.415 111.331 109.415 111.331C109.415 111.331 109.052 110.969 109.019 110.411C108.986 109.852 109.019 103.4 109.019 103.4L113.362 110.411C113.362 110.411 113.691 110.903 114.054 110.938C114.415 110.969 114.843 111.1 114.941 111.266C115.04 111.43 115.733 112.516 115.733 112.516C115.733 112.516 115.864 113.043 115.733 113.24C115.6 113.438 115.14 113.865 115.173 114.424C115.206 114.984 115.04 128.574 115.04 128.574L114.974 138.776C114.974 138.776 114.941 139.532 114.745 140.058C114.548 140.586 113.987 142.098 113.987 142.098C113.987 142.098 113.79 142.463 113.57 142.395z"/>
  <path stroke-width="0.25" stroke-linejoin="round" d="M118.92 126.843L118.947 120.564C118.947 120.564 118.793 119.756 119.581 119.427C120.371 119.097 121.623 118.539 121.623 118.539C121.623 118.539 123.103 117.98 123.135 116.465C123.168 114.95 123.531 89.515 123.531 89.515"/>
  <path stroke-width="0.25" stroke-linejoin="round" d="M123.399 97.082C122.599 97.082 121.951 96.435 121.951 95.635C121.951 94.897 122.504 94.287 123.218 94.198"/>
  <path stroke-width="0.25" stroke-linejoin="round" d="M123.859 93.331C123.859 93.331 124.299 92.564 124.644 91.49C124.835 90.9 124.998 90.215 125.045 89.515C125.177 87.54 125.045 74.246 125.045 74.246"/>
  <path stroke-width="0.25" stroke-linejoin="round" d="M125.066 89.778L128.84 89.778"/>
  <path stroke-width="0.25" stroke-linejoin="round" d="M124.644 91.51L128.84 91.51"/>
  <path stroke-width="0.25" stroke-linejoin="round" d="M118.759 89.251L123.399 89.251C123.399 89.251 125.109 89.186 125.102 88.066"/>
  <path stroke-width="0.25" stroke-linejoin="round" d="M125.045 86.98L123.135 86.98C123.135 86.98 122.543 86.98 122.412 86.355C122.281 85.73 122.412 85.236 122.412 85.236C122.412 85.236 122.477 84.71 123.135 84.677C123.793 84.644 124.781 84.677 124.781 84.677C124.781 84.677 125.703 84.611 125.802 84.052C125.9 83.492 125.802 76.977 125.802 76.977C125.802 76.977 125.846 76.055 125.102 75.891"/>
  <path stroke-width="0.25" stroke-linejoin="round" d="M118.957 125.263C118.694 125.299 123.656 125.263 123.656 125.263"/>
  <path stroke-width="0.25" stroke-linejoin="round" d="M119.78 125.263L119.78 119.343"/>
  <path stroke-width="0.25" stroke-linejoin="round" d="M107.912 126.81L108.081 121.034C108.081 121.034 108.34 119.899 107.549 119.569C106.76 119.24 105.51 118.68 105.51 118.68C105.51 118.68 104.028 118.121 103.995 116.608C103.962 115.093 103.6 89.259 103.6 89.259"/>
  <path stroke-width="0.25" stroke-linejoin="round" d="M103.731 97.225C104.531 97.225 105.18 96.576 105.18 95.778C105.18 95.04 104.628 94.43 103.914 94.34"/>
  <path stroke-width="0.25" stroke-linejoin="round" d="M103.272 93.474C103.272 93.474 102.834 92.707 102.487 91.634C102.296 91.042 102.134 90.358 102.087 89.656C101.92 87.159 101.96 86.629 102.087 74.388"/>
  <path stroke-width="0.25" stroke-linejoin="round" d="M102.087 87.123L103.995 87.123C103.995 87.123 104.587 87.123 104.719 86.498C104.85 85.873 104.719 85.379 104.719 85.379C104.719 85.379 104.653 84.852 103.995 84.819C103.337 84.787 102.35 84.819 102.35 84.819C102.35 84.819 101.429 84.754 101.329 84.194C101.231 83.635 101.329 77.12 101.329 77.12C101.329 77.12 101.287 76.198 102.028 76.034"/>
  <path stroke-width="0.25" stroke-linejoin="round" d="M107.956 125.305C107.486 125.271 103.283 125.271 103.283 125.271"/>
  <path stroke-width="0.25" stroke-linejoin="round" d="M107.352 125.271L107.352 119.486"/>
  <path stroke-width="0.25" stroke-linejoin="round" d="M118.661 109.763C118.661 109.763 118.53 110.575 118.003 111.013C117.477 111.453 117.037 111.54 116.819 111.32C116.599 111.1 116.248 110.599 116.248 110.599C116.248 110.599 115.897 110.091 116.248 109.763C116.599 109.433 117.037 108.775 116.73 108.337C116.424 107.899 111.421 99.914 111.421 99.914C111.421 99.914 110.501 98.685 111.114 97.85C111.728 97.018 118.661 88.331 118.661 88.331"/>
  <path stroke-width="0.25" stroke-linejoin="round" d="M118.635 93.331C118.635 93.331 116.466 95.35 116.466 96.623C116.466 97.894 117.486 99.914 118.582 100.923"/>
  <path stroke-width="0.25" stroke-linejoin="round" d="M108.328 89.251L103.382 89.251C103.382 89.251 102.551 89.387 102.049 88.507"/>
  <path stroke-width="0.25" stroke-linejoin="round" d="M92.802 60.152C92.802 60.152 97.878 59.03 98.905 58.273"/>
  <path stroke-width="0.25" stroke-linejoin="round" d="M99.26 55.847C99.26 55.847 99.268 54.677 99.049 54.414C98.829 54.151 97.118 52.22 96.591 51.167C96.064 50.115 93.433 44.454 93.301 44.411L92.712 43.929"/>
  <path stroke-width="0.349" stroke-linejoin="round" d="M49.851 11.037C49.851 13.348 49.851 18.239 49.851 18.239L51.079 18.239L51.079 18.64"/>
  <path stroke-width="0.349" stroke-linejoin="round" d="M42.963 18.64L42.963 18.239L44.323 18.239C44.323 18.239 44.323 13.647 44.323 11.259C44.323 11.259 44.256 10.702 44.723 10.458C45.192 10.212 45.46 9.9 45.481 9.566C45.503 9.231 45.481 8.718 45.481 8.718L48.737 8.718L48.737 9.721C48.737 9.721 48.781 10.189 49.115 10.368C49.451 10.547 49.851 10.724 49.851 11.148"/>
  <path stroke-width="0.349" stroke-linejoin="round" d="M23.185 55.345C23.253 55.345 23.202 46.817 23.202 46.817C23.202 46.817 23.344 45.945 22.516 45.965C21.814 45.981 21.196 45.914 21.196 45.914C21.196 45.914 20.894 45.78 20.844 45.195C20.794 44.61 20.71 31.751 20.71 31.751"/>
  <path stroke-width="0.25" stroke-linejoin="round" d="M32.103 20.557L32.115 25.53"/>
  <path stroke-width="0.25" stroke-linejoin="round" d="M23.452 25.53L33.219 25.53C33.219 25.53 34.121 25.362 34.189 24.225C34.256 23.088 34.189 21.55 34.189 21.55C34.189 21.55 34.054 20.379 34.924 20.346C35.793 20.312 46.764 20.346 46.764 20.346C46.764 20.346 47.432 20.48 47.432 21.149C47.432 21.818 47.432 24.493 47.432 24.493C47.432 24.493 47.399 25.496 48.503 25.53C49.606 25.564 58.034 25.53 58.034 25.53"/>
  <path stroke-width="0.25" stroke-linejoin="round" d="M50.566 25.362L50.566 23.879C49.831 23.879 49.317 23.879 49.317 23.879L49.317 22.586L55.627 22.586L55.627 23.879C55.627 23.879 55.35 23.879 54.914 23.879L54.957 25.362"/>
  <path stroke-width="0.25" stroke-linejoin="round" d="M49.698 22.632C49.744 21.355 50.978 20.33 52.494 20.33C54 20.33 55.228 21.343 55.29 22.609"/>
  <path stroke-width="0.25" stroke-linejoin="round" d="M50.841 22.571C51.03 21.945 51.698 21.481 52.494 21.481C53.292 21.481 53.962 21.948 54.148 22.576"/>
  <path stroke-width="0.25" stroke-linejoin="round" d="M55.381 18.774L55.381 22.576"/>
  <path stroke-width="0.25" stroke-linejoin="round" d="M50.009 21.561C50.009 20.434 50.009 18.774 50.009 18.774"/>
  <path stroke-width="0.25" stroke-linejoin="round" d="M58.191 20.469L58.235 25.545L58.593 25.545L58.593 26.623L58.034 27.045L58.034 27.893L59.463 27.893L59.463 30.167L57.567 31.527L57.567 36.298L57.677 43.1L56.898 44.148L56.898 81.45L56.029 81.45L56.029 85.73L55.56 85.73L55.56 99.31L57.511 99.31L57.701 99.14"/>
  <path stroke-width="0.349" stroke-linejoin="round" d="M64.183 122.454C65.078 122.563 65.771 123.325 65.771 124.248C65.771 125.245 64.962 126.055 63.965 126.055C63.713 126.055 63.472 126.003 63.256 125.909"/>
  <path stroke-width="0.349" stroke-linejoin="round" d="M19.012 125.912C18.778 126.031 18.515 126.099 18.236 126.099C17.292 126.099 16.53 125.334 16.53 124.393C16.53 123.45 17.292 122.686 18.236 122.686C18.403 122.686 18.567 122.712 18.721 122.757"/>
  <path stroke-width="0.25" stroke-linejoin="round" d="M23.452 21.071C23.452 21.16 23.452 27.626 23.452 27.626L22.181 27.626L22.181 28.05L22.818 28.495L22.818 30.324L22.818 34.828L22.181 35.808L22.181 42.32L22.818 42.765L22.818 43.548L22.405 44.148L21.157 44.148"/>
  <path stroke-width="0.25" stroke-linejoin="round" d="M25.359 46.634C25.359 46.634 25.728 46.165 25.728 45.698C25.728 45.228 25.728 42.051 25.728 42.051C25.728 42.051 25.594 41.316 24.589 41.115"/>
  <path stroke-width="0.25" stroke-linejoin="round" d="M24.701 36.64C25.498 36.814 26.094 37.524 26.094 38.372C26.094 39.192 25.539 39.883 24.783 40.085"/>
  <path stroke-width="0.349" stroke-linejoin="round" d="M38.347 53.512C38.347 53.956 37.987 54.314 37.545 54.314C37.1 54.314 36.741 53.956 36.741 53.512C36.741 53.069 37.1 52.71 37.545 52.71C37.987 52.71 38.347 53.069 38.347 53.512z"/>
  <path stroke-width="0.349" stroke-linejoin="round" d="M38.347 51.46C38.347 51.905 37.987 52.264 37.545 52.264C37.1 52.264 36.741 51.905 36.741 51.46C36.741 51.018 37.1 50.658 37.545 50.658C37.987 50.658 38.347 51.018 38.347 51.46z"/>
  <path stroke-width="0.349" stroke-linejoin="round" d="M38.347 49.487C38.347 49.93 37.987 50.29 37.545 50.29C37.1 50.29 36.741 49.93 36.741 49.487C36.741 49.045 37.1 48.685 37.545 48.685C37.987 48.685 38.347 49.045 38.347 49.487z"/>
  <path stroke-width="0.349" stroke-linejoin="round" d="M38.347 47.436C38.347 47.88 37.987 48.238 37.545 48.238C37.1 48.238 36.741 47.88 36.741 47.436C36.741 46.993 37.1 46.634 37.545 46.634C37.987 46.634 38.347 46.993 38.347 47.436z"/>
  <path stroke-width="0.349" stroke-linejoin="round" d="M38.347 45.241C38.347 45.685 37.987 46.043 37.545 46.043C37.1 46.043 36.741 45.685 36.741 45.241C36.741 44.798 37.1 44.439 37.545 44.439C37.987 44.439 38.347 44.798 38.347 45.241z"/>
  <path stroke-width="0.349" stroke-linejoin="round" d="M38.347 43.189C38.347 43.634 37.987 43.993 37.545 43.993C37.1 43.993 36.741 43.634 36.741 43.189C36.741 42.746 37.1 42.387 37.545 42.387C37.987 42.387 38.347 42.746 38.347 43.189z"/>
  <path stroke-width="0.349" stroke-linejoin="round" d="M38.347 41.216C38.347 41.659 37.987 42.02 37.545 42.02C37.1 42.02 36.741 41.659 36.741 41.216C36.741 40.774 37.1 40.414 37.545 40.414C37.987 40.414 38.347 40.774 38.347 41.216z"/>
  <path stroke-width="0.349" stroke-linejoin="round" d="M38.347 39.165C38.347 39.609 37.987 39.969 37.545 39.969C37.1 39.969 36.741 39.609 36.741 39.165C36.741 38.722 37.1 38.362 37.545 38.362C37.987 38.362 38.347 38.722 38.347 39.165z"/>
  <path stroke-width="0.349" stroke-linejoin="round" d="M45.125 53.512C45.125 53.956 44.765 54.314 44.323 54.314C43.88 54.314 43.52 53.956 43.52 53.512C43.52 53.069 43.88 52.71 44.323 52.71C44.765 52.71 45.125 53.069 45.125 53.512z"/>
  <path stroke-width="0.349" stroke-linejoin="round" d="M45.125 51.46C45.125 51.905 44.765 52.264 44.323 52.264C43.88 52.264 43.52 51.905 43.52 51.46C43.52 51.018 43.88 50.658 44.323 50.658C44.765 50.658 45.125 51.018 45.125 51.46z"/>
  <path stroke-width="0.349" stroke-linejoin="round" d="M45.125 49.487C45.125 49.93 44.765 50.29 44.323 50.29C43.88 50.29 43.52 49.93 43.52 49.487C43.52 49.045 43.88 48.685 44.323 48.685C44.765 48.685 45.125 49.045 45.125 49.487z"/>
  <path stroke-width="0.349" stroke-linejoin="round" d="M45.125 47.436C45.125 47.88 44.765 48.238 44.323 48.238C43.88 48.238 43.52 47.88 43.52 47.436C43.52 46.993 43.88 46.634 44.323 46.634C44.765 46.634 45.125 46.993 45.125 47.436z"/>
  <path stroke-width="0.349" stroke-linejoin="round" d="M45.125 45.241C45.125 45.685 44.765 46.043 44.323 46.043C43.88 46.043 43.52 45.685 43.52 45.241C43.52 44.798 43.88 44.439 44.323 44.439C44.765 44.439 45.125 44.798 45.125 45.241z"/>
  <path stroke-width="0.349" stroke-linejoin="round" d="M45.125 43.189C45.125 43.634 44.765 43.993 44.323 43.993C43.88 43.993 43.52 43.634 43.52 43.189C43.52 42.746 43.88 42.387 44.323 42.387C44.765 42.387 45.125 42.746 45.125 43.189z"/>
  <path stroke-width="0.349" stroke-linejoin="round" d="M45.125 41.216C45.125 41.659 44.765 42.02 44.323 42.02C43.88 42.02 43.52 41.659 43.52 41.216C43.52 40.774 43.88 40.414 44.323 40.414C44.765 40.414 45.125 40.774 45.125 41.216z"/>
  <path stroke-width="0.349" stroke-linejoin="round" d="M45.125 39.165C45.125 39.609 44.765 39.969 44.323 39.969C43.88 39.969 43.52 39.609 43.52 39.165C43.52 38.722 43.88 38.362 44.323 38.362C44.765 38.362 45.125 38.722 45.125 39.165z"/>
  <path stroke-width="0.349" stroke-linejoin="round" d="M36.073 37.771C36.073 38.448 36.073 54.439 36.073 56.322L37.856 57.481L37.856 73.222"/>
  <path stroke-width="0.349" stroke-linejoin="round" d="M44.323 73.489L44.323 57.302L46.151 56.456C46.151 56.456 46.151 47.487 46.151 42.051L45.57 40.948L45.527 37.771"/>
  <path stroke-width="0.349" stroke-linejoin="round" d="M37.545 26.042C37.545 26.486 37.185 26.846 36.741 26.846C36.298 26.846 35.939 26.486 35.939 26.042C35.939 25.6 36.298 25.24 36.741 25.24C37.185 25.24 37.545 25.6 37.545 26.042z"/>
  <path stroke-width="0.349" stroke-linejoin="round" d="M46.039 26.042C46.039 26.486 45.679 26.846 45.237 26.846C44.792 26.846 44.433 26.486 44.433 26.042C44.433 25.6 44.792 25.24 45.237 25.24C45.679 25.24 46.039 25.6 46.039 26.042z"/>
  <path stroke-width="0.349" stroke-linejoin="round" d="M35.939 22.96C35.939 22.96 37.722 22.922 38.347 22.96C38.972 23 39.06 23.591 39.06 23.591C39.06 23.591 39.06 30.667 39.06 30.681L40.743 31.751L41.156 31.751L42.725 30.431C42.905 29.097 42.963 23.367 42.963 23.367C42.963 23.367 43.118 23 43.698 22.96C44.277 22.922 46.039 22.937 46.039 22.937L46.039 24.676C46.039 24.676 44.289 24.489 44.323 25.24L44.323 27.202C44.433 27.821 45.237 27.826 45.237 27.826L46.039 27.826L46.039 28.707L44.902 29.254L44.902 31.995L45.393 32.609C45.868 32.609 46.151 32.609 46.151 32.609L46.151 37.771C46.151 37.771 44.829 37.771 43.118 37.771L42.963 40.625L41.646 43.1L40.442 43.1L39.06 40.847L39.015 37.771C37.094 37.771 35.537 37.771 35.537 37.771L35.537 32.609C35.537 32.609 35.75 32.609 36.118 32.609L36.741 32.152L36.741 29.254L35.939 28.707L35.939 27.782L36.981 27.771C36.981 27.771 37.744 27.525 37.701 26.768L37.683 25.545C37.683 25.545 37.616 24.827 37.048 24.794C36.479 24.76 35.939 24.811 35.939 24.811L35.939 22.96z"/>
  <path stroke-width="0.349" stroke-linejoin="round" d="M44.902 31.583C44.886 31.533 46.511 30.597 46.511 30.597L46.597 22.934L47.021 21.071"/>
  <path stroke-width="0.349" stroke-linejoin="round" d="M36.741 31.483L35.442 30.48L35.442 22.754L34.825 21.071"/>
  <path stroke-width="0.349" stroke-linejoin="round" d="M42.36 56.165C43.201 56.165 43.899 56.165 43.899 56.165L44.969 55.345C44.999 55.345 45.014 55.345 45.014 55.345L45.014 54.314C45.014 54.314 44.229 54.314 43.14 54.314L43.14 52.085L41.646 49.722L40.176 49.722L38.749 52.018L38.749 54.314C37.534 54.314 36.631 54.314 36.631 54.314L36.631 55.345L38.079 56.165C38.079 56.165 39.201 56.165 39.439 56.165"/>
  <path stroke-width="0.349" stroke-linejoin="round" d="M38.453 73.474L38.412 69.844C39.195 69.287 39.707 68.371 39.707 67.337C39.707 66.424 39.31 65.605 38.68 65.043L38.168 64.504L38.168 58.819C38.168 58.819 38.615 58.819 39.261 58.819L39.484 58.819L39.484 53.155L40.822 52.085L41.045 52.085L42.316 53.067L42.316 58.819L42.359 58.819C43.27 58.819 43.966 58.819 43.966 58.819L43.966 64.504L43.823 64.582C42.911 65.004 42.265 66.048 42.265 67.268C42.265 68.447 42.868 69.459 43.731 69.908L43.688 73.474L42.249 73.474L42.204 89.143L39.551 89.143L39.506 73.468L38.453 73.474z"/>
  <path stroke-width="0.25" stroke-linejoin="round" d="M40.533 91.424C39.889 91.156 37.298 90.078 37.298 90.078L37.298 89.143L44.39 89.143L44.39 89.912C44.39 89.912 42.625 90.876 41.86 91.293"/>
  <path stroke-width="0.25" stroke-linejoin="round" d="M40.676 91.483L40.676 93.623L40.219 93.623L40.332 111.46L39.774 112.308L36.719 112.308C36.719 112.308 36.341 112.463 36.073 112.129C35.804 111.796 35.448 111.394 34.957 111.438C34.466 111.483 34.155 112.129 34.155 112.129C34.155 112.129 33.843 112.554 33.396 112.554C33.396 112.554 32.293 112.82 31.731 112.331C31.167 111.84 30.722 111.572 30.187 111.528C29.652 111.483 25.236 111.528 25.236 111.528"/>
  <path stroke-width="0.25" stroke-linejoin="round" d="M41.423 91.82C41.423 92.356 41.423 93.579 41.423 93.579L41.892 93.579L41.871 111.326L42.271 112.129L46.017 112.129C46.017 112.129 46.418 111.394 47.131 111.349C47.845 111.305 48.143 111.528 48.484 111.93C48.826 112.331 49.414 112.331 49.414 112.331C49.414 112.331 50.298 112.331 50.655 111.93C51.012 111.528 51.368 111.483 51.546 111.483C51.725 111.483 57.256 111.483 57.256 111.483"/>
  <path stroke-width="0.25" stroke-linejoin="round" d="M25.024 99.576L26.53 99.576L26.53 85.998L25.777 85.129C25.777 85.129 25.777 84.643 25.777 84.325L26.053 81.891C25.742 81.534 25.024 80.715 25.024 80.715L25.024 43.892C25.024 43.892 24.724 43.39 24.356 43.1C23.987 42.81 24.121 41.917 24.121 41.917C24.121 41.917 24.121 32.621 24.121 31.751C24.121 30.882 23.219 30.681 23.219 30.681"/>
  <path stroke-width="0.25" stroke-linejoin="round" d="M26.998 73.355L26.998 60.1C26.998 60.1 26.998 58.64 28.068 58.573C29.138 58.506 34.49 58.573 34.49 58.573C34.49 58.573 35.627 58.417 35.761 60.1C35.895 61.784 35.835 73.355 35.835 73.355"/>
  <path stroke-width="0.349" stroke-linejoin="round" d="M25.024 73.355L37.856 73.355"/>
  <path stroke-width="0.25" stroke-linejoin="round" d="M35.835 73.355C35.835 73.355 35.685 75.14 36.965 75.14C38.168 75.14 38.615 75.542 38.615 76.388C38.615 77.771 38.615 78.173 38.615 89.143"/>
  <path stroke-width="0.25" stroke-linejoin="round" d="M43.713 89.143L43.72 76.233C43.72 76.233 43.621 75.531 44.189 75.43C44.758 75.329 45.962 75.43 46.128 74.727C46.295 74.025 46.128 73.355 46.128 73.355"/>
  <path stroke-width="0.25" stroke-linejoin="round" d="M46.109 78.618C45.688 78.618 43.966 78.618 43.966 78.618"/>
  <path stroke-width="0.25" stroke-linejoin="round" d="M44.39 89.143L44.323 82.141C44.323 82.141 44.277 81.338 44.679 81.25C45.081 81.159 45.24 80.234 45.262 79.655L46.203 79.644L46.203 78.618C46.203 78.618 46.191 78.618 46.168 78.618"/>
  <path stroke-width="0.25" stroke-linejoin="round" d="M35.619 78.618C35.634 78.618 38.524 78.643 38.524 78.643"/>
  <path stroke-width="0.25" stroke-linejoin="round" d="M37.432 89.143L37.5 82.141C37.5 82.141 37.543 81.338 37.143 81.25C36.741 81.159 36.582 80.234 36.56 79.655L35.619 79.644C35.619 79.644 35.619 78.798 35.619 78.643"/>
  <path stroke-width="0.349" stroke-linejoin="round" d="M43.713 73.4L56.898 73.4C56.898 73.4 56.898 73.433 56.898 73.489"/>
  <path stroke-width="0.25" stroke-linejoin="round" d="M28.983 73.355L28.983 64.75C28.983 64.75 29.115 63.88 31.1 63.857C33.085 63.835 33.53 64.37 33.664 64.795C33.865 65.429 33.664 73.355 33.664 73.355"/>
  <path stroke-width="0.25" stroke-linejoin="round" d="M32.616 72.286L29.942 72.286L29.942 65.95L32.616 65.95L32.616 72.286z"/>
  <path stroke-width="0.25" stroke-linejoin="round" d="M29.338 64.927L29.942 64.927C29.942 64.927 30.408 64.977 30.443 64.433C30.477 63.892 30.477 63.892 30.477 63.892"/>
  <path stroke-width="0.25" stroke-linejoin="round" d="M33.152 64.927L32.549 64.927C32.549 64.927 32.082 64.977 32.048 64.433C32.015 63.892 32.015 63.892 32.015 63.892"/>
  <path stroke-width="0.25" stroke-linejoin="round" d="M28.57 58.975C28.57 58.975 28.236 59.923 27.5 60.1"/>
  <path stroke-width="0.25" stroke-linejoin="round" d="M34.59 58.975C34.59 58.975 34.756 59.588 35.259 59.844"/>
  <path stroke-width="0.25" stroke-linejoin="round" d="M46.203 73.355L46.203 60.1C46.203 60.1 46.203 58.64 47.273 58.573C48.344 58.506 53.695 58.573 53.695 58.573C53.695 58.573 54.832 58.417 54.965 60.1C55.098 61.784 55.039 73.355 55.039 73.355"/>
  <path stroke-width="0.25" stroke-linejoin="round" d="M48.188 73.355L48.188 64.75C48.188 64.75 48.322 63.88 50.305 63.857C52.289 63.835 52.735 64.37 52.869 64.795C53.07 65.429 52.869 73.355 52.869 73.355"/>
  <path stroke-width="0.25" stroke-linejoin="round" d="M51.822 72.286L49.146 72.286L49.146 65.95L51.822 65.95L51.822 72.286z"/>
  <path stroke-width="0.25" stroke-linejoin="round" d="M48.543 64.927L49.146 64.927C49.146 64.927 49.613 64.977 49.648 64.433C49.68 63.892 49.68 63.892 49.68 63.892"/>
  <path stroke-width="0.25" stroke-linejoin="round" d="M52.356 64.927L51.755 64.927C51.755 64.927 51.286 64.977 51.253 64.433C51.219 63.892 51.219 63.892 51.219 63.892"/>
  <path stroke-width="0.25" stroke-linejoin="round" d="M47.774 58.975C47.774 58.975 47.441 59.923 46.704 60.1"/>
  <path stroke-width="0.25" stroke-linejoin="round" d="M53.795 58.975C53.795 58.975 53.962 59.588 54.463 59.844"/>
  <path stroke-width="0.25" stroke-linejoin="round" d="M56.898 46.912C56.898 46.912 56.228 46.511 56.14 45.841C56.051 45.173 56.14 42.387 56.14 42.387C56.14 42.387 56.14 41.496 56.719 41.216C57.298 40.936 57.511 40.893 57.511 40.893"/>
  <path stroke-width="0.25" stroke-linejoin="round" d="M57.511 39.969L56.805 39.777C56.805 39.777 56.104 39.42 56.1 38.975C56.094 38.529 56.1 37.414 56.1 37.414C56.1 37.414 56.265 36.759 56.804 36.64C57.344 36.523 57.567 36.298 57.567 36.298"/>
  <path stroke-width="0.25" stroke-linejoin="round" d="M59.082 42.587C59.216 42.54 59.929 42.265 60.018 41.482C60.109 40.701 60.018 36.1 60.018 36.1C60.018 36.1 59.926 35.456 59.57 35.134C59.216 34.811 59.082 34.304 59.082 34.076C59.082 33.845 59.082 30.44 59.082 30.44"/>
  <path stroke-width="0.25" stroke-linejoin="round" d="M45.28 73.522C45.259 73.905 44.868 74.209 44.39 74.209C43.909 74.209 43.518 73.903 43.499 73.522"/>
  <path stroke-width="0.25" stroke-linejoin="round" d="M38.112 73.522C38.091 73.905 37.701 74.209 37.222 74.209C36.743 74.209 36.351 73.903 36.331 73.522"/>
  <path stroke-width="0.25" stroke-linejoin="round" d="M25.024 79.956L33.753 79.331L33.753 76.834L25.024 77.326"/>
  <path stroke-width="0.25" stroke-linejoin="round" d="M56.898 79.844C52.015 79.576 48.543 79.353 48.543 79.353L48.543 77.013L56.898 77.459"/>
  <path stroke-width="0.25" stroke-linejoin="round" d="M46.203 78.484L46.53 77.013C46.53 77.013 46.947 76.198 47.774 76.165C48.603 76.132 52.082 76.165 52.082 76.165C52.082 76.165 53.554 76.12 53.686 74.76C53.82 73.4 53.82 73.4 53.82 73.4"/>
  <path stroke-width="0.25" stroke-linejoin="round" d="M35.619 78.484L35.307 77.013C35.307 77.013 34.908 76.198 34.116 76.165C33.325 76.132 29.998 76.165 29.998 76.165C29.998 76.165 28.591 76.12 28.463 74.76C28.335 73.4 28.335 73.4 28.335 73.4"/>
  <path stroke-width="0.25" stroke-linejoin="round" d="M54.423 73.522L54.423 77.326"/>
  <path stroke-width="0.25" stroke-linejoin="round" d="M27.5 73.489L27.5 77.013"/>
  <path stroke-width="0.25" stroke-linejoin="round" d="M44.723 18.195L49.317 18.195"/>
  <path stroke-width="0.25" stroke-linejoin="round" d="M57.511 115.052L57.701 101.852L57.121 101.138L53.375 101.138L52.527 100.067L47.801 100.067C47.801 100.067 47.622 100.513 47.131 100.691C46.64 100.87 45.972 100.825 45.795 100.067C45.615 99.31 46.061 98.864 46.463 98.775C46.463 98.775 46.771 98.611 47.131 98.853"/>
  <path stroke-width="0.25" stroke-linejoin="round" d="M47.131 99.611L47.131 86.332L47.533 85.932L47.6 80.715L53.286 80.715C53.286 80.715 53.24 82.275 53.554 82.498L53.554 99.14L52.783 99.14L52.759 99.609L47.868 99.576L47.131 99.611z"/>
  <path stroke-width="0.25" stroke-linejoin="round" d="M58.81 80.045L58.548 88.92L57.701 89.766L57.701 99.14"/>
  <path stroke-width="0.25" stroke-linejoin="round" d="M57.701 89.143L56.898 88.251L56.898 85.575L58.125 84.638"/>
  <path stroke-width="0.25" stroke-linejoin="round" d="M53.286 87.036L52.72 87.036L50.305 85.463L50.142 81.605L49.341 80.965"/>
  <path stroke-width="0.25" stroke-linejoin="round" d="M36.719 90.472C36.719 90.831 36.429 91.12 36.073 91.12C35.716 91.12 35.426 90.831 35.426 90.472C35.426 90.115 35.716 89.826 36.073 89.826C36.429 89.826 36.719 90.115 36.719 90.472z"/>
  <path stroke-width="0.25" stroke-linejoin="round" d="M36.719 87.036C36.719 87.393 36.429 87.682 36.073 87.682C35.716 87.682 35.426 87.393 35.426 87.036C35.426 86.677 35.716 86.388 36.073 86.388C36.429 86.388 36.719 86.677 36.719 87.036z"/>
  <path stroke-width="0.25" stroke-linejoin="round" d="M36.719 83.495C36.719 83.852 36.429 84.143 36.073 84.143C35.716 84.143 35.426 83.852 35.426 83.495C35.426 83.138 35.716 82.849 36.073 82.849C36.429 82.849 36.719 83.138 36.719 83.495z"/>
  <path stroke-width="0.25" stroke-linejoin="round" d="M36.719 80.715C36.719 81.072 36.429 81.361 36.073 81.361C35.716 81.361 35.426 81.072 35.426 80.715C35.426 80.356 35.716 80.067 36.073 80.067C36.429 80.067 36.719 80.356 36.719 80.715z"/>
  <path stroke-width="0.25" stroke-linejoin="round" d="M46.401 90.825C46.401 91.183 46.11 91.472 45.753 91.472C45.396 91.472 45.107 91.183 45.107 90.825C45.107 90.468 45.396 90.179 45.753 90.179C46.11 90.179 46.401 90.468 46.401 90.825z"/>
  <path stroke-width="0.25" stroke-linejoin="round" d="M46.401 87.626C46.401 87.983 46.11 88.272 45.753 88.272C45.396 88.272 45.107 87.983 45.107 87.626C45.107 87.269 45.396 86.978 45.753 86.978C46.11 86.978 46.401 87.269 46.401 87.626z"/>
  <path stroke-width="0.25" stroke-linejoin="round" d="M46.401 84.733C46.401 85.09 46.11 85.379 45.753 85.379C45.396 85.379 45.107 85.09 45.107 84.733C45.107 84.376 45.396 84.085 45.753 84.085C46.11 84.085 46.401 84.376 46.401 84.733z"/>
  <path stroke-width="0.25" stroke-linejoin="round" d="M46.401 81.951C46.401 82.308 46.11 82.597 45.753 82.597C45.396 82.597 45.107 82.308 45.107 81.951C45.107 81.593 45.396 81.305 45.753 81.305C46.11 81.305 46.401 81.593 46.401 81.951z"/>
  <path stroke-width="0.25" stroke-linejoin="round" d="M28.647 86.891L29.39 86.891L31.44 85.379L31.614 81.605L32.264 80.965"/>
  <path stroke-width="0.25" stroke-linejoin="round" d="M24.875 115.052L24.568 99.31L23.675 98.507L23.253 81.784"/>
  <path stroke-width="0.25" stroke-linejoin="round" d="M25.024 99.576C24.94 99.355 24.69 89.539 24.69 89.539L23.931 88.668L24.724 87.894L24.679 85.887L23.719 85.018"/>
  <path stroke-width="0.25" stroke-linejoin="round" d="M24.617 101.852L25.125 101.215L28.57 101.215L28.983 100.313L34.256 100.313C34.256 100.313 34.49 100.915 35.426 100.847C36.362 100.781 36.631 99.704 36.329 99.14C36.027 98.573 35.619 98.662 35.619 98.662C35.619 98.662 35.168 98.606 34.957 98.775"/>
  <path stroke-width="0.25" stroke-linejoin="round" d="M34.957 99.4L34.957 85.998L34.356 85.379L34.222 80.715L28.503 81.015L28.503 99.343L29.422 99.31L29.472 99.756L34.256 99.756L34.957 99.756L34.957 99.4z"/>
  <path stroke-width="0.349" stroke-linejoin="round" d="M20.041 129.02C22.166 123.198 24.875 115.563 24.875 115.563"/>
  <path stroke-width="0.25" stroke-linejoin="round" d="M22.371 128.979C24.48 123.161 26.53 117.504 26.53 117.504C26.53 117.504 26.798 116.834 27.399 116.834C27.972 116.834 30.963 117.117 32.118 115.343"/>
  <path stroke-width="0.349" stroke-linejoin="round" d="M50.343 115.563C50.343 115.563 53.554 117.102 55.56 117.102C57.567 117.102 57.89 116.076 57.701 115.563"/>
  <path stroke-width="0.349" stroke-linejoin="round" d="M48.603 115.563C48.603 115.563 48.335 123.524 48.603 126.099C48.799 127.983 49.64 128.812 50.076 129.121"/>
  <path stroke-width="0.25" stroke-linejoin="round" d="M34.691 115.319L24.875 115.319L24.875 112.911L34.691 112.911L34.691 115.319z"/>
  <path stroke-width="0.25" stroke-linejoin="round" d="M57.256 115.319L47.442 115.319L47.442 112.911L57.256 112.911L57.256 115.319z"/>
  <path stroke-width="0.349" stroke-linejoin="round" d="M39.195 129.498C39.195 128.628 39.195 115.319 39.195 115.319L43.085 115.343C43.085 115.343 43.146 126.418 43.159 129.007"/>
  <path stroke-width="0.25" stroke-linejoin="round" d="M36.118 129.276L36.118 119.197L38.792 117.102L39.195 117.102"/>
  <path stroke-width="0.25" stroke-linejoin="round" d="M46.106 129.276L46.106 119.242L44.1 117.102L43.287 117.102"/>
  <path stroke-width="0.25" stroke-linejoin="round" d="M36.17 118.549L36.17 115.299L36.6 115.299L37.932 116.275L37.932 117.183L36.17 118.549z"/>
  <path stroke-width="0.25" stroke-linejoin="round" d="M46.174 115.393L46.174 118.454L44.514 117.168L44.514 116.111L46.174 115.393z"/>
  <path stroke-width="0.25" stroke-linejoin="round" d="M44.5 115.052C45.776 115.007 46.24 114.114 46.24 114.114C46.24 114.114 46.441 114.048 46.24 113.602C46.039 113.156 44.991 112.911 44.991 112.911L42.405 112.911C42.405 112.911 42.093 114.004 41.112 114.004C40.131 114.004 39.819 112.911 39.819 112.911L37.811 112.911C37.811 112.911 36.697 113.111 36.295 113.868C35.979 114.465 37.143 115.028 37.901 115.052L38.761 115.052L39.195 114.861L43.159 114.92L43.463 115.185L44.5 115.052z"/>
  <path stroke-width="0.349" stroke-linejoin="round" d="M16.295 128.611C16.295 128.459 16.295 128.34 16.295 128.34C16.295 128.34 16.496 127.603 17.032 127.537C17.567 127.469 18.169 127.537 18.169 127.537C18.169 127.537 19.039 127.335 19.105 126.132C19.172 124.929 19.105 123.59 19.105 123.59C19.105 123.59 19.306 122.453 18.169 122.387C17.032 122.319 16.696 121.65 16.629 120.715C16.564 119.778 16.629 101.984 16.629 101.984C16.629 101.984 16.763 101.316 17.164 101.183C17.567 101.049 19.164 100.647 19.135 98.974C19.105 97.302 17.716 96.902 17.716 96.902C17.716 96.902 16.763 96.566 16.763 96.165C16.763 95.765 16.696 81.784 16.696 81.784L23.253 81.784L23.185 55.764C23.185 55.764 21.847 55.831 21.646 54.761L21.646 48.942C21.646 48.942 21.713 47.737 20.777 47.27C19.841 46.801 19.373 45.865 19.306 45.128C19.239 44.393 19.306 33.021 19.306 33.021C19.306 33.021 19.44 31.617 20.643 31.417L20.733 21.94C20.733 21.94 20.733 20.87 22.025 20.78C23.318 20.692 32.103 20.557 32.103 20.557L32.103 18.774L58.191 18.774L58.191 20.469L59.484 20.513C59.484 20.513 60.911 20.469 60.956 21.762C61 23.054 60.956 43.033 60.956 43.033L59.195 43.1L59.216 43.478L59.573 44.058L60.975 44.081L60.975 45.908L59.372 45.908C59.372 45.908 59.06 46.021 59.039 46.354C59.015 46.689 59.015 58.439 59.015 58.439L59.06 81.25C59.06 81.25 59.195 81.495 59.417 81.516C59.64 81.539 65.459 81.561 65.459 81.561L65.459 96.278C65.459 96.278 63.051 96.7 63.162 98.974C63.162 98.974 63.03 101.316 65.57 101.516L65.483 121.739C65.483 121.739 65.215 122.164 64.835 122.253C64.456 122.341 63.162 122.676 63.162 123.456C63.162 124.237 63.162 126.066 63.162 126.066C63.162 126.066 63.229 127.18 63.921 127.224C64.548 127.265 65.393 127.579 65.546 128.847"/>
  <path stroke-width="0.349" stroke-linejoin="round" d="M33.686 115.563C33.686 115.563 33.82 122.118 33.686 125.596C33.591 128.094 32.624 129.04 32.085 129.375"/>
  <path stroke-width="0.25" stroke-linejoin="round" d="M24.586 87.53C24.478 87.59 24.353 87.626 24.222 87.626C23.815 87.626 23.486 87.296 23.486 86.891C23.486 86.484 23.815 86.155 24.222 86.155C24.35 86.155 24.469 86.186 24.573 86.243"/>
  <path stroke-width="0.25" stroke-linejoin="round" id="AUTOID_16973" d="M57.151 86.251C57.258 86.189 57.383 86.155 57.515 86.155C57.92 86.155 58.25 86.484 58.25 86.891C58.25 87.296 57.92 87.626 57.515 87.626C57.387 87.626 57.268 87.593 57.164 87.537"/>
  <path stroke-width="0.25" stroke-linejoin="round" d="M41.759 91.572C44.365 91.572 47.006 91.572 47.006 91.572"/>
  <path stroke-width="0.25" stroke-linejoin="round" d="M35.055 91.572C37.283 91.572 37.826 91.572 40.521 91.572"/>
  <path stroke-width="0.25" stroke-linejoin="round" d="M37.856 43.929C37.932 43.889 44.323 43.993 44.323 43.993"/>
  <path stroke-width="0.25" stroke-linejoin="round" d="M42.155 42.43C43.222 42.447 44.054 42.46 44.054 42.46"/>
  <path stroke-width="0.25" stroke-linejoin="round" d="M37.59 40.417C37.609 40.402 38.259 40.408 39.054 40.42"/>
  <path stroke-width="0.25" stroke-linejoin="round" d="M42.884 40.393C43.639 40.408 44.228 40.423 44.228 40.423"/>
  <path stroke-width="0.25" stroke-linejoin="round" d="M37.59 40.417C37.609 40.402 38.259 40.408 39.054 40.42"/>
  <path stroke-width="0.25" stroke-linejoin="round" d="M37.59 42.39C37.621 42.375 38.658 42.381 39.929 42.393"/>
  <path stroke-width="0.25" stroke-linejoin="round" d="M37.545 46.018C37.624 45.976 44.323 46.081 44.323 46.081"/>
  <path stroke-width="0.25" stroke-linejoin="round" d="M37.545 44.411C37.624 44.371 44.323 44.475 44.323 44.475"/>
  <path stroke-width="0.25" stroke-linejoin="round" d="M37.856 48.212C37.932 48.171 44.323 48.274 44.323 48.274"/>
  <path stroke-width="0.25" stroke-linejoin="round" d="M37.701 48.658C37.776 48.618 44.167 48.72 44.167 48.72"/>
  <path stroke-width="0.25" stroke-linejoin="round" d="M42.112 50.293C43.325 50.31 44.323 50.326 44.323 50.326"/>
  <path stroke-width="0.25" stroke-linejoin="round" d="M37.856 50.264C37.883 50.25 38.677 50.253 39.701 50.262"/>
  <path stroke-width="0.25" stroke-linejoin="round" d="M43.106 52.302C43.773 52.32 44.323 52.337 44.323 52.337"/>
  <path stroke-width="0.25" stroke-linejoin="round" d="M37.298 52.274C37.319 52.259 37.948 52.262 38.759 52.273"/>
  <path stroke-width="0.25" stroke-linejoin="round" d="M37.511 46.606C37.588 46.567 44.228 46.67 44.228 46.67"/>
  <path stroke-width="0.25" stroke-linejoin="round" d="M41.814 91.179C41.814 91.536 41.524 91.825 41.167 91.825C40.811 91.825 40.521 91.536 40.521 91.179C40.521 90.82 40.811 90.531 41.167 90.531C41.524 90.531 41.814 90.82 41.814 91.179z"/>
 </g>
 <g id="A4_x0020_full_x0020_frame">
  <path stroke="#FFFFFF" stroke-width="0.006" d="M150.002 150.002L0.003 150.002L0.003 0.003L150.002 0.003L150.002 150.002z"/>
 </g>
 <g id="Call-outs/text">
  <path stroke="#FFFFFF" stroke-width="0.501" d="M24.875 10.35L47.664 15.289"/>
  <path stroke-width="0.131" d="M24.875 10.35L47.664 15.289"/>
  <g>
   <g>
    <g>
     <g>
      <text x="21.157" y="11.037" stroke="none" fill="#000000" font-family="'Arial'" font-size="4.939">1</text>
     </g>
    </g>
   </g>
  </g>
  <path stroke="#FFFFFF" stroke-width="0.501" d="M8.58 64.179L31.367 69.117"/>
  <path stroke-width="0.131" d="M8.58 64.179L31.367 69.117"/>
  <path stroke="#FFFFFF" stroke-width="0.501" d="M7.7 77.536L31.553 74.677"/>
  <path stroke-width="0.131" d="M7.7 77.536L31.553 74.677"/>
  <path stroke="#FFFFFF" stroke-width="0.501" d="M8.58 89.593L36.512 95.655"/>
  <path stroke-width="0.131" d="M8.58 89.593L36.512 95.655"/>
  <path stroke="#FFFFFF" stroke-width="0.501" d="M8.288 121.96L17.771 124.393"/>
  <path stroke-width="0.131" d="M8.288 121.96L17.771 124.393"/>
  <g>
   <g>
    <g>
     <g>
      <text x="4.692" y="65.129" stroke="none" fill="#000000" font-family="'Arial'" font-size="4.939">2</text>
     </g>
    </g>
   </g>
  </g>
  <g>
   <g>
    <g>
     <g>
      <text x="71.956" y="77.013" stroke="none" fill="#000000" font-family="'Arial'" font-size="4.939">6</text>
     </g>
    </g>
   </g>
  </g>
  <g>
   <g>
    <g>
     <g>
      <text x="71.956" y="86.388" stroke="none" fill="#000000" font-family="'Arial'" font-size="4.939">7</text>
     </g>
    </g>
   </g>
  </g>
  <g>
   <g>
    <g>
     <g>
      <text x="71.956" y="122.903" stroke="none" fill="#000000" font-family="'Arial'" font-size="4.939">8</text>
     </g>
    </g>
   </g>
  </g>
  <g>
   <g>
    <g>
     <g>
      <text x="4.692" y="79.126" stroke="none" fill="#000000" font-family="'Arial'" font-size="4.939">3</text>
     </g>
    </g>
   </g>
  </g>
  <g>
   <g>
    <g>
     <g>
      <text x="4.692" y="90.802" stroke="none" fill="#000000" font-family="'Arial'" font-size="4.939">4</text>
     </g>
    </g>
   </g>
  </g>
  <g>
   <g>
    <g>
     <g>
      <text x="4.692" y="122.903" stroke="none" fill="#000000" font-family="'Arial'" font-size="4.939">5</text>
     </g>
    </g>
   </g>
  </g>
  <path stroke="#FFFFFF" stroke-width="0.501" d="M42.271 90.105L70.965 75.959"/>
  <path stroke-width="0.131" d="M42.271 90.105L70.965 75.959"/>
  <path stroke="#FFFFFF" stroke-width="0.501" d="M41.213 91.072L70.965 85.331"/>
  <path stroke-width="0.131" d="M41.213 91.072L70.965 85.331"/>
  <path stroke="#FFFFFF" stroke-width="0.501" d="M41.213 115.001L70.965 121.197"/>
  <path stroke-width="0.131" d="M41.213 115.001L70.965 121.197"/>
  <g>
   <g>
    <g>
     <g>
      <text x="75.003" y="18.195" stroke="none" fill="#000000" font-family="'Arial'" font-size="4.939">9</text>
     </g>
    </g>
   </g>
  </g>
  <path stroke="#FFFFFF" stroke-width="0.501" d="M78.212 15.593L91.653 9.695"/>
  <path stroke-width="0.131" d="M78.212 15.593L91.653 9.695"/>
  <path stroke="#FFFFFF" stroke-width="0.501" d="M81.111 53.368L100.019 57.325"/>
  <path stroke-width="0.131" d="M81.111 53.368L100.019 57.325"/>
  <g>
   <g>
    <g>
     <g>
      <text x="142.383" y="52.337" stroke="none" fill="#000000" font-family="'Arial'" font-size="4.939">10</text>
     </g>
    </g>
   </g>
  </g>
  <g>
   <g>
    <g>
     <g>
      <text x="142.383" y="87.626" stroke="none" fill="#000000" font-family="'Arial'" font-size="4.939">14</text>
     </g>
    </g>
   </g>
  </g>
  <path stroke="#FFFFFF" stroke-width="0.501" d="M114.504 43.371L141.594 50.658"/>
  <path stroke-width="0.131" d="M114.504 43.371L141.594 50.658"/>
  <path stroke="#FFFFFF" stroke-width="0.501" d="M127.295 81.748L141.594 85.594"/>
  <path stroke-width="0.131" d="M127.295 81.748L141.594 85.594"/>
  <g>
   <g>
    <g>
     <g>
      <text x="137.02" y="131.786" stroke="none" fill="#000000" font-family="'Arial'" font-size="4.939">13</text>
     </g>
    </g>
   </g>
  </g>
  <path stroke="#FFFFFF" stroke-width="0.501" d="M121.93 125.909L136.231 129.754"/>
  <path stroke-width="0.131" d="M121.93 125.909L136.231 129.754"/>
  <g>
   <g>
    <g>
     <g>
      <text x="75.355" y="54.314" stroke="none" fill="#000000" font-family="'Arial'" font-size="4.939">11</text>
     </g>
    </g>
   </g>
  </g>
  <g>
   <g>
    <g>
     <g>
      <text x="132.647" y="148.525" stroke="none" fill="#000000" font-family="'Arial'" font-size="4.939">12</text>
     </g>
    </g>
   </g>
  </g>
  <path stroke="#FFFFFF" stroke-width="0.501" d="M117.558 142.646L131.859 146.493"/>
  <path stroke-width="0.131" d="M117.558 142.646L131.859 146.493"/>
 </g>
 <g id="Picture_x0020_#">
  <g>
   <text transform="matrix(0 -1 1 0 148.818 148.99)" stroke="none" fill="#000000" font-family="'Arial'" font-size="2.117">382 716</text>
  </g>
 </g>
</svg>
