<?xml version="1.0" encoding="utf-8"?>
<!DOCTYPE svg PUBLIC "-//W3C//DTD SVG 1.1//EN" "http://www.w3.org/Graphics/SVG/1.1/DTD/svg11.dtd">
<!-- Generator: PTC Arbortext IsoDraw 7.3 M070 -->
<svg width="100%" height="100%" viewBox="0 0 75.006 99.118"
 xmlns="http://www.w3.org/2000/svg" xmlns:xlink="http://www.w3.org/1999/xlink"
 fill-rule="evenodd" clip-rule="evenodd" stroke="#000000" stroke-linecap="round" fill="none" xml:space="preserve">
 <g id="A4_x0020_half_x0020_frame">
  <polygon stroke="#FFFFFF" stroke-width="0.006" stroke-linejoin="round" points="0.003 0.003 75.003 0.003 75.003 99.115 0.003 99.115 0.003 0.003"/>
 </g>
 <g id="Colour">
  <path stroke="none" fill="#000000" d="M40.439 16.528L39.106 35.075 39.789 34.86 40.383 35.009 40.872 35.284 40.439 16.528z"/>
  <path stroke="none" fill="#000000" d="M31.426 37.195L31.559 37.195 31.692 37.176 31.818 37.136 31.937 37.076 32.045 36.997 32.14 36.904 32.219 36.796 32.28 36.679 32.322 36.551 32.343 36.42 32.344 36.287 38.32 36.377 38.325 36.558 38.35 36.738 38.398 36.914 38.463 37.084 38.549 37.244 38.654 37.393 38.774 37.53 38.909 37.652 38.909 37.652 38.909 37.652 39.058 37.756 39.219 37.843 39.387 37.911 39.564 37.959 39.743 37.984 39.926 37.99 40.106 37.975 40.284 37.939 40.457 37.883 40.622 37.805 40.779 37.71 40.921 37.598 41.051 37.47 41.164 37.328 41.259 37.173 41.337 37.009 41.395 36.835 41.432 36.658 41.448 36.476 41.444 36.295 41.417 36.115 41.371 35.939 41.304 35.77 41.219 35.609 41.115 35.46 40.993 35.323 40.857 35.201 40.71 35.097 40.549 35.011 40.381 34.942 40.204 34.895 40.024 34.868 39.843 34.862 39.661 34.878 39.484 34.914 39.31 34.97 39.146 35.048 38.99 35.143 38.847 35.255 38.718 35.383 38.604 35.526 38.509 35.68 38.432 35.844 38.374 36.018 38.337 36.195 38.32 36.377 32.344 36.287 32.323 36.155 32.283 36.029 32.222 35.909 32.145 35.801 32.051 35.707 31.943 35.628 31.826 35.567 31.699 35.526 31.568 35.505 31.434 35.503 31.303 35.524 31.176 35.564 31.057 35.625 30.949 35.703 30.855 35.796 30.775 35.904 30.714 36.021 30.673 36.149 30.652 36.28 30.652 36.412 30.672 36.545 30.711 36.67 30.771 36.789 30.85 36.898 30.943 36.993 31.05 37.072 31.169 37.133 31.295 37.173 31.426 37.195z"/>
  <path stroke="none" fill="#000000" d="M31.137 35.695L31.492 32.472 31.852 35.677 31.137 35.695z"/>
 </g>
 <g id="Standard_x0020_layer">
  <path stroke-width="0.3" stroke-linejoin="round" stroke-miterlimit="10" d="M63.561 36.563C63.561 23.524 52.991 12.954 39.951 12.952C26.913 12.952 16.341 23.524 16.341 36.563C16.341 49.603 26.911 60.173 39.951 60.173C52.99 60.173 63.561 49.603 63.561 36.564z"/>
  <path stroke-width="0.13" stroke-linejoin="round" stroke-miterlimit="10" d="M62.566 36.557C62.566 24.067 52.439 13.942 39.95 13.942C27.458 13.942 17.332 24.067 17.332 36.557C17.332 49.048 27.457 59.174 39.948 59.174C52.439 59.174 62.566 49.048 62.566 36.558z"/>
  <path stroke-width="0.13" stroke-linejoin="round" stroke-miterlimit="10" d="M60.131 36.543C60.131 25.393 51.091 16.353 39.942 16.353C28.791 16.353 19.751 25.393 19.751 36.543C19.751 47.694 28.789 56.734 39.941 56.734C51.091 56.734 60.131 47.695 60.131 36.543z"/>
  <path stroke-width="0.13" stroke-linejoin="round" stroke-miterlimit="10" d="M53.457 36.503C53.457 29.027 47.396 22.968 39.921 22.968C32.445 22.968 26.385 29.027 26.385 36.503C26.385 43.979 32.445 50.039 39.92 50.039C47.396 50.039 53.457 43.979 53.457 36.503z"/>
  <path stroke-width="0.13" stroke-linejoin="round" stroke-miterlimit="10" d="M41.451 36.432C41.451 35.567 40.75 34.866 39.886 34.866C39.021 34.866 38.32 35.567 38.32 36.432C38.32 37.296 39.021 37.996 39.886 37.996C40.75 37.996 41.451 37.296 41.451 36.432z"/>
  <line stroke-width="0.13" stroke-linejoin="round" stroke-miterlimit="10" x1="41.64" y1="16.413" x2="41.573" y2="17.827"/>
  <line stroke-width="0.13" stroke-linejoin="round" stroke-miterlimit="10" x1="43.267" y1="16.623" x2="42.988" y2="17.748"/>
  <line stroke-width="0.13" stroke-linejoin="round" stroke-miterlimit="10" x1="44.67" y1="16.981" x2="44.457" y2="18.106"/>
  <line stroke-width="0.13" stroke-linejoin="round" stroke-miterlimit="10" x1="45.728" y1="17.326" x2="45.371" y2="18.384"/>
  <line stroke-width="0.13" stroke-linejoin="round" stroke-miterlimit="10" x1="46.932" y1="17.682" x2="46.296" y2="19.297"/>
  <line stroke-width="0.13" stroke-linejoin="round" stroke-miterlimit="10" x1="48.055" y1="18.106" x2="47.567" y2="19.164"/>
  <line stroke-width="0.13" stroke-linejoin="round" stroke-miterlimit="10" x1="48.969" y1="18.596" x2="48.691" y2="19.588"/>
  <line stroke-width="0.13" stroke-linejoin="round" stroke-miterlimit="10" x1="50.173" y1="19.164" x2="49.682" y2="20.077"/>
  <line stroke-width="0.13" stroke-linejoin="round" stroke-miterlimit="10" x1="51.152" y1="19.798" x2="50.582" y2="20.501"/>
  <line stroke-width="0.13" stroke-linejoin="round" stroke-miterlimit="10" x1="52.143" y1="20.501" x2="50.728" y2="22.405"/>
  <line stroke-width="0.13" stroke-linejoin="round" stroke-miterlimit="10" x1="53.122" y1="21.413" x2="52.633" y2="22.114"/>
  <line stroke-width="0.13" stroke-linejoin="round" stroke-miterlimit="10" x1="53.969" y1="22.26" x2="53.401" y2="22.829"/>
  <line stroke-width="0.13" stroke-linejoin="round" stroke-miterlimit="10" x1="54.75" y1="22.96" x2="54.048" y2="23.661"/>
  <line stroke-width="0.13" stroke-linejoin="round" stroke-miterlimit="10" x1="55.597" y1="23.952" x2="54.816" y2="24.588"/>
  <line stroke-width="0.13" stroke-linejoin="round" stroke-miterlimit="10" x1="56.576" y1="25.012" x2="55.027" y2="26.004"/>
  <line stroke-width="0.13" stroke-linejoin="round" stroke-miterlimit="10" x1="57.145" y1="26.07" x2="56.231" y2="26.559"/>
  <line stroke-width="0.13" stroke-linejoin="round" stroke-miterlimit="10" x1="57.488" y1="26.492" x2="54.18" y2="28.187"/>
  <line stroke-width="0.13" stroke-linejoin="round" stroke-miterlimit="10" x1="54.18" y1="28.187" x2="54.18" y2="28.609"/>
  <line stroke-width="0.13" stroke-linejoin="round" stroke-miterlimit="10" x1="54.18" y1="28.609" x2="56.152" y2="28.966"/>
  <line stroke-width="0.13" stroke-linejoin="round" stroke-miterlimit="10" x1="56.152" y1="28.954" x2="58.189" y2="27.961"/>
  <line stroke-width="0.13" stroke-linejoin="round" stroke-miterlimit="10" x1="58.414" y1="28.397" x2="57.421" y2="28.821"/>
  <line stroke-width="0.13" stroke-linejoin="round" stroke-miterlimit="10" x1="58.692" y1="29.231" x2="57.7" y2="29.588"/>
  <line stroke-width="0.13" stroke-linejoin="round" stroke-miterlimit="10" x1="59.036" y1="29.946" x2="57.911" y2="30.303"/>
  <line stroke-width="0.13" stroke-linejoin="round" stroke-miterlimit="10" x1="59.326" y1="30.792" x2="56.932" y2="31.428"/>
  <line stroke-width="0.13" stroke-linejoin="round" stroke-miterlimit="10" x1="59.604" y1="31.917" x2="58.401" y2="32.195"/>
  <line stroke-width="0.13" stroke-linejoin="round" stroke-miterlimit="10" x1="59.817" y1="32.764" x2="58.612" y2="32.975"/>
  <line stroke-width="0.13" stroke-linejoin="round" stroke-miterlimit="10" x1="59.962" y1="33.822" x2="58.838" y2="34.033"/>
  <line stroke-width="0.13" stroke-linejoin="round" stroke-miterlimit="10" x1="60.094" y1="35.079" x2="58.679" y2="35.145"/>
  <line stroke-width="0.13" stroke-linejoin="round" stroke-miterlimit="10" x1="38.267" y1="16.413" x2="38.332" y2="17.827"/>
  <line stroke-width="0.13" stroke-linejoin="round" stroke-miterlimit="10" x1="36.639" y1="16.623" x2="36.917" y2="17.748"/>
  <line stroke-width="0.13" stroke-linejoin="round" stroke-miterlimit="10" x1="35.237" y1="16.981" x2="35.448" y2="18.106"/>
  <line stroke-width="0.13" stroke-linejoin="round" stroke-miterlimit="10" x1="34.179" y1="17.326" x2="34.536" y2="18.384"/>
  <line stroke-width="0.13" stroke-linejoin="round" stroke-miterlimit="10" x1="32.975" y1="17.682" x2="33.609" y2="19.297"/>
  <line stroke-width="0.13" stroke-linejoin="round" stroke-miterlimit="10" x1="31.85" y1="18.106" x2="32.34" y2="19.164"/>
  <line stroke-width="0.13" stroke-linejoin="round" stroke-miterlimit="10" x1="30.937" y1="18.596" x2="31.214" y2="19.588"/>
  <line stroke-width="0.13" stroke-linejoin="round" stroke-miterlimit="10" x1="29.734" y1="19.164" x2="30.222" y2="20.077"/>
  <line stroke-width="0.13" stroke-linejoin="round" stroke-miterlimit="10" x1="28.754" y1="19.798" x2="29.324" y2="20.501"/>
  <line stroke-width="0.13" stroke-linejoin="round" stroke-miterlimit="10" x1="27.763" y1="20.501" x2="29.178" y2="22.405"/>
  <line stroke-width="0.13" stroke-linejoin="round" stroke-miterlimit="10" x1="26.783" y1="21.413" x2="27.272" y2="22.114"/>
  <line stroke-width="0.13" stroke-linejoin="round" stroke-miterlimit="10" x1="25.937" y1="22.26" x2="26.506" y2="22.829"/>
  <line stroke-width="0.13" stroke-linejoin="round" stroke-miterlimit="10" x1="25.157" y1="22.96" x2="25.858" y2="23.661"/>
  <line stroke-width="0.13" stroke-linejoin="round" stroke-miterlimit="10" x1="24.309" y1="23.952" x2="25.089" y2="24.588"/>
  <line stroke-width="0.13" stroke-linejoin="round" stroke-miterlimit="10" x1="23.33" y1="25.012" x2="24.879" y2="26.004"/>
  <line stroke-width="0.13" stroke-linejoin="round" stroke-miterlimit="10" x1="22.762" y1="26.07" x2="23.675" y2="26.559"/>
  <line stroke-width="0.13" stroke-linejoin="round" stroke-miterlimit="10" x1="22.405" y1="26.492" x2="25.711" y2="28.187"/>
  <line stroke-width="0.13" stroke-linejoin="round" stroke-miterlimit="10" x1="25.725" y1="28.187" x2="25.725" y2="28.609"/>
  <line stroke-width="0.13" stroke-linejoin="round" stroke-miterlimit="10" x1="25.725" y1="28.609" x2="23.754" y2="28.966"/>
  <line stroke-width="0.13" stroke-linejoin="round" stroke-miterlimit="10" x1="23.754" y1="28.954" x2="21.716" y2="27.961"/>
  <line stroke-width="0.13" stroke-linejoin="round" stroke-miterlimit="10" x1="21.492" y1="28.397" x2="22.484" y2="28.821"/>
  <line stroke-width="0.13" stroke-linejoin="round" stroke-miterlimit="10" x1="21.213" y1="29.231" x2="22.205" y2="29.588"/>
  <line stroke-width="0.13" stroke-linejoin="round" stroke-miterlimit="10" x1="20.856" y1="29.946" x2="21.981" y2="30.303"/>
  <line stroke-width="0.13" stroke-linejoin="round" stroke-miterlimit="10" x1="20.579" y1="30.792" x2="22.974" y2="31.428"/>
  <line stroke-width="0.13" stroke-linejoin="round" stroke-miterlimit="10" x1="20.3" y1="31.917" x2="21.504" y2="32.195"/>
  <line stroke-width="0.13" stroke-linejoin="round" stroke-miterlimit="10" x1="20.089" y1="32.764" x2="21.294" y2="32.975"/>
  <line stroke-width="0.13" stroke-linejoin="round" stroke-miterlimit="10" x1="19.943" y1="33.822" x2="21.068" y2="34.033"/>
  <line stroke-width="0.13" stroke-linejoin="round" stroke-miterlimit="10" x1="19.798" y1="35.079" x2="21.213" y2="35.145"/>
  <line stroke-width="0.13" stroke-linejoin="round" stroke-miterlimit="10" x1="41.64" y1="56.43" x2="41.573" y2="55.015"/>
  <line stroke-width="0.13" stroke-linejoin="round" stroke-miterlimit="10" x1="43.267" y1="56.219" x2="42.988" y2="55.094"/>
  <line stroke-width="0.13" stroke-linejoin="round" stroke-miterlimit="10" x1="44.67" y1="55.862" x2="44.457" y2="54.737"/>
  <line stroke-width="0.13" stroke-linejoin="round" stroke-miterlimit="10" x1="45.728" y1="55.518" x2="45.371" y2="54.46"/>
  <line stroke-width="0.13" stroke-linejoin="round" stroke-miterlimit="10" x1="46.932" y1="55.161" x2="46.296" y2="53.546"/>
  <line stroke-width="0.13" stroke-linejoin="round" stroke-miterlimit="10" x1="48.055" y1="54.737" x2="47.567" y2="53.679"/>
  <line stroke-width="0.13" stroke-linejoin="round" stroke-miterlimit="10" x1="48.969" y1="54.247" x2="48.691" y2="53.256"/>
  <line stroke-width="0.13" stroke-linejoin="round" stroke-miterlimit="10" x1="50.173" y1="53.679" x2="49.682" y2="52.767"/>
  <line stroke-width="0.13" stroke-linejoin="round" stroke-miterlimit="10" x1="51.152" y1="53.043" x2="50.582" y2="52.343"/>
  <line stroke-width="0.13" stroke-linejoin="round" stroke-miterlimit="10" x1="52.143" y1="52.343" x2="50.728" y2="50.438"/>
  <line stroke-width="0.13" stroke-linejoin="round" stroke-miterlimit="10" x1="53.122" y1="51.429" x2="52.633" y2="50.728"/>
  <line stroke-width="0.13" stroke-linejoin="round" stroke-miterlimit="10" x1="53.969" y1="50.584" x2="53.401" y2="50.015"/>
  <line stroke-width="0.13" stroke-linejoin="round" stroke-miterlimit="10" x1="54.75" y1="49.883" x2="54.048" y2="49.18"/>
  <line stroke-width="0.13" stroke-linejoin="round" stroke-miterlimit="10" x1="55.597" y1="48.89" x2="54.816" y2="48.255"/>
  <line stroke-width="0.13" stroke-linejoin="round" stroke-miterlimit="10" x1="56.576" y1="47.832" x2="55.027" y2="46.84"/>
  <line stroke-width="0.13" stroke-linejoin="round" stroke-miterlimit="10" x1="57.145" y1="46.774" x2="56.231" y2="46.283"/>
  <line stroke-width="0.13" stroke-linejoin="round" stroke-miterlimit="10" x1="58.414" y1="44.459" x2="57.421" y2="44.034"/>
  <line stroke-width="0.13" stroke-linejoin="round" stroke-miterlimit="10" x1="58.692" y1="43.612" x2="57.7" y2="43.255"/>
  <line stroke-width="0.13" stroke-linejoin="round" stroke-miterlimit="10" x1="59.036" y1="42.898" x2="57.911" y2="42.539"/>
  <line stroke-width="0.13" stroke-linejoin="round" stroke-miterlimit="10" x1="59.326" y1="42.064" x2="56.932" y2="41.429"/>
  <line stroke-width="0.13" stroke-linejoin="round" stroke-miterlimit="10" x1="59.604" y1="40.926" x2="58.401" y2="40.649"/>
  <line stroke-width="0.13" stroke-linejoin="round" stroke-miterlimit="10" x1="59.817" y1="40.079" x2="58.612" y2="39.868"/>
  <line stroke-width="0.13" stroke-linejoin="round" stroke-miterlimit="10" x1="59.962" y1="39.034" x2="58.838" y2="38.823"/>
  <line stroke-width="0.13" stroke-linejoin="round" stroke-miterlimit="10" x1="60.094" y1="37.765" x2="58.679" y2="37.698"/>
  <line stroke-width="0.13" stroke-linejoin="round" stroke-miterlimit="10" x1="38.267" y1="56.43" x2="38.332" y2="55.015"/>
  <line stroke-width="0.13" stroke-linejoin="round" stroke-miterlimit="10" x1="36.639" y1="56.219" x2="36.917" y2="55.094"/>
  <line stroke-width="0.13" stroke-linejoin="round" stroke-miterlimit="10" x1="35.237" y1="55.862" x2="35.448" y2="54.737"/>
  <line stroke-width="0.13" stroke-linejoin="round" stroke-miterlimit="10" x1="34.179" y1="55.518" x2="34.536" y2="54.46"/>
  <line stroke-width="0.13" stroke-linejoin="round" stroke-miterlimit="10" x1="32.975" y1="55.161" x2="33.609" y2="53.546"/>
  <line stroke-width="0.13" stroke-linejoin="round" stroke-miterlimit="10" x1="31.85" y1="54.737" x2="32.34" y2="53.679"/>
  <line stroke-width="0.13" stroke-linejoin="round" stroke-miterlimit="10" x1="30.937" y1="54.247" x2="31.214" y2="53.256"/>
  <line stroke-width="0.13" stroke-linejoin="round" stroke-miterlimit="10" x1="29.734" y1="53.679" x2="30.222" y2="52.767"/>
  <line stroke-width="0.13" stroke-linejoin="round" stroke-miterlimit="10" x1="28.754" y1="53.043" x2="29.324" y2="52.343"/>
  <line stroke-width="0.13" stroke-linejoin="round" stroke-miterlimit="10" x1="27.763" y1="52.343" x2="29.178" y2="50.438"/>
  <line stroke-width="0.13" stroke-linejoin="round" stroke-miterlimit="10" x1="26.783" y1="51.429" x2="27.272" y2="50.728"/>
  <line stroke-width="0.13" stroke-linejoin="round" stroke-miterlimit="10" x1="25.937" y1="50.584" x2="26.506" y2="50.015"/>
  <line stroke-width="0.13" stroke-linejoin="round" stroke-miterlimit="10" x1="25.157" y1="49.883" x2="25.858" y2="49.18"/>
  <line stroke-width="0.13" stroke-linejoin="round" stroke-miterlimit="10" x1="24.309" y1="48.89" x2="25.089" y2="48.255"/>
  <line stroke-width="0.13" stroke-linejoin="round" stroke-miterlimit="10" x1="23.33" y1="47.832" x2="24.879" y2="46.84"/>
  <line stroke-width="0.13" stroke-linejoin="round" stroke-miterlimit="10" x1="22.762" y1="46.774" x2="23.675" y2="46.283"/>
  <line stroke-width="0.13" stroke-linejoin="round" stroke-miterlimit="10" x1="21.492" y1="44.459" x2="22.484" y2="44.034"/>
  <line stroke-width="0.13" stroke-linejoin="round" stroke-miterlimit="10" x1="21.213" y1="43.612" x2="22.205" y2="43.255"/>
  <line stroke-width="0.13" stroke-linejoin="round" stroke-miterlimit="10" x1="20.856" y1="42.898" x2="21.981" y2="42.539"/>
  <line stroke-width="0.13" stroke-linejoin="round" stroke-miterlimit="10" x1="20.579" y1="42.064" x2="22.974" y2="41.429"/>
  <line stroke-width="0.13" stroke-linejoin="round" stroke-miterlimit="10" x1="20.3" y1="40.926" x2="21.504" y2="40.649"/>
  <line stroke-width="0.13" stroke-linejoin="round" stroke-miterlimit="10" x1="20.089" y1="40.079" x2="21.294" y2="39.868"/>
  <line stroke-width="0.13" stroke-linejoin="round" stroke-miterlimit="10" x1="19.943" y1="39.034" x2="21.068" y2="38.823"/>
  <line stroke-width="0.13" stroke-linejoin="round" stroke-miterlimit="10" x1="19.798" y1="37.765" x2="21.213" y2="37.698"/>
  <line stroke-width="0.13" stroke-linejoin="round" stroke-miterlimit="10" x1="57.845" y1="45.438" x2="56.786" y2="45.079"/>
  <line stroke-width="0.13" stroke-linejoin="round" stroke-miterlimit="10" x1="60.094" y1="36.917" x2="58.335" y2="36.851"/>
  <line stroke-width="0.13" stroke-linejoin="round" stroke-miterlimit="10" x1="22.405" y1="45.649" x2="23.251" y2="45.292"/>
  <polyline stroke-width="0.13" stroke-linejoin="round" stroke-miterlimit="10" points="18.754 44.313 18.855 44.347 18.937 44.383 19.019 44.414 19.117 44.439 19.246 44.454 19.435 44.445 19.678 44.411 19.937 44.36 20.181 44.301 20.373 44.241 20.513 44.192 20.623 44.149 20.714 44.103 20.792 44.043 20.867 43.96 20.929 43.838 20.969 43.692 20.993 43.548 21.004 43.439 21.004 43.399"/>
  <polyline stroke-width="0.13" stroke-linejoin="round" stroke-miterlimit="10" points="19.798 46.496 19.835 46.371 19.858 46.258 19.884 46.151 19.928 46.043 20.01 45.932 20.144 45.822 20.324 45.723 20.518 45.639 20.705 45.567 20.855 45.509 20.96 45.463 21.039 45.427 21.106 45.402 21.181 45.381 21.277 45.368 21.408 45.368 21.556 45.384 21.696 45.408 21.8 45.429 21.841 45.442"/>
  <text x="48.256" y="24.236" stroke="none" fill="#000000" font-family="'Helvetica'" font-size="2.235">10</text>
  <text x="53.823" y="32.478" stroke="none" fill="#000000" font-family="'Helvetica'" font-size="2.235">20</text>
  <text x="53.841" y="42.973" stroke="none" fill="#000000" font-family="'Helvetica'" font-size="2.235">30</text>
  <text x="47.918" y="50.863" stroke="none" fill="#000000" font-family="'Helvetica'" font-size="2.235">40</text>
  <text x="38.898" y="53.47" stroke="none" fill="#000000" font-family="'Helvetica'" font-size="2.235">50</text>
  <text x="30.077" y="50.722" stroke="none" fill="#000000" font-family="'Helvetica'" font-size="2.235">60</text>
  <text x="23.792" y="42.411" stroke="none" fill="#000000" font-family="'Helvetica'" font-size="2.235">70</text>
  <text x="23.873" y="31.772" stroke="none" fill="#000000" font-family="'Helvetica'" font-size="2.235">80</text>
  <text x="29.594" y="23.882" stroke="none" fill="#000000" font-family="'Helvetica'" font-size="2.235">90</text>
  <text x="39.868" y="19.658" stroke="none" fill="#000000" font-family="'Helvetica'" font-size="2.235">0</text>
  <text x="31.248" y="25.362" stroke="none" fill="#000000" font-family="'Helvetica'" font-size="1.11">10</text>
  <text x="25.189" y="33.463" stroke="none" fill="#000000" font-family="'Helvetica'" font-size="1.11">20</text>
  <text x="25.128" y="39.874" stroke="none" fill="#000000" font-family="'Helvetica'" font-size="1.11">30</text>
  <text x="31.396" y="48.679" stroke="none" fill="#000000" font-family="'Helvetica'" font-size="1.11">40</text>
  <text x="39.283" y="51.357" stroke="none" fill="#000000" font-family="'Helvetica'" font-size="1.11">50</text>
  <text x="47.167" y="48.82" stroke="none" fill="#000000" font-family="'Helvetica'" font-size="1.11">60</text>
  <text x="53.569" y="40.579" stroke="none" fill="#000000" font-family="'Helvetica'" font-size="1.11">70</text>
  <text x="53.786" y="34.308" stroke="none" fill="#000000" font-family="'Helvetica'" font-size="1.11">80</text>
  <text x="48.228" y="25.643" stroke="none" fill="#000000" font-family="'Helvetica'" font-size="1.11">90</text>
  <text x="28.304" y="36.844" stroke="none" fill="#000000" font-family="'Helvetica'" font-size="1.68">15</text>
  <text x="30.841" y="39.523" stroke="none" fill="#000000" font-family="'Helvetica'" font-size="1.68">10</text>
  <text x="33.561" y="37.057" stroke="none" fill="#000000" font-family="'Helvetica'" font-size="1.68">5</text>
  <path stroke-width="0.13" stroke-linejoin="round" stroke-miterlimit="10" d="M32.347 36.353C32.347 35.222 30.65 35.222 30.65 36.353C30.65 37.484 32.347 37.484 32.347 36.353z"/>
  <line stroke-width="0.13" stroke-linejoin="round" stroke-miterlimit="10" x1="39.1" y1="35.158" x2="40.435" y2="16.557"/>
  <line stroke-width="0.13" stroke-linejoin="round" stroke-miterlimit="10" x1="40.448" y1="16.557" x2="40.872" y2="35.012"/>
  <line stroke-width="0.13" stroke-linejoin="round" stroke-miterlimit="10" x1="31.149" y1="35.648" x2="31.507" y2="32.472"/>
  <line stroke-width="0.13" stroke-linejoin="round" stroke-miterlimit="10" x1="31.492" y1="32.472" x2="31.85" y2="35.648"/>
  <path stroke-width="0.13" stroke-linejoin="round" stroke-miterlimit="10" d="M35.655 36.387C35.655 34.149 33.841 32.337 31.603 32.337C29.367 32.337 27.553 34.149 27.553 36.387C27.553 38.625 29.367 40.438 31.603 40.438C33.841 40.438 35.655 38.625 35.655 36.387z"/>
  <line stroke-width="0.13" stroke-linejoin="round" stroke-miterlimit="10" x1="39.881" y1="56.576" x2="39.881" y2="54.393"/>
  <line stroke-width="0.3" stroke-linejoin="round" stroke-miterlimit="10" x1="43.795" y1="9.506" x2="43.795" y2="7.179"/>
  <line stroke-width="0.3" stroke-linejoin="round" stroke-miterlimit="10" x1="43.795" y1="7.179" x2="43.015" y2="6.636"/>
  <line stroke-width="0.3" stroke-linejoin="round" stroke-miterlimit="10" x1="43.029" y1="6.636" x2="37.883" y2="6.636"/>
  <line stroke-width="0.3" stroke-linejoin="round" stroke-miterlimit="10" x1="37.883" y1="6.636" x2="37.101" y2="7.126"/>
  <line stroke-width="0.3" stroke-linejoin="round" stroke-miterlimit="10" x1="37.115" y1="7.126" x2="37.115" y2="9.56"/>
  <line stroke-width="0.3" stroke-linejoin="round" stroke-miterlimit="10" x1="37.115" y1="9.56" x2="43.81" y2="9.56"/>
  <line stroke-width="0.3" stroke-linejoin="round" stroke-miterlimit="10" x1="39.43" y1="9.612" x2="39.43" y2="10.804"/>
  <line stroke-width="0.3" stroke-linejoin="round" stroke-miterlimit="10" x1="39.43" y1="10.804" x2="38.808" y2="11.371"/>
  <line stroke-width="0.3" stroke-linejoin="round" stroke-miterlimit="10" x1="38.822" y1="11.371" x2="38.822" y2="12.946"/>
  <line stroke-width="0.13" stroke-linejoin="round" stroke-miterlimit="10" x1="39.43" y1="10.804" x2="41.652" y2="10.804"/>
  <line stroke-width="0.3" stroke-linejoin="round" stroke-miterlimit="10" x1="41.652" y1="10.804" x2="41.652" y2="9.56"/>
  <line stroke-width="0.3" stroke-linejoin="round" stroke-miterlimit="10" x1="41.652" y1="10.804" x2="42.301" y2="11.425"/>
  <line stroke-width="0.3" stroke-linejoin="round" stroke-miterlimit="10" x1="42.301" y1="11.412" x2="42.301" y2="13.066"/>
  <line stroke-width="0.13" stroke-linejoin="round" stroke-miterlimit="10" x1="41.613" y1="9.321" x2="43.729" y2="8.105"/>
  <line stroke-width="0.13" stroke-linejoin="round" stroke-miterlimit="10" x1="39.087" y1="9.321" x2="42.844" y2="7.152"/>
  <line stroke-width="0.13" stroke-linejoin="round" stroke-miterlimit="10" x1="37.222" y1="8.938" x2="40.317" y2="7.152"/>
  <line stroke-width="0.13" stroke-linejoin="round" stroke-miterlimit="10" x1="37.182" y1="7.509" x2="37.789" y2="7.152"/>
  <line stroke-width="0.13" stroke-linejoin="round" stroke-miterlimit="10" x1="43.729" y1="8.211" x2="41.917" y2="7.166"/>
  <line stroke-width="0.13" stroke-linejoin="round" stroke-miterlimit="10" x1="43.134" y1="9.321" x2="39.378" y2="7.152"/>
  <line stroke-width="0.13" stroke-linejoin="round" stroke-miterlimit="10" x1="40.607" y1="9.321" x2="37.168" y2="7.338"/>
  <line stroke-width="0.13" stroke-linejoin="round" stroke-miterlimit="10" x1="38.081" y1="9.321" x2="37.222" y2="8.818"/>
  <line stroke-width="0.3" stroke-linejoin="round" stroke-miterlimit="10" x1="37.512" y1="60.042" x2="37.512" y2="73.707"/>
  <line stroke-width="0.3" stroke-linejoin="round" stroke-miterlimit="10" x1="37.512" y1="73.707" x2="40.621" y2="73.707"/>
  <line stroke-width="0.3" stroke-linejoin="round" stroke-miterlimit="10" x1="38.2" y1="73.707" x2="38.2" y2="91.515"/>
  <line stroke-width="0.3" stroke-linejoin="round" stroke-miterlimit="10" x1="38.2" y1="91.528" x2="40.277" y2="91.528"/>
  <polyline stroke-width="0.3" stroke-linejoin="round" stroke-miterlimit="10" points="40.131 91.912 39.677 91.899 39.203 91.885 38.774 91.873 38.459 91.865 38.323 91.864 38.304 91.867 38.29 91.87 38.28 91.873 38.268 91.879 38.253 91.888 38.225 91.903 38.189 91.927 38.145 91.962 38.101 92.01 38.064 92.075 38.034 92.295 38.012 92.721 37.996 93.23 37.99 93.697 37.994 94.001 38.003 94.147 38.009 94.245 38.021 94.325 38.045 94.423 38.088 94.564 38.265 95.001 38.615 95.79 39.027 96.686 39.398 97.441 39.615 97.805 39.719 97.873 39.82 97.906 39.914 97.918 39.994 97.92 40.06 97.923 40.116 97.927 40.167 97.927 40.21 97.926 40.238 97.924 40.252 97.924"/>
  <line stroke-width="0.13" stroke-linejoin="round" stroke-miterlimit="10" x1="39.165" y1="96.951" x2="40.079" y2="96.899"/>
  <line stroke-width="0.13" stroke-linejoin="round" stroke-miterlimit="10" x1="38.676" y1="92.069" x2="38.067" y2="92.891"/>
  <line stroke-width="0.13" stroke-linejoin="round" stroke-miterlimit="10" x1="39.325" y1="92.123" x2="38.148" y2="93.697"/>
  <line stroke-width="0.13" stroke-linejoin="round" stroke-miterlimit="10" x1="39.828" y1="92.137" x2="38.584" y2="93.948"/>
  <line stroke-width="0.13" stroke-linejoin="round" stroke-miterlimit="10" x1="39.932" y1="93.036" x2="39.259" y2="94.001"/>
  <line stroke-width="0.13" stroke-linejoin="round" stroke-miterlimit="10" x1="39.14" y1="92.069" x2="40.145" y2="93.79"/>
  <line stroke-width="0.13" stroke-linejoin="round" stroke-miterlimit="10" x1="38.478" y1="92.096" x2="39.628" y2="94.067"/>
  <line stroke-width="0.13" stroke-linejoin="round" stroke-miterlimit="10" x1="38.173" y1="92.519" x2="38.968" y2="94.093"/>
  <line stroke-width="0.3" stroke-linejoin="round" stroke-miterlimit="10" x1="42.698" y1="60.042" x2="42.698" y2="73.707"/>
  <line stroke-width="0.3" stroke-linejoin="round" stroke-miterlimit="10" x1="42.698" y1="73.707" x2="39.59" y2="73.707"/>
  <line stroke-width="0.3" stroke-linejoin="round" stroke-miterlimit="10" x1="41.996" y1="73.707" x2="41.996" y2="91.515"/>
  <line stroke-width="0.3" stroke-linejoin="round" stroke-miterlimit="10" x1="41.996" y1="91.528" x2="39.92" y2="91.528"/>
  <polyline stroke-width="0.3" stroke-linejoin="round" stroke-miterlimit="10" points="40.079 91.912 40.533 91.899 41.008 91.885 41.435 91.873 41.752 91.865 41.887 91.864 41.906 91.867 41.92 91.87 41.929 91.873 41.942 91.879 41.957 91.888 41.984 91.903 42.021 91.927 42.066 91.962 42.107 92.01 42.146 92.075 42.174 92.295 42.198 92.721 42.215 93.23 42.22 93.697 42.216 94.001 42.207 94.147 42.201 94.245 42.189 94.325 42.164 94.423 42.121 94.564 41.945 95.001 41.595 95.79 41.182 96.686 40.813 97.441 40.595 97.805 40.49 97.873 40.39 97.906 40.296 97.918 40.216 97.92 40.149 97.923 40.094 97.927 40.042 97.927 40 97.926 39.972 97.924 39.959 97.924"/>
  <line stroke-width="0.13" stroke-linejoin="round" stroke-miterlimit="10" x1="41.031" y1="96.951" x2="40.118" y2="96.899"/>
  <line stroke-width="0.13" stroke-linejoin="round" stroke-miterlimit="10" x1="41.533" y1="92.069" x2="42.143" y2="92.891"/>
  <line stroke-width="0.13" stroke-linejoin="round" stroke-miterlimit="10" x1="40.872" y1="92.123" x2="42.049" y2="93.697"/>
  <line stroke-width="0.13" stroke-linejoin="round" stroke-miterlimit="10" x1="40.383" y1="92.137" x2="41.627" y2="93.948"/>
  <line stroke-width="0.13" stroke-linejoin="round" stroke-miterlimit="10" x1="40.264" y1="93.036" x2="40.939" y2="94.001"/>
  <line stroke-width="0.13" stroke-linejoin="round" stroke-miterlimit="10" x1="41.057" y1="92.069" x2="40.052" y2="93.79"/>
  <line stroke-width="0.13" stroke-linejoin="round" stroke-miterlimit="10" x1="41.719" y1="92.096" x2="40.567" y2="94.067"/>
  <line stroke-width="0.13" stroke-linejoin="round" stroke-miterlimit="10" x1="42.024" y1="92.519" x2="41.229" y2="94.093"/>
  <line stroke-width="0.13" stroke-linejoin="round" stroke-miterlimit="10" x1="34.655" y1="38.875" x2="33.835" y2="38.28"/>
  <line stroke-width="0.13" stroke-linejoin="round" stroke-miterlimit="10" x1="28.78" y1="38.954" x2="29.602" y2="38.28"/>
  <line stroke-width="0.13" stroke-linejoin="round" stroke-miterlimit="10" x1="34.284" y1="33.372" x2="33.173" y2="34.338"/>
  <line stroke-width="0.13" stroke-linejoin="round" stroke-miterlimit="10" x1="28.714" y1="33.597" x2="29.535" y2="34.338"/>
  <line stroke-width="0.13" stroke-linejoin="round" stroke-miterlimit="10" x1="27.67" y1="36.124" x2="28.185" y2="36.124"/>
  <line stroke-width="0.13" stroke-linejoin="round" stroke-miterlimit="10" x1="35.396" y1="36.348" x2="34.801" y2="36.348"/>
  <line stroke-width="0.13" stroke-linejoin="round" stroke-miterlimit="10" x1="35.024" y1="34.496" x2="34.655" y2="34.787"/>
  <line stroke-width="0.13" stroke-linejoin="round" stroke-miterlimit="10" x1="32.868" y1="32.71" x2="32.643" y2="33.305"/>
  <line stroke-width="0.13" stroke-linejoin="round" stroke-miterlimit="10" x1="30.117" y1="32.936" x2="30.567" y2="33.386"/>
  <line stroke-width="0.13" stroke-linejoin="round" stroke-miterlimit="10" x1="28.12" y1="34.722" x2="28.57" y2="34.947"/>
  <line stroke-width="0.13" stroke-linejoin="round" stroke-miterlimit="10" x1="28.039" y1="37.844" x2="28.556" y2="37.473"/>
  <line stroke-width="0.13" stroke-linejoin="round" stroke-miterlimit="10" x1="31.611" y1="40.29" x2="31.611" y2="39.841"/>
  <line stroke-width="0.13" stroke-linejoin="round" stroke-miterlimit="10" x1="30.05" y1="39.841" x2="30.275" y2="39.326"/>
  <line stroke-width="0.13" stroke-linejoin="round" stroke-miterlimit="10" x1="33.609" y1="39.695" x2="33.319" y2="39.179"/>
  <line stroke-width="0.13" stroke-linejoin="round" stroke-miterlimit="10" x1="35.329" y1="37.765" x2="34.88" y2="37.473"/>
  <clipPath id="iso22669" fill="none" stroke="none">
   <path d="M16.318 97.971L16.318 97.971 16.318 97.971 16.318 97.971 16.318 97.971z"/>
  </clipPath>
  <g clip-path="url(#iso22669)">
   <line stroke="#FFFFFF" stroke-width="0.353" stroke-linecap="butt" stroke-miterlimit="10" x1="16.318" y1="97.971" x2="16.452" y2="97.837"/>
  </g>
  <path stroke-width="0.13" stroke-linecap="butt" stroke-miterlimit="10" d="M16.318 97.971L16.318 97.971 16.318 97.971 16.318 97.971 16.318 97.971z"/>
 </g>
 <g id="Text&amp;Symbols">
  <text x="33.514" y="4.658" stroke="none" fill="#000000" font-family="'Helvetica'" font-size="4.939">98 075</text>
 </g>
 <g id="Picture_x0020_#">
  <text transform="matrix(0 -1 1 0 73.817 98.102)" stroke="none" fill="#000000" font-family="'Helvetica'" font-size="2.117">402 058</text>
 </g>
</svg>
