<?xml version="1.0" encoding="utf-8"?>
<!DOCTYPE svg PUBLIC "-//W3C//DTD SVG 1.1//EN" "http://www.w3.org/Graphics/SVG/1.1/DTD/svg11.dtd">
<!-- Generator: PTC Arbortext IsoDraw 7.3 M070 -->
<svg width="100%" height="100%" viewBox="0 0 37.506 36.039"
 xmlns="http://www.w3.org/2000/svg" xmlns:xlink="http://www.w3.org/1999/xlink"
 fill-rule="evenodd" clip-rule="evenodd" stroke="#000000" stroke-linecap="round" fill="none" xml:space="preserve">
 <g id="A4_x0020_quarter_x0020_frame">
  <polygon stroke="#FFFFFF" stroke-width="0.006" stroke-linejoin="round" points="0.003 0.003 37.503 0.003 37.503 36.036 0.003 36.036 0.003 0.003"/>
 </g>
 <g id="Standard_x0020_layer">
  <path stroke-width="0.3" stroke-linejoin="round" d="M28.621 34.753L9.086 34.753L9.086 4.9L28.621 4.9L28.621 34.753z"/>
  <path stroke-width="0.131" stroke-linejoin="round" d="M22.58 26.301L17.495 26.301L17.495 23.713L22.58 23.713L22.58 26.301z"/>
  <path stroke-width="0.131" stroke-linejoin="round" d="M28.548 4.605L20.111 4.605L20.111 0.49L28.548 0.49L28.548 4.605z"/>
  <path stroke-width="0.131" stroke-linejoin="round" d="M13.298 27.719L15.9 22.539L13.298 22.539L15.9 27.719L13.298 27.719z"/>
  <path stroke-width="0.131" stroke-linejoin="round" d="M21.721 13.917L21.742 17.754"/>
  <path stroke-width="0.131" stroke-linejoin="round" d="M20.905 14.932L20.905 16.739"/>
  <path stroke-width="0.131" stroke-linejoin="round" d="M19.913 15.35L19.913 16.541"/>
  <path stroke-width="0.131" stroke-linejoin="round" d="M21.721 15.725L23.33 15.747"/>
  <path stroke-width="0.131" stroke-linejoin="round" d="M14.577 25.117L15.57 25.117"/>
  <path stroke-width="0.131" stroke-linejoin="round" d="M16.891 25.117L17.481 25.117"/>
  <path stroke-width="0.131" stroke-linejoin="round" d="M28.577 15.541C28.577 16.062 28.157 16.483 27.637 16.483C27.117 16.483 26.696 16.062 26.696 15.541C26.696 15.022 27.117 14.6 27.637 14.6C28.157 14.6 28.577 15.022 28.577 15.541z"/>
  <path stroke-width="0.131" stroke-linejoin="round" d="M28.577 9.132C28.577 9.653 28.157 10.073 27.637 10.073C27.117 10.073 26.696 9.653 26.696 9.132C26.696 8.614 27.117 8.192 27.637 8.192C28.157 8.192 28.577 8.614 28.577 9.132z"/>
  <path stroke-width="0.131" stroke-linejoin="round" d="M28.577 28.3C28.577 28.821 28.157 29.242 27.637 29.242C27.117 29.242 26.696 28.821 26.696 28.3C26.696 27.782 27.117 27.359 27.637 27.359C28.157 27.359 28.577 27.782 28.577 28.3z"/>
  <path stroke-width="0.131" stroke-linejoin="round" d="M28.577 21.891C28.577 22.411 28.157 22.832 27.637 22.832C27.117 22.832 26.696 22.411 26.696 21.891C26.696 21.373 27.117 20.951 27.637 20.951C28.157 20.951 28.577 21.373 28.577 21.891z"/>
  <path stroke-width="0.131" stroke-linejoin="round" d="M19.913 26.309L19.913 28.315"/>
  <path stroke-width="0.131" stroke-linejoin="round" d="M19.913 21.899L19.913 23.707"/>
  <path stroke-width="0.131" stroke-linejoin="round" d="M19.913 28.336L26.638 28.336"/>
  <path stroke-width="0.131" stroke-linejoin="round" d="M19.934 21.899L26.681 21.899"/>
  <g>
   <g>
    <g>
     <g>
      <path stroke="none" fill="#000000" d="M25.676 8.401C26.323 8.401 26.388 8.872 26.388 9.086 26.388 9.43 26.164 9.708 25.795 9.708 25.44 9.708 25.291 9.474 25.132 9.176L25.019 8.971C24.87 8.701 24.714 8.641 24.638 8.63L24.638 9.708 24.405 9.708 24.405 8.35C24.817 8.365 25.036 8.551 25.192 8.816L25.344 9.079C25.464 9.289 25.547 9.442 25.806 9.442 25.964 9.442 26.164 9.34 26.164 9.05 26.164 8.675 25.815 8.657 25.676 8.65L25.676 8.401z"/>
     </g>
    </g>
   </g>
  </g>
  <g>
   <g>
    <g>
     <g>
      <path stroke="none" fill="#000000" d="M24.887 15.945L24.405 15.945 24.405 15.695 24.887 15.695 25.1 15.695 26.001 15.695 26.001 15.691 25.1 15.058 25.1 15.695 24.887 15.695 24.887 14.83 25.129 14.83 26.388 15.739 26.388 15.945 25.1 15.945 25.1 16.234 24.887 16.234 24.887 15.945z"/>
     </g>
    </g>
   </g>
  </g>
  <g>
   <g>
    <g>
     <g>
      <path stroke="none" fill="#000000" d="M22.178 1.427L22.562 1.427 21.638 3.959 21.275 3.959 20.353 1.427 20.733 1.427 21.455 3.585 21.463 3.585 22.178 1.427z"/>
      <path stroke="none" fill="#000000" d="M23.9 3.959L23.568 3.959 23.568 2.2 22.99 2.2 22.99 1.952C23.393 1.925 23.559 1.886 23.658 1.48L23.9 1.48 23.9 3.959z"/>
      <path stroke="none" fill="#000000" d="M26.013 2.64C26.349 2.782 26.42 3.056 26.42 3.242 26.42 3.641 26.166 4.025 25.579 4.025L25.591 3.748C25.817 3.748 26.088 3.666 26.088 3.278 26.088 2.944 25.855 2.796 25.573 2.796L25.57 2.528C25.838 2.528 26.01 2.355 26.01 2.129 26.01 1.978 25.911 1.758 25.548 1.758 25.216 1.758 25.135 1.988 25.135 2.146 25.135 2.383 25.344 2.528 25.57 2.528L25.573 2.796C25.224 2.796 25.062 3.024 25.062 3.254 25.062 3.451 25.161 3.748 25.591 3.748L25.579 4.025C25.443 4.025 25.181 3.991 24.984 3.835 24.73 3.634 24.73 3.367 24.73 3.246 24.73 2.944 24.888 2.75 25.149 2.644 24.937 2.562 24.815 2.394 24.815 2.161 24.815 1.903 24.974 1.48 25.565 1.48 26.115 1.48 26.33 1.829 26.33 2.118 26.33 2.475 26.123 2.584 26.013 2.64z"/>
      <path stroke="none" fill="#000000" d="M27.347 2.548C27.4 2.552 27.457 2.556 27.51 2.556 27.75 2.556 27.983 2.46 27.983 2.149 27.983 2.001 27.893 1.758 27.524 1.758 27.082 1.758 27.054 2.118 27.041 2.29L26.737 2.29C26.737 1.927 26.885 1.48 27.538 1.48 28.018 1.48 28.303 1.756 28.303 2.133 28.303 2.45 28.12 2.601 27.986 2.644L27.986 2.65C28.225 2.729 28.397 2.898 28.397 3.229 28.397 3.634 28.138 4.025 27.506 4.025 27.323 4.025 27.167 3.98 27.047 3.916 26.772 3.772 26.699 3.487 26.678 3.201L26.998 3.201C27.009 3.434 27.065 3.748 27.527 3.748 27.844 3.748 28.067 3.554 28.067 3.267 28.067 2.851 27.699 2.812 27.489 2.812 27.443 2.812 27.393 2.817 27.347 2.817L27.347 2.548z"/>
     </g>
    </g>
   </g>
  </g>
  <g>
   <g>
    <g>
     <g>
      <path stroke="none" fill="#000000" d="M25.533 20.55C25.53 20.593 25.527 20.638 25.527 20.681 25.527 20.873 25.603 21.059 25.852 21.059 25.969 21.059 26.164 20.987 26.164 20.692 26.164 20.339 25.876 20.317 25.739 20.306L25.739 20.062C26.03 20.062 26.388 20.181 26.388 20.702 26.388 21.086 26.167 21.315 25.865 21.315 25.611 21.315 25.49 21.169 25.457 21.062L25.451 21.062C25.388 21.254 25.254 21.391 24.989 21.391 24.664 21.391 24.35 21.182 24.35 20.678 24.35 20.53 24.388 20.407 24.439 20.31 24.553 20.091 24.783 20.032 25.01 20.015L25.01 20.271C24.824 20.28 24.574 20.324 24.574 20.695 24.574 20.949 24.728 21.126 24.957 21.126 25.291 21.126 25.321 20.832 25.321 20.664 25.321 20.626 25.318 20.588 25.318 20.55L25.533 20.55z"/>
     </g>
    </g>
   </g>
  </g>
  <g>
   <g>
    <g>
     <g>
      <path stroke="none" fill="#000000" d="M24.405 27.545L24.405 27.28 25.812 27.28 25.812 26.818 26.01 26.818C26.032 27.14 26.062 27.272 26.388 27.352L26.388 27.545 24.405 27.545z"/>
     </g>
    </g>
   </g>
  </g>
  <path stroke="none" fill="#000000" d="M22.166 8.978L22.166 8.978 22.166 8.519 22.01 8.519 22.01 8.978 21.553 8.978 21.553 9.132 22.01 9.132 22.01 9.589 22.166 9.589 22.166 9.132 22.623 9.132 22.623 8.978 22.166 8.978z"/>
 </g>
 <g id="Picture_x0020_#">
  <text transform="matrix(0 -1 1 0 36.317 35.023)" stroke="none" fill="#000000" font-family="'Helvetica'" font-size="2.117">403 806</text>
 </g>
</svg>
