<?xml version="1.0" encoding="utf-8"?>
<!DOCTYPE svg PUBLIC "-//W3C//DTD SVG 1.1//EN" "http://www.w3.org/Graphics/SVG/1.1/DTD/svg11.dtd">
<!-- Generator: PTC Arbortext IsoDraw 7.3 M070 -->
<svg width="100%" height="100%" viewBox="0 0 37.506 37.506"
 xmlns="http://www.w3.org/2000/svg" xmlns:xlink="http://www.w3.org/1999/xlink"
 fill-rule="evenodd" clip-rule="evenodd" stroke="#000000" stroke-linecap="round" fill="none" xml:space="preserve">
 <g id="A4_x0020_quarter_x0020_frame">
  <polygon stroke="#FFFFFF" stroke-width="0.006" stroke-linejoin="round" points="0.003 0.003 37.503 0.003 37.503 37.503 0.003 37.503 0.003 0.003"/>
 </g>
 <g id="Standard_x0020_layer">
  <g>
   <path stroke="none" fill="#FF0000" d="M18.722 37.457L37.362 18.817 18.722 0.177 0.083 18.817 18.722 37.457z"/>
   <path stroke="none" fill="#FFFFFF" d="M18.722 34.5L3.044 18.821 18.722 3.142 34.402 18.821 18.722 34.5z"/>
   <path stroke="none" fill="#000000" d="M11.278 18.675L11.278 18.937 25.838 18.937 25.838 18.675 11.278 18.675z"/>
   <path stroke="none" fill="#000000" d="M26.641 24.323L25.544 24.323 26.118 23.559 24.126 23.379 25.565 22.686 23.713 21.35 23.652 21.437 23.652 21.437 19.054 22.859 19.053 22.83 19.006 22.8C18.94 22.757 18.893 22.727 16.754 23.611 15.737 24.032 14.656 24.493 14.307 24.647 13.762 24.405 11.721 24.987 11.304 25.111L11.333 25.318 26.567 25.4 26.675 25.402 26.641 24.323z"/>
   <path stroke="none" fill="#000000" d="M20.893 13.587C20.885 13.599 19.942 14.649 19.559 14.977 19.268 15.227 18.856 15.239 18.495 15.25 18.408 15.252 18.329 15.253 18.251 15.259L18.236 15.26C17.975 15.313 17.567 15.686 17.256 16.006 17.329 15.84 17.414 15.647 17.513 15.435 17.812 14.781 17.756 14.471 17.678 14.042L17.66 13.945C17.605 13.631 18.631 12.196 19.289 11.367L19.312 11.337 19.312 10.794 17.515 12.875 17.225 10.747 16.829 10.747 16.832 10.856C16.836 10.942 16.917 12.939 16.974 13.385 17.021 13.766 17.007 14.298 17.001 14.43L16.056 15.788C15.878 15.124 15.352 13.173 15.188 12.747 15.035 12.356 15.201 11.119 15.276 10.676L15.304 10.516 14.867 10.627 14.554 11.619 13.519 10.029 13.223 10.266 13.259 10.343C13.263 10.349 13.6 11.026 14.045 11.776 14.375 12.333 14.403 13.211 14.399 13.583L12.182 12.237 12.182 12.782 12.221 12.814C12.237 12.827 13.849 14.105 14.265 14.436 14.529 14.649 14.704 15.292 14.781 15.683 14.356 15.48 13.346 14.996 13.163 14.929 13.064 14.891 12.887 14.919 12.268 15.372 11.939 15.614 11.634 15.868 11.631 15.871L11.724 16.053C11.734 16.05 11.954 15.996 12.119 15.939 12.539 15.817 12.832 16.003 12.843 16.01L15.007 17.185 14.926 21.484 13.189 22.493 13.252 22.689 15.31 22.5 16.121 23.19 16.722 22.321 19.332 21.943 17.187 20.87 17.187 17.951C17.359 17.754 18.335 16.637 18.586 16.359 18.792 16.134 19.309 16.065 19.492 16.056L19.547 16.054 21.06 13.715 20.893 13.587z"/>
   <path stroke="none" fill="#000000" d="M13.089 15.125L13.089 15.125 13.089 15.125z"/>
   <g>
    <path stroke="none" fill="#FFFFFF" d="M18.086 22.839C18.618 22.617 19.484 22.251 19.989 21.524 20.513 20.771 22.37 17.603 24.919 17.858 24.778 18.193 24.33 18.922 24.33 18.922L26.147 18.361C26.147 18.361 26.175 20.768 22.733 22.306 21.137 22.867 20.8 22.894 20.661 23.088 20.521 23.285 19.879 24.265 19.879 24.265L17.024 23.006C17.024 23.006 17.753 22.98 18.086 22.839L18.086 22.839z"/>
    <path stroke="none" fill="#000000" d="M19.928 24.429L16.972 23.126 17.019 22.875C17.027 22.875 17.704 22.849 18.019 22.725L18.036 22.718C18.544 22.507 19.393 22.152 19.882 21.449 19.925 21.385 19.978 21.306 20.039 21.214 20.716 20.195 22.516 17.486 24.931 17.727L25.109 17.743 25.041 17.908C24.954 18.112 24.763 18.451 24.62 18.695L26.277 18.184 26.28 18.359C26.28 18.385 26.282 19.004 25.847 19.818 25.452 20.562 24.599 21.617 22.786 22.426L22.775 22.431C22.213 22.629 21.806 22.76 21.51 22.856L21.428 22.606C21.722 22.51 22.126 22.379 22.684 22.184 24.416 21.41 25.23 20.411 25.608 19.71 25.881 19.204 25.972 18.774 26.001 18.544L24.036 19.149 24.219 18.853C24.222 18.847 24.541 18.329 24.719 17.975 22.553 17.908 20.893 20.403 20.257 21.359 20.196 21.454 20.141 21.535 20.097 21.597 19.591 22.327 18.757 22.701 18.217 22.926L18.217 22.926 18.137 22.96C17.983 23.025 17.757 23.067 17.548 23.094L19.83 24.099C19.995 23.849 20.439 23.175 20.554 23.012 20.67 22.85 20.846 22.795 21.428 22.606L21.51 22.856C21.018 23.015 20.832 23.074 20.768 23.166 20.632 23.356 19.995 24.327 19.989 24.336L19.928 24.429z"/>
   </g>
   <path stroke="none" fill="#000000" d="M24.771 19.504C24.94 19.504 25.079 19.623 25.079 19.768 25.079 19.916 24.94 20.035 24.771 20.035 24.6 20.035 24.463 19.916 24.463 19.768 24.463 19.623 24.6 19.504 24.771 19.504z"/>
  </g>
 </g>
 <g id="Picture_x0020_#">
  <text transform="matrix(0 -1 1 0 36.317 36.49)" stroke="none" fill="#000000" font-family="'Helvetica'" font-size="2.117">405 886</text>
 </g>
</svg>
