<?xml version="1.0" encoding="utf-8"?>
<!DOCTYPE svg PUBLIC "-//W3C//DTD SVG 1.1//EN" "http://www.w3.org/Graphics/SVG/1.1/DTD/svg11.dtd">
<!-- Generator: PTC Arbortext IsoDraw 7.3 M070 -->
<svg width="100%" height="100%" viewBox="0 0 37.506 37.506"
 xmlns="http://www.w3.org/2000/svg" xmlns:xlink="http://www.w3.org/1999/xlink"
 fill-rule="evenodd" clip-rule="evenodd" stroke="#000000" stroke-linecap="round" fill="none" xml:space="preserve">
 <g id="A4_x0020_quarter_x0020_frame">
  <polygon stroke="#FFFFFF" stroke-width="0.006" stroke-linejoin="round" points="0.003 0.003 37.503 0.003 37.503 37.503 0.003 37.503 0.003 0.003"/>
 </g>
 <g id="Standard_x0020_layer">
  <g>
   <path stroke="none" fill="#FF0000" d="M18.753 37.503L37.326 18.929 18.753 0.358 0.18 18.929 18.753 37.503z"/>
   <path stroke="none" fill="#FFFFFF" d="M18.753 34.558L3.124 18.929 18.753 3.298 34.381 18.929 18.753 34.558z"/>
   <g>
    <path stroke="none" fill="#000000" d="M18.839 6.98C16.65 6.98 14.875 8.893 14.875 11.25 14.875 12.782 15.448 14.933 16.565 16.251L16.429 17.649 13.432 18.734C13.48 18.969 13.686 19.144 13.935 19.144 13.978 19.144 14.021 19.138 14.061 19.128 14.118 19.35 14.319 19.513 14.557 19.513 14.582 19.513 14.606 19.51 14.631 19.507 14.689 19.725 14.888 19.887 15.127 19.887 15.196 19.887 15.262 19.873 15.323 19.847 15.339 20.012 15.478 20.14 15.647 20.14 15.681 20.14 15.712 20.135 15.743 20.126 15.785 20.367 15.994 20.551 16.248 20.551 16.446 20.551 16.617 20.44 16.702 20.277 16.789 20.343 16.896 20.382 17.013 20.382 17.088 20.382 17.16 20.365 17.225 20.335 17.292 20.478 17.416 20.588 17.567 20.635 17.561 20.653 17.556 20.673 17.556 20.693 17.556 20.798 17.64 20.882 17.745 20.882 17.85 20.882 17.934 20.798 17.934 20.693 17.934 20.67 17.929 20.649 17.922 20.628 18.141 20.55 18.3 20.341 18.3 20.096 18.3 19.983 18.266 19.878 18.21 19.789 18.301 19.777 18.373 19.699 18.373 19.603 18.373 19.522 18.321 19.454 18.248 19.428 18.327 19.336 18.376 19.221 18.376 19.089 18.376 19.065 18.373 19.042 18.37 19.018 18.564 18.943 18.701 18.757 18.701 18.538 18.701 18.4 18.646 18.277 18.559 18.184 18.574 18.19 18.591 18.193 18.608 18.193 18.713 18.193 18.797 18.108 18.797 18.004 18.797 17.899 18.713 17.815 18.608 17.815 18.567 17.815 18.528 17.829 18.498 17.852 18.46 17.782 18.391 17.731 18.31 17.718 18.375 17.614 18.411 17.492 18.411 17.361 18.411 17.277 18.396 17.196 18.367 17.12 18.562 17.047 18.701 16.861 18.701 16.64 18.701 16.513 18.655 16.396 18.577 16.306 18.721 16.259 18.824 16.125 18.824 15.965 18.824 15.836 18.754 15.723 18.649 15.66 18.699 15.599 18.728 15.522 18.728 15.438 18.728 15.416 18.725 15.394 18.722 15.375 18.795 15.371 18.864 15.346 18.92 15.304 18.917 15.326 18.914 15.348 18.914 15.371 18.914 15.499 18.981 15.609 19.079 15.673 19.059 15.727 19.048 15.787 19.048 15.848 19.048 16.056 19.172 16.236 19.353 16.317 19.335 16.375 19.327 16.437 19.327 16.501 19.327 16.718 19.428 16.911 19.588 17.035 19.449 17.096 19.35 17.234 19.35 17.396 19.35 17.557 19.448 17.696 19.586 17.757 19.559 17.804 19.542 17.861 19.542 17.92 19.542 18.05 19.62 18.161 19.73 18.213 19.699 18.292 19.681 18.379 19.681 18.469 19.681 18.576 19.707 18.679 19.751 18.771 19.73 18.795 19.71 18.821 19.692 18.849 19.658 18.814 19.611 18.792 19.557 18.792 19.454 18.792 19.368 18.876 19.368 18.981 19.368 19.085 19.454 19.17 19.557 19.17L19.583 19.167C19.582 19.184 19.582 19.202 19.582 19.219 19.582 19.35 19.618 19.472 19.682 19.574 19.628 19.678 19.597 19.798 19.597 19.923 19.597 20.117 19.67 20.292 19.789 20.425 19.757 20.478 19.736 20.542 19.736 20.609 19.736 20.801 19.893 20.958 20.086 20.958 20.257 20.958 20.4 20.835 20.429 20.67 20.524 20.661 20.614 20.632 20.693 20.591 20.734 20.681 20.826 20.743 20.931 20.743 21.076 20.743 21.193 20.626 21.193 20.481 21.193 20.371 21.126 20.278 21.03 20.239 21.056 20.181 21.076 20.12 21.088 20.056 21.143 20.073 21.202 20.08 21.265 20.08L21.288 20.079C21.333 20.198 21.448 20.282 21.582 20.282 21.686 20.282 21.777 20.231 21.835 20.155 21.867 20.274 21.977 20.361 22.106 20.361 22.204 20.361 22.291 20.312 22.341 20.234 22.396 20.268 22.458 20.288 22.527 20.288 22.725 20.288 22.885 20.128 22.885 19.929 22.885 19.864 22.867 19.803 22.836 19.748 22.864 19.757 22.893 19.763 22.923 19.763 23.077 19.763 23.204 19.637 23.204 19.481 23.204 19.469 23.202 19.455 23.201 19.443 23.26 19.557 23.379 19.637 23.518 19.637 23.713 19.637 23.873 19.481 23.876 19.286 23.969 19.228 24.035 19.129 24.045 19.013 24.064 19.019 24.082 19.024 24.103 19.024 24.207 19.024 24.292 18.94 24.292 18.835 24.292 18.814 24.288 18.792 24.28 18.772L23.993 18.681 21.001 17.716 20.989 16.439C21.443 15.949 21.798 15.32 22.054 14.634 22.541 13.339 22.801 11.968 22.801 11.25 22.801 9.391 21.025 6.98 18.838 6.98L18.839 6.98z"/>
    <path stroke="none" fill="#000000" d="M12.704 19.033C12.651 19.033 12.603 19.048 12.563 19.074 11.85 19.347 11.259 19.573 11.035 19.664 10.532 19.864 10.16 20.402 10.16 20.934L10.16 22.649 12.939 25.469C12.967 25.475 12.996 25.478 13.026 25.478 13.18 25.478 13.314 25.394 13.387 25.271 13.442 25.292 13.503 25.304 13.567 25.304 13.85 25.304 14.08 25.074 14.08 24.792 14.08 24.771 14.079 24.751 14.076 24.731 14.153 24.826 14.269 24.885 14.4 24.885 14.63 24.885 14.817 24.699 14.817 24.469 14.817 24.407 14.803 24.347 14.778 24.295 14.861 24.265 14.932 24.21 14.983 24.14 15.035 24.193 15.108 24.228 15.189 24.228 15.349 24.228 15.481 24.097 15.481 23.939 15.481 23.855 15.446 23.78 15.39 23.725 15.496 23.675 15.577 23.579 15.609 23.463 15.676 23.536 15.769 23.585 15.872 23.596 15.832 23.646 15.806 23.711 15.806 23.783 15.806 23.943 15.936 24.071 16.099 24.071 16.262 24.071 16.391 23.94 16.391 23.783 16.391 23.65 16.304 23.539 16.185 23.504 16.277 23.428 16.336 23.312 16.336 23.182 16.336 23.144 16.332 23.108 16.321 23.073 16.335 23.074 16.347 23.074 16.361 23.074 16.419 23.074 16.475 23.062 16.524 23.041 16.53 23.152 16.62 23.242 16.734 23.242 16.85 23.242 16.943 23.147 16.943 23.033 16.943 22.92 16.853 22.827 16.742 22.824 16.763 22.772 16.775 22.718 16.775 22.658 16.775 22.623 16.771 22.588 16.762 22.556 16.867 22.556 16.951 22.472 16.951 22.367 16.951 22.263 16.867 22.178 16.762 22.178L16.746 22.179C16.736 22.022 16.655 21.885 16.535 21.798 16.535 21.786 16.536 21.774 16.536 21.763 16.536 21.478 16.306 21.248 16.022 21.248 15.923 21.248 15.832 21.277 15.753 21.326 15.765 21.295 15.771 21.263 15.771 21.231 15.771 21.082 15.65 20.961 15.503 20.961 15.475 20.961 15.451 20.966 15.426 20.972 15.429 20.949 15.432 20.923 15.432 20.899 15.432 20.615 15.201 20.385 14.919 20.385 14.83 20.385 14.747 20.407 14.676 20.446 14.611 20.341 14.51 20.26 14.387 20.224 14.403 20.19 14.413 20.152 14.413 20.111 14.413 19.963 14.291 19.843 14.143 19.843 14.108 19.843 14.074 19.85 14.044 19.861 14.042 19.579 13.814 19.352 13.531 19.352 13.486 19.352 13.442 19.359 13.4 19.37 13.359 19.274 13.262 19.205 13.151 19.205 13.086 19.205 13.025 19.228 12.98 19.268 12.961 19.137 12.849 19.036 12.712 19.036z"/>
    <path stroke="none" fill="#000000" d="M25.277 19.096C25.152 19.106 25.048 19.199 25.024 19.321 24.986 19.3 24.943 19.289 24.896 19.289 24.74 19.289 24.615 19.416 24.615 19.571 24.615 19.585 24.617 19.6 24.62 19.614 24.533 19.551 24.428 19.513 24.314 19.513 24.03 19.513 23.8 19.742 23.8 20.027L23.8 20.03C23.748 20.016 23.693 20.009 23.638 20.009 23.262 20.009 22.96 20.312 22.96 20.687 22.96 20.722 22.963 20.757 22.969 20.791 22.928 20.772 22.885 20.763 22.838 20.763 22.731 20.763 22.637 20.815 22.576 20.893 22.515 20.873 22.451 20.862 22.382 20.862 22.047 20.862 21.777 21.126 21.763 21.457 21.742 21.452 21.719 21.451 21.696 21.451 21.516 21.451 21.371 21.597 21.371 21.775 21.371 21.83 21.385 21.882 21.408 21.928 21.356 21.897 21.297 21.881 21.234 21.881 21.036 21.881 20.875 22.042 20.875 22.239 20.875 22.343 20.92 22.435 20.989 22.501L20.989 22.504C20.907 22.513 20.836 22.568 20.811 22.644 20.8 22.667 20.794 22.693 20.794 22.721 20.794 22.786 20.829 22.844 20.879 22.879 20.916 22.907 20.96 22.923 21.009 22.923 21.099 22.923 21.173 22.867 21.205 22.788 21.254 22.815 21.309 22.829 21.37 22.829 21.396 22.829 21.422 22.826 21.448 22.82 21.446 22.841 21.443 22.864 21.443 22.885 21.443 22.968 21.46 23.045 21.489 23.117 21.373 23.144 21.286 23.248 21.286 23.371 21.286 23.41 21.295 23.446 21.31 23.478 21.347 23.574 21.439 23.64 21.547 23.64 21.637 23.64 21.714 23.594 21.76 23.524 21.777 23.501 21.791 23.475 21.798 23.446 21.879 23.484 21.969 23.507 22.065 23.507 22.094 23.507 22.123 23.504 22.152 23.5 22.135 23.545 22.126 23.594 22.126 23.644 22.126 23.713 22.141 23.775 22.17 23.832 22.157 23.829 22.143 23.827 22.129 23.827 22.013 23.827 21.92 23.922 21.92 24.038 21.92 24.152 22.013 24.246 22.129 24.246 22.234 24.246 22.32 24.17 22.335 24.071 22.391 24.292 22.593 24.457 22.83 24.457 22.939 24.457 23.038 24.423 23.12 24.367 23.144 24.574 23.321 24.733 23.533 24.733 23.64 24.733 23.739 24.692 23.814 24.623 23.812 24.635 23.812 24.649 23.812 24.661 23.812 24.945 24.042 25.175 24.326 25.175 24.422 25.175 24.513 25.147 24.591 25.1 24.551 25.152 24.528 25.219 24.528 25.289 24.528 25.466 24.672 25.609 24.849 25.609 24.955 25.609 25.05 25.556 25.108 25.477L27.887 22.917 27.887 21.042C27.887 20.474 27.274 19.763 26.535 19.51 26.37 19.454 25.274 19.097 25.274 19.097z"/>
    <path stroke="none" fill="#000000" d="M18.94 19.344C18.795 19.344 18.676 19.463 18.676 19.608 18.676 19.707 18.734 19.792 18.817 19.838 18.737 19.859 18.679 19.931 18.679 20.018 18.679 20.123 18.765 20.207 18.868 20.207 18.972 20.207 19.056 20.123 19.056 20.018 19.056 19.954 19.025 19.899 18.978 19.865 19.105 19.847 19.201 19.739 19.201 19.608 19.201 19.463 19.083 19.344 18.94 19.344z"/>
    <path stroke="none" fill="#000000" d="M18.001 19.588L18.001 19.6 17.987 19.593 18.001 19.588z"/>
    <path stroke="none" fill="#000000" d="M18.571 20.481C18.466 20.481 18.382 20.565 18.382 20.67 18.382 20.774 18.466 20.858 18.571 20.858 18.675 20.858 18.76 20.774 18.76 20.67 18.76 20.565 18.675 20.481 18.571 20.481z"/>
    <path stroke="none" fill="#000000" d="M16.832 20.681C16.684 20.681 16.564 20.801 16.564 20.951 16.564 21.099 16.684 21.219 16.832 21.219 16.981 21.219 17.102 21.099 17.102 20.951 17.102 20.801 16.981 20.681 16.832 20.681z"/>
    <path stroke="none" fill="#000000" d="M19.882 21.16C19.766 21.16 19.672 21.254 19.672 21.37 19.672 21.486 19.766 21.58 19.882 21.58 19.899 21.58 19.916 21.579 19.931 21.574 19.939 21.722 20.062 21.841 20.211 21.841 20.231 21.841 20.251 21.838 20.271 21.835 20.402 21.82 20.504 21.71 20.504 21.576 20.504 21.527 20.489 21.484 20.468 21.445 20.423 21.347 20.326 21.28 20.211 21.28 20.166 21.28 20.121 21.291 20.083 21.31 20.057 21.224 19.978 21.16 19.882 21.16z"/>
    <path stroke="none" fill="#000000" d="M16.957 21.641C16.853 21.641 16.768 21.727 16.768 21.83 16.768 21.934 16.853 22.018 16.957 22.018 16.996 22.018 17.033 22.007 17.065 21.986 17.071 22.123 17.184 22.233 17.324 22.233 17.469 22.233 17.586 22.115 17.586 21.971 17.586 21.826 17.469 21.708 17.324 21.708 17.253 21.708 17.187 21.739 17.14 21.786 17.12 21.702 17.045 21.64 16.957 21.64z"/>
    <path stroke="none" fill="#000000" d="M20.632 22.983C20.477 22.983 20.35 23.109 20.35 23.263 20.35 23.298 20.358 23.332 20.37 23.364 20.268 23.379 20.19 23.464 20.19 23.571 20.19 23.6 20.196 23.629 20.207 23.653 20.236 23.728 20.307 23.78 20.393 23.78L20.397 23.78C20.515 23.78 20.609 23.686 20.609 23.571L20.606 23.542 20.632 23.544C20.786 23.544 20.913 23.419 20.913 23.263 20.913 23.108 20.786 22.983 20.632 22.983z"/>
    <path stroke="none" fill="#000000" d="M18.431 23.336C18.286 23.336 18.169 23.454 18.169 23.599 18.169 23.743 18.286 23.861 18.431 23.861 18.576 23.861 18.693 23.743 18.693 23.599 18.693 23.454 18.576 23.336 18.431 23.336z"/>
    <path stroke="none" fill="#000000" d="M16.903 23.375C16.788 23.375 16.693 23.469 16.693 23.585 16.693 23.701 16.788 23.794 16.903 23.794 17.018 23.794 17.112 23.701 17.112 23.585 17.112 23.469 17.018 23.375 16.903 23.375z"/>
    <path stroke="none" fill="#000000" d="M17.21 23.943C17.05 23.943 16.917 24.074 16.917 24.233 16.917 24.379 17.024 24.5 17.164 24.521 17.164 24.532 17.163 24.542 17.163 24.553 17.074 24.48 16.96 24.435 16.835 24.435 16.649 24.435 16.486 24.536 16.396 24.682 16.32 24.6 16.21 24.547 16.088 24.547 15.894 24.547 15.73 24.679 15.686 24.859 15.618 24.814 15.538 24.788 15.451 24.788 15.221 24.788 15.034 24.972 15.034 25.204 15.034 25.236 15.038 25.268 15.044 25.297 14.933 25.198 14.788 25.135 14.628 25.135 14.371 25.135 14.151 25.291 14.057 25.512 13.99 25.466 13.909 25.44 13.821 25.44 13.592 25.44 13.404 25.626 13.404 25.856 13.404 25.89 13.409 25.923 13.416 25.954L18.461 31.077C18.527 31.05 18.574 30.984 18.574 30.908 18.574 30.836 18.533 30.775 18.472 30.745 18.544 30.721 18.594 30.653 18.594 30.574 18.594 30.498 18.548 30.432 18.484 30.405 18.548 30.362 18.591 30.289 18.591 30.207 18.591 30.092 18.512 30 18.405 29.974 18.617 29.829 18.756 29.585 18.756 29.309 18.756 29.138 18.702 28.981 18.612 28.85 18.757 28.76 18.855 28.599 18.855 28.416 18.855 28.208 18.731 28.03 18.554 27.949 18.625 27.894 18.67 27.812 18.67 27.718 18.67 27.618 18.62 27.532 18.545 27.478 18.588 27.428 18.612 27.364 18.612 27.292 18.612 27.132 18.483 27.004 18.32 27.004 18.295 27.004 18.272 27.007 18.25 27.012 18.283 26.945 18.301 26.868 18.301 26.789 18.301 26.714 18.285 26.643 18.256 26.579 18.407 26.568 18.525 26.443 18.525 26.291 18.525 26.167 18.446 26.059 18.335 26.018 18.445 25.923 18.513 25.785 18.513 25.629 18.513 25.452 18.423 25.295 18.286 25.204 18.365 25.112 18.414 24.995 18.414 24.864 18.414 24.751 18.378 24.646 18.315 24.562 18.396 24.533 18.454 24.455 18.454 24.365 18.454 24.25 18.359 24.155 18.243 24.155 18.173 24.155 18.111 24.19 18.073 24.245 17.98 24.129 17.835 24.054 17.675 24.054 17.599 24.054 17.527 24.071 17.463 24.1 17.414 24.009 17.318 23.946 17.207 23.946L17.21 23.943z"/>
    <path stroke="none" fill="#000000" d="M20.064 24.027C19.87 24.027 19.714 24.184 19.714 24.378 19.714 24.437 19.73 24.492 19.756 24.542 19.705 24.501 19.64 24.475 19.571 24.475 19.41 24.475 19.277 24.605 19.277 24.763 19.277 24.902 19.373 25.018 19.504 25.047 19.466 25.12 19.443 25.201 19.443 25.288 19.443 25.452 19.524 25.602 19.646 25.696 19.6 25.783 19.573 25.882 19.573 25.989 19.573 26.153 19.637 26.303 19.742 26.414 19.707 26.492 19.689 26.576 19.689 26.666 19.689 26.701 19.692 26.734 19.698 26.768 19.655 26.739 19.606 26.719 19.551 26.716 19.586 26.667 19.609 26.608 19.609 26.544 19.609 26.382 19.478 26.254 19.315 26.254 19.153 26.254 19.021 26.385 19.021 26.544 19.021 26.62 19.051 26.69 19.1 26.742 18.978 26.777 18.89 26.89 18.89 27.022 18.89 27.184 19.019 27.312 19.182 27.312L19.21 27.309C19.155 27.4 19.125 27.507 19.125 27.621 19.125 27.838 19.236 28.028 19.403 28.14 19.181 28.234 19.025 28.454 19.025 28.711 19.025 28.897 19.108 29.065 19.237 29.178 19.103 29.271 19.015 29.426 19.015 29.602 19.015 29.673 19.03 29.742 19.056 29.803 19.018 29.865 18.996 29.939 18.996 30.016 18.996 30.106 19.025 30.19 19.074 30.259 19.033 30.292 19.004 30.343 19.004 30.4 19.004 30.463 19.036 30.519 19.085 30.553 19.035 30.585 19.001 30.641 19.001 30.705 19.001 30.718 19.004 30.728 19.006 30.739 18.963 30.774 18.936 30.824 18.936 30.882 18.936 30.958 18.983 31.024 19.047 31.051L24.486 26.03C24.496 26 24.503 25.968 24.503 25.932 24.503 25.771 24.373 25.643 24.213 25.643 24.164 25.643 24.117 25.657 24.076 25.678 24.025 25.506 23.865 25.379 23.676 25.379 23.594 25.379 23.519 25.403 23.454 25.443 23.455 25.432 23.457 25.422 23.457 25.411 23.457 25.129 23.227 24.899 22.943 24.899 22.876 24.899 22.814 24.911 22.754 24.934 22.748 24.78 22.62 24.657 22.466 24.657 22.304 24.657 22.176 24.788 22.176 24.951 22.176 24.963 22.178 24.975 22.179 24.986 22.106 24.867 21.975 24.789 21.824 24.789 21.8 24.789 21.777 24.791 21.756 24.795 21.751 24.513 21.524 24.288 21.242 24.288 21.213 24.288 21.185 24.289 21.158 24.295 21.144 24.146 21.019 24.032 20.868 24.032 20.743 24.032 20.637 24.111 20.596 24.222 20.582 24.221 20.57 24.219 20.556 24.219 20.498 24.219 20.442 24.228 20.388 24.243 20.338 24.111 20.21 24.018 20.062 24.018L20.064 24.027z"/>
    <path stroke="none" fill="#000000" d="M18.899 25.172C18.783 25.172 18.69 25.266 18.69 25.382 18.69 25.446 18.718 25.501 18.76 25.539 18.704 25.591 18.67 25.667 18.67 25.751 18.67 25.911 18.8 26.039 18.963 26.039 19.123 26.039 19.256 25.908 19.256 25.751 19.256 25.632 19.185 25.532 19.085 25.486 19.102 25.454 19.112 25.42 19.112 25.382 19.112 25.266 19.018 25.172 18.903 25.172z"/>
   </g>
  </g>
 </g>
 <g id="Picture_x0020_#">
  <text transform="matrix(0 -1 1 0 36.317 36.49)" stroke="none" fill="#000000" font-family="'Helvetica'" font-size="2.117">405 885</text>
 </g>
</svg>
