<?xml version="1.0" encoding="utf-8"?>
<!DOCTYPE svg PUBLIC "-//W3C//DTD SVG 1.1//EN" "http://www.w3.org/Graphics/SVG/1.1/DTD/svg11.dtd">
<!-- Generator: PTC Arbortext IsoDraw 7.3 M080 -->
<svg width="100%" height="100%" viewBox="0 0 75.006 75.006"
 xmlns="http://www.w3.org/2000/svg" xmlns:xlink="http://www.w3.org/1999/xlink"
 fill-rule="evenodd" clip-rule="evenodd" stroke="#000000" stroke-linecap="round" fill="none" xml:space="preserve">
 <g id="A4_x0020_half_x0020_frame">
  <polygon id="AUTOID_25844" stroke="#FFFFFF" stroke-width="0.006" stroke-linejoin="round" points="0.003 0.003 75.003 0.003 75.003 75.003 0.003 75.003 0.003 0.003"/>
 </g>
 <g id="Colour">
  <path stroke="none" fill="#B2B2B2" d="M28.274 36.777C29.192 36.441 29.62 35.31 29.231 34.25 28.843 33.192 27.785 32.606 26.867 32.942L26.384 33.119C25.466 33.457 25.038 34.588 25.425 35.646 25.815 36.706 26.873 37.292 27.789 36.954 28.707 36.618 27.356 37.113 28.274 36.777z"/>
 </g>
 <g id="Standard_x0020_layer">
  <g>
   <path stroke-width="0.3" d="M21.617 4.41C21.899 3.757 21.934 3.488 22.509 3.427C23.082 3.363 23.484 3.418 23.696 3.608C23.908 3.797 24.217 4.234 24.103 4.368"/>
   <path stroke-width="0.13" d="M24.103 4.368C23.589 4.602 22.041 4.615 21.617 4.41"/>
   <path stroke-width="0.3" d="M32.771 2.62C33.051 1.967 33.088 1.698 33.661 1.637C34.234 1.575 34.636 1.629 34.847 1.818C35.06 2.007 35.369 2.443 35.256 2.578"/>
   <path stroke-width="0.13" d="M35.256 2.578C34.741 2.812 33.192 2.827 32.771 2.62"/>
   <path stroke-width="0.3" d="M35.56 5.565C35.841 4.913 35.877 4.644 36.45 4.583C37.023 4.52 37.424 4.573 37.637 4.764C37.848 4.953 38.158 5.389 38.045 5.525"/>
   <path stroke-width="0.13" d="M38.045 5.525C37.53 5.759 35.981 5.772 35.56 5.565"/>
   <path stroke-width="0.3" d="M46.712 3.775C46.993 3.124 47.029 2.855 47.601 2.793C48.174 2.73 48.576 2.785 48.789 2.974C49 3.162 49.31 3.601 49.197 3.734"/>
   <path stroke-width="0.13" d="M49.197 3.734C48.682 3.968 47.134 3.983 46.712 3.775"/>
   <path stroke-width="0.3" d="M43.161 6.229C43.442 5.575 43.478 5.307 44.051 5.246C44.625 5.182 45.027 5.237 45.238 5.426C45.451 5.615 45.761 6.052 45.646 6.187"/>
   <path stroke-width="0.13" d="M45.646 6.187C45.133 6.421 43.584 6.435 43.161 6.229"/>
   <path stroke-width="0.3" d="M54.314 4.439C54.594 3.786 54.631 3.519 55.204 3.455C55.777 3.394 56.179 3.447 56.39 3.637C56.603 3.826 56.912 4.264 56.798 4.397"/>
   <path stroke-width="0.13" d="M56.798 4.397C56.284 4.631 54.735 4.645 54.314 4.439"/>
   <line stroke-width="0.3" x1="23.932" y1="3.875" x2="32.844" y2="2.446"/>
   <line stroke-width="0.3" x1="35.256" y1="2.387" x2="46.899" y2="3.334"/>
   <line stroke-width="0.3" x1="49.173" y1="3.483" x2="54.543" y2="3.903"/>
   <path stroke-width="0.3" d="M56.874 4.117C56.874 4.117 57.347 3.874 57.399 4.719C57.45 5.562 57.365 5.78 57.299 5.846C57.235 5.911 57.307 6.69 56.963 6.867"/>
   <path stroke-width="0.3" d="M56.963 6.867L56.616 6.979C56.616 6.979 56.723 9.295 56.723 9.274C56.723 9.252 56.924 9.943 55.341 9.718"/>
   <line stroke-width="0.3" x1="55.578" y1="9.586" x2="52.27" y2="10.288"/>
   <line stroke-width="0.3" x1="52.27" y1="10.288" x2="52.284" y2="11.999"/>
   <line stroke-width="0.3" x1="52.27" y1="10.288" x2="45.39" y2="11.43"/>
   <path stroke-width="0.3" d="M45.39 11.43C44.679 11.806 43.399 11.599 43.246 11.449C43.093 11.298 43.093 11.298 43.093 11.298L37.478 10.785C37.478 10.785 36.158 11.099 35.877 11.037C35.594 10.974 35.527 10.606 35.527 10.606"/>
   <path stroke-width="0.13" d="M56.616 6.979C56.616 6.979 47.033 8.557 46.362 8.692C45.692 8.829 44.155 8.993 42.725 8.875"/>
   <path stroke-width="0.13" d="M57.299 5.846C57.299 5.846 46.981 7.474 46.31 7.61C45.64 7.746 44.103 7.91 42.673 7.794"/>
   <line stroke-width="0.3" x1="56.704" y1="4.703" x2="45.78" y2="6.357"/>
   <line stroke-width="0.13" x1="43.093" y1="11.298" x2="43.073" y2="9.023"/>
   <line stroke-width="0.13" x1="42.811" y1="8.882" x2="21.638" y2="7.141"/>
   <line stroke-width="0.13" x1="42.673" y1="7.794" x2="21.451" y2="6.128"/>
   <line stroke-width="0.3" x1="42.774" y1="6.45" x2="21.576" y2="4.732"/>
   <line stroke-width="0.13" x1="35.527" y1="10.606" x2="35.506" y2="8.361"/>
   <path stroke-width="0.3" d="M21.69 4.238C21.69 4.238 20.955 4.325 20.934 5.011C20.914 5.695 20.792 6.011 20.998 6.065C21.204 6.118 21.204 6.118 21.204 6.118C21.204 6.118 21.097 6.338 21.099 6.583C21.1 6.83 21.198 6.966 21.362 7.046C21.527 7.128 21.638 7.141 21.638 7.141L21.66 9.631C21.66 9.631 21.923 9.986 22.606 9.91C23.291 9.836 23.33 9.753 23.33 9.753"/>
   <line stroke-width="0.13" x1="23.33" y1="9.753" x2="23.309" y2="7.359"/>
   <line stroke-width="0.3" x1="23.33" y1="9.753" x2="24.097" y2="9.801"/>
   <path stroke-width="0.13" d="M24.097 9.801C24.495 9.826 24.675 10.153 24.678 10.468"/>
   <line stroke-width="0.3" x1="24.097" y1="9.801" x2="24.053" y2="28.478"/>
   <path stroke-width="0.3" d="M24.06 26.527C23.425 26.483 23.382 27.044 23.388 27.678C23.393 28.312 23.393 28.312 23.393 28.312C23.393 28.312 22.539 28.442 22.521 28.978C22.501 29.515 22.504 29.882 22.774 30.123C23.045 30.364 23.458 30.239 23.588 31.213C23.719 32.189 23.545 37.313 23.545 37.313"/>
   <g>
    <path stroke-width="0.13" d="M24.722 40.79C25.045 40.71 25.298 40.484 25.449 40.186"/>
    <path stroke-width="0.3" d="M25.449 40.186C25.611 39.865 25.638 39.49 25.55 39.145C25.361 38.399 24.684 37.926 24.039 38.09"/>
    <path stroke-width="0.13" d="M24.039 38.09C23.393 38.253 23.021 38.99 23.21 39.735C23.399 40.481 24.076 40.954 24.722 40.79"/>
   </g>
   <g>
    <path stroke-width="0.13" d="M35.624 34.914C35.932 34.829 36.171 34.609 36.31 34.32"/>
    <path stroke-width="0.3" d="M36.31 34.32C36.46 34.009 36.478 33.649 36.387 33.319C36.194 32.606 35.536 32.165 34.918 32.335"/>
    <path stroke-width="0.13" d="M34.918 32.335C34.494 32.451 34.201 32.823 34.119 33.284"/>
    <path stroke-width="0.13" d="M34.521 34.578C34.838 34.902 35.253 35.014 35.624 34.914"/>
   </g>
   <g>
    <path stroke-width="0.13" d="M26.402 39.482C26.391 39.279 26.359 39.079 26.309 38.905C25.968 37.676 24.827 36.917 23.763 37.213"/>
    <path stroke-width="0.3" d="M23.763 37.213C22.698 37.509 22.111 38.744 22.452 39.975C22.769 41.119 23.78 41.856 24.786 41.712"/>
   </g>
   <g>
    <path stroke-width="0.13" d="M28.545 38.929C28.53 38.432 28.378 37.968 28.134 37.588"/>
   </g>
   <line stroke-width="0.3" x1="25.498" y1="36.723" x2="23.763" y2="37.213"/>
   <g>
    <path stroke-width="0.13" stroke-linejoin="round" d="M27.789 36.954C28.707 36.618 29.135 35.487 28.746 34.429C28.359 33.369 27.3 32.783 26.382 33.119"/>
    <path stroke-width="0.3" stroke-linejoin="round" d="M26.382 33.119C25.466 33.457 25.038 34.588 25.425 35.646C25.814 36.706 26.873 37.292 27.789 36.954"/>
   </g>
   <g>
    <path stroke-width="0.13" d="M27.292 35.655C27.588 35.555 27.734 35.2 27.62 34.859C27.507 34.518 27.175 34.322 26.879 34.42C26.585 34.518 26.437 34.875 26.551 35.216C26.666 35.557 26.998 35.753 27.292 35.655"/>
   </g>
   <g>
    <path stroke-width="0.13" d="M37.101 33.609C37.015 32.534 36.219 31.658 35.277 31.565"/>
    <path stroke-width="0.3" d="M33.472 33.033C33.399 33.42 33.43 33.814 33.543 34.167C33.801 34.988 34.454 35.558 35.176 35.673"/>
   </g>
   <g>
    <path stroke-width="0.13" d="M35.128 39.505C35.383 39.398 35.49 39.072 35.365 38.776C35.243 38.481 34.935 38.328 34.679 38.435C34.543 38.493 34.45 38.61 34.409 38.753"/>
    <path stroke-width="0.13" d="M34.616 39.408C34.773 39.54 34.966 39.57 35.128 39.505"/>
   </g>
   <g>
    <path stroke-width="0.13" d="M35.204 39.871C35.634 39.726 35.848 39.207 35.682 38.71C35.517 38.213 35.033 37.926 34.603 38.07C34.171 38.213 33.957 38.734 34.124 39.231C34.289 39.728 34.773 40.014 35.204 39.871"/>
   </g>
   <g>
    <path stroke-width="0.13" d="M30.097 36.134C30.399 36.06 30.576 35.719 30.492 35.368C30.408 35.02 30.096 34.795 29.792 34.868C29.635 34.905 29.512 35.015 29.442 35.162"/>
    <path stroke-width="0.13" d="M29.66 36.037C29.798 36.139 29.954 36.167 30.097 36.134"/>
   </g>
   <line stroke-width="0.3" x1="24.786" y1="41.712" x2="29.684" y2="41.968"/>
   <line stroke-width="0.3" x1="29.684" y1="41.968" x2="32.341" y2="41.676"/>
   <line stroke-width="0.13" x1="32.341" y1="41.676" x2="32.374" y2="39.895"/>
   <line stroke-width="0.13" x1="32.005" y1="39.508" x2="29.442" y2="39.384"/>
   <path stroke-width="0.13" d="M29.442 39.384C28.71 39.365 28.568 39.201 28.545 38.929"/>
   <path stroke-width="0.13" d="M26.402 39.482C26.301 40.143 26.594 40.164 27.01 40.234C27.425 40.304 29.306 40.506 29.306 40.506"/>
   <line stroke-width="0.13" x1="29.731" y1="41.82" x2="29.722" y2="40.747"/>
   <line stroke-width="0.13" x1="29.987" y1="40.476" x2="32.152" y2="39.75"/>
   <line stroke-width="0.13" x1="34.905" y1="41.996" x2="34.89" y2="40.337"/>
   <line stroke-width="0.3" x1="36.326" y1="39.909" x2="36.296" y2="36.567"/>
   <line stroke-width="0.13" x1="36.326" y1="39.909" x2="39.67" y2="40.124"/>
   <line stroke-width="0.13" x1="37.107" y1="33.704" x2="37.159" y2="39.682"/>
   <line stroke-width="0.13" x1="39.667" y1="39.807" x2="39.61" y2="33.366"/>
   <path stroke-width="0.3" d="M36.296 36.567C36.195 36.031 35.847 35.801 34.981 35.633"/>
   <path stroke-width="0.3" d="M33.472 33.033C33.639 32.526 33.185 32.325 32.381 32.356C31.576 32.387 24.885 31.69 24.885 31.666C24.885 31.641 24.803 30.519 24.803 30.519"/>
   <line stroke-width="0.13" x1="35.277" y1="31.565" x2="25.047" y2="30.664"/>
   <line stroke-width="0.13" x1="24.803" y1="30.519" x2="25.896" y2="29.998"/>
   <line stroke-width="0.13" x1="25.896" y1="29.998" x2="36.466" y2="30.905"/>
   <line stroke-width="0.13" x1="24.157" y1="29.184" x2="39.219" y2="30.443"/>
   <path stroke-width="0.13" d="M36.466 30.905C37.444 30.946 37.591 31.237 37.838 31.528C38.085 31.818 38.061 31.867 38.28 31.914C38.5 31.961 39.136 32.005 39.136 32.005C39.136 32.005 39.6 32.026 39.61 33.366"/>
   <path stroke-width="0.13" d="M22.774 30.123C23.483 30.263 24.557 30.376 24.803 30.519"/>
   <path stroke-width="0.13" d="M22.643 28.673C22.937 29.17 23.865 29.16 24.157 29.184"/>
   <path stroke-width="0.13" d="M24.053 28.478C24.033 28.989 24.937 29.128 25.791 29.144"/>
   <line stroke-width="0.13" x1="23.393" y1="28.312" x2="24.053" y2="28.33"/>
   <line stroke-width="0.13" x1="25.888" y1="29.329" x2="25.873" y2="27.486"/>
   <line stroke-width="0.13" x1="25.873" y1="27.486" x2="38.03" y2="28.356"/>
   <line stroke-width="0.13" x1="38.228" y1="28.573" x2="38.243" y2="30.361"/>
   <path stroke-width="0.13" d="M25.876 27.803C25.876 27.803 35.716 28.643 36.57 28.684C37.423 28.727 37.692 28.699 38.033 28.599"/>
   <path stroke-width="0.13" d="M39.219 30.443C41.046 30.582 42.438 30.495 43.47 30.393C44.503 30.289 50.942 29.179 51.374 29.045C51.804 28.91 52.387 28.792 52.347 28.528"/>
   <path stroke-width="0.13" d="M39.554 31.949C40.759 32.051 42.713 31.865 43.332 31.746C43.951 31.629 51.142 30.437 51.142 30.437"/>
   <path stroke-width="0.3" d="M52.195 28.454L52.347 28.528L52.432 29.693C52.432 29.693 52.267 30.053 52.06 30.242C51.856 30.431 51.292 30.475 51.292 30.475C51.292 30.475 51.317 31.132 51.281 31.376C51.246 31.621 50.759 32.404 50.572 32.593"/>
   <line stroke-width="0.13" x1="42.996" y1="29.963" x2="42.838" y2="11.878"/>
   <line stroke-width="0.13" x1="43.545" y1="28.117" x2="51.582" y2="26.993"/>
   <line stroke-width="0.13" x1="51.582" y1="26.993" x2="51.597" y2="28.76"/>
   <line stroke-width="0.13" x1="51.63" y1="28.675" x2="52.203" y2="28.632"/>
   <line stroke-width="0.3" x1="52.203" y1="28.632" x2="52.176" y2="18.044"/>
   <path stroke-width="0.13" d="M43.682 28.28C44.28 28.501 45.49 28.35 45.78 28.294C46.073 28.237 50.835 27.515 51.137 27.393C51.439 27.271 51.506 27.004 51.506 27.004"/>
   <line stroke-width="0.13" x1="43.533" y1="28.411" x2="43.546" y2="29.957"/>
   <path stroke-width="0.13" d="M41.484 30.321C42.045 30.283 42.262 30.315 42.564 30.214C42.866 30.114 42.996 29.963 42.996 29.963C42.996 29.963 43.472 30.109 43.905 30.094C44.337 30.08 44.39 30.112 44.39 30.112"/>
   <line stroke-width="0.13" x1="51.527" y1="26.576" x2="51.542" y2="18.644"/>
   <line stroke-width="0.13" x1="51.673" y1="11.627" x2="51.661" y2="10.391"/>
   <line stroke-width="0.3" x1="46.88" y1="17.835" x2="51.39" y2="18.157"/>
   <line stroke-width="0.3" x1="51.39" y1="18.157" x2="54.277" y2="17.769"/>
   <line stroke-width="0.3" x1="54.277" y1="17.769" x2="54.24" y2="13.348"/>
   <path stroke-width="0.3" d="M54.24 13.348C54.195 12.599 54.003 12.189 53.566 12.117C53.127 12.045 49.935 11.811 49.935 11.811"/>
   <path stroke-width="0.13" d="M49.935 11.811C49.058 11.743 47.021 11.899 46.857 13.276C46.695 14.653 46.88 17.835 46.88 17.835"/>
   <path stroke-width="0.13" d="M49.935 11.811C49.868 11.362 49.567 11.201 49.179 11.23C48.792 11.257 46.893 11.699 46.707 11.714C46.518 11.728 46.024 12.346 46.091 12.932C46.159 13.521 46.203 17.123 46.219 17.486C46.234 17.847 46.426 18.359 46.814 18.356C47.201 18.353 48.59 17.957 48.59 17.957"/>
   <path stroke-width="0.13" d="M46.478 11.365C45.868 11.609 45.357 12 45.402 12.827C45.448 13.651 45.414 16.917 45.466 17.192"/>
   <path stroke-width="0.13" d="M45.466 17.192C45.485 18.004 45.64 18.454 46.814 18.356"/>
   <path stroke-width="0.3" d="M53.948 13.015C53.783 12.691 53.768 12.477 53.418 12.48C53.067 12.484 52.569 12.564 52.243 12.628C51.918 12.695 51.534 13.111 51.491 13.874C51.448 14.637 51.537 17.643 51.537 17.643"/>
   <path stroke-width="0.13" d="M53.665 12.205C53.595 12.185 53.514 12.173 53.415 12.173C53.048 12.178 52.524 12.259 52.182 12.327C51.959 12.374 51.704 12.528 51.509 12.817C51.341 13.06 51.21 13.407 51.185 13.856C51.155 14.369 51.186 16.013 51.21 17.053L51.232 17.934"/>
   <line stroke-width="0.13" x1="53.948" y1="13.015" x2="53.984" y2="17.434"/>
   <line stroke-width="0.13" x1="53.984" y1="17.434" x2="51.923" y2="17.745"/>
   <line stroke-width="0.13" x1="49.988" y1="13.737" x2="50.723" y2="13.755"/>
   <line stroke-width="0.13" x1="50.723" y1="13.755" x2="50.773" y2="15.375"/>
   <line stroke-width="0.13" x1="49.067" y1="13.734" x2="48.731" y2="13.865"/>
   <line stroke-width="0.13" x1="48.731" y1="13.865" x2="48.741" y2="15.042"/>
   <line stroke-width="0.13" x1="48.741" y1="15.042" x2="49.045" y2="15.041"/>
   <line stroke-width="0.13" x1="47.969" y1="16.344" x2="47.976" y2="17.219"/>
   <line stroke-width="0.13" x1="47.976" y1="17.219" x2="48.84" y2="17.257"/>
   <path stroke-width="0.13" d="M52.243 12.628C52.591 12.769 52.673 12.839 52.677 13.294C52.682 13.749 52.686 16.957 52.686 16.957"/>
   <line stroke-width="0.13" x1="52.654" y1="17.306" x2="53.892" y2="17.388"/>
   <g>
    <path stroke-width="0.13" d="M51.707 37.253C51.82 37.259 51.929 37.183 52.011 37.057"/>
    <path stroke-width="0.13" d="M52.134 36.246C52.078 35.985 51.939 35.826 51.781 35.817C51.552 35.804 51.35 36.116 51.329 36.512C51.308 36.909 51.478 37.24 51.707 37.253"/>
   </g>
   <g>
    <path stroke-width="0.3" d="M51.426 37.847C51.847 37.871 52.223 37.299 52.265 36.57C52.307 35.84 52 35.228 51.579 35.204"/>
    <path stroke-width="0.13" d="M51.579 35.204C51.345 35.191 51.125 35.36 50.969 35.64"/>
    <path stroke-width="0.13" d="M50.737 36.658C50.75 37.323 51.048 37.823 51.426 37.847"/>
   </g>
   <g>
    <path stroke-width="0.13" d="M47.197 34.924C47.195 34.924 47.194 34.924 47.192 34.924C46.771 34.901 46.395 35.472 46.353 36.203C46.31 36.932 46.618 37.543 47.039 37.567"/>
   </g>
   <line stroke-width="0.3" x1="47.039" y1="37.567" x2="51.426" y2="37.847"/>
   <line stroke-width="0.3" x1="47.192" y1="34.924" x2="51.579" y2="35.204"/>
   <g>
    <path stroke-width="0.13" d="M44.826 34.75C44.82 34.749 44.816 34.749 44.811 34.749C44.39 34.723 44.015 35.295 43.972 36.026C43.93 36.756 44.237 37.366 44.659 37.392"/>
   </g>
   <line stroke-width="0.3" x1="44.659" y1="37.392" x2="45.92" y2="37.484"/>
   <line stroke-width="0.3" x1="44.811" y1="34.749" x2="46.173" y2="34.85"/>
   <g>
    <path stroke-width="0.13" d="M44.536 38.28C44.957 38.319 45.365 37.996 45.649 37.465"/>
    <path stroke-width="0.13" d="M45.874 34.826C45.676 34.232 45.323 33.896 44.936 33.859C44.231 33.795 43.57 34.734 43.46 35.954C43.348 37.174 43.831 38.216 44.536 38.28"/>
   </g>
   <line stroke-width="0.3" x1="44.475" y1="38.84" x2="45.938" y2="37.527"/>
   <g>
    <polyline stroke-width="0.3" points="46.088 34.753 44.777 33.29"/>
    <polyline stroke-width="0.13" points="44.777 33.29 43.314 34.603 43.162 37.377 44.475 38.84"/>
   </g>
   <polyline stroke-width="0.13" points="43.274 33.226 41.811 34.539 41.661 37.314 42.972 38.777"/>
   <line stroke-width="0.3" x1="43.274" y1="33.226" x2="44.777" y2="33.29"/>
   <line stroke-width="0.13" x1="41.811" y1="34.539" x2="43.314" y2="34.603"/>
   <line stroke-width="0.13" x1="41.661" y1="37.314" x2="43.162" y2="37.377"/>
   <line stroke-width="0.3" x1="42.972" y1="38.777" x2="44.475" y2="38.84"/>
   <g>
    <path stroke-width="0.3" d="M46.628 38.109C46.926 38.139 47.219 37.957 47.45 37.637"/>
    <path stroke-width="0.13" d="M47.45 37.637C47.46 37.622 47.47 37.609 47.479 37.595"/>
    <path stroke-width="0.3" d="M47.709 34.957C47.356 34.204 46.679 34.149 46.189 34.828"/>
    <path stroke-width="0.13" d="M46.189 34.828C45.692 35.517 45.57 36.704 45.917 37.481"/>
    <path stroke-width="0.3" d="M45.917 37.481C46.091 37.868 46.35 38.081 46.628 38.109"/>
   </g>
   <g>
    <path stroke-width="0.13" d="M56.725 35.902C56.832 35.908 56.935 35.838 57.012 35.719"/>
    <path stroke-width="0.13" d="M57.128 34.954C57.076 34.707 56.944 34.557 56.795 34.548C56.579 34.536 56.389 34.831 56.368 35.204C56.35 35.579 56.509 35.89 56.725 35.902"/>
   </g>
   <g>
    <path stroke-width="0.3" d="M56.46 36.463C56.859 36.485 57.213 35.947 57.253 35.258C57.292 34.57 57.002 33.993 56.604 33.969"/>
    <path stroke-width="0.13" d="M56.604 33.969C56.384 33.957 56.177 34.116 56.029 34.381"/>
    <path stroke-width="0.13" d="M55.81 35.341C55.822 35.969 56.103 36.441 56.46 36.463"/>
   </g>
   <g>
    <path stroke-width="0.13" d="M52.47 33.707C52.469 33.707 52.466 33.707 52.466 33.706C52.069 33.683 51.713 34.222 51.674 34.911C51.667 35.021 51.67 35.128 51.679 35.222"/>
    <path stroke-width="0.13" d="M52.308 36.198C52.314 36.198 52.319 36.2 52.323 36.2"/>
   </g>
   <line stroke-width="0.3" x1="52.323" y1="36.2" x2="56.46" y2="36.463"/>
   <line stroke-width="0.3" x1="52.466" y1="33.707" x2="56.604" y2="33.969"/>
   <g>
    <path stroke-width="0.13" d="M50.234 33.54C50.228 33.54 50.225 33.539 50.22 33.539C49.823 33.517 49.469 34.057 49.429 34.744C49.423 34.859 49.424 34.97 49.435 35.067"/>
   </g>
   <line stroke-width="0.3" x1="50.22" y1="33.539" x2="51.506" y2="33.634"/>
   <g>
    <path stroke-width="0.13" d="M51.222 33.613C51.036 33.054 50.704 32.737 50.338 32.701C49.673 32.64 49.048 33.526 48.945 34.677C48.933 34.804 48.929 34.927 48.93 35.036"/>
   </g>
   <g>
    <polyline stroke-width="0.3" points="51.426 33.545 50.188 32.164"/>
    <polyline stroke-width="0.13" points="50.188 32.164 48.807 33.402 48.719 35.021"/>
   </g>
   <polyline stroke-width="0.13" points="48.771 32.104 47.39 33.341 47.329 34.476"/>
   <line stroke-width="0.3" x1="48.771" y1="32.104" x2="50.188" y2="32.164"/>
   <line stroke-width="0.13" x1="47.39" y1="33.341" x2="48.807" y2="33.402"/>
   <g>
    <path stroke-width="0.3" d="M52.259 36.655C52.429 36.581 52.584 36.442 52.71 36.265"/>
    <path stroke-width="0.13" d="M52.71 36.265C52.719 36.252 52.728 36.237 52.737 36.225"/>
    <path stroke-width="0.3" d="M52.954 33.737C52.621 33.027 51.984 32.973 51.521 33.615"/>
    <path stroke-width="0.13" d="M51.521 33.615C51.228 34.018 51.073 34.603 51.078 35.173"/>
   </g>
   <line stroke-width="0.3" x1="50.212" y1="37.77" x2="50.223" y2="39.11"/>
   <line stroke-width="0.3" x1="50.223" y1="39.11" x2="47.847" y2="39.515"/>
   <line stroke-width="0.3" x1="47.847" y1="39.515" x2="40.957" y2="40.668"/>
   <path stroke-width="0.3" d="M48.417 39.418C48.429 40.219 48.546 41.755 48.152 42.143C47.756 42.53 47.371 42.548 47.371 42.548"/>
   <path stroke-width="0.3" d="M48.304 40.929C47.774 41.362 46.212 41.658 43.789 41.826C41.368 41.994 35.401 42.009 34.905 41.996C34.409 41.981 32.371 41.588 32.341 41.676"/>
   <path stroke-width="0.13" d="M35 40.247C36.347 40.621 40.192 40.957 40.957 40.668"/>
   <g>
    <path stroke-width="0.13" d="M21.699 34.185C20.85 34.131 20.085 35.279 19.992 36.749C19.925 37.774 20.204 38.685 20.673 39.168"/>
   </g>
   <g>
    <path stroke-width="0.13" d="M19.83 34.956C19.548 34.941 19.283 35.124 19.082 35.433"/>
    <path stroke-width="0.13" d="M18.812 36.052C18.757 36.258 18.725 36.469 18.714 36.664C18.664 37.606 19.047 38.398 19.582 38.478"/>
   </g>
   <line stroke-width="0.3" x1="21.699" y1="34.185" x2="23.515" y2="34.353"/>
   <path stroke-width="0.3" d="M21.748 34.189C21.326 34.134 21.056 34.35 20.545 34.655C20.035 34.959 19.83 34.956 19.83 34.956L18.309 34.847C18.309 34.847 16.891 34.865 16.833 36.174C16.775 37.484 17.301 38.292 17.85 38.362C18.399 38.433 19.309 38.442 19.408 38.481C19.507 38.521 19.644 38.515 19.644 38.515C19.644 38.515 20.428 39.003 20.608 39.174"/>
   <path stroke-width="0.3" d="M20.608 39.174C20.922 39.484 21.28 39.521 21.407 39.542C21.533 39.564 22.384 39.652 22.384 39.652"/>
   <g>
    <path stroke-width="0.13" d="M23.623 34.38C22.786 34.326 22.033 35.439 21.92 36.88"/>
    <path stroke-width="0.13" d="M21.94 37.79C22.007 38.31 22.16 38.747 22.364 39.066"/>
   </g>
   <line stroke-width="0.13" x1="21.92" y1="36.88" x2="23.556" y2="36.973"/>
   <line stroke-width="0.13" x1="21.94" y1="37.79" x2="22.736" y2="37.841"/>
   <path stroke-width="0.13" d="M23.242 35.07C22.899 35.384 22.55 36.286 22.496 36.851"/>
   <path stroke-width="0.3" d="M27.705 41.865C27.705 41.865 27.939 60.362 27.896 61.284C27.855 62.209 28.185 63.512 29.343 64.206C30.5 64.9 30.705 64.903 30.705 64.903"/>
   <line stroke-width="0.3" x1="30.705" y1="64.903" x2="30.778" y2="68.222"/>
   <line stroke-width="0.3" x1="30.778" y1="68.222" x2="37.271" y2="69.305"/>
   <line stroke-width="0.3" x1="37.271" y1="69.305" x2="44.124" y2="68.305"/>
   <line stroke-width="0.3" x1="44.124" y1="68.305" x2="44.359" y2="64.953"/>
   <line stroke-width="0.13" x1="37.412" y1="68.793" x2="37.468" y2="66.364"/>
   <line stroke-width="0.13" x1="37.566" y1="43.567" x2="37.722" y2="64.852"/>
   <line stroke-width="0.13" x1="36.468" y1="43.575" x2="36.624" y2="64.861"/>
   <path stroke-width="0.13" d="M36.624 64.861C36.758 65.468 37.728 65.629 37.722 64.852"/>
   <path stroke-width="0.3" d="M30.705 64.903C33.914 65.819 41.713 66.093 44.359 64.953"/>
   <path stroke-width="0.3" d="M44.359 64.953C45.765 64.451 46.564 63.158 46.573 61.996C46.585 60.832 46.799 59.637 46.799 59.637L47.048 58.715L47.371 42.548"/>
   <path stroke-width="0.13" d="M28.405 42.161C30.109 42.963 34.825 43.792 36.231 43.426"/>
   <path stroke-width="0.13" d="M37.838 43.509C40.438 43.668 45.625 42.698 45.923 42.451"/>
   <path stroke-width="0.13" d="M45.2 43.027C45.2 43.027 45.173 46.106 45.067 46.412C44.963 46.719 44.747 47.779 44.713 47.915C44.676 48.051 44.945 63.042 44.881 63.896"/>
   <line stroke-width="0.13" x1="46.156" y1="43.206" x2="46.191" y2="58.844"/>
   <line stroke-width="0.13" x1="29.222" y1="42.648" x2="29.193" y2="46.171"/>
   <line stroke-width="0.13" x1="29.193" y1="46.171" x2="29.795" y2="47.649"/>
   <line stroke-width="0.13" x1="29.795" y1="47.649" x2="29.998" y2="63.631"/>
   <path stroke-width="0.13" d="M29.795 47.649C30.713 48.039 33.462 48.533 36.503 48.676"/>
   <path stroke-width="0.13" d="M37.603 48.713C40.22 48.756 42.918 48.509 44.762 47.692"/>
   <path stroke-width="0.13" d="M29.193 46.171C30.193 46.597 33.179 47.133 36.493 47.287"/>
   <path stroke-width="0.13" d="M37.593 47.325C40.279 47.377 43.055 47.152 45.079 46.404"/>
   <g>
    <path stroke-width="0.3" stroke-linejoin="round" d="M28.274 36.777C29.192 36.441 29.62 35.31 29.231 34.25C28.844 33.192 27.785 32.606 26.867 32.942"/>
   </g>
   <line stroke-width="0.3" stroke-linejoin="round" x1="28.274" y1="36.777" x2="27.789" y2="36.954"/>
   <line stroke-width="0.3" stroke-linejoin="round" x1="26.867" y1="32.942" x2="26.384" y2="33.119"/>
  </g>
 </g>
 <g id="Symbols">
  <g>
   <g>
    <g>
     <path stroke="#FFFFFF" stroke-width="1.058" stroke-linejoin="round" id="AUTOID_23708" d="M19.899 30.225L21.955 28.167L24.766 33.036L19.899 30.225L24.766 33.036L21.955 28.167L19.899 30.225z"/>
    </g>
   </g>
   <line stroke="#FFFFFF" stroke-width="1.411" stroke-linejoin="round" x1="21.615" y1="29.911" x2="14.65" y2="22.946"/>
   <path stroke="none" fill="#000000" id="AUTOID_23704" d="M19.899 30.225L24.766 33.036 21.955 28.167 19.899 30.225 19.899 30.225z"/>
   <line stroke-width="0.5" stroke-linejoin="round" x1="21.615" y1="29.911" x2="14.65" y2="22.946"/>
  </g>
 </g>
 <g id="Picture_x0020_#">
  <text transform="matrix(0 -1 1 0 73.817 73.989)" stroke="none" fill="#000000" font-family="'Arial'" font-size="2.117">412 592</text>
 </g>
</svg>
