<?xml version="1.0" encoding="utf-8"?>
<!DOCTYPE svg PUBLIC "-//W3C//DTD SVG 1.1//EN" "http://www.w3.org/Graphics/SVG/1.1/DTD/svg11.dtd">
<!-- Generator: Arbortext IsoDraw 7.3 -->
<svg width="100%" height="100%" viewBox="0 0 75.933 115.492"
 xmlns="http://www.w3.org/2000/svg" xmlns:xlink="http://www.w3.org/1999/xlink"
 fill-rule="evenodd" clip-rule="evenodd" stroke="#000000" stroke-linecap="round" fill="none" xml:space="preserve">
 <g id="A4_x0020_half_x0020_frame">
  <path stroke="#FFFFFF" stroke-width="0.006" id="AUTOID_58603" d="M75.003 115.489L75.003 0.003L0.003 0.003L0.003 115.489L75.003 115.489z"/>
 </g>
 <g id="Colour">
  <path stroke="none" fill="#B2B2B2" d="M66.659 64.108C66.659 64.108 66.356 63.351 64.281 63.07 64.281 63.07 64.281 63.07 63.935 62.811 63.935 62.811 63.935 62.811 63.307 62.789 63.307 62.789 63.134 62.465 62.421 62.444 61.707 62.421 59.847 62.399 53.015 63.59 53.015 63.59 53.015 63.59 47.024 65.319 47.024 65.319 47.024 65.319 43.543 66.509 43.543 66.509 42.418 66.271 40.472 66.962 38.527 67.655 37.402 68.433 36.991 68.909 36.581 69.385 35.801 70.962 36.127 71.784 36.127 71.784 36.127 71.784 35.521 73.039 35.521 73.039 35.197 72.888 34.915 74.012 34.634 75.137 33.747 81.256 33.747 81.256 33.747 81.256 33.747 81.256 33.034 87.743 33.034 87.743 33.034 87.743 32.515 96.76 32.515 96.76 32.515 96.76 32.472 103.269 32.472 103.269 32.688 105.367 32.948 105.432 32.948 105.432 32.948 105.432 33.207 105.496 33.207 105.496 33.207 105.496 34.46 107.53 34.46 107.53 34.072 108.891 34.289 109.108 34.505 109.325 36.537 110.989 36.689 110.924 36.841 110.858 39.542 109.496 39.542 109.496 39.542 109.496 39.542 109.496 37.402 108.027 37.402 108.027 37.402 108.027 37.228 107.941 37.228 107.941 37.228 107.941 36.493 107.292 36.493 107.292 36.493 107.292 36.104 107.096 36.104 107.096 35.5 105.734 35.456 104.891 35.412 104.048 35.607 96.587 35.607 96.587 35.607 96.587 35.607 96.587 37.057 82.057 37.057 82.057 37.878 75.525 40.192 72.412 40.192 72.412 40.517 72.109 40.776 71.719 41.034 71.331 41.944 70.465 42.31 70.271 42.679 70.076 45.209 69.016 45.533 68.865 45.857 68.715 46.463 68.412 46.484 68.216 46.484 68.216 51.933 65.795 57.015 64.799 62.097 63.805 65.34 63.74 65.405 63.805 65.471 63.871 66.659 64.108 66.659 64.108z"/>
  <path stroke="none" fill="#B2B2B2" d="M54.787 60.978C54.787 60.978 54.618 60.201 52.587 59.883 52.587 59.883 52.587 59.883 52.112 59.744 52.112 59.744 52.112 59.744 51.496 59.712 51.496 59.712 51.332 59.386 50.634 59.35 49.933 59.317 48.109 59.259 41.384 60.316 41.384 60.316 41.384 60.316 35.476 61.926 35.476 61.926 35.476 61.926 32.039 63.045 32.039 63.045 30.925 62.737 29.004 63.389 27.082 64.042 25.843 64.748 25.431 65.213 25.018 65.68 24.251 66.784 24.635 67.912 24.635 67.912 24.635 67.912 24.03 68.995 24.03 68.995 23.704 68.862 23.493 69.996 23.285 71.131 22.782 74.239 22.657 77.736 22.597 79.393 22.282 84.26 22.282 84.26 22.282 84.26 22.282 84.26 22.489 93.299 22.489 93.299 22.489 93.299 22.618 96.512 22.618 96.512 22.952 98.584 23.21 98.632 23.21 98.632 23.21 98.632 23.469 98.683 23.469 98.683 23.469 98.683 24.78 101.18 24.78 101.18 24.477 102.555 24.701 102.759 24.925 102.96 27.102 104.188 27.245 104.114 27.39 104.042 29.704 102.751 29.704 102.751 29.704 102.751 29.704 102.751 27.522 101.412 27.522 101.412 27.522 101.412 27.347 101.335 27.347 101.335 27.347 101.335 26.589 100.733 26.589 100.733 26.589 100.733 26.184 100.212 26.184 100.212 25.775 98.956 25.684 98.12 25.594 97.286 25.507 92.95 25.507 92.95 25.507 92.95 25.507 92.95 25.498 86.695 25.498 86.695 25.498 86.695 25.934 78.454 25.934 78.454 26.189 71.709 28.516 68.653 28.516 68.653 28.875 68.262 29.137 67.879 29.397 67.496 30.62 66.507 30.984 66.32 31.347 66.134 33.604 65.358 33.926 65.215 34.246 65.069 34.853 64.766 34.878 64.572 34.878 64.572 40.271 62.414 45.276 61.52 50.279 60.625 53.564 60.524 53.627 60.591 53.689 60.656 54.787 60.978 54.787 60.978z"/>
  <path stroke="none" fill="#B2B2B2" d="M19.277 95.918C19.277 95.918 19.277 95.918 17.08 97.001 17.08 97.001 15.221 96.164 15.058 95.724 14.894 95.286 15.099 94.816 15.099 94.816 15.099 94.816 13.935 93.59 13.609 92.016 13.609 92.016 13.609 92.016 13.282 91.996 13.282 91.996 13.026 91.662 12.852 90.894 12.679 90.129 12.496 87.585 12.423 85.828 12.352 84.072 12.169 80.558 12.169 80.558 12.169 80.558 12.169 80.558 11.923 75.564 11.923 75.564 11.882 72.53 11.974 71.111 12.067 69.691 12.311 65.992 12.311 65.992 12.311 65.992 12.577 64.174 13.087 64.224 13.087 64.224 13.087 64.224 14.518 61.466 14.518 61.466 14.855 60.384 15.385 60.588 15.385 60.588 15.385 60.588 15.917 60.792 15.917 60.792 15.917 60.792 16.326 60.598 16.326 60.598 16.202 59.862 16.539 59.689 16.876 59.515 16.948 59.484 17.51 59.465 18.071 59.444 19.705 59.332 19.705 59.332 19.705 59.332 19.705 59.332 19.849 59.137 19.849 59.137 22.37 58.484 23.33 58.207 24.291 57.932 27.579 57.197 29.981 56.808 32.381 56.42 36.485 55.89 38.896 56.246 38.896 56.246 38.896 56.246 39.5 56.512 39.5 56.512 39.5 56.512 39.805 56.481 39.805 56.481 39.805 56.481 40.786 56.726 40.786 56.726 40.786 56.726 40.715 57.228 40.715 57.228 40.715 57.228 39.52 57.197 39.52 57.197 39.52 57.197 39.203 57.075 39.203 57.075 39.203 57.075 38.426 57.167 38.426 57.167 38.426 57.167 38.386 57.258 38.386 57.258 38.386 57.258 31.981 57.942 31.981 57.942 27.631 58.832 26.385 59.198 25.138 59.567 23.914 59.668 20.49 61.088 20.49 61.088 19.111 61.865 17.948 61.722 17.948 61.722 17.948 61.722 17.775 61.936 17.775 61.936 15.538 64.868 15.284 65.716 15.028 66.564 14.926 67.29 14.823 68.341 14.721 69.394 14.303 75.737 14.303 75.737 14.303 75.737 14.303 75.737 14.343 81.733 14.343 81.733 14.343 81.733 14.711 88.341 14.711 88.341 14.955 92.365 15.353 92.876 15.487 93.046 15.884 93.537 16.468 93.989 17.629 94.891 19.277 95.918 19.277 95.918z"/>
 </g>
 <g id="Standard_x0020_layer">
  <path stroke-width="0.25" stroke-linejoin="round" stroke-miterlimit="10" d="M45.795 114.766C46.133 112.611 47.134 106.512 48.258 102.543C49.642 97.653 54.026 90.593 57.716 87.18C57.716 87.18 64.405 81.459 65.096 81.736"/>
  <path stroke-width="0.25" stroke-linejoin="round" stroke-miterlimit="10" d="M73.757 87.956C66.79 90.308 61.22 94.746 57.253 99.683C54.036 103.688 51.939 111.034 51.017 114.772"/>
  <path stroke-width="0.2" stroke-linejoin="round" stroke-miterlimit="10" d="M73.778 85.492C73.778 85.492 67.911 83.212 67.266 82.983C66.62 82.751 64.219 81.275 64.59 80.816C64.959 80.353 72.575 76.474 73.406 76.566"/>
  <path stroke-width="0.13" stroke-linejoin="round" stroke-miterlimit="10" d="M64.313 82.061C64.313 82.061 63.158 82.891 65.143 83.629C67.126 84.367 73.733 87.015 73.733 87.015"/>
  <path stroke-width="0.2" stroke-linejoin="round" stroke-miterlimit="10" d="M53.149 92.486C53.149 92.486 53.655 91.84 53.286 89.671C52.917 87.504 53.932 86.534 55.639 86.397C55.639 86.397 62.006 83.168 62.375 83.352"/>
  <path stroke-width="0.13" stroke-linejoin="round" stroke-miterlimit="10" d="M53.703 87.272C53.703 87.272 54.579 86.628 55.316 86.903C56.054 87.18 56.84 87.781 57.345 87.596"/>
  <path stroke-width="0.25" stroke-linejoin="round" stroke-miterlimit="10" d="M46.366 112.001C46.366 112.001 44.521 112.968 41.523 110.754C41.523 110.754 41.061 110.709 40.045 109.831C39.414 109.286 38.192 108.543 37.359 108.061"/>
  <path stroke-width="0.35" stroke-linejoin="round" stroke-miterlimit="10" d="M39.439 109.507C39.35 109.522 36.771 110.885 36.625 110.87C36.481 110.858 34.408 109.581 34.292 109.087C34.174 108.593 34.408 107.971 34.393 107.391"/>
  <path stroke-width="0.35" stroke-linejoin="round" stroke-miterlimit="10" d="M36.712 110.406C36.728 110.335 36.822 108.784 37.453 108.551C38.393 108.204 38.509 109.203 38.509 109.203"/>
  <path stroke-width="0.35" stroke-linejoin="round" stroke-miterlimit="10" d="M36.814 109.539C36.74 109.48 35.06 108.378 35.06 108.378C35.06 108.378 34.509 107.638 34.118 106.986C33.725 106.334 33.247 105.509 33.247 105.509C33.247 105.509 33.247 105.509 32.945 105.45C32.945 105.45 32.656 105.35 32.479 103.647C32.301 101.941 32.53 96.852 32.506 96.293C32.479 95.733 33.039 87.54 33.039 87.54C33.039 87.54 33.039 87.54 34.082 78.506C34.082 78.506 34.845 72.933 35.508 73.037C35.508 73.037 35.508 73.037 36.195 71.789C36.195 71.789 35.838 71.611 36.093 70.721C36.347 69.829 36.679 69.194 37.06 68.787C37.442 68.379 39.298 67.311 40.418 66.929C41.537 66.548 42.582 66.268 43.726 66.597C44.871 66.929 46.398 67.59 46.448 68.049C46.5 68.506 45.813 68.736 45.533 68.862C45.253 68.99 43.293 69.703 42.582 70.109C41.868 70.516 40.85 71.56 40.698 71.789C40.545 72.019 39.731 73.316 38.228 72.884C36.728 72.45 36.295 71.865 36.295 71.865"/>
  <path stroke-width="0.3" stroke-linejoin="round" stroke-miterlimit="10" d="M64.132 62.935C64.132 62.935 64.641 63.06 65.177 62.374C65.71 61.688 66.117 61.026 67.263 61.255C68.408 61.484 69.756 61.865 69.756 61.865C69.756 61.865 70.061 61.917 69.884 62.451C69.706 62.984 69.4 64.894 69.4 64.894"/>
  <path stroke-width="0.3" stroke-linejoin="round" stroke-miterlimit="10" d="M43.676 66.471C43.676 66.471 51.283 63.951 53.088 63.57C54.896 63.189 61.716 62.094 62.53 62.475C62.53 62.475 63.167 62.475 63.344 62.807C63.344 62.807 63.929 62.704 64.132 62.935"/>
  <path stroke-width="0.13" stroke-linejoin="round" stroke-miterlimit="10" d="M67.746 63.901C67.746 63.901 69.069 64.283 69.094 64.409C69.12 64.537 69.146 64.817 69.146 64.817"/>
  <path stroke-width="0.3" stroke-linejoin="round" stroke-miterlimit="10" d="M69.655 62.069L68.076 63.646"/>
  <path stroke-width="0.13" stroke-linejoin="round" stroke-miterlimit="10" d="M65.405 63.215L66.575 62.069L68.942 62.603"/>
  <path stroke-width="0.13" stroke-linejoin="round" stroke-miterlimit="10" d="M66.602 62.298L66.474 63.85"/>
  <path stroke-width="0.3" stroke-linejoin="round" stroke-miterlimit="10" d="M66.983 61.204L68.179 60.823"/>
  <path stroke-width="0.13" stroke-linejoin="round" stroke-miterlimit="10" d="M68.281 60.796C68.281 60.796 68.281 60.796 70.697 61.356C70.697 61.356 70.697 61.356 70.468 63.088C70.468 63.088 69.986 63.926 69.935 65.021"/>
  <path stroke-width="0.13" stroke-linejoin="round" stroke-miterlimit="10" d="M64.311 63.011C64.311 63.011 65.099 63.189 65.582 63.341C66.066 63.494 66.602 63.825 66.677 64.231"/>
  <path stroke-width="0.25" stroke-linejoin="round" stroke-miterlimit="10" d="M65.379 63.825C65.379 63.825 65.379 63.825 69.631 64.995C69.631 64.995 70.444 64.92 70.799 65.581C70.799 65.581 70.799 65.581 72.759 66.141C72.759 66.141 74.031 66.471 73.7 68.685C73.37 70.899 72.251 76.852 72.251 76.852"/>
  <path stroke-width="0.13" stroke-linejoin="round" stroke-miterlimit="10" d="M73.216 66.471C73.14 66.471 68.281 67.284 64.004 68.862C59.731 70.441 51.868 73.85 51.64 73.977C51.409 74.103 46.905 75.478 45.634 81.534C44.362 87.59 43.905 90.746 43.573 93.036C43.243 95.325 42.149 104.868 42.53 108.2C42.911 111.534 44.618 112.17 46.194 112.094"/>
  <path stroke-width="0.35" stroke-linejoin="round" stroke-miterlimit="10" d="M37.645 108.43C37.645 108.43 36.679 107.438 36.27 107.183C35.862 106.93 35.557 105.757 35.481 105.019C35.405 104.283 35.531 97.896 35.634 96.573C35.737 95.251 36.78 83.341 37.365 80.236C37.95 77.132 38.814 74.512 40.139 72.578"/>
  <path stroke-width="0.3" stroke-linejoin="round" stroke-miterlimit="10" d="M46.473 68.227C46.473 68.227 51.106 66.039 56.143 64.995C61.18 63.951 65.608 63.545 65.635 63.902"/>
  <path stroke-width="0.13" stroke-linejoin="round" stroke-miterlimit="10" d="M70.697 61.356L69.756 61.865"/>
  <path stroke-width="0.13" stroke-linejoin="round" stroke-miterlimit="10" d="M37.237 68.76C37.237 68.76 36.78 69.474 37.491 69.498"/>
  <path stroke-width="0.13" stroke-linejoin="round" stroke-miterlimit="10" d="M25.69 65.129C25.69 65.129 25.233 65.84 25.945 65.867"/>
  <path stroke-width="0.13" stroke-linejoin="round" stroke-miterlimit="10" d="M38.561 69.983C38.561 69.983 39.069 70.161 39.984 69.855C40.902 69.551 42.351 68.685 42.759 68.125C42.759 68.125 42.759 66.929 40.52 66.929"/>
  <path stroke-width="0.13" stroke-linejoin="round" stroke-miterlimit="10" d="M40.494 71.281C40.494 71.281 41.31 69.957 42.427 69.423C43.548 68.888 45.176 68.201 45.506 68.075C45.838 67.947 46.167 67.54 45.659 67.412"/>
  <path stroke-width="0.13" stroke-linejoin="round" stroke-miterlimit="10" d="M38.469 70.652C38.35 71.138 37.96 71.46 37.594 71.373C37.228 71.286 37.027 70.819 37.143 70.332C37.261 69.846 37.652 69.522 38.018 69.611C38.384 69.698 38.585 70.165 38.469 70.652z"/>
  <path stroke-width="0.25" stroke-linejoin="round" stroke-miterlimit="10" d="M32.619 104.811C32.582 104.783 32.542 104.754 32.503 104.727C32.503 104.727 31.986 104.653 30.891 103.715C29.797 102.778 27.016 101.245 27.016 101.245"/>
  <path stroke-width="0.35" stroke-linejoin="round" stroke-miterlimit="10" d="M29.571 102.807C28.85 103.197 27.233 104.118 27.121 104.114C26.978 104.111 24.864 103.075 24.724 102.635C24.582 102.194 24.782 101.688 24.734 101.162"/>
  <path stroke-width="0.35" stroke-linejoin="round" stroke-miterlimit="10" d="M27.181 103.688C27.192 103.621 27.199 102.206 27.806 101.956C27.864 101.933 27.917 101.915 27.969 101.9"/>
  <path stroke-width="0.35" stroke-linejoin="round" stroke-miterlimit="10" d="M19.189 95.92C18.422 96.338 17.181 96.986 17.085 96.984C16.943 96.98 15.226 96.188 15.085 95.748C15.015 95.531 15.025 95.061 15.05 94.799"/>
  <path stroke-width="0.35" stroke-linejoin="round" stroke-miterlimit="10" d="M17.146 96.557C17.155 96.495 17.161 95.308 17.626 94.915"/>
  <path stroke-width="0.3" stroke-linejoin="round" stroke-miterlimit="10" d="M24.503 68.179C24.503 68.179 24.503 68.179 24.693 67.858C24.693 67.858 24.343 67.697 24.594 66.885C24.844 66.073 25.17 65.495 25.547 65.123C25.923 64.753 27.756 63.779 28.861 63.43C29.966 63.084 30.996 62.829 32.125 63.13C33.255 63.43 34.762 64.034 34.811 64.451C34.86 64.868 34.183 65.078 33.908 65.192C33.631 65.308 31.699 65.959 30.996 66.328C30.292 66.7 29.289 67.65 29.138 67.858C28.986 68.066 28.184 69.248 26.701 68.855C25.221 68.46 24.794 67.927 24.794 67.927"/>
  <path stroke-width="0.35" stroke-linejoin="round" stroke-miterlimit="10" d="M27.234 102.891C27.158 102.843 25.442 101.942 25.442 101.942C25.442 101.942 24.856 101.304 24.434 100.733C24.015 100.165 23.564 98.721 23.564 98.721C23.564 98.721 23.564 98.721 23.26 98.686C23.26 98.686 22.972 98.612 22.701 97.075C22.431 95.536 22.373 90.894 22.318 90.387C22.26 89.879 22.356 82.396 22.356 82.396C22.356 82.396 22.356 82.396 22.879 74.12C22.879 74.12 23.361 68.9 24.015 68.993C24.015 68.993 24.015 68.993 24.503 68.179"/>
  <path stroke-width="0.35" stroke-linejoin="round" stroke-miterlimit="10" d="M17.187 96.106C17.111 96.057 15.467 95.224 15.467 95.224C15.467 95.224 14.884 94.587 14.461 94.016C14.039 93.447 13.589 92.004 13.589 92.004C13.589 92.004 13.589 92.004 13.285 91.968C13.285 91.968 12.996 91.896 12.727 90.356C12.457 88.816 12.4 84.177 12.343 83.668C12.285 83.162 12.105 79.236 11.932 75.643C11.762 72.049 12.279 66.682 12.279 66.682C12.279 66.682 12.407 64.164 13.06 64.257C13.06 64.257 13.06 64.257 14.528 61.46C14.528 61.46 14.846 60.393 15.349 60.587C15.849 60.78 16.178 60.789 16.207 61.088C16.207 61.088 16.207 61.088 17.278 60.442"/>
  <path stroke-width="0.3" stroke-linejoin="round" stroke-miterlimit="10" d="M52.347 59.799C52.514 59.804 52.895 59.752 53.29 59.281C53.817 58.656 54.219 58.054 55.35 58.262C56.478 58.47 57.81 58.819 57.81 58.819C57.81 58.819 58.109 58.865 57.936 59.351C57.759 59.838 57.457 61.576 57.457 61.576"/>
  <path stroke-width="0.3" stroke-linejoin="round" stroke-miterlimit="10" d="M32.075 63.014C32.075 63.014 39.582 60.719 41.365 60.371C43.146 60.024 49.875 59.027 50.679 59.375C50.679 59.375 51.307 59.375 51.482 59.676C51.482 59.676 52.06 59.582 52.262 59.792C52.262 59.792 52.292 59.798 52.347 59.799"/>
  <path stroke-width="0.13" stroke-linejoin="round" stroke-miterlimit="10" d="M55.826 60.673C55.826 60.673 57.131 61.021 57.155 61.136C57.182 61.252 57.206 61.508 57.206 61.508"/>
  <path stroke-width="0.3" stroke-linejoin="round" stroke-miterlimit="10" d="M57.71 59.003L56.152 60.441"/>
  <path stroke-width="0.13" stroke-linejoin="round" stroke-miterlimit="10" d="M53.515 60.046L54.671 59.003L57.006 59.49"/>
  <path stroke-width="0.13" stroke-linejoin="round" stroke-miterlimit="10" d="M54.697 59.213L54.57 60.625"/>
  <path stroke-width="0.3" stroke-linejoin="round" stroke-miterlimit="10" d="M55.073 58.216L56.253 57.868"/>
  <path stroke-width="0.13" stroke-linejoin="round" stroke-miterlimit="10" d="M56.353 57.844C56.353 57.844 56.353 57.844 58.738 58.354C58.738 58.354 58.738 58.354 58.512 59.93C58.512 59.93 58.036 60.695 57.984 61.692"/>
  <path stroke-width="0.13" stroke-linejoin="round" stroke-miterlimit="10" d="M52.436 59.862C52.436 59.862 53.215 60.024 53.692 60.162C54.168 60.301 54.697 60.603 54.771 60.973"/>
  <path stroke-width="0.35" stroke-linejoin="round" stroke-miterlimit="10" d="M27.989 101.834C27.989 101.834 26.981 100.99 26.567 100.784C26.152 100.576 25.852 98.808 25.736 98.141C25.618 97.477 25.388 91.662 25.416 90.451C25.442 89.242 25.806 78.352 26.21 75.495C26.612 72.637 27.278 70.338 28.585 68.576"/>
  <path stroke-width="0.3" stroke-linejoin="round" stroke-miterlimit="10" d="M34.837 64.614C34.837 64.614 39.405 62.619 44.377 61.67C49.35 60.719 53.718 60.347 53.743 60.673"/>
  <path stroke-width="0.13" stroke-linejoin="round" stroke-miterlimit="10" d="M58.738 58.354L57.81 58.819"/>
  <path stroke-width="0.13" stroke-linejoin="round" stroke-miterlimit="10" d="M27.027 66.212C27.027 66.212 27.53 66.375 28.435 66.097C29.338 65.819 30.768 65.031 31.17 64.521C31.17 64.521 31.17 63.43 28.963 63.43"/>
  <path stroke-width="0.13" stroke-linejoin="round" stroke-miterlimit="10" d="M28.937 67.394C28.937 67.394 29.739 66.189 30.846 65.703C31.949 65.216 33.557 64.59 33.883 64.474C34.209 64.358 34.536 63.987 34.033 63.871"/>
  <path stroke-width="0.13" stroke-linejoin="round" stroke-miterlimit="10" d="M26.937 66.822C26.821 67.266 26.435 67.56 26.074 67.478C25.714 67.4 25.513 66.975 25.629 66.531C25.745 66.088 26.132 65.795 26.493 65.875C26.855 65.954 27.051 66.379 26.937 66.822z"/>
  <path stroke-width="0.13" stroke-linejoin="round" stroke-miterlimit="10" d="M17.49 60.935L16.998 61.185"/>
  <path stroke-width="0.25" stroke-linejoin="round" stroke-miterlimit="10" d="M16.131 93.771L23.019 98.498"/>
  <path stroke-width="0.13" stroke-linejoin="round" stroke-miterlimit="10" d="M17.217 61.329C17.16 61.317 16.858 61.177 16.589 61.749C16.321 62.319 15.066 65.237 15.066 65.237"/>
  <path stroke-width="0.13" stroke-linejoin="round" stroke-miterlimit="10" d="M17.295 61.606C17.449 61.713 17.464 61.951 17.332 62.14C17.199 62.328 16.969 62.393 16.818 62.286C16.664 62.179 16.647 61.939 16.78 61.75C16.914 61.564 17.143 61.497 17.295 61.606z"/>
  <path stroke-width="0.13" stroke-linejoin="round" stroke-miterlimit="10" d="M18.899 60.536C19.05 60.643 19.067 60.883 18.934 61.07C18.8 61.259 18.571 61.323 18.419 61.216C18.266 61.109 18.25 60.869 18.384 60.68C18.516 60.493 18.745 60.429 18.899 60.536z"/>
  <path stroke-width="0.35" stroke-linejoin="round" stroke-miterlimit="10" d="M15.926 60.863C15.843 60.853 15.542 60.749 15.24 61.329C14.936 61.911 14.006 63.273 14.646 63.587C14.646 63.587 14.855 63.505 15.101 63.051C15.345 62.597 15.868 61.725 15.798 61.597C15.798 61.597 16.138 60.7 16.777 61.079C16.777 61.079 17.588 61.31 17.557 61.774C17.557 61.774 17.557 61.774 17.606 61.667C17.606 61.667 17.606 61.667 17.887 61.813C17.887 61.813 17.51 62.246 16.69 63.423C15.869 64.6 15.272 65.537 15.108 66.337C14.943 67.138 14.788 68.335 14.74 69.337C14.692 70.341 14.384 74.308 14.307 75.465C14.23 76.623 14.317 80.859 14.346 82.066C14.374 83.272 14.615 87.614 14.73 88.57C14.846 89.525 14.962 92.141 15.359 92.805C15.753 93.472 16.42 94.099 16.661 94.195"/>
  <path stroke-width="0.3" stroke-linejoin="round" stroke-miterlimit="10" d="M16.111 60.713C16.111 60.713 16.111 60.713 16.321 60.585C16.321 60.585 16.1 59.561 17.053 59.493C18.007 59.423 19.718 59.319 19.718 59.319C19.718 59.319 19.718 59.319 19.881 59.155C19.881 59.155 24.01 57.887 27.44 57.237C30.871 56.585 33.256 56.305 34.686 56.247C36.118 56.189 38.908 56.247 38.908 56.247C38.908 56.247 38.908 56.247 39.502 56.49C39.502 56.49 39.502 56.49 39.862 56.503C39.862 56.503 39.862 56.503 40.673 56.697"/>
  <path stroke-width="0.3" stroke-linejoin="round" stroke-miterlimit="10" d="M38.328 57.27C38.328 57.27 33.512 57.619 31.315 58.085C29.115 58.549 25.777 59.143 22.021 60.481C22.021 60.481 22.021 60.481 19.39 61.503C19.39 61.503 18.46 61.957 17.611 61.539"/>
  <path stroke-width="0.13" stroke-linejoin="round" stroke-miterlimit="10" d="M18.216 61.445C18.216 61.399 17.89 60.213 19.158 60.213C20.426 60.213 21.858 60.061 21.858 60.061"/>
  <path stroke-width="0.13" stroke-linejoin="round" stroke-miterlimit="10" d="M17.077 60.515C17.077 60.481 17.204 59.863 17.774 59.795C18.344 59.725 18.437 59.701 18.437 59.701"/>
  <path stroke-width="0.3" stroke-linejoin="round" stroke-miterlimit="10" d="M17.623 61.143C17.484 60.969 17.589 60.667 17.589 60.667C17.589 60.631 17.716 60.015 18.286 59.945C18.856 59.875 18.951 59.853 18.951 59.853C18.951 59.853 18.951 59.853 20.265 59.817C20.265 59.817 20.265 59.817 19.821 59.607"/>
  <path stroke-width="0.13" stroke-linejoin="round" stroke-miterlimit="10" d="M19.234 66.923C19.225 66.819 19.364 64.903 20.379 63.981"/>
  <path stroke-width="0.13" stroke-linejoin="round" stroke-miterlimit="10" d="M20.742 64.772C20.713 64.754 20.407 63.945 20.407 63.945C20.407 63.945 20.407 63.945 20.277 62.856C20.277 62.856 20.722 62.046 20.751 62.027C20.777 62.009 20.91 62.009 20.91 62.009C20.91 62.009 20.91 62.009 22.109 61.2C22.109 61.2 22.109 61.2 22.184 61.06C22.184 61.06 22.184 61.06 23.376 60.64C23.376 60.64 23.376 60.64 23.495 60.725C23.495 60.725 23.495 60.725 24.855 60.631C24.855 60.631 24.948 60.585 24.977 60.585C25.004 60.585 25.719 60.874 25.748 60.874C25.777 60.874 26.147 61.786 26.147 61.786C26.147 61.786 26.147 61.786 26.054 61.926C26.054 61.926 26.054 61.926 26.381 62.743C26.381 62.743 26.381 62.743 25.943 63.508C25.943 63.508 25.943 63.508 25.692 63.545C25.692 63.545 24.51 64.42 24.51 64.456C24.51 64.493 24.521 64.68 24.521 64.68C24.521 64.68 24.521 64.68 23.141 65.126C23.141 65.126 23.141 65.126 23.03 65.024C23.03 65.024 23.03 65.024 21.719 65.043C21.719 65.043 21.719 65.043 21.393 65.108C21.393 65.108 21.393 65.108 20.742 64.772z"/>
  <path stroke-width="0.13" stroke-linejoin="round" stroke-miterlimit="10" d="M26.085 61.767C26.085 61.767 26.085 61.767 25.646 62.53C25.646 62.53 25.646 62.53 25.394 62.567C25.394 62.567 24.213 63.442 24.213 63.479C24.213 63.517 24.222 63.703 24.222 63.703C24.222 63.703 24.222 63.703 22.844 64.149C22.844 64.149 22.844 64.149 22.733 64.046C22.733 64.046 22.733 64.046 21.42 64.066C21.42 64.066 21.42 64.066 21.096 64.131C21.096 64.131 21.096 64.131 20.443 63.795"/>
  <path stroke-width="0.13" stroke-linejoin="round" stroke-miterlimit="10" d="M25.486 62.734L25.757 63.348"/>
  <path stroke-width="0.13" stroke-linejoin="round" stroke-miterlimit="10" d="M24.306 63.869L24.463 64.251"/>
  <path stroke-width="0.13" stroke-linejoin="round" stroke-miterlimit="10" d="M22.826 64.355L22.984 64.837"/>
  <path stroke-width="0.13" stroke-linejoin="round" stroke-miterlimit="10" d="M21.216 64.28L21.469 64.921"/>
  <path stroke-width="0.13" stroke-linejoin="round" stroke-miterlimit="10" d="M26.269 61.637C26.306 61.627 29.172 61.581 29.638 62.743"/>
  <path stroke-width="0.13" stroke-linejoin="round" stroke-miterlimit="10" d="M10.811 54.953C10.788 54.975 10.775 54.997 10.774 55.021C10.75 55.377 10.8 55.606 9.859 55.783C8.916 55.963 8.23 56.368 8.23 56.368C8.23 56.368 8.537 58.811 7.772 58.863"/>
  <path stroke-width="0.25" stroke-linejoin="round" stroke-miterlimit="10" d="M13.115 91.865C12.987 91.84 11.003 90.39 10.061 89.6C9.121 88.811 8.382 88.328 8.025 85.301C7.669 82.272 7.365 77.513 6.984 76.242C6.601 74.971 5.863 72.45 5.66 71.662C5.456 70.873 5.583 65.987 5.557 64.689C5.533 63.393 5.964 58.939 10.291 57.896C10.291 57.896 10.291 57.896 11.715 57.337C11.715 57.337 11.564 56.368 11.817 56.165C12.071 55.963 13.369 55.759 13.369 55.759C13.369 55.759 13.369 55.759 16.678 55.223C16.678 55.223 16.388 55.112 16.035 54.976"/>
  <path stroke-width="0.13" stroke-linejoin="round" stroke-miterlimit="10" d="M15.888 57.234C15.964 57.234 18.765 56.573 19.527 56.396C20.292 56.218 23.751 55.554 24.515 55.554C25.277 55.554 26.5 55.427 26.957 55.276"/>
  <path stroke-width="0.13" stroke-linejoin="round" stroke-miterlimit="10" d="M12.021 57.31C12.148 57.337 13.217 57.642 13.446 57.616C13.676 57.591 15.455 57.234 15.455 57.234"/>
  <path stroke-width="0.13" stroke-linejoin="round" stroke-miterlimit="10" d="M10.291 58.073C10.47 58.151 12.224 58.634 12.48 58.582C12.733 58.531 16.042 57.718 16.092 57.539"/>
  <path stroke-width="0.13" stroke-linejoin="round" stroke-miterlimit="10" d="M27.085 55.377C27.085 55.377 27.492 55.581 27.849 55.53C28.204 55.478 29.934 55.427 30.036 55.223"/>
  <path stroke-width="0.13" stroke-linejoin="round" stroke-miterlimit="10" d="M5.096 54.982C5.137 56.237 5.176 58.151 5.176 58.151C5.176 58.151 3.828 58.939 4.081 59.448C4.081 59.448 2.657 60.72 2.607 62.451C2.555 64.18 2.937 67.513 3.726 69.728C4.514 71.942 6.525 75.251 7.035 76.394"/>
  <path stroke-width="0.13" stroke-linejoin="round" stroke-miterlimit="10" d="M4.238 59.405C4.238 59.405 5.881 59.463 6.142 59.549C6.405 59.637 6.74 59.448 6.855 59.317C6.971 59.186 7.567 58.984 7.612 58.984"/>
  <path stroke-width="0.13" stroke-linejoin="round" stroke-miterlimit="10" d="M5.27 58.125C5.256 58.082 5.634 57.646 6.057 57.79C6.477 57.936 7.844 58.459 7.844 58.459"/>
  <path stroke-width="0.13" stroke-linejoin="round" stroke-miterlimit="10" d="M11.989 56.381C12.192 56.409 13.108 56.759 13.471 56.701C13.835 56.642 20.699 55.493 21.905 55.319C22.376 55.252 23.391 55.115 24.46 54.956"/>
  <path stroke-width="0.3" stroke-linejoin="round" stroke-miterlimit="10" d="M31.179 54.97C31.801 55.024 32.496 55.118 33.014 55.276C33.014 55.276 33.801 55.25 34.057 55.402C34.313 55.555 36.679 56.115 36.679 56.115"/>
  <path stroke-width="0.3" stroke-linejoin="round" stroke-miterlimit="10" d="M29.681 54.893C29.722 54.893 30.393 54.901 31.179 54.97"/>
  <path stroke-width="0.3" stroke-linejoin="round" stroke-miterlimit="10" d="M38.228 58.908C38.228 58.884 38.249 58.564 38.249 58.564C38.249 58.564 38.064 58.451 38.057 58.43C38.051 58.411 38.064 58.195 38.064 58.195C38.064 58.195 38.064 58.195 38.116 58.131C38.116 58.131 38.148 57.914 38.268 57.914C38.268 57.914 38.268 57.914 38.325 57.411C38.325 57.411 38.325 57.411 38.408 57.156C38.408 57.156 39.115 57.104 39.136 57.112C39.154 57.118 39.485 57.246 39.485 57.246C39.485 57.246 39.485 57.246 39.548 57.168C39.548 57.168 39.548 57.168 40.773 57.259C40.773 57.259 41.804 57.149 42.481 57.009C43.155 56.869 44.079 56.627 44.704 56.588C45.329 56.551 46.908 56.518 47.871 57.176C48.834 57.832 49.835 58.712 50.051 59.216"/>
  <path stroke-width="0.3" stroke-linejoin="round" stroke-miterlimit="10" d="M49.387 59.24C49.368 59.234 48.055 58.036 47.356 57.731C46.654 57.423 45.845 57.189 44.863 57.264C44.863 57.264 43.811 57.494 43.054 57.652C42.295 57.813 41.301 58.036 40.466 58.017C40.466 58.017 40.466 58.017 39.887 57.96C39.887 57.96 39.887 57.96 39.625 58.073C39.625 58.073 39.811 58.584 39.435 58.642C39.435 58.642 39.435 58.642 39.396 58.92"/>
  <path stroke-width="0.13" stroke-linejoin="round" stroke-miterlimit="10" d="M38.313 58.011C38.319 57.991 38.719 58.207 39.567 58.06"/>
  <path stroke-width="0.13" stroke-linejoin="round" stroke-miterlimit="10" d="M38.323 57.399C38.332 57.38 38.734 57.597 39.581 57.45"/>
  <path stroke-width="0.13" stroke-linejoin="round" stroke-miterlimit="10" d="M39.612 57.246L39.567 58.017"/>
  <path stroke-width="0.13" stroke-linejoin="round" stroke-miterlimit="10" d="M38.28 58.948C38.28 58.948 39.031 59.133 39.371 58.953"/>
  <path stroke-width="0.13" stroke-linejoin="round" stroke-miterlimit="10" d="M37.331 59.298C37.344 59.28 37.834 58.807 38.159 58.851"/>
  <path stroke-width="0.13" stroke-linejoin="round" stroke-miterlimit="10" d="M39.499 58.851C39.53 58.851 39.695 59.048 39.664 59.183C39.664 59.183 40.009 59.209 40.064 59.457"/>
  <path stroke-width="0.13" stroke-linejoin="round" stroke-miterlimit="10" d="M37.47 59.426C37.534 59.451 38.649 59.954 40.07 59.621"/>
  <path stroke-width="0.3" stroke-linejoin="round" stroke-miterlimit="10" d="M40.618 58.125C40.618 58.125 40.561 58.621 40.701 58.75C40.841 58.878 41.307 59.17 42.365 59.24C43.423 59.31 44.557 59.112 44.634 58.718C44.634 58.718 44.634 58.718 44.646 58.354C44.646 58.354 44.854 58.125 44.463 58.091C44.463 58.091 44.463 58.091 44.497 57.447"/>
  <path stroke-width="0.13" stroke-linejoin="round" stroke-miterlimit="10" d="M44.118 57.539C44.118 57.539 44.143 58.335 43.844 58.648"/>
  <path stroke-width="0.3" stroke-linejoin="round" stroke-miterlimit="10" d="M40.695 57.162C40.695 57.131 40.662 56.34 41.225 56.271C41.784 56.201 44.073 56.174 43.959 56.601"/>
  <path stroke-width="0.13" stroke-linejoin="round" stroke-miterlimit="10" d="M40.932 56.454C40.932 56.454 41.13 56.729 42.39 56.984"/>
  <path stroke-width="0.3" stroke-linejoin="round" stroke-miterlimit="10" d="M44.786 58.159L48.875 59.313"/>
  <path stroke-width="0.13" stroke-linejoin="round" stroke-miterlimit="10" d="M45.929 54.926L73.993 61.292"/>
  <path stroke-width="0.13" stroke-linejoin="round" stroke-miterlimit="10" d="M54.154 54.945L74.036 59.271"/>
  <path stroke-width="0.3" stroke-linejoin="round" stroke-miterlimit="10" d="M53.741 60.673L60.46 62.502"/>
  <path stroke-width="0.25" stroke-linejoin="round" stroke-miterlimit="10" d="M34.192 114.772C38.167 112.573 41.258 110.867 41.283 110.867"/>
  <path stroke-width="0.25" stroke-linejoin="round" stroke-miterlimit="10" d="M0.865 110.182C2.479 111.649 4.192 113.206 5.851 114.71"/>
  <path stroke-width="0.25" stroke-linejoin="round" stroke-miterlimit="10" d="M11.774 90.911L0.912 94.84"/>
  <path stroke-width="0.2" stroke-linejoin="round" stroke-miterlimit="10" d="M35.134 109.983C35.045 109.983 30.283 112.608 26.367 114.79"/>
  <path stroke-width="0.13" stroke-linejoin="round" stroke-miterlimit="10" d="M40.009 109.893L30.859 114.792"/>
  <path stroke-width="0.2" stroke-linejoin="round" stroke-miterlimit="10" d="M16.381 114.793L33.359 105.816"/>
  <path stroke-width="0.13" stroke-linejoin="round" stroke-miterlimit="10" d="M24.399 114.712L34.387 109.269"/>
  <path stroke-width="0.13" stroke-linejoin="round" stroke-miterlimit="10" d="M25.245 103.111L4.476 112.671"/>
  <path stroke-width="0.13" stroke-linejoin="round" stroke-miterlimit="10" d="M1.948 109.397L4.025 111.673"/>
  <path stroke-width="0.13" stroke-linejoin="round" stroke-miterlimit="10" d="M1.573 106.195L3.649 108.471"/>
  <path stroke-width="0.13" stroke-linejoin="round" stroke-miterlimit="10" d="M4.599 111.623L24.701 102.552"/>
  <path stroke-width="0.13" stroke-linejoin="round" stroke-miterlimit="10" d="M4.224 108.572L23.853 99.634"/>
  <path stroke-width="0.2" stroke-linejoin="round" stroke-miterlimit="10" d="M8.776 109.423C8.776 109.346 8.551 107.796 8.551 107.796C8.551 107.796 8.551 107.796 24.362 100.67"/>
  <path stroke-width="0.2" stroke-linejoin="round" stroke-miterlimit="10" d="M1.548 109.998C1.425 109.897 1.298 106.046 1.298 106.046C1.298 106.046 1.298 106.046 21.756 97.593"/>
  <path stroke-width="0.13" stroke-linejoin="round" stroke-miterlimit="10" d="M3.924 108.57L4.25 112.522"/>
  <path stroke-width="0.13" stroke-linejoin="round" stroke-miterlimit="10" d="M0.831 97.403L13.779 92.719"/>
  <path stroke-width="0.13" stroke-linejoin="round" stroke-miterlimit="10" d="M0.833 101.602L15.33 96.346"/>
  <path stroke-width="0.13" stroke-linejoin="round" stroke-miterlimit="10" d="M0.816 100.504L14.906 95.394"/>
  <path stroke-width="0.2" stroke-linejoin="round" stroke-miterlimit="10" d="M0.863 98.78L14.201 93.612"/>
  <path stroke-width="0.13" stroke-linejoin="round" stroke-miterlimit="10" d="M4.786 112.882L6.934 114.771"/>
  <path stroke-width="0.25" stroke-linejoin="round" stroke-miterlimit="10" d="M2.682 111.933L0.829 112.727"/>
  <path stroke-width="0.2" stroke-linejoin="round" stroke-miterlimit="10" d="M0.818 76.102C1.242 75.968 1.633 75.859 1.734 75.905C1.94 75.995 6.516 78.894 6.516 78.894C6.516 78.894 7.059 79.2 7.126 79.79C7.195 80.378 7.296 80.73 7.126 80.843C6.958 80.956 5.259 81.783 4.669 81.623C4.296 81.524 2.31 80.296 0.849 79.311"/>
  <path stroke-width="0.13" stroke-linejoin="round" stroke-miterlimit="10" d="M0.808 77.881L4.397 80.197"/>
  <path stroke-width="0.13" stroke-linejoin="round" stroke-miterlimit="10" d="M5.28 80.242L6.786 79.631"/>
  <path stroke-width="0.25" stroke-linejoin="round" stroke-miterlimit="10" d="M0.867 88.081C1.236 88.472 2.399 89.596 3.318 89.263C4.427 88.859 6.166 87.975 6.166 87.975"/>
  <path stroke-width="0.25" stroke-linejoin="round" stroke-miterlimit="10" d="M1.455 79.811C1.455 79.811 1.1 80.189 1.455 81.903C1.455 81.903 1.135 81.959 0.752 82.046"/>
  <path stroke-width="0.2" stroke-linejoin="round" stroke-miterlimit="10" d="M0.859 83.111C1.475 83.527 2.552 84.391 2.908 85.293C3.303 86.293 3.863 88.037 2.955 88.757"/>
  <path stroke-width="0.13" stroke-linejoin="round" stroke-miterlimit="10" d="M0.875 82.686C1.581 83.063 2.734 83.908 3.222 85.131C3.665 86.239 4.107 88.287 3.1 89.087"/>
  <path stroke-width="0.2" stroke-linejoin="round" stroke-miterlimit="10" d="M3.798 81.248C3.746 81.325 3.722 81.625 3.722 81.625C3.722 81.625 3.722 81.625 3.948 82.028C3.948 82.028 3.948 82.028 3.798 82.584C3.798 82.584 3.798 82.584 4 83.037C4 83.037 4 83.037 4.982 83.868C4.982 83.868 6.368 87.902 6.344 87.977C6.317 88.052 5.839 89.54 5.839 89.54"/>
  <path stroke-width="0.25" stroke-linejoin="round" stroke-miterlimit="10" d="M4.025 89.212C4.025 89.212 5.636 89.841 5.562 89.867C5.487 89.893 5.461 90.144 5.461 90.144C5.461 90.144 5.461 90.144 7.2 91.028C7.2 91.028 7.2 91.028 10.426 89.992"/>
  <path stroke-width="0.13" stroke-linejoin="round" stroke-miterlimit="10" d="M0.802 60.286L1.998 60.155"/>
  <path stroke-width="0.13" stroke-linejoin="round" stroke-miterlimit="10" d="M0.861 62.609L2.206 62.265"/>
  <path stroke-width="0.13" stroke-linejoin="round" stroke-miterlimit="10" d="M0.849 59.621C1.054 59.621 1.262 59.561 1.459 59.54C1.681 59.518 1.934 59.439 2.162 59.481C2.261 59.5 2.616 59.685 2.684 59.53C2.758 59.509 2.879 59.31 2.89 59.237C3.039 59.158 3.225 59.156 3.387 59.125C3.528 59.098 3.918 59.045 3.987 58.963"/>
  <path stroke-width="0.25" stroke-linejoin="round" stroke-miterlimit="10" d="M59.146 97.879C58.96 97.879 55.819 104.849 56.851 114.71"/>
  <path stroke-width="0.13" stroke-linejoin="round" stroke-miterlimit="10" d="M3.769 60.771L5.192 60.975"/>
  <path stroke-width="0.13" stroke-linejoin="round" stroke-miterlimit="10" d="M39.22 74.629L46.176 77.531"/>
  <path stroke-width="0.13" stroke-linejoin="round" stroke-miterlimit="10" d="M28.01 69.953L35.009 72.873"/>
  <path stroke-width="0.13" stroke-linejoin="round" stroke-miterlimit="10" d="M15.914 64.909L19.028 66.207"/>
  <path stroke-width="0.13" stroke-linejoin="round" stroke-miterlimit="10" d="M7.296 61.314L13.217 63.783"/>
  <path stroke-width="0.13" stroke-linejoin="round" stroke-miterlimit="10" d="M15.236 95.665L15.66 95.478"/>
  <path stroke-width="0.13" stroke-linejoin="round" stroke-miterlimit="10" d="M34.506 109.015L35.286 108.676"/>
  <path stroke-width="0.13" stroke-linejoin="round" stroke-miterlimit="10" d="M24.888 102.552L25.634 102.23"/>
 </g>
 <g id="Blow-up">
  <g>
   <path stroke="#FFFFFF" stroke-width="2" stroke-linejoin="round" d="M11.99 49.014C14.467 52.036 22.916 62.353 22.917 62.356C22.917 62.356 17.693 52.31 16.044 49.137"/>
   <path stroke="none" fill="#FFFFFF" d="M11.317 48.191L22.917 62.356 15.551 48.191"/>
   <path stroke-width="0.13" stroke-linejoin="round" stroke-dasharray="5 1 1 1" d="M11.317 48.191L22.917 62.356C22.917 62.356 17.625 52.177 16.012 49.076"/>
   <path stroke-width="0.13" stroke-linejoin="round" d="M16.012 49.076C15.721 48.52 15.551 48.191 15.551 48.191"/>
  </g>
  <path stroke-width="0.3" stroke-linejoin="round" d="M1.934 48.191L11.317 48.191L22.917 62.356L15.551 48.191L61.347 48.191L61.347 1.573L1.934 1.573L1.934 48.191z"/>
  <path stroke-width="0.13" d="M42.948 3.562C48.872 7.522 52.771 14.249 52.771 21.881C52.771 34.063 42.838 43.938 30.586 43.938C18.335 43.938 8.403 34.063 8.403 21.881C8.403 14.173 12.378 7.389 18.402 3.444"/>
  <path stroke-width="0.13" d="M46.957 3.472C52.173 7.993 55.47 14.65 55.47 22.071C55.47 35.692 44.365 46.734 30.664 46.734C16.966 46.734 5.86 35.692 5.86 22.071C5.86 14.628 9.176 7.955 14.419 3.432"/>
  <path stroke-width="0.13" d="M17.928 46.756C9.016 42.115 2.936 32.831 2.936 22.135C2.936 14.896 5.721 8.304 10.284 3.359"/>
  <path stroke-width="0.13" d="M51.67 3.585C56.11 8.503 58.811 15.006 58.811 22.135C58.811 32.682 52.899 41.856 44.191 46.56"/>
  <path stroke-width="0.2" d="M2.852 6.003C3.412 5.046 4.022 4.12 4.677 3.228"/>
  <path stroke-width="0.2" d="M10.182 46.862C7.272 44.463 4.794 41.569 2.876 38.307"/>
  <path stroke-width="0.2" d="M60.24 35.267C58.292 39.584 55.411 43.395 51.853 46.448"/>
  <path stroke-width="0.2" d="M56.886 3.254C58.237 5.099 59.395 7.091 60.331 9.202"/>
  <path stroke-width="0.13" d="M21.623 14.317L22.896 14.698L24.039 15.397L24.801 17.495L23.911 18.512L23.149 18.129L21.559 15.269L21.623 14.317z"/>
  <path stroke-width="0.13" d="M26.137 15.205C26.137 15.205 26.137 15.205 28.108 12.346C28.108 12.346 28.108 12.346 27.536 11.391C27.536 11.391 28.044 10.566 28.234 10.502C28.425 10.439 26.582 9.993 26.582 9.993C26.582 9.993 26.582 9.993 24.611 10.82C24.611 10.82 24.611 10.82 25.184 11.583C25.184 11.583 25.184 11.583 24.611 12.727C24.611 12.727 24.611 12.727 26.137 15.205z"/>
  <path stroke-width="0.13" d="M23.022 23.278C23.785 23.533 24.484 22.96 24.484 22.96C25.056 23.088 25.056 22.452 25.056 22.452C25.056 22.452 25.056 22.452 26.01 22.833C26.01 22.833 26.01 22.833 26.454 22.007C26.454 22.007 26.454 22.007 26.01 21.562C26.01 21.562 26.01 21.562 27.027 21.435C27.027 21.435 27.027 21.435 27.344 20.736C27.344 20.736 27.344 20.736 26.327 20.1C26.327 20.1 26.327 20.1 25.565 20.99C25.565 20.99 25.565 20.99 25.184 21.69C25.184 21.69 25.184 21.69 24.356 21.817C24.356 21.817 24.356 21.817 23.022 23.278z"/>
  <path stroke-width="0.13" d="M31.731 23.024C31.731 23.024 31.731 23.024 32.493 22.388C32.493 22.388 32.493 22.388 33.829 22.007C33.829 22.007 33.829 22.007 35.29 23.85C35.29 23.85 35.29 23.85 33.637 23.278C33.637 23.278 32.811 23.597 32.621 23.533C32.429 23.469 31.731 23.024 31.731 23.024z"/>
  <path stroke-width="0.13" d="M36.371 15.778C36.371 15.778 36.371 15.778 38.85 14.317C38.85 14.317 39.866 15.269 39.676 15.205C39.485 15.143 39.295 15.714 39.295 15.714C39.295 15.714 39.295 15.714 40.694 16.286C40.694 16.286 40.694 16.286 40.185 17.239C40.185 17.239 40.185 17.239 37.451 16.667C37.451 16.667 37.451 16.667 36.371 15.778z"/>
  <path stroke-width="0.13" d="M39.04 12.028C39.04 12.028 39.04 12.028 39.04 13.807C39.04 13.807 39.04 13.807 40.313 14.76C40.313 14.76 40.313 14.76 40.185 15.524C40.185 15.524 42.409 16.096 42.219 16.096C42.029 16.096 43.235 15.205 43.235 15.205C43.235 15.205 43.235 15.205 42.409 12.917C41.457 12.791 40.567 11.647 40.567 11.647C40.567 11.647 40.567 11.647 39.04 12.028z"/>
  <path stroke-width="0.13" d="M42.792 12.473L42.728 11.836L44.189 11.774L45.905 12.917L46.987 13.044L47.621 15.016L45.715 15.333L44.57 14.634L44.063 15.205L42.981 12.791"/>
  <path stroke-width="0.13" d="M42.409 8.468L43.173 9.929L42.091 10.82L44.634 11.137L45.398 10.439L47.304 10.503L45.524 8.086L44.826 8.723L43.808 8.15L42.409 8.468z"/>
  <path stroke-width="0.13" d="M38.914 8.977L40.249 9.103L41.457 8.086L42.409 9.676L40.82 11.074L40.567 10.121L39.104 10.566L38.914 8.977z"/>
  <path stroke-width="0.13" d="M34.018 10.311C34.018 10.311 34.018 10.311 35.926 8.977C35.926 8.977 35.926 8.977 35.798 8.468C35.798 8.468 35.798 8.468 36.561 8.023C36.561 8.023 36.561 8.023 38.215 8.849C38.215 8.849 38.786 11.201 38.595 11.137C38.405 11.074 37.96 11.774 37.96 11.774C37.96 11.774 37.96 11.774 37.006 11.201C37.006 11.201 37.006 11.201 35.99 12.092C35.99 12.092 35.99 12.092 34.972 12.981C34.972 12.981 34.972 12.981 34.908 11.774C34.21 11.583 34.018 10.311 34.018 10.311z"/>
  <path stroke-width="0.13" d="M31.032 13.426C31.032 13.426 31.032 13.426 31.667 12.599C32.747 12.537 33.128 11.455 33.128 11.455C33.128 11.455 33.128 11.455 33.829 11.71C33.829 11.71 33.829 11.71 34.082 13.49C34.082 13.49 34.082 13.49 33.066 13.935C33.066 13.935 33.066 13.935 32.811 15.079C32.811 15.079 32.811 15.079 31.603 15.333C31.603 15.333 31.603 15.333 31.032 13.426z"/>
  <path stroke-width="0.13" d="M28.553 14.698L27.027 16.731L28.044 17.94L29.189 18.385L30.205 17.748L30.077 16.667L30.968 15.205L30.396 14.38L29.696 15.143L28.553 14.698z"/>
  <path stroke-width="0.13" d="M32.685 16.923L31.603 18.067L32.302 19.719L33.637 18.129L32.685 16.923z"/>
  <path stroke-width="0.13" d="M36.497 12.727L35.162 14.634L35.609 17.05L37.006 13.426L36.497 12.727z"/>
  <path stroke-width="0.13" d="M38.215 18.067L36.942 19.274L39.93 20.164L40.185 19.274L38.215 18.067z"/>
  <path stroke-width="0.13" d="M42.029 16.541L42.283 17.557L42.981 18.512L45.079 17.94L43.999 16.286L42.918 16.033L42.029 16.541z"/>
  <path stroke-width="0.13" d="M45.015 16.667L45.715 15.778L47.494 16.286L48.829 15.842L49.021 17.05L47.875 18.512L46.731 18.765L45.779 18.131L45.015 16.667z"/>
  <path stroke-width="0.13" d="M48.767 9.867L47.877 10.884L47.113 11.9L48.195 14.57L49.847 13.935L50.673 13.298"/>
  <path stroke-width="0.13" d="M41.965 20.228C41.965 20.228 41.965 20.228 41.71 21.371C41.71 21.371 41.71 21.371 43.045 22.388C43.045 22.388 43.045 22.388 44.063 22.96C44.063 22.96 44.063 22.96 45.079 21.054C45.079 21.054 45.079 21.054 44.189 20.355C43.045 20.228 41.965 20.228 41.965 20.228z"/>
  <path stroke-width="0.13" d="M45.398 18.765L44.444 19.719L45.46 20.673L46.604 20.164L45.398 18.765z"/>
  <path stroke-width="0.13" d="M49.847 18.385L50.292 19.338L48.64 20.926L47.621 19.91L49.021 18.129L49.847 18.385z"/>
  <path stroke-width="0.13" d="M51.246 14.824C51.246 14.824 50.292 15.65 50.1 15.65C49.911 15.65 50.228 16.986 50.037 16.986C49.847 16.986 51.308 18.131 51.308 18.131C51.308 18.131 51.308 18.131 52.326 18.512"/>
  <path stroke-width="0.13" d="M48.003 21.881L47.813 22.833L48.703 24.169L49.911 22.897L49.719 21.881L48.003 21.881z"/>
  <path stroke-width="0.13" d="M46.414 22.579C46.159 22.643 45.847 24.021 45.652 23.978C44.508 23.724 45.207 22.515 45.015 22.452C44.825 22.388 46.414 22.579 46.414 22.579z"/>
  <path stroke-width="0.13" d="M27.472 22.262C27.472 22.262 27.472 22.262 27.536 23.278C27.536 23.278 27.536 23.278 26.646 23.914C26.646 23.914 26.646 23.914 27.027 25.44C27.027 25.44 27.027 25.44 27.789 24.233C27.789 24.233 29.506 24.678 29.315 24.614C29.125 24.55 30.205 23.278 30.205 23.278C30.205 23.278 30.205 23.278 28.743 23.216C28.743 23.216 28.743 23.216 27.727 22.199"/>
  <path stroke-width="0.13" d="M31.477 25.695C31.477 25.695 31.477 25.695 32.302 28.364C32.302 28.364 32.302 28.364 33.32 29C33.32 29 33.32 29 34.146 27.792C34.146 27.792 34.146 27.792 35.353 28.3C35.353 28.3 36.497 27.219 36.307 27.219C36.116 27.219 34.337 26.521 34.337 26.521C34.337 26.521 33.066 27.283 33.002 27.092C32.939 26.902 32.112 25.121 32.112 25.121C32.112 25.121 32.112 25.121 31.413 25.631"/>
  <path stroke-width="0.13" d="M30.205 28.681L30.015 28.873L29.76 29.126L29.951 30.143L30.903 30.716L31.158 31.67L31.222 33.195L33.002 32.432L32.685 31.478L33.511 30.652L36.18 32.051L37.134 30.78L33.765 29.381L32.621 29.507L31.794 30.143L30.205 28.681z"/>
  <path stroke-width="0.13" d="M39.93 27.411C39.93 27.411 39.93 27.411 38.087 27.602C38.087 27.602 38.087 27.602 38.659 29.89C39.612 29.699 39.866 28.873 39.866 28.873C40.884 28.681 39.93 27.411 39.93 27.411z"/>
  <path stroke-width="0.13" d="M40.531 24.896C40.853 25.274 41.71 26.583 41.71 26.583C41.71 26.583 41.71 26.583 43.173 27.792C43.173 27.792 43.173 27.792 43.935 26.902C43.935 26.902 43.935 26.902 45.015 27.664C45.015 27.664 45.015 27.664 46.859 27.475C46.859 27.475 46.859 27.475 46.987 26.521C46.987 26.521 46.987 26.521 45.143 26.202C45.143 26.202 45.143 26.202 44.634 25.25C44.634 25.25 43.362 25.757 43.109 25.631C42.854 25.504 42.091 24.678 42.091 24.678C42.091 24.678 42.091 24.678 40.481 24.89"/>
  <path stroke-width="0.13" d="M19.271 26.457C19.271 26.457 22.387 25.376 22.132 25.504C21.879 25.631 22.323 27.092 22.323 27.092C22.323 27.092 20.861 27.03 20.67 26.966C20.48 26.902 19.08 27.092 19.08 27.092C19.08 27.092 19.08 27.092 19.271 26.457z"/>
  <path stroke-width="0.13" d="M20.099 22.579C20.099 22.579 20.099 22.579 18.89 23.024C18.89 23.024 18.763 24.295 18.699 24.295C18.635 24.295 20.606 24.614 20.606 24.614C20.606 24.614 20.606 24.614 21.178 23.85C21.178 23.85 21.178 23.85 20.099 22.579z"/>
  <path stroke-width="0.13" d="M19.525 19.21C19.525 19.21 19.525 19.21 18.446 20.864C17.428 20.926 17.364 19.974 17.364 19.974C17.364 19.974 17.364 19.974 16.094 19.591C16.094 19.591 16.094 19.591 17.3 18.829C17.3 18.829 17.3 18.829 19.271 19.019"/>
  <path stroke-width="0.13" d="M16.856 16.605C16.666 16.667 17.428 18.512 17.428 18.512C17.428 18.512 17.428 18.512 19.399 18.193C19.399 18.193 19.399 18.193 18.446 16.731C18.446 16.731 16.792 16.478 16.539 16.414"/>
  <path stroke-width="0.13" d="M13.742 24.169L14.823 24.995L17.173 24.295L16.856 23.152L15.649 22.643L14.505 23.024L13.742 24.169z"/>
  <path stroke-width="0.13" d="M9.291 20.926C9.547 20.864 11.771 19.528 11.516 19.528C11.262 19.528 11.39 18.067 11.39 18.067C11.39 18.067 11.39 18.067 13.551 17.112C13.551 17.112 13.551 17.112 14.314 15.906C14.314 15.906 14.314 15.906 15.585 13.935C15.585 13.935 15.585 13.935 13.487 15.778C13.487 15.778 13.487 15.778 11.454 16.859C11.454 16.859 11.454 16.859 10.118 18.003C10.118 18.003 10.118 18.003 10.118 19.019C10.118 19.019 10.118 19.019 9.038 20.036C9.038 20.036 9.038 20.036 9.291 20.926z"/>
  <path stroke-width="0.13" d="M9.992 24.169C9.992 24.169 9.992 24.169 12.089 23.533C12.089 23.533 12.089 23.533 12.279 22.515C12.279 22.515 12.279 22.515 13.361 21.562C13.361 21.562 13.361 21.562 12.788 20.164C12.788 20.164 12.788 20.164 11.899 21.371C11.899 21.371 11.198 22.007 11.135 22.199C11.071 22.388 10.881 22.96 10.881 22.96C9.992 23.152 9.737 24.169 9.737 24.169"/>
  <path stroke-width="0.13" d="M17.746 31.859C18.763 31.734 19.589 30.588 19.589 30.588C19.589 30.588 19.589 30.588 20.161 32.432C20.161 32.432 20.161 32.432 19.589 32.941C19.589 32.941 19.589 32.941 17.746 31.859z"/>
  <path stroke-width="0.13" d="M23.149 28.047C23.53 28.236 24.167 29.318 24.167 29.318C24.167 29.318 24.167 29.318 25.501 28.873C25.501 28.873 25.501 28.873 26.074 27.664C26.074 27.664 26.074 27.664 26.074 26.647C26.074 26.647 26.074 26.647 24.865 26.14C24.865 26.14 24.865 26.14 24.675 27.411C24.675 27.411 24.675 27.411 23.911 27.347C23.911 27.347 23.911 27.347 23.149 28.047z"/>
  <path stroke-width="0.13" d="M28.806 20.545L28.553 21.69L29.824 22.388L30.777 21.817L31.222 21.053L28.806 20.545z"/>
  <path stroke-width="0.13" d="M34.781 21.626C35.036 21.753 36.052 22.643 36.052 22.643C36.052 22.643 36.052 22.643 37.515 22.007C37.515 22.007 37.515 22.007 36.435 21.245C36.435 21.245 36.435 21.245 35.162 21.626"/>
  <path stroke-width="0.13" d="M32.875 24.614C32.875 24.614 33.956 24.995 34.146 24.995C34.337 24.995 36.18 24.486 36.18 24.486C36.18 24.486 36.18 24.486 38.85 26.521C37.706 26.774 36.18 26.138 36.18 26.138C36.18 26.138 36.18 26.138 35.226 25.376C35.226 25.376 35.226 25.376 33.892 25.695C33.892 25.695 33.892 25.695 33.192 25.312C33.192 25.312 33.192 25.312 32.875 24.614z"/>
  <path stroke-width="0.13" d="M39.295 21.435C39.485 21.562 40.884 22.833 40.884 22.833C40.884 22.833 40.884 22.833 41.011 21.309C41.011 21.309 39.993 21.053 39.74 21.053C39.485 21.053 39.295 21.435 39.295 21.435z"/>
  <path stroke-width="0.13" d="M29.591 27.961L30.289 27.39L30.545 26.585L31.71 28.364L31.096 28.152L31.074 28.554L30.353 28.109L29.591 27.961z"/>
  <path stroke-width="0.13" d="M21.559 30.271C21.655 30.367 22.419 30.907 22.419 30.907C22.419 30.907 22.419 30.907 23.403 30.939C23.403 30.939 23.403 30.939 24.199 31.414C24.199 31.414 24.199 31.414 25.501 33.353C25.501 33.353 25.501 33.353 25.85 32.622C25.85 32.622 25.85 32.622 25.216 31.733C25.216 31.733 25.216 31.733 25.31 31.065C25.31 31.065 25.31 31.065 26.359 30.716C26.359 30.716 26.359 30.716 27.821 31.129C27.821 31.129 27.821 31.129 28.998 31.891C28.998 31.891 28.998 31.891 30.3 31.542C30.3 31.542 30.3 31.542 30.522 30.939C30.522 30.939 30.522 30.939 28.838 30.143C28.838 30.143 28.838 30.143 27.472 29.635C27.472 29.635 27.472 29.635 26.233 29.984C26.233 29.984 26.233 29.984 25.088 30.111C25.088 30.111 25.088 30.111 24.007 29.984C24.007 29.984 24.007 29.984 23.498 30.303C23.498 30.303 23.498 30.303 22.894 30.111C22.894 30.111 22.894 30.111 22.577 30.335C22.577 30.335 22.577 30.335 21.559 30.271z"/>
  <path stroke-width="0.13" d="M27.185 26.87L29.157 25.408L30.428 24.55L31.858 24.074L31.539 24.772L30.49 25.027L30.141 26.17L29.03 26.425L27.695 27.157L26.995 26.966"/>
  <path stroke-width="0.13" d="M21.719 32.814C21.719 32.814 21.719 32.814 21.083 33.735C20.638 33.64 18.541 35.006 18.541 35.006C18.541 35.006 18.541 35.006 18.954 35.865C18.954 35.865 18.954 35.865 20.225 35.228C20.225 35.228 20.225 35.228 21.146 34.466C21.146 34.466 21.146 34.466 21.815 35.006C21.815 35.006 21.815 35.006 22.417 34.34C22.417 34.34 22.417 34.34 23.53 33.99C23.53 33.99 23.53 33.99 24.007 33.226C24.007 33.226 24.007 33.226 23.468 32.463C23.468 32.463 23.468 32.463 22.8 33.005C22.8 33.005 22.8 33.005 21.719 32.814z"/>
  <path stroke-width="0.13" d="M16.666 27.219L17.173 26.361L18.446 27.379L18.605 27.951L19.495 28.173L19.939 29.286L19.367 29.635L18.637 28.841L18.097 28.841L17.777 28.3L17.237 28.204L16.666 27.219z"/>
  <path stroke-width="0.13" d="M14.537 32.972C14.537 32.972 14.537 32.972 15.044 31.001C15.044 31.001 15.044 31.001 15.522 30.844C15.522 30.844 15.522 30.844 15.807 31.478C15.807 31.478 15.617 31.955 15.617 32.051C15.617 32.146 15.649 33.005 15.649 33.005C15.649 33.005 15.649 33.005 15.268 33.067C15.268 33.067 15.268 33.067 14.537 32.972z"/>
  <path stroke-width="0.13" d="M15.076 33.386C15.076 33.386 15.076 33.386 15.522 34.243C15.522 34.243 15.522 34.243 15.394 35.228C15.394 35.228 15.394 35.228 15.871 35.832C15.871 35.832 15.871 35.832 15.935 36.372C15.935 36.372 15.935 36.372 16.315 36.564C16.315 36.564 16.315 36.564 16.824 36.976C16.824 36.976 16.824 36.976 16.73 35.228C16.73 35.228 16.73 35.228 17.269 34.561C17.269 34.561 17.269 34.561 16.507 34.054C15.967 34.149 15.076 33.386 15.076 33.386z"/>
  <path stroke-width="0.13" d="M24.484 33.64L23.754 34.594L22.64 34.816L22.832 35.42L22.355 35.61L22.006 37.423L22.99 37.04L23.594 37.231L24.326 36.722L24.23 36.055L24.801 35.356L24.865 34.783L24.484 33.64z"/>
  <path stroke-width="0.13" d="M22.832 24.518L22.99 25.217L22.704 25.727L23.213 26.266L23.849 25.789L23.594 25.25L24.388 25.472L24.771 24.995L23.722 24.646L23.435 24.137L22.673 23.692L22.832 24.518z"/>
  <path stroke-width="0.13" d="M29.8 38.466C29.8 38.466 29.8 38.466 29.675 38.259C29.675 38.259 29.675 38.259 28.998 38.895C28.998 38.895 28.998 38.895 28.277 38.174C27.896 38.005 27.684 38.725 27.684 38.725C27.684 38.725 27.556 39.064 27.344 38.979C27.132 38.895 26.539 38.725 26.37 38.598C26.201 38.47 25.734 38.09 25.734 38.09C25.268 38.005 24.888 38.351 24.718 38.387"/>
  <path stroke-width="0.13" d="M24.718 38.387C24.718 38.387 24.718 38.387 25.353 39.658C25.353 39.658 25.353 39.658 26.286 39.954C26.286 39.954 26.286 39.954 26.708 40.759C26.708 40.759 26.708 40.759 27.26 41.182C27.26 41.182 27.26 41.182 27.981 40.887C27.981 40.887 27.981 40.887 27.725 40.039C27.725 40.039 28.32 39.7 28.489 39.7C28.574 39.7 28.849 39.594 29.103 39.487"/>
  <path stroke-width="0.13" d="M27.556 34.573C27.556 34.573 27.556 34.573 27.048 35.378C27.048 35.378 27.472 35.673 27.599 35.673C27.725 35.673 27.937 36.012 27.937 36.012C27.937 36.012 27.937 36.012 27.26 36.734C27.26 36.734 27.048 37.158 26.92 37.158C26.92 37.158 26.92 37.158 28.277 37.368C28.277 37.368 28.277 37.368 28.998 37.03C29.632 36.86 30.437 37.539 30.437 37.539C30.437 37.539 30.905 37.2 30.861 37.073C30.82 36.945 31.37 36.606 31.158 36.521C30.946 36.436 31.539 35.886 31.539 35.886C31.539 35.886 32.557 35.25 32.429 35.165C32.302 35.081 32.134 34.868 31.922 34.784C31.71 34.7 30.946 34.7 30.734 34.53C30.522 34.36 30.225 34.064 30.225 34.064C30.225 34.064 30.65 33.512 30.353 33.512C29.506 33.512 28.574 34.445 28.574 34.445C28.574 34.445 28.446 34.826 28.32 34.826C28.193 34.826 27.556 34.573 27.556 34.573z"/>
  <path stroke-width="0.13" d="M34.04 34.615C34.04 34.615 34.04 34.615 34.295 35.335C34.295 35.335 34.295 35.335 35.524 34.7C35.524 34.7 35.524 34.7 36.329 34.149C36.329 34.149 36.582 33.81 36.456 33.725C36.329 33.64 36.337 33.5 36.158 33.47C35.651 33.386 35.057 33.895 35.057 33.895C34.421 33.768 34.35 33.719 34.125 33.682C33.871 33.64 34.463 34.445 34.337 34.402C34.21 34.36 34.167 34.53 34.04 34.615z"/>
  <path stroke-width="0.13" d="M37.939 32.75C37.939 32.75 37.939 32.75 38.533 31.733C39.167 31.564 39.93 30.844 39.93 30.844C40.051 30.894 40.158 31.103 40.243 31.329"/>
  <path stroke-width="0.2" d="M52.198 23.85C52.198 23.85 52.198 23.85 32.24 36.881C32.24 36.881 30.015 38.216 28.615 40.442C28.615 40.442 27.6 42.411 27.504 43.524"/>
  <path stroke-width="0.2" d="M52.579 25.312C52.326 25.376 34.908 36.755 33.892 37.581C33.892 37.581 32.081 38.756 31.318 39.646C31.318 39.646 29.888 40.887 29.219 43.683"/>
  <path stroke-width="0.2" d="M35.226 36.692C35.226 36.692 37.801 35.261 39.2 34.847C40.067 34.591 41.011 34.402 41.71 34.561C42.409 34.72 42.601 35.506 41.774 36.659C40.884 37.899 38.628 39.646 35.64 40.887C33.665 41.706 31.89 41.808 31.254 41.84C31.254 41.84 30.841 41.871 30.268 41.777"/>
  <path stroke-width="0.2" d="M33.192 40.155C33.892 40.06 34.941 39.71 36.149 39.139C37.356 38.567 39.359 37.295 39.993 36.659C40.63 36.024 40.375 35.896 39.963 35.96C39.549 36.024 37.801 36.659 36.149 37.612C34.496 38.567 32.844 40.06 32.844 40.06C32.844 40.06 32.176 40.917 32.081 41.109"/>
  <path stroke-width="0.13" d="M19.675 36.564C19.675 36.564 19.675 36.564 20.437 36.691C20.437 36.691 20.437 36.691 20.777 37.284C20.777 37.284 20.777 37.284 21.623 37.284C21.623 37.284 21.623 37.284 21.03 38.048C21.03 38.048 21.03 38.048 20.777 38.938C20.099 38.768 20.14 39.53 20.14 39.53C20.14 39.53 20.14 39.53 17.852 38.048C17.852 38.048 17.852 38.048 18.065 36.987C18.065 36.987 18.065 36.987 17.852 35.759C17.852 35.759 17.852 35.759 17.894 35.124C17.894 35.124 17.894 35.124 17.809 34.36C17.809 34.36 17.809 34.36 18.149 35.292C18.149 35.292 18.149 35.292 18.446 36.225C18.446 36.225 18.446 36.225 18.826 36.902C19.123 36.649 19.292 36.055 19.292 36.055C19.292 36.055 19.292 36.055 19.675 36.564z"/>
  <path stroke-width="0.13" d="M42.25 33.29C42.25 33.29 42.25 33.29 43.014 32.051C43.014 32.051 44.222 31.733 44.125 31.765C44.03 31.797 43.966 32.527 43.966 32.527C43.966 32.527 43.966 32.527 43.362 33.195C43.362 33.195 43.362 33.195 42.854 33.671C42.854 33.671 42.854 33.671 42.25 33.29z"/>
  <path stroke-width="0.13" d="M43.999 34.942C43.999 34.942 43.999 34.942 45.429 34.753C45.429 34.753 46.064 35.198 46.161 35.198C46.255 35.198 46.319 35.737 46.319 35.737C46.319 35.737 46.319 35.737 45.429 36.436C45.429 36.436 45.429 36.436 44.125 35.006"/>
  <path stroke-width="0.13" d="M41.17 37.709L43.014 37.104L43.554 36.819L43.585 37.645L42.759 38.28L41.17 39.52L40.057 39.36L40.375 38.63L41.17 37.709z"/>
  <path stroke-width="0.13" d="M44.508 32.177L44.539 33.005L45.365 33.131L46.478 32.368L47.146 32.274L48.036 32.878L48.576 32.274L49.497 31.161L49.752 30.429L48.703 31.32L47.527 31.606L46.478 31.765L45.652 32.241L45.174 32.21L44.508 32.177z"/>
 </g>
 <g id="Picture_x0020_#">
  <text transform="matrix(0 -6 6 0 73.817 114.477)" stroke="none" fill="#000000" font-family="'Helvetica'" font-size="0.353">413 379</text>
 </g>
</svg>
