<svg xmlns="http://www.w3.org/2000/svg" clip-rule="evenodd" fill="none" fill-rule="evenodd" stroke="#000000" stroke-linecap="round" viewBox="0 0 75.006 49.984" width="100%" height="100%" xmlns:xml="http://www.w3.org/XML/1998/namespace" xml:space="preserve">
 <g id="A4_x0020_full_x0020_frame">
  <polygon stroke="#ffffff" stroke-linejoin="round" stroke-width="0.006" points="0.003,0.003 75.003,0.003 75.003,49.981 0.003,49.981 0.003,0.003" />
 </g>
 <g id="Colour">
 </g>
 <g id="Standard_x0020_layer">
  <path stroke-linejoin="round" stroke-width="0.3" d="M 8.778 12.39 C 13.192 11.827 15.038 10.945 25.71 6.692 C 36.384 2.438 38.472 0.833 45.133 0.833 C 51.793 0.833 54.923 2.839 61.905 10.544 C 68.888 18.248 71.054 21.378 71.695 25.309 C 72.338 29.242 72.257 31.248 72.739 32.212 C 73.221 33.174 73.221 33.896 73.221 33.896 C 73.221 33.896 72.222 35.89 71.739 36.521 C 71.257 37.149 71.111 37.213 71.111 37.779 C 71.111 38.345 71.174 38.24 71.027 38.576 C 70.879 38.911 70.418 39.457 70.438 39.835 C 70.459 40.213 70.501 41.493 69.894 41.892 C 69.284 42.289 68.802 42.542 68.781 42.773 C 68.76 43.003 68.718 43.863 68.635 43.843 C 68.551 43.822 68.131 43.612 67.879 43.381 C 67.628 43.151 67.775 43.024 67.501 43.003 C 67.228 42.982 66.62 43.109 66.62 42.604 C 66.62 42.101 67.102 39.143 67.102 39.185" />
  <path stroke-linejoin="round" stroke-width="0.3" d="M 68.635 41.115 C 68.088 40.801 67.628 39.667 66.977 38.975 C 66.326 38.283 59.256 32.073 59.213 32.073 C 59.171 32.073 58.164 32.073 58.164 32.073 C 58.164 32.073 56.948 31.233 55.101 30.646 C 53.256 30.057 52.249 29.722 52.122 29.638 C 51.996 29.554 52.039 29.344 51.703 29.092 C 51.366 28.841 50.863 28.716 50.863 28.463 C 50.863 28.211 50.822 27.33 50.527 27.373 C 50.234 27.414 49.773 28.044 49.353 28.379 C 48.932 28.716 48.723 28.673 48.429 28.463 C 48.136 28.254 40.54 26.617 24.931 29.849" />
  <path stroke-linejoin="round" stroke-width="0.13" d="M 25.853 26.742 C 31.768 25.405 43.942 24.42 49.798 25.827" />
  <path stroke-linejoin="round" stroke-width="0.13" d="M 51.561 26.344 C 56.295 27.865 58.24 29.362 58.668 29.597 C 59.13 29.849 59.381 30.897 59.423 31.149" />
  <path stroke-linejoin="round" stroke-width="0.13" d="M 31.455 18.28 C 38.661 16.149 45.189 15.234 49.856 16.182 C 54.524 17.129 56.25 19.125 57.805 21.391 C 59.362 23.658 59.734 27.582 59.768 29.239" />
  <path stroke-linejoin="round" stroke-width="0.13" d="M 36.069 19.919 C 38.078 19.434 40.003 19.065 41.811 18.839" />
  <path stroke-linejoin="round" stroke-width="0.13" d="M 45.768 18.58 C 47.042 18.585 48.225 18.692 49.304 18.911 C 50.442 19.141 51.368 19.442 52.137 19.809 C 52.628 20.042 53.048 20.306 53.417 20.591" />
  <path stroke-linejoin="round" stroke-width="0.13" d="M 55.091 22.37 C 55.234 22.567 55.372 22.765 55.511 22.968 C 56.441 24.321 56.787 26.425 56.915 27.963" />
  <path stroke-linejoin="round" stroke-width="0.13" d="M 69.168 40.848 C 68.621 40.533 68.161 39.401 67.51 38.709 C 66.893 38.051 60.493 32.424 59.807 31.853" />
  <path stroke-linejoin="round" stroke-width="0.13" d="M 70.007 40.393 C 69.939 40.792 69.798 41.182 69.507 41.374 C 68.899 41.771 68.415 42.024 68.394 42.255 C 68.382 42.386 68.364 42.719 68.334 42.981" />
  <path stroke-linejoin="round" stroke-width="0.3" d="M 63.642 18.574 C 64.334 19.321 64.733 20.12 65.533 20.306 C 66.331 20.492 66.917 20.466 67.236 20.466 C 67.557 20.466 67.689 20.865 67.903 21.798 C 68.115 22.73 68.727 25.365 68.834 25.818 C 68.941 26.271 68.834 26.457 68.621 26.67 C 68.409 26.884 68.355 26.856 68.435 27.362 C 68.515 27.868 68.515 28.8 68.462 28.96" />
  <path stroke-linejoin="round" stroke-width="0.3" d="M 63.642 18.574 C 63.456 18.282 63.243 18.548 63.429 19.027 C 63.615 19.507 63.881 21.743 63.854 22.356 C 63.828 22.969 63.962 23.661 64.706 24.699 C 65.453 25.739 68.754 29.414 68.754 29.414" />
  <path stroke-linejoin="round" stroke-width="0.13" d="M 68.754 29.414 C 69.021 29.547 69.128 29.839 69.048 28.189" />
  <path stroke-linejoin="round" stroke-width="0.13" d="M 69.153 26.99 C 69.474 26.698 69.421 26.405 69.26 25.686 C 69.1 24.966 68.621 21.611 68.382 21.132 C 68.141 20.652 68.114 20.492 67.236 20.466" />
  <path stroke-linejoin="round" stroke-width="0.13" d="M 50.572 25.618 C 50.091 26.004 50.058 26.388 50.219 26.644" />
  <path stroke-linejoin="round" stroke-width="0.13" d="M 50.795 25.923 C 50.38 26.437 50.655 26.751 50.731 27.286" />
  <path stroke-linejoin="round" stroke-width="0.3" d="M 53.921 23.071 C 53.616 23.327 53.729 23.472 53.729 23.647 C 53.729 23.824 53.746 24.001 53.746 24.001 C 53.746 24.001 53.488 24.161 53.457 24.336 C 53.424 24.513 53.536 24.737 53.536 24.737 C 53.536 24.737 53.249 25.042 53.36 25.219 C 53.472 25.394 53.713 25.586 53.921 25.379 C 54.13 25.17 54.194 24.85 54.146 24.658 C 54.097 24.464 53.921 24.193 53.921 24.193 C 53.921 24.193 54.194 24.176 54.13 23.871 C 54.066 23.568 53.954 23.455 54.002 23.375 C 54.049 23.295 54.371 22.975 54.354 22.701 C 54.338 22.429 54.161 22.414 54.354 22.125 C 54.546 21.836 54.884 21.564 54.884 21.371 C 54.884 21.179 54.963 21.146 55.219 21.082 C 55.476 21.018 56.006 20.635 55.749 20.41 C 55.493 20.185 55.316 20.106 55.091 20.314 C 54.868 20.521 54.787 20.939 54.722 20.986 C 54.658 21.035 54.259 21.179 54.194 21.356 C 54.13 21.532 54.194 21.725 54.13 21.821 C 54.066 21.917 53.729 22.221 53.826 22.333 C 53.921 22.446 54.018 22.978 53.921 23.071 Z" />
  <path stroke-linejoin="round" stroke-width="0.3" d="M 48.551 21.435 C 48.408 21.757 48.183 21.885 48.423 22.028 C 48.664 22.172 48.649 22.236 48.536 22.382 C 48.423 22.525 48.072 22.911 48.247 23.103 C 48.423 23.295 48.761 23.664 48.472 23.969 C 48.183 24.272 47.606 24.69 47.798 24.208 C 47.99 23.728 48.119 23.536 48.072 23.423 C 48.023 23.31 47.719 23.086 47.862 22.847 C 48.006 22.606 47.99 22.397 47.942 22.333 C 47.895 22.268 47.703 22.045 47.783 21.885 C 47.862 21.725 48.039 21.339 47.591 21.324 C 47.142 21.307 46.645 21.228 46.484 21.067 C 46.323 20.907 45.731 20.795 46.148 20.521 C 46.564 20.25 46.901 20.314 47.109 20.474 C 47.317 20.635 47.606 20.763 47.942 20.635 C 48.28 20.506 48.68 20.746 48.697 20.763 C 48.713 20.778 49.048 20.763 49.402 20.699 C 49.755 20.635 49.994 20.986 50.011 21.018 C 50.027 21.05 50.17 21.179 50.427 21.114 C 50.683 21.05 50.924 21.003 51.1 21.196 C 51.277 21.388 51.853 21.628 51.966 21.596 C 52.079 21.564 52.43 21.74 52.414 21.996 C 52.399 22.253 52.607 22.429 52.655 22.557 C 52.704 22.686 52.494 23.086 52.655 23.199 C 52.816 23.31 53.039 23.679 52.975 23.888 C 52.911 24.097 52.783 24.626 52.478 24.481 C 52.174 24.336 51.774 24.289 52.079 24.048 C 52.383 23.807 52.463 23.664 52.463 23.664 C 52.463 23.664 52.11 23.6 52.094 23.295 C 52.079 22.99 52.191 22.525 52.127 22.461 C 52.063 22.397 51.42 22.286 51.356 22.157 C 51.292 22.028 50.877 21.836 50.619 21.804 C 50.363 21.772 49.978 21.996 49.819 21.675 C 49.658 21.356 49.064 21.435 49.033 21.42" />
  <path stroke-linejoin="round" stroke-width="0.3" d="M 43.103 23.306 C 42.973 23.089 42.857 22.859 42.981 22.673 C 43.103 22.486 43.225 22.341 43.139 22.269 C 43.052 22.198 42.765 22.091 42.865 21.875 C 42.966 21.658 43.081 21.6 43.052 21.414 C 43.024 21.227 42.728 20.817 42.872 20.716 C 43.017 20.615 43.375 20.53 43.246 20.219 C 43.116 19.911 42.951 19.817 43.095 19.615 C 43.24 19.414 43.39 19.335 43.276 19.176 C 43.161 19.018 42.893 18.687 42.981 18.428 C 43.067 18.17 43.167 18.163 43.161 18.134 C 43.152 18.105 42.793 17.385 43.218 17.399 C 43.643 17.414 43.829 17.263 43.692 17.573 C 43.555 17.882 43.484 18.077 43.542 18.134 C 43.598 18.192 43.865 18.501 43.758 18.701 C 43.649 18.903 43.548 19.12 43.621 19.263 C 43.692 19.407 44.009 19.731 43.844 20.054 C 43.679 20.378 43.362 20.644 43.499 20.766 C 43.634 20.888 43.765 20.996 43.664 21.227 C 43.563 21.457 43.326 21.78 43.362 21.846 C 43.398 21.911 43.872 22.163 43.75 22.428 C 43.628 22.695 43.779 22.917 43.872 23.025 C 43.966 23.134 44.009 23.83 43.499 23.643" />
  <path stroke-linejoin="round" stroke-width="0.2" d="M 10.041 32.548 C 10.833 32.179 11.468 31.545 12.287 30.778 C 13.105 30.013 13.977 29.96 14.664 29.615 C 15.352 29.272 16.25 28.585 17.518 28.321 C 18.786 28.057 19.684 27.899 20.661 28.321 C 21.638 28.745 23.594 29.035 23.541 29.696 C 23.487 30.356 22.932 31.835 21.347 31.914 C 19.763 31.993 19.393 31.888 19.393 31.888 C 19.393 31.888 19.155 32.152 18.495 32.575 C 17.835 32.997 17.28 32.786 17.147 33.71 C 17.015 34.636 16.567 40.71 12.314 44.805" />
  <path stroke-linejoin="round" stroke-width="0.2" d="M 10.516 26.076 C 7.663 28.137 5.921 30.673 5.498 31.888 C 5.075 33.103 5.075 37.223 3.859 39.125 C 2.645 41.029 2.434 41.398 2.434 41.398" />
  <path stroke-linejoin="round" stroke-width="0.3" d="M 12.91 30.32 C 12.939 30.32 13.061 28.574 13.061 28.574 C 13.061 28.574 11.448 28.312 11.272 28.312 C 11.099 28.312 11.099 28.05 11.099 27.832 C 11.099 27.614 11.121 27.571 11.339 27.548 C 11.557 27.527 11.993 27.484 11.971 27.265 C 11.949 27.047 11.797 26.96 11.49 26.894 C 11.185 26.829 11.141 26.589 11.163 26.327 C 11.185 26.065 10.596 26.219 10.4 25.695 C 10.204 25.172 10.247 24.321 10.247 24.298" />
  <path stroke-linejoin="round" stroke-width="0.3" d="M 20.129 27.942 C 20.129 27.942 22.681 28.073 23.03 28.028 C 23.379 27.986 23.51 27.92 23.51 27.571 C 23.51 27.222 23.728 27.112 23.096 27.091 C 22.463 27.068 22.114 27.112 22.114 27.091 C 22.114 27.068 22.222 25.411 22.353 25.411 C 22.484 25.411 23.051 25.432 23.335 25.346 C 23.618 25.259 23.663 25.128 23.728 24.626 C 23.794 24.125 23.728 20.437 23.707 20.198 C 23.684 19.957 23.335 19.739 23.03 19.718 C 22.725 19.696 17.664 19.368 17.14 19.347 C 16.617 19.326 11.208 20.198 11.208 20.198" />
  <path stroke-linejoin="round" stroke-width="0.13" d="M 17.359 19.739 L 17.599 24.146" />
  <path stroke-linejoin="round" stroke-width="0.13" d="M 15.199 25.346 L 17.425 25.018" />
  <path stroke-linejoin="round" stroke-width="0.13" d="M 17.948 24.975 C 17.992 24.975 22.463 25.28 22.463 25.28" />
  <path stroke-linejoin="round" stroke-width="0.13" d="M 12.102 27.199 C 12.909 27.353 13.148 27.288 13.148 26.786" />
  <path stroke-linejoin="round" stroke-width="0.13" d="M 13.279 27.157 C 13.279 27.157 16.289 26.96 16.574 26.96 C 16.856 26.96 22.114 27.091 22.114 27.091" />
  <path stroke-linejoin="round" stroke-width="0.13" d="M 13.061 28.574 C 13.061 28.574 14.871 28.53 14.894 28.53" />
  <path stroke-linejoin="round" stroke-width="0.13" d="M 21.612 29.184 C 22.071 29.556 22.353 29.839 22.507 29.818" />
  <path stroke-linejoin="round" stroke-width="0.2" d="M 23.541 29.696 C 24.579 30.327 25.283 30.795 24.861 31.548 C 24.437 32.298 23.216 32.814 22.653 32.722" />
  <path stroke-linejoin="round" stroke-width="0.3" d="M 22.25 31.682 C 22.25 31.876 25.001 38.308 25.611 39.389 C 26.222 40.469 26.644 41.079 25.611 41.125 C 24.579 41.173 24.25 41.267 24.202 40.984 C 24.155 40.703 23.452 39.06 23.358 38.918 C 23.263 38.777 18.89 32.305 18.89 32.305" />
  <path stroke-linejoin="round" stroke-width="0.3" d="M 18.495 32.575 C 18.495 32.575 18.099 37.088 18.006 38.637 C 17.911 40.186 17.864 44.177 17.536 44.881 C 17.207 45.585 17.724 45.774 16.69 45.774 C 15.657 45.774 13.733 45.774 13.733 45.774" />
  <path stroke-linejoin="round" stroke-width="0.3" d="M 14.425 24.082 C 14.425 24.109 3.677 24.246 3.391 24.164 C 3.104 24.082 2.94 23.699 2.613 23.658 C 2.285 23.617 1.629 23.399 1.629 23.399 C 1.629 23.399 1.042 22.402 1.014 22.143 C 0.988 21.884 1.355 21.611 1.752 21.556 C 2.148 21.501 3.337 21.036 3.363 21.024 C 3.391 21.01 5.139 20.121 5.74 20.204 C 6.341 20.286 15.189 20.655 15.189 20.655" />
  <path stroke-linejoin="round" stroke-width="0.3" d="M 15.189 20.655 C 15.298 20.655 15.353 20.873 15.339 21.16 C 15.326 21.446 15.298 21.843 15.422 21.843 C 15.544 21.843 16.132 21.925 16.295 21.992 C 16.46 22.062 15.955 22.525 15.955 22.553 C 15.955 22.579 15.121 22.443 15.134 22.608 C 15.148 22.771 15.053 24.065 14.425 24.082" />
  <path stroke-linejoin="round" stroke-width="0.13" d="M 2.523 21.977 C 2.523 21.977 4.357 21.788 5.019 21.768 C 5.682 21.75 9.029 21.635 10.807 21.635 C 12.586 21.635 15.422 21.843 15.422 21.843" />
  <path stroke-linejoin="round" stroke-width="0.13" d="M 16.765 19.934 C 16.481 20.067 16.501 20.368 16.728 20.407" />
  <path stroke-linejoin="round" stroke-width="0.13" d="M 17.05 23.925 C 16.67 24.057 16.823 24.379 16.974 24.454" />
  <path stroke-linejoin="round" stroke-width="0.13" d="M 19.754 26.006 C 20.396 26.006 20.324 25.946 20.207 25.533" />
  <path stroke-linejoin="round" stroke-width="0.13" d="M 10.952 26.14 C 10.929 26.14 12.037 26.044 12.055 26.024" />
  <path stroke-linejoin="round" stroke-width="0.13" d="M 12.49 25.929 C 12.49 25.929 13.436 25.835 13.436 25.817" />
  <path stroke-linejoin="round" stroke-width="0.13" d="M 13.644 24.757 C 13.644 24.757 13.74 25.722 14.041 25.684 C 14.345 25.646 14.25 25.23 14.345 24.757" />
  <path stroke-linejoin="round" stroke-width="0.13" d="M 14.249 25.489 C 14.364 25.489 14.836 25.457 14.836 25.457" />
  <path stroke-linejoin="round" stroke-width="0.3" d="M 23.718 20.503 C 23.85 20.503 30.626 21.003 31.175 21.103 C 31.725 21.202 32.173 22.051 32.274 22.3 C 32.374 22.55 32.439 23.649 32.24 23.932 C 32.04 24.216 31.69 24.599 31.457 24.614 C 31.225 24.632 23.832 24.632 23.832 24.632" />
  <line stroke-linejoin="round" stroke-width="0.13" x1="24.416" y1="23.35" x2="31.524" y2="23.632" />
  <line stroke-linejoin="round" stroke-width="0.13" x1="31.658" y1="22.417" x2="24.449" y2="22.102" />
  <path stroke-linejoin="round" stroke-width="0.3" d="M 32.274 22.3 C 32.274 22.3 41.963 22.766 42.079 22.783 C 42.195 22.8 42.362 23.199 42.362 23.199 C 42.362 23.199 42.927 23.278 43.103 23.306 C 43.277 23.332 43.328 23.649 43.128 23.699 C 42.929 23.75 42.463 23.765 42.463 23.765 L 42.012 23.998 C 42.012 23.998 32.406 23.699 32.406 23.716" />
 </g>
 <g id="Blow-up">
 </g>
 <g id="Symbols">
 </g>
 <g id="Text&amp;Poses">
 </g>
 <g id="Measures">
 </g>
 <g id="Picture_x0020_#">
  <text font-family="'Arial'" font-size="2.117" fill="#000000" stroke="none" transform="matrix(0 -1 1 0 73.817 48.968)">419 177</text>
 </g>
<style /></svg>