<svg xmlns="http://www.w3.org/2000/svg" clip-rule="evenodd" fill="none" fill-rule="evenodd" stroke="#000000" stroke-linecap="round" viewBox="0 0 75.006 53.14" width="100%" height="100%" xmlns:xml="http://www.w3.org/XML/1998/namespace" xml:space="preserve">
 <g id="A4_x0020_half_x0020_frame">
  <polygon stroke="#ffffff" stroke-linejoin="round" stroke-width="0.006" points="0.003,0.003 75.003,0.003 75.003,53.137 0.003,53.137 0.003,0.003" />
 </g>
 <g id="Colour">
 </g>
 <g id="Standard_x0020_layer">
  <path stroke-linejoin="round" stroke-width="0.3" d="M 2.735 7.609 C 3.687 8.352 5.381 8.766 6.578 8.724 C 7.777 8.682 11.413 9.179 11.785 9.262" />
  <path stroke-linejoin="round" stroke-width="0.3" d="M 2.407 24.984 C 3.535 26.19 4.831 26.998 5.61 27.257 C 6.387 27.516 7.363 27.41 7.363 27.41 C 7.363 27.41 8.644 27.882 9.574 27.821 C 10.506 27.76 10.917 27.562 10.932 27.562 C 10.948 27.562 11.435 27.593 12 27.394 C 12.564 27.196 12.808 26.968 12.823 26.968 C 12.839 26.968 13.48 27.059 13.997 26.8 C 14.516 26.541 14.73 26.053 14.791 26.053 C 14.852 26.053 16.178 25.809 16.728 25.06" />
  <path stroke-linejoin="round" stroke-width="0.3" d="M 30.166 15.452 C 30.166 15.452 18.605 4.501 17.811 3.922 C 17.018 3.342 16.53 3.647 16.042 4.318 C 15.554 4.99 14.669 6.027 14.669 6.027 C 14.669 6.027 13.936 5.935 13.541 6.423 C 13.144 6.91 13.358 7.307 13.358 7.338 C 13.358 7.368 9.818 11.64 9.727 11.701 C 9.635 11.762 8.964 11.669 8.721 12.006 C 8.477 12.34 8.782 13.103 8.63 13.317 C 8.477 13.531 7.867 14.231 7.775 14.414 C 7.684 14.598 7.927 14.628 8.019 14.75 C 8.111 14.872 17.414 26.038 18.117 26.617 C 18.818 27.196 19.214 27.074 19.55 26.861 C 19.885 26.647 22.295 25.243 22.326 25.274 C 22.356 25.304 22.722 25.855 23.118 26.038 C 23.515 26.221 23.76 26.099 23.76 26.099 C 23.76 26.099 28.426 31.01 28.762 31.344 C 29.097 31.681 29.068 32.595 29.524 32.84 C 29.983 33.084 30.227 33.054 30.532 33.054 C 30.836 33.054 30.897 33.084 30.897 33.145 C 30.897 33.206 31.934 34.67 32.85 35.036 C 33.765 35.402 34.195 35.34 34.679 35.158 C 35.411 34.884 36.267 34.213 36.267 34.213 C 36.267 34.213 36.45 34.884 37.029 35.402 C 37.609 35.92 41.085 38.909 41.756 39.368 C 42.174 39.652 42.593 39.749 42.848 39.78" />
  <path stroke-linejoin="round" stroke-width="0.3" d="M 40.963 36.53 C 40.963 36.347 39.134 34.945 38.768 34.518 C 38.402 34.091 38.188 33.755 37.944 33.511 C 37.7 33.267 37.334 33.115 37.334 33.115 C 37.334 33.115 38.31 31.925 37.761 30.917 C 37.212 29.911 36.694 29.239 36.694 29.239 C 36.694 29.239 36.784 28.507 36.267 27.958 C 35.747 27.41 34.192 25.548 34.192 25.518 C 34.192 25.487 34.07 24.817 33.887 24.634" />
  <path stroke-linejoin="round" stroke-width="0.3" d="M 40.637 7.753 C 41.058 8.053 41.689 8.246 42.024 8.298 C 42.356 8.35 43.234 8.807 43.375 9.579 C 43.515 10.352 43.146 11.141 43.252 11.211 C 43.357 11.282 43.972 12.035 43.902 13.002 C 43.831 13.967 43.795 13.878 43.252 14.65 C 42.707 15.423 40.987 17.582 40.795 17.792 C 40.601 18.003 40.338 18.512 40.146 18.792 C 39.953 19.074 38.145 21.056 37.53 21.652 C 36.917 22.25 35.301 23.777 34.951 23.986 C 34.6 24.198 33.758 24.847 33.353 24.742 C 32.951 24.637 32.582 24.373 32.442 23.969 C 32.301 23.565 32.283 22.882 32.249 22.899 C 32.213 22.917 31.512 22.917 31.265 22.565 C 31.019 22.214 30.914 22.056 31.056 21.548 C 31.196 21.039 31.458 19.827 31.458 19.827 C 31.458 19.827 31.038 19.687 31.003 19.687 C 30.968 19.687 30.019 20.056 29.739 19.495 C 29.458 18.932 29.318 18.67 29.528 18.301 C 29.739 17.932 30.178 17.442 30.178 17.442 C 30.178 17.442 30.038 16.108 30.196 15.212 C 30.353 14.317 30.37 14.317 30.37 14.317 C 30.37 14.317 30.423 12.387 30.757 11.492 C 31.091 10.596 31.423 8.789 32.125 7.649 C 32.828 6.508 33.828 5.227 36.566 5.894" />
  <path stroke-linejoin="round" stroke-width="0.3" d="M 36.021 2.858 C 35.267 3.594 35 5.323 35.02 5.714" />
  <path stroke-linejoin="round" stroke-width="0.3" d="M 44.34 5.894 C 44.481 7.105 43.613 8.961 43.344 9.455" />
  <path stroke-linejoin="round" stroke-width="0.3" d="M 43.344 10.57 C 44.34 10.807 44.796 11.194 45.463 10.807 C 46.13 10.422 46.78 9.737 47.165 9.263 C 47.551 8.789 47.99 8.49 47.902 7.684 C 47.814 6.876 47.814 5.7 48.253 4.631 C 48.692 3.56 49.026 2.911 49.008 2.648" />
  <path stroke-linejoin="round" stroke-width="0.3" d="M 34.706 1.681 C 33.758 2.788 33.337 3.297 33.091 4.192 C 32.845 5.086 33.161 6.525 33.161 6.525" />
  <path stroke-linejoin="round" stroke-width="0.3" d="M 29.946 20.102 C 30.033 20.364 29.829 21.295 29.829 21.295 C 29.829 21.295 30.498 21.992 30.527 21.963 C 30.556 21.934 30.856 21.9 30.963 22.079" />
  <path stroke-linejoin="round" stroke-width="0.3" d="M 38.904 20.684 C 38.904 20.684 72.352 22.254 72.409 22.254" />
  <path stroke-linejoin="round" stroke-width="0.3" d="M 34.421 24.468 C 34.444 24.468 40.996 35.469 40.996 35.469" />
  <path stroke-linejoin="round" stroke-width="0.3" d="M 41.478 35.206 C 41.478 35.206 34.969 24.138 34.969 24.182" />
  <path stroke-linejoin="round" stroke-width="0.3" d="M 40.426 34.834 C 40.097 35.097 40.426 35.776 41.194 37.024 C 41.96 38.274 42.814 40.006 43.253 40.18 C 43.692 40.356 44.655 40.399 45.116 40.378" />
  <path stroke-linejoin="round" stroke-width="0.3" d="M 45.006 39.435 C 44.195 39.283 44.085 39.698 43.472 38.186 C 42.859 36.674 42.179 35.228 41.96 34.878 C 41.741 34.527 41.402 34.371 41.045 34.47" />
  <path stroke-linejoin="round" stroke-width="0.3" d="M 40.621 35.387 C 41.006 35.552 41.395 35.585 41.585 34.932" />
  <path stroke-linejoin="round" stroke-width="0.13" d="M 40.695 35.713 C 41.134 35.801 41.573 35.722 41.767 35.301" />
  <path stroke-linejoin="round" stroke-width="0.13" d="M 42.985 38.695 C 43.515 39.521 43.823 39.712 44.438 39.692" />
  <path stroke-linejoin="round" stroke-width="0.13" d="M 30.164 17.295 C 30.352 18.155 30.254 19.623 31.003 19.687 C 31.751 19.751 32.389 19.751 32.854 18.353 C 33.32 16.954 33.542 15.308 33.713 14.499 C 33.886 13.689 35.334 10.571 35.628 9.589" />
  <path stroke-linejoin="round" stroke-width="0.13" d="M 35.579 10.571 C 35.259 12.486 35.377 12.484 33.612 15.025" />
  <path stroke-linejoin="round" stroke-width="0.13" d="M 31.382 17.297 C 32.29 17.1 32.412 17.469 32.462 17.591" />
  <path stroke-linejoin="round" stroke-width="0.13" d="M 32.249 22.899 C 32.805 22.917 33.469 22.868 34.082 21.445 C 34.695 20.021 34.744 19.702 35.186 19.039 C 35.628 18.376 37.96 15.529 38.279 14.621 C 38.598 13.714 39.432 11.086 39.432 11.063" />
  <path stroke-linejoin="round" stroke-width="0.13" d="M 42.231 12.56 C 41.347 14.057 40.561 17.37 39.923 18.303 C 39.286 19.236 34.979 23.664 34.966 23.826" />
  <path stroke-linejoin="round" stroke-width="0.13" d="M 34.401 22.231 C 34.695 22.475 34.843 22.917 34.819 23.138" />
  <path stroke-linejoin="round" stroke-width="0.13" d="M 32.634 20.708 C 33.247 20.708 33.518 21.051 33.518 21.469" />
  <path stroke-linejoin="round" stroke-width="0.13" d="M 9.204 21.274 C 10.458 22.858 14.125 26.129 14.791 26.053" />
  <path stroke-linejoin="round" stroke-width="0.13" d="M 7.198 23.891 C 8.483 24.503 11.397 26.768 12.823 26.968" />
  <path stroke-linejoin="round" stroke-width="0.13" d="M 5.567 24.989 C 7.573 26.102 9.477 27.675 10.454 27.704" />
  <path stroke-linejoin="round" stroke-width="0.13" d="M 3.452 25.364 C 4.346 25.82 6.756 27.239 7.197 27.422" />
  <path stroke-linejoin="round" stroke-width="0.13" d="M 10.861 10.878 C 11.336 10.632 12.013 10.891 12.144 11.08" />
  <path stroke-linejoin="round" stroke-width="0.13" d="M 12.707 10.676 L 17.522 4.634 C 17.522 4.634 17.248 4.012 16.83 4.057" />
  <path stroke-linejoin="round" stroke-width="0.13" d="M 17.379 9.782 C 17.379 9.782 27.661 18.65 28.251 19.92" />
  <path stroke-linejoin="round" stroke-width="0.13" d="M 12.778 11.468 C 12.778 11.483 18.647 17.454 20.204 18.968 C 21.763 20.481 24.387 23.135 24.545 23.365 C 24.704 23.597 25.079 24.073 25.036 24.448" />
  <path stroke-linejoin="round" stroke-width="0.13" d="M 23.673 26.125 C 24.934 25.557 26.737 24.245 28.108 22.544 C 29.478 20.843 29.679 19.66 29.679 19.66" />
  <path stroke-linejoin="round" stroke-width="0.13" d="M 29.016 22.341 C 29.016 22.428 30.155 23.381 30.155 23.381 C 30.155 23.381 30.564 22.871 30.675 22.414" />
  <path stroke-linejoin="round" stroke-width="0.13" d="M 27.603 24.086 C 27.603 24.102 28.699 25.182 28.699 25.182 C 28.699 25.182 29.449 24.562 29.679 24.015" />
  <path stroke-linejoin="round" stroke-width="0.13" d="M 27.271 24.403 C 27.271 24.419 28.367 25.573 28.382 25.615 C 28.396 25.658 27.775 26.106 27.373 26.307" />
  <path stroke-linejoin="round" stroke-width="0.13" d="M 25.67 25.557 C 25.768 25.614 26.652 26.466 26.724 26.539 C 26.795 26.611 26.434 26.899 26.03 26.986" />
  <path stroke-linejoin="round" stroke-width="0.13" d="M 30.689 24.001 C 30.689 24.044 33.183 26.682 33.183 26.653 C 33.183 26.625 33.689 26.294 33.746 25.528" />
  <path stroke-linejoin="round" stroke-width="0.13" d="M 33.819 27.303 C 33.859 27.326 35.534 29.307 35.649 29.379 C 35.765 29.452 36.024 29.047 36.082 28.513" />
  <path stroke-linejoin="round" stroke-width="0.13" d="M 29.175 25.557 C 29.175 25.586 31.771 28.239 31.856 28.297 C 31.943 28.356 32.463 27.879 32.636 27.461" />
  <path stroke-linejoin="round" stroke-width="0.13" d="M 28.771 25.975 C 28.786 25.975 31.353 28.6 31.396 28.731 C 31.439 28.859 30.76 29.481 30.4 29.653" />
  <path stroke-linejoin="round" stroke-width="0.13" d="M 27.07 26.885 C 27.12 26.914 29.621 29.768 29.737 29.884 C 29.853 30 29.679 30.259 28.958 30.388" />
  <path stroke-linejoin="round" stroke-width="0.13" d="M 30.414 30.431 C 30.429 30.431 32.521 32.436 32.549 32.494 C 32.578 32.551 32.103 32.868 31.713 32.942" />
  <path stroke-linejoin="round" stroke-width="0.13" d="M 32.073 29.321 C 32.154 29.368 34.177 31.501 34.149 31.484 C 34.121 31.469 33.429 32.018 33.198 32.176" />
  <path stroke-linejoin="round" stroke-width="0.13" d="M 32.463 28.888 C 32.463 28.946 34.539 31.038 34.539 31.024 C 34.539 31.009 35.015 30.605 35.261 30.129" />
  <path stroke-linejoin="round" stroke-width="0.13" d="M 36.573 29.25 C 36.226 30.274 35.692 31.225 34.741 32.003 C 33.789 32.783 32.42 33.344 31.324 33.518" />
  <path stroke-linejoin="round" stroke-width="0.13" d="M 36.209 34.256 C 36.587 33.878 37.24 33.241 37.334 33.115" />
  <path stroke-linejoin="round" stroke-width="0.3" d="M 37.682 49.409 C 37.752 49.45 62.89 49.179 64.621 49.179 C 66.352 49.179 66.697 48.832 67.563 47.909 C 68.429 46.987 69.409 46.064 70.331 46.064" />
  <path stroke-linejoin="round" stroke-width="0.13" d="M 37.682 48.371 C 37.752 48.411 62.89 48.14 64.621 48.14 C 66.352 48.14 66.697 47.795 67.563 46.871 C 68.429 45.948 69.409 45.026 70.331 45.026" />
  <path stroke-linejoin="round" stroke-width="0.5" d="M 45.265 40.162 C 45.445 41.045 44.945 40.984 46.186 40.664 C 47.429 40.344 47.609 40.463 47.71 40.685 C 47.81 40.905 47.77 41.145 48.11 40.984 C 48.451 40.825 48.932 40.304 49.232 40.463 C 49.533 40.624 49.853 40.564 50.174 40.444 C 50.496 40.323 51.256 40.243 51.337 40.283 C 51.417 40.323 51.878 40.264 52.139 40.463 C 52.399 40.664 52.5 40.784 53.14 40.744 C 53.781 40.704 53.883 40.725 54.122 40.844 C 54.363 40.965 54.162 41.145 54.823 40.924 C 55.485 40.704 55.466 40.643 55.746 40.765 C 56.027 40.884 56.628 41.005 57.009 40.884 C 57.39 40.765 58.29 40.423 58.271 40.784 C 58.25 41.145 58.612 41.206 59.033 41.005 C 59.454 40.804 60.515 40.543 60.716 40.603 C 60.917 40.664 62.118 40.924 62.259 41.064 C 62.399 41.206 62.479 41.305 62.92 41.045 C 63.362 40.784 63.701 40.543 63.923 40.643 C 64.143 40.744 64.905 40.384 65.105 40.603 C 65.305 40.825 65.245 41.405 65.585 41.225 C 65.927 41.045 66.027 40.444 67.209 40.725 C 68.391 41.005 69.192 41.206 69.474 40.905 C 69.754 40.603 69.593 40.103 69.834 40.082 C 70.075 40.063 70.215 40.122 70.254 39.862 C 70.295 39.601 69.813 39.502 69.293 39.481 C 68.772 39.462 68.29 39.502 68.23 39.281 C 68.171 39.06 68.171 38.92 67.75 38.941 C 67.329 38.96 67.028 39.161 66.647 39.322 C 66.266 39.481 65.325 39.462 65.064 39.421 C 64.804 39.381 64.162 39.442 63.561 39.462 C 62.96 39.481 62.198 39.121 61.838 39.081 C 61.478 39.04 61.357 38.92 60.936 39.281 C 60.515 39.642 60.075 39.942 59.694 39.783 C 59.313 39.621 58.832 39.601 58.631 39.661 C 58.432 39.722 57.97 39.462 57.509 39.362 C 57.048 39.262 56.747 39.281 56.648 39.362 C 56.548 39.442 56.387 39.521 55.926 39.341 C 55.466 39.161 54.603 38.941 54.384 39.1 C 54.162 39.262 53 39.262 52.901 39.201 C 52.799 39.14 52.039 38.92 51.817 39.021 C 51.597 39.121 51.356 39 50.615 39.14 C 49.875 39.281 48.972 39.561 48.893 39.502 C 48.811 39.442 48.17 38.901 47.45 38.941 C 46.728 38.981 46.607 39.121 46.326 39.021 C 46.046 38.92 45.084 38.996 44.945 39.201" />
 </g>
 <g id="Blow-up">
 </g>
 <g id="Symbols">
 </g>
 <g id="Text&amp;Poses">
 </g>
 <g id="Measures">
  <text font-family="'Arial'" font-size="4.232" fill="#000000" stroke="none" x="43.677" y="35.828">150mm/</text>
  <path fill="#000000" stroke="none" d="M 38.625 40.176 L 39.606 40.863 L 39.1 39.779 L 38.625 40.176 Z" />
  <line stroke-linejoin="round" stroke-width="0.13" x1="39.029" y1="40.121" x2="38.448" y2="39.485" />
  <line stroke-linejoin="round" stroke-width="0.13" x1="36.021" y1="36.826" x2="34.984" y2="35.689" />
  <line stroke-linejoin="round" stroke-width="0.13" x1="36.835" y1="36.619" x2="36.015" y2="37.956" />
  <line stroke-linejoin="round" stroke-width="0.13" x1="36.015" y1="37.956" x2="37.637" y2="37.347" />
  <line stroke-linejoin="round" stroke-width="0.13" x1="37.637" y1="37.347" x2="36.844" y2="38.692" />
  <line stroke-linejoin="round" stroke-width="0.13" x1="36.844" y1="38.692" x2="38.246" y2="38.021" />
  <line stroke-linejoin="round" stroke-width="0.13" x1="38.246" y1="38.021" x2="37.628" y2="39.329" />
  <line stroke-linejoin="round" stroke-width="0.13" x1="37.628" y1="39.329" x2="38.862" y2="38.712" />
  <line stroke-linejoin="round" stroke-width="0.13" x1="38.862" y1="38.712" x2="38.448" y2="39.485" />
  <line stroke-linejoin="round" stroke-width="0.13" x1="36.835" y1="36.619" x2="36.021" y2="36.826" />
  <line stroke-linejoin="round" stroke-width="0.13" x1="44.841" y1="36.113" x2="44.841" y2="38.398" />
  <line stroke-linejoin="round" stroke-width="0.13" x1="70.046" y1="36.113" x2="70.046" y2="38.398" />
  <line stroke-linejoin="round" stroke-width="0.13" x1="44.841" y1="37.256" x2="70.046" y2="37.256" />
  <text font-family="'Arial'" font-size="4.232" fill="#000000" stroke="none" x="63.601" y="35.828">60s.</text>
  <text font-family="'Arial'" font-size="4.232" fill="#000000" stroke="none" x="25.297" y="40.445">2Kg</text>
  <text font-family="'Arial'" font-size="4.232" fill="#000000" stroke="none" x="25.297" y="49.61">4mm</text>
  <line stroke-linejoin="round" stroke-width="0.13" x1="37.173" y1="48.338" x2="35.27" y2="47.21" />
  <line stroke-linejoin="round" stroke-width="0.13" x1="37.161" y1="49.426" x2="35.283" y2="50.271" />
  <g>
   <path stroke-linejoin="round" stroke-width="0.13" d="M 62.847 34.603 C 62.847 33.561 62.003 32.718 60.962 32.718 C 59.92 32.718 59.076 33.561 59.076 34.603 C 59.076 35.645 59.92 36.488 60.962 36.488 C 62.003 36.488 62.847 35.645 62.847 34.603" />
  </g>
  <g>
   <path stroke-linejoin="round" stroke-width="0.13" d="M 61.237 34.603 C 61.237 34.451 61.113 34.326 60.962 34.326 C 60.808 34.326 60.685 34.451 60.685 34.603 C 60.685 34.756 60.808 34.88 60.962 34.88 C 61.113 34.88 61.237 34.756 61.237 34.603" />
  </g>
  <g>
   <path stroke-linejoin="round" stroke-width="0.13" d="M 61.237 32.189 C 61.237 32.036 61.113 31.913 60.962 31.913 C 60.808 31.913 60.685 32.036 60.685 32.189 C 60.685 32.341 60.808 32.466 60.962 32.466 C 61.113 32.466 61.237 32.341 61.237 32.189" />
  </g>
  <line stroke-linejoin="round" stroke-width="0.13" x1="60.612" y1="32.75" x2="60.612" y2="32.475" />
  <line stroke-linejoin="round" stroke-width="0.13" x1="60.612" y1="32.475" x2="61.331" y2="32.475" />
  <line stroke-linejoin="round" stroke-width="0.13" x1="61.331" y1="32.475" x2="61.331" y2="32.753" />
  <line stroke-linejoin="round" stroke-width="0.13" x1="60.962" y1="34.603" x2="60.962" y2="33.521" />
  <line stroke-linejoin="round" stroke-width="0.13" x1="60.962" y1="34.603" x2="59.988" y2="35.683" />
  <path fill="#000000" stroke="none" d="M 59.951 35.472 L 59.698 36.015 L 60.189 35.671 L 59.951 35.472 Z" />
  <path fill="#000000" stroke="none" d="M 61.116 33.75 L 60.962 33.171 L 60.807 33.75 L 61.116 33.75 Z" />
 </g>
 <g id="Picture_x0020_#">
  <text font-family="'Arial'" font-size="2.117" fill="#000000" stroke="none" transform="matrix(0 -1 1 0 73.817 52.124)">420 357</text>
 </g>
<style /></svg>