<svg xmlns="http://www.w3.org/2000/svg" clip-rule="evenodd" fill="none" fill-rule="evenodd" stroke="#000000" stroke-linecap="round" viewBox="0 0 75.006 28.925" width="100%" height="100%" xmlns:xml="http://www.w3.org/XML/1998/namespace" xml:space="preserve">
 <g id="A4_x0020_half_x0020_frame">
  <polygon id="AUTOID_25886" stroke="#ffffff" stroke-linejoin="round" stroke-width="0.006" points="0.003,0.003 75.003,0.003 75.003,28.923 0.003,28.923 0.003,0.003" />
 </g>
 <g id="Colour">
 </g>
 <g id="Standard_x0020_layer">
  <line stroke-linejoin="round" stroke-width="0.3" x1="74.308" y1="19.268" x2="74.308" y2="13.444" />
  <path stroke-linejoin="round" stroke-width="0.13" d="M 3.185 12.202 C 2.475 13.57 2.31 14.683 3.004 16.399 C 3.697 18.112 2.895 18.934 2.565 20.411" />
  <line stroke-linejoin="round" stroke-width="0.3" x1="2.918" y1="19.268" x2="74.308" y2="19.268" />
  <line stroke-linejoin="round" stroke-width="0.3" x1="2.918" y1="13.444" x2="74.308" y2="13.444" />
  <line stroke-linejoin="round" stroke-width="0.3" x1="74.308" y1="16.356" x2="40.999" y2="13.444" />
  <line stroke-linejoin="round" stroke-width="0.13" x1="73.409" y1="16.277" x2="74.308" y2="15.327" />
  <line stroke-linejoin="round" stroke-width="0.13" x1="71.65" y1="16.123" x2="74.189" y2="13.444" />
  <line stroke-linejoin="round" stroke-width="0.13" x1="69.891" y1="15.97" x2="72.286" y2="13.444" />
  <line stroke-linejoin="round" stroke-width="0.13" x1="68.132" y1="15.816" x2="70.382" y2="13.444" />
  <line stroke-linejoin="round" stroke-width="0.13" x1="66.375" y1="15.663" x2="68.477" y2="13.444" />
  <line stroke-linejoin="round" stroke-width="0.13" x1="64.615" y1="15.509" x2="66.573" y2="13.444" />
  <line stroke-linejoin="round" stroke-width="0.13" x1="62.857" y1="15.355" x2="64.668" y2="13.444" />
  <line stroke-linejoin="round" stroke-width="0.13" x1="61.098" y1="15.201" x2="62.765" y2="13.444" />
  <line stroke-linejoin="round" stroke-width="0.13" x1="59.341" y1="15.048" x2="60.86" y2="13.444" />
  <line stroke-linejoin="round" stroke-width="0.13" x1="57.582" y1="14.894" x2="58.957" y2="13.444" />
  <line stroke-linejoin="round" stroke-width="0.13" x1="55.823" y1="14.74" x2="57.052" y2="13.444" />
  <line stroke-linejoin="round" stroke-width="0.13" x1="54.066" y1="14.586" x2="55.149" y2="13.444" />
  <line stroke-linejoin="round" stroke-width="0.13" x1="52.307" y1="14.432" x2="53.243" y2="13.444" />
  <line stroke-linejoin="round" stroke-width="0.13" x1="50.548" y1="14.278" x2="51.34" y2="13.444" />
  <line stroke-linejoin="round" stroke-width="0.13" x1="48.789" y1="14.125" x2="49.435" y2="13.444" />
  <line stroke-linejoin="round" stroke-width="0.13" x1="47.031" y1="13.971" x2="47.531" y2="13.444" />
  <line stroke-linejoin="round" stroke-width="0.13" x1="45.273" y1="13.817" x2="45.628" y2="13.444" />
  <line stroke-linejoin="round" stroke-width="0.13" x1="43.515" y1="13.663" x2="43.723" y2="13.444" />
  <line stroke-linejoin="round" stroke-width="0.3" x1="74.308" y1="16.356" x2="40.999" y2="19.268" />
  <line stroke-linejoin="round" stroke-width="0.13" x1="73.409" y1="16.434" x2="74.308" y2="17.385" />
  <line stroke-linejoin="round" stroke-width="0.13" x1="71.65" y1="16.588" x2="74.189" y2="19.268" />
  <line stroke-linejoin="round" stroke-width="0.13" x1="69.891" y1="16.742" x2="72.286" y2="19.268" />
  <line stroke-linejoin="round" stroke-width="0.13" x1="68.132" y1="16.896" x2="70.382" y2="19.268" />
  <line stroke-linejoin="round" stroke-width="0.13" x1="66.375" y1="17.05" x2="68.477" y2="19.268" />
  <line stroke-linejoin="round" stroke-width="0.13" x1="64.615" y1="17.204" x2="66.573" y2="19.268" />
  <line stroke-linejoin="round" stroke-width="0.13" x1="62.857" y1="17.358" x2="64.668" y2="19.268" />
  <line stroke-linejoin="round" stroke-width="0.13" x1="61.098" y1="17.512" x2="62.765" y2="19.268" />
  <line stroke-linejoin="round" stroke-width="0.13" x1="59.341" y1="17.664" x2="60.86" y2="19.268" />
  <line stroke-linejoin="round" stroke-width="0.13" x1="57.582" y1="17.818" x2="58.957" y2="19.268" />
  <line stroke-linejoin="round" stroke-width="0.13" x1="55.823" y1="17.972" x2="57.052" y2="19.268" />
  <line stroke-linejoin="round" stroke-width="0.13" x1="54.066" y1="18.126" x2="55.149" y2="19.268" />
  <line stroke-linejoin="round" stroke-width="0.13" x1="52.307" y1="18.28" x2="53.243" y2="19.268" />
  <line stroke-linejoin="round" stroke-width="0.13" x1="50.548" y1="18.434" x2="51.34" y2="19.268" />
  <line stroke-linejoin="round" stroke-width="0.13" x1="48.789" y1="18.588" x2="49.435" y2="19.268" />
  <line stroke-linejoin="round" stroke-width="0.13" x1="47.031" y1="18.742" x2="47.531" y2="19.268" />
  <line stroke-linejoin="round" stroke-width="0.13" x1="45.273" y1="18.894" x2="45.628" y2="19.268" />
  <line stroke-linejoin="round" stroke-width="0.13" x1="43.515" y1="19.048" x2="43.723" y2="19.268" />
 </g>
 <g id="Blow-up">
 </g>
 <g id="Symbols">
 </g>
 <g id="Text&amp;Poses">
 </g>
 <g id="Measures">
  <line stroke-linejoin="round" stroke-width="0.13" x1="74.308" y1="6.41" x2="74.308" y2="13.444" />
  <text font-family="'Arial'" font-size="4.232" fill="#000000" stroke="none" x="53.944" y="5.751">6xa</text>
  <line stroke-linejoin="round" stroke-width="0.13" x1="40.999" y1="6.084" x2="40.999" y2="13.444" />
  <path fill="#000000" stroke="none" d="M 70.418 8.201 L 74.274 7.169 L 70.418 6.136 L 70.418 8.201 Z" />
  <path fill="#000000" stroke="none" d="M 44.857 6.144 L 41.003 7.176 L 44.857 8.211 L 44.857 6.144 Z" />
  <line stroke-linejoin="round" stroke-width="0.13" x1="43.881" y1="7.176" x2="71.32" y2="7.176" />
  <text font-family="'Arial'" font-size="4.232" fill="#000000" stroke="none" x="6.742" y="8.292">a</text>
  <path fill="#000000" stroke="none" d="M 11.448 23.222 L 10.416 19.367 L 9.381 23.222 L 11.448 23.222 Z" />
  <path fill="#000000" stroke="none" d="M 9.39 9.587 L 10.423 13.444 L 11.457 9.587 L 9.39 9.587 Z" />
  <line stroke-linejoin="round" stroke-width="0.13" x1="10.423" y1="26.432" x2="10.423" y2="19.268" />
  <line stroke-linejoin="round" stroke-width="0.13" x1="10.423" y1="13.444" x2="10.423" y2="6.368" />
 </g>
 <g id="Picture_x0020_#">
  <text font-family="'Arial'" font-size="2.117" fill="#000000" stroke="none" transform="matrix(0 -1 1 0 73.817 27.91)">420 345</text>
 </g>
<style /></svg>