<svg xmlns="http://www.w3.org/2000/svg" clip-rule="evenodd" fill="none" fill-rule="evenodd" stroke="#000000" stroke-linecap="round" viewBox="0 0 75.006 75.006" width="100%" height="100%" xmlns:xml="http://www.w3.org/XML/1998/namespace" xml:space="preserve">
 <g id="A4_x0020_full_x0020_frame">
  <polygon id="AUTOID_25880" stroke="#ffffff" stroke-linejoin="round" stroke-width="0.006" points="0.003,0.003 75.003,0.003 75.003,75.003 0.003,75.003 0.003,0.003" />
 </g>
 <g id="Colour">
  <path fill="#b2b2b2" stroke="none" d="M 51.871 16.922 L 54.167 17.065 L 55.536 17.25 L 56.536 17.435 L 56.777 17.492 L 56.963 17.478 L 57.106 17.42 L 57.206 17.35 L 57.206 17.306 L 57.176 16.038 L 56.991 14.839 L 56.792 14.127 L 56.707 13.984 L 56.621 13.941 L 56.307 13.855 L 55.965 13.784 L 53.383 13.484 L 51.258 13.285 L 51.173 13.756 L 51.485 13.842 L 51.671 14.026 L 51.799 14.298 L 51.829 16.08 L 51.715 16.323 L 51.515 16.379 L 51.442 16.893 L 51.871 16.922 Z" />
  <path fill="#b2b2b2" stroke="none" d="M 30.939 12.894 L 25.733 13.246 L 22.071 13.566 L 20.307 13.75 L 19.3 14.019 L 19.048 14.153 L 18.78 15.631 L 18.611 17.31 L 18.897 17.478 L 19.434 17.446 L 20.056 17.31 L 26.185 16.791 L 31.376 16.521 L 31.274 14.724 L 29.225 14.826 L 29.175 15.833 L 28.94 16.068 L 24.288 16.388 L 24.053 16.001 L 24.036 14.321 L 24.388 13.884 L 25.128 13.666 L 28.873 13.414 L 29.108 13.583 L 29.192 14.371 L 29.175 14.926 L 31.24 14.859 L 30.939 12.894 Z" />
  <path fill="#b2b2b2" stroke="none" d="M 29.254 15.073 L 29.225 14.711 L 30.722 14.462 L 30.722 12.8 L 33.771 12.744 L 37.457 12.551 L 39.091 12.522 L 44.801 12.772 L 51.506 13.243 L 51.284 13.743 L 47.018 13.41 L 46.713 13.631 L 46.656 15.737 L 46.906 15.987 L 48.265 16.181 L 51.756 16.347 L 51.673 16.846 L 51.229 16.846 L 41.945 16.375 L 39.396 16.208 L 34.296 16.263 L 31.221 16.486 L 29.254 15.073 Z" />
  <path fill="#b2b2b2" stroke="none" d="M 24.733 36.101 L 24.905 38.03 L 50.981 38.03 L 51.152 36.101 L 24.733 36.101 Z" />
  <path fill="#b2b2b2" stroke="none" d="M 50.954 39.183 L 24.928 39.183 L 25.082 41.051 L 50.799 41.051 L 50.954 39.183 Z" />
  <path fill="#b2b2b2" stroke="none" d="M 50.694 42.17 L 25.179 42.17 L 25.332 44.088 L 50.539 44.088 L 50.694 42.17 Z" />
  <path fill="#b2b2b2" stroke="none" d="M 25.445 45.238 L 50.448 45.238 L 50.371 46.646 L 25.521 46.646 L 25.445 45.238 Z" />
  <path fill="#b2b2b2" stroke="none" d="M 50.31 47.856 L 25.562 47.856 L 25.719 49.716 L 50.154 49.716 L 50.31 47.856 Z" />
  <path fill="#b2b2b2" stroke="none" d="M 25.856 50.938 L 50.075 51.034 L 49.936 51.116 L 49.787 51.414 L 49.46 51.74 L 49.015 51.799 L 26.689 51.829 L 26.153 51.472 L 25.856 50.938 Z" />
  <path fill="#b2b2b2" stroke="none" d="M 37.515 54.033 L 32.52 54.122 L 32.222 54.182 L 32.045 54.45 L 32.045 54.926 L 37.543 54.837 L 37.515 54.033 Z" />
  <path fill="#b2b2b2" stroke="none" d="M 38.378 54.088 L 43.521 54.088 L 43.847 54.356 L 43.847 54.802 L 38.347 54.892 L 38.378 54.088 Z" />
  <path fill="#b2b2b2" stroke="none" d="M 56.804 56.732 L 56.479 56.911 L 56.173 57.475 L 55.332 58.155 L 54.218 58.591 L 52.393 58.85 L 52.375 62.194 L 52.926 62.743 L 56.415 62.759 L 56.901 62.356 L 56.804 56.732 Z" />
  <path fill="#b2b2b2" stroke="none" d="M 19.007 56.732 L 19.036 62.332 L 19.457 62.768 L 22.969 62.737 L 23.48 62.213 L 23.524 58.909 L 22.85 58.865 L 21.408 58.564 L 20.388 58.084 L 19.501 57.213 L 19.382 56.927 L 19.007 56.732 Z" />
  <path fill="#b2b2b2" stroke="none" d="M 55.981 22.32 L 55.783 22.379 L 55.823 23.015 L 58.07 23.553 L 57.85 25.184 L 57.79 27.451 L 57.89 29.638 L 57.393 29.838 L 57.374 31.05 L 58.009 31.131 L 58.07 30.891 L 58.329 30.454 L 58.924 30.355 L 60.636 30.256 L 61.231 29.699 L 61.073 23.652 L 60.595 23.254 L 55.981 22.32 Z" />
  <path fill="#b2b2b2" stroke="none" d="M 20.033 23.1 L 20.062 22.466 L 19.861 22.236 L 16.751 23.042 L 16.695 22.495 L 17.298 22.236 L 17.184 20.826 L 16.809 19.588 L 16.492 19.445 L 15.457 19.588 L 14.679 19.789 L 14.276 20.164 L 14.103 21.862 L 14.362 22.495 L 14.593 22.64 L 15.974 22.812 L 16.089 23.33 L 15.83 23.274 L 15.399 23.301 L 14.968 23.562 L 14.737 23.936 L 14.621 29.519 L 15.054 30.153 L 15.659 30.326 L 17.213 30.355 L 17.701 30.498 L 17.789 30.815 L 17.875 31.161 L 18.536 31.045 L 18.536 29.951 L 17.96 29.577 L 18.248 26.843 L 17.932 23.504 L 20.033 23.1 Z" />
 </g>
 <g id="Standard_x0020_layer">
  <path stroke-linejoin="round" stroke-miterlimit="10" stroke-width="0.13" d="M 32.487 54.075 L 39.582 54.075" />
  <path stroke-linejoin="round" stroke-miterlimit="10" stroke-width="0.5" d="M 21.157 17.236 L 21.033 19.411 L 20.899 21.725 L 20.766 24.007 L 20.646 26.097 L 20.548 27.826 L 20.486 29.032 L 20.471 29.545 L 20.486 29.676 L 20.5 29.768 L 20.519 29.841 L 20.55 29.917 L 20.6 30.016 L 20.666 30.14 L 20.743 30.268 L 20.836 30.396 L 20.946 30.513 L 21.071 30.617 L 21.193 30.693 L 21.3 30.743 L 21.414 30.775 L 21.559 30.801 L 21.757 30.832 L 22.597 30.844 L 24.568 30.843 L 27.288 30.829 L 30.373 30.811 L 33.439 30.788 L 36.104 30.768 L 37.985 30.751 L 38.698 30.751" />
  <path stroke-linejoin="round" stroke-miterlimit="10" stroke-width="0.13" d="M 23.211 30.963 L 23.397 31.013 L 23.574 31.05 L 23.739 31.088 L 23.89 31.14 L 24.027 31.222 L 24.132 31.312 L 24.207 31.394 L 24.263 31.489 L 24.312 31.611 L 24.37 31.778 L 24.437 32.216 L 24.507 32.975 L 24.567 33.817 L 24.611 34.5 L 24.623 34.787" />
  <path stroke-linejoin="round" stroke-miterlimit="10" stroke-width="0.13" d="M 21.157 30.745 L 20.908 30.652 L 20.675 30.579 L 20.457 30.507 L 20.246 30.411 L 20.042 30.272 L 19.865 30.117 L 19.731 29.966 L 19.621 29.8 L 19.516 29.596 L 19.399 29.329 L 19.277 29.004 L 19.167 28.629 L 19.074 28.193 L 18.992 27.687 L 18.928 27.1 L 18.899 26.317 L 18.916 25.362 L 18.954 24.434 L 18.995 23.733 L 19.009 23.458" />
  <path stroke-linejoin="round" stroke-miterlimit="10" stroke-width="0.13" d="M 19.911 22.292 L 20.129 22.375" />
  <path stroke-linejoin="round" stroke-miterlimit="10" stroke-width="0.13" d="M 20.115 22.388 L 20.074 23.114" />
  <path stroke-linejoin="round" stroke-miterlimit="10" stroke-width="0.13" d="M 17.896 23.579 L 17.937 23.457" />
  <path stroke-linejoin="round" stroke-miterlimit="10" stroke-width="0.13" d="M 18.541 29.841 L 18.541 30.908" />
  <path stroke-linejoin="round" stroke-miterlimit="10" stroke-width="0.3" d="M 18.541 22.553 L 18.964 17.579" />
  <path stroke-linejoin="round" stroke-miterlimit="10" stroke-width="0.13" d="M 19.007 22.428 L 19.349 17.414" />
  <path stroke-linejoin="round" stroke-miterlimit="10" stroke-width="0.13" d="M 19.911 12.689 L 20.006 12.801 L 20.094 12.904 L 20.176 13.002 L 20.257 13.099 L 20.339 13.202 L 20.425 13.314 L 20.507 13.426 L 20.577 13.525 L 20.626 13.598 L 20.638 13.638" />
  <path stroke-linejoin="round" stroke-miterlimit="10" stroke-width="0.13" d="M 32.28 12.689 L 32.295 11.689" />
  <path stroke-linejoin="round" stroke-miterlimit="10" stroke-width="0.13" d="M 32.295 11.689 L 32.377 11.47" />
  <path stroke-linejoin="round" stroke-miterlimit="10" stroke-width="0.13" d="M 32.377 11.442 L 32.679 11.304" />
  <path stroke-linejoin="round" stroke-miterlimit="10" stroke-width="0.13" d="M 38.597 10.4 L 32.46 10.4" />
  <path stroke-linejoin="round" stroke-miterlimit="10" stroke-width="0.13" d="M 32.46 10.4 L 32.46 10.018" />
  <path stroke-linejoin="round" stroke-miterlimit="10" stroke-width="0.13" d="M 32.46 10.018 L 38.582 10.018" />
  <path stroke-linejoin="round" stroke-miterlimit="10" stroke-width="0.3" d="M 38.597 9.182 L 32.706 9.182" />
  <path stroke-linejoin="round" stroke-miterlimit="10" stroke-width="0.3" d="M 32.706 9.182 L 32.432 9.47" />
  <path stroke-linejoin="round" stroke-miterlimit="10" stroke-width="0.3" d="M 32.432 9.47 L 32.432 10.003" />
  <path stroke-linejoin="round" stroke-miterlimit="10" stroke-width="0.3" d="M 18.431 31.129 L 18.405 32.009 L 18.376 32.831 L 18.352 33.603 L 18.332 34.335 L 18.324 35.037 L 18.329 35.737 L 18.341 36.405 L 18.358 36.972 L 18.371 37.365 L 18.371 37.515" />
  <path stroke-linejoin="round" stroke-miterlimit="10" stroke-width="0.13" d="M 18.321 33.389 L 18.417 33.561 L 18.504 33.725 L 18.585 33.88 L 18.673 34.017 L 18.774 34.134 L 18.882 34.225 L 18.989 34.292 L 19.091 34.341 L 19.189 34.375 L 19.278 34.399 L 19.356 34.417 L 19.419 34.429 L 19.475 34.432 L 19.532 34.423 L 19.597 34.399 L 19.67 34.362 L 19.736 34.311 L 19.8 34.246 L 19.861 34.161 L 19.917 34.054 L 19.966 33.892 L 20 33.673 L 20.021 33.445 L 20.03 33.246 L 20.024 33.122 L 20.012 33.063 L 19.998 33.02 L 19.981 32.985 L 19.954 32.951 L 19.917 32.909 L 19.865 32.865 L 19.803 32.828 L 19.728 32.787 L 19.641 32.737 L 19.545 32.67 L 19.437 32.59 L 19.318 32.5 L 19.193 32.393 L 19.065 32.267 L 18.932 32.112 L 18.797 31.899 L 18.661 31.643 L 18.542 31.391 L 18.46 31.202 L 18.431 31.134" />
  <path stroke-linejoin="round" stroke-miterlimit="10" stroke-width="0.13" d="M 27.657 33.682 C 27.731 34.054 28.057 34.323 28.439 34.323 C 28.461 34.323 28.484 34.322 28.507 34.32" />
  <path stroke-linejoin="round" stroke-miterlimit="10" stroke-width="0.13" d="M 27.65 33.676 L 27.65 31.896" />
  <path stroke-linejoin="round" stroke-miterlimit="10" stroke-width="0.13" d="M 27.65 31.896 L 36.35 31.896" />
  <path stroke-linejoin="round" stroke-miterlimit="10" stroke-width="0.13" d="M 24.39 31.663 L 36.034 31.663" />
  <path stroke-linejoin="round" stroke-miterlimit="10" stroke-width="0.13" d="M 28.513 34.32 L 36.487 34.32" />
  <path stroke-linejoin="round" stroke-miterlimit="10" stroke-width="0.3" d="M 24.65 34.963 L 36.253 34.963" />
  <path stroke-linejoin="round" stroke-miterlimit="10" stroke-width="0.13" d="M 36.034 31.663 L 39.734 31.663" />
  <path stroke-linejoin="round" stroke-miterlimit="10" stroke-width="0.3" d="M 36.253 34.963 L 40.021 34.963" />
  <path stroke-linejoin="round" stroke-miterlimit="10" stroke-width="0.3" d="M 24.978 50.579 C 24.995 50.529 25.004 50.475 25.004 50.421 C 25.004 50.152 24.786 49.933 24.516 49.933 C 24.469 49.933 24.422 49.941 24.376 49.954" />
  <path stroke-linejoin="round" stroke-miterlimit="10" stroke-width="0.13" d="M 24.64 50.723 C 24.649 50.698 24.652 50.67 24.652 50.643 C 24.652 50.485 24.533 50.353 24.376 50.338" />
  <path stroke-linejoin="round" stroke-miterlimit="10" stroke-width="0.3" d="M 24.593 53.226 C 24.625 53.232 24.658 53.235 24.69 53.235 C 24.998 53.235 25.248 52.985 25.248 52.677 C 25.248 52.652 25.245 52.627 25.242 52.6" />
  <path stroke-linejoin="round" stroke-miterlimit="10" stroke-width="0.3" d="M 20.283 56.018 C 20.35 56.518 20.777 56.892 21.282 56.892 C 21.318 56.892 21.355 56.89 21.391 56.886" />
  <path stroke-linejoin="round" stroke-miterlimit="10" stroke-width="0.3" d="M 24.16 57.054 C 24.187 57.064 24.214 57.07 24.243 57.07 C 24.379 57.07 24.487 56.96 24.487 56.826 C 24.487 56.796 24.483 56.768 24.472 56.741" />
  <path stroke-linejoin="round" stroke-miterlimit="10" stroke-width="0.3" d="M 24.521 55.368 C 24.527 55.341 24.532 55.313 24.532 55.283 C 24.532 55.091 24.376 54.936 24.184 54.936 L 24.16 54.936" />
  <path stroke-linejoin="round" stroke-miterlimit="10" stroke-width="0.3" d="M 20.405 54.526 C 20.379 54.512 20.35 54.506 20.321 54.506 C 20.222 54.506 20.14 54.587 20.14 54.686 L 20.14 54.695" />
  <path stroke-linejoin="round" stroke-miterlimit="10" stroke-width="0.13" d="M 26.638 56.14 C 26.603 56.136 26.567 56.134 26.53 56.134 C 25.907 56.134 25.402 56.64 25.402 57.262 C 25.402 57.314 25.405 57.365 25.411 57.414" />
  <path stroke-linejoin="round" stroke-miterlimit="10" stroke-width="0.3" d="M 24.954 53.299 L 24.954 53.307 C 24.954 53.585 25.179 53.811 25.457 53.811 C 25.483 53.811 25.507 53.808 25.533 53.804" />
  <path stroke-linejoin="round" stroke-miterlimit="10" stroke-width="0.3" d="M 18.045 50.7 C 18.385 50.889 18.765 50.987 19.152 50.987 C 19.306 50.987 19.46 50.972 19.611 50.941" />
  <path stroke-linejoin="round" stroke-miterlimit="10" stroke-width="0.3" d="M 19.923 43.359 C 19.92 43.39 19.917 43.423 19.917 43.457 C 19.917 43.854 20.239 44.176 20.638 44.176 C 20.981 44.176 21.277 43.936 21.344 43.6" />
  <path stroke-linejoin="round" stroke-miterlimit="10" stroke-width="0.13" d="M 18.358 43.503 C 18.541 44.185 19.016 44.75 19.658 45.045" />
  <path stroke-linejoin="round" stroke-miterlimit="10" stroke-width="0.3" d="M 18.167 42.445 C 17.911 42.655 17.746 42.957 17.71 43.286" />
  <path stroke-linejoin="round" stroke-miterlimit="10" stroke-width="0.13" d="M 20.021 46.414 C 20.559 46.298 20.945 45.82 20.945 45.268 C 20.945 45.216 20.942 45.165 20.934 45.115" />
  <path stroke-linejoin="round" stroke-miterlimit="10" stroke-width="0.13" d="M 19.539 46.463 C 19.513 46.46 19.487 46.457 19.463 46.457 C 19.187 46.457 18.964 46.68 18.964 46.956 C 18.964 47.027 18.981 47.097 19.01 47.161" />
  <path stroke-linejoin="round" stroke-miterlimit="10" stroke-width="0.13" d="M 19.225 47.546 C 18.839 47.673 18.577 48.031 18.576 48.436" />
  <path stroke-linejoin="round" stroke-miterlimit="10" stroke-width="0.13" d="M 19.664 45.046 L 25.362 45.046" />
  <path stroke-linejoin="round" stroke-miterlimit="10" stroke-width="0.13" d="M 19.541 46.457 L 20.211 46.348" />
  <path stroke-linejoin="round" stroke-miterlimit="10" stroke-width="0.13" d="M 20.211 46.362 L 19.923 46.472" />
  <path stroke-linejoin="round" stroke-miterlimit="10" stroke-width="0.13" d="M 19.923 46.457 L 25.458 46.457" />
  <path stroke-linejoin="round" stroke-miterlimit="10" stroke-width="0.13" d="M 23.17 44.17 L 20.664 44.17" />
  <path stroke-linejoin="round" stroke-miterlimit="10" stroke-width="0.13" d="M 18.362 43.499 L 18.17 42.444" />
  <path stroke-linejoin="round" stroke-miterlimit="10" stroke-width="0.3" d="M 17.704 43.28 L 18.047 50.692" />
  <path stroke-linejoin="round" stroke-miterlimit="10" stroke-width="0.3" d="M 18.047 50.704 L 18.17 54.651" />
  <path stroke-linejoin="round" stroke-miterlimit="10" stroke-width="0.3" d="M 18.047 49.856 L 18.678 49.472" />
  <path stroke-linejoin="round" stroke-miterlimit="10" stroke-width="0.13" d="M 18.678 49.472 L 18.582 48.43" />
  <path stroke-linejoin="round" stroke-miterlimit="10" stroke-width="0.13" d="M 18.978 47.088 L 18.978 47.622" />
  <path stroke-linejoin="round" stroke-miterlimit="10" stroke-width="0.3" d="M 24.992 50.5 L 25.239 52.595" />
  <path stroke-linejoin="round" stroke-miterlimit="10" stroke-width="0.13" d="M 24.637 50.719 L 24.884 52.746" />
  <path stroke-linejoin="round" stroke-miterlimit="10" stroke-width="0.13" d="M 24.884 52.746 L 24.815 52.869" />
  <path stroke-linejoin="round" stroke-miterlimit="10" stroke-width="0.13" d="M 24.376 50.335 L 22.719 50.267" />
  <path stroke-linejoin="round" stroke-miterlimit="10" stroke-width="0.3" d="M 24.376 49.951 L 22.746 49.883" />
  <path stroke-linejoin="round" stroke-miterlimit="10" stroke-width="0.3" d="M 22.746 49.883 L 22.222 49.854 L 21.739 49.832 L 21.283 49.808 L 20.838 49.78 L 20.388 49.738 L 19.919 49.679 L 19.46 49.609 L 19.068 49.542 L 18.789 49.491 L 18.679 49.478" />
  <path stroke-linejoin="round" stroke-miterlimit="10" stroke-width="0.13" d="M 22.719 50.267 L 22.265 50.223 L 21.827 50.182 L 21.422 50.146 L 21.064 50.109 L 20.769 50.075 L 20.518 50.036 L 20.289 49.999 L 20.1 49.963 L 19.974 49.939 L 19.926 49.929 L 19.847 49.936 L 19.644 49.948 L 19.379 49.963 L 19.109 49.975 L 18.891 49.978 L 18.731 49.972 L 18.593 49.966 L 18.474 49.956 L 18.373 49.942 L 18.291 49.929 L 18.219 49.914 L 18.158 49.895 L 18.109 49.878 L 18.073 49.863 L 18.045 49.863" />
  <path stroke-linejoin="round" stroke-miterlimit="10" stroke-width="0.3" d="M 20.115 49.759 L 20.074 49.801 L 20.03 49.844 L 19.989 49.883 L 19.96 49.912 L 19.948 49.927 L 19.946 49.933 L 19.946 49.938 L 19.946 49.941 L 19.946 49.945 L 19.948 49.951 L 19.96 50.225 L 19.989 50.868 L 20.025 51.643 L 20.064 52.307 L 20.092 52.624 L 20.114 52.676 L 20.135 52.713 L 20.158 52.74 L 20.184 52.765 L 20.213 52.792 L 20.239 52.819 L 20.26 52.838 L 20.283 52.856 L 20.314 52.871 L 20.356 52.889 L 20.83 52.933 L 21.885 53.015 L 23.126 53.109 L 24.16 53.188 L 24.597 53.228" />
  <path stroke-linejoin="round" stroke-miterlimit="10" stroke-width="0.3" d="M 20.307 52.869 L 20.08 52.835 L 19.864 52.808 L 19.661 52.78 L 19.478 52.747 L 19.321 52.701 L 19.193 52.656 L 19.091 52.621 L 19.01 52.579 L 18.936 52.515 L 18.864 52.412 L 18.807 52.179 L 18.783 51.811 L 18.78 51.414 L 18.786 51.097 L 18.786 50.975" />
  <path stroke-linejoin="round" stroke-miterlimit="10" stroke-width="0.3" d="M 20.403 54.527 L 20.661 54.575 L 20.876 54.618 L 21.088 54.658 L 21.335 54.7 L 21.655 54.743 L 22.152 54.793 L 22.803 54.844 L 23.455 54.89 L 23.957 54.923 L 24.163 54.936" />
  <path stroke-linejoin="round" stroke-miterlimit="10" stroke-width="0.3" d="M 21.39 56.884 L 21.897 56.917 L 22.397 56.951 L 22.859 56.984 L 23.248 57.009 L 23.532 57.027 L 23.745 57.04 L 23.937 57.052 L 24.092 57.061 L 24.196 57.067 L 24.237 57.067" />
  <path stroke-linejoin="round" stroke-miterlimit="10" stroke-width="0.3" d="M 24.486 56.814 L 24.513 55.362" />
  <path stroke-linejoin="round" stroke-miterlimit="10" stroke-width="0.3" d="M 20.28 56.021 L 20.129 54.692" />
  <path stroke-linejoin="round" stroke-miterlimit="10" stroke-width="0.13" d="M 18.87 52.362 L 19.815 52.554" />
  <path stroke-linejoin="round" stroke-miterlimit="10" stroke-width="0.13" d="M 19.8 52.554 L 19.609 50.938" />
  <path stroke-linejoin="round" stroke-miterlimit="10" stroke-width="0.3" d="M 25.458 53.814 L 32.953 53.814" />
  <path stroke-linejoin="round" stroke-miterlimit="10" stroke-width="0.3" d="M 32.939 53.814 L 40.158 53.814" />
  <path stroke-linejoin="round" stroke-miterlimit="10" stroke-width="0.13" d="M 32.034 54.911 L 32.034 56.143" />
  <path stroke-linejoin="round" stroke-miterlimit="10" stroke-width="0.13" d="M 32.034 56.143 L 26.637 56.143" />
  <path stroke-linejoin="round" stroke-miterlimit="10" stroke-width="0.13" d="M 32.034 56.143 L 39.542 56.143" />
  <path stroke-linejoin="round" stroke-miterlimit="10" stroke-width="0.13" d="M 37.597 54.911 L 38.966 54.911" />
  <path stroke-linejoin="round" stroke-miterlimit="10" stroke-width="0.13" d="M 25.417 57.417 L 25.417 58.843" />
  <path stroke-linejoin="round" stroke-miterlimit="10" stroke-width="0.3" d="M 25.417 58.829 L 41.378 58.829" />
  <path stroke-linejoin="round" stroke-miterlimit="10" stroke-width="0.3" d="M 18.17 42.444 L 18.117 41.811 L 18.065 41.207 L 18.015 40.645 L 17.975 40.131 L 17.945 39.676 L 17.92 39.277 L 17.899 38.926 L 17.885 38.631 L 17.885 38.396 L 17.905 38.231 L 17.936 38.121 L 17.972 38.042 L 18.01 37.978 L 18.056 37.917 L 18.108 37.844 L 18.167 37.756 L 18.231 37.664 L 18.294 37.585 L 18.344 37.53 L 18.371 37.517" />
  <path stroke-linejoin="round" stroke-miterlimit="10" stroke-width="0.3" d="M 20.954 38.578 C 20.871 38.284 20.603 38.082 20.3 38.082 C 19.972 38.082 19.69 38.317 19.632 38.639" />
  <path stroke-linejoin="round" stroke-miterlimit="10" stroke-width="0.13" d="M 20.198 38.033 L 22.719 37.991" />
  <path stroke-linejoin="round" stroke-miterlimit="10" stroke-width="0.3" d="M 19.637 38.636 L 19.923 43.362" />
  <path stroke-linejoin="round" stroke-miterlimit="10" stroke-width="0.13" d="M 21.349 43.594 L 20.966 38.567" />
  <path stroke-linejoin="round" stroke-miterlimit="10" stroke-width="0.5" d="M 54.734 17.236 L 54.857 19.411 L 54.993 21.725 L 55.125 24.007 L 55.246 26.097 L 55.344 27.826 L 55.405 29.032 L 55.42 29.545 L 55.405 29.676 L 55.392 29.768 L 55.372 29.841 L 55.341 29.917 L 55.292 30.016 L 55.226 30.14 L 55.148 30.268 L 55.054 30.396 L 54.947 30.513 L 54.82 30.617 L 54.698 30.693 L 54.591 30.743 L 54.476 30.775 L 54.332 30.801 L 54.134 30.832 L 53.295 30.844 L 51.325 30.843 L 48.604 30.829 L 45.52 30.811 L 42.453 30.788 L 39.786 30.768 L 37.906 30.751 L 37.195 30.751" />
  <path stroke-linejoin="round" stroke-miterlimit="10" stroke-width="0.13" d="M 52.665 30.963 L 52.479 31.013 L 52.304 31.05 L 52.139 31.088 L 51.987 31.14 L 51.851 31.222 L 51.746 31.312 L 51.67 31.394 L 51.615 31.489 L 51.564 31.611 L 51.509 31.778 L 51.441 32.216 L 51.371 32.975 L 51.31 33.817 L 51.268 34.5 L 51.255 34.787" />
  <path stroke-linejoin="round" stroke-miterlimit="10" stroke-width="0.13" d="M 54.734 30.745 L 54.984 30.652 L 55.216 30.579 L 55.435 30.507 L 55.645 30.411 L 55.85 30.272 L 56.026 30.117 L 56.159 29.966 L 56.271 29.8 L 56.375 29.596 L 56.493 29.329 L 56.615 29.004 L 56.723 28.629 L 56.819 28.193 L 56.899 27.687 L 56.965 27.1 L 56.993 26.317 L 56.976 25.362 L 56.936 24.434 L 56.896 23.733 L 56.884 23.458" />
  <path stroke-linejoin="round" stroke-miterlimit="10" stroke-width="0.13" d="M 57.351 29.841 L 57.351 30.908" />
  <path stroke-linejoin="round" stroke-miterlimit="10" stroke-width="0.3" d="M 57.351 22.553 L 56.926 17.579" />
  <path stroke-linejoin="round" stroke-miterlimit="10" stroke-width="0.13" d="M 56.871 22.428 L 56.53 17.414" />
  <path stroke-linejoin="round" stroke-miterlimit="10" stroke-width="0.13" d="M 55.968 12.689 L 55.872 12.801 L 55.784 12.904 L 55.701 13.002 L 55.619 13.099 L 55.539 13.202 L 55.454 13.314 L 55.371 13.426 L 55.301 13.525 L 55.253 13.598 L 55.238 13.638" />
  <path stroke-linejoin="round" stroke-miterlimit="10" stroke-width="0.13" d="M 43.597 12.689 L 43.584 11.689" />
  <path stroke-linejoin="round" stroke-miterlimit="10" stroke-width="0.13" d="M 43.584 11.689 L 43.5 11.47" />
  <path stroke-linejoin="round" stroke-miterlimit="10" stroke-width="0.13" d="M 43.515 11.442 L 43.213 11.304" />
  <path stroke-linejoin="round" stroke-miterlimit="10" stroke-width="0.13" d="M 37.281 10.4 L 43.418 10.4" />
  <path stroke-linejoin="round" stroke-miterlimit="10" stroke-width="0.13" d="M 43.418 10.4 L 43.418 10.018" />
  <path stroke-linejoin="round" stroke-miterlimit="10" stroke-width="0.13" d="M 43.418 10.018 L 37.295 10.018" />
  <path stroke-linejoin="round" stroke-miterlimit="10" stroke-width="0.3" d="M 37.281 9.182 L 43.173 9.182" />
  <path stroke-linejoin="round" stroke-miterlimit="10" stroke-width="0.3" d="M 43.173 9.182 L 43.447 9.47" />
  <path stroke-linejoin="round" stroke-miterlimit="10" stroke-width="0.3" d="M 43.447 9.47 L 43.447 10.003" />
  <path stroke-linejoin="round" stroke-miterlimit="10" stroke-width="0.3" d="M 57.46 31.129 L 57.487 32.009 L 57.515 32.831 L 57.54 33.603 L 57.558 34.335 L 57.567 35.037 L 57.563 35.737 L 57.549 36.405 L 57.533 36.972 L 57.52 37.365 L 57.52 37.515" />
  <path stroke-linejoin="round" stroke-miterlimit="10" stroke-width="0.13" d="M 57.557 33.389 L 57.46 33.561 L 57.375 33.725 L 57.292 33.88 L 57.206 34.017 L 57.104 34.134 L 56.996 34.225 L 56.889 34.292 L 56.786 34.341 L 56.689 34.375 L 56.6 34.399 L 56.523 34.417 L 56.46 34.429 L 56.404 34.432 L 56.347 34.423 L 56.28 34.399 L 56.209 34.362 L 56.142 34.311 L 56.078 34.246 L 56.018 34.161 L 55.96 34.054 L 55.912 33.892 L 55.878 33.673 L 55.856 33.445 L 55.848 33.246 L 55.854 33.122 L 55.866 33.063 L 55.88 33.02 L 55.898 32.985 L 55.923 32.951 L 55.96 32.909 L 56.012 32.865 L 56.076 32.828 L 56.151 32.787 L 56.237 32.737 L 56.334 32.67 L 56.441 32.59 L 56.558 32.5 L 56.685 32.393 L 56.814 32.267 L 56.945 32.112 L 57.082 31.899 L 57.216 31.643 L 57.335 31.391 L 57.418 31.202 L 57.445 31.134" />
  <path stroke-linejoin="round" stroke-miterlimit="10" stroke-width="0.13" d="M 47.375 34.32 C 47.398 34.322 47.42 34.323 47.444 34.323 C 47.825 34.323 48.152 34.054 48.225 33.682" />
  <path stroke-linejoin="round" stroke-miterlimit="10" stroke-width="0.13" d="M 48.228 33.676 L 48.228 31.896" />
  <path stroke-linejoin="round" stroke-miterlimit="10" stroke-width="0.13" d="M 48.228 31.896 L 39.529 31.896" />
  <path stroke-linejoin="round" stroke-miterlimit="10" stroke-width="0.13" d="M 51.502 31.663 L 39.856 31.663" />
  <path stroke-linejoin="round" stroke-miterlimit="10" stroke-width="0.13" d="M 47.378 34.32 L 39.405 34.32" />
  <path stroke-linejoin="round" stroke-miterlimit="10" stroke-width="0.3" d="M 51.228 34.963 L 39.624 34.963" />
  <path stroke-linejoin="round" stroke-miterlimit="10" stroke-width="0.13" d="M 39.844 31.663 L 36.145 31.663" />
  <path stroke-linejoin="round" stroke-miterlimit="10" stroke-width="0.13" d="M 39.637 34.963 L 35.871 34.963" />
  <path stroke-linejoin="round" stroke-miterlimit="10" stroke-width="0.13" d="M 39.418 36.101 L 36.308 36.101" />
  <path stroke-linejoin="round" stroke-miterlimit="10" stroke-width="0.3" d="M 50.131 50.841 L 33.787 50.841" />
  <path stroke-linejoin="round" stroke-miterlimit="10" stroke-width="0.3" d="M 51.506 49.954 C 51.46 49.941 51.414 49.933 51.365 49.933 C 51.097 49.933 50.878 50.152 50.878 50.421 C 50.878 50.475 50.887 50.529 50.905 50.579" />
  <path stroke-linejoin="round" stroke-miterlimit="10" stroke-width="0.13" d="M 51.506 50.338 C 51.35 50.353 51.231 50.485 51.231 50.643 C 51.231 50.67 51.234 50.698 51.24 50.723" />
  <path stroke-linejoin="round" stroke-miterlimit="10" stroke-width="0.3" d="M 50.64 52.6 C 50.637 52.627 50.634 52.652 50.634 52.677 C 50.634 52.985 50.884 53.235 51.192 53.235 C 51.225 53.235 51.258 53.232 51.289 53.226" />
  <path stroke-linejoin="round" stroke-miterlimit="10" stroke-width="0.3" d="M 54.49 56.886 C 54.527 56.89 54.564 56.892 54.6 56.892 C 55.104 56.892 55.531 56.518 55.598 56.018" />
  <path stroke-linejoin="round" stroke-miterlimit="10" stroke-width="0.3" d="M 51.409 56.741 C 51.399 56.768 51.395 56.796 51.395 56.826 C 51.395 56.96 51.503 57.07 51.639 57.07 C 51.667 57.07 51.695 57.064 51.722 57.054" />
  <path stroke-linejoin="round" stroke-miterlimit="10" stroke-width="0.3" d="M 51.722 54.936 L 51.698 54.936 C 51.506 54.936 51.35 55.091 51.35 55.283 C 51.35 55.313 51.354 55.341 51.362 55.368" />
  <path stroke-linejoin="round" stroke-miterlimit="10" stroke-width="0.3" d="M 55.743 54.695 L 55.743 54.686 C 55.743 54.587 55.661 54.506 55.561 54.506 C 55.533 54.506 55.503 54.512 55.478 54.526" />
  <path stroke-linejoin="round" stroke-miterlimit="10" stroke-width="0.13" d="M 50.47 57.414 C 50.478 57.365 50.481 57.314 50.481 57.262 C 50.481 56.64 49.975 56.134 49.351 56.134 C 49.316 56.134 49.28 56.136 49.243 56.14" />
  <path stroke-linejoin="round" stroke-miterlimit="10" stroke-width="0.3" d="M 50.351 53.804 C 50.375 53.808 50.401 53.811 50.426 53.811 C 50.704 53.811 50.929 53.585 50.929 53.307 L 50.929 53.299" />
  <path stroke-linejoin="round" stroke-miterlimit="10" stroke-width="0.3" d="M 56.271 50.941 C 56.423 50.972 56.576 50.987 56.729 50.987 C 57.116 50.987 57.497 50.889 57.837 50.7" />
  <path stroke-linejoin="round" stroke-miterlimit="10" stroke-width="0.3" d="M 54.539 43.6 C 54.607 43.936 54.902 44.176 55.246 44.176 C 55.643 44.176 55.966 43.854 55.966 43.457 C 55.966 43.423 55.963 43.39 55.96 43.359" />
  <path stroke-linejoin="round" stroke-miterlimit="10" stroke-width="0.13" d="M 56.223 45.045 C 56.865 44.75 57.341 44.185 57.524 43.503" />
  <path stroke-linejoin="round" stroke-miterlimit="10" stroke-width="0.3" d="M 58.173 43.286 C 58.136 42.957 57.972 42.655 57.716 42.445" />
  <path stroke-linejoin="round" stroke-miterlimit="10" stroke-width="0.13" d="M 54.948 45.115 C 54.941 45.165 54.938 45.216 54.938 45.268 C 54.938 45.82 55.323 46.298 55.862 46.414" />
  <path stroke-linejoin="round" stroke-miterlimit="10" stroke-width="0.13" d="M 56.874 47.161 C 56.902 47.097 56.918 47.027 56.918 46.956 C 56.918 46.68 56.695 46.457 56.42 46.457 C 56.396 46.457 56.369 46.46 56.344 46.463" />
  <path stroke-linejoin="round" stroke-miterlimit="10" stroke-width="0.13" d="M 57.305 48.436 C 57.304 48.031 57.042 47.673 56.656 47.546" />
  <path stroke-linejoin="round" stroke-miterlimit="10" stroke-width="0.13" d="M 56.228 45.046 L 50.529 45.046" />
  <path stroke-linejoin="round" stroke-miterlimit="10" stroke-width="0.13" d="M 56.338 46.457 L 55.667 46.348" />
  <path stroke-linejoin="round" stroke-miterlimit="10" stroke-width="0.13" d="M 55.679 46.362 L 55.968 46.472" />
  <path stroke-linejoin="round" stroke-miterlimit="10" stroke-width="0.13" d="M 55.954 46.457 L 50.42 46.457" />
  <path stroke-linejoin="round" stroke-miterlimit="10" stroke-width="0.13" d="M 52.707 44.17 L 55.215 44.17" />
  <path stroke-linejoin="round" stroke-miterlimit="10" stroke-width="0.13" d="M 57.53 43.499 L 57.722 42.444" />
  <path stroke-linejoin="round" stroke-miterlimit="10" stroke-width="0.3" d="M 58.173 43.28 L 57.831 50.692" />
  <path stroke-linejoin="round" stroke-miterlimit="10" stroke-width="0.3" d="M 57.831 50.704 L 57.707 54.651" />
  <path stroke-linejoin="round" stroke-miterlimit="10" stroke-width="0.3" d="M 57.831 49.856 L 57.201 49.472" />
  <path stroke-linejoin="round" stroke-miterlimit="10" stroke-width="0.13" d="M 57.215 49.472 L 57.31 48.43" />
  <path stroke-linejoin="round" stroke-miterlimit="10" stroke-width="0.13" d="M 56.899 47.088 L 56.899 47.622" />
  <path stroke-linejoin="round" stroke-miterlimit="10" stroke-width="0.3" d="M 50.884 50.5 L 50.639 52.595" />
  <path stroke-linejoin="round" stroke-miterlimit="10" stroke-width="0.13" d="M 51.241 50.719 L 50.994 52.746" />
  <path stroke-linejoin="round" stroke-miterlimit="10" stroke-width="0.13" d="M 50.994 52.746 L 51.064 52.869" />
  <path stroke-linejoin="round" stroke-miterlimit="10" stroke-width="0.13" d="M 51.502 50.335 L 53.159 50.267" />
  <path stroke-linejoin="round" stroke-miterlimit="10" stroke-width="0.3" d="M 51.502 49.951 L 53.131 49.883" />
  <path stroke-linejoin="round" stroke-miterlimit="10" stroke-width="0.3" d="M 53.146 49.883 L 53.67 49.854 L 54.152 49.832 L 54.609 49.808 L 55.054 49.78 L 55.505 49.738 L 55.973 49.679 L 56.43 49.609 L 56.825 49.542 L 57.103 49.491 L 57.213 49.478" />
  <path stroke-linejoin="round" stroke-miterlimit="10" stroke-width="0.13" d="M 53.173 50.267 L 53.625 50.223 L 54.064 50.182 L 54.469 50.146 L 54.829 50.109 L 55.122 50.075 L 55.374 50.036 L 55.603 49.999 L 55.792 49.963 L 55.918 49.939 L 55.965 49.929 L 56.045 49.936 L 56.246 49.948 L 56.512 49.963 L 56.783 49.975 L 57 49.978 L 57.161 49.972 L 57.299 49.966 L 57.418 49.956 L 57.518 49.942 L 57.601 49.929 L 57.671 49.914 L 57.732 49.895 L 57.783 49.878 L 57.82 49.863 L 57.847 49.863" />
  <path stroke-linejoin="round" stroke-miterlimit="10" stroke-width="0.3" d="M 55.762 49.759 L 55.804 49.801 L 55.848 49.844 L 55.887 49.883 L 55.917 49.912 L 55.93 49.927 L 55.932 49.933 L 55.932 49.938 L 55.932 49.941 L 55.93 49.945 L 55.93 49.951 L 55.918 50.225 L 55.89 50.868 L 55.853 51.643 L 55.814 52.307 L 55.786 52.624 L 55.765 52.676 L 55.743 52.713 L 55.719 52.74 L 55.695 52.765 L 55.665 52.792 L 55.639 52.819 L 55.618 52.838 L 55.594 52.856 L 55.564 52.871 L 55.521 52.889 L 55.048 52.933 L 53.993 53.015 L 52.753 53.109 L 51.719 53.188 L 51.28 53.228" />
  <path stroke-linejoin="round" stroke-miterlimit="10" stroke-width="0.3" d="M 55.57 52.869 L 55.798 52.835 L 56.015 52.808 L 56.216 52.78 L 56.399 52.747 L 56.557 52.701 L 56.685 52.656 L 56.786 52.621 L 56.868 52.579 L 56.942 52.515 L 57.015 52.412 L 57.07 52.179 L 57.094 51.811 L 57.097 51.414 L 57.091 51.097 L 57.091 50.975" />
  <path stroke-linejoin="round" stroke-miterlimit="10" stroke-width="0.3" d="M 57.036 52.335 L 57.054 52.374 L 57.07 52.404 L 57.085 52.435 L 57.098 52.472 L 57.109 52.527 L 57.057 52.97 L 56.921 53.936 L 56.758 55.067 L 56.618 56.015 L 56.548 56.426" />
  <path stroke-linejoin="round" stroke-miterlimit="10" stroke-width="0.3" d="M 55.475 54.527 L 55.216 54.575 L 55.002 54.618 L 54.79 54.658 L 54.543 54.7 L 54.222 54.743 L 53.725 54.793 L 53.075 54.844 L 52.423 54.89 L 51.92 54.923 L 51.716 54.936" />
  <path stroke-linejoin="round" stroke-miterlimit="10" stroke-width="0.3" d="M 54.487 56.884 L 53.981 56.917 L 53.479 56.951 L 53.018 56.984 L 52.63 57.009 L 52.345 57.027 L 52.131 57.04 L 51.941 57.052 L 51.786 57.061 L 51.682 57.067 L 51.64 57.067" />
  <path stroke-linejoin="round" stroke-miterlimit="10" stroke-width="0.3" d="M 51.392 56.814 L 51.365 55.362" />
  <path stroke-linejoin="round" stroke-miterlimit="10" stroke-width="0.3" d="M 55.597 56.021 L 55.749 54.692" />
  <path stroke-linejoin="round" stroke-miterlimit="10" stroke-width="0.13" d="M 57.023 52.362 L 56.078 52.554" />
  <path stroke-linejoin="round" stroke-miterlimit="10" stroke-width="0.13" d="M 56.078 52.554 L 56.268 50.938" />
  <path stroke-linejoin="round" stroke-miterlimit="10" stroke-width="0.3" d="M 50.432 53.814 L 42.939 53.814" />
  <path stroke-linejoin="round" stroke-miterlimit="10" stroke-width="0.3" d="M 42.939 53.814 L 35.719 53.814" />
  <path stroke-linejoin="round" stroke-miterlimit="10" stroke-width="0.13" d="M 43.392 54.075 L 36.295 54.075" />
  <path stroke-linejoin="round" stroke-miterlimit="10" stroke-width="0.13" d="M 43.857 54.911 L 43.857 56.143" />
  <path stroke-linejoin="round" stroke-miterlimit="10" stroke-width="0.13" d="M 43.857 56.143 L 49.255 56.143" />
  <path stroke-linejoin="round" stroke-miterlimit="10" stroke-width="0.3" d="M 43.857 56.143 L 36.35 56.143" />
  <path stroke-linejoin="round" stroke-miterlimit="10" stroke-width="0.13" d="M 38.295 54.911 L 36.926 54.911" />
  <path stroke-linejoin="round" stroke-miterlimit="10" stroke-width="0.13" d="M 50.473 57.417 L 50.473 58.843" />
  <path stroke-linejoin="round" stroke-miterlimit="10" stroke-width="0.3" d="M 50.473 58.829 L 34.514 58.829" />
  <path stroke-linejoin="round" stroke-miterlimit="10" stroke-width="0.3" d="M 57.722 42.444 L 57.774 41.811 L 57.828 41.207 L 57.875 40.645 L 57.917 40.131 L 57.947 39.676 L 57.97 39.277 L 57.993 38.926 L 58.006 38.631 L 58.006 38.396 L 57.987 38.231 L 57.956 38.121 L 57.92 38.042 L 57.881 37.978 L 57.835 37.917 L 57.783 37.844 L 57.723 37.756 L 57.659 37.664 L 57.598 37.585 L 57.548 37.53 L 57.52 37.517" />
  <path stroke-linejoin="round" stroke-miterlimit="10" stroke-width="0.3" d="M 56.25 38.639 C 56.192 38.317 55.911 38.082 55.582 38.082 C 55.279 38.082 55.011 38.284 54.929 38.578" />
  <path stroke-linejoin="round" stroke-miterlimit="10" stroke-width="0.13" d="M 55.679 38.033 L 53.159 37.991" />
  <path stroke-linejoin="round" stroke-miterlimit="10" stroke-width="0.3" d="M 56.256 38.636 L 55.968 43.362" />
  <path stroke-linejoin="round" stroke-miterlimit="10" stroke-width="0.13" d="M 54.542 43.594 L 54.926 38.567" />
  <path stroke-linejoin="round" stroke-miterlimit="10" stroke-width="0.13" d="M 32.898 30.759 L 27.239 28.853" />
  <path stroke-linejoin="round" stroke-miterlimit="10" stroke-width="0.13" d="M 27.239 28.853 L 21.321 29.155" />
  <path stroke-linejoin="round" stroke-miterlimit="10" stroke-width="0.13" d="M 21.335 29.17 L 21.376 28.882" />
  <path stroke-linejoin="round" stroke-miterlimit="10" stroke-width="0.13" d="M 21.362 28.882 L 33.774 28.17" />
  <path stroke-linejoin="round" stroke-miterlimit="10" stroke-width="0.13" d="M 33.774 28.155 L 33.816 28.429" />
  <path stroke-linejoin="round" stroke-miterlimit="10" stroke-width="0.13" d="M 33.816 28.429 L 28.472 28.731" />
  <path stroke-linejoin="round" stroke-miterlimit="10" stroke-width="0.13" d="M 28.472 28.731 L 34.253 30.759" />
  <path stroke-linejoin="round" stroke-miterlimit="10" stroke-width="0.13" d="M 48.337 30.649 L 42.679 28.745" />
  <path stroke-linejoin="round" stroke-miterlimit="10" stroke-width="0.13" d="M 42.679 28.745 L 36.761 29.045" />
  <path stroke-linejoin="round" stroke-miterlimit="10" stroke-width="0.13" d="M 36.761 29.059 L 36.801 28.771" />
  <path stroke-linejoin="round" stroke-miterlimit="10" stroke-width="0.13" d="M 36.801 28.771 L 49.213 28.059" />
  <path stroke-linejoin="round" stroke-miterlimit="10" stroke-width="0.13" d="M 49.213 28.045 L 49.255 28.32" />
  <path stroke-linejoin="round" stroke-miterlimit="10" stroke-width="0.13" d="M 49.255 28.32 L 43.911 28.621" />
  <path stroke-linejoin="round" stroke-miterlimit="10" stroke-width="0.13" d="M 43.911 28.621 L 49.694 30.649" />
  <path stroke-linejoin="round" stroke-miterlimit="10" stroke-width="0.13" d="M 55.241 27.731 L 55.194 27.638 L 55.152 27.551 L 55.11 27.469 L 55.069 27.394 L 55.023 27.329 L 54.979 27.278 L 54.945 27.24 L 54.909 27.21 L 54.865 27.181 L 54.804 27.146 L 54.728 27.108 L 54.64 27.068 L 54.531 27.032 L 54.395 26.996 L 54.219 26.964 L 53.728 26.94 L 52.64 26.913 L 51.113 26.885 L 49.307 26.864 L 47.377 26.849 L 45.484 26.844 L 43.784 26.855 L 41.911 26.888 L 40.015 26.94 L 38.252 27.001 L 36.777 27.062 L 35.746 27.114 L 35.319 27.146 L 35.24 27.172 L 35.182 27.199 L 35.139 27.227 L 35.1 27.257 L 35.064 27.292 L 35.03 27.327 L 35.009 27.359 L 34.991 27.39 L 34.975 27.426 L 34.954 27.475 L 34.939 27.539 L 34.936 27.614 L 34.929 27.693 L 34.904 27.771 L 34.844 27.841 L 34.411 27.884 L 33.362 27.925 L 31.89 27.964 L 30.193 28.004 L 28.469 28.045 L 26.914 28.088 L 25.722 28.132 L 24.628 28.19 L 23.589 28.256 L 22.67 28.318 L 21.934 28.373 L 21.446 28.41 L 21.268 28.423" />
  <path stroke-linejoin="round" stroke-miterlimit="10" stroke-width="0.13" d="M 51.076 26.812 C 50.305 26.379 49.436 26.152 48.554 26.152 C 47.646 26.152 46.753 26.393 45.968 26.849" />
  <path stroke-linejoin="round" stroke-miterlimit="10" stroke-width="0.13" d="M 52.134 26.957 C 51.133 26.018 49.813 25.495 48.439 25.495 C 47.143 25.495 45.889 25.963 44.908 26.812" />
  <path stroke-linejoin="round" stroke-miterlimit="10" stroke-width="0.13" d="M 48.636 36.936 C 48.636 36.552 48.323 36.24 47.939 36.24 C 47.555 36.24 47.243 36.552 47.243 36.936 C 47.243 37.32 47.555 37.633 47.939 37.633 C 48.323 37.633 48.636 37.32 48.636 36.936 Z" />
  <path stroke-linejoin="round" stroke-miterlimit="10" stroke-width="0.13" d="M 48.981 10.304 L 48.981 12.634" />
  <path stroke-linejoin="round" stroke-miterlimit="10" stroke-width="0.13" d="M 26.856 10.333 L 26.856 12.634" />
  <path stroke-linejoin="round" stroke-miterlimit="10" stroke-width="0.3" d="M 19.362 13.127 L 19.37 13.074 L 19.405 12.936 L 19.452 12.82 L 19.504 12.721 L 19.556 12.64 L 19.597 12.582 L 19.62 12.551 L 19.629 12.538 L 19.638 12.532 L 19.643 12.526 L 19.652 12.519 L 19.663 12.507 L 19.689 12.468 L 19.739 12.387 L 19.811 12.281 L 19.9 12.159 L 20.006 12.037 L 20.112 11.919 L 20.221 11.801 L 20.349 11.683 L 20.515 11.563 L 20.734 11.435 L 21.152 11.285 L 21.777 11.115 L 22.44 10.957 L 22.966 10.839 L 23.179 10.792 L 23.178 10.797 L 23.176 10.807 L 23.175 10.818 L 23.175 10.83 L 23.178 10.836 L 23.192 10.824 L 23.219 10.792 L 23.263 10.75 L 23.321 10.704 L 23.393 10.663 L 23.763 10.615 L 24.538 10.544 L 25.463 10.464 L 26.282 10.384 L 26.739 10.32 L 26.888 10.268 L 26.98 10.212 L 27.053 10.16 L 27.146 10.108 L 27.295 10.064 L 27.35 10.064" />
  <path stroke-linejoin="round" stroke-miterlimit="10" stroke-width="0.3" d="M 56.447 13.798 L 56.426 13.632 L 56.405 13.432 L 56.384 13.244 L 56.359 13.079 L 56.325 12.941 L 56.277 12.824 L 56.225 12.724 L 56.173 12.644 L 56.133 12.586 L 56.109 12.556 L 56.1 12.544 L 56.093 12.535 L 56.085 12.531 L 56.078 12.524 L 56.067 12.512 L 56.04 12.473 L 55.99 12.393 L 55.918 12.285 L 55.829 12.163 L 55.723 12.041 L 55.618 11.923 L 55.509 11.807 L 55.381 11.689 L 55.215 11.567 L 54.994 11.441 L 54.578 11.291 L 53.951 11.121 L 53.289 10.961 L 52.764 10.843 L 52.551 10.797 L 52.551 10.801 L 52.552 10.811 L 52.554 10.823 L 52.554 10.833 L 52.551 10.839 L 52.537 10.829 L 52.509 10.798 L 52.466 10.753 L 52.408 10.708 L 52.335 10.669 L 51.968 10.619 L 51.192 10.548 L 50.267 10.468 L 49.448 10.388 L 48.99 10.324 L 48.843 10.272 L 48.75 10.217 L 48.676 10.163 L 48.584 10.114 L 48.433 10.067 L 48.393 10.067" />
  <path stroke-linejoin="round" stroke-miterlimit="10" stroke-width="0.3" d="M 19.362 13.127 L 19.266 13.881" />
  <path stroke-linejoin="round" stroke-miterlimit="10" stroke-width="0.13" d="M 52.557 10.798 L 52.557 12.894" />
  <path stroke-linejoin="round" stroke-miterlimit="10" stroke-width="0.13" d="M 23.225 10.785 L 23.225 12.99" />
  <path stroke-linejoin="round" stroke-miterlimit="10" stroke-width="0.3" d="M 48.405 10.058 L 43.46 9.771" />
  <path stroke-linejoin="round" stroke-miterlimit="10" stroke-width="0.3" d="M 27.35 10.058 L 32.432 9.826" />
  <path stroke-linejoin="round" stroke-miterlimit="10" stroke-width="0.13" d="M 37.063 32.182 L 38.097 32.182 L 38.661 33.526 L 38.661 32.182 L 39.587 32.182 L 40.298 33.122 L 40.298 32.182 L 40.969 32.182 L 40.969 34.023 L 40.164 34.023 L 39.319 32.935 L 39.319 34.023 L 38.124 34.023 L 38.03 33.74 L 37.115 33.74 L 37.009 34.023 L 36.338 34.023 L 36.392 33.872" />
  <path stroke-linejoin="round" stroke-miterlimit="10" stroke-width="0.13" d="M 35.953 33.292 L 36.624 33.292 L 37.063 32.17" />
  <path stroke-linejoin="round" stroke-miterlimit="10" stroke-width="0.13" d="M 37.337 33.279 L 37.564 32.648 L 37.82 33.292 L 37.326 33.292" />
  <path stroke-linejoin="round" stroke-miterlimit="10" stroke-width="0.13" d="M 35.966 32.881 L 36.719 32.881" />
  <path stroke-linejoin="round" stroke-miterlimit="10" stroke-width="0.13" d="M 33.637 32.744 L 34.432 32.744" />
  <path stroke-linejoin="round" stroke-miterlimit="10" stroke-width="0.13" d="M 32.226 33.444 L 33.034 33.444" />
  <path stroke-linejoin="round" stroke-miterlimit="10" stroke-width="0.13" d="M 41.118 32.182 L 41.829 32.182 L 41.829 33.499 L 42.35 32.183" />
  <path stroke-linejoin="round" stroke-miterlimit="10" stroke-width="0.13" d="M 42.363 32.182 L 43.424 32.182 L 44.191 34.023 L 43.478 34.023 L 43.344 33.74 L 42.472 33.74 L 42.338 34.023 L 41.131 34.023" />
  <path stroke-linejoin="round" stroke-miterlimit="10" stroke-width="0.13" d="M 41.118 34.018 L 41.118 32.182" />
  <path stroke-linejoin="round" stroke-miterlimit="10" stroke-width="0.13" d="M 36.719 32.881 L 36.709 32.829 L 36.703 32.783 L 36.695 32.738 L 36.682 32.692 L 36.659 32.637 L 36.63 32.578 L 36.594 32.52 L 36.554 32.463 L 36.506 32.409 L 36.451 32.359 L 36.395 32.316 L 36.341 32.283 L 36.286 32.256 L 36.228 32.232 L 36.162 32.21 L 36.097 32.189 L 36.037 32.174 L 35.979 32.165 L 35.921 32.158 L 35.857 32.151 L 35.798 32.145 L 35.746 32.14 L 35.698 32.14 L 35.646 32.139 L 35.585 32.14 L 35.521 32.14 L 35.46 32.14 L 35.401 32.143 L 35.335 32.149 L 35.259 32.161 L 35.176 32.173 L 35.094 32.186 L 35.012 32.206 L 34.93 32.234 L 34.847 32.279 L 34.765 32.341 L 34.691 32.414 L 34.625 32.493 L 34.572 32.57 L 34.531 32.637 L 34.505 32.689 L 34.487 32.734 L 34.476 32.773 L 34.469 32.814 L 34.462 32.862 L 34.456 32.92 L 34.454 32.981 L 34.454 33.036 L 34.456 33.076 L 34.457 33.091 L 34.451 33.085 L 34.439 33.07 L 34.418 33.051 L 34.393 33.027 L 34.365 33.006 L 34.335 32.984 L 34.298 32.963 L 34.258 32.942 L 34.213 32.923 L 34.167 32.905 L 34.124 32.89 L 34.085 32.878 L 34.046 32.871 L 34.006 32.863 L 33.96 32.856 L 33.912 32.85 L 33.872 32.847 L 33.832 32.844 L 33.784 32.843 L 33.723 32.84 L 33.634 32.838 L 33.52 32.838 L 33.402 32.838 L 33.302 32.838 L 33.243 32.835 L 33.213 32.831 L 33.192 32.828 L 33.174 32.823 L 33.158 32.817 L 33.14 32.807 L 33.122 32.795 L 33.107 32.78 L 33.094 32.765 L 33.085 32.75 L 33.076 32.732 L 33.072 32.718 L 33.07 32.704 L 33.069 32.692 L 33.07 32.679 L 33.072 32.664 L 33.073 32.646 L 33.075 32.631 L 33.078 32.615 L 33.084 32.598 L 33.093 32.584 L 33.106 32.57 L 33.124 32.557 L 33.143 32.548 L 33.162 32.539 L 33.183 32.53 L 33.201 32.521 L 33.218 32.512 L 33.231 32.505 L 33.249 32.499 L 33.27 32.493 L 33.295 32.487 L 33.322 32.484 L 33.348 32.481 L 33.375 32.481 L 33.398 32.481 L 33.415 32.484 L 33.429 32.487 L 33.442 32.49 L 33.454 32.496 L 33.472 32.503 L 33.496 32.512 L 33.521 32.523 L 33.548 32.534 L 33.575 32.548 L 33.595 32.561 L 33.612 32.575 L 33.624 32.585 L 33.634 32.595 L 33.642 32.609 L 33.649 32.627 L 33.652 32.652 L 33.652 32.682 L 33.649 32.713 L 33.646 32.737 L 33.646 32.752" />
  <path stroke-linejoin="round" stroke-miterlimit="10" stroke-width="0.13" d="M 36.39 33.868 L 36.386 33.869 L 36.38 33.871 L 36.375 33.871 L 36.369 33.874 L 36.365 33.875 L 36.359 33.88 L 36.356 33.883 L 36.353 33.887 L 36.35 33.892 L 36.344 33.898 L 36.335 33.905 L 36.323 33.912 L 36.308 33.923 L 36.29 33.933 L 36.268 33.945 L 36.237 33.96 L 36.197 33.978 L 36.146 33.999 L 36.085 34.018 L 36.017 34.036 L 35.945 34.051 L 35.871 34.063 L 35.792 34.07 L 35.704 34.076 L 35.606 34.079 L 35.499 34.082 L 35.392 34.082 L 35.286 34.078 L 35.182 34.066 L 35.081 34.042 L 34.988 34.009 L 34.911 33.973 L 34.843 33.932 L 34.78 33.887 L 34.718 33.834 L 34.655 33.768 L 34.601 33.694 L 34.558 33.625 L 34.53 33.575 L 34.52 33.554 L 34.52 33.56 L 34.52 33.573 L 34.518 33.591 L 34.515 33.612 L 34.509 33.636 L 34.493 33.665 L 34.466 33.709 L 34.432 33.759 L 34.39 33.808 L 34.343 33.854 L 34.296 33.89 L 34.253 33.92 L 34.206 33.942 L 34.152 33.965 L 34.085 33.988 L 34.011 34.011 L 33.93 34.027 L 33.848 34.042 L 33.765 34.054 L 33.679 34.064 L 33.603 34.072 L 33.54 34.076 L 33.482 34.079 L 33.42 34.079 L 33.347 34.079 L 33.271 34.079 L 33.203 34.078 L 33.134 34.075 L 33.061 34.069 L 32.978 34.057 L 32.892 34.045 L 32.808 34.033 L 32.729 34.018 L 32.651 33.994 L 32.573 33.962 L 32.496 33.918 L 32.429 33.869 L 32.371 33.82 L 32.325 33.771 L 32.289 33.726 L 32.265 33.689 L 32.249 33.656 L 32.238 33.627 L 32.231 33.597 L 32.225 33.566 L 32.219 33.531 L 32.216 33.497 L 32.215 33.468 L 32.213 33.447 L 32.213 33.432" />
  <path stroke-linejoin="round" stroke-miterlimit="10" stroke-width="0.13" d="M 33.021 33.444 L 33.024 33.463 L 33.026 33.482 L 33.027 33.5 L 33.03 33.518 L 33.033 33.533 L 33.036 33.546 L 33.039 33.557 L 33.042 33.567 L 33.048 33.576 L 33.054 33.587 L 33.061 33.6 L 33.07 33.612 L 33.079 33.622 L 33.091 33.634 L 33.107 33.646 L 33.134 33.658 L 33.17 33.67 L 33.215 33.68 L 33.265 33.689 L 33.317 33.694 L 33.369 33.695 L 33.423 33.692 L 33.473 33.688 L 33.521 33.679 L 33.563 33.667 L 33.597 33.652 L 33.627 33.639 L 33.651 33.622 L 33.67 33.606 L 33.686 33.587 L 33.698 33.569 L 33.704 33.551 L 33.709 33.534 L 33.709 33.517 L 33.707 33.496 L 33.704 33.472 L 33.698 33.448 L 33.688 33.426 L 33.673 33.404 L 33.654 33.384 L 33.631 33.368 L 33.606 33.356 L 33.576 33.348 L 33.542 33.343 L 33.505 33.335 L 33.465 33.329 L 33.426 33.325 L 33.386 33.322 L 33.337 33.319 L 33.274 33.314 L 33.189 33.31 L 33.079 33.311 L 32.957 33.308 L 32.838 33.298 L 32.728 33.277 L 32.637 33.244 L 32.56 33.21 L 32.493 33.171 L 32.435 33.127 L 32.387 33.073 L 32.347 33.018 L 32.32 32.963 L 32.302 32.909 L 32.293 32.85 L 32.289 32.784 L 32.29 32.715 L 32.298 32.648 L 32.316 32.582 L 32.341 32.52 L 32.375 32.457 L 32.415 32.402 L 32.459 32.359 L 32.506 32.323 L 32.564 32.289 L 32.633 32.255 L 32.713 32.222 L 32.801 32.198 L 32.892 32.179 L 32.981 32.164 L 33.066 32.152 L 33.136 32.143 L 33.192 32.139 L 33.241 32.137 L 33.296 32.136 L 33.365 32.137 L 33.445 32.137 L 33.524 32.14 L 33.604 32.145 L 33.685 32.152 L 33.767 32.164 L 33.841 32.176 L 33.905 32.189 L 33.963 32.204 L 34.021 32.223 L 34.082 32.25 L 34.145 32.279 L 34.201 32.308 L 34.252 32.34 L 34.295 32.372 L 34.334 32.409 L 34.363 32.445 L 34.386 32.478 L 34.402 32.511 L 34.414 32.545 L 34.424 32.581 L 34.432 32.622 L 34.435 32.665 L 34.435 32.704 L 34.433 32.732 L 34.433 32.746" />
  <path stroke-linejoin="round" stroke-miterlimit="10" stroke-width="0.13" d="M 35.966 32.881 L 35.957 32.85 L 35.948 32.82 L 35.942 32.793 L 35.93 32.767 L 35.915 32.738 L 35.896 32.713 L 35.877 32.695 L 35.856 32.677 L 35.832 32.661 L 35.802 32.643 L 35.771 32.624 L 35.741 32.607 L 35.71 32.594 L 35.676 32.582 L 35.637 32.573 L 35.597 32.566 L 35.561 32.561 L 35.526 32.56 L 35.487 32.564 L 35.445 32.573 L 35.399 32.588 L 35.356 32.606 L 35.317 32.63 L 35.277 32.659 L 35.241 32.695 L 35.21 32.737 L 35.189 32.78 L 35.171 32.825 L 35.158 32.871 L 35.146 32.92 L 35.134 32.966 L 35.127 33.006 L 35.122 33.043 L 35.121 33.085 L 35.124 33.134 L 35.128 33.192 L 35.137 33.249 L 35.149 33.305 L 35.165 33.36 L 35.188 33.412 L 35.213 33.459 L 35.24 33.496 L 35.268 33.527 L 35.301 33.554 L 35.338 33.579 L 35.377 33.6 L 35.414 33.613 L 35.451 33.621 L 35.49 33.628 L 35.53 33.631 L 35.57 33.636 L 35.604 33.637 L 35.637 33.637 L 35.67 33.631 L 35.707 33.621 L 35.747 33.606 L 35.786 33.588 L 35.822 33.567 L 35.853 33.543 L 35.878 33.52 L 35.896 33.497 L 35.908 33.478 L 35.917 33.457 L 35.923 33.436 L 35.932 33.412 L 35.939 33.384 L 35.945 33.354 L 35.95 33.328 L 35.951 33.307 L 35.951 33.293" />
  <path stroke-linejoin="round" stroke-miterlimit="10" stroke-width="0.13" d="M 36.35 31.896 L 39.529 31.896" />
  <path stroke-linejoin="round" stroke-miterlimit="10" stroke-width="0.13" d="M 36.487 34.32 L 39.392 34.32" />
  <path stroke-linejoin="round" stroke-miterlimit="10" stroke-width="0.13" d="M 43.173 33.279 L 42.661 33.279 L 42.904 32.648 L 43.173 33.279 Z" />
  <path stroke-linejoin="round" stroke-miterlimit="10" stroke-width="0.3" d="M 24.664 13.811 L 28.719 13.455" />
  <path stroke-linejoin="round" stroke-miterlimit="10" stroke-width="0.3" d="M 24.746 16.306 L 28.939 16.032" />
  <path stroke-linejoin="round" stroke-miterlimit="10" stroke-width="0.3" d="M 24.129 14.305 L 24.088 15.962" />
  <path stroke-linejoin="round" stroke-miterlimit="10" stroke-width="0.3" d="M 29.117 14.032 L 29.158 15.593" />
  <path stroke-linejoin="round" stroke-miterlimit="10" stroke-width="0.3" d="M 24.658 13.811 C 24.39 13.835 24.172 14.035 24.123 14.301" />
  <path stroke-linejoin="round" stroke-miterlimit="10" stroke-width="0.3" d="M 29.117 14.032 L 29.103 13.826" />
  <path stroke-linejoin="round" stroke-miterlimit="10" stroke-width="0.3" d="M 24.746 16.306 L 24.335 16.318" />
  <path stroke-linejoin="round" stroke-miterlimit="10" stroke-width="0.3" d="M 29.102 13.827 C 29.106 13.808 29.106 13.788 29.106 13.769 C 29.106 13.59 28.961 13.446 28.783 13.446 C 28.763 13.446 28.74 13.448 28.719 13.452" />
  <path stroke-linejoin="round" stroke-miterlimit="10" stroke-width="0.3" d="M 28.942 16.041 C 29.077 15.929 29.158 15.768 29.166 15.593" />
  <path stroke-linejoin="round" stroke-miterlimit="10" stroke-width="0.3" d="M 24.079 15.951 C 24.077 15.964 24.077 15.977 24.077 15.99 C 24.077 16.15 24.185 16.289 24.341 16.327" />
  <path stroke-linejoin="round" stroke-miterlimit="10" stroke-width="0.3" d="M 19.923 17.332 L 20.376 17.274 L 20.745 17.224 L 21.109 17.175 L 21.553 17.123 L 22.155 17.065 L 22.957 17.004 L 24.103 16.931 L 25.474 16.852 L 26.949 16.769 L 28.411 16.69 L 29.74 16.618 L 30.908 16.557 L 31.972 16.503 L 32.932 16.455 L 33.793 16.414 L 34.557 16.381 L 35.228 16.352 L 35.969 16.321 L 36.648 16.297 L 37.207 16.278 L 37.588 16.266 L 37.725 16.266" />
  <path stroke-linejoin="round" stroke-miterlimit="10" stroke-width="0.3" d="M 19.923 17.332 L 19.728 17.379 L 19.542 17.428 L 19.367 17.474 L 19.21 17.504 L 19.077 17.512 L 18.964 17.503 L 18.871 17.487 L 18.792 17.463 L 18.728 17.428 L 18.675 17.378 L 18.64 17.321 L 18.626 17.265 L 18.625 17.201 L 18.629 17.121 L 18.631 17.021 L 18.632 16.826 L 18.646 16.507 L 18.673 16.117 L 18.711 15.705 L 18.763 15.324 L 18.826 14.977 L 18.893 14.644 L 18.966 14.352 L 19.042 14.125 L 19.12 13.987 L 19.196 13.923 L 19.268 13.893 L 19.341 13.881 L 19.423 13.872 L 19.522 13.852 L 19.621 13.823 L 19.713 13.798 L 19.812 13.774 L 19.937 13.747 L 20.103 13.718 L 20.58 13.66 L 21.597 13.551 L 23.013 13.409 L 24.682 13.25 L 26.466 13.096 L 28.224 12.961 L 29.815 12.861 L 31.58 12.768 L 33.369 12.685 L 35.027 12.615 L 36.401 12.561 L 37.337 12.526 L 37.679 12.512" />
  <path stroke-linejoin="round" stroke-miterlimit="10" stroke-width="0.3" d="M 51.228 13.811 L 47.173 13.455" />
  <path stroke-linejoin="round" stroke-miterlimit="10" stroke-width="0.3" d="M 51.131 16.306 L 46.939 16.032" />
  <path stroke-linejoin="round" stroke-miterlimit="10" stroke-width="0.3" d="M 51.762 14.305 L 51.802 15.962" />
  <path stroke-linejoin="round" stroke-miterlimit="10" stroke-width="0.3" d="M 46.762 14.032 L 46.72 15.593" />
  <path stroke-linejoin="round" stroke-miterlimit="10" stroke-width="0.3" d="M 51.758 14.301 C 51.71 14.035 51.491 13.835 51.223 13.811" />
  <path stroke-linejoin="round" stroke-miterlimit="10" stroke-width="0.3" d="M 46.762 14.032 L 46.776 13.826" />
  <path stroke-linejoin="round" stroke-miterlimit="10" stroke-width="0.3" d="M 51.131 16.306 L 51.542 16.318" />
  <path stroke-linejoin="round" stroke-miterlimit="10" stroke-width="0.3" d="M 47.164 13.452 C 47.143 13.448 47.121 13.446 47.1 13.446 C 46.921 13.446 46.777 13.59 46.777 13.769 C 46.777 13.788 46.779 13.808 46.781 13.827" />
  <path stroke-linejoin="round" stroke-miterlimit="10" stroke-width="0.3" d="M 46.716 15.593 C 46.725 15.768 46.805 15.929 46.939 16.041" />
  <path stroke-linejoin="round" stroke-miterlimit="10" stroke-width="0.3" d="M 51.54 16.327 C 51.697 16.289 51.805 16.15 51.805 15.99 C 51.805 15.977 51.804 15.964 51.804 15.951" />
  <path stroke-linejoin="round" stroke-miterlimit="10" stroke-width="0.3" d="M 55.954 17.332 L 56.149 17.379 L 56.337 17.428 L 56.512 17.474 L 56.667 17.504 L 56.801 17.512 L 56.912 17.503 L 57.006 17.487 L 57.085 17.463 L 57.149 17.428 L 57.204 17.378 L 57.238 17.321 L 57.253 17.265 L 57.253 17.201 L 57.25 17.121 L 57.247 17.021 L 57.244 16.826 L 57.231 16.507 L 57.206 16.117 L 57.167 15.705 L 57.113 15.324 L 57.051 14.977 L 56.984 14.644 L 56.911 14.352 L 56.837 14.125 L 56.756 13.987 L 56.682 13.923 L 56.61 13.893 L 56.536 13.881 L 56.454 13.872 L 56.356 13.852 L 56.256 13.823 L 56.165 13.798 L 56.067 13.774 L 55.942 13.747 L 55.776 13.718 L 55.298 13.66 L 54.28 13.551 L 52.865 13.409 L 51.195 13.25 L 49.411 13.096 L 47.655 12.961 L 46.064 12.861 L 44.296 12.768 L 42.509 12.685 L 40.851 12.615 L 39.478 12.561 L 38.542 12.526 L 38.2 12.512" />
  <path stroke-linejoin="round" stroke-miterlimit="10" stroke-width="0.3" d="M 55.954 17.332 L 55.502 17.274 L 55.134 17.224 L 54.768 17.175 L 54.325 17.123 L 53.722 17.065 L 52.921 17.004 L 51.776 16.931 L 50.405 16.852 L 48.929 16.769 L 47.466 16.69 L 46.137 16.618 L 44.969 16.557 L 43.905 16.503 L 42.945 16.455 L 42.085 16.414 L 41.32 16.381 L 40.649 16.352 L 39.909 16.321 L 39.229 16.297 L 38.67 16.278 L 38.29 16.266 L 38.154 16.266" />
  <path stroke-linejoin="round" stroke-miterlimit="10" stroke-width="0.3" d="M 37.734 16.265 L 38.295 16.265" />
  <path stroke-linejoin="round" stroke-miterlimit="10" stroke-width="0.3" d="M 37.692 12.51 L 38.2 12.51" />
  <path stroke-linejoin="round" stroke-miterlimit="10" stroke-width="0.3" d="M 14.678 22.69 L 14.932 22.725 L 15.166 22.768 L 15.387 22.804 L 15.606 22.826 L 15.835 22.818 L 16.056 22.78 L 16.254 22.724 L 16.431 22.655 L 16.589 22.585 L 16.736 22.518 L 16.87 22.46 L 16.986 22.407 L 17.083 22.356 L 17.158 22.309 L 17.207 22.26 L 17.234 22.219 L 17.246 22.184 L 17.25 22.149 L 17.248 22.106 L 17.251 22.047 L 17.254 21.908 L 17.251 21.664 L 17.239 21.355 L 17.21 21.024 L 17.164 20.716 L 17.1 20.431 L 17.022 20.157 L 16.94 19.913 L 16.856 19.721 L 16.778 19.602 L 16.71 19.542 L 16.646 19.51 L 16.582 19.493 L 16.513 19.484 L 16.435 19.474 L 16.361 19.461 L 16.297 19.455 L 16.231 19.455 L 16.153 19.461 L 16.05 19.474 L 15.862 19.5 L 15.583 19.548 L 15.269 19.614 L 14.975 19.69 L 14.763 19.774 L 14.632 19.85 L 14.538 19.92 L 14.465 19.993 L 14.401 20.085 L 14.335 20.202 L 14.272 20.338 L 14.23 20.481 L 14.201 20.635 L 14.182 20.812 L 14.163 21.018 L 14.144 21.257 L 14.131 21.518 L 14.131 21.777 L 14.153 22.018 L 14.205 22.217 L 14.301 22.382 L 14.423 22.524 L 14.545 22.635 L 14.64 22.707 L 14.681 22.734" />
  <path stroke-linejoin="round" stroke-miterlimit="10" stroke-width="0.3" d="M 17.115 23.278 L 16.955 23.301 L 16.811 23.329 L 16.672 23.353 L 16.533 23.365 L 16.387 23.364 L 16.227 23.338 L 16.065 23.295 L 15.923 23.246 L 15.824 23.208 L 15.787 23.193 L 15.742 23.196 L 15.63 23.207 L 15.484 23.225 L 15.339 23.25 L 15.228 23.278 L 15.159 23.306 L 15.105 23.33 L 15.061 23.359 L 15.019 23.396 L 14.971 23.449 L 14.92 23.513 L 14.875 23.585 L 14.833 23.67 L 14.794 23.778 L 14.756 23.922 L 14.72 24.416 L 14.678 25.445 L 14.635 26.737 L 14.602 28.024 L 14.583 29.035 L 14.586 29.496 L 14.603 29.597 L 14.621 29.67 L 14.641 29.728 L 14.672 29.78 L 14.714 29.839 L 14.765 29.896 L 14.817 29.939 L 14.874 29.974 L 14.939 30.01 L 15.015 30.053 L 15.089 30.102 L 15.154 30.146 L 15.227 30.187 L 15.319 30.228 L 15.444 30.268 L 15.714 30.301 L 16.157 30.326 L 16.658 30.35 L 17.102 30.385 L 17.373 30.44 L 17.5 30.51 L 17.591 30.582 L 17.66 30.658 L 17.711 30.739 L 17.76 30.826 L 17.789 30.917 L 17.792 31.007 L 17.791 31.089 L 17.801 31.16 L 17.846 31.211 L 17.951 31.222 L 18.109 31.189 L 18.277 31.132 L 18.417 31.076 L 18.486 31.035" />
  <path stroke-linejoin="round" stroke-miterlimit="10" stroke-width="0.3" d="M 17.896 23.579 L 17.96 24.315 L 18.022 24.984 L 18.08 25.617 L 18.126 26.254 L 18.153 26.925 L 18.155 27.658 L 18.135 28.394 L 18.106 29.039 L 18.079 29.495 L 18.065 29.673" />
  <path stroke-linejoin="round" stroke-miterlimit="10" stroke-width="0.3" d="M 16.774 22.594 L 16.815 22.936" />
  <path stroke-linejoin="round" stroke-miterlimit="10" stroke-width="0.3" d="M 16.815 22.936 L 19.896 22.292" />
  <path stroke-linejoin="round" stroke-miterlimit="10" stroke-width="0.3" d="M 20.074 23.114 L 17.882 23.579" />
  <path stroke-linejoin="round" stroke-miterlimit="10" stroke-width="0.3" d="M 18.06 29.675 L 18.527 29.855" />
  <path stroke-linejoin="round" stroke-miterlimit="10" stroke-width="0.3" d="M 18.362 29.759 L 18.445 23.416" />
  <path stroke-linejoin="round" stroke-miterlimit="10" stroke-width="0.3" d="M 15.964 22.894 L 16.033 23.292" />
  <path stroke-linejoin="round" stroke-miterlimit="10" stroke-width="0.3" d="M 60.46 23.237 L 60.533 23.248 L 60.643 23.278 L 60.713 23.306 L 60.765 23.33 L 60.808 23.359 L 60.85 23.396 L 60.899 23.449 L 60.951 23.513 L 60.996 23.583 L 61.037 23.67 L 61.076 23.778 L 61.115 23.922 L 61.151 24.416 L 61.194 25.445 L 61.235 26.737 L 61.27 28.024 L 61.289 29.035 L 61.286 29.496 L 61.268 29.597 L 61.25 29.67 L 61.228 29.728 L 61.2 29.78 L 61.156 29.839 L 61.106 29.896 L 61.054 29.937 L 60.997 29.974 L 60.932 30.01 L 60.856 30.053 L 60.783 30.102 L 60.716 30.146 L 60.643 30.187 L 60.552 30.228 L 60.427 30.268 L 60.158 30.301 L 59.715 30.326 L 59.213 30.35 L 58.77 30.385 L 58.497 30.44 L 58.371 30.51 L 58.28 30.582 L 58.212 30.658 L 58.159 30.739 L 58.112 30.826 L 58.082 30.917 L 58.079 31.007 L 58.081 31.089 L 58.07 31.16 L 58.026 31.211 L 57.92 31.222 L 57.762 31.189 L 57.593 31.132 L 57.453 31.076 L 57.384 31.035" />
  <path stroke-linejoin="round" stroke-miterlimit="10" stroke-width="0.3" d="M 57.996 23.579 L 57.932 24.315 L 57.868 24.984 L 57.811 25.617 L 57.765 26.254 L 57.737 26.925 L 57.737 27.658 L 57.756 28.394 L 57.786 29.039 L 57.813 29.495 L 57.826 29.673" />
  <path stroke-linejoin="round" stroke-miterlimit="10" stroke-width="0.3" d="M 59.064 22.936 L 55.981 22.292" />
  <path stroke-linejoin="round" stroke-miterlimit="10" stroke-width="0.13" d="M 55.968 22.292 L 55.749 22.375" />
  <path stroke-linejoin="round" stroke-miterlimit="10" stroke-width="0.13" d="M 55.762 22.388 L 55.804 23.114" />
  <path stroke-linejoin="round" stroke-miterlimit="10" stroke-width="0.3" d="M 55.804 23.114 L 57.996 23.579" />
  <path stroke-linejoin="round" stroke-miterlimit="10" stroke-width="0.13" d="M 57.996 23.579 L 57.954 23.457" />
  <path stroke-linejoin="round" stroke-miterlimit="10" stroke-width="0.3" d="M 57.817 29.675 L 57.351 29.855" />
  <path stroke-linejoin="round" stroke-miterlimit="10" stroke-width="0.3" d="M 57.515 29.759 L 57.433 23.416" />
  <path stroke-linejoin="round" stroke-miterlimit="10" stroke-width="0.3" d="M 60.46 23.237 L 59.049 22.936" />
  <path stroke-linejoin="round" stroke-miterlimit="10" stroke-width="0.3" d="M 24.65 34.963 L 25.664 49.267" />
  <path stroke-linejoin="round" stroke-miterlimit="10" stroke-width="0.3" d="M 24.733 36.101 L 36.46 36.101" />
  <path stroke-linejoin="round" stroke-miterlimit="10" stroke-width="0.3" d="M 24.896 38.033 L 42.24 38.033" />
  <path stroke-linejoin="round" stroke-miterlimit="10" stroke-width="0.3" d="M 24.925 39.183 L 42.24 39.183" />
  <path stroke-linejoin="round" stroke-miterlimit="10" stroke-width="0.3" d="M 25.088 41.046 L 42.103 41.046" />
  <path stroke-linejoin="round" stroke-miterlimit="10" stroke-width="0.3" d="M 25.184 42.17 L 42.118 42.17" />
  <path stroke-linejoin="round" stroke-miterlimit="10" stroke-width="0.3" d="M 25.335 44.088 L 41.911 44.088" />
  <path stroke-linejoin="round" stroke-miterlimit="10" stroke-width="0.3" d="M 25.445 45.238 L 42.35 45.238" />
  <path stroke-linejoin="round" stroke-miterlimit="10" stroke-width="0.3" d="M 25.513 46.649 L 41.981 46.649" />
  <path stroke-linejoin="round" stroke-miterlimit="10" stroke-width="0.3" d="M 25.568 47.856 L 42.09 47.856" />
  <path stroke-linejoin="round" stroke-miterlimit="10" stroke-width="0.3" d="M 25.664 49.253 L 25.746 50.841" />
  <path stroke-linejoin="round" stroke-miterlimit="10" stroke-width="0.3" d="M 25.748 50.844 C 25.865 51.392 26.323 51.801 26.881 51.854" />
  <path stroke-linejoin="round" stroke-miterlimit="10" stroke-width="0.3" d="M 25.746 50.841 L 42.09 50.841" />
  <path stroke-linejoin="round" stroke-miterlimit="10" stroke-width="0.3" d="M 26.884 51.856 L 41.884 51.856" />
  <path stroke-linejoin="round" stroke-miterlimit="10" stroke-width="0.3" d="M 32.487 54.07 L 32.482 54.07 C 32.232 54.07 32.03 54.271 32.03 54.521 L 32.031 54.551" />
  <path stroke-linejoin="round" stroke-miterlimit="10" stroke-width="0.3" d="M 37.597 54.911 L 32.034 54.911" />
  <path stroke-linejoin="round" stroke-miterlimit="10" stroke-width="0.3" d="M 32.034 54.911 L 32.034 54.554" />
  <path stroke-linejoin="round" stroke-miterlimit="10" stroke-width="0.3" d="M 19.321 56.427 C 19.359 57.118 19.777 57.729 20.405 58.017" />
  <path stroke-linejoin="round" stroke-miterlimit="10" stroke-width="0.3" d="M 18.167 54.648 C 18.175 55.45 18.495 56.218 19.056 56.789" />
  <path stroke-linejoin="round" stroke-miterlimit="10" stroke-width="0.3" d="M 18.841 52.335 L 18.824 52.374 L 18.807 52.404 L 18.792 52.435 L 18.778 52.472 L 18.769 52.527 L 18.821 52.97 L 18.957 53.936 L 19.12 55.067 L 19.26 56.015 L 19.329 56.426" />
  <path stroke-linejoin="round" stroke-miterlimit="10" stroke-width="0.3" d="M 20.403 58.021 L 20.611 58.128 L 20.783 58.225 L 20.951 58.319 L 21.152 58.409 L 21.414 58.502 L 21.743 58.588 L 22.114 58.661 L 22.521 58.722 L 22.955 58.771 L 23.413 58.814 L 23.919 58.841 L 24.452 58.85 L 24.931 58.848 L 25.277 58.843 L 25.414 58.843" />
  <path stroke-linejoin="round" stroke-miterlimit="10" stroke-width="0.3" d="M 18.964 56.746 L 18.964 62.377" />
  <path stroke-linejoin="round" stroke-miterlimit="10" stroke-width="0.3" d="M 18.964 62.377 L 19.445 62.787" />
  <path stroke-linejoin="round" stroke-miterlimit="10" stroke-width="0.3" d="M 19.445 62.787 L 23.033 62.787" />
  <path stroke-linejoin="round" stroke-miterlimit="10" stroke-width="0.3" d="M 23.033 62.787 L 23.541 62.253" />
  <path stroke-linejoin="round" stroke-miterlimit="10" stroke-width="0.3" d="M 23.541 62.253 L 23.541 58.843" />
  <path stroke-linejoin="round" stroke-miterlimit="10" stroke-width="0.3" d="M 37.597 54.048 L 37.597 54.911" />
  <path stroke-linejoin="round" stroke-miterlimit="10" stroke-width="0.3" d="M 43.85 54.551 L 43.851 54.521 C 43.851 54.271 43.649 54.07 43.399 54.07 L 43.395 54.07" />
  <path stroke-linejoin="round" stroke-miterlimit="10" stroke-width="0.3" d="M 38.295 54.048 L 38.295 54.911" />
  <path stroke-linejoin="round" stroke-miterlimit="10" stroke-width="0.3" d="M 38.295 54.911 L 43.857 54.911" />
  <path stroke-linejoin="round" stroke-miterlimit="10" stroke-width="0.3" d="M 43.857 54.911 L 43.857 54.554" />
  <path stroke-linejoin="round" stroke-miterlimit="10" stroke-width="0.3" d="M 49.009 51.856 L 34.008 51.856" />
  <path stroke-linejoin="round" stroke-miterlimit="10" stroke-width="0.3" d="M 25.719 49.719 L 41.911 49.719" />
  <path stroke-linejoin="round" stroke-miterlimit="10" stroke-width="0.3" d="M 50.158 49.719 L 33.966 49.719" />
  <path stroke-linejoin="round" stroke-miterlimit="10" stroke-width="0.3" d="M 51.228 34.963 L 50.213 49.267" />
  <path stroke-linejoin="round" stroke-miterlimit="10" stroke-width="0.3" d="M 50.542 44.088 L 33.966 44.088" />
  <path stroke-linejoin="round" stroke-miterlimit="10" stroke-width="0.3" d="M 50.447 45.238 L 33.542 45.238" />
  <path stroke-linejoin="round" stroke-miterlimit="10" stroke-width="0.3" d="M 50.365 46.649 L 33.898 46.649" />
  <path stroke-linejoin="round" stroke-miterlimit="10" stroke-width="0.3" d="M 50.31 47.856 L 33.787 47.856" />
  <path stroke-linejoin="round" stroke-miterlimit="10" stroke-width="0.3" d="M 50.213 49.253 L 50.131 50.841" />
  <path stroke-linejoin="round" stroke-miterlimit="10" stroke-width="0.3" d="M 49.003 51.854 C 49.561 51.801 50.018 51.392 50.134 50.844" />
  <path stroke-linejoin="round" stroke-miterlimit="10" stroke-width="0.3" d="M 36.46 36.101 L 39.57 36.101" />
  <path stroke-linejoin="round" stroke-miterlimit="10" stroke-width="0.3" d="M 51.146 36.101 L 39.418 36.101" />
  <path stroke-linejoin="round" stroke-miterlimit="10" stroke-width="0.3" d="M 50.981 38.033 L 33.637 38.033" />
  <path stroke-linejoin="round" stroke-miterlimit="10" stroke-width="0.3" d="M 50.954 39.183 L 33.637 39.183" />
  <path stroke-linejoin="round" stroke-miterlimit="10" stroke-width="0.3" d="M 50.802 41.046 L 33.787 41.046" />
  <path stroke-linejoin="round" stroke-miterlimit="10" stroke-width="0.3" d="M 50.694 42.17 L 33.761 42.17" />
  <path stroke-linejoin="round" stroke-miterlimit="10" stroke-width="0.3" d="M 55.478 58.017 C 56.106 57.731 56.524 57.118 56.561 56.429" />
  <path stroke-linejoin="round" stroke-miterlimit="10" stroke-width="0.3" d="M 56.826 56.789 C 57.387 56.216 57.707 55.45 57.716 54.648" />
  <path stroke-linejoin="round" stroke-miterlimit="10" stroke-width="0.3" d="M 55.475 58.021 L 55.268 58.128 L 55.095 58.225 L 54.926 58.319 L 54.726 58.409 L 54.463 58.502 L 54.134 58.588 L 53.764 58.661 L 53.357 58.722 L 52.923 58.771 L 52.466 58.814 L 51.96 58.841 L 51.426 58.85 L 50.948 58.848 L 50.6 58.843 L 50.463 58.843" />
  <path stroke-linejoin="round" stroke-miterlimit="10" stroke-width="0.3" d="M 56.926 56.746 L 56.926 62.377" />
  <path stroke-linejoin="round" stroke-miterlimit="10" stroke-width="0.3" d="M 56.926 62.377 L 56.447 62.787" />
  <path stroke-linejoin="round" stroke-miterlimit="10" stroke-width="0.3" d="M 56.447 62.787 L 52.857 62.787" />
  <path stroke-linejoin="round" stroke-miterlimit="10" stroke-width="0.3" d="M 52.857 62.787 L 52.35 62.253" />
  <path stroke-linejoin="round" stroke-miterlimit="10" stroke-width="0.3" d="M 52.35 62.253 L 52.35 58.843" />
  <path stroke-linejoin="round" stroke-miterlimit="10" stroke-width="0.13" d="M 47.707 32.279 L 47.655 32.229 L 47.61 32.183 L 47.567 32.14 L 47.52 32.1 L 47.46 32.06 L 47.401 32.027 L 47.348 32.002 L 47.293 31.983 L 47.225 31.966 L 47.131 31.951 L 46.898 31.937 L 46.491 31.931 L 46.033 31.932 L 45.64 31.939 L 45.435 31.951 L 45.374 31.963 L 45.334 31.972 L 45.301 31.986 L 45.265 32.005 L 45.216 32.033 L 45.143 32.069 L 45.057 32.113 L 44.963 32.173 L 44.868 32.255 L 44.777 32.36 L 44.694 32.503 L 44.618 32.68 L 44.557 32.875 L 44.517 33.075 L 44.503 33.265 L 44.517 33.438 L 44.551 33.597 L 44.598 33.737 L 44.658 33.854 L 44.722 33.948 L 44.78 34.015 L 44.829 34.06 L 44.883 34.09 L 44.953 34.113 L 45.051 34.14 L 45.351 34.164 L 45.905 34.173 L 46.526 34.173 L 47.031 34.17 L 47.237 34.17" />
  <path stroke-linejoin="round" stroke-miterlimit="10" stroke-width="0.13" d="M 28.596 32.279 L 28.647 32.229 L 28.692 32.183 L 28.734 32.14 L 28.783 32.1 L 28.843 32.06 L 28.902 32.027 L 28.954 32.002 L 29.009 31.983 L 29.077 31.966 L 29.17 31.951 L 29.405 31.937 L 29.812 31.931 L 30.269 31.932 L 30.661 31.939 L 30.868 31.951 L 30.928 31.963 L 30.969 31.972 L 31.001 31.986 L 31.038 32.005 L 31.088 32.033 L 31.158 32.069 L 31.245 32.113 L 31.339 32.173 L 31.435 32.255 L 31.525 32.36 L 31.609 32.503 L 31.684 32.68 L 31.745 32.875 L 31.786 33.075 L 31.8 33.265 L 31.786 33.438 L 31.753 33.597 L 31.704 33.737 L 31.644 33.854 L 31.58 33.948 L 31.524 34.015 L 31.474 34.06 L 31.42 34.09 L 31.35 34.113 L 31.251 34.14 L 30.951 34.164 L 30.399 34.173 L 29.777 34.173 L 29.271 34.17 L 29.065 34.17" />
  <path stroke-linejoin="round" stroke-miterlimit="10" stroke-width="0.13" d="M 21.007 39.402 L 19.719 39.389" />
  <path stroke-linejoin="round" stroke-miterlimit="10" stroke-width="0.13" d="M 19.733 39.389 L 19.733 39.539" />
  <path stroke-linejoin="round" stroke-miterlimit="10" stroke-width="0.13" d="M 19.733 39.539 L 21.047 39.676" />
  <path stroke-linejoin="round" stroke-miterlimit="10" stroke-width="0.13" d="M 21.103 40.854 L 19.815 40.841" />
  <path stroke-linejoin="round" stroke-miterlimit="10" stroke-width="0.13" d="M 19.815 40.841 L 19.815 40.991" />
  <path stroke-linejoin="round" stroke-miterlimit="10" stroke-width="0.13" d="M 19.815 40.978 L 21.129 41.115" />
  <path stroke-linejoin="round" stroke-miterlimit="10" stroke-width="0.13" d="M 21.225 42.402 L 19.937 42.39" />
  <path stroke-linejoin="round" stroke-miterlimit="10" stroke-width="0.13" d="M 19.937 42.39 L 19.937 42.539" />
  <path stroke-linejoin="round" stroke-miterlimit="10" stroke-width="0.13" d="M 19.937 42.527 L 21.253 42.664" />
  <path stroke-linejoin="round" stroke-miterlimit="10" stroke-width="0.13" d="M 54.886 39.402 L 56.173 39.389" />
  <path stroke-linejoin="round" stroke-miterlimit="10" stroke-width="0.13" d="M 56.173 39.389 L 56.173 39.539" />
  <path stroke-linejoin="round" stroke-miterlimit="10" stroke-width="0.13" d="M 56.173 39.539 L 54.857 39.676" />
  <path stroke-linejoin="round" stroke-miterlimit="10" stroke-width="0.13" d="M 54.789 40.854 L 56.078 40.841" />
  <path stroke-linejoin="round" stroke-miterlimit="10" stroke-width="0.13" d="M 56.078 40.841 L 56.078 40.991" />
  <path stroke-linejoin="round" stroke-miterlimit="10" stroke-width="0.13" d="M 56.078 40.978 L 54.762 41.115" />
  <path stroke-linejoin="round" stroke-miterlimit="10" stroke-width="0.13" d="M 54.679 42.402 L 55.968 42.39" />
  <path stroke-linejoin="round" stroke-miterlimit="10" stroke-width="0.13" d="M 55.968 42.39 L 55.968 42.539" />
  <path stroke-linejoin="round" stroke-miterlimit="10" stroke-width="0.13" d="M 55.968 42.527 L 54.652 42.664" />
 </g>
 <g id="Symbols">
  <path stroke="#ffffff" stroke-linejoin="round" stroke-miterlimit="10" stroke-width="1.411" d="M 35.253 8.907 L 40.582 19.114" />
  <path stroke="#ffffff" stroke-linejoin="round" stroke-miterlimit="10" stroke-width="1.411" d="M 36.445 8.702 L 41.57 18.469" />
  <path stroke="#ffffff" stroke-linejoin="round" stroke-miterlimit="10" stroke-width="1.411" d="M 53.939 22.99 L 54.981 22.99" />
  <path stroke="#ffffff" stroke-linejoin="round" stroke-miterlimit="10" stroke-width="1.411" d="M 54.981 22.99 L 58.899 16.62" />
  <path stroke="#ffffff" stroke-linejoin="round" stroke-miterlimit="10" stroke-width="1.411" d="M 53.625 24.155 L 55.667 24.155" />
  <path stroke="#ffffff" stroke-linejoin="round" stroke-miterlimit="10" stroke-width="1.411" d="M 55.667 24.155 L 58.351 20.114" />
  <path stroke="#ffffff" stroke-linejoin="round" stroke-miterlimit="10" stroke-width="1.411" d="M 12.801 27.786 L 20.157 28.114" />
  <path stroke="#ffffff" stroke-linejoin="round" stroke-miterlimit="10" stroke-width="1.411" d="M 20.157 28.114 L 30.542 46.965" />
  <path stroke="#ffffff" stroke-linejoin="round" stroke-miterlimit="10" stroke-width="1.411" d="M 30.542 46.965 L 29.829 47.238" />
  <path stroke="#ffffff" stroke-linejoin="round" stroke-miterlimit="10" stroke-width="1.411" d="M 29.829 47.238 L 23.568 42.951" />
  <path stroke="#ffffff" stroke-linejoin="round" stroke-miterlimit="10" stroke-width="1.411" d="M 23.568 42.951 L 17.198 52.514" />
  <path stroke="#ffffff" stroke-linejoin="round" stroke-miterlimit="10" stroke-width="1.411" d="M 12.91 28.716 L 19.5 29.1" />
  <path stroke="#ffffff" stroke-linejoin="round" stroke-miterlimit="10" stroke-width="1.411" d="M 19.5 29.1 L 28.076 44.649" />
  <path stroke="#ffffff" stroke-linejoin="round" stroke-miterlimit="10" stroke-width="1.411" d="M 28.076 44.649 L 23.239 41.238" />
  <path stroke="#ffffff" stroke-linejoin="round" stroke-miterlimit="10" stroke-width="1.411" d="M 23.239 41.253 L 17.582 49.938" />
  <path stroke="#ffffff" stroke-linejoin="round" stroke-miterlimit="10" stroke-width="1.411" d="M 58.488 47.293 L 52.296 47.17" />
  <path stroke="#ffffff" stroke-linejoin="round" stroke-miterlimit="10" stroke-width="1.411" d="M 52.296 47.17 L 52.296 39.814" />
  <path stroke="#ffffff" stroke-linejoin="round" stroke-miterlimit="10" stroke-width="1.411" d="M 52.296 39.814 L 51.31 39.512" />
  <path stroke="#ffffff" stroke-linejoin="round" stroke-miterlimit="10" stroke-width="1.411" d="M 51.378 39.512 L 41.405 57.404" />
  <path stroke="#ffffff" stroke-linejoin="round" stroke-miterlimit="10" stroke-width="1.411" d="M 41.337 57.404 L 42.802 59.898" />
  <path stroke="#ffffff" stroke-linejoin="round" stroke-miterlimit="10" stroke-width="1.411" d="M 44.036 59.459 L 42.911 57.527" />
  <path stroke="#ffffff" stroke-linejoin="round" stroke-miterlimit="10" stroke-width="1.411" d="M 42.926 57.527 L 51.049 42.731" />
  <path stroke="#ffffff" stroke-linejoin="round" stroke-miterlimit="10" stroke-width="1.411" d="M 51.049 42.731 L 51.009 48.54" />
  <path stroke="#ffffff" stroke-linejoin="round" stroke-miterlimit="10" stroke-width="1.411" d="M 51.009 48.54 L 58.488 48.622" />
  <path stroke-linejoin="round" stroke-miterlimit="10" stroke-width="0.5" d="M 36.569 10.071 L 41.802 20.251" />
  <path stroke-linejoin="round" stroke-miterlimit="10" stroke-width="0.5" d="M 41.802 20.251 L 35.679 23.608" />
  <path stroke-linejoin="round" stroke-miterlimit="10" stroke-width="0.5" d="M 65.68 7.072 L 58.859 10.483" />
  <path stroke-linejoin="round" stroke-miterlimit="10" stroke-width="0.5" d="M 58.859 10.483 L 55.804 5.017" />
  <path stroke-linejoin="round" stroke-miterlimit="10" stroke-width="0.5" d="M 55.804 5.017 L 55.343 4.52 L 54.942 4.065 L 54.554 3.633 L 54.133 3.212 L 53.627 2.782 L 53.079 2.375 L 52.552 2.024 L 52.036 1.726 L 51.515 1.471 L 50.979 1.252 L 50.518 1.082 L 50.164 0.971 L 49.823 0.903 L 49.402 0.864 L 48.804 0.841 L 47.262 0.977 L 44.093 1.355 L 39.939 1.886 L 35.442 2.483 L 31.248 3.056 L 27.998 3.52 L 26.333 3.782 L 25.556 3.937 L 24.992 4.054 L 24.542 4.169 L 24.1 4.322 L 23.568 4.546 L 22.92 4.887 L 22.26 5.301 L 21.675 5.706 L 21.257 6.014 L 21.094 6.137" />
  <path stroke-linejoin="round" stroke-miterlimit="10" stroke-width="0.5" d="M 21.129 6.141 L 20.899 6.445 L 20.705 6.687 L 20.515 6.929 L 20.295 7.235 L 20.012 7.669 L 19.469 8.622 L 18.535 10.34 L 17.425 12.404 L 16.361 14.397 L 15.563 15.899 L 15.247 16.489" />
  <path stroke-linejoin="round" stroke-miterlimit="10" stroke-width="0.5" d="M 15.253 16.484 L 12.047 23.018" />
  <path stroke-linejoin="round" stroke-miterlimit="10" stroke-width="0.5" d="M 12.034 23.018 L 14.582 22.702" />
  <path stroke-linejoin="round" stroke-miterlimit="10" stroke-width="0.5" d="M 36.569 10.071 L 36.197 9.403 L 35.877 8.784 L 35.566 8.198 L 35.222 7.634 L 34.804 7.073 L 34.359 6.565 L 33.944 6.152 L 33.527 5.796 L 33.079 5.468 L 32.57 5.131 L 32.061 4.819 L 31.606 4.572 L 31.158 4.368 L 30.67 4.19 L 30.1 4.014 L 29.391 3.854 L 28.611 3.738 L 27.891 3.658 L 27.364 3.616 L 27.158 3.601" />
  <path stroke-linejoin="round" stroke-miterlimit="10" stroke-width="0.5" d="M 55.283 23.608 L 65.694 7.072" />
  <path stroke-linejoin="round" stroke-miterlimit="10" stroke-width="0.5" d="M 35.692 23.608 L 55.283 23.608" />
  <path stroke-linejoin="round" stroke-miterlimit="10" stroke-width="0.5" d="M 6.65 32.06 L 0.553 27.471" />
  <path stroke-linejoin="round" stroke-miterlimit="10" stroke-width="0.5" d="M 6.65 32.06 L 3.964 35.868" />
  <path stroke-linejoin="round" stroke-miterlimit="10" stroke-width="0.5" d="M 3.964 35.868 L 3.687 36.356 L 3.426 36.783 L 3.181 37.195 L 2.951 37.639 L 2.734 38.161 L 2.547 38.722 L 2.403 39.253 L 2.297 39.773 L 2.221 40.298 L 2.173 40.847 L 2.149 41.356 L 2.153 41.784 L 2.184 42.182 L 2.246 42.597 L 2.342 43.085 L 2.439 43.564 L 2.533 43.972 L 2.664 44.38 L 2.867 44.862 L 3.181 45.49 L 3.911 46.591 L 5.357 48.594 L 7.214 51.107 L 9.182 53.743 L 10.962 56.109 L 12.25 57.814 L 12.743 58.472" />
  <path stroke-linejoin="round" stroke-miterlimit="10" stroke-width="0.5" d="M 12.746 58.472 L 13.4 59.283 L 13.999 60.015 L 14.566 60.713 L 15.128 61.415 L 15.711 62.164 L 16.248 62.917 L 16.692 63.603 L 17.096 64.227 L 17.515 64.79 L 18.004 65.298 L 18.527 65.713 L 19.018 66.024 L 19.487 66.26 L 19.948 66.454 L 20.41 66.641 L 20.841 66.808 L 21.216 66.935 L 21.554 67.027 L 21.876 67.093 L 22.199 67.144 L 22.541 67.174 L 22.873 67.177 L 23.157 67.167 L 23.356 67.152 L 23.425 67.138" />
  <path stroke-linejoin="round" stroke-miterlimit="10" stroke-width="0.5" d="M 23.431 67.144 L 39.816 67.144" />
  <path stroke-linejoin="round" stroke-miterlimit="10" stroke-width="0.5" d="M 39.816 67.144 L 39.816 59.034" />
  <path stroke-linejoin="round" stroke-miterlimit="10" stroke-width="0.5" d="M 29.746 46.554 L 23.486 42.183" />
  <path stroke-linejoin="round" stroke-miterlimit="10" stroke-width="0.5" d="M 19.841 28.594 L 29.746 46.554" />
  <path stroke-linejoin="round" stroke-miterlimit="10" stroke-width="0.5" d="M 0.54 27.484 L 19.841 28.608" />
  <path stroke-linejoin="round" stroke-miterlimit="10" stroke-width="0.5" d="M 16.664 52.322 L 16.385 52.786 L 16.123 53.204 L 15.877 53.603 L 15.647 54.008 L 15.432 54.447 L 15.247 54.871 L 15.101 55.234 L 14.986 55.579 L 14.894 55.938 L 14.817 56.348 L 14.771 56.762 L 14.762 57.127 L 14.778 57.481 L 14.801 57.86 L 14.817 58.307 L 14.817 58.814 L 14.814 59.332 L 14.817 59.826 L 14.833 60.261 L 14.872 60.6 L 14.942 60.875 L 15.031 61.118 L 15.117 61.316 L 15.182 61.448 L 15.21 61.503" />
  <path stroke-linejoin="round" stroke-miterlimit="10" stroke-width="0.5" d="M 23.486 42.198 L 16.664 52.322" />
  <path stroke-linejoin="round" stroke-miterlimit="10" stroke-width="0.5" d="M 63.899 20.332 L 72.805 34.006" />
  <path stroke-linejoin="round" stroke-miterlimit="10" stroke-width="0.5" d="M 72.805 34.006 L 73 34.375 L 73.177 34.695 L 73.347 35.005 L 73.513 35.347 L 73.685 35.767 L 73.852 36.246 L 74.001 36.731 L 74.126 37.216 L 74.222 37.686 L 74.287 38.131 L 74.322 38.508 L 74.334 38.808 L 74.323 39.078 L 74.292 39.362 L 74.242 39.707 L 74.182 40.069 L 74.112 40.393 L 74.024 40.719 L 73.9 41.081 L 73.731 41.515 L 73.522 42.012 L 73.284 42.533 L 73.006 43.067 L 72.68 43.612 L 72.295 44.158 L 71.887 44.661 L 71.486 45.091 L 71.078 45.475 L 70.641 45.837 L 70.162 46.198 L 69.701 46.527 L 69.301 46.789 L 68.908 47.008 L 68.471 47.204 L 67.936 47.404 L 67.239 47.588 L 66.444 47.731 L 65.695 47.832 L 65.141 47.893 L 64.921 47.906" />
  <path stroke-linejoin="round" stroke-miterlimit="10" stroke-width="0.5" d="M 52.036 74.2 L 52.036 67.337" />
  <path stroke-linejoin="round" stroke-miterlimit="10" stroke-width="0.5" d="M 52.036 67.337 L 56.53 67.337" />
  <path stroke-linejoin="round" stroke-miterlimit="10" stroke-width="0.5" d="M 56.53 67.337 L 57.167 67.289 L 57.743 67.263 L 58.292 67.231 L 58.848 67.17 L 59.451 67.048 L 60.026 66.894 L 60.512 66.737 L 60.966 66.552 L 61.442 66.31 L 61.996 65.986 L 62.594 65.606 L 63.17 65.198 L 63.722 64.748 L 64.251 64.239 L 64.753 63.654 L 65.15 63.098 L 65.415 62.619 L 65.632 62.115 L 65.879 61.487 L 66.237 60.631 L 66.878 59.067 L 68.021 56.18 L 69.447 52.543 L 70.938 48.723 L 72.275 45.292 L 73.237 42.814 L 73.608 41.868" />
  <path stroke-linejoin="round" stroke-miterlimit="10" stroke-width="0.5" d="M 63.899 20.332 L 60.926 23.224" />
  <path stroke-linejoin="round" stroke-miterlimit="10" stroke-width="0.5" d="M 51.652 47.911 L 51.652 40.265" />
  <path stroke-linejoin="round" stroke-miterlimit="10" stroke-width="0.5" d="M 51.652 40.265 L 42.2 57.554" />
  <path stroke-linejoin="round" stroke-miterlimit="10" stroke-width="0.5" d="M 42.2 57.554 L 52.023 74.2" />
  <path stroke-linejoin="round" stroke-miterlimit="10" stroke-width="0.5" d="M 64.914 47.911 L 51.652 47.911" />
 </g>
 <g id="Picture_x0020_#">
  <text font-family="'Helvetica'" font-size="2.117" fill="#000000" stroke="none" transform="matrix(0 -1 1 0 73.817 73.989)">423 006</text>
 </g>
<style /></svg>