<svg xmlns="http://www.w3.org/2000/svg" clip-rule="evenodd" fill="none" fill-rule="evenodd" stroke="#000000" stroke-linecap="round" viewBox="0 0 75.006 50.27" width="100%" height="100%" xmlns:xml="http://www.w3.org/XML/1998/namespace" xml:space="preserve">
 <g id="A4_x0020_half_x0020_frame">
  <polygon stroke="#ffffff" stroke-linejoin="round" stroke-width="0.006" points="0.003,0.003 75.003,0.003 75.003,50.267 0.003,50.267 0.003,0.003" />
 </g>
 <g id="Colour">
 </g>
 <g id="Standard_x0020_layer">
  <path stroke-linejoin="round" stroke-width="0.3" d="M 0.35 19.588 C 0.35 19.588 8.589 14.587 9.198 14.226 C 9.807 13.862 10.112 13.369 9.634 13.166 C 9.156 12.964 8.547 12.746 8.416 12.66 C 8.285 12.573 8.198 12.326 8.43 12.18 C 8.663 12.035 16.407 7.496 18.059 6.394 C 19.713 5.293 22.67 3.146 23.628 0.855" />
  <path stroke-linejoin="round" stroke-width="0.13" d="M 25.282 0.971 C 23.89 3.698 21.742 5.756 19.974 6.916 C 18.204 8.076 10.199 13.037 10.199 13.037" />
  <path stroke-linejoin="round" stroke-width="0.13" d="M 14.433 15.647 C 14.433 15.762 0.281 25.856 0.281 25.856" />
  <path stroke-linejoin="round" stroke-width="0.13" d="M 24.876 4.075 L 43.003 9.468" />
  <path stroke-linejoin="round" stroke-width="0.3" d="M 13.999 40.706 C 13.999 40.706 23.454 44.534 23.716 44.679 C 23.977 44.825 24.035 45.057 24.15 45.289 C 24.266 45.521 24.76 46.738 24.876 46.912 C 24.992 47.087 25.108 47.261 25.426 47.377 C 25.745 47.493 31.024 48.826 31.429 48.942 C 31.835 49.058 32.213 49 32.359 48.71 C 32.503 48.42 42.597 29.626 42.597 29.626" />
  <path stroke-linejoin="round" stroke-width="0.3" d="M 41.61 30.207 C 41.292 30.207 41.234 30.439 40.682 30.207 C 40.131 29.975 39.231 29.946 39.203 29.975" />
  <path stroke-linejoin="round" stroke-width="0.3" d="M 36.534 29.365 C 37.115 29.307 37.637 29.365 37.84 29.597 C 38.042 29.829 38.536 29.946 38.738 29.888 C 38.942 29.829 39.274 29.96 39.238 29.968 C 39.203 29.975 40.74 30.699 41.03 30.699 C 41.32 30.699 41.494 30.352 41.61 30.207 C 41.726 30.062 41.929 29.684 42.075 29.597 C 42.219 29.51 42.741 29.423 42.741 29.423 C 42.741 29.423 47.295 20.693 47.555 20.49 C 47.817 20.288 48.02 19.969 48.426 20.056 C 48.832 20.143 50.225 20.49 51.094 20.346 C 51.965 20.201 54.401 19.591 55.415 18.518 C 56.43 17.445 58.055 14.284 58.868 12.746" />
  <path stroke-linejoin="round" stroke-width="0.3" d="M 67.221 8.454 C 66.673 8.769 62.768 14.906 57.969 21.853 C 49.875 33.567 39.405 48.518 39.405 48.536" />
  <path stroke-linejoin="round" stroke-width="0.3" d="M 48.194 36.18 C 48.194 36.878 45.758 48.914 45.758 48.914" />
  <path stroke-linejoin="round" stroke-width="0.3" d="M 50.95 48.566 C 50.95 47.319 55.792 25.16 55.792 25.16" />
  <path stroke-linejoin="round" stroke-width="0.13" d="M 53.212 29.452 C 52.225 32.817 49.384 48.189 49.384 48.189" />
  <path stroke-linejoin="round" stroke-width="0.13" d="M 37.723 48.652 C 37.723 48.362 66.263 8.512 66.263 8.512" />
  <path stroke-linejoin="round" stroke-width="0.13" d="M 24.614 44.012 C 24.614 43.896 30.879 35.137 30.879 35.137" />
  <path stroke-linejoin="round" stroke-width="0.13" d="M 25.368 46.216 C 25.693 46.029 30.356 38.328 30.356 38.328" />
  <path stroke-linejoin="round" stroke-width="0.13" d="M 14.131 40.381 L 23.885 44.372 C 23.981 44.426 24.057 44.487 24.123 44.554 C 24.253 44.686 24.332 44.844 24.407 45.011 C 24.425 45.051 24.443 45.091 24.463 45.131 C 24.51 45.225 24.615 45.472 24.734 45.75 C 24.902 46.145 25.167 46.719 25.167 46.719 C 25.167 46.719 25.277 46.896 25.385 46.968 C 25.428 46.997 25.528 47.042 25.528 47.042 L 31.527 48.606 C 31.705 48.658 31.876 48.677 31.993 48.609 L 32.049 48.545 L 42.287 29.46" />
  <path stroke-linejoin="round" stroke-width="0.3" d="M 13.51 38.402 L 17.565 40.024 L 20.234 37.017" />
  <path stroke-linejoin="round" stroke-width="0.3" d="M 12.882 34.53 C 13.493 34.883 19.92 37.304 19.92 37.304" />
  <path stroke-linejoin="round" stroke-width="0.13" d="M 20.234 37.017 C 19.001 36.304 12.778 34.033 12.778 34.008" />
  <path stroke-linejoin="round" stroke-width="0.3" d="M 5.95 30.632 C 8.49 29.166 8.749 28.722 8.984 28.591 C 9.22 28.461 9.403 28.513 9.638 28.618 C 9.874 28.722 12.464 29.586 13.458 29.376 C 14.452 29.167 14.923 28.827 15.734 28.251 C 16.545 27.676 17.931 26.472 18.193 26.028 C 18.454 25.583 18.297 25.007 17.12 24.379 C 15.943 23.751 14.06 23.621 13.484 23.778 C 12.909 23.936 12.593 24.207 12.202 24.432 C 11.811 24.658 9.194 26.786 8.906 27.048 C 8.618 27.309 8.369 28.269 8.848 28.693" />
  <path stroke-linejoin="round" stroke-width="0.13" d="M 8.848 28.693 C 8.278 28.33 7.99 27.414 8.696 26.734 C 9.403 26.054 12.516 23.751 12.935 23.49 C 13.353 23.228 15.42 23.15 16.832 23.751 C 18.245 24.353 19.176 24.878 18.071 26.199" />
  <path stroke-linejoin="round" stroke-width="0.3" d="M 64.251 7.799 C 66.492 8.587 66.54 8.194 66.959 8.194 C 67.378 8.194 68.043 8.416 68.486 8.464 C 68.929 8.513 71.808 7.702 71.76 7.775 C 71.71 7.849 74.837 9.105 74.837 9.105" />
  <path stroke-linejoin="round" stroke-width="0.3" d="M 56.621 6.421 C 56.546 6.544 56.226 6.913 55.341 7.307 C 54.454 7.702 52.731 8.391 52.558 9.375 C 52.387 10.359 52.682 11.295 54.256 10.951 C 55.832 10.606 56.792 9.916 57.359 9.695 C 57.924 9.474 58.295 9.499 59.131 9.425 C 59.969 9.35 60.313 9.276 60.338 9.276 C 60.362 9.276 61.569 8.833 62.332 8.833 C 63.094 8.833 63.316 8.957 63.661 8.686 C 64.006 8.416 64.129 7.948 64.399 7.578 C 64.67 7.208 65.852 4.796 65.974 3.812 C 66.097 2.827 65.507 1.277 65.162 1.03 C 64.817 0.785 64.055 0.391 63.686 0.637 C 63.316 0.883 63.021 1.104 62.996 1.104 C 62.972 1.104 62.307 1.302 62.012 1.351 C 61.716 1.399 61.469 1.425 61.469 1.425 C 61.469 1.425 61.569 1.326 61.249 1.302 C 60.929 1.277 60.756 1.425 60.756 1.449 C 60.756 1.474 58.491 1.572 57.506 1.523 C 56.521 1.474 55.021 1.277 54.405 1.425 C 53.789 1.572 53.616 1.671 53.593 1.671 C 53.567 1.671 50.762 1.548 50.343 1.694 C 49.924 1.843 49.21 2.729 48.67 3.246 C 48.128 3.762 47.094 5.806 47.265 6.716 C 47.439 7.628 47.956 7.849 48.521 7.554 C 49.088 7.259 49.21 6.569 49.481 6.126 C 49.753 5.682 49.753 5.609 49.753 5.609 C 49.753 5.609 49.924 5.535 50.539 5.142 C 51.155 4.748 51.304 4.525 51.451 4.525 C 51.598 4.525 53.371 4.796 54.503 5.166 C 55.636 5.535 56.177 5.658 56.201 5.658 C 56.226 5.658 56.201 6.323 56.621 6.421 Z" />
  <path stroke-linejoin="round" stroke-width="0.13" d="M 56.621 6.421 C 56.89 6.126 57.039 5.634 57.039 5.411" />
  <path stroke-linejoin="round" stroke-width="0.13" d="M 61.1 1.818 C 61.593 2.139 61.667 2.605 61.716 2.876" />
  <path stroke-linejoin="round" stroke-width="0.13" d="M 61.469 1.425 C 61.912 2.064 62.307 2.827 62.381 3.197" />
  <path stroke-linejoin="round" stroke-width="0.13" d="M 64.941 3.565 C 64.769 4.674 64.448 6.076 64.153 6.569" />
  <path stroke-linejoin="round" stroke-width="0.13" d="M 58.762 5.362 C 58.909 5.609 58.835 6.126 58.811 6.373" />
  <path stroke-linejoin="round" stroke-width="0.13" d="M 59.402 5.142 C 59.475 5.56 59.353 6.939 59.304 7.184" />
  <path stroke-linejoin="round" stroke-width="0.13" d="M 59.771 4.748 C 59.82 5.288 59.895 7.456 59.844 7.751" />
  <path stroke-linejoin="round" stroke-width="0.13" d="M 60.338 9.276 C 60.756 8.981 61.1 8.736 61.249 8.538" />
  <path stroke-linejoin="round" stroke-width="0.3" d="M 47.536 7.602 C 47.463 8.686 48.005 9.942 49.088 9.474" />
  <path stroke-linejoin="round" stroke-width="0.3" d="M 51.204 10.31 C 51.624 11.442 52.633 12.058 53.002 11.96 C 53.371 11.862 53.523 11.323 53.543 11.173" />
  <path stroke-linejoin="round" stroke-width="0.3" d="M 54.134 11.196 C 54.601 11.887 55.143 12.058 55.341 12.083 C 55.537 12.108 55.61 11.788 55.661 11.664" />
  <path stroke-linejoin="round" stroke-width="0.3" d="M 48.838 8 C 48.918 9.023 49.406 10.089 50.023 10.188 C 50.786 10.31 51.204 10.31 51.204 10.31 C 51.204 10.31 58.664 12.452 58.835 12.502 C 59.008 12.551 59.255 12.747 59.549 12.747 C 59.844 12.747 61.569 12.33 62.109 9.055" />
  <path stroke-linejoin="round" stroke-width="0.13" d="M 59.255 12.526 C 59.993 12.378 60.78 11.739 61.198 10.803 C 61.618 9.868 61.597 9.226 61.619 8.919" />
  <g>
   <path stroke-linejoin="round" stroke-width="0.3" d="M 48.673 7.458 C 48.799 8.156 49.149 8.587 49.567 8.644" />
   <path stroke-linejoin="round" stroke-width="0.13" d="M 49.567 8.644 C 50.212 8.724 50.847 7.886 50.985 6.769 C 51.066 6.128 50.965 5.536 50.741 5.129" />
  </g>
  <g>
   <path stroke-linejoin="round" stroke-width="0.3" d="M 49.652 7.751 C 49.658 7.753 49.664 7.753 49.67 7.753" />
   <path stroke-linejoin="round" stroke-width="0.13" d="M 49.67 7.753 C 50.03 7.801 50.39 7.333 50.472 6.71 C 50.534 6.232 50.417 5.801 50.194 5.601" />
  </g>
  <g>
   <path stroke-linejoin="round" stroke-width="0.3" d="M 49.804 8.689 C 49.819 8.692 49.832 8.695 49.844 8.695" />
   <path stroke-linejoin="round" stroke-width="0.13" d="M 49.844 8.695 C 50.488 8.776 51.125 7.937 51.264 6.82 C 51.35 6.128 51.225 5.493 50.962 5.086" />
  </g>
  <g>
   <path stroke-linejoin="round" stroke-width="0.13" d="M 50.411 10.173 C 51.414 9.974 52.267 8.6 52.478 6.942 C 52.585 6.089 52.506 5.286 52.29 4.65" />
  </g>
  <g>
   <path stroke-linejoin="round" stroke-width="0.13" d="M 50.543 10.224 C 51.567 10.073 52.457 8.685 52.673 6.984 C 52.777 6.157 52.706 5.376 52.506 4.751" />
  </g>
  <g>
   <path stroke-linejoin="round" stroke-width="0.13" d="M 51.1 10.244 C 52.058 9.958 52.841 8.622 53.043 7.046 C 53.149 6.195 53.072 5.392 52.857 4.756" />
  </g>
  <line stroke-linejoin="round" stroke-width="0.3" x1="49.527" y1="8.638" x2="49.804" y2="8.689" />
  <line stroke-linejoin="round" stroke-width="0.3" x1="49.652" y1="7.751" x2="48.817" y2="7.5" />
  <g>
   <path stroke-dasharray="0.701,0.701" stroke-linejoin="round" stroke-width="0.13" d="M 43.881 32.112 C 44.353 31.009 44.006 29.675 43.064 28.414 C 41.027 25.693 36.64 23.812 33.265 24.214 C 31.576 24.417 30.461 25.15 30.022 26.173" />
   <path stroke-dasharray="0.701,0.701" stroke-linejoin="round" stroke-width="0.3" d="M 30.022 26.173 C 29.55 27.278 29.896 28.611 30.839 29.873 C 32.877 32.594 37.264 34.475 40.639 34.072 C 42.326 33.871 43.442 33.137 43.881 32.112" />
  </g>
  <line stroke-dasharray="0.701,0.701" stroke-linejoin="round" stroke-width="0.3" x1="30.597" y1="25.338" x2="48.673" y2="7.458" />
  <line stroke-dasharray="0.701,0.701" stroke-linejoin="round" stroke-width="0.3" x1="44.04" y1="31.588" x2="48.503" y2="8.355" />
  <path stroke-linejoin="round" stroke-width="0.3" d="M 65.162 1.03 C 65.784 0.635 66.733 0.386 66.784 0.386" />
  <path stroke-linejoin="round" stroke-width="0.13" d="M 68.231 6.577 C 69.031 5.628 69.281 5.429 69.879 5.128 C 70.478 4.83 71.927 3.081 72.126 2.282" />
  <path stroke-linejoin="round" stroke-width="0.13" d="M 65.486 7.575 C 66.034 7.275 67.134 7.775 67.783 7.676" />
 </g>
 <g id="Blow-up">
 </g>
 <g id="Symbols">
 </g>
 <g id="Text&amp;Poses">
 </g>
 <g id="Measures">
 </g>
 <g id="Picture_x0020_#">
  <text font-family="'Arial'" font-size="2.117" fill="#000000" stroke="none" transform="matrix(0 -1 1 0 73.817 49.253)">423 769</text>
 </g>
<style /></svg>